<?xml version="1.0" encoding="UTF-8" standalone="no"?><!DOCTYPE svg PUBLIC "-//W3C//DTD SVG 1.1//EN" "http://www.w3.org/Graphics/SVG/1.1/DTD/svg11.dtd"><svg width="100%" height="100%" viewBox="0 0 32 32" version="1.1" xmlns="http://www.w3.org/2000/svg" xmlns:xlink="http://www.w3.org/1999/xlink" xml:space="preserve" xmlns:serif="http://www.serif.com/" style="fill-rule:evenodd;clip-rule:evenodd;stroke-linecap:round;stroke-linejoin:round;stroke-miterlimit:10;"><rect id="beer" x="0" y="0" width="32" height="32" style="fill:none;"/><clipPath id="_clip1"><rect x="0" y="0" width="32" height="32"/></clipPath><g clip-path="url(#_clip1)"><g id="outline"><path d="M6.005,5c0.151,-1.666 3.675,-3 7.995,-3c4.32,0 7.844,1.334 7.995,3l0.006,0l0,3l3.999,0c1.105,0 2,0.895 2,2c0,2.22 0,5.78 0,8c0,1.105 -0.895,2 -2,2l-3.87,0l0.779,6l0,0c0.06,0.163 0.091,0.33 0.091,0.5c0,1.932 -4.033,3.5 -9,3.5c-4.967,0 -9,-1.568 -9,-3.5c0,-0.17 0.031,-0.337 0.091,-0.5l-0.091,0l1,-6.965l0,-14.035l0.005,0Zm15.996,13l3.999,0l0,-8l-3.999,0l0,8Z" style="fill:none;stroke:#000;stroke-width:4px;"/><rect x="20" y="9" width="7" height="10"/></g><g id="emoji"><path d="M5.013,26.313l0.988,-7.282l0,-14.031l15.999,0l0,3l4,0c1.105,0 2,0.895 2,2c0,2.22 0,5.78 0,8c0,1.105 -0.895,2 -2,2l-3.864,0l0.851,6.314l0.002,0.009l0,0c0.007,0.059 0.011,0.118 0.011,0.177c0,1.932 -4.033,3.5 -9,3.5c-4.967,0 -9,-1.568 -9,-3.5c0,-0.059 0.004,-0.118 0.011,-0.177l0,0l0.001,-0.001l0,-0.002l0.001,-0.007Zm16.987,-8.313l4,0l0,-8l-4,0l0,8Z" style="fill:#ccc;"/><path d="M21,5l-13.999,0l0,17l1.999,1l5,1l5,-1l2,-1l0,-17Z" style="fill:none;"/><clipPath id="_clip2"><path d="M21,5l-13.999,0l0,17l1.999,1l5,1l5,-1l2,-1l0,-17Z"/></clipPath><g clip-path="url(#_clip2)"><rect x="7" y="12.722" width="14" height="11.278" style="fill:#fdb203;"/><path d="M7,8.722l14,0l0,4c0,1.503 -3.137,2.722 -7,2.722c-3.863,0 -7,-1.219 -7,-2.722l0,-4Z" style="fill:#ce9002;"/><path d="M7,4.722l14,0l0,4c0,1.503 -3.137,2.722 -7,2.722c-3.863,0 -7,-1.219 -7,-2.722l0,-4Z" style="fill:#fff;"/></g><ellipse cx="14" cy="5.111" rx="7.26" ry="2.388" style="fill:#fff;"/><rect x="6.001" y="21" width="15.999" height="6" style="fill:none;"/><clipPath id="_clip3"><rect x="6.001" y="21" width="15.999" height="6"/></clipPath><g clip-path="url(#_clip3)"><path id="_-Ellipse-" serif:id="(Ellipse)" d="M14.206,18.001l0.205,0.003l0.204,0.005l0.202,0.007l0.201,0.009l0.2,0.011l0.197,0.013l0.196,0.014l0.195,0.017l0.192,0.018l0.191,0.02l0.189,0.022l0.187,0.024l0.184,0.025l0.183,0.027l0.181,0.029l0.178,0.03l0.176,0.032l0.174,0.034l0.171,0.035l0.169,0.036l0.166,0.039l0.164,0.039l0.161,0.042l0.158,0.042l0.155,0.044l0.153,0.046l0.15,0.047l0.146,0.048l0.144,0.05l0.14,0.05l0.138,0.053l0.134,0.053l0.131,0.055l0.127,0.056l0.124,0.057l0.121,0.058l0.117,0.059l0.113,0.061l0.11,0.061l0.106,0.063l0.102,0.063l0.098,0.065l0.048,0.033l0.047,0.033l0.046,0.033l0.044,0.033l0.044,0.034l0.043,0.034l0.041,0.034l0.041,0.034l0.039,0.035l0.039,0.035l0.037,0.035l0.037,0.035l0.035,0.035l0.034,0.036l0.033,0.036l0.032,0.036l0.031,0.036l0.03,0.036l0.029,0.037l0.027,0.037l0.027,0.037l0.025,0.037l0.024,0.037l0.023,0.038l0.022,0.038l0.02,0.037l0.02,0.038l0.018,0.039l0.017,0.038l0.016,0.039l0.014,0.038l0.014,0.039l0.012,0.039l0.011,0.039l0.009,0.039l0.009,0.04l0.007,0.039l0.006,0.04l0.004,0.04l0.003,0.04l0.002,0.04l0.001,0.04l-0.001,0.04l-0.002,0.04l-0.003,0.04l-0.004,0.04l-0.006,0.04l-0.007,0.039l-0.009,0.04l-0.009,0.039l-0.011,0.039l-0.012,0.039l-0.014,0.039l-0.014,0.039l-0.016,0.038l-0.017,0.039l-0.018,0.038l-0.02,0.038l-0.02,0.038l-0.022,0.037l-0.023,0.038l-0.024,0.037l-0.025,0.037l-0.027,0.037l-0.027,0.037l-0.029,0.037l-0.03,0.036l-0.031,0.036l-0.032,0.037l-0.033,0.035l-0.034,0.036l-0.035,0.035l-0.037,0.036l-0.037,0.035l-0.039,0.034l-0.039,0.035l-0.041,0.034l-0.041,0.034l-0.043,0.034l-0.044,0.034l-0.044,0.033l-0.046,0.034l-0.047,0.032l-0.048,0.033l-0.098,0.065l-0.102,0.063l-0.106,0.063l-0.11,0.062l-0.113,0.06l-0.117,0.059l-0.121,0.059l-0.124,0.057l-0.127,0.055l-0.131,0.055l-0.134,0.054l-0.138,0.052l-0.14,0.051l-0.144,0.049l-0.146,0.048l-0.15,0.047l-0.153,0.046l-0.155,0.044l-0.158,0.043l-0.161,0.041l-0.164,0.04l-0.166,0.038l-0.169,0.036l-0.171,0.036l-0.174,0.033l-0.176,0.032l-0.178,0.031l-0.181,0.028l-0.183,0.027l-0.184,0.026l-0.187,0.023l-0.189,0.022l-0.191,0.02l-0.192,0.018l-0.195,0.017l-0.196,0.015l-0.197,0.012l-0.2,0.011l-0.201,0.009l-0.202,0.007l-0.204,0.005l-0.205,0.003l-0.206,0.001l-0.206,-0.001l-0.205,-0.003l-0.204,-0.005l-0.202,-0.007l-0.201,-0.009l-0.2,-0.011l-0.197,-0.012l-0.196,-0.015l-0.195,-0.017l-0.192,-0.018l-0.191,-0.02l-0.189,-0.022l-0.187,-0.023l-0.184,-0.026l-0.183,-0.027l-0.181,-0.028l-0.178,-0.031l-0.176,-0.032l-0.174,-0.033l-0.171,-0.036l-0.169,-0.036l-0.166,-0.038l-0.164,-0.04l-0.161,-0.041l-0.158,-0.043l-0.155,-0.044l-0.153,-0.046l-0.15,-0.047l-0.146,-0.048l-0.144,-0.049l-0.14,-0.051l-0.138,-0.052l-0.134,-0.054l-0.131,-0.055l-0.127,-0.055l-0.124,-0.057l-0.121,-0.059l-0.117,-0.059l-0.113,-0.06l-0.11,-0.062l-0.106,-0.063l-0.102,-0.063l-0.098,-0.065l-0.048,-0.033l-0.047,-0.032l-0.046,-0.034l-0.044,-0.033l-0.044,-0.034l-0.043,-0.034l-0.041,-0.034l-0.041,-0.034l-0.039,-0.035l-0.039,-0.034l-0.037,-0.035l-0.037,-0.036l-0.035,-0.035l-0.034,-0.036l-0.033,-0.035l-0.032,-0.037l-0.031,-0.036l-0.03,-0.036l-0.029,-0.037l-0.027,-0.037l-0.027,-0.037l-0.025,-0.037l-0.024,-0.037l-0.023,-0.038l-0.022,-0.037l-0.02,-0.038l-0.02,-0.038l-0.018,-0.038l-0.017,-0.039l-0.016,-0.038l-0.014,-0.039l-0.014,-0.039l-0.012,-0.039l-0.011,-0.039l-0.009,-0.039l-0.009,-0.04l-0.007,-0.039l-0.006,-0.04l-0.004,-0.04l-0.003,-0.04l-0.002,-0.04l-0.001,-0.04l0.001,-0.04l0.002,-0.04l0.003,-0.04l0.004,-0.04l0.006,-0.04l0.007,-0.039l0.009,-0.04l0.009,-0.039l0.011,-0.039l0.012,-0.039l0.014,-0.039l0.014,-0.038l0.016,-0.039l0.017,-0.038l0.018,-0.039l0.02,-0.038l0.02,-0.037l0.022,-0.038l0.023,-0.038l0.024,-0.037l0.025,-0.037l0.027,-0.037l0.027,-0.037l0.029,-0.037l0.03,-0.036l0.031,-0.036l0.032,-0.036l0.033,-0.036l0.034,-0.036l0.035,-0.035l0.037,-0.035l0.037,-0.035l0.039,-0.035l0.039,-0.035l0.041,-0.034l0.041,-0.034l0.043,-0.034l0.044,-0.034l0.044,-0.033l0.046,-0.033l0.047,-0.033l0.048,-0.033l0.098,-0.065l0.102,-0.063l0.106,-0.063l0.11,-0.061l0.113,-0.061l0.117,-0.059l0.121,-0.058l0.124,-0.057l0.127,-0.056l0.131,-0.055l0.134,-0.053l0.138,-0.053l0.14,-0.05l0.144,-0.05l0.146,-0.048l0.15,-0.047l0.153,-0.046l0.155,-0.044l0.158,-0.042l0.161,-0.042l0.164,-0.039l0.166,-0.039l0.169,-0.036l0.171,-0.035l0.174,-0.034l0.176,-0.032l0.178,-0.03l0.181,-0.029l0.183,-0.027l0.184,-0.025l0.187,-0.024l0.189,-0.022l0.191,-0.02l0.192,-0.018l0.195,-0.017l0.196,-0.014l0.197,-0.013l0.2,-0.011l0.201,-0.009l0.202,-0.007l0.204,-0.005l0.205,-0.003l0.206,-0.001l0.206,0.001Zm-0.402,1l-0.196,0.003l-0.194,0.005l-0.192,0.006l-0.191,0.009l-0.189,0.01l-0.188,0.012l-0.186,0.014l-0.184,0.016l-0.183,0.017l-0.18,0.019l-0.179,0.021l-0.176,0.022l-0.174,0.024l-0.172,0.025l-0.17,0.027l-0.168,0.029l-0.165,0.03l-0.162,0.031l-0.16,0.033l-0.157,0.034l-0.155,0.036l-0.152,0.037l-0.148,0.038l-0.146,0.039l-0.143,0.041l-0.139,0.041l-0.137,0.043l-0.133,0.044l-0.129,0.044l-0.127,0.046l-0.122,0.047l-0.119,0.047l-0.115,0.048l-0.112,0.049l-0.107,0.049l-0.103,0.05l-0.099,0.05l-0.095,0.051l-0.091,0.051l-0.086,0.051l-0.082,0.051l-0.08,0.052l-0.034,0.024l-0.036,0.025l-0.034,0.025l-0.034,0.025l-0.032,0.025l-0.031,0.024l-0.029,0.025l-0.029,0.024l-0.027,0.023l-0.026,0.024l-0.025,0.023l-0.024,0.023l-0.022,0.022l-0.021,0.023l-0.02,0.021l-0.019,0.021l-0.018,0.021l-0.016,0.02l-0.016,0.02l-0.014,0.019l-0.013,0.018l-0.012,0.018l-0.011,0.017l-0.01,0.017l-0.009,0.015l-0.008,0.015l-0.008,0.015l-0.006,0.013l-0.006,0.013l-0.005,0.013l-0.004,0.011l-0.004,0.011l-0.003,0.01l-0.003,0.01l-0.002,0.009l-0.002,0.009l-0.002,0.009l-0.001,0.008l-0.001,0.007l0,0.008l-0.001,0.007l0,0.008l0,0.008l0.001,0.007l0,0.008l0.001,0.008l0.001,0.008l0.002,0.008l0.002,0.009l0.002,0.009l0.003,0.01l0.003,0.01l0.004,0.011l0.004,0.012l0.005,0.012l0.006,0.013l0.006,0.013l0.008,0.015l0.008,0.015l0.009,0.015l0.01,0.017l0.011,0.017l0.012,0.018l0.013,0.018l0.014,0.019l0.016,0.02l0.016,0.02l0.018,0.021l0.019,0.021l0.02,0.022l0.021,0.022l0.022,0.022l0.024,0.023l0.025,0.023l0.026,0.024l0.027,0.024l0.029,0.024l0.029,0.024l0.031,0.025l0.032,0.024l0.034,0.025l0.034,0.025l0.036,0.025l0.034,0.024l0.08,0.052l0.082,0.051l0.086,0.051l0.091,0.051l0.095,0.051l0.099,0.05l0.103,0.05l0.107,0.049l0.112,0.049l0.115,0.048l0.119,0.048l0.122,0.046l0.126,0.046l0.13,0.045l0.133,0.043l0.137,0.043l0.139,0.042l0.143,0.04l0.146,0.039l0.148,0.039l0.152,0.036l0.155,0.036l0.157,0.034l0.16,0.033l0.162,0.031l0.165,0.03l0.168,0.029l0.17,0.027l0.172,0.025l0.174,0.024l0.176,0.022l0.179,0.021l0.18,0.019l0.183,0.018l0.184,0.015l0.186,0.014l0.188,0.012l0.189,0.01l0.191,0.009l0.192,0.007l0.194,0.004l0.196,0.003l0.196,0.001l0.196,-0.001l0.196,-0.003l0.194,-0.004l0.192,-0.007l0.191,-0.009l0.189,-0.01l0.188,-0.012l0.186,-0.014l0.184,-0.015l0.183,-0.018l0.18,-0.019l0.179,-0.021l0.176,-0.022l0.174,-0.024l0.172,-0.025l0.17,-0.027l0.168,-0.029l0.165,-0.03l0.162,-0.031l0.16,-0.033l0.157,-0.034l0.155,-0.036l0.152,-0.036l0.148,-0.039l0.146,-0.039l0.143,-0.04l0.139,-0.042l0.137,-0.043l0.133,-0.043l0.13,-0.045l0.126,-0.046l0.122,-0.046l0.119,-0.048l0.115,-0.048l0.112,-0.049l0.107,-0.049l0.103,-0.05l0.099,-0.05l0.095,-0.051l0.091,-0.051l0.086,-0.051l0.082,-0.051l0.08,-0.052l0.034,-0.024l0.036,-0.025l0.034,-0.025l0.034,-0.025l0.032,-0.024l0.031,-0.025l0.029,-0.024l0.029,-0.024l0.027,-0.024l0.026,-0.024l0.025,-0.023l0.024,-0.023l0.022,-0.022l0.021,-0.022l0.02,-0.022l0.019,-0.021l0.018,-0.021l0.016,-0.02l0.016,-0.02l0.014,-0.019l0.013,-0.018l0.012,-0.018l0.011,-0.017l0.01,-0.016l0.009,-0.016l0.009,-0.015l0.007,-0.015l0.006,-0.013l0.006,-0.013l0.005,-0.012l0.004,-0.012l0.004,-0.011l0.003,-0.01l0.003,-0.01l0.002,-0.009l0.002,-0.009l0.002,-0.008l0.001,-0.008l0.001,-0.008l0,-0.008l0.001,-0.007l0,-0.008l0,-0.007l-0.001,-0.008l0,-0.008l-0.001,-0.007l-0.001,-0.009l-0.002,-0.008l-0.002,-0.009l-0.002,-0.009l-0.003,-0.009l-0.003,-0.011l-0.004,-0.011l-0.004,-0.011l-0.005,-0.013l-0.006,-0.013l-0.006,-0.013l-0.007,-0.014l-0.009,-0.016l-0.009,-0.015l-0.01,-0.017l-0.011,-0.017l-0.012,-0.018l-0.013,-0.018l-0.014,-0.019l-0.016,-0.02l-0.016,-0.02l-0.018,-0.021l-0.019,-0.021l-0.02,-0.021l-0.021,-0.023l-0.022,-0.022l-0.024,-0.023l-0.025,-0.023l-0.026,-0.024l-0.027,-0.023l-0.028,-0.024l-0.03,-0.025l-0.031,-0.024l-0.032,-0.025l-0.034,-0.025l-0.034,-0.025l-0.036,-0.025l-0.034,-0.024l-0.08,-0.052l-0.082,-0.051l-0.086,-0.051l-0.091,-0.051l-0.095,-0.051l-0.099,-0.05l-0.103,-0.05l-0.107,-0.049l-0.112,-0.049l-0.115,-0.048l-0.119,-0.047l-0.122,-0.047l-0.127,-0.046l-0.129,-0.044l-0.133,-0.044l-0.137,-0.043l-0.139,-0.041l-0.143,-0.041l-0.146,-0.039l-0.148,-0.038l-0.152,-0.037l-0.155,-0.036l-0.157,-0.034l-0.16,-0.033l-0.162,-0.031l-0.165,-0.03l-0.168,-0.029l-0.17,-0.027l-0.172,-0.025l-0.174,-0.024l-0.176,-0.022l-0.179,-0.021l-0.18,-0.019l-0.183,-0.017l-0.184,-0.016l-0.186,-0.014l-0.188,-0.012l-0.189,-0.01l-0.191,-0.009l-0.192,-0.006l-0.194,-0.005l-0.196,-0.003l-0.196,-0.001l-0.196,0.001Z" style="fill:#ccc;"/></g><path d="M5,5l18,0l0,21.5c0,1.932 -4.033,3.5 -9,3.5c-4.967,0 -9,-1.568 -9,-3.5l0,-21.5Z" style="fill:none;"/><clipPath id="_clip4"><path d="M5,5l18,0l0,21.5c0,1.932 -4.033,3.5 -9,3.5c-4.967,0 -9,-1.568 -9,-3.5l0,-21.5Z"/></clipPath><g clip-path="url(#_clip4)"><path d="M12,8l-2,-1l-2,0c0,0 0,10.653 0,12.29c0,0.14 -0.007,0.28 -0.022,0.419c-0.147,1.393 -0.978,9.291 -0.978,9.291l4,2c0,0 0.847,-8.894 0.982,-10.311c0.012,-0.126 0.018,-0.252 0.018,-0.379c0,-1.568 0,-12.31 0,-12.31Z" style="fill:#fff;fill-opacity:0.34902;"/></g><path d="M14.206,2.001l0.205,0.003l0.204,0.005l0.202,0.007l0.201,0.009l0.2,0.011l0.197,0.013l0.196,0.014l0.195,0.017l0.192,0.018l0.191,0.02l0.189,0.022l0.187,0.024l0.184,0.025l0.183,0.027l0.181,0.029l0.178,0.03l0.176,0.032l0.174,0.034l0.171,0.035l0.169,0.036l0.166,0.039l0.164,0.039l0.161,0.042l0.158,0.042l0.155,0.044l0.153,0.046l0.15,0.047l0.146,0.048l0.144,0.05l0.14,0.05l0.138,0.053l0.134,0.053l0.131,0.055l0.127,0.056l0.124,0.057l0.121,0.058l0.117,0.059l0.113,0.061l0.11,0.061l0.106,0.063l0.102,0.063l0.098,0.065l0.048,0.033l0.047,0.033l0.046,0.033l0.044,0.033l0.044,0.034l0.043,0.034l0.041,0.034l0.041,0.034l0.039,0.035l0.039,0.035l0.037,0.035l0.037,0.035l0.035,0.035l0.034,0.036l0.033,0.036l0.032,0.036l0.031,0.036l0.03,0.036l0.029,0.037l0.027,0.037l0.027,0.037l0.025,0.037l0.024,0.037l0.023,0.038l0.022,0.038l0.02,0.037l0.02,0.038l0.018,0.039l0.017,0.038l0.016,0.039l0.014,0.038l0.014,0.039l0.012,0.039l0.011,0.039l0.009,0.039l0.009,0.04l0.007,0.039l0.006,0.04l0.004,0.04l0.003,0.04l0.002,0.04l0.001,0.04l-0.001,0.04l-0.002,0.04l-0.003,0.04l-0.004,0.04l-0.006,0.04l-0.007,0.039l-0.009,0.04l-0.009,0.039l-0.011,0.039l-0.012,0.039l-0.014,0.039l-0.014,0.039l-0.016,0.038l-0.017,0.039l-0.018,0.038l-0.02,0.038l-0.02,0.038l-0.022,0.037l-0.023,0.038l-0.024,0.037l-0.025,0.037l-0.027,0.037l-0.027,0.037l-0.029,0.037l-0.03,0.036l-0.031,0.036l-0.032,0.037l-0.033,0.035l-0.034,0.036l-0.035,0.035l-0.037,0.036l-0.037,0.035l-0.039,0.034l-0.039,0.035l-0.041,0.034l-0.041,0.034l-0.043,0.034l-0.044,0.034l-0.044,0.033l-0.046,0.034l-0.047,0.032l-0.048,0.033l-0.098,0.065l-0.102,0.063l-0.106,0.063l-0.11,0.062l-0.113,0.06l-0.117,0.059l-0.121,0.059l-0.124,0.057l-0.127,0.055l-0.131,0.055l-0.134,0.054l-0.138,0.052l-0.14,0.051l-0.144,0.049l-0.146,0.048l-0.15,0.047l-0.153,0.046l-0.155,0.044l-0.158,0.043l-0.161,0.041l-0.164,0.04l-0.166,0.038l-0.169,0.036l-0.171,0.036l-0.174,0.033l-0.176,0.032l-0.178,0.031l-0.181,0.028l-0.183,0.027l-0.184,0.026l-0.187,0.023l-0.189,0.022l-0.191,0.02l-0.192,0.018l-0.195,0.017l-0.196,0.015l-0.197,0.012l-0.2,0.011l-0.201,0.009l-0.202,0.007l-0.204,0.005l-0.205,0.003l-0.206,0.001l-0.206,-0.001l-0.205,-0.003l-0.204,-0.005l-0.202,-0.007l-0.201,-0.009l-0.2,-0.011l-0.197,-0.012l-0.196,-0.015l-0.195,-0.017l-0.192,-0.018l-0.191,-0.02l-0.189,-0.022l-0.187,-0.023l-0.184,-0.026l-0.183,-0.027l-0.181,-0.028l-0.178,-0.031l-0.176,-0.032l-0.174,-0.033l-0.171,-0.036l-0.169,-0.036l-0.166,-0.038l-0.164,-0.04l-0.161,-0.041l-0.158,-0.043l-0.155,-0.044l-0.153,-0.046l-0.15,-0.047l-0.146,-0.048l-0.144,-0.049l-0.14,-0.051l-0.138,-0.052l-0.134,-0.054l-0.131,-0.055l-0.127,-0.055l-0.124,-0.057l-0.121,-0.059l-0.117,-0.059l-0.113,-0.06l-0.11,-0.062l-0.106,-0.063l-0.102,-0.063l-0.098,-0.065l-0.048,-0.033l-0.047,-0.032l-0.046,-0.034l-0.044,-0.033l-0.044,-0.034l-0.043,-0.034l-0.041,-0.034l-0.041,-0.034l-0.039,-0.035l-0.039,-0.034l-0.037,-0.035l-0.037,-0.036l-0.035,-0.035l-0.034,-0.036l-0.033,-0.035l-0.032,-0.037l-0.031,-0.036l-0.03,-0.036l-0.029,-0.037l-0.027,-0.037l-0.027,-0.037l-0.025,-0.037l-0.024,-0.037l-0.023,-0.038l-0.022,-0.037l-0.02,-0.038l-0.02,-0.038l-0.018,-0.038l-0.017,-0.039l-0.016,-0.038l-0.014,-0.039l-0.014,-0.039l-0.012,-0.039l-0.011,-0.039l-0.009,-0.039l-0.009,-0.04l-0.007,-0.039l-0.006,-0.04l-0.004,-0.04l-0.003,-0.04l-0.002,-0.04l-0.001,-0.04l0.001,-0.04l0.002,-0.04l0.003,-0.04l0.004,-0.04l0.006,-0.04l0.007,-0.039l0.009,-0.04l0.009,-0.039l0.011,-0.039l0.012,-0.039l0.014,-0.039l0.014,-0.038l0.016,-0.039l0.017,-0.038l0.018,-0.039l0.02,-0.038l0.02,-0.037l0.022,-0.038l0.023,-0.038l0.024,-0.037l0.025,-0.037l0.027,-0.037l0.027,-0.037l0.029,-0.037l0.03,-0.036l0.031,-0.036l0.032,-0.036l0.033,-0.036l0.034,-0.036l0.035,-0.035l0.037,-0.035l0.037,-0.035l0.039,-0.035l0.039,-0.035l0.041,-0.034l0.041,-0.034l0.043,-0.034l0.044,-0.034l0.044,-0.033l0.046,-0.033l0.047,-0.033l0.048,-0.033l0.098,-0.065l0.102,-0.063l0.106,-0.063l0.11,-0.061l0.113,-0.061l0.117,-0.059l0.121,-0.058l0.124,-0.057l0.127,-0.056l0.131,-0.055l0.134,-0.053l0.138,-0.053l0.14,-0.05l0.144,-0.05l0.146,-0.048l0.15,-0.047l0.153,-0.046l0.155,-0.044l0.158,-0.042l0.161,-0.042l0.164,-0.039l0.166,-0.039l0.169,-0.036l0.171,-0.035l0.174,-0.034l0.176,-0.032l0.178,-0.03l0.181,-0.029l0.183,-0.027l0.184,-0.025l0.187,-0.024l0.189,-0.022l0.191,-0.02l0.192,-0.018l0.195,-0.017l0.196,-0.014l0.197,-0.013l0.2,-0.011l0.201,-0.009l0.202,-0.007l0.204,-0.005l0.205,-0.003l0.206,-0.001l0.206,0.001Zm-0.402,1l-0.196,0.003l-0.194,0.005l-0.192,0.006l-0.191,0.009l-0.189,0.01l-0.188,0.012l-0.186,0.014l-0.184,0.016l-0.183,0.017l-0.18,0.019l-0.179,0.021l-0.176,0.022l-0.174,0.024l-0.172,0.025l-0.17,0.027l-0.168,0.029l-0.165,0.03l-0.162,0.031l-0.16,0.033l-0.157,0.034l-0.155,0.036l-0.152,0.037l-0.148,0.038l-0.146,0.039l-0.143,0.041l-0.139,0.041l-0.137,0.043l-0.133,0.044l-0.129,0.044l-0.127,0.046l-0.122,0.047l-0.119,0.047l-0.115,0.048l-0.112,0.049l-0.107,0.049l-0.103,0.05l-0.099,0.05l-0.095,0.051l-0.091,0.051l-0.086,0.051l-0.082,0.051l-0.08,0.052l-0.034,0.024l-0.036,0.025l-0.034,0.025l-0.034,0.025l-0.032,0.025l-0.031,0.024l-0.029,0.025l-0.029,0.024l-0.027,0.023l-0.026,0.024l-0.025,0.023l-0.024,0.023l-0.022,0.022l-0.021,0.023l-0.02,0.021l-0.019,0.021l-0.018,0.021l-0.016,0.02l-0.016,0.02l-0.014,0.019l-0.013,0.018l-0.012,0.018l-0.011,0.017l-0.01,0.017l-0.009,0.015l-0.008,0.015l-0.008,0.015l-0.006,0.013l-0.006,0.013l-0.005,0.013l-0.004,0.011l-0.004,0.011l-0.003,0.01l-0.003,0.01l-0.002,0.009l-0.002,0.009l-0.002,0.009l-0.001,0.008l-0.001,0.007l0,0.008l-0.001,0.007l0,0.008l0,0.008l0.001,0.007l0,0.008l0.001,0.008l0.001,0.008l0.002,0.008l0.002,0.009l0.002,0.009l0.003,0.01l0.003,0.01l0.004,0.011l0.004,0.012l0.005,0.012l0.006,0.013l0.006,0.013l0.008,0.015l0.008,0.015l0.009,0.015l0.01,0.017l0.011,0.017l0.012,0.018l0.013,0.018l0.014,0.019l0.016,0.02l0.016,0.02l0.018,0.021l0.019,0.021l0.02,0.022l0.021,0.022l0.022,0.022l0.024,0.023l0.025,0.023l0.026,0.024l0.027,0.024l0.029,0.024l0.029,0.024l0.031,0.025l0.032,0.024l0.034,0.025l0.034,0.025l0.036,0.025l0.034,0.024l0.08,0.052l0.082,0.051l0.086,0.051l0.091,0.051l0.095,0.051l0.099,0.05l0.103,0.05l0.107,0.049l0.112,0.049l0.115,0.048l0.119,0.048l0.122,0.046l0.126,0.046l0.13,0.045l0.133,0.043l0.137,0.043l0.139,0.042l0.143,0.04l0.146,0.039l0.148,0.039l0.152,0.036l0.155,0.036l0.157,0.034l0.16,0.033l0.162,0.031l0.165,0.03l0.168,0.029l0.17,0.027l0.172,0.025l0.174,0.024l0.176,0.022l0.179,0.021l0.18,0.019l0.183,0.018l0.184,0.015l0.186,0.014l0.188,0.012l0.189,0.01l0.191,0.009l0.192,0.007l0.194,0.004l0.196,0.003l0.196,0.001l0.196,-0.001l0.196,-0.003l0.194,-0.004l0.192,-0.007l0.191,-0.009l0.189,-0.01l0.188,-0.012l0.186,-0.014l0.184,-0.015l0.183,-0.018l0.18,-0.019l0.179,-0.021l0.176,-0.022l0.174,-0.024l0.172,-0.025l0.17,-0.027l0.168,-0.029l0.165,-0.03l0.162,-0.031l0.16,-0.033l0.157,-0.034l0.155,-0.036l0.152,-0.036l0.148,-0.039l0.146,-0.039l0.143,-0.04l0.139,-0.042l0.137,-0.043l0.133,-0.043l0.13,-0.045l0.126,-0.046l0.122,-0.046l0.119,-0.048l0.115,-0.048l0.112,-0.049l0.107,-0.049l0.103,-0.05l0.099,-0.05l0.095,-0.051l0.091,-0.051l0.086,-0.051l0.082,-0.051l0.08,-0.052l0.034,-0.024l0.036,-0.025l0.034,-0.025l0.034,-0.025l0.032,-0.024l0.031,-0.025l0.029,-0.024l0.029,-0.024l0.027,-0.024l0.026,-0.024l0.025,-0.023l0.024,-0.023l0.022,-0.022l0.021,-0.022l0.02,-0.022l0.019,-0.021l0.018,-0.021l0.016,-0.02l0.016,-0.02l0.014,-0.019l0.013,-0.018l0.012,-0.018l0.011,-0.017l0.01,-0.016l0.009,-0.016l0.009,-0.015l0.007,-0.015l0.006,-0.013l0.006,-0.013l0.005,-0.012l0.004,-0.012l0.004,-0.011l0.003,-0.01l0.003,-0.01l0.002,-0.009l0.002,-0.009l0.002,-0.008l0.001,-0.008l0.001,-0.008l0,-0.008l0.001,-0.007l0,-0.008l0,-0.007l-0.001,-0.008l0,-0.008l-0.001,-0.007l-0.001,-0.009l-0.002,-0.008l-0.002,-0.009l-0.002,-0.009l-0.003,-0.009l-0.003,-0.011l-0.004,-0.011l-0.004,-0.011l-0.005,-0.013l-0.006,-0.013l-0.006,-0.013l-0.007,-0.014l-0.009,-0.016l-0.009,-0.015l-0.01,-0.017l-0.011,-0.017l-0.012,-0.018l-0.013,-0.018l-0.014,-0.019l-0.016,-0.02l-0.016,-0.02l-0.018,-0.021l-0.019,-0.021l-0.02,-0.021l-0.021,-0.023l-0.022,-0.022l-0.024,-0.023l-0.025,-0.023l-0.026,-0.024l-0.027,-0.023l-0.028,-0.024l-0.03,-0.025l-0.031,-0.024l-0.032,-0.025l-0.034,-0.025l-0.034,-0.025l-0.036,-0.025l-0.034,-0.024l-0.08,-0.052l-0.082,-0.051l-0.086,-0.051l-0.091,-0.051l-0.095,-0.051l-0.099,-0.05l-0.103,-0.05l-0.107,-0.049l-0.112,-0.049l-0.115,-0.048l-0.119,-0.047l-0.122,-0.047l-0.127,-0.046l-0.129,-0.044l-0.133,-0.044l-0.137,-0.043l-0.139,-0.041l-0.143,-0.041l-0.146,-0.039l-0.148,-0.038l-0.152,-0.037l-0.155,-0.036l-0.157,-0.034l-0.16,-0.033l-0.162,-0.031l-0.165,-0.03l-0.168,-0.029l-0.17,-0.027l-0.172,-0.025l-0.174,-0.024l-0.176,-0.022l-0.179,-0.021l-0.18,-0.019l-0.183,-0.017l-0.184,-0.016l-0.186,-0.014l-0.188,-0.012l-0.189,-0.01l-0.191,-0.009l-0.192,-0.006l-0.194,-0.005l-0.196,-0.003l-0.196,-0.001l-0.196,0.001Z" style="fill:#ccc;"/></g></g></svg>