<?xml version="1.0" encoding="UTF-8" standalone="no"?><!DOCTYPE svg PUBLIC "-//W3C//DTD SVG 1.1//EN" "http://www.w3.org/Graphics/SVG/1.1/DTD/svg11.dtd"><svg width="100%" height="100%" viewBox="0 0 32 32" version="1.1" xmlns="http://www.w3.org/2000/svg" xmlns:xlink="http://www.w3.org/1999/xlink" xml:space="preserve" xmlns:serif="http://www.serif.com/" style="fill-rule:evenodd;clip-rule:evenodd;stroke-linecap:round;stroke-linejoin:round;stroke-miterlimit:1.5;"><rect id="cannabis_leaf" x="0" y="0" width="32" height="32" style="fill:none;"/><clipPath id="_clip1"><rect x="0" y="0" width="32" height="32"/></clipPath><g clip-path="url(#_clip1)"><g id="Layer2"><path d="M15,30l0,-6.501c-1.356,1.566 -3.343,2.501 -5.472,2.501l-1.528,0c0,0 0,0 0,0c1.002,-2.004 2.859,-3.404 5,-3.849l0,-0.018c-3.647,0.964 -7.561,0.586 -11,-1.133c0,0 0,0 0,0c0,0 0,0 0,0c2.889,-1.445 6.114,-1.942 9.234,-1.492c-2.391,-1.548 -4.336,-3.712 -5.619,-6.278c-0.857,-1.713 -1.615,-3.23 -1.615,-3.23c0,0 1.517,0.758 3.23,1.615c3.062,1.531 5.551,4.003 7.103,7.052l0.007,-0.007c-2.012,-4.395 -1.932,-9.475 0.238,-13.815c0.803,-1.606 1.422,-2.845 1.422,-2.845c0,0 0.619,1.239 1.422,2.845c2.17,4.34 2.25,9.42 0.238,13.815l0.007,0.007c1.552,-3.049 4.041,-5.521 7.103,-7.052c1.713,-0.857 3.23,-1.615 3.23,-1.615c0,0 -0.758,1.517 -1.615,3.23c-1.283,2.566 -3.228,4.73 -5.619,6.278c3.12,-0.45 6.345,0.047 9.234,1.492c0,0 0,0 0,0c0,0 0,0 0,0c-3.439,1.719 -7.353,2.097 -11,1.133l0,0.018c2.141,0.445 3.998,1.845 5,3.849c0,0 0,0 0,0c0,0 -0.653,0 -1.528,0c-2.129,0 -4.116,-0.935 -5.472,-2.501l0,6.501l-2,0Z" style="fill:none;stroke:#000;stroke-width:4px;"/></g><g id="Layer1"><path d="M14.34,18.66c-2.012,-4.395 -1.932,-9.475 0.238,-13.815c0.803,-1.606 1.422,-2.845 1.422,-2.845c0,0 0.619,1.239 1.422,2.845c2.17,4.34 2.25,9.42 0.238,13.815l0.007,0.007c1.552,-3.049 4.041,-5.521 7.103,-7.052c1.713,-0.857 3.23,-1.615 3.23,-1.615c0,0 -0.758,1.517 -1.615,3.23c-1.283,2.566 -3.228,4.73 -5.619,6.278c3.12,-0.45 6.345,0.047 9.234,1.492c0,0 0,0 0,0c0,0 0,0 0,0c-3.439,1.719 -7.353,2.097 -11,1.133l0,0.018c2.141,0.445 3.998,1.845 5,3.849l0,0l-1.528,0c-2.129,0 -4.116,-0.935 -5.472,-2.501l0,6.501l-2,0l0,-6.501c-1.356,1.566 -3.343,2.501 -5.472,2.501c-0.875,0 -1.528,0 -1.528,0c0,0 0,0 0,0c1.002,-2.004 2.859,-3.404 5,-3.849l0,-0.018c-3.647,0.964 -7.561,0.586 -11,-1.133c0,0 0,0 0,0c0,0 0,0 0,0c2.889,-1.445 6.114,-1.942 9.234,-1.492c-2.391,-1.548 -4.336,-3.712 -5.619,-6.278c-0.857,-1.713 -1.615,-3.23 -1.615,-3.23c0,0 1.517,0.758 3.23,1.615c3.062,1.531 5.551,4.003 7.103,7.052l0.007,-0.007Z" style="fill:#1cb356;"/></g></g></svg>