<?xml version="1.0" encoding="UTF-8" standalone="no"?>
<!DOCTYPE svg PUBLIC "-//W3C//DTD SVG 1.1//EN" "http://www.w3.org/Graphics/SVG/1.1/DTD/svg11.dtd">
<svg width="100%" height="100%" viewBox="0 0 32 32" version="1.1" xmlns="http://www.w3.org/2000/svg" xmlns:xlink="http://www.w3.org/1999/xlink" xml:space="preserve" xmlns:serif="http://www.serif.com/" style="fill-rule:evenodd;clip-rule:evenodd;stroke-linecap:round;stroke-linejoin:round;stroke-miterlimit:3;">
    <rect id="wine" x="0" y="0" width="32" height="32" style="fill:none;"/>
    <g id="outline">
        <path d="M9,2c0,0 -0.466,3.965 -0.949,8.065c-0.267,2.269 0.449,4.544 1.967,6.251c1.518,1.707 3.694,2.684 5.978,2.684c0.003,0 0.005,0 0.008,0c2.284,0 4.46,-0.977 5.978,-2.684c1.518,-1.707 2.234,-3.982 1.967,-6.251c-0.483,-4.1 -0.949,-8.065 -0.949,-8.065l-14,0Z" style="fill:none;stroke:#000;stroke-width:4px;"/>
        <ellipse cx="16" cy="28.5" rx="5" ry="1.5" style="fill:none;stroke:#000;stroke-width:4px;"/>
        <rect x="15" y="18" width="2" height="11" style="fill:#dadada;stroke:#000;stroke-width:4px;"/>
    </g>
    <g id="emoji">
        <ellipse cx="16" cy="28.5" rx="5" ry="1.5" style="fill:#e6e6e6;"/>
        <rect x="15" y="18" width="2" height="10.5" style="fill:#e6e6e6;"/>
        <path d="M9,2c0,0 -0.466,3.965 -0.949,8.065c-0.267,2.269 0.449,4.544 1.967,6.251c1.518,1.707 3.694,2.684 5.978,2.684c0.003,0 0.005,0 0.008,0c2.284,0 4.46,-0.977 5.978,-2.684c1.518,-1.707 2.234,-3.982 1.967,-6.251c-0.483,-4.1 -0.949,-8.065 -0.949,-8.065l-14,0Z" style="fill:#e6e6e6;"/>
        <clipPath id="_clip1">
            <path d="M9,2c0,0 -0.466,3.965 -0.949,8.065c-0.267,2.269 0.449,4.544 1.967,6.251c1.518,1.707 3.694,2.684 5.978,2.684c0.003,0 0.005,0 0.008,0c2.284,0 4.46,-0.977 5.978,-2.684c1.518,-1.707 2.234,-3.982 1.967,-6.251c-0.483,-4.1 -0.949,-8.065 -0.949,-8.065l-14,0Z"/>
        </clipPath>
        <g clip-path="url(#_clip1)">
            <rect x="4" y="7" width="24" height="14" style="fill:#ea1d42;"/>
        </g>
        <path d="M23.949,10.065l0.012,0.107l0.01,0.106l0.009,0.106l0.007,0.107l0.007,0.106l0.004,0.106l0.003,0.106l0.002,0.106l0.001,0.106l-0.001,0.106l-0.003,0.106l-0.003,0.105l-0.006,0.106l-0.006,0.105l-0.008,0.105l-0.009,0.105l-0.011,0.105l-0.012,0.104l-0.014,0.105l-0.014,0.104l-0.016,0.103l-0.018,0.104l-0.019,0.103l-0.02,0.103l-0.021,0.103l-0.023,0.102l-0.024,0.102l-0.026,0.102l-0.027,0.101l-0.028,0.101l-0.029,0.1l-0.031,0.1l-0.032,0.1l-0.034,0.099l-0.034,0.099l-0.036,0.099l-0.038,0.097l-0.038,0.098l-0.04,0.097l-0.041,0.096l-0.043,0.096l-0.043,0.096l-0.045,0.095l-0.046,0.094l-0.048,0.094l-0.049,0.093l-0.05,0.092l-0.051,0.092l-0.052,0.092l-0.054,0.09l-0.055,0.09l-0.056,0.09l-0.057,0.088l-0.059,0.088l-0.06,0.088l-0.061,0.086l-0.062,0.086l-0.063,0.085l-0.065,0.085l-0.066,0.084l-0.067,0.082l-0.068,0.082l-0.07,0.082l-0.07,0.08l-0.072,0.08l-0.072,0.078l-0.074,0.077l-0.074,0.077l-0.076,0.075l-0.076,0.074l-0.077,0.073l-0.078,0.072l-0.079,0.07l-0.08,0.07l-0.08,0.068l-0.082,0.068l-0.082,0.066l-0.083,0.065l-0.084,0.064l-0.084,0.063l-0.086,0.061l-0.086,0.061l-0.087,0.059l-0.087,0.058l-0.089,0.057l-0.088,0.056l-0.09,0.054l-0.09,0.054l-0.091,0.052l-0.092,0.051l-0.092,0.049l-0.093,0.049l-0.094,0.047l-0.094,0.046l-0.095,0.045l-0.095,0.043l-0.096,0.043l-0.096,0.041l-0.097,0.039l-0.097,0.039l-0.098,0.037l-0.099,0.036l-0.099,0.035l-0.099,0.033l-0.1,0.032l-0.1,0.031l-0.101,0.029l-0.101,0.028l-0.102,0.027l-0.102,0.026l-0.102,0.024l-0.103,0.023l-0.103,0.021l-0.103,0.02l-0.104,0.019l-0.104,0.018l-0.105,0.016l-0.105,0.014l-0.105,0.014l-0.105,0.012l-0.105,0.01l-0.106,0.009l-0.106,0.008l-0.106,0.007l-0.107,0.005l-0.106,0.003l-0.107,0.002l-0.107,0.001l-0.008,0l-0.107,-0.001l-0.107,-0.002l-0.106,-0.003l-0.107,-0.005l-0.106,-0.007l-0.106,-0.008l-0.106,-0.009l-0.105,-0.01l-0.105,-0.012l-0.105,-0.014l-0.105,-0.014l-0.105,-0.016l-0.104,-0.018l-0.104,-0.019l-0.103,-0.02l-0.103,-0.021l-0.103,-0.023l-0.102,-0.024l-0.102,-0.026l-0.102,-0.027l-0.101,-0.028l-0.101,-0.029l-0.1,-0.031l-0.1,-0.032l-0.099,-0.033l-0.099,-0.035l-0.099,-0.036l-0.098,-0.037l-0.097,-0.039l-0.097,-0.039l-0.096,-0.041l-0.096,-0.043l-0.095,-0.043l-0.095,-0.045l-0.094,-0.046l-0.094,-0.047l-0.093,-0.049l-0.092,-0.049l-0.092,-0.051l-0.091,-0.052l-0.09,-0.054l-0.09,-0.054l-0.088,-0.056l-0.089,-0.057l-0.087,-0.058l-0.087,-0.059l-0.086,-0.061l-0.086,-0.061l-0.084,-0.063l-0.084,-0.064l-0.083,-0.065l-0.082,-0.066l-0.082,-0.068l-0.08,-0.068l-0.08,-0.07l-0.079,-0.07l-0.078,-0.072l-0.077,-0.073l-0.076,-0.074l-0.076,-0.075l-0.074,-0.077l-0.074,-0.077l-0.072,-0.078l-0.072,-0.08l-0.07,-0.08l-0.07,-0.082l-0.068,-0.082l-0.067,-0.082l-0.066,-0.084l-0.065,-0.085l-0.063,-0.085l-0.062,-0.086l-0.061,-0.086l-0.06,-0.088l-0.059,-0.088l-0.057,-0.088l-0.056,-0.09l-0.055,-0.09l-0.054,-0.09l-0.052,-0.092l-0.051,-0.092l-0.05,-0.092l-0.049,-0.093l-0.048,-0.094l-0.046,-0.094l-0.045,-0.095l-0.043,-0.096l-0.043,-0.096l-0.041,-0.096l-0.04,-0.097l-0.038,-0.098l-0.038,-0.097l-0.036,-0.099l-0.034,-0.099l-0.034,-0.099l-0.032,-0.1l-0.031,-0.1l-0.029,-0.1l-0.028,-0.101l-0.027,-0.101l-0.026,-0.102l-0.024,-0.102l-0.023,-0.102l-0.021,-0.103l-0.02,-0.103l-0.019,-0.103l-0.018,-0.104l-0.016,-0.103l-0.014,-0.104l-0.014,-0.105l-0.012,-0.104l-0.011,-0.105l-0.009,-0.105l-0.008,-0.105l-0.006,-0.105l-0.006,-0.106l-0.003,-0.105l-0.003,-0.106l-0.001,-0.106l0.001,-0.106l0.002,-0.106l0.003,-0.106l0.004,-0.106l0.007,-0.106l0.007,-0.107l0.009,-0.106l0.01,-0.106l0.012,-0.107l0.949,-8.065l14,0l0.949,8.065Zm-14.06,-7.065l-0.844,7.179l-0.011,0.096l-0.009,0.093l-0.008,0.093l-0.006,0.093l-0.006,0.093l-0.004,0.093l-0.003,0.093l-0.001,0.093l-0.001,0.093l0.001,0.092l0.002,0.093l0.004,0.092l0.004,0.092l0.006,0.092l0.007,0.092l0.008,0.092l0.009,0.092l0.011,0.091l0.012,0.091l0.012,0.091l0.015,0.091l0.015,0.091l0.016,0.09l0.018,0.09l0.019,0.09l0.02,0.09l0.021,0.089l0.022,0.089l0.024,0.088l0.024,0.089l0.026,0.088l0.027,0.087l0.028,0.087l0.029,0.087l0.031,0.087l0.031,0.086l0.033,0.086l0.034,0.085l0.035,0.085l0.036,0.084l0.037,0.084l0.038,0.083l0.039,0.083l0.041,0.083l0.041,0.082l0.043,0.082l0.043,0.081l0.045,0.08l0.046,0.08l0.047,0.079l0.048,0.079l0.049,0.078l0.051,0.078l0.051,0.077l0.052,0.076l0.054,0.076l0.054,0.075l0.055,0.075l0.057,0.074l0.058,0.073l0.058,0.072l0.06,0.072l0.061,0.071l0.061,0.071l0.063,0.069l0.064,0.069l0.064,0.067l0.065,0.067l0.066,0.066l0.067,0.065l0.067,0.064l0.069,0.062l0.069,0.062l0.069,0.061l0.071,0.06l0.071,0.059l0.072,0.058l0.073,0.057l0.073,0.056l0.074,0.055l0.075,0.054l0.075,0.052l0.076,0.052l0.077,0.051l0.077,0.05l0.078,0.049l0.078,0.047l0.079,0.047l0.08,0.046l0.08,0.044l0.081,0.044l0.081,0.042l0.082,0.041l0.082,0.041l0.083,0.039l0.083,0.038l0.084,0.037l0.085,0.036l0.084,0.035l0.086,0.033l0.085,0.033l0.087,0.031l0.086,0.031l0.087,0.029l0.087,0.028l0.088,0.027l0.088,0.026l0.089,0.024l0.089,0.024l0.089,0.022l0.09,0.021l0.09,0.02l0.09,0.019l0.09,0.018l0.091,0.016l0.091,0.015l0.091,0.014l0.092,0.013l0.092,0.012l0.092,0.01l0.092,0.01l0.093,0.008l0.093,0.006l0.093,0.006l0.093,0.004l0.093,0.003l0.094,0.002l0.097,0.001l0.097,-0.001l0.094,-0.002l0.093,-0.003l0.093,-0.004l0.093,-0.006l0.093,-0.006l0.093,-0.008l0.092,-0.01l0.092,-0.01l0.092,-0.012l0.092,-0.013l0.091,-0.014l0.091,-0.015l0.091,-0.016l0.09,-0.018l0.09,-0.019l0.09,-0.02l0.09,-0.021l0.089,-0.022l0.089,-0.024l0.089,-0.024l0.088,-0.026l0.088,-0.027l0.087,-0.028l0.087,-0.029l0.086,-0.031l0.087,-0.031l0.085,-0.033l0.086,-0.033l0.084,-0.035l0.085,-0.036l0.084,-0.037l0.083,-0.038l0.083,-0.039l0.082,-0.041l0.082,-0.041l0.081,-0.042l0.081,-0.044l0.08,-0.044l0.08,-0.046l0.079,-0.047l0.078,-0.047l0.078,-0.049l0.077,-0.05l0.077,-0.051l0.076,-0.052l0.075,-0.052l0.075,-0.054l0.074,-0.055l0.073,-0.056l0.073,-0.057l0.072,-0.058l0.071,-0.059l0.071,-0.06l0.069,-0.061l0.069,-0.062l0.069,-0.062l0.067,-0.064l0.067,-0.065l0.066,-0.066l0.065,-0.067l0.064,-0.067l0.064,-0.069l0.063,-0.069l0.061,-0.071l0.061,-0.071l0.06,-0.072l0.058,-0.072l0.058,-0.073l0.057,-0.074l0.055,-0.075l0.054,-0.075l0.054,-0.076l0.052,-0.076l0.051,-0.077l0.051,-0.078l0.049,-0.078l0.048,-0.079l0.047,-0.079l0.046,-0.08l0.045,-0.08l0.043,-0.081l0.043,-0.082l0.041,-0.082l0.041,-0.082l0.039,-0.084l0.038,-0.083l0.037,-0.084l0.036,-0.084l0.035,-0.085l0.034,-0.085l0.033,-0.086l0.031,-0.086l0.031,-0.087l0.029,-0.087l0.028,-0.087l0.027,-0.087l0.026,-0.088l0.024,-0.089l0.024,-0.088l0.022,-0.089l0.021,-0.089l0.02,-0.09l0.019,-0.09l0.018,-0.09l0.016,-0.09l0.015,-0.091l0.015,-0.091l0.012,-0.091l0.012,-0.091l0.011,-0.091l0.009,-0.092l0.008,-0.092l0.007,-0.092l0.006,-0.092l0.004,-0.092l0.004,-0.092l0.002,-0.093l0.001,-0.092l-0.001,-0.093l-0.001,-0.093l-0.003,-0.093l-0.004,-0.093l-0.006,-0.093l-0.006,-0.093l-0.008,-0.093l-0.009,-0.093l-0.011,-0.096l-0.844,-7.179l-12.222,0Z" style="fill:#e6e6e6;"/>
    </g>
    <path d="M12,4c0,0 -0.474,4.267 -0.769,6.925c-0.146,1.312 0.312,2.618 1.245,3.551c0.299,0.299 0.524,0.524 0.524,0.524" style="fill:none;stroke:#fff;stroke-opacity:0.596078;stroke-width:2px;"/>
</svg>
