<?xml version="1.0" encoding="UTF-8" standalone="no"?>
<!DOCTYPE svg PUBLIC "-//W3C//DTD SVG 1.1//EN" "http://www.w3.org/Graphics/SVG/1.1/DTD/svg11.dtd">
<svg width="100%" height="100%" viewBox="0 0 32 32" version="1.1" xmlns="http://www.w3.org/2000/svg" xmlns:xlink="http://www.w3.org/1999/xlink" xml:space="preserve" xmlns:serif="http://www.serif.com/" style="fill-rule:evenodd;clip-rule:evenodd;stroke-linecap:round;stroke-linejoin:round;stroke-miterlimit:1.5;">
    <rect id="sake" x="0" y="0" width="32" height="32" style="fill:none;"/>
    <g id="outline">
        <path d="M17,23c0,-1.104 2.913,-2 6.5,-2c3.587,0 6.5,0.896 6.5,2c0,3.59 -2.91,6.5 -6.5,6.5c-3.59,0 -6.5,-2.91 -6.5,-6.5l0,0Z" style="fill:none;stroke:#000;stroke-width:4px;"/>
        <path d="M4.318,5.027c-0.205,-0.164 -0.318,-0.341 -0.318,-0.527c0,-0.828 2.24,-1.5 5,-1.5c2.76,0 5,0.672 5,1.5c0,0.186 -0.113,0.363 -0.318,0.527c-0.237,0.208 -1.682,1.615 -1.682,4.973c0,3.657 2.888,5.13 3.778,10c1.056,5.771 -2.527,9.943 -6.729,10l-0.049,0l-0.049,0c-4.202,-0.057 -7.785,-4.229 -6.729,-10c0.89,-4.87 3.778,-6.343 3.778,-10c0,-3.358 -1.445,-4.765 -1.682,-4.973Z" style="fill:none;stroke:#000;stroke-width:4px;stroke-miterlimit:3;"/>
    </g>
    <g id="emoji">
        <g>
            <path d="M5.981,10.5l6.038,0c0.247,3.303 2.911,4.858 3.759,9.5c1.06,5.794 -2.555,9.975 -6.778,10c-4.223,-0.025 -7.838,-4.206 -6.778,-10c0.848,-4.642 3.512,-6.197 3.759,-9.5Z" style="fill:#4f46b8;"/>
            <path d="M5.981,10.5c0.013,-0.162 0.019,-0.329 0.019,-0.5c0,-3.652 -1.709,-4.996 -1.714,-5l9.428,0c0,0 -1.714,1.343 -1.714,5c0,0.171 0.006,0.338 0.019,0.5l-0.019,0c0,0.497 -1.344,0.9 -3,0.9c-1.656,0 -3,-0.403 -3,-0.9l-0.019,0Z" style="fill:#e6e6e6;"/>
            <ellipse cx="9" cy="4.5" rx="5" ry="1.5" style="fill:#818181;"/>
        </g>
        <g>
            <path d="M30,23c0,0.698 -0.11,1.37 -0.313,2c-0.463,0.821 -0.687,1 -0.687,1l-5.5,1l-5.5,-1c0,0 -0.4,-0.803 -0.687,-1c-0.203,-0.63 -0.313,-1.302 -0.313,-2l6.5,0l6.5,0Z" style="fill:#e1e1e1;"/>
            <path d="M29.687,25c-0.844,2.611 -3.295,4.5 -6.187,4.5c-2.892,0 -5.343,-1.889 -6.187,-4.5c1.353,0.929 3.62,1.538 6.187,1.538c2.567,0 4.834,-0.609 6.187,-1.538Z" style="fill:#4f46b8;"/>
            <ellipse cx="23.5" cy="23" rx="6.5" ry="2" style="fill:#818181;"/>
        </g>
    </g>
</svg>
