<?xml version="1.0" encoding="UTF-8" standalone="no"?>
<!DOCTYPE svg PUBLIC "-//W3C//DTD SVG 1.1//EN" "http://www.w3.org/Graphics/SVG/1.1/DTD/svg11.dtd">
<svg width="100%" height="100%" viewBox="0 0 32 32" version="1.1" xmlns="http://www.w3.org/2000/svg" xmlns:xlink="http://www.w3.org/1999/xlink" xml:space="preserve" xmlns:serif="http://www.serif.com/" style="fill-rule:evenodd;clip-rule:evenodd;stroke-linecap:round;stroke-linejoin:round;stroke-miterlimit:3;">
    <rect id="tropical_drink" x="0" y="0" width="32" height="32" style="fill:none;"/>
    <clipPath id="_clip1">
        <rect x="0" y="0" width="32" height="32"/>
    </clipPath>
    <g clip-path="url(#_clip1)">
        <g id="outline">
            <ellipse cx="16" cy="29" rx="4" ry="1" style="fill:none;stroke:#000;stroke-width:4px;"/>
            <rect x="15" y="18" width="2" height="11" style="fill:#dadada;stroke:#000;stroke-width:4px;"/>
            <path d="M10,5c0,0 0.088,0.352 0.212,0.848c0.518,2.074 0.555,4.239 0.107,6.329c-0.195,0.909 -0.416,1.943 -0.643,3.002c-0.409,1.91 0.066,3.901 1.294,5.42c1.228,1.519 3.076,2.401 5.028,2.401c0.001,0 0.003,0 0.004,0c1.952,0 3.8,-0.882 5.028,-2.401c1.228,-1.519 1.703,-3.51 1.294,-5.42c-0.227,-1.059 -0.448,-2.093 -0.643,-3.002c-0.448,-2.09 -0.411,-4.255 0.107,-6.329c0.124,-0.496 0.212,-0.848 0.212,-0.848l-12,0Z" style="fill:none;stroke:#000;stroke-width:4px;"/>
            <path d="M19.445,17l0,-14l6.09,2" style="fill:none;stroke:#000;stroke-width:6px;stroke-linecap:square;"/>
            <path d="M9,4c0,0 0,0 0,0c0,-0.613 0.346,-1.173 0.894,-1.447c0.533,-0.266 1.106,-0.553 1.106,-0.553l0,1c0,0 0,0 0,0c1.226,0 2.346,0.693 2.894,1.789c0.065,0.13 0.106,0.211 0.106,0.211l-3,0l0,3c0,0 -0.081,-0.041 -0.211,-0.106c-1.096,-0.548 -1.789,-1.668 -1.789,-2.894c0,0 0,0 0,0l-1,0l1,-1Z" style="fill:#ec9500;stroke:#000;stroke-width:4px;stroke-linecap:square;"/>
        </g>
        <g id="emoji">
            <ellipse cx="16" cy="29" rx="4" ry="1" style="fill:#e6e6e6;"/>
            <rect x="15" y="22" width="2" height="7" style="fill:#e6e6e6;"/>
            <path d="M10,5c0,0 0.088,0.352 0.212,0.848c0.518,2.074 0.555,4.239 0.107,6.329c-0.195,0.909 -0.416,1.943 -0.643,3.002c-0.409,1.91 0.066,3.901 1.294,5.42c1.228,1.519 3.076,2.401 5.028,2.401c0.001,0 0.003,0 0.004,0c1.952,0 3.8,-0.882 5.028,-2.401c1.228,-1.519 1.703,-3.51 1.294,-5.42c-0.227,-1.059 -0.448,-2.093 -0.643,-3.002c-0.448,-2.09 -0.411,-4.255 0.107,-6.329c0.124,-0.496 0.212,-0.848 0.212,-0.848l-12,0Z" style="fill:#e6e6e6;"/>
            <clipPath id="_clip2">
                <path d="M10,5c0,0 0.088,0.352 0.212,0.848c0.518,2.074 0.555,4.239 0.107,6.329c-0.195,0.909 -0.416,1.943 -0.643,3.002c-0.409,1.91 0.066,3.901 1.294,5.42c1.228,1.519 3.076,2.401 5.028,2.401c0.001,0 0.003,0 0.004,0c1.952,0 3.8,-0.882 5.028,-2.401c1.228,-1.519 1.703,-3.51 1.294,-5.42c-0.227,-1.059 -0.448,-2.093 -0.643,-3.002c-0.448,-2.09 -0.411,-4.255 0.107,-6.329c0.124,-0.496 0.212,-0.848 0.212,-0.848l-12,0Z"/>
            </clipPath>
            <g clip-path="url(#_clip2)">
                <rect x="4" y="10" width="24" height="12" style="fill:#ea7d1d;"/>
            </g>
            <path d="M21.788,5.848l-0.047,0.195l-0.045,0.195l-0.041,0.196l-0.039,0.196l-0.036,0.196l-0.033,0.197l-0.03,0.197l-0.027,0.198l-0.025,0.198l-0.022,0.198l-0.019,0.198l-0.016,0.199l-0.013,0.198l-0.011,0.199l-0.007,0.199l-0.005,0.199l-0.002,0.199l0.001,0.2l0.004,0.199l0.006,0.199l0.01,0.199l0.012,0.199l0.015,0.198l0.018,0.199l0.02,0.198l0.024,0.198l0.026,0.198l0.03,0.198l0.032,0.197l0.034,0.197l0.038,0.197l0.041,0.196l0.643,3.002l0.019,0.09l0.017,0.089l0.016,0.09l0.014,0.09l0.014,0.09l0.012,0.09l0.011,0.09l0.009,0.09l0.009,0.09l0.007,0.09l0.005,0.09l0.005,0.09l0.003,0.09l0.002,0.09l0.001,0.09l-0.001,0.09l-0.002,0.09l-0.003,0.089l-0.004,0.09l-0.005,0.089l-0.007,0.09l-0.008,0.089l-0.009,0.089l-0.011,0.089l-0.012,0.088l-0.012,0.089l-0.015,0.088l-0.015,0.088l-0.016,0.088l-0.018,0.087l-0.019,0.088l-0.02,0.087l-0.021,0.086l-0.023,0.087l-0.024,0.086l-0.025,0.086l-0.026,0.085l-0.027,0.085l-0.029,0.085l-0.029,0.084l-0.031,0.084l-0.032,0.084l-0.033,0.083l-0.034,0.083l-0.036,0.082l-0.037,0.082l-0.037,0.081l-0.039,0.081l-0.04,0.08l-0.042,0.08l-0.042,0.08l-0.044,0.079l-0.044,0.078l-0.046,0.078l-0.047,0.077l-0.048,0.076l-0.049,0.076l-0.051,0.076l-0.051,0.075l-0.053,0.074l-0.053,0.073l-0.055,0.073l-0.056,0.073l-0.057,0.071l-0.058,0.071l-0.059,0.07l-0.06,0.068l-0.06,0.068l-0.062,0.067l-0.062,0.066l-0.063,0.065l-0.064,0.064l-0.065,0.063l-0.066,0.062l-0.066,0.061l-0.068,0.06l-0.068,0.06l-0.068,0.058l-0.07,0.057l-0.07,0.056l-0.071,0.055l-0.072,0.054l-0.072,0.053l-0.073,0.052l-0.074,0.051l-0.074,0.05l-0.075,0.048l-0.076,0.048l-0.076,0.047l-0.077,0.045l-0.077,0.045l-0.078,0.043l-0.079,0.043l-0.079,0.041l-0.08,0.04l-0.08,0.039l-0.081,0.038l-0.081,0.037l-0.082,0.035l-0.083,0.035l-0.083,0.033l-0.083,0.033l-0.084,0.031l-0.084,0.03l-0.085,0.029l-0.085,0.027l-0.085,0.027l-0.086,0.025l-0.086,0.024l-0.087,0.023l-0.087,0.022l-0.088,0.02l-0.087,0.02l-0.088,0.018l-0.089,0.017l-0.088,0.016l-0.089,0.014l-0.09,0.013l-0.089,0.012l-0.09,0.011l-0.09,0.01l-0.09,0.008l-0.091,0.007l-0.091,0.006l-0.091,0.004l-0.091,0.003l-0.091,0.002l-0.091,0.001l-0.004,0l-0.091,-0.001l-0.091,-0.002l-0.091,-0.003l-0.091,-0.004l-0.091,-0.006l-0.091,-0.007l-0.09,-0.008l-0.09,-0.01l-0.09,-0.011l-0.089,-0.012l-0.09,-0.013l-0.089,-0.014l-0.088,-0.016l-0.089,-0.017l-0.088,-0.018l-0.087,-0.02l-0.088,-0.02l-0.087,-0.022l-0.087,-0.023l-0.086,-0.024l-0.086,-0.025l-0.085,-0.027l-0.085,-0.027l-0.085,-0.029l-0.084,-0.03l-0.084,-0.031l-0.083,-0.033l-0.083,-0.033l-0.083,-0.035l-0.082,-0.035l-0.081,-0.037l-0.081,-0.038l-0.08,-0.039l-0.08,-0.04l-0.079,-0.041l-0.079,-0.043l-0.078,-0.043l-0.077,-0.045l-0.077,-0.045l-0.076,-0.047l-0.076,-0.048l-0.075,-0.048l-0.074,-0.05l-0.074,-0.051l-0.073,-0.052l-0.072,-0.053l-0.072,-0.054l-0.071,-0.055l-0.07,-0.056l-0.07,-0.057l-0.068,-0.058l-0.068,-0.06l-0.068,-0.06l-0.066,-0.061l-0.066,-0.062l-0.065,-0.063l-0.064,-0.064l-0.063,-0.065l-0.062,-0.066l-0.062,-0.067l-0.06,-0.068l-0.06,-0.068l-0.059,-0.07l-0.058,-0.071l-0.057,-0.071l-0.056,-0.073l-0.055,-0.073l-0.053,-0.073l-0.053,-0.074l-0.051,-0.075l-0.051,-0.076l-0.049,-0.076l-0.048,-0.076l-0.047,-0.077l-0.046,-0.078l-0.044,-0.078l-0.044,-0.079l-0.042,-0.08l-0.042,-0.08l-0.04,-0.08l-0.039,-0.081l-0.037,-0.081l-0.037,-0.082l-0.036,-0.082l-0.034,-0.083l-0.033,-0.083l-0.032,-0.084l-0.031,-0.084l-0.029,-0.084l-0.029,-0.085l-0.027,-0.085l-0.026,-0.085l-0.025,-0.086l-0.024,-0.086l-0.023,-0.087l-0.021,-0.086l-0.02,-0.087l-0.019,-0.088l-0.018,-0.087l-0.016,-0.088l-0.015,-0.088l-0.015,-0.088l-0.012,-0.089l-0.012,-0.088l-0.011,-0.089l-0.009,-0.089l-0.008,-0.089l-0.007,-0.09l-0.005,-0.089l-0.004,-0.09l-0.003,-0.089l-0.002,-0.09l-0.001,-0.09l0.001,-0.09l0.002,-0.09l0.003,-0.09l0.005,-0.09l0.005,-0.09l0.007,-0.09l0.009,-0.09l0.009,-0.09l0.011,-0.09l0.012,-0.09l0.014,-0.09l0.014,-0.09l0.016,-0.09l0.017,-0.089l0.019,-0.09l0.643,-3.002l0.041,-0.196l0.038,-0.197l0.034,-0.197l0.032,-0.197l0.03,-0.198l0.026,-0.198l0.024,-0.198l0.02,-0.198l0.018,-0.199l0.015,-0.198l0.012,-0.199l0.01,-0.199l0.006,-0.199l0.004,-0.199l0.001,-0.2l-0.002,-0.199l-0.005,-0.199l-0.007,-0.199l-0.011,-0.199l-0.013,-0.198l-0.016,-0.199l-0.019,-0.198l-0.022,-0.198l-0.025,-0.198l-0.027,-0.198l-0.03,-0.197l-0.033,-0.197l-0.036,-0.196l-0.039,-0.196l-0.041,-0.196l-0.045,-0.195l-0.047,-0.195l-0.212,-0.848l12,0l-0.212,0.848Zm-10.513,0.152l0.005,0.023l0.045,0.21l0.041,0.21l0.039,0.21l0.035,0.211l0.033,0.212l0.029,0.211l0.026,0.212l0.024,0.213l0.02,0.212l0.017,0.213l0.014,0.213l0.012,0.213l0.008,0.213l0.005,0.213l0.002,0.214l-0.001,0.213l-0.004,0.213l-0.007,0.214l-0.01,0.213l-0.013,0.213l-0.016,0.213l-0.019,0.213l-0.023,0.212l-0.025,0.212l-0.028,0.212l-0.031,0.212l-0.035,0.212l-0.037,0.211l-0.04,0.21l-0.043,0.207l-0.644,3.002l-0.016,0.079l-0.015,0.076l-0.013,0.076l-0.012,0.076l-0.012,0.076l-0.01,0.076l-0.009,0.076l-0.008,0.076l-0.007,0.077l-0.006,0.076l-0.005,0.076l-0.004,0.076l-0.002,0.076l-0.002,0.076l-0.001,0.076l0.001,0.076l0.001,0.076l0.003,0.076l0.003,0.075l0.005,0.076l0.006,0.076l0.007,0.075l0.007,0.075l0.009,0.075l0.01,0.075l0.011,0.075l0.012,0.074l0.013,0.075l0.014,0.074l0.015,0.074l0.016,0.074l0.017,0.073l0.018,0.074l0.019,0.073l0.02,0.073l0.021,0.072l0.022,0.072l0.023,0.072l0.024,0.072l0.025,0.071l0.026,0.071l0.027,0.071l0.028,0.07l0.029,0.07l0.03,0.07l0.031,0.069l0.032,0.068l0.033,0.069l0.034,0.068l0.035,0.067l0.036,0.067l0.037,0.067l0.037,0.066l0.039,0.066l0.04,0.065l0.041,0.065l0.041,0.064l0.043,0.064l0.043,0.063l0.045,0.063l0.045,0.062l0.046,0.062l0.047,0.061l0.049,0.06l0.049,0.06l0.049,0.059l0.051,0.058l0.051,0.058l0.052,0.056l0.053,0.056l0.053,0.055l0.055,0.054l0.054,0.053l0.056,0.053l0.056,0.052l0.057,0.05l0.057,0.05l0.058,0.049l0.059,0.049l0.059,0.047l0.06,0.047l0.061,0.045l0.061,0.045l0.062,0.044l0.062,0.043l0.063,0.042l0.063,0.041l0.064,0.041l0.065,0.039l0.065,0.039l0.065,0.037l0.066,0.037l0.067,0.036l0.067,0.035l0.067,0.034l0.068,0.033l0.068,0.032l0.069,0.031l0.07,0.03l0.069,0.029l0.07,0.028l0.071,0.028l0.07,0.026l0.072,0.025l0.071,0.025l0.072,0.023l0.072,0.022l0.073,0.022l0.073,0.02l0.073,0.02l0.074,0.018l0.074,0.017l0.074,0.017l0.074,0.015l0.075,0.014l0.075,0.014l0.075,0.012l0.076,0.011l0.075,0.01l0.076,0.009l0.076,0.008l0.077,0.007l0.076,0.006l0.077,0.005l0.077,0.004l0.077,0.003l0.077,0.001l0.079,0.001l0.079,-0.001l0.077,-0.001l0.077,-0.003l0.077,-0.004l0.077,-0.005l0.076,-0.006l0.077,-0.007l0.076,-0.008l0.076,-0.009l0.075,-0.01l0.076,-0.011l0.075,-0.012l0.075,-0.014l0.075,-0.014l0.074,-0.015l0.074,-0.017l0.074,-0.017l0.074,-0.018l0.073,-0.02l0.073,-0.02l0.073,-0.022l0.072,-0.022l0.072,-0.023l0.071,-0.025l0.072,-0.025l0.07,-0.026l0.071,-0.028l0.07,-0.028l0.069,-0.029l0.07,-0.03l0.068,-0.031l0.069,-0.032l0.068,-0.033l0.067,-0.034l0.067,-0.035l0.067,-0.036l0.066,-0.037l0.065,-0.037l0.065,-0.039l0.065,-0.039l0.064,-0.041l0.063,-0.041l0.063,-0.042l0.062,-0.043l0.062,-0.044l0.061,-0.045l0.061,-0.045l0.06,-0.047l0.059,-0.047l0.059,-0.049l0.058,-0.049l0.057,-0.05l0.057,-0.05l0.056,-0.052l0.056,-0.053l0.054,-0.053l0.055,-0.054l0.053,-0.055l0.053,-0.056l0.052,-0.056l0.051,-0.058l0.051,-0.058l0.049,-0.059l0.049,-0.06l0.049,-0.06l0.047,-0.061l0.046,-0.062l0.045,-0.062l0.045,-0.063l0.043,-0.063l0.043,-0.064l0.042,-0.064l0.04,-0.065l0.04,-0.065l0.039,-0.066l0.037,-0.066l0.037,-0.067l0.036,-0.067l0.035,-0.067l0.034,-0.068l0.033,-0.068l0.032,-0.069l0.031,-0.069l0.03,-0.07l0.029,-0.07l0.028,-0.07l0.027,-0.071l0.026,-0.071l0.025,-0.071l0.024,-0.072l0.023,-0.072l0.022,-0.072l0.021,-0.072l0.02,-0.073l0.019,-0.073l0.018,-0.074l0.017,-0.073l0.016,-0.074l0.015,-0.074l0.014,-0.074l0.013,-0.075l0.012,-0.074l0.011,-0.075l0.01,-0.075l0.009,-0.075l0.007,-0.075l0.007,-0.076l0.006,-0.075l0.005,-0.076l0.003,-0.075l0.003,-0.076l0.001,-0.076l0.001,-0.076l-0.001,-0.076l-0.002,-0.076l-0.002,-0.076l-0.004,-0.076l-0.005,-0.076l-0.006,-0.076l-0.007,-0.077l-0.008,-0.076l-0.009,-0.076l-0.01,-0.076l-0.012,-0.076l-0.012,-0.076l-0.013,-0.076l-0.015,-0.076l-0.016,-0.079l-0.644,-3.002l-0.043,-0.207l-0.04,-0.21l-0.037,-0.211l-0.035,-0.212l-0.031,-0.211l-0.028,-0.213l-0.025,-0.212l-0.023,-0.212l-0.019,-0.213l-0.016,-0.213l-0.013,-0.213l-0.01,-0.213l-0.007,-0.214l-0.004,-0.213l-0.001,-0.213l0.002,-0.214l0.005,-0.213l0.008,-0.213l0.012,-0.213l0.014,-0.213l0.017,-0.213l0.02,-0.212l0.024,-0.213l0.026,-0.212l0.029,-0.211l0.033,-0.212l0.035,-0.211l0.039,-0.21l0.041,-0.21l0.045,-0.21l0.005,-0.023l-9.45,0Z" style="fill:#e6e6e6;"/>
            <path d="M9,4c0,0 0,0 0,0c0,-0.613 0.346,-1.173 0.894,-1.447c0.533,-0.266 1.106,-0.553 1.106,-0.553l0,1c0,0 0,0 0,0c1.226,0 2.346,0.693 2.894,1.789c0.065,0.13 0.106,0.211 0.106,0.211l-2,3l0,-3l-1,0l0,3c0,0 -0.081,-0.041 -0.211,-0.106c-1.096,-0.548 -1.789,-1.668 -1.789,-2.894c0,0 0,0 0,0l-1,0l1,-1Z" style="fill:#ec9500;"/>
            <path d="M19.445,17l0,-14l6.09,2" style="fill:none;stroke:#2081ff;stroke-width:2px;stroke-linecap:square;"/>
        </g>
        <path d="M13.5,8.5c0,0 0,0.682 0,1.334c0,0.776 -0.072,1.55 -0.215,2.312c-0.189,1.007 -0.472,2.518 -0.725,3.865c-0.147,0.787 0.028,1.601 0.487,2.257c0.459,0.656 1.163,1.1 1.952,1.232c0.001,0 0.001,0 0.001,0" style="fill:none;stroke:#fff;stroke-opacity:0.498039;stroke-width:2px;"/>
    </g>
</svg>
