<?xml version="1.0" encoding="UTF-8" standalone="no"?><!DOCTYPE svg PUBLIC "-//W3C//DTD SVG 1.1//EN" "http://www.w3.org/Graphics/SVG/1.1/DTD/svg11.dtd"><svg width="100%" height="100%" viewBox="0 0 32 32" version="1.1" xmlns="http://www.w3.org/2000/svg" xmlns:xlink="http://www.w3.org/1999/xlink" xml:space="preserve" xmlns:serif="http://www.serif.com/" style="fill-rule:evenodd;clip-rule:evenodd;stroke-linecap:round;stroke-linejoin:round;stroke-miterlimit:10;"><rect id="tumbler_glass" x="0" y="0" width="32" height="32" style="fill:none;"/><clipPath id="_clip1"><rect x="0" y="0" width="32" height="32"/></clipPath><g clip-path="url(#_clip1)"><g id="outline"><path d="M4.001,6.551c-0.001,-0.017 -0.001,-0.034 -0.001,-0.051c0,-2.484 5.377,-4.5 12,-4.5c6.623,0 12,2.016 12,4.5l0,19c0,2.484 -5.377,4.5 -12,4.5c-6.623,0 -12,-2.016 -12,-4.5c0,-0.017 0,-0.034 0.001,-0.051l0,-18.898Z" style="fill:none;stroke:#000;stroke-width:4px;"/></g><g id="emoji"><rect x="4.001" y="6.5" width="23.999" height="19" style="fill:#fff;"/><rect x="5.001" y="6.5" width="21.999" height="19" style="fill:#d9d9d9;"/><ellipse cx="16" cy="6.5" rx="11.306" ry="3.92" style="fill:#bfbfbf;"/><path d="M27,16l-21.999,0l0,10.5l4.999,2.5l6,0.5l6,-0.5l5,-2.5l0,-10.5Z" style="fill:#bfbfbf;"/><g><path d="M7.553,12l1.447,1l0,11l-1.447,1.641c-1.593,-0.715 -2.553,-1.636 -2.553,-2.641c0,-0.016 0,-0.033 0.001,-0.049l0,-10.951l2.552,0Zm17.447,0l2,0l0,11c0,0.882 -0.74,1.7 -2,2.371l-1,-1.371l0,-11l1,-1Z" style="fill:#b85e0e;"/><path d="M12.553,12l1.447,1l0,12l-1.447,1.918c-1.971,-0.244 -3.697,-0.692 -5,-1.277l0,-13.641l5,0Zm7.447,0l5,0l0,13.371c-1.236,0.658 -2.972,1.175 -5,1.472l-1,-1.843l0,-12l1,-1Z" style="fill:#d46a18;"/><path d="M12.553,26.918l0,-13.918l7.447,0l0,13.843c-1.24,0.182 -2.589,0.282 -4,0.282c-1.204,0 -2.362,-0.073 -3.447,-0.207Z" style="fill:#e2891b;"/></g><ellipse cx="16" cy="12" rx="11" ry="4.125" style="fill:#d87817;"/><path d="M16.31,2.001l0.307,0.005l0.306,0.007l0.303,0.01l0.301,0.013l0.299,0.016l0.297,0.018l0.294,0.021l0.292,0.024l0.289,0.027l0.286,0.029l0.283,0.031l0.28,0.035l0.277,0.036l0.274,0.039l0.271,0.042l0.268,0.044l0.264,0.046l0.26,0.049l0.257,0.05l0.253,0.054l0.249,0.055l0.124,0.028l0.122,0.029l0.121,0.03l0.12,0.03l0.12,0.031l0.118,0.031l0.117,0.031l0.116,0.032l0.115,0.033l0.114,0.033l0.113,0.034l0.111,0.034l0.111,0.035l0.109,0.035l0.109,0.036l0.107,0.036l0.106,0.036l0.105,0.037l0.103,0.038l0.103,0.038l0.101,0.038l0.1,0.039l0.099,0.039l0.097,0.04l0.096,0.04l0.095,0.041l0.094,0.041l0.092,0.041l0.091,0.042l0.09,0.042l0.089,0.043l0.087,0.043l0.085,0.044l0.085,0.044l0.083,0.044l0.081,0.045l0.081,0.045l0.078,0.045l0.078,0.046l0.076,0.046l0.074,0.047l0.073,0.047l0.072,0.047l0.07,0.048l0.068,0.048l0.067,0.048l0.066,0.049l0.064,0.049l0.062,0.049l0.061,0.05l0.06,0.05l0.057,0.05l0.057,0.051l0.054,0.051l0.053,0.051l0.051,0.051l0.05,0.052l0.048,0.052l0.046,0.053l0.045,0.052l0.043,0.053l0.041,0.054l0.04,0.053l0.038,0.054l0.036,0.054l0.034,0.054l0.033,0.055l0.031,0.055l0.029,0.055l0.027,0.055l0.026,0.055l0.024,0.056l0.021,0.056l0.021,0.056l0.018,0.057l0.016,0.056l0.014,0.057l0.013,0.057l0.011,0.057l0.008,0.058l0.007,0.057l0.005,0.058l0.003,0.058l0.001,0.058l-0.001,0.058l-0.003,0.058l-0.005,0.058l-0.007,0.057l-0.008,0.058l-0.011,0.057l-0.013,0.057l-0.014,0.057l-0.016,0.056l-0.018,0.057l-0.021,0.056l-0.021,0.056l-0.024,0.056l-0.026,0.055l-0.027,0.055l-0.029,0.055l-0.031,0.055l-0.033,0.055l-0.034,0.054l-0.036,0.054l-0.038,0.054l-0.04,0.053l-0.041,0.054l-0.043,0.053l-0.045,0.052l-0.046,0.053l-0.048,0.052l-0.05,0.052l-0.051,0.051l-0.053,0.051l-0.054,0.051l-0.057,0.051l-0.057,0.05l-0.06,0.05l-0.061,0.05l-0.062,0.049l-0.064,0.049l-0.066,0.049l-0.067,0.048l-0.068,0.048l-0.07,0.048l-0.072,0.047l-0.073,0.047l-0.074,0.047l-0.076,0.046l-0.078,0.046l-0.078,0.045l-0.081,0.045l-0.081,0.045l-0.083,0.044l-0.085,0.044l-0.085,0.044l-0.087,0.043l-0.089,0.043l-0.09,0.042l-0.091,0.042l-0.092,0.041l-0.094,0.041l-0.095,0.041l-0.096,0.04l-0.097,0.04l-0.099,0.039l-0.1,0.039l-0.101,0.038l-0.103,0.038l-0.103,0.038l-0.105,0.037l-0.106,0.036l-0.107,0.036l-0.109,0.036l-0.109,0.035l-0.111,0.035l-0.111,0.034l-0.113,0.034l-0.114,0.033l-0.115,0.033l-0.116,0.032l-0.117,0.031l-0.118,0.031l-0.12,0.031l-0.12,0.03l-0.121,0.03l-0.122,0.029l-0.124,0.028l-0.249,0.055l-0.253,0.054l-0.257,0.05l-0.26,0.049l-0.264,0.046l-0.268,0.044l-0.271,0.042l-0.274,0.039l-0.277,0.036l-0.28,0.035l-0.283,0.031l-0.286,0.029l-0.289,0.027l-0.292,0.024l-0.294,0.021l-0.297,0.018l-0.299,0.016l-0.301,0.013l-0.303,0.01l-0.306,0.007l-0.307,0.005l-0.31,0.001l-0.31,-0.001l-0.307,-0.005l-0.306,-0.007l-0.303,-0.01l-0.301,-0.013l-0.299,-0.016l-0.297,-0.018l-0.294,-0.021l-0.292,-0.024l-0.289,-0.027l-0.286,-0.029l-0.283,-0.031l-0.28,-0.035l-0.277,-0.036l-0.274,-0.039l-0.271,-0.042l-0.268,-0.044l-0.264,-0.046l-0.26,-0.049l-0.257,-0.05l-0.253,-0.054l-0.249,-0.055l-0.124,-0.028l-0.122,-0.029l-0.121,-0.03l-0.12,-0.03l-0.12,-0.031l-0.118,-0.031l-0.117,-0.031l-0.116,-0.032l-0.115,-0.033l-0.114,-0.033l-0.113,-0.034l-0.111,-0.034l-0.111,-0.035l-0.109,-0.035l-0.109,-0.036l-0.107,-0.036l-0.106,-0.036l-0.105,-0.037l-0.103,-0.038l-0.103,-0.038l-0.101,-0.038l-0.1,-0.039l-0.099,-0.039l-0.097,-0.04l-0.096,-0.04l-0.095,-0.041l-0.094,-0.041l-0.092,-0.041l-0.091,-0.042l-0.09,-0.042l-0.089,-0.043l-0.087,-0.043l-0.085,-0.044l-0.085,-0.044l-0.083,-0.044l-0.081,-0.045l-0.081,-0.045l-0.078,-0.045l-0.078,-0.046l-0.076,-0.046l-0.074,-0.047l-0.073,-0.047l-0.072,-0.047l-0.07,-0.048l-0.068,-0.048l-0.067,-0.048l-0.066,-0.049l-0.064,-0.049l-0.062,-0.049l-0.061,-0.05l-0.06,-0.05l-0.057,-0.05l-0.057,-0.051l-0.054,-0.051l-0.053,-0.051l-0.051,-0.051l-0.05,-0.052l-0.048,-0.052l-0.046,-0.053l-0.045,-0.052l-0.043,-0.053l-0.041,-0.054l-0.04,-0.053l-0.038,-0.054l-0.036,-0.054l-0.034,-0.054l-0.033,-0.055l-0.031,-0.055l-0.029,-0.055l-0.027,-0.055l-0.026,-0.055l-0.024,-0.056l-0.021,-0.056l-0.021,-0.056l-0.018,-0.057l-0.016,-0.056l-0.014,-0.057l-0.013,-0.057l-0.011,-0.057l-0.008,-0.058l-0.007,-0.057l-0.005,-0.058l-0.003,-0.058l-0.001,-0.058l0.001,-0.058l0.003,-0.058l0.005,-0.058l0.007,-0.057l0.008,-0.058l0.011,-0.057l0.013,-0.057l0.014,-0.057l0.016,-0.056l0.018,-0.057l0.021,-0.056l0.021,-0.056l0.024,-0.056l0.026,-0.055l0.027,-0.055l0.029,-0.055l0.031,-0.055l0.033,-0.055l0.034,-0.054l0.036,-0.054l0.038,-0.054l0.04,-0.053l0.041,-0.054l0.043,-0.053l0.045,-0.052l0.046,-0.053l0.048,-0.052l0.05,-0.052l0.051,-0.051l0.053,-0.051l0.054,-0.051l0.057,-0.051l0.057,-0.05l0.06,-0.05l0.061,-0.05l0.062,-0.049l0.064,-0.049l0.066,-0.049l0.067,-0.048l0.068,-0.048l0.07,-0.048l0.072,-0.047l0.073,-0.047l0.074,-0.047l0.076,-0.046l0.078,-0.046l0.078,-0.045l0.081,-0.045l0.081,-0.045l0.083,-0.044l0.085,-0.044l0.085,-0.044l0.087,-0.043l0.089,-0.043l0.09,-0.042l0.091,-0.042l0.092,-0.041l0.094,-0.041l0.095,-0.041l0.096,-0.04l0.097,-0.04l0.099,-0.039l0.1,-0.039l0.101,-0.038l0.103,-0.038l0.103,-0.038l0.105,-0.037l0.106,-0.036l0.107,-0.036l0.109,-0.036l0.109,-0.035l0.111,-0.035l0.111,-0.034l0.113,-0.034l0.114,-0.033l0.115,-0.033l0.116,-0.032l0.117,-0.031l0.118,-0.031l0.12,-0.031l0.12,-0.03l0.121,-0.03l0.122,-0.029l0.124,-0.028l0.249,-0.055l0.253,-0.054l0.257,-0.05l0.26,-0.049l0.264,-0.046l0.268,-0.044l0.271,-0.042l0.274,-0.039l0.277,-0.036l0.28,-0.035l0.283,-0.031l0.286,-0.029l0.289,-0.027l0.292,-0.024l0.294,-0.021l0.297,-0.018l0.299,-0.016l0.301,-0.013l0.303,-0.01l0.306,-0.007l0.307,-0.005l0.31,-0.001l0.31,0.001Zm-0.61,1l-0.298,0.005l-0.296,0.007l-0.294,0.01l-0.292,0.012l-0.289,0.015l-0.287,0.018l-0.285,0.021l-0.281,0.023l-0.279,0.025l-0.277,0.028l-0.273,0.031l-0.27,0.033l-0.267,0.035l-0.264,0.038l-0.26,0.04l-0.257,0.042l-0.254,0.044l-0.249,0.047l-0.246,0.048l-0.242,0.051l-0.24,0.053l-0.116,0.027l-0.116,0.028l-0.115,0.028l-0.115,0.028l-0.113,0.029l-0.112,0.03l-0.111,0.03l-0.11,0.03l-0.108,0.031l-0.108,0.032l-0.106,0.031l-0.106,0.032l-0.104,0.033l-0.102,0.033l-0.102,0.033l-0.1,0.034l-0.099,0.034l-0.098,0.035l-0.096,0.035l-0.096,0.035l-0.093,0.036l-0.093,0.036l-0.091,0.036l-0.09,0.036l-0.088,0.037l-0.087,0.037l-0.086,0.038l-0.084,0.038l-0.082,0.038l-0.082,0.038l-0.079,0.039l-0.079,0.038l-0.076,0.039l-0.075,0.039l-0.074,0.04l-0.072,0.039l-0.071,0.04l-0.069,0.04l-0.067,0.039l-0.066,0.04l-0.064,0.04l-0.062,0.041l-0.061,0.04l-0.059,0.04l-0.057,0.04l-0.056,0.04l-0.054,0.04l-0.052,0.04l-0.05,0.04l-0.049,0.04l-0.047,0.039l-0.045,0.04l-0.044,0.039l-0.041,0.039l-0.04,0.038l-0.038,0.038l-0.036,0.038l-0.035,0.038l-0.033,0.037l-0.031,0.036l-0.029,0.036l-0.027,0.036l-0.026,0.035l-0.025,0.034l-0.022,0.034l-0.021,0.033l-0.019,0.032l-0.018,0.032l-0.017,0.031l-0.015,0.03l-0.013,0.03l-0.013,0.029l-0.011,0.028l-0.009,0.028l-0.009,0.026l-0.008,0.027l-0.006,0.026l-0.006,0.025l-0.005,0.025l-0.003,0.025l-0.003,0.024l-0.002,0.024l-0.001,0.025l-0.001,0.024l0.001,0.024l0.001,0.025l0.002,0.024l0.003,0.024l0.003,0.025l0.005,0.025l0.006,0.025l0.006,0.026l0.008,0.027l0.009,0.026l0.009,0.028l0.011,0.028l0.013,0.029l0.013,0.03l0.015,0.03l0.017,0.031l0.018,0.032l0.019,0.032l0.021,0.033l0.022,0.034l0.025,0.034l0.026,0.035l0.027,0.036l0.029,0.036l0.031,0.036l0.033,0.037l0.035,0.038l0.036,0.038l0.038,0.038l0.04,0.038l0.041,0.039l0.044,0.039l0.045,0.04l0.047,0.039l0.049,0.04l0.05,0.04l0.052,0.04l0.054,0.04l0.056,0.04l0.057,0.04l0.059,0.04l0.061,0.04l0.062,0.041l0.064,0.04l0.066,0.04l0.067,0.039l0.069,0.04l0.071,0.04l0.072,0.039l0.074,0.04l0.075,0.039l0.076,0.039l0.079,0.039l0.079,0.038l0.082,0.038l0.082,0.038l0.084,0.038l0.086,0.038l0.087,0.037l0.088,0.037l0.09,0.036l0.091,0.036l0.093,0.036l0.093,0.036l0.096,0.035l0.096,0.035l0.098,0.035l0.099,0.034l0.1,0.034l0.102,0.033l0.102,0.033l0.104,0.033l0.106,0.032l0.106,0.032l0.108,0.031l0.108,0.031l0.11,0.03l0.111,0.03l0.112,0.03l0.113,0.029l0.115,0.028l0.115,0.028l0.116,0.028l0.116,0.027l0.24,0.053l0.242,0.051l0.246,0.048l0.249,0.047l0.254,0.044l0.257,0.042l0.26,0.04l0.264,0.038l0.267,0.035l0.27,0.033l0.273,0.031l0.277,0.028l0.279,0.025l0.281,0.023l0.285,0.021l0.287,0.018l0.289,0.015l0.292,0.012l0.294,0.01l0.296,0.007l0.298,0.005l0.3,0.001l0.3,-0.001l0.298,-0.005l0.296,-0.007l0.294,-0.01l0.292,-0.012l0.289,-0.015l0.287,-0.018l0.285,-0.021l0.281,-0.023l0.279,-0.025l0.277,-0.028l0.273,-0.031l0.27,-0.033l0.267,-0.035l0.264,-0.038l0.26,-0.04l0.257,-0.042l0.254,-0.044l0.249,-0.047l0.246,-0.048l0.242,-0.051l0.24,-0.053l0.116,-0.027l0.116,-0.028l0.115,-0.028l0.115,-0.028l0.113,-0.029l0.112,-0.03l0.111,-0.03l0.11,-0.03l0.108,-0.031l0.108,-0.031l0.106,-0.032l0.106,-0.032l0.104,-0.033l0.102,-0.033l0.102,-0.033l0.1,-0.034l0.099,-0.034l0.098,-0.035l0.096,-0.035l0.095,-0.035l0.094,-0.036l0.093,-0.036l0.091,-0.036l0.09,-0.036l0.088,-0.037l0.087,-0.037l0.086,-0.038l0.084,-0.038l0.082,-0.038l0.082,-0.038l0.079,-0.038l0.079,-0.039l0.076,-0.039l0.075,-0.039l0.074,-0.04l0.072,-0.039l0.071,-0.04l0.069,-0.04l0.067,-0.039l0.066,-0.04l0.064,-0.04l0.062,-0.041l0.061,-0.04l0.059,-0.04l0.057,-0.04l0.056,-0.04l0.054,-0.04l0.052,-0.04l0.05,-0.04l0.049,-0.04l0.047,-0.039l0.045,-0.04l0.044,-0.039l0.041,-0.039l0.04,-0.038l0.038,-0.038l0.036,-0.038l0.035,-0.038l0.033,-0.037l0.031,-0.036l0.029,-0.036l0.027,-0.036l0.026,-0.035l0.024,-0.034l0.023,-0.034l0.021,-0.033l0.019,-0.032l0.018,-0.032l0.017,-0.031l0.015,-0.03l0.013,-0.03l0.013,-0.029l0.011,-0.028l0.009,-0.028l0.009,-0.026l0.008,-0.027l0.006,-0.026l0.006,-0.025l0.005,-0.025l0.003,-0.025l0.003,-0.024l0.002,-0.024l0.001,-0.025l0.001,-0.024l-0.001,-0.024l-0.001,-0.025l-0.002,-0.024l-0.003,-0.024l-0.003,-0.025l-0.005,-0.025l-0.006,-0.025l-0.006,-0.026l-0.008,-0.027l-0.009,-0.026l-0.009,-0.028l-0.011,-0.028l-0.013,-0.029l-0.013,-0.03l-0.015,-0.03l-0.017,-0.031l-0.018,-0.032l-0.019,-0.032l-0.021,-0.033l-0.023,-0.034l-0.024,-0.034l-0.026,-0.035l-0.027,-0.036l-0.029,-0.036l-0.031,-0.036l-0.033,-0.037l-0.035,-0.038l-0.036,-0.038l-0.038,-0.038l-0.04,-0.038l-0.041,-0.039l-0.044,-0.039l-0.045,-0.04l-0.047,-0.039l-0.049,-0.04l-0.05,-0.04l-0.052,-0.04l-0.054,-0.04l-0.056,-0.04l-0.057,-0.04l-0.059,-0.04l-0.061,-0.04l-0.062,-0.041l-0.064,-0.04l-0.066,-0.04l-0.067,-0.039l-0.069,-0.04l-0.071,-0.04l-0.072,-0.039l-0.074,-0.04l-0.075,-0.039l-0.076,-0.039l-0.079,-0.038l-0.079,-0.039l-0.082,-0.038l-0.082,-0.038l-0.084,-0.038l-0.086,-0.038l-0.087,-0.037l-0.088,-0.037l-0.09,-0.036l-0.091,-0.036l-0.093,-0.036l-0.094,-0.036l-0.095,-0.035l-0.096,-0.035l-0.098,-0.035l-0.099,-0.034l-0.1,-0.034l-0.102,-0.033l-0.102,-0.033l-0.104,-0.033l-0.106,-0.032l-0.106,-0.031l-0.108,-0.032l-0.108,-0.031l-0.11,-0.03l-0.111,-0.03l-0.112,-0.03l-0.113,-0.029l-0.115,-0.028l-0.115,-0.028l-0.116,-0.028l-0.116,-0.027l-0.24,-0.053l-0.242,-0.051l-0.246,-0.048l-0.249,-0.047l-0.254,-0.044l-0.257,-0.042l-0.26,-0.04l-0.264,-0.038l-0.267,-0.035l-0.27,-0.033l-0.273,-0.031l-0.277,-0.028l-0.279,-0.025l-0.281,-0.023l-0.285,-0.021l-0.287,-0.018l-0.289,-0.015l-0.292,-0.012l-0.294,-0.01l-0.296,-0.007l-0.298,-0.005l-0.3,-0.001l-0.3,0.001Z" style="fill:#fff;"/><path d="M12,10l-5,-1l0,19l3,1l2,0l0,-19Z" style="fill:#fff;fill-opacity:0.290196;"/><rect x="1" y="25.5" width="30" height="6.5" style="fill:none;"/><clipPath id="_clip2"><rect x="1" y="25.5" width="30" height="6.5"/></clipPath><g clip-path="url(#_clip2)"><path d="M16.31,21.001l0.307,0.005l0.306,0.007l0.303,0.01l0.301,0.013l0.299,0.016l0.297,0.018l0.294,0.021l0.292,0.024l0.289,0.027l0.286,0.029l0.283,0.031l0.28,0.035l0.277,0.036l0.274,0.039l0.271,0.042l0.268,0.044l0.264,0.046l0.26,0.049l0.257,0.05l0.253,0.054l0.249,0.055l0.124,0.028l0.122,0.029l0.121,0.03l0.12,0.03l0.12,0.031l0.118,0.031l0.117,0.031l0.116,0.032l0.115,0.033l0.114,0.033l0.113,0.034l0.111,0.034l0.111,0.035l0.109,0.035l0.109,0.036l0.107,0.036l0.106,0.036l0.105,0.037l0.103,0.038l0.103,0.038l0.101,0.038l0.1,0.039l0.099,0.039l0.097,0.04l0.096,0.04l0.095,0.041l0.094,0.041l0.092,0.041l0.091,0.042l0.09,0.042l0.089,0.043l0.087,0.043l0.085,0.044l0.085,0.044l0.083,0.044l0.081,0.045l0.081,0.045l0.078,0.045l0.078,0.046l0.076,0.046l0.074,0.047l0.073,0.047l0.072,0.047l0.07,0.048l0.068,0.048l0.067,0.048l0.066,0.049l0.064,0.049l0.062,0.049l0.061,0.05l0.06,0.05l0.057,0.05l0.057,0.051l0.054,0.051l0.053,0.051l0.051,0.051l0.05,0.052l0.048,0.052l0.046,0.053l0.045,0.052l0.043,0.053l0.041,0.054l0.04,0.053l0.038,0.054l0.036,0.054l0.034,0.054l0.033,0.055l0.031,0.055l0.029,0.055l0.027,0.055l0.026,0.055l0.024,0.056l0.021,0.056l0.021,0.056l0.018,0.057l0.016,0.056l0.014,0.057l0.013,0.057l0.011,0.057l0.008,0.058l0.007,0.057l0.005,0.058l0.003,0.058l0.001,0.058l-0.001,0.058l-0.003,0.058l-0.005,0.058l-0.007,0.057l-0.008,0.058l-0.011,0.057l-0.013,0.057l-0.014,0.057l-0.016,0.056l-0.018,0.057l-0.021,0.056l-0.021,0.056l-0.024,0.056l-0.026,0.055l-0.027,0.055l-0.029,0.055l-0.031,0.055l-0.033,0.055l-0.034,0.054l-0.036,0.054l-0.038,0.054l-0.04,0.053l-0.041,0.054l-0.043,0.053l-0.045,0.052l-0.046,0.053l-0.048,0.052l-0.05,0.052l-0.051,0.051l-0.053,0.051l-0.054,0.051l-0.057,0.051l-0.057,0.05l-0.06,0.05l-0.061,0.05l-0.062,0.049l-0.064,0.049l-0.066,0.049l-0.067,0.048l-0.068,0.048l-0.07,0.048l-0.072,0.047l-0.073,0.047l-0.074,0.047l-0.076,0.046l-0.078,0.046l-0.078,0.045l-0.081,0.045l-0.081,0.045l-0.083,0.044l-0.085,0.044l-0.085,0.044l-0.087,0.043l-0.089,0.043l-0.09,0.042l-0.091,0.042l-0.092,0.041l-0.094,0.041l-0.095,0.041l-0.096,0.04l-0.097,0.04l-0.099,0.039l-0.1,0.039l-0.101,0.038l-0.103,0.038l-0.103,0.038l-0.105,0.037l-0.106,0.036l-0.107,0.036l-0.109,0.036l-0.109,0.035l-0.111,0.035l-0.111,0.034l-0.113,0.034l-0.114,0.033l-0.115,0.033l-0.116,0.032l-0.117,0.031l-0.118,0.031l-0.12,0.031l-0.12,0.03l-0.121,0.03l-0.122,0.029l-0.124,0.028l-0.249,0.055l-0.253,0.054l-0.257,0.05l-0.26,0.049l-0.264,0.046l-0.268,0.044l-0.271,0.042l-0.274,0.039l-0.277,0.036l-0.28,0.035l-0.283,0.031l-0.286,0.029l-0.289,0.027l-0.292,0.024l-0.294,0.021l-0.297,0.018l-0.299,0.016l-0.301,0.013l-0.303,0.01l-0.306,0.007l-0.307,0.005l-0.31,0.001l-0.31,-0.001l-0.307,-0.005l-0.306,-0.007l-0.303,-0.01l-0.301,-0.013l-0.299,-0.016l-0.297,-0.018l-0.294,-0.021l-0.292,-0.024l-0.289,-0.027l-0.286,-0.029l-0.283,-0.031l-0.28,-0.035l-0.277,-0.036l-0.274,-0.039l-0.271,-0.042l-0.268,-0.044l-0.264,-0.046l-0.26,-0.049l-0.257,-0.05l-0.253,-0.054l-0.249,-0.055l-0.124,-0.028l-0.122,-0.029l-0.121,-0.03l-0.12,-0.03l-0.12,-0.031l-0.118,-0.031l-0.117,-0.031l-0.116,-0.032l-0.115,-0.033l-0.114,-0.033l-0.113,-0.034l-0.111,-0.034l-0.111,-0.035l-0.109,-0.035l-0.109,-0.036l-0.107,-0.036l-0.106,-0.036l-0.105,-0.037l-0.103,-0.038l-0.103,-0.038l-0.101,-0.038l-0.1,-0.039l-0.099,-0.039l-0.097,-0.04l-0.096,-0.04l-0.095,-0.041l-0.094,-0.041l-0.092,-0.041l-0.091,-0.042l-0.09,-0.042l-0.089,-0.043l-0.087,-0.043l-0.085,-0.044l-0.085,-0.044l-0.083,-0.044l-0.081,-0.045l-0.081,-0.045l-0.078,-0.045l-0.078,-0.046l-0.076,-0.046l-0.074,-0.047l-0.073,-0.047l-0.072,-0.047l-0.07,-0.048l-0.068,-0.048l-0.067,-0.048l-0.066,-0.049l-0.064,-0.049l-0.062,-0.049l-0.061,-0.05l-0.06,-0.05l-0.057,-0.05l-0.057,-0.051l-0.054,-0.051l-0.053,-0.051l-0.051,-0.051l-0.05,-0.052l-0.048,-0.052l-0.046,-0.053l-0.045,-0.052l-0.043,-0.053l-0.041,-0.054l-0.04,-0.053l-0.038,-0.054l-0.036,-0.054l-0.034,-0.054l-0.033,-0.055l-0.031,-0.055l-0.029,-0.055l-0.027,-0.055l-0.026,-0.055l-0.024,-0.056l-0.021,-0.056l-0.021,-0.056l-0.018,-0.057l-0.016,-0.056l-0.014,-0.057l-0.013,-0.057l-0.011,-0.057l-0.008,-0.058l-0.007,-0.057l-0.005,-0.058l-0.003,-0.058l-0.001,-0.058l0.001,-0.058l0.003,-0.058l0.005,-0.058l0.007,-0.057l0.008,-0.058l0.011,-0.057l0.013,-0.057l0.014,-0.057l0.016,-0.056l0.018,-0.057l0.021,-0.056l0.021,-0.056l0.024,-0.056l0.026,-0.055l0.027,-0.055l0.029,-0.055l0.031,-0.055l0.033,-0.055l0.034,-0.054l0.036,-0.054l0.038,-0.054l0.04,-0.053l0.041,-0.054l0.043,-0.053l0.045,-0.052l0.046,-0.053l0.048,-0.052l0.05,-0.052l0.051,-0.051l0.053,-0.051l0.054,-0.051l0.057,-0.051l0.057,-0.05l0.06,-0.05l0.061,-0.05l0.062,-0.049l0.064,-0.049l0.066,-0.049l0.067,-0.048l0.068,-0.048l0.07,-0.048l0.072,-0.047l0.073,-0.047l0.074,-0.047l0.076,-0.046l0.078,-0.046l0.078,-0.045l0.081,-0.045l0.081,-0.045l0.083,-0.044l0.085,-0.044l0.085,-0.044l0.087,-0.043l0.089,-0.043l0.09,-0.042l0.091,-0.042l0.092,-0.041l0.094,-0.041l0.095,-0.041l0.096,-0.04l0.097,-0.04l0.099,-0.039l0.1,-0.039l0.101,-0.038l0.103,-0.038l0.103,-0.038l0.105,-0.037l0.106,-0.036l0.107,-0.036l0.109,-0.036l0.109,-0.035l0.111,-0.035l0.111,-0.034l0.113,-0.034l0.114,-0.033l0.115,-0.033l0.116,-0.032l0.117,-0.031l0.118,-0.031l0.12,-0.031l0.12,-0.03l0.121,-0.03l0.122,-0.029l0.124,-0.028l0.249,-0.055l0.253,-0.054l0.257,-0.05l0.26,-0.049l0.264,-0.046l0.268,-0.044l0.271,-0.042l0.274,-0.039l0.277,-0.036l0.28,-0.035l0.283,-0.031l0.286,-0.029l0.289,-0.027l0.292,-0.024l0.294,-0.021l0.297,-0.018l0.299,-0.016l0.301,-0.013l0.303,-0.01l0.306,-0.007l0.307,-0.005l0.31,-0.001l0.31,0.001Zm-0.61,1l-0.298,0.005l-0.296,0.007l-0.294,0.01l-0.292,0.012l-0.289,0.015l-0.287,0.018l-0.285,0.021l-0.281,0.023l-0.279,0.025l-0.277,0.028l-0.273,0.031l-0.27,0.033l-0.267,0.035l-0.264,0.038l-0.26,0.04l-0.257,0.042l-0.254,0.044l-0.249,0.047l-0.246,0.048l-0.242,0.051l-0.24,0.053l-0.116,0.027l-0.116,0.028l-0.115,0.028l-0.115,0.028l-0.113,0.029l-0.112,0.03l-0.111,0.03l-0.11,0.03l-0.108,0.031l-0.108,0.032l-0.106,0.031l-0.106,0.032l-0.104,0.033l-0.102,0.033l-0.102,0.033l-0.1,0.034l-0.099,0.034l-0.098,0.035l-0.096,0.035l-0.096,0.035l-0.093,0.036l-0.093,0.036l-0.091,0.036l-0.09,0.036l-0.088,0.037l-0.087,0.037l-0.086,0.038l-0.084,0.038l-0.082,0.038l-0.082,0.038l-0.079,0.039l-0.079,0.038l-0.076,0.039l-0.075,0.039l-0.074,0.04l-0.072,0.039l-0.071,0.04l-0.069,0.04l-0.067,0.039l-0.066,0.04l-0.064,0.04l-0.062,0.041l-0.061,0.04l-0.059,0.04l-0.057,0.04l-0.056,0.04l-0.054,0.04l-0.052,0.04l-0.05,0.04l-0.049,0.04l-0.047,0.039l-0.045,0.04l-0.044,0.039l-0.041,0.039l-0.04,0.038l-0.038,0.038l-0.036,0.038l-0.035,0.038l-0.033,0.037l-0.031,0.036l-0.029,0.036l-0.027,0.036l-0.026,0.035l-0.025,0.034l-0.022,0.034l-0.021,0.033l-0.019,0.032l-0.018,0.032l-0.017,0.031l-0.015,0.03l-0.013,0.03l-0.013,0.029l-0.011,0.028l-0.009,0.028l-0.009,0.026l-0.008,0.027l-0.006,0.026l-0.006,0.025l-0.005,0.025l-0.003,0.025l-0.003,0.024l-0.002,0.024l-0.001,0.025l-0.001,0.024l0.001,0.024l0.001,0.025l0.002,0.024l0.003,0.024l0.003,0.025l0.005,0.025l0.006,0.025l0.006,0.026l0.008,0.027l0.009,0.026l0.009,0.028l0.011,0.028l0.013,0.029l0.013,0.03l0.015,0.03l0.017,0.031l0.018,0.032l0.019,0.032l0.021,0.033l0.022,0.034l0.025,0.034l0.026,0.035l0.027,0.036l0.029,0.036l0.031,0.036l0.033,0.037l0.035,0.038l0.036,0.038l0.038,0.038l0.04,0.038l0.041,0.039l0.044,0.039l0.045,0.04l0.047,0.039l0.049,0.04l0.05,0.04l0.052,0.04l0.054,0.04l0.056,0.04l0.057,0.04l0.059,0.04l0.061,0.04l0.062,0.041l0.064,0.04l0.066,0.04l0.067,0.039l0.069,0.04l0.071,0.04l0.072,0.039l0.074,0.04l0.075,0.039l0.076,0.039l0.079,0.038l0.079,0.039l0.082,0.038l0.082,0.038l0.084,0.038l0.086,0.038l0.087,0.037l0.088,0.037l0.09,0.036l0.091,0.036l0.093,0.036l0.094,0.036l0.095,0.035l0.096,0.035l0.098,0.035l0.099,0.034l0.1,0.034l0.102,0.033l0.102,0.033l0.104,0.033l0.106,0.032l0.106,0.032l0.107,0.031l0.109,0.031l0.11,0.03l0.111,0.03l0.112,0.03l0.113,0.029l0.115,0.028l0.115,0.028l0.116,0.028l0.116,0.027l0.24,0.053l0.242,0.051l0.246,0.048l0.249,0.047l0.254,0.044l0.257,0.042l0.26,0.04l0.264,0.038l0.267,0.035l0.27,0.033l0.273,0.031l0.277,0.028l0.279,0.025l0.281,0.023l0.285,0.021l0.287,0.018l0.289,0.015l0.292,0.012l0.294,0.01l0.296,0.007l0.298,0.005l0.3,0.001l0.3,-0.001l0.298,-0.005l0.296,-0.007l0.294,-0.01l0.292,-0.012l0.289,-0.015l0.287,-0.018l0.285,-0.021l0.281,-0.023l0.279,-0.025l0.277,-0.028l0.273,-0.031l0.27,-0.033l0.267,-0.035l0.264,-0.038l0.26,-0.04l0.257,-0.042l0.254,-0.044l0.249,-0.047l0.246,-0.048l0.242,-0.051l0.24,-0.053l0.116,-0.027l0.116,-0.028l0.115,-0.028l0.115,-0.028l0.113,-0.029l0.112,-0.03l0.111,-0.03l0.11,-0.03l0.109,-0.031l0.107,-0.031l0.106,-0.032l0.106,-0.032l0.104,-0.033l0.102,-0.033l0.102,-0.033l0.1,-0.034l0.099,-0.034l0.098,-0.035l0.096,-0.035l0.095,-0.035l0.094,-0.036l0.093,-0.036l0.091,-0.036l0.09,-0.036l0.088,-0.037l0.087,-0.037l0.086,-0.038l0.084,-0.038l0.082,-0.038l0.082,-0.038l0.079,-0.039l0.079,-0.038l0.076,-0.039l0.075,-0.039l0.074,-0.04l0.072,-0.039l0.071,-0.04l0.069,-0.04l0.067,-0.039l0.066,-0.04l0.064,-0.04l0.062,-0.041l0.061,-0.04l0.059,-0.04l0.057,-0.04l0.056,-0.04l0.054,-0.04l0.052,-0.04l0.05,-0.04l0.049,-0.04l0.047,-0.039l0.045,-0.04l0.044,-0.039l0.041,-0.039l0.04,-0.038l0.038,-0.038l0.036,-0.038l0.035,-0.038l0.033,-0.037l0.031,-0.036l0.029,-0.036l0.027,-0.036l0.026,-0.035l0.024,-0.034l0.023,-0.034l0.021,-0.033l0.019,-0.032l0.018,-0.032l0.017,-0.031l0.015,-0.03l0.013,-0.03l0.013,-0.029l0.011,-0.028l0.009,-0.028l0.009,-0.026l0.008,-0.027l0.006,-0.026l0.006,-0.025l0.005,-0.025l0.003,-0.025l0.003,-0.024l0.002,-0.024l0.001,-0.025l0.001,-0.024l-0.001,-0.024l-0.001,-0.025l-0.002,-0.024l-0.003,-0.024l-0.003,-0.025l-0.005,-0.025l-0.006,-0.025l-0.006,-0.026l-0.008,-0.027l-0.009,-0.026l-0.009,-0.028l-0.011,-0.028l-0.013,-0.029l-0.013,-0.03l-0.015,-0.03l-0.017,-0.031l-0.018,-0.032l-0.019,-0.032l-0.021,-0.033l-0.023,-0.034l-0.024,-0.034l-0.026,-0.035l-0.027,-0.036l-0.029,-0.036l-0.031,-0.036l-0.033,-0.037l-0.035,-0.038l-0.036,-0.038l-0.038,-0.038l-0.04,-0.038l-0.041,-0.039l-0.044,-0.039l-0.045,-0.04l-0.047,-0.039l-0.049,-0.04l-0.05,-0.04l-0.052,-0.04l-0.054,-0.04l-0.056,-0.04l-0.057,-0.04l-0.059,-0.04l-0.061,-0.04l-0.062,-0.041l-0.064,-0.04l-0.066,-0.04l-0.067,-0.039l-0.069,-0.04l-0.071,-0.04l-0.072,-0.039l-0.074,-0.04l-0.075,-0.039l-0.076,-0.039l-0.079,-0.038l-0.079,-0.039l-0.082,-0.038l-0.082,-0.038l-0.084,-0.038l-0.086,-0.038l-0.087,-0.037l-0.088,-0.037l-0.09,-0.036l-0.091,-0.036l-0.093,-0.036l-0.094,-0.036l-0.095,-0.035l-0.096,-0.035l-0.098,-0.035l-0.099,-0.034l-0.1,-0.034l-0.102,-0.033l-0.102,-0.033l-0.104,-0.033l-0.106,-0.032l-0.106,-0.031l-0.108,-0.032l-0.108,-0.031l-0.11,-0.03l-0.111,-0.03l-0.112,-0.03l-0.113,-0.029l-0.115,-0.028l-0.115,-0.028l-0.116,-0.028l-0.116,-0.027l-0.24,-0.053l-0.242,-0.051l-0.246,-0.048l-0.249,-0.047l-0.254,-0.044l-0.257,-0.042l-0.26,-0.04l-0.264,-0.038l-0.267,-0.035l-0.27,-0.033l-0.273,-0.031l-0.277,-0.028l-0.279,-0.025l-0.281,-0.023l-0.285,-0.021l-0.287,-0.018l-0.289,-0.015l-0.292,-0.012l-0.294,-0.01l-0.296,-0.007l-0.298,-0.005l-0.3,-0.001l-0.3,0.001Z" style="fill:#fff;"/></g><rect x="1" y="21.5" width="30" height="6.5" style="fill:none;"/></g></g></svg>