<?xml version="1.0" encoding="UTF-8" standalone="no"?><!DOCTYPE svg PUBLIC "-//W3C//DTD SVG 1.1//EN" "http://www.w3.org/Graphics/SVG/1.1/DTD/svg11.dtd"><svg width="100%" height="100%" viewBox="0 0 32 32" version="1.1" xmlns="http://www.w3.org/2000/svg" xmlns:xlink="http://www.w3.org/1999/xlink" xml:space="preserve" xmlns:serif="http://www.serif.com/" style="fill-rule:evenodd;clip-rule:evenodd;stroke-linecap:round;stroke-linejoin:round;stroke-miterlimit:10;"><rect id="wine" x="0" y="0" width="32" height="32" style="fill:none;"/><clipPath id="_clip1"><rect x="0" y="0" width="32" height="32"/></clipPath><g clip-path="url(#_clip1)"><g id="outline"><path d="M7,6c0,-2.208 4.033,-4 9,-4c4.967,0 9,1.792 9,4l0.636,5.086c0.345,2.763 -0.513,5.542 -2.356,7.63c-1.621,1.837 -3.867,2.983 -6.28,3.232l0,5.082c2.281,0.139 4,0.745 4,1.47c0,0.828 -2.24,1.5 -5,1.5c-2.76,0 -5,-0.672 -5,-1.5c0,-0.725 1.719,-1.331 4,-1.47l0,-5.082c-2.413,-0.249 -4.659,-1.395 -6.28,-3.232c-1.843,-2.088 -2.701,-4.867 -2.356,-7.63l0.636,-5.086Z" style="fill:none;stroke:#000;stroke-width:4px;"/></g><g id="emoji"><ellipse cx="16" cy="28.5" rx="5" ry="1.5" style="fill:#fff;"/><path d="M15,28.463l0,-11.5l2,0l0,11.5c0,0.166 -0.448,0.3 -1,0.3c-0.552,0 -1,-0.134 -1,-0.3l0,0Z" style="fill:#ccc;"/><path d="M7,6c0,0 -0.283,2.262 -0.636,5.086c-0.345,2.763 0.513,5.542 2.356,7.63c1.843,2.088 4.494,3.284 7.279,3.284c0.001,0 0.001,0 0.002,0c2.785,0 5.436,-1.196 7.279,-3.284c1.843,-2.088 2.701,-4.867 2.356,-7.63c-0.353,-2.824 -0.636,-5.086 -0.636,-5.086l-18,0Z" style="fill:#fff;"/><path d="M24,6l-16,0c0,0 -0.306,2.295 -0.678,5.089c-0.334,2.501 0.428,5.025 2.09,6.923c1.663,1.899 4.063,2.988 6.587,2.988c0.001,0 0.001,0 0.002,0c2.524,0 4.925,-1.089 6.587,-2.988c1.662,-1.898 2.424,-4.422 2.091,-6.923c-0.373,-2.794 -0.679,-5.089 -0.679,-5.089Z" style="fill:#d9d9d9;"/><clipPath id="_clip2"><path d="M24,6l-16,0c0,0 -0.306,2.295 -0.678,5.089c-0.334,2.501 0.428,5.025 2.09,6.923c1.663,1.899 4.063,2.988 6.587,2.988c0.001,0 0.001,0 0.002,0c2.524,0 4.925,-1.089 6.587,-2.988c1.662,-1.898 2.424,-4.422 2.091,-6.923c-0.373,-2.794 -0.679,-5.089 -0.679,-5.089Z"/></clipPath><g clip-path="url(#_clip2)"><g><rect x="6" y="9" width="20" height="6" style="fill:#e33152;"/><path d="M29.265,9.956l0,11.811l-25.992,0l0,-11.811l3.076,0l-0.008,0.152c0,2.37 4.328,4.294 9.659,4.294c5.331,0 9.66,-1.924 9.66,-4.294l-0.009,-0.152l3.614,0Z" style="fill:#b72a44;"/><path d="M10,8c0,0 -0.007,0.019 -0.021,0.056c-1.814,4.838 -0.633,10.29 3.02,13.943c0.001,0.001 0.001,0.001 0.001,0.001l3,0c0,0 0,0 0,-0.001c-2.538,-3.806 -3.276,-8.534 -2.019,-12.932c0.012,-0.044 0.019,-0.067 0.019,-0.067l-4,-1Z" style="fill:#fff;fill-opacity:0.247059;"/></g></g><ellipse cx="16" cy="6" rx="8.477" ry="3.414" style="fill:#d9d9d9;"/><ellipse cx="16" cy="9" rx="8.374" ry="3" style="fill:#e33152;"/><clipPath id="_clip3"><ellipse cx="16" cy="9" rx="8.374" ry="3"/></clipPath><g clip-path="url(#_clip3)"><path d="M10,8c0,0 -0.007,0.019 -0.021,0.056c-1.814,4.838 -0.633,10.29 3.02,13.943c0.001,0.001 0.001,0.001 0.001,0.001l3,0c0,0 0,0 0,-0.001c-2.538,-3.806 -3.276,-8.534 -2.019,-12.932c0.012,-0.044 0.019,-0.067 0.019,-0.067l-4,-1Z" style="fill:#fff;fill-opacity:0.247059;"/></g><path d="M16.232,2.001l0.231,0.004l0.229,0.007l0.228,0.009l0.226,0.011l0.224,0.014l0.222,0.017l0.221,0.018l0.218,0.022l0.217,0.023l0.215,0.026l0.212,0.028l0.21,0.03l0.208,0.033l0.206,0.035l0.203,0.037l0.2,0.039l0.198,0.041l0.196,0.043l0.192,0.045l0.19,0.047l0.187,0.049l0.184,0.052l0.182,0.053l0.178,0.054l0.174,0.057l0.172,0.059l0.168,0.06l0.165,0.062l0.162,0.064l0.158,0.065l0.155,0.067l0.151,0.069l0.074,0.035l0.073,0.035l0.072,0.036l0.071,0.036l0.07,0.036l0.07,0.037l0.068,0.037l0.067,0.038l0.067,0.038l0.065,0.038l0.064,0.039l0.064,0.039l0.062,0.039l0.061,0.04l0.06,0.04l0.059,0.041l0.058,0.04l0.057,0.042l0.056,0.041l0.055,0.042l0.054,0.042l0.052,0.042l0.051,0.043l0.051,0.043l0.049,0.043l0.048,0.043l0.047,0.044l0.045,0.044l0.045,0.045l0.043,0.045l0.042,0.045l0.041,0.045l0.04,0.045l0.039,0.046l0.037,0.046l0.036,0.047l0.035,0.046l0.033,0.047l0.032,0.047l0.031,0.047l0.03,0.048l0.028,0.048l0.028,0.048l0.025,0.048l0.025,0.049l0.023,0.048l0.022,0.049l0.02,0.049l0.019,0.05l0.018,0.049l0.017,0.05l0.015,0.05l0.013,0.05l0.012,0.05l0.011,0.051l0.01,0.05l0.008,0.051l0.006,0.051l0.005,0.051l0.004,0.052l0.002,0.051l0.001,0.052l-0.001,0.052l-0.002,0.051l-0.004,0.052l-0.005,0.051l-0.006,0.051l-0.008,0.051l-0.01,0.05l-0.011,0.051l-0.012,0.05l-0.013,0.05l-0.015,0.05l-0.017,0.05l-0.018,0.049l-0.019,0.05l-0.02,0.049l-0.022,0.049l-0.023,0.048l-0.025,0.049l-0.025,0.048l-0.028,0.048l-0.028,0.048l-0.03,0.048l-0.031,0.047l-0.032,0.047l-0.033,0.047l-0.035,0.046l-0.036,0.047l-0.037,0.046l-0.039,0.046l-0.04,0.045l-0.041,0.045l-0.042,0.045l-0.043,0.045l-0.045,0.045l-0.045,0.044l-0.047,0.044l-0.048,0.043l-0.049,0.043l-0.051,0.043l-0.051,0.043l-0.052,0.042l-0.054,0.042l-0.055,0.042l-0.056,0.041l-0.057,0.042l-0.058,0.04l-0.059,0.041l-0.06,0.04l-0.061,0.04l-0.062,0.039l-0.064,0.039l-0.064,0.039l-0.065,0.038l-0.067,0.038l-0.067,0.038l-0.068,0.037l-0.07,0.037l-0.07,0.036l-0.071,0.036l-0.072,0.036l-0.073,0.035l-0.074,0.035l-0.151,0.069l-0.155,0.067l-0.158,0.065l-0.162,0.064l-0.165,0.062l-0.168,0.06l-0.172,0.059l-0.174,0.057l-0.178,0.054l-0.182,0.053l-0.184,0.052l-0.187,0.049l-0.19,0.047l-0.192,0.045l-0.196,0.043l-0.198,0.041l-0.2,0.039l-0.203,0.037l-0.206,0.035l-0.208,0.033l-0.21,0.03l-0.212,0.028l-0.215,0.026l-0.217,0.023l-0.218,0.022l-0.221,0.018l-0.222,0.017l-0.224,0.014l-0.226,0.011l-0.228,0.009l-0.229,0.007l-0.231,0.004l-0.232,0.001l-0.232,-0.001l-0.231,-0.004l-0.229,-0.007l-0.228,-0.009l-0.226,-0.011l-0.224,-0.014l-0.222,-0.017l-0.221,-0.018l-0.218,-0.022l-0.217,-0.023l-0.215,-0.026l-0.212,-0.028l-0.21,-0.03l-0.208,-0.033l-0.206,-0.035l-0.203,-0.037l-0.2,-0.039l-0.198,-0.041l-0.196,-0.043l-0.192,-0.045l-0.19,-0.047l-0.187,-0.049l-0.184,-0.052l-0.182,-0.053l-0.178,-0.054l-0.174,-0.057l-0.172,-0.059l-0.168,-0.06l-0.165,-0.062l-0.162,-0.064l-0.158,-0.065l-0.155,-0.067l-0.151,-0.069l-0.074,-0.035l-0.073,-0.035l-0.072,-0.036l-0.071,-0.036l-0.07,-0.036l-0.07,-0.037l-0.068,-0.037l-0.067,-0.038l-0.067,-0.038l-0.065,-0.038l-0.064,-0.039l-0.064,-0.039l-0.062,-0.039l-0.061,-0.04l-0.06,-0.04l-0.059,-0.041l-0.058,-0.04l-0.057,-0.042l-0.056,-0.041l-0.055,-0.042l-0.054,-0.042l-0.052,-0.042l-0.051,-0.043l-0.051,-0.043l-0.049,-0.043l-0.048,-0.043l-0.047,-0.044l-0.045,-0.044l-0.045,-0.045l-0.043,-0.045l-0.042,-0.045l-0.041,-0.045l-0.04,-0.045l-0.039,-0.046l-0.037,-0.046l-0.036,-0.047l-0.035,-0.046l-0.033,-0.047l-0.032,-0.047l-0.031,-0.047l-0.03,-0.048l-0.028,-0.048l-0.028,-0.048l-0.025,-0.048l-0.025,-0.049l-0.023,-0.048l-0.022,-0.049l-0.02,-0.049l-0.019,-0.05l-0.018,-0.049l-0.017,-0.05l-0.015,-0.05l-0.013,-0.05l-0.012,-0.05l-0.011,-0.051l-0.01,-0.05l-0.008,-0.051l-0.006,-0.051l-0.005,-0.051l-0.004,-0.052l-0.002,-0.051l-0.001,-0.052l0.001,-0.052l0.002,-0.051l0.004,-0.052l0.005,-0.051l0.006,-0.051l0.008,-0.051l0.01,-0.05l0.011,-0.051l0.012,-0.05l0.013,-0.05l0.015,-0.05l0.017,-0.05l0.018,-0.049l0.019,-0.05l0.02,-0.049l0.022,-0.049l0.023,-0.048l0.025,-0.049l0.025,-0.048l0.028,-0.048l0.028,-0.048l0.03,-0.048l0.031,-0.047l0.032,-0.047l0.033,-0.047l0.035,-0.046l0.036,-0.047l0.037,-0.046l0.039,-0.046l0.04,-0.045l0.041,-0.045l0.042,-0.045l0.043,-0.045l0.045,-0.045l0.045,-0.044l0.047,-0.044l0.048,-0.043l0.049,-0.043l0.051,-0.043l0.051,-0.043l0.052,-0.042l0.054,-0.042l0.055,-0.042l0.056,-0.041l0.057,-0.042l0.058,-0.04l0.059,-0.041l0.06,-0.04l0.061,-0.04l0.062,-0.039l0.064,-0.039l0.064,-0.039l0.065,-0.038l0.067,-0.038l0.067,-0.038l0.068,-0.037l0.07,-0.037l0.07,-0.036l0.071,-0.036l0.072,-0.036l0.073,-0.035l0.074,-0.035l0.151,-0.069l0.155,-0.067l0.158,-0.065l0.162,-0.064l0.165,-0.062l0.168,-0.06l0.172,-0.059l0.174,-0.057l0.178,-0.054l0.182,-0.053l0.184,-0.052l0.187,-0.049l0.19,-0.047l0.192,-0.045l0.196,-0.043l0.198,-0.041l0.2,-0.039l0.203,-0.037l0.206,-0.035l0.208,-0.033l0.21,-0.03l0.212,-0.028l0.215,-0.026l0.217,-0.023l0.218,-0.022l0.221,-0.018l0.222,-0.017l0.224,-0.014l0.226,-0.011l0.228,-0.009l0.229,-0.007l0.231,-0.004l0.232,-0.001l0.232,0.001Zm-0.453,1l-0.219,0.004l-0.218,0.006l-0.217,0.009l-0.214,0.011l-0.213,0.013l-0.211,0.015l-0.209,0.018l-0.207,0.02l-0.205,0.023l-0.203,0.024l-0.201,0.027l-0.198,0.028l-0.196,0.031l-0.194,0.033l-0.191,0.034l-0.188,0.037l-0.186,0.039l-0.183,0.04l-0.18,0.042l-0.177,0.044l-0.173,0.046l-0.171,0.047l-0.168,0.049l-0.164,0.051l-0.161,0.052l-0.157,0.054l-0.154,0.055l-0.15,0.056l-0.146,0.058l-0.143,0.059l-0.138,0.06l-0.137,0.062l-0.064,0.03l-0.065,0.031l-0.063,0.032l-0.063,0.032l-0.061,0.032l-0.061,0.032l-0.059,0.032l-0.058,0.033l-0.057,0.032l-0.056,0.033l-0.055,0.033l-0.054,0.033l-0.052,0.033l-0.052,0.034l-0.05,0.033l-0.049,0.034l-0.047,0.033l-0.047,0.034l-0.045,0.033l-0.044,0.034l-0.043,0.034l-0.042,0.033l-0.04,0.034l-0.04,0.033l-0.037,0.033l-0.037,0.034l-0.035,0.033l-0.035,0.033l-0.032,0.033l-0.032,0.032l-0.03,0.033l-0.029,0.032l-0.028,0.032l-0.027,0.031l-0.025,0.032l-0.024,0.031l-0.023,0.03l-0.022,0.031l-0.02,0.03l-0.02,0.029l-0.018,0.029l-0.017,0.029l-0.016,0.029l-0.015,0.027l-0.014,0.028l-0.013,0.027l-0.012,0.026l-0.011,0.027l-0.009,0.025l-0.01,0.026l-0.008,0.025l-0.007,0.024l-0.007,0.024l-0.006,0.024l-0.005,0.024l-0.004,0.023l-0.004,0.024l-0.003,0.023l-0.002,0.023l-0.002,0.023l-0.001,0.023l0,0.023l0,0.023l0.001,0.023l0.002,0.023l0.002,0.023l0.003,0.023l0.004,0.024l0.004,0.023l0.005,0.024l0.006,0.024l0.007,0.024l0.007,0.024l0.008,0.025l0.01,0.026l0.009,0.025l0.011,0.027l0.012,0.026l0.013,0.027l0.014,0.028l0.015,0.027l0.016,0.029l0.017,0.029l0.018,0.029l0.02,0.029l0.02,0.03l0.022,0.031l0.023,0.03l0.024,0.031l0.025,0.032l0.027,0.031l0.028,0.032l0.029,0.032l0.03,0.033l0.032,0.032l0.032,0.033l0.035,0.033l0.035,0.033l0.037,0.034l0.037,0.033l0.04,0.033l0.04,0.034l0.042,0.033l0.043,0.034l0.044,0.034l0.045,0.033l0.047,0.034l0.047,0.033l0.049,0.034l0.05,0.033l0.052,0.034l0.052,0.033l0.054,0.033l0.055,0.033l0.056,0.033l0.057,0.032l0.058,0.033l0.059,0.032l0.061,0.032l0.061,0.032l0.063,0.032l0.063,0.032l0.065,0.031l0.064,0.03l0.137,0.062l0.138,0.06l0.143,0.059l0.146,0.058l0.15,0.056l0.154,0.055l0.157,0.054l0.161,0.052l0.164,0.051l0.168,0.049l0.171,0.047l0.173,0.046l0.177,0.044l0.18,0.042l0.183,0.04l0.186,0.039l0.188,0.037l0.191,0.034l0.194,0.033l0.196,0.031l0.198,0.028l0.201,0.027l0.203,0.024l0.205,0.023l0.207,0.02l0.209,0.018l0.211,0.015l0.213,0.013l0.214,0.011l0.217,0.009l0.218,0.006l0.219,0.004l0.221,0.001l0.221,-0.001l0.219,-0.004l0.218,-0.006l0.217,-0.009l0.214,-0.011l0.213,-0.013l0.211,-0.015l0.209,-0.018l0.207,-0.02l0.205,-0.023l0.203,-0.024l0.201,-0.027l0.198,-0.028l0.196,-0.031l0.194,-0.033l0.191,-0.034l0.188,-0.037l0.186,-0.039l0.183,-0.04l0.18,-0.042l0.177,-0.044l0.173,-0.046l0.171,-0.047l0.168,-0.049l0.164,-0.051l0.161,-0.052l0.157,-0.054l0.154,-0.055l0.15,-0.056l0.146,-0.058l0.143,-0.059l0.139,-0.06l0.136,-0.062l0.064,-0.03l0.065,-0.031l0.063,-0.032l0.063,-0.032l0.061,-0.032l0.061,-0.032l0.059,-0.032l0.058,-0.033l0.057,-0.032l0.056,-0.033l0.055,-0.033l0.054,-0.033l0.052,-0.033l0.052,-0.034l0.05,-0.033l0.049,-0.034l0.047,-0.033l0.047,-0.034l0.045,-0.033l0.044,-0.034l0.043,-0.034l0.042,-0.033l0.04,-0.034l0.04,-0.033l0.037,-0.033l0.037,-0.034l0.035,-0.033l0.035,-0.033l0.032,-0.033l0.032,-0.032l0.03,-0.033l0.029,-0.032l0.028,-0.032l0.027,-0.031l0.025,-0.032l0.024,-0.031l0.023,-0.03l0.022,-0.031l0.02,-0.03l0.02,-0.029l0.018,-0.029l0.017,-0.029l0.016,-0.029l0.015,-0.027l0.014,-0.028l0.013,-0.027l0.012,-0.026l0.011,-0.027l0.009,-0.025l0.01,-0.026l0.008,-0.025l0.007,-0.024l0.007,-0.024l0.006,-0.024l0.005,-0.024l0.004,-0.023l0.004,-0.024l0.003,-0.023l0.002,-0.023l0.002,-0.023l0.001,-0.023l0,-0.023l0,-0.023l-0.001,-0.023l-0.002,-0.023l-0.002,-0.023l-0.003,-0.023l-0.004,-0.024l-0.004,-0.023l-0.005,-0.024l-0.006,-0.024l-0.007,-0.024l-0.007,-0.025l-0.008,-0.024l-0.009,-0.026l-0.01,-0.025l-0.011,-0.027l-0.012,-0.026l-0.013,-0.027l-0.014,-0.028l-0.015,-0.027l-0.016,-0.029l-0.017,-0.029l-0.018,-0.029l-0.02,-0.029l-0.02,-0.03l-0.022,-0.031l-0.023,-0.03l-0.024,-0.031l-0.025,-0.032l-0.027,-0.031l-0.028,-0.032l-0.029,-0.032l-0.03,-0.033l-0.032,-0.032l-0.032,-0.033l-0.035,-0.033l-0.035,-0.033l-0.037,-0.034l-0.037,-0.033l-0.04,-0.033l-0.04,-0.034l-0.042,-0.033l-0.043,-0.034l-0.044,-0.034l-0.045,-0.033l-0.047,-0.034l-0.047,-0.033l-0.049,-0.034l-0.05,-0.033l-0.052,-0.034l-0.052,-0.033l-0.054,-0.033l-0.055,-0.033l-0.056,-0.033l-0.057,-0.032l-0.058,-0.033l-0.059,-0.032l-0.061,-0.032l-0.061,-0.032l-0.063,-0.032l-0.063,-0.032l-0.065,-0.031l-0.064,-0.03l-0.137,-0.062l-0.138,-0.06l-0.143,-0.059l-0.146,-0.058l-0.15,-0.056l-0.154,-0.055l-0.157,-0.054l-0.161,-0.052l-0.164,-0.051l-0.168,-0.049l-0.171,-0.047l-0.173,-0.046l-0.177,-0.044l-0.18,-0.042l-0.183,-0.04l-0.186,-0.039l-0.188,-0.037l-0.191,-0.034l-0.194,-0.033l-0.196,-0.031l-0.198,-0.028l-0.201,-0.027l-0.203,-0.024l-0.205,-0.023l-0.207,-0.02l-0.209,-0.018l-0.211,-0.015l-0.213,-0.013l-0.214,-0.011l-0.217,-0.009l-0.218,-0.006l-0.219,-0.004l-0.221,-0.001l-0.221,0.001Z" style="fill:#fff;"/></g></g></svg>