<?xml version="1.0" encoding="UTF-8" standalone="no"?><!DOCTYPE svg PUBLIC "-//W3C//DTD SVG 1.1//EN" "http://www.w3.org/Graphics/SVG/1.1/DTD/svg11.dtd"><svg width="100%" height="100%" viewBox="0 0 32 32" version="1.1" xmlns="http://www.w3.org/2000/svg" xmlns:xlink="http://www.w3.org/1999/xlink" xml:space="preserve" xmlns:serif="http://www.serif.com/" style="fill-rule:evenodd;clip-rule:evenodd;stroke-linecap:round;stroke-miterlimit:1.5;"><rect id="confounded" x="0" y="0" width="32" height="32" style="fill:none;"/><clipPath id="_clip1"><rect x="0" y="0" width="32" height="32"/></clipPath><g clip-path="url(#_clip1)"><g id="outline"><path d="M16.206,2.001l0.206,0.004l0.205,0.007l0.205,0.009l0.204,0.011l0.203,0.015l0.203,0.016l0.201,0.019l0.202,0.022l0.2,0.024l0.2,0.027l0.199,0.029l0.198,0.032l0.198,0.034l0.197,0.036l0.195,0.039l0.195,0.041l0.195,0.044l0.193,0.046l0.192,0.048l0.192,0.05l0.19,0.053l0.19,0.055l0.188,0.058l0.188,0.059l0.186,0.062l0.186,0.064l0.184,0.066l0.184,0.069l0.182,0.07l0.181,0.073l0.181,0.075l0.179,0.077l0.177,0.079l0.177,0.081l0.176,0.084l0.174,0.085l0.173,0.087l0.172,0.09l0.171,0.091l0.169,0.094l0.169,0.095l0.166,0.097l0.166,0.1l0.164,0.101l0.163,0.103l0.162,0.105l0.16,0.107l0.159,0.108l0.158,0.111l0.156,0.112l0.154,0.115l0.153,0.116l0.152,0.117l0.151,0.12l0.148,0.121l0.148,0.123l0.145,0.125l0.145,0.127l0.142,0.128l0.142,0.13l0.139,0.131l0.138,0.134l0.137,0.134l0.135,0.137l0.133,0.138l0.131,0.139l0.13,0.142l0.128,0.142l0.127,0.145l0.125,0.145l0.123,0.148l0.121,0.148l0.12,0.151l0.117,0.152l0.116,0.153l0.115,0.154l0.112,0.156l0.111,0.158l0.108,0.159l0.107,0.16l0.105,0.162l0.103,0.163l0.101,0.164l0.1,0.166l0.097,0.166l0.095,0.169l0.094,0.169l0.091,0.171l0.09,0.172l0.087,0.173l0.085,0.174l0.084,0.176l0.081,0.176l0.079,0.178l0.077,0.179l0.075,0.181l0.073,0.181l0.07,0.182l0.069,0.184l0.066,0.184l0.064,0.186l0.062,0.186l0.059,0.188l0.058,0.188l0.055,0.19l0.053,0.19l0.05,0.192l0.048,0.192l0.046,0.193l0.044,0.195l0.041,0.195l0.039,0.195l0.036,0.197l0.034,0.198l0.032,0.198l0.029,0.199l0.027,0.2l0.024,0.2l0.022,0.201l0.019,0.202l0.016,0.203l0.015,0.203l0.011,0.204l0.009,0.205l0.007,0.205l0.004,0.206l0.001,0.2l0,0.514l-0.001,0.155l-0.003,0.161l-0.005,0.16l-0.007,0.16l-0.009,0.159l-0.011,0.158l-0.013,0.159l-0.015,0.157l-0.017,0.158l-0.019,0.156l-0.021,0.156l-0.023,0.156l-0.025,0.155l-0.026,0.154l-0.029,0.154l-0.03,0.153l-0.032,0.152l-0.034,0.152l-0.036,0.151l-0.038,0.15l-0.039,0.15l-0.041,0.148l-0.043,0.148l-0.045,0.148l-0.047,0.146l-0.048,0.146l-0.05,0.145l-0.052,0.144l-0.053,0.143l-0.056,0.143l-0.056,0.142l-0.059,0.14l-0.06,0.14l-0.062,0.139l-0.063,0.138l-0.065,0.137l-0.067,0.137l-0.068,0.135l-0.07,0.134l-0.072,0.134l-0.073,0.132l-0.074,0.131l-0.076,0.131l-0.078,0.129l-0.079,0.128l-0.08,0.128l-0.082,0.126l-0.084,0.125l-0.085,0.124l-0.086,0.123l-0.088,0.122l-0.089,0.121l-0.091,0.12l-0.091,0.118l-0.094,0.118l-0.095,0.116l-0.096,0.115l-0.097,0.114l-0.099,0.112l-0.1,0.112l-0.102,0.11l-0.102,0.109l-0.104,0.108l-0.106,0.106l-0.106,0.106l-0.108,0.104l-0.109,0.102l-0.11,0.102l-0.112,0.1l-0.112,0.099l-0.114,0.097l-0.115,0.096l-0.116,0.095l-0.118,0.093l-0.118,0.093l-0.12,0.09l-0.121,0.089l-0.122,0.088l-0.123,0.086l-0.124,0.085l-0.125,0.084l-0.126,0.082l-0.128,0.08l-0.128,0.079l-0.129,0.078l-0.131,0.076l-0.131,0.074l-0.132,0.073l-0.134,0.072l-0.134,0.07l-0.135,0.068l-0.136,0.067l-0.138,0.065l-0.138,0.063l-0.139,0.062l-0.14,0.06l-0.14,0.059l-0.142,0.056l-0.142,0.056l-0.144,0.053l-0.144,0.052l-0.145,0.05l-0.146,0.048l-0.146,0.047l-0.148,0.045l-0.148,0.043l-0.149,0.041l-0.149,0.039l-0.15,0.038l-0.151,0.036l-0.152,0.034l-0.152,0.032l-0.153,0.03l-0.154,0.029l-0.154,0.026l-0.155,0.025l-0.156,0.023l-0.156,0.021l-0.156,0.019l-0.158,0.017l-0.157,0.015l-0.158,0.013l-0.159,0.011l-0.16,0.009l-0.159,0.007l-0.16,0.005l-0.161,0.003l-0.155,0.001l-7.016,0l-0.155,-0.001l-0.161,-0.003l-0.16,-0.005l-0.159,-0.007l-0.16,-0.009l-0.159,-0.011l-0.158,-0.013l-0.157,-0.015l-0.158,-0.017l-0.156,-0.019l-0.156,-0.021l-0.156,-0.023l-0.155,-0.025l-0.154,-0.026l-0.154,-0.029l-0.153,-0.03l-0.152,-0.032l-0.152,-0.034l-0.151,-0.036l-0.15,-0.038l-0.149,-0.039l-0.149,-0.041l-0.148,-0.043l-0.148,-0.045l-0.146,-0.047l-0.146,-0.048l-0.145,-0.05l-0.144,-0.052l-0.144,-0.053l-0.142,-0.056l-0.142,-0.056l-0.14,-0.059l-0.14,-0.06l-0.139,-0.062l-0.138,-0.063l-0.138,-0.065l-0.136,-0.067l-0.135,-0.068l-0.134,-0.07l-0.134,-0.072l-0.132,-0.073l-0.131,-0.074l-0.131,-0.076l-0.129,-0.078l-0.128,-0.079l-0.128,-0.08l-0.126,-0.082l-0.125,-0.084l-0.124,-0.085l-0.123,-0.086l-0.122,-0.088l-0.121,-0.089l-0.12,-0.09l-0.118,-0.093l-0.118,-0.093l-0.116,-0.095l-0.115,-0.096l-0.114,-0.097l-0.112,-0.099l-0.112,-0.1l-0.11,-0.102l-0.109,-0.102l-0.108,-0.104l-0.106,-0.106l-0.106,-0.106l-0.104,-0.108l-0.102,-0.109l-0.102,-0.11l-0.1,-0.112l-0.099,-0.112l-0.097,-0.114l-0.096,-0.115l-0.095,-0.116l-0.094,-0.118l-0.091,-0.118l-0.091,-0.12l-0.089,-0.121l-0.088,-0.122l-0.086,-0.123l-0.085,-0.124l-0.084,-0.125l-0.082,-0.126l-0.08,-0.128l-0.079,-0.128l-0.078,-0.129l-0.076,-0.131l-0.074,-0.131l-0.073,-0.132l-0.072,-0.134l-0.07,-0.134l-0.068,-0.135l-0.067,-0.137l-0.065,-0.137l-0.063,-0.138l-0.062,-0.139l-0.06,-0.14l-0.059,-0.14l-0.056,-0.142l-0.056,-0.143l-0.053,-0.143l-0.052,-0.144l-0.05,-0.145l-0.048,-0.146l-0.047,-0.146l-0.045,-0.148l-0.043,-0.148l-0.041,-0.148l-0.039,-0.15l-0.038,-0.15l-0.036,-0.151l-0.034,-0.152l-0.032,-0.152l-0.03,-0.153l-0.029,-0.154l-0.026,-0.154l-0.025,-0.155l-0.023,-0.156l-0.021,-0.156l-0.019,-0.156l-0.017,-0.158l-0.015,-0.157l-0.013,-0.159l-0.011,-0.158l-0.009,-0.159l-0.007,-0.16l-0.005,-0.16l-0.003,-0.161l-0.001,-0.155l0,-0.514l0.001,-0.2l0.004,-0.206l0.007,-0.205l0.009,-0.205l0.011,-0.204l0.015,-0.203l0.016,-0.203l0.019,-0.202l0.022,-0.201l0.024,-0.2l0.027,-0.2l0.029,-0.199l0.032,-0.198l0.034,-0.198l0.036,-0.197l0.039,-0.195l0.041,-0.195l0.044,-0.195l0.046,-0.193l0.048,-0.192l0.05,-0.192l0.053,-0.19l0.055,-0.19l0.058,-0.188l0.059,-0.188l0.062,-0.186l0.064,-0.186l0.066,-0.184l0.069,-0.184l0.07,-0.182l0.073,-0.181l0.075,-0.181l0.077,-0.179l0.079,-0.177l0.081,-0.177l0.084,-0.176l0.085,-0.174l0.087,-0.173l0.09,-0.172l0.091,-0.171l0.094,-0.169l0.095,-0.169l0.097,-0.166l0.1,-0.166l0.101,-0.164l0.103,-0.163l0.105,-0.162l0.107,-0.16l0.108,-0.159l0.111,-0.158l0.112,-0.156l0.115,-0.154l0.116,-0.153l0.117,-0.152l0.12,-0.151l0.121,-0.148l0.123,-0.148l0.125,-0.145l0.127,-0.145l0.128,-0.142l0.13,-0.142l0.131,-0.139l0.133,-0.138l0.135,-0.137l0.137,-0.135l0.138,-0.133l0.139,-0.131l0.142,-0.13l0.142,-0.128l0.145,-0.127l0.145,-0.125l0.148,-0.123l0.148,-0.121l0.151,-0.12l0.152,-0.117l0.153,-0.116l0.154,-0.115l0.156,-0.112l0.158,-0.111l0.159,-0.108l0.16,-0.107l0.162,-0.105l0.163,-0.103l0.164,-0.101l0.166,-0.1l0.167,-0.097l0.168,-0.095l0.169,-0.094l0.171,-0.091l0.172,-0.09l0.173,-0.087l0.174,-0.085l0.176,-0.084l0.177,-0.081l0.177,-0.079l0.179,-0.077l0.181,-0.075l0.181,-0.073l0.182,-0.07l0.184,-0.069l0.184,-0.066l0.186,-0.064l0.186,-0.062l0.188,-0.059l0.188,-0.058l0.19,-0.055l0.19,-0.053l0.192,-0.05l0.192,-0.048l0.193,-0.046l0.195,-0.044l0.195,-0.041l0.195,-0.039l0.197,-0.036l0.198,-0.034l0.198,-0.032l0.199,-0.029l0.2,-0.027l0.2,-0.024l0.202,-0.022l0.201,-0.019l0.203,-0.016l0.203,-0.015l0.204,-0.011l0.205,-0.009l0.205,-0.007l0.206,-0.004l0.206,-0.001l0.206,0.001Zm-0.362,4l-0.155,0.003l-0.154,0.005l-0.154,0.007l-0.154,0.008l-0.152,0.011l-0.153,0.013l-0.151,0.014l-0.151,0.016l-0.151,0.019l-0.15,0.02l-0.149,0.021l-0.149,0.024l-0.148,0.026l-0.147,0.027l-0.147,0.029l-0.146,0.031l-0.145,0.032l-0.145,0.035l-0.143,0.036l-0.144,0.038l-0.142,0.039l-0.142,0.041l-0.141,0.043l-0.141,0.045l-0.139,0.046l-0.139,0.048l-0.138,0.05l-0.137,0.051l-0.137,0.053l-0.135,0.054l-0.135,0.056l-0.134,0.058l-0.134,0.059l-0.132,0.061l-0.131,0.062l-0.131,0.064l-0.13,0.066l-0.129,0.067l-0.127,0.068l-0.128,0.07l-0.126,0.072l-0.125,0.073l-0.124,0.074l-0.123,0.076l-0.122,0.077l-0.122,0.079l-0.12,0.08l-0.119,0.082l-0.118,0.083l-0.117,0.084l-0.117,0.086l-0.115,0.087l-0.114,0.089l-0.112,0.089l-0.112,0.091l-0.111,0.093l-0.109,0.094l-0.109,0.095l-0.107,0.096l-0.106,0.098l-0.105,0.098l-0.104,0.1l-0.102,0.102l-0.102,0.102l-0.1,0.104l-0.098,0.105l-0.098,0.106l-0.096,0.107l-0.095,0.109l-0.094,0.109l-0.093,0.111l-0.091,0.112l-0.089,0.112l-0.089,0.114l-0.087,0.115l-0.086,0.116l-0.084,0.118l-0.083,0.118l-0.082,0.119l-0.08,0.12l-0.079,0.122l-0.077,0.122l-0.076,0.123l-0.074,0.124l-0.073,0.125l-0.072,0.126l-0.07,0.127l-0.068,0.128l-0.067,0.129l-0.066,0.13l-0.064,0.131l-0.062,0.131l-0.061,0.132l-0.059,0.134l-0.058,0.134l-0.056,0.135l-0.054,0.135l-0.053,0.137l-0.051,0.137l-0.05,0.138l-0.048,0.139l-0.046,0.14l-0.045,0.14l-0.043,0.141l-0.041,0.142l-0.039,0.142l-0.038,0.144l-0.036,0.143l-0.035,0.145l-0.032,0.145l-0.031,0.146l-0.029,0.147l-0.027,0.147l-0.026,0.148l-0.024,0.149l-0.021,0.149l-0.02,0.15l-0.019,0.151l-0.016,0.151l-0.014,0.151l-0.013,0.153l-0.011,0.152l-0.008,0.154l-0.007,0.154l-0.005,0.154l-0.003,0.155l-0.001,0.162l0,0.49l0.001,0.116l0.002,0.11l0.003,0.11l0.005,0.109l0.006,0.109l0.008,0.108l0.009,0.108l0.01,0.107l0.012,0.107l0.012,0.107l0.015,0.106l0.015,0.106l0.017,0.105l0.018,0.105l0.019,0.104l0.021,0.104l0.022,0.103l0.023,0.103l0.024,0.102l0.025,0.102l0.027,0.102l0.028,0.101l0.029,0.1l0.031,0.1l0.031,0.099l0.033,0.099l0.034,0.098l0.035,0.098l0.036,0.097l0.038,0.097l0.038,0.096l0.04,0.095l0.041,0.095l0.042,0.094l0.043,0.094l0.044,0.093l0.045,0.093l0.047,0.091l0.047,0.092l0.048,0.09l0.05,0.09l0.051,0.09l0.051,0.088l0.053,0.088l0.054,0.087l0.055,0.087l0.055,0.086l0.057,0.085l0.058,0.084l0.059,0.084l0.06,0.083l0.06,0.082l0.062,0.082l0.063,0.081l0.063,0.079l0.065,0.08l0.065,0.078l0.067,0.078l0.067,0.076l0.068,0.076l0.069,0.076l0.07,0.074l0.071,0.073l0.072,0.073l0.073,0.072l0.073,0.071l0.074,0.07l0.076,0.069l0.076,0.068l0.076,0.067l0.078,0.067l0.078,0.065l0.08,0.065l0.079,0.063l0.081,0.063l0.082,0.062l0.082,0.06l0.083,0.06l0.084,0.059l0.084,0.058l0.085,0.057l0.086,0.055l0.087,0.055l0.087,0.054l0.088,0.053l0.089,0.051l0.089,0.051l0.09,0.049l0.09,0.049l0.092,0.047l0.091,0.047l0.093,0.045l0.093,0.044l0.094,0.043l0.094,0.042l0.095,0.041l0.095,0.04l0.096,0.038l0.097,0.038l0.097,0.036l0.098,0.035l0.098,0.034l0.099,0.033l0.099,0.031l0.1,0.031l0.1,0.029l0.101,0.028l0.102,0.027l0.102,0.025l0.102,0.024l0.103,0.023l0.103,0.022l0.104,0.021l0.104,0.019l0.105,0.018l0.105,0.017l0.106,0.015l0.106,0.015l0.107,0.012l0.107,0.012l0.107,0.01l0.108,0.009l0.108,0.008l0.109,0.006l0.109,0.005l0.11,0.003l0.11,0.002l0.116,0.001l6.992,0l0.116,-0.001l0.11,-0.002l0.11,-0.003l0.109,-0.005l0.109,-0.006l0.108,-0.008l0.108,-0.009l0.107,-0.01l0.107,-0.012l0.107,-0.012l0.106,-0.015l0.106,-0.015l0.105,-0.017l0.105,-0.018l0.104,-0.019l0.104,-0.021l0.103,-0.022l0.103,-0.023l0.102,-0.024l0.102,-0.025l0.102,-0.027l0.101,-0.028l0.1,-0.029l0.1,-0.031l0.099,-0.031l0.099,-0.033l0.098,-0.034l0.098,-0.035l0.097,-0.036l0.097,-0.038l0.096,-0.038l0.095,-0.04l0.095,-0.041l0.094,-0.042l0.094,-0.043l0.093,-0.044l0.093,-0.045l0.091,-0.047l0.092,-0.047l0.09,-0.049l0.09,-0.049l0.089,-0.051l0.089,-0.051l0.088,-0.053l0.087,-0.054l0.087,-0.055l0.086,-0.055l0.085,-0.057l0.084,-0.058l0.084,-0.059l0.083,-0.06l0.082,-0.06l0.082,-0.062l0.081,-0.063l0.079,-0.063l0.08,-0.065l0.078,-0.065l0.078,-0.067l0.076,-0.067l0.076,-0.068l0.076,-0.069l0.074,-0.07l0.073,-0.071l0.073,-0.072l0.072,-0.073l0.071,-0.073l0.07,-0.074l0.069,-0.076l0.068,-0.076l0.067,-0.076l0.067,-0.078l0.065,-0.078l0.065,-0.08l0.063,-0.079l0.063,-0.081l0.062,-0.082l0.06,-0.082l0.06,-0.083l0.059,-0.084l0.058,-0.084l0.057,-0.085l0.055,-0.086l0.055,-0.087l0.054,-0.087l0.053,-0.088l0.051,-0.088l0.051,-0.09l0.05,-0.09l0.048,-0.09l0.047,-0.092l0.047,-0.091l0.045,-0.093l0.044,-0.093l0.043,-0.094l0.042,-0.094l0.041,-0.095l0.04,-0.095l0.038,-0.096l0.038,-0.097l0.036,-0.097l0.035,-0.098l0.034,-0.098l0.033,-0.099l0.031,-0.099l0.031,-0.1l0.029,-0.1l0.028,-0.101l0.027,-0.102l0.025,-0.102l0.024,-0.102l0.023,-0.103l0.022,-0.103l0.021,-0.104l0.019,-0.104l0.018,-0.105l0.017,-0.105l0.015,-0.106l0.015,-0.106l0.012,-0.107l0.012,-0.107l0.01,-0.107l0.009,-0.108l0.008,-0.108l0.006,-0.109l0.005,-0.109l0.003,-0.11l0.002,-0.11l0.001,-0.116l0,-0.49l-0.001,-0.162l-0.003,-0.155l-0.005,-0.154l-0.007,-0.154l-0.008,-0.154l-0.011,-0.152l-0.013,-0.153l-0.014,-0.151l-0.016,-0.151l-0.019,-0.151l-0.02,-0.15l-0.021,-0.149l-0.024,-0.149l-0.026,-0.148l-0.027,-0.147l-0.029,-0.147l-0.031,-0.146l-0.032,-0.145l-0.035,-0.145l-0.036,-0.143l-0.038,-0.144l-0.039,-0.142l-0.041,-0.142l-0.043,-0.141l-0.045,-0.14l-0.046,-0.14l-0.048,-0.139l-0.05,-0.138l-0.051,-0.137l-0.053,-0.137l-0.054,-0.135l-0.056,-0.135l-0.058,-0.134l-0.059,-0.134l-0.061,-0.132l-0.062,-0.131l-0.064,-0.131l-0.066,-0.13l-0.067,-0.129l-0.068,-0.128l-0.07,-0.127l-0.072,-0.126l-0.073,-0.125l-0.074,-0.124l-0.076,-0.123l-0.077,-0.122l-0.079,-0.122l-0.08,-0.12l-0.082,-0.119l-0.083,-0.118l-0.084,-0.117l-0.086,-0.117l-0.087,-0.115l-0.089,-0.114l-0.089,-0.112l-0.091,-0.112l-0.093,-0.111l-0.094,-0.109l-0.095,-0.109l-0.096,-0.107l-0.098,-0.106l-0.098,-0.105l-0.1,-0.104l-0.102,-0.102l-0.102,-0.102l-0.104,-0.1l-0.105,-0.098l-0.106,-0.098l-0.107,-0.096l-0.109,-0.095l-0.109,-0.094l-0.111,-0.093l-0.112,-0.091l-0.112,-0.089l-0.114,-0.089l-0.115,-0.087l-0.117,-0.086l-0.117,-0.084l-0.118,-0.083l-0.119,-0.082l-0.12,-0.08l-0.122,-0.079l-0.122,-0.077l-0.123,-0.076l-0.124,-0.074l-0.125,-0.073l-0.126,-0.072l-0.128,-0.07l-0.127,-0.068l-0.129,-0.067l-0.13,-0.066l-0.131,-0.064l-0.131,-0.062l-0.132,-0.061l-0.134,-0.059l-0.134,-0.058l-0.135,-0.056l-0.135,-0.054l-0.137,-0.053l-0.137,-0.051l-0.138,-0.05l-0.139,-0.048l-0.139,-0.046l-0.141,-0.045l-0.141,-0.043l-0.142,-0.041l-0.142,-0.039l-0.144,-0.038l-0.143,-0.036l-0.145,-0.035l-0.145,-0.032l-0.146,-0.031l-0.147,-0.029l-0.147,-0.027l-0.148,-0.026l-0.149,-0.024l-0.149,-0.021l-0.15,-0.02l-0.151,-0.019l-0.151,-0.016l-0.151,-0.014l-0.153,-0.013l-0.152,-0.011l-0.154,-0.008l-0.154,-0.007l-0.154,-0.005l-0.155,-0.003l-0.156,-0.001l-0.156,0.001Z"/></g><g id="emoji"><path d="M30,18c0,-7.732 -6.268,-14 -14,-14c0,0 0,0 0,0c-7.732,0 -14,6.268 -14,14c0,0.168 0,0.335 0,0.502c0,5.798 4.7,10.498 10.498,10.498c2.29,0 4.714,0 7.004,0c5.798,0 10.498,-4.7 10.498,-10.498c0,-0.167 0,-0.334 0,-0.502Z" style="fill:#fbc546;"/><path d="M24.034,11.501l0.046,0.002l0.045,0.005l0.045,0.007l0.045,0.008l0.044,0.011l0.044,0.013l0.043,0.015l0.042,0.016l0.041,0.019l0.041,0.02l0.04,0.023l0.038,0.024l0.038,0.026l0.036,0.027l0.035,0.029l0.034,0.031l0.032,0.032l0.031,0.034l0.029,0.035l0.027,0.036l0.026,0.038l0.024,0.038l0.023,0.04l0.02,0.041l0.019,0.041l0.016,0.042l0.015,0.043l0.013,0.044l0.011,0.044l0.008,0.045l0.007,0.045l0.005,0.045l0.002,0.046l0.001,0.045l-0.002,0.046l-0.003,0.045l-0.006,0.045l-0.008,0.045l-0.009,0.045l-0.012,0.044l-0.014,0.043l-0.016,0.043l-0.017,0.042l-0.02,0.041l-0.021,0.04l-0.024,0.039l-0.025,0.038l-0.026,0.037l-0.029,0.036l-0.029,0.034l-0.032,0.033l-2.856,2.856l2.465,0.822l0.043,0.015l0.042,0.017l0.041,0.02l0.041,0.021l0.039,0.022l0.038,0.025l0.038,0.027l0.035,0.028l0.035,0.029l0.033,0.031l0.032,0.033l0.03,0.034l0.029,0.035l0.027,0.037l0.025,0.038l0.024,0.039l0.021,0.04l0.02,0.041l0.018,0.042l0.016,0.042l0.014,0.044l0.013,0.043l0.01,0.045l0.008,0.045l0.006,0.045l0.004,0.045l0.002,0.046l0,0.045l-0.003,0.046l-0.004,0.045l-0.006,0.045l-0.009,0.045l-0.01,0.044l-0.012,0.044l-0.015,0.043l-0.016,0.043l-0.018,0.041l-0.021,0.041l-0.021,0.04l-0.024,0.039l-0.026,0.037l-0.027,0.037l-0.029,0.035l-0.03,0.034l-0.032,0.033l-0.034,0.031l-0.034,0.029l-0.036,0.028l-0.038,0.026l-0.038,0.024l-0.04,0.023l-0.04,0.021l-0.041,0.019l-0.043,0.017l-0.043,0.015l-0.043,0.013l-0.044,0.011l-0.045,0.009l-0.045,0.007l-0.045,0.005l-0.046,0.003l-0.045,0.001l-0.046,-0.001l-0.045,-0.003l-0.045,-0.005l-0.045,-0.008l-0.045,-0.009l-0.044,-0.012l-0.043,-0.013l-5.087,-1.695l-0.114,-0.484l4.81,-4.81l0.033,-0.032l0.034,-0.029l0.036,-0.029l0.037,-0.026l0.038,-0.025l0.039,-0.024l0.04,-0.021l0.041,-0.02l0.042,-0.017l0.043,-0.016l0.043,-0.014l0.044,-0.012l0.045,-0.009l0.045,-0.008l0.045,-0.006l0.045,-0.003l0.046,-0.002l0.045,0.001Z"/><path d="M8.057,11.502l0.045,0.003l0.045,0.006l0.045,0.008l0.045,0.009l0.044,0.012l0.043,0.014l0.043,0.016l0.042,0.017l0.041,0.02l0.04,0.021l0.039,0.024l0.038,0.025l0.037,0.026l0.036,0.029l0.034,0.029l0.033,0.032l4.81,4.81l-0.114,0.484l-5.087,1.695l-0.043,0.013l-0.044,0.012l-0.045,0.009l-0.045,0.008l-0.045,0.005l-0.045,0.003l-0.046,0.001l-0.045,-0.001l-0.046,-0.003l-0.045,-0.005l-0.045,-0.007l-0.045,-0.009l-0.044,-0.011l-0.043,-0.013l-0.043,-0.015l-0.043,-0.017l-0.041,-0.019l-0.04,-0.021l-0.04,-0.023l-0.038,-0.024l-0.038,-0.026l-0.036,-0.028l-0.034,-0.029l-0.034,-0.031l-0.032,-0.033l-0.03,-0.034l-0.029,-0.035l-0.027,-0.037l-0.026,-0.037l-0.024,-0.039l-0.021,-0.04l-0.021,-0.041l-0.018,-0.041l-0.016,-0.043l-0.015,-0.043l-0.012,-0.044l-0.01,-0.044l-0.009,-0.045l-0.006,-0.045l-0.004,-0.045l-0.003,-0.046l0,-0.045l0.002,-0.046l0.004,-0.045l0.006,-0.045l0.008,-0.045l0.01,-0.045l0.013,-0.043l0.014,-0.044l0.016,-0.042l0.018,-0.042l0.02,-0.041l0.021,-0.04l0.024,-0.039l0.025,-0.038l0.027,-0.037l0.029,-0.035l0.03,-0.034l0.032,-0.033l0.033,-0.031l0.035,-0.029l0.035,-0.028l0.038,-0.027l0.038,-0.025l0.039,-0.022l0.041,-0.021l0.041,-0.02l0.042,-0.017l0.043,-0.015l2.465,-0.822l-2.856,-2.856l-0.032,-0.033l-0.029,-0.034l-0.029,-0.036l-0.026,-0.037l-0.025,-0.038l-0.024,-0.039l-0.021,-0.04l-0.02,-0.041l-0.017,-0.042l-0.016,-0.043l-0.014,-0.043l-0.012,-0.044l-0.009,-0.045l-0.008,-0.045l-0.006,-0.045l-0.003,-0.045l-0.002,-0.046l0.001,-0.045l0.002,-0.046l0.005,-0.045l0.007,-0.045l0.008,-0.045l0.011,-0.044l0.013,-0.044l0.015,-0.043l0.016,-0.042l0.019,-0.041l0.02,-0.041l0.023,-0.04l0.024,-0.038l0.026,-0.038l0.027,-0.036l0.029,-0.035l0.031,-0.034l0.032,-0.032l0.034,-0.031l0.035,-0.029l0.036,-0.027l0.038,-0.026l0.038,-0.024l0.04,-0.023l0.041,-0.02l0.041,-0.019l0.042,-0.016l0.043,-0.015l0.044,-0.013l0.044,-0.011l0.045,-0.008l0.045,-0.007l0.045,-0.005l0.046,-0.002l0.045,-0.001l0.046,0.002Z"/><path d="M9,24c0,0 0.019,-0.057 0.051,-0.154c0.567,-1.7 2.157,-2.846 3.949,-2.846c0,0 0,0 0,0l3,3l3,-3c0,0 0,0 0,0c1.792,0 3.382,1.146 3.949,2.846c0.032,0.097 0.051,0.154 0.051,0.154" style="fill:none;stroke:#593604;stroke-width:2px;"/></g></g></svg>