<?xml version="1.0" encoding="UTF-8" standalone="no"?><!DOCTYPE svg PUBLIC "-//W3C//DTD SVG 1.1//EN" "http://www.w3.org/Graphics/SVG/1.1/DTD/svg11.dtd"><svg width="100%" height="100%" viewBox="0 0 32 32" version="1.1" xmlns="http://www.w3.org/2000/svg" xmlns:xlink="http://www.w3.org/1999/xlink" xml:space="preserve" xmlns:serif="http://www.serif.com/" style="fill-rule:evenodd;clip-rule:evenodd;stroke-linecap:round;stroke-miterlimit:1.5;"><rect id="confounded" x="0" y="0" width="32" height="32" style="fill:none;"/><clipPath id="_clip1"><rect x="0" y="0" width="32" height="32"/></clipPath><g clip-path="url(#_clip1)"><g id="outline"><path d="M16.206,4.001l0.206,0.004l0.205,0.007l0.205,0.009l0.204,0.011l0.203,0.015l0.203,0.016l0.201,0.019l0.202,0.022l0.2,0.024l0.2,0.027l0.199,0.029l0.198,0.032l0.198,0.034l0.197,0.036l0.195,0.039l0.195,0.041l0.195,0.044l0.193,0.046l0.192,0.048l0.192,0.05l0.19,0.053l0.19,0.055l0.188,0.058l0.188,0.059l0.186,0.062l0.186,0.064l0.184,0.066l0.184,0.069l0.182,0.07l0.181,0.073l0.181,0.075l0.179,0.077l0.177,0.079l0.177,0.081l0.176,0.084l0.174,0.085l0.173,0.087l0.172,0.09l0.171,0.091l0.169,0.094l0.169,0.095l0.166,0.097l0.166,0.1l0.164,0.101l0.163,0.103l0.162,0.105l0.16,0.107l0.159,0.108l0.158,0.111l0.156,0.112l0.154,0.115l0.153,0.116l0.152,0.117l0.151,0.12l0.148,0.121l0.148,0.123l0.146,0.125l0.144,0.127l0.142,0.128l0.142,0.13l0.139,0.131l0.138,0.133l0.137,0.135l0.135,0.137l0.133,0.138l0.131,0.139l0.13,0.142l0.128,0.142l0.127,0.145l0.125,0.145l0.123,0.148l0.121,0.149l0.12,0.15l0.117,0.152l0.116,0.153l0.115,0.154l0.112,0.157l0.111,0.157l0.108,0.159l0.107,0.16l0.105,0.162l0.103,0.163l0.101,0.164l0.1,0.166l0.097,0.167l0.095,0.168l0.094,0.169l0.091,0.171l0.09,0.172l0.087,0.173l0.085,0.174l0.084,0.176l0.081,0.177l0.079,0.177l0.077,0.179l0.075,0.181l0.073,0.181l0.07,0.182l0.069,0.184l0.066,0.184l0.064,0.186l0.062,0.186l0.059,0.188l0.058,0.188l0.055,0.19l0.053,0.19l0.05,0.192l0.048,0.192l0.046,0.193l0.044,0.195l0.041,0.195l0.039,0.195l0.036,0.197l0.034,0.198l0.032,0.198l0.029,0.199l0.027,0.2l0.024,0.2l0.022,0.201l0.019,0.202l0.016,0.203l0.015,0.203l0.011,0.204l0.009,0.205l0.007,0.205l0.004,0.206l0.001,0.2l0,0.02l-0.001,0.143l-0.003,0.149l-0.004,0.148l-0.007,0.149l-0.008,0.148l-0.01,0.147l-0.012,0.148l-0.014,0.147l-0.015,0.147l-0.017,0.147l-0.02,0.146l-0.02,0.146l-0.023,0.145l-0.024,0.145l-0.027,0.145l-0.028,0.145l-0.029,0.143l-0.032,0.144l-0.033,0.143l-0.035,0.142l-0.036,0.142l-0.039,0.141l-0.04,0.141l-0.041,0.141l-0.044,0.14l-0.045,0.139l-0.047,0.138l-0.048,0.138l-0.05,0.138l-0.052,0.137l-0.054,0.136l-0.055,0.135l-0.057,0.135l-0.058,0.134l-0.06,0.133l-0.062,0.133l-0.063,0.132l-0.065,0.131l-0.067,0.13l-0.068,0.13l-0.069,0.129l-0.072,0.128l-0.073,0.127l-0.074,0.126l-0.076,0.125l-0.078,0.125l-0.079,0.124l-0.081,0.122l-0.082,0.122l-0.084,0.121l-0.085,0.12l-0.087,0.119l-0.089,0.117l-0.089,0.117l-0.092,0.116l-0.093,0.115l-0.094,0.114l-0.096,0.113l-0.097,0.111l-0.099,0.111l-0.101,0.109l-0.101,0.109l-0.104,0.107l-0.104,0.106l-0.106,0.104l-0.107,0.104l-0.109,0.101l-0.109,0.101l-0.111,0.099l-0.111,0.097l-0.113,0.096l-0.114,0.094l-0.115,0.093l-0.116,0.092l-0.116,0.089l-0.119,0.089l-0.118,0.087l-0.12,0.085l-0.121,0.084l-0.122,0.082l-0.122,0.081l-0.124,0.079l-0.125,0.078l-0.125,0.076l-0.126,0.074l-0.127,0.073l-0.128,0.072l-0.129,0.069l-0.13,0.068l-0.13,0.067l-0.131,0.065l-0.132,0.063l-0.133,0.062l-0.133,0.06l-0.134,0.058l-0.135,0.057l-0.135,0.055l-0.136,0.054l-0.137,0.052l-0.138,0.05l-0.138,0.048l-0.138,0.047l-0.139,0.045l-0.14,0.044l-0.141,0.041l-0.141,0.04l-0.141,0.039l-0.142,0.036l-0.142,0.035l-0.143,0.033l-0.144,0.032l-0.144,0.029l-0.144,0.028l-0.145,0.027l-0.145,0.024l-0.145,0.023l-0.146,0.02l-0.146,0.02l-0.147,0.017l-0.147,0.015l-0.147,0.014l-0.148,0.012l-0.147,0.01l-0.148,0.008l-0.149,0.007l-0.148,0.004l-0.149,0.003l-0.143,0.001l-8.028,0l-0.143,-0.001l-0.149,-0.003l-0.148,-0.004l-0.149,-0.007l-0.148,-0.008l-0.147,-0.01l-0.148,-0.012l-0.147,-0.014l-0.147,-0.015l-0.147,-0.017l-0.146,-0.02l-0.146,-0.02l-0.145,-0.023l-0.145,-0.024l-0.145,-0.027l-0.144,-0.028l-0.144,-0.029l-0.144,-0.032l-0.143,-0.033l-0.142,-0.035l-0.142,-0.036l-0.141,-0.039l-0.141,-0.04l-0.141,-0.041l-0.14,-0.044l-0.139,-0.045l-0.138,-0.047l-0.138,-0.048l-0.138,-0.05l-0.137,-0.052l-0.136,-0.054l-0.135,-0.055l-0.135,-0.057l-0.134,-0.058l-0.133,-0.06l-0.133,-0.062l-0.132,-0.063l-0.131,-0.065l-0.13,-0.067l-0.13,-0.068l-0.129,-0.069l-0.128,-0.072l-0.127,-0.073l-0.126,-0.074l-0.125,-0.076l-0.125,-0.078l-0.123,-0.079l-0.123,-0.081l-0.122,-0.082l-0.121,-0.084l-0.12,-0.085l-0.119,-0.087l-0.118,-0.089l-0.116,-0.089l-0.116,-0.092l-0.115,-0.093l-0.114,-0.094l-0.113,-0.096l-0.111,-0.097l-0.111,-0.099l-0.109,-0.101l-0.108,-0.101l-0.108,-0.104l-0.106,-0.104l-0.104,-0.106l-0.104,-0.107l-0.101,-0.109l-0.101,-0.109l-0.098,-0.111l-0.098,-0.111l-0.096,-0.113l-0.094,-0.114l-0.093,-0.115l-0.092,-0.116l-0.09,-0.117l-0.088,-0.117l-0.087,-0.119l-0.085,-0.12l-0.084,-0.121l-0.082,-0.122l-0.081,-0.123l-0.079,-0.123l-0.078,-0.125l-0.076,-0.125l-0.074,-0.126l-0.073,-0.127l-0.072,-0.128l-0.069,-0.129l-0.068,-0.13l-0.067,-0.13l-0.065,-0.131l-0.063,-0.132l-0.062,-0.133l-0.06,-0.133l-0.058,-0.134l-0.057,-0.135l-0.055,-0.135l-0.054,-0.136l-0.052,-0.137l-0.05,-0.138l-0.048,-0.138l-0.047,-0.138l-0.045,-0.139l-0.044,-0.14l-0.041,-0.141l-0.04,-0.141l-0.039,-0.141l-0.036,-0.142l-0.035,-0.142l-0.033,-0.143l-0.032,-0.144l-0.029,-0.143l-0.028,-0.145l-0.027,-0.145l-0.024,-0.145l-0.023,-0.145l-0.02,-0.146l-0.02,-0.146l-0.017,-0.147l-0.015,-0.147l-0.014,-0.147l-0.012,-0.148l-0.01,-0.147l-0.008,-0.148l-0.007,-0.149l-0.004,-0.148l-0.003,-0.149l-0.001,-0.143l0,-0.022l0.001,-0.193l0.004,-0.198l0.006,-0.198l0.009,-0.198l0.011,-0.198l0.013,-0.197l0.016,-0.197l0.018,-0.196l0.021,-0.196l0.023,-0.196l0.025,-0.195l0.028,-0.194l0.031,-0.195l0.032,-0.193l0.035,-0.193l0.037,-0.193l0.04,-0.191l0.042,-0.192l0.044,-0.191l0.046,-0.19l0.049,-0.189l0.051,-0.189l0.054,-0.188l0.055,-0.187l0.058,-0.186l0.061,-0.186l0.062,-0.185l0.065,-0.184l0.067,-0.183l0.069,-0.183l0.071,-0.182l0.074,-0.18l0.075,-0.18l0.078,-0.179l0.081,-0.178l0.082,-0.177l0.084,-0.176l0.087,-0.175l0.089,-0.173l0.091,-0.173l0.093,-0.172l0.095,-0.171l0.097,-0.169l0.099,-0.169l0.102,-0.167l0.103,-0.166l0.106,-0.165l0.108,-0.164l0.11,-0.162l0.111,-0.161l0.114,-0.16l0.116,-0.159l0.118,-0.157l0.12,-0.156l0.122,-0.155l0.124,-0.153l0.126,-0.152l0.128,-0.15l0.13,-0.149l0.132,-0.148l0.134,-0.145l0.135,-0.145l0.138,-0.143l0.14,-0.141l0.141,-0.14l0.143,-0.138l0.144,-0.135l0.147,-0.134l0.147,-0.132l0.149,-0.13l0.15,-0.128l0.152,-0.126l0.153,-0.124l0.155,-0.122l0.156,-0.12l0.157,-0.118l0.159,-0.116l0.16,-0.114l0.161,-0.111l0.162,-0.11l0.164,-0.108l0.165,-0.106l0.166,-0.103l0.167,-0.102l0.169,-0.099l0.169,-0.097l0.171,-0.095l0.172,-0.093l0.173,-0.091l0.173,-0.089l0.175,-0.087l0.176,-0.084l0.177,-0.082l0.178,-0.081l0.179,-0.077l0.18,-0.076l0.181,-0.074l0.181,-0.071l0.183,-0.069l0.183,-0.067l0.184,-0.065l0.185,-0.062l0.186,-0.061l0.186,-0.057l0.187,-0.056l0.188,-0.054l0.189,-0.051l0.189,-0.049l0.19,-0.046l0.191,-0.044l0.191,-0.042l0.192,-0.04l0.193,-0.037l0.193,-0.035l0.194,-0.033l0.194,-0.03l0.194,-0.028l0.195,-0.025l0.196,-0.023l0.196,-0.021l0.196,-0.018l0.197,-0.016l0.197,-0.013l0.198,-0.011l0.198,-0.009l0.198,-0.006l0.198,-0.004l0.193,-0.001l0.014,0l0.2,0.001Zm-0.357,4l-0.149,0.003l-0.149,0.004l-0.148,0.007l-0.148,0.008l-0.148,0.01l-0.148,0.012l-0.147,0.014l-0.147,0.015l-0.147,0.018l-0.146,0.019l-0.146,0.021l-0.145,0.022l-0.145,0.025l-0.145,0.026l-0.145,0.028l-0.143,0.029l-0.144,0.032l-0.143,0.033l-0.142,0.035l-0.142,0.036l-0.142,0.039l-0.141,0.04l-0.14,0.042l-0.14,0.043l-0.14,0.045l-0.138,0.047l-0.138,0.049l-0.138,0.05l-0.137,0.052l-0.136,0.053l-0.135,0.055l-0.135,0.057l-0.134,0.059l-0.134,0.06l-0.133,0.061l-0.132,0.064l-0.131,0.065l-0.13,0.066l-0.13,0.069l-0.129,0.069l-0.128,0.072l-0.127,0.073l-0.126,0.074l-0.126,0.076l-0.124,0.078l-0.124,0.079l-0.123,0.081l-0.121,0.082l-0.121,0.084l-0.12,0.085l-0.119,0.087l-0.118,0.089l-0.117,0.09l-0.116,0.091l-0.115,0.093l-0.114,0.095l-0.112,0.095l-0.112,0.098l-0.111,0.099l-0.109,0.1l-0.108,0.102l-0.108,0.103l-0.106,0.105l-0.105,0.106l-0.103,0.107l-0.102,0.109l-0.1,0.109l-0.099,0.111l-0.098,0.112l-0.095,0.112l-0.095,0.114l-0.093,0.115l-0.091,0.116l-0.09,0.117l-0.089,0.118l-0.087,0.119l-0.085,0.12l-0.084,0.121l-0.082,0.121l-0.081,0.123l-0.079,0.124l-0.078,0.124l-0.076,0.126l-0.074,0.126l-0.073,0.127l-0.072,0.128l-0.069,0.129l-0.069,0.13l-0.066,0.13l-0.065,0.131l-0.064,0.132l-0.061,0.133l-0.06,0.134l-0.059,0.134l-0.057,0.135l-0.055,0.135l-0.053,0.136l-0.052,0.137l-0.05,0.138l-0.049,0.138l-0.047,0.138l-0.045,0.14l-0.043,0.14l-0.042,0.14l-0.04,0.141l-0.039,0.142l-0.036,0.142l-0.035,0.142l-0.033,0.143l-0.032,0.143l-0.029,0.144l-0.028,0.145l-0.026,0.145l-0.025,0.145l-0.022,0.145l-0.021,0.146l-0.019,0.146l-0.018,0.147l-0.015,0.147l-0.014,0.147l-0.012,0.148l-0.01,0.148l-0.008,0.148l-0.007,0.148l-0.004,0.149l-0.003,0.149l-0.001,0.154l0.001,0.104l0.001,0.099l0.004,0.099l0.004,0.099l0.005,0.099l0.007,0.099l0.008,0.098l0.009,0.098l0.01,0.098l0.012,0.097l0.013,0.098l0.014,0.097l0.015,0.097l0.016,0.097l0.017,0.096l0.019,0.096l0.02,0.096l0.021,0.096l0.022,0.095l0.023,0.095l0.024,0.095l0.026,0.094l0.027,0.094l0.027,0.093l0.029,0.094l0.03,0.092l0.032,0.093l0.032,0.092l0.033,0.091l0.035,0.091l0.036,0.091l0.036,0.09l0.038,0.09l0.039,0.09l0.04,0.089l0.041,0.088l0.043,0.088l0.043,0.087l0.044,0.087l0.046,0.086l0.046,0.086l0.048,0.085l0.048,0.085l0.05,0.084l0.05,0.084l0.052,0.083l0.053,0.082l0.054,0.082l0.055,0.081l0.056,0.081l0.056,0.079l0.058,0.08l0.059,0.078l0.06,0.078l0.061,0.077l0.062,0.077l0.063,0.076l0.064,0.075l0.065,0.074l0.066,0.074l0.066,0.073l0.068,0.072l0.069,0.071l0.07,0.071l0.071,0.07l0.071,0.069l0.072,0.068l0.073,0.067l0.074,0.065l0.074,0.065l0.075,0.064l0.076,0.063l0.077,0.062l0.077,0.061l0.078,0.06l0.078,0.059l0.079,0.058l0.08,0.057l0.081,0.055l0.081,0.055l0.082,0.054l0.082,0.053l0.083,0.052l0.084,0.05l0.084,0.05l0.085,0.048l0.085,0.048l0.086,0.046l0.086,0.046l0.087,0.044l0.087,0.044l0.088,0.042l0.088,0.041l0.089,0.04l0.09,0.039l0.09,0.038l0.09,0.036l0.091,0.036l0.091,0.035l0.091,0.033l0.092,0.032l0.093,0.032l0.093,0.03l0.093,0.029l0.093,0.027l0.094,0.027l0.094,0.026l0.095,0.024l0.095,0.023l0.095,0.022l0.096,0.021l0.096,0.02l0.096,0.019l0.096,0.017l0.097,0.016l0.097,0.015l0.097,0.014l0.097,0.013l0.098,0.012l0.098,0.01l0.098,0.009l0.098,0.008l0.099,0.007l0.099,0.005l0.098,0.004l0.1,0.003l0.099,0.002l0.105,0.001l8.004,0l0.105,-0.001l0.099,-0.002l0.1,-0.003l0.098,-0.004l0.099,-0.005l0.099,-0.007l0.098,-0.008l0.098,-0.009l0.098,-0.01l0.098,-0.012l0.097,-0.013l0.097,-0.014l0.097,-0.015l0.097,-0.016l0.096,-0.017l0.096,-0.019l0.096,-0.02l0.096,-0.021l0.095,-0.022l0.095,-0.023l0.095,-0.024l0.094,-0.026l0.094,-0.027l0.093,-0.027l0.093,-0.029l0.093,-0.03l0.093,-0.032l0.092,-0.032l0.091,-0.033l0.091,-0.035l0.091,-0.036l0.09,-0.036l0.09,-0.038l0.09,-0.039l0.089,-0.04l0.088,-0.041l0.088,-0.043l0.087,-0.043l0.087,-0.044l0.086,-0.046l0.086,-0.046l0.085,-0.048l0.085,-0.048l0.084,-0.05l0.084,-0.051l0.083,-0.051l0.082,-0.053l0.082,-0.054l0.081,-0.055l0.081,-0.055l0.079,-0.057l0.08,-0.058l0.078,-0.059l0.078,-0.06l0.077,-0.061l0.077,-0.062l0.076,-0.063l0.075,-0.064l0.074,-0.065l0.074,-0.065l0.073,-0.067l0.072,-0.068l0.071,-0.069l0.071,-0.07l0.07,-0.071l0.069,-0.071l0.068,-0.072l0.067,-0.073l0.065,-0.074l0.065,-0.074l0.064,-0.075l0.063,-0.076l0.062,-0.077l0.061,-0.077l0.06,-0.078l0.059,-0.078l0.058,-0.079l0.056,-0.08l0.056,-0.081l0.055,-0.081l0.054,-0.082l0.053,-0.082l0.051,-0.083l0.051,-0.084l0.05,-0.084l0.048,-0.085l0.048,-0.085l0.046,-0.086l0.046,-0.086l0.044,-0.087l0.043,-0.087l0.043,-0.088l0.041,-0.089l0.04,-0.088l0.039,-0.09l0.038,-0.09l0.036,-0.09l0.036,-0.091l0.035,-0.091l0.033,-0.091l0.032,-0.092l0.032,-0.093l0.03,-0.092l0.029,-0.094l0.027,-0.093l0.027,-0.094l0.026,-0.094l0.024,-0.095l0.023,-0.095l0.022,-0.095l0.021,-0.096l0.02,-0.096l0.019,-0.096l0.017,-0.096l0.016,-0.097l0.015,-0.097l0.014,-0.097l0.013,-0.098l0.012,-0.097l0.01,-0.098l0.009,-0.098l0.008,-0.098l0.007,-0.099l0.005,-0.099l0.004,-0.099l0.004,-0.099l0.001,-0.099l0.001,-0.103l-0.001,-0.16l-0.003,-0.155l-0.005,-0.154l-0.007,-0.154l-0.008,-0.154l-0.011,-0.152l-0.013,-0.153l-0.014,-0.151l-0.016,-0.152l-0.019,-0.15l-0.02,-0.15l-0.021,-0.149l-0.024,-0.149l-0.026,-0.148l-0.027,-0.147l-0.029,-0.147l-0.031,-0.146l-0.032,-0.145l-0.035,-0.145l-0.036,-0.144l-0.038,-0.143l-0.039,-0.142l-0.041,-0.142l-0.043,-0.141l-0.045,-0.141l-0.046,-0.139l-0.048,-0.139l-0.05,-0.138l-0.051,-0.137l-0.053,-0.137l-0.054,-0.135l-0.056,-0.135l-0.058,-0.134l-0.059,-0.134l-0.061,-0.132l-0.062,-0.131l-0.064,-0.131l-0.066,-0.13l-0.067,-0.129l-0.068,-0.127l-0.07,-0.128l-0.072,-0.126l-0.073,-0.125l-0.074,-0.124l-0.076,-0.123l-0.077,-0.122l-0.079,-0.122l-0.08,-0.12l-0.082,-0.119l-0.083,-0.118l-0.084,-0.117l-0.086,-0.117l-0.087,-0.115l-0.089,-0.114l-0.089,-0.113l-0.091,-0.111l-0.093,-0.111l-0.094,-0.109l-0.095,-0.109l-0.096,-0.107l-0.098,-0.106l-0.098,-0.105l-0.101,-0.104l-0.101,-0.102l-0.102,-0.102l-0.104,-0.1l-0.105,-0.098l-0.106,-0.098l-0.107,-0.096l-0.109,-0.095l-0.109,-0.094l-0.111,-0.093l-0.112,-0.091l-0.112,-0.089l-0.114,-0.089l-0.115,-0.087l-0.116,-0.086l-0.118,-0.084l-0.118,-0.083l-0.119,-0.082l-0.12,-0.08l-0.122,-0.079l-0.122,-0.077l-0.123,-0.076l-0.124,-0.074l-0.125,-0.073l-0.126,-0.072l-0.127,-0.07l-0.128,-0.068l-0.129,-0.067l-0.13,-0.066l-0.131,-0.064l-0.131,-0.062l-0.132,-0.061l-0.134,-0.059l-0.134,-0.058l-0.135,-0.056l-0.135,-0.054l-0.137,-0.053l-0.137,-0.051l-0.138,-0.05l-0.139,-0.048l-0.14,-0.046l-0.14,-0.045l-0.141,-0.043l-0.142,-0.041l-0.142,-0.039l-0.144,-0.038l-0.143,-0.036l-0.145,-0.035l-0.145,-0.032l-0.146,-0.031l-0.147,-0.029l-0.147,-0.027l-0.148,-0.026l-0.149,-0.024l-0.149,-0.021l-0.15,-0.02l-0.151,-0.019l-0.151,-0.016l-0.151,-0.014l-0.153,-0.013l-0.152,-0.011l-0.154,-0.008l-0.154,-0.007l-0.154,-0.005l-0.155,-0.003l-0.157,-0.001l-0.15,0.001Z"/></g><g id="emoji"><path d="M30,20c0,-7.732 -6.268,-14 -14,-14c-0.001,0 -0.001,0 -0.002,0c-3.713,0 -7.273,1.475 -9.898,4.1c-2.625,2.625 -4.1,6.186 -4.1,9.898c0,0.003 0,0.007 0,0.01c0,2.65 1.053,5.192 2.927,7.065c1.873,1.874 4.415,2.927 7.065,2.927c2.605,0 5.411,0 8.016,0c2.65,0 5.192,-1.053 7.065,-2.927c1.874,-1.873 2.927,-4.415 2.927,-7.065c0,-0.003 0,-0.005 0,-0.008Z" style="fill:#fbc546;"/><g><path d="M24.707,13.793c0.391,0.39 0.391,1.024 0,1.414c-1.039,1.039 -2.856,2.856 -2.856,2.856c0,0 1.455,0.485 2.465,0.822c0.252,0.084 0.46,0.264 0.578,0.501c0.119,0.237 0.139,0.512 0.055,0.764c0,0 -0.001,0 -0.001,0.001c-0.083,0.251 -0.264,0.459 -0.501,0.577c-0.237,0.119 -0.511,0.138 -0.762,0.054c-1.699,-0.566 -5.088,-1.695 -5.088,-1.695l-0.114,-0.484c0,0 3.321,-3.321 4.81,-4.81c0.39,-0.391 1.024,-0.391 1.414,0c0,0 0,0 0,0Z" style="fill-rule:nonzero;"/><path d="M13.517,18.603l-0.114,0.484c0,0 -3.42,1.14 -5.111,1.703c-0.246,0.082 -0.513,0.063 -0.744,-0.053c-0.231,-0.115 -0.407,-0.318 -0.488,-0.563c-0.001,0 -0.001,0 -0.001,-0.001c-0.179,-0.537 0.111,-1.117 0.648,-1.296c1.01,-0.337 2.442,-0.814 2.442,-0.814c0,0 -1.817,-1.817 -2.856,-2.856c-0.391,-0.39 -0.391,-1.024 0,-1.414c0.39,-0.391 1.024,-0.391 1.414,0c1.489,1.489 4.81,4.81 4.81,4.81Z" style="fill-rule:nonzero;"/></g><path d="M9,26c0,0 0.019,-0.057 0.051,-0.154c0.567,-1.7 2.157,-2.846 3.949,-2.846c0,0 0,0 0,0l3,3l3,-3c0,0 0,0 0,0c1.792,0 3.382,1.146 3.949,2.846c0.032,0.097 0.051,0.154 0.051,0.154" style="fill:none;stroke:#593604;stroke-width:2px;"/></g></g></svg>