<?xml version="1.0" encoding="UTF-8" standalone="no"?>
<!DOCTYPE svg PUBLIC "-//W3C//DTD SVG 1.1//EN" "http://www.w3.org/Graphics/SVG/1.1/DTD/svg11.dtd">
<svg width="100%" height="100%" viewBox="0 0 32 32" version="1.1" xmlns="http://www.w3.org/2000/svg" xmlns:xlink="http://www.w3.org/1999/xlink" xml:space="preserve" xmlns:serif="http://www.serif.com/" style="fill-rule:evenodd;clip-rule:evenodd;stroke-linecap:round;stroke-miterlimit:1.5;">
    <rect id="confounded" x="0" y="0" width="32" height="32" style="fill:none;"/>
    <clipPath id="_clip1">
        <rect x="0" y="0" width="32" height="32"/>
    </clipPath>
    <g clip-path="url(#_clip1)">
        <g id="outline">
            <path d="M16,4c8.837,0 16,7.163 16,16l0,0.008c0,3.18 -1.263,6.231 -3.512,8.48c-2.249,2.249 -5.3,3.512 -8.48,3.512c-2.605,0 -5.411,0 -8.016,0c-3.18,0 -6.231,-1.263 -8.48,-3.512c-2.249,-2.249 -3.512,-5.3 -3.512,-8.48c0,-0.003 0,-0.007 0,-0.01c0,-4.243 1.685,-8.312 4.686,-11.312c3,-3 7.069,-4.686 11.312,-4.686l0.002,0Z"/>
        </g>
        <g id="emoji">
            <path d="M30,20c0,-7.732 -6.268,-14 -14,-14l-0.002,0c-3.713,0 -7.273,1.475 -9.898,4.1c-2.625,2.625 -4.1,6.186 -4.1,9.898c0,0.003 0,0.007 0,0.01c0,2.65 1.053,5.192 2.927,7.065c1.873,1.874 4.415,2.927 7.065,2.927l8.016,0c2.65,0 5.192,-1.053 7.065,-2.927c1.874,-1.873 2.927,-4.415 2.927,-7.065l0,-0.008Z" style="fill:#fbc546;"/>
            <path d="M10.149,18.063l-2.856,-2.856c-0.39,-0.39 -0.39,-1.024 0,-1.414c0.39,-0.39 1.024,-0.39 1.414,0l5.144,5.144l-5.535,1.845c-0.523,0.175 -1.09,-0.109 -1.265,-0.632c-0.174,-0.524 0.109,-1.091 0.633,-1.265l2.465,-0.822Zm11.702,0l2.465,0.822c0.524,0.174 0.807,0.741 0.633,1.265c-0.175,0.523 -0.742,0.807 -1.265,0.632l-5.535,-1.845l5.144,-5.144c0.39,-0.39 1.024,-0.39 1.414,0c0.39,0.39 0.39,1.024 0,1.414l-2.856,2.856Z"/>
            <path d="M9,26c0,0 0.019,-0.057 0.051,-0.154c0.567,-1.7 2.157,-2.846 3.949,-2.846c0,0 0,0 0,0l3,3l3,-3l0,0c1.792,0 3.382,1.146 3.949,2.846c0.032,0.097 0.051,0.154 0.051,0.154" style="fill:none;stroke:#593604;stroke-width:2px;"/>
        </g>
    </g>
</svg>
