<?xml version="1.0" encoding="UTF-8" standalone="no"?>
<!DOCTYPE svg PUBLIC "-//W3C//DTD SVG 1.1//EN" "http://www.w3.org/Graphics/SVG/1.1/DTD/svg11.dtd">
<svg width="100%" height="100%" viewBox="0 0 32 32" version="1.1" xmlns="http://www.w3.org/2000/svg" xmlns:xlink="http://www.w3.org/1999/xlink" xml:space="preserve" xmlns:serif="http://www.serif.com/" style="fill-rule:evenodd;clip-rule:evenodd;stroke-linecap:round;stroke-linejoin:round;stroke-miterlimit:1.5;">
    <rect id="crying" x="0" y="0" width="32" height="32" style="fill:none;"/>
    <clipPath id="_clip1">
        <rect x="0" y="0" width="32" height="32"/>
    </clipPath>
    <g clip-path="url(#_clip1)">
        <g id="outline">
            <path d="M16,2c8.837,0 16,7.163 16,16c0,0.335 0,0.668 0,1c0,0.894 -0.091,1.768 -0.264,2.611c0.229,1.613 -0.298,3.279 -1.494,4.476c-0.001,0 -0.001,0.001 -0.001,0.001c-0.246,0.245 -0.513,0.464 -0.798,0.654c-2.367,3.191 -6.164,5.258 -10.443,5.258c-1.972,0 -4.028,0 -6,0c-7.18,0 -13,-5.82 -13,-13c0,-0.332 0,-0.665 0,-1c0,-8.837 7.163,-16 16,-16l0,0Z"/>
        </g>
        <g id="emoji">
            <g>
                <path d="M25.885,27.579c-1.885,1.515 -4.279,2.421 -6.885,2.421c-1.972,0 -4.028,0 -6,0c-6.075,0 -11,-4.925 -11,-11c0,-0.332 0,-0.665 0,-1c0,-7.732 6.268,-14 14,-14c0,0 0,0 0,0c7.732,0 14,6.268 14,14c0,0.335 0,0.668 0,1c0,1.303 -0.227,2.554 -0.643,3.714c0,0 -4.116,4.743 -3.472,4.865Z" style="fill:#fbc546;"/>
                <path d="M29.357,22.714c-0.691,1.928 -1.906,3.607 -3.472,4.865c-0.644,-0.122 -1.241,-0.435 -1.711,-0.905c-0.001,-0.001 -0.001,-0.001 -0.001,-0.001c-0.999,-0.999 -1.247,-2.525 -0.615,-3.789c1.185,-2.37 2.942,-5.884 2.942,-5.884l2.857,5.714Z" style="fill:#e59a10;"/>
            </g>
            <g>
                <path d="M10.887,9.207l0.788,-0.45c0.105,0.083 0.205,0.172 0.3,0.268c0.656,0.656 1.025,1.545 1.025,2.473c0,0.657 0,1.345 0,2.002c0,1.933 -1.567,3.5 -3.5,3.5l-0.002,0c-0.928,0 -1.817,-0.369 -2.473,-1.025c-0.656,-0.656 -1.025,-1.545 -1.025,-2.473l0,-1.502l2.005,-1.146c0.564,0.134 2.884,-0.997 2.882,-1.647Z" style="fill:#fff;"/>
                <path d="M10.887,9.207c0.193,0.096 0.372,0.223 0.527,0.379c0.375,0.375 0.586,0.884 0.586,1.414c0,0.936 0,2.048 0,2.983c0,0.531 -0.211,1.039 -0.586,1.415c-0.375,0.375 -0.884,0.585 -1.414,0.585c-0.53,0 -1.039,-0.21 -1.414,-0.585c-0.375,-0.376 -0.586,-0.884 -0.586,-1.415c0,-0.935 0,-2.047 0,-2.983c0,-0.049 0.002,-0.098 0.005,-0.146l2.882,-1.647Z"/>
            </g>
            <g>
                <path d="M21.113,9.207l-0.788,-0.45c-0.105,0.083 -0.205,0.172 -0.3,0.268c-0.656,0.656 -1.025,1.545 -1.025,2.473c0,0.657 0,1.345 0,2.002c0,1.933 1.567,3.5 3.5,3.5l0.002,0c0.928,0 1.817,-0.369 2.473,-1.025c0.656,-0.656 1.025,-1.545 1.025,-2.473l0,-1.502l-2.005,-1.146c-0.564,0.134 -2.884,-0.997 -2.882,-1.647Z" style="fill:#fff;"/>
                <path d="M21.113,9.207c-0.193,0.096 -0.372,0.223 -0.527,0.379c-0.375,0.375 -0.586,0.884 -0.586,1.414c0,0.936 0,2.048 0,2.983c0,0.531 0.211,1.039 0.586,1.415c0.375,0.375 0.884,0.585 1.414,0.585c0.53,0 1.039,-0.21 1.414,-0.585c0.375,-0.376 0.586,-0.884 0.586,-1.415c0,-0.935 0,-2.047 0,-2.983c0,-0.049 -0.002,-0.098 -0.005,-0.146l-2.882,-1.647Z"/>
            </g>
            <path d="M9,22c0,0 0.921,-0.921 1.879,-1.879c1.358,-1.358 3.2,-2.121 5.121,-2.121c0,0 0,0 0,0c1.921,0 3.763,0.763 5.121,2.121c0.958,0.958 1.879,1.879 1.879,1.879" style="fill:none;stroke:#593604;stroke-width:2px;"/>
            <path d="M26.5,15c0,0 -1.757,3.514 -2.942,5.884c-0.632,1.264 -0.384,2.79 0.615,3.789c0,0 0,0 0.001,0.001c0.617,0.617 1.453,0.963 2.326,0.963c0.873,0 1.709,-0.346 2.326,-0.963c0.001,-0.001 0.001,-0.001 0.001,-0.001c0.999,-0.999 1.247,-2.525 0.615,-3.789c-1.185,-2.37 -2.942,-5.884 -2.942,-5.884Z" style="fill:#41b4de;"/>
        </g>
    </g>
</svg>
