<?xml version="1.0" encoding="UTF-8" standalone="no"?>
<!DOCTYPE svg PUBLIC "-//W3C//DTD SVG 1.1//EN" "http://www.w3.org/Graphics/SVG/1.1/DTD/svg11.dtd">
<svg width="100%" height="100%" viewBox="0 0 32 32" version="1.1" xmlns="http://www.w3.org/2000/svg" xmlns:xlink="http://www.w3.org/1999/xlink" xml:space="preserve" xmlns:serif="http://www.serif.com/" style="fill-rule:evenodd;clip-rule:evenodd;stroke-linecap:round;stroke-linejoin:round;stroke-miterlimit:1.5;">
    <rect id="disappointed" x="0" y="0" width="32" height="32" style="fill:none;"/>
    <clipPath id="_clip1">
        <rect x="0" y="0" width="32" height="32"/>
    </clipPath>
    <g clip-path="url(#_clip1)">
        <g id="outline">
            <path d="M16.486,5c8.568,0 15.514,6.946 15.514,15.514l0,0.002c0,3.046 -1.21,5.967 -3.364,8.12c-2.153,2.154 -5.074,3.364 -8.12,3.364l-9.032,0c-3.046,0 -5.967,-1.21 -8.12,-3.364c-2.154,-2.153 -3.364,-5.074 -3.364,-8.12c0,-0.001 0,-0.001 0,-0.002c0,-8.568 6.946,-15.514 15.514,-15.514l0.972,0Z"/>
        </g>
        <g id="emoji">
            <path d="M30,20.514c0,-7.464 -6.05,-13.514 -13.514,-13.514c-0.324,0 -0.648,0 -0.972,0c-7.464,0 -13.514,6.05 -13.514,13.514c0,0.001 0,0.001 0,0.002c0,2.515 0.999,4.928 2.778,6.706c1.778,1.779 4.191,2.778 6.706,2.778l9.032,0c2.515,0 4.928,-0.999 6.706,-2.778c1.779,-1.778 2.778,-4.191 2.778,-6.706l0,-0.002Z" style="fill:#fbc546;"/>
            <g>
                <path d="M24.947,17.106c0.494,0.247 0.694,0.847 0.447,1.341c0,0.001 0,0.001 0,0.001c-0.247,0.494 -0.847,0.694 -1.34,0.447c-1.204,-0.602 -3.332,-1.666 -4.524,-2.262c-0.232,-0.116 -0.407,-0.318 -0.489,-0.563c-0.082,-0.245 -0.063,-0.513 0.053,-0.744c0,0 0,-0.001 0,-0.001c0.122,-0.243 0.335,-0.428 0.593,-0.514c0.258,-0.086 0.539,-0.066 0.783,0.056c1.199,0.6 3.289,1.644 4.477,2.239Z" style="fill-rule:nonzero;"/>
                <path d="M12.894,15.303c0.247,0.494 0.047,1.094 -0.447,1.341c-1.196,0.599 -3.305,1.653 -4.501,2.251c-0.493,0.247 -1.093,0.047 -1.34,-0.447c0,0 -0.001,-0.001 -0.001,-0.002c-0.247,-0.493 -0.047,-1.093 0.447,-1.34c1.196,-0.598 3.306,-1.653 4.502,-2.251c0.493,-0.247 1.093,-0.047 1.34,0.447c0,0 0,0 0,0.001Z" style="fill-rule:nonzero;"/>
            </g>
            <path d="M9,26c0,0 0.921,-0.921 1.879,-1.879c1.358,-1.358 3.2,-2.121 5.121,-2.121c0,0 0,0 0,0c1.921,0 3.763,0.763 5.121,2.121c0.958,0.958 1.879,1.879 1.879,1.879" style="fill:none;stroke:#593604;stroke-width:2px;"/>
        </g>
    </g>
</svg>
