<?xml version="1.0" encoding="UTF-8" standalone="no"?><!DOCTYPE svg PUBLIC "-//W3C//DTD SVG 1.1//EN" "http://www.w3.org/Graphics/SVG/1.1/DTD/svg11.dtd"><svg width="100%" height="100%" viewBox="0 0 32 32" version="1.1" xmlns="http://www.w3.org/2000/svg" xmlns:xlink="http://www.w3.org/1999/xlink" xml:space="preserve" xmlns:serif="http://www.serif.com/" style="fill-rule:evenodd;clip-rule:evenodd;stroke-linecap:round;stroke-linejoin:round;stroke-miterlimit:1.5;"><rect id="disappointed" x="0" y="0" width="32" height="32" style="fill:none;"/><clipPath id="_clip1"><rect x="0" y="0" width="32" height="32"/></clipPath><g clip-path="url(#_clip1)"><g id="outline"><path d="M16.686,5.001l0.199,0.004l0.199,0.006l0.199,0.009l0.197,0.011l0.198,0.014l0.196,0.016l0.196,0.019l0.195,0.021l0.194,0.023l0.194,0.026l0.193,0.029l0.192,0.03l0.192,0.033l0.191,0.035l0.189,0.038l0.19,0.04l0.188,0.042l0.187,0.045l0.187,0.047l0.185,0.048l0.185,0.052l0.184,0.053l0.183,0.056l0.181,0.058l0.181,0.06l0.18,0.062l0.179,0.064l0.178,0.066l0.177,0.069l0.176,0.07l0.174,0.073l0.174,0.075l0.172,0.076l0.172,0.079l0.17,0.081l0.169,0.083l0.168,0.084l0.167,0.087l0.165,0.089l0.165,0.09l0.163,0.093l0.162,0.094l0.16,0.096l0.159,0.098l0.158,0.1l0.157,0.102l0.155,0.104l0.155,0.105l0.152,0.107l0.151,0.109l0.15,0.111l0.149,0.113l0.147,0.114l0.146,0.116l0.144,0.117l0.143,0.12l0.141,0.121l0.14,0.122l0.139,0.125l0.137,0.126l0.135,0.127l0.134,0.129l0.132,0.131l0.131,0.132l0.129,0.134l0.127,0.135l0.126,0.137l0.125,0.139l0.122,0.14l0.121,0.141l0.12,0.143l0.117,0.144l0.116,0.146l0.114,0.147l0.113,0.149l0.111,0.149l0.109,0.152l0.107,0.153l0.105,0.154l0.104,0.155l0.102,0.157l0.1,0.158l0.098,0.159l0.096,0.161l0.094,0.161l0.093,0.163l0.09,0.165l0.089,0.165l0.087,0.167l0.084,0.168l0.083,0.169l0.081,0.17l0.079,0.172l0.076,0.172l0.075,0.174l0.073,0.174l0.07,0.176l0.069,0.177l0.066,0.178l0.064,0.179l0.062,0.18l0.06,0.181l0.058,0.181l0.056,0.183l0.053,0.184l0.052,0.185l0.048,0.185l0.047,0.187l0.045,0.187l0.042,0.188l0.04,0.189l0.037,0.19l0.036,0.191l0.033,0.192l0.03,0.192l0.029,0.193l0.025,0.194l0.024,0.194l0.021,0.195l0.019,0.196l0.016,0.197l0.014,0.197l0.011,0.197l0.009,0.199l0.006,0.199l0.004,0.199l0.001,0.194l0,0.014l-0.001,0.137l-0.002,0.142l-0.005,0.142l-0.006,0.142l-0.008,0.142l-0.01,0.142l-0.011,0.141l-0.013,0.141l-0.015,0.141l-0.017,0.14l-0.018,0.14l-0.02,0.14l-0.021,0.139l-0.024,0.139l-0.025,0.139l-0.027,0.138l-0.028,0.138l-0.03,0.137l-0.032,0.137l-0.033,0.136l-0.035,0.136l-0.037,0.136l-0.038,0.135l-0.04,0.134l-0.042,0.134l-0.043,0.133l-0.045,0.133l-0.046,0.132l-0.048,0.132l-0.05,0.131l-0.051,0.13l-0.053,0.13l-0.054,0.129l-0.056,0.128l-0.058,0.128l-0.059,0.127l-0.061,0.126l-0.062,0.126l-0.064,0.125l-0.065,0.124l-0.067,0.123l-0.068,0.123l-0.07,0.121l-0.071,0.121l-0.073,0.12l-0.074,0.119l-0.076,0.119l-0.077,0.117l-0.079,0.117l-0.08,0.116l-0.082,0.114l-0.083,0.114l-0.085,0.113l-0.086,0.112l-0.088,0.111l-0.089,0.11l-0.09,0.109l-0.092,0.108l-0.093,0.107l-0.095,0.106l-0.096,0.105l-0.098,0.103l-0.098,0.103l-0.101,0.101l-0.101,0.101l-0.103,0.099l-0.103,0.097l-0.105,0.096l-0.106,0.095l-0.107,0.093l-0.108,0.092l-0.109,0.09l-0.11,0.089l-0.111,0.088l-0.112,0.086l-0.113,0.084l-0.114,0.084l-0.114,0.082l-0.116,0.08l-0.117,0.079l-0.117,0.077l-0.119,0.076l-0.119,0.074l-0.12,0.073l-0.121,0.071l-0.122,0.07l-0.122,0.068l-0.123,0.067l-0.124,0.065l-0.125,0.064l-0.126,0.062l-0.126,0.061l-0.127,0.059l-0.128,0.058l-0.128,0.056l-0.129,0.054l-0.13,0.053l-0.13,0.051l-0.131,0.05l-0.132,0.048l-0.132,0.046l-0.133,0.045l-0.133,0.043l-0.134,0.042l-0.134,0.04l-0.135,0.038l-0.136,0.037l-0.136,0.035l-0.136,0.033l-0.137,0.032l-0.137,0.03l-0.138,0.028l-0.138,0.027l-0.139,0.025l-0.139,0.023l-0.139,0.022l-0.14,0.02l-0.14,0.018l-0.14,0.017l-0.141,0.015l-0.141,0.013l-0.141,0.011l-0.142,0.01l-0.142,0.008l-0.142,0.006l-0.142,0.005l-0.142,0.002l-0.137,0.001l-9.044,0l-0.137,-0.001l-0.142,-0.002l-0.142,-0.005l-0.142,-0.006l-0.142,-0.008l-0.142,-0.01l-0.141,-0.011l-0.141,-0.013l-0.141,-0.015l-0.14,-0.017l-0.14,-0.018l-0.14,-0.02l-0.139,-0.022l-0.139,-0.023l-0.139,-0.025l-0.138,-0.027l-0.138,-0.028l-0.137,-0.03l-0.137,-0.032l-0.136,-0.033l-0.136,-0.035l-0.136,-0.037l-0.135,-0.038l-0.134,-0.04l-0.134,-0.042l-0.133,-0.043l-0.133,-0.045l-0.132,-0.046l-0.132,-0.048l-0.131,-0.05l-0.13,-0.051l-0.13,-0.053l-0.129,-0.054l-0.128,-0.056l-0.128,-0.058l-0.127,-0.059l-0.126,-0.061l-0.126,-0.062l-0.124,-0.064l-0.125,-0.065l-0.123,-0.067l-0.122,-0.068l-0.122,-0.07l-0.121,-0.071l-0.12,-0.073l-0.119,-0.074l-0.119,-0.076l-0.117,-0.077l-0.117,-0.079l-0.116,-0.08l-0.115,-0.082l-0.113,-0.083l-0.113,-0.085l-0.112,-0.086l-0.111,-0.088l-0.11,-0.089l-0.109,-0.09l-0.108,-0.092l-0.107,-0.093l-0.106,-0.095l-0.105,-0.096l-0.103,-0.097l-0.103,-0.099l-0.102,-0.101l-0.1,-0.101l-0.098,-0.103l-0.098,-0.103l-0.096,-0.105l-0.095,-0.106l-0.093,-0.107l-0.092,-0.108l-0.09,-0.109l-0.089,-0.11l-0.088,-0.111l-0.086,-0.112l-0.085,-0.113l-0.083,-0.114l-0.082,-0.114l-0.08,-0.116l-0.079,-0.117l-0.077,-0.117l-0.076,-0.119l-0.074,-0.119l-0.073,-0.12l-0.071,-0.121l-0.07,-0.121l-0.068,-0.123l-0.067,-0.123l-0.065,-0.124l-0.064,-0.125l-0.062,-0.126l-0.061,-0.126l-0.059,-0.127l-0.058,-0.128l-0.055,-0.128l-0.055,-0.129l-0.053,-0.13l-0.051,-0.13l-0.049,-0.131l-0.049,-0.132l-0.046,-0.132l-0.045,-0.133l-0.043,-0.133l-0.042,-0.134l-0.04,-0.134l-0.038,-0.135l-0.037,-0.136l-0.035,-0.136l-0.033,-0.136l-0.032,-0.137l-0.03,-0.137l-0.028,-0.138l-0.027,-0.138l-0.025,-0.139l-0.024,-0.139l-0.021,-0.139l-0.02,-0.14l-0.018,-0.14l-0.017,-0.14l-0.015,-0.141l-0.013,-0.141l-0.011,-0.141l-0.01,-0.142l-0.008,-0.142l-0.006,-0.142l-0.005,-0.142l-0.002,-0.142l-0.001,-0.137l0,-0.014l0.001,-0.194l0.004,-0.2l0.006,-0.198l0.009,-0.199l0.011,-0.197l0.014,-0.198l0.016,-0.196l0.019,-0.196l0.021,-0.195l0.023,-0.194l0.026,-0.194l0.029,-0.193l0.03,-0.192l0.033,-0.192l0.036,-0.191l0.037,-0.19l0.04,-0.189l0.042,-0.188l0.045,-0.187l0.047,-0.187l0.049,-0.185l0.051,-0.185l0.053,-0.184l0.056,-0.183l0.058,-0.181l0.06,-0.181l0.062,-0.18l0.064,-0.179l0.066,-0.178l0.069,-0.177l0.07,-0.176l0.073,-0.174l0.075,-0.174l0.076,-0.172l0.079,-0.172l0.081,-0.17l0.083,-0.169l0.084,-0.168l0.087,-0.167l0.089,-0.165l0.09,-0.165l0.093,-0.163l0.094,-0.161l0.096,-0.161l0.098,-0.159l0.1,-0.158l0.102,-0.157l0.104,-0.155l0.105,-0.154l0.107,-0.153l0.109,-0.152l0.111,-0.149l0.112,-0.149l0.115,-0.147l0.116,-0.146l0.117,-0.144l0.12,-0.143l0.121,-0.141l0.122,-0.14l0.125,-0.139l0.126,-0.137l0.127,-0.135l0.129,-0.134l0.131,-0.132l0.132,-0.131l0.134,-0.129l0.135,-0.127l0.137,-0.126l0.139,-0.125l0.14,-0.122l0.141,-0.121l0.143,-0.12l0.144,-0.117l0.146,-0.116l0.147,-0.114l0.149,-0.113l0.149,-0.111l0.152,-0.109l0.153,-0.107l0.154,-0.105l0.155,-0.104l0.157,-0.102l0.158,-0.1l0.159,-0.098l0.16,-0.096l0.162,-0.094l0.163,-0.093l0.165,-0.09l0.165,-0.089l0.167,-0.087l0.168,-0.084l0.169,-0.083l0.17,-0.081l0.172,-0.079l0.172,-0.076l0.174,-0.075l0.174,-0.073l0.176,-0.07l0.177,-0.069l0.178,-0.066l0.179,-0.064l0.18,-0.062l0.181,-0.06l0.181,-0.058l0.183,-0.056l0.184,-0.053l0.185,-0.052l0.185,-0.048l0.187,-0.047l0.187,-0.045l0.188,-0.042l0.189,-0.04l0.19,-0.038l0.191,-0.035l0.192,-0.033l0.192,-0.03l0.193,-0.029l0.194,-0.026l0.194,-0.023l0.195,-0.021l0.196,-0.019l0.196,-0.016l0.198,-0.014l0.197,-0.011l0.199,-0.009l0.199,-0.006l0.199,-0.004l0.194,-0.001l0.984,0l0.194,0.001Zm-1.166,3.999l-0.155,0.001l-0.149,0.003l-0.148,0.005l-0.148,0.006l-0.147,0.008l-0.147,0.011l-0.146,0.012l-0.146,0.014l-0.145,0.015l-0.144,0.018l-0.144,0.019l-0.143,0.021l-0.143,0.023l-0.142,0.024l-0.141,0.026l-0.141,0.028l-0.14,0.03l-0.139,0.031l-0.139,0.033l-0.138,0.034l-0.137,0.037l-0.137,0.038l-0.136,0.039l-0.136,0.041l-0.134,0.043l-0.134,0.045l-0.133,0.046l-0.133,0.047l-0.132,0.049l-0.131,0.051l-0.13,0.052l-0.129,0.054l-0.129,0.055l-0.128,0.057l-0.127,0.059l-0.126,0.059l-0.125,0.062l-0.124,0.063l-0.124,0.064l-0.123,0.066l-0.122,0.067l-0.121,0.068l-0.12,0.07l-0.119,0.072l-0.118,0.073l-0.118,0.074l-0.116,0.075l-0.115,0.077l-0.115,0.079l-0.113,0.079l-0.112,0.081l-0.112,0.082l-0.11,0.084l-0.11,0.085l-0.108,0.086l-0.107,0.087l-0.106,0.089l-0.105,0.09l-0.104,0.091l-0.103,0.093l-0.102,0.093l-0.101,0.095l-0.099,0.096l-0.099,0.097l-0.097,0.099l-0.096,0.099l-0.095,0.101l-0.093,0.102l-0.093,0.103l-0.091,0.104l-0.09,0.105l-0.088,0.106l-0.088,0.107l-0.086,0.108l-0.085,0.11l-0.084,0.11l-0.082,0.112l-0.081,0.112l-0.079,0.113l-0.079,0.115l-0.077,0.115l-0.075,0.117l-0.074,0.117l-0.073,0.118l-0.072,0.119l-0.07,0.12l-0.068,0.121l-0.067,0.122l-0.066,0.123l-0.064,0.123l-0.063,0.125l-0.062,0.125l-0.059,0.126l-0.059,0.127l-0.057,0.128l-0.055,0.129l-0.054,0.129l-0.052,0.13l-0.051,0.131l-0.049,0.132l-0.047,0.133l-0.046,0.133l-0.045,0.134l-0.043,0.134l-0.041,0.136l-0.039,0.136l-0.038,0.137l-0.037,0.137l-0.034,0.138l-0.033,0.139l-0.031,0.139l-0.03,0.14l-0.028,0.141l-0.026,0.141l-0.024,0.142l-0.023,0.143l-0.021,0.143l-0.019,0.144l-0.018,0.144l-0.015,0.145l-0.014,0.146l-0.012,0.146l-0.011,0.147l-0.008,0.147l-0.006,0.148l-0.005,0.148l-0.003,0.149l-0.001,0.15l0.001,0.094l0.001,0.093l0.003,0.092l0.004,0.093l0.005,0.093l0.007,0.092l0.007,0.092l0.009,0.092l0.009,0.091l0.011,0.092l0.012,0.091l0.013,0.091l0.014,0.091l0.015,0.09l0.017,0.091l0.017,0.09l0.019,0.09l0.019,0.089l0.021,0.089l0.022,0.089l0.023,0.089l0.024,0.088l0.024,0.088l0.027,0.088l0.027,0.087l0.028,0.087l0.029,0.086l0.03,0.086l0.032,0.086l0.032,0.086l0.033,0.085l0.035,0.084l0.035,0.084l0.037,0.084l0.037,0.083l0.039,0.083l0.039,0.082l0.041,0.082l0.041,0.081l0.043,0.081l0.043,0.081l0.045,0.079l0.045,0.08l0.047,0.078l0.047,0.079l0.049,0.077l0.049,0.077l0.05,0.077l0.052,0.076l0.052,0.075l0.053,0.075l0.055,0.075l0.055,0.073l0.056,0.073l0.057,0.072l0.058,0.072l0.059,0.071l0.06,0.07l0.06,0.07l0.062,0.069l0.063,0.068l0.063,0.068l0.065,0.067l0.065,0.066l0.066,0.065l0.067,0.065l0.068,0.063l0.068,0.063l0.069,0.062l0.07,0.06l0.07,0.06l0.071,0.059l0.072,0.058l0.072,0.057l0.073,0.056l0.074,0.055l0.074,0.055l0.074,0.053l0.076,0.052l0.076,0.052l0.076,0.05l0.078,0.049l0.077,0.049l0.079,0.047l0.078,0.047l0.08,0.045l0.08,0.045l0.08,0.043l0.081,0.043l0.081,0.041l0.082,0.041l0.082,0.039l0.083,0.039l0.083,0.037l0.084,0.037l0.084,0.035l0.085,0.035l0.084,0.033l0.086,0.032l0.086,0.032l0.086,0.03l0.086,0.029l0.087,0.028l0.087,0.027l0.088,0.027l0.088,0.025l0.088,0.023l0.089,0.023l0.089,0.022l0.089,0.021l0.089,0.019l0.09,0.019l0.09,0.017l0.091,0.017l0.09,0.015l0.091,0.014l0.091,0.013l0.091,0.012l0.092,0.011l0.091,0.009l0.092,0.009l0.092,0.007l0.092,0.007l0.093,0.005l0.092,0.004l0.093,0.003l0.093,0.001l0.099,0.001l9.02,0l0.099,-0.001l0.093,-0.001l0.093,-0.003l0.092,-0.004l0.093,-0.005l0.092,-0.007l0.092,-0.007l0.092,-0.009l0.091,-0.009l0.092,-0.011l0.091,-0.012l0.091,-0.013l0.091,-0.014l0.09,-0.015l0.091,-0.017l0.09,-0.017l0.09,-0.019l0.089,-0.019l0.089,-0.021l0.089,-0.022l0.089,-0.023l0.088,-0.023l0.088,-0.025l0.088,-0.027l0.087,-0.027l0.087,-0.028l0.086,-0.029l0.086,-0.03l0.086,-0.032l0.085,-0.032l0.085,-0.033l0.085,-0.035l0.084,-0.035l0.084,-0.037l0.083,-0.037l0.083,-0.039l0.082,-0.039l0.082,-0.041l0.081,-0.041l0.081,-0.043l0.081,-0.043l0.079,-0.045l0.08,-0.045l0.078,-0.047l0.079,-0.047l0.077,-0.049l0.078,-0.049l0.076,-0.05l0.076,-0.052l0.076,-0.052l0.074,-0.053l0.074,-0.054l0.074,-0.056l0.073,-0.056l0.072,-0.057l0.072,-0.058l0.071,-0.059l0.07,-0.06l0.07,-0.06l0.069,-0.062l0.068,-0.063l0.068,-0.063l0.067,-0.065l0.066,-0.065l0.065,-0.066l0.065,-0.067l0.063,-0.068l0.063,-0.068l0.062,-0.069l0.06,-0.07l0.06,-0.07l0.059,-0.071l0.058,-0.072l0.057,-0.072l0.056,-0.073l0.055,-0.074l0.055,-0.074l0.053,-0.075l0.052,-0.075l0.052,-0.076l0.05,-0.076l0.049,-0.078l0.049,-0.077l0.047,-0.079l0.047,-0.078l0.045,-0.08l0.045,-0.079l0.043,-0.081l0.043,-0.081l0.041,-0.081l0.041,-0.082l0.039,-0.082l0.039,-0.083l0.037,-0.083l0.037,-0.084l0.035,-0.084l0.035,-0.085l0.033,-0.085l0.032,-0.085l0.032,-0.086l0.03,-0.086l0.029,-0.086l0.028,-0.087l0.027,-0.087l0.027,-0.088l0.025,-0.088l0.023,-0.088l0.023,-0.089l0.022,-0.089l0.021,-0.089l0.019,-0.089l0.019,-0.09l0.017,-0.09l0.017,-0.09l0.015,-0.091l0.014,-0.091l0.013,-0.091l0.012,-0.091l0.011,-0.091l0.009,-0.092l0.009,-0.092l0.007,-0.092l0.007,-0.092l0.005,-0.093l0.004,-0.092l0.003,-0.093l0.001,-0.093l0.001,-0.094l-0.001,-0.15l-0.003,-0.149l-0.005,-0.148l-0.006,-0.148l-0.008,-0.147l-0.011,-0.147l-0.012,-0.146l-0.014,-0.146l-0.015,-0.145l-0.018,-0.144l-0.019,-0.144l-0.021,-0.143l-0.023,-0.143l-0.024,-0.142l-0.026,-0.141l-0.028,-0.141l-0.03,-0.14l-0.031,-0.139l-0.033,-0.139l-0.034,-0.138l-0.037,-0.138l-0.038,-0.136l-0.039,-0.136l-0.041,-0.136l-0.043,-0.134l-0.045,-0.134l-0.046,-0.133l-0.047,-0.133l-0.049,-0.132l-0.051,-0.131l-0.052,-0.13l-0.054,-0.129l-0.055,-0.129l-0.057,-0.128l-0.059,-0.126l-0.059,-0.127l-0.062,-0.125l-0.063,-0.125l-0.064,-0.123l-0.066,-0.123l-0.067,-0.122l-0.068,-0.121l-0.07,-0.12l-0.072,-0.119l-0.073,-0.118l-0.074,-0.117l-0.075,-0.117l-0.077,-0.115l-0.079,-0.115l-0.079,-0.113l-0.081,-0.112l-0.082,-0.112l-0.084,-0.11l-0.085,-0.11l-0.086,-0.108l-0.088,-0.107l-0.088,-0.106l-0.09,-0.105l-0.091,-0.104l-0.093,-0.103l-0.093,-0.102l-0.095,-0.101l-0.096,-0.099l-0.097,-0.099l-0.099,-0.097l-0.099,-0.096l-0.101,-0.095l-0.102,-0.093l-0.103,-0.093l-0.104,-0.091l-0.105,-0.09l-0.106,-0.088l-0.107,-0.088l-0.108,-0.086l-0.11,-0.085l-0.11,-0.084l-0.112,-0.082l-0.112,-0.081l-0.113,-0.079l-0.115,-0.079l-0.115,-0.077l-0.117,-0.075l-0.117,-0.074l-0.118,-0.073l-0.119,-0.072l-0.12,-0.07l-0.121,-0.068l-0.122,-0.067l-0.123,-0.066l-0.124,-0.064l-0.124,-0.063l-0.125,-0.062l-0.126,-0.059l-0.127,-0.059l-0.128,-0.057l-0.129,-0.055l-0.129,-0.054l-0.13,-0.052l-0.131,-0.051l-0.132,-0.049l-0.133,-0.047l-0.133,-0.046l-0.134,-0.045l-0.134,-0.043l-0.136,-0.041l-0.136,-0.039l-0.137,-0.038l-0.137,-0.037l-0.138,-0.034l-0.139,-0.033l-0.139,-0.031l-0.14,-0.03l-0.141,-0.028l-0.141,-0.026l-0.142,-0.024l-0.143,-0.023l-0.143,-0.021l-0.144,-0.019l-0.144,-0.018l-0.145,-0.015l-0.146,-0.014l-0.146,-0.012l-0.147,-0.011l-0.147,-0.008l-0.148,-0.006l-0.148,-0.005l-0.149,-0.003l-0.155,-0.001l-0.96,0Z"/></g><g id="emoji"><path d="M30,20.514c0,-7.464 -6.05,-13.514 -13.514,-13.514c-0.324,0 -0.648,0 -0.972,0c-7.464,0 -13.514,6.05 -13.514,13.514c0,0.001 0,0.001 0,0.002c0,2.515 0.999,4.928 2.778,6.706c1.778,1.779 4.191,2.778 6.706,2.778c2.913,0 6.119,0 9.032,0c2.515,0 4.928,-0.999 6.706,-2.778c1.779,-1.778 2.778,-4.191 2.778,-6.706c0,-0.001 0,-0.001 0,-0.002Z" style="fill:#fbc546;"/><g><path d="M24.947,17.106c0.494,0.247 0.694,0.847 0.447,1.341c0,0.001 0,0.001 0,0.001c-0.247,0.494 -0.847,0.694 -1.34,0.447c-1.204,-0.602 -3.332,-1.666 -4.524,-2.262c-0.232,-0.116 -0.407,-0.318 -0.489,-0.563c-0.082,-0.245 -0.063,-0.513 0.053,-0.744c0,0 0,-0.001 0,-0.001c0.122,-0.243 0.335,-0.428 0.593,-0.514c0.258,-0.086 0.539,-0.066 0.783,0.056c1.199,0.6 3.289,1.644 4.477,2.239Z" style="fill-rule:nonzero;"/><path d="M12.894,15.303c0.247,0.494 0.047,1.094 -0.447,1.341c-1.196,0.599 -3.305,1.653 -4.501,2.251c-0.493,0.247 -1.093,0.047 -1.34,-0.447c0,0 -0.001,-0.001 -0.001,-0.002c-0.247,-0.493 -0.047,-1.093 0.447,-1.34c1.196,-0.598 3.306,-1.653 4.502,-2.251c0.493,-0.247 1.093,-0.047 1.34,0.447c0,0 0,0 0,0.001Z" style="fill-rule:nonzero;"/></g><path d="M9,26c0,0 0.921,-0.921 1.879,-1.879c1.358,-1.358 3.2,-2.121 5.121,-2.121c0,0 0,0 0,0c1.921,0 3.763,0.763 5.121,2.121c0.958,0.958 1.879,1.879 1.879,1.879" style="fill:none;stroke:#593604;stroke-width:2px;"/></g></g></svg>