<?xml version="1.0" encoding="UTF-8" standalone="no"?>
<!DOCTYPE svg PUBLIC "-//W3C//DTD SVG 1.1//EN" "http://www.w3.org/Graphics/SVG/1.1/DTD/svg11.dtd">
<svg width="100%" height="100%" viewBox="0 0 32 32" version="1.1" xmlns="http://www.w3.org/2000/svg" xmlns:xlink="http://www.w3.org/1999/xlink" xml:space="preserve" xmlns:serif="http://www.serif.com/" style="fill-rule:evenodd;clip-rule:evenodd;stroke-linejoin:round;stroke-miterlimit:2;">
    <rect id="loud_cry" x="0" y="0" width="32" height="32" style="fill:none;"/>
    <clipPath id="_clip1">
        <rect x="0" y="0" width="32" height="32"/>
    </clipPath>
    <g clip-path="url(#_clip1)">
        <g id="outline">
            <path d="M16,2c8.837,0 16,7.163 16,16l0,1c0,7.18 -5.82,13 -13,13c-1.972,0 -4.028,0 -6,0c-7.18,0 -13,-5.82 -13,-13c0,-0.332 0,-0.665 0,-1c0,-8.837 7.163,-16 16,-16l0,0Z"/>
        </g>
        <g id="emoji">
            <g>
                <path d="M6.5,27.875c-2.729,-2.002 -4.5,-5.232 -4.5,-8.875c0,-0.332 0,-0.665 0,-1c0,-7.732 6.268,-14 14,-14c0,0 0,0 0,0c7.732,0 14,6.268 14,14c0,0.335 0,0.668 0,1c0,3.643 -1.771,6.873 -4.5,8.875l-6,2.114c-0.166,0.007 -0.332,0.011 -0.5,0.011c-1.972,0 -4.028,0 -6,0c-0.168,0 -0.334,-0.004 -0.5,-0.011l-6,-2.114Z" style="fill:#fbc546;"/>
                <path d="M19.5,29.989l0,-12.989l6,1l0,9.875c-1.696,1.244 -3.761,2.014 -6,2.114Zm-7,0c-2.239,-0.1 -4.305,-0.87 -6,-2.114l0,-9.875l6,-1l0,12.989Z" style="fill:#41b4de;"/>
            </g>
            <path d="M9.649,16.063l-2.856,-2.856c-0.39,-0.39 -0.39,-1.024 0,-1.414c0.39,-0.39 1.024,-0.39 1.414,0l5.144,5.144l-5.535,1.845c-0.523,0.175 -1.09,-0.109 -1.265,-0.632c-0.174,-0.524 0.109,-1.091 0.633,-1.265l2.465,-0.822Zm12.702,0l2.465,0.822c0.524,0.174 0.807,0.741 0.633,1.265c-0.175,0.523 -0.742,0.807 -1.265,0.632l-5.535,-1.845l5.144,-5.144c0.39,-0.39 1.024,-0.39 1.414,0c0.39,0.39 0.39,1.024 0,1.414l-2.856,2.856Z"/>
            <g>
                <path d="M9.967,25.875c-0.445,-0.165 -0.824,-0.487 -1.059,-0.917c-0.351,-0.642 -0.323,-1.424 0.073,-2.04c0.15,-0.233 0.302,-0.469 0.452,-0.703c1.288,-2.004 3.507,-3.215 5.889,-3.215c0.449,0 0.907,0 1.356,0c2.382,0 4.601,1.211 5.889,3.215c0.15,0.234 0.302,0.47 0.452,0.703c0.396,0.616 0.424,1.398 0.073,2.04c-0.235,0.43 -0.614,0.752 -1.059,0.917c-1.109,-1.171 -10.957,-1.171 -12.066,0Z" style="fill:#722245;"/>
                <path d="M9.967,25.875c1.109,-1.171 2.672,-1.875 4.358,-1.875c1.09,0 2.26,0 3.35,0c1.686,0 3.249,0.704 4.358,1.875c-0.22,0.081 -0.455,0.125 -0.696,0.125c-3.114,0 -7.56,0 -10.674,0c-0.241,0 -0.476,-0.044 -0.696,-0.125Z" style="fill:#ca3b8f;"/>
            </g>
        </g>
    </g>
</svg>
