<?xml version="1.0" encoding="UTF-8" standalone="no"?>
<!DOCTYPE svg PUBLIC "-//W3C//DTD SVG 1.1//EN" "http://www.w3.org/Graphics/SVG/1.1/DTD/svg11.dtd">
<svg width="100%" height="100%" viewBox="0 0 32 32" version="1.1" xmlns="http://www.w3.org/2000/svg" xmlns:xlink="http://www.w3.org/1999/xlink" xml:space="preserve" xmlns:serif="http://www.serif.com/" style="fill-rule:evenodd;clip-rule:evenodd;stroke-linecap:round;stroke-linejoin:round;stroke-miterlimit:1.5;">
    <rect id="persevering" x="0" y="0" width="32" height="32" style="fill:none;"/>
    <clipPath id="_clip1">
        <rect x="0" y="0" width="32" height="32"/>
    </clipPath>
    <g clip-path="url(#_clip1)">
        <g id="outline">
            <path d="M16,2c8.837,0 16,7.163 16,16l0,1c0,7.18 -5.82,13 -13,13c-1.972,0 -4.028,0 -6,0c-7.18,0 -13,-5.82 -13,-13c0,-0.332 0,-0.665 0,-1c0,-8.837 7.163,-16 16,-16l0,0Z"/>
        </g>
        <g id="emoji">
            <path d="M30,18c0,-7.732 -6.268,-14 -14,-14c0,0 0,0 0,0c-7.732,0 -14,6.268 -14,14c0,0.335 0,0.668 0,1c0,6.075 4.925,11 11,11c1.972,0 4.028,0 6,0c6.075,0 11,-4.925 11,-11c0,-0.332 0,-0.665 0,-1Z" style="fill:#fbc546;"/>
            <path d="M21.851,17.063l2.465,0.822c0.524,0.174 0.807,0.741 0.633,1.265c-0.175,0.523 -0.742,0.807 -1.265,0.632l-5.535,-1.845l5.144,-5.144c0.39,-0.39 1.024,-0.39 1.414,0c0.39,0.39 0.39,1.024 0,1.414l-2.856,2.856Zm-11.702,0l-2.856,-2.856c-0.39,-0.39 -0.39,-1.024 0,-1.414c0.39,-0.39 1.024,-0.39 1.414,0l5.144,5.144l-5.535,1.845c-0.523,0.175 -1.09,-0.109 -1.265,-0.632c-0.174,-0.524 0.109,-1.091 0.633,-1.265l2.465,-0.822Z"/>
            <path d="M11,25c0,0 0.136,-0.204 0.336,-0.505c1.04,-1.559 2.789,-2.495 4.663,-2.495l0.002,0c1.874,0 3.623,0.936 4.663,2.495c0.2,0.301 0.336,0.505 0.336,0.505" style="fill:none;stroke:#593604;stroke-width:2px;"/>
        </g>
    </g>
</svg>
