<?xml version="1.0" encoding="UTF-8" standalone="no"?>
<!DOCTYPE svg PUBLIC "-//W3C//DTD SVG 1.1//EN" "http://www.w3.org/Graphics/SVG/1.1/DTD/svg11.dtd">
<svg width="100%" height="100%" viewBox="0 0 32 32" version="1.1" xmlns="http://www.w3.org/2000/svg" xmlns:xlink="http://www.w3.org/1999/xlink" xml:space="preserve" xmlns:serif="http://www.serif.com/" style="fill-rule:evenodd;clip-rule:evenodd;stroke-linecap:round;stroke-miterlimit:1.5;">
    <rect id="smile_w_tear" x="0" y="0" width="32" height="32" style="fill:none;"/>
    <clipPath id="_clip1">
        <rect x="0" y="0" width="32" height="32"/>
    </clipPath>
    <g clip-path="url(#_clip1)">
        <g id="outline">
            <path d="M16,1c4.243,0 8.313,1.686 11.314,4.686c3,3.001 4.686,7.071 4.686,11.314c0,0.334 0,0.668 0,1c0,7.732 -6.268,14 -14,14c-1.325,0 -2.675,0 -4,0c-7.732,0 -14,-6.268 -14,-14l0,-1c0,-8.837 7.163,-16 16,-16l0,0Z"/>
        </g>
        <g id="emoji">
            <path d="M30,17c0,-3.713 -1.475,-7.274 -4.101,-9.899c-2.625,-2.626 -6.186,-4.101 -9.899,-4.101l0,0c-7.732,0 -14,6.268 -14,14l0,1c0,6.627 5.373,12 12,12c1.325,0 2.675,0 4,0c6.627,0 12,-5.373 12,-12c0,-0.332 0,-0.666 0,-1Z" style="fill:#fbc546;"/>
            <g>
                <path d="M21.113,9.207c-0.222,0.569 2.442,1.952 2.882,1.647l2.005,1.146l0,1.502c0,0.928 -0.369,1.817 -1.025,2.473c-0.656,0.656 -1.545,1.025 -2.473,1.025l-0.002,0c-1.933,0 -3.5,-1.567 -3.5,-3.5c0,-0.657 0,-1.345 0,-2.002c0,-0.928 0.369,-1.817 1.025,-2.473c0.095,-0.096 0.195,-0.185 0.3,-0.268l0.788,0.45Z" style="fill:#fff;"/>
                <path d="M21.113,9.207l2.882,1.647c0.003,0.048 0.005,0.097 0.005,0.146c0,0.936 0,2.048 0,2.983c0,0.531 -0.211,1.039 -0.586,1.415c-0.375,0.375 -0.884,0.585 -1.414,0.585c-0.53,0 -1.039,-0.21 -1.414,-0.585c-0.375,-0.376 -0.586,-0.884 -0.586,-1.415c0,-0.935 0,-2.047 0,-2.983c0,-0.53 0.211,-1.039 0.586,-1.414c0.155,-0.156 0.334,-0.283 0.527,-0.379Z"/>
            </g>
            <g>
                <path d="M10.887,9.207c0.222,0.569 -2.442,1.952 -2.882,1.647l-2.005,1.146l0,1.502c0,0.928 0.369,1.817 1.025,2.473c0.656,0.656 1.545,1.025 2.473,1.025l0.002,0c1.933,0 3.5,-1.567 3.5,-3.5c0,-0.657 0,-1.345 0,-2.002c0,-0.928 -0.369,-1.817 -1.025,-2.473c-0.095,-0.096 -0.195,-0.185 -0.3,-0.268l-0.788,0.45Z" style="fill:#fff;"/>
                <path d="M10.887,9.207l-2.882,1.647c-0.003,0.048 -0.005,0.097 -0.005,0.146c0,0.936 0,2.048 0,2.983c0,0.531 0.211,1.039 0.586,1.415c0.375,0.375 0.884,0.585 1.414,0.585c0.53,0 1.039,-0.21 1.414,-0.585c0.375,-0.376 0.586,-0.884 0.586,-1.415c0,-0.935 0,-2.047 0,-2.983c0,-0.53 -0.211,-1.039 -0.586,-1.414c-0.155,-0.156 -0.334,-0.283 -0.527,-0.379Z"/>
            </g>
            <path d="M8,20c0,0 0,0 0.001,0.001c1.888,2.517 4.851,3.999 7.998,3.999c0,0 0.001,0 0.001,0c3.148,0 6.111,-1.482 8,-4c0,0 0,0 0,0" style="fill:none;stroke:#593604;stroke-width:2px;"/>
            <path d="M25.5,14c0,0 -1.757,3.514 -2.942,5.884c-0.632,1.264 -0.384,2.79 0.615,3.789c0,0 0,0 0.001,0.001c0.617,0.617 1.453,0.963 2.326,0.963c0.873,0 1.709,-0.346 2.326,-0.963c0.001,-0.001 0.001,-0.001 0.001,-0.001c0.999,-0.999 1.247,-2.525 0.615,-3.789c-1.185,-2.37 -2.942,-5.884 -2.942,-5.884Z" style="fill:#41b4de;"/>
        </g>
    </g>
</svg>
