<?xml version="1.0" encoding="UTF-8" standalone="no"?>
<!DOCTYPE svg PUBLIC "-//W3C//DTD SVG 1.1//EN" "http://www.w3.org/Graphics/SVG/1.1/DTD/svg11.dtd">
<svg width="100%" height="100%" viewBox="0 0 32 32" version="1.1" xmlns="http://www.w3.org/2000/svg" xmlns:xlink="http://www.w3.org/1999/xlink" xml:space="preserve" xmlns:serif="http://www.serif.com/" style="fill-rule:evenodd;clip-rule:evenodd;stroke-linecap:round;stroke-linejoin:round;stroke-miterlimit:1.5;">
    <rect id="unhappy" x="0" y="0" width="32" height="32" style="fill:none;"/>
    <clipPath id="_clip1">
        <rect x="0" y="0" width="32" height="32"/>
    </clipPath>
    <g clip-path="url(#_clip1)">
        <g id="outline">
            <path d="M16,3c8.837,0 16,7.163 16,16l0,0.502c0,6.902 -5.596,12.498 -12.498,12.498l-7.004,0c-6.902,0 -12.498,-5.596 -12.498,-12.498c0,-0.167 0,-0.334 0,-0.502c0,-8.837 7.163,-16 16,-16l0,0Z"/>
        </g>
        <g id="emoji">
            <path d="M30,19c0,-7.732 -6.268,-14 -14,-14c0,0 0,0 0,0c-7.732,0 -14,6.268 -14,14c0,0.168 0,0.335 0,0.502c0,5.798 4.7,10.498 10.498,10.498l7.004,0c5.798,0 10.498,-4.7 10.498,-10.498l0,-0.502Z" style="fill:#fbc546;"/>
            <g>
                <path d="M10.887,10.207l0.788,-0.45c0.105,0.083 0.205,0.172 0.3,0.268c0.656,0.656 1.025,1.545 1.025,2.473c0,0.657 0,1.345 0,2.002c0,1.933 -1.567,3.5 -3.5,3.5l-0.002,0c-0.928,0 -1.817,-0.369 -2.473,-1.025c-0.656,-0.656 -1.025,-1.545 -1.025,-2.473l0,-1.502l2.005,-1.146c0.564,0.134 2.884,-0.997 2.882,-1.647Z" style="fill:#fff;"/>
                <path d="M10.887,10.207c0.193,0.096 0.372,0.223 0.527,0.379c0.375,0.375 0.586,0.884 0.586,1.414c0,0.936 0,2.048 0,2.983c0,0.531 -0.211,1.039 -0.586,1.415c-0.375,0.375 -0.884,0.585 -1.414,0.585c-0.53,0 -1.039,-0.21 -1.414,-0.585c-0.375,-0.376 -0.586,-0.884 -0.586,-1.415c0,-0.935 0,-2.047 0,-2.983c0,-0.049 0.002,-0.098 0.005,-0.146l2.882,-1.647Z"/>
            </g>
            <g>
                <path d="M21.113,10.207l-0.788,-0.45c-0.105,0.083 -0.205,0.172 -0.3,0.268c-0.656,0.656 -1.025,1.545 -1.025,2.473c0,0.657 0,1.345 0,2.002c0,1.933 1.567,3.5 3.5,3.5l0.002,0c0.928,0 1.817,-0.369 2.473,-1.025c0.656,-0.656 1.025,-1.545 1.025,-2.473l0,-1.502l-2.005,-1.146c-0.564,0.134 -2.884,-0.997 -2.882,-1.647Z" style="fill:#fff;"/>
                <path d="M21.113,10.207c-0.193,0.096 -0.372,0.223 -0.527,0.379c-0.375,0.375 -0.586,0.884 -0.586,1.414c0,0.936 0,2.048 0,2.983c0,0.531 0.211,1.039 0.586,1.415c0.375,0.375 0.884,0.585 1.414,0.585c0.53,0 1.039,-0.21 1.414,-0.585c0.375,-0.376 0.586,-0.884 0.586,-1.415c0,-0.935 0,-2.047 0,-2.983c0,-0.049 -0.002,-0.098 -0.005,-0.146l-2.882,-1.647Z"/>
            </g>
            <path d="M9,24c0,0 0.921,-0.921 1.879,-1.879c1.358,-1.358 3.2,-2.121 5.121,-2.121c0,0 0,0 0,0c1.921,0 3.763,0.763 5.121,2.121c0.958,0.958 1.879,1.879 1.879,1.879" style="fill:none;stroke:#593604;stroke-width:2px;"/>
        </g>
    </g>
</svg>
