<?xml version="1.0" encoding="UTF-8" standalone="no"?>
<!DOCTYPE svg PUBLIC "-//W3C//DTD SVG 1.1//EN" "http://www.w3.org/Graphics/SVG/1.1/DTD/svg11.dtd">
<svg width="100%" height="100%" viewBox="0 0 32 32" version="1.1" xmlns="http://www.w3.org/2000/svg" xmlns:xlink="http://www.w3.org/1999/xlink" xml:space="preserve" xmlns:serif="http://www.serif.com/" style="fill-rule:evenodd;clip-rule:evenodd;stroke-linejoin:round;stroke-miterlimit:2;">
    <rect id="earth_asia_oceania" x="0" y="0" width="32" height="32" style="fill:none;"/>
    <clipPath id="_clip1">
        <rect x="0" y="0" width="32" height="32"/>
    </clipPath>
    <g clip-path="url(#_clip1)">
        <g id="outline">
            <circle cx="16" cy="16" r="16"/>
        </g>
        <g id="emoji">
            <circle cx="16" cy="16" r="14" style="fill:#0750fa;"/>
            <clipPath id="_clip2">
                <circle cx="16" cy="16" r="14"/>
            </clipPath>
            <g clip-path="url(#_clip2)">
                <circle cx="19" cy="13" r="13" style="fill:#2867fa;"/>
                <path d="M1,14l1,2c0,0 0.187,0.562 0.4,1.199c0.395,1.185 1.059,2.26 1.942,3.143c0,0 0.001,0.001 0.001,0.001c0.11,0.11 0.275,0.143 0.419,0.083c0.144,-0.059 0.238,-0.2 0.238,-0.355c0,-0.262 0,-0.551 0,-0.828c0,-0.796 0.316,-1.559 0.879,-2.122c0.885,-0.885 2.121,-2.121 2.121,-2.121l1,2l1,0l0,3.241c0,0.503 0.081,1.002 0.24,1.479c0.181,0.544 0.426,1.277 0.588,1.763c0.037,0.111 0.128,0.194 0.242,0.221c0.113,0.027 0.233,-0.007 0.315,-0.089c0.153,-0.153 0.322,-0.322 0.443,-0.443c0.103,-0.103 0.128,-0.259 0.063,-0.389c-0.097,-0.195 -0.247,-0.496 -0.397,-0.795c-0.325,-0.65 -0.494,-1.366 -0.494,-2.092c0,-0.856 0,-1.896 0,-1.896c0,0 0.371,0.742 0.661,1.322c0.208,0.416 0.632,0.678 1.097,0.678c0,0 0.001,0 0.002,0c0.685,0 1.24,-0.555 1.24,-1.24l0,-0.436c0,-0.213 -0.05,-0.423 -0.145,-0.613c-0.277,-0.555 -0.855,-1.711 -0.855,-1.711l1.528,0c0.31,0 0.617,-0.072 0.894,-0.211c0.583,-0.291 1.654,-0.827 2.472,-1.236c0.678,-0.339 1.106,-1.032 1.106,-1.789c0,-0.456 0,-0.945 0,-1.292c0,-0.31 -0.072,-0.617 -0.211,-0.894c-0.113,-0.227 -0.257,-0.513 -0.39,-0.78c-0.262,-0.525 -0.399,-1.104 -0.399,-1.691c0,-0.066 0,-0.107 0,-0.107c0,0 1.173,1.173 1.723,1.723c0.073,0.073 0.173,0.114 0.277,0.114c0.104,0 0.204,-0.041 0.277,-0.114c0.139,-0.139 0.307,-0.307 0.446,-0.446c0.073,-0.073 0.114,-0.173 0.114,-0.277c0,-0.104 -0.041,-0.204 -0.114,-0.277c-0.296,-0.296 -0.723,-0.723 -0.723,-0.723l0.336,0c0.367,0 0.664,-0.297 0.664,-0.664c0,-0.883 0,-2.336 0,-2.336c0,0 0.718,0.359 1.293,0.647c0.152,0.075 0.331,0.067 0.475,-0.022c0.144,-0.089 0.232,-0.246 0.232,-0.415c0,-0.035 0,-0.067 0,-0.095c0,-0.076 -0.018,-0.15 -0.052,-0.218c-0.204,-0.409 -0.948,-1.897 -0.948,-1.897l0,-1l-21,0l0,12Z" style="fill:#48bd28;"/>
                <clipPath id="_clip3">
                    <path d="M1,14l1,2c0,0 0.187,0.562 0.4,1.199c0.395,1.185 1.059,2.26 1.942,3.143c0,0 0.001,0.001 0.001,0.001c0.11,0.11 0.275,0.143 0.419,0.083c0.144,-0.059 0.238,-0.2 0.238,-0.355c0,-0.262 0,-0.551 0,-0.828c0,-0.796 0.316,-1.559 0.879,-2.122c0.885,-0.885 2.121,-2.121 2.121,-2.121l1,2l1,0l0,3.241c0,0.503 0.081,1.002 0.24,1.479c0.181,0.544 0.426,1.277 0.588,1.763c0.037,0.111 0.128,0.194 0.242,0.221c0.113,0.027 0.233,-0.007 0.315,-0.089c0.153,-0.153 0.322,-0.322 0.443,-0.443c0.103,-0.103 0.128,-0.259 0.063,-0.389c-0.097,-0.195 -0.247,-0.496 -0.397,-0.795c-0.325,-0.65 -0.494,-1.366 -0.494,-2.092c0,-0.856 0,-1.896 0,-1.896c0,0 0.371,0.742 0.661,1.322c0.208,0.416 0.632,0.678 1.097,0.678c0,0 0.001,0 0.002,0c0.685,0 1.24,-0.555 1.24,-1.24l0,-0.436c0,-0.213 -0.05,-0.423 -0.145,-0.613c-0.277,-0.555 -0.855,-1.711 -0.855,-1.711l1.528,0c0.31,0 0.617,-0.072 0.894,-0.211c0.583,-0.291 1.654,-0.827 2.472,-1.236c0.678,-0.339 1.106,-1.032 1.106,-1.789c0,-0.456 0,-0.945 0,-1.292c0,-0.31 -0.072,-0.617 -0.211,-0.894c-0.113,-0.227 -0.257,-0.513 -0.39,-0.78c-0.262,-0.525 -0.399,-1.104 -0.399,-1.691c0,-0.066 0,-0.107 0,-0.107c0,0 1.173,1.173 1.723,1.723c0.073,0.073 0.173,0.114 0.277,0.114c0.104,0 0.204,-0.041 0.277,-0.114c0.139,-0.139 0.307,-0.307 0.446,-0.446c0.073,-0.073 0.114,-0.173 0.114,-0.277c0,-0.104 -0.041,-0.204 -0.114,-0.277c-0.296,-0.296 -0.723,-0.723 -0.723,-0.723l0.336,0c0.367,0 0.664,-0.297 0.664,-0.664c0,-0.883 0,-2.336 0,-2.336c0,0 0.718,0.359 1.293,0.647c0.152,0.075 0.331,0.067 0.475,-0.022c0.144,-0.089 0.232,-0.246 0.232,-0.415c0,-0.035 0,-0.067 0,-0.095c0,-0.076 -0.018,-0.15 -0.052,-0.218c-0.204,-0.409 -0.948,-1.897 -0.948,-1.897l0,-1l-21,0l0,12Z"/>
                </clipPath>
                <g clip-path="url(#_clip3)">
                    <circle cx="19" cy="13" r="13" style="fill:#4ecd2b;"/>
                    <path d="M2,7l13,0l0,0.001c0,0.603 -0.367,1.146 -0.928,1.37c-0.711,0.285 -1.572,0.629 -1.572,0.629l2,1.5c0,0 -0.018,0.006 -0.049,0.016c-0.961,0.321 -1.968,0.484 -2.981,0.484c-0.862,0 -1.908,0 -2.624,0c-0.224,0 -0.44,0.089 -0.598,0.248c-0.159,0.158 -0.248,0.374 -0.248,0.598c0,0 0,0.001 0,0.001c0,0.384 0.261,0.718 0.633,0.811c0.586,0.147 1.367,0.342 1.367,0.342c0,0 -2.404,0.401 -4.168,0.695c-1.057,0.176 -1.832,1.09 -1.832,2.162c0,2.074 0,5.143 0,5.143l-2,0l0,-14Z" style="fill:#f4c815;"/>
                </g>
                <g>
                    <path d="M22.279,7c-0.154,0 -0.279,0.125 -0.279,0.279c0,0.322 0,0.856 0,1.244c0,0.305 -0.121,0.598 -0.337,0.814c-0.39,0.39 -1.025,1.025 -1.387,1.387c-0.152,0.152 -0.152,0.4 0,0.552c0.12,0.12 0.261,0.261 0.387,0.387c0.083,0.083 0.198,0.124 0.315,0.113c0.116,-0.012 0.221,-0.075 0.286,-0.172c0.408,-0.612 1.182,-1.773 1.543,-2.314c0.126,-0.189 0.193,-0.411 0.193,-0.639c0,-0.39 0,-1.013 0,-1.372c0,-0.154 -0.125,-0.279 -0.279,-0.279c-0.138,0 -0.304,0 -0.442,0Z" style="fill:#4ecd2b;"/>
                    <path d="M16,17.847c0,-0.093 -0.064,-0.173 -0.154,-0.194c-0.09,-0.022 -0.183,0.022 -0.225,0.105c-0.241,0.482 -0.522,1.043 -0.6,1.2c-0.014,0.028 -0.021,0.058 -0.021,0.089c0,0.158 0,0.669 0,0.87c0,0.053 0.021,0.104 0.059,0.142c0.115,0.115 0.38,0.38 0.6,0.6c0.057,0.057 0.143,0.074 0.218,0.043c0.074,-0.031 0.123,-0.104 0.123,-0.185c0,-0.661 0,-1.858 0,-2.67Z" style="fill:#4ecd2b;"/>
                    <path d="M17,20l0,0.917c0,0.053 -0.021,0.104 -0.059,0.142c-0.154,0.154 -0.577,0.577 -0.8,0.8c-0.078,0.078 -0.078,0.204 0,0.282c0.191,0.191 0.527,0.527 0.718,0.718c0.078,0.078 0.204,0.078 0.282,0c0.223,-0.223 0.646,-0.646 0.8,-0.8c0.038,-0.038 0.059,-0.089 0.059,-0.142c0,-0.188 0,-0.646 0,-0.834c0,-0.053 0.021,-0.104 0.059,-0.142c0.115,-0.115 0.38,-0.38 0.6,-0.6c0.057,-0.057 0.074,-0.143 0.043,-0.218c-0.031,-0.074 -0.104,-0.123 -0.185,-0.123c-0.255,0 -0.517,0 -0.517,0l-1,0" style="fill:#4ecd2b;"/>
                    <path d="M20.2,20c-0.11,0 -0.2,0.09 -0.2,0.2c0,0.174 0,0.426 0,0.6c0,0.11 0.09,0.2 0.2,0.2c0.449,0 1.516,0 1.753,0c0.031,0 0.061,0.007 0.089,0.021c0.213,0.107 1.177,0.589 1.669,0.834c0.062,0.031 0.135,0.028 0.194,-0.008c0.059,-0.037 0.095,-0.101 0.095,-0.171c0,-0.208 0,-0.464 0,-0.593c0,-0.053 0.021,-0.104 0.059,-0.142c0.177,-0.177 0.705,-0.705 0.882,-0.882c0.038,-0.038 0.059,-0.089 0.059,-0.142c0,-0.129 0,-0.385 0,-0.593c0,-0.07 -0.036,-0.134 -0.095,-0.171c-0.059,-0.036 -0.132,-0.039 -0.194,-0.008c-0.492,0.245 -1.456,0.727 -1.669,0.834c-0.028,0.014 -0.058,0.021 -0.089,0.021c-0.317,0 -2.141,0 -2.753,0Z" style="fill:#4ecd2b;"/>
                    <path d="M18,17.5c0,-0.276 0.224,-0.5 0.5,-0.5c0.133,0 0.26,0.053 0.354,0.146c0.093,0.094 0.146,0.221 0.146,0.354c0,0.092 0,0.191 0,0.293c0,0.202 -0.122,0.384 -0.309,0.462c-0.186,0.077 -0.402,0.034 -0.545,-0.109c-0.093,-0.093 -0.146,-0.22 -0.146,-0.353c0,-0.086 0,-0.189 0,-0.293Z" style="fill:#4ecd2b;"/>
                    <path d="M18.5,15c-0.276,0 -0.5,0.224 -0.5,0.5c0,0.276 0.224,0.5 0.5,0.5c0.276,0 0.5,-0.224 0.5,-0.5c0,-0.276 -0.224,-0.5 -0.5,-0.5l0,0Z" style="fill:#4ecd2b;"/>
                    <path d="M16.2,24c-0.11,0 -0.2,0.09 -0.2,0.2c0,0.174 0,0.426 0,0.6c0,0.11 0.09,0.2 0.2,0.2l0.717,0c0.053,0 0.104,-0.021 0.142,-0.059c0.115,-0.115 0.38,-0.38 0.6,-0.6c0.057,-0.057 0.074,-0.143 0.043,-0.218c-0.031,-0.074 -0.104,-0.123 -0.185,-0.123c-0.421,0 -1.012,0 -1.317,0Z" style="fill:#4ecd2b;"/>
                </g>
                <path d="M13.059,23.941c-0.038,0.038 -0.059,0.089 -0.059,0.142c0,0.293 0,1.288 0,1.717c0,0.11 0.09,0.2 0.2,0.2c0.202,0 0.507,0 0.676,0c0.076,0 0.145,-0.043 0.179,-0.111c0.189,-0.377 0.802,-1.603 0.924,-1.847c0.014,-0.028 0.021,-0.058 0.021,-0.089c0,-0.196 0,-0.958 0,-1.47c0,-0.081 -0.049,-0.154 -0.123,-0.185c-0.075,-0.031 -0.161,-0.014 -0.218,0.043c-0.492,0.492 -1.367,1.367 -1.6,1.6Z" style="fill:#48bd28;"/>
                <clipPath id="_clip4">
                    <path d="M13.059,23.941c-0.038,0.038 -0.059,0.089 -0.059,0.142c0,0.293 0,1.288 0,1.717c0,0.11 0.09,0.2 0.2,0.2c0.202,0 0.507,0 0.676,0c0.076,0 0.145,-0.043 0.179,-0.111c0.189,-0.377 0.802,-1.603 0.924,-1.847c0.014,-0.028 0.021,-0.058 0.021,-0.089c0,-0.196 0,-0.958 0,-1.47c0,-0.081 -0.049,-0.154 -0.123,-0.185c-0.075,-0.031 -0.161,-0.014 -0.218,0.043c-0.492,0.492 -1.367,1.367 -1.6,1.6Z"/>
                </clipPath>
                <g clip-path="url(#_clip4)">
                    <circle cx="19" cy="13" r="13" style="fill:#4ecd2b;"/>
                </g>
                <path d="M17,30c0,0 -0.219,-0.656 -0.451,-1.354c-0.315,-0.945 0.112,-1.977 1.002,-2.422c1.125,-0.562 2.449,-1.224 2.449,-1.224l2,-3l1,2l1,0l1,-2l0,2l2,4l-2,3l-3,-1l-5,0Z" style="fill:#48bd28;"/>
                <clipPath id="_clip5">
                    <path d="M17,30c0,0 -0.219,-0.656 -0.451,-1.354c-0.315,-0.945 0.112,-1.977 1.002,-2.422c1.125,-0.562 2.449,-1.224 2.449,-1.224l2,-3l1,2l1,0l1,-2l0,2l2,4l-2,3l-3,-1l-5,0Z"/>
                </clipPath>
                <g clip-path="url(#_clip5)">
                    <circle cx="19" cy="13" r="13" style="fill:#4ecd2b;"/>
                    <path d="M16,26l5,0l1,-1l3,1l0,3l-6,0l-3,-2l0,-1" style="fill:#f4c815;"/>
                </g>
                <path d="M8,23c0,0 0.865,0.865 0.986,0.986c0.009,0.009 0.018,0.02 0.025,0.03c0.142,0.213 1.614,2.421 1.93,2.895c0.037,0.056 0.099,0.089 0.166,0.089c0.165,0 0.484,0 0.693,0c0.11,0 0.2,-0.09 0.2,-0.2l0,-0.717c0,-0.053 -0.021,-0.104 -0.059,-0.142c-0.33,-0.33 -1.941,-1.941 -1.941,-1.941" style="fill:#48bd28;"/>
                <path d="M26,21l0,0.917c0,0.053 0.021,0.104 0.059,0.142c0.233,0.233 1.108,1.108 1.6,1.6c0.057,0.057 0.143,0.074 0.218,0.043c0.074,-0.031 0.123,-0.104 0.123,-0.185c0,-0.167 0,-0.337 0,-0.434c0,-0.053 -0.021,-0.104 -0.059,-0.142c-0.33,-0.33 -1.941,-1.941 -1.941,-1.941" style="fill:#48bd28;"/>
                <clipPath id="_clip6">
                    <path d="M26,21l0,0.917c0,0.053 0.021,0.104 0.059,0.142c0.233,0.233 1.108,1.108 1.6,1.6c0.057,0.057 0.143,0.074 0.218,0.043c0.074,-0.031 0.123,-0.104 0.123,-0.185c0,-0.167 0,-0.337 0,-0.434c0,-0.053 -0.021,-0.104 -0.059,-0.142c-0.33,-0.33 -1.941,-1.941 -1.941,-1.941"/>
                </clipPath>
                <g clip-path="url(#_clip6)">
                    <circle cx="19" cy="13" r="13" style="fill:#4ecd2b;"/>
                </g>
            </g>
        </g>
    </g>
</svg>
