<?xml version="1.0" encoding="UTF-8" standalone="no"?>
<!DOCTYPE svg PUBLIC "-//W3C//DTD SVG 1.1//EN" "http://www.w3.org/Graphics/SVG/1.1/DTD/svg11.dtd">
<svg width="100%" height="100%" viewBox="0 0 32 32" version="1.1" xmlns="http://www.w3.org/2000/svg" xmlns:xlink="http://www.w3.org/1999/xlink" xml:space="preserve" xmlns:serif="http://www.serif.com/" style="fill-rule:evenodd;clip-rule:evenodd;stroke-linejoin:round;stroke-miterlimit:2;">
    <rect id="earth_americas" x="0" y="0" width="32" height="32" style="fill:none;"/>
    <clipPath id="_clip1">
        <rect x="0" y="0" width="32" height="32"/>
    </clipPath>
    <g clip-path="url(#_clip1)">
        <g id="outline">
            <circle cx="16" cy="16" r="16"/>
        </g>
        <g id="emoji">
            <circle cx="16" cy="16" r="14" style="fill:#0750fa;"/>
            <clipPath id="_clip2">
                <circle cx="16" cy="16" r="14"/>
            </clipPath>
            <g clip-path="url(#_clip2)">
                <circle cx="19" cy="13" r="13" style="fill:#2867fa;"/>
                <path d="M17.281,7.719c-0.186,0.186 -0.333,0.406 -0.433,0.647c-0.479,1.154 -1.925,4.634 -1.925,4.634c0,0 -0.442,-0.479 -0.714,-0.774c-0.133,-0.144 -0.321,-0.226 -0.517,-0.226c-0.529,0 -1.638,0 -2.503,0c-0.671,0 -1.229,0.517 -1.28,1.186c0,0 0,0.001 0,0.002c-0.038,0.488 0.232,0.949 0.676,1.155c0.043,0.02 0.088,0.041 0.133,0.062c0.77,0.357 1.681,0.196 2.281,-0.404c0.001,-0.001 0.001,-0.001 0.001,-0.001l0,1.5c0,0.133 0.053,0.26 0.146,0.354c0.094,0.093 0.221,0.146 0.354,0.146c0.276,0 0.5,0.224 0.5,0.5c0,0.133 0.053,0.26 0.146,0.354c0.094,0.093 0.221,0.146 0.354,0.146c0.854,0 2.602,0 3.65,0c0.565,0 1.127,0.068 1.676,0.202c0.67,0.165 1.616,0.397 2.315,0.568c0.591,0.146 1.085,0.552 1.34,1.105c0.054,0.118 0.11,0.239 0.164,0.356c0.23,0.498 0.622,0.903 1.113,1.148c0.566,0.283 1.242,0.621 1.242,0.621c0,0 -0.623,1.247 -1.302,2.604c-1.116,2.232 -2.745,4.169 -4.752,5.652c-1.795,1.326 -3.715,2.744 -3.715,2.744l-0.231,-3c0,0 0.567,-2.269 0.847,-3.389c0.09,-0.357 -0.081,-0.728 -0.41,-0.893c0,0 -0.001,0 -0.001,0c-0.941,-0.47 -1.743,-1.178 -2.327,-2.054c-0.204,-0.307 -0.415,-0.623 -0.597,-0.896c-0.323,-0.485 -0.404,-1.091 -0.22,-1.643c0.295,-0.886 0.708,-2.125 0.708,-2.125c0,0 -1.058,-0.529 -1.635,-0.817c-0.243,-0.122 -0.494,-0.226 -0.752,-0.312c-0.811,-0.27 -2.613,-0.871 -2.613,-0.871l-1,-2c0,0 -0.124,-0.124 -0.31,-0.31c-1.082,-1.082 -1.69,-2.55 -1.69,-4.081c0,-0.037 0,-0.074 0,-0.11c0,-0.96 -0.381,-1.88 -1.06,-2.559c-0.863,-0.863 -1.94,-1.94 -1.94,-1.94l0,-4l14,0l0,0.876c0,0.621 -0.503,1.124 -1.124,1.124l-0.595,0c-0.18,0 -0.353,0.072 -0.48,0.199c-0.109,0.109 -0.249,0.249 -0.381,0.381c-0.097,0.097 -0.142,0.235 -0.12,0.371c0.022,0.136 0.108,0.253 0.231,0.315c0.299,0.149 0.671,0.335 0.965,0.482c0.301,0.151 0.664,0.092 0.902,-0.146c0.04,-0.04 0.08,-0.08 0.121,-0.121c0.265,-0.265 0.697,-0.265 0.962,0c0.592,0.592 1.519,1.519 1.519,1.519c0,0 -1.169,1.169 -1.719,1.719Z" style="fill:#48bd28;"/>
                <clipPath id="_clip3">
                    <path d="M17.281,7.719c-0.186,0.186 -0.333,0.406 -0.433,0.647c-0.479,1.154 -1.925,4.634 -1.925,4.634c0,0 -0.442,-0.479 -0.714,-0.774c-0.133,-0.144 -0.321,-0.226 -0.517,-0.226c-0.529,0 -1.638,0 -2.503,0c-0.671,0 -1.229,0.517 -1.28,1.186c0,0 0,0.001 0,0.002c-0.038,0.488 0.232,0.949 0.676,1.155c0.043,0.02 0.088,0.041 0.133,0.062c0.77,0.357 1.681,0.196 2.281,-0.404c0.001,-0.001 0.001,-0.001 0.001,-0.001l0,1.5c0,0.133 0.053,0.26 0.146,0.354c0.094,0.093 0.221,0.146 0.354,0.146c0.276,0 0.5,0.224 0.5,0.5c0,0.133 0.053,0.26 0.146,0.354c0.094,0.093 0.221,0.146 0.354,0.146c0.854,0 2.602,0 3.65,0c0.565,0 1.127,0.068 1.676,0.202c0.67,0.165 1.616,0.397 2.315,0.568c0.591,0.146 1.085,0.552 1.34,1.105c0.054,0.118 0.11,0.239 0.164,0.356c0.23,0.498 0.622,0.903 1.113,1.148c0.566,0.283 1.242,0.621 1.242,0.621c0,0 -0.623,1.247 -1.302,2.604c-1.116,2.232 -2.745,4.169 -4.752,5.652c-1.795,1.326 -3.715,2.744 -3.715,2.744l-0.231,-3c0,0 0.567,-2.269 0.847,-3.389c0.09,-0.357 -0.081,-0.728 -0.41,-0.893c0,0 -0.001,0 -0.001,0c-0.941,-0.47 -1.743,-1.178 -2.327,-2.054c-0.204,-0.307 -0.415,-0.623 -0.597,-0.896c-0.323,-0.485 -0.404,-1.091 -0.22,-1.643c0.295,-0.886 0.708,-2.125 0.708,-2.125c0,0 -1.058,-0.529 -1.635,-0.817c-0.243,-0.122 -0.494,-0.226 -0.752,-0.312c-0.811,-0.27 -2.613,-0.871 -2.613,-0.871l-1,-2c0,0 -0.124,-0.124 -0.31,-0.31c-1.082,-1.082 -1.69,-2.55 -1.69,-4.081c0,-0.037 0,-0.074 0,-0.11c0,-0.96 -0.381,-1.88 -1.06,-2.559c-0.863,-0.863 -1.94,-1.94 -1.94,-1.94l0,-4l14,0l0,0.876c0,0.621 -0.503,1.124 -1.124,1.124l-0.595,0c-0.18,0 -0.353,0.072 -0.48,0.199c-0.109,0.109 -0.249,0.249 -0.381,0.381c-0.097,0.097 -0.142,0.235 -0.12,0.371c0.022,0.136 0.108,0.253 0.231,0.315c0.299,0.149 0.671,0.335 0.965,0.482c0.301,0.151 0.664,0.092 0.902,-0.146c0.04,-0.04 0.08,-0.08 0.121,-0.121c0.265,-0.265 0.697,-0.265 0.962,0c0.592,0.592 1.519,1.519 1.519,1.519c0,0 -1.169,1.169 -1.719,1.719Z"/>
                </clipPath>
                <g clip-path="url(#_clip3)">
                    <circle cx="19" cy="13" r="13" style="fill:#4ecd2b;"/>
                    <path d="M7,9.372l0,0.909c0,1.139 0.184,2.27 0.544,3.35c0.234,0.704 0.456,1.369 0.456,1.369l0.5,0.5l0,-3.001c0,-0.276 0.223,-0.499 0.499,-0.499c0.001,0 0.001,0 0.002,0c0.276,0 0.499,0.223 0.499,0.499l0,0.001c0,0.276 0.224,0.5 0.5,0.5c0,0 0,0 0,0l0.5,0.5l0.5,0l0,-1.714c0,-0.298 -0.143,-0.578 -0.385,-0.752c-0.242,-0.174 -0.552,-0.222 -0.835,-0.127c-0.016,0.005 -0.032,0.01 -0.047,0.015c-0.154,0.052 -0.316,0.078 -0.478,0.078c-0.03,0 -0.061,0 -0.093,0c-0.422,0 -0.825,-0.177 -1.111,-0.487c-0.442,-0.48 -1.051,-1.141 -1.051,-1.141Z" style="fill:#f4c815;"/>
                    <path d="M12,20l0.885,0c0.702,0 1.363,0.33 1.784,0.892c0.433,0.577 1,1.334 1.467,1.956c0.568,0.758 1.305,1.372 2.152,1.796c0.388,0.194 0.712,0.356 0.712,0.356c0,0 -0.613,1.409 -1.161,2.667c-0.536,1.233 -0.547,2.631 -0.031,3.872c0.113,0.272 0.192,0.461 0.192,0.461l-4,0l0,-8l-2,-4Z" style="fill:#f4c815;"/>
                </g>
                <path d="M19,1c0,0 0.482,1.929 0.777,3.108c0.131,0.524 0.602,0.892 1.143,0.892c0,0 0.001,0 0.001,0c0.286,0 0.561,-0.114 0.763,-0.316c0.202,-0.202 0.316,-0.477 0.316,-0.763l0,-2.921l-3,0Z" style="fill:#fff;"/>
                <path d="M15.5,14c-0.133,0 -0.26,0.053 -0.354,0.146c-0.093,0.094 -0.146,0.221 -0.146,0.354c0,0.133 0.053,0.26 0.146,0.354c0.094,0.093 0.221,0.146 0.354,0.146c0.592,0 1.5,0 1.5,0c0,0 -0.47,-0.47 -0.765,-0.765c-0.151,-0.151 -0.354,-0.235 -0.567,-0.235c-0.054,0 -0.111,0 -0.168,0Z" style="fill:#48bd28;"/>
                <path d="M17,15l0,0.563c0,0.116 0.046,0.227 0.128,0.309c0.082,0.082 0.193,0.128 0.309,0.128l0.126,0c0.116,0 0.227,-0.046 0.309,-0.128c0.082,-0.082 0.128,-0.193 0.128,-0.309l0,-0.126c0,-0.116 -0.046,-0.227 -0.128,-0.309c-0.082,-0.082 -0.193,-0.128 -0.309,-0.128l-0.563,0Z" style="fill:#48bd28;"/>
            </g>
        </g>
    </g>
</svg>
