<?xml version="1.0" encoding="UTF-8" standalone="no"?>
<!DOCTYPE svg PUBLIC "-//W3C//DTD SVG 1.1//EN" "http://www.w3.org/Graphics/SVG/1.1/DTD/svg11.dtd">
<svg width="100%" height="100%" viewBox="0 0 32 32" version="1.1" xmlns="http://www.w3.org/2000/svg" xmlns:xlink="http://www.w3.org/1999/xlink" xml:space="preserve" xmlns:serif="http://www.serif.com/" style="fill-rule:evenodd;clip-rule:evenodd;stroke-linejoin:round;stroke-miterlimit:2;">
    <rect id="earth_emea" x="0" y="0" width="32" height="32" style="fill:none;"/>
    <clipPath id="_clip1">
        <rect x="0" y="0" width="32" height="32"/>
    </clipPath>
    <g clip-path="url(#_clip1)">
        <g id="outline">
            <circle cx="16" cy="16" r="16"/>
        </g>
        <g id="emoji">
            <circle cx="16" cy="16" r="14" style="fill:#0750fa;"/>
            <clipPath id="_clip2">
                <circle cx="16" cy="16" r="14"/>
            </clipPath>
            <g clip-path="url(#_clip2)">
                <circle cx="19" cy="13" r="13" style="fill:#2867fa;"/>
                <path d="M12,3l1,1l-1,1c0,0 -0.855,0.428 -1.447,0.724c-0.339,0.169 -0.553,0.515 -0.553,0.894c0,0.205 0,0.382 0,0.382c0,0 -0.759,0.506 -1.513,1.009c-0.278,0.185 -0.426,0.512 -0.382,0.843c0.045,0.331 0.274,0.608 0.59,0.713c0.212,0.071 0.417,0.139 0.601,0.2c0.431,0.144 0.907,0.032 1.229,-0.29c0.252,-0.252 0.558,-0.558 0.825,-0.825c0.388,-0.388 0.981,-0.484 1.472,-0.239c0.269,0.135 0.556,0.278 0.78,0.39c0.264,0.132 0.504,0.305 0.713,0.514c0,0 0,0 0.001,0.001c0.181,0.181 0.427,0.283 0.684,0.283c0.257,0 0.503,-0.102 0.684,-0.283c0.197,-0.197 0.411,-0.411 0.609,-0.609c0.453,-0.453 1.067,-0.707 1.707,-0.707c0,0 0,0 0,0l0,-1.359c0,-0.137 0.071,-0.265 0.188,-0.337c0.117,-0.072 0.262,-0.079 0.385,-0.017c0.296,0.147 0.653,0.326 0.935,0.467c0.114,0.057 0.194,0.165 0.214,0.291c0.021,0.126 -0.021,0.254 -0.111,0.344c-0.581,0.581 -1.611,1.611 -1.611,1.611l2,1l1,0l-2,2l-3,-1l0,1l-3,-1l-1,-1c0,0 -0.492,0.164 -1.078,0.359c-1.251,0.417 -2.346,1.207 -3.138,2.262c-0.256,0.342 -0.524,0.7 -0.772,1.03c-0.629,0.838 -0.775,1.942 -0.386,2.914c0.197,0.491 0.415,1.038 0.62,1.549c0.455,1.139 1.558,1.886 2.785,1.886c0.502,0 1,0 1.37,0c0.384,0 0.751,0.152 1.022,0.423c0.587,0.587 1.577,1.577 1.577,1.577l0,1c0,0 0.495,0.991 0.789,1.578c0.139,0.277 0.211,0.584 0.211,0.894c0,0.282 0,0.657 0,1.032c0,0.958 0.38,1.876 1.058,2.554c0.48,0.48 0.942,0.942 0.942,0.942l2,0c0,0 0.691,-2.072 0.924,-2.772c0.051,-0.152 0.112,-0.3 0.183,-0.443c0.362,-0.724 1.531,-3.061 1.825,-3.649c0.045,-0.09 0.068,-0.188 0.068,-0.288c0,-0.147 0,-0.376 0,-0.559c0,-0.19 0.044,-0.378 0.129,-0.548c0.443,-0.886 1.871,-3.741 1.871,-3.741l0,0c-1.208,0 -2.294,-0.735 -2.743,-1.857c-0.569,-1.422 -1.257,-3.143 -1.257,-3.143l1,0c0,0 0.901,1.802 1.493,2.987c0.129,0.256 0.361,0.445 0.638,0.519c0.277,0.074 0.573,0.025 0.812,-0.134c0.879,-0.587 2.057,-1.372 2.057,-1.372l-1,-1l-1,-2l1,0c0,0 0.216,0.432 0.447,0.894c0.339,0.678 1.032,1.106 1.789,1.106c0.41,0 0.764,0 0.764,0l3,-3l0,1l2,0l0,-12l-13,0l-7,0l-1,3Z" style="fill:#48bd28;"/>
                <clipPath id="_clip3">
                    <path d="M12,3l1,1l-1,1c0,0 -0.855,0.428 -1.447,0.724c-0.339,0.169 -0.553,0.515 -0.553,0.894c0,0.205 0,0.382 0,0.382c0,0 -0.759,0.506 -1.513,1.009c-0.278,0.185 -0.426,0.512 -0.382,0.843c0.045,0.331 0.274,0.608 0.59,0.713c0.212,0.071 0.417,0.139 0.601,0.2c0.431,0.144 0.907,0.032 1.229,-0.29c0.252,-0.252 0.558,-0.558 0.825,-0.825c0.388,-0.388 0.981,-0.484 1.472,-0.239c0.269,0.135 0.556,0.278 0.78,0.39c0.264,0.132 0.504,0.305 0.713,0.514c0,0 0,0 0.001,0.001c0.181,0.181 0.427,0.283 0.684,0.283c0.257,0 0.503,-0.102 0.684,-0.283c0.197,-0.197 0.411,-0.411 0.609,-0.609c0.453,-0.453 1.067,-0.707 1.707,-0.707c0,0 0,0 0,0l0,-1.359c0,-0.137 0.071,-0.265 0.188,-0.337c0.117,-0.072 0.262,-0.079 0.385,-0.017c0.296,0.147 0.653,0.326 0.935,0.467c0.114,0.057 0.194,0.165 0.214,0.291c0.021,0.126 -0.021,0.254 -0.111,0.344c-0.581,0.581 -1.611,1.611 -1.611,1.611l2,1l1,0l-2,2l-3,-1l0,1l-3,-1l-1,-1c0,0 -0.492,0.164 -1.078,0.359c-1.251,0.417 -2.346,1.207 -3.138,2.262c-0.256,0.342 -0.524,0.7 -0.772,1.03c-0.629,0.838 -0.775,1.942 -0.386,2.914c0.197,0.491 0.415,1.038 0.62,1.549c0.455,1.139 1.558,1.886 2.785,1.886c0.502,0 1,0 1.37,0c0.384,0 0.751,0.152 1.022,0.423c0.587,0.587 1.577,1.577 1.577,1.577l0,1c0,0 0.495,0.991 0.789,1.578c0.139,0.277 0.211,0.584 0.211,0.894c0,0.282 0,0.657 0,1.032c0,0.958 0.38,1.876 1.058,2.554c0.48,0.48 0.942,0.942 0.942,0.942l2,0c0,0 0.691,-2.072 0.924,-2.772c0.051,-0.152 0.112,-0.3 0.183,-0.443c0.362,-0.724 1.531,-3.061 1.825,-3.649c0.045,-0.09 0.068,-0.188 0.068,-0.288c0,-0.147 0,-0.376 0,-0.559c0,-0.19 0.044,-0.378 0.129,-0.548c0.443,-0.886 1.871,-3.741 1.871,-3.741l0,0c-1.208,0 -2.294,-0.735 -2.743,-1.857c-0.569,-1.422 -1.257,-3.143 -1.257,-3.143l1,0c0,0 0.901,1.802 1.493,2.987c0.129,0.256 0.361,0.445 0.638,0.519c0.277,0.074 0.573,0.025 0.812,-0.134c0.879,-0.587 2.057,-1.372 2.057,-1.372l-1,-1l-1,-2l1,0c0,0 0.216,0.432 0.447,0.894c0.339,0.678 1.032,1.106 1.789,1.106c0.41,0 0.764,0 0.764,0l3,-3l0,1l2,0l0,-12l-13,0l-7,0l-1,3Z"/>
                </clipPath>
                <g clip-path="url(#_clip3)">
                    <circle cx="19" cy="13" r="13" style="fill:#4ecd2b;"/>
                    <path d="M6,18l2.7,0c0.855,0 1.698,0.199 2.463,0.581c0,0 0,0 0,0.001c0.55,0.275 1.157,0.418 1.773,0.418c0.124,0 0.249,0 0.368,0c0.461,0 0.919,-0.074 1.356,-0.22c0.538,-0.179 1.289,-0.43 1.793,-0.598c0.362,-0.12 0.742,-0.182 1.123,-0.182c0.533,0 1.345,0 2.045,0c0.762,0 1.379,0.617 1.379,1.379c0,0.069 0,0.138 0,0.207c0,0.905 -0.36,1.774 -1,2.414c0,0 0,0 0,0l0,0c1.921,0 3.763,-0.763 5.121,-2.121c0.707,-0.707 1.317,-1.317 1.317,-1.317l2.562,-4.562l1,-2l-2,-5l-5,0c0,0 0.428,0.856 0.888,1.776c0.238,0.477 0.213,1.042 -0.067,1.495c-0.28,0.453 -0.775,0.729 -1.307,0.729c-2.012,0 -4.514,0 -4.514,0l-11,0l-2,3l1,4Z" style="fill:#f4c815;"/>
                    <path d="M14,25l2,0l0,2l1,1l1,-1l0,2l1,2l-5,0l0,-6Z" style="fill:#f4c815;"/>
                </g>
                <path d="M9.5,3.623c0,-0.165 0.066,-0.324 0.182,-0.441c0.117,-0.116 0.276,-0.182 0.441,-0.182l0.001,0c0.23,0 0.441,0.13 0.544,0.337c0.091,0.181 0.198,0.394 0.265,0.529c0.044,0.088 0.067,0.185 0.067,0.284c0,0.064 0,0.144 0,0.229c0,0.165 -0.065,0.323 -0.182,0.439c-0.116,0.117 -0.274,0.182 -0.439,0.182l-0.001,0c-0.232,0 -0.443,-0.131 -0.547,-0.338c-0.09,-0.18 -0.196,-0.391 -0.263,-0.526c-0.045,-0.089 -0.068,-0.188 -0.068,-0.288c0,-0.064 0,-0.142 0,-0.225Z" style="fill:#48bd28;"/>
                <clipPath id="_clip4">
                    <path d="M9.5,3.623c0,-0.165 0.066,-0.324 0.182,-0.441c0.117,-0.116 0.276,-0.182 0.441,-0.182l0.001,0c0.23,0 0.441,0.13 0.544,0.337c0.091,0.181 0.198,0.394 0.265,0.529c0.044,0.088 0.067,0.185 0.067,0.284c0,0.064 0,0.144 0,0.229c0,0.165 -0.065,0.323 -0.182,0.439c-0.116,0.117 -0.274,0.182 -0.439,0.182l-0.001,0c-0.232,0 -0.443,-0.131 -0.547,-0.338c-0.09,-0.18 -0.196,-0.391 -0.263,-0.526c-0.045,-0.089 -0.068,-0.188 -0.068,-0.288c0,-0.064 0,-0.142 0,-0.225Z"/>
                </clipPath>
                <g clip-path="url(#_clip4)">
                    <circle cx="19" cy="13" r="13" style="fill:#4ecd2b;"/>
                </g>
                <path d="M24,23.507c0,-0.28 -0.227,-0.507 -0.507,-0.507c-0.043,0 -0.086,0 -0.128,0c-0.218,0 -0.412,0.14 -0.48,0.346c-0.185,0.555 -0.547,1.641 -0.746,2.237c-0.08,0.239 0.028,0.501 0.254,0.613c0.249,0.125 0.578,0.29 0.874,0.437c0.157,0.079 0.343,0.071 0.493,-0.022c0.149,-0.092 0.24,-0.255 0.24,-0.431c0,-0.802 0,-2 0,-2.673Z" style="fill:#48bd28;"/>
                <clipPath id="_clip5">
                    <path d="M24,23.507c0,-0.28 -0.227,-0.507 -0.507,-0.507c-0.043,0 -0.086,0 -0.128,0c-0.218,0 -0.412,0.14 -0.48,0.346c-0.185,0.555 -0.547,1.641 -0.746,2.237c-0.08,0.239 0.028,0.501 0.254,0.613c0.249,0.125 0.578,0.29 0.874,0.437c0.157,0.079 0.343,0.071 0.493,-0.022c0.149,-0.092 0.24,-0.255 0.24,-0.431c0,-0.802 0,-2 0,-2.673Z"/>
                </clipPath>
                <g clip-path="url(#_clip5)">
                    <circle cx="19" cy="13" r="13" style="fill:#4ecd2b;"/>
                </g>
            </g>
            <path d="M22,6.392c0,-0.104 0.041,-0.204 0.115,-0.277c0.073,-0.074 0.173,-0.115 0.277,-0.115c0.071,0 0.145,0 0.216,0c0.104,0 0.204,0.041 0.277,0.115c0.074,0.073 0.115,0.173 0.115,0.277l0,0.608l1,2l-1.085,0c-0.505,0 -0.915,-0.41 -0.915,-0.915c0,-0.566 0,-1.265 0,-1.693Z" style="fill:#2867fa;"/>
        </g>
    </g>
</svg>
