<?xml version="1.0" encoding="UTF-8" standalone="no"?><!DOCTYPE svg PUBLIC "-//W3C//DTD SVG 1.1//EN" "http://www.w3.org/Graphics/SVG/1.1/DTD/svg11.dtd"><svg width="100%" height="100%" viewBox="0 0 32 32" version="1.1" xmlns="http://www.w3.org/2000/svg" xmlns:xlink="http://www.w3.org/1999/xlink" xml:space="preserve" xmlns:serif="http://www.serif.com/" style="fill-rule:evenodd;clip-rule:evenodd;stroke-linejoin:round;stroke-miterlimit:1.41421;"><rect id="earth_asia_oceania" x="0" y="0" width="32" height="32" style="fill:none;"/><clipPath id="_clip1"><rect x="0" y="0" width="32" height="32"/></clipPath><g clip-path="url(#_clip1)"><g id="outline"><circle cx="16" cy="16" r="16"/></g><g id="emoji"><circle cx="16" cy="16" r="14" style="fill:#1a58d3;"/><clipPath id="_clip2"><circle cx="16" cy="16" r="14"/></clipPath><g clip-path="url(#_clip2)"><path d="M1,14l1,2c0,0 0.572,1.716 0.851,2.552c0.098,0.295 0.263,0.562 0.483,0.782c0.569,0.569 1.666,1.666 1.666,1.666c0,0 0,-0.932 0,-1.757c0,-0.796 0.316,-1.559 0.879,-2.122c0.885,-0.885 2.121,-2.121 2.121,-2.121l1,2l1,0l0,4l1,3l1,-1l-1,-2l0,-3l1,2l2,0l0,-2l-1,-2c0,0 0.937,0 1.528,0c0.31,0 0.617,-0.072 0.894,-0.211c0.583,-0.291 1.654,-0.827 2.472,-1.236c0.678,-0.339 1.106,-1.032 1.106,-1.789c0,-0.456 0,-0.945 0,-1.292c0,-0.31 -0.072,-0.617 -0.211,-0.894c-0.294,-0.587 -0.789,-1.578 -0.789,-1.578l0,-1l2,2l1,-1l-1,-1l1,0l0,-2l0,-1l2,1l0,-1l-1,-2l0,-1l-21,0l0,12Z" style="fill:#27b85b;"/><clipPath id="_clip3"><path d="M1,14l1,2c0,0 0.572,1.716 0.851,2.552c0.098,0.295 0.263,0.562 0.483,0.782c0.569,0.569 1.666,1.666 1.666,1.666c0,0 0,-0.932 0,-1.757c0,-0.796 0.316,-1.559 0.879,-2.122c0.885,-0.885 2.121,-2.121 2.121,-2.121l1,2l1,0l0,4l1,3l1,-1l-1,-2l0,-3l1,2l2,0l0,-2l-1,-2c0,0 0.937,0 1.528,0c0.31,0 0.617,-0.072 0.894,-0.211c0.583,-0.291 1.654,-0.827 2.472,-1.236c0.678,-0.339 1.106,-1.032 1.106,-1.789c0,-0.456 0,-0.945 0,-1.292c0,-0.31 -0.072,-0.617 -0.211,-0.894c-0.294,-0.587 -0.789,-1.578 -0.789,-1.578l0,-1l2,2l1,-1l-1,-1l1,0l0,-2l0,-1l2,1l0,-1l-1,-2l0,-1l-21,0l0,12Z"/></clipPath><g clip-path="url(#_clip3)"><path d="M2,7l13,0l0,1l-2.5,1l2,1.5l-1.5,0.5l-4,0l-1,1.5l2,0.5l-4.5,0.5l-1.5,0.5l0,7l-2,0l0,-14Z" style="fill:#f4c815;"/></g><path d="M22,7l0,2l-2,2l1,1l2,-3l0,-2l-1,0Z" style="fill:#27b85b;"/><path d="M16,17l-1,2l0,1l1,1l0,-4Z" style="fill:#27b85b;"/><path d="M13,24l0,2l1,0l1,-2l0,-2l-2,2Z" style="fill:#27b85b;"/><path d="M17,20l0,1l-1,1l1,1l1,-1l0,-1l1,-1l-1,0l-1,0" style="fill:#27b85b;"/><path d="M17,30c0,0 -0.219,-0.656 -0.451,-1.354c-0.315,-0.945 0.112,-1.977 1.002,-2.422c1.125,-0.562 2.449,-1.224 2.449,-1.224l2,-3l1,2l1,0l1,-2l0,2l2,4l-2,3l-3,-1l-5,0Z" style="fill:#27b85b;"/><clipPath id="_clip4"><path d="M17,30c0,0 -0.219,-0.656 -0.451,-1.354c-0.315,-0.945 0.112,-1.977 1.002,-2.422c1.125,-0.562 2.449,-1.224 2.449,-1.224l2,-3l1,2l1,0l1,-2l0,2l2,4l-2,3l-3,-1l-5,0Z"/></clipPath><g clip-path="url(#_clip4)"><path d="M16,26l5,0l1,-1l3,1l0,3l-6,0l-3,-2l0,-1" style="fill:#f4c815;"/></g><path d="M8,23l1,1l2,3l1,0l0,-1l-2,-2" style="fill:#27b85b;"/><path d="M20,20l0,1l2,0l2,1l0,-1l1,-1l0,-1l-2,1l-3,0Z" style="fill:#27b85b;"/><path d="M18,17l1,0l0,2l-1,-1l0,-1Z" style="fill:#27b85b;"/><rect x="18" y="15" width="1" height="1" style="fill:#27b85b;"/><path d="M16,24l0,1l1,0l1,-1l-2,0Z" style="fill:#27b85b;"/><path d="M26,21l0,1l2,2l0,-1l-2,-2" style="fill:#27b85b;"/></g></g></g></svg>