<?xml version="1.0" encoding="UTF-8" standalone="no"?><!DOCTYPE svg PUBLIC "-//W3C//DTD SVG 1.1//EN" "http://www.w3.org/Graphics/SVG/1.1/DTD/svg11.dtd"><svg width="100%" height="100%" viewBox="0 0 32 32" version="1.1" xmlns="http://www.w3.org/2000/svg" xmlns:xlink="http://www.w3.org/1999/xlink" xml:space="preserve" xmlns:serif="http://www.serif.com/" style="fill-rule:evenodd;clip-rule:evenodd;stroke-linejoin:round;stroke-miterlimit:1.41421;"><rect id="earth_antarctic" x="0" y="0" width="32" height="32" style="fill:none;"/><clipPath id="_clip1"><rect x="0" y="0" width="32" height="32"/></clipPath><g clip-path="url(#_clip1)"><g id="outline"><circle cx="16" cy="16" r="16"/></g><g id="emoji"><circle cx="16" cy="16" r="14" style="fill:#1850c0;"/><clipPath id="_clip2"><circle cx="16" cy="16" r="14"/></clipPath><g clip-path="url(#_clip2)"><path d="M9,11l1,0l1,2l2,1l2,-1l1,-3l6,0c0,0 1.119,2.239 1.683,3.367c0.209,0.416 0.317,0.875 0.317,1.341c0,0.845 0,2.266 0,3.24c0,0.681 -0.232,1.342 -0.657,1.874c-1.136,1.419 -3.343,4.178 -3.343,4.178l-7,0l1,-2l-1,-1c0,0 -1.284,0 -2.172,0c-0.53,0 -1.039,-0.211 -1.414,-0.586c-0.261,-0.261 -0.567,-0.567 -0.828,-0.828c-0.375,-0.375 -0.586,-0.884 -0.586,-1.414c0,-0.888 0,-2.172 0,-2.172l1,-2l-1,-2l0,-2l1,1Z" style="fill:#fff;"/><path d="M17,31l1,-3l2,0l-1,3l-2,0Z" style="fill:#14b85b;"/><path d="M24,24l-2,0l0,2l2,-1l0,-1Z" style="fill:#14b85b;"/><path d="M27,26l-3,0l-2,2l0,3l5,0l0,-5" style="fill:#27b85b;"/><path d="M5,10l1,0l-2,2l-3,0l0,-4l2,0l2,2Z" style="fill:#14b85b;"/><path d="M21,3l3,3l3,0l0,-4l-6,0l0,1Z" style="fill:#14b85b;"/></g></g></g></svg>