<?xml version="1.0" encoding="UTF-8" standalone="no"?>
<!DOCTYPE svg PUBLIC "-//W3C//DTD SVG 1.1//EN" "http://www.w3.org/Graphics/SVG/1.1/DTD/svg11.dtd">
<svg width="100%" height="100%" viewBox="0 0 32 32" version="1.1" xmlns="http://www.w3.org/2000/svg" xmlns:xlink="http://www.w3.org/1999/xlink" xml:space="preserve" xmlns:serif="http://www.serif.com/" style="fill-rule:evenodd;clip-rule:evenodd;stroke-linejoin:round;stroke-miterlimit:2;">
    <rect id="earth_arctic" x="0" y="0" width="32" height="32" style="fill:none;"/>
    <clipPath id="_clip1">
        <rect x="0" y="0" width="32" height="32"/>
    </clipPath>
    <g clip-path="url(#_clip1)">
        <g id="outline">
            <circle cx="16" cy="16" r="16"/>
        </g>
        <g id="emoji">
            <circle cx="16" cy="16" r="14" style="fill:#0750fa;"/>
            <clipPath id="_clip2">
                <circle cx="16" cy="16" r="14"/>
            </clipPath>
            <g clip-path="url(#_clip2)">
                <circle cx="19" cy="13" r="13" style="fill:#2867fa;"/>
                <path d="M8,17.669c0,-0.37 0.299,-0.669 0.669,-0.669c0.739,0 1.923,0 2.662,0c0.37,0 0.669,0.299 0.669,0.669l0,2.105c0,0.806 -0.188,1.602 -0.548,2.323c-0.233,0.466 -0.452,0.903 -0.452,0.903l-1,0l-4,2l0,-2c0,0 0.115,-0.115 0.291,-0.291c1.094,-1.094 1.709,-2.578 1.709,-4.126c0,-0.344 0,-0.583 0,-0.583l0,-0.331Z" style="fill:#fff;"/>
                <path d="M10.869,25.869c-0.146,-0.146 -0.189,-0.365 -0.11,-0.555c0.078,-0.19 0.264,-0.314 0.47,-0.314c0.754,0 1.682,0 2.249,0c0.139,0 0.271,0.055 0.369,0.153c0.098,0.098 0.153,0.23 0.153,0.369c0,0.092 0,0.184 0,0.262c0,0.138 -0.055,0.271 -0.153,0.369c-0.188,0.188 -0.506,0.506 -0.694,0.694c-0.098,0.098 -0.231,0.153 -0.369,0.153c-0.3,0 -0.851,0 -1.262,0c-0.139,0 -0.271,-0.055 -0.369,-0.153c-0.098,-0.098 -0.153,-0.23 -0.153,-0.369c0,-0.106 0,-0.21 0,-0.294c0,-0.118 -0.047,-0.231 -0.13,-0.314c0,0 -0.001,-0.001 -0.001,-0.001Z" style="fill:#fff;"/>
                <path d="M5,10.983c0,-0.614 0.307,-1.188 0.818,-1.528c0.536,-0.358 1.22,-0.814 1.678,-1.119c0.329,-0.219 0.715,-0.336 1.11,-0.336c0.567,0 1.403,0 1.922,0c0.31,0 0.617,-0.072 0.894,-0.211c0.141,-0.07 0.305,-0.152 0.472,-0.236c0.678,-0.339 1.106,-1.032 1.106,-1.789c0,-0.41 0,-0.764 0,-0.764l-1,-1l1,0l0,-2l-3,0l-2,2l-2,2l-5,0l0,10c0,0 0.171,-0.513 0.372,-1.116c0.134,-0.403 0.468,-0.708 0.882,-0.806c0.415,-0.098 0.85,0.026 1.151,0.327c0.78,0.78 1.595,1.595 1.595,1.595l1,0l0,-1l-0.266,0c-0.194,0 -0.381,-0.077 -0.519,-0.215c-0.138,-0.138 -0.215,-0.325 -0.215,-0.519c0,-0.571 0,-1.266 0,-1.266l2,1l0,-1.982c0,-0.624 0.353,-1.194 0.911,-1.473c0.528,-0.264 1.089,-0.545 1.089,-0.545l-1,-1c0,0 -1.002,0.501 -1.588,0.794c-0.252,0.126 -0.412,0.385 -0.412,0.667c0,0.043 0,0.085 0,0.127c0,0.264 -0.105,0.517 -0.291,0.703c-0.03,0.03 -0.061,0.061 -0.093,0.093c-0.104,0.104 -0.259,0.134 -0.393,0.079c-0.135,-0.056 -0.223,-0.188 -0.223,-0.334c0,-0.048 0,-0.097 0,-0.146Z" style="fill:#48bd28;"/>
                <clipPath id="_clip3">
                    <path d="M5,10.983c0,-0.614 0.307,-1.188 0.818,-1.528c0.536,-0.358 1.22,-0.814 1.678,-1.119c0.329,-0.219 0.715,-0.336 1.11,-0.336c0.567,0 1.403,0 1.922,0c0.31,0 0.617,-0.072 0.894,-0.211c0.141,-0.07 0.305,-0.152 0.472,-0.236c0.678,-0.339 1.106,-1.032 1.106,-1.789c0,-0.41 0,-0.764 0,-0.764l-1,-1l1,0l0,-2l-3,0l-2,2l-2,2l-5,0l0,10c0,0 0.171,-0.513 0.372,-1.116c0.134,-0.403 0.468,-0.708 0.882,-0.806c0.415,-0.098 0.85,0.026 1.151,0.327c0.78,0.78 1.595,1.595 1.595,1.595l1,0l0,-1l-0.266,0c-0.194,0 -0.381,-0.077 -0.519,-0.215c-0.138,-0.138 -0.215,-0.325 -0.215,-0.519c0,-0.571 0,-1.266 0,-1.266l2,1l0,-1.982c0,-0.624 0.353,-1.194 0.911,-1.473c0.528,-0.264 1.089,-0.545 1.089,-0.545l-1,-1c0,0 -1.002,0.501 -1.588,0.794c-0.252,0.126 -0.412,0.385 -0.412,0.667c0,0.043 0,0.085 0,0.127c0,0.264 -0.105,0.517 -0.291,0.703c-0.03,0.03 -0.061,0.061 -0.093,0.093c-0.104,0.104 -0.259,0.134 -0.393,0.079c-0.135,-0.056 -0.223,-0.188 -0.223,-0.334c0,-0.048 0,-0.097 0,-0.146Z"/>
                </clipPath>
                <g clip-path="url(#_clip3)">
                    <circle cx="19" cy="13" r="13" style="fill:#4ecd2b;"/>
                </g>
                <path d="M16,29c0,0 1.091,-1.091 1.662,-1.662c0.216,-0.216 0.338,-0.51 0.338,-0.816c0,-0.257 0,-0.522 0,-0.522l2,-2c0,0 0.27,-0.27 0.53,-0.53c0.301,-0.301 0.709,-0.47 1.135,-0.47c0.884,0 2.335,0 2.335,0l0,1c0,0 -0.581,0.291 -1.117,0.559c-0.541,0.27 -0.883,0.823 -0.883,1.428c0,0.008 0,0.013 0,0.013l1,0c0,0 1.456,-1.941 2.339,-3.119c0.429,-0.572 0.661,-1.268 0.661,-1.983l0,-2.796c0,-0.715 -0.232,-1.411 -0.661,-1.983c-0.883,-1.178 -2.339,-3.119 -2.339,-3.119l1,0l0,-2.103c0,-0.536 -0.343,-1.011 -0.851,-1.181c-0.887,-0.295 -2.149,-0.716 -2.149,-0.716c0,0 -0.129,-0.388 -0.295,-0.885c-0.451,-1.354 -1.422,-2.474 -2.699,-3.112c-1.002,-0.501 -2.006,-1.003 -2.006,-1.003l0,-1l1,0l3,-2l12,0l0,31l-11,0l0,-3.03c0,-0.621 0.247,-1.217 0.686,-1.656c0.175,-0.175 0.314,-0.314 0.314,-0.314l-1,0c0,0 -0.291,0.291 -0.558,0.558c-0.283,0.283 -0.442,0.667 -0.442,1.067c0,1.124 0,3.375 0,3.375l-4,0l0,-3Z" style="fill:#48bd28;"/>
                <clipPath id="_clip4">
                    <path d="M16,29c0,0 1.091,-1.091 1.662,-1.662c0.216,-0.216 0.338,-0.51 0.338,-0.816c0,-0.257 0,-0.522 0,-0.522l2,-2c0,0 0.27,-0.27 0.53,-0.53c0.301,-0.301 0.709,-0.47 1.135,-0.47c0.884,0 2.335,0 2.335,0l0,1c0,0 -0.581,0.291 -1.117,0.559c-0.541,0.27 -0.883,0.823 -0.883,1.428c0,0.008 0,0.013 0,0.013l1,0c0,0 1.456,-1.941 2.339,-3.119c0.429,-0.572 0.661,-1.268 0.661,-1.983l0,-2.796c0,-0.715 -0.232,-1.411 -0.661,-1.983c-0.883,-1.178 -2.339,-3.119 -2.339,-3.119l1,0l0,-2.103c0,-0.536 -0.343,-1.011 -0.851,-1.181c-0.887,-0.295 -2.149,-0.716 -2.149,-0.716c0,0 -0.129,-0.388 -0.295,-0.885c-0.451,-1.354 -1.422,-2.474 -2.699,-3.112c-1.002,-0.501 -2.006,-1.003 -2.006,-1.003l0,-1l1,0l3,-2l12,0l0,31l-11,0l0,-3.03c0,-0.621 0.247,-1.217 0.686,-1.656c0.175,-0.175 0.314,-0.314 0.314,-0.314l-1,0c0,0 -0.291,0.291 -0.558,0.558c-0.283,0.283 -0.442,0.667 -0.442,1.067c0,1.124 0,3.375 0,3.375l-4,0l0,-3Z"/>
                </clipPath>
                <g clip-path="url(#_clip4)">
                    <circle cx="19" cy="13" r="13" style="fill:#4ecd2b;"/>
                </g>
                <path d="M10,14l1,1l0,1l-1.362,0c-0.434,0 -0.851,-0.173 -1.158,-0.48c-0.307,-0.307 -0.48,-0.724 -0.48,-1.158c0,-0.653 0,-1.359 0,-1.828c0,-0.295 0.239,-0.534 0.534,-0.534c0.046,0 0.092,0 0.136,0c0.202,0 0.387,0.114 0.478,0.295c0.278,0.557 0.852,1.705 0.852,1.705Z" style="fill:#fff;"/>
                <path d="M9.5,10c0.276,0 0.5,0.224 0.5,0.5c0,0.276 -0.224,0.5 -0.5,0.5c-0.276,0 -0.5,-0.224 -0.5,-0.5c0,-0.276 0.224,-0.5 0.5,-0.5l0,0Z" style="fill:#fff;"/>
                <path d="M21.5,10c0.276,0 0.5,0.224 0.5,0.5c0,0.276 -0.224,0.5 -0.5,0.5c-0.276,0 -0.5,-0.224 -0.5,-0.5c0,-0.276 0.224,-0.5 0.5,-0.5l0,0Z" style="fill:#fff;"/>
                <path d="M20.5,17c0.276,0 0.5,0.224 0.5,0.5c0,0.276 -0.224,0.5 -0.5,0.5c-0.276,0 -0.5,-0.224 -0.5,-0.5c0,-0.276 0.224,-0.5 0.5,-0.5l0,0Z" style="fill:#fff;"/>
                <path d="M22.478,14c0.139,0 0.271,0.055 0.369,0.153c0.098,0.098 0.153,0.23 0.153,0.369c0,0.294 0,0.662 0,0.956c0,0.139 -0.055,0.271 -0.153,0.369c-0.098,0.098 -0.23,0.153 -0.369,0.153l-0.634,0c-0.181,0 -0.348,-0.094 -0.444,-0.247c-0.095,-0.154 -0.103,-0.346 -0.022,-0.508c0.167,-0.334 0.353,-0.707 0.478,-0.957c0.088,-0.176 0.269,-0.288 0.466,-0.288c0.05,0 0.103,0 0.156,0Z" style="fill:#fff;"/>
                <path d="M16.522,20c-0.139,0 -0.271,0.055 -0.369,0.153c-0.098,0.098 -0.153,0.23 -0.153,0.369l0,0.956c0,0.139 0.055,0.271 0.153,0.369c0.098,0.098 0.23,0.153 0.369,0.153c0.053,0 0.106,0 0.156,0c0.197,0 0.378,-0.112 0.466,-0.288c0.125,-0.25 0.311,-0.623 0.478,-0.957c0.081,-0.162 0.073,-0.354 -0.022,-0.508c-0.096,-0.153 -0.263,-0.247 -0.444,-0.247c-0.215,0 -0.44,0 -0.634,0Z" style="fill:#fff;"/>
                <path d="M23.5,16c-0.133,0 -0.26,0.053 -0.354,0.146c-0.093,0.094 -0.146,0.221 -0.146,0.354c0,0.619 0,1.655 0,2.177c0,0.198 0.112,0.379 0.288,0.467c0.554,0.277 1.712,0.856 1.712,0.856c0,0 -0.567,-0.567 -0.847,-0.847c-0.098,-0.098 -0.153,-0.231 -0.153,-0.369c0,-0.475 0,-1.62 0,-2.284c0,-0.133 -0.053,-0.26 -0.146,-0.354c-0.094,-0.093 -0.221,-0.146 -0.354,-0.146c0,0 0,0 0,0Z" style="fill:#fff;"/>
                <path d="M0,18l2,0l1,1l1,-1l0,1.538c0,0.968 -0.156,1.93 -0.462,2.849c-0.262,0.786 -0.538,1.613 -0.538,1.613l-3,0l0,-6Z" style="fill:#48bd28;"/>
                <path d="M5,15l2,0l0,2.092c0,0.592 -0.175,1.171 -0.504,1.664c-0.592,0.888 -1.496,2.244 -1.496,2.244l-1,-2l1,-3l0,-1Z" style="fill:#48bd28;"/>
                <clipPath id="_clip5">
                    <path d="M5,15l2,0l0,2.092c0,0.592 -0.175,1.171 -0.504,1.664c-0.592,0.888 -1.496,2.244 -1.496,2.244l-1,-2l1,-3l0,-1Z"/>
                </clipPath>
                <g clip-path="url(#_clip5)">
                    <circle cx="19" cy="13" r="13" style="fill:#4ecd2b;"/>
                </g>
            </g>
        </g>
    </g>
</svg>
