<?xml version="1.0" encoding="UTF-8" standalone="no"?><!DOCTYPE svg PUBLIC "-//W3C//DTD SVG 1.1//EN" "http://www.w3.org/Graphics/SVG/1.1/DTD/svg11.dtd"><svg width="100%" height="100%" viewBox="0 0 32 32" version="1.1" xmlns="http://www.w3.org/2000/svg" xmlns:xlink="http://www.w3.org/1999/xlink" xml:space="preserve" xmlns:serif="http://www.serif.com/" style="fill-rule:evenodd;clip-rule:evenodd;stroke-linejoin:round;stroke-miterlimit:1.41421;"><rect id="earth_pacific" x="0" y="0" width="32" height="32" style="fill:none;"/><clipPath id="_clip1"><rect x="0" y="0" width="32" height="32"/></clipPath><g clip-path="url(#_clip1)"><g id="outline"><circle cx="16" cy="16" r="16"/></g><g id="emoji"><circle cx="16" cy="16" r="14" style="fill:#1850c0;"/><clipPath id="_clip2"><circle cx="16" cy="16" r="14"/></clipPath><g clip-path="url(#_clip2)"><path d="M8,23l0,1l1,0l0,1l1,0l1,-1l0,-1l-1,0l0,1l-2,-1Z" style="fill:#27b85b;"/><path d="M8,25l-2,4l2,0l0,-1l1,-2" style="fill:#27b85b;"/><path d="M14,13l4,1l1,0l0,-1l-1,0l-4,0Z" style="fill:#27b85b;"/><rect x="10" y="20" width="1" height="1" style="fill:#27b85b;"/><rect x="19" y="19" width="1" height="1" style="fill:#27b85b;"/><rect x="5" y="18" width="1" height="1" style="fill:#27b85b;"/><rect x="7" y="16" width="1" height="1" style="fill:#27b85b;"/><rect x="13" y="12" width="1" height="1" style="fill:#27b85b;"/><rect x="11" y="12" width="1" height="1" style="fill:#27b85b;"/><rect x="10" y="11" width="1" height="1" style="fill:#27b85b;"/><rect x="8" y="11" width="1" height="1" style="fill:#27b85b;"/><rect x="7" y="20" width="1" height="1" style="fill:#27b85b;"/><rect x="12" y="15" width="1" height="1" style="fill:#27b85b;"/><path d="M25,2l-7,0l0,2l3,0l-1,1l2,0l3,1l3,0l-3,-4Z" style="fill:#27b85b;"/><path d="M12,2l0,2l-2,1l-1,0l0,2l-1,1l0,-3l-3,0l0,-3l7,0Z" style="fill:#27b85b;"/><path d="M6,26l0,-2l-2,-2l-4,-4l0,8l6,0Z" style="fill:#27b85b;"/></g><path d="M3,11l1,0l0,4l-2,2l1,-2l0,-4" style="fill:#27b85b;"/><path d="M3,20l0,-1l2,1l1,0l0,1l-1,0l-2,-1Z" style="fill:#27b85b;"/></g></g></svg>