<?xml version="1.0" encoding="UTF-8" standalone="no"?>
<!DOCTYPE svg PUBLIC "-//W3C//DTD SVG 1.1//EN" "http://www.w3.org/Graphics/SVG/1.1/DTD/svg11.dtd">
<svg width="100%" height="100%" viewBox="0 0 32 32" version="1.1" xmlns="http://www.w3.org/2000/svg" xmlns:xlink="http://www.w3.org/1999/xlink" xml:space="preserve" xmlns:serif="http://www.serif.com/" style="fill-rule:evenodd;clip-rule:evenodd;stroke-linecap:round;stroke-miterlimit:1.5;">
    <rect id="pointy_ear" x="0" y="0" width="32" height="32" style="fill:none;"/>
    <clipPath id="_clip1">
        <rect x="0" y="0" width="32" height="32"/>
    </clipPath>
    <g clip-path="url(#_clip1)">
        <g id="outline">
            <path d="M11,30c-2.761,0 -5,-2.239 -5,-5c0,-2.724 0,-6.136 0,-9.108c0,-4.15 2.562,-7.868 6.44,-9.345c3.754,-1.43 8.327,-3.172 11.334,-4.318c0.667,-0.254 1.418,-0.134 1.972,0.316c0.554,0.449 0.827,1.16 0.716,1.865c-0.322,2.039 -0.746,4.724 -1.152,7.291c-0.835,5.29 -3.845,9.989 -8.301,12.959c-1.168,0.779 -2.009,1.34 -2.009,1.34c0,0 0,0 0,0c0,2.209 -1.791,4 -4,4c0,0 0,0 0,0Z" style="fill:none;stroke:#000;stroke-width:4px;"/>
        </g>
        <g id="emoji">
            <path d="M11,30c-2.761,0 -5,-2.239 -5,-5c0,-2.724 0,-6.136 0,-9.108c0,-4.15 2.562,-7.868 6.44,-9.345c3.754,-1.43 8.327,-3.172 11.334,-4.318c0.667,-0.254 1.418,-0.134 1.972,0.316c0.554,0.449 0.827,1.16 0.716,1.865c-0.322,2.039 -0.746,4.724 -1.152,7.291c-0.835,5.29 -3.845,9.989 -8.301,12.959c-1.168,0.779 -2.009,1.34 -2.009,1.34c0,0 0,0 0,0c0,2.209 -1.791,4 -4,4c0,0 0,0 0,0Z" style="fill:#f10dc3;"/>
            <path d="M9,16c0,0 0,2 0,4c0,2.209 1.791,4 4,4c0.588,0 1,0 1,0l6,-6l2,-3l2,-8l-2,-1l-10,3l-3,5l0,2Z" style="fill:#a90eb1;"/>
            <path d="M12,17c0,-1.657 -1.343,-3 -3,-3c-1.063,0 -2,0 -2,0l0,6c0,0 0.937,0 2,0c1.657,0 3,-1.343 3,-3c0,0 0,0 0,0Z" style="fill:#f10dc3;"/>
            <path d="M14,23c0,0 2.884,-2.523 5.188,-4.54c1.821,-1.593 3.048,-3.756 3.48,-6.136c0.346,-1.899 0.751,-4.126 1.022,-5.621c0.064,-0.352 -0.064,-0.71 -0.336,-0.942c-0.273,-0.231 -0.647,-0.299 -0.984,-0.179c-2.094,0.748 -5.794,2.069 -8.603,3.073c-2.259,0.806 -3.767,2.946 -3.767,5.345c0,0 0,0 0,0c0,0 0.808,0.808 1.586,1.586c0.781,0.781 0.781,2.047 0,2.828c-0.778,0.778 -1.586,1.586 -1.586,1.586" style="fill:none;stroke:#640082;stroke-width:2px;"/>
        </g>
        <path d="M14,12c0,0 0.001,0 0.002,0c2.208,0 3.998,1.79 3.998,3.998c0,0.001 0,0.002 0,0.002" style="fill:none;stroke:#f10dc3;stroke-width:2px;"/>
    </g>
</svg>
