<?xml version="1.0" encoding="UTF-8" standalone="no"?><!DOCTYPE svg PUBLIC "-//W3C//DTD SVG 1.1//EN" "http://www.w3.org/Graphics/SVG/1.1/DTD/svg11.dtd"><svg width="100%" height="100%" viewBox="0 0 32 32" version="1.1" xmlns="http://www.w3.org/2000/svg" xmlns:xlink="http://www.w3.org/1999/xlink" xml:space="preserve" xmlns:serif="http://www.serif.com/" style="fill-rule:evenodd;clip-rule:evenodd;stroke-linejoin:round;stroke-miterlimit:1.41421;"><rect id="xp" x="0" y="0" width="32" height="32" style="fill:none;"/><clipPath id="_clip1"><rect x="0" y="0" width="32" height="32"/></clipPath><g clip-path="url(#_clip1)"><g id="outline"><path d="M32,8c0,-4.418 -3.582,-8 -8,-8c-4.887,0 -11.113,0 -16,0c-4.418,0 -8,3.582 -8,8c0,4.887 0,11.113 0,16c0,4.418 3.582,8 8,8c4.887,0 11.113,0 16,0c4.418,0 8,-3.582 8,-8c0,-4.887 0,-11.113 0,-16Z"/></g><g id="emoji"><path d="M30,8c0,-1.591 -0.632,-3.117 -1.757,-4.243c-1.126,-1.125 -2.652,-1.757 -4.243,-1.757c-4.724,0 -11.276,0 -16,0c-1.591,0 -3.117,0.632 -4.243,1.757c-1.125,1.126 -1.757,2.652 -1.757,4.243c0,4.724 0,11.276 0,16c0,1.591 0.632,3.117 1.757,4.243c1.126,1.125 2.652,1.757 4.243,1.757c4.724,0 11.276,0 16,0c1.591,0 3.117,-0.632 4.243,-1.757c1.125,-1.126 1.757,-2.652 1.757,-4.243c0,-4.724 0,-11.276 0,-16Z" style="fill:#199d4e;"/><path d="M9.267,15.726l-3.9,-6.488l3.038,0l2.391,4.39l2.352,-4.39l2.921,0l-3.822,6.39l4.272,7.134l-3.057,0l-2.725,-4.998l-2.763,4.998l-2.921,0l4.214,-7.036Z" style="fill:#fff;fill-rule:nonzero;"/><path d="M25.761,10.375c0.79,0.758 1.186,1.796 1.186,3.116c0,1.255 -0.396,2.257 -1.186,3.009c-0.791,0.751 -1.872,1.127 -3.244,1.127l-2.489,0l0,5.135l-2.568,0l0,-13.524l5.057,0c1.372,0 2.453,0.379 3.244,1.137Zm-1.911,4.508c0.353,-0.327 0.529,-0.791 0.529,-1.392c0,-0.653 -0.173,-1.153 -0.519,-1.499c-0.347,-0.346 -0.833,-0.52 -1.461,-0.52l-2.371,0l0,3.901l2.371,0c0.615,0 1.098,-0.164 1.451,-0.49Z" style="fill:#fff;fill-rule:nonzero;"/></g></g></svg>