<?xml version="1.0" encoding="UTF-8" standalone="no"?>
<!DOCTYPE svg PUBLIC "-//W3C//DTD SVG 1.1//EN" "http://www.w3.org/Graphics/SVG/1.1/DTD/svg11.dtd">
<svg width="100%" height="100%" viewBox="0 0 32 32" version="1.1" xmlns="http://www.w3.org/2000/svg" xmlns:xlink="http://www.w3.org/1999/xlink" xml:space="preserve" xmlns:serif="http://www.serif.com/" style="fill-rule:evenodd;clip-rule:evenodd;stroke-linecap:round;stroke-linejoin:round;stroke-miterlimit:1.5;">
    <rect id="_1f63f_cat_cry" serif:id="1f63f_cat_cry" x="0" y="0" width="32" height="32" style="fill:none;"/>
    <clipPath id="_clip1">
        <rect x="0" y="0" width="32" height="32"/>
    </clipPath>
    <g clip-path="url(#_clip1)">
        <path d="M12.279,8.87c1.149,-0.249 2.378,-0.37 3.721,-0.37c1.343,0 2.572,0.121 3.721,0.37c0.492,-1.313 1.295,-2.655 2.702,-4.063c2.257,-2.257 4.615,-2.758 5.959,-2.837c0.625,0.015 1.149,0.474 1.246,1.091c0.247,1.667 0.501,5.122 -0.311,8.871c-0.316,1.462 -1.032,2.136 -1.6,2.455c1.086,2.07 1.602,4.951 0.325,8.589c-0.145,0.415 -0.338,0.815 -0.572,1.2l0.826,1.215c0.745,1.097 0.606,2.569 -0.332,3.507l-0.019,0.019c-0.518,0.518 -1.221,0.809 -1.954,0.809c-0.732,0 -1.435,-0.291 -1.953,-0.809l-0.02,-0.019c-0.311,-0.312 -0.534,-0.682 -0.667,-1.078c-2.282,1.229 -4.994,1.931 -7.351,1.931c-4.623,0 -10.614,-2.704 -12.042,-6.775c-1.277,-3.638 -0.761,-6.519 0.325,-8.589c-0.568,-0.319 -1.284,-0.993 -1.6,-2.455c-0.812,-3.749 -0.558,-7.204 -0.311,-8.871c0.097,-0.617 0.621,-1.076 1.246,-1.091c1.344,0.079 3.702,0.58 5.959,2.837c1.407,1.408 2.21,2.75 2.702,4.063Z" style="fill:none;stroke:#000;stroke-width:4px;"/>
        <path d="M26.926,14.682l-7.926,-2.784c0.33,-2.292 0.921,-4.588 3.423,-7.091c2.257,-2.257 4.615,-2.758 5.959,-2.837c0.625,0.015 1.149,0.474 1.246,1.091c0.247,1.667 0.501,5.122 -0.311,8.871c-0.54,2.498 -2.248,2.697 -2.391,2.75Zm-21.852,-0c-0.143,-0.053 -1.851,-0.252 -2.391,-2.75c-0.812,-3.749 -0.558,-7.204 -0.311,-8.871c0.097,-0.617 0.621,-1.076 1.246,-1.091c1.344,0.079 3.702,0.58 5.959,2.837c2.502,2.503 3.093,4.799 3.423,7.091l-7.926,2.784Z" style="fill:#333;"/>
        <path d="M21.809,11.041c-0.271,-1.992 0.251,-3.876 1.932,-5.726c1.489,-1.639 3.038,-2.127 3.95,-2.266c0.442,-0.027 0.823,0.307 0.857,0.748c0.169,1.846 0.41,6.442 -0.548,8.703c-0.345,0.814 -2.103,1.558 -2.103,1.558c-0,-0 -3.891,-1.565 -4.088,-3.017Zm-11.618,0c-0.197,1.452 -4.088,3.017 -4.088,3.017c0,-0 -1.758,-0.744 -2.103,-1.558c-0.958,-2.261 -0.717,-6.857 -0.548,-8.703c0.034,-0.441 0.415,-0.775 0.857,-0.748c0.912,0.139 2.461,0.627 3.95,2.266c1.681,1.85 2.203,3.734 1.932,5.726Z" style="fill:#8e767e;"/>
        <path d="M16,29.751c-4.623,0 -10.614,-2.704 -12.042,-6.775c-2.156,-6.144 0.8,-10.129 2.982,-11.694c2.648,-1.902 5.437,-2.782 9.06,-2.782c3.623,0 6.412,0.88 9.06,2.782c2.182,1.565 5.138,5.55 2.982,11.694c-1.428,4.071 -7.419,6.775 -12.042,6.775Z" style="fill:#333;"/>
        <path d="M16,25.535c-0.651,0.245 -2.447,0.981 -3.472,1.997c-0.294,0.292 -0.769,0.29 -1.06,-0.004c-0.292,-0.294 -0.29,-0.769 0.004,-1.06c1.081,-1.074 2.899,-1.891 3.778,-2.246l-0,-1.222c-0,-0.414 0.336,-0.75 0.75,-0.75c0.414,-0 0.75,0.336 0.75,0.75l0,1.222c0.879,0.355 2.697,1.172 3.778,2.246c0.294,0.291 0.296,0.766 0.004,1.06c-0.291,0.294 -0.766,0.296 -1.06,0.004c-1.025,-1.016 -2.821,-1.752 -3.472,-1.997Z" style="fill:#8e8e8e;"/>
        <path d="M16,23l-2.5,-0.682c0,-0.495 0.145,-1.425 1,-2.586c0.628,-0.852 1.099,-1.232 1.5,-1.232c0.401,-0 0.872,0.38 1.5,1.232c0.855,1.161 1,2.091 1,2.586l-2.5,0.682Z" style="fill:#3f3f3f;"/>
        <path d="M14.763,21c-0.698,0 -1.263,0.565 -1.263,1.263c0,0.083 0,0.164 0,0.239c-0,0.301 0.183,0.571 0.462,0.683c0.461,0.184 1.163,0.465 1.611,0.644c0.274,0.11 0.58,0.11 0.854,0c0.448,-0.179 1.15,-0.46 1.611,-0.644c0.279,-0.112 0.462,-0.382 0.462,-0.683c0,-0.075 0,-0.156 0,-0.239c-0,-0.698 -0.565,-1.263 -1.263,-1.263c-0.757,0 -1.717,0 -2.474,-0Z" style="fill:#6f6f6f;"/>
        <path d="M11.858,17.112c0.215,-0.354 0.676,-0.468 1.03,-0.254c0.354,0.215 0.468,0.676 0.254,1.03c-1.445,2.388 -4.771,3.3 -7.065,1.731c-0.342,-0.234 -0.43,-0.701 -0.196,-1.042c0.234,-0.342 0.701,-0.43 1.042,-0.196c1.608,1.099 3.923,0.403 4.935,-1.269Zm7,0.776c-0.214,-0.354 -0.1,-0.815 0.254,-1.03c0.354,-0.214 0.815,-0.1 1.03,0.254c1.012,1.672 3.327,2.368 4.935,1.269c0.341,-0.234 0.808,-0.146 1.042,0.196c0.234,0.341 0.146,0.808 -0.196,1.042c-2.294,1.569 -5.62,0.657 -7.065,-1.731Z" style="fill:#ffcf1a;"/>
        <path d="M25.991,22c0,0 -1.274,1.875 -2.304,3.391c-0.746,1.097 -0.607,2.569 0.331,3.507c0.007,0.006 0.013,0.013 0.02,0.019c0.518,0.518 1.221,0.809 1.953,0.809c0.733,0 1.436,-0.291 1.954,-0.809c0.007,-0.006 0.013,-0.013 0.019,-0.019c0.938,-0.938 1.077,-2.41 0.332,-3.507c-1.03,-1.516 -2.305,-3.391 -2.305,-3.391Z" style="fill:#3fa7ff;"/>
    </g>
</svg>
