<?xml version="1.0" encoding="UTF-8" standalone="no"?>
<!DOCTYPE svg PUBLIC "-//W3C//DTD SVG 1.1//EN" "http://www.w3.org/Graphics/SVG/1.1/DTD/svg11.dtd">
<svg width="100%" height="100%" viewBox="0 0 32 32" version="1.1" xmlns="http://www.w3.org/2000/svg" xmlns:xlink="http://www.w3.org/1999/xlink" xml:space="preserve" xmlns:serif="http://www.serif.com/" style="fill-rule:evenodd;clip-rule:evenodd;stroke-linecap:round;stroke-linejoin:round;stroke-miterlimit:1.5;">
    <rect id="_1f63e_cat_pouting" serif:id="1f63e_cat_pouting" x="0" y="0" width="32" height="32" style="fill:none;"/>
    <clipPath id="_clip1">
        <rect x="0" y="0" width="32" height="32"/>
    </clipPath>
    <g clip-path="url(#_clip1)">
        <path d="M12.279,8.87c1.149,-0.249 2.378,-0.37 3.721,-0.37c1.343,0 2.572,0.121 3.721,0.37c0.492,-1.313 1.295,-2.655 2.702,-4.063c2.257,-2.257 4.615,-2.758 5.959,-2.837c0.625,0.015 1.149,0.474 1.246,1.091c0.247,1.667 0.501,5.122 -0.311,8.871c-0.316,1.462 -1.032,2.136 -1.6,2.455c1.086,2.07 1.602,4.951 0.325,8.589c-1.428,4.071 -7.419,6.775 -12.042,6.775c-4.623,0 -10.614,-2.704 -12.042,-6.775c-1.277,-3.638 -0.761,-6.519 0.325,-8.589c-0.568,-0.319 -1.284,-0.993 -1.6,-2.455c-0.812,-3.749 -0.558,-7.204 -0.311,-8.871c0.097,-0.617 0.621,-1.076 1.246,-1.091c1.344,0.079 3.702,0.58 5.959,2.837c1.407,1.408 2.21,2.75 2.702,4.063Z" style="fill:none;stroke:#000;stroke-width:4px;"/>
        <path d="M26.926,14.682l-7.926,-2.784c0.33,-2.292 0.921,-4.588 3.423,-7.091c2.257,-2.257 4.615,-2.758 5.959,-2.837c0.625,0.015 1.149,0.474 1.246,1.091c0.247,1.667 0.501,5.122 -0.311,8.871c-0.54,2.498 -2.248,2.697 -2.391,2.75Zm-21.852,-0c-0.143,-0.053 -1.851,-0.252 -2.391,-2.75c-0.812,-3.749 -0.558,-7.204 -0.311,-8.871c0.097,-0.617 0.621,-1.076 1.246,-1.091c1.344,0.079 3.702,0.58 5.959,2.837c2.502,2.503 3.093,4.799 3.423,7.091l-7.926,2.784Z" style="fill:#333;"/>
        <path d="M21.809,11.041c-0.271,-1.992 0.251,-3.876 1.932,-5.726c1.489,-1.639 3.038,-2.127 3.95,-2.266c0.442,-0.027 0.823,0.307 0.857,0.748c0.169,1.846 0.41,6.442 -0.548,8.703c-0.345,0.814 -2.103,1.558 -2.103,1.558c-0,-0 -3.891,-1.565 -4.088,-3.017Zm-11.618,0c-0.197,1.452 -4.088,3.017 -4.088,3.017c0,-0 -1.758,-0.744 -2.103,-1.558c-0.958,-2.261 -0.717,-6.857 -0.548,-8.703c0.034,-0.441 0.415,-0.775 0.857,-0.748c0.912,0.139 2.461,0.627 3.95,2.266c1.681,1.85 2.203,3.734 1.932,5.726Z" style="fill:#8e767e;"/>
        <path d="M16,29.751c-4.623,0 -10.614,-2.704 -12.042,-6.775c-2.156,-6.144 0.8,-10.129 2.982,-11.694c2.648,-1.902 5.437,-2.782 9.06,-2.782c3.623,0 6.412,0.88 9.06,2.782c2.182,1.565 5.138,5.55 2.982,11.694c-1.428,4.071 -7.419,6.775 -12.042,6.775Z" style="fill:#333;"/>
        <path d="M12.745,18.082c0.427,0.718 0.534,1.396 0.257,2.017c-0.359,0.804 -3.103,1.232 -5.107,-0.206c-1.14,-0.818 -2.262,-2.702 -1.799,-4.504c0.291,-1.131 1.38,-1.272 2.734,-0.66c0.269,1.204 2.426,3.379 3.915,3.353Zm10.425,-3.353c1.354,-0.612 2.443,-0.471 2.734,0.66c0.463,1.802 -0.659,3.686 -1.799,4.504c-2.004,1.438 -4.748,1.01 -5.107,0.206c-0.277,-0.621 -0.17,-1.299 0.257,-2.017c1.619,0.212 3.46,-2.669 3.915,-3.353Z" style="fill:#ffcf1a;"/>
        <path d="M12.745,18.082c-0.224,1.44 -1.33,2.217 -1.966,2.558c-0.28,0.133 -0.608,0.117 -0.874,-0.043c-0.642,-0.432 -1.806,-1.464 -1.806,-3.278c0,-1.161 0.331,-1.999 0.731,-2.59c0.48,0.216 0.992,0.527 1.514,0.922c1.115,0.843 1.942,1.66 2.401,2.431Zm10.425,-3.353c0.4,0.591 0.731,1.429 0.731,2.59c-0,1.814 -1.164,2.846 -1.806,3.278c-0.266,0.16 -0.594,0.176 -0.874,0.043c-0.636,-0.341 -1.742,-1.118 -1.966,-2.558c0.459,-0.771 1.286,-1.588 2.401,-2.431c0.522,-0.395 1.034,-0.706 1.514,-0.922Z"/>
        <path d="M16,25.771c-0.493,0.129 -2.093,0.614 -3.519,1.805c-0.318,0.265 -0.791,0.222 -1.057,-0.095c-0.265,-0.318 -0.222,-0.791 0.095,-1.057c1.386,-1.156 2.912,-1.743 3.731,-1.997l-0,-1.427c-0,-0.414 0.336,-0.75 0.75,-0.75c0.414,-0 0.75,0.336 0.75,0.75l-0,1.427c0.819,0.254 2.345,0.841 3.731,1.997c0.317,0.266 0.36,0.739 0.095,1.057c-0.266,0.317 -0.739,0.36 -1.057,0.095c-1.426,-1.191 -3.026,-1.676 -3.519,-1.805Z" style="fill:#8e8e8e;"/>
        <path d="M16,23l-2.5,-0.682c0,-0.495 0.145,-1.425 1,-2.586c0.628,-0.852 1.099,-1.232 1.5,-1.232c0.401,-0 0.872,0.38 1.5,1.232c0.855,1.161 1,2.091 1,2.586l-2.5,0.682Z" style="fill:#3f3f3f;"/>
        <path d="M14.763,21c-0.698,0 -1.263,0.565 -1.263,1.263c-0,0.083 -0,0.164 -0,0.239c-0,0.301 0.183,0.571 0.462,0.683c0.461,0.184 1.163,0.465 1.611,0.644c0.274,0.11 0.58,0.11 0.854,0c0.448,-0.179 1.15,-0.46 1.611,-0.644c0.279,-0.112 0.462,-0.382 0.462,-0.683c0,-0.075 -0,-0.156 0,-0.239c-0,-0.698 -0.565,-1.263 -1.263,-1.263c-0.757,0 -1.717,0 -2.474,0Z" style="fill:#6f6f6f;"/>
    </g>
</svg>
