<?xml version="1.0" encoding="UTF-8" standalone="no"?>
<!DOCTYPE svg PUBLIC "-//W3C//DTD SVG 1.1//EN" "http://www.w3.org/Graphics/SVG/1.1/DTD/svg11.dtd">
<svg width="100%" height="100%" viewBox="0 0 32 32" version="1.1" xmlns="http://www.w3.org/2000/svg" xmlns:xlink="http://www.w3.org/1999/xlink" xml:space="preserve" xmlns:serif="http://www.serif.com/" style="fill-rule:evenodd;clip-rule:evenodd;stroke-linecap:round;stroke-linejoin:round;stroke-miterlimit:1.5;">
    <rect id="_1f639_cat_joy" serif:id="1f639_cat_joy" x="0" y="0" width="32" height="32" style="fill:none;"/>
    <clipPath id="_clip1">
        <rect x="0" y="0" width="32" height="32"/>
    </clipPath>
    <g clip-path="url(#_clip1)">
        <path d="M3.832,22.603c-1.115,-3.463 -0.597,-6.217 0.451,-8.216c-0.568,-0.319 -1.284,-0.993 -1.6,-2.455c-0.812,-3.749 -0.558,-7.204 -0.311,-8.871c0.097,-0.617 0.621,-1.076 1.246,-1.091c1.344,0.079 3.702,0.58 5.959,2.837c1.407,1.408 2.21,2.75 2.702,4.063c1.149,-0.249 2.378,-0.37 3.721,-0.37c1.343,0 2.572,0.121 3.721,0.37c0.492,-1.313 1.295,-2.655 2.702,-4.063c2.257,-2.257 4.615,-2.758 5.959,-2.837c0.625,0.015 1.149,0.474 1.246,1.091c0.247,1.667 0.501,5.122 -0.311,8.871c-0.316,1.462 -1.032,2.136 -1.6,2.455c1.048,1.999 1.566,4.753 0.451,8.216c1.078,0.876 1.832,2.025 1.832,3.397c-0,1.056 -0.578,2.063 -1.758,2.429c-1.36,0.423 -2.854,-0.372 -3.218,-1.623c-0.003,-0.012 -0.007,-0.024 -0.01,-0.036c-2.525,1.87 -6.05,2.981 -9.014,2.981c-2.964,0 -6.489,-1.111 -9.014,-2.981c-0.003,0.012 -0.007,0.024 -0.01,0.036c-0.364,1.251 -1.858,2.046 -3.218,1.623c-1.18,-0.366 -1.758,-1.373 -1.758,-2.429c-0,-1.372 0.754,-2.521 1.832,-3.397Z" style="fill:none;stroke:#000;stroke-width:4px;"/>
        <path d="M26.926,14.682l-7.926,-2.784c0.33,-2.292 0.921,-4.588 3.423,-7.091c2.257,-2.257 4.615,-2.758 5.959,-2.837c0.625,0.015 1.149,0.474 1.246,1.091c0.247,1.667 0.501,5.122 -0.311,8.871c-0.54,2.498 -2.248,2.697 -2.391,2.75Zm-21.852,-0c-0.143,-0.053 -1.851,-0.252 -2.391,-2.75c-0.812,-3.749 -0.558,-7.204 -0.311,-8.871c0.097,-0.617 0.621,-1.076 1.246,-1.091c1.344,0.079 3.702,0.58 5.959,2.837c2.502,2.503 3.093,4.799 3.423,7.091l-7.926,2.784Z" style="fill:#333;"/>
        <path d="M21.809,11.041c-0.271,-1.992 0.251,-3.876 1.932,-5.726c1.489,-1.639 3.038,-2.127 3.95,-2.266c0.442,-0.027 0.823,0.307 0.857,0.748c0.169,1.846 0.41,6.442 -0.548,8.703c-0.345,0.814 -2.103,1.558 -2.103,1.558c-0,-0 -3.891,-1.565 -4.088,-3.017Zm-11.618,0c-0.197,1.452 -4.088,3.017 -4.088,3.017c0,-0 -1.758,-0.744 -2.103,-1.558c-0.958,-2.261 -0.717,-6.857 -0.548,-8.703c0.034,-0.441 0.415,-0.775 0.857,-0.748c0.912,0.139 2.461,0.627 3.95,2.266c1.681,1.85 2.203,3.734 1.932,5.726Z" style="fill:#8e767e;"/>
        <path d="M16,29.751c-4.623,0 -10.614,-2.704 -12.042,-6.775c-2.156,-6.144 0.8,-10.129 2.982,-11.694c2.648,-1.902 5.437,-2.782 9.06,-2.782c3.623,0 6.412,0.88 9.06,2.782c2.182,1.565 5.138,5.55 2.982,11.694c-1.428,4.071 -7.419,6.775 -12.042,6.775Z" style="fill:#333;"/>
        <path d="M16,22l-2.5,-0.682c0,-0.495 0.145,-1.425 1,-2.586c0.628,-0.852 1.099,-1.232 1.5,-1.232c0.401,-0 0.872,0.38 1.5,1.232c0.855,1.161 1,2.091 1,2.586l-2.5,0.682Z" style="fill:#3f3f3f;"/>
        <path d="M14.763,20c-0.698,0 -1.263,0.565 -1.263,1.263c-0,0.083 0,0.164 -0,0.239c-0,0.301 0.183,0.571 0.462,0.683c0.461,0.184 1.163,0.465 1.611,0.644c0.274,0.11 0.58,0.11 0.854,0c0.448,-0.179 1.15,-0.46 1.611,-0.644c0.279,-0.112 0.462,-0.382 0.462,-0.683c0,-0.075 0,-0.156 -0,-0.239c-0,-0.698 -0.565,-1.263 -1.263,-1.263c-0.757,0 -1.717,0 -2.474,0Z" style="fill:#6f6f6f;"/>
        <path d="M13.09,18.536c0.255,0.326 0.199,0.798 -0.126,1.054c-0.326,0.255 -0.798,0.199 -1.054,-0.126c-0.365,-0.465 -1.167,-1.007 -2.122,-1.387c-0.963,-0.382 -2.09,-0.601 -3.126,-0.348c-0.402,0.098 -0.808,-0.149 -0.906,-0.551c-0.099,-0.402 0.148,-0.808 0.55,-0.907c1.336,-0.326 2.795,-0.081 4.036,0.413c1.249,0.496 2.269,1.244 2.748,1.852Zm6.984,0.928c-0.256,0.325 -0.728,0.381 -1.054,0.126c-0.325,-0.256 -0.381,-0.728 -0.125,-1.054c0.478,-0.608 1.498,-1.356 2.747,-1.852c1.242,-0.494 2.7,-0.739 4.036,-0.413c0.402,0.099 0.649,0.505 0.551,0.907c-0.099,0.402 -0.505,0.649 -0.907,0.551c-1.036,-0.253 -2.163,-0.034 -3.126,0.348c-0.955,0.38 -1.757,0.922 -2.122,1.387Z" style="fill:#ffcf1a;"/>
        <path d="M12.126,27.446c-1.466,-1.234 -1.626,-2.946 -1.626,-2.946c2.795,0.961 4.472,0.097 5.496,-1.494c0.001,-0.002 0.003,-0.004 0.004,-0.006c0.001,0.002 0.003,0.004 0.004,0.006c1.024,1.591 2.701,2.455 5.496,1.494c0,0 -0.16,1.712 -1.626,2.946c-0.582,-0.982 -7.166,-0.982 -7.748,-0Z" style="fill:#f36c93;"/>
        <path d="M12.126,27.446c0.582,-0.982 1.706,-1.946 3.874,-1.946c2.168,0 3.292,0.964 3.874,1.946c-0.724,0.609 -1.766,1.101 -3.264,1.214c-0.187,0.015 -0.39,0.022 -0.61,0.022c-0.22,0 -0.423,-0.007 -0.61,-0.022c-1.498,-0.113 -2.54,-0.605 -3.264,-1.214Z" style="fill:#cb3963;"/>
        <path d="M25,21c2.434,0.696 5,2.469 5,5c-0,1.056 -0.578,2.063 -1.758,2.429c-1.36,0.423 -2.854,-0.372 -3.218,-1.623c-0.506,-1.739 0.848,-3.419 -0.024,-5.806Zm-18,0c-0.872,2.387 0.482,4.067 -0.024,5.806c-0.364,1.251 -1.858,2.046 -3.218,1.623c-1.18,-0.366 -1.758,-1.373 -1.758,-2.429c-0,-2.531 2.566,-4.304 5,-5Z" style="fill:#3fa7ff;"/>
    </g>
</svg>
