<?xml version="1.0" encoding="UTF-8" standalone="no"?>
<!DOCTYPE svg PUBLIC "-//W3C//DTD SVG 1.1//EN" "http://www.w3.org/Graphics/SVG/1.1/DTD/svg11.dtd">
<svg width="100%" height="100%" viewBox="0 0 32 32" version="1.1" xmlns="http://www.w3.org/2000/svg" xmlns:xlink="http://www.w3.org/1999/xlink" xml:space="preserve" xmlns:serif="http://www.serif.com/" style="fill-rule:evenodd;clip-rule:evenodd;stroke-linecap:round;stroke-linejoin:round;stroke-miterlimit:1.5;">
    <rect id="_1f63b_cat_heart_eyes" serif:id="1f63b_cat_heart_eyes" x="0" y="0" width="32" height="32" style="fill:none;"/>
    <clipPath id="_clip1">
        <rect x="0" y="0" width="32" height="32"/>
    </clipPath>
    <g clip-path="url(#_clip1)">
        <path d="M12.279,8.87c1.149,-0.249 2.378,-0.37 3.721,-0.37c1.343,0 2.572,0.121 3.721,0.37c0.492,-1.313 1.295,-2.655 2.702,-4.063c2.257,-2.257 4.615,-2.758 5.959,-2.837c0.625,0.015 1.149,0.474 1.246,1.091c0.247,1.667 0.501,5.122 -0.311,8.871c-0.183,0.85 -0.503,1.434 -0.85,1.837c0.261,0.722 0.26,1.581 -0.028,2.439c0.511,1.833 0.541,4.097 -0.397,6.768c-1.428,4.071 -7.419,7.024 -12.042,7.024c-4.623,0 -10.614,-2.953 -12.042,-7.024c-0.938,-2.671 -0.908,-4.935 -0.397,-6.768c-0.288,-0.858 -0.289,-1.717 -0.028,-2.439c-0.347,-0.403 -0.667,-0.987 -0.85,-1.837c-0.812,-3.749 -0.558,-7.204 -0.311,-8.871c0.097,-0.617 0.621,-1.076 1.246,-1.091c1.344,0.079 3.702,0.58 5.959,2.837c1.407,1.408 2.21,2.75 2.702,4.063Z" style="fill:none;stroke:#000;stroke-width:4px;"/>
        <path d="M26.926,14.682l-7.926,-2.784c0.33,-2.292 0.921,-4.588 3.423,-7.091c2.257,-2.257 4.615,-2.758 5.959,-2.837c0.625,0.015 1.149,0.474 1.246,1.091c0.247,1.667 0.501,5.122 -0.311,8.871c-0.54,2.498 -2.248,2.697 -2.391,2.75Zm-21.852,-0c-0.143,-0.053 -1.851,-0.252 -2.391,-2.75c-0.812,-3.749 -0.558,-7.204 -0.311,-8.871c0.097,-0.617 0.621,-1.076 1.246,-1.091c1.344,0.079 3.702,0.58 5.959,2.837c2.502,2.503 3.093,4.799 3.423,7.091l-7.926,2.784Z" style="fill:#333;"/>
        <path d="M10.207,10.914c-0.005,0.042 -0.01,0.085 -0.016,0.127c-0.197,1.452 -4.088,3.017 -4.088,3.017c0,-0 -1.758,-0.744 -2.103,-1.558c-0.154,-0.363 -0.277,-0.786 -0.374,-1.248c0.353,-0.256 0.753,-1.461 1.197,-1.606c1.521,-0.494 2.895,-0.183 3.926,0.534c0.366,-0.146 0.869,0.749 1.458,0.734Zm18.167,0.338c-0.097,0.462 -0.22,0.885 -0.374,1.248c-0.345,0.814 -2.103,1.558 -2.103,1.558c-0,-0 -3.891,-1.565 -4.088,-3.017c-0.006,-0.042 -0.011,-0.085 -0.016,-0.127c0.589,0.015 1.092,-0.88 1.458,-0.734c1.031,-0.717 2.405,-1.028 3.926,-0.534c0.444,0.145 0.844,1.35 1.197,1.606Z" style="fill:#6b585f;"/>
        <path d="M21.793,10.914c-0.232,-1.946 0.303,-3.788 1.948,-5.599c1.489,-1.639 3.038,-2.127 3.95,-2.266c0.442,-0.027 0.823,0.307 0.857,0.748c0.142,1.55 0.335,5.038 -0.174,7.455c-0.353,-0.256 -0.753,-0.461 -1.197,-0.606c-1.521,-0.494 -2.895,-0.183 -3.926,0.534c-0.366,-0.146 -0.869,-0.251 -1.458,-0.266Zm-18.167,0.338c-0.509,-2.417 -0.316,-5.905 -0.174,-7.455c0.034,-0.441 0.415,-0.775 0.857,-0.748c0.912,0.139 2.461,0.627 3.95,2.266c1.645,1.811 2.18,3.653 1.948,5.599c-0.589,0.015 -1.092,0.12 -1.458,0.266c-1.031,-0.717 -2.405,-1.028 -3.926,-0.534c-0.444,0.145 -0.844,0.35 -1.197,0.606Z" style="fill:#8e767e;"/>
        <path d="M16,30c-4.623,0 -10.614,-2.953 -12.042,-7.024c-2.156,-6.144 0.8,-10.129 2.982,-11.694c2.648,-1.902 5.437,-2.782 9.06,-2.782c3.623,0 6.412,0.88 9.06,2.782c2.182,1.565 5.138,5.55 2.982,11.694c-1.428,4.071 -7.419,7.024 -12.042,7.024Z" style="fill:#333;"/>
        <path d="M16,22l-2.5,-0.682c0,-0.495 0.145,-1.425 1,-2.586c0.628,-0.852 1.099,-1.232 1.5,-1.232c0.401,-0 0.872,0.38 1.5,1.232c0.855,1.161 1,2.091 1,2.586l-2.5,0.682Z" style="fill:#3f3f3f;"/>
        <path d="M14.763,20c-0.698,0 -1.263,0.565 -1.263,1.263c0,0.083 0,0.164 0,0.239c-0,0.301 0.183,0.571 0.462,0.683c0.461,0.184 1.163,0.465 1.611,0.644c0.274,0.11 0.58,0.11 0.854,0c0.448,-0.179 1.15,-0.46 1.611,-0.644c0.279,-0.112 0.462,-0.382 0.462,-0.683c0,-0.075 0,-0.156 0,-0.239c-0,-0.698 -0.565,-1.263 -1.263,-1.263c-0.757,0 -1.717,0 -2.474,0Z" style="fill:#6f6f6f;"/>
        <path d="M20.812,20.806c-0.779,-0.679 -2.846,-2.658 -3.579,-5.129c-0.904,-3.043 0.954,-5.666 3.365,-5.193c1.398,0.275 2.183,1.297 2.374,2.37c0.011,0.119 0.095,0.217 0.21,0.247c0.116,0.03 0.237,-0.015 0.305,-0.113c0.689,-0.844 1.871,-1.356 3.226,-0.915c2.337,0.76 2.684,3.955 0.413,6.174c-1.843,1.801 -4.611,2.524 -5.623,2.739c-0.245,0.046 -0.499,-0.02 -0.691,-0.18Zm-9.624,-0c-0.192,0.16 -0.446,0.226 -0.691,0.18c-1.012,-0.215 -3.78,-0.938 -5.623,-2.739c-2.271,-2.219 -1.924,-5.414 0.413,-6.174c1.355,-0.441 2.537,0.071 3.226,0.915c0.068,0.098 0.189,0.143 0.305,0.113c0.115,-0.03 0.199,-0.128 0.21,-0.247c0.191,-1.073 0.976,-2.095 2.374,-2.37c2.411,-0.473 4.269,2.15 3.365,5.193c-0.733,2.471 -2.8,4.45 -3.579,5.129Z" style="fill:#ff3c80;"/>
        <g>
            <path d="M12.266,27.509c-1.596,-1.308 -1.766,-3.24 -1.766,-3.24c2.252,1.274 4.06,0.731 5.488,-1.224c0.004,-0.015 0.008,-0.03 0.012,-0.045l0.01,0.014l0.01,-0.014c0.004,0.015 0.008,0.03 0.013,0.045c1.427,1.955 3.235,2.498 5.487,1.224c0,0 -0.171,1.943 -1.779,3.251c-0.616,-1.044 -6.858,-1.05 -7.475,-0.011Z" style="fill:#f36c93;"/>
            <path d="M12.266,27.509c0.617,-1.039 1.73,-2.009 3.734,-2.009c2.011,0 3.125,0.976 3.741,2.02c-0.816,0.663 -2.001,1.162 -3.721,1.162c-0.003,0 -0.007,0 -0.01,0c-0.003,0 -0.007,0 -0.01,0c-1.73,0 -2.919,-0.505 -3.734,-1.173Z" style="fill:#cb3963;"/>
        </g>
    </g>
</svg>
