<?xml version="1.0" encoding="UTF-8" standalone="no"?>
<!DOCTYPE svg PUBLIC "-//W3C//DTD SVG 1.1//EN" "http://www.w3.org/Graphics/SVG/1.1/DTD/svg11.dtd">
<svg width="100%" height="100%" viewBox="0 0 32 32" version="1.1" xmlns="http://www.w3.org/2000/svg" xmlns:xlink="http://www.w3.org/1999/xlink" xml:space="preserve" xmlns:serif="http://www.serif.com/" style="fill-rule:evenodd;clip-rule:evenodd;stroke-linecap:round;stroke-linejoin:round;stroke-miterlimit:1.5;">
    <rect id="_1f63a_cat_grin" serif:id="1f63a_cat_grin" x="0" y="0" width="32" height="32" style="fill:none;"/>
    <clipPath id="_clip1">
        <rect x="0" y="0" width="32" height="32"/>
    </clipPath>
    <g clip-path="url(#_clip1)">
        <path d="M12.279,8.87c1.149,-0.249 2.378,-0.37 3.721,-0.37c1.343,0 2.572,0.121 3.721,0.37c0.492,-1.313 1.295,-2.655 2.702,-4.063c2.257,-2.257 4.615,-2.758 5.959,-2.837c0.625,0.015 1.149,0.474 1.246,1.091c0.247,1.667 0.501,5.122 -0.311,8.871c-0.316,1.462 -1.032,2.136 -1.6,2.455c1.086,2.07 1.602,4.951 0.325,8.589c-1.428,4.071 -7.419,7.024 -12.042,7.024c-4.623,0 -10.614,-2.953 -12.042,-7.024c-1.277,-3.638 -0.761,-6.519 0.325,-8.589c-0.568,-0.319 -1.284,-0.993 -1.6,-2.455c-0.812,-3.749 -0.558,-7.204 -0.311,-8.871c0.097,-0.617 0.621,-1.076 1.246,-1.091c1.344,0.079 3.702,0.58 5.959,2.837c1.407,1.408 2.21,2.75 2.702,4.063Z" style="fill:none;stroke:#000;stroke-width:4px;"/>
        <path d="M26.926,14.682l-7.926,-2.784c0.33,-2.292 0.921,-4.588 3.423,-7.091c2.257,-2.257 4.615,-2.758 5.959,-2.837c0.625,0.015 1.149,0.474 1.246,1.091c0.247,1.667 0.501,5.122 -0.311,8.871c-0.54,2.498 -2.248,2.697 -2.391,2.75Z" style="fill:#333;"/>
        <path d="M5.074,14.682l7.926,-2.784c-0.33,-2.292 -0.921,-4.588 -3.423,-7.091c-2.257,-2.257 -4.615,-2.758 -5.959,-2.837c-0.625,0.015 -1.149,0.474 -1.246,1.091c-0.247,1.667 -0.501,5.122 0.311,8.871c0.54,2.498 2.248,2.697 2.391,2.75Z" style="fill:#333;"/>
        <path d="M21.809,11.041c-0.271,-1.992 0.251,-3.876 1.932,-5.726c1.489,-1.639 3.038,-2.127 3.95,-2.266c0.442,-0.027 0.823,0.307 0.857,0.748c0.169,1.846 0.41,6.442 -0.548,8.703c-0.345,0.814 -2.103,1.558 -2.103,1.558c-0,-0 -3.891,-1.565 -4.088,-3.017Zm-11.618,0c-0.197,1.452 -4.088,3.017 -4.088,3.017c0,-0 -1.758,-0.744 -2.103,-1.558c-0.958,-2.261 -0.717,-6.857 -0.548,-8.703c0.034,-0.441 0.415,-0.775 0.857,-0.748c0.912,0.139 2.461,0.627 3.95,2.266c1.681,1.85 2.203,3.734 1.932,5.726Z" style="fill:#8e767e;"/>
        <path d="M16,30c-4.623,0 -10.614,-2.953 -12.042,-7.024c-2.156,-6.144 0.8,-10.129 2.982,-11.694c2.648,-1.902 5.437,-2.782 9.06,-2.782c3.623,0 6.412,0.88 9.06,2.782c2.182,1.565 5.138,5.55 2.982,11.694c-1.428,4.071 -7.419,7.024 -12.042,7.024Z" style="fill:#333;"/>
        <g>
            <path d="M11.477,14.291c1.844,1.282 2.162,3.883 1.525,5.308c-0.218,0.49 -1.174,0.65 -2.382,0.443c0.109,-0.036 1.313,-5.098 0.857,-5.751Zm-1.931,5.485c-0.471,-0.15 -0.956,-0.35 -1.434,-0.6c-1.326,-0.694 -2.479,-2.021 -2.016,-3.823c0.31,-1.206 1.793,-1.93 3.368,-1.783c-0.478,0.553 -0.427,5.665 0.082,6.206Zm12.99,-6.206c1.575,-0.147 3.058,0.577 3.368,1.783c0.463,1.802 -0.69,3.129 -2.016,3.823c-0.478,0.25 -0.963,0.45 -1.434,0.6c0.509,-0.541 0.56,-5.653 0.082,-6.206Zm-1.156,6.472c-1.208,0.207 -2.164,0.047 -2.382,-0.443c-0.637,-1.425 -0.319,-4.026 1.525,-5.308c-0.456,0.653 0.748,5.715 0.857,5.751Z" style="fill:#ffcf1a;"/>
            <path d="M9.546,19.776c-0.509,-0.541 -1.119,-1.495 -1.119,-2.957c-0,-1.688 0.559,-2.696 1.037,-3.249c0.425,0.04 0.857,0.143 1.274,0.317c0.269,0.112 0.515,0.248 0.739,0.404c0.456,0.653 0.854,1.565 0.854,2.759c-0,1.408 -0.794,2.325 -1.404,2.83c-0.094,0.072 -0.198,0.126 -0.307,0.162c-0.341,-0.059 -0.703,-0.147 -1.074,-0.266Zm11.834,0.266c-0.109,-0.036 -0.213,-0.09 -0.307,-0.162c-0.61,-0.505 -1.404,-1.422 -1.404,-2.83c0,-1.194 0.398,-2.106 0.854,-2.759c0.224,-0.156 0.47,-0.292 0.739,-0.404c0.417,-0.174 0.849,-0.277 1.274,-0.317c0.478,0.553 1.037,1.561 1.037,3.249c0,1.462 -0.61,2.416 -1.119,2.957c-0.371,0.119 -0.733,0.207 -1.074,0.266Z"/>
        </g>
        <path d="M16.75,24.737c-0,0.414 -0.336,0.75 -0.75,0.75c-0.414,-0 -0.75,-0.336 -0.75,-0.75l-0,-2.737c-0,-0.414 0.336,-0.75 0.75,-0.75c0.414,-0 0.75,0.336 0.75,0.75l-0,2.737Z" style="fill:#4c4c4c;"/>
        <path d="M12.157,27.395c-1.495,-1.327 -1.657,-3.202 -1.657,-3.202c1.983,1.121 3.606,0.893 4.94,-0.511c0.212,-0.259 0.406,-0.49 0.56,-0.682c0.154,0.192 0.348,0.423 0.56,0.682c1.334,1.404 2.957,1.632 4.94,0.511c-0,-0 -0.162,1.875 -1.657,3.202c-0.591,-0.964 -7.095,-0.964 -7.686,-0Z" style="fill:#f36c93;"/>
        <path d="M12.157,27.395c0.591,-0.964 1.713,-1.895 3.843,-1.895c2.13,0 3.252,0.931 3.843,1.895c-0.722,0.641 -1.756,1.154 -3.233,1.265c-0.187,0.015 -0.39,0.022 -0.61,0.022c-0.22,0 -0.423,-0.007 -0.61,-0.022c-1.477,-0.111 -2.511,-0.624 -3.233,-1.265Z" style="fill:#cb3963;"/>
        <path d="M16,22l-2.5,-0.682c0,-0.495 0.145,-1.425 1,-2.586c0.628,-0.852 1.099,-1.232 1.5,-1.232c0.401,-0 0.872,0.38 1.5,1.232c0.855,1.161 1,2.091 1,2.586l-2.5,0.682Z" style="fill:#3f3f3f;"/>
        <path d="M14.763,20c-0.698,0 -1.263,0.565 -1.263,1.263c-0,0.083 -0,0.164 -0,0.239c-0,0.301 0.183,0.571 0.462,0.683c0.461,0.184 1.163,0.465 1.611,0.644c0.274,0.11 0.58,0.11 0.854,0c0.448,-0.179 1.15,-0.46 1.611,-0.644c0.279,-0.112 0.462,-0.382 0.462,-0.683c0,-0.075 0,-0.156 0,-0.239c-0,-0.698 -0.565,-1.263 -1.263,-1.263c-0.757,-0 -1.717,-0 -2.474,-0Z" style="fill:#6f6f6f;"/>
    </g>
</svg>
