<?xml version="1.0" encoding="UTF-8" standalone="no"?>
<!DOCTYPE svg PUBLIC "-//W3C//DTD SVG 1.1//EN" "http://www.w3.org/Graphics/SVG/1.1/DTD/svg11.dtd">
<svg width="100%" height="100%" viewBox="0 0 32 32" version="1.1" xmlns="http://www.w3.org/2000/svg" xmlns:xlink="http://www.w3.org/1999/xlink" xml:space="preserve" xmlns:serif="http://www.serif.com/" style="fill-rule:evenodd;clip-rule:evenodd;stroke-linecap:round;stroke-linejoin:round;stroke-miterlimit:1.5;">
    <rect id="_1f640_cat_scream" serif:id="1f640_cat_scream" x="0" y="0" width="32" height="32" style="fill:none;"/>
    <clipPath id="_clip1">
        <rect x="0" y="0" width="32" height="32"/>
    </clipPath>
    <g clip-path="url(#_clip1)">
        <path d="M12.279,8.87c1.149,-0.249 2.378,-0.37 3.721,-0.37c1.343,0 2.572,0.121 3.721,0.37c0.492,-1.313 1.295,-2.655 2.702,-4.063c2.257,-2.257 4.615,-2.758 5.959,-2.837c0.625,0.015 1.149,0.474 1.246,1.091c0.247,1.667 0.501,5.122 -0.311,8.871c-0.33,1.527 -1.096,2.195 -1.675,2.495c1.136,2.231 1.706,5.352 0.4,9.073c-1.428,4.07 -5.445,6.5 -12.042,6.5c-6.597,-0 -10.614,-2.43 -12.042,-6.5c-1.306,-3.721 -0.736,-6.842 0.4,-9.073c-0.579,-0.3 -1.345,-0.968 -1.675,-2.495c-0.812,-3.749 -0.558,-7.204 -0.311,-8.871c0.097,-0.617 0.621,-1.076 1.246,-1.091c1.344,0.079 3.702,0.58 5.959,2.837c1.407,1.408 2.21,2.75 2.702,4.063Z" style="fill:none;stroke:#000;stroke-width:4px;"/>
        <path d="M5.074,14.682c-0.143,-0.053 -1.851,-0.252 -2.391,-2.75c-0.812,-3.749 -0.558,-7.204 -0.311,-8.871c0.097,-0.617 0.621,-1.076 1.246,-1.091c1.344,0.079 3.702,0.58 5.959,2.837c2.502,2.503 3.093,4.799 3.423,7.091l-7.926,2.784Zm21.852,-0l-7.926,-2.784c0.33,-2.292 0.921,-4.588 3.423,-7.091c2.257,-2.257 4.615,-2.758 5.959,-2.837c0.625,0.015 1.149,0.474 1.246,1.091c0.247,1.667 0.501,5.122 -0.311,8.871c-0.54,2.498 -2.248,2.697 -2.391,2.75Z" style="fill:#333;"/>
        <path d="M21.809,11.041c-0.271,-1.992 0.251,-3.876 1.932,-5.726c1.489,-1.639 3.038,-2.127 3.95,-2.266c0.442,-0.027 0.823,0.307 0.857,0.748c0.169,1.846 0.41,6.442 -0.548,8.703c-0.345,0.814 -2.103,1.558 -2.103,1.558c-0,-0 -3.891,-1.565 -4.088,-3.017Zm-11.618,0c-0.197,1.452 -4.088,3.017 -4.088,3.017c0,-0 -1.758,-0.744 -2.103,-1.558c-0.958,-2.261 -0.717,-6.857 -0.548,-8.703c0.034,-0.441 0.415,-0.775 0.857,-0.748c0.912,0.139 2.461,0.627 3.95,2.266c1.681,1.85 2.203,3.734 1.932,5.726Z" style="fill:#8e767e;"/>
        <path d="M16,30c-6.597,-0 -10.614,-2.43 -12.042,-6.5c-2.156,-6.145 0.8,-10.653 2.982,-12.218c2.648,-1.902 5.437,-2.782 9.06,-2.782c3.623,0 6.412,0.88 9.06,2.782c2.182,1.565 5.138,6.073 2.982,12.218c-1.428,4.07 -5.445,6.5 -12.042,6.5Z" style="fill:#333;"/>
        <path d="M16,21.5l-2.5,-0.682c0,-0.495 0.145,-1.425 1,-2.586c0.628,-0.852 1.099,-1.232 1.5,-1.232c0.401,-0 0.872,0.38 1.5,1.232c0.855,1.161 1,2.091 1,2.586l-2.5,0.682Z" style="fill:#3f3f3f;"/>
        <path d="M17.798,11.661c1.708,-1.708 4.906,-1.284 7.136,0.947c2.23,2.23 2.655,5.428 0.947,7.136c-1.708,1.707 -4.906,1.283 -7.136,-0.947c-2.231,-2.231 -2.655,-5.428 -0.947,-7.136Zm-3.963,0.199c1.708,1.708 1.328,4.861 -0.847,7.036c-2.176,2.176 -5.329,2.555 -7.036,0.848c-1.708,-1.708 -1.329,-4.861 0.847,-7.037c2.175,-2.175 5.328,-2.555 7.036,-0.847Z" style="fill:#fff;"/>
        <path d="M17.445,11.308c1.874,-1.875 5.395,-1.502 7.843,0.946c2.447,2.448 2.821,5.969 0.946,7.843c-1.874,1.874 -5.395,1.501 -7.843,-0.947c-2.447,-2.447 -2.821,-5.968 -0.946,-7.842Zm0.707,0.707c-1.542,1.541 -1.067,4.415 0.946,6.428c2.014,2.014 4.887,2.489 6.429,0.947c1.542,-1.542 1.067,-4.415 -0.947,-6.429c-2.013,-2.013 -4.886,-2.488 -6.428,-0.946Zm-3.963,-0.509c1.877,1.878 1.544,5.353 -0.848,7.744c-2.391,2.391 -5.866,2.724 -7.743,0.847c-1.877,-1.877 -1.544,-5.352 0.847,-7.743c2.391,-2.392 5.866,-2.725 7.744,-0.848Zm-0.707,0.707c-1.539,-1.538 -4.369,-1.113 -6.33,0.848c-1.96,1.96 -2.386,4.79 -0.847,6.329c1.539,1.539 4.369,1.113 6.329,-0.847c1.961,-1.96 2.386,-4.791 0.848,-6.33Z" style="fill:#181818;"/>
        <path d="M14.763,19.5c-0.698,0 -1.263,0.565 -1.263,1.263c0,0.083 0,0.164 0,0.239c-0,0.301 0.183,0.571 0.462,0.683c0.461,0.184 1.163,0.465 1.611,0.644c0.274,0.11 0.58,0.11 0.854,0c0.448,-0.179 1.15,-0.46 1.611,-0.644c0.279,-0.112 0.462,-0.382 0.462,-0.683c0,-0.075 0,-0.156 0,-0.239c-0,-0.698 -0.565,-1.263 -1.263,-1.263c-0.757,-0 -1.717,-0 -2.474,-0Z" style="fill:#6f6f6f;"/>
        <g>
            <path d="M12.366,28.357c-0.152,0.026 -0.3,0.053 -0.444,0.081c-0.477,0.088 -0.961,-0.112 -1.237,-0.511c-0.277,-0.399 -0.293,-0.923 -0.043,-1.339c1.019,-1.668 2.758,-3.588 5.358,-3.588c2.6,-0 4.339,1.92 5.358,3.588c0.25,0.416 0.233,0.94 -0.043,1.339c-0.276,0.399 -0.76,0.599 -1.237,0.512c-0.144,-0.028 -0.292,-0.055 -0.443,-0.082c-0.783,-1.146 -6.486,-1.146 -7.269,-0Z" style="fill:#f36c93;"/>
            <path d="M19.635,28.357c-0.783,-1.146 -2.092,-1.857 -3.519,-1.857l-0.232,0c-1.426,0 -2.735,0.711 -3.518,1.857c1.107,-0.194 2.403,-0.357 3.634,-0.357c1.232,-0 2.527,0.163 3.635,0.357Z" style="fill:#cb3963;"/>
        </g>
    </g>
</svg>
