<?xml version="1.0" encoding="UTF-8" standalone="no"?>
<!DOCTYPE svg PUBLIC "-//W3C//DTD SVG 1.1//EN" "http://www.w3.org/Graphics/SVG/1.1/DTD/svg11.dtd">
<svg width="100%" height="100%" viewBox="0 0 32 32" version="1.1" xmlns="http://www.w3.org/2000/svg" xmlns:xlink="http://www.w3.org/1999/xlink" xml:space="preserve" xmlns:serif="http://www.serif.com/" style="fill-rule:evenodd;clip-rule:evenodd;stroke-linejoin:round;stroke-miterlimit:2;">
    <rect id="cat_joy" x="0" y="0" width="32" height="32" style="fill:none;"/>
    <clipPath id="_clip1">
        <rect x="0" y="0" width="32" height="32"/>
    </clipPath>
    <g clip-path="url(#_clip1)">
        <g id="outline">
            <path d="M19.491,4.051l2.537,-1.926c1.816,-1.379 4.033,-2.125 6.312,-2.125c0.001,0 0.001,0 0.001,0c1.469,0 2.659,1.19 2.659,2.659c0,0.441 0,1.054 0,1.68c0,1.951 -0.272,3.893 -0.808,5.769l-0.719,2.517c0.954,2.488 1.16,5.149 0.667,7.68l0.395,0.503c1.486,1.891 1.415,4.572 -0.168,6.382c-0.01,0.011 -0.02,0.022 -0.03,0.033c-1.329,1.52 -3.389,2.05 -5.222,1.49l-0.065,0.065c-2.063,2.063 -4.861,3.222 -7.778,3.222c-0.831,0 -1.713,0 -2.544,0c-2.917,0 -5.715,-1.159 -7.778,-3.222l-0.065,-0.065c-1.833,0.56 -3.893,0.03 -5.222,-1.49c-0.01,-0.011 -0.02,-0.022 -0.03,-0.033c-1.583,-1.81 -1.654,-4.491 -0.168,-6.382l0.395,-0.503c-0.493,-2.53 -0.287,-5.192 0.667,-7.68l-0.719,-2.517c-0.536,-1.876 -0.808,-3.818 -0.808,-5.769c0,-0.626 0,-1.239 0,-1.68c0,-1.469 1.19,-2.659 2.659,-2.659l0.001,0c2.279,0 4.496,0.746 6.312,2.125l2.537,1.926c0.348,-0.034 0.699,-0.051 1.053,-0.051l4.876,0c0.354,0 0.705,0.017 1.053,0.051Z"/>
        </g>
        <g id="emoji">
            <g>
                <path d="M27,14c0,0 0.698,-2.442 1.269,-4.441c0.485,-1.698 0.731,-3.455 0.731,-5.22c0,-0.626 0,-1.239 0,-1.68c0,-0.364 -0.295,-0.659 -0.659,-0.659c0,0 0,0 -0.001,0c-1.842,0 -3.635,0.603 -5.102,1.718c-2.666,2.024 -6.738,5.115 -6.738,5.115l10.5,5.167Z" style="fill:#353535;"/>
                <clipPath id="_clip2">
                    <path d="M27,14c0,0 0.698,-2.442 1.269,-4.441c0.485,-1.698 0.731,-3.455 0.731,-5.22c0,-0.626 0,-1.239 0,-1.68c0,-0.364 -0.295,-0.659 -0.659,-0.659c0,0 0,0 -0.001,0c-1.842,0 -3.635,0.603 -5.102,1.718c-2.666,2.024 -6.738,5.115 -6.738,5.115l10.5,5.167Z"/>
                </clipPath>
                <g clip-path="url(#_clip2)">
                    <path d="M21,8c0,0 1.18,-1.18 2.258,-2.258c1.149,-1.149 2.52,-2.053 4.029,-2.657c1.317,-0.527 2.713,-1.085 2.713,-1.085l0,12l-9,0l0,-6Z" style="fill:#4b4b4b;"/>
                </g>
                <path d="M5,14c0,0 -0.698,-2.442 -1.269,-4.441c-0.485,-1.698 -0.731,-3.455 -0.731,-5.22c0,-0.626 0,-1.239 0,-1.68c0,-0.364 0.295,-0.659 0.659,-0.659c0,0 0,0 0.001,0c1.842,0 3.635,0.603 5.102,1.718c2.666,2.024 6.738,5.115 6.738,5.115l-10.5,5.167Z" style="fill:#353535;"/>
                <clipPath id="_clip3">
                    <path d="M5,14c0,0 -0.698,-2.442 -1.269,-4.441c-0.485,-1.698 -0.731,-3.455 -0.731,-5.22c0,-0.626 0,-1.239 0,-1.68c0,-0.364 0.295,-0.659 0.659,-0.659c0,0 0,0 0.001,0c1.842,0 3.635,0.603 5.102,1.718c2.666,2.024 6.738,5.115 6.738,5.115l-10.5,5.167Z"/>
                </clipPath>
                <g clip-path="url(#_clip3)">
                    <path d="M11,8c0,0 -1.18,-1.18 -2.258,-2.258c-1.149,-1.149 -2.52,-2.053 -4.029,-2.657c-1.317,-0.527 -2.713,-1.085 -2.713,-1.085l0,12l9,0l0,-6Z" style="fill:#4b4b4b;"/>
                </g>
                <path d="M13.562,6c-3.409,0 -6.525,1.926 -8.05,4.975c-0.21,0.421 -0.426,0.853 -0.644,1.289c-2.31,4.62 -1.404,10.2 2.248,13.852c0.432,0.432 0.853,0.853 1.248,1.248c1.688,1.688 3.977,2.636 6.364,2.636c0.831,0 1.713,0 2.544,0c2.387,0 4.676,-0.948 6.364,-2.636c0.395,-0.395 0.816,-0.816 1.248,-1.248c3.652,-3.652 4.558,-9.232 2.248,-13.852c-0.218,-0.436 -0.434,-0.868 -0.644,-1.289c-1.525,-3.049 -4.641,-4.975 -8.05,-4.975c-1.579,0 -3.297,0 -4.876,0Z" style="fill:#353535;"/>
            </g>
            <path d="M10.453,14.662l-2.441,-2.093c-0.314,-0.269 -0.351,-0.743 -0.081,-1.057c0.269,-0.314 0.743,-0.351 1.057,-0.081l4.559,3.907l-4.841,1.383c-0.398,0.114 -0.813,-0.117 -0.927,-0.515c-0.114,-0.398 0.117,-0.813 0.515,-0.927l2.159,-0.617Zm11.094,0l2.159,0.617c0.398,0.114 0.629,0.529 0.515,0.927c-0.114,0.398 -0.529,0.629 -0.927,0.515l-4.841,-1.383l4.559,-3.907c0.314,-0.27 0.788,-0.233 1.057,0.081c0.27,0.314 0.233,0.788 -0.081,1.057l-2.441,2.093Z" style="fill:#fbe844;"/>
            <g>
                <path d="M11.967,26.736c-0.808,-0.561 -1.502,-1.294 -2.025,-2.166c-0.196,-0.327 -0.377,-0.629 -0.528,-0.879c-0.084,-0.141 -0.086,-0.317 -0.005,-0.46c0.081,-0.143 0.232,-0.231 0.396,-0.231c0.482,0 1.11,0 1.681,0c0.987,0 1.952,-0.292 2.774,-0.84c0.821,-0.547 1.74,-1.16 1.74,-1.16c0,0 0.919,0.613 1.74,1.16c0.822,0.548 1.787,0.84 2.774,0.84l1.681,0c0.164,0 0.315,0.088 0.396,0.231c0.081,0.143 0.079,0.319 -0.005,0.46c-0.151,0.25 -0.332,0.552 -0.528,0.879c-0.523,0.872 -1.217,1.605 -2.025,2.166c-1.026,-1.084 -7.04,-1.084 -8.066,0Z" style="fill:#808080;"/>
                <path d="M11.967,26.736c1.026,-1.084 2.472,-1.736 4.032,-1.736c0.001,0 0.001,0 0.002,0c1.56,0 3.006,0.652 4.032,1.736c-1.166,0.81 -2.567,1.264 -4.033,1.264c0,0 0,0 0,0c-1.466,0 -2.867,-0.454 -4.033,-1.264Z" style="fill:#b3b3b3;"/>
            </g>
            <path d="M25,17c0,0 2.336,2.973 3.963,5.044c0.891,1.134 0.849,2.743 -0.101,3.829c-0.01,0.011 -0.02,0.022 -0.03,0.033c-1.033,1.181 -2.802,1.366 -4.058,0.425c-0.06,-0.046 -0.121,-0.091 -0.18,-0.136c-0.966,-0.724 -1.404,-1.956 -1.111,-3.127c0.592,-2.368 1.517,-6.068 1.517,-6.068Z" style="fill:#00bafe;"/>
            <path d="M7,17c0,0 -2.336,2.973 -3.963,5.044c-0.891,1.134 -0.849,2.743 0.101,3.829c0.01,0.011 0.02,0.022 0.03,0.033c1.033,1.181 2.802,1.366 4.058,0.425c0.06,-0.046 0.121,-0.091 0.18,-0.136c0.966,-0.724 1.404,-1.956 1.111,-3.127c-0.592,-2.368 -1.517,-6.068 -1.517,-6.068Z" style="fill:#00bafe;"/>
            <path d="M13,17.829c0,-0.22 0.087,-0.431 0.243,-0.586c0.155,-0.156 0.366,-0.243 0.586,-0.243c1.145,0 3.197,0 4.342,0c0.22,0 0.431,0.087 0.586,0.243c0.156,0.155 0.243,0.366 0.243,0.586c0,0 0,0 0,0c0,0.107 -0.053,0.207 -0.142,0.266c-0.595,0.397 -2.858,1.905 -2.858,1.905c0,0 -2.263,-1.508 -2.858,-1.905c-0.089,-0.059 -0.142,-0.159 -0.142,-0.266c0,0 0,0 0,0Z" style="fill:#666;"/>
        </g>
    </g>
</svg>
