<?xml version="1.0" encoding="UTF-8" standalone="no"?>
<!DOCTYPE svg PUBLIC "-//W3C//DTD SVG 1.1//EN" "http://www.w3.org/Graphics/SVG/1.1/DTD/svg11.dtd">
<svg width="100%" height="100%" viewBox="0 0 32 32" version="1.1" xmlns="http://www.w3.org/2000/svg" xmlns:xlink="http://www.w3.org/1999/xlink" xml:space="preserve" xmlns:serif="http://www.serif.com/" style="fill-rule:evenodd;clip-rule:evenodd;stroke-linecap:round;stroke-linejoin:round;stroke-miterlimit:1.5;">
    <rect id="cat_heart_eyes" x="0" y="0" width="32" height="32" style="fill:none;"/>
    <clipPath id="_clip1">
        <rect x="0" y="0" width="32" height="32"/>
    </clipPath>
    <g clip-path="url(#_clip1)">
        <g id="outline">
            <path d="M19.491,4.051l2.537,-1.926c1.816,-1.379 4.033,-2.125 6.312,-2.125c0.001,0 0.001,0 0.001,0c1.469,0 2.659,1.19 2.659,2.659c0,0.441 0,1.054 0,1.68c0,1.951 -0.272,3.893 -0.808,5.769l-0.295,1.031c0.593,0.815 0.918,1.802 0.92,2.823c0.002,0.753 -0.172,1.489 -0.5,2.151c0.45,4.134 -0.957,8.356 -4.019,11.417c-0.432,0.432 -0.853,0.853 -1.248,1.248c-2.063,2.063 -4.861,3.222 -7.778,3.222c-0.831,0 -1.713,0 -2.544,0c-2.917,0 -5.715,-1.159 -7.778,-3.222c-0.395,-0.395 -0.816,-0.816 -1.248,-1.248c-3.048,-3.047 -4.456,-7.245 -4.025,-11.361c-0.803,-1.599 -0.661,-3.551 0.427,-5.024l-0.296,-1.037c-0.536,-1.876 -0.808,-3.818 -0.808,-5.769c0,-0.626 0,-1.239 0,-1.68c0,-1.469 1.19,-2.659 2.659,-2.659l0.001,0c2.279,0 4.496,0.746 6.312,2.125l2.537,1.926c0.348,-0.034 0.699,-0.051 1.053,-0.051l4.876,0c0.354,0 0.705,0.017 1.053,0.051Z"/>
        </g>
        <g id="emoji">
            <g>
                <path d="M27,14c0,0 0.698,-2.442 1.269,-4.441c0.485,-1.698 0.731,-3.455 0.731,-5.22c0,-0.626 0,-1.239 0,-1.68c0,-0.364 -0.295,-0.659 -0.659,-0.659c0,0 0,0 -0.001,0c-1.842,0 -3.635,0.603 -5.102,1.718c-2.666,2.024 -6.738,5.115 -6.738,5.115l10.5,5.167Z" style="fill:#353535;"/>
                <clipPath id="_clip2">
                    <path d="M27,14c0,0 0.698,-2.442 1.269,-4.441c0.485,-1.698 0.731,-3.455 0.731,-5.22c0,-0.626 0,-1.239 0,-1.68c0,-0.364 -0.295,-0.659 -0.659,-0.659c0,0 0,0 -0.001,0c-1.842,0 -3.635,0.603 -5.102,1.718c-2.666,2.024 -6.738,5.115 -6.738,5.115l10.5,5.167Z"/>
                </clipPath>
                <g clip-path="url(#_clip2)">
                    <path d="M21,8c0,0 1.18,-1.18 2.258,-2.258c1.149,-1.149 2.52,-2.053 4.029,-2.657c1.317,-0.527 2.713,-1.085 2.713,-1.085l0,12l-9,0l0,-6Z" style="fill:#4b4b4b;"/>
                </g>
                <path d="M5,14c0,0 -0.698,-2.442 -1.269,-4.441c-0.485,-1.698 -0.731,-3.455 -0.731,-5.22c0,-0.626 0,-1.239 0,-1.68c0,-0.364 0.295,-0.659 0.659,-0.659c0,0 0,0 0.001,0c1.842,0 3.635,0.603 5.102,1.718c2.666,2.024 6.738,5.115 6.738,5.115l-10.5,5.167Z" style="fill:#353535;"/>
                <clipPath id="_clip3">
                    <path d="M5,14c0,0 -0.698,-2.442 -1.269,-4.441c-0.485,-1.698 -0.731,-3.455 -0.731,-5.22c0,-0.626 0,-1.239 0,-1.68c0,-0.364 0.295,-0.659 0.659,-0.659c0,0 0,0 0.001,0c1.842,0 3.635,0.603 5.102,1.718c2.666,2.024 6.738,5.115 6.738,5.115l-10.5,5.167Z"/>
                </clipPath>
                <g clip-path="url(#_clip3)">
                    <path d="M11,8c0,0 -1.18,-1.18 -2.258,-2.258c-1.149,-1.149 -2.52,-2.053 -4.029,-2.657c-1.317,-0.527 -2.713,-1.085 -2.713,-1.085l0,12l9,0l0,-6Z" style="fill:#4b4b4b;"/>
                </g>
                <path d="M13.562,6c-3.409,0 -6.525,1.926 -8.05,4.975c-0.21,0.421 -0.426,0.853 -0.644,1.289c-2.31,4.62 -1.404,10.2 2.248,13.852c0.432,0.432 0.853,0.853 1.248,1.248c1.688,1.688 3.977,2.636 6.364,2.636c0.831,0 1.713,0 2.544,0c2.387,0 4.676,-0.948 6.364,-2.636c0.395,-0.395 0.816,-0.816 1.248,-1.248c3.652,-3.652 4.558,-9.232 2.248,-13.852c-0.218,-0.436 -0.434,-0.868 -0.644,-1.289c-1.525,-3.049 -4.641,-4.975 -8.05,-4.975c-1.579,0 -3.297,0 -4.876,0Z" style="fill:#353535;"/>
            </g>
            <path d="M9,23c0,0 0.077,0.231 0.189,0.566c0.484,1.453 1.845,2.434 3.377,2.434l0.234,0c1.348,0 2.581,-0.762 3.184,-1.968c0.01,-0.021 0.016,-0.032 0.016,-0.032c0,0 0.006,0.011 0.016,0.032c0.603,1.206 1.836,1.968 3.184,1.968c0.078,0 0.156,0 0.234,0c1.532,0 2.893,-0.981 3.377,-2.434c0.112,-0.335 0.189,-0.566 0.189,-0.566" style="fill:none;stroke:#808080;stroke-width:1.5px;"/>
            <path d="M22.964,21c0,0 -2.919,-2.934 -4.978,-5.003c-1.097,-1.104 -1.095,-2.888 0.006,-3.989c0,0 0.001,-0.001 0.002,-0.002c0.531,-0.531 1.252,-0.829 2.004,-0.828c0.752,0.001 1.472,0.302 2.002,0.835c0.533,0.537 0.964,0.971 0.964,0.971c0,0 0.476,-0.468 1.051,-1.033c1.101,-1.082 2.866,-1.078 3.962,0.008c0,0 0.001,0.001 0.001,0.001c0.535,0.531 0.837,1.253 0.839,2.007c0.002,0.754 -0.297,1.477 -0.83,2.01c-2.079,2.08 -5.023,5.023 -5.023,5.023Z" style="fill:#d92020;"/>
            <path d="M8.964,21c0,0 -2.919,-2.934 -4.978,-5.003c-1.097,-1.104 -1.095,-2.888 0.006,-3.989c0,0 0.001,-0.001 0.002,-0.002c0.531,-0.531 1.252,-0.829 2.004,-0.828c0.752,0.001 1.472,0.302 2.002,0.835c0.533,0.537 0.964,0.971 0.964,0.971c0,0 0.476,-0.468 1.051,-1.033c1.101,-1.082 2.866,-1.078 3.962,0.008c0,0 0.001,0.001 0.001,0.001c0.535,0.531 0.837,1.253 0.839,2.007c0.002,0.754 -0.297,1.477 -0.83,2.01c-2.079,2.08 -5.023,5.023 -5.023,5.023Z" style="fill:#d92020;"/>
            <path d="M13,19.829c0,-0.22 0.087,-0.431 0.243,-0.586c0.155,-0.156 0.366,-0.243 0.586,-0.243c1.145,0 3.197,0 4.342,0c0.22,0 0.431,0.087 0.586,0.243c0.156,0.155 0.243,0.366 0.243,0.586c0,0 0,0 0,0c0,0.107 -0.053,0.207 -0.142,0.266c-0.595,0.397 -2.858,1.905 -2.858,1.905c0,0 -2.263,-1.508 -2.858,-1.905c-0.089,-0.059 -0.142,-0.159 -0.142,-0.266c0,0 0,0 0,0Z" style="fill:#666;"/>
        </g>
    </g>
</svg>
