<?xml version="1.0" encoding="UTF-8" standalone="no"?><!DOCTYPE svg PUBLIC "-//W3C//DTD SVG 1.1//EN" "http://www.w3.org/Graphics/SVG/1.1/DTD/svg11.dtd"><svg width="100%" height="100%" viewBox="0 0 32 32" version="1.1" xmlns="http://www.w3.org/2000/svg" xmlns:xlink="http://www.w3.org/1999/xlink" xml:space="preserve" xmlns:serif="http://www.serif.com/" style="fill-rule:evenodd;clip-rule:evenodd;stroke-linecap:round;stroke-linejoin:round;stroke-miterlimit:1.5;"><rect id="cat_grin" x="0" y="0" width="32" height="32" style="fill:none;"/><clipPath id="_clip1"><rect x="0" y="0" width="32" height="32"/></clipPath><g clip-path="url(#_clip1)"><g id="outline"><path d="M20.042,6.144l3.196,-2.426c1.467,-1.115 3.26,-1.718 5.102,-1.718c0.001,0 0.001,0 0.001,0c0.364,0 0.659,0.295 0.659,0.659c0,0.441 0,1.054 0,1.68c0,1.765 -0.246,3.522 -0.731,5.22l-0.91,3.185c2.017,4.521 1.052,9.845 -2.475,13.372c-0.432,0.432 -0.853,0.853 -1.248,1.248c-1.688,1.688 -3.977,2.636 -6.364,2.636c-0.831,0 -1.713,0 -2.544,0c-2.387,0 -4.676,-0.948 -6.364,-2.636c-0.395,-0.395 -0.816,-0.816 -1.248,-1.248c-3.527,-3.527 -4.492,-8.851 -2.475,-13.372l-0.91,-3.185c-0.485,-1.698 -0.731,-3.455 -0.731,-5.22c0,-0.626 0,-1.239 0,-1.68c0,-0.364 0.295,-0.659 0.659,-0.659c0,0 0,0 0.001,0c1.842,0 3.635,0.603 5.102,1.718l3.196,2.426c0.524,-0.095 1.06,-0.144 1.604,-0.144c1.579,0 3.297,0 4.876,0c0.544,0 1.08,0.049 1.604,0.144Z" style="fill:none;stroke:#000;stroke-width:4px;"/></g><g id="emoji"><g><path d="M27,14c0,0 0.698,-2.442 1.269,-4.441c0.485,-1.698 0.731,-3.455 0.731,-5.22c0,-0.626 0,-1.239 0,-1.68c0,-0.364 -0.295,-0.659 -0.659,-0.659c0,0 0,0 -0.001,0c-1.842,0 -3.635,0.603 -5.102,1.718c-2.666,2.024 -6.738,5.115 -6.738,5.115l10.5,5.167Z" style="fill:#353535;"/><clipPath id="_clip2"><path d="M27,14c0,0 0.698,-2.442 1.269,-4.441c0.485,-1.698 0.731,-3.455 0.731,-5.22c0,-0.626 0,-1.239 0,-1.68c0,-0.364 -0.295,-0.659 -0.659,-0.659c0,0 0,0 -0.001,0c-1.842,0 -3.635,0.603 -5.102,1.718c-2.666,2.024 -6.738,5.115 -6.738,5.115l10.5,5.167Z"/></clipPath><g clip-path="url(#_clip2)"><path d="M21,8c0,0 1.18,-1.18 2.258,-2.258c1.149,-1.149 2.52,-2.053 4.029,-2.657c1.317,-0.527 2.713,-1.085 2.713,-1.085l0,12l-9,0l0,-6Z" style="fill:#4b4b4b;"/></g><path d="M5,14c0,0 -0.698,-2.442 -1.269,-4.441c-0.485,-1.698 -0.731,-3.455 -0.731,-5.22c0,-0.626 0,-1.239 0,-1.68c0,-0.364 0.295,-0.659 0.659,-0.659c0,0 0,0 0.001,0c1.842,0 3.635,0.603 5.102,1.718c2.666,2.024 6.738,5.115 6.738,5.115l-10.5,5.167Z" style="fill:#353535;"/><clipPath id="_clip3"><path d="M5,14c0,0 -0.698,-2.442 -1.269,-4.441c-0.485,-1.698 -0.731,-3.455 -0.731,-5.22c0,-0.626 0,-1.239 0,-1.68c0,-0.364 0.295,-0.659 0.659,-0.659c0,0 0,0 0.001,0c1.842,0 3.635,0.603 5.102,1.718c2.666,2.024 6.738,5.115 6.738,5.115l-10.5,5.167Z"/></clipPath><g clip-path="url(#_clip3)"><path d="M11,8c0,0 -1.18,-1.18 -2.258,-2.258c-1.149,-1.149 -2.52,-2.053 -4.029,-2.657c-1.317,-0.527 -2.713,-1.085 -2.713,-1.085l0,12l9,0l0,-6Z" style="fill:#4b4b4b;"/></g><path d="M13.562,6c-3.409,0 -6.525,1.926 -8.05,4.975c-0.21,0.421 -0.426,0.853 -0.644,1.289c-2.31,4.62 -1.404,10.2 2.248,13.852c0.432,0.432 0.853,0.853 1.248,1.248c1.688,1.688 3.977,2.636 6.364,2.636c0.831,0 1.713,0 2.544,0c2.387,0 4.676,-0.948 6.364,-2.636c0.395,-0.395 0.816,-0.816 1.248,-1.248c3.652,-3.652 4.558,-9.232 2.248,-13.852c-0.218,-0.436 -0.434,-0.868 -0.644,-1.289c-1.525,-3.049 -4.641,-4.975 -8.05,-4.975c-1.579,0 -3.297,0 -4.876,0Z" style="fill:#353535;"/></g><path d="M7.5,16.5l2.5,-2.5l2.5,2.5" style="fill:none;stroke:#fbe844;stroke-width:1.5px;stroke-linejoin:miter;"/><path d="M19.5,16.5l2.5,-2.5l2.5,2.5" style="fill:none;stroke:#fbe844;stroke-width:1.5px;stroke-linejoin:miter;"/><path d="M13,19.829c0,-0.22 0.087,-0.431 0.243,-0.586c0.155,-0.156 0.366,-0.243 0.586,-0.243c1.145,0 3.197,0 4.342,0c0.22,0 0.431,0.087 0.586,0.243c0.156,0.155 0.243,0.366 0.243,0.586c0,0 0,0 0,0c0,0.107 -0.053,0.207 -0.142,0.266c-0.595,0.397 -2.858,1.905 -2.858,1.905c0,0 -2.263,-1.508 -2.858,-1.905c-0.089,-0.059 -0.142,-0.159 -0.142,-0.266c0,0 0,0 0,0Z" style="fill:#7f7f7f;"/><path d="M10,24c0,0 0.385,0.385 0.879,0.879c0.562,0.562 1.325,0.878 2.121,0.878c0.796,0 1.559,-0.316 2.121,-0.878c0.494,-0.494 0.879,-0.879 0.879,-0.879c0,0 0.385,0.385 0.879,0.879c0.562,0.562 1.325,0.878 2.121,0.878c0.796,0 1.559,-0.316 2.121,-0.878c0.494,-0.494 0.879,-0.879 0.879,-0.879" style="fill:none;stroke:#808080;stroke-width:1.5px;stroke-linejoin:miter;"/></g></g></svg>