<?xml version="1.0" encoding="UTF-8" standalone="no"?>
<!DOCTYPE svg PUBLIC "-//W3C//DTD SVG 1.1//EN" "http://www.w3.org/Graphics/SVG/1.1/DTD/svg11.dtd">
<svg width="100%" height="100%" viewBox="0 0 32 32" version="1.1" xmlns="http://www.w3.org/2000/svg" xmlns:xlink="http://www.w3.org/1999/xlink" xml:space="preserve" xmlns:serif="http://www.serif.com/" style="fill-rule:evenodd;clip-rule:evenodd;stroke-linecap:round;stroke-linejoin:round;stroke-miterlimit:1.5;">
    <rect id="cat_crying" x="0" y="0" width="32" height="32" style="fill:none;"/>
    <clipPath id="_clip1">
        <rect x="0" y="0" width="32" height="32"/>
    </clipPath>
    <g clip-path="url(#_clip1)">
        <g id="outline">
            <path d="M24.251,26.749l-0.615,0.615c-1.688,1.688 -3.977,2.636 -6.364,2.636c-0.831,0 -1.713,0 -2.544,0c-2.387,0 -4.676,-0.948 -6.364,-2.636c-0.395,-0.395 -0.816,-0.816 -1.248,-1.248c-3.527,-3.527 -4.492,-8.851 -2.475,-13.372l-0.91,-3.185c-0.485,-1.698 -0.731,-3.455 -0.731,-5.22c0,-0.626 0,-1.239 0,-1.68c0,-0.364 0.295,-0.659 0.659,-0.659c0,0 0,0 0.001,0c1.842,0 3.635,0.603 5.102,1.718l3.196,2.426c0.524,-0.095 1.06,-0.144 1.604,-0.144c1.579,0 3.297,0 4.876,0c0.544,0 1.08,0.049 1.604,0.144l3.196,-2.426c1.467,-1.115 3.26,-1.718 5.102,-1.718c0.001,0 0.001,0 0.001,0c0.364,0 0.659,0.295 0.659,0.659c0,0.441 0,1.054 0,1.68c0,1.765 -0.246,3.522 -0.731,5.22l-0.91,3.185c1.07,2.398 1.301,5.023 0.755,7.485l1.328,2.655c0.632,1.264 0.384,2.79 -0.615,3.789c0,0 0,0 -0.001,0.001c-0.617,0.617 -1.453,0.963 -2.326,0.963c-0.836,0 -1.64,-0.318 -2.249,-0.888Z" style="fill:none;stroke:#000;stroke-width:4px;"/>
        </g>
        <g id="emoji">
            <g>
                <path d="M27,14c0,0 0.698,-2.442 1.269,-4.441c0.485,-1.698 0.731,-3.455 0.731,-5.22c0,-0.626 0,-1.239 0,-1.68c0,-0.364 -0.295,-0.659 -0.659,-0.659c0,0 0,0 -0.001,0c-1.842,0 -3.635,0.603 -5.102,1.718c-2.666,2.024 -6.738,5.115 -6.738,5.115l10.5,5.167Z" style="fill:#353535;"/>
                <clipPath id="_clip2">
                    <path d="M27,14c0,0 0.698,-2.442 1.269,-4.441c0.485,-1.698 0.731,-3.455 0.731,-5.22c0,-0.626 0,-1.239 0,-1.68c0,-0.364 -0.295,-0.659 -0.659,-0.659c0,0 0,0 -0.001,0c-1.842,0 -3.635,0.603 -5.102,1.718c-2.666,2.024 -6.738,5.115 -6.738,5.115l10.5,5.167Z"/>
                </clipPath>
                <g clip-path="url(#_clip2)">
                    <path d="M21,8c0,0 1.18,-1.18 2.258,-2.258c1.149,-1.149 2.52,-2.053 4.029,-2.657c1.317,-0.527 2.713,-1.085 2.713,-1.085l0,12l-9,0l0,-6Z" style="fill:#4b4b4b;"/>
                </g>
                <path d="M5,14c0,0 -0.698,-2.442 -1.269,-4.441c-0.485,-1.698 -0.731,-3.455 -0.731,-5.22c0,-0.626 0,-1.239 0,-1.68c0,-0.364 0.295,-0.659 0.659,-0.659c0,0 0,0 0.001,0c1.842,0 3.635,0.603 5.102,1.718c2.666,2.024 6.738,5.115 6.738,5.115l-10.5,5.167Z" style="fill:#353535;"/>
                <clipPath id="_clip3">
                    <path d="M5,14c0,0 -0.698,-2.442 -1.269,-4.441c-0.485,-1.698 -0.731,-3.455 -0.731,-5.22c0,-0.626 0,-1.239 0,-1.68c0,-0.364 0.295,-0.659 0.659,-0.659c0,0 0,0 0.001,0c1.842,0 3.635,0.603 5.102,1.718c2.666,2.024 6.738,5.115 6.738,5.115l-10.5,5.167Z"/>
                </clipPath>
                <g clip-path="url(#_clip3)">
                    <path d="M11,8c0,0 -1.18,-1.18 -2.258,-2.258c-1.149,-1.149 -2.52,-2.053 -4.029,-2.657c-1.317,-0.527 -2.713,-1.085 -2.713,-1.085l0,12l9,0l0,-6Z" style="fill:#4b4b4b;"/>
                </g>
                <path d="M13.562,6c-3.409,0 -6.525,1.926 -8.05,4.975c-0.21,0.421 -0.426,0.853 -0.644,1.289c-2.31,4.62 -1.404,10.2 2.248,13.852c0.432,0.432 0.853,0.853 1.248,1.248c1.688,1.688 3.977,2.636 6.364,2.636c0.831,0 1.713,0 2.544,0c2.387,0 4.676,-0.948 6.364,-2.636c0.395,-0.395 0.816,-0.816 1.248,-1.248c3.652,-3.652 4.558,-9.232 2.248,-13.852c-0.218,-0.436 -0.434,-0.868 -0.644,-1.289c-1.525,-3.049 -4.641,-4.975 -8.05,-4.975c-1.579,0 -3.297,0 -4.876,0Z" style="fill:#353535;"/>
            </g>
            <g>
                <path d="M10.865,11.119c1.255,0.532 2.135,1.775 2.135,3.223c0,0.385 0,0.776 0,1.16c0,0.928 -0.369,1.817 -1.025,2.473c-0.656,0.656 -1.545,1.025 -2.473,1.025l-0.002,0c-1.933,0 -3.5,-1.567 -3.5,-3.5c0,-0.384 0,-0.775 0,-1.16c0,-0.241 0.025,-0.479 0.073,-0.712l4.792,-2.509Z" style="fill:#fbe844;"/>
                <path d="M9,12.841c0,-0.264 0.105,-0.519 0.293,-0.706c0.187,-0.187 0.441,-0.293 0.706,-0.293c0.001,0 0.001,0 0.002,0c0.265,0 0.519,0.106 0.706,0.293c0.188,0.187 0.293,0.442 0.293,0.706c0,1.146 0,3.014 0,4.16c0,0.265 -0.105,0.519 -0.293,0.706c-0.187,0.188 -0.441,0.293 -0.706,0.293c-0.001,0 -0.001,0 -0.002,0c-0.265,0 -0.519,-0.105 -0.706,-0.293c-0.188,-0.187 -0.293,-0.441 -0.293,-0.706c0,-1.146 0,-3.014 0,-4.16Z"/>
                <path d="M21.191,11.095l4.691,2.346c0.078,0.291 0.118,0.593 0.118,0.899c0,0.385 0,0.776 0,1.16c0,1.933 -1.567,3.5 -3.5,3.5l-0.002,0c-0.928,0 -1.817,-0.369 -2.473,-1.025c-0.656,-0.656 -1.025,-1.545 -1.025,-2.473c0,-0.384 0,-0.775 0,-1.16c0,-1.47 0.907,-2.728 2.191,-3.247Z" style="fill:#fbe844;"/>
                <path d="M23,12.841c0,-0.264 -0.105,-0.519 -0.293,-0.706c-0.187,-0.187 -0.441,-0.293 -0.706,-0.293c-0.001,0 -0.001,0 -0.002,0c-0.265,0 -0.519,0.106 -0.706,0.293c-0.188,0.187 -0.293,0.442 -0.293,0.706c0,1.146 0,3.014 0,4.16c0,0.265 0.105,0.519 0.293,0.706c0.187,0.188 0.441,0.293 0.706,0.293c0.001,0 0.001,0 0.002,0c0.265,0 0.519,-0.105 0.706,-0.293c0.188,-0.187 0.293,-0.441 0.293,-0.706c0,-1.146 0,-3.014 0,-4.16Z"/>
            </g>
            <path d="M13,19.829c0,-0.22 0.087,-0.431 0.243,-0.586c0.155,-0.156 0.366,-0.243 0.586,-0.243c1.145,0 3.197,0 4.342,0c0.22,0 0.431,0.087 0.586,0.243c0.156,0.155 0.243,0.366 0.243,0.586c0,0 0,0 0,0c0,0.107 -0.053,0.207 -0.142,0.266c-0.595,0.397 -2.858,1.905 -2.858,1.905c0,0 -2.263,-1.508 -2.858,-1.905c-0.089,-0.059 -0.142,-0.159 -0.142,-0.266c0,0 0,0 0,0Z" style="fill:#666;"/>
            <path d="M12,27l4,-3l4,3" style="fill:none;stroke:#808080;stroke-width:1.5px;stroke-linejoin:miter;"/>
            <path d="M26.5,17c0,0 -1.757,3.514 -2.942,5.884c-0.632,1.264 -0.384,2.79 0.615,3.789c0,0 0,0 0.001,0.001c0.617,0.617 1.453,0.963 2.326,0.963c0.873,0 1.709,-0.346 2.326,-0.963c0.001,-0.001 0.001,-0.001 0.001,-0.001c0.999,-0.999 1.247,-2.525 0.615,-3.789c-1.185,-2.37 -2.942,-5.884 -2.942,-5.884Z" style="fill:#00bafe;"/>
        </g>
    </g>
</svg>
