<?xml version="1.0" encoding="UTF-8" standalone="no"?>
<!DOCTYPE svg PUBLIC "-//W3C//DTD SVG 1.1//EN" "http://www.w3.org/Graphics/SVG/1.1/DTD/svg11.dtd">
<svg width="100%" height="100%" viewBox="0 0 32 32" version="1.1" xmlns="http://www.w3.org/2000/svg" xmlns:xlink="http://www.w3.org/1999/xlink" xml:space="preserve" xmlns:serif="http://www.serif.com/" style="fill-rule:evenodd;clip-rule:evenodd;stroke-linejoin:round;stroke-miterlimit:2;">
    <rect id="cat_smile" x="0" y="0" width="32" height="32" style="fill:none;"/>
    <clipPath id="_clip1">
        <rect x="0" y="0" width="32" height="32"/>
    </clipPath>
    <g clip-path="url(#_clip1)">
        <g id="outline">
            <path d="M19.491,4.051l2.537,-1.926c1.816,-1.379 4.033,-2.125 6.312,-2.125c0.001,0 0.001,0 0.001,0c1.469,0 2.659,1.19 2.659,2.659c0,0.441 0,1.054 0,1.68c0,1.951 -0.272,3.893 -0.808,5.769l-0.719,2.516c1.962,5.118 0.761,10.971 -3.175,14.906c-0.432,0.432 -0.853,0.853 -1.248,1.248c-2.063,2.063 -4.861,3.222 -7.778,3.222c-0.831,0 -1.713,0 -2.544,0c-2.917,0 -5.715,-1.159 -7.778,-3.222c-0.395,-0.395 -0.816,-0.816 -1.248,-1.248c-3.936,-3.935 -5.137,-9.788 -3.175,-14.906l-0.719,-2.516c-0.536,-1.876 -0.808,-3.818 -0.808,-5.769c0,-0.626 0,-1.239 0,-1.68c0,-1.469 1.19,-2.659 2.659,-2.659l0.001,0c2.279,0 4.496,0.746 6.312,2.125l2.537,1.926c0.348,-0.034 0.699,-0.051 1.053,-0.051l4.876,0c0.354,0 0.705,0.017 1.053,0.051Z"/>
        </g>
        <g id="emoji">
            <g>
                <path d="M27,14c0,0 0.698,-2.442 1.269,-4.441c0.485,-1.698 0.731,-3.455 0.731,-5.22c0,-0.626 0,-1.239 0,-1.68c0,-0.364 -0.295,-0.659 -0.659,-0.659c0,0 0,0 -0.001,0c-1.842,0 -3.635,0.603 -5.102,1.718c-2.666,2.024 -6.738,5.115 -6.738,5.115l10.5,5.167Z" style="fill:#353535;"/>
                <clipPath id="_clip2">
                    <path d="M27,14c0,0 0.698,-2.442 1.269,-4.441c0.485,-1.698 0.731,-3.455 0.731,-5.22c0,-0.626 0,-1.239 0,-1.68c0,-0.364 -0.295,-0.659 -0.659,-0.659c0,0 0,0 -0.001,0c-1.842,0 -3.635,0.603 -5.102,1.718c-2.666,2.024 -6.738,5.115 -6.738,5.115l10.5,5.167Z"/>
                </clipPath>
                <g clip-path="url(#_clip2)">
                    <path d="M21,8c0,0 1.18,-1.18 2.258,-2.258c1.149,-1.149 2.52,-2.053 4.029,-2.657c1.317,-0.527 2.713,-1.085 2.713,-1.085l0,12l-9,0l0,-6Z" style="fill:#4b4b4b;"/>
                </g>
                <path d="M5,14c0,0 -0.698,-2.442 -1.269,-4.441c-0.485,-1.698 -0.731,-3.455 -0.731,-5.22c0,-0.626 0,-1.239 0,-1.68c0,-0.364 0.295,-0.659 0.659,-0.659c0,0 0,0 0.001,0c1.842,0 3.635,0.603 5.102,1.718c2.666,2.024 6.738,5.115 6.738,5.115l-10.5,5.167Z" style="fill:#353535;"/>
                <clipPath id="_clip3">
                    <path d="M5,14c0,0 -0.698,-2.442 -1.269,-4.441c-0.485,-1.698 -0.731,-3.455 -0.731,-5.22c0,-0.626 0,-1.239 0,-1.68c0,-0.364 0.295,-0.659 0.659,-0.659c0,0 0,0 0.001,0c1.842,0 3.635,0.603 5.102,1.718c2.666,2.024 6.738,5.115 6.738,5.115l-10.5,5.167Z"/>
                </clipPath>
                <g clip-path="url(#_clip3)">
                    <path d="M11,8c0,0 -1.18,-1.18 -2.258,-2.258c-1.149,-1.149 -2.52,-2.053 -4.029,-2.657c-1.317,-0.527 -2.713,-1.085 -2.713,-1.085l0,12l9,0l0,-6Z" style="fill:#4b4b4b;"/>
                </g>
                <path d="M13.562,6c-3.409,0 -6.525,1.926 -8.05,4.975c-0.21,0.421 -0.426,0.853 -0.644,1.289c-2.31,4.62 -1.404,10.2 2.248,13.852c0.432,0.432 0.853,0.853 1.248,1.248c1.688,1.688 3.977,2.636 6.364,2.636c0.831,0 1.713,0 2.544,0c2.387,0 4.676,-0.948 6.364,-2.636c0.395,-0.395 0.816,-0.816 1.248,-1.248c3.652,-3.652 4.558,-9.232 2.248,-13.852c-0.218,-0.436 -0.434,-0.868 -0.644,-1.289c-1.525,-3.049 -4.641,-4.975 -8.05,-4.975c-1.579,0 -3.297,0 -4.876,0Z" style="fill:#353535;"/>
            </g>
            <g>
                <path d="M9.502,19c0.928,0 1.817,-0.369 2.473,-1.025c0.656,-0.656 1.025,-1.545 1.025,-2.473c0,-0.384 0,-0.775 0,-1.16c0,-1.933 -1.567,-3.5 -3.5,-3.5l-0.002,0c-0.928,0 -1.817,0.369 -2.473,1.025c-0.656,0.656 -1.025,1.546 -1.025,2.473c0,0.385 0,0.776 0,1.16c0,1.933 1.567,3.5 3.5,3.5l0.002,0Z" style="fill:#fbe844;"/>
                <path d="M9,12.841c0,-0.264 0.105,-0.519 0.293,-0.706c0.187,-0.187 0.441,-0.293 0.706,-0.293c0.001,0 0.001,0 0.002,0c0.265,0 0.519,0.106 0.706,0.293c0.188,0.187 0.293,0.442 0.293,0.706c0,1.146 0,3.014 0,4.16c0,0.265 -0.105,0.519 -0.293,0.706c-0.187,0.188 -0.441,0.293 -0.706,0.293c-0.001,0 -0.001,0 -0.002,0c-0.265,0 -0.519,-0.105 -0.706,-0.293c-0.188,-0.187 -0.293,-0.441 -0.293,-0.706c0,-1.146 0,-3.014 0,-4.16Z"/>
                <path d="M22.498,19c-0.928,0 -1.817,-0.369 -2.473,-1.025c-0.656,-0.656 -1.025,-1.545 -1.025,-2.473c0,-0.384 0,-0.775 0,-1.16c0,-1.933 1.567,-3.5 3.5,-3.5l0.002,0c0.928,0 1.817,0.369 2.473,1.025c0.656,0.656 1.025,1.546 1.025,2.473c0,0.385 0,0.776 0,1.16c0,1.933 -1.567,3.5 -3.5,3.5l-0.002,0Z" style="fill:#fbe844;"/>
                <path d="M23,12.841c0,-0.264 -0.105,-0.519 -0.293,-0.706c-0.187,-0.187 -0.441,-0.293 -0.706,-0.293c-0.001,0 -0.001,0 -0.002,0c-0.265,0 -0.519,0.106 -0.706,0.293c-0.188,0.187 -0.293,0.442 -0.293,0.706c0,1.146 0,3.014 0,4.16c0,0.265 0.105,0.519 0.293,0.706c0.187,0.188 0.441,0.293 0.706,0.293c0.001,0 0.001,0 0.002,0c0.265,0 0.519,-0.105 0.706,-0.293c0.188,-0.187 0.293,-0.441 0.293,-0.706c0,-1.146 0,-3.014 0,-4.16Z"/>
            </g>
            <g>
                <path d="M11.534,27.409c-0.624,-0.509 -1.165,-1.127 -1.592,-1.839c-0.524,-0.873 -0.942,-1.57 -0.942,-1.57c0,0 0.905,0.226 1.854,0.464c1.367,0.341 2.814,0.091 3.986,-0.691c0.621,-0.414 1.16,-0.773 1.16,-0.773c0,0 0.539,0.359 1.16,0.773c1.172,0.782 2.619,1.032 3.986,0.691c0.949,-0.238 1.854,-0.464 1.854,-0.464c0,0 -0.418,0.697 -0.942,1.57c-0.427,0.712 -0.968,1.33 -1.592,1.839c-1.066,-0.897 -7.866,-0.897 -8.932,0Z" style="fill:#808080;"/>
                <path d="M11.534,27.409c1.066,-0.897 2.429,-1.409 3.863,-1.409c0.399,0 0.807,0 1.206,0c1.434,0 2.797,0.512 3.863,1.409c-1.242,1.014 -2.814,1.591 -4.466,1.591c0,0 0,0 0,0c-1.652,0 -3.224,-0.577 -4.466,-1.591Z" style="fill:#b3b3b3;"/>
            </g>
            <path d="M13,19.819c0,-0.217 0.086,-0.426 0.24,-0.579c0.153,-0.154 0.362,-0.24 0.579,-0.24c1.143,0 3.204,0 4.352,0c0.22,0 0.431,0.087 0.586,0.243c0.156,0.155 0.243,0.366 0.243,0.586c0,0 0,0 0,0c0,0.107 -0.053,0.207 -0.142,0.266c-0.595,0.397 -2.858,1.905 -2.858,1.905c0,0 -2.243,-1.495 -2.85,-1.9c-0.094,-0.062 -0.15,-0.168 -0.15,-0.28c0,-0.001 0,-0.001 0,-0.001Z" style="fill:#666;"/>
        </g>
    </g>
</svg>
