<?xml version="1.0" encoding="UTF-8" standalone="no"?>
<!DOCTYPE svg PUBLIC "-//W3C//DTD SVG 1.1//EN" "http://www.w3.org/Graphics/SVG/1.1/DTD/svg11.dtd">
<svg width="100%" height="100%" viewBox="0 0 32 32" version="1.1" xmlns="http://www.w3.org/2000/svg" xmlns:xlink="http://www.w3.org/1999/xlink" xml:space="preserve" xmlns:serif="http://www.serif.com/" style="fill-rule:evenodd;clip-rule:evenodd;stroke-linecap:round;stroke-miterlimit:1.5;">
    <rect id="cat_grin" x="0" y="0" width="32" height="32" style="fill:none;"/>
    <clipPath id="_clip1">
        <rect x="0" y="0" width="32" height="32"/>
    </clipPath>
    <g clip-path="url(#_clip1)">
        <g id="outline">
            <path d="M19.491,4.051l2.537,-1.926c1.816,-1.379 4.033,-2.125 6.312,-2.125c0.001,0 0.001,0 0.001,0c1.469,0 2.659,1.19 2.659,2.659c0,0.441 0,1.054 0,1.68c0,1.951 -0.272,3.893 -0.808,5.769l-0.719,2.516c1.962,5.118 0.761,10.971 -3.175,14.906c-0.432,0.432 -0.853,0.853 -1.248,1.248c-2.063,2.063 -4.861,3.222 -7.778,3.222c-0.831,0 -1.713,0 -2.544,0c-2.917,0 -5.715,-1.159 -7.778,-3.222c-0.395,-0.395 -0.816,-0.816 -1.248,-1.248c-3.936,-3.935 -5.137,-9.788 -3.175,-14.906l-0.719,-2.516c-0.536,-1.876 -0.808,-3.818 -0.808,-5.769c0,-0.626 0,-1.239 0,-1.68c0,-1.469 1.19,-2.659 2.659,-2.659l0.001,0c2.279,0 4.496,0.746 6.312,2.125l2.537,1.926c0.348,-0.034 0.699,-0.051 1.053,-0.051l4.876,0c0.354,0 0.705,0.017 1.053,0.051Z"/>
        </g>
        <g id="emoji">
            <g>
                <path d="M27,14c0,0 0.698,-2.442 1.269,-4.441c0.485,-1.698 0.731,-3.455 0.731,-5.22c0,-0.626 0,-1.239 0,-1.68c0,-0.364 -0.295,-0.659 -0.659,-0.659c0,0 0,0 -0.001,0c-1.842,0 -3.635,0.603 -5.102,1.718c-2.666,2.024 -6.738,5.115 -6.738,5.115l10.5,5.167Z" style="fill:#353535;"/>
                <clipPath id="_clip2">
                    <path d="M27,14c0,0 0.698,-2.442 1.269,-4.441c0.485,-1.698 0.731,-3.455 0.731,-5.22c0,-0.626 0,-1.239 0,-1.68c0,-0.364 -0.295,-0.659 -0.659,-0.659c0,0 0,0 -0.001,0c-1.842,0 -3.635,0.603 -5.102,1.718c-2.666,2.024 -6.738,5.115 -6.738,5.115l10.5,5.167Z"/>
                </clipPath>
                <g clip-path="url(#_clip2)">
                    <path d="M21,8c0,0 1.18,-1.18 2.258,-2.258c1.149,-1.149 2.52,-2.053 4.029,-2.657c1.317,-0.527 2.713,-1.085 2.713,-1.085l0,12l-9,0l0,-6Z" style="fill:#4b4b4b;"/>
                </g>
                <path d="M5,14c0,0 -0.698,-2.442 -1.269,-4.441c-0.485,-1.698 -0.731,-3.455 -0.731,-5.22c0,-0.626 0,-1.239 0,-1.68c0,-0.364 0.295,-0.659 0.659,-0.659c0,0 0,0 0.001,0c1.842,0 3.635,0.603 5.102,1.718c2.666,2.024 6.738,5.115 6.738,5.115l-10.5,5.167Z" style="fill:#353535;"/>
                <clipPath id="_clip3">
                    <path d="M5,14c0,0 -0.698,-2.442 -1.269,-4.441c-0.485,-1.698 -0.731,-3.455 -0.731,-5.22c0,-0.626 0,-1.239 0,-1.68c0,-0.364 0.295,-0.659 0.659,-0.659c0,0 0,0 0.001,0c1.842,0 3.635,0.603 5.102,1.718c2.666,2.024 6.738,5.115 6.738,5.115l-10.5,5.167Z"/>
                </clipPath>
                <g clip-path="url(#_clip3)">
                    <path d="M11,8c0,0 -1.18,-1.18 -2.258,-2.258c-1.149,-1.149 -2.52,-2.053 -4.029,-2.657c-1.317,-0.527 -2.713,-1.085 -2.713,-1.085l0,12l9,0l0,-6Z" style="fill:#4b4b4b;"/>
                </g>
                <path d="M13.562,6c-3.409,0 -6.525,1.926 -8.05,4.975c-0.21,0.421 -0.426,0.853 -0.644,1.289c-2.31,4.62 -1.404,10.2 2.248,13.852c0.432,0.432 0.853,0.853 1.248,1.248c1.688,1.688 3.977,2.636 6.364,2.636c0.831,0 1.713,0 2.544,0c2.387,0 4.676,-0.948 6.364,-2.636c0.395,-0.395 0.816,-0.816 1.248,-1.248c3.652,-3.652 4.558,-9.232 2.248,-13.852c-0.218,-0.436 -0.434,-0.868 -0.644,-1.289c-1.525,-3.049 -4.641,-4.975 -8.05,-4.975c-1.579,0 -3.297,0 -4.876,0Z" style="fill:#353535;"/>
            </g>
            <path d="M6.965,17.036c0.293,0.293 0.767,0.293 1.059,0c0.005,-0.004 0.007,-0.007 0.007,-0.007c0.523,-0.522 1.231,-0.815 1.969,-0.815c0.738,0 1.446,0.293 1.969,0.815c0,0 0.002,0.003 0.007,0.007c0.292,0.293 0.766,0.293 1.059,0c0,0 0,0 0.001,0c0.14,-0.141 0.219,-0.332 0.219,-0.531c0,-0.199 -0.079,-0.389 -0.219,-0.53c-0.005,-0.004 -0.007,-0.006 -0.007,-0.006c-0.803,-0.804 -1.893,-1.255 -3.029,-1.255c-1.136,0 -2.226,0.451 -3.029,1.255c0,0 -0.002,0.002 -0.007,0.006c-0.14,0.141 -0.219,0.331 -0.219,0.53c0,0.199 0.079,0.39 0.219,0.531c0.001,0 0.001,0 0.001,0Zm18.07,0c-0.293,0.293 -0.767,0.293 -1.059,0c-0.005,-0.004 -0.007,-0.007 -0.007,-0.007c-0.523,-0.522 -1.231,-0.815 -1.969,-0.815c-0.738,0 -1.446,0.293 -1.969,0.815c0,0 -0.002,0.003 -0.007,0.007c-0.292,0.293 -0.766,0.293 -1.059,0c0,0 0,0 -0.001,0c-0.14,-0.141 -0.219,-0.332 -0.219,-0.531c0,-0.199 0.079,-0.389 0.219,-0.53c0.005,-0.004 0.007,-0.006 0.007,-0.006c0.803,-0.804 1.893,-1.255 3.029,-1.255c1.136,0 2.226,0.451 3.029,1.255c0,0 0.002,0.002 0.007,0.006c0.14,0.141 0.219,0.331 0.219,0.53c0,0.199 -0.079,0.39 -0.219,0.531c-0.001,0 -0.001,0 -0.001,0Z" style="fill:#fbe844;"/>
            <path d="M13,19.829c0,-0.22 0.087,-0.431 0.243,-0.586c0.155,-0.156 0.366,-0.243 0.586,-0.243c1.145,0 3.197,0 4.342,0c0.22,0 0.431,0.087 0.586,0.243c0.156,0.155 0.243,0.366 0.243,0.586c0,0 0,0 0,0c0,0.107 -0.053,0.207 -0.142,0.266c-0.595,0.397 -2.858,1.905 -2.858,1.905c0,0 -2.263,-1.508 -2.858,-1.905c-0.089,-0.059 -0.142,-0.159 -0.142,-0.266c0,0 0,0 0,0Z" style="fill:#666;"/>
            <path d="M10,24c0,0 0.385,0.385 0.879,0.879c0.562,0.562 1.325,0.878 2.121,0.878c0.796,0 1.559,-0.316 2.121,-0.878c0.494,-0.494 0.879,-0.879 0.879,-0.879c0,0 0.385,0.385 0.879,0.879c0.562,0.562 1.325,0.878 2.121,0.878c0.796,0 1.559,-0.316 2.121,-0.878c0.494,-0.494 0.879,-0.879 0.879,-0.879" style="fill:none;stroke:#808080;stroke-width:1.5px;"/>
        </g>
    </g>
</svg>
