<?xml version="1.0" encoding="UTF-8" standalone="no"?><!DOCTYPE svg PUBLIC "-//W3C//DTD SVG 1.1//EN" "http://www.w3.org/Graphics/SVG/1.1/DTD/svg11.dtd"><svg width="100%" height="100%" viewBox="0 0 32 32" version="1.1" xmlns="http://www.w3.org/2000/svg" xmlns:xlink="http://www.w3.org/1999/xlink" xml:space="preserve" xmlns:serif="http://www.serif.com/" style="fill-rule:evenodd;clip-rule:evenodd;stroke-linecap:round;stroke-linejoin:round;stroke-miterlimit:1.5;"><rect id="cat_scream" x="0" y="0" width="32" height="32" style="fill:none;"/><clipPath id="_clip1"><rect x="0" y="0" width="32" height="32"/></clipPath><g clip-path="url(#_clip1)"><g id="outline"><path d="M20.045,6.142l3.193,-2.424c1.467,-1.115 3.26,-1.718 5.102,-1.718c0.001,0 0.001,0 0.001,0c0.364,0 0.659,0.295 0.659,0.659c0,0.441 0,1.054 0,1.68c0,1.765 -0.246,3.522 -0.731,5.22l-0.987,3.455c1.364,4.746 -0.328,9.953 -4.432,12.963c-0.723,0.53 -1.439,1.055 -2.119,1.554c-2.816,2.065 -6.646,2.065 -9.462,0c-0.68,-0.499 -1.396,-1.024 -2.119,-1.554c-4.104,-3.01 -5.796,-8.217 -4.432,-12.963l-0.987,-3.455c-0.485,-1.698 -0.731,-3.455 -0.731,-5.22c0,-0.626 0,-1.239 0,-1.68c0,-0.364 0.295,-0.659 0.659,-0.659c0,0 0,0 0.001,0c1.842,0 3.635,0.603 5.102,1.718l3.193,2.424c0.519,-0.094 1.05,-0.142 1.589,-0.142c1.589,0 3.323,0 4.912,0c0.539,0 1.07,0.048 1.589,0.142Z" style="fill:none;stroke:#000;stroke-width:4px;"/></g><g id="emoji"><g><g><path d="M28.955,2.418c-0.097,-0.245 -0.335,-0.418 -0.614,-0.418c0,0 0,0 -0.001,0c-1.842,0 -3.635,0.603 -5.102,1.718c-2.666,2.024 -6.738,5.115 -6.738,5.115l4.5,2.215l7.955,-8.63Z" style="fill:#353535;"/><path d="M28.955,2.418l-1.668,0.667c-1.509,0.604 -2.88,1.508 -4.029,2.657c-1.078,1.078 -2.258,2.258 -2.258,2.258l0,3.048l6,2.952c0,0 0.698,-2.442 1.269,-4.441c0.485,-1.698 0.731,-3.455 0.731,-5.22c0,-0.626 0,-1.239 0,-1.68c0,-0.085 -0.016,-0.166 -0.045,-0.241Z" style="fill:#4b4b4b;"/></g><g><path d="M3.045,2.418c0.097,-0.245 0.335,-0.418 0.614,-0.418c0,0 0,0 0.001,0c1.842,0 3.635,0.603 5.102,1.718c2.666,2.024 6.738,5.115 6.738,5.115l-4.5,2.215l-7.955,-8.63Z" style="fill:#353535;"/><path d="M3.045,2.418l1.668,0.667c1.509,0.604 2.88,1.508 4.029,2.657c1.078,1.078 2.258,2.258 2.258,2.258l0,3.048l-6,2.952c0,0 -0.698,-2.442 -1.269,-4.441c-0.485,-1.698 -0.731,-3.455 -0.731,-5.22c0,-0.626 0,-1.239 0,-1.68c0,-0.085 0.016,-0.166 0.045,-0.241Z" style="fill:#4b4b4b;"/></g><path d="M13.544,6c-3.398,0 -6.504,1.92 -8.023,4.958c-0.001,0.001 -0.001,0.002 -0.001,0.003c-2.611,5.221 -1.078,11.563 3.63,15.016c0.723,0.53 1.439,1.055 2.119,1.554c2.816,2.065 6.646,2.065 9.462,0c0.68,-0.499 1.396,-1.024 2.119,-1.554c4.708,-3.453 6.241,-9.795 3.63,-15.016c0,-0.001 0,-0.002 -0.001,-0.003c-1.519,-3.038 -4.625,-4.958 -8.023,-4.958c-1.589,0 -3.323,0 -4.912,0Z" style="fill:#353535;"/></g><g><path d="M14.176,25.819c-0.115,-0.255 -0.176,-0.534 -0.176,-0.819c0,-0.794 0,-1.706 0,-2.5c0,-1.105 0.895,-2 2,-2c0.53,0 1.039,0.211 1.414,0.586c0.375,0.375 0.586,0.884 0.586,1.414c0,0.794 0,1.706 0,2.5c0,0.292 -0.063,0.57 -0.175,0.82c-0.451,-0.508 -3.199,-0.508 -3.649,-0.001Z" style="fill:#808080;"/><path d="M14.176,25.819c0.45,-0.507 1.106,-0.819 1.823,-0.819c0.001,0 0.001,0 0.002,0c0.718,0 1.373,0.312 1.824,0.82c-0.313,0.696 -1.013,1.18 -1.825,1.18c-0.53,0 -1.039,-0.211 -1.414,-0.586c-0.174,-0.173 -0.312,-0.375 -0.41,-0.595Z" style="fill:#bbb;"/></g><path d="M9,17c-0.265,0 -0.52,-0.105 -0.707,-0.293c-0.188,-0.187 -0.293,-0.442 -0.293,-0.707c0,-0.292 0,-0.632 0,-1c0,-2.761 2.239,-5 5,-5c0.265,0 0.52,0.105 0.707,0.293c0.188,0.187 0.293,0.442 0.293,0.707c0,0.292 0,0.632 0,1c0,2.761 -2.239,5 -5,5c0,0 0,0 0,0Z" style="fill:#fbe844;"/><path d="M18,11c0,-0.265 0.105,-0.52 0.293,-0.707c0.187,-0.188 0.442,-0.293 0.707,-0.293c2.761,0 5,2.239 5,5c0,0.368 0,0.708 0,1c0,0.265 -0.105,0.52 -0.293,0.707c-0.187,0.188 -0.442,0.293 -0.707,0.293c-2.761,0 -5,-2.239 -5,-5c0,-0.368 0,-0.708 0,-1Z" style="fill:#fbe844;"/><path d="M13,16.829c0,-0.22 0.087,-0.431 0.243,-0.586c0.155,-0.156 0.366,-0.243 0.586,-0.243c1.145,0 3.197,0 4.342,0c0.22,0 0.431,0.087 0.586,0.243c0.156,0.155 0.243,0.366 0.243,0.586c0,0 0,0 0,0c0,0.107 -0.053,0.207 -0.142,0.266c-0.595,0.397 -2.858,1.905 -2.858,1.905c0,0 -2.263,-1.508 -2.858,-1.905c-0.089,-0.059 -0.142,-0.159 -0.142,-0.266c0,0 0,0 0,0Z" style="fill:#7f7f7f;"/><path d="M27,23.5c0,-1.381 -1.119,-2.5 -2.5,-2.5c-0.663,0 -1.299,0.263 -1.768,0.732c-0.469,0.469 -0.732,1.105 -0.732,1.768c0,2.663 0,6.5 0,6.5l6,0c0,0 -0.615,-2.461 -0.881,-3.522c-0.079,-0.318 -0.119,-0.643 -0.119,-0.97c0,-0.479 0,-1.243 0,-2.008Z" style="fill:#353535;stroke:#000;stroke-width:4px;stroke-linejoin:miter;stroke-miterlimit:2;"/><path d="M5,23.5c0,-1.381 1.119,-2.5 2.5,-2.5c0.663,0 1.299,0.263 1.768,0.732c0.469,0.469 0.732,1.105 0.732,1.768c0,2.663 0,6.5 0,6.5l-6,0c0,0 0.615,-2.461 0.881,-3.522c0.079,-0.318 0.119,-0.643 0.119,-0.97c0,-0.479 0,-1.243 0,-2.008Z" style="fill:#353535;stroke:#000;stroke-width:4px;stroke-linejoin:miter;stroke-miterlimit:2;"/><path d="M27,23.5c0,-1.381 -1.119,-2.5 -2.5,-2.5c-0.663,0 -1.299,0.263 -1.768,0.732c-0.469,0.469 -0.732,1.105 -0.732,1.768c0,2.663 0,6.5 0,6.5l6,0c0,0 -0.615,-2.461 -0.881,-3.522c-0.079,-0.318 -0.119,-0.643 -0.119,-0.97c0,-0.479 0,-1.243 0,-2.008Z" style="fill:#353535;"/><path d="M5,23.5c0,-1.381 1.119,-2.5 2.5,-2.5c0.663,0 1.299,0.263 1.768,0.732c0.469,0.469 0.732,1.105 0.732,1.768c0,2.663 0,6.5 0,6.5l-6,0c0,0 0.615,-2.461 0.881,-3.522c0.079,-0.318 0.119,-0.643 0.119,-0.97c0,-0.479 0,-1.243 0,-2.008Z" style="fill:#353535;"/></g></g></svg>