<?xml version="1.0" encoding="UTF-8" standalone="no"?><!DOCTYPE svg PUBLIC "-//W3C//DTD SVG 1.1//EN" "http://www.w3.org/Graphics/SVG/1.1/DTD/svg11.dtd"><svg width="100%" height="100%" viewBox="0 0 32 32" version="1.1" xmlns="http://www.w3.org/2000/svg" xmlns:xlink="http://www.w3.org/1999/xlink" xml:space="preserve" xmlns:serif="http://www.serif.com/" style="fill-rule:evenodd;clip-rule:evenodd;stroke-linecap:round;stroke-linejoin:round;stroke-miterlimit:1.5;"><rect id="white_square_button" x="0" y="0" width="32" height="32" style="fill:none;"/><clipPath id="_clip1"><rect x="0" y="0" width="32" height="32"/></clipPath><g clip-path="url(#_clip1)"><g id="outline"><rect x="3" y="2" width="26" height="28" style="fill:none;stroke:#000;stroke-width:4px;"/></g><g id="emoji"><path d="M29,30l-26,0l0,-2l2,-2l22,0l2,2l0,2Z" style="fill:#b2b2b2;"/><rect x="3" y="2" width="26" height="26" style="fill:#fff;"/><path d="M24,9c0,-1.105 -0.895,-2 -2,-2c-3.074,0 -8.926,0 -12,0c-1.105,0 -2,0.895 -2,2c0,3.074 0,8.926 0,12c0,1.105 0.895,2 2,2c3.074,0 8.926,0 12,0c1.105,0 2,-0.895 2,-2c0,-3.074 0,-8.926 0,-12Z" style="fill:#404040;"/></g></g></svg>