<?xml version="1.0" encoding="UTF-8" standalone="no"?>
<!DOCTYPE svg PUBLIC "-//W3C//DTD SVG 1.1//EN" "http://www.w3.org/Graphics/SVG/1.1/DTD/svg11.dtd">
<svg width="100%" height="100%" viewBox="0 0 32 32" version="1.1" xmlns="http://www.w3.org/2000/svg" xmlns:xlink="http://www.w3.org/1999/xlink" xml:space="preserve" xmlns:serif="http://www.serif.com/" style="fill-rule:evenodd;clip-rule:evenodd;stroke-linejoin:round;stroke-miterlimit:1.41421;">
    <rect id="bugbear" x="0" y="0" width="32" height="32" style="fill:none;"/>
    <g id="outline">
        <path d="M0,7c0.749,-0.001 1.497,-0.007 2.246,0.001c0.198,0.007 0.396,0.017 0.594,0.038c0.144,0.016 0.287,0.035 0.43,0.06l-0.972,-0.973l5.155,-1.719c0.149,-0.048 0.149,-0.047 0.298,-0.092c0.362,-0.101 0.728,-0.183 1.1,-0.236c0.369,-0.052 0.74,-0.075 1.113,-0.079l3.037,0c1.632,-0.01 3.265,-0.012 4.897,-0.005c1.43,-0.005 2.86,-0.008 4.289,0.007c0.376,0.011 0.75,0.041 1.121,0.101c0.421,0.069 0.833,0.174 1.239,0.304l5.155,1.719l-0.972,0.973c0.191,-0.033 0.384,-0.057 0.578,-0.074c0.195,-0.016 0.39,-0.023 0.585,-0.025l2.107,0l0,2.26c-0.448,1.812 -0.894,3.625 -1.362,5.432c-0.033,0.116 -0.033,0.116 -0.067,0.231c-0.179,0.568 -0.419,1.113 -0.731,1.62c-0.477,0.776 -1.106,1.454 -1.84,1.99l0,9.029l-4,-1l0,3.213l-8,-2.667l-8,2.667l0,-3.213l-4,1l0,-9.029c-0.893,-0.652 -1.629,-1.515 -2.128,-2.505c-0.232,-0.461 -0.408,-0.945 -0.538,-1.445l-1.334,-5.337l0,-2.246Z" style="fill:#151212;"/>
    </g>
    <g id="emoji">
        <path d="M25,13c0,0 0.02,-0.078 0.053,-0.213c0.557,-2.226 2.557,-3.787 4.851,-3.787c0.062,0 0.096,0 0.096,0c0,0 -0.701,2.802 -1.272,5.09c-0.448,1.791 -1.847,3.19 -3.638,3.638c-0.619,0.154 -1.09,0.272 -1.09,0.272l1,-5Z" style="fill:#7b5633;"/>
        <clipPath id="_clip1">
            <path d="M25,13c0,0 0.02,-0.078 0.053,-0.213c0.557,-2.226 2.557,-3.787 4.851,-3.787c0.062,0 0.096,0 0.096,0c0,0 -0.701,2.802 -1.272,5.09c-0.448,1.791 -1.847,3.19 -3.638,3.638c-0.619,0.154 -1.09,0.272 -1.09,0.272l1,-5Z"/>
        </clipPath>
        <g clip-path="url(#_clip1)">
            <path d="M30,9l-7,0l2,9c0,0 0.363,-1.33 0.731,-2.682c0.504,-1.847 1.481,-3.53 2.835,-4.884c0.758,-0.758 1.434,-1.434 1.434,-1.434Z" style="fill:#ad8348;"/>
        </g>
        <path d="M7,13c0,0 -0.02,-0.078 -0.053,-0.213c-0.557,-2.226 -2.557,-3.787 -4.851,-3.787c-0.062,0 -0.096,0 -0.096,0c0,0 0.701,2.802 1.272,5.09c0.448,1.791 1.847,3.19 3.638,3.638c0.619,0.154 1.09,0.272 1.09,0.272l-1,-5Z" style="fill:#7b5633;"/>
        <clipPath id="_clip2">
            <path d="M7,13c0,0 -0.02,-0.078 -0.053,-0.213c-0.557,-2.226 -2.557,-3.787 -4.851,-3.787c-0.062,0 -0.096,0 -0.096,0c0,0 0.701,2.802 1.272,5.09c0.448,1.791 1.847,3.19 3.638,3.638c0.619,0.154 1.09,0.272 1.09,0.272l-1,-5Z"/>
        </clipPath>
        <g clip-path="url(#_clip2)">
            <path d="M2,9l7,0l-2,9c0,0 -0.363,-1.33 -0.731,-2.682c-0.504,-1.847 -1.481,-3.53 -2.835,-4.884c-0.758,-0.758 -1.434,-1.434 -1.434,-1.434Z" style="fill:#ad8348;"/>
        </g>
        <path d="M13,6l9.026,0c0.645,0 1.286,0.104 1.898,0.308c0.881,0.294 2.076,0.692 2.076,0.692l-1.576,1.576c1.015,1.243 1.576,2.805 1.576,4.424l0,12l-4,-1l0,3l-6,-2c0,0 -6,2 -6,2l0,-3l-4,1l0,-8.044c0,-1.148 0,-2.547 0,-3.956c0,-1.619 0.561,-3.181 1.576,-4.424l-1.576,-1.576c0,0 1.195,-0.398 2.076,-0.692c0.612,-0.204 1.253,-0.308 1.898,-0.308l3.026,0Z" style="fill:#60381f;"/>
        <path d="M17,15l0,0c0,-1.657 1.343,-3 3,-3c0.84,0 1.719,0 2.438,0c0.918,0 1.718,0.625 1.941,1.515c0.086,0.344 0.177,0.709 0.262,1.049c0.232,0.927 0.124,1.905 -0.303,2.759c-0.582,1.165 -1.338,2.677 -1.338,2.677l1.605,0.803c-0.186,0.223 -0.389,0.433 -0.609,0.629c-0.552,0.493 -1.154,1.03 -1.72,1.535c-1.466,1.309 -3.362,2.033 -5.328,2.033c-0.621,0 -1.275,0 -1.896,0c-1.966,0 -3.862,-0.724 -5.328,-2.033c-0.566,-0.505 -1.168,-1.042 -1.72,-1.535c-0.22,-0.196 -0.423,-0.406 -0.609,-0.629l1.605,-0.803c0,0 -0.756,-1.512 -1.338,-2.677c-0.427,-0.854 -0.535,-1.832 -0.303,-2.759c0.085,-0.34 0.176,-0.705 0.262,-1.049c0.223,-0.89 1.023,-1.515 1.941,-1.515c0.719,0 1.598,0 2.438,0c1.657,0 3,1.343 3,3c0,0 0,0 0,0l2,0Zm-4,-9c1.944,0 4.056,0 6,0c0,0 -6,0 -6,0Z" style="fill:#ad8348;"/>
        <clipPath id="_clip3">
            <path d="M17,15l0,0c0,-1.657 1.343,-3 3,-3c0.84,0 1.719,0 2.438,0c0.918,0 1.718,0.625 1.941,1.515c0.086,0.344 0.177,0.709 0.262,1.049c0.232,0.927 0.124,1.905 -0.303,2.759c-0.582,1.165 -1.338,2.677 -1.338,2.677l1.605,0.803c-0.186,0.223 -0.389,0.433 -0.609,0.629c-0.552,0.493 -1.154,1.03 -1.72,1.535c-1.466,1.309 -3.362,2.033 -5.328,2.033c-0.621,0 -1.275,0 -1.896,0c-1.966,0 -3.862,-0.724 -5.328,-2.033c-0.566,-0.505 -1.168,-1.042 -1.72,-1.535c-0.22,-0.196 -0.423,-0.406 -0.609,-0.629l1.605,-0.803c0,0 -0.756,-1.512 -1.338,-2.677c-0.427,-0.854 -0.535,-1.832 -0.303,-2.759c0.085,-0.34 0.176,-0.705 0.262,-1.049c0.223,-0.89 1.023,-1.515 1.941,-1.515c0.719,0 1.598,0 2.438,0c1.657,0 3,1.343 3,3c0,0 0,0 0,0l2,0Zm-4,-9c1.944,0 4.056,0 6,0c0,0 -6,0 -6,0Z"/>
        </clipPath>
        <g clip-path="url(#_clip3)">
            <path d="M10,20l1,-3l1,5l-2,-2Zm12,0l-1,-3l-1,5l2,-2Z" style="fill:#fff;"/>
            <path d="M24.379,13.515c-0.223,-0.89 -1.023,-1.515 -1.941,-1.515c-0.719,0 -1.598,0 -2.438,0c-1.657,0 -3,1.343 -3,3c0,0 0,0 0,0l-2,0c0,0 0,0 0,0c0,-1.657 -1.343,-3 -3,-3c-0.84,0 -1.719,0 -2.438,0c-0.918,0 -1.718,0.625 -1.941,1.515c-0.086,0.344 -0.177,0.709 -0.262,1.049c-0.232,0.927 -0.124,1.905 0.303,2.759c0.582,1.165 1.338,2.677 1.338,2.677c0,0 -1.025,0.512 -1.607,0.804c-0.259,0.129 -0.487,0.313 -0.667,0.539c-0.548,0.685 -1.726,2.157 -1.726,2.157l0,-17.5l22,0l0,17.5c0,0 -1.178,-1.472 -1.726,-2.157c-0.18,-0.226 -0.408,-0.41 -0.667,-0.539c-0.582,-0.292 -1.607,-0.804 -1.607,-0.804c0,0 0.756,-1.512 1.338,-2.677c0.427,-0.854 0.535,-1.832 0.303,-2.759c-0.085,-0.34 -0.176,-0.705 -0.262,-1.049Z" style="fill:#60381f;"/>
            <path d="M14,16.865c0,-0.229 0.091,-0.449 0.253,-0.612c0.163,-0.162 0.383,-0.253 0.612,-0.253c0.672,0 1.598,0 2.27,0c0.229,0 0.449,0.091 0.612,0.253c0.162,0.163 0.253,0.383 0.253,0.612c0,0 0,0 0,0c0,0.087 -0.034,0.169 -0.095,0.23c-0.214,0.214 -0.749,0.749 -1.198,1.198c-0.39,0.39 -1.024,0.39 -1.414,0c-0.449,-0.449 -0.984,-0.984 -1.198,-1.198c-0.061,-0.061 -0.095,-0.143 -0.095,-0.23c0,0 0,0 0,0Z" style="fill:#38291b;"/>
            <path d="M23,14l0,0c0,1.105 -0.895,2 -2,2c-1,0 -2,0 -2,0c0,0 0,0 0,0c0,-1.105 0.895,-2 2,-2l2,0Zm-10,2l-2,0c-1.105,0 -2,-0.895 -2,-2c0,0 0,0 0,0c0,0 1,0 2,0c1.105,0 2,0.895 2,2l0,0Z" style="fill:#151212;"/>
        </g>
        <path d="M23.008,18.684l2.324,-1.42l0,2.347l-1.526,0.937l-1.372,-0.279l0.574,-1.585Zm-14.812,1.858l-1.523,-0.931l-0.005,-2.347l2.322,1.426l0.551,1.579l-1.345,0.273Z" style="fill:#60381f;"/>
        <path d="M22.5,17.5l1.5,3.5l-1,3l-14,0l-1,-3l1.5,-3.5l13,0Z" style="fill:#3a2511;fill-opacity:0;"/>
        <clipPath id="_clip4">
            <path d="M22.5,17.5l1.5,3.5l-1,3l-14,0l-1,-3l1.5,-3.5l13,0Z"/>
        </clipPath>
        <g clip-path="url(#_clip4)">
            <path d="M26.375,18.971c-1.747,1.067 -3.486,2.149 -5.242,3.202c-0.089,0.052 -0.18,0.101 -0.271,0.15c-0.458,0.233 -0.939,0.415 -1.442,0.528c-0.402,0.092 -0.811,0.137 -1.223,0.148c-1.465,0.013 -2.929,0.013 -4.394,0c-0.378,-0.01 -0.753,-0.048 -1.123,-0.126c-0.64,-0.133 -1.248,-0.374 -1.813,-0.7l-0.085,-0.051l-5.157,-3.151l1.043,-1.707c1.737,1.062 3.466,2.138 5.212,3.185c0.06,0.034 0.12,0.067 0.181,0.1c0.326,0.166 0.669,0.292 1.028,0.366c0.247,0.052 0.497,0.078 0.749,0.084c1.441,0.013 2.883,0.013 4.324,0c0.458,-0.011 0.91,-0.094 1.339,-0.255c0.238,-0.089 0.464,-0.203 0.682,-0.333l5.149,-3.147c0.347,0.569 0.695,1.138 1.043,1.707Z" style="fill:#27190c;fill-rule:nonzero;"/>
        </g>
    </g>
</svg>
