<?xml version="1.0" encoding="UTF-8" standalone="no"?>
<!DOCTYPE svg PUBLIC "-//W3C//DTD SVG 1.1//EN" "http://www.w3.org/Graphics/SVG/1.1/DTD/svg11.dtd">
<svg width="100%" height="100%" viewBox="0 0 32 32" version="1.1" xmlns="http://www.w3.org/2000/svg" xmlns:xlink="http://www.w3.org/1999/xlink" xml:space="preserve" xmlns:serif="http://www.serif.com/" style="fill-rule:evenodd;clip-rule:evenodd;stroke-linejoin:round;stroke-miterlimit:1.5;">
    <rect id="demon" x="0" y="0" width="32" height="32" style="fill:none;"/>
    <clipPath id="_clip1">
        <rect x="0" y="0" width="32" height="32"/>
    </clipPath>
    <g clip-path="url(#_clip1)">
        <g id="outline">
            <path d="M31.468,12.223l-1.518,6.507l-0.018,0.075l-0.022,0.082l-0.022,0.082l-0.025,0.082l-0.025,0.081l-0.027,0.08l-0.028,0.08l-0.03,0.079l-0.03,0.078l-0.032,0.078l-0.034,0.077l-0.034,0.077l-0.036,0.076l-0.037,0.074l-0.038,0.075l-0.039,0.074l-0.041,0.072l-0.042,0.072l-0.042,0.072l-0.044,0.07l-0.045,0.07l-0.047,0.069l-0.047,0.068l-0.048,0.067l-0.05,0.067l-0.051,0.065l-0.051,0.065l-0.053,0.063l-0.053,0.063l-0.055,0.063l-0.056,0.061l-0.057,0.06l-0.057,0.059l-0.059,0.058l-0.06,0.057l-0.06,0.057l-0.062,0.055l-0.062,0.054l-0.064,0.053l-0.064,0.053l-0.065,0.051l-0.066,0.05l-0.067,0.049l-0.068,0.048l-0.069,0.047l-0.069,0.046l-0.07,0.044l-0.071,0.044l-0.072,0.042l-0.073,0.042l-0.073,0.039l-0.075,0.039l-0.075,0.038l-0.075,0.036l-0.077,0.036l-0.077,0.034l-0.078,0.032l-0.078,0.032l-0.079,0.03l-0.08,0.029l-0.08,0.028l-0.081,0.026l-0.082,0.025l-0.074,0.021l-4.06,1.128l-0.369,-0.281l0,-9.625l8.761,-2.102l0.707,0.702Zm-5.468,4.554l0,1.207l0.004,-0.01l0.007,-0.015l0.006,-0.016l0.006,-0.016l0.005,-0.015l0.006,-0.017l0.005,-0.016l0.004,-0.016l0.005,-0.016l0.004,-0.017l0.007,-0.025l0.257,-1.104l-0.316,0.076Z"/>
            <path d="M10,13.623l0,9.625l-0.369,0.281l-4.06,-1.128l-0.074,-0.021l-0.082,-0.025l-0.081,-0.026l-0.08,-0.028l-0.08,-0.029l-0.079,-0.03l-0.079,-0.032l-0.077,-0.032l-0.077,-0.034l-0.077,-0.035l-0.075,-0.037l-0.075,-0.038l-0.074,-0.038l-0.074,-0.04l-0.073,-0.042l-0.072,-0.042l-0.071,-0.044l-0.07,-0.044l-0.069,-0.046l-0.069,-0.047l-0.068,-0.048l-0.067,-0.049l-0.066,-0.05l-0.065,-0.051l-0.064,-0.052l-0.064,-0.054l-0.062,-0.054l-0.062,-0.055l-0.06,-0.057l-0.06,-0.057l-0.059,-0.058l-0.057,-0.059l-0.057,-0.06l-0.056,-0.061l-0.055,-0.063l-0.053,-0.062l-0.053,-0.064l-0.052,-0.065l-0.05,-0.065l-0.049,-0.067l-0.049,-0.067l-0.047,-0.068l-0.047,-0.069l-0.045,-0.07l-0.044,-0.07l-0.042,-0.072l-0.042,-0.072l-0.041,-0.073l-0.039,-0.073l-0.038,-0.074l-0.037,-0.076l-0.036,-0.075l-0.034,-0.077l-0.034,-0.077l-0.032,-0.078l-0.03,-0.078l-0.03,-0.08l-0.028,-0.079l-0.027,-0.08l-0.025,-0.081l-0.025,-0.081l-0.022,-0.083l-0.022,-0.082l-0.018,-0.075l-1.518,-6.507l0.707,-0.702l8.761,2.102Zm-4.059,4.182l0.007,0.025l0.004,0.016l0.004,0.017l0.005,0.016l0.005,0.016l0.006,0.016l0.006,0.016l0.005,0.016l0.006,0.016l0.007,0.015l0.004,0.01l0,-1.207l-0.316,-0.076l0.257,1.104Z"/>
            <path d="M21.657,8l3.028,0c0.848,0 1.656,-0.359 2.224,-0.987c0.569,-0.628 0.845,-1.468 0.761,-2.312c-0.139,-1.394 -0.27,-2.701 -0.27,-2.701c0,0 0.96,2.953 1.713,5.271c0.496,1.527 -0.297,3.173 -1.8,3.736l-2.807,1.053c0.324,0.937 0.494,1.93 0.494,2.94l0,5.029c0,2.755 -1.137,5.388 -3.142,7.278c-0.494,0.466 -0.983,0.927 -1.414,1.332c-0.927,0.874 -2.154,1.361 -3.429,1.361l-2.03,0c-1.275,0 -2.502,-0.487 -3.429,-1.361c-0.431,-0.405 -0.92,-0.866 -1.414,-1.332c-2.005,-1.89 -3.142,-4.523 -3.142,-7.278c0,-1.514 0,-3.276 0,-5.029c0,-1.01 0.17,-2.003 0.494,-2.94l-2.807,-1.053c-1.503,-0.563 -2.296,-2.209 -1.8,-3.736c0.753,-2.318 1.713,-5.271 1.713,-5.271c0,0 -0.131,1.307 -0.27,2.701c-0.084,0.844 0.192,1.684 0.761,2.312c0.568,0.628 1.376,0.987 2.224,0.987l3.028,0c1.594,-1.288 3.589,-2 5.657,-2l0,0c2.068,0 4.063,0.712 5.657,2Z" style="fill:none;stroke:#000;stroke-width:4px;"/>
        </g>
        <g id="emoji">
            <path d="M7,14.96c0.011,-2.373 0.958,-4.646 2.636,-6.324c1.688,-1.688 3.977,-2.636 6.364,-2.636c0,0 0,0 0,0c2.387,0 4.676,0.948 6.364,2.636c1.678,1.678 2.625,3.951 2.636,6.324l4,-0.96c0,0 -0.582,2.495 -0.996,4.267c-0.249,1.069 -1.061,1.916 -2.118,2.209l-0.915,0.254c-0.185,2.442 -1.262,4.742 -3.04,6.452c-0.516,0.496 -1.03,0.99 -1.479,1.422c-0.932,0.896 -2.174,1.396 -3.466,1.396c-0.635,0 -1.337,0 -1.972,0c-1.292,0 -2.534,-0.5 -3.466,-1.396c-0.449,-0.432 -0.963,-0.926 -1.479,-1.422c-1.778,-1.71 -2.855,-4.01 -3.04,-6.452l-0.915,-0.254c-1.057,-0.293 -1.869,-1.14 -2.118,-2.209c-0.414,-1.772 -0.996,-4.267 -0.996,-4.267l4,0.96Z" style="fill:#e02e31;"/>
            <path d="M8,16l3,0c0.53,0 1.039,0.211 1.414,0.586c0.375,0.375 0.586,0.884 0.586,1.414c0,0.551 0,1 0,1l-3,0c-0.53,0 -1.039,-0.211 -1.414,-0.586c-0.375,-0.375 -0.586,-0.884 -0.586,-1.414c0,-0.551 0,-1 0,-1Z"/>
            <path d="M24,16l-3,0c-0.53,0 -1.039,0.211 -1.414,0.586c-0.375,0.375 -0.586,0.884 -0.586,1.414c0,0.551 0,1 0,1l3,0c0.53,0 1.039,-0.211 1.414,-0.586c0.375,-0.375 0.586,-0.884 0.586,-1.414c0,-0.551 0,-1 0,-1Z"/>
            <path d="M11.066,23.002l0.063,0.006l0.062,0.01l0.061,0.014l0.06,0.018l0.059,0.022l0.058,0.025l0.056,0.028l0.054,0.033l0.052,0.035l0.049,0.039l2.393,1.994l1.968,-1.477l1.967,1.479l2.391,-1.996l0.05,-0.038l0.051,-0.036l0.054,-0.032l0.056,-0.029l0.058,-0.025l0.059,-0.022l0.06,-0.017l0.061,-0.014l0.062,-0.011l0.063,-0.006l0.063,-0.002l0.062,0.002l0.063,0.005l0.062,0.01l0.061,0.013l0.061,0.018l0.059,0.021l0.058,0.024l0.056,0.029l0.054,0.031l0.052,0.035l0.05,0.039l0.047,0.041l0.045,0.044l0.042,0.047l0.038,0.05l0.036,0.051l0.032,0.054l0.029,0.056l0.025,0.058l0.022,0.059l0.017,0.06l0.014,0.061l0.011,0.062l0.006,0.063l0.002,0.063l-0.002,0.062l-0.005,0.063l-0.01,0.062l-0.013,0.061l-0.018,0.061l-0.021,0.059l-0.024,0.058l-0.029,0.056l-0.031,0.054l-0.035,0.052l-0.039,0.05l-0.041,0.047l-0.044,0.045l-0.047,0.042l-3.609,3.012l-2.033,-1.529l-2.032,1.523l-3.607,-3.006l-0.047,-0.041l-0.044,-0.045l-0.042,-0.047l-0.038,-0.05l-0.035,-0.052l-0.032,-0.054l-0.028,-0.056l-0.025,-0.058l-0.021,-0.059l-0.017,-0.061l-0.014,-0.061l-0.01,-0.062l-0.005,-0.063l-0.002,-0.063l0.002,-0.062l0.006,-0.063l0.01,-0.062l0.014,-0.061l0.018,-0.06l0.022,-0.059l0.025,-0.058l0.028,-0.056l0.033,-0.054l0.035,-0.052l0.039,-0.049l0.041,-0.047l0.045,-0.044l0.047,-0.042l0.05,-0.038l0.052,-0.035l0.054,-0.032l0.056,-0.028l0.058,-0.025l0.059,-0.021l0.061,-0.017l0.061,-0.014l0.062,-0.01l0.063,-0.005l0.063,-0.002l0.062,0.002Z" style="fill:#800e0e;"/>
            <path d="M16,18l-2,4l4,0l-2,-4Z" style="fill:#800e0e;"/>
            <path d="M10,8l-2.685,0c-0.848,0 -1.656,-0.359 -2.224,-0.987c-0.569,-0.628 -0.845,-1.468 -0.761,-2.312c0.139,-1.394 0.27,-2.701 0.27,-2.701c0,0 -0.96,2.953 -1.713,5.271c-0.496,1.527 0.297,3.173 1.8,3.736c2.324,0.872 5.313,1.993 5.313,1.993l0.5,0c1.381,0 2.5,-1.119 2.5,-2.5c0,-1.381 -1.119,-2.5 -2.5,-2.5c-0.299,0 -0.5,0 -0.5,0Z" style="fill:#fede30;"/>
            <path d="M22,8l2.685,0c0.848,0 1.656,-0.359 2.224,-0.987c0.569,-0.628 0.845,-1.468 0.761,-2.312c-0.139,-1.394 -0.27,-2.701 -0.27,-2.701c0,0 0.96,2.953 1.713,5.271c0.496,1.527 -0.297,3.173 -1.8,3.736c-2.324,0.872 -5.313,1.993 -5.313,1.993l-0.5,0c-1.381,0 -2.5,-1.119 -2.5,-2.5c0,-1.381 1.119,-2.5 2.5,-2.5c0.299,0 0.5,0 0.5,0Z" style="fill:#fede30;"/>
        </g>
    </g>
</svg>
