<?xml version="1.0" encoding="UTF-8" standalone="no"?>
<!DOCTYPE svg PUBLIC "-//W3C//DTD SVG 1.1//EN" "http://www.w3.org/Graphics/SVG/1.1/DTD/svg11.dtd">
<svg width="100%" height="100%" viewBox="0 0 32 32" version="1.1" xmlns="http://www.w3.org/2000/svg" xmlns:xlink="http://www.w3.org/1999/xlink" xml:space="preserve" xmlns:serif="http://www.serif.com/" style="fill-rule:evenodd;clip-rule:evenodd;stroke-linejoin:round;stroke-miterlimit:2;">
    <rect id="elf" x="0" y="0" width="32" height="32" style="fill:none;"/>
    <clipPath id="_clip1">
        <rect x="0" y="0" width="32" height="32"/>
    </clipPath>
    <g clip-path="url(#_clip1)">
        <g id="outline">
            <path d="M0,4.65l1.645,-0.833l2.947,2.946c0.569,-1.037 1.279,-1.997 2.106,-2.845c1.316,-1.347 2.923,-2.404 4.683,-3.073c0.955,-0.363 1.953,-0.612 2.966,-0.741c0.438,-0.055 0.877,-0.086 1.318,-0.1c0.067,-0.001 0.133,-0.002 0.199,-0.003c0.043,0 0.087,-0.001 0.13,-0.001c0.067,0 0.134,0.001 0.201,0.001c0.26,0.005 0.52,0.016 0.78,0.036c0.172,0.012 0.344,0.028 0.515,0.048c1.017,0.116 2.019,0.353 2.98,0.704c1.819,0.666 3.479,1.744 4.832,3.129c0.828,0.848 1.537,1.808 2.106,2.846l2.947,-2.947l1.645,0.833l0,2.503l-1.824,11.856l-0.022,0.129c-0.028,0.13 -0.033,0.163 -0.068,0.291c-0.064,0.237 -0.15,0.468 -0.257,0.69c-0.206,0.427 -0.488,0.815 -0.829,1.144l0,10.737l-0.001,0c-4.253,0 -4.797,-0.151 -7.9,-1.402c-0.625,0.371 -1.291,0.674 -1.982,0.901c-1.005,0.331 -2.062,0.5 -3.12,0.501l-0.009,0c-0.108,0 -0.216,-0.002 -0.324,-0.005c-1.015,-0.033 -2.024,-0.221 -2.983,-0.557c-0.626,-0.218 -1.229,-0.499 -1.799,-0.837l-3.497,1.399l-4.385,0c0,-3.584 -0.012,-7.169 -0.016,-10.753c-0.368,-0.359 -0.667,-0.788 -0.874,-1.261c-0.138,-0.314 -0.228,-0.641 -0.286,-0.977l-1.824,-11.856l0,-2.503Z"/>
            <path d="M16,2c-6.075,0 -11,4.925 -11,11c0,7.841 0,17 0,17l2,0l5,-2l8,0l5,2l2,0l0,-17c0,-6.075 -4.925,-11 -11,-11c0,0 0,0 0,0Z" style="fill:#805c1b;"/>
        </g>
        <g id="emoji">
            <g>
                <path d="M2.264,8.718l0.113,0.203l1.496,9.731c0,0 -0.023,0.159 -0.049,0.17c0.165,0.733 0.729,1.316 1.466,1.5c1.169,0.293 2.71,0.678 2.71,0.678l0,-8l-6,-6l0.264,1.718Z" style="fill:#fbc546;"/>
                <path d="M2.264,8.718l1.534,9.968c0.007,0.046 0.016,0.092 0.026,0.136c0.218,-0.098 0.418,-0.236 0.59,-0.408c0.375,-0.375 0.586,-0.884 0.586,-1.414l0,-5.519c-0.922,-0.911 -1.834,-1.832 -2.736,-2.763Z" style="fill:#e59a10;"/>
            </g>
            <g>
                <path d="M29.736,8.718l-0.113,0.203l-1.496,9.731c0,0 0.023,0.159 0.049,0.17c-0.165,0.733 -0.729,1.316 -1.466,1.5c-1.169,0.293 -2.71,0.678 -2.71,0.678l0,-8l6,-6l-0.264,1.718Z" style="fill:#fbc546;"/>
                <path d="M29.736,8.718l-1.534,9.968c-0.007,0.046 -0.016,0.092 -0.026,0.136c-0.218,-0.098 -0.418,-0.236 -0.59,-0.408c-0.375,-0.375 -0.586,-0.884 -0.586,-1.414l0,-5.519c0.922,-0.911 1.834,-1.832 2.736,-2.763Z" style="fill:#e59a10;"/>
            </g>
            <path d="M6,12c0,-1.591 0.632,-3.117 1.757,-4.243c1.126,-1.125 2.652,-1.757 4.243,-1.757c2.542,0 5.498,0 8.04,0c1.591,0 3.117,0.632 4.243,1.757c1.125,1.126 1.757,2.652 1.757,4.243c0,1.899 0,3.933 0,5.59c0,2.254 -0.635,4.463 -1.832,6.373c-0.456,0.728 -0.952,1.518 -1.429,2.28c-1.465,2.338 -4.03,3.757 -6.789,3.757c0,0 0,0 0,0c-2.79,0 -5.379,-1.449 -6.839,-3.826c-0.462,-0.753 -0.939,-1.53 -1.378,-2.246c-1.159,-1.888 -1.773,-4.061 -1.773,-6.277l0,-5.651Z" style="fill:#fbc546;"/>
            <path d="M6,12.5l0,-0.5c0,-5.523 4.477,-10 10,-10c0.013,0 0.027,0 0.04,0c5.523,0 10,4.477 10,10l0,0.5l-4.04,0c-1.591,0 -3.117,-0.632 -4.243,-1.757c-1.006,-1.007 -1.618,-2.335 -1.736,-3.743l-0.042,0c-0.118,1.408 -0.73,2.736 -1.736,3.743c-1.126,1.125 -2.652,1.757 -4.243,1.757l-4,0Z" style="fill:#805c1b;"/>
            <path d="M12.082,23.003c0.151,0.017 0.293,0.058 0.424,0.135c0.045,0.026 0.052,0.032 0.094,0.062c0.001,0.001 -0.005,-0.004 -0.004,-0.003c0.098,0.072 0.097,0.071 0.196,0.141c0.097,0.065 0.096,0.065 0.195,0.128c0.424,0.261 0.874,0.472 1.35,0.618c1.188,0.365 2.484,0.326 3.648,-0.109c0.359,-0.134 0.704,-0.305 1.028,-0.509c0.134,-0.084 0.263,-0.175 0.39,-0.269c0.002,-0.001 -0.005,0.004 -0.003,0.003c0.015,-0.01 0.03,-0.021 0.045,-0.032c0.048,-0.03 0.047,-0.03 0.097,-0.057c0.188,-0.09 0.391,-0.131 0.599,-0.101c0.111,0.016 0.219,0.05 0.319,0.102c0.32,0.166 0.53,0.501 0.54,0.861c0.002,0.093 -0.009,0.187 -0.032,0.278c-0.033,0.127 -0.091,0.247 -0.17,0.351c-0.09,0.12 -0.206,0.206 -0.327,0.293c-0.086,0.061 -0.172,0.121 -0.261,0.179c-0.434,0.286 -0.898,0.527 -1.381,0.719c-0.851,0.338 -1.762,0.521 -2.677,0.539c-0.966,0.019 -1.933,-0.145 -2.837,-0.484c-0.486,-0.181 -0.953,-0.413 -1.392,-0.689c-0.178,-0.111 -0.349,-0.231 -0.518,-0.356c-0.017,-0.012 -0.033,-0.025 -0.049,-0.038c-0.113,-0.1 -0.206,-0.216 -0.268,-0.355c-0.038,-0.085 -0.065,-0.176 -0.078,-0.268c-0.054,-0.377 0.117,-0.761 0.433,-0.972c0.142,-0.096 0.302,-0.147 0.471,-0.166c0.057,-0.004 0.111,-0.004 0.168,-0.001Zm6.932,-2.646l-1.478,0.888l-0.082,0.047c-0.241,0.128 -0.492,0.23 -0.758,0.294c-0.555,0.132 -1.144,0.103 -1.683,-0.085c-0.192,-0.067 -0.373,-0.155 -0.549,-0.256l-1.478,-0.888l1.028,-1.714c0.501,0.3 0.996,0.608 1.502,0.899c0.23,0.123 0.496,0.159 0.749,0.09c0.091,-0.025 0.175,-0.064 0.257,-0.111l1.464,-0.878c0.343,0.571 0.685,1.143 1.028,1.714Z" style="fill:#e1853e;"/>
            <path d="M19,15c0,-0.552 0.448,-1 1,-1c0.509,0 1.105,0 1.513,0c0.323,0 0.643,0.052 0.949,0.154c0.171,0.057 0.378,0.126 0.598,0.199c0.363,0.121 0.625,0.438 0.675,0.816c0.051,0.379 -0.118,0.753 -0.436,0.965c-0.19,0.126 -0.375,0.25 -0.543,0.362c-0.493,0.329 -1.072,0.504 -1.664,0.504l-1.092,0c-0.552,0 -1,-0.448 -1,-1c0,-0.322 0,-0.678 0,-1Zm-6,0c0,-0.552 -0.448,-1 -1,-1c-0.509,0 -1.105,0 -1.513,0c-0.323,0 -0.643,0.052 -0.949,0.154c-0.171,0.057 -0.378,0.126 -0.598,0.199c-0.363,0.121 -0.625,0.438 -0.675,0.816c-0.051,0.379 0.118,0.753 0.436,0.965c0.19,0.126 0.375,0.25 0.543,0.362c0.493,0.329 1.072,0.504 1.664,0.504l1.092,0c0.552,0 1,-0.448 1,-1c0,-0.322 0,-0.678 0,-1Z"/>
        </g>
    </g>
</svg>
