<?xml version="1.0" encoding="UTF-8" standalone="no"?>
<!DOCTYPE svg PUBLIC "-//W3C//DTD SVG 1.1//EN" "http://www.w3.org/Graphics/SVG/1.1/DTD/svg11.dtd">
<svg width="100%" height="100%" viewBox="0 0 32 32" version="1.1" xmlns="http://www.w3.org/2000/svg" xmlns:xlink="http://www.w3.org/1999/xlink" xml:space="preserve" xmlns:serif="http://www.serif.com/" style="fill-rule:evenodd;clip-rule:evenodd;stroke-linecap:round;stroke-linejoin:round;stroke-miterlimit:1.5;">
    <rect id="fish_person" x="0" y="0" width="32" height="32" style="fill:none;"/>
    <clipPath id="_clip1">
        <rect x="0" y="0" width="32" height="32"/>
    </clipPath>
    <g clip-path="url(#_clip1)">
        <g id="outline">
            <path d="M6,12c0,-5.523 4.477,-10 10,-10l0.04,0c5.523,0 10,4.477 10,10l0,2.145c0,1.903 -0.453,3.778 -1.32,5.472c-0.677,1.321 -1.517,2.959 -2.273,4.436c-1.242,2.423 -3.735,3.947 -6.458,3.947c0,0 0,0 -0.001,0c-2.751,0 -5.267,-1.552 -6.501,-4.011c-0.739,-1.474 -1.556,-3.1 -2.212,-4.409c-0.839,-1.67 -1.275,-3.513 -1.275,-5.382c0,-0.665 0,-1.411 0,-2.198Z" style="fill:none;stroke:#000;stroke-width:4px;"/>
            <path d="M15,2c-7.18,0 -13,5.82 -13,13c0,1.213 0,2 0,2l5,-2l5,-2l8,0l10,4l0,-2c0,-7.18 -5.82,-13 -13,-13c-0.666,0 -1.334,0 -2,0Z" style="fill:#30c99e;"/>
            <clipPath id="_clip2">
                <path d="M15,2c-7.18,0 -13,5.82 -13,13c0,1.213 0,2 0,2l5,-2l5,-2l8,0l10,4l0,-2c0,-7.18 -5.82,-13 -13,-13c-0.666,0 -1.334,0 -2,0Z"/>
            </clipPath>
            <g clip-path="url(#_clip2)">
                <path d="M23,15c0,0 -2.386,-4.771 -3.472,-6.944c-0.347,-0.695 -0.528,-1.46 -0.528,-2.236c0,-1.996 0,-5.82 0,-5.82" style="fill:none;stroke:#219781;stroke-width:4px;stroke-linecap:butt;stroke-linejoin:miter;stroke-miterlimit:3;"/>
                <path d="M9,15c0,0 2.386,-4.771 3.472,-6.944c0.347,-0.695 0.528,-1.46 0.528,-2.236c0,-1.996 0,-5.82 0,-5.82" style="fill:none;stroke:#219781;stroke-width:4px;stroke-linecap:butt;stroke-linejoin:miter;stroke-miterlimit:3;"/>
            </g>
            <path d="M17.193,0.001l0.193,0.004l0.192,0.006l0.192,0.008l0.191,0.011l0.191,0.014l0.19,0.015l0.189,0.018l0.189,0.021l0.188,0.022l0.187,0.025l0.187,0.028l0.186,0.029l0.185,0.032l0.184,0.034l0.184,0.037l0.183,0.038l0.182,0.041l0.181,0.043l0.18,0.045l0.18,0.048l0.178,0.049l0.178,0.052l0.177,0.054l0.176,0.056l0.175,0.058l0.173,0.06l0.174,0.062l0.171,0.064l0.171,0.066l0.17,0.068l0.169,0.071l0.168,0.072l0.167,0.074l0.166,0.076l0.164,0.078l0.164,0.08l0.162,0.082l0.161,0.084l0.16,0.086l0.159,0.087l0.158,0.09l0.156,0.091l0.156,0.093l0.153,0.095l0.153,0.096l0.152,0.099l0.15,0.1l0.149,0.102l0.148,0.104l0.146,0.105l0.145,0.107l0.144,0.109l0.142,0.11l0.141,0.112l0.139,0.114l0.138,0.115l0.137,0.117l0.135,0.119l0.134,0.12l0.132,0.122l0.131,0.123l0.13,0.125l0.128,0.126l0.126,0.128l0.125,0.13l0.123,0.131l0.122,0.132l0.12,0.134l0.119,0.135l0.117,0.137l0.115,0.138l0.114,0.139l0.112,0.141l0.11,0.142l0.109,0.144l0.107,0.145l0.105,0.146l0.104,0.148l0.102,0.149l0.1,0.15l0.099,0.152l0.096,0.153l0.095,0.153l0.093,0.156l0.092,0.156l0.089,0.158l0.087,0.159l0.086,0.16l0.084,0.161l0.082,0.162l0.08,0.164l0.078,0.164l0.076,0.166l0.074,0.167l0.072,0.168l0.071,0.169l0.068,0.17l0.066,0.171l0.064,0.171l0.062,0.173l0.06,0.174l0.058,0.175l0.056,0.176l0.054,0.177l0.052,0.178l0.049,0.178l0.048,0.18l0.045,0.18l0.043,0.181l0.041,0.182l0.038,0.183l0.037,0.184l0.034,0.184l0.032,0.185l0.029,0.186l0.028,0.187l0.025,0.187l0.022,0.188l0.021,0.189l0.018,0.189l0.015,0.19l0.014,0.191l0.011,0.191l0.008,0.191l0.006,0.193l0.004,0.193l0.001,0.187l0,4.275l-0.636,0.431l-7.107,-2.843l-4.642,-1.857l-7.23,0l-4.642,1.857l-7.107,2.843l-0.636,-0.431l0,-4.275l0.001,-0.187l0.004,-0.193l0.006,-0.193l0.008,-0.191l0.011,-0.191l0.014,-0.191l0.015,-0.19l0.018,-0.189l0.021,-0.189l0.022,-0.188l0.025,-0.187l0.028,-0.187l0.029,-0.186l0.032,-0.185l0.034,-0.184l0.037,-0.184l0.038,-0.183l0.041,-0.182l0.043,-0.181l0.045,-0.18l0.048,-0.18l0.049,-0.178l0.052,-0.178l0.054,-0.177l0.056,-0.176l0.058,-0.175l0.06,-0.174l0.062,-0.172l0.064,-0.173l0.066,-0.171l0.068,-0.169l0.071,-0.169l0.072,-0.168l0.074,-0.167l0.076,-0.165l0.078,-0.165l0.08,-0.164l0.082,-0.162l0.084,-0.161l0.085,-0.16l0.088,-0.159l0.09,-0.158l0.091,-0.156l0.093,-0.155l0.095,-0.155l0.096,-0.152l0.099,-0.152l0.1,-0.15l0.102,-0.149l0.104,-0.148l0.105,-0.146l0.107,-0.145l0.109,-0.143l0.11,-0.143l0.112,-0.141l0.114,-0.139l0.115,-0.138l0.117,-0.137l0.119,-0.135l0.12,-0.134l0.122,-0.132l0.123,-0.131l0.125,-0.13l0.126,-0.128l0.128,-0.126l0.13,-0.125l0.131,-0.123l0.132,-0.122l0.134,-0.12l0.135,-0.119l0.137,-0.117l0.138,-0.115l0.139,-0.114l0.141,-0.112l0.142,-0.11l0.144,-0.109l0.145,-0.107l0.146,-0.105l0.148,-0.104l0.149,-0.102l0.15,-0.1l0.152,-0.099l0.152,-0.096l0.155,-0.095l0.155,-0.093l0.156,-0.091l0.158,-0.09l0.159,-0.087l0.16,-0.086l0.161,-0.084l0.162,-0.082l0.164,-0.08l0.164,-0.078l0.166,-0.076l0.167,-0.074l0.168,-0.072l0.169,-0.071l0.17,-0.068l0.171,-0.066l0.171,-0.064l0.173,-0.062l0.174,-0.06l0.175,-0.058l0.176,-0.056l0.177,-0.054l0.178,-0.052l0.178,-0.049l0.18,-0.048l0.18,-0.045l0.181,-0.043l0.182,-0.041l0.183,-0.038l0.184,-0.037l0.184,-0.034l0.185,-0.032l0.186,-0.029l0.187,-0.028l0.187,-0.025l0.188,-0.022l0.189,-0.021l0.189,-0.018l0.19,-0.015l0.191,-0.014l0.191,-0.011l0.192,-0.008l0.192,-0.006l0.193,-0.004l0.187,-0.001l2.012,0l0.187,0.001Zm-2.193,1.999l-0.168,0.001l-0.168,0.003l-0.167,0.006l-0.166,0.007l-0.166,0.009l-0.165,0.012l-0.165,0.013l-0.164,0.016l-0.164,0.018l-0.163,0.019l-0.162,0.022l-0.162,0.024l-0.161,0.025l-0.16,0.028l-0.16,0.03l-0.159,0.031l-0.158,0.034l-0.158,0.035l-0.157,0.037l-0.156,0.039l-0.155,0.041l-0.155,0.043l-0.154,0.045l-0.153,0.046l-0.152,0.049l-0.151,0.05l-0.151,0.052l-0.15,0.054l-0.149,0.055l-0.148,0.058l-0.147,0.059l-0.146,0.061l-0.146,0.062l-0.144,0.064l-0.143,0.066l-0.143,0.068l-0.142,0.069l-0.14,0.071l-0.14,0.073l-0.139,0.074l-0.137,0.076l-0.137,0.077l-0.135,0.079l-0.135,0.081l-0.133,0.082l-0.133,0.084l-0.131,0.085l-0.13,0.087l-0.13,0.089l-0.128,0.089l-0.126,0.092l-0.126,0.093l-0.125,0.094l-0.123,0.096l-0.122,0.097l-0.121,0.099l-0.12,0.1l-0.119,0.101l-0.117,0.103l-0.116,0.104l-0.115,0.106l-0.113,0.107l-0.112,0.108l-0.111,0.11l-0.11,0.111l-0.108,0.112l-0.107,0.113l-0.106,0.115l-0.104,0.116l-0.103,0.117l-0.101,0.119l-0.1,0.12l-0.099,0.121l-0.097,0.122l-0.096,0.123l-0.094,0.125l-0.093,0.126l-0.092,0.126l-0.089,0.128l-0.089,0.13l-0.087,0.13l-0.085,0.131l-0.084,0.133l-0.082,0.133l-0.081,0.135l-0.079,0.135l-0.077,0.137l-0.076,0.137l-0.074,0.139l-0.073,0.14l-0.071,0.14l-0.069,0.142l-0.068,0.143l-0.066,0.143l-0.064,0.144l-0.062,0.146l-0.061,0.146l-0.059,0.147l-0.058,0.148l-0.055,0.149l-0.054,0.15l-0.052,0.151l-0.05,0.151l-0.049,0.152l-0.046,0.153l-0.045,0.154l-0.043,0.155l-0.041,0.155l-0.039,0.156l-0.037,0.157l-0.035,0.158l-0.034,0.158l-0.031,0.159l-0.03,0.16l-0.028,0.16l-0.025,0.161l-0.024,0.162l-0.022,0.162l-0.019,0.163l-0.018,0.164l-0.016,0.164l-0.013,0.165l-0.012,0.165l-0.009,0.166l-0.007,0.166l-0.006,0.167l-0.003,0.168l-0.001,0.168l0,2l10,-4l8,0l10,4l0,-2l-0.001,-0.168l-0.003,-0.168l-0.006,-0.167l-0.007,-0.166l-0.009,-0.166l-0.012,-0.165l-0.013,-0.165l-0.016,-0.164l-0.018,-0.164l-0.019,-0.163l-0.022,-0.162l-0.024,-0.162l-0.025,-0.161l-0.028,-0.16l-0.03,-0.16l-0.031,-0.159l-0.034,-0.158l-0.035,-0.158l-0.037,-0.157l-0.039,-0.156l-0.041,-0.155l-0.043,-0.155l-0.045,-0.154l-0.046,-0.153l-0.049,-0.152l-0.05,-0.151l-0.052,-0.151l-0.054,-0.15l-0.055,-0.149l-0.058,-0.148l-0.059,-0.147l-0.061,-0.146l-0.062,-0.146l-0.064,-0.144l-0.066,-0.143l-0.068,-0.143l-0.069,-0.142l-0.071,-0.14l-0.073,-0.14l-0.074,-0.139l-0.076,-0.137l-0.077,-0.137l-0.079,-0.135l-0.081,-0.135l-0.082,-0.133l-0.084,-0.133l-0.085,-0.131l-0.087,-0.13l-0.089,-0.13l-0.089,-0.128l-0.092,-0.126l-0.093,-0.126l-0.094,-0.125l-0.096,-0.123l-0.097,-0.122l-0.099,-0.121l-0.1,-0.12l-0.101,-0.119l-0.103,-0.117l-0.104,-0.116l-0.106,-0.115l-0.107,-0.113l-0.108,-0.112l-0.11,-0.111l-0.111,-0.11l-0.112,-0.108l-0.113,-0.107l-0.115,-0.106l-0.116,-0.104l-0.117,-0.103l-0.119,-0.101l-0.12,-0.1l-0.121,-0.099l-0.122,-0.097l-0.123,-0.096l-0.125,-0.094l-0.126,-0.093l-0.126,-0.092l-0.128,-0.089l-0.13,-0.089l-0.13,-0.087l-0.131,-0.085l-0.133,-0.084l-0.133,-0.082l-0.135,-0.081l-0.135,-0.079l-0.137,-0.077l-0.137,-0.076l-0.139,-0.074l-0.14,-0.073l-0.14,-0.071l-0.142,-0.069l-0.143,-0.068l-0.143,-0.066l-0.144,-0.064l-0.146,-0.062l-0.146,-0.061l-0.147,-0.059l-0.148,-0.058l-0.149,-0.055l-0.15,-0.054l-0.151,-0.052l-0.151,-0.05l-0.152,-0.049l-0.153,-0.046l-0.154,-0.045l-0.155,-0.043l-0.155,-0.041l-0.156,-0.039l-0.157,-0.037l-0.158,-0.035l-0.158,-0.034l-0.159,-0.031l-0.16,-0.03l-0.16,-0.028l-0.161,-0.025l-0.162,-0.024l-0.162,-0.022l-0.163,-0.019l-0.164,-0.018l-0.164,-0.016l-0.165,-0.013l-0.165,-0.012l-0.166,-0.009l-0.166,-0.007l-0.167,-0.006l-0.168,-0.003l-0.168,-0.001l-2,0Z"/>
            <path d="M8,21l0,7l-1,2l18,0l-1,-2l0,-7l-16,0Z" style="fill:none;stroke:#000;stroke-width:4px;stroke-linecap:butt;stroke-linejoin:miter;stroke-miterlimit:3;"/>
            <path d="M23,20l3,2c0,0 -0.994,0.994 -1.58,1.58c-0.111,0.111 -0.174,0.262 -0.174,0.42c0,0.158 0.063,0.309 0.174,0.42c0.586,0.586 1.58,1.58 1.58,1.58c0,0 -0.994,0.994 -1.58,1.58c-0.111,0.111 -0.174,0.262 -0.174,0.42c0,0.158 0.063,0.309 0.174,0.42c0.586,0.586 1.58,1.58 1.58,1.58l-3,0l-1,-2l0,-8l1,0Z" style="fill:none;stroke:#000;stroke-width:4px;stroke-linecap:butt;stroke-miterlimit:3;"/>
            <path d="M9,20l-3,2c0,0 0.994,0.994 1.58,1.58c0.111,0.111 0.174,0.262 0.174,0.42c0,0.158 -0.063,0.309 -0.174,0.42c-0.586,0.586 -1.58,1.58 -1.58,1.58c0,0 0.994,0.994 1.58,1.58c0.111,0.111 0.174,0.262 0.174,0.42c0,0.158 -0.063,0.309 -0.174,0.42c-0.586,0.586 -1.58,1.58 -1.58,1.58l3,0l1,-2l0,-8l-1,0Z" style="fill:none;stroke:#000;stroke-width:4px;stroke-linecap:butt;stroke-miterlimit:3;"/>
        </g>
        <g id="emoji">
            <path d="M8,21l0,7l-1,2l18,0l-1,-2l0,-7l-16,0Z" style="fill:#219781;"/>
            <path d="M23,20l3,2c0,0 -0.994,0.994 -1.58,1.58c-0.111,0.111 -0.174,0.262 -0.174,0.42c0,0.158 0.063,0.309 0.174,0.42c0.586,0.586 1.58,1.58 1.58,1.58c0,0 -0.994,0.994 -1.58,1.58c-0.111,0.111 -0.174,0.262 -0.174,0.42c0,0.158 0.063,0.309 0.174,0.42c0.586,0.586 1.58,1.58 1.58,1.58l-3,0l-1,-2l0,-8l1,0Z" style="fill:#a94451;"/>
            <clipPath id="_clip3">
                <path d="M23,20l3,2c0,0 -0.994,0.994 -1.58,1.58c-0.111,0.111 -0.174,0.262 -0.174,0.42c0,0.158 0.063,0.309 0.174,0.42c0.586,0.586 1.58,1.58 1.58,1.58c0,0 -0.994,0.994 -1.58,1.58c-0.111,0.111 -0.174,0.262 -0.174,0.42c0,0.158 0.063,0.309 0.174,0.42c0.586,0.586 1.58,1.58 1.58,1.58l-3,0l-1,-2l0,-8l1,0Z"/>
            </clipPath>
            <g clip-path="url(#_clip3)">
                <path d="M26,25l-4,-4" style="fill:none;stroke:#9c2028;stroke-width:1px;stroke-linecap:butt;stroke-linejoin:miter;stroke-miterlimit:3;"/>
                <path d="M26,29l-5,-5" style="fill:none;stroke:#9c2028;stroke-width:1px;stroke-linecap:butt;stroke-linejoin:miter;stroke-miterlimit:3;"/>
            </g>
            <path d="M9,20l-3,2c0,0 0.994,0.994 1.58,1.58c0.111,0.111 0.174,0.262 0.174,0.42c0,0.158 -0.063,0.309 -0.174,0.42c-0.586,0.586 -1.58,1.58 -1.58,1.58c0,0 0.994,0.994 1.58,1.58c0.111,0.111 0.174,0.262 0.174,0.42c0,0.158 -0.063,0.309 -0.174,0.42c-0.586,0.586 -1.58,1.58 -1.58,1.58l3,0l1,-2l0,-8l-1,0Z" style="fill:#a94451;"/>
            <clipPath id="_clip4">
                <path d="M9,20l-3,2c0,0 0.994,0.994 1.58,1.58c0.111,0.111 0.174,0.262 0.174,0.42c0,0.158 -0.063,0.309 -0.174,0.42c-0.586,0.586 -1.58,1.58 -1.58,1.58c0,0 0.994,0.994 1.58,1.58c0.111,0.111 0.174,0.262 0.174,0.42c0,0.158 -0.063,0.309 -0.174,0.42c-0.586,0.586 -1.58,1.58 -1.58,1.58l3,0l1,-2l0,-8l-1,0Z"/>
            </clipPath>
            <g clip-path="url(#_clip4)">
                <path d="M6,25l4,-4" style="fill:none;stroke:#9c2028;stroke-width:1px;stroke-linecap:butt;stroke-linejoin:miter;stroke-miterlimit:3;"/>
                <path d="M6,29l5,-5" style="fill:none;stroke:#9c2028;stroke-width:1px;stroke-linecap:butt;stroke-linejoin:miter;stroke-miterlimit:3;"/>
            </g>
            <path d="M6,14c0,-2.209 1.791,-4 4,-4c3.496,0 8.544,0 12.04,0c2.209,0 4,1.791 4,4c0,0.048 0,0.097 0,0.145c0,1.903 -0.453,3.778 -1.32,5.472c-0.677,1.321 -1.517,2.959 -2.273,4.436c-1.242,2.423 -3.735,3.947 -6.458,3.947c0,0 0,0 -0.001,0c-2.751,0 -5.267,-1.552 -6.501,-4.011c-0.739,-1.474 -1.556,-3.1 -2.212,-4.409c-0.839,-1.67 -1.275,-3.513 -1.275,-5.382c0,-0.066 0,-0.132 0,-0.198Z" style="fill:#30c99e;"/>
            <path d="M12,22c0,0 0,0 0,0c2.371,1.778 5.629,1.778 8,0c0,0 0,0 0,0" style="fill:none;stroke:#219781;stroke-width:2px;stroke-linejoin:miter;"/>
            <path d="M19,12.878c0,-1.037 0.841,-1.878 1.878,-1.878c0.001,0 0.001,0 0.002,0c0.717,0 1.405,0.285 1.912,0.792c0.165,0.165 0.339,0.339 0.501,0.501c0.39,0.39 0.39,1.024 0,1.414c-0.162,0.162 -0.336,0.336 -0.501,0.501c-0.507,0.507 -1.195,0.792 -1.912,0.792c-0.001,0 -0.001,0 -0.002,0c-1.037,0 -1.878,-0.841 -1.878,-1.878c0,-0.081 0,-0.163 0,-0.244Z"/>
            <path d="M13,12.878c0,-1.037 -0.841,-1.878 -1.878,-1.878c-0.001,0 -0.001,0 -0.002,0c-0.717,0 -1.405,0.285 -1.912,0.792c-0.165,0.165 -0.339,0.339 -0.501,0.501c-0.39,0.39 -0.39,1.024 0,1.414c0.162,0.162 0.336,0.336 0.501,0.501c0.507,0.507 1.195,0.792 1.912,0.792c0.001,0 0.001,0 0.002,0c1.037,0 1.878,-0.841 1.878,-1.878c0,-0.081 0,-0.163 0,-0.244Z"/>
            <path d="M14,19c0,0 0.428,-0.855 0.724,-1.447c0.169,-0.339 0.515,-0.553 0.894,-0.553c0.243,0 0.521,0 0.764,0c0.379,0 0.725,0.214 0.894,0.553c0.296,0.592 0.724,1.447 0.724,1.447l-4,0Z" style="fill:#219781;"/>
        </g>
    </g>
</svg>
