<?xml version="1.0" encoding="UTF-8" standalone="no"?>
<!DOCTYPE svg PUBLIC "-//W3C//DTD SVG 1.1//EN" "http://www.w3.org/Graphics/SVG/1.1/DTD/svg11.dtd">
<svg width="100%" height="100%" viewBox="0 0 32 32" version="1.1" xmlns="http://www.w3.org/2000/svg" xmlns:xlink="http://www.w3.org/1999/xlink" xml:space="preserve" xmlns:serif="http://www.serif.com/" style="fill-rule:evenodd;clip-rule:evenodd;">
    <rect id="half_demon" x="0" y="0" width="32" height="32" style="fill:none;"/>
    <clipPath id="_clip1">
        <rect x="0" y="0" width="32" height="32"/>
    </clipPath>
    <g clip-path="url(#_clip1)">
        <g id="outline">
            <path d="M16,7c-4.971,0 -9,4.029 -9,9c0,1.502 0,2.92 0,4c0,1.298 0.421,2.561 1.2,3.6c1.151,1.534 2.862,3.816 3.9,5.2c0.567,0.755 1.456,1.2 2.4,1.2c0.916,0 2.084,0 3,0c0.944,0 1.833,-0.445 2.4,-1.2c1.038,-1.384 2.749,-3.666 3.9,-5.2c0.779,-1.039 1.2,-2.302 1.2,-3.6c0,-1.08 0,-2.498 0,-4c0,-4.971 -4.029,-9 -9,-9c0,0 0,0 0,0Z" style="fill:none;stroke:#000;stroke-width:4px;"/>
            <path d="M9,9l3,-6l2,2l2,-2l2,2l2,-2l3,6l0,4l-14,0l0,-4Z" style="fill:none;stroke:#000;stroke-width:4px;"/>
            <path d="M12.702,9.351c0.796,0.398 1.298,1.211 1.298,2.1l0,0.202c0,1.296 -1.051,2.347 -2.347,2.347c-0.034,0 -0.068,0 -0.102,0c-3.066,0 -5.551,-2.485 -5.551,-5.551c0,-0.648 0,-1.264 0,-1.792c0,-1.061 0.421,-2.078 1.172,-2.829c0.436,-0.436 0.828,-0.828 0.828,-0.828l0,1.528c0,1.515 0.856,2.9 2.211,3.578c0.838,0.419 1.764,0.882 2.491,1.245Z" style="fill:none;stroke:#000;stroke-width:4px;"/>
            <path d="M19.298,9.351c-0.796,0.398 -1.298,1.211 -1.298,2.1l0,0.202c0,1.296 1.051,2.347 2.347,2.347c0.034,0 0.068,0 0.102,0c3.066,0 5.551,-2.485 5.551,-5.551c0,-0.648 0,-1.264 0,-1.792c0,-1.061 -0.421,-2.078 -1.172,-2.829c-0.436,-0.436 -0.828,-0.828 -0.828,-0.828l0,1.528c0,1.515 -0.856,2.9 -2.211,3.578c-0.838,0.419 -1.764,0.882 -2.491,1.245Z" style="fill:none;stroke:#000;stroke-width:4px;"/>
            <path d="M29,10.709l0,8.304l-0.001,0.089l-0.004,0.103l-0.006,0.101l-0.009,0.1l-0.012,0.101l-0.014,0.1l-0.016,0.099l-0.019,0.098l-0.021,0.097l-0.024,0.097l-0.026,0.096l-0.028,0.095l-0.031,0.094l-0.032,0.093l-0.035,0.091l-0.037,0.09l-0.039,0.09l-0.041,0.089l-0.044,0.087l-0.045,0.085l-0.047,0.084l-0.049,0.084l-0.051,0.081l-0.053,0.081l-0.055,0.079l-0.056,0.077l-0.059,0.076l-0.06,0.075l-0.062,0.073l-0.063,0.072l-0.066,0.07l-0.066,0.068l-0.069,0.067l-0.07,0.066l-0.071,0.063l-0.074,0.062l-0.074,0.06l-0.076,0.058l-0.079,0.057l-0.078,0.055l-0.08,0.053l-0.083,0.051l-0.082,0.049l-0.085,0.047l-0.085,0.045l-0.088,0.044l-0.088,0.041l-0.089,0.039l-0.091,0.037l-0.092,0.035l-0.092,0.033l-0.094,0.03l-0.095,0.028l-0.096,0.026l-0.097,0.024l-0.097,0.021l-0.098,0.019l-0.099,0.016l-0.1,0.014l-0.1,0.012l-0.101,0.009l-0.102,0.006l-0.102,0.004l-0.089,0.001l-4.013,0l0,-9.236l7.154,-3.577l0.846,0.522Zm-4,5.527l0,2.751c0,0 0,-2.751 0,-2.751l0,0Z"/>
            <path d="M11,13.764l0,9.236l-4.013,0l-0.089,-0.001l-0.102,-0.004l-0.102,-0.006l-0.101,-0.009l-0.1,-0.012l-0.1,-0.014l-0.099,-0.016l-0.098,-0.019l-0.098,-0.021l-0.096,-0.024l-0.096,-0.026l-0.095,-0.028l-0.093,-0.03l-0.093,-0.033l-0.092,-0.035l-0.091,-0.037l-0.089,-0.039l-0.088,-0.041l-0.087,-0.044l-0.086,-0.045l-0.085,-0.047l-0.083,-0.049l-0.081,-0.051l-0.081,-0.053l-0.079,-0.055l-0.077,-0.057l-0.077,-0.058l-0.074,-0.06l-0.073,-0.062l-0.072,-0.063l-0.07,-0.066l-0.069,-0.067l-0.066,-0.068l-0.065,-0.07l-0.064,-0.071l-0.062,-0.074l-0.06,-0.074l-0.059,-0.077l-0.056,-0.077l-0.055,-0.079l-0.053,-0.08l-0.051,-0.082l-0.049,-0.084l-0.047,-0.084l-0.045,-0.086l-0.044,-0.087l-0.041,-0.088l-0.039,-0.089l-0.037,-0.091l-0.035,-0.092l-0.033,-0.093l-0.03,-0.093l-0.028,-0.095l-0.026,-0.096l-0.024,-0.096l-0.021,-0.098l-0.019,-0.099l-0.016,-0.098l-0.014,-0.1l-0.012,-0.1l-0.009,-0.101l-0.006,-0.102l-0.004,-0.102l-0.001,-0.089l0,-8.304l0.846,-0.522l7.154,3.577Zm-4,5.223c0,0 0,-2.751 0,-2.751c0,0 0,2.751 0,2.751Z"/>
        </g>
        <g id="emoji">
            <path d="M16,7c-4.971,0 -9,4.029 -9,9c0,1.502 0,2.92 0,4c0,1.298 0.421,2.561 1.2,3.6c1.151,1.534 2.862,3.816 3.9,5.2c0.567,0.755 1.456,1.2 2.4,1.2c0.916,0 2.084,0 3,0c0.944,0 1.833,-0.445 2.4,-1.2c1.038,-1.384 2.749,-3.666 3.9,-5.2c0.779,-1.039 1.2,-2.302 1.2,-3.6c0,-1.08 0,-2.498 0,-4c0,-4.971 -4.029,-9 -9,-9c0,0 0,0 0,0Z" style="fill:#e02e34;"/>
            <path d="M9,9l3,-6l2,2l2,-2l2,2l2,-2l3,6l0,2l-7,2l-7,-2l0,-2Z" style="fill:#402126;"/>
            <path d="M12.723,9.361c0.782,0.392 1.277,1.192 1.277,2.067c0,0.086 0,0.173 0,0.261c0,0.613 -0.243,1.201 -0.677,1.634c-0.433,0.434 -1.021,0.677 -1.634,0.677c-0.045,0 -0.091,0 -0.138,0c-3.066,0 -5.551,-2.485 -5.551,-5.551c0,-0.648 0,-1.264 0,-1.792c0,-1.061 0.421,-2.078 1.172,-2.829c0.436,-0.436 0.828,-0.828 0.828,-0.828l0,1.528c0,1.515 0.856,2.9 2.211,3.578c0.846,0.422 1.782,0.89 2.512,1.255Z" style="fill:#81192b;"/>
            <path d="M19.277,9.361c-0.782,0.392 -1.277,1.192 -1.277,2.067c0,0.086 0,0.173 0,0.261c0,0.613 0.243,1.201 0.677,1.634c0.433,0.434 1.021,0.677 1.634,0.677c0.045,0 0.091,0 0.138,0c3.066,0 5.551,-2.485 5.551,-5.551c0,-0.648 0,-1.264 0,-1.792c0,-1.061 -0.421,-2.078 -1.172,-2.829c-0.436,-0.436 -0.828,-0.828 -0.828,-0.828l0,1.528c0,1.515 -0.856,2.9 -2.211,3.578c-0.846,0.422 -1.782,0.89 -2.512,1.255Z" style="fill:#81192b;"/>
            <path d="M18.999,16c-0.265,0 -0.519,0.105 -0.706,0.293c-0.188,0.187 -0.293,0.441 -0.293,0.706c0,0.001 0,0.001 0,0.001c0,0 2.48,1.653 2.93,1.953c0.046,0.031 0.099,0.047 0.154,0.047c0.001,0 0.001,0 0.002,0c1.057,0 1.914,-0.857 1.914,-1.914c0,-0.589 0,-1.086 0,-1.086l-4.001,0Z"/>
            <path d="M13,16c0.552,0 1,0.448 1,1c0,0 0,0 0,0c0,0 -2.48,1.653 -2.93,1.953c-0.046,0.031 -0.099,0.047 -0.154,0.047c-0.001,0 -0.001,0 -0.002,0c-1.057,0 -1.914,-0.857 -1.914,-1.914c0,-0.589 0,-1.086 0,-1.086l4,0Z"/>
            <path d="M14,21l2,1l2,-1" style="fill:none;stroke:#800e0e;stroke-width:2px;"/>
            <path d="M12,25c0,0 1.275,0.637 1.789,0.894c0.139,0.07 0.292,0.106 0.447,0.106c0.71,0 2.818,0 3.528,0c0.155,0 0.308,-0.036 0.447,-0.106c0.514,-0.257 1.789,-0.894 1.789,-0.894" style="fill:none;stroke:#800e0e;stroke-width:2px;"/>
            <path d="M23,15l4,-2l0,6c0,1.105 -0.895,2 -2,2c-1,0 -2,0 -2,0l0,-6Z" style="fill:#e02e34;"/>
            <clipPath id="_clip2">
                <path d="M23,15l4,-2l0,6c0,1.105 -0.895,2 -2,2c-1,0 -2,0 -2,0l0,-6Z"/>
            </clipPath>
            <g clip-path="url(#_clip2)">
                <path d="M29,21l-4,2l0,-6c0,-1.105 0.895,-2 2,-2c1,0 2,0 2,0l0,6Z" style="fill:#9c1b31;"/>
            </g>
            <path d="M9,15l-4,-2l0,6c0,1.105 0.895,2 2,2c1,0 2,0 2,0l0,-6Z" style="fill:#e02e34;"/>
            <clipPath id="_clip3">
                <path d="M9,15l-4,-2l0,6c0,1.105 0.895,2 2,2c1,0 2,0 2,0l0,-6Z"/>
            </clipPath>
            <g clip-path="url(#_clip3)">
                <path d="M3,21l4,2l0,-6c0,-1.105 -0.895,-2 -2,-2c-1,0 -2,0 -2,0l0,6Z" style="fill:#9c1b31;"/>
            </g>
        </g>
    </g>
</svg>
