<?xml version="1.0" encoding="UTF-8" standalone="no"?>
<!DOCTYPE svg PUBLIC "-//W3C//DTD SVG 1.1//EN" "http://www.w3.org/Graphics/SVG/1.1/DTD/svg11.dtd">
<svg width="100%" height="100%" viewBox="0 0 32 32" version="1.1" xmlns="http://www.w3.org/2000/svg" xmlns:xlink="http://www.w3.org/1999/xlink" xml:space="preserve" xmlns:serif="http://www.serif.com/" style="fill-rule:evenodd;clip-rule:evenodd;stroke-miterlimit:1.5;">
    <rect id="kobold" x="0" y="0" width="32" height="32" style="fill:none;"/>
    <g id="outline">
        <path d="M22.63,6.267l0.819,-1.636l5.382,-3.589c0.39,0.209 0.779,0.417 1.169,0.626c0,3.889 -0.05,5.966 -0.373,7.884c0.031,0.093 0.061,0.187 0.092,0.28l0.037,0.118c0.038,0.138 0.073,0.274 0.098,0.415c0.042,0.232 0.064,0.467 0.065,0.703c0.001,0.285 -0.033,0.564 -0.088,0.843c-0.257,1.112 -0.551,2.214 -0.827,3.321c-0.002,0.005 -0.004,0.015 -0.004,0.015c-0.024,1.618 0.028,3.237 -0.002,4.856c-0.004,0.115 -0.009,0.23 -0.017,0.346c-0.055,0.685 -0.202,1.358 -0.45,2c-0.331,0.858 -0.831,1.637 -1.46,2.306c-1.566,1.625 -3.191,3.193 -4.787,4.789c-0.203,0.199 -0.419,0.383 -0.651,0.547c-0.534,0.375 -1.14,0.643 -1.776,0.787c-0.321,0.072 -0.647,0.108 -0.976,0.121c-1.883,0.023 -3.767,0.001 -5.651,0.001c-0.284,-0.004 -0.567,-0.025 -0.847,-0.074c-0.642,-0.112 -1.261,-0.351 -1.812,-0.699c-0.278,-0.176 -0.534,-0.381 -0.775,-0.605c-1.643,-1.602 -3.275,-3.216 -4.867,-4.868c-0.59,-0.627 -1.066,-1.349 -1.396,-2.146c-0.33,-0.797 -0.504,-1.645 -0.531,-2.505c-0.03,-1.619 0.073,-3.24 -0.002,-4.857c-0.251,-1.075 -0.536,-2.142 -0.803,-3.213l-0.028,-0.121c-0.027,-0.14 -0.052,-0.279 -0.067,-0.421c-0.029,-0.281 -0.028,-0.566 0.003,-0.846c0.024,-0.216 0.068,-0.427 0.123,-0.636l-0.228,-0.684l0,-7.657l1.169,-0.626c1.794,1.196 3.588,2.392 5.382,3.589l0.819,1.636c0.371,0.127 0.727,0.297 1.059,0.506c0.278,0.176 0.534,0.381 0.775,0.605c0.21,0.205 0.414,0.417 0.624,0.622c0.003,0.003 0.009,0 0.013,0c2.773,0 5.545,0 8.318,0l0.013,0c0.183,-0.179 0.363,-0.363 0.544,-0.544c0.085,-0.083 0.084,-0.082 0.171,-0.163c0.246,-0.217 0.506,-0.415 0.788,-0.584c0.302,-0.18 0.623,-0.329 0.955,-0.442Z"/>
    </g>
    <g id="emoji">
        <path d="M6,15l-2,-6l0,-5l3,2l2,4l-3,5Z" style="fill:#a18330;"/>
        <path d="M26,15l2,-6l0,-5l-3,2l-2,4l3,5Z" style="fill:#a18330;"/>
        <path d="M4.141,11.565c-0.092,-0.369 -0.077,-0.757 0.043,-1.118c0.04,-0.12 0.085,-0.254 0.132,-0.396c0.409,-1.225 1.555,-2.051 2.846,-2.051c0.204,0 0.405,0 0.595,0c0.796,0 1.559,0.316 2.122,0.879c0.181,0.181 0.368,0.368 0.535,0.535c0.375,0.375 0.884,0.586 1.414,0.586c1.882,0 6.462,0 8.344,0c0.53,0 1.039,-0.211 1.414,-0.586c0.167,-0.167 0.354,-0.354 0.535,-0.535c0.563,-0.563 1.326,-0.879 2.122,-0.879c0.19,0 0.391,0 0.595,0c1.291,0 2.437,0.826 2.846,2.051c0.047,0.142 0.092,0.276 0.132,0.396c0.12,0.361 0.135,0.749 0.043,1.118c-0.222,0.888 -0.644,2.574 -0.799,3.196c-0.04,0.159 -0.06,0.322 -0.06,0.485c0,0.738 0,2.982 0,4.683c0,1.326 -0.527,2.598 -1.464,3.535c-1.408,1.408 -3.489,3.489 -4.657,4.657c-0.563,0.563 -1.326,0.879 -2.122,0.879c-1.501,0 -4.013,0 -5.514,0c-0.796,0 -1.559,-0.316 -2.122,-0.879c-1.168,-1.168 -3.249,-3.249 -4.657,-4.657c-0.937,-0.937 -1.464,-2.209 -1.464,-3.535c0,-1.701 0,-3.945 0,-4.683c0,-0.163 -0.02,-0.326 -0.06,-0.485c-0.155,-0.622 -0.577,-2.308 -0.799,-3.196Z" style="fill:#618e29;"/>
        <clipPath id="_clip1">
            <path d="M4.141,11.565c-0.092,-0.369 -0.077,-0.757 0.043,-1.118c0.04,-0.12 0.085,-0.254 0.132,-0.396c0.409,-1.225 1.555,-2.051 2.846,-2.051c0.204,0 0.405,0 0.595,0c0.796,0 1.559,0.316 2.122,0.879c0.181,0.181 0.368,0.368 0.535,0.535c0.375,0.375 0.884,0.586 1.414,0.586c1.882,0 6.462,0 8.344,0c0.53,0 1.039,-0.211 1.414,-0.586c0.167,-0.167 0.354,-0.354 0.535,-0.535c0.563,-0.563 1.326,-0.879 2.122,-0.879c0.19,0 0.391,0 0.595,0c1.291,0 2.437,0.826 2.846,2.051c0.047,0.142 0.092,0.276 0.132,0.396c0.12,0.361 0.135,0.749 0.043,1.118c-0.222,0.888 -0.644,2.574 -0.799,3.196c-0.04,0.159 -0.06,0.322 -0.06,0.485c0,0.738 0,2.982 0,4.683c0,1.326 -0.527,2.598 -1.464,3.535c-1.408,1.408 -3.489,3.489 -4.657,4.657c-0.563,0.563 -1.326,0.879 -2.122,0.879c-1.501,0 -4.013,0 -5.514,0c-0.796,0 -1.559,-0.316 -2.122,-0.879c-1.168,-1.168 -3.249,-3.249 -4.657,-4.657c-0.937,-0.937 -1.464,-2.209 -1.464,-3.535c0,-1.701 0,-3.945 0,-4.683c0,-0.163 -0.02,-0.326 -0.06,-0.485c-0.155,-0.622 -0.577,-2.308 -0.799,-3.196Z"/>
        </clipPath>
        <g clip-path="url(#_clip1)">
            <path d="M11,15l1,3l0,0.001c0,0.587 0.4,1.099 0.97,1.241c0.805,0.202 1.916,0.48 2.545,0.637c0.318,0.079 0.652,0.079 0.97,0c0.629,-0.157 1.74,-0.435 2.545,-0.637c0.57,-0.142 0.97,-0.654 0.97,-1.241c0,-0.001 0,-0.001 0,-0.001l1,-3c0,0 1.379,-0.69 2.518,-1.259c0.949,-0.474 1.67,-1.306 2.006,-2.313c0.593,-1.778 1.476,-4.428 1.476,-4.428l-22,0c0,0 0.883,2.65 1.476,4.428c0.336,1.007 1.057,1.839 2.006,2.313c1.139,0.569 2.518,1.259 2.518,1.259Z" style="fill:#77b84c;"/>
            <path d="M3,19l6,2l2,3l1,-1l2,2.5l4,0l2,-2.5l1,1l2,-3l6,-2" style="fill:none;stroke:#2f4d00;stroke-width:1px;"/>
            <path d="M17,9.5c0,-0.265 -0.105,-0.52 -0.293,-0.707c-0.187,-0.188 -0.442,-0.293 -0.707,-0.293c-0.265,0 -0.52,0.105 -0.707,0.293c-0.188,0.187 -0.293,0.442 -0.293,0.707c0,1.331 0,3.669 0,5c0,0.265 0.105,0.52 0.293,0.707c0.187,0.188 0.442,0.293 0.707,0.293c0.265,0 0.52,-0.105 0.707,-0.293c0.188,-0.187 0.293,-0.442 0.293,-0.707c0,-1.331 0,-3.669 0,-5Z" style="fill:#618e29;"/>
        </g>
        <path d="M11.32,15.279c-0.199,-0.797 -0.792,-1.436 -1.571,-1.696c0,0 -0.001,0 -0.001,0c-0.451,-0.151 -0.944,-0.106 -1.361,0.123c-0.416,0.228 -0.719,0.62 -0.834,1.081c-0.034,0.138 -0.069,0.278 -0.104,0.416c-0.253,1.014 0.317,2.052 1.308,2.383c0.361,0.12 0.702,0.234 0.935,0.311c0.204,0.068 0.418,0.103 0.633,0.103c0.566,0 1.675,0 1.675,0c0,0 -0.388,-1.55 -0.68,-2.721Z"/>
        <path d="M20.68,15.279c0.199,-0.797 0.792,-1.436 1.571,-1.696c0,0 0.001,0 0.001,0c0.451,-0.151 0.944,-0.106 1.361,0.123c0.416,0.228 0.719,0.62 0.834,1.081c0.034,0.138 0.069,0.278 0.104,0.416c0.253,1.014 -0.317,2.052 -1.308,2.383c-0.361,0.12 -0.702,0.234 -0.935,0.311c-0.204,0.068 -0.418,0.103 -0.633,0.103c-0.566,0 -1.675,0 -1.675,0c0,0 0.388,-1.55 0.68,-2.721Z"/>
        <path d="M12.43,20c-0.306,0 -0.591,-0.159 -0.752,-0.419c-0.161,-0.261 -0.175,-0.586 -0.038,-0.86c0,-0.001 0,-0.001 0,-0.002c0.199,-0.397 0.682,-0.558 1.079,-0.359c0.24,0.119 0.503,0.251 0.728,0.364c0.339,0.169 0.553,0.515 0.553,0.894c0,0.588 0,1.382 0,1.382l-1,-1l-0.57,0Z"/>
        <path d="M19.57,20c0.306,0 0.591,-0.159 0.752,-0.419c0.161,-0.261 0.175,-0.586 0.038,-0.86c0,-0.001 0,-0.001 0,-0.002c-0.199,-0.397 -0.682,-0.558 -1.079,-0.359c-0.24,0.119 -0.503,0.251 -0.728,0.364c-0.339,0.169 -0.553,0.515 -0.553,0.894c0,0.588 0,1.382 0,1.382c0,0 0.423,-0.423 0.719,-0.719c0.18,-0.18 0.424,-0.281 0.679,-0.281c0.054,0 0.111,0 0.172,0Z"/>
    </g>
</svg>
