<?xml version="1.0" encoding="UTF-8" standalone="no"?>
<!DOCTYPE svg PUBLIC "-//W3C//DTD SVG 1.1//EN" "http://www.w3.org/Graphics/SVG/1.1/DTD/svg11.dtd">
<svg width="100%" height="100%" viewBox="0 0 32 32" version="1.1" xmlns="http://www.w3.org/2000/svg" xmlns:xlink="http://www.w3.org/1999/xlink" xml:space="preserve" xmlns:serif="http://www.serif.com/" style="fill-rule:evenodd;clip-rule:evenodd;stroke-linecap:round;">
    <rect id="minotaur" x="0" y="0" width="32" height="32" style="fill:none;"/>
    <clipPath id="_clip1">
        <rect x="0" y="0" width="32" height="32"/>
    </clipPath>
    <g clip-path="url(#_clip1)">
        <g id="outline">
            <path d="M8,7l0,11.757c0,0.796 0.316,1.559 0.879,2.122c0.885,0.885 2.121,2.121 2.121,2.121l0,2c0,1.657 1.343,3 3,3c1.265,0 2.735,0 4,0c1.657,0 3,-1.343 3,-3c0,-1.063 0,-2 0,-2c0,0 1.236,-1.236 2.121,-2.121c0.563,-0.563 0.879,-1.326 0.879,-2.122c0,-3.251 0,-11.757 0,-11.757l-16,0Z" style="fill:none;stroke:#000;stroke-width:4px;"/>
            <path d="M21,8c0,-0.552 0.448,-1 1,-1c0.793,0 1.907,0 2.757,0c0.796,0 1.559,-0.316 2.122,-0.879c0.181,-0.181 0.368,-0.368 0.535,-0.535c0.375,-0.375 0.884,-0.586 1.414,-0.586c0.551,0 1.172,0 1.172,0c0,0 -1.633,2.45 -2.813,4.219c-0.741,1.113 -1.99,1.781 -3.328,1.781c-0.646,0 -1.325,0 -1.859,0c-0.552,0 -1,-0.448 -1,-1c0,-0.611 0,-1.389 0,-2Z" style="fill:none;stroke:#000;stroke-width:4px;"/>
            <path d="M11,8c0,-0.552 -0.448,-1 -1,-1c-0.793,0 -1.907,0 -2.757,0c-0.796,0 -1.559,-0.316 -2.122,-0.879c-0.181,-0.181 -0.368,-0.368 -0.535,-0.535c-0.375,-0.375 -0.884,-0.586 -1.414,-0.586c-0.551,0 -1.172,0 -1.172,0c0,0 1.633,2.45 2.813,4.219c0.741,1.113 1.99,1.781 3.328,1.781c0.646,0 1.325,0 1.859,0c0.552,0 1,-0.448 1,-1c0,-0.611 0,-1.389 0,-2Z" style="fill:none;stroke:#000;stroke-width:4px;"/>
            <path d="M23,17l0,-3c0,-1.105 0.895,-2 2,-2c1.745,0 4,0 4,0c0,0 -1.92,2.4 -3.099,3.874c-0.57,0.712 -1.432,1.126 -2.343,1.126c-0.316,0 -0.558,0 -0.558,0Z" style="fill:#ad8348;stroke:#000;stroke-width:4px;stroke-linejoin:round;"/>
            <path d="M9,17l0,-3c0,-1.105 -0.895,-2 -2,-2c-1.745,0 -4,0 -4,0c0,0 1.92,2.4 3.099,3.874c0.57,0.712 1.432,1.126 2.343,1.126c0.316,0 0.558,0 0.558,0Z" style="fill:#ad8348;stroke:#000;stroke-width:4px;stroke-linejoin:round;"/>
            <path d="M8,8l2,-4l2,2l2,-2l2,2l2,-2l2,2l2,-2l2,4l0,2l-16,0l0,-2Z" style="fill:#5b4526;stroke:#000;stroke-width:4px;stroke-linejoin:round;"/>
        </g>
        <g id="emoji">
            <path d="M8,8l2,-4l2,2l2,-2l2,2l2,-2l2,2l2,-2l2,4l0,2l-16,0l0,-2Z" style="fill:#5b4526;"/>
            <path d="M8,7l0,11.757c0,0.796 0.316,1.559 0.879,2.122c0.885,0.885 2.121,2.121 2.121,2.121l0,2c0,1.657 1.343,3 3,3c1.265,0 2.735,0 4,0c1.657,0 3,-1.343 3,-3c0,-1.063 0,-2 0,-2c0,0 1.236,-1.236 2.121,-2.121c0.563,-0.563 0.879,-1.326 0.879,-2.122c0,-3.251 0,-11.757 0,-11.757l-16,0Z" style="fill:#ad8348;"/>
            <clipPath id="_clip2">
                <path d="M8,7l0,11.757c0,0.796 0.316,1.559 0.879,2.122c0.885,0.885 2.121,2.121 2.121,2.121l0,2c0,1.657 1.343,3 3,3c1.265,0 2.735,0 4,0c1.657,0 3,-1.343 3,-3c0,-1.063 0,-2 0,-2c0,0 1.236,-1.236 2.121,-2.121c0.563,-0.563 0.879,-1.326 0.879,-2.122c0,-3.251 0,-11.757 0,-11.757l-16,0Z"/>
            </clipPath>
            <g clip-path="url(#_clip2)">
                <path d="M11,25c0,0 0.69,0.345 1.259,0.63c0.474,0.237 1.024,0.276 1.527,0.108c0.889,-0.296 2.214,-0.738 2.214,-0.738c0,0 1.325,0.442 2.214,0.738c0.503,0.168 1.053,0.129 1.527,-0.108c0.569,-0.285 1.259,-0.63 1.259,-0.63" style="fill:none;stroke:#5b4526;stroke-width:1px;"/>
            </g>
            <path d="M18,23l1,-1l0,-0.5c0,-0.133 -0.053,-0.26 -0.146,-0.354c-0.094,-0.093 -0.221,-0.146 -0.354,-0.146c-0.305,0 -0.695,0 -1,0c-0.133,0 -0.26,0.053 -0.354,0.146c-0.093,0.094 -0.146,0.221 -0.146,0.354l0,1c0,0.133 0.053,0.26 0.146,0.354c0.094,0.093 0.221,0.146 0.354,0.146c0.25,0 0.5,0 0.5,0Z" style="fill:#3c2e19;"/>
            <path d="M14,23l-1,-1l0,-0.5c0,-0.133 0.053,-0.26 0.146,-0.354c0.094,-0.093 0.221,-0.146 0.354,-0.146c0.305,0 0.695,0 1,0c0.133,0 0.26,0.053 0.354,0.146c0.093,0.094 0.146,0.221 0.146,0.354l0,1c0,0.133 -0.053,0.26 -0.146,0.354c-0.094,0.093 -0.221,0.146 -0.354,0.146c-0.25,0 -0.5,0 -0.5,0Z" style="fill:#3c2e19;"/>
            <path d="M10,11c0,0 2.55,1.275 3.578,1.789c0.277,0.139 0.584,0.211 0.894,0.211c0.77,0 2.286,0 3.056,0c0.31,0 0.617,-0.072 0.894,-0.211c1.028,-0.514 3.578,-1.789 3.578,-1.789l0,-5l-12,0l0,5Z" style="fill:#5b4526;"/>
            <path d="M21,8c0,-0.552 0.448,-1 1,-1c0.793,0 1.907,0 2.757,0c0.796,0 1.559,-0.316 2.122,-0.879c0.181,-0.181 0.368,-0.368 0.535,-0.535c0.375,-0.375 0.884,-0.586 1.414,-0.586c0.551,0 1.172,0 1.172,0c0,0 -1.633,2.45 -2.813,4.219c-0.741,1.113 -1.99,1.781 -3.328,1.781c-0.646,0 -1.325,0 -1.859,0c-0.552,0 -1,-0.448 -1,-1c0,-0.611 0,-1.389 0,-2Z" style="fill:#beac92;"/>
            <path d="M11,8c0,-0.552 -0.448,-1 -1,-1c-0.793,0 -1.907,0 -2.757,0c-0.796,0 -1.559,-0.316 -2.122,-0.879c-0.181,-0.181 -0.368,-0.368 -0.535,-0.535c-0.375,-0.375 -0.884,-0.586 -1.414,-0.586c-0.551,0 -1.172,0 -1.172,0c0,0 1.633,2.45 2.813,4.219c0.741,1.113 1.99,1.781 3.328,1.781c0.646,0 1.325,0 1.859,0c0.552,0 1,-0.448 1,-1c0,-0.611 0,-1.389 0,-2Z" style="fill:#beac92;"/>
            <path d="M22,15l-1.764,0c-0.757,0 -1.45,0.428 -1.789,1.106c-0.231,0.462 -0.447,0.894 -0.447,0.894l3,0c0.552,0 1,-0.448 1,-1c0,-0.5 0,-1 0,-1Z"/>
            <path d="M10,15l1.764,0c0.757,0 1.45,0.428 1.789,1.106c0.231,0.462 0.447,0.894 0.447,0.894l-3,0c-0.552,0 -1,-0.448 -1,-1c0,-0.5 0,-1 0,-1Z"/>
            <path d="M23,17l0,-3c0,-1.105 0.895,-2 2,-2c1.745,0 4,0 4,0c0,0 -1.92,2.4 -3.099,3.874c-0.57,0.712 -1.432,1.126 -2.343,1.126c-0.316,0 -0.558,0 -0.558,0Z" style="fill:#ad8348;"/>
            <clipPath id="_clip3">
                <path d="M23,17l0,-3c0,-1.105 0.895,-2 2,-2c1.745,0 4,0 4,0c0,0 -1.92,2.4 -3.099,3.874c-0.57,0.712 -1.432,1.126 -2.343,1.126c-0.316,0 -0.558,0 -0.558,0Z"/>
            </clipPath>
            <g clip-path="url(#_clip3)">
                <path d="M29,13l-3,0c-0.53,0 -1.039,0.211 -1.414,0.586c-0.375,0.375 -0.586,0.884 -0.586,1.414l0,3l5,0l0,-5Z" style="fill:#5b4526;"/>
            </g>
            <path d="M9,17l0,-3c0,-1.105 -0.895,-2 -2,-2c-1.745,0 -4,0 -4,0c0,0 1.92,2.4 3.099,3.874c0.57,0.712 1.432,1.126 2.343,1.126c0.316,0 0.558,0 0.558,0Z" style="fill:#ad8348;"/>
            <clipPath id="_clip4">
                <path d="M9,17l0,-3c0,-1.105 -0.895,-2 -2,-2c-1.745,0 -4,0 -4,0c0,0 1.92,2.4 3.099,3.874c0.57,0.712 1.432,1.126 2.343,1.126c0.316,0 0.558,0 0.558,0Z"/>
            </clipPath>
            <g clip-path="url(#_clip4)">
                <path d="M3,13l3,0c0.53,0 1.039,0.211 1.414,0.586c0.375,0.375 0.586,0.884 0.586,1.414l0,3l-5,0l0,-5Z" style="fill:#5b4526;"/>
            </g>
        </g>
    </g>
</svg>
