<?xml version="1.0" encoding="UTF-8" standalone="no"?>
<!DOCTYPE svg PUBLIC "-//W3C//DTD SVG 1.1//EN" "http://www.w3.org/Graphics/SVG/1.1/DTD/svg11.dtd">
<svg width="100%" height="100%" viewBox="0 0 32 32" version="1.1" xmlns="http://www.w3.org/2000/svg" xmlns:xlink="http://www.w3.org/1999/xlink" xml:space="preserve" xmlns:serif="http://www.serif.com/" style="fill-rule:evenodd;clip-rule:evenodd;stroke-linejoin:round;stroke-miterlimit:2;">
    <rect id="troll" x="0" y="0" width="32" height="32" style="fill:none;"/>
    <g id="outline">
        <path d="M14.828,0l4.61,4.61c1.244,0.455 2.394,1.159 3.365,2.061c0.644,0.598 1.207,1.281 1.673,2.025l5.919,-5.92l1.605,0.909l0,2.572c-0.999,4.03 -1.984,8.064 -3.024,12.084c-0.027,0.096 -0.055,0.192 -0.085,0.287c-0.155,0.469 -0.359,0.918 -0.621,1.337c-0.551,0.883 -1.332,1.616 -2.249,2.108c-0.19,0.103 -0.385,0.193 -0.585,0.274c-0.149,0.444 -0.326,0.879 -0.527,1.304c-0.157,0.32 -0.314,0.639 -0.472,0.958l1.891,1.891l-5.5,5.5l-0.425,0l-1.301,-0.539c-0.248,0.104 -0.503,0.193 -0.762,0.268c-0.589,0.169 -1.194,0.254 -1.806,0.27l-0.154,0.001l-0.76,0l-0.154,-0.001c-0.612,-0.016 -1.217,-0.101 -1.806,-0.27c-0.259,-0.075 -0.514,-0.164 -0.762,-0.268l-1.301,0.539l-0.425,0l-5.5,-5.5l1.891,-1.891c-0.158,-0.319 -0.315,-0.638 -0.472,-0.958c-0.114,-0.241 -0.223,-0.483 -0.32,-0.731c-0.075,-0.189 -0.145,-0.381 -0.209,-0.574c-0.38,-0.156 -0.744,-0.346 -1.086,-0.576c-0.864,-0.58 -1.57,-1.385 -2.032,-2.318c-0.19,-0.383 -0.335,-0.786 -0.443,-1.2l-3.001,-12.006l0,-2.561l1.605,-0.909l5.919,5.919c0.334,-0.534 0.718,-1.036 1.147,-1.498c0.107,-0.115 0.217,-0.228 0.329,-0.338l0,-6.278l1.403,-0.581l0.425,0l1.172,1.172l0,-1.172l2.828,0Z"/>
    </g>
    <g id="emoji">
        <path d="M29.48,8.079l0.52,-2.079c0,0 -2.941,2.941 -4.312,4.312c-0.456,0.456 -0.835,0.982 -1.123,1.559c-0.589,1.177 -1.565,3.129 -1.565,3.129l-2,0l0,6l2,0c0,0 0.586,-0.167 1.279,-0.365c1.374,-0.393 2.435,-1.489 2.781,-2.876l1.472,-5.889l-0.021,-0.042l0.903,-3.645l0.066,-0.104Z" style="fill:#00bcf0;"/>
        <path d="M29.48,8.079c-1.182,1.161 -2.33,2.357 -3.502,3.529c-0.262,0.267 -0.507,0.549 -0.726,0.853c-0.192,0.267 -0.362,0.548 -0.518,0.837c-0.213,0.416 -0.419,0.836 -0.628,1.255c-0.068,0.144 -0.107,0.295 -0.106,0.455c0.001,0.122 0.024,0.244 0.069,0.357c0.045,0.114 0.11,0.22 0.193,0.31c0.071,0.077 0.153,0.143 0.245,0.195c0.307,0.174 0.694,0.171 1,-0.008c0.153,-0.09 0.272,-0.217 0.363,-0.369c0.222,-0.416 0.42,-0.845 0.635,-1.265c0.111,-0.206 0.233,-0.407 0.37,-0.597c0.137,-0.191 0.289,-0.369 0.45,-0.54c0.401,-0.409 0.803,-0.816 1.207,-1.221l0.948,-3.791Z" style="fill:#2697c0;"/>
        <path d="M2.52,8.079l-0.52,-2.079c0,0 2.941,2.941 4.312,4.312c0.456,0.456 0.835,0.982 1.123,1.559c0.589,1.177 1.565,3.129 1.565,3.129l2,0l0,6l-2,0c0,0 -0.586,-0.167 -1.279,-0.365c-1.374,-0.393 -2.435,-1.489 -2.781,-2.876l-1.472,-5.889l0.021,-0.042l-0.903,-3.645l-0.066,-0.104Z" style="fill:#00bcf0;"/>
        <path d="M2.52,8.079c1.182,1.161 2.33,2.357 3.502,3.529c0.262,0.267 0.507,0.549 0.726,0.853c0.192,0.267 0.362,0.548 0.518,0.837c0.213,0.416 0.419,0.836 0.628,1.255c0.068,0.144 0.107,0.295 0.106,0.455c-0.001,0.122 -0.024,0.244 -0.069,0.357c-0.045,0.114 -0.11,0.22 -0.193,0.31c-0.071,0.077 -0.153,0.143 -0.245,0.195c-0.307,0.174 -0.694,0.171 -1,-0.008c-0.153,-0.09 -0.272,-0.217 -0.363,-0.369c-0.222,-0.416 -0.42,-0.845 -0.635,-1.265c-0.111,-0.206 -0.233,-0.407 -0.37,-0.597c-0.137,-0.191 -0.289,-0.369 -0.45,-0.54c-0.401,-0.409 -0.803,-0.816 -1.207,-1.221l-0.948,-3.791Z" style="fill:#2697c0;"/>
        <path d="M19,7l-5,-5l0,5l5,0Z" style="fill:#b01d50;"/>
        <path d="M10.667,26.333l-1.717,-3.433c-0.625,-1.249 -0.95,-2.627 -0.95,-4.025l0,-4.875c0,-2.122 0.843,-4.157 2.343,-5.657c0.209,-0.209 0.428,-0.405 0.657,-0.588c0,0 7.313,-1.007 7.805,-1.247c1.061,0.397 2.035,1.019 2.852,1.835c1.5,1.5 2.343,3.535 2.343,5.657c0,1.804 0,3.569 0,4.875c0,1.398 -0.325,2.776 -0.95,4.025l-1.717,3.433l-1.174,1.738l-0.159,0.409c-0.927,0.957 -2.216,1.52 -3.59,1.52c-0.272,0 -0.548,0 -0.82,0c-1.374,0 -2.663,-0.563 -3.59,-1.52l-0.175,-0.414l-1.158,-1.733Z" style="fill:#00bcf0;"/>
        <path d="M21.333,26.333l-0.451,0.903c-0.232,0.465 -0.531,0.883 -0.882,1.244l0,-0.48l-3,-3l2.5,-0.5l1.833,1.833Zm-10.666,0l1.833,-1.833l2.5,0.5l-3,3l0,0.48c-0.351,-0.361 -0.65,-0.779 -0.882,-1.244l-0.451,-0.903Z" style="fill:#2697c0;"/>
        <path d="M11,7.755c1.412,-1.131 3.174,-1.755 5,-1.755c0,0 0,0 0,0c0.967,0 1.916,0.175 2.805,0.508c-0.492,0.24 -0.946,0.562 -1.341,0.956c-0.937,0.938 -1.464,2.21 -1.464,3.536l0,4l-3,-3l-2,-4.245Z" style="fill:#b01d50;"/>
        <path d="M18,15.865c0,-0.229 0.091,-0.449 0.253,-0.612c0.163,-0.162 0.383,-0.253 0.612,-0.253c0.628,0 1.478,0 2.135,0c0.552,0 1,0.448 1,1c0,0.363 0,0.771 0,1.123c0,0.233 -0.092,0.456 -0.257,0.62c-0.164,0.165 -0.387,0.257 -0.62,0.257c0,0 -0.001,0 -0.001,0c-0.718,0 -1.407,-0.285 -1.915,-0.793c-0.429,-0.429 -0.911,-0.911 -1.112,-1.112c-0.061,-0.061 -0.095,-0.143 -0.095,-0.23c0,0 0,0 0,0Zm-4,0.008c0,-0.482 -0.391,-0.873 -0.873,-0.873c-0.627,0 -1.473,0 -2.127,0c-0.552,0 -1,0.448 -1,1c0,0.363 0,0.771 0,1.123c0,0.233 0.092,0.456 0.257,0.62c0.164,0.165 0.387,0.257 0.62,0.257c0,0 0.001,0 0.001,0c0.718,0 1.407,-0.285 1.915,-0.793c0.434,-0.434 0.921,-0.921 1.118,-1.118c0.057,-0.057 0.089,-0.134 0.089,-0.215c0,0 0,-0.001 0,-0.001Z"/>
        <path d="M13,5l1,1l0,-4l3,3l-1,3l0,7l-3,-3l-0.123,-0.238l-0.061,-6.578l0.184,-0.184Z" style="fill:#b01d50;"/>
        <path d="M13,5l0,7l-2,-2l0,-7l2,2Z" style="fill:#7c1439;"/>
        <path d="M18,24l3,3l0,2l2.5,-2.5l-3,-3l-2.5,0.5Zm-4,0l-3,3l0,2l-2.5,-2.5l3,-3l2.5,0.5Z" style="fill:#fff;"/>
        <path d="M18.414,26l-4.828,0c-0.206,-0.206 -0.497,-0.524 -0.762,-0.758c-0.165,-0.138 -0.363,-0.221 -0.578,-0.239c-0.246,-0.015 -0.523,-0.003 -0.746,-0.003c-0.16,-0.005 -0.313,-0.037 -0.457,-0.11c-0.123,-0.064 -0.232,-0.152 -0.32,-0.26c-0.214,-0.264 -0.279,-0.628 -0.17,-0.95c0.031,-0.094 0.077,-0.183 0.135,-0.263c0.057,-0.08 0.127,-0.152 0.205,-0.212c0.161,-0.122 0.348,-0.185 0.548,-0.203c0.268,-0.008 0.537,-0.004 0.805,-0.001c0.197,0.007 0.393,0.029 0.585,0.072c0.382,0.086 0.746,0.248 1.066,0.473c0.121,0.085 0.234,0.18 0.343,0.281l0.049,0.047l0.125,0.126l3.172,0c0.058,-0.058 0.116,-0.116 0.174,-0.173c0.055,-0.051 0.11,-0.1 0.167,-0.148c0.365,-0.291 0.784,-0.503 1.241,-0.606c0.193,-0.043 0.389,-0.065 0.586,-0.072c0.249,-0.003 0.497,-0.001 0.746,-0.001c0.059,0.002 0.059,0.002 0.118,0.007c0.199,0.03 0.382,0.104 0.535,0.235c0.075,0.065 0.14,0.141 0.193,0.224c0.226,0.359 0.198,0.835 -0.069,1.164c-0.075,0.092 -0.166,0.171 -0.268,0.231c-0.139,0.082 -0.29,0.123 -0.45,0.137c-0.268,0.008 -0.537,-0.012 -0.805,0.005c-0.243,0.021 -0.462,0.124 -0.637,0.294l-0.703,0.703Zm1.226,-5.232c-0.59,0.492 -1.176,0.991 -1.772,1.476c-0.053,0.041 -0.106,0.081 -0.161,0.12c-0.255,0.172 -0.529,0.309 -0.823,0.4c-0.678,0.208 -1.421,0.168 -2.073,-0.113c-0.263,-0.113 -0.505,-0.265 -0.727,-0.446l-1.724,-1.437l1.28,-1.536c0.591,0.492 1.156,1.016 1.774,1.475c0.279,0.198 0.643,0.246 0.962,0.116c0.098,-0.039 0.187,-0.095 0.268,-0.162l1.716,-1.429c0.427,0.512 0.853,1.024 1.28,1.536Z" style="fill:#007792;"/>
    </g>
</svg>
