<?xml version="1.0" encoding="UTF-8" standalone="no"?>
<!DOCTYPE svg PUBLIC "-//W3C//DTD SVG 1.1//EN" "http://www.w3.org/Graphics/SVG/1.1/DTD/svg11.dtd">
<svg width="100%" height="100%" viewBox="0 0 32 32" version="1.1" xmlns="http://www.w3.org/2000/svg" xmlns:xlink="http://www.w3.org/1999/xlink" xml:space="preserve" xmlns:serif="http://www.serif.com/" style="fill-rule:evenodd;clip-rule:evenodd;stroke-linecap:round;stroke-linejoin:round;stroke-miterlimit:1.5;">
    <rect id="_1f606_laughing" serif:id="1f606_laughing" x="0" y="0" width="32" height="32" style="fill:none;"/>
    <path d="M16,30c-9.024,-0 -14,-5.396 -14,-12.264c0,-8.706 7.64,-13.736 14,-13.736c6.36,0 14,5.03 14,13.736c0,6.868 -4.976,12.264 -14,12.264Z" style="fill:none;stroke:#000;stroke-width:4px;"/>
    <path d="M16,30c-9.024,-0 -14,-5.396 -14,-12.264c0,-8.706 7.64,-13.736 14,-13.736c6.36,0 14,5.03 14,13.736c0,6.868 -4.976,12.264 -14,12.264Z" style="fill:#ffb636;"/>
    <path d="M19,18.496c0,-0 0.002,-0.004 0.006,-0.01c1.196,-1.793 3.39,-2.641 5.481,-2.119c0.312,0.078 0.513,0.129 0.513,0.129" style="fill:none;stroke:#000;stroke-width:2px;"/>
    <path d="M13,18.5c0,0 -0.002,-0.003 -0.006,-0.01c-1.196,-1.793 -3.39,-2.641 -5.481,-2.118c-0.312,0.078 -0.513,0.128 -0.513,0.128" style="fill:none;stroke:#000;stroke-width:2px;"/>
    <path d="M9.941,9.732c-0.586,0.586 -0.269,1.853 0.707,2.829c0.975,0.975 2.243,1.292 2.828,0.707c0.585,-0.586 0.269,-1.853 -0.707,-2.829c-0.976,-0.975 -2.243,-1.292 -2.828,-0.707Z"/>
    <path d="M22.059,9.732c0.586,0.586 0.269,1.853 -0.707,2.829c-0.975,0.975 -2.243,1.292 -2.828,0.707c-0.585,-0.586 -0.269,-1.853 0.707,-2.829c0.976,-0.975 2.243,-1.292 2.828,-0.707Z"/>
    <path d="M20.351,27.057c2.261,-1.119 3.469,-3.005 4.081,-4.376c0.148,-0.335 0.101,-0.725 -0.123,-1.015c-0.225,-0.29 -0.591,-0.433 -0.952,-0.373c-1.8,0.295 -4.774,0.707 -7.357,0.707c-2.583,0 -5.557,-0.412 -7.357,-0.707c-0.362,-0.061 -0.727,0.083 -0.952,0.373c-0.225,0.29 -0.272,0.68 -0.123,1.015c0.612,1.371 1.82,3.257 4.081,4.376c1.009,-1.29 7.693,-1.29 8.702,0Z"/>
    <path d="M20.351,27.057c-1.009,-1.29 -2.561,-2.053 -4.213,-2.053l-0.276,0c-1.652,0 -3.204,0.763 -4.213,2.053c1.155,0.572 2.585,0.943 4.351,0.943c1.766,-0 3.196,-0.371 4.351,-0.943Z" style="fill:#c33700;"/>
</svg>
