<?xml version="1.0" encoding="UTF-8" standalone="no"?>
<!DOCTYPE svg PUBLIC "-//W3C//DTD SVG 1.1//EN" "http://www.w3.org/Graphics/SVG/1.1/DTD/svg11.dtd">
<svg width="100%" height="100%" viewBox="0 0 32 32" version="1.1" xmlns="http://www.w3.org/2000/svg" xmlns:xlink="http://www.w3.org/1999/xlink" xml:space="preserve" xmlns:serif="http://www.serif.com/" style="fill-rule:evenodd;clip-rule:evenodd;stroke-linecap:round;stroke-linejoin:round;stroke-miterlimit:1.5;">
    <rect id="_1f61a_blush_kiss" serif:id="1f61a_blush_kiss" x="0" y="0" width="32" height="32" style="fill:none;"/>
    <path d="M16.463,3.509c4.91,0.18 13.537,3.242 13.537,13.991c-0,7 -5.9,12.5 -14,12.5l-0,-0c-8.1,0 -14,-5.5 -14,-12.5c0,-11.095 9.192,-14 14,-14l0.463,0.009Z" style="fill:none;stroke:#000;stroke-width:4px;"/>
    <path d="M2.007,16.968c0.289,-10.656 9.263,-13.468 13.993,-13.468l0.463,0.009c4.828,0.177 13.25,3.141 13.53,13.459c-0.95,-0.605 -2.598,7.489 -2.175,7.409c-2.423,3.408 -6.678,5.623 -11.818,5.623c-5.14,-0 -9.395,-2.215 -11.818,-5.623c0.423,0.08 -1.225,-8.014 -2.175,-7.409Z" style="fill:none;stroke:#000;stroke-width:4px;"/>
    <path d="M2.007,16.968c0.289,-10.656 9.263,-13.468 13.993,-13.468l0.463,0.009c4.828,0.177 13.25,3.141 13.53,13.459c-0.95,-0.605 -2.598,7.489 -2.175,7.409c-2.423,3.408 -6.678,5.623 -11.818,5.623c-5.14,-0 -9.395,-2.215 -11.818,-5.623c0.423,0.08 -1.225,-8.014 -2.175,-7.409Z" style="fill:#ffb636;"/>
    <path d="M27.818,24.377c-0.423,0.08 -0.864,0.123 -1.318,0.123c-3.036,0 -5.5,-1.904 -5.5,-4.25c-0,-2.346 2.464,-4.25 5.5,-4.25c1.326,0 2.543,0.363 3.493,0.968c0.005,0.175 0.007,0.353 0.007,0.532c0,2.558 -0.788,4.915 -2.182,6.877Zm-23.636,0c-1.394,-1.962 -2.182,-4.319 -2.182,-6.877c0,-0.179 0.002,-0.357 0.007,-0.532c0.95,-0.605 2.167,-0.968 3.493,-0.968c3.036,0 5.5,1.904 5.5,4.25c-0,2.346 -2.464,4.25 -5.5,4.25c-0.454,0 -0.895,-0.043 -1.318,-0.123Z" style="fill:#f26f1c;"/>
    <path d="M7.543,10.75c0.414,0.717 1.72,0.739 2.915,0.049c1.195,-0.69 1.829,-1.832 1.415,-2.549c-0.414,-0.717 -1.72,-0.739 -2.915,-0.049c-1.195,0.69 -1.829,1.832 -1.415,2.549Z"/>
    <path d="M24.457,10.75c-0.414,0.717 -1.72,0.739 -2.915,0.049c-1.195,-0.69 -1.829,-1.832 -1.415,-2.549c0.414,-0.717 1.72,-0.739 2.915,-0.049c1.195,0.69 1.829,1.832 1.415,2.549Z"/>
    <path d="M19,17c0,0 0.059,-0.137 0.16,-0.372c0.564,-1.318 1.805,-2.22 3.233,-2.351c1.427,-0.131 2.812,0.53 3.607,1.723c-0,-0 0,0 0,0" style="fill:none;stroke:#000;stroke-width:2px;"/>
    <path d="M13,17c0,0 -0.059,-0.137 -0.16,-0.372c-0.564,-1.318 -1.805,-2.22 -3.233,-2.351c-1.427,-0.131 -2.812,0.53 -3.607,1.723c0,-0 0,0 0,0" style="fill:none;stroke:#000;stroke-width:2px;"/>
    <path d="M16,27c-0,0 0.596,-0.149 1.137,-0.284c0.507,-0.127 0.863,-0.583 0.863,-1.105c0,-0.074 0,-0.148 0,-0.222c-0,-0.522 -0.356,-0.978 -0.863,-1.105c-0.541,-0.135 -1.137,-0.284 -1.137,-0.284c-0,0 0.596,-0.149 1.137,-0.284c0.507,-0.127 0.863,-0.583 0.863,-1.105c0,-0.074 0,-0.148 0,-0.222c-0,-0.522 -0.356,-0.978 -0.863,-1.105c-0.541,-0.135 -1.137,-0.284 -1.137,-0.284" style="fill:none;stroke:#694300;stroke-width:2px;"/>
</svg>
