<?xml version="1.0" encoding="UTF-8" standalone="no"?>
<!DOCTYPE svg PUBLIC "-//W3C//DTD SVG 1.1//EN" "http://www.w3.org/Graphics/SVG/1.1/DTD/svg11.dtd">
<svg width="100%" height="100%" viewBox="0 0 32 32" version="1.1" xmlns="http://www.w3.org/2000/svg" xmlns:xlink="http://www.w3.org/1999/xlink" xml:space="preserve" xmlns:serif="http://www.serif.com/" style="fill-rule:evenodd;clip-rule:evenodd;stroke-linecap:round;stroke-linejoin:round;stroke-miterlimit:1.5;">
    <rect id="_1f61b_stuck_out_tongue" serif:id="1f61b_stuck_out_tongue" x="0" y="0" width="32" height="32" style="fill:none;"/>
    <clipPath id="_clip1">
        <rect x="0" y="0" width="32" height="32"/>
    </clipPath>
    <g clip-path="url(#_clip1)">
        <path d="M16,30c-8.1,0 -14,-4.672 -14,-11.781c0,-3.67 1.356,-7.087 4.111,-9.984c2.683,-2.822 6.618,-4.235 9.889,-4.235c3.271,0 7.206,1.413 9.889,4.235c2.755,2.897 4.111,6.314 4.111,9.984c0,7.109 -5.9,11.781 -14,11.781Z" style="fill:none;stroke:#000;stroke-width:4px;"/>
        <path d="M16,30c-8.1,0 -14,-4.672 -14,-11.781c0,-3.67 1.356,-7.087 4.111,-9.984c2.683,-2.822 6.618,-4.235 9.889,-4.235c3.271,0 7.206,1.413 9.889,4.235c2.755,2.897 4.111,6.314 4.111,9.984c0,7.109 -5.9,11.781 -14,11.781Z" style="fill:#ffb636;"/>
        <rect x="17" y="7" width="11" height="12" style="fill:none;"/>
        <clipPath id="_clip2">
            <rect x="17" y="7" width="11" height="12"/>
        </clipPath>
        <g clip-path="url(#_clip2)">
            <ellipse cx="22.5" cy="13.5" rx="4.5" ry="5.5" style="fill:#fff;"/>
            <ellipse cx="21.5" cy="13.5" rx="2.5" ry="3.5"/>
        </g>
        <rect x="4" y="7" width="11" height="12" style="fill:none;"/>
        <clipPath id="_clip3">
            <rect x="4" y="7" width="11" height="12"/>
        </clipPath>
        <g clip-path="url(#_clip3)">
            <ellipse cx="9.5" cy="13.5" rx="4.5" ry="5.5" style="fill:#fff;"/>
            <ellipse cx="10.5" cy="13.5" rx="2.5" ry="3.5"/>
        </g>
        <path d="M21.36,24.905c1.297,-1.007 1.96,-2.303 2.297,-3.31c0.111,-0.336 0.037,-0.706 -0.196,-0.973c-0.233,-0.266 -0.589,-0.39 -0.937,-0.324c-1.591,0.295 -4.208,0.702 -6.524,0.702c-2.316,-0 -4.933,-0.407 -6.524,-0.702c-0.348,-0.065 -0.704,0.058 -0.937,0.324c-0.233,0.267 -0.307,0.637 -0.195,0.973c0.336,1.007 0.999,2.303 2.296,3.31c0.986,-1.492 9.734,-1.492 10.72,0Z"/>
        <path d="M12,23.497c0.604,0.611 0.659,1.341 0,2.227c-0.517,-0.236 -0.968,-0.514 -1.36,-0.819c0.367,-0.556 0.83,-1.031 1.36,-1.408Zm8,2.227c-0.498,-0.668 -0.599,-1.395 0,-2.227c0.53,0.377 0.993,0.852 1.36,1.408c-0.392,0.305 -0.843,0.583 -1.36,0.819Z" style="fill:#872600;"/>
        <path d="M20,25.724c-0.024,0.01 -0.048,0.021 -0.072,0.032c-0.15,0.78 -0.53,1.503 -1.1,2.072c-0.75,0.751 -1.767,1.172 -2.828,1.172c-1.061,0 -2.078,-0.421 -2.828,-1.172c-0.57,-0.569 -0.95,-1.292 -1.1,-2.072c-0.024,-0.011 -0.048,-0.022 -0.072,-0.032l0,-2.227c0.892,-0.635 1.972,-0.993 3.104,-0.993l1.792,0c1.132,0 2.212,0.358 3.104,0.993l-0,2.227Z" style="fill:#c33700;"/>
    </g>
</svg>
