<?xml version="1.0" encoding="UTF-8" standalone="no"?>
<!DOCTYPE svg PUBLIC "-//W3C//DTD SVG 1.1//EN" "http://www.w3.org/Graphics/SVG/1.1/DTD/svg11.dtd">
<svg width="100%" height="100%" viewBox="0 0 32 32" version="1.1" xmlns="http://www.w3.org/2000/svg" xmlns:xlink="http://www.w3.org/1999/xlink" xml:space="preserve" xmlns:serif="http://www.serif.com/" style="fill-rule:evenodd;clip-rule:evenodd;stroke-linecap:round;stroke-linejoin:round;stroke-miterlimit:1.5;">
    <rect id="_1f629_weary" serif:id="1f629_weary" x="0" y="0" width="32" height="32" style="fill:none;"/>
    <clipPath id="_clip1">
        <rect x="0" y="0" width="32" height="32"/>
    </clipPath>
    <g clip-path="url(#_clip1)">
        <path d="M16,29.5c-10.46,0 -14,-4.764 -14,-11.5c0,-8.538 7.64,-14 14,-14c6.36,0 14,5.462 14,14c0,6.736 -3.54,11.5 -14,11.5Z" style="fill:none;stroke:#000;stroke-width:4px;"/>
        <path d="M16,29.5c-10.46,0 -14,-4.764 -14,-11.5c0,-8.538 7.64,-14 14,-14c6.36,0 14,5.462 14,14c0,6.736 -3.54,11.5 -14,11.5Z" style="fill:#ffb636;"/>
        <path d="M13,15c-0,0 -0.263,1.571 -2.236,2.508c-2.56,1.217 -4.764,-0.508 -4.764,-0.508" style="fill:none;stroke:#000;stroke-width:2px;"/>
        <path d="M19,15c-0,0 0.263,1.571 2.236,2.508c2.56,1.217 4.764,-0.508 4.764,-0.508" style="fill:none;stroke:#000;stroke-width:2px;"/>
        <path d="M8.21,12.44c0.414,0.717 1.72,0.739 2.915,0.049c1.195,-0.69 1.829,-1.832 1.415,-2.549c-0.414,-0.717 -1.72,-0.739 -2.915,-0.049c-1.195,0.69 -1.829,1.832 -1.415,2.549Z"/>
        <path d="M23.79,12.44c-0.414,0.717 -1.72,0.739 -2.915,0.049c-1.195,-0.69 -1.829,-1.832 -1.415,-2.549c0.414,-0.717 1.72,-0.739 2.915,-0.049c1.195,0.69 1.829,1.832 1.415,2.549Z"/>
        <path d="M11.201,27l-0.171,0c-0.689,0 -1.334,-0.338 -1.726,-0.904c-0.392,-0.566 -0.482,-1.288 -0.24,-1.933l0.231,-0.616c1.025,-2.735 3.64,-4.547 6.561,-4.547l0.288,0c2.921,0 5.536,1.812 6.561,4.547l0.231,0.616c0.242,0.645 0.152,1.367 -0.24,1.933c-0.392,0.566 -1.037,0.904 -1.726,0.904l-0.171,-0l-4.884,-1l-4.714,1Z"/>
        <path d="M20.799,27l-0.347,-0.578c-0.901,-1.5 -2.523,-2.418 -4.272,-2.418l-0.36,0c-1.749,0 -3.371,0.918 -4.272,2.418l-0.347,0.578l9.598,-0Z" style="fill:#c33700;"/>
    </g>
</svg>
