<?xml version="1.0" encoding="UTF-8" standalone="no"?>
<!DOCTYPE svg PUBLIC "-//W3C//DTD SVG 1.1//EN" "http://www.w3.org/Graphics/SVG/1.1/DTD/svg11.dtd">
<svg width="100%" height="100%" viewBox="0 0 32 32" version="1.1" xmlns="http://www.w3.org/2000/svg" xmlns:xlink="http://www.w3.org/1999/xlink" xml:space="preserve" xmlns:serif="http://www.serif.com/" style="fill-rule:evenodd;clip-rule:evenodd;stroke-linecap:round;stroke-linejoin:round;stroke-miterlimit:1.5;">
    <rect id="_1f62e_open_mouth" serif:id="1f62e_open_mouth" x="0" y="0" width="32" height="32" style="fill:none;"/>
    <path d="M16,29.5c-8.1,-0 -14,-5.5 -14,-12.5c0,-8.873 7.64,-14 14,-14c6.36,0 14,5.127 14,14c0,7 -5.9,12.5 -14,12.5Z" style="fill:none;stroke:#000;stroke-width:4px;"/>
    <path d="M16,29.5c-8.1,-0 -14,-5.5 -14,-12.5c0,-8.873 7.64,-14 14,-14c6.36,0 14,5.127 14,14c0,7 -5.9,12.5 -14,12.5Z" style="fill:#ffb636;"/>
    <rect x="17" y="7" width="11" height="12" style="fill:none;"/>
    <clipPath id="_clip1">
        <rect x="17" y="7" width="11" height="12"/>
    </clipPath>
    <g clip-path="url(#_clip1)">
        <ellipse cx="22.5" cy="13.5" rx="4.5" ry="5.5" style="fill:#fff;"/>
        <circle cx="21.5" cy="13.5" r="2.5"/>
    </g>
    <rect x="4" y="7" width="11" height="12" style="fill:none;"/>
    <clipPath id="_clip2">
        <rect x="4" y="7" width="11" height="12"/>
    </clipPath>
    <g clip-path="url(#_clip2)">
        <ellipse cx="9.5" cy="13.5" rx="4.5" ry="5.5" style="fill:#fff;"/>
        <circle cx="10.5" cy="13.5" r="2.5"/>
    </g>
    <path d="M18.766,24.162c0.153,-0.365 0.234,-0.759 0.234,-1.162l-0,-0.996c0,-0.795 -0.316,-1.558 -0.879,-2.121c-0.562,-0.563 -1.325,-0.879 -2.121,-0.879c-0.796,0 -1.559,0.316 -2.121,0.879c-0.563,0.563 -0.879,1.326 -0.879,2.121l-0,0.996c-0,0.403 0.081,0.797 0.234,1.162c0.553,-0.71 4.979,-0.71 5.532,-0Z"/>
    <path d="M13.234,24.162c0.149,0.355 0.367,0.682 0.645,0.959c0.562,0.563 1.325,0.879 2.121,0.879c0.796,-0 1.559,-0.316 2.121,-0.879c0.278,-0.277 0.496,-0.604 0.645,-0.959c-0.553,-0.71 -1.414,-1.158 -2.368,-1.158l-0.796,0c-0.954,0 -1.815,0.448 -2.368,1.158Z" style="fill:#c33700;"/>
</svg>
