<?xml version="1.0" encoding="UTF-8" standalone="no"?>
<!DOCTYPE svg PUBLIC "-//W3C//DTD SVG 1.1//EN" "http://www.w3.org/Graphics/SVG/1.1/DTD/svg11.dtd">
<svg width="100%" height="100%" viewBox="0 0 32 32" version="1.1" xmlns="http://www.w3.org/2000/svg" xmlns:xlink="http://www.w3.org/1999/xlink" xml:space="preserve" xmlns:serif="http://www.serif.com/" style="fill-rule:evenodd;clip-rule:evenodd;stroke-linecap:round;stroke-linejoin:round;stroke-miterlimit:1.5;">
    <rect id="_1f62e_etc_exhale" serif:id="1f62e_etc_exhale" x="0" y="0" width="32" height="32" style="fill:none;"/>
    <clipPath id="_clip1">
        <rect x="0" y="0" width="32" height="32"/>
    </clipPath>
    <g clip-path="url(#_clip1)">
        <path d="M16.061,28c-8.1,-0 -14,-4.312 -14,-10.875c-0,-11.25 11,-13.125 14,-13.125c3,-0 14,1.875 14,13.125c-0,6.563 -5.9,10.875 -14,10.875Z" style="fill:none;stroke:#000;stroke-width:4px;"/>
        <path d="M16,24c0,0 -0.022,0.033 -0.062,0.092c-1.168,1.753 -3.293,2.607 -5.349,2.15c-0.995,-0.221 -2.064,-0.459 -2.999,-0.666c-0.63,-0.14 -1.29,0.013 -1.793,0.417c-0.504,0.404 -0.797,1.015 -0.797,1.66c0,0.073 0,0.146 0,0.219c0,1.175 0.953,2.128 2.128,2.128c0.177,0 0.36,0 0.548,0c3.777,-0 7.13,-2.417 8.324,-5.999c-0,-0.001 0,-0.001 -0,-0.001Z" style="fill:none;stroke:#000;stroke-width:4px;"/>
        <path d="M16,24c0,0 -0.022,0.033 -0.062,0.092c-1.168,1.753 -3.293,2.607 -5.349,2.15c-0.995,-0.221 -2.064,-0.459 -2.999,-0.666c-0.63,-0.14 -1.29,0.013 -1.793,0.417c-0.504,0.404 -0.797,1.015 -0.797,1.66c0,0.073 0,0.146 0,0.219c0,1.175 0.953,2.128 2.128,2.128c0.177,0 0.36,0 0.548,0c3.777,-0 7.13,-2.417 8.324,-5.999c-0,-0.001 0,-0.001 -0,-0.001Z" style="fill:#fff;"/>
        <path d="M10,29l3,-2c0,0 -0.941,-1.568 -1.768,-2.947c-0.315,-0.524 -0.837,-0.891 -1.437,-1.008c-0.6,-0.118 -1.221,0.025 -1.71,0.391c-0.031,0.024 -0.062,0.047 -0.094,0.07c-0.5,0.376 -0.813,0.95 -0.858,1.575c-0.044,0.624 0.185,1.237 0.627,1.679c1.073,1.073 2.24,2.24 2.24,2.24Z" style="fill:none;stroke:#000;stroke-width:4px;"/>
        <path d="M10,29l3,-2c0,0 -0.941,-1.568 -1.768,-2.947c-0.315,-0.524 -0.837,-0.891 -1.437,-1.008c-0.6,-0.118 -1.221,0.025 -1.71,0.391c-0.031,0.024 -0.062,0.047 -0.094,0.07c-0.5,0.376 -0.813,0.95 -0.858,1.575c-0.044,0.624 0.185,1.237 0.627,1.679c1.073,1.073 2.24,2.24 2.24,2.24Z" style="fill:#fff;"/>
        <path d="M16,28c-8.1,0 -14,-4.981 -14,-11.321c0,-8.036 7.64,-12.679 14,-12.679c6.36,0 14,4.643 14,12.679c0,6.34 -5.9,11.321 -14,11.321Z" style="fill:none;stroke:#000;stroke-width:4px;"/>
        <path d="M16,28c-8.1,0 -14,-4.981 -14,-11.321c0,-8.036 7.64,-12.679 14,-12.679c6.36,0 14,4.643 14,12.679c0,6.34 -5.9,11.321 -14,11.321Z" style="fill:#ffb636;"/>
        <path d="M8.543,11.448c0.414,0.717 1.72,0.739 2.915,0.049c1.195,-0.69 1.829,-1.832 1.415,-2.549c-0.414,-0.717 -1.72,-0.739 -2.915,-0.049c-1.195,0.689 -1.829,1.832 -1.415,2.549Z"/>
        <path d="M23.457,11.448c-0.414,0.717 -1.72,0.739 -2.915,0.049c-1.195,-0.69 -1.829,-1.832 -1.415,-2.549c0.414,-0.717 1.72,-0.739 2.915,-0.049c1.195,0.689 1.829,1.832 1.415,2.549Z"/>
        <path d="M13,15c0,0 -0,0 -0,0c-1.657,2.209 -4.791,2.657 -7,1c0,0 0,0 0,0" style="fill:none;stroke:#000;stroke-width:2px;"/>
        <path d="M19,15c0,0 0,0.001 0.001,0.002c0.796,1.06 1.98,1.761 3.292,1.949c1.312,0.187 2.645,-0.154 3.705,-0.95c0.001,-0.001 0.002,-0.001 0.002,-0.001" style="fill:none;stroke:#000;stroke-width:2px;"/>
        <path d="M18.767,24.163c0.15,-0.356 0.233,-0.748 0.233,-1.159l0,-0.004c-0,-1.654 -1.341,-2.996 -2.996,-2.996l-0.008,0c-1.655,0 -2.996,1.342 -2.996,2.996l-0,0.004c0,0.411 0.083,0.803 0.233,1.159c0.552,-0.71 4.982,-0.71 5.534,0Z"/>
        <path d="M13.233,24.163c0.453,1.079 1.519,1.837 2.763,1.837l0.008,0c1.244,0 2.31,-0.758 2.763,-1.837c-0.552,-0.71 -1.414,-1.159 -2.369,-1.159l-0.796,0c-0.955,0 -1.817,0.449 -2.369,1.159Z" style="fill:#c33700;"/>
        <path d="M16,24c0,0 -0.022,0.033 -0.062,0.092c-1.168,1.753 -3.293,2.607 -5.349,2.15c-0.995,-0.221 -2.064,-0.459 -2.999,-0.666c-0.63,-0.14 -1.29,0.013 -1.793,0.417c-0.504,0.404 -0.797,1.015 -0.797,1.66c0,0.073 0,0.146 0,0.219c0,1.175 0.953,2.128 2.128,2.128c0.177,0 0.36,0 0.548,0c3.777,-0 7.13,-2.417 8.324,-5.999c-0,-0.001 0,-0.001 0,-0.001Z" style="fill:#fff;"/>
        <path d="M10,29l3,-2c0,0 -0.941,-1.568 -1.768,-2.947c-0.315,-0.524 -0.837,-0.891 -1.437,-1.008c-0.6,-0.118 -1.221,0.025 -1.71,0.391c-0.031,0.024 -0.062,0.047 -0.094,0.07c-0.5,0.376 -0.813,0.95 -0.858,1.575c-0.044,0.624 0.185,1.237 0.627,1.679c1.073,1.073 2.24,2.24 2.24,2.24Z" style="fill:#fff;"/>
    </g>
</svg>
