<?xml version="1.0" encoding="UTF-8" standalone="no"?>
<!DOCTYPE svg PUBLIC "-//W3C//DTD SVG 1.1//EN" "http://www.w3.org/Graphics/SVG/1.1/DTD/svg11.dtd">
<svg width="100%" height="100%" viewBox="0 0 32 32" version="1.1" xmlns="http://www.w3.org/2000/svg" xmlns:xlink="http://www.w3.org/1999/xlink" xml:space="preserve" xmlns:serif="http://www.serif.com/" style="fill-rule:evenodd;clip-rule:evenodd;stroke-linecap:round;stroke-linejoin:round;stroke-miterlimit:1.5;">
    <rect id="_1f922_nauseous" serif:id="1f922_nauseous" x="0" y="0" width="32" height="32" style="fill:none;"/>
    <path d="M16,29.5c-8.1,-0 -14,-5.5 -14,-12.5c0,-10 7.269,-14 14,-14c6.731,-0 14,4 14,14c0,7 -5.9,12.5 -14,12.5Z" style="fill:none;stroke:#000;stroke-width:4px;"/>
    <path d="M2.019,16.13c0.41,-9.363 7.449,-13.13 13.981,-13.13c6.532,-0 13.571,3.767 13.981,13.13c-0.948,-0.706 -3.195,8.865 -3.054,8.855c-2.505,2.772 -6.367,4.515 -10.927,4.515c-4.56,-0 -8.422,-1.743 -10.927,-4.515c0.141,0.01 -2.106,-9.561 -3.054,-8.855Z" style="fill:none;stroke:#000;stroke-width:4px;"/>
    <path d="M2.019,16.13c0.41,-9.363 7.449,-13.13 13.981,-13.13c6.532,-0 13.571,3.767 13.981,13.13c-0.948,-0.706 -3.195,8.865 -3.054,8.855c-2.505,2.772 -6.367,4.515 -10.927,4.515c-4.56,-0 -8.422,-1.743 -10.927,-4.515c0.141,0.01 -2.106,-9.561 -3.054,-8.855Z" style="fill:#8cc31c;"/>
    <path d="M26.927,24.985c-0.141,0.01 -0.283,0.015 -0.427,0.015c-3.036,0 -5.5,-2.24 -5.5,-5c-0,-2.76 2.464,-5 5.5,-5c1.32,0 2.533,0.424 3.481,1.13c0.013,0.285 0.019,0.575 0.019,0.87c0,3.06 -1.127,5.833 -3.073,7.985Z" style="fill:#6d9816;"/>
    <path d="M5.073,24.985c-1.946,-2.152 -3.073,-4.925 -3.073,-7.985c-0,-0.295 0.006,-0.585 0.019,-0.87c0.948,-0.706 2.161,-1.13 3.481,-1.13c3.036,-0 5.5,2.24 5.5,5c-0,2.76 -2.464,5 -5.5,5c-0.144,-0 -0.286,-0.005 -0.427,-0.015Z" style="fill:#6d9816;"/>
    <path d="M9.941,8.232c-0.586,0.586 -0.269,1.853 0.707,2.829c0.975,0.975 2.243,1.292 2.828,0.707c0.585,-0.586 0.269,-1.853 -0.707,-2.829c-0.976,-0.975 -2.243,-1.292 -2.828,-0.707Z"/>
    <path d="M22.059,8.232c0.586,0.586 0.269,1.853 -0.707,2.829c-0.975,0.975 -2.243,1.292 -2.828,0.707c-0.585,-0.586 -0.269,-1.853 0.707,-2.829c0.976,-0.975 2.243,-1.292 2.828,-0.707Z"/>
    <path d="M19,15.996c0,-0 0.002,-0.004 0.006,-0.01c1.196,-1.793 3.39,-2.641 5.481,-2.119c0.312,0.078 0.513,0.129 0.513,0.129" style="fill:none;stroke:#000;stroke-width:2px;"/>
    <path d="M13,16c0,-0 -0.002,-0.003 -0.006,-0.01c-1.196,-1.793 -3.39,-2.641 -5.481,-2.118c-0.312,0.078 -0.513,0.128 -0.513,0.128" style="fill:none;stroke:#000;stroke-width:2px;"/>
    <path d="M10,22l1,-2l3,1.5l2,-1.5l2,1.5l3,-1.5l1,2" style="fill:none;stroke:#32450a;stroke-width:2px;"/>
</svg>
