<?xml version="1.0" encoding="UTF-8" standalone="no"?>
<!DOCTYPE svg PUBLIC "-//W3C//DTD SVG 1.1//EN" "http://www.w3.org/Graphics/SVG/1.1/DTD/svg11.dtd">
<svg width="100%" height="100%" viewBox="0 0 32 32" version="1.1" xmlns="http://www.w3.org/2000/svg" xmlns:xlink="http://www.w3.org/1999/xlink" xml:space="preserve" xmlns:serif="http://www.serif.com/" style="fill-rule:evenodd;clip-rule:evenodd;stroke-linecap:round;stroke-linejoin:round;stroke-miterlimit:1.5;">
    <rect id="_1f92f_mind_blown" serif:id="1f92f_mind_blown" x="0" y="0" width="32" height="32" style="fill:none;"/>
    <clipPath id="_clip1">
        <rect x="0" y="0" width="32" height="32"/>
    </clipPath>
    <g clip-path="url(#_clip1)">
        <path d="M21,11.191c0.113,0.022 0.219,0.082 0.296,0.179l1.926,2.408l4.849,-1.492c0.179,-0.055 0.374,-0.006 0.505,0.128c0.131,0.134 0.176,0.33 0.117,0.508l-1.693,5.078l1.442,-0.721c0.137,-0.069 0.297,-0.071 0.436,-0.006c0.139,0.065 0.24,0.19 0.275,0.34c0.292,1.204 0.908,3.837 0.908,4.684c-0,4.648 -5.9,7.703 -14,7.703c-8.1,-0 -14,-3.055 -14,-7.703c-0,-1.409 0.544,-3.74 0.804,-4.775c0.033,-0.135 0.122,-0.249 0.244,-0.316c0.122,-0.067 0.266,-0.08 0.398,-0.036c0.191,0.063 0.427,0.142 0.693,0.23l-0.972,-4.375c-0.042,-0.188 0.028,-0.383 0.18,-0.502c0.152,-0.119 0.359,-0.139 0.532,-0.053l2.825,1.412l1.014,-2.367c0.056,-0.131 0.166,-0.231 0.301,-0.277c0.01,-0.003 0.021,-0.006 0.031,-0.009c-0.167,-0.038 -0.333,-0.088 -0.497,-0.151c-1.892,-0.719 -2.855,-2.863 -1.958,-4.643c1.026,-2.033 3.154,-2.753 4.852,-2.092c0.054,0.021 0.106,0.043 0.157,0.065c0.288,-0.779 0.831,-1.456 1.731,-1.768c1.176,-0.408 2.081,-0.212 2.709,0.306c0.979,-1.057 3.684,-1.601 5.332,0.117c0.543,0.564 0.858,1.096 1.003,1.588c0.606,-0.229 1.335,-0.281 2.192,-0.056c2.994,0.785 3.204,4.678 1.649,6.007c-1.21,1.034 -2.962,1.104 -4.281,0.445l0,0.144Zm-12.477,0.108l2.477,1.415l0,-1.974c-0.713,0.448 -1.595,0.66 -2.477,0.559Z" style="fill:none;stroke:#000;stroke-width:4px;"/>
        <path d="M21,11.191c0.113,0.022 0.219,0.082 0.296,0.179l1.926,2.408l4.849,-1.492c0.179,-0.055 0.374,-0.006 0.505,0.128c0.131,0.134 0.176,0.33 0.117,0.508l-1.693,5.078l1.442,-0.721c0.137,-0.069 0.297,-0.071 0.436,-0.006c0.139,0.065 0.24,0.19 0.275,0.34c0.292,1.204 0.908,3.837 0.908,4.684c-0,4.648 -5.9,7.703 -14,7.703c-8.1,-0 -14,-3.055 -14,-7.703c-0,-1.409 0.544,-3.74 0.804,-4.775c0.033,-0.135 0.122,-0.249 0.244,-0.316c0.122,-0.067 0.266,-0.08 0.398,-0.036c0.191,0.063 0.427,0.142 0.693,0.23l-0.972,-4.375c-0.042,-0.188 0.028,-0.383 0.18,-0.502c0.152,-0.119 0.359,-0.139 0.532,-0.053l2.825,1.412l1.014,-2.367c0.056,-0.131 0.166,-0.231 0.301,-0.277c0.01,-0.003 0.021,-0.006 0.031,-0.009c-0.167,-0.038 -0.333,-0.088 -0.497,-0.151c-1.892,-0.719 -2.855,-2.863 -1.958,-4.643c1.026,-2.033 3.154,-2.753 4.852,-2.092c0.054,0.021 0.106,0.043 0.157,0.065c0.288,-0.779 0.831,-1.456 1.731,-1.768c1.176,-0.408 2.081,-0.212 2.709,0.306c0.979,-1.057 3.684,-1.601 5.332,0.117c0.543,0.564 0.858,1.096 1.003,1.588c0.606,-0.229 1.335,-0.281 2.192,-0.056c2.994,0.785 3.204,4.678 1.649,6.007c-1.21,1.034 -2.962,1.104 -4.281,0.445l0,0.144Zm-12.477,0.108l2.477,1.415l0,-1.974c-0.713,0.448 -1.595,0.66 -2.477,0.559Z" style="fill:#808080;"/>
        <path d="M11,10.74c-0.96,0.604 -2.227,0.778 -3.386,0.338c-1.892,-0.719 -2.855,-2.863 -1.958,-4.643c1.026,-2.033 3.154,-2.753 4.852,-2.092c0.054,0.021 0.106,0.043 0.157,0.065c0.288,-0.779 0.831,-1.456 1.731,-1.768c1.176,-0.408 2.081,-0.212 2.709,0.306c0.979,-1.057 3.684,-1.601 5.332,0.117c0.543,0.564 0.858,1.096 1.003,1.588c0.606,-0.229 1.335,-0.281 2.192,-0.056c2.994,0.785 3.204,4.678 1.649,6.007c-1.21,1.034 -2.962,1.104 -4.281,0.445c-0.829,-0.414 -0.801,1.337 -0,1.607l0,12.346l-10,-0l0,-12.588c0.906,-0.373 0.689,-2.106 0,-1.672Z" style="fill:none;stroke:#000;stroke-width:4px;"/>
        <path d="M11,10.74c-0.96,0.604 -2.227,0.778 -3.386,0.338c-1.892,-0.719 -2.855,-2.863 -1.958,-4.643c1.026,-2.033 3.154,-2.753 4.852,-2.092c0.054,0.021 0.106,0.043 0.157,0.065c0.288,-0.779 0.831,-1.456 1.731,-1.768c1.176,-0.408 2.081,-0.212 2.709,0.306c0.979,-1.057 3.684,-1.601 5.332,0.117c0.543,0.564 0.858,1.096 1.003,1.588c0.606,-0.229 1.335,-0.281 2.192,-0.056c2.994,0.785 3.204,4.678 1.649,6.007c-1.21,1.034 -2.962,1.104 -4.281,0.445c-0.829,-0.414 -0.801,1.337 -0,1.607l0,12.346l-10,-0l0,-12.588c0.906,-0.373 0.689,-2.106 0,-1.672Z" style="fill:#808080;"/>
        <path d="M11,10.74c0.689,-0.434 1.219,-1.089 1.436,-1.896c0.04,-0.151 0.074,-0.304 0.101,-0.457c0.107,0.041 0.212,0.096 0.311,0.164c0.683,0.468 0.857,1.402 0.389,2.085c-0.542,0.79 -1.331,1.403 -2.237,1.776l0,-1.672Zm10,1.914c-0.801,-0.27 -1.529,-0.716 -2.092,-1.315c-0.568,-0.602 -0.539,-1.552 0.064,-2.12c0.091,-0.086 0.191,-0.159 0.296,-0.217c0.246,0.93 0.903,1.631 1.732,2.045l-0,1.607Z" style="fill:#565656;"/>
        <path id="bang" d="M27,21l-13,0l0,-1l-1,0l-0,1l-8,0l-1.772,-7.975c-0.042,-0.188 0.028,-0.383 0.18,-0.502c0.152,-0.119 0.359,-0.139 0.532,-0.053l2.825,1.412l1.014,-2.367c0.056,-0.131 0.166,-0.231 0.301,-0.277c0.135,-0.045 0.283,-0.031 0.407,0.04l3.75,2.143l2.397,-3.835c0.085,-0.136 0.23,-0.223 0.39,-0.234c0.16,-0.011 0.315,0.055 0.418,0.179l2.842,3.409l2.331,-1.665c0.216,-0.154 0.515,-0.113 0.681,0.095l1.926,2.408l4.849,-1.492c0.179,-0.055 0.374,-0.006 0.505,0.128c0.131,0.134 0.176,0.33 0.117,0.508l-1.693,5.078l0,3Z" style="fill:#fd0024;"/>
        <path d="M23,21l-15,0l0,-2l0.861,-3.444c0.035,-0.14 0.129,-0.258 0.258,-0.324c0.128,-0.066 0.279,-0.073 0.413,-0.019l2.93,1.172l2.192,-2.924c0.087,-0.116 0.22,-0.188 0.365,-0.199c0.144,-0.01 0.286,0.043 0.389,0.146l2.925,2.925l2.22,-1.109c0.247,-0.124 0.547,-0.024 0.671,0.223l1.776,3.553l0,2Z" style="fill:#ff605a;"/>
        <path d="M2.061,22.297c-0,-1.409 0.544,-3.74 0.804,-4.775c0.033,-0.135 0.122,-0.249 0.244,-0.316c0.122,-0.067 0.266,-0.08 0.398,-0.036c1.447,0.481 5.493,1.83 5.493,1.83c-0,0 2.046,-1.364 2.759,-1.839c0.149,-0.1 0.34,-0.111 0.501,-0.031c0.886,0.443 3.74,1.87 3.74,1.87c0,-0 5.156,-2.21 6.618,-2.836c0.221,-0.095 0.479,-0.018 0.613,0.182c0.526,0.789 1.769,2.654 1.769,2.654c-0,-0 2.342,-1.171 3.442,-1.721c0.137,-0.069 0.297,-0.071 0.436,-0.006c0.139,0.065 0.24,0.19 0.275,0.34c0.292,1.204 0.908,3.837 0.908,4.684c-0,4.648 -5.9,7.703 -14,7.703l-0,-0c-8.1,-0 -14,-3.055 -14,-7.703Z" style="fill:#ffb636;"/>
        <circle cx="8.5" cy="21.5" r="1.5"/>
        <circle cx="23.5" cy="21.5" r="1.5"/>
        <path d="M12.975,28l-1.756,-0c-0.595,-0 -1.137,-0.341 -1.394,-0.877c-0.258,-0.536 -0.186,-1.172 0.186,-1.637l0.262,-0.327c1.091,-1.365 2.744,-2.159 4.492,-2.159l2.47,0c1.748,0 3.401,0.794 4.492,2.159l0.262,0.327c0.372,0.465 0.444,1.101 0.186,1.637c-0.257,0.536 -0.799,0.877 -1.394,0.877l-1.599,0c-0.576,-0.625 -5.535,-0.629 -6.207,0Z"/>
        <path d="M12.975,28c0.672,-0.629 1.57,-1 2.53,-1l1.396,0c0.883,-0 1.705,0.375 2.281,1l-6.207,0Z" style="fill:#c33700;"/>
    </g>
</svg>
