<?xml version="1.0" encoding="UTF-8" standalone="no"?>
<!DOCTYPE svg PUBLIC "-//W3C//DTD SVG 1.1//EN" "http://www.w3.org/Graphics/SVG/1.1/DTD/svg11.dtd">
<svg width="100%" height="100%" viewBox="0 0 32 32" version="1.1" xmlns="http://www.w3.org/2000/svg" xmlns:xlink="http://www.w3.org/1999/xlink" xml:space="preserve" xmlns:serif="http://www.serif.com/" style="fill-rule:evenodd;clip-rule:evenodd;stroke-linecap:round;stroke-linejoin:round;stroke-miterlimit:1.5;">
    <rect id="_1f924_drooling" serif:id="1f924_drooling" x="0" y="0" width="32" height="32" style="fill:none;"/>
    <clipPath id="_clip1">
        <rect x="0" y="0" width="32" height="32"/>
    </clipPath>
    <g clip-path="url(#_clip1)">
        <path d="M16,29.5c-8.1,0 -14,-4.5 -14,-11.5c0,-8.873 6.073,-15 14,-15c7.927,0 14,6.127 14,15c0,7 -5.9,11.5 -14,11.5Z" style="fill:none;stroke:#000;stroke-width:4px;"/>
        <path d="M15.5,29.494c-7.842,-0.181 -13.5,-4.639 -13.5,-11.494c0,-8.873 6.073,-15 14,-15c7.927,0 14,6.127 14,15c0,5.622 -3.806,9.631 -9.5,10.992l-5,0.502Z" style="fill:none;stroke:#000;stroke-width:4px;"/>
        <path d="M15.5,29.494c-7.842,-0.181 -13.5,-4.639 -13.5,-11.494c0,-8.873 6.073,-15 14,-15c7.927,0 14,6.127 14,15c0,5.622 -3.806,9.631 -9.5,10.992l-5,0.502Z" style="fill:#ffb636;"/>
        <path d="M13,14l-7,0" style="fill:none;stroke:#000;stroke-width:2px;"/>
        <path d="M19,14l7,0" style="fill:none;stroke:#000;stroke-width:2px;"/>
        <path d="M8.293,9.234c0.215,0.8 1.471,1.159 2.804,0.802c1.332,-0.357 2.24,-1.296 2.026,-2.096c-0.214,-0.8 -1.47,-1.159 -2.803,-0.802c-1.333,0.357 -2.241,1.296 -2.027,2.096Z"/>
        <path d="M23.707,9.234c-0.215,0.8 -1.471,1.159 -2.804,0.802c-1.332,-0.357 -2.24,-1.296 -2.026,-2.096c0.214,-0.8 1.47,-1.159 2.803,-0.802c1.333,0.357 2.241,1.296 2.027,2.096Z"/>
        <path d="M21.28,24.383c1.183,-0.894 2.121,-2.119 2.666,-3.572l0.548,-1.462c0.115,-0.307 0.073,-0.65 -0.114,-0.919c-0.186,-0.269 -0.493,-0.43 -0.82,-0.43l-15.12,-0c-0.327,0 -0.634,0.161 -0.82,0.43c-0.187,0.269 -0.229,0.612 -0.114,0.919l0.548,1.462c0.545,1.453 1.483,2.678 2.666,3.572c0.967,-0.872 9.593,-0.872 10.56,0Z"/>
        <path d="M15.5,23.004l-1.194,0c-1.348,0 -2.619,0.507 -3.586,1.379c1.348,1.018 3.014,1.608 4.78,1.617c0.733,-1.09 0.745,-2.09 0,-2.996Z" style="fill:#c33700;"/>
        <path d="M20.5,24.903c0.27,-0.158 0.53,-0.331 0.78,-0.52c-0.242,-0.218 -0.503,-0.414 -0.78,-0.584c-0.485,0.465 -0.439,0.824 0,1.104Z" style="fill:#c33700;"/>
        <path d="M20.5,28.992c-1.396,0.334 -2.905,0.508 -4.5,0.508c-0.168,0 -0.334,-0.002 -0.5,-0.006l0,-6.49l2.194,0c1.011,0 1.978,0.285 2.806,0.795l0,5.193Z" style="fill:#3fa7ff;"/>
    </g>
</svg>
