<?xml version="1.0" encoding="UTF-8" standalone="no"?>
<!DOCTYPE svg PUBLIC "-//W3C//DTD SVG 1.1//EN" "http://www.w3.org/Graphics/SVG/1.1/DTD/svg11.dtd">
<svg width="100%" height="100%" viewBox="0 0 32 32" version="1.1" xmlns="http://www.w3.org/2000/svg" xmlns:xlink="http://www.w3.org/1999/xlink" xml:space="preserve" xmlns:serif="http://www.serif.com/" style="fill-rule:evenodd;clip-rule:evenodd;stroke-linecap:round;stroke-linejoin:round;stroke-miterlimit:1.5;">
    <rect id="_1f972_smile_with_tear" serif:id="1f972_smile_with_tear" x="0" y="0" width="32" height="32" style="fill:none;"/>
    <clipPath id="_clip1">
        <rect x="0" y="0" width="32" height="32"/>
    </clipPath>
    <g clip-path="url(#_clip1)">
        <path d="M27,19c0,0 -1.618,2.831 -2.795,4.892c-0.712,1.245 -0.502,2.811 0.512,3.825c0.012,0.012 0.024,0.024 0.035,0.035c1.242,1.242 3.254,1.242 4.496,0c0.011,-0.011 0.023,-0.023 0.035,-0.035c1.014,-1.014 1.224,-2.58 0.512,-3.825c-1.177,-2.061 -2.795,-4.892 -2.795,-4.892Z" style="fill:none;stroke:#000;stroke-width:4px;"/>
        <path d="M27,19c0,0 -1.618,2.831 -2.795,4.892c-0.712,1.245 -0.502,2.811 0.512,3.825c0.012,0.012 0.024,0.024 0.035,0.035c1.242,1.242 3.254,1.242 4.496,0c0.011,-0.011 0.023,-0.023 0.035,-0.035c1.014,-1.014 1.224,-2.58 0.512,-3.825c-1.177,-2.061 -2.795,-4.892 -2.795,-4.892Z" style="fill:#3fa7ff;"/>
        <path d="M16,29.5c-8.1,-0 -14,-5.5 -14,-12.5c0,-8.873 7.64,-14 14,-14c6.36,0 14,5.127 14,14c0,7 -5.9,12.5 -14,12.5Z" style="fill:none;stroke:#000;stroke-width:4px;"/>
        <path d="M16,29.5c-8.1,-0 -14,-5.5 -14,-12.5c0,-8.873 7.64,-14 14,-14c6.36,0 14,5.127 14,14c0,7 -5.9,12.5 -14,12.5Z" style="fill:#ffb636;"/>
        <path d="M27,19c0,0 -1.618,2.831 -2.795,4.892c-0.712,1.245 -0.502,2.811 0.512,3.825c0.012,0.012 0.024,0.024 0.035,0.035c1.242,1.242 3.254,1.242 4.496,0c0.011,-0.011 0.023,-0.023 0.035,-0.035c1.014,-1.014 1.224,-2.58 0.512,-3.825c-1.177,-2.061 -2.795,-4.892 -2.795,-4.892Z" style="fill:#3fa7ff;"/>
        <path d="M22.5,20c-2.484,0 -4.5,-2.464 -4.5,-5.5c0,-2.314 1.172,-4.296 2.829,-5.108l5.353,1.947c0.515,0.894 0.818,1.985 0.818,3.161c0,3.036 -2.016,5.5 -4.5,5.5Zm-13,0c-2.484,0 -4.5,-2.464 -4.5,-5.5c-0,-1.176 0.303,-2.267 0.818,-3.161l5.353,-1.947c1.657,0.812 2.829,2.794 2.829,5.108c-0,3.036 -2.016,5.5 -4.5,5.5Z" style="fill:#fff;"/>
        <path d="M10.5,11c1.38,-0 2.5,1.568 2.5,3.5c-0,1.932 -1.12,3.5 -2.5,3.5c-1.38,-0 -2.5,-1.568 -2.5,-3.5c-0,-1.932 1.12,-3.5 2.5,-3.5Zm11,-0c1.38,-0 2.5,1.568 2.5,3.5c-0,1.932 -1.12,3.5 -2.5,3.5c-1.38,-0 -2.5,-1.568 -2.5,-3.5c-0,-1.932 1.12,-3.5 2.5,-3.5Z"/>
        <path d="M12,22.5c0,0 0,0 0.001,0.001c1.06,1.06 2.499,1.656 3.999,1.656c1.5,0 2.939,-0.596 3.999,-1.656c0.001,-0.001 0.001,-0.001 0.001,-0.001" style="fill:none;stroke:#694300;stroke-width:2px;"/>
        <path d="M8.543,8.448c0.414,0.717 1.72,0.739 2.915,0.049c1.195,-0.69 1.829,-1.832 1.415,-2.549c-0.414,-0.717 -1.72,-0.739 -2.915,-0.049c-1.195,0.689 -1.829,1.832 -1.415,2.549Z"/>
        <path d="M23.457,8.448c-0.414,0.717 -1.72,0.739 -2.915,0.049c-1.195,-0.69 -1.829,-1.832 -1.415,-2.549c0.414,-0.717 1.72,-0.739 2.915,-0.049c1.195,0.689 1.829,1.832 1.415,2.549Z"/>
    </g>
</svg>
