<?xml version="1.0" encoding="UTF-8" standalone="no"?>
<!DOCTYPE svg PUBLIC "-//W3C//DTD SVG 1.1//EN" "http://www.w3.org/Graphics/SVG/1.1/DTD/svg11.dtd">
<svg width="100%" height="100%" viewBox="0 0 32 32" version="1.1" xmlns="http://www.w3.org/2000/svg" xmlns:xlink="http://www.w3.org/1999/xlink" xml:space="preserve" xmlns:serif="http://www.serif.com/" style="fill-rule:evenodd;clip-rule:evenodd;stroke-linecap:round;stroke-linejoin:round;stroke-miterlimit:1.5;">
    <rect id="_1f9d0_monocle" serif:id="1f9d0_monocle" x="0" y="0" width="32" height="32" style="fill:none;"/>
    <clipPath id="_clip1">
        <rect x="0" y="0" width="32" height="32"/>
    </clipPath>
    <g clip-path="url(#_clip1)">
        <path d="M2,29l-0,-14c0,-0.198 0.077,-0.378 0.202,-0.512c1.357,-8.164 9.24,-11.488 13.798,-11.488c5,0 14,4 14,14c-0,7 -5.9,12.5 -14,12.5c-5.664,0 -10.253,-2.689 -12.5,-6.701l-0,6.201c0,0.414 -0.336,0.75 -0.75,0.75c-0.414,0 -0.75,-0.336 -0.75,-0.75Z" style="fill:none;stroke:#000;stroke-width:4px;"/>
        <path d="M16,29.5c-8.1,0 -14,-5.5 -14,-12.5c0,-8.873 7.64,-14 14,-14c6.36,0 14,5.127 14,14c0,7 -5.9,12.5 -14,12.5Z" style="fill:none;stroke:#000;stroke-width:4px;"/>
        <path d="M16,29.5c-8.1,0 -14,-5.5 -14,-12.5c0,-8.873 7.64,-14 14,-14c6.36,0 14,5.127 14,14c0,7 -5.9,12.5 -14,12.5Z" style="fill:#ffb636;"/>
        <path d="M22.5,19c-2.484,0 -4.5,-2.464 -4.5,-5.5c0,-1.092 0.261,-2.11 0.711,-2.967l6.187,-1.687c1.263,0.975 2.102,2.695 2.102,4.654c0,3.036 -2.016,5.5 -4.5,5.5Z" style="fill:#fff;"/>
        <ellipse cx="21.5" cy="13.5" rx="2.5" ry="3.5"/>
        <path d="M2,15c0,-0.414 0.336,-0.75 0.75,-0.75c0.414,0 0.75,0.336 0.75,0.75l-0,14c0,0.414 -0.336,0.75 -0.75,0.75c-0.414,0 -0.75,-0.336 -0.75,-0.75l-0,-14Z" style="fill:#9d9d9d;"/>
        <path d="M9.859,13.01c0.546,-0.078 1.053,0.302 1.131,0.849c0.078,0.546 -0.302,1.053 -0.849,1.131l-7,1c-0.546,0.078 -1.053,-0.302 -1.131,-0.849c-0.078,-0.546 0.302,-1.053 0.849,-1.131l7,-1Z" style="fill:#606060;"/>
        <circle cx="10" cy="14" r="6" style="fill:#fff;"/>
        <ellipse cx="10.5" cy="13.5" rx="2.5" ry="3.5"/>
        <path d="M11.122,23.004c-0,0 2.08,-1.5 4.939,-1.5c2.859,0 4.939,1.5 4.939,1.5" style="fill:none;stroke:#694300;stroke-width:2px;"/>
        <path d="M9.293,5.353c0.215,-0.8 1.471,-1.159 2.804,-0.802c1.332,0.357 2.24,1.296 2.026,2.096c-0.214,0.8 -1.47,1.159 -2.803,0.802c-1.333,-0.357 -2.241,-1.296 -2.027,-2.096Zm13.414,1.573c0.214,0.8 -0.694,1.739 -2.027,2.096c-1.333,0.357 -2.589,-0.002 -2.803,-0.802c-0.214,-0.8 0.694,-1.739 2.026,-2.096c1.333,-0.357 2.589,0.002 2.804,0.802Z"/>
        <path d="M10,7.25c3.725,0 6.75,3.025 6.75,6.75c-0,3.725 -3.025,6.75 -6.75,6.75c-3.725,-0 -6.75,-3.025 -6.75,-6.75c0,-3.725 3.025,-6.75 6.75,-6.75Zm-0,1.5c-2.898,0 -5.25,2.352 -5.25,5.25c0,2.898 2.352,5.25 5.25,5.25c2.898,-0 5.25,-2.352 5.25,-5.25c-0,-2.898 -2.352,-5.25 -5.25,-5.25Z" style="fill:#595040;"/>
    </g>
</svg>
