<?xml version="1.0" encoding="UTF-8" standalone="no"?>
<!DOCTYPE svg PUBLIC "-//W3C//DTD SVG 1.1//EN" "http://www.w3.org/Graphics/SVG/1.1/DTD/svg11.dtd">
<svg width="100%" height="100%" viewBox="0 0 32 32" version="1.1" xmlns="http://www.w3.org/2000/svg" xmlns:xlink="http://www.w3.org/1999/xlink" xml:space="preserve" xmlns:serif="http://www.serif.com/" style="fill-rule:evenodd;clip-rule:evenodd;stroke-linecap:round;stroke-linejoin:round;stroke-miterlimit:1.5;">
    <rect id="_1fae4_diagonal_mouth" serif:id="1fae4_diagonal_mouth" x="0" y="0" width="32" height="32" style="fill:none;"/>
    <path d="M16,29.5c-8.1,-0 -14,-5.5 -14,-12.5c0,-8.873 7.64,-14 14,-14c6.36,0 14,5.127 14,14c0,7 -5.9,12.5 -14,12.5Z" style="fill:none;stroke:#000;stroke-width:4px;"/>
    <path d="M16,29.5c-8.1,-0 -14,-5.5 -14,-12.5c0,-8.873 7.64,-14 14,-14c6.36,0 14,5.127 14,14c0,7 -5.9,12.5 -14,12.5Z" style="fill:#ffb636;"/>
    <path d="M10.061,23.004l12,-2" style="fill:none;stroke:#694300;stroke-width:2px;"/>
    <rect x="17" y="7" width="11" height="12" style="fill:none;"/>
    <clipPath id="_clip1">
        <rect x="17" y="7" width="11" height="12"/>
    </clipPath>
    <g clip-path="url(#_clip1)">
        <ellipse cx="22.5" cy="13.5" rx="4.5" ry="5.5" style="fill:#fff;"/>
        <circle cx="21.5" cy="13.5" r="2.5"/>
        <ellipse cx="21.5" cy="13.5" rx="2.5" ry="3.5"/>
    </g>
    <rect x="4" y="7" width="11" height="12" style="fill:none;"/>
    <clipPath id="_clip2">
        <rect x="4" y="7" width="11" height="12"/>
    </clipPath>
    <g clip-path="url(#_clip2)">
        <ellipse cx="9.5" cy="13.5" rx="4.5" ry="5.5" style="fill:#fff;"/>
        <ellipse cx="10.5" cy="13.5" rx="2.5" ry="3.456"/>
    </g>
</svg>
