<?xml version="1.0" encoding="UTF-8" standalone="no"?>
<!DOCTYPE svg PUBLIC "-//W3C//DTD SVG 1.1//EN" "http://www.w3.org/Graphics/SVG/1.1/DTD/svg11.dtd">
<svg width="100%" height="100%" viewBox="0 0 32 32" version="1.1" xmlns="http://www.w3.org/2000/svg" xmlns:xlink="http://www.w3.org/1999/xlink" xml:space="preserve" xmlns:serif="http://www.serif.com/" style="fill-rule:evenodd;clip-rule:evenodd;stroke-linecap:round;stroke-linejoin:round;stroke-miterlimit:1.5;">
    <rect id="mtnt_uwu" x="0" y="0" width="32" height="32" style="fill:none;"/>
    <clipPath id="_clip1">
        <rect x="0" y="0" width="32" height="32"/>
    </clipPath>
    <g clip-path="url(#_clip1)">
        <path d="M16,29.5c-8.1,0 -14,-5.5 -14,-12.5c0,-8.873 7.64,-14 14,-14c6.36,0 14,5.127 14,14c0,7 -5.9,12.5 -14,12.5Z" style="fill:none;stroke:#000;stroke-width:4px;"/>
        <path d="M16,29.5c-8.1,0 -14,-5.5 -14,-12.5c0,-8.873 7.64,-14 14,-14c6.36,0 14,5.127 14,14c0,7 -5.9,12.5 -14,12.5Z" style="fill:#ffb636;"/>
        <path d="M10,21.5c0,0 0.168,0.503 0.365,1.096c0.379,1.137 1.443,1.904 2.642,1.904c0.022,0 0.043,0 0.065,0c0.602,-0 1.189,-0.195 1.67,-0.557c0.57,-0.427 1.258,-0.943 1.258,-0.943c0,0 0.688,0.516 1.258,0.943c0.481,0.362 1.068,0.557 1.67,0.557c0.022,0 0.043,0 0.065,0c1.199,0 2.263,-0.767 2.642,-1.904c0.197,-0.593 0.365,-1.096 0.365,-1.096" style="fill:none;stroke:#694300;stroke-width:2px;"/>
        <path d="M13,15c0,0 -0.097,3.171 -3.301,3.351c-2.752,0.154 -3.699,-2.351 -3.699,-2.351" style="fill:none;stroke:#000;stroke-width:2px;"/>
        <path d="M19,15c-0,0 0.097,3.171 3.301,3.351c2.752,0.154 3.699,-2.351 3.699,-2.351" style="fill:none;stroke:#000;stroke-width:2px;"/>
        <path d="M8.543,10.448c0.414,0.717 1.72,0.739 2.915,0.049c1.195,-0.69 1.829,-1.832 1.415,-2.549c-0.414,-0.717 -1.72,-0.739 -2.915,-0.049c-1.195,0.689 -1.829,1.832 -1.415,2.549Z"/>
        <path d="M23.457,10.448c-0.414,0.717 -1.72,0.739 -2.915,0.049c-1.195,-0.69 -1.829,-1.832 -1.415,-2.549c0.414,-0.717 1.72,-0.739 2.915,-0.049c1.195,0.689 1.829,1.832 1.415,2.549Z"/>
    </g>
</svg>
