<?xml version="1.0" encoding="UTF-8" standalone="no"?><!DOCTYPE svg PUBLIC "-//W3C//DTD SVG 1.1//EN" "http://www.w3.org/Graphics/SVG/1.1/DTD/svg11.dtd"><svg width="100%" height="100%" viewBox="0 0 32 32" version="1.1" xmlns="http://www.w3.org/2000/svg" xmlns:xlink="http://www.w3.org/1999/xlink" xml:space="preserve" xmlns:serif="http://www.serif.com/" style="fill-rule:evenodd;clip-rule:evenodd;stroke-linecap:round;stroke-linejoin:round;stroke-miterlimit:1.5;"><rect id="eye" x="0" y="0" width="32" height="32" style="fill:none;"/><clipPath id="_clip1"><rect x="0" y="0" width="32" height="32"/></clipPath><g clip-path="url(#_clip1)"><g id="outline"><path d="M2,16c0,0 1.796,-1.796 4.1,-4.1c2.626,-2.626 6.187,-4.101 9.9,-4.101c3.713,0 7.274,1.475 9.9,4.101c2.304,2.304 4.1,4.1 4.1,4.1c0,0 -1.796,1.796 -4.1,4.1c-2.626,2.626 -6.187,4.101 -9.9,4.101c-3.713,0 -7.274,-1.475 -9.9,-4.101c-2.304,-2.304 -4.1,-4.1 -4.1,-4.1Z" style="fill:none;stroke:#000;stroke-width:4px;"/></g><g id="emoji"><path d="M11.083,8.691c-1.876,1.465 11.462,1.271 9.834,0c1.853,0.695 3.556,1.782 4.983,3.209c2.304,2.304 4.1,4.1 4.1,4.1c0,0 -1.796,1.796 -4.1,4.1c-2.626,2.626 -6.187,4.101 -9.9,4.101c-3.713,0 -7.274,-1.475 -9.9,-4.101c-2.304,-2.304 -4.1,-4.1 -4.1,-4.1c0,0 1.796,-1.796 4.1,-4.1c1.427,-1.427 3.13,-2.514 4.983,-3.209Z" style="fill:#fff;"/><path d="M11.083,8.691c1.558,-0.584 3.221,-0.892 4.917,-0.892c1.696,0 3.36,0.308 4.917,0.892c1.628,1.271 2.752,3.158 3.021,5.309l-2.938,6l-6,2.938c-3.944,-0.493 -7,-3.861 -7,-7.938c0,-2.562 1.207,-4.844 3.083,-6.309Z" style="fill:#666;"/><path d="M23.938,14c0.041,0.328 0.062,0.661 0.062,1c0,4.415 -3.585,8 -8,8c-0.339,0 -0.672,-0.021 -1,-0.062l0,-1.938c0,-0.265 0.105,-0.52 0.293,-0.707c0.187,-0.188 0.442,-0.293 0.707,-0.293c2.761,0 5,-2.239 5,-5c0,-0.265 0.105,-0.52 0.293,-0.707c0.187,-0.188 0.442,-0.293 0.707,-0.293l1.938,0Z" style="fill:#454545;"/><circle cx="16" cy="15" r="4"/><circle cx="13" cy="12" r="3" style="fill:#fff;fill-opacity:0.498039;"/></g></g></svg>