<?xml version="1.0" encoding="UTF-8" standalone="no"?><!DOCTYPE svg PUBLIC "-//W3C//DTD SVG 1.1//EN" "http://www.w3.org/Graphics/SVG/1.1/DTD/svg11.dtd"><svg width="100%" height="100%" viewBox="0 0 32 32" version="1.1" xmlns="http://www.w3.org/2000/svg" xmlns:xlink="http://www.w3.org/1999/xlink" xml:space="preserve" xmlns:serif="http://www.serif.com/" style="fill-rule:evenodd;clip-rule:evenodd;stroke-linecap:round;stroke-linejoin:round;stroke-miterlimit:1.5;"><rect id="eyes" x="0" y="0" width="32" height="32" style="fill:none;"/><clipPath id="_clip1"><rect x="0" y="0" width="32" height="32"/></clipPath><g clip-path="url(#_clip1)"><g id="outline"><ellipse cx="8.5" cy="16" rx="6.5" ry="13" style="fill:none;stroke:#000;stroke-width:4px;"/><ellipse cx="23.5" cy="16" rx="6.5" ry="13" style="fill:none;stroke:#000;stroke-width:4px;"/></g><g id="emoji"><g><path d="M28,6.623c1.232,2.366 2,5.694 2,9.377c0,7.062 -2.822,12.817 -6.332,12.996c1.15,-4.239 3.285,-22.672 4.332,-22.373Z" style="fill:#d9d9d9;"/><path d="M23.668,28.996c-0.056,0.003 -0.112,0.004 -0.168,0.004c-3.587,0 -6.5,-5.825 -6.5,-13c0,-7.175 2.913,-13 6.5,-13c1.746,0 3.332,1.379 4.5,3.623l0,9.264c0,4.749 -1.535,9.34 -4.332,13.109Z" style="fill:#fff;"/></g><g><path d="M13,6.623c1.232,2.366 2,5.694 2,9.377c0,7.062 -2.822,12.817 -6.332,12.996c1.15,-4.239 3.285,-22.672 4.332,-22.373Z" style="fill:#d9d9d9;"/><path d="M8.668,28.996c-0.056,0.003 -0.112,0.004 -0.168,0.004c-3.587,0 -6.5,-5.825 -6.5,-13c0,-7.175 2.913,-13 6.5,-13c1.746,0 3.332,1.379 4.5,3.623l0,9.264c0,4.749 -1.535,9.34 -4.332,13.109Z" style="fill:#fff;"/></g><ellipse cx="4.857" cy="16.75" rx="4.643" ry="5"/><ellipse cx="19.857" cy="16.75" rx="4.643" ry="5"/></g></g></svg>