<?xml version="1.0" encoding="UTF-8" standalone="no"?>
<!DOCTYPE svg PUBLIC "-//W3C//DTD SVG 1.1//EN" "http://www.w3.org/Graphics/SVG/1.1/DTD/svg11.dtd">
<svg width="100%" height="100%" viewBox="0 0 32 32" version="1.1" xmlns="http://www.w3.org/2000/svg" xmlns:xlink="http://www.w3.org/1999/xlink" xml:space="preserve" xmlns:serif="http://www.serif.com/" style="fill-rule:evenodd;clip-rule:evenodd;stroke-linejoin:round;stroke-miterlimit:2;">
    <rect id="mechanical_arm" x="0" y="0" width="32" height="32" style="fill:none;"/>
    <clipPath id="_clip1">
        <rect x="0" y="0" width="32" height="32"/>
    </clipPath>
    <g clip-path="url(#_clip1)">
        <g id="outline">
            <path d="M10.008,29.799c-0.971,0.825 -2.262,1.186 -3.532,0.975c-1.75,-0.292 -4.805,-0.801 -4.805,-0.801c-0.964,-0.161 -1.671,-0.995 -1.671,-1.973c0,0 0,-2.958 0,-5.277c0,-2.092 0.471,-4.158 1.378,-6.044c1.874,-3.896 5.32,-11.059 5.32,-11.059c0.192,-0.4 0.511,-0.724 0.908,-0.922l8.655,-4.328c0.831,-0.416 1.793,-0.484 2.675,-0.19c0.881,0.294 1.61,0.926 2.025,1.757c0.74,1.478 1.917,3.833 2.627,5.253c0.826,1.652 0.156,3.66 -1.496,4.486c-0.655,0.328 -1.483,0.742 -2.232,1.116c-1.003,0.502 -2.164,0.584 -3.228,0.23c-0.395,-0.132 -0.765,-0.32 -1.099,-0.556l-1.533,0.768l0,3.766l5.929,0c0.411,0 0.818,0.036 1.216,0.107c0.955,-0.715 2.121,-1.107 3.327,-1.107l1.974,0c1.473,0 2.886,0.585 3.927,1.627c1.042,1.041 1.627,2.454 1.627,3.927c0,1.544 0,3.348 0,4.892c0,1.473 -0.585,2.886 -1.627,3.927c-1.041,1.042 -2.454,1.627 -3.927,1.627l-1.974,0c-1.206,0 -2.372,-0.392 -3.327,-1.107c-0.398,0.071 -0.805,0.107 -1.216,0.107l-5.436,0c-0.655,-0.002 -1.308,-0.072 -1.947,-0.215c-0.89,-0.198 -1.748,-0.532 -2.538,-0.986Z"/>
        </g>
        <g id="emoji">
            <path d="M25,22c0,0 -0.774,-0.774 -1.536,-1.536c-0.937,-0.937 -2.209,-1.464 -3.535,-1.464c-1.737,0 -4.258,0 -6.325,0c-2.152,0 -4.063,1.377 -4.744,3.419c-0.449,1.348 -0.86,2.581 -0.86,2.581c0,0 0.396,0.528 0.9,1.2c1.322,1.763 3.397,2.8 5.6,2.8l5.429,0c1.326,0 2.598,-0.527 3.535,-1.464c0.762,-0.762 1.536,-1.536 1.536,-1.536l0,-4Z" style="fill:#595959;"/>
            <path d="M12,17.275c0,0.483 0.04,0.964 0.119,1.44c0.104,0.622 0.261,1.566 0.414,2.485c0.293,1.757 -0.281,3.548 -1.54,4.807c-0.744,0.744 -1.549,1.549 -2.137,2.137c-0.537,0.537 -1.301,0.782 -2.051,0.657c-1.75,-0.292 -4.805,-0.801 -4.805,-0.801l0,-5.277c0,-1.792 0.403,-3.562 1.18,-5.177l4.341,-9.025l2.479,1.479l2,3l0,4.275Z" style="fill:#323232;"/>
            <path d="M8.5,6.486l2.5,1.514l1,4l0,1l-4.479,-4.479l0.979,-2.035Z" style="fill:#818181;"/>
            <path d="M14.32,10.834l-2.32,1.166l-3.5,-5.514c0,0 5.928,-2.963 8.656,-4.327c0.356,-0.179 0.769,-0.208 1.147,-0.082c0.378,0.126 0.691,0.397 0.869,0.754l2.231,4.461l-0.399,0.671l-4.087,1.902l-0.941,0.141l-0.762,0.381l-0.594,-0.044l-0.3,0.491Zm7.526,-2.645c0.256,0.642 -0.019,1.384 -0.648,1.699c-0.655,0.327 -1.483,0.741 -2.232,1.116c-0.529,0.264 -1.141,0.307 -1.701,0.12c-0.229,-0.076 -0.441,-0.188 -0.63,-0.329l0.347,-0.746l4.198,-2.052l0.666,0.192Z" style="fill:#595959;"/>
            <path d="M15.976,10.006l-1.656,0.828l-1.014,-2.028c0.298,-0.149 0.596,-0.299 0.894,-0.448l1.014,2.029l1.609,-0.804l-1.017,-2.034c0.298,-0.149 0.596,-0.298 0.894,-0.447l1.017,2.033l1.608,-0.804l-1.019,-2.039c0.298,-0.149 0.596,-0.298 0.894,-0.447l1.02,2.039l1.183,-0.592l0.396,0.792c0.015,0.031 0.029,0.063 0.043,0.095l0.004,0.01l-5.211,2.606l-0.02,-0.015c-0.268,-0.208 -0.487,-0.471 -0.639,-0.774Z" style="fill:#1e1e1e;"/>
            <path d="M26.446,30c0.943,0 1.847,-0.374 2.513,-1.041c0.667,-0.667 1.041,-1.571 1.041,-2.513c0,-1.544 0,-3.348 0,-4.892c0,-0.942 -0.374,-1.846 -1.041,-2.513c-0.666,-0.667 -1.57,-1.041 -2.513,-1.041c-0.698,0 -1.393,0 -1.974,0c-0.942,0 -1.846,0.374 -2.513,1.041c-0.848,0.848 -2.067,2.067 -3.084,3.084c-1.036,1.036 -1.036,2.714 0,3.75c1.017,1.017 2.236,2.236 3.084,3.084c0.667,0.667 1.571,1.041 2.513,1.041l1.974,0Z" style="fill:#323232;"/>
            <path d="M6,22c1.104,0 2,0.896 2,2c0,1.104 -0.896,2 -2,2c-1.104,0 -2,-0.896 -2,-2c0,-1.104 0.896,-2 2,-2Zm0,1c0.552,0 1,0.448 1,1c0,0.552 -0.448,1 -1,1c-0.552,0 -1,-0.448 -1,-1c0,-0.552 0.448,-1 1,-1Z" style="fill:#2176ff;"/>
        </g>
    </g>
</svg>
