<?xml version="1.0" encoding="UTF-8" standalone="no"?>
<!DOCTYPE svg PUBLIC "-//W3C//DTD SVG 1.1//EN" "http://www.w3.org/Graphics/SVG/1.1/DTD/svg11.dtd">
<svg width="100%" height="100%" viewBox="0 0 32 32" version="1.1" xmlns="http://www.w3.org/2000/svg" xmlns:xlink="http://www.w3.org/1999/xlink" xml:space="preserve" xmlns:serif="http://www.serif.com/" style="fill-rule:evenodd;clip-rule:evenodd;stroke-linejoin:round;stroke-miterlimit:2;">
    <rect id="d12" x="0" y="0" width="32" height="32" style="fill:none;"/>
    <g id="outline">
        <path d="M15.691,2.1c0.201,-0.065 0.417,-0.065 0.618,0c1.299,0.423 6.312,2.051 7.611,2.473c0.201,0.066 0.376,0.193 0.5,0.364c0.803,1.105 3.901,5.369 4.704,6.474c0.124,0.171 0.191,0.376 0.191,0.588l0,8.002c0,0.212 -0.067,0.417 -0.191,0.588c-0.803,1.105 -3.901,5.369 -4.704,6.474c-0.124,0.171 -0.299,0.298 -0.5,0.364c-1.299,0.422 -6.312,2.05 -7.611,2.473c-0.201,0.065 -0.417,0.065 -0.618,0c-1.299,-0.423 -6.312,-2.051 -7.611,-2.473c-0.201,-0.066 -0.376,-0.193 -0.5,-0.364c-0.803,-1.105 -3.901,-5.369 -4.704,-6.474c-0.124,-0.171 -0.191,-0.376 -0.191,-0.588l0,-8.002c0,-0.212 0.067,-0.417 0.191,-0.588c0.803,-1.105 3.901,-5.369 4.704,-6.474c0.124,-0.171 0.299,-0.298 0.5,-0.364c1.299,-0.422 6.312,-2.05 7.611,-2.473Z"/>
        <path d="M16.117,0.053l0.118,0.007l0.117,0.012l0.116,0.016l0.116,0.02l0.115,0.026l0.115,0.03l0.094,0.028l7.649,2.485l0.093,0.033l0.11,0.043l0.108,0.047l0.106,0.052l0.104,0.055l0.102,0.06l0.098,0.063l0.096,0.067l0.094,0.071l0.091,0.074l0.088,0.078l0.085,0.082l0.081,0.085l0.079,0.088l0.075,0.092l0.06,0.078l4.727,6.506l0.056,0.082l0.064,0.099l0.059,0.102l0.056,0.104l0.051,0.105l0.047,0.108l0.043,0.11l0.038,0.11l0.035,0.113l0.029,0.114l0.025,0.114l0.021,0.116l0.016,0.117l0.012,0.117l0.007,0.118l0.002,0.099l0,8.042l-0.002,0.099l-0.007,0.117l-0.012,0.118l-0.016,0.117l-0.021,0.116l-0.025,0.114l-0.029,0.114l-0.035,0.113l-0.038,0.11l-0.043,0.11l-0.047,0.108l-0.051,0.105l-0.056,0.104l-0.059,0.102l-0.064,0.099l-0.057,0.082l-4.726,6.506l-0.06,0.079l-0.076,0.091l-0.078,0.088l-0.081,0.085l-0.085,0.082l-0.088,0.078l-0.091,0.074l-0.093,0.071l-0.097,0.067l-0.099,0.063l-0.101,0.06l-0.104,0.055l-0.105,0.052l-0.109,0.047l-0.11,0.043l-0.093,0.033l-7.649,2.485l-0.094,0.029l-0.115,0.029l-0.115,0.026l-0.116,0.02l-0.117,0.016l-0.117,0.012l-0.117,0.007l-0.117,0.002l-0.117,-0.002l-0.117,-0.007l-0.117,-0.012l-0.117,-0.016l-0.116,-0.02l-0.115,-0.026l-0.115,-0.029l-0.094,-0.029l-7.649,-2.485l-0.093,-0.033l-0.11,-0.043l-0.108,-0.047l-0.106,-0.052l-0.104,-0.055l-0.101,-0.06l-0.099,-0.063l-0.097,-0.067l-0.093,-0.071l-0.091,-0.074l-0.088,-0.078l-0.085,-0.082l-0.081,-0.085l-0.079,-0.088l-0.075,-0.091l-0.059,-0.079l-4.727,-6.506l-0.057,-0.081l-0.064,-0.1l-0.059,-0.102l-0.056,-0.104l-0.051,-0.106l-0.047,-0.107l-0.043,-0.11l-0.038,-0.11l-0.034,-0.113l-0.03,-0.114l-0.025,-0.114l-0.021,-0.116l-0.016,-0.117l-0.012,-0.117l-0.007,-0.118l-0.002,-0.099l0,-8.042l0.002,-0.099l0.007,-0.118l0.012,-0.117l0.016,-0.117l0.021,-0.116l0.025,-0.114l0.03,-0.114l0.034,-0.113l0.038,-0.11l0.043,-0.11l0.047,-0.107l0.051,-0.106l0.056,-0.104l0.059,-0.102l0.064,-0.1l0.056,-0.081l4.728,-6.506l0.059,-0.079l0.075,-0.091l0.079,-0.088l0.081,-0.085l0.085,-0.082l0.088,-0.078l0.091,-0.074l0.094,-0.071l0.096,-0.067l0.098,-0.063l0.102,-0.06l0.104,-0.055l0.106,-0.052l0.108,-0.047l0.11,-0.043l0.093,-0.033l7.649,-2.485l0.094,-0.028l0.115,-0.03l0.115,-0.026l0.116,-0.02l0.116,-0.016l0.117,-0.012l0.118,-0.007l0.117,-0.002l0.117,0.002Zm-7.11,6.322l-4.322,5.949l0,7.352l4.322,5.949l6.993,2.272l6.993,-2.272l4.322,-5.949l0,-7.352l-4.322,-5.949l-6.993,-2.272l-6.993,2.272Z"/>
    </g>
    <g id="emoji">
        <path d="M15.691,2.1c0.201,-0.065 0.417,-0.065 0.618,0c1.299,0.423 6.312,2.051 7.611,2.473c0.201,0.066 0.376,0.193 0.5,0.364c0.803,1.105 3.901,5.369 4.704,6.474c0.124,0.171 0.191,0.376 0.191,0.588l0,8.002c0,0.212 -0.067,0.417 -0.191,0.588c-0.803,1.105 -3.901,5.369 -4.704,6.474c-0.124,0.171 -0.299,0.298 -0.5,0.364c-1.299,0.422 -6.312,2.05 -7.611,2.473c-0.201,0.065 -0.417,0.065 -0.618,0c-1.299,-0.423 -6.312,-2.051 -7.611,-2.473c-0.201,-0.066 -0.376,-0.193 -0.5,-0.364c-0.803,-1.105 -3.901,-5.369 -4.704,-6.474c-0.124,-0.171 -0.191,-0.376 -0.191,-0.588l0,-8.002c0,-0.212 0.067,-0.417 0.191,-0.588c0.803,-1.105 3.901,-5.369 4.704,-6.474c0.124,-0.171 0.299,-0.298 0.5,-0.364c1.299,-0.422 6.312,-2.05 7.611,-2.473Z" style="fill:#8813e8;"/>
        <clipPath id="_clip1">
            <path d="M15.691,2.1c0.201,-0.065 0.417,-0.065 0.618,0c1.299,0.423 6.312,2.051 7.611,2.473c0.201,0.066 0.376,0.193 0.5,0.364c0.803,1.105 3.901,5.369 4.704,6.474c0.124,0.171 0.191,0.376 0.191,0.588l0,8.002c0,0.212 -0.067,0.417 -0.191,0.588c-0.803,1.105 -3.901,5.369 -4.704,6.474c-0.124,0.171 -0.299,0.298 -0.5,0.364c-1.299,0.422 -6.312,2.05 -7.611,2.473c-0.201,0.065 -0.417,0.065 -0.618,0c-1.299,-0.423 -6.312,-2.051 -7.611,-2.473c-0.201,-0.066 -0.376,-0.193 -0.5,-0.364c-0.803,-1.105 -3.901,-5.369 -4.704,-6.474c-0.124,-0.171 -0.191,-0.376 -0.191,-0.588l0,-8.002c0,-0.212 0.067,-0.417 0.191,-0.588c0.803,-1.105 3.901,-5.369 4.704,-6.474c0.124,-0.171 0.299,-0.298 0.5,-0.364c1.299,-0.422 6.312,-2.05 7.611,-2.473Z"/>
        </clipPath>
        <g clip-path="url(#_clip1)">
            <path d="M10.956,23.964c-0.296,0 -0.578,0.132 -0.768,0.36c-1.079,1.295 -4.7,5.64 -4.7,5.64l-4.488,0.036l0,-29l15,0l0,5.49c0,0.321 0.153,0.621 0.412,0.809c1.438,1.045 6.238,4.532 7.919,5.754c0.35,0.254 0.497,0.706 0.363,1.118c-0.618,1.902 -2.339,7.2 -2.958,9.102c-0.133,0.412 -0.517,0.691 -0.951,0.691l-9.829,0Z" style="fill:#ad50ff;"/>
        </g>
        <path d="M16.039,2.052l0.039,0.003l0.039,0.003l0.039,0.006l0.039,0.007l0.038,0.008l0.038,0.01l0.038,0.011l7.611,2.473l0.037,0.013l0.037,0.015l0.036,0.015l0.035,0.018l0.035,0.018l0.034,0.02l0.033,0.021l0.032,0.022l0.031,0.024l0.03,0.025l0.029,0.026l0.029,0.027l0.027,0.028l0.026,0.03l0.025,0.03l0.024,0.032l4.704,6.474l0.022,0.032l0.022,0.034l0.02,0.033l0.018,0.035l0.017,0.035l0.016,0.036l0.014,0.037l0.013,0.037l0.011,0.037l0.01,0.038l0.008,0.038l0.007,0.039l0.006,0.039l0.004,0.039l0.002,0.039l0.001,0.04l0,8.002l-0.001,0.04l-0.002,0.039l-0.004,0.039l-0.006,0.039l-0.007,0.039l-0.008,0.038l-0.01,0.038l-0.011,0.037l-0.013,0.037l-0.014,0.037l-0.016,0.036l-0.017,0.035l-0.018,0.035l-0.02,0.033l-0.022,0.034l-0.022,0.032l-4.704,6.474l-0.024,0.032l-0.025,0.03l-0.026,0.03l-0.027,0.028l-0.029,0.027l-0.029,0.026l-0.03,0.025l-0.031,0.024l-0.032,0.022l-0.033,0.021l-0.034,0.02l-0.035,0.018l-0.035,0.018l-0.036,0.015l-0.037,0.015l-0.037,0.013l-7.611,2.473l-0.038,0.011l-0.038,0.01l-0.038,0.008l-0.039,0.007l-0.039,0.006l-0.039,0.003l-0.039,0.003l-0.039,0.001l-0.039,-0.001l-0.039,-0.003l-0.039,-0.003l-0.039,-0.006l-0.039,-0.007l-0.038,-0.008l-0.038,-0.01l-0.038,-0.011l-7.611,-2.473l-0.037,-0.013l-0.037,-0.015l-0.036,-0.015l-0.035,-0.018l-0.035,-0.018l-0.034,-0.02l-0.033,-0.021l-0.032,-0.022l-0.031,-0.024l-0.03,-0.025l-0.029,-0.026l-0.029,-0.027l-0.027,-0.028l-0.026,-0.03l-0.025,-0.03l-0.024,-0.032l-4.704,-6.474l-0.022,-0.032l-0.022,-0.034l-0.02,-0.033l-0.018,-0.035l-0.017,-0.035l-0.016,-0.036l-0.014,-0.037l-0.013,-0.037l-0.011,-0.037l-0.01,-0.038l-0.008,-0.038l-0.007,-0.039l-0.006,-0.039l-0.004,-0.039l-0.002,-0.039l-0.001,-0.04l0,-8.002l0.001,-0.04l0.002,-0.039l0.004,-0.039l0.006,-0.039l0.007,-0.039l0.008,-0.038l0.01,-0.038l0.011,-0.037l0.013,-0.037l0.014,-0.037l0.016,-0.036l0.017,-0.035l0.018,-0.035l0.02,-0.033l0.022,-0.034l0.022,-0.032l4.704,-6.474l0.024,-0.032l0.025,-0.03l0.026,-0.03l0.027,-0.028l0.029,-0.027l0.029,-0.026l0.03,-0.025l0.031,-0.024l0.032,-0.022l0.033,-0.021l0.034,-0.02l0.035,-0.018l0.035,-0.018l0.036,-0.015l0.037,-0.015l0.037,-0.013l7.611,-2.473l0.038,-0.011l0.038,-0.01l0.038,-0.008l0.039,-0.007l0.039,-0.006l0.039,-0.003l0.039,-0.003l0.039,-0.001l0.039,0.001Zm-0.048,1.003l-7.593,2.466l-0.009,0.004l-0.006,0.007l-4.692,6.459l-0.006,0.008l0,0.01l0,7.982l0,0.01l0.006,0.008l4.692,6.459l0.006,0.007l0.009,0.004l7.593,2.466l0.009,0.003l0,0l0.009,-0.003l7.593,-2.466l0.009,-0.004l0.006,-0.007l4.692,-6.459l0.006,-0.008l0,0l0,-0.01l0,-7.982l0,-0.01l0,0l0,0l-0.006,-0.008l-4.692,-6.459l-0.006,-0.007l-0.009,-0.004l-7.593,-2.466l-0.009,-0.003l-0.009,0.003Z" style="fill:#8813e8;"/>
        <path d="M15.691,2.1c0.201,-0.065 0.417,-0.065 0.618,0c1.299,0.423 6.312,2.051 7.611,2.473c0.201,0.066 0.376,0.193 0.5,0.364c0.803,1.105 3.901,5.369 4.704,6.474c0.124,0.171 0.191,0.376 0.191,0.588l0,8.002c0,0.212 -0.067,0.417 -0.191,0.588c-0.803,1.105 -3.901,5.369 -4.704,6.474c-0.124,0.171 -0.299,0.298 -0.5,0.364c-1.299,0.422 -6.312,2.05 -7.611,2.473c-0.201,0.065 -0.417,0.065 -0.618,0c-1.299,-0.423 -6.312,-2.051 -7.611,-2.473c-0.201,-0.066 -0.376,-0.193 -0.5,-0.364c-0.803,-1.105 -3.901,-5.369 -4.704,-6.474c-0.124,-0.171 -0.191,-0.376 -0.191,-0.588l0,-8.002c0,-0.212 0.067,-0.417 0.191,-0.588c0.803,-1.105 3.901,-5.369 4.704,-6.474c0.124,-0.171 0.299,-0.298 0.5,-0.364c1.299,-0.422 6.312,-2.05 7.611,-2.473Z" style="fill:none;"/>
        <clipPath id="_clip2">
            <path d="M15.691,2.1c0.201,-0.065 0.417,-0.065 0.618,0c1.299,0.423 6.312,2.051 7.611,2.473c0.201,0.066 0.376,0.193 0.5,0.364c0.803,1.105 3.901,5.369 4.704,6.474c0.124,0.171 0.191,0.376 0.191,0.588l0,8.002c0,0.212 -0.067,0.417 -0.191,0.588c-0.803,1.105 -3.901,5.369 -4.704,6.474c-0.124,0.171 -0.299,0.298 -0.5,0.364c-1.299,0.422 -6.312,2.05 -7.611,2.473c-0.201,0.065 -0.417,0.065 -0.618,0c-1.299,-0.423 -6.312,-2.051 -7.611,-2.473c-0.201,-0.066 -0.376,-0.193 -0.5,-0.364c-0.803,-1.105 -3.901,-5.369 -4.704,-6.474c-0.124,-0.171 -0.191,-0.376 -0.191,-0.588l0,-8.002c0,-0.212 0.067,-0.417 0.191,-0.588c0.803,-1.105 3.901,-5.369 4.704,-6.474c0.124,-0.171 0.299,-0.298 0.5,-0.364c1.299,-0.422 6.312,-2.05 7.611,-2.473Z"/>
        </clipPath>
        <g clip-path="url(#_clip2)">
            <g>
                <path d="M15,15c0,-0.552 -0.448,-1 -1,-1c-0.552,0 -1,0.448 -1,1c0,0.611 0,1.389 0,2c0,0.552 0.448,1 1,1c0.552,0 1,-0.448 1,-1c0,-0.611 0,-1.389 0,-2Z" style="fill:#fff;"/>
                <path d="M19,15c0,-0.552 -0.448,-1 -1,-1c-0.552,0 -1,0.448 -1,1c0,0.611 0,1.389 0,2c0,0.552 0.448,1 1,1c0.552,0 1,-0.448 1,-1c0,-0.611 0,-1.389 0,-2Z" style="fill:#fff;"/>
            </g>
            <g>
                <g>
                    <path d="M15,29c0,-0.552 -0.448,-1 -1,-1c-0.552,0 -1,0.448 -1,1c0,0.611 0,1.389 0,2c0,0.552 0.448,1 1,1c0.552,0 1,-0.448 1,-1c0,-0.611 0,-1.389 0,-2Z" style="fill:#fff;"/>
                    <path d="M19,29c0,-0.552 -0.448,-1 -1,-1c-0.552,0 -1,0.448 -1,1c0,0.611 0,1.389 0,2c0,0.552 0.448,1 1,1c0.552,0 1,-0.448 1,-1c0,-0.611 0,-1.389 0,-2Z" style="fill:#fff;"/>
                </g>
                <g>
                    <path d="M30.134,20.634c0.478,0.276 1.09,0.112 1.366,-0.366c0.276,-0.478 0.112,-1.09 -0.366,-1.366c-0.529,-0.305 -1.203,-0.695 -1.732,-1c-0.478,-0.276 -1.09,-0.112 -1.366,0.366c-0.276,0.478 -0.112,1.09 0.366,1.366c0.529,0.305 1.203,0.695 1.732,1Z" style="fill:#fff;"/>
                    <path d="M28.134,24.098c0.478,0.276 1.09,0.112 1.366,-0.366c0.276,-0.478 0.112,-1.09 -0.366,-1.366c-0.529,-0.305 -1.203,-0.695 -1.732,-1c-0.478,-0.276 -1.09,-0.112 -1.366,0.366c-0.276,0.478 -0.112,1.09 0.366,1.366c0.529,0.305 1.203,0.695 1.732,1Z" style="fill:#fff;"/>
                </g>
                <g>
                    <path d="M1.866,20.634c-0.478,0.276 -1.09,0.112 -1.366,-0.366c-0.276,-0.478 -0.112,-1.09 0.366,-1.366c0.529,-0.305 1.203,-0.695 1.732,-1c0.478,-0.276 1.09,-0.112 1.366,0.366c0.276,0.478 0.112,1.09 -0.366,1.366c-0.529,0.305 -1.203,0.695 -1.732,1Z" style="fill:#fff;"/>
                    <path d="M3.866,24.098c-0.478,0.276 -1.09,0.112 -1.366,-0.366c-0.276,-0.478 -0.112,-1.09 0.366,-1.366c0.529,-0.305 1.203,-0.695 1.732,-1c0.478,-0.276 1.09,-0.112 1.366,0.366c0.276,0.478 0.112,1.09 -0.366,1.366c-0.529,0.305 -1.203,0.695 -1.732,1Z" style="fill:#fff;"/>
                </g>
            </g>
            <g>
                <path d="M23.634,3.402c0.276,-0.478 0.112,-1.09 -0.366,-1.366c-0.478,-0.276 -1.09,-0.112 -1.366,0.366c-0.305,0.529 -0.695,1.203 -1,1.732c-0.276,0.478 -0.112,1.09 0.366,1.366c0.478,0.276 1.09,0.112 1.366,-0.366c0.305,-0.529 0.695,-1.203 1,-1.732Z" style="fill:#fff;"/>
                <path d="M27.098,5.402c0.276,-0.478 0.112,-1.09 -0.366,-1.366c-0.478,-0.276 -1.09,-0.112 -1.366,0.366c-0.305,0.529 -0.695,1.203 -1,1.732c-0.276,0.478 -0.112,1.09 0.366,1.366c0.478,0.276 1.09,0.112 1.366,-0.366c0.305,-0.529 0.695,-1.203 1,-1.732Z" style="fill:#fff;"/>
            </g>
            <g>
                <path d="M8.366,3.402c-0.276,-0.478 -0.112,-1.09 0.366,-1.366c0.478,-0.276 1.09,-0.112 1.366,0.366c0.305,0.529 0.695,1.203 1,1.732c0.276,0.478 0.112,1.09 -0.366,1.366c-0.478,0.276 -1.09,0.112 -1.366,-0.366c-0.305,-0.529 -0.695,-1.203 -1,-1.732Z" style="fill:#fff;"/>
                <path d="M4.902,5.402c-0.276,-0.478 -0.112,-1.09 0.366,-1.366c0.478,-0.276 1.09,-0.112 1.366,0.366c0.305,0.529 0.695,1.203 1,1.732c0.276,0.478 0.112,1.09 -0.366,1.366c-0.478,0.276 -1.09,0.112 -1.366,-0.366c-0.305,-0.529 -0.695,-1.203 -1,-1.732Z" style="fill:#fff;"/>
            </g>
        </g>
    </g>
</svg>
