<?xml version="1.0" encoding="UTF-8" standalone="no"?>
<!DOCTYPE svg PUBLIC "-//W3C//DTD SVG 1.1//EN" "http://www.w3.org/Graphics/SVG/1.1/DTD/svg11.dtd">
<svg width="100%" height="100%" viewBox="0 0 32 32" version="1.1" xmlns="http://www.w3.org/2000/svg" xmlns:xlink="http://www.w3.org/1999/xlink" xml:space="preserve" xmlns:serif="http://www.serif.com/" style="fill-rule:evenodd;clip-rule:evenodd;stroke-linejoin:round;stroke-miterlimit:2;">
    <rect id="d8" x="0" y="0" width="32" height="32" style="fill:none;"/>
    <g id="outline">
        <path d="M16.143,1.417l0.144,0.01l0.142,0.017l0.142,0.024l0.142,0.031l0.139,0.038l0.139,0.045l0.137,0.052l0.135,0.058l0.133,0.066l0.13,0.072l0.127,0.079l0.123,0.087l0.12,0.092l0.115,0.099l0.092,0.088l11.622,11.622l0.088,0.092l0.099,0.115l0.093,0.12l0.086,0.123l0.079,0.127l0.072,0.13l0.066,0.133l0.059,0.135l0.051,0.137l0.045,0.138l0.038,0.14l0.031,0.142l0.024,0.142l0.017,0.142l0.01,0.144l0.003,0.143l-0.003,0.143l-0.01,0.144l-0.017,0.142l-0.024,0.142l-0.031,0.142l-0.038,0.14l-0.045,0.138l-0.051,0.137l-0.059,0.135l-0.066,0.133l-0.072,0.13l-0.079,0.127l-0.086,0.123l-0.093,0.12l-0.099,0.115l-0.088,0.092l-11.622,11.622l-0.092,0.088l-0.115,0.099l-0.12,0.093l-0.123,0.086l-0.127,0.079l-0.13,0.072l-0.133,0.066l-0.135,0.059l-0.137,0.051l-0.138,0.045l-0.14,0.038l-0.142,0.031l-0.142,0.024l-0.142,0.017l-0.144,0.01l-0.143,0.003l-0.143,-0.003l-0.144,-0.01l-0.142,-0.017l-0.142,-0.024l-0.142,-0.031l-0.14,-0.038l-0.138,-0.045l-0.137,-0.051l-0.135,-0.059l-0.133,-0.066l-0.13,-0.072l-0.127,-0.079l-0.123,-0.086l-0.12,-0.093l-0.115,-0.099l-0.092,-0.088l-11.622,-11.622l-0.088,-0.092l-0.099,-0.115l-0.092,-0.12l-0.087,-0.123l-0.079,-0.127l-0.072,-0.13l-0.066,-0.133l-0.058,-0.135l-0.052,-0.137l-0.045,-0.139l-0.038,-0.139l-0.031,-0.142l-0.024,-0.142l-0.017,-0.142l-0.01,-0.144l-0.003,-0.143l0.003,-0.143l0.01,-0.144l0.017,-0.142l0.024,-0.142l0.031,-0.142l0.038,-0.139l0.045,-0.139l0.052,-0.137l0.058,-0.135l0.066,-0.133l0.072,-0.13l0.079,-0.127l0.087,-0.123l0.092,-0.12l0.099,-0.115l0.088,-0.092l11.622,-11.622l0.092,-0.088l0.115,-0.099l0.12,-0.092l0.123,-0.087l0.127,-0.079l0.13,-0.072l0.133,-0.066l0.135,-0.058l0.137,-0.052l0.139,-0.045l0.139,-0.038l0.142,-0.031l0.142,-0.024l0.142,-0.017l0.144,-0.01l0.143,-0.003l0.143,0.003Zm-10.315,14.583l10.172,10.172l10.172,-10.172l-10.172,-10.172l-10.172,10.172Z"/>
    </g>
    <g id="emoji">
        <path d="M3.707,16.707c-0.39,-0.39 -0.39,-1.024 0,-1.414c2.265,-2.265 9.321,-9.321 11.586,-11.586c0.39,-0.39 1.024,-0.39 1.414,0c2.265,2.265 9.321,9.321 11.586,11.586c0.39,0.39 0.39,1.024 0,1.414c-2.265,2.265 -9.321,9.321 -11.586,11.586c-0.39,0.39 -1.024,0.39 -1.414,0c-2.265,-2.265 -9.321,-9.321 -11.586,-11.586Z" style="fill:#4cbf1e;"/>
        <clipPath id="_clip1">
            <path d="M3.707,16.707c-0.39,-0.39 -0.39,-1.024 0,-1.414c2.265,-2.265 9.321,-9.321 11.586,-11.586c0.39,-0.39 1.024,-0.39 1.414,0c2.265,2.265 9.321,9.321 11.586,11.586c0.39,0.39 0.39,1.024 0,1.414c-2.265,2.265 -9.321,9.321 -11.586,11.586c-0.39,0.39 -1.024,0.39 -1.414,0c-2.265,-2.265 -9.321,-9.321 -11.586,-11.586Z"/>
        </clipPath>
        <g clip-path="url(#_clip1)">
            <path d="M16,4c0,0 2.718,7.528 3.848,10.657c0.111,0.307 0.066,0.648 -0.122,0.914c-0.187,0.267 -0.492,0.426 -0.818,0.426c-4.467,0.001 -17.908,0.003 -17.908,0.003l0,-12l15,0Z" style="fill:#77e34d;"/>
        </g>
        <path d="M16.048,3.415l0.048,0.004l0.048,0.006l0.047,0.008l0.047,0.01l0.047,0.012l0.046,0.015l0.045,0.017l0.045,0.02l0.044,0.022l0.043,0.024l0.042,0.026l0.041,0.029l0.04,0.03l0.039,0.034l0.037,0.035l11.586,11.586l0.035,0.037l0.034,0.039l0.03,0.04l0.029,0.041l0.026,0.042l0.024,0.043l0.022,0.044l0.02,0.045l0.017,0.045l0.015,0.046l0.012,0.047l0.01,0.047l0.008,0.047l0.006,0.048l0.004,0.048l0.001,0.048l-0.001,0.048l-0.004,0.048l-0.006,0.048l-0.008,0.047l-0.01,0.047l-0.012,0.047l-0.015,0.046l-0.017,0.045l-0.02,0.045l-0.022,0.044l-0.024,0.043l-0.026,0.042l-0.029,0.041l-0.03,0.04l-0.034,0.039l-0.035,0.037l-11.586,11.586l-0.037,0.035l-0.039,0.034l-0.04,0.03l-0.041,0.029l-0.042,0.026l-0.043,0.024l-0.044,0.022l-0.045,0.02l-0.045,0.017l-0.046,0.015l-0.047,0.012l-0.047,0.01l-0.047,0.008l-0.048,0.006l-0.048,0.004l-0.048,0.001l-0.048,-0.001l-0.048,-0.004l-0.048,-0.006l-0.047,-0.008l-0.047,-0.01l-0.047,-0.012l-0.046,-0.015l-0.045,-0.017l-0.045,-0.02l-0.044,-0.022l-0.043,-0.024l-0.042,-0.026l-0.041,-0.029l-0.04,-0.03l-0.039,-0.034l-0.037,-0.035l-11.586,-11.586l-0.035,-0.037l-0.034,-0.039l-0.03,-0.04l-0.029,-0.041l-0.026,-0.042l-0.024,-0.043l-0.022,-0.044l-0.02,-0.045l-0.017,-0.045l-0.015,-0.046l-0.012,-0.047l-0.01,-0.047l-0.008,-0.047l-0.006,-0.048l-0.004,-0.048l-0.001,-0.048l0.001,-0.048l0.004,-0.048l0.006,-0.048l0.008,-0.047l0.01,-0.047l0.012,-0.047l0.015,-0.046l0.017,-0.045l0.02,-0.045l0.022,-0.044l0.024,-0.043l0.026,-0.042l0.029,-0.041l0.03,-0.04l0.034,-0.039l0.035,-0.037l11.586,-11.586l0.037,-0.035l0.039,-0.034l0.04,-0.03l0.041,-0.029l0.042,-0.026l0.043,-0.024l0.044,-0.022l0.045,-0.02l0.045,-0.017l0.046,-0.015l0.047,-0.012l0.047,-0.01l0.047,-0.008l0.048,-0.006l0.048,-0.004l0.048,-0.001l0.048,0.001Zm-0.057,1.008l-11.568,11.568l-0.008,0.009l0.008,0.009l11.568,11.568l0.009,0.008l0.009,-0.008l11.568,-11.568l0.008,-0.009l-0.008,-0.009l-11.568,-11.568l-0.009,-0.008l-0.009,0.008Z" style="fill:#4cbf1e;"/>
        <path d="M3.707,16.707c-0.39,-0.39 -0.39,-1.024 0,-1.414c2.265,-2.265 9.321,-9.321 11.586,-11.586c0.39,-0.39 1.024,-0.39 1.414,0c2.265,2.265 9.321,9.321 11.586,11.586c0.39,0.39 0.39,1.024 0,1.414c-2.265,2.265 -9.321,9.321 -11.586,11.586c-0.39,0.39 -1.024,0.39 -1.414,0c-2.265,-2.265 -9.321,-9.321 -11.586,-11.586Z" style="fill:none;"/>
        <clipPath id="_clip2">
            <path d="M3.707,16.707c-0.39,-0.39 -0.39,-1.024 0,-1.414c2.265,-2.265 9.321,-9.321 11.586,-11.586c0.39,-0.39 1.024,-0.39 1.414,0c2.265,2.265 9.321,9.321 11.586,11.586c0.39,0.39 0.39,1.024 0,1.414c-2.265,2.265 -9.321,9.321 -11.586,11.586c-0.39,0.39 -1.024,0.39 -1.414,0c-2.265,-2.265 -9.321,-9.321 -11.586,-11.586Z"/>
        </clipPath>
        <g clip-path="url(#_clip2)">
            <path d="M13,10c0,-0.552 -0.448,-1 -1,-1c-0.552,0 -1,0.448 -1,1c0,0.611 0,1.389 0,2c0,0.552 0.448,1 1,1c0.552,0 1,-0.448 1,-1c0,-0.611 0,-1.389 0,-2Z" style="fill:#fff;"/>
            <g>
                <path d="M13,20c0,-0.552 -0.448,-1 -1,-1c-0.552,0 -1,0.448 -1,1c0,0.611 0,1.389 0,2c0,0.552 0.448,1 1,1c0.552,0 1,-0.448 1,-1c0,-0.611 0,-1.389 0,-2Z" style="fill:#fff;"/>
                <path d="M25,20c0,-0.552 -0.448,-1 -1,-1c-0.552,0 -1,0.448 -1,1c0,0.611 0,1.389 0,2c0,0.552 0.448,1 1,1c0.552,0 1,-0.448 1,-1c0,-0.611 0,-1.389 0,-2Z" style="fill:#fff;"/>
                <path d="M25,10c0,-0.552 -0.448,-1 -1,-1c-0.552,0 -1,0.448 -1,1c0,0.611 0,1.389 0,2c0,0.552 0.448,1 1,1c0.552,0 1,-0.448 1,-1c0,-0.611 0,-1.389 0,-2Z" style="fill:#fff;"/>
            </g>
        </g>
    </g>
</svg>
