<?xml version="1.0" encoding="UTF-8" standalone="no"?>
<!DOCTYPE svg PUBLIC "-//W3C//DTD SVG 1.1//EN" "http://www.w3.org/Graphics/SVG/1.1/DTD/svg11.dtd">
<svg width="100%" height="100%" viewBox="0 0 32 32" version="1.1" xmlns="http://www.w3.org/2000/svg" xmlns:xlink="http://www.w3.org/1999/xlink" xml:space="preserve" xmlns:serif="http://www.serif.com/" style="fill-rule:evenodd;clip-rule:evenodd;stroke-linejoin:round;stroke-miterlimit:2;">
    <rect id="hanafuda_card" x="0" y="0" width="32" height="32" style="fill:none;"/>
    <clipPath id="_clip1">
        <rect x="0" y="0" width="32" height="32"/>
    </clipPath>
    <g clip-path="url(#_clip1)">
        <g id="outline">
            <path d="M24.149,0.003c0.131,0.01 0.164,0.01 0.294,0.029c0.242,0.036 0.479,0.102 0.705,0.196c0.823,0.341 1.463,1.047 1.723,1.899c0.084,0.277 0.122,0.56 0.129,0.848l0,26.05c-0.003,0.121 -0.002,0.145 -0.014,0.272c-0.024,0.244 -0.079,0.484 -0.161,0.715c-0.301,0.838 -0.975,1.513 -1.814,1.813c-0.23,0.083 -0.471,0.137 -0.714,0.161c-0.127,0.012 -0.152,0.011 -0.272,0.014l-16.05,0c-0.12,-0.003 -0.145,-0.002 -0.272,-0.014c-0.243,-0.024 -0.484,-0.079 -0.715,-0.161c-0.838,-0.3 -1.513,-0.975 -1.813,-1.814c-0.083,-0.23 -0.137,-0.471 -0.161,-0.715c-0.012,-0.123 -0.011,-0.152 -0.014,-0.27l0,-26.052c0.003,-0.118 0.002,-0.147 0.014,-0.27c0.024,-0.244 0.078,-0.484 0.161,-0.715c0.3,-0.839 0.975,-1.514 1.813,-1.814c0.231,-0.082 0.472,-0.137 0.715,-0.161c0.127,-0.012 0.152,-0.011 0.272,-0.014c5.391,0 10.784,-0.13 16.174,0.003Z" style="fill-rule:nonzero;"/>
        </g>
        <g id="emoji">
            <path d="M25,3c0,-0.265 -0.105,-0.52 -0.293,-0.707c-0.187,-0.188 -0.442,-0.293 -0.707,-0.293c-3.151,0 -12.849,0 -16,0c-0.265,0 -0.52,0.105 -0.707,0.293c-0.188,0.187 -0.293,0.442 -0.293,0.707c0,4.355 0,21.645 0,26c0,0.265 0.105,0.52 0.293,0.707c0.187,0.188 0.442,0.293 0.707,0.293c3.151,0 12.849,0 16,0c0.265,0 0.52,-0.105 0.707,-0.293c0.188,-0.187 0.293,-0.442 0.293,-0.707c0,-4.355 0,-21.645 0,-26Z" style="fill:#eb0505;"/>
            <path d="M8,19.5l0,-16.5l16,0l0,17.5l-16,-1Z" style="fill:#ff7272;"/>
            <path d="M8,19.5l2.528,-1.264c2.815,-1.408 6.129,-1.408 8.944,0l4.528,2.264l0,8.5l-16,0l0,-9.5Z" style="fill:#370202;"/>
            <circle cx="13" cy="10" r="5" style="fill:#fff4f4;"/>
        </g>
    </g>
</svg>
