<?xml version="1.0" encoding="UTF-8" standalone="no"?><!DOCTYPE svg PUBLIC "-//W3C//DTD SVG 1.1//EN" "http://www.w3.org/Graphics/SVG/1.1/DTD/svg11.dtd"><svg width="100%" height="100%" viewBox="0 0 32 32" version="1.1" xmlns="http://www.w3.org/2000/svg" xmlns:xlink="http://www.w3.org/1999/xlink" xml:space="preserve" xmlns:serif="http://www.serif.com/" style="fill-rule:evenodd;clip-rule:evenodd;stroke-linecap:square;stroke-linejoin:round;stroke-miterlimit:1.5;"><rect id="spider" x="0" y="0" width="32" height="32" style="fill:none;"/><clipPath id="_clip1"><rect x="0" y="0" width="32" height="32"/></clipPath><g clip-path="url(#_clip1)"><g id="outline"><path d="M19,14c0,-1.657 -1.343,-3 -3,-3c-1.657,0 -3,1.343 -3,3c0,0.654 0,1.346 0,2c0,1.657 1.343,3 3,3c1.657,0 3,-1.343 3,-3c0,-0.654 0,-1.346 0,-2Z" style="fill:#363636;stroke:#000;stroke-width:4px;"/><path d="M20,22c0,-1.061 -0.421,-2.078 -1.172,-2.828c-0.75,-0.751 -1.767,-1.172 -2.828,-1.172c-1.061,0 -2.078,0.421 -2.828,1.172c-0.751,0.75 -1.172,1.767 -1.172,2.828c0,0.659 0,1.341 0,2c0,1.061 0.421,2.078 1.172,2.828c0.75,0.751 1.767,1.172 2.828,1.172c1.061,0 2.078,-0.421 2.828,-1.172c0.751,-0.75 1.172,-1.767 1.172,-2.828c0,-0.659 0,-1.341 0,-2Z" style="fill:#363636;stroke:#000;stroke-width:4px;stroke-linecap:round;"/><path d="M18,14l5,-5l0,-6" style="fill:none;stroke:#000;stroke-width:6px;stroke-linecap:round;"/><path d="M16.5,16.25l10.5,-5.25l2,-4" style="fill:none;stroke:#000;stroke-width:6px;stroke-linecap:round;"/><path d="M18,16l5,5l0,8" style="fill:none;stroke:#000;stroke-width:6px;stroke-linecap:round;"/><path d="M17.5,14.75l8.5,4.25l2,4" style="fill:none;stroke:#000;stroke-width:6px;stroke-linecap:round;"/><path d="M15.5,15.5l-6.5,-6.5l0,-6" style="fill:none;stroke:#000;stroke-width:6px;stroke-linecap:round;"/><path d="M15.5,16.25l-10.5,-5.25l-2,-4" style="fill:none;stroke:#000;stroke-width:6px;stroke-linecap:round;"/><path d="M14,16l-5,5l0,8" style="fill:none;stroke:#000;stroke-width:6px;stroke-linecap:round;"/><path d="M14.5,14.75l-8.5,4.25l-2,4" style="fill:none;stroke:#000;stroke-width:6px;stroke-linecap:round;"/><path d="M17.5,12l1,-1l0,-2" style="fill:none;stroke:#000;stroke-width:6px;stroke-linecap:round;"/><path d="M14.5,12l-1,-1l0,-2" style="fill:none;stroke:#000;stroke-width:6px;stroke-linecap:round;"/></g><g id="emoji"><path d="M20,22c0,-1.061 -0.421,-2.078 -1.172,-2.828c-0.75,-0.751 -1.767,-1.172 -2.828,-1.172c-1.061,0 -2.078,0.421 -2.828,1.172c-0.751,0.75 -1.172,1.767 -1.172,2.828c0,0.659 0,1.341 0,2c0,1.061 0.421,2.078 1.172,2.828c0.75,0.751 1.767,1.172 2.828,1.172c1.061,0 2.078,-0.421 2.828,-1.172c0.751,-0.75 1.172,-1.767 1.172,-2.828c0,-0.659 0,-1.341 0,-2Z" style="fill:#3f3f3f;"/><path d="M18,14l5,-5l0,-6" style="fill:none;stroke:#5a5a5a;stroke-width:2px;stroke-linecap:round;"/><path d="M16.5,16.25l10.5,-5.25l2,-4" style="fill:none;stroke:#5a5a5a;stroke-width:2px;stroke-linecap:round;"/><path d="M18,16l5,5l0,8" style="fill:none;stroke:#5a5a5a;stroke-width:2px;stroke-linecap:round;"/><path d="M17.5,14.75l8.5,4.25l2,4" style="fill:none;stroke:#5a5a5a;stroke-width:2px;stroke-linecap:round;"/><path d="M15.5,15.5l-6.5,-6.5l0,-6" style="fill:none;stroke:#5a5a5a;stroke-width:2px;stroke-linecap:round;"/><path d="M15.5,16.25l-10.5,-5.25l-2,-4" style="fill:none;stroke:#5a5a5a;stroke-width:2px;stroke-linecap:round;"/><path d="M14,16l-5,5l0,8" style="fill:none;stroke:#5a5a5a;stroke-width:2px;stroke-linecap:round;"/><path d="M14.5,14.75l-8.5,4.25l-2,4" style="fill:none;stroke:#5a5a5a;stroke-width:2px;stroke-linecap:round;"/><path d="M17.5,12l1,-1l0,-2" style="fill:none;stroke:#5a5a5a;stroke-width:1px;stroke-linecap:round;"/><path d="M14.5,12l-1,-1l0,-2" style="fill:none;stroke:#5a5a5a;stroke-width:1px;stroke-linecap:round;"/><path d="M19,14c0,-1.657 -1.343,-3 -3,-3c-1.657,0 -3,1.343 -3,3c0,0.654 0,1.346 0,2c0,1.657 1.343,3 3,3c1.657,0 3,-1.343 3,-3c0,-0.654 0,-1.346 0,-2Z" style="fill:#3f3f3f;"/></g></g></svg>