<?xml version="1.0" encoding="UTF-8" standalone="no"?>
<!DOCTYPE svg PUBLIC "-//W3C//DTD SVG 1.1//EN" "http://www.w3.org/Graphics/SVG/1.1/DTD/svg11.dtd">
<svg width="100%" height="100%" viewBox="0 0 32 32" version="1.1" xmlns="http://www.w3.org/2000/svg" xmlns:xlink="http://www.w3.org/1999/xlink" xml:space="preserve" xmlns:serif="http://www.serif.com/" style="fill-rule:evenodd;clip-rule:evenodd;stroke-linecap:round;stroke-linejoin:round;stroke-miterlimit:1.5;">
    <rect id="bath_with_person" x="0" y="0" width="32" height="32" style="fill:none;"/>
    <clipPath id="_clip1">
        <rect x="0" y="0" width="32" height="32"/>
    </clipPath>
    <g clip-path="url(#_clip1)">
        <g id="outline">
            <path d="M7.5,12c-1.459,0 -2.858,0.579 -3.889,1.611c-1.032,1.031 -1.611,2.43 -1.611,3.889c0,1.456 0,2.951 0,4.139c0,1.553 0.361,3.084 1.056,4.472c0.093,0.187 0.189,0.379 0.286,0.572c1.016,2.033 3.094,3.317 5.366,3.317c4.058,0 10.526,0 14.584,0c2.272,0 4.35,-1.284 5.366,-3.317c0.097,-0.193 0.193,-0.385 0.286,-0.572c0.695,-1.388 1.056,-2.919 1.056,-4.472l0,-4.139c0,-1.459 -0.579,-2.858 -1.611,-3.889c-1.031,-1.032 -2.43,-1.611 -3.889,-1.611c-4.917,0 -12.083,0 -17,0Z" style="fill:none;stroke:#000;stroke-width:4px;"/>
            <path d="M5,14l0,-7c0,-0.53 0.211,-1.039 0.586,-1.414c0.375,-0.375 0.884,-0.586 1.414,-0.586c0.53,0 1.039,0.211 1.414,0.586c0.375,0.375 0.586,0.884 0.586,1.414c0,0.551 0,1 0,1" style="fill:none;stroke:#000;stroke-width:6px;stroke-linecap:square;"/>
            <path d="M26,9.998c0,-0.795 -0.316,-1.558 -0.878,-2.12c-0.562,-0.562 -1.325,-0.878 -2.12,-0.878c-0.001,0 -0.003,0 -0.004,0c-0.795,0 -1.558,0.316 -2.12,0.878c-0.562,0.562 -0.878,1.325 -0.878,2.12c0,0.655 0,1.349 0,2.004c0,0.795 0.316,1.558 0.878,2.12c0.562,0.562 1.325,0.878 2.12,0.878c0.001,0 0.003,0 0.004,0c0.795,0 1.558,-0.316 2.12,-0.878c0.562,-0.562 0.878,-1.325 0.878,-2.12c0,-0.655 0,-1.349 0,-2.004Z" style="fill:none;stroke:#000;stroke-width:4px;"/>
        </g>
        <g id="emoji">
            <path d="M5,14l0,-7c0,-0.53 0.211,-1.039 0.586,-1.414c0.375,-0.375 0.884,-0.586 1.414,-0.586c0.53,0 1.039,0.211 1.414,0.586c0.375,0.375 0.586,0.884 0.586,1.414c0,0.551 0,1 0,1" style="fill:none;stroke:#999;stroke-width:2px;stroke-linecap:square;"/>
            <g>
                <g>
                    <path d="M30,18l0,3.639c0,1.553 -0.361,3.084 -1.056,4.472c-0.093,0.187 -0.189,0.379 -0.286,0.572c-1.016,2.033 -3.094,3.317 -5.366,3.317c-4.058,0 -10.526,0 -14.584,0c-2.272,0 -4.35,-1.284 -5.366,-3.317c-0.097,-0.193 -0.193,-0.385 -0.286,-0.572c-0.695,-1.388 -1.056,-2.919 -1.056,-4.472l0,-3.639c0,2.761 28,2.761 28,0Z" style="fill:#ccc;"/>
                    <path d="M2,18.002l0,-0.502c0,-1.459 0.579,-2.858 1.611,-3.889c1.031,-1.032 2.43,-1.611 3.889,-1.611c4.917,0 12.083,0 17,0c1.459,0 2.858,0.579 3.889,1.611c1.032,1.031 1.611,2.43 1.611,3.889l0,0.5c0,2.761 -2.239,5 -5,5c-5.085,0 -12.918,0 -18.002,0c-2.76,0 -4.998,-2.238 -4.998,-4.998Z" style="fill:#fff;"/>
                </g>
                <g>
                    <path d="M3.067,18.272c-0.044,-0.253 -0.067,-0.511 -0.067,-0.772c0,0 0,0 0,0c0,-1.193 0.474,-2.338 1.318,-3.182c0.844,-0.844 1.989,-1.318 3.182,-1.318c4.763,0 12.237,0 17,0c1.193,0 2.338,0.474 3.182,1.318c0.844,0.844 1.318,1.989 1.318,3.182c0,0 0,0 0,0c0,0.261 -0.023,0.519 -0.067,0.772c-0.146,-0.79 -25.72,-0.79 -25.866,0Z" style="fill:#aeaeae;"/>
                    <path d="M3.067,18.272c0.146,-0.79 0.528,-1.524 1.105,-2.1c0.75,-0.751 1.767,-1.172 2.828,-1.172l18,0c1.061,0 2.078,0.421 2.828,1.172c0.577,0.576 0.959,1.31 1.105,2.1c-0.158,0.907 -0.591,1.75 -1.251,2.41c-0.844,0.844 -1.989,1.318 -3.182,1.318c-4.763,0 -12.237,0 -17,0c-1.193,0 -2.338,-0.474 -3.182,-1.318c-0.66,-0.66 -1.093,-1.503 -1.251,-2.41Z" style="fill:#3389ec;"/>
                </g>
            </g>
            <path d="M21.5,14.599c-0.225,-0.13 -0.435,-0.29 -0.622,-0.477c-0.562,-0.562 -0.878,-1.325 -0.878,-2.12c0,-0.655 0,-1.349 0,-2.004c0,-0.795 0.316,-1.558 0.878,-2.12c0.562,-0.562 1.325,-0.878 2.12,-0.878c0.001,0 0.003,0 0.004,0c0.795,0 1.558,0.316 2.12,0.878c0.562,0.562 0.878,1.325 0.878,2.12c0,0.655 0,1.349 0,2.004c0,0.795 -0.316,1.558 -0.878,2.12c-0.187,0.187 -0.397,0.347 -0.622,0.477l0,0.412c1.401,0.125 2.5,1.303 2.5,2.737c0,0.001 0,0.001 0,0.002c0,1.519 -1.231,2.75 -2.75,2.75c-1.811,0 -4.118,0 -5.638,0c-0.89,0 -1.612,-0.722 -1.612,-1.612c0,-0.001 0,-0.001 0,-0.002c0,-1.031 0.409,-2.019 1.138,-2.748c0.729,-0.729 1.717,-1.138 2.748,-1.138l0.614,0l0,-0.401Z" style="fill:#616161;"/>
        </g>
    </g>
</svg>
