<?xml version="1.0" encoding="UTF-8" standalone="no"?>
<!DOCTYPE svg PUBLIC "-//W3C//DTD SVG 1.1//EN" "http://www.w3.org/Graphics/SVG/1.1/DTD/svg11.dtd">
<svg width="100%" height="100%" viewBox="0 0 32 32" version="1.1" xmlns="http://www.w3.org/2000/svg" xmlns:xlink="http://www.w3.org/1999/xlink" xml:space="preserve" xmlns:serif="http://www.serif.com/" style="fill-rule:evenodd;clip-rule:evenodd;stroke-linecap:round;stroke-linejoin:round;stroke-miterlimit:1.5;">
    <rect id="light_bulb" x="0" y="0" width="32" height="32" style="fill:none;"/>
    <clipPath id="_clip1">
        <rect x="0" y="0" width="32" height="32"/>
    </clipPath>
    <g clip-path="url(#_clip1)">
        <g id="outline">
            <path d="M12,22.172c0,-1.403 -0.492,-2.763 -1.391,-3.841c-0.497,-0.597 -1.068,-1.282 -1.606,-1.928c-1.294,-1.553 -2.003,-3.51 -2.003,-5.531c0,-0.001 0,-0.001 0,-0.002c0,-4.899 3.971,-8.87 8.87,-8.87c0.087,0 0.173,0 0.26,0c4.899,0 8.87,3.971 8.87,8.87c0,0.001 0,0.001 0,0.002c0,2.021 -0.709,3.978 -2.003,5.531c-0.538,0.646 -1.109,1.331 -1.606,1.928c-0.899,1.078 -1.391,2.438 -1.391,3.841c0,0.356 0,0.704 0,1c0,0.53 -0.211,1.039 -0.586,1.414c-0.59,0.59 -1.414,1.414 -1.414,1.414l-4,0c0,0 -0.824,-0.824 -1.414,-1.414c-0.375,-0.375 -0.586,-0.884 -0.586,-1.414c0,-0.296 0,-0.644 0,-1Z" style="fill:none;"/>
            <clipPath id="_clip2">
                <path d="M12,22.172c0,-1.403 -0.492,-2.763 -1.391,-3.841c-0.497,-0.597 -1.068,-1.282 -1.606,-1.928c-1.294,-1.553 -2.003,-3.51 -2.003,-5.531c0,-0.001 0,-0.001 0,-0.002c0,-4.899 3.971,-8.87 8.87,-8.87c0.087,0 0.173,0 0.26,0c4.899,0 8.87,3.971 8.87,8.87c0,0.001 0,0.001 0,0.002c0,2.021 -0.709,3.978 -2.003,5.531c-0.538,0.646 -1.109,1.331 -1.606,1.928c-0.899,1.078 -1.391,2.438 -1.391,3.841c0,0.356 0,0.704 0,1c0,0.53 -0.211,1.039 -0.586,1.414c-0.59,0.59 -1.414,1.414 -1.414,1.414l-4,0c0,0 -0.824,-0.824 -1.414,-1.414c-0.375,-0.375 -0.586,-0.884 -0.586,-1.414c0,-0.296 0,-0.644 0,-1Z"/>
            </clipPath>
            <g clip-path="url(#_clip2)">
                <rect x="6" y="12" width="20" height="14" style="fill:#c8c8c8;"/>
            </g>
            <path d="M12,22.172c0,-1.403 -0.492,-2.763 -1.391,-3.841c-0.497,-0.597 -1.068,-1.282 -1.606,-1.928c-1.294,-1.553 -2.003,-3.51 -2.003,-5.531c0,-0.001 0,-0.001 0,-0.002c0,-4.899 3.971,-8.87 8.87,-8.87c0.087,0 0.173,0 0.26,0c4.899,0 8.87,3.971 8.87,8.87c0,0.001 0,0.001 0,0.002c0,2.021 -0.709,3.978 -2.003,5.531c-0.538,0.646 -1.109,1.331 -1.606,1.928c-0.899,1.078 -1.391,2.438 -1.391,3.841c0,0.356 0,0.704 0,1c0,0.53 -0.211,1.039 -0.586,1.414c-0.59,0.59 -1.414,1.414 -1.414,1.414l-4,0c0,0 -0.824,-0.824 -1.414,-1.414c-0.375,-0.375 -0.586,-0.884 -0.586,-1.414c0,-0.296 0,-0.644 0,-1Z" style="fill:none;stroke:#000;stroke-width:4px;"/>
            <path d="M19,25l-6,0l0,3.586c0,0.265 0.105,0.519 0.293,0.707c0.13,0.13 0.284,0.284 0.414,0.414c0.188,0.188 0.442,0.293 0.707,0.293c0.768,0 2.404,0 3.172,0c0.265,0 0.519,-0.105 0.707,-0.293c0.13,-0.13 0.284,-0.284 0.414,-0.414c0.188,-0.188 0.293,-0.442 0.293,-0.707c0,-1.023 0,-3.586 0,-3.586Z" style="fill:none;stroke:#000;stroke-width:4px;"/>
        </g>
        <g id="emoji">
            <path d="M12,22.172c0,-1.403 -0.492,-2.763 -1.391,-3.841c-0.497,-0.597 -1.068,-1.282 -1.606,-1.928c-1.294,-1.553 -2.003,-3.51 -2.003,-5.531c0,-0.001 0,-0.001 0,-0.002c0,-4.899 3.971,-8.87 8.87,-8.87c0.087,0 0.173,0 0.26,0c4.899,0 8.87,3.971 8.87,8.87c0,0.001 0,0.001 0,0.002c0,2.021 -0.709,3.978 -2.003,5.531c-0.538,0.646 -1.109,1.331 -1.606,1.928c-0.899,1.078 -1.391,2.438 -1.391,3.841c0,0.356 0,0.704 0,1c0,0.53 -0.211,1.039 -0.586,1.414c-0.59,0.59 -1.414,1.414 -1.414,1.414l-4,0c0,0 -0.824,-0.824 -1.414,-1.414c-0.375,-0.375 -0.586,-0.884 -0.586,-1.414c0,-0.296 0,-0.644 0,-1Z" style="fill:#ededed;"/>
            <clipPath id="_clip3">
                <path d="M12,22.172c0,-1.403 -0.492,-2.763 -1.391,-3.841c-0.497,-0.597 -1.068,-1.282 -1.606,-1.928c-1.294,-1.553 -2.003,-3.51 -2.003,-5.531c0,-0.001 0,-0.001 0,-0.002c0,-4.899 3.971,-8.87 8.87,-8.87c0.087,0 0.173,0 0.26,0c4.899,0 8.87,3.971 8.87,8.87c0,0.001 0,0.001 0,0.002c0,2.021 -0.709,3.978 -2.003,5.531c-0.538,0.646 -1.109,1.331 -1.606,1.928c-0.899,1.078 -1.391,2.438 -1.391,3.841c0,0.356 0,0.704 0,1c0,0.53 -0.211,1.039 -0.586,1.414c-0.59,0.59 -1.414,1.414 -1.414,1.414l-4,0c0,0 -0.824,-0.824 -1.414,-1.414c-0.375,-0.375 -0.586,-0.884 -0.586,-1.414c0,-0.296 0,-0.644 0,-1Z"/>
            </clipPath>
            <g clip-path="url(#_clip3)">
                <path d="M23,14l-14,0l0,-3c0,-3.866 3.134,-7 7,-7l0,0c3.866,0 7,3.134 7,7l0,3Z" style="fill:#fff;"/>
                <rect x="6" y="12" width="20" height="14" style="fill:#c8c8c8;"/>
                <clipPath id="_clip4">
                    <rect x="6" y="12" width="20" height="14"/>
                </clipPath>
                <g clip-path="url(#_clip4)">
                    <path d="M9,9l0,2.183c0,1.804 0.716,3.533 1.992,4.809c0.266,0.266 0.533,0.533 0.781,0.781c0.786,0.786 1.227,1.851 1.227,2.962c0,1.218 0,2.776 0,3.631c0,0.35 0.284,0.634 0.634,0.634c0.233,0 0.499,0 0.732,0c0.169,0 0.33,-0.067 0.448,-0.186c0.119,-0.118 0.186,-0.28 0.186,-0.448c0,-0.986 0,-2.93 0,-4.412c0,-1.274 -0.377,-2.52 -1.084,-3.58c0,0 0,0 0,0c-0.597,-0.896 -0.916,-1.949 -0.916,-3.025c0,-1.457 0,-3.349 0,-3.349l-4,0Z" style="fill:#fff;fill-opacity:0.48;"/>
                </g>
            </g>
            <path d="M19,25l-6,0l0,3.586c0,0.265 0.105,0.519 0.293,0.707c0.13,0.13 0.284,0.284 0.414,0.414c0.188,0.188 0.442,0.293 0.707,0.293c0.768,0 2.404,0 3.172,0c0.265,0 0.519,-0.105 0.707,-0.293c0.13,-0.13 0.284,-0.284 0.414,-0.414c0.188,-0.188 0.293,-0.442 0.293,-0.707c0,-1.023 0,-3.586 0,-3.586Z" style="fill:#7d7d7d;"/>
            <path d="M16,26.5c0,-0.133 -0.053,-0.26 -0.146,-0.354c-0.094,-0.093 -0.221,-0.146 -0.354,-0.146c-0.305,0 -0.695,0 -1,0c-0.133,0 -0.26,0.053 -0.354,0.146c-0.093,0.094 -0.146,0.221 -0.146,0.354c0,0.555 0,1.445 0,2c0,0.133 0.053,0.26 0.146,0.354c0.094,0.093 0.221,0.146 0.354,0.146c0.305,0 0.695,0 1,0c0.133,0 0.26,-0.053 0.354,-0.146c0.093,-0.094 0.146,-0.221 0.146,-0.354c0,-0.555 0,-1.445 0,-2Z" style="fill:#fff;fill-opacity:0.39;"/>
        </g>
    </g>
</svg>
