<?xml version="1.0" encoding="UTF-8" standalone="no"?>
<!DOCTYPE svg PUBLIC "-//W3C//DTD SVG 1.1//EN" "http://www.w3.org/Graphics/SVG/1.1/DTD/svg11.dtd">
<svg width="100%" height="100%" viewBox="0 0 32 32" version="1.1" xmlns="http://www.w3.org/2000/svg" xmlns:xlink="http://www.w3.org/1999/xlink" xml:space="preserve" xmlns:serif="http://www.serif.com/" style="fill-rule:evenodd;clip-rule:evenodd;stroke-linejoin:round;stroke-miterlimit:2;">
    <rect id="soap" x="0" y="0" width="32" height="32" style="fill:none;"/>
    <clipPath id="_clip1">
        <rect x="0" y="0" width="32" height="32"/>
    </clipPath>
    <g clip-path="url(#_clip1)">
        <g id="outline">
            <path d="M15.064,0.19c0.457,-0.124 0.939,-0.19 1.436,-0.19c2.346,0 4.351,1.472 5.14,3.541c1.405,0.762 2.36,2.25 2.36,3.959c0,0.214 -0.015,0.425 -0.044,0.631l6.828,6.826c0.217,0.218 0.41,0.46 0.573,0.722c0.263,0.424 0.445,0.898 0.535,1.389c0.042,0.232 0.063,0.468 0.065,0.704l0,0.016c0,0 0,3.659 0,5.371c0,1.286 -0.727,2.462 -1.878,3.038c-2.007,1.003 -7.406,3.703 -9.895,4.947c-1.54,0.77 -3.4,0.468 -4.618,-0.749l-5.941,-5.942c-0.135,0.243 -0.304,0.468 -0.504,0.668c-0.562,0.563 -1.325,0.879 -2.121,0.879l-0.149,-0.004c-0.741,-0.036 -1.445,-0.347 -1.972,-0.875c-0.563,-0.562 -0.879,-1.325 -0.879,-2.121l0,-0.337c-0.359,-0.17 -0.689,-0.401 -0.975,-0.688c-0.656,-0.656 -1.025,-1.545 -1.025,-2.473l0,-3.761c-1.221,-1.009 -2,-2.535 -2,-4.241c0,-0.747 0.149,-1.46 0.42,-2.109c-0.272,-0.746 -0.42,-1.551 -0.42,-2.391c0,-3.863 3.137,-7 7,-7c1.199,0 2.328,0.302 3.314,0.834c0.942,-0.531 2.029,-0.834 3.186,-0.834c0.539,0 1.063,0.066 1.564,0.19Z"/>
        </g>
        <g id="emoji">
            <path d="M4,12l3,0l0,3l1,0l0,8c0,0.117 -0.021,0.233 -0.061,0.343c-0.032,0.09 -0.078,0.175 -0.135,0.252c-0.058,0.078 -0.127,0.147 -0.204,0.205c-0.182,0.137 -0.41,0.208 -0.637,0.199c-0.117,-0.004 -0.232,-0.029 -0.34,-0.073c-0.116,-0.047 -0.222,-0.116 -0.312,-0.202c-0.095,-0.09 -0.172,-0.199 -0.225,-0.319c-0.057,-0.127 -0.086,-0.266 -0.086,-0.405l-0.002,-2.085c-0.136,0.048 -0.278,0.076 -0.422,0.083c-0.149,0.008 -0.299,-0.007 -0.443,-0.043c-0.163,-0.041 -0.318,-0.109 -0.458,-0.202c-0.137,-0.089 -0.258,-0.202 -0.359,-0.33c-0.094,-0.121 -0.169,-0.256 -0.222,-0.399c-0.062,-0.167 -0.093,-0.344 -0.094,-0.522l0,-7.502Z" style="fill:#fcc6e5;"/>
            <path d="M15.098,2.292c0.429,-0.188 0.904,-0.292 1.402,-0.292c1.932,0 3.5,1.568 3.5,3.5c0,1.656 -1.152,3.045 -2.698,3.408c-0.799,1.257 -2.204,2.092 -3.802,2.092c-0.978,0 -1.884,-0.313 -2.623,-0.844c-0.5,0.614 -1.143,1.107 -1.878,1.428c-0.045,1.893 -1.595,3.416 -3.499,3.416c-1.932,0 -3.5,-1.568 -3.5,-3.5c0,-0.758 0.241,-1.459 0.651,-2.033c-0.414,-0.728 -0.651,-1.57 -0.651,-2.467c0,-2.76 2.24,-5 5,-5c1.288,0 2.462,0.488 3.349,1.289c0.812,-0.797 1.925,-1.289 3.151,-1.289c0.563,0 1.102,0.104 1.598,0.292Z" style="fill:#fff;"/>
            <g>
                <path d="M29.957,17.788l-13.667,-8.498l-12.29,0.869l0,5.263c0,0.37 0.147,0.725 0.409,0.987c1.883,1.883 9.743,9.743 12.572,12.572c0.608,0.608 1.538,0.759 2.308,0.374c2.49,-1.244 7.888,-3.944 9.896,-4.947c0.473,-0.237 0.772,-0.72 0.772,-1.249c0,-1.712 0,-5.371 0,-5.371Z" style="fill:#e23898;"/>
                <path d="M28.333,18.333l-12.38,-14.374l-10.329,5.665l12.376,14.376l10.333,-5.667Z" style="fill:#eb46a4;"/>
                <path d="M28.851,19.575c0.575,-0.288 0.977,-0.834 1.08,-1.469c0.103,-0.635 -0.106,-1.28 -0.561,-1.735c-3.307,-3.306 -9.875,-9.872 -12.397,-12.393c-0.609,-0.609 -1.539,-0.759 -2.309,-0.375c-2.202,1.102 -6.726,3.364 -9.558,4.78c-0.575,0.287 -0.977,0.834 -1.08,1.468c-0.103,0.635 0.105,1.28 0.56,1.735c3.306,3.306 9.873,9.873 12.395,12.395c0.608,0.608 1.538,0.759 2.308,0.374c2.204,-1.101 6.729,-3.364 9.562,-4.78Zm-21.163,-9.129l10.904,10.904l7.676,-3.838l-10.907,-10.903l-7.673,3.837Z" style="fill:#f876bf;"/>
            </g>
            <path d="M8.042,6.042c0.215,-1.161 1.235,-2.042 2.458,-2.042c1.38,0 2.5,1.12 2.5,2.5c0,1.223 -0.881,2.243 -2.042,2.458c0.028,0.177 0.042,0.358 0.042,0.542c0,1.932 -1.568,3.5 -3.5,3.5c-1.932,0 -3.5,-1.568 -3.5,-3.5c0,-1.932 1.568,-3.5 3.5,-3.5c0.184,0 0.365,0.014 0.542,0.042Zm11.458,-1.042c1.38,0 2.5,1.12 2.5,2.5c0,1.38 -1.12,2.5 -2.5,2.5c-1.38,0 -2.5,-1.12 -2.5,-2.5c0,-1.38 1.12,-2.5 2.5,-2.5Z" style="fill:#fcc6e5;"/>
        </g>
    </g>
</svg>
