<?xml version="1.0" encoding="UTF-8" standalone="no"?>
<!DOCTYPE svg PUBLIC "-//W3C//DTD SVG 1.1//EN" "http://www.w3.org/Graphics/SVG/1.1/DTD/svg11.dtd">
<svg width="100%" height="100%" viewBox="0 0 32 32" version="1.1" xmlns="http://www.w3.org/2000/svg" xmlns:xlink="http://www.w3.org/1999/xlink" xml:space="preserve" xmlns:serif="http://www.serif.com/" style="fill-rule:evenodd;clip-rule:evenodd;stroke-linecap:round;stroke-linejoin:round;stroke-miterlimit:1.5;">
    <rect id="soap" x="0" y="0" width="32" height="32" style="fill:none;"/>
    <clipPath id="_clip1">
        <rect x="0" y="0" width="32" height="32"/>
    </clipPath>
    <g clip-path="url(#_clip1)">
        <g id="outline">
            <path d="M30,12c0,-1.591 -0.632,-3.117 -1.757,-4.243c-1.126,-1.125 -2.652,-1.757 -4.243,-1.757c-4.724,0 -11.276,0 -16,0c-1.591,0 -3.117,0.632 -4.243,1.757c-1.125,1.126 -1.757,2.652 -1.757,4.243c0,1.681 0,3.466 0,5c0,1.061 0.421,2.078 1.172,2.828c0.75,0.751 1.767,1.172 2.828,1.172c5.322,0 14.678,0 20,0c1.061,0 2.078,-0.421 2.828,-1.172c0.751,-0.75 1.172,-1.767 1.172,-2.828c0,-1.534 0,-3.319 0,-5Z" style="fill:none;stroke:#000;stroke-width:4px;"/>
            <path d="M30,15c0,-1.061 -0.421,-2.078 -1.172,-2.828c-0.75,-0.751 -1.767,-1.172 -2.828,-1.172c-5.322,0 -14.678,0 -20,0c-1.061,0 -2.078,0.421 -2.828,1.172c-0.751,0.75 -1.172,1.767 -1.172,2.828c0,1.534 0,3.319 0,5c0,1.591 0.632,3.117 1.757,4.243c1.126,1.125 2.652,1.757 4.243,1.757c4.724,0 11.276,0 16,0c1.591,0 3.117,-0.632 4.243,-1.757c1.125,-1.126 1.757,-2.652 1.757,-4.243c0,-1.681 0,-3.466 0,-5Z" style="fill:none;stroke:#000;stroke-width:4px;"/>
        </g>
        <g id="emoji">
            <path d="M30,17l-28,0l0,3c0,3.314 2.686,6 6,6c4.891,0 11.744,0 16.496,0c1.46,0 2.86,-0.58 3.892,-1.612c1.032,-1.032 1.612,-2.432 1.612,-3.892c0,-1.87 0,-3.496 0,-3.496Z" style="fill:#478039;"/>
            <path d="M30,12c0,-1.591 -0.632,-3.117 -1.757,-4.243c-1.126,-1.125 -2.652,-1.757 -4.243,-1.757c-4.724,0 -11.276,0 -16,0c-1.591,0 -3.117,0.632 -4.243,1.757c-1.125,1.126 -1.757,2.652 -1.757,4.243c0,1.681 0,3.466 0,5c0,1.061 0.421,2.078 1.172,2.828c0.75,0.751 1.767,1.172 2.828,1.172c5.322,0 14.678,0 20,0c1.061,0 2.078,-0.421 2.828,-1.172c0.751,-0.75 1.172,-1.767 1.172,-2.828c0,-1.534 0,-3.319 0,-5Z" style="fill:#569b45;"/>
            <path d="M28,12.502c0,-1.194 -0.474,-2.339 -1.319,-3.183c-0.844,-0.845 -1.989,-1.319 -3.183,-1.319l-14.996,0c-1.194,0 -2.339,0.474 -3.183,1.319c-0.845,0.844 -1.319,1.989 -1.319,3.183l0,0.002c0,1.931 1.565,3.496 3.496,3.496c4.551,0 12.457,0 17.008,0c1.931,0 3.496,-1.565 3.496,-3.496c0,-0.001 0,-0.001 0,-0.002Z" style="fill:#70ce59;"/>
        </g>
    </g>
</svg>
