<?xml version="1.0" encoding="UTF-8" standalone="no"?>
<!DOCTYPE svg PUBLIC "-//W3C//DTD SVG 1.1//EN" "http://www.w3.org/Graphics/SVG/1.1/DTD/svg11.dtd">
<svg width="100%" height="100%" viewBox="0 0 32 32" version="1.1" xmlns="http://www.w3.org/2000/svg" xmlns:xlink="http://www.w3.org/1999/xlink" xml:space="preserve" xmlns:serif="http://www.serif.com/" style="fill-rule:evenodd;clip-rule:evenodd;stroke-linejoin:round;stroke-miterlimit:2;">
    <rect id="disappointed_but_relieved" x="0" y="0" width="32" height="32" style="fill:none;"/>
    <clipPath id="_clip1">
        <rect x="0" y="0" width="32" height="32"/>
    </clipPath>
    <g clip-path="url(#_clip1)">
        <g id="outline">
            <path d="M17.006,32l-4.012,0c-7.176,0 -12.994,-5.818 -12.994,-12.994l0,-1.008c0,-8.283 6.715,-14.998 14.998,-14.998l0.004,0c2.815,0 5.449,0.776 7.699,2.125l2.01,-4.019c0.339,-0.678 1.031,-1.106 1.789,-1.106c0.758,0 1.45,0.428 1.789,1.106c0,0 1.757,3.514 2.942,5.884c1.017,2.033 0.618,4.489 -0.989,6.097c-0.001,0 -0.001,0.001 -0.001,0.001c-0.26,0.259 -0.543,0.489 -0.846,0.686c0.394,1.339 0.605,2.757 0.605,4.224c0,0.337 0,0.673 0,1.008c0,7.176 -5.818,12.994 -12.994,12.994Z"/>
        </g>
        <g id="emoji">
            <g>
                <path d="M15.002,5c2.494,0 4.824,0.702 6.802,1.92c0,0 5.392,7.683 5.73,7.615c0.304,1.103 0.466,2.264 0.466,3.463c0,0.337 0,0.673 0,1.008c0,6.072 -4.922,10.994 -10.994,10.994c-1.328,0 -2.684,0 -4.012,0c-6.072,0 -10.994,-4.922 -10.994,-10.994l0,-1.008c0,-7.179 5.819,-12.998 12.998,-12.998l0.004,0Z" style="fill:#fbc546;"/>
                <path d="M21.804,6.92c2.766,1.702 4.846,4.41 5.73,7.615c-0.338,0.068 -0.684,0.102 -1.034,0.102c-1.403,0 -2.749,-0.557 -3.741,-1.549c0,0 0,-0.001 -0.001,-0.001c-1.607,-1.608 -2.006,-4.064 -0.989,-6.097l0.035,-0.07Z" style="fill:#e59a10;"/>
            </g>
            <path d="M12,14.996c0,-0.267 -0.106,-0.522 -0.294,-0.71c-0.188,-0.189 -0.444,-0.294 -0.71,-0.294c-1.109,0 -2.883,0 -3.992,0c-0.266,0 -0.522,0.105 -0.71,0.294c-0.188,0.188 -0.294,0.443 -0.294,0.71c0,0 0,0 0,0c0,0.266 0.106,0.522 0.294,0.71c0.188,0.188 0.444,0.294 0.71,0.294c1.109,0 2.883,0 3.992,0c0.266,0 0.522,-0.106 0.71,-0.294c0.188,-0.188 0.294,-0.444 0.294,-0.71c0,0 0,0 0,0Z"/>
            <path d="M24,14.996c0,-0.267 -0.106,-0.522 -0.294,-0.71c-0.188,-0.189 -0.444,-0.294 -0.71,-0.294c-1.109,0 -2.883,0 -3.992,0c-0.266,0 -0.522,0.105 -0.71,0.294c-0.188,0.188 -0.294,0.443 -0.294,0.71c0,0 0,0 0,0c0,0.266 0.106,0.522 0.294,0.71c0.188,0.188 0.444,0.294 0.71,0.294c1.109,0 2.883,0 3.992,0c0.266,0 0.522,-0.106 0.71,-0.294c0.188,-0.188 0.294,-0.444 0.294,-0.71c0,0 0,0 0,0Z"/>
            <path d="M26.5,2c0,0 -1.757,3.514 -2.942,5.884c-0.632,1.264 -0.384,2.79 0.615,3.789c0,0 0,0 0.001,0.001c0.617,0.617 1.453,0.963 2.326,0.963c0.873,0 1.709,-0.346 2.326,-0.963c0.001,-0.001 0.001,-0.001 0.001,-0.001c0.999,-0.999 1.247,-2.525 0.615,-3.789c-1.185,-2.37 -2.942,-5.884 -2.942,-5.884Z" style="fill:#fff;"/>
            <path d="M15,18c2.217,0 4.244,1.253 5.236,3.236c0.363,0.727 0.658,1.317 0.658,1.317c0.247,0.493 0.047,1.095 -0.447,1.341c-0.493,0.247 -1.095,0.047 -1.341,-0.447c0,0 -0.295,-0.59 -0.659,-1.317c-0.653,-1.305 -1.987,-2.13 -3.447,-2.13c0,0 0,0 0,0c-1.46,0 -2.794,0.825 -3.447,2.13c-0.364,0.727 -0.659,1.317 -0.659,1.317c-0.246,0.494 -0.848,0.694 -1.341,0.447c-0.494,-0.246 -0.694,-0.848 -0.447,-1.341c0,0 0.295,-0.59 0.658,-1.317c0.992,-1.983 3.019,-3.236 5.236,-3.236l0,0Z" style="fill:#593604;"/>
        </g>
    </g>
</svg>
