<?xml version="1.0" encoding="UTF-8" standalone="no"?>
<!DOCTYPE svg PUBLIC "-//W3C//DTD SVG 1.1//EN" "http://www.w3.org/Graphics/SVG/1.1/DTD/svg11.dtd">
<svg width="100%" height="100%" viewBox="0 0 32 32" version="1.1" xmlns="http://www.w3.org/2000/svg" xmlns:xlink="http://www.w3.org/1999/xlink" xml:space="preserve" xmlns:serif="http://www.serif.com/" style="fill-rule:evenodd;clip-rule:evenodd;stroke-linejoin:round;stroke-miterlimit:2;">
    <rect id="hand_over_mouth" x="0" y="0" width="32" height="32" style="fill:none;"/>
    <g id="outline">
        <path d="M16,1c8.284,0 15,6.716 15,15l0,2c0,3.183 -1.264,6.235 -3.515,8.485c-2.25,2.251 -5.302,3.515 -8.485,3.515l-1.74,0l-0.001,0.001c-1.12,1.148 -2.654,1.799 -4.257,1.808c-1.604,0.01 -3.144,-0.623 -4.278,-1.757l-1.578,-1.577c-0.956,-0.534 -1.843,-1.201 -2.631,-1.99c-2.251,-2.25 -3.515,-5.302 -3.515,-8.485l0,-2c0,-8.284 6.716,-15 15,-15l0,0Z"/>
    </g>
    <g id="emoji">
        <g>
            <path d="M25.553,25.553c0,0 -20.226,-1.59 -20.206,-1.116c-1.51,-1.795 -2.347,-4.073 -2.347,-6.437l0,-2c0,-7.18 5.82,-13 13,-13l0.084,0c7.141,0.045 12.916,5.848 12.916,13c0,0.671 0,1.34 0,2c0,2.652 -1.054,5.196 -2.929,7.071c-0.167,0.167 -0.34,0.328 -0.518,0.482Z" style="fill:#fbc546;"/>
            <path d="M21.136,21.137c0.012,0.011 0.024,0.023 0.036,0.035l4.381,4.381c-1.758,1.526 -4,2.394 -6.338,2.445c0,0 1.785,-4.998 1.912,-6.87l0.009,0.009Z" style="fill:#e59a10;"/>
            <path d="M5.347,24.437c-0.02,-0.474 0.017,-0.953 0.112,-1.428c0.273,-1.369 0.58,-2.901 0.58,-2.901c0.144,-0.723 0.675,-1.308 1.381,-1.522c0.706,-0.214 1.473,-0.022 1.994,0.5l0.586,0.586l1.464,-1.465c1.953,-1.953 5.119,-1.953 7.072,0c0.548,0.549 1.139,1.14 1.687,1.687c1.936,1.937 1.955,5.07 0.042,7.029l-1.05,1.075c-0.071,0.001 -0.143,0.002 -0.215,0.002c-1.968,0 -4.032,0 -6,0c-2.652,0 -5.196,-1.054 -7.071,-2.929c-0.204,-0.204 -0.398,-0.415 -0.582,-0.634Z" style="fill:#7e5108;"/>
        </g>
        <path d="M8,20.5c0,0 -0.307,1.533 -0.58,2.901c-0.262,1.311 0.148,2.667 1.094,3.613c0.495,0.495 1.063,1.063 1.624,1.624c0.756,0.756 1.783,1.178 2.852,1.171c1.069,-0.006 2.091,-0.44 2.838,-1.205c0.992,-1.016 2.087,-2.138 3.006,-3.078c1.148,-1.176 1.136,-3.056 -0.025,-4.217c-0.548,-0.548 -1.139,-1.139 -1.688,-1.688c-1.171,-1.171 -3.071,-1.171 -4.242,0c-1.363,1.363 -2.879,2.879 -2.879,2.879l-2,-2Z" style="fill:#fbc546;"/>
        <g>
            <path d="M9.502,17c0.928,0 1.817,-0.369 2.473,-1.025c0.656,-0.656 1.025,-1.545 1.025,-2.473c0,-0.657 0,-1.345 0,-2.002c0,-1.933 -1.567,-3.5 -3.5,-3.5l-0.002,0c-0.928,0 -1.817,0.369 -2.473,1.025c-0.656,0.656 -1.025,1.545 -1.025,2.473c0,0.657 0,1.345 0,2.002c0,1.933 1.567,3.5 3.5,3.5l0.002,0Z" style="fill:#fff;"/>
            <path d="M8,11c0,-0.53 0.211,-1.039 0.586,-1.414c0.375,-0.375 0.884,-0.586 1.414,-0.586c0.53,0 1.039,0.211 1.414,0.586c0.375,0.375 0.586,0.884 0.586,1.414c0,0.936 0,2.048 0,2.983c0,0.531 -0.211,1.039 -0.586,1.415c-0.375,0.375 -0.884,0.585 -1.414,0.585c-0.53,0 -1.039,-0.21 -1.414,-0.585c-0.375,-0.376 -0.586,-0.884 -0.586,-1.415c0,-0.935 0,-2.047 0,-2.983Z"/>
            <path d="M22.498,17c-0.928,0 -1.817,-0.369 -2.473,-1.025c-0.656,-0.656 -1.025,-1.545 -1.025,-2.473c0,-0.657 0,-1.345 0,-2.002c0,-1.933 1.567,-3.5 3.5,-3.5l0.002,0c0.928,0 1.817,0.369 2.473,1.025c0.656,0.656 1.025,1.545 1.025,2.473c0,0.657 0,1.345 0,2.002c0,1.933 -1.567,3.5 -3.5,3.5l-0.002,0Z" style="fill:#fff;"/>
            <path d="M24,11c0,-0.53 -0.211,-1.039 -0.586,-1.414c-0.375,-0.375 -0.884,-0.586 -1.414,-0.586c-0.53,0 -1.039,0.211 -1.414,0.586c-0.375,0.375 -0.586,0.884 -0.586,1.414c0,0.936 0,2.048 0,2.983c0,0.531 0.211,1.039 0.586,1.415c0.375,0.375 0.884,0.585 1.414,0.585c0.53,0 1.039,-0.21 1.414,-0.585c0.375,-0.376 0.586,-0.884 0.586,-1.415c0,-0.935 0,-2.047 0,-2.983Z"/>
        </g>
    </g>
</svg>
