<?xml version="1.0" encoding="UTF-8" standalone="no"?>
<!DOCTYPE svg PUBLIC "-//W3C//DTD SVG 1.1//EN" "http://www.w3.org/Graphics/SVG/1.1/DTD/svg11.dtd">
<svg width="100%" height="100%" viewBox="0 0 32 32" version="1.1" xmlns="http://www.w3.org/2000/svg" xmlns:xlink="http://www.w3.org/1999/xlink" xml:space="preserve" xmlns:serif="http://www.serif.com/" style="fill-rule:evenodd;clip-rule:evenodd;stroke-linejoin:round;stroke-miterlimit:1.41421;">
    <rect id="hand_over_mouth" x="0" y="0" width="32" height="32" style="fill:none;"/>
    <g id="outline">
        <path d="M16.193,1.001l0.193,0.004l0.192,0.006l0.192,0.008l0.191,0.011l0.191,0.014l0.19,0.015l0.189,0.018l0.189,0.021l0.188,0.022l0.187,0.025l0.187,0.028l0.186,0.029l0.185,0.032l0.184,0.034l0.184,0.037l0.183,0.038l0.182,0.041l0.181,0.043l0.18,0.045l0.18,0.048l0.178,0.049l0.178,0.052l0.177,0.054l0.176,0.056l0.175,0.058l0.173,0.06l0.173,0.062l0.172,0.064l0.171,0.066l0.17,0.068l0.169,0.071l0.168,0.072l0.167,0.074l0.166,0.076l0.164,0.078l0.164,0.08l0.162,0.082l0.161,0.084l0.16,0.086l0.159,0.087l0.158,0.09l0.156,0.091l0.156,0.093l0.154,0.095l0.152,0.096l0.152,0.099l0.15,0.1l0.149,0.102l0.148,0.103l0.146,0.106l0.145,0.107l0.144,0.109l0.142,0.11l0.141,0.112l0.139,0.114l0.138,0.115l0.137,0.117l0.135,0.119l0.134,0.12l0.133,0.122l0.13,0.123l0.13,0.125l0.128,0.126l0.126,0.128l0.125,0.13l0.123,0.13l0.122,0.133l0.12,0.134l0.119,0.135l0.117,0.137l0.115,0.138l0.114,0.139l0.112,0.141l0.11,0.142l0.109,0.144l0.107,0.145l0.106,0.146l0.103,0.148l0.102,0.149l0.1,0.15l0.099,0.152l0.096,0.153l0.095,0.153l0.093,0.156l0.092,0.156l0.089,0.158l0.087,0.159l0.086,0.16l0.084,0.161l0.082,0.162l0.08,0.164l0.078,0.164l0.076,0.166l0.074,0.167l0.072,0.168l0.071,0.169l0.068,0.17l0.066,0.171l0.064,0.172l0.062,0.172l0.06,0.174l0.059,0.176l0.055,0.175l0.054,0.177l0.052,0.178l0.049,0.178l0.048,0.18l0.045,0.18l0.043,0.181l0.041,0.182l0.038,0.183l0.037,0.184l0.034,0.184l0.032,0.185l0.029,0.186l0.028,0.187l0.025,0.187l0.022,0.188l0.021,0.189l0.018,0.189l0.015,0.19l0.014,0.191l0.011,0.191l0.008,0.192l0.006,0.192l0.004,0.193l0.001,0.187l0,2.012l-0.001,0.143l-0.003,0.149l-0.004,0.149l-0.007,0.148l-0.008,0.148l-0.01,0.148l-0.012,0.148l-0.014,0.147l-0.015,0.147l-0.017,0.146l-0.02,0.147l-0.021,0.146l-0.022,0.145l-0.025,0.146l-0.026,0.145l-0.028,0.144l-0.029,0.144l-0.032,0.143l-0.033,0.144l-0.035,0.142l-0.037,0.142l-0.038,0.142l-0.04,0.141l-0.042,0.14l-0.043,0.14l-0.045,0.139l-0.047,0.139l-0.049,0.138l-0.05,0.138l-0.052,0.137l-0.053,0.135l-0.055,0.136l-0.057,0.135l-0.059,0.134l-0.06,0.134l-0.062,0.132l-0.063,0.132l-0.065,0.132l-0.067,0.13l-0.068,0.13l-0.069,0.128l-0.072,0.129l-0.073,0.127l-0.074,0.126l-0.076,0.125l-0.078,0.125l-0.079,0.124l-0.081,0.123l-0.082,0.121l-0.084,0.121l-0.086,0.121l-0.087,0.118l-0.088,0.118l-0.09,0.117l-0.091,0.116l-0.094,0.115l-0.094,0.114l-0.096,0.113l-0.098,0.112l-0.098,0.11l-0.101,0.11l-0.102,0.108l-0.103,0.107l-0.105,0.106l-0.106,0.105l-0.107,0.103l-0.108,0.102l-0.11,0.101l-0.11,0.099l-0.112,0.097l-0.113,0.096l-0.114,0.094l-0.115,0.093l-0.116,0.092l-0.117,0.09l-0.118,0.088l-0.119,0.087l-0.12,0.086l-0.121,0.084l-0.121,0.082l-0.123,0.081l-0.124,0.079l-0.124,0.078l-0.126,0.076l-0.126,0.074l-0.128,0.073l-0.128,0.072l-0.128,0.069l-0.13,0.069l-0.13,0.066l-0.132,0.065l-0.132,0.063l-0.132,0.062l-0.134,0.06l-0.134,0.059l-0.135,0.057l-0.135,0.055l-0.137,0.053l-0.136,0.052l-0.138,0.05l-0.138,0.049l-0.139,0.047l-0.139,0.045l-0.14,0.043l-0.14,0.042l-0.141,0.04l-0.142,0.038l-0.142,0.037l-0.143,0.035l-0.143,0.033l-0.143,0.032l-0.144,0.029l-0.144,0.028l-0.145,0.026l-0.145,0.025l-0.146,0.023l-0.146,0.02l-0.146,0.02l-0.147,0.017l-0.147,0.015l-0.147,0.014l-0.148,0.012l-0.148,0.01l-0.148,0.008l-0.148,0.007l-0.149,0.004l-0.149,0.003l-0.143,0.001l-6.012,0l-0.143,-0.001l-0.149,-0.003l-0.149,-0.004l-0.148,-0.007l-0.148,-0.008l-0.148,-0.01l-0.148,-0.012l-0.147,-0.014l-0.147,-0.015l-0.147,-0.017l-0.146,-0.02l-0.146,-0.02l-0.146,-0.023l-0.145,-0.025l-0.145,-0.026l-0.144,-0.028l-0.144,-0.029l-0.143,-0.032l-0.143,-0.033l-0.143,-0.035l-0.142,-0.037l-0.142,-0.038l-0.141,-0.04l-0.14,-0.042l-0.14,-0.043l-0.139,-0.045l-0.139,-0.047l-0.138,-0.049l-0.138,-0.05l-0.136,-0.052l-0.137,-0.053l-0.135,-0.055l-0.135,-0.057l-0.134,-0.059l-0.134,-0.06l-0.132,-0.062l-0.132,-0.063l-0.132,-0.065l-0.13,-0.066l-0.13,-0.069l-0.128,-0.069l-0.128,-0.072l-0.128,-0.073l-0.126,-0.074l-0.126,-0.076l-0.124,-0.078l-0.124,-0.079l-0.123,-0.081l-0.121,-0.082l-0.121,-0.084l-0.12,-0.086l-0.119,-0.087l-0.118,-0.088l-0.117,-0.09l-0.116,-0.092l-0.115,-0.093l-0.114,-0.094l-0.113,-0.096l-0.112,-0.097l-0.11,-0.099l-0.11,-0.101l-0.108,-0.102l-0.107,-0.103l-0.106,-0.105l-0.105,-0.106l-0.103,-0.107l-0.102,-0.108l-0.101,-0.11l-0.098,-0.11l-0.098,-0.112l-0.096,-0.113l-0.094,-0.114l-0.094,-0.115l-0.091,-0.116l-0.09,-0.117l-0.088,-0.118l-0.087,-0.118l-0.086,-0.121l-0.084,-0.121l-0.082,-0.121l-0.081,-0.123l-0.079,-0.124l-0.078,-0.125l-0.076,-0.125l-0.074,-0.126l-0.073,-0.127l-0.072,-0.129l-0.069,-0.128l-0.068,-0.13l-0.067,-0.13l-0.065,-0.132l-0.063,-0.132l-0.062,-0.132l-0.06,-0.134l-0.059,-0.134l-0.057,-0.135l-0.055,-0.136l-0.053,-0.135l-0.052,-0.137l-0.05,-0.138l-0.049,-0.138l-0.047,-0.139l-0.045,-0.139l-0.043,-0.14l-0.042,-0.14l-0.04,-0.141l-0.038,-0.142l-0.037,-0.142l-0.035,-0.142l-0.033,-0.144l-0.032,-0.143l-0.029,-0.144l-0.028,-0.144l-0.026,-0.145l-0.025,-0.146l-0.022,-0.145l-0.021,-0.146l-0.02,-0.147l-0.017,-0.146l-0.015,-0.147l-0.014,-0.147l-0.012,-0.148l-0.01,-0.148l-0.008,-0.148l-0.007,-0.148l-0.004,-0.149l-0.003,-0.149l-0.001,-0.143l0,-2.012l0.001,-0.187l0.004,-0.193l0.006,-0.192l0.008,-0.192l0.011,-0.191l0.014,-0.191l0.015,-0.19l0.018,-0.189l0.021,-0.189l0.022,-0.188l0.025,-0.187l0.028,-0.187l0.029,-0.186l0.032,-0.185l0.034,-0.184l0.037,-0.184l0.038,-0.183l0.041,-0.182l0.043,-0.181l0.045,-0.18l0.048,-0.18l0.049,-0.178l0.052,-0.178l0.054,-0.177l0.055,-0.175l0.059,-0.176l0.06,-0.174l0.062,-0.172l0.064,-0.172l0.066,-0.171l0.068,-0.17l0.071,-0.169l0.072,-0.168l0.074,-0.167l0.076,-0.165l0.078,-0.165l0.08,-0.164l0.082,-0.162l0.084,-0.161l0.086,-0.16l0.087,-0.159l0.089,-0.158l0.092,-0.156l0.093,-0.156l0.095,-0.154l0.096,-0.152l0.099,-0.152l0.1,-0.15l0.102,-0.149l0.103,-0.148l0.106,-0.146l0.107,-0.145l0.109,-0.144l0.11,-0.142l0.112,-0.141l0.114,-0.139l0.115,-0.138l0.117,-0.137l0.119,-0.135l0.12,-0.134l0.122,-0.132l0.123,-0.131l0.125,-0.13l0.126,-0.128l0.128,-0.126l0.13,-0.125l0.13,-0.123l0.133,-0.122l0.134,-0.12l0.135,-0.119l0.137,-0.117l0.138,-0.115l0.139,-0.114l0.141,-0.112l0.142,-0.11l0.144,-0.109l0.145,-0.107l0.146,-0.106l0.148,-0.103l0.149,-0.102l0.15,-0.1l0.152,-0.099l0.152,-0.096l0.154,-0.095l0.156,-0.093l0.156,-0.092l0.158,-0.089l0.159,-0.087l0.16,-0.086l0.161,-0.084l0.162,-0.082l0.164,-0.08l0.164,-0.078l0.166,-0.076l0.167,-0.074l0.168,-0.072l0.169,-0.071l0.17,-0.068l0.171,-0.066l0.172,-0.064l0.173,-0.062l0.173,-0.06l0.175,-0.058l0.176,-0.056l0.177,-0.054l0.178,-0.052l0.178,-0.049l0.18,-0.048l0.18,-0.045l0.181,-0.043l0.182,-0.041l0.183,-0.038l0.184,-0.037l0.184,-0.034l0.185,-0.032l0.186,-0.029l0.187,-0.028l0.187,-0.025l0.188,-0.022l0.189,-0.021l0.189,-0.018l0.19,-0.015l0.191,-0.014l0.191,-0.011l0.192,-0.008l0.192,-0.006l0.193,-0.004l0.193,-0.001l0.193,0.001Zm-0.336,4l-0.142,0.003l-0.142,0.004l-0.141,0.006l-0.14,0.008l-0.141,0.01l-0.139,0.012l-0.139,0.013l-0.139,0.015l-0.137,0.017l-0.138,0.018l-0.137,0.02l-0.136,0.022l-0.136,0.023l-0.135,0.025l-0.134,0.027l-0.134,0.028l-0.133,0.03l-0.133,0.031l-0.132,0.033l-0.131,0.035l-0.131,0.036l-0.129,0.038l-0.13,0.039l-0.128,0.041l-0.128,0.043l-0.128,0.044l-0.126,0.045l-0.126,0.047l-0.125,0.048l-0.124,0.05l-0.124,0.052l-0.123,0.053l-0.122,0.054l-0.121,0.056l-0.121,0.057l-0.12,0.058l-0.118,0.06l-0.119,0.062l-0.117,0.062l-0.116,0.065l-0.116,0.065l-0.115,0.067l-0.113,0.068l-0.113,0.07l-0.112,0.071l-0.111,0.072l-0.111,0.073l-0.109,0.075l-0.109,0.076l-0.107,0.078l-0.106,0.078l-0.106,0.08l-0.104,0.081l-0.104,0.083l-0.102,0.083l-0.102,0.085l-0.1,0.086l-0.099,0.087l-0.099,0.088l-0.097,0.09l-0.096,0.09l-0.095,0.092l-0.094,0.093l-0.093,0.094l-0.092,0.095l-0.09,0.096l-0.09,0.097l-0.088,0.099l-0.087,0.099l-0.086,0.1l-0.085,0.102l-0.083,0.102l-0.083,0.104l-0.081,0.104l-0.08,0.106l-0.078,0.106l-0.078,0.108l-0.076,0.108l-0.075,0.109l-0.073,0.11l-0.072,0.112l-0.071,0.112l-0.07,0.113l-0.068,0.113l-0.067,0.115l-0.065,0.116l-0.065,0.116l-0.062,0.117l-0.062,0.119l-0.06,0.119l-0.058,0.119l-0.057,0.121l-0.056,0.121l-0.055,0.122l-0.052,0.123l-0.052,0.124l-0.05,0.124l-0.048,0.125l-0.047,0.126l-0.046,0.127l-0.043,0.127l-0.043,0.127l-0.041,0.129l-0.039,0.13l-0.038,0.129l-0.036,0.131l-0.035,0.131l-0.033,0.132l-0.031,0.133l-0.03,0.133l-0.028,0.134l-0.027,0.134l-0.025,0.136l-0.023,0.135l-0.022,0.136l-0.02,0.137l-0.018,0.138l-0.017,0.137l-0.015,0.139l-0.013,0.139l-0.012,0.139l-0.01,0.141l-0.008,0.14l-0.006,0.141l-0.004,0.142l-0.003,0.142l-0.001,0.149l0,1.988l0.001,0.105l0.002,0.1l0.003,0.099l0.004,0.099l0.005,0.099l0.007,0.098l0.008,0.098l0.009,0.099l0.011,0.098l0.011,0.098l0.013,0.097l0.014,0.097l0.015,0.098l0.016,0.096l0.017,0.097l0.019,0.096l0.02,0.096l0.021,0.096l0.022,0.095l0.023,0.095l0.025,0.095l0.025,0.094l0.027,0.094l0.028,0.093l0.029,0.094l0.03,0.093l0.031,0.092l0.032,0.092l0.034,0.092l0.035,0.091l0.035,0.091l0.037,0.091l0.038,0.089l0.039,0.09l0.04,0.089l0.041,0.088l0.042,0.088l0.044,0.088l0.044,0.087l0.046,0.086l0.046,0.086l0.048,0.085l0.048,0.085l0.05,0.084l0.051,0.084l0.051,0.083l0.053,0.082l0.054,0.082l0.055,0.082l0.056,0.08l0.057,0.08l0.058,0.079l0.059,0.079l0.06,0.078l0.061,0.078l0.062,0.076l0.063,0.076l0.064,0.075l0.065,0.075l0.066,0.073l0.066,0.073l0.068,0.073l0.069,0.071l0.07,0.071l0.071,0.07l0.071,0.069l0.073,0.068l0.073,0.066l0.073,0.066l0.075,0.065l0.075,0.064l0.076,0.063l0.077,0.062l0.077,0.061l0.078,0.06l0.078,0.059l0.08,0.058l0.08,0.057l0.08,0.056l0.082,0.055l0.081,0.054l0.083,0.053l0.083,0.051l0.084,0.051l0.084,0.05l0.084,0.048l0.086,0.048l0.086,0.047l0.086,0.045l0.087,0.044l0.088,0.044l0.088,0.042l0.088,0.041l0.089,0.04l0.09,0.039l0.09,0.038l0.09,0.037l0.091,0.035l0.091,0.035l0.092,0.034l0.092,0.032l0.092,0.031l0.093,0.03l0.093,0.029l0.094,0.028l0.094,0.027l0.094,0.025l0.095,0.025l0.095,0.023l0.095,0.022l0.096,0.021l0.096,0.02l0.096,0.018l0.097,0.018l0.097,0.016l0.097,0.015l0.097,0.014l0.098,0.013l0.097,0.011l0.098,0.011l0.098,0.009l0.099,0.008l0.098,0.007l0.099,0.005l0.099,0.004l0.099,0.003l0.1,0.002l0.105,0.001l5.988,0l0.105,-0.001l0.1,-0.002l0.099,-0.003l0.099,-0.004l0.099,-0.005l0.098,-0.007l0.099,-0.008l0.098,-0.009l0.098,-0.011l0.097,-0.011l0.098,-0.013l0.097,-0.014l0.097,-0.015l0.097,-0.016l0.097,-0.018l0.096,-0.018l0.096,-0.02l0.096,-0.021l0.095,-0.022l0.095,-0.023l0.095,-0.025l0.094,-0.025l0.094,-0.027l0.094,-0.028l0.093,-0.029l0.093,-0.03l0.092,-0.031l0.092,-0.032l0.092,-0.034l0.091,-0.035l0.091,-0.035l0.09,-0.037l0.09,-0.038l0.09,-0.039l0.089,-0.04l0.088,-0.041l0.088,-0.042l0.088,-0.044l0.087,-0.044l0.086,-0.045l0.086,-0.047l0.086,-0.048l0.084,-0.048l0.084,-0.05l0.084,-0.051l0.083,-0.051l0.083,-0.053l0.081,-0.054l0.082,-0.055l0.08,-0.056l0.08,-0.057l0.08,-0.058l0.078,-0.059l0.078,-0.06l0.077,-0.061l0.077,-0.062l0.076,-0.063l0.075,-0.064l0.075,-0.065l0.073,-0.066l0.073,-0.066l0.073,-0.068l0.071,-0.069l0.071,-0.07l0.07,-0.071l0.069,-0.071l0.068,-0.073l0.066,-0.073l0.066,-0.073l0.065,-0.075l0.064,-0.075l0.063,-0.076l0.062,-0.076l0.061,-0.078l0.06,-0.078l0.059,-0.079l0.058,-0.079l0.057,-0.08l0.056,-0.08l0.055,-0.082l0.054,-0.082l0.053,-0.082l0.051,-0.083l0.051,-0.084l0.05,-0.084l0.048,-0.085l0.048,-0.085l0.046,-0.086l0.046,-0.086l0.044,-0.087l0.044,-0.088l0.042,-0.088l0.041,-0.088l0.04,-0.089l0.039,-0.09l0.038,-0.089l0.037,-0.091l0.035,-0.091l0.035,-0.091l0.034,-0.092l0.032,-0.092l0.031,-0.092l0.03,-0.093l0.029,-0.094l0.028,-0.093l0.027,-0.094l0.025,-0.094l0.025,-0.095l0.023,-0.095l0.022,-0.095l0.021,-0.096l0.02,-0.096l0.019,-0.096l0.017,-0.097l0.016,-0.096l0.015,-0.098l0.014,-0.097l0.013,-0.097l0.011,-0.098l0.011,-0.098l0.009,-0.099l0.008,-0.098l0.007,-0.098l0.005,-0.099l0.004,-0.099l0.003,-0.099l0.002,-0.1l0.001,-0.105l0,-1.988l-0.001,-0.149l-0.003,-0.142l-0.004,-0.142l-0.006,-0.141l-0.008,-0.14l-0.01,-0.141l-0.012,-0.139l-0.013,-0.139l-0.015,-0.139l-0.017,-0.137l-0.018,-0.138l-0.02,-0.137l-0.022,-0.136l-0.023,-0.135l-0.025,-0.136l-0.027,-0.134l-0.028,-0.134l-0.03,-0.133l-0.031,-0.133l-0.033,-0.132l-0.035,-0.131l-0.036,-0.131l-0.038,-0.129l-0.039,-0.13l-0.041,-0.129l-0.043,-0.127l-0.043,-0.127l-0.046,-0.127l-0.047,-0.126l-0.048,-0.125l-0.05,-0.124l-0.052,-0.124l-0.052,-0.123l-0.055,-0.122l-0.056,-0.121l-0.057,-0.121l-0.058,-0.12l-0.06,-0.118l-0.062,-0.119l-0.062,-0.117l-0.065,-0.116l-0.065,-0.116l-0.067,-0.114l-0.068,-0.114l-0.07,-0.114l-0.071,-0.111l-0.072,-0.112l-0.073,-0.11l-0.075,-0.109l-0.076,-0.108l-0.078,-0.108l-0.078,-0.106l-0.08,-0.106l-0.081,-0.104l-0.083,-0.104l-0.083,-0.102l-0.085,-0.102l-0.086,-0.1l-0.087,-0.099l-0.088,-0.099l-0.09,-0.097l-0.09,-0.096l-0.092,-0.095l-0.093,-0.094l-0.094,-0.093l-0.095,-0.092l-0.096,-0.09l-0.097,-0.09l-0.099,-0.088l-0.099,-0.087l-0.1,-0.086l-0.102,-0.085l-0.102,-0.083l-0.104,-0.083l-0.104,-0.081l-0.106,-0.08l-0.106,-0.078l-0.107,-0.078l-0.109,-0.076l-0.109,-0.075l-0.11,-0.073l-0.112,-0.072l-0.112,-0.071l-0.113,-0.07l-0.113,-0.068l-0.115,-0.067l-0.116,-0.065l-0.116,-0.065l-0.117,-0.062l-0.119,-0.062l-0.118,-0.06l-0.12,-0.058l-0.121,-0.057l-0.121,-0.056l-0.122,-0.054l-0.123,-0.053l-0.124,-0.052l-0.124,-0.05l-0.125,-0.048l-0.126,-0.047l-0.126,-0.045l-0.128,-0.044l-0.128,-0.043l-0.128,-0.041l-0.13,-0.039l-0.129,-0.038l-0.131,-0.036l-0.131,-0.035l-0.132,-0.033l-0.133,-0.031l-0.133,-0.03l-0.134,-0.028l-0.134,-0.027l-0.135,-0.025l-0.136,-0.023l-0.136,-0.022l-0.137,-0.02l-0.138,-0.018l-0.137,-0.017l-0.139,-0.015l-0.139,-0.013l-0.139,-0.012l-0.141,-0.01l-0.14,-0.008l-0.141,-0.006l-0.142,-0.004l-0.142,-0.003l-0.143,-0.001l-0.143,0.001Z"/>
    </g>
    <g id="emoji">
        <g>
            <path d="M15,28l-2,0c-2.652,0 -5.196,-1.054 -7.071,-2.929c-1.875,-1.875 -2.929,-4.419 -2.929,-7.071c0,-0.66 0,-1.329 0,-2c0,-7.18 5.82,-13 13,-13c0,0 0,0 0,0c7.18,0 13,5.82 13,13c0,0.671 0,1.34 0,2c0,2.652 -1.054,5.196 -2.929,7.071c-0.167,0.167 -0.34,0.328 -0.518,0.482l-10.553,2.447Z" style="fill:#fbc546;"/>
            <path d="M15,28l0,-8c0,0 1.888,0 3.343,0c1.061,0 2.078,0.421 2.829,1.172l4.381,4.381c-1.812,1.573 -4.138,2.447 -6.553,2.447l-4,0Z" style="fill:#e59a10;"/>
        </g>
        <g>
            <path d="M11,10.5c0,-0.828 -0.672,-1.5 -1.5,-1.5c-0.828,0 -1.5,0.672 -1.5,1.5c0,0.916 0,2.084 0,3c0,0.828 0.672,1.5 1.5,1.5c0.828,0 1.5,-0.672 1.5,-1.5c0,-0.916 0,-2.084 0,-3Z"/>
            <path d="M24,10.5c0,-0.828 -0.672,-1.5 -1.5,-1.5c-0.828,0 -1.5,0.672 -1.5,1.5c0,0.916 0,2.084 0,3c0,0.828 0.672,1.5 1.5,1.5c0.828,0 1.5,-0.672 1.5,-1.5c0,-0.916 0,-2.084 0,-3Z"/>
        </g>
        <path d="M8,20.5c0,0 -0.307,1.533 -0.58,2.901c-0.262,1.311 0.148,2.667 1.094,3.613c0.495,0.495 1.063,1.063 1.624,1.624c0.756,0.756 1.783,1.178 2.852,1.171c1.069,-0.006 2.091,-0.44 2.838,-1.205c0.992,-1.016 2.087,-2.138 3.006,-3.078c1.148,-1.176 1.136,-3.056 -0.025,-4.217c-0.548,-0.548 -1.139,-1.139 -1.688,-1.688c-1.171,-1.171 -3.071,-1.171 -4.242,0c-1.363,1.363 -2.879,2.879 -2.879,2.879l-2,-2Z" style="fill:#fbc546;"/>
        <path d="M10,19.672l1.473,-1.474l0.083,-0.08l0.094,-0.087l0.095,-0.084l0.097,-0.082l0.099,-0.078l0.101,-0.076l0.102,-0.073l0.103,-0.07l0.105,-0.068l0.106,-0.064l0.108,-0.062l0.109,-0.059l0.109,-0.056l0.111,-0.053l0.112,-0.05l0.113,-0.047l0.113,-0.045l0.114,-0.041l0.115,-0.039l0.116,-0.036l0.117,-0.033l0.116,-0.03l0.118,-0.027l0.118,-0.024l0.118,-0.022l0.119,-0.018l0.119,-0.016l0.119,-0.013l0.119,-0.01l0.12,-0.007l0.119,-0.004l0.12,-0.002l0.12,0.002l0.119,0.004l0.12,0.007l0.119,0.01l0.119,0.013l0.119,0.016l0.119,0.018l0.118,0.022l0.118,0.024l0.118,0.027l0.116,0.03l0.117,0.033l0.116,0.036l0.115,0.039l0.114,0.041l0.114,0.045l0.112,0.047l0.112,0.05l0.111,0.053l0.109,0.056l0.109,0.059l0.108,0.062l0.106,0.064l0.105,0.068l0.103,0.07l0.102,0.073l0.101,0.076l0.099,0.078l0.097,0.082l0.095,0.084l0.094,0.087l0.083,0.08l1.705,1.705l0.08,0.082l0.086,0.093l0.083,0.095l0.081,0.096l0.078,0.098l0.075,0.1l0.073,0.101l0.07,0.103l0.067,0.103l0.064,0.106l0.061,0.106l0.059,0.108l0.056,0.108l0.053,0.11l0.05,0.111l0.047,0.112l0.045,0.113l0.041,0.113l0.039,0.114l0.036,0.115l0.033,0.115l0.03,0.116l0.028,0.117l0.025,0.117l0.021,0.117l0.019,0.117l0.017,0.119l0.013,0.117l0.011,0.119l0.007,0.119l0.005,0.118l0.002,0.119l0,0.119l-0.004,0.119l-0.006,0.118l-0.009,0.119l-0.012,0.118l-0.015,0.118l-0.018,0.119l-0.02,0.117l-0.023,0.118l-0.026,0.116l-0.029,0.116l-0.032,0.116l-0.035,0.115l-0.037,0.115l-0.04,0.114l-0.044,0.113l-0.046,0.112l-0.048,0.111l-0.052,0.111l-0.055,0.109l-0.057,0.109l-0.06,0.107l-0.063,0.106l-0.066,0.105l-0.068,0.103l-0.072,0.102l-0.074,0.101l-0.077,0.098l-0.08,0.098l-0.082,0.095l-0.085,0.094l-0.079,0.083l-3.023,3.096l-0.097,0.097l-0.109,0.103l-0.111,0.101l-0.113,0.097l-0.115,0.094l-0.117,0.091l-0.12,0.088l-0.121,0.086l-0.124,0.082l-0.125,0.078l-0.127,0.076l-0.129,0.072l-0.13,0.069l-0.132,0.066l-0.133,0.063l-0.135,0.059l-0.137,0.056l-0.138,0.053l-0.139,0.049l-0.14,0.046l-0.141,0.042l-0.143,0.039l-0.143,0.035l-0.145,0.032l-0.145,0.029l-0.147,0.024l-0.147,0.021l-0.148,0.018l-0.148,0.014l-0.149,0.01l-0.15,0.007l-0.15,0.002l-0.15,-0.001l-0.15,-0.004l-0.149,-0.009l-0.149,-0.012l-0.148,-0.016l-0.147,-0.019l-0.147,-0.023l-0.146,-0.027l-0.145,-0.03l-0.144,-0.034l-0.143,-0.037l-0.142,-0.04l-0.14,-0.045l-0.14,-0.047l-0.138,-0.051l-0.137,-0.054l-0.136,-0.058l-0.134,-0.061l-0.133,-0.064l-0.131,-0.068l-0.13,-0.071l-0.128,-0.074l-0.126,-0.077l-0.124,-0.081l-0.122,-0.083l-0.121,-0.087l-0.119,-0.09l-0.116,-0.093l-0.114,-0.095l-0.112,-0.099l-0.11,-0.102l-0.099,-0.096l-1.638,-1.639l-0.06,-0.061l-0.065,-0.068l-0.064,-0.068l-0.062,-0.07l-0.061,-0.07l-0.06,-0.072l-0.059,-0.071l-0.057,-0.073l-0.057,-0.074l-0.055,-0.074l-0.053,-0.075l-0.054,-0.077l-0.051,-0.076l-0.05,-0.077l-0.049,-0.078l-0.048,-0.079l-0.046,-0.079l-0.045,-0.08l-0.044,-0.08l-0.043,-0.081l-0.042,-0.082l-0.04,-0.083l-0.038,-0.082l-0.038,-0.083l-0.036,-0.084l-0.035,-0.085l-0.034,-0.084l-0.032,-0.086l-0.031,-0.086l-0.03,-0.086l-0.028,-0.087l-0.027,-0.087l-0.026,-0.088l-0.025,-0.088l-0.023,-0.087l-0.021,-0.089l-0.021,-0.09l-0.019,-0.089l-0.018,-0.089l-0.016,-0.09l-0.015,-0.091l-0.014,-0.09l-0.012,-0.09l-0.011,-0.091l-0.009,-0.091l-0.008,-0.092l-0.007,-0.092l-0.005,-0.091l-0.004,-0.092l-0.003,-0.092l-0.001,-0.092l0,-0.092l0.002,-0.093l0.003,-0.092l0.005,-0.093l0.006,-0.092l0.007,-0.092l0.009,-0.093l0.011,-0.093l0.012,-0.092l0.013,-0.093l0.015,-0.092l0.016,-0.093l0.016,-0.084l1.262,-6.307l0.244,-0.074l3.037,3.037Zm4.928,-0.929l-0.072,0.003l-0.072,0.004l-0.072,0.006l-0.071,0.008l-0.072,0.01l-0.071,0.011l-0.071,0.013l-0.071,0.014l-0.07,0.016l-0.07,0.018l-0.07,0.02l-0.07,0.022l-0.068,0.023l-0.069,0.025l-0.068,0.026l-0.067,0.029l-0.067,0.03l-0.066,0.031l-0.066,0.034l-0.065,0.035l-0.064,0.037l-0.064,0.039l-0.063,0.04l-0.062,0.042l-0.061,0.044l-0.06,0.045l-0.059,0.047l-0.059,0.049l-0.057,0.051l-0.057,0.052l-0.055,0.054l-2.879,2.879l-2,-2l-0.58,2.901l-0.012,0.061l-0.011,0.062l-0.01,0.061l-0.008,0.062l-0.008,0.062l-0.007,0.061l-0.006,0.062l-0.005,0.062l-0.004,0.061l-0.003,0.062l-0.002,0.062l-0.002,0.061l0,0.062l0.001,0.061l0.002,0.061l0.002,0.062l0.004,0.061l0.004,0.061l0.006,0.061l0.006,0.06l0.007,0.061l0.008,0.061l0.009,0.06l0.01,0.06l0.011,0.06l0.012,0.06l0.013,0.059l0.013,0.059l0.015,0.06l0.015,0.058l0.017,0.059l0.017,0.058l0.018,0.059l0.019,0.057l0.02,0.058l0.02,0.057l0.022,0.057l0.022,0.057l0.024,0.056l0.024,0.056l0.025,0.055l0.026,0.056l0.027,0.054l0.027,0.055l0.029,0.054l0.029,0.054l0.03,0.053l0.031,0.053l0.032,0.052l0.032,0.052l0.034,0.051l0.034,0.052l0.035,0.05l0.036,0.05l0.037,0.05l0.037,0.049l0.039,0.048l0.039,0.048l0.04,0.048l0.041,0.047l0.041,0.046l0.043,0.046l0.043,0.045l0.044,0.045l1.624,1.624l0.071,0.07l0.074,0.068l0.074,0.065l0.077,0.064l0.077,0.062l0.079,0.06l0.08,0.058l0.082,0.056l0.083,0.053l0.084,0.052l0.085,0.049l0.087,0.047l0.087,0.045l0.088,0.043l0.09,0.041l0.09,0.038l0.092,0.037l0.092,0.034l0.093,0.031l0.094,0.03l0.095,0.027l0.095,0.025l0.096,0.022l0.097,0.02l0.097,0.018l0.098,0.015l0.098,0.013l0.098,0.011l0.1,0.008l0.099,0.005l0.1,0.004l0.1,0l0.1,-0.002l0.1,-0.004l0.099,-0.007l0.099,-0.009l0.099,-0.012l0.098,-0.014l0.097,-0.016l0.097,-0.019l0.097,-0.021l0.095,-0.024l0.096,-0.026l0.094,-0.028l0.093,-0.031l0.093,-0.033l0.092,-0.035l0.091,-0.037l0.09,-0.04l0.089,-0.041l0.088,-0.044l0.087,-0.046l0.085,-0.048l0.085,-0.051l0.084,-0.052l0.082,-0.055l0.081,-0.057l0.079,-0.058l0.079,-0.061l0.076,-0.063l0.076,-0.065l0.074,-0.067l0.072,-0.068l0.071,-0.071l3.006,-3.078l0.053,-0.056l0.051,-0.056l0.049,-0.058l0.048,-0.058l0.046,-0.06l0.045,-0.06l0.043,-0.061l0.041,-0.062l0.039,-0.063l0.038,-0.063l0.036,-0.064l0.034,-0.065l0.033,-0.066l0.031,-0.066l0.029,-0.066l0.027,-0.068l0.026,-0.067l0.024,-0.068l0.023,-0.069l0.02,-0.069l0.02,-0.07l0.017,-0.069l0.016,-0.07l0.014,-0.071l0.012,-0.07l0.01,-0.071l0.009,-0.071l0.007,-0.071l0.006,-0.072l0.004,-0.071l0.002,-0.071l0,-0.072l-0.001,-0.071l-0.003,-0.072l-0.005,-0.071l-0.006,-0.071l-0.008,-0.071l-0.01,-0.071l-0.011,-0.071l-0.013,-0.07l-0.015,-0.071l-0.017,-0.069l-0.018,-0.07l-0.02,-0.069l-0.021,-0.069l-0.023,-0.068l-0.025,-0.068l-0.027,-0.068l-0.028,-0.066l-0.03,-0.067l-0.032,-0.065l-0.033,-0.066l-0.035,-0.064l-0.037,-0.064l-0.039,-0.063l-0.04,-0.062l-0.041,-0.061l-0.044,-0.061l-0.045,-0.06l-0.047,-0.058l-0.049,-0.058l-0.05,-0.057l-0.052,-0.056l-0.053,-0.055l-1.688,-1.688l-0.055,-0.054l-0.057,-0.052l-0.057,-0.051l-0.059,-0.049l-0.059,-0.047l-0.06,-0.045l-0.061,-0.044l-0.062,-0.042l-0.063,-0.04l-0.064,-0.039l-0.064,-0.037l-0.065,-0.035l-0.066,-0.034l-0.066,-0.031l-0.067,-0.03l-0.067,-0.029l-0.068,-0.026l-0.069,-0.025l-0.068,-0.023l-0.07,-0.022l-0.07,-0.02l-0.07,-0.018l-0.07,-0.016l-0.071,-0.014l-0.071,-0.013l-0.071,-0.011l-0.072,-0.01l-0.071,-0.008l-0.072,-0.006l-0.072,-0.004l-0.072,-0.003l-0.072,0l-0.072,0Z"/>
    </g>
</svg>
