<?xml version="1.0" encoding="UTF-8" standalone="no"?>
<!DOCTYPE svg PUBLIC "-//W3C//DTD SVG 1.1//EN" "http://www.w3.org/Graphics/SVG/1.1/DTD/svg11.dtd">
<svg width="100%" height="100%" viewBox="0 0 32 32" version="1.1" xmlns="http://www.w3.org/2000/svg" xmlns:xlink="http://www.w3.org/1999/xlink" xml:space="preserve" xmlns:serif="http://www.serif.com/" style="fill-rule:evenodd;clip-rule:evenodd;stroke-linejoin:round;stroke-miterlimit:2;">
    <rect id="lying_face" x="0" y="0" width="32" height="32" style="fill:none;"/>
    <clipPath id="_clip1">
        <rect x="0" y="0" width="32" height="32"/>
    </clipPath>
    <g clip-path="url(#_clip1)">
        <g id="outline">
            <path d="M16,0c4.243,0 8.313,1.686 11.314,4.686c3,3.001 4.686,7.071 4.686,11.314l0,2c0,7.732 -6.268,14 -14,14c-1.325,0 -2.675,0 -4,0c-7.732,0 -14,-6.268 -14,-14l0,-2c0,-8.837 7.163,-16 16,-16l0,0Z"/>
        </g>
        <g id="emoji">
            <path d="M30,16c0,-3.713 -1.475,-7.274 -4.101,-9.899c-2.625,-2.626 -6.186,-4.101 -9.899,-4.101l0,0c-7.732,0 -14,6.268 -14,14l0,2c0,6.627 5.373,12 12,12l4,0c6.627,0 12,-5.373 12,-12l0,-2Z" style="fill:#fbc546;"/>
            <g>
                <path d="M9.5,9c0.954,0 1.819,0.382 2.45,1.001c-1.081,0.026 -1.081,6.972 0.001,6.998c-0.653,0.641 -1.533,1.001 -2.449,1.001l-0.002,0c-1.933,0 -3.5,-1.567 -3.5,-3.5c0,-0.657 0,-1.345 0,-2.002c0,-0.928 0.369,-1.817 1.025,-2.473c0.656,-0.656 1.545,-1.025 2.473,-1.025l0.002,0Z" style="fill:#fff;"/>
                <path d="M11.95,10.001c0.648,0.635 1.05,1.52 1.05,2.499c0,0.657 0,1.345 0,2.002c0,0.928 -0.369,1.817 -1.025,2.473c-0.008,0.008 -0.016,0.016 -0.024,0.024c-1.082,-0.026 -1.951,-0.911 -1.951,-1.999c0,-0.941 0,-2.059 0,-3c0,-1.088 0.869,-1.973 1.95,-1.999Z"/>
            </g>
            <path d="M20,24c0,-0.552 -0.448,-1 -1,-1c-1.537,0 -4.463,0 -6,0c-0.552,0 -1,0.448 -1,1c0,0.552 0.448,1 1,1c1.537,0 4.463,0 6,0c0.552,0 1,-0.448 1,-1Z" style="fill:#593604;"/>
            <g>
                <path d="M19.035,15c-0.023,-0.163 -0.035,-0.33 -0.035,-0.5c0,-0.657 0,-1.345 0,-2.002c0,-0.928 0.369,-1.817 1.025,-2.473c0.656,-0.656 1.545,-1.025 2.473,-1.025l0.002,0c0.954,0 1.819,0.382 2.45,1.001c-0.7,0.017 -0.947,2.937 -0.74,4.999l-5.175,0Z" style="fill:#fff;"/>
                <path d="M23,15l0,-3c0,-1.088 0.869,-1.973 1.95,-1.999c0.648,0.635 1.05,1.52 1.05,2.499c0,0.657 0,1.345 0,2.002c0,0.182 -0.014,0.363 -0.042,0.54l-0.013,-0.002c-0.147,-0.026 -0.296,-0.04 -0.445,-0.04l-2.5,0Z"/>
            </g>
            <path d="M25.5,14c0.928,0 1.818,0.369 2.475,1.025c0.656,0.656 1.025,1.547 1.025,2.475c0,0.928 -0.369,1.819 -1.025,2.475c-0.657,0.656 -1.547,1.025 -2.475,1.025c-3.517,0 -9.5,0 -9.5,0l0,-2l9.5,0c0.398,0 0.779,-0.158 1.061,-0.439c0.281,-0.282 0.439,-0.663 0.439,-1.061c0,-0.398 -0.158,-0.779 -0.439,-1.061c-0.282,-0.281 -0.663,-0.439 -1.061,-0.439l-9.5,0l0,-2l9.5,0Z" style="fill:#7e5108;"/>
        </g>
    </g>
</svg>
