<?xml version="1.0" encoding="UTF-8" standalone="no"?>
<!DOCTYPE svg PUBLIC "-//W3C//DTD SVG 1.1//EN" "http://www.w3.org/Graphics/SVG/1.1/DTD/svg11.dtd">
<svg width="100%" height="100%" viewBox="0 0 32 32" version="1.1" xmlns="http://www.w3.org/2000/svg" xmlns:xlink="http://www.w3.org/1999/xlink" xml:space="preserve" xmlns:serif="http://www.serif.com/" style="fill-rule:evenodd;clip-rule:evenodd;stroke-linejoin:round;stroke-miterlimit:2;">
    <rect id="monocle" x="0" y="0" width="32" height="32" style="fill:none;"/>
    <clipPath id="_clip1">
        <rect x="0" y="0" width="32" height="32"/>
    </clipPath>
    <g clip-path="url(#_clip1)">
        <g id="outline">
            <path d="M16,1c4.243,0 8.313,1.686 11.314,4.686c3,3.001 4.686,7.071 4.686,11.314c0,0.334 0,0.668 0,1c0,7.732 -6.268,14 -14,14c-1.325,0 -2.675,0 -4,0c-7.732,0 -14,-6.268 -14,-14l0,-1c0,-1.065 0.104,-2.106 0.303,-3.113c-0.198,-0.763 -0.303,-1.563 -0.303,-2.387c0,-5.243 4.257,-9.5 9.5,-9.5c0.279,0 0.555,0.012 0.828,0.036c1.763,-0.67 3.675,-1.036 5.672,-1.036l0,0Z"/>
        </g>
        <g id="emoji">
            <path d="M2.449,21.263c-0.293,-1.038 -0.449,-2.132 -0.449,-3.263l0,-1c0,-0.243 0.006,-0.484 0.018,-0.725c0.323,0.553 1.329,-5.275 1.329,-5.275c2.247,-4.73 7.068,-8 12.653,-8l0.044,0c3.697,0.012 7.24,1.485 9.855,4.101c2.626,2.625 4.101,6.186 4.101,9.899c0,0.334 0,0.668 0,1c0,6.627 -5.373,12 -12,12l-4,0c-4.45,0 -8.335,-2.423 -10.406,-6.02c-0.088,-1.1 -0.81,-2.205 -1.145,-2.717Z" style="fill:#fbc546;"/>
            <path d="M16,11l0,1.5c0,4.142 -3.358,7.5 -7.5,7.5c-0.001,0 -0.001,0 -0.002,0c-1.989,0 -3.896,-0.79 -5.302,-2.196c-0.461,-0.461 -0.855,-0.976 -1.178,-1.529c0.096,-1.88 0.563,-3.663 1.329,-5.275l12.653,0Z" style="fill:#e59a10;"/>
            <path d="M2.449,21.263c0.367,0.45 0.925,0.737 1.551,0.737c1.105,0 2,-0.895 2,-2l0,-2l2,0c0,0 0,0.937 0,2c0,2.209 -1.791,4 -4,4l-0.103,-0.001c-0.102,-0.003 -0.203,-0.009 -0.303,-0.019c-0.488,-0.847 -0.875,-1.758 -1.145,-2.717Z" style="fill:#808080;"/>
            <path d="M11.707,22.707c0,0 1.516,-1.516 2.879,-2.879c0.375,-0.375 0.884,-0.585 1.414,-0.585c0.53,0 1.039,0.21 1.414,0.585c1.363,1.363 2.879,2.879 2.879,2.879c0.39,0.39 1.024,0.39 1.414,0c0.39,-0.39 0.39,-1.024 0,-1.414c0,0 -1.516,-1.516 -2.879,-2.879c-0.75,-0.75 -1.767,-1.171 -2.828,-1.171c-1.061,0 -2.078,0.421 -2.828,1.171c-1.363,1.363 -2.879,2.879 -2.879,2.879c-0.39,0.39 -0.39,1.024 0,1.414c0.39,0.39 1.024,0.39 1.414,0Z" style="fill:#593604;"/>
            <g>
                <circle cx="9.5" cy="11.5" r="7.5" style="fill:#999;"/>
                <circle cx="9.5" cy="11.5" r="5.5" style="fill:#fff;"/>
            </g>
            <g>
                <path d="M13,12c0,-0.265 -0.105,-0.52 -0.293,-0.707c-0.187,-0.188 -0.442,-0.293 -0.707,-0.293c-1.331,0 -3.669,0 -5,0c-0.265,0 -0.52,0.105 -0.707,0.293c-0.188,0.187 -0.293,0.442 -0.293,0.707c0,0 0,0 0,0c0,0.265 0.105,0.52 0.293,0.707c0.187,0.188 0.442,0.293 0.707,0.293c1.331,0 3.669,0 5,0c0.265,0 0.52,-0.105 0.707,-0.293c0.188,-0.187 0.293,-0.442 0.293,-0.707c0,0 0,0 0,0Z"/>
                <path d="M26,12c0,-0.265 -0.105,-0.52 -0.293,-0.707c-0.187,-0.188 -0.442,-0.293 -0.707,-0.293c-1.331,0 -3.669,0 -5,0c-0.265,0 -0.52,0.105 -0.707,0.293c-0.188,0.187 -0.293,0.442 -0.293,0.707c0,0 0,0 0,0c0,0.265 0.105,0.52 0.293,0.707c0.187,0.188 0.442,0.293 0.707,0.293c1.331,0 3.669,0 5,0c0.265,0 0.52,-0.105 0.707,-0.293c0.188,-0.187 0.293,-0.442 0.293,-0.707c0,0 0,0 0,0Z"/>
            </g>
        </g>
    </g>
</svg>
