<?xml version="1.0" encoding="UTF-8" standalone="no"?>
<!DOCTYPE svg PUBLIC "-//W3C//DTD SVG 1.1//EN" "http://www.w3.org/Graphics/SVG/1.1/DTD/svg11.dtd">
<svg width="100%" height="100%" viewBox="0 0 32 32" version="1.1" xmlns="http://www.w3.org/2000/svg" xmlns:xlink="http://www.w3.org/1999/xlink" xml:space="preserve" xmlns:serif="http://www.serif.com/" style="fill-rule:evenodd;clip-rule:evenodd;stroke-linejoin:round;stroke-miterlimit:2;">
    <rect id="pensive" x="0" y="0" width="32" height="32" style="fill:none;"/>
    <clipPath id="_clip1">
        <rect x="0" y="0" width="32" height="32"/>
    </clipPath>
    <g clip-path="url(#_clip1)">
        <g id="outline">
            <path d="M16,3c8.837,0 16,7.163 16,16l0,0.502c0,6.902 -5.596,12.498 -12.498,12.498l-7.004,0c-6.902,0 -12.498,-5.596 -12.498,-12.498c0,-0.167 0,-0.334 0,-0.502c0,-8.837 7.163,-16 16,-16l0,0Z"/>
        </g>
        <g id="emoji">
            <path d="M30,19c0,-7.732 -6.268,-14 -14,-14c0,0 0,0 0,0c-7.732,0 -14,6.268 -14,14c0,0.168 0,0.335 0,0.502c0,5.798 4.7,10.498 10.498,10.498l7.004,0c5.798,0 10.498,-4.7 10.498,-10.498l0,-0.502Z" style="fill:#fbc546;"/>
            <g>
                <path d="M25.207,12.293c0.391,0.39 0.391,1.024 0,1.414c-1.127,1.128 -3.207,3.207 -3.207,3.207c0,0 -2.08,-2.079 -3.207,-3.207c-0.391,-0.39 -0.391,-1.024 0,-1.414c0,0 0,-0.001 0.001,-0.001c0.39,-0.39 1.022,-0.39 1.412,0c0.74,0.739 1.794,1.794 1.794,1.794c0,0 1.054,-1.055 1.794,-1.794c0.39,-0.39 1.022,-0.39 1.412,0c0.001,0 0.001,0.001 0.001,0.001Z" style="fill-rule:nonzero;"/>
                <path d="M13.207,12.293c0.391,0.39 0.391,1.024 0,1.414c-1.127,1.128 -3.207,3.207 -3.207,3.207c0,0 -2.08,-2.079 -3.207,-3.207c-0.391,-0.39 -0.391,-1.024 0,-1.414c0,0 0,-0.001 0.001,-0.001c0.39,-0.39 1.022,-0.39 1.412,0c0.74,0.739 1.794,1.794 1.794,1.794c0,0 1.054,-1.055 1.794,-1.794c0.39,-0.39 1.022,-0.39 1.412,0c0.001,0 0.001,0.001 0.001,0.001Z" style="fill-rule:nonzero;"/>
            </g>
            <path d="M23,20c0.552,0 1,0.448 1,1c0,0.552 -0.448,1 -1,1l-14,0c-0.552,0 -1,-0.448 -1,-1c0,-0.552 0.448,-1 1,-1l14,0Z" style="fill:#593604;"/>
        </g>
    </g>
</svg>
