<?xml version="1.0" encoding="UTF-8" standalone="no"?>
<!DOCTYPE svg PUBLIC "-//W3C//DTD SVG 1.1//EN" "http://www.w3.org/Graphics/SVG/1.1/DTD/svg11.dtd">
<svg width="100%" height="100%" viewBox="0 0 32 32" version="1.1" xmlns="http://www.w3.org/2000/svg" xmlns:xlink="http://www.w3.org/1999/xlink" xml:space="preserve" xmlns:serif="http://www.serif.com/" style="fill-rule:evenodd;clip-rule:evenodd;stroke-linejoin:round;stroke-miterlimit:2;">
    <rect id="rolling_eyes" x="0" y="0" width="32" height="32" style="fill:none;"/>
    <clipPath id="_clip1">
        <rect x="0" y="0" width="32" height="32"/>
    </clipPath>
    <g clip-path="url(#_clip1)">
        <g id="outline">
            <path d="M16,0c4.243,0 8.313,1.686 11.314,4.686c3,3.001 4.686,7.071 4.686,11.314l0,2c0,7.732 -6.268,14 -14,14c-1.325,0 -2.675,0 -4,0c-7.732,0 -14,-6.268 -14,-14l0,-2c0,-8.837 7.163,-16 16,-16l0,0Z"/>
        </g>
        <g id="emoji">
            <path d="M30,16c0,-3.713 -1.475,-7.274 -4.101,-9.899c-2.625,-2.626 -6.186,-4.101 -9.899,-4.101l0,0c-7.732,0 -14,6.268 -14,14l0,2c0,6.627 5.373,12 12,12l4,0c6.627,0 12,-5.373 12,-12l0,-2Z" style="fill:#fbc546;"/>
            <g>
                <path d="M24.952,11.001c0.647,0.635 1.048,1.519 1.048,2.497c0,0.332 0,0.67 0,1.002c0,0.928 -0.369,1.818 -1.025,2.475c-0.656,0.656 -1.547,1.025 -2.475,1.025l-0.022,0c-0.92,-0.006 -1.802,-0.374 -2.453,-1.025c-0.656,-0.657 -1.025,-1.547 -1.025,-2.475c0,-0.332 0,-0.668 0,-1c0,-0.928 0.369,-1.818 1.025,-2.475c0.008,-0.007 0.015,-0.015 0.023,-0.022c-0.032,0.157 4.936,0.156 4.904,-0.002Z" style="fill:#fff;"/>
                <path d="M20.048,11.003c0.654,-0.643 1.534,-1.003 2.452,-1.003c0.001,0 0.001,0 0.002,0c0.954,0 1.819,0.382 2.45,1.001c0.032,0.158 0.048,0.322 0.048,0.489c0,0.001 0,0.002 0,0.003c0,1.376 -1.115,2.49 -2.49,2.49c-0.007,0 -0.013,0 -0.02,0c-1.375,0 -2.49,-1.114 -2.49,-2.49c0,-0.001 0,-0.002 0,-0.003c0,-0.167 0.016,-0.33 0.048,-0.487Z"/>
                <path d="M11.952,11.001c0.647,0.635 1.048,1.519 1.048,2.497c0,0.332 0,0.67 0,1.002c0,0.928 -0.369,1.818 -1.025,2.475c-0.656,0.656 -1.547,1.025 -2.475,1.025l-0.022,0c-0.92,-0.006 -1.802,-0.374 -2.453,-1.025c-0.656,-0.657 -1.025,-1.547 -1.025,-2.475c0,-0.332 0,-0.668 0,-1c0,-0.928 0.369,-1.818 1.025,-2.475c0.008,-0.007 0.015,-0.015 0.023,-0.022c-0.032,0.157 4.936,0.156 4.904,-0.002Z" style="fill:#fff;"/>
                <path d="M7.048,11.003c0.654,-0.643 1.534,-1.003 2.452,-1.003c0.001,0 0.001,0 0.002,0c0.954,0 1.819,0.382 2.45,1.001c0.032,0.158 0.048,0.322 0.048,0.489c0,0.001 0,0.002 0,0.003c0,1.376 -1.115,2.49 -2.49,2.49c-0.007,0 -0.013,0 -0.02,0c-1.375,0 -2.49,-1.114 -2.49,-2.49c0,-0.001 0,-0.002 0,-0.003c0,-0.167 0.016,-0.33 0.048,-0.487Z"/>
            </g>
            <path d="M21,22c0,-0.552 -0.448,-1 -1,-1c-1.916,0 -6.084,0 -8,0c-0.552,0 -1,0.448 -1,1c0,0.552 0.448,1 1,1c1.916,0 6.084,0 8,0c0.552,0 1,-0.448 1,-1Z" style="fill:#593604;"/>
        </g>
    </g>
</svg>
