<?xml version="1.0" encoding="UTF-8" standalone="no"?>
<!DOCTYPE svg PUBLIC "-//W3C//DTD SVG 1.1//EN" "http://www.w3.org/Graphics/SVG/1.1/DTD/svg11.dtd">
<svg width="100%" height="100%" viewBox="0 0 32 32" version="1.1" xmlns="http://www.w3.org/2000/svg" xmlns:xlink="http://www.w3.org/1999/xlink" xml:space="preserve" xmlns:serif="http://www.serif.com/" style="fill-rule:evenodd;clip-rule:evenodd;stroke-linejoin:round;stroke-miterlimit:2;">
    <rect id="shush" x="0" y="0" width="32" height="32" style="fill:none;"/>
    <clipPath id="_clip1">
        <rect x="0" y="0" width="32" height="32"/>
    </clipPath>
    <g clip-path="url(#_clip1)">
        <g id="outline">
            <path d="M16,0c8.284,0 15,6.716 15,15c0,0.334 0,0.668 0,1c0,2.779 -0.89,5.465 -2.511,7.679c0.331,0.544 0.511,1.173 0.511,1.821l0,0c0,0.928 -0.369,1.819 -1.025,2.475c-0.657,0.656 -1.547,1.025 -2.475,1.025l-0.062,0c-0.122,0.206 -0.263,0.401 -0.422,0.584c-0.275,0.315 -0.62,0.711 -0.91,1.044c-0.76,0.872 -1.86,1.372 -3.016,1.372l-5.09,0l0,-3l-2,0c-3.448,0 -6.754,-1.37 -9.192,-3.808c-2.438,-2.438 -3.808,-5.744 -3.808,-9.192l0,-1c0,-8.284 6.716,-15 15,-15l0,0Z"/>
        </g>
        <g id="emoji">
            <path d="M16,27l-2,0c-2.917,0 -5.715,-1.159 -7.778,-3.222c-2.063,-2.063 -3.222,-4.861 -3.222,-7.778l0,-1c0,-7.18 5.82,-13 13,-13l0.084,0c7.141,0.045 12.916,5.848 12.916,13l0,1c0,2.283 -0.71,4.493 -2.007,6.334c-0.463,-0.218 -10.993,4.666 -10.993,4.666Z" style="fill:#fbc546;"/>
            <path d="M21.964,19.343c0.45,0.203 0.856,0.481 1.208,0.829l1.828,1.828l-4,1c0,-0.667 0.538,-3.115 0.927,-3.66l0.037,0.003Z" style="fill:#e59a10;"/>
            <g>
                <path d="M14.413,21.217c-0.259,-0.337 -0.413,-0.759 -0.413,-1.217c0,-0.941 0,-2.059 0,-3c0,-1.105 0.895,-2 2,-2c1.105,0 2,0.895 2,2c0,0.941 0,2.059 0,3c0,0.458 -0.154,0.88 -0.413,1.217c-0.54,0.268 -2.23,0.25 -3.174,0Z" style="fill:#722245;"/>
                <path d="M14.413,21.217c0.508,-0.142 1.041,-0.217 1.587,-0.217c0,0 0,0 0,0c0.546,0 1.079,0.075 1.587,0.217c-0.365,0.476 -0.94,0.783 -1.587,0.783c-0.647,0 -1.222,-0.307 -1.587,-0.783Z" style="fill:#ca3b8f;"/>
            </g>
            <path d="M16,27l0,-7c0,-1.657 1.343,-3 3,-3c0.796,0 1.559,0.316 2.121,0.879c0.563,0.562 0.879,1.325 0.879,2.121l0,2l3.5,0c0.521,0 1.03,0.116 1.493,0.334c-0.36,0.512 -0.766,0.995 -1.215,1.444c-2.063,2.063 -4.861,3.222 -7.778,3.222l-2,0Z" style="fill:#7e5108;"/>
            <g>
                <path d="M27,25.5c0,-0.828 -0.672,-1.5 -1.5,-1.5l-1.5,0l0,2l1,1l0.5,0c0.828,0 1.5,-0.672 1.5,-1.5Z" style="fill:#fbc546;"/>
                <rect x="22" y="23" width="3" height="4" style="fill:#7e5108;"/>
                <path d="M18,30l3.09,0c0.578,0 1.128,-0.25 1.508,-0.686c0.29,-0.333 0.635,-0.729 0.91,-1.044c0.317,-0.365 0.492,-0.831 0.492,-1.314c0,-0.563 0,-1.34 0,-1.956c0,-0.265 -0.105,-0.52 -0.293,-0.707c-0.187,-0.188 -0.442,-0.293 -0.707,-0.293c-1.185,0 -3,0 -3,0l0,-4c0,-0.265 -0.105,-0.52 -0.293,-0.707c-0.187,-0.188 -0.442,-0.293 -0.707,-0.293c-0.552,0 -1,0.448 -1,1c0,2.711 0,10 0,10Z" style="fill:#fbc546;"/>
            </g>
            <g>
                <path d="M9.502,16c0.928,0 1.817,-0.369 2.473,-1.025c0.656,-0.656 1.025,-1.545 1.025,-2.473c0,-0.657 0,-1.345 0,-2.002c0,-1.933 -1.567,-3.5 -3.5,-3.5l-0.002,0c-0.928,0 -1.817,0.369 -2.473,1.025c-0.656,0.656 -1.025,1.545 -1.025,2.473c0,0.657 0,1.345 0,2.002c0,1.933 1.567,3.5 3.5,3.5l0.002,0Z" style="fill:#fff;"/>
                <path d="M8,10c0,-0.53 0.211,-1.039 0.586,-1.414c0.375,-0.375 0.884,-0.586 1.414,-0.586c0.53,0 1.039,0.211 1.414,0.586c0.375,0.375 0.586,0.884 0.586,1.414c0,0.936 0,2.048 0,2.983c0,0.531 -0.211,1.039 -0.586,1.415c-0.375,0.375 -0.884,0.585 -1.414,0.585c-0.53,0 -1.039,-0.21 -1.414,-0.585c-0.375,-0.376 -0.586,-0.884 -0.586,-1.415c0,-0.935 0,-2.047 0,-2.983Z"/>
                <path d="M22.498,16c-0.928,0 -1.817,-0.369 -2.473,-1.025c-0.656,-0.656 -1.025,-1.545 -1.025,-2.473c0,-0.657 0,-1.345 0,-2.002c0,-1.933 1.567,-3.5 3.5,-3.5l0.002,0c0.928,0 1.817,0.369 2.473,1.025c0.656,0.656 1.025,1.545 1.025,2.473c0,0.657 0,1.345 0,2.002c0,1.933 -1.567,3.5 -3.5,3.5l-0.002,0Z" style="fill:#fff;"/>
                <path d="M24,10c0,-0.53 -0.211,-1.039 -0.586,-1.414c-0.375,-0.375 -0.884,-0.586 -1.414,-0.586c-0.53,0 -1.039,0.211 -1.414,0.586c-0.375,0.375 -0.586,0.884 -0.586,1.414c0,0.936 0,2.048 0,2.983c0,0.531 0.211,1.039 0.586,1.415c0.375,0.375 0.884,0.585 1.414,0.585c0.53,0 1.039,-0.21 1.414,-0.585c0.375,-0.376 0.586,-0.884 0.586,-1.415c0,-0.935 0,-2.047 0,-2.983Z"/>
            </g>
        </g>
    </g>
</svg>
