<?xml version="1.0" encoding="UTF-8" standalone="no"?><!DOCTYPE svg PUBLIC "-//W3C//DTD SVG 1.1//EN" "http://www.w3.org/Graphics/SVG/1.1/DTD/svg11.dtd"><svg width="100%" height="100%" viewBox="0 0 32 32" version="1.1" xmlns="http://www.w3.org/2000/svg" xmlns:xlink="http://www.w3.org/1999/xlink" xml:space="preserve" xmlns:serif="http://www.serif.com/" style="fill-rule:evenodd;clip-rule:evenodd;stroke-linejoin:round;stroke-miterlimit:1.41421;"><rect id="shush" x="0" y="0" width="32" height="32" style="fill:none;"/><clipPath id="_clip1"><rect x="0" y="0" width="32" height="32"/></clipPath><g clip-path="url(#_clip1)"><g id="outline"><path d="M16.193,0.001l0.193,0.004l0.193,0.006l0.191,0.008l0.191,0.011l0.191,0.014l0.19,0.015l0.189,0.018l0.189,0.021l0.188,0.022l0.187,0.025l0.187,0.028l0.186,0.029l0.185,0.032l0.184,0.034l0.184,0.037l0.183,0.038l0.182,0.041l0.181,0.043l0.18,0.045l0.18,0.048l0.178,0.049l0.178,0.052l0.177,0.054l0.176,0.056l0.175,0.058l0.174,0.06l0.172,0.062l0.173,0.064l0.17,0.066l0.17,0.068l0.169,0.071l0.168,0.072l0.167,0.074l0.166,0.076l0.164,0.078l0.164,0.08l0.162,0.082l0.161,0.084l0.16,0.086l0.159,0.087l0.158,0.089l0.156,0.092l0.156,0.093l0.154,0.095l0.152,0.096l0.152,0.099l0.15,0.1l0.149,0.102l0.148,0.104l0.146,0.105l0.145,0.107l0.144,0.109l0.142,0.11l0.141,0.112l0.139,0.114l0.138,0.115l0.137,0.117l0.135,0.119l0.134,0.12l0.133,0.122l0.13,0.123l0.13,0.125l0.128,0.126l0.126,0.128l0.125,0.13l0.123,0.131l0.122,0.132l0.12,0.134l0.119,0.135l0.117,0.137l0.115,0.138l0.114,0.139l0.112,0.141l0.11,0.143l0.109,0.143l0.107,0.145l0.106,0.146l0.103,0.148l0.102,0.149l0.1,0.15l0.099,0.152l0.096,0.152l0.095,0.155l0.093,0.155l0.091,0.156l0.09,0.158l0.087,0.159l0.086,0.16l0.084,0.161l0.082,0.162l0.08,0.164l0.078,0.164l0.076,0.166l0.074,0.167l0.072,0.168l0.071,0.169l0.068,0.169l0.066,0.171l0.064,0.173l0.062,0.172l0.06,0.174l0.058,0.175l0.056,0.176l0.054,0.177l0.052,0.178l0.049,0.178l0.048,0.18l0.045,0.18l0.043,0.181l0.041,0.182l0.038,0.183l0.037,0.184l0.034,0.184l0.032,0.185l0.029,0.186l0.028,0.187l0.025,0.187l0.022,0.188l0.021,0.189l0.018,0.189l0.015,0.19l0.014,0.191l0.011,0.191l0.008,0.192l0.006,0.192l0.004,0.193l0.001,0.187l0,1.012l-0.001,0.155l-0.003,0.162l-0.005,0.161l-0.007,0.16l-0.009,0.161l-0.011,0.16l-0.013,0.16l-0.015,0.16l-0.016,0.159l-0.019,0.159l-0.021,0.158l-0.022,0.159l-0.025,0.157l-0.026,0.158l-0.029,0.157l-0.03,0.156l-0.032,0.156l-0.034,0.155l-0.036,0.155l-0.038,0.155l-0.04,0.154l-0.041,0.153l-0.044,0.153l-0.045,0.152l-0.047,0.151l-0.049,0.152l-0.051,0.15l-0.052,0.149l-0.055,0.149l-0.056,0.148l-0.058,0.148l-0.06,0.147l-0.061,0.146l-0.063,0.145l-0.066,0.145l-0.066,0.144l-0.069,0.143l-0.07,0.142l-0.073,0.141l-0.073,0.141l-0.076,0.139l-0.077,0.139l-0.079,0.138l-0.081,0.136l-0.083,0.136l-0.084,0.135l-0.086,0.134l-0.087,0.133l-0.089,0.132l-0.091,0.131l-0.093,0.13l-0.054,0.074l0.014,0.024l0.044,0.074l0.041,0.075l0.039,0.075l0.037,0.077l0.036,0.079l0.034,0.078l0.031,0.079l0.03,0.08l0.028,0.08l0.026,0.082l0.024,0.082l0.022,0.084l0.019,0.082l0.018,0.083l0.016,0.085l0.014,0.086l0.011,0.084l0.01,0.086l0.007,0.086l0.006,0.087l0.003,0.086l0.001,0.087l-0.001,0.087l-0.003,0.086l-0.006,0.087l-0.007,0.086l-0.01,0.086l-0.011,0.084l-0.014,0.085l-0.016,0.086l-0.018,0.083l-0.019,0.082l-0.022,0.084l-0.024,0.082l-0.026,0.082l-0.028,0.08l-0.03,0.08l-0.031,0.079l-0.034,0.078l-0.036,0.079l-0.037,0.077l-0.039,0.075l-0.041,0.075l-0.044,0.074l-0.044,0.072l-0.047,0.073l-0.049,0.071l-0.05,0.07l-0.052,0.068l-0.054,0.067l-0.055,0.066l-0.057,0.065l-0.059,0.064l-0.061,0.062l-0.062,0.061l-0.063,0.058l-0.066,0.058l-0.066,0.056l-0.067,0.053l-0.069,0.052l-0.069,0.051l-0.071,0.048l-0.072,0.047l-0.073,0.045l-0.074,0.043l-0.075,0.041l-0.076,0.039l-0.077,0.038l-0.077,0.035l-0.078,0.034l-0.08,0.032l-0.08,0.029l-0.08,0.028l-0.082,0.026l-0.082,0.024l-0.083,0.022l-0.083,0.019l-0.084,0.018l-0.084,0.016l-0.085,0.014l-0.085,0.011l-0.086,0.01l-0.086,0.007l-0.087,0.006l-0.086,0.003l-0.075,0.001l-0.074,0l-0.012,0.021l-0.045,0.073l-0.048,0.073l-0.049,0.072l-0.05,0.071l-0.053,0.07l-0.053,0.069l-0.055,0.068l-0.05,0.058l-0.926,1.063l-0.063,0.07l-0.074,0.079l-0.077,0.076l-0.078,0.074l-0.079,0.072l-0.081,0.069l-0.083,0.067l-0.085,0.065l-0.087,0.063l-0.088,0.06l-0.088,0.057l-0.091,0.055l-0.093,0.053l-0.093,0.05l-0.095,0.048l-0.095,0.045l-0.097,0.043l-0.098,0.04l-0.099,0.037l-0.101,0.035l-0.101,0.032l-0.102,0.03l-0.103,0.026l-0.104,0.024l-0.104,0.022l-0.106,0.018l-0.105,0.016l-0.107,0.013l-0.107,0.01l-0.107,0.007l-0.108,0.005l-0.094,0.001l-5.104,0l0,-3l-2.006,0l-0.155,-0.001l-0.162,-0.003l-0.161,-0.005l-0.161,-0.007l-0.16,-0.009l-0.16,-0.011l-0.16,-0.013l-0.16,-0.015l-0.159,-0.016l-0.159,-0.019l-0.159,-0.021l-0.158,-0.022l-0.158,-0.025l-0.157,-0.026l-0.157,-0.029l-0.156,-0.03l-0.156,-0.032l-0.155,-0.034l-0.155,-0.036l-0.155,-0.038l-0.154,-0.04l-0.153,-0.041l-0.153,-0.044l-0.152,-0.045l-0.151,-0.047l-0.151,-0.049l-0.151,-0.051l-0.149,-0.052l-0.149,-0.055l-0.149,-0.056l-0.147,-0.058l-0.147,-0.06l-0.146,-0.061l-0.145,-0.063l-0.145,-0.066l-0.144,-0.066l-0.143,-0.069l-0.142,-0.07l-0.141,-0.073l-0.141,-0.073l-0.139,-0.076l-0.139,-0.077l-0.138,-0.079l-0.136,-0.081l-0.136,-0.083l-0.135,-0.084l-0.134,-0.086l-0.133,-0.087l-0.132,-0.089l-0.131,-0.091l-0.13,-0.093l-0.129,-0.094l-0.128,-0.096l-0.127,-0.097l-0.125,-0.099l-0.125,-0.101l-0.123,-0.102l-0.122,-0.104l-0.122,-0.106l-0.119,-0.107l-0.119,-0.109l-0.117,-0.11l-0.116,-0.112l-0.115,-0.114l-0.114,-0.114l-0.112,-0.117l-0.11,-0.117l-0.109,-0.119l-0.107,-0.119l-0.106,-0.122l-0.104,-0.122l-0.102,-0.123l-0.101,-0.125l-0.099,-0.125l-0.097,-0.127l-0.096,-0.128l-0.094,-0.129l-0.093,-0.13l-0.091,-0.13l-0.089,-0.133l-0.088,-0.133l-0.085,-0.134l-0.084,-0.134l-0.083,-0.137l-0.081,-0.136l-0.079,-0.138l-0.077,-0.139l-0.076,-0.139l-0.074,-0.141l-0.071,-0.141l-0.071,-0.142l-0.069,-0.143l-0.066,-0.144l-0.066,-0.145l-0.063,-0.145l-0.061,-0.146l-0.06,-0.147l-0.058,-0.148l-0.056,-0.148l-0.055,-0.149l-0.052,-0.149l-0.051,-0.15l-0.049,-0.152l-0.047,-0.151l-0.045,-0.152l-0.044,-0.153l-0.041,-0.153l-0.04,-0.154l-0.038,-0.155l-0.036,-0.154l-0.034,-0.156l-0.032,-0.156l-0.03,-0.156l-0.029,-0.157l-0.026,-0.158l-0.025,-0.157l-0.022,-0.158l-0.021,-0.159l-0.019,-0.159l-0.016,-0.159l-0.015,-0.16l-0.013,-0.16l-0.011,-0.16l-0.009,-0.161l-0.007,-0.16l-0.005,-0.161l-0.003,-0.162l-0.001,-0.155l0,-1.012l0.001,-0.187l0.004,-0.193l0.006,-0.192l0.008,-0.192l0.011,-0.191l0.014,-0.191l0.015,-0.19l0.018,-0.189l0.021,-0.189l0.022,-0.188l0.025,-0.187l0.028,-0.187l0.029,-0.186l0.032,-0.185l0.034,-0.184l0.037,-0.184l0.038,-0.183l0.041,-0.182l0.043,-0.181l0.045,-0.18l0.048,-0.18l0.049,-0.178l0.052,-0.178l0.054,-0.177l0.056,-0.176l0.058,-0.175l0.06,-0.174l0.062,-0.172l0.064,-0.172l0.066,-0.172l0.068,-0.17l0.071,-0.168l0.072,-0.168l0.074,-0.167l0.076,-0.166l0.078,-0.164l0.08,-0.164l0.082,-0.162l0.084,-0.161l0.086,-0.16l0.087,-0.159l0.09,-0.158l0.091,-0.156l0.093,-0.155l0.095,-0.155l0.096,-0.152l0.099,-0.152l0.1,-0.15l0.102,-0.149l0.103,-0.148l0.106,-0.146l0.107,-0.145l0.109,-0.144l0.11,-0.142l0.112,-0.141l0.114,-0.139l0.115,-0.138l0.117,-0.137l0.119,-0.135l0.12,-0.134l0.122,-0.132l0.123,-0.131l0.125,-0.13l0.126,-0.128l0.128,-0.126l0.13,-0.125l0.13,-0.123l0.133,-0.122l0.134,-0.12l0.135,-0.119l0.137,-0.117l0.138,-0.115l0.139,-0.114l0.141,-0.112l0.142,-0.11l0.144,-0.109l0.145,-0.107l0.146,-0.106l0.148,-0.103l0.149,-0.102l0.15,-0.1l0.152,-0.099l0.153,-0.096l0.153,-0.095l0.156,-0.093l0.156,-0.091l0.158,-0.09l0.159,-0.087l0.16,-0.086l0.161,-0.084l0.162,-0.082l0.164,-0.08l0.164,-0.078l0.166,-0.076l0.167,-0.074l0.168,-0.072l0.169,-0.071l0.17,-0.068l0.171,-0.066l0.172,-0.064l0.172,-0.062l0.174,-0.06l0.175,-0.058l0.176,-0.056l0.177,-0.054l0.178,-0.052l0.178,-0.049l0.18,-0.048l0.18,-0.045l0.181,-0.043l0.182,-0.041l0.183,-0.038l0.184,-0.037l0.184,-0.034l0.185,-0.032l0.186,-0.029l0.187,-0.028l0.187,-0.025l0.188,-0.022l0.189,-0.021l0.189,-0.018l0.19,-0.015l0.191,-0.014l0.191,-0.011l0.192,-0.008l0.192,-0.006l0.193,-0.004l0.193,-0.001l0.193,0.001Zm-0.336,4l-0.142,0.003l-0.142,0.004l-0.141,0.006l-0.14,0.008l-0.14,0.01l-0.14,0.012l-0.139,0.013l-0.139,0.015l-0.138,0.017l-0.137,0.018l-0.137,0.02l-0.136,0.022l-0.136,0.023l-0.135,0.025l-0.134,0.027l-0.134,0.028l-0.133,0.03l-0.133,0.031l-0.132,0.033l-0.131,0.035l-0.131,0.036l-0.13,0.038l-0.129,0.039l-0.128,0.041l-0.128,0.043l-0.128,0.043l-0.126,0.046l-0.126,0.047l-0.125,0.048l-0.125,0.05l-0.123,0.052l-0.123,0.053l-0.122,0.054l-0.121,0.056l-0.121,0.057l-0.12,0.058l-0.118,0.06l-0.119,0.062l-0.117,0.063l-0.116,0.064l-0.116,0.065l-0.115,0.067l-0.113,0.068l-0.113,0.07l-0.112,0.071l-0.112,0.072l-0.11,0.073l-0.109,0.075l-0.109,0.076l-0.107,0.078l-0.106,0.078l-0.106,0.08l-0.104,0.081l-0.104,0.083l-0.102,0.083l-0.102,0.085l-0.1,0.086l-0.1,0.087l-0.098,0.088l-0.097,0.09l-0.096,0.09l-0.095,0.092l-0.094,0.093l-0.093,0.094l-0.092,0.095l-0.09,0.096l-0.09,0.097l-0.088,0.099l-0.087,0.099l-0.086,0.1l-0.085,0.102l-0.083,0.102l-0.083,0.104l-0.081,0.104l-0.08,0.106l-0.078,0.106l-0.078,0.107l-0.076,0.109l-0.075,0.109l-0.073,0.11l-0.072,0.112l-0.071,0.112l-0.07,0.113l-0.068,0.113l-0.067,0.115l-0.065,0.116l-0.065,0.116l-0.062,0.117l-0.062,0.118l-0.06,0.119l-0.058,0.12l-0.057,0.121l-0.056,0.121l-0.054,0.122l-0.053,0.123l-0.052,0.124l-0.05,0.124l-0.048,0.125l-0.047,0.126l-0.045,0.126l-0.044,0.128l-0.043,0.127l-0.041,0.129l-0.039,0.13l-0.038,0.129l-0.036,0.131l-0.035,0.131l-0.033,0.132l-0.031,0.133l-0.03,0.133l-0.029,0.134l-0.026,0.134l-0.025,0.135l-0.023,0.136l-0.022,0.137l-0.02,0.136l-0.018,0.137l-0.017,0.138l-0.015,0.139l-0.013,0.139l-0.012,0.14l-0.01,0.14l-0.008,0.14l-0.006,0.141l-0.004,0.142l-0.003,0.142l-0.001,0.149l0,0.988l0.001,0.118l0.002,0.111l0.003,0.112l0.005,0.111l0.006,0.112l0.008,0.11l0.009,0.111l0.01,0.111l0.012,0.11l0.013,0.11l0.014,0.109l0.016,0.11l0.017,0.109l0.018,0.109l0.02,0.109l0.021,0.108l0.022,0.108l0.023,0.107l0.025,0.108l0.026,0.107l0.028,0.106l0.029,0.106l0.03,0.106l0.031,0.106l0.033,0.105l0.033,0.104l0.036,0.104l0.036,0.104l0.038,0.102l0.039,0.103l0.04,0.103l0.041,0.101l0.043,0.101l0.044,0.101l0.045,0.1l0.046,0.1l0.047,0.098l0.049,0.099l0.05,0.098l0.051,0.097l0.053,0.097l0.053,0.096l0.055,0.095l0.056,0.095l0.057,0.094l0.058,0.093l0.06,0.093l0.06,0.092l0.062,0.091l0.063,0.091l0.064,0.09l0.065,0.089l0.066,0.089l0.068,0.088l0.068,0.087l0.07,0.086l0.071,0.085l0.072,0.085l0.073,0.083l0.074,0.083l0.076,0.083l0.076,0.081l0.077,0.08l0.079,0.08l0.08,0.078l0.08,0.078l0.081,0.076l0.083,0.076l0.083,0.074l0.083,0.073l0.085,0.072l0.085,0.071l0.086,0.069l0.087,0.069l0.088,0.068l0.089,0.066l0.089,0.065l0.09,0.064l0.09,0.063l0.092,0.062l0.092,0.06l0.093,0.06l0.093,0.058l0.094,0.057l0.095,0.056l0.095,0.055l0.096,0.053l0.097,0.053l0.097,0.051l0.098,0.05l0.099,0.049l0.098,0.047l0.1,0.046l0.1,0.045l0.101,0.044l0.101,0.043l0.102,0.041l0.102,0.04l0.102,0.039l0.103,0.038l0.104,0.036l0.104,0.036l0.105,0.033l0.104,0.033l0.106,0.031l0.106,0.03l0.106,0.029l0.106,0.028l0.107,0.026l0.108,0.025l0.107,0.023l0.108,0.022l0.108,0.021l0.109,0.02l0.109,0.018l0.109,0.017l0.109,0.016l0.11,0.014l0.11,0.013l0.11,0.012l0.111,0.01l0.111,0.009l0.11,0.008l0.112,0.006l0.111,0.005l0.112,0.003l0.111,0.002l0.118,0.001l5.994,0l0,3l1.076,0l0.014,0l0.009,-0.01l0.894,-1.026l0.007,-0.008l0,0l0,0l0.064,-1.956l0.656,0l-0.293,-0.779l1.844,-1.765l0.094,-0.093l0.077,-0.079l0.078,-0.08l0.076,-0.081l0.076,-0.083l0.074,-0.082l0.073,-0.084l0.072,-0.085l0.071,-0.085l0.07,-0.086l0.068,-0.087l0.068,-0.088l0.066,-0.088l0.065,-0.09l0.064,-0.09l0.063,-0.09l0.062,-0.092l0.06,-0.092l0.06,-0.093l0.058,-0.093l0.057,-0.094l0.056,-0.095l0.055,-0.095l0.053,-0.096l0.053,-0.097l0.051,-0.097l0.05,-0.098l0.049,-0.099l0.047,-0.098l0.046,-0.1l0.045,-0.1l0.044,-0.101l0.043,-0.101l0.041,-0.102l0.04,-0.102l0.039,-0.102l0.038,-0.103l0.036,-0.104l0.036,-0.104l0.033,-0.104l0.033,-0.105l0.031,-0.106l0.03,-0.106l0.029,-0.106l0.028,-0.106l0.026,-0.107l0.025,-0.107l0.023,-0.108l0.022,-0.108l0.021,-0.108l0.02,-0.109l0.018,-0.109l0.017,-0.109l0.016,-0.109l0.014,-0.11l0.013,-0.11l0.012,-0.11l0.01,-0.111l0.009,-0.111l0.008,-0.11l0.006,-0.112l0.005,-0.111l0.003,-0.112l0.002,-0.111l0.001,-0.118l0,-0.988l-0.001,-0.149l-0.003,-0.142l-0.004,-0.142l-0.006,-0.141l-0.008,-0.14l-0.01,-0.141l-0.012,-0.139l-0.013,-0.139l-0.015,-0.139l-0.016,-0.137l-0.019,-0.138l-0.02,-0.137l-0.022,-0.136l-0.023,-0.135l-0.025,-0.136l-0.027,-0.134l-0.028,-0.134l-0.03,-0.133l-0.031,-0.133l-0.033,-0.132l-0.035,-0.131l-0.036,-0.131l-0.038,-0.129l-0.039,-0.13l-0.041,-0.129l-0.043,-0.127l-0.044,-0.128l-0.045,-0.126l-0.047,-0.126l-0.048,-0.125l-0.05,-0.125l-0.052,-0.123l-0.053,-0.123l-0.054,-0.122l-0.056,-0.121l-0.057,-0.121l-0.058,-0.12l-0.06,-0.119l-0.062,-0.118l-0.062,-0.117l-0.065,-0.116l-0.065,-0.116l-0.067,-0.115l-0.068,-0.113l-0.07,-0.113l-0.071,-0.112l-0.072,-0.112l-0.073,-0.11l-0.075,-0.109l-0.076,-0.109l-0.078,-0.107l-0.078,-0.106l-0.08,-0.106l-0.081,-0.104l-0.083,-0.104l-0.083,-0.102l-0.085,-0.102l-0.086,-0.1l-0.087,-0.099l-0.088,-0.099l-0.09,-0.097l-0.09,-0.096l-0.092,-0.095l-0.093,-0.094l-0.094,-0.093l-0.095,-0.092l-0.096,-0.09l-0.097,-0.09l-0.098,-0.088l-0.1,-0.087l-0.1,-0.086l-0.102,-0.085l-0.102,-0.083l-0.104,-0.083l-0.104,-0.081l-0.106,-0.08l-0.106,-0.078l-0.108,-0.078l-0.108,-0.076l-0.109,-0.075l-0.11,-0.073l-0.112,-0.072l-0.112,-0.071l-0.113,-0.07l-0.113,-0.068l-0.115,-0.067l-0.116,-0.065l-0.116,-0.065l-0.117,-0.062l-0.119,-0.062l-0.118,-0.06l-0.12,-0.058l-0.121,-0.057l-0.121,-0.056l-0.122,-0.054l-0.123,-0.053l-0.123,-0.052l-0.125,-0.05l-0.125,-0.048l-0.126,-0.047l-0.126,-0.046l-0.128,-0.043l-0.128,-0.043l-0.128,-0.041l-0.129,-0.039l-0.131,-0.038l-0.13,-0.036l-0.131,-0.035l-0.132,-0.033l-0.133,-0.031l-0.133,-0.03l-0.134,-0.028l-0.134,-0.027l-0.135,-0.025l-0.136,-0.023l-0.136,-0.022l-0.137,-0.02l-0.137,-0.018l-0.138,-0.017l-0.139,-0.015l-0.139,-0.013l-0.139,-0.012l-0.141,-0.01l-0.14,-0.008l-0.141,-0.006l-0.142,-0.004l-0.142,-0.003l-0.143,-0.001l-0.143,0.001Z"/></g><g id="emoji"><path d="M29,15c0,-7.18 -5.82,-13 -13,-13c0,0 0,0 0,0c-7.18,0 -13,5.82 -13,13c0,0.334 0,0.668 0,1c0,2.917 1.159,5.715 3.222,7.778c2.063,2.063 4.861,3.222 7.778,3.222c1.324,0 2.676,0 4,0c2.917,0 5.715,-1.159 7.778,-3.222c2.063,-2.063 3.222,-4.861 3.222,-7.778c0,-0.332 0,-0.666 0,-1Z" style="fill:#fbc546;"/><clipPath id="_clip2"><path d="M29,15c0,-7.18 -5.82,-13 -13,-13c0,0 0,0 0,0c-7.18,0 -13,5.82 -13,13c0,0.334 0,0.668 0,1c0,2.917 1.159,5.715 3.222,7.778c2.063,2.063 4.861,3.222 7.778,3.222c1.324,0 2.676,0 4,0c2.917,0 5.715,-1.159 7.778,-3.222c2.063,-2.063 3.222,-4.861 3.222,-7.778c0,-0.332 0,-0.666 0,-1Z"/></clipPath><g clip-path="url(#_clip2)"><path d="M17,19c0,0 1.888,0 3.343,0c1.061,0 2.078,0.421 2.829,1.172c2.834,2.834 9.828,9.828 9.828,9.828l-16,0l0,-11Z" style="fill:#e59a10;"/><g><path d="M14.413,21.217c-0.259,-0.337 -0.413,-0.759 -0.413,-1.217c0,-0.941 0,-2.059 0,-3c0,-1.105 0.895,-2 2,-2c1.105,0 2,0.895 2,2c0,0.941 0,2.059 0,3c0,0.458 -0.154,0.88 -0.413,1.217c-0.54,0.268 -2.23,0.25 -3.174,0Z" style="fill:#722245;"/><path d="M14.413,21.217c0.508,-0.142 1.041,-0.217 1.587,-0.217c0,0 0,0 0,0c0.546,0 1.079,0.075 1.587,0.217c-0.365,0.476 -0.94,0.783 -1.587,0.783c-0.647,0 -1.222,-0.307 -1.587,-0.783Z" style="fill:#ca3b8f;"/></g><g><path d="M19.149,17.003l0.147,0.011l0.147,0.018l0.145,0.026l0.143,0.032l0.142,0.039l0.139,0.046l0.136,0.053l0.134,0.059l0.131,0.066l0.128,0.072l0.124,0.079l0.12,0.084l0.117,0.091l0.112,0.097l0.108,0.102l0.102,0.108l0.097,0.112l0.091,0.117l0.085,0.12l0.078,0.124l0.072,0.128l0.066,0.131l0.059,0.134l0.053,0.136l0.046,0.139l0.039,0.141l0.032,0.144l0.026,0.146l0.018,0.146l0.011,0.147l0.003,0.124l0,2.025l3.512,0l0.075,0.001l0.086,0.003l0.087,0.005l0.086,0.008l0.086,0.01l0.085,0.011l0.085,0.014l0.084,0.016l0.084,0.018l0.083,0.019l0.083,0.022l0.082,0.024l0.081,0.026l0.081,0.028l0.08,0.03l0.079,0.031l0.079,0.034l0.078,0.035l0.077,0.038l0.075,0.039l0.075,0.041l0.074,0.043l0.073,0.045l0.072,0.047l0.07,0.048l0.07,0.051l0.069,0.052l0.067,0.053l0.066,0.056l0.065,0.057l0.064,0.059l0.062,0.061l0.061,0.062l0.059,0.064l0.057,0.064l0.055,0.066l0.054,0.068l0.053,0.069l0.05,0.069l0.048,0.071l0.047,0.072l0.045,0.073l0.043,0.074l0.041,0.074l0.039,0.077l0.038,0.077l0.035,0.076l0.034,0.079l0.032,0.08l0.029,0.08l0.028,0.081l0.026,0.082l0.024,0.081l0.021,0.082l0.02,0.084l0.018,0.084l0.016,0.084l0.014,0.086l0.011,0.084l0.01,0.086l0.007,0.086l0.006,0.086l0.003,0.088l0.001,0.086l-0.001,0.086l-0.003,0.088l-0.006,0.086l-0.007,0.086l-0.01,0.086l-0.011,0.084l-0.014,0.086l-0.016,0.084l-0.018,0.084l-0.02,0.084l-0.021,0.082l-0.024,0.081l-0.026,0.082l-0.028,0.081l-0.029,0.08l-0.032,0.08l-0.034,0.078l-0.035,0.077l-0.038,0.078l-0.039,0.076l-0.041,0.074l-0.043,0.074l-0.045,0.073l-0.047,0.072l-0.048,0.071l-0.05,0.069l-0.053,0.069l-0.054,0.068l-0.055,0.066l-0.057,0.064l-0.059,0.064l-0.061,0.062l-0.062,0.061l-0.064,0.059l-0.065,0.057l-0.066,0.056l-0.067,0.053l-0.069,0.052l-0.07,0.051l-0.07,0.048l-0.072,0.047l-0.073,0.045l-0.074,0.043l-0.075,0.041l-0.075,0.039l-0.078,0.038l-0.077,0.035l-0.079,0.034l-0.079,0.031l-0.08,0.03l-0.081,0.028l-0.081,0.026l-0.082,0.024l-0.083,0.022l-0.083,0.019l-0.084,0.018l-0.084,0.016l-0.085,0.014l-0.086,0.011l-0.085,0.01l-0.086,0.007l-0.087,0.006l-0.086,0.003l-0.075,0.001l-0.074,0l-0.012,0.02l-0.046,0.074l-0.047,0.074l-0.049,0.071l-0.05,0.071l-0.052,0.07l-0.054,0.069l-0.055,0.068l-0.05,0.058l-0.926,1.063l-0.063,0.07l-0.074,0.079l-0.077,0.076l-0.078,0.074l-0.079,0.072l-0.081,0.069l-0.084,0.068l-0.084,0.064l-0.087,0.063l-0.087,0.059l-0.089,0.058l-0.092,0.055l-0.092,0.053l-0.093,0.05l-0.094,0.048l-0.096,0.045l-0.097,0.043l-0.099,0.04l-0.099,0.037l-0.1,0.035l-0.101,0.032l-0.102,0.03l-0.103,0.026l-0.104,0.024l-0.104,0.022l-0.105,0.018l-0.106,0.016l-0.107,0.013l-0.107,0.01l-0.107,0.007l-0.108,0.005l-0.095,0.001l-5.103,0l0,-12.025l0.003,-0.128l0.012,-0.151l0.019,-0.15l0.026,-0.149l0.034,-0.145l0.041,-0.143l0.047,-0.14l0.054,-0.138l0.06,-0.133l0.067,-0.13l0.072,-0.125l0.078,-0.122l0.084,-0.118l0.088,-0.112l0.094,-0.109l0.099,-0.104l0.104,-0.099l0.109,-0.094l0.113,-0.088l0.117,-0.084l0.122,-0.078l0.126,-0.072l0.129,-0.067l0.134,-0.06l0.136,-0.054l0.14,-0.047l0.144,-0.041l0.146,-0.034l0.148,-0.026l0.15,-0.019l0.151,-0.012l0.153,-0.004l0.149,0.004Zm1.928,10.997l0.013,0l0.009,-0.01l0.894,-1.026l0.007,-0.008l0,0l0.031,-0.956l-2.031,0l0,2l1.077,0Z" style="fill:#7e5108;"/></g></g><g><path d="M27,25.5c0,-0.828 -0.672,-1.5 -1.5,-1.5c-0.75,0 -1.5,0 -1.5,0l0,3c0,0 0.75,0 1.5,0c0.828,0 1.5,-0.672 1.5,-1.5c0,0 0,0 0,0Z" style="fill:#fbc546;"/><rect x="22" y="23" width="3" height="4" style="fill:#7e5108;"/><path d="M18,30c0,0 1.91,0 3.09,0c0.578,0 1.128,-0.25 1.508,-0.686c0.29,-0.333 0.635,-0.729 0.91,-1.044c0.317,-0.365 0.492,-0.831 0.492,-1.314c0,-0.563 0,-1.34 0,-1.956c0,-0.265 -0.105,-0.52 -0.293,-0.707c-0.187,-0.188 -0.442,-0.293 -0.707,-0.293c-1.185,0 -3,0 -3,0c0,0 0,-2.541 0,-4c0,-0.265 -0.105,-0.52 -0.293,-0.707c-0.187,-0.188 -0.442,-0.293 -0.707,-0.293c-0.552,0 -1,0.448 -1,1c0,2.711 0,10 0,10Z" style="fill:#fbc546;"/></g><g><path d="M11,10.5c0,-0.828 -0.672,-1.5 -1.5,-1.5c-0.828,0 -1.5,0.672 -1.5,1.5c0,0.916 0,2.084 0,3c0,0.828 0.672,1.5 1.5,1.5c0.828,0 1.5,-0.672 1.5,-1.5c0,-0.916 0,-2.084 0,-3Z"/><path d="M24,10.5c0,-0.828 -0.672,-1.5 -1.5,-1.5c-0.828,0 -1.5,0.672 -1.5,1.5c0,0.916 0,2.084 0,3c0,0.828 0.672,1.5 1.5,1.5c0.828,0 1.5,-0.672 1.5,-1.5c0,-0.916 0,-2.084 0,-3Z"/></g></g></g></svg>