<?xml version="1.0" encoding="UTF-8" standalone="no"?>
<!DOCTYPE svg PUBLIC "-//W3C//DTD SVG 1.1//EN" "http://www.w3.org/Graphics/SVG/1.1/DTD/svg11.dtd">
<svg width="100%" height="100%" viewBox="0 0 32 32" version="1.1" xmlns="http://www.w3.org/2000/svg" xmlns:xlink="http://www.w3.org/1999/xlink" xml:space="preserve" xmlns:serif="http://www.serif.com/" style="fill-rule:evenodd;clip-rule:evenodd;stroke-linejoin:round;stroke-miterlimit:2;">
    <rect id="straight_face" x="0" y="0" width="32" height="32" style="fill:none;"/>
    <clipPath id="_clip1">
        <rect x="0" y="0" width="32" height="32"/>
    </clipPath>
    <g clip-path="url(#_clip1)">
        <g id="outline">
            <path d="M16,0c4.243,0 8.313,1.686 11.314,4.686c3,3.001 4.686,7.071 4.686,11.314l0,2c0,7.732 -6.268,14 -14,14c-1.325,0 -2.675,0 -4,0c-7.732,0 -14,-6.268 -14,-14l0,-2c0,-8.837 7.163,-16 16,-16l0,0Z"/>
        </g>
        <g id="emoji">
            <path d="M30,16c0,-3.713 -1.475,-7.274 -4.101,-9.899c-2.625,-2.626 -6.186,-4.101 -9.899,-4.101l0,0c-7.732,0 -14,6.268 -14,14l0,2c0,6.627 5.373,12 12,12l4,0c6.627,0 12,-5.373 12,-12l0,-2Z" style="fill:#fbc546;"/>
            <g>
                <path d="M9.502,17.842c0.928,0 1.817,-0.368 2.473,-1.024c0.656,-0.656 1.025,-1.546 1.025,-2.474c0,-0.657 0,-1.344 0,-2.002c0,-1.933 -1.567,-3.5 -3.5,-3.5l-0.002,0c-0.928,0 -1.817,0.369 -2.473,1.025c-0.656,0.656 -1.025,1.546 -1.025,2.473c0,0.658 0,1.345 0,2.002c0,1.933 1.567,3.5 3.5,3.5l0.002,0Z" style="fill:#fff;"/>
                <path d="M8,11.842c0,-0.53 0.211,-1.039 0.586,-1.414c0.375,-0.375 0.884,-0.586 1.414,-0.586c0.53,0 1.039,0.211 1.414,0.586c0.375,0.375 0.586,0.884 0.586,1.414c0,0.936 0,2.048 0,2.984c0,0.53 -0.211,1.039 -0.586,1.414c-0.375,0.375 -0.884,0.586 -1.414,0.586c-0.53,0 -1.039,-0.211 -1.414,-0.586c-0.375,-0.375 -0.586,-0.884 -0.586,-1.414c0,-0.936 0,-2.048 0,-2.984Z"/>
            </g>
            <g>
                <path d="M22.498,17.842c-0.928,0 -1.817,-0.368 -2.473,-1.024c-0.656,-0.656 -1.025,-1.546 -1.025,-2.474c0,-0.657 0,-1.344 0,-2.002c0,-1.933 1.567,-3.5 3.5,-3.5l0.002,0c0.928,0 1.817,0.369 2.473,1.025c0.656,0.656 1.025,1.546 1.025,2.473c0,0.658 0,1.345 0,2.002c0,1.933 -1.567,3.5 -3.5,3.5l-0.002,0Z" style="fill:#fff;"/>
                <path d="M24,11.842c0,-0.53 -0.211,-1.039 -0.586,-1.414c-0.375,-0.375 -0.884,-0.586 -1.414,-0.586c-0.53,0 -1.039,0.211 -1.414,0.586c-0.375,0.375 -0.586,0.884 -0.586,1.414c0,0.936 0,2.048 0,2.984c0,0.53 0.211,1.039 0.586,1.414c0.375,0.375 0.884,0.586 1.414,0.586c0.53,0 1.039,-0.211 1.414,-0.586c0.375,-0.375 0.586,-0.884 0.586,-1.414c0,-0.936 0,-2.048 0,-2.984Z"/>
            </g>
            <path d="M23,22c0,-0.552 -0.448,-1 -1,-1c-2.577,0 -9.423,0 -12,0c-0.552,0 -1,0.448 -1,1c0,0.552 0.448,1 1,1c2.577,0 9.423,0 12,0c0.552,0 1,-0.448 1,-1Z" style="fill:#593604;"/>
        </g>
    </g>
</svg>
