<?xml version="1.0" encoding="UTF-8" standalone="no"?>
<!DOCTYPE svg PUBLIC "-//W3C//DTD SVG 1.1//EN" "http://www.w3.org/Graphics/SVG/1.1/DTD/svg11.dtd">
<svg width="100%" height="100%" viewBox="0 0 32 32" version="1.1" xmlns="http://www.w3.org/2000/svg" xmlns:xlink="http://www.w3.org/1999/xlink" xml:space="preserve" xmlns:serif="http://www.serif.com/" style="fill-rule:evenodd;clip-rule:evenodd;stroke-linecap:round;stroke-linejoin:round;stroke-miterlimit:1.5;">
    <rect id="unamused" x="0" y="0" width="32" height="32" style="fill:none;"/>
    <clipPath id="_clip1">
        <rect x="0" y="0" width="32" height="32"/>
    </clipPath>
    <g clip-path="url(#_clip1)">
        <g id="outline">
            <path d="M16,1c8.837,0 16,7.163 16,16l0,1c0,7.18 -5.82,13 -13,13c-1.972,0 -4.028,0 -6,0c-7.18,0 -13,-5.82 -13,-13c0,-0.332 0,-0.665 0,-1c0,-8.837 7.163,-16 16,-16l0,0Z"/>
        </g>
        <g id="emoji">
            <path d="M30,17c0,-7.732 -6.268,-14 -14,-14c0,0 0,0 0,0c-7.732,0 -14,6.268 -14,14c0,0.335 0,0.668 0,1c0,6.075 4.925,11 11,11c1.972,0 4.028,0 6,0c6.075,0 11,-4.925 11,-11c0,-0.332 0,-0.665 0,-1Z" style="fill:#fbc546;"/>
            <g>
                <path d="M19,12l3,-1c0,0 2.708,3.6 3.495,4.311c-0.613,1.013 -1.725,1.689 -2.995,1.689l-0.002,0c-0.928,0 -1.817,-0.369 -2.473,-1.025c-0.656,-0.656 -1.025,-1.545 -1.025,-2.473l0,-1.502Z" style="fill:#fff;"/>
                <path d="M25.663,10c0.22,0.464 0.337,0.975 0.337,1.498c0,0.657 0,1.345 0,2.002c0,0.663 -0.184,1.283 -0.505,1.811c-0.366,0.413 -0.9,0.672 -1.495,0.672c-1.105,0 -2,-0.895 -2,-2l0,-1.983l-3,0l0,-0.5c0.001,-0.238 0.024,-0.476 0.072,-0.71c0.056,-0.273 0.146,-0.538 0.265,-0.79l6.326,0Z"/>
            </g>
            <g>
                <path d="M6,12l3,-1c0,0 2.708,3.6 3.495,4.311c-0.613,1.013 -1.725,1.689 -2.995,1.689l-0.002,0c-0.928,0 -1.817,-0.369 -2.473,-1.025c-0.656,-0.656 -1.025,-1.545 -1.025,-2.473l0,-1.502Z" style="fill:#fff;"/>
                <path d="M12.663,10c0.22,0.464 0.337,0.975 0.337,1.498c0,0.657 0,1.345 0,2.002c0,0.663 -0.184,1.283 -0.505,1.811c-0.366,0.413 -0.9,0.672 -1.495,0.672c-1.105,0 -2,-0.895 -2,-2l0,-1.983l-3,0l0,-0.5c0.001,-0.238 0.024,-0.476 0.072,-0.71c0.056,-0.273 0.146,-0.538 0.265,-0.79l6.326,0Z"/>
            </g>
            <path d="M11,22c0,0 0.136,-0.204 0.336,-0.505c1.04,-1.559 2.789,-2.495 4.663,-2.495l0.002,0c1.874,0 3.623,0.936 4.663,2.495c0.2,0.301 0.336,0.505 0.336,0.505" style="fill:none;stroke:#593604;stroke-width:2px;"/>
        </g>
    </g>
</svg>
