<?xml version="1.0" encoding="UTF-8" standalone="no"?>
<!DOCTYPE svg PUBLIC "-//W3C//DTD SVG 1.1//EN" "http://www.w3.org/Graphics/SVG/1.1/DTD/svg11.dtd">
<svg width="100%" height="100%" viewBox="0 0 32 32" version="1.1" xmlns="http://www.w3.org/2000/svg" xmlns:xlink="http://www.w3.org/1999/xlink" xml:space="preserve" xmlns:serif="http://www.serif.com/" style="fill-rule:evenodd;clip-rule:evenodd;stroke-linejoin:round;stroke-miterlimit:2;">
    <rect id="yawn" x="0" y="0" width="32" height="32" style="fill:none;"/>
    <g id="outline">
        <path d="M16.097,2c8.24,0.052 14.903,6.748 14.903,15l0,1c0,3.183 -1.264,6.235 -3.515,8.485c-2.25,2.251 -5.302,3.515 -8.485,3.515l-1.74,0l-0.001,0.001c-1.12,1.148 -2.654,1.799 -4.257,1.808c-1.604,0.01 -3.144,-0.623 -4.278,-1.757l-1.576,-1.576c-0.957,-0.534 -1.844,-1.202 -2.633,-1.991c-2.251,-2.25 -3.515,-5.302 -3.515,-8.485c0,-0.332 0,-0.665 0,-1c0,-8.284 6.716,-15 15,-15l0.097,0Z"/>
    </g>
    <g id="emoji">
        <g>
            <path d="M25.553,25.553c0,0 -20.226,-1.59 -20.206,-1.116c-1.51,-1.795 -2.347,-4.073 -2.347,-6.437c0,-0.332 0,-0.665 0,-1c0,-7.18 5.82,-13 13,-13l0.084,0c7.141,0.045 12.916,5.848 12.916,13c0,0.335 0,0.668 0,1c0,2.652 -1.054,5.196 -2.929,7.071c-0.167,0.167 -0.34,0.328 -0.518,0.482Z" style="fill:#fbc546;"/>
            <path d="M21.136,21.137c0.012,0.011 0.024,0.023 0.036,0.035l4.381,4.381c-1.758,1.526 -4,2.394 -6.338,2.445c0,0 1.864,-4.908 1.912,-6.87l0.009,0.009Z" style="fill:#e59a10;"/>
            <path d="M5.347,24.437c-0.02,-0.474 0.017,-0.953 0.112,-1.428c0.273,-1.369 0.58,-2.901 0.58,-2.901c0.144,-0.723 0.675,-1.308 1.381,-1.522c0.706,-0.214 1.473,-0.022 1.994,0.5l0.586,0.586l1.464,-1.465c1.953,-1.953 5.119,-1.953 7.072,0c0.548,0.549 1.139,1.14 1.687,1.687c1.936,1.937 1.955,5.07 0.042,7.029l-1.05,1.075c-0.071,0.001 -0.143,0.002 -0.215,0.002c-1.968,0 -4.032,0 -6,0c-2.652,0 -5.196,-1.054 -7.071,-2.929c-0.204,-0.204 -0.398,-0.415 -0.582,-0.634Z" style="fill:#7e5108;"/>
        </g>
        <g>
            <path d="M9.646,22l-1.028,0c-0.347,0 -0.668,-0.179 -0.851,-0.474c-0.182,-0.295 -0.198,-0.663 -0.043,-0.973c0.378,-0.758 0.862,-1.726 1.341,-2.683c1.186,-2.372 3.61,-3.87 6.261,-3.87c0.447,0 0.901,0 1.348,0c2.651,0 5.075,1.498 6.261,3.87c0.479,0.957 0.963,1.925 1.341,2.683c0.155,0.31 0.139,0.678 -0.043,0.973c-0.183,0.295 -0.504,0.474 -0.851,0.474l-1.028,0c-1.378,-1.847 -11.33,-1.847 -12.708,0Z" style="fill:#722245;"/>
            <path d="M16.375,19c2.406,0 4.601,1.153 5.979,3l-12.708,0c1.378,-1.847 3.573,-3 5.979,-3l0.75,0Z" style="fill:#ca3b8f;"/>
        </g>
        <path d="M8,20.5c0,0 -0.307,1.533 -0.58,2.901c-0.262,1.311 0.148,2.667 1.094,3.613c0.495,0.495 1.063,1.063 1.624,1.624c0.756,0.756 1.783,1.178 2.852,1.171c1.069,-0.006 2.091,-0.44 2.838,-1.205c0.992,-1.016 2.087,-2.138 3.006,-3.078c1.148,-1.176 1.136,-3.056 -0.025,-4.217c-0.548,-0.548 -1.139,-1.139 -1.688,-1.688c-1.171,-1.171 -3.071,-1.171 -4.242,0c-1.363,1.363 -2.879,2.879 -2.879,2.879l-2,-2Z" style="fill:#fbc546;"/>
        <path d="M11.553,10.106l-4,2c-0.494,0.246 -0.694,0.848 -0.447,1.341c0.246,0.494 0.848,0.694 1.341,0.447l4,-2c0.494,-0.246 0.694,-0.848 0.447,-1.341c-0.246,-0.494 -0.848,-0.694 -1.341,-0.447Z"/>
        <path d="M19.553,11.894l4,2c0.493,0.247 1.095,0.047 1.341,-0.447c0.247,-0.493 0.047,-1.095 -0.447,-1.341l-4,-2c-0.493,-0.247 -1.095,-0.047 -1.341,0.447c-0.247,0.493 -0.047,1.095 0.447,1.341Z"/>
    </g>
</svg>
