<?xml version="1.0" encoding="UTF-8" standalone="no"?><!DOCTYPE svg PUBLIC "-//W3C//DTD SVG 1.1//EN" "http://www.w3.org/Graphics/SVG/1.1/DTD/svg11.dtd"><svg width="100%" height="100%" viewBox="0 0 32 32" version="1.1" xmlns="http://www.w3.org/2000/svg" xmlns:xlink="http://www.w3.org/1999/xlink" xml:space="preserve" xmlns:serif="http://www.serif.com/" style="fill-rule:evenodd;clip-rule:evenodd;stroke-linecap:round;stroke-linejoin:round;stroke-miterlimit:1.5;"><rect id="arrow" x="0" y="0" width="32" height="32" style="fill:none;"/><clipPath id="_clip1"><rect x="0" y="0" width="32" height="32"/></clipPath><g clip-path="url(#_clip1)"><g id="outline"><path d="M2,2l3,8l5,-5l-8,-3Z" style="fill:none;stroke:#000;stroke-width:4px;"/><path d="M27.121,22.879l-4.242,4.242l-20,-20l4.242,-4.242l20,20Z" style="fill-rule:nonzero;"/><path d="M21,25l5,5l0,-4l4,0l-5,-5l-4,0l0,4Z" style="fill:none;stroke:#000;stroke-width:4px;stroke-linecap:butt;"/></g><g id="emoji"><path d="M25.707,24.293l-1.414,1.414l-20,-20l1.414,-1.414l20,20Z" style="fill:#c7a272;fill-rule:nonzero;"/><path d="M21,25l5,5l0,-4l4,0l-5,-5l-4,0l0,4Z" style="fill:#c4b1a4;"/><path d="M2,2l3,8l5,-5l-8,-3Z" style="fill:#c9d3d6;"/></g></g></svg>