<?xml version="1.0" encoding="UTF-8" standalone="no"?><!DOCTYPE svg PUBLIC "-//W3C//DTD SVG 1.1//EN" "http://www.w3.org/Graphics/SVG/1.1/DTD/svg11.dtd"><svg width="100%" height="100%" viewBox="0 0 32 32" version="1.1" xmlns="http://www.w3.org/2000/svg" xmlns:xlink="http://www.w3.org/1999/xlink" xml:space="preserve" xmlns:serif="http://www.serif.com/" style="fill-rule:evenodd;clip-rule:evenodd;stroke-miterlimit:5;"><rect id="flail" x="0" y="0" width="32" height="32" style="fill:none;"/><clipPath id="_clip1"><rect x="0" y="0" width="32" height="32"/></clipPath><g clip-path="url(#_clip1)"><g id="outline"><path d="M2.707,20.293c-0.39,0.39 -0.39,1.024 0,1.414c0.19,0.19 0.396,0.396 0.586,0.586c0.39,0.39 1.024,0.39 1.414,0c2.902,-2.902 13.904,-13.904 17.293,-17.293c0.265,-0.265 0.414,-0.625 0.414,-1c0,-0.375 -0.149,-0.735 -0.414,-1c0,0 0,0 0,0c-0.265,-0.265 -0.625,-0.414 -1,-0.414c-0.375,0 -0.735,0.149 -1,0.414c-3.389,3.389 -14.391,14.391 -17.293,17.293Z" style="fill:#8e8e8e;stroke:#000;stroke-width:4px;"/><path d="M23.586,18.172l3.364,-1.122l-1.122,3.364l3.172,1.586l-3.172,1.586l1.122,3.364l-3.364,-1.122l-1.586,3.172l-1.586,-3.172l-3.364,1.122l1.122,-3.364l-3.172,-1.586l3.172,-1.586l-1.122,-3.364l3.364,1.122l1.586,-3.172l1.586,3.172Z" style="fill:#919191;stroke:#000;stroke-width:4px;stroke-linejoin:round;stroke-miterlimit:1.5;"/><path d="M22,4l0,17" style="fill:none;stroke:#000;stroke-width:6px;stroke-linecap:round;stroke-linejoin:round;stroke-miterlimit:1.5;"/></g><g id="emoji"><path d="M22,4l0,17" style="fill:none;stroke:#647982;stroke-width:2px;stroke-linecap:round;stroke-linejoin:round;stroke-miterlimit:1.5;"/><path d="M3,20l0,2l2,0l13,-13l0,-2l-2,0l-13,13Z" style="fill:#6e4d31;"/><path d="M16,7l2,2c0,0 2.541,-2.541 4,-4c0.552,-0.552 0.552,-1.448 0,-2c0,0 0,0 0,0c-0.552,-0.552 -1.448,-0.552 -2,0c-1.459,1.459 -4,4 -4,4Z" style="fill:#9faeb5;"/><g><path d="M23.586,18.172l3.364,-1.122l-1.122,3.364l3.172,1.586l-3.172,1.586l1.122,3.364l-3.364,-1.122l-1.586,3.172l-1.586,-3.172l-3.364,1.122l1.122,-3.364l-3.172,-1.586l3.172,-1.586l-1.122,-3.364l3.364,1.122l1.586,-3.172l1.586,3.172Zm-2.829,0.828l-1.757,1.757l0,2.486l1.757,1.757l2.486,0l1.757,-1.757l0,-2.486l-1.757,-1.757l-2.486,0Z" style="fill:#9faeb5;"/><circle cx="22" cy="22" r="4" style="fill:#d8e3e5;"/><circle cx="22" cy="22" r="2" style="fill:#9faeb5;"/></g><path d="M4.707,22.293c-0.187,0.187 -0.442,0.293 -0.707,0.293c-0.265,0 -0.52,-0.106 -0.707,-0.293c-0.19,-0.19 -0.396,-0.396 -0.586,-0.586c-0.187,-0.187 -0.293,-0.442 -0.293,-0.707c0,-0.265 0.106,-0.52 0.293,-0.707c0.165,-0.165 0.293,-0.293 0.293,-0.293l2,2c0,0 -0.128,0.128 -0.293,0.293Z" style="fill:#9faeb5;"/></g></g></svg>