<?xml version="1.0" encoding="UTF-8" standalone="no"?><!DOCTYPE svg PUBLIC "-//W3C//DTD SVG 1.1//EN" "http://www.w3.org/Graphics/SVG/1.1/DTD/svg11.dtd"><svg width="100%" height="100%" viewBox="0 0 32 32" version="1.1" xmlns="http://www.w3.org/2000/svg" xmlns:xlink="http://www.w3.org/1999/xlink" xml:space="preserve" xmlns:serif="http://www.serif.com/" style="fill-rule:evenodd;clip-rule:evenodd;stroke-linejoin:round;stroke-miterlimit:1.5;"><rect id="ghost" x="0" y="0" width="32" height="32" style="fill:none;"/><clipPath id="_clip1"><rect x="0" y="0" width="32" height="32"/></clipPath><g clip-path="url(#_clip1)"><g id="outline"><path d="M13.828,4c-1.811,0 -3.547,0.719 -4.828,2c0,0 0,0 0,0c-1.281,1.281 -2,3.017 -2,4.828c0,0.754 0,1.523 0,2.115c0,0.699 0.122,1.393 0.361,2.05c0.781,2.148 2.615,7.19 3.338,9.179c0.199,0.548 0.301,1.126 0.301,1.709c0,1.178 0,3.119 0,3.119l3,-3l2,3l2,-3l3,3c0,0 0,-1.941 0,-3.119c0,-0.583 0.102,-1.161 0.301,-1.709c0.723,-1.989 2.557,-7.031 3.338,-9.179c0.239,-0.657 0.361,-1.351 0.361,-2.05c0,-0.592 0,-1.361 0,-2.115c0,-1.811 -0.719,-3.547 -2,-4.828c0,0 0,0 0,0c-1.281,-1.281 -3.017,-2 -4.828,-2c-1.359,0 -2.985,0 -4.344,0Z" style="fill:none;stroke:#000;stroke-width:4px;"/><path d="M10.094,12.002l0.023,0.002l0.024,0.001l0.023,0.002l0.023,0.002l0.024,0.003l0.023,0.002l0.023,0.003l0.023,0.003l0.024,0.004l0.023,0.003l0.023,0.004l0.023,0.004l0.023,0.005l0.023,0.004l0.023,0.006l0.023,0.005l0.022,0.006l0.023,0.005l0.023,0.007l0.022,0.006l0.023,0.007l0.022,0.006l0.022,0.008l0.023,0.007l0.022,0.008l0.022,0.007l0.022,0.009l0.022,0.008l0.021,0.009l0.022,0.009l0.022,0.009l0.021,0.009l0.021,0.011l0.022,0.009l0.021,0.011l0.021,0.01l0.02,0.011l0.021,0.011l0.021,0.011l0.02,0.011l0.021,0.012l0.02,0.012l0.02,0.012l0.02,0.012l0.019,0.013l0.02,0.013l0.019,0.013l0.02,0.013l0.019,0.014l0.019,0.013l0.019,0.015l0.019,0.014l0.018,0.014l0.018,0.015l0.018,0.015l0.019,0.015l0.017,0.015l0.018,0.015l0.017,0.016l0.018,0.016l0.016,0.016l0.018,0.016l0.016,0.017l0.017,0.016l0.016,0.018l0.016,0.016l0.016,0.018l0.016,0.017l0.015,0.018l0.015,0.017l0.015,0.019l0.015,0.018l0.015,0.018l0.014,0.018l0.014,0.019l0.015,0.019l0.013,0.019l0.014,0.019l0.013,0.02l0.013,0.019l0.013,0.02l0.013,0.019l0.012,0.02l0.012,0.02l0.012,0.02l0.012,0.021l0.011,0.02l0.011,0.021l0.011,0.021l0.011,0.02l0.01,0.021l0.011,0.021l0.009,0.022l0.011,0.021l0.009,0.021l0.009,0.022l0.009,0.022l0.009,0.021l0.008,0.022l0.009,0.022l0.007,0.022l0.008,0.022l0.007,0.023l0.008,0.022l0.006,0.022l0.007,0.023l0.006,0.022l0.007,0.023l0.005,0.023l0.006,0.022l0.005,0.023l0.006,0.023l0.004,0.023l0.005,0.023l0.004,0.023l0.004,0.023l0.003,0.023l0.004,0.024l0.003,0.023l0.003,0.023l0.002,0.023l0.003,0.024l0.002,0.023l0.002,0.023l0.001,0.024l0.002,0.023l0,0.024l0.001,0.023l0,0.024l0.001,0.023l0,7.245l-0.308,0.24l-5.643,-1.411l-0.155,-0.041l-0.164,-0.046l-0.163,-0.05l-0.161,-0.054l-0.16,-0.056l-0.158,-0.06l-0.156,-0.063l-0.154,-0.066l-0.153,-0.069l-0.151,-0.072l-0.149,-0.075l-0.147,-0.078l-0.145,-0.081l-0.143,-0.083l-0.141,-0.087l-0.139,-0.089l-0.137,-0.092l-0.134,-0.094l-0.133,-0.097l-0.13,-0.1l-0.129,-0.102l-0.125,-0.105l-0.124,-0.107l-0.121,-0.11l-0.119,-0.112l-0.117,-0.114l-0.114,-0.117l-0.111,-0.119l-0.11,-0.121l-0.106,-0.123l-0.104,-0.125l-0.102,-0.127l-0.099,-0.13l-0.096,-0.131l-0.094,-0.133l-0.09,-0.136l-0.089,-0.137l-0.085,-0.139l-0.083,-0.14l-0.079,-0.143l-0.077,-0.144l-0.074,-0.146l-0.071,-0.147l-0.069,-0.15l-0.065,-0.15l-0.062,-0.152l-0.059,-0.154l-0.056,-0.155l-0.053,-0.157l-0.049,-0.157l-0.047,-0.16l-0.043,-0.16l-0.04,-0.161l-0.037,-0.163l-0.033,-0.164l-0.03,-0.165l-0.026,-0.165l-0.023,-0.167l-0.02,-0.168l-0.016,-0.168l-0.013,-0.17l-0.009,-0.17l-0.005,-0.17l-0.002,-0.161l0,-3.833l0.001,-0.08l0.006,-0.099l0.009,-0.098l0.013,-0.096l0.016,-0.097l0.02,-0.095l0.023,-0.094l0.027,-0.093l0.03,-0.091l0.033,-0.09l0.037,-0.089l0.039,-0.087l0.043,-0.086l0.045,-0.083l0.049,-0.083l0.051,-0.08l0.054,-0.078l0.058,-0.076l0.06,-0.075l0.063,-0.071l0.065,-0.07l0.068,-0.068l0.071,-0.065l0.073,-0.063l0.075,-0.059l0.078,-0.058l0.081,-0.055l0.082,-0.052l0.085,-0.049l0.086,-0.046l0.09,-0.043l0.09,-0.039l0.092,-0.036l0.093,-0.033l0.094,-0.029l0.094,-0.025l0.095,-0.021l0.096,-0.019l0.096,-0.014l0.096,-0.011l0.096,-0.007l0.095,-0.004l0.097,-0.001l0.096,0.004l0.094,0.006l0.095,0.01l0.094,0.014l0.095,0.017l0.093,0.02l0.092,0.023l0.091,0.028l0.091,0.03l0.09,0.034l0.088,0.037l0.087,0.04l0.086,0.043l0.085,0.047l0.082,0.05l0.082,0.053l0.08,0.057l0.077,0.06l0.075,0.062l0.074,0.066l0.058,0.056l1.167,1.166l0.065,0.067l0.07,0.074l0.069,0.075l0.068,0.076l0.066,0.077l0.064,0.078l0.064,0.079l0.062,0.08l0.06,0.081l0.06,0.082l0.057,0.083l0.057,0.084l0.054,0.085l0.054,0.086l0.052,0.086l0.05,0.088l0.049,0.088l0.048,0.089l0.046,0.09l0.045,0.091l0.043,0.091l0.041,0.093l0.04,0.093l0.038,0.093l0.037,0.095l0.035,0.095l0.034,0.095l0.032,0.097l0.031,0.097l0.028,0.097l0.028,0.098l0.023,0.09l0.352,1.409l0.003,0.01l0.01,0l2.428,0l0.023,0.001l0.024,0l0.023,0.001l0.024,0Zm-4.619,3.416l0.064,0.051l0.065,0.05l0.066,0.048l0.067,0.047l0.068,0.046l0.07,0.045l0.07,0.043l0.071,0.041l0.073,0.041l0.073,0.039l0.074,0.037l0.075,0.036l0.077,0.034l0.077,0.033l0.078,0.032l0.078,0.029l0.08,0.029l0.081,0.026l0.082,0.026l0.082,0.023l0.094,0.024l0.96,0.24l0,-0.438l-0.449,0l-0.075,-0.001l-0.085,-0.003l-0.085,-0.004l-0.085,-0.006l-0.083,-0.008l-0.085,-0.01l-0.083,-0.012l-0.083,-0.013l-0.082,-0.015l-0.083,-0.017l-0.081,-0.018l-0.081,-0.02l-0.08,-0.022l-0.079,-0.023l-0.08,-0.025l-0.078,-0.026l-0.077,-0.028l-0.077,-0.03l-0.076,-0.031l-0.076,-0.032l-0.074,-0.034l-0.074,-0.036l-0.073,-0.037l-0.072,-0.038l-0.072,-0.04l-0.07,-0.042l-0.052,-0.032l0.025,0.021Z"/><path d="M29.432,5.886l0.095,0.004l0.096,0.007l0.096,0.011l0.096,0.014l0.096,0.019l0.095,0.021l0.094,0.025l0.094,0.029l0.093,0.033l0.092,0.036l0.09,0.039l0.09,0.043l0.086,0.046l0.085,0.049l0.082,0.052l0.081,0.055l0.078,0.058l0.075,0.059l0.073,0.063l0.071,0.065l0.068,0.068l0.065,0.07l0.063,0.071l0.06,0.075l0.058,0.076l0.054,0.078l0.051,0.08l0.049,0.083l0.045,0.083l0.043,0.086l0.039,0.087l0.037,0.089l0.033,0.09l0.03,0.091l0.027,0.093l0.023,0.094l0.02,0.095l0.016,0.097l0.013,0.097l0.009,0.097l0.005,0.099l0.002,0.08l0,3.833l-0.002,0.161l-0.005,0.17l-0.009,0.17l-0.013,0.17l-0.016,0.168l-0.02,0.168l-0.023,0.167l-0.026,0.165l-0.03,0.165l-0.033,0.164l-0.037,0.163l-0.04,0.161l-0.043,0.16l-0.047,0.16l-0.049,0.157l-0.053,0.157l-0.056,0.155l-0.059,0.153l-0.062,0.153l-0.065,0.15l-0.069,0.15l-0.071,0.147l-0.074,0.146l-0.077,0.144l-0.079,0.143l-0.083,0.14l-0.085,0.139l-0.089,0.137l-0.09,0.136l-0.094,0.133l-0.096,0.131l-0.099,0.13l-0.102,0.127l-0.104,0.125l-0.106,0.123l-0.11,0.121l-0.111,0.119l-0.114,0.117l-0.117,0.114l-0.119,0.112l-0.121,0.11l-0.124,0.107l-0.125,0.105l-0.129,0.102l-0.13,0.1l-0.133,0.097l-0.134,0.094l-0.137,0.092l-0.139,0.089l-0.141,0.087l-0.143,0.083l-0.145,0.081l-0.147,0.078l-0.149,0.075l-0.151,0.072l-0.153,0.069l-0.154,0.066l-0.156,0.063l-0.158,0.06l-0.16,0.056l-0.161,0.054l-0.163,0.05l-0.164,0.046l-0.155,0.041l-5.643,1.411l-0.308,-0.24l0,-7.245l0.001,-0.023l0,-0.024l0.001,-0.023l0,-0.024l0.002,-0.023l0.001,-0.024l0.002,-0.023l0.002,-0.023l0.003,-0.024l0.002,-0.023l0.003,-0.023l0.003,-0.023l0.004,-0.024l0.003,-0.023l0.004,-0.023l0.004,-0.023l0.005,-0.023l0.004,-0.023l0.006,-0.023l0.005,-0.023l0.006,-0.022l0.005,-0.023l0.007,-0.023l0.006,-0.022l0.007,-0.023l0.006,-0.022l0.008,-0.022l0.007,-0.023l0.008,-0.022l0.007,-0.022l0.009,-0.022l0.008,-0.022l0.009,-0.021l0.009,-0.022l0.009,-0.022l0.009,-0.021l0.011,-0.021l0.009,-0.022l0.011,-0.021l0.01,-0.021l0.011,-0.02l0.011,-0.021l0.011,-0.021l0.011,-0.02l0.012,-0.021l0.012,-0.02l0.012,-0.02l0.012,-0.02l0.013,-0.019l0.013,-0.02l0.013,-0.019l0.013,-0.02l0.014,-0.019l0.013,-0.019l0.015,-0.019l0.014,-0.019l0.014,-0.018l0.015,-0.018l0.015,-0.018l0.015,-0.019l0.015,-0.017l0.015,-0.018l0.016,-0.017l0.016,-0.018l0.016,-0.016l0.016,-0.018l0.017,-0.016l0.016,-0.017l0.018,-0.016l0.016,-0.016l0.018,-0.016l0.017,-0.016l0.018,-0.015l0.017,-0.015l0.019,-0.015l0.018,-0.015l0.018,-0.015l0.018,-0.014l0.019,-0.014l0.019,-0.015l0.019,-0.013l0.019,-0.014l0.02,-0.013l0.019,-0.013l0.02,-0.013l0.019,-0.013l0.02,-0.012l0.02,-0.012l0.02,-0.012l0.021,-0.012l0.02,-0.011l0.021,-0.011l0.021,-0.011l0.02,-0.011l0.021,-0.01l0.021,-0.011l0.022,-0.009l0.021,-0.011l0.021,-0.009l0.022,-0.009l0.022,-0.009l0.021,-0.009l0.022,-0.008l0.022,-0.009l0.022,-0.007l0.022,-0.008l0.023,-0.007l0.022,-0.008l0.022,-0.006l0.023,-0.007l0.022,-0.006l0.023,-0.007l0.023,-0.005l0.022,-0.006l0.023,-0.005l0.023,-0.006l0.023,-0.004l0.023,-0.005l0.023,-0.004l0.023,-0.004l0.023,-0.003l0.024,-0.004l0.023,-0.003l0.023,-0.003l0.023,-0.002l0.024,-0.003l0.023,-0.002l0.023,-0.002l0.024,-0.001l0.023,-0.002l0.024,0l0.023,-0.001l0.024,0l0.023,-0.001l2.428,0l0.01,0l0.003,-0.01l0.352,-1.409l0.023,-0.09l0.028,-0.098l0.028,-0.097l0.031,-0.097l0.032,-0.097l0.034,-0.095l0.035,-0.095l0.037,-0.095l0.038,-0.093l0.04,-0.093l0.041,-0.093l0.043,-0.091l0.045,-0.091l0.046,-0.09l0.048,-0.089l0.049,-0.088l0.05,-0.088l0.052,-0.086l0.054,-0.086l0.054,-0.085l0.057,-0.084l0.057,-0.083l0.06,-0.082l0.06,-0.081l0.062,-0.08l0.064,-0.079l0.064,-0.078l0.066,-0.077l0.068,-0.076l0.069,-0.075l0.07,-0.074l0.065,-0.067l1.167,-1.167l0.058,-0.055l0.074,-0.066l0.075,-0.062l0.077,-0.06l0.08,-0.057l0.082,-0.053l0.082,-0.05l0.085,-0.047l0.086,-0.043l0.087,-0.04l0.088,-0.037l0.09,-0.034l0.091,-0.03l0.091,-0.028l0.092,-0.023l0.093,-0.02l0.095,-0.017l0.094,-0.014l0.095,-0.01l0.094,-0.006l0.096,-0.004l0.097,0.001Zm-2.934,9.543l-0.07,0.042l-0.072,0.04l-0.072,0.038l-0.073,0.037l-0.074,0.036l-0.074,0.034l-0.076,0.032l-0.076,0.031l-0.077,0.03l-0.077,0.028l-0.078,0.026l-0.08,0.025l-0.079,0.023l-0.08,0.022l-0.081,0.02l-0.081,0.018l-0.083,0.017l-0.082,0.015l-0.083,0.013l-0.083,0.012l-0.085,0.01l-0.083,0.008l-0.085,0.006l-0.085,0.004l-0.085,0.003l-0.075,0.001l-0.449,0l0,0.438l0.96,-0.24l0.094,-0.024l0.082,-0.023l0.082,-0.026l0.081,-0.026l0.08,-0.029l0.078,-0.029l0.078,-0.032l0.077,-0.033l0.077,-0.034l0.075,-0.036l0.074,-0.037l0.073,-0.039l0.073,-0.041l0.071,-0.041l0.07,-0.043l0.07,-0.045l0.068,-0.046l0.067,-0.047l0.066,-0.048l0.065,-0.05l0.064,-0.051l0.025,-0.021l-0.052,0.032Z"/></g><g id="emoji"><path d="M13.828,4c-1.811,0 -3.547,0.719 -4.828,2c0,0 0,0 0,0c-1.281,1.281 -2,3.017 -2,4.828c0,0.754 0,1.523 0,2.115c0,0.699 0.122,1.393 0.361,2.05c0.781,2.148 2.615,7.19 3.338,9.179c0.199,0.548 0.301,1.126 0.301,1.709c0,1.178 0,3.119 0,3.119l3,-3l2,3l2,-3l3,3c0,0 0,-1.941 0,-3.119c0,-0.583 0.102,-1.161 0.301,-1.709c0.723,-1.989 2.557,-7.031 3.338,-9.179c0.239,-0.657 0.361,-1.351 0.361,-2.05c0,-0.592 0,-1.361 0,-2.115c0,-1.811 -0.719,-3.547 -2,-4.828c0,0 0,0 0,0c-1.281,-1.281 -3.017,-2 -4.828,-2c-1.359,0 -2.985,0 -4.344,0Z" style="fill:#fff;"/><path d="M10,14c0,0 -1.316,0 -2.438,0c-0.918,0 -1.718,-0.625 -1.941,-1.515c-0.117,-0.469 -0.244,-0.977 -0.352,-1.41c-0.176,-0.703 -0.54,-1.346 -1.052,-1.858c-0.351,-0.351 -0.77,-0.77 -1.148,-1.148c-0.179,-0.179 -0.449,-0.233 -0.683,-0.136c-0.233,0.097 -0.386,0.325 -0.386,0.579c0,1.02 0,2.428 0,3.803c0,2.754 1.874,5.153 4.545,5.821c1.803,0.451 3.455,0.864 3.455,0.864l0,-5" style="fill:#fff;"/><path d="M22,14c0,0 1.316,0 2.438,0c0.918,0 1.718,-0.625 1.941,-1.515c0.117,-0.469 0.244,-0.977 0.352,-1.41c0.176,-0.703 0.54,-1.346 1.052,-1.858c0.351,-0.351 0.77,-0.77 1.148,-1.148c0.179,-0.179 0.449,-0.233 0.683,-0.136c0.233,0.097 0.386,0.325 0.386,0.579c0,1.02 0,2.428 0,3.803c0,2.754 -1.874,5.153 -4.545,5.821c-1.803,0.451 -3.455,0.864 -3.455,0.864l0,-5" style="fill:#fff;"/><g><path d="M15,14l-2,-1l-1,1l-3,-1c0,0 0.15,0.601 0.334,1.337c0.415,1.659 1.648,2.99 3.27,3.531l2.447,0.816c0.616,0.205 1.282,0.205 1.898,0c0.879,-0.293 2.051,-0.684 2.051,-0.684c0,0 0.156,-0.052 0.396,-0.132c1.622,-0.541 2.855,-1.872 3.27,-3.531c0.184,-0.736 0.334,-1.337 0.334,-1.337l-3,1l-1,-1l-2,1l-1,-1l-1,1Z" style="fill:#75050d;"/><path d="M11.457,17.315l0.652,-0.979c0.237,-0.355 0.542,-0.649 0.891,-0.87c0,0 0.837,0.095 1,0.534c0.161,0.433 -0.009,0.622 0,1c0.008,0.338 -0.954,0.951 -0.942,1.019l-0.454,-0.151c-0.41,-0.137 -0.794,-0.323 -1.147,-0.553Zm7.485,0.704c0.018,-0.102 -0.658,-0.479 -0.942,-1.019c-0.159,-0.303 -0.003,-0.752 0,-1c0.003,-0.27 1,-0.534 1,-0.534c0.349,0.221 0.654,0.515 0.891,0.87l0.652,0.979c-0.353,0.23 -0.737,0.416 -1.147,0.553c-0.24,0.08 -0.396,0.132 -0.396,0.132l-0.058,0.019Z" style="fill:#b40816;"/><path d="M13,15.466c0.473,-0.3 1.028,-0.466 1.606,-0.466c0.863,0 1.925,0 2.788,0c0.578,0 1.133,0.166 1.606,0.466l0,1.877c0,1.061 -0.421,2.078 -1.172,2.829c-0.083,0.083 -0.165,0.165 -0.242,0.242c-0.375,0.375 -0.884,0.586 -1.414,0.586l-0.344,0c-0.53,0 -1.039,-0.211 -1.414,-0.586c-0.077,-0.077 -0.159,-0.159 -0.242,-0.242c-0.751,-0.751 -1.172,-1.768 -1.172,-2.829l0,-1.877Z" style="fill:#f4101c;"/></g><path d="M11.015,8.5l0.028,0.001l0.028,0.002l0.028,0.002l0.028,0.003l0.027,0.004l0.028,0.005l0.028,0.005l0.027,0.006l0.027,0.008l0.027,0.007l0.027,0.009l0.026,0.009l0.026,0.01l0.026,0.011l0.026,0.011l0.025,0.013l2,1l0.025,0.012l0.025,0.014l0.024,0.014l0.024,0.015l0.023,0.016l0.023,0.016l0.022,0.017l0.022,0.018l0.021,0.018l0.021,0.018l0.021,0.02l0.02,0.019l0.019,0.021l0.018,0.021l0.019,0.021l0.017,0.022l0.017,0.023l0.016,0.023l0.016,0.023l0.015,0.024l0.014,0.024l0.013,0.024l0.013,0.025l0.012,0.026l0.012,0.025l0.01,0.026l0.01,0.026l0.01,0.027l0.008,0.027l0.008,0.026l0.007,0.028l0.006,0.027l0.006,0.027l0.004,0.028l0.004,0.028l0.003,0.028l0.003,0.028l0.001,0.028l0.001,0.028l0,0.028l-0.001,0.028l-0.002,0.028l-0.002,0.028l-0.003,0.028l-0.004,0.027l-0.005,0.028l-0.005,0.028l-0.006,0.027l-0.008,0.027l-0.007,0.027l-0.009,0.027l-0.009,0.026l-0.01,0.026l-0.011,0.026l-0.011,0.026l-0.013,0.025l-0.012,0.025l-0.014,0.025l-0.014,0.024l-0.015,0.024l-0.016,0.023l-0.016,0.023l-0.017,0.022l-0.018,0.022l-0.018,0.021l-0.018,0.021l-0.02,0.021l-0.019,0.02l-0.021,0.019l-0.021,0.018l-0.021,0.019l-0.022,0.017l-0.023,0.017l-0.023,0.016l-0.023,0.016l-0.024,0.015l-0.024,0.014l-0.024,0.013l-0.025,0.013l-0.026,0.012l-0.025,0.012l-0.026,0.01l-0.026,0.01l-0.027,0.01l-0.027,0.008l-0.026,0.008l-0.028,0.007l-0.027,0.006l-0.027,0.006l-0.028,0.004l-0.028,0.004l-0.028,0.003l-0.028,0.003l-0.028,0.001l-0.028,0.001l-0.028,0l-0.028,-0.001l-0.028,-0.002l-0.028,-0.002l-0.028,-0.003l-0.027,-0.004l-0.028,-0.005l-0.028,-0.005l-0.027,-0.006l-0.027,-0.008l-0.027,-0.007l-0.027,-0.009l-0.026,-0.009l-0.026,-0.01l-0.026,-0.011l-0.026,-0.011l-0.025,-0.013l-2,-1l-0.025,-0.012l-0.025,-0.014l-0.024,-0.014l-0.024,-0.015l-0.023,-0.016l-0.023,-0.016l-0.022,-0.017l-0.022,-0.018l-0.021,-0.018l-0.021,-0.018l-0.021,-0.02l-0.02,-0.019l-0.019,-0.021l-0.018,-0.021l-0.019,-0.021l-0.017,-0.022l-0.017,-0.023l-0.016,-0.023l-0.016,-0.023l-0.015,-0.024l-0.014,-0.024l-0.013,-0.024l-0.013,-0.025l-0.012,-0.026l-0.012,-0.025l-0.01,-0.026l-0.01,-0.026l-0.01,-0.027l-0.008,-0.027l-0.008,-0.026l-0.007,-0.028l-0.006,-0.027l-0.006,-0.027l-0.004,-0.028l-0.004,-0.028l-0.003,-0.028l-0.003,-0.028l-0.001,-0.028l-0.001,-0.028l0,-0.028l0.001,-0.028l0.002,-0.028l0.002,-0.028l0.003,-0.028l0.004,-0.027l0.005,-0.028l0.005,-0.028l0.006,-0.027l0.008,-0.027l0.007,-0.027l0.009,-0.027l0.009,-0.026l0.01,-0.026l0.011,-0.026l0.011,-0.026l0.013,-0.025l0.012,-0.025l0.014,-0.025l0.014,-0.024l0.015,-0.024l0.016,-0.023l0.016,-0.023l0.017,-0.022l0.018,-0.022l0.018,-0.021l0.018,-0.021l0.02,-0.021l0.019,-0.02l0.021,-0.019l0.021,-0.018l0.021,-0.019l0.022,-0.017l0.023,-0.017l0.023,-0.016l0.023,-0.016l0.024,-0.015l0.024,-0.014l0.024,-0.013l0.025,-0.013l0.026,-0.012l0.025,-0.012l0.026,-0.01l0.026,-0.01l0.027,-0.01l0.027,-0.008l0.026,-0.008l0.028,-0.007l0.027,-0.006l0.027,-0.006l0.028,-0.004l0.028,-0.004l0.028,-0.003l0.028,-0.003l0.028,-0.001l0.028,-0.001l0.028,0Z"/><path d="M21.041,8.501l0.028,0.001l0.028,0.003l0.028,0.003l0.028,0.004l0.028,0.004l0.027,0.006l0.027,0.006l0.028,0.007l0.026,0.008l0.027,0.008l0.027,0.01l0.026,0.01l0.026,0.01l0.025,0.012l0.026,0.012l0.025,0.013l0.024,0.013l0.024,0.014l0.024,0.015l0.023,0.016l0.023,0.016l0.023,0.017l0.022,0.017l0.021,0.019l0.021,0.018l0.021,0.019l0.019,0.02l0.02,0.021l0.018,0.021l0.018,0.021l0.018,0.022l0.017,0.022l0.016,0.023l0.016,0.023l0.015,0.024l0.014,0.024l0.014,0.025l0.012,0.025l0.013,0.025l0.011,0.026l0.011,0.026l0.01,0.026l0.009,0.026l0.009,0.027l0.007,0.027l0.008,0.027l0.006,0.027l0.005,0.028l0.005,0.028l0.004,0.027l0.003,0.028l0.002,0.028l0.002,0.028l0.001,0.028l0,0.028l-0.001,0.028l-0.001,0.028l-0.003,0.028l-0.003,0.028l-0.004,0.028l-0.004,0.028l-0.006,0.027l-0.006,0.027l-0.007,0.028l-0.008,0.026l-0.008,0.027l-0.01,0.027l-0.01,0.026l-0.01,0.026l-0.012,0.025l-0.012,0.026l-0.013,0.025l-0.013,0.024l-0.014,0.024l-0.015,0.024l-0.016,0.023l-0.016,0.023l-0.017,0.023l-0.017,0.022l-0.019,0.021l-0.018,0.021l-0.019,0.021l-0.02,0.019l-0.021,0.02l-0.021,0.018l-0.021,0.018l-0.022,0.018l-0.022,0.017l-0.023,0.016l-0.023,0.016l-0.024,0.015l-0.024,0.014l-0.025,0.014l-0.025,0.012l-2,1l-0.025,0.013l-0.026,0.011l-0.026,0.011l-0.026,0.01l-0.026,0.009l-0.027,0.009l-0.027,0.007l-0.027,0.008l-0.027,0.006l-0.028,0.005l-0.028,0.005l-0.027,0.004l-0.028,0.003l-0.028,0.002l-0.028,0.002l-0.028,0.001l-0.028,0l-0.028,-0.001l-0.028,-0.001l-0.028,-0.003l-0.028,-0.003l-0.028,-0.004l-0.028,-0.004l-0.027,-0.006l-0.027,-0.006l-0.028,-0.007l-0.026,-0.008l-0.027,-0.008l-0.027,-0.01l-0.026,-0.01l-0.026,-0.01l-0.025,-0.012l-0.026,-0.012l-0.025,-0.013l-0.024,-0.013l-0.024,-0.014l-0.024,-0.015l-0.023,-0.016l-0.023,-0.016l-0.023,-0.017l-0.022,-0.017l-0.021,-0.019l-0.021,-0.018l-0.021,-0.019l-0.019,-0.02l-0.02,-0.021l-0.018,-0.021l-0.018,-0.021l-0.018,-0.022l-0.017,-0.022l-0.016,-0.023l-0.016,-0.023l-0.015,-0.024l-0.014,-0.024l-0.014,-0.025l-0.012,-0.025l-0.013,-0.025l-0.011,-0.026l-0.011,-0.026l-0.01,-0.026l-0.009,-0.026l-0.009,-0.027l-0.007,-0.027l-0.008,-0.027l-0.006,-0.027l-0.005,-0.028l-0.005,-0.028l-0.004,-0.027l-0.003,-0.028l-0.002,-0.028l-0.002,-0.028l-0.001,-0.028l0,-0.028l0.001,-0.028l0.001,-0.028l0.003,-0.028l0.003,-0.028l0.004,-0.028l0.004,-0.028l0.006,-0.027l0.006,-0.027l0.007,-0.028l0.008,-0.026l0.008,-0.027l0.01,-0.027l0.01,-0.026l0.01,-0.026l0.012,-0.025l0.012,-0.026l0.013,-0.025l0.013,-0.024l0.014,-0.024l0.015,-0.024l0.016,-0.023l0.016,-0.023l0.017,-0.023l0.017,-0.022l0.019,-0.021l0.018,-0.021l0.019,-0.021l0.02,-0.019l0.021,-0.02l0.021,-0.018l0.021,-0.018l0.022,-0.018l0.022,-0.017l0.023,-0.016l0.023,-0.016l0.024,-0.015l0.024,-0.014l0.025,-0.014l0.025,-0.012l2,-1l0.025,-0.013l0.026,-0.011l0.026,-0.011l0.026,-0.01l0.026,-0.009l0.027,-0.009l0.027,-0.007l0.027,-0.008l0.027,-0.006l0.028,-0.005l0.028,-0.005l0.027,-0.004l0.028,-0.003l0.028,-0.002l0.028,-0.002l0.028,-0.001l0.028,0l0.028,0.001Z"/></g></g></svg>