<?xml version="1.0" encoding="UTF-8" standalone="no"?><!DOCTYPE svg PUBLIC "-//W3C//DTD SVG 1.1//EN" "http://www.w3.org/Graphics/SVG/1.1/DTD/svg11.dtd"><svg width="100%" height="100%" viewBox="0 0 32 32" version="1.1" xmlns="http://www.w3.org/2000/svg" xmlns:xlink="http://www.w3.org/1999/xlink" xml:space="preserve" xmlns:serif="http://www.serif.com/" style="fill-rule:evenodd;clip-rule:evenodd;stroke-linejoin:round;stroke-miterlimit:1.41421;"><rect id="skull" x="0" y="0" width="32" height="32" style="fill:none;"/><clipPath id="_clip1"><rect x="0" y="0" width="32" height="32"/></clipPath><g clip-path="url(#_clip1)"><g id="outline"><path d="M6,19.991l-0.024,-0.022c-0.268,-0.248 -0.517,-0.512 -0.74,-0.802c-0.507,-0.663 -0.873,-1.43 -1.069,-2.241c-0.099,-0.411 -0.148,-0.827 -0.165,-1.248c-0.026,-1.936 -0.013,-3.871 -0.001,-5.807c0.007,-0.382 0.031,-0.763 0.079,-1.142c0.094,-0.739 0.271,-1.468 0.527,-2.167c0.54,-1.475 1.432,-2.813 2.581,-3.883c1.003,-0.933 2.196,-1.658 3.489,-2.113c0.704,-0.248 1.436,-0.416 2.177,-0.501c0.338,-0.039 0.677,-0.058 1.017,-0.064c1.419,-0.009 2.839,-0.009 4.258,0c0.34,0.006 0.679,0.025 1.017,0.064c0.741,0.085 1.473,0.253 2.177,0.501c1.293,0.455 2.486,1.18 3.489,2.113c1.149,1.07 2.041,2.408 2.581,3.883c0.256,0.699 0.433,1.428 0.527,2.167c0.048,0.379 0.072,0.76 0.079,1.142c0.012,1.887 0.001,3.774 0.001,5.661c-0.005,0.365 -0.035,0.728 -0.102,1.087c-0.153,0.82 -0.478,1.606 -0.95,2.294c-0.239,0.348 -0.515,0.663 -0.817,0.957c-0.044,0.041 -0.087,0.081 -0.131,0.12l0,6.01l-0.028,0c-0.001,0.01 -0.003,0.019 -0.004,0.029c-0.065,0.435 -0.227,0.855 -0.472,1.222c-0.105,0.158 -0.226,0.301 -0.357,0.439c-1.07,1.069 -2.127,2.152 -3.21,3.208c-0.145,0.134 -0.295,0.261 -0.457,0.375c-0.427,0.3 -0.912,0.515 -1.421,0.629c-0.257,0.058 -0.517,0.087 -0.78,0.097c-2.181,0.027 -4.361,0.027 -6.542,0c-0.263,-0.01 -0.523,-0.039 -0.78,-0.097c-0.509,-0.114 -0.994,-0.329 -1.421,-0.629c-0.162,-0.114 -0.312,-0.241 -0.457,-0.375c-1.083,-1.056 -2.14,-2.139 -3.21,-3.208c-0.131,-0.138 -0.252,-0.281 -0.357,-0.439c-0.245,-0.367 -0.407,-0.787 -0.472,-1.222c-0.001,-0.01 -0.003,-0.019 -0.004,-0.029l-0.028,0l0,-6.009Z"/></g><g id="emoji"><path d="M6,10c0,-4.418 3.582,-8 8,-8c1.317,0 2.683,0 4,0c4.418,0 8,3.582 8,8c0,2.08 0,4.125 0,5.519c0,1.134 -0.481,2.214 -1.324,2.973c-0.179,0.16 -0.36,0.324 -0.535,0.481c-0.735,0.661 -1.688,1.027 -2.676,1.027c-2.693,0 -8.237,0 -10.93,0c-0.988,0 -1.941,-0.366 -2.676,-1.027c-0.175,-0.157 -0.356,-0.321 -0.535,-0.481c-0.843,-0.759 -1.324,-1.839 -1.324,-2.973c0,-1.394 0,-3.439 0,-5.519Z" style="fill:#d9d9d9;"/><path d="M20,23l-2,0l-0.5,-0.5l-0.5,0.5l-2,0l-0.5,-0.5l-0.5,0.5l-2,0l0,-4l8,0l0,4Z" style="fill:#d9d9d9;"/><g><rect x="14" y="20" width="1" height="3" style="fill:#5b5b5b;"/><rect x="17" y="20" width="1" height="3" style="fill:#5b5b5b;"/></g><path d="M8,21c0,0 0,3.387 0,4.586c0,0.265 0.105,0.519 0.293,0.707c0.656,0.656 2.253,2.253 3.121,3.121c0.375,0.375 0.884,0.586 1.414,0.586c1.536,0 4.808,0 6.344,0c0.53,0 1.039,-0.211 1.414,-0.586c0.868,-0.868 2.465,-2.465 3.121,-3.121c0.188,-0.188 0.293,-0.442 0.293,-0.707c0,-1.199 0,-4.586 0,-4.586l-1,0l0,4l-4,2l-6,0l-4,-2l0,-4l-1,0Z" style="fill:#d9d9d9;"/><path d="M20,25l-2,0l-0.5,0.5l-0.5,-0.5l-2,0l-0.5,0.5l-0.5,-0.5l-2,0l0,3l8,0l0,-3Z" style="fill:#d9d9d9;"/><g><rect x="14" y="25" width="1" height="3" style="fill:#5b5b5b;"/><rect x="17" y="25" width="1" height="3" style="fill:#5b5b5b;"/></g><path d="M8,14c0,-1.657 1.343,-3 3,-3c0.339,0 0.678,0 1,0c1.105,0 2,0.895 2,2c0,0.322 0,0.661 0,1c0,1.657 -1.343,3 -3,3c-0.339,0 -0.678,0 -1,0c-1.105,0 -2,-0.895 -2,-2c0,-0.322 0,-0.661 0,-1Z"/><path d="M18,13c0,-1.105 0.895,-2 2,-2c0.322,0 0.661,0 1,0c1.657,0 3,1.343 3,3c0,0.339 0,0.678 0,1c0,1.105 -0.895,2 -2,2c-0.322,0 -0.661,0 -1,0c-1.657,0 -3,-1.343 -3,-3c0,-0.339 0,-0.678 0,-1Z"/><path d="M14,18l2,-2l2,2l0,1l-4,0l0,-1Z"/></g></g></svg>