<?xml version="1.0" encoding="UTF-8" standalone="no"?><!DOCTYPE svg PUBLIC "-//W3C//DTD SVG 1.1//EN" "http://www.w3.org/Graphics/SVG/1.1/DTD/svg11.dtd"><svg width="100%" height="100%" viewBox="0 0 32 32" version="1.1" xmlns="http://www.w3.org/2000/svg" xmlns:xlink="http://www.w3.org/1999/xlink" xml:space="preserve" xmlns:serif="http://www.serif.com/" style="fill-rule:evenodd;clip-rule:evenodd;stroke-linecap:round;stroke-linejoin:round;stroke-miterlimit:1.5;"><rect id="school" x="0" y="0" width="32" height="32" style="fill:none;"/><clipPath id="_clip1"><rect x="0" y="0" width="32" height="32"/></clipPath><g clip-path="url(#_clip1)"><g id="outline"><path d="M30,13l0,17l-28,0l0,-17c0,0 14,-4.667 14,-4.667l14,4.667Z" style="fill:none;stroke:#000;stroke-width:4px;"/></g><g id="emoji"><g><path id="_-Rectangle-" serif:id="(Rectangle)" d="M30,13l-4,-1l-20,0l-4,1l0,2l0.567,2l-0.567,3l0,2l1,1l26,0l1,-1l0,-2l-0.431,-2.565l0.431,-2.435l0,-2Z" style="fill:#8b6f5a;"/><path id="_-Rectangle-1" serif:id="(Rectangle)" d="M2,22l8,0l0,-8l12,0l0,8l8,0l0,2l-2,2l2,2l0,2l-10,0l-4,-2l-4,2l-10,0l0,-2l2,-2l-2,-2l0,-2Z" style="fill:#ae9583;"/><path d="M2,13l14,-4.667l14,4.667l-28,0Z" style="fill:#6d5646;"/></g><rect id="_-Rectangle-2" serif:id="(Rectangle)" x="2" y="24" width="8" height="4" style="fill:#352a1f;"/><rect id="_-Rectangle-3" serif:id="(Rectangle)" x="22" y="24" width="8" height="4" style="fill:#352a1f;"/><g><rect id="_-Rectangle-4" serif:id="(Rectangle)" x="25" y="15" width="2" height="5" style="fill:#352a1f;"/><rect id="_-Rectangle-5" serif:id="(Rectangle)" x="5" y="15" width="2" height="5" style="fill:#352a1f;"/><rect id="_-Rectangle-6" serif:id="(Rectangle)" x="29" y="15" width="1" height="5" style="fill:#352a1f;"/><rect id="_-Rectangle-7" serif:id="(Rectangle)" x="2" y="15" width="1" height="5" style="fill:#352a1f;"/><rect id="_-Rectangle-8" serif:id="(Rectangle)" x="12" y="17" width="8" height="3" style="fill:#fff;"/></g><rect id="_-Rectangle-9" serif:id="(Rectangle)" x="12" y="22" width="8" height="8" style="fill:#1a1a1a;"/></g></g></svg>