<?xml version="1.0" encoding="UTF-8" standalone="no"?><!DOCTYPE svg PUBLIC "-//W3C//DTD SVG 1.1//EN" "http://www.w3.org/Graphics/SVG/1.1/DTD/svg11.dtd"><svg width="100%" height="100%" viewBox="0 0 32 32" version="1.1" xmlns="http://www.w3.org/2000/svg" xmlns:xlink="http://www.w3.org/1999/xlink" xml:space="preserve" xmlns:serif="http://www.serif.com/" style="fill-rule:evenodd;clip-rule:evenodd;stroke-linecap:square;"><rect id="cloud" x="0" y="0" width="32" height="32" style="fill:none;"/><clipPath id="_clip1"><rect x="0" y="0" width="32" height="32"/></clipPath><g clip-path="url(#_clip1)"><g id="outline"><path d="M13.697,9.575c1.069,-2.12 3.268,-3.575 5.803,-3.575c3.587,0 6.5,2.913 6.5,6.5c0,0.571 -0.074,1.125 -0.213,1.653c2.416,0.577 4.213,2.752 4.213,5.347c0,0 0,0 0,0c0,3.038 -2.462,5.5 -5.5,5.5c-4.917,0 -12.083,0 -17,0c-3.038,0 -5.5,-2.462 -5.5,-5.5c0,-2.881 2.215,-5.245 5.033,-5.479c-0.023,-0.171 -0.033,-0.345 -0.033,-0.521c0,-2.484 2.016,-4.5 4.5,-4.5c0.797,0 1.546,0.208 2.197,0.575Z" style="stroke:#000;stroke-width:4px;"/></g><g id="emoji"><path d="M13.697,9.575c1.069,-2.12 3.268,-3.575 5.803,-3.575c3.587,0 6.5,2.913 6.5,6.5c0,0.571 -0.074,1.125 -0.213,1.653c2.416,0.577 4.213,2.752 4.213,5.347c0,0 0,0 0,0c0,3.038 -2.462,5.5 -5.5,5.5c-4.917,0 -12.083,0 -17,0c-3.038,0 -5.5,-2.462 -5.5,-5.5c0,-2.881 2.215,-5.245 5.033,-5.479c-0.023,-0.171 -0.033,-0.345 -0.033,-0.521c0,-2.484 2.016,-4.5 4.5,-4.5c0.797,0 1.546,0.208 2.197,0.575Z" style="fill:#e6e6e6;"/><path d="M13.696,9.572c1.072,-2.118 3.27,-3.572 5.804,-3.572c3.587,0 6.5,2.913 6.5,6.5c0,0.571 -0.074,1.124 -0.212,1.652c2.416,0.579 4.212,2.754 4.212,5.348c0,0 0,0 0,0c0,3.038 -2.462,5.5 -5.5,5.5c-4.917,0 -12.083,0 -17,0c-3.038,0 -5.5,-2.462 -5.5,-5.5c0,0 0,0 0,0c0,-2.879 2.212,-5.242 5.03,-5.48c-0.02,-0.171 -0.03,-0.344 -0.03,-0.52c0,-2.484 2.016,-4.5 4.5,-4.5c0.797,0 1.546,0.208 2.196,0.572Z" style="fill:none;"/><clipPath id="_clip2"><path d="M13.696,9.572c1.072,-2.118 3.27,-3.572 5.804,-3.572c3.587,0 6.5,2.913 6.5,6.5c0,0.571 -0.074,1.124 -0.212,1.652c2.416,0.579 4.212,2.754 4.212,5.348c0,0 0,0 0,0c0,3.038 -2.462,5.5 -5.5,5.5c-4.917,0 -12.083,0 -17,0c-3.038,0 -5.5,-2.462 -5.5,-5.5c0,0 0,0 0,0c0,-2.879 2.212,-5.242 5.03,-5.48c-0.02,-0.171 -0.03,-0.344 -0.03,-0.52c0,-2.484 2.016,-4.5 4.5,-4.5c0.797,0 1.546,0.208 2.196,0.572Z"/></clipPath><g clip-path="url(#_clip2)"><path d="M27,10c0,0 -0.292,-0.146 -0.764,-0.382c-1.55,-0.775 -3.391,-0.692 -4.865,0.219c-1.474,0.911 -2.371,2.52 -2.371,4.253c0,1.127 0,1.91 0,1.91c0,0 -1.14,0 -2.5,0c-2.485,0 -4.5,2.015 -4.5,4.5c0,0 0,0 0,0c0,1.193 0.474,2.338 1.318,3.182c0.844,0.844 1.989,1.318 3.182,1.318c6.436,0 17.5,0 17.5,0l0,-15l-7,0Z" style="fill:#bfbfbf;"/></g><path d="M19.584,6.001l0.084,0.001l0.083,0.003l0.083,0.003l0.083,0.005l0.083,0.006l0.082,0.007l0.082,0.008l0.082,0.008l0.081,0.01l0.082,0.011l0.08,0.012l0.081,0.013l0.08,0.014l0.08,0.014l0.079,0.016l0.079,0.017l0.079,0.018l0.079,0.018l0.078,0.02l0.077,0.02l0.078,0.022l0.077,0.022l0.076,0.023l0.076,0.025l0.076,0.025l0.075,0.026l0.075,0.027l0.074,0.027l0.074,0.029l0.074,0.03l0.073,0.03l0.073,0.031l0.072,0.033l0.072,0.033l0.071,0.033l0.071,0.035l0.07,0.036l0.07,0.036l0.069,0.037l0.069,0.038l0.068,0.039l0.068,0.039l0.067,0.041l0.067,0.041l0.066,0.042l0.066,0.042l0.065,0.044l0.065,0.044l0.064,0.045l0.063,0.046l0.063,0.046l0.062,0.047l0.062,0.048l0.061,0.049l0.061,0.049l0.06,0.05l0.059,0.051l0.058,0.051l0.058,0.052l0.058,0.053l0.057,0.054l0.056,0.054l0.055,0.055l0.055,0.055l0.054,0.056l0.054,0.057l0.053,0.058l0.052,0.058l0.051,0.058l0.051,0.059l0.05,0.06l0.049,0.061l0.049,0.061l0.048,0.062l0.047,0.062l0.046,0.063l0.046,0.063l0.045,0.064l0.044,0.065l0.044,0.065l0.042,0.066l0.042,0.066l0.041,0.067l0.041,0.067l0.039,0.068l0.039,0.068l0.038,0.069l0.037,0.069l0.036,0.07l0.036,0.07l0.035,0.071l0.033,0.071l0.033,0.072l0.033,0.072l0.031,0.073l0.03,0.073l0.03,0.074l0.029,0.074l0.027,0.074l0.027,0.075l0.026,0.075l0.025,0.076l0.025,0.076l0.023,0.076l0.022,0.077l0.022,0.078l0.02,0.077l0.02,0.078l0.018,0.079l0.018,0.079l0.017,0.079l0.016,0.079l0.014,0.08l0.014,0.08l0.013,0.081l0.012,0.08l0.011,0.082l0.01,0.081l0.008,0.082l0.008,0.082l0.007,0.082l0.006,0.083l0.005,0.083l0.003,0.083l0.003,0.083l0.001,0.084l0.001,0.084l-0.001,0.107l-0.002,0.106l-0.005,0.106l-0.006,0.106l-0.007,0.105l-0.01,0.104l-0.011,0.104l-0.012,0.104l-0.014,0.103l-0.016,0.103l-0.018,0.102l-0.019,0.101l-0.02,0.101l-0.022,0.101l-0.024,0.099l-0.025,0.1l0.113,0.028l0.112,0.031l0.11,0.033l0.11,0.035l0.109,0.037l0.108,0.04l0.107,0.042l0.106,0.044l0.104,0.046l0.104,0.048l0.102,0.05l0.101,0.052l0.1,0.054l0.098,0.057l0.097,0.058l0.096,0.06l0.095,0.062l0.093,0.064l0.092,0.066l0.091,0.068l0.088,0.069l0.088,0.071l0.086,0.073l0.084,0.075l0.083,0.076l0.082,0.078l0.079,0.08l0.079,0.081l0.076,0.083l0.075,0.084l0.073,0.086l0.071,0.087l0.07,0.089l0.067,0.091l0.066,0.091l0.064,0.094l0.062,0.094l0.061,0.096l0.058,0.097l0.056,0.099l0.055,0.099l0.052,0.101l0.05,0.102l0.049,0.104l0.046,0.104l0.044,0.106l0.042,0.107l0.04,0.107l0.037,0.109l0.036,0.11l0.033,0.111l0.03,0.112l0.029,0.113l0.026,0.113l0.024,0.115l0.021,0.115l0.019,0.116l0.017,0.117l0.014,0.118l0.011,0.119l0.009,0.119l0.007,0.12l0.004,0.121l0.001,0.121l0,0.071l-0.002,0.071l-0.002,0.071l-0.003,0.07l-0.004,0.07l-0.005,0.07l-0.006,0.07l-0.006,0.069l-0.008,0.07l-0.008,0.068l-0.009,0.069l-0.01,0.069l-0.011,0.068l-0.012,0.068l-0.012,0.067l-0.014,0.067l-0.014,0.067l-0.015,0.067l-0.016,0.066l-0.016,0.067l-0.018,0.065l-0.018,0.066l-0.019,0.065l-0.019,0.065l-0.021,0.064l-0.021,0.064l-0.022,0.064l-0.023,0.063l-0.023,0.063l-0.024,0.063l-0.025,0.062l-0.026,0.062l-0.027,0.061l-0.027,0.061l-0.028,0.061l-0.028,0.06l-0.03,0.06l-0.03,0.06l-0.03,0.059l-0.032,0.059l-0.032,0.058l-0.033,0.058l-0.033,0.057l-0.034,0.057l-0.035,0.056l-0.035,0.056l-0.037,0.056l-0.036,0.055l-0.038,0.055l-0.038,0.054l-0.038,0.054l-0.04,0.053l-0.04,0.052l-0.04,0.053l-0.041,0.051l-0.042,0.052l-0.042,0.05l-0.043,0.05l-0.044,0.05l-0.044,0.049l-0.044,0.049l-0.046,0.048l-0.046,0.047l-0.046,0.047l-0.047,0.046l-0.047,0.046l-0.048,0.046l-0.049,0.044l-0.049,0.044l-0.05,0.044l-0.05,0.043l-0.05,0.042l-0.052,0.042l-0.051,0.041l-0.053,0.04l-0.052,0.04l-0.053,0.04l-0.054,0.038l-0.054,0.038l-0.055,0.038l-0.055,0.036l-0.056,0.037l-0.056,0.035l-0.056,0.035l-0.057,0.034l-0.057,0.033l-0.058,0.033l-0.058,0.032l-0.059,0.032l-0.059,0.03l-0.06,0.03l-0.06,0.03l-0.06,0.028l-0.061,0.028l-0.061,0.027l-0.061,0.027l-0.062,0.026l-0.062,0.025l-0.063,0.024l-0.063,0.023l-0.063,0.023l-0.064,0.022l-0.064,0.021l-0.064,0.021l-0.065,0.019l-0.065,0.019l-0.066,0.018l-0.065,0.018l-0.067,0.016l-0.066,0.016l-0.067,0.015l-0.067,0.014l-0.067,0.014l-0.067,0.012l-0.068,0.012l-0.068,0.011l-0.069,0.01l-0.068,0.009l-0.069,0.008l-0.07,0.008l-0.069,0.006l-0.07,0.006l-0.07,0.005l-0.07,0.004l-0.07,0.003l-0.071,0.002l-0.071,0.002l-0.071,0l-17,0l-0.071,0l-0.071,-0.002l-0.071,-0.002l-0.07,-0.003l-0.07,-0.004l-0.07,-0.005l-0.07,-0.006l-0.069,-0.006l-0.07,-0.008l-0.069,-0.008l-0.068,-0.009l-0.069,-0.01l-0.068,-0.011l-0.068,-0.012l-0.067,-0.012l-0.067,-0.014l-0.067,-0.014l-0.067,-0.015l-0.066,-0.016l-0.067,-0.016l-0.065,-0.018l-0.066,-0.018l-0.065,-0.019l-0.065,-0.019l-0.064,-0.021l-0.064,-0.021l-0.064,-0.022l-0.063,-0.023l-0.063,-0.023l-0.063,-0.024l-0.062,-0.025l-0.062,-0.026l-0.061,-0.027l-0.061,-0.027l-0.061,-0.028l-0.06,-0.028l-0.06,-0.03l-0.06,-0.03l-0.059,-0.03l-0.059,-0.032l-0.058,-0.032l-0.058,-0.033l-0.057,-0.033l-0.057,-0.034l-0.056,-0.035l-0.056,-0.035l-0.056,-0.037l-0.055,-0.036l-0.055,-0.038l-0.054,-0.038l-0.054,-0.038l-0.053,-0.04l-0.052,-0.04l-0.053,-0.04l-0.051,-0.041l-0.052,-0.042l-0.05,-0.042l-0.05,-0.043l-0.05,-0.044l-0.049,-0.044l-0.049,-0.044l-0.048,-0.046l-0.047,-0.046l-0.047,-0.046l-0.046,-0.047l-0.046,-0.047l-0.046,-0.048l-0.044,-0.049l-0.044,-0.049l-0.044,-0.05l-0.043,-0.05l-0.042,-0.05l-0.042,-0.052l-0.041,-0.051l-0.04,-0.053l-0.04,-0.052l-0.04,-0.053l-0.038,-0.054l-0.038,-0.054l-0.038,-0.055l-0.036,-0.055l-0.037,-0.056l-0.035,-0.056l-0.035,-0.056l-0.034,-0.057l-0.033,-0.057l-0.033,-0.058l-0.032,-0.058l-0.032,-0.059l-0.03,-0.059l-0.03,-0.06l-0.03,-0.06l-0.028,-0.06l-0.028,-0.061l-0.027,-0.061l-0.027,-0.061l-0.026,-0.062l-0.025,-0.062l-0.024,-0.063l-0.023,-0.063l-0.023,-0.063l-0.022,-0.064l-0.021,-0.064l-0.021,-0.064l-0.019,-0.065l-0.019,-0.065l-0.018,-0.066l-0.018,-0.065l-0.016,-0.067l-0.016,-0.066l-0.015,-0.067l-0.014,-0.067l-0.014,-0.067l-0.012,-0.067l-0.012,-0.068l-0.011,-0.068l-0.01,-0.069l-0.009,-0.069l-0.008,-0.068l-0.008,-0.07l-0.006,-0.069l-0.006,-0.07l-0.005,-0.07l-0.004,-0.07l-0.003,-0.07l-0.002,-0.071l-0.002,-0.071l0,-0.071l0,0l0,-0.067l0.002,-0.068l0.002,-0.067l0.002,-0.066l0.004,-0.067l0.004,-0.066l0.006,-0.066l0.006,-0.066l0.006,-0.066l0.008,-0.066l0.008,-0.065l0.009,-0.065l0.01,-0.065l0.01,-0.064l0.012,-0.064l0.012,-0.064l0.012,-0.064l0.014,-0.064l0.014,-0.063l0.015,-0.063l0.016,-0.062l0.016,-0.063l0.017,-0.062l0.018,-0.061l0.018,-0.062l0.019,-0.061l0.02,-0.061l0.021,-0.06l0.043,-0.121l0.046,-0.118l0.048,-0.118l0.051,-0.116l0.054,-0.115l0.056,-0.113l0.059,-0.112l0.061,-0.11l0.064,-0.108l0.066,-0.107l0.068,-0.106l0.071,-0.103l0.073,-0.102l0.075,-0.101l0.077,-0.098l0.08,-0.097l0.082,-0.094l0.083,-0.093l0.086,-0.091l0.088,-0.089l0.09,-0.087l0.092,-0.085l0.094,-0.083l0.095,-0.081l0.098,-0.078l0.099,-0.077l0.101,-0.074l0.103,-0.072l0.105,-0.069l0.106,-0.067l0.108,-0.065l0.109,-0.063l0.111,-0.06l0.112,-0.057l0.114,-0.055l0.116,-0.053l0.116,-0.049l0.118,-0.048l0.12,-0.044l0.121,-0.042l0.06,-0.02l0.062,-0.019l0.061,-0.018l0.062,-0.018l0.062,-0.017l0.062,-0.017l0.063,-0.015l0.063,-0.015l0.063,-0.015l0.063,-0.013l0.064,-0.013l0.064,-0.012l0.064,-0.011l0.065,-0.011l0.064,-0.01l0.065,-0.009l0.066,-0.008l0.065,-0.007l0.066,-0.007l0.066,-0.006l-0.007,-0.064l-0.006,-0.065l-0.005,-0.064l-0.004,-0.065l-0.004,-0.065l-0.002,-0.066l-0.002,-0.065l0,-0.066l0.001,-0.116l0.005,-0.115l0.007,-0.115l0.01,-0.114l0.013,-0.113l0.016,-0.112l0.018,-0.111l0.021,-0.11l0.024,-0.11l0.027,-0.108l0.029,-0.107l0.031,-0.107l0.035,-0.105l0.036,-0.104l0.039,-0.102l0.042,-0.102l0.044,-0.1l0.046,-0.099l0.049,-0.098l0.05,-0.096l0.054,-0.095l0.055,-0.094l0.057,-0.092l0.06,-0.09l0.062,-0.089l0.063,-0.088l0.066,-0.086l0.068,-0.084l0.07,-0.082l0.072,-0.081l0.073,-0.079l0.076,-0.077l0.077,-0.076l0.079,-0.073l0.081,-0.072l0.082,-0.07l0.084,-0.068l0.086,-0.066l0.088,-0.063l0.089,-0.062l0.09,-0.06l0.092,-0.057l0.094,-0.055l0.095,-0.054l0.096,-0.05l0.098,-0.049l0.099,-0.046l0.1,-0.044l0.102,-0.042l0.102,-0.039l0.104,-0.036l0.105,-0.035l0.107,-0.031l0.107,-0.029l0.108,-0.027l0.11,-0.024l0.11,-0.021l0.111,-0.018l0.112,-0.016l0.113,-0.013l0.114,-0.01l0.115,-0.007l0.115,-0.005l0.116,-0.001l0.075,0.001l0.074,0.001l0.074,0.003l0.074,0.005l0.073,0.005l0.073,0.007l0.073,0.007l0.072,0.009l0.072,0.01l0.072,0.011l0.071,0.013l0.071,0.013l0.07,0.014l0.07,0.016l0.07,0.017l0.069,0.017l0.069,0.019l0.069,0.02l0.068,0.021l0.067,0.022l0.067,0.023l0.066,0.024l0.066,0.025l0.066,0.026l0.065,0.027l0.065,0.028l0.064,0.029l0.063,0.03l0.063,0.031l0.062,0.032l0.062,0.032l0.061,0.034l0.051,-0.099l0.053,-0.097l0.054,-0.097l0.056,-0.096l0.058,-0.095l0.059,-0.093l0.06,-0.093l0.062,-0.092l0.064,-0.09l0.065,-0.089l0.067,-0.088l0.068,-0.087l0.069,-0.086l0.071,-0.084l0.072,-0.084l0.074,-0.082l0.075,-0.08l0.076,-0.08l0.078,-0.078l0.079,-0.077l0.08,-0.076l0.081,-0.074l0.083,-0.073l0.084,-0.071l0.085,-0.07l0.087,-0.069l0.087,-0.067l0.089,-0.066l0.09,-0.064l0.091,-0.062l0.092,-0.062l0.094,-0.059l0.094,-0.058l0.095,-0.057l0.097,-0.055l0.097,-0.053l0.098,-0.052l0.1,-0.05l0.1,-0.049l0.101,-0.046l0.103,-0.045l0.103,-0.044l0.104,-0.041l0.105,-0.04l0.105,-0.038l0.107,-0.037l0.107,-0.034l0.109,-0.033l0.109,-0.031l0.109,-0.029l0.111,-0.027l0.111,-0.025l0.112,-0.023l0.113,-0.022l0.113,-0.019l0.114,-0.017l0.114,-0.016l0.116,-0.013l0.116,-0.012l0.116,-0.009l0.117,-0.007l0.117,-0.006l0.118,-0.003l0.119,-0.001l0.084,0.001Zm-0.185,1l-0.1,0.003l-0.099,0.004l-0.1,0.006l-0.098,0.008l-0.098,0.01l-0.098,0.011l-0.097,0.013l-0.096,0.015l-0.096,0.017l-0.095,0.018l-0.095,0.019l-0.093,0.022l-0.094,0.023l-0.093,0.024l-0.092,0.026l-0.091,0.028l-0.091,0.029l-0.09,0.031l-0.089,0.032l-0.089,0.033l-0.088,0.036l-0.087,0.036l-0.086,0.038l-0.086,0.04l-0.085,0.041l-0.084,0.042l-0.083,0.044l-0.083,0.045l-0.081,0.046l-0.081,0.048l-0.08,0.05l-0.078,0.05l-0.078,0.052l-0.078,0.053l-0.076,0.054l-0.075,0.056l-0.074,0.057l-0.073,0.058l-0.072,0.059l-0.072,0.061l-0.07,0.061l-0.069,0.063l-0.068,0.064l-0.067,0.065l-0.065,0.067l-0.065,0.067l-0.064,0.068l-0.062,0.07l-0.061,0.071l-0.06,0.071l-0.059,0.073l-0.058,0.073l-0.056,0.075l-0.055,0.076l-0.054,0.076l-0.053,0.077l-0.051,0.079l-0.05,0.079l-0.048,0.08l-0.048,0.081l-0.046,0.082l-0.044,0.083l-0.519,1.003l-0.954,-0.525l-0.048,-0.025l-0.048,-0.025l-0.049,-0.024l-0.049,-0.023l-0.05,-0.023l-0.05,-0.022l-0.05,-0.02l-0.051,-0.021l-0.052,-0.019l-0.051,-0.019l-0.052,-0.018l-0.052,-0.017l-0.053,-0.016l-0.053,-0.015l-0.054,-0.015l-0.053,-0.014l-0.054,-0.013l-0.055,-0.012l-0.055,-0.011l-0.055,-0.01l-0.055,-0.01l-0.056,-0.008l-0.056,-0.008l-0.056,-0.007l-0.056,-0.006l-0.057,-0.005l-0.057,-0.004l-0.058,-0.004l-0.058,-0.002l-0.058,-0.001l-0.056,-0.001l-0.093,0.001l-0.09,0.004l-0.089,0.005l-0.089,0.008l-0.088,0.01l-0.087,0.012l-0.086,0.015l-0.086,0.016l-0.085,0.019l-0.084,0.02l-0.083,0.023l-0.082,0.024l-0.082,0.027l-0.081,0.028l-0.079,0.031l-0.079,0.032l-0.078,0.034l-0.077,0.036l-0.076,0.038l-0.075,0.039l-0.073,0.041l-0.073,0.043l-0.072,0.045l-0.07,0.047l-0.07,0.048l-0.068,0.049l-0.067,0.052l-0.065,0.052l-0.064,0.055l-0.063,0.056l-0.062,0.057l-0.06,0.059l-0.059,0.06l-0.057,0.062l-0.056,0.063l-0.055,0.064l-0.052,0.065l-0.052,0.067l-0.049,0.068l-0.048,0.07l-0.047,0.07l-0.045,0.072l-0.043,0.073l-0.041,0.073l-0.039,0.075l-0.038,0.076l-0.036,0.077l-0.034,0.078l-0.032,0.079l-0.031,0.079l-0.028,0.081l-0.027,0.082l-0.024,0.082l-0.023,0.083l-0.02,0.084l-0.019,0.085l-0.016,0.086l-0.015,0.086l-0.012,0.087l-0.01,0.088l-0.008,0.089l-0.005,0.089l-0.004,0.09l-0.001,0.094l0,0.048l0.002,0.052l0.001,0.051l0.003,0.05l0.003,0.051l0.004,0.05l0.005,0.05l0.115,1.069l-1.073,0.097l-0.054,0.006l-0.053,0.006l-0.054,0.007l-0.053,0.007l-0.053,0.008l-0.052,0.009l-0.053,0.009l-0.052,0.01l-0.052,0.01l-0.052,0.011l-0.052,0.012l-0.051,0.012l-0.051,0.013l-0.051,0.013l-0.051,0.014l-0.05,0.015l-0.051,0.015l-0.05,0.016l-0.046,0.015l-0.102,0.035l-0.097,0.036l-0.097,0.039l-0.095,0.041l-0.095,0.042l-0.093,0.045l-0.092,0.047l-0.09,0.049l-0.09,0.052l-0.088,0.053l-0.087,0.055l-0.085,0.057l-0.084,0.058l-0.083,0.061l-0.082,0.063l-0.079,0.064l-0.079,0.066l-0.077,0.068l-0.075,0.07l-0.074,0.071l-0.072,0.073l-0.07,0.074l-0.069,0.076l-0.067,0.078l-0.065,0.079l-0.063,0.081l-0.062,0.082l-0.059,0.083l-0.058,0.085l-0.056,0.086l-0.054,0.088l-0.052,0.089l-0.05,0.09l-0.048,0.091l-0.046,0.093l-0.044,0.093l-0.042,0.095l-0.039,0.096l-0.038,0.097l-0.036,0.101l-0.016,0.047l-0.016,0.05l-0.016,0.05l-0.015,0.05l-0.014,0.05l-0.014,0.051l-0.014,0.051l-0.012,0.051l-0.013,0.051l-0.011,0.052l-0.011,0.052l-0.011,0.052l-0.009,0.052l-0.01,0.053l-0.008,0.052l-0.008,0.053l-0.008,0.054l-0.006,0.053l-0.007,0.054l-0.005,0.053l-0.005,0.054l-0.004,0.055l-0.004,0.054l-0.003,0.055l-0.002,0.054l-0.002,0.055l-0.001,0.056l0,0.055l0,0.058l0.001,0.059l0.002,0.058l0.003,0.057l0.003,0.058l0.004,0.057l0.005,0.057l0.005,0.057l0.006,0.057l0.007,0.056l0.008,0.057l0.008,0.056l0.009,0.055l0.009,0.056l0.011,0.055l0.01,0.055l0.012,0.055l0.012,0.054l0.013,0.054l0.014,0.054l0.014,0.054l0.015,0.054l0.015,0.053l0.016,0.053l0.017,0.052l0.017,0.052l0.018,0.053l0.019,0.051l0.019,0.052l0.02,0.051l0.02,0.051l0.021,0.05l0.022,0.051l0.022,0.049l0.023,0.05l0.023,0.049l0.024,0.049l0.025,0.049l0.025,0.048l0.026,0.048l0.026,0.048l0.027,0.047l0.027,0.047l0.028,0.047l0.028,0.046l0.029,0.046l0.03,0.045l0.03,0.045l0.031,0.045l0.031,0.044l0.031,0.044l0.033,0.044l0.032,0.043l0.033,0.043l0.034,0.042l0.034,0.042l0.035,0.042l0.035,0.041l0.036,0.04l0.036,0.04l0.036,0.04l0.037,0.04l0.038,0.038l0.038,0.039l0.038,0.038l0.039,0.038l0.04,0.037l0.04,0.036l0.04,0.036l0.04,0.036l0.042,0.035l0.041,0.035l0.042,0.034l0.042,0.034l0.043,0.033l0.043,0.032l0.044,0.033l0.044,0.031l0.044,0.031l0.045,0.031l0.045,0.03l0.045,0.03l0.046,0.029l0.046,0.028l0.047,0.028l0.047,0.027l0.047,0.027l0.048,0.026l0.048,0.026l0.048,0.025l0.049,0.025l0.049,0.024l0.049,0.023l0.05,0.023l0.049,0.022l0.051,0.022l0.05,0.021l0.051,0.02l0.051,0.02l0.052,0.019l0.052,0.019l0.052,0.018l0.052,0.017l0.052,0.017l0.053,0.016l0.054,0.015l0.053,0.015l0.054,0.014l0.054,0.014l0.054,0.013l0.054,0.012l0.055,0.012l0.055,0.01l0.055,0.011l0.056,0.009l0.055,0.009l0.056,0.008l0.057,0.008l0.056,0.007l0.057,0.006l0.057,0.005l0.057,0.005l0.057,0.004l0.058,0.003l0.057,0.003l0.058,0.002l0.059,0.001l0.061,0l16.994,0l0.061,0l0.059,-0.001l0.058,-0.002l0.057,-0.003l0.058,-0.003l0.057,-0.004l0.057,-0.005l0.057,-0.005l0.057,-0.006l0.056,-0.007l0.057,-0.008l0.056,-0.008l0.055,-0.009l0.056,-0.009l0.055,-0.011l0.055,-0.01l0.055,-0.012l0.054,-0.012l0.054,-0.013l0.054,-0.014l0.054,-0.014l0.053,-0.015l0.054,-0.015l0.053,-0.016l0.052,-0.017l0.052,-0.017l0.052,-0.018l0.052,-0.019l0.052,-0.019l0.051,-0.02l0.051,-0.02l0.05,-0.021l0.051,-0.022l0.049,-0.022l0.05,-0.023l0.049,-0.023l0.049,-0.024l0.049,-0.025l0.048,-0.025l0.048,-0.026l0.048,-0.026l0.047,-0.027l0.047,-0.027l0.047,-0.028l0.046,-0.028l0.046,-0.029l0.045,-0.03l0.045,-0.03l0.045,-0.031l0.044,-0.031l0.044,-0.031l0.044,-0.033l0.043,-0.032l0.043,-0.033l0.042,-0.034l0.042,-0.034l0.041,-0.035l0.042,-0.035l0.04,-0.036l0.04,-0.036l0.04,-0.036l0.04,-0.037l0.038,-0.038l0.039,-0.038l0.038,-0.039l0.038,-0.038l0.037,-0.04l0.036,-0.04l0.036,-0.04l0.036,-0.04l0.035,-0.041l0.035,-0.042l0.034,-0.042l0.034,-0.042l0.033,-0.043l0.032,-0.043l0.033,-0.044l0.031,-0.044l0.031,-0.044l0.031,-0.045l0.03,-0.045l0.03,-0.045l0.029,-0.046l0.028,-0.046l0.028,-0.047l0.027,-0.047l0.027,-0.047l0.026,-0.048l0.026,-0.048l0.025,-0.048l0.025,-0.049l0.024,-0.049l0.023,-0.049l0.023,-0.05l0.022,-0.049l0.022,-0.051l0.021,-0.05l0.02,-0.051l0.02,-0.051l0.019,-0.052l0.019,-0.052l0.018,-0.052l0.017,-0.052l0.017,-0.052l0.016,-0.053l0.015,-0.054l0.015,-0.053l0.014,-0.054l0.014,-0.054l0.013,-0.054l0.012,-0.054l0.012,-0.055l0.01,-0.055l0.011,-0.055l0.009,-0.056l0.009,-0.055l0.008,-0.056l0.008,-0.057l0.007,-0.056l0.006,-0.057l0.005,-0.057l0.005,-0.057l0.004,-0.057l0.003,-0.058l0.003,-0.057l0.002,-0.058l0.001,-0.059l0,-0.056l-0.001,-0.102l-0.003,-0.099l-0.006,-0.098l-0.007,-0.098l-0.01,-0.097l-0.011,-0.096l-0.014,-0.096l-0.015,-0.095l-0.018,-0.094l-0.019,-0.094l-0.021,-0.093l-0.024,-0.092l-0.025,-0.091l-0.027,-0.091l-0.029,-0.09l-0.03,-0.088l-0.033,-0.089l-0.034,-0.087l-0.036,-0.086l-0.038,-0.085l-0.039,-0.085l-0.041,-0.083l-0.043,-0.083l-0.045,-0.081l-0.046,-0.081l-0.047,-0.08l-0.05,-0.078l-0.051,-0.077l-0.052,-0.077l-0.054,-0.075l-0.055,-0.074l-0.057,-0.072l-0.059,-0.072l-0.06,-0.07l-0.061,-0.07l-0.062,-0.067l-0.064,-0.067l-0.066,-0.065l-0.066,-0.064l-0.068,-0.063l-0.07,-0.061l-0.07,-0.06l-0.072,-0.058l-0.073,-0.057l-0.074,-0.055l-0.075,-0.054l-0.076,-0.052l-0.078,-0.051l-0.078,-0.049l-0.08,-0.048l-0.08,-0.046l-0.082,-0.044l-0.082,-0.043l-0.084,-0.041l-0.084,-0.039l-0.086,-0.038l-0.086,-0.036l-0.087,-0.034l-0.089,-0.033l-0.089,-0.03l-0.089,-0.029l-0.091,-0.027l-0.091,-0.025l-1.075,-0.27l0.27,-1.063l0.02,-0.084l0.019,-0.085l0.017,-0.085l0.016,-0.086l0.015,-0.087l0.013,-0.086l0.012,-0.088l0.011,-0.087l0.009,-0.088l0.008,-0.089l0.006,-0.089l0.005,-0.089l0.004,-0.09l0.002,-0.09l0.001,-0.092l0,-0.07l-0.002,-0.071l-0.002,-0.071l-0.003,-0.071l-0.004,-0.07l-0.005,-0.07l-0.006,-0.07l-0.006,-0.069l-0.008,-0.069l-0.008,-0.069l-0.009,-0.069l-0.01,-0.068l-0.011,-0.068l-0.012,-0.068l-0.013,-0.067l-0.013,-0.068l-0.014,-0.066l-0.015,-0.067l-0.016,-0.066l-0.016,-0.066l-0.018,-0.066l-0.018,-0.065l-0.019,-0.065l-0.019,-0.065l-0.021,-0.064l-0.021,-0.064l-0.022,-0.064l-0.023,-0.063l-0.023,-0.063l-0.024,-0.062l-0.025,-0.063l-0.026,-0.061l-0.027,-0.062l-0.027,-0.061l-0.028,-0.06l-0.028,-0.061l-0.029,-0.06l-0.03,-0.059l-0.031,-0.059l-0.032,-0.059l-0.032,-0.058l-0.033,-0.058l-0.033,-0.057l-0.034,-0.057l-0.035,-0.056l-0.035,-0.056l-0.037,-0.056l-0.036,-0.055l-0.038,-0.055l-0.038,-0.054l-0.038,-0.054l-0.04,-0.053l-0.04,-0.053l-0.04,-0.052l-0.041,-0.052l-0.042,-0.051l-0.043,-0.051l-0.043,-0.05l-0.043,-0.05l-0.044,-0.049l-0.045,-0.048l-0.045,-0.049l-0.046,-0.047l-0.047,-0.047l-0.047,-0.047l-0.047,-0.046l-0.049,-0.045l-0.048,-0.045l-0.049,-0.044l-0.05,-0.043l-0.05,-0.043l-0.051,-0.043l-0.051,-0.042l-0.052,-0.041l-0.052,-0.04l-0.053,-0.04l-0.053,-0.04l-0.054,-0.038l-0.054,-0.038l-0.055,-0.038l-0.055,-0.036l-0.056,-0.037l-0.056,-0.035l-0.056,-0.035l-0.057,-0.034l-0.057,-0.033l-0.058,-0.033l-0.058,-0.032l-0.059,-0.032l-0.059,-0.031l-0.059,-0.03l-0.06,-0.029l-0.061,-0.028l-0.06,-0.028l-0.061,-0.027l-0.062,-0.027l-0.062,-0.026l-0.062,-0.025l-0.062,-0.024l-0.063,-0.023l-0.063,-0.023l-0.064,-0.022l-0.064,-0.021l-0.064,-0.021l-0.065,-0.019l-0.065,-0.019l-0.065,-0.018l-0.066,-0.018l-0.066,-0.016l-0.066,-0.016l-0.067,-0.015l-0.066,-0.014l-0.068,-0.014l-0.067,-0.012l-0.068,-0.012l-0.068,-0.011l-0.068,-0.01l-0.069,-0.009l-0.069,-0.008l-0.069,-0.008l-0.069,-0.006l-0.07,-0.006l-0.07,-0.005l-0.07,-0.004l-0.071,-0.003l-0.071,-0.002l-0.071,-0.002l-0.07,0l-0.102,0.001Z" style="fill:#e6e6e6;"/></g></g></svg>