<?xml version="1.0" encoding="UTF-8" standalone="no"?><!DOCTYPE svg PUBLIC "-//W3C//DTD SVG 1.1//EN" "http://www.w3.org/Graphics/SVG/1.1/DTD/svg11.dtd"><svg width="100%" height="100%" viewBox="0 0 32 32" version="1.1" xmlns="http://www.w3.org/2000/svg" xmlns:xlink="http://www.w3.org/1999/xlink" xml:space="preserve" xmlns:serif="http://www.serif.com/" style="fill-rule:evenodd;clip-rule:evenodd;stroke-linejoin:round;stroke-miterlimit:1.41421;"><rect id="sun" x="0" y="0" width="32" height="32" style="fill:none;"/><clipPath id="_clip1"><rect x="0" y="0" width="32" height="32"/></clipPath><g clip-path="url(#_clip1)"><g id="outline"><path d="M20.929,4.101l6.97,0l0,6.97l4.929,4.929l-4.929,4.929l0,6.97l-6.97,0l-4.929,4.929l-4.929,-4.929l-6.97,0l0,-6.97l-4.929,-4.929l4.929,-4.929l0,-6.97l6.97,0l4.929,-4.929l4.929,4.929Z"/></g><g id="emoji"><circle cx="16" cy="16" r="9" style="fill:#e48a1b;"/><circle cx="16" cy="16" r="6" style="fill:#ffc144;"/><path d="M13,5l3,-3l3,3l-6,0Z" style="fill:#e48a1b;"/><path d="M13,27l3,3l3,-3l-6,0Z" style="fill:#e48a1b;"/><path d="M27,13l3,3l-3,3l0,-6Z" style="fill:#e48a1b;"/><path d="M5,13l-3,3l3,3l0,-6Z" style="fill:#e48a1b;"/><path d="M21.657,6.101l4.242,0l0,4.242l-4.242,-4.242Z" style="fill:#e48a1b;"/><path d="M6.101,21.657l0,4.242l4.242,0l-4.242,-4.242Z" style="fill:#e48a1b;"/><path d="M25.899,21.657l0,4.242l-4.242,0l4.242,-4.242Z" style="fill:#e48a1b;"/><path d="M10.343,6.101l-4.242,0l0,4.242l4.242,-4.242Z" style="fill:#e48a1b;"/></g></g></svg>