<?xml version="1.0" encoding="UTF-8" standalone="no"?>
<!DOCTYPE svg PUBLIC "-//W3C//DTD SVG 1.1//EN" "http://www.w3.org/Graphics/SVG/1.1/DTD/svg11.dtd">
<svg width="100%" height="100%" viewBox="0 0 32 32" version="1.1" xmlns="http://www.w3.org/2000/svg" xmlns:xlink="http://www.w3.org/1999/xlink" xml:space="preserve" xmlns:serif="http://www.serif.com/" style="fill-rule:evenodd;clip-rule:evenodd;stroke-linecap:round;stroke-linejoin:round;stroke-miterlimit:1.5;">
    <rect id="sun_face" x="0" y="0" width="32" height="32" style="fill:none;"/>
    <g id="outline">
        <circle cx="16" cy="16" r="16"/>
    </g>
    <g id="emoji">
        <circle cx="16" cy="16" r="14" style="fill:#ffc144;"/>
        <path d="M14,19c0,0 0.128,0.128 0.293,0.293c0.453,0.453 1.067,0.707 1.707,0.707c0,0 0,0 0,0c0.64,0 1.254,-0.254 1.707,-0.707c0.165,-0.165 0.293,-0.293 0.293,-0.293" style="fill:none;stroke:#d97408;stroke-width:2px;"/>
        <path d="M11,23c0,0 0,0 0,0c1.281,1.281 3.017,2 4.828,2c0.115,0 0.229,0 0.344,0c1.811,0 3.547,-0.719 4.828,-2c0,0 0,0 0,0" style="fill:none;stroke:#d97408;stroke-width:2px;stroke-linejoin:miter;"/>
        <g>
            <path d="M6.029,13l1.971,-1l4,0l1,1l0,0.5c0,1.933 -1.567,3.5 -3.5,3.5l-0.002,0c-0.928,0 -1.817,-0.369 -2.473,-1.025c-0.656,-0.656 -1.025,-1.545 -1.025,-2.473c0,0 0,-0.241 0.029,-0.502Z" style="fill:#fff;"/>
            <path d="M10,11c0.907,0 1.744,0.302 2.437,0.784c0.356,0.285 0.563,0.716 0.563,1.172l0,0.044l-1,0l0,1c0,0.53 -0.211,1.039 -0.586,1.414c-0.375,0.375 -0.884,0.586 -1.414,0.586c-0.53,0 -1.039,-0.211 -1.414,-0.586c-0.375,-0.375 -0.586,-0.884 -0.586,-1.414l0,-1l-1.971,0c0.001,-0.014 0.003,-0.029 0.005,-0.044c0,-0.445 0.203,-0.867 0.551,-1.145c0.671,-0.509 1.508,-0.811 2.415,-0.811l1,0Z"/>
        </g>
        <g>
            <path d="M25.971,13l-1.971,-1l-4,0l-1,1l0,0.5c0,1.933 1.567,3.5 3.5,3.5l0.002,0c0.928,0 1.817,-0.369 2.473,-1.025c0.656,-0.656 1.025,-1.545 1.025,-2.473c0,0 0,-0.241 -0.029,-0.502Z" style="fill:#fff;"/>
            <path d="M22,11c-0.907,0 -1.744,0.302 -2.437,0.784c-0.356,0.285 -0.563,0.716 -0.563,1.172l0,0.044l1,0l0,1c0,0.53 0.211,1.039 0.586,1.414c0.375,0.375 0.884,0.586 1.414,0.586c0.53,0 1.039,-0.211 1.414,-0.586c0.375,-0.375 0.586,-0.884 0.586,-1.414l0,-1l1.971,0c-0.001,-0.014 -0.003,-0.029 -0.005,-0.044c0,-0.445 -0.203,-0.867 -0.551,-1.145c-0.671,-0.509 -1.508,-0.811 -2.415,-0.811l-1,0Z"/>
        </g>
    </g>
</svg>
