<?xml version="1.0" encoding="UTF-8" standalone="no"?><!DOCTYPE svg PUBLIC "-//W3C//DTD SVG 1.1//EN" "http://www.w3.org/Graphics/SVG/1.1/DTD/svg11.dtd"><svg width="100%" height="100%" viewBox="0 0 32 32" version="1.1" xmlns="http://www.w3.org/2000/svg" xmlns:xlink="http://www.w3.org/1999/xlink" xml:space="preserve" xmlns:serif="http://www.serif.com/" style="fill-rule:evenodd;clip-rule:evenodd;stroke-linecap:square;"><rect id="sun_behind_cloud" x="0" y="0" width="32" height="32" style="fill:none;"/><clipPath id="_clip1"><rect x="0" y="0" width="32" height="32"/></clipPath><g clip-path="url(#_clip1)"><g id="outline"><path d="M15.241,16.467c0.646,-2.01 2.534,-3.467 4.759,-3.467c2.76,0 5,2.24 5,5c0,0.343 -0.035,0.679 -0.1,1l0.102,0c2.76,0 4.998,2.238 4.998,4.998c0,0.001 0,0.003 0,0.004c0,2.76 -2.238,4.998 -4.998,4.998c-4.107,0 -9.897,0 -14.004,0c-2.76,0 -4.998,-2.238 -4.998,-4.998c0,-0.001 0,-0.003 0,-0.004c0,-2.427 1.73,-4.45 4.025,-4.903c0.199,-1.741 1.68,-3.095 3.475,-3.095c0.634,0 1.229,0.169 1.741,0.467Z" style="fill:none;stroke:#000;stroke-width:4px;"/><circle cx="13" cy="13" r="9"/><rect x="5.929" y="5.929" width="14.142" height="14.142" style="fill:none;stroke:#000;stroke-width:4px;stroke-linecap:round;stroke-linejoin:round;stroke-miterlimit:1.5;"/><path d="M23,13l-10,-10l-10,10l10,10l10,-10Z" style="fill:none;stroke:#000;stroke-width:4px;stroke-linecap:round;stroke-linejoin:round;stroke-miterlimit:1.5;"/></g><g id="emoji"><g><circle cx="13" cy="13" r="7" style="fill:#e48a1b;"/><circle cx="13" cy="13" r="5" style="fill:#ffc144;"/><path d="M21,11l2,2l-2,2l0,-4Z" style="fill:#e48a1b;"/><path d="M20.071,17.243l0,2.828l-2.828,0l2.828,-2.828Z" style="fill:#e48a1b;"/><path d="M15,21l-2,2l-2,-2l4,0Z" style="fill:#e48a1b;"/><path d="M8.757,20.071l-2.828,0l0,-2.828l2.828,2.828Z" style="fill:#e48a1b;"/><path d="M5,11l-2,2l2,2l0,-4Z" style="fill:#e48a1b;"/><path d="M8.757,5.929l-2.828,0l0,2.828l2.828,-2.828Z" style="fill:#e48a1b;"/><path d="M15,5l-2,-2l-2,2l4,0Z" style="fill:#e48a1b;"/><path d="M20.071,8.757l0,-2.828l-2.828,0l2.828,2.828Z" style="fill:#e48a1b;"/></g><path d="M15.241,16.467c0.646,-2.01 2.534,-3.467 4.759,-3.467c2.76,0 5,2.24 5,5c0,0.343 -0.035,0.679 -0.1,1l0.102,0c2.76,0 4.998,2.238 4.998,4.998c0,0.001 0,0.003 0,0.004c0,2.76 -2.238,4.998 -4.998,4.998c-4.107,0 -9.897,0 -14.004,0c-2.76,0 -4.998,-2.238 -4.998,-4.998c0,-0.001 0,-0.003 0,-0.004c0,-2.427 1.73,-4.45 4.025,-4.903c0.199,-1.741 1.68,-3.095 3.475,-3.095c0.634,0 1.229,0.169 1.741,0.467Z" style="fill:#e6e6e6;"/><path d="M15.241,16.464c0.649,-2.009 2.535,-3.464 4.759,-3.464c2.76,0 5,2.24 5,5c0,0.342 -0.034,0.677 -0.1,1l0.102,0c2.76,0 4.998,2.238 4.998,4.998c0,0.001 0,0.003 0,0.004c0,2.76 -2.238,4.998 -4.998,4.998c-4.107,0 -9.897,0 -14.004,0c-2.76,0 -4.998,-2.238 -4.998,-4.998c0,-0.001 0,-0.003 0,-0.004c0,-2.427 1.73,-4.45 4.023,-4.903c0.201,-1.741 1.682,-3.095 3.477,-3.095c0.634,0 1.228,0.169 1.741,0.464Z" style="fill:none;"/><clipPath id="_clip2"><path d="M15.241,16.464c0.649,-2.009 2.535,-3.464 4.759,-3.464c2.76,0 5,2.24 5,5c0,0.342 -0.034,0.677 -0.1,1l0.102,0c2.76,0 4.998,2.238 4.998,4.998c0,0.001 0,0.003 0,0.004c0,2.76 -2.238,4.998 -4.998,4.998c-4.107,0 -9.897,0 -14.004,0c-2.76,0 -4.998,-2.238 -4.998,-4.998c0,-0.001 0,-0.003 0,-0.004c0,-2.427 1.73,-4.45 4.023,-4.903c0.201,-1.741 1.682,-3.095 3.477,-3.095c0.634,0 1.228,0.169 1.741,0.464Z"/></clipPath><g clip-path="url(#_clip2)"><path d="M27,17c0,0 -0.325,-0.163 -0.845,-0.422c-1.533,-0.767 -3.353,-0.685 -4.81,0.216c-1.458,0.901 -2.345,2.492 -2.345,4.206c0,0 0,0 0,0c0,0 -1.14,0 -2.5,0c-2.485,0 -4.5,2.015 -4.5,4.5c0,0 0,0 0,0c0,1.193 0.474,2.338 1.318,3.182c0.844,0.844 1.989,1.318 3.182,1.318c6.436,0 17.5,0 17.5,0l0,-13l-7,0Z" style="fill:#bfbfbf;"/></g><path d="M20.065,13l0.064,0.002l0.064,0.002l0.064,0.003l0.064,0.003l0.063,0.005l0.064,0.005l0.063,0.006l0.063,0.007l0.062,0.007l0.063,0.009l0.062,0.009l0.062,0.01l0.062,0.01l0.061,0.012l0.061,0.012l0.061,0.013l0.061,0.013l0.06,0.014l0.06,0.016l0.06,0.015l0.059,0.017l0.059,0.017l0.059,0.018l0.059,0.019l0.058,0.019l0.058,0.02l0.057,0.021l0.058,0.021l0.057,0.022l0.112,0.046l0.112,0.049l0.11,0.051l0.108,0.054l0.107,0.057l0.106,0.059l0.104,0.061l0.102,0.064l0.101,0.066l0.099,0.069l0.097,0.071l0.095,0.073l0.094,0.075l0.091,0.078l0.09,0.08l0.088,0.081l0.086,0.084l0.084,0.086l0.081,0.088l0.08,0.09l0.078,0.091l0.075,0.094l0.073,0.095l0.071,0.097l0.069,0.099l0.066,0.101l0.064,0.102l0.061,0.104l0.059,0.106l0.057,0.107l0.054,0.108l0.051,0.11l0.049,0.112l0.046,0.112l0.022,0.057l0.021,0.058l0.021,0.057l0.02,0.058l0.019,0.058l0.019,0.059l0.018,0.059l0.017,0.059l0.017,0.059l0.015,0.06l0.016,0.06l0.014,0.06l0.013,0.061l0.013,0.061l0.012,0.061l0.012,0.061l0.01,0.062l0.01,0.062l0.009,0.062l0.009,0.063l0.007,0.062l0.007,0.063l0.006,0.063l0.005,0.064l0.005,0.063l0.003,0.064l0.003,0.064l0.002,0.064l0.002,0.064l0,0.065l0,0.064l-0.002,0.064l-0.002,0.064l-0.002,0.063l-0.004,0.064l-0.004,0.063l-0.006,0.063l-0.005,0.062l-0.007,0.063l-0.008,0.062l-0.008,0.062l-0.009,0.062l-0.01,0.061l-0.01,0.061l-0.011,0.061l-0.012,0.061l0.102,0l0.065,0l0.064,0.002l0.064,0.002l0.064,0.003l0.064,0.003l0.064,0.005l0.063,0.005l0.063,0.006l0.063,0.007l0.063,0.007l0.062,0.008l0.062,0.01l0.062,0.009l0.062,0.011l0.061,0.011l0.061,0.013l0.061,0.012l0.061,0.014l0.06,0.014l0.06,0.015l0.06,0.016l0.059,0.017l0.059,0.017l0.059,0.018l0.059,0.018l0.058,0.02l0.058,0.02l0.057,0.02l0.058,0.022l0.057,0.022l0.112,0.046l0.112,0.049l0.11,0.051l0.108,0.054l0.107,0.056l0.106,0.059l0.104,0.062l0.102,0.063l0.1,0.067l0.099,0.068l0.097,0.071l0.096,0.073l0.093,0.075l0.092,0.078l0.09,0.079l0.087,0.082l0.086,0.084l0.084,0.086l0.082,0.087l0.079,0.09l0.078,0.092l0.075,0.093l0.073,0.096l0.071,0.097l0.068,0.099l0.067,0.1l0.063,0.102l0.062,0.104l0.059,0.106l0.056,0.107l0.054,0.108l0.051,0.11l0.049,0.112l0.046,0.112l0.022,0.057l0.022,0.058l0.02,0.057l0.02,0.058l0.02,0.058l0.018,0.059l0.018,0.059l0.017,0.059l0.017,0.059l0.016,0.06l0.015,0.06l0.014,0.06l0.014,0.061l0.012,0.061l0.013,0.061l0.011,0.061l0.011,0.062l0.009,0.062l0.01,0.062l0.008,0.062l0.007,0.063l0.007,0.063l0.006,0.063l0.005,0.063l0.005,0.064l0.003,0.064l0.003,0.064l0.002,0.064l0.002,0.064l0,0.069l0,0.065l-0.002,0.064l-0.002,0.064l-0.003,0.064l-0.003,0.064l-0.005,0.064l-0.005,0.063l-0.006,0.063l-0.007,0.063l-0.007,0.063l-0.008,0.062l-0.01,0.062l-0.009,0.062l-0.011,0.062l-0.011,0.061l-0.013,0.061l-0.012,0.061l-0.014,0.061l-0.014,0.06l-0.015,0.06l-0.016,0.06l-0.017,0.059l-0.017,0.059l-0.018,0.059l-0.018,0.059l-0.02,0.058l-0.02,0.058l-0.02,0.057l-0.022,0.058l-0.022,0.057l-0.046,0.112l-0.049,0.112l-0.051,0.11l-0.054,0.108l-0.056,0.107l-0.059,0.106l-0.062,0.104l-0.063,0.102l-0.067,0.1l-0.068,0.099l-0.071,0.097l-0.073,0.096l-0.075,0.093l-0.078,0.092l-0.079,0.09l-0.082,0.087l-0.084,0.086l-0.086,0.084l-0.087,0.082l-0.09,0.079l-0.092,0.078l-0.093,0.075l-0.096,0.073l-0.097,0.071l-0.099,0.068l-0.1,0.067l-0.102,0.063l-0.104,0.062l-0.106,0.059l-0.107,0.056l-0.108,0.054l-0.11,0.051l-0.112,0.049l-0.112,0.046l-0.057,0.022l-0.058,0.022l-0.057,0.02l-0.058,0.02l-0.058,0.02l-0.059,0.018l-0.059,0.018l-0.059,0.017l-0.059,0.017l-0.06,0.016l-0.06,0.015l-0.06,0.014l-0.061,0.014l-0.061,0.012l-0.061,0.013l-0.061,0.011l-0.062,0.011l-0.062,0.009l-0.062,0.01l-0.062,0.008l-0.063,0.007l-0.063,0.007l-0.063,0.006l-0.063,0.005l-0.064,0.005l-0.064,0.003l-0.064,0.003l-0.064,0.002l-0.064,0.002l-0.065,0l-14.004,0l-0.065,0l-0.064,-0.002l-0.064,-0.002l-0.064,-0.003l-0.064,-0.003l-0.064,-0.005l-0.063,-0.005l-0.063,-0.006l-0.063,-0.007l-0.063,-0.007l-0.062,-0.008l-0.062,-0.01l-0.062,-0.009l-0.062,-0.011l-0.061,-0.011l-0.061,-0.013l-0.061,-0.012l-0.061,-0.014l-0.06,-0.014l-0.06,-0.015l-0.06,-0.016l-0.059,-0.017l-0.059,-0.017l-0.059,-0.018l-0.059,-0.018l-0.058,-0.02l-0.058,-0.02l-0.057,-0.02l-0.058,-0.022l-0.057,-0.022l-0.112,-0.046l-0.112,-0.049l-0.11,-0.051l-0.108,-0.054l-0.107,-0.056l-0.106,-0.059l-0.104,-0.062l-0.102,-0.063l-0.1,-0.067l-0.099,-0.068l-0.097,-0.071l-0.096,-0.073l-0.093,-0.075l-0.092,-0.078l-0.09,-0.079l-0.087,-0.082l-0.086,-0.084l-0.084,-0.086l-0.082,-0.087l-0.079,-0.09l-0.078,-0.092l-0.075,-0.093l-0.073,-0.096l-0.071,-0.097l-0.068,-0.099l-0.067,-0.1l-0.063,-0.102l-0.062,-0.104l-0.059,-0.106l-0.056,-0.107l-0.054,-0.108l-0.051,-0.11l-0.049,-0.112l-0.046,-0.112l-0.022,-0.057l-0.022,-0.058l-0.02,-0.057l-0.02,-0.058l-0.02,-0.058l-0.018,-0.059l-0.018,-0.059l-0.017,-0.059l-0.017,-0.059l-0.016,-0.06l-0.015,-0.06l-0.014,-0.06l-0.014,-0.061l-0.012,-0.061l-0.013,-0.061l-0.011,-0.061l-0.011,-0.062l-0.009,-0.062l-0.01,-0.062l-0.008,-0.062l-0.007,-0.063l-0.007,-0.063l-0.006,-0.063l-0.005,-0.063l-0.005,-0.064l-0.003,-0.064l-0.003,-0.064l-0.002,-0.064l-0.002,-0.064l0,-0.065l0,-0.004l0.001,-0.113l0.004,-0.113l0.006,-0.112l0.009,-0.112l0.011,-0.111l0.014,-0.11l0.016,-0.109l0.018,-0.109l0.02,-0.108l0.023,-0.107l0.025,-0.106l0.028,-0.105l0.029,-0.104l0.032,-0.103l0.034,-0.103l0.036,-0.101l0.038,-0.1l0.041,-0.1l0.042,-0.098l0.044,-0.097l0.046,-0.096l0.049,-0.095l0.05,-0.094l0.052,-0.092l0.054,-0.091l0.056,-0.09l0.058,-0.089l0.06,-0.088l0.061,-0.086l0.063,-0.084l0.065,-0.084l0.066,-0.081l0.069,-0.081l0.07,-0.079l0.071,-0.077l0.073,-0.076l0.075,-0.075l0.076,-0.072l0.078,-0.072l0.079,-0.069l0.081,-0.068l0.082,-0.066l0.084,-0.065l0.085,-0.063l0.086,-0.061l0.088,-0.059l0.089,-0.057l0.09,-0.056l0.091,-0.054l0.093,-0.051l0.094,-0.05l0.095,-0.048l0.096,-0.046l0.098,-0.044l0.098,-0.042l0.1,-0.04l0.1,-0.037l0.102,-0.036l0.103,-0.034l0.103,-0.031l0.105,-0.029l0.105,-0.027l0.106,-0.025l0.107,-0.022l0.011,-0.081l0.012,-0.081l0.014,-0.08l0.016,-0.08l0.017,-0.079l0.02,-0.078l0.021,-0.077l0.023,-0.077l0.024,-0.076l0.027,-0.075l0.027,-0.075l0.03,-0.073l0.031,-0.073l0.033,-0.072l0.034,-0.071l0.036,-0.07l0.037,-0.069l0.039,-0.069l0.04,-0.067l0.042,-0.066l0.043,-0.066l0.045,-0.064l0.046,-0.063l0.047,-0.062l0.049,-0.062l0.05,-0.059l0.052,-0.059l0.052,-0.058l0.054,-0.056l0.055,-0.056l0.056,-0.054l0.058,-0.052l0.059,-0.052l0.059,-0.05l0.061,-0.049l0.062,-0.048l0.064,-0.046l0.064,-0.045l0.065,-0.043l0.066,-0.042l0.067,-0.04l0.069,-0.039l0.069,-0.038l0.07,-0.036l0.071,-0.034l0.072,-0.033l0.072,-0.032l0.074,-0.029l0.074,-0.028l0.075,-0.027l0.076,-0.025l0.077,-0.023l0.077,-0.021l0.078,-0.02l0.079,-0.017l0.08,-0.016l0.08,-0.015l0.08,-0.012l0.082,-0.011l0.081,-0.008l0.083,-0.007l0.083,-0.005l0.083,-0.003l0.084,-0.001l0.059,0l0.059,0.002l0.059,0.002l0.059,0.004l0.058,0.004l0.058,0.006l0.058,0.006l0.057,0.007l0.057,0.008l0.057,0.009l0.057,0.01l0.056,0.011l0.056,0.012l0.056,0.012l0.055,0.014l0.055,0.014l0.054,0.015l0.054,0.017l0.054,0.017l0.054,0.017l0.053,0.019l0.052,0.019l0.053,0.021l0.052,0.021l0.051,0.022l0.051,0.022l0.051,0.024l0.05,0.024l0.05,0.025l0.049,0.026l0.049,0.026l0.048,0.028l0.031,-0.094l0.033,-0.093l0.035,-0.092l0.037,-0.091l0.038,-0.091l0.04,-0.089l0.042,-0.088l0.043,-0.088l0.046,-0.087l0.046,-0.085l0.049,-0.085l0.049,-0.083l0.052,-0.082l0.053,-0.082l0.055,-0.08l0.056,-0.079l0.057,-0.078l0.059,-0.077l0.06,-0.075l0.062,-0.075l0.064,-0.073l0.064,-0.072l0.066,-0.071l0.068,-0.069l0.068,-0.068l0.07,-0.067l0.071,-0.065l0.073,-0.064l0.074,-0.063l0.074,-0.061l0.077,-0.06l0.077,-0.059l0.078,-0.056l0.08,-0.056l0.081,-0.054l0.081,-0.052l0.083,-0.051l0.084,-0.049l0.085,-0.048l0.086,-0.046l0.087,-0.044l0.088,-0.043l0.089,-0.041l0.09,-0.039l0.09,-0.038l0.092,-0.036l0.092,-0.034l0.094,-0.032l0.094,-0.031l0.095,-0.029l0.095,-0.026l0.097,-0.026l0.097,-0.023l0.098,-0.021l0.098,-0.019l0.1,-0.018l0.1,-0.015l0.1,-0.013l0.101,-0.012l0.102,-0.009l0.103,-0.008l0.103,-0.005l0.103,-0.003l0.104,-0.001l0.065,0Zm-0.149,1.001l-0.083,0.002l-0.082,0.005l-0.082,0.006l-0.082,0.007l-0.081,0.009l-0.08,0.011l-0.08,0.012l-0.079,0.014l-0.079,0.016l-0.078,0.016l-0.078,0.019l-0.077,0.02l-0.076,0.021l-0.076,0.023l-0.075,0.025l-0.075,0.026l-0.073,0.027l-0.074,0.028l-0.072,0.031l-0.072,0.031l-0.071,0.033l-0.07,0.034l-0.069,0.035l-0.069,0.037l-0.068,0.038l-0.067,0.04l-0.067,0.04l-0.065,0.042l-0.065,0.043l-0.063,0.045l-0.063,0.045l-0.062,0.047l-0.061,0.048l-0.06,0.049l-0.059,0.05l-0.058,0.052l-0.057,0.052l-0.056,0.054l-0.055,0.054l-0.054,0.056l-0.053,0.056l-0.052,0.058l-0.051,0.059l-0.049,0.059l-0.049,0.061l-0.047,0.061l-0.046,0.063l-0.045,0.063l-0.044,0.064l-0.042,0.065l-0.041,0.066l-0.04,0.067l-0.039,0.068l-0.037,0.068l-0.036,0.069l-0.035,0.07l-0.033,0.071l-0.032,0.071l-0.031,0.073l-0.029,0.072l-0.028,0.074l-0.026,0.074l-0.413,1.234l-1.097,-0.619l-0.035,-0.019l-0.035,-0.018l-0.036,-0.018l-0.035,-0.017l-0.036,-0.017l-0.037,-0.016l-0.036,-0.016l-0.037,-0.015l-0.038,-0.014l-0.037,-0.014l-0.038,-0.013l-0.038,-0.013l-0.038,-0.012l-0.039,-0.012l-0.039,-0.01l-0.039,-0.011l-0.039,-0.009l-0.04,-0.009l-0.04,-0.009l-0.04,-0.007l-0.04,-0.008l-0.04,-0.006l-0.041,-0.006l-0.041,-0.005l-0.042,-0.004l-0.041,-0.004l-0.042,-0.003l-0.042,-0.003l-0.042,-0.002l-0.042,-0.001l-0.041,0l-0.062,0.001l-0.06,0.002l-0.06,0.003l-0.059,0.005l-0.058,0.006l-0.058,0.008l-0.058,0.009l-0.057,0.01l-0.056,0.011l-0.056,0.013l-0.056,0.014l-0.055,0.015l-0.055,0.017l-0.054,0.017l-0.053,0.019l-0.053,0.02l-0.053,0.021l-0.051,0.023l-0.052,0.023l-0.05,0.025l-0.05,0.025l-0.049,0.027l-0.049,0.028l-0.048,0.029l-0.047,0.03l-0.047,0.031l-0.046,0.032l-0.045,0.033l-0.045,0.034l-0.043,0.035l-0.043,0.036l-0.042,0.037l-0.041,0.038l-0.041,0.038l-0.039,0.04l-0.039,0.04l-0.037,0.042l-0.037,0.042l-0.036,0.043l-0.035,0.044l-0.034,0.044l-0.033,0.045l-0.032,0.046l-0.031,0.047l-0.029,0.047l-0.029,0.048l-0.028,0.049l-0.027,0.05l-0.025,0.05l-0.025,0.05l-0.023,0.052l-0.022,0.052l-0.021,0.052l-0.02,0.053l-0.019,0.054l-0.017,0.054l-0.016,0.054l-0.016,0.055l-0.013,0.056l-0.013,0.056l-0.011,0.057l-0.01,0.057l-0.009,0.058l-0.099,0.776l-0.793,0.166l-0.085,0.02l-0.084,0.021l-0.084,0.023l-0.082,0.025l-0.082,0.027l-0.081,0.029l-0.081,0.03l-0.079,0.032l-0.079,0.033l-0.078,0.035l-0.077,0.037l-0.075,0.038l-0.076,0.04l-0.074,0.041l-0.073,0.043l-0.072,0.045l-0.071,0.046l-0.07,0.047l-0.07,0.049l-0.068,0.05l-0.066,0.052l-0.066,0.053l-0.065,0.054l-0.063,0.056l-0.063,0.057l-0.061,0.058l-0.06,0.06l-0.058,0.061l-0.058,0.062l-0.056,0.063l-0.054,0.064l-0.054,0.066l-0.052,0.067l-0.05,0.068l-0.049,0.068l-0.048,0.07l-0.046,0.071l-0.045,0.072l-0.043,0.073l-0.042,0.074l-0.04,0.075l-0.039,0.076l-0.037,0.077l-0.035,0.077l-0.034,0.079l-0.032,0.079l-0.03,0.08l-0.029,0.081l-0.027,0.082l-0.026,0.082l-0.023,0.084l-0.022,0.084l-0.02,0.084l-0.018,0.086l-0.017,0.086l-0.014,0.087l-0.013,0.087l-0.011,0.088l-0.009,0.089l-0.007,0.089l-0.005,0.09l-0.003,0.091l-0.001,0.095l0,0.052l0.001,0.052l0.002,0.051l0.002,0.052l0.003,0.051l0.004,0.051l0.004,0.05l0.005,0.051l0.005,0.05l0.006,0.051l0.007,0.049l0.007,0.05l0.008,0.05l0.009,0.049l0.009,0.049l0.009,0.049l0.011,0.048l0.01,0.049l0.012,0.048l0.012,0.048l0.012,0.048l0.014,0.047l0.013,0.047l0.015,0.047l0.014,0.047l0.016,0.047l0.016,0.046l0.016,0.046l0.017,0.045l0.017,0.043l0.038,0.093l0.039,0.089l0.041,0.088l0.043,0.086l0.045,0.086l0.047,0.084l0.049,0.083l0.051,0.082l0.053,0.081l0.055,0.079l0.057,0.077l0.058,0.077l0.061,0.075l0.062,0.073l0.063,0.072l0.066,0.07l0.067,0.069l0.069,0.067l0.07,0.066l0.072,0.063l0.073,0.062l0.075,0.061l0.077,0.058l0.077,0.057l0.079,0.055l0.081,0.053l0.082,0.051l0.083,0.049l0.084,0.047l0.086,0.045l0.086,0.043l0.088,0.041l0.089,0.039l0.093,0.038l0.043,0.017l0.045,0.017l0.046,0.016l0.047,0.016l0.046,0.016l0.047,0.014l0.047,0.015l0.047,0.013l0.047,0.014l0.048,0.012l0.048,0.012l0.048,0.012l0.049,0.01l0.048,0.011l0.049,0.009l0.049,0.009l0.049,0.009l0.05,0.008l0.05,0.007l0.05,0.007l0.05,0.006l0.05,0.005l0.051,0.005l0.05,0.004l0.051,0.004l0.051,0.003l0.052,0.002l0.051,0.002l0.052,0.001l0.055,0l13.998,0l0.055,0l0.052,-0.001l0.051,-0.002l0.052,-0.002l0.051,-0.003l0.051,-0.004l0.05,-0.004l0.051,-0.005l0.05,-0.005l0.05,-0.006l0.05,-0.007l0.05,-0.007l0.05,-0.008l0.049,-0.009l0.049,-0.009l0.049,-0.009l0.048,-0.011l0.049,-0.01l0.048,-0.012l0.048,-0.012l0.048,-0.012l0.047,-0.014l0.047,-0.013l0.047,-0.015l0.047,-0.014l0.046,-0.016l0.047,-0.016l0.046,-0.016l0.045,-0.017l0.043,-0.017l0.093,-0.038l0.089,-0.039l0.088,-0.041l0.086,-0.043l0.086,-0.045l0.084,-0.047l0.083,-0.049l0.082,-0.051l0.081,-0.053l0.079,-0.055l0.077,-0.057l0.077,-0.058l0.075,-0.061l0.073,-0.062l0.072,-0.063l0.07,-0.066l0.069,-0.067l0.067,-0.069l0.066,-0.07l0.063,-0.072l0.062,-0.073l0.061,-0.075l0.058,-0.077l0.057,-0.077l0.055,-0.079l0.053,-0.081l0.051,-0.082l0.049,-0.083l0.047,-0.084l0.045,-0.086l0.043,-0.086l0.041,-0.088l0.039,-0.089l0.038,-0.093l0.017,-0.043l0.017,-0.045l0.016,-0.046l0.016,-0.047l0.016,-0.046l0.014,-0.047l0.015,-0.047l0.013,-0.047l0.014,-0.047l0.012,-0.048l0.012,-0.048l0.012,-0.048l0.01,-0.049l0.011,-0.048l0.009,-0.049l0.009,-0.049l0.009,-0.049l0.008,-0.05l0.007,-0.05l0.007,-0.05l0.006,-0.05l0.005,-0.05l0.005,-0.051l0.004,-0.05l0.004,-0.051l0.003,-0.052l0.002,-0.051l0.002,-0.051l0.001,-0.052l0,-0.054l0,-0.054l-0.001,-0.052l-0.002,-0.051l-0.002,-0.051l-0.003,-0.052l-0.004,-0.051l-0.004,-0.05l-0.005,-0.051l-0.005,-0.05l-0.006,-0.05l-0.007,-0.05l-0.007,-0.05l-0.008,-0.05l-0.009,-0.049l-0.009,-0.049l-0.009,-0.049l-0.011,-0.048l-0.01,-0.049l-0.012,-0.048l-0.012,-0.048l-0.012,-0.048l-0.014,-0.047l-0.013,-0.047l-0.015,-0.047l-0.014,-0.047l-0.016,-0.046l-0.016,-0.047l-0.016,-0.046l-0.017,-0.045l-0.017,-0.043l-0.038,-0.093l-0.039,-0.089l-0.041,-0.088l-0.043,-0.086l-0.045,-0.086l-0.047,-0.084l-0.049,-0.083l-0.051,-0.082l-0.053,-0.081l-0.055,-0.079l-0.057,-0.077l-0.058,-0.077l-0.061,-0.075l-0.062,-0.073l-0.063,-0.072l-0.066,-0.07l-0.067,-0.069l-0.069,-0.067l-0.07,-0.066l-0.072,-0.063l-0.073,-0.062l-0.075,-0.061l-0.077,-0.058l-0.077,-0.057l-0.079,-0.055l-0.081,-0.053l-0.082,-0.051l-0.083,-0.049l-0.084,-0.047l-0.086,-0.045l-0.086,-0.043l-0.088,-0.041l-0.089,-0.039l-0.093,-0.038l-0.043,-0.017l-0.045,-0.017l-0.046,-0.016l-0.047,-0.016l-0.046,-0.016l-0.047,-0.014l-0.047,-0.015l-0.047,-0.013l-0.047,-0.014l-0.048,-0.012l-0.048,-0.012l-0.048,-0.012l-0.049,-0.01l-0.048,-0.011l-0.049,-0.009l-0.049,-0.009l-0.049,-0.009l-0.05,-0.008l-0.05,-0.007l-0.05,-0.007l-0.05,-0.006l-0.05,-0.005l-0.051,-0.005l-0.05,-0.004l-0.051,-0.004l-0.051,-0.003l-0.052,-0.002l-0.051,-0.002l-0.052,-0.001l-0.055,0l-1.315,0l0.245,-1.248l0.009,-0.049l0.009,-0.048l0.007,-0.05l0.008,-0.049l0.006,-0.049l0.006,-0.05l0.006,-0.05l0.004,-0.05l0.004,-0.051l0.004,-0.05l0.003,-0.051l0.002,-0.051l0.002,-0.051l0.001,-0.051l0,-0.052l0,-0.052l-0.001,-0.052l-0.002,-0.051l-0.002,-0.051l-0.003,-0.052l-0.004,-0.051l-0.004,-0.05l-0.005,-0.051l-0.005,-0.05l-0.006,-0.05l-0.007,-0.05l-0.007,-0.05l-0.008,-0.049l-0.009,-0.05l-0.009,-0.049l-0.009,-0.048l-0.011,-0.049l-0.01,-0.048l-0.012,-0.049l-0.012,-0.047l-0.013,-0.048l-0.013,-0.048l-0.013,-0.047l-0.015,-0.047l-0.015,-0.047l-0.015,-0.046l-0.016,-0.046l-0.017,-0.046l-0.017,-0.046l-0.016,-0.043l-0.038,-0.093l-0.039,-0.089l-0.041,-0.088l-0.043,-0.086l-0.046,-0.086l-0.047,-0.084l-0.049,-0.083l-0.051,-0.082l-0.053,-0.081l-0.055,-0.079l-0.057,-0.078l-0.058,-0.076l-0.061,-0.075l-0.062,-0.074l-0.064,-0.071l-0.065,-0.071l-0.067,-0.069l-0.069,-0.067l-0.07,-0.065l-0.072,-0.064l-0.074,-0.062l-0.075,-0.061l-0.076,-0.058l-0.078,-0.057l-0.079,-0.055l-0.081,-0.053l-0.082,-0.051l-0.083,-0.049l-0.084,-0.047l-0.086,-0.046l-0.086,-0.043l-0.088,-0.041l-0.089,-0.039l-0.093,-0.038l-0.043,-0.016l-0.046,-0.017l-0.046,-0.017l-0.046,-0.016l-0.046,-0.015l-0.047,-0.015l-0.047,-0.015l-0.047,-0.013l-0.048,-0.013l-0.047,-0.013l-0.048,-0.012l-0.049,-0.012l-0.048,-0.01l-0.049,-0.011l-0.048,-0.009l-0.049,-0.009l-0.05,-0.009l-0.049,-0.008l-0.05,-0.007l-0.05,-0.007l-0.05,-0.006l-0.05,-0.005l-0.051,-0.005l-0.05,-0.004l-0.051,-0.004l-0.052,-0.003l-0.051,-0.002l-0.051,-0.002l-0.052,-0.001l-0.05,0l-0.086,0.001Z" style="fill:#e6e6e6;"/></g></g></svg>