<?xml version="1.0" encoding="UTF-8" standalone="no"?><!DOCTYPE svg PUBLIC "-//W3C//DTD SVG 1.1//EN" "http://www.w3.org/Graphics/SVG/1.1/DTD/svg11.dtd"><svg width="100%" height="100%" viewBox="0 0 32 32" version="1.1" xmlns="http://www.w3.org/2000/svg" xmlns:xlink="http://www.w3.org/1999/xlink" xml:space="preserve" xmlns:serif="http://www.serif.com/" style="fill-rule:evenodd;clip-rule:evenodd;stroke-linecap:square;"><rect id="sun_cloud_rain" x="0" y="0" width="32" height="32" style="fill:none;"/><clipPath id="_clip1"><rect x="0" y="0" width="32" height="32"/></clipPath><g clip-path="url(#_clip1)"><g id="outline"><path d="M13.62,11.345c0.98,-1.982 3.022,-3.345 5.38,-3.345c3.311,0 6,2.689 6,6c0,0.341 -0.029,0.676 -0.085,1l0.087,0c1.06,0 2.077,0.421 2.827,1.171c0.75,0.75 1.171,1.767 1.171,2.827c0,0.001 0,0.003 0,0.004c0,1.06 -0.421,2.077 -1.171,2.827c-0.75,0.75 -1.767,1.171 -2.827,1.171c-4.889,0 -13.115,0 -18.004,0c-1.06,0 -2.077,-0.421 -2.827,-1.171c-0.75,-0.75 -1.171,-1.767 -1.171,-2.827c0,-0.001 0,-0.003 0,-0.004c0,-1.06 0.421,-2.077 1.171,-2.827c0.75,-0.75 1.767,-1.171 2.827,-1.171l1.002,0c0,-2.208 1.792,-4 4,-4c0.577,0 1.126,0.122 1.62,0.345Z" style="fill:none;stroke:#000;stroke-width:4px;"/><circle cx="10" cy="10" r="7"/><path d="M8,4l2,-2l2,2l-4,0Z" style="fill:#e48a1b;"/><path d="M16.828,6l-13.656,0l6.828,-6.828l6.828,6.828Zm-8.828,-2l4,0l-2,-2l-2,2Z"/><path d="M8,16l2,2l2,-2l-4,0Z" style="fill:#e48a1b;"/><path d="M10,20.828l-6.828,-6.828l13.656,0l-6.828,6.828Zm-2,-4.828l2,2l2,-2l-4,0Z"/><path d="M12.828,4.343l2.829,0l0,2.829l-2.829,-2.829Z" style="fill:#e48a1b;"/><path d="M17.657,12l-9.657,-9.657l9.657,0l0,9.657Zm-2,-4.828l0,-2.829l-2.829,0l2.829,2.829Z"/><path d="M4.343,12.828l0,2.829l2.829,0l-2.829,-2.829Z" style="fill:#e48a1b;"/><path d="M12,17.657l-9.657,0l0,-9.657l9.657,9.657Zm-7.657,-2l2.829,0l-2.829,-2.829l0,2.829Z"/><path d="M12.828,4.343l2.829,0l0,2.829l-2.829,-2.829Z" style="fill:#e48a1b;"/><path d="M17.657,12l-9.657,-9.657l9.657,0l0,9.657Zm-2,-4.828l0,-2.829l-2.829,0l2.829,2.829Z"/><path d="M4,8l-2,2l2,2l0,-4Z" style="fill:#e48a1b;"/><path d="M6,16.828l-6.828,-6.828l6.828,-6.828l0,13.656Zm-4,-6.828l2,2l0,-4l-2,2Z"/><path d="M7.172,4.343l-2.829,0l0,2.829l2.829,-2.829Z" style="fill:#e48a1b;"/><path d="M2.343,12l0,-9.657l9.657,0l-9.657,9.657Zm2,-7.657l0,2.829l2.829,-2.829l-2.829,0Z"/><path d="M13,20c0,0 0,2.931 0,5c0,1.105 0.895,2 2,2c0.53,0 1.039,-0.211 1.414,-0.586c0.375,-0.375 0.586,-0.884 0.586,-1.414c0,-0.042 0,-0.084 0,-0.125c0,-0.56 -0.223,-1.098 -0.619,-1.494c-1.123,-1.123 -3.381,-3.381 -3.381,-3.381Z" style="fill:none;stroke:#000;stroke-width:4px;stroke-linecap:butt;stroke-linejoin:round;"/><path d="M19,25c0,0 0,2.027 0,3.5c0,0.398 0.158,0.779 0.439,1.061c0.282,0.281 0.663,0.439 1.061,0.439c0.019,0 0.039,0 0.058,0c0.382,0 0.749,-0.152 1.02,-0.422c0.27,-0.271 0.422,-0.638 0.422,-1.02c0,-0.001 0,-0.001 0,-0.002c0,-0.356 -0.141,-0.697 -0.393,-0.949c-0.814,-0.814 -2.607,-2.607 -2.607,-2.607Z" style="fill:none;stroke:#000;stroke-width:4px;stroke-linecap:butt;stroke-linejoin:round;"/><path d="M9,25c0,0 0,2.027 0,3.5c0,0.398 0.158,0.779 0.439,1.061c0.282,0.281 0.663,0.439 1.061,0.439c0.019,0 0.039,0 0.058,0c0.382,0 0.749,-0.152 1.02,-0.422c0.27,-0.271 0.422,-0.638 0.422,-1.02c0,-0.001 0,-0.001 0,-0.002c0,-0.356 -0.141,-0.697 -0.393,-0.949c-0.814,-0.814 -2.607,-2.607 -2.607,-2.607Z" style="fill:none;stroke:#000;stroke-width:4px;stroke-linecap:butt;stroke-linejoin:round;"/><path d="M5,20c0,0 0,2.027 0,3.5c0,0.398 0.158,0.779 0.439,1.061c0.282,0.281 0.663,0.439 1.061,0.439c0.019,0 0.039,0 0.058,0c0.382,0 0.749,-0.152 1.02,-0.422c0.27,-0.271 0.422,-0.638 0.422,-1.02c0,-0.001 0,-0.001 0,-0.002c0,-0.356 -0.141,-0.697 -0.393,-0.949c-0.814,-0.814 -2.607,-2.607 -2.607,-2.607Z" style="fill:none;stroke:#000;stroke-width:4px;stroke-linecap:butt;stroke-linejoin:round;"/><path d="M25,22c0,0 0,2.027 0,3.5c0,0.398 0.158,0.779 0.439,1.061c0.282,0.281 0.663,0.439 1.061,0.439c0.019,0 0.039,0 0.058,0c0.382,0 0.749,-0.152 1.02,-0.422c0.27,-0.271 0.422,-0.638 0.422,-1.02c0,-0.001 0,-0.001 0,-0.002c0,-0.356 -0.141,-0.697 -0.393,-0.949c-0.814,-0.814 -2.607,-2.607 -2.607,-2.607Z" style="fill:none;stroke:#000;stroke-width:4px;stroke-linecap:butt;stroke-linejoin:round;"/><rect x="10" y="22" width="16" height="5"/><path d="M19.969,19.98c0,0 0,2.027 0,3.5c0,0.397 0.158,0.779 0.44,1.06c0.281,0.281 0.662,0.44 1.06,0.44c0.02,0 0.039,0 0.058,0c0.383,0 0.75,-0.152 1.02,-0.423c0.27,-0.27 0.422,-0.637 0.422,-1.019c0,-0.001 0,-0.002 0,-0.003c0,-0.356 -0.141,-0.697 -0.393,-0.949c-0.813,-0.813 -2.607,-2.606 -2.607,-2.606Z" style="fill:none;stroke:#000;stroke-width:4px;stroke-linecap:butt;stroke-linejoin:round;"/><rect x="4.343" y="4.343" width="11.314" height="11.314" style="fill:none;stroke:#000;stroke-width:4px;stroke-linecap:round;stroke-linejoin:round;stroke-miterlimit:1.5;"/><path d="M18,10l-8,-8l-8,8l8,8l8,-8Z" style="fill:none;stroke:#000;stroke-width:4px;stroke-linecap:round;stroke-linejoin:round;stroke-miterlimit:1.5;"/></g><g id="emoji"><circle cx="10" cy="10" r="5" style="fill:#e48a1b;"/><circle cx="10" cy="10" r="4" style="fill:#ffc144;"/><path d="M8,4l2,-2l2,2l-4,0Z" style="fill:#e48a1b;"/><path d="M8,16l2,2l2,-2l-4,0Z" style="fill:#e48a1b;"/><path d="M12.828,4.343l2.829,0l0,2.829l-2.829,-2.829Z" style="fill:#e48a1b;"/><path d="M4.343,12.828l0,2.829l2.829,0l-2.829,-2.829Z" style="fill:#e48a1b;"/><path d="M16,8l2,2l-2,2l0,-4Z" style="fill:#e48a1b;"/><path d="M4,8l-2,2l2,2l0,-4Z" style="fill:#e48a1b;"/><path d="M15.657,12.828l0,2.829l-2.829,0l2.829,-2.829Z" style="fill:#e48a1b;"/><path d="M7.172,4.343l-2.829,0l0,2.829l2.829,-2.829Z" style="fill:#e48a1b;"/><path d="M19,25c0,0 0,2.027 0,3.5c0,0.398 0.158,0.779 0.439,1.061c0.282,0.281 0.663,0.439 1.061,0.439c0.019,0 0.039,0 0.058,0c0.382,0 0.749,-0.152 1.02,-0.422c0.27,-0.271 0.422,-0.638 0.422,-1.02c0,-0.001 0,-0.001 0,-0.002c0,-0.356 -0.141,-0.697 -0.393,-0.949c-0.814,-0.814 -2.607,-2.607 -2.607,-2.607Z" style="fill:#10bfff;"/><path d="M19.969,19.98c0,0 0,2.027 0,3.5c0,0.397 0.158,0.779 0.44,1.06c0.281,0.281 0.662,0.44 1.06,0.44c0.02,0 0.039,0 0.058,0c0.383,0 0.75,-0.152 1.02,-0.423c0.27,-0.27 0.422,-0.637 0.422,-1.019c0,-0.001 0,-0.002 0,-0.003c0,-0.356 -0.141,-0.697 -0.393,-0.949c-0.813,-0.813 -2.607,-2.606 -2.607,-2.606Z" style="fill:#10bfff;"/><path d="M9,25c0,0 0,2.027 0,3.5c0,0.398 0.158,0.779 0.439,1.061c0.282,0.281 0.663,0.439 1.061,0.439c0.019,0 0.039,0 0.058,0c0.382,0 0.749,-0.152 1.02,-0.422c0.27,-0.271 0.422,-0.638 0.422,-1.02c0,-0.001 0,-0.001 0,-0.002c0,-0.356 -0.141,-0.697 -0.393,-0.949c-0.814,-0.814 -2.607,-2.607 -2.607,-2.607Z" style="fill:#10bfff;"/><path d="M5,20c0,0 0,2.027 0,3.5c0,0.398 0.158,0.779 0.439,1.061c0.282,0.281 0.663,0.439 1.061,0.439c0.019,0 0.039,0 0.058,0c0.382,0 0.749,-0.152 1.02,-0.422c0.27,-0.271 0.422,-0.638 0.422,-1.02c0,-0.001 0,-0.001 0,-0.002c0,-0.356 -0.141,-0.697 -0.393,-0.949c-0.814,-0.814 -2.607,-2.607 -2.607,-2.607Z" style="fill:#10bfff;"/><path d="M25,22c0,0 0,2.027 0,3.5c0,0.398 0.158,0.779 0.439,1.061c0.282,0.281 0.663,0.439 1.061,0.439c0.019,0 0.039,0 0.058,0c0.382,0 0.749,-0.152 1.02,-0.422c0.27,-0.271 0.422,-0.638 0.422,-1.02c0,-0.001 0,-0.001 0,-0.002c0,-0.356 -0.141,-0.697 -0.393,-0.949c-0.814,-0.814 -2.607,-2.607 -2.607,-2.607Z" style="fill:#10bfff;"/><path d="M13,20c0,0 0,2.931 0,5c0,1.105 0.895,2 2,2c0.53,0 1.039,-0.211 1.414,-0.586c0.375,-0.375 0.586,-0.884 0.586,-1.414c0,-0.042 0,-0.084 0,-0.125c0,-0.56 -0.223,-1.098 -0.619,-1.494c-1.123,-1.123 -3.381,-3.381 -3.381,-3.381Z" style="fill:#10bfff;"/><path d="M13.62,11.345c0.98,-1.982 3.022,-3.345 5.38,-3.345c3.311,0 6,2.689 6,6c0,0.341 -0.029,0.676 -0.085,1l0.087,0c1.06,0 2.077,0.421 2.827,1.171c0.75,0.75 1.171,1.767 1.171,2.827c0,0.001 0,0.003 0,0.004c0,1.06 -0.421,2.077 -1.171,2.827c-0.75,0.75 -1.767,1.171 -2.827,1.171c-4.889,0 -13.115,0 -18.004,0c-1.06,0 -2.077,-0.421 -2.827,-1.171c-0.75,-0.75 -1.171,-1.767 -1.171,-2.827c0,-0.001 0,-0.003 0,-0.004c0,-1.06 0.421,-2.077 1.171,-2.827c0.75,-0.75 1.767,-1.171 2.827,-1.171l1.002,0c0,-2.208 1.792,-4 4,-4c0.577,0 1.126,0.122 1.62,0.345Z" style="fill:#e6e6e6;"/><path d="M13.62,11.342c0.981,-1.98 3.023,-3.342 5.38,-3.342c3.311,0 6,2.689 6,6c0,0.341 -0.028,0.675 -0.083,1l0.083,0c2.209,0 4,1.791 4,4c0,0 0,0 0,0c0,2.209 -1.791,4 -4,4c-4.889,0 -13.111,0 -18,0c-2.209,0 -4,-1.791 -4,-4c0,0 0,0 0,0c0,-1.061 0.421,-2.078 1.172,-2.828c0.75,-0.751 1.767,-1.172 2.828,-1.172l1,0c0,-2.208 1.792,-4 4,-4c0.577,0 1.125,0.122 1.62,0.342Z" style="fill:none;"/><clipPath id="_clip2"><path d="M13.62,11.342c0.981,-1.98 3.023,-3.342 5.38,-3.342c3.311,0 6,2.689 6,6c0,0.341 -0.028,0.675 -0.083,1l0.083,0c2.209,0 4,1.791 4,4c0,0 0,0 0,0c0,2.209 -1.791,4 -4,4c-4.889,0 -13.111,0 -18,0c-2.209,0 -4,-1.791 -4,-4c0,0 0,0 0,0c0,-1.061 0.421,-2.078 1.172,-2.828c0.75,-0.751 1.767,-1.172 2.828,-1.172l1,0c0,-2.208 1.792,-4 4,-4c0.577,0 1.125,0.122 1.62,0.342Z"/></clipPath><g clip-path="url(#_clip2)"><path d="M26,11c0,0 -0.325,-0.163 -0.845,-0.422c-1.533,-0.767 -3.353,-0.685 -4.81,0.216c-1.458,0.901 -2.345,2.492 -2.345,4.206c0,0 0,0 0,0c0,0 -0.66,0 -1.5,0c-1.933,0 -3.5,1.567 -3.5,3.5c0,0.928 0.369,1.818 1.025,2.475c0.657,0.656 1.547,1.025 2.475,1.025c5.488,0 15.5,0 15.5,0l0,-11l-6,0Z" style="fill:#b3b3b3;"/></g><path d="M19.077,8l0.078,0.002l0.077,0.002l0.077,0.004l0.076,0.004l0.076,0.006l0.076,0.006l0.076,0.007l0.076,0.008l0.075,0.009l0.075,0.01l0.074,0.011l0.075,0.012l0.074,0.013l0.073,0.013l0.074,0.015l0.073,0.015l0.072,0.017l0.073,0.017l0.072,0.018l0.071,0.019l0.072,0.02l0.071,0.02l0.07,0.022l0.071,0.022l0.07,0.023l0.069,0.024l0.069,0.025l0.069,0.026l0.068,0.026l0.068,0.028l0.068,0.028l0.067,0.029l0.066,0.029l0.066,0.031l0.066,0.031l0.066,0.032l0.065,0.033l0.064,0.033l0.064,0.035l0.063,0.035l0.064,0.035l0.062,0.037l0.062,0.037l0.062,0.038l0.061,0.039l0.061,0.039l0.06,0.04l0.059,0.041l0.059,0.042l0.059,0.042l0.058,0.043l0.057,0.043l0.057,0.044l0.057,0.045l0.056,0.046l0.055,0.046l0.055,0.047l0.054,0.047l0.053,0.048l0.053,0.049l0.053,0.05l0.052,0.05l0.051,0.05l0.05,0.051l0.05,0.052l0.05,0.053l0.049,0.053l0.048,0.053l0.047,0.054l0.047,0.055l0.046,0.055l0.046,0.056l0.045,0.057l0.044,0.057l0.043,0.057l0.043,0.058l0.042,0.059l0.042,0.059l0.041,0.059l0.04,0.06l0.039,0.061l0.039,0.061l0.038,0.062l0.037,0.062l0.037,0.062l0.035,0.064l0.035,0.063l0.035,0.064l0.033,0.064l0.033,0.065l0.032,0.066l0.031,0.066l0.031,0.066l0.029,0.066l0.029,0.067l0.028,0.068l0.028,0.068l0.026,0.068l0.026,0.069l0.025,0.069l0.024,0.069l0.023,0.07l0.022,0.071l0.022,0.07l0.02,0.071l0.02,0.072l0.019,0.071l0.018,0.072l0.017,0.073l0.017,0.072l0.015,0.073l0.015,0.074l0.013,0.073l0.013,0.074l0.012,0.075l0.011,0.074l0.01,0.075l0.009,0.075l0.008,0.076l0.007,0.076l0.006,0.076l0.006,0.076l0.004,0.076l0.004,0.077l0.002,0.077l0.002,0.078l0,0.077l-0.001,0.127l-0.004,0.127l-0.007,0.126l-0.009,0.126l-0.012,0.125l-0.014,0.123l-0.017,0.124l-0.019,0.122l0.083,0l0.103,0.001l0.103,0.004l0.102,0.007l0.101,0.009l0.1,0.011l0.1,0.014l0.099,0.016l0.098,0.019l0.097,0.021l0.097,0.024l0.095,0.026l0.094,0.028l0.094,0.03l0.092,0.033l0.092,0.034l0.09,0.037l0.089,0.039l0.088,0.041l0.087,0.044l0.086,0.045l0.084,0.047l0.083,0.049l0.082,0.051l0.08,0.053l0.08,0.055l0.077,0.057l0.077,0.058l0.074,0.06l0.074,0.062l0.072,0.064l0.07,0.066l0.068,0.067l0.067,0.068l0.066,0.07l0.064,0.072l0.062,0.074l0.06,0.074l0.058,0.077l0.057,0.077l0.055,0.08l0.053,0.08l0.051,0.082l0.049,0.083l0.047,0.084l0.045,0.086l0.044,0.087l0.041,0.088l0.039,0.089l0.037,0.09l0.034,0.092l0.033,0.092l0.03,0.094l0.028,0.094l0.026,0.095l0.024,0.097l0.021,0.097l0.019,0.098l0.016,0.099l0.014,0.1l0.011,0.1l0.009,0.101l0.007,0.102l0.004,0.103l0.001,0.103l-0.001,0.103l-0.004,0.103l-0.007,0.102l-0.009,0.101l-0.011,0.1l-0.014,0.1l-0.016,0.099l-0.019,0.098l-0.021,0.097l-0.024,0.097l-0.026,0.095l-0.028,0.094l-0.03,0.094l-0.033,0.092l-0.034,0.092l-0.037,0.09l-0.039,0.089l-0.041,0.088l-0.044,0.087l-0.045,0.086l-0.047,0.084l-0.049,0.083l-0.051,0.082l-0.053,0.08l-0.055,0.08l-0.057,0.077l-0.058,0.077l-0.06,0.074l-0.062,0.074l-0.064,0.072l-0.066,0.07l-0.067,0.068l-0.068,0.067l-0.07,0.066l-0.072,0.064l-0.074,0.062l-0.074,0.06l-0.077,0.058l-0.077,0.057l-0.08,0.055l-0.08,0.053l-0.082,0.051l-0.083,0.049l-0.084,0.047l-0.086,0.045l-0.087,0.044l-0.088,0.041l-0.089,0.039l-0.09,0.037l-0.092,0.034l-0.092,0.033l-0.094,0.03l-0.094,0.028l-0.095,0.026l-0.097,0.024l-0.097,0.021l-0.098,0.019l-0.099,0.016l-0.1,0.014l-0.1,0.011l-0.101,0.009l-0.102,0.007l-0.103,0.004l-0.103,0.001l-18,0l-0.103,-0.001l-0.103,-0.004l-0.102,-0.007l-0.101,-0.009l-0.1,-0.011l-0.1,-0.014l-0.099,-0.016l-0.098,-0.019l-0.097,-0.021l-0.097,-0.024l-0.095,-0.026l-0.094,-0.028l-0.094,-0.03l-0.092,-0.033l-0.092,-0.034l-0.09,-0.037l-0.089,-0.039l-0.088,-0.041l-0.087,-0.044l-0.086,-0.045l-0.084,-0.047l-0.083,-0.049l-0.082,-0.051l-0.08,-0.053l-0.08,-0.055l-0.077,-0.057l-0.077,-0.058l-0.074,-0.06l-0.074,-0.062l-0.072,-0.064l-0.07,-0.066l-0.068,-0.067l-0.067,-0.068l-0.066,-0.07l-0.064,-0.072l-0.062,-0.074l-0.06,-0.074l-0.058,-0.077l-0.057,-0.077l-0.055,-0.08l-0.053,-0.08l-0.051,-0.082l-0.049,-0.083l-0.047,-0.084l-0.045,-0.086l-0.044,-0.087l-0.041,-0.088l-0.039,-0.089l-0.037,-0.09l-0.034,-0.092l-0.033,-0.092l-0.03,-0.094l-0.028,-0.094l-0.026,-0.095l-0.024,-0.097l-0.021,-0.097l-0.019,-0.098l-0.016,-0.099l-0.014,-0.1l-0.011,-0.1l-0.009,-0.101l-0.007,-0.102l-0.004,-0.103l-0.001,-0.103l0,0l0.001,-0.099l0.004,-0.099l0.006,-0.099l0.009,-0.098l0.011,-0.098l0.013,-0.098l0.016,-0.097l0.018,-0.096l0.02,-0.096l0.023,-0.095l0.025,-0.095l0.027,-0.093l0.029,-0.093l0.032,-0.093l0.034,-0.091l0.036,-0.091l0.039,-0.089l0.041,-0.089l0.042,-0.088l0.045,-0.087l0.047,-0.085l0.049,-0.085l0.052,-0.083l0.053,-0.082l0.055,-0.081l0.058,-0.08l0.059,-0.078l0.062,-0.077l0.063,-0.076l0.066,-0.074l0.067,-0.072l0.07,-0.071l0.071,-0.07l0.072,-0.067l0.074,-0.066l0.076,-0.063l0.077,-0.062l0.078,-0.059l0.08,-0.058l0.081,-0.055l0.082,-0.053l0.083,-0.052l0.085,-0.049l0.085,-0.047l0.087,-0.045l0.088,-0.042l0.089,-0.041l0.089,-0.039l0.091,-0.036l0.091,-0.034l0.093,-0.032l0.093,-0.029l0.093,-0.027l0.095,-0.025l0.095,-0.023l0.096,-0.02l0.096,-0.018l0.097,-0.016l0.098,-0.013l0.098,-0.011l0.098,-0.009l0.099,-0.006l0.099,-0.004l0.099,-0.001l1,0l0.001,-0.103l0.004,-0.103l0.007,-0.102l0.009,-0.101l0.011,-0.1l0.014,-0.1l0.017,-0.099l0.018,-0.098l0.022,-0.097l0.023,-0.096l0.026,-0.096l0.028,-0.094l0.03,-0.093l0.033,-0.093l0.035,-0.091l0.037,-0.09l0.039,-0.09l0.041,-0.088l0.043,-0.086l0.045,-0.086l0.047,-0.084l0.049,-0.084l0.052,-0.081l0.053,-0.081l0.054,-0.079l0.057,-0.078l0.059,-0.076l0.06,-0.075l0.062,-0.073l0.064,-0.072l0.065,-0.07l0.067,-0.069l0.069,-0.067l0.07,-0.065l0.072,-0.064l0.073,-0.062l0.075,-0.06l0.076,-0.059l0.078,-0.057l0.079,-0.054l0.081,-0.053l0.082,-0.052l0.083,-0.049l0.084,-0.047l0.086,-0.045l0.086,-0.043l0.089,-0.041l0.089,-0.039l0.09,-0.037l0.091,-0.035l0.093,-0.033l0.093,-0.03l0.094,-0.028l0.096,-0.026l0.096,-0.023l0.097,-0.022l0.098,-0.018l0.099,-0.017l0.1,-0.014l0.1,-0.011l0.101,-0.009l0.102,-0.007l0.103,-0.004l0.103,-0.001l0.108,0.001l0.107,0.005l0.106,0.007l0.106,0.01l0.104,0.012l0.104,0.015l0.103,0.018l0.103,0.021l0.101,0.023l0.1,0.025l0.099,0.028l0.098,0.031l0.097,0.033l0.096,0.035l0.095,0.038l0.093,0.04l0.047,-0.092l0.048,-0.092l0.05,-0.09l0.051,-0.09l0.053,-0.088l0.054,-0.088l0.056,-0.086l0.057,-0.086l0.059,-0.084l0.06,-0.084l0.061,-0.082l0.063,-0.081l0.064,-0.081l0.065,-0.079l0.067,-0.077l0.068,-0.077l0.069,-0.076l0.071,-0.074l0.072,-0.073l0.073,-0.072l0.074,-0.071l0.075,-0.069l0.077,-0.068l0.078,-0.067l0.079,-0.066l0.08,-0.064l0.081,-0.063l0.082,-0.061l0.084,-0.06l0.084,-0.059l0.085,-0.057l0.087,-0.056l0.087,-0.055l0.089,-0.053l0.089,-0.051l0.091,-0.05l0.091,-0.048l0.092,-0.047l0.093,-0.046l0.094,-0.044l0.095,-0.042l0.096,-0.04l0.097,-0.039l0.097,-0.038l0.098,-0.035l0.099,-0.034l0.1,-0.033l0.101,-0.03l0.101,-0.029l0.102,-0.027l0.103,-0.026l0.103,-0.023l0.104,-0.022l0.105,-0.02l0.105,-0.018l0.106,-0.017l0.107,-0.014l0.107,-0.013l0.108,-0.01l0.108,-0.009l0.109,-0.007l0.109,-0.005l0.11,-0.003l0.11,-0.001l0.077,0Zm-0.169,1.001l-0.092,0.002l-0.091,0.004l-0.091,0.006l-0.09,0.008l-0.09,0.009l-0.089,0.01l-0.089,0.012l-0.088,0.014l-0.088,0.015l-0.087,0.016l-0.087,0.019l-0.086,0.019l-0.085,0.021l-0.085,0.023l-0.084,0.024l-0.084,0.026l-0.083,0.026l-0.083,0.029l-0.081,0.029l-0.081,0.031l-0.081,0.033l-0.08,0.034l-0.079,0.035l-0.078,0.036l-0.077,0.038l-0.077,0.039l-0.076,0.04l-0.076,0.042l-0.074,0.043l-0.074,0.044l-0.073,0.045l-0.072,0.047l-0.071,0.048l-0.07,0.049l-0.07,0.05l-0.069,0.051l-0.067,0.052l-0.067,0.054l-0.066,0.055l-0.065,0.055l-0.064,0.057l-0.063,0.058l-0.062,0.059l-0.061,0.06l-0.06,0.061l-0.058,0.062l-0.058,0.063l-0.057,0.065l-0.056,0.064l-0.054,0.066l-0.054,0.067l-0.052,0.068l-0.051,0.069l-0.05,0.069l-0.049,0.071l-0.048,0.071l-0.046,0.072l-0.045,0.073l-0.044,0.074l-0.043,0.075l-0.042,0.075l-0.04,0.076l-0.467,0.922l-0.944,-0.405l-0.071,-0.028l-0.071,-0.026l-0.073,-0.025l-0.073,-0.023l-0.074,-0.021l-0.075,-0.019l-0.076,-0.017l-0.076,-0.016l-0.078,-0.013l-0.077,-0.012l-0.079,-0.009l-0.079,-0.007l-0.08,-0.006l-0.081,-0.003l-0.081,-0.001l-0.078,0.001l-0.077,0.003l-0.077,0.005l-0.076,0.007l-0.075,0.008l-0.075,0.011l-0.074,0.012l-0.073,0.014l-0.073,0.016l-0.072,0.017l-0.071,0.02l-0.071,0.021l-0.069,0.023l-0.07,0.024l-0.068,0.026l-0.067,0.028l-0.067,0.029l-0.066,0.031l-0.065,0.032l-0.064,0.034l-0.064,0.035l-0.062,0.037l-0.061,0.038l-0.061,0.04l-0.059,0.041l-0.059,0.043l-0.057,0.044l-0.056,0.045l-0.055,0.047l-0.054,0.048l-0.053,0.049l-0.052,0.05l-0.05,0.052l-0.049,0.053l-0.048,0.054l-0.047,0.055l-0.045,0.056l-0.044,0.057l-0.043,0.059l-0.041,0.059l-0.04,0.061l-0.038,0.061l-0.037,0.062l-0.035,0.064l-0.034,0.064l-0.032,0.065l-0.031,0.066l-0.029,0.066l-0.028,0.068l-0.026,0.068l-0.024,0.069l-0.023,0.07l-0.021,0.071l-0.019,0.071l-0.018,0.072l-0.016,0.073l-0.014,0.073l-0.012,0.075l-0.011,0.074l-0.008,0.075l-0.007,0.076l-0.005,0.077l-0.003,0.077l-0.014,1.078l-1.981,0l-0.081,0.001l-0.074,0.003l-0.074,0.004l-0.074,0.007l-0.073,0.008l-0.073,0.01l-0.073,0.012l-0.072,0.013l-0.072,0.016l-0.071,0.017l-0.071,0.018l-0.07,0.021l-0.07,0.022l-0.069,0.024l-0.069,0.025l-0.068,0.027l-0.067,0.029l-0.067,0.031l-0.066,0.032l-0.065,0.034l-0.064,0.035l-0.063,0.037l-0.063,0.038l-0.061,0.04l-0.061,0.042l-0.06,0.043l-0.059,0.044l-0.057,0.046l-0.057,0.048l-0.055,0.049l-0.055,0.051l-0.053,0.052l-0.052,0.053l-0.051,0.055l-0.049,0.055l-0.048,0.057l-0.046,0.058l-0.044,0.058l-0.043,0.06l-0.042,0.061l-0.04,0.061l-0.038,0.063l-0.037,0.063l-0.036,0.064l-0.033,0.065l-0.032,0.066l-0.031,0.067l-0.029,0.067l-0.027,0.068l-0.025,0.069l-0.024,0.069l-0.022,0.07l-0.021,0.07l-0.018,0.071l-0.017,0.071l-0.016,0.072l-0.013,0.072l-0.012,0.073l-0.01,0.073l-0.008,0.074l-0.007,0.073l-0.004,0.074l-0.003,0.074l-0.001,0.075l0.001,0.078l0.003,0.077l0.005,0.077l0.007,0.076l0.008,0.075l0.011,0.075l0.012,0.074l0.014,0.074l0.016,0.073l0.017,0.071l0.02,0.072l0.021,0.071l0.022,0.069l0.025,0.07l0.026,0.068l0.027,0.067l0.03,0.067l0.03,0.066l0.033,0.065l0.033,0.064l0.036,0.063l0.037,0.063l0.038,0.061l0.04,0.061l0.041,0.059l0.043,0.058l0.043,0.058l0.046,0.056l0.046,0.055l0.048,0.054l0.049,0.053l0.051,0.051l0.051,0.051l0.053,0.049l0.054,0.048l0.055,0.046l0.056,0.045l0.058,0.044l0.058,0.043l0.059,0.041l0.061,0.04l0.061,0.038l0.062,0.037l0.064,0.035l0.064,0.034l0.065,0.033l0.066,0.03l0.067,0.03l0.067,0.027l0.069,0.026l0.069,0.025l0.07,0.022l0.07,0.021l0.072,0.02l0.072,0.017l0.072,0.016l0.074,0.014l0.074,0.012l0.075,0.011l0.075,0.008l0.076,0.007l0.077,0.005l0.077,0.003l0.084,0.001l17.988,0l0.084,-0.001l0.077,-0.003l0.077,-0.005l0.076,-0.007l0.075,-0.008l0.075,-0.011l0.074,-0.012l0.074,-0.014l0.072,-0.016l0.072,-0.017l0.072,-0.02l0.071,-0.021l0.069,-0.022l0.069,-0.025l0.069,-0.026l0.068,-0.027l0.066,-0.03l0.066,-0.03l0.065,-0.033l0.064,-0.034l0.063,-0.035l0.063,-0.037l0.061,-0.038l0.061,-0.04l0.059,-0.041l0.058,-0.043l0.058,-0.044l0.056,-0.045l0.055,-0.046l0.054,-0.048l0.053,-0.049l0.051,-0.051l0.051,-0.051l0.049,-0.053l0.048,-0.054l0.046,-0.055l0.046,-0.056l0.043,-0.058l0.043,-0.058l0.041,-0.059l0.04,-0.061l0.038,-0.061l0.037,-0.063l0.035,-0.063l0.034,-0.064l0.033,-0.065l0.03,-0.066l0.03,-0.067l0.027,-0.067l0.026,-0.068l0.025,-0.07l0.022,-0.069l0.021,-0.071l0.02,-0.072l0.017,-0.071l0.016,-0.073l0.014,-0.074l0.012,-0.074l0.011,-0.075l0.008,-0.075l0.007,-0.076l0.005,-0.077l0.003,-0.077l0.001,-0.078l-0.001,-0.078l-0.003,-0.077l-0.005,-0.077l-0.007,-0.076l-0.008,-0.075l-0.011,-0.075l-0.012,-0.074l-0.014,-0.074l-0.016,-0.073l-0.017,-0.071l-0.02,-0.072l-0.021,-0.07l-0.022,-0.07l-0.025,-0.07l-0.026,-0.068l-0.027,-0.067l-0.03,-0.067l-0.03,-0.066l-0.033,-0.065l-0.034,-0.064l-0.035,-0.063l-0.037,-0.063l-0.038,-0.061l-0.04,-0.061l-0.041,-0.059l-0.043,-0.058l-0.043,-0.058l-0.046,-0.056l-0.046,-0.055l-0.048,-0.054l-0.049,-0.053l-0.051,-0.051l-0.051,-0.051l-0.053,-0.049l-0.054,-0.048l-0.055,-0.046l-0.056,-0.046l-0.058,-0.043l-0.058,-0.043l-0.059,-0.041l-0.061,-0.04l-0.061,-0.038l-0.062,-0.037l-0.064,-0.035l-0.064,-0.034l-0.065,-0.033l-0.066,-0.03l-0.067,-0.03l-0.067,-0.027l-0.069,-0.026l-0.069,-0.025l-0.069,-0.022l-0.071,-0.021l-0.071,-0.02l-0.073,-0.017l-0.072,-0.016l-0.074,-0.014l-0.074,-0.012l-0.075,-0.011l-0.075,-0.008l-0.076,-0.007l-0.077,-0.005l-0.077,-0.003l-0.084,-0.001l-1.247,0l0.2,-1.268l0.014,-0.102l0.012,-0.104l0.009,-0.103l0.008,-0.105l0.006,-0.106l0.003,-0.105l0.001,-0.109l0,-0.063l-0.002,-0.064l-0.002,-0.065l-0.003,-0.064l-0.003,-0.064l-0.005,-0.064l-0.005,-0.063l-0.006,-0.063l-0.007,-0.063l-0.007,-0.063l-0.009,-0.062l-0.009,-0.062l-0.01,-0.062l-0.01,-0.061l-0.012,-0.062l-0.012,-0.061l-0.013,-0.061l-0.013,-0.06l-0.014,-0.061l-0.015,-0.059l-0.016,-0.06l-0.017,-0.059l-0.017,-0.059l-0.018,-0.059l-0.018,-0.059l-0.02,-0.058l-0.02,-0.057l-0.02,-0.058l-0.022,-0.057l-0.022,-0.057l-0.022,-0.057l-0.024,-0.056l-0.024,-0.056l-0.024,-0.055l-0.026,-0.055l-0.026,-0.055l-0.026,-0.054l-0.028,-0.054l-0.028,-0.054l-0.028,-0.053l-0.03,-0.053l-0.029,-0.053l-0.031,-0.052l-0.031,-0.052l-0.031,-0.051l-0.033,-0.051l-0.032,-0.051l-0.034,-0.05l-0.034,-0.049l-0.034,-0.05l-0.036,-0.049l-0.035,-0.048l-0.037,-0.048l-0.037,-0.047l-0.037,-0.047l-0.038,-0.047l-0.039,-0.046l-0.039,-0.046l-0.039,-0.045l-0.04,-0.045l-0.041,-0.044l-0.041,-0.044l-0.042,-0.043l-0.042,-0.043l-0.043,-0.042l-0.043,-0.042l-0.044,-0.041l-0.044,-0.04l-0.045,-0.041l-0.045,-0.039l-0.046,-0.039l-0.046,-0.039l-0.047,-0.038l-0.047,-0.037l-0.047,-0.037l-0.048,-0.037l-0.048,-0.035l-0.049,-0.035l-0.05,-0.035l-0.049,-0.034l-0.05,-0.034l-0.051,-0.032l-0.051,-0.033l-0.051,-0.031l-0.052,-0.031l-0.052,-0.031l-0.053,-0.03l-0.053,-0.029l-0.053,-0.028l-0.054,-0.028l-0.054,-0.028l-0.054,-0.026l-0.055,-0.026l-0.055,-0.026l-0.055,-0.024l-0.056,-0.024l-0.056,-0.024l-0.057,-0.022l-0.057,-0.022l-0.057,-0.022l-0.057,-0.02l-0.058,-0.02l-0.058,-0.02l-0.059,-0.018l-0.059,-0.018l-0.059,-0.017l-0.059,-0.017l-0.06,-0.016l-0.06,-0.015l-0.06,-0.014l-0.06,-0.013l-0.061,-0.013l-0.061,-0.012l-0.061,-0.012l-0.062,-0.01l-0.062,-0.01l-0.062,-0.009l-0.063,-0.009l-0.062,-0.007l-0.063,-0.007l-0.063,-0.006l-0.064,-0.005l-0.063,-0.005l-0.064,-0.003l-0.064,-0.003l-0.065,-0.002l-0.064,-0.002l-0.064,0l-0.093,0.001Z" style="fill:#e6e6e6;"/></g></g></svg>