<?xml version="1.0" encoding="UTF-8" standalone="no"?><!DOCTYPE svg PUBLIC "-//W3C//DTD SVG 1.1//EN" "http://www.w3.org/Graphics/SVG/1.1/DTD/svg11.dtd"><svg width="100%" height="100%" viewBox="0 0 32 32" version="1.1" xmlns="http://www.w3.org/2000/svg" xmlns:xlink="http://www.w3.org/1999/xlink" xml:space="preserve" xmlns:serif="http://www.serif.com/" style="fill-rule:evenodd;clip-rule:evenodd;stroke-linecap:square;"><rect id="lightning_rain" x="0" y="0" width="32" height="32" style="fill:none;"/><clipPath id="_clip1"><rect x="0" y="0" width="32" height="32"/></clipPath><g clip-path="url(#_clip1)"><g id="outline"><path d="M20.1,16.003l0.1,0.007l0.1,0.013l0.098,0.017l0.098,0.023l0.097,0.027l0.095,0.032l0.093,0.037l0.091,0.041l0.089,0.046l0.087,0.05l0.084,0.055l0.081,0.059l0.078,0.063l0.075,0.066l0.072,0.071l0.068,0.073l0.064,0.077l0.06,0.081l0.056,0.083l0.052,0.086l0.047,0.088l0.043,0.091l0.038,0.092l0.034,0.095l0.029,0.096l0.024,0.097l0.019,0.098l0.014,0.1l0.01,0.099l0.004,0.101l-0.001,0.1l-0.006,0.1l-0.011,0.1l-0.016,0.099l-0.02,0.098l-0.026,0.097l-0.031,0.095l-0.035,0.094l-0.04,0.092l-0.044,0.09l-0.049,0.087l-0.053,0.085l-0.058,0.082l-0.061,0.08l-0.066,0.076l-0.069,0.072l-0.586,0.586l2.172,0l0.1,0.003l0.1,0.007l0.1,0.013l0.098,0.017l0.098,0.022l0.097,0.028l0.095,0.032l0.093,0.037l0.091,0.041l0.089,0.046l0.087,0.05l0.084,0.055l0.081,0.059l0.078,0.063l0.075,0.066l0.072,0.071l0.068,0.073l0.064,0.077l0.06,0.081l0.056,0.083l0.052,0.086l0.047,0.088l0.043,0.091l0.038,0.092l0.034,0.095l0.029,0.096l0.024,0.097l0.019,0.098l0.014,0.1l0.01,0.099l0.004,0.101l-0.001,0.1l-0.006,0.1l-0.011,0.1l-0.016,0.099l-0.02,0.098l-0.026,0.097l-0.031,0.095l-0.035,0.094l-0.04,0.092l-0.044,0.09l-0.049,0.087l-0.053,0.085l-0.058,0.082l-0.061,0.08l-0.066,0.076l-0.069,0.072l-8,8l-0.073,0.07l-0.077,0.066l-0.08,0.062l-0.083,0.058l-0.086,0.054l-0.089,0.049l-0.091,0.044l-0.093,0.04l-0.095,0.036l-0.097,0.03l-0.098,0.025l-0.099,0.021l-0.101,0.015l-0.1,0.01l-0.102,0.005l-0.101,0l-0.101,-0.005l-0.101,-0.01l-0.1,-0.015l-0.099,-0.021l-0.099,-0.025l-0.096,-0.031l-0.095,-0.035l-0.093,-0.04l-0.091,-0.044l-0.089,-0.05l-0.086,-0.053l-0.083,-0.058l-0.08,-0.062l-0.077,-0.066l-0.074,-0.07l-0.069,-0.074l-0.066,-0.077l-0.062,-0.08l-0.058,-0.083l-0.054,-0.086l-0.049,-0.089l-0.045,-0.091l-0.04,-0.093l-0.035,-0.095l-0.03,-0.096l-0.025,-0.099l-0.021,-0.099l-0.015,-0.1l-0.01,-0.101l-0.005,-0.101l0,-0.101l0.005,-0.102l0.01,-0.101l0.016,-0.1l0.02,-0.099l0.025,-0.098l0.031,-0.097l0.035,-0.095l0.903,-2.257l-4.046,0l-0.102,-0.003l-0.101,-0.007l-0.101,-0.013l-0.1,-0.018l-0.099,-0.023l-0.098,-0.028l-0.096,-0.033l-0.095,-0.038l-0.092,-0.043l-0.09,-0.047l-0.087,-0.052l-0.085,-0.056l-0.082,-0.06l-0.079,-0.065l-0.075,-0.068l-0.072,-0.072l-0.068,-0.076l-0.064,-0.079l-0.06,-0.082l-0.055,-0.086l-0.052,-0.087l-0.046,-0.091l-0.042,-0.092l-0.038,-0.095l-0.032,-0.096l-0.028,-0.098l-0.022,-0.099l-0.018,-0.101l-0.012,-0.101l-0.007,-0.101l-0.002,-0.102l0.003,-0.101l0.009,-0.102l0.013,-0.101l0.019,-0.1l0.023,-0.099l0.029,-0.097l0.034,-0.096l0.038,-0.094l0.043,-0.092l3.5,-7l0.047,-0.089l0.052,-0.087l0.056,-0.083l0.06,-0.081l0.064,-0.078l0.068,-0.074l0.072,-0.071l0.075,-0.067l0.078,-0.063l0.081,-0.059l0.085,-0.055l0.086,-0.051l0.09,-0.046l0.091,-0.042l0.094,-0.037l0.095,-0.033l0.097,-0.027l0.098,-0.023l0.099,-0.017l0.1,-0.013l0.1,-0.007l0.101,-0.003l6.5,0l0.1,0.003Zm-6.6,1.997l-3.5,7l7,0l-2,5l8,-8l-7,0l4,-4l-6.5,0Z"/><path d="M13.62,5.345c0.98,-1.982 3.022,-3.345 5.38,-3.345c3.311,0 6,2.689 6,6c0,0.341 -0.029,0.676 -0.085,1l0.087,0c2.76,0 4.998,2.238 4.998,4.998c0,0.001 0,0.003 0,0.004c0,2.76 -2.238,4.998 -4.998,4.998c-5.084,0 -12.92,0 -18.004,0c-2.76,0 -4.998,-2.238 -4.998,-4.998c0,-0.001 0,-0.003 0,-0.004c0,-2.76 2.238,-4.998 4.998,-4.998l1.002,0c0,-2.208 1.792,-4 4,-4c0.577,0 1.126,0.122 1.62,0.345Z" style="fill:none;stroke:#000;stroke-width:4px;"/><path d="M20,23c0,0 0,2.931 0,5c0,1.105 0.895,2 2,2c0.001,0 0.001,0 0.002,0c1.103,0 1.998,-0.895 1.998,-1.998c0,-0.043 0,-0.085 0,-0.127c0,-0.56 -0.223,-1.098 -0.619,-1.494c-1.123,-1.123 -3.381,-3.381 -3.381,-3.381Z" style="fill:none;stroke:#000;stroke-width:4px;stroke-linecap:butt;stroke-linejoin:round;"/><path d="M25,18c0,0 0,2.931 0,5c0,1.105 0.895,2 2,2c0.001,0 0.001,0 0.002,0c1.103,0 1.998,-0.895 1.998,-1.998c0,-0.043 0,-0.085 0,-0.127c0,-0.56 -0.223,-1.098 -0.619,-1.494c-1.123,-1.123 -3.381,-3.381 -3.381,-3.381Z" style="fill:none;stroke:#000;stroke-width:4px;stroke-linecap:butt;stroke-linejoin:round;"/><path d="M4,17c0,0 0,2.931 0,5c0,1.105 0.895,2 2,2c0.001,0 0.001,0 0.002,0c1.103,0 1.998,-0.895 1.998,-1.998c0,-0.043 0,-0.085 0,-0.127c0,-0.56 -0.223,-1.098 -0.619,-1.494c-1.123,-1.123 -3.381,-3.381 -3.381,-3.381Z" style="fill:none;stroke:#000;stroke-width:4px;stroke-linecap:butt;stroke-linejoin:round;"/><path d="M10,22c0,0 0,2.931 0,5c0,1.105 0.895,2 2,2c0.001,0 0.001,0 0.002,0c1.103,0 1.998,-0.895 1.998,-1.998c0,-0.043 0,-0.085 0,-0.127c0,-0.56 -0.223,-1.098 -0.619,-1.494c-1.123,-1.123 -3.381,-3.381 -3.381,-3.381Z" style="fill:none;stroke:#000;stroke-width:4px;stroke-linecap:butt;stroke-linejoin:round;"/></g><g id="emoji"><path d="M20,23c0,0 0,2.931 0,5c0,1.105 0.895,2 2,2c0.001,0 0.001,0 0.002,0c1.103,0 1.998,-0.895 1.998,-1.998c0,-0.043 0,-0.085 0,-0.127c0,-0.56 -0.223,-1.098 -0.619,-1.494c-1.123,-1.123 -3.381,-3.381 -3.381,-3.381Z" style="fill:#10bfff;"/><path d="M25,18c0,0 0,2.931 0,5c0,1.105 0.895,2 2,2c0.001,0 0.001,0 0.002,0c1.103,0 1.998,-0.895 1.998,-1.998c0,-0.043 0,-0.085 0,-0.127c0,-0.56 -0.223,-1.098 -0.619,-1.494c-1.123,-1.123 -3.381,-3.381 -3.381,-3.381Z" style="fill:#10bfff;"/><path d="M4,17c0,0 0,2.931 0,5c0,1.105 0.895,2 2,2c0.001,0 0.001,0 0.002,0c1.103,0 1.998,-0.895 1.998,-1.998c0,-0.043 0,-0.085 0,-0.127c0,-0.56 -0.223,-1.098 -0.619,-1.494c-1.123,-1.123 -3.381,-3.381 -3.381,-3.381Z" style="fill:#10bfff;"/><path d="M10,22c0,0 0,2.931 0,5c0,1.105 0.895,2 2,2c0.001,0 0.001,0 0.002,0c1.103,0 1.998,-0.895 1.998,-1.998c0,-0.043 0,-0.085 0,-0.127c0,-0.56 -0.223,-1.098 -0.619,-1.494c-1.123,-1.123 -3.381,-3.381 -3.381,-3.381Z" style="fill:#10bfff;"/><path d="M13.5,18l-3.5,7l7,0l-2,5l8,-8l-7,0l4,-4l-6.5,0Z" style="fill:#fdef24;"/><path d="M13.62,5.345c0.98,-1.982 3.022,-3.345 5.38,-3.345c3.311,0 6,2.689 6,6c0,0.341 -0.029,0.676 -0.085,1l0.087,0c2.76,0 4.998,2.238 4.998,4.998c0,0.001 0,0.003 0,0.004c0,2.76 -2.238,4.998 -4.998,4.998c-5.084,0 -12.92,0 -18.004,0c-2.76,0 -4.998,-2.238 -4.998,-4.998c0,-0.001 0,-0.003 0,-0.004c0,-2.76 2.238,-4.998 4.998,-4.998l1.002,0c0,-2.208 1.792,-4 4,-4c0.577,0 1.126,0.122 1.62,0.345Z" style="fill:#e6e6e6;"/><path d="M13.62,5.342c0.981,-1.98 3.023,-3.342 5.38,-3.342c3.311,0 6,2.689 6,6c0,0.341 -0.028,0.675 -0.083,1l0.085,0c2.76,0 4.998,2.238 4.998,4.998c0,0.001 0,0.003 0,0.004c0,2.76 -2.238,4.998 -4.998,4.998c-5.084,0 -12.92,0 -18.004,0c-2.76,0 -4.998,-2.238 -4.998,-4.998c0,-0.001 0,-0.003 0,-0.004c0,-2.76 2.238,-4.998 4.998,-4.998l1.002,0c0,-2.208 1.792,-4 4,-4c0.577,0 1.125,0.122 1.62,0.342Z" style="fill:none;"/><clipPath id="_clip2"><path d="M13.62,5.342c0.981,-1.98 3.023,-3.342 5.38,-3.342c3.311,0 6,2.689 6,6c0,0.341 -0.028,0.675 -0.083,1l0.085,0c2.76,0 4.998,2.238 4.998,4.998c0,0.001 0,0.003 0,0.004c0,2.76 -2.238,4.998 -4.998,4.998c-5.084,0 -12.92,0 -18.004,0c-2.76,0 -4.998,-2.238 -4.998,-4.998c0,-0.001 0,-0.003 0,-0.004c0,-2.76 2.238,-4.998 4.998,-4.998l1.002,0c0,-2.208 1.792,-4 4,-4c0.577,0 1.125,0.122 1.62,0.342Z"/></clipPath><g clip-path="url(#_clip2)"><path d="M26,5c0,0 -0.292,-0.146 -0.764,-0.382c-1.55,-0.775 -3.391,-0.692 -4.865,0.219c-1.474,0.911 -2.371,2.52 -2.371,4.253c0,1.127 0,1.91 0,1.91c0,0 -1.14,0 -2.5,0c-2.485,0 -4.5,2.015 -4.5,4.5c0,0 0,0 0,0c0,1.193 0.474,2.338 1.318,3.182c0.844,0.844 1.989,1.318 3.182,1.318c6.436,0 17.5,0 17.5,0l0,-15l-7,0Z" style="fill:#bfbfbf;"/></g><path d="M19.077,2l0.078,0.002l0.077,0.002l0.077,0.004l0.076,0.004l0.076,0.006l0.076,0.006l0.076,0.007l0.076,0.008l0.075,0.009l0.075,0.01l0.074,0.011l0.075,0.012l0.074,0.013l0.073,0.013l0.074,0.015l0.073,0.015l0.072,0.017l0.073,0.017l0.072,0.018l0.071,0.019l0.072,0.02l0.071,0.02l0.07,0.022l0.071,0.022l0.07,0.023l0.069,0.024l0.069,0.025l0.069,0.026l0.068,0.026l0.068,0.028l0.068,0.028l0.067,0.029l0.066,0.029l0.066,0.031l0.066,0.031l0.066,0.032l0.065,0.033l0.064,0.033l0.064,0.035l0.063,0.035l0.064,0.035l0.062,0.037l0.062,0.037l0.062,0.038l0.061,0.039l0.061,0.039l0.06,0.04l0.059,0.041l0.059,0.042l0.059,0.042l0.058,0.043l0.057,0.043l0.057,0.044l0.057,0.045l0.056,0.046l0.055,0.046l0.055,0.047l0.054,0.047l0.053,0.048l0.053,0.049l0.053,0.05l0.052,0.05l0.051,0.05l0.05,0.051l0.05,0.052l0.05,0.053l0.049,0.053l0.048,0.053l0.047,0.054l0.047,0.055l0.046,0.055l0.046,0.056l0.045,0.057l0.044,0.057l0.043,0.057l0.043,0.058l0.042,0.059l0.042,0.059l0.041,0.059l0.04,0.06l0.039,0.061l0.039,0.061l0.038,0.062l0.037,0.062l0.037,0.062l0.035,0.064l0.035,0.063l0.035,0.064l0.033,0.064l0.033,0.065l0.032,0.066l0.031,0.066l0.031,0.066l0.029,0.066l0.029,0.067l0.028,0.068l0.028,0.068l0.026,0.068l0.026,0.069l0.025,0.069l0.024,0.069l0.023,0.07l0.022,0.071l0.022,0.07l0.02,0.071l0.02,0.072l0.019,0.071l0.018,0.072l0.017,0.073l0.017,0.072l0.015,0.073l0.015,0.074l0.013,0.073l0.013,0.074l0.012,0.075l0.011,0.074l0.01,0.075l0.009,0.075l0.008,0.076l0.007,0.076l0.006,0.076l0.006,0.076l0.004,0.076l0.004,0.077l0.002,0.077l0.002,0.078l0,0.077l-0.001,0.127l-0.004,0.127l-0.007,0.126l-0.009,0.126l-0.012,0.125l-0.014,0.123l-0.017,0.124l-0.019,0.122l0.085,0l0.065,0l0.064,0.002l0.064,0.002l0.064,0.003l0.064,0.003l0.064,0.005l0.063,0.005l0.063,0.006l0.063,0.007l0.063,0.007l0.062,0.008l0.062,0.01l0.062,0.009l0.062,0.011l0.061,0.011l0.061,0.013l0.061,0.012l0.061,0.014l0.06,0.014l0.06,0.015l0.06,0.016l0.059,0.017l0.059,0.017l0.059,0.018l0.059,0.018l0.058,0.02l0.058,0.02l0.057,0.02l0.058,0.022l0.057,0.022l0.112,0.046l0.112,0.049l0.11,0.051l0.108,0.054l0.107,0.056l0.106,0.059l0.104,0.062l0.102,0.063l0.1,0.067l0.099,0.068l0.097,0.071l0.096,0.073l0.093,0.075l0.092,0.078l0.09,0.079l0.087,0.082l0.086,0.084l0.084,0.086l0.082,0.087l0.079,0.09l0.078,0.092l0.075,0.093l0.073,0.096l0.071,0.097l0.068,0.099l0.067,0.1l0.063,0.102l0.062,0.104l0.059,0.106l0.056,0.107l0.054,0.108l0.051,0.11l0.049,0.112l0.046,0.112l0.022,0.057l0.022,0.058l0.02,0.057l0.02,0.058l0.02,0.058l0.018,0.059l0.018,0.059l0.017,0.059l0.017,0.059l0.016,0.06l0.015,0.06l0.014,0.06l0.014,0.061l0.012,0.061l0.013,0.061l0.011,0.061l0.011,0.062l0.009,0.062l0.01,0.062l0.008,0.062l0.007,0.063l0.007,0.063l0.006,0.063l0.005,0.063l0.005,0.064l0.003,0.064l0.003,0.064l0.002,0.064l0.002,0.064l0,0.069l0,0.065l-0.002,0.064l-0.002,0.064l-0.003,0.064l-0.003,0.064l-0.005,0.064l-0.005,0.063l-0.006,0.063l-0.007,0.063l-0.007,0.063l-0.008,0.062l-0.01,0.062l-0.009,0.062l-0.011,0.062l-0.011,0.061l-0.013,0.061l-0.012,0.061l-0.014,0.061l-0.014,0.06l-0.015,0.06l-0.016,0.06l-0.017,0.059l-0.017,0.059l-0.018,0.059l-0.018,0.059l-0.02,0.058l-0.02,0.058l-0.02,0.057l-0.022,0.058l-0.022,0.057l-0.046,0.112l-0.049,0.112l-0.051,0.11l-0.054,0.108l-0.056,0.107l-0.059,0.106l-0.062,0.104l-0.063,0.102l-0.067,0.1l-0.068,0.099l-0.071,0.097l-0.073,0.096l-0.075,0.093l-0.078,0.092l-0.079,0.09l-0.082,0.087l-0.084,0.086l-0.086,0.084l-0.087,0.082l-0.09,0.079l-0.092,0.078l-0.093,0.075l-0.096,0.073l-0.097,0.071l-0.099,0.068l-0.1,0.067l-0.102,0.063l-0.104,0.062l-0.106,0.059l-0.107,0.056l-0.108,0.054l-0.11,0.051l-0.112,0.049l-0.112,0.046l-0.057,0.022l-0.058,0.022l-0.057,0.02l-0.058,0.02l-0.058,0.02l-0.059,0.018l-0.059,0.018l-0.059,0.017l-0.059,0.017l-0.06,0.016l-0.06,0.015l-0.06,0.014l-0.061,0.014l-0.061,0.012l-0.061,0.013l-0.061,0.011l-0.062,0.011l-0.062,0.009l-0.062,0.01l-0.062,0.008l-0.063,0.007l-0.063,0.007l-0.063,0.006l-0.063,0.005l-0.064,0.005l-0.064,0.003l-0.064,0.003l-0.064,0.002l-0.064,0.002l-0.065,0l-18.004,0l-0.065,0l-0.064,-0.002l-0.064,-0.002l-0.064,-0.003l-0.064,-0.003l-0.064,-0.005l-0.063,-0.005l-0.063,-0.006l-0.063,-0.007l-0.063,-0.007l-0.062,-0.008l-0.062,-0.01l-0.062,-0.009l-0.062,-0.011l-0.061,-0.011l-0.061,-0.013l-0.061,-0.012l-0.061,-0.014l-0.06,-0.014l-0.06,-0.015l-0.06,-0.016l-0.059,-0.017l-0.059,-0.017l-0.059,-0.018l-0.059,-0.018l-0.058,-0.02l-0.058,-0.02l-0.057,-0.02l-0.058,-0.022l-0.057,-0.022l-0.112,-0.046l-0.112,-0.049l-0.11,-0.051l-0.108,-0.054l-0.107,-0.056l-0.106,-0.059l-0.104,-0.062l-0.102,-0.063l-0.1,-0.067l-0.099,-0.068l-0.097,-0.071l-0.096,-0.073l-0.093,-0.075l-0.092,-0.078l-0.09,-0.079l-0.087,-0.082l-0.086,-0.084l-0.084,-0.086l-0.082,-0.087l-0.079,-0.09l-0.078,-0.092l-0.075,-0.093l-0.073,-0.096l-0.071,-0.097l-0.068,-0.099l-0.067,-0.1l-0.063,-0.102l-0.062,-0.104l-0.059,-0.106l-0.056,-0.107l-0.054,-0.108l-0.051,-0.11l-0.049,-0.112l-0.046,-0.112l-0.022,-0.057l-0.022,-0.058l-0.02,-0.057l-0.02,-0.058l-0.02,-0.058l-0.018,-0.059l-0.018,-0.059l-0.017,-0.059l-0.017,-0.059l-0.016,-0.06l-0.015,-0.06l-0.014,-0.06l-0.014,-0.061l-0.012,-0.061l-0.013,-0.061l-0.011,-0.061l-0.011,-0.062l-0.009,-0.062l-0.01,-0.062l-0.008,-0.062l-0.007,-0.063l-0.007,-0.063l-0.006,-0.063l-0.005,-0.063l-0.005,-0.064l-0.003,-0.064l-0.003,-0.064l-0.002,-0.064l-0.002,-0.064l0,-0.065l0,-0.004l0,-0.065l0.002,-0.064l0.002,-0.064l0.003,-0.064l0.003,-0.064l0.005,-0.064l0.005,-0.063l0.006,-0.063l0.007,-0.063l0.007,-0.063l0.008,-0.062l0.01,-0.062l0.009,-0.062l0.011,-0.062l0.011,-0.061l0.013,-0.061l0.012,-0.061l0.014,-0.061l0.014,-0.06l0.015,-0.06l0.016,-0.06l0.017,-0.059l0.017,-0.059l0.018,-0.059l0.018,-0.059l0.02,-0.058l0.02,-0.058l0.02,-0.057l0.022,-0.058l0.022,-0.057l0.046,-0.112l0.049,-0.112l0.051,-0.11l0.054,-0.108l0.056,-0.107l0.059,-0.106l0.062,-0.104l0.063,-0.102l0.067,-0.1l0.068,-0.099l0.071,-0.097l0.073,-0.096l0.075,-0.093l0.078,-0.092l0.079,-0.09l0.082,-0.087l0.084,-0.086l0.086,-0.084l0.087,-0.082l0.09,-0.079l0.092,-0.078l0.093,-0.075l0.096,-0.073l0.097,-0.071l0.099,-0.068l0.1,-0.067l0.102,-0.063l0.104,-0.062l0.106,-0.059l0.107,-0.056l0.108,-0.054l0.11,-0.051l0.112,-0.049l0.112,-0.046l0.057,-0.022l0.058,-0.022l0.057,-0.02l0.058,-0.02l0.058,-0.02l0.059,-0.018l0.059,-0.018l0.059,-0.017l0.059,-0.017l0.06,-0.016l0.06,-0.015l0.06,-0.014l0.061,-0.014l0.061,-0.012l0.061,-0.013l0.061,-0.011l0.062,-0.011l0.062,-0.009l0.062,-0.01l0.062,-0.008l0.063,-0.007l0.063,-0.007l0.063,-0.006l0.063,-0.005l0.064,-0.005l0.064,-0.003l0.064,-0.003l0.064,-0.002l0.064,-0.002l0.065,0l1.002,0c0,0 0.001,-0.103 0.001,-0.103l0.004,-0.103l0.007,-0.102l0.009,-0.101l0.011,-0.1l0.014,-0.1l0.017,-0.099l0.018,-0.098l0.022,-0.097l0.023,-0.096l0.026,-0.096l0.028,-0.094l0.03,-0.093l0.033,-0.093l0.035,-0.091l0.037,-0.09l0.039,-0.09l0.041,-0.088l0.043,-0.086l0.045,-0.086l0.047,-0.084l0.049,-0.083l0.052,-0.082l0.053,-0.081l0.054,-0.079l0.057,-0.078l0.059,-0.076l0.06,-0.075l0.062,-0.073l0.064,-0.072l0.065,-0.07l0.067,-0.069l0.069,-0.067l0.07,-0.065l0.072,-0.064l0.073,-0.062l0.075,-0.06l0.076,-0.059l0.078,-0.057l0.079,-0.054l0.081,-0.053l0.082,-0.052l0.083,-0.049l0.084,-0.047l0.086,-0.045l0.086,-0.043l0.088,-0.041l0.09,-0.039l0.09,-0.037l0.091,-0.035l0.093,-0.033l0.093,-0.03l0.094,-0.028l0.096,-0.026l0.096,-0.023l0.097,-0.022l0.098,-0.018l0.099,-0.017l0.1,-0.014l0.1,-0.011l0.101,-0.009l0.102,-0.007l0.103,-0.004l0.103,-0.001l0.108,0.001l0.107,0.005l0.106,0.007l0.106,0.01l0.104,0.012l0.104,0.015l0.103,0.018l0.103,0.021l0.101,0.023l0.1,0.025l0.099,0.028l0.098,0.031l0.097,0.033l0.096,0.035l0.095,0.038l0.093,0.04l0.047,-0.092l0.048,-0.092l0.05,-0.09l0.051,-0.09l0.053,-0.088l0.054,-0.088l0.056,-0.086l0.057,-0.086l0.059,-0.084l0.06,-0.084l0.061,-0.082l0.063,-0.081l0.064,-0.081l0.065,-0.079l0.067,-0.077l0.068,-0.077l0.069,-0.076l0.071,-0.074l0.072,-0.073l0.073,-0.072l0.074,-0.071l0.075,-0.069l0.077,-0.068l0.078,-0.067l0.079,-0.066l0.08,-0.064l0.081,-0.063l0.082,-0.061l0.084,-0.06l0.084,-0.059l0.085,-0.057l0.087,-0.056l0.087,-0.055l0.089,-0.053l0.089,-0.051l0.091,-0.05l0.091,-0.048l0.092,-0.047l0.093,-0.046l0.094,-0.044l0.095,-0.042l0.096,-0.04l0.097,-0.039l0.097,-0.038l0.098,-0.035l0.099,-0.034l0.1,-0.033l0.101,-0.03l0.101,-0.029l0.102,-0.027l0.103,-0.026l0.103,-0.023l0.104,-0.022l0.105,-0.02l0.105,-0.018l0.106,-0.017l0.107,-0.014l0.107,-0.013l0.108,-0.01l0.108,-0.009l0.109,-0.007l0.109,-0.005l0.11,-0.003l0.11,-0.001l0.077,0Zm-0.169,1.001l-0.092,0.002l-0.091,0.004l-0.091,0.006l-0.09,0.008l-0.09,0.009l-0.089,0.01l-0.089,0.012l-0.088,0.014l-0.088,0.015l-0.087,0.017l-0.087,0.018l-0.086,0.019l-0.085,0.021l-0.085,0.023l-0.084,0.024l-0.084,0.026l-0.083,0.026l-0.082,0.029l-0.082,0.029l-0.081,0.031l-0.081,0.033l-0.079,0.034l-0.079,0.035l-0.079,0.036l-0.077,0.038l-0.077,0.039l-0.076,0.04l-0.076,0.042l-0.074,0.043l-0.074,0.044l-0.073,0.045l-0.072,0.047l-0.071,0.048l-0.07,0.049l-0.07,0.05l-0.069,0.051l-0.067,0.052l-0.067,0.054l-0.066,0.055l-0.065,0.055l-0.064,0.057l-0.063,0.058l-0.062,0.059l-0.061,0.06l-0.06,0.061l-0.058,0.062l-0.058,0.063l-0.057,0.064l-0.056,0.065l-0.054,0.066l-0.054,0.067l-0.052,0.068l-0.051,0.069l-0.05,0.069l-0.049,0.071l-0.048,0.071l-0.046,0.072l-0.045,0.073l-0.044,0.074l-0.043,0.075l-0.042,0.075l-0.04,0.076l-0.466,0.922l-0.945,-0.405l-0.071,-0.028l-0.071,-0.026l-0.073,-0.025l-0.073,-0.023l-0.074,-0.021l-0.075,-0.019l-0.076,-0.017l-0.076,-0.016l-0.078,-0.013l-0.077,-0.012l-0.079,-0.009l-0.079,-0.007l-0.08,-0.006l-0.081,-0.003l-0.081,-0.001l-0.078,0.001l-0.077,0.003l-0.077,0.005l-0.076,0.007l-0.075,0.008l-0.075,0.011l-0.074,0.012l-0.073,0.014l-0.073,0.016l-0.072,0.017l-0.071,0.02l-0.071,0.021l-0.07,0.023l-0.069,0.024l-0.068,0.026l-0.068,0.028l-0.066,0.029l-0.066,0.031l-0.065,0.032l-0.064,0.034l-0.064,0.035l-0.062,0.037l-0.061,0.038l-0.061,0.04l-0.059,0.041l-0.059,0.043l-0.057,0.044l-0.056,0.045l-0.055,0.047l-0.054,0.048l-0.053,0.049l-0.052,0.05l-0.05,0.052l-0.049,0.053l-0.048,0.054l-0.047,0.055l-0.045,0.056l-0.044,0.057l-0.043,0.059l-0.041,0.059l-0.04,0.061l-0.038,0.061l-0.037,0.062l-0.035,0.064l-0.034,0.064l-0.032,0.065l-0.031,0.066l-0.029,0.066l-0.028,0.068l-0.026,0.068l-0.024,0.069l-0.023,0.07l-0.021,0.071l-0.02,0.071l-0.017,0.072l-0.016,0.073l-0.014,0.073l-0.012,0.074l-0.011,0.075l-0.008,0.075l-0.007,0.076l-0.005,0.077l-0.003,0.077l-0.014,1.078l-1.986,0l-0.055,0l-0.052,0.001l-0.051,0.002l-0.052,0.002l-0.051,0.003l-0.051,0.004l-0.05,0.004l-0.051,0.005l-0.05,0.005l-0.051,0.006l-0.049,0.007l-0.05,0.007l-0.05,0.008l-0.049,0.009l-0.049,0.009l-0.049,0.009l-0.048,0.011l-0.049,0.01l-0.048,0.012l-0.048,0.012l-0.048,0.012l-0.047,0.014l-0.047,0.013l-0.047,0.015l-0.047,0.014l-0.047,0.016l-0.046,0.016l-0.046,0.016l-0.045,0.017l-0.043,0.017l-0.093,0.038l-0.089,0.039l-0.088,0.041l-0.086,0.043l-0.086,0.045l-0.084,0.047l-0.083,0.049l-0.082,0.051l-0.081,0.053l-0.079,0.055l-0.077,0.057l-0.077,0.058l-0.075,0.061l-0.073,0.062l-0.072,0.063l-0.07,0.066l-0.069,0.067l-0.067,0.069l-0.066,0.07l-0.063,0.072l-0.062,0.073l-0.061,0.075l-0.058,0.077l-0.057,0.077l-0.055,0.079l-0.053,0.081l-0.051,0.082l-0.049,0.083l-0.047,0.084l-0.045,0.086l-0.043,0.086l-0.041,0.088l-0.039,0.089l-0.038,0.093l-0.017,0.043l-0.017,0.045l-0.016,0.046l-0.016,0.047l-0.016,0.046l-0.014,0.047l-0.015,0.047l-0.013,0.047l-0.014,0.047l-0.012,0.048l-0.012,0.048l-0.012,0.048l-0.01,0.049l-0.011,0.048l-0.009,0.049l-0.01,0.049l-0.008,0.049l-0.008,0.05l-0.007,0.05l-0.007,0.05l-0.006,0.05l-0.005,0.05l-0.005,0.051l-0.004,0.05l-0.004,0.051l-0.003,0.051l-0.002,0.052l-0.002,0.051l-0.001,0.052l0,0.054l0,0.054l0.001,0.052l0.002,0.051l0.002,0.052l0.003,0.051l0.004,0.051l0.004,0.05l0.005,0.051l0.005,0.05l0.006,0.05l0.007,0.05l0.007,0.05l0.008,0.05l0.008,0.049l0.01,0.049l0.009,0.049l0.011,0.048l0.01,0.049l0.012,0.048l0.012,0.048l0.012,0.048l0.014,0.047l0.013,0.047l0.015,0.047l0.014,0.047l0.016,0.046l0.016,0.047l0.016,0.046l0.017,0.045l0.017,0.043l0.038,0.093l0.039,0.089l0.041,0.088l0.043,0.086l0.045,0.086l0.047,0.084l0.049,0.083l0.051,0.082l0.053,0.081l0.055,0.079l0.057,0.077l0.058,0.077l0.061,0.075l0.062,0.073l0.063,0.072l0.066,0.07l0.067,0.069l0.069,0.067l0.07,0.066l0.072,0.063l0.073,0.062l0.075,0.061l0.077,0.058l0.077,0.057l0.079,0.055l0.081,0.053l0.082,0.051l0.083,0.049l0.084,0.047l0.086,0.045l0.086,0.043l0.088,0.041l0.089,0.039l0.093,0.038l0.043,0.017l0.045,0.017l0.046,0.016l0.047,0.016l0.046,0.016l0.047,0.014l0.047,0.015l0.047,0.013l0.047,0.014l0.048,0.012l0.048,0.012l0.048,0.012l0.049,0.01l0.048,0.011l0.049,0.009l0.049,0.009l0.049,0.009l0.05,0.008l0.05,0.007l0.049,0.007l0.051,0.006l0.05,0.005l0.051,0.005l0.05,0.004l0.051,0.004l0.051,0.003l0.052,0.002l0.051,0.002l0.052,0.001l0.055,0l17.998,0l0.055,0l0.052,-0.001l0.051,-0.002l0.052,-0.002l0.051,-0.003l0.051,-0.004l0.05,-0.004l0.051,-0.005l0.05,-0.005l0.051,-0.006l0.049,-0.007l0.05,-0.007l0.05,-0.008l0.049,-0.009l0.049,-0.009l0.049,-0.009l0.048,-0.011l0.049,-0.01l0.048,-0.012l0.048,-0.012l0.048,-0.012l0.047,-0.014l0.047,-0.013l0.047,-0.015l0.047,-0.014l0.046,-0.016l0.047,-0.016l0.046,-0.016l0.045,-0.017l0.043,-0.017l0.093,-0.038l0.089,-0.039l0.088,-0.041l0.086,-0.043l0.086,-0.045l0.084,-0.047l0.083,-0.049l0.082,-0.051l0.081,-0.053l0.079,-0.055l0.077,-0.057l0.077,-0.058l0.075,-0.061l0.073,-0.062l0.072,-0.063l0.07,-0.066l0.069,-0.067l0.067,-0.069l0.066,-0.07l0.063,-0.072l0.062,-0.073l0.061,-0.075l0.058,-0.077l0.057,-0.077l0.055,-0.079l0.053,-0.081l0.051,-0.082l0.049,-0.083l0.047,-0.084l0.045,-0.086l0.043,-0.086l0.041,-0.088l0.039,-0.089l0.038,-0.093l0.017,-0.043l0.017,-0.045l0.016,-0.046l0.016,-0.047l0.016,-0.046l0.014,-0.047l0.015,-0.047l0.013,-0.047l0.014,-0.047l0.012,-0.048l0.012,-0.048l0.012,-0.048l0.01,-0.049l0.011,-0.048l0.009,-0.049l0.009,-0.049l0.009,-0.049l0.008,-0.05l0.007,-0.05l0.007,-0.05l0.006,-0.05l0.005,-0.05l0.005,-0.051l0.004,-0.05l0.004,-0.051l0.003,-0.051l0.002,-0.052l0.002,-0.051l0.001,-0.052l0,-0.054l0,-0.054l-0.001,-0.052l-0.002,-0.051l-0.002,-0.052l-0.003,-0.051l-0.004,-0.051l-0.004,-0.05l-0.005,-0.051l-0.005,-0.05l-0.006,-0.05l-0.007,-0.05l-0.007,-0.05l-0.008,-0.05l-0.009,-0.049l-0.009,-0.049l-0.009,-0.049l-0.011,-0.048l-0.01,-0.049l-0.012,-0.048l-0.012,-0.048l-0.012,-0.048l-0.014,-0.047l-0.013,-0.047l-0.015,-0.047l-0.014,-0.047l-0.016,-0.046l-0.016,-0.047l-0.016,-0.046l-0.017,-0.045l-0.017,-0.043l-0.038,-0.093l-0.039,-0.089l-0.041,-0.088l-0.043,-0.086l-0.045,-0.086l-0.047,-0.084l-0.049,-0.083l-0.051,-0.082l-0.053,-0.081l-0.055,-0.079l-0.057,-0.077l-0.058,-0.077l-0.061,-0.075l-0.062,-0.073l-0.063,-0.072l-0.066,-0.07l-0.067,-0.069l-0.069,-0.067l-0.07,-0.066l-0.072,-0.063l-0.073,-0.062l-0.075,-0.061l-0.077,-0.058l-0.077,-0.057l-0.079,-0.055l-0.081,-0.053l-0.082,-0.051l-0.083,-0.049l-0.084,-0.047l-0.086,-0.045l-0.086,-0.043l-0.088,-0.041l-0.089,-0.039l-0.093,-0.038l-0.043,-0.017l-0.045,-0.017l-0.046,-0.016l-0.046,-0.016l-0.047,-0.016l-0.047,-0.014l-0.047,-0.015l-0.047,-0.013l-0.047,-0.014l-0.048,-0.012l-0.048,-0.012l-0.048,-0.012l-0.049,-0.01l-0.048,-0.011l-0.049,-0.009l-0.049,-0.009l-0.049,-0.009l-0.05,-0.008l-0.05,-0.007l-0.049,-0.007l-0.051,-0.006l-0.05,-0.005l-0.051,-0.005l-0.05,-0.004l-0.051,-0.004l-0.051,-0.003l-0.052,-0.002l-0.051,-0.002l-0.052,-0.001l-0.055,0l-1.252,0l0.2,-1.268l0.014,-0.102l0.012,-0.104l0.009,-0.104l0.008,-0.104l0.006,-0.105l0.003,-0.106l0.001,-0.109l0,-0.063l-0.002,-0.064l-0.002,-0.065l-0.003,-0.064l-0.003,-0.064l-0.005,-0.063l-0.005,-0.064l-0.006,-0.063l-0.007,-0.063l-0.007,-0.063l-0.009,-0.062l-0.009,-0.062l-0.01,-0.062l-0.01,-0.062l-0.012,-0.061l-0.012,-0.061l-0.013,-0.061l-0.013,-0.06l-0.014,-0.06l-0.015,-0.06l-0.016,-0.06l-0.017,-0.059l-0.017,-0.059l-0.018,-0.059l-0.018,-0.059l-0.02,-0.058l-0.02,-0.058l-0.02,-0.057l-0.022,-0.057l-0.022,-0.057l-0.022,-0.057l-0.024,-0.056l-0.024,-0.056l-0.024,-0.055l-0.026,-0.055l-0.026,-0.055l-0.026,-0.054l-0.028,-0.054l-0.028,-0.054l-0.028,-0.053l-0.029,-0.053l-0.03,-0.053l-0.031,-0.052l-0.031,-0.052l-0.031,-0.051l-0.033,-0.051l-0.032,-0.051l-0.034,-0.05l-0.034,-0.049l-0.034,-0.05l-0.036,-0.049l-0.035,-0.048l-0.037,-0.048l-0.037,-0.047l-0.037,-0.047l-0.038,-0.047l-0.039,-0.046l-0.039,-0.046l-0.039,-0.045l-0.04,-0.045l-0.041,-0.044l-0.041,-0.044l-0.042,-0.043l-0.042,-0.043l-0.043,-0.042l-0.043,-0.042l-0.044,-0.041l-0.044,-0.041l-0.045,-0.04l-0.045,-0.039l-0.046,-0.039l-0.046,-0.039l-0.047,-0.038l-0.047,-0.037l-0.047,-0.037l-0.048,-0.037l-0.048,-0.035l-0.049,-0.036l-0.05,-0.034l-0.049,-0.034l-0.05,-0.034l-0.051,-0.032l-0.051,-0.033l-0.051,-0.031l-0.052,-0.031l-0.052,-0.031l-0.053,-0.03l-0.053,-0.029l-0.053,-0.028l-0.054,-0.028l-0.054,-0.028l-0.054,-0.026l-0.055,-0.026l-0.055,-0.026l-0.055,-0.024l-0.056,-0.024l-0.056,-0.024l-0.057,-0.022l-0.057,-0.022l-0.057,-0.022l-0.057,-0.02l-0.058,-0.02l-0.058,-0.02l-0.059,-0.018l-0.059,-0.018l-0.059,-0.017l-0.059,-0.017l-0.06,-0.016l-0.06,-0.015l-0.06,-0.014l-0.06,-0.013l-0.061,-0.013l-0.061,-0.012l-0.062,-0.012l-0.061,-0.01l-0.062,-0.01l-0.062,-0.009l-0.063,-0.009l-0.062,-0.007l-0.063,-0.007l-0.063,-0.006l-0.064,-0.005l-0.063,-0.005l-0.064,-0.003l-0.064,-0.003l-0.065,-0.002l-0.064,-0.002l-0.064,0l-0.093,0.001Z" style="fill:#e6e6e6;"/></g></g></svg>