<?xml version="1.0" encoding="UTF-8" standalone="no"?><!DOCTYPE svg PUBLIC "-//W3C//DTD SVG 1.1//EN" "http://www.w3.org/Graphics/SVG/1.1/DTD/svg11.dtd"><svg width="100%" height="100%" viewBox="0 0 32 32" version="1.1" xmlns="http://www.w3.org/2000/svg" xmlns:xlink="http://www.w3.org/1999/xlink" xml:space="preserve" xmlns:serif="http://www.serif.com/" style="fill-rule:evenodd;clip-rule:evenodd;stroke-linecap:square;stroke-linejoin:round;stroke-miterlimit:1.5;"><rect id="umbrella_with_rain" x="0" y="0" width="32" height="32" style="fill:none;"/><clipPath id="_clip1"><rect x="0" y="0" width="32" height="32"/></clipPath><g clip-path="url(#_clip1)"><g id="outline"><path d="M16,14c0,0 0,8.916 0,13c0,0.53 -0.211,1.039 -0.586,1.414c-0.375,0.375 -0.884,0.586 -1.414,0.586c-0.001,0 -0.001,0 -0.002,0c-1.103,0 -1.998,-0.895 -1.998,-1.998c0,-0.001 0,-0.002 0,-0.002" style="fill:none;stroke:#000;stroke-width:6px;"/><path d="M17,5.455l0,-3.455c0,0 1.793,1.793 2.607,2.607c0.252,0.252 0.393,0.593 0.393,0.949c0,0.001 0,0.001 0,0.002c0,0.382 -0.152,0.749 -0.422,1.02c-0.012,0.011 -0.023,0.022 -0.034,0.033l3.456,1.571l0,-1.182l2.69,2.69c1.223,0.935 2.226,2.141 2.923,3.536c0.711,1.421 1.387,2.774 1.387,2.774c0,0 -1.246,0 -2.348,0c-1.086,0 -2.158,0.253 -3.13,0.739c-1.139,0.57 -2.522,1.261 -2.522,1.261c0,0 -3.107,-0.518 -4.849,-0.808c-0.762,-0.127 -1.54,-0.127 -2.302,0c-1.742,0.29 -4.849,0.808 -4.849,0.808c0,0 -1.383,-0.691 -2.522,-1.261c-0.972,-0.486 -2.044,-0.739 -3.13,-0.739c-1.102,0 -2.348,0 -2.348,0c0,0 0.676,-1.353 1.387,-2.774c0.905,-1.811 2.327,-3.305 4.075,-4.299c-0.843,-0.235 -1.462,-1.009 -1.462,-1.927c0,-2.069 0,-5 0,-5c0,0 2.258,2.258 3.381,3.381c0.396,0.396 0.619,0.934 0.619,1.494c0,0.041 0,0.083 0,0.125c0,0.279 -0.058,0.553 -0.169,0.804l4.169,-1.895l0,-0.909l0.625,0.625l1.375,-0.625l1,0.455Z" style="fill:none;stroke:#000;stroke-width:4px;stroke-linecap:round;stroke-miterlimit:3;"/></g><g id="emoji"><path d="M16,14c0,0 0,8.916 0,13c0,0.53 -0.211,1.039 -0.586,1.414c-0.375,0.375 -0.884,0.586 -1.414,0.586c-0.001,0 -0.001,0 -0.002,0c-1.103,0 -1.998,-0.895 -1.998,-1.998c0,-0.001 0,-0.002 0,-0.002" style="fill:none;stroke:#525252;stroke-width:2px;"/><rect x="15" y="16.249" width="2" height="6.751" style="fill:#3d3d3d;"/><path d="M23.716,8.507c2.125,0.966 3.853,2.632 4.897,4.719c0.711,1.421 1.387,2.774 1.387,2.774c0,0 -1.246,0 -2.348,0c-1.086,0 -2.158,0.253 -3.13,0.739l-2.522,1.261l-6,-13l7.716,3.507Z" style="fill:#a31f28;"/><path d="M19.567,10.351c0.287,0.43 0.505,0.902 0.647,1.399l1.786,6.25c0,0 -3.107,-0.518 -4.849,-0.808c-0.762,-0.127 -1.54,-0.127 -2.302,0c-1.742,0.29 -4.849,0.808 -4.849,0.808c0,0 -1.383,-0.691 -2.522,-1.261c-0.972,-0.486 -2.044,-0.739 -3.13,-0.739c-1.102,0 -2.348,0 -2.348,0c0,0 0.676,-1.353 1.387,-2.774c1.044,-2.087 2.772,-3.753 4.897,-4.719c3.241,-1.473 7.716,-3.507 7.716,-3.507l3.567,5.351Z" style="fill:#e82731;"/><clipPath id="_clip2"><path d="M19.567,10.351c0.287,0.43 0.505,0.902 0.647,1.399l1.786,6.25c0,0 -3.107,-0.518 -4.849,-0.808c-0.762,-0.127 -1.54,-0.127 -2.302,0c-1.742,0.29 -4.849,0.808 -4.849,0.808c0,0 -1.383,-0.691 -2.522,-1.261c-0.972,-0.486 -2.044,-0.739 -3.13,-0.739c-1.102,0 -2.348,0 -2.348,0c0,0 0.676,-1.353 1.387,-2.774c1.044,-2.087 2.772,-3.753 4.897,-4.719c3.241,-1.473 7.716,-3.507 7.716,-3.507l3.567,5.351Z"/></clipPath><g clip-path="url(#_clip2)"><path d="M16,4l0,1c0,0 -2.532,3.798 -3.567,5.351c-0.287,0.43 -0.505,0.902 -0.647,1.399c-0.517,1.807 -1.786,6.25 -1.786,6.25l0,2" style="fill:none;stroke:#bd242e;stroke-width:2px;stroke-miterlimit:3;"/></g><path d="M14,5c0,0 0,2.931 0,5c0,1.105 0.895,2 2,2c0.53,0 1.039,-0.211 1.414,-0.586c0.375,-0.375 0.586,-0.884 0.586,-1.414c0,-0.042 0,-0.084 0,-0.125c0,-0.56 -0.223,-1.098 -0.619,-1.494c-1.123,-1.123 -3.381,-3.381 -3.381,-3.381Z" style="fill:#10bfff;"/><path d="M17,2c0,0 0,2.027 0,3.5c0,0.398 0.158,0.779 0.439,1.061c0.282,0.281 0.663,0.439 1.061,0.439c0.019,0 0.039,0 0.058,0c0.382,0 0.749,-0.152 1.02,-0.422c0.27,-0.271 0.422,-0.638 0.422,-1.02c0,-0.001 0,-0.001 0,-0.002c0,-0.356 -0.141,-0.697 -0.393,-0.949c-0.814,-0.814 -2.607,-2.607 -2.607,-2.607Z" style="fill:#10bfff;"/><path d="M10,10c0,0 0,2.027 0,3.5c0,0.398 0.158,0.779 0.439,1.061c0.282,0.281 0.663,0.439 1.061,0.439c0.019,0 0.039,0 0.058,0c0.382,0 0.749,-0.152 1.02,-0.422c0.27,-0.271 0.422,-0.638 0.422,-1.02c0,-0.001 0,-0.001 0,-0.002c0,-0.356 -0.141,-0.697 -0.393,-0.949c-0.814,-0.814 -2.607,-2.607 -2.607,-2.607Z" style="fill:#10bfff;"/><path d="M23,7c0,0 0,2.931 0,5c0,1.105 0.895,2 2,2c0.53,0 1.039,-0.211 1.414,-0.586c0.375,-0.375 0.586,-0.884 0.586,-1.414c0,-0.042 0,-0.084 0,-0.125c0,-0.56 -0.223,-1.098 -0.619,-1.494c-1.123,-1.123 -3.381,-3.381 -3.381,-3.381Z" style="fill:#10bfff;"/><path d="M6,2c0,0 0,2.931 0,5c0,1.105 0.895,2 2,2c0.53,0 1.039,-0.211 1.414,-0.586c0.375,-0.375 0.586,-0.884 0.586,-1.414c0,-0.042 0,-0.084 0,-0.125c0,-0.56 -0.223,-1.098 -0.619,-1.494c-1.123,-1.123 -3.381,-3.381 -3.381,-3.381Z" style="fill:#10bfff;"/></g></g></svg>