<?xml version="1.0" encoding="UTF-8" standalone="no"?><!DOCTYPE svg PUBLIC "-//W3C//DTD SVG 1.1//EN" "http://www.w3.org/Graphics/SVG/1.1/DTD/svg11.dtd"><svg width="100%" height="100%" viewBox="0 0 32 32" version="1.1" xmlns="http://www.w3.org/2000/svg" xmlns:xlink="http://www.w3.org/1999/xlink" xml:space="preserve" xmlns:serif="http://www.serif.com/" style="fill-rule:evenodd;clip-rule:evenodd;stroke-linecap:round;stroke-linejoin:round;"><rect id="water_drop" x="0" y="0" width="32" height="32" style="fill:none;"/><g id="outline"><path d="M16,3c0,0 -4.329,10.101 -6.982,16.292c-1.219,2.844 -0.584,6.142 1.604,8.33c0.009,0.009 0.019,0.019 0.029,0.029c2.954,2.954 7.744,2.954 10.698,0c0.01,-0.01 0.02,-0.02 0.029,-0.029c2.188,-2.188 2.823,-5.486 1.604,-8.33c-2.653,-6.191 -6.982,-16.292 -6.982,-16.292Z" style="fill:none;stroke:#000;stroke-width:4px;"/></g><g id="emoji"><path d="M16,3c0,0 -4.329,10.101 -6.982,16.292c-1.219,2.844 -0.584,6.142 1.604,8.33c0.009,0.009 0.019,0.019 0.029,0.029c2.954,2.954 7.744,2.954 10.698,0c0.01,-0.01 0.02,-0.02 0.029,-0.029c2.188,-2.188 2.823,-5.486 1.604,-8.33c-2.653,-6.191 -6.982,-16.292 -6.982,-16.292Z" style="fill:#10bfff;"/><clipPath id="_clip1"><path d="M16,3c0,0 -4.329,10.101 -6.982,16.292c-1.219,2.844 -0.584,6.142 1.604,8.33c0.009,0.009 0.019,0.019 0.029,0.029c2.954,2.954 7.744,2.954 10.698,0c0.01,-0.01 0.02,-0.02 0.029,-0.029c2.188,-2.188 2.823,-5.486 1.604,-8.33c-2.653,-6.191 -6.982,-16.292 -6.982,-16.292Z"/></clipPath><g clip-path="url(#_clip1)"><path d="M16,2c0,0 0,10.105 0,16.618c0,3.446 -1.369,6.751 -3.806,9.188c-2.062,2.062 -4.194,4.194 -4.194,4.194l0,-30l8,0Z" style="fill:#9ce5ff;"/></g><path d="M22.982,19.292l0.056,0.134l0.053,0.134l0.051,0.135l0.047,0.135l0.045,0.136l0.042,0.137l0.04,0.137l0.037,0.137l0.034,0.137l0.032,0.138l0.029,0.139l0.026,0.138l0.024,0.139l0.021,0.139l0.019,0.139l0.015,0.14l0.014,0.139l0.01,0.14l0.008,0.139l0.006,0.139l0.003,0.14l0,0.139l-0.002,0.139l-0.005,0.14l-0.007,0.138l-0.01,0.139l-0.013,0.138l-0.014,0.138l-0.018,0.138l-0.02,0.138l-0.022,0.136l-0.025,0.137l-0.028,0.136l-0.03,0.135l-0.032,0.135l-0.035,0.135l-0.038,0.134l-0.04,0.133l-0.042,0.132l-0.045,0.132l-0.047,0.131l-0.049,0.13l-0.052,0.129l-0.055,0.128l-0.057,0.128l-0.059,0.126l-0.062,0.126l-0.064,0.124l-0.066,0.124l-0.069,0.122l-0.071,0.121l-0.074,0.12l-0.076,0.119l-0.078,0.118l-0.081,0.116l-0.083,0.115l-0.085,0.114l-0.088,0.112l-0.09,0.111l-0.092,0.11l-0.094,0.108l-0.097,0.106l-0.099,0.105l-0.102,0.104l-0.029,0.029l-0.069,0.068l-0.07,0.068l-0.071,0.067l-0.072,0.065l-0.072,0.064l-0.073,0.064l-0.073,0.062l-0.074,0.061l-0.075,0.06l-0.075,0.059l-0.076,0.058l-0.076,0.057l-0.077,0.055l-0.077,0.055l-0.078,0.054l-0.078,0.052l-0.079,0.051l-0.08,0.051l-0.08,0.049l-0.08,0.048l-0.081,0.047l-0.081,0.046l-0.082,0.045l-0.082,0.044l-0.082,0.043l-0.083,0.041l-0.084,0.041l-0.084,0.039l-0.084,0.039l-0.084,0.037l-0.085,0.036l-0.085,0.035l-0.086,0.035l-0.086,0.033l-0.086,0.031l-0.086,0.031l-0.087,0.03l-0.087,0.029l-0.088,0.027l-0.087,0.027l-0.088,0.025l-0.088,0.025l-0.088,0.023l-0.089,0.022l-0.089,0.021l-0.089,0.02l-0.089,0.019l-0.089,0.018l-0.09,0.017l-0.089,0.015l-0.09,0.015l-0.09,0.014l-0.09,0.012l-0.09,0.011l-0.09,0.011l-0.091,0.009l-0.09,0.008l-0.091,0.007l-0.09,0.006l-0.091,0.005l-0.091,0.004l-0.091,0.002l-0.09,0.002l-0.091,0l-0.091,0l-0.09,-0.002l-0.091,-0.002l-0.091,-0.004l-0.091,-0.005l-0.09,-0.006l-0.091,-0.007l-0.09,-0.008l-0.091,-0.009l-0.09,-0.011l-0.09,-0.011l-0.09,-0.012l-0.09,-0.014l-0.09,-0.015l-0.089,-0.015l-0.09,-0.017l-0.089,-0.018l-0.089,-0.019l-0.089,-0.02l-0.089,-0.021l-0.089,-0.022l-0.088,-0.023l-0.088,-0.025l-0.088,-0.025l-0.087,-0.027l-0.088,-0.027l-0.087,-0.029l-0.087,-0.03l-0.086,-0.031l-0.086,-0.031l-0.086,-0.033l-0.086,-0.035l-0.085,-0.035l-0.085,-0.036l-0.084,-0.037l-0.084,-0.039l-0.084,-0.039l-0.084,-0.041l-0.083,-0.041l-0.082,-0.043l-0.082,-0.044l-0.082,-0.045l-0.081,-0.046l-0.081,-0.047l-0.08,-0.048l-0.08,-0.049l-0.08,-0.051l-0.079,-0.051l-0.078,-0.052l-0.078,-0.054l-0.077,-0.055l-0.077,-0.055l-0.076,-0.057l-0.076,-0.058l-0.075,-0.059l-0.075,-0.06l-0.074,-0.061l-0.073,-0.062l-0.073,-0.064l-0.072,-0.064l-0.072,-0.065l-0.071,-0.067l-0.07,-0.068l-0.069,-0.068l-0.029,-0.029l-0.102,-0.104l-0.099,-0.105l-0.097,-0.106l-0.094,-0.108l-0.092,-0.11l-0.09,-0.111l-0.088,-0.112l-0.085,-0.114l-0.083,-0.115l-0.081,-0.116l-0.078,-0.118l-0.076,-0.119l-0.074,-0.12l-0.071,-0.121l-0.069,-0.122l-0.066,-0.124l-0.064,-0.124l-0.062,-0.126l-0.059,-0.126l-0.057,-0.128l-0.055,-0.128l-0.052,-0.129l-0.049,-0.13l-0.047,-0.131l-0.045,-0.132l-0.042,-0.132l-0.04,-0.133l-0.038,-0.134l-0.035,-0.135l-0.032,-0.135l-0.03,-0.135l-0.028,-0.136l-0.025,-0.137l-0.022,-0.136l-0.02,-0.138l-0.018,-0.138l-0.014,-0.138l-0.013,-0.138l-0.01,-0.139l-0.007,-0.138l-0.005,-0.14l-0.002,-0.139l0,-0.139l0.003,-0.14l0.006,-0.139l0.008,-0.139l0.01,-0.14l0.014,-0.139l0.015,-0.14l0.019,-0.139l0.021,-0.139l0.024,-0.139l0.026,-0.138l0.029,-0.139l0.032,-0.138l0.034,-0.137l0.037,-0.137l0.04,-0.137l0.042,-0.137l0.045,-0.136l0.047,-0.135l0.051,-0.135l0.053,-0.134l0.056,-0.134l6.982,-16.292l6.982,16.292Zm-12.122,0.78l-0.045,0.107l-0.039,0.099l-0.037,0.099l-0.035,0.099l-0.034,0.101l-0.031,0.1l-0.029,0.101l-0.027,0.1l-0.025,0.102l-0.023,0.101l-0.022,0.102l-0.019,0.101l-0.017,0.102l-0.016,0.103l-0.014,0.102l-0.011,0.103l-0.01,0.102l-0.008,0.102l-0.006,0.103l-0.004,0.102l-0.002,0.103l0,0.103l0.002,0.102l0.003,0.102l0.005,0.103l0.008,0.102l0.009,0.101l0.011,0.102l0.013,0.101l0.014,0.101l0.017,0.101l0.018,0.101l0.021,0.1l0.022,0.1l0.024,0.099l0.025,0.099l0.028,0.098l0.029,0.098l0.031,0.098l0.033,0.097l0.035,0.096l0.036,0.095l0.039,0.096l0.04,0.094l0.042,0.094l0.043,0.093l0.046,0.092l0.047,0.091l0.049,0.091l0.05,0.09l0.052,0.089l0.055,0.088l0.055,0.088l0.058,0.086l0.059,0.086l0.061,0.085l0.063,0.083l0.064,0.083l0.066,0.081l0.068,0.081l0.07,0.08l0.071,0.078l0.073,0.077l0.082,0.083l0.018,0.018l0.055,0.055l0.052,0.05l0.053,0.05l0.053,0.048l0.053,0.047l0.054,0.047l0.054,0.046l0.054,0.045l0.055,0.044l0.056,0.044l0.055,0.042l0.056,0.042l0.057,0.041l0.057,0.04l0.057,0.039l0.058,0.039l0.057,0.038l0.059,0.037l0.058,0.036l0.059,0.035l0.06,0.035l0.059,0.033l0.06,0.033l0.06,0.032l0.061,0.032l0.061,0.03l0.061,0.03l0.061,0.029l0.062,0.028l0.062,0.028l0.062,0.026l0.063,0.026l0.063,0.025l0.063,0.024l0.063,0.024l0.064,0.022l0.063,0.022l0.064,0.021l0.064,0.021l0.065,0.019l0.064,0.019l0.065,0.018l0.065,0.017l0.065,0.016l0.065,0.016l0.066,0.014l0.066,0.014l0.065,0.013l0.066,0.013l0.066,0.011l0.066,0.011l0.067,0.01l0.066,0.009l0.066,0.009l0.067,0.007l0.067,0.007l0.066,0.006l0.067,0.005l0.067,0.004l0.066,0.004l0.067,0.003l0.067,0.002l0.067,0.001l0.067,0l0.067,0l0.067,-0.001l0.067,-0.002l0.067,-0.003l0.066,-0.004l0.067,-0.004l0.067,-0.005l0.066,-0.006l0.067,-0.007l0.067,-0.007l0.066,-0.009l0.066,-0.009l0.067,-0.01l0.066,-0.011l0.066,-0.011l0.066,-0.013l0.066,-0.013l0.065,-0.014l0.065,-0.014l0.066,-0.016l0.065,-0.016l0.065,-0.017l0.065,-0.018l0.064,-0.019l0.065,-0.019l0.064,-0.021l0.064,-0.021l0.064,-0.022l0.063,-0.022l0.063,-0.024l0.063,-0.024l0.063,-0.025l0.063,-0.026l0.062,-0.026l0.062,-0.028l0.062,-0.028l0.061,-0.029l0.061,-0.03l0.061,-0.03l0.061,-0.032l0.06,-0.032l0.06,-0.033l0.059,-0.033l0.06,-0.035l0.059,-0.035l0.058,-0.036l0.059,-0.037l0.058,-0.038l0.057,-0.039l0.058,-0.039l0.056,-0.04l0.057,-0.041l0.056,-0.042l0.055,-0.042l0.056,-0.044l0.055,-0.044l0.054,-0.045l0.054,-0.046l0.054,-0.047l0.053,-0.047l0.053,-0.048l0.053,-0.05l0.051,-0.05l0.056,-0.055l0.018,-0.018l0.082,-0.083l0.073,-0.077l0.071,-0.078l0.07,-0.08l0.068,-0.081l0.066,-0.081l0.064,-0.083l0.063,-0.083l0.061,-0.085l0.059,-0.086l0.058,-0.086l0.055,-0.087l0.054,-0.089l0.053,-0.089l0.05,-0.09l0.049,-0.091l0.047,-0.091l0.046,-0.092l0.043,-0.093l0.042,-0.094l0.04,-0.095l0.039,-0.094l0.036,-0.096l0.035,-0.096l0.033,-0.097l0.031,-0.098l0.029,-0.098l0.028,-0.098l0.025,-0.099l0.024,-0.099l0.022,-0.1l0.021,-0.1l0.018,-0.101l0.017,-0.101l0.014,-0.101l0.013,-0.101l0.011,-0.102l0.009,-0.102l0.008,-0.101l0.005,-0.103l0.003,-0.102l0.002,-0.102l0,-0.103l-0.002,-0.102l-0.004,-0.103l-0.006,-0.103l-0.008,-0.102l-0.01,-0.103l-0.011,-0.102l-0.014,-0.102l-0.016,-0.102l-0.017,-0.103l-0.019,-0.101l-0.022,-0.102l-0.023,-0.101l-0.025,-0.102l-0.027,-0.1l-0.029,-0.101l-0.032,-0.101l-0.033,-0.099l-0.035,-0.1l-0.037,-0.099l-0.039,-0.099l-0.045,-0.108l-5.14,-11.994l-5.14,11.995Z" style="fill:#10bfff;"/></g></svg>