<?xml version="1.0" encoding="UTF-8" standalone="no"?>
<!DOCTYPE svg PUBLIC "-//W3C//DTD SVG 1.1//EN" "http://www.w3.org/Graphics/SVG/1.1/DTD/svg11.dtd">
<svg width="100%" height="100%" viewBox="0 0 32 32" version="1.1" xmlns="http://www.w3.org/2000/svg" xmlns:xlink="http://www.w3.org/1999/xlink" xml:space="preserve" xmlns:serif="http://www.serif.com/" style="fill-rule:evenodd;clip-rule:evenodd;stroke-linecap:square;stroke-linejoin:round;stroke-miterlimit:1.5;">
    <rect id="crescent" x="0" y="0" width="32" height="32" style="fill:none;"/>
    <clipPath id="_clip1">
        <rect x="0" y="0" width="32" height="32"/>
    </clipPath>
    <g clip-path="url(#_clip1)">
        <g id="outline">
            <path d="M26.488,27.131c-2.356,1.8 -5.298,2.869 -8.488,2.869c-7.727,0 -14,-6.273 -14,-14c0,-7.727 6.273,-14 14,-14c3.19,0 6.132,1.069 8.488,2.869c-1.387,-0.561 -2.902,-0.869 -4.488,-0.869c-6.623,0 -12,5.377 -12,12c0,6.623 5.377,12 12,12c1.586,0 3.101,-0.308 4.488,-0.869Z" style="fill:none;stroke:#000;stroke-width:4px;"/>
        </g>
        <g id="emoji">
            <path d="M26.488,27.131c-2.356,1.8 -5.298,2.869 -8.488,2.869c-7.727,0 -14,-6.273 -14,-14c0,-7.727 6.273,-14 14,-14c3.19,0 6.132,1.069 8.488,2.869c-1.387,-0.561 -2.902,-0.869 -4.488,-0.869c-6.623,0 -12,5.377 -12,12c0,6.623 5.377,12 12,12c1.586,0 3.101,-0.308 4.488,-0.869Z" style="fill:#fbc546;"/>
        </g>
    </g>
</svg>
