<?xml version="1.0" encoding="UTF-8" standalone="no"?>
<!DOCTYPE svg PUBLIC "-//W3C//DTD SVG 1.1//EN" "http://www.w3.org/Graphics/SVG/1.1/DTD/svg11.dtd">
<svg width="100%" height="100%" viewBox="0 0 32 32" version="1.1" xmlns="http://www.w3.org/2000/svg" xmlns:xlink="http://www.w3.org/1999/xlink" xml:space="preserve" xmlns:serif="http://www.serif.com/" style="fill-rule:evenodd;clip-rule:evenodd;stroke-linejoin:round;stroke-miterlimit:2;">
    <rect id="crescent_moon_1" x="0" y="0" width="32" height="32" style="fill:none;"/>
    <g id="outline">
        <circle cx="16" cy="16" r="16"/>
    </g>
    <g id="emoji">
        <rect x="0" y="0" width="19.5" height="32" style="fill-opacity:0;"/>
        <clipPath id="_clip1">
            <rect x="0" y="0" width="19.5" height="32"/>
        </clipPath>
        <g clip-path="url(#_clip1)">
            <path d="M12.976,2.328c0.974,-0.215 1.986,-0.328 3.024,-0.328c5.178,0 9.704,2.817 12.125,7.002c0.787,3.091 1.461,5.819 1.617,9.686c-1.193,6.124 -6.384,10.827 -12.742,11.277c-2.429,-0.528 -5.812,-1.221 -7.889,-1.777c-3.076,-1.743 -5.428,-4.617 -6.49,-8.056c0.213,-3.091 2.481,-11.543 2.75,-13.24c0.246,-0.287 0.504,-0.564 0.772,-0.83c0.868,-0.153 5.658,-2.965 6.833,-3.734Z" style="fill:#d0e3e6;"/>
            <path d="M9.111,28.188c0.355,-1.262 1.514,-2.188 2.889,-2.188c1.308,0 2.421,0.839 2.831,2.007c0.056,-0.005 0.112,-0.007 0.169,-0.007c1.092,0 1.981,0.877 2,1.965c-0.331,0.023 -0.664,0.035 -1,0.035c-2.503,0 -4.854,-0.659 -6.889,-1.812Zm-3.74,-21.296c0.747,1.823 2.539,3.108 4.629,3.108c1.635,0 3.087,-0.786 4,-2l0,0l2.5,0c1.933,0 3.5,1.567 3.5,3.5c0,1.933 -1.567,3.5 -3.5,3.5l-0.173,0l0.025,0.021c-0.115,-0.014 -0.233,-0.021 -0.352,-0.021c-1.656,0 -3,1.344 -3,3c0,1.656 1.344,3 3,3c1.258,0 2.335,-0.775 2.781,-1.874c0.752,0.728 1.219,1.747 1.219,2.874c0,0.376 -0.052,0.74 -0.149,1.085c0.207,-0.055 0.424,-0.085 0.649,-0.085c1.38,0 2.5,1.12 2.5,2.5c0,1.38 -1.12,2.5 -2.5,2.5c-1.38,0 -2.5,-1.12 -2.5,-2.5c0,-0.012 0,-0.024 0,-0.036c-0.588,0.341 -1.272,0.536 -2,0.536c-1.945,0 -3.567,-1.391 -3.926,-3.231c-1.638,-0.547 -2.857,-2.012 -3.048,-3.782l-0.026,0.013c0,0 0,0 -0.001,0.001c-1.06,1.06 -2.499,1.656 -3.999,1.656c-0.83,0 -1.641,-0.182 -2.379,-0.525c-0.404,-1.306 -0.621,-2.694 -0.621,-4.132c0,-3.477 1.27,-6.659 3.371,-9.108Zm24.371,11.796c-0.543,0.202 -1.13,0.312 -1.742,0.312c-2.76,0 -5,-2.24 -5,-5c0,-2.76 2.24,-5 5,-5c0.042,0 0.084,0.001 0.125,0.002c1.193,2.059 1.875,4.449 1.875,6.998c0,0.919 -0.089,1.818 -0.258,2.688Zm-16.766,-16.36c0.636,0.709 1.024,1.645 1.024,2.672c0,2.208 -1.792,4 -4,4c-1.84,0 -3.391,-1.245 -3.857,-2.938c1.847,-1.832 4.201,-3.154 6.833,-3.734Z" style="fill:#aac0d2;"/>
        </g>
        <circle cx="16" cy="16" r="14" style="fill-opacity:0;"/>
        <clipPath id="_clip2">
            <circle cx="16" cy="16" r="14"/>
        </clipPath>
        <g clip-path="url(#_clip2)">
            <circle cx="23" cy="16" r="14" style="fill:none;"/>
            <clipPath id="_clip3">
                <circle cx="23" cy="16" r="14"/>
            </clipPath>
            <g clip-path="url(#_clip3)">
                <path d="M12.976,2.328c0.974,-0.215 1.986,-0.328 3.024,-0.328c5.178,0 9.704,2.817 12.125,7.002c0.787,3.091 1.461,5.819 1.617,9.686c-1.193,6.124 -6.384,10.827 -12.742,11.277c-2.429,-0.528 -5.812,-1.221 -7.889,-1.777c-3.076,-1.743 -5.428,-4.617 -6.49,-8.056c0.213,-3.091 2.481,-11.543 2.75,-13.24c0.246,-0.287 0.504,-0.564 0.772,-0.83c0.868,-0.153 5.658,-2.965 6.833,-3.734Z" style="fill:#432a7e;"/>
                <path d="M9.111,28.188c0.355,-1.262 1.514,-2.188 2.889,-2.188c1.308,0 2.421,0.839 2.831,2.007c0.056,-0.005 0.112,-0.007 0.169,-0.007c1.092,0 1.981,0.877 2,1.965c-0.331,0.023 -0.664,0.035 -1,0.035c-2.503,0 -4.854,-0.659 -6.889,-1.812Zm-3.74,-21.296c0.747,1.823 2.539,3.108 4.629,3.108c1.635,0 3.087,-0.786 4,-2l0,0l2.5,0c1.933,0 3.5,1.567 3.5,3.5c0,1.933 -1.567,3.5 -3.5,3.5l-0.173,0l0.025,0.021c-0.115,-0.014 -0.233,-0.021 -0.352,-0.021c-1.656,0 -3,1.344 -3,3c0,1.656 1.344,3 3,3c1.258,0 2.335,-0.775 2.781,-1.874c0.752,0.728 1.219,1.747 1.219,2.874c0,0.376 -0.052,0.74 -0.149,1.085c0.207,-0.055 0.424,-0.085 0.649,-0.085c1.38,0 2.5,1.12 2.5,2.5c0,1.38 -1.12,2.5 -2.5,2.5c-1.38,0 -2.5,-1.12 -2.5,-2.5c0,-0.012 0,-0.024 0,-0.036c-0.588,0.341 -1.272,0.536 -2,0.536c-1.945,0 -3.567,-1.391 -3.926,-3.231c-1.638,-0.547 -2.857,-2.012 -3.048,-3.782l-0.026,0.013c0,0 0,0 -0.001,0.001c-1.06,1.06 -2.499,1.656 -3.999,1.656c-0.83,0 -1.641,-0.182 -2.379,-0.525c-0.404,-1.306 -0.621,-2.694 -0.621,-4.132c0,-3.477 1.27,-6.659 3.371,-9.108Zm24.371,11.796c-0.543,0.202 -1.13,0.312 -1.742,0.312c-2.76,0 -5,-2.24 -5,-5c0,-2.76 2.24,-5 5,-5c0.042,0 0.084,0.001 0.125,0.002c1.193,2.059 1.875,4.449 1.875,6.998c0,0.919 -0.089,1.818 -0.258,2.688Zm-16.766,-16.36c0.636,0.709 1.024,1.645 1.024,2.672c0,2.208 -1.792,4 -4,4c-1.84,0 -3.391,-1.245 -3.857,-2.938c1.847,-1.832 4.201,-3.154 6.833,-3.734Z" style="fill:#2f1f5d;"/>
            </g>
        </g>
    </g>
</svg>
