<?xml version="1.0" encoding="UTF-8" standalone="no"?>
<!DOCTYPE svg PUBLIC "-//W3C//DTD SVG 1.1//EN" "http://www.w3.org/Graphics/SVG/1.1/DTD/svg11.dtd">
<svg width="100%" height="100%" viewBox="0 0 32 32" version="1.1" xmlns="http://www.w3.org/2000/svg" xmlns:xlink="http://www.w3.org/1999/xlink" xml:space="preserve" xmlns:serif="http://www.serif.com/" style="fill-rule:evenodd;clip-rule:evenodd;stroke-linecap:round;stroke-linejoin:round;stroke-miterlimit:1.5;">
    <rect id="full_moon_face" x="0" y="0" width="32" height="32" style="fill:none;"/>
    <g id="outline">
        <circle cx="16" cy="16" r="16"/>
    </g>
    <g id="emoji">
        <circle cx="16" cy="16" r="14" style="fill:#d0e3e6;"/>
        <path d="M14,19c0,0 0.128,0.128 0.293,0.293c0.453,0.453 1.067,0.707 1.707,0.707c0,0 0,0 0,0c0.64,0 1.254,-0.254 1.707,-0.707c0.165,-0.165 0.293,-0.293 0.293,-0.293" style="fill:none;stroke:#769ab6;stroke-width:2px;"/>
        <path d="M11,23c0,0 0,0 0,0c1.281,1.281 3.017,2 4.828,2c0.115,0 0.229,0 0.344,0c1.811,0 3.547,-0.719 4.828,-2c0,0 0,0 0,0" style="fill:none;stroke:#769ab6;stroke-width:2px;stroke-linejoin:miter;"/>
        <g>
            <path d="M12.971,13c0.029,0.261 0.029,0.502 0.029,0.502c0,0.928 -0.369,1.817 -1.025,2.473c-0.656,0.656 -1.545,1.025 -2.473,1.025l-0.002,0c-1.27,0 -2.382,-0.676 -2.995,-1.689c0.156,-0.311 0.778,-1.608 2.495,-2.311c1.366,-0.56 3.971,0 3.971,0Z" style="fill:#fff;"/>
            <path d="M6.505,15.311c-0.321,-0.528 -0.505,-1.148 -0.505,-1.811l0,-0.544c0,-0.456 0.207,-0.887 0.563,-1.172c0.693,-0.482 1.53,-0.784 2.437,-0.784l1,0c0.907,0 1.744,0.302 2.415,0.811c0.348,0.278 0.551,0.7 0.551,1.145c0.002,0.015 0.004,0.03 0.005,0.044l-2.971,0l0,0.983c0,1.105 -0.895,2 -2,2c-0.595,0 -1.129,-0.259 -1.495,-0.672Z"/>
        </g>
        <g>
            <path d="M25.971,13c0.029,0.261 0.029,0.502 0.029,0.502c0,0.928 -0.369,1.817 -1.025,2.473c-0.656,0.656 -1.545,1.025 -2.473,1.025l-0.002,0c-1.27,0 -2.382,-0.676 -2.995,-1.689c0.156,-0.311 0.778,-1.608 2.495,-2.311c1.366,-0.56 3.971,0 3.971,0Z" style="fill:#fff;"/>
            <path d="M19.505,15.311c-0.321,-0.528 -0.505,-1.148 -0.505,-1.811l0,-0.544c0,-0.456 0.207,-0.887 0.563,-1.172c0.693,-0.482 1.53,-0.784 2.437,-0.784l1,0c0.907,0 1.744,0.302 2.415,0.811c0.348,0.278 0.551,0.7 0.551,1.145c0.002,0.015 0.004,0.03 0.005,0.044l-2.971,0l0,0.983c0,1.105 -0.895,2 -2,2c-0.595,0 -1.129,-0.259 -1.495,-0.672Z"/>
        </g>
    </g>
</svg>
