<?xml version="1.0" encoding="UTF-8" standalone="no"?>
<!DOCTYPE svg PUBLIC "-//W3C//DTD SVG 1.1//EN" "http://www.w3.org/Graphics/SVG/1.1/DTD/svg11.dtd">
<svg width="100%" height="100%" viewBox="0 0 32 32" version="1.1" xmlns="http://www.w3.org/2000/svg" xmlns:xlink="http://www.w3.org/1999/xlink" xml:space="preserve" xmlns:serif="http://www.serif.com/" style="fill-rule:evenodd;clip-rule:evenodd;stroke-linecap:square;stroke-linejoin:round;stroke-miterlimit:1.5;">
    <rect id="moon_crescent_face_right" x="0" y="0" width="32" height="32" style="fill:none;"/>
    <clipPath id="_clip1">
        <rect x="0" y="0" width="32" height="32"/>
    </clipPath>
    <g clip-path="url(#_clip1)">
        <g id="outline">
            <path d="M14.969,17c-0.319,5.164 -3.092,9.668 -7.165,12.359c1.325,0.416 2.734,0.641 4.196,0.641c7.727,0 14,-6.273 14,-14c0,-7.727 -6.273,-14 -14,-14c-1.462,0 -2.871,0.225 -4.196,0.641c3.603,2.38 6.188,6.179 6.956,10.599l-3.76,3.76l3.969,0Z" style="fill:none;stroke:#000;stroke-width:4px;"/>
        </g>
        <g id="emoji">
            <path d="M14.969,17c-0.319,5.164 -3.092,9.668 -7.165,12.359c1.325,0.416 2.734,0.641 4.196,0.641c7.727,0 14,-6.273 14,-14c0,-7.727 -6.273,-14 -14,-14c-1.462,0 -2.871,0.225 -4.196,0.641c3.602,2.38 6.188,6.178 6.958,10.597l-3.762,3.762l3.969,0Z" style="fill:#d0e3e6;"/>
            <clipPath id="_clip2">
                <path d="M14.969,17c-0.319,5.164 -3.092,9.668 -7.165,12.359c1.325,0.416 2.734,0.641 4.196,0.641c7.727,0 14,-6.273 14,-14c0,-7.727 -6.273,-14 -14,-14c-1.462,0 -2.871,0.225 -4.196,0.641c3.602,2.38 6.188,6.178 6.958,10.597l-3.762,3.762l3.969,0Z"/>
            </clipPath>
            <g clip-path="url(#_clip2)">
                <path d="M20,20c0,0 -0.392,0.392 -0.828,0.828c-0.751,0.751 -1.768,1.172 -2.829,1.172c-1.455,0 -3.343,0 -3.343,0" style="fill:none;stroke:#4c728e;stroke-width:2px;stroke-linecap:round;stroke-linejoin:miter;"/>
            </g>
        </g>
        <path d="M16,12.5c0,-0.663 0.263,-1.299 0.732,-1.768c0.469,-0.469 1.105,-0.732 1.768,-0.732c0.663,0 1.299,0.263 1.768,0.732c0.469,0.469 0.732,1.105 0.732,1.768c0,0.65 0,1.35 0,2c0,0.663 -0.263,1.299 -0.732,1.768c-0.469,0.469 -1.105,0.732 -1.768,0.732c-0.663,0 -1.299,-0.263 -1.768,-0.732c-0.469,-0.469 -0.732,-1.105 -0.732,-1.768c0,-0.65 0,-1.35 0,-2Z" style="fill:#fff;"/>
        <path d="M16,12.5c0,-0.398 0.158,-0.779 0.439,-1.061c0.282,-0.281 0.663,-0.439 1.061,-0.439c0.398,0 0.779,0.158 1.061,0.439c0.281,0.282 0.439,0.663 0.439,1.061l0,2c0,0.398 -0.158,0.779 -0.439,1.061c-0.282,0.281 -0.663,0.439 -1.061,0.439c-0.398,0 -0.779,-0.158 -1.061,-0.439c-0.281,-0.282 -0.439,-0.663 -0.439,-1.061l0,-2Z"/>
    </g>
</svg>
