<?xml version="1.0" encoding="UTF-8" standalone="no"?><!DOCTYPE svg PUBLIC "-//W3C//DTD SVG 1.1//EN" "http://www.w3.org/Graphics/SVG/1.1/DTD/svg11.dtd"><svg width="100%" height="100%" viewBox="0 0 32 32" version="1.1" xmlns="http://www.w3.org/2000/svg" xmlns:xlink="http://www.w3.org/1999/xlink" xml:space="preserve" xmlns:serif="http://www.serif.com/" style="fill-rule:evenodd;clip-rule:evenodd;stroke-linejoin:round;stroke-miterlimit:1.5;"><rect id="new_moon_face" x="0" y="0" width="32" height="32" style="fill:none;"/><g id="outline"><circle cx="16" cy="16" r="16"/></g><g id="emoji"><circle cx="16" cy="16" r="14" style="fill:#432a7e;"/><g><path d="M25,11.171l0,-0.171c0,-0.796 -0.316,-1.559 -0.879,-2.121c-0.562,-0.563 -1.325,-0.879 -2.121,-0.879c-0.796,0 -1.559,0.316 -2.121,0.879c-0.563,0.562 -0.879,1.325 -0.879,2.121c0,0.965 0,2.035 0,3c0,0.796 0.316,1.559 0.879,2.121c0.562,0.563 1.325,0.879 2.121,0.879c0.344,0 0.681,-0.059 0.999,-0.171c-1.164,-0.413 1.688,-5.769 2.001,-5.658Z" style="fill:#fff;"/><path d="M25,11.171c-0.313,-0.111 -0.649,-0.171 -1,-0.171c-1.656,0 -3,1.344 -3,3c0,1.305 0.835,2.416 1.999,2.829c0.418,-0.148 0.803,-0.388 1.122,-0.708c0.563,-0.562 0.879,-1.325 0.879,-2.121l0,-2.829Z"/></g><g><path d="M13,11.171l0,-0.171c0,-0.796 -0.316,-1.559 -0.879,-2.121c-0.562,-0.563 -1.325,-0.879 -2.121,-0.879c-0.796,0 -1.559,0.316 -2.121,0.879c-0.563,0.562 -0.879,1.325 -0.879,2.121c0,0.965 0,2.035 0,3c0,0.796 0.316,1.559 0.879,2.121c0.562,0.563 1.325,0.879 2.121,0.879c0.344,0 0.681,-0.059 0.999,-0.171c-1.164,-0.413 1.688,-5.769 2.001,-5.658Z" style="fill:#fff;"/><path d="M13,11.171c-0.313,-0.111 -0.649,-0.171 -1,-0.171c-1.656,0 -3,1.344 -3,3c0,1.305 0.835,2.416 1.999,2.829c0.418,-0.148 0.803,-0.388 1.122,-0.708c0.563,-0.562 0.879,-1.325 0.879,-2.121l0,-2.829Z"/></g><path d="M13,19l3,1l3,-1" style="fill:none;stroke:#140d25;stroke-width:2px;"/><path d="M10,23c0,0 1.341,0.447 2.23,0.743c0.51,0.17 1.044,0.257 1.581,0.257c1.147,0 3.231,0 4.378,0c0.537,0 1.071,-0.087 1.581,-0.257c0.889,-0.296 2.23,-0.743 2.23,-0.743" style="fill:none;stroke:#140d25;stroke-width:2px;stroke-linejoin:miter;"/></g></svg>