<?xml version="1.0" encoding="UTF-8" standalone="no"?><!DOCTYPE svg PUBLIC "-//W3C//DTD SVG 1.1//EN" "http://www.w3.org/Graphics/SVG/1.1/DTD/svg11.dtd"><svg width="100%" height="100%" viewBox="0 0 32 32" version="1.1" xmlns="http://www.w3.org/2000/svg" xmlns:xlink="http://www.w3.org/1999/xlink" xml:space="preserve" xmlns:serif="http://www.serif.com/" style="fill-rule:evenodd;clip-rule:evenodd;stroke-linejoin:round;stroke-miterlimit:1.41421;"><rect id="_18_plus" serif:id="18_plus" x="0" y="0" width="32" height="32" style="fill:none;"/><clipPath id="_clip1"><rect x="0" y="0" width="32" height="32"/></clipPath><g clip-path="url(#_clip1)"><g id="outline"><circle cx="16" cy="16" r="16"/></g><g id="emoji"><circle cx="16" cy="16" r="14" style="fill:#e02a33;"/><circle cx="16" cy="16" r="12"/><path d="M8.523,12.595l-1.975,1.43l0,-2.418l1.975,-1.481l2.23,0l0,11.748l-2.23,0l0,-9.279Z" style="fill:#fff;fill-rule:nonzero;"/><path d="M16.321,22.061c-0.693,0 -1.311,-0.139 -1.856,-0.417c-0.545,-0.278 -0.974,-0.678 -1.286,-1.2c-0.312,-0.522 -0.468,-1.124 -0.468,-1.805l0,-0.392c0,-0.533 0.125,-1.024 0.375,-1.472c0.249,-0.449 0.601,-0.803 1.055,-1.064c-0.363,-0.216 -0.655,-0.52 -0.877,-0.911c-0.221,-0.392 -0.332,-0.843 -0.332,-1.354l0,-0.306c0,-0.579 0.139,-1.113 0.418,-1.601c0.278,-0.488 0.672,-0.877 1.183,-1.166c0.511,-0.29 1.112,-0.434 1.805,-0.434c0.692,0 1.297,0.144 1.813,0.434c0.516,0.289 0.911,0.678 1.183,1.166c0.273,0.488 0.409,1.022 0.409,1.601l0,0.306c0,0.499 -0.114,0.948 -0.341,1.345c-0.227,0.397 -0.516,0.704 -0.868,0.92c0.454,0.272 0.803,0.632 1.047,1.081c0.244,0.448 0.366,0.928 0.366,1.438l0,0.392c0,0.692 -0.156,1.3 -0.468,1.822c-0.312,0.522 -0.743,0.922 -1.294,1.2c-0.55,0.278 -1.172,0.417 -1.864,0.417Zm0.017,-7.236c0.386,0 0.692,-0.128 0.919,-0.383c0.227,-0.255 0.341,-0.582 0.341,-0.979l0,-0.323c0,-0.375 -0.117,-0.687 -0.349,-0.937c-0.233,-0.25 -0.537,-0.374 -0.911,-0.374c-0.375,0 -0.679,0.124 -0.911,0.374c-0.233,0.25 -0.349,0.562 -0.349,0.937l0,0.323c0,0.409 0.113,0.738 0.34,0.988c0.227,0.249 0.534,0.374 0.92,0.374Zm0,5.346c0.442,0 0.797,-0.141 1.064,-0.425c0.267,-0.284 0.4,-0.664 0.4,-1.141l0,-0.409c0,-0.454 -0.133,-0.823 -0.4,-1.106c-0.267,-0.284 -0.622,-0.426 -1.064,-0.426c-0.432,0 -0.784,0.142 -1.056,0.426c-0.272,0.283 -0.409,0.652 -0.409,1.106l0,0.409c0,0.465 0.131,0.843 0.392,1.132c0.261,0.29 0.619,0.434 1.073,0.434Z" style="fill:#fff;fill-rule:nonzero;"/><path d="M22.834,16.943l-2.073,0l0,-1.886l2.073,0l0,-2.073l1.886,0l0,2.073l2.073,0l0,1.886l-2.073,0l0,2.073l-1.886,0l0,-2.073Z" style="fill:#fff;fill-rule:nonzero;"/></g></g></svg>