<?xml version="1.0" encoding="UTF-8" standalone="no"?><!DOCTYPE svg PUBLIC "-//W3C//DTD SVG 1.1//EN" "http://www.w3.org/Graphics/SVG/1.1/DTD/svg11.dtd"><svg width="100%" height="100%" viewBox="0 0 32 32" version="1.1" xmlns="http://www.w3.org/2000/svg" xmlns:xlink="http://www.w3.org/1999/xlink" xml:space="preserve" xmlns:serif="http://www.serif.com/" style="fill-rule:evenodd;clip-rule:evenodd;stroke-linejoin:round;stroke-miterlimit:1.41421;"><rect id="cross" x="0" y="0" width="32" height="32" style="fill:none;"/><g id="outline"><path d="M8,2.757l8,8l8,-8l4.243,4.243l0,2l-7,7l7,7l0,2l-4.243,4.243l-8,-8l-8,8l-4.243,-4.243l0,-2l7,-7l-7,-7l0,-2l4.243,-4.243Z" style="fill:none;stroke:#000;stroke-width:4px;"/></g><g id="emoji"><path d="M8,4.757l8,8l8,-8l4.243,2.243l0,2l-8,8l4.242,4.243l3.758,1.757l0,2l-4.243,4.243l-8,-8l-8,8l-4.243,-4.243l0,-2l3.758,-1.757l4.242,-4.243l-8,-8l0,-2l4.243,-2.243Z" style="fill:#93151c;fill-rule:nonzero;"/><path d="M16,10.757l8,-8l4.243,4.243l-8,8l8,8l-4.243,4.243l-8,-8l-8,8l-4.243,-4.243l8,-8l-8,-8l4.243,-4.243l8,8Z" style="fill:#e02a33;fill-rule:nonzero;"/></g></svg>