<?xml version="1.0" encoding="UTF-8" standalone="no"?><!DOCTYPE svg PUBLIC "-//W3C//DTD SVG 1.1//EN" "http://www.w3.org/Graphics/SVG/1.1/DTD/svg11.dtd"><svg width="100%" height="100%" viewBox="0 0 32 32" version="1.1" xmlns="http://www.w3.org/2000/svg" xmlns:xlink="http://www.w3.org/1999/xlink" xml:space="preserve" xmlns:serif="http://www.serif.com/" style="fill-rule:evenodd;clip-rule:evenodd;stroke-linecap:round;stroke-linejoin:round;stroke-miterlimit:1.5;"><rect id="no" x="0" y="0" width="32" height="32" style="fill:none;"/><clipPath id="_clip1"><rect x="0" y="0" width="32" height="32"/></clipPath><g clip-path="url(#_clip1)"><g id="outline"><path d="M16.193,0.001l0.192,0.004l0.192,0.006l0.192,0.008l0.19,0.011l0.191,0.014l0.189,0.015l0.19,0.018l0.188,0.021l0.188,0.022l0.187,0.025l0.187,0.028l0.186,0.029l0.185,0.032l0.185,0.035l0.183,0.036l0.183,0.039l0.182,0.04l0.182,0.044l0.18,0.045l0.18,0.047l0.179,0.05l0.178,0.052l0.176,0.054l0.177,0.056l0.175,0.058l0.174,0.06l0.173,0.062l0.172,0.064l0.171,0.067l0.17,0.068l0.169,0.07l0.168,0.073l0.167,0.074l0.166,0.076l0.164,0.078l0.164,0.08l0.162,0.082l0.162,0.084l0.16,0.086l0.158,0.088l0.158,0.089l0.157,0.091l0.155,0.093l0.154,0.095l0.153,0.097l0.151,0.098l0.15,0.1l0.149,0.102l0.148,0.104l0.146,0.105l0.145,0.108l0.143,0.108l0.143,0.111l0.14,0.112l0.14,0.113l0.138,0.116l0.136,0.116l0.135,0.119l0.134,0.12l0.132,0.122l0.131,0.123l0.129,0.125l0.128,0.126l0.126,0.128l0.125,0.129l0.123,0.131l0.122,0.132l0.12,0.134l0.119,0.135l0.116,0.136l0.116,0.138l0.113,0.14l0.112,0.14l0.111,0.143l0.109,0.143l0.106,0.145l0.106,0.146l0.104,0.148l0.102,0.149l0.1,0.15l0.098,0.151l0.097,0.153l0.095,0.154l0.093,0.155l0.091,0.157l0.089,0.157l0.088,0.159l0.086,0.16l0.084,0.162l0.082,0.162l0.08,0.164l0.078,0.164l0.076,0.166l0.074,0.167l0.073,0.168l0.07,0.169l0.068,0.17l0.067,0.171l0.064,0.172l0.062,0.173l0.06,0.174l0.058,0.175l0.056,0.176l0.054,0.177l0.052,0.178l0.05,0.179l0.047,0.18l0.045,0.18l0.044,0.182l0.04,0.182l0.039,0.183l0.036,0.183l0.035,0.185l0.032,0.185l0.029,0.186l0.028,0.187l0.025,0.187l0.022,0.188l0.021,0.189l0.018,0.188l0.015,0.19l0.014,0.191l0.011,0.19l0.008,0.192l0.006,0.192l0.004,0.192l0.001,0.193l-0.001,0.193l-0.004,0.192l-0.006,0.192l-0.008,0.191l-0.011,0.191l-0.014,0.191l-0.015,0.19l-0.018,0.188l-0.021,0.189l-0.022,0.188l-0.025,0.187l-0.028,0.187l-0.029,0.186l-0.032,0.185l-0.035,0.185l-0.036,0.183l-0.039,0.183l-0.04,0.182l-0.044,0.182l-0.045,0.18l-0.047,0.18l-0.05,0.179l-0.052,0.178l-0.054,0.177l-0.056,0.176l-0.058,0.175l-0.06,0.174l-0.062,0.173l-0.064,0.172l-0.067,0.171l-0.068,0.17l-0.07,0.169l-0.073,0.168l-0.074,0.167l-0.076,0.166l-0.078,0.164l-0.08,0.164l-0.082,0.162l-0.084,0.162l-0.086,0.16l-0.088,0.159l-0.089,0.157l-0.091,0.157l-0.093,0.155l-0.095,0.154l-0.097,0.153l-0.098,0.151l-0.1,0.15l-0.102,0.149l-0.104,0.148l-0.106,0.146l-0.106,0.145l-0.109,0.143l-0.111,0.143l-0.112,0.14l-0.113,0.14l-0.116,0.138l-0.116,0.136l-0.119,0.135l-0.12,0.134l-0.122,0.132l-0.123,0.131l-0.125,0.129l-0.126,0.128l-0.128,0.126l-0.129,0.125l-0.131,0.123l-0.132,0.122l-0.134,0.12l-0.135,0.119l-0.136,0.116l-0.138,0.116l-0.14,0.113l-0.14,0.112l-0.143,0.111l-0.143,0.108l-0.145,0.108l-0.146,0.105l-0.148,0.104l-0.149,0.102l-0.15,0.1l-0.151,0.098l-0.153,0.097l-0.154,0.095l-0.155,0.093l-0.157,0.091l-0.157,0.089l-0.159,0.088l-0.16,0.086l-0.162,0.084l-0.162,0.082l-0.164,0.08l-0.164,0.078l-0.166,0.076l-0.167,0.074l-0.168,0.073l-0.169,0.07l-0.17,0.068l-0.171,0.067l-0.172,0.064l-0.173,0.062l-0.174,0.06l-0.175,0.058l-0.177,0.056l-0.176,0.054l-0.178,0.052l-0.179,0.05l-0.18,0.047l-0.18,0.045l-0.181,0.043l-0.183,0.041l-0.183,0.039l-0.183,0.036l-0.185,0.035l-0.185,0.032l-0.186,0.029l-0.187,0.028l-0.187,0.025l-0.188,0.022l-0.188,0.021l-0.19,0.018l-0.189,0.015l-0.191,0.014l-0.19,0.011l-0.192,0.008l-0.192,0.006l-0.192,0.004l-0.193,0.001l-0.193,-0.001l-0.192,-0.004l-0.192,-0.006l-0.192,-0.008l-0.19,-0.011l-0.191,-0.014l-0.189,-0.015l-0.19,-0.018l-0.188,-0.021l-0.188,-0.022l-0.187,-0.025l-0.187,-0.028l-0.186,-0.029l-0.185,-0.032l-0.185,-0.035l-0.183,-0.036l-0.183,-0.039l-0.183,-0.041l-0.181,-0.043l-0.18,-0.045l-0.18,-0.047l-0.179,-0.05l-0.178,-0.052l-0.176,-0.054l-0.177,-0.056l-0.175,-0.058l-0.174,-0.06l-0.173,-0.062l-0.172,-0.064l-0.171,-0.067l-0.17,-0.068l-0.169,-0.07l-0.168,-0.073l-0.167,-0.074l-0.166,-0.076l-0.164,-0.078l-0.164,-0.08l-0.162,-0.082l-0.162,-0.084l-0.16,-0.086l-0.159,-0.088l-0.157,-0.089l-0.157,-0.091l-0.155,-0.093l-0.154,-0.095l-0.153,-0.097l-0.151,-0.098l-0.15,-0.1l-0.149,-0.102l-0.148,-0.104l-0.146,-0.105l-0.145,-0.108l-0.143,-0.108l-0.143,-0.111l-0.14,-0.112l-0.14,-0.113l-0.138,-0.116l-0.136,-0.116l-0.135,-0.119l-0.134,-0.12l-0.132,-0.122l-0.131,-0.123l-0.129,-0.125l-0.128,-0.126l-0.126,-0.128l-0.125,-0.129l-0.123,-0.131l-0.122,-0.132l-0.12,-0.134l-0.119,-0.135l-0.116,-0.136l-0.116,-0.138l-0.113,-0.14l-0.112,-0.14l-0.111,-0.143l-0.108,-0.143l-0.108,-0.145l-0.105,-0.146l-0.104,-0.148l-0.102,-0.149l-0.1,-0.15l-0.098,-0.151l-0.097,-0.153l-0.095,-0.154l-0.093,-0.155l-0.091,-0.157l-0.089,-0.157l-0.088,-0.159l-0.086,-0.16l-0.084,-0.162l-0.082,-0.162l-0.08,-0.164l-0.078,-0.164l-0.076,-0.166l-0.074,-0.167l-0.073,-0.168l-0.07,-0.169l-0.068,-0.17l-0.067,-0.171l-0.064,-0.172l-0.062,-0.173l-0.06,-0.174l-0.058,-0.175l-0.056,-0.177l-0.054,-0.176l-0.052,-0.178l-0.05,-0.179l-0.047,-0.18l-0.045,-0.18l-0.043,-0.181l-0.041,-0.183l-0.039,-0.183l-0.036,-0.183l-0.035,-0.185l-0.032,-0.185l-0.029,-0.186l-0.028,-0.187l-0.025,-0.187l-0.022,-0.188l-0.021,-0.188l-0.018,-0.19l-0.015,-0.189l-0.014,-0.191l-0.011,-0.19l-0.008,-0.192l-0.006,-0.192l-0.004,-0.192l-0.001,-0.193l0.001,-0.193l0.004,-0.192l0.006,-0.192l0.008,-0.192l0.011,-0.19l0.014,-0.191l0.015,-0.189l0.018,-0.19l0.021,-0.188l0.022,-0.188l0.025,-0.187l0.028,-0.187l0.029,-0.186l0.032,-0.185l0.035,-0.185l0.036,-0.183l0.039,-0.183l0.041,-0.183l0.043,-0.181l0.045,-0.18l0.047,-0.18l0.05,-0.179l0.052,-0.178l0.054,-0.176l0.056,-0.177l0.058,-0.175l0.06,-0.174l0.062,-0.173l0.064,-0.172l0.067,-0.171l0.068,-0.17l0.07,-0.169l0.073,-0.168l0.074,-0.167l0.076,-0.166l0.078,-0.164l0.08,-0.164l0.082,-0.162l0.084,-0.162l0.086,-0.16l0.088,-0.159l0.089,-0.157l0.091,-0.157l0.093,-0.155l0.095,-0.154l0.097,-0.153l0.098,-0.151l0.1,-0.15l0.102,-0.149l0.104,-0.148l0.105,-0.146l0.108,-0.145l0.108,-0.143l0.111,-0.143l0.112,-0.14l0.113,-0.14l0.116,-0.138l0.116,-0.136l0.119,-0.135l0.12,-0.134l0.122,-0.132l0.123,-0.131l0.125,-0.129l0.126,-0.128l0.128,-0.126l0.129,-0.125l0.131,-0.123l0.132,-0.122l0.134,-0.12l0.135,-0.119l0.136,-0.116l0.138,-0.116l0.14,-0.113l0.14,-0.112l0.143,-0.111l0.143,-0.108l0.145,-0.108l0.146,-0.105l0.148,-0.104l0.149,-0.102l0.15,-0.1l0.151,-0.098l0.153,-0.097l0.154,-0.095l0.155,-0.093l0.157,-0.091l0.158,-0.089l0.158,-0.088l0.16,-0.086l0.162,-0.084l0.162,-0.082l0.164,-0.08l0.164,-0.078l0.166,-0.076l0.167,-0.074l0.168,-0.073l0.169,-0.07l0.17,-0.068l0.171,-0.067l0.172,-0.064l0.173,-0.062l0.174,-0.06l0.175,-0.058l0.177,-0.056l0.176,-0.054l0.178,-0.052l0.179,-0.05l0.18,-0.047l0.18,-0.045l0.182,-0.044l0.182,-0.04l0.183,-0.039l0.183,-0.036l0.185,-0.035l0.185,-0.032l0.186,-0.029l0.187,-0.028l0.187,-0.025l0.188,-0.022l0.188,-0.021l0.19,-0.018l0.189,-0.015l0.191,-0.014l0.19,-0.011l0.192,-0.008l0.192,-0.006l0.192,-0.004l0.193,-0.001l0.193,0.001Zm-0.284,8l-0.091,0.001l-0.091,0.003l-0.09,0.004l-0.09,0.005l-0.089,0.007l-0.089,0.007l-0.088,0.008l-0.088,0.01l-0.088,0.011l-0.087,0.011l-0.087,0.013l-0.087,0.014l-0.086,0.015l-0.086,0.015l-0.085,0.017l-0.085,0.018l-0.084,0.019l-0.085,0.02l-0.083,0.021l-0.083,0.022l-0.083,0.023l-0.083,0.024l-0.082,0.025l-0.081,0.026l-0.081,0.027l-0.081,0.028l-0.08,0.029l-0.08,0.03l-0.079,0.03l-0.079,0.032l-0.079,0.033l-0.078,0.033l-0.077,0.035l-0.077,0.035l-0.077,0.037l-0.076,0.037l-0.076,0.038l-0.075,0.039l-0.074,0.04l-0.074,0.041l-0.074,0.041l-0.073,0.043l-0.072,0.044l-0.072,0.044l-0.072,0.045l-0.07,0.046l-0.071,0.047l-0.069,0.048l-0.069,0.048l-0.069,0.049l-0.068,0.051l-0.067,0.05l-0.067,0.052l-0.066,0.053l-0.065,0.053l-0.065,0.054l-0.064,0.055l-0.063,0.056l-0.063,0.056l-0.062,0.057l-0.062,0.058l-0.06,0.059l-0.06,0.059l-0.059,0.06l-0.059,0.061l-0.058,0.061l-0.057,0.062l-0.056,0.063l-0.056,0.063l-0.055,0.064l-0.054,0.065l-0.053,0.065l-0.053,0.066l-0.052,0.067l-0.05,0.067l-0.051,0.068l-0.049,0.069l-0.048,0.069l-0.048,0.069l-0.047,0.071l-0.046,0.07l-0.045,0.072l-0.044,0.072l-0.044,0.072l-0.042,0.073l-0.042,0.074l-0.041,0.074l-0.04,0.074l-0.039,0.075l-0.038,0.076l-0.037,0.076l-0.037,0.077l-0.035,0.077l-0.035,0.077l-0.033,0.078l-0.033,0.079l-0.032,0.079l-0.03,0.079l-0.03,0.08l-0.029,0.08l-0.028,0.081l-0.027,0.081l-0.026,0.081l-0.025,0.082l-0.024,0.083l-0.023,0.083l-0.022,0.083l-0.021,0.084l-0.02,0.084l-0.019,0.084l-0.018,0.085l-0.017,0.085l-0.015,0.086l-0.015,0.086l-0.014,0.087l-0.013,0.087l-0.011,0.087l-0.011,0.088l-0.01,0.088l-0.008,0.088l-0.007,0.089l-0.007,0.089l-0.005,0.09l-0.004,0.09l-0.003,0.091l-0.001,0.091l-0.001,0.091l0.001,0.091l0.001,0.091l0.003,0.091l0.004,0.09l0.005,0.09l0.007,0.089l0.007,0.089l0.008,0.088l0.01,0.088l0.011,0.088l0.011,0.087l0.013,0.087l0.014,0.087l0.015,0.086l0.015,0.086l0.017,0.085l0.018,0.085l0.019,0.084l0.02,0.084l0.021,0.084l0.022,0.083l0.023,0.083l0.024,0.083l0.025,0.082l0.026,0.081l0.027,0.081l0.028,0.081l0.029,0.08l0.03,0.08l0.03,0.079l0.032,0.079l0.033,0.079l0.033,0.078l0.035,0.077l0.035,0.077l0.037,0.077l0.037,0.076l0.038,0.076l0.039,0.075l0.04,0.074l0.041,0.074l0.042,0.074l0.042,0.073l0.044,0.072l0.044,0.072l0.045,0.072l0.046,0.07l0.047,0.071l0.048,0.069l0.048,0.069l0.049,0.069l0.051,0.068l0.05,0.067l0.052,0.067l0.053,0.066l0.053,0.065l0.054,0.065l0.055,0.064l0.056,0.063l0.056,0.063l0.057,0.062l0.058,0.061l0.059,0.061l0.059,0.06l0.06,0.059l0.061,0.059l0.061,0.058l0.062,0.057l0.063,0.056l0.063,0.056l0.064,0.055l0.065,0.054l0.065,0.053l0.066,0.053l0.067,0.052l0.067,0.05l0.068,0.051l0.069,0.049l0.069,0.048l0.069,0.048l0.071,0.047l0.07,0.046l0.072,0.045l0.072,0.044l0.072,0.044l0.073,0.042l0.074,0.042l0.074,0.041l0.074,0.04l0.075,0.039l0.076,0.038l0.076,0.037l0.077,0.037l0.077,0.035l0.077,0.035l0.078,0.033l0.079,0.033l0.079,0.032l0.079,0.03l0.08,0.03l0.08,0.029l0.081,0.028l0.081,0.027l0.081,0.026l0.082,0.025l0.083,0.024l0.083,0.023l0.083,0.022l0.084,0.021l0.084,0.02l0.084,0.019l0.085,0.018l0.085,0.017l0.086,0.015l0.086,0.015l0.087,0.014l0.087,0.013l0.087,0.011l0.088,0.011l0.088,0.01l0.088,0.008l0.089,0.007l0.089,0.007l0.09,0.005l0.09,0.004l0.091,0.003l0.091,0.001l0.091,0.001l0.091,-0.001l0.091,-0.001l0.091,-0.003l0.09,-0.004l0.09,-0.005l0.089,-0.007l0.089,-0.007l0.088,-0.008l0.088,-0.01l0.088,-0.011l0.087,-0.011l0.087,-0.013l0.087,-0.014l0.086,-0.015l0.086,-0.015l0.085,-0.017l0.085,-0.018l0.084,-0.019l0.084,-0.02l0.084,-0.021l0.083,-0.022l0.083,-0.023l0.083,-0.024l0.082,-0.025l0.081,-0.026l0.081,-0.027l0.081,-0.028l0.08,-0.029l0.08,-0.03l0.079,-0.03l0.079,-0.032l0.079,-0.033l0.078,-0.033l0.077,-0.035l0.077,-0.035l0.077,-0.037l0.076,-0.037l0.076,-0.038l0.075,-0.039l0.074,-0.04l0.074,-0.041l0.074,-0.042l0.073,-0.042l0.072,-0.044l0.072,-0.044l0.072,-0.045l0.07,-0.046l0.071,-0.047l0.069,-0.048l0.069,-0.048l0.069,-0.049l0.068,-0.051l0.067,-0.05l0.067,-0.052l0.066,-0.053l0.065,-0.053l0.065,-0.054l0.064,-0.055l0.063,-0.056l0.063,-0.056l0.062,-0.057l0.061,-0.058l0.061,-0.059l0.06,-0.059l0.059,-0.06l0.059,-0.06l0.058,-0.062l0.057,-0.062l0.056,-0.063l0.056,-0.063l0.055,-0.064l0.054,-0.065l0.053,-0.065l0.053,-0.066l0.051,-0.067l0.051,-0.067l0.051,-0.068l0.049,-0.069l0.048,-0.069l0.048,-0.069l0.047,-0.071l0.046,-0.07l0.045,-0.072l0.044,-0.072l0.044,-0.072l0.043,-0.073l0.041,-0.074l0.041,-0.074l0.04,-0.074l0.039,-0.075l0.038,-0.076l0.037,-0.076l0.037,-0.077l0.035,-0.077l0.035,-0.077l0.033,-0.078l0.033,-0.079l0.032,-0.079l0.03,-0.079l0.03,-0.08l0.029,-0.08l0.028,-0.081l0.027,-0.081l0.026,-0.082l0.025,-0.081l0.024,-0.083l0.023,-0.083l0.022,-0.083l0.021,-0.084l0.02,-0.084l0.019,-0.084l0.018,-0.085l0.017,-0.085l0.015,-0.086l0.015,-0.086l0.014,-0.086l0.013,-0.088l0.012,-0.087l0.01,-0.088l0.01,-0.087l0.008,-0.089l0.007,-0.089l0.007,-0.089l0.005,-0.09l0.004,-0.09l0.003,-0.091l0.001,-0.091l0.001,-0.091l-0.001,-0.091l-0.001,-0.091l-0.003,-0.091l-0.004,-0.09l-0.005,-0.09l-0.007,-0.089l-0.007,-0.089l-0.008,-0.089l-0.01,-0.087l-0.01,-0.088l-0.012,-0.087l-0.013,-0.088l-0.014,-0.086l-0.015,-0.086l-0.015,-0.086l-0.017,-0.085l-0.018,-0.085l-0.019,-0.084l-0.02,-0.084l-0.021,-0.084l-0.022,-0.083l-0.023,-0.083l-0.024,-0.083l-0.025,-0.081l-0.026,-0.082l-0.027,-0.081l-0.028,-0.081l-0.029,-0.08l-0.03,-0.08l-0.03,-0.079l-0.032,-0.079l-0.033,-0.079l-0.033,-0.078l-0.035,-0.077l-0.035,-0.077l-0.037,-0.077l-0.037,-0.076l-0.038,-0.076l-0.039,-0.075l-0.04,-0.074l-0.041,-0.074l-0.041,-0.074l-0.043,-0.073l-0.044,-0.072l-0.044,-0.072l-0.045,-0.072l-0.046,-0.07l-0.047,-0.071l-0.048,-0.069l-0.048,-0.069l-0.049,-0.069l-0.051,-0.068l-0.051,-0.067l-0.051,-0.067l-0.053,-0.066l-0.053,-0.065l-0.054,-0.065l-0.055,-0.064l-0.056,-0.063l-0.056,-0.063l-0.057,-0.062l-0.058,-0.062l-0.059,-0.06l-0.059,-0.06l-0.06,-0.059l-0.06,-0.059l-0.062,-0.058l-0.062,-0.057l-0.063,-0.056l-0.063,-0.056l-0.064,-0.055l-0.065,-0.054l-0.065,-0.053l-0.066,-0.053l-0.067,-0.052l-0.067,-0.05l-0.068,-0.051l-0.069,-0.049l-0.069,-0.048l-0.069,-0.048l-0.071,-0.047l-0.07,-0.046l-0.072,-0.045l-0.072,-0.044l-0.072,-0.044l-0.073,-0.043l-0.074,-0.041l-0.074,-0.041l-0.074,-0.04l-0.075,-0.039l-0.076,-0.038l-0.076,-0.037l-0.077,-0.037l-0.077,-0.035l-0.077,-0.035l-0.078,-0.033l-0.079,-0.033l-0.079,-0.032l-0.079,-0.03l-0.08,-0.03l-0.08,-0.029l-0.081,-0.028l-0.081,-0.027l-0.081,-0.026l-0.082,-0.025l-0.083,-0.024l-0.083,-0.023l-0.083,-0.022l-0.083,-0.021l-0.085,-0.02l-0.084,-0.019l-0.085,-0.018l-0.085,-0.017l-0.086,-0.015l-0.086,-0.015l-0.087,-0.014l-0.087,-0.013l-0.087,-0.011l-0.088,-0.011l-0.088,-0.01l-0.088,-0.008l-0.089,-0.007l-0.089,-0.007l-0.09,-0.005l-0.09,-0.004l-0.091,-0.003l-0.091,-0.001l-0.091,-0.001l-0.091,0.001Z"/><path d="M28.657,8l-19.657,19.657l-5.657,-5.657l19.657,-19.657l5.657,5.657Z"/><path d="M29,15l-7,9l-6,2l-6,-2l-7,-9c0,0 0,0.226 0,2c0,3.448 1.37,6.754 3.808,9.192c2.438,2.438 5.744,3.808 9.192,3.808c0,0 0,0 0,0c3.448,0 6.754,-1.37 9.192,-3.808c2.438,-2.438 3.808,-5.744 3.808,-9.192c0,-1.774 0,-2 0,-2Z" style="fill:none;stroke:#000;stroke-width:4px;"/></g><g id="emoji"><circle cx="16" cy="16" r="10"/><path d="M25.828,10l-16.828,16.828l-2.828,-2.828l16.828,-16.828l2.828,2.828Z" style="fill:#93151c;"/><path d="M16.167,4.001l0.167,0.003l0.167,0.005l0.166,0.008l0.166,0.009l0.165,0.012l0.164,0.013l0.164,0.016l0.164,0.018l0.163,0.019l0.162,0.022l0.162,0.024l0.161,0.025l0.16,0.028l0.16,0.03l0.159,0.031l0.159,0.034l0.157,0.035l0.157,0.038l0.157,0.039l0.155,0.041l0.155,0.043l0.154,0.045l0.153,0.046l0.152,0.049l0.152,0.05l0.151,0.052l0.15,0.054l0.149,0.056l0.148,0.057l0.147,0.059l0.147,0.061l0.145,0.063l0.145,0.064l0.143,0.066l0.143,0.068l0.141,0.069l0.141,0.071l0.14,0.073l0.139,0.074l0.137,0.076l0.137,0.078l0.135,0.079l0.135,0.08l0.133,0.083l0.133,0.083l0.131,0.086l0.13,0.087l0.129,0.088l0.128,0.09l0.127,0.091l0.126,0.093l0.124,0.094l0.124,0.096l0.122,0.097l0.12,0.099l0.12,0.1l0.119,0.101l0.117,0.103l0.116,0.104l0.115,0.106l0.113,0.106l0.112,0.109l0.111,0.109l0.109,0.111l0.109,0.112l0.106,0.113l0.106,0.115l0.104,0.116l0.103,0.117l0.101,0.119l0.1,0.119l0.099,0.121l0.097,0.122l0.096,0.124l0.094,0.124l0.093,0.126l0.091,0.127l0.09,0.128l0.088,0.129l0.087,0.13l0.086,0.131l0.083,0.133l0.083,0.133l0.08,0.135l0.079,0.135l0.078,0.137l0.076,0.137l0.074,0.139l0.073,0.14l0.071,0.141l0.069,0.141l0.068,0.143l0.066,0.143l0.064,0.145l0.063,0.145l0.061,0.147l0.059,0.147l0.057,0.148l0.056,0.149l0.054,0.15l0.052,0.151l0.05,0.152l0.049,0.152l0.046,0.153l0.045,0.154l0.043,0.155l0.041,0.155l0.039,0.157l0.038,0.157l0.035,0.158l0.034,0.158l0.031,0.159l0.03,0.16l0.028,0.16l0.025,0.161l0.024,0.162l0.022,0.162l0.019,0.163l0.018,0.164l0.016,0.164l0.013,0.164l0.012,0.165l0.009,0.166l0.008,0.166l0.005,0.167l0.003,0.167l0.001,0.167l-0.001,0.167l-0.003,0.167l-0.005,0.167l-0.008,0.166l-0.009,0.166l-0.012,0.165l-0.013,0.164l-0.016,0.164l-0.018,0.164l-0.019,0.163l-0.022,0.162l-0.024,0.162l-0.025,0.161l-0.028,0.16l-0.03,0.16l-0.031,0.159l-0.034,0.158l-0.035,0.158l-0.038,0.157l-0.039,0.157l-0.041,0.155l-0.043,0.155l-0.045,0.154l-0.046,0.153l-0.049,0.152l-0.05,0.152l-0.052,0.151l-0.054,0.15l-0.056,0.149l-0.057,0.148l-0.059,0.147l-0.061,0.147l-0.063,0.145l-0.064,0.145l-0.066,0.143l-0.068,0.143l-0.069,0.141l-0.071,0.141l-0.073,0.14l-0.074,0.139l-0.076,0.137l-0.078,0.137l-0.079,0.135l-0.08,0.135l-0.083,0.133l-0.083,0.133l-0.086,0.131l-0.087,0.13l-0.088,0.129l-0.09,0.128l-0.091,0.127l-0.093,0.126l-0.094,0.124l-0.096,0.124l-0.097,0.122l-0.099,0.121l-0.1,0.119l-0.101,0.119l-0.103,0.117l-0.104,0.116l-0.106,0.114l-0.106,0.114l-0.109,0.112l-0.109,0.111l-0.111,0.109l-0.112,0.109l-0.113,0.106l-0.115,0.106l-0.116,0.104l-0.117,0.103l-0.119,0.101l-0.119,0.1l-0.121,0.099l-0.123,0.097l-0.123,0.096l-0.124,0.094l-0.126,0.093l-0.127,0.091l-0.128,0.09l-0.129,0.088l-0.13,0.087l-0.131,0.086l-0.133,0.083l-0.133,0.083l-0.135,0.08l-0.135,0.079l-0.137,0.078l-0.137,0.076l-0.139,0.074l-0.14,0.073l-0.141,0.071l-0.141,0.069l-0.143,0.068l-0.143,0.066l-0.145,0.064l-0.145,0.063l-0.147,0.061l-0.147,0.059l-0.148,0.057l-0.149,0.056l-0.15,0.054l-0.151,0.052l-0.152,0.05l-0.152,0.049l-0.153,0.046l-0.154,0.045l-0.155,0.043l-0.155,0.041l-0.157,0.039l-0.157,0.038l-0.158,0.035l-0.158,0.034l-0.159,0.031l-0.16,0.03l-0.16,0.028l-0.161,0.025l-0.162,0.024l-0.162,0.022l-0.163,0.019l-0.164,0.018l-0.164,0.016l-0.164,0.013l-0.165,0.012l-0.166,0.009l-0.166,0.008l-0.167,0.005l-0.167,0.003l-0.167,0.001l-0.167,-0.001l-0.167,-0.003l-0.167,-0.005l-0.166,-0.008l-0.166,-0.009l-0.165,-0.012l-0.164,-0.013l-0.164,-0.016l-0.164,-0.018l-0.163,-0.019l-0.162,-0.022l-0.162,-0.024l-0.161,-0.025l-0.16,-0.028l-0.16,-0.03l-0.159,-0.031l-0.158,-0.034l-0.158,-0.035l-0.157,-0.038l-0.157,-0.039l-0.155,-0.041l-0.155,-0.043l-0.154,-0.045l-0.153,-0.046l-0.152,-0.049l-0.152,-0.05l-0.151,-0.052l-0.15,-0.054l-0.149,-0.056l-0.148,-0.057l-0.147,-0.059l-0.147,-0.061l-0.145,-0.063l-0.145,-0.064l-0.143,-0.066l-0.143,-0.068l-0.141,-0.069l-0.141,-0.071l-0.14,-0.073l-0.139,-0.074l-0.137,-0.076l-0.137,-0.078l-0.135,-0.079l-0.135,-0.08l-0.133,-0.083l-0.133,-0.083l-0.131,-0.086l-0.13,-0.087l-0.129,-0.088l-0.128,-0.09l-0.127,-0.091l-0.126,-0.093l-0.124,-0.094l-0.123,-0.096l-0.123,-0.097l-0.121,-0.099l-0.119,-0.1l-0.119,-0.101l-0.117,-0.103l-0.116,-0.104l-0.115,-0.106l-0.113,-0.106l-0.112,-0.109l-0.111,-0.109l-0.109,-0.111l-0.109,-0.112l-0.106,-0.114l-0.106,-0.114l-0.104,-0.116l-0.103,-0.117l-0.101,-0.119l-0.1,-0.12l-0.099,-0.12l-0.097,-0.122l-0.096,-0.124l-0.094,-0.124l-0.093,-0.126l-0.091,-0.127l-0.09,-0.128l-0.088,-0.129l-0.087,-0.13l-0.086,-0.131l-0.083,-0.133l-0.083,-0.133l-0.08,-0.135l-0.079,-0.135l-0.078,-0.137l-0.076,-0.137l-0.074,-0.139l-0.073,-0.14l-0.071,-0.141l-0.069,-0.141l-0.068,-0.143l-0.066,-0.143l-0.064,-0.145l-0.063,-0.145l-0.061,-0.147l-0.059,-0.147l-0.057,-0.148l-0.056,-0.149l-0.054,-0.15l-0.052,-0.151l-0.05,-0.152l-0.049,-0.152l-0.046,-0.153l-0.045,-0.154l-0.043,-0.155l-0.041,-0.156l-0.039,-0.156l-0.038,-0.157l-0.035,-0.157l-0.034,-0.159l-0.031,-0.159l-0.03,-0.16l-0.028,-0.16l-0.025,-0.161l-0.024,-0.162l-0.022,-0.162l-0.019,-0.163l-0.018,-0.164l-0.016,-0.164l-0.013,-0.164l-0.012,-0.165l-0.009,-0.166l-0.008,-0.166l-0.005,-0.167l-0.003,-0.167l-0.001,-0.167l0.001,-0.167l0.003,-0.167l0.005,-0.167l0.008,-0.166l0.009,-0.166l0.012,-0.165l0.013,-0.164l0.016,-0.164l0.018,-0.164l0.019,-0.163l0.022,-0.162l0.024,-0.162l0.025,-0.161l0.028,-0.16l0.03,-0.16l0.031,-0.159l0.034,-0.159l0.035,-0.157l0.038,-0.157l0.039,-0.156l0.041,-0.156l0.043,-0.155l0.045,-0.154l0.046,-0.153l0.049,-0.152l0.05,-0.152l0.052,-0.151l0.054,-0.15l0.056,-0.149l0.057,-0.148l0.059,-0.147l0.061,-0.147l0.063,-0.145l0.064,-0.145l0.066,-0.143l0.068,-0.143l0.069,-0.141l0.071,-0.141l0.073,-0.14l0.074,-0.139l0.076,-0.137l0.078,-0.137l0.079,-0.135l0.08,-0.135l0.083,-0.133l0.083,-0.133l0.086,-0.131l0.087,-0.13l0.088,-0.129l0.09,-0.128l0.091,-0.127l0.093,-0.126l0.094,-0.124l0.096,-0.124l0.097,-0.122l0.099,-0.12l0.1,-0.12l0.101,-0.119l0.103,-0.117l0.104,-0.116l0.106,-0.115l0.106,-0.113l0.109,-0.112l0.109,-0.111l0.111,-0.109l0.112,-0.109l0.113,-0.106l0.115,-0.106l0.116,-0.104l0.117,-0.103l0.119,-0.101l0.12,-0.1l0.12,-0.099l0.122,-0.097l0.124,-0.096l0.124,-0.094l0.126,-0.093l0.127,-0.091l0.128,-0.09l0.129,-0.088l0.13,-0.087l0.131,-0.086l0.133,-0.083l0.133,-0.083l0.135,-0.08l0.135,-0.079l0.137,-0.078l0.137,-0.076l0.139,-0.074l0.14,-0.073l0.141,-0.071l0.141,-0.069l0.143,-0.068l0.143,-0.066l0.145,-0.064l0.145,-0.063l0.147,-0.061l0.147,-0.059l0.148,-0.057l0.149,-0.056l0.15,-0.054l0.151,-0.052l0.152,-0.05l0.152,-0.049l0.153,-0.046l0.154,-0.045l0.155,-0.043l0.155,-0.041l0.157,-0.039l0.157,-0.038l0.157,-0.035l0.159,-0.034l0.159,-0.031l0.16,-0.03l0.16,-0.028l0.161,-0.025l0.162,-0.024l0.162,-0.022l0.163,-0.019l0.164,-0.018l0.164,-0.016l0.164,-0.013l0.165,-0.012l0.166,-0.009l0.166,-0.008l0.167,-0.005l0.167,-0.003l0.167,-0.001l0.167,0.001Zm-0.284,4l-0.116,0.002l-0.116,0.004l-0.115,0.005l-0.115,0.006l-0.115,0.008l-0.114,0.01l-0.114,0.011l-0.113,0.012l-0.113,0.013l-0.112,0.015l-0.112,0.017l-0.111,0.018l-0.111,0.019l-0.11,0.02l-0.11,0.022l-0.11,0.023l-0.109,0.025l-0.108,0.025l-0.108,0.027l-0.107,0.029l-0.107,0.029l-0.106,0.031l-0.106,0.033l-0.105,0.033l-0.105,0.035l-0.104,0.036l-0.103,0.037l-0.103,0.038l-0.103,0.04l-0.101,0.041l-0.101,0.042l-0.101,0.043l-0.1,0.045l-0.099,0.045l-0.099,0.047l-0.097,0.048l-0.098,0.049l-0.096,0.05l-0.096,0.052l-0.096,0.052l-0.094,0.054l-0.094,0.055l-0.093,0.056l-0.093,0.056l-0.091,0.058l-0.091,0.06l-0.091,0.06l-0.089,0.061l-0.089,0.062l-0.088,0.064l-0.087,0.064l-0.086,0.065l-0.086,0.067l-0.084,0.067l-0.084,0.069l-0.083,0.069l-0.082,0.07l-0.082,0.072l-0.08,0.072l-0.08,0.073l-0.079,0.074l-0.077,0.076l-0.077,0.076l-0.076,0.077l-0.076,0.077l-0.074,0.079l-0.073,0.08l-0.072,0.08l-0.072,0.082l-0.07,0.082l-0.069,0.083l-0.069,0.084l-0.067,0.084l-0.067,0.086l-0.065,0.086l-0.064,0.087l-0.064,0.088l-0.062,0.089l-0.061,0.089l-0.06,0.091l-0.06,0.091l-0.058,0.091l-0.056,0.093l-0.056,0.093l-0.055,0.094l-0.054,0.094l-0.052,0.096l-0.052,0.096l-0.05,0.096l-0.049,0.098l-0.048,0.097l-0.047,0.099l-0.045,0.099l-0.045,0.1l-0.043,0.101l-0.042,0.101l-0.041,0.101l-0.04,0.103l-0.038,0.103l-0.037,0.103l-0.036,0.104l-0.035,0.105l-0.033,0.105l-0.033,0.106l-0.031,0.106l-0.029,0.107l-0.029,0.107l-0.027,0.108l-0.025,0.108l-0.025,0.109l-0.023,0.11l-0.022,0.11l-0.02,0.11l-0.019,0.111l-0.018,0.111l-0.017,0.112l-0.015,0.112l-0.013,0.113l-0.012,0.113l-0.011,0.114l-0.01,0.114l-0.008,0.115l-0.006,0.115l-0.005,0.115l-0.004,0.116l-0.002,0.116l-0.001,0.117l0.001,0.117l0.002,0.116l0.004,0.116l0.005,0.115l0.006,0.115l0.008,0.115l0.01,0.114l0.011,0.114l0.012,0.113l0.013,0.113l0.015,0.112l0.017,0.112l0.018,0.111l0.019,0.111l0.02,0.11l0.022,0.11l0.023,0.11l0.025,0.109l0.025,0.108l0.027,0.108l0.029,0.107l0.029,0.107l0.031,0.106l0.033,0.106l0.033,0.105l0.035,0.105l0.036,0.104l0.037,0.103l0.038,0.103l0.04,0.103l0.041,0.101l0.042,0.101l0.043,0.101l0.045,0.1l0.045,0.099l0.047,0.099l0.048,0.097l0.049,0.098l0.05,0.096l0.052,0.096l0.052,0.096l0.054,0.094l0.055,0.094l0.056,0.093l0.056,0.093l0.058,0.091l0.06,0.091l0.06,0.091l0.061,0.089l0.062,0.089l0.064,0.088l0.064,0.087l0.065,0.086l0.067,0.086l0.067,0.084l0.069,0.084l0.069,0.083l0.07,0.082l0.072,0.082l0.072,0.08l0.073,0.08l0.074,0.079l0.076,0.077l0.076,0.077l0.077,0.076l0.077,0.076l0.079,0.074l0.08,0.073l0.08,0.072l0.082,0.072l0.082,0.07l0.083,0.069l0.084,0.069l0.084,0.067l0.086,0.067l0.086,0.065l0.087,0.064l0.088,0.064l0.089,0.062l0.089,0.061l0.091,0.06l0.091,0.059l0.091,0.059l0.093,0.057l0.093,0.055l0.094,0.055l0.094,0.054l0.096,0.052l0.096,0.052l0.096,0.05l0.098,0.049l0.097,0.048l0.099,0.047l0.099,0.045l0.1,0.045l0.101,0.043l0.101,0.042l0.101,0.041l0.103,0.04l0.103,0.038l0.103,0.037l0.104,0.036l0.105,0.035l0.105,0.033l0.106,0.033l0.106,0.031l0.107,0.029l0.107,0.029l0.108,0.027l0.108,0.025l0.109,0.025l0.11,0.023l0.11,0.022l0.11,0.02l0.111,0.019l0.111,0.018l0.112,0.017l0.112,0.015l0.113,0.013l0.113,0.012l0.114,0.011l0.114,0.01l0.115,0.008l0.115,0.006l0.115,0.005l0.116,0.004l0.116,0.002l0.117,0.001l0.117,-0.001l0.116,-0.002l0.116,-0.004l0.115,-0.005l0.115,-0.006l0.115,-0.008l0.114,-0.01l0.114,-0.011l0.113,-0.012l0.113,-0.013l0.112,-0.015l0.112,-0.017l0.111,-0.018l0.111,-0.019l0.11,-0.02l0.11,-0.022l0.11,-0.023l0.109,-0.025l0.108,-0.025l0.108,-0.027l0.107,-0.029l0.107,-0.029l0.106,-0.031l0.106,-0.033l0.105,-0.033l0.105,-0.035l0.104,-0.036l0.103,-0.037l0.103,-0.038l0.103,-0.04l0.101,-0.041l0.101,-0.042l0.101,-0.043l0.1,-0.045l0.099,-0.045l0.099,-0.047l0.097,-0.048l0.098,-0.049l0.096,-0.05l0.096,-0.052l0.096,-0.052l0.094,-0.054l0.094,-0.055l0.093,-0.055l0.093,-0.057l0.091,-0.059l0.091,-0.059l0.091,-0.06l0.089,-0.061l0.089,-0.062l0.088,-0.064l0.087,-0.064l0.086,-0.065l0.086,-0.067l0.084,-0.067l0.084,-0.069l0.083,-0.069l0.082,-0.07l0.082,-0.072l0.08,-0.072l0.08,-0.073l0.079,-0.074l0.077,-0.076l0.077,-0.076l0.076,-0.077l0.076,-0.077l0.074,-0.079l0.073,-0.08l0.072,-0.08l0.072,-0.082l0.07,-0.082l0.069,-0.083l0.069,-0.084l0.067,-0.084l0.067,-0.086l0.065,-0.086l0.064,-0.087l0.064,-0.088l0.062,-0.089l0.061,-0.089l0.06,-0.091l0.059,-0.091l0.059,-0.091l0.056,-0.093l0.056,-0.093l0.055,-0.094l0.054,-0.094l0.052,-0.096l0.052,-0.096l0.05,-0.096l0.049,-0.097l0.048,-0.098l0.047,-0.099l0.045,-0.099l0.045,-0.1l0.043,-0.101l0.042,-0.101l0.041,-0.101l0.04,-0.103l0.038,-0.103l0.037,-0.103l0.036,-0.104l0.035,-0.105l0.033,-0.105l0.033,-0.106l0.031,-0.106l0.029,-0.107l0.029,-0.107l0.027,-0.108l0.025,-0.108l0.025,-0.109l0.023,-0.11l0.022,-0.11l0.02,-0.11l0.019,-0.111l0.018,-0.111l0.016,-0.112l0.016,-0.112l0.013,-0.113l0.012,-0.113l0.011,-0.114l0.01,-0.114l0.008,-0.115l0.006,-0.115l0.005,-0.115l0.004,-0.116l0.002,-0.116l0.001,-0.117l-0.001,-0.117l-0.002,-0.116l-0.004,-0.116l-0.005,-0.115l-0.006,-0.115l-0.008,-0.115l-0.01,-0.114l-0.011,-0.114l-0.012,-0.113l-0.013,-0.113l-0.016,-0.112l-0.016,-0.112l-0.018,-0.111l-0.019,-0.111l-0.02,-0.11l-0.022,-0.11l-0.023,-0.11l-0.025,-0.109l-0.025,-0.108l-0.027,-0.108l-0.029,-0.107l-0.029,-0.107l-0.031,-0.106l-0.033,-0.106l-0.033,-0.105l-0.035,-0.105l-0.036,-0.104l-0.037,-0.103l-0.038,-0.103l-0.04,-0.103l-0.041,-0.101l-0.042,-0.101l-0.043,-0.101l-0.045,-0.1l-0.045,-0.099l-0.047,-0.099l-0.048,-0.098l-0.049,-0.097l-0.05,-0.096l-0.052,-0.096l-0.052,-0.096l-0.054,-0.094l-0.055,-0.094l-0.056,-0.093l-0.056,-0.093l-0.058,-0.091l-0.06,-0.091l-0.06,-0.091l-0.061,-0.089l-0.062,-0.089l-0.064,-0.088l-0.064,-0.087l-0.065,-0.086l-0.067,-0.086l-0.067,-0.084l-0.069,-0.084l-0.069,-0.083l-0.07,-0.082l-0.072,-0.082l-0.072,-0.08l-0.073,-0.08l-0.074,-0.079l-0.076,-0.077l-0.076,-0.077l-0.077,-0.076l-0.077,-0.076l-0.079,-0.074l-0.08,-0.073l-0.08,-0.072l-0.082,-0.072l-0.082,-0.07l-0.083,-0.069l-0.084,-0.069l-0.084,-0.067l-0.086,-0.067l-0.086,-0.065l-0.087,-0.064l-0.088,-0.064l-0.089,-0.062l-0.089,-0.061l-0.091,-0.06l-0.091,-0.06l-0.091,-0.058l-0.093,-0.056l-0.093,-0.056l-0.094,-0.055l-0.094,-0.054l-0.096,-0.052l-0.096,-0.052l-0.096,-0.05l-0.098,-0.049l-0.097,-0.048l-0.099,-0.047l-0.099,-0.045l-0.1,-0.045l-0.101,-0.043l-0.101,-0.042l-0.101,-0.041l-0.103,-0.04l-0.103,-0.038l-0.103,-0.037l-0.104,-0.036l-0.105,-0.035l-0.105,-0.033l-0.106,-0.033l-0.106,-0.031l-0.107,-0.029l-0.107,-0.029l-0.108,-0.027l-0.108,-0.025l-0.109,-0.025l-0.11,-0.023l-0.11,-0.022l-0.11,-0.02l-0.111,-0.019l-0.111,-0.018l-0.112,-0.017l-0.112,-0.015l-0.113,-0.013l-0.113,-0.012l-0.114,-0.011l-0.114,-0.01l-0.115,-0.008l-0.115,-0.006l-0.115,-0.005l-0.116,-0.004l-0.116,-0.002l-0.117,-0.001l-0.117,0.001Z" style="fill:#93151c;"/><rect x="3" y="15" width="3" height="2" style="fill:#93151c;"/><rect x="26" y="15" width="3" height="2" style="fill:#93151c;"/><path d="M16.167,2.001l0.167,0.003l0.167,0.005l0.166,0.008l0.166,0.009l0.165,0.012l0.164,0.013l0.164,0.016l0.164,0.018l0.163,0.019l0.162,0.022l0.162,0.024l0.161,0.025l0.16,0.028l0.16,0.03l0.159,0.031l0.159,0.034l0.157,0.035l0.157,0.037l0.157,0.04l0.155,0.041l0.155,0.043l0.154,0.045l0.153,0.046l0.152,0.049l0.152,0.05l0.151,0.052l0.15,0.054l0.149,0.056l0.148,0.057l0.147,0.059l0.147,0.061l0.145,0.063l0.145,0.064l0.143,0.066l0.143,0.068l0.141,0.069l0.141,0.071l0.14,0.073l0.139,0.074l0.137,0.076l0.137,0.078l0.135,0.079l0.135,0.08l0.133,0.083l0.133,0.083l0.131,0.086l0.13,0.087l0.129,0.088l0.128,0.09l0.127,0.091l0.126,0.093l0.124,0.094l0.124,0.096l0.122,0.097l0.12,0.099l0.12,0.1l0.119,0.101l0.117,0.103l0.116,0.104l0.115,0.106l0.113,0.106l0.112,0.109l0.111,0.109l0.109,0.111l0.109,0.112l0.106,0.113l0.106,0.115l0.104,0.116l0.103,0.117l0.101,0.119l0.1,0.119l0.099,0.121l0.097,0.122l0.096,0.124l0.094,0.124l0.093,0.126l0.091,0.127l0.09,0.128l0.088,0.129l0.087,0.13l0.086,0.131l0.083,0.133l0.083,0.133l0.08,0.135l0.079,0.135l0.078,0.137l0.076,0.137l0.074,0.139l0.073,0.14l0.071,0.141l0.069,0.141l0.068,0.143l0.066,0.143l0.064,0.145l0.063,0.145l0.061,0.147l0.059,0.147l0.057,0.148l0.056,0.149l0.054,0.15l0.052,0.151l0.05,0.152l0.049,0.152l0.046,0.153l0.045,0.154l0.043,0.155l0.041,0.155l0.039,0.157l0.038,0.157l0.035,0.158l0.034,0.158l0.031,0.159l0.03,0.16l0.028,0.16l0.025,0.161l0.024,0.162l0.022,0.162l0.019,0.163l0.018,0.164l0.016,0.164l0.013,0.164l0.012,0.165l0.009,0.166l0.008,0.166l0.005,0.167l0.003,0.167l0.001,0.167l-0.001,0.167l-0.003,0.167l-0.005,0.167l-0.008,0.166l-0.009,0.166l-0.012,0.165l-0.013,0.164l-0.016,0.164l-0.018,0.164l-0.019,0.163l-0.022,0.162l-0.024,0.162l-0.025,0.161l-0.028,0.16l-0.03,0.16l-0.031,0.159l-0.034,0.158l-0.035,0.158l-0.038,0.157l-0.039,0.157l-0.041,0.155l-0.043,0.155l-0.045,0.154l-0.046,0.153l-0.049,0.152l-0.05,0.152l-0.052,0.151l-0.054,0.15l-0.056,0.149l-0.057,0.148l-0.059,0.147l-0.061,0.147l-0.063,0.145l-0.064,0.145l-0.066,0.143l-0.068,0.143l-0.069,0.141l-0.071,0.141l-0.073,0.14l-0.074,0.139l-0.076,0.137l-0.078,0.137l-0.079,0.135l-0.08,0.135l-0.083,0.133l-0.083,0.133l-0.086,0.131l-0.087,0.13l-0.088,0.129l-0.09,0.128l-0.091,0.127l-0.093,0.126l-0.094,0.124l-0.096,0.124l-0.097,0.122l-0.099,0.121l-0.1,0.119l-0.101,0.119l-0.103,0.117l-0.104,0.116l-0.106,0.115l-0.106,0.113l-0.109,0.112l-0.109,0.111l-0.111,0.109l-0.112,0.109l-0.113,0.106l-0.115,0.106l-0.116,0.104l-0.117,0.103l-0.119,0.101l-0.12,0.1l-0.12,0.099l-0.122,0.097l-0.124,0.096l-0.124,0.094l-0.126,0.093l-0.127,0.091l-0.128,0.09l-0.129,0.088l-0.13,0.087l-0.131,0.086l-0.133,0.083l-0.133,0.083l-0.135,0.08l-0.135,0.079l-0.137,0.078l-0.137,0.076l-0.139,0.074l-0.14,0.073l-0.141,0.071l-0.141,0.069l-0.143,0.068l-0.143,0.066l-0.145,0.064l-0.145,0.063l-0.147,0.061l-0.147,0.059l-0.148,0.057l-0.149,0.056l-0.15,0.054l-0.151,0.052l-0.152,0.05l-0.152,0.049l-0.153,0.046l-0.154,0.045l-0.155,0.043l-0.156,0.041l-0.156,0.039l-0.157,0.038l-0.157,0.035l-0.159,0.034l-0.159,0.031l-0.16,0.03l-0.16,0.028l-0.161,0.025l-0.162,0.024l-0.162,0.022l-0.163,0.019l-0.164,0.018l-0.164,0.016l-0.164,0.013l-0.165,0.012l-0.166,0.009l-0.166,0.008l-0.167,0.005l-0.167,0.003l-0.167,0.001l-0.167,-0.001l-0.167,-0.003l-0.167,-0.005l-0.166,-0.008l-0.166,-0.009l-0.165,-0.012l-0.164,-0.013l-0.164,-0.016l-0.164,-0.018l-0.163,-0.019l-0.162,-0.022l-0.162,-0.024l-0.161,-0.025l-0.16,-0.028l-0.16,-0.03l-0.159,-0.031l-0.159,-0.034l-0.157,-0.035l-0.157,-0.038l-0.156,-0.039l-0.156,-0.041l-0.155,-0.043l-0.154,-0.045l-0.153,-0.046l-0.152,-0.049l-0.152,-0.05l-0.151,-0.052l-0.15,-0.054l-0.149,-0.056l-0.148,-0.057l-0.147,-0.059l-0.147,-0.061l-0.145,-0.063l-0.145,-0.064l-0.143,-0.066l-0.143,-0.068l-0.141,-0.069l-0.141,-0.071l-0.14,-0.073l-0.139,-0.074l-0.137,-0.076l-0.137,-0.078l-0.135,-0.079l-0.135,-0.08l-0.133,-0.083l-0.133,-0.083l-0.131,-0.086l-0.13,-0.087l-0.129,-0.088l-0.128,-0.09l-0.127,-0.091l-0.126,-0.093l-0.124,-0.094l-0.124,-0.096l-0.122,-0.097l-0.12,-0.099l-0.12,-0.1l-0.119,-0.101l-0.117,-0.103l-0.116,-0.104l-0.115,-0.106l-0.113,-0.106l-0.112,-0.109l-0.111,-0.109l-0.109,-0.111l-0.109,-0.112l-0.106,-0.113l-0.106,-0.115l-0.104,-0.116l-0.103,-0.117l-0.101,-0.119l-0.1,-0.12l-0.099,-0.12l-0.097,-0.122l-0.096,-0.124l-0.094,-0.124l-0.093,-0.126l-0.091,-0.127l-0.09,-0.128l-0.088,-0.129l-0.087,-0.13l-0.086,-0.131l-0.083,-0.133l-0.083,-0.133l-0.08,-0.135l-0.079,-0.135l-0.078,-0.137l-0.076,-0.137l-0.074,-0.139l-0.073,-0.14l-0.071,-0.141l-0.069,-0.141l-0.068,-0.143l-0.066,-0.143l-0.064,-0.145l-0.063,-0.145l-0.061,-0.147l-0.059,-0.147l-0.057,-0.148l-0.056,-0.149l-0.054,-0.15l-0.052,-0.151l-0.05,-0.152l-0.049,-0.152l-0.046,-0.153l-0.045,-0.154l-0.043,-0.155l-0.041,-0.156l-0.039,-0.156l-0.038,-0.157l-0.035,-0.157l-0.034,-0.159l-0.031,-0.159l-0.03,-0.16l-0.028,-0.16l-0.025,-0.161l-0.024,-0.162l-0.022,-0.162l-0.019,-0.163l-0.018,-0.164l-0.016,-0.164l-0.013,-0.164l-0.012,-0.165l-0.009,-0.166l-0.008,-0.166l-0.005,-0.167l-0.003,-0.167l-0.001,-0.167l0.001,-0.167l0.003,-0.167l0.005,-0.167l0.008,-0.166l0.009,-0.166l0.012,-0.165l0.013,-0.164l0.016,-0.164l0.018,-0.164l0.019,-0.163l0.022,-0.162l0.024,-0.162l0.025,-0.161l0.028,-0.16l0.03,-0.16l0.031,-0.159l0.034,-0.159l0.035,-0.157l0.038,-0.157l0.039,-0.156l0.041,-0.156l0.043,-0.155l0.045,-0.154l0.046,-0.153l0.049,-0.152l0.05,-0.152l0.052,-0.151l0.054,-0.15l0.056,-0.149l0.057,-0.148l0.059,-0.147l0.061,-0.147l0.063,-0.145l0.064,-0.145l0.066,-0.143l0.068,-0.143l0.069,-0.141l0.071,-0.141l0.073,-0.14l0.074,-0.139l0.076,-0.137l0.078,-0.137l0.079,-0.135l0.08,-0.135l0.083,-0.133l0.083,-0.133l0.086,-0.131l0.087,-0.13l0.088,-0.129l0.09,-0.128l0.091,-0.127l0.093,-0.126l0.094,-0.124l0.096,-0.124l0.097,-0.122l0.099,-0.12l0.1,-0.12l0.101,-0.119l0.103,-0.117l0.104,-0.116l0.106,-0.115l0.106,-0.113l0.109,-0.112l0.109,-0.111l0.111,-0.109l0.112,-0.109l0.113,-0.106l0.115,-0.106l0.116,-0.104l0.117,-0.103l0.119,-0.101l0.12,-0.1l0.12,-0.099l0.122,-0.097l0.124,-0.096l0.124,-0.094l0.126,-0.093l0.127,-0.091l0.128,-0.09l0.129,-0.088l0.13,-0.087l0.131,-0.086l0.133,-0.083l0.133,-0.083l0.135,-0.08l0.135,-0.079l0.137,-0.078l0.137,-0.076l0.139,-0.074l0.14,-0.073l0.141,-0.071l0.141,-0.069l0.143,-0.068l0.143,-0.066l0.145,-0.064l0.145,-0.063l0.147,-0.061l0.147,-0.059l0.148,-0.057l0.149,-0.056l0.15,-0.054l0.151,-0.052l0.152,-0.05l0.152,-0.049l0.153,-0.046l0.154,-0.045l0.155,-0.043l0.155,-0.041l0.157,-0.04l0.157,-0.037l0.157,-0.035l0.159,-0.034l0.159,-0.031l0.16,-0.03l0.16,-0.028l0.161,-0.025l0.162,-0.024l0.162,-0.022l0.163,-0.019l0.164,-0.018l0.164,-0.016l0.164,-0.013l0.165,-0.012l0.166,-0.009l0.166,-0.008l0.167,-0.005l0.167,-0.003l0.167,-0.001l0.167,0.001Zm-0.284,4l-0.116,0.002l-0.116,0.004l-0.115,0.005l-0.115,0.006l-0.115,0.008l-0.114,0.01l-0.114,0.011l-0.113,0.012l-0.113,0.013l-0.112,0.015l-0.112,0.017l-0.111,0.018l-0.111,0.019l-0.11,0.02l-0.11,0.022l-0.11,0.023l-0.109,0.025l-0.108,0.025l-0.108,0.027l-0.107,0.029l-0.107,0.029l-0.106,0.031l-0.106,0.033l-0.105,0.033l-0.105,0.035l-0.104,0.036l-0.103,0.037l-0.103,0.038l-0.103,0.04l-0.101,0.041l-0.101,0.042l-0.101,0.043l-0.1,0.045l-0.099,0.045l-0.099,0.047l-0.097,0.048l-0.098,0.049l-0.096,0.05l-0.096,0.052l-0.096,0.052l-0.094,0.054l-0.094,0.055l-0.093,0.056l-0.093,0.056l-0.091,0.058l-0.091,0.06l-0.091,0.06l-0.089,0.061l-0.089,0.062l-0.088,0.064l-0.087,0.064l-0.086,0.065l-0.086,0.067l-0.084,0.067l-0.084,0.069l-0.083,0.069l-0.082,0.07l-0.082,0.072l-0.08,0.072l-0.08,0.073l-0.079,0.074l-0.077,0.076l-0.077,0.076l-0.076,0.077l-0.076,0.077l-0.074,0.079l-0.073,0.08l-0.072,0.08l-0.072,0.082l-0.07,0.082l-0.069,0.083l-0.069,0.084l-0.067,0.084l-0.067,0.086l-0.065,0.086l-0.064,0.087l-0.064,0.088l-0.062,0.089l-0.061,0.089l-0.06,0.091l-0.06,0.091l-0.058,0.091l-0.056,0.093l-0.056,0.093l-0.055,0.094l-0.054,0.094l-0.052,0.096l-0.052,0.096l-0.05,0.096l-0.049,0.098l-0.048,0.097l-0.047,0.099l-0.045,0.099l-0.045,0.1l-0.043,0.101l-0.042,0.101l-0.041,0.101l-0.04,0.103l-0.038,0.103l-0.037,0.103l-0.036,0.104l-0.035,0.105l-0.033,0.105l-0.033,0.106l-0.031,0.106l-0.029,0.107l-0.029,0.107l-0.027,0.108l-0.025,0.108l-0.025,0.109l-0.023,0.11l-0.022,0.11l-0.02,0.11l-0.019,0.111l-0.018,0.111l-0.017,0.112l-0.015,0.112l-0.013,0.113l-0.012,0.113l-0.011,0.114l-0.01,0.114l-0.008,0.115l-0.006,0.115l-0.005,0.115l-0.004,0.116l-0.002,0.116l-0.001,0.117l0.001,0.117l0.002,0.116l0.004,0.116l0.005,0.115l0.006,0.115l0.008,0.115l0.01,0.114l0.011,0.114l0.012,0.113l0.013,0.113l0.015,0.112l0.017,0.112l0.018,0.111l0.019,0.111l0.02,0.11l0.022,0.11l0.023,0.11l0.025,0.109l0.025,0.108l0.027,0.108l0.029,0.107l0.029,0.107l0.031,0.106l0.033,0.106l0.033,0.105l0.035,0.105l0.036,0.104l0.037,0.103l0.038,0.103l0.04,0.103l0.041,0.101l0.042,0.101l0.043,0.101l0.045,0.1l0.045,0.099l0.047,0.099l0.048,0.097l0.049,0.098l0.05,0.096l0.052,0.096l0.052,0.096l0.054,0.094l0.055,0.094l0.056,0.093l0.056,0.093l0.058,0.091l0.06,0.091l0.06,0.091l0.061,0.089l0.062,0.089l0.064,0.088l0.064,0.087l0.065,0.086l0.067,0.086l0.067,0.084l0.069,0.084l0.069,0.083l0.07,0.082l0.072,0.082l0.072,0.08l0.073,0.08l0.074,0.079l0.076,0.077l0.076,0.077l0.077,0.076l0.077,0.076l0.079,0.074l0.08,0.073l0.08,0.072l0.082,0.072l0.082,0.07l0.083,0.069l0.084,0.069l0.084,0.067l0.086,0.067l0.086,0.065l0.087,0.064l0.088,0.064l0.089,0.062l0.089,0.061l0.091,0.06l0.091,0.06l0.091,0.058l0.093,0.056l0.093,0.056l0.094,0.055l0.094,0.054l0.096,0.052l0.096,0.052l0.096,0.05l0.098,0.049l0.097,0.048l0.099,0.047l0.099,0.045l0.1,0.045l0.101,0.043l0.101,0.042l0.101,0.041l0.103,0.04l0.103,0.038l0.103,0.037l0.104,0.036l0.105,0.035l0.105,0.033l0.106,0.033l0.106,0.031l0.107,0.029l0.107,0.029l0.108,0.027l0.108,0.025l0.109,0.025l0.11,0.023l0.11,0.022l0.11,0.02l0.111,0.019l0.111,0.018l0.112,0.017l0.112,0.015l0.113,0.013l0.113,0.012l0.114,0.011l0.114,0.01l0.115,0.008l0.115,0.006l0.115,0.005l0.116,0.004l0.116,0.002l0.117,0.001l0.117,-0.001l0.116,-0.002l0.116,-0.004l0.115,-0.005l0.115,-0.006l0.115,-0.008l0.114,-0.01l0.114,-0.011l0.113,-0.012l0.113,-0.013l0.112,-0.015l0.112,-0.017l0.111,-0.018l0.111,-0.019l0.11,-0.02l0.11,-0.022l0.11,-0.023l0.109,-0.025l0.108,-0.025l0.108,-0.027l0.107,-0.029l0.107,-0.029l0.106,-0.031l0.106,-0.033l0.105,-0.033l0.105,-0.035l0.104,-0.036l0.103,-0.037l0.103,-0.038l0.103,-0.04l0.101,-0.041l0.101,-0.042l0.101,-0.043l0.1,-0.045l0.099,-0.045l0.099,-0.047l0.097,-0.048l0.098,-0.049l0.096,-0.05l0.096,-0.052l0.096,-0.052l0.094,-0.054l0.094,-0.055l0.093,-0.056l0.093,-0.056l0.091,-0.058l0.091,-0.06l0.091,-0.06l0.089,-0.061l0.089,-0.062l0.088,-0.064l0.087,-0.064l0.086,-0.065l0.086,-0.067l0.084,-0.067l0.084,-0.069l0.083,-0.069l0.082,-0.07l0.082,-0.072l0.08,-0.072l0.08,-0.073l0.079,-0.074l0.077,-0.076l0.077,-0.076l0.076,-0.077l0.076,-0.077l0.074,-0.079l0.073,-0.08l0.072,-0.08l0.072,-0.082l0.07,-0.082l0.069,-0.083l0.069,-0.084l0.067,-0.084l0.067,-0.086l0.065,-0.086l0.064,-0.087l0.064,-0.088l0.062,-0.089l0.061,-0.089l0.06,-0.091l0.06,-0.091l0.058,-0.091l0.056,-0.093l0.056,-0.093l0.055,-0.094l0.054,-0.094l0.052,-0.096l0.052,-0.096l0.05,-0.096l0.049,-0.097l0.048,-0.098l0.047,-0.099l0.045,-0.099l0.045,-0.1l0.043,-0.101l0.042,-0.101l0.041,-0.101l0.04,-0.103l0.038,-0.103l0.037,-0.103l0.036,-0.104l0.035,-0.105l0.033,-0.105l0.033,-0.106l0.031,-0.106l0.029,-0.107l0.029,-0.107l0.027,-0.108l0.025,-0.108l0.025,-0.109l0.023,-0.11l0.022,-0.11l0.02,-0.11l0.019,-0.111l0.018,-0.111l0.016,-0.112l0.016,-0.112l0.013,-0.113l0.012,-0.113l0.011,-0.114l0.01,-0.114l0.008,-0.115l0.006,-0.115l0.005,-0.115l0.004,-0.116l0.002,-0.116l0.001,-0.117l-0.001,-0.117l-0.002,-0.116l-0.004,-0.116l-0.005,-0.115l-0.006,-0.115l-0.008,-0.115l-0.01,-0.114l-0.011,-0.114l-0.012,-0.113l-0.013,-0.113l-0.016,-0.112l-0.016,-0.112l-0.018,-0.111l-0.019,-0.111l-0.02,-0.11l-0.022,-0.11l-0.023,-0.11l-0.025,-0.109l-0.025,-0.108l-0.027,-0.108l-0.029,-0.107l-0.029,-0.107l-0.031,-0.106l-0.033,-0.106l-0.033,-0.105l-0.035,-0.105l-0.036,-0.104l-0.037,-0.103l-0.038,-0.103l-0.04,-0.103l-0.041,-0.101l-0.042,-0.101l-0.043,-0.101l-0.045,-0.1l-0.045,-0.099l-0.047,-0.099l-0.048,-0.098l-0.049,-0.097l-0.05,-0.096l-0.052,-0.096l-0.052,-0.096l-0.054,-0.094l-0.055,-0.094l-0.056,-0.093l-0.056,-0.093l-0.058,-0.091l-0.06,-0.091l-0.06,-0.091l-0.061,-0.089l-0.062,-0.089l-0.064,-0.088l-0.064,-0.087l-0.065,-0.086l-0.067,-0.086l-0.067,-0.084l-0.069,-0.084l-0.069,-0.083l-0.07,-0.082l-0.072,-0.082l-0.072,-0.08l-0.073,-0.08l-0.074,-0.079l-0.076,-0.077l-0.076,-0.077l-0.077,-0.076l-0.077,-0.076l-0.079,-0.074l-0.08,-0.073l-0.08,-0.072l-0.082,-0.072l-0.082,-0.07l-0.083,-0.069l-0.084,-0.069l-0.084,-0.067l-0.086,-0.067l-0.086,-0.065l-0.087,-0.064l-0.088,-0.064l-0.089,-0.062l-0.089,-0.061l-0.091,-0.06l-0.091,-0.06l-0.091,-0.058l-0.093,-0.056l-0.093,-0.056l-0.094,-0.055l-0.094,-0.054l-0.096,-0.052l-0.096,-0.052l-0.096,-0.05l-0.098,-0.049l-0.097,-0.048l-0.099,-0.047l-0.099,-0.045l-0.1,-0.045l-0.101,-0.043l-0.101,-0.042l-0.101,-0.041l-0.103,-0.04l-0.103,-0.038l-0.103,-0.037l-0.104,-0.036l-0.105,-0.035l-0.105,-0.033l-0.106,-0.033l-0.106,-0.031l-0.107,-0.029l-0.107,-0.029l-0.108,-0.027l-0.108,-0.025l-0.109,-0.025l-0.11,-0.023l-0.11,-0.022l-0.11,-0.02l-0.111,-0.019l-0.111,-0.018l-0.112,-0.017l-0.112,-0.015l-0.113,-0.013l-0.113,-0.012l-0.114,-0.011l-0.114,-0.01l-0.115,-0.008l-0.115,-0.006l-0.115,-0.005l-0.116,-0.004l-0.116,-0.002l-0.117,-0.001l-0.117,0.001Z" style="fill:#e02a33;"/><path d="M25.828,8l-16.828,16.828l-2.828,-2.828l16.828,-16.828l2.828,2.828Z" style="fill:#e02a33;"/></g></g></svg>