<?xml version="1.0" encoding="UTF-8" standalone="no"?><!DOCTYPE svg PUBLIC "-//W3C//DTD SVG 1.1//EN" "http://www.w3.org/Graphics/SVG/1.1/DTD/svg11.dtd"><svg width="100%" height="100%" viewBox="0 0 32 32" version="1.1" xmlns="http://www.w3.org/2000/svg" xmlns:xlink="http://www.w3.org/1999/xlink" xml:space="preserve" xmlns:serif="http://www.serif.com/" style="fill-rule:evenodd;clip-rule:evenodd;stroke-linejoin:round;stroke-miterlimit:1.41421;"><rect id="no_entry" x="0" y="0" width="32" height="32" style="fill:none;"/><clipPath id="_clip1"><rect x="0" y="0" width="32" height="32"/></clipPath><g clip-path="url(#_clip1)"><g id="outline"><path d="M31,15c0,-3.978 -1.58,-7.794 -4.393,-10.607c-2.813,-2.813 -6.629,-4.393 -10.607,-4.393c0,0 0,0 0,0c-3.978,0 -7.794,1.58 -10.607,4.393c-2.813,2.813 -4.393,6.629 -4.393,10.607c0,0.666 0,1.334 0,2c0,3.978 1.58,7.794 4.393,10.607c2.813,2.813 6.629,4.393 10.607,4.393c0,0 0,0 0,0c3.978,0 7.794,-1.58 10.607,-4.393c2.813,-2.813 4.393,-6.629 4.393,-10.607c0,-0.666 0,-1.334 0,-2Z"/></g><g id="emoji"><path d="M29,14l-26,0c0,0 0,1.226 0,3c0,3.448 1.37,6.754 3.808,9.192c2.438,2.438 5.744,3.808 9.192,3.808c0,0 0,0 0,0c3.448,0 6.754,-1.37 9.192,-3.808c2.438,-2.438 3.808,-5.744 3.808,-9.192c0,-1.774 0,-3 0,-3Z" style="fill:#93151c;"/><circle cx="16" cy="15" r="13" style="fill:#e02a33;"/><path d="M26,13c0,-0.265 -0.105,-0.52 -0.293,-0.707c-0.187,-0.188 -0.442,-0.293 -0.707,-0.293c-3.414,0 -14.586,0 -18,0c-0.265,0 -0.52,0.105 -0.707,0.293c-0.188,0.187 -0.293,0.442 -0.293,0.707c0,1.11 0,2.89 0,4c0,0.265 0.105,0.52 0.293,0.707c0.187,0.188 0.442,0.293 0.707,0.293c3.414,0 14.586,0 18,0c0.265,0 0.52,-0.105 0.707,-0.293c0.188,-0.187 0.293,-0.442 0.293,-0.707c0,-1.11 0,-2.89 0,-4Z" style="fill:#fff;"/></g></g></svg>