<?xml version="1.0" encoding="UTF-8" standalone="no"?><!DOCTYPE svg PUBLIC "-//W3C//DTD SVG 1.1//EN" "http://www.w3.org/Graphics/SVG/1.1/DTD/svg11.dtd"><svg width="100%" height="100%" viewBox="0 0 32 32" version="1.1" xmlns="http://www.w3.org/2000/svg" xmlns:xlink="http://www.w3.org/1999/xlink" xml:space="preserve" xmlns:serif="http://www.serif.com/" style="fill-rule:evenodd;clip-rule:evenodd;stroke-linecap:square;stroke-linejoin:round;stroke-miterlimit:1.5;"><rect id="stop_sign" x="0" y="0" width="32" height="32" style="fill:none;"/><clipPath id="_clip1"><rect x="0" y="0" width="32" height="32"/></clipPath><g clip-path="url(#_clip1)"><g id="outline"><path d="M21.385,30l-10.77,0l-7.615,-7.622l0,-10.779l0,-2l7.615,-7.622l10.77,0l7.615,7.622l0,12.779l-7.615,7.622Z" style="fill:none;stroke:#000;stroke-width:4px;"/></g><g id="emoji"><path d="M29,20.378l0,2l-7.615,7.622l-10.77,0l-7.615,-7.622l0,-2l26,0Z" style="fill:#93151c;"/><path d="M21.385,1.977l7.615,7.622l0,10.779l-7.615,7.622l-10.77,0l-7.615,-7.622l0,-10.779l7.615,-7.622l10.77,0Z" style="fill:#e02a33;"/></g></g></svg>