<?xml version="1.0" encoding="UTF-8" standalone="no"?><!DOCTYPE svg PUBLIC "-//W3C//DTD SVG 1.1//EN" "http://www.w3.org/Graphics/SVG/1.1/DTD/svg11.dtd"><svg width="100%" height="100%" viewBox="0 0 32 32" version="1.1" xmlns="http://www.w3.org/2000/svg" xmlns:xlink="http://www.w3.org/1999/xlink" xml:space="preserve" xmlns:serif="http://www.serif.com/" style="fill-rule:evenodd;clip-rule:evenodd;stroke-linejoin:round;stroke-miterlimit:1.41421;"><rect id="stop_sign" x="0" y="0" width="32" height="32" style="fill:none;"/><clipPath id="_clip1"><rect x="0" y="0" width="32" height="32"/></clipPath><g clip-path="url(#_clip1)"><g id="outline"><g><path d="M21.799,1.977l8.201,8.209l0,11.608l-8.201,8.208l-11.598,0l-8.201,-8.208l0,-11.608l8.201,-8.209l11.598,0Z" style="fill:#d72d35;"/><path d="M32,9.358l0,13.264l-9.372,9.38l-13.256,0l-9.372,-9.38l0,-13.264l9.372,-9.381l13.256,0l9.372,9.381Zm-20.97,-5.381l-7.03,7.036l0,9.953l7.03,7.036l9.94,0l7.03,-7.036l0,-9.953l-7.03,-7.036l-9.94,0Z"/></g></g><g id="emoji"><path d="M21.799,1.977l8.201,8.209l0,11.608l-8.201,8.208l-11.598,0l-8.201,-8.208l0,-11.608l8.201,-8.209l11.598,0Z" style="fill:#e02a33;"/></g></g></svg>