<?xml version="1.0" encoding="UTF-8" standalone="no"?>
<!DOCTYPE svg PUBLIC "-//W3C//DTD SVG 1.1//EN" "http://www.w3.org/Graphics/SVG/1.1/DTD/svg11.dtd">
<svg width="100%" height="100%" viewBox="0 0 32 32" version="1.1" xmlns="http://www.w3.org/2000/svg" xmlns:xlink="http://www.w3.org/1999/xlink" xml:space="preserve" xmlns:serif="http://www.serif.com/" style="fill-rule:evenodd;clip-rule:evenodd;stroke-miterlimit:1.5;">
    <rect id="gryphon" x="0" y="0" width="32" height="32" style="fill:none;"/>
    <clipPath id="_clip1">
        <rect x="0" y="0" width="32" height="32"/>
    </clipPath>
    <g clip-path="url(#_clip1)">
        <g id="outline">
            <path d="M5,14l9,2l0,-6l-10,0l0,2l1,2Z" style="fill:none;stroke:#000;stroke-width:4px;"/>
            <path d="M14,7c0,0 -2.81,0 -4.584,0c-0.931,0 -1.85,0.217 -2.683,0.633c-1.76,0.881 -4.733,2.367 -4.733,2.367l3,6l0,-3l9,0l0,-6" style="fill:none;stroke:#000;stroke-width:4px;stroke-linejoin:round;"/>
            <path d="M30,14c0,-2.387 -0.948,-4.676 -2.636,-6.364c-1.688,-1.688 -3.977,-2.636 -6.364,-2.636c-0.586,0 -1.141,0 -1.639,0c-1.553,0 -3.084,0.361 -4.472,1.056c-0.962,0.48 -1.889,0.944 -1.889,0.944c0,0 0,4.51 0,6.757c0,0.796 0.316,1.559 0.879,2.122c0.181,0.181 0.368,0.368 0.535,0.535c0.375,0.375 0.586,0.884 0.586,1.414c0,1.172 0,3.172 0,3.172l12,4l3,3c0,0 0,-2.821 0,-4.882c0,-1.399 -0.267,-2.786 -0.787,-4.085c-0.56,-1.4 -1.213,-3.033 -1.213,-3.033l2,1c0,0 0,-1.278 0,-3Z" style="fill:none;stroke:#000;stroke-width:4px;stroke-linejoin:round;"/>
            <path d="M27,25l-12.846,0l-2.154,0l0,5l15,0l0,-5Z" style="fill:none;stroke:#000;stroke-width:4px;"/>
            <path d="M14,16l3,0l0,14l-5,0l0,-3l-2,2c0,0 0,-0.622 0,-1.494c0,-3.416 1.792,-6.581 4.721,-8.339c0,0 0,0 0,0c0.173,-0.104 0.279,-0.29 0.279,-0.492c0,-0.23 0,-0.549 0,-0.847c0,-0.53 -0.211,-1.039 -0.586,-1.414c-0.218,-0.218 -0.414,-0.414 -0.414,-0.414Z" style="fill:none;stroke:#000;stroke-width:4px;stroke-linejoin:round;"/>
            <path d="M20,5l10,0c0,0 -1.169,1.169 -2.243,2.243c-1.125,1.125 -2.651,1.757 -4.242,1.757c-1.651,0 -3.515,0 -3.515,0l0,-4Z" style="fill:none;stroke:#000;stroke-width:4px;stroke-linejoin:round;"/>
        </g>
        <g id="emoji">
            <path d="M5,14l9,2l0,-6l-10,0l0,2l1,2Z" style="fill:#726123;"/>
            <path d="M14,7c0,0 -2.81,0 -4.584,0c-0.931,0 -1.85,0.217 -2.683,0.633c-1.76,0.881 -4.733,2.367 -4.733,2.367l3,6l0,-3l9,0l0,-6" style="fill:#a48233;"/>
            <path d="M30,14c0,-2.387 -0.948,-4.676 -2.636,-6.364c-1.688,-1.688 -3.977,-2.636 -6.364,-2.636c-0.586,0 -1.141,0 -1.639,0c-1.553,0 -3.084,0.361 -4.472,1.056c-0.962,0.48 -1.889,0.944 -1.889,0.944c0,0 0,4.51 0,6.757c0,0.796 0.316,1.559 0.879,2.122c0.181,0.181 0.368,0.368 0.535,0.535c0.375,0.375 0.586,0.884 0.586,1.414c0,0.631 0,1.502 0,2.172c0,0.649 -0.211,1.281 -0.6,1.8c-0.344,0.458 -0.788,1.05 -1.2,1.6c-0.779,1.039 -1.2,2.302 -1.2,3.6c0,1.392 0,3 0,3l15,0l0,-5l3,3c0,0 0,-2.821 0,-4.882c0,-1.399 -0.267,-2.786 -0.787,-4.085c-0.56,-1.4 -1.213,-3.033 -1.213,-3.033l2,1c0,0 0,-1.278 0,-3Z" style="fill:#835118;"/>
            <path d="M14,16c0,0 0,0 0.001,0c1.819,0 3.464,1.084 4.18,2.756c0.84,1.959 1.819,4.244 1.819,4.244l-2,0l2.333,7l-8.333,0l0,-3l-2,2c0,0 0,-0.622 0,-1.494c0,-3.416 1.792,-6.581 4.721,-8.339c0,0 0,0 0,0c0.173,-0.104 0.279,-0.29 0.279,-0.492c0,-0.23 0,-0.549 0,-0.847c0,-0.53 -0.211,-1.039 -0.586,-1.414c-0.218,-0.218 -0.414,-0.414 -0.414,-0.414Z" style="fill:#c69359;"/>
            <path d="M20,5l10,0c0,0 -1.169,1.169 -2.243,2.243c-1.125,1.125 -2.651,1.757 -4.242,1.757c-1.651,0 -3.515,0 -3.515,0l0,-4Z" style="fill:#835118;"/>
            <path d="M12,8.5c0,-0.133 -0.053,-0.26 -0.146,-0.354c-0.094,-0.093 -0.221,-0.146 -0.354,-0.146c-0.305,0 -0.695,0 -1,0c-0.133,0 -0.26,0.053 -0.354,0.146c-0.093,0.094 -0.146,0.221 -0.146,0.354c0,0.133 0.053,0.26 0.146,0.354c0.094,0.093 0.221,0.146 0.354,0.146c0.305,0 0.695,0 1,0c0.133,0 0.26,-0.053 0.354,-0.146c0.093,-0.094 0.146,-0.221 0.146,-0.354c0,0 0,0 0,0Z" style="fill:#726123;"/>
            <path d="M17,9c0,0 1,0 2,0c1.105,0 2,-0.895 2,-2c0,0 0,0 0,0c0,0 -1.815,0 -3,0c-0.552,0 -1,0.448 -1,1c0,0.5 0,1 0,1Z"/>
        </g>
    </g>
</svg>
