<?xml version="1.0" encoding="UTF-8" standalone="no"?><!DOCTYPE svg PUBLIC "-//W3C//DTD SVG 1.1//EN" "http://www.w3.org/Graphics/SVG/1.1/DTD/svg11.dtd"><svg width="100%" height="100%" viewBox="0 0 32 32" version="1.1" xmlns="http://www.w3.org/2000/svg" xmlns:xlink="http://www.w3.org/1999/xlink" xml:space="preserve" xmlns:serif="http://www.serif.com/" style="fill-rule:evenodd;clip-rule:evenodd;stroke-linecap:round;"><rect id="slime" x="0" y="0" width="32" height="32" style="fill:none;"/><clipPath id="_clip1"><rect x="0" y="0" width="32" height="32"/></clipPath><g clip-path="url(#_clip1)"><g id="outline"><path d="M2.656,22.607c-0.432,-2.377 -0.353,-4.82 0.233,-7.164c0.254,-1.014 0.542,-2.167 0.839,-3.353c1.335,-5.342 6.135,-9.09 11.641,-9.09c0.42,0 0.842,0 1.262,0c5.506,0 10.306,3.748 11.641,9.09c0.297,1.186 0.585,2.339 0.839,3.353c0.586,2.344 0.665,4.787 0.233,7.164c-0.166,0.912 -0.346,1.904 -0.519,2.855c-0.207,1.141 -0.9,2.136 -1.897,2.727c-0.998,0.59 -2.203,0.719 -3.303,0.353c-0.125,-0.042 -0.245,-0.082 -0.36,-0.12c-0.821,-0.274 -1.709,-0.274 -2.53,0c-1.021,0.34 -2.449,0.816 -3.47,1.156c-0.821,0.274 -1.709,0.274 -2.53,0c-1.021,-0.34 -2.449,-0.816 -3.47,-1.156c-0.821,-0.274 -1.709,-0.274 -2.53,0c-0.115,0.038 -0.235,0.078 -0.36,0.12c-1.1,0.366 -2.305,0.237 -3.303,-0.353c-0.997,-0.591 -1.69,-1.586 -1.897,-2.727c-0.173,-0.951 -0.353,-1.943 -0.519,-2.855Z" style="fill:none;stroke:#000;stroke-width:4px;"/></g><g id="emoji"><path d="M2.656,22.607c-0.432,-2.377 -0.353,-4.82 0.233,-7.164c0.254,-1.014 0.542,-2.167 0.839,-3.353c1.335,-5.342 6.135,-9.09 11.641,-9.09c0.42,0 0.842,0 1.262,0c5.506,0 10.306,3.748 11.641,9.09c0.297,1.186 0.585,2.339 0.839,3.353c0.586,2.344 0.665,4.787 0.233,7.164c-0.166,0.912 -0.346,1.904 -0.519,2.855c-0.207,1.141 -0.9,2.136 -1.897,2.727c-0.998,0.59 -2.203,0.719 -3.303,0.353c-0.125,-0.042 -0.245,-0.082 -0.36,-0.12c-0.821,-0.274 -1.709,-0.274 -2.53,0c-1.021,0.34 -2.449,0.816 -3.47,1.156c-0.821,0.274 -1.709,0.274 -2.53,0c-1.021,-0.34 -2.449,-0.816 -3.47,-1.156c-0.821,-0.274 -1.709,-0.274 -2.53,0c-0.115,0.038 -0.235,0.078 -0.36,0.12c-1.1,0.366 -2.305,0.237 -3.303,-0.353c-0.997,-0.591 -1.69,-1.586 -1.897,-2.727c-0.173,-0.951 -0.353,-1.943 -0.519,-2.855Z" style="fill:#2af237;"/><path d="M12,11.5c0,-0.828 -0.672,-1.5 -1.5,-1.5c-0.828,0 -1.5,0.672 -1.5,1.5c0,0.916 0,2.084 0,3c0,0.828 0.672,1.5 1.5,1.5c0.828,0 1.5,-0.672 1.5,-1.5c0,-0.916 0,-2.084 0,-3Z"/><path d="M23,11.5c0,-0.828 -0.672,-1.5 -1.5,-1.5c-0.828,0 -1.5,0.672 -1.5,1.5c0,0.916 0,2.084 0,3c0,0.828 0.672,1.5 1.5,1.5c0.828,0 1.5,-0.672 1.5,-1.5c0,-0.916 0,-2.084 0,-3Z"/><path d="M9,19c0,0 1.155,1.155 2.031,2.031c0.579,0.579 1.463,0.722 2.194,0.356c0.623,-0.311 1.365,-0.682 1.925,-0.962c0.535,-0.268 1.165,-0.268 1.7,0c0.56,0.28 1.302,0.651 1.925,0.962c0.731,0.366 1.615,0.223 2.194,-0.356c0.876,-0.876 2.031,-2.031 2.031,-2.031" style="fill:none;stroke:#000;stroke-width:2px;"/><path d="M15.5,5c0,0 -0.001,0 -0.002,0c-5.246,0 -9.498,4.252 -9.498,9.498c0,0.318 0,0.502 0,0.502" style="fill:none;stroke:#9df78b;stroke-width:2px;"/></g></g></svg>