<?xml version="1.0" encoding="UTF-8" standalone="no"?><!DOCTYPE svg PUBLIC "-//W3C//DTD SVG 1.1//EN" "http://www.w3.org/Graphics/SVG/1.1/DTD/svg11.dtd"><svg width="100%" height="100%" viewBox="0 0 32 32" version="1.1" xmlns="http://www.w3.org/2000/svg" xmlns:xlink="http://www.w3.org/1999/xlink" xml:space="preserve" xmlns:serif="http://www.serif.com/" style="fill-rule:evenodd;clip-rule:evenodd;stroke-linejoin:round;stroke-miterlimit:1.41421;"><rect id="so_gay" x="0" y="0" width="32" height="32" style="fill:none;"/><clipPath id="_clip1"><rect x="0" y="0" width="32" height="32"/></clipPath><g clip-path="url(#_clip1)"><g id="outline"><path d="M24.099,0.001l0.1,0.001l0.099,0.003l0.099,0.005l0.098,0.005l0.099,0.007l0.098,0.008l0.099,0.009l0.098,0.01l0.097,0.012l0.098,0.013l0.097,0.014l0.097,0.015l0.097,0.016l0.097,0.017l0.096,0.019l0.096,0.02l0.096,0.021l0.095,0.022l0.095,0.023l0.095,0.025l0.094,0.025l0.094,0.027l0.094,0.028l0.093,0.029l0.093,0.03l0.092,0.031l0.092,0.032l0.092,0.034l0.091,0.034l0.091,0.036l0.09,0.037l0.09,0.038l0.09,0.039l0.089,0.04l0.088,0.041l0.088,0.042l0.088,0.044l0.087,0.044l0.086,0.045l0.086,0.047l0.085,0.047l0.085,0.049l0.084,0.05l0.084,0.051l0.083,0.051l0.083,0.053l0.081,0.054l0.082,0.055l0.08,0.056l0.08,0.057l0.08,0.058l0.078,0.059l0.078,0.06l0.078,0.061l0.076,0.062l0.076,0.063l0.075,0.064l0.075,0.065l0.073,0.066l0.073,0.067l0.073,0.067l0.071,0.069l0.071,0.07l0.07,0.071l0.069,0.071l0.067,0.073l0.067,0.073l0.066,0.073l0.065,0.075l0.064,0.075l0.063,0.076l0.062,0.076l0.061,0.078l0.06,0.078l0.059,0.078l0.058,0.08l0.057,0.08l0.056,0.08l0.055,0.082l0.054,0.081l0.053,0.083l0.051,0.083l0.051,0.084l0.05,0.084l0.049,0.085l0.047,0.085l0.047,0.086l0.045,0.086l0.044,0.087l0.044,0.088l0.042,0.088l0.041,0.088l0.04,0.089l0.039,0.09l0.038,0.089l0.037,0.091l0.036,0.091l0.034,0.091l0.034,0.092l0.032,0.092l0.031,0.092l0.03,0.093l0.029,0.093l0.028,0.094l0.027,0.094l0.025,0.094l0.025,0.095l0.023,0.095l0.022,0.095l0.021,0.096l0.02,0.096l0.019,0.096l0.017,0.097l0.016,0.097l0.015,0.097l0.014,0.097l0.013,0.098l0.012,0.097l0.01,0.098l0.009,0.099l0.008,0.098l0.007,0.099l0.005,0.098l0.005,0.099l0.003,0.099l0.001,0.1l0.001,0.093l0,16.012l-0.001,0.093l-0.001,0.1l-0.003,0.099l-0.005,0.099l-0.005,0.098l-0.007,0.099l-0.008,0.098l-0.009,0.099l-0.01,0.098l-0.012,0.097l-0.013,0.098l-0.014,0.097l-0.015,0.097l-0.016,0.097l-0.017,0.097l-0.019,0.096l-0.02,0.096l-0.021,0.096l-0.022,0.095l-0.023,0.095l-0.025,0.095l-0.025,0.094l-0.027,0.094l-0.028,0.094l-0.029,0.093l-0.03,0.093l-0.031,0.092l-0.032,0.092l-0.034,0.092l-0.034,0.091l-0.036,0.091l-0.037,0.091l-0.038,0.089l-0.039,0.09l-0.04,0.089l-0.041,0.088l-0.042,0.088l-0.044,0.088l-0.044,0.087l-0.045,0.086l-0.047,0.086l-0.047,0.085l-0.049,0.085l-0.05,0.084l-0.051,0.084l-0.051,0.083l-0.053,0.083l-0.054,0.081l-0.055,0.082l-0.056,0.08l-0.057,0.08l-0.058,0.08l-0.059,0.078l-0.06,0.078l-0.061,0.078l-0.062,0.076l-0.063,0.076l-0.064,0.075l-0.065,0.075l-0.066,0.073l-0.067,0.073l-0.067,0.073l-0.069,0.071l-0.07,0.071l-0.071,0.07l-0.071,0.069l-0.073,0.067l-0.072,0.067l-0.074,0.066l-0.075,0.065l-0.075,0.064l-0.076,0.063l-0.076,0.062l-0.078,0.061l-0.078,0.06l-0.078,0.059l-0.08,0.058l-0.08,0.057l-0.08,0.056l-0.082,0.055l-0.081,0.054l-0.083,0.053l-0.083,0.051l-0.084,0.051l-0.084,0.05l-0.085,0.049l-0.085,0.047l-0.086,0.047l-0.086,0.045l-0.087,0.044l-0.088,0.044l-0.088,0.042l-0.088,0.041l-0.089,0.04l-0.09,0.039l-0.089,0.038l-0.091,0.037l-0.091,0.036l-0.091,0.034l-0.092,0.034l-0.092,0.032l-0.092,0.031l-0.093,0.03l-0.093,0.029l-0.094,0.028l-0.094,0.027l-0.094,0.025l-0.095,0.025l-0.095,0.023l-0.095,0.022l-0.096,0.021l-0.096,0.02l-0.096,0.019l-0.097,0.017l-0.097,0.016l-0.097,0.015l-0.097,0.014l-0.098,0.013l-0.097,0.012l-0.098,0.01l-0.099,0.009l-0.098,0.008l-0.099,0.007l-0.098,0.005l-0.099,0.005l-0.099,0.003l-0.1,0.001l-0.093,0.001l-16.012,0l-0.093,-0.001l-0.1,-0.001l-0.099,-0.003l-0.099,-0.005l-0.098,-0.005l-0.099,-0.007l-0.098,-0.008l-0.099,-0.009l-0.098,-0.01l-0.097,-0.012l-0.098,-0.013l-0.097,-0.014l-0.097,-0.015l-0.097,-0.016l-0.097,-0.017l-0.096,-0.019l-0.096,-0.02l-0.096,-0.021l-0.095,-0.022l-0.095,-0.023l-0.095,-0.025l-0.094,-0.025l-0.094,-0.027l-0.094,-0.028l-0.093,-0.029l-0.093,-0.03l-0.092,-0.031l-0.092,-0.032l-0.092,-0.034l-0.091,-0.034l-0.091,-0.036l-0.091,-0.037l-0.089,-0.038l-0.09,-0.039l-0.089,-0.04l-0.088,-0.041l-0.088,-0.042l-0.088,-0.044l-0.087,-0.044l-0.086,-0.045l-0.086,-0.047l-0.085,-0.048l-0.085,-0.048l-0.084,-0.05l-0.084,-0.051l-0.083,-0.051l-0.083,-0.053l-0.081,-0.054l-0.082,-0.055l-0.08,-0.056l-0.08,-0.057l-0.08,-0.058l-0.078,-0.059l-0.078,-0.06l-0.078,-0.061l-0.076,-0.062l-0.076,-0.063l-0.075,-0.064l-0.075,-0.065l-0.074,-0.066l-0.072,-0.067l-0.073,-0.067l-0.071,-0.069l-0.071,-0.07l-0.07,-0.071l-0.069,-0.071l-0.067,-0.073l-0.067,-0.073l-0.066,-0.073l-0.065,-0.075l-0.064,-0.075l-0.063,-0.076l-0.062,-0.076l-0.061,-0.078l-0.06,-0.078l-0.059,-0.078l-0.058,-0.08l-0.057,-0.08l-0.056,-0.08l-0.055,-0.082l-0.054,-0.081l-0.053,-0.083l-0.051,-0.083l-0.051,-0.084l-0.05,-0.084l-0.049,-0.085l-0.047,-0.085l-0.047,-0.086l-0.045,-0.086l-0.044,-0.087l-0.044,-0.088l-0.042,-0.088l-0.041,-0.088l-0.04,-0.089l-0.039,-0.09l-0.038,-0.09l-0.037,-0.09l-0.036,-0.091l-0.034,-0.091l-0.034,-0.092l-0.032,-0.092l-0.031,-0.092l-0.03,-0.093l-0.029,-0.093l-0.028,-0.094l-0.027,-0.094l-0.025,-0.094l-0.025,-0.095l-0.023,-0.095l-0.022,-0.095l-0.021,-0.096l-0.02,-0.096l-0.019,-0.096l-0.017,-0.097l-0.016,-0.097l-0.015,-0.097l-0.014,-0.097l-0.013,-0.098l-0.012,-0.097l-0.01,-0.098l-0.009,-0.099l-0.008,-0.098l-0.007,-0.099l-0.005,-0.098l-0.005,-0.099l-0.003,-0.099l-0.001,-0.1l-0.001,-0.093l0,-16.012l0.001,-0.093l0.001,-0.1l0.003,-0.099l0.005,-0.099l0.005,-0.098l0.007,-0.099l0.008,-0.098l0.009,-0.099l0.01,-0.098l0.012,-0.097l0.013,-0.098l0.014,-0.097l0.015,-0.097l0.016,-0.097l0.017,-0.097l0.019,-0.096l0.02,-0.096l0.021,-0.096l0.022,-0.095l0.023,-0.095l0.025,-0.095l0.025,-0.094l0.027,-0.094l0.028,-0.094l0.029,-0.093l0.03,-0.093l0.031,-0.092l0.032,-0.092l0.034,-0.092l0.034,-0.091l0.036,-0.091l0.037,-0.09l0.038,-0.09l0.039,-0.09l0.04,-0.089l0.041,-0.088l0.042,-0.088l0.044,-0.088l0.044,-0.087l0.045,-0.086l0.047,-0.086l0.047,-0.085l0.049,-0.085l0.05,-0.084l0.051,-0.084l0.051,-0.083l0.053,-0.083l0.054,-0.081l0.055,-0.082l0.056,-0.08l0.057,-0.08l0.058,-0.08l0.059,-0.078l0.06,-0.078l0.061,-0.078l0.062,-0.076l0.063,-0.076l0.064,-0.075l0.065,-0.075l0.066,-0.074l0.067,-0.072l0.067,-0.073l0.069,-0.071l0.07,-0.071l0.071,-0.07l0.071,-0.069l0.073,-0.067l0.073,-0.067l0.073,-0.066l0.075,-0.065l0.075,-0.064l0.076,-0.063l0.076,-0.062l0.078,-0.061l0.078,-0.06l0.078,-0.059l0.08,-0.058l0.08,-0.057l0.08,-0.056l0.082,-0.055l0.081,-0.054l0.083,-0.053l0.083,-0.051l0.084,-0.051l0.084,-0.05l0.085,-0.049l0.085,-0.047l0.086,-0.047l0.086,-0.045l0.087,-0.044l0.088,-0.044l0.088,-0.042l0.088,-0.041l0.089,-0.04l0.09,-0.039l0.09,-0.038l0.09,-0.037l0.091,-0.036l0.091,-0.034l0.092,-0.034l0.092,-0.032l0.092,-0.031l0.093,-0.03l0.093,-0.029l0.094,-0.028l0.094,-0.027l0.094,-0.025l0.095,-0.025l0.095,-0.023l0.095,-0.022l0.096,-0.021l0.096,-0.02l0.096,-0.019l0.097,-0.017l0.097,-0.016l0.097,-0.015l0.097,-0.014l0.098,-0.013l0.097,-0.012l0.098,-0.01l0.099,-0.009l0.098,-0.008l0.099,-0.007l0.098,-0.005l0.099,-0.005l0.099,-0.003l0.1,-0.001l0.093,-0.001l16.012,0l0.093,0.001Zm-16.093,3.999l-0.056,0l-0.049,0.001l-0.05,0.002l-0.049,0.002l-0.05,0.003l-0.049,0.003l-0.049,0.004l-0.049,0.005l-0.049,0.005l-0.049,0.006l-0.049,0.006l-0.049,0.007l-0.048,0.007l-0.049,0.009l-0.048,0.008l-0.048,0.01l-0.048,0.009l-0.048,0.011l-0.047,0.011l-0.048,0.012l-0.047,0.012l-0.047,0.013l-0.047,0.013l-0.047,0.014l-0.047,0.014l-0.046,0.015l-0.047,0.016l-0.046,0.016l-0.046,0.017l-0.045,0.017l-0.046,0.018l-0.045,0.019l-0.045,0.018l-0.044,0.02l-0.045,0.02l-0.044,0.021l-0.044,0.021l-0.044,0.021l-0.043,0.023l-0.044,0.022l-0.043,0.024l-0.042,0.023l-0.043,0.025l-0.042,0.025l-0.042,0.025l-0.041,0.026l-0.041,0.026l-0.041,0.027l-0.041,0.028l-0.04,0.027l-0.04,0.029l-0.04,0.029l-0.039,0.029l-0.039,0.03l-0.039,0.031l-0.038,0.031l-0.038,0.031l-0.038,0.032l-0.037,0.033l-0.037,0.033l-0.036,0.033l-0.036,0.034l-0.036,0.035l-0.035,0.035l-0.035,0.035l-0.035,0.036l-0.034,0.036l-0.033,0.036l-0.033,0.037l-0.033,0.038l-0.032,0.037l-0.031,0.038l-0.031,0.038l-0.031,0.039l-0.03,0.039l-0.029,0.039l-0.029,0.04l-0.029,0.04l-0.027,0.04l-0.028,0.041l-0.027,0.041l-0.026,0.041l-0.026,0.041l-0.025,0.042l-0.025,0.042l-0.025,0.043l-0.023,0.042l-0.024,0.043l-0.022,0.044l-0.023,0.043l-0.021,0.044l-0.021,0.044l-0.021,0.044l-0.02,0.045l-0.02,0.044l-0.018,0.045l-0.019,0.045l-0.018,0.046l-0.017,0.046l-0.017,0.045l-0.016,0.046l-0.016,0.047l-0.015,0.046l-0.014,0.047l-0.014,0.047l-0.013,0.047l-0.013,0.047l-0.012,0.047l-0.012,0.048l-0.011,0.047l-0.011,0.048l-0.009,0.048l-0.01,0.048l-0.008,0.048l-0.009,0.049l-0.007,0.048l-0.007,0.049l-0.006,0.049l-0.006,0.049l-0.005,0.049l-0.005,0.049l-0.004,0.049l-0.003,0.049l-0.003,0.05l-0.002,0.049l-0.002,0.05l-0.001,0.049l0,0.056l0,15.988l0,0.056l0.001,0.049l0.002,0.05l0.002,0.049l0.003,0.05l0.003,0.049l0.004,0.049l0.005,0.049l0.005,0.049l0.006,0.049l0.006,0.049l0.007,0.049l0.007,0.048l0.009,0.049l0.008,0.048l0.01,0.048l0.009,0.048l0.011,0.048l0.011,0.047l0.012,0.048l0.012,0.047l0.013,0.047l0.013,0.047l0.014,0.047l0.014,0.047l0.015,0.046l0.016,0.047l0.016,0.046l0.017,0.046l0.017,0.045l0.018,0.046l0.019,0.045l0.018,0.045l0.02,0.044l0.02,0.045l0.021,0.044l0.021,0.044l0.021,0.044l0.023,0.043l0.022,0.044l0.024,0.043l0.023,0.042l0.025,0.043l0.024,0.042l0.026,0.042l0.026,0.041l0.026,0.041l0.027,0.041l0.028,0.041l0.027,0.04l0.029,0.04l0.029,0.04l0.029,0.039l0.03,0.039l0.031,0.039l0.031,0.038l0.031,0.038l0.032,0.037l0.033,0.038l0.033,0.037l0.033,0.036l0.034,0.036l0.035,0.036l0.035,0.035l0.035,0.035l0.036,0.035l0.036,0.034l0.036,0.033l0.037,0.033l0.037,0.033l0.038,0.032l0.038,0.031l0.038,0.031l0.039,0.031l0.039,0.03l0.039,0.029l0.04,0.029l0.04,0.029l0.04,0.027l0.041,0.028l0.041,0.027l0.041,0.026l0.041,0.026l0.042,0.026l0.042,0.024l0.043,0.025l0.042,0.023l0.043,0.024l0.044,0.022l0.043,0.023l0.044,0.021l0.044,0.021l0.044,0.021l0.045,0.02l0.044,0.02l0.045,0.018l0.045,0.019l0.046,0.018l0.046,0.017l0.045,0.017l0.046,0.016l0.047,0.016l0.046,0.015l0.047,0.014l0.047,0.014l0.047,0.013l0.047,0.013l0.047,0.012l0.048,0.012l0.047,0.011l0.048,0.011l0.048,0.009l0.048,0.01l0.048,0.008l0.049,0.009l0.048,0.007l0.049,0.007l0.049,0.006l0.049,0.006l0.049,0.005l0.049,0.005l0.049,0.004l0.049,0.003l0.05,0.003l0.049,0.002l0.05,0.002l0.049,0.001l0.056,0l15.988,0l0.056,0l0.049,-0.001l0.05,-0.002l0.049,-0.002l0.05,-0.003l0.049,-0.003l0.049,-0.004l0.049,-0.005l0.049,-0.005l0.049,-0.006l0.049,-0.006l0.049,-0.007l0.048,-0.007l0.049,-0.009l0.048,-0.008l0.048,-0.01l0.048,-0.009l0.048,-0.011l0.047,-0.011l0.048,-0.012l0.047,-0.012l0.047,-0.013l0.047,-0.013l0.047,-0.014l0.047,-0.014l0.046,-0.015l0.047,-0.016l0.046,-0.016l0.045,-0.017l0.046,-0.017l0.046,-0.018l0.045,-0.019l0.045,-0.018l0.044,-0.02l0.045,-0.02l0.044,-0.021l0.044,-0.021l0.044,-0.021l0.043,-0.023l0.044,-0.022l0.043,-0.024l0.042,-0.023l0.043,-0.025l0.042,-0.024l0.042,-0.026l0.041,-0.026l0.041,-0.026l0.041,-0.027l0.041,-0.028l0.04,-0.027l0.04,-0.029l0.04,-0.029l0.039,-0.029l0.039,-0.03l0.039,-0.031l0.038,-0.031l0.038,-0.031l0.038,-0.032l0.037,-0.033l0.037,-0.033l0.036,-0.033l0.036,-0.034l0.036,-0.035l0.035,-0.035l0.035,-0.035l0.035,-0.036l0.034,-0.036l0.033,-0.036l0.033,-0.037l0.033,-0.037l0.032,-0.038l0.031,-0.038l0.031,-0.038l0.031,-0.039l0.03,-0.039l0.029,-0.039l0.029,-0.04l0.029,-0.04l0.027,-0.04l0.028,-0.041l0.027,-0.041l0.026,-0.041l0.026,-0.041l0.026,-0.042l0.024,-0.042l0.025,-0.043l0.023,-0.042l0.024,-0.043l0.022,-0.044l0.023,-0.043l0.021,-0.044l0.021,-0.044l0.021,-0.044l0.02,-0.045l0.02,-0.044l0.019,-0.045l0.018,-0.046l0.018,-0.045l0.017,-0.045l0.017,-0.046l0.016,-0.046l0.016,-0.047l0.015,-0.046l0.014,-0.047l0.014,-0.047l0.013,-0.047l0.013,-0.047l0.012,-0.047l0.012,-0.048l0.011,-0.047l0.011,-0.048l0.009,-0.048l0.01,-0.048l0.008,-0.048l0.009,-0.049l0.007,-0.048l0.007,-0.049l0.006,-0.049l0.006,-0.049l0.005,-0.049l0.005,-0.049l0.004,-0.049l0.003,-0.049l0.003,-0.05l0.002,-0.049l0.002,-0.05l0.001,-0.049l0,-0.056l0,-15.988l0,-0.056l-0.001,-0.049l-0.002,-0.05l-0.002,-0.049l-0.003,-0.05l-0.003,-0.049l-0.004,-0.049l-0.005,-0.049l-0.005,-0.049l-0.006,-0.049l-0.006,-0.049l-0.007,-0.049l-0.007,-0.048l-0.009,-0.049l-0.008,-0.048l-0.01,-0.048l-0.009,-0.048l-0.011,-0.048l-0.011,-0.047l-0.012,-0.048l-0.012,-0.047l-0.013,-0.047l-0.013,-0.047l-0.014,-0.047l-0.014,-0.047l-0.015,-0.046l-0.016,-0.047l-0.016,-0.046l-0.017,-0.045l-0.017,-0.046l-0.018,-0.045l-0.019,-0.046l-0.018,-0.045l-0.02,-0.044l-0.02,-0.045l-0.021,-0.044l-0.021,-0.044l-0.021,-0.044l-0.023,-0.043l-0.022,-0.044l-0.024,-0.043l-0.023,-0.042l-0.025,-0.043l-0.024,-0.042l-0.026,-0.042l-0.026,-0.041l-0.026,-0.041l-0.027,-0.041l-0.028,-0.041l-0.027,-0.04l-0.029,-0.04l-0.029,-0.04l-0.029,-0.039l-0.03,-0.039l-0.031,-0.039l-0.031,-0.038l-0.031,-0.038l-0.032,-0.038l-0.033,-0.037l-0.033,-0.037l-0.033,-0.036l-0.034,-0.036l-0.035,-0.036l-0.035,-0.035l-0.035,-0.035l-0.036,-0.035l-0.036,-0.034l-0.036,-0.033l-0.037,-0.033l-0.037,-0.033l-0.038,-0.032l-0.038,-0.031l-0.038,-0.031l-0.039,-0.031l-0.039,-0.03l-0.039,-0.029l-0.04,-0.029l-0.04,-0.029l-0.04,-0.027l-0.041,-0.028l-0.041,-0.027l-0.041,-0.026l-0.041,-0.026l-0.042,-0.025l-0.042,-0.025l-0.043,-0.025l-0.042,-0.023l-0.043,-0.024l-0.044,-0.022l-0.043,-0.023l-0.044,-0.021l-0.044,-0.021l-0.044,-0.021l-0.045,-0.02l-0.044,-0.02l-0.045,-0.018l-0.046,-0.019l-0.045,-0.018l-0.045,-0.017l-0.046,-0.017l-0.046,-0.016l-0.047,-0.016l-0.046,-0.015l-0.047,-0.014l-0.047,-0.014l-0.047,-0.013l-0.047,-0.013l-0.047,-0.012l-0.048,-0.012l-0.047,-0.011l-0.048,-0.011l-0.048,-0.009l-0.048,-0.01l-0.048,-0.008l-0.049,-0.009l-0.048,-0.007l-0.049,-0.007l-0.049,-0.006l-0.049,-0.006l-0.049,-0.005l-0.049,-0.005l-0.049,-0.004l-0.049,-0.003l-0.05,-0.003l-0.049,-0.002l-0.05,-0.002l-0.049,-0.001l-0.056,0l-15.988,0Z"/></g><g id="emoji"><path d="M30,8c0,-1.591 -0.632,-3.117 -1.757,-4.243c-1.126,-1.125 -2.652,-1.757 -4.243,-1.757c-4.724,0 -11.276,0 -16,0c-1.591,0 -3.117,0.632 -4.243,1.757c-1.125,1.126 -1.757,2.652 -1.757,4.243c0,4.724 0,11.276 0,16c0,1.591 0.632,3.117 1.757,4.243c1.126,1.125 2.652,1.757 4.243,1.757c4.724,0 11.276,0 16,0c1.591,0 3.117,-0.632 4.243,-1.757c1.125,-1.126 1.757,-2.652 1.757,-4.243c0,-4.724 0,-11.276 0,-16Z" style="fill:#ff4586;"/><path d="M8.865,26.5c-2.208,0 -3.313,-1.21 -3.313,-3.63l0,-2.086c0,-2.42 1.113,-3.63 3.34,-3.63c0.994,0 1.786,0.262 2.376,0.786c0.589,0.523 0.884,1.247 0.884,2.171l0,0.093l-1.729,0l0,-0.093c0,-0.413 -0.134,-0.757 -0.403,-1.029c-0.268,-0.273 -0.649,-0.41 -1.141,-0.41c-0.555,0 -0.957,0.172 -1.208,0.515c-0.251,0.343 -0.376,0.907 -0.376,1.69l0,1.967c0,0.748 0.134,1.287 0.402,1.617c0.269,0.33 0.684,0.495 1.248,0.495c0.528,0 0.913,-0.137 1.155,-0.41c0.242,-0.272 0.363,-0.686 0.363,-1.24l0,-0.436l-1.611,0l0,-1.426l3.3,0l0,1.558c0,2.332 -1.095,3.498 -3.287,3.498Z" style="fill:#fff;fill-rule:nonzero;"/><path d="M17.973,24.626l-3.128,0l-0.554,1.768l-1.822,0l3.234,-9.108l1.412,0l3.248,9.108l-1.835,0l-0.555,-1.768Zm-0.462,-1.439l-1.108,-3.498l-1.096,3.498l2.204,0Z" style="fill:#fff;fill-rule:nonzero;"/><path d="M23.795,22.646l0,3.748l-1.73,0l0,-3.735l-2.653,-5.373l1.888,0l1.623,3.696l1.624,-3.696l1.901,0l-2.653,5.36Z" style="fill:#fff;fill-rule:nonzero;"/><path d="M12.113,14.819c-0.977,0 -1.738,-0.244 -2.284,-0.732c-0.546,-0.489 -0.849,-1.195 -0.911,-2.119l1.637,0c0.062,0.502 0.222,0.856 0.482,1.063c0.259,0.206 0.644,0.31 1.155,0.31c0.977,0 1.465,-0.401 1.465,-1.201c0,-0.361 -0.097,-0.636 -0.29,-0.825c-0.194,-0.19 -0.502,-0.319 -0.924,-0.39l-0.858,-0.145c-1.646,-0.273 -2.469,-1.118 -2.469,-2.534c0,-0.845 0.28,-1.514 0.838,-2.007c0.559,-0.493 1.301,-0.739 2.225,-0.739c0.897,0 1.608,0.238 2.131,0.713c0.524,0.475 0.821,1.144 0.891,2.006l-1.663,0c-0.026,-0.44 -0.154,-0.761 -0.383,-0.963c-0.228,-0.203 -0.563,-0.304 -1.003,-0.304c-0.449,0 -0.787,0.103 -1.016,0.31c-0.229,0.207 -0.343,0.491 -0.343,0.852c0,0.316 0.101,0.567 0.303,0.752c0.203,0.185 0.519,0.317 0.951,0.396l0.963,0.172c1.567,0.281 2.35,1.135 2.35,2.56c0,0.916 -0.293,1.615 -0.878,2.099c-0.585,0.484 -1.375,0.726 -2.369,0.726Z" style="fill:#fff;fill-rule:nonzero;"/><path d="M19.742,14.846c-2.173,0 -3.26,-1.21 -3.26,-3.63l0,-2.086c0,-2.42 1.104,-3.63 3.313,-3.63c1.012,0 1.813,0.284 2.402,0.851c0.59,0.568 0.885,1.494 0.885,2.779l0,2.086c0,1.284 -0.302,2.211 -0.904,2.778c-0.603,0.568 -1.415,0.852 -2.436,0.852Zm0.053,-1.545c0.528,0 0.92,-0.169 1.175,-0.508c0.255,-0.339 0.383,-0.873 0.383,-1.604l0,-1.967c0,-0.774 -0.128,-1.335 -0.383,-1.683c-0.255,-0.347 -0.647,-0.521 -1.175,-0.521c-0.554,0 -0.955,0.169 -1.201,0.508c-0.247,0.339 -0.37,0.904 -0.37,1.696l0,1.967c0,0.748 0.123,1.287 0.37,1.617c0.246,0.33 0.647,0.495 1.201,0.495Z" style="fill:#fff;fill-rule:nonzero;"/></g></g></svg>