<?xml version="1.0" encoding="UTF-8" standalone="no"?><!DOCTYPE svg PUBLIC "-//W3C//DTD SVG 1.1//EN" "http://www.w3.org/Graphics/SVG/1.1/DTD/svg11.dtd"><svg width="100%" height="100%" viewBox="0 0 32 32" version="1.1" xmlns="http://www.w3.org/2000/svg" xmlns:xlink="http://www.w3.org/1999/xlink" xml:space="preserve" xmlns:serif="http://www.serif.com/" style="fill-rule:evenodd;clip-rule:evenodd;stroke-linecap:round;stroke-linejoin:round;stroke-miterlimit:1.5;"><rect id="bomb" x="0" y="0" width="32" height="32" style="fill:none;"/><g id="outline"><circle cx="12" cy="20" r="12"/><path d="M16,11l2,-2l5,5l-2,2l-5,-5Z" style="fill:none;stroke:#000;stroke-width:4px;"/><path d="M22.5,5.5l0,-3.5l2.5,2l2.5,-2l0,3.5l2.5,1.5l-2.5,1.5l0,3.5l-2.5,-2l-2.5,2l0,-3.5l-2.5,-1.5l2.5,-1.5Z" style="fill:none;stroke:#000;stroke-width:4px;"/><path d="M16,16l10,-10" style="fill:none;stroke:#000;stroke-width:6px;"/></g><g id="emoji"><path d="M16,16l10,-10" style="fill:none;stroke:#808080;stroke-width:2px;"/><path d="M16,11l2,-2l5,5l-2,2l-5,-5Z" style="fill:#333;"/><path d="M22.5,5.5l0,-3.5l2.5,2l2.5,-2l0,3.5l2.5,1.5l-2.5,1.5l0,3.5l-2.5,-2l-2.5,2l0,-3.5l-2.5,-1.5l2.5,-1.5Z" style="fill:#ffe2be;"/><path d="M27.5,5.5l2.5,1.5l-2.5,1.5l0,3.5l-2.5,-2l-2.5,2l0,-3.5l-2.5,-1.5l2.5,-1.5l0,-3.5l2.5,2l2.5,-2l0,3.5Zm-2.5,-0.219l-1.5,-1.2l0,1.985l-1.556,0.934l1.556,0.934l0,1.985l1.5,-1.2l1.5,1.2l0,-1.985l1.556,-0.934l-1.556,-0.934l0,-1.985l-1.5,1.2Z" style="fill:#ffa32b;"/><circle cx="11.923" cy="20.077" r="10.077" style="fill:#404040;"/><circle cx="10" cy="18" r="6" style="fill:#5b5b5b;"/></g></svg>