<?xml version="1.0" encoding="UTF-8" standalone="no"?><!DOCTYPE svg PUBLIC "-//W3C//DTD SVG 1.1//EN" "http://www.w3.org/Graphics/SVG/1.1/DTD/svg11.dtd"><svg width="100%" height="100%" viewBox="0 0 32 32" version="1.1" xmlns="http://www.w3.org/2000/svg" xmlns:xlink="http://www.w3.org/1999/xlink" xml:space="preserve" xmlns:serif="http://www.serif.com/" style="fill-rule:evenodd;clip-rule:evenodd;stroke-linecap:round;stroke-linejoin:round;stroke-miterlimit:1.5;"><rect id="scales" x="0" y="0" width="32" height="32" style="fill:none;"/><clipPath id="_clip1"><rect x="0" y="0" width="32" height="32"/></clipPath><g clip-path="url(#_clip1)"><g id="outline"><path d="M28,4c0,-0.53 -0.211,-1.039 -0.586,-1.414c-0.375,-0.375 -0.884,-0.586 -1.414,-0.586c-4.52,0 -15.48,0 -20,0c-0.53,0 -1.039,0.211 -1.414,0.586c-0.375,0.375 -0.586,0.884 -0.586,1.414c0,5.154 0,18.846 0,24c0,0.53 0.211,1.039 0.586,1.414c0.375,0.375 0.884,0.586 1.414,0.586c4.52,0 15.48,0 20,0c0.53,0 1.039,-0.211 1.414,-0.586c0.375,-0.375 0.586,-0.884 0.586,-1.414c0,-5.154 0,-18.846 0,-24Z" style="fill:none;stroke:#000;stroke-width:4px;"/></g><g id="emoji"><path d="M28,20l-24,0c0,0 0,5.082 0,8c0,0.53 0.211,1.039 0.586,1.414c0.375,0.375 0.884,0.586 1.414,0.586c4.52,0 15.48,0 20,0c0.53,0 1.039,-0.211 1.414,-0.586c0.375,-0.375 0.586,-0.884 0.586,-1.414c0,-2.918 0,-8 0,-8Z" style="fill:#4d4d4d;"/><path d="M28,4c0,-0.53 -0.211,-1.039 -0.586,-1.414c-0.375,-0.375 -0.884,-0.586 -1.414,-0.586c-4.52,0 -15.48,0 -20,0c-0.53,0 -1.039,0.211 -1.414,0.586c-0.375,0.375 -0.586,0.884 -0.586,1.414c0,3.832 0,12.168 0,16c0,0.53 0.211,1.039 0.586,1.414c0.375,0.375 0.884,0.586 1.414,0.586c4.52,0 15.48,0 20,0c0.53,0 1.039,-0.211 1.414,-0.586c0.375,-0.375 0.586,-0.884 0.586,-1.414c0,-3.832 0,-12.168 0,-16Z" style="fill:#999;"/><path d="M27,18l-22,0c0,0 0,0.449 0,1c0,0.53 0.211,1.039 0.586,1.414c0.375,0.375 0.884,0.586 1.414,0.586c4.184,0 13.816,0 18,0c0.53,0 1.039,-0.211 1.414,-0.586c0.375,-0.375 0.586,-0.884 0.586,-1.414c0,-0.551 0,-1 0,-1Z" style="fill:#808080;"/><path d="M27,5c0,-0.53 -0.211,-1.039 -0.586,-1.414c-0.375,-0.375 -0.884,-0.586 -1.414,-0.586c-4.184,0 -13.816,0 -18,0c-0.53,0 -1.039,0.211 -1.414,0.586c-0.375,0.375 -0.586,0.884 -0.586,1.414c0,3.271 0,9.729 0,13c0,0.53 0.211,1.039 0.586,1.414c0.375,0.375 0.884,0.586 1.414,0.586c4.184,0 13.816,0 18,0c0.53,0 1.039,-0.211 1.414,-0.586c0.375,-0.375 0.586,-0.884 0.586,-1.414c0,-3.271 0,-9.729 0,-13Z" style="fill:#f3f3f3;"/><path d="M19,24c0,-0.552 -0.448,-1 -1,-1c-2.577,0 -9.423,0 -12,0c-0.552,0 -1,0.448 -1,1c0,1.11 0,2.89 0,4c0,0.552 0.448,1 1,1c2.577,0 9.423,0 12,0c0.552,0 1,-0.448 1,-1c0,-1.11 0,-2.89 0,-4Z" style="fill:#1a1a1a;"/><path d="M10,26.5c0,-0.133 -0.053,-0.26 -0.146,-0.354c-0.094,-0.093 -0.221,-0.146 -0.354,-0.146c-0.769,0 -2.231,0 -3,0c-0.133,0 -0.26,0.053 -0.354,0.146c-0.093,0.094 -0.146,0.221 -0.146,0.354c0,0.305 0,0.695 0,1c0,0.133 0.053,0.26 0.146,0.354c0.094,0.093 0.221,0.146 0.354,0.146c0.769,0 2.231,0 3,0c0.133,0 0.26,-0.053 0.354,-0.146c0.093,-0.094 0.146,-0.221 0.146,-0.354c0,-0.305 0,-0.695 0,-1Z" style="fill:#1aa0e4;"/><path d="M15,26.5c0,-0.133 -0.053,-0.26 -0.146,-0.354c-0.094,-0.093 -0.221,-0.146 -0.354,-0.146c-0.769,0 -2.231,0 -3,0c-0.133,0 -0.26,0.053 -0.354,0.146c-0.093,0.094 -0.146,0.221 -0.146,0.354c0,0.305 0,0.695 0,1c0,0.133 0.053,0.26 0.146,0.354c0.094,0.093 0.221,0.146 0.354,0.146c0.769,0 2.231,0 3,0c0.133,0 0.26,-0.053 0.354,-0.146c0.093,-0.094 0.146,-0.221 0.146,-0.354c0,-0.305 0,-0.695 0,-1Z" style="fill:#1aa0e4;"/><path d="M23,24c0,-0.552 -0.448,-1 -1,-1c-0.322,0 -0.678,0 -1,0c-0.552,0 -1,0.448 -1,1c0,1.11 0,2.89 0,4c0,0.552 0.448,1 1,1c0.322,0 0.678,0 1,0c0.552,0 1,-0.448 1,-1c0,-1.11 0,-2.89 0,-4Z" style="fill:#b3b3b3;"/><path d="M27,24c0,-0.552 -0.448,-1 -1,-1c-0.322,0 -0.678,0 -1,0c-0.552,0 -1,0.448 -1,1c0,1.11 0,2.89 0,4c0,0.552 0.448,1 1,1c0.322,0 0.678,0 1,0c0.552,0 1,-0.448 1,-1c0,-1.11 0,-2.89 0,-4Z" style="fill:#b3b3b3;"/></g></g></svg>