<?xml version="1.0" encoding="UTF-8" standalone="no"?><!DOCTYPE svg PUBLIC "-//W3C//DTD SVG 1.1//EN" "http://www.w3.org/Graphics/SVG/1.1/DTD/svg11.dtd"><svg width="100%" height="100%" viewBox="0 0 32 32" version="1.1" xmlns="http://www.w3.org/2000/svg" xmlns:xlink="http://www.w3.org/1999/xlink" xml:space="preserve" xmlns:serif="http://www.serif.com/" style="fill-rule:evenodd;clip-rule:evenodd;stroke-linejoin:round;stroke-miterlimit:1.41421;"><rect id="lipstick_lesbian_flag" x="0" y="0" width="32" height="32" style="fill:none;"/><clipPath id="_clip1"><rect x="0" y="0" width="32" height="32"/></clipPath><g clip-path="url(#_clip1)"><g id="outline"><path d="M32,6c0,-0.53 -0.211,-1.039 -0.586,-1.414c-0.375,-0.375 -0.884,-0.586 -1.414,-0.586c-5.746,0 -22.254,0 -28,0c-0.53,0 -1.039,0.211 -1.414,0.586c-0.375,0.375 -0.586,0.884 -0.586,1.414c0,4.52 0,15.48 0,20c0,0.53 0.211,1.039 0.586,1.414c0.375,0.375 0.884,0.586 1.414,0.586c5.746,0 22.254,0 28,0c0.53,0 1.039,-0.211 1.414,-0.586c0.375,-0.375 0.586,-0.884 0.586,-1.414c0,-4.52 0,-15.48 0,-20Z"/></g><g id="emoji"><rect x="2" y="6" width="28" height="20" style="fill:none;"/><clipPath id="_clip2"><rect x="2" y="6" width="28" height="20"/></clipPath><g clip-path="url(#_clip2)"><rect x="1" y="22" width="30" height="5" style="fill:#84222f;"/><rect x="1" y="19" width="30" height="4.143" style="fill:#cf4260;"/><rect x="1" y="16.5" width="30" height="3.786" style="fill:#da84b2;"/><rect x="1" y="14" width="30" height="3.429" style="fill:#fff;"/><rect x="1" y="11" width="30" height="3.571" style="fill:#b64883;"/><rect x="1" y="8" width="30" height="3.714" style="fill:#a43d96;"/><rect x="1" y="5" width="30" height="3.857" style="fill:#811454;"/></g><path d="M3.017,13.742c-0.125,-0.071 -0.243,-0.155 -0.35,-0.251c-0.158,-0.141 -0.293,-0.308 -0.399,-0.492c-0.093,-0.16 -0.163,-0.334 -0.208,-0.514c-0.143,-0.571 -0.023,-1.188 0.324,-1.663c0.14,-0.193 0.316,-0.36 0.515,-0.492c0.067,-0.044 0.136,-0.082 0.207,-0.119l0.319,-0.16l0.377,-0.941l0.048,-0.112c0.057,-0.117 0.069,-0.147 0.134,-0.259c0.096,-0.166 0.208,-0.322 0.334,-0.466c0.367,-0.42 0.852,-0.734 1.386,-0.896c0.205,-0.063 0.415,-0.101 0.628,-0.12c0.032,-0.041 0.066,-0.08 0.1,-0.119c0.178,-0.193 0.37,-0.367 0.589,-0.512c0.438,-0.291 0.951,-0.462 1.476,-0.494c0.219,-0.014 0.435,0.001 0.652,0.032l1.538,0.256l0.419,-0.209c0.072,-0.034 0.071,-0.034 0.145,-0.065c0.099,-0.038 0.199,-0.072 0.303,-0.096c0.104,-0.023 0.208,-0.037 0.314,-0.046c0.08,-0.003 0.159,-0.004 0.239,-0.001c0.079,0.006 0.158,0.013 0.237,0.027c0.235,0.041 0.462,0.124 0.668,0.245c0.16,0.094 0.307,0.21 0.435,0.344c0.35,0.367 0.55,0.862 0.553,1.368c0.001,0.091 -0.005,0.182 -0.017,0.271c0.01,0.006 0.019,0.011 0.029,0.017c0.46,0.27 0.799,0.722 0.928,1.24c0.045,0.18 0.065,0.366 0.059,0.552c-0.006,0.185 -0.038,0.37 -0.095,0.547c-0.074,0.227 -0.188,0.44 -0.336,0.628c-0.183,0.231 -0.413,0.41 -0.674,0.547l-0.319,0.16l-0.377,0.941l-0.048,0.112c-0.057,0.117 -0.069,0.147 -0.134,0.259c-0.096,0.166 -0.208,0.322 -0.334,0.466c-0.367,0.42 -0.852,0.734 -1.386,0.896c-0.205,0.063 -0.415,0.101 -0.628,0.12c-0.032,0.041 -0.066,0.08 -0.1,0.119c-0.178,0.193 -0.37,0.367 -0.589,0.512c-0.438,0.291 -0.951,0.462 -1.476,0.494c-0.219,0.014 -0.435,-0.001 -0.652,-0.032l-1.538,-0.256l-0.419,0.209c-0.072,0.034 -0.071,0.034 -0.145,0.065c-0.074,0.029 -0.148,0.055 -0.226,0.076c-0.23,0.063 -0.471,0.084 -0.709,0.061c-0.185,-0.017 -0.367,-0.06 -0.54,-0.127c-0.173,-0.068 -0.336,-0.159 -0.484,-0.272c-0.425,-0.322 -0.707,-0.812 -0.774,-1.341c-0.022,-0.169 -0.021,-0.341 0.001,-0.509Z" style="fill:#fff;"/><path d="M6.328,12.547l0.079,0.008c0.636,0.094 1.269,0.211 1.903,0.316l0.011,0.002c0.082,-0.228 0.154,-0.46 0.23,-0.689c0.039,-0.107 0.088,-0.206 0.158,-0.296c0.173,-0.223 0.438,-0.365 0.72,-0.385c0.114,-0.009 0.223,0.005 0.334,0.032c0.217,0.066 0.431,0.142 0.647,0.214l0.012,0.004c0.181,-0.423 0.342,-0.855 0.513,-1.282c0.034,-0.081 0.07,-0.16 0.114,-0.236c0.119,-0.21 0.277,-0.398 0.463,-0.551c0.094,-0.078 0.195,-0.144 0.3,-0.206c0.244,-0.129 0.493,-0.249 0.741,-0.372c0.189,-0.088 0.392,-0.126 0.6,-0.094c0.337,0.052 0.63,0.279 0.765,0.592c0.037,0.085 0.062,0.177 0.074,0.269c0.014,0.112 0.009,0.225 -0.014,0.335c-0.027,0.128 -0.08,0.251 -0.154,0.358c-0.086,0.126 -0.198,0.223 -0.327,0.302c-0.23,0.123 -0.466,0.235 -0.699,0.351l-0.011,0.006c-0.18,0.423 -0.342,0.855 -0.513,1.282c-0.075,0.175 -0.166,0.34 -0.285,0.489c-0.29,0.366 -0.707,0.622 -1.164,0.716c-0.218,0.045 -0.437,0.048 -0.657,0.025l-0.04,-0.006c-0.025,0.054 -0.026,0.053 -0.054,0.106l-0.045,0.078c-0.079,0.124 -0.166,0.242 -0.269,0.348c-0.304,0.314 -0.708,0.523 -1.14,0.588c-0.179,0.027 -0.357,0.026 -0.537,0.008c-0.644,-0.092 -1.282,-0.224 -1.927,-0.319c-0.25,0.085 -0.472,0.236 -0.709,0.354c-0.051,0.024 -0.05,0.024 -0.103,0.045c-0.143,0.048 -0.29,0.071 -0.441,0.056c-0.131,-0.012 -0.258,-0.051 -0.374,-0.113c-0.37,-0.198 -0.581,-0.62 -0.517,-1.035c0.017,-0.111 0.053,-0.219 0.106,-0.318c0.09,-0.168 0.224,-0.298 0.385,-0.397c0.253,-0.135 0.512,-0.257 0.768,-0.385c0.187,-0.089 0.382,-0.154 0.588,-0.185c0.104,-0.016 0.208,-0.021 0.312,-0.022c0.08,0.002 0.079,0.002 0.157,0.007Zm5.713,-5.546c0.189,0.013 0.368,0.067 0.525,0.175c0.093,0.064 0.175,0.143 0.241,0.233c0.248,0.339 0.255,0.811 0.017,1.157c-0.086,0.126 -0.198,0.223 -0.327,0.302c-0.253,0.135 -0.512,0.257 -0.768,0.385c-0.258,0.123 -0.534,0.197 -0.822,0.206c-0.105,0.004 -0.209,-0.003 -0.314,-0.014c-0.636,-0.094 -1.269,-0.211 -1.903,-0.316l-0.011,-0.002c-0.082,0.228 -0.154,0.46 -0.23,0.689c-0.039,0.107 -0.088,0.206 -0.158,0.296c-0.173,0.223 -0.438,0.365 -0.72,0.385c-0.114,0.009 -0.223,-0.005 -0.334,-0.032c-0.217,-0.066 -0.431,-0.142 -0.647,-0.214l-0.012,-0.004c-0.181,0.423 -0.342,0.855 -0.513,1.282c-0.034,0.081 -0.07,0.16 -0.114,0.236c-0.119,0.21 -0.277,0.398 -0.463,0.551c-0.094,0.078 -0.195,0.144 -0.3,0.206c-0.244,0.129 -0.493,0.249 -0.741,0.372c-0.137,0.064 -0.28,0.104 -0.432,0.106c-0.131,0.002 -0.262,-0.022 -0.384,-0.071c-0.104,-0.041 -0.201,-0.1 -0.286,-0.174c-0.071,-0.061 -0.133,-0.132 -0.184,-0.21c-0.185,-0.286 -0.212,-0.656 -0.068,-0.965c0.088,-0.191 0.232,-0.339 0.41,-0.448c0.23,-0.123 0.466,-0.235 0.699,-0.351l0.011,-0.006c0.18,-0.423 0.342,-0.855 0.513,-1.282c0.075,-0.175 0.166,-0.34 0.285,-0.489c0.29,-0.366 0.707,-0.622 1.164,-0.716c0.218,-0.045 0.437,-0.048 0.657,-0.025l0.04,0.006c0.025,-0.054 0.026,-0.053 0.054,-0.106l0.045,-0.078c0.079,-0.124 0.166,-0.242 0.269,-0.348c0.304,-0.314 0.708,-0.523 1.14,-0.588c0.179,-0.027 0.357,-0.026 0.537,-0.008c0.644,0.092 1.282,0.224 1.927,0.319c0.25,-0.085 0.472,-0.236 0.709,-0.354c0.051,-0.024 0.051,-0.024 0.103,-0.045c0.072,-0.024 0.142,-0.041 0.217,-0.053c0.057,-0.006 0.111,-0.008 0.168,-0.007Z" style="fill:#fa007d;"/></g></g></svg>