<?xml version="1.0" encoding="UTF-8" standalone="no"?><!DOCTYPE svg PUBLIC "-//W3C//DTD SVG 1.1//EN" "http://www.w3.org/Graphics/SVG/1.1/DTD/svg11.dtd"><svg width="100%" height="100%" viewBox="0 0 32 32" version="1.1" xmlns="http://www.w3.org/2000/svg" xmlns:xlink="http://www.w3.org/1999/xlink" xml:space="preserve" xmlns:serif="http://www.serif.com/" style="fill-rule:evenodd;clip-rule:evenodd;stroke-linejoin:round;stroke-miterlimit:1.41421;"><rect id="solaric_flag" x="0" y="0" width="32" height="32" style="fill:none;"/><clipPath id="_clip1"><rect x="0" y="0" width="32" height="32"/></clipPath><g clip-path="url(#_clip1)"><g id="outline"><path d="M32,6c0,-0.53 -0.211,-1.039 -0.586,-1.414c-0.375,-0.375 -0.884,-0.586 -1.414,-0.586c-5.746,0 -22.254,0 -28,0c-0.53,0 -1.039,0.211 -1.414,0.586c-0.375,0.375 -0.586,0.884 -0.586,1.414c0,4.52 0,15.48 0,20c0,0.53 0.211,1.039 0.586,1.414c0.375,0.375 0.884,0.586 1.414,0.586c5.746,0 22.254,0 28,0c0.53,0 1.039,-0.211 1.414,-0.586c0.375,-0.375 0.586,-0.884 0.586,-1.414c0,-4.52 0,-15.48 0,-20Z"/></g><g id="emoji"><rect x="2" y="6" width="28" height="20" style="fill:none;"/><clipPath id="_clip2"><rect x="2" y="6" width="28" height="20"/></clipPath><g clip-path="url(#_clip2)"><rect x="1" y="5" width="30" height="5.333" style="fill:#df6311;"/><rect x="1" y="9.333" width="30" height="4.667" style="fill:#ed8c2b;"/><rect x="1" y="12.667" width="30" height="4.833" style="fill:#f3b344;"/><rect x="1" y="16" width="30" height="5" style="fill:#ecca73;"/><rect x="1" y="19.333" width="30" height="4.667" style="fill:#f2f3bc;"/><rect x="1" y="22.667" width="30" height="4.833" style="fill:#fbf37a;"/></g></g></g></svg>