<?xml version="1.0" encoding="UTF-8" standalone="no"?>
<!DOCTYPE svg PUBLIC "-//W3C//DTD SVG 1.1//EN" "http://www.w3.org/Graphics/SVG/1.1/DTD/svg11.dtd">
<svg width="100%" height="100%" viewBox="0 0 32 32" version="1.1" xmlns="http://www.w3.org/2000/svg" xmlns:xlink="http://www.w3.org/1999/xlink" xml:space="preserve" xmlns:serif="http://www.serif.com/" style="fill-rule:evenodd;clip-rule:evenodd;stroke-linecap:round;stroke-miterlimit:1.5;">
    <rect id="light_rail" x="0" y="0" width="32" height="32" style="fill:none;"/>
    <clipPath id="_clip1">
        <rect x="0" y="0" width="32" height="32"/>
    </clipPath>
    <g clip-path="url(#_clip1)">
        <g id="outline">
            <rect x="2" y="28" width="28" height="2" style="fill:none;stroke:#000;stroke-width:4px;"/>
            <path d="M30.149,6.006l0.149,0.016l0.147,0.028l0.145,0.039l0.141,0.049l0.137,0.06l0.132,0.07l0.127,0.08l0.12,0.088l0.113,0.098l0.106,0.106l0.098,0.113l0.088,0.12l0.08,0.127l0.07,0.132l0.06,0.137l0.049,0.141l0.039,0.145l0.028,0.147l0.016,0.149l0.006,0.149l0,18l-0.006,0.149l-0.016,0.149l-0.028,0.147l-0.039,0.145l-0.049,0.141l-0.06,0.137l-0.07,0.132l-0.08,0.127l-0.088,0.12l-0.098,0.113l-0.106,0.106l-0.113,0.098l-0.12,0.088l-0.127,0.08l-0.132,0.07l-0.137,0.06l-0.141,0.049l-0.145,0.039l-0.147,0.028l-0.149,0.016l-0.149,0.006l-26.021,0l-0.09,-0.001l-0.102,-0.004l-0.101,-0.006l-0.101,-0.009l-0.1,-0.012l-0.1,-0.014l-0.099,-0.016l-0.098,-0.019l-0.098,-0.021l-0.096,-0.024l-0.096,-0.026l-0.095,-0.028l-0.094,-0.03l-0.092,-0.033l-0.092,-0.035l-0.09,-0.037l-0.09,-0.039l-0.088,-0.041l-0.087,-0.043l-0.086,-0.045l-0.084,-0.048l-0.083,-0.049l-0.082,-0.051l-0.081,-0.053l-0.078,-0.054l-0.078,-0.057l-0.076,-0.058l-0.075,-0.06l-0.073,-0.062l-0.072,-0.064l-0.069,-0.065l-0.069,-0.066l-0.067,-0.069l-0.065,-0.07l-0.064,-0.071l-0.061,-0.073l-0.06,-0.075l-0.059,-0.076l-0.057,-0.078l-0.054,-0.079l-0.053,-0.08l-0.051,-0.082l-0.049,-0.083l-0.048,-0.084l-0.045,-0.086l-0.043,-0.087l-0.041,-0.088l-0.04,-0.089l-0.037,-0.091l-0.035,-0.091l-0.032,-0.093l-0.031,-0.094l-0.028,-0.095l-0.026,-0.095l-0.024,-0.097l-0.021,-0.098l-0.019,-0.098l-0.016,-0.099l-0.014,-0.099l-0.012,-0.101l-0.009,-0.1l-0.006,-0.102l-0.004,-0.102l-0.002,-0.089l0,-0.753l0,-0.775l0.003,-0.772l0.003,-0.376l0.003,-0.362l0.003,-0.214l0.004,-0.213l0.005,-0.212l0.006,-0.21l0.007,-0.208l0.008,-0.207l0.009,-0.205l0.011,-0.204l0.011,-0.203l0.012,-0.2l0.014,-0.2l0.014,-0.197l0.016,-0.196l0.016,-0.195l0.018,-0.193l0.018,-0.191l0.019,-0.19l0.021,-0.189l0.021,-0.187l0.023,-0.185l0.023,-0.184l0.024,-0.182l0.026,-0.181l0.026,-0.179l0.027,-0.178l0.028,-0.176l0.029,-0.175l0.03,-0.173l0.031,-0.172l0.032,-0.17l0.033,-0.169l0.034,-0.167l0.034,-0.166l0.036,-0.164l0.036,-0.163l0.038,-0.162l0.038,-0.159l0.039,-0.159l0.04,-0.157l0.041,-0.155l0.042,-0.154l0.042,-0.152l0.044,-0.151l0.044,-0.149l0.045,-0.149l0.047,-0.146l0.047,-0.145l0.048,-0.144l0.048,-0.142l0.05,-0.141l0.05,-0.139l0.052,-0.138l0.052,-0.136l0.053,-0.135l0.054,-0.134l0.055,-0.132l0.055,-0.13l0.057,-0.129l0.057,-0.128l0.058,-0.127l0.059,-0.124l0.06,-0.124l0.061,-0.122l0.062,-0.121l0.062,-0.119l0.064,-0.117l0.064,-0.117l0.065,-0.115l0.066,-0.113l0.067,-0.112l0.068,-0.11l0.068,-0.11l0.07,-0.107l0.071,-0.106l0.071,-0.105l0.072,-0.104l0.074,-0.101l0.074,-0.101l0.075,-0.099l0.076,-0.097l0.077,-0.096l0.078,-0.094l0.079,-0.093l0.08,-0.092l0.081,-0.09l0.081,-0.088l0.083,-0.087l0.084,-0.085l0.085,-0.084l0.086,-0.082l0.087,-0.08l0.088,-0.079l0.088,-0.077l0.09,-0.075l0.091,-0.074l0.092,-0.072l0.093,-0.071l0.094,-0.068l0.095,-0.067l0.096,-0.065l0.097,-0.063l0.098,-0.061l0.1,-0.059l0.1,-0.057l0.1,-0.055l0.103,-0.054l0.103,-0.051l0.103,-0.049l0.105,-0.047l0.106,-0.045l0.106,-0.042l0.107,-0.041l0.109,-0.038l0.108,-0.036l0.11,-0.033l0.11,-0.031l0.111,-0.029l0.111,-0.026l0.112,-0.024l0.113,-0.022l0.113,-0.019l0.113,-0.016l0.113,-0.014l0.114,-0.012l0.114,-0.009l0.114,-0.006l0.115,-0.004l0.103,-0.001l22.011,0l0.149,0.006Zm-22.149,1.994l-0.07,0.001l-0.069,0.002l-0.07,0.004l-0.07,0.005l-0.069,0.007l-0.07,0.009l-0.069,0.01l-0.07,0.012l-0.069,0.013l-0.069,0.015l-0.07,0.016l-0.069,0.018l-0.068,0.02l-0.069,0.021l-0.069,0.022l-0.068,0.024l-0.069,0.026l-0.068,0.028l-0.068,0.028l-0.068,0.031l-0.068,0.032l-0.067,0.033l-0.068,0.036l-0.067,0.036l-0.067,0.039l-0.067,0.04l-0.066,0.041l-0.066,0.043l-0.066,0.045l-0.066,0.046l-0.066,0.048l-0.065,0.049l-0.065,0.051l-0.065,0.052l-0.064,0.054l-0.064,0.056l-0.064,0.057l-0.064,0.059l-0.063,0.06l-0.063,0.062l-0.062,0.064l-0.062,0.065l-0.062,0.067l-0.062,0.068l-0.061,0.07l-0.061,0.072l-0.06,0.073l-0.06,0.074l-0.06,0.077l-0.059,0.078l-0.058,0.079l-0.059,0.081l-0.058,0.083l-0.057,0.084l-0.057,0.086l-0.057,0.087l-0.056,0.089l-0.055,0.091l-0.055,0.092l-0.055,0.094l-0.054,0.095l-0.054,0.097l-0.053,0.099l-0.052,0.1l-0.053,0.102l-0.051,0.104l-0.051,0.105l-0.05,0.106l-0.05,0.109l-0.05,0.109l-0.048,0.112l-0.049,0.113l-0.047,0.115l-0.047,0.116l-0.046,0.118l-0.046,0.119l-0.045,0.122l-0.045,0.122l-0.044,0.125l-0.043,0.126l-0.042,0.127l-0.042,0.13l-0.041,0.13l-0.041,0.133l-0.04,0.134l-0.039,0.136l-0.038,0.137l-0.038,0.139l-0.037,0.14l-0.036,0.143l-0.036,0.143l-0.035,0.146l-0.034,0.147l-0.033,0.148l-0.032,0.151l-0.032,0.152l-0.031,0.153l-0.03,0.155l-0.03,0.157l-0.028,0.159l-0.028,0.16l-0.027,0.161l-0.026,0.164l-0.025,0.165l-0.024,0.166l-0.024,0.169l-0.023,0.169l-0.021,0.172l-0.021,0.173l-0.02,0.175l-0.02,0.176l-0.018,0.178l-0.017,0.18l-0.017,0.181l-0.015,0.183l-0.015,0.185l-0.013,0.186l-0.013,0.188l-0.011,0.19l-0.011,0.191l-0.01,0.193l-0.009,0.194l-0.007,0.197l-0.007,0.197l-0.006,0.2l-0.005,0.201l-0.003,0.203l-0.003,0.204l-0.003,0.356l-0.003,0.371l-0.003,0.766l0,0.77l0,0.739l0.001,0.051l0.002,0.051l0.003,0.051l0.005,0.051l0.006,0.05l0.007,0.05l0.008,0.049l0.009,0.049l0.011,0.049l0.012,0.048l0.013,0.048l0.014,0.047l0.015,0.047l0.016,0.046l0.018,0.045l0.018,0.046l0.02,0.044l0.02,0.044l0.022,0.043l0.022,0.043l0.024,0.042l0.024,0.042l0.026,0.041l0.026,0.04l0.028,0.04l0.028,0.038l0.03,0.038l0.03,0.038l0.031,0.036l0.032,0.036l0.032,0.035l0.034,0.035l0.034,0.033l0.035,0.033l0.036,0.032l0.037,0.031l0.037,0.03l0.038,0.029l0.039,0.028l0.04,0.028l0.04,0.026l0.041,0.026l0.041,0.024l0.043,0.024l0.042,0.022l0.044,0.022l0.044,0.021l0.044,0.019l0.045,0.018l0.046,0.018l0.046,0.016l0.047,0.015l0.047,0.014l0.048,0.013l0.048,0.012l0.049,0.01l0.049,0.01l0.049,0.008l0.05,0.007l0.05,0.006l0.051,0.004l0.051,0.003l0.051,0.002l0.051,0.001l26.009,0l0,-18l-22,0Z"/>
            <path d="M19,9l-6,-3l6,-3l1,0" style="fill:none;stroke:#000;stroke-width:6px;stroke-linecap:butt;stroke-linejoin:round;"/>
            <path d="M20,4l1,1l1,0l0,-3l-3,0l0,2l1,0Z" style="fill:none;stroke:#000;stroke-width:4px;stroke-linejoin:round;"/>
        </g>
        <g id="emoji">
            <path d="M19,9l-6,-3l6,-3l1,0" style="fill:none;stroke:#737373;stroke-width:2px;stroke-linecap:square;stroke-linejoin:round;"/>
            <path d="M20,4l1,1l1,0l0,-3l-3,0l0,2l1,0Z" style="fill:#8c8c8c;"/>
            <g>
                <path d="M1.991,23l1.009,-1l26,0l1,1l0,3l-26.009,0c-1.104,0 -1.999,-0.894 -2,-1.998c0,-0.319 -0.001,-0.658 0,-1.002Zm0.009,-2c0.056,-5.3 1.152,-8.947 2.669,-11l2.331,-1l22,0l1,1l0,11l-1,1l-25,0l-1,0l-1,-1Z" style="fill:#e6e6e6;"/>
                <path d="M2,21l28,0l0,2l-28.009,0c0,-0.681 0.003,-1.384 0.009,-2Z" style="fill:#67db40;"/>
                <path d="M30,10l-25.331,0c0.989,-1.339 2.156,-2 3.331,-2l22,0l0,2Z" style="fill:#fff;"/>
            </g>
            <g>
                <path d="M29,13c0,-0.552 -0.448,-1 -1,-1c-3.014,0 -11.986,0 -15,0c-0.552,0 -1,0.448 -1,1c0,1.732 0,5.268 0,7c0,0.552 0.448,1 1,1c3.014,0 11.986,0 15,0c0.552,0 1,-0.448 1,-1c0,-1.732 0,-5.268 0,-7Z"/>
                <path d="M10,12.993c0,-0.551 -0.446,-0.998 -0.997,-1c-0.456,-0.001 -1.026,0 -1.618,0.007c-1.619,0.02 -3.405,3.893 -3.385,6.958c0.002,0.304 0.002,0.689 0.002,1.043c0.001,0.552 0.448,0.999 1,0.999c1.11,0 2.889,0 3.998,0c0.265,0 0.52,-0.105 0.707,-0.293c0.188,-0.187 0.293,-0.442 0.293,-0.707c0,-1.734 0,-5.278 0,-7.007Z"/>
            </g>
            <rect x="2" y="28" width="28" height="2" style="fill:#666;"/>
            <path d="M27.052,11.001l0.051,0.002l0.051,0.003l0.05,0.004l0.051,0.006l0.05,0.007l0.049,0.008l0.049,0.01l0.049,0.01l0.048,0.012l0.048,0.013l0.047,0.014l0.046,0.015l0.047,0.016l0.045,0.018l0.045,0.018l0.045,0.02l0.044,0.02l0.043,0.022l0.043,0.022l0.043,0.024l0.041,0.025l0.041,0.025l0.04,0.027l0.04,0.027l0.039,0.028l0.038,0.03l0.037,0.03l0.037,0.031l0.036,0.032l0.035,0.032l0.034,0.034l0.034,0.034l0.032,0.035l0.032,0.036l0.031,0.037l0.03,0.037l0.03,0.038l0.028,0.039l0.027,0.04l0.027,0.04l0.025,0.041l0.025,0.041l0.024,0.043l0.022,0.042l0.022,0.044l0.02,0.044l0.02,0.045l0.018,0.045l0.018,0.045l0.016,0.047l0.015,0.046l0.014,0.047l0.013,0.048l0.012,0.048l0.01,0.049l0.01,0.049l0.008,0.049l0.007,0.05l0.006,0.051l0.004,0.05l0.003,0.051l0.002,0.051l0.001,0.052l0,10l-0.001,0.052l-0.002,0.051l-0.003,0.051l-0.004,0.05l-0.006,0.051l-0.007,0.05l-0.008,0.049l-0.01,0.049l-0.01,0.049l-0.012,0.048l-0.013,0.048l-0.014,0.047l-0.015,0.046l-0.016,0.047l-0.018,0.045l-0.018,0.045l-0.02,0.045l-0.02,0.044l-0.022,0.044l-0.022,0.042l-0.024,0.043l-0.025,0.041l-0.025,0.041l-0.027,0.04l-0.027,0.04l-0.028,0.039l-0.03,0.038l-0.03,0.037l-0.031,0.037l-0.032,0.036l-0.032,0.035l-0.034,0.034l-0.034,0.034l-0.035,0.032l-0.036,0.032l-0.037,0.031l-0.037,0.03l-0.038,0.03l-0.039,0.028l-0.04,0.027l-0.04,0.027l-0.041,0.025l-0.041,0.025l-0.043,0.024l-0.043,0.022l-0.043,0.022l-0.044,0.02l-0.045,0.02l-0.045,0.018l-0.045,0.018l-0.047,0.016l-0.046,0.015l-0.047,0.014l-0.048,0.013l-0.048,0.012l-0.049,0.01l-0.049,0.01l-0.049,0.008l-0.05,0.007l-0.051,0.006l-0.05,0.004l-0.051,0.003l-0.051,0.002l-0.052,0.001l-5,0l-0.052,-0.001l-0.051,-0.002l-0.051,-0.003l-0.05,-0.004l-0.051,-0.006l-0.05,-0.007l-0.049,-0.008l-0.049,-0.01l-0.049,-0.01l-0.048,-0.012l-0.048,-0.013l-0.047,-0.014l-0.046,-0.015l-0.047,-0.016l-0.045,-0.018l-0.045,-0.018l-0.045,-0.02l-0.044,-0.02l-0.043,-0.022l-0.043,-0.022l-0.043,-0.024l-0.041,-0.025l-0.041,-0.025l-0.04,-0.027l-0.04,-0.027l-0.039,-0.028l-0.038,-0.03l-0.037,-0.03l-0.037,-0.031l-0.036,-0.032l-0.035,-0.032l-0.034,-0.034l-0.034,-0.034l-0.032,-0.035l-0.032,-0.036l-0.031,-0.037l-0.03,-0.037l-0.03,-0.038l-0.028,-0.039l-0.027,-0.04l-0.027,-0.04l-0.025,-0.041l-0.025,-0.041l-0.024,-0.043l-0.022,-0.042l-0.022,-0.044l-0.02,-0.044l-0.02,-0.045l-0.018,-0.045l-0.018,-0.045l-0.016,-0.047l-0.015,-0.046l-0.014,-0.047l-0.013,-0.048l-0.012,-0.048l-0.01,-0.049l-0.01,-0.049l-0.008,-0.049l-0.007,-0.05l-0.006,-0.051l-0.004,-0.05l-0.003,-0.051l-0.002,-0.051l-0.001,-0.052l0,-10l0.001,-0.052l0.002,-0.051l0.003,-0.051l0.004,-0.05l0.006,-0.051l0.007,-0.05l0.008,-0.049l0.01,-0.049l0.01,-0.049l0.012,-0.048l0.013,-0.048l0.014,-0.047l0.015,-0.046l0.016,-0.047l0.018,-0.045l0.018,-0.045l0.02,-0.045l0.02,-0.044l0.022,-0.044l0.022,-0.042l0.024,-0.043l0.025,-0.041l0.025,-0.041l0.027,-0.04l0.027,-0.04l0.028,-0.039l0.03,-0.038l0.03,-0.037l0.031,-0.037l0.032,-0.036l0.032,-0.035l0.034,-0.034l0.034,-0.034l0.035,-0.032l0.036,-0.032l0.037,-0.031l0.037,-0.03l0.038,-0.03l0.039,-0.028l0.04,-0.027l0.04,-0.027l0.041,-0.025l0.041,-0.025l0.043,-0.024l0.043,-0.022l0.043,-0.022l0.044,-0.02l0.045,-0.02l0.045,-0.018l0.045,-0.018l0.047,-0.016l0.046,-0.015l0.047,-0.014l0.048,-0.013l0.048,-0.012l0.049,-0.01l0.049,-0.01l0.049,-0.008l0.05,-0.007l0.051,-0.006l0.05,-0.004l0.051,-0.003l0.051,-0.002l0.052,-0.001l5,0l0.052,0.001Zm-5.046,0.999l-0.032,0l-0.026,0.001l-0.026,0.002l-0.025,0.002l-0.026,0.003l-0.025,0.004l-0.024,0.004l-0.025,0.004l-0.024,0.006l-0.024,0.006l-0.023,0.006l-0.024,0.007l-0.023,0.007l-0.023,0.008l-0.023,0.009l-0.022,0.009l-0.022,0.01l-0.022,0.01l-0.022,0.011l-0.021,0.011l-0.021,0.012l-0.021,0.012l-0.02,0.013l-0.02,0.013l-0.02,0.014l-0.02,0.014l-0.019,0.015l-0.019,0.015l-0.018,0.016l-0.018,0.016l-0.018,0.016l-0.017,0.017l-0.017,0.017l-0.016,0.018l-0.016,0.018l-0.016,0.018l-0.015,0.019l-0.015,0.019l-0.014,0.02l-0.014,0.02l-0.013,0.02l-0.013,0.02l-0.012,0.021l-0.012,0.021l-0.011,0.021l-0.011,0.022l-0.01,0.022l-0.01,0.022l-0.009,0.022l-0.009,0.023l-0.008,0.023l-0.007,0.023l-0.007,0.024l-0.006,0.023l-0.006,0.024l-0.006,0.025l-0.004,0.024l-0.004,0.024l-0.004,0.025l-0.003,0.026l-0.002,0.025l-0.002,0.026l-0.001,0.026l0,0.032l0,9.988l0,0.032l0.001,0.026l0.002,0.026l0.002,0.025l0.003,0.026l0.004,0.025l0.004,0.024l0.004,0.024l0.006,0.025l0.006,0.024l0.006,0.023l0.007,0.024l0.007,0.023l0.008,0.023l0.009,0.023l0.009,0.022l0.01,0.022l0.01,0.022l0.011,0.022l0.011,0.021l0.012,0.021l0.012,0.021l0.013,0.02l0.013,0.02l0.014,0.02l0.014,0.02l0.015,0.019l0.015,0.019l0.016,0.018l0.016,0.018l0.016,0.018l0.017,0.017l0.017,0.017l0.018,0.016l0.018,0.016l0.018,0.016l0.019,0.015l0.019,0.015l0.02,0.014l0.02,0.014l0.02,0.013l0.02,0.013l0.021,0.012l0.021,0.012l0.021,0.011l0.022,0.011l0.022,0.01l0.022,0.01l0.022,0.009l0.023,0.008l0.023,0.009l0.023,0.007l0.024,0.007l0.023,0.007l0.024,0.005l0.024,0.006l0.025,0.004l0.024,0.004l0.025,0.004l0.026,0.003l0.025,0.002l0.026,0.002l0.026,0.001l0.032,0l4.988,0l0.032,0l0.026,-0.001l0.026,-0.002l0.025,-0.002l0.026,-0.003l0.025,-0.004l0.024,-0.004l0.025,-0.004l0.024,-0.006l0.024,-0.005l0.023,-0.007l0.024,-0.007l0.023,-0.007l0.023,-0.009l0.023,-0.008l0.022,-0.009l0.022,-0.01l0.022,-0.01l0.022,-0.011l0.021,-0.011l0.021,-0.012l0.021,-0.012l0.02,-0.013l0.02,-0.013l0.02,-0.014l0.02,-0.014l0.019,-0.015l0.019,-0.015l0.018,-0.016l0.018,-0.016l0.018,-0.016l0.017,-0.017l0.017,-0.017l0.016,-0.018l0.016,-0.018l0.016,-0.018l0.015,-0.019l0.015,-0.019l0.014,-0.02l0.014,-0.02l0.013,-0.02l0.013,-0.02l0.012,-0.021l0.012,-0.021l0.011,-0.021l0.011,-0.022l0.01,-0.022l0.01,-0.022l0.009,-0.022l0.009,-0.023l0.008,-0.023l0.007,-0.023l0.007,-0.024l0.007,-0.023l0.005,-0.024l0.006,-0.024l0.004,-0.025l0.004,-0.024l0.004,-0.025l0.003,-0.026l0.002,-0.025l0.002,-0.026l0.001,-0.026l0,-0.032l0,-9.988l0,-0.032l-0.001,-0.026l-0.002,-0.026l-0.002,-0.025l-0.003,-0.026l-0.004,-0.025l-0.004,-0.024l-0.004,-0.025l-0.006,-0.024l-0.005,-0.024l-0.007,-0.023l-0.007,-0.024l-0.007,-0.023l-0.008,-0.023l-0.009,-0.023l-0.009,-0.022l-0.01,-0.022l-0.01,-0.022l-0.011,-0.022l-0.011,-0.021l-0.012,-0.021l-0.012,-0.021l-0.013,-0.02l-0.013,-0.02l-0.014,-0.02l-0.014,-0.02l-0.015,-0.019l-0.015,-0.019l-0.016,-0.018l-0.016,-0.018l-0.016,-0.018l-0.017,-0.017l-0.017,-0.017l-0.018,-0.016l-0.018,-0.016l-0.018,-0.016l-0.019,-0.015l-0.019,-0.015l-0.02,-0.014l-0.02,-0.014l-0.02,-0.013l-0.02,-0.013l-0.021,-0.012l-0.021,-0.012l-0.021,-0.011l-0.022,-0.011l-0.022,-0.01l-0.022,-0.01l-0.022,-0.009l-0.023,-0.009l-0.023,-0.008l-0.023,-0.007l-0.024,-0.007l-0.023,-0.006l-0.024,-0.006l-0.024,-0.006l-0.025,-0.004l-0.024,-0.004l-0.025,-0.004l-0.026,-0.003l-0.025,-0.002l-0.026,-0.002l-0.026,-0.001l-0.032,0l-4.988,0Z" style="fill:#a6a6a6;"/>
        </g>
    </g>
</svg>
