<?xml version="1.0" encoding="UTF-8" standalone="no"?>
<!DOCTYPE svg PUBLIC "-//W3C//DTD SVG 1.1//EN" "http://www.w3.org/Graphics/SVG/1.1/DTD/svg11.dtd">
<svg width="100%" height="100%" viewBox="0 0 32 32" version="1.1" xmlns="http://www.w3.org/2000/svg" xmlns:xlink="http://www.w3.org/1999/xlink" xml:space="preserve" xmlns:serif="http://www.serif.com/" style="fill-rule:evenodd;clip-rule:evenodd;stroke-linecap:round;stroke-linejoin:round;stroke-miterlimit:1.5;">
    <rect id="metro" x="0" y="0" width="32" height="32" style="fill:none;"/>
    <clipPath id="_clip1">
        <rect x="0" y="0" width="32" height="32"/>
    </clipPath>
    <g clip-path="url(#_clip1)">
        <g id="outline">
            <path d="M7.362,28c-3.266,-2.553 -5.362,-6.533 -5.362,-11c0,-7.727 6.273,-14 14,-14c7.719,0 13.987,6.26 14,14c-0.008,4.473 -2.104,8.451 -5.362,11l-17.276,0Z" style="fill:none;stroke:#000;stroke-width:4px;"/>
        </g>
        <g id="emoji">
            <g>
                <path d="M29.963,16c0.024,0.33 0.036,0.664 0.037,1c-0.008,4.473 -2.104,8.451 -5.362,11l-1.638,-1l-14,0l-1.638,1c-3.266,-2.553 -5.362,-6.533 -5.362,-11c0,-0.336 0.012,-0.67 0.035,-1l0.965,-1l26,0l0.963,1Z" style="fill:#404040;"/>
                <path d="M2.035,16c0.514,-7.261 6.574,-13 13.965,-13c7.383,0 13.439,5.728 13.963,13l-27.928,0Z" style="fill:#333;"/>
                <path d="M24.638,28l-17.276,0l6.638,-7l4,0l6.638,7Z" style="fill:#696969;"/>
            </g>
            <path d="M12,24l-2,0l0,2.5c0,0.133 0.053,0.26 0.146,0.354c0.094,0.093 0.221,0.146 0.354,0.146c0.305,0 0.695,0 1,0c0.133,0 0.26,-0.053 0.354,-0.146c0.093,-0.094 0.146,-0.221 0.146,-0.354c0,-0.853 0,-2.5 0,-2.5Z" style="fill:#262626;"/>
            <path d="M22,24l-2,0l0,2.5c0,0.133 0.053,0.26 0.146,0.354c0.094,0.093 0.221,0.146 0.354,0.146c0.305,0 0.695,0 1,0c0.133,0 0.26,-0.053 0.354,-0.146c0.093,-0.094 0.146,-0.221 0.146,-0.354c0,-0.853 0,-2.5 0,-2.5Z" style="fill:#262626;"/>
            <path d="M25,22l-18,0l0,4l2,0l1,-1l12,0l1,1l2,0l0,-4Z" style="fill:#1a1a1a;"/>
            <g>
                <path d="M16,4c7.2,0 10.243,5.204 11,10c0.136,0.863 0.284,2.087 0.385,2.953c0.08,0.679 0.019,1.367 -0.177,2.021c-0.222,0.74 -0.531,1.769 -0.78,2.601c-0.254,0.846 -1.033,1.425 -1.916,1.425l-8.512,0c0,0 -8.512,0 -8.512,0c-0.883,0 -1.662,-0.579 -1.916,-1.425c-0.249,-0.832 -0.558,-1.861 -0.78,-2.601c-0.196,-0.654 -0.257,-1.342 -0.177,-2.021c0.101,-0.866 0.249,-2.09 0.385,-2.953c0.757,-4.796 3.8,-10 11,-10Z" style="fill:#f11717;"/>
                <path d="M16.168,4.001l0.166,0.003l0.165,0.005l0.164,0.006l0.162,0.008l0.16,0.011l0.159,0.012l0.158,0.014l0.156,0.015l0.154,0.018l0.153,0.019l0.152,0.021l0.15,0.022l0.149,0.024l0.147,0.026l0.146,0.028l0.144,0.029l0.143,0.031l0.142,0.033l0.14,0.034l0.138,0.035l0.138,0.038l0.135,0.039l0.135,0.04l0.133,0.042l0.132,0.043l0.13,0.045l0.129,0.046l0.127,0.048l0.126,0.049l0.125,0.051l0.124,0.052l0.122,0.054l0.121,0.054l0.119,0.057l0.118,0.057l0.117,0.059l0.115,0.06l0.114,0.062l0.113,0.062l0.112,0.064l0.11,0.066l0.109,0.066l0.107,0.068l0.107,0.069l0.105,0.07l0.103,0.071l0.103,0.073l0.101,0.073l0.1,0.075l0.099,0.075l0.097,0.077l0.096,0.078l0.095,0.079l0.094,0.08l0.093,0.081l0.091,0.082l0.09,0.083l0.089,0.084l0.087,0.085l0.087,0.086l0.085,0.087l0.084,0.088l0.083,0.088l0.082,0.09l0.08,0.09l0.08,0.092l0.078,0.092l0.077,0.093l0.076,0.093l0.075,0.095l0.073,0.095l0.073,0.096l0.071,0.097l0.07,0.097l0.069,0.098l0.068,0.099l0.067,0.099l0.066,0.101l0.064,0.1l0.064,0.102l0.062,0.102l0.062,0.102l0.06,0.103l0.059,0.104l0.058,0.104l0.058,0.105l0.056,0.105l0.055,0.106l0.053,0.107l0.053,0.106l0.052,0.107l0.051,0.108l0.05,0.108l0.049,0.108l0.047,0.109l0.047,0.109l0.046,0.11l0.045,0.11l0.044,0.11l0.042,0.11l0.042,0.111l0.041,0.111l0.04,0.111l0.039,0.112l0.038,0.111l0.037,0.112l0.036,0.112l0.035,0.113l0.034,0.112l0.033,0.113l0.032,0.112l0.032,0.113l0.03,0.113l0.03,0.113l0.028,0.113l0.028,0.113l0.027,0.113l0.026,0.113l0.025,0.113l0.024,0.113l0.023,0.113l0.023,0.113l0.021,0.113l0.021,0.113l0.02,0.113l0.019,0.113l0.018,0.112l0.026,0.166l0.026,0.173l0.051,0.365l0.052,0.381l0.051,0.39l0.049,0.39l0.047,0.382l0.043,0.366l0.04,0.34l0.007,0.063l0.006,0.064l0.006,0.064l0.004,0.064l0.004,0.063l0.003,0.064l0.002,0.064l0.002,0.064l0,0.064l0,0.064l-0.001,0.063l-0.002,0.064l-0.003,0.064l-0.003,0.063l-0.005,0.064l-0.005,0.064l-0.006,0.063l-0.007,0.063l-0.007,0.064l-0.009,0.063l-0.009,0.063l-0.01,0.063l-0.011,0.063l-0.011,0.063l-0.013,0.062l-0.013,0.063l-0.014,0.062l-0.015,0.062l-0.016,0.062l-0.016,0.062l-0.017,0.062l-0.018,0.061l-0.78,2.601l-0.013,0.039l-0.013,0.039l-0.014,0.039l-0.014,0.038l-0.015,0.038l-0.016,0.037l-0.017,0.037l-0.017,0.037l-0.018,0.036l-0.019,0.036l-0.02,0.035l-0.02,0.034l-0.021,0.035l-0.021,0.033l-0.022,0.034l-0.023,0.032l-0.023,0.033l-0.024,0.031l-0.024,0.031l-0.025,0.031l-0.026,0.03l-0.026,0.03l-0.027,0.029l-0.027,0.028l-0.028,0.028l-0.028,0.028l-0.029,0.027l-0.03,0.026l-0.03,0.025l-0.03,0.025l-0.031,0.025l-0.031,0.024l-0.032,0.023l-0.032,0.022l-0.033,0.022l-0.033,0.022l-0.034,0.02l-0.034,0.02l-0.034,0.019l-0.035,0.019l-0.035,0.018l-0.035,0.017l-0.036,0.017l-0.037,0.016l-0.036,0.015l-0.037,0.014l-0.037,0.014l-0.038,0.013l-0.038,0.013l-0.038,0.011l-0.038,0.011l-0.039,0.01l-0.039,0.009l-0.039,0.009l-0.04,0.007l-0.04,0.007l-0.04,0.007l-0.04,0.005l-0.04,0.005l-0.041,0.003l-0.041,0.003l-0.041,0.002l-0.041,0.002l-0.041,0l-8.512,0c0,0 -8.512,0 -8.512,0l-0.041,0l-0.041,-0.002l-0.041,-0.002l-0.041,-0.003l-0.041,-0.003l-0.04,-0.005l-0.04,-0.005l-0.04,-0.007l-0.04,-0.007l-0.04,-0.007l-0.039,-0.009l-0.039,-0.009l-0.039,-0.01l-0.038,-0.011l-0.038,-0.011l-0.038,-0.013l-0.038,-0.013l-0.037,-0.014l-0.037,-0.014l-0.036,-0.015l-0.037,-0.016l-0.036,-0.017l-0.035,-0.017l-0.035,-0.018l-0.035,-0.019l-0.034,-0.019l-0.034,-0.02l-0.034,-0.02l-0.033,-0.022l-0.033,-0.022l-0.032,-0.022l-0.032,-0.023l-0.031,-0.024l-0.031,-0.025l-0.03,-0.025l-0.03,-0.025l-0.03,-0.026l-0.029,-0.027l-0.028,-0.028l-0.028,-0.028l-0.027,-0.028l-0.027,-0.029l-0.026,-0.03l-0.026,-0.03l-0.025,-0.031l-0.024,-0.031l-0.024,-0.031l-0.023,-0.033l-0.023,-0.032l-0.022,-0.034l-0.021,-0.033l-0.021,-0.035l-0.02,-0.034l-0.02,-0.035l-0.019,-0.036l-0.018,-0.036l-0.017,-0.037l-0.017,-0.037l-0.016,-0.037l-0.015,-0.038l-0.014,-0.038l-0.014,-0.039l-0.013,-0.039l-0.013,-0.039l-0.78,-2.601l-0.018,-0.061l-0.017,-0.062l-0.016,-0.062l-0.016,-0.062l-0.015,-0.062l-0.014,-0.062l-0.013,-0.063l-0.013,-0.062l-0.011,-0.063l-0.011,-0.063l-0.01,-0.063l-0.009,-0.063l-0.009,-0.063l-0.007,-0.064l-0.007,-0.063l-0.006,-0.063l-0.005,-0.064l-0.005,-0.064l-0.003,-0.063l-0.003,-0.064l-0.002,-0.064l-0.001,-0.063l0,-0.064l0,-0.064l0.002,-0.064l0.002,-0.064l0.003,-0.064l0.004,-0.063l0.004,-0.064l0.006,-0.064l0.006,-0.064l0.007,-0.063l0.04,-0.34l0.043,-0.366l0.047,-0.382l0.049,-0.39l0.051,-0.39l0.052,-0.381l0.051,-0.365l0.026,-0.173l0.026,-0.166l0.018,-0.112l0.019,-0.113l0.02,-0.113l0.021,-0.113l0.021,-0.113l0.023,-0.113l0.023,-0.113l0.024,-0.113l0.025,-0.113l0.026,-0.113l0.027,-0.113l0.028,-0.113l0.028,-0.113l0.03,-0.113l0.03,-0.113l0.032,-0.113l0.032,-0.112l0.033,-0.113l0.034,-0.112l0.035,-0.113l0.036,-0.112l0.037,-0.112l0.038,-0.111l0.039,-0.112l0.04,-0.111l0.041,-0.111l0.042,-0.111l0.042,-0.11l0.044,-0.11l0.045,-0.11l0.046,-0.11l0.047,-0.109l0.047,-0.109l0.049,-0.108l0.05,-0.108l0.051,-0.108l0.052,-0.107l0.053,-0.106l0.053,-0.107l0.055,-0.106l0.056,-0.105l0.058,-0.105l0.058,-0.104l0.059,-0.104l0.06,-0.103l0.062,-0.102l0.062,-0.102l0.064,-0.102l0.064,-0.1l0.066,-0.101l0.067,-0.099l0.068,-0.099l0.069,-0.098l0.07,-0.097l0.071,-0.097l0.073,-0.096l0.073,-0.095l0.075,-0.095l0.076,-0.093l0.077,-0.093l0.078,-0.092l0.08,-0.092l0.08,-0.09l0.082,-0.089l0.083,-0.089l0.084,-0.088l0.085,-0.087l0.086,-0.086l0.088,-0.085l0.089,-0.084l0.09,-0.083l0.091,-0.082l0.093,-0.081l0.094,-0.08l0.095,-0.079l0.096,-0.078l0.097,-0.076l0.099,-0.076l0.1,-0.075l0.101,-0.073l0.103,-0.073l0.103,-0.071l0.105,-0.07l0.107,-0.069l0.107,-0.068l0.109,-0.066l0.11,-0.066l0.112,-0.064l0.113,-0.062l0.114,-0.062l0.115,-0.06l0.117,-0.059l0.118,-0.057l0.119,-0.057l0.121,-0.054l0.122,-0.054l0.124,-0.052l0.125,-0.051l0.126,-0.049l0.127,-0.048l0.129,-0.046l0.13,-0.045l0.132,-0.043l0.133,-0.042l0.135,-0.04l0.135,-0.039l0.138,-0.038l0.138,-0.035l0.14,-0.034l0.142,-0.033l0.143,-0.031l0.144,-0.029l0.146,-0.028l0.147,-0.026l0.149,-0.024l0.15,-0.022l0.152,-0.021l0.153,-0.019l0.154,-0.018l0.156,-0.015l0.158,-0.014l0.159,-0.012l0.16,-0.011l0.162,-0.008l0.164,-0.006l0.165,-0.005l0.166,-0.003l0.168,-0.001c0,0 0.168,0.001 0.168,0.001Zm-0.319,1.5l-0.149,0.002l-0.148,0.005l-0.146,0.006l-0.144,0.007l-0.143,0.009l-0.141,0.011l-0.139,0.012l-0.138,0.014l-0.136,0.015l-0.135,0.017l-0.133,0.018l-0.132,0.02l-0.13,0.021l-0.128,0.023l-0.127,0.024l-0.126,0.025l-0.124,0.027l-0.122,0.028l-0.121,0.03l-0.12,0.031l-0.118,0.032l-0.117,0.033l-0.115,0.035l-0.114,0.036l-0.113,0.037l-0.111,0.038l-0.11,0.04l-0.109,0.04l-0.107,0.042l-0.106,0.043l-0.104,0.044l-0.104,0.046l-0.102,0.046l-0.101,0.048l-0.1,0.048l-0.098,0.05l-0.098,0.051l-0.096,0.051l-0.095,0.053l-0.094,0.054l-0.093,0.055l-0.091,0.056l-0.091,0.057l-0.089,0.058l-0.089,0.059l-0.087,0.06l-0.086,0.061l-0.085,0.062l-0.085,0.063l-0.083,0.063l-0.082,0.065l-0.081,0.066l-0.08,0.066l-0.079,0.068l-0.078,0.068l-0.077,0.07l-0.076,0.07l-0.076,0.071l-0.074,0.072l-0.073,0.073l-0.072,0.073l-0.072,0.075l-0.07,0.075l-0.07,0.077l-0.068,0.077l-0.068,0.077l-0.067,0.079l-0.066,0.08l-0.065,0.08l-0.064,0.081l-0.063,0.081l-0.062,0.083l-0.062,0.083l-0.06,0.084l-0.06,0.085l-0.059,0.085l-0.057,0.086l-0.057,0.087l-0.057,0.088l-0.055,0.088l-0.054,0.088l-0.054,0.09l-0.052,0.09l-0.052,0.09l-0.051,0.092l-0.05,0.091l-0.049,0.093l-0.048,0.093l-0.048,0.093l-0.046,0.094l-0.046,0.095l-0.045,0.094l-0.044,0.096l-0.043,0.096l-0.042,0.096l-0.042,0.097l-0.04,0.097l-0.04,0.098l-0.039,0.098l-0.038,0.098l-0.038,0.099l-0.036,0.099l-0.036,0.099l-0.034,0.1l-0.034,0.1l-0.033,0.1l-0.033,0.101l-0.031,0.1l-0.031,0.101l-0.03,0.101l-0.029,0.102l-0.028,0.101l-0.027,0.102l-0.027,0.102l-0.026,0.102l-0.025,0.102l-0.024,0.102l-0.024,0.102l-0.022,0.102l-0.022,0.102l-0.021,0.103l-0.02,0.102l-0.02,0.102l-0.019,0.103l-0.018,0.102l-0.017,0.102l-0.016,0.102l-0.025,0.157l-0.024,0.165l-0.051,0.354l-0.05,0.373l-0.05,0.382l-0.048,0.385l-0.046,0.377l-0.044,0.362l-0.039,0.334l-0.005,0.049l-0.005,0.045l-0.003,0.044l-0.004,0.045l-0.002,0.045l-0.002,0.044l-0.002,0.045l-0.001,0.045l0,0.045l0,0.044l0.001,0.045l0.001,0.044l0.002,0.045l0.003,0.044l0.003,0.045l0.003,0.045l0.004,0.044l0.005,0.044l0.005,0.044l0.006,0.045l0.007,0.044l0.007,0.044l0.007,0.044l0.009,0.044l0.008,0.044l0.01,0.044l0.009,0.043l0.011,0.043l0.011,0.044l0.011,0.043l0.012,0.044l0.014,0.048l0.777,2.588l0.005,0.017l0.004,0.011l0.003,0.01l0.004,0.009l0.004,0.009l0.004,0.01l0.008,0.018l0.005,0.009l0.004,0.009l0.01,0.017l0.011,0.017l0.011,0.016l0.011,0.016l0.012,0.015l0.014,0.016l0.013,0.014l0.014,0.014l0.015,0.013l0.015,0.013l0.016,0.012l0.016,0.012l0.016,0.01l0.017,0.011l0.018,0.009l0.018,0.009l0.017,0.008l0.019,0.008l0.018,0.006l0.019,0.006l0.019,0.005l0.02,0.005l0.009,0.002l0.01,0.001l0.01,0.002l0.01,0.001l0.01,0.001l0.01,0.001l0.011,0.001l0.01,0l0.01,0.001l0.019,0l17.008,0l0.019,0l0.01,-0.001l0.01,0l0.011,-0.001l0.01,-0.001l0.01,-0.001l0.01,-0.001l0.01,-0.002l0.01,-0.001l0.01,-0.002l0.009,-0.003l0.01,-0.002l0.009,-0.002l0.01,-0.003l0.009,-0.003l0.01,-0.003l0.009,-0.003l0.01,-0.004l0.009,-0.003l0.008,-0.004l0.01,-0.004l0.009,-0.004l0.008,-0.004l0.009,-0.005l0.009,-0.004l0.009,-0.005l0.008,-0.005l0.008,-0.005l0.009,-0.006l0.008,-0.005l0.008,-0.006l0.009,-0.006l0.007,-0.006l0.008,-0.006l0.008,-0.007l0.007,-0.006l0.007,-0.006l0.008,-0.007l0.007,-0.007l0.007,-0.007l0.007,-0.007l0.006,-0.007l0.007,-0.008l0.006,-0.007l0.007,-0.008l0.006,-0.008l0.006,-0.008l0.005,-0.008l0.006,-0.008l0.006,-0.008l0.005,-0.008l0.005,-0.008l0.005,-0.009l0.005,-0.009l0.005,-0.009l0.004,-0.009l0.004,-0.009l0.004,-0.009l0.004,-0.009l0.004,-0.009l0.004,-0.011l0.003,-0.009l0.004,-0.01l0.005,-0.018l0.777,-2.589l0.014,-0.047l0.012,-0.044l0.011,-0.043l0.011,-0.043l0.011,-0.044l0.009,-0.043l0.01,-0.044l0.009,-0.044l0.008,-0.044l0.007,-0.044l0.007,-0.044l0.007,-0.044l0.005,-0.044l0.006,-0.045l0.005,-0.044l0.004,-0.044l0.003,-0.045l0.003,-0.045l0.003,-0.044l0.002,-0.044l0.001,-0.045l0.001,-0.045l0,-0.045l0,-0.044l-0.001,-0.045l-0.002,-0.044l-0.002,-0.045l-0.002,-0.045l-0.004,-0.045l-0.003,-0.044l-0.005,-0.045l-0.005,-0.049l-0.039,-0.334l-0.044,-0.362l-0.046,-0.377l-0.048,-0.385l-0.05,-0.383l-0.05,-0.372l-0.051,-0.354l-0.024,-0.165l-0.025,-0.157l-0.016,-0.102l-0.017,-0.102l-0.018,-0.102l-0.019,-0.102l-0.02,-0.103l-0.02,-0.102l-0.021,-0.102l-0.022,-0.103l-0.022,-0.102l-0.024,-0.102l-0.024,-0.102l-0.025,-0.102l-0.026,-0.102l-0.027,-0.102l-0.027,-0.102l-0.028,-0.101l-0.029,-0.101l-0.03,-0.102l-0.031,-0.101l-0.031,-0.1l-0.033,-0.101l-0.033,-0.1l-0.034,-0.1l-0.034,-0.1l-0.036,-0.099l-0.036,-0.099l-0.038,-0.099l-0.038,-0.098l-0.039,-0.098l-0.04,-0.098l-0.04,-0.097l-0.042,-0.097l-0.042,-0.096l-0.043,-0.096l-0.044,-0.095l-0.045,-0.095l-0.046,-0.095l-0.046,-0.094l-0.048,-0.093l-0.048,-0.093l-0.049,-0.092l-0.05,-0.092l-0.051,-0.092l-0.052,-0.09l-0.052,-0.09l-0.054,-0.09l-0.054,-0.088l-0.055,-0.088l-0.057,-0.088l-0.056,-0.087l-0.058,-0.086l-0.059,-0.085l-0.06,-0.085l-0.06,-0.084l-0.062,-0.083l-0.062,-0.082l-0.063,-0.082l-0.064,-0.081l-0.065,-0.081l-0.066,-0.079l-0.067,-0.079l-0.068,-0.077l-0.068,-0.077l-0.07,-0.077l-0.07,-0.075l-0.072,-0.075l-0.072,-0.073l-0.073,-0.073l-0.075,-0.072l-0.075,-0.071l-0.076,-0.07l-0.077,-0.07l-0.078,-0.068l-0.079,-0.068l-0.08,-0.066l-0.081,-0.066l-0.082,-0.065l-0.083,-0.063l-0.085,-0.063l-0.085,-0.062l-0.086,-0.061l-0.087,-0.06l-0.089,-0.059l-0.089,-0.058l-0.091,-0.057l-0.091,-0.056l-0.093,-0.055l-0.094,-0.054l-0.095,-0.053l-0.096,-0.051l-0.098,-0.051l-0.098,-0.05l-0.1,-0.049l-0.101,-0.047l-0.102,-0.046l-0.103,-0.046l-0.105,-0.044l-0.106,-0.043l-0.108,-0.042l-0.108,-0.041l-0.11,-0.039l-0.111,-0.038l-0.113,-0.037l-0.114,-0.036l-0.115,-0.035l-0.117,-0.033l-0.118,-0.032l-0.12,-0.031l-0.121,-0.03l-0.122,-0.028l-0.124,-0.027l-0.126,-0.025l-0.127,-0.024l-0.128,-0.023l-0.13,-0.021l-0.132,-0.02l-0.133,-0.018l-0.135,-0.017l-0.136,-0.015l-0.138,-0.014l-0.139,-0.012l-0.141,-0.011l-0.143,-0.009l-0.144,-0.007l-0.146,-0.006l-0.148,-0.005l-0.149,-0.002l-0.151,-0.001l-0.151,0.001Z" style="fill:#f11717;"/>
                <path d="M16,5c7.2,0 9.816,4.204 10.572,9c0.137,0.863 0.285,2.087 0.386,2.953c0.079,0.679 0.019,1.367 -0.178,2.021c-0.222,0.74 -0.53,0.769 -0.78,1.601c-0.254,0.846 -1.032,1.425 -1.916,1.425l-8.084,0c0,0 -8,0 -8,0c-0.883,0 -1.662,-0.579 -1.916,-1.425c-0.249,-0.832 -0.558,-0.861 -0.78,-1.601c-0.196,-0.654 -0.257,-1.342 -0.177,-2.021c0.101,-0.866 0.249,-2.09 0.385,-2.953c0.757,-4.796 3.288,-9 10.488,-9Z" style="fill:none;"/>
                <clipPath id="_clip2">
                    <path d="M16,5c7.2,0 9.816,4.204 10.572,9c0.137,0.863 0.285,2.087 0.386,2.953c0.079,0.679 0.019,1.367 -0.178,2.021c-0.222,0.74 -0.53,0.769 -0.78,1.601c-0.254,0.846 -1.032,1.425 -1.916,1.425l-8.084,0c0,0 -8,0 -8,0c-0.883,0 -1.662,-0.579 -1.916,-1.425c-0.249,-0.832 -0.558,-0.861 -0.78,-1.601c-0.196,-0.654 -0.257,-1.342 -0.177,-2.021c0.101,-0.866 0.249,-2.09 0.385,-2.953c0.757,-4.796 3.288,-9 10.488,-9Z"/>
                </clipPath>
                <g clip-path="url(#_clip2)">
                    <path d="M19,21l1.586,0c0.265,0 0.519,-0.105 0.707,-0.293c1.204,-1.204 5.707,-5.707 5.707,-5.707l0,-3l-5,3l-3,6Z" style="fill:#f5f5f5;"/>
                    <path d="M13,21l-1.586,0c-0.265,0 -0.519,-0.105 -0.707,-0.293c-1.204,-1.204 -5.707,-5.707 -5.707,-5.707l0,-3l5,3l3,6Z" style="fill:#f5f5f5;"/>
                    <path d="M13,21l-8,-9l0,-8l22,0l0,8l-8,9"/>
                    <clipPath id="_clip3">
                        <path d="M13,21l-8,-9l0,-8l22,0l0,8l-8,9"/>
                    </clipPath>
                    <g clip-path="url(#_clip3)">
                        <rect x="13" y="5" width="6" height="16" style="fill:#262626;"/>
                        <rect x="13" y="5" width="6" height="4" style="fill:#4f4f4f;"/>
                    </g>
                </g>
                <path d="M16.168,4.001l0.166,0.003l0.165,0.005l0.164,0.006l0.162,0.008l0.16,0.011l0.159,0.012l0.158,0.014l0.156,0.015l0.154,0.018l0.153,0.019l0.152,0.021l0.15,0.022l0.149,0.024l0.147,0.026l0.146,0.028l0.144,0.029l0.143,0.031l0.142,0.033l0.14,0.034l0.138,0.035l0.138,0.038l0.135,0.039l0.135,0.04l0.133,0.042l0.132,0.043l0.13,0.045l0.129,0.046l0.127,0.048l0.126,0.049l0.125,0.051l0.124,0.052l0.122,0.054l0.121,0.054l0.119,0.057l0.118,0.057l0.117,0.059l0.115,0.06l0.114,0.062l0.113,0.062l0.112,0.064l0.11,0.066l0.109,0.066l0.107,0.068l0.107,0.069l0.105,0.07l0.103,0.071l0.103,0.073l0.101,0.073l0.1,0.075l0.099,0.075l0.097,0.077l0.096,0.078l0.095,0.079l0.094,0.08l0.093,0.081l0.091,0.082l0.09,0.083l0.089,0.084l0.087,0.085l0.087,0.086l0.085,0.087l0.084,0.088l0.083,0.088l0.082,0.09l0.08,0.09l0.08,0.092l0.078,0.092l0.077,0.093l0.076,0.093l0.075,0.095l0.073,0.095l0.073,0.096l0.071,0.097l0.07,0.097l0.069,0.098l0.068,0.099l0.067,0.099l0.066,0.101l0.064,0.1l0.064,0.102l0.062,0.102l0.062,0.102l0.06,0.103l0.059,0.104l0.058,0.104l0.058,0.105l0.056,0.105l0.055,0.106l0.053,0.107l0.053,0.106l0.052,0.107l0.051,0.108l0.05,0.108l0.049,0.108l0.047,0.109l0.047,0.109l0.046,0.11l0.045,0.11l0.044,0.11l0.042,0.11l0.042,0.111l0.041,0.111l0.04,0.111l0.039,0.112l0.038,0.111l0.037,0.112l0.036,0.112l0.035,0.113l0.034,0.112l0.033,0.113l0.032,0.112l0.032,0.113l0.03,0.113l0.03,0.113l0.028,0.113l0.028,0.113l0.027,0.113l0.026,0.113l0.025,0.113l0.024,0.113l0.023,0.113l0.023,0.113l0.021,0.113l0.021,0.113l0.02,0.113l0.019,0.113l0.018,0.112l0.026,0.166l0.026,0.173l0.051,0.365l0.052,0.381l0.051,0.39l0.049,0.39l0.047,0.382l0.043,0.366l0.04,0.34l0.007,0.063l0.006,0.064l0.006,0.064l0.004,0.064l0.004,0.063l0.003,0.064l0.002,0.064l0.002,0.064l0,0.064l0,0.064l-0.001,0.063l-0.002,0.064l-0.003,0.064l-0.003,0.063l-0.005,0.064l-0.005,0.064l-0.006,0.063l-0.007,0.063l-0.007,0.064l-0.009,0.063l-0.009,0.063l-0.01,0.063l-0.011,0.063l-0.011,0.063l-0.013,0.062l-0.013,0.063l-0.014,0.062l-0.015,0.062l-0.016,0.062l-0.016,0.062l-0.017,0.062l-0.018,0.061l-0.78,2.601l-0.013,0.039l-0.013,0.039l-0.014,0.039l-0.014,0.038l-0.015,0.038l-0.016,0.037l-0.017,0.037l-0.017,0.037l-0.018,0.036l-0.019,0.036l-0.02,0.035l-0.02,0.034l-0.021,0.035l-0.021,0.033l-0.022,0.034l-0.023,0.032l-0.023,0.033l-0.024,0.031l-0.024,0.031l-0.025,0.031l-0.026,0.03l-0.026,0.03l-0.027,0.029l-0.027,0.028l-0.028,0.028l-0.028,0.028l-0.029,0.027l-0.03,0.026l-0.03,0.025l-0.03,0.025l-0.031,0.025l-0.031,0.024l-0.032,0.023l-0.032,0.022l-0.033,0.022l-0.033,0.022l-0.034,0.02l-0.034,0.02l-0.034,0.019l-0.035,0.019l-0.035,0.018l-0.035,0.017l-0.036,0.017l-0.037,0.016l-0.036,0.015l-0.037,0.014l-0.037,0.014l-0.038,0.013l-0.038,0.013l-0.038,0.011l-0.038,0.011l-0.039,0.01l-0.039,0.009l-0.039,0.009l-0.04,0.007l-0.04,0.007l-0.04,0.007l-0.04,0.005l-0.04,0.005l-0.041,0.003l-0.041,0.003l-0.041,0.002l-0.041,0.002l-0.041,0l-8.512,0c0,0 -8.512,0 -8.512,0l-0.041,0l-0.041,-0.002l-0.041,-0.002l-0.041,-0.003l-0.041,-0.003l-0.04,-0.005l-0.04,-0.005l-0.04,-0.007l-0.04,-0.007l-0.04,-0.007l-0.039,-0.009l-0.039,-0.009l-0.039,-0.01l-0.038,-0.011l-0.038,-0.011l-0.038,-0.013l-0.038,-0.013l-0.037,-0.014l-0.037,-0.014l-0.036,-0.015l-0.037,-0.016l-0.036,-0.017l-0.035,-0.017l-0.035,-0.018l-0.035,-0.019l-0.034,-0.019l-0.034,-0.02l-0.034,-0.02l-0.033,-0.022l-0.033,-0.022l-0.032,-0.022l-0.032,-0.023l-0.031,-0.024l-0.031,-0.025l-0.03,-0.025l-0.03,-0.025l-0.03,-0.026l-0.029,-0.027l-0.028,-0.028l-0.028,-0.028l-0.027,-0.028l-0.027,-0.029l-0.026,-0.03l-0.026,-0.03l-0.025,-0.031l-0.024,-0.031l-0.024,-0.031l-0.023,-0.033l-0.023,-0.032l-0.022,-0.034l-0.021,-0.033l-0.021,-0.035l-0.02,-0.034l-0.02,-0.035l-0.019,-0.036l-0.018,-0.036l-0.017,-0.037l-0.017,-0.037l-0.016,-0.037l-0.015,-0.038l-0.014,-0.038l-0.014,-0.039l-0.013,-0.039l-0.013,-0.039l-0.78,-2.601l-0.018,-0.061l-0.017,-0.062l-0.016,-0.062l-0.016,-0.062l-0.015,-0.062l-0.014,-0.062l-0.013,-0.063l-0.013,-0.062l-0.011,-0.063l-0.011,-0.063l-0.01,-0.063l-0.009,-0.063l-0.009,-0.063l-0.007,-0.064l-0.007,-0.063l-0.006,-0.063l-0.005,-0.064l-0.005,-0.064l-0.003,-0.063l-0.003,-0.064l-0.002,-0.064l-0.001,-0.063l0,-0.064l0,-0.064l0.002,-0.064l0.002,-0.064l0.003,-0.064l0.004,-0.063l0.004,-0.064l0.006,-0.064l0.006,-0.064l0.007,-0.063l0.04,-0.34l0.043,-0.366l0.047,-0.382l0.049,-0.39l0.051,-0.39l0.052,-0.381l0.051,-0.365l0.026,-0.173l0.026,-0.166l0.018,-0.112l0.019,-0.113l0.02,-0.113l0.021,-0.113l0.021,-0.113l0.023,-0.113l0.023,-0.113l0.024,-0.113l0.025,-0.113l0.026,-0.113l0.027,-0.113l0.028,-0.113l0.028,-0.113l0.03,-0.113l0.03,-0.113l0.032,-0.113l0.032,-0.112l0.033,-0.113l0.034,-0.112l0.035,-0.113l0.036,-0.112l0.037,-0.112l0.038,-0.111l0.039,-0.112l0.04,-0.111l0.041,-0.111l0.042,-0.111l0.042,-0.11l0.044,-0.11l0.045,-0.11l0.046,-0.11l0.047,-0.109l0.047,-0.109l0.049,-0.108l0.05,-0.108l0.051,-0.108l0.052,-0.107l0.053,-0.106l0.053,-0.107l0.055,-0.106l0.056,-0.105l0.058,-0.105l0.058,-0.104l0.059,-0.104l0.06,-0.103l0.062,-0.102l0.062,-0.102l0.064,-0.102l0.064,-0.1l0.066,-0.101l0.067,-0.099l0.068,-0.099l0.069,-0.098l0.07,-0.097l0.071,-0.097l0.073,-0.096l0.073,-0.095l0.075,-0.095l0.076,-0.093l0.077,-0.093l0.078,-0.092l0.08,-0.092l0.08,-0.09l0.082,-0.089l0.083,-0.089l0.084,-0.088l0.085,-0.087l0.086,-0.086l0.088,-0.085l0.089,-0.084l0.09,-0.083l0.091,-0.082l0.093,-0.081l0.094,-0.08l0.095,-0.079l0.096,-0.078l0.097,-0.076l0.099,-0.076l0.1,-0.075l0.101,-0.073l0.103,-0.073l0.103,-0.071l0.105,-0.07l0.107,-0.069l0.107,-0.068l0.109,-0.066l0.11,-0.066l0.112,-0.064l0.113,-0.062l0.114,-0.062l0.115,-0.06l0.117,-0.059l0.118,-0.057l0.119,-0.057l0.121,-0.054l0.122,-0.054l0.124,-0.052l0.125,-0.051l0.126,-0.049l0.127,-0.048l0.129,-0.046l0.13,-0.045l0.132,-0.043l0.133,-0.042l0.135,-0.04l0.135,-0.039l0.138,-0.038l0.138,-0.035l0.14,-0.034l0.142,-0.033l0.143,-0.031l0.144,-0.029l0.146,-0.028l0.147,-0.026l0.149,-0.024l0.15,-0.022l0.152,-0.021l0.153,-0.019l0.154,-0.018l0.156,-0.015l0.158,-0.014l0.159,-0.012l0.16,-0.011l0.162,-0.008l0.164,-0.006l0.165,-0.005l0.166,-0.003l0.168,-0.001c0,0 0.168,0.001 0.168,0.001Zm-0.319,1.5l-0.149,0.002l-0.148,0.005l-0.146,0.006l-0.144,0.007l-0.143,0.009l-0.141,0.011l-0.139,0.012l-0.138,0.014l-0.136,0.015l-0.135,0.017l-0.133,0.018l-0.132,0.02l-0.13,0.021l-0.128,0.023l-0.127,0.024l-0.126,0.025l-0.124,0.027l-0.122,0.028l-0.121,0.03l-0.12,0.031l-0.118,0.032l-0.117,0.033l-0.115,0.035l-0.114,0.036l-0.113,0.037l-0.111,0.038l-0.11,0.04l-0.109,0.04l-0.107,0.042l-0.106,0.043l-0.104,0.044l-0.104,0.046l-0.102,0.046l-0.101,0.048l-0.1,0.048l-0.098,0.05l-0.098,0.051l-0.096,0.051l-0.095,0.053l-0.094,0.054l-0.093,0.055l-0.091,0.056l-0.091,0.057l-0.089,0.058l-0.089,0.059l-0.087,0.06l-0.086,0.061l-0.085,0.062l-0.085,0.063l-0.083,0.063l-0.082,0.065l-0.081,0.066l-0.08,0.066l-0.079,0.068l-0.078,0.068l-0.077,0.07l-0.076,0.07l-0.076,0.071l-0.074,0.072l-0.073,0.073l-0.072,0.073l-0.072,0.075l-0.07,0.075l-0.07,0.077l-0.068,0.077l-0.068,0.077l-0.067,0.079l-0.066,0.08l-0.065,0.08l-0.064,0.081l-0.063,0.081l-0.062,0.083l-0.062,0.083l-0.06,0.084l-0.06,0.085l-0.059,0.085l-0.057,0.086l-0.057,0.087l-0.057,0.088l-0.055,0.088l-0.054,0.088l-0.054,0.09l-0.052,0.09l-0.052,0.09l-0.051,0.092l-0.05,0.091l-0.049,0.093l-0.048,0.093l-0.048,0.093l-0.046,0.094l-0.046,0.095l-0.045,0.094l-0.044,0.096l-0.043,0.096l-0.042,0.096l-0.042,0.097l-0.04,0.097l-0.04,0.098l-0.039,0.098l-0.038,0.098l-0.038,0.099l-0.036,0.099l-0.036,0.099l-0.034,0.1l-0.034,0.1l-0.033,0.1l-0.033,0.101l-0.031,0.1l-0.031,0.101l-0.03,0.101l-0.029,0.102l-0.028,0.101l-0.027,0.102l-0.027,0.102l-0.026,0.102l-0.025,0.102l-0.024,0.102l-0.024,0.102l-0.022,0.102l-0.022,0.102l-0.021,0.103l-0.02,0.102l-0.02,0.102l-0.019,0.103l-0.018,0.102l-0.017,0.102l-0.016,0.102l-0.025,0.157l-0.024,0.165l-0.051,0.354l-0.05,0.373l-0.05,0.382l-0.048,0.385l-0.046,0.377l-0.044,0.362l-0.039,0.334l-0.005,0.049l-0.005,0.045l-0.003,0.044l-0.004,0.045l-0.002,0.045l-0.002,0.044l-0.002,0.045l-0.001,0.045l0,0.045l0,0.044l0.001,0.045l0.001,0.044l0.002,0.045l0.003,0.044l0.003,0.045l0.003,0.045l0.004,0.044l0.005,0.044l0.005,0.044l0.006,0.045l0.007,0.044l0.007,0.044l0.007,0.044l0.009,0.044l0.008,0.044l0.01,0.044l0.009,0.043l0.011,0.043l0.011,0.044l0.011,0.043l0.012,0.044l0.014,0.048l0.777,2.588l0.005,0.017l0.004,0.011l0.003,0.01l0.004,0.009l0.004,0.009l0.004,0.01l0.008,0.018l0.005,0.009l0.004,0.009l0.01,0.017l0.011,0.017l0.011,0.016l0.011,0.016l0.012,0.015l0.014,0.016l0.013,0.014l0.014,0.014l0.015,0.013l0.015,0.013l0.016,0.012l0.016,0.012l0.016,0.01l0.017,0.011l0.018,0.009l0.018,0.009l0.017,0.008l0.019,0.008l0.018,0.006l0.019,0.006l0.019,0.005l0.02,0.005l0.009,0.002l0.01,0.001l0.01,0.002l0.01,0.001l0.01,0.001l0.01,0.001l0.011,0.001l0.01,0l0.01,0.001l0.019,0l17.008,0l0.019,0l0.01,-0.001l0.01,0l0.011,-0.001l0.01,-0.001l0.01,-0.001l0.01,-0.001l0.01,-0.002l0.01,-0.001l0.01,-0.002l0.009,-0.003l0.01,-0.002l0.009,-0.002l0.01,-0.003l0.009,-0.003l0.01,-0.003l0.009,-0.003l0.01,-0.004l0.009,-0.003l0.008,-0.004l0.01,-0.004l0.009,-0.004l0.008,-0.004l0.009,-0.005l0.009,-0.004l0.009,-0.005l0.008,-0.005l0.008,-0.005l0.009,-0.006l0.008,-0.005l0.008,-0.006l0.009,-0.006l0.007,-0.006l0.008,-0.006l0.008,-0.007l0.007,-0.006l0.007,-0.006l0.008,-0.007l0.007,-0.007l0.007,-0.007l0.007,-0.007l0.006,-0.007l0.007,-0.008l0.006,-0.007l0.007,-0.008l0.006,-0.008l0.006,-0.008l0.005,-0.008l0.006,-0.008l0.006,-0.008l0.005,-0.008l0.005,-0.008l0.005,-0.009l0.005,-0.009l0.005,-0.009l0.004,-0.009l0.004,-0.009l0.004,-0.009l0.004,-0.009l0.004,-0.009l0.004,-0.011l0.003,-0.009l0.004,-0.01l0.005,-0.018l0.777,-2.589l0.014,-0.047l0.012,-0.044l0.011,-0.043l0.011,-0.043l0.011,-0.044l0.009,-0.043l0.01,-0.044l0.009,-0.044l0.008,-0.044l0.007,-0.044l0.007,-0.044l0.007,-0.044l0.005,-0.044l0.006,-0.045l0.005,-0.044l0.004,-0.044l0.003,-0.045l0.003,-0.045l0.003,-0.044l0.002,-0.044l0.001,-0.045l0.001,-0.045l0,-0.045l0,-0.044l-0.001,-0.045l-0.002,-0.044l-0.002,-0.045l-0.002,-0.045l-0.004,-0.045l-0.003,-0.044l-0.005,-0.045l-0.005,-0.049l-0.039,-0.334l-0.044,-0.362l-0.046,-0.377l-0.048,-0.385l-0.05,-0.383l-0.05,-0.372l-0.051,-0.354l-0.024,-0.165l-0.025,-0.157l-0.016,-0.102l-0.017,-0.102l-0.018,-0.102l-0.019,-0.102l-0.02,-0.103l-0.02,-0.102l-0.021,-0.102l-0.022,-0.103l-0.022,-0.102l-0.024,-0.102l-0.024,-0.102l-0.025,-0.102l-0.026,-0.102l-0.027,-0.102l-0.027,-0.102l-0.028,-0.101l-0.029,-0.101l-0.03,-0.102l-0.031,-0.101l-0.031,-0.1l-0.033,-0.101l-0.033,-0.1l-0.034,-0.1l-0.034,-0.1l-0.036,-0.099l-0.036,-0.099l-0.038,-0.099l-0.038,-0.098l-0.039,-0.098l-0.04,-0.098l-0.04,-0.097l-0.042,-0.097l-0.042,-0.096l-0.043,-0.096l-0.044,-0.095l-0.045,-0.095l-0.046,-0.095l-0.046,-0.094l-0.048,-0.093l-0.048,-0.093l-0.049,-0.092l-0.05,-0.092l-0.051,-0.092l-0.052,-0.09l-0.052,-0.09l-0.054,-0.09l-0.054,-0.088l-0.055,-0.088l-0.057,-0.088l-0.056,-0.087l-0.058,-0.086l-0.059,-0.085l-0.06,-0.085l-0.06,-0.084l-0.062,-0.083l-0.062,-0.082l-0.063,-0.082l-0.064,-0.081l-0.065,-0.081l-0.066,-0.079l-0.067,-0.079l-0.068,-0.077l-0.068,-0.077l-0.07,-0.077l-0.07,-0.075l-0.072,-0.075l-0.072,-0.073l-0.073,-0.073l-0.075,-0.072l-0.075,-0.071l-0.076,-0.07l-0.077,-0.07l-0.078,-0.068l-0.079,-0.068l-0.08,-0.066l-0.081,-0.066l-0.082,-0.065l-0.083,-0.063l-0.085,-0.063l-0.085,-0.062l-0.086,-0.061l-0.087,-0.06l-0.089,-0.059l-0.089,-0.058l-0.091,-0.057l-0.091,-0.056l-0.093,-0.055l-0.094,-0.054l-0.095,-0.053l-0.096,-0.051l-0.098,-0.051l-0.098,-0.05l-0.1,-0.049l-0.101,-0.047l-0.102,-0.046l-0.103,-0.046l-0.105,-0.044l-0.106,-0.043l-0.108,-0.042l-0.108,-0.041l-0.11,-0.039l-0.111,-0.038l-0.113,-0.037l-0.114,-0.036l-0.115,-0.035l-0.117,-0.033l-0.118,-0.032l-0.12,-0.031l-0.121,-0.03l-0.122,-0.028l-0.124,-0.027l-0.126,-0.025l-0.127,-0.024l-0.128,-0.023l-0.13,-0.021l-0.132,-0.02l-0.133,-0.018l-0.135,-0.017l-0.136,-0.015l-0.138,-0.014l-0.139,-0.012l-0.141,-0.011l-0.143,-0.009l-0.144,-0.007l-0.146,-0.006l-0.148,-0.005l-0.149,-0.002l-0.151,-0.001l-0.151,0.001Z" style="fill:#f11717;"/>
            </g>
            <rect x="14" y="7" width="4" height="1" style="fill:#e9a620;"/>
            <rect x="15" y="14.5" width="2" height="1" style="fill:#999;"/>
            <path d="M6.672,18.172c-0.084,-0.084 -0.213,-0.101 -0.316,-0.043c-0.103,0.058 -0.154,0.178 -0.126,0.293c0.176,0.703 0.416,1.661 0.581,2.321c0.111,0.445 0.511,0.757 0.97,0.757c0.493,0 1.121,0 1.584,0c0.106,0 0.202,-0.064 0.243,-0.162c0.041,-0.099 0.018,-0.212 -0.057,-0.287c-0.702,-0.702 -2.061,-2.061 -2.879,-2.879Z" style="fill:#9e0a0a;"/>
            <circle cx="16" cy="18" r="1" style="fill:#4c4c4c;"/>
        </g>
    </g>
</svg>
