<?xml version="1.0" encoding="UTF-8" standalone="no"?>
<!DOCTYPE svg PUBLIC "-//W3C//DTD SVG 1.1//EN" "http://www.w3.org/Graphics/SVG/1.1/DTD/svg11.dtd">
<svg width="100%" height="100%" viewBox="0 0 32 32" version="1.1" xmlns="http://www.w3.org/2000/svg" xmlns:xlink="http://www.w3.org/1999/xlink" xml:space="preserve" xmlns:serif="http://www.serif.com/" style="fill-rule:evenodd;clip-rule:evenodd;stroke-linejoin:round;stroke-miterlimit:1.5;">
    <rect id="railway_car" x="0" y="0" width="32" height="32" style="fill:none;"/>
    <clipPath id="_clip1">
        <rect x="0" y="0" width="32" height="32"/>
    </clipPath>
    <g clip-path="url(#_clip1)">
        <g id="outline">
            <path d="M32,9c0,-0.796 -0.316,-1.559 -0.879,-2.121c-0.562,-0.563 -1.325,-0.879 -2.121,-0.879l-26,0c-0.796,0 -1.559,0.316 -2.121,0.879c-0.563,0.562 -0.879,1.325 -0.879,2.121l0,23l32,0l0,-23Z"/>
            <path d="M15,9l6,-3l-6,-3l-1,0" style="fill:none;stroke:#000;stroke-width:6px;"/>
            <path d="M14,4l-1,1l-1,0l0,-3l3,0l0,2l-1,0Z" style="fill:none;stroke:#000;stroke-width:4px;stroke-linecap:round;"/>
        </g>
        <g id="emoji">
            <path d="M15,9l6,-3l-6,-3l-1,0" style="fill:none;stroke:#737373;stroke-width:2px;stroke-linecap:square;"/>
            <rect x="2" y="28" width="28" height="2" style="fill:#666;"/>
            <g>
                <rect x="5" y="23" width="22" height="4" style="fill:#333;"/>
                <circle cx="9" cy="26" r="2" style="fill:#808080;"/>
                <circle cx="23" cy="26" r="2" style="fill:#808080;"/>
                <g>
                    <path d="M30,10l-1,-1l-26,0l-1,1l0,16c0,0.552 0.448,1 1,1c0.873,0 2,0 2,0c0,0 1.152,-1.152 1.707,-1.707c0.188,-0.188 0.442,-0.293 0.707,-0.293c2.424,0 14.748,0 17.172,0c0.265,0 0.519,0.105 0.707,0.293c0.555,0.555 1.707,1.707 1.707,1.707l2,0c0.552,0 1,-0.448 1,-1c0,-3.644 0,-16 0,-16Z" style="fill:#d9d9d9;"/>
                    <path d="M30,9c0,-0.552 -0.448,-1 -1,-1c-4.355,0 -21.645,0 -26,0c-0.552,0 -1,0.448 -1,1c0,0.5 0,1 0,1l28,0l0,-1Z" style="fill:#f2f2f2;"/>
                </g>
            </g>
            <g>
                <path d="M21,13c0,-0.552 -0.448,-1 -1,-1c-1.185,0 -3,0 -3,0l-1,1l-1,-1l-6,0l-1,1l-1,-1l-3,0c-0.552,0 -1,0.448 -1,1c0,1.732 0,5.268 0,7c0,0.552 0.448,1 1,1c1.185,0 3,0 3,0l1,-1l1,1l6,0l1,-1l1,1l3,0c0.552,0 1,-0.448 1,-1c0,-1.732 0,-5.268 0,-7Z"/>
                <rect x="7" y="12" width="2" height="9" style="fill:#404040;"/>
                <rect x="15" y="12" width="2" height="9" style="fill:#404040;"/>
            </g>
            <path d="M29,22.077l0,-9.077c0,-1.105 -0.895,-2 -2,-2c-0.941,0 -2.059,0 -3,0c-1.105,0 -2,0.895 -2,2c0,3.191 0,9.077 0,9.077l1,0.923l5,0l1,-0.923Z" style="fill:#f1d417;"/>
            <path d="M29,23c0,0.265 -0.105,0.52 -0.293,0.707c-0.187,0.188 -0.442,0.293 -0.707,0.293c-1.331,0 -3.669,0 -5,0c-0.265,0 -0.52,-0.105 -0.707,-0.293c-0.188,-0.187 -0.293,-0.442 -0.293,-0.707c0,-0.5 0,-1 0,-1l7,0l0,1Z" style="fill:#666;"/>
            <path d="M28,13c0,-0.265 -0.105,-0.52 -0.293,-0.707c-0.187,-0.188 -0.442,-0.293 -0.707,-0.293c-0.871,0 -2.129,0 -3,0c-0.265,0 -0.52,0.105 -0.707,0.293c-0.188,0.187 -0.293,0.442 -0.293,0.707c0,1.732 0,5.268 0,7c0,0.265 0.105,0.52 0.293,0.707c0.187,0.188 0.442,0.293 0.707,0.293c0.871,0 2.129,0 3,0c0.265,0 0.52,-0.105 0.707,-0.293c0.188,-0.187 0.293,-0.442 0.293,-0.707c0,-1.732 0,-5.268 0,-7Z"/>
            <path d="M14,4l-1,1l-1,0l0,-3l3,0l0,2l-1,0Z" style="fill:#8c8c8c;"/>
        </g>
    </g>
</svg>
