<?xml version="1.0" encoding="UTF-8" standalone="no"?>
<!DOCTYPE svg PUBLIC "-//W3C//DTD SVG 1.1//EN" "http://www.w3.org/Graphics/SVG/1.1/DTD/svg11.dtd">
<svg width="100%" height="100%" viewBox="0 0 32 32" version="1.1" xmlns="http://www.w3.org/2000/svg" xmlns:xlink="http://www.w3.org/1999/xlink" xml:space="preserve" xmlns:serif="http://www.serif.com/" style="fill-rule:evenodd;clip-rule:evenodd;stroke-linecap:round;stroke-miterlimit:1.5;">
    <rect id="suspension_railway" x="0" y="0" width="32" height="32" style="fill:none;"/>
    <clipPath id="_clip1">
        <rect x="0" y="0" width="32" height="32"/>
    </clipPath>
    <g clip-path="url(#_clip1)">
        <g id="outline">
            <rect x="2" y="2" width="28" height="5" style="fill:none;stroke:#000;stroke-width:4px;"/>
            <rect x="3" y="2" width="26" height="9"/>
            <path d="M30,12c0,-0.552 -0.448,-1 -1,-1c-4.355,0 -21.645,0 -26,0c-0.552,0 -1,0.448 -1,1c0,2.832 0,10.858 0,13.292c0,0.466 0.108,0.925 0.317,1.341c0.388,0.776 1.038,2.077 1.407,2.814c0.169,0.339 0.515,0.553 0.894,0.553c3.428,0 20.107,0 24.382,0c0.265,0 0.52,-0.105 0.707,-0.293c0.188,-0.187 0.293,-0.442 0.293,-0.707c0,-3.284 0,-13.716 0,-17Z" style="fill:none;stroke:#000;stroke-width:4px;"/>
        </g>
        <g id="emoji">
            <rect x="5" y="5" width="3" height="7" style="fill:#4b4b4b;"/>
            <rect x="24" y="5" width="3" height="7" style="fill:#4b4b4b;"/>
            <g>
                <path d="M30,2l-3,0l-1,1l-1,-1l-3,0l-1,1l-1,-1l-3,0l-1,1l-1,-1l-3,0l-1,1l-1,-1l-3,0l-1,1l-1,-1l-3,0l0,5l3,0l1,-1l1,1l3,0l1,-1l1,1l3,0l1,-1l1,1l3,0l1,-1l1,1l3,0l1,-1l1,1l3,0l0,-5Z" style="fill:#b3b3b3;"/>
                <rect x="5" y="2" width="2" height="5" style="fill:#999;"/>
                <rect x="10" y="2" width="2" height="5" style="fill:#999;"/>
                <rect x="20" y="2" width="2" height="5" style="fill:#999;"/>
                <rect x="25" y="2" width="2" height="5" style="fill:#999;"/>
                <rect x="15" y="2" width="2" height="5" style="fill:#999;"/>
            </g>
            <path d="M2,13l0,-1c0,-0.552 0.448,-1 1,-1c4.355,0 21.645,0 26,0c0.552,0 1,0.448 1,1l0,1l-28,0Z" style="fill:#fff;"/>
            <path d="M30,27l0,2c0,0.265 -0.105,0.52 -0.293,0.707c-0.187,0.188 -0.442,0.293 -0.707,0.293c-4.275,0 -20.954,0 -24.382,0c-0.379,0 -0.725,-0.214 -0.894,-0.553l-1.224,-2.447l0.5,-1l26,0l1,1Zm-28,-2l0,-12l1,-1l26,0l1,1l0,12l-1,1l-1,-1l-1,-1l-22,0l-1,1l-1,1l-1,-1Z" style="fill:#e6e6e6;"/>
            <path d="M2,25l28,0l0,2l-27.5,0l-0.183,-0.367c-0.209,-0.416 -0.317,-0.875 -0.317,-1.341l0,-0.292Z" style="fill:#5b48d8;"/>
            <path d="M29,17c0,-0.265 -0.105,-0.52 -0.293,-0.707c-0.187,-0.188 -0.442,-0.293 -0.707,-0.293c-4.134,0 -19.866,0 -24,0c-0.265,0 -0.52,0.105 -0.707,0.293c-0.188,0.187 -0.293,0.442 -0.293,0.707c0,1.732 0,5.268 0,7c0,0.265 0.105,0.52 0.293,0.707c0.187,0.188 0.442,0.293 0.707,0.293c4.134,0 19.866,0 24,0c0.265,0 0.52,-0.105 0.707,-0.293c0.188,-0.187 0.293,-0.442 0.293,-0.707c0,-1.732 0,-5.268 0,-7Z"/>
            <path d="M19.05,15.001l0.049,0.001l0.05,0.004l0.049,0.004l0.049,0.005l0.048,0.007l0.049,0.008l0.048,0.009l0.048,0.01l0.047,0.011l0.048,0.013l0.047,0.013l0.046,0.015l0.046,0.016l0.046,0.017l0.045,0.018l0.045,0.019l0.045,0.021l0.043,0.021l0.044,0.023l0.043,0.023l0.042,0.025l0.042,0.025l0.041,0.027l0.04,0.028l0.04,0.028l0.039,0.03l0.039,0.031l0.037,0.032l0.037,0.032l0.037,0.034l0.035,0.035l0.035,0.035l0.034,0.037l0.032,0.037l0.032,0.037l0.031,0.039l0.03,0.039l0.028,0.04l0.028,0.04l0.027,0.041l0.025,0.042l0.025,0.042l0.023,0.043l0.023,0.044l0.021,0.043l0.021,0.045l0.019,0.045l0.018,0.045l0.017,0.046l0.016,0.046l0.015,0.046l0.013,0.047l0.013,0.048l0.011,0.047l0.01,0.048l0.009,0.048l0.008,0.049l0.007,0.048l0.005,0.049l0.004,0.049l0.004,0.05l0.001,0.049l0.001,0.05l0,11l-0.001,0.05l-0.001,0.049l-0.004,0.05l-0.004,0.049l-0.005,0.049l-0.007,0.048l-0.008,0.049l-0.009,0.048l-0.01,0.048l-0.011,0.047l-0.013,0.048l-0.013,0.047l-0.015,0.046l-0.016,0.046l-0.017,0.046l-0.018,0.045l-0.019,0.045l-0.021,0.045l-0.021,0.043l-0.023,0.044l-0.023,0.043l-0.025,0.042l-0.025,0.042l-0.027,0.041l-0.028,0.04l-0.028,0.04l-0.03,0.039l-0.031,0.039l-0.032,0.037l-0.032,0.037l-0.034,0.037l-0.035,0.035l-0.035,0.035l-0.037,0.034l-0.037,0.032l-0.037,0.032l-0.039,0.031l-0.039,0.03l-0.04,0.028l-0.04,0.028l-0.041,0.027l-0.042,0.025l-0.042,0.025l-0.043,0.023l-0.044,0.023l-0.043,0.021l-0.045,0.021l-0.045,0.019l-0.045,0.018l-0.046,0.017l-0.046,0.016l-0.046,0.015l-0.047,0.013l-0.048,0.013l-0.047,0.011l-0.048,0.01l-0.048,0.009l-0.049,0.008l-0.048,0.007l-0.049,0.005l-0.049,0.004l-0.05,0.004l-0.049,0.001l-0.05,0.001l-6,0l-0.05,-0.001l-0.049,-0.001l-0.05,-0.004l-0.049,-0.004l-0.049,-0.005l-0.048,-0.007l-0.049,-0.008l-0.048,-0.009l-0.048,-0.01l-0.047,-0.011l-0.048,-0.013l-0.047,-0.013l-0.046,-0.015l-0.046,-0.016l-0.046,-0.017l-0.045,-0.018l-0.045,-0.019l-0.045,-0.021l-0.043,-0.021l-0.044,-0.023l-0.043,-0.023l-0.042,-0.025l-0.042,-0.025l-0.041,-0.027l-0.04,-0.028l-0.04,-0.028l-0.039,-0.03l-0.039,-0.031l-0.037,-0.032l-0.037,-0.032l-0.037,-0.034l-0.035,-0.035l-0.035,-0.035l-0.034,-0.037l-0.032,-0.037l-0.032,-0.037l-0.031,-0.039l-0.03,-0.039l-0.028,-0.04l-0.028,-0.04l-0.027,-0.041l-0.025,-0.042l-0.025,-0.042l-0.023,-0.043l-0.023,-0.044l-0.021,-0.043l-0.021,-0.045l-0.019,-0.045l-0.018,-0.045l-0.017,-0.046l-0.016,-0.046l-0.015,-0.046l-0.013,-0.047l-0.013,-0.048l-0.011,-0.047l-0.01,-0.048l-0.009,-0.048l-0.008,-0.049l-0.007,-0.048l-0.005,-0.049l-0.004,-0.049l-0.004,-0.05l-0.001,-0.049l-0.001,-0.05l0,-11l0.001,-0.05l0.001,-0.049l0.004,-0.05l0.004,-0.049l0.005,-0.049l0.007,-0.048l0.008,-0.049l0.009,-0.048l0.01,-0.048l0.011,-0.047l0.013,-0.048l0.013,-0.047l0.015,-0.046l0.016,-0.046l0.017,-0.046l0.018,-0.045l0.019,-0.045l0.021,-0.045l0.021,-0.043l0.023,-0.044l0.023,-0.043l0.025,-0.042l0.025,-0.042l0.027,-0.041l0.028,-0.04l0.028,-0.04l0.03,-0.039l0.031,-0.039l0.032,-0.037l0.032,-0.037l0.034,-0.037l0.035,-0.035l0.035,-0.035l0.037,-0.034l0.037,-0.032l0.037,-0.032l0.039,-0.031l0.039,-0.03l0.04,-0.028l0.04,-0.028l0.041,-0.027l0.042,-0.025l0.042,-0.025l0.043,-0.023l0.044,-0.023l0.043,-0.021l0.045,-0.021l0.045,-0.019l0.045,-0.018l0.046,-0.017l0.046,-0.016l0.046,-0.015l0.047,-0.013l0.048,-0.013l0.047,-0.011l0.048,-0.01l0.048,-0.009l0.049,-0.008l0.048,-0.007l0.049,-0.005l0.049,-0.004l0.05,-0.004l0.049,-0.001l0.05,-0.001l6,0l0.05,0.001Zm-6.044,0.999l-0.031,0l-0.025,0.001l-0.024,0.002l-0.025,0.002l-0.024,0.003l-0.025,0.003l-0.024,0.004l-0.024,0.004l-0.024,0.006l-0.024,0.005l-0.023,0.006l-0.024,0.007l-0.023,0.008l-0.023,0.008l-0.023,0.008l-0.023,0.009l-0.022,0.01l-0.022,0.01l-0.022,0.011l-0.022,0.011l-0.021,0.012l-0.021,0.012l-0.021,0.013l-0.021,0.013l-0.02,0.014l-0.02,0.014l-0.019,0.015l-0.02,0.015l-0.019,0.016l-0.018,0.017l-0.018,0.017l-0.018,0.017l-0.017,0.018l-0.017,0.018l-0.017,0.018l-0.015,0.019l-0.016,0.02l-0.015,0.019l-0.014,0.02l-0.014,0.02l-0.013,0.021l-0.013,0.021l-0.012,0.021l-0.012,0.021l-0.011,0.022l-0.011,0.022l-0.01,0.022l-0.01,0.022l-0.009,0.023l-0.008,0.023l-0.008,0.023l-0.008,0.023l-0.007,0.024l-0.006,0.023l-0.005,0.024l-0.006,0.024l-0.004,0.024l-0.004,0.024l-0.003,0.025l-0.003,0.024l-0.002,0.025l-0.002,0.024l-0.001,0.025l0,0.031l0,10.988l0,0.031l0.001,0.025l0.002,0.024l0.002,0.025l0.003,0.024l0.003,0.025l0.004,0.024l0.004,0.024l0.006,0.024l0.005,0.024l0.006,0.023l0.007,0.024l0.008,0.023l0.008,0.023l0.008,0.023l0.009,0.023l0.01,0.022l0.01,0.022l0.011,0.022l0.011,0.022l0.012,0.021l0.012,0.021l0.013,0.021l0.013,0.021l0.014,0.02l0.014,0.02l0.015,0.019l0.016,0.02l0.015,0.019l0.017,0.018l0.017,0.018l0.017,0.018l0.018,0.017l0.018,0.017l0.019,0.017l0.018,0.016l0.02,0.015l0.019,0.015l0.02,0.014l0.02,0.014l0.021,0.013l0.021,0.013l0.021,0.012l0.021,0.012l0.022,0.011l0.022,0.011l0.022,0.01l0.022,0.01l0.023,0.009l0.023,0.008l0.023,0.008l0.023,0.008l0.024,0.007l0.023,0.006l0.024,0.005l0.024,0.006l0.024,0.004l0.024,0.004l0.025,0.003l0.024,0.003l0.025,0.002l0.024,0.002l0.025,0.001l0.031,0l5.988,0l0.031,0l0.025,-0.001l0.024,-0.002l0.025,-0.002l0.024,-0.003l0.025,-0.003l0.024,-0.004l0.024,-0.004l0.024,-0.006l0.024,-0.005l0.023,-0.006l0.024,-0.007l0.023,-0.008l0.023,-0.008l0.023,-0.008l0.023,-0.009l0.022,-0.01l0.022,-0.01l0.022,-0.011l0.022,-0.011l0.021,-0.012l0.021,-0.012l0.021,-0.013l0.021,-0.013l0.02,-0.014l0.02,-0.014l0.019,-0.015l0.02,-0.015l0.019,-0.016l0.018,-0.017l0.018,-0.017l0.018,-0.017l0.017,-0.018l0.017,-0.018l0.017,-0.018l0.016,-0.019l0.015,-0.02l0.015,-0.019l0.014,-0.02l0.014,-0.02l0.013,-0.021l0.013,-0.021l0.012,-0.021l0.012,-0.021l0.011,-0.022l0.011,-0.022l0.01,-0.022l0.01,-0.022l0.009,-0.023l0.008,-0.023l0.008,-0.023l0.008,-0.023l0.007,-0.024l0.006,-0.023l0.005,-0.024l0.006,-0.024l0.004,-0.024l0.004,-0.024l0.003,-0.025l0.003,-0.024l0.002,-0.025l0.002,-0.024l0.001,-0.025l0,-0.031l0,-10.988l0,-0.031l-0.001,-0.025l-0.002,-0.024l-0.002,-0.025l-0.003,-0.024l-0.003,-0.025l-0.004,-0.024l-0.004,-0.024l-0.006,-0.024l-0.005,-0.024l-0.006,-0.023l-0.007,-0.024l-0.008,-0.023l-0.008,-0.023l-0.008,-0.023l-0.009,-0.023l-0.01,-0.022l-0.01,-0.022l-0.011,-0.022l-0.011,-0.022l-0.012,-0.021l-0.012,-0.021l-0.013,-0.021l-0.013,-0.021l-0.014,-0.02l-0.014,-0.02l-0.015,-0.019l-0.015,-0.02l-0.016,-0.018l-0.017,-0.019l-0.017,-0.018l-0.017,-0.018l-0.018,-0.017l-0.018,-0.017l-0.018,-0.017l-0.019,-0.016l-0.02,-0.015l-0.019,-0.015l-0.02,-0.014l-0.02,-0.014l-0.021,-0.013l-0.021,-0.013l-0.021,-0.012l-0.021,-0.012l-0.022,-0.011l-0.022,-0.011l-0.022,-0.01l-0.022,-0.01l-0.023,-0.009l-0.023,-0.008l-0.023,-0.008l-0.023,-0.008l-0.024,-0.007l-0.023,-0.006l-0.024,-0.005l-0.024,-0.006l-0.024,-0.004l-0.024,-0.004l-0.025,-0.003l-0.024,-0.003l-0.025,-0.002l-0.024,-0.002l-0.025,-0.001l-0.031,0l-5.988,0Z" style="fill:#878787;"/>
            <g>
                <rect x="3" y="13" width="2" height="1" style="fill:#a3a3a3;"/>
                <rect x="11" y="13" width="2" height="1" style="fill:#a3a3a3;"/>
                <rect x="19" y="13" width="2" height="1" style="fill:#a3a3a3;"/>
                <rect x="27" y="13" width="2" height="1" style="fill:#a3a3a3;"/>
            </g>
        </g>
    </g>
</svg>
