<?xml version="1.0" encoding="UTF-8" standalone="no"?><!DOCTYPE svg PUBLIC "-//W3C//DTD SVG 1.1//EN" "http://www.w3.org/Graphics/SVG/1.1/DTD/svg11.dtd"><svg width="100%" height="100%" viewBox="0 0 32 32" version="1.1" xmlns="http://www.w3.org/2000/svg" xmlns:xlink="http://www.w3.org/1999/xlink" xml:space="preserve" xmlns:serif="http://www.serif.com/" style="fill-rule:evenodd;clip-rule:evenodd;stroke-linejoin:round;stroke-miterlimit:1.41421;"><rect id="blush_kiss" x="0" y="0" width="32" height="32" style="fill:none;"/><clipPath id="_clip1"><rect x="0" y="0" width="32" height="32"/></clipPath><g clip-path="url(#_clip1)"><g id="outline"><path d="M16.206,2.001l0.206,0.004l0.205,0.007l0.205,0.009l0.204,0.011l0.203,0.015l0.203,0.016l0.201,0.019l0.202,0.022l0.2,0.024l0.2,0.027l0.199,0.029l0.198,0.032l0.198,0.034l0.197,0.036l0.195,0.039l0.195,0.041l0.195,0.044l0.193,0.046l0.192,0.048l0.192,0.05l0.19,0.053l0.19,0.055l0.188,0.058l0.188,0.059l0.186,0.062l0.186,0.064l0.184,0.066l0.184,0.069l0.182,0.07l0.181,0.073l0.181,0.075l0.179,0.077l0.177,0.079l0.177,0.081l0.176,0.084l0.174,0.085l0.173,0.087l0.172,0.09l0.171,0.091l0.169,0.094l0.169,0.095l0.166,0.097l0.166,0.1l0.164,0.101l0.163,0.103l0.162,0.105l0.16,0.107l0.159,0.108l0.157,0.111l0.157,0.112l0.154,0.115l0.153,0.116l0.152,0.117l0.15,0.12l0.149,0.121l0.148,0.123l0.146,0.125l0.144,0.127l0.142,0.128l0.142,0.13l0.139,0.131l0.138,0.133l0.137,0.135l0.135,0.137l0.133,0.138l0.131,0.139l0.13,0.142l0.128,0.142l0.127,0.144l0.125,0.146l0.123,0.148l0.121,0.149l0.12,0.15l0.117,0.152l0.116,0.153l0.115,0.154l0.112,0.156l0.111,0.158l0.108,0.159l0.107,0.16l0.105,0.162l0.103,0.163l0.101,0.164l0.1,0.165l0.097,0.168l0.095,0.168l0.094,0.169l0.091,0.171l0.09,0.172l0.087,0.173l0.085,0.174l0.083,0.176l0.082,0.177l0.079,0.177l0.077,0.179l0.075,0.181l0.073,0.181l0.07,0.182l0.069,0.184l0.066,0.184l0.064,0.186l0.062,0.186l0.059,0.188l0.058,0.188l0.055,0.19l0.053,0.19l0.05,0.192l0.048,0.192l0.046,0.193l0.044,0.195l0.041,0.195l0.039,0.195l0.036,0.197l0.034,0.198l0.032,0.198l0.029,0.199l0.027,0.2l0.024,0.2l0.022,0.201l0.019,0.202l0.016,0.203l0.015,0.203l0.011,0.204l0.009,0.205l0.007,0.205l0.004,0.206l0.001,0.2l0,0.514l-0.001,0.162l-0.003,0.167l-0.005,0.167l-0.008,0.167l-0.009,0.167l-0.011,0.166l-0.014,0.166l-0.015,0.166l-0.017,0.165l-0.02,0.165l-0.021,0.165l-0.024,0.164l-0.025,0.164l-0.028,0.163l-0.029,0.163l-0.032,0.163l-0.033,0.162l-0.035,0.161l-0.038,0.161l-0.039,0.16l-0.041,0.16l-0.043,0.159l-0.045,0.159l-0.047,0.158l-0.049,0.157l-0.051,0.157l-0.053,0.156l-0.054,0.155l-0.057,0.155l-0.058,0.154l-0.06,0.153l-0.062,0.152l-0.064,0.152l-0.066,0.151l-0.068,0.15l-0.069,0.149l-0.071,0.149l-0.074,0.148l-0.074,0.146l-0.077,0.146l-0.079,0.145l-0.08,0.144l-0.082,0.143l-0.084,0.142l-0.085,0.141l-0.088,0.14l-0.089,0.14l-0.091,0.138l-0.092,0.137l-0.095,0.136l-0.096,0.135l-0.098,0.134l-0.099,0.132l-0.101,0.132l-0.103,0.13l-0.105,0.13l-0.106,0.128l-0.108,0.126l-0.11,0.126l-0.111,0.125l-0.113,0.123l-0.114,0.122l-0.117,0.12l-0.117,0.12l-0.12,0.117l-0.12,0.117l-0.122,0.114l-0.123,0.113l-0.125,0.111l-0.126,0.11l-0.126,0.108l-0.128,0.106l-0.13,0.105l-0.13,0.103l-0.132,0.101l-0.132,0.099l-0.134,0.098l-0.135,0.096l-0.136,0.095l-0.137,0.092l-0.138,0.091l-0.14,0.089l-0.14,0.088l-0.141,0.085l-0.142,0.084l-0.143,0.082l-0.144,0.08l-0.145,0.079l-0.146,0.077l-0.147,0.075l-0.147,0.073l-0.149,0.071l-0.149,0.069l-0.15,0.068l-0.151,0.066l-0.152,0.064l-0.152,0.062l-0.153,0.06l-0.154,0.058l-0.155,0.057l-0.155,0.054l-0.156,0.053l-0.157,0.051l-0.157,0.049l-0.158,0.047l-0.159,0.045l-0.159,0.043l-0.16,0.041l-0.16,0.039l-0.161,0.038l-0.161,0.035l-0.162,0.033l-0.163,0.032l-0.163,0.029l-0.163,0.028l-0.164,0.025l-0.164,0.024l-0.165,0.021l-0.165,0.02l-0.165,0.017l-0.166,0.015l-0.166,0.014l-0.166,0.011l-0.167,0.009l-0.167,0.008l-0.167,0.005l-0.167,0.003l-0.162,0.001l-5.016,0l-0.162,-0.001l-0.167,-0.003l-0.167,-0.005l-0.167,-0.008l-0.167,-0.009l-0.166,-0.011l-0.166,-0.014l-0.166,-0.015l-0.165,-0.017l-0.165,-0.02l-0.165,-0.021l-0.164,-0.024l-0.164,-0.025l-0.163,-0.028l-0.163,-0.029l-0.163,-0.032l-0.162,-0.033l-0.161,-0.035l-0.161,-0.038l-0.16,-0.039l-0.16,-0.041l-0.159,-0.043l-0.159,-0.045l-0.158,-0.047l-0.157,-0.049l-0.157,-0.051l-0.156,-0.053l-0.155,-0.054l-0.155,-0.057l-0.154,-0.058l-0.153,-0.06l-0.152,-0.062l-0.152,-0.064l-0.151,-0.066l-0.15,-0.068l-0.15,-0.069l-0.148,-0.071l-0.147,-0.073l-0.147,-0.075l-0.146,-0.077l-0.145,-0.079l-0.144,-0.08l-0.143,-0.082l-0.142,-0.084l-0.141,-0.085l-0.14,-0.088l-0.14,-0.089l-0.138,-0.091l-0.137,-0.092l-0.136,-0.095l-0.135,-0.096l-0.134,-0.098l-0.132,-0.099l-0.132,-0.101l-0.13,-0.103l-0.13,-0.105l-0.128,-0.106l-0.126,-0.108l-0.126,-0.11l-0.125,-0.111l-0.123,-0.113l-0.122,-0.114l-0.12,-0.117l-0.12,-0.117l-0.117,-0.12l-0.117,-0.12l-0.114,-0.122l-0.113,-0.123l-0.111,-0.125l-0.11,-0.125l-0.108,-0.127l-0.106,-0.128l-0.105,-0.13l-0.103,-0.13l-0.101,-0.132l-0.099,-0.133l-0.098,-0.133l-0.096,-0.135l-0.095,-0.136l-0.092,-0.137l-0.091,-0.138l-0.089,-0.14l-0.088,-0.14l-0.085,-0.141l-0.084,-0.142l-0.082,-0.143l-0.08,-0.144l-0.079,-0.145l-0.077,-0.146l-0.074,-0.146l-0.074,-0.148l-0.071,-0.149l-0.069,-0.149l-0.068,-0.15l-0.066,-0.151l-0.064,-0.152l-0.062,-0.152l-0.06,-0.153l-0.058,-0.154l-0.057,-0.155l-0.054,-0.155l-0.053,-0.156l-0.051,-0.157l-0.049,-0.157l-0.047,-0.158l-0.045,-0.159l-0.043,-0.159l-0.041,-0.16l-0.039,-0.16l-0.038,-0.161l-0.035,-0.161l-0.033,-0.162l-0.032,-0.163l-0.029,-0.163l-0.028,-0.163l-0.025,-0.164l-0.024,-0.164l-0.021,-0.165l-0.02,-0.165l-0.017,-0.165l-0.015,-0.166l-0.014,-0.166l-0.011,-0.166l-0.009,-0.167l-0.008,-0.167l-0.005,-0.167l-0.003,-0.167l-0.001,-0.162l0,-0.514l0.001,-0.2l0.004,-0.206l0.007,-0.205l0.009,-0.205l0.011,-0.204l0.015,-0.203l0.016,-0.203l0.019,-0.201l0.022,-0.202l0.024,-0.2l0.027,-0.2l0.029,-0.199l0.032,-0.198l0.034,-0.198l0.036,-0.197l0.039,-0.195l0.041,-0.195l0.044,-0.195l0.046,-0.193l0.048,-0.192l0.05,-0.191l0.053,-0.191l0.055,-0.19l0.058,-0.188l0.059,-0.188l0.062,-0.186l0.064,-0.186l0.066,-0.184l0.069,-0.184l0.07,-0.182l0.073,-0.181l0.075,-0.181l0.077,-0.179l0.079,-0.177l0.082,-0.177l0.083,-0.176l0.085,-0.174l0.087,-0.173l0.09,-0.172l0.091,-0.171l0.094,-0.169l0.095,-0.169l0.097,-0.167l0.1,-0.165l0.101,-0.164l0.103,-0.163l0.105,-0.162l0.107,-0.16l0.108,-0.159l0.111,-0.158l0.112,-0.156l0.115,-0.154l0.116,-0.153l0.117,-0.152l0.12,-0.151l0.121,-0.148l0.123,-0.148l0.125,-0.146l0.127,-0.144l0.128,-0.142l0.13,-0.142l0.131,-0.139l0.133,-0.138l0.135,-0.137l0.137,-0.135l0.138,-0.133l0.139,-0.131l0.142,-0.13l0.142,-0.128l0.145,-0.127l0.145,-0.125l0.148,-0.123l0.149,-0.121l0.15,-0.12l0.151,-0.117l0.154,-0.116l0.154,-0.115l0.156,-0.112l0.158,-0.111l0.159,-0.108l0.16,-0.107l0.162,-0.105l0.163,-0.103l0.164,-0.101l0.166,-0.1l0.166,-0.097l0.169,-0.095l0.169,-0.094l0.171,-0.091l0.172,-0.09l0.173,-0.087l0.174,-0.085l0.176,-0.084l0.177,-0.081l0.177,-0.079l0.179,-0.077l0.181,-0.075l0.181,-0.073l0.182,-0.07l0.184,-0.069l0.184,-0.066l0.186,-0.064l0.186,-0.062l0.188,-0.059l0.188,-0.058l0.19,-0.055l0.19,-0.053l0.192,-0.05l0.192,-0.048l0.193,-0.046l0.195,-0.044l0.195,-0.041l0.195,-0.039l0.197,-0.036l0.198,-0.034l0.198,-0.032l0.199,-0.029l0.2,-0.027l0.2,-0.024l0.202,-0.022l0.201,-0.019l0.203,-0.016l0.203,-0.015l0.204,-0.011l0.205,-0.009l0.205,-0.007l0.206,-0.004l0.2,-0.001l0.012,0l0.2,0.001Zm-0.362,4l-0.155,0.003l-0.154,0.005l-0.154,0.007l-0.154,0.008l-0.152,0.011l-0.153,0.013l-0.151,0.014l-0.151,0.016l-0.151,0.019l-0.15,0.02l-0.149,0.021l-0.149,0.024l-0.148,0.026l-0.147,0.027l-0.147,0.029l-0.146,0.031l-0.145,0.032l-0.145,0.035l-0.143,0.036l-0.144,0.038l-0.142,0.039l-0.142,0.041l-0.141,0.043l-0.14,0.045l-0.14,0.046l-0.139,0.048l-0.138,0.05l-0.137,0.051l-0.137,0.053l-0.135,0.054l-0.135,0.056l-0.134,0.058l-0.134,0.059l-0.132,0.061l-0.131,0.062l-0.131,0.064l-0.13,0.066l-0.129,0.067l-0.128,0.068l-0.127,0.07l-0.126,0.072l-0.125,0.073l-0.124,0.074l-0.123,0.076l-0.122,0.077l-0.122,0.079l-0.12,0.08l-0.119,0.082l-0.118,0.083l-0.118,0.084l-0.116,0.086l-0.115,0.087l-0.114,0.089l-0.113,0.089l-0.111,0.091l-0.111,0.093l-0.109,0.094l-0.109,0.095l-0.107,0.096l-0.106,0.098l-0.105,0.098l-0.104,0.1l-0.102,0.102l-0.101,0.102l-0.101,0.104l-0.098,0.105l-0.098,0.106l-0.096,0.107l-0.095,0.109l-0.094,0.109l-0.093,0.111l-0.091,0.112l-0.089,0.112l-0.089,0.114l-0.087,0.115l-0.086,0.117l-0.084,0.117l-0.083,0.118l-0.082,0.119l-0.08,0.12l-0.079,0.122l-0.077,0.122l-0.076,0.123l-0.074,0.124l-0.073,0.125l-0.072,0.126l-0.07,0.127l-0.068,0.128l-0.067,0.129l-0.066,0.13l-0.064,0.131l-0.062,0.131l-0.061,0.132l-0.059,0.134l-0.058,0.134l-0.056,0.135l-0.054,0.135l-0.053,0.137l-0.051,0.137l-0.05,0.138l-0.048,0.139l-0.046,0.14l-0.045,0.14l-0.043,0.141l-0.041,0.142l-0.039,0.142l-0.038,0.144l-0.036,0.144l-0.035,0.144l-0.032,0.145l-0.031,0.146l-0.029,0.147l-0.027,0.147l-0.026,0.148l-0.024,0.149l-0.021,0.149l-0.02,0.15l-0.019,0.151l-0.016,0.151l-0.014,0.151l-0.013,0.153l-0.011,0.152l-0.008,0.154l-0.007,0.154l-0.005,0.154l-0.003,0.155l-0.001,0.162l0,0.49l0.001,0.124l0.002,0.118l0.004,0.117l0.005,0.118l0.006,0.117l0.008,0.117l0.01,0.117l0.011,0.117l0.012,0.116l0.013,0.116l0.016,0.116l0.016,0.116l0.018,0.115l0.019,0.115l0.021,0.114l0.022,0.115l0.024,0.114l0.025,0.113l0.026,0.113l0.027,0.113l0.029,0.112l0.031,0.113l0.032,0.111l0.033,0.111l0.034,0.111l0.036,0.11l0.037,0.11l0.038,0.109l0.04,0.109l0.041,0.109l0.042,0.107l0.044,0.108l0.045,0.107l0.046,0.106l0.048,0.105l0.049,0.105l0.05,0.105l0.051,0.104l0.053,0.103l0.054,0.103l0.055,0.102l0.057,0.101l0.057,0.101l0.059,0.099l0.061,0.1l0.061,0.098l0.063,0.098l0.064,0.098l0.065,0.096l0.066,0.096l0.068,0.095l0.069,0.094l0.07,0.093l0.071,0.093l0.072,0.091l0.074,0.091l0.075,0.091l0.076,0.089l0.077,0.088l0.078,0.088l0.08,0.086l0.08,0.086l0.082,0.085l0.083,0.084l0.084,0.083l0.085,0.082l0.086,0.08l0.086,0.08l0.088,0.078l0.088,0.077l0.09,0.076l0.09,0.075l0.091,0.074l0.091,0.072l0.093,0.071l0.093,0.07l0.094,0.069l0.095,0.068l0.096,0.066l0.097,0.065l0.097,0.064l0.098,0.063l0.098,0.061l0.1,0.061l0.099,0.059l0.101,0.057l0.101,0.057l0.102,0.055l0.103,0.054l0.103,0.053l0.104,0.051l0.105,0.05l0.105,0.049l0.105,0.048l0.107,0.046l0.106,0.045l0.108,0.044l0.107,0.042l0.109,0.041l0.109,0.04l0.109,0.038l0.11,0.037l0.11,0.036l0.111,0.034l0.111,0.033l0.111,0.032l0.112,0.031l0.113,0.029l0.113,0.027l0.113,0.026l0.114,0.025l0.113,0.024l0.115,0.022l0.114,0.021l0.115,0.019l0.115,0.018l0.116,0.016l0.116,0.016l0.116,0.013l0.116,0.012l0.117,0.011l0.117,0.01l0.117,0.008l0.117,0.006l0.117,0.005l0.118,0.004l0.118,0.002l0.124,0.001l4.992,0l0.124,-0.001l0.118,-0.002l0.118,-0.004l0.117,-0.005l0.117,-0.006l0.117,-0.008l0.117,-0.01l0.117,-0.011l0.116,-0.012l0.116,-0.013l0.116,-0.016l0.116,-0.016l0.115,-0.018l0.115,-0.019l0.114,-0.021l0.115,-0.022l0.113,-0.024l0.114,-0.025l0.113,-0.026l0.113,-0.027l0.113,-0.029l0.112,-0.031l0.111,-0.032l0.111,-0.033l0.111,-0.034l0.11,-0.036l0.11,-0.037l0.109,-0.038l0.109,-0.04l0.109,-0.041l0.107,-0.042l0.108,-0.044l0.106,-0.045l0.107,-0.046l0.105,-0.048l0.105,-0.049l0.105,-0.05l0.104,-0.051l0.103,-0.053l0.103,-0.054l0.102,-0.055l0.101,-0.057l0.101,-0.057l0.1,-0.059l0.099,-0.061l0.098,-0.061l0.098,-0.063l0.097,-0.064l0.097,-0.065l0.096,-0.066l0.095,-0.068l0.094,-0.069l0.093,-0.07l0.093,-0.071l0.091,-0.072l0.091,-0.074l0.091,-0.075l0.089,-0.076l0.088,-0.077l0.088,-0.078l0.086,-0.08l0.086,-0.08l0.085,-0.082l0.084,-0.083l0.083,-0.084l0.082,-0.085l0.08,-0.086l0.08,-0.086l0.078,-0.088l0.077,-0.088l0.076,-0.09l0.075,-0.09l0.074,-0.091l0.072,-0.091l0.071,-0.093l0.07,-0.093l0.069,-0.094l0.068,-0.095l0.066,-0.096l0.065,-0.096l0.064,-0.098l0.063,-0.098l0.061,-0.098l0.061,-0.1l0.059,-0.099l0.057,-0.101l0.057,-0.101l0.055,-0.102l0.054,-0.103l0.053,-0.103l0.051,-0.104l0.05,-0.105l0.049,-0.105l0.048,-0.105l0.046,-0.106l0.045,-0.107l0.044,-0.108l0.042,-0.107l0.041,-0.109l0.04,-0.109l0.038,-0.109l0.037,-0.11l0.036,-0.11l0.034,-0.111l0.033,-0.111l0.032,-0.111l0.031,-0.113l0.029,-0.112l0.027,-0.113l0.026,-0.113l0.025,-0.114l0.024,-0.113l0.022,-0.115l0.021,-0.114l0.019,-0.115l0.018,-0.115l0.016,-0.116l0.016,-0.116l0.013,-0.116l0.012,-0.116l0.011,-0.117l0.01,-0.117l0.008,-0.117l0.006,-0.117l0.005,-0.117l0.004,-0.118l0.002,-0.118l0.001,-0.124l0,-0.49l-0.001,-0.162l-0.003,-0.155l-0.005,-0.154l-0.007,-0.154l-0.008,-0.154l-0.011,-0.152l-0.013,-0.153l-0.014,-0.151l-0.016,-0.152l-0.019,-0.15l-0.02,-0.15l-0.021,-0.149l-0.024,-0.149l-0.026,-0.148l-0.027,-0.147l-0.029,-0.147l-0.031,-0.146l-0.032,-0.145l-0.035,-0.145l-0.036,-0.144l-0.038,-0.143l-0.039,-0.142l-0.041,-0.142l-0.043,-0.141l-0.045,-0.141l-0.046,-0.139l-0.048,-0.139l-0.05,-0.138l-0.051,-0.137l-0.053,-0.137l-0.054,-0.135l-0.056,-0.135l-0.058,-0.134l-0.059,-0.134l-0.061,-0.132l-0.062,-0.131l-0.064,-0.131l-0.066,-0.13l-0.067,-0.129l-0.068,-0.127l-0.07,-0.128l-0.072,-0.126l-0.073,-0.125l-0.074,-0.124l-0.076,-0.123l-0.077,-0.122l-0.079,-0.122l-0.08,-0.12l-0.082,-0.119l-0.083,-0.118l-0.084,-0.117l-0.086,-0.117l-0.087,-0.115l-0.089,-0.114l-0.089,-0.113l-0.091,-0.111l-0.093,-0.111l-0.094,-0.109l-0.095,-0.109l-0.096,-0.107l-0.098,-0.106l-0.098,-0.105l-0.101,-0.104l-0.101,-0.102l-0.102,-0.102l-0.104,-0.1l-0.105,-0.098l-0.106,-0.098l-0.107,-0.096l-0.109,-0.095l-0.109,-0.094l-0.111,-0.093l-0.111,-0.091l-0.113,-0.089l-0.114,-0.089l-0.115,-0.087l-0.116,-0.086l-0.118,-0.084l-0.118,-0.083l-0.119,-0.082l-0.12,-0.08l-0.122,-0.079l-0.122,-0.077l-0.123,-0.076l-0.124,-0.074l-0.125,-0.073l-0.126,-0.072l-0.127,-0.07l-0.128,-0.068l-0.129,-0.067l-0.13,-0.066l-0.131,-0.064l-0.131,-0.062l-0.132,-0.061l-0.134,-0.059l-0.134,-0.058l-0.135,-0.056l-0.135,-0.054l-0.137,-0.053l-0.137,-0.051l-0.138,-0.05l-0.139,-0.048l-0.139,-0.046l-0.141,-0.045l-0.141,-0.043l-0.142,-0.041l-0.142,-0.039l-0.144,-0.038l-0.143,-0.036l-0.145,-0.035l-0.145,-0.032l-0.146,-0.031l-0.147,-0.029l-0.147,-0.027l-0.148,-0.026l-0.149,-0.024l-0.149,-0.021l-0.15,-0.02l-0.151,-0.019l-0.151,-0.016l-0.151,-0.014l-0.153,-0.013l-0.152,-0.011l-0.154,-0.008l-0.154,-0.007l-0.154,-0.005l-0.155,-0.003l-0.156,-0.001l-0.156,0.001Z"/></g><g id="emoji"><path d="M30,18c0,-7.732 -6.268,-14 -14,-14c0,0 0,0 0,0c-7.732,0 -14,6.268 -14,14c0,0.168 0,0.335 0,0.502c0,3.049 1.211,5.974 3.368,8.13c2.156,2.157 5.081,3.368 8.13,3.368c1.652,0 3.352,0 5.004,0c3.049,0 5.974,-1.211 8.13,-3.368c2.157,-2.156 3.368,-5.081 3.368,-8.13c0,-0.167 0,-0.334 0,-0.502Z" style="fill:#fbc546;"/><path d="M29,18c0,-1.105 -0.895,-2 -2,-2c-1.222,0 -2.778,0 -4,0c-1.105,0 -2,0.895 -2,2c0,1.105 0.895,2 2,2c1.222,0 2.778,0 4,0c1.105,0 2,-0.895 2,-2c0,0 0,0 0,0Z" style="fill:#ed6b44;"/><path d="M11,18c0,-1.105 -0.895,-2 -2,-2c-1.222,0 -2.778,0 -4,0c-1.105,0 -2,0.895 -2,2c0,1.105 0.895,2 2,2c1.222,0 2.778,0 4,0c1.105,0 2,-0.895 2,-2c0,0 0,0 0,0Z" style="fill:#ed6b44;"/><path d="M24.947,13.106c0.494,0.247 0.694,0.847 0.447,1.341c0,0.001 0,0.001 0,0.001c-0.247,0.494 -0.847,0.694 -1.34,0.447c-1.196,-0.598 -3.305,-1.652 -4.501,-2.251c-0.494,-0.247 -0.694,-0.847 -0.447,-1.341c0,-0.001 0,-0.001 0,-0.001c0.247,-0.494 0.847,-0.694 1.34,-0.447c1.196,0.598 3.305,1.652 4.501,2.251Z" style="fill-rule:nonzero;"/><path d="M12.895,11.304c0.247,0.493 0.047,1.093 -0.447,1.34c-1.196,0.598 -3.304,1.652 -4.501,2.25c-0.494,0.247 -1.094,0.047 -1.341,-0.447c-0.001,0 -0.001,0 -0.001,-0.001c-0.247,-0.493 -0.047,-1.093 0.447,-1.34c1.196,-0.598 3.304,-1.652 4.501,-2.25c0.494,-0.247 1.094,-0.047 1.341,0.447c0.001,0 0.001,0 0.001,0.001Z" style="fill-rule:nonzero;"/><path d="M21.427,18.494l0.084,0.409l-2.097,2.097l2.097,2.097l-0.084,0.409c0,0 -4.157,1.663 -6.057,2.423c-0.512,0.205 -1.093,-0.044 -1.298,-0.557c0,0 0,0 0,-0.001c-0.206,-0.512 0.044,-1.094 0.557,-1.299c1.323,-0.53 3.592,-1.437 3.592,-1.437l-1.635,-1.635l1.635,-1.635c0,0 -2.269,-0.907 -3.592,-1.437c-0.513,-0.205 -0.763,-0.787 -0.557,-1.299c0,-0.001 0,-0.001 0,-0.001c0.205,-0.513 0.786,-0.762 1.298,-0.557c1.9,0.76 6.057,2.423 6.057,2.423Z" style="fill:#593604;fill-rule:nonzero;"/></g></g></svg>