<?xml version="1.0" encoding="UTF-8" standalone="no"?>
<!DOCTYPE svg PUBLIC "-//W3C//DTD SVG 1.1//EN" "http://www.w3.org/Graphics/SVG/1.1/DTD/svg11.dtd">
<svg width="100%" height="100%" viewBox="0 0 32 32" version="1.1" xmlns="http://www.w3.org/2000/svg" xmlns:xlink="http://www.w3.org/1999/xlink" xml:space="preserve" xmlns:serif="http://www.serif.com/" style="fill-rule:evenodd;clip-rule:evenodd;stroke-linecap:round;stroke-miterlimit:1.5;">
    <rect id="blushing" x="0" y="0" width="32" height="32" style="fill:none;"/>
    <clipPath id="_clip1">
        <rect x="0" y="0" width="32" height="32"/>
    </clipPath>
    <g clip-path="url(#_clip1)">
        <g id="outline">
            <path d="M16,0c4.243,0 8.313,1.686 11.314,4.686c3,3.001 4.686,7.071 4.686,11.314l0,2c0,7.732 -6.268,14 -14,14c-1.325,0 -2.675,0 -4,0c-7.732,0 -14,-6.268 -14,-14l0,-2c0,-8.837 7.163,-16 16,-16l0,0Z"/>
        </g>
        <g id="emoji">
            <path d="M30,16c0,-3.713 -1.475,-7.274 -4.101,-9.899c-2.625,-2.626 -6.186,-4.101 -9.899,-4.101l0,0c-7.732,0 -14,6.268 -14,14l0,2c0,6.627 5.373,12 12,12l4,0c6.627,0 12,-5.373 12,-12l0,-2Z" style="fill:#fbc546;"/>
            <path d="M5.784,14.717c0.188,0.187 0.442,0.293 0.707,0.293c0.265,0 0.519,-0.106 0.706,-0.293c0.007,-0.007 0.011,-0.01 0.011,-0.01c0.608,-0.608 1.432,-0.95 2.292,-0.95c0.86,0 1.684,0.342 2.292,0.95c0,0 0.004,0.003 0.011,0.01c0.39,0.39 1.022,0.39 1.413,0c0,0 0,0 0,-0.001c0.391,-0.39 0.391,-1.023 0,-1.414c-0.006,-0.006 -0.009,-0.01 -0.009,-0.01c-0.983,-0.983 -2.317,-1.535 -3.707,-1.535c-1.39,0 -2.724,0.552 -3.707,1.535c0,0 -0.003,0.004 -0.01,0.011c-0.187,0.187 -0.293,0.441 -0.293,0.706c0,0.265 0.106,0.519 0.293,0.707l0.001,0.001Z"/>
            <path d="M26.216,14.717c-0.188,0.187 -0.442,0.293 -0.707,0.293c-0.265,0 -0.519,-0.106 -0.706,-0.293c-0.007,-0.007 -0.011,-0.01 -0.011,-0.01c-0.608,-0.608 -1.432,-0.95 -2.292,-0.95c-0.86,0 -1.684,0.342 -2.292,0.95c0,0 -0.004,0.003 -0.011,0.01c-0.39,0.39 -1.022,0.39 -1.413,0c0,0 0,0 0,-0.001c-0.391,-0.39 -0.391,-1.023 0,-1.414c0.006,-0.006 0.009,-0.01 0.009,-0.01c0.983,-0.983 2.317,-1.535 3.707,-1.535c1.39,0 2.724,0.552 3.707,1.535c0,0 0.003,0.004 0.01,0.011c0.187,0.187 0.293,0.441 0.293,0.706c0,0.265 -0.106,0.519 -0.293,0.707l-0.001,0.001Z"/>
            <path d="M29,19c0,-1.105 -0.895,-2 -2,-2c-1.222,0 -2.778,0 -4,0c-1.105,0 -2,0.895 -2,2c0,1.105 0.895,2 2,2c1.222,0 2.778,0 4,0c1.105,0 2,-0.895 2,-2Z" style="fill:#ed6b44;"/>
            <path d="M11,19c0,-1.105 -0.895,-2 -2,-2c-1.222,0 -2.778,0 -4,0c-1.105,0 -2,0.895 -2,2c0,1.105 0.895,2 2,2c1.222,0 2.778,0 4,0c1.105,0 2,-0.895 2,-2Z" style="fill:#ed6b44;"/>
            <path d="M10,20c0,0 0.562,0.75 1.2,1.6c1.133,1.511 2.911,2.4 4.8,2.4c1.889,0 3.667,-0.889 4.8,-2.4c0.638,-0.85 1.2,-1.6 1.2,-1.6" style="fill:none;stroke:#593604;stroke-width:2px;"/>
        </g>
    </g>
</svg>
