<?xml version="1.0" encoding="UTF-8" standalone="no"?>
<!DOCTYPE svg PUBLIC "-//W3C//DTD SVG 1.1//EN" "http://www.w3.org/Graphics/SVG/1.1/DTD/svg11.dtd">
<svg width="100%" height="100%" viewBox="0 0 32 32" version="1.1" xmlns="http://www.w3.org/2000/svg" xmlns:xlink="http://www.w3.org/1999/xlink" xml:space="preserve" xmlns:serif="http://www.serif.com/" style="fill-rule:evenodd;clip-rule:evenodd;stroke-linejoin:round;stroke-miterlimit:2;">
    <rect id="blush_kiss" x="0" y="0" width="32" height="32" style="fill:none;"/>
    <clipPath id="_clip1">
        <rect x="0" y="0" width="32" height="32"/>
    </clipPath>
    <g clip-path="url(#_clip1)">
        <g id="outline">
            <path d="M16,2c8.837,0 16,7.163 16,16l0,0.502c0,3.58 -1.422,7.013 -3.953,9.545c-2.532,2.531 -5.965,3.953 -9.545,3.953c-1.652,0 -3.352,0 -5.004,0c-3.58,0 -7.013,-1.422 -9.545,-3.953c-2.531,-2.532 -3.953,-5.965 -3.953,-9.545c0,-0.167 0,-0.334 0,-0.502c0,-8.837 7.163,-16 16,-16l0,0Z"/>
        </g>
        <g id="emoji">
            <path d="M30,18c0,-7.732 -6.268,-14 -14,-14c0,0 0,0 0,0c-7.732,0 -14,6.268 -14,14c0,0.168 0,0.335 0,0.502c0,3.049 1.211,5.974 3.368,8.13c2.156,2.157 5.081,3.368 8.13,3.368l5.004,0c3.049,0 5.974,-1.211 8.13,-3.368c2.157,-2.156 3.368,-5.081 3.368,-8.13c0,-0.167 0,-0.334 0,-0.502Z" style="fill:#fbc546;"/>
            <path d="M18.221,19.365l-3.592,-1.437c-0.513,-0.204 -0.762,-0.787 -0.557,-1.299c0.204,-0.513 0.787,-0.762 1.299,-0.557l5,2c0.312,0.124 0.541,0.398 0.609,0.727c0.067,0.329 -0.035,0.67 -0.273,0.908l-1.293,1.293l1.293,1.293c0.238,0.238 0.34,0.579 0.273,0.908c-0.068,0.329 -0.297,0.603 -0.609,0.727l-5,2c-0.512,0.205 -1.095,-0.044 -1.299,-0.557c-0.205,-0.512 0.044,-1.095 0.557,-1.299l3.592,-1.437l-0.928,-0.928c-0.383,-0.402 -0.383,-1.012 0,-1.414l0.928,-0.928Z" style="fill:#593604;"/>
            <path d="M29,18c0,-1.105 -0.895,-2 -2,-2c-1.222,0 -2.778,0 -4,0c-1.105,0 -2,0.895 -2,2c0,1.105 0.895,2 2,2c1.222,0 2.778,0 4,0c1.105,0 2,-0.895 2,-2Z" style="fill:#ed6b44;"/>
            <path d="M11,18c0,-1.105 -0.895,-2 -2,-2c-1.222,0 -2.778,0 -4,0c-1.105,0 -2,0.895 -2,2c0,1.105 0.895,2 2,2c1.222,0 2.778,0 4,0c1.105,0 2,-0.895 2,-2Z" style="fill:#ed6b44;"/>
            <path d="M24.947,13.106c0.494,0.247 0.694,0.847 0.447,1.341c0,0.001 0,0.001 0,0.001c-0.247,0.494 -0.847,0.694 -1.34,0.447c-1.196,-0.598 -3.305,-1.652 -4.501,-2.251c-0.494,-0.247 -0.694,-0.847 -0.447,-1.341c0,-0.001 0,-0.001 0,-0.001c0.247,-0.494 0.847,-0.694 1.34,-0.447c1.196,0.598 3.305,1.652 4.501,2.251Z" style="fill-rule:nonzero;"/>
            <path d="M12.895,11.304c0.247,0.493 0.047,1.093 -0.447,1.34c-1.196,0.598 -3.304,1.652 -4.501,2.25c-0.494,0.247 -1.094,0.047 -1.341,-0.447c-0.001,0 -0.001,0 -0.001,-0.001c-0.247,-0.493 -0.047,-1.093 0.447,-1.34c1.196,-0.598 3.304,-1.652 4.501,-2.25c0.494,-0.247 1.094,-0.047 1.341,0.447c0.001,0 0.001,0 0.001,0.001Z" style="fill-rule:nonzero;"/>
        </g>
    </g>
</svg>
