<?xml version="1.0" encoding="UTF-8" standalone="no"?>
<!DOCTYPE svg PUBLIC "-//W3C//DTD SVG 1.1//EN" "http://www.w3.org/Graphics/SVG/1.1/DTD/svg11.dtd">
<svg width="100%" height="100%" viewBox="0 0 32 32" version="1.1" xmlns="http://www.w3.org/2000/svg" xmlns:xlink="http://www.w3.org/1999/xlink" xml:space="preserve" xmlns:serif="http://www.serif.com/" style="fill-rule:evenodd;clip-rule:evenodd;stroke-linejoin:round;stroke-miterlimit:2;">
    <rect id="embarrassed" x="0" y="0" width="32" height="32" style="fill:none;"/>
    <clipPath id="_clip1">
        <rect x="0" y="0" width="32" height="32"/>
    </clipPath>
    <g clip-path="url(#_clip1)">
        <g id="outline">
            <path d="M16,0c4.243,0 8.313,1.686 11.314,4.686c3,3.001 4.686,7.071 4.686,11.314c0,1.007 0,2.014 0,3c0,7.18 -5.82,13 -13,13c-1.972,0 -4.028,0 -6,0c-7.18,0 -13,-5.82 -13,-13l0,-3c0,-8.837 7.163,-16 16,-16l0,0Z"/>
        </g>
        <g id="emoji">
            <path d="M30,16c0,-3.713 -1.475,-7.274 -4.101,-9.899c-2.625,-2.626 -6.186,-4.101 -9.899,-4.101l0,0c-7.732,0 -14,6.268 -14,14l0,3c0,6.075 4.925,11 11,11l6,0c6.075,0 11,-4.925 11,-11l0,-3Z" style="fill:#fbc546;"/>
            <path d="M29,20c0,-1.105 -0.895,-2 -2,-2c-1.222,0 -2.778,0 -4,0c-1.105,0 -2,0.895 -2,2c0,1.105 0.895,2 2,2c1.222,0 2.778,0 4,0c1.105,0 2,-0.895 2,-2Z" style="fill:#ed6b44;"/>
            <path d="M11,20c0,-1.105 -0.895,-2 -2,-2c-1.222,0 -2.778,0 -4,0c-1.105,0 -2,0.895 -2,2c0,1.105 0.895,2 2,2c1.222,0 2.778,0 4,0c1.105,0 2,-0.895 2,-2Z" style="fill:#ed6b44;"/>
            <g>
                <path d="M9.502,19c1.193,0 2.337,-0.474 3.181,-1.317c0.843,-0.844 1.317,-1.988 1.317,-3.181c0,-0.333 0,-0.669 0,-1.002c0,-2.485 -2.015,-4.5 -4.5,-4.5c-0.001,0 -0.001,0 -0.002,0c-1.193,0 -2.337,0.474 -3.181,1.317c-0.843,0.844 -1.317,1.988 -1.317,3.181c0,0.333 0,0.669 0,1.002c0,2.485 2.015,4.5 4.5,4.5c0.001,0 0.001,0 0.002,0Z" style="fill:#fff;"/>
                <path d="M8,13.99c0,-1.099 0.891,-1.99 1.99,-1.99c0.007,0 0.013,0 0.02,0c1.099,0 1.99,0.891 1.99,1.99c0,0.001 0,0.002 0,0.003c0,1.099 -0.891,1.99 -1.99,1.99c-0.007,0 -0.013,0 -0.02,0c-1.099,0 -1.99,-0.891 -1.99,-1.99c0,-0.001 0,-0.002 0,-0.003Z"/>
                <path d="M22.498,19c-1.193,0 -2.337,-0.474 -3.181,-1.317c-0.843,-0.844 -1.317,-1.988 -1.317,-3.181c0,-0.334 0,-0.67 0,-1.004c0,-1.193 0.474,-2.337 1.317,-3.181c0.844,-0.843 1.988,-1.317 3.181,-1.317c0.001,0 0.003,0 0.004,0c1.193,0 2.337,0.474 3.181,1.317c0.843,0.844 1.317,1.988 1.317,3.181c0,0.333 0,0.669 0,1.002c0,2.485 -2.015,4.5 -4.5,4.5c-0.001,0 -0.001,0 -0.002,0Z" style="fill:#fff;"/>
                <path d="M24,13.99c0,-1.099 -0.891,-1.99 -1.99,-1.99c-0.007,0 -0.013,0 -0.02,0c-1.099,0 -1.99,0.891 -1.99,1.99c0,0.001 0,0.002 0,0.003c0,1.099 0.891,1.99 1.99,1.99c0.007,0 0.013,0 0.02,0c1.099,0 1.99,-0.891 1.99,-1.99c0,-0.001 0,-0.002 0,-0.003Z"/>
            </g>
            <path d="M20,23c0.552,0 1,0.448 1,1c0,0.552 -0.448,1 -1,1l-8,0c-0.552,0 -1,-0.448 -1,-1c0,-0.552 0.448,-1 1,-1l8,0Z" style="fill:#593604;"/>
        </g>
    </g>
</svg>
