<?xml version="1.0" encoding="UTF-8" standalone="no"?><!DOCTYPE svg PUBLIC "-//W3C//DTD SVG 1.1//EN" "http://www.w3.org/Graphics/SVG/1.1/DTD/svg11.dtd"><svg width="100%" height="100%" viewBox="0 0 32 32" version="1.1" xmlns="http://www.w3.org/2000/svg" xmlns:xlink="http://www.w3.org/1999/xlink" xml:space="preserve" xmlns:serif="http://www.serif.com/" style="fill-rule:evenodd;clip-rule:evenodd;stroke-linecap:round;stroke-linejoin:round;stroke-miterlimit:1.5;"><rect id="headpats" x="0" y="0.008" width="32" height="32" style="fill:none;"/><clipPath id="_clip1"><rect x="0" y="0.008" width="32" height="32"/></clipPath><g clip-path="url(#_clip1)"><g id="outline"><path d="M28,20.008c0,-3.182 -1.264,-6.234 -3.515,-8.485c-2.25,-2.25 -5.302,-3.515 -8.485,-3.515c0,0 0,0 0,0c-3.183,0 -6.235,1.265 -8.485,3.515c-2.251,2.251 -3.515,5.303 -3.515,8.485c0,0.676 0,1.346 0,2c0,4.419 3.582,8 8,8c2.574,0 5.426,0 8,0c4.418,0 8,-3.581 8,-8c0,-0.654 0,-1.324 0,-2Z"/><path d="M16.174,6.009l0.174,0.004l0.173,0.005l0.173,0.008l0.173,0.009l0.173,0.012l0.172,0.014l0.172,0.016l0.171,0.018l0.171,0.02l0.171,0.022l0.17,0.025l0.17,0.026l0.17,0.029l0.169,0.03l0.168,0.033l0.168,0.034l0.167,0.037l0.167,0.039l0.167,0.041l0.165,0.042l0.165,0.045l0.165,0.047l0.164,0.048l0.163,0.051l0.163,0.053l0.161,0.055l0.161,0.056l0.161,0.059l0.16,0.06l0.158,0.063l0.159,0.064l0.157,0.066l0.156,0.068l0.156,0.071l0.155,0.072l0.154,0.074l0.153,0.075l0.152,0.078l0.151,0.08l0.151,0.081l0.149,0.083l0.148,0.085l0.148,0.087l0.146,0.089l0.146,0.091l0.144,0.092l0.143,0.094l0.142,0.096l0.141,0.098l0.14,0.1l0.139,0.101l0.138,0.104l0.136,0.105l0.136,0.106l0.134,0.109l0.133,0.11l0.131,0.112l0.13,0.114l0.13,0.115l0.127,0.117l0.127,0.119l0.125,0.121l0.124,0.122l0.122,0.124l0.12,0.125l0.119,0.126l0.117,0.128l0.116,0.129l0.113,0.13l0.112,0.132l0.11,0.133l0.109,0.134l0.107,0.135l0.105,0.137l0.103,0.137l0.101,0.139l0.1,0.14l0.098,0.141l0.096,0.142l0.094,0.143l0.093,0.145l0.09,0.145l0.089,0.146l0.087,0.148l0.085,0.148l0.083,0.15l0.082,0.15l0.079,0.151l0.078,0.152l0.076,0.153l0.074,0.154l0.072,0.155l0.07,0.156l0.068,0.157l0.066,0.157l0.065,0.158l0.062,0.159l0.061,0.159l0.058,0.161l0.057,0.161l0.055,0.162l0.052,0.162l0.051,0.164l0.049,0.163l0.046,0.165l0.045,0.165l0.043,0.166l0.041,0.166l0.038,0.167l0.037,0.167l0.035,0.168l0.032,0.169l0.031,0.169l0.028,0.169l0.027,0.17l0.024,0.17l0.022,0.171l0.02,0.171l0.019,0.172l0.016,0.172l0.013,0.172l0.012,0.172l0.01,0.173l0.007,0.174l0.006,0.173l0.003,0.173l0.001,0.168l0,2.013l-0.001,0.122l-0.002,0.128l-0.004,0.129l-0.006,0.127l-0.007,0.127l-0.009,0.128l-0.01,0.126l-0.012,0.126l-0.014,0.126l-0.015,0.126l-0.017,0.124l-0.018,0.125l-0.02,0.124l-0.021,0.123l-0.023,0.123l-0.024,0.123l-0.026,0.122l-0.027,0.121l-0.029,0.121l-0.03,0.12l-0.032,0.12l-0.033,0.119l-0.034,0.118l-0.036,0.118l-0.037,0.118l-0.039,0.116l-0.04,0.116l-0.041,0.116l-0.043,0.115l-0.044,0.113l-0.046,0.114l-0.047,0.112l-0.048,0.112l-0.049,0.111l-0.051,0.111l-0.052,0.11l-0.054,0.109l-0.054,0.108l-0.056,0.107l-0.057,0.107l-0.058,0.106l-0.06,0.106l-0.061,0.104l-0.062,0.103l-0.063,0.103l-0.065,0.102l-0.065,0.101l-0.067,0.1l-0.068,0.099l-0.069,0.099l-0.07,0.097l-0.072,0.097l-0.072,0.095l-0.074,0.095l-0.074,0.094l-0.076,0.093l-0.077,0.092l-0.078,0.091l-0.079,0.09l-0.08,0.09l-0.081,0.088l-0.083,0.087l-0.083,0.086l-0.084,0.085l-0.085,0.085l-0.086,0.083l-0.088,0.082l-0.088,0.081l-0.089,0.08l-0.09,0.079l-0.091,0.078l-0.092,0.077l-0.093,0.076l-0.094,0.075l-0.095,0.073l-0.096,0.073l-0.096,0.071l-0.098,0.07l-0.098,0.069l-0.1,0.068l-0.1,0.067l-0.101,0.066l-0.101,0.064l-0.103,0.063l-0.104,0.062l-0.104,0.061l-0.105,0.06l-0.106,0.058l-0.107,0.057l-0.107,0.056l-0.108,0.055l-0.11,0.053l-0.109,0.052l-0.111,0.051l-0.111,0.05l-0.112,0.048l-0.113,0.047l-0.113,0.045l-0.114,0.044l-0.115,0.043l-0.115,0.041l-0.116,0.041l-0.117,0.038l-0.117,0.037l-0.118,0.036l-0.119,0.035l-0.119,0.033l-0.119,0.031l-0.121,0.031l-0.12,0.028l-0.122,0.027l-0.122,0.026l-0.122,0.025l-0.123,0.022l-0.124,0.022l-0.124,0.019l-0.124,0.018l-0.125,0.017l-0.125,0.015l-0.126,0.014l-0.126,0.012l-0.127,0.01l-0.127,0.009l-0.127,0.007l-0.128,0.006l-0.128,0.004l-0.128,0.003l-0.123,0l-8.012,0l-0.123,0l-0.128,-0.003l-0.128,-0.004l-0.128,-0.006l-0.127,-0.007l-0.127,-0.009l-0.127,-0.01l-0.126,-0.012l-0.126,-0.014l-0.125,-0.015l-0.125,-0.017l-0.124,-0.018l-0.124,-0.019l-0.124,-0.022l-0.123,-0.022l-0.122,-0.025l-0.122,-0.026l-0.122,-0.027l-0.12,-0.028l-0.121,-0.031l-0.119,-0.031l-0.119,-0.033l-0.119,-0.035l-0.118,-0.036l-0.117,-0.037l-0.117,-0.038l-0.116,-0.041l-0.115,-0.041l-0.115,-0.043l-0.114,-0.044l-0.113,-0.045l-0.113,-0.047l-0.112,-0.048l-0.111,-0.05l-0.111,-0.051l-0.109,-0.052l-0.11,-0.053l-0.108,-0.055l-0.107,-0.056l-0.107,-0.057l-0.106,-0.058l-0.105,-0.06l-0.104,-0.061l-0.104,-0.062l-0.103,-0.063l-0.101,-0.064l-0.101,-0.066l-0.1,-0.067l-0.1,-0.068l-0.098,-0.069l-0.098,-0.07l-0.096,-0.071l-0.096,-0.073l-0.095,-0.073l-0.094,-0.075l-0.093,-0.076l-0.092,-0.077l-0.091,-0.078l-0.09,-0.079l-0.089,-0.08l-0.088,-0.081l-0.088,-0.082l-0.086,-0.083l-0.085,-0.085l-0.084,-0.085l-0.083,-0.086l-0.083,-0.087l-0.081,-0.088l-0.08,-0.09l-0.079,-0.09l-0.078,-0.091l-0.077,-0.092l-0.076,-0.093l-0.074,-0.094l-0.074,-0.095l-0.072,-0.095l-0.072,-0.097l-0.07,-0.097l-0.069,-0.099l-0.068,-0.099l-0.067,-0.1l-0.065,-0.101l-0.065,-0.102l-0.063,-0.103l-0.062,-0.103l-0.061,-0.104l-0.06,-0.106l-0.058,-0.106l-0.057,-0.107l-0.056,-0.107l-0.054,-0.108l-0.054,-0.109l-0.052,-0.11l-0.051,-0.111l-0.049,-0.111l-0.048,-0.112l-0.047,-0.112l-0.046,-0.114l-0.044,-0.113l-0.043,-0.115l-0.041,-0.116l-0.04,-0.116l-0.039,-0.116l-0.037,-0.118l-0.036,-0.118l-0.034,-0.118l-0.033,-0.119l-0.032,-0.12l-0.03,-0.12l-0.029,-0.121l-0.027,-0.121l-0.026,-0.122l-0.024,-0.123l-0.023,-0.123l-0.021,-0.123l-0.02,-0.124l-0.018,-0.125l-0.017,-0.124l-0.015,-0.126l-0.014,-0.126l-0.012,-0.126l-0.01,-0.126l-0.009,-0.128l-0.007,-0.127l-0.006,-0.127l-0.004,-0.129l-0.002,-0.128l-0.001,-0.122l0,-2.013l0.001,-0.168l0.003,-0.173l0.006,-0.173l0.007,-0.174l0.01,-0.173l0.012,-0.172l0.013,-0.172l0.016,-0.172l0.019,-0.172l0.02,-0.171l0.022,-0.171l0.024,-0.17l0.027,-0.17l0.028,-0.169l0.031,-0.169l0.032,-0.169l0.035,-0.168l0.037,-0.167l0.039,-0.167l0.04,-0.166l0.043,-0.166l0.045,-0.165l0.046,-0.165l0.049,-0.163l0.051,-0.164l0.052,-0.162l0.055,-0.162l0.057,-0.161l0.058,-0.161l0.061,-0.159l0.062,-0.159l0.065,-0.158l0.066,-0.158l0.068,-0.156l0.07,-0.156l0.072,-0.155l0.074,-0.154l0.076,-0.153l0.078,-0.152l0.079,-0.151l0.082,-0.15l0.083,-0.15l0.085,-0.148l0.087,-0.148l0.089,-0.146l0.09,-0.145l0.093,-0.145l0.094,-0.143l0.096,-0.142l0.098,-0.141l0.1,-0.14l0.101,-0.139l0.103,-0.137l0.105,-0.137l0.107,-0.135l0.109,-0.134l0.11,-0.133l0.112,-0.132l0.113,-0.13l0.116,-0.129l0.117,-0.128l0.119,-0.126l0.12,-0.125l0.122,-0.124l0.124,-0.122l0.125,-0.121l0.127,-0.119l0.127,-0.117l0.13,-0.115l0.13,-0.114l0.131,-0.112l0.133,-0.11l0.134,-0.109l0.136,-0.106l0.136,-0.105l0.138,-0.104l0.139,-0.101l0.139,-0.1l0.142,-0.098l0.142,-0.096l0.143,-0.094l0.144,-0.092l0.146,-0.091l0.146,-0.089l0.148,-0.087l0.148,-0.085l0.149,-0.083l0.151,-0.081l0.151,-0.08l0.152,-0.078l0.153,-0.075l0.154,-0.074l0.155,-0.072l0.156,-0.07l0.156,-0.069l0.157,-0.066l0.159,-0.064l0.158,-0.063l0.16,-0.06l0.161,-0.059l0.161,-0.056l0.161,-0.055l0.163,-0.053l0.163,-0.051l0.164,-0.048l0.165,-0.047l0.165,-0.045l0.165,-0.042l0.167,-0.041l0.167,-0.039l0.167,-0.037l0.168,-0.034l0.168,-0.033l0.169,-0.03l0.17,-0.029l0.17,-0.026l0.17,-0.025l0.171,-0.022l0.171,-0.02l0.171,-0.018l0.172,-0.016l0.172,-0.014l0.173,-0.012l0.173,-0.009l0.173,-0.008l0.173,-0.005l0.174,-0.004l0.174,-0.001l0.174,0.001Zm-0.298,4l-0.124,0.002l-0.124,0.004l-0.124,0.006l-0.123,0.007l-0.124,0.008l-0.123,0.01l-0.122,0.011l-0.123,0.013l-0.122,0.015l-0.122,0.016l-0.122,0.017l-0.121,0.019l-0.121,0.02l-0.121,0.022l-0.12,0.023l-0.12,0.025l-0.119,0.026l-0.12,0.028l-0.118,0.029l-0.119,0.03l-0.118,0.032l-0.117,0.034l-0.117,0.035l-0.117,0.036l-0.116,0.037l-0.116,0.04l-0.115,0.04l-0.114,0.042l-0.114,0.043l-0.114,0.045l-0.113,0.046l-0.112,0.047l-0.112,0.049l-0.111,0.05l-0.111,0.051l-0.11,0.053l-0.109,0.054l-0.109,0.056l-0.108,0.056l-0.107,0.059l-0.107,0.059l-0.106,0.061l-0.105,0.062l-0.105,0.063l-0.104,0.065l-0.103,0.066l-0.102,0.068l-0.102,0.068l-0.1,0.07l-0.1,0.071l-0.099,0.073l-0.099,0.073l-0.097,0.075l-0.097,0.077l-0.096,0.077l-0.094,0.079l-0.094,0.08l-0.093,0.081l-0.093,0.082l-0.091,0.084l-0.09,0.085l-0.09,0.086l-0.088,0.087l-0.087,0.089l-0.086,0.089l-0.085,0.09l-0.084,0.092l-0.083,0.092l-0.081,0.093l-0.08,0.094l-0.078,0.095l-0.078,0.096l-0.076,0.096l-0.075,0.098l-0.074,0.098l-0.072,0.099l-0.071,0.1l-0.07,0.101l-0.069,0.101l-0.067,0.103l-0.066,0.103l-0.065,0.103l-0.063,0.105l-0.063,0.106l-0.06,0.105l-0.06,0.107l-0.058,0.107l-0.057,0.109l-0.055,0.108l-0.054,0.11l-0.053,0.11l-0.052,0.11l-0.05,0.111l-0.048,0.112l-0.048,0.113l-0.046,0.112l-0.044,0.114l-0.044,0.114l-0.041,0.115l-0.041,0.115l-0.039,0.115l-0.038,0.116l-0.036,0.117l-0.035,0.117l-0.033,0.117l-0.032,0.118l-0.03,0.119l-0.03,0.119l-0.027,0.119l-0.026,0.119l-0.025,0.12l-0.023,0.121l-0.022,0.12l-0.02,0.121l-0.019,0.122l-0.018,0.121l-0.016,0.122l-0.014,0.122l-0.013,0.123l-0.011,0.123l-0.01,0.123l-0.009,0.123l-0.007,0.124l-0.005,0.123l-0.004,0.124l-0.002,0.124l-0.001,0.131l0,1.987l0.001,0.084l0.001,0.078l0.002,0.078l0.004,0.077l0.004,0.077l0.006,0.076l0.006,0.076l0.007,0.076l0.008,0.076l0.009,0.075l0.01,0.075l0.011,0.075l0.012,0.074l0.013,0.074l0.013,0.073l0.015,0.074l0.015,0.072l0.017,0.073l0.017,0.073l0.018,0.071l0.019,0.072l0.019,0.071l0.021,0.071l0.021,0.07l0.023,0.07l0.023,0.07l0.024,0.069l0.024,0.069l0.026,0.069l0.027,0.068l0.027,0.068l0.028,0.067l0.029,0.067l0.029,0.067l0.03,0.066l0.032,0.065l0.032,0.066l0.032,0.065l0.034,0.064l0.034,0.064l0.035,0.063l0.036,0.063l0.036,0.063l0.038,0.062l0.037,0.062l0.039,0.061l0.039,0.061l0.041,0.06l0.04,0.059l0.042,0.059l0.042,0.059l0.043,0.058l0.044,0.058l0.044,0.057l0.045,0.056l0.045,0.056l0.047,0.055l0.047,0.055l0.047,0.055l0.048,0.053l0.049,0.053l0.05,0.053l0.05,0.052l0.05,0.051l0.052,0.051l0.052,0.05l0.052,0.049l0.053,0.049l0.054,0.048l0.054,0.048l0.055,0.047l0.055,0.046l0.056,0.046l0.057,0.045l0.057,0.044l0.057,0.043l0.059,0.043l0.058,0.042l0.059,0.042l0.06,0.041l0.06,0.04l0.061,0.039l0.061,0.039l0.061,0.038l0.062,0.037l0.063,0.037l0.063,0.035l0.064,0.035l0.063,0.035l0.065,0.033l0.065,0.033l0.065,0.032l0.066,0.031l0.066,0.03l0.066,0.03l0.067,0.029l0.068,0.028l0.067,0.027l0.068,0.026l0.069,0.026l0.069,0.025l0.069,0.024l0.07,0.023l0.07,0.022l0.07,0.021l0.071,0.021l0.071,0.02l0.072,0.019l0.072,0.018l0.072,0.017l0.073,0.016l0.073,0.015l0.073,0.015l0.074,0.014l0.074,0.012l0.074,0.012l0.074,0.011l0.075,0.01l0.076,0.009l0.075,0.008l0.076,0.007l0.076,0.007l0.077,0.005l0.077,0.004l0.077,0.004l0.077,0.002l0.078,0.002l0.084,0l7.988,0l0.084,0l0.078,-0.002l0.077,-0.002l0.077,-0.004l0.077,-0.004l0.077,-0.005l0.076,-0.007l0.076,-0.007l0.075,-0.008l0.076,-0.009l0.075,-0.01l0.074,-0.011l0.074,-0.012l0.074,-0.012l0.074,-0.014l0.073,-0.015l0.073,-0.015l0.073,-0.016l0.072,-0.017l0.072,-0.018l0.072,-0.019l0.071,-0.02l0.071,-0.021l0.07,-0.021l0.07,-0.022l0.07,-0.023l0.069,-0.024l0.069,-0.025l0.069,-0.026l0.068,-0.026l0.067,-0.027l0.068,-0.028l0.067,-0.029l0.066,-0.03l0.066,-0.03l0.066,-0.031l0.065,-0.032l0.065,-0.033l0.065,-0.033l0.063,-0.035l0.064,-0.035l0.063,-0.035l0.063,-0.037l0.062,-0.037l0.061,-0.038l0.061,-0.039l0.061,-0.039l0.06,-0.04l0.06,-0.041l0.059,-0.042l0.058,-0.042l0.059,-0.043l0.057,-0.043l0.057,-0.044l0.057,-0.045l0.056,-0.046l0.055,-0.046l0.055,-0.047l0.054,-0.048l0.054,-0.048l0.053,-0.049l0.052,-0.049l0.052,-0.05l0.052,-0.051l0.05,-0.051l0.05,-0.052l0.05,-0.053l0.049,-0.053l0.048,-0.053l0.047,-0.055l0.047,-0.055l0.047,-0.055l0.045,-0.056l0.045,-0.056l0.044,-0.057l0.044,-0.058l0.043,-0.058l0.042,-0.059l0.042,-0.059l0.04,-0.059l0.041,-0.06l0.039,-0.061l0.039,-0.061l0.037,-0.062l0.038,-0.062l0.036,-0.063l0.036,-0.063l0.035,-0.063l0.034,-0.064l0.034,-0.064l0.032,-0.065l0.032,-0.066l0.032,-0.065l0.03,-0.066l0.029,-0.067l0.029,-0.067l0.028,-0.067l0.027,-0.068l0.027,-0.068l0.026,-0.069l0.024,-0.069l0.024,-0.069l0.023,-0.07l0.023,-0.07l0.021,-0.07l0.021,-0.071l0.019,-0.071l0.019,-0.072l0.018,-0.071l0.017,-0.073l0.017,-0.073l0.015,-0.072l0.015,-0.074l0.013,-0.073l0.013,-0.074l0.012,-0.074l0.011,-0.075l0.01,-0.075l0.009,-0.075l0.008,-0.076l0.007,-0.076l0.006,-0.076l0.006,-0.076l0.004,-0.077l0.004,-0.077l0.002,-0.078l0.001,-0.078l0.001,-0.084l0,-1.987l-0.001,-0.131l-0.002,-0.124l-0.004,-0.124l-0.005,-0.123l-0.007,-0.124l-0.009,-0.123l-0.01,-0.123l-0.011,-0.123l-0.013,-0.123l-0.014,-0.122l-0.016,-0.122l-0.018,-0.121l-0.019,-0.122l-0.02,-0.121l-0.022,-0.12l-0.023,-0.121l-0.025,-0.119l-0.026,-0.12l-0.028,-0.119l-0.029,-0.119l-0.03,-0.119l-0.032,-0.118l-0.033,-0.117l-0.035,-0.117l-0.036,-0.117l-0.038,-0.116l-0.039,-0.115l-0.041,-0.115l-0.041,-0.115l-0.044,-0.114l-0.044,-0.113l-0.046,-0.113l-0.048,-0.113l-0.048,-0.112l-0.05,-0.111l-0.052,-0.11l-0.053,-0.111l-0.054,-0.109l-0.055,-0.109l-0.057,-0.108l-0.058,-0.107l-0.06,-0.107l-0.06,-0.105l-0.063,-0.106l-0.063,-0.105l-0.065,-0.103l-0.066,-0.103l-0.067,-0.103l-0.069,-0.101l-0.07,-0.101l-0.071,-0.1l-0.072,-0.099l-0.074,-0.098l-0.075,-0.098l-0.076,-0.096l-0.078,-0.096l-0.078,-0.095l-0.08,-0.094l-0.081,-0.093l-0.083,-0.092l-0.084,-0.092l-0.085,-0.09l-0.086,-0.089l-0.087,-0.089l-0.088,-0.087l-0.09,-0.086l-0.09,-0.085l-0.091,-0.084l-0.093,-0.082l-0.093,-0.081l-0.094,-0.08l-0.094,-0.079l-0.096,-0.077l-0.097,-0.077l-0.097,-0.075l-0.099,-0.073l-0.099,-0.073l-0.1,-0.071l-0.1,-0.07l-0.102,-0.069l-0.102,-0.067l-0.103,-0.066l-0.104,-0.065l-0.105,-0.063l-0.105,-0.062l-0.106,-0.061l-0.107,-0.059l-0.107,-0.059l-0.108,-0.056l-0.109,-0.056l-0.109,-0.054l-0.11,-0.053l-0.111,-0.051l-0.111,-0.05l-0.112,-0.049l-0.112,-0.047l-0.113,-0.046l-0.114,-0.045l-0.114,-0.043l-0.114,-0.042l-0.115,-0.04l-0.116,-0.04l-0.116,-0.037l-0.117,-0.036l-0.117,-0.035l-0.117,-0.034l-0.118,-0.032l-0.119,-0.03l-0.118,-0.029l-0.12,-0.028l-0.119,-0.026l-0.12,-0.025l-0.12,-0.023l-0.121,-0.022l-0.121,-0.02l-0.121,-0.019l-0.122,-0.017l-0.122,-0.016l-0.122,-0.015l-0.123,-0.013l-0.122,-0.011l-0.123,-0.01l-0.124,-0.008l-0.123,-0.007l-0.124,-0.006l-0.124,-0.004l-0.124,-0.002l-0.124,-0.001l-0.124,0.001Z"/><path d="M10,3.008l0,2" style="fill:none;stroke:#000;stroke-width:6px;"/><path d="M6,6.008l-2,-2" style="fill:none;stroke:#000;stroke-width:6px;"/><path d="M5,10.008l-2,0" style="fill:none;stroke:#000;stroke-width:6px;"/></g><g id="emoji"><path d="M28,20.008c0,-3.182 -1.264,-6.234 -3.515,-8.485c-2.25,-2.25 -5.302,-3.515 -8.485,-3.515c0,0 0,0 0,0c-3.183,0 -6.235,1.265 -8.485,3.515c-2.251,2.251 -3.515,5.303 -3.515,8.485c0,0.676 0,1.346 0,2c0,4.419 3.582,8 8,8c2.574,0 5.426,0 8,0c4.418,0 8,-3.581 8,-8c0,-0.654 0,-1.324 0,-2Z" style="fill:#fbc546;"/><path d="M10.156,23.021l0.067,0.012l0.066,0.018l0.064,0.022l0.063,0.026l0.061,0.031l0.059,0.034l0.057,0.039l0.053,0.042l0.051,0.046l0.047,0.049l0.044,0.053l0.04,0.055l0.037,0.058l0.032,0.06l0.028,0.062l0.024,0.064l0.049,0.15l0.023,0.065l0.022,0.059l0.023,0.059l0.024,0.059l0.025,0.057l0.026,0.057l0.028,0.057l0.028,0.055l0.029,0.055l0.03,0.054l0.032,0.054l0.032,0.052l0.033,0.052l0.035,0.052l0.035,0.05l0.036,0.05l0.037,0.049l0.038,0.048l0.039,0.047l0.039,0.047l0.041,0.045l0.041,0.045l0.042,0.044l0.043,0.044l0.044,0.042l0.045,0.041l0.045,0.041l0.046,0.04l0.047,0.039l0.048,0.037l0.048,0.037l0.049,0.036l0.05,0.036l0.05,0.034l0.051,0.033l0.052,0.032l0.052,0.031l0.053,0.03l0.053,0.03l0.054,0.028l0.055,0.027l0.055,0.026l0.056,0.025l0.056,0.024l0.057,0.023l0.057,0.022l0.057,0.021l0.059,0.019l0.058,0.019l0.059,0.017l0.06,0.016l0.059,0.015l0.061,0.014l0.06,0.013l0.061,0.012l0.062,0.01l0.061,0.01l0.039,0.005l2.289,-2.389l2.492,2.392l0.062,-0.008l0.061,-0.01l0.062,-0.01l0.061,-0.012l0.06,-0.013l0.061,-0.014l0.059,-0.015l0.06,-0.016l0.059,-0.017l0.058,-0.019l0.059,-0.019l0.057,-0.021l0.057,-0.022l0.057,-0.023l0.056,-0.024l0.056,-0.025l0.055,-0.026l0.055,-0.027l0.054,-0.028l0.053,-0.03l0.053,-0.03l0.052,-0.031l0.052,-0.032l0.051,-0.033l0.05,-0.034l0.05,-0.036l0.049,-0.036l0.048,-0.037l0.048,-0.037l0.047,-0.039l0.046,-0.04l0.045,-0.041l0.045,-0.041l0.044,-0.042l0.043,-0.044l0.042,-0.044l0.041,-0.045l0.041,-0.045l0.039,-0.047l0.039,-0.047l0.038,-0.048l0.037,-0.049l0.036,-0.05l0.035,-0.05l0.035,-0.052l0.033,-0.052l0.032,-0.052l0.032,-0.054l0.03,-0.054l0.029,-0.055l0.028,-0.055l0.028,-0.057l0.026,-0.057l0.025,-0.057l0.024,-0.059l0.023,-0.059l0.022,-0.059l0.023,-0.065l0.049,-0.15l0.024,-0.064l0.028,-0.062l0.032,-0.06l0.037,-0.058l0.04,-0.055l0.044,-0.053l0.047,-0.049l0.051,-0.046l0.053,-0.042l0.057,-0.039l0.059,-0.034l0.061,-0.031l0.063,-0.026l0.064,-0.022l0.066,-0.018l0.067,-0.012l0.068,-0.009l0.068,-0.003l0.069,0.001l0.068,0.005l0.067,0.01l0.067,0.015l0.065,0.02l0.064,0.023l0.062,0.029l0.061,0.032l0.057,0.036l0.056,0.04l0.052,0.044l0.049,0.048l0.046,0.05l0.042,0.054l0.039,0.056l0.035,0.059l0.03,0.061l0.026,0.063l0.022,0.065l0.018,0.066l0.013,0.067l0.008,0.067l0.004,0.069l-0.001,0.068l-0.006,0.068l-0.01,0.067l-0.015,0.067l-0.019,0.066l-0.053,0.158l-0.032,0.094l-0.036,0.097l-0.038,0.096l-0.039,0.095l-0.041,0.095l-0.043,0.092l-0.044,0.092l-0.047,0.091l-0.048,0.09l-0.049,0.089l-0.051,0.087l-0.053,0.086l-0.054,0.085l-0.056,0.084l-0.058,0.082l-0.059,0.082l-0.06,0.08l-0.062,0.078l-0.064,0.078l-0.065,0.076l-0.066,0.074l-0.067,0.074l-0.069,0.071l-0.07,0.071l-0.072,0.069l-0.072,0.068l-0.075,0.066l-0.075,0.065l-0.076,0.063l-0.078,0.062l-0.079,0.06l-0.08,0.059l-0.081,0.057l-0.082,0.056l-0.083,0.054l-0.084,0.053l-0.085,0.05l-0.087,0.05l-0.087,0.047l-0.088,0.046l-0.089,0.045l-0.09,0.042l-0.091,0.041l-0.092,0.039l-0.092,0.038l-0.094,0.035l-0.094,0.034l-0.095,0.032l-0.096,0.03l-0.096,0.029l-0.097,0.027l-0.098,0.024l-0.099,0.023l-0.099,0.021l-0.099,0.019l-0.101,0.017l-0.1,0.015l-0.102,0.014l-0.102,0.011l-0.102,0.009l-0.102,0.007l-0.104,0.005l-0.103,0.003l-0.099,0.001l-0.407,0l-1.652,-1.585l-1.519,1.585l-0.432,0l-0.099,-0.001l-0.103,-0.003l-0.104,-0.005l-0.102,-0.007l-0.102,-0.009l-0.102,-0.011l-0.102,-0.014l-0.1,-0.015l-0.101,-0.017l-0.099,-0.019l-0.099,-0.021l-0.099,-0.023l-0.098,-0.024l-0.097,-0.027l-0.096,-0.029l-0.096,-0.03l-0.095,-0.032l-0.094,-0.034l-0.094,-0.035l-0.092,-0.038l-0.092,-0.039l-0.091,-0.041l-0.09,-0.042l-0.089,-0.045l-0.088,-0.046l-0.087,-0.047l-0.087,-0.05l-0.085,-0.05l-0.084,-0.053l-0.083,-0.054l-0.082,-0.056l-0.081,-0.057l-0.08,-0.059l-0.079,-0.06l-0.078,-0.062l-0.076,-0.063l-0.075,-0.065l-0.075,-0.066l-0.072,-0.068l-0.072,-0.069l-0.07,-0.071l-0.069,-0.071l-0.067,-0.074l-0.066,-0.074l-0.065,-0.076l-0.064,-0.078l-0.062,-0.078l-0.06,-0.08l-0.059,-0.082l-0.058,-0.082l-0.056,-0.084l-0.054,-0.085l-0.053,-0.086l-0.051,-0.087l-0.049,-0.089l-0.048,-0.09l-0.047,-0.091l-0.044,-0.092l-0.043,-0.092l-0.041,-0.095l-0.039,-0.095l-0.038,-0.096l-0.036,-0.097l-0.032,-0.094l-0.053,-0.158l-0.019,-0.066l-0.015,-0.067l-0.01,-0.067l-0.006,-0.068l-0.001,-0.068l0.004,-0.069l0.008,-0.067l0.013,-0.067l0.018,-0.066l0.022,-0.065l0.026,-0.063l0.03,-0.061l0.035,-0.059l0.039,-0.056l0.042,-0.054l0.046,-0.05l0.049,-0.048l0.052,-0.044l0.056,-0.04l0.057,-0.036l0.061,-0.032l0.062,-0.029l0.064,-0.023l0.065,-0.02l0.067,-0.015l0.067,-0.01l0.068,-0.005l0.069,-0.001l0.068,0.003l0.068,0.009Z" style="fill:#593604;"/><path d="M20.046,18.009l0.034,0.003l0.034,0.003l0.035,0.004l0.034,0.006l0.033,0.007l0.034,0.008l0.033,0.009l0.033,0.011l3,1l0.033,0.011l0.032,0.013l0.032,0.013l0.031,0.015l0.03,0.016l0.031,0.017l0.029,0.018l0.029,0.019l0.028,0.02l0.028,0.021l0.026,0.021l0.026,0.023l0.026,0.024l0.024,0.024l0.023,0.026l0.023,0.026l0.022,0.027l0.02,0.027l0.02,0.028l0.019,0.029l0.018,0.03l0.017,0.03l0.015,0.031l0.015,0.031l0.013,0.032l0.013,0.032l0.011,0.033l0.01,0.033l0.009,0.033l0.008,0.034l0.007,0.033l0.006,0.035l0.004,0.034l0.003,0.034l0.002,0.035l0.001,0.034l0,0.035l-0.002,0.034l-0.003,0.035l-0.004,0.034l-0.005,0.034l-0.006,0.034l-0.008,0.034l-0.008,0.033l-0.01,0.033l-0.011,0.033l-0.012,0.032l-0.013,0.032l-0.014,0.032l-0.016,0.031l-0.016,0.03l-0.017,0.03l-0.019,0.029l-0.019,0.028l-0.021,0.028l-0.021,0.027l-0.022,0.027l-0.024,0.025l-0.024,0.025l-0.024,0.024l-0.026,0.023l-0.027,0.022l-0.027,0.022l-0.028,0.02l-0.028,0.019l-0.03,0.018l-0.03,0.018l-0.03,0.016l-0.031,0.015l-0.032,0.014l-0.032,0.013l-0.032,0.012l-0.033,0.011l-0.033,0.009l-0.033,0.009l-0.034,0.007l-0.034,0.006l-0.034,0.005l-0.035,0.004l-0.034,0.003l-0.035,0.001l-0.034,0l-0.035,-0.001l-0.034,-0.002l-0.034,-0.003l-0.035,-0.005l-0.034,-0.005l-0.033,-0.007l-0.034,-0.008l-0.033,-0.01l-0.033,-0.01l-3,-1l-0.033,-0.011l-0.032,-0.013l-0.032,-0.014l-0.031,-0.015l-0.03,-0.015l-0.031,-0.017l-0.029,-0.018l-0.029,-0.019l-0.028,-0.02l-0.028,-0.021l-0.026,-0.022l-0.026,-0.023l-0.026,-0.023l-0.024,-0.025l-0.023,-0.025l-0.023,-0.026l-0.022,-0.027l-0.02,-0.027l-0.02,-0.029l-0.019,-0.029l-0.018,-0.029l-0.017,-0.03l-0.015,-0.031l-0.015,-0.031l-0.013,-0.032l-0.013,-0.032l-0.011,-0.033l-0.01,-0.033l-0.009,-0.033l-0.008,-0.034l-0.007,-0.034l-0.006,-0.034l-0.004,-0.034l-0.003,-0.034l-0.002,-0.035l-0.001,-0.034l0,-0.035l0.002,-0.034l0.003,-0.035l0.004,-0.034l0.005,-0.034l0.006,-0.034l0.008,-0.034l0.008,-0.033l0.01,-0.033l0.011,-0.033l0.012,-0.033l0.013,-0.031l0.014,-0.032l0.016,-0.031l0.016,-0.03l0.017,-0.03l0.019,-0.029l0.019,-0.029l0.021,-0.028l0.021,-0.027l0.022,-0.026l0.024,-0.026l0.024,-0.024l0.025,-0.024l0.025,-0.023l0.027,-0.023l0.027,-0.021l0.028,-0.02l0.028,-0.019l0.03,-0.019l0.03,-0.017l0.03,-0.016l0.031,-0.015l0.032,-0.014l0.032,-0.013l0.032,-0.012l0.033,-0.011l0.033,-0.01l0.033,-0.008l0.034,-0.007l0.034,-0.007l0.034,-0.005l0.035,-0.003l0.034,-0.003l0.035,-0.001l0.034,-0.001l0.035,0.001Z"/><path d="M12.023,18.009l0.035,0.001l0.034,0.003l0.035,0.003l0.034,0.005l0.034,0.007l0.034,0.007l0.033,0.008l0.033,0.01l0.033,0.011l0.032,0.012l0.032,0.013l0.032,0.014l0.031,0.015l0.03,0.016l0.03,0.017l0.03,0.019l0.028,0.019l0.028,0.02l0.027,0.021l0.027,0.023l0.025,0.023l0.025,0.024l0.024,0.024l0.024,0.026l0.022,0.026l0.021,0.027l0.021,0.028l0.019,0.029l0.019,0.029l0.017,0.03l0.016,0.03l0.016,0.031l0.014,0.032l0.013,0.031l0.012,0.033l0.011,0.033l0.01,0.033l0.008,0.033l0.008,0.034l0.006,0.034l0.005,0.034l0.004,0.034l0.003,0.035l0.002,0.034l0,0.035l-0.001,0.034l-0.002,0.035l-0.003,0.034l-0.004,0.034l-0.006,0.034l-0.007,0.034l-0.008,0.034l-0.009,0.033l-0.01,0.033l-0.011,0.033l-0.013,0.032l-0.013,0.032l-0.015,0.031l-0.015,0.031l-0.017,0.03l-0.018,0.029l-0.019,0.029l-0.02,0.029l-0.02,0.027l-0.022,0.027l-0.023,0.026l-0.023,0.025l-0.024,0.025l-0.026,0.023l-0.026,0.023l-0.026,0.022l-0.028,0.021l-0.028,0.02l-0.029,0.019l-0.029,0.018l-0.031,0.017l-0.03,0.015l-0.031,0.015l-0.032,0.014l-0.032,0.013l-0.033,0.011l-3,1l-0.033,0.01l-0.033,0.01l-0.034,0.008l-0.033,0.007l-0.034,0.005l-0.035,0.005l-0.034,0.003l-0.034,0.002l-0.035,0.001l-0.034,0l-0.035,-0.001l-0.034,-0.003l-0.035,-0.004l-0.034,-0.005l-0.034,-0.006l-0.034,-0.007l-0.033,-0.009l-0.033,-0.009l-0.033,-0.011l-0.032,-0.012l-0.032,-0.013l-0.032,-0.014l-0.031,-0.015l-0.03,-0.016l-0.03,-0.018l-0.03,-0.018l-0.028,-0.019l-0.028,-0.02l-0.027,-0.022l-0.027,-0.022l-0.026,-0.023l-0.024,-0.024l-0.024,-0.025l-0.024,-0.025l-0.022,-0.027l-0.021,-0.027l-0.021,-0.028l-0.019,-0.028l-0.019,-0.029l-0.017,-0.03l-0.016,-0.03l-0.016,-0.031l-0.014,-0.032l-0.013,-0.032l-0.012,-0.032l-0.011,-0.033l-0.01,-0.033l-0.008,-0.033l-0.008,-0.034l-0.006,-0.034l-0.005,-0.034l-0.004,-0.034l-0.003,-0.035l-0.002,-0.034l0,-0.035l0.001,-0.034l0.002,-0.035l0.003,-0.034l0.004,-0.034l0.006,-0.035l0.007,-0.033l0.008,-0.034l0.009,-0.033l0.01,-0.033l0.011,-0.033l0.013,-0.032l0.013,-0.032l0.015,-0.031l0.015,-0.031l0.017,-0.03l0.018,-0.03l0.019,-0.029l0.02,-0.028l0.02,-0.027l0.022,-0.027l0.023,-0.026l0.023,-0.026l0.024,-0.024l0.026,-0.024l0.026,-0.023l0.026,-0.021l0.028,-0.021l0.028,-0.02l0.029,-0.019l0.029,-0.018l0.031,-0.017l0.03,-0.016l0.031,-0.015l0.032,-0.013l0.032,-0.013l0.033,-0.011l3,-1l0.033,-0.011l0.033,-0.009l0.034,-0.008l0.033,-0.007l0.034,-0.006l0.035,-0.004l0.034,-0.003l0.034,-0.003l0.035,-0.001l0.034,0.001Z"/><path d="M25,6.008l4,-4l1,0l0,8.5c0,0 -2.106,1.053 -2.789,1.395c-0.139,0.069 -0.292,0.105 -0.447,0.105c-1.122,0 -5.974,0 -8.766,0c-0.53,0 -1.038,-0.21 -1.413,-0.585c-0.374,-0.375 -0.585,-0.883 -0.585,-1.413c0,-0.001 0,-0.002 0,-0.002l-9,2c0,0 0,-0.354 0,-0.764c0,-0.757 0.428,-1.45 1.106,-1.788c2.195,-1.098 6.894,-3.448 6.894,-3.448l10,0Z"/><path d="M32,11.744l-3.907,1.954l-0.066,0.032l-0.08,0.035l-0.08,0.033l-0.081,0.031l-0.082,0.029l-0.083,0.026l-0.084,0.023l-0.084,0.021l-0.084,0.019l-0.085,0.016l-0.087,0.014l-0.086,0.011l-0.086,0.009l-0.087,0.006l-0.087,0.004l-0.073,0.001l-8.793,0l-0.086,-0.001l-0.099,-0.003l-0.099,-0.007l-0.098,-0.008l-0.098,-0.011l-0.097,-0.013l-0.097,-0.016l-0.097,-0.018l-0.095,-0.02l-0.096,-0.023l-0.094,-0.025l-0.094,-0.027l-0.093,-0.03l-0.092,-0.032l-0.091,-0.034l-0.091,-0.036l-0.09,-0.038l-0.088,-0.041l-0.088,-0.043l-0.087,-0.045l-0.085,-0.047l-0.085,-0.049l-0.083,-0.051l-0.082,-0.053l-0.081,-0.056l-0.079,-0.057l-0.079,-0.059l-0.077,-0.062l-0.075,-0.063l-0.075,-0.066l-0.072,-0.067l-0.071,-0.069l-0.069,-0.072l-0.068,-0.072l-0.065,-0.074l-0.064,-0.076l-0.061,-0.077l-0.06,-0.078l-0.038,-0.053l-9.746,2.166l0,-3.275l0.002,-0.124l0.008,-0.14l0.012,-0.14l0.017,-0.139l0.022,-0.138l0.027,-0.137l0.031,-0.134l0.036,-0.134l0.04,-0.131l0.045,-0.13l0.049,-0.129l0.053,-0.126l0.058,-0.125l0.062,-0.122l0.065,-0.119l0.07,-0.118l0.074,-0.115l0.078,-0.112l0.081,-0.11l0.086,-0.107l0.089,-0.104l0.092,-0.101l0.097,-0.098l0.1,-0.095l0.103,-0.092l0.107,-0.089l0.11,-0.084l0.113,-0.082l0.117,-0.077l0.119,-0.074l0.123,-0.069l0.109,-0.057l7.333,-3.667l9.644,0l4,-4l3.828,0l0,11.736Zm-4,-5.907l-2.172,2.171l-7.828,0l0,1.99l0,0.01l0.01,0l8.518,0l1.472,-0.736l0,-3.435Zm-12.528,2.171l-0.246,0.124l0.554,-0.124l-0.308,0Z"/><path d="M25,6.008l1,0l3.657,4l0.01,0.667l-2.456,1.228c-0.139,0.069 -0.292,0.105 -0.447,0.105c0,0 -6.214,0 -6.766,0c-0.421,0 -1.674,-0.012 -2.357,-0.373c-1.105,-0.583 -1.641,-1.627 -1.641,-1.627c0,0 0,-0.002 0,-0.002l-9,2.002c0,0 0,-0.354 0,-0.764c0,-0.757 0.428,-1.45 1.106,-1.788c2.195,-1.098 6.894,-3.448 6.894,-3.448l10,0Z" style="fill:#fbc546;"/><path d="M25,6.008l4,-4l1,0l0,8.5l-0.333,0.167l-4.667,-4.667Z" style="fill:#e59a10;"/><path d="M16,10.01l0,-0.002c0,-1.104 0.895,-2 2,-2c2.069,0 5,0 5,0l0,2l-5,0c0,0 0,0.001 0,0.002c0,1.104 0.895,1.998 1.998,1.998c0.552,0 1.002,0 1.002,0l-3.002,0c-0.53,0 -1.038,-0.21 -1.413,-0.585c-0.374,-0.375 -0.585,-0.883 -0.585,-1.413Z" style="fill:#7e5108;"/><path d="M10,3.008l0,2" style="fill:none;stroke:#fff;stroke-width:2px;"/><path d="M6,6.008l-2,-2" style="fill:none;stroke:#fff;stroke-width:2px;"/><path d="M5,10.008l-2,0" style="fill:none;stroke:#fff;stroke-width:2px;"/></g></g></svg>