<?xml version="1.0" encoding="UTF-8" standalone="no"?>
<!DOCTYPE svg PUBLIC "-//W3C//DTD SVG 1.1//EN" "http://www.w3.org/Graphics/SVG/1.1/DTD/svg11.dtd">
<svg width="100%" height="100%" viewBox="0 0 32 32" version="1.1" xmlns="http://www.w3.org/2000/svg" xmlns:xlink="http://www.w3.org/1999/xlink" xml:space="preserve" xmlns:serif="http://www.serif.com/" style="fill-rule:evenodd;clip-rule:evenodd;stroke-linecap:round;stroke-miterlimit:1.5;">
    <rect id="headpats" x="0" y="0.008" width="32" height="32" style="fill:none;"/>
    <clipPath id="_clip1">
        <rect x="0" y="0.008" width="32" height="32"/>
    </clipPath>
    <g clip-path="url(#_clip1)">
        <g id="outline">
            <path d="M7.009,2.775c0.119,-1.547 1.414,-2.767 2.991,-2.767c1.656,0 3,1.345 3,3l0,2c0,0.508 -0.127,0.987 -0.35,1.407c1.087,-0.268 2.212,-0.407 3.35,-0.407l0.044,0c3.697,0.012 7.24,1.486 9.855,4.101c2.626,2.625 4.101,6.186 4.101,9.899l0,2c0,5.523 -4.477,10 -10,10l-8,0c-5.523,0 -10,-4.477 -10,-10c0,-0.654 0,-1.324 0,-2c0,-2.478 0.657,-4.89 1.876,-7l-0.876,0c-1.656,0 -3,-1.344 -3,-3c0,-1.577 1.22,-2.871 2.766,-2.991l-0.887,-0.887c-1.171,-1.171 -1.171,-3.072 0,-4.243c1.17,-1.171 3.072,-1.171 4.242,0l0.888,0.888Z"/>
        </g>
        <g id="emoji">
            <path d="M28,20.008c0,-3.182 -1.264,-6.234 -3.515,-8.485c-2.25,-2.25 -5.302,-3.515 -8.485,-3.515c0,0 0,0 0,0c-3.183,0 -6.235,1.265 -8.485,3.515c-2.251,2.251 -3.515,5.303 -3.515,8.485c0,0.676 0,1.346 0,2c0,4.419 3.582,8 8,8c2.574,0 5.426,0 8,0c4.418,0 8,-3.581 8,-8c0,-0.654 0,-1.324 0,-2Z" style="fill:#fbc546;"/>
            <path d="M10,24.008c0,0 0.019,0.057 0.051,0.154c0.567,1.7 2.157,2.846 3.949,2.846c0,0 0,0 0,0l1.917,-2l2.083,2l0,0c1.792,0 3.382,-1.146 3.949,-2.846c0.032,-0.097 0.051,-0.154 0.051,-0.154" style="fill:none;stroke:#593604;stroke-width:2px;"/>
            <path d="M19.684,19.957l3,1c0.523,0.175 1.09,-0.109 1.265,-0.632c0.174,-0.524 -0.109,-1.091 -0.633,-1.265l-3,-1c-0.523,-0.175 -1.09,0.109 -1.265,0.632c-0.174,0.524 0.109,1.091 0.633,1.265Z"/>
            <path d="M11.684,18.06l-3,1c-0.524,0.174 -0.807,0.741 -0.633,1.265c0.175,0.523 0.742,0.807 1.265,0.632l3,-1c0.524,-0.174 0.807,-0.741 0.633,-1.265c-0.175,-0.523 -0.742,-0.807 -1.265,-0.632Z"/>
            <path d="M32,0.008l0,11.736l-3.894,1.948c-0.417,0.208 -0.876,0.316 -1.342,0.316c-1.122,0 -5.974,0 -8.766,0c-1.06,0 -2.077,-0.421 -2.827,-1.171c-0.156,-0.156 -0.298,-0.324 -0.424,-0.501l-9.747,2.166c0,-2.146 -0.456,-4.596 1.294,-6.203c0.274,-0.253 0.584,-0.466 0.917,-0.632c2.439,-1.22 4.878,-2.439 7.317,-3.659l9.644,0l4,-4l3.828,0Z"/>
            <path d="M15,6.008l11,0l3.657,4l0.01,0.667l-2.456,1.228c-0.139,0.069 -0.292,0.105 -0.447,0.105l-6.766,0c-0.421,0 -1.674,-0.012 -2.357,-0.373c-1.105,-0.583 -1.641,-1.627 -1.641,-1.627c0,0 0,-0.002 0,-0.002l-9,2.002l0,-0.764c0,-0.757 0.428,-1.45 1.106,-1.788c2.195,-1.098 6.894,-3.448 6.894,-3.448Z" style="fill:#fbc546;"/>
            <path d="M25,6.008l4,-4l1,0l0,8.5l-0.333,0.167l-4.667,-4.667Z" style="fill:#e59a10;"/>
            <path d="M16,10.01l0,-0.002c0,-1.104 0.895,-2 2,-2l5,0l0,2l-5,0c0,0 0,0.001 0,0.002c0,1.104 0.895,1.998 1.998,1.998l-2,0c-0.53,0 -1.038,-0.21 -1.413,-0.585c-0.374,-0.375 -0.585,-0.883 -0.585,-1.413Z" style="fill:#7e5108;"/>
            <path d="M5,11.008l-2,0c-0.552,0 -1,-0.448 -1,-1c0,-0.552 0.448,-1 1,-1l2,0c0.552,0 1,0.448 1,1c0,0.552 -0.448,1 -1,1Zm1.707,-5.707l-2,-2c-0.39,-0.39 -1.024,-0.39 -1.414,0c-0.39,0.391 -0.39,1.024 0,1.414l2,2c0.39,0.391 1.024,0.391 1.414,0c0.39,-0.39 0.39,-1.023 0,-1.414Zm2.293,-2.293l0,2c0,0.552 0.448,1 1,1c0.552,0 1,-0.448 1,-1l0,-2c0,-0.552 -0.448,-1 -1,-1c-0.552,0 -1,0.448 -1,1Z" style="fill:#fff;"/>
        </g>
    </g>
</svg>
