<?xml version="1.0" encoding="UTF-8" standalone="no"?><!DOCTYPE svg PUBLIC "-//W3C//DTD SVG 1.1//EN" "http://www.w3.org/Graphics/SVG/1.1/DTD/svg11.dtd"><svg width="100%" height="100%" viewBox="0 0 32 32" version="1.1" xmlns="http://www.w3.org/2000/svg" xmlns:xlink="http://www.w3.org/1999/xlink" xml:space="preserve" xmlns:serif="http://www.serif.com/" style="fill-rule:evenodd;clip-rule:evenodd;stroke-linejoin:round;stroke-miterlimit:1.41421;"><rect id="heart_eyes" x="0" y="0" width="32" height="32" style="fill:none;"/><clipPath id="_clip1"><rect x="0" y="0" width="32" height="32"/></clipPath><g clip-path="url(#_clip1)"><g id="outline"><path d="M16.199,0.001l0.198,0.004l0.198,0.006l0.198,0.009l0.198,0.011l0.197,0.013l0.197,0.016l0.196,0.018l0.196,0.021l0.196,0.023l0.195,0.025l0.195,0.028l0.194,0.031l0.193,0.032l0.194,0.035l0.192,0.037l0.192,0.04l0.191,0.042l0.191,0.044l0.19,0.047l0.189,0.048l0.189,0.051l0.188,0.054l0.187,0.056l0.187,0.058l0.186,0.06l0.185,0.062l0.184,0.065l0.183,0.067l0.183,0.069l0.181,0.071l0.181,0.074l0.18,0.076l0.179,0.078l0.178,0.08l0.177,0.082l0.176,0.085l0.174,0.086l0.174,0.089l0.173,0.091l0.172,0.093l0.171,0.095l0.169,0.097l0.169,0.1l0.167,0.101l0.166,0.104l0.165,0.105l0.164,0.108l0.162,0.11l0.161,0.112l0.16,0.114l0.159,0.116l0.157,0.118l0.156,0.119l0.155,0.122l0.153,0.124l0.152,0.126l0.15,0.128l0.149,0.13l0.148,0.132l0.146,0.134l0.144,0.136l0.143,0.138l0.14,0.138l0.094,0.095l0.092,0.094l0.091,0.094l0.09,0.096l0.089,0.096l0.089,0.096l0.087,0.098l0.087,0.098l0.085,0.098l0.085,0.1l0.052,0.061l0.088,0.031l0.096,0.035l0.096,0.037l0.095,0.039l0.095,0.041l0.093,0.043l0.094,0.045l0.092,0.046l0.092,0.048l0.091,0.051l0.091,0.052l0.089,0.054l0.089,0.055l0.088,0.058l0.087,0.059l0.086,0.061l0.085,0.063l0.084,0.065l0.083,0.066l0.082,0.068l0.081,0.071l0.08,0.072l0.078,0.073l0.07,0.068l0.065,0.064l0.087,0.089l0.093,0.1l0.091,0.102l0.087,0.103l0.086,0.106l0.082,0.108l0.08,0.11l0.077,0.111l0.073,0.113l0.071,0.115l0.069,0.117l0.065,0.117l0.062,0.12l0.06,0.121l0.056,0.121l0.053,0.124l0.05,0.125l0.048,0.126l0.044,0.127l0.041,0.128l0.038,0.13l0.035,0.13l0.031,0.131l0.029,0.132l0.025,0.133l0.022,0.134l0.018,0.134l0.016,0.135l0.012,0.136l0.009,0.136l0.005,0.136l0.002,0.132l-0.001,0.094l-0.002,0.088l-0.003,0.089l-0.005,0.088l-0.006,0.088l-0.008,0.088l-0.009,0.087l-0.01,0.087l-0.012,0.087l-0.013,0.086l-0.015,0.087l-0.015,0.087l-0.018,0.085l-0.018,0.085l-0.02,0.085l-0.021,0.085l-0.023,0.085l-0.024,0.083l-0.025,0.083l-0.026,0.083l-0.028,0.083l-0.029,0.082l-0.014,0.037l0.001,0.007l0.023,0.117l0.022,0.118l0.021,0.117l0.02,0.118l0.019,0.118l0.019,0.118l0.017,0.119l0.017,0.118l0.015,0.119l0.015,0.119l0.014,0.119l0.013,0.119l0.012,0.12l0.012,0.119l0.01,0.12l0.01,0.12l0.008,0.12l0.008,0.12l0.007,0.12l0.006,0.121l0.005,0.12l0.004,0.12l0.003,0.121l0.002,0.121l0.002,0.121l0,0.117l0,2.011l-0.001,0.174l-0.004,0.179l-0.005,0.18l-0.008,0.179l-0.01,0.178l-0.013,0.178l-0.014,0.178l-0.017,0.176l-0.019,0.176l-0.021,0.175l-0.024,0.175l-0.025,0.175l-0.028,0.173l-0.03,0.173l-0.031,0.172l-0.034,0.171l-0.036,0.171l-0.039,0.17l-0.04,0.169l-0.042,0.168l-0.044,0.168l-0.046,0.167l-0.048,0.165l-0.051,0.166l-0.052,0.164l-0.054,0.163l-0.056,0.162l-0.058,0.162l-0.06,0.16l-0.062,0.16l-0.063,0.158l-0.066,0.158l-0.067,0.157l-0.07,0.155l-0.071,0.155l-0.073,0.154l-0.074,0.152l-0.077,0.152l-0.078,0.15l-0.08,0.15l-0.082,0.148l-0.083,0.147l-0.085,0.146l-0.087,0.145l-0.089,0.144l-0.09,0.142l-0.092,0.142l-0.093,0.14l-0.095,0.139l-0.097,0.138l-0.098,0.136l-0.1,0.136l-0.102,0.134l-0.103,0.132l-0.104,0.132l-0.107,0.13l-0.107,0.129l-0.11,0.128l-0.11,0.126l-0.112,0.125l-0.114,0.123l-0.115,0.122l-0.117,0.121l-0.118,0.12l-0.119,0.117l-0.121,0.117l-0.122,0.115l-0.123,0.114l-0.125,0.112l-0.126,0.11l-0.128,0.11l-0.129,0.107l-0.13,0.107l-0.132,0.104l-0.132,0.103l-0.134,0.102l-0.136,0.1l-0.136,0.098l-0.138,0.097l-0.139,0.095l-0.14,0.093l-0.142,0.092l-0.142,0.09l-0.144,0.089l-0.145,0.087l-0.146,0.085l-0.147,0.083l-0.148,0.082l-0.15,0.08l-0.15,0.078l-0.152,0.077l-0.152,0.074l-0.154,0.073l-0.155,0.071l-0.155,0.07l-0.157,0.067l-0.158,0.066l-0.158,0.063l-0.16,0.062l-0.16,0.06l-0.162,0.058l-0.162,0.056l-0.163,0.054l-0.165,0.052l-0.165,0.051l-0.165,0.048l-0.167,0.046l-0.168,0.044l-0.168,0.042l-0.169,0.041l-0.17,0.038l-0.171,0.036l-0.171,0.034l-0.172,0.031l-0.173,0.03l-0.173,0.028l-0.175,0.025l-0.174,0.024l-0.176,0.021l-0.176,0.019l-0.177,0.017l-0.177,0.014l-0.178,0.013l-0.178,0.01l-0.179,0.008l-0.18,0.005l-0.179,0.004l-0.175,0.001l-4.012,0l-0.174,-0.001l-0.18,-0.004l-0.18,-0.005l-0.179,-0.008l-0.178,-0.01l-0.178,-0.013l-0.177,-0.014l-0.177,-0.017l-0.176,-0.019l-0.176,-0.021l-0.174,-0.024l-0.175,-0.025l-0.173,-0.028l-0.173,-0.03l-0.172,-0.031l-0.171,-0.034l-0.171,-0.036l-0.17,-0.038l-0.169,-0.041l-0.168,-0.042l-0.168,-0.044l-0.166,-0.046l-0.166,-0.049l-0.165,-0.05l-0.165,-0.052l-0.163,-0.054l-0.162,-0.056l-0.162,-0.058l-0.16,-0.06l-0.16,-0.062l-0.158,-0.063l-0.158,-0.066l-0.157,-0.067l-0.155,-0.07l-0.155,-0.071l-0.154,-0.073l-0.152,-0.074l-0.152,-0.077l-0.15,-0.078l-0.15,-0.08l-0.148,-0.082l-0.147,-0.083l-0.146,-0.085l-0.145,-0.087l-0.144,-0.089l-0.142,-0.09l-0.142,-0.092l-0.14,-0.093l-0.139,-0.095l-0.138,-0.097l-0.136,-0.098l-0.136,-0.1l-0.134,-0.102l-0.132,-0.103l-0.132,-0.105l-0.13,-0.106l-0.129,-0.107l-0.128,-0.109l-0.126,-0.111l-0.125,-0.112l-0.123,-0.114l-0.122,-0.115l-0.121,-0.117l-0.119,-0.117l-0.118,-0.12l-0.117,-0.121l-0.115,-0.122l-0.114,-0.123l-0.112,-0.125l-0.11,-0.126l-0.11,-0.128l-0.107,-0.129l-0.107,-0.13l-0.104,-0.132l-0.103,-0.132l-0.102,-0.134l-0.1,-0.136l-0.098,-0.136l-0.097,-0.138l-0.095,-0.139l-0.093,-0.14l-0.092,-0.142l-0.09,-0.142l-0.089,-0.144l-0.087,-0.145l-0.085,-0.146l-0.083,-0.147l-0.082,-0.148l-0.08,-0.15l-0.078,-0.15l-0.077,-0.152l-0.074,-0.152l-0.073,-0.154l-0.071,-0.155l-0.07,-0.155l-0.067,-0.157l-0.066,-0.158l-0.063,-0.158l-0.062,-0.16l-0.06,-0.16l-0.058,-0.162l-0.056,-0.162l-0.054,-0.163l-0.052,-0.165l-0.051,-0.165l-0.048,-0.165l-0.046,-0.167l-0.044,-0.168l-0.042,-0.168l-0.041,-0.169l-0.038,-0.17l-0.036,-0.171l-0.034,-0.171l-0.031,-0.172l-0.03,-0.173l-0.028,-0.173l-0.025,-0.175l-0.024,-0.174l-0.021,-0.176l-0.019,-0.176l-0.017,-0.177l-0.014,-0.177l-0.013,-0.178l-0.01,-0.178l-0.008,-0.179l-0.005,-0.18l-0.004,-0.18l-0.001,-0.174l0,-2.01l0,-0.117l0.002,-0.121l0.002,-0.12l0.003,-0.12l0.004,-0.121l0.005,-0.12l0.006,-0.119l0.006,-0.12l0.008,-0.119l0.008,-0.119l0.01,-0.119l0.01,-0.119l0.011,-0.118l0.012,-0.118l0.012,-0.118l0.014,-0.118l0.014,-0.117l0.016,-0.117l0.016,-0.117l0.017,-0.117l0.018,-0.116l0.018,-0.116l0.02,-0.116l0.02,-0.116l0.021,-0.115l0.021,-0.109l-0.023,-0.06l-0.036,-0.105l-0.034,-0.105l-0.033,-0.106l-0.029,-0.106l-0.028,-0.106l-0.026,-0.108l-0.023,-0.106l-0.022,-0.108l-0.019,-0.108l-0.017,-0.108l-0.015,-0.109l-0.012,-0.109l-0.011,-0.108l-0.008,-0.109l-0.006,-0.109l-0.004,-0.109l-0.002,-0.109l0,-0.109l0.003,-0.11l0.004,-0.109l0.007,-0.109l0.009,-0.109l0.011,-0.108l0.013,-0.109l0.016,-0.108l0.017,-0.108l0.02,-0.108l0.022,-0.108l0.024,-0.107l0.026,-0.107l0.028,-0.106l0.031,-0.106l0.033,-0.106l0.035,-0.105l0.037,-0.104l0.039,-0.104l0.041,-0.104l0.044,-0.102l0.046,-0.102l0.048,-0.101l0.05,-0.1l0.052,-0.1l0.055,-0.099l0.056,-0.097l0.059,-0.097l0.061,-0.096l0.063,-0.095l0.065,-0.093l0.067,-0.093l0.07,-0.092l0.071,-0.09l0.074,-0.089l0.076,-0.088l0.077,-0.086l0.08,-0.085l0.074,-0.076l0.057,-0.056l0.068,-0.067l0.076,-0.072l0.078,-0.071l0.079,-0.069l0.08,-0.067l0.082,-0.066l0.082,-0.064l0.083,-0.063l0.085,-0.061l0.086,-0.059l0.087,-0.057l0.087,-0.056l0.089,-0.054l0.089,-0.053l0.091,-0.05l0.091,-0.049l0.093,-0.047l0.093,-0.046l0.093,-0.043l0.095,-0.042l0.096,-0.04l0.096,-0.039l0.097,-0.036l0.097,-0.035l0.009,-0.002l0.13,-0.155l0.148,-0.17l0.15,-0.169l0.152,-0.166l0.155,-0.164l0.157,-0.161l0.16,-0.16l0.161,-0.157l0.164,-0.155l0.166,-0.152l0.168,-0.151l0.17,-0.148l0.172,-0.145l0.174,-0.143l0.177,-0.141l0.178,-0.139l0.181,-0.135l0.182,-0.134l0.184,-0.131l0.187,-0.128l0.188,-0.126l0.19,-0.123l0.192,-0.121l0.193,-0.118l0.196,-0.115l0.197,-0.112l0.199,-0.11l0.201,-0.107l0.202,-0.105l0.205,-0.101l0.205,-0.099l0.208,-0.096l0.209,-0.093l0.211,-0.09l0.212,-0.087l0.213,-0.084l0.216,-0.081l0.216,-0.078l0.218,-0.075l0.22,-0.072l0.221,-0.069l0.222,-0.066l0.223,-0.063l0.225,-0.059l0.227,-0.057l0.223,-0.052l0.118,-0.026l0.115,-0.025l0.114,-0.023l0.115,-0.023l0.116,-0.022l0.115,-0.022l0.116,-0.02l0.116,-0.02l0.117,-0.018l0.116,-0.018l0.117,-0.017l0.118,-0.017l0.117,-0.015l0.118,-0.014l0.118,-0.014l0.118,-0.013l0.119,-0.012l0.118,-0.011l0.119,-0.01l0.119,-0.009l0.12,-0.009l0.119,-0.007l0.12,-0.007l0.12,-0.006l0.121,-0.005l0.12,-0.004l0.121,-0.003l0.121,-0.002l0.121,-0.002l0.124,0l0.196,0.001Zm-0.291,3.999l-0.091,0.001l-0.091,0.002l-0.091,0.002l-0.091,0.003l-0.09,0.004l-0.091,0.005l-0.09,0.005l-0.09,0.005l-0.089,0.007l-0.09,0.007l-0.089,0.007l-0.089,0.009l-0.089,0.009l-0.089,0.009l-0.089,0.01l-0.088,0.011l-0.088,0.012l-0.088,0.012l-0.088,0.013l-0.087,0.013l-0.088,0.014l-0.087,0.015l-0.086,0.015l-0.087,0.016l-0.086,0.017l-0.087,0.017l-0.085,0.018l-0.086,0.018l-0.082,0.018l-0.174,0.041l-0.169,0.042l-0.168,0.044l-0.168,0.047l-0.166,0.05l-0.165,0.051l-0.164,0.054l-0.164,0.056l-0.162,0.059l-0.161,0.061l-0.16,0.063l-0.159,0.065l-0.157,0.067l-0.157,0.07l-0.155,0.072l-0.154,0.073l-0.153,0.076l-0.152,0.079l-0.15,0.08l-0.15,0.082l-0.148,0.085l-0.146,0.086l-0.145,0.088l-0.144,0.091l-0.143,0.092l-0.141,0.095l-0.14,0.096l-0.138,0.098l-0.137,0.1l-0.136,0.102l-0.134,0.104l-0.132,0.106l-0.131,0.108l-0.129,0.109l-0.128,0.111l-0.126,0.113l-0.125,0.115l-0.123,0.116l-0.121,0.118l-0.12,0.12l-0.118,0.122l-0.116,0.123l-0.115,0.124l-0.113,0.127l-0.111,0.128l-0.109,0.129l-0.107,0.131l-0.106,0.133l-0.575,0.742l-0.788,0.152l-0.027,0.006l-0.028,0.006l-0.028,0.007l-0.027,0.007l-0.027,0.008l-0.027,0.009l-0.027,0.009l-0.026,0.009l-0.027,0.01l-0.026,0.011l-0.026,0.01l-0.026,0.012l-0.026,0.012l-0.025,0.012l-0.025,0.013l-0.025,0.014l-0.025,0.013l-0.025,0.015l-0.024,0.014l-0.024,0.016l-0.024,0.015l-0.023,0.017l-0.023,0.016l-0.023,0.017l-0.022,0.018l-0.023,0.018l-0.021,0.018l-0.022,0.019l-0.021,0.019l-0.021,0.02l-0.028,0.027l-0.027,0.028l-0.031,0.031l-0.022,0.024l-0.022,0.024l-0.021,0.024l-0.02,0.024l-0.02,0.025l-0.019,0.025l-0.018,0.025l-0.018,0.026l-0.017,0.025l-0.016,0.026l-0.016,0.027l-0.015,0.026l-0.015,0.027l-0.014,0.026l-0.013,0.027l-0.013,0.028l-0.013,0.027l-0.012,0.028l-0.011,0.028l-0.01,0.028l-0.01,0.028l-0.01,0.029l-0.009,0.028l-0.008,0.029l-0.008,0.029l-0.007,0.03l-0.007,0.029l-0.006,0.029l-0.005,0.03l-0.005,0.03l-0.004,0.03l-0.004,0.029l-0.003,0.03l-0.002,0.03l-0.002,0.03l-0.001,0.03l-0.001,0.03l0,0.031l0,0.03l0.001,0.03l0.002,0.03l0.003,0.03l0.002,0.03l0.004,0.03l0.004,0.029l0.005,0.031l0.005,0.029l0.006,0.029l0.006,0.03l0.007,0.029l0.008,0.029l0.008,0.029l0.009,0.029l0.009,0.029l0.01,0.028l0.01,0.028l0.011,0.028l0.012,0.028l0.012,0.027l0.013,0.028l0.013,0.027l0.014,0.027l0.389,0.714l-0.216,0.925l-0.038,0.174l-0.017,0.082l-0.017,0.086l-0.016,0.086l-0.016,0.087l-0.015,0.086l-0.015,0.087l-0.014,0.087l-0.013,0.087l-0.013,0.088l-0.012,0.087l-0.011,0.088l-0.011,0.088l-0.01,0.089l-0.01,0.088l-0.009,0.089l-0.008,0.089l-0.008,0.089l-0.007,0.089l-0.006,0.09l-0.006,0.089l-0.005,0.09l-0.004,0.09l-0.004,0.091l-0.003,0.09l-0.002,0.091l-0.002,0.091l-0.001,0.091l0,0.095l0,1.99l0.001,0.136l0.002,0.129l0.004,0.129l0.006,0.128l0.007,0.128l0.009,0.128l0.011,0.127l0.012,0.126l0.013,0.126l0.015,0.125l0.017,0.125l0.018,0.124l0.02,0.124l0.021,0.123l0.023,0.123l0.024,0.122l0.026,0.122l0.027,0.121l0.029,0.121l0.03,0.12l0.031,0.119l0.033,0.119l0.035,0.118l0.035,0.118l0.037,0.116l0.039,0.117l0.04,0.115l0.041,0.115l0.043,0.115l0.044,0.113l0.045,0.113l0.047,0.113l0.048,0.111l0.049,0.111l0.051,0.111l0.052,0.109l0.053,0.109l0.055,0.108l0.056,0.108l0.057,0.106l0.058,0.106l0.06,0.105l0.06,0.104l0.063,0.104l0.063,0.103l0.064,0.101l0.066,0.101l0.067,0.101l0.068,0.099l0.069,0.099l0.07,0.097l0.072,0.097l0.072,0.096l0.074,0.095l0.075,0.094l0.076,0.093l0.077,0.092l0.078,0.092l0.079,0.09l0.08,0.089l0.082,0.089l0.082,0.087l0.084,0.087l0.084,0.085l0.085,0.084l0.087,0.084l0.087,0.082l0.089,0.082l0.089,0.08l0.09,0.079l0.092,0.078l0.092,0.077l0.093,0.076l0.094,0.075l0.095,0.074l0.096,0.072l0.097,0.072l0.097,0.07l0.099,0.069l0.099,0.068l0.101,0.067l0.101,0.066l0.101,0.064l0.103,0.063l0.104,0.063l0.104,0.06l0.105,0.06l0.106,0.058l0.106,0.057l0.108,0.056l0.108,0.055l0.109,0.053l0.109,0.052l0.11,0.051l0.111,0.049l0.112,0.048l0.112,0.047l0.113,0.045l0.114,0.044l0.115,0.043l0.115,0.041l0.115,0.04l0.117,0.039l0.117,0.037l0.117,0.035l0.118,0.035l0.119,0.033l0.119,0.031l0.12,0.03l0.121,0.029l0.121,0.027l0.122,0.026l0.122,0.024l0.122,0.023l0.124,0.021l0.124,0.02l0.124,0.018l0.125,0.017l0.125,0.015l0.126,0.013l0.127,0.012l0.126,0.011l0.128,0.009l0.128,0.007l0.128,0.006l0.129,0.004l0.129,0.002l0.136,0.001l3.988,0l0.136,-0.001l0.129,-0.002l0.129,-0.004l0.128,-0.006l0.128,-0.007l0.128,-0.009l0.126,-0.011l0.127,-0.012l0.126,-0.013l0.125,-0.015l0.125,-0.017l0.124,-0.018l0.124,-0.02l0.124,-0.021l0.122,-0.023l0.122,-0.024l0.122,-0.026l0.121,-0.027l0.121,-0.029l0.12,-0.03l0.119,-0.031l0.119,-0.033l0.118,-0.035l0.117,-0.035l0.117,-0.037l0.117,-0.039l0.115,-0.04l0.115,-0.041l0.115,-0.043l0.113,-0.044l0.114,-0.045l0.112,-0.047l0.111,-0.048l0.111,-0.049l0.111,-0.051l0.109,-0.052l0.109,-0.053l0.108,-0.055l0.108,-0.056l0.106,-0.057l0.106,-0.058l0.105,-0.06l0.104,-0.061l0.104,-0.062l0.103,-0.063l0.101,-0.064l0.101,-0.066l0.101,-0.067l0.099,-0.068l0.099,-0.069l0.097,-0.07l0.097,-0.072l0.096,-0.072l0.095,-0.074l0.094,-0.075l0.093,-0.076l0.092,-0.077l0.092,-0.078l0.09,-0.079l0.089,-0.08l0.089,-0.082l0.087,-0.082l0.087,-0.084l0.085,-0.084l0.084,-0.085l0.084,-0.087l0.082,-0.087l0.082,-0.089l0.08,-0.089l0.079,-0.09l0.078,-0.092l0.077,-0.092l0.076,-0.093l0.075,-0.094l0.074,-0.095l0.072,-0.096l0.072,-0.097l0.07,-0.097l0.069,-0.099l0.068,-0.099l0.067,-0.1l0.066,-0.101l0.064,-0.102l0.064,-0.103l0.061,-0.104l0.061,-0.104l0.06,-0.105l0.058,-0.106l0.057,-0.106l0.056,-0.108l0.055,-0.108l0.053,-0.109l0.052,-0.109l0.05,-0.11l0.05,-0.112l0.048,-0.111l0.047,-0.113l0.045,-0.112l0.044,-0.114l0.043,-0.115l0.041,-0.115l0.04,-0.115l0.039,-0.117l0.037,-0.117l0.035,-0.117l0.035,-0.118l0.033,-0.119l0.031,-0.119l0.03,-0.121l0.029,-0.12l0.027,-0.121l0.026,-0.121l0.024,-0.123l0.023,-0.123l0.021,-0.123l0.02,-0.124l0.018,-0.124l0.016,-0.125l0.016,-0.125l0.013,-0.126l0.012,-0.127l0.011,-0.126l0.009,-0.128l0.007,-0.128l0.006,-0.128l0.004,-0.129l0.002,-0.129l0.001,-0.136l0,-1.99l0,-0.095l-0.001,-0.09l-0.002,-0.091l-0.002,-0.09l-0.004,-0.091l-0.003,-0.091l-0.005,-0.09l-0.005,-0.09l-0.006,-0.09l-0.006,-0.09l-0.007,-0.09l-0.008,-0.089l-0.009,-0.091l-0.009,-0.089l-0.009,-0.089l-0.011,-0.09l-0.011,-0.089l-0.012,-0.089l-0.012,-0.089l-0.013,-0.089l-0.014,-0.088l-0.015,-0.089l-0.015,-0.088l-0.015,-0.088l-0.017,-0.088l-0.017,-0.088l-0.017,-0.088l-0.019,-0.088l-0.019,-0.087l-0.019,-0.087l-0.021,-0.087l-0.203,-0.843l0.388,-0.711l0.011,-0.021l0.011,-0.021l0.01,-0.022l0.01,-0.021l0.01,-0.022l0.009,-0.022l0.009,-0.022l0.009,-0.023l0.008,-0.022l0.008,-0.022l0.008,-0.022l0.007,-0.022l0.007,-0.024l0.007,-0.023l0.006,-0.023l0.005,-0.022l0.006,-0.024l0.005,-0.024l0.005,-0.023l0.004,-0.023l0.004,-0.023l0.003,-0.025l0.004,-0.023l0.002,-0.024l0.003,-0.024l0.002,-0.024l0.002,-0.024l0.001,-0.024l0.001,-0.024l0,-0.025l0.001,-0.019l-0.001,-0.042l-0.001,-0.038l-0.003,-0.037l-0.003,-0.036l-0.004,-0.038l-0.005,-0.036l-0.006,-0.036l-0.007,-0.037l-0.008,-0.036l-0.009,-0.036l-0.009,-0.036l-0.01,-0.035l-0.012,-0.035l-0.012,-0.035l-0.013,-0.034l-0.013,-0.034l-0.015,-0.034l-0.016,-0.034l-0.016,-0.032l-0.017,-0.033l-0.018,-0.032l-0.018,-0.032l-0.019,-0.031l-0.021,-0.031l-0.021,-0.031l-0.021,-0.029l-0.023,-0.03l-0.023,-0.029l-0.024,-0.028l-0.025,-0.028l-0.025,-0.027l-0.036,-0.036l-0.032,-0.032l-0.029,-0.028l-0.022,-0.021l-0.022,-0.02l-0.022,-0.019l-0.023,-0.019l-0.023,-0.019l-0.023,-0.017l-0.023,-0.017l-0.023,-0.017l-0.024,-0.016l-0.024,-0.016l-0.024,-0.015l-0.024,-0.014l-0.024,-0.014l-0.025,-0.014l-0.025,-0.013l-0.025,-0.012l-0.025,-0.012l-0.025,-0.012l-0.026,-0.011l-0.025,-0.01l-0.026,-0.01l-0.026,-0.01l-0.026,-0.009l-0.027,-0.009l-0.026,-0.008l-0.027,-0.007l-0.027,-0.008l-0.027,-0.006l-0.027,-0.006l-0.027,-0.006l-0.793,-0.149l-0.529,-0.685l-0.061,-0.076l-0.061,-0.077l-0.062,-0.075l-0.062,-0.076l-0.063,-0.075l-0.064,-0.074l-0.064,-0.074l-0.065,-0.074l-0.066,-0.073l-0.066,-0.072l-0.067,-0.072l-0.067,-0.072l-0.068,-0.071l-0.069,-0.07l-0.068,-0.069l-0.108,-0.106l-0.107,-0.103l-0.108,-0.102l-0.11,-0.101l-0.111,-0.099l-0.111,-0.097l-0.113,-0.096l-0.114,-0.094l-0.115,-0.093l-0.116,-0.092l-0.117,-0.09l-0.118,-0.088l-0.119,-0.087l-0.12,-0.086l-0.12,-0.083l-0.122,-0.083l-0.123,-0.081l-0.124,-0.079l-0.124,-0.078l-0.126,-0.076l-0.126,-0.074l-0.127,-0.073l-0.128,-0.071l-0.129,-0.07l-0.13,-0.068l-0.13,-0.067l-0.132,-0.065l-0.132,-0.063l-0.132,-0.062l-0.134,-0.06l-0.134,-0.059l-0.135,-0.057l-0.135,-0.055l-0.137,-0.053l-0.136,-0.052l-0.138,-0.05l-0.138,-0.049l-0.139,-0.047l-0.139,-0.045l-0.14,-0.043l-0.14,-0.042l-0.141,-0.04l-0.142,-0.038l-0.142,-0.037l-0.143,-0.035l-0.143,-0.033l-0.143,-0.032l-0.144,-0.029l-0.144,-0.028l-0.145,-0.026l-0.145,-0.025l-0.146,-0.022l-0.146,-0.021l-0.146,-0.019l-0.147,-0.018l-0.147,-0.015l-0.147,-0.014l-0.148,-0.012l-0.148,-0.01l-0.148,-0.008l-0.148,-0.007l-0.149,-0.004l-0.149,-0.003l-0.151,-0.001l-0.09,0Z"/></g><g id="emoji"><path d="M30,16c0,-3.713 -1.475,-7.274 -4.101,-9.899c-2.625,-2.626 -6.186,-4.101 -9.899,-4.101c0,0 0,0 0,0c-7.732,0 -14,6.268 -14,14c0,0.669 0,1.337 0,2c0,6.627 5.373,12 12,12c1.325,0 2.675,0 4,0c6.627,0 12,-5.373 12,-12c0,-0.663 0,-1.331 0,-2Z" style="fill:#fbc546;"/><path d="M24.078,20.003l0.078,0.009l0.077,0.016l0.076,0.021l0.074,0.027l0.071,0.033l0.068,0.038l0.066,0.044l0.061,0.049l0.058,0.053l0.053,0.058l0.049,0.061l0.044,0.066l0.038,0.068l0.033,0.071l0.027,0.074l0.021,0.076l0.016,0.077l0.009,0.078l0.003,0.078l-0.003,0.078l-0.009,0.078l-0.016,0.077l-0.021,0.076l-0.027,0.074l-0.033,0.071l-0.038,0.068l-0.044,0.066l-0.049,0.061l-0.053,0.058l-1.883,1.883l-0.067,0.065l-0.072,0.068l-0.074,0.065l-0.076,0.064l-0.077,0.061l-0.078,0.06l-0.08,0.057l-0.081,0.055l-0.082,0.054l-0.083,0.051l-0.085,0.049l-0.085,0.047l-0.087,0.045l-0.088,0.043l-0.089,0.041l-0.089,0.038l-0.091,0.036l-0.091,0.034l-0.093,0.032l-0.093,0.03l-0.093,0.027l-0.095,0.025l-0.095,0.022l-0.096,0.021l-0.096,0.018l-0.097,0.016l-0.098,0.013l-0.098,0.011l-0.098,0.008l-0.099,0.007l-0.099,0.003l-0.099,0.001l-0.099,-0.001l-0.099,-0.003l-0.099,-0.007l-0.098,-0.008l-0.098,-0.011l-0.098,-0.013l-0.097,-0.016l-0.096,-0.018l-0.096,-0.021l-0.095,-0.022l-0.095,-0.025l-0.093,-0.027l-0.093,-0.03l-0.093,-0.032l-0.091,-0.034l-0.091,-0.036l-0.089,-0.038l-0.089,-0.041l-0.088,-0.043l-0.087,-0.045l-0.085,-0.047l-0.085,-0.049l-0.083,-0.051l-0.082,-0.054l-0.081,-0.055l-0.08,-0.057l-0.078,-0.06l-0.077,-0.061l-0.076,-0.064l-0.074,-0.065l-0.072,-0.068l-0.067,-0.065l-1.167,-1.167l-0.009,-0.008l-0.009,0.008l-1.167,1.167l-0.067,0.065l-0.072,0.068l-0.074,0.065l-0.076,0.064l-0.077,0.061l-0.078,0.06l-0.08,0.057l-0.081,0.055l-0.082,0.054l-0.083,0.051l-0.085,0.049l-0.085,0.047l-0.087,0.045l-0.088,0.043l-0.089,0.041l-0.089,0.038l-0.091,0.036l-0.091,0.034l-0.093,0.032l-0.093,0.03l-0.093,0.027l-0.095,0.025l-0.095,0.022l-0.096,0.021l-0.096,0.018l-0.097,0.016l-0.098,0.013l-0.098,0.011l-0.098,0.008l-0.099,0.007l-0.099,0.003l-0.099,0.001l-0.099,-0.001l-0.099,-0.003l-0.099,-0.007l-0.098,-0.008l-0.098,-0.011l-0.098,-0.013l-0.097,-0.016l-0.096,-0.018l-0.096,-0.021l-0.095,-0.022l-0.095,-0.025l-0.093,-0.027l-0.093,-0.03l-0.093,-0.032l-0.091,-0.034l-0.091,-0.036l-0.089,-0.038l-0.089,-0.041l-0.088,-0.043l-0.087,-0.045l-0.085,-0.047l-0.085,-0.049l-0.083,-0.051l-0.082,-0.054l-0.081,-0.055l-0.08,-0.057l-0.078,-0.06l-0.077,-0.061l-0.076,-0.064l-0.074,-0.065l-0.072,-0.068l-0.067,-0.065l-1.883,-1.883l-0.053,-0.058l-0.049,-0.061l-0.044,-0.066l-0.038,-0.068l-0.033,-0.071l-0.027,-0.074l-0.021,-0.076l-0.016,-0.077l-0.009,-0.078l-0.003,-0.078l0.003,-0.078l0.009,-0.078l0.016,-0.077l0.021,-0.076l0.027,-0.074l0.033,-0.071l0.038,-0.068l0.044,-0.066l0.049,-0.061l0.053,-0.058l0.058,-0.053l0.061,-0.049l0.066,-0.044l0.068,-0.038l0.071,-0.033l0.074,-0.027l0.076,-0.021l0.077,-0.016l0.078,-0.009l0.078,-0.003l0.078,0.003l0.078,0.009l0.077,0.016l0.076,0.021l0.074,0.027l0.071,0.033l0.068,0.038l0.066,0.044l0.061,0.049l0.058,0.053l1.874,1.874l0.04,0.039l0.037,0.034l0.037,0.033l0.038,0.031l0.038,0.031l0.039,0.03l0.04,0.029l0.04,0.027l0.041,0.027l0.042,0.026l0.042,0.024l0.043,0.024l0.044,0.022l0.043,0.022l0.045,0.02l0.045,0.019l0.045,0.018l0.046,0.017l0.046,0.016l0.046,0.015l0.047,0.013l0.048,0.013l0.047,0.011l0.048,0.011l0.048,0.009l0.049,0.007l0.048,0.007l0.049,0.005l0.049,0.005l0.05,0.003l0.049,0.002l0.05,0l0.05,0l0.049,-0.002l0.05,-0.003l0.049,-0.005l0.049,-0.005l0.048,-0.007l0.049,-0.007l0.048,-0.009l0.048,-0.011l0.047,-0.011l0.048,-0.013l0.047,-0.013l0.046,-0.015l0.046,-0.016l0.046,-0.017l0.045,-0.018l0.045,-0.019l0.045,-0.02l0.043,-0.022l0.044,-0.022l0.043,-0.024l0.042,-0.024l0.042,-0.026l0.041,-0.027l0.04,-0.027l0.04,-0.029l0.039,-0.03l0.038,-0.031l0.038,-0.031l0.037,-0.033l0.037,-0.034l0.04,-0.039l1.175,-1.176l0.063,-0.059l0.075,-0.065l0.078,-0.061l0.08,-0.056l0.083,-0.052l0.085,-0.048l0.087,-0.044l0.089,-0.04l0.091,-0.035l0.093,-0.031l0.094,-0.026l0.096,-0.021l0.097,-0.017l0.097,-0.012l0.099,-0.008l0.099,-0.002l0.099,0.002l0.099,0.008l0.097,0.012l0.097,0.017l0.096,0.021l0.094,0.026l0.093,0.031l0.091,0.035l0.089,0.04l0.087,0.044l0.085,0.048l0.083,0.052l0.08,0.056l0.078,0.061l0.075,0.065l0.063,0.059l1.175,1.176l0.04,0.039l0.037,0.034l0.037,0.033l0.038,0.031l0.038,0.031l0.039,0.03l0.04,0.029l0.04,0.027l0.041,0.027l0.042,0.026l0.042,0.024l0.043,0.024l0.044,0.022l0.043,0.022l0.045,0.02l0.045,0.019l0.045,0.018l0.046,0.017l0.046,0.016l0.046,0.015l0.047,0.013l0.048,0.013l0.047,0.011l0.048,0.011l0.048,0.009l0.049,0.007l0.048,0.007l0.049,0.005l0.049,0.005l0.05,0.003l0.049,0.002l0.05,0l0.05,0l0.049,-0.002l0.05,-0.003l0.049,-0.005l0.049,-0.005l0.048,-0.007l0.049,-0.007l0.048,-0.009l0.048,-0.011l0.047,-0.011l0.048,-0.013l0.047,-0.013l0.046,-0.015l0.046,-0.016l0.046,-0.017l0.045,-0.018l0.045,-0.019l0.045,-0.02l0.043,-0.022l0.044,-0.022l0.043,-0.024l0.042,-0.024l0.042,-0.026l0.041,-0.027l0.04,-0.027l0.04,-0.029l0.039,-0.03l0.038,-0.031l0.038,-0.031l0.037,-0.033l0.037,-0.034l0.04,-0.039l1.874,-1.874l0.058,-0.053l0.061,-0.049l0.066,-0.044l0.068,-0.038l0.071,-0.033l0.074,-0.027l0.076,-0.021l0.077,-0.016l0.078,-0.009l0.078,-0.003l0.078,0.003Z" style="fill:#593604;"/><path d="M23.464,19c0,0 -3.159,-3.173 -5.498,-5.522c-1.363,-1.37 -1.36,-3.584 0.006,-4.95c0.014,-0.014 0.028,-0.028 0.042,-0.042c0.659,-0.659 1.552,-1.028 2.484,-1.026c0.931,0.001 1.823,0.374 2.48,1.034c0.29,0.293 0.486,0.49 0.486,0.49c0,0 0.232,-0.228 0.567,-0.558c1.369,-1.345 3.564,-1.339 4.925,0.013c0.016,0.016 0.032,0.032 0.048,0.048c0.662,0.656 1.034,1.548 1.036,2.48c0.001,0.931 -0.368,1.825 -1.027,2.484c-2.36,2.36 -5.549,5.549 -5.549,5.549Z" style="fill:#d92020;"/><path d="M8.464,19c0,0 -3.159,-3.173 -5.498,-5.522c-1.363,-1.37 -1.36,-3.584 0.006,-4.95c0.014,-0.014 0.028,-0.028 0.042,-0.042c0.659,-0.659 1.552,-1.028 2.484,-1.026c0.931,0.001 1.823,0.374 2.48,1.034c0.29,0.293 0.486,0.49 0.486,0.49c0,0 0.232,-0.228 0.567,-0.558c1.369,-1.345 3.564,-1.339 4.925,0.013c0.016,0.016 0.032,0.032 0.048,0.048c0.662,0.656 1.034,1.548 1.036,2.48c0.001,0.931 -0.368,1.825 -1.027,2.484c-2.36,2.36 -5.549,5.549 -5.549,5.549Z" style="fill:#d92020;"/></g></g></svg>