<?xml version="1.0" encoding="UTF-8" standalone="no"?>
<!DOCTYPE svg PUBLIC "-//W3C//DTD SVG 1.1//EN" "http://www.w3.org/Graphics/SVG/1.1/DTD/svg11.dtd">
<svg width="100%" height="100%" viewBox="0 0 32 32" version="1.1" xmlns="http://www.w3.org/2000/svg" xmlns:xlink="http://www.w3.org/1999/xlink" xml:space="preserve" xmlns:serif="http://www.serif.com/" style="fill-rule:evenodd;clip-rule:evenodd;stroke-linecap:round;stroke-miterlimit:1.5;">
    <rect id="heart_eyes" x="0" y="0" width="32" height="32" style="fill:none;"/>
    <clipPath id="_clip1">
        <rect x="0" y="0" width="32" height="32"/>
    </clipPath>
    <g clip-path="url(#_clip1)">
        <g id="outline">
            <path d="M16,0c4.243,0 8.313,1.686 11.314,4.686c0.329,0.329 0.642,0.671 0.939,1.025c0.771,0.261 1.496,0.697 2.112,1.308c0.016,0.016 0.033,0.032 0.049,0.048c1.038,1.031 1.623,2.433 1.626,3.896c0.001,0.664 -0.118,1.316 -0.345,1.927c0.201,1.017 0.305,2.058 0.305,3.11l0,2c0,7.732 -6.268,14 -14,14c-1.325,0 -2.675,0 -4,0c-7.732,0 -14,-6.268 -14,-14l0,-2c0,-1.049 0.101,-2.075 0.294,-3.068c-0.731,-1.956 -0.309,-4.245 1.264,-5.818c0.014,-0.014 0.028,-0.028 0.042,-0.042c0.599,-0.599 1.322,-1.046 2.108,-1.315c2.887,-3.461 7.207,-5.683 12.049,-5.755l0.243,-0.002Z"/>
        </g>
        <g id="emoji">
            <path d="M30,16c0,-3.713 -1.475,-7.274 -4.101,-9.899c-2.625,-2.626 -6.186,-4.101 -9.899,-4.101l0,0c-7.732,0 -14,6.268 -14,14l0,2c0,6.627 5.373,12 12,12l4,0c6.627,0 12,-5.373 12,-12l0,-2Z" style="fill:#fbc546;"/>
            <path d="M8,21c0,0 0.921,0.921 1.879,1.879c0.562,0.562 1.325,0.878 2.121,0.878c0.796,0 1.559,-0.316 2.121,-0.878c0.424,-0.424 0.839,-0.839 1.172,-1.172c0.187,-0.187 0.442,-0.293 0.707,-0.293c0.265,0 0.52,0.106 0.707,0.293c0.333,0.333 0.748,0.748 1.172,1.172c0.562,0.562 1.325,0.878 2.121,0.878c0.796,0 1.559,-0.316 2.121,-0.878c0.958,-0.958 1.879,-1.879 1.879,-1.879" style="fill:none;stroke:#593604;stroke-width:2px;"/>
            <path d="M23.464,19c0,0 -3.159,-3.173 -5.498,-5.522c-1.363,-1.37 -1.36,-3.584 0.006,-4.95c0.014,-0.014 0.028,-0.028 0.042,-0.042c0.659,-0.659 1.552,-1.028 2.484,-1.026c0.931,0.001 1.823,0.374 2.48,1.034c0.29,0.293 0.486,0.49 0.486,0.49c0,0 0.232,-0.228 0.567,-0.558c1.369,-1.345 3.564,-1.339 4.925,0.013c0.016,0.016 0.032,0.032 0.048,0.048c0.662,0.656 1.034,1.548 1.036,2.48c0.001,0.931 -0.368,1.825 -1.027,2.484c-2.36,2.36 -5.549,5.549 -5.549,5.549Z" style="fill:#d92020;"/>
            <path d="M8.464,19c0,0 -3.159,-3.173 -5.498,-5.522c-1.363,-1.37 -1.36,-3.584 0.006,-4.95c0.014,-0.014 0.028,-0.028 0.042,-0.042c0.659,-0.659 1.552,-1.028 2.484,-1.026c0.931,0.001 1.823,0.374 2.48,1.034c0.29,0.293 0.486,0.49 0.486,0.49c0,0 0.232,-0.228 0.567,-0.558c1.369,-1.345 3.564,-1.339 4.925,0.013c0.016,0.016 0.032,0.032 0.048,0.048c0.662,0.656 1.034,1.548 1.036,2.48c0.001,0.931 -0.368,1.825 -1.027,2.484c-2.36,2.36 -5.549,5.549 -5.549,5.549Z" style="fill:#d92020;"/>
        </g>
    </g>
</svg>
