<?xml version="1.0" encoding="UTF-8" standalone="no"?>
<!DOCTYPE svg PUBLIC "-//W3C//DTD SVG 1.1//EN" "http://www.w3.org/Graphics/SVG/1.1/DTD/svg11.dtd">
<svg width="100%" height="100%" viewBox="0 0 32 32" version="1.1" xmlns="http://www.w3.org/2000/svg" xmlns:xlink="http://www.w3.org/1999/xlink" xml:space="preserve" xmlns:serif="http://www.serif.com/" style="fill-rule:evenodd;clip-rule:evenodd;stroke-linecap:round;stroke-miterlimit:1.5;">
    <rect id="hug" x="0" y="0" width="32" height="32" style="fill:none;"/>
    <clipPath id="_clip1">
        <rect x="0" y="0" width="32" height="32"/>
    </clipPath>
    <g clip-path="url(#_clip1)">
        <g id="outline">
            <path d="M5.139,22.523c-1.344,-1.823 -2.139,-4.077 -2.139,-6.517l0,-1.008c0,-7.179 5.819,-12.998 12.998,-12.998l0.002,0c7.18,0 13,5.82 13,13c0,0.336 0,0.672 0,1.006c0,2.44 -0.795,4.694 -2.139,6.517c0.203,0.097 0.391,0.229 0.553,0.391c0.38,0.38 0.792,0.792 1.172,1.172c0.375,0.375 0.586,0.884 0.586,1.414c0,0.53 -0.211,1.039 -0.586,1.414c-0.555,0.555 -1.211,1.211 -1.851,1.851c-1.51,1.51 -3.96,1.51 -5.47,0c0,0 -0.001,-0.001 -0.001,-0.001c-0.547,-0.547 -0.903,-1.244 -1.034,-1.989c-0.718,0.147 -1.462,0.225 -2.224,0.225c-1.328,0 -2.684,0 -4.012,0c-0.762,0 -1.506,-0.078 -2.224,-0.225c-0.131,0.745 -0.487,1.442 -1.034,1.989c0,0 -0.001,0.001 -0.001,0.001c-1.51,1.51 -3.96,1.51 -5.47,0c-0.64,-0.64 -1.296,-1.296 -1.851,-1.851c-0.375,-0.375 -0.586,-0.884 -0.586,-1.414c0,-0.53 0.211,-1.039 0.586,-1.414c0.38,-0.38 0.792,-0.792 1.172,-1.172c0.162,-0.162 0.35,-0.294 0.553,-0.391Z" style="fill:#fbc546;"/>
            <path d="M16,0c8.284,0 15,6.716 15,15c0,0.336 0,0.672 0,1.006c0,2.217 -0.556,4.304 -1.535,6.13l0.535,0.536c0.75,0.75 1.172,1.767 1.172,2.828c0,1.061 -0.422,2.078 -1.172,2.828c-0.555,0.555 -1.211,1.211 -1.851,1.851c-2.291,2.292 -6.007,2.292 -8.298,0c-0.001,0 -0.001,0 -0.001,-0.001c-0.365,-0.364 -0.674,-0.772 -0.924,-1.211c-0.304,0.022 -0.611,0.033 -0.92,0.033c-1.328,0 -2.684,0 -4.012,0c-0.309,0 -0.616,-0.011 -0.92,-0.033c-0.25,0.439 -0.559,0.847 -0.924,1.211c0,0.001 0,0.001 -0.001,0.001c-2.291,2.292 -6.007,2.292 -8.298,0c-0.64,-0.64 -1.296,-1.296 -1.851,-1.851c-0.75,-0.75 -1.172,-1.767 -1.172,-2.828c0,-1.061 0.422,-2.078 1.172,-2.828l0.535,-0.536c-0.979,-1.826 -1.535,-3.913 -1.535,-6.13l0,-1.008c0,-8.283 6.715,-14.998 14.998,-14.998l0.002,0Z"/>
        </g>
        <g id="emoji">
            <path d="M27.899,20.808c-1.312,0.709 -3.147,4.819 -6.899,4.786c-3.144,-0.027 -6.856,-0.027 -10,0c-3.752,0.033 -6.165,-4.222 -6.899,-4.786c-0.705,-1.451 -1.101,-3.08 -1.101,-4.802l0,-1.008c0,-0.241 0.007,-0.48 0.019,-0.718c0.532,-0.215 0.305,-0.627 0.082,-0.909c0.8,-6.411 6.269,-11.371 12.897,-11.371l0.002,0c6.628,0 12.097,4.96 12.899,11.37c-0.472,0.21 -0.511,0.611 0.081,0.911c0.013,0.238 0.02,0.478 0.02,0.719c0,0.336 0,0.672 0,1.006c0,1.722 -0.396,3.351 -1.101,4.802Z" style="fill:#fbc546;"/>
            <path d="M18.299,24.701l-0.089,0.801c-0.056,0.503 -0.045,1.006 0.03,1.496c-0.078,0.001 -0.156,0.002 -0.234,0.002l-4.012,0c-0.053,0 -0.106,-0.001 -0.16,-0.001c-0.017,0 -0.035,-0.001 -0.053,-0.001c-0.007,0 -0.019,0.006 -0.021,0c-0.005,-0.015 0.004,-0.031 0.007,-0.046c0.004,-0.031 0.008,-0.062 0.012,-0.093c0.014,-0.107 0.025,-0.216 0.032,-0.324c0.024,-0.344 0.016,-0.69 -0.021,-1.033l-0.089,-0.801l0.299,0.299l4,0l0.299,-0.299Zm5.483,-3.701c-0.218,0.145 -0.423,0.312 -0.61,0.5l-0.672,0.672l-0.586,-0.586c-0.042,-0.042 -0.086,-0.082 -0.131,-0.12c0.572,-0.303 1.215,-0.466 1.874,-0.466l0.125,0Zm-15.564,0l0.125,0c0.659,0 1.302,0.163 1.874,0.466c-0.045,0.038 -0.089,0.078 -0.131,0.12l-0.586,0.586l-0.672,-0.672c-0.187,-0.188 -0.392,-0.355 -0.61,-0.5Z" style="fill:#e59a10;"/>
            <path d="M4.101,20.808c0.578,-0.312 1.23,-0.48 1.899,-0.48c1.061,0 2.078,0.422 2.828,1.172l0.672,0.672l0.586,-0.586c0.543,-0.544 1.351,-0.728 2.076,-0.473c0.725,0.254 1.241,0.902 1.326,1.666l0.302,2.723c0.056,0.503 0.045,1.006 -0.03,1.496c-4.251,-0.089 -7.908,-2.59 -9.659,-6.19Zm14.139,6.19c-0.075,-0.49 -0.086,-0.993 -0.03,-1.496l0.302,-2.723c0.085,-0.764 0.601,-1.412 1.326,-1.666c0.725,-0.255 1.533,-0.071 2.076,0.473l0.586,0.586l0.672,-0.672c0.75,-0.75 1.767,-1.172 2.828,-1.172c0.669,0 1.321,0.168 1.899,0.48c-1.751,3.6 -5.408,6.101 -9.659,6.19Z" style="fill:#7e5108;"/>
            <path d="M7.293,11.207c0.39,0.391 1.024,0.391 1.414,0c0.001,-0.001 0.001,-0.001 0.001,-0.001c0.475,-0.475 1.12,-0.742 1.792,-0.742c0.672,0 1.317,0.267 1.792,0.742c0,0 0,0.001 0.002,0.002c0.187,0.187 0.441,0.292 0.706,0.292c0.265,0 0.519,-0.105 0.706,-0.292c0.001,0 0.001,-0.001 0.001,-0.001c0.391,-0.39 0.391,-1.024 0,-1.414c-0.001,-0.001 -0.001,-0.001 -0.001,-0.001c-0.85,-0.85 -2.004,-1.328 -3.206,-1.328c-1.202,0 -2.356,0.478 -3.206,1.328c0,0 -0.001,0 -0.002,0.002c-0.187,0.187 -0.292,0.441 -0.292,0.706c0,0.265 0.105,0.519 0.292,0.706c0,0.001 0.001,0.001 0.001,0.001Zm17.414,0c-0.39,0.391 -1.024,0.391 -1.414,0c-0.001,-0.001 -0.001,-0.001 -0.001,-0.001c-0.475,-0.475 -1.12,-0.742 -1.792,-0.742c-0.672,0 -1.317,0.267 -1.792,0.742c0,0 0,0.001 -0.002,0.002c-0.187,0.187 -0.441,0.292 -0.706,0.292c-0.265,0 -0.519,-0.105 -0.706,-0.292c-0.001,0 -0.001,-0.001 -0.001,-0.001c-0.391,-0.39 -0.391,-1.024 0,-1.414c0.001,-0.001 0.001,-0.001 0.001,-0.001c0.85,-0.85 2.004,-1.328 3.206,-1.328c1.202,0 2.356,0.478 3.206,1.328c0,0 0.001,0 0.002,0.002c0.187,0.187 0.292,0.441 0.292,0.706c0,0.265 -0.105,0.519 -0.292,0.706c0,0.001 -0.001,0.001 -0.001,0.001Z"/>
            <path d="M20.197,25.723c-0.124,1.123 0.268,2.242 1.067,3.041c0,0 0.001,0.001 0.001,0.001c1.51,1.51 3.96,1.51 5.47,0c0.64,-0.64 1.296,-1.296 1.851,-1.851c0.375,-0.375 0.586,-0.884 0.586,-1.414c0,-0.53 -0.211,-1.039 -0.586,-1.414c-0.38,-0.38 -0.792,-0.792 -1.172,-1.172c-0.375,-0.375 -0.884,-0.586 -1.414,-0.586c-0.53,0 -1.039,0.211 -1.414,0.586c-0.971,0.971 -2.086,2.086 -2.086,2.086l-2,-2c0,0 -0.163,1.465 -0.303,2.723Zm-8.394,0c0.124,1.123 -0.268,2.242 -1.067,3.041c0,0 -0.001,0.001 -0.001,0.001c-1.51,1.51 -3.96,1.51 -5.47,0c-0.64,-0.64 -1.296,-1.296 -1.851,-1.851c-0.375,-0.375 -0.586,-0.884 -0.586,-1.414c0,-0.53 0.211,-1.039 0.586,-1.414c0.38,-0.38 0.792,-0.792 1.172,-1.172c0.375,-0.375 0.884,-0.586 1.414,-0.586c0.53,0 1.039,0.211 1.414,0.586c0.971,0.971 2.086,2.086 2.086,2.086l2,-2c0,0 0.163,1.465 0.303,2.723Z" style="fill:#fbc546;"/>
            <path d="M28.98,14.281c-0.136,0.971 -0.971,1.719 -1.98,1.719c-1.222,0 -2.778,0 -4,0c-1.105,0 -2,-0.895 -2,-2c0,-1.105 0.895,-2 2,-2c1.222,0 2.778,0 4,0c0.885,0 1.635,0.574 1.899,1.37c0.037,0.301 0.065,0.604 0.081,0.911Zm-25.879,-0.91c0.263,-0.796 1.014,-1.371 1.899,-1.371c1.222,0 2.778,0 4,0c1.105,0 2,0.895 2,2c0,0 0,0 0,0c0,1.105 -0.895,2 -2,2c-1.222,0 -2.778,0 -4,0c-1.009,0 -1.844,-0.748 -1.981,-1.72c0.017,-0.306 0.044,-0.609 0.082,-0.909Z" style="fill:#ed6b44;"/>
            <path d="M10,15c0,0 0.385,0.385 0.879,0.879c1.358,1.358 3.2,2.121 5.121,2.121c0,0 0,0 0,0c1.921,0 3.763,-0.763 5.121,-2.121c0.494,-0.494 0.879,-0.879 0.879,-0.879" style="fill:none;stroke:#593604;stroke-width:2px;"/>
        </g>
    </g>
</svg>
