<?xml version="1.0" encoding="UTF-8" standalone="no"?><!DOCTYPE svg PUBLIC "-//W3C//DTD SVG 1.1//EN" "http://www.w3.org/Graphics/SVG/1.1/DTD/svg11.dtd"><svg width="100%" height="100%" viewBox="0 0 32 32" version="1.1" xmlns="http://www.w3.org/2000/svg" xmlns:xlink="http://www.w3.org/1999/xlink" xml:space="preserve" xmlns:serif="http://www.serif.com/" style="fill-rule:evenodd;clip-rule:evenodd;stroke-linejoin:round;stroke-miterlimit:1.41421;"><rect id="hug" x="0" y="0" width="32" height="32" style="fill:none;"/><clipPath id="_clip1"><rect x="0" y="0" width="32" height="32"/></clipPath><g clip-path="url(#_clip1)"><g id="outline"><path d="M16.193,0.001l0.193,0.004l0.192,0.006l0.192,0.008l0.191,0.011l0.191,0.014l0.19,0.015l0.189,0.018l0.189,0.021l0.188,0.022l0.187,0.025l0.187,0.028l0.186,0.029l0.185,0.032l0.184,0.034l0.184,0.037l0.183,0.038l0.182,0.041l0.181,0.043l0.18,0.045l0.18,0.048l0.178,0.049l0.178,0.052l0.177,0.054l0.176,0.056l0.175,0.058l0.174,0.06l0.173,0.062l0.171,0.064l0.171,0.066l0.17,0.068l0.169,0.071l0.168,0.072l0.167,0.074l0.166,0.076l0.164,0.078l0.164,0.08l0.162,0.082l0.161,0.084l0.16,0.086l0.159,0.087l0.158,0.09l0.156,0.091l0.156,0.093l0.154,0.095l0.152,0.096l0.152,0.099l0.15,0.1l0.149,0.102l0.148,0.103l0.146,0.106l0.145,0.107l0.144,0.109l0.142,0.11l0.141,0.112l0.139,0.114l0.138,0.115l0.137,0.117l0.135,0.119l0.134,0.12l0.132,0.122l0.131,0.123l0.13,0.125l0.128,0.126l0.126,0.128l0.125,0.13l0.123,0.131l0.122,0.132l0.12,0.134l0.119,0.135l0.117,0.137l0.115,0.138l0.114,0.139l0.112,0.141l0.11,0.142l0.109,0.144l0.107,0.145l0.105,0.146l0.104,0.148l0.102,0.149l0.1,0.15l0.099,0.152l0.096,0.152l0.095,0.154l0.093,0.156l0.091,0.156l0.09,0.158l0.087,0.159l0.086,0.16l0.084,0.161l0.082,0.162l0.08,0.164l0.078,0.164l0.076,0.166l0.074,0.167l0.072,0.168l0.071,0.169l0.068,0.17l0.066,0.171l0.064,0.172l0.062,0.173l0.06,0.173l0.058,0.175l0.056,0.176l0.054,0.177l0.052,0.178l0.049,0.178l0.048,0.18l0.045,0.18l0.043,0.181l0.041,0.182l0.038,0.183l0.037,0.184l0.034,0.184l0.032,0.185l0.029,0.186l0.028,0.187l0.025,0.187l0.022,0.188l0.021,0.189l0.018,0.189l0.015,0.19l0.014,0.191l0.011,0.191l0.008,0.192l0.006,0.192l0.004,0.193l0.001,0.187l0,1.018l-0.001,0.161l-0.003,0.167l-0.005,0.167l-0.008,0.166l-0.009,0.166l-0.012,0.165l-0.013,0.164l-0.016,0.164l-0.018,0.164l-0.019,0.162l-0.022,0.163l-0.024,0.161l-0.025,0.161l-0.028,0.161l-0.029,0.16l-0.032,0.159l-0.033,0.158l-0.036,0.158l-0.037,0.157l-0.039,0.156l-0.041,0.155l-0.043,0.155l-0.045,0.154l-0.046,0.153l-0.049,0.153l-0.05,0.151l-0.052,0.151l-0.054,0.15l-0.056,0.149l-0.057,0.148l-0.059,0.147l-0.061,0.146l-0.062,0.146l-0.065,0.144l-0.066,0.144l-0.067,0.143l-0.07,0.141l-0.071,0.141l-0.072,0.139l-0.074,0.139l-0.076,0.138l-0.078,0.136l-0.079,0.136l-0.08,0.134l-0.083,0.134l-0.083,0.132l-0.086,0.131l-0.086,0.13l-0.089,0.129l-0.089,0.128l-0.092,0.127l-0.092,0.126l-0.095,0.124l-0.095,0.123l-0.097,0.122l-0.099,0.121l-0.1,0.12l-0.101,0.118l-0.103,0.117l-0.104,0.116l-0.105,0.115l-0.107,0.113l-0.108,0.112l-0.11,0.111l-0.111,0.11l-0.112,0.108l-0.113,0.107l-0.115,0.105l-0.116,0.104l-0.117,0.103l-0.118,0.101l-0.12,0.1l-0.121,0.099l-0.122,0.097l-0.123,0.095l-0.124,0.095l-0.126,0.092l-0.127,0.092l-0.128,0.089l-0.129,0.089l-0.13,0.086l-0.131,0.086l-0.132,0.083l-0.134,0.083l-0.134,0.08l-0.136,0.079l-0.136,0.078l-0.138,0.076l-0.139,0.074l-0.139,0.072l-0.141,0.071l-0.141,0.07l-0.143,0.067l-0.144,0.066l-0.144,0.065l-0.146,0.062l-0.146,0.061l-0.147,0.059l-0.148,0.057l-0.149,0.056l-0.15,0.054l-0.151,0.052l-0.151,0.05l-0.153,0.049l-0.153,0.046l-0.154,0.045l-0.155,0.043l-0.155,0.041l-0.156,0.039l-0.157,0.037l-0.158,0.036l-0.158,0.033l-0.159,0.032l-0.16,0.029l-0.161,0.028l-0.161,0.025l-0.161,0.024l-0.163,0.022l-0.162,0.019l-0.164,0.018l-0.164,0.016l-0.164,0.013l-0.166,0.012l-0.165,0.009l-0.166,0.008l-0.167,0.005l-0.167,0.003l-0.161,0.001l-4.024,0l-0.161,-0.001l-0.167,-0.003l-0.167,-0.005l-0.166,-0.008l-0.165,-0.009l-0.166,-0.012l-0.164,-0.013l-0.164,-0.016l-0.164,-0.018l-0.162,-0.019l-0.163,-0.022l-0.161,-0.024l-0.161,-0.025l-0.161,-0.028l-0.16,-0.029l-0.159,-0.032l-0.158,-0.033l-0.158,-0.036l-0.157,-0.037l-0.156,-0.039l-0.155,-0.041l-0.155,-0.043l-0.154,-0.045l-0.153,-0.046l-0.153,-0.049l-0.151,-0.05l-0.151,-0.052l-0.15,-0.054l-0.149,-0.056l-0.148,-0.057l-0.147,-0.059l-0.146,-0.061l-0.146,-0.062l-0.144,-0.065l-0.144,-0.066l-0.143,-0.067l-0.141,-0.07l-0.141,-0.071l-0.139,-0.072l-0.139,-0.074l-0.138,-0.076l-0.136,-0.078l-0.136,-0.079l-0.134,-0.08l-0.134,-0.083l-0.132,-0.083l-0.131,-0.086l-0.131,-0.086l-0.128,-0.089l-0.128,-0.089l-0.127,-0.092l-0.126,-0.092l-0.124,-0.095l-0.123,-0.095l-0.122,-0.097l-0.121,-0.099l-0.12,-0.1l-0.118,-0.101l-0.117,-0.103l-0.116,-0.104l-0.115,-0.105l-0.113,-0.107l-0.112,-0.108l-0.111,-0.11l-0.11,-0.111l-0.108,-0.112l-0.107,-0.113l-0.105,-0.115l-0.104,-0.116l-0.103,-0.117l-0.101,-0.118l-0.1,-0.12l-0.099,-0.121l-0.097,-0.122l-0.095,-0.123l-0.095,-0.124l-0.092,-0.126l-0.092,-0.127l-0.089,-0.128l-0.089,-0.129l-0.086,-0.13l-0.086,-0.131l-0.083,-0.132l-0.083,-0.134l-0.08,-0.134l-0.079,-0.136l-0.078,-0.136l-0.076,-0.138l-0.074,-0.139l-0.072,-0.139l-0.071,-0.141l-0.07,-0.141l-0.067,-0.143l-0.066,-0.144l-0.065,-0.144l-0.062,-0.146l-0.061,-0.146l-0.059,-0.147l-0.057,-0.148l-0.056,-0.149l-0.054,-0.15l-0.052,-0.151l-0.05,-0.151l-0.049,-0.153l-0.046,-0.153l-0.045,-0.154l-0.043,-0.155l-0.041,-0.155l-0.039,-0.156l-0.037,-0.157l-0.036,-0.158l-0.033,-0.158l-0.032,-0.159l-0.029,-0.16l-0.028,-0.161l-0.025,-0.161l-0.024,-0.161l-0.022,-0.163l-0.019,-0.162l-0.018,-0.164l-0.016,-0.164l-0.013,-0.164l-0.012,-0.165l-0.009,-0.166l-0.008,-0.166l-0.005,-0.167l-0.003,-0.167l-0.001,-0.161l0,-1.02l0.001,-0.187l0.004,-0.193l0.006,-0.192l0.008,-0.192l0.011,-0.191l0.014,-0.191l0.015,-0.19l0.018,-0.189l0.021,-0.189l0.022,-0.188l0.025,-0.187l0.028,-0.187l0.029,-0.185l0.032,-0.186l0.034,-0.184l0.037,-0.184l0.038,-0.182l0.041,-0.182l0.043,-0.181l0.045,-0.181l0.048,-0.179l0.049,-0.179l0.052,-0.177l0.054,-0.177l0.055,-0.176l0.058,-0.175l0.06,-0.174l0.063,-0.173l0.064,-0.172l0.066,-0.171l0.068,-0.17l0.07,-0.169l0.073,-0.167l0.074,-0.167l0.076,-0.166l0.078,-0.164l0.08,-0.164l0.082,-0.162l0.084,-0.161l0.085,-0.16l0.088,-0.159l0.089,-0.158l0.091,-0.156l0.094,-0.155l0.094,-0.154l0.097,-0.153l0.098,-0.152l0.101,-0.15l0.101,-0.149l0.104,-0.147l0.106,-0.147l0.107,-0.145l0.108,-0.143l0.111,-0.143l0.112,-0.14l0.114,-0.14l0.115,-0.138l0.117,-0.137l0.118,-0.135l0.121,-0.134l0.121,-0.132l0.124,-0.131l0.124,-0.129l0.127,-0.128l0.128,-0.127l0.129,-0.124l0.131,-0.124l0.132,-0.121l0.134,-0.121l0.135,-0.118l0.137,-0.117l0.138,-0.116l0.14,-0.113l0.14,-0.112l0.143,-0.111l0.143,-0.108l0.145,-0.107l0.147,-0.106l0.147,-0.104l0.149,-0.101l0.15,-0.101l0.152,-0.098l0.153,-0.097l0.154,-0.094l0.155,-0.094l0.156,-0.091l0.158,-0.089l0.159,-0.088l0.16,-0.085l0.161,-0.084l0.162,-0.082l0.164,-0.08l0.164,-0.078l0.166,-0.076l0.167,-0.074l0.167,-0.073l0.169,-0.07l0.17,-0.068l0.171,-0.066l0.172,-0.064l0.173,-0.063l0.174,-0.06l0.175,-0.058l0.176,-0.055l0.177,-0.054l0.177,-0.052l0.179,-0.049l0.179,-0.048l0.181,-0.045l0.181,-0.043l0.182,-0.041l0.182,-0.038l0.184,-0.037l0.184,-0.034l0.186,-0.032l0.185,-0.029l0.187,-0.028l0.187,-0.025l0.188,-0.022l0.189,-0.021l0.189,-0.018l0.19,-0.015l0.191,-0.014l0.191,-0.011l0.192,-0.008l0.192,-0.006l0.193,-0.004l0.187,-0.001l0.014,0l0.187,0.001Zm-0.338,4l-0.142,0.003l-0.142,0.004l-0.141,0.006l-0.14,0.008l-0.14,0.01l-0.14,0.012l-0.139,0.013l-0.138,0.015l-0.138,0.017l-0.138,0.018l-0.136,0.02l-0.137,0.022l-0.135,0.023l-0.135,0.025l-0.135,0.027l-0.133,0.028l-0.134,0.03l-0.132,0.031l-0.132,0.033l-0.131,0.035l-0.131,0.036l-0.13,0.038l-0.129,0.039l-0.129,0.041l-0.128,0.042l-0.127,0.044l-0.126,0.046l-0.126,0.047l-0.125,0.048l-0.125,0.05l-0.123,0.051l-0.123,0.053l-0.122,0.055l-0.121,0.055l-0.121,0.058l-0.12,0.058l-0.119,0.06l-0.118,0.061l-0.117,0.063l-0.116,0.064l-0.116,0.066l-0.115,0.067l-0.113,0.068l-0.113,0.07l-0.112,0.07l-0.111,0.073l-0.111,0.073l-0.109,0.075l-0.108,0.076l-0.108,0.077l-0.106,0.079l-0.106,0.08l-0.104,0.081l-0.103,0.082l-0.103,0.084l-0.101,0.084l-0.101,0.086l-0.099,0.087l-0.098,0.089l-0.098,0.089l-0.096,0.091l-0.095,0.091l-0.094,0.093l-0.093,0.094l-0.091,0.095l-0.091,0.096l-0.089,0.098l-0.089,0.098l-0.087,0.099l-0.086,0.101l-0.084,0.101l-0.084,0.103l-0.082,0.103l-0.081,0.104l-0.08,0.106l-0.079,0.106l-0.077,0.108l-0.076,0.108l-0.075,0.109l-0.073,0.111l-0.073,0.111l-0.07,0.112l-0.07,0.113l-0.068,0.113l-0.067,0.115l-0.066,0.116l-0.064,0.116l-0.063,0.117l-0.061,0.118l-0.06,0.119l-0.058,0.12l-0.058,0.121l-0.055,0.121l-0.055,0.122l-0.053,0.123l-0.051,0.123l-0.05,0.125l-0.048,0.125l-0.047,0.125l-0.046,0.127l-0.044,0.127l-0.042,0.128l-0.041,0.129l-0.039,0.129l-0.038,0.13l-0.036,0.131l-0.035,0.131l-0.033,0.132l-0.031,0.132l-0.03,0.134l-0.028,0.133l-0.027,0.135l-0.025,0.135l-0.023,0.135l-0.022,0.137l-0.02,0.136l-0.018,0.138l-0.017,0.138l-0.015,0.138l-0.013,0.139l-0.012,0.14l-0.01,0.14l-0.008,0.14l-0.006,0.142l-0.004,0.141l-0.003,0.142l-0.001,0.149l0,0.996l0.001,0.123l0.002,0.116l0.004,0.116l0.005,0.115l0.006,0.116l0.008,0.114l0.01,0.114l0.011,0.114l0.012,0.113l0.013,0.113l0.015,0.112l0.017,0.112l0.017,0.112l0.02,0.11l0.02,0.111l0.022,0.11l0.023,0.109l0.024,0.109l0.026,0.108l0.027,0.108l0.028,0.108l0.03,0.106l0.031,0.107l0.032,0.105l0.033,0.105l0.035,0.105l0.036,0.104l0.037,0.103l0.039,0.103l0.039,0.103l0.041,0.101l0.042,0.101l0.043,0.101l0.045,0.099l0.045,0.1l0.047,0.098l0.048,0.098l0.049,0.097l0.05,0.097l0.051,0.096l0.053,0.095l0.053,0.094l0.055,0.094l0.056,0.093l0.057,0.093l0.058,0.091l0.059,0.091l0.06,0.09l0.061,0.09l0.062,0.088l0.064,0.088l0.064,0.087l0.065,0.086l0.066,0.086l0.068,0.084l0.068,0.084l0.069,0.083l0.071,0.082l0.071,0.081l0.072,0.081l0.073,0.079l0.074,0.079l0.075,0.078l0.076,0.077l0.077,0.076l0.078,0.075l0.079,0.074l0.079,0.073l0.08,0.072l0.082,0.071l0.082,0.071l0.083,0.069l0.084,0.068l0.084,0.068l0.086,0.066l0.086,0.065l0.087,0.064l0.088,0.064l0.088,0.062l0.09,0.061l0.09,0.06l0.091,0.059l0.091,0.058l0.093,0.057l0.093,0.056l0.094,0.055l0.094,0.053l0.095,0.053l0.096,0.051l0.097,0.05l0.097,0.049l0.098,0.048l0.098,0.047l0.1,0.045l0.099,0.045l0.101,0.043l0.101,0.042l0.101,0.041l0.103,0.039l0.103,0.039l0.103,0.037l0.104,0.036l0.105,0.035l0.105,0.033l0.105,0.032l0.107,0.031l0.106,0.03l0.108,0.028l0.108,0.027l0.108,0.026l0.109,0.024l0.109,0.023l0.11,0.022l0.111,0.02l0.11,0.019l0.112,0.018l0.112,0.017l0.112,0.015l0.113,0.013l0.113,0.012l0.114,0.011l0.114,0.01l0.114,0.008l0.115,0.006l0.116,0.005l0.116,0.004l0.116,0.002l0.123,0.001l4,0l0.123,-0.001l0.116,-0.002l0.116,-0.004l0.116,-0.005l0.115,-0.006l0.114,-0.008l0.114,-0.01l0.114,-0.011l0.113,-0.012l0.113,-0.013l0.112,-0.015l0.112,-0.017l0.112,-0.018l0.11,-0.019l0.111,-0.02l0.11,-0.022l0.109,-0.023l0.109,-0.024l0.108,-0.026l0.108,-0.027l0.108,-0.028l0.106,-0.03l0.107,-0.031l0.105,-0.032l0.105,-0.033l0.105,-0.035l0.104,-0.036l0.103,-0.037l0.103,-0.039l0.103,-0.039l0.101,-0.041l0.101,-0.042l0.101,-0.043l0.099,-0.045l0.1,-0.045l0.098,-0.047l0.098,-0.048l0.097,-0.049l0.097,-0.05l0.096,-0.051l0.095,-0.053l0.094,-0.053l0.094,-0.055l0.093,-0.056l0.093,-0.057l0.091,-0.058l0.091,-0.059l0.09,-0.06l0.09,-0.061l0.088,-0.062l0.088,-0.064l0.087,-0.064l0.086,-0.065l0.086,-0.066l0.084,-0.068l0.084,-0.068l0.083,-0.069l0.082,-0.071l0.081,-0.071l0.081,-0.072l0.079,-0.073l0.079,-0.074l0.078,-0.075l0.077,-0.076l0.076,-0.077l0.075,-0.078l0.074,-0.079l0.073,-0.079l0.072,-0.08l0.071,-0.082l0.071,-0.082l0.069,-0.083l0.068,-0.084l0.068,-0.084l0.066,-0.086l0.065,-0.086l0.064,-0.087l0.064,-0.088l0.062,-0.088l0.061,-0.09l0.06,-0.09l0.059,-0.091l0.058,-0.091l0.057,-0.093l0.056,-0.093l0.055,-0.094l0.053,-0.094l0.053,-0.095l0.051,-0.096l0.05,-0.097l0.049,-0.097l0.048,-0.098l0.047,-0.098l0.045,-0.1l0.045,-0.099l0.043,-0.101l0.042,-0.101l0.041,-0.101l0.039,-0.103l0.039,-0.103l0.037,-0.103l0.036,-0.104l0.035,-0.105l0.033,-0.105l0.032,-0.105l0.031,-0.107l0.03,-0.106l0.028,-0.108l0.027,-0.108l0.026,-0.108l0.024,-0.109l0.023,-0.109l0.022,-0.11l0.02,-0.111l0.019,-0.11l0.018,-0.112l0.017,-0.112l0.015,-0.112l0.013,-0.113l0.012,-0.113l0.011,-0.114l0.01,-0.114l0.008,-0.114l0.006,-0.115l0.005,-0.116l0.004,-0.116l0.002,-0.116l0.001,-0.123l0,-0.994l-0.001,-0.149l-0.003,-0.142l-0.004,-0.142l-0.006,-0.141l-0.008,-0.14l-0.01,-0.14l-0.012,-0.14l-0.013,-0.139l-0.015,-0.139l-0.017,-0.138l-0.018,-0.137l-0.02,-0.137l-0.022,-0.136l-0.023,-0.136l-0.025,-0.135l-0.027,-0.134l-0.028,-0.134l-0.03,-0.133l-0.031,-0.133l-0.033,-0.132l-0.035,-0.131l-0.036,-0.131l-0.038,-0.129l-0.039,-0.13l-0.041,-0.128l-0.043,-0.128l-0.044,-0.128l-0.045,-0.126l-0.047,-0.126l-0.048,-0.125l-0.05,-0.124l-0.052,-0.124l-0.053,-0.123l-0.054,-0.122l-0.056,-0.121l-0.057,-0.121l-0.058,-0.12l-0.06,-0.119l-0.062,-0.118l-0.062,-0.117l-0.065,-0.116l-0.065,-0.116l-0.067,-0.115l-0.068,-0.113l-0.07,-0.113l-0.071,-0.112l-0.072,-0.112l-0.073,-0.11l-0.075,-0.109l-0.076,-0.108l-0.078,-0.108l-0.078,-0.106l-0.08,-0.106l-0.081,-0.104l-0.083,-0.104l-0.083,-0.102l-0.085,-0.102l-0.086,-0.1l-0.087,-0.099l-0.088,-0.099l-0.09,-0.097l-0.09,-0.096l-0.092,-0.095l-0.093,-0.094l-0.094,-0.093l-0.095,-0.092l-0.096,-0.09l-0.097,-0.09l-0.099,-0.088l-0.099,-0.087l-0.1,-0.086l-0.102,-0.085l-0.102,-0.083l-0.104,-0.083l-0.104,-0.081l-0.106,-0.08l-0.106,-0.078l-0.108,-0.078l-0.108,-0.076l-0.109,-0.075l-0.11,-0.073l-0.112,-0.072l-0.112,-0.071l-0.113,-0.07l-0.113,-0.068l-0.115,-0.067l-0.116,-0.065l-0.116,-0.065l-0.117,-0.062l-0.119,-0.062l-0.118,-0.06l-0.12,-0.058l-0.121,-0.057l-0.121,-0.056l-0.122,-0.055l-0.123,-0.052l-0.124,-0.052l-0.124,-0.05l-0.125,-0.048l-0.126,-0.047l-0.126,-0.046l-0.128,-0.043l-0.128,-0.043l-0.128,-0.041l-0.13,-0.039l-0.13,-0.038l-0.13,-0.036l-0.131,-0.035l-0.132,-0.033l-0.133,-0.031l-0.133,-0.03l-0.134,-0.028l-0.134,-0.027l-0.135,-0.025l-0.136,-0.023l-0.136,-0.022l-0.137,-0.02l-0.138,-0.018l-0.137,-0.017l-0.139,-0.015l-0.139,-0.013l-0.139,-0.012l-0.141,-0.01l-0.14,-0.008l-0.141,-0.006l-0.142,-0.004l-0.142,-0.003l-0.144,-0.001l-0.144,0.001Z"/></g><g id="emoji"><g><path d="M4.197,21c-0.765,-1.498 -1.197,-3.196 -1.197,-4.994c0,-0.335 0,-0.671 0,-1.008c0,-7.179 5.819,-12.998 12.998,-12.998c0.001,0 0.001,0 0.002,0c7.18,0 13,5.82 13,13c0,0.336 0,0.672 0,1.006c0,1.798 -0.432,3.496 -1.197,4.994l-6.803,5l-9,0l-7.803,-5Z" style="fill:#fbc546;"/><path d="M27.803,21c-1.819,3.562 -5.523,6 -9.797,6c-1.328,0 -2.684,0 -4.012,0c-4.274,0 -7.978,-2.438 -9.797,-6l4.146,0c1.061,0 2.078,0.421 2.829,1.172c1.18,1.18 2.828,2.828 2.828,2.828l4,0c0,0 1.648,-1.648 2.828,-2.828c0.751,-0.751 1.768,-1.172 2.829,-1.172l4.146,0Z" style="fill:#e59a10;"/></g><path d="M11,19l3,3l4,0l3,-3l11,0l0,13l-32,0l0,-13l11,0Z" style="fill:none;"/><clipPath id="_clip2"><path d="M11,19l3,3l4,0l3,-3l11,0l0,13l-32,0l0,-13l11,0Z"/></clipPath><g clip-path="url(#_clip2)"><path d="M20.197,25.723c-0.124,1.123 0.268,2.242 1.067,3.041c0,0 0.001,0.001 0.001,0.001c1.51,1.51 3.96,1.51 5.47,0c0.64,-0.64 1.296,-1.296 1.851,-1.851c0.375,-0.375 0.586,-0.884 0.586,-1.414c0,-0.53 -0.211,-1.039 -0.586,-1.414c-0.38,-0.38 -0.792,-0.792 -1.172,-1.172c-0.375,-0.375 -0.884,-0.586 -1.414,-0.586c-0.53,0 -1.039,0.211 -1.414,0.586c-0.971,0.971 -2.086,2.086 -2.086,2.086l-2,-2c0,0 -0.163,1.465 -0.303,2.723Z" style="fill:#fbc546;"/><path d="M22.5,22.172l0.68,-0.681l0.063,-0.06l0.072,-0.068l0.074,-0.065l0.076,-0.064l0.077,-0.061l0.078,-0.06l0.08,-0.057l0.081,-0.056l0.082,-0.053l0.083,-0.051l0.085,-0.05l0.085,-0.046l0.087,-0.045l0.088,-0.043l0.089,-0.041l0.089,-0.038l0.091,-0.036l0.091,-0.034l0.092,-0.032l0.094,-0.03l0.093,-0.027l0.095,-0.025l0.095,-0.023l0.096,-0.02l0.096,-0.018l0.097,-0.016l0.098,-0.013l0.098,-0.011l0.098,-0.009l0.099,-0.006l0.099,-0.003l0.099,-0.002l0.099,0.002l0.099,0.003l0.099,0.006l0.098,0.009l0.098,0.011l0.098,0.013l0.097,0.016l0.096,0.018l0.096,0.02l0.095,0.023l0.095,0.025l0.093,0.027l0.093,0.03l0.093,0.032l0.091,0.034l0.091,0.036l0.09,0.038l0.088,0.041l0.088,0.043l0.087,0.045l0.085,0.047l0.085,0.049l0.083,0.051l0.082,0.053l0.081,0.056l0.08,0.057l0.078,0.06l0.077,0.061l0.076,0.064l0.074,0.065l0.073,0.068l0.062,0.06l1.189,1.189l0.06,0.062l0.068,0.073l0.065,0.074l0.064,0.076l0.061,0.077l0.06,0.078l0.057,0.08l0.056,0.081l0.053,0.082l0.051,0.083l0.049,0.085l0.048,0.085l0.044,0.087l0.043,0.088l0.041,0.089l0.038,0.089l0.036,0.091l0.034,0.091l0.032,0.093l0.03,0.093l0.027,0.093l0.025,0.095l0.023,0.095l0.02,0.096l0.018,0.096l0.016,0.097l0.013,0.098l0.011,0.098l0.009,0.098l0.006,0.099l0.003,0.099l0.002,0.099l-0.002,0.099l-0.003,0.099l-0.006,0.099l-0.009,0.098l-0.011,0.098l-0.013,0.098l-0.016,0.097l-0.018,0.096l-0.02,0.096l-0.023,0.095l-0.025,0.095l-0.027,0.094l-0.03,0.093l-0.032,0.092l-0.033,0.091l-0.037,0.091l-0.038,0.09l-0.041,0.088l-0.043,0.088l-0.045,0.087l-0.047,0.085l-0.049,0.085l-0.051,0.083l-0.053,0.082l-0.056,0.081l-0.057,0.08l-0.06,0.078l-0.061,0.077l-0.064,0.076l-0.065,0.074l-0.068,0.073l-0.06,0.062l-1.869,1.868l-0.098,0.096l-0.11,0.102l-0.112,0.099l-0.115,0.095l-0.116,0.093l-0.117,0.089l-0.12,0.085l-0.122,0.083l-0.123,0.079l-0.124,0.075l-0.126,0.073l-0.128,0.069l-0.129,0.065l-0.129,0.063l-0.132,0.059l-0.132,0.055l-0.133,0.052l-0.134,0.049l-0.135,0.045l-0.136,0.042l-0.137,0.039l-0.137,0.035l-0.138,0.032l-0.138,0.029l-0.139,0.025l-0.139,0.022l-0.14,0.018l-0.14,0.015l-0.14,0.012l-0.14,0.008l-0.14,0.005l-0.141,0.002l-0.141,-0.002l-0.14,-0.005l-0.14,-0.008l-0.14,-0.012l-0.14,-0.015l-0.14,-0.018l-0.139,-0.022l-0.139,-0.025l-0.138,-0.029l-0.138,-0.032l-0.137,-0.035l-0.137,-0.039l-0.136,-0.042l-0.135,-0.045l-0.134,-0.049l-0.133,-0.052l-0.132,-0.055l-0.131,-0.059l-0.131,-0.063l-0.128,-0.065l-0.128,-0.069l-0.126,-0.073l-0.124,-0.075l-0.123,-0.079l-0.122,-0.083l-0.119,-0.085l-0.118,-0.089l-0.117,-0.093l-0.114,-0.095l-0.112,-0.099l-0.11,-0.102l-0.098,-0.096l-0.015,-0.015l-0.052,-0.052l-0.061,-0.064l-0.105,-0.114l-0.106,-0.122l-0.102,-0.125l-0.099,-0.128l-0.094,-0.129l-0.091,-0.132l-0.087,-0.135l-0.083,-0.136l-0.079,-0.139l-0.075,-0.14l-0.071,-0.143l-0.067,-0.144l-0.063,-0.146l-0.058,-0.148l-0.055,-0.149l-0.051,-0.15l-0.046,-0.152l-0.042,-0.154l-0.038,-0.154l-0.033,-0.156l-0.03,-0.156l-0.024,-0.158l-0.021,-0.158l-0.016,-0.16l-0.012,-0.159l-0.007,-0.161l-0.003,-0.161l0.002,-0.161l0.007,-0.161l0.01,-0.155l0.008,-0.088l0.008,-0.074l0.763,-6.866l3.528,3.529Zm3.45,0.157l-0.049,0.002l-0.05,0.003l-0.049,0.004l-0.049,0.006l-0.048,0.006l-0.049,0.008l-0.048,0.009l-0.048,0.01l-0.047,0.012l-0.048,0.012l-0.047,0.014l-0.046,0.015l-0.046,0.016l-0.046,0.017l-0.045,0.018l-0.045,0.019l-0.045,0.02l-0.043,0.022l-0.044,0.022l-0.043,0.024l-0.042,0.024l-0.042,0.026l-0.041,0.026l-0.04,0.028l-0.04,0.029l-0.039,0.03l-0.039,0.03l-0.037,0.032l-0.037,0.033l-0.037,0.034l-0.035,0.034l-2.086,2.086l-2,-2l-0.303,2.723l-0.005,0.053l-0.005,0.052l-0.007,0.105l-0.004,0.106l-0.001,0.104l0.001,0.105l0.005,0.104l0.008,0.104l0.01,0.104l0.013,0.103l0.017,0.102l0.019,0.102l0.021,0.101l0.025,0.101l0.027,0.099l0.031,0.099l0.032,0.098l0.036,0.097l0.038,0.096l0.041,0.095l0.044,0.094l0.046,0.093l0.049,0.091l0.051,0.09l0.054,0.089l0.056,0.087l0.059,0.086l0.062,0.084l0.064,0.083l0.066,0.081l0.069,0.08l0.072,0.077l0.036,0.039l0.038,0.038l0.071,0.07l0.073,0.067l0.074,0.065l0.076,0.063l0.076,0.061l0.078,0.059l0.079,0.056l0.08,0.055l0.081,0.052l0.082,0.049l0.082,0.048l0.084,0.045l0.085,0.043l0.085,0.041l0.087,0.039l0.086,0.037l0.088,0.034l0.088,0.032l0.089,0.03l0.09,0.028l0.09,0.025l0.09,0.023l0.091,0.021l0.091,0.019l0.092,0.017l0.092,0.014l0.092,0.012l0.092,0.01l0.093,0.008l0.092,0.005l0.093,0.004l0.093,0.001l0.093,-0.001l0.093,-0.004l0.092,-0.005l0.093,-0.008l0.092,-0.01l0.092,-0.012l0.092,-0.014l0.092,-0.017l0.091,-0.019l0.091,-0.021l0.09,-0.023l0.09,-0.025l0.09,-0.028l0.089,-0.03l0.088,-0.032l0.088,-0.034l0.086,-0.037l0.087,-0.039l0.085,-0.041l0.085,-0.043l0.084,-0.045l0.082,-0.048l0.082,-0.049l0.081,-0.052l0.08,-0.055l0.079,-0.056l0.078,-0.059l0.076,-0.061l0.076,-0.063l0.074,-0.065l0.073,-0.067l0.071,-0.07l1.851,-1.851l0.034,-0.035l0.034,-0.037l0.033,-0.037l0.032,-0.037l0.03,-0.039l0.03,-0.039l0.029,-0.04l0.028,-0.04l0.026,-0.041l0.026,-0.042l0.024,-0.042l0.024,-0.043l0.022,-0.044l0.022,-0.043l0.02,-0.045l0.019,-0.045l0.018,-0.045l0.017,-0.046l0.016,-0.046l0.015,-0.046l0.014,-0.047l0.012,-0.048l0.012,-0.047l0.01,-0.048l0.009,-0.048l0.008,-0.049l0.006,-0.048l0.006,-0.049l0.004,-0.049l0.003,-0.05l0.002,-0.049l0.001,-0.05l-0.001,-0.05l-0.002,-0.049l-0.003,-0.05l-0.004,-0.049l-0.006,-0.049l-0.006,-0.048l-0.008,-0.049l-0.009,-0.048l-0.01,-0.048l-0.012,-0.048l-0.012,-0.047l-0.014,-0.047l-0.015,-0.046l-0.016,-0.046l-0.017,-0.046l-0.018,-0.045l-0.019,-0.045l-0.02,-0.045l-0.022,-0.043l-0.022,-0.044l-0.024,-0.043l-0.024,-0.042l-0.026,-0.042l-0.026,-0.041l-0.028,-0.04l-0.029,-0.04l-0.03,-0.039l-0.03,-0.039l-0.032,-0.037l-0.033,-0.037l-0.034,-0.037l-0.034,-0.035l-1.172,-1.172l-0.035,-0.034l-0.037,-0.034l-0.037,-0.033l-0.037,-0.032l-0.039,-0.03l-0.039,-0.03l-0.04,-0.029l-0.04,-0.028l-0.041,-0.026l-0.042,-0.026l-0.042,-0.024l-0.043,-0.024l-0.044,-0.022l-0.043,-0.022l-0.045,-0.02l-0.045,-0.019l-0.045,-0.018l-0.046,-0.017l-0.046,-0.016l-0.046,-0.015l-0.047,-0.014l-0.047,-0.012l-0.048,-0.012l-0.048,-0.01l-0.048,-0.009l-0.049,-0.008l-0.048,-0.006l-0.049,-0.006l-0.049,-0.004l-0.05,-0.003l-0.049,-0.002l-0.05,-0.001l-0.05,0.001Z"/><path d="M11.803,25.723c0.124,1.123 -0.268,2.242 -1.067,3.041c0,0 -0.001,0.001 -0.001,0.001c-1.51,1.51 -3.96,1.51 -5.47,0c-0.64,-0.64 -1.296,-1.296 -1.851,-1.851c-0.375,-0.375 -0.586,-0.884 -0.586,-1.414c0,-0.53 0.211,-1.039 0.586,-1.414c0.38,-0.38 0.792,-0.792 1.172,-1.172c0.375,-0.375 0.884,-0.586 1.414,-0.586c0.53,0 1.039,0.211 1.414,0.586c0.971,0.971 2.086,2.086 2.086,2.086l2,-2c0,0 0.163,1.465 0.303,2.723Z" style="fill:#fbc546;"/><path d="M13.791,25.509l0.008,0.074l0.008,0.088l0.01,0.154l0.007,0.162l0.002,0.161l-0.003,0.161l-0.007,0.161l-0.012,0.159l-0.016,0.16l-0.021,0.158l-0.024,0.158l-0.03,0.156l-0.033,0.156l-0.038,0.154l-0.042,0.154l-0.046,0.152l-0.051,0.15l-0.055,0.149l-0.058,0.148l-0.063,0.146l-0.067,0.144l-0.071,0.143l-0.075,0.14l-0.079,0.139l-0.083,0.136l-0.087,0.135l-0.091,0.132l-0.094,0.129l-0.099,0.128l-0.102,0.125l-0.106,0.122l-0.105,0.114l-0.061,0.064l-0.052,0.052l-0.015,0.015l-0.098,0.096l-0.11,0.102l-0.112,0.099l-0.114,0.095l-0.116,0.093l-0.119,0.089l-0.119,0.085l-0.122,0.083l-0.123,0.079l-0.124,0.075l-0.126,0.073l-0.128,0.069l-0.128,0.065l-0.131,0.063l-0.131,0.059l-0.132,0.055l-0.133,0.052l-0.134,0.049l-0.135,0.045l-0.136,0.042l-0.137,0.039l-0.137,0.035l-0.138,0.032l-0.138,0.029l-0.139,0.025l-0.139,0.022l-0.14,0.018l-0.14,0.015l-0.14,0.012l-0.14,0.008l-0.14,0.005l-0.141,0.002l-0.141,-0.002l-0.14,-0.005l-0.14,-0.008l-0.14,-0.012l-0.14,-0.015l-0.14,-0.018l-0.139,-0.022l-0.139,-0.025l-0.138,-0.029l-0.138,-0.032l-0.137,-0.035l-0.137,-0.039l-0.136,-0.042l-0.135,-0.045l-0.134,-0.049l-0.133,-0.052l-0.132,-0.055l-0.132,-0.059l-0.129,-0.063l-0.129,-0.065l-0.128,-0.069l-0.126,-0.073l-0.124,-0.075l-0.123,-0.079l-0.122,-0.083l-0.12,-0.085l-0.117,-0.089l-0.117,-0.093l-0.114,-0.095l-0.112,-0.099l-0.11,-0.102l-0.098,-0.096l-1.869,-1.868l-0.06,-0.062l-0.068,-0.073l-0.065,-0.074l-0.064,-0.076l-0.061,-0.077l-0.06,-0.078l-0.057,-0.08l-0.056,-0.081l-0.053,-0.082l-0.051,-0.083l-0.049,-0.085l-0.047,-0.085l-0.045,-0.087l-0.043,-0.088l-0.041,-0.088l-0.038,-0.09l-0.037,-0.091l-0.033,-0.091l-0.032,-0.092l-0.03,-0.093l-0.027,-0.094l-0.025,-0.095l-0.023,-0.095l-0.02,-0.096l-0.018,-0.096l-0.016,-0.097l-0.013,-0.098l-0.011,-0.098l-0.009,-0.098l-0.006,-0.099l-0.003,-0.099l-0.002,-0.099l0.002,-0.099l0.003,-0.099l0.006,-0.099l0.009,-0.098l0.011,-0.098l0.013,-0.098l0.016,-0.097l0.018,-0.096l0.02,-0.096l0.023,-0.095l0.025,-0.095l0.027,-0.093l0.03,-0.093l0.032,-0.093l0.034,-0.091l0.036,-0.091l0.038,-0.089l0.041,-0.089l0.043,-0.088l0.044,-0.087l0.048,-0.085l0.049,-0.085l0.051,-0.083l0.053,-0.082l0.056,-0.081l0.057,-0.08l0.06,-0.078l0.061,-0.077l0.064,-0.076l0.065,-0.074l0.068,-0.073l0.06,-0.062l1.189,-1.189l0.062,-0.06l0.073,-0.068l0.074,-0.065l0.076,-0.064l0.077,-0.061l0.078,-0.06l0.08,-0.057l0.081,-0.056l0.082,-0.053l0.083,-0.051l0.085,-0.049l0.085,-0.047l0.087,-0.045l0.088,-0.043l0.088,-0.041l0.09,-0.038l0.091,-0.036l0.091,-0.034l0.093,-0.032l0.093,-0.03l0.093,-0.027l0.095,-0.025l0.095,-0.023l0.096,-0.02l0.096,-0.018l0.097,-0.016l0.098,-0.013l0.098,-0.011l0.098,-0.009l0.099,-0.006l0.099,-0.003l0.099,-0.002l0.099,0.002l0.099,0.003l0.099,0.006l0.098,0.009l0.098,0.011l0.098,0.013l0.097,0.016l0.096,0.018l0.096,0.02l0.095,0.023l0.095,0.025l0.093,0.027l0.094,0.03l0.092,0.032l0.091,0.034l0.091,0.036l0.09,0.038l0.088,0.041l0.088,0.043l0.087,0.045l0.085,0.046l0.085,0.05l0.083,0.051l0.082,0.053l0.081,0.056l0.08,0.057l0.078,0.06l0.077,0.061l0.076,0.064l0.074,0.065l0.072,0.068l0.063,0.06l0.68,0.681l3.528,-3.529l0.763,6.866Zm-7.841,-3.18l-0.049,0.002l-0.05,0.003l-0.049,0.004l-0.049,0.006l-0.048,0.006l-0.049,0.008l-0.048,0.009l-0.048,0.01l-0.048,0.012l-0.047,0.012l-0.047,0.014l-0.046,0.015l-0.046,0.016l-0.046,0.017l-0.045,0.018l-0.045,0.019l-0.045,0.02l-0.043,0.022l-0.044,0.022l-0.043,0.024l-0.042,0.024l-0.042,0.026l-0.041,0.026l-0.04,0.028l-0.04,0.029l-0.039,0.03l-0.039,0.03l-0.037,0.032l-0.037,0.033l-0.037,0.034l-0.035,0.034l-1.172,1.172l-0.034,0.035l-0.034,0.037l-0.033,0.037l-0.032,0.037l-0.03,0.039l-0.03,0.039l-0.029,0.04l-0.028,0.04l-0.026,0.041l-0.026,0.042l-0.024,0.042l-0.024,0.043l-0.022,0.044l-0.022,0.043l-0.02,0.045l-0.019,0.045l-0.018,0.045l-0.017,0.046l-0.016,0.046l-0.015,0.046l-0.014,0.047l-0.012,0.047l-0.012,0.048l-0.01,0.048l-0.009,0.048l-0.008,0.049l-0.006,0.048l-0.006,0.049l-0.004,0.049l-0.003,0.05l-0.002,0.049l-0.001,0.05l0.001,0.05l0.002,0.049l0.003,0.05l0.004,0.049l0.006,0.049l0.006,0.048l0.008,0.049l0.009,0.048l0.01,0.048l0.012,0.047l0.012,0.048l0.014,0.047l0.015,0.046l0.016,0.046l0.017,0.046l0.018,0.045l0.019,0.045l0.02,0.045l0.022,0.043l0.022,0.044l0.024,0.043l0.024,0.042l0.026,0.042l0.026,0.041l0.028,0.04l0.029,0.04l0.03,0.039l0.03,0.039l0.032,0.037l0.033,0.037l0.034,0.037l0.034,0.035l1.851,1.851l0.071,0.07l0.073,0.067l0.074,0.065l0.076,0.063l0.076,0.061l0.078,0.059l0.079,0.056l0.08,0.055l0.081,0.052l0.082,0.049l0.082,0.048l0.084,0.045l0.085,0.043l0.085,0.041l0.087,0.039l0.086,0.037l0.088,0.034l0.088,0.032l0.089,0.03l0.09,0.028l0.09,0.025l0.09,0.023l0.091,0.021l0.091,0.019l0.092,0.017l0.092,0.014l0.092,0.012l0.092,0.01l0.093,0.008l0.092,0.005l0.093,0.004l0.093,0.001l0.093,-0.001l0.093,-0.004l0.092,-0.005l0.093,-0.008l0.092,-0.01l0.092,-0.012l0.092,-0.014l0.092,-0.017l0.091,-0.019l0.091,-0.021l0.09,-0.023l0.09,-0.025l0.09,-0.028l0.089,-0.03l0.088,-0.032l0.088,-0.034l0.086,-0.037l0.087,-0.039l0.085,-0.041l0.085,-0.043l0.084,-0.045l0.082,-0.048l0.082,-0.049l0.081,-0.052l0.08,-0.055l0.079,-0.056l0.078,-0.059l0.076,-0.061l0.076,-0.063l0.074,-0.065l0.073,-0.067l0.071,-0.07l0.001,-0.001l0.037,-0.037l0.036,-0.039l0.072,-0.077l0.069,-0.08l0.066,-0.081l0.064,-0.083l0.062,-0.084l0.059,-0.086l0.056,-0.087l0.054,-0.089l0.051,-0.09l0.049,-0.091l0.046,-0.093l0.044,-0.094l0.041,-0.095l0.038,-0.096l0.036,-0.097l0.032,-0.098l0.031,-0.099l0.027,-0.099l0.025,-0.101l0.021,-0.101l0.019,-0.102l0.017,-0.102l0.013,-0.103l0.01,-0.104l0.008,-0.104l0.005,-0.104l0.001,-0.105l-0.001,-0.104l-0.004,-0.106l-0.007,-0.105l-0.005,-0.052l-0.005,-0.053l-0.303,-2.723l-2,2l-2.086,-2.086l-0.035,-0.034l-0.037,-0.034l-0.037,-0.033l-0.037,-0.032l-0.039,-0.03l-0.039,-0.03l-0.04,-0.029l-0.04,-0.028l-0.041,-0.026l-0.042,-0.026l-0.042,-0.024l-0.043,-0.024l-0.044,-0.022l-0.043,-0.022l-0.045,-0.02l-0.045,-0.019l-0.045,-0.018l-0.046,-0.017l-0.046,-0.016l-0.046,-0.015l-0.047,-0.014l-0.048,-0.012l-0.047,-0.012l-0.048,-0.01l-0.048,-0.009l-0.049,-0.008l-0.048,-0.006l-0.049,-0.006l-0.049,-0.004l-0.05,-0.003l-0.049,-0.002l-0.05,-0.001l-0.05,0.001Z"/></g><path d="M29,14c0,-1.105 -0.895,-2 -2,-2c-1.222,0 -2.778,0 -4,0c-1.105,0 -2,0.895 -2,2c0,1.105 0.895,2 2,2c1.222,0 2.778,0 4,0c1.105,0 2,-0.895 2,-2c0,0 0,0 0,0Z" style="fill:#ed6b44;"/><path d="M11,14c0,-1.105 -0.895,-2 -2,-2c-1.222,0 -2.778,0 -4,0c-1.105,0 -2,0.895 -2,2c0,1.105 0.895,2 2,2c1.222,0 2.778,0 4,0c1.105,0 2,-0.895 2,-2c0,0 0,0 0,0Z" style="fill:#ed6b44;"/><path d="M24.707,9.793l0.031,0.032l0.029,0.033l0.027,0.035l0.027,0.035l0.024,0.037l0.023,0.038l0.021,0.039l0.019,0.04l0.018,0.04l0.016,0.042l0.014,0.042l0.012,0.042l0.01,0.043l0.008,0.044l0.007,0.044l0.004,0.044l0.002,0.044l0.001,0.044l-0.002,0.044l-0.003,0.044l-0.005,0.044l-0.008,0.044l-0.009,0.043l-0.011,0.043l-0.013,0.042l-0.015,0.042l-0.017,0.041l-0.018,0.04l-0.02,0.039l-0.022,0.039l-0.024,0.037l-0.025,0.037l-0.027,0.035l-0.029,0.034l-0.029,0.032l-0.032,0.032l-0.032,0.029l-0.034,0.029l-0.035,0.027l-0.037,0.025l-0.037,0.024l-0.039,0.022l-0.039,0.02l-0.04,0.018l-0.041,0.017l-0.042,0.015l-0.042,0.013l-0.043,0.011l-0.043,0.009l-0.044,0.008l-0.044,0.005l-0.044,0.003l-0.044,0.002l-0.044,-0.001l-0.044,-0.002l-0.044,-0.004l-0.044,-0.007l-0.044,-0.008l-0.043,-0.01l-0.042,-0.012l-0.042,-0.014l-0.042,-0.016l-0.04,-0.018l-0.04,-0.019l-0.039,-0.021l-0.038,-0.023l-0.037,-0.024l-0.035,-0.027l-0.035,-0.027l-0.033,-0.029l-0.032,-0.031l-1.793,-1.793l-1.793,1.793l-0.032,0.031l-0.033,0.029l-0.035,0.027l-0.035,0.027l-0.037,0.024l-0.038,0.023l-0.039,0.021l-0.04,0.019l-0.04,0.018l-0.042,0.016l-0.042,0.014l-0.042,0.012l-0.043,0.01l-0.044,0.008l-0.044,0.007l-0.044,0.004l-0.044,0.002l-0.044,0.001l-0.044,-0.002l-0.044,-0.003l-0.044,-0.005l-0.044,-0.008l-0.043,-0.009l-0.043,-0.011l-0.042,-0.013l-0.042,-0.015l-0.041,-0.017l-0.04,-0.018l-0.039,-0.02l-0.039,-0.022l-0.037,-0.024l-0.037,-0.025l-0.035,-0.027l-0.034,-0.029l-0.032,-0.029l-0.032,-0.032l-0.029,-0.032l-0.029,-0.034l-0.027,-0.035l-0.025,-0.037l-0.024,-0.037l-0.022,-0.039l-0.02,-0.039l-0.018,-0.04l-0.017,-0.041l-0.015,-0.042l-0.013,-0.042l-0.011,-0.043l-0.009,-0.043l-0.008,-0.044l-0.005,-0.044l-0.003,-0.044l-0.002,-0.044l0.001,-0.044l0.002,-0.044l0.004,-0.044l0.007,-0.044l0.008,-0.044l0.01,-0.043l0.012,-0.042l0.014,-0.042l0.016,-0.042l0.018,-0.04l0.019,-0.04l0.021,-0.039l0.023,-0.038l0.024,-0.037l0.027,-0.035l0.027,-0.035l0.029,-0.033l0.031,-0.032l3.207,-3.207l3.207,3.207Z"/><path d="M13.707,9.793l0.031,0.032l0.029,0.033l0.027,0.035l0.027,0.035l0.024,0.037l0.023,0.038l0.021,0.039l0.019,0.04l0.018,0.04l0.016,0.042l0.014,0.042l0.012,0.042l0.01,0.043l0.008,0.044l0.007,0.044l0.004,0.044l0.002,0.044l0.001,0.044l-0.002,0.044l-0.003,0.044l-0.005,0.044l-0.008,0.044l-0.009,0.043l-0.011,0.043l-0.013,0.042l-0.015,0.042l-0.017,0.041l-0.018,0.04l-0.02,0.039l-0.022,0.039l-0.024,0.037l-0.025,0.037l-0.027,0.035l-0.029,0.034l-0.029,0.032l-0.032,0.032l-0.032,0.029l-0.034,0.029l-0.035,0.027l-0.037,0.025l-0.037,0.024l-0.039,0.022l-0.039,0.02l-0.04,0.018l-0.041,0.017l-0.042,0.015l-0.042,0.013l-0.043,0.011l-0.043,0.009l-0.044,0.008l-0.044,0.005l-0.044,0.003l-0.044,0.002l-0.044,-0.001l-0.044,-0.002l-0.044,-0.004l-0.044,-0.007l-0.044,-0.008l-0.043,-0.01l-0.042,-0.012l-0.042,-0.014l-0.042,-0.016l-0.04,-0.018l-0.04,-0.019l-0.039,-0.021l-0.038,-0.023l-0.037,-0.024l-0.035,-0.027l-0.035,-0.027l-0.033,-0.029l-0.032,-0.031l-1.793,-1.793l-1.793,1.793l-0.032,0.031l-0.033,0.029l-0.035,0.027l-0.035,0.027l-0.037,0.024l-0.038,0.023l-0.039,0.021l-0.04,0.019l-0.04,0.018l-0.042,0.016l-0.042,0.014l-0.042,0.012l-0.043,0.01l-0.044,0.008l-0.044,0.007l-0.044,0.004l-0.044,0.002l-0.044,0.001l-0.044,-0.002l-0.044,-0.003l-0.044,-0.005l-0.044,-0.008l-0.043,-0.009l-0.043,-0.011l-0.042,-0.013l-0.042,-0.015l-0.041,-0.017l-0.04,-0.018l-0.039,-0.02l-0.039,-0.022l-0.037,-0.024l-0.037,-0.025l-0.035,-0.027l-0.034,-0.029l-0.032,-0.029l-0.032,-0.032l-0.029,-0.032l-0.029,-0.034l-0.027,-0.035l-0.025,-0.037l-0.024,-0.037l-0.022,-0.039l-0.02,-0.039l-0.018,-0.04l-0.017,-0.041l-0.015,-0.042l-0.013,-0.042l-0.011,-0.043l-0.009,-0.043l-0.008,-0.044l-0.005,-0.044l-0.003,-0.044l-0.002,-0.044l0.001,-0.044l0.002,-0.044l0.004,-0.044l0.007,-0.044l0.008,-0.044l0.01,-0.043l0.012,-0.042l0.014,-0.042l0.016,-0.042l0.018,-0.04l0.019,-0.04l0.021,-0.039l0.023,-0.038l0.024,-0.037l0.027,-0.035l0.027,-0.035l0.029,-0.033l0.031,-0.032l3.207,-3.207l3.207,3.207Z"/><path d="M10.102,14.005l0.068,0.01l0.067,0.013l0.066,0.019l0.064,0.023l0.062,0.027l0.061,0.031l0.058,0.036l0.056,0.039l0.053,0.043l0.05,0.047l0.877,0.877l0.057,0.056l0.056,0.054l0.056,0.053l0.057,0.052l0.058,0.052l0.058,0.05l0.059,0.05l0.059,0.049l0.06,0.049l0.06,0.047l0.061,0.047l0.061,0.046l0.062,0.045l0.062,0.045l0.063,0.043l0.064,0.043l0.064,0.042l0.064,0.041l0.065,0.041l0.065,0.039l0.066,0.039l0.066,0.038l0.066,0.037l0.067,0.037l0.068,0.035l0.068,0.035l0.068,0.034l0.069,0.032l0.069,0.033l0.069,0.031l0.07,0.03l0.07,0.03l0.071,0.029l0.07,0.027l0.072,0.027l0.071,0.026l0.072,0.026l0.072,0.024l0.073,0.024l0.072,0.022l0.073,0.022l0.074,0.021l0.073,0.02l0.074,0.019l0.074,0.018l0.075,0.017l0.074,0.016l0.075,0.016l0.075,0.014l0.076,0.014l0.075,0.013l0.076,0.012l0.076,0.01l0.076,0.01l0.076,0.009l0.077,0.008l0.076,0.008l0.077,0.006l0.077,0.005l0.077,0.004l0.077,0.004l0.078,0.002l0.077,0.001l0.078,0.001l0.078,-0.001l0.077,-0.001l0.078,-0.002l0.077,-0.004l0.077,-0.004l0.077,-0.005l0.077,-0.006l0.076,-0.008l0.077,-0.008l0.076,-0.009l0.076,-0.01l0.076,-0.01l0.076,-0.012l0.075,-0.013l0.076,-0.014l0.075,-0.014l0.075,-0.016l0.074,-0.016l0.075,-0.017l0.074,-0.018l0.074,-0.019l0.073,-0.02l0.074,-0.021l0.073,-0.022l0.072,-0.022l0.073,-0.024l0.072,-0.024l0.072,-0.026l0.071,-0.026l0.072,-0.027l0.07,-0.027l0.071,-0.029l0.07,-0.03l0.07,-0.03l0.069,-0.031l0.069,-0.033l0.069,-0.032l0.068,-0.034l0.068,-0.035l0.068,-0.035l0.067,-0.037l0.066,-0.037l0.066,-0.038l0.066,-0.039l0.065,-0.039l0.065,-0.041l0.064,-0.041l0.064,-0.042l0.064,-0.043l0.063,-0.043l0.062,-0.045l0.062,-0.045l0.061,-0.046l0.061,-0.047l0.06,-0.047l0.06,-0.049l0.059,-0.049l0.059,-0.05l0.058,-0.05l0.058,-0.052l0.057,-0.052l0.056,-0.053l0.056,-0.054l0.057,-0.056l0.877,-0.877l0.05,-0.047l0.053,-0.043l0.056,-0.039l0.058,-0.036l0.061,-0.031l0.062,-0.027l0.064,-0.023l0.066,-0.019l0.067,-0.013l0.068,-0.01l0.068,-0.004l0.068,0l0.068,0.004l0.068,0.01l0.067,0.013l0.066,0.019l0.064,0.023l0.062,0.027l0.061,0.031l0.058,0.036l0.056,0.039l0.053,0.043l0.05,0.047l0.047,0.05l0.043,0.053l0.039,0.056l0.036,0.058l0.031,0.061l0.027,0.062l0.023,0.064l0.019,0.066l0.013,0.067l0.01,0.068l0.004,0.068l0,0.068l-0.004,0.068l-0.01,0.068l-0.013,0.067l-0.019,0.066l-0.023,0.064l-0.027,0.062l-0.031,0.061l-0.036,0.058l-0.039,0.056l-0.043,0.053l-0.047,0.05l-0.881,0.881l-0.071,0.07l-0.073,0.071l-0.075,0.07l-0.075,0.069l-0.076,0.068l-0.077,0.067l-0.077,0.066l-0.078,0.064l-0.079,0.064l-0.08,0.063l-0.08,0.062l-0.081,0.061l-0.082,0.059l-0.082,0.059l-0.083,0.058l-0.084,0.056l-0.084,0.056l-0.085,0.054l-0.086,0.054l-0.086,0.052l-0.087,0.051l-0.087,0.05l-0.088,0.049l-0.089,0.048l-0.089,0.047l-0.089,0.046l-0.09,0.044l-0.091,0.044l-0.091,0.042l-0.092,0.041l-0.092,0.041l-0.093,0.039l-0.093,0.038l-0.093,0.036l-0.094,0.036l-0.095,0.034l-0.095,0.034l-0.095,0.032l-0.096,0.031l-0.096,0.03l-0.096,0.028l-0.097,0.028l-0.097,0.026l-0.098,0.025l-0.098,0.024l-0.098,0.023l-0.098,0.022l-0.099,0.02l-0.099,0.019l-0.1,0.018l-0.1,0.017l-0.1,0.016l-0.1,0.014l-0.1,0.013l-0.101,0.012l-0.101,0.011l-0.101,0.009l-0.102,0.008l-0.101,0.007l-0.102,0.006l-0.102,0.004l-0.102,0.003l-0.102,0.002l-0.1,0.001l-0.006,0l-0.1,-0.001l-0.102,-0.002l-0.102,-0.003l-0.102,-0.004l-0.102,-0.006l-0.101,-0.007l-0.102,-0.008l-0.101,-0.009l-0.101,-0.011l-0.101,-0.012l-0.1,-0.013l-0.1,-0.014l-0.1,-0.016l-0.1,-0.017l-0.1,-0.018l-0.099,-0.019l-0.099,-0.02l-0.098,-0.022l-0.098,-0.023l-0.098,-0.024l-0.098,-0.025l-0.097,-0.026l-0.097,-0.028l-0.096,-0.028l-0.096,-0.03l-0.096,-0.031l-0.095,-0.032l-0.095,-0.034l-0.095,-0.034l-0.094,-0.036l-0.093,-0.036l-0.093,-0.038l-0.093,-0.039l-0.092,-0.041l-0.092,-0.041l-0.091,-0.042l-0.091,-0.044l-0.09,-0.044l-0.089,-0.046l-0.089,-0.047l-0.089,-0.048l-0.088,-0.049l-0.087,-0.05l-0.087,-0.051l-0.086,-0.052l-0.086,-0.054l-0.085,-0.054l-0.084,-0.056l-0.084,-0.056l-0.083,-0.058l-0.082,-0.059l-0.082,-0.059l-0.081,-0.061l-0.08,-0.062l-0.08,-0.063l-0.079,-0.064l-0.078,-0.064l-0.077,-0.066l-0.077,-0.067l-0.076,-0.068l-0.075,-0.069l-0.075,-0.07l-0.073,-0.071l-0.071,-0.07l-0.881,-0.881l-0.047,-0.05l-0.043,-0.053l-0.039,-0.056l-0.036,-0.058l-0.031,-0.061l-0.027,-0.062l-0.023,-0.064l-0.019,-0.066l-0.013,-0.067l-0.01,-0.068l-0.004,-0.068l0,-0.068l0.004,-0.068l0.01,-0.068l0.013,-0.067l0.019,-0.066l0.023,-0.064l0.027,-0.062l0.031,-0.061l0.036,-0.058l0.039,-0.056l0.043,-0.053l0.047,-0.05l0.05,-0.047l0.053,-0.043l0.056,-0.039l0.058,-0.036l0.061,-0.031l0.062,-0.027l0.064,-0.023l0.066,-0.019l0.067,-0.013l0.068,-0.01l0.068,-0.004l0.068,0l0.068,0.004Z" style="fill:#593604;"/></g></g></svg>