<?xml version="1.0" encoding="UTF-8" standalone="no"?>
<!DOCTYPE svg PUBLIC "-//W3C//DTD SVG 1.1//EN" "http://www.w3.org/Graphics/SVG/1.1/DTD/svg11.dtd">
<svg width="100%" height="100%" viewBox="0 0 32 32" version="1.1" xmlns="http://www.w3.org/2000/svg" xmlns:xlink="http://www.w3.org/1999/xlink" xml:space="preserve" xmlns:serif="http://www.serif.com/" style="fill-rule:evenodd;clip-rule:evenodd;stroke-linejoin:round;stroke-miterlimit:2;">
    <rect id="kiss" x="0" y="0" width="32" height="32" style="fill:none;"/>
    <clipPath id="_clip1">
        <rect x="0" y="0" width="32" height="32"/>
    </clipPath>
    <g clip-path="url(#_clip1)">
        <g id="outline">
            <path d="M16,3c8.837,0 16,7.163 16,16l0,0.006c0,3.446 -1.369,6.751 -3.806,9.188c-2.437,2.437 -5.742,3.806 -9.188,3.806c-1.976,0 -4.036,0 -6.012,0c-3.446,0 -6.751,-1.369 -9.188,-3.806c-2.437,-2.437 -3.806,-5.742 -3.806,-9.188c0,-0.003 0,-0.005 0,-0.008c0,-8.835 7.163,-15.998 15.998,-15.998l0.002,0Z"/>
        </g>
        <g id="emoji">
            <path d="M30,19c0,-7.732 -6.268,-14 -14,-14c-0.001,0 -0.001,0 -0.002,0c-7.731,0 -13.998,6.267 -13.998,13.998c0,0.003 0,0.005 0,0.008c0,2.916 1.158,5.712 3.22,7.774c2.062,2.062 4.858,3.22 7.774,3.22c1.976,0 4.036,0 6.012,0c2.916,0 5.712,-1.158 7.774,-3.22c2.062,-2.062 3.22,-4.858 3.22,-7.774c0,-0.002 0,-0.004 0,-0.006Z" style="fill:#fbc546;"/>
            <path d="M18.221,20.365l-3.592,-1.437c-0.513,-0.204 -0.762,-0.787 -0.557,-1.299c0.204,-0.513 0.787,-0.762 1.299,-0.557l5,2c0.312,0.124 0.541,0.398 0.609,0.727c0.067,0.329 -0.035,0.67 -0.273,0.908l-1.293,1.293l1.293,1.293c0.238,0.238 0.34,0.579 0.273,0.908c-0.068,0.329 -0.297,0.603 -0.609,0.727l-5,2c-0.512,0.205 -1.095,-0.044 -1.299,-0.557c-0.205,-0.512 0.044,-1.095 0.557,-1.299l3.592,-1.437l-0.928,-0.928c-0.383,-0.402 -0.383,-1.012 0,-1.414l0.928,-0.928Z" style="fill:#593604;"/>
            <path d="M24.948,15.106c0.494,0.247 0.694,0.847 0.447,1.34c0,0.001 -0.001,0.002 -0.001,0.002c-0.247,0.494 -0.847,0.694 -1.34,0.447c-1.196,-0.598 -3.305,-1.652 -4.501,-2.251c-0.494,-0.247 -0.694,-0.847 -0.447,-1.341c0.247,-0.494 0.847,-0.694 1.341,-0.447c1.197,0.598 3.305,1.652 4.501,2.25Z" style="fill-rule:nonzero;"/>
            <path d="M12.894,13.303c0.247,0.494 0.047,1.094 -0.447,1.341c-1.196,0.599 -3.305,1.653 -4.501,2.251c-0.493,0.247 -1.093,0.047 -1.34,-0.447c0,0 0,0 0,-0.001c-0.247,-0.494 -0.047,-1.094 0.447,-1.341c1.196,-0.598 3.304,-1.652 4.5,-2.25c0.494,-0.247 1.094,-0.047 1.341,0.447c0,0 0,0 0,0Z" style="fill-rule:nonzero;"/>
        </g>
    </g>
</svg>
