<?xml version="1.0" encoding="UTF-8" standalone="no"?><!DOCTYPE svg PUBLIC "-//W3C//DTD SVG 1.1//EN" "http://www.w3.org/Graphics/SVG/1.1/DTD/svg11.dtd"><svg width="100%" height="100%" viewBox="0 0 32 32" version="1.1" xmlns="http://www.w3.org/2000/svg" xmlns:xlink="http://www.w3.org/1999/xlink" xml:space="preserve" xmlns:serif="http://www.serif.com/" style="fill-rule:evenodd;clip-rule:evenodd;stroke-linejoin:round;stroke-miterlimit:1.41421;"><rect id="relaxed" x="0" y="0" width="32" height="32" style="fill:none;"/><clipPath id="_clip1"><rect x="0" y="0" width="32" height="32"/></clipPath><g clip-path="url(#_clip1)"><g id="outline"><path d="M16.208,3.001l0.206,0.004l0.205,0.007l0.205,0.009l0.203,0.011l0.204,0.015l0.202,0.016l0.202,0.019l0.202,0.022l0.2,0.024l0.2,0.027l0.199,0.029l0.198,0.032l0.198,0.034l0.196,0.036l0.196,0.039l0.195,0.041l0.194,0.044l0.193,0.046l0.193,0.048l0.191,0.05l0.191,0.053l0.189,0.055l0.189,0.058l0.187,0.059l0.187,0.062l0.185,0.064l0.185,0.066l0.183,0.069l0.182,0.07l0.182,0.073l0.18,0.075l0.179,0.077l0.178,0.079l0.176,0.081l0.176,0.084l0.174,0.085l0.173,0.087l0.172,0.09l0.171,0.091l0.169,0.093l0.169,0.096l0.166,0.097l0.166,0.099l0.164,0.101l0.163,0.104l0.162,0.105l0.16,0.106l0.159,0.109l0.157,0.111l0.156,0.112l0.155,0.114l0.153,0.116l0.152,0.118l0.15,0.12l0.149,0.121l0.147,0.123l0.146,0.125l0.144,0.126l0.143,0.128l0.141,0.13l0.14,0.132l0.138,0.133l0.136,0.135l0.135,0.136l0.133,0.138l0.132,0.14l0.13,0.141l0.128,0.143l0.126,0.144l0.125,0.146l0.123,0.147l0.121,0.149l0.12,0.15l0.118,0.152l0.116,0.153l0.114,0.155l0.112,0.156l0.111,0.157l0.109,0.159l0.106,0.16l0.105,0.162l0.104,0.163l0.101,0.164l0.099,0.166l0.097,0.166l0.096,0.169l0.093,0.169l0.091,0.171l0.09,0.172l0.087,0.173l0.085,0.174l0.084,0.176l0.081,0.176l0.079,0.178l0.077,0.179l0.075,0.18l0.073,0.182l0.07,0.182l0.069,0.183l0.066,0.185l0.064,0.185l0.062,0.187l0.059,0.187l0.058,0.189l0.055,0.189l0.053,0.191l0.05,0.191l0.048,0.193l0.046,0.193l0.044,0.194l0.041,0.195l0.039,0.196l0.036,0.196l0.034,0.198l0.032,0.198l0.029,0.199l0.027,0.2l0.024,0.2l0.022,0.202l0.019,0.202l0.016,0.202l0.015,0.203l0.011,0.204l0.009,0.205l0.007,0.205l0.004,0.206l0.001,0.2l0,0.02l-0.001,0.155l-0.003,0.162l-0.005,0.161l-0.007,0.16l-0.009,0.161l-0.011,0.16l-0.013,0.16l-0.015,0.159l-0.016,0.159l-0.019,0.159l-0.021,0.159l-0.022,0.158l-0.025,0.157l-0.026,0.158l-0.029,0.157l-0.03,0.156l-0.032,0.156l-0.034,0.155l-0.036,0.155l-0.038,0.154l-0.04,0.154l-0.041,0.153l-0.043,0.153l-0.046,0.152l-0.047,0.152l-0.049,0.151l-0.05,0.15l-0.053,0.149l-0.054,0.149l-0.056,0.148l-0.058,0.148l-0.06,0.147l-0.062,0.146l-0.063,0.145l-0.065,0.144l-0.067,0.144l-0.068,0.143l-0.071,0.142l-0.072,0.141l-0.074,0.141l-0.075,0.139l-0.078,0.139l-0.079,0.138l-0.08,0.136l-0.083,0.136l-0.084,0.135l-0.086,0.134l-0.087,0.133l-0.089,0.132l-0.091,0.131l-0.093,0.13l-0.094,0.129l-0.096,0.127l-0.097,0.127l-0.099,0.126l-0.101,0.124l-0.102,0.123l-0.104,0.123l-0.105,0.121l-0.108,0.119l-0.108,0.119l-0.111,0.117l-0.111,0.116l-0.114,0.115l-0.115,0.114l-0.116,0.111l-0.117,0.111l-0.119,0.108l-0.119,0.108l-0.121,0.105l-0.123,0.104l-0.123,0.102l-0.124,0.101l-0.126,0.099l-0.127,0.097l-0.127,0.096l-0.129,0.094l-0.13,0.093l-0.131,0.091l-0.132,0.089l-0.133,0.087l-0.134,0.086l-0.135,0.084l-0.136,0.083l-0.136,0.08l-0.138,0.079l-0.139,0.078l-0.139,0.075l-0.141,0.074l-0.141,0.072l-0.142,0.071l-0.143,0.068l-0.144,0.067l-0.144,0.065l-0.145,0.063l-0.146,0.062l-0.147,0.06l-0.148,0.058l-0.148,0.056l-0.149,0.054l-0.149,0.053l-0.151,0.05l-0.15,0.049l-0.152,0.047l-0.152,0.046l-0.153,0.043l-0.153,0.041l-0.154,0.04l-0.154,0.038l-0.155,0.036l-0.155,0.034l-0.156,0.032l-0.156,0.03l-0.157,0.029l-0.158,0.026l-0.157,0.025l-0.158,0.022l-0.159,0.021l-0.159,0.019l-0.159,0.016l-0.159,0.015l-0.16,0.013l-0.16,0.011l-0.161,0.009l-0.16,0.007l-0.161,0.005l-0.162,0.003l-0.155,0.001l-6.024,0l-0.155,-0.001l-0.162,-0.003l-0.161,-0.005l-0.16,-0.007l-0.161,-0.009l-0.16,-0.011l-0.16,-0.013l-0.159,-0.015l-0.159,-0.016l-0.159,-0.019l-0.159,-0.021l-0.158,-0.022l-0.157,-0.025l-0.158,-0.026l-0.157,-0.029l-0.156,-0.03l-0.156,-0.032l-0.155,-0.034l-0.155,-0.036l-0.154,-0.038l-0.154,-0.04l-0.153,-0.041l-0.153,-0.043l-0.152,-0.046l-0.152,-0.047l-0.15,-0.049l-0.151,-0.05l-0.149,-0.053l-0.149,-0.054l-0.148,-0.056l-0.148,-0.058l-0.147,-0.06l-0.146,-0.062l-0.145,-0.063l-0.144,-0.065l-0.144,-0.067l-0.143,-0.068l-0.142,-0.071l-0.141,-0.072l-0.141,-0.074l-0.139,-0.075l-0.139,-0.078l-0.138,-0.079l-0.136,-0.08l-0.136,-0.083l-0.135,-0.084l-0.134,-0.086l-0.133,-0.087l-0.132,-0.089l-0.131,-0.091l-0.13,-0.093l-0.129,-0.094l-0.127,-0.095l-0.127,-0.098l-0.126,-0.099l-0.124,-0.101l-0.123,-0.102l-0.123,-0.104l-0.121,-0.105l-0.119,-0.108l-0.119,-0.108l-0.117,-0.111l-0.116,-0.111l-0.115,-0.114l-0.114,-0.115l-0.111,-0.116l-0.111,-0.117l-0.108,-0.119l-0.108,-0.119l-0.105,-0.121l-0.104,-0.123l-0.102,-0.123l-0.101,-0.124l-0.099,-0.126l-0.097,-0.127l-0.096,-0.127l-0.094,-0.129l-0.093,-0.13l-0.091,-0.131l-0.089,-0.132l-0.087,-0.133l-0.086,-0.134l-0.084,-0.135l-0.083,-0.136l-0.08,-0.136l-0.079,-0.138l-0.078,-0.139l-0.075,-0.139l-0.074,-0.141l-0.072,-0.141l-0.071,-0.142l-0.068,-0.143l-0.067,-0.144l-0.065,-0.144l-0.063,-0.145l-0.062,-0.146l-0.06,-0.147l-0.058,-0.148l-0.056,-0.148l-0.054,-0.149l-0.053,-0.149l-0.05,-0.15l-0.049,-0.151l-0.047,-0.152l-0.046,-0.152l-0.043,-0.153l-0.041,-0.153l-0.04,-0.154l-0.038,-0.154l-0.036,-0.155l-0.034,-0.155l-0.032,-0.156l-0.03,-0.156l-0.029,-0.157l-0.026,-0.158l-0.025,-0.157l-0.022,-0.158l-0.021,-0.159l-0.019,-0.159l-0.016,-0.159l-0.015,-0.159l-0.013,-0.16l-0.011,-0.16l-0.009,-0.161l-0.007,-0.16l-0.005,-0.161l-0.003,-0.162l-0.001,-0.155l0,-0.018l0.001,-0.2l0.004,-0.206l0.007,-0.205l0.009,-0.205l0.011,-0.204l0.015,-0.203l0.016,-0.203l0.019,-0.201l0.022,-0.202l0.024,-0.2l0.027,-0.2l0.029,-0.199l0.032,-0.198l0.034,-0.198l0.036,-0.197l0.039,-0.195l0.041,-0.195l0.044,-0.195l0.046,-0.193l0.048,-0.192l0.05,-0.192l0.053,-0.19l0.055,-0.19l0.058,-0.188l0.059,-0.188l0.062,-0.186l0.064,-0.186l0.066,-0.184l0.069,-0.184l0.07,-0.182l0.073,-0.181l0.075,-0.181l0.077,-0.179l0.079,-0.177l0.081,-0.177l0.084,-0.176l0.085,-0.174l0.087,-0.173l0.09,-0.172l0.091,-0.171l0.094,-0.169l0.095,-0.169l0.097,-0.166l0.1,-0.166l0.101,-0.164l0.103,-0.163l0.105,-0.162l0.107,-0.16l0.108,-0.159l0.111,-0.158l0.112,-0.156l0.115,-0.154l0.116,-0.153l0.117,-0.152l0.12,-0.151l0.121,-0.148l0.123,-0.148l0.125,-0.145l0.127,-0.145l0.128,-0.143l0.13,-0.141l0.131,-0.139l0.133,-0.138l0.135,-0.137l0.137,-0.135l0.138,-0.133l0.139,-0.131l0.141,-0.13l0.143,-0.128l0.145,-0.127l0.145,-0.125l0.148,-0.123l0.148,-0.121l0.151,-0.12l0.152,-0.117l0.153,-0.116l0.154,-0.115l0.156,-0.112l0.158,-0.111l0.159,-0.108l0.16,-0.107l0.162,-0.105l0.163,-0.103l0.164,-0.101l0.166,-0.1l0.166,-0.097l0.169,-0.095l0.169,-0.094l0.171,-0.091l0.172,-0.09l0.173,-0.087l0.174,-0.085l0.176,-0.084l0.177,-0.081l0.177,-0.079l0.179,-0.077l0.181,-0.075l0.181,-0.073l0.182,-0.07l0.184,-0.069l0.184,-0.066l0.186,-0.064l0.186,-0.062l0.188,-0.059l0.188,-0.058l0.19,-0.055l0.19,-0.053l0.192,-0.05l0.192,-0.048l0.193,-0.046l0.195,-0.044l0.195,-0.041l0.195,-0.039l0.197,-0.036l0.198,-0.034l0.198,-0.032l0.199,-0.029l0.2,-0.027l0.2,-0.024l0.202,-0.022l0.201,-0.019l0.203,-0.016l0.203,-0.015l0.204,-0.011l0.205,-0.009l0.205,-0.007l0.206,-0.004l0.2,-0.001l0.014,0l0.2,0.001Zm-0.364,4l-0.155,0.003l-0.154,0.005l-0.154,0.007l-0.154,0.008l-0.152,0.011l-0.153,0.013l-0.151,0.014l-0.151,0.016l-0.151,0.019l-0.15,0.02l-0.149,0.021l-0.149,0.024l-0.148,0.026l-0.147,0.027l-0.147,0.029l-0.146,0.031l-0.145,0.032l-0.144,0.035l-0.144,0.036l-0.144,0.038l-0.142,0.039l-0.142,0.041l-0.141,0.043l-0.14,0.045l-0.14,0.046l-0.139,0.048l-0.138,0.05l-0.137,0.051l-0.137,0.053l-0.135,0.054l-0.135,0.056l-0.134,0.058l-0.134,0.059l-0.132,0.061l-0.131,0.062l-0.131,0.064l-0.13,0.066l-0.129,0.067l-0.128,0.068l-0.127,0.07l-0.126,0.072l-0.125,0.073l-0.124,0.074l-0.123,0.076l-0.122,0.077l-0.122,0.079l-0.12,0.08l-0.119,0.082l-0.118,0.083l-0.117,0.084l-0.117,0.086l-0.115,0.087l-0.114,0.089l-0.112,0.089l-0.112,0.092l-0.111,0.092l-0.109,0.094l-0.109,0.095l-0.107,0.096l-0.106,0.098l-0.105,0.098l-0.104,0.1l-0.102,0.102l-0.102,0.102l-0.1,0.104l-0.098,0.105l-0.098,0.106l-0.096,0.107l-0.095,0.109l-0.094,0.109l-0.092,0.111l-0.092,0.112l-0.089,0.112l-0.089,0.114l-0.087,0.115l-0.086,0.116l-0.084,0.118l-0.083,0.118l-0.082,0.119l-0.08,0.12l-0.079,0.122l-0.077,0.122l-0.076,0.123l-0.074,0.124l-0.073,0.125l-0.072,0.126l-0.07,0.127l-0.068,0.128l-0.067,0.129l-0.066,0.13l-0.064,0.131l-0.062,0.131l-0.061,0.132l-0.059,0.134l-0.058,0.134l-0.056,0.135l-0.054,0.135l-0.053,0.137l-0.051,0.137l-0.05,0.138l-0.048,0.139l-0.046,0.139l-0.045,0.141l-0.043,0.141l-0.041,0.142l-0.039,0.142l-0.038,0.144l-0.036,0.143l-0.035,0.145l-0.032,0.145l-0.031,0.146l-0.029,0.147l-0.027,0.147l-0.026,0.148l-0.024,0.149l-0.021,0.149l-0.02,0.15l-0.019,0.151l-0.016,0.151l-0.014,0.151l-0.013,0.153l-0.011,0.152l-0.008,0.154l-0.007,0.154l-0.005,0.154l-0.003,0.155l-0.001,0.159l0.001,0.115l0.002,0.111l0.003,0.112l0.005,0.111l0.006,0.111l0.008,0.111l0.009,0.111l0.01,0.11l0.012,0.11l0.013,0.11l0.014,0.11l0.016,0.109l0.017,0.109l0.018,0.109l0.019,0.109l0.021,0.108l0.023,0.108l0.023,0.107l0.025,0.107l0.026,0.107l0.028,0.107l0.028,0.106l0.03,0.105l0.032,0.106l0.032,0.105l0.034,0.104l0.035,0.104l0.037,0.103l0.037,0.104l0.039,0.102l0.04,0.102l0.042,0.102l0.042,0.101l0.044,0.101l0.045,0.1l0.046,0.099l0.048,0.099l0.049,0.098l0.05,0.098l0.051,0.097l0.052,0.097l0.053,0.096l0.055,0.095l0.056,0.095l0.057,0.094l0.058,0.093l0.06,0.093l0.06,0.092l0.062,0.091l0.063,0.091l0.064,0.09l0.065,0.089l0.066,0.088l0.068,0.088l0.068,0.087l0.07,0.086l0.071,0.085l0.072,0.085l0.073,0.084l0.074,0.082l0.075,0.083l0.076,0.081l0.078,0.08l0.078,0.08l0.08,0.078l0.08,0.078l0.081,0.076l0.083,0.075l0.082,0.074l0.084,0.073l0.085,0.072l0.085,0.071l0.086,0.07l0.087,0.068l0.088,0.068l0.088,0.066l0.089,0.065l0.09,0.064l0.091,0.063l0.091,0.062l0.092,0.06l0.093,0.06l0.093,0.058l0.094,0.057l0.095,0.056l0.095,0.055l0.096,0.053l0.097,0.052l0.097,0.052l0.098,0.049l0.098,0.049l0.099,0.048l0.1,0.046l0.1,0.045l0.1,0.044l0.101,0.042l0.102,0.042l0.102,0.04l0.102,0.039l0.104,0.037l0.103,0.037l0.104,0.035l0.104,0.034l0.105,0.032l0.106,0.032l0.105,0.03l0.106,0.028l0.107,0.028l0.107,0.026l0.107,0.025l0.107,0.023l0.108,0.023l0.108,0.021l0.109,0.019l0.109,0.018l0.109,0.017l0.109,0.016l0.11,0.014l0.11,0.013l0.11,0.012l0.11,0.01l0.111,0.009l0.111,0.008l0.111,0.006l0.111,0.005l0.112,0.003l0.111,0.002l0.118,0.001l6,0l0.118,-0.001l0.111,-0.002l0.112,-0.003l0.111,-0.005l0.111,-0.006l0.111,-0.008l0.111,-0.009l0.11,-0.01l0.11,-0.012l0.11,-0.013l0.11,-0.014l0.109,-0.016l0.109,-0.017l0.109,-0.018l0.109,-0.019l0.108,-0.021l0.108,-0.023l0.107,-0.023l0.107,-0.025l0.107,-0.026l0.107,-0.028l0.106,-0.028l0.105,-0.03l0.106,-0.032l0.105,-0.032l0.104,-0.034l0.104,-0.035l0.103,-0.037l0.104,-0.037l0.102,-0.039l0.102,-0.04l0.102,-0.042l0.101,-0.042l0.1,-0.044l0.1,-0.045l0.1,-0.046l0.099,-0.048l0.098,-0.049l0.098,-0.049l0.097,-0.052l0.097,-0.052l0.096,-0.053l0.095,-0.055l0.095,-0.056l0.094,-0.057l0.093,-0.058l0.093,-0.06l0.092,-0.06l0.091,-0.062l0.091,-0.063l0.09,-0.064l0.089,-0.065l0.088,-0.066l0.088,-0.068l0.087,-0.068l0.086,-0.07l0.085,-0.071l0.085,-0.072l0.084,-0.073l0.082,-0.074l0.083,-0.075l0.081,-0.076l0.08,-0.078l0.08,-0.078l0.078,-0.08l0.078,-0.08l0.076,-0.081l0.075,-0.082l0.074,-0.083l0.073,-0.084l0.072,-0.085l0.071,-0.085l0.07,-0.086l0.068,-0.087l0.068,-0.088l0.066,-0.088l0.065,-0.089l0.064,-0.09l0.063,-0.091l0.062,-0.091l0.06,-0.092l0.06,-0.093l0.058,-0.093l0.057,-0.094l0.056,-0.095l0.055,-0.095l0.053,-0.096l0.052,-0.097l0.051,-0.097l0.05,-0.098l0.049,-0.098l0.048,-0.099l0.046,-0.099l0.045,-0.1l0.044,-0.101l0.042,-0.101l0.042,-0.102l0.04,-0.102l0.039,-0.102l0.037,-0.104l0.037,-0.103l0.035,-0.104l0.034,-0.104l0.032,-0.105l0.032,-0.106l0.03,-0.105l0.028,-0.106l0.028,-0.107l0.026,-0.107l0.025,-0.107l0.023,-0.107l0.023,-0.108l0.021,-0.108l0.019,-0.109l0.018,-0.109l0.017,-0.109l0.016,-0.109l0.014,-0.11l0.013,-0.11l0.012,-0.11l0.01,-0.11l0.009,-0.111l0.008,-0.111l0.006,-0.111l0.005,-0.111l0.003,-0.112l0.002,-0.111l0.001,-0.116l-0.001,-0.16l-0.003,-0.155l-0.005,-0.154l-0.007,-0.154l-0.008,-0.153l-0.011,-0.153l-0.013,-0.152l-0.014,-0.152l-0.016,-0.151l-0.019,-0.151l-0.02,-0.149l-0.021,-0.15l-0.024,-0.148l-0.026,-0.148l-0.027,-0.148l-0.029,-0.146l-0.031,-0.146l-0.032,-0.145l-0.035,-0.145l-0.036,-0.144l-0.037,-0.143l-0.04,-0.143l-0.041,-0.142l-0.043,-0.141l-0.045,-0.14l-0.046,-0.139l-0.048,-0.139l-0.05,-0.138l-0.051,-0.138l-0.053,-0.136l-0.054,-0.136l-0.056,-0.135l-0.058,-0.134l-0.059,-0.133l-0.061,-0.132l-0.062,-0.132l-0.064,-0.13l-0.065,-0.13l-0.067,-0.129l-0.069,-0.128l-0.07,-0.127l-0.071,-0.126l-0.073,-0.125l-0.075,-0.124l-0.076,-0.123l-0.077,-0.122l-0.079,-0.122l-0.08,-0.12l-0.081,-0.119l-0.083,-0.118l-0.085,-0.117l-0.086,-0.116l-0.087,-0.115l-0.088,-0.114l-0.09,-0.113l-0.091,-0.112l-0.092,-0.111l-0.094,-0.109l-0.095,-0.109l-0.097,-0.107l-0.097,-0.106l-0.099,-0.105l-0.1,-0.103l-0.101,-0.103l-0.103,-0.101l-0.103,-0.1l-0.105,-0.099l-0.106,-0.098l-0.107,-0.096l-0.109,-0.095l-0.109,-0.094l-0.111,-0.092l-0.112,-0.091l-0.113,-0.09l-0.114,-0.088l-0.115,-0.087l-0.116,-0.086l-0.117,-0.085l-0.118,-0.082l-0.119,-0.082l-0.12,-0.08l-0.122,-0.079l-0.122,-0.077l-0.123,-0.076l-0.124,-0.075l-0.125,-0.073l-0.126,-0.071l-0.127,-0.07l-0.128,-0.069l-0.129,-0.067l-0.13,-0.065l-0.13,-0.064l-0.132,-0.062l-0.132,-0.061l-0.133,-0.059l-0.134,-0.058l-0.135,-0.056l-0.136,-0.054l-0.136,-0.053l-0.138,-0.051l-0.138,-0.05l-0.139,-0.048l-0.139,-0.046l-0.14,-0.045l-0.141,-0.043l-0.142,-0.041l-0.143,-0.04l-0.143,-0.037l-0.144,-0.036l-0.145,-0.035l-0.145,-0.032l-0.146,-0.031l-0.147,-0.029l-0.147,-0.027l-0.148,-0.026l-0.148,-0.024l-0.15,-0.021l-0.149,-0.02l-0.151,-0.019l-0.151,-0.016l-0.152,-0.014l-0.152,-0.013l-0.152,-0.011l-0.154,-0.008l-0.154,-0.007l-0.154,-0.005l-0.155,-0.003l-0.157,-0.001l-0.157,0.001Z"/></g><g id="emoji"><path d="M30,18.998c0,-7.731 -6.267,-13.998 -13.998,-13.998c-0.001,0 -0.001,0 -0.002,0c-7.732,0 -14,6.268 -14,14c0,0.002 0,0.004 0,0.006c0,2.916 1.158,5.712 3.22,7.774c2.062,2.062 4.858,3.22 7.774,3.22c1.976,0 4.036,0 6.012,0c2.916,0 5.712,-1.158 7.774,-3.22c2.062,-2.062 3.22,-4.858 3.22,-7.774c0,-0.003 0,-0.005 0,-0.008Z" style="fill:#fbc546;"/><path d="M24.947,13.106c0.237,0.118 0.418,0.326 0.502,0.578c0.084,0.251 0.064,0.526 -0.055,0.763c-0.118,0.237 -0.326,0.418 -0.578,0.502c-0.251,0.084 -0.526,0.064 -0.763,-0.055c-1.088,-0.543 -2.913,-1.456 -4,-2c-0.237,-0.118 -0.418,-0.326 -0.502,-0.578c-0.084,-0.251 -0.064,-0.526 0.055,-0.763c0.118,-0.237 0.326,-0.418 0.578,-0.502c0.251,-0.084 0.526,-0.064 0.763,0.055c1.088,0.543 2.913,1.456 4,2Z" style="fill-rule:nonzero;"/><path d="M12.394,11.553c0.119,0.237 0.139,0.512 0.055,0.763c-0.084,0.252 -0.265,0.46 -0.502,0.578c-1.088,0.544 -2.913,1.457 -4.001,2.001c-0.493,0.247 -1.093,0.047 -1.34,-0.447c0,0 0,0 0,-0.001c-0.119,-0.237 -0.139,-0.512 -0.055,-0.763c0.084,-0.252 0.265,-0.46 0.502,-0.578c1.088,-0.544 2.913,-1.457 4.001,-2.001c0.493,-0.247 1.093,-0.047 1.34,0.447c0,0 0,0 0,0.001Z" style="fill-rule:nonzero;"/><path d="M29,19c0,-1.105 -0.895,-2 -2,-2c-1.222,0 -2.778,0 -4,0c-1.105,0 -2,0.895 -2,2c0,1.105 0.895,2 2,2c1.222,0 2.778,0 4,0c1.105,0 2,-0.895 2,-2c0,0 0,0 0,0Z" style="fill:#ed6b44;"/><path d="M11,19c0,-1.105 -0.895,-2 -2,-2c-1.222,0 -2.778,0 -4,0c-1.105,0 -2,0.895 -2,2c0,1.105 0.895,2 2,2c1.222,0 2.778,0 4,0c1.105,0 2,-0.895 2,-2c0,0 0,0 0,0Z" style="fill:#ed6b44;"/><path d="M22.097,19.005l0.068,0.009l0.067,0.013l0.065,0.018l0.065,0.023l0.063,0.027l0.06,0.031l0.059,0.035l0.056,0.039l0.053,0.043l0.05,0.046l0.047,0.05l0.044,0.053l0.039,0.055l0.036,0.058l0.032,0.061l0.027,0.062l0.024,0.064l0.018,0.066l0.015,0.067l0.009,0.067l0.005,0.069l0.001,0.068l-0.005,0.068l-0.009,0.068l-0.013,0.067l-0.018,0.065l-0.023,0.065l-0.027,0.063l-0.031,0.06l-0.035,0.059l-0.039,0.056l-1.202,1.603l-0.06,0.079l-0.064,0.081l-0.065,0.08l-0.065,0.079l-0.067,0.078l-0.068,0.076l-0.069,0.076l-0.07,0.074l-0.071,0.074l-0.071,0.072l-0.073,0.071l-0.074,0.07l-0.075,0.069l-0.075,0.067l-0.077,0.067l-0.077,0.065l-0.078,0.064l-0.079,0.063l-0.08,0.062l-0.081,0.061l-0.081,0.059l-0.083,0.058l-0.083,0.057l-0.084,0.056l-0.085,0.054l-0.085,0.053l-0.086,0.052l-0.087,0.051l-0.088,0.049l-0.088,0.049l-0.089,0.046l-0.089,0.046l-0.091,0.044l-0.091,0.043l-0.091,0.042l-0.092,0.04l-0.093,0.04l-0.093,0.037l-0.094,0.037l-0.094,0.035l-0.095,0.034l-0.096,0.032l-0.096,0.031l-0.096,0.03l-0.097,0.028l-0.097,0.027l-0.098,0.025l-0.098,0.024l-0.099,0.023l-0.099,0.021l-0.099,0.02l-0.1,0.019l-0.101,0.017l-0.1,0.015l-0.101,0.014l-0.101,0.013l-0.102,0.011l-0.101,0.01l-0.102,0.008l-0.103,0.007l-0.102,0.005l-0.103,0.004l-0.103,0.002l-0.103,0.001l-0.103,-0.001l-0.103,-0.002l-0.103,-0.004l-0.102,-0.005l-0.103,-0.007l-0.102,-0.008l-0.101,-0.01l-0.102,-0.011l-0.101,-0.013l-0.101,-0.014l-0.1,-0.015l-0.101,-0.017l-0.099,-0.019l-0.1,-0.02l-0.099,-0.021l-0.099,-0.023l-0.098,-0.024l-0.098,-0.025l-0.097,-0.027l-0.097,-0.028l-0.096,-0.03l-0.096,-0.031l-0.096,-0.032l-0.095,-0.034l-0.094,-0.035l-0.094,-0.037l-0.093,-0.037l-0.093,-0.04l-0.092,-0.04l-0.091,-0.042l-0.091,-0.043l-0.09,-0.044l-0.09,-0.046l-0.089,-0.046l-0.088,-0.049l-0.088,-0.049l-0.087,-0.051l-0.086,-0.052l-0.085,-0.053l-0.085,-0.054l-0.084,-0.056l-0.083,-0.057l-0.083,-0.058l-0.081,-0.059l-0.081,-0.061l-0.08,-0.062l-0.079,-0.063l-0.078,-0.064l-0.077,-0.065l-0.077,-0.067l-0.075,-0.067l-0.075,-0.069l-0.074,-0.07l-0.073,-0.071l-0.071,-0.072l-0.071,-0.074l-0.07,-0.074l-0.069,-0.076l-0.068,-0.076l-0.067,-0.078l-0.065,-0.079l-0.065,-0.08l-0.064,-0.081l-0.06,-0.079l-1.202,-1.603l-0.039,-0.056l-0.035,-0.059l-0.031,-0.06l-0.027,-0.063l-0.023,-0.065l-0.018,-0.065l-0.013,-0.067l-0.009,-0.068l-0.005,-0.068l0.001,-0.068l0.005,-0.069l0.009,-0.067l0.015,-0.067l0.018,-0.066l0.024,-0.064l0.027,-0.062l0.032,-0.061l0.036,-0.058l0.039,-0.055l0.044,-0.053l0.047,-0.05l0.05,-0.046l0.053,-0.043l0.056,-0.039l0.059,-0.035l0.06,-0.031l0.063,-0.027l0.065,-0.023l0.065,-0.018l0.067,-0.013l0.068,-0.009l0.068,-0.005l0.068,0.001l0.069,0.005l0.067,0.009l0.067,0.015l0.066,0.018l0.064,0.024l0.062,0.027l0.061,0.032l0.058,0.036l0.055,0.039l0.053,0.044l0.05,0.047l0.046,0.05l0.043,0.053l1.198,1.597l0.047,0.062l0.045,0.058l0.046,0.057l0.047,0.056l0.048,0.056l0.048,0.054l0.05,0.054l0.05,0.053l0.05,0.053l0.051,0.051l0.052,0.051l0.053,0.05l0.053,0.049l0.054,0.049l0.055,0.047l0.055,0.047l0.056,0.045l0.056,0.045l0.057,0.044l0.058,0.044l0.058,0.042l0.059,0.042l0.06,0.04l0.06,0.04l0.06,0.039l0.061,0.038l0.062,0.037l0.062,0.036l0.062,0.036l0.063,0.034l0.064,0.034l0.064,0.032l0.064,0.032l0.065,0.031l0.066,0.029l0.066,0.029l0.066,0.028l0.066,0.027l0.067,0.026l0.068,0.025l0.068,0.024l0.068,0.023l0.068,0.023l0.069,0.021l0.069,0.02l0.07,0.019l0.07,0.018l0.07,0.018l0.07,0.016l0.071,0.015l0.071,0.014l0.071,0.013l0.072,0.012l0.072,0.012l0.072,0.01l0.072,0.009l0.072,0.008l0.073,0.007l0.073,0.006l0.073,0.004l0.073,0.004l0.074,0.003l0.073,0.001l0.074,0.001l0.074,-0.001l0.073,-0.001l0.074,-0.003l0.073,-0.004l0.073,-0.004l0.073,-0.006l0.073,-0.007l0.072,-0.008l0.072,-0.009l0.072,-0.01l0.072,-0.012l0.072,-0.012l0.071,-0.013l0.071,-0.014l0.071,-0.015l0.07,-0.016l0.07,-0.018l0.07,-0.018l0.07,-0.019l0.069,-0.02l0.069,-0.021l0.068,-0.023l0.068,-0.023l0.068,-0.024l0.068,-0.025l0.067,-0.026l0.066,-0.027l0.066,-0.028l0.066,-0.029l0.066,-0.029l0.065,-0.031l0.064,-0.032l0.064,-0.032l0.064,-0.034l0.063,-0.034l0.062,-0.036l0.062,-0.036l0.062,-0.037l0.061,-0.038l0.06,-0.039l0.06,-0.04l0.06,-0.04l0.059,-0.042l0.058,-0.042l0.058,-0.044l0.057,-0.044l0.056,-0.045l0.056,-0.045l0.055,-0.047l0.055,-0.047l0.054,-0.049l0.053,-0.049l0.053,-0.05l0.052,-0.051l0.051,-0.051l0.05,-0.053l0.05,-0.053l0.05,-0.054l0.048,-0.054l0.048,-0.056l0.047,-0.056l0.046,-0.057l0.045,-0.058l0.047,-0.062l1.198,-1.597l0.043,-0.053l0.046,-0.05l0.05,-0.047l0.053,-0.044l0.055,-0.039l0.058,-0.036l0.061,-0.032l0.062,-0.027l0.064,-0.024l0.066,-0.018l0.067,-0.015l0.067,-0.009l0.069,-0.005l0.068,-0.001l0.068,0.005Z" style="fill:#593604;"/></g></g></svg>