<?xml version="1.0" encoding="UTF-8" standalone="no"?>
<!DOCTYPE svg PUBLIC "-//W3C//DTD SVG 1.1//EN" "http://www.w3.org/Graphics/SVG/1.1/DTD/svg11.dtd">
<svg width="100%" height="100%" viewBox="0 0 32 32" version="1.1" xmlns="http://www.w3.org/2000/svg" xmlns:xlink="http://www.w3.org/1999/xlink" xml:space="preserve" xmlns:serif="http://www.serif.com/" style="fill-rule:evenodd;clip-rule:evenodd;stroke-linecap:round;stroke-miterlimit:1.5;">
    <rect id="relaxed" x="0" y="0" width="32" height="32" style="fill:none;"/>
    <clipPath id="_clip1">
        <rect x="0" y="0" width="32" height="32"/>
    </clipPath>
    <g clip-path="url(#_clip1)">
        <g id="outline">
            <path d="M16.002,3c8.835,0 15.998,7.163 15.998,15.998l0,0.008c0,3.446 -1.369,6.751 -3.806,9.188c-2.437,2.437 -5.742,3.806 -9.188,3.806c-1.976,0 -4.036,0 -6.012,0c-3.446,0 -6.751,-1.369 -9.188,-3.806c-2.437,-2.437 -3.806,-5.742 -3.806,-9.188c0,-0.002 0,-0.004 0,-0.006c0,-8.837 7.163,-16 16,-16l0.002,0Z"/>
        </g>
        <g id="emoji">
            <path d="M30,18.998c0,-7.731 -6.267,-13.998 -13.998,-13.998c-0.001,0 -0.001,0 -0.002,0c-7.732,0 -14,6.268 -14,14c0,0.002 0,0.004 0,0.006c0,2.916 1.158,5.712 3.22,7.774c2.062,2.062 4.858,3.22 7.774,3.22c1.976,0 4.036,0 6.012,0c2.916,0 5.712,-1.158 7.774,-3.22c2.062,-2.062 3.22,-4.858 3.22,-7.774c0,-0.003 0,-0.005 0,-0.008Z" style="fill:#fbc546;"/>
            <path d="M12.394,12.553c0.119,0.237 0.139,0.512 0.055,0.763c-0.084,0.252 -0.265,0.46 -0.502,0.578c-1.088,0.544 -2.913,1.457 -4.001,2.001c-0.493,0.247 -1.093,0.047 -1.34,-0.447c0,0 0,0 0,-0.001c-0.119,-0.237 -0.139,-0.512 -0.055,-0.763c0.084,-0.252 0.265,-0.46 0.502,-0.578c1.088,-0.544 2.913,-1.457 4.001,-2.001c0.493,-0.247 1.093,-0.047 1.34,0.447c0,0 0,0 0,0.001Zm12.553,1.553c0.237,0.118 0.418,0.326 0.502,0.578c0.084,0.251 0.064,0.526 -0.055,0.763c-0.118,0.237 -0.326,0.418 -0.578,0.502c-0.251,0.084 -0.526,0.064 -0.763,-0.055c-1.088,-0.543 -2.913,-1.456 -4,-2c-0.237,-0.118 -0.418,-0.326 -0.502,-0.578c-0.084,-0.251 -0.064,-0.526 0.055,-0.763c0.118,-0.237 0.326,-0.418 0.578,-0.502c0.251,-0.084 0.526,-0.064 0.763,0.055c1.088,0.543 2.913,1.456 4,2Z" style="fill-rule:nonzero;"/>
            <path d="M27,17c1.1,0 1.993,0.888 2,1.987l0,0.013c0,1.105 -0.895,2 -2,2c-1.222,0 -2.778,0 -4,0c-1.105,0 -2,-0.895 -2,-2c0,-1.105 0.895,-2 2,-2l4,0Zm-18,0c1.1,0 1.993,0.888 2,1.987l0,0.013c0,1.105 -0.895,2 -2,2c-1.222,0 -2.778,0 -4,0c-1.105,0 -2,-0.895 -2,-2c0,-1.105 0.895,-2 2,-2l4,0Z" style="fill:#ed6b44;"/>
            <path d="M10,20c0,0 0.562,0.75 1.2,1.6c1.133,1.511 2.911,2.4 4.8,2.4c1.889,0 3.667,-0.889 4.8,-2.4c0.638,-0.85 1.2,-1.6 1.2,-1.6" style="fill:none;stroke:#593604;stroke-width:2px;"/>
        </g>
    </g>
</svg>
