<?xml version="1.0" encoding="UTF-8" standalone="no"?>
<!DOCTYPE svg PUBLIC "-//W3C//DTD SVG 1.1//EN" "http://www.w3.org/Graphics/SVG/1.1/DTD/svg11.dtd">
<svg width="100%" height="100%" viewBox="0 0 32 32" version="1.1" xmlns="http://www.w3.org/2000/svg" xmlns:xlink="http://www.w3.org/1999/xlink" xml:space="preserve" xmlns:serif="http://www.serif.com/" style="fill-rule:evenodd;clip-rule:evenodd;stroke-linecap:round;stroke-miterlimit:1.5;">
    <rect id="smile_hearts" x="0" y="0" width="32" height="32" style="fill:none;"/>
    <clipPath id="_clip1">
        <rect x="0" y="0" width="32" height="32"/>
    </clipPath>
    <g clip-path="url(#_clip1)">
        <g id="outline">
            <path d="M11.006,1.223c1.888,-1.523 4.656,-1.411 6.415,0.332c0,0 0.001,0.001 0.001,0.001c0.746,0.74 1.227,1.697 1.379,2.724c6.187,1.256 10.893,6.593 11.184,13.08c0.334,0.18 0.648,0.41 0.931,0.69c0,0.001 0.001,0.001 0.002,0.002c0.782,0.773 1.224,1.826 1.227,2.925c0.003,1.1 -0.432,2.155 -1.21,2.933l-4.94,4.94l-0.63,-0.634c-2.147,1.741 -4.883,2.784 -7.863,2.784l-3.004,0c-1.673,0 -3.269,-0.329 -4.727,-0.926l-2.775,2.775l-5.427,-5.46c-1.856,-1.867 -1.851,-4.883 0.01,-6.744c0.023,-0.023 0.047,-0.047 0.07,-0.07c0.146,-0.146 0.3,-0.281 0.462,-0.405c-0.073,-0.546 -0.111,-1.102 -0.111,-1.668c0,-0.168 0,-0.336 0,-0.504c0,-3.401 1.213,-6.519 3.231,-8.945l-0.626,-0.629c-1.876,-1.886 -1.872,-4.933 0.009,-6.814c0,0 0.001,-0.001 0.002,-0.002c0.907,-0.907 2.138,-1.416 3.422,-1.414c1.082,0.002 2.126,0.367 2.968,1.029Z"/>
        </g>
        <g id="emoji">
            <path d="M28,17.998c0,-6.626 -5.372,-11.998 -11.998,-11.998c-0.001,0 -0.003,0 -0.004,0c-6.626,0 -11.998,5.372 -11.998,11.998c0,0.168 0,0.336 0,0.504c0,5.798 4.7,10.498 10.498,10.498l3.004,0c5.798,0 10.498,-4.7 10.498,-10.498l0,-0.504Z" style="fill:#fbc546;"/>
            <path d="M6.794,16.207c0.188,0.187 0.442,0.293 0.707,0.293c0.265,0 0.519,-0.106 0.706,-0.293c0.001,-0.001 0.001,-0.001 0.001,-0.001c0.475,-0.475 1.12,-0.742 1.792,-0.742c0.672,0 1.317,0.267 1.792,0.742c0,0 0,0 0,0c0.188,0.188 0.442,0.293 0.707,0.293c0.265,0 0.52,-0.105 0.707,-0.293c0.188,-0.187 0.293,-0.442 0.293,-0.707c0,-0.265 -0.105,-0.519 -0.293,-0.707c0,0 0,0 0,0c-0.85,-0.85 -2.004,-1.328 -3.206,-1.328c-1.202,0 -2.356,0.478 -3.206,1.328c0,0 0,0 -0.001,0.001c-0.187,0.187 -0.293,0.441 -0.293,0.706c0,0.265 0.106,0.519 0.293,0.707l0.001,0.001Z"/>
            <path d="M25.206,16.207c-0.188,0.187 -0.442,0.293 -0.707,0.293c-0.265,0 -0.519,-0.106 -0.706,-0.293c-0.001,-0.001 -0.001,-0.001 -0.001,-0.001c-0.475,-0.475 -1.12,-0.742 -1.792,-0.742c-0.672,0 -1.317,0.267 -1.792,0.742c0,0 0,0 0,0c-0.188,0.188 -0.442,0.293 -0.707,0.293c-0.265,0 -0.52,-0.105 -0.707,-0.293c-0.188,-0.187 -0.293,-0.442 -0.293,-0.707c0,-0.265 0.105,-0.519 0.293,-0.707c0,0 0,0 0,0c0.85,-0.85 2.004,-1.328 3.206,-1.328c1.202,0 2.356,0.478 3.206,1.328c0,0 0,0 0.001,0.001c0.187,0.187 0.293,0.441 0.293,0.706c0,0.265 -0.106,0.519 -0.293,0.707l-0.001,0.001Z"/>
            <path d="M11,12.017c0,0 -2.919,-2.935 -4.977,-5.004c-1.098,-1.104 -1.096,-2.888 0.005,-3.988c0,-0.001 0.001,-0.002 0.002,-0.002c0.531,-0.532 1.253,-0.83 2.004,-0.829c0.752,0.002 1.472,0.302 2.002,0.835c0.533,0.537 0.964,0.971 0.964,0.971c0,0 0.476,-0.468 1.051,-1.033c1.101,-1.082 2.866,-1.078 3.962,0.008c0,0.001 0.001,0.001 0.001,0.002c0.536,0.53 0.838,1.252 0.839,2.006c0.002,0.754 -0.297,1.477 -0.83,2.01c-2.079,2.08 -5.023,5.024 -5.023,5.024Z" style="fill:#d92020;"/>
            <path d="M7,30.017c0,0 -2.273,-2.288 -4.013,-4.038c-1.078,-1.085 -1.076,-2.838 0.006,-3.92c0.024,-0.023 0.047,-0.046 0.07,-0.07c0.523,-0.522 1.232,-0.815 1.97,-0.813c0.739,0.002 1.446,0.298 1.966,0.823c0.001,0.001 0.001,0.001 0.001,0.001c0,0 0.03,-0.029 0.082,-0.08c1.085,-1.057 2.816,-1.049 3.892,0.016c0.027,0.027 0.054,0.055 0.082,0.082c0.524,0.519 0.82,1.227 0.821,1.965c0.002,0.739 -0.29,1.447 -0.813,1.969c-1.761,1.761 -4.064,4.065 -4.064,4.065Z" style="fill:#d92020;"/>
            <path d="M11,20c0,0 0.136,0.204 0.336,0.505c1.04,1.559 2.789,2.495 4.663,2.495l0.002,0c1.874,0 3.623,-0.936 4.663,-2.495c0.2,-0.301 0.336,-0.505 0.336,-0.505" style="fill:none;stroke:#593604;stroke-width:2px;"/>
            <path d="M26,26.017c0,0 -2.016,-2.031 -3.479,-3.505c-0.821,-0.827 -0.818,-2.162 0.006,-2.986c0,-0.001 0.001,-0.001 0.001,-0.002c0.399,-0.399 0.941,-0.623 1.506,-0.621c0.565,0.001 1.105,0.228 1.503,0.629c0.267,0.27 0.463,0.468 0.463,0.468c0,0 0.238,-0.232 0.552,-0.538c0.824,-0.803 2.14,-0.798 2.958,0.011c0.001,0 0.001,0.001 0.002,0.001c0.403,0.399 0.631,0.942 0.633,1.509c0.002,0.567 -0.223,1.112 -0.624,1.513c-1.483,1.483 -3.521,3.521 -3.521,3.521Z" style="fill:#d92020;"/>
        </g>
    </g>
</svg>
