<?xml version="1.0" encoding="UTF-8" standalone="no"?><!DOCTYPE svg PUBLIC "-//W3C//DTD SVG 1.1//EN" "http://www.w3.org/Graphics/SVG/1.1/DTD/svg11.dtd"><svg width="100%" height="100%" viewBox="0 0 32 32" version="1.1" xmlns="http://www.w3.org/2000/svg" xmlns:xlink="http://www.w3.org/1999/xlink" xml:space="preserve" xmlns:serif="http://www.serif.com/" style="fill-rule:evenodd;clip-rule:evenodd;stroke-linejoin:round;stroke-miterlimit:1.41421;"><rect id="smile_hearts" x="0" y="0" width="32" height="32" style="fill:none;"/><clipPath id="_clip1"><rect x="0" y="0" width="32" height="32"/></clipPath><g clip-path="url(#_clip1)"><g id="outline"><path d="M14.152,0.16l0.115,0.004l0.114,0.007l0.114,0.01l0.114,0.012l0.114,0.015l0.113,0.018l0.113,0.021l0.113,0.023l0.112,0.026l0.112,0.029l0.111,0.031l0.111,0.034l0.11,0.037l0.109,0.04l0.109,0.042l0.108,0.046l0.107,0.047l0.106,0.051l0.105,0.053l0.104,0.056l0.103,0.059l0.101,0.061l0.101,0.065l0.099,0.066l0.098,0.07l0.096,0.072l0.094,0.075l0.094,0.077l0.091,0.08l0.09,0.083l0.073,0.071l0.019,0.018l0.082,0.083l0.082,0.087l0.079,0.09l0.078,0.091l0.075,0.093l0.072,0.095l0.07,0.096l0.068,0.098l0.065,0.099l0.062,0.101l0.06,0.102l0.058,0.104l0.055,0.105l0.052,0.106l0.049,0.107l0.047,0.109l0.045,0.109l0.041,0.111l0.039,0.112l0.036,0.112l0.033,0.114l0.031,0.114l0.028,0.116l0.025,0.116l0.022,0.117l0.02,0.117l0.002,0.017l0.162,0.034l0.164,0.037l0.164,0.038l0.163,0.04l0.162,0.042l0.161,0.045l0.161,0.045l0.16,0.048l0.159,0.05l0.158,0.051l0.157,0.054l0.157,0.055l0.156,0.057l0.154,0.058l0.154,0.061l0.153,0.062l0.152,0.064l0.151,0.065l0.151,0.068l0.149,0.069l0.148,0.071l0.148,0.072l0.146,0.074l0.145,0.076l0.145,0.077l0.143,0.079l0.142,0.081l0.141,0.082l0.14,0.084l0.139,0.085l0.138,0.087l0.137,0.089l0.136,0.09l0.135,0.091l0.133,0.093l0.133,0.095l0.131,0.096l0.13,0.098l0.129,0.099l0.127,0.1l0.127,0.102l0.125,0.103l0.124,0.105l0.123,0.106l0.121,0.108l0.121,0.108l0.119,0.111l0.117,0.111l0.117,0.113l0.115,0.115l0.113,0.115l0.113,0.117l0.111,0.118l0.11,0.12l0.108,0.121l0.107,0.122l0.105,0.123l0.105,0.124l0.102,0.126l0.102,0.127l0.099,0.128l0.099,0.13l0.097,0.13l0.095,0.132l0.094,0.133l0.093,0.134l0.091,0.135l0.089,0.136l0.088,0.137l0.086,0.139l0.085,0.139l0.083,0.141l0.082,0.141l0.079,0.143l0.079,0.144l0.077,0.145l0.075,0.145l0.073,0.147l0.072,0.148l0.07,0.149l0.068,0.149l0.067,0.151l0.065,0.152l0.063,0.152l0.061,0.153l0.06,0.154l0.058,0.156l0.056,0.156l0.055,0.157l0.052,0.157l0.051,0.159l0.049,0.159l0.047,0.16l0.045,0.161l0.043,0.162l0.042,0.162l0.039,0.163l0.038,0.164l0.035,0.165l0.034,0.165l0.032,0.166l0.03,0.167l0.027,0.167l0.026,0.168l0.024,0.169l0.022,0.169l0.02,0.17l0.018,0.17l0.015,0.171l0.014,0.172l0.012,0.172l0.009,0.172l0.002,0.056l0.01,0.006l0.09,0.05l0.089,0.053l0.087,0.055l0.087,0.058l0.085,0.06l0.084,0.062l0.083,0.065l0.082,0.067l0.079,0.07l0.078,0.071l0.068,0.065l0.019,0.019l0.064,0.065l0.07,0.075l0.069,0.076l0.066,0.078l0.064,0.079l0.062,0.081l0.06,0.083l0.058,0.083l0.056,0.085l0.053,0.086l0.052,0.088l0.049,0.088l0.047,0.09l0.045,0.09l0.042,0.092l0.041,0.093l0.037,0.094l0.036,0.094l0.033,0.096l0.032,0.096l0.028,0.097l0.026,0.098l0.024,0.098l0.022,0.1l0.019,0.1l0.017,0.1l0.014,0.101l0.011,0.101l0.01,0.103l0.006,0.102l0.004,0.102l0.002,0.103l-0.001,0.103l-0.004,0.103l-0.006,0.102l-0.008,0.102l-0.011,0.102l-0.014,0.1l-0.016,0.101l-0.018,0.1l-0.021,0.1l-0.024,0.098l-0.025,0.098l-0.028,0.097l-0.031,0.097l-0.032,0.095l-0.036,0.096l-0.037,0.094l-0.04,0.092l-0.042,0.092l-0.044,0.092l-0.046,0.089l-0.049,0.089l-0.051,0.088l-0.053,0.086l-0.055,0.085l-0.057,0.084l-0.06,0.083l-0.062,0.081l-0.064,0.08l-0.065,0.078l-0.068,0.077l-0.07,0.075l-0.063,0.065l-4.949,4.949l-0.629,-0.634l-0.107,0.086l-0.129,0.101l-0.13,0.099l-0.131,0.097l-0.132,0.095l-0.134,0.094l-0.135,0.092l-0.136,0.09l-0.138,0.089l-0.139,0.087l-0.139,0.085l-0.142,0.083l-0.142,0.082l-0.144,0.079l-0.144,0.078l-0.146,0.076l-0.147,0.074l-0.149,0.073l-0.149,0.07l-0.15,0.069l-0.151,0.066l-0.153,0.065l-0.153,0.062l-0.155,0.061l-0.155,0.059l-0.157,0.056l-0.157,0.055l-0.159,0.053l-0.159,0.05l-0.16,0.048l-0.161,0.047l-0.162,0.044l-0.163,0.042l-0.164,0.04l-0.164,0.038l-0.166,0.036l-0.166,0.033l-0.166,0.031l-0.168,0.029l-0.168,0.027l-0.169,0.025l-0.17,0.022l-0.17,0.02l-0.172,0.018l-0.171,0.015l-0.172,0.013l-0.173,0.011l-0.174,0.008l-0.174,0.006l-0.174,0.004l-0.168,0.001l-3.019,0l-0.199,-0.002l-0.207,-0.005l-0.206,-0.008l-0.205,-0.012l-0.204,-0.015l-0.204,-0.018l-0.202,-0.022l-0.202,-0.024l-0.201,-0.028l-0.199,-0.031l-0.199,-0.035l-0.198,-0.037l-0.196,-0.041l-0.196,-0.043l-0.194,-0.047l-0.193,-0.049l-0.192,-0.053l-0.191,-0.056l-0.189,-0.058l-0.188,-0.061l-0.187,-0.065l-0.186,-0.067l-0.184,-0.07l-0.183,-0.072l-0.014,-0.007l-2.775,2.775l-5.436,-5.469l-0.076,-0.078l-0.083,-0.09l-0.08,-0.091l-0.077,-0.093l-0.075,-0.094l-0.072,-0.096l-0.069,-0.098l-0.067,-0.099l-0.064,-0.1l-0.061,-0.101l-0.058,-0.103l-0.056,-0.103l-0.053,-0.106l-0.051,-0.105l-0.047,-0.107l-0.045,-0.107l-0.042,-0.109l-0.04,-0.109l-0.036,-0.11l-0.034,-0.11l-0.031,-0.111l-0.029,-0.112l-0.026,-0.112l-0.023,-0.112l-0.02,-0.113l-0.017,-0.113l-0.015,-0.114l-0.012,-0.113l-0.009,-0.114l-0.007,-0.114l-0.004,-0.114l-0.001,-0.114l0.001,-0.114l0.005,-0.114l0.007,-0.114l0.009,-0.114l0.013,-0.113l0.015,-0.114l0.018,-0.113l0.02,-0.113l0.024,-0.112l0.026,-0.112l0.028,-0.111l0.032,-0.111l0.034,-0.111l0.037,-0.109l0.04,-0.109l0.042,-0.109l0.045,-0.107l0.048,-0.107l0.051,-0.105l0.053,-0.105l0.057,-0.103l0.058,-0.103l0.062,-0.101l0.064,-0.1l0.067,-0.099l0.07,-0.097l0.072,-0.096l0.075,-0.094l0.078,-0.092l0.08,-0.091l0.083,-0.09l0.076,-0.078l0.085,-0.085l0.053,-0.052l0.06,-0.057l0.06,-0.055l0.061,-0.054l0.063,-0.054l0.063,-0.052l0.064,-0.051l0.031,-0.024l-0.025,-0.203l-0.022,-0.207l-0.019,-0.208l-0.016,-0.208l-0.012,-0.209l-0.009,-0.21l-0.005,-0.211l-0.002,-0.204l0,-0.519l0.001,-0.187l0.004,-0.194l0.007,-0.193l0.009,-0.192l0.012,-0.192l0.014,-0.192l0.017,-0.19l0.02,-0.19l0.022,-0.189l0.024,-0.189l0.027,-0.187l0.029,-0.187l0.032,-0.186l0.035,-0.185l0.037,-0.185l0.039,-0.183l0.041,-0.183l0.044,-0.182l0.047,-0.181l0.048,-0.179l0.051,-0.18l0.054,-0.177l0.055,-0.177l0.058,-0.176l0.06,-0.175l0.063,-0.174l0.064,-0.173l0.067,-0.172l0.069,-0.17l0.071,-0.17l0.073,-0.168l0.076,-0.167l0.077,-0.166l0.08,-0.165l0.081,-0.163l0.084,-0.163l0.086,-0.161l0.087,-0.159l0.09,-0.159l0.092,-0.157l0.093,-0.156l0.096,-0.154l0.098,-0.154l0.099,-0.151l0.102,-0.151l0.103,-0.149l0.105,-0.147l0.107,-0.147l0.109,-0.144l0.11,-0.144l0.113,-0.141l0.114,-0.14l0.035,-0.042l-0.635,-0.638l-0.077,-0.08l-0.084,-0.09l-0.08,-0.092l-0.078,-0.094l-0.076,-0.096l-0.073,-0.096l-0.07,-0.099l-0.067,-0.1l-0.065,-0.101l-0.062,-0.102l-0.059,-0.104l-0.056,-0.105l-0.054,-0.106l-0.051,-0.106l-0.048,-0.108l-0.046,-0.109l-0.042,-0.109l-0.04,-0.111l-0.037,-0.111l-0.034,-0.111l-0.032,-0.112l-0.029,-0.113l-0.026,-0.113l-0.023,-0.113l-0.02,-0.115l-0.018,-0.114l-0.015,-0.114l-0.012,-0.115l-0.01,-0.115l-0.006,-0.115l-0.004,-0.116l-0.001,-0.115l0.001,-0.115l0.004,-0.115l0.007,-0.115l0.01,-0.115l0.013,-0.115l0.015,-0.115l0.018,-0.114l0.021,-0.114l0.023,-0.113l0.026,-0.113l0.03,-0.113l0.031,-0.112l0.035,-0.112l0.037,-0.111l0.04,-0.11l0.043,-0.109l0.046,-0.109l0.048,-0.107l0.051,-0.107l0.054,-0.106l0.057,-0.104l0.06,-0.103l0.062,-0.103l0.065,-0.101l0.067,-0.099l0.071,-0.099l0.073,-0.097l0.075,-0.095l0.079,-0.093l0.081,-0.092l0.083,-0.09l0.078,-0.08l0.019,-0.019l0.077,-0.076l0.088,-0.081l0.09,-0.079l0.091,-0.077l0.093,-0.074l0.095,-0.072l0.097,-0.07l0.098,-0.067l0.099,-0.064l0.101,-0.062l0.102,-0.06l0.104,-0.056l0.104,-0.055l0.107,-0.051l0.107,-0.049l0.109,-0.047l0.109,-0.044l0.111,-0.041l0.111,-0.038l0.113,-0.036l0.114,-0.032l0.114,-0.03l0.115,-0.028l0.116,-0.024l0.117,-0.022l0.117,-0.019l0.118,-0.016l0.118,-0.013l0.119,-0.01l0.12,-0.007l0.12,-0.004l0.119,-0.002l0.121,0.002l0.119,0.005l0.12,0.007l0.119,0.011l0.118,0.013l0.118,0.017l0.117,0.019l0.117,0.022l0.116,0.025l0.115,0.027l0.114,0.031l0.113,0.033l0.113,0.036l0.111,0.039l0.111,0.041l0.109,0.044l0.109,0.047l0.107,0.05l0.106,0.052l0.104,0.054l0.104,0.057l0.102,0.06l0.101,0.062l0.099,0.065l0.098,0.068l0.096,0.069l0.093,0.072l0.006,-0.005l0.095,-0.074l0.097,-0.072l0.098,-0.069l0.099,-0.066l0.101,-0.064l0.102,-0.061l0.103,-0.059l0.104,-0.055l0.105,-0.053l0.106,-0.05l0.107,-0.048l0.108,-0.044l0.109,-0.042l0.11,-0.039l0.11,-0.037l0.111,-0.033l0.111,-0.031l0.112,-0.029l0.112,-0.025l0.113,-0.023l0.113,-0.02l0.114,-0.018l0.114,-0.014l0.114,-0.012l0.114,-0.009l0.114,-0.007l0.115,-0.004l0.114,-0.001l0.114,0.002Zm-0.142,3.999l-0.02,0l-0.02,0.001l-0.019,0.002l-0.02,0.002l-0.02,0.003l-0.019,0.003l-0.019,0.003l-0.02,0.004l-0.019,0.004l-0.019,0.005l-0.019,0.005l-0.018,0.006l-0.019,0.006l-0.018,0.007l-0.019,0.007l-0.018,0.007l-0.018,0.008l-0.017,0.008l-0.018,0.009l-0.017,0.009l-0.017,0.01l-0.017,0.01l-0.017,0.011l-0.017,0.011l-0.016,0.012l-0.017,0.012l-0.016,0.013l-0.016,0.013l-0.016,0.014l-0.016,0.014l-0.025,0.024l-2.461,2.419l-2.357,-2.373l-0.024,-0.023l-0.015,-0.015l-0.015,-0.013l-0.016,-0.013l-0.016,-0.013l-0.016,-0.013l-0.016,-0.011l-0.017,-0.012l-0.017,-0.011l-0.017,-0.011l-0.018,-0.01l-0.018,-0.01l-0.018,-0.009l-0.018,-0.009l-0.018,-0.009l-0.019,-0.008l-0.019,-0.007l-0.018,-0.007l-0.02,-0.007l-0.019,-0.006l-0.019,-0.006l-0.02,-0.005l-0.02,-0.005l-0.02,-0.004l-0.019,-0.004l-0.021,-0.003l-0.02,-0.003l-0.02,-0.002l-0.021,-0.002l-0.02,-0.001l-0.02,-0.001l-0.021,0l-0.021,0l-0.021,0l-0.02,0.002l-0.02,0.001l-0.02,0.003l-0.021,0.002l-0.02,0.004l-0.02,0.003l-0.02,0.005l-0.019,0.004l-0.02,0.005l-0.019,0.006l-0.02,0.006l-0.019,0.007l-0.019,0.007l-0.019,0.007l-0.018,0.008l-0.019,0.009l-0.018,0.008l-0.018,0.01l-0.018,0.01l-0.017,0.01l-0.018,0.01l-0.017,0.011l-0.016,0.012l-0.017,0.012l-0.016,0.012l-0.016,0.013l-0.016,0.013l-0.015,0.013l-0.015,0.015l-0.016,0.015l-0.016,0.017l-0.015,0.016l-0.014,0.016l-0.014,0.016l-0.013,0.017l-0.012,0.016l-0.012,0.017l-0.012,0.017l-0.011,0.017l-0.01,0.016l-0.01,0.018l-0.009,0.017l-0.009,0.018l-0.009,0.018l-0.008,0.018l-0.008,0.018l-0.007,0.018l-0.007,0.019l-0.006,0.019l-0.006,0.019l-0.005,0.019l-0.005,0.019l-0.005,0.019l-0.004,0.019l-0.003,0.02l-0.003,0.02l-0.003,0.02l-0.002,0.02l-0.002,0.019l-0.001,0.02l-0.001,0.02l0,0.021l0,0.02l0.001,0.019l0.001,0.021l0.002,0.019l0.002,0.02l0.002,0.02l0.003,0.02l0.004,0.019l0.004,0.02l0.004,0.019l0.005,0.019l0.006,0.02l0.005,0.019l0.007,0.018l0.006,0.019l0.007,0.018l0.008,0.018l0.008,0.018l0.009,0.018l0.009,0.018l0.009,0.017l0.01,0.018l0.01,0.017l0.011,0.017l0.011,0.017l0.012,0.016l0.013,0.017l0.013,0.016l0.013,0.016l0.014,0.017l0.015,0.016l0.024,0.025l3.479,3.497l-1.667,1.501l-0.095,0.088l-0.094,0.089l-0.092,0.09l-0.092,0.092l-0.09,0.092l-0.089,0.094l-0.088,0.095l-0.087,0.096l-0.085,0.097l-0.084,0.098l-0.083,0.099l-0.082,0.101l-0.081,0.101l-0.079,0.102l-0.078,0.104l-0.076,0.104l-0.075,0.106l-0.074,0.106l-0.073,0.108l-0.071,0.108l-0.069,0.11l-0.069,0.11l-0.066,0.111l-0.066,0.113l-0.064,0.113l-0.063,0.114l-0.061,0.115l-0.06,0.116l-0.058,0.116l-0.057,0.118l-0.055,0.118l-0.054,0.119l-0.052,0.12l-0.05,0.121l-0.05,0.122l-0.047,0.122l-0.046,0.123l-0.045,0.124l-0.042,0.124l-0.041,0.126l-0.04,0.126l-0.038,0.127l-0.036,0.127l-0.035,0.128l-0.033,0.129l-0.031,0.13l-0.03,0.13l-0.028,0.13l-0.026,0.132l-0.025,0.132l-0.023,0.133l-0.021,0.133l-0.019,0.134l-0.017,0.135l-0.016,0.135l-0.014,0.136l-0.012,0.136l-0.01,0.137l-0.009,0.138l-0.006,0.138l-0.005,0.138l-0.003,0.139l-0.001,0.147l0,0.489l0.001,0.153l0.004,0.144l0.006,0.144l0.008,0.143l0.011,0.142l0.013,0.141l0.015,0.141l0.018,0.14l0.019,0.139l0.022,0.139l0.025,0.137l0.026,0.137l0.029,0.136l0.03,0.135l0.033,0.134l0.551,2.099l-1.982,0.504l-0.013,0.003l-0.013,0.004l-0.012,0.004l-0.013,0.004l-0.012,0.004l-0.013,0.005l-0.012,0.004l-0.012,0.005l-0.012,0.006l-0.012,0.005l-0.012,0.005l-0.012,0.006l-0.012,0.006l-0.011,0.006l-0.012,0.007l-0.011,0.006l-0.012,0.007l-0.011,0.007l-0.011,0.007l-0.011,0.007l-0.011,0.008l-0.01,0.007l-0.011,0.008l-0.011,0.008l-0.01,0.009l-0.01,0.008l-0.01,0.009l-0.01,0.009l-0.01,0.009l-0.01,0.009l-0.016,0.015l-0.055,0.056l-0.023,0.024l-0.014,0.015l-0.013,0.015l-0.013,0.015l-0.013,0.016l-0.011,0.015l-0.012,0.016l-0.01,0.016l-0.01,0.015l-0.01,0.017l-0.01,0.016l-0.009,0.016l-0.008,0.017l-0.008,0.017l-0.008,0.017l-0.007,0.017l-0.007,0.017l-0.006,0.018l-0.006,0.017l-0.006,0.018l-0.005,0.018l-0.004,0.018l-0.005,0.018l-0.003,0.018l-0.004,0.019l-0.003,0.019l-0.002,0.018l-0.002,0.019l-0.002,0.019l-0.001,0.018l-0.001,0.019l0,0.019l0,0.019l0.001,0.019l0.001,0.019l0.002,0.018l0.002,0.019l0.002,0.019l0.003,0.019l0.003,0.018l0.004,0.018l0.004,0.018l0.005,0.018l0.005,0.018l0.005,0.018l0.006,0.018l0.007,0.017l0.006,0.017l0.007,0.018l0.008,0.017l0.008,0.017l0.008,0.016l0.009,0.017l0.009,0.016l0.01,0.016l0.01,0.016l0.011,0.016l0.011,0.015l0.012,0.016l0.012,0.016l0.013,0.015l0.013,0.015l0.014,0.015l0.024,0.024l2.589,2.606l2.004,-2.004l1.447,0.799l0.117,0.062l0.118,0.06l0.119,0.059l0.12,0.057l0.121,0.055l0.122,0.053l0.123,0.051l0.123,0.049l0.125,0.048l0.126,0.045l0.127,0.044l0.127,0.041l0.128,0.04l0.13,0.038l0.13,0.035l0.131,0.034l0.132,0.032l0.132,0.029l0.134,0.028l0.134,0.025l0.135,0.023l0.135,0.021l0.137,0.019l0.137,0.017l0.138,0.015l0.138,0.012l0.14,0.011l0.14,0.008l0.141,0.005l0.141,0.004l0.15,0.001l2.989,0l0.127,-0.001l0.119,-0.002l0.119,-0.004l0.119,-0.006l0.118,-0.007l0.117,-0.009l0.117,-0.011l0.117,-0.012l0.115,-0.013l0.116,-0.016l0.115,-0.016l0.114,-0.019l0.114,-0.019l0.113,-0.021l0.113,-0.023l0.112,-0.024l0.112,-0.026l0.111,-0.027l0.11,-0.029l0.11,-0.03l0.109,-0.031l0.109,-0.033l0.108,-0.034l0.107,-0.036l0.107,-0.037l0.106,-0.038l0.105,-0.04l0.105,-0.041l0.104,-0.043l0.103,-0.043l0.103,-0.046l0.102,-0.046l0.101,-0.048l0.101,-0.049l0.1,-0.05l0.099,-0.052l0.098,-0.053l0.098,-0.054l0.096,-0.055l0.096,-0.057l0.096,-0.058l0.094,-0.059l0.093,-0.06l0.093,-0.062l0.092,-0.062l0.091,-0.064l0.09,-0.065l0.09,-0.066l0.088,-0.067l0.087,-0.069l0.087,-0.069l0.086,-0.071l0.084,-0.072l0.084,-0.073l0.083,-0.073l0.082,-0.075l0.081,-0.076l0.079,-0.077l0.079,-0.078l0.078,-0.079l0.077,-0.08l0.076,-0.082l0.074,-0.082l1.497,-1.686l0.684,0.689l2.093,-2.093l0.011,-0.011l0.002,-0.002l0.002,-0.003l0.003,-0.002l0.001,-0.003l0.002,-0.002l0.002,-0.003l0.002,-0.002l0.002,-0.003l0.001,-0.003l0.002,-0.002l0.001,-0.003l0.002,-0.003l0.001,-0.003l0.002,-0.003l0.001,-0.003l0.001,-0.003l0.001,-0.003l0.001,-0.003l0.001,-0.003l0.001,-0.003l0.001,-0.003l0.001,-0.003l0,-0.004l0.001,-0.002l0,-0.003l0.001,-0.004l0,-0.003l0,-0.003l0.001,-0.003l0,-0.003l0,-0.004l0,-0.003l0,-0.003l-0.001,-0.004l0,-0.003l0,-0.003l-0.001,-0.003l0,-0.003l-0.001,-0.003l-0.001,-0.003l0,-0.003l-0.001,-0.004l-0.001,-0.003l-0.001,-0.003l-0.001,-0.003l-0.001,-0.003l-0.001,-0.003l-0.002,-0.003l-0.001,-0.002l-0.001,-0.003l-0.002,-0.003l-0.002,-0.003l-0.001,-0.003l-0.002,-0.002l-0.002,-0.003l-0.001,-0.003l-0.002,-0.002l-0.002,-0.003l-0.002,-0.002l-0.002,-0.003l-0.002,-0.002l-0.002,-0.002l-0.003,-0.003l-0.004,-0.004l-0.003,-0.003l-0.003,-0.002l-0.002,-0.002l-0.002,-0.002l-0.003,-0.001l-0.002,-0.002l-0.002,-0.001l-0.002,-0.002l-0.002,-0.001l-0.002,-0.001l-0.002,-0.001l-0.002,-0.001l-0.003,-0.001l-0.002,-0.001l-0.002,-0.001l-0.003,-0.001l-0.002,-0.001l-0.002,-0.001l-0.003,0l-0.003,-0.001l-0.002,-0.001l-0.003,0l-0.003,-0.001l-0.002,0l-0.003,-0.001l-0.003,0l-0.003,0l-0.003,-0.001l-0.003,0l-0.003,0l-2.094,0.006l0.064,-2.147l0.002,-0.073l0.001,-0.073l0,-0.078l0,-0.494l-0.001,-0.132l-0.002,-0.124l-0.004,-0.125l-0.005,-0.124l-0.007,-0.124l-0.008,-0.123l-0.01,-0.123l-0.011,-0.122l-0.013,-0.122l-0.014,-0.121l-0.016,-0.121l-0.017,-0.12l-0.018,-0.12l-0.02,-0.12l-0.021,-0.119l-0.023,-0.118l-0.024,-0.118l-0.026,-0.117l-0.026,-0.117l-0.028,-0.116l-0.03,-0.116l-0.031,-0.115l-0.032,-0.115l-0.033,-0.114l-0.035,-0.113l-0.036,-0.113l-0.038,-0.113l-0.039,-0.111l-0.04,-0.112l-0.041,-0.11l-0.042,-0.11l-0.044,-0.109l-0.045,-0.109l-0.046,-0.108l-0.048,-0.107l-0.049,-0.107l-0.05,-0.106l-0.051,-0.105l-0.052,-0.105l-0.054,-0.104l-0.055,-0.103l-0.055,-0.103l-0.057,-0.102l-0.059,-0.101l-0.059,-0.1l-0.061,-0.1l-0.061,-0.099l-0.063,-0.098l-0.064,-0.097l-0.065,-0.097l-0.066,-0.095l-0.067,-0.096l-0.068,-0.094l-0.07,-0.093l-0.07,-0.093l-0.072,-0.091l-0.072,-0.091l-0.073,-0.09l-0.075,-0.089l-0.076,-0.088l-0.076,-0.088l-0.078,-0.086l-0.078,-0.086l-0.08,-0.084l-0.08,-0.084l-0.081,-0.083l-0.083,-0.081l-0.083,-0.081l-0.084,-0.08l-0.086,-0.079l-0.086,-0.078l-0.087,-0.077l-0.087,-0.076l-0.089,-0.075l-0.09,-0.074l-0.09,-0.073l-0.092,-0.072l-0.092,-0.07l-0.093,-0.07l-0.093,-0.069l-0.095,-0.067l-0.096,-0.067l-0.096,-0.065l-0.097,-0.065l-0.098,-0.063l-0.098,-0.062l-0.1,-0.061l-0.1,-0.06l-0.1,-0.059l-0.102,-0.057l-0.102,-0.057l-0.103,-0.055l-0.104,-0.054l-0.104,-0.053l-0.105,-0.051l-0.106,-0.051l-0.107,-0.049l-0.107,-0.048l-0.107,-0.047l-0.109,-0.045l-0.109,-0.045l-0.11,-0.043l-0.11,-0.042l-0.111,-0.04l-0.111,-0.039l-0.112,-0.038l-0.113,-0.037l-0.113,-0.035l-0.114,-0.034l-0.114,-0.033l-0.115,-0.031l-0.116,-0.03l-0.116,-0.029l-0.117,-0.028l-0.117,-0.026l-0.117,-0.024l-0.119,-0.023l-0.118,-0.022l-0.119,-0.021l-0.12,-0.019l-0.12,-0.017l-0.121,-0.016l-0.121,-0.015l-0.122,-0.014l-0.122,-0.011l-0.122,-0.011l-0.123,-0.009l-2.385,-0.143l-0.296,-0.457l0.808,-2.148l0.007,-0.018l0.006,-0.019l0.005,-0.019l0.005,-0.018l0.005,-0.019l0.004,-0.019l0.004,-0.019l0.003,-0.019l0.003,-0.019l0.003,-0.019l0.002,-0.02l0.001,-0.02l0.001,-0.019l0.001,-0.019l0,-0.02l0,-0.021l-0.001,-0.021l-0.001,-0.021l-0.002,-0.02l-0.002,-0.02l-0.003,-0.021l-0.004,-0.02l-0.003,-0.02l-0.005,-0.02l-0.005,-0.02l-0.005,-0.02l-0.006,-0.019l-0.006,-0.02l-0.007,-0.019l-0.007,-0.019l-0.007,-0.019l-0.008,-0.019l-0.009,-0.018l-0.009,-0.019l-0.01,-0.018l-0.009,-0.018l-0.011,-0.017l-0.011,-0.018l-0.011,-0.017l-0.011,-0.017l-0.013,-0.016l-0.012,-0.016l-0.013,-0.017l-0.013,-0.015l-0.014,-0.016l-0.014,-0.015l-0.015,-0.015l-0.017,-0.016l-0.016,-0.015l-0.016,-0.014l-0.016,-0.013l-0.016,-0.013l-0.016,-0.012l-0.017,-0.012l-0.016,-0.011l-0.017,-0.011l-0.017,-0.01l-0.017,-0.01l-0.018,-0.009l-0.017,-0.009l-0.018,-0.008l-0.018,-0.008l-0.017,-0.008l-0.019,-0.007l-0.018,-0.007l-0.019,-0.006l-0.018,-0.006l-0.019,-0.005l-0.019,-0.005l-0.019,-0.004l-0.019,-0.004l-0.02,-0.004l-0.019,-0.003l-0.02,-0.003l-0.019,-0.002l-0.02,-0.001l-0.02,-0.002l-0.02,0l-0.019,-0.001l-0.02,0.001Z"/></g><g id="emoji"><path d="M28,17.998c0,-6.626 -5.372,-11.998 -11.998,-11.998c-0.001,0 -0.003,0 -0.004,0c-6.626,0 -11.998,5.372 -11.998,11.998c0,0.168 0,0.336 0,0.504c0,5.798 4.7,10.498 10.498,10.498c0.997,0 2.007,0 3.004,0c5.798,0 10.498,-4.7 10.498,-10.498c0,-0.168 0,-0.336 0,-0.504Z" style="fill:#fbc546;"/><path d="M11,12.017c0,0 -2.919,-2.935 -4.977,-5.004c-1.098,-1.104 -1.096,-2.888 0.005,-3.988c0,-0.001 0.001,-0.002 0.002,-0.002c0.531,-0.532 1.253,-0.83 2.004,-0.829c0.752,0.002 1.472,0.302 2.002,0.835c0.533,0.537 0.964,0.971 0.964,0.971c0,0 0.476,-0.468 1.051,-1.033c1.101,-1.082 2.866,-1.078 3.962,0.008c0,0.001 0.001,0.001 0.001,0.002c0.536,0.53 0.838,1.252 0.839,2.006c0.002,0.754 -0.297,1.477 -0.83,2.01c-2.079,2.08 -5.023,5.024 -5.023,5.024Z" style="fill:#d92020;"/><path d="M7,30.017c0,0 -2.273,-2.288 -4.013,-4.038c-1.078,-1.085 -1.076,-2.838 0.006,-3.92c0.024,-0.023 0.047,-0.046 0.07,-0.07c0.523,-0.522 1.232,-0.815 1.97,-0.813c0.739,0.002 1.446,0.298 1.966,0.823c0.001,0.001 0.001,0.001 0.001,0.001c0,0 0.03,-0.029 0.082,-0.08c1.085,-1.057 2.816,-1.049 3.892,0.016c0.027,0.027 0.054,0.055 0.082,0.082c0.524,0.519 0.82,1.227 0.821,1.965c0.002,0.739 -0.29,1.447 -0.813,1.969c-1.761,1.761 -4.064,4.065 -4.064,4.065Z" style="fill:#d92020;"/><path d="M11.103,19.005l0.062,0.009l0.062,0.012l0.061,0.016l0.059,0.02l0.058,0.024l0.057,0.027l0.055,0.031l0.052,0.034l0.051,0.037l0.048,0.041l0.045,0.043l0.043,0.046l0.04,0.049l0.036,0.051l0.334,0.502l0.043,0.063l0.041,0.058l0.042,0.059l0.043,0.057l0.044,0.057l0.045,0.055l0.045,0.056l0.046,0.054l0.047,0.053l0.048,0.053l0.048,0.052l0.049,0.051l0.05,0.05l0.05,0.049l0.052,0.049l0.052,0.048l0.052,0.046l0.054,0.046l0.054,0.046l0.054,0.044l0.055,0.043l0.056,0.043l0.057,0.041l0.057,0.041l0.058,0.04l0.058,0.039l0.059,0.038l0.059,0.038l0.06,0.036l0.06,0.035l0.061,0.035l0.062,0.033l0.062,0.033l0.062,0.031l0.063,0.031l0.064,0.03l0.064,0.029l0.064,0.027l0.065,0.027l0.065,0.026l0.065,0.025l0.066,0.024l0.067,0.023l0.067,0.022l0.067,0.02l0.067,0.02l0.068,0.019l0.068,0.018l0.069,0.017l0.069,0.015l0.069,0.015l0.069,0.014l0.07,0.012l0.07,0.012l0.07,0.01l0.071,0.009l0.07,0.009l0.071,0.007l0.071,0.006l0.072,0.005l0.071,0.004l0.072,0.003l0.072,0.001l0.073,0.001l0.073,-0.001l0.072,-0.001l0.072,-0.003l0.071,-0.004l0.072,-0.005l0.071,-0.006l0.071,-0.007l0.07,-0.009l0.071,-0.009l0.07,-0.01l0.07,-0.012l0.07,-0.012l0.069,-0.014l0.069,-0.015l0.069,-0.015l0.069,-0.017l0.068,-0.018l0.068,-0.019l0.067,-0.02l0.067,-0.02l0.067,-0.022l0.067,-0.023l0.066,-0.024l0.065,-0.025l0.065,-0.026l0.065,-0.027l0.064,-0.027l0.064,-0.029l0.064,-0.03l0.063,-0.031l0.062,-0.031l0.062,-0.033l0.062,-0.033l0.061,-0.035l0.06,-0.035l0.06,-0.036l0.059,-0.038l0.059,-0.038l0.058,-0.039l0.058,-0.04l0.057,-0.041l0.057,-0.041l0.056,-0.043l0.055,-0.043l0.054,-0.044l0.054,-0.046l0.054,-0.046l0.052,-0.046l0.052,-0.048l0.052,-0.049l0.05,-0.049l0.05,-0.05l0.049,-0.051l0.048,-0.052l0.048,-0.053l0.047,-0.053l0.046,-0.054l0.045,-0.056l0.045,-0.055l0.044,-0.057l0.043,-0.057l0.042,-0.059l0.041,-0.058l0.043,-0.063l0.334,-0.502l0.036,-0.051l0.04,-0.049l0.043,-0.046l0.045,-0.043l0.048,-0.041l0.051,-0.037l0.052,-0.034l0.055,-0.031l0.057,-0.027l0.058,-0.024l0.059,-0.02l0.061,-0.016l0.062,-0.012l0.062,-0.009l0.063,-0.004l0.063,-0.001l0.062,0.004l0.063,0.007l0.061,0.011l0.061,0.015l0.06,0.019l0.059,0.023l0.057,0.026l0.055,0.03l0.054,0.033l0.051,0.036l0.049,0.04l0.046,0.043l0.043,0.045l0.041,0.048l0.037,0.051l0.034,0.052l0.031,0.055l0.027,0.057l0.024,0.058l0.02,0.059l0.016,0.061l0.012,0.062l0.009,0.062l0.004,0.063l0.001,0.063l-0.004,0.062l-0.007,0.063l-0.011,0.061l-0.015,0.061l-0.019,0.06l-0.023,0.059l-0.026,0.057l-0.03,0.055l-0.033,0.054l-0.338,0.507l-0.056,0.083l-0.06,0.084l-0.06,0.084l-0.061,0.082l-0.063,0.081l-0.064,0.08l-0.065,0.079l-0.066,0.078l-0.068,0.077l-0.068,0.075l-0.07,0.075l-0.07,0.073l-0.071,0.072l-0.073,0.071l-0.074,0.069l-0.074,0.069l-0.076,0.067l-0.076,0.066l-0.077,0.065l-0.079,0.063l-0.079,0.063l-0.08,0.061l-0.081,0.06l-0.082,0.058l-0.083,0.057l-0.083,0.056l-0.085,0.055l-0.085,0.053l-0.086,0.052l-0.086,0.051l-0.088,0.05l-0.088,0.048l-0.089,0.046l-0.089,0.046l-0.091,0.044l-0.091,0.042l-0.091,0.042l-0.093,0.039l-0.093,0.039l-0.093,0.037l-0.094,0.036l-0.095,0.034l-0.095,0.033l-0.096,0.031l-0.096,0.03l-0.097,0.028l-0.097,0.027l-0.098,0.026l-0.099,0.024l-0.098,0.022l-0.1,0.022l-0.099,0.019l-0.1,0.018l-0.101,0.017l-0.1,0.015l-0.101,0.013l-0.102,0.012l-0.102,0.01l-0.102,0.009l-0.102,0.007l-0.103,0.006l-0.103,0.004l-0.103,0.002l-0.099,0.001l-0.01,0l-0.099,-0.001l-0.103,-0.002l-0.103,-0.004l-0.103,-0.006l-0.102,-0.007l-0.102,-0.009l-0.102,-0.01l-0.102,-0.012l-0.101,-0.013l-0.1,-0.015l-0.101,-0.017l-0.1,-0.018l-0.099,-0.019l-0.1,-0.022l-0.098,-0.022l-0.099,-0.024l-0.098,-0.026l-0.097,-0.027l-0.097,-0.028l-0.096,-0.03l-0.096,-0.031l-0.095,-0.033l-0.095,-0.034l-0.094,-0.036l-0.093,-0.037l-0.093,-0.039l-0.093,-0.039l-0.091,-0.042l-0.091,-0.042l-0.091,-0.044l-0.089,-0.046l-0.089,-0.046l-0.088,-0.048l-0.088,-0.05l-0.086,-0.051l-0.086,-0.052l-0.085,-0.053l-0.085,-0.055l-0.083,-0.056l-0.083,-0.057l-0.082,-0.058l-0.081,-0.06l-0.08,-0.061l-0.079,-0.063l-0.079,-0.063l-0.077,-0.065l-0.076,-0.066l-0.076,-0.067l-0.074,-0.069l-0.074,-0.069l-0.073,-0.071l-0.071,-0.072l-0.07,-0.073l-0.07,-0.075l-0.068,-0.075l-0.068,-0.077l-0.066,-0.078l-0.065,-0.079l-0.064,-0.08l-0.063,-0.081l-0.061,-0.082l-0.06,-0.084l-0.06,-0.084l-0.056,-0.083l-0.338,-0.507l-0.033,-0.054l-0.03,-0.055l-0.026,-0.057l-0.023,-0.059l-0.019,-0.06l-0.015,-0.061l-0.011,-0.061l-0.007,-0.063l-0.004,-0.062l0.001,-0.063l0.004,-0.063l0.009,-0.062l0.012,-0.062l0.016,-0.061l0.02,-0.059l0.024,-0.058l0.027,-0.057l0.031,-0.055l0.034,-0.052l0.037,-0.051l0.041,-0.048l0.043,-0.045l0.046,-0.043l0.049,-0.04l0.051,-0.036l0.054,-0.033l0.055,-0.03l0.057,-0.026l0.059,-0.023l0.06,-0.019l0.061,-0.015l0.061,-0.011l0.063,-0.007l0.062,-0.004l0.063,0.001l0.063,0.004Z" style="fill:#593604;"/><path d="M25.208,14.794c0.187,0.187 0.292,0.441 0.292,0.706c0,0.265 -0.105,0.519 -0.292,0.706c-0.001,0.001 -0.001,0.001 -0.002,0.002c-0.39,0.39 -1.022,0.39 -1.412,0c-0.74,-0.739 -1.794,-1.794 -1.794,-1.794c0,0 -1.054,1.055 -1.794,1.794c-0.39,0.39 -1.022,0.39 -1.412,0c-0.001,0 -0.001,-0.001 -0.001,-0.001c-0.391,-0.39 -0.391,-1.024 0,-1.414c1.127,-1.128 3.207,-3.207 3.207,-3.207c0,0 2.08,2.08 3.208,3.208Z" style="fill-rule:nonzero;"/><path d="M13.225,14.811c0.183,0.183 0.286,0.431 0.286,0.689c0,0.258 -0.103,0.506 -0.286,0.689c0,0 0,0 0,0c-0.4,0.401 -1.049,0.401 -1.45,0c-0.738,-0.738 -1.775,-1.775 -1.775,-1.775c0,0 -1.037,1.037 -1.775,1.775c-0.401,0.401 -1.05,0.401 -1.45,0c0,0 0,0 0,0c-0.183,-0.183 -0.286,-0.431 -0.286,-0.689c0,-0.258 0.103,-0.506 0.286,-0.689c1.123,-1.123 3.225,-3.225 3.225,-3.225c0,0 2.102,2.102 3.225,3.225Z" style="fill-rule:nonzero;"/><path d="M26,26.017c0,0 -2.016,-2.031 -3.479,-3.505c-0.821,-0.827 -0.818,-2.162 0.006,-2.986c0,-0.001 0.001,-0.001 0.001,-0.002c0.399,-0.399 0.941,-0.623 1.506,-0.621c0.565,0.001 1.105,0.228 1.503,0.629c0.267,0.27 0.463,0.468 0.463,0.468c0,0 0.238,-0.232 0.552,-0.538c0.824,-0.803 2.14,-0.798 2.958,0.011c0.001,0 0.001,0.001 0.002,0.001c0.403,0.399 0.631,0.942 0.633,1.509c0.002,0.567 -0.223,1.112 -0.624,1.513c-1.483,1.483 -3.521,3.521 -3.521,3.521Z" style="fill:#d92020;"/></g></g></svg>