<?xml version="1.0" encoding="UTF-8" standalone="no"?><!DOCTYPE svg PUBLIC "-//W3C//DTD SVG 1.1//EN" "http://www.w3.org/Graphics/SVG/1.1/DTD/svg11.dtd"><svg width="100%" height="100%" viewBox="0 0 32 32" version="1.1" xmlns="http://www.w3.org/2000/svg" xmlns:xlink="http://www.w3.org/1999/xlink" xml:space="preserve" xmlns:serif="http://www.serif.com/" style="fill-rule:evenodd;clip-rule:evenodd;stroke-linecap:round;stroke-linejoin:round;stroke-miterlimit:1.5;"><rect id="smile_hearts" x="0" y="0" width="32" height="32" style="fill:none;"/><clipPath id="_clip1"><rect x="0" y="0" width="32" height="32"/></clipPath><g clip-path="url(#_clip1)"><g id="outline"><path d="M7.515,8.513l-1.492,-1.5c-1.098,-1.104 -1.096,-2.888 0.005,-3.988c0,-0.001 0.001,-0.002 0.002,-0.002c0.531,-0.532 1.253,-0.83 2.004,-0.829c0.752,0.002 1.472,0.302 2.002,0.835c0.533,0.537 0.964,0.971 0.964,0.971c0,0 0.476,-0.468 1.051,-1.033c1.101,-1.082 2.866,-1.078 3.962,0.008c0,0.001 0.001,0.001 0.001,0.002c0.536,0.53 0.838,1.252 0.839,2.006c0,0.016 0,0.032 0,0.047c2.871,0.204 5.584,1.436 7.633,3.484c2.25,2.25 3.514,5.302 3.514,8.484c0,0.334 0,0.669 0,1.002c0,0.289 -0.011,0.578 -0.034,0.864c0.556,-0.016 1.118,0.187 1.544,0.609c0.001,0 0.001,0.001 0.002,0.001c0.403,0.399 0.631,0.942 0.633,1.509c0.002,0.567 -0.223,1.112 -0.624,1.513c-1.483,1.483 -3.521,3.521 -3.521,3.521l-0.743,-0.749c-0.154,0.175 -0.313,0.345 -0.479,0.51c-2.063,2.063 -4.861,3.222 -7.778,3.222c-0.665,0 -1.335,0 -2,0c-1.95,0 -3.847,-0.518 -5.506,-1.477l-2.494,2.494c0,0 -2.273,-2.288 -4.013,-4.038c-1.078,-1.085 -1.076,-2.838 0.006,-3.92c0.024,-0.023 0.047,-0.046 0.07,-0.07c0.391,-0.391 0.887,-0.653 1.422,-0.76c-0.319,-1.037 -0.485,-2.124 -0.485,-3.229c0,-0.333 0,-0.668 0,-1.002c0,-3.182 1.264,-6.234 3.514,-8.484l0.001,-0.001Z" style="fill:none;stroke:#000;stroke-width:4px;"/></g><g id="emoji"><path d="M28,16.998c0,-3.182 -1.264,-6.234 -3.514,-8.484c-2.25,-2.25 -5.302,-3.514 -8.484,-3.514c-0.001,0 -0.003,0 -0.004,0c-3.182,0 -6.234,1.264 -8.484,3.514c-2.25,2.25 -3.514,5.302 -3.514,8.484c0,0.334 0,0.669 0,1.002c0,2.917 1.159,5.715 3.222,7.778c2.063,2.063 4.861,3.222 7.778,3.222c0.665,0 1.335,0 2,0c2.917,0 5.715,-1.159 7.778,-3.222c2.063,-2.063 3.222,-4.861 3.222,-7.778c0,-0.333 0,-0.668 0,-1.002Z" style="fill:#fbc546;"/><path d="M11,12.017c0,0 -2.919,-2.935 -4.977,-5.004c-1.098,-1.104 -1.096,-2.888 0.005,-3.988c0,-0.001 0.001,-0.002 0.002,-0.002c0.531,-0.532 1.253,-0.83 2.004,-0.829c0.752,0.002 1.472,0.302 2.002,0.835c0.533,0.537 0.964,0.971 0.964,0.971c0,0 0.476,-0.468 1.051,-1.033c1.101,-1.082 2.866,-1.078 3.962,0.008c0,0.001 0.001,0.001 0.001,0.002c0.536,0.53 0.838,1.252 0.839,2.006c0.002,0.754 -0.297,1.477 -0.83,2.01c-2.079,2.08 -5.023,5.024 -5.023,5.024Z" style="fill:#d92020;"/><path d="M7,30.017c0,0 -2.273,-2.288 -4.013,-4.038c-1.078,-1.085 -1.076,-2.838 0.006,-3.92c0.024,-0.023 0.047,-0.046 0.07,-0.07c0.523,-0.522 1.232,-0.815 1.97,-0.813c0.739,0.002 1.446,0.298 1.966,0.823c0.001,0.001 0.001,0.001 0.001,0.001c0,0 0.03,-0.029 0.082,-0.08c1.085,-1.057 2.816,-1.049 3.892,0.016c0.027,0.027 0.054,0.055 0.082,0.082c0.524,0.519 0.82,1.227 0.821,1.965c0.002,0.739 -0.29,1.447 -0.813,1.969c-1.761,1.761 -4.064,4.065 -4.064,4.065Z" style="fill:#d92020;"/><path d="M11.103,20.005l0.062,0.009l0.062,0.012l0.061,0.016l0.059,0.02l0.058,0.024l0.057,0.027l0.055,0.031l0.052,0.034l0.051,0.037l0.048,0.041l0.045,0.043l0.043,0.046l0.04,0.049l0.036,0.051l0.334,0.502l0.043,0.063l0.041,0.058l0.042,0.059l0.043,0.057l0.044,0.057l0.045,0.055l0.045,0.056l0.046,0.054l0.047,0.053l0.048,0.053l0.048,0.052l0.049,0.051l0.05,0.05l0.05,0.049l0.052,0.049l0.052,0.048l0.052,0.046l0.054,0.046l0.054,0.046l0.054,0.044l0.055,0.043l0.056,0.043l0.057,0.041l0.057,0.041l0.058,0.04l0.058,0.039l0.059,0.038l0.059,0.038l0.06,0.036l0.06,0.035l0.061,0.035l0.062,0.033l0.062,0.033l0.062,0.031l0.063,0.031l0.064,0.03l0.064,0.029l0.064,0.027l0.065,0.027l0.065,0.026l0.065,0.025l0.066,0.024l0.067,0.023l0.067,0.022l0.067,0.02l0.067,0.02l0.068,0.019l0.068,0.018l0.069,0.017l0.069,0.015l0.069,0.015l0.069,0.014l0.07,0.012l0.07,0.012l0.07,0.01l0.071,0.009l0.07,0.009l0.071,0.007l0.071,0.006l0.072,0.005l0.071,0.004l0.072,0.003l0.072,0.001l0.073,0.001l0.073,-0.001l0.072,-0.001l0.072,-0.003l0.071,-0.004l0.072,-0.005l0.071,-0.006l0.071,-0.007l0.07,-0.009l0.071,-0.009l0.07,-0.01l0.07,-0.012l0.07,-0.012l0.069,-0.014l0.069,-0.015l0.069,-0.015l0.069,-0.017l0.068,-0.018l0.068,-0.019l0.067,-0.02l0.067,-0.02l0.067,-0.022l0.067,-0.023l0.066,-0.024l0.065,-0.025l0.065,-0.026l0.065,-0.027l0.064,-0.027l0.064,-0.029l0.064,-0.03l0.063,-0.031l0.062,-0.031l0.062,-0.033l0.062,-0.033l0.061,-0.035l0.06,-0.035l0.06,-0.036l0.059,-0.038l0.059,-0.038l0.058,-0.039l0.058,-0.04l0.057,-0.041l0.057,-0.041l0.056,-0.043l0.055,-0.043l0.054,-0.044l0.054,-0.046l0.054,-0.046l0.052,-0.046l0.052,-0.048l0.052,-0.049l0.05,-0.049l0.05,-0.05l0.049,-0.051l0.048,-0.052l0.048,-0.053l0.047,-0.053l0.046,-0.054l0.045,-0.056l0.045,-0.055l0.044,-0.057l0.043,-0.057l0.042,-0.059l0.041,-0.058l0.043,-0.063l0.334,-0.502l0.036,-0.051l0.04,-0.049l0.043,-0.046l0.045,-0.043l0.048,-0.041l0.051,-0.037l0.052,-0.034l0.055,-0.031l0.057,-0.027l0.058,-0.024l0.059,-0.02l0.061,-0.016l0.062,-0.012l0.062,-0.009l0.063,-0.004l0.063,-0.001l0.062,0.004l0.063,0.007l0.061,0.011l0.061,0.015l0.06,0.019l0.059,0.023l0.057,0.026l0.055,0.03l0.054,0.033l0.051,0.036l0.049,0.04l0.046,0.043l0.043,0.045l0.041,0.048l0.037,0.051l0.034,0.052l0.031,0.055l0.027,0.057l0.024,0.058l0.02,0.059l0.016,0.061l0.012,0.062l0.009,0.062l0.004,0.063l0.001,0.063l-0.004,0.062l-0.007,0.063l-0.011,0.061l-0.015,0.061l-0.019,0.06l-0.023,0.059l-0.026,0.057l-0.03,0.055l-0.033,0.054l-0.338,0.507l-0.056,0.083l-0.06,0.084l-0.06,0.084l-0.061,0.082l-0.063,0.081l-0.064,0.08l-0.065,0.079l-0.066,0.078l-0.068,0.077l-0.068,0.075l-0.07,0.075l-0.07,0.073l-0.071,0.072l-0.073,0.071l-0.074,0.069l-0.074,0.069l-0.076,0.067l-0.076,0.066l-0.077,0.065l-0.079,0.063l-0.079,0.063l-0.08,0.061l-0.081,0.06l-0.082,0.058l-0.083,0.057l-0.083,0.056l-0.085,0.055l-0.085,0.053l-0.086,0.052l-0.086,0.051l-0.088,0.05l-0.088,0.048l-0.089,0.046l-0.089,0.046l-0.091,0.044l-0.091,0.042l-0.091,0.042l-0.093,0.039l-0.093,0.039l-0.093,0.037l-0.094,0.036l-0.095,0.034l-0.095,0.033l-0.096,0.031l-0.096,0.03l-0.097,0.028l-0.097,0.027l-0.098,0.026l-0.099,0.024l-0.098,0.022l-0.1,0.022l-0.099,0.019l-0.1,0.018l-0.101,0.017l-0.1,0.015l-0.101,0.013l-0.102,0.012l-0.102,0.01l-0.102,0.009l-0.102,0.007l-0.103,0.006l-0.103,0.004l-0.103,0.002l-0.099,0.001l-0.01,0l-0.099,-0.001l-0.103,-0.002l-0.103,-0.004l-0.103,-0.006l-0.102,-0.007l-0.102,-0.009l-0.102,-0.01l-0.102,-0.012l-0.101,-0.013l-0.1,-0.015l-0.101,-0.017l-0.1,-0.018l-0.099,-0.019l-0.1,-0.022l-0.098,-0.022l-0.099,-0.024l-0.098,-0.026l-0.097,-0.027l-0.097,-0.028l-0.096,-0.03l-0.096,-0.031l-0.095,-0.033l-0.095,-0.034l-0.094,-0.036l-0.093,-0.037l-0.093,-0.039l-0.093,-0.039l-0.091,-0.042l-0.091,-0.042l-0.091,-0.044l-0.089,-0.046l-0.089,-0.046l-0.088,-0.048l-0.088,-0.05l-0.086,-0.051l-0.086,-0.052l-0.085,-0.053l-0.085,-0.055l-0.083,-0.056l-0.083,-0.057l-0.082,-0.058l-0.081,-0.06l-0.08,-0.061l-0.079,-0.063l-0.079,-0.063l-0.077,-0.065l-0.076,-0.066l-0.076,-0.067l-0.074,-0.069l-0.074,-0.069l-0.073,-0.071l-0.071,-0.072l-0.07,-0.073l-0.07,-0.075l-0.068,-0.075l-0.068,-0.077l-0.066,-0.078l-0.065,-0.079l-0.064,-0.08l-0.063,-0.081l-0.061,-0.082l-0.06,-0.084l-0.06,-0.084l-0.056,-0.083l-0.338,-0.507l-0.033,-0.054l-0.03,-0.055l-0.026,-0.057l-0.023,-0.059l-0.019,-0.06l-0.015,-0.061l-0.011,-0.061l-0.007,-0.063l-0.004,-0.062l0.001,-0.063l0.004,-0.063l0.009,-0.062l0.012,-0.062l0.016,-0.061l0.02,-0.059l0.024,-0.058l0.027,-0.057l0.031,-0.055l0.034,-0.052l0.037,-0.051l0.041,-0.048l0.043,-0.045l0.046,-0.043l0.049,-0.04l0.051,-0.036l0.054,-0.033l0.055,-0.03l0.057,-0.026l0.059,-0.023l0.06,-0.019l0.061,-0.015l0.061,-0.011l0.063,-0.007l0.062,-0.004l0.063,0.001l0.063,0.004Z" style="fill:#593604;"/><path d="M25.207,15.793l0.031,0.032l0.029,0.033l0.027,0.035l0.027,0.035l0.024,0.037l0.023,0.038l0.021,0.039l0.019,0.04l0.018,0.04l0.016,0.042l0.014,0.042l0.012,0.042l0.01,0.043l0.008,0.044l0.007,0.044l0.004,0.044l0.002,0.044l0.001,0.044l-0.002,0.044l-0.003,0.044l-0.005,0.044l-0.008,0.044l-0.009,0.043l-0.011,0.043l-0.013,0.042l-0.015,0.042l-0.017,0.041l-0.018,0.04l-0.02,0.039l-0.022,0.039l-0.024,0.037l-0.025,0.037l-0.027,0.035l-0.029,0.034l-0.029,0.032l-0.032,0.032l-0.032,0.029l-0.034,0.029l-0.035,0.027l-0.037,0.025l-0.037,0.024l-0.039,0.022l-0.039,0.02l-0.04,0.018l-0.041,0.017l-0.042,0.015l-0.042,0.013l-0.043,0.011l-0.043,0.009l-0.044,0.008l-0.044,0.005l-0.044,0.003l-0.044,0.002l-0.044,-0.001l-0.044,-0.002l-0.044,-0.004l-0.044,-0.007l-0.044,-0.008l-0.043,-0.01l-0.042,-0.012l-0.042,-0.014l-0.042,-0.016l-0.04,-0.018l-0.04,-0.019l-0.039,-0.021l-0.038,-0.023l-0.037,-0.024l-0.035,-0.027l-0.035,-0.027l-0.033,-0.029l-0.032,-0.031l-1.793,-1.793l-1.793,1.793l-0.032,0.031l-0.033,0.029l-0.035,0.027l-0.035,0.027l-0.037,0.024l-0.038,0.023l-0.039,0.021l-0.04,0.019l-0.04,0.018l-0.042,0.016l-0.042,0.014l-0.042,0.012l-0.043,0.01l-0.044,0.008l-0.044,0.007l-0.044,0.004l-0.044,0.002l-0.044,0.001l-0.044,-0.002l-0.044,-0.003l-0.044,-0.005l-0.044,-0.008l-0.043,-0.009l-0.043,-0.011l-0.042,-0.013l-0.042,-0.015l-0.041,-0.017l-0.04,-0.018l-0.039,-0.02l-0.039,-0.022l-0.037,-0.024l-0.037,-0.025l-0.035,-0.027l-0.034,-0.029l-0.032,-0.029l-0.032,-0.032l-0.029,-0.032l-0.029,-0.034l-0.027,-0.035l-0.025,-0.037l-0.024,-0.037l-0.022,-0.039l-0.02,-0.039l-0.018,-0.04l-0.017,-0.041l-0.015,-0.042l-0.013,-0.042l-0.011,-0.043l-0.009,-0.043l-0.008,-0.044l-0.005,-0.044l-0.003,-0.044l-0.002,-0.044l0.001,-0.044l0.002,-0.044l0.004,-0.044l0.007,-0.044l0.008,-0.044l0.01,-0.043l0.012,-0.042l0.014,-0.042l0.016,-0.042l0.018,-0.04l0.019,-0.04l0.021,-0.039l0.023,-0.038l0.024,-0.037l0.027,-0.035l0.027,-0.035l0.029,-0.033l0.031,-0.032l3.207,-3.207l3.207,3.207Z"/><path d="M13.207,15.793l0.031,0.032l0.029,0.033l0.027,0.035l0.027,0.035l0.024,0.037l0.023,0.038l0.021,0.039l0.019,0.04l0.018,0.04l0.016,0.042l0.014,0.042l0.012,0.042l0.01,0.043l0.008,0.044l0.007,0.044l0.004,0.044l0.002,0.044l0.001,0.044l-0.002,0.044l-0.003,0.044l-0.005,0.044l-0.008,0.044l-0.009,0.043l-0.011,0.043l-0.013,0.042l-0.015,0.042l-0.017,0.041l-0.018,0.04l-0.02,0.039l-0.022,0.039l-0.024,0.037l-0.025,0.037l-0.027,0.035l-0.029,0.034l-0.029,0.032l-0.032,0.032l-0.032,0.029l-0.034,0.029l-0.035,0.027l-0.037,0.025l-0.037,0.024l-0.039,0.022l-0.039,0.02l-0.04,0.018l-0.041,0.017l-0.042,0.015l-0.042,0.013l-0.043,0.011l-0.043,0.009l-0.044,0.008l-0.044,0.005l-0.044,0.003l-0.044,0.002l-0.044,-0.001l-0.044,-0.002l-0.044,-0.004l-0.044,-0.007l-0.044,-0.008l-0.043,-0.01l-0.042,-0.012l-0.042,-0.014l-0.042,-0.016l-0.04,-0.018l-0.04,-0.019l-0.039,-0.021l-0.038,-0.023l-0.037,-0.024l-0.035,-0.027l-0.035,-0.027l-0.033,-0.029l-0.032,-0.031l-1.793,-1.793l-1.793,1.793l-0.032,0.031l-0.033,0.029l-0.035,0.027l-0.035,0.027l-0.037,0.024l-0.038,0.023l-0.039,0.021l-0.04,0.019l-0.04,0.018l-0.042,0.016l-0.042,0.014l-0.042,0.012l-0.043,0.01l-0.044,0.008l-0.044,0.007l-0.044,0.004l-0.044,0.002l-0.044,0.001l-0.044,-0.002l-0.044,-0.003l-0.044,-0.005l-0.044,-0.008l-0.043,-0.009l-0.043,-0.011l-0.042,-0.013l-0.042,-0.015l-0.041,-0.017l-0.04,-0.018l-0.039,-0.02l-0.039,-0.022l-0.037,-0.024l-0.037,-0.025l-0.035,-0.027l-0.034,-0.029l-0.032,-0.029l-0.032,-0.032l-0.029,-0.032l-0.029,-0.034l-0.027,-0.035l-0.025,-0.037l-0.024,-0.037l-0.022,-0.039l-0.02,-0.039l-0.018,-0.04l-0.017,-0.041l-0.015,-0.042l-0.013,-0.042l-0.011,-0.043l-0.009,-0.043l-0.008,-0.044l-0.005,-0.044l-0.003,-0.044l-0.002,-0.044l0.001,-0.044l0.002,-0.044l0.004,-0.044l0.007,-0.044l0.008,-0.044l0.01,-0.043l0.012,-0.042l0.014,-0.042l0.016,-0.042l0.018,-0.04l0.019,-0.04l0.021,-0.039l0.023,-0.038l0.024,-0.037l0.027,-0.035l0.027,-0.035l0.029,-0.033l0.031,-0.032l3.207,-3.207l3.207,3.207Z"/><path d="M26,26.017c0,0 -2.016,-2.031 -3.479,-3.505c-0.821,-0.827 -0.818,-2.162 0.006,-2.986c0,-0.001 0.001,-0.001 0.001,-0.002c0.399,-0.399 0.941,-0.623 1.506,-0.621c0.565,0.001 1.105,0.228 1.503,0.629c0.267,0.27 0.463,0.468 0.463,0.468c0,0 0.238,-0.232 0.552,-0.538c0.824,-0.803 2.14,-0.798 2.958,0.011c0.001,0 0.001,0.001 0.002,0.001c0.403,0.399 0.631,0.942 0.633,1.509c0.002,0.567 -0.223,1.112 -0.624,1.513c-1.483,1.483 -3.521,3.521 -3.521,3.521Z" style="fill:#d92020;"/></g></g></svg>