<?xml version="1.0" encoding="UTF-8" standalone="no"?><!DOCTYPE svg PUBLIC "-//W3C//DTD SVG 1.1//EN" "http://www.w3.org/Graphics/SVG/1.1/DTD/svg11.dtd"><svg width="100%" height="100%" viewBox="0 0 32 32" version="1.1" xmlns="http://www.w3.org/2000/svg" xmlns:xlink="http://www.w3.org/1999/xlink" xml:space="preserve" xmlns:serif="http://www.serif.com/" style="fill-rule:evenodd;clip-rule:evenodd;stroke-linejoin:round;stroke-miterlimit:1.41421;"><rect id="wink_kiss" x="0" y="0" width="32" height="32" style="fill:none;"/><clipPath id="_clip1"><rect x="0" y="0" width="32" height="32"/></clipPath><g clip-path="url(#_clip1)"><g id="outline"><path d="M15.186,1.001l0.186,0.004l0.186,0.005l0.186,0.008l0.185,0.011l0.185,0.012l0.184,0.015l0.184,0.017l0.184,0.02l0.184,0.021l0.183,0.024l0.182,0.026l0.182,0.029l0.182,0.03l0.181,0.033l0.18,0.035l0.18,0.037l0.179,0.039l0.179,0.042l0.178,0.043l0.178,0.046l0.177,0.048l0.176,0.05l0.176,0.052l0.174,0.055l0.175,0.056l0.173,0.059l0.173,0.06l0.172,0.063l0.171,0.065l0.17,0.067l0.169,0.069l0.169,0.071l0.168,0.073l0.166,0.075l0.166,0.077l0.165,0.079l0.164,0.082l0.163,0.083l0.162,0.085l0.161,0.087l0.16,0.089l0.159,0.092l0.158,0.093l0.157,0.095l0.156,0.097l0.155,0.099l0.153,0.101l0.152,0.103l0.152,0.105l0.149,0.107l0.149,0.108l0.148,0.111l0.146,0.112l0.145,0.115l0.143,0.116l0.143,0.118l0.141,0.12l0.139,0.122l0.139,0.124l0.137,0.125l0.135,0.127l0.134,0.129l0.133,0.131l0.13,0.133l0.13,0.134l0.127,0.135l0.126,0.137l0.123,0.139l0.122,0.139l0.12,0.141l0.118,0.143l0.116,0.143l0.115,0.145l0.112,0.146l0.111,0.148l0.108,0.149l0.107,0.149l0.105,0.152l0.103,0.152l0.101,0.154l0.099,0.154l0.097,0.156l0.095,0.157l0.093,0.158l0.092,0.159l0.089,0.16l0.087,0.161l0.085,0.162l0.083,0.163l0.082,0.164l0.079,0.165l0.077,0.166l0.075,0.166l0.073,0.168l0.071,0.169l0.069,0.169l0.067,0.17l0.065,0.172l0.063,0.171l0.06,0.173l0.059,0.173l0.056,0.175l0.055,0.175l0.052,0.175l0.05,0.176l0.048,0.177l0.046,0.178l0.043,0.178l0.042,0.179l0.039,0.179l0.037,0.18l0.035,0.18l0.033,0.181l0.03,0.182l0.029,0.182l0.026,0.182l0.024,0.183l0.021,0.184l0.02,0.184l0.017,0.184l0.015,0.184l0.012,0.185l0.011,0.185l0.008,0.186l0.005,0.186l0.004,0.186l0.001,0.18l0,1.211l0.07,0.058l0.095,0.083l0.093,0.085l0.081,0.079l0.15,0.151l0.076,0.078l0.082,0.088l0.08,0.09l0.077,0.092l0.074,0.094l0.072,0.095l0.069,0.097l0.067,0.098l0.064,0.099l0.061,0.101l0.058,0.102l0.056,0.103l0.053,0.104l0.05,0.105l0.048,0.105l0.044,0.107l0.042,0.108l0.04,0.108l0.036,0.109l0.034,0.11l0.032,0.11l0.028,0.111l0.026,0.111l0.023,0.111l0.02,0.112l0.018,0.113l0.014,0.112l0.013,0.113l0.009,0.113l0.007,0.114l0.004,0.113l0.001,0.113l-0.001,0.113l-0.004,0.113l-0.007,0.114l-0.009,0.113l-0.013,0.113l-0.014,0.112l-0.018,0.113l-0.02,0.112l-0.023,0.111l-0.026,0.111l-0.028,0.111l-0.032,0.11l-0.034,0.11l-0.036,0.109l-0.04,0.108l-0.042,0.108l-0.044,0.107l-0.048,0.105l-0.05,0.105l-0.053,0.105l-0.056,0.102l-0.058,0.102l-0.061,0.1l-0.064,0.1l-0.067,0.098l-0.069,0.097l-0.072,0.095l-0.074,0.094l-0.077,0.091l-0.08,0.091l-0.082,0.089l-0.076,0.077l-6.489,6.489l-1.324,-1.323l-0.074,0.038l-0.113,0.057l-0.113,0.055l-0.114,0.054l-0.114,0.053l-0.114,0.053l-0.115,0.051l-0.116,0.05l-0.116,0.048l-0.117,0.048l-0.117,0.047l-0.117,0.046l-0.118,0.044l-0.118,0.044l-0.118,0.042l-0.119,0.041l-0.12,0.04l-0.12,0.039l-0.12,0.038l-0.12,0.037l-0.121,0.036l-0.122,0.034l-0.121,0.034l-0.122,0.032l-0.123,0.031l-0.122,0.03l-0.123,0.029l-0.124,0.028l-0.123,0.027l-0.124,0.025l-0.124,0.024l-0.125,0.024l-0.124,0.022l-0.125,0.02l-0.126,0.02l-0.125,0.019l-0.126,0.017l-0.126,0.016l-0.126,0.015l-0.126,0.014l-0.127,0.013l-0.127,0.011l-0.127,0.01l-0.127,0.009l-0.127,0.008l-0.128,0.007l-0.128,0.005l-0.128,0.005l-0.128,0.003l-0.128,0.001l-0.123,0.001l-3.015,0l-0.162,-0.001l-0.167,-0.003l-0.167,-0.005l-0.167,-0.008l-0.167,-0.009l-0.166,-0.011l-0.166,-0.014l-0.166,-0.015l-0.165,-0.017l-0.165,-0.02l-0.165,-0.021l-0.164,-0.024l-0.164,-0.025l-0.163,-0.028l-0.163,-0.029l-0.163,-0.032l-0.162,-0.033l-0.161,-0.035l-0.161,-0.038l-0.16,-0.039l-0.16,-0.041l-0.159,-0.043l-0.159,-0.045l-0.158,-0.047l-0.157,-0.049l-0.157,-0.051l-0.156,-0.053l-0.155,-0.054l-0.155,-0.057l-0.154,-0.058l-0.153,-0.06l-0.152,-0.062l-0.152,-0.064l-0.151,-0.066l-0.15,-0.068l-0.149,-0.069l-0.149,-0.071l-0.148,-0.074l-0.146,-0.074l-0.146,-0.077l-0.145,-0.079l-0.144,-0.08l-0.143,-0.082l-0.142,-0.084l-0.141,-0.085l-0.14,-0.088l-0.14,-0.089l-0.138,-0.091l-0.137,-0.092l-0.136,-0.095l-0.135,-0.096l-0.133,-0.098l-0.133,-0.099l-0.132,-0.101l-0.13,-0.103l-0.13,-0.105l-0.128,-0.106l-0.127,-0.108l-0.125,-0.11l-0.125,-0.111l-0.123,-0.113l-0.122,-0.114l-0.12,-0.117l-0.12,-0.117l-0.117,-0.12l-0.117,-0.12l-0.114,-0.122l-0.113,-0.123l-0.111,-0.125l-0.11,-0.126l-0.108,-0.126l-0.106,-0.128l-0.105,-0.13l-0.103,-0.13l-0.101,-0.132l-0.099,-0.132l-0.098,-0.134l-0.096,-0.135l-0.095,-0.136l-0.092,-0.137l-0.091,-0.138l-0.089,-0.14l-0.088,-0.14l-0.085,-0.141l-0.084,-0.142l-0.082,-0.143l-0.08,-0.144l-0.079,-0.145l-0.077,-0.146l-0.074,-0.147l-0.074,-0.147l-0.071,-0.149l-0.069,-0.149l-0.068,-0.15l-0.066,-0.151l-0.064,-0.152l-0.062,-0.152l-0.06,-0.153l-0.058,-0.154l-0.057,-0.155l-0.054,-0.155l-0.053,-0.156l-0.051,-0.157l-0.049,-0.157l-0.047,-0.158l-0.045,-0.159l-0.043,-0.159l-0.041,-0.16l-0.039,-0.16l-0.037,-0.161l-0.036,-0.161l-0.033,-0.162l-0.032,-0.163l-0.029,-0.163l-0.028,-0.163l-0.025,-0.164l-0.024,-0.164l-0.021,-0.165l-0.02,-0.164l-0.017,-0.166l-0.015,-0.166l-0.014,-0.166l-0.011,-0.166l-0.009,-0.167l-0.008,-0.167l-0.005,-0.167l-0.003,-0.167l-0.001,-0.162l0,-1.514l0.001,-0.187l0.004,-0.193l0.006,-0.192l0.008,-0.192l0.011,-0.191l0.014,-0.191l0.015,-0.19l0.018,-0.189l0.021,-0.189l0.022,-0.188l0.025,-0.187l0.028,-0.187l0.029,-0.186l0.032,-0.185l0.034,-0.184l0.037,-0.184l0.038,-0.183l0.041,-0.182l0.043,-0.181l0.045,-0.18l0.048,-0.18l0.049,-0.178l0.052,-0.178l0.054,-0.177l0.056,-0.176l0.058,-0.175l0.06,-0.173l0.062,-0.174l0.064,-0.171l0.066,-0.172l0.068,-0.169l0.071,-0.169l0.072,-0.168l0.074,-0.167l0.076,-0.166l0.078,-0.164l0.08,-0.164l0.082,-0.162l0.084,-0.161l0.086,-0.16l0.087,-0.159l0.09,-0.158l0.091,-0.156l0.093,-0.156l0.095,-0.154l0.096,-0.152l0.099,-0.152l0.1,-0.15l0.102,-0.149l0.104,-0.148l0.105,-0.146l0.107,-0.145l0.109,-0.144l0.11,-0.142l0.112,-0.141l0.114,-0.139l0.115,-0.138l0.117,-0.137l0.119,-0.135l0.12,-0.134l0.122,-0.132l0.123,-0.131l0.125,-0.13l0.126,-0.128l0.128,-0.126l0.13,-0.125l0.131,-0.123l0.132,-0.122l0.134,-0.12l0.135,-0.119l0.137,-0.117l0.138,-0.115l0.139,-0.114l0.141,-0.112l0.142,-0.11l0.144,-0.109l0.145,-0.107l0.146,-0.105l0.148,-0.104l0.149,-0.102l0.15,-0.1l0.152,-0.099l0.152,-0.096l0.154,-0.095l0.156,-0.093l0.156,-0.092l0.158,-0.089l0.159,-0.087l0.16,-0.086l0.161,-0.084l0.162,-0.082l0.164,-0.08l0.164,-0.078l0.166,-0.076l0.167,-0.074l0.168,-0.072l0.169,-0.071l0.17,-0.068l0.17,-0.066l0.172,-0.064l0.174,-0.062l0.173,-0.06l0.175,-0.058l0.176,-0.056l0.177,-0.054l0.178,-0.052l0.178,-0.049l0.18,-0.048l0.18,-0.045l0.181,-0.043l0.182,-0.041l0.183,-0.038l0.184,-0.037l0.184,-0.034l0.185,-0.032l0.186,-0.029l0.187,-0.028l0.187,-0.025l0.188,-0.022l0.189,-0.021l0.189,-0.018l0.19,-0.015l0.191,-0.014l0.191,-0.011l0.192,-0.008l0.192,-0.006l0.193,-0.004l0.193,-0.001l0.186,0.001Zm12.457,20.528l0.023,-0.024l0.013,-0.014l0.013,-0.014l0.012,-0.015l0.011,-0.015l0.012,-0.014l0.01,-0.015l0.01,-0.015l0.01,-0.015l0.009,-0.016l0.009,-0.015l0.009,-0.016l0.008,-0.015l0.007,-0.016l0.007,-0.016l0.007,-0.017l0.007,-0.016l0.006,-0.016l0.005,-0.017l0.006,-0.017l0.004,-0.017l0.005,-0.017l0.004,-0.017l0.003,-0.018l0.004,-0.017l0.002,-0.018l0.003,-0.018l0.002,-0.017l0.001,-0.018l0.001,-0.018l0.001,-0.018l0,-0.018l0,-0.018l-0.001,-0.018l-0.001,-0.018l-0.001,-0.018l-0.002,-0.017l-0.003,-0.018l-0.002,-0.018l-0.004,-0.017l-0.003,-0.018l-0.004,-0.017l-0.005,-0.017l-0.004,-0.017l-0.006,-0.017l-0.005,-0.017l-0.006,-0.016l-0.007,-0.016l-0.007,-0.017l-0.007,-0.016l-0.007,-0.016l-0.008,-0.016l-0.009,-0.015l-0.009,-0.015l-0.009,-0.016l-0.01,-0.015l-0.01,-0.015l-0.01,-0.015l-0.012,-0.015l-0.011,-0.014l-0.012,-0.014l-0.013,-0.015l-0.014,-0.014l-0.022,-0.024l-0.114,-0.113l-0.024,-0.023l-0.014,-0.014l-0.015,-0.013l-0.015,-0.012l-0.015,-0.012l-0.015,-0.012l-0.016,-0.011l-0.016,-0.01l-0.017,-0.011l-0.016,-0.009l-0.017,-0.01l-0.017,-0.009l-0.018,-0.008l-0.017,-0.008l-0.018,-0.008l-1.399,-0.552l0.102,-1.549l0.005,-0.083l0.004,-0.084l0.003,-0.083l0.003,-0.084l0.002,-0.083l0.001,-0.084l0,-0.088l0,-1.492l-0.001,-0.143l-0.002,-0.136l-0.005,-0.136l-0.006,-0.137l-0.007,-0.135l-0.009,-0.136l-0.011,-0.135l-0.013,-0.135l-0.014,-0.135l-0.016,-0.135l-0.017,-0.134l-0.02,-0.133l-0.02,-0.134l-0.023,-0.133l-0.024,-0.133l-0.025,-0.132l-0.028,-0.132l-0.028,-0.131l-0.031,-0.131l-0.032,-0.131l-0.033,-0.13l-0.035,-0.13l-0.037,-0.129l-0.039,-0.129l-0.039,-0.128l-0.042,-0.128l-0.043,-0.127l-0.044,-0.127l-0.046,-0.126l-0.048,-0.125l-0.049,-0.125l-0.05,-0.125l-0.052,-0.123l-0.054,-0.123l-0.055,-0.122l-0.057,-0.122l-0.058,-0.121l-0.059,-0.12l-0.061,-0.12l-0.063,-0.119l-0.064,-0.118l-0.065,-0.117l-0.067,-0.117l-0.068,-0.116l-0.07,-0.115l-0.072,-0.114l-0.072,-0.113l-0.074,-0.113l-0.076,-0.111l-0.076,-0.111l-0.079,-0.11l-0.08,-0.109l-0.081,-0.108l-0.082,-0.108l-0.084,-0.106l-0.085,-0.105l-0.087,-0.105l-0.088,-0.103l-0.089,-0.102l-0.091,-0.102l-0.092,-0.1l-0.093,-0.1l-0.095,-0.098l-0.096,-0.097l-0.097,-0.096l-0.098,-0.095l-0.1,-0.093l-0.1,-0.092l-0.102,-0.091l-0.102,-0.089l-0.103,-0.088l-0.105,-0.087l-0.105,-0.085l-0.106,-0.084l-0.108,-0.082l-0.108,-0.082l-0.109,-0.079l-0.11,-0.079l-0.11,-0.076l-0.112,-0.076l-0.113,-0.074l-0.113,-0.073l-0.114,-0.071l-0.115,-0.069l-0.116,-0.069l-0.117,-0.067l-0.117,-0.065l-0.118,-0.064l-0.119,-0.063l-0.12,-0.061l-0.12,-0.059l-0.121,-0.058l-0.122,-0.057l-0.122,-0.055l-0.123,-0.054l-0.123,-0.052l-0.125,-0.05l-0.125,-0.049l-0.125,-0.048l-0.126,-0.046l-0.127,-0.044l-0.127,-0.043l-0.128,-0.042l-0.128,-0.04l-0.129,-0.038l-0.129,-0.037l-0.13,-0.035l-0.13,-0.033l-0.13,-0.032l-0.132,-0.031l-0.131,-0.028l-0.132,-0.028l-0.132,-0.025l-0.133,-0.024l-0.133,-0.023l-0.134,-0.02l-0.133,-0.02l-0.135,-0.017l-0.134,-0.016l-0.135,-0.014l-0.135,-0.013l-0.135,-0.011l-0.136,-0.009l-0.135,-0.007l-0.137,-0.006l-0.136,-0.005l-0.136,-0.002l-0.137,-0.001l-0.143,0.001l-0.142,0.003l-0.142,0.004l-0.141,0.006l-0.14,0.008l-0.141,0.01l-0.139,0.012l-0.139,0.013l-0.139,0.015l-0.138,0.017l-0.137,0.018l-0.137,0.02l-0.136,0.022l-0.135,0.023l-0.136,0.025l-0.134,0.027l-0.134,0.028l-0.133,0.03l-0.133,0.031l-0.132,0.033l-0.131,0.035l-0.131,0.036l-0.129,0.038l-0.13,0.039l-0.128,0.041l-0.128,0.043l-0.128,0.043l-0.126,0.046l-0.126,0.047l-0.125,0.048l-0.124,0.05l-0.124,0.052l-0.123,0.053l-0.122,0.054l-0.121,0.056l-0.121,0.057l-0.12,0.058l-0.118,0.06l-0.119,0.062l-0.117,0.063l-0.116,0.064l-0.116,0.065l-0.115,0.067l-0.113,0.068l-0.113,0.07l-0.112,0.071l-0.112,0.072l-0.11,0.073l-0.109,0.075l-0.108,0.076l-0.108,0.078l-0.106,0.078l-0.106,0.08l-0.104,0.081l-0.104,0.083l-0.102,0.083l-0.102,0.085l-0.1,0.086l-0.099,0.087l-0.099,0.088l-0.097,0.09l-0.096,0.09l-0.095,0.092l-0.094,0.093l-0.093,0.094l-0.092,0.095l-0.09,0.096l-0.09,0.097l-0.088,0.099l-0.087,0.099l-0.086,0.1l-0.085,0.102l-0.083,0.102l-0.083,0.104l-0.081,0.104l-0.08,0.106l-0.078,0.106l-0.078,0.108l-0.076,0.108l-0.074,0.109l-0.074,0.11l-0.072,0.112l-0.071,0.112l-0.07,0.113l-0.068,0.113l-0.067,0.115l-0.065,0.116l-0.065,0.116l-0.062,0.117l-0.062,0.119l-0.06,0.119l-0.058,0.119l-0.057,0.121l-0.056,0.121l-0.054,0.122l-0.053,0.123l-0.052,0.124l-0.05,0.124l-0.048,0.125l-0.047,0.126l-0.046,0.126l-0.043,0.128l-0.043,0.128l-0.041,0.128l-0.039,0.129l-0.038,0.131l-0.036,0.13l-0.035,0.132l-0.033,0.131l-0.031,0.133l-0.03,0.133l-0.028,0.134l-0.027,0.134l-0.025,0.135l-0.023,0.136l-0.022,0.136l-0.02,0.137l-0.018,0.137l-0.017,0.138l-0.015,0.139l-0.013,0.139l-0.012,0.139l-0.01,0.141l-0.008,0.14l-0.006,0.141l-0.004,0.142l-0.003,0.142l-0.001,0.149l0,1.49l0.001,0.124l0.002,0.118l0.004,0.118l0.005,0.117l0.006,0.117l0.008,0.117l0.01,0.117l0.011,0.117l0.012,0.116l0.013,0.116l0.016,0.116l0.016,0.116l0.018,0.115l0.019,0.115l0.021,0.114l0.022,0.115l0.024,0.114l0.025,0.113l0.026,0.113l0.027,0.113l0.029,0.113l0.031,0.112l0.032,0.111l0.033,0.111l0.034,0.111l0.036,0.11l0.037,0.11l0.038,0.109l0.04,0.109l0.041,0.109l0.042,0.107l0.044,0.108l0.045,0.106l0.046,0.107l0.048,0.105l0.049,0.105l0.05,0.105l0.051,0.104l0.053,0.103l0.054,0.103l0.055,0.101l0.057,0.102l0.058,0.101l0.058,0.1l0.061,0.099l0.061,0.099l0.063,0.097l0.064,0.097l0.065,0.097l0.066,0.096l0.068,0.095l0.069,0.094l0.07,0.093l0.071,0.093l0.072,0.091l0.074,0.091l0.075,0.091l0.076,0.089l0.077,0.088l0.078,0.088l0.08,0.086l0.08,0.086l0.082,0.085l0.083,0.084l0.084,0.083l0.085,0.082l0.086,0.08l0.086,0.08l0.088,0.078l0.088,0.077l0.09,0.076l0.09,0.075l0.091,0.074l0.091,0.072l0.093,0.071l0.093,0.07l0.095,0.069l0.094,0.068l0.096,0.066l0.096,0.065l0.098,0.064l0.098,0.063l0.098,0.061l0.099,0.061l0.1,0.059l0.101,0.057l0.101,0.057l0.102,0.055l0.103,0.054l0.103,0.053l0.104,0.051l0.105,0.05l0.105,0.049l0.105,0.048l0.107,0.046l0.106,0.045l0.108,0.044l0.107,0.042l0.109,0.041l0.109,0.04l0.109,0.038l0.11,0.037l0.11,0.036l0.111,0.034l0.111,0.033l0.111,0.032l0.112,0.031l0.113,0.029l0.113,0.027l0.113,0.026l0.114,0.025l0.113,0.024l0.115,0.022l0.114,0.021l0.115,0.019l0.115,0.018l0.116,0.016l0.116,0.016l0.116,0.013l0.116,0.012l0.117,0.011l0.117,0.01l0.117,0.008l0.117,0.006l0.117,0.005l0.118,0.004l0.118,0.002l0.124,0.001l2.993,0l0.095,0l0.091,-0.002l0.09,-0.002l0.09,-0.003l0.09,-0.004l0.089,-0.004l0.09,-0.006l0.089,-0.006l0.09,-0.007l0.089,-0.009l0.089,-0.008l0.089,-0.01l0.089,-0.011l0.088,-0.011l0.089,-0.012l0.088,-0.013l0.088,-0.014l0.088,-0.015l0.088,-0.015l0.088,-0.017l0.087,-0.017l0.087,-0.018l0.087,-0.018l0.087,-0.02l0.086,-0.02l0.087,-0.021l0.086,-0.022l0.086,-0.023l0.085,-0.024l0.085,-0.024l0.085,-0.025l0.085,-0.026l0.085,-0.027l0.084,-0.027l0.084,-0.028l0.084,-0.029l0.083,-0.03l0.084,-0.031l0.082,-0.031l0.083,-0.032l0.082,-0.033l0.082,-0.034l0.082,-0.034l0.081,-0.035l0.081,-0.036l0.081,-0.037l0.08,-0.037l0.08,-0.039l0.08,-0.039l0.079,-0.039l0.079,-0.041l0.079,-0.041l0.078,-0.042l0.078,-0.042l0.077,-0.044l0.077,-0.044l0.077,-0.045l0.076,-0.045l0.076,-0.047l0.075,-0.047l0.075,-0.048l0.075,-0.048l0.074,-0.049l1.449,-0.981l0.761,0.761l3.643,-3.643Z"/></g><g id="emoji"><path d="M28,16c0,-3.448 -1.37,-6.754 -3.808,-9.192c-2.438,-2.438 -5.744,-3.808 -9.192,-3.808c0,0 0,0 0,0c-7.18,0 -13,5.82 -13,13c0,0.502 0,1.003 0,1.502c0,3.049 1.211,5.974 3.368,8.13c2.156,2.157 5.081,3.368 8.13,3.368c0.997,0 2.007,0 3.004,0c3.049,0 5.974,-1.211 8.13,-3.368c2.157,-2.156 3.368,-5.081 3.368,-8.13c0,-0.499 0,-1 0,-1.502Z" style="fill:#fbc546;"/><path d="M24.225,11.311c0.381,0.381 0.381,0.997 0,1.378c-1.241,1.241 -3.725,3.725 -3.725,3.725c0,0 -2.484,-2.484 -3.725,-3.725c-0.381,-0.381 -0.381,-0.997 0,-1.378c0,0 0,0 0,0c0.192,-0.193 0.453,-0.301 0.725,-0.301c0.272,0 0.533,0.108 0.725,0.301c0.888,0.887 2.275,2.275 2.275,2.275c0,0 1.387,-1.388 2.275,-2.275c0.192,-0.193 0.453,-0.301 0.725,-0.301c0.272,0 0.533,0.108 0.725,0.301c0,0 0,0 0,0Z" style="fill-rule:nonzero;"/><path d="M10,11.5c0,-0.828 -0.672,-1.5 -1.5,-1.5c-0.828,0 -1.5,0.672 -1.5,1.5c0,0.916 0,2.084 0,3c0,0.828 0.672,1.5 1.5,1.5c0.828,0 1.5,-0.672 1.5,-1.5c0,-0.916 0,-2.084 0,-3Z"/><path d="M19.427,19.494l0.084,0.409l-2.097,2.097l2.097,2.097l-0.084,0.409c0,0 -4.122,1.649 -6.032,2.413c-0.253,0.101 -0.535,0.098 -0.785,-0.009c-0.25,-0.107 -0.447,-0.309 -0.548,-0.562c0,0 0,0 0,-0.001c-0.096,-0.24 -0.093,-0.508 0.009,-0.745c0.102,-0.238 0.294,-0.425 0.533,-0.521c1.32,-0.528 3.617,-1.446 3.617,-1.446l-1.635,-1.635l1.635,-1.635c0,0 -2.297,-0.918 -3.617,-1.446c-0.239,-0.096 -0.431,-0.283 -0.533,-0.521c-0.102,-0.237 -0.105,-0.505 -0.009,-0.745c0,-0.001 0,-0.001 0,-0.001c0.101,-0.253 0.298,-0.455 0.548,-0.562c0.25,-0.107 0.532,-0.11 0.785,-0.009c1.91,0.764 6.032,2.413 6.032,2.413Z" style="fill:#593604;fill-rule:nonzero;"/><path d="M24,28c0,0 -2.999,-2.999 -5.071,-5.071c-1.066,-1.066 -1.068,-2.794 -0.005,-3.863c0.043,-0.043 0.086,-0.086 0.129,-0.129c1.064,-1.07 2.795,-1.075 3.866,-0.011c0.588,0.584 1.081,1.074 1.081,1.074c0,0 0.486,-0.486 1.066,-1.066c0.513,-0.513 1.209,-0.801 1.934,-0.801c0.725,0 1.421,0.288 1.934,0.801c0.044,0.044 0.088,0.088 0.132,0.132c1.068,1.068 1.068,2.8 0,3.868c-2.072,2.072 -5.066,5.066 -5.066,5.066Z" style="fill:#d92020;"/></g></g></svg>