<?xml version="1.0" encoding="UTF-8" standalone="no"?>
<!DOCTYPE svg PUBLIC "-//W3C//DTD SVG 1.1//EN" "http://www.w3.org/Graphics/SVG/1.1/DTD/svg11.dtd">
<svg width="100%" height="100%" viewBox="0 0 32 32" version="1.1" xmlns="http://www.w3.org/2000/svg" xmlns:xlink="http://www.w3.org/1999/xlink" xml:space="preserve" xmlns:serif="http://www.serif.com/" style="fill-rule:evenodd;clip-rule:evenodd;stroke-linecap:round;stroke-linejoin:round;stroke-miterlimit:1.5;">
    <rect id="siren" x="0" y="0" width="32" height="32" style="fill:none;"/>
    <clipPath id="_clip1">
        <rect x="0" y="0" width="32" height="32"/>
    </clipPath>
    <g clip-path="url(#_clip1)">
        <g id="outline">
            <path d="M10.075,5.333c0,-1.287 2.654,-2.333 5.923,-2.333c3.27,0 5.924,1.046 5.924,2.333c0,0 1.63,12.752 1.63,12.752c1.525,0.778 2.448,1.794 2.448,2.904l0,3.772l-0.003,0c-0.094,2.409 -4.538,4.353 -9.999,4.353c-5.46,0 -9.904,-1.944 -9.998,-4.353l0,0l0,-0.001c-0.001,-0.025 -0.002,-0.051 -0.002,-0.077c0,-0.026 0.001,-0.052 0.002,-0.078l0,-3.506c-0.002,-0.037 -0.003,-0.073 -0.003,-0.11c0,-1.11 0.923,-2.126 2.448,-2.904l1.63,-12.752l0,0Z" style="fill:none;stroke:#000;stroke-width:4px;"/>
            <path d="M25.5,9l2.5,-2" style="fill:none;stroke:#000;stroke-width:6px;"/>
            <path d="M6.5,9l-2.5,-2" style="fill:none;stroke:#000;stroke-width:6px;"/>
            <path d="M26,12.5l3,0" style="fill:none;stroke:#000;stroke-width:6px;"/>
            <path d="M6,12.5l-3,0" style="fill:none;stroke:#000;stroke-width:6px;"/>
            <path d="M26,16l2.5,2" style="fill:none;stroke:#000;stroke-width:6px;"/>
            <path d="M6,16l-2.5,2" style="fill:none;stroke:#000;stroke-width:6px;"/>
        </g>
        <g id="emoji">
            <path d="M10.476,20.989c1.583,-0.466 3.482,-0.738 5.522,-0.738c2.041,0 3.94,0.272 5.523,0.738l4.479,0l0,3.772l-0.003,0c-0.094,2.409 -4.538,4.353 -9.999,4.353c-5.46,0 -9.904,-1.944 -9.998,-4.353l0,0l0,-0.001c-0.001,-0.025 -0.002,-0.051 -0.002,-0.077c0,-0.026 0.001,-0.052 0.002,-0.078l0,-3.616l4.476,0Z" style="fill:#404040;"/>
            <ellipse cx="15.998" cy="20.989" rx="10.002" ry="4.432" style="fill:#595959;"/>
            <path d="M10.075,5.333c0,-1.287 2.654,-2.333 5.923,-2.333c3.27,0 5.924,1.046 5.924,2.333c0,0 1.953,15.395 1.953,15.395l0,0c0.015,0.086 0.022,0.173 0.022,0.261c0,1.931 -3.539,3.5 -7.899,3.5c-4.359,0 -7.898,-1.569 -7.898,-3.5c0,-0.088 0.007,-0.175 0.022,-0.261l0,0l1.953,-15.395l0,0Z" style="fill:#e82731;"/>
            <clipPath id="_clip2">
                <path d="M10.075,5.333c0,-1.287 2.654,-2.333 5.923,-2.333c3.27,0 5.924,1.046 5.924,2.333c0,0 1.953,15.395 1.953,15.395l0,0c0.015,0.086 0.022,0.173 0.022,0.261c0,1.931 -3.539,3.5 -7.899,3.5c-4.359,0 -7.898,-1.569 -7.898,-3.5c0,-0.088 0.007,-0.175 0.022,-0.261l0,0l1.953,-15.395l0,0Z"/>
            </clipPath>
            <g clip-path="url(#_clip2)">
                <path d="M8.727,4.114l4.281,1.777l-1.764,18.713l-4.982,-3.49l2.465,-17Z" style="fill:#ff626a;"/>
            </g>
            <path d="M16.151,3.001l0.152,0.002l0.151,0.004l0.15,0.005l0.149,0.007l0.147,0.008l0.147,0.009l0.145,0.011l0.144,0.013l0.142,0.014l0.141,0.015l0.14,0.016l0.139,0.018l0.136,0.019l0.136,0.02l0.133,0.021l0.132,0.023l0.131,0.024l0.128,0.025l0.127,0.027l0.125,0.027l0.123,0.029l0.121,0.03l0.12,0.031l0.117,0.032l0.115,0.033l0.113,0.034l0.111,0.035l0.108,0.036l0.107,0.037l0.104,0.039l0.101,0.039l0.1,0.04l0.097,0.041l0.094,0.042l0.092,0.042l0.089,0.044l0.087,0.045l0.084,0.045l0.081,0.046l0.079,0.047l0.075,0.048l0.073,0.048l0.07,0.05l0.067,0.049l0.064,0.051l0.061,0.051l0.058,0.052l0.054,0.053l0.052,0.053l0.048,0.054l0.045,0.055l0.021,0.027l0.02,0.028l0.02,0.028l0.019,0.027l0.018,0.028l0.017,0.029l0.016,0.028l0.015,0.028l0.014,0.029l0.014,0.029l0.012,0.028l0.012,0.029l0.011,0.029l0.01,0.029l0.009,0.03l0.008,0.029l0.007,0.029l0.006,0.03l0.005,0.03l0.005,0.029l0.003,0.03l0.002,0.03l0.002,0.03l0,0.03c0,0 1.953,15.395 1.953,15.395l0,0l0.01,0.065l0.007,0.065l0.004,0.065l0.001,0.066l-0.001,0.045l-0.002,0.045l-0.003,0.045l-0.004,0.045l-0.006,0.044l-0.007,0.045l-0.008,0.044l-0.01,0.044l-0.011,0.044l-0.012,0.044l-0.013,0.044l-0.014,0.043l-0.016,0.044l-0.016,0.043l-0.018,0.043l-0.02,0.043l-0.02,0.042l-0.021,0.043l-0.023,0.042l-0.024,0.042l-0.025,0.042l-0.026,0.041l-0.027,0.042l-0.028,0.041l-0.03,0.041l-0.03,0.041l-0.032,0.04l-0.033,0.041l-0.033,0.04l-0.035,0.04l-0.036,0.039l-0.037,0.04l-0.038,0.039l-0.039,0.039l-0.04,0.038l-0.041,0.039l-0.043,0.038l-0.043,0.038l-0.044,0.037l-0.045,0.037l-0.046,0.038l-0.047,0.036l-0.048,0.037l-0.049,0.036l-0.05,0.036l-0.051,0.036l-0.052,0.035l-0.053,0.035l-0.108,0.069l-0.112,0.068l-0.116,0.067l-0.119,0.066l-0.122,0.064l-0.126,0.063l-0.129,0.061l-0.133,0.06l-0.135,0.059l-0.139,0.057l-0.142,0.056l-0.145,0.054l-0.147,0.053l-0.151,0.051l-0.153,0.05l-0.157,0.048l-0.159,0.046l-0.161,0.045l-0.164,0.043l-0.167,0.041l-0.169,0.04l-0.171,0.037l-0.174,0.036l-0.176,0.035l-0.179,0.032l-0.18,0.03l-0.182,0.029l-0.185,0.026l-0.186,0.025l-0.189,0.022l-0.19,0.021l-0.192,0.019l-0.193,0.016l-0.195,0.014l-0.197,0.013l-0.198,0.01l-0.2,0.008l-0.201,0.005l-0.203,0.004l-0.204,0.001l-0.203,-0.001l-0.203,-0.004l-0.201,-0.005l-0.2,-0.008l-0.198,-0.01l-0.197,-0.013l-0.195,-0.014l-0.194,-0.016l-0.191,-0.019l-0.191,-0.021l-0.188,-0.022l-0.186,-0.025l-0.185,-0.026l-0.182,-0.029l-0.181,-0.03l-0.178,-0.032l-0.176,-0.035l-0.174,-0.036l-0.171,-0.037l-0.169,-0.04l-0.167,-0.041l-0.164,-0.043l-0.161,-0.045l-0.159,-0.046l-0.157,-0.048l-0.153,-0.05l-0.151,-0.051l-0.148,-0.053l-0.144,-0.054l-0.142,-0.056l-0.139,-0.057l-0.136,-0.059l-0.132,-0.06l-0.129,-0.061l-0.126,-0.063l-0.122,-0.064l-0.12,-0.066l-0.115,-0.067l-0.112,-0.068l-0.108,-0.069l-0.053,-0.035l-0.052,-0.035l-0.051,-0.036l-0.05,-0.036l-0.049,-0.036l-0.048,-0.037l-0.047,-0.036l-0.046,-0.038l-0.045,-0.037l-0.044,-0.037l-0.044,-0.038l-0.042,-0.038l-0.041,-0.039l-0.04,-0.038l-0.039,-0.039l-0.038,-0.039l-0.037,-0.04l-0.036,-0.039l-0.035,-0.04l-0.033,-0.04l-0.033,-0.041l-0.032,-0.04l-0.03,-0.041l-0.03,-0.041l-0.028,-0.041l-0.027,-0.042l-0.026,-0.041l-0.025,-0.042l-0.024,-0.042l-0.023,-0.042l-0.021,-0.043l-0.02,-0.042l-0.02,-0.043l-0.018,-0.043l-0.016,-0.043l-0.016,-0.044l-0.014,-0.043l-0.014,-0.044l-0.012,-0.044l-0.01,-0.044l-0.01,-0.044l-0.008,-0.044l-0.007,-0.045l-0.006,-0.044l-0.004,-0.045l-0.003,-0.045l-0.002,-0.045l-0.001,-0.045l0.001,-0.066l0.004,-0.065l0.007,-0.065l0.01,-0.065l0,0l1.953,-15.395c0,0 0,-0.03 0,-0.03l0.002,-0.03l0.002,-0.03l0.003,-0.03l0.005,-0.029l0.005,-0.03l0.006,-0.03l0.007,-0.029l0.008,-0.029l0.009,-0.03l0.01,-0.029l0.011,-0.029l0.012,-0.029l0.012,-0.028l0.014,-0.029l0.014,-0.029l0.015,-0.028l0.016,-0.028l0.017,-0.028l0.018,-0.029l0.019,-0.027l0.019,-0.028l0.021,-0.028l0.021,-0.027l0.045,-0.055l0.048,-0.054l0.052,-0.053l0.054,-0.053l0.058,-0.052l0.061,-0.051l0.064,-0.051l0.067,-0.049l0.07,-0.05l0.073,-0.048l0.075,-0.048l0.079,-0.047l0.081,-0.046l0.084,-0.045l0.087,-0.045l0.089,-0.044l0.092,-0.042l0.094,-0.042l0.097,-0.041l0.099,-0.04l0.102,-0.039l0.104,-0.039l0.107,-0.037l0.108,-0.036l0.111,-0.035l0.113,-0.034l0.115,-0.033l0.117,-0.032l0.12,-0.031l0.121,-0.03l0.123,-0.029l0.125,-0.027l0.127,-0.027l0.128,-0.025l0.131,-0.024l0.132,-0.023l0.133,-0.021l0.136,-0.02l0.136,-0.019l0.139,-0.018l0.14,-0.016l0.141,-0.015l0.142,-0.014l0.144,-0.013l0.145,-0.011l0.147,-0.009l0.147,-0.008l0.149,-0.007l0.15,-0.005l0.151,-0.004l0.152,-0.002l0.152,-0.001l0.153,0.001Zm-0.295,1l-0.142,0.002l-0.141,0.003l-0.14,0.005l-0.138,0.007l-0.138,0.007l-0.136,0.009l-0.135,0.01l-0.134,0.012l-0.132,0.012l-0.131,0.014l-0.13,0.016l-0.127,0.016l-0.127,0.017l-0.124,0.019l-0.123,0.02l-0.121,0.021l-0.119,0.022l-0.118,0.023l-0.115,0.024l-0.113,0.025l-0.111,0.026l-0.11,0.026l-0.106,0.028l-0.105,0.029l-0.102,0.029l-0.1,0.03l-0.098,0.031l-0.094,0.032l-0.093,0.032l-0.089,0.033l-0.087,0.033l-0.084,0.034l-0.081,0.034l-0.078,0.035l-0.075,0.035l-0.072,0.035l-0.069,0.035l-0.065,0.036l-0.063,0.035l-0.058,0.035l-0.055,0.035l-0.052,0.034l-0.048,0.034l-0.044,0.033l-0.041,0.033l-0.037,0.031l-0.033,0.029l-0.03,0.029l-0.025,0.026l-0.022,0.025l-0.022,0.027l-0.005,0.006l-0.008,0.01l-0.006,0.009l-0.006,0.009l-0.005,0.007l-0.004,0.008l-0.004,0.006l-0.003,0.006l-0.002,0.005l-0.002,0.004l-0.002,0.003l-0.001,0.003l0,0.002l-0.001,0.007l-0.002,0.055l-0.005,0.055l-1.953,15.395l-0.001,-0.001l-0.002,0.019l-0.006,0.045l-0.003,0.024l-0.001,0.024l-0.001,0.027l0,0.013l0.001,0.017l0.001,0.016l0.002,0.017l0.002,0.017l0.003,0.016l0.003,0.017l0.004,0.018l0.004,0.017l0.005,0.018l0.005,0.019l0.006,0.018l0.007,0.019l0.008,0.02l0.008,0.02l0.009,0.02l0.01,0.021l0.011,0.021l0.012,0.022l0.012,0.023l0.014,0.022l0.015,0.023l0.015,0.024l0.017,0.024l0.017,0.025l0.019,0.025l0.02,0.025l0.02,0.025l0.022,0.026l0.023,0.027l0.024,0.026l0.025,0.027l0.027,0.027l0.027,0.027l0.028,0.028l0.03,0.027l0.031,0.028l0.032,0.028l0.033,0.028l0.034,0.028l0.035,0.029l0.036,0.028l0.038,0.029l0.038,0.028l0.04,0.028l0.04,0.029l0.042,0.028l0.041,0.027l0.091,0.059l0.093,0.056l0.097,0.056l0.101,0.055l0.104,0.055l0.109,0.055l0.113,0.053l0.116,0.053l0.119,0.052l0.123,0.05l0.127,0.05l0.13,0.049l0.133,0.047l0.137,0.047l0.139,0.045l0.143,0.044l0.145,0.042l0.148,0.041l0.151,0.04l0.154,0.038l0.156,0.036l0.159,0.035l0.162,0.034l0.164,0.032l0.166,0.03l0.168,0.028l0.171,0.027l0.172,0.025l0.175,0.023l0.177,0.021l0.178,0.019l0.181,0.018l0.182,0.015l0.184,0.014l0.185,0.011l0.187,0.01l0.189,0.007l0.19,0.005l0.191,0.004l0.192,0.001l0.193,-0.001l0.191,-0.004l0.19,-0.005l0.189,-0.007l0.187,-0.01l0.185,-0.011l0.184,-0.014l0.182,-0.015l0.18,-0.018l0.179,-0.019l0.177,-0.021l0.175,-0.023l0.172,-0.025l0.171,-0.027l0.168,-0.028l0.166,-0.03l0.164,-0.032l0.162,-0.034l0.159,-0.035l0.156,-0.036l0.154,-0.038l0.151,-0.04l0.148,-0.041l0.145,-0.042l0.143,-0.044l0.139,-0.045l0.137,-0.047l0.133,-0.047l0.13,-0.049l0.126,-0.05l0.124,-0.05l0.119,-0.052l0.116,-0.053l0.113,-0.053l0.108,-0.055l0.105,-0.055l0.101,-0.055l0.097,-0.056l0.093,-0.056l0.091,-0.059l0.041,-0.027l0.041,-0.028l0.041,-0.029l0.04,-0.028l0.038,-0.028l0.038,-0.029l0.036,-0.028l0.035,-0.029l0.034,-0.028l0.033,-0.028l0.032,-0.028l0.031,-0.028l0.03,-0.027l0.028,-0.028l0.027,-0.027l0.027,-0.027l0.025,-0.027l0.024,-0.026l0.023,-0.027l0.022,-0.026l0.02,-0.025l0.02,-0.025l0.019,-0.025l0.017,-0.025l0.017,-0.024l0.015,-0.023l0.015,-0.024l0.014,-0.023l0.012,-0.022l0.012,-0.022l0.011,-0.021l0.01,-0.021l0.009,-0.02l0.008,-0.02l0.008,-0.02l0.007,-0.019l0.006,-0.019l0.005,-0.018l0.005,-0.018l0.004,-0.017l0.004,-0.018l0.003,-0.016l0.003,-0.017l0.002,-0.017l0.002,-0.017l0.001,-0.016l0.001,-0.017l0,-0.013l-0.001,-0.027l-0.001,-0.024l-0.003,-0.024l-0.008,-0.054l-1.954,-15.404l-0.005,-0.055l-0.002,-0.055l-0.001,-0.007l0,-0.002l-0.001,-0.003l-0.002,-0.003l-0.002,-0.004l-0.002,-0.005l-0.003,-0.006l-0.004,-0.006l-0.004,-0.007l-0.005,-0.008l-0.006,-0.009l-0.007,-0.009l-0.007,-0.01l-0.005,-0.006l-0.022,-0.027l-0.022,-0.025l-0.026,-0.026l-0.029,-0.029l-0.033,-0.029l-0.037,-0.031l-0.041,-0.033l-0.044,-0.033l-0.048,-0.034l-0.052,-0.034l-0.055,-0.035l-0.059,-0.035l-0.062,-0.035l-0.065,-0.036l-0.069,-0.035l-0.072,-0.035l-0.075,-0.035l-0.078,-0.035l-0.081,-0.034l-0.084,-0.034l-0.087,-0.033l-0.089,-0.033l-0.093,-0.032l-0.095,-0.032l-0.097,-0.031l-0.1,-0.03l-0.102,-0.029l-0.105,-0.029l-0.107,-0.028l-0.109,-0.026l-0.111,-0.026l-0.113,-0.025l-0.116,-0.024l-0.117,-0.023l-0.119,-0.022l-0.121,-0.021l-0.123,-0.02l-0.124,-0.019l-0.127,-0.017l-0.127,-0.016l-0.13,-0.016l-0.131,-0.014l-0.132,-0.012l-0.134,-0.012l-0.135,-0.01l-0.136,-0.009l-0.138,-0.007l-0.138,-0.007l-0.14,-0.005l-0.141,-0.003l-0.142,-0.002l-0.143,-0.001l-0.142,0.001Z" style="fill:#e82731;"/>
            <ellipse cx="15.998" cy="5.333" rx="4.917" ry="1.6" style="fill:#ff626a;"/>
            <ellipse cx="15.998" cy="14.5" rx="2.539" ry="5.5" style="fill:#ffa7ad;"/>
            <path d="M25.5,9l2.5,-2" style="fill:none;stroke:#ff5f6a;stroke-width:2px;"/>
            <path d="M6.5,9l-2.5,-2" style="fill:none;stroke:#ff5f6a;stroke-width:2px;"/>
            <path d="M26,12.5l3,0" style="fill:none;stroke:#ff5f6a;stroke-width:2px;"/>
            <path d="M6,12.5l-3,0" style="fill:none;stroke:#ff5f6a;stroke-width:2px;"/>
            <path d="M26,16l2.5,2" style="fill:none;stroke:#ff5f6a;stroke-width:2px;"/>
            <path d="M6,16l-2.486,1.988l-0.014,0.012" style="fill:none;stroke:#ff5f6a;stroke-width:2px;"/>
        </g>
    </g>
</svg>
