<?xml version="1.0" encoding="UTF-8" standalone="no"?>
<!DOCTYPE svg PUBLIC "-//W3C//DTD SVG 1.1//EN" "http://www.w3.org/Graphics/SVG/1.1/DTD/svg11.dtd">
<svg width="100%" height="100%" viewBox="0 0 32 32" version="1.1" xmlns="http://www.w3.org/2000/svg" xmlns:xlink="http://www.w3.org/1999/xlink" xml:space="preserve" xmlns:serif="http://www.serif.com/" style="fill-rule:evenodd;clip-rule:evenodd;stroke-linecap:round;stroke-linejoin:round;stroke-miterlimit:1.5;">
    <rect id="arms_in_the_air" x="0" y="0" width="32" height="32" style="fill:none;"/>
    <clipPath id="_clip1">
        <rect x="0" y="0" width="32" height="32"/>
    </clipPath>
    <g clip-path="url(#_clip1)">
        <g id="outline">
            <path d="M28.901,5.427l0.155,0.021l0.153,0.03l0.153,0.037l0.15,0.044l0.149,0.053l0.147,0.06l0.121,0.056l0.103,0.052l0.107,0.057l0.124,0.072l0.12,0.078l0.115,0.083l0.111,0.087l0.106,0.092l0.102,0.096l0.097,0.1l0.092,0.104l0.087,0.107l0.082,0.111l0.077,0.114l0.072,0.116l0.066,0.119l0.061,0.123l0.056,0.125l0.051,0.127l0.044,0.128l0.04,0.132l0.033,0.132l0.028,0.135l0.022,0.136l0.017,0.137l0.01,0.139l0.004,0.139l-0.002,0.139l-0.009,0.141l-0.015,0.141l-0.021,0.139l-0.027,0.14l-0.034,0.14l-0.034,0.116l-7.152,22.475l-16.924,0l-7.152,-22.475l-0.034,-0.116l-0.034,-0.139l-0.027,-0.141l-0.022,-0.14l-0.014,-0.14l-0.009,-0.141l-0.002,-0.139l0.004,-0.139l0.01,-0.139l0.017,-0.137l0.022,-0.136l0.028,-0.135l0.033,-0.133l0.039,-0.13l0.045,-0.129l0.051,-0.128l0.056,-0.124l0.061,-0.123l0.066,-0.119l0.072,-0.116l0.077,-0.114l0.082,-0.111l0.087,-0.107l0.092,-0.104l0.097,-0.1l0.102,-0.096l0.106,-0.091l0.111,-0.088l0.116,-0.083l0.119,-0.078l0.124,-0.072l0.107,-0.057l0.103,-0.052l0.121,-0.057l0.147,-0.059l0.149,-0.053l0.15,-0.044l0.153,-0.037l0.153,-0.03l0.155,-0.021l0.155,-0.014l0.157,-0.007l0.156,0.002l0.156,0.009l0.156,0.017l0.155,0.025l0.154,0.032l0.153,0.041l0.151,0.048l0.149,0.055l0.145,0.063l0.141,0.07l0.137,0.077l0.133,0.083l0.129,0.089l0.123,0.096l0.119,0.101l0.114,0.108l0.108,0.112l0.102,0.118l0.097,0.124l0.091,0.128l0.084,0.133l0.078,0.138l0.06,0.119l5.801,12.328l0.038,0.078l0.035,0.07l0.036,0.068l0.037,0.068l0.039,0.067l0.039,0.066l0.041,0.066l0.042,0.064l0.042,0.064l0.044,0.062l0.045,0.062l0.046,0.061l0.046,0.06l0.048,0.058l0.049,0.059l0.05,0.057l0.051,0.056l0.051,0.055l0.053,0.054l0.053,0.054l0.054,0.052l0.055,0.051l0.057,0.051l0.057,0.049l0.057,0.048l0.059,0.047l0.059,0.046l0.06,0.045l0.061,0.045l0.062,0.043l0.062,0.041l0.063,0.041l0.064,0.04l0.065,0.039l0.065,0.037l0.065,0.036l0.067,0.036l0.067,0.033l0.068,0.033l0.068,0.032l0.069,0.031l0.069,0.029l0.07,0.028l0.07,0.027l0.071,0.026l0.072,0.024l0.071,0.023l0.073,0.022l0.073,0.021l0.073,0.019l0.074,0.018l0.074,0.017l0.074,0.016l0.075,0.014l0.076,0.013l0.075,0.012l0.076,0.01l0.077,0.009l0.076,0.007l0.077,0.007l0.078,0.005l0.077,0.003l0.078,0.002l0.079,0.001l0.079,-0.001l0.078,-0.002l0.077,-0.003l0.078,-0.005l0.077,-0.007l0.076,-0.007l0.077,-0.009l0.076,-0.01l0.075,-0.012l0.076,-0.013l0.075,-0.014l0.074,-0.016l0.074,-0.017l0.074,-0.018l0.073,-0.019l0.073,-0.021l0.072,-0.022l0.072,-0.023l0.072,-0.024l0.071,-0.026l0.07,-0.027l0.07,-0.028l0.069,-0.029l0.069,-0.031l0.069,-0.032l0.067,-0.032l0.067,-0.034l0.067,-0.036l0.065,-0.036l0.066,-0.038l0.064,-0.038l0.064,-0.04l0.063,-0.041l0.062,-0.041l0.062,-0.043l0.061,-0.045l0.06,-0.045l0.059,-0.046l0.059,-0.047l0.057,-0.048l0.057,-0.049l0.056,-0.051l0.056,-0.051l0.054,-0.053l0.053,-0.053l0.053,-0.054l0.051,-0.055l0.051,-0.056l0.05,-0.057l0.049,-0.059l0.048,-0.058l0.046,-0.06l0.046,-0.061l0.045,-0.062l0.044,-0.062l0.042,-0.064l0.042,-0.064l0.041,-0.066l0.039,-0.066l0.039,-0.067l0.037,-0.067l0.036,-0.069l0.035,-0.07l0.038,-0.078l5.801,-12.328l0.06,-0.119l0.078,-0.138l0.085,-0.133l0.09,-0.128l0.097,-0.124l0.102,-0.118l0.108,-0.112l0.114,-0.108l0.119,-0.101l0.123,-0.096l0.129,-0.089l0.132,-0.083l0.138,-0.077l0.141,-0.07l0.145,-0.063l0.149,-0.055l0.151,-0.048l0.153,-0.041l0.154,-0.032l0.155,-0.025l0.156,-0.017l0.156,-0.009l0.156,-0.002l0.156,0.006l0.156,0.015Zm-5.392,15.814l-0.062,0.127l-0.067,0.134l-0.07,0.132l-0.072,0.132l-0.074,0.129l-0.076,0.128l-0.079,0.126l-0.08,0.124l-0.083,0.122l-0.084,0.122l-0.087,0.119l-0.088,0.117l-0.091,0.116l-0.092,0.114l-0.095,0.112l-0.096,0.11l-0.098,0.109l-0.099,0.107l-0.102,0.104l-0.103,0.103l-0.105,0.101l-0.106,0.099l-0.108,0.097l-0.11,0.095l-0.112,0.093l-0.113,0.091l-0.114,0.089l-0.116,0.087l-0.117,0.085l-0.119,0.083l-0.12,0.081l-0.122,0.079l-0.123,0.076l-0.124,0.075l-0.126,0.072l-0.126,0.07l-0.129,0.068l-0.129,0.065l-0.13,0.064l-0.132,0.061l-0.133,0.059l-0.133,0.056l-0.136,0.054l-0.136,0.052l-0.137,0.05l-0.137,0.047l-0.139,0.045l-0.14,0.042l-0.141,0.04l-0.142,0.038l-0.142,0.035l-0.143,0.032l-0.144,0.031l-0.145,0.027l-0.146,0.025l-0.146,0.023l-0.147,0.019l-0.147,0.018l-0.148,0.014l-0.148,0.013l-0.15,0.009l-0.149,0.007l-0.15,0.004l-0.141,0.001l-0.02,0l-0.141,-0.001l-0.15,-0.004l-0.149,-0.007l-0.15,-0.009l-0.148,-0.013l-0.148,-0.014l-0.147,-0.018l-0.147,-0.019l-0.146,-0.023l-0.146,-0.025l-0.145,-0.027l-0.144,-0.031l-0.143,-0.032l-0.142,-0.035l-0.142,-0.038l-0.141,-0.04l-0.139,-0.042l-0.14,-0.045l-0.138,-0.047l-0.136,-0.05l-0.136,-0.052l-0.135,-0.054l-0.134,-0.056l-0.133,-0.059l-0.132,-0.061l-0.13,-0.064l-0.129,-0.065l-0.129,-0.068l-0.126,-0.07l-0.126,-0.072l-0.124,-0.075l-0.123,-0.076l-0.122,-0.079l-0.12,-0.081l-0.119,-0.083l-0.117,-0.085l-0.116,-0.087l-0.114,-0.089l-0.113,-0.091l-0.112,-0.093l-0.11,-0.095l-0.107,-0.097l-0.107,-0.099l-0.105,-0.101l-0.103,-0.103l-0.102,-0.104l-0.099,-0.107l-0.098,-0.109l-0.096,-0.11l-0.095,-0.112l-0.092,-0.114l-0.09,-0.116l-0.089,-0.117l-0.087,-0.12l-0.084,-0.121l-0.083,-0.122l-0.08,-0.124l-0.079,-0.126l-0.076,-0.128l-0.074,-0.129l-0.072,-0.131l-0.07,-0.133l-0.068,-0.134l-0.061,-0.127l-0.554,-1.177l2.525,7.936l11.076,0l2.525,-7.936l-0.554,1.177Z"/>
            <path d="M21,15c0,-2.761 -2.239,-5 -5,-5c0,0 0,0 0,0c-2.761,0 -5,2.239 -5,5c0,0.661 0,1.339 0,2c0,2.761 2.239,5 5,5c0,0 0,0 0,0c2.761,0 5,-2.239 5,-5c0,-0.661 0,-1.339 0,-2Z" style="fill:none;stroke:#000;stroke-width:4px;"/>
            <path d="M16,5l0,-2" style="fill:none;stroke:#000;stroke-width:6px;"/>
            <path d="M22,6l1,-1" style="fill:none;stroke:#000;stroke-width:6px;"/>
            <path d="M10,6l-1,-1" style="fill:none;stroke:#000;stroke-width:6px;"/>
        </g>
        <g id="emoji">
            <g>
                <path d="M23,30l-14,0l-4.136,-13l0.136,-1l2,0l1.706,1l0.59,1.254l0.636,2.319c2.356,3.494 3.435,4.074 6.105,4.037c3.398,-0.046 4.626,-1.201 6.104,-4.366l0.563,-1.99l0.59,-1.254l0.706,-1l3,0l0.136,1l-4.136,13Z" style="fill:#4a905e;"/>
                <path d="M22.704,18.254l-0.161,1.771c-0.307,3.384 -3.145,5.975 -6.543,5.975c0,0 0,0 0,0c-3.398,0 -6.236,-2.591 -6.543,-5.975l-0.161,-1.771l1.001,2.127c1.04,2.209 3.261,3.619 5.702,3.619c0.001,0 0.001,0 0.002,0c2.441,0 4.662,-1.41 5.702,-3.619l1.001,-2.127Z" style="fill:#2f7827;"/>
                <path d="M4.864,17l-2.565,-8.06c-0.172,-0.541 0.075,-1.127 0.583,-1.381c0.021,-0.01 0.041,-0.021 0.062,-0.031c0.277,-0.139 0.6,-0.16 0.893,-0.058c0.294,0.102 0.534,0.318 0.666,0.599l4.203,8.931l-3.842,0Zm18.43,0l4.203,-8.931c0.132,-0.281 0.372,-0.497 0.666,-0.599c0.293,-0.102 0.616,-0.081 0.893,0.058c0.021,0.01 0.041,0.021 0.062,0.031c0.508,0.254 0.755,0.84 0.583,1.381l-2.565,8.06l-3.842,0Z" style="fill:#f10dc3;"/>
            </g>
            <path d="M21,15c0,-2.761 -2.239,-5 -5,-5c0,0 0,0 0,0c-2.761,0 -5,2.239 -5,5c0,0.661 0,1.339 0,2c0,2.761 2.239,5 5,5c0,0 0,0 0,0c2.761,0 5,-2.239 5,-5c0,-0.661 0,-1.339 0,-2Z" style="fill:#f10dc3;"/>
            <g>
                <path d="M14,15c0,-0.552 -0.448,-1 -1,-1c-0.552,0 -1,0.448 -1,1c0,0.322 0,0.678 0,1c0,0.552 0.448,1 1,1c0.552,0 1,-0.448 1,-1c0,-0.322 0,-0.678 0,-1Z"/>
                <path d="M20,15c0,-0.552 -0.448,-1 -1,-1c-0.552,0 -1,0.448 -1,1c0,0.322 0,0.678 0,1c0,0.552 0.448,1 1,1c0.552,0 1,-0.448 1,-1c0,-0.322 0,-0.678 0,-1Z"/>
            </g>
            <path d="M16,5l0,-2" style="fill:none;stroke:#fff;stroke-width:2px;"/>
            <path d="M22,6l1,-1" style="fill:none;stroke:#fff;stroke-width:2px;"/>
            <path d="M10,6l-1,-1" style="fill:none;stroke:#fff;stroke-width:2px;"/>
        </g>
    </g>
</svg>
