<?xml version="1.0" encoding="UTF-8" standalone="no"?>
<!DOCTYPE svg PUBLIC "-//W3C//DTD SVG 1.1//EN" "http://www.w3.org/Graphics/SVG/1.1/DTD/svg11.dtd">
<svg width="100%" height="100%" viewBox="0 0 32 32" version="1.1" xmlns="http://www.w3.org/2000/svg" xmlns:xlink="http://www.w3.org/1999/xlink" xml:space="preserve" xmlns:serif="http://www.serif.com/" style="fill-rule:evenodd;clip-rule:evenodd;stroke-linejoin:round;stroke-miterlimit:2;">
    <rect id="bow" x="0" y="0" width="32" height="32" style="fill:none;"/>
    <clipPath id="_clip1">
        <rect x="0" y="0" width="32" height="32"/>
    </clipPath>
    <g clip-path="url(#_clip1)">
        <g id="outline">
            <path d="M8.996,17.56c0.002,-0.217 0.003,-0.433 0.005,-0.65c0.015,-0.848 0.171,-1.694 0.487,-2.483c0.21,-0.523 0.478,-1.021 0.804,-1.481c0.717,-1.007 1.7,-1.818 2.826,-2.327c0.578,-0.261 1.192,-0.443 1.818,-0.538c0.293,-0.045 0.588,-0.069 0.884,-0.079c0.09,-0.001 0.18,-0.002 0.27,-0.001c0.848,0.016 1.694,0.171 2.483,0.487c0.523,0.21 1.021,0.478 1.481,0.805c1.007,0.716 1.818,1.699 2.327,2.825c0.261,0.578 0.443,1.192 0.538,1.818c0.045,0.293 0.069,0.588 0.079,0.885c0.004,0.246 0.007,0.493 0.007,0.739l0.335,0.112c0.272,0.094 0.537,0.201 0.794,0.331c0.552,0.278 1.06,0.642 1.501,1.074c0.266,0.262 0.504,0.548 0.72,0.852c1.01,1.481 1.989,2.982 2.984,4.473c0.129,0.202 0.245,0.41 0.339,0.631c0.154,0.36 0.255,0.742 0.298,1.131c0.016,0.141 0.021,0.282 0.024,0.423l0,5.413l-28,0l0,-5.413c0.003,-0.141 0.008,-0.282 0.024,-0.423c0.038,-0.34 0.12,-0.676 0.243,-0.995c0.088,-0.23 0.2,-0.446 0.325,-0.658c0.969,-1.514 1.992,-2.992 2.988,-4.487c0.209,-0.306 0.439,-0.595 0.698,-0.859c0.461,-0.471 1,-0.865 1.588,-1.162c0.257,-0.13 0.522,-0.237 0.794,-0.331l0.336,-0.112Zm-0.953,-13.56c0.543,0.011 1.076,0.164 1.538,0.451c0.187,0.115 0.358,0.251 0.516,0.403c0.376,0.372 0.761,0.736 1.12,1.125c0.247,0.274 0.445,0.589 0.579,0.933c0.163,0.419 0.23,0.873 0.195,1.321c-0.036,0.459 -0.179,0.909 -0.415,1.304c-0.141,0.237 -0.316,0.455 -0.517,0.644c-0.242,0.23 -0.523,0.418 -0.828,0.555c-0.336,0.151 -0.699,0.239 -1.067,0.26c-0.391,0.021 -0.785,-0.035 -1.155,-0.164c-0.392,-0.138 -0.75,-0.357 -1.056,-0.639c-0.401,-0.379 -0.796,-0.766 -1.17,-1.172c-0.247,-0.274 -0.445,-0.589 -0.579,-0.933c-0.1,-0.257 -0.164,-0.529 -0.19,-0.804c-0.085,-0.889 0.241,-1.789 0.877,-2.417c0.237,-0.235 0.514,-0.43 0.815,-0.574c0.354,-0.169 0.738,-0.265 1.13,-0.289c0.069,-0.003 0.138,-0.004 0.207,-0.004Zm15.983,0c0.369,0.005 0.734,0.075 1.078,0.211c0.569,0.225 1.062,0.625 1.399,1.135c0.184,0.278 0.321,0.588 0.404,0.911c0.071,0.279 0.102,0.568 0.091,0.855c-0.013,0.345 -0.086,0.688 -0.215,1.008c-0.147,0.364 -0.365,0.695 -0.637,0.977c-0.372,0.376 -0.736,0.761 -1.125,1.12c-0.308,0.278 -0.669,0.493 -1.063,0.626c-0.371,0.125 -0.766,0.176 -1.156,0.15c-0.368,-0.024 -0.73,-0.117 -1.065,-0.272c-0.302,-0.14 -0.581,-0.331 -0.821,-0.563c-0.323,-0.312 -0.574,-0.697 -0.73,-1.118c-0.16,-0.433 -0.218,-0.901 -0.169,-1.359c0.029,-0.274 0.097,-0.545 0.2,-0.801c0.138,-0.343 0.339,-0.655 0.59,-0.927c0.379,-0.401 0.766,-0.796 1.172,-1.17c0.154,-0.139 0.32,-0.263 0.499,-0.368c0.448,-0.264 0.959,-0.404 1.479,-0.415c0.035,0 0.034,0 0.069,0Zm-7.953,-2.999c0.327,0.011 0.649,0.069 0.956,0.181c0.816,0.298 1.476,0.952 1.781,1.766c0.12,0.322 0.181,0.66 0.19,1.003c0.005,0.716 0.016,1.431 -0.002,2.147c-0.015,0.375 -0.094,0.744 -0.243,1.089c-0.11,0.255 -0.254,0.493 -0.429,0.708c-0.288,0.354 -0.657,0.639 -1.072,0.83c-0.414,0.191 -0.871,0.285 -1.327,0.274c-0.342,-0.008 -0.682,-0.076 -1.001,-0.198c-0.35,-0.134 -0.674,-0.334 -0.95,-0.587c-0.289,-0.264 -0.525,-0.584 -0.691,-0.938c-0.181,-0.385 -0.274,-0.802 -0.285,-1.227c-0.005,-0.716 -0.016,-1.431 0.002,-2.147c0.012,-0.31 0.067,-0.615 0.172,-0.908c0.28,-0.787 0.891,-1.434 1.661,-1.759c0.301,-0.127 0.62,-0.2 0.945,-0.227c0.098,-0.006 0.195,-0.009 0.293,-0.007Z"/>
        </g>
        <g id="emoji">
            <path d="M9.032,19.667c0.015,0.162 13.927,0.103 13.936,0c0.729,0.303 1.353,0.815 1.793,1.475c0.874,1.31 2.267,3.401 2.903,4.354c0.219,0.329 0.336,0.715 0.336,1.11l0,3.394l-24,0l0,-3.394c0,-0.395 0.117,-0.781 0.336,-1.11c0.636,-0.953 2.029,-3.044 2.903,-4.354c0.44,-0.66 1.065,-1.172 1.793,-1.475Z" style="fill:#4a905e;"/>
            <clipPath id="_clip2">
                <path d="M9.032,19.667c0.015,0.162 13.927,0.103 13.936,0c0.729,0.303 1.353,0.815 1.793,1.475c0.874,1.31 2.267,3.401 2.903,4.354c0.219,0.329 0.336,0.715 0.336,1.11l0,3.394l-24,0l0,-3.394c0,-0.395 0.117,-0.781 0.336,-1.11c0.636,-0.953 2.029,-3.044 2.903,-4.354c0.44,-0.66 1.065,-1.172 1.793,-1.475Z"/>
            </clipPath>
            <g clip-path="url(#_clip2)">
                <path d="M21,22c0,-2.761 -2.239,-5 -5,-5c0,0 0,0 0,0c-2.761,0 -5,2.239 -5,5c0,0.661 0,1.339 0,2c0,2.761 2.239,5 5,5c0,0 0,0 0,0c2.761,0 5,-2.239 5,-5c0,-0.661 0,-1.339 0,-2Z" style="fill:#2f7827;"/>
                <path d="M29,31l-9,0l0,-3l4,-1l5,-1l0,5Zm-17,0l0,-3l-4,-1l-5,-1l0,5l9,0Z" style="fill:#f10dc3;"/>
                <path d="M13,31.5l-2,0c0,-0.668 0.033,-1.336 -0.002,-2.003c-0.024,-0.319 -0.195,-0.612 -0.467,-0.783c-0.083,-0.052 -0.173,-0.09 -0.268,-0.117l-0.026,-0.007l-3.603,-0.901l-0.16,-0.578l3.526,-3.525c0.471,0.471 0.943,0.943 1.414,1.414l-1.458,1.458c0.278,0.07 0.557,0.137 0.834,0.209c0.303,0.087 0.592,0.213 0.856,0.386c0.584,0.384 1.023,0.97 1.225,1.638c0.085,0.281 0.126,0.572 0.129,0.865l0,1.944Zm8,0l-2,0c0,-0.668 -0.006,-1.335 0.001,-2.003c0.002,-0.064 0.005,-0.127 0.01,-0.191c0.028,-0.291 0.091,-0.576 0.199,-0.849c0.25,-0.63 0.714,-1.165 1.302,-1.501c0.238,-0.135 0.491,-0.235 0.755,-0.304l0.777,-0.194l-1.458,-1.458l1.414,-1.414c1.175,1.175 2.35,2.35 3.526,3.525l-0.16,0.578c-1.224,0.306 -2.465,0.55 -3.671,0.92c-0.303,0.1 -0.546,0.338 -0.646,0.643c-0.03,0.093 -0.046,0.19 -0.049,0.288l0,0.027l0,1.933Z"/>
            </g>
            <path d="M21,19l1.698,0.566c0.091,0.03 0.182,0.064 0.27,0.101c-0.009,0.103 -0.021,0.206 -0.036,0.309c-0.092,0.657 -0.278,1.301 -0.551,1.906c-0.347,0.768 -0.835,1.472 -1.431,2.068c-0.516,0.516 -1.113,0.951 -1.762,1.283c-0.587,0.301 -1.217,0.518 -1.865,0.642c-1.354,0.259 -2.778,0.112 -4.048,-0.426c-0.623,-0.263 -1.207,-0.618 -1.728,-1.048c-0.736,-0.607 -1.346,-1.364 -1.78,-2.213c-0.328,-0.639 -0.555,-1.329 -0.673,-2.038c-0.026,-0.16 -0.047,-0.321 -0.062,-0.483c0.089,-0.037 0.179,-0.071 0.27,-0.101l1.698,-0.566l10,0Z" style="fill:#14300e;"/>
            <path d="M21,17c0,-2.761 -2.239,-5 -5,-5c0,0 0,0 0,0c-2.761,0 -5,2.239 -5,5c0,0.661 0,1.339 0,2c0,2.761 2.239,5 5,5c0,0 0,0 0,0c2.761,0 5,-2.239 5,-5c0,-0.661 0,-1.339 0,-2Z" style="fill:#f10dc3;"/>
            <clipPath id="_clip3">
                <path d="M21,17c0,-2.761 -2.239,-5 -5,-5c0,0 0,0 0,0c-2.761,0 -5,2.239 -5,5c0,0.661 0,1.339 0,2c0,2.761 2.239,5 5,5c0,0 0,0 0,0c2.761,0 5,-2.239 5,-5c0,-0.661 0,-1.339 0,-2Z"/>
            </clipPath>
            <g clip-path="url(#_clip3)">
                <path d="M13.02,19c0.113,0.004 0.224,0.024 0.33,0.063c0.276,0.103 0.496,0.328 0.593,0.605c0.036,0.101 0.054,0.206 0.057,0.312c0.003,0.366 0.022,0.734 -0.003,1.099c-0.013,0.14 -0.051,0.275 -0.118,0.398c-0.06,0.111 -0.141,0.21 -0.238,0.29c-0.092,0.077 -0.197,0.137 -0.309,0.176c-0.107,0.038 -0.219,0.057 -0.332,0.057c-0.391,0 -0.755,-0.237 -0.914,-0.594c-0.054,-0.122 -0.082,-0.253 -0.086,-0.386c-0.003,-0.366 -0.022,-0.734 0.003,-1.099c0.01,-0.106 0.034,-0.21 0.075,-0.308c0.101,-0.24 0.295,-0.434 0.535,-0.535c0.092,-0.039 0.189,-0.062 0.288,-0.073c0.039,-0.004 0.079,-0.005 0.119,-0.005Zm6,0c0.113,0.004 0.224,0.024 0.33,0.063c0.276,0.103 0.496,0.328 0.593,0.605c0.036,0.101 0.054,0.206 0.057,0.312c0.003,0.366 0.022,0.734 -0.003,1.099c-0.013,0.14 -0.051,0.275 -0.118,0.398c-0.06,0.111 -0.141,0.21 -0.238,0.29c-0.092,0.077 -0.197,0.137 -0.309,0.176c-0.107,0.038 -0.219,0.057 -0.332,0.057c-0.391,0 -0.755,-0.237 -0.914,-0.594c-0.054,-0.122 -0.082,-0.253 -0.086,-0.386c-0.003,-0.366 -0.022,-0.734 0.003,-1.099c0.01,-0.106 0.034,-0.21 0.075,-0.308c0.101,-0.24 0.295,-0.434 0.535,-0.535c0.092,-0.039 0.189,-0.062 0.288,-0.073c0.039,-0.004 0.079,-0.005 0.119,-0.005Z"/>
            </g>
            <path d="M8.03,6c0.235,0.01 0.456,0.097 0.634,0.252c0.383,0.347 0.757,0.709 1.097,1.099c0.085,0.102 0.151,0.219 0.192,0.346c0.119,0.373 0.003,0.791 -0.289,1.051c-0.085,0.075 -0.182,0.135 -0.286,0.178c-0.11,0.045 -0.229,0.07 -0.348,0.074c-0.126,0.003 -0.253,-0.017 -0.371,-0.06c-0.132,-0.048 -0.25,-0.123 -0.352,-0.219c-0.359,-0.352 -0.737,-0.692 -1.068,-1.072c-0.085,-0.102 -0.151,-0.219 -0.192,-0.346c-0.03,-0.094 -0.046,-0.194 -0.047,-0.293c-0.004,-0.377 0.213,-0.733 0.55,-0.903c0.125,-0.063 0.261,-0.097 0.4,-0.106c0.027,-0.001 0.053,-0.001 0.08,-0.001Zm16,0c0.133,0.006 0.263,0.035 0.385,0.09c0.102,0.047 0.197,0.111 0.278,0.189c0.287,0.276 0.383,0.709 0.24,1.081c-0.048,0.124 -0.121,0.236 -0.212,0.333c-0.352,0.359 -0.692,0.737 -1.072,1.068c-0.108,0.09 -0.23,0.158 -0.365,0.198c-0.12,0.036 -0.248,0.048 -0.373,0.037c-0.119,-0.011 -0.236,-0.043 -0.344,-0.094c-0.101,-0.049 -0.194,-0.115 -0.274,-0.195c-0.277,-0.277 -0.367,-0.701 -0.226,-1.067c0.048,-0.124 0.121,-0.236 0.212,-0.333c0.352,-0.359 0.692,-0.737 1.072,-1.068c0.181,-0.151 0.404,-0.234 0.639,-0.239c0.02,0 0.02,0 0.04,0Zm-8.002,-3c0.113,0.005 0.223,0.025 0.329,0.066c0.273,0.104 0.49,0.328 0.587,0.604c0.034,0.097 0.051,0.199 0.056,0.302c0.009,0.695 0.028,1.39 -0.002,2.084c-0.009,0.141 -0.045,0.277 -0.11,0.403c-0.06,0.116 -0.143,0.221 -0.243,0.305c-0.093,0.078 -0.2,0.14 -0.315,0.18c-0.097,0.034 -0.199,0.053 -0.302,0.056c-0.38,0.01 -0.742,-0.203 -0.916,-0.541c-0.07,-0.134 -0.105,-0.281 -0.112,-0.431c-0.009,-0.695 -0.028,-1.39 0.002,-2.084c0.007,-0.103 0.027,-0.204 0.064,-0.301c0.094,-0.246 0.285,-0.448 0.526,-0.556c0.094,-0.042 0.194,-0.068 0.296,-0.081c0.047,-0.004 0.093,-0.006 0.14,-0.006Z" style="fill:#fff;"/>
        </g>
    </g>
</svg>
