<?xml version="1.0" encoding="UTF-8" standalone="no"?>
<!DOCTYPE svg PUBLIC "-//W3C//DTD SVG 1.1//EN" "http://www.w3.org/Graphics/SVG/1.1/DTD/svg11.dtd">
<svg width="100%" height="100%" viewBox="0 0 32 32" version="1.1" xmlns="http://www.w3.org/2000/svg" xmlns:xlink="http://www.w3.org/1999/xlink" xml:space="preserve" xmlns:serif="http://www.serif.com/" style="fill-rule:evenodd;clip-rule:evenodd;stroke-linecap:round;stroke-linejoin:round;stroke-miterlimit:1.5;">
    <rect id="massage" x="0" y="0" width="32" height="32" style="fill:none;"/>
    <clipPath id="_clip1">
        <rect x="0" y="0" width="32" height="32"/>
    </clipPath>
    <g clip-path="url(#_clip1)">
        <g id="outline">
            <path d="M24,13c0,-4.418 -3.582,-8 -8,-8l0,0c-4.418,0 -8,3.582 -8,8l0,3c0,4.418 3.582,8 8,8l0,0c4.418,0 8,-3.582 8,-8l0,-3Z" style="fill:#808080;stroke:#000;stroke-width:4px;"/>
            <path d="M22.162,24.002l0.162,0.004l0.16,0.008l0.16,0.012l0.16,0.014l0.158,0.017l0.158,0.021l0.157,0.024l0.155,0.026l0.155,0.03l0.154,0.032l0.153,0.036l0.151,0.038l0.151,0.042l0.149,0.044l0.148,0.047l0.147,0.049l0.146,0.053l0.144,0.055l0.142,0.058l0.142,0.06l0.14,0.063l0.138,0.066l0.137,0.068l0.136,0.071l0.134,0.073l0.132,0.076l0.131,0.078l0.129,0.08l0.127,0.083l0.126,0.085l0.124,0.087l0.122,0.09l0.12,0.092l0.119,0.094l0.117,0.096l0.114,0.099l0.113,0.1l0.111,0.103l0.109,0.104l0.107,0.107l0.105,0.109l0.103,0.11l0.101,0.113l0.099,0.114l0.096,0.117l0.095,0.118l0.092,0.12l0.09,0.122l0.088,0.124l0.085,0.125l0.083,0.127l0.081,0.129l0.079,0.13l0.076,0.132l0.073,0.134l0.071,0.135l0.069,0.137l0.066,0.138l0.064,0.14l0.061,0.141l0.058,0.143l0.055,0.144l1.024,2.811l-29.027,0l1.022,-2.811l0.055,-0.144l0.059,-0.142l0.06,-0.141l0.064,-0.14l0.066,-0.138l0.069,-0.137l0.071,-0.135l0.073,-0.134l0.076,-0.132l0.079,-0.131l0.08,-0.128l0.084,-0.128l0.085,-0.125l0.088,-0.124l0.09,-0.121l0.092,-0.121l0.094,-0.118l0.097,-0.116l0.099,-0.115l0.101,-0.112l0.102,-0.111l0.105,-0.109l0.107,-0.106l0.109,-0.105l0.111,-0.103l0.113,-0.1l0.115,-0.098l0.117,-0.097l0.118,-0.094l0.12,-0.092l0.123,-0.089l0.123,-0.088l0.126,-0.085l0.127,-0.083l0.129,-0.08l0.131,-0.078l0.133,-0.076l0.133,-0.073l0.136,-0.071l0.137,-0.068l0.138,-0.066l0.14,-0.063l0.142,-0.06l0.142,-0.058l0.145,-0.055l0.145,-0.053l0.147,-0.049l0.148,-0.047l0.149,-0.044l0.151,-0.042l0.151,-0.038l0.153,-0.036l0.154,-0.032l0.155,-0.03l0.155,-0.026l0.157,-0.024l0.158,-0.021l0.158,-0.017l0.16,-0.014l0.16,-0.012l0.16,-0.008l0.162,-0.004l0.152,-0.002l12.022,0l0.152,0.002Zm-12.154,3.998l-0.001,0l11.984,0l-0.001,0l-11.982,0Z"/>
        </g>
        <g id="emoji">
            <path d="M21.807,26l0.193,0c2.612,0 4.834,1.669 5.657,4l-23.315,0c0.822,-2.331 3.044,-4 5.656,-4l0.195,0c1.458,1.539 10.156,1.539 11.614,0Z" style="fill:#4a905e;"/>
            <path d="M21.807,26c-1.458,1.539 -3.521,2.5 -5.807,2.5c-2.286,0 -4.349,-0.961 -5.807,-2.5l11.614,0Z" style="fill:#f10dc3;"/>
            <path d="M24,13c0,-4.418 -3.582,-8 -8,-8l0,0c-4.418,0 -8,3.582 -8,8l0,3c0,4.418 3.582,8 8,8l0,0c4.418,0 8,-3.582 8,-8l0,-3Z" style="fill:#f10dc3;"/>
            <path d="M25,9l-4.5,0c-0.828,0 -1.5,0.672 -1.5,1.5c0,0.828 0.672,1.5 1.5,1.5c1.777,0 4.5,0 4.5,0l0,-3Z" style="fill:#a90eb1;"/>
            <path d="M7,9l4.5,0c0.828,0 1.5,0.672 1.5,1.5c0,0.828 -0.672,1.5 -1.5,1.5c-1.777,0 -4.5,0 -4.5,0l0,-3Z" style="fill:#a90eb1;"/>
            <path d="M18,14l2,1.5l2,-1.5" style="fill:none;stroke:#000;stroke-width:2px;stroke-linejoin:miter;"/>
            <path d="M10,14l2,1.5l2,-1.5" style="fill:none;stroke:#000;stroke-width:2px;stroke-linejoin:miter;"/>
            <path d="M6.195,5.222c-0.114,0.454 0.103,0.927 0.522,1.137c1.383,0.691 4.283,2.141 4.283,2.141c0,0 -0.066,0.132 -0.165,0.329c-0.221,0.443 -0.61,0.78 -1.08,0.937c-0.47,0.157 -0.983,0.12 -1.426,-0.101c0,-0.001 0,-0.001 0,-0.001c-0.285,-0.142 -0.623,-0.127 -0.894,0.04c-0.27,0.168 -0.435,0.463 -0.435,0.781c0,2.055 0,5.515 0,5.515l-0.001,0c-1.194,0 -2.254,-0.764 -2.631,-1.897c-0.354,-1.061 -0.779,-2.335 -1.06,-3.179c-0.204,-0.612 -0.308,-1.253 -0.308,-1.898c0,-2.132 0,-7.026 0,-7.026l4,0c0,0 -0.515,2.058 -0.805,3.222Z" style="fill:none;stroke:#000;stroke-width:4px;stroke-linecap:butt;stroke-miterlimit:2;"/>
            <path d="M25.805,5.222c0.114,0.454 -0.103,0.927 -0.522,1.137c-1.383,0.691 -4.283,2.141 -4.283,2.141c0,0 0.066,0.132 0.165,0.329c0.221,0.443 0.61,0.78 1.08,0.937c0.47,0.157 0.983,0.12 1.426,-0.101c0,-0.001 0,-0.001 0,-0.001c0.285,-0.142 0.623,-0.127 0.894,0.04c0.27,0.168 0.435,0.463 0.435,0.781c0,2.055 0,5.515 0,5.515l0.001,0c1.194,0 2.254,-0.764 2.631,-1.897c0.354,-1.061 0.779,-2.335 1.06,-3.179c0.204,-0.612 0.308,-1.253 0.308,-1.898c0,-2.132 0,-7.026 0,-7.026l-4,0c0,0 0.515,2.058 0.805,3.222Z" style="fill:none;stroke:#000;stroke-width:4px;stroke-linecap:butt;stroke-miterlimit:2;"/>
            <path d="M6.015,5.939c-0.01,0.04 -0.028,0.078 -0.053,0.111c-0.001,0.002 -0.002,0.003 -0.003,0.004c-0.424,0.566 -1.164,0.797 -1.835,0.574c-0.671,-0.224 -1.124,-0.852 -1.124,-1.56c0,-1.645 0,-3.068 0,-3.068l4,0c0,0 -0.859,3.437 -0.985,3.939Z" style="fill:none;stroke:#000;stroke-width:4px;stroke-linecap:butt;stroke-linejoin:miter;stroke-miterlimit:3;"/>
            <path d="M25.982,5.929c0.012,0.047 0.02,0.095 0.025,0.143c0.037,0.365 0.205,2.052 0.394,3.936c0.06,0.604 0.535,1.085 1.139,1.152c0.603,0.067 1.172,-0.297 1.364,-0.873c0.001,-0.002 0.002,-0.004 0.003,-0.007c0.061,-0.185 0.093,-0.38 0.093,-0.576c0,-1.446 0,-7.704 0,-7.704l-4,0c0,0 0.849,3.394 0.982,3.929Z" style="fill:none;stroke:#000;stroke-width:4px;stroke-linecap:butt;stroke-linejoin:miter;stroke-miterlimit:3;"/>
            <path d="M6.195,5.222c-0.114,0.454 0.103,0.927 0.522,1.137c1.383,0.691 4.283,2.141 4.283,2.141c0,0 -0.066,0.132 -0.165,0.329c-0.221,0.443 -0.61,0.78 -1.08,0.937c-0.47,0.157 -0.983,0.12 -1.426,-0.101c0,-0.001 0,-0.001 0,-0.001c-0.285,-0.142 -0.623,-0.127 -0.894,0.04c-0.27,0.168 -0.435,0.463 -0.435,0.781c0,2.055 0,5.515 0,5.515l-0.001,0c-1.194,0 -2.254,-0.764 -2.631,-1.897c-0.354,-1.061 -0.779,-2.335 -1.06,-3.179c-0.204,-0.612 -0.308,-1.253 -0.308,-1.898c0,-2.132 0,-7.026 0,-7.026l4,0c0,0 -0.515,2.058 -0.805,3.222Z" style="fill:#808080;"/>
            <clipPath id="_clip2">
                <path d="M6.195,5.222c-0.114,0.454 0.103,0.927 0.522,1.137c1.383,0.691 4.283,2.141 4.283,2.141c0,0 -0.066,0.132 -0.165,0.329c-0.221,0.443 -0.61,0.78 -1.08,0.937c-0.47,0.157 -0.983,0.12 -1.426,-0.101c0,-0.001 0,-0.001 0,-0.001c-0.285,-0.142 -0.623,-0.127 -0.894,0.04c-0.27,0.168 -0.435,0.463 -0.435,0.781c0,2.055 0,5.515 0,5.515l-0.001,0c-1.194,0 -2.254,-0.764 -2.631,-1.897c-0.354,-1.061 -0.779,-2.335 -1.06,-3.179c-0.204,-0.612 -0.308,-1.253 -0.308,-1.898c0,-2.132 0,-7.026 0,-7.026l4,0c0,0 -0.515,2.058 -0.805,3.222Z"/>
            </clipPath>
            <g clip-path="url(#_clip2)">
                <path d="M6.5,18l-2,-8" style="fill:none;stroke:#656565;stroke-width:1px;stroke-linecap:butt;stroke-linejoin:miter;stroke-miterlimit:2;"/>
                <path id="_-Curve-" serif:id="(Curve)" d="M10,9l-8,2l0,-4l8,0l0,2Z" style="fill:#808080;"/>
            </g>
            <path d="M25.805,5.222c0.114,0.454 -0.103,0.927 -0.522,1.137c-1.383,0.691 -4.283,2.141 -4.283,2.141c0,0 0.066,0.132 0.165,0.329c0.221,0.443 0.61,0.78 1.08,0.937c0.47,0.157 0.983,0.12 1.426,-0.101c0,-0.001 0,-0.001 0,-0.001c0.285,-0.142 0.623,-0.127 0.894,0.04c0.27,0.168 0.435,0.463 0.435,0.781c0,2.055 0,5.515 0,5.515l0.001,0c1.194,0 2.254,-0.764 2.631,-1.897c0.354,-1.061 0.779,-2.335 1.06,-3.179c0.204,-0.612 0.308,-1.253 0.308,-1.898c0,-2.132 0,-7.026 0,-7.026l-4,0c0,0 0.515,2.058 0.805,3.222Z" style="fill:#808080;"/>
            <clipPath id="_clip3">
                <path d="M25.805,5.222c0.114,0.454 -0.103,0.927 -0.522,1.137c-1.383,0.691 -4.283,2.141 -4.283,2.141c0,0 0.066,0.132 0.165,0.329c0.221,0.443 0.61,0.78 1.08,0.937c0.47,0.157 0.983,0.12 1.426,-0.101c0,-0.001 0,-0.001 0,-0.001c0.285,-0.142 0.623,-0.127 0.894,0.04c0.27,0.168 0.435,0.463 0.435,0.781c0,2.055 0,5.515 0,5.515l0.001,0c1.194,0 2.254,-0.764 2.631,-1.897c0.354,-1.061 0.779,-2.335 1.06,-3.179c0.204,-0.612 0.308,-1.253 0.308,-1.898c0,-2.132 0,-7.026 0,-7.026l-4,0c0,0 0.515,2.058 0.805,3.222Z"/>
            </clipPath>
            <g clip-path="url(#_clip3)">
                <path d="M25.5,18l2,-8" style="fill:none;stroke:#666;stroke-width:1px;stroke-linecap:butt;stroke-linejoin:miter;stroke-miterlimit:2;"/>
                <path id="_-Curve-1" serif:id="(Curve)" d="M22,9l8,2l0,-4l-8,0l0,2Z" style="fill:#808080;"/>
            </g>
        </g>
    </g>
</svg>
