<?xml version="1.0" encoding="UTF-8" standalone="no"?>
<!DOCTYPE svg PUBLIC "-//W3C//DTD SVG 1.1//EN" "http://www.w3.org/Graphics/SVG/1.1/DTD/svg11.dtd">
<svg width="100%" height="100%" viewBox="0 0 32 32" version="1.1" xmlns="http://www.w3.org/2000/svg" xmlns:xlink="http://www.w3.org/1999/xlink" xml:space="preserve" xmlns:serif="http://www.serif.com/" style="fill-rule:evenodd;clip-rule:evenodd;stroke-linejoin:round;stroke-miterlimit:2;">
    <rect id="no_good" x="0" y="0" width="32" height="32" style="fill:none;"/>
    <clipPath id="_clip1">
        <rect x="0" y="0" width="32" height="32"/>
    </clipPath>
    <g clip-path="url(#_clip1)">
        <g id="outline">
            <path d="M8.005,12.271c-0.002,-0.057 -0.003,-0.114 -0.004,-0.172c-0.005,-0.733 -0.005,-1.465 0,-2.198c0.015,-0.854 0.157,-1.699 0.435,-2.506c0.395,-1.145 1.051,-2.195 1.907,-3.052c0.833,-0.833 1.85,-1.477 2.96,-1.875c0.835,-0.299 1.712,-0.451 2.598,-0.467c0.099,-0.001 0.099,-0.001 0.198,0c0.886,0.016 1.763,0.168 2.598,0.467c1.204,0.431 2.297,1.153 3.166,2.089c0.757,0.815 1.339,1.787 1.701,2.838c0.278,0.807 0.42,1.652 0.435,2.506c0.005,0.733 0.005,1.465 0,2.198c-0.001,0.058 -0.002,0.115 -0.004,0.172c0.015,-0.009 0.031,-0.018 0.047,-0.027c0.205,-0.112 0.43,-0.187 0.661,-0.222c0.103,-0.015 0.129,-0.015 0.232,-0.021c0.117,0 0.117,0 0.234,0.006c0.117,0.013 0.231,0.03 0.345,0.06c0.226,0.06 0.44,0.16 0.632,0.294c0.097,0.067 0.183,0.144 0.268,0.225l1,1c0.071,0.075 0.091,0.093 0.155,0.174c0.097,0.122 0.179,0.256 0.245,0.397c0.231,0.498 0.246,1.081 0.041,1.59c-0.073,0.183 -0.175,0.346 -0.293,0.502l-2.462,3.077c0.121,0.087 0.239,0.178 0.354,0.273c1.112,0.918 1.927,2.177 2.303,3.569c0.162,0.596 0.239,1.209 0.243,1.826l0,7.006l-24,0c0,-2.393 -0.044,-4.787 0.002,-7.18c0.026,-0.818 0.181,-1.632 0.486,-2.393c0.21,-0.523 0.478,-1.021 0.804,-1.481c0.444,-0.623 0.99,-1.171 1.608,-1.619l-2.462,-3.078c-0.062,-0.082 -0.08,-0.102 -0.135,-0.19c-0.082,-0.132 -0.149,-0.274 -0.199,-0.422c-0.175,-0.52 -0.125,-1.101 0.135,-1.584c0.093,-0.174 0.212,-0.324 0.347,-0.467l1,-1c0.085,-0.081 0.171,-0.158 0.268,-0.225c0.192,-0.134 0.406,-0.234 0.632,-0.294c0.114,-0.03 0.228,-0.047 0.345,-0.06c0.117,-0.006 0.117,-0.006 0.234,-0.006c0.103,0.006 0.129,0.006 0.232,0.021c0.231,0.035 0.456,0.11 0.661,0.222c0.016,0.009 0.032,0.018 0.047,0.027Z"/>
        </g>
        <g id="emoji">
            <path d="M8.57,20.629c0.104,0.124 4.518,2.58 4.518,2.58l-1.399,6.791l-5.689,0l0,-5c0,-1.88 1.037,-3.517 2.57,-4.371Zm9.309,9.371l-3.758,0l1.879,-4.879l1.879,4.879Zm5.542,-9.376c1.538,0.853 2.579,2.493 2.579,4.376l0,5l-4.939,0l-2.149,-6.791l4.509,-2.585Z" style="fill:#4a905e;"/>
            <path d="M8.57,20.629c0.72,-0.401 1.548,-0.629 2.43,-0.629l10,0c0.878,0 1.704,0.227 2.421,0.624l-0.25,0.313c-0.053,0.063 -0.053,0.063 -0.11,0.124l-2.149,2.148l2.025,1.62l-1.874,2.342l-0.002,2.829l-3.182,0l-1.879,-1.879l-1.879,1.879l-2.432,0l-0.752,-2.829l-1.874,-2.342l2.025,-1.62l-2.149,-2.148l-0.057,-0.061c-0.104,-0.123 -0.208,-0.247 -0.312,-0.371Z" style="fill:#14300e;"/>
            <path d="M12.155,24.276l2.845,-0.276l-0.061,3.061l-2.939,2.939l-2,0l0,-4l2.155,-1.724Zm5.046,-4.036l2.799,-2.24l5,-4l1,1l-4,5l-2.266,2.266l-2.533,-0.106l0,-1.92Z" style="fill:#f10dc3;"/>
            <path d="M19.734,22.266l-4.795,4.795l-2.784,-2.785l5.046,-4.036l2.533,2.026Z" style="fill:#640082;"/>
            <path d="M22,26l0,4l-2,0l-10,-10l-4,-5l1,-1l15,12Z" style="fill:#f10dc3;"/>
            <path d="M22,10c0,-1.591 -0.632,-3.117 -1.757,-4.243c-1.126,-1.125 -2.652,-1.757 -4.243,-1.757c0,0 0,0 0,0c-1.591,0 -3.117,0.632 -4.243,1.757c-1.125,1.126 -1.757,2.652 -1.757,4.243c0,0.663 0,1.337 0,2c0,1.591 0.632,3.117 1.757,4.243c1.126,1.125 2.652,1.757 4.243,1.757c0,0 0,0 0,0c1.591,0 3.117,-0.632 4.243,-1.757c1.125,-1.126 1.757,-2.652 1.757,-4.243c0,-0.663 0,-1.337 0,-2Z" style="fill:#f10dc3;"/>
            <clipPath id="_clip2">
                <path d="M22,10c0,-1.591 -0.632,-3.117 -1.757,-4.243c-1.126,-1.125 -2.652,-1.757 -4.243,-1.757c0,0 0,0 0,0c-1.591,0 -3.117,0.632 -4.243,1.757c-1.125,1.126 -1.757,2.652 -1.757,4.243c0,0.663 0,1.337 0,2c0,1.591 0.632,3.117 1.757,4.243c1.126,1.125 2.652,1.757 4.243,1.757c0,0 0,0 0,0c1.591,0 3.117,-0.632 4.243,-1.757c1.125,-1.126 1.757,-2.652 1.757,-4.243c0,-0.663 0,-1.337 0,-2Z"/>
            </clipPath>
            <g clip-path="url(#_clip2)">
                <path d="M20.041,9.001c0.141,0.008 0.278,0.041 0.405,0.104c0.109,0.054 0.207,0.128 0.29,0.218c0.244,0.265 0.327,0.651 0.213,0.993c-0.033,0.098 -0.081,0.19 -0.141,0.273c-0.089,0.122 -0.204,0.22 -0.336,0.293c-0.687,0.355 -1.37,0.72 -2.076,1.036c-0.13,0.054 -0.268,0.084 -0.409,0.082c-0.131,-0.002 -0.262,-0.03 -0.382,-0.081c-0.112,-0.048 -0.214,-0.117 -0.302,-0.201c-0.073,-0.072 -0.136,-0.155 -0.185,-0.246c-0.179,-0.335 -0.15,-0.754 0.074,-1.061c0.089,-0.122 0.204,-0.22 0.336,-0.293c0.687,-0.355 1.37,-0.72 2.076,-1.036c0.087,-0.036 0.176,-0.061 0.269,-0.074c0.056,-0.006 0.112,-0.009 0.168,-0.007Zm-8.026,-0.001c0.142,0.004 0.277,0.035 0.407,0.093c0.696,0.336 1.398,0.664 2.075,1.039c0.121,0.072 0.227,0.164 0.311,0.279c0.077,0.105 0.133,0.226 0.164,0.354c0.029,0.118 0.035,0.241 0.02,0.362c-0.013,0.102 -0.042,0.202 -0.085,0.295c-0.161,0.345 -0.514,0.573 -0.894,0.578c-0.151,0.002 -0.298,-0.032 -0.435,-0.093c-0.696,-0.336 -1.398,-0.664 -2.075,-1.039c-0.121,-0.072 -0.227,-0.164 -0.311,-0.279c-0.206,-0.283 -0.249,-0.663 -0.11,-0.985c0.037,-0.086 0.086,-0.167 0.146,-0.239c0.077,-0.094 0.171,-0.174 0.277,-0.234c0.123,-0.07 0.258,-0.111 0.398,-0.126c0.037,-0.003 0.074,-0.005 0.112,-0.005Z"/>
            </g>
        </g>
    </g>
</svg>
