<?xml version="1.0" encoding="UTF-8" standalone="no"?>
<!DOCTYPE svg PUBLIC "-//W3C//DTD SVG 1.1//EN" "http://www.w3.org/Graphics/SVG/1.1/DTD/svg11.dtd">
<svg width="100%" height="100%" viewBox="0 0 32 32" version="1.1" xmlns="http://www.w3.org/2000/svg" xmlns:xlink="http://www.w3.org/1999/xlink" xml:space="preserve" xmlns:serif="http://www.serif.com/" style="fill-rule:evenodd;clip-rule:evenodd;stroke-linecap:round;stroke-linejoin:round;stroke-miterlimit:1.5;">
    <rect id="raising_hand" x="0" y="0" width="32" height="32" style="fill:none;"/>
    <clipPath id="_clip1">
        <rect x="0" y="0" width="32" height="32"/>
    </clipPath>
    <g clip-path="url(#_clip1)">
        <g id="outline">
            <path d="M7.153,1.003l0.151,0.012l0.15,0.019l0.149,0.026l0.145,0.034l0.143,0.041l0.14,0.047l0.138,0.054l0.133,0.06l0.129,0.067l0.126,0.072l0.122,0.078l0.117,0.084l0.113,0.088l0.109,0.094l0.104,0.099l0.099,0.104l0.094,0.109l0.089,0.113l0.083,0.117l0.078,0.122l0.072,0.125l0.067,0.13l0.06,0.134l0.054,0.137l0.047,0.14l0.041,0.143l0.034,0.146l0.026,0.147l0.019,0.151l0.012,0.152l0.003,0.127l0,4.05l-0.003,0.124l-0.011,0.147l-0.018,0.147l-0.026,0.145l-0.032,0.143l-0.039,0.142l-0.046,0.139l-0.053,0.136l-0.059,0.134l-0.066,0.131l-0.072,0.128l-0.078,0.124l-0.085,0.12l-0.091,0.117l-0.097,0.112l-0.089,0.093l0.764,6.872l4.825,4.021l8.288,0l0.112,0.001l0.124,0.005l0.123,0.008l0.123,0.01l0.122,0.014l0.122,0.017l0.122,0.019l0.12,0.023l0.12,0.025l0.119,0.029l0.118,0.031l0.117,0.034l0.117,0.037l0.115,0.04l0.114,0.042l0.113,0.045l0.113,0.049l0.11,0.05l0.11,0.054l0.109,0.056l0.107,0.059l0.105,0.061l0.104,0.064l0.103,0.067l0.101,0.069l0.1,0.072l0.098,0.074l0.096,0.077l0.094,0.08l0.093,0.082l0.091,0.084l0.089,0.086l0.086,0.089l0.084,0.091l0.082,0.093l0.08,0.094l0.077,0.096l0.074,0.098l0.072,0.1l0.069,0.101l0.067,0.103l0.064,0.104l0.061,0.105l0.059,0.108l0.056,0.108l0.054,0.11l0.05,0.11l0.049,0.113l0.045,0.113l0.042,0.114l0.04,0.116l0.037,0.116l0.034,0.117l0.031,0.118l0.029,0.119l0.025,0.12l0.023,0.121l0.019,0.121l0.017,0.121l0.014,0.123l0.01,0.123l0.008,0.123l0.005,0.124l0.001,0.112l0,6.012l-17.149,0l-7.174,-12.299l-0.037,-0.065l-0.04,-0.072l-0.039,-0.073l-0.037,-0.074l-0.036,-0.074l-0.035,-0.075l-0.034,-0.075l-0.033,-0.076l-0.031,-0.077l-0.03,-0.077l-0.028,-0.077l-0.027,-0.077l-0.027,-0.079l-0.024,-0.078l-0.024,-0.079l-0.022,-0.079l-0.021,-0.08l-0.019,-0.079l-0.018,-0.081l-0.017,-0.081l-0.016,-0.08l-0.014,-0.081l-0.013,-0.082l-0.011,-0.082l-0.011,-0.081l-0.008,-0.082l-0.008,-0.082l-0.006,-0.083l-0.005,-0.083l-0.003,-0.082l-0.002,-0.083l-0.001,-0.075l0,-13.222l0.003,-0.128l0.012,-0.151l0.019,-0.15l0.026,-0.148l0.034,-0.146l0.041,-0.144l0.047,-0.139l0.054,-0.137l0.06,-0.134l0.067,-0.129l0.072,-0.126l0.078,-0.122l0.083,-0.117l0.089,-0.113l0.094,-0.109l0.099,-0.104l0.104,-0.099l0.109,-0.094l0.112,-0.088l0.118,-0.084l0.122,-0.078l0.125,-0.072l0.13,-0.067l0.133,-0.06l0.137,-0.054l0.141,-0.047l0.143,-0.041l0.145,-0.034l0.149,-0.026l0.15,-0.019l0.151,-0.012l0.128,-0.003l1.05,0l0.128,0.003Zm5.996,26.997l10.851,0l0,-1.988l0,-0.037l-0.001,-0.025l-0.002,-0.024l-0.002,-0.025l-0.003,-0.024l-0.003,-0.025l-0.004,-0.024l-0.005,-0.024l-0.005,-0.024l-0.005,-0.024l-0.007,-0.023l-0.006,-0.024l-0.008,-0.023l-0.008,-0.023l-0.008,-0.023l-0.009,-0.023l-0.01,-0.022l-0.01,-0.022l-0.011,-0.022l-0.011,-0.022l-0.012,-0.021l-0.012,-0.021l-0.013,-0.021l-0.013,-0.021l-0.014,-0.02l-0.014,-0.02l-0.015,-0.02l-0.016,-0.019l-0.015,-0.018l-0.017,-0.019l-0.017,-0.018l-0.017,-0.018l-0.018,-0.017l-0.018,-0.017l-0.018,-0.017l-0.019,-0.015l-0.02,-0.016l-0.019,-0.015l-0.02,-0.014l-0.02,-0.014l-0.021,-0.013l-0.02,-0.013l-0.022,-0.012l-0.021,-0.012l-0.022,-0.011l-0.022,-0.011l-0.022,-0.01l-0.022,-0.01l-0.023,-0.009l-0.023,-0.008l-0.023,-0.008l-0.023,-0.008l-0.024,-0.006l-0.023,-0.007l-0.024,-0.005l-0.024,-0.005l-0.024,-0.005l-0.024,-0.004l-0.025,-0.003l-0.024,-0.003l-0.025,-0.002l-0.024,-0.002l-0.025,-0.001l-0.037,0l-9.712,0l-3.653,-3.044l3.526,6.044Z"/>
            <path d="M24,14c0,-2.761 -2.239,-5 -5,-5c0,0 0,0 0,0c-2.761,0 -5,2.239 -5,5c0,0.661 0,1.339 0,2c0,2.761 2.239,5 5,5c0,0 0,0 0,0c2.761,0 5,-2.239 5,-5c0,-0.661 0,-1.339 0,-2Z" style="fill:none;stroke:#000;stroke-width:4px;"/>
        </g>
        <g id="emoji">
            <g>
                <path d="M23,23c0.796,0 1.559,0.316 2.121,0.879c0.563,0.562 0.879,1.325 0.879,2.121l0,4l-14,0c0,0 -5.095,-8.734 -6.591,-11.299c-0.129,-0.221 -0.229,-0.457 -0.297,-0.701l0.297,-1l1.591,0l1,1l6,5l1.536,0c0.692,1.195 6.236,1.195 6.928,0l0.536,0Z" style="fill:#4a905e;"/>
                <path d="M5.112,18c-0.074,-0.263 -0.112,-0.536 -0.112,-0.811c0,-2.213 0,-8.189 0,-8.189l0,-5c0,-0.552 0.448,-1 1,-1c0.322,0 0.678,0 1,0c0.552,0 1,0.448 1,1c0,1.11 0,2.89 0,4c0,0.265 -0.105,0.52 -0.293,0.707c-0.187,0.188 -0.442,0.293 -0.707,0.293c0,0 0,0 0,0l1,9l-2.888,0Z" style="fill:#f10dc3;"/>
                <path d="M15.536,23l6.928,0c-0.692,1.195 -1.985,2 -3.464,2c-1.479,0 -2.772,-0.805 -3.464,-2Z" style="fill:#f10dc3;"/>
            </g>
            <path d="M24,14c0,-2.761 -2.239,-5 -5,-5c0,0 0,0 0,0c-2.761,0 -5,2.239 -5,5c0,0.661 0,1.339 0,2c0,2.761 2.239,5 5,5c0,0 0,0 0,0c2.761,0 5,-2.239 5,-5c0,-0.661 0,-1.339 0,-2Z" style="fill:#f10dc3;"/>
            <clipPath id="_clip2">
                <path d="M24,14c0,-2.761 -2.239,-5 -5,-5c0,0 0,0 0,0c-2.761,0 -5,2.239 -5,5c0,0.661 0,1.339 0,2c0,2.761 2.239,5 5,5c0,0 0,0 0,0c2.761,0 5,-2.239 5,-5c0,-0.661 0,-1.339 0,-2Z"/>
            </clipPath>
            <g clip-path="url(#_clip2)">
                <path d="M22.02,13c0.113,0.004 0.224,0.024 0.33,0.063c0.276,0.103 0.496,0.328 0.593,0.605c0.036,0.101 0.054,0.206 0.057,0.312c0.003,0.366 0.022,0.734 -0.003,1.099c-0.013,0.14 -0.051,0.275 -0.118,0.398c-0.06,0.111 -0.141,0.21 -0.238,0.29c-0.092,0.077 -0.197,0.137 -0.309,0.176c-0.107,0.038 -0.219,0.057 -0.332,0.057c-0.391,0 -0.755,-0.237 -0.914,-0.594c-0.054,-0.122 -0.082,-0.253 -0.086,-0.386c-0.003,-0.366 -0.022,-0.734 0.003,-1.099c0.009,-0.1 0.031,-0.197 0.068,-0.29c0.095,-0.242 0.286,-0.44 0.523,-0.545c0.098,-0.043 0.201,-0.069 0.307,-0.081c0.039,-0.004 0.079,-0.005 0.119,-0.005Zm-6,0c0.113,0.004 0.224,0.024 0.33,0.063c0.276,0.103 0.496,0.328 0.593,0.605c0.036,0.101 0.054,0.206 0.057,0.312c0.003,0.366 0.022,0.734 -0.003,1.099c-0.013,0.14 -0.051,0.275 -0.118,0.398c-0.06,0.111 -0.141,0.21 -0.238,0.29c-0.092,0.077 -0.197,0.137 -0.309,0.176c-0.107,0.038 -0.219,0.057 -0.332,0.057c-0.391,0 -0.755,-0.237 -0.914,-0.594c-0.054,-0.122 -0.082,-0.253 -0.086,-0.386c-0.003,-0.366 -0.022,-0.734 0.003,-1.099c0.009,-0.1 0.031,-0.197 0.068,-0.29c0.095,-0.242 0.286,-0.44 0.523,-0.545c0.098,-0.043 0.201,-0.069 0.307,-0.081c0.039,-0.004 0.079,-0.005 0.119,-0.005Z"/>
            </g>
        </g>
    </g>
</svg>
