<?xml version="1.0" encoding="UTF-8" standalone="no"?>
<!DOCTYPE svg PUBLIC "-//W3C//DTD SVG 1.1//EN" "http://www.w3.org/Graphics/SVG/1.1/DTD/svg11.dtd">
<svg width="100%" height="100%" viewBox="0 0 32 32" version="1.1" xmlns="http://www.w3.org/2000/svg" xmlns:xlink="http://www.w3.org/1999/xlink" xml:space="preserve" xmlns:serif="http://www.serif.com/" style="fill-rule:evenodd;clip-rule:evenodd;stroke-linejoin:round;stroke-miterlimit:2;">
    <rect id="shrug" x="0" y="0" width="32" height="32" style="fill:none;"/>
    <g id="outline">
        <path d="M8.991,12c-0.001,-0.697 0.005,-1.393 0.01,-2.09c0.015,-0.819 0.163,-1.63 0.454,-2.397c0.291,-0.765 0.717,-1.476 1.252,-2.095c0.662,-0.764 1.49,-1.382 2.411,-1.799c0.578,-0.261 1.192,-0.443 1.819,-0.538c0.292,-0.045 0.587,-0.069 0.883,-0.079c0.09,-0.001 0.18,-0.002 0.27,-0.001c0.848,0.016 1.694,0.171 2.483,0.487c0.523,0.21 1.021,0.477 1.481,0.804c1.007,0.717 1.818,1.7 2.327,2.827c0.249,0.551 0.426,1.134 0.525,1.731c0.053,0.321 0.081,0.645 0.092,0.97c0.013,0.727 0.013,1.453 0.009,2.18l1.53,0c0.035,-0.02 0.07,-0.039 0.105,-0.057l5.512,-2.756l0.846,0.522l0,3.573c-0.005,0.275 -0.03,0.547 -0.088,0.817c-0.162,0.762 -0.55,1.469 -1.106,2.016c-0.232,0.229 -0.492,0.421 -0.769,0.592l-0.037,0.021c0,2.117 0.021,4.235 -0.001,6.353c-0.002,0.079 -0.006,0.159 -0.012,0.238c-0.047,0.522 -0.184,1.028 -0.422,1.495c-0.162,0.32 -0.368,0.618 -0.61,0.883c-0.279,0.306 -0.606,0.567 -0.965,0.773c-0.777,0.446 -1.698,0.619 -2.584,0.486c-0.497,-0.075 -0.969,-0.245 -1.406,-0.492l0,5.536l-14,0l0,-5.536l-0.099,0.056l-0.137,0.071c-0.14,0.065 -0.28,0.127 -0.425,0.179c-0.29,0.103 -0.592,0.172 -0.898,0.206c-0.891,0.1 -1.805,-0.11 -2.564,-0.586c-0.35,-0.219 -0.666,-0.493 -0.933,-0.809c-0.264,-0.312 -0.475,-0.662 -0.635,-1.038c-0.197,-0.463 -0.293,-0.961 -0.308,-1.462l-0.001,-0.071l0,-6.282c-0.078,-0.044 -0.076,-0.045 -0.156,-0.095c-0.271,-0.18 -0.523,-0.38 -0.746,-0.616c-0.505,-0.532 -0.857,-1.201 -1.01,-1.918c-0.058,-0.27 -0.083,-0.542 -0.088,-0.818l0,-3.572l0.846,-0.522l5.511,2.756c0.036,0.018 0.071,0.037 0.106,0.057l1.528,0Z"/>
    </g>
    <g id="emoji">
        <path d="M7,21l1.447,-2.894c0.339,-0.678 1.032,-1.106 1.789,-1.106c2.654,0 8.874,0 11.528,0c0.757,0 1.45,0.428 1.789,1.106c0.592,1.183 1.447,2.894 1.447,2.894l1,1l0,2l-1,1c-0.618,0 -1.215,-0.287 -1.6,-0.8c-1.275,-1.701 -2.4,-3.2 -2.4,-3.2l0,9l-10,0l0,-9c0,0 -1.125,1.499 -2.4,3.2c-0.385,0.513 -0.982,0.8 -1.6,0.8l-1,-1l0,-2l1,-1Z" style="fill:#4a905e;"/>
        <clipPath id="_clip1">
            <path d="M7,21l1.447,-2.894c0.339,-0.678 1.032,-1.106 1.789,-1.106c2.654,0 8.874,0 11.528,0c0.757,0 1.45,0.428 1.789,1.106c0.592,1.183 1.447,2.894 1.447,2.894l1,1l0,2l-1,1c-0.618,0 -1.215,-0.287 -1.6,-0.8c-1.275,-1.701 -2.4,-3.2 -2.4,-3.2l0,9l-10,0l0,-9c0,0 -1.125,1.499 -2.4,3.2c-0.385,0.513 -0.982,0.8 -1.6,0.8l-1,-1l0,-2l1,-1Z"/>
        </clipPath>
        <g clip-path="url(#_clip1)">
            <path d="M24.072,14.003c0.114,0.011 0.223,0.035 0.327,0.08c0.253,0.11 0.453,0.325 0.544,0.585c0.033,0.092 0.049,0.187 0.056,0.284c0.049,2.031 0.049,4.065 0,6.096c-0.012,0.163 -0.054,0.318 -0.137,0.459c-0.191,0.325 -0.559,0.518 -0.934,0.49c-0.097,-0.007 -0.192,-0.028 -0.283,-0.062c-0.105,-0.04 -0.204,-0.098 -0.29,-0.171c-0.098,-0.083 -0.181,-0.185 -0.24,-0.299c-0.069,-0.131 -0.103,-0.271 -0.114,-0.417c-0.049,-2.031 -0.049,-4.065 0,-6.096c0.008,-0.114 0.03,-0.223 0.073,-0.329c0.104,-0.256 0.314,-0.46 0.571,-0.558c0.092,-0.035 0.186,-0.053 0.283,-0.062c0.048,-0.003 0.096,-0.003 0.144,0Zm-16,0c0.114,0.011 0.223,0.035 0.327,0.08c0.253,0.11 0.453,0.325 0.544,0.585c0.033,0.092 0.049,0.187 0.056,0.284c0.049,2.031 0.049,4.065 0,6.096c-0.012,0.163 -0.054,0.318 -0.137,0.459c-0.049,0.083 -0.11,0.159 -0.181,0.225c-0.276,0.257 -0.684,0.337 -1.036,0.203c-0.105,-0.04 -0.204,-0.098 -0.29,-0.171c-0.098,-0.083 -0.181,-0.185 -0.24,-0.299c-0.069,-0.131 -0.103,-0.271 -0.114,-0.417c-0.049,-2.031 -0.049,-4.065 0,-6.096c0.007,-0.097 0.023,-0.192 0.056,-0.284c0.091,-0.26 0.291,-0.475 0.544,-0.585c0.104,-0.045 0.213,-0.069 0.327,-0.08c0.048,-0.003 0.096,-0.003 0.144,0Z" style="fill:#2f7827;"/>
            <path d="M9.002,13.18c-0.02,-1.09 14.005,-1.18 13.997,-0.09c-0.005,0.268 -0.021,0.534 -0.055,0.799c-0.088,0.688 -0.278,1.361 -0.563,1.992c-0.347,0.769 -0.835,1.473 -1.431,2.069c-0.516,0.516 -1.112,0.951 -1.762,1.283c-0.587,0.301 -1.217,0.518 -1.865,0.642c-1.355,0.259 -2.778,0.112 -4.048,-0.426c-0.623,-0.263 -1.207,-0.618 -1.729,-1.048c-0.735,-0.607 -1.345,-1.364 -1.779,-2.213c-0.328,-0.639 -0.555,-1.329 -0.673,-2.038c-0.053,-0.321 -0.081,-0.645 -0.092,-0.97Z" style="fill:#14300e;fill-rule:nonzero;"/>
            <circle cx="16" cy="16" r="4" style="fill:#640082;"/>
        </g>
        <path d="M7,25c-0.211,0 -0.424,-0.033 -0.632,-0.103c-0.817,-0.272 -1.368,-1.036 -1.368,-1.897c0,-3.605 0,-7.5 0,-7.5c0,0 -0.432,-0.216 -0.894,-0.447c-0.678,-0.339 -1.106,-1.032 -1.106,-1.789c0,-0.63 0,-1.264 0,-1.264c0,0 2.35,1.175 3.447,1.724c0.339,0.169 0.553,0.515 0.553,0.894l0,10.382Zm18,-4l0,-6.382c0,-0.379 0.214,-0.725 0.553,-0.894c1.097,-0.549 3.447,-1.724 3.447,-1.724l0,1.264c0,0.757 -0.428,1.45 -1.106,1.789c-0.462,0.231 -0.894,0.447 -0.894,0.447l0,7.5c0,0.861 -0.551,1.625 -1.368,1.897c-0.208,0.07 -0.421,0.103 -0.632,0.103l0,-4Z" style="fill:#f10dc3;"/>
        <path d="M21,10c0,-2.761 -2.239,-5 -5,-5c0,0 0,0 0,0c-2.761,0 -5,2.239 -5,5c0,0.984 0,2.016 0,3c0,2.761 2.239,5 5,5c0,0 0,0 0,0c2.761,0 5,-2.239 5,-5c0,-0.984 0,-2.016 0,-3Z" style="fill:#f10dc3;"/>
        <clipPath id="_clip2">
            <path d="M21,10c0,-2.761 -2.239,-5 -5,-5c0,0 0,0 0,0c-2.761,0 -5,2.239 -5,5c0,0.984 0,2.016 0,3c0,2.761 2.239,5 5,5c0,0 0,0 0,0c2.761,0 5,-2.239 5,-5c0,-0.984 0,-2.016 0,-3Z"/>
        </clipPath>
        <g clip-path="url(#_clip2)">
            <path d="M15.835,16l-2.835,0l0,-2c0.968,0 1.936,0.011 2.904,-0.001c0.175,-0.007 0.348,-0.024 0.519,-0.058c0.388,-0.077 0.76,-0.232 1.089,-0.451c0.169,-0.112 0.322,-0.242 0.467,-0.383l0.814,-0.814c0.471,0.471 0.943,0.943 1.414,1.414l-0.822,0.823c-0.088,0.085 -0.087,0.084 -0.177,0.167c-0.248,0.22 -0.51,0.419 -0.794,0.589c-0.564,0.337 -1.193,0.562 -1.842,0.659c-0.245,0.036 -0.49,0.052 -0.737,0.055Zm-0.691,-3.947l-1.788,0.894l-1.75,-3.5l1.788,-0.894c0.584,1.166 1.167,2.333 1.75,3.5Zm4,-1l-1.788,0.894l-1.75,-3.5l1.788,-0.894c0.584,1.166 1.167,2.333 1.75,3.5Z"/>
        </g>
    </g>
</svg>
