<?xml version="1.0" encoding="UTF-8" standalone="no"?><!DOCTYPE svg PUBLIC "-//W3C//DTD SVG 1.1//EN" "http://www.w3.org/Graphics/SVG/1.1/DTD/svg11.dtd"><svg width="100%" height="100%" viewBox="0 0 32 32" version="1.1" xmlns="http://www.w3.org/2000/svg" xmlns:xlink="http://www.w3.org/1999/xlink" xml:space="preserve" xmlns:serif="http://www.serif.com/" style="fill-rule:evenodd;clip-rule:evenodd;stroke-linecap:round;stroke-linejoin:round;stroke-miterlimit:1.5;"><rect id="microscope" x="0" y="0" width="32" height="32" style="fill:none;"/><clipPath id="_clip1"><rect x="0" y="0" width="32" height="32"/></clipPath><g clip-path="url(#_clip1)"><g id="outline"><path d="M12,6l1,0l4,-4l3,3l-4,4l0,1l2,0c4.418,0 8,3.582 8,8l0,12l-20,0c0,0 0,0 0,0c0,-2.034 1.518,-3.714 3.483,-3.967l1.517,-3.033l3,0l1.5,3l0.5,0c0.338,0 0.673,-0.034 1,-0.101l0,-3.899l-9,0l0,-2l13,0l0,-2c0,-1.591 -0.632,-3.117 -1.757,-4.243c-0.887,-0.886 -2.023,-1.467 -3.243,-1.673l0,1.166l-7,1.75c0,0 -0.287,-0.573 -0.553,-1.106c-0.294,-0.588 -0.447,-1.236 -0.447,-1.894c0,0 0,0 0,0c0,0 0,-1.5 0,-3c0,-0.796 0.316,-1.559 0.879,-2.121c0.562,-0.563 1.325,-0.879 2.121,-0.879l1,0Zm-1,9l2,0l0,4l-2,0l0,-4Zm3,0l2,-1l1,2l-2,1l-1,-2Z" style="fill:none;stroke:#000;stroke-width:4px;"/></g><g id="emoji"><path d="M9,27l2,-4l3,0l2,4l-7,0Z" style="fill:#4d4d4d;"/><path d="M17,22l-9,0l0,-2l9,0l1,1l-1,1Z" style="fill:#4d4d4d;"/><rect x="17" y="20" width="7" height="7" style="fill:#999;"/><path d="M8,12c0,0 0,0 0,0c0,0.658 0.153,1.306 0.447,1.894c0.266,0.533 0.553,1.106 0.553,1.106l7,-1.75l0,-1.25l-1,-1l-6,0l-1,1Z" style="fill:#4d4d4d;"/><path d="M12,6l1,0l4,-4l3,3l-4,4l0,1l-4,0l0,-4Z" style="fill:#4d4d4d;"/><path d="M15,12l-7,0c0,0 0,-1.5 0,-3c0,-0.796 0.316,-1.559 0.879,-2.121c0.562,-0.563 1.325,-0.879 2.121,-0.879c0.574,0 1,0 1,0l4,4l2,0c4.418,0 8,3.582 8,8l0,12l-20,0c0,0 0,0 0,0c0,-2.209 1.791,-4 4,-4c1.843,0 4.049,0 6,0c1.326,0 2.598,-0.527 3.536,-1.464c0.937,-0.938 1.464,-2.21 1.464,-3.536c0,-0.972 0,-2 0,-3c0,-1.591 -0.632,-3.117 -1.757,-4.243c-1.126,-1.125 -2.652,-1.757 -4.243,-1.757Z" style="fill:#fff;"/><circle cx="22" cy="25" r="3" style="fill:#4d4d4d;"/><rect x="11" y="15" width="2" height="4" style="fill:#999;"/><path d="M14,15l2,-1l1,2l-2,1l-1,-2Z" style="fill:#999;"/><path d="M17.182,14.978l-7,1.75l-0.364,-1.456l7,-1.75l0.364,1.456Z" style="fill:#4d4d4d;fill-rule:nonzero;"/></g></g></svg>