<?xml version="1.0" encoding="UTF-8" standalone="no"?><!DOCTYPE svg PUBLIC "-//W3C//DTD SVG 1.1//EN" "http://www.w3.org/Graphics/SVG/1.1/DTD/svg11.dtd"><svg width="100%" height="100%" viewBox="0 0 32 32" version="1.1" xmlns="http://www.w3.org/2000/svg" xmlns:xlink="http://www.w3.org/1999/xlink" xml:space="preserve" xmlns:serif="http://www.serif.com/" style="fill-rule:evenodd;clip-rule:evenodd;stroke-linecap:round;stroke-linejoin:round;stroke-miterlimit:1.5;"><path id="eye_speech_bubble" d="M0,0l0,32l32,0l0,-32l-32,0Z" style="fill:none;"/><clipPath id="_clip1"><path d="M0,0l0,32l32,0l0,-32l-32,0Z"/></clipPath><g clip-path="url(#_clip1)"><g id="outline"><path d="M2.001,12.998c2.974,-4.886 8.28,-7.867 13.999,-7.867c5.719,0 11.025,2.981 13.999,7.867l0.001,0.002l0,2c0,0 0,0.001 -0.001,0.002c-1.284,2.109 -3.001,3.862 -4.999,5.175l0,7.823l-5.507,-5.507c-1.135,0.248 -2.305,0.376 -3.493,0.376c-5.719,0 -11.025,-2.981 -13.999,-7.867c-0.001,-0.001 -0.001,-0.002 -0.001,-0.002l0,-2l0.001,-0.002Z" style="fill:none;stroke:#000;stroke-width:4px;"/></g><g id="emoji"><path d="M19.493,22.493c-1.135,0.248 -2.305,0.376 -3.493,0.376c-5.719,0 -11.025,-2.981 -13.999,-7.867c-0.001,-0.001 -0.001,-0.002 -0.001,-0.002l0,-2l28,0l0,2c0,0 0,0.001 -0.001,0.002c-1.284,2.109 -3.001,3.862 -4.999,5.175l0,7.823l-5.507,-5.507Z" style="fill:#747474;"/><path d="M20.296,20.296c-1.383,0.376 -2.826,0.573 -4.296,0.573c-5.719,0 -11.025,-2.981 -13.999,-7.867c-0.001,-0.001 -0.001,-0.002 -0.001,-0.002c0,0 0,-0.001 0.001,-0.002c2.974,-4.886 8.28,-7.867 13.999,-7.867c5.719,0 11.025,2.981 13.999,7.867c0.001,0.001 0.001,0.002 0.001,0.002c0,0 0,0.001 -0.001,0.002c-1.284,2.109 -3.001,3.862 -4.999,5.175l0,6.823l-4.704,-4.704Z" style="fill:#fff;"/><circle cx="16" cy="13" r="6" style="fill:#585858;"/><circle cx="16" cy="13" r="3"/><circle cx="18" cy="11" r="2" style="fill:#fff;fill-opacity:0.309804;"/></g></g></svg>