<?xml version="1.0" encoding="UTF-8" standalone="no"?><!DOCTYPE svg PUBLIC "-//W3C//DTD SVG 1.1//EN" "http://www.w3.org/Graphics/SVG/1.1/DTD/svg11.dtd"><svg width="100%" height="100%" viewBox="0 0 32 32" version="1.1" xmlns="http://www.w3.org/2000/svg" xmlns:xlink="http://www.w3.org/1999/xlink" xml:space="preserve" xmlns:serif="http://www.serif.com/" style="fill-rule:evenodd;clip-rule:evenodd;stroke-linecap:round;stroke-linejoin:round;stroke-miterlimit:1.5;"><path id="speaker_low_volume" d="M0,0l0,32l32,0l0,-32l-32,0Z" style="fill:none;"/><clipPath id="_clip1"><path d="M0,0l0,32l32,0l0,-32l-32,0Z"/></clipPath><g clip-path="url(#_clip1)"><g id="outline"><path d="M22.48,21.48c1.453,-1.453 2.27,-3.425 2.27,-5.48c0,-2.055 -0.817,-4.027 -2.27,-5.48l-5.48,5.48l5.48,5.48Z" style="stroke:#000;stroke-width:4px;"/><path d="M6,12l0,8l6,0l6,6l0,-20l-6,6l-6,0Z" style="fill:none;stroke:#000;stroke-width:4px;"/></g><g id="emoji"><path d="M17,16l16,-16l2,0l0,32l-2,0l-16,-16Z" style="fill:none;"/><clipPath id="_clip2"><path d="M17,16l16,-16l2,0l0,32l-2,0l-16,-16Z"/></clipPath><g clip-path="url(#_clip2)"><circle cx="17" cy="16" r="6.5" style="fill:none;stroke:#e6e6e6;stroke-width:2.5px;"/></g><g><path d="M18,22l-6,-3l-6,-1l0,-6l6,0l6,-6l0,16Z" style="fill:#666;"/><path d="M6,18l7.172,0c0.53,0 1.039,0.211 1.414,0.586l3.414,3.414l0,4l-6,-6l-6,0l0,-2Z" style="fill:#515151;"/></g></g></g></svg>