<?xml version="1.0" encoding="UTF-8" standalone="no"?><!DOCTYPE svg PUBLIC "-//W3C//DTD SVG 1.1//EN" "http://www.w3.org/Graphics/SVG/1.1/DTD/svg11.dtd"><svg width="100%" height="100%" viewBox="0 0 32 32" version="1.1" xmlns="http://www.w3.org/2000/svg" xmlns:xlink="http://www.w3.org/1999/xlink" xml:space="preserve" xmlns:serif="http://www.serif.com/" style="fill-rule:evenodd;clip-rule:evenodd;stroke-linecap:round;stroke-linejoin:round;stroke-miterlimit:1.5;"><path id="speaker_muted" d="M0,0l0,32l32,0l0,-32l-32,0Z" style="fill:none;"/><clipPath id="_clip1"><path d="M0,0l0,32l32,0l0,-32l-32,0Z"/></clipPath><g clip-path="url(#_clip1)"><g id="outline"><rect x="14" y="11" width="7" height="9"/><path d="M2,12l0,8l6,0l6,6l0,-20l-6,6l-6,0Z" style="fill:none;stroke:#000;stroke-width:4px;"/><path d="M23.5,13.5l4.5,-4.5l2,2l-4.5,4.5l4.5,4.5l-2,2l-4.5,-4.5l-4.5,4.5l-2,-2l4.5,-4.5l-4.5,-4.5l2,-2l4.5,4.5Z" style="fill:none;stroke:#000;stroke-width:4px;"/></g><g id="emoji"><g><path d="M14,22l-6,-3l-6,-1l0,-6l6,0l6,-6l0,16Z" style="fill:#666;"/><path d="M2,18l7.172,0c0.53,0 1.039,0.211 1.414,0.586l3.414,3.414l0,4l-6,-6l-6,0l0,-2Z" style="fill:#515151;"/></g><path d="M23.5,13.5l4.5,-4.5l2,2l-4.5,4.5l4.5,4.5l-2,2l-4.5,-4.5l-4.5,4.5l-2,-2l4.5,-4.5l-4.5,-4.5l2,-2l4.5,4.5Z" style="fill:#e82731;"/></g></g></svg>