<?xml version="1.0" encoding="UTF-8" standalone="no"?><!DOCTYPE svg PUBLIC "-//W3C//DTD SVG 1.1//EN" "http://www.w3.org/Graphics/SVG/1.1/DTD/svg11.dtd"><svg width="100%" height="100%" viewBox="0 0 32 32" version="1.1" xmlns="http://www.w3.org/2000/svg" xmlns:xlink="http://www.w3.org/1999/xlink" xml:space="preserve" xmlns:serif="http://www.serif.com/" style="fill-rule:evenodd;clip-rule:evenodd;stroke-linecap:round;stroke-linejoin:round;stroke-miterlimit:1.5;"><path id="spiky_speech_bubble" d="M0,0l0,32l32,0l0,-32l-32,0Z" style="fill:none;"/><clipPath id="_clip1"><path d="M0,0l0,32l32,0l0,-32l-32,0Z"/></clipPath><g clip-path="url(#_clip1)"><g id="outline"><path d="M6,3l7,3l3,-4l3,4l7,-3l0,2l-1.5,5.25l5.5,2.75l0,2l-5.429,2.714l1.429,4.286l0,2l-6,-2l-3,5l-2.609,-3.914c-2.291,2.335 -4.896,4.345 -7.743,5.972l-1.648,0.942l0,-2l0.563,-0.703c1.441,-1.802 2.674,-3.757 3.676,-5.827l-4.239,0.53l0,-2l1.231,-2.462l-4.231,-2.538l0,-2l5.5,-2.75l-1.5,-5.25l0,-2Z" style="fill:none;stroke:#000;stroke-width:4px;"/></g><g id="emoji"><path d="M10.167,21.354l-5.167,0.646l0,-2l2,-2l-5,-3l0,-2l6,-1l-2,-7l0,-2l7,5l6,0l7,-5l0,2l-2,7l6,1l0,2l-6,3l2,4l0,2l-6,-2l-3,5l-2.609,-3.914c-2.291,2.335 -4.896,4.345 -7.743,5.972l-1.648,0.942l0,-2l3,-3l0,0.774c0.838,-1.412 1.563,-2.89 2.167,-4.42Z" style="fill:#747474;"/><path d="M10.167,19.354l-5.167,0.646l2,-4l-5,-3l6,-3l-2,-7l7,3l3,-4l3,4l7,-3l-2,7l6,3l-6,3l2,6l-6,-2l-3,5l-2.609,-3.914c-2.291,2.335 -4.896,4.345 -7.743,5.972c-0.952,0.544 -1.648,0.942 -1.648,0.942c0,0 0.223,-0.278 0.563,-0.703c1.924,-2.406 3.475,-5.083 4.604,-7.943Z" style="fill:#fff;"/></g></g></svg>