<?xml version="1.0" encoding="UTF-8" standalone="no"?>
<!DOCTYPE svg PUBLIC "-//W3C//DTD SVG 1.1//EN" "http://www.w3.org/Graphics/SVG/1.1/DTD/svg11.dtd">
<svg width="100%" height="100%" viewBox="0 0 32 32" version="1.1" xmlns="http://www.w3.org/2000/svg" xmlns:xlink="http://www.w3.org/1999/xlink" xml:space="preserve" xmlns:serif="http://www.serif.com/" style="fill-rule:evenodd;clip-rule:evenodd;stroke-linejoin:round;stroke-miterlimit:2;">
    <rect id="credit_card" x="0" y="0" width="32" height="32" style="fill:none;"/>
    <clipPath id="_clip1">
        <rect x="0" y="0" width="32" height="32"/>
    </clipPath>
    <g clip-path="url(#_clip1)">
        <g id="outline">
            <path d="M28.099,4.001l0.099,0.004l0.099,0.006l0.098,0.008l0.098,0.011l0.098,0.014l0.097,0.015l0.096,0.018l0.096,0.021l0.095,0.023l0.095,0.024l0.093,0.028l0.094,0.029l0.092,0.032l0.091,0.034l0.091,0.036l0.089,0.039l0.089,0.04l0.088,0.043l0.087,0.045l0.085,0.047l0.085,0.049l0.083,0.052l0.082,0.053l0.081,0.055l0.08,0.058l0.078,0.059l0.077,0.062l0.076,0.063l0.074,0.066l0.073,0.067l0.071,0.07l0.069,0.071l0.067,0.072l0.066,0.074l0.063,0.076l0.062,0.077l0.059,0.078l0.058,0.08l0.055,0.081l0.053,0.082l0.052,0.083l0.049,0.085l0.047,0.086l0.045,0.086l0.043,0.088l0.04,0.089l0.039,0.089l0.036,0.091l0.034,0.091l0.032,0.092l0.029,0.094l0.028,0.094l0.024,0.094l0.023,0.095l0.021,0.096l0.018,0.096l0.015,0.097l0.014,0.098l0.011,0.097l0.008,0.099l0.006,0.099l0.004,0.098l0.001,0.088l0,16.024l-0.001,0.088l-0.004,0.098l-0.006,0.099l-0.008,0.099l-0.011,0.097l-0.014,0.098l-0.015,0.097l-0.018,0.096l-0.021,0.096l-0.023,0.095l-0.024,0.094l-0.028,0.094l-0.029,0.094l-0.032,0.092l-0.034,0.091l-0.036,0.091l-0.039,0.089l-0.04,0.089l-0.043,0.088l-0.045,0.086l-0.047,0.086l-0.049,0.085l-0.052,0.083l-0.053,0.082l-0.055,0.081l-0.058,0.08l-0.059,0.078l-0.062,0.077l-0.063,0.076l-0.066,0.074l-0.067,0.072l-0.069,0.071l-0.072,0.07l-0.072,0.067l-0.074,0.066l-0.076,0.063l-0.077,0.062l-0.078,0.059l-0.08,0.058l-0.081,0.055l-0.082,0.053l-0.083,0.052l-0.085,0.049l-0.086,0.047l-0.086,0.045l-0.088,0.043l-0.089,0.04l-0.089,0.039l-0.091,0.036l-0.091,0.034l-0.092,0.032l-0.094,0.029l-0.093,0.028l-0.095,0.024l-0.095,0.023l-0.096,0.021l-0.096,0.018l-0.097,0.015l-0.098,0.014l-0.098,0.011l-0.098,0.008l-0.099,0.006l-0.099,0.004l-0.086,0.001l-24.026,0l-0.086,-0.001l-0.099,-0.004l-0.099,-0.006l-0.098,-0.008l-0.098,-0.011l-0.098,-0.014l-0.097,-0.015l-0.096,-0.018l-0.096,-0.021l-0.095,-0.023l-0.095,-0.024l-0.093,-0.028l-0.094,-0.029l-0.092,-0.032l-0.091,-0.034l-0.091,-0.036l-0.089,-0.039l-0.089,-0.04l-0.088,-0.043l-0.086,-0.045l-0.086,-0.047l-0.085,-0.049l-0.083,-0.052l-0.082,-0.053l-0.081,-0.055l-0.08,-0.058l-0.078,-0.059l-0.077,-0.062l-0.076,-0.063l-0.074,-0.066l-0.072,-0.067l-0.071,-0.069l-0.07,-0.072l-0.067,-0.072l-0.066,-0.074l-0.063,-0.076l-0.062,-0.077l-0.059,-0.078l-0.058,-0.08l-0.055,-0.081l-0.053,-0.082l-0.052,-0.083l-0.049,-0.085l-0.047,-0.086l-0.045,-0.086l-0.043,-0.088l-0.04,-0.088l-0.039,-0.09l-0.036,-0.091l-0.034,-0.091l-0.032,-0.093l-0.029,-0.092l-0.027,-0.094l-0.025,-0.095l-0.023,-0.095l-0.021,-0.096l-0.018,-0.096l-0.015,-0.097l-0.014,-0.098l-0.011,-0.098l-0.008,-0.098l-0.006,-0.099l-0.004,-0.099l-0.001,-0.087l0,-16.024l0.001,-0.087l0.004,-0.099l0.006,-0.099l0.008,-0.098l0.011,-0.098l0.014,-0.098l0.015,-0.097l0.018,-0.096l0.021,-0.096l0.023,-0.095l0.025,-0.095l0.027,-0.094l0.029,-0.092l0.032,-0.093l0.034,-0.091l0.036,-0.091l0.039,-0.09l0.04,-0.088l0.043,-0.088l0.045,-0.086l0.047,-0.086l0.049,-0.085l0.052,-0.083l0.053,-0.082l0.055,-0.081l0.058,-0.08l0.059,-0.078l0.062,-0.077l0.063,-0.076l0.066,-0.074l0.067,-0.072l0.07,-0.072l0.071,-0.069l0.072,-0.067l0.074,-0.066l0.076,-0.063l0.077,-0.062l0.078,-0.059l0.08,-0.058l0.081,-0.055l0.082,-0.053l0.083,-0.052l0.085,-0.049l0.085,-0.047l0.087,-0.045l0.088,-0.043l0.089,-0.04l0.089,-0.039l0.091,-0.036l0.091,-0.034l0.093,-0.032l0.093,-0.029l0.093,-0.028l0.095,-0.024l0.095,-0.023l0.096,-0.021l0.096,-0.018l0.097,-0.015l0.098,-0.014l0.098,-0.011l0.098,-0.008l0.099,-0.006l0.099,-0.004l0.087,-0.001l24.024,0l0.087,0.001Zm-24.087,3.999l-0.012,0l0,0.012l0,15.976l0,0.012l0.013,0l23.974,0l0.013,0l0,0l0,-0.012l0,-15.976l0,-0.012l0,0l-0.012,0l-23.976,0Z"/>
        </g>
        <g id="emoji">
            <path d="M30,8c0,-0.53 -0.211,-1.039 -0.586,-1.414c-0.375,-0.375 -0.884,-0.586 -1.414,-0.586c-5.154,0 -18.846,0 -24,0c-0.53,0 -1.039,0.211 -1.414,0.586c-0.375,0.375 -0.586,0.884 -0.586,1.414c0,3.832 0,12.168 0,16c0,0.53 0.211,1.039 0.586,1.414c0.375,0.375 0.884,0.586 1.414,0.586c5.154,0 18.846,0 24,0c0.53,0 1.039,-0.211 1.414,-0.586c0.375,-0.375 0.586,-0.884 0.586,-1.414c0,-3.832 0,-12.168 0,-16Z" style="fill:#e82731;"/>
            <path d="M9,14c0,-0.552 -0.448,-1 -1,-1c-0.871,0 -2.129,0 -3,0c-0.552,0 -1,0.448 -1,1c0,0.611 0,1.389 0,2c0,0.552 0.448,1 1,1c0.871,0 2.129,0 3,0c0.552,0 1,-0.448 1,-1c0,-0.611 0,-1.389 0,-2Z" style="fill:#e48a1b;"/>
            <path d="M6,18.5c0,-0.133 -0.053,-0.26 -0.146,-0.354c-0.094,-0.093 -0.221,-0.146 -0.354,-0.146c-0.305,0 -0.695,0 -1,0c-0.133,0 -0.26,0.053 -0.354,0.146c-0.093,0.094 -0.146,0.221 -0.146,0.354c0,0.555 0,1.445 0,2c0,0.133 0.053,0.26 0.146,0.354c0.094,0.093 0.221,0.146 0.354,0.146c0.305,0 0.695,0 1,0c0.133,0 0.26,-0.053 0.354,-0.146c0.093,-0.094 0.146,-0.221 0.146,-0.354c0,-0.555 0,-1.445 0,-2Z" style="fill:#f49b9f;"/>
            <path d="M14,22.5c0,-0.133 -0.053,-0.26 -0.146,-0.354c-0.094,-0.093 -0.221,-0.146 -0.354,-0.146c-1.707,0 -7.293,0 -9,0c-0.133,0 -0.26,0.053 -0.354,0.146c-0.093,0.094 -0.146,0.221 -0.146,0.354c0,0.133 0.053,0.26 0.146,0.354c0.094,0.093 0.221,0.146 0.354,0.146c1.707,0 7.293,0 9,0c0.133,0 0.26,-0.053 0.354,-0.146c0.093,-0.094 0.146,-0.221 0.146,-0.354c0,0 0,0 0,0Z" style="fill:#f49b9f;"/>
            <path d="M18,18.5c0,-0.133 -0.053,-0.26 -0.146,-0.354c-0.094,-0.093 -0.221,-0.146 -0.354,-0.146c-0.305,0 -0.695,0 -1,0c-0.133,0 -0.26,0.053 -0.354,0.146c-0.093,0.094 -0.146,0.221 -0.146,0.354c0,0.555 0,1.445 0,2c0,0.133 0.053,0.26 0.146,0.354c0.094,0.093 0.221,0.146 0.354,0.146c0.305,0 0.695,0 1,0c0.133,0 0.26,-0.053 0.354,-0.146c0.093,-0.094 0.146,-0.221 0.146,-0.354c0,-0.555 0,-1.445 0,-2Z" style="fill:#f49b9f;"/>
            <path d="M12,18.5c0,-0.133 -0.053,-0.26 -0.146,-0.354c-0.094,-0.093 -0.221,-0.146 -0.354,-0.146c-0.305,0 -0.695,0 -1,0c-0.133,0 -0.26,0.053 -0.354,0.146c-0.093,0.094 -0.146,0.221 -0.146,0.354c0,0.555 0,1.445 0,2c0,0.133 0.053,0.26 0.146,0.354c0.094,0.093 0.221,0.146 0.354,0.146c0.305,0 0.695,0 1,0c0.133,0 0.26,-0.053 0.354,-0.146c0.093,-0.094 0.146,-0.221 0.146,-0.354c0,-0.555 0,-1.445 0,-2Z" style="fill:#f49b9f;"/>
            <path d="M24,18.5c0,-0.133 -0.053,-0.26 -0.146,-0.354c-0.094,-0.093 -0.221,-0.146 -0.354,-0.146c-0.305,0 -0.695,0 -1,0c-0.133,0 -0.26,0.053 -0.354,0.146c-0.093,0.094 -0.146,0.221 -0.146,0.354c0,0.555 0,1.445 0,2c0,0.133 0.053,0.26 0.146,0.354c0.094,0.093 0.221,0.146 0.354,0.146c0.305,0 0.695,0 1,0c0.133,0 0.26,-0.053 0.354,-0.146c0.093,-0.094 0.146,-0.221 0.146,-0.354c0,-0.555 0,-1.445 0,-2Z" style="fill:#f49b9f;"/>
            <path d="M9,18.5c0,-0.133 -0.053,-0.26 -0.146,-0.354c-0.094,-0.093 -0.221,-0.146 -0.354,-0.146c-0.305,0 -0.695,0 -1,0c-0.133,0 -0.26,0.053 -0.354,0.146c-0.093,0.094 -0.146,0.221 -0.146,0.354c0,0.555 0,1.445 0,2c0,0.133 0.053,0.26 0.146,0.354c0.094,0.093 0.221,0.146 0.354,0.146c0.305,0 0.695,0 1,0c0.133,0 0.26,-0.053 0.354,-0.146c0.093,-0.094 0.146,-0.221 0.146,-0.354c0,-0.555 0,-1.445 0,-2Z" style="fill:#f49b9f;"/>
            <path d="M21,18.5c0,-0.133 -0.053,-0.26 -0.146,-0.354c-0.094,-0.093 -0.221,-0.146 -0.354,-0.146c-0.305,0 -0.695,0 -1,0c-0.133,0 -0.26,0.053 -0.354,0.146c-0.093,0.094 -0.146,0.221 -0.146,0.354c0,0.555 0,1.445 0,2c0,0.133 0.053,0.26 0.146,0.354c0.094,0.093 0.221,0.146 0.354,0.146c0.305,0 0.695,0 1,0c0.133,0 0.26,-0.053 0.354,-0.146c0.093,-0.094 0.146,-0.221 0.146,-0.354c0,-0.555 0,-1.445 0,-2Z" style="fill:#f49b9f;"/>
            <path d="M15,18.5c0,-0.133 -0.053,-0.26 -0.146,-0.354c-0.094,-0.093 -0.221,-0.146 -0.354,-0.146c-0.305,0 -0.695,0 -1,0c-0.133,0 -0.26,0.053 -0.354,0.146c-0.093,0.094 -0.146,0.221 -0.146,0.354c0,0.555 0,1.445 0,2c0,0.133 0.053,0.26 0.146,0.354c0.094,0.093 0.221,0.146 0.354,0.146c0.305,0 0.695,0 1,0c0.133,0 0.26,-0.053 0.354,-0.146c0.093,-0.094 0.146,-0.221 0.146,-0.354c0,-0.555 0,-1.445 0,-2Z" style="fill:#f49b9f;"/>
            <path d="M27,18.5c0,-0.133 -0.053,-0.26 -0.146,-0.354c-0.094,-0.093 -0.221,-0.146 -0.354,-0.146c-0.305,0 -0.695,0 -1,0c-0.133,0 -0.26,0.053 -0.354,0.146c-0.093,0.094 -0.146,0.221 -0.146,0.354c0,0.555 0,1.445 0,2c0,0.133 0.053,0.26 0.146,0.354c0.094,0.093 0.221,0.146 0.354,0.146c0.305,0 0.695,0 1,0c0.133,0 0.26,-0.053 0.354,-0.146c0.093,-0.094 0.146,-0.221 0.146,-0.354c0,-0.555 0,-1.445 0,-2Z" style="fill:#f49b9f;"/>
            <rect x="18" y="8" width="9" height="7" style="fill:none;"/>
            <clipPath id="_clip2">
                <rect x="18" y="8" width="9" height="7"/>
            </clipPath>
            <g clip-path="url(#_clip2)">
                <path d="M27,11l-9,0l0,-1l9,0l0,1Z" style="fill:#8c0f15;"/>
                <path d="M27,13l-9,0l0,-1l9,0l0,1Z" style="fill:#8c0f15;"/>
                <path d="M26,15l-1,0l0,-4.882l-2.316,4.632l-0.368,0l-2.316,-4.632l0,4.882l-1,0l0,-7.653l0.655,-0.154l2.845,5.689l2.845,-5.689l0.655,0.154l0,7.653Z" style="fill:#8c0f15;"/>
            </g>
        </g>
    </g>
</svg>
