<?xml version="1.0" encoding="UTF-8" standalone="no"?>
<!DOCTYPE svg PUBLIC "-//W3C//DTD SVG 1.1//EN" "http://www.w3.org/Graphics/SVG/1.1/DTD/svg11.dtd">
<svg width="100%" height="100%" viewBox="0 0 32 32" version="1.1" xmlns="http://www.w3.org/2000/svg" xmlns:xlink="http://www.w3.org/1999/xlink" xml:space="preserve" xmlns:serif="http://www.serif.com/" style="fill-rule:evenodd;clip-rule:evenodd;stroke-linecap:round;stroke-linejoin:round;stroke-miterlimit:1.5;">
    <rect id="green_money" x="0" y="0" width="32" height="32" style="fill:none;"/>
    <g id="outline">
        <rect x="2" y="7" width="28" height="18" style="fill:none;stroke:#000;stroke-width:4px;"/>
    </g>
    <g id="Layer2">
        <path d="M29,21l-26,0l-1,1l0,3l28,0l0,-3l-1,-1Z" style="fill:#60ae33;"/>
        <rect x="2" y="7" width="28" height="15" style="fill:#80c95b;"/>
        <g>
            <path d="M8.5,9.5c0,-0.828 -0.672,-1.5 -1.5,-1.5l-2.5,0c-0.398,0 -0.779,0.158 -1.061,0.439c-0.281,0.282 -0.439,0.663 -0.439,1.061c0,0.828 0.672,1.5 1.5,1.5l2.5,0c0.828,0 1.5,-0.672 1.5,-1.5l0,0Z" style="fill:#5da436;"/>
            <path d="M8.5,19.5c0,-0.828 -0.672,-1.5 -1.5,-1.5l-2.5,0c-0.398,0 -0.779,0.158 -1.061,0.439c-0.281,0.282 -0.439,0.663 -0.439,1.061c0,0.828 0.672,1.5 1.5,1.5l2.5,0c0.828,0 1.5,-0.672 1.5,-1.5l0,0Z" style="fill:#5da436;"/>
            <path d="M29,9.5c0,-0.828 -0.672,-1.5 -1.5,-1.5l-2.5,0c-0.398,0 -0.779,0.158 -1.061,0.439c-0.281,0.282 -0.439,0.663 -0.439,1.061c0,0.828 0.672,1.5 1.5,1.5l2.5,0c0.828,0 1.5,-0.672 1.5,-1.5l0,0Z" style="fill:#5da436;"/>
            <path d="M29,19.5c0,-0.828 -0.672,-1.5 -1.5,-1.5l-2.5,0c-0.398,0 -0.779,0.158 -1.061,0.439c-0.281,0.282 -0.439,0.663 -0.439,1.061c0,0.828 0.672,1.5 1.5,1.5l2.5,0c0.828,0 1.5,-0.672 1.5,-1.5l0,0Z" style="fill:#5da436;"/>
            <path d="M21,14c0,-0.552 -0.448,-1 -1,-1c-0.552,0 -1,0.448 -1,1c0,0.322 0,0.678 0,1c0,0.552 0.448,1 1,1c0.552,0 1,-0.448 1,-1c0,-0.322 0,-0.678 0,-1Z" style="fill:#5da436;"/>
            <path d="M24,14c0,-0.552 -0.448,-1 -1,-1c-0.552,0 -1,0.448 -1,1c0,0.322 0,0.678 0,1c0,0.552 0.448,1 1,1c0.552,0 1,-0.448 1,-1c0,-0.322 0,-0.678 0,-1Z" style="fill:#5da436;"/>
        </g>
        <rect x="8" y="11" width="8" height="7" style="fill:none;"/>
        <clipPath id="_clip1">
            <rect x="8" y="11" width="8" height="7"/>
        </clipPath>
        <g clip-path="url(#_clip1)">
            <path d="M16,14l-8,0l0,-1l8,0l0,1Z" style="fill:#fff;"/>
            <path d="M16,16l-8,0l0,-1l8,0l0,1Z" style="fill:#fff;"/>
            <path d="M15,10.335l0,7.665l-1,0l0,-4.5l-1.771,4.25l-0.458,0l-1.771,-4.25l0,4.5l-1,0l0,-7.665l0.706,-0.141l2.294,5.506l2.294,-5.506l0.706,0.141Z" style="fill:#fff;"/>
        </g>
        <path d="M27,20l-22,0l0,-11l22,0l0,11Zm-21,-10l0,9l20,0l0,-9l-20,0Z" style="fill:#5da436;"/>
        <path d="M20,22l-1,-1l-6,0l-1,1l0,3l8,0l0,-3Z" style="fill:#d9d9d9;"/>
        <rect x="12" y="7" width="8" height="15" style="fill:#fff;"/>
    </g>
</svg>
