<?xml version="1.0" encoding="UTF-8" standalone="no"?>
<!DOCTYPE svg PUBLIC "-//W3C//DTD SVG 1.1//EN" "http://www.w3.org/Graphics/SVG/1.1/DTD/svg11.dtd">
<svg width="100%" height="100%" viewBox="0 0 32 32" version="1.1" xmlns="http://www.w3.org/2000/svg" xmlns:xlink="http://www.w3.org/1999/xlink" xml:space="preserve" xmlns:serif="http://www.serif.com/" style="fill-rule:evenodd;clip-rule:evenodd;stroke-linejoin:round;stroke-miterlimit:2;">
    <rect id="moneybag" x="0" y="0" width="32" height="32" style="fill:none;"/>
    <g id="outline">
        <path d="M21.138,5.005l0.137,0.014l0.136,0.024l0.133,0.033l0.132,0.042l0.128,0.051l0.124,0.059l0.12,0.068l0.115,0.077l0.109,0.084l0.103,0.091l0.097,0.098l0.09,0.105l5.154,6.443l0.096,0.121l0.098,0.126l0.096,0.127l0.095,0.128l0.093,0.129l0.092,0.129l0.09,0.131l0.089,0.131l0.088,0.133l0.086,0.133l0.084,0.134l0.084,0.134l0.081,0.136l0.08,0.136l0.079,0.137l0.077,0.138l0.076,0.139l0.074,0.139l0.073,0.14l0.071,0.141l0.07,0.141l0.068,0.142l0.067,0.143l0.065,0.143l0.064,0.144l0.062,0.145l0.061,0.146l0.059,0.145l0.057,0.147l0.056,0.147l0.055,0.148l0.052,0.148l0.052,0.149l0.05,0.149l0.048,0.15l0.046,0.15l0.045,0.151l0.044,0.152l0.042,0.151l0.04,0.153l0.039,0.153l0.037,0.153l0.035,0.153l0.034,0.154l0.033,0.155l0.03,0.154l0.029,0.156l0.028,0.155l0.025,0.156l0.025,0.156l0.022,0.157l0.021,0.157l0.019,0.157l0.018,0.157l0.016,0.158l0.014,0.158l0.013,0.158l0.011,0.158l0.009,0.159l0.007,0.159l0.006,0.159l0.005,0.159l0.002,0.16l0.001,0.154l0,0.451l-0.001,0.118l-0.002,0.124l-0.004,0.124l-0.005,0.124l-0.007,0.123l-0.009,0.124l-0.009,0.123l-0.012,0.122l-0.013,0.123l-0.014,0.122l-0.016,0.122l-0.018,0.122l-0.018,0.121l-0.021,0.121l-0.022,0.121l-0.023,0.12l-0.025,0.12l-0.026,0.119l-0.027,0.12l-0.03,0.119l-0.03,0.118l-0.032,0.118l-0.033,0.117l-0.035,0.117l-0.036,0.117l-0.038,0.116l-0.039,0.116l-0.041,0.115l-0.041,0.114l-0.044,0.114l-0.044,0.114l-0.046,0.113l-0.048,0.112l-0.048,0.112l-0.05,0.111l-0.052,0.111l-0.053,0.11l-0.054,0.109l-0.055,0.109l-0.057,0.108l-0.058,0.107l-0.06,0.107l-0.06,0.106l-0.063,0.105l-0.063,0.105l-0.065,0.104l-0.066,0.103l-0.067,0.102l-0.069,0.102l-0.07,0.1l-0.071,0.1l-0.072,0.099l-0.074,0.099l-0.075,0.097l-0.076,0.097l-0.078,0.096l-0.078,0.094l-0.08,0.095l-0.082,0.093l-0.082,0.092l-0.084,0.091l-0.085,0.09l-0.086,0.09l-0.087,0.088l-0.088,0.087l-0.09,0.086l-0.09,0.085l-0.091,0.084l-0.092,0.082l-0.093,0.082l-0.094,0.08l-0.095,0.078l-0.096,0.078l-0.097,0.076l-0.097,0.075l-0.099,0.074l-0.099,0.072l-0.1,0.071l-0.101,0.07l-0.101,0.069l-0.102,0.067l-0.103,0.066l-0.104,0.065l-0.105,0.063l-0.105,0.063l-0.106,0.06l-0.107,0.06l-0.107,0.058l-0.108,0.057l-0.109,0.055l-0.109,0.054l-0.11,0.053l-0.111,0.052l-0.111,0.05l-0.112,0.048l-0.112,0.048l-0.113,0.046l-0.114,0.044l-0.114,0.044l-0.114,0.041l-0.115,0.041l-0.116,0.039l-0.116,0.038l-0.117,0.036l-0.117,0.035l-0.117,0.033l-0.118,0.032l-0.118,0.03l-0.119,0.029l-0.119,0.028l-0.12,0.026l-0.12,0.025l-0.12,0.023l-0.121,0.022l-0.121,0.021l-0.121,0.018l-0.122,0.018l-0.122,0.016l-0.122,0.014l-0.123,0.013l-0.122,0.012l-0.124,0.009l-0.123,0.009l-0.123,0.007l-0.124,0.005l-0.124,0.004l-0.124,0.002l-0.118,0.001l-10.012,0l-0.118,-0.001l-0.124,-0.002l-0.124,-0.004l-0.124,-0.005l-0.123,-0.007l-0.123,-0.009l-0.123,-0.009l-0.123,-0.012l-0.123,-0.013l-0.122,-0.014l-0.122,-0.016l-0.122,-0.018l-0.121,-0.018l-0.121,-0.021l-0.121,-0.022l-0.12,-0.023l-0.12,-0.025l-0.12,-0.026l-0.119,-0.028l-0.119,-0.029l-0.118,-0.03l-0.118,-0.032l-0.117,-0.033l-0.117,-0.035l-0.117,-0.036l-0.116,-0.038l-0.116,-0.039l-0.115,-0.041l-0.114,-0.041l-0.114,-0.044l-0.114,-0.044l-0.113,-0.046l-0.112,-0.048l-0.112,-0.048l-0.111,-0.05l-0.111,-0.052l-0.11,-0.053l-0.109,-0.054l-0.109,-0.055l-0.108,-0.057l-0.107,-0.058l-0.107,-0.06l-0.106,-0.06l-0.105,-0.063l-0.105,-0.063l-0.104,-0.065l-0.103,-0.066l-0.102,-0.067l-0.102,-0.069l-0.1,-0.07l-0.1,-0.071l-0.099,-0.072l-0.099,-0.074l-0.097,-0.075l-0.097,-0.076l-0.096,-0.078l-0.095,-0.078l-0.094,-0.08l-0.093,-0.082l-0.092,-0.082l-0.091,-0.084l-0.09,-0.085l-0.09,-0.086l-0.088,-0.087l-0.087,-0.088l-0.086,-0.09l-0.085,-0.09l-0.084,-0.091l-0.082,-0.092l-0.082,-0.093l-0.08,-0.094l-0.078,-0.095l-0.078,-0.096l-0.076,-0.097l-0.075,-0.097l-0.074,-0.099l-0.072,-0.099l-0.071,-0.1l-0.07,-0.1l-0.069,-0.102l-0.067,-0.102l-0.066,-0.103l-0.065,-0.104l-0.063,-0.105l-0.063,-0.105l-0.06,-0.106l-0.06,-0.107l-0.058,-0.107l-0.057,-0.108l-0.055,-0.109l-0.054,-0.109l-0.053,-0.11l-0.052,-0.111l-0.05,-0.111l-0.048,-0.112l-0.048,-0.112l-0.046,-0.113l-0.044,-0.114l-0.044,-0.114l-0.041,-0.114l-0.041,-0.115l-0.039,-0.116l-0.038,-0.116l-0.036,-0.117l-0.035,-0.117l-0.033,-0.117l-0.032,-0.118l-0.03,-0.118l-0.03,-0.119l-0.027,-0.12l-0.026,-0.119l-0.025,-0.12l-0.023,-0.12l-0.022,-0.121l-0.021,-0.121l-0.018,-0.121l-0.018,-0.122l-0.016,-0.122l-0.014,-0.122l-0.013,-0.123l-0.012,-0.123l-0.009,-0.123l-0.009,-0.123l-0.007,-0.123l-0.005,-0.124l-0.004,-0.124l-0.002,-0.124l-0.001,-0.118l0,-0.451l0.001,-0.154l0.002,-0.16l0.005,-0.159l0.006,-0.159l0.007,-0.159l0.009,-0.159l0.011,-0.158l0.013,-0.158l0.014,-0.158l0.016,-0.158l0.018,-0.157l0.019,-0.157l0.021,-0.157l0.022,-0.157l0.025,-0.156l0.025,-0.156l0.028,-0.155l0.029,-0.156l0.03,-0.154l0.033,-0.155l0.034,-0.154l0.035,-0.153l0.037,-0.153l0.039,-0.153l0.04,-0.153l0.042,-0.151l0.044,-0.152l0.045,-0.151l0.046,-0.15l0.048,-0.15l0.05,-0.149l0.052,-0.149l0.052,-0.148l0.055,-0.148l0.056,-0.147l0.057,-0.147l0.059,-0.146l0.061,-0.145l0.062,-0.145l0.064,-0.144l0.065,-0.143l0.067,-0.143l0.068,-0.142l0.07,-0.141l0.071,-0.141l0.073,-0.14l0.074,-0.139l0.076,-0.139l0.077,-0.138l0.079,-0.137l0.08,-0.136l0.082,-0.136l0.083,-0.134l0.084,-0.134l0.086,-0.134l0.088,-0.132l0.089,-0.131l0.09,-0.131l0.092,-0.129l0.093,-0.129l0.095,-0.128l0.096,-0.127l0.098,-0.126l0.096,-0.121l5.154,-6.443l0.09,-0.105l0.097,-0.098l0.103,-0.091l0.109,-0.084l0.115,-0.077l0.12,-0.068l0.124,-0.059l0.128,-0.051l0.132,-0.042l0.133,-0.033l0.136,-0.024l0.137,-0.014l0.138,-0.005l10,0l0.138,0.005Zm-10.138,1.995l-5.151,6.439l-0.086,0.109l-0.085,0.109l-0.083,0.11l-0.082,0.111l-0.081,0.111l-0.08,0.113l-0.078,0.113l-0.077,0.114l-0.076,0.114l-0.075,0.116l-0.073,0.116l-0.072,0.117l-0.071,0.117l-0.069,0.118l-0.068,0.119l-0.067,0.119l-0.066,0.12l-0.064,0.121l-0.063,0.122l-0.062,0.122l-0.061,0.122l-0.059,0.123l-0.058,0.124l-0.056,0.124l-0.055,0.125l-0.054,0.126l-0.053,0.126l-0.051,0.126l-0.05,0.127l-0.048,0.128l-0.047,0.128l-0.046,0.128l-0.045,0.129l-0.043,0.129l-0.042,0.13l-0.04,0.131l-0.039,0.13l-0.038,0.132l-0.036,0.131l-0.035,0.132l-0.033,0.133l-0.033,0.132l-0.03,0.133l-0.03,0.134l-0.028,0.134l-0.026,0.134l-0.025,0.134l-0.024,0.135l-0.023,0.135l-0.021,0.135l-0.019,0.136l-0.018,0.136l-0.017,0.136l-0.015,0.137l-0.014,0.136l-0.012,0.137l-0.011,0.137l-0.01,0.138l-0.008,0.137l-0.006,0.138l-0.005,0.138l-0.004,0.138l-0.002,0.138l-0.001,0.138l0,0.44l0.001,0.099l0.001,0.1l0.004,0.099l0.004,0.099l0.005,0.098l0.007,0.099l0.008,0.098l0.009,0.099l0.01,0.098l0.012,0.097l0.013,0.098l0.014,0.097l0.015,0.097l0.016,0.097l0.018,0.097l0.018,0.096l0.02,0.096l0.021,0.096l0.022,0.095l0.023,0.095l0.025,0.095l0.025,0.094l0.027,0.094l0.028,0.094l0.029,0.093l0.03,0.093l0.031,0.092l0.032,0.092l0.034,0.092l0.034,0.091l0.036,0.091l0.037,0.09l0.038,0.09l0.039,0.09l0.04,0.089l0.041,0.088l0.042,0.088l0.044,0.088l0.044,0.087l0.045,0.086l0.047,0.086l0.048,0.085l0.048,0.085l0.05,0.084l0.051,0.084l0.051,0.083l0.053,0.083l0.054,0.081l0.055,0.082l0.056,0.08l0.057,0.08l0.058,0.08l0.059,0.078l0.06,0.078l0.061,0.077l0.062,0.077l0.063,0.076l0.064,0.075l0.065,0.075l0.066,0.073l0.067,0.073l0.067,0.073l0.069,0.071l0.07,0.071l0.071,0.07l0.071,0.069l0.073,0.067l0.073,0.067l0.073,0.066l0.075,0.065l0.075,0.064l0.076,0.063l0.077,0.062l0.077,0.061l0.078,0.06l0.078,0.059l0.08,0.058l0.08,0.057l0.08,0.056l0.082,0.055l0.081,0.054l0.083,0.053l0.083,0.051l0.084,0.051l0.084,0.05l0.085,0.048l0.085,0.048l0.086,0.047l0.086,0.045l0.087,0.044l0.088,0.044l0.088,0.042l0.088,0.041l0.089,0.04l0.09,0.039l0.09,0.038l0.09,0.037l0.091,0.036l0.091,0.034l0.092,0.034l0.092,0.032l0.092,0.031l0.093,0.03l0.093,0.029l0.094,0.028l0.094,0.027l0.094,0.025l0.095,0.025l0.095,0.023l0.095,0.022l0.096,0.021l0.096,0.02l0.096,0.018l0.097,0.018l0.097,0.016l0.097,0.015l0.097,0.014l0.098,0.013l0.097,0.012l0.098,0.01l0.099,0.009l0.098,0.008l0.099,0.007l0.098,0.005l0.099,0.004l0.099,0.004l0.1,0.001l0.099,0.001l10,0l0.099,-0.001l0.1,-0.001l0.099,-0.004l0.099,-0.004l0.098,-0.005l0.099,-0.007l0.098,-0.008l0.099,-0.009l0.098,-0.01l0.097,-0.012l0.098,-0.013l0.097,-0.014l0.097,-0.015l0.097,-0.016l0.097,-0.018l0.096,-0.018l0.096,-0.02l0.096,-0.021l0.095,-0.022l0.095,-0.023l0.095,-0.025l0.094,-0.025l0.094,-0.027l0.094,-0.028l0.093,-0.029l0.093,-0.03l0.092,-0.031l0.092,-0.032l0.092,-0.034l0.091,-0.034l0.091,-0.036l0.09,-0.037l0.09,-0.038l0.09,-0.039l0.089,-0.04l0.088,-0.041l0.088,-0.042l0.088,-0.044l0.087,-0.044l0.086,-0.045l0.086,-0.047l0.085,-0.048l0.085,-0.048l0.084,-0.05l0.084,-0.051l0.083,-0.051l0.083,-0.053l0.081,-0.054l0.082,-0.055l0.08,-0.056l0.08,-0.057l0.08,-0.058l0.078,-0.059l0.078,-0.06l0.077,-0.061l0.077,-0.062l0.076,-0.063l0.075,-0.064l0.075,-0.065l0.073,-0.066l0.073,-0.067l0.073,-0.067l0.071,-0.069l0.071,-0.07l0.07,-0.071l0.069,-0.071l0.067,-0.073l0.067,-0.073l0.066,-0.073l0.065,-0.075l0.064,-0.075l0.063,-0.076l0.062,-0.077l0.061,-0.077l0.06,-0.078l0.059,-0.078l0.058,-0.08l0.057,-0.08l0.056,-0.08l0.055,-0.082l0.054,-0.081l0.053,-0.083l0.051,-0.083l0.051,-0.084l0.05,-0.084l0.048,-0.085l0.048,-0.085l0.047,-0.086l0.045,-0.086l0.044,-0.087l0.044,-0.088l0.042,-0.088l0.041,-0.088l0.04,-0.089l0.039,-0.09l0.038,-0.09l0.037,-0.09l0.036,-0.091l0.034,-0.091l0.034,-0.092l0.032,-0.092l0.031,-0.092l0.03,-0.093l0.029,-0.093l0.028,-0.094l0.027,-0.094l0.025,-0.094l0.025,-0.095l0.023,-0.095l0.022,-0.095l0.021,-0.096l0.02,-0.096l0.018,-0.096l0.018,-0.097l0.016,-0.097l0.015,-0.097l0.014,-0.097l0.013,-0.098l0.012,-0.097l0.01,-0.098l0.009,-0.099l0.008,-0.098l0.007,-0.099l0.005,-0.098l0.004,-0.099l0.004,-0.099l0.001,-0.1l0.001,-0.099l0,-0.44l-0.001,-0.138l-0.002,-0.138l-0.004,-0.138l-0.005,-0.138l-0.006,-0.138l-0.008,-0.137l-0.01,-0.138l-0.011,-0.137l-0.012,-0.137l-0.014,-0.136l-0.015,-0.137l-0.017,-0.136l-0.018,-0.136l-0.019,-0.136l-0.021,-0.135l-0.023,-0.135l-0.024,-0.135l-0.025,-0.134l-0.026,-0.134l-0.028,-0.134l-0.03,-0.134l-0.03,-0.133l-0.033,-0.132l-0.033,-0.133l-0.035,-0.132l-0.036,-0.131l-0.038,-0.132l-0.039,-0.13l-0.04,-0.131l-0.042,-0.13l-0.043,-0.129l-0.045,-0.129l-0.046,-0.128l-0.047,-0.128l-0.048,-0.128l-0.05,-0.127l-0.051,-0.126l-0.053,-0.126l-0.054,-0.126l-0.055,-0.125l-0.056,-0.124l-0.058,-0.124l-0.059,-0.123l-0.061,-0.122l-0.062,-0.122l-0.063,-0.122l-0.064,-0.121l-0.066,-0.12l-0.067,-0.119l-0.068,-0.119l-0.069,-0.118l-0.071,-0.117l-0.072,-0.117l-0.073,-0.116l-0.075,-0.116l-0.076,-0.114l-0.077,-0.114l-0.078,-0.113l-0.08,-0.113l-0.081,-0.111l-0.082,-0.111l-0.083,-0.11l-0.085,-0.109l-0.086,-0.109l-5.151,-6.439l-10,0Z"/>
        <path d="M9.072,0.001l0.104,0.007l0.104,0.012l0.103,0.017l0.102,0.023l3.435,0.858l2.448,-0.815l0.094,-0.029l0.096,-0.025l0.097,-0.019l0.098,-0.015l0.099,-0.009l0.099,-0.005l0.099,0l0.098,0.005l0.099,0.009l0.098,0.015l0.097,0.019l0.096,0.025l0.094,0.029l2.448,0.815l3.435,-0.858l0.102,-0.023l0.103,-0.017l0.104,-0.012l0.104,-0.007l0.105,-0.001l0.104,0.005l0.105,0.01l0.103,0.015l0.102,0.021l0.102,0.026l0.1,0.031l0.098,0.037l0.096,0.041l0.093,0.047l0.091,0.051l0.089,0.056l0.085,0.061l0.082,0.065l0.078,0.069l0.075,0.073l0.071,0.077l0.066,0.08l0.063,0.084l0.058,0.087l0.053,0.09l0.048,0.093l0.044,0.095l0.039,0.097l0.033,0.099l0.028,0.101l0.023,0.102l0.018,0.103l0.012,0.104l0.007,0.104l0.001,0.105l-0.004,0.104l-0.01,0.105l-0.015,0.103l-0.021,0.103l-0.026,0.101l-0.031,0.1l-0.036,0.098l-2,5l-0.041,0.095l-0.046,0.093l-0.05,0.09l-0.055,0.088l-0.06,0.084l-0.064,0.082l-0.068,0.078l-0.072,0.074l-0.075,0.071l-0.08,0.066l-0.082,0.063l-0.086,0.058l-0.089,0.053l-0.091,0.049l-0.093,0.044l-0.096,0.039l-0.098,0.034l-0.099,0.029l-0.101,0.024l-0.102,0.019l-0.102,0.013l-0.104,0.008l-0.103,0.003l-10,0l-0.103,-0.003l-0.104,-0.008l-0.102,-0.013l-0.102,-0.019l-0.101,-0.024l-0.099,-0.029l-0.098,-0.034l-0.096,-0.039l-0.093,-0.044l-0.091,-0.049l-0.089,-0.053l-0.086,-0.058l-0.082,-0.063l-0.08,-0.066l-0.075,-0.071l-0.072,-0.074l-0.068,-0.078l-0.064,-0.082l-0.06,-0.084l-0.055,-0.088l-0.05,-0.09l-0.046,-0.093l-0.041,-0.095l-2,-5l-0.036,-0.098l-0.031,-0.1l-0.026,-0.101l-0.021,-0.103l-0.015,-0.103l-0.01,-0.105l-0.004,-0.104l0.001,-0.105l0.007,-0.104l0.012,-0.104l0.018,-0.103l0.023,-0.102l0.028,-0.101l0.033,-0.099l0.039,-0.097l0.044,-0.095l0.048,-0.093l0.053,-0.09l0.058,-0.087l0.063,-0.084l0.066,-0.08l0.071,-0.077l0.075,-0.073l0.078,-0.069l0.082,-0.065l0.085,-0.061l0.089,-0.056l0.091,-0.051l0.094,-0.047l0.095,-0.041l0.098,-0.037l0.1,-0.031l0.102,-0.026l0.102,-0.021l0.103,-0.015l0.105,-0.01l0.104,-0.005l0.105,0.001Zm9.928,2.999l-3,-1l-3,1l-4,-1l2,5l10,0l2,-5l-4,1Z"/>
        <path d="M22.153,4.003l0.151,0.012l0.15,0.019l0.149,0.026l0.145,0.034l0.143,0.041l0.141,0.047l0.137,0.054l0.133,0.06l0.13,0.067l0.125,0.072l0.122,0.078l0.117,0.084l0.114,0.088l0.108,0.094l0.104,0.099l0.099,0.104l0.094,0.109l0.088,0.113l0.084,0.117l0.078,0.122l0.072,0.125l0.067,0.13l0.06,0.134l0.054,0.137l0.047,0.14l0.041,0.143l0.034,0.146l0.026,0.148l0.019,0.15l0.012,0.151l0.004,0.153l-0.004,0.153l-0.012,0.151l-0.019,0.15l-0.026,0.148l-0.034,0.146l-0.041,0.143l-0.047,0.14l-0.054,0.137l-0.06,0.134l-0.067,0.13l-0.072,0.125l-0.078,0.122l-0.083,0.117l-0.089,0.113l-0.094,0.109l-0.099,0.104l-0.104,0.099l-0.108,0.094l-0.114,0.088l-0.117,0.084l-0.122,0.078l-0.125,0.072l-0.13,0.067l-0.133,0.06l-0.137,0.054l-0.141,0.047l-0.143,0.041l-0.145,0.034l-0.149,0.026l-0.15,0.019l-0.151,0.012l-0.128,0.003l-12.05,0l-0.128,-0.003l-0.151,-0.012l-0.15,-0.019l-0.148,-0.026l-0.146,-0.034l-0.143,-0.041l-0.141,-0.047l-0.136,-0.054l-0.134,-0.06l-0.13,-0.067l-0.125,-0.072l-0.122,-0.078l-0.117,-0.083l-0.114,-0.089l-0.108,-0.094l-0.104,-0.099l-0.099,-0.104l-0.094,-0.109l-0.089,-0.113l-0.083,-0.117l-0.078,-0.122l-0.072,-0.125l-0.067,-0.13l-0.06,-0.134l-0.054,-0.137l-0.047,-0.14l-0.041,-0.143l-0.034,-0.146l-0.026,-0.148l-0.019,-0.15l-0.012,-0.151l-0.004,-0.153l0.004,-0.153l0.012,-0.151l0.019,-0.15l0.026,-0.148l0.034,-0.146l0.041,-0.143l0.047,-0.14l0.054,-0.137l0.06,-0.134l0.067,-0.13l0.072,-0.125l0.078,-0.122l0.084,-0.117l0.088,-0.113l0.094,-0.109l0.099,-0.104l0.104,-0.099l0.108,-0.094l0.114,-0.089l0.117,-0.083l0.122,-0.078l0.125,-0.072l0.13,-0.067l0.134,-0.06l0.136,-0.054l0.141,-0.047l0.143,-0.041l0.145,-0.034l0.149,-0.026l0.15,-0.019l0.151,-0.012l0.128,-0.003l12.05,0l0.128,0.003Zm-12.204,1.998l-0.051,0.004l-0.05,0.007l-0.05,0.008l-0.048,0.011l-0.047,0.014l-0.047,0.016l-0.045,0.018l-0.045,0.02l-0.043,0.022l-0.042,0.024l-0.04,0.026l-0.039,0.028l-0.038,0.029l-0.036,0.032l-0.035,0.033l-0.033,0.035l-0.032,0.036l-0.029,0.038l-0.028,0.039l-0.026,0.04l-0.024,0.042l-0.022,0.043l-0.02,0.045l-0.018,0.045l-0.016,0.047l-0.014,0.047l-0.011,0.048l-0.008,0.05l-0.007,0.05l-0.004,0.051l-0.001,0.051c0,0 0.001,0.051 0.001,0.051l0.004,0.051l0.007,0.05l0.008,0.05l0.011,0.048l0.014,0.047l0.016,0.047l0.018,0.045l0.02,0.045l0.022,0.043l0.024,0.042l0.026,0.04l0.028,0.039l0.029,0.038l0.032,0.036l0.033,0.035l0.035,0.033l0.036,0.032l0.038,0.029l0.039,0.028l0.04,0.026l0.042,0.024l0.043,0.022l0.045,0.02l0.045,0.018l0.047,0.016l0.047,0.014l0.048,0.011l0.05,0.008l0.05,0.007l0.051,0.004l0.051,0.001l12,0l0.051,-0.001l0.051,-0.004l0.05,-0.007l0.05,-0.008l0.048,-0.011l0.047,-0.014l0.047,-0.016l0.045,-0.018l0.045,-0.02l0.043,-0.022l0.042,-0.024l0.04,-0.026l0.039,-0.028l0.038,-0.029l0.036,-0.032l0.035,-0.033l0.033,-0.035l0.032,-0.036l0.029,-0.038l0.028,-0.039l0.026,-0.04l0.024,-0.042l0.022,-0.043l0.02,-0.045l0.018,-0.045l0.016,-0.047l0.014,-0.047l0.011,-0.048l0.008,-0.05l0.007,-0.05l0.004,-0.051l0.001,-0.051c0,0 -0.001,-0.051 -0.001,-0.051l-0.004,-0.051l-0.007,-0.05l-0.008,-0.05l-0.011,-0.048l-0.014,-0.047l-0.016,-0.047l-0.018,-0.045l-0.02,-0.045l-0.022,-0.043l-0.024,-0.042l-0.026,-0.04l-0.028,-0.039l-0.029,-0.038l-0.032,-0.036l-0.033,-0.035l-0.035,-0.033l-0.036,-0.032l-0.038,-0.029l-0.039,-0.028l-0.04,-0.026l-0.042,-0.024l-0.043,-0.022l-0.045,-0.02l-0.045,-0.018l-0.047,-0.016l-0.047,-0.014l-0.048,-0.011l-0.05,-0.008l-0.05,-0.007l-0.051,-0.004l-0.051,-0.001l-12,0l-0.051,0.001Z"/>
    </g>
    <g id="emoji">
        <path d="M11,7c0,0 -2.853,3.566 -5.151,6.439c-1.844,2.305 -2.849,5.169 -2.849,8.121c0,0.145 0,0.292 0,0.44c0,2.122 0.843,4.157 2.343,5.657c1.5,1.5 3.535,2.343 5.657,2.343c3.177,0 6.823,0 10,0c2.122,0 4.157,-0.843 5.657,-2.343c1.5,-1.5 2.343,-3.535 2.343,-5.657c0,-0.148 0,-0.295 0,-0.44c0,-2.952 -1.005,-5.816 -2.849,-8.121c-2.298,-2.873 -5.151,-6.439 -5.151,-6.439l-10,0Z" style="fill:#d0b275;"/>
        <clipPath id="_clip1">
            <path d="M11,7c0,0 -2.853,3.566 -5.151,6.439c-1.844,2.305 -2.849,5.169 -2.849,8.121c0,0.145 0,0.292 0,0.44c0,2.122 0.843,4.157 2.343,5.657c1.5,1.5 3.535,2.343 5.657,2.343c3.177,0 6.823,0 10,0c2.122,0 4.157,-0.843 5.657,-2.343c1.5,-1.5 2.343,-3.535 2.343,-5.657c0,-0.148 0,-0.295 0,-0.44c0,-2.952 -1.005,-5.816 -2.849,-8.121c-2.298,-2.873 -5.151,-6.439 -5.151,-6.439l-10,0Z"/>
        </clipPath>
        <g clip-path="url(#_clip1)">
            <path d="M2,15c0,0 0.517,3.101 1.025,6.151c0.563,3.375 3.483,5.849 6.905,5.849c3.728,0 8.517,0 12.228,0c3.383,0 6.282,-2.419 6.887,-5.748c0.485,-2.665 0.955,-5.252 0.955,-5.252l1,0l0,15l-30,0l0,-16l1,0Z" style="fill:#bb9240;"/>
        </g>
        <path d="M11,7l-2,-5l4,1l3,-1l3,1l4,-1l-2,5l-10,0Z" style="fill:#d0b275;"/>
        <path d="M23,7c0,-0.552 -0.448,-1 -1,-1c-2.577,0 -9.423,0 -12,0c-0.552,0 -1,0.448 -1,1c0,0.552 0.448,1 1,1c2.577,0 9.423,0 12,0c0.552,0 1,-0.448 1,-1c0,0 0,0 0,0Z" style="fill:#754628;"/>
        <rect x="7" y="12" width="18" height="13" style="fill:none;"/>
        <clipPath id="_clip2">
            <rect x="7" y="12" width="18" height="13"/>
        </clipPath>
        <g clip-path="url(#_clip2)">
            <g>
                <g>
                    <path d="M24,18l-16,0l0,-2l16,0l0,2Z" style="fill:#8e7549;"/>
                    <path d="M24,22l-16,0l0,-2l16,0l0,2Z" style="fill:#8e7549;"/>
                </g>
                <path d="M22,25l-2,0l0,-7.764l-3.632,7.264l-0.736,0l-3.632,-7.264l0,7.764l-2,0l0,-13.305l1.311,-0.31l4.689,9.379l4.689,-9.379l1.311,0.31l0,13.305Z" style="fill:#8e7549;"/>
            </g>
        </g>
    </g>
</svg>
