<?xml version="1.0" encoding="UTF-8" standalone="no"?>
<!DOCTYPE svg PUBLIC "-//W3C//DTD SVG 1.1//EN" "http://www.w3.org/Graphics/SVG/1.1/DTD/svg11.dtd">
<svg width="100%" height="100%" viewBox="0 0 32 32" version="1.1" xmlns="http://www.w3.org/2000/svg" xmlns:xlink="http://www.w3.org/1999/xlink" xml:space="preserve" xmlns:serif="http://www.serif.com/" style="fill-rule:evenodd;clip-rule:evenodd;stroke-linecap:round;stroke-linejoin:round;stroke-miterlimit:1.5;">
    <rect id="pink_money" x="0" y="0" width="32" height="32" style="fill:none;"/>
    <g id="outline">
        <rect x="2" y="7" width="28" height="18" style="fill:none;stroke:#000;stroke-width:4px;"/>
    </g>
    <g id="emoji">
        <path d="M29,21l-26,0l-1,1l0,3l28,0l0,-3l-1,-1Z" style="fill:#e46493;"/>
        <rect x="2" y="7" width="28" height="15" style="fill:#f59aba;"/>
        <clipPath id="_clip1">
            <rect x="2" y="7" width="28" height="15"/>
        </clipPath>
        <g clip-path="url(#_clip1)">
            <g>
                <path d="M31,11c0,0 -2.975,0.992 -4.735,1.578c-0.821,0.274 -1.709,0.274 -2.53,0c-1.021,-0.34 -2.449,-0.816 -3.47,-1.156c-0.821,-0.274 -1.709,-0.274 -2.53,0c-1.021,0.34 -2.449,0.816 -3.47,1.156c-0.821,0.274 -1.709,0.274 -2.53,0c-0.819,-0.273 -1.735,-0.578 -1.735,-0.578" style="fill:none;stroke:#facdde;stroke-width:1px;stroke-linecap:butt;stroke-linejoin:miter;"/>
                <path d="M31,14c0,0 -2.975,0.992 -4.735,1.578c-0.821,0.274 -1.709,0.274 -2.53,0c-1.021,-0.34 -2.449,-0.816 -3.47,-1.156c-0.821,-0.274 -1.709,-0.274 -2.53,0c-1.021,0.34 -2.449,0.816 -3.47,1.156c-0.821,0.274 -1.709,0.274 -2.53,0c-0.819,-0.273 -1.735,-0.578 -1.735,-0.578" style="fill:none;stroke:#facdde;stroke-width:1px;stroke-linecap:butt;stroke-linejoin:miter;"/>
                <path d="M31,8c0,0 -2.975,0.992 -4.735,1.578c-0.821,0.274 -1.709,0.274 -2.53,0c-1.021,-0.34 -2.449,-0.816 -3.47,-1.156c-0.821,-0.274 -1.709,-0.274 -2.53,0c-1.021,0.34 -2.449,0.816 -3.47,1.156c-0.821,0.274 -1.709,0.274 -2.53,0c-0.819,-0.273 -1.735,-0.578 -1.735,-0.578" style="fill:none;stroke:#facdde;stroke-width:1px;stroke-linecap:butt;stroke-linejoin:miter;"/>
            </g>
        </g>
        <g>
            <path d="M9,19c0,-0.552 -0.448,-1 -1,-1c-0.871,0 -2.129,0 -3,0c-0.552,0 -1,0.448 -1,1c0,0.322 0,0.678 0,1c0,0.552 0.448,1 1,1c0.871,0 2.129,0 3,0c0.552,0 1,-0.448 1,-1c0,-0.322 0,-0.678 0,-1Z" style="fill:#f16d9e;"/>
            <path d="M29,18c0,-0.552 -0.448,-1 -1,-1c-0.552,0 -1,0.448 -1,1c0,0.611 0,1.389 0,2c0,0.552 0.448,1 1,1c0.552,0 1,-0.448 1,-1c0,-0.611 0,-1.389 0,-2Z" style="fill:#f16d9e;"/>
            <path d="M26,18c0,-0.552 -0.448,-1 -1,-1c-0.552,0 -1,0.448 -1,1c0,0.611 0,1.389 0,2c0,0.552 0.448,1 1,1c0.552,0 1,-0.448 1,-1c0,-0.611 0,-1.389 0,-2Z" style="fill:#f16d9e;"/>
            <path d="M23,18c0,-0.552 -0.448,-1 -1,-1c-0.552,0 -1,0.448 -1,1c0,0.611 0,1.389 0,2c0,0.552 0.448,1 1,1c0.552,0 1,-0.448 1,-1c0,-0.611 0,-1.389 0,-2Z" style="fill:#f16d9e;"/>
        </g>
        <rect x="3" y="8" width="8" height="7" style="fill:none;"/>
        <clipPath id="_clip2">
            <rect x="3" y="8" width="8" height="7"/>
        </clipPath>
        <g clip-path="url(#_clip2)">
            <path d="M11,11l-8,0l0,-1l8,0l0,1Z" style="fill:#fff;"/>
            <path d="M11,13l-8,0l0,-1l8,0l0,1Z" style="fill:#fff;"/>
            <path d="M10,7.335l0,7.665l-1,0l0,-4.5l-1.771,4.25l-0.458,0l-1.771,-4.25l0,4.5l-1,0l0,-7.665l0.706,-0.141l2.294,5.506l2.294,-5.506l0.706,0.141Z" style="fill:#fff;"/>
        </g>
        <path d="M20,22l-1,-1l-6,0l-1,1l0,3l8,0l0,-3Z" style="fill:#d9d9d9;"/>
        <rect x="12" y="7" width="8" height="15" style="fill:#fff;"/>
    </g>
</svg>
