<?xml version="1.0" encoding="UTF-8" standalone="no"?><!DOCTYPE svg PUBLIC "-//W3C//DTD SVG 1.1//EN" "http://www.w3.org/Graphics/SVG/1.1/DTD/svg11.dtd"><svg width="100%" height="100%" viewBox="0 0 32 32" version="1.1" xmlns="http://www.w3.org/2000/svg" xmlns:xlink="http://www.w3.org/1999/xlink" xml:space="preserve" xmlns:serif="http://www.serif.com/" style="fill-rule:evenodd;clip-rule:evenodd;stroke-linecap:round;stroke-linejoin:round;stroke-miterlimit:1.5;"><rect id="yellow_money" x="0" y="0" width="32" height="32" style="fill:none;"/><g id="outline"><rect x="2" y="7" width="28" height="18" style="fill:none;stroke:#000;stroke-width:4px;"/></g><g id="emoji"><path d="M29,21l-26,0l-1,1l0,3l28,0l0,-3l-1,-1Z" style="fill:#948f35;"/><rect x="2" y="7" width="28" height="15" style="fill:#c5c05c;"/><path d="M24,12c0,-0.552 -0.448,-1 -1,-1c-0.871,0 -2.129,0 -3,0c-0.552,0 -1,0.448 -1,1c0,0.322 0,0.678 0,1c0,0.552 0.448,1 1,1c0.871,0 2.129,0 3,0c0.552,0 1,-0.448 1,-1c0,-0.322 0,-0.678 0,-1Z" style="fill:#808537;"/><path d="M24,16c0,-0.552 -0.448,-1 -1,-1c-0.871,0 -2.129,0 -3,0c-0.552,0 -1,0.448 -1,1c0,0.322 0,0.678 0,1c0,0.552 0.448,1 1,1c0.871,0 2.129,0 3,0c0.552,0 1,-0.448 1,-1c0,-0.322 0,-0.678 0,-1Z" style="fill:#808537;"/><path d="M25,10c0,0 0.771,-0.771 1.207,-1.207c0.188,-0.188 0.442,-0.293 0.707,-0.293c0.586,0 1.586,0 1.586,0c0,0 0,1 0,1.586c0,0.265 -0.105,0.519 -0.293,0.707c-0.436,0.436 -1.207,1.207 -1.207,1.207" style="fill:none;stroke:#808537;stroke-width:1px;stroke-linecap:butt;stroke-linejoin:miter;"/><path d="M7,10c0,0 -0.771,-0.771 -1.207,-1.207c-0.188,-0.188 -0.442,-0.293 -0.707,-0.293c-0.586,0 -1.586,0 -1.586,0c0,0 0,1 0,1.586c0,0.265 0.105,0.519 0.293,0.707c0.436,0.436 1.207,1.207 1.207,1.207" style="fill:none;stroke:#808537;stroke-width:1px;stroke-linecap:butt;stroke-linejoin:miter;"/><path d="M25,19c0,0 0.771,0.771 1.207,1.207c0.188,0.188 0.442,0.293 0.707,0.293c0.586,0 1.586,0 1.586,0c0,0 0,-1 0,-1.586c0,-0.265 -0.105,-0.519 -0.293,-0.707c-0.436,-0.436 -1.207,-1.207 -1.207,-1.207" style="fill:none;stroke:#808537;stroke-width:1px;stroke-linecap:butt;stroke-linejoin:miter;"/><path d="M7,19c0,0 -0.771,0.771 -1.207,1.207c-0.188,0.188 -0.442,0.293 -0.707,0.293c-0.586,0 -1.586,0 -1.586,0c0,0 0,-1 0,-1.586c0,-0.265 0.105,-0.519 0.293,-0.707c0.436,-0.436 1.207,-1.207 1.207,-1.207" style="fill:none;stroke:#808537;stroke-width:1px;stroke-linecap:butt;stroke-linejoin:miter;"/><path d="M12.958,11l1.042,0l0,2l1,0l0,1l-1,0l0,1l1,0l0,1l-1,0l0,2l-1,0l0,-2l-1.042,0l-0.729,1.75l-0.458,0l-0.729,-1.75l-1.042,0l0,2l-1,0l0,-2l-1,0l0,-1l1,0l0,-1l-1,0l0,-1l1,0l0,-2l1.042,0l0.833,2l2.25,0l0.833,-2Zm-3.75,3l-0.208,0l0,1l0.625,0l-0.417,-1Zm2.5,0l-1.416,0l0.416,1l0.584,0l0.416,-1Zm1.292,0l-0.208,0l-0.417,1l0.625,0l0,-1Z" style="fill:#fff;"/><path d="M20,22l-1,-1l-6,0l-1,1l0,3l8,0l0,-3Z" style="fill:#bdbdbd;"/><rect x="12" y="7" width="8" height="15" style="fill:#ededed;"/></g></svg>