<?xml version="1.0" encoding="UTF-8" standalone="no"?><!DOCTYPE svg PUBLIC "-//W3C//DTD SVG 1.1//EN" "http://www.w3.org/Graphics/SVG/1.1/DTD/svg11.dtd"><svg width="100%" height="100%" viewBox="0 0 32 32" version="1.1" xmlns="http://www.w3.org/2000/svg" xmlns:xlink="http://www.w3.org/1999/xlink" xml:space="preserve" xmlns:serif="http://www.serif.com/" style="fill-rule:evenodd;clip-rule:evenodd;stroke-linejoin:round;stroke-miterlimit:1.41421;"><rect id="bookmark" x="0" y="0" width="32" height="32" style="fill:none;"/><clipPath id="_clip1"><rect x="0" y="0" width="32" height="32"/></clipPath><g clip-path="url(#_clip1)"><g id="outline"><path d="M28,9.172l0,22.828l-24,0l0,-32l14.828,0l9.172,9.172Zm-20,-5.172l0,24l16,0l0,-17.172l-6.828,-6.828l-9.172,0Z"/><path d="M30,27l-11.025,0l-0.128,-0.003l-0.151,-0.012l-0.15,-0.019l-0.148,-0.026l-0.146,-0.034l-0.143,-0.041l-0.141,-0.047l-0.136,-0.054l-0.134,-0.06l-0.13,-0.067l-0.125,-0.072l-0.122,-0.078l-0.117,-0.084l-0.113,-0.088l-0.109,-0.094l-0.104,-0.099l-0.099,-0.104l-0.094,-0.108l-0.088,-0.114l-0.084,-0.117l-0.078,-0.122l-0.072,-0.126l-0.067,-0.129l-0.06,-0.133l-0.054,-0.137l-0.047,-0.14l-0.041,-0.143l-0.034,-0.147l-0.026,-0.148l-0.019,-0.15l-0.012,-0.152l-0.003,-0.126l0,-6.052l0.003,-0.126l0.012,-0.152l0.019,-0.15l0.026,-0.148l0.034,-0.147l0.041,-0.143l0.047,-0.14l0.054,-0.137l0.06,-0.133l0.067,-0.129l0.072,-0.126l0.078,-0.122l0.084,-0.117l0.088,-0.114l0.094,-0.108l0.099,-0.104l0.104,-0.099l0.109,-0.094l0.113,-0.088l0.117,-0.084l0.122,-0.078l0.125,-0.072l0.13,-0.067l0.134,-0.06l0.136,-0.054l0.141,-0.047l0.143,-0.041l0.146,-0.034l0.148,-0.026l0.15,-0.019l0.151,-0.012l0.128,-0.003l11.025,0l0,12Zm-4,-4l0,-4l-6,0l0,4l6,0Z"/></g><g id="emoji"><path d="M26,30l-20,0l0,-28l12,0l1,2l5,5l2,1l0,20Z" style="fill:#fff;"/><rect x="8" y="8" width="16" height="2" style="fill:#b2b2b2;"/><rect x="8" y="11" width="16" height="2" style="fill:#b2b2b2;"/><rect x="8" y="14" width="16" height="2" style="fill:#b2b2b2;"/><rect x="8" y="17" width="16" height="2" style="fill:#b2b2b2;"/><rect x="8" y="20" width="16" height="2" style="fill:#b2b2b2;"/><rect x="8" y="23" width="16" height="2" style="fill:#b2b2b2;"/><rect x="8" y="26" width="16" height="2" style="fill:#b2b2b2;"/><path d="M18,10l0,-8l8,8l-8,0Z" style="fill:#666;"/><path d="M28,17c0,0 -5.082,0 -8,0c-0.53,0 -1.039,0.211 -1.414,0.586c-0.375,0.375 -0.586,0.884 -0.586,1.414c0,1.222 0,2.778 0,4c0,0.53 0.211,1.039 0.586,1.414c0.375,0.375 0.884,0.586 1.414,0.586c2.918,0 8,0 8,0l0,-8Z" style="fill:#334cec;"/></g></g></svg>