<?xml version="1.0" encoding="UTF-8" standalone="no"?>
<!DOCTYPE svg PUBLIC "-//W3C//DTD SVG 1.1//EN" "http://www.w3.org/Graphics/SVG/1.1/DTD/svg11.dtd">
<svg width="100%" height="100%" viewBox="0 0 32 32" version="1.1" xmlns="http://www.w3.org/2000/svg" xmlns:xlink="http://www.w3.org/1999/xlink" xml:space="preserve" xmlns:serif="http://www.serif.com/" style="fill-rule:evenodd;clip-rule:evenodd;stroke-linejoin:round;stroke-miterlimit:2;">
    <rect id="calendar_spiral" x="0" y="0" width="32" height="32" style="fill:none;"/>
    <clipPath id="_clip1">
        <rect x="0" y="0" width="32" height="32"/>
    </clipPath>
    <g clip-path="url(#_clip1)">
        <g id="outline">
            <path d="M32,5c0,-1.105 -0.895,-2 -2,-2c-5.746,0 -22.254,0 -28,0c-1.105,0 -2,0.895 -2,2c0,5.306 0,19.694 0,25c0,1.105 0.895,2 2,2c5.746,0 22.254,0 28,0c1.105,0 2,-0.895 2,-2c0,-5.306 0,-19.694 0,-25Z"/>
            <path d="M22.149,0.003l0.147,0.011l0.147,0.018l0.145,0.026l0.143,0.032l0.142,0.039l0.139,0.046l0.136,0.053l0.134,0.059l0.131,0.066l0.128,0.072l0.124,0.079l0.12,0.084l0.117,0.091l0.112,0.097l0.108,0.102l0.102,0.108l0.097,0.112l0.091,0.117l0.084,0.12l0.079,0.125l0.072,0.127l0.066,0.131l0.059,0.134l0.053,0.136l0.046,0.139l0.039,0.142l0.032,0.143l0.026,0.145l0.018,0.147l0.011,0.147l0.003,0.124l0,4.05l-0.003,0.124l-0.011,0.147l-0.018,0.147l-0.026,0.145l-0.032,0.143l-0.039,0.142l-0.046,0.139l-0.053,0.136l-0.059,0.134l-0.066,0.131l-0.072,0.128l-0.078,0.124l-0.085,0.12l-0.091,0.117l-0.097,0.112l-0.102,0.108l-0.108,0.102l-0.112,0.097l-0.117,0.091l-0.12,0.084l-0.124,0.079l-0.128,0.072l-0.131,0.066l-0.134,0.059l-0.136,0.053l-0.139,0.046l-0.142,0.039l-0.143,0.032l-0.145,0.026l-0.147,0.018l-0.147,0.011l-0.149,0.004l-0.149,-0.004l-0.147,-0.011l-0.147,-0.018l-0.145,-0.026l-0.143,-0.032l-0.142,-0.039l-0.139,-0.046l-0.136,-0.053l-0.134,-0.059l-0.131,-0.066l-0.128,-0.072l-0.124,-0.079l-0.12,-0.084l-0.117,-0.091l-0.112,-0.097l-0.108,-0.102l-0.102,-0.108l-0.097,-0.112l-0.091,-0.117l-0.084,-0.12l-0.079,-0.124l-0.072,-0.128l-0.066,-0.131l-0.059,-0.134l-0.053,-0.136l-0.046,-0.139l-0.039,-0.142l-0.032,-0.143l-0.026,-0.145l-0.018,-0.147l-0.011,-0.147l-0.003,-0.124l0,-4.05l0.003,-0.124l0.011,-0.147l0.018,-0.147l0.026,-0.145l0.032,-0.143l0.039,-0.142l0.046,-0.139l0.053,-0.136l0.059,-0.134l0.066,-0.131l0.072,-0.127l0.078,-0.125l0.085,-0.12l0.091,-0.117l0.097,-0.112l0.102,-0.108l0.108,-0.102l0.112,-0.097l0.117,-0.091l0.12,-0.084l0.124,-0.079l0.128,-0.072l0.131,-0.066l0.134,-0.059l0.136,-0.053l0.139,-0.046l0.142,-0.039l0.143,-0.032l0.145,-0.026l0.147,-0.018l0.147,-0.011l0.149,-0.004l0.149,0.004Z"/>
            <path d="M26.149,0.003l0.147,0.011l0.147,0.018l0.145,0.026l0.143,0.032l0.142,0.039l0.139,0.046l0.136,0.053l0.134,0.059l0.131,0.066l0.127,0.072l0.125,0.079l0.12,0.084l0.117,0.091l0.112,0.097l0.108,0.102l0.102,0.108l0.097,0.112l0.091,0.117l0.084,0.12l0.079,0.124l0.072,0.128l0.066,0.131l0.059,0.134l0.053,0.136l0.046,0.139l0.039,0.142l0.032,0.143l0.026,0.145l0.018,0.147l0.011,0.147l0.003,0.124l0,4.05l-0.003,0.124l-0.011,0.147l-0.018,0.147l-0.026,0.145l-0.032,0.143l-0.039,0.142l-0.046,0.139l-0.053,0.136l-0.059,0.134l-0.066,0.131l-0.072,0.128l-0.079,0.124l-0.084,0.12l-0.091,0.117l-0.097,0.112l-0.102,0.108l-0.108,0.102l-0.112,0.097l-0.117,0.091l-0.12,0.084l-0.125,0.079l-0.127,0.072l-0.131,0.066l-0.134,0.059l-0.136,0.053l-0.139,0.046l-0.142,0.039l-0.143,0.032l-0.145,0.026l-0.147,0.018l-0.147,0.011l-0.149,0.004l-0.149,-0.004l-0.147,-0.011l-0.147,-0.018l-0.145,-0.026l-0.143,-0.032l-0.142,-0.039l-0.139,-0.046l-0.136,-0.053l-0.134,-0.059l-0.131,-0.066l-0.128,-0.072l-0.124,-0.079l-0.12,-0.084l-0.117,-0.091l-0.112,-0.097l-0.108,-0.102l-0.102,-0.108l-0.097,-0.112l-0.091,-0.117l-0.084,-0.12l-0.079,-0.124l-0.072,-0.128l-0.066,-0.131l-0.059,-0.134l-0.053,-0.136l-0.046,-0.139l-0.039,-0.142l-0.032,-0.143l-0.026,-0.145l-0.018,-0.147l-0.011,-0.147l-0.003,-0.124l0,-4.05l0.003,-0.124l0.011,-0.147l0.018,-0.147l0.026,-0.145l0.032,-0.143l0.039,-0.142l0.046,-0.139l0.053,-0.136l0.059,-0.134l0.066,-0.131l0.072,-0.127l0.079,-0.125l0.084,-0.12l0.091,-0.117l0.097,-0.112l0.102,-0.108l0.108,-0.102l0.112,-0.097l0.117,-0.091l0.12,-0.084l0.124,-0.079l0.128,-0.072l0.131,-0.066l0.134,-0.059l0.136,-0.053l0.139,-0.046l0.142,-0.039l0.143,-0.032l0.145,-0.026l0.147,-0.018l0.147,-0.011l0.149,-0.004l0.149,0.004Z"/>
            <path d="M18.149,0.003l0.147,0.011l0.147,0.018l0.145,0.026l0.143,0.032l0.142,0.039l0.139,0.046l0.136,0.053l0.134,0.059l0.131,0.066l0.128,0.072l0.124,0.079l0.12,0.084l0.117,0.091l0.112,0.097l0.108,0.102l0.102,0.108l0.097,0.112l0.091,0.117l0.084,0.12l0.079,0.125l0.072,0.127l0.066,0.131l0.059,0.134l0.053,0.136l0.046,0.139l0.039,0.142l0.032,0.143l0.026,0.145l0.018,0.147l0.011,0.147l0.003,0.124l0,4.05l-0.003,0.124l-0.011,0.147l-0.018,0.147l-0.026,0.145l-0.032,0.143l-0.039,0.142l-0.046,0.139l-0.053,0.136l-0.059,0.134l-0.066,0.131l-0.072,0.128l-0.079,0.124l-0.084,0.12l-0.091,0.117l-0.097,0.112l-0.102,0.108l-0.108,0.102l-0.112,0.097l-0.117,0.091l-0.12,0.084l-0.124,0.079l-0.128,0.072l-0.131,0.066l-0.134,0.059l-0.136,0.053l-0.139,0.046l-0.142,0.039l-0.143,0.032l-0.145,0.026l-0.147,0.018l-0.147,0.011l-0.149,0.004l-0.149,-0.004l-0.147,-0.011l-0.147,-0.018l-0.145,-0.026l-0.143,-0.032l-0.142,-0.039l-0.139,-0.046l-0.136,-0.053l-0.134,-0.059l-0.131,-0.066l-0.127,-0.072l-0.125,-0.079l-0.12,-0.084l-0.117,-0.091l-0.112,-0.097l-0.108,-0.102l-0.102,-0.108l-0.097,-0.112l-0.091,-0.117l-0.084,-0.12l-0.079,-0.124l-0.072,-0.128l-0.066,-0.131l-0.059,-0.134l-0.053,-0.136l-0.046,-0.139l-0.039,-0.142l-0.032,-0.143l-0.026,-0.145l-0.018,-0.147l-0.011,-0.147l-0.003,-0.124l0,-4.05l0.003,-0.124l0.011,-0.147l0.018,-0.147l0.026,-0.145l0.032,-0.143l0.039,-0.142l0.046,-0.139l0.053,-0.136l0.059,-0.134l0.066,-0.131l0.072,-0.128l0.079,-0.124l0.084,-0.12l0.091,-0.117l0.097,-0.112l0.102,-0.108l0.108,-0.102l0.112,-0.097l0.117,-0.091l0.12,-0.084l0.125,-0.079l0.127,-0.072l0.131,-0.066l0.134,-0.059l0.136,-0.053l0.139,-0.046l0.142,-0.039l0.143,-0.032l0.145,-0.026l0.147,-0.018l0.147,-0.011l0.149,-0.004l0.149,0.004Z"/>
            <path d="M14.149,0.003l0.147,0.011l0.147,0.018l0.145,0.026l0.143,0.032l0.142,0.039l0.139,0.046l0.136,0.053l0.134,0.059l0.131,0.066l0.127,0.072l0.125,0.079l0.12,0.084l0.117,0.091l0.112,0.097l0.108,0.102l0.102,0.108l0.097,0.112l0.091,0.117l0.084,0.12l0.079,0.124l0.072,0.128l0.066,0.131l0.059,0.134l0.053,0.136l0.046,0.139l0.039,0.142l0.032,0.143l0.026,0.145l0.018,0.147l0.011,0.147l0.003,0.124l0,4.05l-0.003,0.124l-0.011,0.147l-0.018,0.147l-0.026,0.145l-0.032,0.143l-0.039,0.142l-0.046,0.139l-0.053,0.136l-0.059,0.134l-0.066,0.131l-0.072,0.128l-0.079,0.124l-0.084,0.12l-0.091,0.117l-0.097,0.112l-0.102,0.108l-0.108,0.102l-0.112,0.097l-0.117,0.091l-0.12,0.084l-0.125,0.079l-0.127,0.072l-0.131,0.066l-0.134,0.059l-0.136,0.053l-0.139,0.046l-0.142,0.039l-0.143,0.032l-0.145,0.026l-0.147,0.018l-0.147,0.011l-0.149,0.004l-0.149,-0.004l-0.147,-0.011l-0.147,-0.018l-0.145,-0.026l-0.143,-0.032l-0.142,-0.039l-0.139,-0.046l-0.136,-0.053l-0.134,-0.059l-0.131,-0.066l-0.128,-0.072l-0.124,-0.079l-0.12,-0.084l-0.117,-0.091l-0.112,-0.097l-0.108,-0.102l-0.102,-0.108l-0.097,-0.112l-0.091,-0.117l-0.084,-0.12l-0.079,-0.124l-0.072,-0.128l-0.066,-0.131l-0.059,-0.134l-0.053,-0.136l-0.046,-0.139l-0.039,-0.142l-0.032,-0.143l-0.026,-0.145l-0.018,-0.147l-0.011,-0.147l-0.003,-0.124l0,-4.05l0.003,-0.124l0.011,-0.147l0.018,-0.147l0.026,-0.145l0.032,-0.143l0.039,-0.142l0.046,-0.139l0.053,-0.136l0.059,-0.134l0.066,-0.131l0.072,-0.127l0.079,-0.125l0.084,-0.12l0.091,-0.117l0.097,-0.112l0.102,-0.108l0.108,-0.102l0.112,-0.097l0.117,-0.091l0.12,-0.084l0.124,-0.079l0.128,-0.072l0.131,-0.066l0.134,-0.059l0.136,-0.053l0.139,-0.046l0.142,-0.039l0.143,-0.032l0.145,-0.026l0.147,-0.018l0.147,-0.011l0.149,-0.004l0.149,0.004Z"/>
            <path d="M10.149,0.003l0.147,0.011l0.147,0.018l0.145,0.026l0.143,0.032l0.142,0.039l0.139,0.046l0.136,0.053l0.134,0.059l0.131,0.066l0.128,0.072l0.124,0.079l0.12,0.084l0.117,0.091l0.112,0.097l0.108,0.102l0.102,0.108l0.097,0.112l0.091,0.117l0.084,0.12l0.079,0.125l0.072,0.127l0.066,0.131l0.059,0.134l0.053,0.136l0.046,0.139l0.039,0.142l0.032,0.143l0.026,0.145l0.018,0.147l0.011,0.147l0.003,0.124l0,4.05l-0.003,0.124l-0.011,0.147l-0.018,0.147l-0.026,0.145l-0.032,0.143l-0.039,0.142l-0.046,0.139l-0.053,0.136l-0.059,0.134l-0.066,0.131l-0.072,0.128l-0.078,0.124l-0.085,0.12l-0.091,0.117l-0.097,0.112l-0.102,0.108l-0.108,0.102l-0.112,0.097l-0.117,0.091l-0.12,0.084l-0.124,0.079l-0.128,0.072l-0.131,0.066l-0.134,0.059l-0.136,0.053l-0.139,0.046l-0.142,0.039l-0.143,0.032l-0.145,0.026l-0.147,0.018l-0.147,0.011l-0.149,0.004l-0.149,-0.004l-0.147,-0.011l-0.147,-0.018l-0.145,-0.026l-0.143,-0.032l-0.142,-0.039l-0.139,-0.046l-0.136,-0.053l-0.134,-0.059l-0.131,-0.066l-0.128,-0.072l-0.124,-0.079l-0.12,-0.084l-0.117,-0.091l-0.112,-0.097l-0.108,-0.102l-0.102,-0.108l-0.097,-0.112l-0.091,-0.117l-0.084,-0.12l-0.079,-0.124l-0.072,-0.128l-0.066,-0.131l-0.059,-0.134l-0.053,-0.136l-0.046,-0.139l-0.039,-0.142l-0.032,-0.143l-0.026,-0.145l-0.018,-0.147l-0.011,-0.147l-0.003,-0.124l0,-4.05l0.003,-0.124l0.011,-0.147l0.018,-0.147l0.026,-0.145l0.032,-0.143l0.039,-0.142l0.046,-0.139l0.053,-0.136l0.059,-0.134l0.066,-0.131l0.072,-0.127l0.078,-0.125l0.085,-0.12l0.091,-0.117l0.097,-0.112l0.102,-0.108l0.108,-0.102l0.112,-0.097l0.117,-0.091l0.12,-0.084l0.124,-0.079l0.128,-0.072l0.131,-0.066l0.134,-0.059l0.136,-0.053l0.139,-0.046l0.142,-0.039l0.143,-0.032l0.145,-0.026l0.147,-0.018l0.147,-0.011l0.149,-0.004l0.149,0.004Z"/>
            <path d="M6.149,0.003l0.147,0.011l0.147,0.018l0.145,0.026l0.143,0.032l0.142,0.039l0.139,0.046l0.136,0.053l0.134,0.059l0.131,0.066l0.128,0.072l0.124,0.079l0.12,0.084l0.117,0.091l0.112,0.097l0.108,0.102l0.102,0.108l0.097,0.112l0.091,0.117l0.084,0.12l0.079,0.125l0.072,0.127l0.066,0.131l0.059,0.134l0.053,0.136l0.046,0.139l0.039,0.142l0.032,0.143l0.026,0.145l0.018,0.147l0.011,0.147l0.003,0.124l0,4.05l-0.003,0.124l-0.011,0.147l-0.018,0.147l-0.026,0.145l-0.032,0.143l-0.039,0.142l-0.046,0.139l-0.053,0.136l-0.059,0.134l-0.066,0.131l-0.072,0.128l-0.079,0.124l-0.084,0.12l-0.091,0.117l-0.097,0.112l-0.102,0.108l-0.108,0.102l-0.112,0.097l-0.117,0.091l-0.12,0.084l-0.124,0.079l-0.128,0.072l-0.131,0.066l-0.134,0.059l-0.136,0.053l-0.139,0.046l-0.142,0.039l-0.143,0.032l-0.145,0.026l-0.147,0.018l-0.147,0.011l-0.149,0.004l-0.149,-0.004l-0.147,-0.011l-0.147,-0.018l-0.145,-0.026l-0.143,-0.032l-0.142,-0.039l-0.139,-0.046l-0.136,-0.053l-0.134,-0.059l-0.131,-0.066l-0.127,-0.072l-0.125,-0.079l-0.12,-0.084l-0.117,-0.091l-0.112,-0.097l-0.108,-0.102l-0.102,-0.108l-0.097,-0.112l-0.091,-0.117l-0.084,-0.12l-0.079,-0.124l-0.072,-0.128l-0.066,-0.131l-0.059,-0.134l-0.053,-0.136l-0.046,-0.139l-0.039,-0.142l-0.032,-0.143l-0.026,-0.145l-0.018,-0.147l-0.011,-0.147l-0.003,-0.124l0,-4.05l0.003,-0.124l0.011,-0.147l0.018,-0.147l0.026,-0.145l0.032,-0.143l0.039,-0.142l0.046,-0.139l0.053,-0.136l0.059,-0.134l0.066,-0.131l0.072,-0.128l0.079,-0.124l0.084,-0.12l0.091,-0.117l0.097,-0.112l0.102,-0.108l0.108,-0.102l0.112,-0.097l0.117,-0.091l0.12,-0.084l0.125,-0.079l0.127,-0.072l0.131,-0.066l0.134,-0.059l0.136,-0.053l0.139,-0.046l0.142,-0.039l0.143,-0.032l0.145,-0.026l0.147,-0.018l0.147,-0.011l0.149,-0.004l0.149,0.004Z"/>
        </g>
        <g id="emoji">
            <rect x="2" y="5" width="28" height="25" style="fill:#fff;"/>
            <g>
                <rect x="4" y="10" width="4" height="4" style="fill:#808080;"/>
                <rect x="9" y="10" width="4" height="4" style="fill:#808080;"/>
                <rect x="14" y="10" width="4" height="4" style="fill:#808080;"/>
                <rect x="19" y="10" width="4" height="4" style="fill:#808080;"/>
                <rect x="24" y="10" width="4" height="4" style="fill:#808080;"/>
                <rect x="4" y="15" width="4" height="4" style="fill:#808080;"/>
                <rect x="9" y="15" width="4" height="4" style="fill:#808080;"/>
                <rect x="14" y="15" width="4" height="4" style="fill:#808080;"/>
                <rect x="19" y="15" width="4" height="4" style="fill:#808080;"/>
                <rect x="24" y="15" width="4" height="4" style="fill:#808080;"/>
                <rect x="4" y="20" width="4" height="4" style="fill:#808080;"/>
                <rect x="9" y="20" width="4" height="4" style="fill:#808080;"/>
                <rect x="14" y="20" width="4" height="4" style="fill:#808080;"/>
            </g>
            <rect x="2" y="26" width="28" height="4" style="fill:#808080;"/>
            <path d="M7,3c0,-0.265 -0.105,-0.52 -0.293,-0.707c-0.187,-0.188 -0.442,-0.293 -0.707,-0.293c0,0 0,0 0,0c-0.265,0 -0.52,0.105 -0.707,0.293c-0.188,0.187 -0.293,0.442 -0.293,0.707c0,1.11 0,2.89 0,4c0,0.265 0.105,0.52 0.293,0.707c0.187,0.188 0.442,0.293 0.707,0.293c0,0 0,0 0,0c0.265,0 0.52,-0.105 0.707,-0.293c0.188,-0.187 0.293,-0.442 0.293,-0.707c0,-1.11 0,-2.89 0,-4Z" style="fill:#666;"/>
            <path d="M11,3c0,-0.265 -0.105,-0.52 -0.293,-0.707c-0.187,-0.188 -0.442,-0.293 -0.707,-0.293c0,0 0,0 0,0c-0.265,0 -0.52,0.105 -0.707,0.293c-0.188,0.187 -0.293,0.442 -0.293,0.707c0,1.11 0,2.89 0,4c0,0.265 0.105,0.52 0.293,0.707c0.187,0.188 0.442,0.293 0.707,0.293c0,0 0,0 0,0c0.265,0 0.52,-0.105 0.707,-0.293c0.188,-0.187 0.293,-0.442 0.293,-0.707c0,-1.11 0,-2.89 0,-4Z" style="fill:#666;"/>
            <path d="M19,3c0,-0.265 -0.105,-0.52 -0.293,-0.707c-0.187,-0.188 -0.442,-0.293 -0.707,-0.293c0,0 0,0 0,0c-0.265,0 -0.52,0.105 -0.707,0.293c-0.188,0.187 -0.293,0.442 -0.293,0.707c0,1.11 0,2.89 0,4c0,0.265 0.105,0.52 0.293,0.707c0.187,0.188 0.442,0.293 0.707,0.293c0,0 0,0 0,0c0.265,0 0.52,-0.105 0.707,-0.293c0.188,-0.187 0.293,-0.442 0.293,-0.707c0,-1.11 0,-2.89 0,-4Z" style="fill:#666;"/>
            <path d="M15,3c0,-0.265 -0.105,-0.52 -0.293,-0.707c-0.187,-0.188 -0.442,-0.293 -0.707,-0.293c0,0 0,0 0,0c-0.265,0 -0.52,0.105 -0.707,0.293c-0.188,0.187 -0.293,0.442 -0.293,0.707c0,1.11 0,2.89 0,4c0,0.265 0.105,0.52 0.293,0.707c0.187,0.188 0.442,0.293 0.707,0.293c0,0 0,0 0,0c0.265,0 0.52,-0.105 0.707,-0.293c0.188,-0.187 0.293,-0.442 0.293,-0.707c0,-1.11 0,-2.89 0,-4Z" style="fill:#666;"/>
            <path d="M23,3c0,-0.265 -0.105,-0.52 -0.293,-0.707c-0.187,-0.188 -0.442,-0.293 -0.707,-0.293c0,0 0,0 0,0c-0.265,0 -0.52,0.105 -0.707,0.293c-0.188,0.187 -0.293,0.442 -0.293,0.707c0,1.11 0,2.89 0,4c0,0.265 0.105,0.52 0.293,0.707c0.187,0.188 0.442,0.293 0.707,0.293c0,0 0,0 0,0c0.265,0 0.52,-0.105 0.707,-0.293c0.188,-0.187 0.293,-0.442 0.293,-0.707c0,-1.11 0,-2.89 0,-4Z" style="fill:#666;"/>
            <path d="M27,3c0,-0.265 -0.105,-0.52 -0.293,-0.707c-0.187,-0.188 -0.442,-0.293 -0.707,-0.293c0,0 0,0 0,0c-0.265,0 -0.52,0.105 -0.707,0.293c-0.188,0.187 -0.293,0.442 -0.293,0.707c0,1.11 0,2.89 0,4c0,0.265 0.105,0.52 0.293,0.707c0.187,0.188 0.442,0.293 0.707,0.293c0,0 0,0 0,0c0.265,0 0.52,-0.105 0.707,-0.293c0.188,-0.187 0.293,-0.442 0.293,-0.707c0,-1.11 0,-2.89 0,-4Z" style="fill:#666;"/>
        </g>
    </g>
</svg>
