<?xml version="1.0" encoding="UTF-8" standalone="no"?>
<!DOCTYPE svg PUBLIC "-//W3C//DTD SVG 1.1//EN" "http://www.w3.org/Graphics/SVG/1.1/DTD/svg11.dtd">
<svg width="100%" height="100%" viewBox="0 0 32 32" version="1.1" xmlns="http://www.w3.org/2000/svg" xmlns:xlink="http://www.w3.org/1999/xlink" xml:space="preserve" xmlns:serif="http://www.serif.com/" style="fill-rule:evenodd;clip-rule:evenodd;stroke-linejoin:round;stroke-miterlimit:1.5;">
    <rect id="curled_page" x="0" y="0" width="32" height="32" style="fill:none;"/>
    <clipPath id="_clip1">
        <rect x="0" y="0" width="32" height="32"/>
    </clipPath>
    <g clip-path="url(#_clip1)">
        <g id="outline">
            <path d="M6,30c-1.657,0 -3,-1.343 -3,-3c0,-7.225 0,-25 0,-25l21,0l0,23l3,0c0,0 0,0.937 0,2c0,1.657 -1.343,3 -3,3l-18,0l0,0Z" style="fill:none;stroke:#000;stroke-width:4px;"/>
        </g>
        <g id="emoji">
            <path d="M3,27l0,-25l21,0l0,23l-2.8,3l-17.2,0l-1,-1Z" style="fill:#fff;"/>
            <path d="M19.2,27l-5.908,2.462c-0.853,0.355 -1.768,0.538 -2.692,0.538c-1.773,0 -4.6,0 -4.6,0l0,0c-1.657,0 -3,-1.343 -3,-3l0,0l16.2,0Z" style="fill:#ddd;"/>
            <path d="M22,20l0,2l-17,0l0,-2l17,0Zm0,-3l0,2l-17,0l0,-2l17,0Zm0,-3l0,2l-17,0l0,-2l17,0Zm0,-3l0,2l-17,0l0,-2l17,0Zm0,-3l0,2l-17,0l0,-2l17,0Zm0,-3l0,2l-17,0l0,-2l17,0Z" style="fill:#b2b2b2;"/>
            <path d="M6,30l18,0c1.657,0 3,-1.343 3,-3c0,-1.063 0,-2 0,-2l-18,0l0,2c0,1.657 -1.343,3 -3,3c0,0 0,0 0,0Z" style="fill:#999;"/>
        </g>
    </g>
</svg>
