<?xml version="1.0" encoding="UTF-8" standalone="no"?>
<!DOCTYPE svg PUBLIC "-//W3C//DTD SVG 1.1//EN" "http://www.w3.org/Graphics/SVG/1.1/DTD/svg11.dtd">
<svg width="100%" height="100%" viewBox="0 0 32 32" version="1.1" xmlns="http://www.w3.org/2000/svg" xmlns:xlink="http://www.w3.org/1999/xlink" xml:space="preserve" xmlns:serif="http://www.serif.com/" style="fill-rule:evenodd;clip-rule:evenodd;stroke-miterlimit:1.5;">
    <rect id="folder" x="0" y="0" width="32" height="32" style="fill:none;"/>
    <clipPath id="_clip1">
        <rect x="0" y="0" width="32" height="32"/>
    </clipPath>
    <g clip-path="url(#_clip1)">
        <g id="outline">
            <path d="M3,4c-0.552,0 -1,0.448 -1,1c0,3.622 0,16.098 0,21c0,0.53 0.211,1.039 0.586,1.414c0.375,0.375 0.884,0.586 1.414,0.586c5.154,0 18.846,0 24,0c1.105,0 2,-0.895 2,-2c0,-4.01 0,-12.99 0,-17c0,-1.105 -0.895,-2 -2,-2c-4.292,0 -14,0 -14,0c0,0 -1.146,-1.719 -1.703,-2.555c-0.186,-0.278 -0.498,-0.445 -0.832,-0.445c-1.602,0 -6.374,0 -8.465,0Z" style="fill:none;stroke:#000;stroke-width:4px;"/>
        </g>
        <g id="emoji">
            <path d="M3,4c-0.552,0 -1,0.448 -1,1c0,3.622 0,16.098 0,21c0,0.53 0.211,1.039 0.586,1.414c0.375,0.375 0.884,0.586 1.414,0.586c5.154,0 18.846,0 24,0c1.105,0 2,-0.895 2,-2c0,-4.01 0,-12.99 0,-17c0,-1.105 -0.895,-2 -2,-2c-4.292,0 -14,0 -14,0c0,0 -1.146,-1.719 -1.703,-2.555c-0.186,-0.278 -0.498,-0.445 -0.832,-0.445c-1.602,0 -6.374,0 -8.465,0Z" style="fill:#10768b;"/>
            <path d="M4,10c-0.53,0 -1.039,0.211 -1.414,0.586c-0.375,0.375 -0.586,0.884 -0.586,1.414c0,3.463 0,10.537 0,14c0,0.53 0.211,1.039 0.586,1.414c0.375,0.375 0.884,0.586 1.414,0.586c5.154,0 18.846,0 24,0c0.53,0 1.039,-0.211 1.414,-0.586c0.375,-0.375 0.586,-0.884 0.586,-1.414c0,-3.463 0,-10.537 0,-14c0,-0.53 -0.211,-1.039 -0.586,-1.414c-0.375,-0.375 -0.884,-0.586 -1.414,-0.586c-5.154,0 -18.846,0 -24,0Z" style="fill:#30bfdb;"/>
        </g>
    </g>
</svg>
