<?xml version="1.0" encoding="UTF-8" standalone="no"?>
<!DOCTYPE svg PUBLIC "-//W3C//DTD SVG 1.1//EN" "http://www.w3.org/Graphics/SVG/1.1/DTD/svg11.dtd">
<svg width="100%" height="100%" viewBox="0 0 32 32" version="1.1" xmlns="http://www.w3.org/2000/svg" xmlns:xlink="http://www.w3.org/1999/xlink" xml:space="preserve" xmlns:serif="http://www.serif.com/" style="fill-rule:evenodd;clip-rule:evenodd;stroke-linecap:round;stroke-linejoin:round;stroke-miterlimit:1.5;">
    <rect id="love_letter" x="0" y="0" width="32" height="32" style="fill:none;"/>
    <clipPath id="_clip1">
        <rect x="0" y="0" width="32" height="32"/>
    </clipPath>
    <g clip-path="url(#_clip1)">
        <g id="outline">
            <path d="M9.82,12c-0.421,-0.486 -0.811,-1.01 -1.149,-1.571c-2.352,-3.897 -0.719,-8.208 2.799,-8.42c2.04,-0.123 3.497,1.013 4.149,2.433c0.058,0.16 0.211,0.267 0.381,0.267c0.171,0 0.323,-0.106 0.382,-0.267c0.651,-1.42 2.108,-2.556 4.148,-2.433c3.518,0.212 5.151,4.523 2.799,8.42c-0.338,0.561 -0.728,1.085 -1.149,1.571l5.82,-0c0.53,-0 1.039,0.211 1.414,0.586c0.375,0.375 0.586,0.884 0.586,1.414l-0,14c0,0.53 -0.211,1.039 -0.586,1.414c-0.375,0.375 -0.884,0.586 -1.414,0.586l-24,0c-0.53,0 -1.039,-0.211 -1.414,-0.586c-0.375,-0.375 -0.586,-0.884 -0.586,-1.414l0,-14c-0,-0.53 0.211,-1.039 0.586,-1.414c0.375,-0.375 0.884,-0.586 1.414,-0.586l5.82,-0Z" style="fill:none;stroke:#000;stroke-width:4px;"/>
        </g>
        <g id="emoji">
            <path d="M28.413,12.043l1.494,1.354c0.061,0.193 0.093,0.396 0.093,0.603l-0,14c0,0.192 -0.027,0.38 -0.08,0.561l-1.45,1.383c-0.153,0.037 -0.31,0.056 -0.47,0.056l-24,0c-0.16,0 -0.317,-0.019 -0.47,-0.056l-1.45,-1.383c-0.053,-0.181 -0.08,-0.369 -0.08,-0.561l0,-14c-0,-0.207 0.032,-0.41 0.093,-0.603l1.494,-1.354c0.135,-0.028 0.273,-0.043 0.413,-0.043l24,-0c0.14,-0 0.278,0.015 0.413,0.043Z" style="fill:#fff;"/>
            <path d="M2.08,28.561l9.371,-8.702l1.686,1.164l-9.607,8.921c-0.355,-0.086 -0.682,-0.268 -0.944,-0.53c-0.24,-0.239 -0.412,-0.534 -0.506,-0.853Zm26.39,1.383l-9.763,-9.066l1.593,-1.25l9.62,8.933c-0.094,0.319 -0.266,0.614 -0.506,0.853c-0.262,0.262 -0.589,0.444 -0.944,0.53Z" style="fill:#ccc;"/>
            <path d="M3.587,12.043l10.461,8.966c1.123,0.963 2.781,0.963 3.904,0l10.461,-8.966c0.376,0.08 0.725,0.267 1.001,0.543c0.229,0.229 0.397,0.508 0.493,0.811l-10.653,9.131c-1.872,1.605 -4.636,1.605 -6.508,-0l-10.653,-9.131c0.096,-0.303 0.264,-0.582 0.493,-0.811c0.276,-0.276 0.625,-0.463 1.001,-0.543Z" style="fill:#999;"/>
            <path d="M7.631,5.814c0.758,4.904 16.153,4.771 16.77,0.263c0.137,1.348 -0.183,2.88 -1.072,4.352c-2.373,3.934 -7.329,6.071 -7.329,6.071c0,-0 -4.956,-2.137 -7.329,-6.071c-0.947,-1.569 -1.248,-3.206 -1.04,-4.615Z" style="fill:#ce0249;"/>
            <path d="M24.401,6.077c-0.617,4.508 -6.604,8.28 -8.401,8.31c-1.951,0.032 -7.611,-3.669 -8.369,-8.573c0.309,-2.09 1.738,-3.678 3.839,-3.805c2.04,-0.123 3.497,1.013 4.149,2.433c0.058,0.16 0.211,0.267 0.381,0.267c0.171,0 0.323,-0.106 0.382,-0.267c0.651,-1.42 2.108,-2.556 4.148,-2.433c2.188,0.132 3.648,1.85 3.871,4.068Z" style="fill:#ff3c80;"/>
        </g>
    </g>
</svg>
