<?xml version="1.0" encoding="UTF-8" standalone="no"?><!DOCTYPE svg PUBLIC "-//W3C//DTD SVG 1.1//EN" "http://www.w3.org/Graphics/SVG/1.1/DTD/svg11.dtd"><svg width="100%" height="100%" viewBox="0 0 32 32" version="1.1" xmlns="http://www.w3.org/2000/svg" xmlns:xlink="http://www.w3.org/1999/xlink" xml:space="preserve" xmlns:serif="http://www.serif.com/" style="fill-rule:evenodd;clip-rule:evenodd;stroke-linejoin:round;stroke-miterlimit:1.41421;"><rect id="magnifying_glass_left" x="0" y="0" width="32" height="32" style="fill:none;"/><clipPath id="_clip1"><rect x="0" y="0" width="32" height="32"/></clipPath><g clip-path="url(#_clip1)"><g id="outline"><circle cx="12" cy="12" r="10" style="fill:#7698ed;"/><path d="M12.154,0.001l0.155,0.003l0.153,0.005l0.154,0.007l0.152,0.008l0.153,0.011l0.152,0.012l0.151,0.015l0.151,0.016l0.15,0.018l0.15,0.02l0.149,0.022l0.149,0.024l0.148,0.025l0.148,0.028l0.147,0.029l0.146,0.031l0.146,0.033l0.144,0.034l0.145,0.036l0.143,0.038l0.143,0.04l0.142,0.041l0.142,0.043l0.14,0.045l0.14,0.046l0.14,0.049l0.138,0.049l0.138,0.052l0.136,0.053l0.136,0.054l0.135,0.057l0.135,0.057l0.133,0.06l0.133,0.061l0.131,0.062l0.131,0.064l0.13,0.066l0.129,0.067l0.128,0.068l0.127,0.071l0.126,0.071l0.125,0.073l0.125,0.075l0.123,0.075l0.122,0.078l0.121,0.079l0.12,0.08l0.119,0.081l0.119,0.083l0.117,0.085l0.116,0.085l0.114,0.087l0.114,0.089l0.113,0.089l0.112,0.091l0.11,0.093l0.109,0.093l0.109,0.095l0.107,0.096l0.105,0.098l0.105,0.098l0.104,0.1l0.102,0.101l0.101,0.102l0.1,0.104l0.098,0.105l0.098,0.105l0.096,0.107l0.095,0.109l0.093,0.109l0.093,0.11l0.091,0.112l0.089,0.113l0.089,0.114l0.087,0.114l0.085,0.116l0.085,0.117l0.083,0.118l0.081,0.12l0.08,0.12l0.079,0.121l0.078,0.122l0.075,0.123l0.075,0.125l0.073,0.125l0.071,0.126l0.071,0.127l0.068,0.128l0.067,0.129l0.066,0.13l0.064,0.131l0.062,0.131l0.061,0.133l0.06,0.133l0.057,0.134l0.057,0.136l0.054,0.136l0.053,0.137l0.052,0.137l0.049,0.138l0.049,0.14l0.046,0.139l0.045,0.141l0.043,0.142l0.041,0.142l0.04,0.143l0.038,0.143l0.036,0.145l0.034,0.144l0.033,0.146l0.031,0.146l0.029,0.147l0.027,0.148l0.026,0.148l0.024,0.149l0.022,0.149l0.02,0.15l0.018,0.15l0.016,0.151l0.015,0.151l0.012,0.152l0.011,0.152l0.008,0.153l0.007,0.154l0.005,0.153l0.003,0.154l0.001,0.155l-0.001,0.155l-0.003,0.154l-0.005,0.153l-0.007,0.154l-0.008,0.153l-0.011,0.152l-0.012,0.152l-0.015,0.151l-0.016,0.151l-0.018,0.15l-0.02,0.15l-0.022,0.149l-0.024,0.149l-0.026,0.148l-0.027,0.148l-0.029,0.147l-0.031,0.146l-0.033,0.146l-0.034,0.144l-0.036,0.145l-0.038,0.143l-0.04,0.143l-0.041,0.142l-0.043,0.142l-0.045,0.141l-0.046,0.139l-0.049,0.14l-0.049,0.138l-0.052,0.137l-0.053,0.137l-0.054,0.136l-0.057,0.136l-0.057,0.134l-0.06,0.133l-0.061,0.133l-0.062,0.131l-0.064,0.131l-0.066,0.13l-0.067,0.129l-0.068,0.128l-0.071,0.127l-0.071,0.126l-0.073,0.125l-0.075,0.125l-0.075,0.123l-0.078,0.122l-0.079,0.121l-0.08,0.12l-0.081,0.12l-0.083,0.118l-0.085,0.117l-0.085,0.116l-0.087,0.114l-0.089,0.114l-0.089,0.113l-0.091,0.112l-0.093,0.11l-0.093,0.109l-0.095,0.109l-0.096,0.107l-0.098,0.105l-0.098,0.105l-0.1,0.104l-0.101,0.102l-0.102,0.101l-0.104,0.1l-0.105,0.098l-0.105,0.098l-0.107,0.096l-0.109,0.095l-0.109,0.093l-0.11,0.093l-0.112,0.091l-0.113,0.089l-0.114,0.089l-0.114,0.087l-0.116,0.085l-0.117,0.085l-0.119,0.083l-0.119,0.081l-0.12,0.08l-0.121,0.079l-0.122,0.078l-0.123,0.075l-0.125,0.075l-0.125,0.073l-0.126,0.071l-0.127,0.071l-0.128,0.068l-0.129,0.067l-0.13,0.066l-0.131,0.064l-0.131,0.062l-0.133,0.061l-0.133,0.06l-0.135,0.057l-0.135,0.057l-0.136,0.054l-0.136,0.053l-0.138,0.052l-0.138,0.049l-0.14,0.049l-0.14,0.046l-0.14,0.045l-0.142,0.043l-0.142,0.041l-0.143,0.04l-0.143,0.038l-0.145,0.036l-0.144,0.034l-0.146,0.033l-0.146,0.031l-0.147,0.029l-0.148,0.028l-0.148,0.025l-0.149,0.024l-0.149,0.022l-0.15,0.02l-0.15,0.018l-0.151,0.016l-0.151,0.015l-0.152,0.012l-0.153,0.011l-0.152,0.008l-0.154,0.007l-0.153,0.005l-0.155,0.003l-0.154,0.001l-0.154,-0.001l-0.155,-0.003l-0.153,-0.005l-0.154,-0.007l-0.152,-0.008l-0.153,-0.011l-0.152,-0.012l-0.151,-0.015l-0.151,-0.016l-0.15,-0.018l-0.15,-0.02l-0.149,-0.022l-0.149,-0.024l-0.148,-0.025l-0.148,-0.028l-0.147,-0.029l-0.146,-0.031l-0.146,-0.033l-0.144,-0.034l-0.145,-0.036l-0.143,-0.038l-0.143,-0.04l-0.142,-0.041l-0.142,-0.043l-0.14,-0.045l-0.14,-0.046l-0.14,-0.049l-0.138,-0.049l-0.138,-0.052l-0.136,-0.053l-0.136,-0.054l-0.135,-0.057l-0.135,-0.057l-0.133,-0.06l-0.133,-0.061l-0.131,-0.062l-0.131,-0.064l-0.13,-0.066l-0.129,-0.067l-0.128,-0.068l-0.127,-0.071l-0.126,-0.071l-0.125,-0.073l-0.125,-0.075l-0.123,-0.075l-0.122,-0.078l-0.121,-0.079l-0.12,-0.08l-0.119,-0.081l-0.119,-0.083l-0.117,-0.085l-0.116,-0.085l-0.114,-0.087l-0.114,-0.089l-0.113,-0.089l-0.112,-0.091l-0.11,-0.093l-0.109,-0.093l-0.109,-0.095l-0.107,-0.096l-0.105,-0.098l-0.105,-0.098l-0.104,-0.1l-0.102,-0.101l-0.101,-0.102l-0.1,-0.104l-0.098,-0.105l-0.098,-0.105l-0.096,-0.107l-0.095,-0.109l-0.093,-0.109l-0.093,-0.11l-0.091,-0.112l-0.089,-0.113l-0.089,-0.114l-0.087,-0.114l-0.085,-0.116l-0.085,-0.117l-0.083,-0.118l-0.081,-0.12l-0.08,-0.12l-0.079,-0.121l-0.078,-0.122l-0.075,-0.123l-0.075,-0.125l-0.073,-0.125l-0.071,-0.126l-0.071,-0.127l-0.068,-0.128l-0.067,-0.129l-0.066,-0.13l-0.064,-0.131l-0.062,-0.131l-0.061,-0.133l-0.06,-0.133l-0.057,-0.134l-0.057,-0.136l-0.054,-0.136l-0.053,-0.137l-0.052,-0.137l-0.049,-0.138l-0.049,-0.14l-0.046,-0.139l-0.045,-0.141l-0.043,-0.142l-0.041,-0.142l-0.04,-0.143l-0.038,-0.143l-0.036,-0.145l-0.034,-0.144l-0.033,-0.146l-0.031,-0.146l-0.029,-0.147l-0.027,-0.148l-0.026,-0.148l-0.024,-0.149l-0.022,-0.149l-0.02,-0.15l-0.018,-0.15l-0.016,-0.151l-0.015,-0.151l-0.012,-0.152l-0.011,-0.152l-0.008,-0.153l-0.007,-0.154l-0.005,-0.153l-0.003,-0.154l-0.001,-0.155l0.001,-0.155l0.003,-0.154l0.005,-0.153l0.007,-0.154l0.008,-0.153l0.011,-0.152l0.012,-0.152l0.015,-0.151l0.016,-0.151l0.018,-0.15l0.02,-0.15l0.022,-0.149l0.024,-0.149l0.026,-0.148l0.027,-0.148l0.029,-0.147l0.031,-0.146l0.033,-0.146l0.034,-0.144l0.036,-0.145l0.038,-0.143l0.04,-0.143l0.041,-0.142l0.043,-0.142l0.045,-0.141l0.046,-0.139l0.049,-0.14l0.049,-0.138l0.052,-0.137l0.053,-0.137l0.054,-0.136l0.057,-0.136l0.057,-0.134l0.06,-0.133l0.061,-0.133l0.062,-0.131l0.064,-0.131l0.066,-0.13l0.067,-0.129l0.068,-0.128l0.071,-0.127l0.071,-0.126l0.073,-0.125l0.075,-0.125l0.075,-0.123l0.078,-0.122l0.079,-0.121l0.08,-0.12l0.081,-0.12l0.083,-0.118l0.085,-0.117l0.085,-0.116l0.087,-0.114l0.089,-0.114l0.089,-0.113l0.091,-0.112l0.093,-0.11l0.093,-0.109l0.095,-0.109l0.096,-0.107l0.098,-0.105l0.098,-0.105l0.1,-0.104l0.101,-0.102l0.102,-0.101l0.104,-0.1l0.105,-0.098l0.105,-0.098l0.107,-0.096l0.109,-0.095l0.109,-0.093l0.11,-0.093l0.112,-0.091l0.113,-0.089l0.114,-0.089l0.114,-0.087l0.116,-0.085l0.117,-0.085l0.119,-0.083l0.119,-0.081l0.12,-0.08l0.121,-0.079l0.122,-0.078l0.123,-0.075l0.125,-0.075l0.125,-0.073l0.126,-0.071l0.127,-0.071l0.128,-0.068l0.129,-0.067l0.13,-0.066l0.131,-0.064l0.131,-0.062l0.133,-0.061l0.133,-0.06l0.135,-0.057l0.135,-0.057l0.136,-0.054l0.136,-0.053l0.138,-0.052l0.138,-0.049l0.14,-0.049l0.14,-0.046l0.14,-0.045l0.142,-0.043l0.142,-0.041l0.143,-0.04l0.143,-0.038l0.145,-0.036l0.144,-0.034l0.146,-0.033l0.146,-0.031l0.147,-0.029l0.148,-0.028l0.148,-0.025l0.149,-0.024l0.149,-0.022l0.15,-0.02l0.15,-0.018l0.151,-0.016l0.151,-0.015l0.152,-0.012l0.153,-0.011l0.152,-0.008l0.154,-0.007l0.153,-0.005l0.155,-0.003l0.154,-0.001l0.154,0.001Zm-0.258,4l-0.103,0.002l-0.103,0.003l-0.103,0.004l-0.102,0.006l-0.102,0.007l-0.101,0.009l-0.102,0.009l-0.1,0.011l-0.1,0.012l-0.1,0.014l-0.1,0.014l-0.099,0.016l-0.098,0.017l-0.098,0.018l-0.098,0.02l-0.097,0.02l-0.097,0.022l-0.096,0.023l-0.096,0.024l-0.096,0.025l-0.094,0.026l-0.095,0.028l-0.094,0.029l-0.093,0.029l-0.093,0.031l-0.093,0.032l-0.092,0.033l-0.091,0.034l-0.091,0.036l-0.091,0.036l-0.089,0.037l-0.09,0.039l-0.088,0.039l-0.089,0.041l-0.087,0.041l-0.087,0.043l-0.087,0.044l-0.086,0.044l-0.085,0.046l-0.084,0.047l-0.085,0.047l-0.083,0.049l-0.083,0.05l-0.082,0.05l-0.081,0.052l-0.081,0.052l-0.081,0.054l-0.079,0.054l-0.079,0.056l-0.078,0.056l-0.078,0.057l-0.076,0.058l-0.076,0.059l-0.076,0.06l-0.074,0.061l-0.074,0.062l-0.073,0.062l-0.073,0.064l-0.071,0.064l-0.071,0.065l-0.07,0.066l-0.069,0.067l-0.068,0.068l-0.068,0.068l-0.067,0.069l-0.066,0.07l-0.065,0.071l-0.064,0.072l-0.064,0.072l-0.062,0.073l-0.062,0.074l-0.061,0.074l-0.06,0.076l-0.059,0.076l-0.058,0.076l-0.057,0.078l-0.056,0.078l-0.056,0.079l-0.054,0.079l-0.054,0.081l-0.052,0.081l-0.052,0.081l-0.05,0.082l-0.05,0.083l-0.049,0.083l-0.047,0.084l-0.047,0.085l-0.046,0.085l-0.044,0.086l-0.044,0.087l-0.043,0.087l-0.041,0.087l-0.041,0.089l-0.039,0.088l-0.039,0.09l-0.037,0.09l-0.036,0.09l-0.036,0.091l-0.034,0.091l-0.033,0.092l-0.032,0.093l-0.031,0.093l-0.029,0.093l-0.029,0.094l-0.028,0.095l-0.026,0.094l-0.025,0.096l-0.024,0.096l-0.023,0.096l-0.022,0.097l-0.02,0.097l-0.02,0.098l-0.018,0.098l-0.017,0.098l-0.016,0.099l-0.014,0.1l-0.014,0.1l-0.012,0.1l-0.011,0.101l-0.009,0.101l-0.009,0.101l-0.007,0.102l-0.006,0.102l-0.004,0.103l-0.003,0.103l-0.002,0.103l-0.001,0.104l0.001,0.104l0.002,0.103l0.003,0.103l0.004,0.103l0.006,0.102l0.007,0.102l0.009,0.101l0.009,0.101l0.011,0.101l0.012,0.1l0.014,0.1l0.014,0.1l0.016,0.099l0.017,0.098l0.018,0.098l0.02,0.098l0.02,0.097l0.022,0.097l0.023,0.096l0.024,0.096l0.025,0.096l0.026,0.094l0.028,0.095l0.029,0.094l0.029,0.093l0.031,0.093l0.032,0.093l0.033,0.092l0.034,0.091l0.036,0.091l0.036,0.09l0.037,0.09l0.039,0.09l0.039,0.088l0.041,0.089l0.041,0.087l0.043,0.087l0.044,0.087l0.044,0.086l0.046,0.085l0.047,0.085l0.047,0.084l0.049,0.083l0.05,0.083l0.05,0.082l0.052,0.081l0.052,0.081l0.054,0.081l0.054,0.079l0.056,0.079l0.056,0.078l0.057,0.078l0.058,0.076l0.059,0.076l0.06,0.076l0.061,0.074l0.062,0.074l0.062,0.073l0.064,0.072l0.064,0.072l0.065,0.071l0.066,0.07l0.067,0.069l0.068,0.068l0.068,0.068l0.069,0.067l0.07,0.066l0.071,0.065l0.071,0.064l0.073,0.064l0.073,0.062l0.074,0.062l0.074,0.061l0.076,0.06l0.076,0.059l0.076,0.058l0.078,0.057l0.078,0.056l0.079,0.056l0.079,0.054l0.081,0.054l0.081,0.052l0.081,0.052l0.082,0.05l0.083,0.05l0.083,0.049l0.085,0.047l0.084,0.047l0.085,0.046l0.086,0.044l0.087,0.044l0.087,0.043l0.087,0.041l0.089,0.041l0.088,0.039l0.09,0.039l0.089,0.037l0.091,0.036l0.091,0.036l0.091,0.034l0.092,0.033l0.093,0.032l0.093,0.031l0.093,0.029l0.094,0.029l0.095,0.028l0.094,0.026l0.096,0.025l0.096,0.024l0.096,0.023l0.097,0.022l0.097,0.02l0.098,0.02l0.098,0.018l0.098,0.017l0.099,0.016l0.1,0.014l0.1,0.014l0.1,0.012l0.1,0.011l0.102,0.009l0.101,0.009l0.102,0.007l0.102,0.006l0.103,0.004l0.103,0.003l0.103,0.002l0.104,0.001l0.104,-0.001l0.103,-0.002l0.103,-0.003l0.103,-0.004l0.102,-0.006l0.102,-0.007l0.101,-0.009l0.102,-0.009l0.1,-0.011l0.1,-0.012l0.1,-0.014l0.1,-0.014l0.099,-0.016l0.098,-0.017l0.098,-0.018l0.098,-0.02l0.097,-0.02l0.097,-0.022l0.096,-0.023l0.096,-0.024l0.096,-0.025l0.094,-0.026l0.095,-0.028l0.094,-0.029l0.093,-0.029l0.093,-0.031l0.093,-0.032l0.092,-0.033l0.091,-0.034l0.091,-0.036l0.091,-0.036l0.089,-0.037l0.09,-0.039l0.088,-0.039l0.089,-0.041l0.087,-0.041l0.087,-0.043l0.087,-0.044l0.086,-0.044l0.085,-0.046l0.084,-0.047l0.085,-0.047l0.083,-0.049l0.083,-0.05l0.082,-0.05l0.081,-0.052l0.081,-0.052l0.081,-0.054l0.079,-0.054l0.079,-0.056l0.078,-0.056l0.078,-0.057l0.076,-0.058l0.076,-0.059l0.076,-0.06l0.074,-0.061l0.074,-0.062l0.073,-0.062l0.073,-0.064l0.071,-0.064l0.071,-0.065l0.07,-0.066l0.069,-0.067l0.068,-0.068l0.068,-0.068l0.067,-0.069l0.066,-0.07l0.065,-0.071l0.064,-0.072l0.064,-0.072l0.062,-0.073l0.062,-0.074l0.061,-0.074l0.06,-0.076l0.059,-0.076l0.058,-0.076l0.057,-0.078l0.056,-0.078l0.056,-0.079l0.054,-0.079l0.054,-0.081l0.052,-0.081l0.052,-0.081l0.05,-0.082l0.05,-0.083l0.049,-0.083l0.047,-0.084l0.047,-0.085l0.046,-0.085l0.044,-0.086l0.044,-0.087l0.043,-0.087l0.041,-0.087l0.041,-0.089l0.039,-0.088l0.039,-0.09l0.037,-0.09l0.036,-0.09l0.036,-0.091l0.034,-0.091l0.033,-0.092l0.032,-0.093l0.031,-0.093l0.029,-0.093l0.029,-0.094l0.028,-0.095l0.026,-0.094l0.025,-0.096l0.024,-0.096l0.023,-0.096l0.022,-0.097l0.02,-0.097l0.02,-0.098l0.018,-0.098l0.017,-0.098l0.016,-0.099l0.014,-0.1l0.014,-0.1l0.012,-0.1l0.011,-0.101l0.009,-0.101l0.009,-0.101l0.007,-0.102l0.006,-0.102l0.004,-0.103l0.003,-0.103l0.002,-0.103l0.001,-0.104l-0.001,-0.104l-0.002,-0.103l-0.003,-0.103l-0.004,-0.103l-0.006,-0.102l-0.007,-0.102l-0.009,-0.101l-0.009,-0.101l-0.011,-0.101l-0.012,-0.1l-0.014,-0.1l-0.014,-0.1l-0.016,-0.099l-0.017,-0.098l-0.018,-0.098l-0.02,-0.098l-0.02,-0.097l-0.022,-0.097l-0.023,-0.096l-0.024,-0.096l-0.025,-0.096l-0.026,-0.094l-0.028,-0.095l-0.029,-0.094l-0.029,-0.093l-0.031,-0.093l-0.032,-0.093l-0.033,-0.092l-0.034,-0.091l-0.036,-0.091l-0.036,-0.09l-0.037,-0.09l-0.039,-0.09l-0.039,-0.088l-0.041,-0.089l-0.041,-0.087l-0.043,-0.087l-0.044,-0.087l-0.044,-0.086l-0.046,-0.085l-0.047,-0.085l-0.047,-0.084l-0.049,-0.083l-0.05,-0.083l-0.05,-0.082l-0.052,-0.081l-0.052,-0.081l-0.054,-0.081l-0.054,-0.079l-0.056,-0.079l-0.056,-0.078l-0.057,-0.078l-0.058,-0.076l-0.059,-0.076l-0.06,-0.076l-0.061,-0.074l-0.062,-0.074l-0.062,-0.073l-0.064,-0.072l-0.064,-0.072l-0.065,-0.071l-0.066,-0.07l-0.067,-0.069l-0.068,-0.068l-0.068,-0.068l-0.069,-0.067l-0.07,-0.066l-0.071,-0.065l-0.071,-0.064l-0.073,-0.064l-0.073,-0.062l-0.074,-0.062l-0.074,-0.061l-0.076,-0.06l-0.076,-0.059l-0.076,-0.058l-0.078,-0.057l-0.078,-0.056l-0.079,-0.056l-0.079,-0.054l-0.081,-0.054l-0.081,-0.052l-0.081,-0.052l-0.082,-0.05l-0.083,-0.05l-0.083,-0.049l-0.085,-0.047l-0.084,-0.047l-0.085,-0.046l-0.086,-0.044l-0.087,-0.044l-0.087,-0.043l-0.087,-0.041l-0.089,-0.041l-0.088,-0.039l-0.09,-0.039l-0.089,-0.037l-0.091,-0.036l-0.091,-0.036l-0.091,-0.034l-0.092,-0.033l-0.093,-0.032l-0.093,-0.031l-0.093,-0.029l-0.094,-0.029l-0.095,-0.028l-0.094,-0.026l-0.096,-0.025l-0.096,-0.024l-0.096,-0.023l-0.097,-0.022l-0.097,-0.02l-0.098,-0.02l-0.098,-0.018l-0.098,-0.017l-0.099,-0.016l-0.1,-0.014l-0.1,-0.014l-0.1,-0.012l-0.1,-0.011l-0.102,-0.009l-0.101,-0.009l-0.102,-0.007l-0.102,-0.006l-0.103,-0.004l-0.103,-0.003l-0.103,-0.002l-0.104,-0.001l-0.104,0.001Z"/><path d="M15,18c0,0 7.282,7.282 10.501,10.501c0.828,0.828 2.17,0.828 2.998,0c0.001,-0.001 0.001,-0.001 0.002,-0.002c0.828,-0.828 0.828,-2.17 0,-2.998c-3.219,-3.219 -10.501,-10.501 -10.501,-10.501l-3,3Z" style="fill:#666;"/><path d="M29.924,24.096l0.065,0.066l0.071,0.077l0.069,0.079l0.067,0.08l0.065,0.081l0.063,0.083l0.06,0.084l0.058,0.085l0.055,0.087l0.054,0.088l0.05,0.088l0.049,0.089l0.046,0.091l0.044,0.092l0.041,0.092l0.039,0.092l0.037,0.094l0.034,0.094l0.032,0.095l0.029,0.096l0.028,0.096l0.024,0.096l0.023,0.096l0.02,0.098l0.017,0.098l0.016,0.097l0.013,0.098l0.01,0.098l0.008,0.098l0.006,0.099l0.004,0.098l0.001,0.099l-0.001,0.099l-0.004,0.098l-0.006,0.099l-0.008,0.098l-0.01,0.098l-0.013,0.098l-0.016,0.097l-0.017,0.098l-0.02,0.098l-0.023,0.096l-0.024,0.096l-0.028,0.096l-0.029,0.096l-0.032,0.095l-0.034,0.094l-0.037,0.093l-0.039,0.093l-0.041,0.093l-0.044,0.091l-0.046,0.09l-0.049,0.09l-0.051,0.089l-0.053,0.087l-0.055,0.087l-0.058,0.085l-0.06,0.084l-0.063,0.083l-0.065,0.081l-0.067,0.08l-0.069,0.079l-0.071,0.077l-0.065,0.066l-0.02,0.02l-0.066,0.065l-0.077,0.071l-0.079,0.069l-0.08,0.067l-0.081,0.065l-0.083,0.063l-0.084,0.06l-0.085,0.058l-0.087,0.055l-0.087,0.054l-0.089,0.05l-0.09,0.049l-0.09,0.046l-0.092,0.044l-0.091,0.041l-0.094,0.039l-0.093,0.037l-0.094,0.034l-0.095,0.032l-0.096,0.029l-0.095,0.028l-0.097,0.024l-0.097,0.023l-0.097,0.02l-0.097,0.017l-0.098,0.016l-0.098,0.013l-0.098,0.01l-0.098,0.008l-0.099,0.006l-0.098,0.004l-0.099,0.001l-0.099,-0.001l-0.098,-0.004l-0.099,-0.006l-0.098,-0.008l-0.098,-0.01l-0.098,-0.013l-0.098,-0.016l-0.097,-0.017l-0.097,-0.02l-0.097,-0.023l-0.096,-0.024l-0.096,-0.028l-0.096,-0.029l-0.095,-0.032l-0.094,-0.034l-0.094,-0.037l-0.092,-0.039l-0.092,-0.041l-0.092,-0.044l-0.09,-0.046l-0.09,-0.049l-0.089,-0.051l-0.087,-0.053l-0.087,-0.055l-0.085,-0.058l-0.084,-0.06l-0.083,-0.063l-0.081,-0.065l-0.08,-0.067l-0.079,-0.069l-0.077,-0.071l-0.066,-0.065l-11.924,-11.924l5.828,-5.828l11.924,11.924Zm-12.096,-6.096l9.078,9.078l0.012,0.011l0.003,0.003l0.003,0.002l0.002,0.003l0.003,0.001l0.002,0.002l0.002,0.002l0.003,0.001l0.002,0.002l0.002,0.001l0.002,0.002l0.003,0.001l0.002,0.001l0.002,0.001l0.002,0.001l0.003,0.001l0.003,0.001l0.002,0.001l0.002,0.001l0.003,0.001l0.003,0l0.003,0.001l0.003,0.001l0.002,0l0.003,0.001l0.003,0l0.003,0.001l0.004,0l0.003,0l0.003,0.001l0.003,0l0.003,0l0.003,0l0.003,0l0.003,-0.001l0.004,0l0.003,0l0.003,-0.001l0.003,0l0.003,-0.001l0.003,0l0.002,-0.001l0.003,-0.001l0.003,0l0.003,-0.001l0.002,-0.001l0.003,-0.001l0.002,-0.001l0.002,-0.001l0.003,-0.001l0.002,-0.001l0.002,-0.001l0.003,-0.001l0.002,-0.002l0.002,-0.001l0.002,-0.002l0.003,-0.001l0.002,-0.002l0.002,-0.002l0.003,-0.001l0.002,-0.003l0.003,-0.002l0.003,-0.002l0.004,-0.004l0.004,-0.004l0.004,-0.006l0.004,-0.005l0.004,-0.004l0.003,-0.005l0.002,-0.004l0.003,-0.005l0.003,-0.007l0.002,-0.005l0.002,-0.005l0.001,-0.006l0.001,-0.005l0.001,-0.006l0.001,-0.006l0.001,-0.007l0,-0.006l0,-0.006l-0.001,-0.006l-0.001,-0.007l-0.001,-0.006l-0.001,-0.005l-0.001,-0.006l-0.002,-0.005l-0.002,-0.005l-0.003,-0.007l-0.003,-0.005l-0.002,-0.004l-0.003,-0.005l-0.004,-0.004l-0.004,-0.005l-0.005,-0.006l-0.011,-0.012l-9.078,-9.078l-0.172,0.172Z"/></g><g id="emoji"><path d="M15,18c0,0 7.282,7.282 10.501,10.501c0.828,0.828 2.17,0.828 2.998,0c0.001,-0.001 0.001,-0.001 0.002,-0.002c0.828,-0.828 0.828,-2.17 0,-2.998c-3.219,-3.219 -10.501,-10.501 -10.501,-10.501l-3,3Z" style="fill:#4c4c4c;"/><circle cx="12" cy="12" r="10" style="fill:#cdcdcd;"/><circle cx="12" cy="12" r="8" style="fill:#4575e7;"/><path d="M12.075,6.2l0.074,0.002l0.075,0.002l0.074,0.004l0.073,0.004l0.074,0.005l0.073,0.006l0.074,0.007l0.073,0.008l0.072,0.009l0.073,0.009l0.072,0.011l0.072,0.011l0.071,0.013l0.072,0.013l0.074,0.015l0.138,0.03l0.139,0.034l0.139,0.037l0.137,0.041l0.136,0.044l0.134,0.047l0.132,0.051l0.131,0.053l0.13,0.057l0.128,0.06l0.126,0.062l0.124,0.066l0.122,0.068l0.121,0.072l0.118,0.074l0.117,0.077l0.115,0.079l0.112,0.082l0.111,0.085l0.108,0.087l0.106,0.09l0.104,0.093l0.102,0.094l0.1,0.097l0.097,0.1l0.094,0.102l0.093,0.104l0.09,0.106l0.087,0.108l0.085,0.111l0.082,0.112l0.079,0.115l0.077,0.117l0.074,0.118l0.072,0.121l0.068,0.122l0.066,0.124l0.062,0.126l0.06,0.128l0.057,0.13l0.053,0.131l0.051,0.132l0.047,0.134l0.044,0.136l0.041,0.137l0.037,0.139l0.034,0.139l0.03,0.138l0.015,0.074l0.013,0.072l0.013,0.071l0.011,0.072l0.011,0.072l0.009,0.073l0.009,0.072l0.008,0.073l0.007,0.074l0.006,0.073l0.005,0.074l0.004,0.073l0.004,0.075l0.002,0.074l0.002,0.074l0,0.078l-0.002,0.141l-0.005,0.144l-0.009,0.143l-0.012,0.142l-0.016,0.142l-0.019,0.141l-0.023,0.141l-0.026,0.14l-0.03,0.139l-0.033,0.138l-0.036,0.137l-0.04,0.136l-0.042,0.135l-0.047,0.134l-0.049,0.132l-0.052,0.132l-0.056,0.13l-0.059,0.128l-0.062,0.127l-0.065,0.126l-0.068,0.124l-0.072,0.123l-0.074,0.121l-0.077,0.119l-0.081,0.117l-0.083,0.116l-0.086,0.113l-0.089,0.112l-0.093,0.109l-0.094,0.108l-0.098,0.105l-0.092,0.094l-0.041,0.04l-0.043,0.037l-0.046,0.035l-0.047,0.032l-0.049,0.03l-0.05,0.026l-0.052,0.024l-0.054,0.021l-0.054,0.017l-0.055,0.015l-0.056,0.011l-0.057,0.008l-0.057,0.005l-0.057,0.001l-0.057,-0.002l-0.057,-0.005l-0.056,-0.008l-0.056,-0.011l-0.055,-0.015l-0.055,-0.018l-0.053,-0.021l-0.052,-0.023l-0.05,-0.027l-0.049,-0.03l-0.047,-0.032l-0.045,-0.035l-0.043,-0.037l-0.041,-0.04l-0.039,-0.042l-0.036,-0.045l-0.033,-0.046l-0.031,-0.048l-0.028,-0.05l-0.025,-0.051l-0.022,-0.053l-0.02,-0.054l-0.016,-0.055l-0.012,-0.055l-0.01,-0.056l-0.006,-0.057l-0.004,-0.057l0.001,-0.057l0.003,-0.057l0.007,-0.057l0.009,-0.056l0.013,-0.056l0.017,-0.055l0.019,-0.053l0.022,-0.053l0.026,-0.051l0.028,-0.05l0.031,-0.048l0.033,-0.046l0.037,-0.044l0.038,-0.042l0.075,-0.077l0.064,-0.069l0.062,-0.07l0.06,-0.072l0.059,-0.073l0.056,-0.074l0.055,-0.076l0.052,-0.077l0.051,-0.078l0.049,-0.079l0.047,-0.08l0.044,-0.082l0.043,-0.082l0.041,-0.083l0.038,-0.085l0.037,-0.085l0.034,-0.086l0.032,-0.087l0.031,-0.087l0.028,-0.089l0.026,-0.089l0.023,-0.09l0.022,-0.09l0.019,-0.091l0.017,-0.092l0.015,-0.092l0.013,-0.092l0.01,-0.093l0.008,-0.094l0.006,-0.094l0.004,-0.094l0.001,-0.097l0,-0.046l-0.001,-0.049l-0.002,-0.049l-0.002,-0.049l-0.003,-0.049l-0.003,-0.048l-0.004,-0.048l-0.005,-0.048l-0.005,-0.048l-0.006,-0.048l-0.006,-0.047l-0.007,-0.047l-0.007,-0.047l-0.008,-0.047l-0.009,-0.047l-0.009,-0.043l-0.02,-0.095l-0.023,-0.092l-0.024,-0.09l-0.027,-0.089l-0.029,-0.089l-0.03,-0.088l-0.033,-0.086l-0.035,-0.086l-0.037,-0.084l-0.039,-0.084l-0.041,-0.082l-0.043,-0.082l-0.045,-0.08l-0.047,-0.079l-0.048,-0.077l-0.051,-0.077l-0.052,-0.075l-0.054,-0.074l-0.056,-0.073l-0.057,-0.071l-0.059,-0.07l-0.061,-0.068l-0.062,-0.067l-0.064,-0.065l-0.065,-0.064l-0.067,-0.062l-0.068,-0.061l-0.07,-0.059l-0.071,-0.057l-0.073,-0.056l-0.074,-0.054l-0.075,-0.052l-0.077,-0.051l-0.077,-0.048l-0.079,-0.047l-0.08,-0.045l-0.082,-0.043l-0.082,-0.041l-0.084,-0.039l-0.084,-0.037l-0.086,-0.035l-0.086,-0.033l-0.088,-0.03l-0.089,-0.029l-0.089,-0.027l-0.09,-0.024l-0.092,-0.023l-0.095,-0.02l-0.043,-0.009l-0.047,-0.009l-0.047,-0.008l-0.047,-0.007l-0.047,-0.007l-0.047,-0.006l-0.048,-0.006l-0.048,-0.005l-0.048,-0.005l-0.048,-0.004l-0.048,-0.003l-0.049,-0.003l-0.049,-0.002l-0.049,-0.002l-0.049,-0.001l-0.046,0l-0.097,0.001l-0.094,0.004l-0.094,0.006l-0.094,0.008l-0.093,0.01l-0.092,0.013l-0.092,0.015l-0.092,0.017l-0.091,0.019l-0.09,0.022l-0.09,0.023l-0.089,0.026l-0.089,0.028l-0.087,0.031l-0.087,0.032l-0.086,0.034l-0.085,0.037l-0.085,0.038l-0.083,0.041l-0.082,0.043l-0.082,0.044l-0.08,0.047l-0.079,0.049l-0.078,0.051l-0.077,0.052l-0.076,0.055l-0.074,0.056l-0.073,0.059l-0.072,0.06l-0.07,0.062l-0.069,0.064l-0.077,0.075l-0.042,0.038l-0.044,0.037l-0.046,0.033l-0.048,0.031l-0.05,0.028l-0.051,0.026l-0.053,0.022l-0.053,0.019l-0.055,0.017l-0.056,0.013l-0.056,0.009l-0.057,0.007l-0.057,0.003l-0.057,0.001l-0.057,-0.004l-0.057,-0.006l-0.056,-0.01l-0.056,-0.012l-0.054,-0.016l-0.054,-0.02l-0.053,-0.022l-0.051,-0.025l-0.05,-0.028l-0.048,-0.031l-0.046,-0.033l-0.045,-0.036l-0.042,-0.039l-0.04,-0.041l-0.037,-0.043l-0.035,-0.045l-0.032,-0.047l-0.03,-0.049l-0.027,-0.05l-0.024,-0.052l-0.02,-0.053l-0.018,-0.055l-0.015,-0.055l-0.011,-0.056l-0.008,-0.056l-0.005,-0.057l-0.002,-0.057l0.001,-0.057l0.005,-0.057l0.008,-0.057l0.011,-0.056l0.015,-0.055l0.017,-0.054l0.021,-0.054l0.024,-0.052l0.026,-0.05l0.03,-0.049l0.032,-0.047l0.035,-0.046l0.037,-0.043l0.04,-0.041l0.094,-0.092l0.105,-0.098l0.108,-0.095l0.109,-0.092l0.112,-0.089l0.113,-0.086l0.116,-0.083l0.117,-0.081l0.119,-0.077l0.121,-0.074l0.123,-0.072l0.124,-0.068l0.126,-0.065l0.127,-0.062l0.128,-0.059l0.13,-0.056l0.132,-0.052l0.132,-0.049l0.134,-0.047l0.135,-0.042l0.136,-0.04l0.137,-0.036l0.138,-0.033l0.139,-0.03l0.14,-0.026l0.141,-0.023l0.141,-0.019l0.142,-0.016l0.142,-0.012l0.143,-0.009l0.144,-0.005l0.141,-0.002l0.078,0Z" style="fill:#8baeff;"/></g></g></svg>