<?xml version="1.0" encoding="UTF-8" standalone="no"?>
<!DOCTYPE svg PUBLIC "-//W3C//DTD SVG 1.1//EN" "http://www.w3.org/Graphics/SVG/1.1/DTD/svg11.dtd">
<svg width="100%" height="100%" viewBox="0 0 32 32" version="1.1" xmlns="http://www.w3.org/2000/svg" xmlns:xlink="http://www.w3.org/1999/xlink" xml:space="preserve" xmlns:serif="http://www.serif.com/" style="fill-rule:evenodd;clip-rule:evenodd;stroke-miterlimit:1.5;">
    <rect id="open_folder" x="0" y="0" width="32" height="32" style="fill:none;"/>
    <clipPath id="_clip1">
        <rect x="0" y="0" width="32" height="32"/>
    </clipPath>
    <g clip-path="url(#_clip1)">
        <g id="outline">
            <path d="M3.281,27l-0.281,0c-0.265,0 -0.52,-0.105 -0.707,-0.293c-0.188,-0.187 -0.293,-0.442 -0.293,-0.707c0,-3.414 0,-14.586 0,-18c0,-0.265 0.105,-0.52 0.293,-0.707c0.187,-0.188 0.442,-0.293 0.707,-0.293l7.382,0c0.379,0 0.725,0.214 0.894,0.553c0.296,0.592 0.724,1.447 0.724,1.447c0,0 9.797,0 13,0c0.552,0 1,0.448 1,1l0,3l2.219,0c0.308,0 0.599,0.142 0.788,0.385c0.19,0.242 0.257,0.559 0.182,0.858c-0.708,2.834 -2.427,9.708 -3,12c-0.111,0.445 -0.511,0.757 -0.97,0.757c-3.479,0 -17.591,0 -21.938,0l0,0Z" style="fill:none;stroke:#000;stroke-width:4px;"/>
        </g>
        <g id="emoji">
            <path d="M3,7c-0.265,0 -0.52,0.105 -0.707,0.293c-0.188,0.187 -0.293,0.442 -0.293,0.707c0,3.414 0,14.586 0,18c0,0.265 0.105,0.52 0.293,0.707c0.187,0.188 0.442,0.293 0.707,0.293c3.904,0 18.096,0 22,0c0.265,0 0.52,-0.105 0.707,-0.293c0.188,-0.187 0.293,-0.442 0.293,-0.707c0,-3.151 0,-12.849 0,-16c0,-0.552 -0.448,-1 -1,-1c-3.203,0 -13,0 -13,0c0,0 -0.428,-0.855 -0.724,-1.447c-0.169,-0.339 -0.515,-0.553 -0.894,-0.553l-7.382,0Z" style="fill:#10768b;"/>
            <path d="M6.281,13c-0.459,0 -0.859,0.312 -0.97,0.757c-0.573,2.292 -2.292,9.166 -3,12c-0.075,0.299 -0.008,0.616 0.182,0.858c0.189,0.243 0.48,0.385 0.788,0.385c4.347,0 18.459,0 21.938,0c0.459,0 0.859,-0.312 0.97,-0.757c0.573,-2.292 2.292,-9.166 3,-12c0.075,-0.299 0.008,-0.616 -0.182,-0.858c-0.189,-0.243 -0.48,-0.385 -0.788,-0.385c-4.347,0 -18.459,0 -21.938,0Z" style="fill:#30bfdb;"/>
        </g>
    </g>
</svg>
