<?xml version="1.0" encoding="UTF-8" standalone="no"?>
<!DOCTYPE svg PUBLIC "-//W3C//DTD SVG 1.1//EN" "http://www.w3.org/Graphics/SVG/1.1/DTD/svg11.dtd">
<svg width="100%" height="100%" viewBox="0 0 32 32" version="1.1" xmlns="http://www.w3.org/2000/svg" xmlns:xlink="http://www.w3.org/1999/xlink" xml:space="preserve" xmlns:serif="http://www.serif.com/" style="fill-rule:evenodd;clip-rule:evenodd;stroke-linecap:round;stroke-linejoin:round;stroke-miterlimit:1.5;">
    <rect id="outbox" x="0" y="0" width="32" height="32" style="fill:none;"/>
    <clipPath id="_clip1">
        <rect x="0" y="0" width="32" height="32"/>
    </clipPath>
    <g clip-path="url(#_clip1)">
        <g id="outline">
            <path d="M14.5,15l0,-5.379l-3.5,3.5l-2.121,-2.121l0,-2l7.121,-7.121l7.121,7.121l0,2l-2.121,2.121l-3.5,-3.5l0,5.379l5.5,0l4,9l0,6l-22,0l0,-6l4,-9l5.5,0Z" style="fill:none;stroke:#000;stroke-width:4px;"/>
        </g>
        <g id="emoji">
            <path d="M6,24l4.5,-9l11,0l4.5,9l0,5l-20,0l0,-5Z" style="fill:#0f0f0f;"/>
            <path d="M5.4,25l-0.4,-1l4,-9l14,0l4,9l-0.4,1l-1.6,-0.576l-3.3,-7.424l-11.4,0l-3.3,7.424l-1.6,0.576Z" style="fill:#4c4c4c;fill-rule:nonzero;"/>
            <path d="M27,30l-22,0l0,-6l7,0l0,0c0,2.209 1.791,4 4,4c0,0 0,0 0,0c2.209,0 4,-1.791 4,-4l0,0l7,0l0,6Z" style="fill:#868686;"/>
            <path d="M14.5,9.621l-3.5,3.5l-2.121,-2.121l0,-2l7.121,-6.121l7.121,6.121l0,2l-2.121,2.121l-3.5,-3.5l-1.5,4.88l1.5,4.999l0,1.879l-3,0l0,-1.879l1.5,-4.999l-1.5,-4.88Z" style="fill:#747474;fill-rule:nonzero;"/>
            <path d="M14.5,7.621l-3.5,3.5l-2.121,-2.121l7.121,-7.121l7.121,7.121l-2.121,2.121l-3.5,-3.5l0,11.879l-3,0l0,-11.879Z" style="fill:#fff;fill-rule:nonzero;"/>
        </g>
    </g>
</svg>
