<?xml version="1.0" encoding="UTF-8" standalone="no"?><!DOCTYPE svg PUBLIC "-//W3C//DTD SVG 1.1//EN" "http://www.w3.org/Graphics/SVG/1.1/DTD/svg11.dtd"><svg width="100%" height="100%" viewBox="0 0 32 32" version="1.1" xmlns="http://www.w3.org/2000/svg" xmlns:xlink="http://www.w3.org/1999/xlink" xml:space="preserve" xmlns:serif="http://www.serif.com/" style="fill-rule:evenodd;clip-rule:evenodd;stroke-linejoin:round;stroke-miterlimit:1.5;"><rect id="page_with_pencil" x="0" y="0" width="32" height="32" style="fill:none;"/><clipPath id="_clip1"><rect x="0" y="0" width="32" height="32"/></clipPath><g clip-path="url(#_clip1)"><g id="outline"><path d="M28,9.172l0,22.828l-24,0l0,-32l14.828,0l9.172,9.172Zm-20,-5.172l0,24l16,0l0,-17.172l-6.828,-6.828l-9.172,0Z"/></g><g id="emoji"><path d="M26,30l-20,0l0,-28l12,0l1,2l5,5l2,1l0,20Z" style="fill:#fff;"/><rect x="8" y="8" width="16" height="2" style="fill:#b2b2b2;"/><rect x="8" y="11" width="16" height="2" style="fill:#b2b2b2;"/><rect x="8" y="14" width="16" height="2" style="fill:#b2b2b2;"/><rect x="8" y="17" width="16" height="2" style="fill:#b2b2b2;"/><rect x="8" y="20" width="16" height="2" style="fill:#b2b2b2;"/><rect x="8" y="23" width="16" height="2" style="fill:#b2b2b2;"/><rect x="8" y="26" width="16" height="2" style="fill:#b2b2b2;"/><path d="M18,10l0,-8l8,8l-8,0Z" style="fill:#666;"/><path d="M19.306,19.478l1.943,7.771l-7.772,-1.943l-12.305,-12.306l5.828,-5.828l12.306,12.306Zm-12.478,-6.478l8.694,8.694l0.229,0.057l-0.057,-0.229l-8.694,-8.694l-0.172,0.172Z"/><path d="M14,22l2,-2l1.5,0.5l1,4l-4,-1l-0.5,-1.5Z" style="fill:#fff;"/><path d="M4,13l3,-3l10.5,10.5l-3,3l-10.5,-10.5Z" style="fill:#e4d20b;"/><clipPath id="_clip2"><path d="M4,13l3,-3l10.5,10.5l-3,3l-10.5,-10.5Z"/></clipPath><g clip-path="url(#_clip2)"><path d="M3,10l14,14l1,-1l-14,-14l-1,1Z" style="fill:#78701a;"/><path d="M13,25l6,-6" style="fill:none;stroke:#78701a;stroke-width:2px;"/></g></g></g></svg>