<?xml version="1.0" encoding="UTF-8" standalone="no"?>
<!DOCTYPE svg PUBLIC "-//W3C//DTD SVG 1.1//EN" "http://www.w3.org/Graphics/SVG/1.1/DTD/svg11.dtd">
<svg width="100%" height="100%" viewBox="0 0 32 32" version="1.1" xmlns="http://www.w3.org/2000/svg" xmlns:xlink="http://www.w3.org/1999/xlink" xml:space="preserve" xmlns:serif="http://www.serif.com/" style="fill-rule:evenodd;clip-rule:evenodd;stroke-linejoin:round;stroke-miterlimit:1.5;">
    <rect id="page" x="0" y="0" width="32" height="32" style="fill:none;"/>
    <clipPath id="_clip1">
        <rect x="0" y="0" width="32" height="32"/>
    </clipPath>
    <g clip-path="url(#_clip1)">
        <g id="outline">
            <path d="M26,30l-20,0l0,-28l13,0l7,7l0,21Z" style="fill:none;stroke:#000;stroke-width:4px;"/>
        </g>
        <g id="emoji">
            <path d="M26,30l-20,0l0,-28l13,0l1,2l4,4l2,1l0,21Z" style="fill:#fff;"/>
            <rect x="8" y="8" width="16" height="2" style="fill:#b2b2b2;"/>
            <rect x="8" y="11" width="16" height="2" style="fill:#b2b2b2;"/>
            <rect x="8" y="14" width="16" height="2" style="fill:#b2b2b2;"/>
            <rect x="8" y="17" width="16" height="2" style="fill:#b2b2b2;"/>
            <rect x="8" y="20" width="16" height="2" style="fill:#b2b2b2;"/>
            <rect x="8" y="23" width="16" height="2" style="fill:#b2b2b2;"/>
            <rect x="8" y="26" width="16" height="2" style="fill:#b2b2b2;"/>
            <path d="M19,9l0,-7l7,7l-7,0Z" style="fill:#666;"/>
        </g>
    </g>
</svg>
