<?xml version="1.0" encoding="UTF-8" standalone="no"?>
<!DOCTYPE svg PUBLIC "-//W3C//DTD SVG 1.1//EN" "http://www.w3.org/Graphics/SVG/1.1/DTD/svg11.dtd">
<svg width="100%" height="100%" viewBox="0 0 32 32" version="1.1" xmlns="http://www.w3.org/2000/svg" xmlns:xlink="http://www.w3.org/1999/xlink" xml:space="preserve" xmlns:serif="http://www.serif.com/" style="fill-rule:evenodd;clip-rule:evenodd;stroke-linecap:square;stroke-linejoin:round;stroke-miterlimit:1.5;">
    <rect id="paperclip" x="0" y="0" width="32" height="32" style="fill:none;"/>
    <clipPath id="_clip1">
        <rect x="0" y="0" width="32" height="32"/>
    </clipPath>
    <g clip-path="url(#_clip1)">
        <g id="outline">
            <path d="M22,8c0,-4.418 -3.582,-8 -8,-8c0,0 0,0 0,0c-4.418,0 -8,3.582 -8,8l0,14.5c0,2.52 1.001,4.936 2.782,6.718c1.782,1.781 4.198,2.782 6.718,2.782c0,0 0,0 0,0c5.247,0 9.5,-4.253 9.5,-9.5c0,-4.617 0,-9.75 0,-12.5c0,-0.53 -0.211,-1.039 -0.586,-1.414c-0.375,-0.375 -0.884,-0.586 -1.414,-0.586c-0.551,0 -1,0 -1,0l0,0Z"/>
        </g>
        <g id="emoji">
            <path d="M22,11l0,11.5c0,1.724 -0.685,3.377 -1.904,4.596c-1.219,1.219 -2.872,1.904 -4.596,1.904c0,0 0,0 0,0c-3.59,0 -6.5,-2.91 -6.5,-6.5l0,-14.5c0,-1.326 0.527,-2.598 1.464,-3.536c0.938,-0.937 2.21,-1.464 3.536,-1.464c0,0 0,0 0,0c2.761,0 5,2.239 5,5l0,11.5c0,1.933 -1.567,3.5 -3.5,3.5c-1.933,0 -3.5,-1.567 -3.5,-3.5c0,-3.542 0,-8.5 0,-8.5" style="fill:none;stroke:#a7a7a7;stroke-width:2px;"/>
        </g>
    </g>
</svg>
