<?xml version="1.0" encoding="UTF-8" standalone="no"?>
<!DOCTYPE svg PUBLIC "-//W3C//DTD SVG 1.1//EN" "http://www.w3.org/Graphics/SVG/1.1/DTD/svg11.dtd">
<svg width="100%" height="100%" viewBox="0 0 32 32" version="1.1" xmlns="http://www.w3.org/2000/svg" xmlns:xlink="http://www.w3.org/1999/xlink" xml:space="preserve" xmlns:serif="http://www.serif.com/" style="fill-rule:evenodd;clip-rule:evenodd;stroke-linejoin:round;">
    <rect id="pen" x="0" y="0" width="32" height="32" style="fill:none;"/>
    <g id="outline">
        <path d="M3.499,6.499c-0.828,-0.828 -0.828,-2.17 0,-2.998c0.001,-0.001 0.001,-0.001 0.002,-0.002c0.828,-0.828 2.17,-0.828 2.998,0c4.956,4.956 20.501,20.501 20.501,20.501l1,3l-1,1l-3,-1c0,0 -15.545,-15.545 -20.501,-20.501Z" style="fill:#fff;stroke:#000;stroke-width:4px;"/>
        <path d="M20.414,13l-1.414,1.414l-8,-8l-2,2l-1.414,-1.414l3.414,-3.414l9.414,9.414Z" style="fill:none;stroke:#000;stroke-width:4px;stroke-miterlimit:2;"/>
        <path d="M25,27l4,2l-2,-4l-2,2Z" style="fill:none;stroke:#000;stroke-width:4px;stroke-linecap:square;stroke-miterlimit:1.5;"/>
    </g>
    <g id="emoji">
        <path d="M11,3.586c3.138,3.138 6.276,6.276 9.414,9.414l-1.414,1.414l-8,-8l-2,2l-1.414,-1.414l3.414,-3.414" style="fill:#9a9a9a;fill-rule:nonzero;"/>
        <path d="M29,29l-4,-2l2,-2l2,4Z" style="fill:#666;"/>
        <path d="M3.499,6.499c-0.828,-0.828 -0.828,-2.17 0,-2.998c0.001,-0.001 0.001,-0.001 0.002,-0.002c0.828,-0.828 2.17,-0.828 2.998,0c4.956,4.956 20.501,20.501 20.501,20.501l1,3l-1,1l-3,-1c0,0 -15.545,-15.545 -20.501,-20.501Z" style="fill:#9a9a9a;"/>
        <clipPath id="_clip1">
            <path d="M3.499,6.499c-0.828,-0.828 -0.828,-2.17 0,-2.998c0.001,-0.001 0.001,-0.001 0.002,-0.002c0.828,-0.828 2.17,-0.828 2.998,0c4.956,4.956 20.501,20.501 20.501,20.501l1,3l-1,1l-3,-1c0,0 -15.545,-15.545 -20.501,-20.501Z"/>
        </clipPath>
        <g clip-path="url(#_clip1)">
            <path d="M11.414,6l-5.414,5.414l-1.414,-1.414l5.414,-5.414l1.414,1.414Z" style="fill:#686868;fill-rule:nonzero;"/>
        </g>
    </g>
</svg>
