<?xml version="1.0" encoding="UTF-8" standalone="no"?><!DOCTYPE svg PUBLIC "-//W3C//DTD SVG 1.1//EN" "http://www.w3.org/Graphics/SVG/1.1/DTD/svg11.dtd"><svg width="100%" height="100%" viewBox="0 0 32 32" version="1.1" xmlns="http://www.w3.org/2000/svg" xmlns:xlink="http://www.w3.org/1999/xlink" xml:space="preserve" xmlns:serif="http://www.serif.com/" style="fill-rule:evenodd;clip-rule:evenodd;stroke-linejoin:round;stroke-miterlimit:1.41421;"><rect id="pencil" x="0" y="0" width="32" height="32" style="fill:none;"/><g id="outline"><path d="M7.096,0.829l0.095,0.004l0.096,0.006l0.095,0.008l0.096,0.01l0.095,0.012l0.095,0.015l0.094,0.017l0.095,0.02l0.093,0.022l0.094,0.024l0.093,0.026l0.093,0.029l0.092,0.031l0.091,0.033l0.091,0.035l0.09,0.038l0.09,0.04l0.089,0.043l0.088,0.045l0.086,0.047l0.087,0.049l0.085,0.052l0.084,0.054l0.082,0.056l0.082,0.058l0.081,0.061l0.079,0.063l0.077,0.065l0.077,0.067l0.074,0.07l0.064,0.062l18.962,18.961l3.131,10.96l-10.96,-3.131l-18.961,-18.961l-0.063,-0.065l-0.069,-0.074l-0.067,-0.077l-0.065,-0.078l-0.063,-0.079l-0.061,-0.08l-0.058,-0.082l-0.056,-0.082l-0.054,-0.084l-0.052,-0.085l-0.049,-0.087l-0.047,-0.086l-0.045,-0.088l-0.043,-0.089l-0.04,-0.09l-0.038,-0.09l-0.035,-0.091l-0.033,-0.091l-0.031,-0.092l-0.029,-0.093l-0.026,-0.093l-0.024,-0.094l-0.022,-0.093l-0.02,-0.095l-0.017,-0.094l-0.015,-0.095l-0.012,-0.095l-0.01,-0.096l-0.008,-0.095l-0.006,-0.096l-0.004,-0.095l-0.001,-0.096l0.001,-0.096l0.004,-0.095l0.006,-0.096l0.008,-0.095l0.01,-0.096l0.012,-0.095l0.015,-0.095l0.017,-0.094l0.02,-0.095l0.022,-0.093l0.024,-0.094l0.026,-0.093l0.029,-0.093l0.03,-0.092l0.034,-0.091l0.035,-0.091l0.038,-0.09l0.04,-0.09l0.043,-0.089l0.045,-0.088l0.047,-0.087l0.049,-0.086l0.052,-0.085l0.054,-0.084l0.056,-0.082l0.058,-0.082l0.061,-0.08l0.063,-0.08l0.065,-0.077l0.067,-0.077l0.069,-0.074l0.063,-0.065l2.189,-2.189l0.065,-0.063l0.074,-0.069l0.077,-0.067l0.078,-0.065l0.079,-0.063l0.08,-0.061l0.082,-0.058l0.082,-0.056l0.084,-0.054l0.085,-0.052l0.086,-0.049l0.087,-0.047l0.088,-0.045l0.089,-0.043l0.09,-0.04l0.09,-0.038l0.091,-0.035l0.091,-0.033l0.092,-0.031l0.093,-0.029l0.093,-0.026l0.094,-0.024l0.094,-0.022l0.094,-0.02l0.094,-0.017l0.095,-0.015l0.095,-0.012l0.096,-0.01l0.095,-0.008l0.096,-0.006l0.095,-0.004l0.096,-0.001l0.096,0.001Zm-0.105,4.008l-2.154,2.154l-0.008,0.009l0.008,0.009l18.211,18.21l3.04,0.869l-0.869,-3.04l-18.21,-18.211l-0.009,-0.008l-0.009,0.008Z"/></g><g id="emoji"><path d="M22,27l0,-1l4,-4l1,0l2,7l-7,-2Z" style="fill:#fff;"/><path d="M3.414,8.414c-0.781,-0.781 -0.781,-2.047 0,-2.828c0.68,-0.68 1.492,-1.492 2.172,-2.172c0.781,-0.781 2.047,-0.781 2.828,0c0.778,0.778 1.586,1.586 1.586,1.586l0,1l-4,4l-1,0c0,0 -0.808,-0.808 -1.586,-1.586Z" style="fill:#e06e8c;"/><path d="M25.939,20.939l0.061,1.061l-4,4l-1.061,-0.061l-13.939,-13.939l0,-1l4,-4l1,0l13.939,13.939Z" style="fill:#e4d20b;"/><path d="M8,10l15,15l2,-2l-15,-15l-2,2Z" style="fill:#78701a;"/><path d="M27,22l-5,5l-1.061,-1.061l5,-5l1.061,1.061Z" style="fill:#78701a;fill-rule:nonzero;"/><path d="M10,5l-5,5l2,2l5,-5l-2,-2Z" style="fill:#727272;"/></g></svg>