<?xml version="1.0" encoding="UTF-8" standalone="no"?>
<!DOCTYPE svg PUBLIC "-//W3C//DTD SVG 1.1//EN" "http://www.w3.org/Graphics/SVG/1.1/DTD/svg11.dtd">
<svg width="100%" height="100%" viewBox="0 0 32 32" version="1.1" xmlns="http://www.w3.org/2000/svg" xmlns:xlink="http://www.w3.org/1999/xlink" xml:space="preserve" xmlns:serif="http://www.serif.com/" style="fill-rule:evenodd;clip-rule:evenodd;stroke-linejoin:round;stroke-miterlimit:1.41421;">
    <rect id="triangle_ruler" x="0" y="0" width="32" height="32" style="fill:none;"/>
    <clipPath id="_clip1">
        <rect x="0" y="0" width="32" height="32"/>
    </clipPath>
    <g clip-path="url(#_clip1)">
        <g id="outline">
            <path d="M30,28l-28,0l0,-24c9.333,8 18.667,16 28,24Z" style="fill:none;fill-rule:nonzero;stroke:#000;stroke-width:4px;"/>
        </g>
        <g id="emoji">
            <path d="M3,4.857l1,2.143l21,18l1,-0.429l4,3.429l-28,0l0,-24l1,0.857Z" style="fill:#1ba4ff;fill-rule:nonzero;"/>
            <path d="M3,4.857l1.042,0.893l-0.042,0.25l1.177,1.081l0.615,0.169l20.208,17.321l0,0.429c0,0.552 -0.448,1 -1,1c-3.786,0 -17.214,0 -21,0c-0.552,0 -1,-0.448 -1,-1l0,-20.143Z" style="fill:#54bbff;fill-rule:nonzero;"/>
            <path d="M16,23l-9,0l0,-7.714c3,2.571 6,5.143 9,7.714Z" style="fill-rule:nonzero;"/>
            <path d="M5,27.25l-3,0l0,-1.5l3,0l0,1.5Zm1,-4l-4,0l0,-1.5l4,0l0,1.5Zm-1,-4l-3,0l0,-1.5l3,0l0,1.5Zm1,-4l-4,0l0,-1.5l4,0l0,1.5Zm-1,-4l-3,0l0,-1.5l3,0l0,1.5Zm0.792,-4l-3.792,0l0,-1.5l2.042,0l1.75,1.5Z" style="fill:#fff;fill-rule:nonzero;"/>
        </g>
    </g>
</svg>
