<?xml version="1.0" encoding="UTF-8" standalone="no"?><!DOCTYPE svg PUBLIC "-//W3C//DTD SVG 1.1//EN" "http://www.w3.org/Graphics/SVG/1.1/DTD/svg11.dtd"><svg width="100%" height="100%" viewBox="0 0 32 32" version="1.1" xmlns="http://www.w3.org/2000/svg" xmlns:xlink="http://www.w3.org/1999/xlink" xml:space="preserve" xmlns:serif="http://www.serif.com/" style="fill-rule:evenodd;clip-rule:evenodd;stroke-linecap:square;stroke-miterlimit:1.5;"><rect id="christmas_tree" x="0" y="0" width="32" height="32" style="fill:none;"/><clipPath id="_clip1"><rect x="0" y="0" width="32" height="32"/></clipPath><g clip-path="url(#_clip1)"><g id="outline"><rect x="14" y="19" width="4" height="11" style="fill:none;stroke:#000;stroke-width:4px;"/><path d="M18.844,8.637c0.444,-0.011 0.888,-0.07 1.325,-0.179c0.941,-0.235 1.831,-0.458 1.831,-0.458c0,0 -0.859,1.719 -1.658,3.317c-0.067,0.134 -0.14,0.263 -0.218,0.389c0.355,-0.025 0.708,-0.072 1.058,-0.142c1.347,-0.27 2.818,-0.564 2.818,-0.564c0,0 -0.466,1.087 -1.031,2.405c-0.392,0.915 -0.951,1.724 -1.632,2.399c0.096,-0.01 0.192,-0.022 0.288,-0.036c2.068,-0.296 5.375,-0.768 5.375,-0.768c0,0 -0.232,0.618 -0.567,1.511c-0.608,1.622 -1.608,3.017 -2.868,4.093l5.435,-0.604c0,0 -0.442,0.662 -1.031,1.547c-1.855,2.782 -4.977,4.453 -8.321,4.453c-2.304,0 -4.992,0 -7.296,0c-3.344,0 -6.466,-1.671 -8.321,-4.453c-0.589,-0.885 -1.031,-1.547 -1.031,-1.547l5.435,0.604c-1.26,-1.076 -2.26,-2.471 -2.868,-4.093c-0.335,-0.893 -0.567,-1.511 -0.567,-1.511c0,0 3.607,0.515 5.643,0.806l0.026,0.004c-0.684,-0.676 -1.245,-1.488 -1.638,-2.405c-0.565,-1.318 -1.031,-2.405 -1.031,-2.405c0,0 1.748,0.35 3.177,0.635c0.239,0.048 0.479,0.083 0.721,0.106c-0.087,-0.136 -0.166,-0.278 -0.24,-0.424c-0.799,-1.598 -1.658,-3.317 -1.658,-3.317c0,0 0.89,0.223 1.831,0.458c0.437,0.109 0.881,0.168 1.325,0.179l2.844,-6.637l2.844,6.637Z" style="fill:none;stroke:#000;stroke-width:4px;stroke-linejoin:round;"/><circle cx="16" cy="4" r="2" style="fill:none;stroke:#000;stroke-width:4px;"/><circle cx="23" cy="16" r="2" style="fill:none;stroke:#000;stroke-width:4px;"/><circle cx="9" cy="15" r="2" style="fill:none;stroke:#000;stroke-width:4px;"/><circle cx="7" cy="23" r="2" style="fill:none;stroke:#000;stroke-width:4px;"/><circle cx="21" cy="25" r="2" style="fill:none;stroke:#000;stroke-width:4px;"/></g><g id="emoji"><path d="M18,18l-4,0l0,10l2,1l2,-1l0,-10Z" style="fill:#43330f;"/><rect x="14" y="28" width="4" height="2" style="fill:#574213;"/><g><path d="M15.824,2.412l0.176,-0.412l2.844,6.637c0.444,-0.011 0.888,-0.07 1.325,-0.179c0.941,-0.235 1.831,-0.458 1.831,-0.458c0,0 -0.859,1.719 -1.658,3.317c-0.074,0.146 -0.153,0.288 -0.24,0.424c0.242,-0.023 0.482,-0.058 0.721,-0.106c1.429,-0.285 3.177,-0.635 3.177,-0.635c0,0 -0.466,1.087 -1.031,2.405c-0.393,0.917 -0.954,1.729 -1.638,2.405l0.026,-0.004c2.036,-0.291 5.643,-0.806 5.643,-0.806c0,0 -0.232,0.618 -0.567,1.511c-0.608,1.622 -1.608,3.017 -2.868,4.093l5.435,-0.604c0,0 -0.442,0.662 -1.031,1.547c-1.855,2.782 -4.977,4.453 -8.321,4.453l-3.648,0l-5,-5l0,-5l3,-7l1.824,-6.588Z" style="fill:#126d36;"/><path d="M15.824,2.412l-0.824,6.588l3,0l-2,3l3,0l-3,4l4,0l-4,5l5,0l-5,5l-3.648,0c-3.344,0 -6.466,-1.671 -8.321,-4.453c-0.589,-0.885 -1.031,-1.547 -1.031,-1.547l5.435,0.604c-1.26,-1.076 -2.26,-2.471 -2.868,-4.093c-0.335,-0.893 -0.567,-1.511 -0.567,-1.511c0,0 3.307,0.472 5.375,0.768c0.096,0.014 0.192,0.026 0.288,0.036c-0.681,-0.675 -1.24,-1.484 -1.632,-2.399c-0.565,-1.318 -1.031,-2.405 -1.031,-2.405c0,0 1.471,0.294 2.818,0.564c0.35,0.07 0.703,0.117 1.058,0.142c-0.078,-0.126 -0.151,-0.255 -0.218,-0.389c-0.799,-1.598 -1.658,-3.317 -1.658,-3.317c0,0 0.89,0.223 1.831,0.458c0.437,0.109 0.881,0.168 1.325,0.179l2.668,-6.225Z" style="fill:#199d4e;"/></g><circle cx="16" cy="4" r="2" style="fill:#ef9b00;"/><circle cx="23" cy="16" r="2" style="fill:#e02a33;"/><circle cx="14" cy="20" r="2" style="fill:#ef9b00;"/><circle cx="16" cy="12" r="2" style="fill:#e02a33;"/><circle cx="9" cy="15" r="2" style="fill:#ef9b00;"/><circle cx="7" cy="23" r="2" style="fill:#e02a33;"/><circle cx="21" cy="25" r="2" style="fill:#ef9b00;"/></g></g></svg>