<?xml version="1.0" encoding="UTF-8" standalone="no"?><!DOCTYPE svg PUBLIC "-//W3C//DTD SVG 1.1//EN" "http://www.w3.org/Graphics/SVG/1.1/DTD/svg11.dtd"><svg width="100%" height="100%" viewBox="0 0 32 32" version="1.1" xmlns="http://www.w3.org/2000/svg" xmlns:xlink="http://www.w3.org/1999/xlink" xml:space="preserve" xmlns:serif="http://www.serif.com/" style="fill-rule:evenodd;clip-rule:evenodd;stroke-linecap:round;stroke-linejoin:round;stroke-miterlimit:1.5;"><rect id="maple_leaf" x="0" y="0" width="32" height="32" style="fill:none;"/><clipPath id="_clip1"><rect x="0" y="0" width="32" height="32"/></clipPath><g clip-path="url(#_clip1)"><g id="Layer2"><path d="M11.613,11.829c0.076,-2.614 0.934,-5.225 2.612,-7.462c1.044,-1.393 1.775,-2.367 1.775,-2.367c0,0 0.731,0.974 1.775,2.367c1.678,2.237 2.536,4.848 2.612,7.462c2.055,-1.772 4.726,-2.829 7.613,-2.829c0,0 0,0 0,0c0,0 -0.067,0.367 -0.176,0.967c-0.52,2.86 -1.84,5.434 -3.725,7.481c2.015,-0.091 4.073,0.409 5.9,1.552c0.001,0 0.001,0 0.001,0c0,0 0,0 0,0c-1.061,2.122 -2.921,3.735 -5.172,4.485c-0.479,0.16 -0.968,0.278 -1.461,0.354c0.401,0.623 0.633,1.365 0.633,2.161c0,0 0,0 0,0c0,0 -0.937,0 -2,0c-1.889,0 -3.667,-0.889 -4.8,-2.4l-0.2,-0.267l0,6.667l-2,0l0,-6.667l-0.2,0.267c-1.133,1.511 -2.911,2.4 -4.8,2.4c-1.063,0 -2,0 -2,0c0,0 0,-0.001 0,-0.002c0,-0.973 0.348,-1.865 0.926,-2.558c-0.508,-0.092 -1.011,-0.226 -1.504,-0.403c-2.419,-0.868 -4.378,-2.687 -5.421,-5.036c-0.001,-0.001 -0.001,-0.001 -0.001,-0.001c0,0 0,0 0.001,0c1.725,-0.863 3.588,-1.22 5.407,-1.115c-1.622,-1.947 -2.759,-4.314 -3.232,-6.918c-0.109,-0.6 -0.176,-0.967 -0.176,-0.967c0,0 0,0 0,0c2.887,0 5.558,1.057 7.613,2.829Z" style="fill:none;stroke:#000;stroke-width:4px;"/></g><g id="Layer1"><rect x="15" y="20" width="2" height="10" style="fill:#7c1414;"/><g><path d="M11.613,11.831c0.075,-2.614 0.934,-5.227 2.612,-7.464c1.044,-1.393 1.775,-2.367 1.775,-2.367c0,0 0.731,0.974 1.775,2.367c1.678,2.237 2.537,4.85 2.612,7.464c2.054,-1.773 4.725,-2.831 7.613,-2.831c0,0 0,0 0,0c0,0 -0.067,0.367 -0.176,0.967c-0.52,2.861 -1.841,5.436 -3.727,7.482c2.015,-0.092 4.074,0.408 5.902,1.551c0.001,0 0.001,0 0.001,0c0,0 0,0 0,0c-1.061,2.122 -2.921,3.735 -5.172,4.485c-0.48,0.161 -0.97,0.279 -1.464,0.352c0.403,0.624 0.636,1.366 0.636,2.163c0,0 0,0 0,0c0,0 -0.937,0 -2,0c-1.889,0 -3.667,-0.889 -4.8,-2.4c-0.139,-0.185 -0.274,-0.365 -0.4,-0.533c-0.189,-0.252 -0.485,-0.4 -0.8,-0.4c-0.315,0 -0.611,0.148 -0.8,0.4c-0.126,0.168 -0.261,0.348 -0.4,0.533c-1.133,1.511 -2.911,2.4 -4.8,2.4c-1.063,0 -2,0 -2,0c0,0 0,-0.001 0,-0.002c0,-0.974 0.348,-1.866 0.927,-2.559c-0.509,-0.091 -1.012,-0.225 -1.505,-0.402c-2.419,-0.868 -4.378,-2.687 -5.421,-5.036c-0.001,-0.001 -0.001,-0.001 -0.001,-0.001c0,0 0,0 0.001,0c1.726,-0.863 3.59,-1.22 5.41,-1.114c-1.624,-1.947 -2.762,-4.314 -3.235,-6.919c-0.109,-0.6 -0.176,-0.967 -0.176,-0.967c0,0 0,0 0,0c2.888,0 5.559,1.058 7.613,2.831Z" style="fill:#b11522;"/><path d="M17.775,4.367l0.079,0.105l0.076,0.106l0.076,0.106l0.074,0.107l0.074,0.107l0.072,0.108l0.071,0.108l0.069,0.109l0.069,0.109l0.067,0.11l0.066,0.11l0.065,0.111l0.064,0.111l0.062,0.111l0.062,0.112l0.06,0.113l0.059,0.112l0.057,0.114l0.057,0.113l0.055,0.114l0.055,0.114l0.053,0.115l0.052,0.115l0.05,0.116l0.05,0.115l0.048,0.117l0.047,0.116l0.046,0.117l0.045,0.117l0.043,0.117l0.043,0.118l0.041,0.118l0.04,0.118l0.039,0.118l0.038,0.119l0.036,0.119l0.036,0.119l0.034,0.12l0.033,0.119l0.032,0.12l0.031,0.12l0.029,0.121l0.029,0.12l0.027,0.121l0.026,0.121l0.025,0.121l0.023,0.121l0.023,0.121l0.021,0.122l0.021,0.121l0.019,0.122l0.018,0.122l0.016,0.122l0.016,0.122l0.014,0.122l0.014,0.122l0.012,0.122l0.011,0.123l0.01,0.122l0.008,0.123l0.008,0.122l0.006,0.123l0.006,0.122l0.004,0.123l0.096,-0.083l0.098,-0.081l0.099,-0.081l0.099,-0.079l0.1,-0.079l0.101,-0.077l0.102,-0.076l0.103,-0.075l0.104,-0.074l0.104,-0.073l0.106,-0.071l0.106,-0.071l0.107,-0.069l0.107,-0.069l0.109,-0.067l0.109,-0.066l0.11,-0.064l0.111,-0.064l0.111,-0.062l0.112,-0.062l0.113,-0.06l0.114,-0.058l0.114,-0.058l0.115,-0.056l0.116,-0.055l0.116,-0.054l0.117,-0.053l0.118,-0.051l0.118,-0.05l0.119,-0.049l0.12,-0.047l0.12,-0.047l0.121,-0.044l0.121,-0.044l0.122,-0.042l0.123,-0.041l0.123,-0.04l0.124,-0.038l0.124,-0.037l0.125,-0.036l0.125,-0.034l0.126,-0.033l0.126,-0.031l0.127,-0.031l0.128,-0.028l0.128,-0.028l0.128,-0.026l0.129,-0.024l0.129,-0.023l0.13,-0.022l0.13,-0.02l0.131,-0.019l0.131,-0.017l0.132,-0.016l0.132,-0.014l0.132,-0.013l0.133,-0.011l0.133,-0.01l0.133,-0.009l0.134,-0.007l0.134,-0.005l0.135,-0.004l0.135,-0.002l0.135,-0.001l0,0l-0.176,0.967l-0.025,0.133l-0.026,0.134l-0.027,0.133l-0.029,0.133l-0.029,0.132l-0.031,0.132l-0.032,0.131l-0.033,0.131l-0.034,0.13l-0.035,0.13l-0.037,0.129l-0.037,0.129l-0.039,0.129l-0.04,0.128l-0.04,0.127l-0.042,0.127l-0.043,0.127l-0.045,0.126l-0.045,0.125l-0.046,0.125l-0.047,0.124l-0.049,0.124l-0.049,0.123l-0.05,0.123l-0.052,0.122l-0.052,0.122l-0.054,0.121l-0.055,0.12l-0.055,0.12l-0.057,0.12l-0.058,0.118l-0.058,0.119l-0.06,0.117l-0.061,0.117l-0.061,0.116l-0.063,0.116l-0.063,0.115l-0.065,0.115l-0.066,0.114l-0.066,0.113l-0.068,0.112l-0.068,0.112l-0.069,0.112l-0.071,0.11l-0.071,0.11l-0.072,0.109l-0.073,0.109l-0.074,0.108l-0.075,0.107l-0.076,0.107l-0.077,0.106l-0.077,0.105l-0.079,0.104l-0.079,0.104l-0.081,0.103l-0.081,0.102l-0.082,0.102l-0.083,0.101l-0.084,0.1l-0.084,0.099l-0.086,0.099l-0.086,0.098l-0.087,0.097l-0.088,0.096l0.094,-0.004l0.095,-0.003l0.094,-0.002l0.095,-0.001l0.095,-0.001l0.095,0.001l0.094,0.001l0.095,0.002l0.095,0.003l0.095,0.004l0.095,0.005l0.094,0.006l0.095,0.007l0.095,0.007l0.095,0.008l0.094,0.01l0.095,0.01l0.095,0.011l0.094,0.012l0.095,0.013l0.094,0.013l0.095,0.015l0.094,0.015l0.094,0.017l0.094,0.017l0.094,0.018l0.094,0.019l0.094,0.02l0.094,0.021l0.093,0.022l0.094,0.023l0.093,0.023l0.094,0.025l0.093,0.025l0.093,0.026l0.092,0.028l0.093,0.028l0.092,0.029l0.093,0.03l0.092,0.031l0.092,0.031l0.091,0.033l0.092,0.034l0.091,0.034l0.091,0.035l0.091,0.037l0.091,0.037l0.09,0.038l0.09,0.039l0.09,0.04l0.09,0.041l0.089,0.042l0.09,0.043l0.088,0.044l0.089,0.044l0.088,0.046l0.088,0.047l0.088,0.047l0.088,0.048l0.087,0.05l0.087,0.05l0.086,0.051l0.086,0.052l0.087,0.054l0,0l-0.05,0.099l-0.052,0.099l-0.053,0.097l-0.053,0.097l-0.055,0.096l-0.056,0.095l-0.057,0.095l-0.059,0.093l-0.059,0.093l-0.06,0.092l-0.062,0.091l-0.062,0.091l-0.064,0.089l-0.065,0.089l-0.065,0.088l-0.067,0.087l-0.068,0.086l-0.069,0.085l-0.07,0.084l-0.07,0.084l-0.072,0.082l-0.073,0.082l-0.074,0.08l-0.074,0.08l-0.076,0.079l-0.076,0.078l-0.078,0.076l-0.078,0.076l-0.08,0.075l-0.08,0.074l-0.081,0.073l-0.082,0.072l-0.083,0.071l-0.083,0.07l-0.085,0.069l-0.085,0.068l-0.086,0.067l-0.088,0.066l-0.087,0.064l-0.089,0.064l-0.09,0.063l-0.09,0.061l-0.091,0.061l-0.092,0.059l-0.092,0.058l-0.093,0.058l-0.095,0.056l-0.094,0.054l-0.096,0.054l-0.096,0.053l-0.097,0.051l-0.098,0.051l-0.098,0.049l-0.099,0.048l-0.099,0.047l-0.101,0.045l-0.101,0.045l-0.101,0.043l-0.102,0.042l-0.103,0.041l-0.104,0.039l-0.104,0.039l-0.104,0.037l-0.106,0.035l-0.09,0.03l-0.09,0.028l-0.091,0.028l-0.091,0.027l-0.091,0.025l-0.091,0.025l-0.091,0.023l-0.092,0.023l-0.091,0.021l-0.092,0.021l-0.092,0.019l-0.092,0.019l-0.093,0.017l-0.092,0.016l-0.092,0.016l-0.093,0.014l0.037,0.059l0.037,0.059l0.035,0.061l0.034,0.06l0.033,0.062l0.032,0.062l0.031,0.063l0.03,0.063l0.029,0.064l0.028,0.065l0.027,0.065l0.025,0.065l0.025,0.067l0.023,0.067l0.022,0.067l0.021,0.068l0.02,0.068l0.018,0.069l0.018,0.069l0.016,0.07l0.015,0.07l0.014,0.071l0.012,0.071l0.011,0.072l0.01,0.072l0.009,0.072l0.007,0.073l0.006,0.073l0.005,0.073l0.003,0.074l0.002,0.074l0.001,0.075l-2,0l-0.088,-0.001l-0.089,-0.002l-0.088,-0.003l-0.088,-0.004l-0.087,-0.006l-0.088,-0.007l-0.087,-0.009l-0.087,-0.009l-0.087,-0.011l-0.086,-0.012l-0.086,-0.013l-0.086,-0.015l-0.086,-0.016l-0.085,-0.017l-0.085,-0.018l-0.084,-0.02l-0.085,-0.02l-0.083,-0.022l-0.084,-0.023l-0.083,-0.024l-0.083,-0.026l-0.082,-0.026l-0.082,-0.028l-0.081,-0.029l-0.081,-0.03l-0.08,-0.031l-0.08,-0.033l-0.08,-0.033l-0.079,-0.035l-0.078,-0.036l-0.078,-0.036l-0.077,-0.038l-0.077,-0.04l-0.076,-0.04l-0.076,-0.041l-0.075,-0.042l-0.075,-0.044l-0.073,-0.044l-0.074,-0.046l-0.072,-0.047l-0.072,-0.047l-0.071,-0.049l-0.071,-0.05l-0.07,-0.051l-0.069,-0.052l-0.069,-0.053l-0.067,-0.054l-0.068,-0.055l-0.066,-0.056l-0.065,-0.057l-0.065,-0.058l-0.064,-0.058l-0.063,-0.06l-0.063,-0.061l-0.061,-0.062l-0.061,-0.063l-0.06,-0.064l-0.059,-0.065l-0.058,-0.065l-0.057,-0.067l-0.056,-0.068l-0.056,-0.068l-0.054,-0.07l-0.054,-0.07l-0.4,-0.533l-0.018,-0.024l-0.019,-0.022l-0.019,-0.022l-0.02,-0.022l-0.02,-0.021l-0.021,-0.02l-0.021,-0.019l-0.022,-0.019l-0.023,-0.018l-0.023,-0.018l-0.023,-0.016l-0.024,-0.017l-0.024,-0.015l-0.025,-0.015l-0.025,-0.014l-0.026,-0.013l-0.026,-0.012l-0.026,-0.012l-0.026,-0.011l-0.027,-0.01l-0.028,-0.01l-0.027,-0.008l-0.028,-0.008l-0.028,-0.007l-0.028,-0.007l-0.028,-0.005l-0.029,-0.005l-0.029,-0.003l-0.029,-0.003l-0.029,-0.003l-0.03,-0.001l-0.029,0l-0.029,0l-0.03,0.001l-0.029,0.003l-0.029,0.003l-0.029,0.003l-0.029,0.005l-0.028,0.005l-0.028,0.007l-0.028,0.007l-0.028,0.008l-0.027,0.008l-0.028,0.01l-0.027,0.01l-0.026,0.011l-0.026,0.012l-0.026,0.012l-0.026,0.013l-0.025,0.014l-0.025,0.015l-0.024,0.015l-0.024,0.017l-0.023,0.016l-0.023,0.018l-0.023,0.018l-0.022,0.019l-0.021,0.019l-0.021,0.02l-0.02,0.021l-0.02,0.022l-0.019,0.022l-0.019,0.022l-0.018,0.024l-0.4,0.533l-0.054,0.07l-0.054,0.07l-0.056,0.068l-0.056,0.068l-0.057,0.067l-0.058,0.065l-0.059,0.065l-0.06,0.064l-0.061,0.063l-0.061,0.062l-0.063,0.061l-0.063,0.06l-0.064,0.058l-0.065,0.058l-0.065,0.057l-0.066,0.056l-0.068,0.055l-0.067,0.054l-0.069,0.053l-0.069,0.052l-0.07,0.051l-0.071,0.05l-0.071,0.049l-0.072,0.047l-0.072,0.047l-0.074,0.046l-0.073,0.044l-0.075,0.044l-0.075,0.042l-0.076,0.041l-0.076,0.04l-0.077,0.04l-0.077,0.038l-0.078,0.036l-0.078,0.036l-0.079,0.035l-0.08,0.033l-0.08,0.033l-0.08,0.031l-0.081,0.03l-0.081,0.029l-0.082,0.028l-0.082,0.026l-0.083,0.026l-0.083,0.024l-0.084,0.023l-0.083,0.022l-0.085,0.02l-0.084,0.02l-0.085,0.018l-0.085,0.017l-0.086,0.016l-0.086,0.015l-0.086,0.013l-0.086,0.012l-0.087,0.011l-0.087,0.009l-0.087,0.009l-0.088,0.007l-0.087,0.006l-0.088,0.004l-0.088,0.003l-0.089,0.002l-0.088,0.001l-2,0l0,-0.002l0.001,-0.091l0.003,-0.091l0.005,-0.09l0.007,-0.089l0.009,-0.089l0.011,-0.088l0.013,-0.088l0.014,-0.087l0.017,-0.087l0.018,-0.085l0.021,-0.085l0.022,-0.085l0.023,-0.083l0.026,-0.083l0.027,-0.082l0.029,-0.082l0.031,-0.08l0.032,-0.08l0.035,-0.079l0.035,-0.077l0.037,-0.077l0.039,-0.076l0.041,-0.076l0.042,-0.074l0.043,-0.073l0.045,-0.072l0.047,-0.071l0.048,-0.07l0.049,-0.069l0.051,-0.068l0.052,-0.066l0.054,-0.066l-0.096,-0.018l-0.095,-0.018l-0.095,-0.02l-0.095,-0.021l-0.095,-0.021l-0.094,-0.023l-0.095,-0.023l-0.094,-0.025l-0.094,-0.026l-0.094,-0.026l-0.093,-0.028l-0.094,-0.029l-0.093,-0.029l-0.093,-0.031l-0.093,-0.032l-0.092,-0.032l-0.113,-0.042l-0.113,-0.042l-0.111,-0.044l-0.111,-0.046l-0.11,-0.047l-0.11,-0.048l-0.109,-0.05l-0.108,-0.05l-0.107,-0.053l-0.107,-0.053l-0.105,-0.055l-0.105,-0.056l-0.104,-0.057l-0.104,-0.059l-0.102,-0.06l-0.102,-0.061l-0.101,-0.062l-0.1,-0.064l-0.099,-0.065l-0.098,-0.066l-0.097,-0.067l-0.097,-0.068l-0.096,-0.07l-0.094,-0.071l-0.094,-0.072l-0.093,-0.073l-0.092,-0.074l-0.091,-0.075l-0.09,-0.077l-0.088,-0.077l-0.088,-0.079l-0.087,-0.08l-0.086,-0.081l-0.085,-0.082l-0.084,-0.083l-0.083,-0.084l-0.082,-0.085l-0.081,-0.086l-0.08,-0.087l-0.078,-0.088l-0.078,-0.089l-0.076,-0.091l-0.076,-0.091l-0.074,-0.092l-0.073,-0.093l-0.072,-0.094l-0.071,-0.095l-0.069,-0.096l-0.069,-0.097l-0.067,-0.098l-0.066,-0.099l-0.065,-0.099l-0.063,-0.101l-0.063,-0.101l-0.061,-0.103l-0.06,-0.103l-0.059,-0.104l-0.057,-0.105l-0.056,-0.105l-0.055,-0.107l-0.054,-0.107l-0.052,-0.108l-0.051,-0.109l-0.049,-0.11l-0.001,-0.001l0.001,0l0.081,-0.041l0.081,-0.039l0.163,-0.076l0.164,-0.074l0.164,-0.07l0.165,-0.068l0.166,-0.065l0.166,-0.062l0.167,-0.058l0.168,-0.056l0.168,-0.054l0.168,-0.05l0.169,-0.047l0.17,-0.045l0.169,-0.041l0.17,-0.039l0.171,-0.036l0.17,-0.033l0.171,-0.03l0.171,-0.027l0.172,-0.025l0.171,-0.022l0.171,-0.019l0.172,-0.016l0.172,-0.013l0.171,-0.011l0.172,-0.008l0.171,-0.005l0.172,-0.002l0.171,0l0.171,0.004l0.171,0.006l0.171,0.008l-0.076,-0.091l-0.075,-0.093l-0.074,-0.092l-0.074,-0.094l-0.073,-0.094l-0.072,-0.094l-0.071,-0.096l-0.071,-0.095l-0.07,-0.097l-0.069,-0.097l-0.068,-0.097l-0.068,-0.098l-0.067,-0.099l-0.066,-0.099l-0.065,-0.1l-0.065,-0.1l-0.064,-0.101l-0.063,-0.101l-0.062,-0.102l-0.062,-0.103l-0.06,-0.103l-0.06,-0.103l-0.059,-0.104l-0.059,-0.105l-0.057,-0.105l-0.057,-0.106l-0.055,-0.106l-0.055,-0.106l-0.055,-0.108l-0.053,-0.107l-0.052,-0.108l-0.052,-0.109l-0.051,-0.109l-0.05,-0.109l-0.049,-0.11l-0.048,-0.111l-0.048,-0.111l-0.046,-0.111l-0.046,-0.112l-0.045,-0.113l-0.044,-0.112l-0.043,-0.114l-0.042,-0.113l-0.041,-0.114l-0.041,-0.115l-0.039,-0.115l-0.039,-0.115l-0.037,-0.116l-0.037,-0.116l-0.036,-0.117l-0.035,-0.117l-0.034,-0.117l-0.033,-0.118l-0.032,-0.118l-0.032,-0.119l-0.03,-0.119l-0.029,-0.119l-0.029,-0.12l-0.027,-0.12l-0.027,-0.121l-0.025,-0.121l-0.025,-0.121l-0.024,-0.121l-0.022,-0.122l-0.176,-0.967l0.135,0.001l0.135,0.002l0.135,0.004l0.134,0.005l0.134,0.007l0.133,0.009l0.133,0.01l0.133,0.011l0.132,0.013l0.132,0.014l0.132,0.016l0.131,0.017l0.131,0.019l0.13,0.02l0.13,0.022l0.129,0.023l0.129,0.024l0.128,0.026l0.128,0.028l0.128,0.028l0.127,0.031l0.126,0.031l0.126,0.033l0.125,0.034l0.125,0.036l0.124,0.037l0.124,0.038l0.123,0.04l0.123,0.041l0.122,0.042l0.121,0.044l0.121,0.044l0.12,0.047l0.12,0.047l0.119,0.049l0.118,0.05l0.118,0.051l0.117,0.053l0.116,0.054l0.116,0.055l0.115,0.056l0.114,0.058l0.114,0.058l0.113,0.06l0.112,0.062l0.111,0.062l0.111,0.064l0.11,0.064l0.109,0.066l0.109,0.067l0.107,0.069l0.107,0.069l0.106,0.071l0.106,0.071l0.104,0.073l0.104,0.074l0.103,0.075l0.102,0.076l0.101,0.077l0.1,0.079l0.099,0.079l0.099,0.081l0.098,0.081l0.096,0.083l0.004,-0.123l0.006,-0.122l0.006,-0.123l0.008,-0.122l0.008,-0.123l0.01,-0.122l0.011,-0.123l0.012,-0.122l0.014,-0.122l0.014,-0.122l0.016,-0.122l0.016,-0.122l0.018,-0.122l0.019,-0.122l0.021,-0.121l0.021,-0.122l0.023,-0.121l0.023,-0.121l0.025,-0.121l0.026,-0.121l0.027,-0.121l0.029,-0.12l0.029,-0.121l0.031,-0.12l0.032,-0.12l0.033,-0.119l0.034,-0.12l0.036,-0.119l0.036,-0.119l0.038,-0.119l0.039,-0.118l0.04,-0.118l0.041,-0.118l0.043,-0.118l0.043,-0.117l0.045,-0.117l0.046,-0.117l0.047,-0.116l0.048,-0.117l0.05,-0.115l0.05,-0.116l0.052,-0.115l0.053,-0.115l0.055,-0.114l0.055,-0.114l0.057,-0.113l0.057,-0.114l0.059,-0.112l0.06,-0.113l0.062,-0.112l0.062,-0.111l0.064,-0.111l0.065,-0.111l0.066,-0.11l0.067,-0.11l0.069,-0.109l0.069,-0.109l0.071,-0.108l0.072,-0.108l0.074,-0.107l0.074,-0.107l0.076,-0.106l0.076,-0.106l0.079,-0.105l1.775,-2.367l1.775,2.367Zm-1.948,1.196l-0.069,0.094l-0.065,0.089l-0.064,0.091l-0.063,0.09l-0.063,0.091l-0.061,0.092l-0.06,0.092l-0.059,0.092l-0.058,0.092l-0.057,0.093l-0.056,0.094l-0.055,0.093l-0.054,0.094l-0.053,0.095l-0.052,0.095l-0.051,0.095l-0.05,0.095l-0.049,0.096l-0.048,0.096l-0.047,0.097l-0.045,0.097l-0.045,0.097l-0.044,0.097l-0.043,0.098l-0.042,0.098l-0.041,0.098l-0.04,0.098l-0.038,0.099l-0.038,0.099l-0.037,0.1l-0.036,0.099l-0.035,0.1l-0.034,0.1l-0.033,0.1l-0.032,0.101l-0.031,0.1l-0.03,0.101l-0.029,0.101l-0.028,0.102l-0.027,0.101l-0.026,0.102l-0.025,0.102l-0.024,0.101l-0.023,0.103l-0.022,0.102l-0.021,0.102l-0.02,0.103l-0.019,0.103l-0.018,0.103l-0.017,0.103l-0.016,0.103l-0.016,0.103l-0.014,0.103l-0.013,0.103l-0.012,0.104l-0.011,0.103l-0.011,0.104l-0.009,0.104l-0.008,0.103l-0.008,0.104l-0.006,0.104l-0.006,0.103l-0.004,0.104l-0.143,4.264l-3.247,-2.772l-0.081,-0.067l-0.081,-0.067l-0.083,-0.066l-0.083,-0.065l-0.084,-0.064l-0.084,-0.063l-0.085,-0.062l-0.086,-0.061l-0.087,-0.061l-0.087,-0.059l-0.088,-0.059l-0.089,-0.057l-0.089,-0.057l-0.09,-0.055l-0.09,-0.055l-0.091,-0.053l-0.092,-0.053l-0.092,-0.052l-0.093,-0.05l-0.094,-0.05l-0.094,-0.049l-0.095,-0.048l-0.095,-0.046l-0.096,-0.046l-0.096,-0.044l-0.097,-0.044l-0.097,-0.042l-0.098,-0.042l-0.099,-0.04l-0.099,-0.04l-0.099,-0.038l-0.1,-0.037l-0.101,-0.036l-0.101,-0.035l-0.101,-0.034l-0.102,-0.033l-0.102,-0.031l-0.103,-0.031l-0.103,-0.029l-0.013,-0.004l0.004,0.011l0.033,0.1l0.034,0.1l0.035,0.099l0.036,0.099l0.037,0.098l0.037,0.098l0.038,0.098l0.039,0.097l0.039,0.097l0.041,0.097l0.041,0.096l0.042,0.096l0.042,0.095l0.043,0.095l0.044,0.094l0.045,0.094l0.046,0.094l0.046,0.093l0.047,0.093l0.047,0.092l0.049,0.092l0.049,0.092l0.05,0.091l0.05,0.09l0.051,0.091l0.052,0.089l0.053,0.089l0.053,0.089l0.054,0.089l0.054,0.087l0.056,0.088l0.056,0.087l0.056,0.086l0.058,0.086l0.058,0.086l0.058,0.085l0.06,0.084l0.06,0.084l0.06,0.084l0.061,0.083l0.062,0.082l0.063,0.082l0.063,0.081l0.064,0.081l0.064,0.081l0.065,0.08l2.97,3.587l-4.696,-0.237l-0.139,-0.005l-0.139,-0.003l-0.139,0l-0.14,0.002l-0.139,0.004l-0.14,0.006l-0.139,0.009l-0.14,0.011l-0.139,0.013l-0.139,0.015l-0.14,0.018l-0.139,0.02l-0.139,0.022l-0.138,0.025l-0.139,0.027l-0.051,0.01l0.022,0.026l0.062,0.07l0.063,0.068l0.063,0.068l0.065,0.067l0.065,0.066l0.066,0.066l0.067,0.064l0.068,0.064l0.068,0.063l0.07,0.062l0.07,0.061l0.07,0.06l0.072,0.059l0.072,0.059l0.073,0.057l0.074,0.057l0.075,0.056l0.075,0.054l0.076,0.054l0.077,0.053l0.077,0.052l0.078,0.051l0.079,0.05l0.079,0.049l0.08,0.049l0.081,0.047l0.081,0.046l0.082,0.045l0.083,0.044l0.083,0.043l0.084,0.042l0.085,0.041l0.085,0.041l0.085,0.039l0.087,0.037l0.086,0.037l0.088,0.036l0.088,0.035l0.088,0.034l0.09,0.033l0.072,0.025l0.073,0.025l0.073,0.024l0.074,0.023l0.073,0.023l0.074,0.022l0.074,0.021l0.073,0.02l0.074,0.019l0.075,0.019l0.074,0.017l0.074,0.017l0.075,0.016l0.074,0.016l0.075,0.014l3.41,0.63l-1.413,1.729l0.001,0l0.055,-0.018l0.054,-0.018l0.054,-0.02l0.054,-0.02l0.054,-0.021l0.053,-0.021l0.053,-0.023l0.053,-0.023l0.052,-0.023l0.052,-0.025l0.052,-0.025l0.051,-0.026l0.051,-0.027l0.05,-0.028l0.05,-0.028l0.05,-0.029l0.049,-0.03l0.049,-0.03l0.049,-0.031l0.047,-0.032l0.048,-0.033l0.047,-0.033l0.047,-0.034l0.046,-0.034l0.046,-0.036l0.045,-0.035l0.044,-0.037l0.045,-0.038l0.043,-0.037l0.043,-0.039l0.043,-0.039l0.042,-0.04l0.042,-0.041l0.041,-0.041l0.04,-0.042l0.04,-0.042l0.039,-0.044l0.039,-0.043l0.038,-0.045l0.038,-0.045l0.037,-0.046l0.036,-0.046l0.04,-0.053l0.405,-0.539l0.045,-0.058l0.056,-0.068l0.057,-0.066l0.06,-0.065l0.061,-0.062l0.063,-0.06l0.064,-0.059l0.066,-0.057l0.068,-0.054l0.068,-0.052l0.071,-0.051l0.072,-0.048l0.072,-0.046l0.074,-0.044l0.076,-0.042l0.077,-0.04l0.077,-0.037l0.078,-0.035l0.08,-0.033l0.081,-0.031l0.082,-0.028l0.082,-0.026l0.083,-0.024l0.084,-0.021l0.085,-0.019l0.085,-0.016l0.087,-0.015l0.086,-0.011l0.087,-0.009l0.088,-0.006l0.088,-0.004l0.088,-0.002l0.088,0.002l0.088,0.004l0.088,0.006l0.087,0.009l0.086,0.011l0.087,0.015l0.085,0.016l0.085,0.019l0.084,0.021l0.083,0.024l0.083,0.026l0.081,0.028l0.08,0.031l0.08,0.032l0.079,0.036l0.078,0.037l0.076,0.04l0.075,0.042l0.074,0.043l0.074,0.047l0.071,0.048l0.071,0.05l0.069,0.053l0.067,0.054l0.066,0.057l0.064,0.059l0.063,0.06l0.061,0.062l0.059,0.064l0.058,0.067l0.056,0.068l0.045,0.058l0.405,0.539l0.04,0.053l0.036,0.046l0.037,0.046l0.038,0.045l0.038,0.045l0.039,0.043l0.039,0.043l0.04,0.043l0.04,0.042l0.041,0.041l0.042,0.041l0.042,0.04l0.043,0.039l0.043,0.039l0.043,0.038l0.045,0.037l0.044,0.037l0.045,0.035l0.046,0.036l0.046,0.034l0.047,0.034l0.047,0.033l0.048,0.033l0.047,0.032l0.049,0.031l0.049,0.03l0.049,0.03l0.049,0.029l0.051,0.028l0.05,0.028l0.051,0.027l0.051,0.026l0.052,0.025l0.052,0.025l0.052,0.023l0.053,0.024l0.053,0.022l0.053,0.021l0.054,0.021l0.054,0.02l0.054,0.02l0.054,0.018l0.055,0.018l0.055,0.017l0.056,0.016l0.055,0.015l0.056,0.015l0.003,0.001l-0.983,-1.551l3.101,-0.48l0.071,-0.012l0.07,-0.012l0.071,-0.014l0.07,-0.014l0.071,-0.015l0.07,-0.015l0.071,-0.017l0.07,-0.017l0.071,-0.018l0.07,-0.019l0.07,-0.02l0.071,-0.021l0.07,-0.021l0.07,-0.022l0.069,-0.023l0.083,-0.028l0.081,-0.029l0.081,-0.029l0.08,-0.031l0.08,-0.032l0.079,-0.032l0.079,-0.034l0.078,-0.034l0.078,-0.036l0.078,-0.036l0.076,-0.037l0.077,-0.038l0.075,-0.04l0.076,-0.04l0.075,-0.04l0.074,-0.042l0.073,-0.043l0.073,-0.043l0.073,-0.045l0.071,-0.045l0.072,-0.046l0.07,-0.047l0.071,-0.048l0.069,-0.048l0.069,-0.05l0.068,-0.05l0.068,-0.051l0.067,-0.052l0.066,-0.053l0.066,-0.053l0.064,-0.055l0.065,-0.055l0.063,-0.056l0.063,-0.056l0.063,-0.058l0.061,-0.058l0.061,-0.059l0.06,-0.059l0.06,-0.061l0.029,-0.03l-0.017,-0.005l-0.075,-0.023l-0.074,-0.022l-0.075,-0.021l-0.075,-0.02l-0.075,-0.02l-0.075,-0.019l-0.075,-0.018l-0.075,-0.018l-0.075,-0.016l-0.076,-0.016l-0.075,-0.016l-0.076,-0.014l-0.076,-0.014l-0.075,-0.014l-0.076,-0.012l-0.076,-0.012l-0.076,-0.011l-0.076,-0.01l-0.076,-0.01l-0.076,-0.009l-0.077,-0.008l-0.076,-0.007l-0.076,-0.007l-0.076,-0.006l-0.077,-0.005l-0.076,-0.005l-0.076,-0.004l-0.077,-0.003l-0.076,-0.002l-0.076,-0.002l-0.077,-0.001l-0.076,-0.001l-0.076,0.001l-0.076,0.001l-0.077,0.001l-0.076,0.003l-4.883,0.2l3.321,-3.634l0.076,-0.084l0.075,-0.085l0.074,-0.085l0.073,-0.087l0.073,-0.086l0.072,-0.088l0.071,-0.088l0.07,-0.089l0.07,-0.089l0.069,-0.09l0.068,-0.09l0.067,-0.091l0.067,-0.092l0.065,-0.092l0.065,-0.093l0.065,-0.094l0.063,-0.094l0.062,-0.095l0.062,-0.095l0.061,-0.096l0.06,-0.096l0.059,-0.097l0.059,-0.098l0.057,-0.098l0.057,-0.099l0.056,-0.099l0.055,-0.1l0.055,-0.1l0.053,-0.101l0.053,-0.101l0.051,-0.102l0.051,-0.102l0.05,-0.103l0.049,-0.103l0.048,-0.104l0.048,-0.105l0.046,-0.104l0.046,-0.106l0.044,-0.106l0.044,-0.106l0.043,-0.107l0.042,-0.107l0.041,-0.108l0.04,-0.108l0.039,-0.109l0.038,-0.109l0.037,-0.109l0.023,-0.069l-0.013,0.004l-0.103,0.029l-0.103,0.031l-0.102,0.031l-0.102,0.033l-0.102,0.034l-0.1,0.035l-0.101,0.036l-0.1,0.037l-0.099,0.038l-0.099,0.04l-0.099,0.04l-0.098,0.042l-0.097,0.042l-0.097,0.044l-0.096,0.044l-0.096,0.046l-0.095,0.046l-0.095,0.048l-0.094,0.049l-0.094,0.049l-0.093,0.051l-0.092,0.052l-0.092,0.052l-0.091,0.054l-0.09,0.055l-0.09,0.055l-0.089,0.057l-0.089,0.057l-0.088,0.059l-0.087,0.059l-0.087,0.061l-0.086,0.061l-0.085,0.062l-0.084,0.063l-0.084,0.064l-0.083,0.065l-0.083,0.066l-0.081,0.067l-0.081,0.067l-3.248,2.772l-0.142,-4.264l-0.004,-0.104l-0.006,-0.103l-0.006,-0.104l-0.008,-0.104l-0.008,-0.103l-0.009,-0.104l-0.011,-0.104l-0.011,-0.103l-0.012,-0.104l-0.013,-0.103l-0.014,-0.103l-0.016,-0.103l-0.016,-0.103l-0.017,-0.103l-0.018,-0.103l-0.019,-0.103l-0.02,-0.103l-0.021,-0.102l-0.022,-0.102l-0.023,-0.102l-0.024,-0.102l-0.025,-0.102l-0.026,-0.102l-0.027,-0.101l-0.028,-0.102l-0.029,-0.101l-0.03,-0.101l-0.031,-0.101l-0.032,-0.1l-0.033,-0.1l-0.034,-0.1l-0.035,-0.1l-0.036,-0.099l-0.037,-0.1l-0.037,-0.099l-0.039,-0.099l-0.04,-0.098l-0.041,-0.098l-0.042,-0.098l-0.043,-0.098l-0.044,-0.097l-0.045,-0.098l-0.045,-0.096l-0.047,-0.097l-0.048,-0.096l-0.049,-0.096l-0.05,-0.095l-0.051,-0.095l-0.052,-0.095l-0.053,-0.095l-0.054,-0.094l-0.055,-0.093l-0.056,-0.094l-0.057,-0.093l-0.058,-0.092l-0.059,-0.093l-0.06,-0.091l-0.061,-0.092l-0.062,-0.091l-0.064,-0.09l-0.064,-0.091l-0.065,-0.089l-0.069,-0.094l-0.173,-0.23l-0.173,0.23Z" style="fill:#c91818;"/></g></g></g></svg>