<?xml version="1.0" encoding="UTF-8" standalone="no"?><!DOCTYPE svg PUBLIC "-//W3C//DTD SVG 1.1//EN" "http://www.w3.org/Graphics/SVG/1.1/DTD/svg11.dtd"><svg width="100%" height="100%" viewBox="0 0 32 32" version="1.1" xmlns="http://www.w3.org/2000/svg" xmlns:xlink="http://www.w3.org/1999/xlink" xml:space="preserve" xmlns:serif="http://www.serif.com/" style="fill-rule:evenodd;clip-rule:evenodd;stroke-linecap:round;stroke-linejoin:round;stroke-miterlimit:3;"><rect id="palm_tree" x="0" y="0" width="32" height="32" style="fill:none;"/><clipPath id="_clip1"><rect x="0" y="0" width="32" height="32"/></clipPath><g clip-path="url(#_clip1)"><g id="outline"><path d="M9.941,5.882l-7.941,-0.882c0,0 1.802,-1.351 2.987,-2.24c0.648,-0.487 1.464,-0.696 2.267,-0.581c1.209,0.173 3.037,0.434 4.305,0.615c0.447,0.064 0.868,0.225 1.236,0.465c0.823,-0.622 1.862,-0.906 2.9,-0.778c1.222,0.15 2.307,0.856 2.941,1.912l0.102,0.17c0.496,-0.361 1.1,-0.563 1.729,-0.563c0.997,0 2.304,0 3.258,0c0.813,0 1.59,0.338 2.145,0.932c0.822,0.881 1.93,2.068 1.93,2.068l-4.851,0.836c0.033,0.026 0.065,0.053 0.096,0.081c1.139,0.999 2.932,2.572 3.927,3.445c0.473,0.414 0.8,0.97 0.933,1.584c0.366,1.69 1.095,5.054 1.095,5.054l-6.015,-3.538l0.682,1.705c0.216,0.542 0.257,1.138 0.115,1.703c-0.294,1.177 -0.782,3.13 -0.782,3.13l-5,-9.286l0,1.106c0,0.776 -0.181,1.541 -0.528,2.236l-2.472,4.944l0,5.092c0,0.592 0.175,1.171 0.504,1.664c0.592,0.888 1.496,2.244 1.496,2.244c0,0 -0.318,0.159 -0.776,0.388c-1.993,0.997 -4.369,0.849 -6.224,-0.388c0,0 0,0 0,0c0,0 0.904,-1.356 1.496,-2.244c0.329,-0.493 0.504,-1.072 0.504,-1.664c0,-1.502 0,-4.617 0,-7.432c0,-2.491 0.455,-4.95 1.333,-7.26l-7.333,6.6c0,0 0.545,-2.18 0.83,-3.321c0.112,-0.447 0.323,-0.863 0.618,-1.216l2.939,-3.528l-0.094,0.016c-0.195,0.033 -0.386,0.084 -0.571,0.153c-1.412,0.53 -7.722,2.896 -7.722,2.896c0,0 1.659,-2.212 2.51,-3.346c0.321,-0.428 0.749,-0.765 1.241,-0.976l4.19,-1.796Z" style="fill:none;stroke:#000;stroke-width:4px;"/></g><g id="emoji"><path d="M14,17l1,2.785l0,5.307c0,0.592 0.175,1.171 0.504,1.664c0.592,0.888 1.496,2.244 1.496,2.244c0,0 -0.318,0.159 -0.776,0.388c-1.993,0.997 -4.369,0.849 -6.224,-0.388c0,0 0,0 0,0c0,0 0.904,-1.356 1.496,-2.244c0.329,-0.493 0.504,-1.072 0.504,-1.664l0,-6.171l2,-1.921Z" style="fill:#574213;"/><path d="M12,18.921l0,-1.261c0,-3.703 1.007,-7.338 2.912,-10.514c0,0 0.001,0 0.001,0c0.054,-0.091 0.151,-0.146 0.257,-0.146c0.1,0 0.238,0 0.394,0c0.333,0 0.645,0.16 0.84,0.43c0.194,0.27 0.247,0.617 0.142,0.932c-0.013,0.04 -0.026,0.079 -0.04,0.12c-0.997,2.992 -1.506,6.126 -1.506,9.281l0,2.022l-1.812,-0.407l-1.188,-0.457Z" style="fill:#43330f;"/><path d="M23,21l-5,-9.286l0,1.106c0,0.776 -0.181,1.541 -0.528,2.236c-0.861,1.721 -2.472,4.944 -2.472,4.944c0,0 -0.652,-3.259 -0.903,-4.515c-0.064,-0.322 -0.097,-0.651 -0.097,-0.98l0,-4.705l-8,7.2c0,0 0.545,-2.18 0.83,-3.321c0.112,-0.447 0.323,-0.863 0.618,-1.216l2.939,-3.528l-0.094,0.016c-0.195,0.033 -0.386,0.084 -0.571,0.153c-1.412,0.53 -7.722,2.896 -7.722,2.896c0,0 1.659,-2.212 2.51,-3.346c0.321,-0.428 0.749,-0.765 1.241,-0.976l4.19,-1.796l-7.941,-0.882c0,0 1.802,-1.351 2.987,-2.24c0.648,-0.487 1.464,-0.696 2.267,-0.581c1.209,0.173 3.037,0.434 4.305,0.615c0.447,0.064 0.868,0.225 1.236,0.465c0.823,-0.622 1.862,-0.906 2.9,-0.778c1.222,0.15 2.307,0.856 2.941,1.912l0.102,0.17c0.496,-0.361 1.1,-0.563 1.729,-0.563c0.997,0 2.304,0 3.258,0c0.813,0 1.59,0.338 2.145,0.932l1.755,1.881l-6.625,0.187l1,3l1,11Z" style="fill:#199d4e;"/><path d="M23,21c0,0 -1.181,-5.907 -1.728,-8.641c-0.18,-0.899 -0.513,-1.761 -0.985,-2.547c-0.461,-0.769 -1.062,-1.77 -1.531,-2.553c-0.171,-0.283 -0.189,-0.633 -0.051,-0.933c0.139,-0.301 0.417,-0.513 0.744,-0.567c0.788,-0.132 1.774,-0.296 2.626,-0.438c1.251,-0.209 2.536,-0.016 3.67,0.552l1.88,0.94l0.175,0.187l-4.851,0.836c0.033,0.026 0.065,0.053 0.096,0.081c1.139,0.999 2.932,2.572 3.927,3.445c0.473,0.414 0.8,0.97 0.933,1.584c0.366,1.69 1.095,5.054 1.095,5.054l-6.015,-3.538l0.682,1.705c0.216,0.542 0.257,1.138 0.115,1.703l-0.782,3.13Z" style="fill:#126d36;"/></g></g></svg>