<?xml version="1.0" encoding="UTF-8" standalone="no"?><!DOCTYPE svg PUBLIC "-//W3C//DTD SVG 1.1//EN" "http://www.w3.org/Graphics/SVG/1.1/DTD/svg11.dtd"><svg width="100%" height="100%" viewBox="0 0 32 32" version="1.1" xmlns="http://www.w3.org/2000/svg" xmlns:xlink="http://www.w3.org/1999/xlink" xml:space="preserve" xmlns:serif="http://www.serif.com/" style="fill-rule:evenodd;clip-rule:evenodd;stroke-linecap:round;stroke-linejoin:round;stroke-miterlimit:1.5;"><rect id="sheaf_of_rice" x="0" y="0" width="32" height="32" style="fill:none;"/><clipPath id="_clip1"><rect x="0" y="0" width="32" height="32"/></clipPath><g clip-path="url(#_clip1)"><g id="outline"><path d="M16.6,7.25c0.571,-0.163 1.17,-0.25 1.784,-0.25c0.188,0 0.376,0 0.562,0c2.213,0 4.274,1.131 5.462,2.999c0.819,1.287 1.592,2.501 1.592,2.501c0,0 -2.56,-0.914 -4.583,-1.637c-0.452,-0.161 -0.91,-0.3 -1.374,-0.417l1.957,1.054l-0.871,0.218c1.068,0.743 1.883,1.818 2.303,3.078c0.711,2.132 1.568,4.704 1.568,4.704c0,0 -1.263,-1.105 -2.369,-2.073c-1.083,-0.947 -2.282,-1.753 -3.569,-2.396c0,0 0,0 0,0c-1.257,-0.629 -2.586,-1.1 -3.956,-1.406c-0.082,0.047 -0.164,0.095 -0.245,0.145l-0.139,0.524c-0.481,1.803 -0.864,3.63 -1.148,5.474l-1.574,10.232l-3.74,-9.35c-0.173,-0.433 -0.364,-0.859 -0.573,-1.276c-0.943,-1.885 -3.687,-7.374 -3.687,-7.374c0,0 0,0 0.001,0c1.153,0.231 2.23,0.635 3.207,1.182c-0.805,-2.201 -2.011,-4.243 -3.566,-6.019c-0.09,-0.104 -0.142,-0.163 -0.142,-0.163c0,0 0.576,0.082 1.261,0.18c1.425,0.204 2.695,1.004 3.493,2.202c0.001,0 0.001,0 0.001,0.001c0.076,0.114 0.147,0.229 0.214,0.347c0.049,-0.297 0.104,-0.594 0.163,-0.89c0.704,-3.518 1.368,-6.84 1.368,-6.84c0,0 0.086,0.172 0.222,0.445c1.107,2.213 1.711,4.641 1.773,7.112c1.13,-2.814 3.017,-5.316 5.521,-7.194c0.305,-0.229 0.484,-0.363 0.484,-0.363l-1.4,5.25Z" style="fill:none;stroke:#000;stroke-width:4px;"/></g><g id="emoji"><g><path d="M13.745,6.292c1.021,-1.486 2.288,-2.817 3.771,-3.929c0.305,-0.229 0.484,-0.363 0.484,-0.363c0,0 -2.126,7.974 -3.278,12.294c-0.481,1.803 -0.864,3.63 -1.148,5.474c-0.587,3.817 -1.574,10.232 -1.574,10.232c0,0 -0.605,-6.654 -1.149,-12.643c-0.004,-0.035 -0.007,-0.069 -0.009,-0.104l0.158,-0.253l2.745,-10.708Z" style="fill:#5b9c41;"/><path d="M13.745,6.292l-0.464,4.178c-0.186,1.674 -0.666,3.301 -1.419,4.807c-0.45,0.899 -0.862,1.723 -0.862,1.723l-0.158,0.253c-0.334,-3.933 0.727,-7.797 2.903,-10.961Z" style="fill:#487a33;"/></g><g><path d="M12,30l-1.923,-5l1.923,0l0,5Zm-3.36,-21.2l1.36,-6.8c0,0 0.086,0.172 0.222,0.445c1.169,2.338 1.778,4.916 1.778,7.53l0,8.031c0,-3.24 -3.36,-9.206 -3.36,-9.206Z" style="fill:#5b9c41;"/><path d="M8.64,8.8l0.232,0.291c2.025,2.53 3.128,5.675 3.128,8.915l0,6.994l-1.923,0l-0.09,-0.233c-1.951,-5.073 -2.421,-10.597 -1.355,-15.927l0.008,-0.04Z" style="fill:#487a33;"/></g><path d="M8,16c0,0 0.26,-0.521 0.593,-1.187c0.87,-1.739 0.741,-3.812 -0.338,-5.43c0,-0.001 0,-0.001 -0.001,-0.001c-0.798,-1.198 -2.068,-1.998 -3.493,-2.202c-0.685,-0.098 -1.261,-0.18 -1.261,-0.18c0,0 0.052,0.059 0.142,0.163c2.2,2.514 3.703,5.561 4.358,8.837c0,0 0,0 0,0Z" style="fill:#b7913a;"/><path d="M12,30c0,0 -2.853,-7.132 -3.74,-9.35c-0.173,-0.433 -0.364,-0.859 -0.573,-1.276c-0.943,-1.885 -3.687,-7.374 -3.687,-7.374c0,0 0,0 0.001,0c5.637,1.128 9.447,6.414 8.734,12.118c-0.397,3.182 -0.735,5.882 -0.735,5.882Z" style="fill:#5b9c41;"/><path d="M12,12c0,0 0.152,-0.38 0.372,-0.93c0.983,-2.458 3.364,-4.07 6.012,-4.07c0.188,0 0.376,0 0.562,0c2.213,0 4.274,1.131 5.462,2.999c0.819,1.287 1.592,2.501 1.592,2.501c0,0 -2.56,-0.914 -4.583,-1.637c-1.6,-0.571 -3.285,-0.863 -4.983,-0.863c0,0 0,0 -0.001,0c-0.934,0 -1.848,0.277 -2.626,0.795c-0.837,0.558 -1.807,1.205 -1.807,1.205Z" style="fill:#b7913a;"/><path d="M12,13c0,0 1.256,-0.754 2.51,-1.506c1.575,-0.945 3.493,-1.129 5.219,-0.502c0,0.001 0.001,0.001 0.001,0.001c1.75,0.636 3.113,2.037 3.702,3.803c0.711,2.132 1.568,4.704 1.568,4.704c0,0 -1.263,-1.105 -2.369,-2.073c-1.083,-0.947 -2.282,-1.753 -3.569,-2.396c0,0 0,0 0,0c-1.369,-0.684 -2.822,-1.183 -4.322,-1.483c-1.325,-0.265 -2.74,-0.548 -2.74,-0.548Z" style="fill:#b7913a;"/><path d="M10,19c0,0 0,-1.597 0,-3.143c0,-1.82 0.768,-3.555 2.114,-4.779c0,0 0.001,0 0.001,-0.001c2.028,-1.844 4.999,-2.208 7.413,-0.908c1.328,0.715 2.472,1.331 2.472,1.331c0,0 -2.483,0.621 -4.254,1.064c-1.155,0.288 -2.253,0.774 -3.243,1.434c-0.001,0 -0.001,0 -0.001,0.001c-0.994,0.662 -1.868,1.489 -2.585,2.445c-0.86,1.146 -1.917,2.556 -1.917,2.556Z" style="fill:#dbc38c;"/></g></g></svg>