<?xml version="1.0" encoding="UTF-8" standalone="no"?><!DOCTYPE svg PUBLIC "-//W3C//DTD SVG 1.1//EN" "http://www.w3.org/Graphics/SVG/1.1/DTD/svg11.dtd"><svg width="100%" height="100%" viewBox="0 0 32 32" version="1.1" xmlns="http://www.w3.org/2000/svg" xmlns:xlink="http://www.w3.org/1999/xlink" xml:space="preserve" xmlns:serif="http://www.serif.com/" style="fill-rule:evenodd;clip-rule:evenodd;stroke-linecap:round;stroke-linejoin:round;stroke-miterlimit:10;"><rect id="claw_hand_modifier" x="0" y="0" width="32" height="32" style="fill:none;"/><clipPath id="_clip1"><rect x="0" y="0" width="32" height="32"/></clipPath><g clip-path="url(#_clip1)"><g id="outline"><path d="M3,15l13,-13l13,13l0,2l-13,13l-13,-13l0,-2Z" style="fill:none;fill-rule:nonzero;stroke:#000;stroke-width:4px;"/></g><g id="emoji"><path d="M3,17l0,-2l13,-11l13,11l0,2l-13,13l-13,-13Z" style="fill:#464646;"/><path d="M3,15l13,-13l13,13l-13,13l-13,-13Z" style="fill:#fff;"/><clipPath id="_clip2"><path d="M3,15l13,-13l13,13l-13,13l-13,-13Z"/></clipPath><g clip-path="url(#_clip2)"><clipPath id="_clip3"><rect x="4" y="5" width="32" height="32"/></clipPath><g clip-path="url(#_clip3)"><rect id="hand--clw-" serif:id="hand [clw]" x="4" y="5" width="32" height="32" style="fill:none;"/><g><path id="Layer1" d="M24.597,5l1.403,0.581l0,13.287c0.085,-0.05 0.172,-0.096 0.259,-0.142c0.083,-0.042 0.166,-0.083 0.251,-0.123c0.368,-0.168 0.747,-0.306 1.14,-0.405c0.518,-0.131 1.048,-0.194 1.582,-0.198l5.004,0l-6.935,13.871c-0.073,0.143 -0.073,0.142 -0.149,0.284c-0.106,0.19 -0.215,0.378 -0.332,0.562c-0.261,0.408 -0.554,0.796 -0.876,1.158c-1.165,1.313 -2.701,2.281 -4.389,2.765c-0.517,0.148 -1.047,0.252 -1.582,0.308c-0.271,0.029 -0.543,0.043 -0.816,0.051l-0.214,0.001l-0.888,0l-0.172,-0.001c-0.375,-0.007 -0.749,-0.028 -1.122,-0.071c-0.862,-0.098 -1.712,-0.299 -2.527,-0.598c-1.584,-0.579 -3.026,-1.528 -4.19,-2.748c-1.072,-1.126 -1.904,-2.477 -2.42,-3.943c-0.273,-0.776 -0.459,-1.583 -0.552,-2.4c-0.043,-0.373 -0.064,-0.747 -0.071,-1.122l-0.001,-0.136l0,-2.983c-0.064,-2.756 -0.033,-5.513 0.001,-8.269c0.01,-0.263 0.039,-0.523 0.097,-0.78c0.115,-0.509 0.329,-0.994 0.629,-1.421c0.131,-0.185 0.278,-0.357 0.436,-0.519l4.133,-4.134l0.707,0.293l3.169,-3.168l0.425,0l1.403,0.581l0,0.591l1.172,-1.172l2.828,0l0,2.172l2.172,-2.172l0.425,0Z"/><g id="Layer11" serif:id="Layer1"><path d="M20,19l1,0l0.5,-0.5l-0.5,-0.5l0,-5l0.5,-0.5l-0.5,-0.5l0,-0.172c0,-0.53 0.211,-1.039 0.586,-1.414c0.873,-0.873 2.414,-2.414 2.414,-2.414l0,4l-0.5,0.5l0.5,0.5l0,5l-0.5,0.5l0.5,0.5l0,5c0,0 0.858,-1.144 1.657,-2.209c0.845,-1.127 2.173,-1.791 3.582,-1.791l1.761,0c0,0 -3.263,6.526 -5.484,10.969c-1.236,2.47 -3.761,4.031 -6.523,4.031l-0.968,0c-4.984,0 -9.025,-4.041 -9.025,-9.025l0,-3.424l0,-1.551l0.5,-0.5l-0.5,-0.5l0,-4l0.5,-0.5l-0.5,-0.5l0,-0.172c0,-0.53 0.211,-1.039 0.586,-1.414c0.873,-0.873 2.414,-2.414 2.414,-2.414l0,4l-0.5,0.5l0.5,0.5l0,4l-0.5,0.5l0.5,0.5l1,0l0,-1l0.5,-0.5l-0.5,-0.5l0,-4l0.5,-0.5l-0.5,-0.5l0,-2.172c0,-0.53 0.211,-1.039 0.586,-1.414c0.873,-0.873 2.414,-2.414 2.414,-2.414l0,6l-0.5,0.5l0.5,0.5l0,4l-0.5,0.5l0.5,0.5l1,0l0,-1l0.5,-0.5l-0.5,-0.5l0,-5l0.5,-0.5l-0.5,-0.5l0,-1.172c0,-0.53 0.211,-1.039 0.586,-1.414c0.873,-0.873 2.414,-2.414 2.414,-2.414l0,5l-0.5,0.5l0.5,0.5l0,5l-0.5,0.5l0.5,0.5Z" style="fill:#808080;"/><clipPath id="_clip4"><path d="M20,19l1,0l0.5,-0.5l-0.5,-0.5l0,-5l0.5,-0.5l-0.5,-0.5l0,-0.172c0,-0.53 0.211,-1.039 0.586,-1.414c0.873,-0.873 2.414,-2.414 2.414,-2.414l0,4l-0.5,0.5l0.5,0.5l0,5l-0.5,0.5l0.5,0.5l0,5c0,0 0.858,-1.144 1.657,-2.209c0.845,-1.127 2.173,-1.791 3.582,-1.791l1.761,0c0,0 -3.263,6.526 -5.484,10.969c-1.236,2.47 -3.761,4.031 -6.523,4.031l-0.968,0c-4.984,0 -9.025,-4.041 -9.025,-9.025l0,-3.424l0,-1.551l0.5,-0.5l-0.5,-0.5l0,-4l0.5,-0.5l-0.5,-0.5l0,-0.172c0,-0.53 0.211,-1.039 0.586,-1.414c0.873,-0.873 2.414,-2.414 2.414,-2.414l0,4l-0.5,0.5l0.5,0.5l0,4l-0.5,0.5l0.5,0.5l1,0l0,-1l0.5,-0.5l-0.5,-0.5l0,-4l0.5,-0.5l-0.5,-0.5l0,-2.172c0,-0.53 0.211,-1.039 0.586,-1.414c0.873,-0.873 2.414,-2.414 2.414,-2.414l0,6l-0.5,0.5l0.5,0.5l0,4l-0.5,0.5l0.5,0.5l1,0l0,-1l0.5,-0.5l-0.5,-0.5l0,-5l0.5,-0.5l-0.5,-0.5l0,-1.172c0,-0.53 0.211,-1.039 0.586,-1.414c0.873,-0.873 2.414,-2.414 2.414,-2.414l0,5l-0.5,0.5l0.5,0.5l0,5l-0.5,0.5l0.5,0.5Z"/></clipPath><g clip-path="url(#_clip4)"><path d="M25.587,18.004c0.126,0.015 0.246,0.044 0.36,0.102c0.343,0.171 0.562,0.535 0.553,0.918c-0.004,0.149 -0.043,0.288 -0.106,0.423l-3.471,6.943c-0.328,-0.186 -0.654,-0.375 -0.984,-0.558c-0.064,-0.033 -0.128,-0.064 -0.194,-0.094c-0.285,-0.122 -0.583,-0.203 -0.892,-0.23c-0.789,-0.069 -1.586,0.205 -2.164,0.746c-0.228,0.212 -0.414,0.461 -0.563,0.733c-0.421,0.815 -0.821,1.64 -1.232,2.46c-0.07,0.131 -0.158,0.246 -0.275,0.338c-0.099,0.078 -0.212,0.137 -0.333,0.173c-0.1,0.03 -0.205,0.044 -0.31,0.042c-0.339,-0.008 -0.658,-0.194 -0.833,-0.484c-0.054,-0.09 -0.094,-0.188 -0.117,-0.29c-0.033,-0.143 -0.034,-0.293 -0.004,-0.437c0.014,-0.062 0.034,-0.12 0.057,-0.179c0.384,-0.832 0.818,-1.64 1.227,-2.459c0.094,-0.181 0.194,-0.357 0.307,-0.526c0.227,-0.337 0.497,-0.646 0.8,-0.915c0.426,-0.378 0.919,-0.679 1.45,-0.886c1.004,-0.39 2.134,-0.434 3.163,-0.113l2.58,-5.158c0.03,-0.056 0.061,-0.109 0.099,-0.16c0.128,-0.167 0.307,-0.291 0.509,-0.351c0.081,-0.024 0.163,-0.035 0.247,-0.041c0.063,-0.001 0.063,-0.001 0.126,0.003Z" style="fill:#616161;fill-rule:nonzero;"/></g><g><rect x="21" y="12" width="3" height="1" style="fill:#616161;"/><rect x="21" y="18" width="3" height="1" style="fill:#616161;"/><rect x="17" y="12" width="3" height="1" style="fill:#616161;"/><rect x="17" y="18" width="3" height="1" style="fill:#616161;"/><rect x="13" y="14" width="3" height="1" style="fill:#616161;"/><rect x="13" y="19" width="3" height="1" style="fill:#616161;"/><rect x="9" y="15" width="3" height="1" style="fill:#616161;"/><rect x="9" y="20" width="3" height="1" style="fill:#616161;"/></g></g></g></g></g></g></g></svg>