<?xml version="1.0" encoding="UTF-8" standalone="no"?>
<!DOCTYPE svg PUBLIC "-//W3C//DTD SVG 1.1//EN" "http://www.w3.org/Graphics/SVG/1.1/DTD/svg11.dtd">
<svg width="100%" height="100%" viewBox="0 0 32 32" version="1.1" xmlns="http://www.w3.org/2000/svg" xmlns:xlink="http://www.w3.org/1999/xlink" xml:space="preserve" xmlns:serif="http://www.serif.com/" style="fill-rule:evenodd;clip-rule:evenodd;stroke-linecap:round;stroke-linejoin:round;stroke-miterlimit:10;">
    <rect id="hoof_hand_modifier" x="0" y="0" width="32" height="32" style="fill:none;"/>
    <clipPath id="_clip1">
        <rect x="0" y="0" width="32" height="32"/>
    </clipPath>
    <g clip-path="url(#_clip1)">
        <g id="outline">
            <path d="M3,15l13,-13l13,13l0,2l-13,13l-13,-13l0,-2Z" style="fill:none;fill-rule:nonzero;stroke:#000;stroke-width:4px;"/>
        </g>
        <g id="emoji">
            <path d="M3,17l0,-2l13,-11l13,11l0,2l-13,13l-13,-13Z" style="fill:#464646;"/>
            <path d="M3,15l13,-13l13,13l-13,13l-13,-13Z" style="fill:#fff;"/>
            <clipPath id="_clip2">
                <path d="M3,15l13,-13l13,13l-13,13l-13,-13Z"/>
            </clipPath>
            <g clip-path="url(#_clip2)">
                <clipPath id="_clip3">
                    <rect x="5" y="5" width="32" height="32"/>
                </clipPath>
                <g clip-path="url(#_clip3)">
                    <rect id="hand--hoof-" serif:id="hand [hoof]" x="5" y="5" width="32" height="32" style="fill:none;"/>
                    <g>
                        <g id="outline1" serif:id="outline">
                            <path d="M13,9c0,0 -0.652,0.652 -1.485,1.485c-2.251,2.251 -3.515,5.303 -3.515,8.486l0,2.029l6,0l0,-5.317c0,-1.119 -0.111,-2.236 -0.33,-3.334c-0.291,-1.456 -0.67,-3.349 -0.67,-3.349Z" style="fill:none;stroke:#000;stroke-width:4px;stroke-miterlimit:1.5;"/>
                            <path d="M35,19c-1.973,0.658 -3.765,1.765 -5.236,3.236c-0.437,0.437 -0.764,0.764 -0.764,0.764l3,6c0,0 0.697,-1.195 1.469,-2.519c1.317,-2.258 1.855,-4.886 1.531,-7.48l0,-0.001Z" style="fill:none;stroke:#000;stroke-width:4px;stroke-miterlimit:1.5;"/>
                            <path d="M19,35c-2.917,0 -5.715,-1.159 -7.778,-3.222c-2.063,-2.063 -3.222,-4.861 -3.222,-7.778l0,-3l0,-1l20,0l0,4l1,-1l3,6c-2.499,3.748 -6.706,6 -11.211,6l-1.789,0Z" style="fill:none;stroke:#000;stroke-width:4px;stroke-miterlimit:1.5;"/>
                            <rect x="15" y="14" width="6" height="7" style="fill:none;stroke:#000;stroke-width:4px;stroke-miterlimit:1.5;"/>
                            <path d="M19,7c-2.561,2.561 -4,6.035 -4,9.656l0,3.344l6,0l0,-4.802c0,-2.113 -0.403,-4.206 -1.188,-6.167c-0.43,-1.076 -0.812,-2.031 -0.812,-2.031Z" style="fill:none;stroke:#000;stroke-width:4px;stroke-miterlimit:1.5;"/>
                            <path d="M24,7c2.561,2.561 4,6.035 4,9.656l0,3.344l-6,0l0,-4.802c0,-2.113 0.403,-4.206 1.188,-6.167c0.43,-1.076 0.812,-2.031 0.812,-2.031Z" style="fill:none;stroke:#000;stroke-width:4px;stroke-miterlimit:1.5;"/>
                        </g>
                        <g id="emoji1" serif:id="emoji">
                            <path d="M19,7c-2.561,2.561 -4,6.035 -4,9.656l0,3.344l3,1l3,-1l0,-4.802c0,-2.113 -0.403,-4.206 -1.188,-6.167c-0.43,-1.076 -0.812,-2.031 -0.812,-2.031Z" style="fill:#464646;"/>
                            <clipPath id="_clip4">
                                <path d="M19,7c-2.561,2.561 -4,6.035 -4,9.656l0,3.344l3,1l3,-1l0,-4.802c0,-2.113 -0.403,-4.206 -1.188,-6.167c-0.43,-1.076 -0.812,-2.031 -0.812,-2.031Z"/>
                            </clipPath>
                            <g clip-path="url(#_clip4)">
                                <rect x="15" y="18" width="6" height="3" style="fill:#808080;"/>
                            </g>
                            <path d="M24,7c2.561,2.561 4,6.035 4,9.656l0,3.344l-3,1l-3,-1l0,-4.802c0,-2.113 0.403,-4.206 1.188,-6.167c0.43,-1.076 0.812,-2.031 0.812,-2.031Z" style="fill:#464646;"/>
                            <clipPath id="_clip5">
                                <path d="M24,7c2.561,2.561 4,6.035 4,9.656l0,3.344l-3,1l-3,-1l0,-4.802c0,-2.113 0.403,-4.206 1.188,-6.167c0.43,-1.076 0.812,-2.031 0.812,-2.031Z"/>
                            </clipPath>
                            <g clip-path="url(#_clip5)">
                                <rect x="22" y="18" width="6" height="3" style="fill:#808080;"/>
                            </g>
                            <path d="M13,9c0,0 -0.652,0.652 -1.485,1.485c-2.251,2.251 -3.515,5.303 -3.515,8.486l0,1.029l3,1l3,-1l0,-4.317c0,-1.119 -0.111,-2.236 -0.33,-3.334c-0.291,-1.456 -0.67,-3.349 -0.67,-3.349Z" style="fill:#464646;"/>
                            <clipPath id="_clip6">
                                <path id="_-Curve-" serif:id="(Curve)" d="M13,9c0,0 -0.652,0.652 -1.485,1.485c-2.251,2.251 -3.515,5.303 -3.515,8.486l0,1.029l3,1l3,-1l0,-4.317c0,-1.119 -0.111,-2.236 -0.33,-3.334c-0.291,-1.456 -0.67,-3.349 -0.67,-3.349Z"/>
                            </clipPath>
                            <g clip-path="url(#_clip6)">
                                <rect x="8" y="19" width="6" height="2" style="fill:#808080;"/>
                            </g>
                            <path d="M35,19c-1.973,0.658 -3.765,1.765 -5.236,3.236c-0.437,0.437 -0.764,0.764 -0.764,0.764l0,4l3,2c0,0 0.697,-1.195 1.469,-2.519c1.317,-2.258 1.855,-4.886 1.531,-7.48l0,-0.001Z" style="fill:#464646;"/>
                            <path d="M19,35c-2.917,0 -5.715,-1.159 -7.778,-3.222c-2.063,-2.063 -3.222,-4.861 -3.222,-7.778l0,-3l0,-1l20,0l0,4l1,-1l3,6c-2.499,3.748 -6.706,6 -11.211,6l-1.789,0Z" style="fill:#808080;"/>
                            <clipPath id="_clip7">
                                <path d="M19,35c-2.917,0 -5.715,-1.159 -7.778,-3.222c-2.063,-2.063 -3.222,-4.861 -3.222,-7.778l0,-3l0,-1l20,0l0,4l1,-1l3,6c-2.499,3.748 -6.706,6 -11.211,6l-1.789,0Z"/>
                            </clipPath>
                            <g clip-path="url(#_clip7)">
                                <path d="M31.55,19.004l-4,4c-1.791,0 -3.382,1.147 -3.948,2.846c-0.033,0.098 -0.052,0.154 -0.052,0.154" style="fill:none;stroke:#616161;stroke-width:2px;stroke-linejoin:miter;stroke-miterlimit:1.5;"/>
                            </g>
                        </g>
                    </g>
                </g>
            </g>
        </g>
    </g>
</svg>
