<?xml version="1.0" encoding="UTF-8" standalone="no"?><!DOCTYPE svg PUBLIC "-//W3C//DTD SVG 1.1//EN" "http://www.w3.org/Graphics/SVG/1.1/DTD/svg11.dtd"><svg width="100%" height="100%" viewBox="0 0 32 32" version="1.1" xmlns="http://www.w3.org/2000/svg" xmlns:xlink="http://www.w3.org/1999/xlink" xml:space="preserve" xmlns:serif="http://www.serif.com/" style="fill-rule:evenodd;clip-rule:evenodd;stroke-linecap:round;stroke-linejoin:round;stroke-miterlimit:10;"><rect id="paw_hand_modifier" x="0" y="0" width="32" height="32" style="fill:none;"/><clipPath id="_clip1"><rect x="0" y="0" width="32" height="32"/></clipPath><g clip-path="url(#_clip1)"><g id="outline"><path d="M3,15l13,-13l13,13l0,2l-13,13l-13,-13l0,-2Z" style="fill:none;fill-rule:nonzero;stroke:#000;stroke-width:4px;"/></g><g id="emoji"><path d="M3,17l0,-2l13,-11l13,11l0,2l-13,13l-13,-13Z" style="fill:#464646;"/><path d="M3,15l13,-13l13,13l-13,13l-13,-13Z" style="fill:#fff;"/><clipPath id="_clip2"><path d="M3,15l13,-13l13,13l-13,13l-13,-13Z"/></clipPath><g clip-path="url(#_clip2)"><clipPath id="_clip3"><rect x="6" y="5" width="32" height="32"/></clipPath><g clip-path="url(#_clip3)"><rect id="hand--paw-" serif:id="hand [paw]" x="6" y="5" width="32" height="32" style="fill:none;"/><g><g id="outline1" serif:id="outline"><path d="M15.259,7.001l0.17,0.007l0.17,0.014l0.169,0.02l0.168,0.026l0.167,0.033l0.166,0.039l0.164,0.045l0.163,0.051l0.16,0.058l0.158,0.064l0.156,0.069l0.152,0.075l0.15,0.081l0.147,0.087l0.143,0.092l0.14,0.098l0.136,0.102l0.131,0.108l0.128,0.113l0.123,0.117l0.119,0.122l0.114,0.127l0.11,0.131l0.104,0.134l0.099,0.139l0.094,0.142l0.088,0.146l0.083,0.149l0.077,0.151l0.071,0.155l0.065,0.157l0.06,0.16l0.053,0.162l0.047,0.164l0.041,0.165l0.034,0.167l3.094,16.5l0.028,0.168l0.022,0.169l0.015,0.169l0.009,0.17l0.003,0.171l-0.004,0.17l-0.01,0.17l-0.017,0.169l-0.023,0.169l-0.03,0.168l-0.036,0.166l-0.042,0.165l-0.048,0.164l-0.054,0.161l-0.061,0.159l-0.067,0.157l-0.072,0.154l-0.078,0.151l-0.084,0.149l-0.089,0.145l-0.095,0.141l-0.1,0.138l-0.106,0.134l-0.11,0.13l-0.115,0.125l-0.12,0.121l-0.124,0.117l-0.129,0.111l-0.132,0.107l-0.137,0.102l-0.14,0.096l-0.144,0.091l-0.148,0.086l-0.15,0.08l-0.153,0.074l-0.156,0.068l-0.159,0.062l-0.161,0.057l-0.163,0.05l-0.164,0.044l-0.166,0.037l-0.168,0.032l-0.168,0.025l-0.169,0.018l-0.17,0.013l-0.17,0.005l-0.171,0l-0.17,-0.007l-0.17,-0.014l-0.169,-0.02l-0.168,-0.026l-0.167,-0.033l-0.166,-0.039l-0.164,-0.045l-0.163,-0.051l-0.16,-0.058l-0.158,-0.064l-0.155,-0.069l-0.153,-0.075l-0.15,-0.081l-0.147,-0.087l-0.143,-0.092l-0.139,-0.098l-0.136,-0.102l-0.132,-0.108l-0.128,-0.113l-0.123,-0.117l-0.119,-0.122l-0.114,-0.127l-0.109,-0.131l-0.105,-0.134l-0.099,-0.139l-0.093,-0.142l-0.089,-0.146l-0.082,-0.149l-0.077,-0.151l-0.072,-0.155l-0.065,-0.157l-0.059,-0.16l-0.053,-0.162l-0.048,-0.164l-0.04,-0.165l-0.035,-0.167l-3.094,-16.5l-0.028,-0.168l-0.022,-0.169l-0.015,-0.169l-0.009,-0.17l-0.003,-0.171l0.004,-0.17l0.011,-0.17l0.016,-0.169l0.023,-0.169l0.03,-0.168l0.036,-0.166l0.042,-0.165l0.048,-0.164l0.055,-0.161l0.06,-0.159l0.067,-0.157l0.072,-0.154l0.078,-0.151l0.084,-0.149l0.09,-0.145l0.095,-0.141l0.1,-0.138l0.105,-0.134l0.11,-0.13l0.115,-0.125l0.12,-0.121l0.124,-0.117l0.129,-0.111l0.133,-0.107l0.136,-0.102l0.141,-0.096l0.144,-0.091l0.147,-0.086l0.15,-0.08l0.154,-0.074l0.156,-0.068l0.158,-0.062l0.161,-0.057l0.163,-0.05l0.164,-0.044l0.166,-0.037l0.168,-0.032l0.168,-0.025l0.17,-0.018l0.169,-0.013l0.171,-0.005l0.17,0Z"/><path d="M28.562,7.004l0.166,0.01l0.165,0.016l0.165,0.022l0.164,0.029l0.163,0.034l0.161,0.04l0.16,0.047l0.158,0.052l0.155,0.058l0.154,0.063l0.151,0.07l0.149,0.074l0.145,0.081l0.143,0.085l0.139,0.091l0.136,0.096l0.133,0.101l0.128,0.106l0.124,0.11l0.121,0.115l0.116,0.119l0.111,0.123l0.107,0.128l0.102,0.131l0.097,0.135l0.092,0.139l0.087,0.142l0.082,0.144l0.076,0.148l0.07,0.151l0.065,0.153l0.06,0.155l0.053,0.158l0.048,0.159l0.042,0.161l0.036,0.162l0.029,0.164l0.024,0.165l0.018,0.165l0.011,0.166l0.006,0.166l-0.001,0.166l-0.007,0.167l-0.013,0.165l-0.019,0.166l-0.026,0.164l-0.031,0.163l-0.037,0.162l-3.874,15.496l-0.044,0.161l-0.049,0.159l-0.055,0.157l-0.061,0.155l-0.066,0.152l-0.072,0.15l-0.078,0.147l-0.083,0.144l-0.088,0.141l-0.093,0.138l-0.099,0.134l-0.103,0.13l-0.108,0.127l-0.113,0.122l-0.117,0.118l-0.121,0.114l-0.126,0.109l-0.129,0.105l-0.133,0.099l-0.137,0.095l-0.14,0.089l-0.144,0.084l-0.146,0.079l-0.149,0.074l-0.152,0.068l-0.154,0.062l-0.157,0.056l-0.158,0.051l-0.16,0.045l-0.162,0.038l-0.163,0.033l-0.164,0.027l-0.165,0.021l-0.166,0.014l-0.166,0.009l-0.166,0.002l-0.167,-0.004l-0.166,-0.01l-0.165,-0.016l-0.165,-0.022l-0.164,-0.029l-0.163,-0.034l-0.161,-0.04l-0.16,-0.046l-0.158,-0.053l-0.155,-0.058l-0.154,-0.063l-0.151,-0.07l-0.149,-0.074l-0.145,-0.081l-0.143,-0.085l-0.139,-0.091l-0.136,-0.096l-0.132,-0.101l-0.129,-0.105l-0.124,-0.111l-0.121,-0.115l-0.116,-0.119l-0.111,-0.123l-0.107,-0.128l-0.102,-0.131l-0.097,-0.135l-0.092,-0.139l-0.087,-0.141l-0.082,-0.145l-0.076,-0.148l-0.07,-0.151l-0.065,-0.153l-0.06,-0.155l-0.053,-0.158l-0.048,-0.159l-0.042,-0.161l-0.036,-0.162l-0.029,-0.164l-0.024,-0.165l-0.018,-0.165l-0.011,-0.166l-0.006,-0.166l0.001,-0.166l0.007,-0.167l0.013,-0.165l0.019,-0.166l0.026,-0.164l0.031,-0.163l0.037,-0.162l3.874,-15.496l0.044,-0.161l0.049,-0.159l0.055,-0.157l0.061,-0.155l0.066,-0.152l0.072,-0.15l0.078,-0.147l0.083,-0.144l0.088,-0.141l0.093,-0.138l0.099,-0.134l0.103,-0.13l0.108,-0.127l0.113,-0.122l0.117,-0.118l0.121,-0.114l0.126,-0.109l0.129,-0.104l0.133,-0.1l0.137,-0.095l0.14,-0.089l0.144,-0.084l0.146,-0.079l0.149,-0.074l0.152,-0.068l0.154,-0.062l0.157,-0.056l0.158,-0.051l0.16,-0.045l0.162,-0.038l0.163,-0.033l0.164,-0.027l0.165,-0.021l0.166,-0.014l0.166,-0.009l0.166,-0.002l0.167,0.004Z"/><path d="M21.762,5.004l0.174,0.013l0.173,0.02l0.172,0.027l0.172,0.034l0.169,0.04l0.169,0.047l0.166,0.053l0.164,0.06l0.161,0.066l0.159,0.072l0.156,0.079l0.153,0.084l0.149,0.09l0.146,0.096l0.142,0.101l0.138,0.107l0.134,0.113l0.129,0.117l0.125,0.122l0.119,0.127l0.115,0.132l0.11,0.135l0.104,0.14l0.099,0.144l0.093,0.148l0.087,0.151l0.081,0.154l0.076,0.158l0.069,0.16l0.063,0.163l0.056,0.165l0.05,0.167l0.044,0.169l0.037,0.171l0.03,0.172l0.024,0.173l0.016,0.173l0.011,0.175l0.003,0.174l0,17l-0.003,0.175l-0.011,0.174l-0.016,0.173l-0.024,0.173l-0.03,0.172l-0.037,0.171l-0.044,0.169l-0.05,0.167l-0.056,0.165l-0.063,0.163l-0.069,0.16l-0.076,0.158l-0.081,0.154l-0.087,0.151l-0.093,0.148l-0.099,0.144l-0.104,0.14l-0.11,0.136l-0.115,0.131l-0.119,0.127l-0.125,0.122l-0.129,0.118l-0.134,0.112l-0.138,0.107l-0.142,0.101l-0.146,0.096l-0.149,0.09l-0.153,0.084l-0.156,0.079l-0.159,0.072l-0.161,0.066l-0.164,0.06l-0.166,0.053l-0.169,0.047l-0.169,0.04l-0.172,0.034l-0.172,0.027l-0.173,0.02l-0.174,0.013l-0.175,0.007l-0.174,0l-0.175,-0.007l-0.174,-0.013l-0.173,-0.02l-0.172,-0.027l-0.172,-0.034l-0.17,-0.04l-0.168,-0.047l-0.166,-0.053l-0.164,-0.06l-0.161,-0.066l-0.159,-0.072l-0.156,-0.079l-0.153,-0.084l-0.149,-0.09l-0.146,-0.096l-0.142,-0.101l-0.138,-0.107l-0.134,-0.112l-0.129,-0.118l-0.125,-0.122l-0.119,-0.127l-0.115,-0.131l-0.11,-0.136l-0.104,-0.14l-0.099,-0.144l-0.093,-0.148l-0.087,-0.151l-0.081,-0.154l-0.076,-0.158l-0.069,-0.16l-0.063,-0.163l-0.056,-0.165l-0.05,-0.167l-0.044,-0.169l-0.037,-0.171l-0.03,-0.172l-0.024,-0.173l-0.017,-0.173l-0.01,-0.174l-0.003,-0.175l0,-17l0.003,-0.174l0.01,-0.175l0.017,-0.173l0.024,-0.173l0.03,-0.172l0.037,-0.171l0.044,-0.169l0.05,-0.167l0.056,-0.165l0.063,-0.163l0.069,-0.16l0.076,-0.158l0.081,-0.154l0.087,-0.151l0.093,-0.148l0.099,-0.144l0.104,-0.14l0.11,-0.135l0.115,-0.132l0.119,-0.127l0.125,-0.122l0.129,-0.117l0.134,-0.113l0.138,-0.107l0.142,-0.101l0.146,-0.096l0.149,-0.09l0.153,-0.084l0.156,-0.079l0.159,-0.072l0.161,-0.066l0.164,-0.06l0.166,-0.053l0.168,-0.047l0.17,-0.04l0.172,-0.034l0.172,-0.027l0.173,-0.02l0.174,-0.013l0.175,-0.007l0.174,0l0.175,0.007Z"/><path d="M33.074,18.997l0.148,0.004l0.148,0.009l0.148,0.013l0.147,0.017l0.146,0.022l0.146,0.027l0.145,0.03l0.144,0.035l0.143,0.039l0.142,0.043l0.14,0.048l0.139,0.051l0.138,0.056l0.135,0.06l0.134,0.063l0.132,0.068l0.13,0.072l0.127,0.075l0.125,0.079l0.123,0.083l0.121,0.086l0.118,0.09l0.115,0.094l0.112,0.096l0.109,0.1l0.106,0.104l0.104,0.106l0.1,0.109l0.096,0.112l0.094,0.116l0.09,0.117l0.086,0.121l0.083,0.123l0.079,0.125l0.075,0.127l0.072,0.13l0.068,0.132l0.063,0.134l0.06,0.135l0.056,0.138l0.051,0.139l0.048,0.14l0.043,0.142l0.039,0.143l0.035,0.144l0.03,0.145l0.027,0.146l0.022,0.146l0.017,0.147l0.013,0.148l0.009,0.148l0.004,0.148l0,0.148l-0.004,0.148l-0.009,0.148l-0.013,0.148l-0.017,0.147l-0.022,0.146l-0.027,0.146l-0.03,0.145l-0.035,0.144l-0.039,0.143l-0.043,0.142l-0.048,0.14l-0.051,0.139l-0.056,0.138l-0.06,0.135l-0.063,0.134l-0.068,0.132l-0.072,0.13l-0.075,0.127l-0.079,0.126l-0.083,0.122l-0.086,0.121l-0.09,0.118l-0.094,0.115l-0.096,0.112l-0.1,0.109l-0.104,0.107l-5.99,5.99l-0.094,0.093l-0.107,0.103l-0.107,0.101l-0.109,0.1l-0.11,0.098l-0.111,0.096l-0.112,0.096l-0.113,0.093l-0.114,0.093l-0.115,0.091l-0.116,0.089l-0.117,0.088l-0.118,0.086l-0.119,0.085l-0.121,0.083l-0.12,0.082l-0.122,0.08l-0.123,0.079l-0.124,0.077l-0.124,0.075l-0.126,0.075l-0.126,0.072l-0.127,0.071l-0.128,0.069l-0.129,0.068l-0.129,0.066l-0.13,0.064l-0.131,0.063l-0.132,0.061l-0.133,0.06l-0.133,0.058l-0.133,0.056l-0.135,0.055l-0.135,0.053l-0.136,0.052l-0.136,0.05l-0.138,0.048l-0.137,0.046l-0.138,0.045l-0.139,0.043l-0.14,0.042l-0.14,0.039l-0.14,0.038l-0.141,0.037l-0.142,0.034l-0.142,0.033l-0.142,0.032l-0.143,0.029l-0.143,0.028l-0.144,0.026l-0.144,0.024l-0.145,0.023l-0.145,0.02l-0.145,0.019l-0.145,0.017l-0.147,0.016l-0.146,0.013l-0.146,0.012l-0.147,0.01l-0.147,0.008l-0.147,0.007l-0.148,0.004l-0.148,0.003l-0.132,0.001l-0.149,0l-0.148,-0.002l-0.148,-0.007l-0.148,-0.011l-0.147,-0.015l-0.147,-0.02l-0.146,-0.024l-0.146,-0.028l-0.144,-0.033l-0.144,-0.037l-0.142,-0.041l-0.141,-0.045l-0.14,-0.05l-0.138,-0.054l-0.137,-0.057l-0.134,-0.062l-0.133,-0.066l-0.131,-0.069l-0.129,-0.074l-0.126,-0.077l-0.124,-0.081l-0.122,-0.085l-0.119,-0.088l-0.116,-0.091l-0.114,-0.095l-0.111,-0.099l-0.108,-0.101l-0.105,-0.105l-0.101,-0.108l-0.099,-0.111l-0.095,-0.114l-0.091,-0.116l-0.088,-0.119l-0.085,-0.122l-0.081,-0.124l-0.077,-0.126l-0.074,-0.129l-0.069,-0.131l-0.066,-0.133l-0.062,-0.134l-0.057,-0.137l-0.054,-0.138l-0.05,-0.14l-0.045,-0.141l-0.041,-0.142l-0.037,-0.144l-0.033,-0.144l-0.028,-0.146l-0.024,-0.146l-0.02,-0.147l-0.015,-0.147l-0.011,-0.148l-0.007,-0.148l-0.002,-0.148l0.002,-0.148l0.007,-0.148l0.011,-0.148l0.015,-0.147l0.02,-0.147l0.024,-0.146l0.028,-0.146l0.033,-0.144l0.037,-0.144l0.041,-0.142l0.045,-0.141l0.05,-0.14l0.054,-0.138l0.057,-0.137l0.062,-0.134l0.066,-0.133l0.069,-0.131l0.074,-0.129l0.077,-0.126l0.081,-0.124l0.085,-0.122l0.088,-0.119l0.091,-0.116l0.095,-0.114l0.099,-0.111l0.101,-0.108l0.105,-0.105l0.108,-0.101l0.111,-0.099l0.114,-0.095l0.116,-0.091l0.119,-0.088l0.122,-0.085l0.124,-0.081l0.126,-0.077l0.129,-0.074l0.131,-0.069l0.133,-0.066l0.134,-0.062l0.137,-0.057l0.138,-0.054l0.14,-0.05l0.141,-0.045l0.142,-0.041l0.144,-0.037l0.144,-0.033l0.146,-0.028l0.146,-0.024l0.147,-0.02l0.147,-0.015l0.148,-0.011l0.148,-0.007l0.148,-0.002l0.157,0l0.024,-0.001l0.023,0l0.024,-0.001l0.024,-0.002l0.023,-0.001l0.024,-0.002l0.024,-0.002l0.023,-0.003l0.023,-0.003l0.024,-0.003l0.023,-0.003l0.023,-0.004l0.023,-0.003l0.023,-0.005l0.023,-0.004l0.023,-0.005l0.023,-0.005l0.022,-0.005l0.023,-0.006l0.022,-0.005l0.023,-0.007l0.023,-0.006l0.022,-0.007l0.022,-0.006l0.023,-0.008l0.022,-0.007l0.022,-0.008l0.021,-0.008l0.022,-0.008l0.022,-0.009l0.022,-0.009l0.021,-0.009l0.022,-0.009l0.021,-0.009l0.021,-0.01l0.021,-0.01l0.021,-0.011l0.021,-0.01l0.02,-0.011l0.021,-0.011l0.02,-0.012l0.021,-0.011l0.02,-0.012l0.02,-0.012l0.019,-0.013l0.02,-0.012l0.02,-0.013l0.019,-0.013l0.019,-0.014l0.019,-0.013l0.019,-0.014l0.019,-0.014l0.019,-0.014l0.018,-0.015l0.018,-0.015l0.019,-0.015l0.017,-0.015l0.018,-0.016l0.018,-0.015l0.017,-0.016l0.018,-0.017l0.017,-0.016l0.028,-0.028l5.968,-5.968l0.107,-0.104l0.109,-0.1l0.112,-0.096l0.115,-0.094l0.118,-0.09l0.121,-0.086l0.122,-0.083l0.126,-0.079l0.127,-0.075l0.13,-0.072l0.132,-0.068l0.134,-0.063l0.135,-0.06l0.138,-0.056l0.139,-0.051l0.14,-0.048l0.142,-0.043l0.143,-0.039l0.144,-0.035l0.145,-0.03l0.146,-0.027l0.146,-0.022l0.147,-0.017l0.148,-0.013l0.148,-0.009l0.148,-0.004l0.148,0Z"/><path d="M11.046,11.503l0.17,0.01l0.169,0.016l0.169,0.023l0.168,0.029l0.167,0.035l0.165,0.042l0.163,0.048l0.162,0.054l0.159,0.06l0.157,0.066l0.155,0.072l0.151,0.078l0.149,0.083l0.145,0.089l0.142,0.094l0.138,0.1l0.134,0.105l0.13,0.11l0.126,0.115l0.121,0.119l0.117,0.124l0.112,0.128l0.108,0.132l0.102,0.137l0.096,0.14l0.092,0.144l0.086,0.147l0.08,0.15l0.075,0.153l0.069,0.156l0.062,0.158l0.057,0.161l0.051,0.162l0.044,0.165l2.678,10.698l0.011,0.045l0.009,0.033l0.009,0.032l0.009,0.033l0.03,0.096l0.011,0.032l0.011,0.031l0.011,0.032l0.012,0.03l0.012,0.032l0.024,0.06l0.013,0.031l0.013,0.03l0.014,0.03l0.013,0.03l0.014,0.029l0.014,0.03l0.015,0.028l0.045,0.087l0.064,0.112l0.017,0.028l0.034,0.054l0.018,0.028l0.018,0.026l0.018,0.027l0.018,0.026l0.019,0.027l0.018,0.026l0.019,0.025l0.02,0.026l0.02,0.025l0.02,0.026l0.04,0.05l0.063,0.072l0.022,0.025l0.021,0.023l0.022,0.024l0.044,0.046l0.023,0.023l0.023,0.022l0.023,0.023l0.023,0.022l0.024,0.022l0.024,0.021l0.023,0.022l0.025,0.021l0.024,0.021l0.025,0.021l0.025,0.02l0.024,0.02l0.026,0.02l0.025,0.02l0.052,0.038l0.025,0.019l0.027,0.019l0.026,0.018l0.054,0.036l0.027,0.017l0.027,0.018l0.027,0.016l0.027,0.017l0.028,0.017l0.028,0.016l0.028,0.015l0.028,0.016l0.056,0.03l0.029,0.015l0.029,0.014l0.029,0.015l0.029,0.013l0.029,0.014l0.058,0.026l0.03,0.012l0.03,0.013l0.03,0.012l0.03,0.011l0.03,0.012l0.06,0.022l0.062,0.02l0.03,0.01l0.031,0.01l0.062,0.018l0.032,0.008l0.03,0.009l0.032,0.007l0.064,0.016l0.031,0.006l0.032,0.007l0.031,0.006l0.066,0.012l0.031,0.005l0.066,0.01l0.032,0.004l0.033,0.005l0.033,0.003l0.033,0.004l0.033,0.003l0.034,0.002l0.034,0.003l0.033,0.001l0.033,0.002l0.102,0.003l2.07,0l0.17,0.003l0.17,0.01l0.17,0.016l0.169,0.023l0.168,0.028l0.166,0.036l0.165,0.041l0.164,0.048l0.161,0.054l0.16,0.06l0.157,0.065l0.154,0.072l0.152,0.078l0.149,0.083l0.145,0.089l0.142,0.094l0.138,0.1l0.134,0.105l0.13,0.109l0.126,0.115l0.122,0.119l0.117,0.124l0.112,0.128l0.107,0.133l0.103,0.136l0.097,0.14l0.091,0.143l0.086,0.147l0.081,0.151l0.074,0.153l0.069,0.155l0.063,0.159l0.057,0.16l0.051,0.163l0.044,0.164l0.039,0.166l0.032,0.167l0.026,0.169l0.019,0.169l0.013,0.17l0.006,0.17l0,0.17l-0.006,0.17l-0.013,0.17l-0.019,0.169l-0.026,0.169l-0.032,0.167l-0.039,0.166l-0.044,0.164l-0.051,0.163l-0.057,0.161l-0.063,0.158l-0.069,0.156l-0.074,0.153l-0.081,0.15l-0.086,0.147l-0.091,0.143l-0.097,0.14l-0.103,0.137l-0.107,0.132l-0.112,0.128l-0.117,0.124l-0.122,0.119l-0.126,0.115l-0.13,0.109l-0.134,0.105l-0.138,0.1l-0.142,0.094l-0.145,0.089l-0.149,0.083l-0.152,0.078l-0.154,0.072l-0.157,0.066l-0.16,0.059l-0.161,0.054l-0.164,0.048l-0.165,0.042l-0.166,0.035l-0.168,0.029l-0.169,0.022l-0.17,0.016l-0.17,0.01l-0.17,0.003l-2.047,0l-0.118,-0.001l-0.13,-0.002l-0.13,-0.003l-0.128,-0.005l-0.13,-0.006l-0.129,-0.008l-0.128,-0.008l-0.128,-0.011l-0.129,-0.011l-0.127,-0.013l-0.127,-0.014l-0.127,-0.016l-0.128,-0.017l-0.125,-0.018l-0.126,-0.019l-0.127,-0.021l-0.124,-0.022l-0.125,-0.024l-0.125,-0.024l-0.124,-0.026l-0.124,-0.028l-0.123,-0.028l-0.122,-0.03l-0.123,-0.031l-0.122,-0.032l-0.121,-0.033l-0.121,-0.035l-0.121,-0.036l-0.12,-0.037l-0.12,-0.038l-0.119,-0.04l-0.118,-0.04l-0.118,-0.042l-0.118,-0.043l-0.116,-0.044l-0.117,-0.046l-0.116,-0.046l-0.115,-0.048l-0.114,-0.049l-0.114,-0.05l-0.114,-0.051l-0.113,-0.052l-0.112,-0.054l-0.112,-0.054l-0.11,-0.056l-0.111,-0.056l-0.11,-0.058l-0.109,-0.059l-0.108,-0.06l-0.108,-0.061l-0.107,-0.062l-0.106,-0.063l-0.106,-0.065l-0.105,-0.065l-0.105,-0.066l-0.103,-0.068l-0.103,-0.068l-0.103,-0.07l-0.101,-0.07l-0.1,-0.071l-0.101,-0.073l-0.099,-0.073l-0.099,-0.075l-0.097,-0.075l-0.097,-0.077l-0.097,-0.078l-0.095,-0.078l-0.094,-0.079l-0.094,-0.081l-0.093,-0.081l-0.092,-0.082l-0.092,-0.084l-0.09,-0.084l-0.09,-0.085l-0.089,-0.086l-0.088,-0.087l-0.087,-0.088l-0.086,-0.088l-0.086,-0.09l-0.084,-0.091l-0.084,-0.092l-0.082,-0.092l-0.082,-0.093l-0.081,-0.094l-0.08,-0.096l-0.079,-0.096l-0.078,-0.096l-0.077,-0.098l-0.076,-0.098l-0.075,-0.099l-0.075,-0.101l-0.073,-0.101l-0.072,-0.101l-0.072,-0.103l-0.07,-0.104l-0.069,-0.104l-0.068,-0.105l-0.068,-0.106l-0.066,-0.107l-0.065,-0.107l-0.064,-0.108l-0.063,-0.109l-0.062,-0.11l-0.061,-0.111l-0.059,-0.111l-0.059,-0.111l-0.057,-0.113l-0.057,-0.114l-0.055,-0.114l-0.054,-0.115l-0.053,-0.115l-0.052,-0.116l-0.051,-0.117l-0.049,-0.117l-0.049,-0.119l-0.047,-0.119l-0.046,-0.119l-0.044,-0.12l-0.044,-0.121l-0.042,-0.121l-0.041,-0.122l-0.04,-0.123l-0.039,-0.123l-0.037,-0.124l-0.036,-0.124l-0.035,-0.124l-0.033,-0.126l-0.029,-0.114l-2.683,-10.722l-0.039,-0.166l-0.032,-0.167l-0.025,-0.168l-0.019,-0.169l-0.013,-0.17l-0.006,-0.171l0,-0.17l0.006,-0.17l0.013,-0.17l0.02,-0.169l0.026,-0.168l0.032,-0.168l0.038,-0.166l0.045,-0.164l0.051,-0.162l0.057,-0.161l0.063,-0.158l0.069,-0.156l0.075,-0.153l0.081,-0.15l0.086,-0.147l0.091,-0.143l0.098,-0.14l0.102,-0.136l0.107,-0.133l0.112,-0.128l0.118,-0.123l0.121,-0.12l0.126,-0.114l0.131,-0.11l0.134,-0.104l0.138,-0.1l0.142,-0.094l0.146,-0.089l0.148,-0.083l0.152,-0.077l0.154,-0.072l0.157,-0.066l0.16,-0.06l0.162,-0.053l0.163,-0.048l0.165,-0.041l0.167,-0.035l0.168,-0.029l0.169,-0.022l0.169,-0.016l0.17,-0.01l0.171,-0.003l0.17,0.003Z"/></g><g id="emoji1" serif:id="emoji"><path d="M15.326,9.006l0.126,0.012l0.126,0.018l0.124,0.024l0.123,0.031l0.121,0.037l0.119,0.043l0.117,0.049l0.114,0.055l0.111,0.06l0.108,0.067l0.105,0.071l0.101,0.077l0.096,0.082l0.093,0.086l0.088,0.091l0.083,0.096l0.078,0.099l0.074,0.104l0.067,0.107l0.063,0.11l0.057,0.113l0.05,0.116l0.045,0.119l0.039,0.12l0.033,0.122l0.026,0.124l3.094,16.5l0.02,0.125l0.014,0.126l0.008,0.127l0.001,0.126l-0.006,0.127l-0.012,0.126l-0.018,0.125l-0.024,0.125l-0.031,0.122l-0.037,0.122l-0.043,0.119l-0.049,0.117l-0.055,0.114l-0.06,0.111l-0.067,0.108l-0.071,0.105l-0.077,0.1l-0.082,0.097l-0.086,0.093l-0.091,0.088l-0.096,0.083l-0.099,0.078l-0.104,0.073l-0.107,0.068l-0.11,0.063l-0.113,0.056l-0.116,0.051l-0.119,0.045l-0.12,0.039l-0.122,0.033l-0.124,0.026l-0.125,0.02l-0.126,0.014l-0.127,0.008l-0.126,0.001l-0.127,-0.006l-0.126,-0.012l-0.125,-0.018l-0.125,-0.024l-0.122,-0.031l-0.122,-0.037l-0.119,-0.043l-0.117,-0.049l-0.114,-0.055l-0.111,-0.06l-0.108,-0.067l-0.105,-0.071l-0.1,-0.077l-0.097,-0.082l-0.093,-0.086l-0.088,-0.091l-0.083,-0.096l-0.078,-0.099l-0.073,-0.104l-0.068,-0.107l-0.063,-0.11l-0.056,-0.113l-0.051,-0.116l-0.045,-0.119l-0.039,-0.12l-0.033,-0.122l-0.026,-0.124l-3.094,-16.5l-0.02,-0.125l-0.014,-0.126l-0.007,-0.127l-0.001,-0.126l0.005,-0.127l0.012,-0.126l0.018,-0.125l0.025,-0.125l0.03,-0.122l0.037,-0.122l0.043,-0.119l0.049,-0.117l0.055,-0.114l0.061,-0.111l0.066,-0.108l0.071,-0.105l0.077,-0.1l0.082,-0.097l0.086,-0.093l0.092,-0.088l0.095,-0.083l0.099,-0.078l0.104,-0.073l0.107,-0.068l0.11,-0.063l0.113,-0.056l0.116,-0.051l0.119,-0.045l0.12,-0.039l0.123,-0.033l0.124,-0.026l0.125,-0.02l0.125,-0.014l0.127,-0.008l0.127,-0.001l0.126,0.006Z" style="fill:#808080;"/><path d="M28.496,9.003l0.122,0.009l0.122,0.015l0.121,0.021l0.119,0.027l0.119,0.032l0.116,0.039l0.115,0.044l0.112,0.05l0.109,0.055l0.107,0.06l0.104,0.066l0.1,0.07l0.097,0.076l0.093,0.08l0.089,0.084l0.085,0.089l0.08,0.093l0.075,0.097l0.071,0.1l0.066,0.104l0.06,0.106l0.055,0.11l0.05,0.112l0.044,0.115l0.039,0.116l0.033,0.118l0.027,0.12l0.021,0.121l0.015,0.122l0.009,0.122l0.003,0.123l-0.003,0.123l-0.009,0.122l-0.015,0.122l-0.021,0.121l-0.027,0.119l-3.874,15.496l-0.032,0.119l-0.039,0.116l-0.044,0.115l-0.05,0.112l-0.055,0.11l-0.06,0.106l-0.066,0.104l-0.07,0.1l-0.076,0.097l-0.08,0.093l-0.084,0.089l-0.089,0.085l-0.093,0.08l-0.097,0.075l-0.1,0.071l-0.104,0.066l-0.106,0.06l-0.11,0.056l-0.112,0.049l-0.115,0.045l-0.116,0.038l-0.118,0.033l-0.12,0.027l-0.121,0.021l-0.122,0.015l-0.122,0.009l-0.123,0.003l-0.123,-0.003l-0.122,-0.009l-0.122,-0.015l-0.121,-0.021l-0.119,-0.027l-0.119,-0.032l-0.116,-0.039l-0.115,-0.044l-0.112,-0.049l-0.109,-0.056l-0.107,-0.06l-0.104,-0.066l-0.1,-0.07l-0.097,-0.076l-0.093,-0.08l-0.089,-0.084l-0.085,-0.089l-0.08,-0.093l-0.075,-0.097l-0.071,-0.1l-0.066,-0.104l-0.06,-0.106l-0.055,-0.11l-0.05,-0.112l-0.044,-0.115l-0.039,-0.116l-0.033,-0.118l-0.027,-0.12l-0.021,-0.121l-0.015,-0.122l-0.009,-0.122l-0.003,-0.123l0.003,-0.122l0.009,-0.123l0.015,-0.122l0.021,-0.121l0.027,-0.119l3.874,-15.496l0.032,-0.119l0.039,-0.116l0.044,-0.115l0.05,-0.112l0.055,-0.109l0.06,-0.107l0.066,-0.104l0.07,-0.1l0.076,-0.097l0.08,-0.093l0.084,-0.089l0.089,-0.085l0.093,-0.08l0.097,-0.075l0.1,-0.071l0.104,-0.066l0.107,-0.06l0.109,-0.055l0.112,-0.05l0.115,-0.044l0.116,-0.039l0.118,-0.033l0.12,-0.027l0.121,-0.021l0.122,-0.015l0.122,-0.009l0.123,-0.003l0.123,0.003Z" style="fill:#808080;"/><path d="M21.693,7.004l0.128,0.013l0.127,0.02l0.126,0.026l0.125,0.033l0.122,0.039l0.121,0.045l0.118,0.052l0.115,0.057l0.112,0.064l0.109,0.069l0.104,0.074l0.101,0.08l0.097,0.085l0.092,0.09l0.088,0.095l0.082,0.099l0.078,0.102l0.071,0.107l0.067,0.111l0.06,0.113l0.055,0.117l0.048,0.119l0.043,0.122l0.036,0.123l0.029,0.126l0.023,0.126l0.017,0.128l0.01,0.128l0.003,0.129l0,17l-0.003,0.129l-0.01,0.128l-0.017,0.128l-0.023,0.126l-0.029,0.126l-0.036,0.123l-0.043,0.122l-0.048,0.119l-0.055,0.117l-0.06,0.113l-0.067,0.111l-0.071,0.107l-0.078,0.103l-0.082,0.098l-0.088,0.095l-0.092,0.09l-0.097,0.085l-0.101,0.08l-0.104,0.074l-0.109,0.069l-0.112,0.064l-0.115,0.057l-0.118,0.052l-0.121,0.045l-0.122,0.039l-0.125,0.033l-0.126,0.027l-0.127,0.019l-0.128,0.014l-0.129,0.006l-0.128,0l-0.129,-0.006l-0.128,-0.014l-0.127,-0.019l-0.126,-0.027l-0.125,-0.033l-0.122,-0.039l-0.121,-0.045l-0.118,-0.052l-0.115,-0.057l-0.112,-0.064l-0.109,-0.069l-0.105,-0.074l-0.101,-0.08l-0.096,-0.085l-0.092,-0.09l-0.088,-0.095l-0.082,-0.098l-0.078,-0.103l-0.071,-0.107l-0.067,-0.111l-0.06,-0.113l-0.055,-0.117l-0.048,-0.119l-0.043,-0.122l-0.036,-0.123l-0.029,-0.126l-0.023,-0.126l-0.017,-0.128l-0.01,-0.128l-0.003,-0.129l0,-17l0.003,-0.129l0.01,-0.128l0.017,-0.128l0.023,-0.126l0.029,-0.126l0.036,-0.123l0.043,-0.122l0.048,-0.119l0.055,-0.117l0.06,-0.113l0.067,-0.111l0.071,-0.107l0.078,-0.102l0.082,-0.099l0.088,-0.095l0.092,-0.09l0.096,-0.085l0.101,-0.08l0.105,-0.074l0.109,-0.069l0.112,-0.064l0.115,-0.057l0.118,-0.052l0.121,-0.045l0.122,-0.039l0.125,-0.033l0.126,-0.026l0.127,-0.02l0.128,-0.013l0.129,-0.007l0.128,0l0.129,0.007Z" style="fill:#808080;"/><path d="M33.142,20.999l0.113,0.008l0.113,0.012l0.112,0.016l0.112,0.02l0.111,0.025l0.11,0.028l0.109,0.033l0.107,0.037l0.106,0.041l0.104,0.045l0.103,0.049l0.1,0.052l0.099,0.057l0.096,0.06l0.094,0.064l0.091,0.067l0.089,0.071l0.086,0.074l0.084,0.077l0.08,0.08l0.077,0.084l0.074,0.086l0.071,0.089l0.067,0.091l0.064,0.094l0.06,0.096l0.057,0.099l0.052,0.1l0.049,0.103l0.045,0.104l0.041,0.106l0.037,0.107l0.033,0.109l0.028,0.11l0.025,0.111l0.02,0.112l0.016,0.112l0.012,0.113l0.008,0.113l0.003,0.114l-0.001,0.113l-0.006,0.114l-0.009,0.113l-0.014,0.112l-0.018,0.113l-0.023,0.111l-0.026,0.11l-0.031,0.11l-0.035,0.108l-0.039,0.106l-0.043,0.105l-0.047,0.104l-0.051,0.101l-0.054,0.1l-0.059,0.097l-0.062,0.095l-0.065,0.093l-0.069,0.09l-0.072,0.088l-0.076,0.085l-0.079,0.081l-5.986,5.987l-0.081,0.08l-0.089,0.085l-0.089,0.084l-0.09,0.083l-0.092,0.082l-0.092,0.08l-0.093,0.079l-0.094,0.078l-0.095,0.077l-0.096,0.076l-0.097,0.074l-0.097,0.073l-0.098,0.072l-0.1,0.071l-0.099,0.069l-0.101,0.068l-0.101,0.067l-0.102,0.065l-0.103,0.064l-0.104,0.063l-0.105,0.062l-0.105,0.06l-0.105,0.059l-0.107,0.058l-0.107,0.056l-0.108,0.055l-0.108,0.053l-0.109,0.053l-0.109,0.051l-0.111,0.049l-0.111,0.049l-0.111,0.047l-0.112,0.045l-0.112,0.044l-0.113,0.043l-0.114,0.042l-0.114,0.04l-0.115,0.038l-0.114,0.038l-0.116,0.036l-0.116,0.034l-0.117,0.033l-0.116,0.032l-0.118,0.03l-0.117,0.029l-0.119,0.027l-0.118,0.026l-0.119,0.025l-0.119,0.023l-0.12,0.022l-0.12,0.02l-0.12,0.018l-0.121,0.018l-0.12,0.015l-0.122,0.015l-0.121,0.013l-0.122,0.011l-0.122,0.01l-0.122,0.008l-0.122,0.007l-0.123,0.005l-0.122,0.004l-0.123,0.002l-0.114,0.001l-0.143,0l-0.114,-0.002l-0.113,-0.007l-0.113,-0.01l-0.112,-0.015l-0.112,-0.02l-0.111,-0.023l-0.111,-0.028l-0.109,-0.031l-0.107,-0.036l-0.107,-0.04l-0.104,-0.044l-0.103,-0.048l-0.101,-0.052l-0.099,-0.055l-0.097,-0.06l-0.095,-0.063l-0.092,-0.066l-0.089,-0.07l-0.087,-0.073l-0.084,-0.076l-0.081,-0.08l-0.078,-0.082l-0.075,-0.086l-0.072,-0.088l-0.068,-0.091l-0.064,-0.093l-0.061,-0.096l-0.058,-0.098l-0.053,-0.1l-0.05,-0.102l-0.046,-0.104l-0.042,-0.105l-0.038,-0.107l-0.034,-0.109l-0.03,-0.109l-0.025,-0.111l-0.022,-0.111l-0.017,-0.113l-0.013,-0.113l-0.008,-0.113l-0.004,-0.113l0,-0.114l0.004,-0.113l0.008,-0.113l0.013,-0.113l0.017,-0.113l0.022,-0.111l0.025,-0.111l0.03,-0.109l0.034,-0.109l0.038,-0.107l0.042,-0.105l0.046,-0.104l0.05,-0.102l0.053,-0.1l0.058,-0.098l0.061,-0.096l0.064,-0.093l0.068,-0.091l0.072,-0.088l0.075,-0.086l0.078,-0.082l0.081,-0.08l0.084,-0.076l0.087,-0.073l0.089,-0.07l0.092,-0.066l0.095,-0.063l0.097,-0.06l0.099,-0.055l0.101,-0.052l0.103,-0.048l0.104,-0.044l0.107,-0.04l0.107,-0.036l0.109,-0.031l0.111,-0.028l0.111,-0.023l0.112,-0.02l0.112,-0.015l0.113,-0.01l0.113,-0.007l0.114,-0.002l0.182,0l0.048,-0.001l0.049,-0.002l0.048,-0.002l0.049,-0.003l0.048,-0.003l0.048,-0.004l0.048,-0.004l0.048,-0.005l0.048,-0.006l0.047,-0.006l0.048,-0.007l0.047,-0.007l0.048,-0.008l0.047,-0.009l0.047,-0.009l0.047,-0.01l0.047,-0.01l0.046,-0.011l0.047,-0.011l0.046,-0.012l0.046,-0.012l0.046,-0.014l0.046,-0.013l0.045,-0.014l0.046,-0.015l0.045,-0.015l0.045,-0.016l0.045,-0.016l0.044,-0.017l0.045,-0.018l0.044,-0.018l0.044,-0.018l0.044,-0.019l0.043,-0.02l0.043,-0.02l0.044,-0.021l0.042,-0.021l0.043,-0.022l0.042,-0.022l0.042,-0.023l0.042,-0.023l0.041,-0.024l0.041,-0.024l0.041,-0.025l0.041,-0.025l0.04,-0.026l0.04,-0.026l0.04,-0.027l0.039,-0.027l0.039,-0.028l0.039,-0.028l0.039,-0.029l0.038,-0.03l0.037,-0.029l0.038,-0.031l0.037,-0.031l0.037,-0.031l0.036,-0.032l0.036,-0.032l0.036,-0.032l0.035,-0.034l0.035,-0.033l0.042,-0.041l5.973,-5.973l0.081,-0.079l0.085,-0.076l0.088,-0.072l0.09,-0.069l0.093,-0.065l0.095,-0.062l0.097,-0.059l0.1,-0.054l0.101,-0.051l0.104,-0.047l0.105,-0.043l0.106,-0.039l0.109,-0.035l0.109,-0.031l0.11,-0.026l0.111,-0.023l0.113,-0.018l0.112,-0.014l0.113,-0.009l0.114,-0.006l0.113,-0.001l0.114,0.003Z" style="fill:#808080;"/><path d="M11.008,13.504l0.127,0.011l0.125,0.017l0.125,0.023l0.123,0.03l0.121,0.035l0.12,0.042l0.117,0.048l0.115,0.054l0.112,0.059l0.108,0.066l0.106,0.07l0.101,0.076l0.098,0.081l0.093,0.085l0.089,0.09l0.084,0.095l0.079,0.099l0.074,0.103l0.069,0.106l0.064,0.109l0.058,0.113l0.052,0.116l0.046,0.118l0.04,0.12l0.034,0.122l2.685,10.707l0.016,0.06l0.014,0.054l0.03,0.106l0.016,0.052l0.016,0.053l0.017,0.052l0.018,0.051l0.018,0.052l0.018,0.051l0.019,0.051l0.02,0.05l0.019,0.05l0.021,0.051l0.042,0.098l0.022,0.049l0.023,0.049l0.022,0.049l0.048,0.096l0.024,0.047l0.075,0.141l0.027,0.046l0.026,0.046l0.027,0.046l0.056,0.09l0.028,0.044l0.029,0.045l0.029,0.044l0.03,0.044l0.06,0.086l0.031,0.043l0.096,0.126l0.033,0.041l0.032,0.041l0.034,0.04l0.034,0.041l0.034,0.04l0.105,0.117l0.072,0.076l0.037,0.038l0.074,0.074l0.038,0.037l0.038,0.036l0.038,0.035l0.039,0.036l0.039,0.035l0.04,0.034l0.039,0.034l0.041,0.034l0.04,0.033l0.041,0.033l0.082,0.064l0.042,0.032l0.042,0.031l0.043,0.031l0.129,0.09l0.044,0.029l0.088,0.056l0.045,0.028l0.045,0.027l0.044,0.027l0.138,0.078l0.046,0.025l0.046,0.024l0.094,0.048l0.047,0.022l0.048,0.023l0.048,0.022l0.047,0.022l0.048,0.021l0.049,0.021l0.098,0.04l0.049,0.019l0.049,0.018l0.1,0.036l0.1,0.034l0.05,0.016l0.051,0.016l0.051,0.015l0.051,0.014l0.051,0.015l0.051,0.013l0.104,0.026l0.052,0.012l0.104,0.022l0.159,0.03l0.053,0.008l0.053,0.009l0.053,0.007l0.054,0.007l0.053,0.007l0.055,0.006l0.162,0.015l0.055,0.004l0.055,0.003l0.109,0.004l0.056,0.002l0.055,0.001l2.094,0l0.127,0.003l0.126,0.01l0.126,0.016l0.124,0.022l0.124,0.029l0.121,0.035l0.12,0.041l0.118,0.047l0.115,0.053l0.112,0.058l0.109,0.064l0.106,0.07l0.102,0.075l0.098,0.08l0.094,0.085l0.09,0.09l0.085,0.094l0.08,0.098l0.075,0.102l0.07,0.106l0.064,0.109l0.059,0.112l0.052,0.115l0.047,0.118l0.041,0.12l0.035,0.121l0.029,0.124l0.022,0.124l0.016,0.126l0.01,0.126l0.003,0.127l-0.003,0.127l-0.01,0.126l-0.016,0.126l-0.022,0.124l-0.029,0.124l-0.035,0.121l-0.041,0.12l-0.047,0.118l-0.052,0.115l-0.059,0.112l-0.064,0.109l-0.07,0.106l-0.075,0.102l-0.08,0.098l-0.085,0.094l-0.09,0.09l-0.094,0.085l-0.098,0.08l-0.102,0.075l-0.106,0.07l-0.109,0.064l-0.112,0.059l-0.115,0.052l-0.118,0.047l-0.12,0.041l-0.121,0.035l-0.124,0.029l-0.124,0.022l-0.126,0.016l-0.126,0.01l-0.127,0.003l-2.045,0l-0.102,0l-0.109,-0.002l-0.108,-0.003l-0.108,-0.004l-0.108,-0.005l-0.107,-0.007l-0.108,-0.007l-0.107,-0.009l-0.107,-0.009l-0.106,-0.011l-0.106,-0.012l-0.107,-0.013l-0.106,-0.014l-0.105,-0.015l-0.105,-0.016l-0.105,-0.018l-0.104,-0.018l-0.105,-0.02l-0.104,-0.02l-0.103,-0.022l-0.103,-0.022l-0.104,-0.024l-0.102,-0.025l-0.102,-0.026l-0.102,-0.027l-0.101,-0.027l-0.101,-0.029l-0.101,-0.03l-0.1,-0.031l-0.1,-0.032l-0.099,-0.033l-0.099,-0.034l-0.098,-0.035l-0.098,-0.036l-0.098,-0.037l-0.097,-0.038l-0.097,-0.039l-0.096,-0.039l-0.095,-0.041l-0.096,-0.042l-0.095,-0.043l-0.094,-0.043l-0.093,-0.045l-0.094,-0.045l-0.092,-0.046l-0.092,-0.048l-0.092,-0.048l-0.091,-0.049l-0.091,-0.05l-0.09,-0.051l-0.089,-0.052l-0.089,-0.053l-0.088,-0.053l-0.088,-0.055l-0.087,-0.055l-0.087,-0.057l-0.086,-0.057l-0.085,-0.058l-0.085,-0.059l-0.084,-0.059l-0.084,-0.061l-0.083,-0.061l-0.082,-0.062l-0.082,-0.063l-0.081,-0.064l-0.08,-0.065l-0.08,-0.065l-0.079,-0.067l-0.078,-0.067l-0.078,-0.068l-0.077,-0.068l-0.076,-0.07l-0.076,-0.07l-0.075,-0.072l-0.074,-0.071l-0.073,-0.073l-0.073,-0.073l-0.072,-0.074l-0.072,-0.075l-0.07,-0.076l-0.07,-0.076l-0.069,-0.077l-0.069,-0.079l-0.067,-0.078l-0.067,-0.079l-0.066,-0.08l-0.065,-0.081l-0.064,-0.082l-0.064,-0.082l-0.063,-0.083l-0.062,-0.083l-0.061,-0.085l-0.06,-0.085l-0.06,-0.085l-0.059,-0.087l-0.057,-0.087l-0.057,-0.087l-0.057,-0.089l-0.055,-0.089l-0.054,-0.089l-0.054,-0.09l-0.052,-0.092l-0.052,-0.091l-0.051,-0.092l-0.05,-0.093l-0.049,-0.093l-0.048,-0.094l-0.047,-0.095l-0.046,-0.095l-0.045,-0.096l-0.044,-0.096l-0.044,-0.097l-0.042,-0.098l-0.041,-0.098l-0.041,-0.098l-0.039,-0.1l-0.039,-0.099l-0.037,-0.101l-0.036,-0.101l-0.036,-0.101l-0.034,-0.101l-0.033,-0.103l-0.033,-0.103l-0.031,-0.103l-0.03,-0.104l-0.029,-0.104l-0.028,-0.105l-0.026,-0.099l-2.688,-10.72l-0.028,-0.123l-0.021,-0.125l-0.015,-0.126l-0.009,-0.126l-0.002,-0.127l0.004,-0.127l0.011,-0.126l0.017,-0.125l0.023,-0.125l0.029,-0.123l0.036,-0.122l0.042,-0.119l0.048,-0.117l0.054,-0.115l0.059,-0.112l0.065,-0.109l0.071,-0.105l0.076,-0.101l0.08,-0.098l0.086,-0.093l0.09,-0.089l0.095,-0.084l0.099,-0.08l0.102,-0.074l0.107,-0.069l0.109,-0.063l0.113,-0.058l0.115,-0.052l0.118,-0.046l0.121,-0.04l0.122,-0.034l0.123,-0.028l0.125,-0.021l0.126,-0.015l0.126,-0.009l0.127,-0.002l0.126,0.004Z" style="fill:#808080;"/><path d="M27.932,18l0,9l4.068,-2.28l-9.16,8.98l-9.908,-3.7l0,-12l15,0Z" style="fill:#808080;"/><path d="M12,10l1.75,10.5" style="fill:none;stroke:#000;stroke-width:1px;stroke-linejoin:miter;stroke-miterlimit:1.5;"/><path d="M18.5,9l0,10" style="fill:none;stroke:#000;stroke-width:1px;stroke-linejoin:miter;stroke-miterlimit:1.5;"/><path d="M24.5,9l0,9.5" style="fill:none;stroke:#000;stroke-width:1px;stroke-linejoin:miter;stroke-miterlimit:1.5;"/><path d="M14.742,10.323c1.022,-0.255 2.149,0.728 2.514,2.193c0.366,1.466 -0.168,2.862 -1.19,3.117c-1.022,0.255 -2.149,-0.728 -2.514,-2.193c-0.366,-1.465 0.168,-2.862 1.19,-3.117Z" style="fill:#464646;"/><path d="M10.171,14.9c0.85,-0.212 1.772,0.548 2.058,1.695c0.286,1.148 -0.171,2.252 -1.021,2.464c-0.85,0.211 -1.772,-0.548 -2.058,-1.696c-0.286,-1.148 0.171,-2.252 1.021,-2.463Z" style="fill:#464646;"/><ellipse cx="21.509" cy="11.5" rx="2" ry="3" style="fill:#464646;"/><path d="M28.681,10.134c0.989,0.247 1.487,1.673 1.11,3.184c-0.376,1.51 -1.485,2.536 -2.475,2.29c-0.99,-0.247 -1.487,-1.674 -1.111,-3.184c0.377,-1.511 1.486,-2.537 2.476,-2.29Z" style="fill:#464646;"/><path d="M34.018,22.485c0.903,0.903 0.59,2.684 -0.699,3.973c-1.289,1.289 -3.07,1.602 -3.973,0.699c-0.904,-0.904 -0.591,-2.684 0.699,-3.973c1.289,-1.29 3.069,-1.603 3.973,-0.699Z" style="fill:#464646;"/><path d="M14,28.657c0,-1.061 0.421,-2.078 1.172,-2.829c0.819,-0.819 1.951,-1.951 3,-3c0.75,-0.75 1.767,-1.171 2.828,-1.171c1.061,0 2.078,0.421 2.828,1.171c1.049,1.049 2.181,2.181 3,3c0.751,0.751 1.172,1.768 1.172,2.829l0,0.501c0,0.923 -0.426,1.796 -1.154,2.364c-0.728,0.569 -1.677,0.77 -2.574,0.546c-0.917,-0.229 -1.782,-0.445 -2.294,-0.574c-0.318,-0.079 -0.643,-0.119 -0.97,-0.119l-0.016,0c-0.327,0 -0.652,0.04 -0.97,0.119c-0.512,0.129 -1.377,0.345 -2.294,0.574c-0.897,0.224 -1.846,0.023 -2.574,-0.546c-0.728,-0.568 -1.154,-1.441 -1.154,-2.364l0,-0.501Z" style="fill:#464646;"/></g></g></g></g></g></g></svg>