<?xml version="1.0" encoding="UTF-8" standalone="no"?>
<!DOCTYPE svg PUBLIC "-//W3C//DTD SVG 1.1//EN" "http://www.w3.org/Graphics/SVG/1.1/DTD/svg11.dtd">
<svg width="100%" height="100%" viewBox="0 0 32 32" version="1.1" xmlns="http://www.w3.org/2000/svg" xmlns:xlink="http://www.w3.org/1999/xlink" xml:space="preserve" xmlns:serif="http://www.serif.com/" style="fill-rule:evenodd;clip-rule:evenodd;stroke-linecap:round;stroke-linejoin:round;stroke-miterlimit:1.5;">
    <rect id="bridge_at_night" x="0" y="0" width="32" height="32" style="fill:none;"/>
    <clipPath id="_clip1">
        <rect x="0" y="0" width="32" height="32"/>
    </clipPath>
    <g clip-path="url(#_clip1)">
        <g id="outline">
            <path d="M32,2c0,-0.53 -0.211,-1.039 -0.586,-1.414c-0.375,-0.375 -0.884,-0.586 -1.414,-0.586l-28,0c-0.53,0 -1.039,0.211 -1.414,0.586c-0.375,0.375 -0.586,0.884 -0.586,1.414l0,28c0,0.53 0.211,1.039 0.586,1.414c0.375,0.375 0.884,0.586 1.414,0.586l28,0c0.53,0 1.039,-0.211 1.414,-0.586c0.375,-0.375 0.586,-0.884 0.586,-1.414l0,-28Z"/>
        </g>
        <g id="emoji">
            <rect x="2" y="2" width="28" height="28" style="fill:#1f1c65;"/>
            <rect x="2" y="2" width="28" height="28" style="fill:none;"/>
            <clipPath id="_clip2">
                <rect x="2" y="2" width="28" height="28"/>
            </clipPath>
            <g clip-path="url(#_clip2)">
                <rect x="22" y="21" width="4" height="11" style="fill:#413c9b;"/>
                <rect x="22" y="21" width="4" height="5" style="fill:#332f79;"/>
                <rect x="6" y="21" width="4" height="11" style="fill:#413c9b;"/>
                <rect x="6" y="21" width="4" height="5" style="fill:#332f79;"/>
                <path d="M8,10l0,11l-2,0l0,-11l2,0Zm18,0l0,11l-2,0l0,-11l2,0Zm-12,-1l0,12l-2,0l0,-12l2,0Zm6,0l0,12l-2,0l0,-12l2,0Z" style="fill:#5852bc;"/>
                <clipPath id="_clip3">
                    <path d="M8,10l0,11l-2,0l0,-11l2,0Zm18,0l0,11l-2,0l0,-11l2,0Zm-12,-1l0,12l-2,0l0,-12l2,0Zm6,0l0,12l-2,0l0,-12l2,0Z"/>
                </clipPath>
                <g clip-path="url(#_clip3)">
                    <path d="M-2,22c0,0 0.443,-1.388 1.041,-3.256c1.822,-5.704 8.854,-9.744 16.958,-9.744c0.001,0 0.001,0 0.002,0c8.104,0 15.136,4.04 16.958,9.744c0.598,1.868 1.041,3.256 1.041,3.256" style="fill:none;stroke:#433e9f;stroke-width:2px;"/>
                </g>
                <path d="M-2,21c0,0 0.443,-1.388 1.041,-3.256c1.822,-5.704 8.854,-9.744 16.958,-9.744c0.001,0 0.001,0 0.002,0c8.104,0 15.136,4.04 16.958,9.744c0.598,1.868 1.041,3.256 1.041,3.256" style="fill:none;stroke:#5852bc;stroke-width:2px;"/>
                <rect x="2" y="20" width="28" height="4" style="fill:#5852bc;"/>
            </g>
            <rect x="2" y="20" width="28" height="1" style="fill:#ba8418;"/>
            <g>
                <circle cx="16" cy="18" r="1" style="fill:#ffb648;"/>
                <circle cx="10" cy="18" r="1" style="fill:#ffb648;"/>
                <circle cx="4" cy="18" r="1" style="fill:#ffb648;"/>
                <circle cx="28" cy="18" r="1" style="fill:#ffb648;"/>
                <circle cx="22" cy="18" r="1" style="fill:#ffb648;"/>
            </g>
            <g>
                <path d="M14,14l0,7l-2,0l0,-7l2,0Zm6,0l0,7l-2,0l0,-7l2,0Zm-12,0l0,7l-2,0l0,-7l2,0Zm18,0l0,7l-2,0l0,-7l2,0Z" style="fill:#885c03;"/>
                <clipPath id="_clip4">
                    <path d="M14,14l0,7l-2,0l0,-7l2,0Zm6,0l0,7l-2,0l0,-7l2,0Zm-12,0l0,7l-2,0l0,-7l2,0Zm18,0l0,7l-2,0l0,-7l2,0Z"/>
                </clipPath>
                <g clip-path="url(#_clip4)">
                    <rect x="2" y="20" width="28" height="4" style="fill:#6a4802;"/>
                </g>
            </g>
        </g>
    </g>
</svg>
