<?xml version="1.0" encoding="UTF-8" standalone="no"?>
<!DOCTYPE svg PUBLIC "-//W3C//DTD SVG 1.1//EN" "http://www.w3.org/Graphics/SVG/1.1/DTD/svg11.dtd">
<svg width="100%" height="100%" viewBox="0 0 32 32" version="1.1" xmlns="http://www.w3.org/2000/svg" xmlns:xlink="http://www.w3.org/1999/xlink" xml:space="preserve" xmlns:serif="http://www.serif.com/" style="fill-rule:evenodd;clip-rule:evenodd;stroke-linejoin:round;stroke-miterlimit:2;">
    <rect id="cityscape" x="0" y="0" width="32" height="32" style="fill:none;"/>
    <clipPath id="_clip1">
        <rect x="0" y="0" width="32" height="32"/>
    </clipPath>
    <g clip-path="url(#_clip1)">
        <g id="outline">
            <path d="M32,2c0,-0.53 -0.211,-1.039 -0.586,-1.414c-0.375,-0.375 -0.884,-0.586 -1.414,-0.586l-28,0c-0.53,0 -1.039,0.211 -1.414,0.586c-0.375,0.375 -0.586,0.884 -0.586,1.414l0,28c0,0.53 0.211,1.039 0.586,1.414c0.375,0.375 0.884,0.586 1.414,0.586l28,0c0.53,0 1.039,-0.211 1.414,-0.586c0.375,-0.375 0.586,-0.884 0.586,-1.414l0,-28Z"/>
            <path d="M30,2l-28,0l0,5l3,2l23,0l2,-2l0,-5Z" style="fill:#61a5ff;"/>
            <path d="M30,7l-28,0l0,3l2,13l23,0l3,-14l0,-2Z" style="fill:#4891f7;"/>
            <path d="M22,22l-8,0l2,8l4,0l2,-8Z" style="fill:#3569ae;"/>
            <rect x="20" y="13" width="8" height="17" style="fill:#20274d;"/>
            <path d="M16,19l-9,0l2,11l7,0l0,-11Z" style="fill:#20274d;"/>
            <rect x="25" y="9" width="5" height="21" style="fill:#384684;"/>
            <path d="M9,13l-1,-1l-6,0l0,18l7,0l0,-17Z" style="fill:#384684;"/>
            <path d="M2,10l2,-2l4,4l1,0l0,1l-7,0l0,-1l1,-0.604l-1,-0.396l0,-1Z" style="fill:#2f3a72;"/>
            <path d="M2,11l2,-2l3,3l-5,0l0,-1Z" style="fill:#242d54;"/>
            <g>
                <rect x="3" y="14" width="1" height="2" style="fill:#a47d32;"/>
                <rect x="3" y="23" width="1" height="2" style="fill:#a47d32;"/>
                <rect x="7" y="14" width="1" height="2" style="fill:#a47d32;"/>
                <rect x="7" y="29" width="1" height="1" style="fill:#a47d32;"/>
                <rect x="3" y="29" width="1" height="1" style="fill:#a47d32;"/>
                <rect x="12" y="20" width="1" height="2" style="fill:#a47d32;"/>
                <rect x="10" y="26" width="1" height="2" style="fill:#a47d32;"/>
                <rect x="14" y="26" width="1" height="2" style="fill:#a47d32;"/>
                <rect x="12" y="29" width="1" height="1" style="fill:#a47d32;"/>
                <rect x="21" y="14" width="1" height="2" style="fill:#a47d32;"/>
                <rect x="23" y="17" width="1" height="2" style="fill:#a47d32;"/>
                <rect x="23" y="26" width="1" height="2" style="fill:#a47d32;"/>
                <rect x="26" y="10" width="1" height="2" style="fill:#a47d32;"/>
                <rect x="28" y="19" width="1" height="2" style="fill:#a47d32;"/>
                <rect x="26" y="22" width="1" height="2" style="fill:#a47d32;"/>
                <rect x="28" y="25" width="1" height="2" style="fill:#a47d32;"/>
                <rect x="28" y="28" width="1" height="2" style="fill:#a47d32;"/>
            </g>
        </g>
        <g id="emoji">
        </g>
    </g>
</svg>
