<?xml version="1.0" encoding="UTF-8" standalone="no"?>
<!DOCTYPE svg PUBLIC "-//W3C//DTD SVG 1.1//EN" "http://www.w3.org/Graphics/SVG/1.1/DTD/svg11.dtd">
<svg width="100%" height="100%" viewBox="0 0 32 32" version="1.1" xmlns="http://www.w3.org/2000/svg" xmlns:xlink="http://www.w3.org/1999/xlink" xml:space="preserve" xmlns:serif="http://www.serif.com/" style="fill-rule:evenodd;clip-rule:evenodd;stroke-linejoin:round;stroke-miterlimit:2;">
    <rect id="fireworks" x="0" y="0" width="32" height="32" style="fill:none;"/>
    <clipPath id="_clip1">
        <rect x="0" y="0" width="32" height="32"/>
    </clipPath>
    <g clip-path="url(#_clip1)">
        <g id="outline">
            <path d="M32,2c0,-0.53 -0.211,-1.039 -0.586,-1.414c-0.375,-0.375 -0.884,-0.586 -1.414,-0.586l-28,0c-0.53,0 -1.039,0.211 -1.414,0.586c-0.375,0.375 -0.586,0.884 -0.586,1.414l0,28c0,0.53 0.211,1.039 0.586,1.414c0.375,0.375 0.884,0.586 1.414,0.586l28,0c0.53,0 1.039,-0.211 1.414,-0.586c0.375,-0.375 0.586,-0.884 0.586,-1.414l0,-28Z"/>
        </g>
        <g id="emoji">
            <rect x="2" y="2" width="28" height="28" style="fill:#282480;"/>
            <clipPath id="_clip2">
                <rect x="2" y="2" width="28" height="28"/>
            </clipPath>
            <g clip-path="url(#_clip2)">
                <path d="M17,19c0,-0.552 -0.448,-1 -1,-1c-0.552,0 -1,0.448 -1,1c0,2.577 0,9.423 0,12c0,0.552 0.448,1 1,1c0.552,0 1,-0.448 1,-1c0,-2.577 0,-9.423 0,-12Z" style="fill:#b73bff;"/>
                <g>
                    <path d="M7.5,26.5c0,-0.133 -0.053,-0.26 -0.146,-0.354c-0.094,-0.093 -0.221,-0.146 -0.354,-0.146c-0.133,0 -0.26,0.053 -0.354,0.146c-0.093,0.094 -0.146,0.221 -0.146,0.354c0,0.555 0,1.445 0,2c0,0.133 0.053,0.26 0.146,0.354c0.094,0.093 0.221,0.146 0.354,0.146c0.133,0 0.26,-0.053 0.354,-0.146c0.093,-0.094 0.146,-0.221 0.146,-0.354c0,-0.555 0,-1.445 0,-2Z" style="fill:#b73bff;"/>
                    <path d="M8,28c0.133,0 0.26,-0.053 0.354,-0.146c0.093,-0.094 0.146,-0.221 0.146,-0.354c0,-0.133 -0.053,-0.26 -0.146,-0.354c-0.094,-0.093 -0.221,-0.146 -0.354,-0.146c-0.555,0 -1.445,0 -2,0c-0.133,0 -0.26,0.053 -0.354,0.146c-0.093,0.094 -0.146,0.221 -0.146,0.354c0,0.133 0.053,0.26 0.146,0.354c0.094,0.093 0.221,0.146 0.354,0.146c0.555,0 1.445,0 2,0Z" style="fill:#b73bff;"/>
                </g>
                <g>
                    <path d="M24.5,3.5c0,-0.133 -0.053,-0.26 -0.146,-0.354c-0.094,-0.093 -0.221,-0.146 -0.354,-0.146c-0.133,0 -0.26,0.053 -0.354,0.146c-0.093,0.094 -0.146,0.221 -0.146,0.354c0,0.555 0,1.445 0,2c0,0.133 0.053,0.26 0.146,0.354c0.094,0.093 0.221,0.146 0.354,0.146c0.133,0 0.26,-0.053 0.354,-0.146c0.093,-0.094 0.146,-0.221 0.146,-0.354c0,-0.555 0,-1.445 0,-2Z" style="fill:#b73bff;"/>
                    <path d="M25,5c0.133,0 0.26,-0.053 0.354,-0.146c0.093,-0.094 0.146,-0.221 0.146,-0.354c0,-0.133 -0.053,-0.26 -0.146,-0.354c-0.094,-0.093 -0.221,-0.146 -0.354,-0.146c-0.555,0 -1.445,0 -2,0c-0.133,0 -0.26,0.053 -0.354,0.146c-0.093,0.094 -0.146,0.221 -0.146,0.354c0,0.133 0.053,0.26 0.146,0.354c0.094,0.093 0.221,0.146 0.354,0.146c0.555,0 1.445,0 2,0Z" style="fill:#b73bff;"/>
                </g>
                <g>
                    <path d="M27.5,22.5c0,-0.133 -0.053,-0.26 -0.146,-0.354c-0.094,-0.093 -0.221,-0.146 -0.354,-0.146c-0.133,0 -0.26,0.053 -0.354,0.146c-0.093,0.094 -0.146,0.221 -0.146,0.354c0,0.555 0,1.445 0,2c0,0.133 0.053,0.26 0.146,0.354c0.094,0.093 0.221,0.146 0.354,0.146c0.133,0 0.26,-0.053 0.354,-0.146c0.093,-0.094 0.146,-0.221 0.146,-0.354c0,-0.555 0,-1.445 0,-2Z" style="fill:#e9c6ff;"/>
                    <path d="M28,24c0.133,0 0.26,-0.053 0.354,-0.146c0.093,-0.094 0.146,-0.221 0.146,-0.354c0,-0.133 -0.053,-0.26 -0.146,-0.354c-0.094,-0.093 -0.221,-0.146 -0.354,-0.146c-0.555,0 -1.445,0 -2,0c-0.133,0 -0.26,0.053 -0.354,0.146c-0.093,0.094 -0.146,0.221 -0.146,0.354c0,0.133 0.053,0.26 0.146,0.354c0.094,0.093 0.221,0.146 0.354,0.146c0.555,0 1.445,0 2,0Z" style="fill:#e9c6ff;"/>
                </g>
                <g>
                    <path d="M5.5,3.5c0,-0.133 -0.053,-0.26 -0.146,-0.354c-0.094,-0.093 -0.221,-0.146 -0.354,-0.146c-0.133,0 -0.26,0.053 -0.354,0.146c-0.093,0.094 -0.146,0.221 -0.146,0.354c0,0.555 0,1.445 0,2c0,0.133 0.053,0.26 0.146,0.354c0.094,0.093 0.221,0.146 0.354,0.146c0.133,0 0.26,-0.053 0.354,-0.146c0.093,-0.094 0.146,-0.221 0.146,-0.354c0,-0.555 0,-1.445 0,-2Z" style="fill:#e9c6ff;"/>
                    <path d="M6,5c0.133,0 0.26,-0.053 0.354,-0.146c0.093,-0.094 0.146,-0.221 0.146,-0.354c0,-0.133 -0.053,-0.26 -0.146,-0.354c-0.094,-0.093 -0.221,-0.146 -0.354,-0.146c-0.555,0 -1.445,0 -2,0c-0.133,0 -0.26,0.053 -0.354,0.146c-0.093,0.094 -0.146,0.221 -0.146,0.354c0,0.133 0.053,0.26 0.146,0.354c0.094,0.093 0.221,0.146 0.354,0.146c0.555,0 1.445,0 2,0Z" style="fill:#e9c6ff;"/>
                </g>
            </g>
            <path d="M20.097,17.858c1.228,0.737 2.152,1.889 2.605,3.248c0.353,1.059 0.761,2.283 1.024,3.071c0.157,0.472 -0.057,0.988 -0.502,1.211c-0.063,0.032 -0.128,0.064 -0.193,0.096c-0.259,0.13 -0.562,0.141 -0.83,0.03c-0.267,-0.111 -0.474,-0.333 -0.566,-0.608c-0.345,-1.037 -0.864,-2.594 -1.224,-3.674c-0.272,-0.816 -0.674,-1.583 -1.19,-2.271c-0.889,-1.185 -2.221,-2.961 -2.221,-2.961c0,0 1.683,1.01 3.097,1.858Zm-8.194,0c-1.228,0.737 -2.152,1.889 -2.605,3.248c-0.353,1.059 -0.761,2.283 -1.024,3.071c-0.157,0.472 0.057,0.988 0.502,1.211c0.063,0.032 0.128,0.064 0.193,0.096c0.259,0.13 0.562,0.141 0.83,0.03c0.267,-0.111 0.474,-0.333 0.566,-0.608c0.345,-1.037 0.864,-2.594 1.224,-3.674c0.272,-0.816 0.674,-1.583 1.19,-2.271c0.889,-1.185 2.221,-2.961 2.221,-2.961c0,0 -1.683,1.01 -3.097,1.858Zm14.221,-1.296c0.58,0.29 1.11,0.672 1.569,1.131c0.099,0.099 0.203,0.203 0.307,0.307c0.552,0.552 0.552,1.448 0,2c0,0 0,0 0,0c-0.552,0.552 -1.448,0.552 -2,0c-0.177,-0.177 -0.355,-0.355 -0.51,-0.51c-0.326,-0.326 -0.683,-0.619 -1.067,-0.874c-0.608,-0.406 -1.548,-1.033 -2.06,-1.374c-0.242,-0.161 -0.493,-0.307 -0.753,-0.437c-1.006,-0.503 -3.61,-1.805 -3.61,-1.805l3.348,0c1.086,0 2.158,0.253 3.13,0.739c0.553,0.277 1.164,0.582 1.646,0.823Zm-20.248,0c-0.58,0.29 -1.11,0.672 -1.569,1.131c-0.099,0.099 -0.203,0.203 -0.307,0.307c-0.552,0.552 -0.552,1.448 0,2c0,0 0,0 0,0c0.552,0.552 1.448,0.552 2,0c0.177,-0.177 0.355,-0.355 0.51,-0.51c0.326,-0.326 0.683,-0.619 1.067,-0.874c0.608,-0.406 1.548,-1.033 2.06,-1.374c0.242,-0.161 0.493,-0.307 0.753,-0.437c1.006,-0.503 3.61,-1.805 3.61,-1.805l-3.348,0c-1.086,0 -2.158,0.253 -3.13,0.739c-0.553,0.277 -1.164,0.582 -1.646,0.823Zm16.646,-4.823c0.972,-0.486 2.044,-0.739 3.13,-0.739l2.348,0c0.265,0 0.52,0.105 0.707,0.293c0.188,0.187 0.293,0.442 0.293,0.707c0,0.265 -0.105,0.52 -0.293,0.707c-0.187,0.188 -0.442,0.293 -0.707,0.293c-1.06,0 -2.69,0 -3.503,0c-0.331,0 -0.661,0.027 -0.987,0.082c-1.432,0.238 -5.51,0.918 -5.51,0.918c0,0 2.745,-1.373 4.522,-2.261Zm-13.044,0c-0.972,-0.486 -2.044,-0.739 -3.13,-0.739l-2.348,0c-0.265,0 -0.52,0.105 -0.707,0.293c-0.188,0.187 -0.293,0.442 -0.293,0.707c0,0.265 0.105,0.52 0.293,0.707c0.187,0.188 0.442,0.293 0.707,0.293c1.06,0 2.69,0 3.503,0c0.331,0 0.661,0.027 0.987,0.082c1.432,0.238 5.51,0.918 5.51,0.918c0,0 -2.745,-1.373 -4.522,-2.261Zm14.515,-5.732c0.267,-0.267 0.629,-0.417 1.007,-0.417c0.378,0 0.74,0.15 1.007,0.417c0,0 0.001,0.001 0.002,0.002c0.249,0.249 0.378,0.594 0.353,0.946c-0.025,0.351 -0.202,0.675 -0.484,0.886c-0.96,0.721 -2.259,1.695 -2.713,2.035c-0.11,0.083 -0.224,0.159 -0.342,0.23c-0.889,0.533 -4.823,2.894 -4.823,2.894c0,0 2.892,-3.615 3.758,-4.697c0.161,-0.202 0.334,-0.395 0.516,-0.577c0.387,-0.387 1.113,-1.113 1.719,-1.719Zm-15.986,0c-0.267,-0.267 -0.629,-0.417 -1.007,-0.417c-0.378,0 -0.74,0.15 -1.007,0.417c0,0 -0.001,0.001 -0.002,0.002c-0.249,0.249 -0.378,0.594 -0.353,0.946c0.025,0.351 0.202,0.675 0.484,0.886c0.96,0.721 2.259,1.695 2.713,2.035c0.11,0.083 0.224,0.159 0.342,0.23c0.889,0.533 4.823,2.894 4.823,2.894c0,0 -2.892,-3.615 -3.758,-4.697c-0.161,-0.202 -0.334,-0.395 -0.516,-0.577c-0.387,-0.387 -1.113,-1.113 -1.719,-1.719Zm6.303,-1.456c-0.078,-0.393 -0.322,-0.733 -0.668,-0.934c-0.346,-0.201 -0.762,-0.244 -1.142,-0.117c0,0 -0.001,0 -0.001,0c-0.389,0.13 -0.708,0.415 -0.88,0.787c-0.173,0.372 -0.185,0.799 -0.032,1.18c0.395,0.987 0.894,2.235 1.181,2.953c0.154,0.386 0.348,0.754 0.579,1.1c0.572,0.859 1.653,2.48 1.653,2.48l0,-3.208c0,-0.527 -0.052,-1.052 -0.155,-1.569c-0.143,-0.711 -0.357,-1.785 -0.535,-2.672Zm3.38,0c0.078,-0.393 0.322,-0.733 0.668,-0.934c0.346,-0.201 0.762,-0.244 1.142,-0.117c0,0 0.001,0 0.001,0c0.389,0.13 0.708,0.415 0.88,0.787c0.173,0.372 0.185,0.799 0.032,1.18c-0.395,0.987 -0.894,2.235 -1.181,2.953c-0.154,0.386 -0.348,0.754 -0.579,1.1c-0.572,0.859 -1.653,2.48 -1.653,2.48l0,-3.208c0,-0.527 0.052,-1.052 0.155,-1.569c0.143,-0.711 0.357,-1.785 0.535,-2.672Z" style="fill:#c869ff;"/>
            <clipPath id="_clip3">
                <path d="M20.097,17.858c1.228,0.737 2.152,1.889 2.605,3.248c0.353,1.059 0.761,2.283 1.024,3.071c0.157,0.472 -0.057,0.988 -0.502,1.211c-0.063,0.032 -0.128,0.064 -0.193,0.096c-0.259,0.13 -0.562,0.141 -0.83,0.03c-0.267,-0.111 -0.474,-0.333 -0.566,-0.608c-0.345,-1.037 -0.864,-2.594 -1.224,-3.674c-0.272,-0.816 -0.674,-1.583 -1.19,-2.271c-0.889,-1.185 -2.221,-2.961 -2.221,-2.961c0,0 1.683,1.01 3.097,1.858Zm-8.194,0c-1.228,0.737 -2.152,1.889 -2.605,3.248c-0.353,1.059 -0.761,2.283 -1.024,3.071c-0.157,0.472 0.057,0.988 0.502,1.211c0.063,0.032 0.128,0.064 0.193,0.096c0.259,0.13 0.562,0.141 0.83,0.03c0.267,-0.111 0.474,-0.333 0.566,-0.608c0.345,-1.037 0.864,-2.594 1.224,-3.674c0.272,-0.816 0.674,-1.583 1.19,-2.271c0.889,-1.185 2.221,-2.961 2.221,-2.961c0,0 -1.683,1.01 -3.097,1.858Zm14.221,-1.296c0.58,0.29 1.11,0.672 1.569,1.131c0.099,0.099 0.203,0.203 0.307,0.307c0.552,0.552 0.552,1.448 0,2c0,0 0,0 0,0c-0.552,0.552 -1.448,0.552 -2,0c-0.177,-0.177 -0.355,-0.355 -0.51,-0.51c-0.326,-0.326 -0.683,-0.619 -1.067,-0.874c-0.608,-0.406 -1.548,-1.033 -2.06,-1.374c-0.242,-0.161 -0.493,-0.307 -0.753,-0.437c-1.006,-0.503 -3.61,-1.805 -3.61,-1.805l3.348,0c1.086,0 2.158,0.253 3.13,0.739c0.553,0.277 1.164,0.582 1.646,0.823Zm-20.248,0c-0.58,0.29 -1.11,0.672 -1.569,1.131c-0.099,0.099 -0.203,0.203 -0.307,0.307c-0.552,0.552 -0.552,1.448 0,2c0,0 0,0 0,0c0.552,0.552 1.448,0.552 2,0c0.177,-0.177 0.355,-0.355 0.51,-0.51c0.326,-0.326 0.683,-0.619 1.067,-0.874c0.608,-0.406 1.548,-1.033 2.06,-1.374c0.242,-0.161 0.493,-0.307 0.753,-0.437c1.006,-0.503 3.61,-1.805 3.61,-1.805l-3.348,0c-1.086,0 -2.158,0.253 -3.13,0.739c-0.553,0.277 -1.164,0.582 -1.646,0.823Zm16.646,-4.823c0.972,-0.486 2.044,-0.739 3.13,-0.739l2.348,0c0.265,0 0.52,0.105 0.707,0.293c0.188,0.187 0.293,0.442 0.293,0.707c0,0.265 -0.105,0.52 -0.293,0.707c-0.187,0.188 -0.442,0.293 -0.707,0.293c-1.06,0 -2.69,0 -3.503,0c-0.331,0 -0.661,0.027 -0.987,0.082c-1.432,0.238 -5.51,0.918 -5.51,0.918c0,0 2.745,-1.373 4.522,-2.261Zm-13.044,0c-0.972,-0.486 -2.044,-0.739 -3.13,-0.739l-2.348,0c-0.265,0 -0.52,0.105 -0.707,0.293c-0.188,0.187 -0.293,0.442 -0.293,0.707c0,0.265 0.105,0.52 0.293,0.707c0.187,0.188 0.442,0.293 0.707,0.293c1.06,0 2.69,0 3.503,0c0.331,0 0.661,0.027 0.987,0.082c1.432,0.238 5.51,0.918 5.51,0.918c0,0 -2.745,-1.373 -4.522,-2.261Zm14.515,-5.732c0.267,-0.267 0.629,-0.417 1.007,-0.417c0.378,0 0.74,0.15 1.007,0.417c0,0 0.001,0.001 0.002,0.002c0.249,0.249 0.378,0.594 0.353,0.946c-0.025,0.351 -0.202,0.675 -0.484,0.886c-0.96,0.721 -2.259,1.695 -2.713,2.035c-0.11,0.083 -0.224,0.159 -0.342,0.23c-0.889,0.533 -4.823,2.894 -4.823,2.894c0,0 2.892,-3.615 3.758,-4.697c0.161,-0.202 0.334,-0.395 0.516,-0.577c0.387,-0.387 1.113,-1.113 1.719,-1.719Zm-15.986,0c-0.267,-0.267 -0.629,-0.417 -1.007,-0.417c-0.378,0 -0.74,0.15 -1.007,0.417c0,0 -0.001,0.001 -0.002,0.002c-0.249,0.249 -0.378,0.594 -0.353,0.946c0.025,0.351 0.202,0.675 0.484,0.886c0.96,0.721 2.259,1.695 2.713,2.035c0.11,0.083 0.224,0.159 0.342,0.23c0.889,0.533 4.823,2.894 4.823,2.894c0,0 -2.892,-3.615 -3.758,-4.697c-0.161,-0.202 -0.334,-0.395 -0.516,-0.577c-0.387,-0.387 -1.113,-1.113 -1.719,-1.719Zm6.303,-1.456c-0.078,-0.393 -0.322,-0.733 -0.668,-0.934c-0.346,-0.201 -0.762,-0.244 -1.142,-0.117c0,0 -0.001,0 -0.001,0c-0.389,0.13 -0.708,0.415 -0.88,0.787c-0.173,0.372 -0.185,0.799 -0.032,1.18c0.395,0.987 0.894,2.235 1.181,2.953c0.154,0.386 0.348,0.754 0.579,1.1c0.572,0.859 1.653,2.48 1.653,2.48l0,-3.208c0,-0.527 -0.052,-1.052 -0.155,-1.569c-0.143,-0.711 -0.357,-1.785 -0.535,-2.672Zm3.38,0c0.078,-0.393 0.322,-0.733 0.668,-0.934c0.346,-0.201 0.762,-0.244 1.142,-0.117c0,0 0.001,0 0.001,0c0.389,0.13 0.708,0.415 0.88,0.787c0.173,0.372 0.185,0.799 0.032,1.18c-0.395,0.987 -0.894,2.235 -1.181,2.953c-0.154,0.386 -0.348,0.754 -0.579,1.1c-0.572,0.859 -1.653,2.48 -1.653,2.48l0,-3.208c0,-0.527 0.052,-1.052 0.155,-1.569c0.143,-0.711 0.357,-1.785 0.535,-2.672Z"/>
            </clipPath>
            <g clip-path="url(#_clip3)">
                <circle cx="16" cy="14" r="9" style="fill:#f0c8ff;"/>
            </g>
        </g>
        <path d="M17,14c0,-0.552 -0.448,-1 -1,-1c-0.552,0 -1,0.448 -1,1c0,0.552 0.448,1 1,1c0.552,0 1,-0.448 1,-1l0,0Z" style="fill:#b73bff;"/>
    </g>
</svg>
