<?xml version="1.0" encoding="UTF-8" standalone="no"?>
<!DOCTYPE svg PUBLIC "-//W3C//DTD SVG 1.1//EN" "http://www.w3.org/Graphics/SVG/1.1/DTD/svg11.dtd">
<svg width="100%" height="100%" viewBox="0 0 32 32" version="1.1" xmlns="http://www.w3.org/2000/svg" xmlns:xlink="http://www.w3.org/1999/xlink" xml:space="preserve" xmlns:serif="http://www.serif.com/" style="fill-rule:evenodd;clip-rule:evenodd;stroke-linejoin:round;stroke-miterlimit:2;">
    <rect id="foggy" x="0" y="0" width="32" height="32" style="fill:none;"/>
    <clipPath id="_clip1">
        <rect x="0" y="0" width="32" height="32"/>
    </clipPath>
    <g clip-path="url(#_clip1)">
        <g id="outline">
            <path d="M32,2c0,-0.53 -0.211,-1.039 -0.586,-1.414c-0.375,-0.375 -0.884,-0.586 -1.414,-0.586l-28,0c-0.53,0 -1.039,0.211 -1.414,0.586c-0.375,0.375 -0.586,0.884 -0.586,1.414l0,28c0,0.53 0.211,1.039 0.586,1.414c0.375,0.375 0.884,0.586 1.414,0.586l28,0c0.53,0 1.039,-0.211 1.414,-0.586c0.375,-0.375 0.586,-0.884 0.586,-1.414l0,-28Z"/>
        </g>
        <g id="emoji">
            <rect x="2" y="2" width="28" height="28" style="fill:#caddfc;"/>
            <clipPath id="_clip2">
                <rect x="2" y="2" width="28" height="28"/>
            </clipPath>
            <g clip-path="url(#_clip2)">
                <rect x="2" y="2" width="28" height="3" style="fill:#dae8fd;"/>
                <path d="M22,8c0,-0.265 -0.105,-0.52 -0.293,-0.707c-0.187,-0.188 -0.442,-0.293 -0.707,-0.293c-4.048,0 -19,0 -19,0l0,2l19,0c0.265,0 0.52,-0.105 0.707,-0.293c0.188,-0.187 0.293,-0.442 0.293,-0.707c0,0 0,0 0,0Z" style="fill:#accbfa;"/>
                <g>
                    <g>
                        <path d="M12,18l4,-12l4,12l-8,0Z" style="fill:#addad1;"/>
                        <rect x="15" y="16" width="2" height="5" style="fill:#addad1;"/>
                    </g>
                    <g>
                        <path d="M18,18l4,-12l4,12l-8,0Z" style="fill:#addad1;"/>
                        <rect x="21" y="16" width="2" height="5" style="fill:#addad1;"/>
                    </g>
                    <g>
                        <path d="M22,18l4,-12l4,12l-8,0Z" style="fill:#addad1;"/>
                        <rect x="25" y="16" width="2" height="5" style="fill:#addad1;"/>
                    </g>
                    <g>
                        <path d="M6,18l4,-12l4,12l-8,0Z" style="fill:#addad1;"/>
                        <rect x="9" y="16" width="2" height="5" style="fill:#addad1;"/>
                    </g>
                    <g>
                        <path d="M2,18l4,-12l4,12l-8,0Z" style="fill:#addad1;"/>
                        <rect x="5" y="16" width="2" height="5" style="fill:#addad1;"/>
                    </g>
                    <g>
                        <path d="M-3,18l4,-12l4,12l-8,0Z" style="fill:#addad1;"/>
                        <rect x="0" y="16" width="2" height="5" style="fill:#addad1;"/>
                    </g>
                </g>
                <path d="M-8,14c0,0 1.233,-0.705 2.664,-1.522c2.842,-1.624 6.057,-2.478 9.33,-2.478c0.6,0 1.006,0 1.006,0l2,4c0,0 0,0 0.001,0c3.236,-2.589 7.257,-4 11.401,-4l2.598,0l2,4c0,0 0,0 0,0c2.561,-2.561 6.035,-4 9.656,-4c1.318,0 2.344,0 2.344,0l0,14l-46,0l0,-10l3,0Z" style="fill:#d9e7fd;"/>
                <rect x="2" y="24" width="28" height="6" style="fill:#6fc9af;"/>
                <g>
                    <g>
                        <path d="M7,21l5,-16l5,16l-10,0Z" style="fill:#83c8ab;"/>
                        <rect x="11" y="19" width="2" height="5" style="fill:#83c8ab;"/>
                    </g>
                    <g>
                        <path d="M15,21l5,-16l5,16l-10,0Z" style="fill:#83c8ab;"/>
                        <rect x="19" y="19" width="2" height="5" style="fill:#83c8ab;"/>
                    </g>
                    <g>
                        <path d="M23,21l5,-16l5,16l-10,0Z" style="fill:#83c8ab;"/>
                        <rect x="27" y="19" width="2" height="5" style="fill:#83c8ab;"/>
                    </g>
                    <g>
                        <path d="M-2,21l5,-16l5,16l-10,0Z" style="fill:#83c8ab;"/>
                        <rect x="2" y="19" width="2" height="5" style="fill:#83c8ab;"/>
                    </g>
                </g>
                <path d="M5,23c0,0 2.394,-1.71 4.382,-3.13c1.703,-1.216 3.743,-1.87 5.836,-1.87c0.119,0 0.238,0 0.355,0c1.487,0 2.847,0.84 3.512,2.171c0.47,0.94 0.915,1.829 0.915,1.829c0,0 1.473,-1.179 2.82,-2.256c1.411,-1.129 3.164,-1.744 4.971,-1.744c0.001,0 0.002,0 0.003,0c1.771,0 3.206,1.435 3.206,3.206c0,2.586 0,5.794 0,5.794l-29,0l0,-4l3,0Z" style="fill:#e5effe;"/>
            </g>
            <path d="M22,25c0,-0.265 -0.105,-0.52 -0.293,-0.707c-0.187,-0.188 -0.442,-0.293 -0.707,-0.293c-4.048,0 -19,0 -19,0l0,2l19,0c0.265,0 0.52,-0.105 0.707,-0.293c0.188,-0.187 0.293,-0.442 0.293,-0.707c0,0 0,0 0,0Z" style="fill:#c8e1f6;"/>
        </g>
    </g>
</svg>
