<?xml version="1.0" encoding="UTF-8" standalone="no"?>
<!DOCTYPE svg PUBLIC "-//W3C//DTD SVG 1.1//EN" "http://www.w3.org/Graphics/SVG/1.1/DTD/svg11.dtd">
<svg width="100%" height="100%" viewBox="0 0 32 32" version="1.1" xmlns="http://www.w3.org/2000/svg" xmlns:xlink="http://www.w3.org/1999/xlink" xml:space="preserve" xmlns:serif="http://www.serif.com/" style="fill-rule:evenodd;clip-rule:evenodd;stroke-linecap:square;stroke-linejoin:round;stroke-miterlimit:1.5;">
    <rect id="milky_way" x="0" y="0" width="32" height="32" style="fill:none;"/>
    <clipPath id="_clip1">
        <rect x="0" y="0" width="32" height="32"/>
    </clipPath>
    <g clip-path="url(#_clip1)">
        <g id="outline">
            <path d="M32,2c0,-0.53 -0.211,-1.039 -0.586,-1.414c-0.375,-0.375 -0.884,-0.586 -1.414,-0.586l-28,0c-0.53,0 -1.039,0.211 -1.414,0.586c-0.375,0.375 -0.586,0.884 -0.586,1.414l0,28c0,0.53 0.211,1.039 0.586,1.414c0.375,0.375 0.884,0.586 1.414,0.586l28,0c0.53,0 1.039,-0.211 1.414,-0.586c0.375,-0.375 0.586,-0.884 0.586,-1.414l0,-28Z"/>
        </g>
        <g id="emoji">
            <rect x="2" y="2" width="28" height="28" style="fill:#282480;"/>
            <clipPath id="_clip2">
                <rect x="2" y="2" width="28" height="28"/>
            </clipPath>
            <g clip-path="url(#_clip2)">
                <path d="M20,12c0,0 -0.066,-0.066 -0.183,-0.183c-1.278,-1.278 -3.01,-1.995 -4.817,-1.995c-1.807,0 -3.539,0.717 -4.817,1.995c-0.012,0.012 -0.024,0.024 -0.037,0.037c-1.63,1.63 -2.546,3.841 -2.546,6.146c0,2.305 0.916,4.516 2.546,6.146c0,0 0.001,0.001 0.001,0.001c1.817,1.817 4.283,2.838 6.853,2.838c2.57,0 5.036,-1.021 6.853,-2.838c3.953,-3.953 8.147,-8.147 8.147,-8.147" style="fill:none;stroke:#4258c7;stroke-width:6px;"/>
                <path d="M12,20c0,0 0.066,0.066 0.183,0.183c1.278,1.278 3.01,1.995 4.817,1.995c1.807,0 3.539,-0.717 4.817,-1.995c0.012,-0.012 0.024,-0.024 0.037,-0.037c1.63,-1.63 2.546,-3.841 2.546,-6.146c0,-2.305 -0.916,-4.516 -2.546,-6.146c0,0 -0.001,-0.001 -0.001,-0.001c-1.817,-1.817 -4.283,-2.838 -6.853,-2.838c-2.57,0 -5.036,1.021 -6.853,2.838c-3.953,3.953 -8.147,8.147 -8.147,8.147" style="fill:none;stroke:#4258c7;stroke-width:6px;"/>
                <rect x="9" y="10" width="14" height="13" style="fill:#4258c7;"/>
                <path d="M20,12c0,0 -0.066,-0.066 -0.183,-0.183c-1.278,-1.278 -3.01,-1.995 -4.817,-1.995c-1.807,0 -3.539,0.717 -4.817,1.995c-0.012,0.012 -0.024,0.024 -0.037,0.037c-1.63,1.63 -2.546,3.841 -2.546,6.146c0,2.305 0.916,4.516 2.546,6.146c0,0 0.001,0.001 0.001,0.001c1.817,1.817 4.283,2.838 6.853,2.838c2.57,0 5.036,-1.021 6.853,-2.838c2.232,-2.232 4.147,-4.147 4.147,-4.147" style="fill:none;stroke:#98aaf1;stroke-width:2px;stroke-linecap:round;"/>
                <path d="M12,20c0,0 0.066,0.066 0.183,0.183c1.278,1.278 3.01,1.995 4.817,1.995c1.807,0 3.539,-0.717 4.817,-1.995c0.012,-0.012 0.024,-0.024 0.037,-0.037c1.63,-1.63 2.546,-3.841 2.546,-6.146c0,-2.305 -0.916,-4.516 -2.546,-6.146c0,0 -0.001,-0.001 -0.001,-0.001c-1.817,-1.817 -4.283,-2.838 -6.853,-2.838c-2.57,0 -5.036,1.021 -6.853,2.838c-2.232,2.232 -4.147,4.147 -4.147,4.147" style="fill:none;stroke:#98aaf1;stroke-width:2px;stroke-linecap:round;"/>
                <path d="M17,19l0.001,0c2.325,0 4.327,-1.641 4.783,-3.921c0.126,-0.63 0.216,-1.079 0.216,-1.079" style="fill:none;stroke:#5a7aed;stroke-width:1px;stroke-linecap:round;"/>
                <path d="M15,13l-0.001,0c-2.325,0 -4.327,1.641 -4.783,3.921c-0.126,0.63 -0.216,1.079 -0.216,1.079" style="fill:none;stroke:#5a7aed;stroke-width:1px;stroke-linecap:round;"/>
                <path d="M27,14l0,-1.275c0,-1.777 -0.526,-3.514 -1.512,-4.992c-0.281,-0.422 -0.488,-0.733 -0.488,-0.733" style="fill:none;stroke:#5a7aed;stroke-width:1px;stroke-linecap:round;"/>
                <path d="M5,18l0,1.275c0,1.777 0.526,3.514 1.512,4.992c0.281,0.422 0.488,0.733 0.488,0.733" style="fill:none;stroke:#5a7aed;stroke-width:1px;stroke-linecap:round;"/>
                <path d="M20,12l-0.002,0c-2.121,0 -4.156,0.843 -5.655,2.343c-1.5,1.499 -2.343,3.534 -2.343,5.655l0,0.002c4.418,0 8,-3.582 8,-8l0,0Z" style="fill:#f5ecbc;stroke:#c6a80e;stroke-width:2px;stroke-linecap:round;"/>
            </g>
            <g>
                <path d="M25.5,25c0,-0.133 -0.053,-0.26 -0.146,-0.354c-0.094,-0.093 -0.221,-0.146 -0.354,-0.146c-0.133,0 -0.26,0.053 -0.354,0.146c-0.093,0.094 -0.146,0.221 -0.146,0.354c0,0.555 0,1.445 0,2c0,0.133 0.053,0.26 0.146,0.354c0.094,0.093 0.221,0.146 0.354,0.146c0.133,0 0.26,-0.053 0.354,-0.146c0.093,-0.094 0.146,-0.221 0.146,-0.354c0,-0.555 0,-1.445 0,-2Z" style="fill:#e4cc43;"/>
                <path d="M26,26.5c0.133,0 0.26,-0.053 0.354,-0.146c0.093,-0.094 0.146,-0.221 0.146,-0.354c0,-0.133 -0.053,-0.26 -0.146,-0.354c-0.094,-0.093 -0.221,-0.146 -0.354,-0.146c-0.555,0 -1.445,0 -2,0c-0.133,0 -0.26,0.053 -0.354,0.146c-0.093,0.094 -0.146,0.221 -0.146,0.354c0,0.133 0.053,0.26 0.146,0.354c0.094,0.093 0.221,0.146 0.354,0.146c0.555,0 1.445,0 2,0Z" style="fill:#e4cc43;"/>
            </g>
            <g>
                <path d="M22,19.5c0,-0.133 -0.053,-0.26 -0.146,-0.354c-0.094,-0.093 -0.221,-0.146 -0.354,-0.146c-0.133,0 -0.26,0.053 -0.354,0.146c-0.093,0.094 -0.146,0.221 -0.146,0.354c0,0.555 0,1.445 0,2c0,0.133 0.053,0.26 0.146,0.354c0.094,0.093 0.221,0.146 0.354,0.146c0.133,0 0.26,-0.053 0.354,-0.146c0.093,-0.094 0.146,-0.221 0.146,-0.354c0,-0.555 0,-1.445 0,-2Z" style="fill:#ff92ef;"/>
                <path d="M22.5,21c0.133,0 0.26,-0.053 0.354,-0.146c0.093,-0.094 0.146,-0.221 0.146,-0.354c0,-0.133 -0.053,-0.26 -0.146,-0.354c-0.094,-0.093 -0.221,-0.146 -0.354,-0.146c-0.555,0 -1.445,0 -2,0c-0.133,0 -0.26,0.053 -0.354,0.146c-0.093,0.094 -0.146,0.221 -0.146,0.354c0,0.133 0.053,0.26 0.146,0.354c0.094,0.093 0.221,0.146 0.354,0.146c0.555,0 1.445,0 2,0Z" style="fill:#ff92ef;"/>
            </g>
            <g>
                <path d="M5,3.5c0,-0.133 -0.053,-0.26 -0.146,-0.354c-0.094,-0.093 -0.221,-0.146 -0.354,-0.146c-0.133,0 -0.26,0.053 -0.354,0.146c-0.093,0.094 -0.146,0.221 -0.146,0.354c0,0.555 0,1.445 0,2c0,0.133 0.053,0.26 0.146,0.354c0.094,0.093 0.221,0.146 0.354,0.146c0.133,0 0.26,-0.053 0.354,-0.146c0.093,-0.094 0.146,-0.221 0.146,-0.354c0,-0.555 0,-1.445 0,-2Z" style="fill:#ff92ef;"/>
                <path d="M5.5,5c0.133,0 0.26,-0.053 0.354,-0.146c0.093,-0.094 0.146,-0.221 0.146,-0.354c0,-0.133 -0.053,-0.26 -0.146,-0.354c-0.094,-0.093 -0.221,-0.146 -0.354,-0.146c-0.555,0 -1.445,0 -2,0c-0.133,0 -0.26,0.053 -0.354,0.146c-0.093,0.094 -0.146,0.221 -0.146,0.354c0,0.133 0.053,0.26 0.146,0.354c0.094,0.093 0.221,0.146 0.354,0.146c0.555,0 1.445,0 2,0Z" style="fill:#ff92ef;"/>
            </g>
            <g>
                <path d="M27,4.5c0,-0.133 -0.053,-0.26 -0.146,-0.354c-0.094,-0.093 -0.221,-0.146 -0.354,-0.146c-0.133,0 -0.26,0.053 -0.354,0.146c-0.093,0.094 -0.146,0.221 -0.146,0.354c0,0.555 0,1.445 0,2c0,0.133 0.053,0.26 0.146,0.354c0.094,0.093 0.221,0.146 0.354,0.146c0.133,0 0.26,-0.053 0.354,-0.146c0.093,-0.094 0.146,-0.221 0.146,-0.354c0,-0.555 0,-1.445 0,-2Z" style="fill:#e4cc43;"/>
                <path d="M27.5,6c0.133,0 0.26,-0.053 0.354,-0.146c0.093,-0.094 0.146,-0.221 0.146,-0.354c0,-0.133 -0.053,-0.26 -0.146,-0.354c-0.094,-0.093 -0.221,-0.146 -0.354,-0.146c-0.555,0 -1.445,0 -2,0c-0.133,0 -0.26,0.053 -0.354,0.146c-0.093,0.094 -0.146,0.221 -0.146,0.354c0,0.133 0.053,0.26 0.146,0.354c0.094,0.093 0.221,0.146 0.354,0.146c0.555,0 1.445,0 2,0Z" style="fill:#e4cc43;"/>
            </g>
            <g>
                <path d="M11,26c0,-0.133 -0.053,-0.26 -0.146,-0.354c-0.094,-0.093 -0.221,-0.146 -0.354,-0.146c0,0 -0.001,0 -0.001,0c-0.276,0 -0.499,0.223 -0.499,0.499c0,0.555 0,1.447 0,2.002c0,0.276 0.223,0.499 0.499,0.499c0,0 0.001,0 0.001,0c0.133,0 0.26,-0.053 0.354,-0.146c0.093,-0.094 0.146,-0.221 0.146,-0.354c0,-0.555 0,-1.445 0,-2Z" style="fill:#e4cc43;"/>
                <path d="M11.5,27.5c0.133,0 0.26,-0.053 0.354,-0.146c0.093,-0.094 0.146,-0.221 0.146,-0.354c0,-0.133 -0.053,-0.26 -0.146,-0.354c-0.094,-0.093 -0.221,-0.146 -0.354,-0.146c-0.555,0 -1.445,0 -2,0c-0.133,0 -0.26,0.053 -0.354,0.146c-0.093,0.094 -0.146,0.221 -0.146,0.354c0,0.133 0.053,0.26 0.146,0.354c0.094,0.093 0.221,0.146 0.354,0.146c0.555,0 1.445,0 2,0Z" style="fill:#e4cc43;"/>
            </g>
        </g>
    </g>
</svg>
