<?xml version="1.0" encoding="UTF-8" standalone="no"?>
<!DOCTYPE svg PUBLIC "-//W3C//DTD SVG 1.1//EN" "http://www.w3.org/Graphics/SVG/1.1/DTD/svg11.dtd">
<svg width="100%" height="100%" viewBox="0 0 32 32" version="1.1" xmlns="http://www.w3.org/2000/svg" xmlns:xlink="http://www.w3.org/1999/xlink" xml:space="preserve" xmlns:serif="http://www.serif.com/" style="fill-rule:evenodd;clip-rule:evenodd;stroke-linejoin:round;stroke-miterlimit:2;">
    <rect id="sparkler" x="0" y="0" width="32" height="32" style="fill:none;"/>
    <clipPath id="_clip1">
        <rect x="0" y="0" width="32" height="32"/>
    </clipPath>
    <g clip-path="url(#_clip1)">
        <g id="outline">
            <path d="M32,2c0,-0.53 -0.211,-1.039 -0.586,-1.414c-0.375,-0.375 -0.884,-0.586 -1.414,-0.586l-28,0c-0.53,0 -1.039,0.211 -1.414,0.586c-0.375,0.375 -0.586,0.884 -0.586,1.414l0,28c0,0.53 0.211,1.039 0.586,1.414c0.375,0.375 0.884,0.586 1.414,0.586l28,0c0.53,0 1.039,-0.211 1.414,-0.586c0.375,-0.375 0.586,-0.884 0.586,-1.414l0,-28Z"/>
        </g>
        <g id="emoji">
            <rect x="2" y="2" width="28" height="28" style="fill:#282480;"/>
            <clipPath id="_clip2">
                <rect x="2" y="2" width="28" height="28"/>
            </clipPath>
            <g clip-path="url(#_clip2)">
                <g>
                    <path d="M25.5,1.5c0,-0.133 -0.053,-0.26 -0.146,-0.354c-0.094,-0.093 -0.221,-0.146 -0.354,-0.146c-0.133,0 -0.26,0.053 -0.354,0.146c-0.093,0.094 -0.146,0.221 -0.146,0.354c0,0.555 0,1.445 0,2c0,0.133 0.053,0.26 0.146,0.354c0.094,0.093 0.221,0.146 0.354,0.146c0.133,0 0.26,-0.053 0.354,-0.146c0.093,-0.094 0.146,-0.221 0.146,-0.354c0,-0.555 0,-1.445 0,-2Z" style="fill:#ffeec9;"/>
                    <path d="M26,3c0.133,0 0.26,-0.053 0.354,-0.146c0.093,-0.094 0.146,-0.221 0.146,-0.354c0,-0.133 -0.053,-0.26 -0.146,-0.354c-0.094,-0.093 -0.221,-0.146 -0.354,-0.146c-0.555,0 -1.445,0 -2,0c-0.133,0 -0.26,0.053 -0.354,0.146c-0.093,0.094 -0.146,0.221 -0.146,0.354c0,0.133 0.053,0.26 0.146,0.354c0.094,0.093 0.221,0.146 0.354,0.146c0.555,0 1.445,0 2,0Z" style="fill:#ffeec9;"/>
                </g>
                <g>
                    <path d="M28.5,14.5c0,-0.133 -0.053,-0.26 -0.146,-0.354c-0.094,-0.093 -0.221,-0.146 -0.354,-0.146c-0.133,0 -0.26,0.053 -0.354,0.146c-0.093,0.094 -0.146,0.221 -0.146,0.354c0,0.555 0,1.445 0,2c0,0.133 0.053,0.26 0.146,0.354c0.094,0.093 0.221,0.146 0.354,0.146c0.133,0 0.26,-0.053 0.354,-0.146c0.093,-0.094 0.146,-0.221 0.146,-0.354c0,-0.555 0,-1.445 0,-2Z" style="fill:#ffeec9;"/>
                    <path d="M29,16c0.133,0 0.26,-0.053 0.354,-0.146c0.093,-0.094 0.146,-0.221 0.146,-0.354c0,-0.133 -0.053,-0.26 -0.146,-0.354c-0.094,-0.093 -0.221,-0.146 -0.354,-0.146c-0.555,0 -1.445,0 -2,0c-0.133,0 -0.26,0.053 -0.354,0.146c-0.093,0.094 -0.146,0.221 -0.146,0.354c0,0.133 0.053,0.26 0.146,0.354c0.094,0.093 0.221,0.146 0.354,0.146c0.555,0 1.445,0 2,0Z" style="fill:#ffeec9;"/>
                </g>
                <g>
                    <path d="M12.5,24.5c0,-0.133 -0.053,-0.26 -0.146,-0.354c-0.094,-0.093 -0.221,-0.146 -0.354,-0.146c-0.133,0 -0.26,0.053 -0.354,0.146c-0.093,0.094 -0.146,0.221 -0.146,0.354c0,0.555 0,1.445 0,2c0,0.133 0.053,0.26 0.146,0.354c0.094,0.093 0.221,0.146 0.354,0.146c0.133,0 0.26,-0.053 0.354,-0.146c0.093,-0.094 0.146,-0.221 0.146,-0.354c0,-0.555 0,-1.445 0,-2Z" style="fill:#ffeec9;"/>
                    <path d="M13,26c0.133,0 0.26,-0.053 0.354,-0.146c0.093,-0.094 0.146,-0.221 0.146,-0.354c0,-0.133 -0.053,-0.26 -0.146,-0.354c-0.094,-0.093 -0.221,-0.146 -0.354,-0.146c-0.555,0 -1.445,0 -2,0c-0.133,0 -0.26,0.053 -0.354,0.146c-0.093,0.094 -0.146,0.221 -0.146,0.354c0,0.133 0.053,0.26 0.146,0.354c0.094,0.093 0.221,0.146 0.354,0.146c0.555,0 1.445,0 2,0Z" style="fill:#ffeec9;"/>
                </g>
                <g>
                    <path d="M4.5,2.5c0,-0.133 -0.053,-0.26 -0.146,-0.354c-0.094,-0.093 -0.221,-0.146 -0.354,-0.146c-0.133,0 -0.26,0.053 -0.354,0.146c-0.093,0.094 -0.146,0.221 -0.146,0.354c0,0.555 0,1.446 0,2.001c0,0.276 0.223,0.499 0.499,0.499c0.001,0 0.001,0 0.002,0c0.276,0 0.499,-0.223 0.499,-0.499c0,-0.555 0,-1.446 0,-2.001Z" style="fill:#ffeec9;"/>
                    <path d="M5,4c0.133,0 0.26,-0.053 0.354,-0.146c0.093,-0.094 0.146,-0.221 0.146,-0.354c0,0 0,-0.001 0,-0.001c0,-0.276 -0.223,-0.499 -0.499,-0.499c-0.555,0 -1.447,0 -2.002,0c-0.276,0 -0.499,0.223 -0.499,0.499c0,0 0,0.001 0,0.001c0,0.133 0.053,0.26 0.146,0.354c0.094,0.093 0.221,0.146 0.354,0.146c0.555,0 1.445,0 2,0Z" style="fill:#ffeec9;"/>
                </g>
            </g>
            <rect x="15" y="16" width="2" height="14" style="fill:#8b6d19;"/>
            <g>
                <path d="M27.581,21.701c0.263,0.188 0.419,0.491 0.419,0.814c0,0.517 0,1.315 0,1.867c0,0.379 -0.214,0.725 -0.553,0.894c-0.31,0.155 -0.678,0.139 -0.973,-0.043c-0.295,-0.183 -0.474,-0.504 -0.474,-0.851c0,-0.384 0,-0.758 0,-1.02c0,-0.234 -0.082,-0.46 -0.232,-0.64c-0.984,-1.181 -4.768,-5.722 -4.768,-5.722c0,0 5.072,3.623 6.581,4.701Z" style="fill:#f3aa00;"/>
                <path d="M7.252,8.168c-0.164,-0.11 -0.357,-0.168 -0.555,-0.168c-0.473,0 -1.43,0 -2.358,0c-0.392,0 -0.745,-0.236 -0.895,-0.598c-0.15,-0.362 -0.067,-0.779 0.21,-1.056c0,0 0.001,-0.001 0.001,-0.001c0.214,-0.214 0.525,-0.3 0.819,-0.227c0.845,0.212 2.589,0.648 3.257,0.815c0.176,0.044 0.337,0.135 0.465,0.263c0.924,0.924 4.804,4.804 4.804,4.804c0,0 -4.61,-3.073 -5.748,-3.832Z" style="fill:#f3aa00;"/>
                <path d="M5.285,18.81c-0.185,0.123 -0.323,0.305 -0.393,0.515c-0.114,0.34 -0.298,0.894 -0.47,1.41c-0.098,0.293 -0.049,0.615 0.132,0.866c0.18,0.251 0.47,0.399 0.779,0.399c0.001,0 0.001,0 0.001,0c0.398,0 0.751,-0.254 0.877,-0.632c0.223,-0.671 0.565,-1.695 0.714,-2.144c0.049,-0.147 0.132,-0.281 0.242,-0.391c0.757,-0.757 3.833,-3.833 3.833,-3.833c0,0 -4.522,3.015 -5.715,3.81Z" style="fill:#f3aa00;"/>
                <path d="M7.549,23.914c-0.033,0.057 -0.059,0.117 -0.08,0.18c-0.11,0.33 -0.485,1.455 -0.735,2.204c-0.134,0.403 0.048,0.843 0.428,1.033c0,0 0,0 0.001,0c0.286,0.144 0.626,0.128 0.899,-0.04c0.272,-0.168 0.438,-0.466 0.438,-0.786c0,-0.527 0,-1.055 0,-1.324c0,-0.12 0.022,-0.239 0.064,-0.351c0.433,-1.156 2.936,-7.83 2.936,-7.83c0,0 -3.494,6.114 -3.951,6.914Z" style="fill:#f3aa00;"/>
                <path d="M25.8,16.9c0.132,0.066 0.247,0.16 0.338,0.276c0.274,0.347 0.903,1.147 1.451,1.843c0.223,0.283 0.569,0.442 0.93,0.427c0.36,-0.014 0.692,-0.202 0.891,-0.503c0,0 0.001,-0.001 0.001,-0.002c0.327,-0.494 0.197,-1.158 -0.292,-1.493c-0.638,-0.435 -1.456,-0.995 -1.864,-1.274c-0.166,-0.113 -0.363,-0.174 -0.564,-0.174c-0.766,0 -2.691,0 -2.691,0c0,0 1.293,0.647 1.8,0.9Z" style="fill:#f3aa00;"/>
                <path d="M15,16c0,0 -1.778,2.668 -2.964,4.445c-0.204,0.307 -0.223,0.702 -0.049,1.027c0.174,0.325 0.513,0.528 0.882,0.528c0.097,0 0.193,0 0.284,0c0.489,0 0.906,-0.353 0.986,-0.836c0.275,-1.649 0.861,-5.164 0.861,-5.164Z" style="fill:#f3aa00;"/>
                <path d="M19,19c0,0 0.557,2.783 0.839,4.196c0.094,0.468 0.504,0.804 0.981,0.804c0.032,0 0.066,0 0.099,0c0.385,0 0.735,-0.22 0.902,-0.567c0.166,-0.346 0.119,-0.758 -0.121,-1.058c-1.168,-1.459 -2.7,-3.375 -2.7,-3.375Z" style="fill:#f3aa00;"/>
                <path d="M21,10c0,0 1.621,-2.161 2.48,-3.306c0.298,-0.398 0.259,-0.955 -0.093,-1.307c-0.004,-0.004 -0.009,-0.009 -0.013,-0.013c-0.265,-0.265 -0.656,-0.359 -1.012,-0.245c-0.357,0.114 -0.62,0.418 -0.681,0.788c-0.293,1.755 -0.681,4.083 -0.681,4.083Z" style="fill:#f3aa00;"/>
                <path d="M21.5,11l4.5,-4l1.113,0c0.321,0 0.623,-0.155 0.811,-0.415c0.188,-0.261 0.239,-0.596 0.137,-0.901c-0.001,-0.003 -0.002,-0.006 -0.002,-0.008c-0.114,-0.342 -0.403,-0.596 -0.757,-0.666c-0.353,-0.069 -0.717,0.057 -0.951,0.331c-1.743,2.032 -4.851,5.659 -4.851,5.659Z" style="fill:#f3aa00;"/>
                <path d="M9,14l-5.198,0c-0.213,0 -0.417,0.084 -0.567,0.235c-0.151,0.15 -0.235,0.354 -0.235,0.567c0,0.001 0,0.001 0,0.002c0,0.277 0.133,0.537 0.358,0.699c0.225,0.162 0.514,0.206 0.777,0.119c1.739,-0.58 4.865,-1.622 4.865,-1.622Z" style="fill:#f3aa00;"/>
                <path d="M13.5,8c0,0 -2.1,-2.8 -2.786,-3.715c-0.135,-0.179 -0.346,-0.285 -0.571,-0.285c0,0 -0.001,0 -0.002,0c-0.438,0 -0.822,0.295 -0.934,0.719c-0.113,0.424 0.074,0.87 0.455,1.088c1.855,1.06 3.838,2.193 3.838,2.193Z" style="fill:#f3aa00;"/>
                <path d="M25.823,11.576c0.117,-0.05 0.223,-0.122 0.313,-0.212c0.196,-0.196 0.573,-0.573 0.937,-0.937c0.215,-0.215 0.52,-0.313 0.819,-0.264c0.3,0.048 0.559,0.238 0.694,0.51c0.001,0 0.001,0.001 0.001,0.001c0.228,0.456 0.043,1.011 -0.413,1.239c-0.418,0.209 -0.879,0.439 -1.076,0.538c-0.065,0.033 -0.134,0.058 -0.205,0.076c-0.947,0.236 -7.893,1.973 -7.893,1.973c0,0 5.735,-2.458 6.823,-2.924Z" style="fill:#f3aa00;"/>
                <path d="M16,11l0,-7.216c0,-0.208 0.083,-0.407 0.23,-0.554c0.147,-0.147 0.346,-0.23 0.554,-0.23c0.02,0 0.04,0 0.06,0c0.361,0 0.687,0.218 0.825,0.551c0.138,0.334 0.062,0.718 -0.193,0.973c-0.001,0.001 -0.002,0.002 -0.002,0.002c-0.308,0.308 -0.512,0.705 -0.584,1.135c-0.26,1.559 -0.89,5.339 -0.89,5.339Z" style="fill:#f3aa00;"/>
            </g>
            <path d="M12,7l4,2l4,-2l0,4l4,0l-3,3l2,4l-5,0l-2,4l-2,-4l-5,0l2,-4l-3,-3l4,0l0,-4Z" style="fill:#fdbe37;"/>
            <path d="M14,10l2,1l2,-1l0,2l3,0l-2,2l1,2l-3,0l-1,2l-1,-2l-3,0l1,-2l-2,-2l3,0l0,-2Z" style="fill:#ffeec9;"/>
        </g>
    </g>
</svg>
