<?xml version="1.0" encoding="UTF-8" standalone="no"?>
<!DOCTYPE svg PUBLIC "-//W3C//DTD SVG 1.1//EN" "http://www.w3.org/Graphics/SVG/1.1/DTD/svg11.dtd">
<svg width="100%" height="100%" viewBox="0 0 32 32" version="1.1" xmlns="http://www.w3.org/2000/svg" xmlns:xlink="http://www.w3.org/1999/xlink" xml:space="preserve" xmlns:serif="http://www.serif.com/" style="fill-rule:evenodd;clip-rule:evenodd;stroke-linejoin:round;stroke-miterlimit:2;">
    <rect id="labrys_symbol" x="0" y="0" width="32" height="32" style="fill:none;"/>
    <clipPath id="_clip1">
        <rect x="0" y="0" width="32" height="32"/>
    </clipPath>
    <g clip-path="url(#_clip1)">
        <g id="outline">
            <path d="M32,8c0,-4.418 -3.582,-8 -8,-8l-16,0c-4.418,0 -8,3.582 -8,8l0,16c0,4.418 3.582,8 8,8l16,0c4.418,0 8,-3.582 8,-8l0,-16Z"/>
        </g>
        <g id="emoji">
            <path d="M30,8c0,-1.591 -0.632,-3.117 -1.757,-4.243c-1.126,-1.125 -2.652,-1.757 -4.243,-1.757l-16,0c-1.591,0 -3.117,0.632 -4.243,1.757c-1.125,1.126 -1.757,2.652 -1.757,4.243l0,16c0,1.591 0.632,3.117 1.757,4.243c1.126,1.125 2.652,1.757 4.243,1.757l16,0c1.591,0 3.117,-0.632 4.243,-1.757c1.125,-1.126 1.757,-2.652 1.757,-4.243l0,-16Z" style="fill:#666;"/>
            <path d="M18,9.538c0,-0.265 -0.105,-0.519 -0.293,-0.707c-0.187,-0.187 -0.442,-0.293 -0.707,-0.293c-0.611,0 -1.389,0 -2,0c-0.265,0 -0.52,0.106 -0.707,0.293c-0.188,0.188 -0.293,0.442 -0.293,0.707c0,3.213 0,13.249 0,16.462c0,0.265 0.105,0.52 0.293,0.707c0.187,0.188 0.442,0.293 0.707,0.293c0.611,0 1.389,0 2,0c0.265,0 0.52,-0.105 0.707,-0.293c0.188,-0.187 0.293,-0.442 0.293,-0.707c0,-3.213 0,-13.249 0,-16.462Z" style="fill:#fff;"/>
            <path d="M7.45,7c0,0 -2.45,2.16 -2.45,6.5c0,4.34 2.45,6.5 2.45,6.5c0,0 1.615,-4 3.544,-4l2.006,0l0,-5l-2.006,0c-1.926,0 -3.544,-4 -3.544,-4Z" style="fill:#fff;"/>
            <path d="M24.55,7c0,0 2.45,2.16 2.45,6.5c0,4.34 -2.45,6.5 -2.45,6.5c0,0 -1.615,-4 -3.544,-4l-2.006,0l0,-5l2.006,0c1.926,0 3.544,-4 3.544,-4Z" style="fill:#fff;"/>
        </g>
    </g>
</svg>
