<?xml version="1.0" encoding="UTF-8" standalone="no"?><!DOCTYPE svg PUBLIC "-//W3C//DTD SVG 1.1//EN" "http://www.w3.org/Graphics/SVG/1.1/DTD/svg11.dtd"><svg width="100%" height="100%" viewBox="0 0 32 32" version="1.1" xmlns="http://www.w3.org/2000/svg" xmlns:xlink="http://www.w3.org/1999/xlink" xml:space="preserve" xmlns:serif="http://www.serif.com/" style="fill-rule:evenodd;clip-rule:evenodd;stroke-linejoin:round;stroke-miterlimit:1.41421;"><rect id="lambda" x="0" y="0" width="32" height="32" style="fill:none;"/><clipPath id="_clip1"><rect x="0" y="0" width="32" height="32"/></clipPath><g clip-path="url(#_clip1)"><g id="outline"><path d="M24.099,0.001c0.297,0.005 0.593,0.023 0.887,0.06c0.616,0.076 1.222,0.225 1.803,0.441c1.167,0.434 2.227,1.143 3.074,2.055c0.757,0.815 1.339,1.787 1.701,2.838c0.278,0.807 0.42,1.652 0.435,2.506c0.034,5.399 0.034,10.799 0,16.198c-0.016,0.886 -0.168,1.764 -0.467,2.599c-0.398,1.109 -1.042,2.125 -1.875,2.959c-0.856,0.856 -1.907,1.512 -3.052,1.907c-0.807,0.278 -1.652,0.42 -2.506,0.435c-5.399,0.035 -10.799,0.035 -16.198,0c-0.854,-0.015 -1.699,-0.157 -2.506,-0.435c-1.145,-0.395 -2.196,-1.051 -3.052,-1.907c-0.833,-0.834 -1.477,-1.85 -1.875,-2.959c-0.299,-0.835 -0.451,-1.713 -0.467,-2.599c-0.034,-5.399 -0.034,-10.799 0,-16.198c0.015,-0.854 0.157,-1.699 0.435,-2.506c0.362,-1.051 0.944,-2.023 1.701,-2.838c0.847,-0.912 1.907,-1.621 3.074,-2.055c0.581,-0.216 1.187,-0.365 1.803,-0.441c0.294,-0.037 0.59,-0.055 0.887,-0.06c5.399,-0.032 10.799,-0.032 16.198,0Z" style="fill-rule:nonzero;"/></g><g id="emoji"><path d="M30,8c0,-1.591 -0.632,-3.117 -1.757,-4.243c-1.126,-1.125 -2.652,-1.757 -4.243,-1.757c-4.724,0 -11.276,0 -16,0c-1.591,0 -3.117,0.632 -4.243,1.757c-1.125,1.126 -1.757,2.652 -1.757,4.243c0,4.724 0,11.276 0,16c0,1.591 0.632,3.117 1.757,4.243c1.126,1.125 2.652,1.757 4.243,1.757c4.724,0 11.276,0 16,0c1.591,0 3.117,-0.632 4.243,-1.757c1.125,-1.126 1.757,-2.652 1.757,-4.243c0,-4.724 0,-11.276 0,-16Z" style="fill:#f229a2;"/><path d="M14.034,12.577c-0.38,-1.125 -0.779,-2.244 -1.209,-3.352c-0.053,-0.125 -0.127,-0.238 -0.225,-0.333c-0.265,-0.258 -0.663,-0.346 -1.012,-0.223c-0.144,0.051 -0.267,0.135 -0.376,0.24l-1.151,1.152l-2.122,-2.122l1.169,-1.168c0.151,-0.146 0.308,-0.283 0.478,-0.406c0.443,-0.319 0.951,-0.545 1.484,-0.661c0.247,-0.054 0.496,-0.08 0.748,-0.09c0.127,-0.001 0.126,-0.001 0.253,0.002c0.127,0.007 0.254,0.016 0.38,0.033c0.255,0.035 0.506,0.094 0.75,0.177c0.797,0.272 1.497,0.799 1.979,1.489c0.196,0.28 0.347,0.582 0.471,0.899c1.579,4.496 2.801,9.118 4.524,13.561c0.053,0.125 0.127,0.238 0.225,0.333c0.265,0.258 0.663,0.346 1.012,0.223c0.144,-0.051 0.267,-0.135 0.376,-0.24l1.151,-1.152l2.122,2.122l-1.169,1.168c-0.12,0.116 -0.244,0.228 -0.376,0.33c-0.3,0.231 -0.633,0.419 -0.987,0.557c-0.507,0.197 -1.055,0.289 -1.599,0.268c-0.639,-0.025 -1.269,-0.206 -1.823,-0.523c-0.327,-0.187 -0.627,-0.421 -0.889,-0.692c-0.262,-0.272 -0.486,-0.581 -0.661,-0.916c-0.079,-0.152 -0.146,-0.308 -0.208,-0.468c-0.712,-2.028 -1.352,-4.082 -1.997,-6.134l-4.425,8.849l-3.354,0l6.461,-12.923Z" style="fill:#fff;"/></g></g></svg>