<?xml version="1.0" encoding="UTF-8" standalone="no"?><!DOCTYPE svg PUBLIC "-//W3C//DTD SVG 1.1//EN" "http://www.w3.org/Graphics/SVG/1.1/DTD/svg11.dtd"><svg width="100%" height="100%" viewBox="0 0 32 32" version="1.1" xmlns="http://www.w3.org/2000/svg" xmlns:xlink="http://www.w3.org/1999/xlink" xml:space="preserve" xmlns:serif="http://www.serif.com/" style="fill-rule:evenodd;clip-rule:evenodd;stroke-linejoin:round;stroke-miterlimit:1.41421;"><rect id="transgender_symbol" x="0" y="0" width="32" height="32" style="fill:none;"/><clipPath id="_clip1"><rect x="0" y="0" width="32" height="32"/></clipPath><g clip-path="url(#_clip1)"><g id="outline"><path d="M24.099,0.001c0.297,0.005 0.593,0.023 0.887,0.06c0.616,0.076 1.222,0.225 1.803,0.441c1.167,0.434 2.227,1.143 3.074,2.055c0.757,0.815 1.339,1.787 1.701,2.838c0.278,0.807 0.42,1.652 0.435,2.506c0.034,5.399 0.034,10.799 0,16.198c-0.016,0.886 -0.168,1.764 -0.467,2.599c-0.398,1.109 -1.042,2.125 -1.875,2.959c-0.856,0.856 -1.907,1.512 -3.052,1.907c-0.807,0.278 -1.652,0.42 -2.506,0.435c-5.399,0.035 -10.799,0.035 -16.198,0c-0.854,-0.015 -1.699,-0.157 -2.506,-0.435c-1.302,-0.449 -2.48,-1.236 -3.391,-2.268c-0.671,-0.759 -1.194,-1.645 -1.536,-2.598c-0.198,-0.554 -0.335,-1.129 -0.407,-1.712c-0.037,-0.294 -0.055,-0.59 -0.06,-0.886c-0.034,-5.4 -0.034,-10.8 0,-16.199c0.016,-0.854 0.157,-1.699 0.435,-2.506c0.362,-1.051 0.944,-2.023 1.7,-2.837c0.848,-0.913 1.908,-1.622 3.075,-2.056c0.581,-0.216 1.187,-0.365 1.803,-0.441c0.294,-0.037 0.59,-0.055 0.887,-0.06c5.399,-0.032 10.799,-0.032 16.198,0Z" style="fill-rule:nonzero;"/></g><g id="emoji"><path d="M30,8c0,-1.591 -0.632,-3.117 -1.757,-4.243c-1.126,-1.125 -2.652,-1.757 -4.243,-1.757c-4.724,0 -11.276,0 -16,0c-1.591,0 -3.117,0.632 -4.243,1.757c-1.125,1.126 -1.757,2.652 -1.757,4.243c0,4.724 0,11.276 0,16c0,1.591 0.632,3.117 1.757,4.243c1.126,1.125 2.652,1.757 4.243,1.757c4.724,0 11.276,0 16,0c1.591,0 3.117,-0.632 4.243,-1.757c1.125,-1.126 1.757,-2.652 1.757,-4.243c0,-4.724 0,-11.276 0,-16Z" style="fill:#e082a9;"/><clipPath id="_clip2"><path d="M30,8c0,-1.591 -0.632,-3.117 -1.757,-4.243c-1.126,-1.125 -2.652,-1.757 -4.243,-1.757c-4.724,0 -11.276,0 -16,0c-1.591,0 -3.117,0.632 -4.243,1.757c-1.125,1.126 -1.757,2.652 -1.757,4.243c0,4.724 0,11.276 0,16c0,1.591 0.632,3.117 1.757,4.243c1.126,1.125 2.652,1.757 4.243,1.757c4.724,0 11.276,0 16,0c1.591,0 3.117,-0.632 4.243,-1.757c1.125,-1.126 1.757,-2.652 1.757,-4.243c0,-4.724 0,-11.276 0,-16Z"/></clipPath><g clip-path="url(#_clip2)"><rect x="0" y="0" width="32" height="16" style="fill:#24bee5;"/></g><path d="M11,8l-2.586,0l1.586,1.586l2,-2c0.471,0.471 0.943,0.943 1.414,1.414l-2,2l0.556,0.556c0.391,-0.354 0.828,-0.658 1.298,-0.899c0.548,-0.28 1.138,-0.475 1.745,-0.576c0.276,-0.046 0.554,-0.07 0.833,-0.079c0.077,-0.002 0.154,-0.002 0.231,-0.002c0.255,0.005 0.508,0.023 0.761,0.058c0.611,0.086 1.208,0.267 1.763,0.535c0.52,0.25 1.002,0.576 1.429,0.963l3.556,-3.556l-2.586,0l0,-2l6,0l0,6l-2,0l0,-2.586l-3.725,3.726c0.069,0.128 0.134,0.258 0.194,0.391c0.539,1.191 0.671,2.55 0.377,3.823c-0.121,0.525 -0.314,1.033 -0.571,1.506c-0.299,0.549 -0.683,1.051 -1.136,1.483c-0.524,0.499 -1.137,0.903 -1.804,1.185c-0.428,0.181 -0.877,0.311 -1.335,0.388l0,1.995l2,0l0,2l-2,0l0,2l-2,0l0,-2l-2,0l0,-2l2,0l0,-1.995c-0.386,-0.065 -0.765,-0.167 -1.131,-0.306c-0.656,-0.25 -1.265,-0.615 -1.795,-1.074c-0.472,-0.409 -0.88,-0.891 -1.204,-1.425c-0.292,-0.479 -0.515,-0.999 -0.662,-1.541c-0.348,-1.286 -0.255,-2.678 0.264,-3.905c0.076,-0.179 0.161,-0.355 0.253,-0.525l-0.725,-0.726l-2,2l-1.414,-1.414l2,-2l-1.586,-1.586l0,2.586l-2,0l0,-6l6,0l0,2Zm4.948,4c-0.582,0.011 -1.155,0.141 -1.681,0.394c-0.492,0.238 -0.933,0.576 -1.291,0.989c-0.253,0.292 -0.464,0.62 -0.623,0.972c-0.359,0.794 -0.447,1.7 -0.251,2.549c0.081,0.349 0.209,0.686 0.381,1.001c0.199,0.367 0.456,0.702 0.758,0.99c0.349,0.333 0.759,0.603 1.203,0.791c0.475,0.201 0.988,0.307 1.504,0.314c0.502,0.006 1.003,-0.081 1.472,-0.26c0.437,-0.166 0.843,-0.41 1.196,-0.716c0.316,-0.273 0.588,-0.595 0.805,-0.952c0.194,-0.318 0.343,-0.665 0.44,-1.025c0.233,-0.857 0.171,-1.785 -0.175,-2.603c-0.151,-0.356 -0.354,-0.689 -0.6,-0.987c-0.347,-0.421 -0.781,-0.771 -1.267,-1.02c-0.517,-0.265 -1.084,-0.408 -1.664,-0.434c-0.069,-0.002 -0.138,-0.003 -0.207,-0.003Z" style="fill:#fff;"/></g></g></svg>