<?xml version="1.0" encoding="UTF-8" standalone="no"?><!DOCTYPE svg PUBLIC "-//W3C//DTD SVG 1.1//EN" "http://www.w3.org/Graphics/SVG/1.1/DTD/svg11.dtd"><svg width="100%" height="100%" viewBox="0 0 32 32" version="1.1" xmlns="http://www.w3.org/2000/svg" xmlns:xlink="http://www.w3.org/1999/xlink" xml:space="preserve" xmlns:serif="http://www.serif.com/" style="fill-rule:evenodd;clip-rule:evenodd;stroke-linejoin:round;stroke-miterlimit:1.41421;"><rect id="transgender_mercury_symbol" x="0" y="0" width="32" height="32" style="fill:none;"/><clipPath id="_clip1"><rect x="0" y="0" width="32" height="32"/></clipPath><g clip-path="url(#_clip1)"><g id="outline"><path d="M24.099,0.001c0.264,0.005 0.527,0.019 0.79,0.048c0.648,0.073 1.288,0.225 1.9,0.453c1.105,0.411 2.115,1.068 2.938,1.912c0.822,0.843 1.453,1.867 1.837,2.981c0.278,0.807 0.42,1.652 0.435,2.506c0.035,5.399 0.035,10.799 0,16.199c-0.016,0.885 -0.168,1.762 -0.467,2.597c-0.42,1.172 -1.115,2.24 -2.017,3.099c-0.829,0.789 -1.827,1.395 -2.91,1.768c-0.807,0.278 -1.652,0.42 -2.506,0.435c-5.399,0.035 -10.799,0.035 -16.198,0c-0.853,-0.015 -1.699,-0.157 -2.506,-0.435c-0.989,-0.34 -1.907,-0.876 -2.691,-1.568c-1.007,-0.89 -1.782,-2.033 -2.236,-3.299c-0.299,-0.835 -0.451,-1.712 -0.467,-2.598c-0.034,-5.399 -0.034,-10.799 0,-16.198c0.015,-0.854 0.157,-1.699 0.435,-2.506c0.384,-1.114 1.015,-2.138 1.837,-2.981c0.823,-0.844 1.833,-1.501 2.938,-1.912c0.612,-0.228 1.252,-0.38 1.9,-0.453c0.263,-0.029 0.526,-0.043 0.79,-0.048c5.399,-0.032 10.799,-0.032 16.198,0Z" style="fill-rule:nonzero;"/></g><g id="emoji"><path d="M30,8c0,-1.591 -0.632,-3.117 -1.757,-4.243c-1.126,-1.125 -2.652,-1.757 -4.243,-1.757c-4.724,0 -11.276,0 -16,0c-1.591,0 -3.117,0.632 -4.243,1.757c-1.125,1.126 -1.757,2.652 -1.757,4.243c0,4.724 0,11.276 0,16c0,1.591 0.632,3.117 1.757,4.243c1.126,1.125 2.652,1.757 4.243,1.757c4.724,0 11.276,0 16,0c1.591,0 3.117,-0.632 4.243,-1.757c1.125,-1.126 1.757,-2.652 1.757,-4.243c0,-4.724 0,-11.276 0,-16Z" style="fill:#e082a9;"/><clipPath id="_clip2"><path d="M30,8c0,-1.591 -0.632,-3.117 -1.757,-4.243c-1.126,-1.125 -2.652,-1.757 -4.243,-1.757c-4.724,0 -11.276,0 -16,0c-1.591,0 -3.117,0.632 -4.243,1.757c-1.125,1.126 -1.757,2.652 -1.757,4.243c0,4.724 0,11.276 0,16c0,1.591 0.632,3.117 1.757,4.243c1.126,1.125 2.652,1.757 4.243,1.757c4.724,0 11.276,0 16,0c1.591,0 3.117,-0.632 4.243,-1.757c1.125,-1.126 1.757,-2.652 1.757,-4.243c0,-4.724 0,-11.276 0,-16Z"/></clipPath><g clip-path="url(#_clip2)"><rect x="-0.25" y="0" width="32.25" height="16" style="fill:#28bee5;"/></g><path d="M12.684,10c-0.213,-0.141 -0.417,-0.296 -0.61,-0.464c-0.472,-0.409 -0.88,-0.891 -1.204,-1.425c-0.292,-0.479 -0.515,-0.999 -0.662,-1.541c-0.139,-0.512 -0.207,-1.041 -0.207,-1.57l1.999,0c0,0.303 0.034,0.607 0.102,0.904c0.081,0.349 0.209,0.686 0.381,1.001c0.199,0.367 0.456,0.702 0.758,0.99c0.349,0.333 0.759,0.603 1.203,0.791c0.475,0.201 0.988,0.307 1.504,0.314c0.502,0.006 1.003,-0.081 1.472,-0.26c0.437,-0.166 0.843,-0.41 1.197,-0.716c0.315,-0.273 0.587,-0.595 0.804,-0.952c0.194,-0.318 0.343,-0.665 0.44,-1.025c0.093,-0.341 0.139,-0.694 0.139,-1.047l1.999,0c0.001,0.454 -0.05,0.909 -0.153,1.354c-0.121,0.525 -0.314,1.033 -0.571,1.506c-0.299,0.549 -0.683,1.051 -1.136,1.483c-0.255,0.242 -0.53,0.462 -0.823,0.657c0.452,0.301 0.864,0.663 1.22,1.074c0.379,0.437 0.695,0.929 0.933,1.457c0.539,1.191 0.671,2.55 0.377,3.823c-0.121,0.525 -0.314,1.033 -0.571,1.506c-0.299,0.549 -0.683,1.051 -1.136,1.483c-0.524,0.499 -1.137,0.903 -1.804,1.185c-0.428,0.181 -0.877,0.311 -1.335,0.388l0,1.995l2,0l0,2l-2,0l0,2l-2,0l0,-2l-2,0l0,-2l2,0l0,-1.995c-0.386,-0.065 -0.765,-0.167 -1.131,-0.306c-0.656,-0.25 -1.265,-0.615 -1.795,-1.074c-0.472,-0.409 -0.88,-0.891 -1.204,-1.425c-0.292,-0.479 -0.515,-0.999 -0.662,-1.541c-0.348,-1.286 -0.255,-2.678 0.264,-3.905c0.226,-0.534 0.53,-1.034 0.899,-1.481c0.377,-0.457 0.821,-0.857 1.313,-1.184Zm3.264,1c-0.582,0.011 -1.155,0.141 -1.681,0.394c-0.492,0.238 -0.934,0.577 -1.291,0.989c-0.253,0.292 -0.464,0.621 -0.623,0.972c-0.359,0.794 -0.447,1.7 -0.251,2.549c0.081,0.349 0.209,0.686 0.381,1.001c0.199,0.367 0.456,0.702 0.758,0.99c0.349,0.333 0.759,0.603 1.203,0.791c0.475,0.201 0.988,0.307 1.504,0.314c0.502,0.006 1.003,-0.081 1.472,-0.26c0.437,-0.166 0.843,-0.41 1.197,-0.716c0.315,-0.273 0.587,-0.595 0.804,-0.952c0.194,-0.318 0.343,-0.665 0.44,-1.025c0.233,-0.857 0.171,-1.785 -0.175,-2.603c-0.151,-0.356 -0.354,-0.689 -0.6,-0.987c-0.347,-0.421 -0.781,-0.771 -1.267,-1.02c-0.517,-0.265 -1.084,-0.408 -1.664,-0.434c-0.069,-0.002 -0.138,-0.003 -0.207,-0.003Z" style="fill:#fff;"/></g></g></svg>