<?xml version="1.0" encoding="UTF-8" standalone="no"?><!DOCTYPE svg PUBLIC "-//W3C//DTD SVG 1.1//EN" "http://www.w3.org/Graphics/SVG/1.1/DTD/svg11.dtd"><svg width="100%" height="100%" viewBox="0 0 32 32" version="1.1" xmlns="http://www.w3.org/2000/svg" xmlns:xlink="http://www.w3.org/1999/xlink" xml:space="preserve" xmlns:serif="http://www.serif.com/" style="fill-rule:evenodd;clip-rule:evenodd;stroke-linejoin:round;stroke-miterlimit:1.5;"><rect id="airplane_arrival" x="0" y="0" width="32" height="32" style="fill:none;"/><clipPath id="_clip1"><rect x="0" y="0" width="32" height="32"/></clipPath><g clip-path="url(#_clip1)"><g id="outline"><rect x="5" y="27" width="22" height="3" style="fill:none;stroke:#000;stroke-width:4px;"/><path d="M4.084,6.361l0.623,-4.361c0,0 0.375,0.055 0.768,0.113c0.555,0.081 1.031,0.436 1.265,0.945l2.287,4.951l2.941,0.98l-0.029,-4.343l1.061,0.354l3.447,5.482l7.758,2.586c2.407,0.803 4.338,2.624 5.281,4.98c0,0 0,0 0,0.001c0.128,0.32 0.109,0.681 -0.052,0.986c-0.161,0.305 -0.448,0.524 -0.785,0.598c-0.193,0.043 -0.389,0.087 -0.576,0.129c-0.702,0.156 -1.433,0.118 -2.116,-0.11c-2.893,-0.964 -11.168,-3.722 -16.692,-5.564c-3.301,-1.1 -5.86,-3.738 -6.86,-7.071c0,0 0,-0.001 0,-0.001c-0.079,-0.262 -0.005,-0.545 0.191,-0.735c0.196,-0.19 0.481,-0.255 0.74,-0.169l0.748,0.249Z" style="fill:none;stroke:#000;stroke-width:4px;stroke-linecap:round;"/></g><g id="emoji"><g><path d="M4,6.95l0.707,-4.95c0,0 0.375,0.055 0.768,0.113c0.555,0.081 1.031,0.436 1.265,0.945c0.806,1.744 2.624,5.68 2.624,5.68l-5.364,-1.788Z" style="fill:#c2c2c2;"/><path d="M4.457,10.819l1.996,-0.416l22.158,7.155l0.769,1.569c-0.167,0.257 -0.429,0.439 -0.731,0.506c-0.193,0.043 -0.389,0.087 -0.576,0.129c-0.702,0.156 -1.433,0.118 -2.116,-0.11c-2.893,-0.964 -11.168,-3.722 -16.692,-5.564c-1.901,-0.633 -3.555,-1.777 -4.808,-3.269Z" style="fill:#ccc;"/><path d="M4.457,10.819c-0.923,-1.099 -1.628,-2.388 -2.052,-3.802c0,0 0,-0.001 0,-0.001c-0.079,-0.262 -0.005,-0.545 0.191,-0.735c0.196,-0.19 0.481,-0.255 0.74,-0.169c3.831,1.277 14.957,4.986 20.869,6.956c1.462,0.488 2.75,1.352 3.746,2.483l1.508,2.431c0.009,0.022 0.018,0.044 0.027,0.066c0,0 0,0 0,0.001c0.128,0.32 0.109,0.681 -0.052,0.986c-0.017,0.031 -0.035,0.062 -0.054,0.092l-24.923,-8.308Z" style="fill:#f3f3f3;"/><path d="M29.459,17.982l-2.603,-1.301c-0.382,-0.191 -0.536,-0.655 -0.345,-1.036c0,0 0,-0.001 0,-0.001c0.086,-0.172 0.237,-0.304 0.42,-0.365c0.183,-0.061 0.383,-0.046 0.555,0.04l0.465,0.232c0.628,0.713 1.14,1.533 1.508,2.431Z" style="fill:#404040;"/><path d="M20.425,16.808l-7.425,-11.808l-1.061,-0.354l0.061,9.354l8.425,2.808Z" style="fill:#aeaeae;"/></g><rect x="5" y="27" width="22" height="3" style="fill:#4d4d4d;"/></g></g></svg>