<?xml version="1.0" encoding="UTF-8" standalone="no"?><!DOCTYPE svg PUBLIC "-//W3C//DTD SVG 1.1//EN" "http://www.w3.org/Graphics/SVG/1.1/DTD/svg11.dtd"><svg width="100%" height="100%" viewBox="0 0 32 32" version="1.1" xmlns="http://www.w3.org/2000/svg" xmlns:xlink="http://www.w3.org/1999/xlink" xml:space="preserve" xmlns:serif="http://www.serif.com/" style="fill-rule:evenodd;clip-rule:evenodd;stroke-linecap:round;stroke-linejoin:round;stroke-miterlimit:1.5;"><rect id="airplane" x="0" y="0" width="32" height="32" style="fill:none;"/><g id="outline"><path d="M19.626,8.374l3.572,-3.573c1.175,-1.174 2.671,-1.975 4.3,-2.301c0.149,-0.029 0.298,-0.059 0.445,-0.089c0.459,-0.091 0.933,0.052 1.265,0.383c0.331,0.331 0.475,0.805 0.384,1.264c-0.031,0.157 -0.062,0.317 -0.094,0.476c-0.325,1.639 -1.13,3.144 -2.313,4.324l-3.514,3.504l0.351,2.202l0.433,-0.433l1.414,1.414l-1.459,1.459l0.435,2.737l0.61,-0.61l1.414,1.414l-1.636,1.636l0.767,4.819l-1,1l-6.41,-10.572l-5.797,5.781l-0.543,5.791l-1,1l-1.928,-4.284l-3.41,1.462c-0.044,0.018 -0.089,0.033 -0.134,0.044l-1.278,1.278c-0.276,0.276 -0.724,0.276 -1,0c0,0 0,0 0,0c-0.276,-0.276 -0.276,-0.724 0,-1l1.273,-1.273c0.011,-0.048 0.027,-0.096 0.047,-0.142l1.46,-3.409l-4.28,-1.926l1,-1l5.79,-0.543l5.763,-5.762l-10.553,-5.9l1,-1l4.48,0.56l1.975,-1.974l1.414,1.414l-0.875,0.875l2.82,0.352l1.641,-1.641l1.414,1.414l-0.541,0.541l2.298,0.288Z" style="fill:none;stroke:#000;stroke-width:4px;"/></g><g id="emoji"><path d="M17.869,7.545l-3.414,3.415l-1.415,-1.415l3.415,-3.414l1.414,1.414Z" style="fill:#737373;fill-rule:nonzero;"/><path d="M25.869,15.545l-3.414,3.415l-1.415,-1.415l3.415,-3.414l1.414,1.414Z" style="fill:#737373;fill-rule:nonzero;"/><path d="M12.869,6.545l-3.414,3.415l-1.415,-1.415l3.415,-3.414l1.414,1.414Z" style="fill:#737373;fill-rule:nonzero;"/><path d="M26.869,20.545l-3.414,3.415l-1.415,-1.415l3.415,-3.414l1.414,1.414Z" style="fill:#737373;fill-rule:nonzero;"/><path d="M23.455,11l2.545,16l-1,1l-7,-11.545l5.455,-5.455Z" style="fill:#b3b3b3;"/><path d="M13,21l-0.75,8l-1,1l-2.25,-5l4,-4Z" style="fill:#b3b3b3;"/><path d="M11,19l-8,0.75l-1,1l5,2.25l4,-4Z" style="fill:#b3b3b3;"/><path d="M21,8.545l-16,-2l-1,1l11.545,6.455l5.455,-5.455Z" style="fill:#b3b3b3;"/><path d="M10.017,25.418c0.649,-0.278 1.24,-0.677 1.74,-1.176c2.652,-2.644 11.562,-11.529 15.428,-15.384c1.183,-1.18 1.988,-2.685 2.313,-4.324c0.032,-0.159 0.063,-0.319 0.094,-0.476c0.091,-0.459 -0.053,-0.933 -0.384,-1.264c-0.332,-0.331 -0.806,-0.474 -1.265,-0.383c-0.147,0.03 -0.296,0.06 -0.445,0.089c-1.629,0.326 -3.125,1.127 -4.3,2.301c-3.857,3.857 -12.782,12.781 -15.439,15.437c-0.501,0.501 -0.903,1.094 -1.182,1.746c-0.455,1.061 -1.189,2.774 -1.757,4.101c-0.135,0.313 -0.065,0.676 0.176,0.916c0.241,0.241 0.603,0.311 0.916,0.177c1.329,-0.57 3.044,-1.305 4.105,-1.76Z" style="fill:#f3f3f3;"/><path d="M8.5,23.5c-0.276,-0.276 -0.724,-0.276 -1,0c-0.958,0.958 -3.042,3.042 -4,4c-0.276,0.276 -0.276,0.724 0,1c0,0 0,0 0,0c0.276,0.276 0.724,0.276 1,0c0.958,-0.958 3.042,-3.042 4,-4c0.276,-0.276 0.276,-0.724 0,-1c0,0 0,0 0,0Z" style="fill:#b3b3b3;"/><path d="M25.5,3.5c0,0 0.786,0 1.554,0c0.383,0 0.751,0.152 1.022,0.424c0.272,0.271 0.424,0.639 0.424,1.022c0,0.768 0,1.554 0,1.554c0,0 -0.071,0 -0.176,0c-0.455,0 -0.824,-0.369 -0.824,-0.824c0,-0.001 0,-0.001 0,-0.002c0,-0.648 -0.526,-1.174 -1.174,-1.174c-0.001,0 -0.001,0 -0.002,0c-0.455,0 -0.824,-0.369 -0.824,-0.824c0,-0.105 0,-0.176 0,-0.176Z" style="fill:#3d3d3d;"/></g></svg>