<?xml version="1.0" encoding="UTF-8" standalone="no"?><!DOCTYPE svg PUBLIC "-//W3C//DTD SVG 1.1//EN" "http://www.w3.org/Graphics/SVG/1.1/DTD/svg11.dtd"><svg width="100%" height="100%" viewBox="0 0 32 32" version="1.1" xmlns="http://www.w3.org/2000/svg" xmlns:xlink="http://www.w3.org/1999/xlink" xml:space="preserve" xmlns:serif="http://www.serif.com/" style="fill-rule:evenodd;clip-rule:evenodd;stroke-linecap:round;stroke-linejoin:round;stroke-miterlimit:1.5;"><rect id="adult" x="0" y="0" width="32" height="32" style="fill:none;"/><clipPath id="_clip1"><rect x="0" y="0" width="32" height="32"/></clipPath><g clip-path="url(#_clip1)"><g id="outline"><path d="M22.09,22.001l0.09,0.001l0.089,0.003l0.09,0.004l0.089,0.005l0.088,0.006l0.089,0.008l0.088,0.008l0.088,0.01l0.088,0.01l0.087,0.012l0.088,0.013l0.086,0.013l0.087,0.015l0.086,0.016l0.086,0.017l0.085,0.018l0.085,0.019l0.085,0.02l0.084,0.021l0.084,0.023l0.083,0.023l0.083,0.024l0.083,0.025l0.082,0.026l0.082,0.027l0.081,0.028l0.081,0.029l0.08,0.03l0.086,0.033l0.152,0.063l0.157,0.068l0.154,0.072l0.152,0.076l0.15,0.079l0.148,0.082l0.145,0.087l0.143,0.089l0.141,0.093l0.139,0.095l0.135,0.1l0.134,0.102l0.131,0.105l0.128,0.108l0.125,0.112l0.123,0.114l0.12,0.117l0.117,0.12l0.114,0.123l0.112,0.125l0.108,0.128l0.105,0.131l0.102,0.134l0.1,0.135l0.095,0.139l0.093,0.141l0.089,0.143l0.086,0.145l0.083,0.148l0.079,0.15l0.076,0.152l0.072,0.154l0.068,0.157l0.063,0.152l0.033,0.086l0.03,0.08l0.029,0.081l0.028,0.081l0.027,0.082l0.026,0.082l0.025,0.083l0.024,0.083l0.023,0.083l0.023,0.084l0.021,0.084l0.02,0.085l0.019,0.085l0.018,0.085l0.017,0.086l0.016,0.086l0.015,0.087l0.013,0.086l0.013,0.088l0.012,0.087l0.01,0.088l0.01,0.088l0.008,0.088l0.008,0.089l0.006,0.088l0.005,0.089l0.004,0.09l0.003,0.089l0.001,0.09l0.001,0.084l0,3.006l-26,0l0,-3.006l0.001,-0.084l0.001,-0.09l0.003,-0.089l0.004,-0.09l0.005,-0.089l0.006,-0.088l0.008,-0.089l0.008,-0.088l0.01,-0.088l0.01,-0.088l0.012,-0.087l0.013,-0.088l0.013,-0.086l0.015,-0.087l0.016,-0.086l0.017,-0.086l0.018,-0.085l0.019,-0.085l0.02,-0.085l0.021,-0.084l0.023,-0.084l0.023,-0.083l0.024,-0.083l0.025,-0.083l0.026,-0.082l0.027,-0.082l0.028,-0.081l0.029,-0.081l0.03,-0.08l0.033,-0.086l0.063,-0.152l0.068,-0.157l0.072,-0.154l0.076,-0.152l0.079,-0.15l0.082,-0.148l0.087,-0.145l0.089,-0.143l0.093,-0.141l0.095,-0.139l0.1,-0.135l0.102,-0.134l0.105,-0.131l0.108,-0.128l0.112,-0.125l0.114,-0.123l0.117,-0.12l0.12,-0.117l0.123,-0.114l0.125,-0.112l0.128,-0.108l0.131,-0.105l0.134,-0.102l0.135,-0.1l0.139,-0.095l0.141,-0.093l0.143,-0.089l0.145,-0.087l0.148,-0.082l0.15,-0.079l0.152,-0.076l0.154,-0.072l0.157,-0.068l0.152,-0.063l0.086,-0.033l0.08,-0.03l0.081,-0.029l0.081,-0.028l0.082,-0.027l0.082,-0.026l0.083,-0.025l0.083,-0.024l0.083,-0.023l0.084,-0.023l0.084,-0.021l0.085,-0.02l0.085,-0.019l0.085,-0.018l0.086,-0.017l0.086,-0.016l0.087,-0.015l0.086,-0.013l0.088,-0.013l0.087,-0.012l0.088,-0.01l0.088,-0.01l0.088,-0.008l0.089,-0.008l0.088,-0.006l0.089,-0.005l0.09,-0.004l0.089,-0.003l0.09,-0.001l0.084,-0.001l12.012,0l0.084,0.001Zm-12.084,3.999l-0.045,0l-0.039,0.001l-0.039,0.001l-0.039,0.002l-0.039,0.002l-0.038,0.003l-0.038,0.003l-0.038,0.004l-0.038,0.004l-0.038,0.004l-0.037,0.005l-0.037,0.006l-0.037,0.006l-0.037,0.006l-0.037,0.007l-0.037,0.007l-0.036,0.008l-0.036,0.008l-0.036,0.008l-0.036,0.009l-0.036,0.01l-0.035,0.01l-0.036,0.01l-0.035,0.011l-0.035,0.011l-0.034,0.011l-0.035,0.012l-0.035,0.013l-0.034,0.012l-0.028,0.011l-0.073,0.03l-0.067,0.029l-0.065,0.031l-0.065,0.032l-0.065,0.034l-0.063,0.035l-0.062,0.037l-0.061,0.039l-0.061,0.039l-0.059,0.042l-0.059,0.042l-0.057,0.044l-0.056,0.045l-0.056,0.047l-0.054,0.048l-0.053,0.049l-0.051,0.051l-0.051,0.051l-0.049,0.053l-0.048,0.054l-0.047,0.056l-0.045,0.056l-0.044,0.057l-0.043,0.059l-0.041,0.059l-0.039,0.061l-0.039,0.061l-0.037,0.062l-0.035,0.063l-0.034,0.065l-0.032,0.065l-0.031,0.065l-0.029,0.067l-0.03,0.073l-0.011,0.028l-0.012,0.034l-0.012,0.032l17.66,0l-0.012,-0.032l-0.012,-0.034l-0.011,-0.028l-0.03,-0.073l-0.029,-0.067l-0.031,-0.066l-0.032,-0.064l-0.034,-0.065l-0.035,-0.063l-0.037,-0.062l-0.039,-0.061l-0.039,-0.061l-0.041,-0.059l-0.043,-0.059l-0.044,-0.057l-0.045,-0.056l-0.047,-0.056l-0.048,-0.054l-0.049,-0.053l-0.051,-0.051l-0.052,-0.051l-0.052,-0.049l-0.054,-0.048l-0.056,-0.047l-0.056,-0.045l-0.057,-0.044l-0.059,-0.042l-0.059,-0.042l-0.061,-0.039l-0.061,-0.039l-0.062,-0.037l-0.063,-0.035l-0.065,-0.034l-0.065,-0.032l-0.065,-0.031l-0.067,-0.029l-0.073,-0.03l-0.028,-0.011l-0.034,-0.012l-0.035,-0.013l-0.035,-0.012l-0.034,-0.011l-0.035,-0.011l-0.035,-0.011l-0.036,-0.01l-0.035,-0.01l-0.036,-0.01l-0.036,-0.009l-0.036,-0.008l-0.036,-0.008l-0.036,-0.008l-0.037,-0.007l-0.037,-0.007l-0.037,-0.006l-0.037,-0.006l-0.037,-0.006l-0.037,-0.005l-0.038,-0.004l-0.038,-0.004l-0.038,-0.004l-0.038,-0.003l-0.038,-0.003l-0.039,-0.002l-0.039,-0.002l-0.039,-0.001l-0.039,-0.001l-0.045,0l-11.988,0Z"/><path d="M25,11c0,-2.387 -0.948,-4.676 -2.636,-6.364c-1.688,-1.688 -3.977,-2.636 -6.364,-2.636c0,0 0,0 0,0c-2.387,0 -4.676,0.948 -6.364,2.636c-1.688,1.688 -2.636,3.977 -2.636,6.364c0,0.665 0,1.335 0,2c0,2.387 0.948,4.676 2.636,6.364c1.688,1.688 3.977,2.636 6.364,2.636c0,0 0,0 0,0c2.387,0 4.676,-0.948 6.364,-2.636c1.688,-1.688 2.636,-3.977 2.636,-6.364c0,-0.665 0,-1.335 0,-2Z" style="fill:none;stroke:#000;stroke-width:4px;"/></g><g id="emoji"><path d="M27,29c0,-2.761 -2.239,-5 -5,-5c-3.59,0 -8.41,0 -12,0c-2.761,0 -5,2.239 -5,5c0,0.597 0,1 0,1l22,0c0,0 0,-0.403 0,-1Z" style="fill:#4a905e;"/><clipPath id="_clip2"><path d="M27,29c0,-2.761 -2.239,-5 -5,-5c-3.59,0 -8.41,0 -12,0c-2.761,0 -5,2.239 -5,5c0,0.597 0,1 0,1l22,0c0,0 0,-0.403 0,-1Z"/></clipPath><g clip-path="url(#_clip2)"><circle cx="16" cy="20" r="7" style="fill:#f10dc3;"/></g><path d="M25,11c0,-2.387 -0.948,-4.676 -2.636,-6.364c-1.688,-1.688 -3.977,-2.636 -6.364,-2.636c0,0 0,0 0,0c-2.387,0 -4.676,0.948 -6.364,2.636c-1.688,1.688 -2.636,3.977 -2.636,6.364c0,0.665 0,1.335 0,2c0,2.387 0.948,4.676 2.636,6.364c1.688,1.688 3.977,2.636 6.364,2.636c0,0 0,0 0,0c2.387,0 4.676,-0.948 6.364,-2.636c1.688,-1.688 2.636,-3.977 2.636,-6.364c0,-0.665 0,-1.335 0,-2Z" style="fill:#f10dc3;"/><path d="M22,10.5c0,-0.398 -0.158,-0.779 -0.439,-1.061c-0.282,-0.281 -0.663,-0.439 -1.061,-0.439c-0.398,0 -0.779,0.158 -1.061,0.439c-0.281,0.282 -0.439,0.663 -0.439,1.061c0,0.633 0,1.367 0,2c0,0.398 0.158,0.779 0.439,1.061c0.282,0.281 0.663,0.439 1.061,0.439c0.398,0 0.779,-0.158 1.061,-0.439c0.281,-0.282 0.439,-0.663 0.439,-1.061c0,-0.633 0,-1.367 0,-2Z"/><path d="M13,10.5c0,-0.398 -0.158,-0.779 -0.439,-1.061c-0.282,-0.281 -0.663,-0.439 -1.061,-0.439c-0.398,0 -0.779,0.158 -1.061,0.439c-0.281,0.282 -0.439,0.663 -0.439,1.061c0,0.633 0,1.367 0,2c0,0.398 0.158,0.779 0.439,1.061c0.282,0.281 0.663,0.439 1.061,0.439c0.398,0 0.779,-0.158 1.061,-0.439c0.281,-0.282 0.439,-0.663 0.439,-1.061c0,-0.633 0,-1.367 0,-2Z"/></g></g></svg>