<?xml version="1.0" encoding="UTF-8" standalone="no"?>
<!DOCTYPE svg PUBLIC "-//W3C//DTD SVG 1.1//EN" "http://www.w3.org/Graphics/SVG/1.1/DTD/svg11.dtd">
<svg width="100%" height="100%" viewBox="0 0 32 32" version="1.1" xmlns="http://www.w3.org/2000/svg" xmlns:xlink="http://www.w3.org/1999/xlink" xml:space="preserve" xmlns:serif="http://www.serif.com/" style="fill-rule:evenodd;clip-rule:evenodd;stroke-linejoin:round;stroke-miterlimit:2;">
    <rect id="_1f32e_taco" serif:id="1f32e_taco" x="-0" y="0" width="32" height="32" style="fill:none;"/>
    <clipPath id="_clip1">
        <rect x="-0" y="0" width="32" height="32"/>
    </clipPath>
    <g clip-path="url(#_clip1)">
        <path d="M6.422,28.788c-0.335,0.21 -0.762,0.228 -1.316,0.095c-2.204,-0.528 -3.679,-4.869 -2.95,-10.787c0.721,-5.864 2.751,-9.692 7.353,-12.537c3.171,-1.961 8.249,-1.702 10.186,-0.783c0.973,0.375 1.773,0.795 2.431,1.253c0.743,-0.038 1.524,0.014 2.34,0.182c1.227,0.253 2.233,0.688 3.203,1.474c0.096,0.075 0.188,0.153 0.276,0.234c0.009,0.008 0.017,0.016 0.026,0.024c2.036,1.886 2.174,5.195 1.765,6.102c-0.26,0.576 -23.314,14.743 -23.314,14.743Z" style="fill:none;stroke:#000;stroke-width:4px;"/>
        <path d="M21.809,6.794c0.108,0.35 -14.556,20.581 -14.683,20.948c-0.381,1.104 -0.972,1.392 -2.02,1.141c-2.204,-0.528 -3.679,-4.869 -2.95,-10.787c0.721,-5.864 2.751,-9.692 7.353,-12.537c3.171,-1.961 8.249,-1.702 10.186,-0.783c1.831,0.868 2.005,1.661 2.114,2.018Z" style="fill:#fcc927;"/>
        <path d="M25.193,14.913c-0.056,-4.011 0.434,-8.061 -5.962,-10.308c-2.348,-0.825 -6.267,-0.287 -9.147,1.485c-4.463,2.746 -6.309,7.64 -6.822,12.509c-0.743,7.056 1.2,8.911 1.895,8.911c0.844,0 1.288,-0.056 1.869,-0.411c4.026,-2.466 18.167,-12.186 18.167,-12.186Z" style="fill:#d3a02c;"/>
        <path d="M5.237,21.721c-0.581,-0.27 -1.081,-0.726 -1.399,-1.337c-0.764,-1.469 -0.191,-3.282 1.278,-4.046c0.587,-0.305 1.679,-0.92 2.03,-1.196c1.302,-1.024 3.189,-0.798 4.212,0.504c0.97,1.233 0.818,2.993 -0.308,4.044c0.706,0.264 1.314,0.792 1.661,1.526c0.709,1.496 0.07,3.286 -1.427,3.995c-0.77,0.365 -2.297,1.128 -2.88,1.608c-1.28,1.05 -3.172,0.864 -4.223,-0.415c-1.05,-1.28 -0.864,-3.172 0.415,-4.223c0.168,-0.137 0.387,-0.294 0.641,-0.46Z" style="fill:#8b4a25;"/>
        <g id="dark-greens" serif:id="dark greens">
            <path d="M8.427,15.596c-0.202,0.06 -0.425,0.126 -0.652,0.2c-0.296,0.097 -0.617,0.193 -0.822,0.362c-0.639,0.526 -1.585,0.435 -2.111,-0.205c-0.526,-0.639 -0.435,-1.585 0.205,-2.111c0.29,-0.239 0.686,-0.44 1.099,-0.609c-0.346,-0.24 -0.59,-0.623 -0.638,-1.075c-0.087,-0.823 0.511,-1.562 1.334,-1.65c0.341,-0.036 0.71,-0.017 1.078,0.033c-0.221,-0.229 -0.371,-0.529 -0.41,-0.869c-0.095,-0.822 0.496,-1.567 1.318,-1.662c0.683,-0.079 1.403,-0.111 2.049,-0.088c0.6,-0.582 1.373,-1.049 2.194,-1.378c0.008,-0.025 0.016,-0.049 0.026,-0.074c0.292,-0.775 1.159,-1.166 1.933,-0.873c0.278,0.105 0.586,0.248 0.86,0.394c0.018,-0.02 0.037,-0.04 0.057,-0.059c0.493,-0.487 0.95,-0.701 1.688,-0.887c0.802,-0.201 1.618,0.287 1.82,1.09c0.199,0.793 -0.275,1.598 -1.06,1.812c0.247,0.623 0.052,1.358 -0.516,1.769c-0.03,0.021 -0.078,0.059 -0.11,0.085c-0.394,0.624 -1.199,0.878 -1.89,0.565c-0.529,-0.241 -0.851,-0.752 -0.877,-1.296c-0.227,0.042 -0.456,0.1 -0.68,0.176c0.273,0.178 0.491,0.447 0.601,0.781c0.262,0.786 -0.164,1.635 -0.95,1.896c-0.564,0.188 -1.209,0.468 -1.755,0.824c-0.016,0.01 -0.032,0.021 -0.048,0.031c0.828,0 1.5,0.673 1.5,1.501c0,0.827 -0.672,1.5 -1.5,1.5c-0.437,-0 -1.051,0.207 -1.617,0.266c-0.793,0.083 -1.523,-0.046 -2.077,-0.415c-0.016,-0.011 -0.033,-0.023 -0.049,-0.034Zm1.173,-4.648c0.015,0.005 0.029,0.01 0.044,0.014c0.006,-0.006 0.013,-0.012 0.02,-0.019c-0.021,0.002 -0.042,0.003 -0.064,0.005Z" style="fill:#628b18;"/>
        </g>
        <g id="light-greens" serif:id="light greens">
            <path d="M12.829,10.342c-0.74,-0.371 -1.041,-1.272 -0.671,-2.013c0.371,-0.74 1.272,-1.041 2.013,-0.671l1,0.5c0.74,0.371 1.041,1.272 0.671,2.013c-0.371,0.74 -1.272,1.041 -2.013,0.671l-1,-0.5Zm-4.328,3.104c0.03,-0.827 0.726,-1.475 1.553,-1.445c0.827,0.03 1.475,0.726 1.445,1.553c-0.035,0.959 -0.162,2.326 -0.595,3.475c-0.292,0.775 -1.158,1.167 -1.933,0.875c-0.775,-0.292 -1.167,-1.158 -0.875,-1.933c0.315,-0.833 0.38,-1.83 0.405,-2.525Zm10.487,-4.07c-0.759,0.33 -1.644,-0.019 -1.973,-0.779c-0.33,-0.759 0.019,-1.643 0.778,-1.973c0.241,-0.105 0.326,-0.291 0.521,-0.543c0.507,-0.654 1.45,-0.774 2.105,-0.267c0.654,0.507 0.774,1.45 0.267,2.105c-0.581,0.75 -0.982,1.146 -1.698,1.457Z" style="fill:#7fb31f;"/>
        </g>
        <g id="cheese">
            <path d="M9.331,9.375c-0.207,0.182 -0.523,0.163 -0.706,-0.044c-0.182,-0.207 -0.163,-0.523 0.044,-0.706c1.283,-1.133 2.577,-1.7 3.86,-1.624c0.276,0.016 0.486,0.253 0.47,0.528c-0.016,0.276 -0.253,0.486 -0.528,0.47c-1.051,-0.062 -2.09,0.448 -3.14,1.376Zm-0.104,3.044c-0.231,-0.15 -0.297,-0.46 -0.146,-0.692c0.15,-0.231 0.46,-0.297 0.692,-0.146c0.869,0.565 1.908,0.917 3.228,0.919c0.276,0 0.499,0.225 0.499,0.501c-0,0.276 -0.225,0.499 -0.501,0.499c-1.543,-0.003 -2.755,-0.42 -3.772,-1.081Zm4.252,-1.919c-0.275,-0.012 -0.49,-0.245 -0.479,-0.521c0.012,-0.275 0.245,-0.49 0.521,-0.479c1.254,0.052 2.318,-0.182 3.339,-0.48c0.265,-0.077 0.542,0.075 0.62,0.34c0.077,0.265 -0.075,0.542 -0.34,0.62c-1.118,0.327 -2.286,0.577 -3.661,0.52Zm2.662,-5.348c0.193,-0.198 0.509,-0.203 0.707,-0.011c0.198,0.193 0.203,0.509 0.011,0.707c-0.598,0.616 -0.799,0.971 -0.874,1.272c-0.066,0.268 -0.337,0.432 -0.605,0.365c-0.268,-0.066 -0.432,-0.337 -0.365,-0.605c0.099,-0.403 0.327,-0.905 1.126,-1.728Zm1.673,2.312c-0.256,-0.102 -0.381,-0.393 -0.278,-0.65c0.102,-0.256 0.393,-0.381 0.65,-0.278l2.5,1c0.256,0.102 0.381,0.393 0.278,0.65c-0.102,0.256 -0.393,0.381 -0.65,0.278l-2.5,-1Z" style="fill:#ffe297;"/>
        </g>
        <path d="M27.945,7.919c0.413,0.366 0.444,1.061 0.078,1.474c-0.366,0.413 -13.237,11.487 -15.173,13.778c-0.778,0.922 -5.644,5.062 -5.644,5.062l-0.695,0.474l-1.354,-1.197c0.551,0 1.023,-0.193 1.892,-3.812c0.517,-2.154 2.715,-10.137 8.237,-14.669c2.086,-1.711 5.215,-3.635 9.18,-2.818c1.344,0.277 2.422,0.772 3.479,1.708Z" style="fill:#fcc927;"/>
        <path d="M6.422,28.788c1.263,-0.933 1.435,-2.827 2.259,-5.472c1.364,-4.379 3.219,-9.273 7.751,-13.31c2.417,-2.154 4.811,-3.239 7.378,-3.39c5.953,-0.35 6.524,6.104 5.926,7.429c-0.26,0.576 -23.314,14.743 -23.314,14.743Z" style="fill:#d3a02c;"/>
        <g id="shell-texture" serif:id="shell texture">
            <path d="M25.138,15.918c-0.296,0.349 -0.819,0.393 -1.169,0.097c-0.349,-0.295 -0.392,-0.819 -0.097,-1.168l0.967,-1.143c0.296,-0.35 0.82,-0.393 1.169,-0.098c0.349,0.296 0.393,0.819 0.097,1.169l-0.967,1.143Zm-0.956,-5.746c-0.414,-0.194 -0.593,-0.688 -0.398,-1.103c0.194,-0.414 0.688,-0.592 1.103,-0.398l1.211,0.568c0.415,0.195 0.593,0.689 0.399,1.103c-0.194,0.414 -0.689,0.593 -1.103,0.399l-1.212,-0.569Zm-6.621,9.823c-0.079,0.451 -0.509,0.753 -0.96,0.673c-0.451,-0.079 -0.752,-0.509 -0.673,-0.96l0.138,-0.788c0.08,-0.451 0.51,-0.753 0.96,-0.674c0.451,0.08 0.753,0.51 0.674,0.961l-0.139,0.788Zm-5.657,2.401c-0.412,0.199 -0.909,0.026 -1.108,-0.386c-0.199,-0.412 -0.025,-0.908 0.387,-1.107l1.037,-0.501c0.412,-0.199 0.908,-0.026 1.107,0.386c0.199,0.412 0.026,0.909 -0.386,1.107l-1.037,0.501Zm3.34,-6.553c-0.458,0 -0.829,-0.371 -0.829,-0.829c-0,-0.457 0.371,-0.829 0.829,-0.829l1.575,0c0.458,0 0.829,0.372 0.829,0.829c0,0.458 -0.371,0.829 -0.829,0.829l-1.575,0Zm4.718,-3.581c0.022,-0.457 0.41,-0.811 0.867,-0.79c0.457,0.022 0.811,0.41 0.79,0.867l-0.095,2.053c-0.022,0.457 -0.41,0.811 -0.867,0.789c-0.457,-0.021 -0.811,-0.409 -0.79,-0.866l0.095,-2.053Z" style="fill:#be8c20;"/>
        </g>
    </g>
</svg>
