<?xml version="1.0" encoding="UTF-8" standalone="no"?>
<!DOCTYPE svg PUBLIC "-//W3C//DTD SVG 1.1//EN" "http://www.w3.org/Graphics/SVG/1.1/DTD/svg11.dtd">
<svg width="100%" height="100%" viewBox="0 0 32 32" version="1.1" xmlns="http://www.w3.org/2000/svg" xmlns:xlink="http://www.w3.org/1999/xlink" xml:space="preserve" xmlns:serif="http://www.serif.com/" style="fill-rule:evenodd;clip-rule:evenodd;stroke-linecap:round;stroke-linejoin:round;stroke-miterlimit:1.5;">
    <rect id="_1f36e_custard" serif:id="1f36e_custard" x="0" y="0" width="32" height="32" style="fill:none;"/>
    <path d="M2.166,20.503c-0.109,-0.327 -0.166,-0.662 -0.166,-1.003c0,-1.994 1.937,-3.779 4.985,-4.972c0.355,-1.67 0.738,-3.418 1.015,-4.528c0.753,-3.02 4.059,-4 7.998,-4l0.002,0c3.938,0 7.244,0.98 7.998,4c0.269,1.078 0.644,2.82 0.996,4.52c3.06,1.193 5.006,2.982 5.006,4.98c0,0.341 -0.057,0.676 -0.166,1.003c-0.101,0.301 -0.246,0.596 -0.433,0.882l-0.656,1.338l-0.013,0c-1.219,2.746 -6.46,4.813 -12.732,4.813c-6.272,-0 -11.513,-2.067 -12.732,-4.813l-0.649,-1.308c-0.197,-0.296 -0.349,-0.6 -0.453,-0.912Z" style="fill:none;stroke:#000;stroke-width:4px;"/>
    <path d="M3.177,20.503c1.025,-2.858 6.38,-5.039 12.823,-5.039c6.443,0 11.798,2.181 12.823,5.039l1.011,-0l-1.089,2.22l-0.013,0c-1.219,2.746 -6.46,4.813 -12.732,4.813c-6.272,-0 -11.513,-2.067 -12.732,-4.813l-1.102,-2.22l1.011,-0Z" style="fill:#c6c6c6;"/>
    <path d="M26.116,15.008c2.406,1.168 3.884,2.75 3.884,4.492c0,3.587 -6.273,6.5 -14,6.5c-7.727,0 -14,-2.913 -14,-6.5c0,-1.736 1.468,-3.313 3.859,-4.479c-0.442,2.097 20.542,1.372 20.257,-0.013Z" style="fill:#eaeaea;"/>
    <path d="M26.116,15.008c0.285,1.385 0.542,2.674 0.7,3.473l0,0.001c0.123,0.315 0.184,0.637 0.184,0.964c0,0.926 -0.501,1.841 -1.511,2.61c-1.781,1.356 -5.356,2.339 -9.489,2.339c-4.133,-0 -7.708,-0.983 -9.489,-2.339c-1.01,-0.769 -1.511,-1.684 -1.511,-2.61c-0,-0.18 0.019,-0.359 0.054,-0.528c0,0 0.363,-1.8 0.805,-3.897c2.551,-1.245 6.152,-2.021 10.141,-2.021c3.976,0 7.567,0.771 10.116,2.008Z" style="fill:#adadad;"/>
    <ellipse cx="16" cy="20.051" rx="12.5" ry="5.551" style="fill:#c36d23;"/>
    <path d="M24.403,11.746c0.524,2.372 1.169,5.6 1.451,7.026c0.096,0.219 0.146,0.444 0.146,0.674c-0,2.18 -4.481,3.949 -10,3.949c-5.519,-0 -10,-1.769 -10,-3.949c-0,-0.111 0.012,-0.221 0.035,-0.33c-0,-0 0.873,-4.338 1.557,-7.376c0.121,0.127 16.691,0.131 16.811,0.006Z" style="fill:#fdd799;"/>
    <path d="M23.546,8.866c0.196,0.341 0.348,0.718 0.452,1.134c0.118,0.474 0.256,1.076 0.405,1.746c-0.12,0.125 -0.249,0.247 -0.389,0.366c-1.508,1.292 -4.514,2.296 -8.014,2.296c-3.5,-0 -6.506,-1.004 -8.014,-2.296c-0.142,-0.121 -0.273,-0.245 -0.394,-0.372c0.149,-0.661 0.288,-1.26 0.408,-1.74c0.104,-0.418 0.257,-0.797 0.454,-1.139c-0.008,0.063 15.1,0.066 15.092,0.005Z" style="fill:#ee963e;"/>
    <path d="M23.546,8.866c0.008,0.061 0.012,0.123 0.012,0.185c-0,1.853 -3.387,3.357 -7.558,3.357c-4.171,-0 -7.558,-1.504 -7.558,-3.357c0,-0.064 0.004,-0.127 0.012,-0.19c1.226,-2.133 4.15,-2.861 7.544,-2.861l0.002,0c3.396,0 6.322,0.729 7.546,2.866Z" style="fill:#b54c07;"/>
    <ellipse cx="16" cy="9.725" rx="4.523" ry="2.009" style="fill:#7c3405;"/>
</svg>
