<?xml version="1.0" encoding="UTF-8" standalone="no"?>
<!DOCTYPE svg PUBLIC "-//W3C//DTD SVG 1.1//EN" "http://www.w3.org/Graphics/SVG/1.1/DTD/svg11.dtd">
<svg width="100%" height="100%" viewBox="0 0 32 32" version="1.1" xmlns="http://www.w3.org/2000/svg" xmlns:xlink="http://www.w3.org/1999/xlink" xml:space="preserve" xmlns:serif="http://www.serif.com/" style="fill-rule:evenodd;clip-rule:evenodd;stroke-linejoin:round;stroke-miterlimit:2;">
    <rect id="_1f372_stew" serif:id="1f372_stew" x="-0" y="0" width="32" height="32" style="fill:none;"/>
    <clipPath id="_clip1">
        <rect x="-0" y="0" width="32" height="32"/>
    </clipPath>
    <g clip-path="url(#_clip1)">
        <path d="M2,14.229c-0.003,-0.076 -0.005,-0.152 -0.005,-0.228c0,-2.035 1.148,-3.907 3.067,-5.382l-0.768,-0.964c-0.417,-0.522 -0.576,-1.232 -0.201,-1.911c0.397,-0.722 1.237,-1.194 2.046,-1.44l3.435,-1.044c1.031,-0.314 2.125,-0.328 3.095,-0.125c0.916,0.193 1.798,0.596 2.331,1.264l0.782,0.981c0.072,-0.001 0.143,-0.001 0.216,-0.001c7.728,0 14.002,3.863 14.002,8.622l-0,5.999c-0,5 -4.838,10 -14,10c-9.162,0 -14,-6 -14,-10l-0,-5.771Z" style="fill:none;stroke:#000;stroke-width:4px;"/>
        <path d="M30,14.001l-0,5.999c-0,5 -4.838,10 -14,10c-9.162,0 -14,-6 -14,-10l-0,-5.999l28,-0Z" style="fill:#8b8b8b;"/>
        <path d="M6.599,6.164l2.975,-0.904c1.031,-0.314 2.125,-0.328 3.095,-0.125c0.916,0.193 1.798,0.596 2.331,1.264l12.124,15.21l0.994,-0.108l0,1.915c0,0.025 0,0.051 0,0.076c-0.006,0.25 -0.072,0.506 -0.211,0.759c-0.397,0.722 -1.237,1.193 -2.046,1.439l-3.435,1.045c-1.031,0.313 -2.125,0.328 -3.095,0.124c-0.916,-0.192 -1.798,-0.595 -2.331,-1.264l-0.776,-0.973l0,-2l0.211,-0.003l6.847,-4.781c-0,0 -2.148,-4.41 -3.282,-3.842c-1.134,0.569 -7.237,4.283 -7.237,4.283l-0.122,1.848l-8.347,-10.472c-0.263,-0.329 -0.423,-0.731 -0.412,-1.154l-0,-2.005l2.729,-0.389l-0.012,0.057Z" style="fill:#a8a8a8;"/>
        <ellipse cx="15.998" cy="14.001" rx="14.002" ry="8.622" style="fill:#8b8b8b;"/>
        <path d="M16,10.073c6.623,0 12,3.102 12,6.923c-0,1.394 -5.377,4.347 -12,4.347c-6.623,0 -12,-2.706 -12,-4.347c-0,-3.821 5.377,-6.923 12,-6.923Z" style="fill:#744d26;"/>
        <path d="M15.99,13.432c-1.226,-0.179 -2.608,-0.539 -2.639,-1.288c-0.032,-0.766 1.603,-2.531 3.553,-2.472c1.559,0.048 3.301,1.482 3.281,2.233c-0.024,0.872 -2.662,1.751 -4.195,1.527Z" style="fill:#a66b32;"/>
        <path d="M20.7,14.412c-0.275,0.01 -0.532,-0.135 -0.665,-0.374c-0.134,-0.24 -0.123,-0.535 0.03,-0.763l0.951,-1.427c0.197,-0.294 0.576,-0.406 0.901,-0.265l2.134,0.928c0.196,0.085 0.34,0.259 0.389,0.467c0.048,0.209 -0.005,0.428 -0.143,0.591l-0.502,0.591c-0.079,0.092 -0.192,0.147 -0.313,0.152l-2.782,0.1Zm-0.402,3.624c0.654,0.117 2.105,0.702 3.385,1.445c1.279,0.743 -0.537,1.733 -1.032,1.816c-0.496,0.082 -2.6,-2.147 -2.889,-2.518c-0.289,-0.372 0.235,-0.797 0.536,-0.743Z" style="fill:#d87200;"/>
        <path d="M17.216,17.221c-0.173,0.001 -0.335,-0.08 -0.44,-0.216c-0.104,-0.137 -0.139,-0.315 -0.094,-0.481c0.287,-0.593 0.905,-1.411 2.499,-1.608c1.429,-0.178 2.418,0.711 2.974,1.436c0.121,0.155 0.143,0.365 0.057,0.541c-0.086,0.177 -0.265,0.289 -0.462,0.289c-1.258,0.039 -3.454,0.039 -4.534,0.039Zm-1.714,0.555c2.071,-0.31 3.657,0.672 2.483,1.962c-1.174,1.291 -2.844,1.446 -3.883,0.465c-1.039,-0.981 -0.304,-2.171 1.4,-2.427Z" style="fill:#73a002;"/>
        <path d="M27.201,17.491c0.115,2.092 -1.012,3.579 -2.187,2.289c-1.175,-1.29 -1.172,-2.968 -0.098,-3.91c1.074,-0.942 2.19,-0.099 2.285,1.621Z" style="fill:#c3ab4a;"/>
        <path d="M8.219,14.08c-0.414,-0.002 -0.749,-0.339 -0.747,-0.753c0.001,-0.414 0.339,-0.749 0.752,-0.747c2.454,0.009 4.677,0.529 6.65,1.595c0.364,0.196 0.5,0.652 0.304,1.016c-0.197,0.364 -0.652,0.5 -1.017,0.304c-1.762,-0.952 -3.75,-1.407 -5.942,-1.415Zm-1.905,2.197c-0.414,0.019 -0.765,-0.302 -0.784,-0.715c-0.019,-0.414 0.301,-0.765 0.715,-0.784c-0,0 3.596,-0.166 7.068,1.156c0.387,0.148 0.581,0.581 0.434,0.968c-0.147,0.387 -0.581,0.582 -0.968,0.434c-3.176,-1.21 -6.465,-1.059 -6.465,-1.059Zm-0.342,2.791c-0.403,0.092 -0.806,-0.16 -0.898,-0.563c-0.093,-0.404 0.159,-0.807 0.563,-0.899c-0,-0 2.53,-0.594 6.511,0.111c0.408,0.072 0.68,0.462 0.608,0.869c-0.072,0.408 -0.462,0.68 -0.87,0.608c-3.616,-0.64 -5.914,-0.126 -5.914,-0.126Z" style="fill:#b28d50;"/>
        <path d="M16.224,22.622c-0.075,0 -0.151,0.001 -0.226,0.001c-7.729,-0 -14.003,-3.864 -14.003,-8.622c0,-2.035 1.148,-3.907 3.067,-5.382l-0.768,-0.964c-0.417,-0.522 -0.576,-1.232 -0.201,-1.911c0.397,-0.722 1.237,-1.194 2.046,-1.44l3.435,-1.044c1.031,-0.314 2.125,-0.328 3.095,-0.125c0.916,0.193 1.798,0.596 2.331,1.264l0.782,0.981c0.072,-0.001 0.143,-0.001 0.216,-0.001c7.728,0 14.002,3.863 14.002,8.622c0,2.033 -1.145,3.902 -3.06,5.377l0.766,0.961c0.417,0.523 0.576,1.232 0.201,1.912c-0.397,0.722 -1.237,1.193 -2.046,1.439l-3.435,1.045c-1.031,0.313 -2.125,0.328 -3.095,0.124c-0.916,-0.192 -1.798,-0.595 -2.331,-1.264l-0.776,-0.973Zm-9.916,-12.44c-0.111,0.085 -0.219,0.172 -0.323,0.26c-1.203,1.009 -1.99,2.212 -1.99,3.559c0,1.346 0.787,2.55 1.99,3.559c1.993,1.674 5.084,2.783 8.609,3.017c0.461,0.03 0.929,0.046 1.404,0.046c3.914,-0 7.424,-1.066 9.696,-2.809c0.108,-0.083 0.214,-0.168 0.317,-0.254c1.202,-1.009 1.989,-2.213 1.989,-3.559c-0,-1.347 -0.787,-2.55 -1.989,-3.559c-1.992,-1.673 -5.078,-2.78 -8.598,-3.016c-0.465,-0.031 -0.937,-0.047 -1.415,-0.047c-3.911,0 -7.418,1.063 -9.69,2.803Z" style="fill:#e5e3df;"/>
    </g>
</svg>
