<?xml version="1.0" encoding="UTF-8" standalone="no"?><!DOCTYPE svg PUBLIC "-//W3C//DTD SVG 1.1//EN" "http://www.w3.org/Graphics/SVG/1.1/DTD/svg11.dtd"><svg width="100%" height="100%" viewBox="0 0 32 32" version="1.1" xmlns="http://www.w3.org/2000/svg" xmlns:xlink="http://www.w3.org/1999/xlink" xml:space="preserve" xmlns:serif="http://www.serif.com/" style="fill-rule:evenodd;clip-rule:evenodd;stroke-linecap:round;stroke-linejoin:round;stroke-miterlimit:1.5;"><rect id="bento" x="0" y="0" width="32" height="32" style="fill:none;"/><g id="outline"><path d="M32,5c0,-1.105 -0.895,-2 -2,-2c-5.746,0 -22.254,0 -28,0c-1.105,0 -2,0.895 -2,2c0,4.843 0,17.157 0,22c0,1.105 0.895,2 2,2c5.746,0 22.254,0 28,0c1.105,0 2,-0.895 2,-2c0,-4.843 0,-17.157 0,-22Z"/></g><g id="emoji"><rect x="2" y="5" width="28" height="17" style="fill:#aa9c84;"/><rect x="2" y="21" width="28" height="6" style="fill:#655b50;"/><rect x="3" y="14" width="8" height="6" style="fill:#655b50;"/><clipPath id="_clip1"><rect x="3" y="14" width="8" height="6"/></clipPath><g clip-path="url(#_clip1)"><path d="M11,17c0,-0.552 -0.448,-1 -1,-1c-1.537,0 -4.463,0 -6,0c-0.552,0 -1,0.448 -1,1c0,1.185 0,3 0,3l8,0l0,-3Z" style="fill:#7e1a11;"/><circle cx="9" cy="16" r="2" style="fill:#7e1a11;"/><circle cx="6" cy="17" r="2" style="fill:#b92619;"/><circle cx="5" cy="19" r="2" style="fill:#7e1a11;"/><circle cx="9" cy="19" r="2" style="fill:#b92619;"/></g><rect x="3" y="6" width="12" height="7" style="fill:#655b50;"/><clipPath id="_clip2"><rect x="3" y="6" width="12" height="7"/></clipPath><g clip-path="url(#_clip2)"><path d="M15,8c0,-0.265 -0.105,-0.52 -0.293,-0.707c-0.187,-0.188 -0.442,-0.293 -0.707,-0.293c-2.26,0 -7.74,0 -10,0c-0.265,0 -0.52,0.105 -0.707,0.293c-0.188,0.187 -0.293,0.442 -0.293,0.707c0,1.707 0,5 0,5l12,0l0,-5Z" style="fill:#ae723e;"/><rect x="5" y="7" width="1" height="6" style="fill:#724b28;"/><rect x="8" y="7" width="1" height="6" style="fill:#724b28;"/><rect x="11" y="7" width="1" height="6" style="fill:#724b28;"/></g><rect x="12" y="14" width="8" height="6" style="fill:#655b50;"/><clipPath id="_clip3"><rect x="12" y="14" width="8" height="6"/></clipPath><g clip-path="url(#_clip3)"><rect x="12" y="16" width="8" height="4" style="fill:#5b3414;"/><path d="M14,16c0,-0.265 -0.105,-0.52 -0.293,-0.707c-0.187,-0.188 -0.442,-0.293 -0.707,-0.293c-0.265,0 -0.52,0.105 -0.707,0.293c-0.188,0.187 -0.293,0.442 -0.293,0.707c0,1.459 0,4 0,4l2,0l0,-4Z" style="fill:#361f0c;"/><path d="M17,16c0,-0.265 -0.105,-0.52 -0.293,-0.707c-0.187,-0.188 -0.442,-0.293 -0.707,-0.293c-0.265,0 -0.52,0.105 -0.707,0.293c-0.188,0.187 -0.293,0.442 -0.293,0.707c0,1.459 0,4 0,4l2,0l0,-4Z" style="fill:#361f0c;"/><path d="M20,16c0,-0.265 -0.105,-0.52 -0.293,-0.707c-0.187,-0.188 -0.442,-0.293 -0.707,-0.293c-0.265,0 -0.52,0.105 -0.707,0.293c-0.188,0.187 -0.293,0.442 -0.293,0.707c0,1.459 0,4 0,4l2,0l0,-4Z" style="fill:#361f0c;"/></g><rect x="16" y="6" width="13" height="7" style="fill:#655b50;"/><clipPath id="_clip4"><rect x="16" y="6" width="13" height="7"/></clipPath><g clip-path="url(#_clip4)"><path d="M16,13l0,-4c0,-1.105 0.895,-2 2,-2c2.444,0 6.556,0 9,0c1.105,0 2,0.895 2,2c0,1.745 0,4 0,4l-13,0Z" style="fill:#fff;"/><clipPath id="_clip5"><path d="M16,13l0,-4c0,-1.105 0.895,-2 2,-2c2.444,0 6.556,0 9,0c1.105,0 2,0.895 2,2c0,1.745 0,4 0,4l-13,0Z"/></clipPath><g clip-path="url(#_clip5)"><path d="M27,9l-1,1" style="fill:none;stroke:#e1e1e1;stroke-width:1px;"/><path d="M22,10l-1,1" style="fill:none;stroke:#e1e1e1;stroke-width:1px;"/><path d="M19,13l-1,1" style="fill:none;stroke:#e1e1e1;stroke-width:1px;"/><path d="M17,11l-1,1" style="fill:none;stroke:#e1e1e1;stroke-width:1px;"/><path d="M20,7l-1,1" style="fill:none;stroke:#e1e1e1;stroke-width:1px;"/><path d="M23,8l1,1" style="fill:none;stroke:#e1e1e1;stroke-width:1px;"/><path d="M24,6l1,1" style="fill:none;stroke:#e1e1e1;stroke-width:1px;"/><path d="M28,11l1,1" style="fill:none;stroke:#e1e1e1;stroke-width:1px;"/><path d="M25,12l1,1" style="fill:none;stroke:#e1e1e1;stroke-width:1px;"/><path d="M22,13l1,1" style="fill:none;stroke:#e1e1e1;stroke-width:1px;"/><path d="M18,9l1,1" style="fill:none;stroke:#e1e1e1;stroke-width:1px;"/></g></g><rect x="21" y="14" width="8" height="6" style="fill:#655b50;"/><rect x="21" y="15" width="8" height="5" style="fill:#359e22;"/><clipPath id="_clip6"><rect x="21" y="15" width="8" height="5"/></clipPath><g clip-path="url(#_clip6)"><path d="M19,15l4,2" style="fill:none;stroke:#287419;stroke-width:1px;"/><path d="M29,14l-4,2" style="fill:none;stroke:#287419;stroke-width:1px;"/><path d="M32,15l-4,2" style="fill:none;stroke:#287419;stroke-width:1px;"/><path d="M29,20l-4,-2" style="fill:none;stroke:#287419;stroke-width:1px;"/><path d="M27,21l-4,-2" style="fill:none;stroke:#287419;stroke-width:1px;"/></g></g></svg>