<?xml version="1.0" encoding="UTF-8" standalone="no"?>
<!DOCTYPE svg PUBLIC "-//W3C//DTD SVG 1.1//EN" "http://www.w3.org/Graphics/SVG/1.1/DTD/svg11.dtd">
<svg width="100%" height="100%" viewBox="0 0 32 32" version="1.1" xmlns="http://www.w3.org/2000/svg" xmlns:xlink="http://www.w3.org/1999/xlink" xml:space="preserve" xmlns:serif="http://www.serif.com/" style="fill-rule:evenodd;clip-rule:evenodd;stroke-linecap:round;stroke-linejoin:round;stroke-miterlimit:1.5;">
    <rect id="birthday_cake" x="0" y="0" width="32" height="32" style="fill:none;"/>
    <clipPath id="_clip1">
        <rect x="0" y="0" width="32" height="32"/>
    </clipPath>
    <g clip-path="url(#_clip1)">
        <g id="outline">
            <path d="M30,25c0,2.76 -6.273,5 -14,5c-7.727,0 -14,-2.24 -14,-5l0,-11c0,-0.165 0.022,-0.328 0.066,-0.489c-0.043,-0.163 -0.066,-0.334 -0.066,-0.511c0,-1.104 0.896,-2 2,-2c0.212,0 0.416,0.033 0.608,0.094c0.688,-0.343 1.495,-0.654 2.399,-0.925c-0.005,-0.056 -0.007,-0.112 -0.007,-0.169c0,-1.104 0.896,-2 2,-2c0.874,0 1.618,0.562 1.89,1.344c0.987,-0.138 2.029,-0.238 3.11,-0.293l0,-3.051l4,0l0,3.051c1.081,0.055 2.123,0.155 3.11,0.293c0.272,-0.782 1.016,-1.344 1.89,-1.344c1.104,0 2,0.896 2,2c0,0.057 -0.002,0.113 -0.007,0.169c0.904,0.271 1.711,0.582 2.399,0.925c0.192,-0.061 0.396,-0.094 0.608,-0.094c1.104,0 2,0.896 2,2c0,0.177 -0.023,0.348 -0.066,0.511c0.044,0.161 0.066,0.324 0.066,0.489l0,11Z" style="fill:none;stroke:#000;stroke-width:4px;"/>
            <path d="M14,6l0,-1c0,-0.796 0.316,-1.559 0.879,-2.121c0.562,-0.563 1.325,-0.879 2.121,-0.879c1.063,0 2,0 2,0l0,1c0,0.796 -0.316,1.559 -0.879,2.121c-0.562,0.563 -1.325,0.879 -2.121,0.879c-1.063,0 -2,0 -2,0Z" style="fill:#ffa617;stroke:#000;stroke-width:4px;stroke-linejoin:miter;"/>
        </g>
        <g id="emoji">
            <path d="M30,14l0,11c0,2.76 -6.273,5 -14,5c-7.727,0 -14,-2.24 -14,-5l0,-11l28,0Z" style="fill:#d9d9d9;"/>
            <ellipse cx="16" cy="14" rx="14" ry="5" style="fill:#fff;"/>
            <path d="M14,6c0,-0.394 0.896,-0.714 2,-0.714c1.104,0 2,0.32 2,0.714l0,7c0,0.394 -0.896,0.714 -2,0.714c-1.104,0 -2,-0.32 -2,-0.714l0,-7Z" style="fill:#6053d0;"/>
            <path d="M14,6l0,-1c0,-0.796 0.316,-1.559 0.879,-2.121c0.562,-0.563 1.325,-0.879 2.121,-0.879c1.063,0 2,0 2,0l0,1c0,0.796 -0.316,1.559 -0.879,2.121c-0.562,0.563 -1.325,0.879 -2.121,0.879c-1.063,0 -2,0 -2,0Z" style="fill:#ffa617;"/>
            <g>
                <circle cx="16" cy="17" r="2" style="fill:#db3333;"/>
                <circle cx="9" cy="10" r="2" style="fill:#db3333;"/>
                <circle cx="23" cy="10" r="2" style="fill:#db3333;"/>
                <circle cx="9" cy="16" r="2" style="fill:#db3333;"/>
                <circle cx="23" cy="16" r="2" style="fill:#db3333;"/>
                <circle cx="28" cy="13" r="2" style="fill:#db3333;"/>
                <circle cx="4" cy="13" r="2" style="fill:#db3333;"/>
            </g>
        </g>
    </g>
</svg>
