<?xml version="1.0" encoding="UTF-8" standalone="no"?>
<!DOCTYPE svg PUBLIC "-//W3C//DTD SVG 1.1//EN" "http://www.w3.org/Graphics/SVG/1.1/DTD/svg11.dtd">
<svg width="100%" height="100%" viewBox="0 0 32 32" version="1.1" xmlns="http://www.w3.org/2000/svg" xmlns:xlink="http://www.w3.org/1999/xlink" xml:space="preserve" xmlns:serif="http://www.serif.com/" style="fill-rule:evenodd;clip-rule:evenodd;stroke-linejoin:round;stroke-miterlimit:1.5;">
    <rect id="cookie" x="0" y="0" width="32" height="32" style="fill:none;"/>
    <clipPath id="_clip1">
        <rect x="0" y="0" width="32" height="32"/>
    </clipPath>
    <g clip-path="url(#_clip1)">
        <g id="outline">
            <path d="M10.21,28.414c3.04,1.641 6.646,1.872 9.871,0.632c0.669,-0.258 1.36,-0.523 2.042,-0.785c3.641,-1.401 6.271,-4.624 6.912,-8.473c0.231,-1.382 0.458,-2.749 0.635,-3.807c0.215,-1.292 0.046,-2.619 -0.486,-3.816c-0.307,-0.693 -0.674,-1.517 -1.046,-2.355c-1.371,-3.084 -3.892,-5.511 -7.025,-6.765c-0.033,-0.013 -0.066,-0.026 -0.099,-0.04c-3.229,-1.291 -6.82,-1.347 -10.087,-0.156c-0.062,0.022 -0.124,0.044 -0.185,0.067c-2.44,0.889 -4.565,2.477 -6.108,4.567c-0.109,0.147 -0.218,0.294 -0.326,0.44c-1.476,1.999 -2.273,4.418 -2.273,6.902c0,1.011 0,2.126 0,3.221c0,3.668 2.012,7.04 5.239,8.783c0.971,0.524 1.98,1.068 2.936,1.585Z" style="fill:none;stroke:#000;stroke-width:4px;"/>
        </g>
        <g id="emoji">
            <path d="M2.212,19.916c-0.117,-0.61 -0.177,-1.236 -0.177,-1.87c0,-1.095 0,-2.21 0,-3.221c0,-2.484 0.797,-4.903 2.273,-6.902c0.108,-0.146 0.217,-0.293 0.326,-0.44c1.543,-2.09 3.668,-3.678 6.108,-4.567c0.061,-0.023 0.123,-0.045 0.185,-0.067c3.267,-1.191 6.858,-1.135 10.087,0.156c0.033,0.014 0.066,0.027 0.099,0.04c3.133,1.254 5.654,3.681 7.025,6.765c0.372,0.838 0.739,1.662 1.046,2.355c0.532,1.197 0.701,2.524 0.486,3.816c-0.177,1.058 -0.404,2.425 -0.635,3.807l0,0.004c-1.115,2.503 -3.141,5.539 -5.726,6.647c-0.953,0.408 -1.939,0.831 -2.885,1.236c-3.415,1.464 -7.32,1.239 -10.544,-0.608c-1.248,-0.715 -2.582,-1.479 -3.825,-2.191c-1.656,-0.949 -2.974,-3.332 -3.843,-4.96Z" style="fill:#e5ac50;"/>
            <path d="M29.035,19.792c-0.643,3.847 -3.272,7.068 -6.912,8.469c-0.682,0.262 -1.373,0.527 -2.042,0.785c-3.225,1.24 -6.831,1.009 -9.871,-0.632c-0.956,-0.517 -1.965,-1.061 -2.936,-1.585c-2.669,-1.441 -4.506,-3.997 -5.062,-6.913c0.869,1.628 2.187,3.011 3.843,3.96c1.243,0.712 2.577,1.476 3.825,2.191c3.224,1.847 7.129,2.072 10.544,0.608c0.946,-0.405 1.932,-0.828 2.885,-1.236c2.585,-1.108 4.611,-3.144 5.726,-5.647Z" style="fill:#b07c2e;"/>
            <g>
                <path d="M10.245,20c-0.52,0 -1.009,0.25 -1.313,0.672c-0.304,0.422 -0.387,0.964 -0.222,1.458c0,0 0,0.001 0.001,0.002c0.172,0.518 0.658,0.868 1.204,0.868c0.607,0 1.406,0 2.038,0c0.578,0 1.047,-0.469 1.047,-1.047c0,0 0,-0.001 0,-0.001c0,-0.518 -0.206,-1.014 -0.572,-1.38c-0.366,-0.366 -0.862,-0.572 -1.38,-0.572c-0.263,0 -0.535,0 -0.803,0Z" style="fill:#483313;"/>
                <path d="M12.403,10c-0.557,0 -1.08,0.268 -1.405,0.719c-0.326,0.452 -0.414,1.033 -0.238,1.561c0.016,0.047 0.031,0.093 0.046,0.137c0.116,0.348 0.442,0.583 0.809,0.583c0.438,0 1.05,0 1.634,0c0.406,0 0.787,-0.195 1.024,-0.524c0.237,-0.329 0.302,-0.752 0.173,-1.137c0,-0.001 0,-0.001 0,-0.002c-0.266,-0.798 -1.014,-1.337 -1.856,-1.337c-0.061,0 -0.124,0 -0.187,0Z" style="fill:#483313;"/>
                <path d="M17.627,18c-0.391,0 -0.761,-0.18 -1.001,-0.488c-0.241,-0.309 -0.326,-0.711 -0.231,-1.09c0.01,-0.041 0.02,-0.082 0.03,-0.123c0.149,-0.593 0.537,-1.098 1.073,-1.392c0.536,-0.294 1.17,-0.351 1.75,-0.158c0,0 0.001,0.001 0.001,0.001c0.449,0.149 0.751,0.569 0.751,1.041c0,0.288 0,0.62 0,0.939c0,0.701 -0.569,1.27 -1.27,1.27c-0.351,0 -0.736,0 -1.103,0Z" style="fill:#483313;"/>
                <path d="M19.666,24.583c0.535,-0.133 0.972,-0.519 1.17,-1.033c0.199,-0.514 0.136,-1.093 -0.17,-1.551c-0.062,-0.092 -0.121,-0.181 -0.177,-0.266c-0.306,-0.458 -0.82,-0.733 -1.37,-0.733c0,0 0,0 -0.001,0c-0.509,0 -0.99,0.235 -1.303,0.636c-0.314,0.402 -0.425,0.925 -0.301,1.419c0.068,0.274 0.137,0.547 0.199,0.798c0.076,0.304 0.27,0.566 0.539,0.727c0.269,0.161 0.591,0.209 0.895,0.133c0.166,-0.041 0.341,-0.085 0.519,-0.13Z" style="fill:#483313;"/>
                <path d="M6.68,12c-0.417,0 -0.798,0.235 -0.984,0.608c-0.16,0.319 -0.366,0.733 -0.58,1.16c-0.239,0.478 -0.214,1.046 0.067,1.501c0.281,0.454 0.778,0.731 1.312,0.731c0,0 0.001,0 0.001,0c0.399,0 0.781,-0.158 1.063,-0.441c0.283,-0.282 0.441,-0.664 0.441,-1.063l0,-1.176c0,-0.35 -0.139,-0.686 -0.387,-0.933c-0.247,-0.248 -0.583,-0.387 -0.933,-0.387c0,0 0,0 0,0Z" style="fill:#483313;"/>
                <path d="M23.492,9c-0.573,0 -1.11,0.275 -1.444,0.739c-0.335,0.464 -0.426,1.061 -0.245,1.604c0,0 0,0 0,0.001c0.131,0.392 0.498,0.656 0.911,0.656c0.357,0 0.814,0 1.273,0c0.471,0 0.914,-0.227 1.19,-0.609c0.275,-0.383 0.351,-0.874 0.201,-1.322c-0.007,-0.022 -0.014,-0.044 -0.022,-0.066c-0.199,-0.599 -0.76,-1.003 -1.391,-1.003c-0.15,0 -0.31,0 -0.473,0Z" style="fill:#483313;"/>
                <path d="M15.119,4.233c-0.478,-0.053 -0.951,0.131 -1.267,0.493c-0.316,0.361 -0.435,0.855 -0.318,1.321c0.03,0.12 0.06,0.24 0.089,0.358c0.102,0.406 0.371,0.749 0.741,0.943c0.37,0.194 0.806,0.222 1.197,0.075c0.371,-0.139 0.788,-0.296 1.226,-0.46c0.58,-0.217 0.934,-0.803 0.858,-1.417c-0.077,-0.614 -0.565,-1.095 -1.179,-1.163c-0.473,-0.053 -0.93,-0.104 -1.347,-0.15Z" style="fill:#483313;"/>
                <path d="M26.766,15.589c0.696,0.232 1.097,0.961 0.919,1.673c-0.058,0.229 -0.119,0.474 -0.18,0.719c-0.116,0.462 -0.449,0.84 -0.894,1.012c-0.445,0.172 -0.946,0.117 -1.343,-0.148c-0.115,-0.076 -0.228,-0.151 -0.336,-0.224c-0.55,-0.366 -0.787,-1.056 -0.578,-1.684c0.057,-0.17 0.116,-0.348 0.175,-0.525c0.125,-0.374 0.394,-0.684 0.747,-0.86c0.353,-0.177 0.762,-0.206 1.136,-0.081c0.119,0.039 0.238,0.079 0.354,0.118Z" style="fill:#483313;"/>
            </g>
        </g>
    </g>
</svg>
