<?xml version="1.0" encoding="UTF-8" standalone="no"?>
<!DOCTYPE svg PUBLIC "-//W3C//DTD SVG 1.1//EN" "http://www.w3.org/Graphics/SVG/1.1/DTD/svg11.dtd">
<svg width="100%" height="100%" viewBox="0 0 32 32" version="1.1" xmlns="http://www.w3.org/2000/svg" xmlns:xlink="http://www.w3.org/1999/xlink" xml:space="preserve" xmlns:serif="http://www.serif.com/" style="fill-rule:evenodd;clip-rule:evenodd;stroke-linecap:round;stroke-linejoin:round;stroke-miterlimit:1.5;">
    <rect id="cooking" x="0" y="0" width="32" height="32" style="fill:none;"/>
    <g id="outline">
        <path d="M11.144,18.856c-1.345,-1.765 -2.144,-3.968 -2.144,-6.356c0,-5.795 4.705,-10.5 10.5,-10.5c5.795,0 10.5,4.705 10.5,10.5c0,5.795 -4.705,10.5 -10.5,10.5c-2.388,0 -4.591,-0.799 -6.356,-2.144l-2.175,2.175c0.201,0.378 0.142,0.858 -0.176,1.176c-1.25,1.25 -3.836,3.836 -5.086,5.086c-0.39,0.39 -1.024,0.39 -1.414,0c-0.478,-0.478 -1.108,-1.108 -1.586,-1.586c-0.39,-0.39 -0.39,-1.024 0,-1.414c1.25,-1.25 3.836,-3.836 5.086,-5.086c0.318,-0.318 0.798,-0.377 1.176,-0.176l2.175,-2.175Z" style="fill:none;stroke:#000;stroke-width:4px;"/>
    </g>
    <g id="emoji">
        <path d="M13,17l2,2l-5.5,5.5l-2,-2l5.5,-5.5Z" style="fill:#999;"/>
        <circle cx="19.5" cy="12.5" r="10.5" style="fill:#414141;"/>
        <circle cx="19.5" cy="12.5" r="9" style="fill:#191919;"/>
        <path d="M7.793,21.207c0.39,-0.39 1.024,-0.39 1.414,0c0.478,0.478 1.108,1.108 1.586,1.586c0.39,0.39 0.39,1.024 0,1.414c-1.25,1.25 -3.836,3.836 -5.086,5.086c-0.39,0.39 -1.024,0.39 -1.414,0c-0.478,-0.478 -1.108,-1.108 -1.586,-1.586c-0.39,-0.39 -0.39,-1.024 0,-1.414c1.25,-1.25 3.836,-3.836 5.086,-5.086Z" style="fill:#414141;"/>
        <path d="M15.784,9.431c0.745,-1.49 2.268,-2.431 3.934,-2.431c0.148,0 0.299,0 0.451,0c2.668,0 4.831,2.163 4.831,4.831c0,1.052 0,2.154 0,3.169c0,1.061 -0.421,2.078 -1.172,2.828c-0.75,0.751 -1.767,1.172 -2.828,1.172c-0.579,0 -1.183,0 -1.782,0c-2.882,0 -5.218,-2.336 -5.218,-5.218c0,0 0,-0.001 0,-0.001c0,-0.514 0.12,-1.02 0.349,-1.479c0.353,-0.705 0.918,-1.835 1.435,-2.871Z" style="fill:#fff;"/>
        <circle cx="21" cy="15" r="3" style="fill:#ef9b00;"/>
    </g>
</svg>
