<?xml version="1.0" encoding="UTF-8" standalone="no"?><!DOCTYPE svg PUBLIC "-//W3C//DTD SVG 1.1//EN" "http://www.w3.org/Graphics/SVG/1.1/DTD/svg11.dtd"><svg width="100%" height="100%" viewBox="0 0 32 32" version="1.1" xmlns="http://www.w3.org/2000/svg" xmlns:xlink="http://www.w3.org/1999/xlink" xml:space="preserve" xmlns:serif="http://www.serif.com/" style="fill-rule:evenodd;clip-rule:evenodd;stroke-linecap:round;stroke-linejoin:round;stroke-miterlimit:1.5;"><rect id="curry_rice" x="0" y="0" width="32" height="32" style="fill:none;"/><clipPath id="_clip1"><rect x="0" y="0" width="32" height="32"/></clipPath><g clip-path="url(#_clip1)"><g id="outline"><path d="M2,15l0,0c0,-2.76 6.273,-5 14,-5c7.727,0 14,2.24 14,5c0,6.627 -6.268,12 -14,12c-7.732,0 -14,-5.373 -14,-12l0,0Z" style="fill:none;stroke:#000;stroke-width:4px;"/><path d="M13,13l1.743,0c0.805,0 1.577,-0.32 2.146,-0.889c0.4,-0.4 0.886,-0.886 1.354,-1.354c1.125,-1.125 2.651,-1.757 4.242,-1.757c0.168,0 0.34,0 0.515,0c3.314,0 6,2.686 6,6c0,2.126 0,4 0,4l-16,0l0,-6Z" style="fill:none;stroke:#000;stroke-width:4px;"/><path d="M3,15c0,0 0.593,-0.989 1.252,-2.087c1.085,-1.807 3.038,-2.913 5.145,-2.913c0.377,0 0.755,0 1.118,0c1.591,0 3.117,0.632 4.242,1.757c1.37,1.37 3.217,3.217 4.314,4.314c0.595,0.595 1.402,0.929 2.243,0.929c2.498,0 7.686,0 7.686,0l-26,0l0,-2Z" style="fill:none;stroke:#000;stroke-width:4px;"/></g><g id="emoji"><path d="M2,15l0,0c0,-2.76 6.273,-5 14,-5c7.727,0 14,2.24 14,5c0,6.627 -6.268,12 -14,12c-7.732,0 -14,-5.373 -14,-12l0,0Z" style="fill:#d9d9d9;"/><clipPath id="_clip2"><path d="M2,15l0,0c0,-2.76 6.273,-5 14,-5c7.727,0 14,2.24 14,5c0,6.627 -6.268,12 -14,12c-7.732,0 -14,-5.373 -14,-12l0,0Z"/></clipPath><g clip-path="url(#_clip2)"><rect x="1" y="15" width="30" height="13" style="fill:#b9b9b9;"/><path d="M32,29l-32,0l0,-15l3,1l26,0l3,-1l0,15Z" style="fill:none;"/><clipPath id="_clip3"><path d="M32,29l-32,0l0,-15l3,1l26,0l3,-1l0,15Z"/></clipPath><g clip-path="url(#_clip3)"><ellipse cx="16" cy="15" rx="14" ry="5" style="fill:none;stroke:#939393;stroke-width:4px;"/><path d="M16.181,10l0.18,0.002l0.18,0.002l0.179,0.003l0.179,0.003l0.178,0.005l0.177,0.005l0.177,0.006l0.176,0.007l0.175,0.007l0.175,0.009l0.174,0.009l0.173,0.01l0.173,0.01l0.172,0.012l0.171,0.012l0.17,0.013l0.17,0.013l0.169,0.014l0.168,0.016l0.167,0.015l0.167,0.017l0.165,0.017l0.165,0.018l0.164,0.019l0.163,0.019l0.162,0.02l0.162,0.021l0.16,0.021l0.159,0.022l0.159,0.023l0.157,0.023l0.157,0.024l0.155,0.025l0.155,0.025l0.153,0.026l0.153,0.027l0.151,0.027l0.151,0.028l0.149,0.029l0.148,0.029l0.147,0.03l0.146,0.03l0.145,0.031l0.144,0.032l0.143,0.032l0.141,0.033l0.14,0.033l0.139,0.034l0.138,0.035l0.137,0.035l0.135,0.036l0.134,0.036l0.133,0.037l0.132,0.037l0.13,0.038l0.129,0.039l0.128,0.039l0.126,0.039l0.125,0.041l0.124,0.04l0.122,0.041l0.121,0.042l0.12,0.042l0.118,0.043l0.116,0.043l0.115,0.044l0.114,0.044l0.113,0.044l0.11,0.046l0.11,0.045l0.107,0.046l0.107,0.047l0.104,0.047l0.104,0.047l0.101,0.048l0.1,0.049l0.099,0.048l0.096,0.05l0.096,0.049l0.093,0.05l0.092,0.051l0.09,0.051l0.089,0.051l0.087,0.052l0.085,0.052l0.084,0.053l0.081,0.053l0.08,0.053l0.078,0.054l0.077,0.054l0.075,0.054l0.072,0.055l0.071,0.055l0.07,0.056l0.067,0.056l0.066,0.056l0.063,0.056l0.062,0.057l0.06,0.058l0.058,0.057l0.056,0.058l0.054,0.058l0.052,0.059l0.05,0.059l0.049,0.059l0.046,0.059l0.044,0.06l0.042,0.06l0.04,0.06l0.038,0.061l0.036,0.061l0.034,0.061l0.032,0.061l0.03,0.062l0.028,0.062l0.025,0.062l0.023,0.063l0.022,0.062l0.019,0.063l0.017,0.063l0.014,0.064l0.013,0.063l0.01,0.064l0.008,0.064l0.005,0.064l0.004,0.064l0.001,0.065l-0.001,0.065l-0.004,0.064l-0.005,0.064l-0.008,0.064l-0.01,0.064l-0.013,0.063l-0.014,0.064l-0.017,0.063l-0.019,0.063l-0.022,0.062l-0.023,0.063l-0.025,0.062l-0.028,0.062l-0.03,0.062l-0.032,0.061l-0.034,0.061l-0.036,0.061l-0.038,0.061l-0.04,0.06l-0.042,0.06l-0.044,0.06l-0.046,0.059l-0.049,0.059l-0.05,0.059l-0.052,0.059l-0.054,0.058l-0.056,0.058l-0.058,0.057l-0.06,0.058l-0.062,0.057l-0.063,0.056l-0.066,0.056l-0.067,0.056l-0.07,0.056l-0.071,0.055l-0.072,0.055l-0.075,0.054l-0.077,0.054l-0.078,0.054l-0.08,0.053l-0.081,0.053l-0.084,0.053l-0.085,0.052l-0.087,0.052l-0.089,0.051l-0.09,0.051l-0.092,0.051l-0.093,0.05l-0.096,0.049l-0.096,0.05l-0.099,0.048l-0.1,0.049l-0.101,0.048l-0.104,0.047l-0.104,0.047l-0.107,0.047l-0.107,0.046l-0.11,0.045l-0.11,0.046l-0.113,0.044l-0.114,0.044l-0.115,0.044l-0.116,0.043l-0.118,0.043l-0.12,0.042l-0.121,0.042l-0.122,0.041l-0.124,0.04l-0.125,0.041l-0.126,0.039l-0.128,0.039l-0.129,0.039l-0.13,0.038l-0.132,0.037l-0.133,0.037l-0.134,0.036l-0.135,0.036l-0.137,0.035l-0.138,0.035l-0.139,0.034l-0.14,0.033l-0.141,0.033l-0.143,0.032l-0.144,0.032l-0.145,0.031l-0.146,0.03l-0.147,0.03l-0.148,0.029l-0.149,0.029l-0.151,0.028l-0.151,0.027l-0.153,0.027l-0.153,0.026l-0.155,0.025l-0.155,0.025l-0.157,0.024l-0.157,0.023l-0.159,0.023l-0.159,0.022l-0.16,0.021l-0.162,0.021l-0.162,0.02l-0.163,0.019l-0.164,0.019l-0.165,0.018l-0.165,0.017l-0.167,0.017l-0.167,0.015l-0.168,0.016l-0.169,0.014l-0.17,0.013l-0.17,0.013l-0.171,0.012l-0.172,0.012l-0.173,0.01l-0.173,0.01l-0.174,0.009l-0.175,0.009l-0.175,0.007l-0.176,0.007l-0.177,0.006l-0.177,0.005l-0.178,0.005l-0.179,0.003l-0.179,0.003l-0.18,0.002l-0.18,0.002l-0.181,0l-0.181,0l-0.18,-0.002l-0.18,-0.002l-0.179,-0.003l-0.179,-0.003l-0.178,-0.005l-0.177,-0.005l-0.177,-0.006l-0.176,-0.007l-0.175,-0.007l-0.175,-0.009l-0.174,-0.009l-0.173,-0.01l-0.173,-0.01l-0.172,-0.012l-0.171,-0.012l-0.17,-0.013l-0.17,-0.013l-0.169,-0.014l-0.168,-0.016l-0.167,-0.015l-0.167,-0.017l-0.165,-0.017l-0.165,-0.018l-0.164,-0.019l-0.163,-0.019l-0.162,-0.02l-0.162,-0.021l-0.16,-0.021l-0.159,-0.022l-0.159,-0.023l-0.157,-0.023l-0.157,-0.024l-0.155,-0.025l-0.155,-0.025l-0.153,-0.026l-0.153,-0.027l-0.151,-0.027l-0.151,-0.028l-0.149,-0.029l-0.148,-0.029l-0.147,-0.03l-0.146,-0.03l-0.145,-0.031l-0.144,-0.032l-0.143,-0.032l-0.141,-0.033l-0.14,-0.033l-0.139,-0.034l-0.138,-0.035l-0.137,-0.035l-0.135,-0.036l-0.134,-0.036l-0.133,-0.037l-0.132,-0.037l-0.13,-0.038l-0.129,-0.039l-0.128,-0.039l-0.126,-0.039l-0.125,-0.041l-0.124,-0.04l-0.122,-0.041l-0.121,-0.042l-0.12,-0.042l-0.118,-0.043l-0.116,-0.043l-0.115,-0.044l-0.114,-0.044l-0.113,-0.044l-0.11,-0.046l-0.11,-0.045l-0.107,-0.046l-0.107,-0.047l-0.104,-0.047l-0.104,-0.047l-0.101,-0.048l-0.1,-0.049l-0.099,-0.048l-0.096,-0.05l-0.096,-0.049l-0.093,-0.05l-0.092,-0.051l-0.09,-0.051l-0.089,-0.051l-0.087,-0.052l-0.085,-0.052l-0.084,-0.053l-0.081,-0.053l-0.08,-0.053l-0.078,-0.054l-0.077,-0.054l-0.075,-0.054l-0.072,-0.055l-0.071,-0.055l-0.07,-0.056l-0.067,-0.056l-0.066,-0.056l-0.063,-0.056l-0.062,-0.057l-0.06,-0.058l-0.058,-0.057l-0.056,-0.058l-0.054,-0.058l-0.052,-0.059l-0.05,-0.059l-0.049,-0.059l-0.046,-0.059l-0.044,-0.06l-0.042,-0.06l-0.04,-0.06l-0.038,-0.061l-0.036,-0.061l-0.034,-0.061l-0.032,-0.061l-0.03,-0.062l-0.028,-0.062l-0.025,-0.062l-0.023,-0.063l-0.022,-0.062l-0.019,-0.063l-0.017,-0.063l-0.014,-0.064l-0.013,-0.063l-0.01,-0.064l-0.008,-0.064l-0.005,-0.064l-0.004,-0.064l-0.001,-0.065l0.001,-0.065l0.004,-0.064l0.005,-0.064l0.008,-0.064l0.01,-0.064l0.013,-0.063l0.014,-0.064l0.017,-0.063l0.019,-0.063l0.022,-0.062l0.023,-0.063l0.025,-0.062l0.028,-0.062l0.03,-0.062l0.032,-0.061l0.034,-0.061l0.036,-0.061l0.038,-0.061l0.04,-0.06l0.042,-0.06l0.044,-0.06l0.046,-0.059l0.049,-0.059l0.05,-0.059l0.052,-0.059l0.054,-0.058l0.056,-0.058l0.058,-0.057l0.06,-0.058l0.062,-0.057l0.063,-0.056l0.066,-0.056l0.067,-0.056l0.07,-0.056l0.071,-0.055l0.072,-0.055l0.075,-0.054l0.077,-0.054l0.078,-0.054l0.08,-0.053l0.081,-0.053l0.084,-0.053l0.085,-0.052l0.087,-0.052l0.089,-0.051l0.09,-0.051l0.092,-0.051l0.093,-0.05l0.096,-0.049l0.096,-0.05l0.099,-0.048l0.1,-0.049l0.101,-0.048l0.104,-0.047l0.104,-0.047l0.107,-0.047l0.107,-0.046l0.11,-0.045l0.11,-0.046l0.113,-0.044l0.114,-0.044l0.115,-0.044l0.116,-0.043l0.118,-0.043l0.12,-0.042l0.121,-0.042l0.122,-0.041l0.124,-0.04l0.125,-0.041l0.126,-0.039l0.128,-0.039l0.129,-0.039l0.13,-0.038l0.132,-0.037l0.133,-0.037l0.134,-0.036l0.135,-0.036l0.137,-0.035l0.138,-0.035l0.139,-0.034l0.14,-0.033l0.141,-0.033l0.143,-0.032l0.144,-0.032l0.145,-0.031l0.146,-0.03l0.147,-0.03l0.148,-0.029l0.149,-0.029l0.151,-0.028l0.151,-0.027l0.153,-0.027l0.153,-0.026l0.155,-0.025l0.155,-0.025l0.157,-0.024l0.157,-0.023l0.159,-0.023l0.159,-0.022l0.16,-0.021l0.162,-0.021l0.162,-0.02l0.163,-0.019l0.164,-0.019l0.165,-0.018l0.165,-0.017l0.167,-0.017l0.167,-0.015l0.168,-0.016l0.169,-0.014l0.17,-0.013l0.17,-0.013l0.171,-0.012l0.172,-0.012l0.173,-0.01l0.173,-0.01l0.174,-0.009l0.175,-0.009l0.175,-0.007l0.176,-0.007l0.177,-0.006l0.177,-0.005l0.178,-0.005l0.179,-0.003l0.179,-0.003l0.18,-0.002l0.18,-0.002l0.181,0l0.181,0Zm-0.344,4l-0.162,0.001l-0.162,0.002l-0.161,0.003l-0.16,0.003l-0.16,0.004l-0.159,0.005l-0.158,0.005l-0.158,0.006l-0.157,0.007l-0.157,0.008l-0.156,0.008l-0.155,0.009l-0.154,0.009l-0.153,0.01l-0.153,0.011l-0.152,0.011l-0.151,0.013l-0.15,0.012l-0.15,0.014l-0.148,0.014l-0.148,0.014l-0.147,0.016l-0.145,0.015l-0.145,0.017l-0.144,0.017l-0.143,0.018l-0.142,0.018l-0.14,0.019l-0.14,0.019l-0.139,0.02l-0.137,0.02l-0.137,0.021l-0.135,0.022l-0.134,0.022l-0.134,0.022l-0.131,0.023l-0.131,0.024l-0.129,0.024l-0.129,0.025l-0.127,0.025l-0.125,0.025l-0.124,0.026l-0.123,0.026l-0.122,0.027l-0.12,0.027l-0.119,0.028l-0.118,0.028l-0.116,0.028l-0.114,0.029l-0.113,0.029l-0.112,0.029l-0.11,0.03l-0.108,0.03l-0.107,0.031l-0.105,0.03l-0.07,0.021l0.07,0.021l0.105,0.03l0.107,0.031l0.108,0.03l0.11,0.03l0.112,0.029l0.113,0.029l0.114,0.029l0.116,0.028l0.118,0.028l0.119,0.028l0.12,0.027l0.122,0.027l0.123,0.026l0.124,0.026l0.125,0.025l0.127,0.025l0.129,0.025l0.129,0.024l0.131,0.024l0.131,0.023l0.134,0.022l0.134,0.022l0.135,0.022l0.137,0.021l0.137,0.02l0.139,0.02l0.14,0.019l0.14,0.019l0.142,0.018l0.143,0.018l0.144,0.017l0.145,0.017l0.145,0.015l0.147,0.016l0.148,0.014l0.148,0.014l0.15,0.014l0.15,0.012l0.151,0.013l0.152,0.011l0.153,0.011l0.153,0.01l0.154,0.009l0.155,0.009l0.156,0.008l0.157,0.008l0.157,0.007l0.158,0.006l0.158,0.005l0.159,0.005l0.16,0.004l0.16,0.003l0.161,0.003l0.162,0.002l0.162,0.001l0.163,0l0.163,0l0.162,-0.001l0.162,-0.002l0.161,-0.003l0.16,-0.003l0.16,-0.004l0.159,-0.005l0.158,-0.005l0.158,-0.006l0.157,-0.007l0.157,-0.008l0.156,-0.008l0.155,-0.009l0.154,-0.009l0.153,-0.01l0.153,-0.011l0.152,-0.011l0.151,-0.013l0.15,-0.012l0.15,-0.014l0.148,-0.014l0.148,-0.014l0.147,-0.016l0.145,-0.015l0.145,-0.017l0.144,-0.017l0.143,-0.018l0.142,-0.018l0.14,-0.019l0.14,-0.019l0.139,-0.02l0.137,-0.02l0.137,-0.021l0.135,-0.022l0.135,-0.022l0.133,-0.022l0.131,-0.023l0.131,-0.024l0.13,-0.024l0.128,-0.025l0.127,-0.025l0.125,-0.025l0.125,-0.026l0.122,-0.026l0.122,-0.027l0.12,-0.027l0.119,-0.028l0.118,-0.028l0.116,-0.028l0.114,-0.029l0.113,-0.029l0.112,-0.029l0.11,-0.03l0.108,-0.03l0.107,-0.031l0.105,-0.03l0.07,-0.021l-0.07,-0.021l-0.105,-0.03l-0.107,-0.031l-0.108,-0.03l-0.11,-0.03l-0.112,-0.029l-0.113,-0.029l-0.114,-0.029l-0.116,-0.028l-0.118,-0.028l-0.119,-0.028l-0.12,-0.027l-0.122,-0.027l-0.122,-0.026l-0.125,-0.026l-0.125,-0.025l-0.127,-0.025l-0.128,-0.025l-0.13,-0.024l-0.131,-0.024l-0.131,-0.023l-0.133,-0.022l-0.135,-0.022l-0.135,-0.022l-0.137,-0.021l-0.137,-0.02l-0.139,-0.02l-0.14,-0.019l-0.14,-0.019l-0.142,-0.018l-0.143,-0.018l-0.144,-0.017l-0.145,-0.017l-0.145,-0.015l-0.147,-0.016l-0.148,-0.014l-0.148,-0.014l-0.15,-0.014l-0.15,-0.012l-0.151,-0.013l-0.152,-0.011l-0.153,-0.011l-0.153,-0.01l-0.154,-0.009l-0.155,-0.009l-0.156,-0.008l-0.157,-0.008l-0.157,-0.007l-0.158,-0.006l-0.158,-0.005l-0.159,-0.005l-0.16,-0.004l-0.16,-0.003l-0.161,-0.003l-0.162,-0.002l-0.162,-0.001l-0.163,0l-0.163,0Z" style="fill:#d9d9d9;"/></g></g><path d="M2,15l0,-12l28,0l0,12c0,2.76 -6.273,5 -14,5c-7.727,0 -14,-2.24 -14,-5l0,0Z" style="fill:none;"/><clipPath id="_clip4"><path d="M2,15l0,-12l28,0l0,12c0,2.76 -6.273,5 -14,5c-7.727,0 -14,-2.24 -14,-5l0,0Z"/></clipPath><g clip-path="url(#_clip4)"><path d="M13,13l1.743,0c0.805,0 1.577,-0.32 2.146,-0.889c0.4,-0.4 0.886,-0.886 1.354,-1.354c1.125,-1.125 2.651,-1.757 4.242,-1.757c0.168,0 0.34,0 0.515,0c3.314,0 6,2.686 6,6c0,2.126 0,4 0,4l-16,0l0,-6Z" style="fill:#fff;"/><path d="M3,15c0,0 0.593,-0.989 1.252,-2.087c1.085,-1.807 3.038,-2.913 5.145,-2.913c0.377,0 0.755,0 1.118,0c1.591,0 3.117,0.632 4.242,1.757c0.725,0.725 1.584,1.584 2.395,2.395c1.824,1.824 4.297,2.848 6.876,2.848c2.396,0 4.972,0 4.972,0l0,3l-26,0l0,-5Z" style="fill:#bb662c;"/><clipPath id="_clip5"><path d="M3,15c0,0 0.593,-0.989 1.252,-2.087c1.085,-1.807 3.038,-2.913 5.145,-2.913c0.377,0 0.755,0 1.118,0c1.591,0 3.117,0.632 4.242,1.757c0.725,0.725 1.584,1.584 2.395,2.395c1.824,1.824 4.297,2.848 6.876,2.848c2.396,0 4.972,0 4.972,0l0,3l-26,0l0,-5Z"/></clipPath><g clip-path="url(#_clip5)"><path d="M8.707,16.707c-0.39,-0.39 -0.39,-1.024 0,-1.414c0.478,-0.478 1.108,-1.108 1.586,-1.586c0.39,-0.39 1.024,-0.39 1.414,0c0.478,0.478 1.108,1.108 1.586,1.586c0.39,0.39 0.39,1.024 0,1.414c-0.478,0.478 -1.108,1.108 -1.586,1.586c-0.39,0.39 -1.024,0.39 -1.414,0c-0.478,-0.478 -1.108,-1.108 -1.586,-1.586Z" style="fill:#9b4d1c;"/><path d="M18,17.585c0,-0.155 -0.062,-0.304 -0.171,-0.414c-0.11,-0.109 -0.259,-0.171 -0.414,-0.171c-0.758,0 -2.072,0 -2.83,0c-0.155,0 -0.304,0.062 -0.414,0.171c-0.109,0.11 -0.171,0.259 -0.171,0.414c0,0.873 0,2.415 0,2.415l4,0l0,-2.415Z" style="fill:#9b4d1c;"/><path d="M6,13c0.265,0 0.52,0.105 0.707,0.293c0.188,0.187 0.293,0.442 0.293,0.707c0,0.265 -0.105,0.52 -0.293,0.707c-0.187,0.188 -0.442,0.293 -0.707,0.293c-1.459,0 -4,0 -4,0l0,-2l4,0Z" style="fill:#9b4d1c;"/><path d="M16,13c-0.265,0 -0.52,0.105 -0.707,0.293c-0.188,0.187 -0.293,0.442 -0.293,0.707c0,0.265 0.105,0.52 0.293,0.707c0.187,0.188 0.442,0.293 0.707,0.293c1.459,0 4,0 4,0l0,-2l-4,0Z" style="fill:#9b4d1c;"/><path d="M15,10l-4,0c-0.265,0 -0.52,0.105 -0.707,0.293c-0.188,0.187 -0.293,0.442 -0.293,0.707c0,0.265 0.105,0.52 0.293,0.707c0.187,0.188 0.442,0.293 0.707,0.293c1.459,0 4,0 4,0l0,-2Z" style="fill:#9b4d1c;"/></g></g><rect x="0" y="15" width="31" height="9" style="fill:none;"/><clipPath id="_clip6"><rect x="0" y="15" width="31" height="9"/></clipPath><g clip-path="url(#_clip6)"><path d="M16.181,10l0.18,0.002l0.18,0.002l0.179,0.003l0.179,0.003l0.178,0.005l0.177,0.005l0.177,0.006l0.176,0.007l0.175,0.007l0.175,0.009l0.174,0.009l0.173,0.01l0.173,0.01l0.172,0.012l0.171,0.012l0.17,0.013l0.17,0.013l0.169,0.014l0.168,0.016l0.167,0.015l0.167,0.017l0.165,0.017l0.165,0.018l0.164,0.019l0.163,0.019l0.162,0.02l0.162,0.021l0.16,0.021l0.159,0.022l0.159,0.023l0.157,0.023l0.157,0.024l0.155,0.025l0.155,0.025l0.153,0.026l0.153,0.027l0.151,0.027l0.151,0.028l0.149,0.029l0.148,0.029l0.147,0.03l0.146,0.03l0.145,0.031l0.144,0.032l0.143,0.032l0.141,0.033l0.14,0.033l0.139,0.034l0.138,0.035l0.137,0.035l0.135,0.036l0.134,0.036l0.133,0.037l0.132,0.037l0.13,0.038l0.129,0.039l0.128,0.039l0.126,0.039l0.125,0.041l0.124,0.04l0.122,0.041l0.121,0.042l0.12,0.042l0.118,0.043l0.116,0.043l0.115,0.044l0.114,0.044l0.113,0.044l0.11,0.046l0.11,0.045l0.107,0.046l0.107,0.047l0.104,0.047l0.104,0.047l0.101,0.048l0.1,0.049l0.099,0.048l0.096,0.05l0.096,0.049l0.093,0.05l0.092,0.051l0.09,0.051l0.089,0.051l0.087,0.052l0.085,0.052l0.084,0.053l0.081,0.053l0.08,0.053l0.078,0.054l0.077,0.054l0.075,0.054l0.072,0.055l0.071,0.055l0.07,0.056l0.067,0.056l0.066,0.056l0.063,0.056l0.062,0.057l0.06,0.058l0.058,0.057l0.056,0.058l0.054,0.058l0.052,0.059l0.05,0.059l0.049,0.059l0.046,0.059l0.044,0.06l0.042,0.06l0.04,0.06l0.038,0.061l0.036,0.061l0.034,0.061l0.032,0.061l0.03,0.062l0.028,0.062l0.025,0.062l0.023,0.063l0.022,0.062l0.019,0.063l0.017,0.063l0.014,0.064l0.013,0.063l0.01,0.064l0.008,0.064l0.005,0.064l0.004,0.064l0.001,0.065l-0.001,0.065l-0.004,0.064l-0.005,0.064l-0.008,0.064l-0.01,0.064l-0.013,0.063l-0.014,0.064l-0.017,0.063l-0.019,0.063l-0.022,0.062l-0.023,0.063l-0.025,0.062l-0.028,0.062l-0.03,0.062l-0.032,0.061l-0.034,0.061l-0.036,0.061l-0.038,0.061l-0.04,0.06l-0.042,0.06l-0.044,0.06l-0.046,0.059l-0.049,0.059l-0.05,0.059l-0.052,0.059l-0.054,0.058l-0.056,0.058l-0.058,0.057l-0.06,0.058l-0.062,0.057l-0.063,0.056l-0.066,0.056l-0.067,0.056l-0.07,0.056l-0.071,0.055l-0.072,0.055l-0.075,0.054l-0.077,0.054l-0.078,0.054l-0.08,0.053l-0.081,0.053l-0.084,0.053l-0.085,0.052l-0.087,0.052l-0.089,0.051l-0.09,0.051l-0.092,0.051l-0.093,0.05l-0.096,0.049l-0.096,0.05l-0.099,0.048l-0.1,0.049l-0.101,0.048l-0.104,0.047l-0.104,0.047l-0.107,0.047l-0.107,0.046l-0.11,0.045l-0.11,0.046l-0.113,0.044l-0.114,0.044l-0.115,0.044l-0.116,0.043l-0.118,0.043l-0.12,0.042l-0.121,0.042l-0.122,0.041l-0.124,0.04l-0.125,0.041l-0.126,0.039l-0.128,0.039l-0.129,0.039l-0.13,0.038l-0.132,0.037l-0.133,0.037l-0.134,0.036l-0.135,0.036l-0.137,0.035l-0.138,0.035l-0.139,0.034l-0.14,0.033l-0.141,0.033l-0.143,0.032l-0.144,0.032l-0.145,0.031l-0.146,0.03l-0.147,0.03l-0.148,0.029l-0.149,0.029l-0.151,0.028l-0.151,0.027l-0.153,0.027l-0.153,0.026l-0.155,0.025l-0.155,0.025l-0.157,0.024l-0.157,0.023l-0.159,0.023l-0.159,0.022l-0.16,0.021l-0.162,0.021l-0.162,0.02l-0.163,0.019l-0.164,0.019l-0.165,0.018l-0.165,0.017l-0.167,0.017l-0.167,0.015l-0.168,0.016l-0.169,0.014l-0.17,0.013l-0.17,0.013l-0.171,0.012l-0.172,0.012l-0.173,0.01l-0.173,0.01l-0.174,0.009l-0.175,0.009l-0.175,0.007l-0.176,0.007l-0.177,0.006l-0.177,0.005l-0.178,0.005l-0.179,0.003l-0.179,0.003l-0.18,0.002l-0.18,0.002l-0.181,0l-0.181,0l-0.18,-0.002l-0.18,-0.002l-0.179,-0.003l-0.179,-0.003l-0.178,-0.005l-0.177,-0.005l-0.177,-0.006l-0.176,-0.007l-0.175,-0.007l-0.175,-0.009l-0.174,-0.009l-0.173,-0.01l-0.173,-0.01l-0.172,-0.012l-0.171,-0.012l-0.17,-0.013l-0.17,-0.013l-0.169,-0.014l-0.168,-0.016l-0.167,-0.015l-0.167,-0.017l-0.165,-0.017l-0.165,-0.018l-0.164,-0.019l-0.163,-0.019l-0.162,-0.02l-0.162,-0.021l-0.16,-0.021l-0.159,-0.022l-0.159,-0.023l-0.157,-0.023l-0.157,-0.024l-0.155,-0.025l-0.155,-0.025l-0.153,-0.026l-0.153,-0.027l-0.151,-0.027l-0.151,-0.028l-0.149,-0.029l-0.148,-0.029l-0.147,-0.03l-0.146,-0.03l-0.145,-0.031l-0.144,-0.032l-0.143,-0.032l-0.141,-0.033l-0.14,-0.033l-0.139,-0.034l-0.138,-0.035l-0.137,-0.035l-0.135,-0.036l-0.134,-0.036l-0.133,-0.037l-0.132,-0.037l-0.13,-0.038l-0.129,-0.039l-0.128,-0.039l-0.126,-0.039l-0.125,-0.041l-0.124,-0.04l-0.122,-0.041l-0.121,-0.042l-0.12,-0.042l-0.118,-0.043l-0.116,-0.043l-0.115,-0.044l-0.114,-0.044l-0.113,-0.044l-0.11,-0.046l-0.11,-0.045l-0.107,-0.046l-0.107,-0.047l-0.104,-0.047l-0.104,-0.047l-0.101,-0.048l-0.1,-0.049l-0.099,-0.048l-0.096,-0.05l-0.096,-0.049l-0.093,-0.05l-0.092,-0.051l-0.09,-0.051l-0.089,-0.051l-0.087,-0.052l-0.085,-0.052l-0.084,-0.053l-0.081,-0.053l-0.08,-0.053l-0.078,-0.054l-0.077,-0.054l-0.075,-0.054l-0.072,-0.055l-0.071,-0.055l-0.07,-0.056l-0.067,-0.056l-0.066,-0.056l-0.063,-0.056l-0.062,-0.057l-0.06,-0.058l-0.058,-0.057l-0.056,-0.058l-0.054,-0.058l-0.052,-0.059l-0.05,-0.059l-0.049,-0.059l-0.046,-0.059l-0.044,-0.06l-0.042,-0.06l-0.04,-0.06l-0.038,-0.061l-0.036,-0.061l-0.034,-0.061l-0.032,-0.061l-0.03,-0.062l-0.028,-0.062l-0.025,-0.062l-0.023,-0.063l-0.022,-0.062l-0.019,-0.063l-0.017,-0.063l-0.014,-0.064l-0.013,-0.063l-0.01,-0.064l-0.008,-0.064l-0.005,-0.064l-0.004,-0.064l-0.001,-0.065l0.001,-0.065l0.004,-0.064l0.005,-0.064l0.008,-0.064l0.01,-0.064l0.013,-0.063l0.014,-0.064l0.017,-0.063l0.019,-0.063l0.022,-0.062l0.023,-0.063l0.025,-0.062l0.028,-0.062l0.03,-0.062l0.032,-0.061l0.034,-0.061l0.036,-0.061l0.038,-0.061l0.04,-0.06l0.042,-0.06l0.044,-0.06l0.046,-0.059l0.049,-0.059l0.05,-0.059l0.052,-0.059l0.054,-0.058l0.056,-0.058l0.058,-0.057l0.06,-0.058l0.062,-0.057l0.063,-0.056l0.066,-0.056l0.067,-0.056l0.07,-0.056l0.071,-0.055l0.072,-0.055l0.075,-0.054l0.077,-0.054l0.078,-0.054l0.08,-0.053l0.081,-0.053l0.084,-0.053l0.085,-0.052l0.087,-0.052l0.089,-0.051l0.09,-0.051l0.092,-0.051l0.093,-0.05l0.096,-0.049l0.096,-0.05l0.099,-0.048l0.1,-0.049l0.101,-0.048l0.104,-0.047l0.104,-0.047l0.107,-0.047l0.107,-0.046l0.11,-0.045l0.11,-0.046l0.113,-0.044l0.114,-0.044l0.115,-0.044l0.116,-0.043l0.118,-0.043l0.12,-0.042l0.121,-0.042l0.122,-0.041l0.124,-0.04l0.125,-0.041l0.126,-0.039l0.128,-0.039l0.129,-0.039l0.13,-0.038l0.132,-0.037l0.133,-0.037l0.134,-0.036l0.135,-0.036l0.137,-0.035l0.138,-0.035l0.139,-0.034l0.14,-0.033l0.141,-0.033l0.143,-0.032l0.144,-0.032l0.145,-0.031l0.146,-0.03l0.147,-0.03l0.148,-0.029l0.149,-0.029l0.151,-0.028l0.151,-0.027l0.153,-0.027l0.153,-0.026l0.155,-0.025l0.155,-0.025l0.157,-0.024l0.157,-0.023l0.159,-0.023l0.159,-0.022l0.16,-0.021l0.162,-0.021l0.162,-0.02l0.163,-0.019l0.164,-0.019l0.165,-0.018l0.165,-0.017l0.167,-0.017l0.167,-0.015l0.168,-0.016l0.169,-0.014l0.17,-0.013l0.17,-0.013l0.171,-0.012l0.172,-0.012l0.173,-0.01l0.173,-0.01l0.174,-0.009l0.175,-0.009l0.175,-0.007l0.176,-0.007l0.177,-0.006l0.177,-0.005l0.178,-0.005l0.179,-0.003l0.179,-0.003l0.18,-0.002l0.18,-0.002l0.181,0l0.181,0Zm-0.357,1l-0.176,0.002l-0.175,0.002l-0.175,0.002l-0.174,0.004l-0.173,0.004l-0.173,0.005l-0.172,0.006l-0.172,0.007l-0.171,0.007l-0.17,0.008l-0.169,0.009l-0.169,0.01l-0.168,0.01l-0.167,0.011l-0.167,0.012l-0.166,0.013l-0.165,0.013l-0.164,0.014l-0.164,0.014l-0.162,0.016l-0.162,0.016l-0.161,0.016l-0.16,0.018l-0.159,0.018l-0.158,0.019l-0.157,0.019l-0.157,0.02l-0.155,0.021l-0.155,0.021l-0.153,0.022l-0.153,0.023l-0.151,0.023l-0.151,0.024l-0.149,0.025l-0.149,0.025l-0.147,0.026l-0.146,0.026l-0.145,0.027l-0.144,0.028l-0.143,0.028l-0.142,0.028l-0.141,0.03l-0.139,0.03l-0.138,0.03l-0.137,0.031l-0.136,0.031l-0.135,0.032l-0.133,0.033l-0.132,0.033l-0.131,0.034l-0.129,0.034l-0.128,0.035l-0.127,0.035l-0.125,0.035l-0.124,0.037l-0.123,0.036l-0.121,0.037l-0.12,0.038l-0.118,0.038l-0.117,0.038l-0.116,0.039l-0.114,0.039l-0.112,0.04l-0.111,0.04l-0.109,0.04l-0.108,0.041l-0.107,0.042l-0.104,0.041l-0.103,0.042l-0.102,0.042l-0.099,0.043l-0.098,0.043l-0.097,0.043l-0.094,0.044l-0.093,0.044l-0.092,0.044l-0.089,0.044l-0.088,0.045l-0.085,0.044l-0.084,0.045l-0.083,0.046l-0.08,0.045l-0.078,0.045l-0.077,0.046l-0.075,0.046l-0.072,0.045l-0.071,0.046l-0.069,0.046l-0.067,0.046l-0.064,0.046l-0.063,0.046l-0.061,0.045l-0.059,0.046l-0.057,0.046l-0.054,0.045l-0.053,0.045l-0.05,0.045l-0.049,0.044l-0.046,0.045l-0.044,0.044l-0.042,0.043l-0.04,0.043l-0.038,0.043l-0.036,0.042l-0.034,0.042l-0.032,0.041l-0.03,0.04l-0.028,0.04l-0.026,0.039l-0.024,0.038l-0.022,0.037l-0.02,0.037l-0.019,0.036l-0.017,0.035l-0.015,0.035l-0.014,0.033l-0.012,0.033l-0.011,0.032l-0.01,0.032l-0.008,0.031l-0.007,0.03l-0.006,0.03l-0.005,0.03l-0.003,0.029l-0.003,0.029l-0.001,0.029l-0.001,0.029l0.001,0.029l0.001,0.029l0.003,0.029l0.003,0.029l0.005,0.03l0.006,0.03l0.007,0.03l0.008,0.031l0.01,0.032l0.011,0.032l0.012,0.033l0.014,0.033l0.015,0.035l0.017,0.035l0.019,0.036l0.02,0.037l0.022,0.037l0.024,0.038l0.026,0.039l0.028,0.04l0.03,0.04l0.032,0.041l0.034,0.042l0.036,0.042l0.038,0.043l0.04,0.043l0.042,0.043l0.044,0.044l0.046,0.045l0.049,0.044l0.05,0.045l0.053,0.045l0.054,0.045l0.057,0.046l0.059,0.046l0.061,0.045l0.063,0.046l0.064,0.046l0.067,0.046l0.069,0.046l0.071,0.046l0.072,0.045l0.075,0.046l0.077,0.046l0.078,0.045l0.08,0.045l0.083,0.046l0.084,0.045l0.085,0.044l0.088,0.045l0.089,0.044l0.092,0.044l0.093,0.044l0.094,0.044l0.097,0.043l0.098,0.043l0.099,0.043l0.102,0.042l0.103,0.042l0.104,0.041l0.107,0.042l0.108,0.041l0.109,0.04l0.111,0.04l0.112,0.04l0.114,0.039l0.116,0.039l0.117,0.038l0.118,0.038l0.12,0.038l0.121,0.037l0.123,0.036l0.124,0.037l0.125,0.035l0.127,0.035l0.128,0.035l0.129,0.034l0.131,0.034l0.132,0.033l0.133,0.033l0.135,0.032l0.136,0.031l0.137,0.031l0.138,0.03l0.139,0.03l0.141,0.03l0.142,0.028l0.143,0.028l0.144,0.028l0.145,0.027l0.146,0.026l0.147,0.026l0.149,0.025l0.149,0.025l0.151,0.024l0.151,0.023l0.153,0.023l0.153,0.022l0.155,0.021l0.155,0.021l0.157,0.02l0.157,0.019l0.158,0.019l0.159,0.018l0.16,0.018l0.161,0.016l0.162,0.016l0.162,0.016l0.164,0.014l0.164,0.014l0.165,0.013l0.166,0.013l0.167,0.012l0.167,0.011l0.168,0.01l0.169,0.01l0.169,0.009l0.17,0.008l0.171,0.007l0.172,0.007l0.172,0.006l0.173,0.005l0.173,0.004l0.174,0.004l0.175,0.002l0.175,0.002l0.176,0.002l0.176,0l0.176,0l0.176,-0.002l0.175,-0.002l0.175,-0.002l0.174,-0.004l0.173,-0.004l0.173,-0.005l0.172,-0.006l0.172,-0.007l0.171,-0.007l0.17,-0.008l0.169,-0.009l0.169,-0.01l0.168,-0.01l0.167,-0.011l0.167,-0.012l0.166,-0.013l0.165,-0.013l0.164,-0.014l0.164,-0.014l0.162,-0.016l0.162,-0.016l0.161,-0.016l0.16,-0.018l0.159,-0.018l0.158,-0.019l0.157,-0.019l0.157,-0.02l0.155,-0.021l0.155,-0.021l0.153,-0.022l0.153,-0.023l0.151,-0.023l0.151,-0.024l0.149,-0.025l0.149,-0.025l0.147,-0.026l0.146,-0.026l0.145,-0.027l0.144,-0.028l0.143,-0.028l0.142,-0.028l0.141,-0.03l0.139,-0.03l0.138,-0.03l0.137,-0.031l0.136,-0.031l0.135,-0.032l0.133,-0.033l0.132,-0.033l0.131,-0.034l0.129,-0.034l0.128,-0.035l0.127,-0.035l0.125,-0.035l0.124,-0.037l0.123,-0.036l0.121,-0.037l0.12,-0.038l0.118,-0.038l0.117,-0.038l0.116,-0.039l0.114,-0.039l0.112,-0.04l0.111,-0.04l0.109,-0.04l0.108,-0.041l0.107,-0.042l0.104,-0.041l0.103,-0.042l0.102,-0.042l0.099,-0.043l0.098,-0.043l0.097,-0.043l0.094,-0.044l0.093,-0.044l0.092,-0.044l0.089,-0.044l0.088,-0.045l0.085,-0.044l0.084,-0.045l0.083,-0.046l0.08,-0.045l0.078,-0.045l0.077,-0.046l0.075,-0.046l0.072,-0.045l0.071,-0.046l0.069,-0.046l0.067,-0.046l0.064,-0.046l0.063,-0.046l0.061,-0.045l0.059,-0.046l0.057,-0.046l0.054,-0.045l0.053,-0.045l0.05,-0.045l0.049,-0.044l0.046,-0.045l0.044,-0.044l0.042,-0.043l0.04,-0.043l0.038,-0.043l0.036,-0.042l0.034,-0.042l0.032,-0.041l0.03,-0.04l0.028,-0.04l0.026,-0.039l0.024,-0.038l0.022,-0.037l0.02,-0.037l0.019,-0.036l0.017,-0.035l0.015,-0.035l0.014,-0.033l0.012,-0.033l0.011,-0.032l0.01,-0.032l0.008,-0.031l0.007,-0.03l0.006,-0.03l0.005,-0.029l0.003,-0.03l0.003,-0.029l0.001,-0.029l0.001,-0.029l-0.001,-0.029l-0.001,-0.029l-0.003,-0.029l-0.003,-0.03l-0.005,-0.029l-0.006,-0.03l-0.007,-0.03l-0.008,-0.031l-0.01,-0.032l-0.011,-0.032l-0.012,-0.033l-0.014,-0.033l-0.015,-0.035l-0.017,-0.035l-0.019,-0.036l-0.02,-0.037l-0.022,-0.037l-0.024,-0.038l-0.026,-0.039l-0.028,-0.04l-0.03,-0.04l-0.032,-0.041l-0.034,-0.042l-0.036,-0.042l-0.038,-0.043l-0.04,-0.043l-0.042,-0.043l-0.044,-0.044l-0.046,-0.045l-0.049,-0.044l-0.05,-0.045l-0.053,-0.045l-0.054,-0.045l-0.057,-0.046l-0.059,-0.046l-0.061,-0.045l-0.063,-0.046l-0.064,-0.046l-0.067,-0.046l-0.069,-0.046l-0.071,-0.046l-0.072,-0.045l-0.075,-0.046l-0.077,-0.046l-0.078,-0.045l-0.08,-0.045l-0.083,-0.046l-0.084,-0.045l-0.085,-0.044l-0.088,-0.045l-0.089,-0.044l-0.092,-0.044l-0.093,-0.044l-0.094,-0.044l-0.097,-0.043l-0.098,-0.043l-0.099,-0.043l-0.102,-0.042l-0.103,-0.042l-0.104,-0.041l-0.107,-0.042l-0.108,-0.041l-0.109,-0.04l-0.111,-0.04l-0.112,-0.04l-0.114,-0.039l-0.116,-0.039l-0.117,-0.038l-0.118,-0.038l-0.12,-0.038l-0.121,-0.037l-0.123,-0.036l-0.124,-0.037l-0.125,-0.035l-0.127,-0.035l-0.128,-0.035l-0.129,-0.034l-0.131,-0.034l-0.132,-0.033l-0.133,-0.033l-0.135,-0.032l-0.136,-0.031l-0.137,-0.031l-0.138,-0.03l-0.139,-0.03l-0.141,-0.03l-0.142,-0.028l-0.143,-0.028l-0.144,-0.028l-0.145,-0.027l-0.146,-0.026l-0.147,-0.026l-0.149,-0.025l-0.149,-0.025l-0.151,-0.024l-0.151,-0.023l-0.153,-0.023l-0.153,-0.022l-0.155,-0.021l-0.155,-0.021l-0.157,-0.02l-0.157,-0.019l-0.158,-0.019l-0.159,-0.018l-0.16,-0.018l-0.161,-0.016l-0.162,-0.016l-0.162,-0.016l-0.164,-0.014l-0.164,-0.014l-0.165,-0.013l-0.166,-0.013l-0.167,-0.012l-0.167,-0.011l-0.168,-0.01l-0.169,-0.01l-0.169,-0.009l-0.17,-0.008l-0.171,-0.007l-0.172,-0.007l-0.172,-0.006l-0.173,-0.005l-0.173,-0.004l-0.174,-0.004l-0.175,-0.002l-0.175,-0.002l-0.176,-0.002l-0.176,0l-0.176,0Z" style="fill:#d9d9d9;"/></g></g></g></svg>