<?xml version="1.0" encoding="UTF-8" standalone="no"?>
<!DOCTYPE svg PUBLIC "-//W3C//DTD SVG 1.1//EN" "http://www.w3.org/Graphics/SVG/1.1/DTD/svg11.dtd">
<svg width="100%" height="100%" viewBox="0 0 32 32" version="1.1" xmlns="http://www.w3.org/2000/svg" xmlns:xlink="http://www.w3.org/1999/xlink" xml:space="preserve" xmlns:serif="http://www.serif.com/" style="fill-rule:evenodd;clip-rule:evenodd;stroke-linecap:round;stroke-linejoin:round;stroke-miterlimit:1.5;">
    <rect id="ice_cream" x="0" y="0" width="32" height="32" style="fill:none;"/>
    <clipPath id="_clip1">
        <rect x="0" y="0" width="32" height="32"/>
    </clipPath>
    <g clip-path="url(#_clip1)">
        <g id="outline">
            <path d="M15,24.968c-6.712,-0.432 -12,-5.178 -12,-10.968c0,0 0,0 0,0c0,-0.89 0.947,-1.713 2.549,-2.378c1.444,-5.588 5.577,-9.622 10.451,-9.622c4.874,0 9.007,4.034 10.451,9.622c1.602,0.665 2.549,1.488 2.549,2.378c0,5.79 -5.288,10.536 -12,10.968l0,1.365c2.836,0.147 5,0.907 5,1.821c0,1.019 -2.689,1.846 -6,1.846c-3.311,0 -6,-0.827 -6,-1.846c0,-0.914 2.164,-1.674 5,-1.821l0,-1.365Z" style="fill:none;stroke:#000;stroke-width:4px;"/>
        </g>
        <g id="emoji">
            <ellipse cx="16" cy="28.154" rx="6" ry="1.846" style="fill:#d6d6d6;"/>
            <path d="M17,28c0,0.17 -0.448,0.308 -1,0.308c-0.552,0 -1,-0.138 -1,-0.308l0,-7l2,0l0,7Z" style="fill:#bfbfbf;"/>
            <g>
                <path d="M29,14c0,2.289 -0.826,4.414 -2.24,6.175c-1.43,1.308 -5.709,3.258 -10.76,3.258c-5.051,0 -9.33,-1.95 -10.76,-3.258c-1.414,-1.761 -2.24,-3.886 -2.24,-6.175l13,0l13,0Z" style="fill:#e1e1e1;"/>
                <path d="M5.24,20.175c1.43,1.308 5.709,2.258 10.76,2.258c5.051,0 9.33,-0.95 10.76,-2.258c-2.339,2.912 -6.285,4.825 -10.76,4.825c-4.475,0 -8.421,-1.913 -10.76,-4.825Z" style="fill:#bfbfbf;"/>
            </g>
            <ellipse cx="16" cy="14" rx="13" ry="4" style="fill:#a7a7a7;"/>
            <path d="M16.335,10.001l0.334,0.004l0.331,0.007l0.328,0.009l0.327,0.011l0.324,0.014l0.321,0.017l0.319,0.018l0.315,0.022l0.313,0.023l0.31,0.026l0.307,0.028l0.304,0.03l0.3,0.033l0.297,0.035l0.293,0.037l0.29,0.039l0.286,0.041l0.282,0.043l0.278,0.045l0.275,0.047l0.27,0.049l0.266,0.052l0.261,0.053l0.257,0.054l0.253,0.057l0.248,0.059l0.243,0.06l0.239,0.062l0.233,0.064l0.115,0.032l0.113,0.033l0.113,0.033l0.111,0.034l0.109,0.034l0.109,0.035l0.107,0.035l0.105,0.035l0.104,0.036l0.103,0.036l0.102,0.036l0.1,0.037l0.099,0.037l0.097,0.038l0.096,0.038l0.094,0.038l0.093,0.039l0.091,0.039l0.09,0.039l0.089,0.04l0.086,0.04l0.086,0.041l0.084,0.04l0.082,0.042l0.081,0.041l0.079,0.042l0.077,0.042l0.076,0.042l0.074,0.043l0.073,0.043l0.071,0.043l0.069,0.043l0.068,0.044l0.066,0.044l0.064,0.045l0.063,0.045l0.061,0.045l0.059,0.045l0.057,0.045l0.056,0.046l0.053,0.046l0.052,0.047l0.051,0.046l0.048,0.047l0.047,0.047l0.044,0.047l0.043,0.048l0.041,0.048l0.04,0.048l0.037,0.048l0.035,0.049l0.034,0.048l0.031,0.049l0.03,0.049l0.027,0.05l0.026,0.049l0.024,0.05l0.021,0.05l0.02,0.05l0.018,0.05l0.015,0.051l0.014,0.05l0.012,0.051l0.009,0.051l0.007,0.051l0.006,0.052l0.003,0.051l0.001,0.052l-0.001,0.052l-0.003,0.051l-0.006,0.052l-0.007,0.051l-0.009,0.051l-0.012,0.051l-0.014,0.05l-0.015,0.051l-0.018,0.05l-0.02,0.05l-0.021,0.05l-0.024,0.05l-0.026,0.049l-0.027,0.05l-0.03,0.049l-0.031,0.049l-0.034,0.048l-0.035,0.049l-0.037,0.048l-0.04,0.048l-0.041,0.048l-0.043,0.048l-0.044,0.047l-0.047,0.047l-0.048,0.047l-0.051,0.046l-0.052,0.047l-0.053,0.046l-0.056,0.046l-0.057,0.045l-0.059,0.045l-0.061,0.045l-0.063,0.045l-0.064,0.045l-0.066,0.044l-0.068,0.044l-0.069,0.043l-0.071,0.043l-0.073,0.043l-0.074,0.043l-0.076,0.042l-0.077,0.042l-0.079,0.042l-0.081,0.041l-0.082,0.042l-0.084,0.04l-0.086,0.041l-0.086,0.04l-0.089,0.04l-0.09,0.039l-0.091,0.039l-0.093,0.039l-0.094,0.038l-0.096,0.038l-0.097,0.038l-0.099,0.037l-0.1,0.037l-0.102,0.036l-0.103,0.036l-0.104,0.036l-0.105,0.035l-0.107,0.035l-0.109,0.035l-0.109,0.034l-0.111,0.034l-0.113,0.033l-0.113,0.033l-0.115,0.032l-0.233,0.064l-0.239,0.062l-0.243,0.06l-0.248,0.059l-0.253,0.057l-0.257,0.054l-0.261,0.053l-0.266,0.052l-0.27,0.049l-0.275,0.047l-0.278,0.045l-0.282,0.043l-0.286,0.041l-0.29,0.039l-0.293,0.037l-0.297,0.035l-0.3,0.033l-0.304,0.03l-0.307,0.028l-0.31,0.026l-0.313,0.023l-0.315,0.022l-0.319,0.018l-0.321,0.017l-0.324,0.014l-0.327,0.011l-0.328,0.009l-0.331,0.007l-0.334,0.004l-0.335,0.001l-0.335,-0.001l-0.334,-0.004l-0.331,-0.007l-0.328,-0.009l-0.327,-0.011l-0.324,-0.014l-0.321,-0.017l-0.319,-0.018l-0.315,-0.022l-0.313,-0.023l-0.31,-0.026l-0.307,-0.028l-0.304,-0.03l-0.3,-0.033l-0.297,-0.035l-0.293,-0.037l-0.29,-0.039l-0.286,-0.041l-0.282,-0.043l-0.278,-0.045l-0.275,-0.047l-0.27,-0.049l-0.266,-0.052l-0.261,-0.053l-0.257,-0.054l-0.253,-0.057l-0.248,-0.059l-0.243,-0.06l-0.239,-0.062l-0.233,-0.064l-0.115,-0.032l-0.113,-0.033l-0.113,-0.033l-0.111,-0.034l-0.109,-0.034l-0.109,-0.035l-0.107,-0.035l-0.105,-0.035l-0.104,-0.036l-0.103,-0.036l-0.102,-0.036l-0.1,-0.037l-0.099,-0.037l-0.097,-0.038l-0.096,-0.038l-0.094,-0.038l-0.093,-0.039l-0.091,-0.039l-0.09,-0.039l-0.089,-0.04l-0.086,-0.04l-0.086,-0.041l-0.084,-0.04l-0.082,-0.042l-0.081,-0.041l-0.079,-0.042l-0.077,-0.042l-0.076,-0.042l-0.074,-0.043l-0.073,-0.043l-0.071,-0.043l-0.069,-0.043l-0.068,-0.044l-0.066,-0.044l-0.064,-0.045l-0.063,-0.045l-0.061,-0.045l-0.059,-0.045l-0.057,-0.045l-0.056,-0.046l-0.053,-0.046l-0.052,-0.047l-0.051,-0.046l-0.048,-0.047l-0.047,-0.047l-0.044,-0.047l-0.043,-0.048l-0.041,-0.048l-0.04,-0.048l-0.037,-0.048l-0.035,-0.049l-0.034,-0.048l-0.031,-0.049l-0.03,-0.049l-0.027,-0.05l-0.026,-0.049l-0.024,-0.05l-0.021,-0.05l-0.02,-0.05l-0.018,-0.05l-0.015,-0.051l-0.014,-0.05l-0.012,-0.051l-0.009,-0.051l-0.007,-0.051l-0.006,-0.052l-0.003,-0.051l-0.001,-0.052l0.001,-0.052l0.003,-0.051l0.006,-0.052l0.007,-0.051l0.009,-0.051l0.012,-0.051l0.014,-0.05l0.015,-0.051l0.018,-0.05l0.02,-0.05l0.021,-0.05l0.024,-0.05l0.026,-0.049l0.027,-0.05l0.03,-0.049l0.031,-0.049l0.034,-0.048l0.035,-0.049l0.037,-0.048l0.04,-0.048l0.041,-0.048l0.043,-0.048l0.044,-0.047l0.047,-0.047l0.048,-0.047l0.051,-0.046l0.052,-0.047l0.053,-0.046l0.056,-0.046l0.057,-0.045l0.059,-0.045l0.061,-0.045l0.063,-0.045l0.064,-0.045l0.066,-0.044l0.068,-0.044l0.069,-0.043l0.071,-0.043l0.073,-0.043l0.074,-0.043l0.076,-0.042l0.077,-0.042l0.079,-0.042l0.081,-0.041l0.082,-0.042l0.084,-0.04l0.086,-0.041l0.086,-0.04l0.089,-0.04l0.09,-0.039l0.091,-0.039l0.093,-0.039l0.094,-0.038l0.096,-0.038l0.097,-0.038l0.099,-0.037l0.1,-0.037l0.102,-0.036l0.103,-0.036l0.104,-0.036l0.105,-0.035l0.107,-0.035l0.109,-0.035l0.109,-0.034l0.111,-0.034l0.113,-0.033l0.113,-0.033l0.115,-0.032l0.233,-0.064l0.239,-0.062l0.243,-0.06l0.248,-0.059l0.253,-0.057l0.257,-0.054l0.261,-0.053l0.266,-0.052l0.27,-0.049l0.275,-0.047l0.278,-0.045l0.282,-0.043l0.286,-0.041l0.29,-0.039l0.293,-0.037l0.297,-0.035l0.3,-0.033l0.304,-0.03l0.307,-0.028l0.31,-0.026l0.313,-0.023l0.315,-0.022l0.319,-0.018l0.321,-0.017l0.324,-0.014l0.327,-0.011l0.328,-0.009l0.331,-0.007l0.334,-0.004l0.335,-0.001l0.335,0.001Zm-0.663,1l-0.325,0.004l-0.323,0.006l-0.321,0.009l-0.319,0.011l-0.316,0.014l-0.313,0.016l-0.311,0.018l-0.307,0.021l-0.305,0.023l-0.302,0.025l-0.299,0.027l-0.295,0.03l-0.292,0.032l-0.288,0.033l-0.285,0.036l-0.281,0.038l-0.277,0.04l-0.273,0.042l-0.269,0.043l-0.265,0.046l-0.261,0.047l-0.256,0.05l-0.252,0.051l-0.247,0.052l-0.242,0.055l-0.237,0.056l-0.232,0.057l-0.227,0.059l-0.223,0.061l-0.107,0.03l-0.108,0.032l-0.106,0.031l-0.104,0.032l-0.104,0.032l-0.101,0.032l-0.101,0.033l-0.099,0.033l-0.097,0.034l-0.096,0.033l-0.094,0.034l-0.093,0.034l-0.091,0.035l-0.089,0.034l-0.088,0.035l-0.086,0.035l-0.085,0.035l-0.083,0.036l-0.082,0.036l-0.079,0.035l-0.078,0.036l-0.076,0.036l-0.075,0.036l-0.072,0.037l-0.071,0.036l-0.069,0.036l-0.067,0.037l-0.065,0.036l-0.064,0.037l-0.061,0.036l-0.06,0.036l-0.057,0.036l-0.056,0.036l-0.053,0.036l-0.052,0.036l-0.05,0.035l-0.047,0.036l-0.046,0.034l-0.043,0.035l-0.041,0.034l-0.04,0.034l-0.037,0.033l-0.035,0.032l-0.033,0.032l-0.031,0.032l-0.029,0.03l-0.027,0.03l-0.024,0.029l-0.023,0.028l-0.021,0.027l-0.019,0.026l-0.017,0.024l-0.015,0.024l-0.014,0.023l-0.012,0.021l-0.01,0.02l-0.01,0.019l-0.007,0.018l-0.007,0.017l-0.005,0.015l-0.005,0.014l-0.003,0.014l-0.003,0.012l-0.002,0.012l-0.002,0.011l-0.001,0.011l-0.001,0.011l0,0.01l0.001,0.021l0.001,0.011l0.002,0.011l0.002,0.012l0.003,0.012l0.003,0.014l0.005,0.014l0.005,0.015l0.007,0.017l0.007,0.018l0.01,0.019l0.01,0.02l0.012,0.021l0.014,0.023l0.015,0.024l0.017,0.024l0.019,0.026l0.021,0.027l0.023,0.028l0.024,0.029l0.027,0.03l0.029,0.03l0.031,0.032l0.033,0.032l0.035,0.032l0.037,0.033l0.04,0.034l0.041,0.034l0.043,0.034l0.046,0.035l0.047,0.036l0.05,0.035l0.052,0.036l0.053,0.035l0.056,0.037l0.057,0.036l0.06,0.036l0.061,0.036l0.064,0.037l0.065,0.036l0.067,0.037l0.069,0.036l0.071,0.036l0.072,0.037l0.075,0.036l0.076,0.036l0.078,0.036l0.079,0.035l0.082,0.036l0.083,0.036l0.085,0.035l0.086,0.035l0.088,0.035l0.089,0.034l0.091,0.035l0.093,0.034l0.094,0.034l0.096,0.033l0.097,0.034l0.099,0.033l0.101,0.033l0.101,0.032l0.104,0.032l0.104,0.032l0.106,0.031l0.108,0.032l0.107,0.03l0.223,0.061l0.227,0.059l0.232,0.057l0.237,0.056l0.242,0.055l0.247,0.052l0.252,0.051l0.256,0.05l0.261,0.047l0.265,0.046l0.269,0.043l0.273,0.042l0.277,0.04l0.281,0.038l0.285,0.036l0.288,0.033l0.292,0.032l0.295,0.03l0.299,0.027l0.302,0.025l0.305,0.023l0.307,0.021l0.311,0.018l0.313,0.016l0.316,0.014l0.319,0.011l0.321,0.009l0.323,0.006l0.325,0.004l0.328,0.001l0.328,-0.001l0.325,-0.004l0.323,-0.006l0.321,-0.009l0.319,-0.011l0.316,-0.014l0.313,-0.016l0.311,-0.018l0.307,-0.021l0.305,-0.023l0.302,-0.025l0.299,-0.027l0.295,-0.03l0.292,-0.032l0.288,-0.033l0.285,-0.036l0.281,-0.038l0.277,-0.04l0.273,-0.042l0.269,-0.043l0.265,-0.046l0.261,-0.047l0.256,-0.05l0.252,-0.051l0.247,-0.052l0.242,-0.055l0.237,-0.056l0.232,-0.057l0.227,-0.059l0.223,-0.061l0.107,-0.03l0.108,-0.032l0.106,-0.031l0.104,-0.032l0.104,-0.032l0.101,-0.032l0.101,-0.033l0.099,-0.033l0.097,-0.034l0.096,-0.033l0.094,-0.034l0.093,-0.034l0.091,-0.035l0.089,-0.034l0.088,-0.035l0.087,-0.035l0.084,-0.035l0.083,-0.036l0.082,-0.036l0.079,-0.035l0.078,-0.036l0.076,-0.036l0.075,-0.036l0.072,-0.037l0.071,-0.036l0.069,-0.036l0.067,-0.037l0.065,-0.036l0.064,-0.037l0.061,-0.036l0.06,-0.036l0.057,-0.036l0.056,-0.037l0.053,-0.035l0.052,-0.036l0.05,-0.035l0.047,-0.036l0.046,-0.035l0.043,-0.034l0.041,-0.034l0.04,-0.034l0.037,-0.033l0.035,-0.032l0.033,-0.032l0.031,-0.032l0.029,-0.03l0.027,-0.03l0.024,-0.029l0.023,-0.028l0.021,-0.027l0.019,-0.026l0.017,-0.024l0.015,-0.024l0.014,-0.023l0.012,-0.021l0.01,-0.02l0.01,-0.019l0.007,-0.018l0.007,-0.017l0.005,-0.015l0.005,-0.014l0.003,-0.014l0.003,-0.012l0.002,-0.012l0.002,-0.011l0.001,-0.011l0.001,-0.01l0,-0.011l0,-0.011l-0.001,-0.01l-0.001,-0.011l-0.002,-0.011l-0.002,-0.012l-0.003,-0.012l-0.003,-0.014l-0.005,-0.014l-0.005,-0.015l-0.007,-0.017l-0.007,-0.018l-0.01,-0.019l-0.01,-0.02l-0.012,-0.021l-0.014,-0.023l-0.015,-0.024l-0.017,-0.024l-0.019,-0.026l-0.021,-0.027l-0.023,-0.028l-0.024,-0.029l-0.027,-0.03l-0.029,-0.03l-0.031,-0.032l-0.033,-0.032l-0.035,-0.032l-0.037,-0.033l-0.04,-0.034l-0.041,-0.034l-0.043,-0.034l-0.046,-0.035l-0.047,-0.036l-0.05,-0.035l-0.052,-0.036l-0.053,-0.036l-0.056,-0.036l-0.057,-0.036l-0.06,-0.036l-0.061,-0.036l-0.064,-0.037l-0.065,-0.036l-0.067,-0.037l-0.069,-0.036l-0.071,-0.036l-0.072,-0.037l-0.075,-0.036l-0.076,-0.036l-0.078,-0.036l-0.079,-0.035l-0.082,-0.036l-0.083,-0.036l-0.084,-0.035l-0.087,-0.035l-0.088,-0.035l-0.089,-0.034l-0.091,-0.035l-0.093,-0.034l-0.094,-0.034l-0.096,-0.033l-0.098,-0.034l-0.098,-0.033l-0.101,-0.033l-0.101,-0.032l-0.104,-0.032l-0.104,-0.032l-0.106,-0.031l-0.108,-0.032l-0.107,-0.03l-0.223,-0.061l-0.227,-0.059l-0.232,-0.057l-0.237,-0.056l-0.242,-0.055l-0.247,-0.052l-0.252,-0.051l-0.256,-0.05l-0.261,-0.047l-0.265,-0.046l-0.269,-0.043l-0.273,-0.042l-0.277,-0.04l-0.281,-0.038l-0.285,-0.036l-0.288,-0.033l-0.292,-0.032l-0.295,-0.03l-0.299,-0.027l-0.302,-0.025l-0.305,-0.023l-0.307,-0.021l-0.311,-0.018l-0.313,-0.016l-0.316,-0.014l-0.319,-0.011l-0.321,-0.009l-0.323,-0.006l-0.325,-0.004l-0.328,-0.001l-0.328,0.001Z" style="fill:#fff;"/>
            <g>
                <path d="M23.296,5.523c1.461,1.648 2.574,3.784 3.183,6.206c-1.067,2.336 -6.211,5.104 -10.479,5.104c-4.268,0 -9.525,-2.655 -10.479,-5.104c0.501,-1.991 1.342,-3.789 2.437,-5.282c0.542,-0.246 3.042,-1.447 3.042,-1.447l10,0c0,0 1.787,0.373 2.296,0.523Z" style="fill:#f6e8cc;"/>
                <path d="M26.479,11.729c0.338,1.347 0.521,2.782 0.521,4.271l-8.25,1.5l-5.5,0l-8.25,-1.5c0,-1.489 0.183,-2.924 0.521,-4.271c2.414,1.887 6.211,3.104 10.479,3.104c4.268,0 8.065,-1.217 10.479,-3.104Z" style="fill:#dec38c;"/>
                <path d="M7.958,6.447c2.008,-2.736 4.868,-4.447 8.042,-4.447c2.799,0 5.355,1.331 7.296,3.523c-0.36,0.307 -0.819,0.477 -1.296,0.477l-1,0c0,0 0,0.449 0,1c0,0.53 -0.211,1.039 -0.586,1.414c-0.375,0.375 -0.884,0.586 -1.414,0.586c-0.168,0 -0.336,0 -0.5,0c-0.398,0 -0.779,-0.158 -1.061,-0.439c-0.281,-0.282 -0.439,-0.663 -0.439,-1.061c0,-0.17 0,-0.339 0,-0.5c0,-0.552 -0.448,-1 -1,-1c-0.265,0 -0.52,0.105 -0.707,0.293c-0.188,0.187 -0.293,0.442 -0.293,0.707c0,0.956 0,2.408 0,3.502c0,0.397 -0.158,0.778 -0.439,1.059c-0.281,0.281 -0.662,0.439 -1.059,0.439c-0.001,0 -0.001,0 -0.002,0c-0.398,0 -0.779,-0.158 -1.061,-0.439c-0.281,-0.282 -0.439,-0.663 -0.439,-1.061l0,-2.5c0,0 -0.987,0.015 -2,0c-1.652,-0.025 -1.999,-0.928 -2.042,-1.553Z" style="fill:#4e4229;"/>
            </g>
            <rect x="2" y="14" width="28" height="9.624" style="fill:none;"/>
            <clipPath id="_clip2">
                <rect x="2" y="14" width="28" height="9.624"/>
            </clipPath>
            <g clip-path="url(#_clip2)">
                <path d="M16.335,10.001l0.334,0.004l0.331,0.007l0.328,0.009l0.327,0.011l0.324,0.014l0.321,0.017l0.319,0.018l0.315,0.022l0.313,0.023l0.31,0.026l0.307,0.028l0.304,0.03l0.3,0.033l0.297,0.035l0.293,0.037l0.29,0.039l0.286,0.041l0.282,0.043l0.278,0.045l0.275,0.047l0.27,0.049l0.266,0.052l0.261,0.053l0.257,0.054l0.253,0.057l0.248,0.059l0.243,0.06l0.239,0.062l0.233,0.064l0.115,0.032l0.113,0.033l0.113,0.033l0.111,0.034l0.109,0.034l0.109,0.035l0.107,0.035l0.105,0.035l0.104,0.036l0.103,0.036l0.102,0.036l0.1,0.037l0.099,0.037l0.097,0.038l0.096,0.038l0.094,0.038l0.093,0.039l0.091,0.039l0.09,0.039l0.089,0.04l0.086,0.04l0.086,0.041l0.084,0.04l0.082,0.042l0.081,0.041l0.079,0.042l0.077,0.042l0.076,0.042l0.074,0.043l0.073,0.043l0.071,0.043l0.069,0.043l0.068,0.044l0.066,0.044l0.064,0.045l0.063,0.045l0.061,0.045l0.059,0.045l0.057,0.045l0.056,0.046l0.053,0.046l0.052,0.047l0.051,0.046l0.048,0.047l0.047,0.047l0.044,0.047l0.043,0.048l0.041,0.048l0.04,0.048l0.037,0.048l0.035,0.049l0.034,0.048l0.031,0.049l0.03,0.049l0.027,0.05l0.026,0.049l0.024,0.05l0.021,0.05l0.02,0.05l0.018,0.05l0.015,0.051l0.014,0.05l0.012,0.051l0.009,0.051l0.007,0.051l0.006,0.052l0.003,0.051l0.001,0.052l-0.001,0.052l-0.003,0.051l-0.006,0.052l-0.007,0.051l-0.009,0.051l-0.012,0.051l-0.014,0.05l-0.015,0.051l-0.018,0.05l-0.02,0.05l-0.021,0.05l-0.024,0.05l-0.026,0.049l-0.027,0.05l-0.03,0.049l-0.031,0.049l-0.034,0.048l-0.035,0.049l-0.037,0.048l-0.04,0.048l-0.041,0.048l-0.043,0.048l-0.044,0.047l-0.047,0.047l-0.048,0.047l-0.051,0.046l-0.052,0.047l-0.053,0.046l-0.056,0.046l-0.057,0.045l-0.059,0.045l-0.061,0.045l-0.063,0.045l-0.064,0.045l-0.066,0.044l-0.068,0.044l-0.069,0.043l-0.071,0.043l-0.073,0.043l-0.074,0.043l-0.076,0.042l-0.077,0.042l-0.079,0.042l-0.081,0.041l-0.082,0.042l-0.084,0.04l-0.086,0.041l-0.086,0.04l-0.089,0.04l-0.09,0.039l-0.091,0.039l-0.093,0.039l-0.094,0.038l-0.096,0.038l-0.097,0.038l-0.099,0.037l-0.1,0.037l-0.102,0.036l-0.103,0.036l-0.104,0.036l-0.105,0.035l-0.107,0.035l-0.109,0.035l-0.109,0.034l-0.111,0.034l-0.113,0.033l-0.113,0.033l-0.115,0.032l-0.233,0.064l-0.239,0.062l-0.243,0.06l-0.248,0.059l-0.253,0.057l-0.257,0.054l-0.261,0.053l-0.266,0.052l-0.27,0.049l-0.275,0.047l-0.278,0.045l-0.282,0.043l-0.286,0.041l-0.29,0.039l-0.293,0.037l-0.297,0.035l-0.3,0.033l-0.304,0.03l-0.307,0.028l-0.31,0.026l-0.313,0.023l-0.315,0.022l-0.319,0.018l-0.321,0.017l-0.324,0.014l-0.327,0.011l-0.328,0.009l-0.331,0.007l-0.334,0.004l-0.335,0.001l-0.335,-0.001l-0.334,-0.004l-0.331,-0.007l-0.328,-0.009l-0.327,-0.011l-0.324,-0.014l-0.321,-0.017l-0.319,-0.018l-0.315,-0.022l-0.313,-0.023l-0.31,-0.026l-0.307,-0.028l-0.304,-0.03l-0.3,-0.033l-0.297,-0.035l-0.293,-0.037l-0.29,-0.039l-0.286,-0.041l-0.282,-0.043l-0.278,-0.045l-0.275,-0.047l-0.27,-0.049l-0.266,-0.052l-0.261,-0.053l-0.257,-0.054l-0.253,-0.057l-0.248,-0.059l-0.243,-0.06l-0.239,-0.062l-0.233,-0.064l-0.115,-0.032l-0.113,-0.033l-0.113,-0.033l-0.111,-0.034l-0.109,-0.034l-0.109,-0.035l-0.107,-0.035l-0.105,-0.035l-0.104,-0.036l-0.103,-0.036l-0.102,-0.036l-0.1,-0.037l-0.099,-0.037l-0.097,-0.038l-0.096,-0.038l-0.094,-0.038l-0.093,-0.039l-0.091,-0.039l-0.09,-0.039l-0.089,-0.04l-0.086,-0.04l-0.086,-0.041l-0.084,-0.04l-0.082,-0.042l-0.081,-0.041l-0.079,-0.042l-0.077,-0.042l-0.076,-0.042l-0.074,-0.043l-0.073,-0.043l-0.071,-0.043l-0.069,-0.043l-0.068,-0.044l-0.066,-0.044l-0.064,-0.045l-0.063,-0.045l-0.061,-0.045l-0.059,-0.045l-0.057,-0.045l-0.056,-0.046l-0.053,-0.046l-0.052,-0.047l-0.051,-0.046l-0.048,-0.047l-0.047,-0.047l-0.044,-0.047l-0.043,-0.048l-0.041,-0.048l-0.04,-0.048l-0.037,-0.048l-0.035,-0.049l-0.034,-0.048l-0.031,-0.049l-0.03,-0.049l-0.027,-0.05l-0.026,-0.049l-0.024,-0.05l-0.021,-0.05l-0.02,-0.05l-0.018,-0.05l-0.015,-0.051l-0.014,-0.05l-0.012,-0.051l-0.009,-0.051l-0.007,-0.051l-0.006,-0.052l-0.003,-0.051l-0.001,-0.052l0.001,-0.052l0.003,-0.051l0.006,-0.052l0.007,-0.051l0.009,-0.051l0.012,-0.051l0.014,-0.05l0.015,-0.051l0.018,-0.05l0.02,-0.05l0.021,-0.05l0.024,-0.05l0.026,-0.049l0.027,-0.05l0.03,-0.049l0.031,-0.049l0.034,-0.048l0.035,-0.049l0.037,-0.048l0.04,-0.048l0.041,-0.048l0.043,-0.048l0.044,-0.047l0.047,-0.047l0.048,-0.047l0.051,-0.046l0.052,-0.047l0.053,-0.046l0.056,-0.046l0.057,-0.045l0.059,-0.045l0.061,-0.045l0.063,-0.045l0.064,-0.045l0.066,-0.044l0.068,-0.044l0.069,-0.043l0.071,-0.043l0.073,-0.043l0.074,-0.043l0.076,-0.042l0.077,-0.042l0.079,-0.042l0.081,-0.041l0.082,-0.042l0.084,-0.04l0.086,-0.041l0.086,-0.04l0.089,-0.04l0.09,-0.039l0.091,-0.039l0.093,-0.039l0.094,-0.038l0.096,-0.038l0.097,-0.038l0.099,-0.037l0.1,-0.037l0.102,-0.036l0.103,-0.036l0.104,-0.036l0.105,-0.035l0.107,-0.035l0.109,-0.035l0.109,-0.034l0.111,-0.034l0.113,-0.033l0.113,-0.033l0.115,-0.032l0.233,-0.064l0.239,-0.062l0.243,-0.06l0.248,-0.059l0.253,-0.057l0.257,-0.054l0.261,-0.053l0.266,-0.052l0.27,-0.049l0.275,-0.047l0.278,-0.045l0.282,-0.043l0.286,-0.041l0.29,-0.039l0.293,-0.037l0.297,-0.035l0.3,-0.033l0.304,-0.03l0.307,-0.028l0.31,-0.026l0.313,-0.023l0.315,-0.022l0.319,-0.018l0.321,-0.017l0.324,-0.014l0.327,-0.011l0.328,-0.009l0.331,-0.007l0.334,-0.004l0.335,-0.001l0.335,0.001Zm-0.663,1l-0.325,0.004l-0.323,0.006l-0.321,0.009l-0.319,0.011l-0.316,0.014l-0.313,0.016l-0.311,0.018l-0.307,0.021l-0.305,0.023l-0.302,0.025l-0.299,0.027l-0.295,0.03l-0.292,0.032l-0.288,0.033l-0.285,0.036l-0.281,0.038l-0.277,0.04l-0.273,0.042l-0.269,0.043l-0.265,0.046l-0.261,0.047l-0.256,0.05l-0.252,0.051l-0.247,0.052l-0.242,0.055l-0.237,0.056l-0.232,0.057l-0.227,0.059l-0.223,0.061l-0.107,0.03l-0.108,0.032l-0.106,0.031l-0.104,0.032l-0.104,0.032l-0.101,0.032l-0.101,0.033l-0.099,0.033l-0.097,0.034l-0.096,0.033l-0.094,0.034l-0.093,0.034l-0.091,0.035l-0.089,0.034l-0.088,0.035l-0.086,0.035l-0.085,0.035l-0.083,0.036l-0.082,0.036l-0.079,0.035l-0.078,0.036l-0.076,0.036l-0.075,0.036l-0.072,0.037l-0.071,0.036l-0.069,0.036l-0.067,0.037l-0.065,0.036l-0.064,0.037l-0.061,0.036l-0.06,0.036l-0.057,0.036l-0.056,0.036l-0.053,0.036l-0.052,0.036l-0.05,0.035l-0.047,0.036l-0.046,0.034l-0.043,0.035l-0.041,0.034l-0.04,0.034l-0.037,0.033l-0.035,0.032l-0.033,0.032l-0.031,0.032l-0.029,0.03l-0.027,0.03l-0.024,0.029l-0.023,0.028l-0.021,0.027l-0.019,0.026l-0.017,0.024l-0.015,0.024l-0.014,0.023l-0.012,0.021l-0.01,0.02l-0.01,0.019l-0.007,0.018l-0.007,0.017l-0.005,0.015l-0.005,0.014l-0.003,0.014l-0.003,0.012l-0.002,0.012l-0.002,0.011l-0.001,0.011l-0.001,0.011l0,0.01l0.001,0.021l0.001,0.011l0.002,0.011l0.002,0.012l0.003,0.012l0.003,0.014l0.005,0.014l0.005,0.015l0.007,0.017l0.007,0.018l0.01,0.019l0.01,0.02l0.012,0.021l0.014,0.023l0.015,0.024l0.017,0.024l0.019,0.026l0.021,0.027l0.023,0.028l0.024,0.029l0.027,0.03l0.029,0.03l0.031,0.032l0.033,0.032l0.035,0.032l0.037,0.033l0.04,0.034l0.041,0.034l0.043,0.034l0.046,0.035l0.047,0.036l0.05,0.035l0.052,0.036l0.053,0.035l0.056,0.037l0.057,0.036l0.06,0.036l0.061,0.036l0.064,0.037l0.065,0.036l0.067,0.037l0.069,0.036l0.071,0.036l0.072,0.037l0.075,0.036l0.076,0.036l0.078,0.036l0.079,0.035l0.082,0.036l0.083,0.036l0.085,0.035l0.086,0.035l0.088,0.035l0.089,0.034l0.091,0.035l0.093,0.034l0.094,0.034l0.096,0.033l0.097,0.034l0.099,0.033l0.101,0.033l0.101,0.032l0.104,0.032l0.104,0.032l0.106,0.031l0.108,0.032l0.107,0.03l0.223,0.061l0.227,0.059l0.232,0.057l0.237,0.056l0.242,0.055l0.247,0.052l0.252,0.051l0.256,0.05l0.261,0.047l0.265,0.046l0.269,0.043l0.273,0.042l0.277,0.04l0.281,0.038l0.285,0.036l0.288,0.033l0.292,0.032l0.295,0.03l0.299,0.027l0.302,0.025l0.305,0.023l0.307,0.021l0.311,0.018l0.313,0.016l0.316,0.014l0.319,0.011l0.321,0.009l0.323,0.006l0.325,0.004l0.328,0.001l0.328,-0.001l0.325,-0.004l0.323,-0.006l0.321,-0.009l0.319,-0.011l0.316,-0.014l0.313,-0.016l0.311,-0.018l0.307,-0.021l0.305,-0.023l0.302,-0.025l0.299,-0.027l0.295,-0.03l0.292,-0.032l0.288,-0.033l0.285,-0.036l0.281,-0.038l0.277,-0.04l0.273,-0.042l0.269,-0.043l0.265,-0.046l0.261,-0.047l0.256,-0.05l0.252,-0.051l0.247,-0.052l0.242,-0.055l0.237,-0.056l0.232,-0.057l0.227,-0.059l0.223,-0.061l0.107,-0.03l0.108,-0.032l0.106,-0.031l0.104,-0.032l0.104,-0.032l0.101,-0.032l0.101,-0.033l0.099,-0.033l0.097,-0.034l0.096,-0.033l0.094,-0.034l0.093,-0.034l0.091,-0.035l0.089,-0.034l0.088,-0.035l0.087,-0.035l0.084,-0.035l0.083,-0.036l0.082,-0.036l0.079,-0.035l0.078,-0.036l0.076,-0.036l0.075,-0.036l0.072,-0.037l0.071,-0.036l0.069,-0.036l0.067,-0.037l0.065,-0.036l0.064,-0.037l0.061,-0.036l0.06,-0.036l0.057,-0.036l0.056,-0.037l0.053,-0.035l0.052,-0.036l0.05,-0.035l0.047,-0.036l0.046,-0.035l0.043,-0.034l0.041,-0.034l0.04,-0.034l0.037,-0.033l0.035,-0.032l0.033,-0.032l0.031,-0.032l0.029,-0.03l0.027,-0.03l0.024,-0.029l0.023,-0.028l0.021,-0.027l0.019,-0.026l0.017,-0.024l0.015,-0.024l0.014,-0.023l0.012,-0.021l0.01,-0.02l0.01,-0.019l0.007,-0.018l0.007,-0.017l0.005,-0.015l0.005,-0.014l0.003,-0.014l0.003,-0.012l0.002,-0.012l0.002,-0.011l0.001,-0.011l0.001,-0.01l0,-0.011l0,-0.011l-0.001,-0.01l-0.001,-0.011l-0.002,-0.011l-0.002,-0.012l-0.003,-0.012l-0.003,-0.014l-0.005,-0.014l-0.005,-0.015l-0.007,-0.017l-0.007,-0.018l-0.01,-0.019l-0.01,-0.02l-0.012,-0.021l-0.014,-0.023l-0.015,-0.024l-0.017,-0.024l-0.019,-0.026l-0.021,-0.027l-0.023,-0.028l-0.024,-0.029l-0.027,-0.03l-0.029,-0.03l-0.031,-0.032l-0.033,-0.032l-0.035,-0.032l-0.037,-0.033l-0.04,-0.034l-0.041,-0.034l-0.043,-0.034l-0.046,-0.035l-0.047,-0.036l-0.05,-0.035l-0.052,-0.036l-0.053,-0.036l-0.056,-0.036l-0.057,-0.036l-0.06,-0.036l-0.061,-0.036l-0.064,-0.037l-0.065,-0.036l-0.067,-0.037l-0.069,-0.036l-0.071,-0.036l-0.072,-0.037l-0.075,-0.036l-0.076,-0.036l-0.078,-0.036l-0.079,-0.035l-0.082,-0.036l-0.083,-0.036l-0.084,-0.035l-0.087,-0.035l-0.088,-0.035l-0.089,-0.034l-0.091,-0.035l-0.093,-0.034l-0.094,-0.034l-0.096,-0.033l-0.098,-0.034l-0.098,-0.033l-0.101,-0.033l-0.101,-0.032l-0.104,-0.032l-0.104,-0.032l-0.106,-0.031l-0.108,-0.032l-0.107,-0.03l-0.223,-0.061l-0.227,-0.059l-0.232,-0.057l-0.237,-0.056l-0.242,-0.055l-0.247,-0.052l-0.252,-0.051l-0.256,-0.05l-0.261,-0.047l-0.265,-0.046l-0.269,-0.043l-0.273,-0.042l-0.277,-0.04l-0.281,-0.038l-0.285,-0.036l-0.288,-0.033l-0.292,-0.032l-0.295,-0.03l-0.299,-0.027l-0.302,-0.025l-0.305,-0.023l-0.307,-0.021l-0.311,-0.018l-0.313,-0.016l-0.316,-0.014l-0.319,-0.011l-0.321,-0.009l-0.323,-0.006l-0.325,-0.004l-0.328,-0.001l-0.328,0.001Z" style="fill:#fff;"/>
            </g>
        </g>
    </g>
</svg>
