<?xml version="1.0" encoding="UTF-8" standalone="no"?><!DOCTYPE svg PUBLIC "-//W3C//DTD SVG 1.1//EN" "http://www.w3.org/Graphics/SVG/1.1/DTD/svg11.dtd"><svg width="100%" height="100%" viewBox="0 0 32 32" version="1.1" xmlns="http://www.w3.org/2000/svg" xmlns:xlink="http://www.w3.org/1999/xlink" xml:space="preserve" xmlns:serif="http://www.serif.com/" style="fill-rule:evenodd;clip-rule:evenodd;stroke-linecap:round;stroke-miterlimit:3;"><rect id="knife_and_fork" x="0" y="0" width="32" height="32" style="fill:none;"/><clipPath id="_clip1"><rect x="0" y="0" width="32" height="32"/></clipPath><g clip-path="url(#_clip1)"><g id="outline"><path d="M10,29c0,0.265 0.105,0.52 0.293,0.707c0.187,0.188 0.442,0.293 0.707,0.293c0.265,0 0.52,-0.105 0.707,-0.293c0.188,-0.187 0.293,-0.442 0.293,-0.707l0,-18l-2,0l0,18Z" style="fill:none;stroke:#000;stroke-width:4px;"/><path d="M7,9c0,1.061 0.421,2.078 1.172,2.828c0.75,0.751 1.767,1.172 2.828,1.172c0,0 0,0 0,0c1.061,0 2.078,-0.421 2.828,-1.172c0.751,-0.75 1.172,-1.767 1.172,-2.828c0,-3.146 0,-7 0,-7l-2,0l0,6l-1,0l0,-6l-2,0l0,6l-1,0l0,-6l-2,0l0,7Z" style="fill:none;stroke:#000;stroke-width:4px;"/><path d="M21,29c0,0.265 0.105,0.52 0.293,0.707c0.187,0.188 0.442,0.293 0.707,0.293c0.265,0 0.52,-0.105 0.707,-0.293c0.188,-0.187 0.293,-0.442 0.293,-0.707l0,-18l-2,0l0,18Z" style="fill:none;stroke:#000;stroke-width:4px;"/><path d="M17,12c0,3.314 2.686,6 6,6c0,0 0,0 0,0l0,-16l-0.002,0c-3.313,0 -5.998,2.685 -5.998,5.998c0,1.309 0,2.693 0,4.002Z" style="fill:none;stroke:#000;stroke-width:4px;"/></g><g id="emoji"><path d="M10,29c0,0.265 0.105,0.52 0.293,0.707c0.187,0.188 0.442,0.293 0.707,0.293c0.265,0 0.52,-0.105 0.707,-0.293c0.188,-0.187 0.293,-0.442 0.293,-0.707l0,-18l-2,0l0,18Z" style="fill:#cecece;"/><path d="M7,9c0,1.061 0.421,2.078 1.172,2.828c0.75,0.751 1.767,1.172 2.828,1.172c0,0 0,0 0,0c1.061,0 2.078,-0.421 2.828,-1.172c0.751,-0.75 1.172,-1.767 1.172,-2.828c0,-3.146 0,-7 0,-7l-2,0l-0.5,1l-0.5,-1l-2,0l-0.5,1l-0.5,-1l-2,0l0,7Z" style="fill:#cecece;"/><path d="M21,29c0,0.265 0.105,0.52 0.293,0.707c0.187,0.188 0.442,0.293 0.707,0.293c0.265,0 0.52,-0.105 0.707,-0.293c0.188,-0.187 0.293,-0.442 0.293,-0.707l0,-18l-2,0l0,18Z" style="fill:#cecece;"/><path d="M17,12c0,3.314 2.686,6 6,6c0,0 0,0 0,0l0,-16l-0.002,0c-3.313,0 -5.998,2.685 -5.998,5.998c0,1.309 0,2.693 0,4.002Z" style="fill:#cecece;"/><g><rect x="9" y="2" width="1" height="6" style="fill:#666;"/><rect x="12" y="2" width="1" height="6" style="fill:#666;"/></g></g></g></svg>