<?xml version="1.0" encoding="UTF-8" standalone="no"?><!DOCTYPE svg PUBLIC "-//W3C//DTD SVG 1.1//EN" "http://www.w3.org/Graphics/SVG/1.1/DTD/svg11.dtd"><svg width="100%" height="100%" viewBox="0 0 32 32" version="1.1" xmlns="http://www.w3.org/2000/svg" xmlns:xlink="http://www.w3.org/1999/xlink" xml:space="preserve" xmlns:serif="http://www.serif.com/" style="fill-rule:evenodd;clip-rule:evenodd;stroke-linejoin:round;stroke-miterlimit:1.41421;"><rect id="lollipop" x="0" y="0" width="32" height="32" style="fill:none;"/><clipPath id="_clip1"><rect x="0" y="0" width="32" height="32"/></clipPath><g clip-path="url(#_clip1)"><g id="outline"><circle cx="10.5" cy="10.5" r="10.5"/><path d="M29.414,28l-1.414,1.414l-16.414,-16.414l1.414,-1.414l16.414,16.414Z" style="fill:none;stroke:#000;stroke-width:4px;"/><path d="M16.707,3.707c-0.39,-0.39 -1.024,-0.39 -1.414,0c-2.265,2.265 -9.321,9.321 -11.586,11.586c-0.39,0.39 -0.39,1.024 0,1.414c0.19,0.19 0.396,0.396 0.586,0.586c0.39,0.39 1.024,0.39 1.414,0c2.265,-2.265 9.321,-9.321 11.586,-11.586c0.39,-0.39 0.39,-1.024 0,-1.414c-0.19,-0.19 -0.396,-0.396 -0.586,-0.586Z" style="fill:none;stroke:#000;stroke-width:4px;stroke-miterlimit:1.5;"/></g><g id="emoji"><path d="M29.414,28l-1.414,1.414l-16.414,-16.414l1.414,-1.414l16.414,16.414Z" style="fill:#e6e6e6;fill-rule:nonzero;"/><clipPath id="_clip2"><path d="M29.414,28l-1.414,1.414l-16.414,-16.414l1.414,-1.414l16.414,16.414Z" clip-rule="nonzero"/></clipPath><g clip-path="url(#_clip2)"><rect x="10" y="11" width="9" height="14.453" style="fill:#b0b0b0;"/></g><circle cx="10.5" cy="10.5" r="8.5" style="fill:#d21b67;"/><clipPath id="_clip3"><circle cx="10.5" cy="10.5" r="8.5"/></clipPath><g clip-path="url(#_clip3)"><ellipse cx="10.5" cy="10.355" rx="6.5" ry="6.375" style="fill:#be0a55;"/><ellipse cx="10.5" cy="6" rx="4.5" ry="3" style="fill:#f65598;"/><path d="M16.707,3.707c-0.39,-0.39 -1.024,-0.39 -1.414,0c-2.265,2.265 -9.321,9.321 -11.586,11.586c-0.39,0.39 -0.39,1.024 0,1.414c0.19,0.19 0.396,0.396 0.586,0.586c0.39,0.39 1.024,0.39 1.414,0c2.265,-2.265 9.321,-9.321 11.586,-11.586c0.39,-0.39 0.39,-1.024 0,-1.414c-0.19,-0.19 -0.396,-0.396 -0.586,-0.586Z" style="fill:#d21b67;stroke:#9b144c;stroke-width:2px;stroke-miterlimit:1.5;"/></g><path d="M16.707,3.707c-0.39,-0.39 -1.024,-0.39 -1.414,0c-2.265,2.265 -9.321,9.321 -11.586,11.586c-0.39,0.39 -0.39,1.024 0,1.414c0.19,0.19 0.396,0.396 0.586,0.586c0.39,0.39 1.024,0.39 1.414,0c2.265,-2.265 9.321,-9.321 11.586,-11.586c0.39,-0.39 0.39,-1.024 0,-1.414c-0.19,-0.19 -0.396,-0.396 -0.586,-0.586Z" style="fill:#d21b67;"/><clipPath id="_clip4"><path d="M16.707,3.707c-0.39,-0.39 -1.024,-0.39 -1.414,0c-2.265,2.265 -9.321,9.321 -11.586,11.586c-0.39,0.39 -0.39,1.024 0,1.414c0.19,0.19 0.396,0.396 0.586,0.586c0.39,0.39 1.024,0.39 1.414,0c2.265,-2.265 9.321,-9.321 11.586,-11.586c0.39,-0.39 0.39,-1.024 0,-1.414c-0.19,-0.19 -0.396,-0.396 -0.586,-0.586Z"/></clipPath><g clip-path="url(#_clip4)"><ellipse cx="10.5" cy="10.355" rx="7.5" ry="7.355" style="fill:#be0a55;"/><path d="M14.344,3.509c0,0 0.77,0.719 1.388,1.294c0.199,0.185 0.314,0.443 0.319,0.714c0.004,0.272 -0.101,0.533 -0.293,0.725c-0.419,0.419 -0.957,0.957 -1.447,1.447c-0.803,0.803 -1.992,1.084 -3.07,0.725c-0.654,-0.218 -1.241,-0.414 -1.241,-0.414l4.344,-4.491Z" style="fill:#f65598;"/></g></g></g></svg>