<?xml version="1.0" encoding="UTF-8" standalone="no"?>
<!DOCTYPE svg PUBLIC "-//W3C//DTD SVG 1.1//EN" "http://www.w3.org/Graphics/SVG/1.1/DTD/svg11.dtd">
<svg width="100%" height="100%" viewBox="0 0 32 32" version="1.1" xmlns="http://www.w3.org/2000/svg" xmlns:xlink="http://www.w3.org/1999/xlink" xml:space="preserve" xmlns:serif="http://www.serif.com/" style="fill-rule:evenodd;clip-rule:evenodd;stroke-linejoin:round;stroke-miterlimit:2;">
    <rect id="meat_on_bone" x="0" y="0" width="32" height="32" style="fill:none;"/>
    <clipPath id="_clip1">
        <rect x="0" y="0" width="32" height="32"/>
    </clipPath>
    <g clip-path="url(#_clip1)">
        <g id="outline">
            <path d="M27,5l0,-1c0,-0.53 -0.211,-1.039 -0.586,-1.414c-0.375,-0.375 -0.884,-0.586 -1.414,-0.586c-0.53,0 -1.039,0.211 -1.414,0.586c-0.375,0.375 -0.586,0.884 -0.586,1.414c0,1.392 0,3 0,3l-16,16l-3.002,0c-1.103,0 -1.998,0.895 -1.998,1.998c0,0.001 0,0.003 0,0.004c0,1.103 0.895,1.998 1.998,1.998c0.552,0 1.002,0 1.002,0l0,1.002c0,1.103 0.895,1.998 1.998,1.998c0.001,0 0.003,0 0.004,0c1.103,0 1.998,-0.895 1.998,-1.998c0,-1.393 0,-3.002 0,-3.002l16,-16l3,0c0.53,0 1.039,-0.211 1.414,-0.586c0.375,-0.375 0.586,-0.884 0.586,-1.414c0,-0.001 0,-0.001 0,-0.002c0,-1.103 -0.895,-1.998 -1.998,-1.998c-0.552,0 -1.002,0 -1.002,0Z"/>
            <path d="M12.464,7.536c1.953,-1.953 5.119,-1.953 7.072,0c1.554,1.554 3.374,3.374 4.928,4.928c1.953,1.953 1.953,5.119 0,7.072c-1.554,1.554 -3.374,3.374 -4.928,4.928c-1.953,1.953 -5.119,1.953 -7.072,0c-1.554,-1.554 -3.374,-3.374 -4.928,-4.928c-1.953,-1.953 -1.953,-5.119 0,-7.072c1.554,-1.554 3.374,-3.374 4.928,-4.928Z"/>
            <path d="M21,6.168c0,-0.755 -0.008,-1.511 0.001,-2.267c0.016,-0.427 0.089,-0.847 0.233,-1.25c0.21,-0.586 0.558,-1.12 1.008,-1.549c0.38,-0.361 0.829,-0.645 1.318,-0.834c0.43,-0.166 0.881,-0.25 1.341,-0.267c0.099,-0.001 0.099,-0.001 0.198,0c0.427,0.016 0.847,0.089 1.25,0.233c0.898,0.322 1.663,0.966 2.133,1.797c0.19,0.336 0.326,0.696 0.416,1.071c0.086,0.021 0.086,0.021 0.172,0.043c0.156,0.046 0.31,0.097 0.461,0.159c0.362,0.15 0.701,0.354 1.004,0.602c0.789,0.646 1.309,1.589 1.435,2.601c0.044,0.359 0.04,0.725 -0.014,1.084c-0.057,0.386 -0.172,0.765 -0.339,1.118c-0.196,0.415 -0.464,0.795 -0.789,1.12c-0.347,0.347 -0.758,0.629 -1.207,0.828c-0.508,0.225 -1.054,0.336 -1.609,0.343l-2.183,0l0.113,0.114c0.588,0.611 1.076,1.319 1.41,2.101c0.222,0.518 0.385,1.059 0.479,1.615c0.206,1.22 0.084,2.488 -0.352,3.644c-0.224,0.594 -0.53,1.156 -0.905,1.667c-0.176,0.239 -0.367,0.464 -0.57,0.68c-1.674,1.738 -3.401,3.425 -5.118,5.121c-0.611,0.588 -1.319,1.076 -2.101,1.41c-0.518,0.222 -1.059,0.385 -1.615,0.479c-1.219,0.206 -2.488,0.084 -3.644,-0.352c-0.594,-0.224 -1.156,-0.53 -1.667,-0.905c-0.239,-0.176 -0.464,-0.367 -0.68,-0.57c-0.06,-0.057 -0.119,-0.115 -0.179,-0.172c0,0.757 0.009,1.515 -0.001,2.272c-0.007,0.169 -0.019,0.337 -0.045,0.504c-0.06,0.391 -0.178,0.772 -0.349,1.128c-0.167,0.347 -0.385,0.67 -0.644,0.955c-0.28,0.307 -0.607,0.571 -0.967,0.778c-0.864,0.497 -1.902,0.652 -2.874,0.433c-0.445,-0.1 -0.872,-0.277 -1.257,-0.521c-0.417,-0.263 -0.785,-0.604 -1.078,-1.001c-0.328,-0.442 -0.555,-0.947 -0.683,-1.481c-0.066,-0.015 -0.132,-0.033 -0.197,-0.051c-0.158,-0.047 -0.313,-0.099 -0.464,-0.163c-0.356,-0.15 -0.689,-0.353 -0.987,-0.599c-0.32,-0.264 -0.599,-0.578 -0.823,-0.928c-0.193,-0.3 -0.345,-0.627 -0.451,-0.968c-0.296,-0.951 -0.222,-1.999 0.203,-2.899c0.196,-0.415 0.464,-0.795 0.788,-1.12c0.348,-0.347 0.759,-0.629 1.209,-0.828c0.507,-0.225 1.053,-0.336 1.608,-0.343l2.183,0l-0.113,-0.114c-0.588,-0.611 -1.076,-1.319 -1.411,-2.101c-0.221,-0.518 -0.384,-1.059 -0.478,-1.615c-0.206,-1.219 -0.084,-2.488 0.352,-3.644c0.224,-0.594 0.53,-1.156 0.905,-1.667c0.176,-0.238 0.367,-0.464 0.57,-0.68c1.673,-1.739 3.401,-3.425 5.118,-5.121c0.278,-0.267 0.572,-0.514 0.888,-0.734c0.704,-0.491 1.499,-0.849 2.333,-1.053c0.327,-0.08 0.66,-0.136 0.995,-0.168c0.167,-0.016 0.335,-0.024 0.502,-0.03c0.168,-0.002 0.168,-0.002 0.336,0c0.167,0.006 0.335,0.014 0.502,0.03c0.335,0.032 0.668,0.088 0.995,0.168c0.834,0.204 1.629,0.562 2.333,1.053c0.291,0.203 0.564,0.429 0.823,0.672c0.06,0.057 0.119,0.115 0.179,0.172Z"/>
        </g>
        <g id="emoji">
            <path d="M27,5l0,-1c0,-0.53 -0.211,-1.039 -0.586,-1.414c-0.375,-0.375 -0.884,-0.586 -1.414,-0.586c-0.53,0 -1.039,0.211 -1.414,0.586c-0.375,0.375 -0.586,0.884 -0.586,1.414c0,1.392 0,3 0,3l-16,16l-3.002,0c-1.103,0 -1.998,0.895 -1.998,1.998c0,0.001 0,0.003 0,0.004c0,1.103 0.895,1.998 1.998,1.998c0.552,0 1.002,0 1.002,0l0,1.002c0,1.103 0.895,1.998 1.998,1.998c0.001,0 0.003,0 0.004,0c1.103,0 1.998,-0.895 1.998,-1.998c0,-1.393 0,-3.002 0,-3.002l16,-16l3,0c0.53,0 1.039,-0.211 1.414,-0.586c0.375,-0.375 0.586,-0.884 0.586,-1.414c0,-0.001 0,-0.001 0,-0.002c0,-1.103 -0.895,-1.998 -1.998,-1.998c-0.552,0 -1.002,0 -1.002,0Z" style="fill:#d9d9d9;"/>
            <path d="M12.464,7.536c1.953,-1.953 5.119,-1.953 7.072,0c1.554,1.554 3.374,3.374 4.928,4.928c1.953,1.953 1.953,5.119 0,7.072c-1.554,1.554 -3.374,3.374 -4.928,4.928c-1.953,1.953 -5.119,1.953 -7.072,0c-1.554,-1.554 -3.374,-3.374 -4.928,-4.928c-1.953,-1.953 -1.953,-5.119 0,-7.072c1.554,-1.554 3.374,-3.374 4.928,-4.928Z" style="fill:#a25914;"/>
        </g>
    </g>
</svg>
