<?xml version="1.0" encoding="UTF-8" standalone="no"?>
<!DOCTYPE svg PUBLIC "-//W3C//DTD SVG 1.1//EN" "http://www.w3.org/Graphics/SVG/1.1/DTD/svg11.dtd">
<svg width="100%" height="100%" viewBox="0 0 32 32" version="1.1" xmlns="http://www.w3.org/2000/svg" xmlns:xlink="http://www.w3.org/1999/xlink" xml:space="preserve" xmlns:serif="http://www.serif.com/" style="fill-rule:evenodd;clip-rule:evenodd;stroke-linecap:round;stroke-linejoin:round;stroke-miterlimit:1.5;">
    <rect id="pizza" x="0" y="0" width="32" height="32" style="fill:none;"/>
    <g id="outline">
        <path d="M3,5.483c3.953,-2.282 8.436,-3.483 13,-3.483c4.564,0 9.047,1.201 13,3.483l0,0l0,2.017l-13,22.5l-13,-22.5l0,-2.017Z" style="fill:none;stroke:#000;stroke-width:4px;"/>
    </g>
    <g id="emoji">
        <path d="M3,5.483l0,2.017l1.393,2.411l23.214,0l1.393,-2.411l0,-2.017l-26,0Z" style="fill:#64430d;"/>
        <path d="M3,5.483l0,2.017l1.393,2.411l23.214,0l1.393,-2.411l0,-2.017l-26,0Z" style="fill:#64430d;"/>
        <path d="M4.393,7.896l0,2.017l11.607,20.087l11.607,-20.087l0,-2.017l-23.214,0Z" style="fill:#9c6815;"/>
        <path d="M29,5.483c-3.953,-2.282 -8.436,-3.483 -13,-3.483c-4.564,0 -9.047,1.201 -13,3.483c0,0 0.412,0.449 0.788,0.858c0.389,0.424 0.605,0.978 0.605,1.554c0,0 0,0.001 0,0.001l23.214,0c0,0 0,0 0,-0.001c-0.039,-0.57 0.165,-1.13 0.56,-1.543c0.395,-0.412 0.833,-0.869 0.833,-0.869Z" style="fill:#8b5b13;"/>
        <path d="M29,5.483c-3.953,-2.282 -8.436,-3.483 -13,-3.483c-4.564,0 -9.047,1.201 -13,3.483c0,0 0.412,0.449 0.788,0.858c0.389,0.424 0.605,0.978 0.605,1.554c0,0 0,0.001 0,0.001l23.214,0c0,0 0,0 0,-0.001c-0.039,-0.57 0.165,-1.13 0.56,-1.543c0.395,-0.412 0.833,-0.869 0.833,-0.869Z" style="fill:#8b5b13;"/>
        <path d="M27.607,7.896c-3.529,-2.038 -7.532,-3.11 -11.607,-3.11c-4.075,0 -8.078,1.072 -11.607,3.11l11.607,20.104l11.607,-20.104Z" style="fill:#efb03a;"/>
        <clipPath id="_clip1">
            <path d="M27.607,7.896c-3.529,-2.038 -7.532,-3.11 -11.607,-3.11c-4.075,0 -8.078,1.072 -11.607,3.11l11.607,20.104l11.607,-20.104Z"/>
        </clipPath>
        <g clip-path="url(#_clip1)">
            <ellipse cx="10.5" cy="17" rx="3.5" ry="3" style="fill:#db1d1d;"/>
            <path d="M10.59,14.001l0.09,0.003l0.089,0.005l0.089,0.007l0.088,0.008l0.087,0.011l0.086,0.012l0.086,0.014l0.085,0.016l0.084,0.018l0.084,0.019l0.082,0.021l0.082,0.023l0.081,0.024l0.08,0.026l0.079,0.028l0.078,0.029l0.077,0.031l0.076,0.032l0.075,0.034l0.074,0.036l0.072,0.037l0.072,0.038l0.07,0.04l0.07,0.041l0.068,0.042l0.066,0.044l0.066,0.045l0.064,0.047l0.063,0.048l0.061,0.049l0.06,0.05l0.059,0.052l0.057,0.052l0.056,0.054l0.054,0.055l0.053,0.056l0.051,0.058l0.05,0.058l0.048,0.059l0.046,0.061l0.045,0.061l0.043,0.062l0.041,0.064l0.04,0.064l0.038,0.065l0.036,0.066l0.034,0.067l0.032,0.067l0.03,0.069l0.029,0.069l0.027,0.07l0.024,0.071l0.023,0.072l0.02,0.072l0.019,0.073l0.016,0.073l0.015,0.074l0.012,0.075l0.01,0.075l0.008,0.076l0.005,0.077l0.004,0.077l0.001,0.077l-0.001,0.077l-0.004,0.077l-0.005,0.077l-0.008,0.076l-0.01,0.075l-0.012,0.075l-0.015,0.074l-0.016,0.073l-0.019,0.073l-0.02,0.072l-0.023,0.072l-0.024,0.071l-0.027,0.07l-0.029,0.069l-0.03,0.069l-0.032,0.067l-0.034,0.067l-0.036,0.066l-0.038,0.065l-0.04,0.064l-0.041,0.064l-0.043,0.062l-0.045,0.061l-0.046,0.061l-0.048,0.059l-0.05,0.058l-0.051,0.058l-0.053,0.056l-0.054,0.055l-0.056,0.054l-0.057,0.052l-0.059,0.052l-0.06,0.05l-0.061,0.049l-0.063,0.048l-0.064,0.047l-0.066,0.045l-0.066,0.044l-0.068,0.042l-0.07,0.041l-0.07,0.04l-0.072,0.038l-0.072,0.037l-0.074,0.036l-0.075,0.034l-0.076,0.032l-0.077,0.031l-0.078,0.029l-0.079,0.028l-0.08,0.026l-0.081,0.024l-0.082,0.023l-0.082,0.021l-0.084,0.019l-0.084,0.018l-0.085,0.016l-0.086,0.014l-0.086,0.012l-0.087,0.011l-0.088,0.008l-0.089,0.007l-0.089,0.005l-0.09,0.003l-0.09,0.001l-0.09,-0.001l-0.09,-0.003l-0.089,-0.005l-0.089,-0.007l-0.088,-0.008l-0.087,-0.011l-0.086,-0.012l-0.086,-0.014l-0.085,-0.016l-0.084,-0.018l-0.084,-0.019l-0.082,-0.021l-0.082,-0.023l-0.081,-0.024l-0.08,-0.026l-0.079,-0.028l-0.078,-0.029l-0.077,-0.031l-0.076,-0.032l-0.075,-0.034l-0.074,-0.036l-0.072,-0.037l-0.072,-0.038l-0.07,-0.04l-0.07,-0.041l-0.068,-0.042l-0.066,-0.044l-0.066,-0.045l-0.064,-0.047l-0.063,-0.048l-0.061,-0.049l-0.06,-0.05l-0.059,-0.052l-0.057,-0.052l-0.056,-0.054l-0.054,-0.055l-0.053,-0.056l-0.051,-0.058l-0.05,-0.058l-0.048,-0.059l-0.046,-0.061l-0.045,-0.061l-0.043,-0.062l-0.041,-0.064l-0.04,-0.064l-0.038,-0.065l-0.036,-0.066l-0.034,-0.067l-0.032,-0.067l-0.03,-0.069l-0.029,-0.069l-0.027,-0.07l-0.024,-0.071l-0.023,-0.072l-0.02,-0.072l-0.019,-0.073l-0.016,-0.073l-0.015,-0.074l-0.012,-0.075l-0.01,-0.075l-0.008,-0.076l-0.005,-0.077l-0.004,-0.077l-0.001,-0.077l0.001,-0.077l0.004,-0.077l0.005,-0.077l0.008,-0.076l0.01,-0.075l0.012,-0.075l0.015,-0.074l0.016,-0.073l0.019,-0.073l0.02,-0.072l0.023,-0.072l0.024,-0.071l0.027,-0.07l0.029,-0.069l0.03,-0.069l0.032,-0.067l0.034,-0.067l0.036,-0.066l0.038,-0.065l0.04,-0.064l0.041,-0.064l0.043,-0.062l0.045,-0.061l0.046,-0.061l0.048,-0.059l0.05,-0.058l0.051,-0.058l0.053,-0.056l0.054,-0.055l0.056,-0.054l0.057,-0.052l0.059,-0.052l0.06,-0.05l0.061,-0.049l0.063,-0.048l0.064,-0.047l0.066,-0.045l0.066,-0.044l0.068,-0.042l0.07,-0.041l0.07,-0.04l0.072,-0.038l0.072,-0.037l0.074,-0.036l0.075,-0.034l0.076,-0.032l0.077,-0.031l0.078,-0.029l0.079,-0.028l0.08,-0.026l0.081,-0.024l0.082,-0.023l0.082,-0.021l0.084,-0.019l0.084,-0.018l0.085,-0.016l0.086,-0.014l0.086,-0.012l0.087,-0.011l0.088,-0.008l0.089,-0.007l0.089,-0.005l0.09,-0.003l0.09,-0.001l0.09,0.001Zm-0.159,1l-0.068,0.002l-0.067,0.004l-0.067,0.005l-0.066,0.006l-0.066,0.008l-0.065,0.009l-0.064,0.011l-0.064,0.012l-0.063,0.013l-0.062,0.015l-0.061,0.015l-0.061,0.017l-0.06,0.018l-0.059,0.02l-0.059,0.02l-0.057,0.022l-0.057,0.022l-0.056,0.024l-0.054,0.025l-0.054,0.026l-0.053,0.026l-0.052,0.028l-0.051,0.029l-0.05,0.03l-0.049,0.03l-0.047,0.032l-0.047,0.032l-0.046,0.033l-0.044,0.034l-0.043,0.034l-0.043,0.035l-0.04,0.036l-0.04,0.037l-0.039,0.037l-0.037,0.038l-0.036,0.038l-0.035,0.039l-0.033,0.039l-0.033,0.04l-0.031,0.041l-0.029,0.04l-0.029,0.041l-0.027,0.042l-0.025,0.042l-0.025,0.042l-0.023,0.043l-0.022,0.042l-0.021,0.044l-0.019,0.043l-0.018,0.044l-0.017,0.044l-0.015,0.044l-0.014,0.044l-0.013,0.045l-0.011,0.045l-0.01,0.045l-0.009,0.046l-0.008,0.046l-0.006,0.046l-0.005,0.047l-0.003,0.047l-0.002,0.047l-0.001,0.048l0.001,0.048l0.002,0.047l0.003,0.047l0.005,0.047l0.006,0.046l0.008,0.046l0.009,0.046l0.01,0.045l0.011,0.045l0.013,0.045l0.014,0.044l0.015,0.044l0.017,0.044l0.018,0.044l0.019,0.043l0.021,0.043l0.022,0.043l0.023,0.043l0.025,0.042l0.025,0.042l0.027,0.042l0.029,0.041l0.029,0.04l0.031,0.041l0.033,0.04l0.033,0.039l0.035,0.039l0.036,0.038l0.037,0.038l0.039,0.037l0.04,0.037l0.04,0.036l0.043,0.035l0.043,0.034l0.044,0.034l0.046,0.033l0.047,0.032l0.047,0.032l0.049,0.03l0.05,0.03l0.051,0.029l0.052,0.028l0.053,0.026l0.054,0.026l0.054,0.025l0.056,0.024l0.057,0.022l0.057,0.022l0.059,0.02l0.059,0.02l0.06,0.018l0.061,0.017l0.061,0.015l0.062,0.015l0.063,0.013l0.064,0.012l0.064,0.011l0.065,0.009l0.066,0.008l0.066,0.006l0.067,0.005l0.067,0.004l0.068,0.002l0.069,0.001l0.069,-0.001l0.068,-0.002l0.067,-0.004l0.067,-0.005l0.066,-0.006l0.066,-0.008l0.065,-0.009l0.064,-0.011l0.064,-0.012l0.063,-0.013l0.062,-0.015l0.061,-0.015l0.061,-0.017l0.06,-0.018l0.059,-0.02l0.059,-0.02l0.057,-0.022l0.057,-0.022l0.056,-0.024l0.054,-0.025l0.054,-0.026l0.053,-0.026l0.052,-0.028l0.051,-0.029l0.05,-0.03l0.049,-0.03l0.047,-0.032l0.047,-0.032l0.046,-0.033l0.044,-0.034l0.043,-0.034l0.043,-0.035l0.04,-0.036l0.04,-0.037l0.039,-0.037l0.037,-0.038l0.036,-0.038l0.035,-0.039l0.033,-0.04l0.033,-0.039l0.031,-0.041l0.029,-0.04l0.029,-0.042l0.027,-0.041l0.025,-0.042l0.025,-0.042l0.023,-0.043l0.022,-0.043l0.021,-0.043l0.019,-0.043l0.018,-0.044l0.017,-0.044l0.015,-0.044l0.014,-0.044l0.013,-0.045l0.011,-0.045l0.01,-0.045l0.009,-0.046l0.008,-0.046l0.006,-0.046l0.005,-0.047l0.003,-0.047l0.002,-0.047l0.001,-0.048l-0.001,-0.048l-0.002,-0.047l-0.003,-0.047l-0.005,-0.047l-0.006,-0.046l-0.008,-0.046l-0.009,-0.046l-0.01,-0.045l-0.011,-0.045l-0.013,-0.045l-0.014,-0.044l-0.015,-0.044l-0.017,-0.044l-0.018,-0.044l-0.019,-0.043l-0.021,-0.044l-0.022,-0.042l-0.023,-0.043l-0.025,-0.042l-0.025,-0.042l-0.027,-0.041l-0.029,-0.042l-0.029,-0.04l-0.031,-0.041l-0.033,-0.039l-0.033,-0.04l-0.035,-0.039l-0.036,-0.038l-0.037,-0.038l-0.039,-0.037l-0.04,-0.037l-0.04,-0.036l-0.043,-0.035l-0.043,-0.034l-0.044,-0.034l-0.046,-0.033l-0.047,-0.032l-0.047,-0.032l-0.049,-0.03l-0.05,-0.03l-0.051,-0.029l-0.052,-0.028l-0.053,-0.026l-0.054,-0.026l-0.054,-0.025l-0.056,-0.024l-0.057,-0.022l-0.057,-0.022l-0.059,-0.02l-0.059,-0.02l-0.06,-0.018l-0.061,-0.017l-0.061,-0.015l-0.062,-0.015l-0.063,-0.013l-0.064,-0.012l-0.064,-0.011l-0.065,-0.009l-0.066,-0.008l-0.066,-0.006l-0.067,-0.005l-0.067,-0.004l-0.068,-0.002l-0.069,-0.001l-0.069,0.001Z" style="fill:#b52121;"/>
            <ellipse cx="21.5" cy="9" rx="3.5" ry="3" style="fill:#db1d1d;"/>
            <path d="M21.59,6.001l0.09,0.003l0.089,0.005l0.089,0.007l0.088,0.008l0.087,0.011l0.086,0.012l0.086,0.014l0.085,0.016l0.084,0.018l0.084,0.019l0.082,0.021l0.082,0.023l0.081,0.024l0.08,0.026l0.079,0.028l0.078,0.029l0.077,0.031l0.076,0.032l0.075,0.034l0.074,0.036l0.072,0.037l0.072,0.038l0.07,0.04l0.07,0.041l0.068,0.042l0.066,0.044l0.066,0.045l0.064,0.047l0.063,0.048l0.061,0.049l0.06,0.05l0.059,0.052l0.057,0.052l0.056,0.054l0.054,0.055l0.053,0.056l0.051,0.058l0.05,0.058l0.048,0.059l0.046,0.061l0.045,0.061l0.043,0.062l0.041,0.064l0.04,0.064l0.038,0.065l0.036,0.066l0.034,0.067l0.032,0.067l0.03,0.069l0.029,0.069l0.027,0.07l0.024,0.071l0.023,0.072l0.02,0.072l0.019,0.073l0.016,0.073l0.015,0.074l0.012,0.075l0.01,0.075l0.008,0.076l0.005,0.077l0.004,0.077l0.001,0.077l-0.001,0.077l-0.004,0.077l-0.005,0.077l-0.008,0.076l-0.01,0.075l-0.012,0.075l-0.015,0.074l-0.016,0.073l-0.019,0.073l-0.02,0.072l-0.023,0.072l-0.024,0.071l-0.027,0.07l-0.029,0.069l-0.03,0.069l-0.032,0.067l-0.034,0.067l-0.036,0.066l-0.038,0.065l-0.04,0.064l-0.041,0.064l-0.043,0.062l-0.045,0.061l-0.046,0.061l-0.048,0.059l-0.05,0.058l-0.051,0.058l-0.053,0.056l-0.054,0.055l-0.056,0.054l-0.057,0.052l-0.059,0.052l-0.06,0.05l-0.061,0.049l-0.063,0.048l-0.064,0.047l-0.066,0.045l-0.066,0.044l-0.068,0.042l-0.07,0.041l-0.07,0.04l-0.072,0.038l-0.072,0.037l-0.074,0.036l-0.075,0.034l-0.076,0.032l-0.077,0.031l-0.078,0.029l-0.079,0.028l-0.08,0.026l-0.081,0.024l-0.082,0.023l-0.082,0.021l-0.084,0.019l-0.084,0.018l-0.085,0.016l-0.086,0.014l-0.086,0.012l-0.087,0.011l-0.088,0.008l-0.089,0.007l-0.089,0.005l-0.09,0.003l-0.09,0.001l-0.09,-0.001l-0.09,-0.003l-0.089,-0.005l-0.089,-0.007l-0.088,-0.008l-0.087,-0.011l-0.086,-0.012l-0.086,-0.014l-0.085,-0.016l-0.084,-0.018l-0.084,-0.019l-0.082,-0.021l-0.082,-0.023l-0.081,-0.024l-0.08,-0.026l-0.079,-0.028l-0.078,-0.029l-0.077,-0.031l-0.076,-0.032l-0.075,-0.034l-0.074,-0.036l-0.072,-0.037l-0.072,-0.038l-0.07,-0.04l-0.07,-0.041l-0.068,-0.042l-0.066,-0.044l-0.066,-0.045l-0.064,-0.047l-0.063,-0.048l-0.061,-0.049l-0.06,-0.05l-0.059,-0.052l-0.057,-0.052l-0.056,-0.054l-0.054,-0.055l-0.053,-0.056l-0.051,-0.058l-0.05,-0.058l-0.048,-0.059l-0.046,-0.061l-0.045,-0.061l-0.043,-0.062l-0.041,-0.064l-0.04,-0.064l-0.038,-0.065l-0.036,-0.066l-0.034,-0.067l-0.032,-0.067l-0.03,-0.069l-0.029,-0.069l-0.027,-0.07l-0.024,-0.071l-0.023,-0.072l-0.02,-0.072l-0.019,-0.073l-0.016,-0.073l-0.015,-0.074l-0.012,-0.075l-0.01,-0.075l-0.008,-0.076l-0.005,-0.077l-0.004,-0.077l-0.001,-0.077l0.001,-0.077l0.004,-0.077l0.005,-0.077l0.008,-0.076l0.01,-0.075l0.012,-0.075l0.015,-0.074l0.016,-0.073l0.019,-0.073l0.02,-0.072l0.023,-0.072l0.024,-0.071l0.027,-0.07l0.029,-0.069l0.03,-0.069l0.032,-0.067l0.034,-0.067l0.036,-0.066l0.038,-0.065l0.04,-0.064l0.041,-0.064l0.043,-0.062l0.045,-0.061l0.046,-0.061l0.048,-0.059l0.05,-0.058l0.051,-0.058l0.053,-0.056l0.054,-0.055l0.056,-0.054l0.057,-0.052l0.059,-0.052l0.06,-0.05l0.061,-0.049l0.063,-0.048l0.064,-0.047l0.066,-0.045l0.066,-0.044l0.068,-0.042l0.07,-0.041l0.07,-0.04l0.072,-0.038l0.072,-0.037l0.074,-0.036l0.075,-0.034l0.076,-0.032l0.077,-0.031l0.078,-0.029l0.079,-0.028l0.08,-0.026l0.081,-0.024l0.082,-0.023l0.082,-0.021l0.084,-0.019l0.084,-0.018l0.085,-0.016l0.086,-0.014l0.086,-0.012l0.087,-0.011l0.088,-0.008l0.089,-0.007l0.089,-0.005l0.09,-0.003l0.09,-0.001l0.09,0.001Zm-0.159,1l-0.068,0.002l-0.067,0.004l-0.067,0.005l-0.066,0.006l-0.066,0.008l-0.065,0.009l-0.064,0.011l-0.064,0.012l-0.063,0.013l-0.062,0.015l-0.061,0.015l-0.061,0.017l-0.06,0.018l-0.059,0.02l-0.059,0.02l-0.057,0.022l-0.057,0.022l-0.056,0.024l-0.054,0.025l-0.054,0.026l-0.053,0.026l-0.052,0.028l-0.051,0.029l-0.05,0.03l-0.049,0.03l-0.048,0.032l-0.046,0.032l-0.046,0.033l-0.044,0.034l-0.043,0.034l-0.043,0.035l-0.04,0.036l-0.04,0.037l-0.039,0.037l-0.037,0.038l-0.036,0.038l-0.035,0.039l-0.033,0.039l-0.033,0.04l-0.031,0.041l-0.029,0.04l-0.029,0.042l-0.027,0.041l-0.025,0.042l-0.025,0.042l-0.023,0.043l-0.022,0.043l-0.021,0.043l-0.019,0.043l-0.018,0.044l-0.017,0.044l-0.015,0.044l-0.014,0.044l-0.013,0.045l-0.011,0.045l-0.01,0.045l-0.009,0.046l-0.008,0.046l-0.006,0.046l-0.005,0.047l-0.003,0.047l-0.002,0.047l-0.001,0.048l0.001,0.048l0.002,0.047l0.003,0.047l0.005,0.047l0.006,0.046l0.008,0.046l0.009,0.046l0.01,0.045l0.011,0.045l0.013,0.045l0.014,0.044l0.015,0.044l0.017,0.044l0.018,0.044l0.019,0.043l0.021,0.043l0.022,0.043l0.023,0.043l0.025,0.042l0.025,0.042l0.027,0.041l0.029,0.042l0.029,0.04l0.031,0.041l0.033,0.04l0.033,0.039l0.035,0.039l0.036,0.038l0.037,0.038l0.039,0.037l0.04,0.037l0.04,0.036l0.043,0.035l0.043,0.034l0.044,0.034l0.046,0.033l0.046,0.032l0.048,0.032l0.049,0.03l0.05,0.03l0.051,0.029l0.052,0.028l0.053,0.026l0.054,0.026l0.054,0.025l0.056,0.024l0.057,0.022l0.057,0.022l0.059,0.02l0.059,0.02l0.06,0.018l0.06,0.017l0.062,0.015l0.062,0.015l0.063,0.013l0.064,0.012l0.064,0.011l0.065,0.009l0.066,0.008l0.066,0.006l0.067,0.005l0.067,0.004l0.068,0.002l0.069,0.001l0.069,-0.001l0.068,-0.002l0.067,-0.004l0.067,-0.005l0.066,-0.006l0.066,-0.008l0.065,-0.009l0.064,-0.011l0.064,-0.012l0.063,-0.013l0.062,-0.015l0.062,-0.015l0.06,-0.017l0.06,-0.018l0.059,-0.02l0.059,-0.02l0.057,-0.022l0.057,-0.022l0.056,-0.024l0.054,-0.025l0.054,-0.026l0.053,-0.026l0.052,-0.028l0.051,-0.029l0.05,-0.03l0.049,-0.03l0.048,-0.032l0.046,-0.032l0.046,-0.033l0.044,-0.034l0.043,-0.034l0.043,-0.035l0.04,-0.036l0.04,-0.037l0.039,-0.037l0.037,-0.038l0.036,-0.038l0.035,-0.039l0.033,-0.039l0.033,-0.04l0.031,-0.041l0.029,-0.04l0.029,-0.042l0.027,-0.041l0.025,-0.042l0.025,-0.042l0.023,-0.043l0.022,-0.043l0.021,-0.043l0.019,-0.043l0.018,-0.044l0.017,-0.044l0.015,-0.044l0.014,-0.044l0.013,-0.045l0.011,-0.045l0.01,-0.045l0.009,-0.046l0.008,-0.046l0.006,-0.046l0.005,-0.047l0.003,-0.047l0.002,-0.047l0.001,-0.048l-0.001,-0.048l-0.002,-0.047l-0.003,-0.047l-0.005,-0.047l-0.006,-0.046l-0.008,-0.046l-0.009,-0.046l-0.01,-0.045l-0.011,-0.045l-0.013,-0.045l-0.014,-0.044l-0.015,-0.044l-0.017,-0.044l-0.018,-0.044l-0.019,-0.043l-0.021,-0.043l-0.022,-0.043l-0.023,-0.043l-0.025,-0.042l-0.025,-0.042l-0.027,-0.041l-0.029,-0.042l-0.029,-0.04l-0.031,-0.041l-0.033,-0.04l-0.033,-0.039l-0.035,-0.039l-0.036,-0.038l-0.037,-0.038l-0.039,-0.037l-0.04,-0.037l-0.04,-0.036l-0.043,-0.035l-0.043,-0.034l-0.044,-0.034l-0.046,-0.033l-0.046,-0.032l-0.048,-0.032l-0.049,-0.03l-0.05,-0.03l-0.051,-0.029l-0.052,-0.028l-0.053,-0.026l-0.054,-0.026l-0.054,-0.025l-0.056,-0.024l-0.057,-0.022l-0.057,-0.022l-0.059,-0.02l-0.059,-0.02l-0.06,-0.018l-0.061,-0.017l-0.061,-0.015l-0.062,-0.015l-0.063,-0.013l-0.064,-0.012l-0.064,-0.011l-0.065,-0.009l-0.066,-0.008l-0.066,-0.006l-0.067,-0.005l-0.067,-0.004l-0.068,-0.002l-0.069,-0.001l-0.069,0.001Z" style="fill:#b52121;"/>
            <path d="M14.957,6.611c0.073,-0.076 0.174,-0.117 0.279,-0.113c0.106,0.003 0.204,0.052 0.271,0.133c0.252,0.222 0.552,0.586 0.772,0.854c0.165,0.201 0.149,0.495 -0.037,0.677c-1.011,0.693 -3.189,0.979 -4.51,-0.03c-0.106,-0.096 -0.163,-0.235 -0.156,-0.379c0.007,-0.143 0.078,-0.275 0.194,-0.36c0.296,-0.246 0.692,-0.538 0.941,-0.721c0.172,-0.127 0.411,-0.104 0.557,0.051c0.403,0.244 1.216,0.148 1.689,-0.112Z" style="fill:#397429;"/>
            <path d="M17.434,11.217c0.124,0.062 0.216,0.172 0.256,0.305c0.039,0.133 0.022,0.276 -0.048,0.395c-0.853,1.403 -2.076,2.301 -2.734,2.713c-0.118,0.068 -0.259,0.085 -0.39,0.046c-0.131,-0.04 -0.239,-0.131 -0.3,-0.253c-0.145,-0.278 -0.322,-0.63 -0.457,-0.901c-0.116,-0.233 -0.033,-0.516 0.19,-0.651c0.879,-0.569 1.57,-1.456 1.915,-1.951c0.139,-0.207 0.409,-0.277 0.632,-0.166c0.264,0.127 0.617,0.304 0.936,0.463Z" style="fill:#397429;"/>
            <path d="M8.351,7.825c0.135,-0.068 0.293,-0.07 0.431,-0.008c0.137,0.063 0.239,0.185 0.276,0.331c0.268,0.73 0.973,1.519 1.789,1.827c0.138,0.037 0.252,0.134 0.31,0.264c0.059,0.13 0.056,0.28 -0.008,0.408c-0.119,0.293 -0.286,0.628 -0.411,0.878c-0.113,0.226 -0.376,0.332 -0.614,0.248c-1.754,-0.615 -2.52,-1.842 -2.891,-2.914c-0.076,-0.234 0.031,-0.487 0.25,-0.597c0.251,-0.129 0.587,-0.297 0.868,-0.437Z" style="fill:#397429;"/>
            <path d="M17.183,16.155c-0.087,-0.257 0.048,-0.538 0.304,-0.63c1.392,-0.499 2.607,-0.402 3.74,0.192c0.123,0.066 0.213,0.182 0.245,0.319c0.033,0.136 0.006,0.28 -0.074,0.396c-0.175,0.265 -0.405,0.596 -0.584,0.855c-0.076,0.11 -0.193,0.185 -0.325,0.207c-0.131,0.023 -0.267,-0.007 -0.376,-0.085c-0.527,-0.34 -1.264,-0.352 -1.906,-0.036c-0.123,0.067 -0.269,0.077 -0.399,0.025c-0.131,-0.051 -0.232,-0.157 -0.276,-0.289c-0.129,-0.3 -0.254,-0.671 -0.349,-0.954Z" style="fill:#306223;"/>
            <path d="M17.043,20.377c0.127,-0.041 0.266,-0.029 0.384,0.034c0.119,0.062 0.207,0.169 0.246,0.297c0.273,0.94 0.868,1.541 1.769,1.814c0.134,0.04 0.244,0.135 0.302,0.261c0.059,0.127 0.061,0.272 0.005,0.399c-0.119,0.308 -0.279,0.674 -0.395,0.939c-0.096,0.219 -0.333,0.339 -0.566,0.288c-1.568,-0.363 -2.555,-1.429 -3.035,-3.112c-0.073,-0.257 0.071,-0.525 0.325,-0.607c0.287,-0.097 0.665,-0.218 0.965,-0.313Z" style="fill:#397429;"/>
        </g>
    </g>
</svg>
