<?xml version="1.0" encoding="UTF-8" standalone="no"?>
<!DOCTYPE svg PUBLIC "-//W3C//DTD SVG 1.1//EN" "http://www.w3.org/Graphics/SVG/1.1/DTD/svg11.dtd">
<svg width="100%" height="100%" viewBox="0 0 32 32" version="1.1" xmlns="http://www.w3.org/2000/svg" xmlns:xlink="http://www.w3.org/1999/xlink" xml:space="preserve" xmlns:serif="http://www.serif.com/" style="fill-rule:evenodd;clip-rule:evenodd;stroke-linecap:round;stroke-linejoin:round;stroke-miterlimit:1.5;">
    <rect id="rice" x="0" y="0" width="32" height="32" style="fill:none;"/>
    <g id="outline">
        <path d="M5.385,12.692c1.437,-5.039 5.649,-8.692 10.615,-8.692c4.966,0 9.178,3.653 10.615,8.692c1.502,0.652 2.385,1.449 2.385,2.308c0,4.63 -2.84,8.647 -7,10.648l0,1.352c0,1.104 -2.689,2 -6,2c-3.311,0 -6,-0.896 -6,-2l0,-1.352c-4.16,-2.001 -7,-6.018 -7,-10.648c0,0 0,0 0,0c0,-0.859 0.883,-1.656 2.385,-2.308Z" style="fill:none;stroke:#000;stroke-width:4px;"/>
    </g>
    <g id="emoji">
        <path d="M22,27c0,1.104 -2.689,2 -6,2c-3.311,0 -6,-0.896 -6,-2l0,-2l12,0l0,2Z" style="fill:#353535;"/>
        <path d="M29,15c0,6.627 -5.82,12 -13,12c-0.776,0 -1.535,-0.063 -2.274,-0.183l-2.029,-1.441c-1.104,-1.545 -1.697,-3.397 -1.697,-5.295l1,-5.081l5,0l13,0Zm-23,0l1,3.067c0,1.95 0.36,3.924 0.079,5.662c-2.512,-2.188 -4.079,-5.29 -4.079,-8.729l3,0Z" style="fill:#4f4f4f;"/>
        <path d="M11,15l0,5.081c0,1.898 0.593,3.75 1.697,5.295l1.029,1.441c-2.549,-0.415 -4.842,-1.516 -6.647,-3.088c-0.709,-1.793 -1.079,-3.712 -1.079,-5.662l0,-3.067l5,0Z" style="fill:#808080;"/>
        <ellipse cx="16" cy="15" rx="12.452" ry="3.447" style="fill:#464646;"/>
        <rect x="2" y="10" width="28" height="5" style="fill:none;"/>
        <clipPath id="_clip1">
            <rect x="2" y="10" width="28" height="5"/>
        </clipPath>
        <g clip-path="url(#_clip1)">
            <path d="M16.335,11.001l0.334,0.004l0.331,0.007l0.328,0.009l0.327,0.011l0.324,0.014l0.321,0.017l0.319,0.018l0.315,0.022l0.313,0.023l0.31,0.026l0.307,0.028l0.304,0.03l0.3,0.033l0.297,0.035l0.293,0.037l0.29,0.039l0.286,0.041l0.282,0.043l0.278,0.045l0.275,0.047l0.27,0.049l0.266,0.052l0.261,0.053l0.257,0.054l0.253,0.057l0.248,0.059l0.243,0.06l0.239,0.062l0.233,0.064l0.115,0.032l0.113,0.033l0.113,0.033l0.111,0.034l0.109,0.034l0.109,0.035l0.107,0.035l0.105,0.035l0.104,0.036l0.103,0.036l0.102,0.036l0.1,0.037l0.099,0.037l0.097,0.038l0.096,0.038l0.094,0.038l0.093,0.039l0.091,0.039l0.09,0.039l0.089,0.04l0.086,0.04l0.086,0.041l0.084,0.04l0.082,0.042l0.081,0.041l0.079,0.042l0.077,0.042l0.076,0.042l0.074,0.043l0.073,0.043l0.071,0.043l0.069,0.043l0.068,0.044l0.066,0.044l0.064,0.045l0.063,0.045l0.061,0.045l0.059,0.045l0.057,0.045l0.056,0.046l0.053,0.046l0.052,0.047l0.051,0.046l0.048,0.047l0.047,0.047l0.044,0.047l0.043,0.048l0.041,0.048l0.04,0.048l0.037,0.048l0.035,0.049l0.034,0.048l0.031,0.049l0.03,0.049l0.027,0.05l0.026,0.049l0.024,0.05l0.021,0.05l0.02,0.05l0.018,0.05l0.015,0.051l0.014,0.05l0.012,0.051l0.009,0.051l0.007,0.051l0.006,0.052l0.003,0.051l0.001,0.052l-0.001,0.052l-0.003,0.051l-0.006,0.052l-0.007,0.051l-0.009,0.051l-0.012,0.051l-0.014,0.05l-0.015,0.051l-0.018,0.05l-0.02,0.05l-0.021,0.05l-0.024,0.05l-0.026,0.049l-0.027,0.05l-0.03,0.049l-0.031,0.049l-0.034,0.048l-0.035,0.049l-0.037,0.048l-0.04,0.048l-0.041,0.048l-0.043,0.048l-0.044,0.047l-0.047,0.047l-0.048,0.047l-0.051,0.046l-0.052,0.047l-0.053,0.046l-0.056,0.046l-0.057,0.045l-0.059,0.045l-0.061,0.045l-0.063,0.045l-0.064,0.045l-0.066,0.044l-0.068,0.044l-0.069,0.043l-0.071,0.043l-0.073,0.043l-0.074,0.043l-0.076,0.042l-0.077,0.042l-0.079,0.042l-0.081,0.041l-0.082,0.042l-0.084,0.04l-0.086,0.041l-0.086,0.04l-0.089,0.04l-0.09,0.039l-0.091,0.039l-0.093,0.039l-0.094,0.038l-0.096,0.038l-0.097,0.038l-0.099,0.037l-0.1,0.037l-0.102,0.036l-0.103,0.036l-0.104,0.036l-0.105,0.035l-0.107,0.035l-0.109,0.035l-0.109,0.034l-0.111,0.034l-0.113,0.033l-0.113,0.033l-0.115,0.032l-0.233,0.064l-0.239,0.062l-0.243,0.06l-0.248,0.059l-0.253,0.057l-0.257,0.054l-0.261,0.053l-0.266,0.052l-0.27,0.049l-0.275,0.047l-0.278,0.045l-0.282,0.043l-0.286,0.041l-0.29,0.039l-0.293,0.037l-0.297,0.035l-0.3,0.033l-0.304,0.03l-0.307,0.028l-0.31,0.026l-0.313,0.023l-0.315,0.022l-0.319,0.018l-0.321,0.017l-0.324,0.014l-0.327,0.011l-0.328,0.009l-0.331,0.007l-0.334,0.004l-0.335,0.001l-0.335,-0.001l-0.334,-0.004l-0.331,-0.007l-0.328,-0.009l-0.327,-0.011l-0.324,-0.014l-0.321,-0.017l-0.319,-0.018l-0.315,-0.022l-0.313,-0.023l-0.31,-0.026l-0.307,-0.028l-0.304,-0.03l-0.3,-0.033l-0.297,-0.035l-0.293,-0.037l-0.29,-0.039l-0.286,-0.041l-0.282,-0.043l-0.278,-0.045l-0.275,-0.047l-0.27,-0.049l-0.266,-0.052l-0.261,-0.053l-0.257,-0.054l-0.253,-0.057l-0.248,-0.059l-0.243,-0.06l-0.239,-0.062l-0.233,-0.064l-0.115,-0.032l-0.113,-0.033l-0.113,-0.033l-0.111,-0.034l-0.109,-0.034l-0.109,-0.035l-0.107,-0.035l-0.105,-0.035l-0.104,-0.036l-0.103,-0.036l-0.102,-0.036l-0.1,-0.037l-0.099,-0.037l-0.097,-0.038l-0.096,-0.038l-0.094,-0.038l-0.093,-0.039l-0.091,-0.039l-0.09,-0.039l-0.089,-0.04l-0.086,-0.04l-0.086,-0.041l-0.084,-0.04l-0.082,-0.042l-0.081,-0.041l-0.079,-0.042l-0.077,-0.042l-0.076,-0.042l-0.074,-0.043l-0.073,-0.043l-0.071,-0.043l-0.069,-0.043l-0.068,-0.044l-0.066,-0.044l-0.064,-0.045l-0.063,-0.045l-0.061,-0.045l-0.059,-0.045l-0.057,-0.045l-0.056,-0.046l-0.053,-0.046l-0.052,-0.047l-0.051,-0.046l-0.048,-0.047l-0.047,-0.047l-0.044,-0.047l-0.043,-0.048l-0.041,-0.048l-0.04,-0.048l-0.037,-0.048l-0.035,-0.049l-0.034,-0.048l-0.031,-0.049l-0.03,-0.049l-0.027,-0.05l-0.026,-0.049l-0.024,-0.05l-0.021,-0.05l-0.02,-0.05l-0.018,-0.05l-0.015,-0.051l-0.014,-0.05l-0.012,-0.051l-0.009,-0.051l-0.007,-0.051l-0.006,-0.052l-0.003,-0.051l-0.001,-0.052l0.001,-0.052l0.003,-0.051l0.006,-0.052l0.007,-0.051l0.009,-0.051l0.012,-0.051l0.014,-0.05l0.015,-0.051l0.018,-0.05l0.02,-0.05l0.021,-0.05l0.024,-0.05l0.026,-0.049l0.027,-0.05l0.03,-0.049l0.031,-0.049l0.034,-0.048l0.035,-0.049l0.037,-0.048l0.04,-0.048l0.041,-0.048l0.043,-0.048l0.044,-0.047l0.047,-0.047l0.048,-0.047l0.051,-0.046l0.052,-0.047l0.053,-0.046l0.056,-0.046l0.057,-0.045l0.059,-0.045l0.061,-0.045l0.063,-0.045l0.064,-0.045l0.066,-0.044l0.068,-0.044l0.069,-0.043l0.071,-0.043l0.073,-0.043l0.074,-0.043l0.076,-0.042l0.077,-0.042l0.079,-0.042l0.081,-0.041l0.082,-0.042l0.084,-0.04l0.086,-0.041l0.086,-0.04l0.089,-0.04l0.09,-0.039l0.091,-0.039l0.093,-0.039l0.094,-0.038l0.096,-0.038l0.097,-0.038l0.099,-0.037l0.1,-0.037l0.102,-0.036l0.103,-0.036l0.104,-0.036l0.105,-0.035l0.107,-0.035l0.109,-0.035l0.109,-0.034l0.111,-0.034l0.113,-0.033l0.113,-0.033l0.115,-0.032l0.233,-0.064l0.239,-0.062l0.243,-0.06l0.248,-0.059l0.253,-0.057l0.257,-0.054l0.261,-0.053l0.266,-0.052l0.27,-0.049l0.275,-0.047l0.278,-0.045l0.282,-0.043l0.286,-0.041l0.29,-0.039l0.293,-0.037l0.297,-0.035l0.3,-0.033l0.304,-0.03l0.307,-0.028l0.31,-0.026l0.313,-0.023l0.315,-0.022l0.319,-0.018l0.321,-0.017l0.324,-0.014l0.327,-0.011l0.328,-0.009l0.331,-0.007l0.334,-0.004l0.335,-0.001l0.335,0.001Zm-0.663,1l-0.325,0.004l-0.323,0.006l-0.321,0.009l-0.319,0.011l-0.316,0.014l-0.313,0.016l-0.311,0.018l-0.307,0.021l-0.305,0.023l-0.302,0.025l-0.299,0.027l-0.295,0.03l-0.292,0.032l-0.288,0.033l-0.285,0.036l-0.281,0.038l-0.277,0.04l-0.273,0.042l-0.269,0.043l-0.265,0.046l-0.261,0.047l-0.256,0.05l-0.252,0.051l-0.247,0.052l-0.242,0.055l-0.237,0.056l-0.232,0.057l-0.227,0.059l-0.223,0.061l-0.107,0.03l-0.108,0.032l-0.106,0.031l-0.104,0.032l-0.104,0.032l-0.101,0.032l-0.101,0.033l-0.099,0.033l-0.097,0.034l-0.096,0.033l-0.094,0.034l-0.093,0.034l-0.091,0.035l-0.089,0.034l-0.088,0.035l-0.087,0.035l-0.084,0.035l-0.083,0.036l-0.082,0.036l-0.079,0.035l-0.078,0.036l-0.076,0.036l-0.075,0.036l-0.072,0.037l-0.071,0.036l-0.069,0.036l-0.067,0.037l-0.065,0.036l-0.064,0.037l-0.061,0.036l-0.06,0.036l-0.057,0.036l-0.056,0.036l-0.053,0.036l-0.052,0.036l-0.05,0.035l-0.047,0.036l-0.046,0.035l-0.043,0.034l-0.041,0.034l-0.04,0.034l-0.037,0.033l-0.035,0.032l-0.033,0.032l-0.031,0.032l-0.029,0.03l-0.027,0.03l-0.024,0.029l-0.023,0.028l-0.021,0.027l-0.019,0.025l-0.017,0.025l-0.015,0.024l-0.014,0.023l-0.012,0.021l-0.01,0.02l-0.01,0.019l-0.007,0.018l-0.007,0.017l-0.005,0.015l-0.005,0.014l-0.003,0.014l-0.003,0.012l-0.002,0.012l-0.002,0.011l-0.001,0.011l-0.001,0.011l0,0.01l0,0.01l0.001,0.011l0.001,0.011l0.002,0.011l0.002,0.012l0.003,0.012l0.003,0.014l0.005,0.014l0.005,0.015l0.007,0.017l0.007,0.018l0.01,0.019l0.01,0.02l0.012,0.021l0.014,0.023l0.015,0.024l0.017,0.024l0.019,0.026l0.021,0.027l0.023,0.028l0.024,0.029l0.027,0.03l0.029,0.03l0.031,0.032l0.033,0.032l0.035,0.032l0.037,0.033l0.04,0.034l0.041,0.034l0.043,0.034l0.046,0.035l0.047,0.036l0.05,0.035l0.052,0.036l0.053,0.036l0.056,0.036l0.057,0.036l0.06,0.036l0.061,0.036l0.064,0.037l0.065,0.036l0.067,0.037l0.069,0.036l0.071,0.036l0.072,0.037l0.075,0.036l0.076,0.036l0.078,0.036l0.079,0.035l0.082,0.036l0.083,0.036l0.084,0.035l0.087,0.035l0.088,0.035l0.089,0.034l0.091,0.035l0.093,0.034l0.094,0.034l0.096,0.033l0.098,0.034l0.098,0.033l0.101,0.033l0.101,0.032l0.104,0.032l0.104,0.032l0.106,0.031l0.108,0.032l0.107,0.03l0.223,0.061l0.227,0.059l0.232,0.057l0.237,0.056l0.242,0.055l0.247,0.052l0.252,0.051l0.256,0.05l0.261,0.047l0.265,0.046l0.269,0.043l0.273,0.042l0.277,0.04l0.281,0.038l0.285,0.036l0.288,0.033l0.292,0.032l0.295,0.03l0.299,0.027l0.302,0.025l0.305,0.023l0.307,0.021l0.311,0.018l0.313,0.016l0.316,0.014l0.319,0.011l0.321,0.009l0.323,0.006l0.325,0.004l0.328,0.001l0.327,-0.001l0.326,-0.004l0.323,-0.006l0.321,-0.009l0.319,-0.011l0.316,-0.014l0.313,-0.016l0.311,-0.018l0.307,-0.021l0.305,-0.023l0.302,-0.025l0.299,-0.027l0.295,-0.03l0.292,-0.032l0.288,-0.033l0.285,-0.036l0.281,-0.038l0.277,-0.04l0.273,-0.042l0.269,-0.043l0.265,-0.046l0.261,-0.047l0.256,-0.05l0.252,-0.051l0.247,-0.052l0.242,-0.055l0.237,-0.056l0.232,-0.057l0.227,-0.059l0.223,-0.061l0.107,-0.03l0.108,-0.032l0.106,-0.031l0.104,-0.032l0.104,-0.032l0.101,-0.032l0.101,-0.033l0.098,-0.033l0.098,-0.034l0.096,-0.033l0.094,-0.034l0.093,-0.034l0.091,-0.035l0.089,-0.034l0.088,-0.035l0.087,-0.035l0.084,-0.035l0.083,-0.036l0.082,-0.036l0.079,-0.035l0.078,-0.036l0.076,-0.036l0.075,-0.036l0.072,-0.037l0.071,-0.036l0.069,-0.036l0.067,-0.037l0.065,-0.036l0.064,-0.037l0.061,-0.036l0.06,-0.036l0.057,-0.036l0.056,-0.036l0.053,-0.036l0.052,-0.036l0.05,-0.035l0.047,-0.036l0.046,-0.034l0.043,-0.035l0.041,-0.034l0.04,-0.034l0.037,-0.033l0.035,-0.032l0.033,-0.032l0.031,-0.032l0.029,-0.03l0.027,-0.03l0.024,-0.029l0.023,-0.028l0.021,-0.027l0.019,-0.026l0.017,-0.024l0.015,-0.024l0.014,-0.023l0.012,-0.021l0.01,-0.02l0.01,-0.019l0.007,-0.018l0.007,-0.017l0.005,-0.015l0.005,-0.014l0.003,-0.014l0.003,-0.012l0.002,-0.012l0.002,-0.011l0.001,-0.011l0.001,-0.01l0,-0.011l0,-0.011l-0.001,-0.01l-0.001,-0.011l-0.002,-0.011l-0.002,-0.012l-0.003,-0.012l-0.003,-0.014l-0.005,-0.014l-0.005,-0.015l-0.007,-0.017l-0.007,-0.018l-0.01,-0.019l-0.01,-0.02l-0.012,-0.021l-0.014,-0.023l-0.015,-0.024l-0.017,-0.024l-0.019,-0.026l-0.021,-0.027l-0.023,-0.028l-0.024,-0.029l-0.027,-0.03l-0.029,-0.03l-0.031,-0.032l-0.033,-0.032l-0.035,-0.032l-0.037,-0.033l-0.04,-0.034l-0.041,-0.034l-0.043,-0.035l-0.046,-0.034l-0.047,-0.036l-0.05,-0.035l-0.052,-0.036l-0.053,-0.036l-0.056,-0.036l-0.057,-0.036l-0.06,-0.036l-0.061,-0.036l-0.064,-0.037l-0.065,-0.036l-0.067,-0.037l-0.069,-0.036l-0.071,-0.036l-0.072,-0.037l-0.075,-0.036l-0.076,-0.036l-0.078,-0.036l-0.079,-0.035l-0.082,-0.036l-0.083,-0.036l-0.084,-0.035l-0.087,-0.035l-0.088,-0.035l-0.089,-0.034l-0.091,-0.035l-0.093,-0.034l-0.094,-0.034l-0.096,-0.033l-0.097,-0.034l-0.099,-0.033l-0.101,-0.033l-0.101,-0.032l-0.104,-0.032l-0.104,-0.032l-0.106,-0.031l-0.108,-0.032l-0.107,-0.03l-0.223,-0.061l-0.227,-0.059l-0.232,-0.057l-0.237,-0.056l-0.242,-0.055l-0.247,-0.052l-0.252,-0.051l-0.256,-0.05l-0.261,-0.047l-0.265,-0.046l-0.269,-0.043l-0.273,-0.042l-0.277,-0.04l-0.281,-0.038l-0.285,-0.036l-0.288,-0.033l-0.292,-0.032l-0.295,-0.03l-0.299,-0.027l-0.302,-0.025l-0.305,-0.023l-0.307,-0.021l-0.311,-0.018l-0.313,-0.016l-0.316,-0.014l-0.319,-0.011l-0.321,-0.009l-0.323,-0.006l-0.325,-0.004l-0.328,-0.001l-0.328,0.001Z" style="fill:#808080;"/>
        </g>
        <path d="M4.857,16.536l0,-0.036c0,-6.899 4.993,-12.5 11.143,-12.5c0.191,0 0.381,0.005 0.57,0.016l2.396,0.432c2.554,0.791 4.742,2.577 6.21,4.962c0,0 0.061,0.426 0.301,0.931c0,0 0.652,0.945 0.652,0.945c0.651,1.587 1.014,3.353 1.014,5.214l0,0.036c-2.276,1.162 -6.417,1.94 -11.143,1.94c-4.726,0 -8.867,-0.778 -11.143,-1.94Z" style="fill:#fff;"/>
        <path d="M17.113,18.461c-0.197,-0.376 -0.136,-0.852 0.18,-1.168c0.586,-0.586 1.415,-1.415 2.001,-2.001c0.39,-0.39 1.022,-0.39 1.412,0c0.001,0 0.001,0.001 0.001,0.001c0.391,0.39 0.391,1.024 0,1.414l-1.658,1.658c-0.629,0.047 -1.276,0.079 -1.936,0.096Zm-9.147,-0.841l1.328,-1.328c0.39,-0.39 1.022,-0.39 1.412,0c0.001,0.001 0.001,0.001 0.002,0.002c0.39,0.39 0.39,1.022 0,1.412l-0.371,0.371c-0.845,-0.126 -1.64,-0.28 -2.371,-0.457Zm16.741,-3.327c0.391,0.39 0.391,1.024 0,1.414c0,0 0,0.001 -0.001,0.001c-0.39,0.39 -1.022,0.39 -1.412,0c-0.586,-0.586 -1.416,-1.416 -2.002,-2.002c-0.39,-0.39 -0.39,-1.022 0,-1.412c0.001,-0.001 0.001,-0.001 0.002,-0.002c0.39,-0.39 1.022,-0.39 1.412,0c0.586,0.586 1.415,1.415 2.001,2.001Zm-10,0c0.391,0.39 0.391,1.024 0,1.414c0,0 0,0.001 -0.001,0.001c-0.39,0.39 -1.022,0.39 -1.412,0c-0.586,-0.586 -1.416,-1.416 -2.002,-2.002c-0.39,-0.39 -0.39,-1.022 0,-1.412c0,-0.001 0.001,-0.001 0.001,-0.001c0.39,-0.391 1.024,-0.391 1.414,0c0.586,0.586 1.414,1.414 2,2Zm-4.999,-4.999c0.39,0.39 0.39,1.022 0,1.412c-0.586,0.586 -1.416,1.416 -2.002,2.002c-0.39,0.39 -1.022,0.39 -1.412,0c-0.001,-0.001 -0.001,-0.001 -0.002,-0.002c-0.39,-0.39 -0.39,-1.022 0,-1.412c0.586,-0.586 1.416,-1.416 2.002,-2.002c0.39,-0.39 1.022,-0.39 1.412,0c0.001,0.001 0.001,0.001 0.002,0.002Zm10.999,-1.001c0.391,0.39 0.391,1.024 0,1.414c-0.586,0.586 -1.415,1.415 -2.001,2.001c-0.39,0.39 -1.022,0.39 -1.412,0c-0.001,0 -0.001,-0.001 -0.001,-0.001c-0.391,-0.39 -0.391,-1.024 0,-1.414c0.586,-0.586 1.415,-1.415 2.001,-2.001c0.39,-0.39 1.022,-0.39 1.412,0c0.001,0 0.001,0.001 0.001,0.001Zm4.469,1.117c0.363,0.59 0.683,1.218 0.953,1.876l-0.423,0.422c-0.39,0.39 -1.022,0.39 -1.412,0c-0.001,0 -0.001,-0.001 -0.001,-0.001c-0.391,-0.39 -0.391,-1.024 0,-1.414l0.883,-0.883Zm-10.469,-1.117c0.391,0.39 0.391,1.024 0,1.414c0,0 0,0.001 -0.001,0.001c-0.39,0.39 -1.022,0.39 -1.412,0c-0.586,-0.586 -1.415,-1.415 -2.001,-2.001c-0.391,-0.39 -0.391,-1.024 0,-1.414c0,0 0,-0.001 0.001,-0.001c0.39,-0.39 1.022,-0.39 1.412,0c0.586,0.586 1.415,1.415 2.001,2.001Zm1.863,-4.277c0.825,0.047 1.627,0.195 2.396,0.432l-1.26,1.26c-0.39,0.39 -1.022,0.39 -1.412,0c-0.001,-0.001 -0.001,-0.001 -0.002,-0.002c-0.39,-0.39 -0.39,-1.022 0,-1.412l0.278,-0.278Z" style="fill:#e1e1e1;"/>
        <path d="M30,13l-2.407,2l-23.039,0l-2.554,-2l0,18l28,0l0,-18Z" style="fill:none;"/>
        <clipPath id="_clip2">
            <path d="M30,13l-2.407,2l-23.039,0l-2.554,-2l0,18l28,0l0,-18Z"/>
        </clipPath>
        <g clip-path="url(#_clip2)">
            <path d="M16.335,11.001l0.334,0.004l0.331,0.007l0.328,0.009l0.327,0.011l0.324,0.014l0.321,0.017l0.319,0.018l0.315,0.022l0.313,0.023l0.31,0.026l0.307,0.028l0.304,0.03l0.3,0.033l0.297,0.035l0.293,0.037l0.29,0.039l0.286,0.041l0.282,0.043l0.278,0.045l0.275,0.047l0.27,0.049l0.266,0.052l0.261,0.053l0.257,0.054l0.253,0.057l0.248,0.059l0.243,0.06l0.239,0.062l0.233,0.064l0.115,0.032l0.113,0.033l0.113,0.033l0.111,0.034l0.109,0.034l0.109,0.035l0.107,0.035l0.105,0.035l0.104,0.036l0.103,0.036l0.102,0.036l0.1,0.037l0.099,0.037l0.097,0.038l0.096,0.038l0.094,0.038l0.093,0.039l0.091,0.039l0.09,0.039l0.089,0.04l0.086,0.04l0.086,0.041l0.084,0.04l0.082,0.042l0.081,0.041l0.079,0.042l0.077,0.042l0.076,0.042l0.074,0.043l0.073,0.043l0.071,0.043l0.069,0.043l0.068,0.044l0.066,0.044l0.064,0.045l0.063,0.045l0.061,0.045l0.059,0.045l0.057,0.045l0.056,0.046l0.053,0.046l0.052,0.047l0.051,0.046l0.048,0.047l0.047,0.047l0.044,0.047l0.043,0.048l0.041,0.048l0.04,0.048l0.037,0.048l0.035,0.049l0.034,0.048l0.031,0.049l0.03,0.049l0.027,0.05l0.026,0.049l0.024,0.05l0.021,0.05l0.02,0.05l0.018,0.05l0.015,0.051l0.014,0.05l0.012,0.051l0.009,0.051l0.007,0.051l0.006,0.052l0.003,0.051l0.001,0.052l-0.001,0.052l-0.003,0.051l-0.006,0.052l-0.007,0.051l-0.009,0.051l-0.012,0.051l-0.014,0.05l-0.015,0.051l-0.018,0.05l-0.02,0.05l-0.021,0.05l-0.024,0.05l-0.026,0.049l-0.027,0.05l-0.03,0.049l-0.031,0.049l-0.034,0.048l-0.035,0.049l-0.037,0.048l-0.04,0.048l-0.041,0.048l-0.043,0.048l-0.044,0.047l-0.047,0.047l-0.048,0.047l-0.051,0.046l-0.052,0.047l-0.053,0.046l-0.056,0.046l-0.057,0.045l-0.059,0.045l-0.061,0.045l-0.063,0.045l-0.064,0.045l-0.066,0.044l-0.068,0.044l-0.069,0.043l-0.071,0.043l-0.073,0.043l-0.074,0.043l-0.076,0.042l-0.077,0.042l-0.079,0.042l-0.081,0.041l-0.082,0.042l-0.084,0.04l-0.086,0.041l-0.086,0.04l-0.089,0.04l-0.09,0.039l-0.091,0.039l-0.093,0.039l-0.094,0.038l-0.096,0.038l-0.097,0.038l-0.099,0.037l-0.1,0.037l-0.102,0.036l-0.103,0.036l-0.104,0.036l-0.105,0.035l-0.107,0.035l-0.109,0.035l-0.109,0.034l-0.111,0.034l-0.113,0.033l-0.113,0.033l-0.115,0.032l-0.233,0.064l-0.239,0.062l-0.243,0.06l-0.248,0.059l-0.253,0.057l-0.257,0.054l-0.261,0.053l-0.266,0.052l-0.27,0.049l-0.275,0.047l-0.278,0.045l-0.282,0.043l-0.286,0.041l-0.29,0.039l-0.293,0.037l-0.297,0.035l-0.3,0.033l-0.304,0.03l-0.307,0.028l-0.31,0.026l-0.313,0.023l-0.315,0.022l-0.319,0.018l-0.321,0.017l-0.324,0.014l-0.327,0.011l-0.328,0.009l-0.331,0.007l-0.334,0.004l-0.335,0.001l-0.335,-0.001l-0.334,-0.004l-0.331,-0.007l-0.328,-0.009l-0.327,-0.011l-0.324,-0.014l-0.321,-0.017l-0.319,-0.018l-0.315,-0.022l-0.313,-0.023l-0.31,-0.026l-0.307,-0.028l-0.304,-0.03l-0.3,-0.033l-0.297,-0.035l-0.293,-0.037l-0.29,-0.039l-0.286,-0.041l-0.282,-0.043l-0.278,-0.045l-0.275,-0.047l-0.27,-0.049l-0.266,-0.052l-0.261,-0.053l-0.257,-0.054l-0.253,-0.057l-0.248,-0.059l-0.243,-0.06l-0.239,-0.062l-0.233,-0.064l-0.115,-0.032l-0.113,-0.033l-0.113,-0.033l-0.111,-0.034l-0.109,-0.034l-0.109,-0.035l-0.107,-0.035l-0.105,-0.035l-0.104,-0.036l-0.103,-0.036l-0.102,-0.036l-0.1,-0.037l-0.099,-0.037l-0.097,-0.038l-0.096,-0.038l-0.094,-0.038l-0.093,-0.039l-0.091,-0.039l-0.09,-0.039l-0.089,-0.04l-0.086,-0.04l-0.086,-0.041l-0.084,-0.04l-0.082,-0.042l-0.081,-0.041l-0.079,-0.042l-0.077,-0.042l-0.076,-0.042l-0.074,-0.043l-0.073,-0.043l-0.071,-0.043l-0.069,-0.043l-0.068,-0.044l-0.066,-0.044l-0.064,-0.045l-0.063,-0.045l-0.061,-0.045l-0.059,-0.045l-0.057,-0.045l-0.056,-0.046l-0.053,-0.046l-0.052,-0.047l-0.051,-0.046l-0.048,-0.047l-0.047,-0.047l-0.044,-0.047l-0.043,-0.048l-0.041,-0.048l-0.04,-0.048l-0.037,-0.048l-0.035,-0.049l-0.034,-0.048l-0.031,-0.049l-0.03,-0.049l-0.027,-0.05l-0.026,-0.049l-0.024,-0.05l-0.021,-0.05l-0.02,-0.05l-0.018,-0.05l-0.015,-0.051l-0.014,-0.05l-0.012,-0.051l-0.009,-0.051l-0.007,-0.051l-0.006,-0.052l-0.003,-0.051l-0.001,-0.052l0.001,-0.052l0.003,-0.051l0.006,-0.052l0.007,-0.051l0.009,-0.051l0.012,-0.051l0.014,-0.05l0.015,-0.051l0.018,-0.05l0.02,-0.05l0.021,-0.05l0.024,-0.05l0.026,-0.049l0.027,-0.05l0.03,-0.049l0.031,-0.049l0.034,-0.048l0.035,-0.049l0.037,-0.048l0.04,-0.048l0.041,-0.048l0.043,-0.048l0.044,-0.047l0.047,-0.047l0.048,-0.047l0.051,-0.046l0.052,-0.047l0.053,-0.046l0.056,-0.046l0.057,-0.045l0.059,-0.045l0.061,-0.045l0.063,-0.045l0.064,-0.045l0.066,-0.044l0.068,-0.044l0.069,-0.043l0.071,-0.043l0.073,-0.043l0.074,-0.043l0.076,-0.042l0.077,-0.042l0.079,-0.042l0.081,-0.041l0.082,-0.042l0.084,-0.04l0.086,-0.041l0.086,-0.04l0.089,-0.04l0.09,-0.039l0.091,-0.039l0.093,-0.039l0.094,-0.038l0.096,-0.038l0.097,-0.038l0.099,-0.037l0.1,-0.037l0.102,-0.036l0.103,-0.036l0.104,-0.036l0.105,-0.035l0.107,-0.035l0.109,-0.035l0.109,-0.034l0.111,-0.034l0.113,-0.033l0.113,-0.033l0.115,-0.032l0.233,-0.064l0.239,-0.062l0.243,-0.06l0.248,-0.059l0.253,-0.057l0.257,-0.054l0.261,-0.053l0.266,-0.052l0.27,-0.049l0.275,-0.047l0.278,-0.045l0.282,-0.043l0.286,-0.041l0.29,-0.039l0.293,-0.037l0.297,-0.035l0.3,-0.033l0.304,-0.03l0.307,-0.028l0.31,-0.026l0.313,-0.023l0.315,-0.022l0.319,-0.018l0.321,-0.017l0.324,-0.014l0.327,-0.011l0.328,-0.009l0.331,-0.007l0.334,-0.004l0.335,-0.001l0.335,0.001Zm-0.663,1l-0.325,0.004l-0.323,0.006l-0.321,0.009l-0.319,0.011l-0.316,0.014l-0.313,0.016l-0.311,0.018l-0.307,0.021l-0.305,0.023l-0.302,0.025l-0.299,0.027l-0.295,0.03l-0.292,0.032l-0.288,0.033l-0.285,0.036l-0.281,0.038l-0.277,0.04l-0.273,0.042l-0.269,0.043l-0.265,0.046l-0.261,0.047l-0.256,0.05l-0.252,0.051l-0.247,0.052l-0.242,0.055l-0.237,0.056l-0.232,0.057l-0.227,0.059l-0.223,0.061l-0.107,0.03l-0.108,0.032l-0.106,0.031l-0.104,0.032l-0.104,0.032l-0.101,0.032l-0.101,0.033l-0.099,0.033l-0.097,0.034l-0.096,0.033l-0.094,0.034l-0.093,0.034l-0.091,0.035l-0.089,0.034l-0.088,0.035l-0.087,0.035l-0.084,0.035l-0.083,0.036l-0.082,0.036l-0.079,0.035l-0.078,0.036l-0.076,0.036l-0.075,0.036l-0.072,0.037l-0.071,0.036l-0.069,0.036l-0.067,0.037l-0.065,0.036l-0.064,0.037l-0.061,0.036l-0.06,0.036l-0.057,0.036l-0.056,0.036l-0.053,0.036l-0.052,0.036l-0.05,0.035l-0.047,0.036l-0.046,0.035l-0.043,0.034l-0.041,0.034l-0.04,0.034l-0.037,0.033l-0.035,0.032l-0.033,0.032l-0.031,0.032l-0.029,0.03l-0.027,0.03l-0.024,0.029l-0.023,0.028l-0.021,0.027l-0.019,0.025l-0.017,0.025l-0.015,0.024l-0.014,0.023l-0.012,0.021l-0.01,0.02l-0.01,0.019l-0.007,0.018l-0.007,0.017l-0.005,0.015l-0.005,0.014l-0.003,0.014l-0.003,0.012l-0.002,0.012l-0.002,0.011l-0.001,0.011l-0.001,0.011l0,0.01l0,0.01l0.001,0.011l0.001,0.011l0.002,0.011l0.002,0.012l0.003,0.012l0.003,0.014l0.005,0.014l0.005,0.015l0.007,0.017l0.007,0.018l0.01,0.019l0.01,0.02l0.012,0.021l0.014,0.023l0.015,0.024l0.017,0.024l0.019,0.026l0.021,0.027l0.023,0.028l0.024,0.029l0.027,0.03l0.029,0.03l0.031,0.032l0.033,0.032l0.035,0.032l0.037,0.033l0.04,0.034l0.041,0.034l0.043,0.034l0.046,0.035l0.047,0.036l0.05,0.035l0.052,0.036l0.053,0.036l0.056,0.036l0.057,0.036l0.06,0.036l0.061,0.036l0.064,0.037l0.065,0.036l0.067,0.037l0.069,0.036l0.071,0.036l0.072,0.037l0.075,0.036l0.076,0.036l0.078,0.036l0.079,0.035l0.082,0.036l0.083,0.036l0.084,0.035l0.087,0.035l0.088,0.035l0.089,0.034l0.091,0.035l0.093,0.034l0.094,0.034l0.096,0.033l0.098,0.034l0.098,0.033l0.101,0.033l0.101,0.032l0.104,0.032l0.104,0.032l0.106,0.031l0.108,0.032l0.107,0.03l0.223,0.061l0.227,0.059l0.232,0.057l0.237,0.056l0.242,0.055l0.247,0.052l0.252,0.051l0.256,0.05l0.261,0.047l0.265,0.046l0.269,0.043l0.273,0.042l0.277,0.04l0.281,0.038l0.285,0.036l0.288,0.033l0.292,0.032l0.295,0.03l0.299,0.027l0.302,0.025l0.305,0.023l0.307,0.021l0.311,0.018l0.313,0.016l0.316,0.014l0.319,0.011l0.321,0.009l0.323,0.006l0.325,0.004l0.328,0.001l0.327,-0.001l0.326,-0.004l0.323,-0.006l0.321,-0.009l0.319,-0.011l0.316,-0.014l0.313,-0.016l0.311,-0.018l0.307,-0.021l0.305,-0.023l0.302,-0.025l0.299,-0.027l0.295,-0.03l0.292,-0.032l0.288,-0.033l0.285,-0.036l0.281,-0.038l0.277,-0.04l0.273,-0.042l0.269,-0.043l0.265,-0.046l0.261,-0.047l0.256,-0.05l0.252,-0.051l0.247,-0.052l0.242,-0.055l0.237,-0.056l0.232,-0.057l0.227,-0.059l0.223,-0.061l0.107,-0.03l0.108,-0.032l0.106,-0.031l0.104,-0.032l0.104,-0.032l0.101,-0.032l0.101,-0.033l0.098,-0.033l0.098,-0.034l0.096,-0.033l0.094,-0.034l0.093,-0.034l0.091,-0.035l0.089,-0.034l0.088,-0.035l0.087,-0.035l0.084,-0.035l0.083,-0.036l0.082,-0.036l0.079,-0.035l0.078,-0.036l0.076,-0.036l0.075,-0.036l0.072,-0.037l0.071,-0.036l0.069,-0.036l0.067,-0.037l0.065,-0.036l0.064,-0.037l0.061,-0.036l0.06,-0.036l0.057,-0.036l0.056,-0.036l0.053,-0.036l0.052,-0.036l0.05,-0.035l0.047,-0.036l0.046,-0.034l0.043,-0.035l0.041,-0.034l0.04,-0.034l0.037,-0.033l0.035,-0.032l0.033,-0.032l0.031,-0.032l0.029,-0.03l0.027,-0.03l0.024,-0.029l0.023,-0.028l0.021,-0.027l0.019,-0.026l0.017,-0.024l0.015,-0.024l0.014,-0.023l0.012,-0.021l0.01,-0.02l0.01,-0.019l0.007,-0.018l0.007,-0.017l0.005,-0.015l0.005,-0.014l0.003,-0.014l0.003,-0.012l0.002,-0.012l0.002,-0.011l0.001,-0.011l0.001,-0.01l0,-0.011l0,-0.011l-0.001,-0.01l-0.001,-0.011l-0.002,-0.011l-0.002,-0.012l-0.003,-0.012l-0.003,-0.014l-0.005,-0.014l-0.005,-0.015l-0.007,-0.017l-0.007,-0.018l-0.01,-0.019l-0.01,-0.02l-0.012,-0.021l-0.014,-0.023l-0.015,-0.024l-0.017,-0.024l-0.019,-0.026l-0.021,-0.027l-0.023,-0.028l-0.024,-0.029l-0.027,-0.03l-0.029,-0.03l-0.031,-0.032l-0.033,-0.032l-0.035,-0.032l-0.037,-0.033l-0.04,-0.034l-0.041,-0.034l-0.043,-0.035l-0.046,-0.034l-0.047,-0.036l-0.05,-0.035l-0.052,-0.036l-0.053,-0.036l-0.056,-0.036l-0.057,-0.036l-0.06,-0.036l-0.061,-0.036l-0.064,-0.037l-0.065,-0.036l-0.067,-0.037l-0.069,-0.036l-0.071,-0.036l-0.072,-0.037l-0.075,-0.036l-0.076,-0.036l-0.078,-0.036l-0.079,-0.035l-0.082,-0.036l-0.083,-0.036l-0.084,-0.035l-0.087,-0.035l-0.088,-0.035l-0.089,-0.034l-0.091,-0.035l-0.093,-0.034l-0.094,-0.034l-0.096,-0.033l-0.097,-0.034l-0.099,-0.033l-0.101,-0.033l-0.101,-0.032l-0.104,-0.032l-0.104,-0.032l-0.106,-0.031l-0.108,-0.032l-0.107,-0.03l-0.223,-0.061l-0.227,-0.059l-0.232,-0.057l-0.237,-0.056l-0.242,-0.055l-0.247,-0.052l-0.252,-0.051l-0.256,-0.05l-0.261,-0.047l-0.265,-0.046l-0.269,-0.043l-0.273,-0.042l-0.277,-0.04l-0.281,-0.038l-0.285,-0.036l-0.288,-0.033l-0.292,-0.032l-0.295,-0.03l-0.299,-0.027l-0.302,-0.025l-0.305,-0.023l-0.307,-0.021l-0.311,-0.018l-0.313,-0.016l-0.316,-0.014l-0.319,-0.011l-0.321,-0.009l-0.323,-0.006l-0.325,-0.004l-0.328,-0.001l-0.328,0.001Z" style="fill:#808080;"/>
        </g>
    </g>
</svg>
