<?xml version="1.0" encoding="UTF-8" standalone="no"?><!DOCTYPE svg PUBLIC "-//W3C//DTD SVG 1.1//EN" "http://www.w3.org/Graphics/SVG/1.1/DTD/svg11.dtd"><svg width="100%" height="100%" viewBox="0 0 32 32" version="1.1" xmlns="http://www.w3.org/2000/svg" xmlns:xlink="http://www.w3.org/1999/xlink" xml:space="preserve" xmlns:serif="http://www.serif.com/" style="fill-rule:evenodd;clip-rule:evenodd;stroke-linecap:round;stroke-linejoin:round;stroke-miterlimit:1.5;"><rect id="rice" x="0" y="0" width="32" height="32" style="fill:none;"/><clipPath id="_clip1"><rect x="0" y="0" width="32" height="32"/></clipPath><g clip-path="url(#_clip1)"><g id="outline"><rect x="3" y="-3" width="26" height="23.704" style="fill:none;"/><clipPath id="_clip2"><rect x="3" y="-3" width="26" height="23.704"/></clipPath><g clip-path="url(#_clip2)"><ellipse cx="16" cy="16.5" rx="11.143" ry="12.5" style="fill:none;stroke:#000;stroke-width:4px;"/></g><path d="M3,15c0,6.627 5.82,12 13,12c7.18,0 13,-5.373 13,-12l-13,0l-13,0Z" style="fill:none;stroke:#000;stroke-width:4px;"/><path d="M16.351,9.001l0.349,0.004l0.346,0.007l0.345,0.01l0.342,0.012l0.34,0.014l0.337,0.018l0.334,0.019l0.332,0.023l0.329,0.024l0.326,0.027l0.324,0.03l0.32,0.032l0.317,0.034l0.314,0.037l0.31,0.039l0.308,0.042l0.303,0.043l0.301,0.046l0.296,0.048l0.293,0.051l0.29,0.053l0.285,0.054l0.282,0.057l0.277,0.06l0.274,0.061l0.269,0.064l0.266,0.065l0.261,0.068l0.254,0.07l0.13,0.036l0.125,0.037l0.125,0.037l0.124,0.038l0.122,0.038l0.122,0.038l0.12,0.04l0.119,0.04l0.119,0.04l0.117,0.041l0.116,0.042l0.114,0.042l0.114,0.043l0.113,0.044l0.111,0.044l0.111,0.045l0.109,0.045l0.108,0.046l0.107,0.047l0.106,0.048l0.105,0.048l0.104,0.049l0.103,0.05l0.101,0.051l0.101,0.052l0.099,0.052l0.098,0.053l0.097,0.055l0.096,0.055l0.095,0.056l0.094,0.057l0.093,0.059l0.092,0.059l0.091,0.061l0.089,0.062l0.089,0.063l0.087,0.065l0.087,0.066l0.085,0.067l0.084,0.07l0.083,0.071l0.081,0.072l0.081,0.075l0.079,0.077l0.078,0.078l0.077,0.081l0.075,0.084l0.073,0.085l0.072,0.088l0.07,0.091l0.069,0.094l0.066,0.096l0.064,0.099l0.061,0.102l0.059,0.106l0.056,0.108l0.053,0.111l0.05,0.114l0.046,0.118l0.042,0.12l0.038,0.123l0.034,0.125l0.029,0.127l0.024,0.13l0.019,0.131l0.013,0.133l0.009,0.133l0.002,0.134l-0.002,0.134l-0.009,0.133l-0.013,0.133l-0.019,0.131l-0.024,0.13l-0.029,0.127l-0.034,0.125l-0.038,0.123l-0.042,0.12l-0.046,0.118l-0.05,0.114l-0.053,0.111l-0.056,0.108l-0.059,0.105l-0.061,0.103l-0.064,0.099l-0.067,0.097l-0.068,0.093l-0.07,0.091l-0.072,0.088l-0.073,0.085l-0.075,0.084l-0.077,0.081l-0.078,0.078l-0.079,0.077l-0.081,0.075l-0.081,0.072l-0.083,0.071l-0.084,0.07l-0.085,0.067l-0.087,0.066l-0.087,0.065l-0.089,0.063l-0.089,0.062l-0.091,0.061l-0.092,0.059l-0.093,0.059l-0.094,0.057l-0.094,0.056l-0.096,0.055l-0.098,0.055l-0.098,0.053l-0.099,0.052l-0.101,0.052l-0.101,0.051l-0.103,0.05l-0.104,0.049l-0.105,0.048l-0.106,0.048l-0.107,0.047l-0.108,0.046l-0.109,0.045l-0.111,0.045l-0.111,0.044l-0.113,0.044l-0.114,0.043l-0.114,0.042l-0.116,0.042l-0.117,0.041l-0.118,0.04l-0.12,0.04l-0.12,0.04l-0.122,0.038l-0.122,0.038l-0.124,0.038l-0.125,0.037l-0.125,0.037l-0.13,0.036l-0.254,0.07l-0.261,0.068l-0.266,0.065l-0.269,0.064l-0.274,0.061l-0.277,0.06l-0.282,0.057l-0.285,0.054l-0.29,0.053l-0.293,0.051l-0.296,0.048l-0.301,0.046l-0.303,0.043l-0.308,0.042l-0.31,0.039l-0.314,0.037l-0.317,0.034l-0.32,0.032l-0.323,0.03l-0.327,0.027l-0.329,0.024l-0.332,0.023l-0.334,0.019l-0.337,0.018l-0.34,0.014l-0.342,0.012l-0.345,0.01l-0.346,0.007l-0.349,0.004l-0.351,0.001l-0.351,-0.001l-0.349,-0.004l-0.346,-0.007l-0.345,-0.01l-0.342,-0.012l-0.34,-0.014l-0.337,-0.018l-0.334,-0.019l-0.332,-0.023l-0.329,-0.024l-0.327,-0.027l-0.323,-0.03l-0.32,-0.032l-0.317,-0.034l-0.314,-0.037l-0.31,-0.039l-0.308,-0.042l-0.303,-0.043l-0.301,-0.046l-0.296,-0.048l-0.293,-0.051l-0.29,-0.053l-0.285,-0.054l-0.282,-0.057l-0.277,-0.06l-0.274,-0.061l-0.269,-0.064l-0.266,-0.065l-0.261,-0.068l-0.254,-0.07l-0.13,-0.036l-0.125,-0.037l-0.125,-0.037l-0.124,-0.038l-0.122,-0.038l-0.122,-0.038l-0.12,-0.04l-0.119,-0.04l-0.118,-0.04l-0.118,-0.041l-0.116,-0.042l-0.114,-0.042l-0.114,-0.043l-0.113,-0.044l-0.111,-0.044l-0.111,-0.045l-0.109,-0.045l-0.108,-0.046l-0.107,-0.047l-0.106,-0.048l-0.105,-0.048l-0.104,-0.049l-0.103,-0.05l-0.101,-0.051l-0.101,-0.052l-0.099,-0.052l-0.098,-0.053l-0.098,-0.055l-0.096,-0.055l-0.094,-0.056l-0.094,-0.057l-0.093,-0.059l-0.092,-0.059l-0.091,-0.061l-0.089,-0.062l-0.089,-0.063l-0.087,-0.065l-0.087,-0.066l-0.085,-0.067l-0.084,-0.07l-0.083,-0.071l-0.082,-0.072l-0.08,-0.075l-0.079,-0.077l-0.078,-0.078l-0.077,-0.081l-0.075,-0.084l-0.073,-0.085l-0.072,-0.088l-0.07,-0.091l-0.069,-0.094l-0.066,-0.096l-0.064,-0.099l-0.061,-0.102l-0.059,-0.106l-0.056,-0.108l-0.053,-0.111l-0.05,-0.115l-0.046,-0.117l-0.042,-0.12l-0.038,-0.123l-0.034,-0.125l-0.029,-0.127l-0.024,-0.13l-0.019,-0.131l-0.013,-0.132l-0.009,-0.134l-0.002,-0.134l0.002,-0.134l0.009,-0.134l0.013,-0.132l0.019,-0.131l0.024,-0.13l0.029,-0.127l0.034,-0.125l0.038,-0.123l0.042,-0.12l0.046,-0.117l0.05,-0.115l0.053,-0.111l0.056,-0.108l0.059,-0.106l0.061,-0.102l0.064,-0.099l0.066,-0.096l0.069,-0.094l0.07,-0.091l0.072,-0.088l0.073,-0.085l0.075,-0.084l0.077,-0.081l0.078,-0.078l0.079,-0.077l0.08,-0.075l0.082,-0.072l0.083,-0.071l0.084,-0.07l0.085,-0.067l0.087,-0.066l0.087,-0.065l0.089,-0.063l0.089,-0.062l0.091,-0.061l0.092,-0.059l0.093,-0.059l0.094,-0.057l0.095,-0.056l0.096,-0.055l0.097,-0.055l0.098,-0.053l0.099,-0.052l0.101,-0.052l0.101,-0.051l0.103,-0.05l0.104,-0.049l0.105,-0.048l0.106,-0.048l0.107,-0.047l0.108,-0.046l0.109,-0.045l0.111,-0.045l0.111,-0.044l0.113,-0.044l0.114,-0.043l0.114,-0.042l0.116,-0.042l0.117,-0.041l0.119,-0.04l0.119,-0.04l0.12,-0.039l0.122,-0.039l0.122,-0.038l0.124,-0.038l0.125,-0.037l0.125,-0.037l0.13,-0.036l0.254,-0.07l0.261,-0.068l0.266,-0.065l0.269,-0.064l0.274,-0.061l0.277,-0.06l0.282,-0.057l0.285,-0.054l0.29,-0.053l0.293,-0.051l0.296,-0.048l0.301,-0.046l0.303,-0.043l0.308,-0.042l0.31,-0.039l0.314,-0.037l0.317,-0.034l0.32,-0.032l0.324,-0.03l0.326,-0.027l0.329,-0.024l0.332,-0.023l0.334,-0.019l0.337,-0.018l0.34,-0.014l0.342,-0.012l0.345,-0.01l0.346,-0.007l0.349,-0.004l0.351,-0.001l0.351,0.001Zm-0.686,2l-0.334,0.004l-0.331,0.007l-0.328,0.009l-0.327,0.011l-0.324,0.014l-0.321,0.017l-0.319,0.018l-0.315,0.022l-0.313,0.023l-0.31,0.026l-0.307,0.028l-0.304,0.03l-0.3,0.033l-0.297,0.035l-0.293,0.037l-0.29,0.039l-0.286,0.041l-0.282,0.043l-0.278,0.045l-0.275,0.047l-0.27,0.049l-0.266,0.052l-0.261,0.053l-0.257,0.054l-0.253,0.057l-0.248,0.059l-0.243,0.06l-0.239,0.062l-0.233,0.064l-0.115,0.032l-0.113,0.033l-0.113,0.033l-0.111,0.034l-0.109,0.034l-0.109,0.035l-0.107,0.035l-0.105,0.035l-0.104,0.036l-0.103,0.036l-0.102,0.036l-0.1,0.037l-0.099,0.037l-0.097,0.038l-0.096,0.038l-0.094,0.038l-0.093,0.039l-0.091,0.039l-0.09,0.039l-0.089,0.04l-0.086,0.04l-0.086,0.041l-0.084,0.04l-0.082,0.042l-0.081,0.041l-0.079,0.042l-0.077,0.042l-0.076,0.042l-0.074,0.043l-0.073,0.043l-0.071,0.043l-0.069,0.043l-0.068,0.044l-0.066,0.044l-0.064,0.045l-0.063,0.045l-0.061,0.045l-0.059,0.045l-0.057,0.045l-0.056,0.046l-0.053,0.046l-0.052,0.047l-0.051,0.046l-0.048,0.047l-0.047,0.047l-0.044,0.047l-0.043,0.048l-0.041,0.048l-0.04,0.048l-0.037,0.048l-0.035,0.049l-0.034,0.048l-0.031,0.049l-0.03,0.049l-0.027,0.05l-0.026,0.049l-0.024,0.05l-0.021,0.05l-0.02,0.05l-0.018,0.05l-0.015,0.051l-0.014,0.05l-0.012,0.051l-0.009,0.051l-0.007,0.051l-0.006,0.052l-0.003,0.051l-0.001,0.052l0.001,0.052l0.003,0.051l0.006,0.052l0.007,0.051l0.009,0.051l0.012,0.051l0.014,0.05l0.015,0.051l0.018,0.05l0.02,0.05l0.021,0.05l0.024,0.05l0.026,0.049l0.027,0.05l0.03,0.049l0.031,0.049l0.034,0.048l0.035,0.049l0.037,0.048l0.04,0.048l0.041,0.048l0.043,0.048l0.044,0.047l0.047,0.047l0.048,0.047l0.051,0.046l0.052,0.047l0.053,0.046l0.056,0.046l0.057,0.045l0.059,0.045l0.061,0.045l0.063,0.045l0.064,0.045l0.066,0.044l0.068,0.044l0.069,0.043l0.071,0.043l0.073,0.043l0.074,0.043l0.076,0.042l0.077,0.042l0.079,0.042l0.081,0.041l0.082,0.042l0.084,0.04l0.086,0.041l0.086,0.04l0.089,0.04l0.09,0.039l0.091,0.039l0.093,0.039l0.094,0.038l0.096,0.038l0.097,0.038l0.099,0.037l0.1,0.037l0.102,0.036l0.103,0.036l0.104,0.036l0.105,0.035l0.107,0.035l0.109,0.035l0.109,0.034l0.111,0.034l0.113,0.033l0.113,0.033l0.115,0.032l0.233,0.064l0.239,0.062l0.243,0.06l0.248,0.059l0.253,0.057l0.257,0.054l0.261,0.053l0.266,0.052l0.27,0.049l0.275,0.047l0.278,0.045l0.282,0.043l0.286,0.041l0.29,0.039l0.293,0.037l0.297,0.035l0.3,0.033l0.304,0.03l0.307,0.028l0.31,0.026l0.313,0.023l0.315,0.022l0.319,0.018l0.321,0.017l0.324,0.014l0.327,0.011l0.328,0.009l0.331,0.007l0.334,0.004l0.335,0.001l0.335,-0.001l0.334,-0.004l0.331,-0.007l0.328,-0.009l0.327,-0.011l0.324,-0.014l0.321,-0.017l0.319,-0.018l0.315,-0.022l0.313,-0.023l0.31,-0.026l0.307,-0.028l0.304,-0.03l0.3,-0.033l0.297,-0.035l0.293,-0.037l0.29,-0.039l0.286,-0.041l0.282,-0.043l0.278,-0.045l0.275,-0.047l0.27,-0.049l0.266,-0.052l0.261,-0.053l0.257,-0.054l0.253,-0.057l0.248,-0.059l0.243,-0.06l0.239,-0.062l0.233,-0.064l0.115,-0.032l0.113,-0.033l0.113,-0.033l0.111,-0.034l0.109,-0.034l0.109,-0.035l0.107,-0.035l0.105,-0.035l0.104,-0.036l0.103,-0.036l0.102,-0.036l0.1,-0.037l0.099,-0.037l0.097,-0.038l0.096,-0.038l0.094,-0.038l0.093,-0.039l0.091,-0.039l0.09,-0.039l0.089,-0.04l0.086,-0.04l0.086,-0.041l0.084,-0.04l0.082,-0.042l0.081,-0.041l0.079,-0.042l0.077,-0.042l0.076,-0.042l0.074,-0.043l0.073,-0.043l0.071,-0.043l0.069,-0.043l0.068,-0.044l0.066,-0.044l0.064,-0.045l0.063,-0.045l0.061,-0.045l0.059,-0.045l0.057,-0.045l0.056,-0.046l0.053,-0.046l0.052,-0.047l0.051,-0.046l0.048,-0.047l0.047,-0.047l0.044,-0.047l0.043,-0.048l0.041,-0.048l0.04,-0.048l0.037,-0.048l0.035,-0.049l0.034,-0.048l0.031,-0.049l0.03,-0.049l0.027,-0.05l0.026,-0.049l0.024,-0.05l0.021,-0.05l0.02,-0.05l0.018,-0.05l0.015,-0.051l0.014,-0.05l0.012,-0.051l0.009,-0.051l0.007,-0.051l0.006,-0.052l0.003,-0.051l0.001,-0.052l-0.001,-0.052l-0.003,-0.051l-0.006,-0.052l-0.007,-0.051l-0.009,-0.051l-0.012,-0.051l-0.014,-0.05l-0.015,-0.051l-0.018,-0.05l-0.02,-0.05l-0.021,-0.05l-0.024,-0.05l-0.026,-0.049l-0.027,-0.05l-0.03,-0.049l-0.031,-0.049l-0.034,-0.048l-0.035,-0.049l-0.037,-0.048l-0.04,-0.048l-0.041,-0.048l-0.043,-0.048l-0.044,-0.047l-0.047,-0.047l-0.048,-0.047l-0.051,-0.046l-0.052,-0.047l-0.053,-0.046l-0.056,-0.046l-0.057,-0.045l-0.059,-0.045l-0.061,-0.045l-0.063,-0.045l-0.064,-0.045l-0.066,-0.044l-0.068,-0.044l-0.069,-0.043l-0.071,-0.043l-0.073,-0.043l-0.074,-0.043l-0.076,-0.042l-0.077,-0.042l-0.079,-0.042l-0.081,-0.041l-0.082,-0.042l-0.084,-0.04l-0.086,-0.041l-0.086,-0.04l-0.089,-0.04l-0.09,-0.039l-0.091,-0.039l-0.093,-0.039l-0.094,-0.038l-0.096,-0.038l-0.097,-0.038l-0.099,-0.037l-0.1,-0.037l-0.102,-0.036l-0.103,-0.036l-0.104,-0.036l-0.105,-0.035l-0.107,-0.035l-0.109,-0.035l-0.109,-0.034l-0.111,-0.034l-0.113,-0.033l-0.113,-0.033l-0.115,-0.032l-0.233,-0.064l-0.239,-0.062l-0.243,-0.06l-0.248,-0.059l-0.253,-0.057l-0.257,-0.054l-0.261,-0.053l-0.266,-0.052l-0.27,-0.049l-0.275,-0.047l-0.278,-0.045l-0.282,-0.043l-0.286,-0.041l-0.29,-0.039l-0.293,-0.037l-0.297,-0.035l-0.3,-0.033l-0.304,-0.03l-0.307,-0.028l-0.31,-0.026l-0.313,-0.023l-0.315,-0.022l-0.319,-0.018l-0.321,-0.017l-0.324,-0.014l-0.327,-0.011l-0.328,-0.009l-0.331,-0.007l-0.334,-0.004l-0.335,-0.001l-0.335,0.001Z"/><ellipse cx="16" cy="27" rx="6" ry="2" style="fill:none;stroke:#000;stroke-width:4px;"/><path d="M24,25l-16,0l0,2l2,1l12,0l2,-1l0,-2Z"/></g><g id="emoji"><ellipse cx="16" cy="27" rx="6" ry="2" style="fill:#999;"/><rect x="10" y="25" width="12" height="2" style="fill:#999;"/><path d="M3,15c0,6.627 5.82,12 13,12c7.18,0 13,-5.373 13,-12l-13,0l-13,0Z" style="fill:#ccc;"/><ellipse cx="16" cy="15" rx="13" ry="4" style="fill:#808080;"/><path d="M3,1l26,0l0,14c0,2.208 -5.825,4 -13,4c-7.175,0 -13,-1.792 -13,-4l0,-14Z" style="fill:none;"/><clipPath id="_clip3"><path d="M3,1l26,0l0,14c0,2.208 -5.825,4 -13,4c-7.175,0 -13,-1.792 -13,-4l0,-14Z"/></clipPath><g clip-path="url(#_clip3)"><ellipse cx="16" cy="16.5" rx="11.143" ry="12.5" style="fill:#fff;"/><clipPath id="_clip4"><ellipse cx="16" cy="16.5" rx="11.143" ry="12.5"/></clipPath><g clip-path="url(#_clip4)"><g><path d="M20,9l-2,2" style="fill:none;stroke:#e1e1e1;stroke-width:2px;"/><path d="M9,10l-2,2" style="fill:none;stroke:#e1e1e1;stroke-width:2px;"/><path d="M20,16l-2,2" style="fill:none;stroke:#e1e1e1;stroke-width:2px;"/><path d="M27,9l-2,2" style="fill:none;stroke:#e1e1e1;stroke-width:2px;"/><path d="M19,3l-2,2" style="fill:none;stroke:#e1e1e1;stroke-width:2px;"/><path d="M10,17l-2,2" style="fill:none;stroke:#e1e1e1;stroke-width:2px;"/><path d="M14,9l-2,-2" style="fill:none;stroke:#e1e1e1;stroke-width:2px;"/><path d="M24,15l-2,-2" style="fill:none;stroke:#e1e1e1;stroke-width:2px;"/><path d="M14,15l-2,-2" style="fill:none;stroke:#e1e1e1;stroke-width:2px;"/></g></g></g></g></g></svg>