<?xml version="1.0" encoding="UTF-8" standalone="no"?>
<!DOCTYPE svg PUBLIC "-//W3C//DTD SVG 1.1//EN" "http://www.w3.org/Graphics/SVG/1.1/DTD/svg11.dtd">
<svg width="100%" height="100%" viewBox="0 0 32 32" version="1.1" xmlns="http://www.w3.org/2000/svg" xmlns:xlink="http://www.w3.org/1999/xlink" xml:space="preserve" xmlns:serif="http://www.serif.com/" style="fill-rule:evenodd;clip-rule:evenodd;stroke-linecap:square;stroke-linejoin:round;stroke-miterlimit:1.5;">
    <rect id="shaved_ice" x="0" y="0" width="32" height="32" style="fill:none;"/>
    <clipPath id="_clip1">
        <rect x="0" y="0" width="32" height="32"/>
    </clipPath>
    <g clip-path="url(#_clip1)">
        <g id="outline">
            <path d="M6.337,13.325l3.825,-7.65c1.106,-2.211 3.366,-3.607 5.838,-3.607c2.472,0 4.732,1.396 5.838,3.607l3.825,7.65c2.074,0.709 3.337,1.647 3.337,2.675c0,0 0,1.172 0,1.172c0,0.542 -0.147,1.074 -0.425,1.539l-5.675,9.5c-0.01,0.018 -0.021,0.035 -0.032,0.053l0,0.001l0,0c-0.634,0.988 -3.47,1.735 -6.868,1.735c-3.398,0 -6.234,-0.747 -6.868,-1.735l0,0l0,-0.001c-0.011,-0.018 -0.022,-0.035 -0.032,-0.053l-5.675,-9.5c-0.278,-0.465 -0.425,-0.997 -0.425,-1.539l0,-1.172c0,-1.028 1.263,-1.966 3.337,-2.675Z" style="fill:none;stroke:#000;stroke-width:4px;"/>
        </g>
        <g id="emoji">
            <path d="M29,16l0,1.172c0,0.542 -0.147,1.074 -0.425,1.539l-5.675,9.5c-0.01,0.018 -0.021,0.035 -0.032,0.053l0,0.001l0,0c-0.634,0.988 -3.47,1.735 -6.868,1.735c-3.398,0 -6.234,-0.747 -6.868,-1.735l0,0l0,-0.001c-0.011,-0.018 -0.022,-0.035 -0.032,-0.053l-5.675,-9.5c-0.278,-0.465 -0.425,-0.997 -0.425,-1.539l0,-1.172l26,0Z" style="fill:#338ceb;"/>
            <ellipse cx="16" cy="16" rx="13" ry="4" style="fill:#136cc5;"/>
            <path d="M16.335,12.001l0.334,0.004l0.331,0.007l0.328,0.009l0.327,0.011l0.324,0.014l0.321,0.017l0.319,0.018l0.315,0.022l0.313,0.023l0.31,0.026l0.307,0.028l0.304,0.03l0.3,0.033l0.297,0.035l0.293,0.037l0.29,0.039l0.286,0.041l0.282,0.043l0.278,0.045l0.275,0.047l0.27,0.049l0.266,0.052l0.261,0.053l0.257,0.054l0.253,0.057l0.248,0.059l0.243,0.06l0.239,0.062l0.233,0.064l0.115,0.032l0.113,0.033l0.113,0.033l0.111,0.034l0.109,0.034l0.109,0.035l0.107,0.035l0.105,0.035l0.104,0.036l0.103,0.036l0.102,0.036l0.1,0.037l0.099,0.037l0.097,0.038l0.096,0.038l0.094,0.038l0.093,0.039l0.091,0.039l0.09,0.039l0.089,0.04l0.086,0.04l0.086,0.041l0.084,0.04l0.082,0.042l0.081,0.041l0.079,0.042l0.077,0.042l0.076,0.042l0.074,0.043l0.073,0.043l0.071,0.043l0.069,0.043l0.068,0.044l0.066,0.044l0.064,0.045l0.063,0.045l0.061,0.045l0.059,0.045l0.057,0.045l0.056,0.046l0.053,0.046l0.052,0.047l0.051,0.046l0.048,0.047l0.047,0.047l0.044,0.047l0.043,0.048l0.041,0.048l0.04,0.048l0.037,0.048l0.035,0.049l0.034,0.048l0.031,0.049l0.03,0.049l0.027,0.05l0.026,0.049l0.024,0.05l0.021,0.05l0.02,0.05l0.018,0.05l0.015,0.051l0.014,0.05l0.012,0.051l0.009,0.051l0.007,0.051l0.006,0.052l0.003,0.051l0.001,0.052l-0.001,0.052l-0.003,0.051l-0.006,0.052l-0.007,0.051l-0.009,0.051l-0.012,0.051l-0.014,0.05l-0.015,0.051l-0.018,0.05l-0.02,0.05l-0.021,0.05l-0.024,0.05l-0.026,0.049l-0.027,0.05l-0.03,0.049l-0.031,0.049l-0.034,0.048l-0.035,0.049l-0.037,0.048l-0.04,0.048l-0.041,0.048l-0.043,0.048l-0.044,0.047l-0.047,0.047l-0.048,0.047l-0.051,0.046l-0.052,0.047l-0.053,0.046l-0.056,0.046l-0.057,0.045l-0.059,0.045l-0.061,0.045l-0.063,0.045l-0.064,0.045l-0.066,0.044l-0.068,0.044l-0.069,0.043l-0.071,0.043l-0.073,0.043l-0.074,0.043l-0.076,0.042l-0.077,0.042l-0.079,0.042l-0.081,0.041l-0.082,0.042l-0.084,0.04l-0.086,0.041l-0.086,0.04l-0.089,0.04l-0.09,0.039l-0.091,0.039l-0.093,0.039l-0.094,0.038l-0.096,0.038l-0.097,0.038l-0.099,0.037l-0.1,0.037l-0.102,0.036l-0.103,0.036l-0.104,0.036l-0.105,0.035l-0.107,0.035l-0.109,0.035l-0.109,0.034l-0.111,0.034l-0.113,0.033l-0.113,0.033l-0.115,0.032l-0.233,0.064l-0.239,0.062l-0.243,0.06l-0.248,0.059l-0.253,0.057l-0.257,0.054l-0.261,0.053l-0.266,0.052l-0.27,0.049l-0.275,0.047l-0.278,0.045l-0.282,0.043l-0.286,0.041l-0.29,0.039l-0.293,0.037l-0.297,0.035l-0.3,0.033l-0.304,0.03l-0.307,0.028l-0.31,0.026l-0.313,0.023l-0.315,0.022l-0.319,0.018l-0.321,0.017l-0.324,0.014l-0.327,0.011l-0.328,0.009l-0.331,0.007l-0.334,0.004l-0.335,0.001l-0.335,-0.001l-0.334,-0.004l-0.331,-0.007l-0.328,-0.009l-0.327,-0.011l-0.324,-0.014l-0.321,-0.017l-0.319,-0.018l-0.315,-0.022l-0.313,-0.023l-0.31,-0.026l-0.307,-0.028l-0.304,-0.03l-0.3,-0.033l-0.297,-0.035l-0.293,-0.037l-0.29,-0.039l-0.286,-0.041l-0.282,-0.043l-0.278,-0.045l-0.275,-0.047l-0.27,-0.049l-0.266,-0.052l-0.261,-0.053l-0.257,-0.054l-0.253,-0.057l-0.248,-0.059l-0.243,-0.06l-0.239,-0.062l-0.233,-0.064l-0.115,-0.032l-0.113,-0.033l-0.113,-0.033l-0.111,-0.034l-0.109,-0.034l-0.109,-0.035l-0.107,-0.035l-0.105,-0.035l-0.104,-0.036l-0.103,-0.036l-0.102,-0.036l-0.1,-0.037l-0.099,-0.037l-0.097,-0.038l-0.096,-0.038l-0.094,-0.038l-0.093,-0.039l-0.091,-0.039l-0.09,-0.039l-0.089,-0.04l-0.086,-0.04l-0.086,-0.041l-0.084,-0.04l-0.082,-0.042l-0.081,-0.041l-0.079,-0.042l-0.077,-0.042l-0.076,-0.042l-0.074,-0.043l-0.073,-0.043l-0.071,-0.043l-0.069,-0.043l-0.068,-0.044l-0.066,-0.044l-0.064,-0.045l-0.063,-0.045l-0.061,-0.045l-0.059,-0.045l-0.057,-0.045l-0.056,-0.046l-0.053,-0.046l-0.052,-0.047l-0.051,-0.046l-0.048,-0.047l-0.047,-0.047l-0.044,-0.047l-0.043,-0.048l-0.041,-0.048l-0.04,-0.048l-0.037,-0.048l-0.035,-0.049l-0.034,-0.048l-0.031,-0.049l-0.03,-0.049l-0.027,-0.05l-0.026,-0.049l-0.024,-0.05l-0.021,-0.05l-0.02,-0.05l-0.018,-0.05l-0.015,-0.051l-0.014,-0.05l-0.012,-0.051l-0.009,-0.051l-0.007,-0.051l-0.006,-0.052l-0.003,-0.051l-0.001,-0.052l0.001,-0.052l0.003,-0.051l0.006,-0.052l0.007,-0.051l0.009,-0.051l0.012,-0.051l0.014,-0.05l0.015,-0.051l0.018,-0.05l0.02,-0.05l0.021,-0.05l0.024,-0.05l0.026,-0.049l0.027,-0.05l0.03,-0.049l0.031,-0.049l0.034,-0.048l0.035,-0.049l0.037,-0.048l0.04,-0.048l0.041,-0.048l0.043,-0.048l0.044,-0.047l0.047,-0.047l0.048,-0.047l0.051,-0.046l0.052,-0.047l0.053,-0.046l0.056,-0.046l0.057,-0.045l0.059,-0.045l0.061,-0.045l0.063,-0.045l0.064,-0.045l0.066,-0.044l0.068,-0.044l0.069,-0.043l0.071,-0.043l0.073,-0.043l0.074,-0.043l0.076,-0.042l0.077,-0.042l0.079,-0.042l0.081,-0.041l0.082,-0.042l0.084,-0.04l0.086,-0.041l0.086,-0.04l0.089,-0.04l0.09,-0.039l0.091,-0.039l0.093,-0.039l0.094,-0.038l0.096,-0.038l0.097,-0.038l0.099,-0.037l0.1,-0.037l0.102,-0.036l0.103,-0.036l0.104,-0.036l0.105,-0.035l0.107,-0.035l0.109,-0.035l0.109,-0.034l0.111,-0.034l0.113,-0.033l0.113,-0.033l0.115,-0.032l0.233,-0.064l0.239,-0.062l0.243,-0.06l0.248,-0.059l0.253,-0.057l0.257,-0.054l0.261,-0.053l0.266,-0.052l0.27,-0.049l0.275,-0.047l0.278,-0.045l0.282,-0.043l0.286,-0.041l0.29,-0.039l0.293,-0.037l0.297,-0.035l0.3,-0.033l0.304,-0.03l0.307,-0.028l0.31,-0.026l0.313,-0.023l0.315,-0.022l0.319,-0.018l0.321,-0.017l0.324,-0.014l0.327,-0.011l0.328,-0.009l0.331,-0.007l0.334,-0.004l0.335,-0.001l0.335,0.001Zm-0.659,1.5l-0.321,0.004l-0.319,0.006l-0.317,0.009l-0.315,0.011l-0.312,0.013l-0.31,0.016l-0.306,0.018l-0.304,0.021l-0.301,0.022l-0.297,0.025l-0.295,0.027l-0.291,0.029l-0.288,0.031l-0.284,0.034l-0.28,0.035l-0.277,0.037l-0.273,0.039l-0.268,0.042l-0.265,0.043l-0.26,0.044l-0.256,0.047l-0.251,0.048l-0.247,0.05l-0.242,0.052l-0.237,0.053l-0.231,0.055l-0.227,0.056l-0.221,0.057l-0.218,0.06l-0.104,0.029l-0.104,0.03l-0.103,0.031l-0.101,0.031l-0.1,0.031l-0.099,0.031l-0.097,0.032l-0.095,0.032l-0.094,0.032l-0.092,0.032l-0.091,0.033l-0.089,0.033l-0.087,0.033l-0.086,0.033l-0.084,0.033l-0.082,0.034l-0.081,0.033l-0.079,0.034l-0.077,0.034l-0.075,0.033l-0.073,0.034l-0.072,0.034l-0.07,0.034l-0.067,0.034l-0.066,0.034l-0.064,0.033l-0.062,0.034l-0.06,0.033l-0.058,0.034l-0.056,0.033l-0.054,0.032l-0.051,0.033l-0.05,0.032l-0.047,0.032l-0.046,0.031l-0.043,0.031l-0.04,0.03l-0.039,0.03l-0.037,0.029l-0.034,0.028l-0.032,0.027l-0.03,0.027l-0.027,0.025l-0.026,0.025l-0.023,0.023l-0.021,0.022l-0.018,0.021l-0.017,0.02l-0.015,0.017l-0.012,0.017l-0.002,0.002l0.014,0.019l0.015,0.017l0.017,0.02l0.018,0.021l0.021,0.022l0.023,0.023l0.026,0.025l0.027,0.025l0.03,0.027l0.032,0.027l0.034,0.028l0.037,0.029l0.039,0.03l0.04,0.03l0.043,0.031l0.046,0.031l0.047,0.032l0.05,0.032l0.051,0.033l0.054,0.032l0.056,0.033l0.058,0.034l0.06,0.033l0.062,0.034l0.064,0.033l0.066,0.034l0.067,0.034l0.07,0.034l0.072,0.034l0.073,0.034l0.075,0.033l0.077,0.034l0.079,0.034l0.081,0.033l0.082,0.034l0.084,0.033l0.086,0.033l0.087,0.033l0.089,0.033l0.091,0.033l0.092,0.032l0.094,0.032l0.095,0.032l0.097,0.032l0.099,0.031l0.1,0.031l0.101,0.031l0.103,0.031l0.104,0.03l0.104,0.029l0.218,0.06l0.221,0.057l0.227,0.056l0.231,0.055l0.237,0.053l0.242,0.052l0.247,0.05l0.251,0.048l0.256,0.047l0.26,0.044l0.265,0.043l0.268,0.042l0.273,0.039l0.277,0.037l0.28,0.035l0.284,0.034l0.288,0.031l0.291,0.029l0.295,0.027l0.297,0.025l0.301,0.022l0.304,0.021l0.306,0.018l0.31,0.016l0.312,0.013l0.315,0.011l0.317,0.009l0.319,0.006l0.321,0.004l0.324,0.001l0.324,-0.001l0.321,-0.004l0.319,-0.006l0.317,-0.009l0.315,-0.011l0.312,-0.013l0.31,-0.016l0.306,-0.018l0.304,-0.021l0.301,-0.022l0.297,-0.025l0.295,-0.027l0.291,-0.029l0.288,-0.031l0.284,-0.034l0.28,-0.035l0.277,-0.037l0.273,-0.039l0.268,-0.042l0.265,-0.043l0.26,-0.044l0.256,-0.047l0.251,-0.048l0.247,-0.05l0.242,-0.052l0.237,-0.053l0.231,-0.055l0.227,-0.056l0.221,-0.057l0.218,-0.06l0.104,-0.029l0.104,-0.03l0.103,-0.031l0.101,-0.031l0.1,-0.031l0.099,-0.031l0.097,-0.032l0.095,-0.032l0.094,-0.032l0.092,-0.032l0.091,-0.033l0.089,-0.033l0.087,-0.033l0.086,-0.033l0.084,-0.033l0.082,-0.034l0.081,-0.033l0.079,-0.034l0.077,-0.034l0.075,-0.033l0.073,-0.034l0.072,-0.034l0.07,-0.034l0.067,-0.034l0.066,-0.034l0.064,-0.033l0.062,-0.034l0.06,-0.033l0.058,-0.034l0.056,-0.033l0.054,-0.032l0.051,-0.033l0.05,-0.032l0.047,-0.032l0.046,-0.031l0.043,-0.031l0.04,-0.03l0.039,-0.03l0.037,-0.029l0.034,-0.028l0.032,-0.027l0.03,-0.027l0.027,-0.025l0.026,-0.025l0.023,-0.023l0.021,-0.022l0.018,-0.021l0.017,-0.02l0.015,-0.017l0.012,-0.017l0.002,-0.002l-0.002,-0.002l-0.012,-0.017l-0.015,-0.017l-0.017,-0.02l-0.018,-0.021l-0.021,-0.022l-0.023,-0.023l-0.026,-0.025l-0.027,-0.025l-0.03,-0.027l-0.032,-0.027l-0.034,-0.028l-0.037,-0.029l-0.039,-0.03l-0.04,-0.03l-0.043,-0.031l-0.046,-0.031l-0.047,-0.032l-0.05,-0.032l-0.051,-0.033l-0.054,-0.032l-0.056,-0.033l-0.058,-0.034l-0.06,-0.033l-0.062,-0.034l-0.064,-0.033l-0.066,-0.034l-0.067,-0.034l-0.07,-0.034l-0.072,-0.034l-0.073,-0.034l-0.075,-0.033l-0.077,-0.034l-0.079,-0.034l-0.081,-0.033l-0.082,-0.034l-0.084,-0.033l-0.086,-0.033l-0.087,-0.033l-0.089,-0.033l-0.091,-0.033l-0.092,-0.032l-0.094,-0.032l-0.095,-0.032l-0.097,-0.032l-0.099,-0.031l-0.1,-0.031l-0.101,-0.031l-0.103,-0.031l-0.104,-0.03l-0.104,-0.029l-0.218,-0.06l-0.221,-0.057l-0.227,-0.056l-0.231,-0.055l-0.237,-0.053l-0.242,-0.052l-0.247,-0.05l-0.251,-0.048l-0.256,-0.047l-0.26,-0.044l-0.265,-0.043l-0.268,-0.042l-0.273,-0.039l-0.277,-0.037l-0.28,-0.035l-0.284,-0.034l-0.288,-0.031l-0.291,-0.029l-0.295,-0.027l-0.297,-0.025l-0.301,-0.022l-0.304,-0.021l-0.306,-0.018l-0.31,-0.016l-0.312,-0.013l-0.315,-0.011l-0.317,-0.009l-0.319,-0.006l-0.321,-0.004l-0.324,-0.001l-0.324,0.001Z" style="fill:#68aef9;"/>
            <path d="M7.012,11.977c0.232,0.351 2.174,-1.852 4.77,-1.455c2.186,0.334 6.72,0.003 9.115,0.754c3.681,1.153 4.905,3.419 5.025,3.334c0.052,0.344 0.078,0.693 0.078,1.042c0,1.102 0,2.348 0,2.348l-10,1l-10,-1l0,-2.348c0,-1.086 0.253,-2.158 0.739,-3.13l0.273,-0.545Z" style="fill:#fff;"/>
            <path d="M9,8l3.521,-2.623l9.028,1.112l2.784,4.178l0.928,1.855c0.329,0.659 0.552,1.364 0.661,2.088c-0.29,0.205 -0.634,0.329 -0.996,0.355c-0.57,0.04 -1.13,-0.169 -1.534,-0.573c0,0 0,0 0,0c-0.369,-0.369 -0.87,-0.577 -1.392,-0.577c-0.522,0 -1.023,0.208 -1.392,0.577c-0.574,0.574 -1.223,1.223 -1.729,1.729c-0.563,0.563 -1.326,0.879 -2.122,0.879l-1.235,0c-0.669,0 -1.31,-0.266 -1.783,-0.739c-0.473,-0.473 -0.739,-1.114 -0.739,-1.783c0,-0.001 0,-0.002 0,-0.002c0,-0.557 -0.276,-1.077 -0.736,-1.388c-0.461,-0.312 -1.046,-0.375 -1.562,-0.169c-0.098,0.039 -0.195,0.078 -0.293,0.117c-1.254,0.502 -2.669,0.041 -3.397,-1.059l1.988,-3.977Z" style="fill:#ffb8c9;"/>
            <path d="M9,8l1.162,-2.325c1.106,-2.211 3.366,-3.607 5.838,-3.607c2.472,0 4.732,1.396 5.838,3.607l2.495,4.992l-0.555,0.138c-0.454,0.114 -0.927,-0.103 -1.137,-0.522c-0.007,-0.014 -0.014,-0.028 -0.021,-0.042c-0.143,-0.288 -0.416,-0.488 -0.734,-0.54c-0.317,-0.051 -0.64,0.053 -0.867,0.28c-0.763,0.763 -1.795,1.795 -2.433,2.433c-0.375,0.375 -0.884,0.586 -1.414,0.586c-0.056,0 -0.114,0 -0.172,0c-0.53,0 -1.039,-0.211 -1.414,-0.586c-0.375,-0.375 -0.586,-0.884 -0.586,-1.414c0,-0.914 0,-1.996 0,-2.919c0,-0.385 -0.22,-0.735 -0.567,-0.902c-0.346,-0.166 -0.758,-0.119 -1.058,0.121c-0.795,0.636 -1.727,1.381 -2.409,1.927c-0.236,0.189 -0.544,0.261 -0.839,0.196c-0.295,-0.065 -0.545,-0.259 -0.68,-0.529l-0.447,-0.894Z" style="fill:#f63a69;"/>
            <rect x="2" y="16" width="28" height="9" style="fill:none;"/>
            <clipPath id="_clip2">
                <rect x="2" y="16" width="28" height="9"/>
            </clipPath>
            <g clip-path="url(#_clip2)">
                <path d="M16.335,12.001l0.334,0.004l0.331,0.007l0.328,0.009l0.327,0.011l0.324,0.014l0.321,0.017l0.319,0.018l0.315,0.022l0.313,0.023l0.31,0.026l0.307,0.028l0.304,0.03l0.3,0.033l0.297,0.035l0.293,0.037l0.29,0.039l0.286,0.041l0.282,0.043l0.278,0.045l0.275,0.047l0.27,0.049l0.266,0.052l0.261,0.053l0.257,0.054l0.253,0.057l0.248,0.059l0.243,0.06l0.239,0.062l0.233,0.064l0.115,0.032l0.113,0.033l0.113,0.033l0.111,0.034l0.109,0.034l0.109,0.035l0.107,0.035l0.105,0.035l0.104,0.036l0.103,0.036l0.102,0.036l0.1,0.037l0.099,0.037l0.097,0.038l0.096,0.038l0.094,0.038l0.093,0.039l0.091,0.039l0.09,0.039l0.089,0.04l0.086,0.04l0.086,0.041l0.084,0.04l0.082,0.042l0.081,0.041l0.079,0.042l0.077,0.042l0.076,0.042l0.074,0.043l0.073,0.043l0.071,0.043l0.069,0.043l0.068,0.044l0.066,0.044l0.064,0.045l0.063,0.045l0.061,0.045l0.059,0.045l0.057,0.045l0.056,0.046l0.053,0.046l0.052,0.047l0.051,0.046l0.048,0.047l0.047,0.047l0.044,0.047l0.043,0.048l0.041,0.048l0.04,0.048l0.037,0.048l0.035,0.049l0.034,0.048l0.031,0.049l0.03,0.049l0.027,0.05l0.026,0.049l0.024,0.05l0.021,0.05l0.02,0.05l0.018,0.05l0.015,0.051l0.014,0.05l0.012,0.051l0.009,0.051l0.007,0.051l0.006,0.052l0.003,0.051l0.001,0.052l-0.001,0.052l-0.003,0.051l-0.006,0.052l-0.007,0.051l-0.009,0.051l-0.012,0.051l-0.014,0.05l-0.015,0.051l-0.018,0.05l-0.02,0.05l-0.021,0.05l-0.024,0.05l-0.026,0.049l-0.027,0.05l-0.03,0.049l-0.031,0.049l-0.034,0.048l-0.035,0.049l-0.037,0.048l-0.04,0.048l-0.041,0.048l-0.043,0.048l-0.044,0.047l-0.047,0.047l-0.048,0.047l-0.051,0.046l-0.052,0.047l-0.053,0.046l-0.056,0.046l-0.057,0.045l-0.059,0.045l-0.061,0.045l-0.063,0.045l-0.064,0.045l-0.066,0.044l-0.068,0.044l-0.069,0.043l-0.071,0.043l-0.073,0.043l-0.074,0.043l-0.076,0.042l-0.077,0.042l-0.079,0.042l-0.081,0.041l-0.082,0.042l-0.084,0.04l-0.086,0.041l-0.086,0.04l-0.089,0.04l-0.09,0.039l-0.091,0.039l-0.093,0.039l-0.094,0.038l-0.096,0.038l-0.097,0.038l-0.099,0.037l-0.1,0.037l-0.102,0.036l-0.103,0.036l-0.104,0.036l-0.105,0.035l-0.107,0.035l-0.109,0.035l-0.109,0.034l-0.111,0.034l-0.113,0.033l-0.113,0.033l-0.115,0.032l-0.233,0.064l-0.239,0.062l-0.243,0.06l-0.248,0.059l-0.253,0.057l-0.257,0.054l-0.261,0.053l-0.266,0.052l-0.27,0.049l-0.275,0.047l-0.278,0.045l-0.282,0.043l-0.286,0.041l-0.29,0.039l-0.293,0.037l-0.297,0.035l-0.3,0.033l-0.304,0.03l-0.307,0.028l-0.31,0.026l-0.313,0.023l-0.315,0.022l-0.319,0.018l-0.321,0.017l-0.324,0.014l-0.327,0.011l-0.328,0.009l-0.331,0.007l-0.334,0.004l-0.335,0.001l-0.335,-0.001l-0.334,-0.004l-0.331,-0.007l-0.328,-0.009l-0.327,-0.011l-0.324,-0.014l-0.321,-0.017l-0.319,-0.018l-0.315,-0.022l-0.313,-0.023l-0.31,-0.026l-0.307,-0.028l-0.304,-0.03l-0.3,-0.033l-0.297,-0.035l-0.293,-0.037l-0.29,-0.039l-0.286,-0.041l-0.282,-0.043l-0.278,-0.045l-0.275,-0.047l-0.27,-0.049l-0.266,-0.052l-0.261,-0.053l-0.257,-0.054l-0.253,-0.057l-0.248,-0.059l-0.243,-0.06l-0.239,-0.062l-0.233,-0.064l-0.115,-0.032l-0.113,-0.033l-0.113,-0.033l-0.111,-0.034l-0.109,-0.034l-0.109,-0.035l-0.107,-0.035l-0.105,-0.035l-0.104,-0.036l-0.103,-0.036l-0.102,-0.036l-0.1,-0.037l-0.099,-0.037l-0.097,-0.038l-0.096,-0.038l-0.094,-0.038l-0.093,-0.039l-0.091,-0.039l-0.09,-0.039l-0.089,-0.04l-0.086,-0.04l-0.086,-0.041l-0.084,-0.04l-0.082,-0.042l-0.081,-0.041l-0.079,-0.042l-0.077,-0.042l-0.076,-0.042l-0.074,-0.043l-0.073,-0.043l-0.071,-0.043l-0.069,-0.043l-0.068,-0.044l-0.066,-0.044l-0.064,-0.045l-0.063,-0.045l-0.061,-0.045l-0.059,-0.045l-0.057,-0.045l-0.056,-0.046l-0.053,-0.046l-0.052,-0.047l-0.051,-0.046l-0.048,-0.047l-0.047,-0.047l-0.044,-0.047l-0.043,-0.048l-0.041,-0.048l-0.04,-0.048l-0.037,-0.048l-0.035,-0.049l-0.034,-0.048l-0.031,-0.049l-0.03,-0.049l-0.027,-0.05l-0.026,-0.049l-0.024,-0.05l-0.021,-0.05l-0.02,-0.05l-0.018,-0.05l-0.015,-0.051l-0.014,-0.05l-0.012,-0.051l-0.009,-0.051l-0.007,-0.051l-0.006,-0.052l-0.003,-0.051l-0.001,-0.052l0.001,-0.052l0.003,-0.051l0.006,-0.052l0.007,-0.051l0.009,-0.051l0.012,-0.051l0.014,-0.05l0.015,-0.051l0.018,-0.05l0.02,-0.05l0.021,-0.05l0.024,-0.05l0.026,-0.049l0.027,-0.05l0.03,-0.049l0.031,-0.049l0.034,-0.048l0.035,-0.049l0.037,-0.048l0.04,-0.048l0.041,-0.048l0.043,-0.048l0.044,-0.047l0.047,-0.047l0.048,-0.047l0.051,-0.046l0.052,-0.047l0.053,-0.046l0.056,-0.046l0.057,-0.045l0.059,-0.045l0.061,-0.045l0.063,-0.045l0.064,-0.045l0.066,-0.044l0.068,-0.044l0.069,-0.043l0.071,-0.043l0.073,-0.043l0.074,-0.043l0.076,-0.042l0.077,-0.042l0.079,-0.042l0.081,-0.041l0.082,-0.042l0.084,-0.04l0.086,-0.041l0.086,-0.04l0.089,-0.04l0.09,-0.039l0.091,-0.039l0.093,-0.039l0.094,-0.038l0.096,-0.038l0.097,-0.038l0.099,-0.037l0.1,-0.037l0.102,-0.036l0.103,-0.036l0.104,-0.036l0.105,-0.035l0.107,-0.035l0.109,-0.035l0.109,-0.034l0.111,-0.034l0.113,-0.033l0.113,-0.033l0.115,-0.032l0.233,-0.064l0.239,-0.062l0.243,-0.06l0.248,-0.059l0.253,-0.057l0.257,-0.054l0.261,-0.053l0.266,-0.052l0.27,-0.049l0.275,-0.047l0.278,-0.045l0.282,-0.043l0.286,-0.041l0.29,-0.039l0.293,-0.037l0.297,-0.035l0.3,-0.033l0.304,-0.03l0.307,-0.028l0.31,-0.026l0.313,-0.023l0.315,-0.022l0.319,-0.018l0.321,-0.017l0.324,-0.014l0.327,-0.011l0.328,-0.009l0.331,-0.007l0.334,-0.004l0.335,-0.001l0.335,0.001Zm-0.659,1.5l-0.321,0.004l-0.319,0.006l-0.317,0.009l-0.315,0.011l-0.312,0.013l-0.31,0.016l-0.306,0.018l-0.304,0.021l-0.301,0.022l-0.297,0.025l-0.295,0.027l-0.291,0.029l-0.288,0.031l-0.284,0.034l-0.28,0.035l-0.277,0.037l-0.273,0.039l-0.268,0.042l-0.265,0.043l-0.26,0.044l-0.256,0.047l-0.251,0.048l-0.247,0.05l-0.242,0.052l-0.237,0.053l-0.231,0.055l-0.227,0.056l-0.221,0.057l-0.218,0.06l-0.104,0.029l-0.104,0.03l-0.103,0.031l-0.101,0.031l-0.1,0.031l-0.099,0.031l-0.097,0.032l-0.095,0.032l-0.094,0.032l-0.092,0.032l-0.091,0.033l-0.089,0.033l-0.087,0.033l-0.086,0.033l-0.084,0.033l-0.082,0.034l-0.081,0.033l-0.079,0.034l-0.077,0.034l-0.075,0.033l-0.073,0.034l-0.072,0.034l-0.07,0.034l-0.067,0.034l-0.066,0.034l-0.064,0.033l-0.062,0.034l-0.06,0.033l-0.058,0.034l-0.056,0.033l-0.054,0.032l-0.051,0.033l-0.05,0.032l-0.047,0.032l-0.046,0.031l-0.043,0.031l-0.04,0.03l-0.039,0.03l-0.037,0.029l-0.034,0.028l-0.032,0.027l-0.03,0.027l-0.027,0.025l-0.026,0.025l-0.023,0.023l-0.021,0.022l-0.018,0.021l-0.017,0.02l-0.015,0.017l-0.012,0.017l-0.002,0.002l0.014,0.019l0.015,0.017l0.017,0.02l0.018,0.021l0.021,0.022l0.023,0.023l0.026,0.025l0.027,0.025l0.03,0.027l0.032,0.027l0.034,0.028l0.037,0.029l0.039,0.03l0.04,0.03l0.043,0.031l0.046,0.031l0.047,0.032l0.05,0.032l0.051,0.033l0.054,0.032l0.056,0.033l0.058,0.034l0.06,0.033l0.062,0.034l0.064,0.033l0.066,0.034l0.067,0.034l0.07,0.034l0.072,0.034l0.073,0.034l0.075,0.033l0.077,0.034l0.079,0.034l0.081,0.033l0.082,0.034l0.084,0.033l0.086,0.033l0.087,0.033l0.089,0.033l0.091,0.033l0.092,0.032l0.094,0.032l0.095,0.032l0.097,0.032l0.099,0.031l0.1,0.031l0.101,0.031l0.103,0.031l0.104,0.03l0.104,0.029l0.218,0.06l0.221,0.057l0.227,0.056l0.231,0.055l0.237,0.053l0.242,0.052l0.247,0.05l0.251,0.048l0.256,0.047l0.26,0.044l0.265,0.043l0.268,0.042l0.273,0.039l0.277,0.037l0.28,0.035l0.284,0.034l0.288,0.031l0.291,0.029l0.295,0.027l0.297,0.025l0.301,0.022l0.304,0.021l0.306,0.018l0.31,0.016l0.312,0.013l0.315,0.011l0.317,0.009l0.319,0.006l0.321,0.004l0.324,0.001l0.324,-0.001l0.321,-0.004l0.319,-0.006l0.317,-0.009l0.315,-0.011l0.312,-0.013l0.31,-0.016l0.306,-0.018l0.304,-0.021l0.301,-0.022l0.297,-0.025l0.295,-0.027l0.291,-0.029l0.288,-0.031l0.284,-0.034l0.28,-0.035l0.277,-0.037l0.273,-0.039l0.268,-0.042l0.265,-0.043l0.26,-0.044l0.256,-0.047l0.251,-0.048l0.247,-0.05l0.242,-0.052l0.237,-0.053l0.231,-0.055l0.227,-0.056l0.221,-0.057l0.218,-0.06l0.104,-0.029l0.104,-0.03l0.103,-0.031l0.101,-0.031l0.1,-0.031l0.099,-0.031l0.097,-0.032l0.095,-0.032l0.094,-0.032l0.092,-0.032l0.091,-0.033l0.089,-0.033l0.087,-0.033l0.086,-0.033l0.084,-0.033l0.082,-0.034l0.081,-0.033l0.079,-0.034l0.077,-0.034l0.075,-0.033l0.073,-0.034l0.072,-0.034l0.07,-0.034l0.067,-0.034l0.066,-0.034l0.064,-0.033l0.062,-0.034l0.06,-0.033l0.058,-0.034l0.056,-0.033l0.054,-0.032l0.051,-0.033l0.05,-0.032l0.047,-0.032l0.046,-0.031l0.043,-0.031l0.04,-0.03l0.039,-0.03l0.037,-0.029l0.034,-0.028l0.032,-0.027l0.03,-0.027l0.027,-0.025l0.026,-0.025l0.023,-0.023l0.021,-0.022l0.018,-0.021l0.017,-0.02l0.015,-0.017l0.012,-0.017l0.002,-0.002l-0.002,-0.002l-0.012,-0.017l-0.015,-0.017l-0.017,-0.02l-0.018,-0.021l-0.021,-0.022l-0.023,-0.023l-0.026,-0.025l-0.027,-0.025l-0.03,-0.027l-0.032,-0.027l-0.034,-0.028l-0.037,-0.029l-0.039,-0.03l-0.04,-0.03l-0.043,-0.031l-0.046,-0.031l-0.047,-0.032l-0.05,-0.032l-0.051,-0.033l-0.054,-0.032l-0.056,-0.033l-0.058,-0.034l-0.06,-0.033l-0.062,-0.034l-0.064,-0.033l-0.066,-0.034l-0.067,-0.034l-0.07,-0.034l-0.072,-0.034l-0.073,-0.034l-0.075,-0.033l-0.077,-0.034l-0.079,-0.034l-0.081,-0.033l-0.082,-0.034l-0.084,-0.033l-0.086,-0.033l-0.087,-0.033l-0.089,-0.033l-0.091,-0.033l-0.092,-0.032l-0.094,-0.032l-0.095,-0.032l-0.097,-0.032l-0.099,-0.031l-0.1,-0.031l-0.101,-0.031l-0.103,-0.031l-0.104,-0.03l-0.104,-0.029l-0.218,-0.06l-0.221,-0.057l-0.227,-0.056l-0.231,-0.055l-0.237,-0.053l-0.242,-0.052l-0.247,-0.05l-0.251,-0.048l-0.256,-0.047l-0.26,-0.044l-0.265,-0.043l-0.268,-0.042l-0.273,-0.039l-0.277,-0.037l-0.28,-0.035l-0.284,-0.034l-0.288,-0.031l-0.291,-0.029l-0.295,-0.027l-0.297,-0.025l-0.301,-0.022l-0.304,-0.021l-0.306,-0.018l-0.31,-0.016l-0.312,-0.013l-0.315,-0.011l-0.317,-0.009l-0.319,-0.006l-0.321,-0.004l-0.324,-0.001l-0.324,0.001Z" style="fill:#68aef9;"/>
            </g>
        </g>
    </g>
</svg>
