<?xml version="1.0" encoding="UTF-8" standalone="no"?>
<!DOCTYPE svg PUBLIC "-//W3C//DTD SVG 1.1//EN" "http://www.w3.org/Graphics/SVG/1.1/DTD/svg11.dtd">
<svg width="100%" height="100%" viewBox="0 0 32 32" version="1.1" xmlns="http://www.w3.org/2000/svg" xmlns:xlink="http://www.w3.org/1999/xlink" xml:space="preserve" xmlns:serif="http://www.serif.com/" style="fill-rule:evenodd;clip-rule:evenodd;stroke-linecap:square;stroke-linejoin:round;stroke-miterlimit:1.5;">
    <rect id="shaved_ice" x="0" y="0" width="32" height="32" style="fill:none;"/>
    <g id="outline">
        <path d="M4,16l0,2l4,10l16,0l4,-10l0,-2l-24,0Z" style="fill:none;stroke:#000;stroke-width:4px;"/>
        <ellipse cx="16" cy="16" rx="12" ry="3" style="fill:none;stroke:#000;stroke-width:4px;"/>
        <ellipse cx="16" cy="28" rx="8" ry="1.846" style="fill:none;stroke:#000;stroke-width:4px;"/>
        <path d="M5,16c0,0 2.606,-4.738 5.281,-9.602c1.147,-2.086 3.339,-3.381 5.719,-3.381c2.38,0 4.572,1.295 5.719,3.381c2.675,4.864 5.281,9.602 5.281,9.602l0,4l-22,0l0,-4Z" style="fill:none;stroke:#000;stroke-width:4px;"/>
    </g>
    <g id="emoji">
        <path d="M4,16l0,2l4,10l16,0l4,-10l0,-2l-24,0Z" style="fill:#59aeef;"/>
        <clipPath id="_clip1">
            <path d="M4,16l0,2l4,10l16,0l4,-10l0,-2l-24,0Z"/>
        </clipPath>
        <g clip-path="url(#_clip1)">
            <rect x="3" y="18" width="26" height="7" style="fill:none;"/>
            <clipPath id="_clip2">
                <rect x="3" y="18" width="26" height="7"/>
            </clipPath>
            <g clip-path="url(#_clip2)">
                <path d="M16.322,13.001l0.32,0.003l0.319,0.005l0.316,0.007l0.314,0.009l0.312,0.011l0.309,0.013l0.307,0.015l0.305,0.016l0.302,0.019l0.299,0.02l0.297,0.022l0.294,0.024l0.291,0.025l0.288,0.028l0.285,0.029l0.281,0.031l0.279,0.032l0.275,0.035l0.272,0.036l0.269,0.037l0.265,0.039l0.262,0.041l0.258,0.043l0.254,0.044l0.251,0.045l0.246,0.048l0.244,0.049l0.239,0.05l0.235,0.052l0.231,0.054l0.228,0.056l0.223,0.057l0.22,0.059l0.215,0.061l0.211,0.062l0.208,0.064l0.203,0.067l0.199,0.068l0.196,0.07l0.187,0.071l0.098,0.039l0.093,0.038l0.093,0.039l0.091,0.039l0.091,0.04l0.09,0.041l0.088,0.041l0.088,0.042l0.087,0.043l0.087,0.044l0.085,0.045l0.085,0.046l0.084,0.047l0.083,0.049l0.082,0.049l0.082,0.051l0.081,0.052l0.08,0.054l0.079,0.055l0.079,0.057l0.078,0.059l0.078,0.061l0.077,0.063l0.075,0.065l0.076,0.068l0.074,0.071l0.074,0.073l0.073,0.076l0.071,0.08l0.07,0.083l0.069,0.087l0.068,0.091l0.065,0.095l0.063,0.099l0.061,0.103l0.057,0.108l0.055,0.112l0.05,0.117l0.046,0.121l0.042,0.125l0.036,0.129l0.03,0.133l0.024,0.135l0.018,0.138l0.01,0.139l0.004,0.14l-0.004,0.14l-0.01,0.139l-0.018,0.138l-0.024,0.135l-0.03,0.133l-0.036,0.129l-0.042,0.125l-0.046,0.121l-0.05,0.117l-0.055,0.112l-0.057,0.108l-0.061,0.103l-0.063,0.099l-0.065,0.095l-0.068,0.091l-0.069,0.087l-0.07,0.083l-0.071,0.08l-0.073,0.076l-0.074,0.073l-0.074,0.071l-0.075,0.068l-0.077,0.065l-0.076,0.063l-0.078,0.061l-0.078,0.059l-0.079,0.057l-0.079,0.055l-0.08,0.054l-0.082,0.052l-0.081,0.051l-0.082,0.049l-0.083,0.048l-0.084,0.048l-0.085,0.046l-0.085,0.045l-0.087,0.044l-0.087,0.043l-0.088,0.042l-0.088,0.041l-0.09,0.041l-0.091,0.04l-0.091,0.039l-0.092,0.039l-0.094,0.038l-0.098,0.039l-0.187,0.071l-0.196,0.07l-0.199,0.068l-0.203,0.067l-0.208,0.064l-0.211,0.062l-0.215,0.061l-0.22,0.059l-0.223,0.057l-0.228,0.056l-0.231,0.054l-0.235,0.052l-0.239,0.05l-0.244,0.049l-0.246,0.048l-0.251,0.045l-0.254,0.044l-0.258,0.043l-0.262,0.041l-0.265,0.039l-0.269,0.037l-0.272,0.036l-0.275,0.035l-0.279,0.032l-0.281,0.031l-0.285,0.029l-0.288,0.028l-0.291,0.025l-0.294,0.024l-0.297,0.022l-0.299,0.02l-0.302,0.019l-0.305,0.016l-0.307,0.015l-0.309,0.013l-0.312,0.011l-0.314,0.009l-0.316,0.007l-0.319,0.005l-0.32,0.003l-0.322,0.001l-0.322,-0.001l-0.32,-0.003l-0.319,-0.005l-0.316,-0.007l-0.314,-0.009l-0.312,-0.011l-0.309,-0.013l-0.307,-0.015l-0.305,-0.016l-0.302,-0.019l-0.299,-0.02l-0.297,-0.022l-0.294,-0.024l-0.291,-0.025l-0.288,-0.028l-0.285,-0.029l-0.281,-0.031l-0.279,-0.032l-0.275,-0.035l-0.272,-0.036l-0.269,-0.037l-0.265,-0.039l-0.262,-0.041l-0.258,-0.043l-0.254,-0.044l-0.251,-0.045l-0.246,-0.048l-0.244,-0.049l-0.239,-0.05l-0.235,-0.052l-0.231,-0.054l-0.228,-0.056l-0.223,-0.057l-0.22,-0.059l-0.215,-0.061l-0.211,-0.062l-0.208,-0.064l-0.203,-0.067l-0.199,-0.068l-0.196,-0.07l-0.187,-0.071l-0.098,-0.039l-0.094,-0.038l-0.092,-0.039l-0.091,-0.039l-0.091,-0.04l-0.09,-0.041l-0.088,-0.041l-0.088,-0.042l-0.087,-0.043l-0.087,-0.044l-0.085,-0.045l-0.085,-0.046l-0.084,-0.048l-0.083,-0.048l-0.082,-0.049l-0.081,-0.051l-0.082,-0.052l-0.08,-0.054l-0.079,-0.055l-0.079,-0.057l-0.078,-0.059l-0.078,-0.061l-0.076,-0.063l-0.077,-0.065l-0.075,-0.068l-0.074,-0.071l-0.074,-0.073l-0.073,-0.076l-0.071,-0.08l-0.07,-0.083l-0.069,-0.087l-0.068,-0.091l-0.065,-0.095l-0.063,-0.099l-0.061,-0.103l-0.057,-0.108l-0.055,-0.112l-0.05,-0.117l-0.046,-0.121l-0.042,-0.125l-0.036,-0.129l-0.03,-0.133l-0.024,-0.135l-0.017,-0.138l-0.011,-0.139l-0.004,-0.14l0.004,-0.14l0.011,-0.139l0.017,-0.138l0.024,-0.135l0.03,-0.133l0.036,-0.129l0.042,-0.125l0.046,-0.121l0.05,-0.117l0.055,-0.112l0.057,-0.108l0.061,-0.103l0.063,-0.099l0.065,-0.095l0.068,-0.091l0.069,-0.087l0.07,-0.083l0.071,-0.08l0.073,-0.076l0.074,-0.073l0.074,-0.071l0.076,-0.068l0.075,-0.065l0.077,-0.063l0.078,-0.061l0.078,-0.059l0.079,-0.057l0.079,-0.055l0.08,-0.054l0.081,-0.052l0.082,-0.051l0.082,-0.049l0.083,-0.049l0.084,-0.047l0.085,-0.046l0.085,-0.045l0.087,-0.044l0.087,-0.043l0.088,-0.042l0.088,-0.041l0.09,-0.041l0.091,-0.04l0.091,-0.039l0.093,-0.039l0.093,-0.038l0.098,-0.039l0.187,-0.071l0.196,-0.07l0.199,-0.068l0.203,-0.067l0.208,-0.064l0.211,-0.062l0.215,-0.061l0.22,-0.059l0.223,-0.057l0.228,-0.056l0.231,-0.054l0.235,-0.052l0.239,-0.05l0.244,-0.049l0.246,-0.048l0.251,-0.045l0.254,-0.044l0.258,-0.043l0.262,-0.041l0.265,-0.039l0.269,-0.037l0.272,-0.036l0.275,-0.035l0.279,-0.032l0.281,-0.031l0.285,-0.029l0.288,-0.028l0.291,-0.025l0.294,-0.024l0.297,-0.022l0.299,-0.02l0.302,-0.019l0.305,-0.016l0.307,-0.015l0.309,-0.013l0.312,-0.011l0.314,-0.009l0.316,-0.007l0.319,-0.005l0.32,-0.003l0.322,-0.001l0.322,0.001Zm-0.632,2l-0.307,0.003l-0.306,0.005l-0.303,0.007l-0.301,0.008l-0.299,0.011l-0.297,0.012l-0.294,0.014l-0.292,0.016l-0.289,0.018l-0.286,0.019l-0.283,0.021l-0.28,0.023l-0.277,0.024l-0.274,0.026l-0.271,0.028l-0.268,0.029l-0.264,0.031l-0.26,0.032l-0.257,0.034l-0.253,0.036l-0.249,0.037l-0.246,0.038l-0.241,0.04l-0.238,0.041l-0.233,0.042l-0.229,0.044l-0.224,0.045l-0.22,0.047l-0.216,0.048l-0.211,0.049l-0.206,0.05l-0.201,0.052l-0.196,0.052l-0.191,0.054l-0.186,0.055l-0.181,0.056l-0.176,0.058l-0.17,0.058l-0.164,0.059l-0.159,0.061l-0.078,0.03l-0.076,0.031l-0.074,0.031l-0.073,0.031l-0.072,0.032l-0.07,0.032l-0.068,0.032l-0.067,0.032l-0.066,0.032l-0.064,0.033l-0.062,0.033l-0.061,0.033l-0.06,0.033l-0.057,0.034l-0.057,0.033l-0.054,0.034l-0.053,0.035l-0.051,0.034l-0.05,0.034l-0.048,0.035l-0.046,0.035l-0.045,0.035l-0.043,0.036l-0.041,0.035l-0.04,0.036l-0.038,0.036l-0.036,0.036l-0.034,0.036l-0.033,0.036l-0.031,0.037l-0.029,0.036l-0.027,0.037l-0.026,0.037l-0.024,0.037l-0.021,0.038l-0.021,0.037l-0.018,0.038l-0.016,0.037l-0.014,0.038l-0.013,0.038l-0.011,0.038l-0.008,0.039l-0.007,0.038l-0.005,0.039l-0.003,0.038l-0.001,0.039l0.001,0.039l0.003,0.038l0.005,0.039l0.007,0.038l0.008,0.039l0.011,0.038l0.013,0.038l0.014,0.038l0.016,0.037l0.018,0.038l0.021,0.037l0.021,0.038l0.024,0.037l0.026,0.037l0.027,0.037l0.029,0.036l0.031,0.037l0.033,0.036l0.034,0.036l0.036,0.036l0.038,0.036l0.04,0.036l0.041,0.035l0.043,0.036l0.045,0.035l0.046,0.035l0.048,0.035l0.05,0.034l0.051,0.034l0.053,0.035l0.054,0.034l0.057,0.033l0.057,0.034l0.06,0.033l0.061,0.033l0.062,0.033l0.064,0.033l0.066,0.032l0.067,0.032l0.068,0.032l0.07,0.032l0.072,0.032l0.073,0.031l0.074,0.031l0.076,0.031l0.078,0.03l0.159,0.061l0.164,0.059l0.17,0.058l0.176,0.058l0.181,0.056l0.186,0.055l0.191,0.054l0.196,0.052l0.201,0.052l0.206,0.05l0.211,0.049l0.216,0.048l0.22,0.047l0.224,0.045l0.229,0.044l0.233,0.042l0.238,0.041l0.241,0.04l0.246,0.038l0.249,0.037l0.253,0.036l0.257,0.034l0.26,0.032l0.264,0.031l0.268,0.029l0.271,0.028l0.274,0.026l0.277,0.024l0.28,0.023l0.283,0.021l0.286,0.019l0.289,0.018l0.292,0.016l0.294,0.014l0.297,0.012l0.299,0.011l0.301,0.008l0.303,0.007l0.306,0.005l0.307,0.003l0.31,0.001l0.31,-0.001l0.307,-0.003l0.306,-0.005l0.303,-0.007l0.301,-0.008l0.299,-0.011l0.297,-0.012l0.294,-0.014l0.292,-0.016l0.289,-0.018l0.286,-0.019l0.283,-0.021l0.28,-0.023l0.277,-0.024l0.274,-0.026l0.271,-0.028l0.268,-0.029l0.264,-0.031l0.26,-0.032l0.257,-0.034l0.253,-0.036l0.249,-0.037l0.246,-0.038l0.241,-0.04l0.238,-0.041l0.233,-0.042l0.229,-0.044l0.224,-0.045l0.22,-0.047l0.216,-0.048l0.211,-0.049l0.206,-0.05l0.201,-0.052l0.196,-0.052l0.191,-0.054l0.186,-0.055l0.181,-0.056l0.176,-0.058l0.17,-0.058l0.164,-0.059l0.159,-0.061l0.078,-0.03l0.076,-0.031l0.074,-0.031l0.073,-0.031l0.072,-0.032l0.07,-0.032l0.068,-0.032l0.067,-0.032l0.066,-0.032l0.064,-0.033l0.062,-0.033l0.061,-0.033l0.06,-0.033l0.057,-0.034l0.057,-0.033l0.054,-0.034l0.053,-0.035l0.051,-0.034l0.05,-0.034l0.048,-0.035l0.046,-0.035l0.045,-0.035l0.043,-0.036l0.041,-0.035l0.04,-0.036l0.038,-0.036l0.036,-0.036l0.034,-0.036l0.033,-0.036l0.031,-0.037l0.029,-0.036l0.027,-0.037l0.026,-0.037l0.024,-0.037l0.021,-0.038l0.021,-0.037l0.018,-0.038l0.016,-0.037l0.014,-0.038l0.013,-0.038l0.011,-0.038l0.008,-0.039l0.007,-0.038l0.005,-0.039l0.003,-0.038l0.001,-0.039l-0.001,-0.039l-0.003,-0.038l-0.005,-0.039l-0.007,-0.038l-0.008,-0.039l-0.011,-0.038l-0.013,-0.038l-0.014,-0.038l-0.016,-0.037l-0.018,-0.038l-0.021,-0.037l-0.021,-0.038l-0.024,-0.037l-0.026,-0.037l-0.027,-0.037l-0.029,-0.036l-0.031,-0.037l-0.033,-0.036l-0.034,-0.036l-0.036,-0.036l-0.038,-0.036l-0.04,-0.036l-0.041,-0.035l-0.043,-0.036l-0.045,-0.035l-0.046,-0.035l-0.048,-0.035l-0.05,-0.034l-0.051,-0.034l-0.053,-0.035l-0.054,-0.034l-0.057,-0.033l-0.057,-0.034l-0.06,-0.033l-0.061,-0.033l-0.062,-0.033l-0.064,-0.033l-0.066,-0.032l-0.067,-0.032l-0.068,-0.032l-0.07,-0.032l-0.072,-0.032l-0.073,-0.031l-0.074,-0.031l-0.076,-0.031l-0.078,-0.03l-0.159,-0.061l-0.164,-0.059l-0.17,-0.058l-0.176,-0.058l-0.181,-0.056l-0.186,-0.055l-0.191,-0.054l-0.196,-0.052l-0.201,-0.052l-0.206,-0.05l-0.211,-0.049l-0.216,-0.048l-0.22,-0.047l-0.224,-0.045l-0.229,-0.044l-0.233,-0.042l-0.238,-0.041l-0.241,-0.04l-0.246,-0.038l-0.249,-0.037l-0.253,-0.036l-0.257,-0.034l-0.26,-0.032l-0.264,-0.031l-0.268,-0.029l-0.271,-0.028l-0.274,-0.026l-0.277,-0.024l-0.28,-0.023l-0.283,-0.021l-0.286,-0.019l-0.289,-0.018l-0.292,-0.016l-0.294,-0.014l-0.297,-0.012l-0.299,-0.011l-0.301,-0.008l-0.303,-0.007l-0.306,-0.005l-0.307,-0.003l-0.31,-0.001l-0.31,0.001Z" style="fill:#1482d1;"/>
            </g>
        </g>
        <ellipse cx="16" cy="28" rx="8" ry="1.846" style="fill:#59aeef;"/>
        <path d="M8.929,8.857l1.352,-2.459c1.147,-2.086 3.339,-3.381 5.719,-3.381c2.38,0 4.572,1.295 5.719,3.381l2.797,5.086l0.484,3.516l-16,0l-0.071,-6.143Z" style="fill:#f76187;"/>
        <path d="M26.112,14.385c1.195,0.466 1.888,1.021 1.888,1.615c0,0.432 -0.366,0.843 -1.024,1.214c-1.044,-0.401 -1.502,-1.352 -1.976,-2.214l1.112,-0.615Zm-20.224,0l1.112,0.615c-0.474,0.862 -1.205,1.585 -1.976,2.214c-0.658,-0.371 -1.024,-0.782 -1.024,-1.214c0,-0.594 0.693,-1.149 1.888,-1.615Z" style="fill:#1068ab;"/>
        <path d="M5.024,17.214c0.082,-0.976 0.368,-1.927 0.842,-2.789l3.063,-5.568l0.802,1.605c0.165,0.33 0.502,0.538 0.871,0.538c0,0 0,0 0,0c0.255,0 0.499,-0.101 0.679,-0.281c0.421,-0.421 1.246,-1.246 2.012,-2.012c0.286,-0.286 0.716,-0.371 1.09,-0.217c0.373,0.155 0.617,0.52 0.617,0.924c0,1.228 0,2.654 0,3.586c0,0.552 0.448,1 1,1c0.54,0 1.178,0 1.586,0c0.265,0 0.519,-0.105 0.707,-0.293c0.66,-0.66 2.235,-2.235 2.621,-2.621c0.055,-0.055 0.086,-0.13 0.086,-0.208c0,-0.001 0,-0.001 0,-0.002c0,-0.315 0.217,-0.588 0.523,-0.661c0.306,-0.072 0.622,0.076 0.763,0.358c0.167,0.333 0.322,0.643 0.445,0.889c0.165,0.33 0.502,0.538 0.871,0.538c0,0 0,0 0,0c0.255,0 0.499,-0.101 0.679,-0.281l0.235,-0.235l1.618,2.941c0.474,0.862 0.76,1.813 0.842,2.789c-1.866,1.052 -6.081,1.786 -10.976,1.786c-4.895,0 -9.11,-0.734 -10.976,-1.786Z" style="fill:#fff;"/>
    </g>
</svg>
