<?xml version="1.0" encoding="UTF-8" standalone="no"?>
<!DOCTYPE svg PUBLIC "-//W3C//DTD SVG 1.1//EN" "http://www.w3.org/Graphics/SVG/1.1/DTD/svg11.dtd">
<svg width="100%" height="100%" viewBox="0 0 32 32" version="1.1" xmlns="http://www.w3.org/2000/svg" xmlns:xlink="http://www.w3.org/1999/xlink" xml:space="preserve" xmlns:serif="http://www.serif.com/" style="fill-rule:evenodd;clip-rule:evenodd;stroke-linecap:round;stroke-linejoin:round;stroke-miterlimit:1.5;">
    <rect id="shortcake" x="0" y="0" width="32" height="32" style="fill:none;"/>
    <g id="outline">
        <path d="M15.086,6.532c0.129,-0.53 0.401,-1.019 0.793,-1.411c0.298,-0.298 0.647,-0.647 1,-1c0.562,-0.562 1.325,-0.878 2.121,-0.878c0.796,0 1.559,0.316 2.121,0.878c0.251,0.251 0.507,0.507 0.758,0.758c0.268,0.268 0.48,0.581 0.628,0.922c2.498,0.742 4.839,1.987 6.87,3.68c0.384,0.32 0.623,0.519 0.623,0.519l0,13l-28,7l0,-13l13.086,-10.468Z" style="fill:none;stroke:#000;stroke-width:4px;"/>
    </g>
    <g id="emoji">
        <path d="M2,19l0,-2l2,-1l23,-7l3,1l0,13l-2,0.5l-26,-4.5Z" style="fill:#ccc;"/>
        <path d="M28,18.5l0,5l-26,6.5l0,-5l1,-1l24,-6l1,0.5Zm-26,4.5l0,-4l24.757,-6.189c0.299,-0.075 0.616,-0.008 0.858,0.182c0.243,0.189 0.385,0.48 0.385,0.788l0,2.719l-1,1.5l-24,5.5l-1,-0.5Z" style="fill:#eaae53;"/>
        <path d="M28,18.5l-26,6.5l0,-2l26,-6.5l0,2Z" style="fill:#da6363;"/>
        <path d="M2,17l15,-12l0,0c4.523,0 8.903,1.586 12.377,4.481c0.384,0.32 0.623,0.519 0.623,0.519l-28,7Z" style="fill:#fff;"/>
        <path d="M16,11c-0.265,0 -0.52,-0.105 -0.707,-0.293c-0.188,-0.187 -0.293,-0.442 -0.293,-0.707l0,-2.757c0,-0.796 0.316,-1.559 0.879,-2.122c0.298,-0.298 0.647,-0.647 1,-1c0.562,-0.562 1.325,-0.878 2.121,-0.878c0.796,0 1.559,0.316 2.121,0.878c0.251,0.251 0.507,0.507 0.758,0.758c0.562,0.562 0.878,1.325 0.878,2.121c0,0.796 -0.316,1.559 -0.878,2.121c-0.353,0.353 -0.702,0.702 -1,1c-0.563,0.563 -1.326,0.879 -2.122,0.879c-0.85,0 -1.964,0 -2.757,0Z" style="fill:#d72d35;"/>
    </g>
</svg>
