<?xml version="1.0" encoding="UTF-8" standalone="no"?><!DOCTYPE svg PUBLIC "-//W3C//DTD SVG 1.1//EN" "http://www.w3.org/Graphics/SVG/1.1/DTD/svg11.dtd"><svg width="100%" height="100%" viewBox="0 0 32 32" version="1.1" xmlns="http://www.w3.org/2000/svg" xmlns:xlink="http://www.w3.org/1999/xlink" xml:space="preserve" xmlns:serif="http://www.serif.com/" style="fill-rule:evenodd;clip-rule:evenodd;stroke-linecap:round;stroke-linejoin:round;stroke-miterlimit:1.5;"><rect id="bow_and_arrow" x="0" y="0" width="32" height="32" style="fill:none;"/><clipPath id="_clip1"><rect x="0" y="0" width="32" height="32"/></clipPath><g clip-path="url(#_clip1)"><g id="outline"><path d="M21,21l4,0l5,5l-4,0l0,4l-5,-5l0,-4Zm-11.002,-5.999c-0.916,0.229 -1.664,0.889 -2.005,1.77c-0.34,0.881 -0.231,1.872 0.293,2.658c0.632,0.949 1.31,1.965 1.911,2.867c1.101,1.651 1.152,3.789 0.131,5.491c-0.055,0.091 -0.109,0.182 -0.163,0.271c-0.723,1.205 -2.025,1.942 -3.43,1.942c-0.028,0 -0.056,0 -0.084,0c-0.22,0 -0.414,-0.144 -0.478,-0.355c-0.064,-0.211 0.018,-0.439 0.201,-0.561c0.285,-0.19 0.577,-0.385 0.833,-0.555c0.514,-0.343 0.899,-0.847 1.094,-1.433c0.001,-0.001 0.001,-0.001 0.001,-0.001c0.439,-1.318 0.228,-2.766 -0.568,-3.904c-0.403,-0.575 -0.873,-1.247 -1.368,-1.954c-1.068,-1.526 -1.392,-3.452 -0.882,-5.244c0.511,-1.792 1.801,-3.258 3.514,-3.992c0.001,-0.001 0.002,-0.001 0.002,-0.001l3,-3l0.001,-0.002c0.734,-1.713 2.2,-3.003 3.992,-3.514c1.792,-0.51 3.718,-0.186 5.244,0.882c0.707,0.495 1.379,0.965 1.954,1.368c1.138,0.796 2.586,1.007 3.904,0.568c0,0 0,0 0.001,-0.001c0.586,-0.195 1.09,-0.58 1.433,-1.094c0.17,-0.256 0.365,-0.548 0.555,-0.833c0.122,-0.183 0.35,-0.265 0.561,-0.201c0.211,0.064 0.355,0.258 0.355,0.478c0,0.028 0,0.056 0,0.084c0,1.405 -0.737,2.707 -1.942,3.43c-0.089,0.054 -0.18,0.108 -0.271,0.163c-1.702,1.021 -3.84,0.97 -5.491,-0.131c-0.902,-0.601 -1.918,-1.279 -2.867,-1.911c-0.786,-0.524 -1.777,-0.633 -2.658,-0.293c-0.881,0.341 -1.541,1.089 -1.77,2.005c-0.001,0.001 -0.001,0.002 -0.001,0.002l-5,5l-0.002,0.001Zm-7.998,-13.001l3,8l5,-5l-8,-3Z" style="fill:none;stroke:#000;stroke-width:4px;"/><path d="M13.121,8.879l2.879,-2.879l5.172,2.586l1.707,-1.707l4.242,4.242l-5.878,5.879l5.878,5.879l-4.242,4.242l-5.879,-5.878l-5.879,5.878l-4.242,-4.242l1.707,-1.707l-2.586,-5.172l2.879,-2.879l-6,-6l4.242,-4.242l6,6Z" style="fill-rule:nonzero;"/></g><g id="emoji"><path d="M25.707,9.707l-16,16l-0.707,-2.121l14,-14l2.707,0.121Z" style="fill:#7d6e5d;fill-rule:nonzero;"/><g><path d="M12,9l2,-1l1,2l-5,5l-2,-1l1,-2l3,-3Z" style="fill:#5a3a24;"/><path d="M6.366,21.237c-1.068,-1.526 -1.392,-3.452 -0.882,-5.244c0.511,-1.792 1.801,-3.258 3.514,-3.992c0.001,-0.001 0.002,-0.001 0.002,-0.001l1,3c0,0 -0.001,0 -0.002,0.001c-0.916,0.229 -1.664,0.889 -2.005,1.77c-0.34,0.881 -0.231,1.872 0.293,2.658c0.632,0.949 1.31,1.965 1.911,2.867c1.101,1.651 1.152,3.789 0.131,5.491c-0.055,0.091 -0.109,0.182 -0.163,0.271c-0.723,1.205 -2.025,1.942 -3.43,1.942c-0.028,0 -0.056,0 -0.084,0c-0.22,0 -0.414,-0.144 -0.478,-0.355c-0.064,-0.211 0.018,-0.439 0.201,-0.561c0.285,-0.19 0.577,-0.385 0.833,-0.555c0.514,-0.343 0.899,-0.847 1.094,-1.433c0.001,-0.001 0.001,-0.001 0.001,-0.001c0.439,-1.318 0.228,-2.766 -0.568,-3.904c-0.403,-0.575 -0.873,-1.247 -1.368,-1.954Z" style="fill:#895b36;"/><path d="M21.237,6.366c-1.526,-1.068 -3.452,-1.392 -5.244,-0.882c-1.792,0.511 -3.258,1.801 -3.992,3.514c-0.001,0.001 -0.001,0.002 -0.001,0.002l3,1c0,0 0,-0.001 0.001,-0.002c0.229,-0.916 0.889,-1.664 1.77,-2.005c0.881,-0.34 1.872,-0.231 2.658,0.293c0.949,0.632 1.965,1.31 2.867,1.911c1.651,1.101 3.789,1.152 5.491,0.131c0.091,-0.055 0.182,-0.109 0.271,-0.163c1.205,-0.723 1.942,-2.025 1.942,-3.43c0,-0.028 0,-0.056 0,-0.084c0,-0.22 -0.144,-0.414 -0.355,-0.478c-0.211,-0.064 -0.439,0.018 -0.561,0.201c-0.19,0.285 -0.385,0.577 -0.555,0.833c-0.343,0.514 -0.847,0.899 -1.433,1.094c-0.001,0.001 -0.001,0.001 -0.001,0.001c-1.318,0.439 -2.766,0.228 -3.904,-0.568c-0.575,-0.403 -1.247,-0.873 -1.954,-1.368Z" style="fill:#895b36;"/></g><path d="M5,5l20,20" style="fill:none;stroke:#c7a272;stroke-width:2px;stroke-linecap:butt;"/><path d="M21,25l5,5l0,-4l4,0l-5,-5l-4,0l0,4Z" style="fill:#c4b1a4;"/><path d="M2,2l3,8l5,-5l-8,-3Z" style="fill:#c9d3d6;"/></g></g></svg>