<?xml version="1.0" encoding="UTF-8" standalone="no"?><!DOCTYPE svg PUBLIC "-//W3C//DTD SVG 1.1//EN" "http://www.w3.org/Graphics/SVG/1.1/DTD/svg11.dtd"><svg width="100%" height="100%" viewBox="0 0 32 32" version="1.1" xmlns="http://www.w3.org/2000/svg" xmlns:xlink="http://www.w3.org/1999/xlink" xml:space="preserve" xmlns:serif="http://www.serif.com/" style="fill-rule:evenodd;clip-rule:evenodd;stroke-linejoin:round;stroke-miterlimit:1.5;"><rect id="crossbow" x="0" y="0" width="32" height="32" style="fill:none;"/><g id="outline"><path d="M10.176,6.882l2.019,-1.345c2.414,-1.609 5.413,-2.078 8.203,-1.281c0,0.001 0,0.001 0.001,0.001c1.65,0.471 3.424,0.194 4.852,-0.758c0.303,-0.202 0.551,-0.367 0.671,-0.447c0.051,-0.034 0.111,-0.052 0.172,-0.052c0,0 0.001,0 0.002,0c0.283,0 0.536,0.179 0.63,0.447c0.094,0.268 0.009,0.565 -0.213,0.743c-0.416,0.332 -0.876,0.701 -1.323,1.058c-1.348,1.079 -3.181,1.327 -4.767,0.647c-0.001,0 -0.002,0 -0.002,0c-2.595,-1.112 -5.613,-0.305 -7.307,1.953c-0.073,0.097 -0.114,0.152 -0.114,0.152l-0.571,0.571l0.571,0.429l4,4l12,14l-2,2l-15,-13l-3,-3l-0.429,-0.571l-0.571,0.571l-0.152,0.114c-2.258,1.694 -3.065,4.712 -1.953,7.307c0,0 0,0.001 0,0.002c0.68,1.586 0.432,3.419 -0.647,4.767c-0.357,0.447 -0.726,0.907 -1.058,1.323c-0.178,0.222 -0.475,0.307 -0.743,0.213c-0.268,-0.094 -0.447,-0.347 -0.447,-0.63c0,-0.001 0,-0.002 0,-0.002c0,-0.061 0.018,-0.121 0.052,-0.172c0.08,-0.12 0.245,-0.368 0.447,-0.671c0.952,-1.428 1.229,-3.202 0.758,-4.852c0,-0.001 0,-0.001 -0.001,-0.001c-0.797,-2.79 -0.328,-5.789 1.281,-8.203l1.345,-2.019l-3.882,-5.176l2,-2l5.176,3.882Z" style="fill:none;stroke:#000;stroke-width:4px;"/><path d="M5,23l13,-5l5,-13" style="fill:none;stroke:#000;stroke-width:6px;"/><path d="M5,16l11,-11l7,0l0,6l-12,12l-6,0l0,-7Z"/></g><g id="emoji"><path d="M29,27l-12,-14l-4,-4l-8,-6l-2,2l6,8l3,3l15,13l2,-2Z" style="fill:#ae7a46;"/><path d="M18.707,17.293l-1.414,1.414l-6,-6l1.414,-1.414l6,6Z" style="fill:#2a2a2a;fill-rule:nonzero;"/><path d="M5,23l13,-5l5,-13" style="fill:none;stroke:#adb4b6;stroke-width:2px;"/><g><path d="M10,7l2,-1l1,2l-5,5l-2,-1l1,-2l3,-3Z" style="fill:#5a3a24;"/><path d="M20.398,4.256c-2.79,-0.797 -5.789,-0.328 -8.203,1.281c-1.189,0.792 -2.195,1.463 -2.195,1.463l3,1c0,0 0.041,-0.055 0.114,-0.152c1.694,-2.258 4.712,-3.065 7.307,-1.953c0,0 0.001,0 0.002,0c1.586,0.68 3.419,0.432 4.767,-0.647c0.447,-0.357 0.907,-0.726 1.323,-1.058c0.222,-0.178 0.307,-0.475 0.213,-0.743c-0.094,-0.268 -0.347,-0.447 -0.63,-0.447c-0.001,0 -0.002,0 -0.002,0c-0.061,0 -0.121,0.018 -0.172,0.052c-0.12,0.08 -0.368,0.245 -0.671,0.447c-1.428,0.952 -3.202,1.229 -4.852,0.758c-0.001,0 -0.001,0 -0.001,-0.001Z" style="fill:#789095;"/><path d="M4.256,20.398c-0.797,-2.79 -0.328,-5.789 1.281,-8.203c0.792,-1.189 1.463,-2.195 1.463,-2.195l1,3c0,0 -0.055,0.041 -0.152,0.114c-2.258,1.694 -3.065,4.712 -1.953,7.307c0,0 0,0.001 0,0.002c0.68,1.586 0.432,3.419 -0.647,4.767c-0.357,0.447 -0.726,0.907 -1.058,1.323c-0.178,0.222 -0.475,0.307 -0.743,0.213c-0.268,-0.094 -0.447,-0.347 -0.447,-0.63c0,-0.001 0,-0.002 0,-0.002c0,-0.061 0.018,-0.121 0.052,-0.172c0.08,-0.12 0.245,-0.368 0.447,-0.671c0.952,-1.428 1.229,-3.202 0.758,-4.852c0,-0.001 0,-0.001 -0.001,-0.001Z" style="fill:#789095;"/></g></g></svg>