<?xml version="1.0" encoding="UTF-8" standalone="no"?><!DOCTYPE svg PUBLIC "-//W3C//DTD SVG 1.1//EN" "http://www.w3.org/Graphics/SVG/1.1/DTD/svg11.dtd"><svg width="100%" height="100%" viewBox="0 0 32 32" version="1.1" xmlns="http://www.w3.org/2000/svg" xmlns:xlink="http://www.w3.org/1999/xlink" xml:space="preserve" xmlns:serif="http://www.serif.com/" style="fill-rule:evenodd;clip-rule:evenodd;stroke-linejoin:round;stroke-miterlimit:5;"><rect id="european_battle_axe" x="0" y="0" width="32" height="32" style="fill:none;"/><g id="outline"><path d="M3,27l2,2l19.5,-19.5l3,-5l-5,3l-19.5,19.5Z" style="fill:#8e8e8e;stroke:#000;stroke-width:4px;"/><path d="M22.5,10.5c0,0 0.582,0.582 1.233,1.233c0.45,0.45 1.07,0.687 1.705,0.652c0.635,-0.035 1.225,-0.339 1.623,-0.836c1.122,-1.403 2.439,-3.049 2.439,-3.049c0,0 0.138,0.896 0.341,2.218c0.388,2.518 -0.448,5.071 -2.25,6.873c-1.802,1.802 -4.355,2.638 -6.873,2.25c-1.322,-0.203 -2.218,-0.341 -2.218,-0.341c0,0 1.646,-1.317 3.049,-2.439c0.497,-0.398 0.801,-0.988 0.836,-1.623c0.035,-0.635 -0.202,-1.255 -0.652,-1.705c-0.651,-0.651 -1.233,-1.233 -1.233,-1.233l2,-2Z" style="fill:#8e8e8e;stroke:#000;stroke-width:4px;"/><path d="M21.5,9.5l-6,-4l4,6l2,-2Z" style="fill:#8e8e8e;stroke:#000;stroke-width:4px;stroke-linecap:round;stroke-miterlimit:7;"/></g><g id="emoji"><path d="M21.5,9.5l-6,-4l4,6l2,-2Z" style="fill:#98bdd0;"/><path d="M28.413,9.858l1.087,-1.358c0,0 0.138,0.896 0.341,2.218c0.388,2.518 -0.448,5.071 -2.25,6.873c-1.802,1.802 -4.355,2.638 -6.873,2.25c-1.322,-0.203 -2.218,-0.341 -2.218,-0.341l1.358,-1.087c0.193,0.03 3.972,-1.234 6.142,-3.413c2.015,-2.023 2.441,-4.963 2.413,-5.142Z" style="fill:#e1f1f4;"/><path d="M28.413,9.858c0.057,0.373 0.087,0.754 0.087,1.142c0,4.139 -3.361,7.5 -7.5,7.5c-0.388,0 -0.769,-0.03 -1.142,-0.087l1.691,-1.352c0.497,-0.398 0.801,-0.988 0.836,-1.623c0.035,-0.635 -0.202,-1.255 -0.652,-1.705c-0.651,-0.651 -1.233,-1.233 -1.233,-1.233l2,-2c0,0 0.582,0.582 1.233,1.233c0.45,0.45 1.07,0.687 1.705,0.652c0.635,-0.035 1.225,-0.339 1.623,-0.836l1.352,-1.691Z" style="fill:#98bdd0;"/><path d="M16.5,13.5l-0.5,2.5l2.5,-0.5l6,-6l-0.5,-1.5l-1.5,-0.5l-6,6Z" style="fill:#e1f1f4;"/><path d="M22.5,7.5l2,2l3,-5l-5,3Z" style="fill:#98bdd0;"/><path d="M17,13l2,2l-14,14l-2,-2l14,-14Z" style="fill:#6e4d31;"/></g></svg>