<?xml version="1.0" encoding="UTF-8" standalone="no"?><!DOCTYPE svg PUBLIC "-//W3C//DTD SVG 1.1//EN" "http://www.w3.org/Graphics/SVG/1.1/DTD/svg11.dtd"><svg width="100%" height="100%" viewBox="0 0 32 32" version="1.1" xmlns="http://www.w3.org/2000/svg" xmlns:xlink="http://www.w3.org/1999/xlink" xml:space="preserve" xmlns:serif="http://www.serif.com/" style="fill-rule:evenodd;clip-rule:evenodd;stroke-miterlimit:5;"><rect id="halberd" x="0" y="0" width="32" height="32" style="fill:none;"/><clipPath id="_clip1"><rect x="0" y="0" width="32" height="32"/></clipPath><g clip-path="url(#_clip1)"><g id="outline"><path d="M2.707,25.293c-0.187,0.187 -0.293,0.442 -0.293,0.707c0,0.265 0.106,0.52 0.293,0.707c0.029,0.029 0.057,0.057 0.086,0.086c0.39,0.39 1.024,0.39 1.414,0c3.388,-3.388 17.793,-17.793 17.793,-17.793l-1,-2c0,0 -14.849,14.849 -18.293,18.293Z" style="fill:#8e8e8e;stroke:#000;stroke-width:4px;"/><path d="M21.5,6.5l6,6c0,0 -0.03,0.03 -0.085,0.085c-1.808,1.808 -4.433,2.535 -6.915,1.915c0,0 0,0 0,0l1,-4l-2,-2l2,-2Z" style="fill:none;stroke:#000;stroke-width:4px;stroke-miterlimit:7;"/><path d="M21.5,6.5l-2.5,-2.5l0,4l0.5,0.5l2,-2Z" style="fill:#8e8e8e;stroke:#000;stroke-width:4px;stroke-linejoin:round;stroke-miterlimit:7;"/><path d="M21,7l2,-2l4,-2l-3,4l-1,1l-2,-1Z" style="fill:#77a0b4;stroke:#000;stroke-width:4px;stroke-linejoin:round;stroke-miterlimit:7;"/></g><g id="emoji"><path d="M20,8l3,-3l4,-2l-3,4l-1,1l-3,0Z" style="fill:#77a0b4;"/><path d="M4.5,23.5l1.5,1.5l17,-17l-2,-1l-16.5,16.5Z" style="fill:#6e4d31;"/><path d="M19,4l8.5,8.5c0,0 -0.03,0.03 -0.085,0.085c-1.808,1.808 -4.433,2.535 -6.915,1.915c0,0 0,0 0,0l1,-4l-2.5,-2.5l0,-4Z" style="fill:#d1dee1;"/><path d="M5,23l1.5,1.5c0,0 -1.406,1.406 -2.293,2.293c-0.39,0.39 -1.024,0.39 -1.414,0c-0.029,-0.029 -0.057,-0.057 -0.086,-0.086c-0.39,-0.39 -0.39,-1.024 0,-1.414c0.887,-0.887 2.293,-2.293 2.293,-2.293Z" style="fill:#9faeb5;"/></g></g></svg>