<?xml version="1.0" encoding="UTF-8" standalone="no"?><!DOCTYPE svg PUBLIC "-//W3C//DTD SVG 1.1//EN" "http://www.w3.org/Graphics/SVG/1.1/DTD/svg11.dtd"><svg width="100%" height="100%" viewBox="0 0 32 32" version="1.1" xmlns="http://www.w3.org/2000/svg" xmlns:xlink="http://www.w3.org/1999/xlink" xml:space="preserve" xmlns:serif="http://www.serif.com/" style="fill-rule:evenodd;clip-rule:evenodd;stroke-linejoin:round;stroke-miterlimit:5;"><rect id="mace" x="0" y="0" width="32" height="32" style="fill:none;"/><clipPath id="_clip1"><rect x="0" y="0" width="32" height="32"/></clipPath><g clip-path="url(#_clip1)"><g id="outline"><path d="M24.586,5.172l3.364,-1.122l-1.122,3.364l3.172,1.586l-3.172,1.586l1.122,3.364l-3.364,-1.122l-1.586,3.172l-1.586,-3.172l-0.364,0.122l-2.55,2.55l0.5,0.5c0.276,0.276 0.276,0.724 0,1c0,0 0,0 0,0c-0.276,0.276 -0.724,0.276 -1,0l-0.5,-0.5l-12.793,12.793c-0.187,0.187 -0.442,0.293 -0.707,0.293c-0.265,0 -0.52,-0.106 -0.707,-0.293c-0.19,-0.19 -0.396,-0.396 -0.586,-0.586c-0.187,-0.187 -0.293,-0.442 -0.293,-0.707c0,-0.265 0.106,-0.52 0.293,-0.707l12.793,-12.793l-0.5,-0.5c-0.276,-0.276 -0.276,-0.724 0,-1c0,0 0,0 0,0c0.276,-0.276 0.724,-0.276 1,0l0.5,0.5l2.55,-2.55l0.122,-0.364l-3.172,-1.586l3.172,-1.586l-1.122,-3.364l3.364,1.122l1.586,-3.172l1.586,3.172Z" style="fill:#8e8e8e;stroke:#000;stroke-width:4px;"/></g><g id="emoji"><path d="M3,27l0,2l2,0l11,-11l0,-2l-2,0l-11,11Z" style="fill:#6e4d31;"/><path d="M14,16l2,2l6,-6l-2,-2l-6,6Z" style="fill:#647982;"/><g><path d="M24.586,5.172l3.364,-1.122l-1.122,3.364l3.172,1.586l-3.172,1.586l1.122,3.364l-3.364,-1.122l-1.586,3.172l-1.586,-3.172l-3.364,1.122l1.122,-3.364l-3.172,-1.586l3.172,-1.586l-1.122,-3.364l3.364,1.122l1.586,-3.172l1.586,3.172Zm-2.829,0.828l-1.757,1.757l0,2.486l1.757,1.757l2.486,0l1.757,-1.757l0,-2.486l-1.757,-1.757l-2.486,0Z" style="fill:#9faeb5;"/><circle cx="23" cy="9" r="4" style="fill:#d8e3e5;"/><circle cx="23" cy="9" r="2" style="fill:#9faeb5;"/></g><path d="M15,14c-0.276,-0.276 -0.276,-0.724 0,-1c0,0 0,0 0,0c0.276,-0.276 0.724,-0.276 1,0c0.768,0.768 2.232,2.232 3,3c0.276,0.276 0.276,0.724 0,1c0,0 0,0 0,0c-0.276,0.276 -0.724,0.276 -1,0c-0.768,-0.768 -2.232,-2.232 -3,-3Z" style="fill:#9faeb5;"/><path d="M4.707,29.293c-0.187,0.187 -0.442,0.293 -0.707,0.293c-0.265,0 -0.52,-0.106 -0.707,-0.293c-0.19,-0.19 -0.396,-0.396 -0.586,-0.586c-0.187,-0.187 -0.293,-0.442 -0.293,-0.707c0,-0.265 0.106,-0.52 0.293,-0.707c0.165,-0.165 0.293,-0.293 0.293,-0.293l2,2c0,0 -0.128,0.128 -0.293,0.293Z" style="fill:#9faeb5;"/></g></g></svg>