<?xml version="1.0" encoding="UTF-8" standalone="no"?><!DOCTYPE svg PUBLIC "-//W3C//DTD SVG 1.1//EN" "http://www.w3.org/Graphics/SVG/1.1/DTD/svg11.dtd"><svg width="100%" height="100%" viewBox="0 0 32 32" version="1.1" xmlns="http://www.w3.org/2000/svg" xmlns:xlink="http://www.w3.org/1999/xlink" xml:space="preserve" xmlns:serif="http://www.serif.com/" style="fill-rule:evenodd;clip-rule:evenodd;stroke-linejoin:round;stroke-miterlimit:1.5;"><rect id="shuriken" x="0" y="0" width="32" height="32" style="fill:none;"/><clipPath id="_clip1"><rect x="0" y="0" width="32" height="32"/></clipPath><g clip-path="url(#_clip1)"><g id="outline"><path d="M23,30l-2.93,0c-4.057,0 -7.496,-2.983 -8.07,-6.999c0,-0.001 0,-0.001 0,-0.001c0,0 1.225,0.816 2.109,1.406c0.54,0.36 1.242,0.36 1.782,0c0.001,0 0.001,-0.001 0.002,-0.002c0.47,-0.313 0.752,-0.84 0.752,-1.404c0,-0.564 -0.282,-1.091 -0.752,-1.404c-0.501,-0.334 -0.893,-0.596 -0.893,-0.596l0,-3l4,0c0,0 0,1.645 0,3.444c0,2.917 1.159,5.715 3.222,7.778l0.778,0.778Zm-9,-11c0,0 -1.645,0 -3.444,0c-2.917,0 -5.715,1.159 -7.778,3.222c-0.458,0.458 -0.778,0.778 -0.778,0.778c0,0 0,-1.283 0,-2.93c0,-4.057 2.983,-7.496 6.999,-8.07c0.001,0 0.001,0 0.001,0c0,0 -0.816,1.225 -1.406,2.109c-0.36,0.54 -0.36,1.242 0,1.782c0,0.001 0.001,0.001 0.002,0.002c0.313,0.47 0.84,0.752 1.404,0.752c0.564,0 1.091,-0.282 1.404,-0.752c0.334,-0.501 0.596,-0.893 0.596,-0.893l3,0l0,4Zm7,-2l-3,0l0,-4c0,0 1.645,0 3.444,0c2.917,0 5.715,-1.159 7.778,-3.222c0.458,-0.458 0.778,-0.778 0.778,-0.778c0,0 0,1.283 0,2.93c0,4.057 -2.983,7.496 -6.999,8.07c-0.001,0 -0.001,0 -0.001,0c0,0 0.816,-1.225 1.406,-2.109c0.36,-0.54 0.36,-1.242 0,-1.782c0,-0.001 -0.001,-0.001 -0.002,-0.002c-0.313,-0.47 -0.84,-0.752 -1.404,-0.752c-0.564,0 -1.091,0.282 -1.404,0.752l-0.596,0.893Zm-4,-3l-4,0c0,0 0,-1.645 0,-3.444c0,-2.917 -1.159,-5.715 -3.222,-7.778c-0.458,-0.458 -0.778,-0.778 -0.778,-0.778c0,0 1.283,0 2.93,0c4.057,0 7.496,2.983 8.07,6.999c0,0.001 0,0.001 0,0.001c0,0 -1.225,-0.816 -2.109,-1.406c-0.54,-0.36 -1.242,-0.36 -1.782,0c-0.001,0 -0.001,0.001 -0.002,0.002c-0.47,0.313 -0.752,0.84 -0.752,1.404c0,0.564 0.282,1.091 0.752,1.404c0.501,0.334 0.893,0.596 0.893,0.596l0,3Z" style="fill:none;stroke:#000;stroke-width:4px;"/><circle cx="16" cy="16" r="8"/></g><g id="emoji"><path d="M20.155,11.673c0.406,0.39 0.757,0.837 1.041,1.327l0.248,0c2.917,0 5.715,-1.159 7.778,-3.222c0.458,-0.458 0.778,-0.778 0.778,-0.778c0,0 0,1.283 0,2.93c0,4.057 -2.983,7.496 -6.999,8.07c-0.001,0 -0.001,0 -0.001,0c0,0 0.816,-1.225 1.406,-2.109c0.36,-0.54 0.36,-1.242 0,-1.782c0,-0.001 -0.001,-0.001 -0.002,-0.002c-0.313,-0.47 -0.84,-0.752 -1.404,-0.752c-0.368,0 -0.721,0.12 -1.008,0.334c0.005,0.103 0.008,0.207 0.008,0.311c0,2.219 -1.207,4.158 -3,5.196l0,0.248c0,2.917 1.159,5.715 3.222,7.778l0.778,0.778l-2.93,0c-4.057,0 -7.496,-2.983 -8.07,-6.999c0,-0.001 0,-0.001 0,-0.001c0,0 1.225,0.816 2.109,1.406c0.54,0.36 1.242,0.36 1.782,0c0.001,0 0.001,-0.001 0.002,-0.002c0.47,-0.313 0.752,-0.84 0.752,-1.404c0,-0.368 -0.12,-0.721 -0.334,-1.008c-0.103,0.005 -0.207,0.008 -0.311,0.008c-1.699,0 -3.235,-0.708 -4.327,-1.845l0.327,-2.155l6.871,-6.386l1.284,0.059Zm-12.411,4.411c0.317,0.354 0.773,0.561 1.256,0.561c0.231,0 0.456,-0.047 0.662,-0.135l-0.255,0.88l-0.95,1.279l-2.132,1.177c-1.314,0.548 -2.521,1.35 -3.547,2.376c-0.458,0.458 -0.778,0.778 -0.778,0.778l0,-1.172l1,-1.828l4,-4l0.744,0.084Zm7.746,-7.746c-0.088,0.206 -0.135,0.431 -0.135,0.662c0,0.368 0.12,0.721 0.334,1.008c0.103,-0.005 0.207,-0.008 0.311,-0.008c0.057,0 0.113,0.001 0.169,0.002l-0.169,0.998l-5,5l-0.998,0.169c-0.001,-0.056 -0.002,-0.112 -0.002,-0.169c0,-1.069 0.28,-2.073 0.771,-2.943l0.775,-0.927l1.442,-1.306l0.337,-0.851l1.633,-1.654l0.532,0.019Zm3.011,-3.011c0.337,0.458 0.627,0.953 0.864,1.48l0.056,0.614l-0.561,0.432l-0.557,0.016l-0.412,-0.275c-0.453,-0.302 -1.021,-0.351 -1.511,-0.145l0.017,-0.637l1.467,-1.493l0.637,0.008Zm-6.44,0.783c-0.543,-1.23 -1.313,-2.362 -2.283,-3.332c-0.458,-0.458 -0.778,-0.778 -0.778,-0.778c0,0 1.283,0 2.93,0c1.234,0 2.411,0.276 3.468,0.774l-0.037,0.565l-2.762,2.652l-0.538,0.119Z" style="fill:#b1cad5;"/><path d="M2,21.828l0,-1.758c0,-4.057 2.983,-7.496 6.999,-8.07c0.001,0 0.001,0 0.001,0c0,0 -0.816,1.225 -1.406,2.109c-0.36,0.54 -0.36,1.242 0,1.782c0,0.001 0.001,0.001 0.002,0.002c0.045,0.068 0.094,0.132 0.148,0.191l-5.744,5.744Zm14.169,-11.826c1.545,0.043 2.946,0.672 3.986,1.671l-8.482,8.482c-0.334,-0.347 -0.626,-0.735 -0.869,-1.155l-0.248,0c-1.466,0 -2.903,0.293 -4.231,0.846l3.337,-3.336c0.123,-0.053 0.239,-0.119 0.346,-0.199c-0.002,-0.047 -0.004,-0.094 -0.006,-0.142l6.167,-6.167Zm-0.771,-7.228c1.232,0.579 2.299,1.459 3.103,2.553l-2.121,2.122c-0.094,0.039 -0.184,0.087 -0.271,0.145c-0.001,0 -0.001,0.001 -0.002,0.002c-0.278,0.184 -0.49,0.444 -0.617,0.742l-4.719,4.719c0.528,-0.935 1.3,-1.715 2.229,-2.253l0,-0.248c0,-1.546 -0.326,-3.058 -0.939,-4.446l3.337,-3.336Zm3.967,4.033c0.307,0.683 0.524,1.418 0.635,2.192c0,0.001 0,0.001 0,0.001l-1.697,-1.131l1.062,-1.062Z" style="fill:#dee9ed;"/><circle cx="16" cy="16" r="2"/></g></g></svg>