<?xml version="1.0" encoding="UTF-8" standalone="no"?><!DOCTYPE svg PUBLIC "-//W3C//DTD SVG 1.1//EN" "http://www.w3.org/Graphics/SVG/1.1/DTD/svg11.dtd"><svg width="100%" height="100%" viewBox="0 0 32 32" version="1.1" xmlns="http://www.w3.org/2000/svg" xmlns:xlink="http://www.w3.org/1999/xlink" xml:space="preserve" xmlns:serif="http://www.serif.com/" style="fill-rule:evenodd;clip-rule:evenodd;stroke-linejoin:round;stroke-miterlimit:5;"><rect id="war_hammer" x="0" y="0" width="32" height="32" style="fill:none;"/><clipPath id="_clip1"><rect x="0" y="0" width="32" height="32"/></clipPath><g clip-path="url(#_clip1)"><g id="outline"><path d="M20,2l0,2l2,3l0.5,0.5l1.5,-1.5l2,0l0,2l-1.5,1.5l0.5,0.5l3,2l2,0l0,2l-5,5l-2,0l0,-2l-2,-3l-0.5,-0.5l-15.793,15.793c-0.39,0.39 -1.024,0.39 -1.414,0c-0.19,-0.19 -0.396,-0.396 -0.586,-0.586c-0.39,-0.39 -0.39,-1.024 0,-1.414l15.793,-15.793l-0.5,-0.5l-3,-2l-2,0l0,-2l5,-5l2,0Z" style="fill:#8e8e8e;stroke:#000;stroke-width:4px;"/></g><g id="emoji"><path d="M3,27l0,2l2,0l15,-15l0,-2l-2,0l-15,15Z" style="fill:#6e4d31;"/><path d="M17,13l2,2l7,-7l0,-2l-2,0l-7,7Z" style="fill:#9faeb5;"/><path d="M4.707,29.293c-0.187,0.187 -0.442,0.293 -0.707,0.293c-0.265,0 -0.52,-0.106 -0.707,-0.293c-0.19,-0.19 -0.396,-0.396 -0.586,-0.586c-0.187,-0.187 -0.293,-0.442 -0.293,-0.707c0,-0.265 0.106,-0.52 0.293,-0.707c0.165,-0.165 0.293,-0.293 0.293,-0.293l2,2c0,0 -0.128,0.128 -0.293,0.293Z" style="fill:#9faeb5;"/><path d="M20,4l-4,1l-1,4l3,2l3,0l0,3l2,3l4,-2l1,-3l-3,-2l-3,0l0,-3l-2,-3Z" style="fill:#d8e3e5;"/><path d="M13,7l0,2l2,0l5,-5l0,-2l-2,0l-5,5Z" style="fill:#9faeb5;"/><path d="M23,17l0,2l2,0l5,-5l0,-2l-2,0l-5,5Z" style="fill:#9faeb5;"/><path d="M22,7l-4,4l3,3l4,-4l-3,-3Z" style="fill:#9faeb5;"/></g></g></svg>