<?xml version="1.0" encoding="UTF-8" standalone="no"?>
<!DOCTYPE svg PUBLIC "-//W3C//DTD SVG 1.1//EN" "http://www.w3.org/Graphics/SVG/1.1/DTD/svg11.dtd">
<svg width="100%" height="100%" viewBox="0 0 32 32" version="1.1" xmlns="http://www.w3.org/2000/svg" xmlns:xlink="http://www.w3.org/1999/xlink" xml:space="preserve" xmlns:serif="http://www.serif.com/" style="fill-rule:evenodd;clip-rule:evenodd;stroke-linecap:round;stroke-linejoin:round;stroke-miterlimit:1.5;">
    <rect id="tofu" x="0" y="0" width="32" height="32" style="fill:none;"/>
    <g id="outline">
        <path d="M21,21l9,-4l0,9l-9,4l0,-9Zm-5.782,-17.553c-0.142,-0.459 -0.218,-0.945 -0.218,-1.446c0,-0.001 0,-0.001 0,-0.001c0,0 0.449,0.09 1.079,0.216c1.175,0.235 2.181,0.881 2.879,1.77l6.042,2.014l0,8.857l5,2.143l-9,4l0,9l-7,-3l0,-3l-3,3l-9,-2l0,-9l5,-5l2,0.444l0,-1.249c-0.085,-0.014 -0.169,-0.029 -0.254,-0.046c-0.449,-0.09 -0.746,-0.149 -0.746,-0.149l1,-1.333l0,-1.667l2.85,-1.629c-0.913,-0.848 -1.571,-1.978 -1.83,-3.273c-0.013,-0.063 -0.02,-0.098 -0.02,-0.098c0,0 0.498,0.1 1.18,0.236c1.228,0.246 2.323,0.852 3.169,1.707l0.869,-0.496Z" style="fill:none;stroke:#000;stroke-width:4px;"/>
    </g>
    <g id="emoji">
        <g>
            <path d="M10.431,17.533l4.463,-4.283l1.106,-0.25l0,9l-5,5l-0.792,-1.034l0.223,-8.433Z" style="fill:#c0b08a;"/>
            <path d="M11,17.208l-7.949,-1.492l-1.051,0.284l0,9l9,2l0,-9.792Z" style="fill:#d6ceb0;"/>
            <path d="M11,18l-9,-2l5,-5l9,2l-5,5Z" style="fill:#ede9db;"/>
        </g>
        <g>
            <path d="M21,30l-0.914,-1.474l0.63,-8.823l7.367,-2.95l1.917,0.247l0,9l-9,4Z" style="fill:#c0b08a;"/>
            <path d="M21,20.169l-5.476,-2.116l-1.524,-0.053l0,9l7,3l0,-9.831Z" style="fill:#d6ceb0;"/>
            <path d="M21,21l-7,-3l9,-4l7,3l-9,4Z" style="fill:#ede9db;"/>
        </g>
        <g>
            <path d="M18.104,9.232l5.78,-3.14l1.116,-0.092l0,9l-7,4l-0.681,-1.36l-0.087,-7.178l0.872,-1.23Z" style="fill:#c0b08a;"/>
            <path d="M18,9.024l-8.215,-2.169l-0.785,0.145l0,9l9,3l0,-9.976Z" style="fill:#d6ceb0;"/>
            <path d="M18,10l-9,-3l7,-4l9,3l-6.174,3.528l-0.826,0.472Z" style="fill:#ede9db;"/>
        </g>
    </g>
    <path d="M15.4,7l-0.168,0.28c-1.339,2.231 -3.935,3.379 -6.486,2.869c-0.449,-0.09 -0.746,-0.149 -0.746,-0.149c0,0 0.535,-0.713 1.153,-1.538c0.913,-1.217 2.233,-2.04 3.696,-2.338c-1.427,-0.862 -2.484,-2.297 -2.829,-4.026c-0.013,-0.063 -0.02,-0.098 -0.02,-0.098c0,0 0.498,0.1 1.18,0.236c2.063,0.413 3.752,1.843 4.514,3.764l1.39,0c-1.273,-0.89 -2.084,-2.365 -2.084,-3.999c0,-0.001 0,-0.001 0,-0.001c0,0 0.449,0.09 1.079,0.216c1.945,0.389 3.426,1.903 3.818,3.784l1.103,0l0,1l-2.1,0c-0.463,2.282 -2.481,4 -4.9,4l0,0c0,0 0.04,-0.16 0.104,-0.417c0.371,-1.482 1.27,-2.746 2.49,-3.583l-1.194,0Z" style="fill:#73a538;"/>
</svg>
