<?xml version="1.0" encoding="UTF-8" standalone="no"?>
<!DOCTYPE svg PUBLIC "-//W3C//DTD SVG 1.1//EN" "http://www.w3.org/Graphics/SVG/1.1/DTD/svg11.dtd">
<svg width="100%" height="100%" viewBox="0 0 32 32" version="1.1" xmlns="http://www.w3.org/2000/svg" xmlns:xlink="http://www.w3.org/1999/xlink" xml:space="preserve" xmlns:serif="http://www.serif.com/" style="fill-rule:evenodd;clip-rule:evenodd;stroke-linejoin:round;stroke-miterlimit:2;">
    <rect id="call_me--hmn-" serif:id="call_me [hmn]" x="0" y="0" width="32" height="32" style="fill:none;"/>
    <g id="outline">
        <path d="M7.264,12l2.736,-5.472l0,-5.528c0.719,0 1.437,-0.007 2.156,0.002c0.203,0.008 0.405,0.02 0.607,0.046c0.444,0.056 0.881,0.163 1.301,0.316c0.727,0.266 1.399,0.674 1.971,1.194c0.679,0.617 1.212,1.388 1.548,2.24c0.182,0.462 0.306,0.946 0.369,1.438c0.026,0.202 0.038,0.405 0.046,0.608c0.003,0.233 0.002,0.465 0.002,0.698c-0.005,0.383 -0.057,0.761 -0.166,1.128c-0.065,0.219 -0.151,0.429 -0.25,0.634l-0.348,0.696c1.621,-0.002 3.242,-0.019 4.863,0.001c0.165,0.006 0.329,0.018 0.492,0.043c0.419,0.062 0.827,0.192 1.206,0.382c0.469,0.236 0.891,0.565 1.234,0.963c0.319,0.371 0.57,0.801 0.735,1.262c0.155,0.432 0.234,0.89 0.234,1.349c0,0.589 -0.132,1.176 -0.383,1.709c-0.047,0.099 -0.098,0.196 -0.153,0.291c0.12,0.207 0.221,0.426 0.302,0.651c0.155,0.432 0.234,0.89 0.234,1.349c0,0.589 -0.132,1.176 -0.383,1.709c-0.047,0.099 -0.098,0.196 -0.153,0.291c0.12,0.207 0.221,0.426 0.302,0.651c0.155,0.432 0.234,0.89 0.234,1.349c0,0.589 -0.132,1.176 -0.383,1.709c-0.019,0.04 -0.039,0.08 -0.059,0.12c0.176,0.059 0.353,0.119 0.53,0.178c0.089,0.033 0.089,0.033 0.176,0.068c0.39,0.166 0.751,0.385 1.063,0.674c0.723,0.668 1.136,1.635 1.121,2.619c-0.005,0.32 -0.053,0.638 -0.144,0.945c-0.115,0.384 -0.296,0.747 -0.533,1.07c-0.255,0.347 -0.574,0.647 -0.937,0.88c-0.371,0.238 -0.785,0.405 -1.218,0.489c-0.357,0.069 -0.724,0.081 -1.085,0.037c-0.178,-0.021 -0.352,-0.059 -0.527,-0.101c-0.379,-0.118 -0.758,-0.238 -1.137,-0.358c-2.321,-0.75 -4.627,-1.545 -6.937,-2.326c-3.344,0.01 -6.688,0.037 -10.032,-0.005c-0.102,-0.004 -0.102,-0.004 -0.204,-0.01c-0.431,-0.039 -0.852,-0.135 -1.251,-0.304c-1.014,-0.428 -1.822,-1.276 -2.2,-2.31c-0.15,-0.41 -0.225,-0.837 -0.242,-1.272c-0.036,-2.735 -0.036,-5.471 0,-8.206c0.005,-0.135 0.014,-0.269 0.031,-0.404c0.042,-0.329 0.124,-0.652 0.246,-0.96c0.201,-0.509 0.507,-0.975 0.894,-1.362c0.433,-0.433 0.965,-0.764 1.545,-0.961c0.411,-0.138 0.838,-0.205 1.27,-0.21l1.277,0Z"/>
    </g>
    <g id="emoji">
        <path d="M16,14l-10,0c-1.105,0 -2,0.895 -2,2l0,8c0,1.105 0.895,2 2,2l10,0l0,-12Z" style="fill:#a90eb1;"/>
        <path d="M16.317,26l-5.292,0c-0.803,0 -1.572,-0.319 -2.139,-0.886c-0.567,-0.567 -0.886,-1.336 -0.886,-2.139c0,-2.012 0,-4.583 0,-6.253c0,-1.133 0.264,-2.249 0.77,-3.262c1.162,-2.324 3.23,-6.46 3.23,-6.46l0,-4l0.002,0c2.208,0 3.998,1.79 3.998,3.998c0,0.2 0,0.38 0,0.53c0,0.31 -0.072,0.617 -0.211,0.894c-0.252,0.505 -0.687,1.375 -1.065,2.131c-0.155,0.31 -0.139,0.678 0.043,0.973c0.183,0.295 0.504,0.474 0.851,0.474l6.382,0c1.105,0 2,0.895 2,2c0,0 0,0 0,0c0,1.105 -0.895,2 -2,2c1.105,0 2,0.895 2,2c0,0 0,0 0,0c0,1.105 -0.895,2 -2,2c1.105,0 2,0.895 2,2c0,0 0,0 0,0c0,1.105 -0.895,2 -2,2l-2.171,0c1.886,0.625 3.761,1.282 5.645,1.91c0.239,0.086 0.452,0.216 0.625,0.403c0.109,0.117 0.198,0.251 0.265,0.396c0.231,0.504 0.16,1.111 -0.182,1.548c-0.112,0.143 -0.251,0.266 -0.407,0.36c-0.155,0.095 -0.329,0.16 -0.508,0.192c-0.227,0.041 -0.454,0.025 -0.676,-0.033c-2.708,-0.834 -5.377,-1.79 -8.065,-2.686c-0.072,-0.026 -0.142,-0.056 -0.209,-0.09Z" style="fill:#f10dc3;"/>
        <clipPath id="_clip1">
            <path d="M16.317,26l-5.292,0c-0.803,0 -1.572,-0.319 -2.139,-0.886c-0.567,-0.567 -0.886,-1.336 -0.886,-2.139c0,-2.012 0,-4.583 0,-6.253c0,-1.133 0.264,-2.249 0.77,-3.262c1.162,-2.324 3.23,-6.46 3.23,-6.46l0,-4l0.002,0c2.208,0 3.998,1.79 3.998,3.998c0,0.2 0,0.38 0,0.53c0,0.31 -0.072,0.617 -0.211,0.894c-0.252,0.505 -0.687,1.375 -1.065,2.131c-0.155,0.31 -0.139,0.678 0.043,0.973c0.183,0.295 0.504,0.474 0.851,0.474l6.382,0c1.105,0 2,0.895 2,2c0,0 0,0 0,0c0,1.105 -0.895,2 -2,2c1.105,0 2,0.895 2,2c0,0 0,0 0,0c0,1.105 -0.895,2 -2,2c1.105,0 2,0.895 2,2c0,0 0,0 0,0c0,1.105 -0.895,2 -2,2l-2.171,0c1.886,0.625 3.761,1.282 5.645,1.91c0.239,0.086 0.452,0.216 0.625,0.403c0.109,0.117 0.198,0.251 0.265,0.396c0.231,0.504 0.16,1.111 -0.182,1.548c-0.112,0.143 -0.251,0.266 -0.407,0.36c-0.155,0.095 -0.329,0.16 -0.508,0.192c-0.227,0.041 -0.454,0.025 -0.676,-0.033c-2.708,-0.834 -5.377,-1.79 -8.065,-2.686c-0.072,-0.026 -0.142,-0.056 -0.209,-0.09Z"/>
        </clipPath>
        <g clip-path="url(#_clip1)">
            <path d="M19.044,10.001c0.149,0.01 0.292,0.045 0.424,0.115c0.117,0.062 0.222,0.148 0.306,0.251c0.075,0.091 0.133,0.196 0.171,0.307c0.034,0.098 0.052,0.201 0.055,0.304c0.008,0.359 -0.184,0.702 -0.494,0.884c-0.142,0.084 -0.298,0.126 -0.462,0.137c-1.696,0.038 -3.392,0.038 -5.088,0c-0.149,-0.01 -0.292,-0.045 -0.424,-0.115c-0.117,-0.062 -0.222,-0.148 -0.306,-0.251c-0.075,-0.091 -0.133,-0.196 -0.171,-0.307c-0.034,-0.098 -0.052,-0.201 -0.055,-0.304c-0.008,-0.359 0.184,-0.702 0.494,-0.884c0.142,-0.084 0.298,-0.126 0.462,-0.137c1.696,-0.038 3.392,-0.038 5.088,0Z" style="fill:#a90eb1;fill-rule:nonzero;"/>
        </g>
    </g>
</svg>
