<?xml version="1.0" encoding="UTF-8" standalone="no"?>
<!DOCTYPE svg PUBLIC "-//W3C//DTD SVG 1.1//EN" "http://www.w3.org/Graphics/SVG/1.1/DTD/svg11.dtd">
<svg width="100%" height="100%" viewBox="0 0 32 32" version="1.1" xmlns="http://www.w3.org/2000/svg" xmlns:xlink="http://www.w3.org/1999/xlink" xml:space="preserve" xmlns:serif="http://www.serif.com/" style="fill-rule:evenodd;clip-rule:evenodd;stroke-linejoin:round;stroke-miterlimit:2;">
    <rect id="clap--hmn-" serif:id="clap [hmn]" x="0" y="0" width="32" height="32" style="fill:none;"/>
    <clipPath id="_clip1">
        <rect x="0" y="0" width="32" height="32"/>
    </clipPath>
    <g clip-path="url(#_clip1)">
        <g id="emoji">
            <path d="M19.179,6.02c-0.112,-0.312 -0.17,-0.639 -0.179,-0.971c-0.005,-0.716 -0.016,-1.431 0.002,-2.147c0.012,-0.31 0.068,-0.615 0.172,-0.908c0.28,-0.787 0.891,-1.434 1.661,-1.759c0.301,-0.127 0.62,-0.2 0.945,-0.227c0.098,-0.006 0.195,-0.009 0.293,-0.007c0.343,0.011 0.681,0.075 1.001,0.198c0.812,0.311 1.461,0.976 1.752,1.795c0.09,0.252 0.144,0.514 0.164,0.779c0.145,-0.129 0.299,-0.245 0.464,-0.344c0.45,-0.27 0.962,-0.413 1.485,-0.428c0.049,-0.001 0.049,-0.001 0.098,-0.001c0.408,0.009 0.81,0.093 1.184,0.26c0.312,0.139 0.6,0.332 0.848,0.568c0.33,0.314 0.587,0.704 0.745,1.132c0.158,0.428 0.217,0.891 0.171,1.345c-0.029,0.275 -0.095,0.546 -0.197,0.803c-0.132,0.333 -0.324,0.636 -0.561,0.902c0.314,0.024 0.623,0.095 0.915,0.216c0.422,0.174 0.802,0.444 1.105,0.786c0.302,0.342 0.524,0.752 0.645,1.192c0.074,0.267 0.11,0.544 0.108,0.82c-0.003,0.342 -0.065,0.683 -0.182,1.005c-0.128,0.351 -0.323,0.678 -0.571,0.959c-0.259,0.293 -0.576,0.534 -0.926,0.706c-0.383,0.187 -0.799,0.287 -1.223,0.304c-0.732,0.018 -1.464,0.018 -2.196,0c-0.254,-0.01 -0.505,-0.05 -0.748,-0.121l2.038,6.114c0.081,0.25 0.152,0.502 0.209,0.759c0.112,0.511 0.171,1.033 0.175,1.556c0.004,0.602 -0.063,1.205 -0.202,1.791c-0.208,0.882 -0.576,1.726 -1.083,2.477c-0.457,0.679 -1.027,1.27 -1.659,1.787c-1.297,1.063 -2.859,1.79 -4.507,2.099c-1.135,0.212 -2.306,0.227 -3.446,0.042c-1.168,-0.189 -2.302,-0.587 -3.332,-1.17c-0.398,-0.225 -0.779,-0.477 -1.141,-0.754l-0.065,0.065l-0.137,-0.137c0.005,0.53 0.007,1.061 -0.006,1.592c-0.017,0.424 -0.117,0.84 -0.304,1.222c-0.172,0.351 -0.413,0.668 -0.706,0.927c-0.281,0.248 -0.607,0.443 -0.959,0.571c-0.322,0.117 -0.663,0.179 -1.005,0.182c-0.456,0.004 -0.911,-0.098 -1.322,-0.296c-0.412,-0.197 -0.776,-0.489 -1.058,-0.847c-0.172,-0.218 -0.313,-0.459 -0.418,-0.715c-0.12,-0.292 -0.191,-0.601 -0.216,-0.915c-0.303,0.27 -0.654,0.48 -1.039,0.611c-0.37,0.127 -0.764,0.18 -1.154,0.156c-0.374,-0.022 -0.743,-0.116 -1.082,-0.274c-0.31,-0.144 -0.595,-0.342 -0.839,-0.581c-0.197,-0.195 -0.367,-0.416 -0.504,-0.657c-0.226,-0.396 -0.359,-0.844 -0.386,-1.299c-0.028,-0.455 0.049,-0.916 0.225,-1.337c0.131,-0.315 0.316,-0.602 0.542,-0.855c-0.379,-0.031 -0.75,-0.129 -1.093,-0.297c-0.351,-0.172 -0.668,-0.413 -0.927,-0.706c-0.248,-0.281 -0.443,-0.608 -0.571,-0.959c-0.117,-0.322 -0.179,-0.663 -0.182,-1.005c-0.004,-0.456 0.098,-0.911 0.296,-1.323c0.197,-0.411 0.489,-0.775 0.847,-1.057c0.218,-0.172 0.459,-0.313 0.715,-0.418c0.347,-0.143 0.718,-0.216 1.093,-0.226c0.619,-0.005 1.238,-0.005 1.857,-0.001l-1.43,-1.43c-0.087,-0.092 -0.11,-0.112 -0.194,-0.216c-0.23,-0.28 -0.411,-0.601 -0.534,-0.943c-0.106,-0.294 -0.167,-0.604 -0.183,-0.917c-0.015,-0.313 0.016,-0.628 0.092,-0.932c0.148,-0.585 0.463,-1.117 0.895,-1.53c-0.101,-0.175 -0.187,-0.358 -0.254,-0.55c-0.118,-0.337 -0.178,-0.694 -0.178,-1.051c0,-0.357 0.06,-0.714 0.178,-1.052c0.261,-0.746 0.803,-1.377 1.496,-1.752c0.001,-0.301 0.045,-0.603 0.131,-0.892c0.258,-0.87 0.892,-1.603 1.715,-1.985c0.28,-0.13 0.578,-0.218 0.884,-0.262c0.134,-0.02 0.168,-0.02 0.303,-0.029c0.068,-0.002 0.106,-0.003 0.14,-0.003c0.325,-0.6 0.84,-1.091 1.463,-1.38c0.28,-0.13 0.579,-0.219 0.885,-0.263c0.134,-0.019 0.168,-0.019 0.303,-0.029c0.152,-0.003 0.151,-0.003 0.304,0c0.204,0.015 0.405,0.039 0.604,0.087c0.354,0.087 0.692,0.235 0.997,0.435c0.176,0.116 0.337,0.251 0.488,0.398l3.885,3.885c0.043,-0.096 0.044,-0.095 0.09,-0.19c0.06,-0.118 0.06,-0.117 0.123,-0.233c0.2,-0.347 0.427,-0.673 0.693,-0.972c0.42,-0.472 0.921,-0.87 1.475,-1.173Z"/>
            <path d="M5.492,14.163c-0.005,0.321 0.039,0.643 0.13,0.951c0.072,0.244 0.174,0.478 0.301,0.697c-0.255,0.244 -0.469,0.529 -0.632,0.842l-0.481,-0.48c-0.221,-0.222 -0.346,-0.523 -0.346,-0.836c0,-0.314 0.125,-0.614 0.346,-0.836c0.001,-0.001 0.002,-0.002 0.003,-0.003c0.184,-0.184 0.423,-0.301 0.679,-0.335Zm0.356,-1.417l-0.48,-0.48c-0.461,-0.462 -0.461,-1.21 0,-1.672c0.001,-0.001 0.002,-0.002 0.003,-0.003c0.462,-0.461 1.21,-0.461 1.672,0l0.188,0.188c-0.043,0.206 -0.064,0.416 -0.065,0.627c-0.562,0.303 -1.024,0.775 -1.318,1.34Zm15.381,-3.692c-0.389,0.26 -0.745,0.569 -1.056,0.919c-0.266,0.299 -0.492,0.625 -0.692,0.972c-0.063,0.116 -0.063,0.115 -0.124,0.233c-0.046,0.095 -0.046,0.094 -0.09,0.19l-0.936,-0.937c0.164,-1.304 1.055,-2.464 2.385,-2.907c0.002,-0.001 0.002,-0.001 0.002,-0.001l0.511,1.531Zm-13.706,0.901l-0.48,-0.48c-0.462,-0.462 -0.462,-1.21 0,-1.672c0.001,0 0.002,-0.001 0.003,-0.002c0.461,-0.462 1.21,-0.462 1.671,0l0.604,0.604c-0.105,0.036 -0.209,0.077 -0.31,0.124c-0.638,0.297 -1.165,0.805 -1.488,1.426Zm2.746,-1.719l-0.436,-0.435c-0.461,-0.462 -0.461,-1.21 0,-1.672c0.001,-0.001 0.002,-0.002 0.003,-0.003c0.462,-0.461 1.21,-0.461 1.672,0l0.604,0.605c-0.106,0.035 -0.209,0.077 -0.31,0.124c-0.623,0.289 -1.139,0.78 -1.464,1.38c-0.02,0 -0.042,0 -0.069,0.001Z" style="fill:#a90eb1;"/>
            <path d="M21.513,16.442l0.321,-0.706c0,0 -0.837,-1.551 -1.06,-2.182c0.039,-1.44 0.966,-2.768 2.412,-3.25c0.001,-0.001 0.002,-0.001 0.002,-0.001c0,0 1.863,5.591 3.104,9.312c0.663,1.989 0.145,4.182 -1.338,5.665c0,0 0,0.001 -0.001,0.001c-3.133,3.133 -8.212,3.133 -11.345,0l-6.328,-6.328c-0.222,-0.222 -0.346,-0.523 -0.346,-0.836c0,-0.314 0.124,-0.614 0.346,-0.836c0.001,-0.001 0.002,-0.002 0.003,-0.003c0.221,-0.221 0.522,-0.346 0.835,-0.346c0.314,0 0.615,0.125 0.836,0.346l4.187,4.187l0.559,-0.558l-5.862,-5.861c-0.462,-0.462 -0.462,-1.21 0,-1.672c0.001,-0.001 0.002,-0.002 0.003,-0.003c0.461,-0.461 1.21,-0.461 1.671,0l5.304,5.304l0.558,-0.558l-5.862,-5.862c-0.461,-0.462 -0.461,-1.21 0,-1.672c0.001,0 0.002,-0.001 0.003,-0.002c0.462,-0.462 1.21,-0.462 1.672,0l5.303,5.303l0.558,-0.558l-4.745,-4.745c-0.462,-0.462 -0.462,-1.21 0,-1.672c0.001,-0.001 0.002,-0.002 0.003,-0.003c0.461,-0.461 1.21,-0.461 1.671,0l7.536,7.536Z" style="fill:#f10dc3;"/>
            <path d="M20.955,14.766c-0.061,-0.185 -0.108,-0.374 -0.139,-0.566c-0.033,-0.209 -0.047,-0.42 -0.042,-0.631l0,-0.015c0.805,0.791 1.598,1.594 2.379,2.409c0.077,0.087 0.136,0.186 0.168,0.298c0.027,0.091 0.036,0.186 0.027,0.28c-0.009,0.094 -0.036,0.186 -0.078,0.27c-0.162,0.317 -0.536,0.479 -0.878,0.38c-0.112,-0.033 -0.298,-0.168 -0.298,-0.168l-0.581,-0.581l-0.558,-1.676Z" style="fill:#a90eb1;"/>
            <path d="M10.028,26c0.103,0.005 0.205,0.022 0.302,0.056c0.276,0.097 0.5,0.314 0.604,0.587c0.041,0.106 0.061,0.216 0.066,0.329c0.009,0.695 0.028,1.39 -0.002,2.084c-0.009,0.141 -0.045,0.277 -0.11,0.403c-0.06,0.116 -0.143,0.221 -0.243,0.305c-0.093,0.078 -0.2,0.14 -0.315,0.18c-0.359,0.125 -0.768,0.032 -1.037,-0.237c-0.073,-0.073 -0.134,-0.157 -0.181,-0.248c-0.07,-0.134 -0.105,-0.281 -0.112,-0.431c-0.009,-0.695 -0.028,-1.39 0.002,-2.084c0.007,-0.103 0.027,-0.204 0.064,-0.301c0.094,-0.246 0.285,-0.448 0.526,-0.556c0.094,-0.042 0.194,-0.068 0.296,-0.081c0.047,-0.004 0.093,-0.006 0.14,-0.006Zm-3,-2c0.141,0.006 0.278,0.038 0.406,0.099c0.342,0.165 0.566,0.521 0.566,0.901c0,0.103 -0.016,0.206 -0.047,0.304c-0.046,0.144 -0.124,0.272 -0.226,0.383c-0.677,0.696 -1.346,1.402 -2.061,2.059c-0.106,0.092 -0.228,0.164 -0.362,0.207c-0.125,0.04 -0.258,0.054 -0.388,0.043c-0.121,-0.01 -0.24,-0.042 -0.35,-0.095c-0.342,-0.165 -0.566,-0.521 -0.566,-0.901c0,-0.103 0.016,-0.206 0.047,-0.304c0.046,-0.144 0.124,-0.272 0.226,-0.383c0.677,-0.696 1.346,-1.402 2.061,-2.059c0.18,-0.156 0.4,-0.244 0.638,-0.254c0.028,0 0.028,0 0.056,0Zm-2,-3c0.141,0.006 0.278,0.038 0.406,0.099c0.118,0.057 0.224,0.137 0.312,0.235c0.081,0.09 0.145,0.196 0.188,0.309c0.139,0.365 0.049,0.788 -0.227,1.064c-0.073,0.073 -0.157,0.134 -0.248,0.181c-0.134,0.07 -0.28,0.105 -0.431,0.112c-0.695,0.009 -1.39,0.028 -2.084,-0.002c-0.141,-0.009 -0.277,-0.045 -0.403,-0.11c-0.116,-0.06 -0.221,-0.143 -0.305,-0.243c-0.078,-0.093 -0.14,-0.2 -0.18,-0.315c-0.125,-0.359 -0.032,-0.768 0.237,-1.037c0.073,-0.073 0.157,-0.134 0.248,-0.181c0.134,-0.07 0.281,-0.105 0.431,-0.112c0.685,-0.009 1.371,-0.009 2.056,0Zm24,-12c0.141,0.006 0.278,0.038 0.406,0.099c0.118,0.057 0.224,0.137 0.312,0.235c0.081,0.09 0.145,0.196 0.188,0.309c0.139,0.365 0.049,0.788 -0.227,1.064c-0.073,0.073 -0.157,0.134 -0.248,0.181c-0.134,0.07 -0.28,0.105 -0.431,0.112c-0.695,0.009 -1.39,0.028 -2.084,-0.002c-0.141,-0.009 -0.277,-0.045 -0.403,-0.11c-0.116,-0.06 -0.221,-0.143 -0.305,-0.243c-0.078,-0.093 -0.14,-0.2 -0.18,-0.315c-0.125,-0.359 -0.032,-0.768 0.237,-1.037c0.073,-0.073 0.157,-0.134 0.248,-0.181c0.134,-0.07 0.281,-0.105 0.431,-0.112c0.685,-0.009 1.371,-0.009 2.056,0Zm-2,-5c0.151,0.007 0.297,0.042 0.431,0.112c0.091,0.047 0.175,0.108 0.248,0.181c0.269,0.269 0.362,0.678 0.237,1.037c-0.047,0.134 -0.122,0.253 -0.217,0.357c-0.677,0.696 -1.346,1.402 -2.061,2.059c-0.106,0.092 -0.228,0.164 -0.362,0.207c-0.125,0.04 -0.258,0.054 -0.388,0.043c-0.121,-0.01 -0.24,-0.042 -0.35,-0.095c-0.342,-0.165 -0.566,-0.521 -0.566,-0.901c0,-0.103 0.016,-0.206 0.047,-0.304c0.046,-0.144 0.124,-0.272 0.226,-0.383c0.677,-0.696 1.346,-1.402 2.061,-2.059c0.18,-0.156 0.4,-0.244 0.638,-0.254c0.028,0 0.028,0 0.056,0Zm-5,-2c0.113,0.005 0.223,0.025 0.329,0.066c0.273,0.104 0.49,0.328 0.587,0.604c0.034,0.097 0.051,0.199 0.056,0.302c0.009,0.695 0.028,1.39 -0.002,2.084c-0.009,0.141 -0.045,0.277 -0.11,0.403c-0.06,0.116 -0.143,0.221 -0.243,0.305c-0.093,0.078 -0.2,0.14 -0.315,0.18c-0.359,0.125 -0.768,0.032 -1.037,-0.237c-0.073,-0.073 -0.134,-0.157 -0.181,-0.248c-0.07,-0.134 -0.105,-0.281 -0.112,-0.431c-0.009,-0.695 -0.028,-1.39 0.002,-2.084c0.007,-0.103 0.027,-0.204 0.064,-0.301c0.094,-0.246 0.285,-0.448 0.526,-0.556c0.094,-0.042 0.194,-0.068 0.296,-0.081c0.047,-0.004 0.093,-0.006 0.14,-0.006Z" style="fill:#fff;"/>
        </g>
    </g>
</svg>
