<?xml version="1.0" encoding="UTF-8" standalone="no"?>
<!DOCTYPE svg PUBLIC "-//W3C//DTD SVG 1.1//EN" "http://www.w3.org/Graphics/SVG/1.1/DTD/svg11.dtd">
<svg width="100%" height="100%" viewBox="0 0 32 32" version="1.1" xmlns="http://www.w3.org/2000/svg" xmlns:xlink="http://www.w3.org/1999/xlink" xml:space="preserve" xmlns:serif="http://www.serif.com/" style="fill-rule:evenodd;clip-rule:evenodd;stroke-linejoin:round;stroke-miterlimit:2;">
    <rect id="fist--hmn-" serif:id="fist [hmn]" x="0" y="0" width="32" height="32" style="fill:none;"/>
    <g id="outline">
        <path d="M8.401,3.253c0.222,-0.458 0.532,-0.872 0.908,-1.214c0.406,-0.369 0.888,-0.653 1.407,-0.829c0.41,-0.138 0.837,-0.204 1.269,-0.21c0.038,0 0.076,0.001 0.114,0.001c0.46,0.017 0.911,0.101 1.341,0.267c0.382,0.148 0.741,0.354 1.06,0.61c0.32,-0.256 0.678,-0.462 1.06,-0.61c0.43,-0.166 0.881,-0.25 1.341,-0.267c0.099,-0.001 0.099,-0.001 0.198,0c0.46,0.017 0.911,0.101 1.341,0.267c0.382,0.148 0.741,0.354 1.06,0.61c0.32,-0.256 0.678,-0.462 1.06,-0.61c0.43,-0.166 0.881,-0.25 1.341,-0.267c0.099,-0.001 0.099,-0.001 0.198,0c0.46,0.017 0.911,0.101 1.341,0.267c0.489,0.189 0.939,0.474 1.318,0.835c0.451,0.429 0.798,0.963 1.008,1.549c0.154,0.43 0.228,0.88 0.234,1.335l0,2.194l0,0.001l0,4.376c0.114,0.038 0.228,0.076 0.341,0.115c0.075,0.028 0.149,0.056 0.223,0.087c0.432,0.188 0.83,0.442 1.174,0.765c0.583,0.548 0.994,1.269 1.167,2.05c0.058,0.259 0.087,0.522 0.094,0.787c0.013,1.264 0.008,2.528 0,3.792c-0.009,0.459 -0.037,0.917 -0.095,1.372c-0.113,0.887 -0.325,1.761 -0.633,2.6c-0.499,1.363 -1.248,2.631 -2.198,3.728c-1.039,1.2 -2.317,2.191 -3.739,2.898c-1.013,0.503 -2.098,0.862 -3.212,1.061c-0.996,0.178 -2.01,0.223 -3.019,0.159c-1.05,-0.067 -2.092,-0.252 -3.1,-0.551c-1.252,-0.373 -2.451,-0.923 -3.55,-1.628c-1.321,-0.846 -2.497,-1.915 -3.466,-3.149c-0.908,-1.154 -1.632,-2.451 -2.137,-3.83c-0.379,-1.035 -0.634,-2.114 -0.759,-3.209c-0.054,-0.473 -0.081,-0.948 -0.09,-1.425c-0.009,-1.508 -0.006,-3.016 -0.004,-4.524c-0.006,-1.92 -0.02,-3.841 0.004,-5.761c0.005,-0.135 0.014,-0.269 0.031,-0.403c0.042,-0.329 0.124,-0.652 0.246,-0.961c0.2,-0.508 0.506,-0.973 0.893,-1.36c0.433,-0.433 0.965,-0.764 1.545,-0.961c0.41,-0.138 0.837,-0.204 1.269,-0.21c0.039,0 0.078,0.001 0.117,0.001c0.136,0.005 0.27,0.014 0.405,0.031c0.305,0.039 0.606,0.113 0.894,0.221Z"/>
    </g>
    <g id="emoji">
        <path d="M23,12l1,1c0,0 0.841,0.28 1.632,0.544c0.817,0.272 1.368,1.037 1.368,1.898c0,0.907 0,2.168 0,3.558c0,5.501 -4.442,9.965 -9.935,10l-0.065,0c-3.183,0 -6.235,-1.264 -8.485,-3.515c-2.251,-2.25 -3.515,-5.302 -3.515,-8.485l0,-2.763c0.264,0.236 8,-2.237 8,-2.237l10,0Z" style="fill:#f10dc3;"/>
        <path d="M15.274,16.5c0.141,0.007 0.277,0.036 0.404,0.096c0.347,0.165 0.573,0.523 0.572,0.907c0,0.141 -0.033,0.277 -0.088,0.406c-0.73,1.541 -1.493,3.067 -2.287,4.575c-0.078,0.134 -0.179,0.25 -0.307,0.339c-0.08,0.055 -0.169,0.099 -0.262,0.129c-0.351,0.113 -0.745,0.019 -1.008,-0.24c-0.089,-0.088 -0.162,-0.193 -0.213,-0.308c-0.051,-0.115 -0.079,-0.239 -0.084,-0.365c-0.006,-0.156 0.026,-0.306 0.087,-0.448c0.73,-1.541 1.493,-3.067 2.287,-4.575c0.128,-0.221 0.325,-0.389 0.569,-0.468c0.08,-0.026 0.162,-0.039 0.246,-0.046c0.042,-0.002 0.042,-0.002 0.084,-0.002Z" style="fill:#a90eb1;fill-rule:nonzero;"/>
        <path d="M24,11l-1,1l-10,0l0,3.828c-0.344,0.122 -0.71,0.18 -1.075,0.171c-0.343,-0.008 -0.684,-0.076 -1.005,-0.2c-0.343,-0.132 -0.661,-0.328 -0.934,-0.575c-0.292,-0.264 -0.53,-0.586 -0.698,-0.942c-0.036,-0.076 -0.069,-0.153 -0.098,-0.231c-0.022,0.024 -0.045,0.048 -0.068,0.071c-0.255,0.255 -0.557,0.464 -0.886,0.613c-0.733,0.331 -1.589,0.352 -2.338,0.057c-0.329,-0.13 -0.634,-0.319 -0.898,-0.555l0,-7.237c1.723,0 2,-0.277 2,-2l17,0l0,6Z" style="fill:#640082;"/>
        <path d="M10,5c0,-1.105 0.895,-2 2,-2c1.105,0 2,0.895 2,2c0,2.22 0,5.78 0,8c0,1.105 -0.895,2 -2,2c-1.105,0 -2,-0.895 -2,-2c0,-2.22 0,-5.78 0,-8Zm-5,1.998c0,-1.103 0.895,-1.998 1.998,-1.998c0.001,0 0.003,0 0.004,0c1.103,0 1.998,0.895 1.998,1.998c0,1.489 0,3.513 0,5.002c0,0.53 -0.211,1.039 -0.586,1.414c-0.375,0.375 -0.884,0.586 -1.414,0.586c-0.53,0 -1.039,-0.211 -1.414,-0.586c-0.375,-0.375 -0.586,-0.884 -0.586,-1.414c0,-1.489 0,-3.513 0,-5.002Zm19,4.002l-2,1l-2,-1l0,-6.002c0,-0.53 0.21,-1.038 0.585,-1.413c0.375,-0.374 0.883,-0.585 1.413,-0.585c0.001,0 0.003,0 0.004,0c0.53,0 1.038,0.211 1.413,0.585c0.375,0.375 0.585,0.883 0.585,1.413l0,6.002Zm-5,0l-2,1l-2,-1l0,-6.002c0,-1.103 0.895,-1.998 1.998,-1.998c0.001,0 0.003,0 0.004,0c1.103,0 1.998,0.895 1.998,1.998l0,6.002Z" style="fill:#f10dc3;"/>
        <path d="M24,13l-9.985,0c0.01,0.089 0.023,0.177 0.038,0.265c0.079,0.442 0.218,0.87 0.421,1.271c0.273,0.537 0.654,1.019 1.116,1.407c0.443,0.373 0.959,0.659 1.511,0.838c0.449,0.146 0.918,0.216 1.39,0.219l1.914,0l3.2,3.1l-1.392,1.436l-2.618,-2.536c-0.422,0 -0.848,0.006 -1.272,-0.002c-0.733,-0.023 -1.457,-0.161 -2.144,-0.422c-0.784,-0.297 -1.508,-0.748 -2.122,-1.32c-0.834,-0.777 -1.456,-1.773 -1.788,-2.864c-0.206,-0.676 -0.295,-1.38 -0.279,-2.086l0.04,-1.306l11.97,0l0,2Z" style="fill:#640082;fill-rule:nonzero;"/>
    </g>
</svg>
