<?xml version="1.0" encoding="UTF-8" standalone="no"?>
<!DOCTYPE svg PUBLIC "-//W3C//DTD SVG 1.1//EN" "http://www.w3.org/Graphics/SVG/1.1/DTD/svg11.dtd">
<svg width="100%" height="100%" viewBox="0 0 32 32" version="1.1" xmlns="http://www.w3.org/2000/svg" xmlns:xlink="http://www.w3.org/1999/xlink" xml:space="preserve" xmlns:serif="http://www.serif.com/" style="fill-rule:evenodd;clip-rule:evenodd;stroke-linejoin:round;stroke-miterlimit:2;">
    <rect id="fist_facing_right--hmn-" serif:id="fist_facing_right [hmn]" x="0" y="0" width="32" height="32" style="fill:none;"/>
    <clipPath id="_clip1">
        <rect x="0" y="0" width="32" height="32"/>
    </clipPath>
    <g clip-path="url(#_clip1)">
        <g id="outline">
            <path d="M28.081,8.001c0.46,0.017 0.911,0.101 1.341,0.267c0.551,0.213 1.051,0.547 1.458,0.975c0.383,0.402 0.681,0.885 0.868,1.408c0.144,0.403 0.217,0.823 0.233,1.25c0.025,2.066 0.025,4.132 0,6.198c-0.016,0.427 -0.089,0.847 -0.233,1.25c-0.31,0.866 -0.922,1.611 -1.712,2.084c-0.329,0.196 -0.684,0.342 -1.054,0.44c0,0.409 0.004,0.817 -0.001,1.226c-0.016,0.427 -0.089,0.847 -0.233,1.25c-0.199,0.554 -0.521,1.063 -0.937,1.48c-0.394,0.393 -0.87,0.703 -1.389,0.903c-0.43,0.166 -0.881,0.25 -1.34,0.267c-1.905,0.023 -3.81,0.012 -5.714,0c-0.559,-0.01 -1.115,-0.072 -1.66,-0.195c-1.018,-0.229 -1.988,-0.659 -2.841,-1.259c-0.376,-0.264 -0.725,-0.561 -1.052,-0.884l-6.661,-6.661l-5.172,0c-0.53,0 -1.039,-0.211 -1.414,-0.586c-0.375,-0.375 -0.586,-0.884 -0.586,-1.414c0,-1.743 0,-4.258 0,-6.001c0,-1.104 0.895,-1.999 1.999,-2c5.077,-0.002 18.596,-0.006 26.1,0.002Z" style="fill-rule:nonzero;"/>
        </g>
        <g id="emoji">
            <path d="M6.982,10l-5,0l0,6l5,0l1,-3l-1,-3Z" style="fill:#a90eb1;"/>
            <path d="M6.982,16l1,0l7.536,7.536c0.269,0.268 0.567,0.506 0.89,0.707c0.527,0.328 1.115,0.557 1.725,0.672c0.293,0.055 0.591,0.082 0.889,0.085l5.96,0c0.23,-0.001 0.458,-0.04 0.674,-0.117c0.567,-0.203 1.021,-0.662 1.217,-1.232c0.072,-0.209 0.108,-0.429 0.109,-0.651l0,-1l-1,-1l1,-1l1.001,0c0.53,0 1.038,-0.211 1.413,-0.586c0.375,-0.375 0.586,-0.884 0.586,-1.414c0,-1.743 0,-4.257 0,-6c0,-0.53 -0.211,-1.039 -0.586,-1.414c-0.375,-0.375 -0.884,-0.586 -1.414,-0.586c-4.343,0 -21,0 -21,0l0,6Z" style="fill:#f10dc3;"/>
            <path d="M24.139,20c-0.08,-0.001 -0.159,-0.008 -0.237,-0.026c-0.213,-0.05 -0.399,-0.17 -0.54,-0.335c-0.028,-0.034 -0.053,-0.07 -0.078,-0.107c-0.822,-1.358 -1.601,-2.743 -2.401,-4.115l0.044,-0.022c0.246,-0.119 0.505,-0.201 0.776,-0.234c0.693,-0.083 1.401,0.153 1.905,0.635c0.182,0.174 0.33,0.375 0.451,0.596c0.18,0.349 0.353,0.703 0.529,1.055l1.788,-0.894l-0.504,-1.009c-0.147,-0.285 -0.317,-0.555 -0.52,-0.803c-0.542,-0.662 -1.278,-1.156 -2.095,-1.406c-0.377,-0.116 -0.764,-0.174 -1.157,-0.189c-0.107,-0.002 -0.106,-0.002 -0.213,-0.001c-0.283,0.01 -0.564,0.041 -0.841,0.102c-0.28,0.061 -0.549,0.153 -0.812,0.265c-0.096,0.043 -0.095,0.043 -0.19,0.089l-1.963,0.982l3.462,5.936c0.119,0.195 0.252,0.378 0.41,0.544c0.378,0.4 0.867,0.691 1.398,0.834c0.253,0.068 0.51,0.099 0.771,0.103l2.86,0l0,-2c0.333,0 -2.843,0 -2.843,0Z" style="fill:#640082;"/>
        </g>
    </g>
</svg>
