<?xml version="1.0" encoding="UTF-8" standalone="no"?>
<!DOCTYPE svg PUBLIC "-//W3C//DTD SVG 1.1//EN" "http://www.w3.org/Graphics/SVG/1.1/DTD/svg11.dtd">
<svg width="100%" height="100%" viewBox="0 0 32 32" version="1.1" xmlns="http://www.w3.org/2000/svg" xmlns:xlink="http://www.w3.org/1999/xlink" xml:space="preserve" xmlns:serif="http://www.serif.com/" style="fill-rule:evenodd;clip-rule:evenodd;stroke-linejoin:round;stroke-miterlimit:2;">
    <rect id="hand--hmn-" serif:id="hand [hmn]" x="0" y="0" width="32" height="32" style="fill:none;"/>
    <clipPath id="_clip1">
        <rect x="0" y="0" width="32" height="32"/>
    </clipPath>
    <g clip-path="url(#_clip1)">
        <g id="outline">
            <path d="M12.814,2.256c0.104,-0.124 0.216,-0.242 0.337,-0.351c0.36,-0.326 0.788,-0.575 1.249,-0.728c0.352,-0.116 0.718,-0.172 1.088,-0.177c0.033,0 0.066,0.001 0.099,0.001c0.402,0.015 0.797,0.088 1.173,0.234c0.509,0.196 0.969,0.512 1.335,0.916c0.031,0.034 0.061,0.069 0.091,0.105c0.018,-0.007 0.036,-0.014 0.054,-0.021c0.376,-0.146 0.771,-0.219 1.173,-0.234c0.087,-0.001 0.087,-0.001 0.174,0c0.402,0.015 0.797,0.088 1.173,0.234c0.482,0.185 0.92,0.478 1.276,0.852c0.355,0.373 0.625,0.825 0.787,1.314c0.116,0.351 0.172,0.717 0.177,1.087l0,7.782c0.106,-0.055 0.106,-0.054 0.213,-0.107c0.388,-0.181 0.787,-0.331 1.202,-0.436c0.359,-0.091 0.727,-0.152 1.096,-0.18c0.158,-0.012 0.316,-0.016 0.474,-0.019c0.158,0.002 0.158,0.002 0.315,0.007c0.369,0.022 0.734,0.065 1.095,0.145c0.362,0.08 0.717,0.191 1.06,0.331c0.145,0.06 0.286,0.126 0.427,0.194l1.801,0.901c-2.127,4.254 -4.254,8.507 -6.38,12.761c-0.073,0.143 -0.073,0.142 -0.149,0.284c-0.106,0.19 -0.215,0.379 -0.333,0.563c-0.261,0.408 -0.554,0.796 -0.876,1.159c-1.166,1.314 -2.703,2.282 -4.392,2.767c-0.518,0.148 -1.048,0.252 -1.583,0.308c-0.272,0.029 -0.544,0.043 -0.817,0.051c-0.431,0.003 -0.863,0.003 -1.295,0c-0.374,-0.007 -0.747,-0.028 -1.119,-0.071c-0.815,-0.093 -1.62,-0.278 -2.394,-0.55c-1.422,-0.501 -2.735,-1.298 -3.839,-2.325c-1.264,-1.177 -2.244,-2.649 -2.838,-4.271c-0.298,-0.813 -0.498,-1.661 -0.596,-2.521c-0.043,-0.372 -0.064,-0.745 -0.071,-1.119l-0.001,-0.136l0,-0.006c0,-4.197 -0.052,-8.393 0.001,-12.589c0.016,-0.41 0.092,-0.812 0.242,-1.195c0.375,-0.95 1.167,-1.705 2.135,-2.032c0.358,-0.121 0.732,-0.179 1.109,-0.184c0.034,0 0.068,0.001 0.102,0.001c0.149,0.006 0.297,0.019 0.443,0.041c0.032,-0.245 0.089,-0.487 0.173,-0.722c0.34,-0.95 1.093,-1.722 2.035,-2.085c0.376,-0.146 0.771,-0.219 1.173,-0.234c0.087,-0.001 0.087,-0.001 0.174,0c0.402,0.015 0.797,0.088 1.173,0.234c0.018,0.007 0.036,0.014 0.054,0.021Z"/>
        </g>
        <g id="emoji">
            <path d="M14,15l0,-10.5c0,-0.398 0.158,-0.779 0.439,-1.061c0.282,-0.281 0.663,-0.439 1.061,-0.439c0.398,0 0.779,0.158 1.061,0.439c0.281,0.282 0.439,0.663 0.439,1.061l0,9.5l1,0l0,-8.5c0,-0.398 0.158,-0.779 0.439,-1.061c0.282,-0.281 0.663,-0.439 1.061,-0.439c0.398,0 0.779,0.158 1.061,0.439c0.281,0.282 0.439,0.663 0.439,1.061l0,13.5c0,0 0.449,-0.899 1,-2c1.105,-2.209 3.791,-3.105 6,-2c0,0 0,0 0,0c0,0 -3.263,6.526 -5.484,10.969c-1.236,2.47 -3.761,4.031 -6.523,4.031c-0.316,0 -0.639,0 -0.968,0c-4.984,0 -9.025,-4.041 -9.025,-9.025l0,-12.475c0,-0.828 0.672,-1.5 1.5,-1.5c0.828,0 1.5,0.672 1.5,1.5l0,7.5l1,0l0,-10.5c0,-0.398 0.158,-0.779 0.439,-1.061c0.282,-0.281 0.663,-0.439 1.061,-0.439c0.398,0 0.779,0.158 1.061,0.439c0.281,0.282 0.439,0.663 0.439,1.061l0,9.5l1,0Z" style="fill:#f10dc3;"/>
            <clipPath id="_clip2">
                <path d="M14,15l0,-10.5c0,-0.398 0.158,-0.779 0.439,-1.061c0.282,-0.281 0.663,-0.439 1.061,-0.439c0.398,0 0.779,0.158 1.061,0.439c0.281,0.282 0.439,0.663 0.439,1.061l0,9.5l1,0l0,-8.5c0,-0.398 0.158,-0.779 0.439,-1.061c0.282,-0.281 0.663,-0.439 1.061,-0.439c0.398,0 0.779,0.158 1.061,0.439c0.281,0.282 0.439,0.663 0.439,1.061l0,13.5c0,0 0.449,-0.899 1,-2c1.105,-2.209 3.791,-3.105 6,-2c0,0 0,0 0,0c0,0 -3.263,6.526 -5.484,10.969c-1.236,2.47 -3.761,4.031 -6.523,4.031c-0.316,0 -0.639,0 -0.968,0c-4.984,0 -9.025,-4.041 -9.025,-9.025l0,-12.475c0,-0.828 0.672,-1.5 1.5,-1.5c0.828,0 1.5,0.672 1.5,1.5l0,7.5l1,0l0,-10.5c0,-0.398 0.158,-0.779 0.439,-1.061c0.282,-0.281 0.663,-0.439 1.061,-0.439c0.398,0 0.779,0.158 1.061,0.439c0.281,0.282 0.439,0.663 0.439,1.061l0,9.5l1,0Z"/>
            </clipPath>
            <g clip-path="url(#_clip2)">
                <path d="M22.469,13.004c0.126,0.015 0.246,0.044 0.36,0.102c0.343,0.171 0.562,0.535 0.553,0.918c-0.004,0.149 -0.043,0.288 -0.106,0.423l-3.471,6.943c-0.328,-0.186 -0.654,-0.375 -0.984,-0.558c-0.064,-0.033 -0.128,-0.064 -0.194,-0.094c-0.285,-0.122 -0.583,-0.203 -0.892,-0.23c-0.789,-0.069 -1.586,0.205 -2.165,0.746c-0.227,0.212 -0.413,0.461 -0.562,0.733c-0.421,0.815 -0.822,1.64 -1.232,2.46c-0.07,0.131 -0.158,0.246 -0.275,0.338c-0.099,0.078 -0.212,0.137 -0.333,0.173c-0.1,0.03 -0.205,0.044 -0.31,0.042c-0.105,-0.003 -0.209,-0.022 -0.308,-0.057c-0.32,-0.112 -0.566,-0.387 -0.642,-0.717c-0.033,-0.143 -0.035,-0.293 -0.004,-0.437c0.014,-0.062 0.034,-0.12 0.057,-0.179c0.384,-0.832 0.818,-1.64 1.227,-2.459c0.094,-0.181 0.194,-0.357 0.307,-0.526c0.227,-0.337 0.497,-0.646 0.8,-0.915c0.426,-0.378 0.919,-0.679 1.45,-0.886c1.004,-0.39 2.134,-0.434 3.163,-0.113l2.58,-5.158c0.03,-0.056 0.061,-0.109 0.099,-0.16c0.128,-0.167 0.307,-0.291 0.509,-0.351c0.081,-0.024 0.163,-0.035 0.247,-0.041c0.063,-0.001 0.063,-0.001 0.126,0.003Z" style="fill:#a90eb1;fill-rule:nonzero;"/>
            </g>
        </g>
    </g>
</svg>
