<?xml version="1.0" encoding="UTF-8" standalone="no"?>
<!DOCTYPE svg PUBLIC "-//W3C//DTD SVG 1.1//EN" "http://www.w3.org/Graphics/SVG/1.1/DTD/svg11.dtd">
<svg width="100%" height="100%" viewBox="0 0 32 32" version="1.1" xmlns="http://www.w3.org/2000/svg" xmlns:xlink="http://www.w3.org/1999/xlink" xml:space="preserve" xmlns:serif="http://www.serif.com/" style="fill-rule:evenodd;clip-rule:evenodd;stroke-linejoin:round;stroke-miterlimit:2;">
    <rect id="handshake--hmn-" serif:id="handshake [hmn]" x="0" y="0" width="32" height="32" style="fill:none;"/>
    <g id="outline">
        <path d="M20.494,10.517l11.506,-5.753l0,14.472l-4.084,2.042l-0.005,0.021c-0.035,0.128 -0.04,0.158 -0.085,0.282c-0.065,0.183 -0.148,0.359 -0.247,0.526c-0.101,0.169 -0.22,0.322 -0.347,0.472c-0.19,0.201 -0.192,0.198 -0.407,0.414c-0.303,0.298 -0.644,0.55 -1.024,0.742c-0.243,0.123 -0.499,0.221 -0.761,0.292c-0.166,0.172 -0.353,0.323 -0.555,0.451c-0.108,0.068 -0.13,0.077 -0.237,0.134c-2.837,1.418 -5.659,2.865 -8.51,4.254c-0.419,0.194 -0.857,0.337 -1.313,0.414c-1.115,0.188 -2.28,-0.012 -3.267,-0.563c-0.375,-0.209 -0.717,-0.467 -1.03,-0.761c-2.437,-2.39 -4.71,-4.95 -7.242,-7.239c-0.061,-0.053 -0.127,-0.098 -0.198,-0.137l-0.027,-0.013l-2.661,-1.331l0,-13.955l7.47,3.719l10.434,0l0.088,0.002c0.209,0.011 0.416,0.036 0.62,0.087c0.566,0.141 1.085,0.449 1.48,0.877c0.156,0.169 0.286,0.354 0.402,0.551Z"/>
    </g>
    <g id="emoji">
        <path d="M7,11l10.886,0c0.357,0 0.684,0.19 0.863,0.494l-6.581,-0.029l-4.488,4.544l1.915,1.915c0.312,0.304 0.664,0.562 1.054,0.759c0.511,0.257 1.075,0.406 1.647,0.434c0.574,0.028 1.152,-0.065 1.688,-0.271c0.441,-0.171 0.843,-0.418 1.205,-0.722c0.069,-0.062 0.069,-0.061 0.137,-0.124l0.846,0l5.003,5.003c0.215,0.209 0.449,0.395 0.702,0.556l0.002,0.001l-2.603,1.302l-1.14,0.138l-0.745,0.805l-1.448,0.724l-1.169,0.106l-0.856,0.697c-0.886,0.097 -1.791,-0.205 -2.447,-0.861c-2.234,-2.234 -6.236,-6.236 -7.238,-7.238c-0.154,-0.154 -0.333,-0.282 -0.528,-0.379c-0.556,-0.275 -1.705,-0.843 -1.705,-0.843l0,-9.5l5,2.489Z" style="fill:#f10dc3;"/>
        <path d="M14.934,27.033c-0.32,0.158 -0.661,0.259 -1.015,0.299l-3.528,-3.527c0.628,-0.315 1.257,-0.629 1.885,-0.943l3.667,3.667l-1.009,0.504Zm4.342,-2.171l-1.885,0.943l-3.667,-3.667c0.628,-0.314 1.257,-0.628 1.885,-0.943l3.667,3.667Z" style="fill:#640082;"/>
        <path d="M20,13l10,-5l0,10l-4,2c0,0 0,0.303 0,0.573c0,0.264 -0.104,0.517 -0.29,0.705c-0.086,0.086 -0.187,0.188 -0.296,0.297c-0.374,0.378 -0.884,0.59 -1.416,0.591c-0.531,0.001 -1.041,-0.209 -1.417,-0.585l-2.089,-2.089c0.119,-0.007 -1.389,-1.989 -1.991,-1.991l-1.501,-1.501l-2.5,0c0,0 -0.213,0.213 -0.501,0.501c-0.398,0.398 -0.937,0.621 -1.499,0.621c-0.562,0 -1.101,-0.223 -1.499,-0.621c-0.288,-0.288 -0.501,-0.501 -0.501,-0.501l2.963,-3l6.537,0Z" style="fill:#f10dc3;"/>
        <path d="M18.501,17.501c0.602,0.002 1.204,0.006 1.806,-0.002c0.378,-0.014 0.744,-0.125 1.06,-0.335c0.112,-0.075 0.213,-0.161 0.309,-0.254l1.617,-1.617c0.471,0.471 0.943,0.943 1.414,1.414c-0.564,0.564 -1.122,1.134 -1.692,1.691c-0.073,0.067 -0.073,0.067 -0.147,0.133c-0.201,0.169 -0.413,0.321 -0.641,0.451c-0.426,0.24 -0.895,0.402 -1.379,0.474c-0.118,0.018 -0.237,0.029 -0.356,0.036l-1.991,-1.991Z" style="fill:#a90eb1;"/>
    </g>
</svg>
