<?xml version="1.0" encoding="UTF-8" standalone="no"?>
<!DOCTYPE svg PUBLIC "-//W3C//DTD SVG 1.1//EN" "http://www.w3.org/Graphics/SVG/1.1/DTD/svg11.dtd">
<svg width="100%" height="100%" viewBox="0 0 32 32" version="1.1" xmlns="http://www.w3.org/2000/svg" xmlns:xlink="http://www.w3.org/1999/xlink" xml:space="preserve" xmlns:serif="http://www.serif.com/" style="fill-rule:evenodd;clip-rule:evenodd;stroke-linejoin:round;stroke-miterlimit:2;">
    <rect id="hand_splayed--hmn-" serif:id="hand_splayed [hmn]" x="0" y="0" width="32" height="32" style="fill:none;"/>
    <clipPath id="_clip1">
        <rect x="0" y="0" width="32" height="32"/>
    </clipPath>
    <g clip-path="url(#_clip1)">
        <g id="outline">
            <path d="M11.012,4.217c0.002,-0.035 0.006,-0.07 0.009,-0.104c0.029,-0.257 0.086,-0.511 0.171,-0.756c0.169,-0.489 0.448,-0.939 0.81,-1.309c0.363,-0.369 0.808,-0.656 1.294,-0.834c0.243,-0.089 0.496,-0.151 0.753,-0.185c0.128,-0.016 0.257,-0.024 0.386,-0.028c0.13,0 0.129,0 0.259,0.004c0.129,0.01 0.257,0.022 0.385,0.043c0.213,0.036 0.422,0.091 0.625,0.166c0.938,0.343 1.699,1.09 2.06,2.022c0.093,0.241 0.16,0.493 0.198,0.748c0.011,0.078 0.019,0.155 0.025,0.233c0.004,-0.006 0.008,-0.012 0.011,-0.018c0.446,-0.743 1.167,-1.303 1.997,-1.552c0.291,-0.087 0.588,-0.13 0.891,-0.145c0.13,-0.002 0.13,-0.002 0.259,0.001c0.129,0.008 0.258,0.018 0.386,0.038c0.298,0.046 0.591,0.13 0.867,0.251c0.755,0.329 1.378,0.925 1.742,1.663c0.152,0.31 0.258,0.642 0.313,0.982c0.049,0.298 0.059,0.602 0.03,0.903c-0.013,0.129 -0.035,0.256 -0.059,0.383c-0.751,3.258 -1.597,6.493 -2.424,9.733l0,0.458l0.094,-0.085c0.232,-0.2 0.472,-0.387 0.73,-0.553c0.64,-0.413 1.357,-0.703 2.103,-0.853c0.404,-0.08 0.812,-0.114 1.224,-0.117c0.154,0.003 0.154,0.003 0.308,0.009c0.408,0.028 0.811,0.087 1.207,0.191c0.736,0.194 1.434,0.528 2.048,0.978c0.24,0.177 0.464,0.371 0.677,0.579l1.464,1.41c-0.98,0.98 -1.96,1.961 -2.941,2.941c-2.648,2.649 -5.281,5.313 -7.946,7.945c-0.083,0.08 -0.167,0.159 -0.252,0.237c-0.369,0.331 -0.76,0.635 -1.176,0.905c-0.92,0.598 -1.946,1.03 -3.017,1.271c-0.634,0.143 -1.279,0.215 -1.928,0.227c-0.236,0.002 -0.472,0.002 -0.707,0c-0.364,-0.007 -0.726,-0.027 -1.088,-0.067c-0.849,-0.095 -1.688,-0.289 -2.493,-0.578c-1.399,-0.501 -2.693,-1.287 -3.782,-2.298c-1.324,-1.229 -2.336,-2.782 -2.924,-4.49c-0.264,-0.766 -0.443,-1.561 -0.533,-2.366c-0.04,-0.362 -0.06,-0.724 -0.067,-1.088l-0.001,-0.131l0,-1.81c-0.955,-2.85 -1.87,-5.714 -2.82,-8.565c-0.039,-0.124 -0.075,-0.247 -0.102,-0.374c-0.073,-0.337 -0.095,-0.685 -0.065,-1.029c0.029,-0.344 0.109,-0.683 0.237,-1.003c0.339,-0.846 1.008,-1.538 1.842,-1.905c0.276,-0.121 0.568,-0.207 0.866,-0.253c0.128,-0.021 0.257,-0.031 0.386,-0.039c0.13,-0.004 0.129,-0.004 0.259,-0.002c0.303,0.014 0.6,0.056 0.891,0.143l0.009,0.002c-0.008,-0.194 0,-0.388 0.024,-0.581c0.108,-0.86 0.541,-1.663 1.2,-2.226c0.262,-0.224 0.558,-0.409 0.874,-0.547c0.277,-0.121 0.569,-0.205 0.867,-0.251c0.129,-0.02 0.257,-0.03 0.386,-0.038c0.13,-0.003 0.129,-0.003 0.259,-0.001c0.303,0.015 0.6,0.058 0.891,0.145c0.788,0.236 1.479,0.753 1.928,1.442c0.028,0.042 0.054,0.085 0.08,0.128Z"/>
        </g>
        <g id="emoji">
            <path d="M12.969,15l0.031,-10.5c0,0 0.028,-0.334 0.084,-0.495c0.14,-0.4 0.45,-0.729 0.842,-0.891c0.158,-0.065 0.321,-0.097 0.49,-0.112c0.084,-0.002 0.084,-0.002 0.168,0c0.169,0.015 0.332,0.047 0.49,0.112c0.392,0.162 0.702,0.491 0.842,0.891c0.047,0.134 0.082,0.411 0.082,0.411l0.013,9.584l1.391,0l2.142,-8.364c0,0 0.086,-0.265 0.157,-0.388c0.184,-0.317 0.484,-0.56 0.832,-0.673c0.135,-0.045 0.272,-0.065 0.413,-0.074c0.084,0 0.084,0 0.168,0.004c0.197,0.02 0.386,0.067 0.564,0.157c0.429,0.218 0.734,0.641 0.805,1.117c0.025,0.169 -0.011,0.503 -0.011,0.503l-2.472,9.936l0,3.224c0,0.412 0.252,0.782 0.636,0.932c0.383,0.15 0.82,0.049 1.099,-0.253c0.435,-0.472 0.913,-0.99 1.388,-1.504c0.752,-0.815 1.804,-1.288 2.913,-1.31c1.109,-0.022 2.179,0.408 2.964,1.193c0,0 0,0 0,0c0,0 -6.038,6.038 -9.364,9.364c-1.368,1.368 -3.223,2.136 -5.157,2.136c-0.148,0 -0.3,0 -0.454,0c-2.394,0 -4.689,-0.951 -6.382,-2.643c-1.692,-1.693 -2.643,-3.988 -2.643,-6.382l0,-2.077c-1.003,-2.965 -1.933,-5.955 -2.923,-8.924c-0.057,-0.19 -0.087,-0.382 -0.073,-0.581c0.038,-0.539 0.375,-1.027 0.865,-1.255c0.181,-0.083 0.371,-0.124 0.569,-0.137c0.084,-0.001 0.084,-0.001 0.168,0.002c0.113,0.011 0.222,0.028 0.331,0.061c0.296,0.09 0.56,0.273 0.75,0.518c0.086,0.112 0.207,0.364 0.207,0.364l2.391,7.054l1.625,0l-2.365,-9.636c0,0 -0.054,-0.331 -0.038,-0.501c0.046,-0.509 0.359,-0.969 0.815,-1.201c0.178,-0.09 0.366,-0.137 0.563,-0.157c0.084,-0.005 0.084,-0.005 0.169,-0.004c0.141,0.009 0.278,0.029 0.412,0.073c0.322,0.105 0.602,0.32 0.788,0.602c0.078,0.119 0.179,0.379 0.179,0.379l2.377,9.445l1.159,0Z" style="fill:#f10dc3;"/>
            <clipPath id="_clip2">
                <path d="M12.969,15l0.031,-10.5c0,0 0.028,-0.334 0.084,-0.495c0.14,-0.4 0.45,-0.729 0.842,-0.891c0.158,-0.065 0.321,-0.097 0.49,-0.112c0.084,-0.002 0.084,-0.002 0.168,0c0.169,0.015 0.332,0.047 0.49,0.112c0.392,0.162 0.702,0.491 0.842,0.891c0.047,0.134 0.082,0.411 0.082,0.411l0.013,9.584l1.391,0l2.142,-8.364c0,0 0.086,-0.265 0.157,-0.388c0.184,-0.317 0.484,-0.56 0.832,-0.673c0.135,-0.045 0.272,-0.065 0.413,-0.074c0.084,0 0.084,0 0.168,0.004c0.197,0.02 0.386,0.067 0.564,0.157c0.429,0.218 0.734,0.641 0.805,1.117c0.025,0.169 -0.011,0.503 -0.011,0.503l-2.472,9.936l0,3.224c0,0.412 0.252,0.782 0.636,0.932c0.383,0.15 0.82,0.049 1.099,-0.253c0.435,-0.472 0.913,-0.99 1.388,-1.504c0.752,-0.815 1.804,-1.288 2.913,-1.31c1.109,-0.022 2.179,0.408 2.964,1.193c0,0 0,0 0,0c0,0 -6.038,6.038 -9.364,9.364c-1.368,1.368 -3.223,2.136 -5.157,2.136c-0.148,0 -0.3,0 -0.454,0c-2.394,0 -4.689,-0.951 -6.382,-2.643c-1.692,-1.693 -2.643,-3.988 -2.643,-6.382l0,-2.077c-1.003,-2.965 -1.933,-5.955 -2.923,-8.924c-0.057,-0.19 -0.087,-0.382 -0.073,-0.581c0.038,-0.539 0.375,-1.027 0.865,-1.255c0.181,-0.083 0.371,-0.124 0.569,-0.137c0.084,-0.001 0.084,-0.001 0.168,0.002c0.113,0.011 0.222,0.028 0.331,0.061c0.296,0.09 0.56,0.273 0.75,0.518c0.086,0.112 0.207,0.364 0.207,0.364l2.391,7.054l1.625,0l-2.365,-9.636c0,0 -0.054,-0.331 -0.038,-0.501c0.046,-0.509 0.359,-0.969 0.815,-1.201c0.178,-0.09 0.366,-0.137 0.563,-0.157c0.084,-0.005 0.084,-0.005 0.169,-0.004c0.141,0.009 0.278,0.029 0.412,0.073c0.322,0.105 0.602,0.32 0.788,0.602c0.078,0.119 0.179,0.379 0.179,0.379l2.377,9.445l1.159,0Z"/>
            </clipPath>
            <g clip-path="url(#_clip2)">
                <path id="_-Curve-" serif:id="(Curve)" d="M24.052,15.001c0.165,0.015 0.32,0.056 0.463,0.142c0.08,0.048 0.153,0.107 0.216,0.175c0.242,0.259 0.329,0.636 0.225,0.974c-0.048,0.16 -0.136,0.294 -0.249,0.415l-6.204,6.204c-0.252,-0.25 -0.502,-0.501 -0.756,-0.749c-0.046,-0.043 -0.093,-0.084 -0.141,-0.124c-0.211,-0.169 -0.441,-0.307 -0.694,-0.404c-0.662,-0.256 -1.416,-0.219 -2.05,0.1c-0.224,0.112 -0.426,0.258 -0.609,0.428c-0.69,0.673 -1.364,1.363 -2.046,2.045c-0.121,0.113 -0.255,0.201 -0.415,0.249c-0.111,0.034 -0.228,0.049 -0.344,0.043c-0.403,-0.021 -0.762,-0.292 -0.894,-0.673c-0.037,-0.11 -0.056,-0.227 -0.054,-0.343c0.003,-0.164 0.046,-0.325 0.125,-0.468c0.035,-0.062 0.076,-0.116 0.12,-0.171c0.661,-0.708 1.368,-1.372 2.053,-2.057c0.319,-0.311 0.673,-0.579 1.067,-0.789c0.987,-0.527 2.155,-0.67 3.24,-0.397c0.468,0.117 0.906,0.311 1.316,0.563l4.872,-4.871c0.051,-0.048 0.103,-0.093 0.162,-0.132c0.14,-0.09 0.294,-0.137 0.458,-0.157c0.07,-0.004 0.069,-0.004 0.139,-0.003Z" style="fill:#a90eb1;fill-rule:nonzero;"/>
            </g>
        </g>
    </g>
</svg>
