<?xml version="1.0" encoding="UTF-8" standalone="no"?>
<!DOCTYPE svg PUBLIC "-//W3C//DTD SVG 1.1//EN" "http://www.w3.org/Graphics/SVG/1.1/DTD/svg11.dtd">
<svg width="100%" height="100%" viewBox="0 0 32 32" version="1.1" xmlns="http://www.w3.org/2000/svg" xmlns:xlink="http://www.w3.org/1999/xlink" xml:space="preserve" xmlns:serif="http://www.serif.com/" style="fill-rule:evenodd;clip-rule:evenodd;stroke-linejoin:round;stroke-miterlimit:2;">
    <rect id="index_finger--hmn-" serif:id="index_finger [hmn]" x="0" y="0" width="32" height="32" style="fill:none;"/>
    <clipPath id="_clip1">
        <rect x="0" y="0" width="32" height="32"/>
    </clipPath>
    <g clip-path="url(#_clip1)">
        <g id="outline">
            <path d="M16.968,9.033c0.001,-1.873 0.01,-3.747 0.033,-5.62c0.014,-0.374 0.078,-0.741 0.204,-1.093c0.34,-0.951 1.093,-1.722 2.035,-2.086c0.376,-0.145 0.771,-0.218 1.173,-0.233c0.087,-0.001 0.087,-0.001 0.174,0c0.402,0.015 0.797,0.088 1.173,0.233c0.536,0.207 1.017,0.547 1.392,0.982c0.298,0.346 0.527,0.751 0.671,1.185c0.116,0.351 0.172,0.717 0.177,1.087l0,13.284c0.077,0.044 0.076,0.045 0.156,0.095l0.117,0.077c0.188,0.135 0.368,0.278 0.533,0.441c0.489,0.482 0.85,1.088 1.039,1.748c0.091,0.315 0.136,0.635 0.153,0.962c0.016,0.909 0.007,1.818 0.001,2.727c-0.005,0.307 -0.022,0.613 -0.056,0.918c-0.076,0.678 -0.227,1.348 -0.45,1.994c-0.271,0.787 -0.648,1.537 -1.118,2.223c-0.411,0.6 -0.892,1.151 -1.431,1.639c-1.324,1.199 -2.989,1.999 -4.752,2.285c-0.377,0.061 -0.757,0.098 -1.139,0.113c-0.344,0.012 -0.691,0.006 -1.035,0.006c-1.107,-0.001 -2.213,-0.167 -3.271,-0.496c-1.15,-0.358 -2.24,-0.907 -3.213,-1.617c-1.757,-1.281 -3.117,-3.079 -3.864,-5.121c-0.283,-0.771 -0.478,-1.574 -0.582,-2.389c-0.053,-0.418 -0.079,-0.838 -0.087,-1.26l-0.001,-0.117l0,0l0,-0.029c-0.003,-0.567 -0.004,-1.134 -0.004,-1.701c-0.007,-1.952 -0.019,-3.904 0.005,-5.857c0.014,-0.374 0.078,-0.741 0.204,-1.094c0.154,-0.43 0.393,-0.829 0.7,-1.168c0.405,-0.447 0.924,-0.785 1.496,-0.974c0.383,-0.127 0.782,-0.181 1.186,-0.176c0.423,0.016 0.837,0.097 1.229,0.256c0.378,-0.452 0.868,-0.808 1.424,-1.022c0.376,-0.146 0.771,-0.219 1.173,-0.234c0.087,-0.001 0.087,-0.001 0.174,0c0.402,0.015 0.797,0.088 1.173,0.234c0.262,0.101 0.51,0.233 0.74,0.393c0.276,-0.192 0.58,-0.345 0.901,-0.451c0.383,-0.127 0.782,-0.181 1.186,-0.176c0.128,0.005 0.255,0.015 0.381,0.032Z"/>
        </g>
        <g id="emoji">
            <path d="M22.894,18.447c0.678,0.339 1.106,1.032 1.106,1.789c0,0.657 0,1.524 0,2.471c0,1.934 -0.768,3.789 -2.136,5.157c-1.368,1.368 -3.223,2.136 -5.157,2.136c-0.226,0 -0.454,0 -0.682,0c-4.984,0 -9.025,-4.041 -9.025,-9.025l0,-7.475l1.5,0l0,-1.5l12,0l0,0.499l1.5,0l0,5.501c0,0 0.432,0.216 0.894,0.447Z" style="fill:#f10dc3;"/>
            <clipPath id="_clip2">
                <path d="M22.894,18.447c0.678,0.339 1.106,1.032 1.106,1.789c0,0.657 0,1.524 0,2.471c0,1.934 -0.768,3.789 -2.136,5.157c-1.368,1.368 -3.223,2.136 -5.157,2.136c-0.226,0 -0.454,0 -0.682,0c-4.984,0 -9.025,-4.041 -9.025,-9.025l0,-7.475l1.5,0l0,-1.5l12,0l0,0.499l1.5,0l0,5.501c0,0 0.432,0.216 0.894,0.447Z"/>
            </clipPath>
            <g clip-path="url(#_clip2)">
                <path d="M15.546,20.001c0.133,0.009 0.262,0.038 0.383,0.096c0.354,0.168 0.581,0.538 0.571,0.929c-0.004,0.134 -0.036,0.262 -0.089,0.385c-0.651,1.371 -1.33,2.728 -2.035,4.071c-0.08,0.139 -0.186,0.259 -0.319,0.349c-0.302,0.202 -0.7,0.223 -1.022,0.054c-0.094,-0.049 -0.18,-0.113 -0.254,-0.189c-0.083,-0.086 -0.15,-0.187 -0.198,-0.296c-0.053,-0.122 -0.081,-0.254 -0.083,-0.386c-0.002,-0.148 0.031,-0.29 0.089,-0.425c0.651,-1.371 1.33,-2.728 2.035,-4.071c0.121,-0.21 0.303,-0.373 0.532,-0.457c0.075,-0.027 0.152,-0.044 0.231,-0.055c0.053,-0.005 0.106,-0.006 0.159,-0.005Z" style="fill:#a90eb1;fill-rule:nonzero;"/>
                <path d="M8.5,13.5l0,-2.5l12,0l0,1.5l2.5,0l0,5.499l-8,0.001l0,0.506c-0.004,0.327 -0.065,0.648 -0.19,0.951c-0.086,0.207 -0.2,0.403 -0.338,0.58c-0.483,0.619 -1.248,0.982 -2.034,0.962c-0.286,-0.007 -0.571,-0.063 -0.838,-0.167c-0.286,-0.11 -0.551,-0.273 -0.778,-0.479c-0.243,-0.22 -0.442,-0.488 -0.582,-0.785c-0.031,-0.064 -0.058,-0.13 -0.083,-0.196c-0.501,0.442 -1.173,0.671 -1.843,0.621c-0.224,-0.017 -0.446,-0.064 -0.657,-0.139c-0.288,-0.104 -0.557,-0.26 -0.789,-0.46c-0.248,-0.214 -0.454,-0.478 -0.602,-0.771c-0.099,-0.198 -0.17,-0.408 -0.214,-0.623l-0.052,0l0,-0.496c-0.016,-1.334 -0.016,-2.669 0,-4.004l2.5,0Z" style="fill:#640082;"/>
            </g>
            <path d="M11,12.5c0,-0.398 0.158,-0.779 0.439,-1.061c0.282,-0.281 0.663,-0.439 1.061,-0.439c0.398,0 0.779,0.158 1.061,0.439c0.281,0.282 0.439,0.663 0.439,1.061c0,1.665 0,4.335 0,6c0,0.398 -0.158,0.779 -0.439,1.061c-0.282,0.281 -0.663,0.439 -1.061,0.439c-0.398,0 -0.779,-0.158 -1.061,-0.439c-0.281,-0.282 -0.439,-0.663 -0.439,-1.061c0,-1.665 0,-4.335 0,-6Zm-4,1c0,-0.398 0.158,-0.779 0.439,-1.061c0.282,-0.281 0.663,-0.439 1.061,-0.439c0.398,0 0.779,0.158 1.061,0.439c0.281,0.282 0.439,0.663 0.439,1.061c0,1.181 0,2.819 0,4c0,0.398 -0.158,0.779 -0.439,1.061c-0.282,0.281 -0.663,0.439 -1.061,0.439c-0.398,0 -0.779,-0.158 -1.061,-0.439c-0.281,-0.282 -0.439,-0.663 -0.439,-1.061c0,-1.181 0,-2.819 0,-4Zm15,-10c0,-0.828 -0.672,-1.5 -1.5,-1.5c-0.828,0 -1.5,0.672 -1.5,1.5c0,3.613 0,12.5 0,12.5l3,0l0,-12.5Zm-4,12.499l-3,0l0,-3.5c0,-0.397 0.158,-0.779 0.439,-1.06c0.282,-0.282 0.663,-0.44 1.061,-0.44c0.398,0 0.779,0.158 1.061,0.44c0.281,0.281 0.439,0.663 0.439,1.06l0,3.5Z" style="fill:#f10dc3;"/>
            <path d="M22,18l-6.874,0c0.02,0.08 0.044,0.158 0.069,0.237c0.127,0.384 0.308,0.748 0.542,1.078c0.505,0.71 1.241,1.247 2.073,1.505c0.369,0.115 0.752,0.172 1.138,0.18l0.469,0.003l2.29,2.29l-1.414,1.414l-1.722,-1.722c-0.112,-0.008 -0.223,-0.02 -0.334,-0.033c-0.735,-0.098 -1.445,-0.322 -2.098,-0.677c-1.319,-0.717 -2.342,-1.928 -2.824,-3.351c-0.209,-0.619 -0.311,-1.268 -0.315,-1.921l0,-1.003l9,0l0,2Z" style="fill:#640082;fill-rule:nonzero;"/>
        </g>
    </g>
</svg>
