<?xml version="1.0" encoding="UTF-8" standalone="no"?>
<!DOCTYPE svg PUBLIC "-//W3C//DTD SVG 1.1//EN" "http://www.w3.org/Graphics/SVG/1.1/DTD/svg11.dtd">
<svg width="100%" height="100%" viewBox="0 0 32 32" version="1.1" xmlns="http://www.w3.org/2000/svg" xmlns:xlink="http://www.w3.org/1999/xlink" xml:space="preserve" xmlns:serif="http://www.serif.com/" style="fill-rule:evenodd;clip-rule:evenodd;stroke-linejoin:round;stroke-miterlimit:2;">
    <rect id="metal--hmn-" serif:id="metal [hmn]" x="0" y="0" width="32" height="32" style="fill:none;"/>
    <clipPath id="_clip1">
        <rect x="0" y="0" width="32" height="32"/>
    </clipPath>
    <g clip-path="url(#_clip1)">
        <g id="outline">
            <path d="M17.967,9.033c0.001,-1.873 0.01,-3.746 0.034,-5.62c0.014,-0.373 0.078,-0.74 0.204,-1.093c0.34,-0.95 1.093,-1.721 2.035,-2.085c0.376,-0.145 0.771,-0.218 1.173,-0.233c0.087,-0.002 0.087,-0.002 0.174,0c0.402,0.015 0.797,0.088 1.173,0.233c0.455,0.176 0.871,0.446 1.215,0.791c0.385,0.384 0.677,0.859 0.848,1.375c0.116,0.352 0.173,0.718 0.177,1.088l0,13.283c0.077,0.044 0.076,0.045 0.156,0.095l0.117,0.077c0.188,0.135 0.368,0.278 0.533,0.441c0.489,0.482 0.85,1.088 1.039,1.748c0.091,0.315 0.135,0.635 0.153,0.961c0.016,0.91 0.007,1.819 0.001,2.729c-0.005,0.306 -0.022,0.612 -0.056,0.917c-0.076,0.678 -0.227,1.348 -0.45,1.994c-0.271,0.787 -0.648,1.537 -1.118,2.223c-0.411,0.6 -0.892,1.151 -1.431,1.639c-1.323,1.199 -2.989,1.999 -4.752,2.285c-0.377,0.061 -0.757,0.098 -1.139,0.113c-0.344,0.012 -0.691,0.006 -1.035,0.006c-1.107,-0.001 -2.213,-0.167 -3.271,-0.496c-1.066,-0.332 -2.08,-0.827 -2.997,-1.463c-1.86,-1.289 -3.302,-3.149 -4.08,-5.275c-0.283,-0.771 -0.478,-1.574 -0.582,-2.389c-0.053,-0.418 -0.079,-0.838 -0.087,-1.26c-0.006,-0.967 -0.005,-1.934 -0.003,-2.901c-0.203,-0.601 -0.403,-1.204 -0.602,-1.807c-0.577,-1.766 -1.145,-3.535 -1.721,-5.301c-0.17,-0.516 -0.34,-1.031 -0.51,-1.546l-0.043,-0.149c-0.037,-0.153 -0.071,-0.305 -0.091,-0.461c-0.042,-0.311 -0.041,-0.627 0.002,-0.938c0.125,-0.883 0.595,-1.701 1.292,-2.256c0.24,-0.19 0.505,-0.349 0.786,-0.471c0.287,-0.124 0.593,-0.209 0.903,-0.251c0.097,-0.013 0.238,-0.03 0.331,-0.034c0.069,-0.003 0.138,-0.001 0.207,-0.001c0.068,0.002 0.136,0.004 0.204,0.007c0.124,0.014 0.246,0.027 0.368,0.049c0.178,0.032 0.353,0.077 0.524,0.136c0.68,0.237 1.282,0.685 1.699,1.272c0.164,0.229 0.29,0.478 0.404,0.735c0.145,0.4 0.289,0.801 0.432,1.203c0.216,0.615 0.429,1.23 0.638,1.847c0.396,-0.47 0.914,-0.836 1.499,-1.045c0.353,-0.127 0.72,-0.19 1.093,-0.204c0.087,-0.001 0.087,-0.001 0.174,0c0.402,0.015 0.797,0.088 1.173,0.234c0.262,0.101 0.511,0.234 0.741,0.394c0.228,-0.16 0.476,-0.293 0.739,-0.394c0.376,-0.146 0.771,-0.219 1.173,-0.234c0.087,-0.001 0.087,-0.001 0.174,0c0.128,0.005 0.254,0.015 0.38,0.032Z"/>
        </g>
        <g id="emoji">
            <path d="M23.894,18.447c0.678,0.339 1.106,1.032 1.106,1.789c0,0.657 0,1.524 0,2.471c0,1.934 -0.768,3.789 -2.136,5.157c-1.368,1.368 -3.223,2.136 -5.157,2.136c-0.226,0 -0.454,0 -0.682,0c-4.984,0 -9.025,-4.041 -9.025,-9.025l0,-8.975l15,0l0,6c0,0 0.432,0.216 0.894,0.447Z" style="fill:#f10dc3;"/>
            <clipPath id="_clip2">
                <path d="M23.894,18.447c0.678,0.339 1.106,1.032 1.106,1.789c0,0.657 0,1.524 0,2.471c0,1.934 -0.768,3.789 -2.136,5.157c-1.368,1.368 -3.223,2.136 -5.157,2.136c-0.226,0 -0.454,0 -0.682,0c-4.984,0 -9.025,-4.041 -9.025,-9.025l0,-8.975l15,0l0,6c0,0 0.432,0.216 0.894,0.447Z"/>
            </clipPath>
            <g clip-path="url(#_clip2)">
                <path d="M16.546,20.001c0.133,0.009 0.262,0.038 0.383,0.096c0.354,0.168 0.581,0.538 0.571,0.929c-0.004,0.134 -0.036,0.262 -0.089,0.385c-0.651,1.371 -1.33,2.728 -2.035,4.071c-0.074,0.128 -0.168,0.239 -0.287,0.326c-0.107,0.078 -0.23,0.135 -0.359,0.165c-0.116,0.028 -0.237,0.034 -0.355,0.019c-0.106,-0.013 -0.209,-0.043 -0.304,-0.089c-0.328,-0.156 -0.55,-0.487 -0.57,-0.85c-0.008,-0.161 0.024,-0.317 0.088,-0.464c0.651,-1.371 1.33,-2.728 2.035,-4.071c0.04,-0.07 0.085,-0.135 0.139,-0.194c0.164,-0.179 0.385,-0.286 0.624,-0.318c0.053,-0.005 0.106,-0.006 0.159,-0.005Z" style="fill:#a90eb1;fill-rule:nonzero;"/>
                <path d="M6,11l18,0l0,7l-8,0l0,0.5c0,0.663 -0.263,1.299 -0.732,1.768c-0.469,0.469 -1.105,0.732 -1.768,0.732c-0.663,0 -1.299,-0.263 -1.768,-0.732c-0.469,-0.469 -0.732,-1.105 -0.732,-1.768l0,-0.5l-2,0l0,-2l-3,0l0,-5Z" style="fill:#640082;"/>
            </g>
            <path d="M11,21l-1.914,0c-1.446,-3.97 -2.673,-8.017 -4.009,-12.026c-0.058,-0.19 -0.088,-0.381 -0.074,-0.58c0.039,-0.54 0.375,-1.028 0.866,-1.255c0.181,-0.084 0.371,-0.124 0.569,-0.138c0.084,-0.001 0.084,-0.001 0.168,0.003c0.112,0.011 0.222,0.028 0.33,0.061c0.296,0.09 0.561,0.273 0.75,0.517c0.087,0.113 0.152,0.235 0.208,0.365c1.116,3.06 2.101,6.165 3.106,9.264l0,3.789Zm1,-8.5c0,-0.398 0.158,-0.779 0.439,-1.061c0.282,-0.281 0.663,-0.439 1.061,-0.439c0.398,0 0.779,0.158 1.061,0.439c0.281,0.282 0.439,0.663 0.439,1.061c0,1.665 0,4.335 0,6c0,0.398 -0.158,0.779 -0.439,1.061c-0.282,0.281 -0.663,0.439 -1.061,0.439c-0.398,0 -0.779,-0.158 -1.061,-0.439c-0.281,-0.282 -0.439,-0.663 -0.439,-1.061c0,-1.665 0,-4.335 0,-6Zm11,3.501l-3,0c0,0 0,-8.888 0,-12.5c0,-0.829 0.672,-1.5 1.5,-1.5c0.828,0 1.5,0.671 1.5,1.5l0,12.5Zm-4,-0.002l-3,0l0,-3.5c0,-0.397 0.158,-0.779 0.439,-1.06c0.282,-0.282 0.663,-0.44 1.061,-0.44c0.398,0 0.779,0.158 1.061,0.44c0.281,0.281 0.439,0.663 0.439,1.06l0,3.5Z" style="fill:#f10dc3;"/>
            <path d="M23,18l-6.874,0c0.02,0.08 0.044,0.158 0.069,0.237c0.127,0.384 0.308,0.748 0.542,1.078c0.505,0.71 1.241,1.247 2.073,1.505c0.369,0.115 0.752,0.172 1.138,0.18l0.469,0.003l2.29,2.29l-1.414,1.414l-1.722,-1.722c-0.112,-0.008 -0.223,-0.02 -0.334,-0.033c-0.735,-0.098 -1.445,-0.322 -2.098,-0.677c-1.319,-0.717 -2.342,-1.928 -2.824,-3.351c-0.209,-0.619 -0.311,-1.268 -0.315,-1.921l0,-1.003l9,0l0,2Z" style="fill:#640082;fill-rule:nonzero;"/>
        </g>
    </g>
</svg>
