<?xml version="1.0" encoding="UTF-8" standalone="no"?>
<!DOCTYPE svg PUBLIC "-//W3C//DTD SVG 1.1//EN" "http://www.w3.org/Graphics/SVG/1.1/DTD/svg11.dtd">
<svg width="100%" height="100%" viewBox="0 0 32 32" version="1.1" xmlns="http://www.w3.org/2000/svg" xmlns:xlink="http://www.w3.org/1999/xlink" xml:space="preserve" xmlns:serif="http://www.serif.com/" style="fill-rule:evenodd;clip-rule:evenodd;stroke-linecap:round;stroke-miterlimit:2;">
    <rect id="muscle--hmn-" serif:id="muscle [hmn]" x="0" y="0" width="32" height="32" style="fill:none;"/>
    <clipPath id="_clip1">
        <rect x="0" y="0" width="32" height="32"/>
    </clipPath>
    <g clip-path="url(#_clip1)">
        <g id="outline">
            <path d="M15.489,16.34c2.765,-1.119 5.851,-1.391 8.85,-0.699c3.115,0.719 6.111,1.41 6.111,1.41c0.907,0.21 1.55,1.018 1.55,1.949l0,8c0,0.834 -0.517,1.58 -1.298,1.873c0,0 -1.424,0.534 -3.07,1.151c-3.485,1.307 -7.175,1.976 -10.897,1.976l0,0c-5.417,0 -10.74,-1.414 -15.443,-4.101c-0.181,-0.104 -0.284,-0.163 -0.284,-0.163c-0.623,-0.356 -1.008,-1.018 -1.008,-1.736c0,0 0,-1.702 0,-3.626c0,-3.899 1.156,-7.711 3.322,-10.953l3.732,-5.586c0.39,-0.584 0.927,-1.056 1.558,-1.366c1.395,-0.687 5.5,-2.711 7.997,-3.941c2.074,-1.021 4.584,-0.263 5.744,1.736c0.698,1.204 1.599,2.757 2.326,4.011c0.612,1.054 0.758,2.316 0.403,3.482c-0.355,1.166 -1.179,2.132 -2.275,2.667c-0.422,0.205 -0.85,0.414 -1.236,0.602c-1.542,0.753 -3.375,0.58 -4.75,-0.448l-0.202,-0.151l-1.373,0.686l-0.071,0.32c-0.087,0.388 -0.091,0.79 -0.013,1.18c0.072,0.36 0.157,0.785 0.245,1.222c0.033,0.168 0.061,0.336 0.082,0.505Z"/>
        </g>
        <g id="emoji">
            <path d="M22.836,7.082l-0.336,0.722l-4.872,2.196l-0.8,0.086l-0.948,0.474l-0.621,-0.06l-0.274,0.507l-0.92,0.461l-2.065,0.532l1.169,1.277c-0.093,0.573 -0.082,1.158 0.032,1.728c0.072,0.36 0.157,0.785 0.244,1.222c0.126,0.628 0.135,1.264 0.035,1.878l-1.98,2.895l0.5,0.5l4.209,-3.295c2.399,-0.977 5.078,-1.216 7.68,-0.615c3.115,0.719 6.111,1.41 6.111,1.41l0,8c0,0 -1.424,0.534 -3.071,1.152c-3.259,1.222 -6.712,1.848 -10.194,1.848l0,0c-5.069,0 -10.05,-1.323 -14.451,-3.838c-0.181,-0.103 -0.284,-0.162 -0.284,-0.162l0,-3.626c0,-3.504 1.039,-6.929 2.985,-9.842c1.478,-2.212 3.082,-4.614 3.732,-5.586c0.195,-0.292 0.464,-0.528 0.779,-0.683c1.395,-0.687 5.5,-2.71 7.997,-3.941c1.13,-0.557 2.498,-0.143 3.13,0.946l2.213,3.814Zm0.389,0.924c0.078,0.384 0.06,0.785 -0.056,1.168c-0.194,0.635 -0.642,1.161 -1.239,1.452c-0.422,0.206 -0.85,0.415 -1.235,0.603c-0.869,0.423 -1.902,0.326 -2.676,-0.253l-0.295,-0.22l0.154,-0.519l4.725,-2.317l0.622,0.086Z" style="fill:#f10dc3;"/>
            <path d="M13.709,8.455l0.894,-0.448l1.277,2.553l-0.895,0.447l-1.276,-2.552Zm3.119,1.631l0.663,-0.331l-1.277,-2.553c0.299,-0.149 0.597,-0.298 0.895,-0.447l1.276,2.552l1.611,-0.805l-1.276,-2.553c0.298,-0.149 0.596,-0.298 0.894,-0.447l1.277,2.553l1.945,-0.973l0.113,0.196c0.133,0.228 0.225,0.474 0.276,0.728l-5.501,2.75l-0.896,-0.67Z" style="fill:#640082;"/>
            <path d="M13.169,13.277l-2.486,-0.829c-0.251,-0.083 -0.459,-0.264 -0.578,-0.501c-0.118,-0.237 -0.138,-0.511 -0.054,-0.762c0,-0.001 0,-0.002 0.001,-0.002c0.083,-0.252 0.264,-0.459 0.501,-0.578c0.237,-0.118 0.511,-0.138 0.762,-0.054l2.75,0.917l-0.33,0.164c-0.149,0.075 -0.256,0.212 -0.292,0.375c-0.054,0.244 -0.139,0.627 -0.221,0.992c-0.02,0.093 -0.038,0.185 -0.053,0.278Z" style="fill:#a90eb1;"/>
            <path d="M13.48,18.105c-0.174,1.082 -0.683,2.098 -1.48,2.895l0.001,-0.001c1.221,-1.221 2.656,-2.162 4.208,-2.794l-4.003,4.003c-0.39,0.39 -1.022,0.39 -1.412,0c-0.001,0 -0.001,-0.001 -0.001,-0.001c-0.188,-0.187 -0.293,-0.442 -0.293,-0.707c0,-0.265 0.105,-0.52 0.293,-0.707l2.687,-2.688Z" style="fill:#a90eb1;"/>
            <path d="M15.5,24.5c0,0 0,0 0,0c2.728,1.273 5.868,1.329 8.639,0.153c0.225,-0.095 0.361,-0.153 0.361,-0.153" style="fill:none;stroke:#a90eb1;stroke-width:2px;"/>
        </g>
    </g>
</svg>
