<?xml version="1.0" encoding="UTF-8" standalone="no"?><!DOCTYPE svg PUBLIC "-//W3C//DTD SVG 1.1//EN" "http://www.w3.org/Graphics/SVG/1.1/DTD/svg11.dtd"><svg width="100%" height="100%" viewBox="0 0 32 32" version="1.1" xmlns="http://www.w3.org/2000/svg" xmlns:xlink="http://www.w3.org/1999/xlink" xml:space="preserve" xmlns:serif="http://www.serif.com/" style="fill-rule:evenodd;clip-rule:evenodd;stroke-linejoin:round;stroke-miterlimit:1.41421;"><rect id="muscle--hmn-" serif:id="muscle [hmn]" x="0" y="0" width="32" height="32" style="fill:none;"/><g id="outline"><path d="M17.212,2.685c0.362,0.014 0.718,0.067 1.064,0.173c0.721,0.221 1.372,0.647 1.864,1.218c0.193,0.225 0.356,0.47 0.498,0.73c0.588,1.139 1.147,2.292 1.721,3.439c0.189,0.392 0.321,0.807 0.38,1.24c0.1,0.735 -0.009,1.494 -0.313,2.172c-0.192,0.429 -0.461,0.824 -0.789,1.16c-0.235,0.241 -0.499,0.451 -0.786,0.625c-0.117,0.071 -0.237,0.133 -0.359,0.193c-0.339,0.156 -0.681,0.308 -1.024,0.456c-0.333,0.133 -0.676,0.229 -1.033,0.274c-0.746,0.095 -1.514,-0.027 -2.196,-0.345c-0.284,-0.133 -0.547,-0.301 -0.795,-0.493l-0.01,-0.008l-0.962,0.481l-1.472,0l0,3.14c0.111,-0.069 0.111,-0.068 0.223,-0.135c0.271,-0.158 0.546,-0.308 0.829,-0.444c0.558,-0.269 1.139,-0.49 1.735,-0.661c1.837,-0.527 3.804,-0.565 5.66,-0.109c0.547,0.134 1.084,0.311 1.603,0.527c0.232,0.097 0.458,0.203 0.683,0.313l6.267,3.133l0,8.002l-15.958,1.994c-0.34,0.04 -0.679,0.063 -1.021,0.061c-0.733,-0.003 -1.465,-0.108 -2.17,-0.31c-0.47,-0.135 -0.923,-0.316 -1.362,-0.53l-7.489,-3.745l0,-5.47c0.002,-0.138 0.002,-0.137 0.007,-0.275c0.02,-0.335 0.059,-0.667 0.131,-0.995c0.061,-0.282 0.145,-0.556 0.242,-0.827c1.137,-2.944 2.309,-5.875 3.516,-8.791c0.073,-0.167 0.154,-0.329 0.248,-0.486c0.232,-0.388 0.531,-0.736 0.88,-1.025c0.211,-0.175 0.439,-0.323 0.68,-0.454c2.552,-1.313 5.119,-2.598 7.702,-3.851c0.239,-0.109 0.485,-0.199 0.741,-0.262c0.254,-0.063 0.512,-0.097 0.772,-0.113c0.098,-0.003 0.195,-0.004 0.293,-0.002Z" style="fill-rule:nonzero;"/></g><g id="emoji"><path d="M11,12l0,9c0,0 1.191,-0.851 2.591,-1.85c2.712,-1.938 6.274,-2.218 9.256,-0.727c2.55,1.275 5.153,2.577 5.153,2.577l0,5c0,0 -10.014,1.252 -14.197,1.775c-1.176,0.147 -2.368,-0.058 -3.428,-0.587c-2.338,-1.17 -6.375,-3.188 -6.375,-3.188c0,0 0,-2.816 0,-4.222c0,-0.514 0.098,-1.023 0.289,-1.501c0.74,-1.85 2.696,-6.739 3.429,-8.571c0.182,-0.455 0.524,-0.827 0.962,-1.046c1.53,-0.765 5.282,-2.641 7.531,-3.766c0.475,-0.237 1.024,-0.276 1.527,-0.108c0.503,0.168 0.919,0.528 1.156,1.003l1.482,2.964l-0.041,0.417l-3.967,1.919l-0.304,-0.143l-0.854,0.422l-1.223,0.611l-0.105,0.021l-2.882,0Zm9.747,-2.314c0.057,0.336 0.028,0.685 -0.089,1.012c-0.185,0.514 -0.571,0.93 -1.071,1.152c-0.279,0.124 -0.565,0.251 -0.841,0.374c-0.778,0.346 -1.664,0.155 -2.234,-0.421l0,-0.474l3.864,-1.924l0.371,0.281Z" style="fill:#f10dc3;"/><clipPath id="_clip1"><path d="M11,12l0,9c0,0 1.191,-0.851 2.591,-1.85c2.712,-1.938 6.274,-2.218 9.256,-0.727c2.55,1.275 5.153,2.577 5.153,2.577l0,5c0,0 -10.014,1.252 -14.197,1.775c-1.176,0.147 -2.368,-0.058 -3.428,-0.587c-2.338,-1.17 -6.375,-3.188 -6.375,-3.188c0,0 0,-2.816 0,-4.222c0,-0.514 0.098,-1.023 0.289,-1.501c0.74,-1.85 2.696,-6.739 3.429,-8.571c0.182,-0.455 0.524,-0.827 0.962,-1.046c1.53,-0.765 5.282,-2.641 7.531,-3.766c0.475,-0.237 1.024,-0.276 1.527,-0.108c0.503,0.168 0.919,0.528 1.156,1.003l1.482,2.964l-0.041,0.417l-3.967,1.919l-0.304,-0.143l-0.854,0.422l-1.223,0.611l-0.105,0.021l-2.882,0Zm9.747,-2.314c0.057,0.336 0.028,0.685 -0.089,1.012c-0.185,0.514 -0.571,0.93 -1.071,1.152c-0.279,0.124 -0.565,0.251 -0.841,0.374c-0.778,0.346 -1.664,0.155 -2.234,-0.421l0,-0.474l3.864,-1.924l0.371,0.281Z"/></clipPath><g clip-path="url(#_clip1)"><path d="M23.036,21.001c0.17,0.01 0.331,0.053 0.479,0.142c0.343,0.205 0.533,0.608 0.474,1.004c-0.014,0.093 -0.04,0.183 -0.079,0.268c-0.055,0.119 -0.133,0.228 -0.228,0.317c-0.112,0.103 -0.242,0.174 -0.385,0.223c-0.491,0.137 -0.989,0.249 -1.483,0.372c-0.345,0.084 -0.693,0.157 -1.045,0.211c-0.76,0.117 -1.532,0.158 -2.301,0.123c-0.713,-0.033 -1.417,-0.136 -2.112,-0.293c-0.534,-0.129 -1.066,-0.265 -1.599,-0.398c-0.2,-0.056 -0.379,-0.16 -0.516,-0.319c-0.073,-0.085 -0.132,-0.183 -0.173,-0.287c-0.123,-0.318 -0.074,-0.686 0.129,-0.959c0.055,-0.075 0.121,-0.143 0.196,-0.199c0.104,-0.08 0.223,-0.139 0.35,-0.172c0.147,-0.04 0.295,-0.04 0.445,-0.016c0.544,0.12 1.081,0.272 1.623,0.403c0.24,0.054 0.481,0.102 0.724,0.14c0.581,0.09 1.171,0.126 1.759,0.108c0.639,-0.02 1.271,-0.108 1.895,-0.248c0.524,-0.127 1.046,-0.26 1.568,-0.391c0.056,-0.012 0.055,-0.012 0.111,-0.021c0.056,-0.006 0.111,-0.009 0.168,-0.008Zm-11.018,-3.001c0.139,0.005 0.275,0.034 0.401,0.092c0.385,0.178 0.62,0.591 0.576,1.012c-0.015,0.139 -0.06,0.27 -0.127,0.392c-0.631,1.063 -1.352,2.07 -2.056,3.087c-0.09,0.121 -0.2,0.222 -0.333,0.295c-0.111,0.06 -0.234,0.1 -0.36,0.115c-0.114,0.014 -0.23,0.007 -0.343,-0.018c-0.101,-0.023 -0.198,-0.062 -0.287,-0.115c-0.322,-0.191 -0.513,-0.557 -0.487,-0.93c0.012,-0.163 0.064,-0.316 0.147,-0.456c0.662,-1.03 1.342,-2.05 2.039,-3.057c0.124,-0.168 0.292,-0.297 0.491,-0.364c0.066,-0.022 0.133,-0.036 0.202,-0.046c0.046,-0.005 0.091,-0.007 0.137,-0.007Zm-1.99,-8c0.238,0.01 0.458,0.098 0.638,0.254c0.722,0.664 1.416,1.358 2.08,2.08c0.092,0.106 0.164,0.228 0.207,0.362c0.04,0.125 0.054,0.258 0.043,0.388c-0.01,0.121 -0.042,0.24 -0.095,0.35c-0.045,0.093 -0.104,0.178 -0.174,0.253c-0.262,0.276 -0.668,0.381 -1.031,0.266c-0.144,-0.046 -0.272,-0.124 -0.383,-0.226c-0.696,-0.677 -1.402,-1.346 -2.059,-2.061c-0.092,-0.106 -0.164,-0.228 -0.207,-0.362c-0.109,-0.344 -0.021,-0.729 0.226,-0.991c0.071,-0.075 0.153,-0.138 0.243,-0.188c0.132,-0.073 0.278,-0.113 0.428,-0.123c0.028,-0.002 0.056,-0.002 0.084,-0.002Z" style="fill:#a90eb1;"/></g><path d="M13.882,12l0.447,-0.224l-1.276,-2.552l0.894,-0.448l1.277,2.553l1.105,-0.553l-1.276,-2.552l0.894,-0.448l1.277,2.553l1.105,-0.553l-1.276,-2.552l0.894,-0.448l1.277,2.553l1.152,-0.576l0.188,0.375c0.089,0.178 0.15,0.366 0.183,0.558l-4.235,2.117c-0.145,-0.147 -0.27,-0.318 -0.367,-0.512c-0.087,-0.176 -0.145,-0.291 -0.145,-0.291l-2,1l-0.118,0Z" style="fill:#640082;"/></g></svg>