<?xml version="1.0" encoding="UTF-8" standalone="no"?>
<!DOCTYPE svg PUBLIC "-//W3C//DTD SVG 1.1//EN" "http://www.w3.org/Graphics/SVG/1.1/DTD/svg11.dtd">
<svg width="100%" height="100%" viewBox="0 0 32 32" version="1.1" xmlns="http://www.w3.org/2000/svg" xmlns:xlink="http://www.w3.org/1999/xlink" xml:space="preserve" xmlns:serif="http://www.serif.com/" style="fill-rule:evenodd;clip-rule:evenodd;stroke-linejoin:round;stroke-miterlimit:2;">
    <rect id="muscle--hmn-" serif:id="muscle [hmn]" x="0" y="0" width="32" height="32" style="fill:none;"/>
    <clipPath id="_clip1">
        <rect x="0" y="0" width="32" height="32"/>
    </clipPath>
    <g clip-path="url(#_clip1)">
        <g id="outline">
            <path d="M8.717,6.946c0.195,-0.292 0.464,-0.528 0.779,-0.683c1.395,-0.687 5.5,-2.71 7.997,-3.941c1.13,-0.557 2.498,-0.143 3.13,0.946c0.698,1.204 1.599,2.756 2.326,4.01c0.334,0.575 0.413,1.261 0.22,1.896c-0.194,0.635 -0.642,1.161 -1.239,1.452c-0.422,0.206 -0.85,0.415 -1.235,0.603c-0.869,0.423 -1.902,0.326 -2.676,-0.253c-0.601,-0.449 -1.191,-0.89 -1.191,-0.89c0,0 -2.334,1.167 -3.093,1.546c-0.149,0.075 -0.256,0.212 -0.292,0.375c-0.054,0.244 -0.139,0.627 -0.221,0.992c-0.146,0.66 -0.154,1.343 -0.021,2.006c0.072,0.36 0.157,0.785 0.244,1.222c0.347,1.732 -0.195,3.523 -1.445,4.773c0,0 0,0 0,0c0,0 0,0 0.001,-0.001c3.11,-3.11 7.602,-4.398 11.888,-3.409c3.115,0.719 6.111,1.41 6.111,1.41l0,8c0,0 -1.424,0.534 -3.071,1.152c-3.259,1.222 -6.712,1.848 -10.194,1.848l0,0c-5.069,0 -10.05,-1.323 -14.451,-3.838c-0.181,-0.103 -0.284,-0.162 -0.284,-0.162l0,-3.626c0,-3.504 1.039,-6.929 2.985,-9.842c1.478,-2.212 3.082,-4.614 3.732,-5.586Z" style="fill:none;stroke:#000;stroke-width:4px;"/>
        </g>
        <g id="emoji">
            <path d="M13.169,13.277c-0.093,0.573 -0.082,1.158 0.032,1.728c0.072,0.36 0.157,0.785 0.244,1.222c0.126,0.628 0.135,1.264 0.035,1.878l-1.98,2.895l0.5,0.5l4.209,-3.295c2.399,-0.977 5.078,-1.216 7.68,-0.615c3.115,0.719 6.111,1.41 6.111,1.41l0,8c0,0 -1.424,0.534 -3.071,1.152c-3.259,1.222 -6.712,1.848 -10.194,1.848l0,0c-5.069,0 -10.05,-1.323 -14.451,-3.838c-0.181,-0.103 -0.284,-0.162 -0.284,-0.162l0,-3.626c0,-3.504 1.039,-6.929 2.985,-9.842c1.478,-2.212 3.082,-4.614 3.732,-5.586c0.195,-0.292 0.464,-0.528 0.779,-0.683c1.395,-0.687 5.5,-2.71 7.997,-3.941c1.13,-0.557 2.498,-0.143 3.13,0.946c0.698,1.204 1.599,2.756 2.326,4.01c0.334,0.575 0.413,1.261 0.22,1.896c-0.194,0.635 -0.642,1.161 -1.239,1.452c-0.422,0.206 -0.85,0.415 -1.235,0.603c-0.869,0.423 -1.902,0.326 -2.676,-0.253c-0.601,-0.449 -1.191,-0.89 -1.191,-0.89l-2.763,1.382l-2.065,0.532l1.169,1.277Z" style="fill:#f10dc3;"/>
            <clipPath id="_clip2">
                <path d="M13.169,13.277c-0.093,0.573 -0.082,1.158 0.032,1.728c0.072,0.36 0.157,0.785 0.244,1.222c0.126,0.628 0.135,1.264 0.035,1.878l-1.98,2.895l0.5,0.5l4.209,-3.295c2.399,-0.977 5.078,-1.216 7.68,-0.615c3.115,0.719 6.111,1.41 6.111,1.41l0,8c0,0 -1.424,0.534 -3.071,1.152c-3.259,1.222 -6.712,1.848 -10.194,1.848l0,0c-5.069,0 -10.05,-1.323 -14.451,-3.838c-0.181,-0.103 -0.284,-0.162 -0.284,-0.162l0,-3.626c0,-3.504 1.039,-6.929 2.985,-9.842c1.478,-2.212 3.082,-4.614 3.732,-5.586c0.195,-0.292 0.464,-0.528 0.779,-0.683c1.395,-0.687 5.5,-2.71 7.997,-3.941c1.13,-0.557 2.498,-0.143 3.13,0.946c0.698,1.204 1.599,2.756 2.326,4.01c0.334,0.575 0.413,1.261 0.22,1.896c-0.194,0.635 -0.642,1.161 -1.239,1.452c-0.422,0.206 -0.85,0.415 -1.235,0.603c-0.869,0.423 -1.902,0.326 -2.676,-0.253c-0.601,-0.449 -1.191,-0.89 -1.191,-0.89l-2.763,1.382l-2.065,0.532l1.169,1.277Z"/>
            </clipPath>
            <g clip-path="url(#_clip2)">
                <g>
                    <path d="M14.056,12.019l9.944,-4.972" style="fill:none;stroke:#640082;stroke-width:1px;"/>
                    <path d="M20.667,8.713l-1.5,-3" style="fill:none;stroke:#640082;stroke-width:1px;"/>
                    <path d="M18.162,9.966l-1.5,-3" style="fill:none;stroke:#640082;stroke-width:1px;"/>
                    <path d="M15.656,11.219l-1.5,-3" style="fill:none;stroke:#640082;stroke-width:1px;"/>
                </g>
            </g>
            <path d="M13.169,13.277l-2.486,-0.829c-0.251,-0.083 -0.459,-0.264 -0.578,-0.501c-0.118,-0.237 -0.138,-0.511 -0.054,-0.762c0,-0.001 0,-0.002 0.001,-0.002c0.083,-0.252 0.264,-0.459 0.501,-0.578c0.237,-0.118 0.511,-0.138 0.762,-0.054l2.75,0.917l-0.33,0.164c-0.149,0.075 -0.256,0.212 -0.292,0.375c-0.054,0.244 -0.139,0.627 -0.221,0.992c-0.02,0.093 -0.038,0.185 -0.053,0.278Z" style="fill:#a90eb1;"/>
            <path d="M13.48,18.105c-0.174,1.082 -0.683,2.098 -1.48,2.895l0,0c0,0 0,0 0,0c0,0 0.001,-0.001 0.001,-0.001c1.221,-1.221 2.656,-2.162 4.208,-2.794l-4.003,4.003c-0.39,0.39 -1.022,0.39 -1.412,0c-0.001,0 -0.001,-0.001 -0.001,-0.001c-0.188,-0.187 -0.293,-0.442 -0.293,-0.707c0,-0.265 0.105,-0.52 0.293,-0.707l2.687,-2.688Z" style="fill:#a90eb1;"/>
            <path d="M15.5,24.5c0,0 0,0 0,0c2.728,1.273 5.868,1.329 8.639,0.153c0.225,-0.095 0.361,-0.153 0.361,-0.153" style="fill:none;stroke:#a90eb1;stroke-width:2px;stroke-linecap:round;stroke-linejoin:miter;"/>
        </g>
    </g>
</svg>
