<?xml version="1.0" encoding="UTF-8" standalone="no"?>
<!DOCTYPE svg PUBLIC "-//W3C//DTD SVG 1.1//EN" "http://www.w3.org/Graphics/SVG/1.1/DTD/svg11.dtd">
<svg width="100%" height="100%" viewBox="0 0 32 32" version="1.1" xmlns="http://www.w3.org/2000/svg" xmlns:xlink="http://www.w3.org/1999/xlink" xml:space="preserve" xmlns:serif="http://www.serif.com/" style="fill-rule:evenodd;clip-rule:evenodd;stroke-linecap:square;stroke-miterlimit:2;">
    <rect id="nail_varnish--hmn-" serif:id="nail_varnish [hmn]" x="0" y="0" width="32" height="32" style="fill:none;"/>
    <clipPath id="_clip1">
        <rect x="0" y="0" width="32" height="32"/>
    </clipPath>
    <g clip-path="url(#_clip1)">
        <g id="outline">
            <path d="M0,32l0,-28l16,0l0.5,5.5l10.5,11.5l0,11l-27,0Z" style="fill:none;"/>
            <clipPath id="_clip2">
                <path d="M0,32l0,-28l16,0l0.5,5.5l10.5,11.5l0,11l-27,0Z"/>
            </clipPath>
            <g clip-path="url(#_clip2)">
                <path d="M0,14.171l1.086,-1.085l7.914,-7.914l1.419,1.419l0.057,0.057l0.06,0.063l0.058,0.062l0.059,0.063l0.057,0.064l0.057,0.065l0.055,0.066l0.055,0.066l0.054,0.066l0.057,0.073l0.099,0.13l0.1,0.139l0.096,0.14l0.093,0.143l0.089,0.144l0.085,0.147l0.082,0.15l0.078,0.15l0.075,0.152l0.07,0.154l0.067,0.156l0.063,0.157l0.059,0.159l0.055,0.16l0.051,0.162l0.048,0.163l0.043,0.164l0.04,0.166l0.035,0.166l0.031,0.167l0.027,0.169l0.023,0.163l0.011,0.092l0.009,0.086l0.007,0.083l0.007,0.086l0.006,0.086l0.005,0.086l0.004,0.086l0.002,0.086l0.002,0.086l0,0.085l0,0.096l-0.002,0.098l-0.004,0.094l-0.004,0.095l-0.003,0.057l0.017,0.103l0.021,0.136l0.019,0.138l0.017,0.137l0.015,0.137l0.013,0.137l0.01,0.138l0.009,0.137l0.006,0.139l0.005,0.138l0.002,0.138l0,0.139l0,0.045l4.429,-4.429l1.42,1.42l0.056,0.056l0.059,0.062l0.059,0.063l0.06,0.065l0.056,0.063l0.057,0.064l0.055,0.066l0.055,0.066l0.054,0.066l0.056,0.071l0.1,0.132l0.1,0.139l0.096,0.14l0.093,0.143l0.089,0.145l0.085,0.146l0.082,0.149l0.078,0.151l0.075,0.152l0.07,0.154l0.067,0.156l0.063,0.157l0.059,0.159l0.055,0.16l0.051,0.162l0.048,0.163l0.043,0.164l0.04,0.166l0.035,0.166l0.031,0.167l0.028,0.169l0.022,0.165l0.011,0.09l0.008,0.083l0.008,0.086l0.007,0.086l0.006,0.086l0.005,0.086l0.004,0.086l0.002,0.086l0.002,0.086l0.001,0.085l-0.001,0.098l-0.002,0.096l-0.003,0.094l-0.005,0.095l-0.004,0.057l0.018,0.102l0.021,0.137l0.019,0.138l0.017,0.137l0.015,0.137l0.013,0.137l0.01,0.138l0.009,0.137l0.006,0.139l0.005,0.138l0.002,0.138l0,0.139l0,0.045l0.429,-0.429l1.42,1.42l0.056,0.056l0.059,0.062l0.059,0.063l0.06,0.064l0.057,0.065l0.056,0.063l0.054,0.064l0.056,0.068l0.054,0.066l0.056,0.071l0.1,0.132l0.1,0.139l0.096,0.14l0.093,0.143l0.089,0.145l0.085,0.146l0.082,0.149l0.078,0.151l0.075,0.152l0.07,0.154l0.067,0.156l0.063,0.157l0.059,0.159l0.055,0.16l0.051,0.162l0.048,0.163l0.043,0.164l0.04,0.166l0.035,0.167l0.031,0.166l0.028,0.169l0.022,0.164l0.01,0.089l0.009,0.086l0.008,0.085l0.007,0.086l0.006,0.086l0.005,0.086l0.004,0.086l0.002,0.086l0.002,0.086l0.001,0.085l-0.001,0.098l-0.002,0.096l-0.003,0.094l-0.005,0.095l-0.003,0.057l0.011,0.066l0.02,0.123l0.018,0.125l0.016,0.125l0.015,0.124l0.012,0.124l0.012,0.125l0.009,0.126l0.008,0.125l0.006,0.124l0.004,0.126l0.003,0.126l0.001,0.124l-0.001,0.126l-0.003,0.126l-0.004,0.125l-0.006,0.125l-0.008,0.126l-0.01,0.124l-0.011,0.125l-0.013,0.124l-0.015,0.126l-0.016,0.125l-0.018,0.123l-0.02,0.124l-0.022,0.125l-0.023,0.123l-0.025,0.124l-0.027,0.123l-0.028,0.122l-0.03,0.122l-0.032,0.123l-0.034,0.122l-0.036,0.122l-0.037,0.121l-0.039,0.12l-0.04,0.121l-0.043,0.12l-0.044,0.119l-0.046,0.119l-0.048,0.119l-0.049,0.117l-0.05,0.117l-0.053,0.117l-0.055,0.116l-0.056,0.115l-0.058,0.116l-0.06,0.113l-0.061,0.113l-0.064,0.114l-0.064,0.112l-0.066,0.111l-0.07,0.112l-0.069,0.109l-0.072,0.108l-0.073,0.109l-0.075,0.106l-0.077,0.107l-0.079,0.106l-0.08,0.104l-0.082,0.104l-0.675,0.828l-21.905,0l0,-17.829Zm15.914,13.743l-0.086,0.086l4.086,0l0.032,-0.057l0.034,-0.063l0.034,-0.065l0.032,-0.063l0.031,-0.065l0.031,-0.064l0.029,-0.065l0.028,-0.065l0.028,-0.067l0.026,-0.065l0.026,-0.066l0.025,-0.067l0.023,-0.066l0.022,-0.067l0.022,-0.068l0.021,-0.068l0.02,-0.067l0.019,-0.068l0.017,-0.068l0.017,-0.069l0.017,-0.069l0.014,-0.068l0.014,-0.069l0.013,-0.07l0.013,-0.069l0.01,-0.069l0.011,-0.071l0.009,-0.07l0.008,-0.067l0.007,-0.071l0.007,-0.071l0.005,-0.071l0.005,-0.07l0.003,-0.069l0.002,-0.071l0.002,-0.07l0,-0.07l0,-0.071l-0.001,-0.07l-0.003,-0.069l-0.003,-0.071l-0.005,-0.071l-0.005,-0.07l-0.006,-0.069l-0.007,-0.071l-0.009,-0.071l-0.009,-0.069l-0.01,-0.069l-0.011,-0.07l-0.012,-0.069l-0.013,-0.069l-0.077,-0.382l0.037,-0.358l0.003,-0.041l0.003,-0.039l0.003,-0.039l0.002,-0.042l0.001,-0.042l0.001,-0.04l0,-0.039l0,-0.038l0,-0.037l-0.002,-0.036l0,-0.01l-4.534,4.534Zm-4,-8l-7.914,7.914l0,0.172l4.172,0l6.909,-6.909l0.065,-0.066l0.057,-0.06l0.056,-0.061l0.055,-0.062l0.054,-0.062l0.053,-0.063l0.051,-0.063l0.051,-0.065l0.048,-0.064l0.048,-0.065l0.046,-0.065l0.046,-0.067l0.044,-0.067l0.043,-0.067l0.042,-0.068l0.041,-0.068l0.039,-0.069l0.038,-0.069l0.037,-0.069l0.037,-0.071l0.035,-0.071l0.034,-0.071l0.032,-0.07l0.031,-0.072l0.031,-0.073l0.028,-0.072l0.028,-0.073l0.027,-0.073l0.025,-0.074l0.025,-0.075l0.023,-0.073l0.022,-0.075l0.021,-0.075l0.02,-0.075l0.019,-0.075l0.017,-0.077l0.016,-0.075l0.015,-0.076l0.014,-0.076l0.013,-0.076l0.012,-0.078l0.01,-0.077l0.009,-0.076l0.008,-0.076l0.007,-0.078l0.006,-0.077l0.005,-0.079l0.003,-0.077l0.002,-0.077l0.001,-0.078l0,-0.077l-0.001,-0.077l-0.003,-0.077l-0.003,-0.077l-0.005,-0.078l-0.006,-0.077l-0.007,-0.077l-0.009,-0.078l-0.009,-0.076l-0.011,-0.077l-0.011,-0.076l-0.014,-0.077l-0.014,-0.076l-0.078,-0.39l0.037,-0.357l0.003,-0.041l0.003,-0.039l0.003,-0.039l0.002,-0.042l0.001,-0.042l0.001,-0.04l0,-0.039l0,-0.038l0,-0.037l-0.002,-0.036l0,-0.01l-4.534,4.534Zm-7.914,-4.085l0,4.343l3.081,-3.081l0.064,-0.065l0.058,-0.061l0.056,-0.061l0.055,-0.062l0.054,-0.062l0.053,-0.063l0.051,-0.063l0.05,-0.065l0.049,-0.064l0.048,-0.065l0.046,-0.065l0.046,-0.067l0.044,-0.067l0.043,-0.067l0.042,-0.068l0.041,-0.068l0.039,-0.069l0.038,-0.069l0.038,-0.07l0.036,-0.07l0.035,-0.07l0.034,-0.072l0.032,-0.071l0.031,-0.071l0.03,-0.072l0.029,-0.073l0.028,-0.073l0.027,-0.075l0.026,-0.072l0.024,-0.073l0.023,-0.076l0.023,-0.075l0.02,-0.074l0.02,-0.075l0.019,-0.075l0.017,-0.076l0.016,-0.076l0.015,-0.076l0.014,-0.076l0.013,-0.077l0.012,-0.077l0.01,-0.076l0.009,-0.077l0.008,-0.076l0.007,-0.078l0.006,-0.079l0.005,-0.077l0.003,-0.075l0.002,-0.079l0.001,-0.078l0,-0.077l-0.001,-0.077l-0.003,-0.077l-0.003,-0.077l-0.005,-0.078l-0.006,-0.077l-0.007,-0.077l-0.009,-0.078l-0.009,-0.076l-0.011,-0.077l-0.012,-0.077l-0.012,-0.076l-0.015,-0.076l-0.078,-0.389l0.037,-0.358l0.004,-0.041l0.002,-0.039l0.003,-0.039l0.002,-0.042l0.001,-0.042l0.001,-0.038l0,-0.041l0,-0.038l-0.001,-0.037l-0.001,-0.036l0,-0.01l-4.448,4.449Z"/>
            </g>
            <path d="M27.5,2l-2,0l-4.5,9l2,0l4.5,-9Z" style="fill:none;stroke:#000;stroke-width:4px;"/>
            <path d="M18,11c0,0 0.379,-0.19 0.807,-0.404c0.775,-0.387 1.402,-1.014 1.789,-1.789c0.59,-1.178 1.404,-2.807 1.404,-2.807l4,2c0,0 -0.814,1.629 -1.404,2.807c-0.387,0.775 -1.014,1.402 -1.789,1.789c-0.428,0.214 -0.807,0.404 -0.807,0.404l-4,-2Z" style="fill:none;stroke:#000;stroke-width:4px;stroke-linejoin:round;"/>
        </g>
        <g id="emoji">
            <path d="M2,27l8.5,-8.5c0,0 7.798,-1.344 7.921,-2.457c0.473,2.258 -0.167,4.703 -1.92,6.456l-7.501,7.501l-7,0l0,-3Zm20.421,-2.957c0.429,2.051 -0.059,4.256 -1.466,5.957l-9.955,0l3.5,-3.5c0,0 7.798,-1.344 7.921,-2.457Zm-20.421,-9.043l0.5,-0.5c0,0 7.798,-1.344 7.921,-2.457c0.473,2.258 -0.167,4.703 -1.92,6.456l-6.501,6.501l0,-10Z" style="fill:#f10dc3;"/>
            <path d="M14.5,26.5l6.5,-6.5c0,0 0,0 0.001,0.001c0.928,0.928 1.449,2.187 1.449,3.499c0,1.312 -0.521,2.571 -1.449,3.499c-0.561,0.561 -1.113,1.113 -1.587,1.587c-0.375,0.375 -0.884,0.586 -1.414,0.586c-0.53,0 -1.039,-0.211 -1.414,-0.586c-0.971,-0.971 -2.086,-2.086 -2.086,-2.086Zm-4,-8l6.5,-6.5c0,0 0,0 0.001,0.001c0.928,0.928 1.449,2.187 1.449,3.499c0,1.312 -0.521,2.571 -1.449,3.499c-0.561,0.561 -1.113,1.113 -1.587,1.587c-0.375,0.375 -0.884,0.586 -1.414,0.586c-0.53,0 -1.039,-0.211 -1.414,-0.586c-0.971,-0.971 -2.086,-2.086 -2.086,-2.086Zm-8,-4l6.5,-6.5c0,0 0,0 0.001,0.001c0.928,0.928 1.449,2.187 1.449,3.499c0,1.312 -0.521,2.571 -1.449,3.499c-0.561,0.561 -1.113,1.113 -1.587,1.587c-0.375,0.375 -0.884,0.586 -1.414,0.586c-0.53,0 -1.039,-0.211 -1.414,-0.586c-0.971,-0.971 -2.086,-2.086 -2.086,-2.086Z" style="fill:#5353f9;"/>
            <path d="M27.5,2l-2,0l-4.5,9l2,0l4.5,-9Z" style="fill:#575757;"/>
            <path d="M18,11c0,0 0.379,-0.19 0.807,-0.404c0.775,-0.387 1.402,-1.014 1.789,-1.789c0.59,-1.178 1.404,-2.807 1.404,-2.807l4,2c0,0 -0.814,1.629 -1.404,2.807c-0.387,0.775 -1.014,1.402 -1.789,1.789c-0.428,0.214 -0.807,0.404 -0.807,0.404l-4,-2Z" style="fill:#5353f9;"/>
        </g>
    </g>
</svg>
