<?xml version="1.0" encoding="UTF-8" standalone="no"?>
<!DOCTYPE svg PUBLIC "-//W3C//DTD SVG 1.1//EN" "http://www.w3.org/Graphics/SVG/1.1/DTD/svg11.dtd">
<svg width="100%" height="100%" viewBox="0 0 32 32" version="1.1" xmlns="http://www.w3.org/2000/svg" xmlns:xlink="http://www.w3.org/1999/xlink" xml:space="preserve" xmlns:serif="http://www.serif.com/" style="fill-rule:evenodd;clip-rule:evenodd;stroke-linejoin:round;stroke-miterlimit:2;">
    <rect id="nail_polish--hmn-" serif:id="nail_polish [hmn]" x="0" y="0" width="32" height="32" style="fill:none;"/>
    <clipPath id="_clip1">
        <rect x="0" y="0" width="32" height="32"/>
    </clipPath>
    <g clip-path="url(#_clip1)">
        <g id="outline">
            <path d="M24.264,0c2.157,0 4.315,0 6.472,0l-3.302,6.605c0.577,0.593 0.746,1.508 0.355,2.289c0,0 -0.814,1.629 -1.404,2.808c-0.58,1.161 -1.522,2.103 -2.683,2.683c-0.428,0.214 -0.808,0.404 -0.808,0.404c-0.563,0.281 -1.225,0.281 -1.788,0l-0.74,-0.37c0.056,0.355 0.084,0.717 0.084,1.081c0,0.147 -0.004,0.293 -0.014,0.438c0.096,0.55 0.141,1.107 0.134,1.663l0.43,-0.429l1.415,1.415c1.303,1.303 2.035,3.07 2.035,4.913c0,0.147 -0.004,0.293 -0.014,0.439c0.443,2.543 -0.205,5.238 -1.94,7.336l-0.6,0.725l-21.896,0l0,-17.828l9,-9.001l1.415,1.416c1.303,1.303 2.035,3.07 2.035,4.913c0,0.147 -0.004,0.293 -0.014,0.438c0.096,0.55 0.141,1.107 0.134,1.663l4.43,-4.43l0.063,0.062c0.014,-0.007 0.028,-0.015 0.043,-0.022c0,0 0.379,-0.189 0.807,-0.404c0.387,-0.193 0.701,-0.507 0.894,-0.894c0.59,-1.179 1.404,-2.807 1.404,-2.807c0.391,-0.782 1.225,-1.196 2.045,-1.09l2.008,-4.016Z"/>
        </g>
        <g id="emoji">
            <path d="M2,27l8.5,-8.5c0,0 7.798,-1.344 7.921,-2.457c0.473,2.258 -0.167,4.703 -1.92,6.456l-7.501,7.501l-7,0l0,-3Zm20.421,-2.957c0.429,2.051 -0.059,4.256 -1.466,5.957l-9.955,0l3.5,-3.5c0,0 7.798,-1.344 7.921,-2.457Zm-20.421,-9.043l0.5,-0.5c0,0 7.798,-1.344 7.921,-2.457c0.473,2.258 -0.167,4.703 -1.92,6.456l-6.501,6.501l0,-10Z" style="fill:#f10dc3;"/>
            <path d="M14.5,26.5l6.5,-6.5c0,0 0,0 0.001,0.001c0.928,0.928 1.449,2.187 1.449,3.499c0,1.312 -0.521,2.571 -1.449,3.499c-0.561,0.561 -1.113,1.113 -1.587,1.587c-0.375,0.375 -0.884,0.586 -1.414,0.586c-0.53,0 -1.039,-0.211 -1.414,-0.586c-0.971,-0.971 -2.086,-2.086 -2.086,-2.086Zm-4,-8l6.5,-6.5c0,0 0,0 0.001,0.001c0.928,0.928 1.449,2.187 1.449,3.499c0,1.312 -0.521,2.571 -1.449,3.499c-0.561,0.561 -1.113,1.113 -1.587,1.587c-0.375,0.375 -0.884,0.586 -1.414,0.586c-0.53,0 -1.039,-0.211 -1.414,-0.586c-0.971,-0.971 -2.086,-2.086 -2.086,-2.086Zm-8,-4l6.5,-6.5c0,0 0,0 0.001,0.001c0.928,0.928 1.449,2.187 1.449,3.499c0,1.312 -0.521,2.571 -1.449,3.499c-0.561,0.561 -1.113,1.113 -1.587,1.587c-0.375,0.375 -0.884,0.586 -1.414,0.586c-0.53,0 -1.039,-0.211 -1.414,-0.586c-0.971,-0.971 -2.086,-2.086 -2.086,-2.086Z" style="fill:#5353f9;"/>
            <path d="M27.5,2l-2,0l-4.5,9l2,0l4.5,-9Z" style="fill:#575757;"/>
            <path d="M18,11c0,0 0.379,-0.19 0.807,-0.404c0.775,-0.387 1.402,-1.014 1.789,-1.789c0.59,-1.178 1.404,-2.807 1.404,-2.807l4,2c0,0 -0.814,1.629 -1.404,2.807c-0.387,0.775 -1.014,1.402 -1.789,1.789c-0.428,0.214 -0.807,0.404 -0.807,0.404l-4,-2Z" style="fill:#5353f9;"/>
        </g>
    </g>
</svg>
