<?xml version="1.0" encoding="UTF-8" standalone="no"?><!DOCTYPE svg PUBLIC "-//W3C//DTD SVG 1.1//EN" "http://www.w3.org/Graphics/SVG/1.1/DTD/svg11.dtd"><svg width="100%" height="100%" viewBox="0 0 32 32" version="1.1" xmlns="http://www.w3.org/2000/svg" xmlns:xlink="http://www.w3.org/1999/xlink" xml:space="preserve" xmlns:serif="http://www.serif.com/" style="fill-rule:evenodd;clip-rule:evenodd;stroke-linejoin:round;stroke-miterlimit:1.41421;"><rect id="nail_varnish--hmn-" serif:id="nail_varnish [hmn]" x="0" y="0" width="32" height="32" style="fill:none;"/><clipPath id="_clip1"><rect x="0" y="0" width="32" height="32"/></clipPath><g clip-path="url(#_clip1)"><g id="outline"><path d="M27.483,6.506l1.2,0.6c-0.784,1.568 -1.553,3.144 -2.353,4.704c-0.058,0.107 -0.058,0.107 -0.118,0.213c-0.185,0.312 -0.39,0.609 -0.625,0.886c-0.364,0.427 -0.788,0.803 -1.256,1.112c-0.2,0.133 -0.407,0.251 -0.62,0.36l-1.711,0.855l-1.634,-0.817l0.009,0.055c0.069,0.466 0.088,0.937 0.065,1.408l-0.003,0.056c0.02,0.12 0.019,0.12 0.038,0.24c0.019,0.137 0.019,0.137 0.036,0.275c0.04,0.366 0.06,0.732 0.06,1.101l0,0.047l0.429,-0.43c0.513,0.513 1.033,1.018 1.536,1.54c0.429,0.457 0.8,0.963 1.096,1.517c0.373,0.699 0.625,1.462 0.743,2.246c0.069,0.466 0.088,0.937 0.065,1.408l-0.003,0.057c0.018,0.104 0.033,0.208 0.049,0.312c0.016,0.125 0.031,0.251 0.044,0.376c0.044,0.5 0.054,1.001 0.02,1.502c-0.081,1.179 -0.395,2.34 -0.92,3.399c-0.29,0.586 -0.645,1.132 -1.05,1.644l-0.675,0.828l-21.905,0l0,-17.828l7.086,-7.086l1.914,-1.914c0.512,0.512 1.032,1.016 1.535,1.538c0.079,0.083 0.156,0.169 0.232,0.255c0.331,0.391 0.624,0.811 0.865,1.264c0.414,0.775 0.678,1.627 0.776,2.5c0.042,0.383 0.05,0.768 0.032,1.153l-0.003,0.057c0.02,0.119 0.019,0.119 0.038,0.239c0.019,0.137 0.019,0.136 0.036,0.274c0.04,0.367 0.06,0.733 0.06,1.102l0,0.047l2.053,-2.053l-0.624,-0.312l0,-0.472c1.328,-0.664 2.677,-1.289 3.984,-1.994c0.059,-0.033 0.116,-0.069 0.172,-0.106c0.266,-0.188 0.479,-0.429 0.633,-0.715l0.023,-0.045l2.294,-4.587l1.2,0.6l1.958,-3.917l6.472,0l-3.253,6.506Z"/></g><g id="emoji"><path d="M2,27l8.5,-8.5c0,0 7.798,-1.344 7.921,-2.457c0.473,2.258 -0.167,4.703 -1.92,6.456l-7.501,7.501l-7,0l0,-3Zm20.421,-2.957c0.429,2.051 -0.059,4.256 -1.466,5.957l-9.955,0l3.5,-3.5c0,0 7.798,-1.344 7.921,-2.457Zm-20.421,-9.043l0.5,-0.5c0,0 7.798,-1.344 7.921,-2.457c0.473,2.258 -0.167,4.703 -1.92,6.456l-6.501,6.501l0,-10Z" style="fill:#f10dc3;"/><path d="M14.5,26.5l6.5,-6.5c0,0 0,0 0.001,0.001c0.928,0.928 1.449,2.187 1.449,3.499c0,1.312 -0.521,2.571 -1.449,3.499c-0.561,0.561 -1.113,1.113 -1.587,1.587c-0.375,0.375 -0.884,0.586 -1.414,0.586c-0.53,0 -1.039,-0.211 -1.414,-0.586c-0.971,-0.971 -2.086,-2.086 -2.086,-2.086Zm-4,-8l6.5,-6.5c0,0 0,0 0.001,0.001c0.928,0.928 1.449,2.187 1.449,3.499c0,1.312 -0.521,2.571 -1.449,3.499c-0.561,0.561 -1.113,1.113 -1.587,1.587c-0.375,0.375 -0.884,0.586 -1.414,0.586c-0.53,0 -1.039,-0.211 -1.414,-0.586c-0.971,-0.971 -2.086,-2.086 -2.086,-2.086Zm-8,-4l6.5,-6.5c0,0 0,0 0.001,0.001c0.928,0.928 1.449,2.187 1.449,3.499c0,1.312 -0.521,2.571 -1.449,3.499c-0.561,0.561 -1.113,1.113 -1.587,1.587c-0.375,0.375 -0.884,0.586 -1.414,0.586c-0.53,0 -1.039,-0.211 -1.414,-0.586c-0.971,-0.971 -2.086,-2.086 -2.086,-2.086Z" style="fill:#f6bce8;"/><path d="M27.5,2l-2,0l-4.5,9l2,0l4.5,-9Z" style="fill:#575757;"/><path d="M18,11c0,0 0.379,-0.19 0.807,-0.404c0.775,-0.387 1.402,-1.014 1.789,-1.789c0.59,-1.178 1.404,-2.807 1.404,-2.807l4,2c0,0 -0.814,1.629 -1.404,2.807c-0.387,0.775 -1.014,1.402 -1.789,1.789c-0.428,0.214 -0.807,0.404 -0.807,0.404l-4,-2Z" style="fill:#f6bce8;"/></g></g></svg>