<?xml version="1.0" encoding="UTF-8" standalone="no"?>
<!DOCTYPE svg PUBLIC "-//W3C//DTD SVG 1.1//EN" "http://www.w3.org/Graphics/SVG/1.1/DTD/svg11.dtd">
<svg width="100%" height="100%" viewBox="0 0 32 32" version="1.1" xmlns="http://www.w3.org/2000/svg" xmlns:xlink="http://www.w3.org/1999/xlink" xml:space="preserve" xmlns:serif="http://www.serif.com/" style="fill-rule:evenodd;clip-rule:evenodd;stroke-linejoin:round;stroke-miterlimit:2;">
    <rect id="ok_hand--hmn-" serif:id="ok_hand [hmn]" x="0" y="0" width="32" height="32" style="fill:none;"/>
    <clipPath id="_clip1">
        <rect x="0" y="0" width="32" height="32"/>
    </clipPath>
    <g clip-path="url(#_clip1)">
        <g id="outline">
            <path d="M16,11c0.604,0 1.2,0.137 1.743,0.4l-0.33,-0.33c-2.343,-2.343 -2.343,-6.14 0,-8.483c0.001,-0.001 0.001,-0.001 0.001,-0.001c0.482,-0.482 1.147,-0.666 1.77,-0.554c0.559,-0.763 1.295,-1.389 2.156,-1.82c0.001,-0.001 0.002,-0.001 0.002,-0.001c0.988,-0.494 2.189,-0.093 2.683,0.895l3.553,7.105c0.277,0.556 0.422,1.168 0.422,1.789l0,11.471c0,0.69 -0.178,1.369 -0.516,1.97c-0.644,1.145 -2.339,4.158 -3.381,6.01c-0.885,1.575 -2.551,2.549 -4.358,2.549l-5.917,0c-1.06,0 -2.078,-0.421 -2.828,-1.172c-1.056,-1.055 -3.245,-3.245 -4.08,-4.08c-0.439,-0.439 -0.77,-0.974 -0.967,-1.563c-0.205,-0.617 -0.57,-1.712 -0.748,-2.245c-0.136,-0.407 -0.205,-0.835 -0.205,-1.265l0,-6.675l2,0c0.116,0 0.231,0.003 0.345,0.01l-0.006,-0.016c-0.143,-0.411 -0.243,-0.835 -0.295,-1.267c-0.03,-0.241 -0.044,-0.484 -0.044,-0.727c0,-0.667 0,-1.333 0,-2l9,0Zm-3.341,8c0.221,0.626 0.341,1.299 0.341,2l0,0.172l0.54,0.54l3.879,-1.293l0.068,-0.204l-2.431,-1.215l-2.397,0Z"/>
        </g>
        <g id="emoji">
            <path d="M22.37,13.199l-3.543,-3.544c-1.561,-1.561 -1.561,-4.092 0,-5.654c0.001,-0.001 0.001,-0.001 0.001,-0.001l5.172,5.172l0,4.762l1.71,1.066c0.097,0.255 0.193,0.509 0.29,0.764l0,3.236l-2.472,0l-1.528,-0.764l0,-4.472l0.37,-0.565Z" style="fill:#a90eb1;fill-rule:nonzero;"/>
            <path d="M22,13.764l0,-3.292c0,0 -0.759,-1.518 -1.554,-3.107c-0.474,-0.949 -0.552,-2.047 -0.217,-3.052c0.336,-1.006 1.057,-1.838 2.005,-2.312c0.001,-0.001 0.002,-0.001 0.002,-0.001c0,0 2.759,5.518 3.553,7.106c0.139,0.277 0.211,0.584 0.211,0.894l0,5.764l-4,-2Z" style="fill:#f10dc3;"/>
            <path d="M13,17c-1.061,0 -2.078,-0.421 -2.828,-1.172c-0.751,-0.75 -1.172,-1.767 -1.172,-2.828l7,0c0.155,0.001 0.309,0.018 0.46,0.054c0.15,0.035 0.296,0.088 0.434,0.157l7.975,3.988c0.669,0.323 1.131,1.009 1.131,1.801l0,2.471c0,0.347 -0.089,0.688 -0.259,0.99c-0.643,1.143 -2.335,4.15 -3.377,6.003c-0.534,0.949 -1.538,1.536 -2.627,1.536l-5.909,0c-0.53,0 -1.039,-0.211 -1.414,-0.586c-1.055,-1.055 -3.245,-3.245 -4.08,-4.08c-0.22,-0.22 -0.385,-0.487 -0.483,-0.782c-0.206,-0.617 -0.571,-1.712 -0.748,-2.244c-0.068,-0.204 -0.103,-0.418 -0.103,-0.633l0,-4.675l0.026,0c2.197,0.014 3.974,1.799 3.974,4l0,1c0,0 0.588,0.588 1.126,1.126c0.536,0.536 1.328,0.723 2.047,0.483c1.325,-0.442 3.42,-1.14 4.353,-1.451c0.298,-0.099 0.533,-0.334 0.632,-0.632l0.775,-2.324l-4.405,-2.202l-2.528,0Z" style="fill:#f10dc3;"/>
        </g>
    </g>
</svg>
