<?xml version="1.0" encoding="UTF-8" standalone="no"?>
<!DOCTYPE svg PUBLIC "-//W3C//DTD SVG 1.1//EN" "http://www.w3.org/Graphics/SVG/1.1/DTD/svg11.dtd">
<svg width="100%" height="100%" viewBox="0 0 32 32" version="1.1" xmlns="http://www.w3.org/2000/svg" xmlns:xlink="http://www.w3.org/1999/xlink" xml:space="preserve" xmlns:serif="http://www.serif.com/" style="fill-rule:evenodd;clip-rule:evenodd;stroke-linejoin:round;stroke-miterlimit:2;">
    <rect id="open_hands--hmn-" serif:id="open_hands [hmn]" x="0" y="0" width="32" height="32" style="fill:none;"/>
    <clipPath id="_clip1">
        <rect x="0" y="0" width="32" height="32"/>
    </clipPath>
    <g clip-path="url(#_clip1)">
        <g id="outline">
            <path d="M16,21.817c-0.305,0.489 -0.677,0.937 -1.107,1.324c-0.401,0.361 -0.847,0.662 -1.325,0.911c-0.252,0.126 -0.505,0.251 -0.761,0.369c-0.276,0.124 -0.557,0.234 -0.846,0.324c-0.619,0.193 -1.263,0.301 -1.911,0.32c-0.575,0.017 -1.152,-0.037 -1.715,-0.158c-0.447,-0.096 -0.884,-0.235 -1.304,-0.414c-1.095,-0.467 -2.066,-1.208 -2.804,-2.143c-0.299,-0.379 -0.556,-0.788 -0.775,-1.217c-0.434,-0.876 -0.858,-1.757 -1.286,-2.635c-0.629,-1.29 -1.258,-2.58 -1.887,-3.87c-0.049,-0.107 -0.061,-0.128 -0.104,-0.245c-0.082,-0.222 -0.136,-0.455 -0.16,-0.69c-0.082,-0.782 0.171,-1.58 0.688,-2.173c0.176,-0.201 0.379,-0.374 0.602,-0.52l-0.004,-0.107c0.002,-0.124 0,-0.155 0.01,-0.279c0.021,-0.234 0.07,-0.465 0.146,-0.687c0.214,-0.62 0.643,-1.156 1.201,-1.501c0.227,-0.14 0.471,-0.244 0.727,-0.317l0.04,-0.083c0.061,-0.111 0.073,-0.137 0.142,-0.243c0.127,-0.195 0.278,-0.374 0.449,-0.532c0.481,-0.447 1.113,-0.718 1.769,-0.758c0.265,-0.017 0.528,0.007 0.787,0.061l0.072,-0.052c0.105,-0.069 0.13,-0.088 0.24,-0.148c0.247,-0.136 0.514,-0.235 0.789,-0.293c0.644,-0.136 1.325,-0.042 1.908,0.261c0.248,0.129 0.476,0.294 0.676,0.489c0.231,0.225 0.414,0.486 0.562,0.772l1.428,2.928c0.063,-0.048 0.063,-0.047 0.128,-0.093c0.09,-0.062 0.09,-0.061 0.182,-0.121c0.221,-0.134 0.448,-0.255 0.686,-0.353c0.553,-0.227 1.141,-0.337 1.737,-0.341l0,0c0.666,0 1.331,-0.001 1.996,0l0.044,0l0,0l0.077,0c0.116,0.004 0.115,0.004 0.231,0.01c0.267,0.021 0.53,0.058 0.79,0.122c0.59,0.146 1.149,0.411 1.635,0.776l1.429,-2.93c0.052,-0.1 0.062,-0.123 0.124,-0.224c0.147,-0.238 0.329,-0.455 0.539,-0.64c0.244,-0.217 0.527,-0.391 0.83,-0.513c0.609,-0.244 1.296,-0.27 1.922,-0.072c0.3,0.094 0.577,0.239 0.832,0.422l0.09,-0.019c0.123,-0.02 0.153,-0.027 0.278,-0.037c0.123,-0.011 0.155,-0.009 0.278,-0.011c0.14,0.006 0.14,0.006 0.279,0.018c0.232,0.031 0.458,0.078 0.679,0.16c0.483,0.179 0.914,0.49 1.236,0.892c0.137,0.171 0.25,0.356 0.346,0.552l0.087,0.024c0.118,0.041 0.149,0.049 0.264,0.098c0.216,0.093 0.42,0.212 0.607,0.354c0.523,0.398 0.897,0.975 1.049,1.614c0.062,0.263 0.083,0.531 0.073,0.801l0.075,0.049c0.102,0.075 0.131,0.093 0.227,0.174c0.178,0.152 0.337,0.326 0.473,0.517c0.429,0.601 0.61,1.361 0.498,2.092c-0.043,0.277 -0.13,0.54 -0.246,0.795c-0.629,1.29 -1.259,2.58 -1.888,3.871c-0.428,0.878 -0.852,1.759 -1.286,2.635c-0.206,0.403 -0.444,0.788 -0.72,1.147c-0.744,0.967 -1.736,1.734 -2.858,2.213c-0.473,0.201 -0.968,0.352 -1.473,0.448c-0.624,0.119 -1.263,0.155 -1.895,0.105c-0.68,-0.053 -1.352,-0.205 -1.989,-0.449c-0.405,-0.154 -0.793,-0.352 -1.18,-0.545c-0.097,-0.05 -0.097,-0.05 -0.193,-0.102c-0.467,-0.265 -0.901,-0.58 -1.288,-0.954c-0.365,-0.352 -0.685,-0.749 -0.952,-1.179Z"/>
        </g>
        <g id="emoji">
            <path d="M24.182,15.106l2.628,-5.387c0.099,-0.204 0.114,-0.439 0.04,-0.654c-0.074,-0.214 -0.23,-0.391 -0.434,-0.49c-0.205,-0.1 -0.44,-0.114 -0.655,-0.04c-0.214,0.073 -0.391,0.23 -0.49,0.434l-2.377,4.874l-0.513,-0.251l2.126,-4.36c0.1,-0.205 0.114,-0.44 0.04,-0.655c-0.073,-0.214 -0.23,-0.391 -0.434,-0.49c-0.204,-0.1 -0.439,-0.114 -0.654,-0.04c-0.215,0.074 -0.391,0.23 -0.491,0.434l-3.378,6.926c0,0 -0.005,-0.574 -0.012,-1.277c-0.014,-1.409 -1.168,-2.541 -2.578,-2.527c0,0 0,0 0,0c0,0 0.041,4.164 0.069,7c0.016,1.576 0.921,3.009 2.338,3.7c0.162,0.079 0.328,0.16 0.496,0.242c2.557,1.247 5.641,0.186 6.889,-2.372l3.121,-6.4c0.207,-0.425 0.031,-0.937 -0.394,-1.145c-0.425,-0.207 -0.938,-0.03 -1.145,0.395l-1.877,3.847l-0.513,-0.25l2.628,-5.387c0.099,-0.204 0.114,-0.439 0.04,-0.654c-0.074,-0.214 -0.23,-0.391 -0.435,-0.491c-0.204,-0.099 -0.439,-0.114 -0.654,-0.04c-0.214,0.074 -0.391,0.231 -0.49,0.435l-2.378,4.873l-0.513,-0.25Z" style="fill:#f10dc3;"/>
            <clipPath id="_clip2">
                <path d="M24.182,15.106l2.628,-5.387c0.099,-0.204 0.114,-0.439 0.04,-0.654c-0.074,-0.214 -0.23,-0.391 -0.434,-0.49c-0.205,-0.1 -0.44,-0.114 -0.655,-0.04c-0.214,0.073 -0.391,0.23 -0.49,0.434l-2.377,4.874l-0.513,-0.251l2.126,-4.36c0.1,-0.205 0.114,-0.44 0.04,-0.655c-0.073,-0.214 -0.23,-0.391 -0.434,-0.49c-0.204,-0.1 -0.439,-0.114 -0.654,-0.04c-0.215,0.074 -0.391,0.23 -0.491,0.434l-3.378,6.926c0,0 -0.005,-0.574 -0.012,-1.277c-0.014,-1.409 -1.168,-2.541 -2.578,-2.527c0,0 0,0 0,0c0,0 0.041,4.164 0.069,7c0.016,1.576 0.921,3.009 2.338,3.7c0.162,0.079 0.328,0.16 0.496,0.242c2.557,1.247 5.641,0.186 6.889,-2.372l3.121,-6.4c0.207,-0.425 0.031,-0.937 -0.394,-1.145c-0.425,-0.207 -0.938,-0.03 -1.145,0.395l-1.877,3.847l-0.513,-0.25l2.628,-5.387c0.099,-0.204 0.114,-0.439 0.04,-0.654c-0.074,-0.214 -0.23,-0.391 -0.435,-0.491c-0.204,-0.099 -0.439,-0.114 -0.654,-0.04c-0.214,0.074 -0.391,0.231 -0.49,0.435l-2.378,4.873l-0.513,-0.25Z"/>
            </clipPath>
            <g clip-path="url(#_clip2)">
                <path d="M20.114,11.969c0.051,0.007 0.1,0.018 0.147,0.039c0.13,0.057 0.232,0.168 0.276,0.303c0.016,0.049 0.022,0.099 0.024,0.15l0.033,3.353c0.051,0.006 0.102,0.015 0.152,0.024c0.067,0.014 0.132,0.029 0.198,0.046c0.261,0.075 0.51,0.181 0.739,0.328c0.538,0.343 0.94,0.878 1.123,1.489c0.065,0.218 0.1,0.443 0.11,0.67c0.013,0.533 0.012,1.065 0.017,1.598c-0.002,0.078 -0.016,0.152 -0.05,0.222c-0.115,0.239 -0.407,0.347 -0.65,0.241c-0.047,-0.02 -0.09,-0.048 -0.129,-0.082c-0.099,-0.087 -0.153,-0.204 -0.169,-0.333c-0.027,-0.551 0.006,-1.103 -0.02,-1.653c-0.013,-0.171 -0.047,-0.337 -0.108,-0.497c-0.184,-0.482 -0.591,-0.858 -1.085,-1.006c-0.193,-0.058 -0.392,-0.077 -0.593,-0.067l-0.525,0.033l-0.043,-4.356c0.002,-0.039 0.001,-0.038 0.006,-0.076c0.009,-0.051 0.022,-0.099 0.044,-0.146c0.056,-0.116 0.156,-0.207 0.277,-0.252c0.048,-0.018 0.098,-0.026 0.149,-0.03c0.039,0 0.039,0 0.077,0.002Z" style="fill:#a90eb1;fill-rule:nonzero;"/>
            </g>
            <path d="M7.818,15.106l-2.628,-5.387c-0.099,-0.204 -0.114,-0.439 -0.04,-0.654c0.074,-0.214 0.23,-0.391 0.434,-0.49c0.205,-0.1 0.44,-0.114 0.655,-0.04c0.214,0.073 0.391,0.23 0.49,0.434l2.377,4.874l0.513,-0.251l-2.126,-4.36c-0.1,-0.205 -0.114,-0.44 -0.04,-0.655c0.073,-0.214 0.23,-0.391 0.434,-0.49c0.204,-0.1 0.439,-0.114 0.654,-0.04c0.215,0.074 0.391,0.23 0.491,0.434l3.378,6.926c0,0 0.005,-0.574 0.012,-1.277c0.014,-1.409 1.168,-2.541 2.578,-2.527c0,0 0,0 0,0c0,0 -0.041,4.164 -0.069,7c-0.016,1.576 -0.921,3.009 -2.338,3.7c-0.162,0.079 -0.328,0.16 -0.496,0.242c-2.557,1.247 -5.641,0.186 -6.889,-2.372l-3.121,-6.4c-0.207,-0.425 -0.031,-0.937 0.394,-1.145c0.425,-0.207 0.938,-0.03 1.145,0.395l1.877,3.847l0.513,-0.25l-2.628,-5.387c-0.099,-0.204 -0.114,-0.439 -0.04,-0.654c0.074,-0.214 0.23,-0.391 0.435,-0.491c0.204,-0.099 0.439,-0.114 0.654,-0.04c0.214,0.074 0.391,0.231 0.49,0.435l2.378,4.873l0.513,-0.25Z" style="fill:#f10dc3;"/>
            <clipPath id="_clip3">
                <path d="M7.818,15.106l-2.628,-5.387c-0.099,-0.204 -0.114,-0.439 -0.04,-0.654c0.074,-0.214 0.23,-0.391 0.434,-0.49c0.205,-0.1 0.44,-0.114 0.655,-0.04c0.214,0.073 0.391,0.23 0.49,0.434l2.377,4.874l0.513,-0.251l-2.126,-4.36c-0.1,-0.205 -0.114,-0.44 -0.04,-0.655c0.073,-0.214 0.23,-0.391 0.434,-0.49c0.204,-0.1 0.439,-0.114 0.654,-0.04c0.215,0.074 0.391,0.23 0.491,0.434l3.378,6.926c0,0 0.005,-0.574 0.012,-1.277c0.014,-1.409 1.168,-2.541 2.578,-2.527c0,0 0,0 0,0c0,0 -0.041,4.164 -0.069,7c-0.016,1.576 -0.921,3.009 -2.338,3.7c-0.162,0.079 -0.328,0.16 -0.496,0.242c-2.557,1.247 -5.641,0.186 -6.889,-2.372l-3.121,-6.4c-0.207,-0.425 -0.031,-0.937 0.394,-1.145c0.425,-0.207 0.938,-0.03 1.145,0.395l1.877,3.847l0.513,-0.25l-2.628,-5.387c-0.099,-0.204 -0.114,-0.439 -0.04,-0.654c0.074,-0.214 0.23,-0.391 0.435,-0.491c0.204,-0.099 0.439,-0.114 0.654,-0.04c0.214,0.074 0.391,0.231 0.49,0.435l2.378,4.873l0.513,-0.25Z"/>
            </clipPath>
            <g clip-path="url(#_clip3)">
                <path d="M11.963,11.967c0.051,0.004 0.101,0.012 0.149,0.03c0.133,0.05 0.241,0.155 0.292,0.287c0.024,0.061 0.033,0.123 0.035,0.187l-0.043,4.356c-0.202,-0.013 -0.41,-0.031 -0.615,-0.036c-0.057,0 -0.113,0.002 -0.171,0.006c-0.169,0.017 -0.334,0.055 -0.492,0.12c-0.409,0.169 -0.741,0.501 -0.909,0.91c-0.071,0.172 -0.11,0.352 -0.124,0.537c-0.026,0.538 -0.013,1.076 -0.018,1.615c-0.006,0.13 -0.051,0.251 -0.143,0.345c-0.186,0.189 -0.497,0.198 -0.693,0.02c-0.038,-0.035 -0.071,-0.075 -0.096,-0.119c-0.04,-0.068 -0.059,-0.141 -0.067,-0.218c-0.015,-0.545 0.004,-1.09 0.016,-1.636c0.013,-0.273 0.06,-0.541 0.152,-0.799c0.236,-0.666 0.738,-1.221 1.377,-1.524c0.246,-0.117 0.506,-0.191 0.774,-0.232l0.019,-0.002l0.033,-3.353c0.002,-0.038 0.002,-0.038 0.006,-0.076c0.011,-0.051 0.024,-0.099 0.048,-0.145c0.072,-0.142 0.202,-0.231 0.355,-0.265c0.039,-0.006 0.076,-0.008 0.115,-0.008Z" style="fill:#a90eb1;fill-rule:nonzero;"/>
            </g>
        </g>
    </g>
</svg>
