<?xml version="1.0" encoding="UTF-8" standalone="no"?>
<!DOCTYPE svg PUBLIC "-//W3C//DTD SVG 1.1//EN" "http://www.w3.org/Graphics/SVG/1.1/DTD/svg11.dtd">
<svg width="100%" height="100%" viewBox="0 0 32 32" version="1.1" xmlns="http://www.w3.org/2000/svg" xmlns:xlink="http://www.w3.org/1999/xlink" xml:space="preserve" xmlns:serif="http://www.serif.com/" style="fill-rule:evenodd;clip-rule:evenodd;stroke-linecap:round;stroke-linejoin:round;stroke-miterlimit:2;">
    <rect id="palms_up--hmn-" serif:id="palms_up [hmn]" x="0" y="0" width="32" height="32" style="fill:none;"/>
    <g id="outline">
        <path d="M22.189,14.561l0,-6.163c0,-0.258 0.103,-0.505 0.285,-0.688c0.183,-0.182 0.43,-0.285 0.688,-0.285c0.258,0 0.506,0.103 0.688,0.285c0.183,0.183 0.285,0.43 0.285,0.688l0,6.163l0.649,0l0,-5.514c0,-0.258 0.103,-0.505 0.285,-0.688c0.182,-0.182 0.43,-0.285 0.688,-0.285c0.258,0 0.506,0.103 0.688,0.285c0.183,0.183 0.285,0.43 0.285,0.688l0,9.458c0,0 0,0 0,0c0.166,0.059 0.35,0.035 0.494,-0.067c0.143,-0.101 0.229,-0.265 0.229,-0.441c0,-0.744 0,-1.903 0,-2.909c0,-1.104 0.895,-2 2,-2c0.319,0 0.547,0 0.547,0l0,5.382c0,3.537 -2.837,6.42 -6.374,6.476c-0.048,-0.007 -0.096,-0.006 -0.144,-0.006c-0.205,0 -0.415,0 -0.628,0c-3.233,-0.001 -5.854,-2.621 -5.854,-5.855c0,-1.757 0,-3.227 0,-3.227l0,-4.865c0,-0.537 0.436,-0.973 0.973,-0.973c0.537,0 0.973,0.436 0.973,0.973l0,4.865l0.649,0l0,-6.811c0,-0.258 0.102,-0.505 0.285,-0.688c0.182,-0.182 0.43,-0.285 0.688,-0.285c0.258,0 0.505,0.103 0.688,0.285c0.182,0.183 0.285,0.43 0.285,0.688l0,6.162l0.648,0l0,-0.648Z" style="fill:none;stroke:#000;stroke-width:4px;"/>
        <path d="M9.811,14.561l0,-6.163c0,-0.258 -0.103,-0.505 -0.285,-0.688c-0.183,-0.182 -0.43,-0.285 -0.688,-0.285c-0.258,0 -0.506,0.103 -0.688,0.285c-0.183,0.183 -0.285,0.43 -0.285,0.688l0,6.163l-0.649,0l0,-5.514c0,-0.258 -0.103,-0.505 -0.285,-0.688c-0.182,-0.182 -0.43,-0.285 -0.688,-0.285c-0.258,0 -0.506,0.103 -0.688,0.285c-0.183,0.183 -0.285,0.43 -0.285,0.688l0,9.458c0,0 0,0 0,0c-0.166,0.059 -0.35,0.035 -0.494,-0.067c-0.143,-0.101 -0.229,-0.265 -0.229,-0.441c0,-0.744 0,-1.903 0,-2.909c0,-1.104 -0.895,-2 -2,-2c-0.319,0 -0.547,0 -0.547,0l0,5.382c0,3.537 2.837,6.42 6.374,6.476c0.048,-0.007 0.096,-0.006 0.144,-0.006c0.205,0 0.415,0 0.628,0c3.233,-0.001 5.854,-2.621 5.854,-5.855c0,-1.757 0,-3.227 0,-3.227l0,-4.865c0,-0.537 -0.436,-0.973 -0.973,-0.973c-0.537,0 -0.973,0.436 -0.973,0.973l0,4.865l-0.649,0l0,-6.811c0,-0.258 -0.102,-0.505 -0.285,-0.688c-0.182,-0.182 -0.43,-0.285 -0.688,-0.285c-0.258,0 -0.505,0.103 -0.688,0.285c-0.182,0.183 -0.285,0.43 -0.285,0.688l0,6.162l-0.648,0l0,-0.648Z" style="fill:none;stroke:#000;stroke-width:4px;"/>
    </g>
    <g id="emoji">
        <path d="M22.189,14.561l0,-6.163c0,-0.258 0.103,-0.505 0.285,-0.688c0.183,-0.182 0.43,-0.285 0.688,-0.285c0.258,0 0.506,0.103 0.688,0.285c0.183,0.183 0.285,0.43 0.285,0.688l0,6.163l0.649,0l0,-5.514c0,-0.258 0.103,-0.505 0.285,-0.688c0.182,-0.182 0.43,-0.285 0.688,-0.285c0.258,0 0.506,0.103 0.688,0.285c0.183,0.183 0.285,0.43 0.285,0.688l0,9.453l0.001,0c0.399,0 0.722,-0.323 0.722,-0.722c0,-0.686 0,-1.749 0,-2.69c0,-1.104 0.895,-2 2,-2c0.319,0 0.547,0 0.547,0l0,5.382c0,3.537 -2.837,6.42 -6.374,6.476c-0.048,-0.007 -0.096,-0.006 -0.144,-0.006c-0.205,0 -0.415,0 -0.628,0c-3.233,-0.001 -5.854,-2.621 -5.854,-5.855c0,-1.757 0,-3.227 0,-3.227l0,-4.865c0,-0.537 0.436,-0.973 0.973,-0.973c0.537,0 0.973,0.436 0.973,0.973l0,4.865l0.649,0l0,-6.811c0,-0.258 0.102,-0.505 0.285,-0.688c0.182,-0.182 0.43,-0.285 0.688,-0.285c0.258,0 0.505,0.103 0.688,0.285c0.182,0.183 0.285,0.43 0.285,0.688l0,6.162l0.648,0l0,-0.648Z" style="fill:#f10dc3;"/>
        <clipPath id="_clip1">
            <path d="M22.189,14.561l0,-6.163c0,-0.258 0.103,-0.505 0.285,-0.688c0.183,-0.182 0.43,-0.285 0.688,-0.285c0.258,0 0.506,0.103 0.688,0.285c0.183,0.183 0.285,0.43 0.285,0.688l0,6.163l0.649,0l0,-5.514c0,-0.258 0.103,-0.505 0.285,-0.688c0.182,-0.182 0.43,-0.285 0.688,-0.285c0.258,0 0.506,0.103 0.688,0.285c0.183,0.183 0.285,0.43 0.285,0.688l0,9.453l0.001,0c0.399,0 0.722,-0.323 0.722,-0.722c0,-0.686 0,-1.749 0,-2.69c0,-1.104 0.895,-2 2,-2c0.319,0 0.547,0 0.547,0l0,5.382c0,3.537 -2.837,6.42 -6.374,6.476c-0.048,-0.007 -0.096,-0.006 -0.144,-0.006c-0.205,0 -0.415,0 -0.628,0c-3.233,-0.001 -5.854,-2.621 -5.854,-5.855c0,-1.757 0,-3.227 0,-3.227l0,-4.865c0,-0.537 0.436,-0.973 0.973,-0.973c0.537,0 0.973,0.436 0.973,0.973l0,4.865l0.649,0l0,-6.811c0,-0.258 0.102,-0.505 0.285,-0.688c0.182,-0.182 0.43,-0.285 0.688,-0.285c0.258,0 0.505,0.103 0.688,0.285c0.182,0.183 0.285,0.43 0.285,0.688l0,6.162l0.648,0l0,-0.648Z"/>
        </clipPath>
        <g clip-path="url(#_clip1)">
            <path d="M26.75,18.485l0.403,-1.321l0.05,-4.076l-4.786,3.25l0,6.5l4.333,0l0,-4.353Z" style="fill:none;"/>
            <clipPath id="_clip2">
                <path d="M26.75,18.485l0.403,-1.321l0.05,-4.076l-4.786,3.25l0,6.5l4.333,0l0,-4.353Z"/>
            </clipPath>
            <g clip-path="url(#_clip2)">
                <path d="M27.453,15.255l0,1.917c0,0.457 -0.371,0.828 -0.828,0.828c-0.225,0 -0.481,0 -0.747,0c-0.631,0 -1.236,0.251 -1.681,0.696c-0.446,0.446 -0.697,1.051 -0.697,1.682c0,0.622 0,1.122 0,1.122" style="fill:none;stroke:#a90eb1;stroke-width:1px;stroke-linejoin:miter;"/>
            </g>
        </g>
        <path d="M9.811,14.561l0,-6.163c0,-0.258 -0.103,-0.505 -0.285,-0.688c-0.183,-0.182 -0.43,-0.285 -0.688,-0.285c-0.258,0 -0.506,0.103 -0.688,0.285c-0.183,0.183 -0.285,0.43 -0.285,0.688l0,6.163l-0.649,0l0,-5.514c0,-0.258 -0.103,-0.505 -0.285,-0.688c-0.182,-0.182 -0.43,-0.285 -0.688,-0.285c-0.258,0 -0.506,0.103 -0.688,0.285c-0.183,0.183 -0.285,0.43 -0.285,0.688l0,9.453l-0.001,0c-0.399,0 -0.722,-0.323 -0.722,-0.722c0,-0.686 0,-1.749 0,-2.69c0,-1.104 -0.895,-2 -2,-2c-0.319,0 -0.547,0 -0.547,0l0,5.382c0,3.537 2.837,6.42 6.374,6.476c0.048,-0.007 0.096,-0.006 0.144,-0.006c0.205,0 0.415,0 0.628,0c3.233,-0.001 5.854,-2.621 5.854,-5.855c0,-1.757 0,-3.227 0,-3.227l0,-4.865c0,-0.537 -0.436,-0.973 -0.973,-0.973c-0.537,0 -0.973,0.436 -0.973,0.973l0,4.865l-0.649,0l0,-6.811c0,-0.258 -0.102,-0.505 -0.285,-0.688c-0.182,-0.182 -0.43,-0.285 -0.688,-0.285c-0.258,0 -0.505,0.103 -0.688,0.285c-0.182,0.183 -0.285,0.43 -0.285,0.688l0,6.162l-0.648,0l0,-0.648Z" style="fill:#f10dc3;"/>
        <clipPath id="_clip3">
            <path d="M9.811,14.561l0,-6.163c0,-0.258 -0.103,-0.505 -0.285,-0.688c-0.183,-0.182 -0.43,-0.285 -0.688,-0.285c-0.258,0 -0.506,0.103 -0.688,0.285c-0.183,0.183 -0.285,0.43 -0.285,0.688l0,6.163l-0.649,0l0,-5.514c0,-0.258 -0.103,-0.505 -0.285,-0.688c-0.182,-0.182 -0.43,-0.285 -0.688,-0.285c-0.258,0 -0.506,0.103 -0.688,0.285c-0.183,0.183 -0.285,0.43 -0.285,0.688l0,9.453l-0.001,0c-0.399,0 -0.722,-0.323 -0.722,-0.722c0,-0.686 0,-1.749 0,-2.69c0,-1.104 -0.895,-2 -2,-2c-0.319,0 -0.547,0 -0.547,0l0,5.382c0,3.537 2.837,6.42 6.374,6.476c0.048,-0.007 0.096,-0.006 0.144,-0.006c0.205,0 0.415,0 0.628,0c3.233,-0.001 5.854,-2.621 5.854,-5.855c0,-1.757 0,-3.227 0,-3.227l0,-4.865c0,-0.537 -0.436,-0.973 -0.973,-0.973c-0.537,0 -0.973,0.436 -0.973,0.973l0,4.865l-0.649,0l0,-6.811c0,-0.258 -0.102,-0.505 -0.285,-0.688c-0.182,-0.182 -0.43,-0.285 -0.688,-0.285c-0.258,0 -0.505,0.103 -0.688,0.285c-0.182,0.183 -0.285,0.43 -0.285,0.688l0,6.162l-0.648,0l0,-0.648Z"/>
        </clipPath>
        <g clip-path="url(#_clip3)">
            <path d="M5.25,18.485l-0.403,-1.321l-0.05,-4.076l4.786,3.25l0,6.5l-4.333,0l0,-4.353Z" style="fill:none;"/>
            <clipPath id="_clip4">
                <path d="M5.25,18.485l-0.403,-1.321l-0.05,-4.076l4.786,3.25l0,6.5l-4.333,0l0,-4.353Z"/>
            </clipPath>
            <g clip-path="url(#_clip4)">
                <path d="M4.547,15.255l0,1.917c0,0.457 0.371,0.828 0.828,0.828c0.225,0 0.481,0 0.747,0c0.631,0 1.236,0.251 1.681,0.696c0.446,0.446 0.697,1.051 0.697,1.682c0,0.622 0,1.122 0,1.122" style="fill:none;stroke:#a90eb1;stroke-width:1px;stroke-linejoin:miter;"/>
            </g>
        </g>
    </g>
</svg>
