<?xml version="1.0" encoding="UTF-8" standalone="no"?>
<!DOCTYPE svg PUBLIC "-//W3C//DTD SVG 1.1//EN" "http://www.w3.org/Graphics/SVG/1.1/DTD/svg11.dtd">
<svg width="100%" height="100%" viewBox="0 0 32 32" version="1.1" xmlns="http://www.w3.org/2000/svg" xmlns:xlink="http://www.w3.org/1999/xlink" xml:space="preserve" xmlns:serif="http://www.serif.com/" style="fill-rule:evenodd;clip-rule:evenodd;stroke-linejoin:round;stroke-miterlimit:2;">
    <path id="point_left--hmn-" serif:id="point_left [hmn]" d="M0,0l0,32l32,0l0,-32l-32,0Z" style="fill:none;"/>
    <clipPath id="_clip1">
        <path d="M0,0l0,32l32,0l0,-32l-32,0Z"/>
    </clipPath>
    <g clip-path="url(#_clip1)">
        <g id="outline">
            <path d="M13.27,8.976c-3.286,-0.012 -6.572,-0.017 -9.857,0.025c-0.374,0.014 -0.74,0.077 -1.093,0.204c-0.95,0.34 -1.722,1.093 -2.086,2.035c-0.145,0.376 -0.218,0.771 -0.233,1.173c-0.001,0.087 -0.001,0.087 0,0.174c0.015,0.402 0.088,0.797 0.233,1.173c0.176,0.455 0.447,0.871 0.791,1.215c0.385,0.385 0.859,0.677 1.375,0.848c0.352,0.116 0.717,0.172 1.087,0.177l6.551,0c-0.02,0.137 -0.032,0.274 -0.037,0.413c-0.001,0.087 -0.001,0.087 0,0.174c0.015,0.402 0.088,0.797 0.234,1.173c0.101,0.262 0.233,0.511 0.394,0.741c-0.176,0.252 -0.32,0.527 -0.424,0.819c-0.126,0.352 -0.19,0.72 -0.204,1.093c-0.001,0.087 -0.001,0.087 0,0.174c0.015,0.402 0.088,0.797 0.234,1.173c0.196,0.509 0.512,0.969 0.916,1.334c0.034,0.032 0.069,0.062 0.105,0.092c-0.018,0.044 -0.035,0.089 -0.051,0.134c-0.126,0.352 -0.19,0.72 -0.204,1.093c-0.001,0.087 -0.001,0.087 0,0.174c0.015,0.402 0.088,0.797 0.234,1.173c0.363,0.942 1.135,1.695 2.085,2.035c0.376,0.135 0.77,0.2 1.168,0.205l4.512,0l0,-0.017c0.434,-0.003 1.047,-0.006 2,-0.006l0.006,0l0.136,-0.001c0.374,-0.007 0.747,-0.028 1.119,-0.07c0.86,-0.099 1.708,-0.299 2.521,-0.597c1.622,-0.594 3.094,-1.574 4.271,-2.838c1.027,-1.104 1.824,-2.417 2.325,-3.838c0.272,-0.775 0.457,-1.58 0.55,-2.395c0.043,-0.372 0.064,-0.745 0.071,-1.119c0.003,-0.432 0.003,-0.863 0,-1.295c-0.008,-0.273 -0.022,-0.545 -0.051,-0.816c-0.056,-0.536 -0.16,-1.066 -0.308,-1.584c-0.485,-1.689 -1.453,-3.226 -2.767,-4.392c-0.363,-0.322 -0.751,-0.615 -1.159,-0.876c-0.184,-0.118 -0.373,-0.227 -0.563,-0.333c-0.142,-0.076 -0.141,-0.075 -0.284,-0.148c-4.254,-2.127 -8.507,-4.254 -12.761,-6.381l-0.901,1.801c-0.068,0.141 -0.134,0.282 -0.194,0.427c-0.14,0.343 -0.251,0.698 -0.331,1.06c-0.08,0.361 -0.123,0.726 -0.145,1.095c-0.005,0.157 -0.005,0.157 -0.007,0.315c0.003,0.158 0.007,0.316 0.019,0.474c0.028,0.369 0.089,0.737 0.18,1.096c0.105,0.415 0.255,0.814 0.436,1.202c0.053,0.107 0.052,0.107 0.107,0.212Z"/>
        </g>
        <g id="emoji">
            <path d="M19,11l-15.5,0c-0.828,0 -1.5,0.672 -1.5,1.5c0,0.828 0.672,1.5 1.5,1.5l10.5,0l0,1l-0.5,0c-0.828,0 -1.5,0.672 -1.5,1.5c0,0.828 0.672,1.5 1.5,1.5l1.5,0l0,1l-1.5,0c-0.828,0 -1.5,0.672 -1.5,1.5c0,0.828 0.672,1.5 1.5,1.5l2.5,0l0,1l-1.5,0c-0.398,0 -0.779,0.158 -1.061,0.439c-0.281,0.282 -0.439,0.663 -0.439,1.061c0,0.398 0.158,0.779 0.439,1.061c0.282,0.281 0.663,0.439 1.061,0.439l6.475,0c4.984,0 9.025,-4.041 9.025,-9.025c0,-0.329 0,-0.652 0,-0.968c0,-2.762 -1.561,-5.287 -4.031,-6.523c-4.443,-2.221 -10.969,-5.484 -10.969,-5.484c0,0 0,0 0,0c-1.105,2.209 -0.209,4.895 2,6c1.101,0.551 2,1 2,1Z" style="fill:#f10dc3;"/>
            <clipPath id="_clip2">
                <path d="M19,11l-15.5,0c-0.828,0 -1.5,0.672 -1.5,1.5c0,0.828 0.672,1.5 1.5,1.5l10.5,0l0,1l-0.5,0c-0.828,0 -1.5,0.672 -1.5,1.5c0,0.828 0.672,1.5 1.5,1.5l1.5,0l0,1l-1.5,0c-0.828,0 -1.5,0.672 -1.5,1.5c0,0.828 0.672,1.5 1.5,1.5l2.5,0l0,1l-1.5,0c-0.398,0 -0.779,0.158 -1.061,0.439c-0.281,0.282 -0.439,0.663 -0.439,1.061c0,0.398 0.158,0.779 0.439,1.061c0.282,0.281 0.663,0.439 1.061,0.439l6.475,0c4.984,0 9.025,-4.041 9.025,-9.025c0,-0.329 0,-0.652 0,-0.968c0,-2.762 -1.561,-5.287 -4.031,-6.523c-4.443,-2.221 -10.969,-5.484 -10.969,-5.484c0,0 0,0 0,0c-1.105,2.209 -0.209,4.895 2,6c1.101,0.551 2,1 2,1Z"/>
            </clipPath>
            <g clip-path="url(#_clip2)">
                <path d="M14,11c-0.552,0 -1,-0.448 -1,-1c0,-0.552 0.448,-1 1,-1c1.537,0 4.463,0 6,0c0.552,0 1,0.448 1,1c0,0.552 -0.448,1 -1,1c-1.537,0 -4.463,0 -6,0Z" style="fill:#a90eb1;"/>
            </g>
        </g>
    </g>
</svg>
