<?xml version="1.0" encoding="UTF-8" standalone="no"?>
<!DOCTYPE svg PUBLIC "-//W3C//DTD SVG 1.1//EN" "http://www.w3.org/Graphics/SVG/1.1/DTD/svg11.dtd">
<svg width="100%" height="100%" viewBox="0 0 32 32" version="1.1" xmlns="http://www.w3.org/2000/svg" xmlns:xlink="http://www.w3.org/1999/xlink" xml:space="preserve" xmlns:serif="http://www.serif.com/" style="fill-rule:evenodd;clip-rule:evenodd;stroke-linejoin:round;stroke-miterlimit:2;">
    <rect id="point_up--hmn-" serif:id="point_up [hmn]" x="0" y="0" width="32" height="32" style="fill:none;"/>
    <clipPath id="_clip1">
        <rect x="0" y="0" width="32" height="32"/>
    </clipPath>
    <g clip-path="url(#_clip1)">
        <g id="outline">
            <path d="M8.976,13.27c-0.012,-3.286 -0.017,-6.572 0.025,-9.857c0.014,-0.374 0.077,-0.74 0.204,-1.093c0.34,-0.95 1.093,-1.722 2.035,-2.086c0.376,-0.145 0.771,-0.218 1.173,-0.233c0.087,-0.001 0.087,-0.001 0.174,0c0.402,0.015 0.797,0.088 1.173,0.233c0.455,0.176 0.871,0.447 1.215,0.791c0.385,0.385 0.677,0.859 0.848,1.375c0.116,0.352 0.172,0.717 0.177,1.087l0,6.551c0.137,-0.02 0.274,-0.032 0.413,-0.037c0.087,-0.001 0.087,-0.001 0.174,0c0.402,0.015 0.797,0.088 1.173,0.234c0.262,0.101 0.511,0.233 0.741,0.394c0.252,-0.176 0.527,-0.32 0.819,-0.424c0.352,-0.126 0.72,-0.19 1.093,-0.204c0.087,-0.001 0.087,-0.001 0.174,0c0.402,0.015 0.797,0.088 1.173,0.234c0.509,0.196 0.969,0.512 1.334,0.916c0.032,0.034 0.062,0.069 0.092,0.105c0.044,-0.018 0.089,-0.035 0.134,-0.051c0.352,-0.126 0.72,-0.19 1.093,-0.204c0.087,-0.001 0.087,-0.001 0.174,0c0.402,0.015 0.797,0.088 1.173,0.234c0.942,0.363 1.695,1.135 2.035,2.085c0.135,0.376 0.2,0.77 0.205,1.168l0,4.512l-0.017,0c-0.003,0.434 -0.006,1.047 -0.006,2l0,0.006l-0.001,0.136c-0.007,0.374 -0.028,0.747 -0.07,1.119c-0.099,0.86 -0.299,1.708 -0.597,2.521c-0.594,1.622 -1.574,3.094 -2.838,4.271c-1.104,1.027 -2.417,1.824 -3.838,2.325c-0.775,0.272 -1.58,0.457 -2.395,0.55c-0.372,0.043 -0.745,0.064 -1.119,0.071c-0.432,0.003 -0.863,0.003 -1.295,0c-0.273,-0.008 -0.545,-0.022 -0.816,-0.051c-0.536,-0.056 -1.066,-0.16 -1.584,-0.308c-1.689,-0.485 -3.226,-1.453 -4.392,-2.767c-0.322,-0.363 -0.615,-0.751 -0.876,-1.159c-0.118,-0.184 -0.227,-0.373 -0.333,-0.563c-0.076,-0.142 -0.075,-0.141 -0.148,-0.284c-2.127,-4.254 -4.254,-8.507 -6.381,-12.761l1.801,-0.901c0.141,-0.068 0.282,-0.134 0.427,-0.194c0.343,-0.14 0.698,-0.251 1.06,-0.331c0.361,-0.08 0.726,-0.123 1.095,-0.145c0.157,-0.005 0.157,-0.005 0.315,-0.007c0.158,0.003 0.316,0.007 0.474,0.019c0.369,0.028 0.737,0.089 1.096,0.18c0.415,0.105 0.814,0.255 1.202,0.436c0.107,0.053 0.107,0.052 0.212,0.107Z"/>
        </g>
        <g id="emoji">
            <path d="M11,19l0,-15.5c0,-0.828 0.672,-1.5 1.5,-1.5c0.828,0 1.5,0.672 1.5,1.5l0,10.5l1,0l0,-0.5c0,-0.828 0.672,-1.5 1.5,-1.5c0.828,0 1.5,0.672 1.5,1.5l0,1.5l1,0l0,-1.5c0,-0.828 0.672,-1.5 1.5,-1.5c0.828,0 1.5,0.672 1.5,1.5l0,2.5l1,0l0,-1.5c0,-0.398 0.158,-0.779 0.439,-1.061c0.282,-0.281 0.663,-0.439 1.061,-0.439c0.398,0 0.779,0.158 1.061,0.439c0.281,0.282 0.439,0.663 0.439,1.061l0,6.475c0,4.984 -4.041,9.025 -9.025,9.025c-0.329,0 -0.652,0 -0.968,0c-2.762,0 -5.287,-1.561 -6.523,-4.031c-2.221,-4.443 -5.484,-10.969 -5.484,-10.969c0,0 0,0 0,0c2.209,-1.105 4.895,-0.209 6,2c0.551,1.101 1,2 1,2Z" style="fill:#f10dc3;"/>
            <clipPath id="_clip2">
                <path d="M11,19l0,-15.5c0,-0.828 0.672,-1.5 1.5,-1.5c0.828,0 1.5,0.672 1.5,1.5l0,10.5l1,0l0,-0.5c0,-0.828 0.672,-1.5 1.5,-1.5c0.828,0 1.5,0.672 1.5,1.5l0,1.5l1,0l0,-1.5c0,-0.828 0.672,-1.5 1.5,-1.5c0.828,0 1.5,0.672 1.5,1.5l0,2.5l1,0l0,-1.5c0,-0.398 0.158,-0.779 0.439,-1.061c0.282,-0.281 0.663,-0.439 1.061,-0.439c0.398,0 0.779,0.158 1.061,0.439c0.281,0.282 0.439,0.663 0.439,1.061l0,6.475c0,4.984 -4.041,9.025 -9.025,9.025c-0.329,0 -0.652,0 -0.968,0c-2.762,0 -5.287,-1.561 -6.523,-4.031c-2.221,-4.443 -5.484,-10.969 -5.484,-10.969c0,0 0,0 0,0c2.209,-1.105 4.895,-0.209 6,2c0.551,1.101 1,2 1,2Z"/>
            </clipPath>
            <g clip-path="url(#_clip2)">
                <path d="M11,14c0,-0.552 -0.448,-1 -1,-1c-0.552,0 -1,0.448 -1,1c0,1.537 0,4.463 0,6c0,0.552 0.448,1 1,1c0.552,0 1,-0.448 1,-1c0,-1.537 0,-4.463 0,-6Z" style="fill:#a90eb1;"/>
            </g>
        </g>
    </g>
</svg>
