<?xml version="1.0" encoding="UTF-8" standalone="no"?>
<!DOCTYPE svg PUBLIC "-//W3C//DTD SVG 1.1//EN" "http://www.w3.org/Graphics/SVG/1.1/DTD/svg11.dtd">
<svg width="100%" height="100%" viewBox="0 0 32 32" version="1.1" xmlns="http://www.w3.org/2000/svg" xmlns:xlink="http://www.w3.org/1999/xlink" xml:space="preserve" xmlns:serif="http://www.serif.com/" style="fill-rule:evenodd;clip-rule:evenodd;stroke-linejoin:round;stroke-miterlimit:2;">
    <rect id="pray--hmn-" serif:id="pray [hmn]" x="0" y="0" width="32" height="32" style="fill:none;"/>
    <path d="M24,23l6,6l0,1l-8,0c0,0 -3.637,-3.637 -4.707,-4.707c-0.188,-0.188 -0.293,-0.442 -0.293,-0.707c0,-2.491 0,-15.535 0,-20.586c0,-1.105 0.895,-2 2,-2c0,0 0,0 0,0c0,0 3.584,7.168 4.683,9.367c0.209,0.416 0.317,0.875 0.317,1.341c0,2.432 0,10.292 0,10.292Z" style="fill:none;stroke:#000;stroke-width:4px;"/>
    <path d="M8,23l-6,6l0,1l8,0c0,0 3.637,-3.637 4.707,-4.707c0.188,-0.188 0.293,-0.442 0.293,-0.707c0,-2.491 0,-15.535 0,-20.586c0,-1.105 -0.895,-2 -2,-2c0,0 0,0 0,0c0,0 -3.584,7.168 -4.683,9.367c-0.209,0.416 -0.317,0.875 -0.317,1.341c0,2.432 0,10.292 0,10.292Z" style="fill:none;stroke:#000;stroke-width:4px;"/>
    <path d="M8,23l2,0l2.5,2.5l0,2l-2.5,2.5l-8,0l0,-1l6,-6Z" style="fill:#a90eb1;"/>
    <path d="M24,23l-2,0l-2.5,2.5l0,2l2.5,2.5l8,0l0,-1l-6,-6Z" style="fill:#a90eb1;"/>
    <path d="M8,23l4.5,4.5c0,0 1.547,-1.547 2.207,-2.207c0.188,-0.188 0.293,-0.442 0.293,-0.707c0,-2.491 0,-15.535 0,-20.586c0,-1.105 -0.895,-2 -2,-2c0,0 0,0 0,0c0,0 -3.584,7.168 -4.683,9.367c-0.209,0.416 -0.317,0.875 -0.317,1.341c0,2.432 0,10.292 0,10.292Z" style="fill:#f10dc3;"/>
    <clipPath id="_clip1">
        <path d="M8,23l4.5,4.5c0,0 1.547,-1.547 2.207,-2.207c0.188,-0.188 0.293,-0.442 0.293,-0.707c0,-2.491 0,-15.535 0,-20.586c0,-1.105 -0.895,-2 -2,-2c0,0 0,0 0,0c0,0 -3.584,7.168 -4.683,9.367c-0.209,0.416 -0.317,0.875 -0.317,1.341c0,2.432 0,10.292 0,10.292Z"/>
    </clipPath>
    <g clip-path="url(#_clip1)">
        <path d="M14.149,8.003l0.147,0.011l0.147,0.018l0.145,0.026l0.143,0.032l0.142,0.039l0.139,0.046l0.137,0.053l0.133,0.059l0.131,0.066l0.128,0.072l0.124,0.078l0.121,0.086l0.116,0.09l0.112,0.097l0.108,0.102l0.102,0.108l0.097,0.112l0.09,0.116l0.085,0.121l0.079,0.125l0.072,0.127l0.066,0.131l0.059,0.133l0.053,0.138l0.046,0.138l0.039,0.141l0.032,0.144l0.026,0.145l0.018,0.148l0.011,0.145l0.003,0.124l0,11.026l-0.002,0.095l-0.007,0.095l-0.011,0.095l-0.016,0.094l-0.02,0.093l-0.025,0.091l-0.029,0.091l-0.033,0.089l-0.038,0.088l-0.041,0.085l-0.046,0.084l-0.049,0.081l-0.054,0.079l-0.057,0.076l-0.06,0.074l-0.065,0.07l-0.067,0.067l-0.07,0.064l-0.074,0.061l-0.076,0.057l-0.079,0.054l-0.081,0.049l-0.084,0.046l-0.085,0.041l-0.088,0.038l-0.089,0.033l-0.091,0.029l-0.091,0.025l-0.093,0.02l-0.094,0.016l-0.095,0.011l-0.095,0.007l-0.095,0.002l-2,0l-0.095,-0.002l-0.095,-0.007l-0.095,-0.011l-0.094,-0.016l-0.093,-0.02l-0.091,-0.025l-0.091,-0.029l-0.089,-0.033l-0.088,-0.038l-0.085,-0.041l-0.084,-0.046l-0.081,-0.049l-0.079,-0.054l-0.076,-0.057l-0.074,-0.061l-0.07,-0.064l-0.067,-0.067l-0.064,-0.07l-0.061,-0.074l-0.057,-0.076l-0.054,-0.079l-0.049,-0.081l-0.046,-0.084l-0.041,-0.085l-0.038,-0.088l-0.033,-0.089l-0.029,-0.091l-0.025,-0.091l-0.02,-0.093l-0.016,-0.094l-0.011,-0.095l-0.007,-0.095l-0.002,-0.095l0,-11.024l0.003,-0.124l0.011,-0.149l0.018,-0.147l0.026,-0.144l0.032,-0.142l0.039,-0.143l0.046,-0.139l0.052,-0.135l0.06,-0.135l0.066,-0.131l0.072,-0.127l0.079,-0.125l0.084,-0.12l0.091,-0.117l0.097,-0.112l0.102,-0.108l0.108,-0.102l0.113,-0.097l0.116,-0.091l0.12,-0.085l0.124,-0.078l0.128,-0.072l0.131,-0.066l0.134,-0.059l0.136,-0.053l0.139,-0.046l0.141,-0.039l0.144,-0.032l0.145,-0.026l0.147,-0.018l0.147,-0.011l0.149,-0.004l0.149,0.004Zm-0.149,1.997l-0.05,0.001l-0.049,0.004l-0.049,0.006l-0.048,0.008l-0.048,0.011l-0.047,0.013l-0.046,0.016l-0.046,0.017l-0.044,0.02l-0.044,0.022l-0.042,0.024l-0.042,0.026l-0.04,0.028l-0.039,0.03l-0.037,0.033l-0.036,0.034l-0.034,0.036l-0.033,0.037l-0.03,0.039l-0.028,0.04l-0.026,0.042l-0.024,0.042l-0.022,0.044l-0.02,0.044l-0.017,0.046l-0.016,0.046l-0.013,0.047l-0.011,0.048l-0.008,0.048l-0.006,0.049l-0.004,0.049l-0.001,0.05l0,11l2,0l0,-11l-0.001,-0.05l-0.004,-0.049l-0.006,-0.049l-0.008,-0.048l-0.011,-0.048l-0.013,-0.047l-0.016,-0.046l-0.017,-0.046l-0.02,-0.044l-0.022,-0.044l-0.024,-0.042l-0.026,-0.042l-0.028,-0.04l-0.03,-0.039l-0.033,-0.037l-0.034,-0.036l-0.036,-0.034l-0.037,-0.033l-0.039,-0.03l-0.04,-0.028l-0.042,-0.026l-0.042,-0.024l-0.044,-0.022l-0.044,-0.02l-0.046,-0.017l-0.046,-0.016l-0.047,-0.013l-0.048,-0.011l-0.048,-0.008l-0.049,-0.006l-0.049,-0.004l-0.05,-0.001l0,0Z" style="fill:#640082;"/>
        <path d="M10,24l0,-3l7,0l0,4l-6,0l-1,-1Z" style="fill:#f10dc3;"/>
    </g>
    <path d="M24,23l-4.5,4.5c0,0 -1.547,-1.547 -2.207,-2.207c-0.188,-0.188 -0.293,-0.442 -0.293,-0.707c0,-2.491 0,-15.535 0,-20.586c0,-1.105 0.895,-2 2,-2c0,0 0,0 0,0c0,0 3.584,7.168 4.683,9.367c0.209,0.416 0.317,0.875 0.317,1.341c0,2.432 0,10.292 0,10.292Z" style="fill:#f10dc3;"/>
    <clipPath id="_clip2">
        <path d="M24,23l-4.5,4.5c0,0 -1.547,-1.547 -2.207,-2.207c-0.188,-0.188 -0.293,-0.442 -0.293,-0.707c0,-2.491 0,-15.535 0,-20.586c0,-1.105 0.895,-2 2,-2c0,0 0,0 0,0c0,0 3.584,7.168 4.683,9.367c0.209,0.416 0.317,0.875 0.317,1.341c0,2.432 0,10.292 0,10.292Z"/>
    </clipPath>
    <g clip-path="url(#_clip2)">
        <path d="M18.149,8.003l0.147,0.011l0.147,0.018l0.145,0.026l0.144,0.032l0.141,0.039l0.139,0.046l0.136,0.053l0.134,0.059l0.131,0.066l0.128,0.072l0.124,0.078l0.12,0.085l0.116,0.091l0.113,0.097l0.108,0.102l0.102,0.108l0.097,0.112l0.091,0.117l0.084,0.12l0.079,0.125l0.072,0.127l0.066,0.131l0.06,0.135l0.052,0.135l0.046,0.139l0.039,0.143l0.032,0.142l0.026,0.144l0.018,0.147l0.011,0.149l0.003,0.124l0,11.024l-0.002,0.095l-0.007,0.095l-0.011,0.095l-0.016,0.094l-0.02,0.093l-0.025,0.091l-0.029,0.091l-0.033,0.089l-0.038,0.088l-0.041,0.085l-0.046,0.084l-0.049,0.081l-0.054,0.079l-0.057,0.076l-0.061,0.074l-0.064,0.07l-0.067,0.067l-0.07,0.064l-0.074,0.061l-0.076,0.057l-0.079,0.054l-0.081,0.049l-0.084,0.046l-0.085,0.041l-0.088,0.038l-0.089,0.033l-0.091,0.029l-0.091,0.025l-0.093,0.02l-0.094,0.016l-0.095,0.011l-0.095,0.007l-0.095,0.002l-2,0l-0.095,-0.002l-0.095,-0.007l-0.095,-0.011l-0.094,-0.016l-0.093,-0.02l-0.091,-0.025l-0.091,-0.029l-0.089,-0.033l-0.088,-0.038l-0.085,-0.041l-0.084,-0.046l-0.081,-0.049l-0.079,-0.054l-0.076,-0.057l-0.074,-0.061l-0.07,-0.064l-0.067,-0.067l-0.065,-0.07l-0.06,-0.074l-0.057,-0.076l-0.054,-0.079l-0.049,-0.081l-0.046,-0.084l-0.041,-0.085l-0.038,-0.088l-0.033,-0.089l-0.029,-0.091l-0.025,-0.091l-0.02,-0.093l-0.016,-0.094l-0.011,-0.095l-0.007,-0.095l-0.002,-0.095l0,-11.026l0.003,-0.124l0.011,-0.145l0.018,-0.148l0.026,-0.145l0.032,-0.144l0.039,-0.141l0.046,-0.138l0.053,-0.138l0.059,-0.133l0.066,-0.131l0.072,-0.127l0.079,-0.125l0.085,-0.121l0.09,-0.116l0.097,-0.112l0.102,-0.108l0.108,-0.102l0.112,-0.097l0.116,-0.09l0.121,-0.086l0.124,-0.078l0.128,-0.072l0.131,-0.066l0.133,-0.059l0.137,-0.053l0.139,-0.046l0.142,-0.039l0.143,-0.032l0.145,-0.026l0.147,-0.018l0.147,-0.011l0.149,-0.004l0.149,0.004Zm-0.199,1.998l-0.049,0.004l-0.049,0.006l-0.048,0.008l-0.048,0.011l-0.047,0.013l-0.046,0.016l-0.046,0.017l-0.044,0.02l-0.044,0.022l-0.042,0.024l-0.042,0.026l-0.04,0.028l-0.039,0.03l-0.037,0.033l-0.036,0.034l-0.034,0.036l-0.033,0.037l-0.03,0.039l-0.028,0.04l-0.026,0.042l-0.024,0.042l-0.022,0.044l-0.02,0.044l-0.017,0.046l-0.016,0.046l-0.013,0.047l-0.011,0.048l-0.008,0.048l-0.006,0.049l-0.004,0.049l-0.001,0.05l0,11l2,0l0,-11l-0.001,-0.05l-0.004,-0.049l-0.006,-0.049l-0.008,-0.048l-0.011,-0.048l-0.013,-0.047l-0.016,-0.046l-0.017,-0.046l-0.02,-0.044l-0.022,-0.044l-0.024,-0.042l-0.026,-0.042l-0.028,-0.04l-0.03,-0.039l-0.033,-0.037l-0.034,-0.036l-0.036,-0.034l-0.037,-0.033l-0.039,-0.03l-0.04,-0.028l-0.042,-0.026l-0.042,-0.024l-0.044,-0.022l-0.044,-0.02l-0.046,-0.017l-0.046,-0.016l-0.047,-0.013l-0.048,-0.011l-0.048,-0.008l-0.049,-0.006l-0.049,-0.004l-0.05,-0.001c0,0 -0.05,0.001 -0.05,0.001Z" style="fill:#640082;"/>
        <path d="M21,25l1,-1l0,-3l-7,0l0,4l6,0Z" style="fill:#f10dc3;"/>
    </g>
</svg>
