<?xml version="1.0" encoding="UTF-8" standalone="no"?>
<!DOCTYPE svg PUBLIC "-//W3C//DTD SVG 1.1//EN" "http://www.w3.org/Graphics/SVG/1.1/DTD/svg11.dtd">
<svg width="100%" height="100%" viewBox="0 0 32 32" version="1.1" xmlns="http://www.w3.org/2000/svg" xmlns:xlink="http://www.w3.org/1999/xlink" xml:space="preserve" xmlns:serif="http://www.serif.com/" style="fill-rule:evenodd;clip-rule:evenodd;stroke-linejoin:round;stroke-miterlimit:2;">
    <rect id="punch--hmn-" serif:id="punch [hmn]" x="0" y="0" width="32" height="32" style="fill:none;"/>
    <clipPath id="_clip1">
        <rect x="0" y="0" width="32" height="32"/>
    </clipPath>
    <g clip-path="url(#_clip1)">
        <g id="outline">
            <path d="M23,1c1.326,0 2.598,0.527 3.536,1.464c0.937,0.938 1.464,2.21 1.464,3.536l0,5.172l2.828,2.828c0.751,0.75 1.172,1.768 1.172,2.828c0,2.043 0,7.301 0,9.344c0,1.06 -0.421,2.078 -1.172,2.828c-0.528,0.528 -1.3,1.3 -1.828,1.828c-0.75,0.751 -1.768,1.172 -2.828,1.172l-14.172,0l0,-2.002c0,-1.115 0.266,-2.203 0.764,-3.179c-0.4,0.118 -0.824,0.181 -1.262,0.181l-0.004,0c-2.075,0 -3.822,-1.405 -4.34,-3.316c-0.512,0.204 -1.071,0.316 -1.656,0.316c-0.001,0 -0.003,0 -0.004,0c-2.484,0 -4.498,-2.014 -4.498,-4.498l0,-11.673c0,-2.152 1.377,-4.063 3.419,-4.743c1.767,-0.59 4.206,-1.403 5.333,-1.778c0.612,-0.204 1.252,-0.308 1.897,-0.308l11.351,0Z"/>
        </g>
        <g id="emoji">
            <path d="M28,14l1.707,1.707c0.188,0.188 0.293,0.442 0.293,0.707c0,1.622 0,7.557 0,9.758c0,0.53 -0.211,1.039 -0.586,1.414c-0.528,0.528 -1.3,1.3 -1.828,1.828c-0.375,0.375 -0.884,0.586 -1.414,0.586l-12.172,0c0,0 0,0 0,0c0.013,-0.687 -0.026,-2.758 0.86,-3.66c0.619,-0.403 9.823,-2.657 9.823,-2.657l1.317,-3.181l2,-6.502Z" style="fill:#a90eb1;"/>
            <path d="M22,11l4,1l2,2l0,8.502c0,1.193 -0.474,2.337 -1.317,3.181c-0.844,0.843 -1.988,1.317 -3.181,1.317c-0.001,0 -0.001,0 -0.002,0c-1.152,0 -2.203,-0.433 -2.999,-1.145c-0.823,0.735 -1.89,1.145 -2.999,1.145c-0.001,0 -0.001,0 -0.002,0c-0.734,0 -1.427,-0.176 -2.039,-0.488l-0.029,-0.014c-0.886,0.902 -1.432,2.138 -1.432,3.502l0,-3.5c0,-0.828 -0.672,-1.5 -1.5,-1.5c-0.531,0 -1,0 -1,0l0,-3l-6,0l0,-11l16.5,0Z" style="fill:#640082;"/>
            <path d="M3,19.502l0,-11.673c0,-1.291 0.826,-2.438 2.051,-2.846c1.768,-0.589 4.207,-1.402 5.333,-1.778c0.408,-0.136 0.835,-0.205 1.265,-0.205c1.934,0 7.744,0 11.351,0c0.796,0 1.559,0.316 2.121,0.879c0.563,0.562 0.879,1.325 0.879,2.121l0,16.502c0,1.38 -1.118,2.498 -2.498,2.498l-0.004,0c-1.38,0 -2.498,-1.118 -2.498,-2.498l0,-9.502l-1,0l0,9.502c0,1.38 -1.118,2.498 -2.498,2.498l-0.004,0c-1.38,0 -2.498,-1.118 -2.498,-2.498l0,-9.502l-1,0l0,9.502c0,1.38 -1.118,2.498 -2.498,2.498l-0.004,0c-1.38,0 -2.498,-1.118 -2.498,-2.498l0,-9.502l-1,0l0,6.502c0,1.38 -1.118,2.498 -2.498,2.498c-0.001,0 -0.003,0 -0.004,0c-1.38,0 -2.498,-1.118 -2.498,-2.498Z" style="fill:#f10dc3;"/>
        </g>
    </g>
</svg>
