<?xml version="1.0" encoding="UTF-8" standalone="no"?>
<!DOCTYPE svg PUBLIC "-//W3C//DTD SVG 1.1//EN" "http://www.w3.org/Graphics/SVG/1.1/DTD/svg11.dtd">
<svg width="100%" height="100%" viewBox="0 0 32 32" version="1.1" xmlns="http://www.w3.org/2000/svg" xmlns:xlink="http://www.w3.org/1999/xlink" xml:space="preserve" xmlns:serif="http://www.serif.com/" style="fill-rule:evenodd;clip-rule:evenodd;stroke-linejoin:round;stroke-miterlimit:2;">
    <rect id="punch--hmn-" serif:id="punch [hmn]" x="0" y="0" width="32" height="32" style="fill:none;"/>
    <clipPath id="_clip1">
        <rect x="0" y="0" width="32" height="32"/>
    </clipPath>
    <g clip-path="url(#_clip1)">
        <g id="outline">
            <path d="M23.124,1.001l0.124,0.005l0.123,0.008l0.123,0.01l0.122,0.014l0.122,0.017l0.122,0.019l0.12,0.023l0.12,0.025l0.119,0.029l0.118,0.031l0.117,0.034l0.117,0.037l0.115,0.04l0.114,0.042l0.113,0.045l0.113,0.049l0.111,0.05l0.109,0.054l0.108,0.056l0.108,0.059l0.105,0.061l0.104,0.064l0.103,0.067l0.101,0.069l0.1,0.072l0.097,0.074l0.097,0.078l0.095,0.079l0.092,0.081l0.091,0.085l0.089,0.087l0.087,0.089l0.084,0.09l0.081,0.093l0.08,0.094l0.076,0.096l0.075,0.098l0.072,0.1l0.069,0.101l0.067,0.103l0.064,0.104l0.061,0.106l0.059,0.107l0.057,0.108l0.053,0.11l0.05,0.11l0.048,0.112l0.046,0.113l0.042,0.115l0.04,0.116l0.037,0.116l0.034,0.118l0.031,0.117l0.029,0.119l0.025,0.12l0.023,0.12l0.019,0.122l0.017,0.121l0.014,0.123l0.01,0.123l0.008,0.122l0.005,0.125l0.001,0.112l0,5.184l2.837,2.837l0.06,0.062l0.068,0.072l0.066,0.075l0.064,0.076l0.06,0.076l0.06,0.078l0.058,0.081l0.054,0.079l0.054,0.083l0.052,0.084l0.049,0.084l0.047,0.086l0.045,0.086l0.043,0.088l0.04,0.088l0.039,0.091l0.036,0.091l0.034,0.091l0.032,0.093l0.029,0.091l0.027,0.094l0.025,0.095l0.023,0.096l0.021,0.096l0.018,0.096l0.015,0.097l0.014,0.097l0.01,0.097l0.009,0.099l0.006,0.099l0.004,0.099l0.001,0.088l0,9.366l-0.001,0.088l-0.004,0.099l-0.006,0.099l-0.009,0.099l-0.01,0.097l-0.014,0.097l-0.015,0.097l-0.018,0.096l-0.021,0.096l-0.023,0.096l-0.025,0.095l-0.027,0.094l-0.029,0.091l-0.032,0.093l-0.034,0.091l-0.036,0.091l-0.039,0.091l-0.04,0.087l-0.043,0.089l-0.045,0.086l-0.047,0.086l-0.05,0.086l-0.051,0.082l-0.053,0.081l-0.055,0.081l-0.058,0.081l-0.059,0.078l-0.061,0.076l-0.064,0.076l-0.066,0.075l-0.068,0.072l-0.06,0.062l-1.846,1.846l-0.062,0.061l-0.073,0.068l-0.073,0.064l-0.076,0.064l-0.078,0.062l-0.078,0.059l-0.079,0.057l-0.081,0.056l-0.082,0.053l-0.084,0.052l-0.084,0.049l-0.085,0.047l-0.088,0.045l-0.087,0.043l-0.089,0.04l-0.09,0.039l-0.09,0.036l-0.092,0.034l-0.092,0.032l-0.093,0.029l-0.094,0.027l-0.094,0.025l-0.096,0.023l-0.095,0.021l-0.097,0.018l-0.097,0.015l-0.097,0.014l-0.098,0.011l-0.099,0.008l-0.098,0.006l-0.099,0.004l-0.087,0.001l-14.184,0l0,-2.009l0.001,-0.081l0.001,-0.085l0.003,-0.087l0.004,-0.087l0.004,-0.087l0.006,-0.086l0.007,-0.085l0.008,-0.086l0.009,-0.086l0.01,-0.085l0.011,-0.086l0.013,-0.085l0.013,-0.086l0.014,-0.084l0.015,-0.084l0.018,-0.091l0.034,-0.161l0.04,-0.167l0.044,-0.165l0.047,-0.164l0.052,-0.163l0.056,-0.162l0.059,-0.159l0.063,-0.159l0.068,-0.157l0.071,-0.155l0.075,-0.154l0.017,-0.034l-0.031,0.009l-0.107,0.029l-0.109,0.027l-0.11,0.024l-0.11,0.021l-0.112,0.018l-0.112,0.016l-0.113,0.013l-0.113,0.01l-0.114,0.007l-0.115,0.005l-0.102,0.001l-0.03,0l-0.102,-0.001l-0.115,-0.005l-0.114,-0.007l-0.113,-0.01l-0.113,-0.013l-0.112,-0.016l-0.112,-0.018l-0.111,-0.021l-0.109,-0.024l-0.109,-0.027l-0.107,-0.029l-0.107,-0.031l-0.105,-0.035l-0.105,-0.036l-0.103,-0.04l-0.102,-0.041l-0.1,-0.044l-0.099,-0.046l-0.098,-0.049l-0.096,-0.051l-0.095,-0.053l-0.094,-0.056l-0.092,-0.057l-0.09,-0.059l-0.089,-0.062l-0.088,-0.064l-0.085,-0.065l-0.084,-0.067l-0.082,-0.07l-0.081,-0.072l-0.078,-0.073l-0.077,-0.075l-0.076,-0.078l-0.074,-0.079l-0.071,-0.08l-0.069,-0.082l-0.068,-0.084l-0.065,-0.085l-0.064,-0.087l-0.062,-0.09l-0.059,-0.09l-0.058,-0.093l-0.055,-0.092l-0.053,-0.095l-0.051,-0.098l-0.048,-0.096l-0.047,-0.1l-0.044,-0.101l-0.041,-0.101l-0.04,-0.103l-0.036,-0.104l-0.034,-0.105l-0.032,-0.108l-0.013,-0.047l-0.006,0.002l-0.103,0.04l-0.105,0.037l-0.105,0.034l-0.107,0.031l-0.107,0.029l-0.109,0.027l-0.109,0.024l-0.111,0.021l-0.112,0.018l-0.112,0.016l-0.113,0.013l-0.113,0.01l-0.114,0.007l-0.115,0.005l-0.103,0.001l-0.028,0l-0.103,-0.001l-0.115,-0.005l-0.114,-0.007l-0.113,-0.01l-0.113,-0.013l-0.112,-0.016l-0.112,-0.018l-0.111,-0.021l-0.109,-0.024l-0.109,-0.027l-0.107,-0.029l-0.107,-0.031l-0.105,-0.034l-0.105,-0.037l-0.103,-0.04l-0.102,-0.041l-0.1,-0.044l-0.099,-0.046l-0.098,-0.049l-0.096,-0.051l-0.095,-0.053l-0.094,-0.056l-0.092,-0.057l-0.09,-0.059l-0.089,-0.062l-0.088,-0.064l-0.085,-0.065l-0.084,-0.067l-0.082,-0.07l-0.081,-0.072l-0.078,-0.073l-0.077,-0.075l-0.076,-0.078l-0.073,-0.078l-0.072,-0.081l-0.07,-0.083l-0.067,-0.083l-0.065,-0.085l-0.064,-0.087l-0.062,-0.09l-0.059,-0.09l-0.058,-0.092l-0.055,-0.093l-0.053,-0.096l-0.051,-0.096l-0.048,-0.097l-0.047,-0.101l-0.044,-0.1l-0.041,-0.1l-0.04,-0.104l-0.036,-0.105l-0.034,-0.104l-0.032,-0.108l-0.029,-0.107l-0.027,-0.108l-0.024,-0.11l-0.021,-0.112l-0.019,-0.111l-0.015,-0.112l-0.013,-0.112l-0.01,-0.113l-0.007,-0.116l-0.005,-0.115l-0.001,-0.101l0,-11.696l0.001,-0.09l0.003,-0.101l0.005,-0.099l0.007,-0.1l0.009,-0.099l0.011,-0.098l0.012,-0.098l0.015,-0.098l0.017,-0.098l0.018,-0.096l0.02,-0.095l0.023,-0.097l0.024,-0.095l0.025,-0.094l0.028,-0.093l0.029,-0.092l0.031,-0.092l0.033,-0.092l0.035,-0.09l0.036,-0.09l0.038,-0.09l0.039,-0.087l0.041,-0.087l0.044,-0.087l0.044,-0.085l0.046,-0.084l0.048,-0.084l0.05,-0.083l0.05,-0.081l0.052,-0.08l0.054,-0.08l0.055,-0.078l0.058,-0.079l0.058,-0.076l0.06,-0.074l0.061,-0.074l0.063,-0.074l0.064,-0.071l0.065,-0.07l0.067,-0.07l0.069,-0.067l0.069,-0.067l0.072,-0.066l0.072,-0.064l0.073,-0.063l0.075,-0.061l0.076,-0.06l0.078,-0.059l0.079,-0.057l0.08,-0.056l0.081,-0.054l0.082,-0.052l0.084,-0.052l0.085,-0.049l0.085,-0.048l0.087,-0.047l0.088,-0.044l0.09,-0.044l0.09,-0.041l0.091,-0.04l0.092,-0.038l0.093,-0.036l0.094,-0.035l0.085,-0.029l5.352,-1.784l0.106,-0.034l0.115,-0.035l0.117,-0.032l0.117,-0.03l0.117,-0.028l0.118,-0.025l0.118,-0.023l0.119,-0.021l0.119,-0.018l0.12,-0.015l0.12,-0.014l0.119,-0.011l0.121,-0.008l0.121,-0.006l0.12,-0.004l0.111,-0.001l11.373,0l0.112,0.001Zm-11.465,3.999l-0.05,0.001l-0.04,0.001l-0.04,0.002l-0.04,0.003l-0.041,0.003l-0.04,0.005l-0.04,0.005l-0.039,0.006l-0.039,0.007l-0.04,0.007l-0.04,0.009l-0.039,0.009l-0.039,0.01l-0.038,0.011l-0.039,0.011l-0.048,0.016l-5.314,1.771l-0.028,0.01l-0.02,0.007l-0.019,0.007l-0.018,0.008l-0.018,0.008l-0.018,0.008l-0.018,0.009l-0.017,0.009l-0.018,0.009l-0.017,0.01l-0.017,0.009l-0.016,0.01l-0.017,0.011l-0.016,0.011l-0.015,0.011l-0.016,0.011l-0.015,0.012l-0.016,0.012l-0.015,0.012l-0.014,0.013l-0.015,0.013l-0.014,0.012l-0.014,0.014l-0.014,0.013l-0.013,0.014l-0.013,0.015l-0.013,0.014l-0.012,0.014l-0.013,0.015l-0.012,0.016l-0.012,0.015l-0.011,0.015l-0.011,0.016l-0.011,0.016l-0.01,0.016l-0.011,0.017l-0.01,0.016l-0.009,0.016l-0.01,0.018l-0.009,0.017l-0.008,0.017l-0.008,0.018l-0.009,0.018l-0.007,0.017l-0.007,0.018l-0.007,0.018l-0.006,0.018l-0.007,0.018l-0.005,0.019l-0.006,0.019l-0.005,0.019l-0.005,0.019l-0.004,0.017l-0.004,0.02l-0.004,0.019l-0.003,0.019l-0.003,0.02l-0.003,0.02l-0.002,0.02l-0.002,0.019l-0.001,0.02l-0.001,0.02l-0.001,0.02l0,0.031l0,11.65l0,0.028l0.001,0.013l0.001,0.012l0.001,0.013l0.001,0.013l0.002,0.013l0.002,0.012l0.002,0.011l0.003,0.012l0.003,0.012l0.003,0.011l0.003,0.011l0.004,0.013l0.004,0.01l0.004,0.01l0.005,0.013l0.005,0.011l0.004,0.009l0.005,0.011l0.006,0.011l0.006,0.01l0.006,0.01l0.006,0.011l0.007,0.01l0.007,0.009l0.007,0.01l0.007,0.01l0.009,0.011l0.007,0.009l0.008,0.008l0.009,0.01l0.008,0.008l0.008,0.008l0.01,0.009l0.009,0.008l0.009,0.008l0.01,0.008l0.01,0.007l0.009,0.007l0.01,0.007l0.01,0.007l0.011,0.006l0.009,0.006l0.011,0.006l0.011,0.005l0.01,0.006l0.011,0.005l0.011,0.005l0.011,0.004l0.011,0.004l0.01,0.004l0.012,0.004l0.012,0.003l0.011,0.003l0.012,0.003l0.012,0.003l0.012,0.002l0.012,0.002l0.012,0.002l0.013,0.001l0.012,0.001l0.014,0.001l0.013,0.001l0.016,0l0.016,0l0.013,-0.001l0.014,-0.001l0.012,-0.001l0.013,-0.001l0.012,-0.002l0.012,-0.002l0.012,-0.002l0.012,-0.003l0.012,-0.003l0.011,-0.003l0.012,-0.003l0.012,-0.004l0.01,-0.004l0.011,-0.004l0.011,-0.004l0.011,-0.005l0.011,-0.005l0.01,-0.005l0.011,-0.006l0.011,-0.006l0.01,-0.006l0.01,-0.006l0.01,-0.007l0.01,-0.007l0.01,-0.007l0.009,-0.007l0.01,-0.008l0.01,-0.008l0.009,-0.008l0.008,-0.008l0.009,-0.009l0.008,-0.008l0.009,-0.01l0.008,-0.009l0.008,-0.009l0.008,-0.01l0.007,-0.009l0.007,-0.01l0.007,-0.01l0.007,-0.01l0.006,-0.011l0.006,-0.01l0.006,-0.01l0.006,-0.011l0.005,-0.011l0.005,-0.01l0.005,-0.011l0.004,-0.011l0.004,-0.011l0.004,-0.01l0.004,-0.012l0.003,-0.012l0.003,-0.011l0.003,-0.012l0.003,-0.012l0.002,-0.011l0.002,-0.012l0.002,-0.013l0.001,-0.013l0.001,-0.013l0.001,-0.013l0.001,-0.012l0,-0.027l0,-8.49l5,0l0,11.489l0,0.026l0.001,0.015l0.001,0.013l0.001,0.012l0.001,0.013l0.002,0.013l0.002,0.011l0.002,0.012l0.003,0.013l0.003,0.011l0.003,0.011l0.003,0.011l0.004,0.011l0.004,0.012l0.004,0.011l0.005,0.012l0.004,0.01l0.005,0.01l0.006,0.012l0.005,0.01l0.006,0.01l0.006,0.011l0.006,0.01l0.007,0.01l0.006,0.009l0.008,0.01l0.007,0.01l0.008,0.01l0.008,0.01l0.009,0.009l0.008,0.009l0.008,0.008l0.008,0.008l0.01,0.009l0.009,0.008l0.009,0.008l0.01,0.008l0.01,0.007l0.009,0.007l0.01,0.007l0.01,0.007l0.011,0.006l0.01,0.006l0.01,0.006l0.01,0.005l0.011,0.006l0.011,0.005l0.011,0.005l0.011,0.004l0.011,0.004l0.011,0.004l0.011,0.004l0.011,0.003l0.012,0.003l0.012,0.003l0.012,0.003l0.011,0.002l0.013,0.002l0.012,0.002l0.013,0.001l0.013,0.001l0.013,0.001l0.013,0.001l0.016,0l0.016,0l0.013,-0.001l0.013,-0.001l0.013,-0.001l0.013,-0.001l0.012,-0.002l0.013,-0.002l0.012,-0.002l0.011,-0.003l0.012,-0.003l0.012,-0.003l0.011,-0.003l0.011,-0.004l0.011,-0.004l0.011,-0.004l0.011,-0.004l0.011,-0.005l0.011,-0.005l0.01,-0.005l0.011,-0.006l0.01,-0.006l0.011,-0.006l0.01,-0.006l0.01,-0.007l0.01,-0.007l0.01,-0.007l0.01,-0.008l0.009,-0.007l0.009,-0.008l0.01,-0.008l0.008,-0.008l0.009,-0.009l0.008,-0.008l0.009,-0.01l0.008,-0.009l0.008,-0.009l0.008,-0.01l0.007,-0.009l0.007,-0.01l0.007,-0.01l0.007,-0.01l0.006,-0.011l0.006,-0.01l0.006,-0.009l0.006,-0.012l0.005,-0.011l0.005,-0.01l0.005,-0.011l0.004,-0.011l0.004,-0.011l0.004,-0.01l0.004,-0.012l0.003,-0.012l0.003,-0.011l0.003,-0.012l0.003,-0.012l0.002,-0.011l0.002,-0.012l0.002,-0.013l0.001,-0.013l0.001,-0.013l0.001,-0.013l0.001,-0.012l0,-0.027l0,-11.49l11,0l0,16l-3.996,0l-0.043,0l-0.037,0.001l-0.038,0.001l-0.037,0.002l-0.037,0.002l-0.037,0.002l-0.037,0.003l-0.036,0.004l-0.037,0.004l-0.037,0.004l-0.036,0.005l-0.037,0.005l-0.036,0.006l-0.037,0.006l-0.035,0.006l-0.03,0.006l-0.078,0.017l-0.072,0.017l-0.071,0.018l-0.07,0.021l-0.07,0.022l-0.069,0.024l-0.068,0.025l-0.068,0.027l-0.068,0.029l-0.066,0.031l-0.066,0.032l-0.065,0.033l-0.064,0.036l-0.063,0.037l-0.063,0.038l-0.066,0.043l-0.026,0.017l-0.03,0.021l-0.03,0.022l-0.029,0.021l-0.03,0.022l-0.029,0.023l-0.029,0.022l-0.029,0.024l-0.028,0.024l-0.029,0.024l-0.028,0.024l-0.027,0.024l-0.027,0.025l-0.027,0.026l-0.027,0.026l-0.027,0.026l-0.026,0.027l-0.026,0.026l-0.026,0.028l-0.025,0.027l-0.012,0.014l9.396,0l0.012,0l0,0l0.001,0l0.008,-0.009l1.811,-1.81l0.009,-0.009l0,-0.001l0,0l0,0l0,-0.011l0,-9.32l0,-0.011l0,0l0,0l-0.009,-0.01l-3.991,-3.991l0,-6.816l0,-0.037l-0.001,-0.024l-0.002,-0.026l-0.002,-0.024l-0.003,-0.024l-0.003,-0.025l-0.004,-0.024l-0.005,-0.024l-0.005,-0.024l-0.005,-0.024l-0.007,-0.024l-0.006,-0.023l-0.008,-0.023l-0.008,-0.023l-0.008,-0.022l-0.009,-0.023l-0.01,-0.023l-0.01,-0.022l-0.011,-0.023l-0.011,-0.021l-0.012,-0.021l-0.012,-0.021l-0.013,-0.021l-0.013,-0.02l-0.014,-0.021l-0.014,-0.02l-0.015,-0.019l-0.015,-0.02l-0.017,-0.019l-0.016,-0.018l-0.017,-0.019l-0.017,-0.017l-0.018,-0.017l-0.018,-0.017l-0.019,-0.017l-0.019,-0.016l-0.018,-0.015l-0.02,-0.015l-0.02,-0.014l-0.02,-0.014l-0.021,-0.013l-0.021,-0.013l-0.021,-0.012l-0.021,-0.012l-0.022,-0.011l-0.022,-0.011l-0.022,-0.01l-0.022,-0.01l-0.023,-0.009l-0.023,-0.008l-0.023,-0.008l-0.023,-0.008l-0.024,-0.006l-0.024,-0.007l-0.023,-0.005l-0.024,-0.005l-0.024,-0.005l-0.024,-0.004l-0.025,-0.003l-0.024,-0.003l-0.025,-0.002l-0.024,-0.002l-0.025,-0.001l-0.037,0l-11.329,0Zm4.341,10l0,7.514l-0.001,0.102l-0.005,0.116l-0.007,0.115l-0.01,0.113l-0.013,0.112l-0.015,0.112l-0.019,0.111l-0.021,0.112l-0.024,0.109l-0.027,0.109l-0.029,0.107l-0.009,0.031l0.034,-0.017l0.154,-0.075l0.155,-0.071l0.157,-0.067l0.158,-0.064l0.16,-0.059l0.162,-0.056l0.163,-0.052l0.164,-0.047l0.165,-0.044l0.167,-0.04l0.161,-0.034l0.09,-0.018l0.085,-0.015l0.084,-0.014l0.085,-0.013l0.086,-0.013l0.085,-0.011l0.086,-0.01l0.085,-0.009l0.086,-0.008l0.087,-0.007l0.086,-0.006l0.086,-0.004l0.087,-0.004l0.086,-0.003l0.087,-0.001l0.081,-0.001l0.008,0l0,-8l-3,0Z"/>
        </g>
        <g id="emoji">
            <path d="M28,14l1.707,1.707c0.188,0.188 0.293,0.442 0.293,0.707c0,1.622 0,7.557 0,9.758c0,0.53 -0.211,1.039 -0.586,1.414c-0.528,0.528 -1.3,1.3 -1.828,1.828c-0.375,0.375 -0.884,0.586 -1.414,0.586l-12.172,0c0,0 0,0 0,0c0.013,-0.687 -0.026,-2.758 0.86,-3.66c0.619,-0.403 9.823,-2.657 9.823,-2.657l1.317,-3.181l2,-6.502Z" style="fill:#a90eb1;"/>
            <path d="M22,11l4,1l2,2l0,8.502c0,1.193 -0.474,2.337 -1.317,3.181c-0.844,0.843 -1.988,1.317 -3.181,1.317c-0.001,0 -0.001,0 -0.002,0c-1.152,0 -2.203,-0.433 -2.999,-1.145c-0.823,0.735 -1.89,1.145 -2.999,1.145c-0.001,0 -0.001,0 -0.002,0c-0.734,0 -1.427,-0.176 -2.039,-0.488l-0.029,-0.014c-0.886,0.902 -1.432,2.138 -1.432,3.502l0,0l0,-3.5c0,-0.828 -0.672,-1.5 -1.5,-1.5c-0.531,0 -1,0 -1,0l0,-3l-6,0l0,-11l16.5,0Z" style="fill:#640082;"/>
            <path d="M3,9l0,-1.171c0,-1.291 0.826,-2.438 2.051,-2.846c1.768,-0.589 4.207,-1.402 5.333,-1.778c0.408,-0.136 0.835,-0.205 1.265,-0.205c1.934,0 7.744,0 11.351,0c0.796,0 1.559,0.316 2.121,0.879c0.563,0.562 0.879,1.325 0.879,2.121l0,16.502c0,1.38 -1.118,2.498 -2.498,2.498l-0.004,0c-1.38,0 -2.498,-1.118 -2.498,-2.498l0,-9.502l-1,0l0,9.502c0,1.38 -1.118,2.498 -2.498,2.498l-0.004,0c-1.38,0 -2.498,-1.118 -2.498,-2.498l0,-9.502l-1,0l0,9.502c0,1.38 -1.118,2.498 -2.498,2.498l-0.004,0c-1.38,0 -2.498,-1.118 -2.498,-2.498l0,-9.502l-1,0l0,6.502c0,1.38 -1.118,2.498 -2.498,2.498c-0.001,0 -0.003,0 -0.004,0c-1.38,0 -2.498,-1.118 -2.498,-2.498l0,-6.502l0,-2.024l0,-1.976l0,0Z" style="fill:#f10dc3;"/>
        </g>
    </g>
</svg>
