<?xml version="1.0" encoding="UTF-8" standalone="no"?>
<!DOCTYPE svg PUBLIC "-//W3C//DTD SVG 1.1//EN" "http://www.w3.org/Graphics/SVG/1.1/DTD/svg11.dtd">
<svg width="100%" height="100%" viewBox="0 0 32 32" version="1.1" xmlns="http://www.w3.org/2000/svg" xmlns:xlink="http://www.w3.org/1999/xlink" xml:space="preserve" xmlns:serif="http://www.serif.com/" style="fill-rule:evenodd;clip-rule:evenodd;stroke-linejoin:round;stroke-miterlimit:2;">
    <rect id="thumbs_up--hmn-" serif:id="thumbs_up [hmn]" x="0" y="0" width="32" height="32" style="fill:none;"/>
    <g id="outline">
        <path d="M8.764,14l3.236,-6.472l0,-6.528c0.719,0 1.437,-0.007 2.156,0.002c0.203,0.008 0.405,0.02 0.607,0.046c0.444,0.056 0.881,0.163 1.301,0.316c0.862,0.316 1.646,0.831 2.28,1.495c0.532,0.559 0.956,1.221 1.239,1.939c0.182,0.462 0.306,0.946 0.369,1.439c0.026,0.202 0.038,0.404 0.046,0.607c0.012,0.9 0.002,1.799 0.002,2.699c-0.003,0.227 -0.021,0.453 -0.06,0.677c-0.067,0.378 -0.19,0.739 -0.356,1.084l-0.338,0.677c2.448,-0.009 4.896,-0.011 7.343,0.02c0.148,0.006 0.295,0.017 0.441,0.039c0.343,0.052 0.677,0.156 0.988,0.306c0.405,0.195 0.771,0.468 1.072,0.8c0.285,0.313 0.512,0.677 0.667,1.071c0.15,0.379 0.232,0.785 0.242,1.194c0.009,0.352 -0.035,0.706 -0.132,1.046c-0.105,0.372 -0.273,0.726 -0.494,1.043c0.155,0.223 0.284,0.464 0.384,0.716c0.15,0.38 0.232,0.786 0.242,1.195c0.009,0.353 -0.035,0.706 -0.132,1.046c-0.101,0.356 -0.259,0.695 -0.466,1.002c-0.009,0.014 -0.019,0.027 -0.028,0.041c0.155,0.223 0.284,0.464 0.384,0.717c0.15,0.38 0.232,0.785 0.242,1.194c0.009,0.352 -0.035,0.706 -0.132,1.046c-0.124,0.437 -0.334,0.848 -0.614,1.205c-0.151,0.192 -0.322,0.367 -0.509,0.524c0.018,0.044 0.035,0.089 0.051,0.133c0.135,0.378 0.205,0.779 0.205,1.181c0,0.487 -0.103,0.973 -0.3,1.418c-0.233,0.525 -0.596,0.99 -1.049,1.343c-0.248,0.193 -0.522,0.353 -0.812,0.473c-0.421,0.174 -0.871,0.26 -1.327,0.266l-7.512,0c-4.034,0 -8.068,0.05 -12.102,-0.001c-0.102,-0.004 -0.102,-0.004 -0.204,-0.01c-0.398,-0.036 -0.788,-0.12 -1.161,-0.267c-1.055,-0.416 -1.9,-1.282 -2.29,-2.347c-0.15,-0.41 -0.225,-0.837 -0.242,-1.273c-0.039,-3.068 -0.038,-6.136 0,-9.204c0.005,-0.136 0.014,-0.27 0.031,-0.405c0.042,-0.329 0.124,-0.652 0.246,-0.96c0.236,-0.598 0.618,-1.136 1.104,-1.557c0.39,-0.338 0.846,-0.6 1.335,-0.766c0.411,-0.138 0.838,-0.205 1.27,-0.21l2.777,0Z"/>
    </g>
    <g id="emoji">
        <path d="M18.5,16l-12.5,0c-0.53,0 -1.039,0.211 -1.414,0.586c-0.375,0.375 -0.586,0.884 -0.586,1.414c0,2.444 0,6.556 0,9c0,0.53 0.211,1.039 0.586,1.414c0.375,0.375 0.884,0.586 1.414,0.586c3.977,0 12.5,0 12.5,0l0,-13Z" style="fill:#a90eb1;"/>
        <path d="M14,8c0,0 -2.828,5.655 -4.23,8.46c-0.506,1.013 -0.77,2.129 -0.77,3.262c0,1.67 0,4.241 0,6.253c0,0.803 0.319,1.572 0.886,2.139c0.567,0.567 1.336,0.886 2.139,0.886c4.763,0 13.475,0 13.475,0l0,-1.5l1.5,0l0,-12.004l-0.5,0l0,-1.496c0,0 -5.936,0 -8.882,0c-0.347,0 -0.668,-0.179 -0.851,-0.474c-0.182,-0.295 -0.198,-0.663 -0.043,-0.973c0.378,-0.756 0.813,-1.626 1.065,-2.131c0.139,-0.277 0.211,-0.584 0.211,-0.894c0,-0.549 0,-1.511 0,-2.53c0,-2.208 -1.79,-3.998 -3.998,-3.998c-0.001,0 -0.002,0 -0.002,0l0,5Z" style="fill:#f10dc3;"/>
        <clipPath id="_clip1">
            <path d="M14,8c0,0 -2.828,5.655 -4.23,8.46c-0.506,1.013 -0.77,2.129 -0.77,3.262c0,1.67 0,4.241 0,6.253c0,0.803 0.319,1.572 0.886,2.139c0.567,0.567 1.336,0.886 2.139,0.886c4.763,0 13.475,0 13.475,0l0,-1.5l1.5,0l0,-12.004l-0.5,0l0,-1.496c0,0 -5.936,0 -8.882,0c-0.347,0 -0.668,-0.179 -0.851,-0.474c-0.182,-0.295 -0.198,-0.663 -0.043,-0.973c0.378,-0.756 0.813,-1.626 1.065,-2.131c0.139,-0.277 0.211,-0.584 0.211,-0.894c0,-0.549 0,-1.511 0,-2.53c0,-2.208 -1.79,-3.998 -3.998,-3.998c-0.001,0 -0.002,0 -0.002,0l0,5Z"/>
        </clipPath>
        <g clip-path="url(#_clip1)">
            <path d="M19.628,17.157c-0.035,-0.039 -0.068,-0.079 -0.1,-0.121c-0.188,-0.241 -0.331,-0.516 -0.42,-0.809c-0.065,-0.215 -0.102,-0.44 -0.107,-0.665c-0.018,-0.701 0.268,-1.39 0.776,-1.873c0.177,-0.169 0.38,-0.312 0.6,-0.423c0.331,-0.166 0.692,-0.252 1.061,-0.265l0.056,-0.001l7.506,0l0,5l0,0l0,7l0,0l0,5c-2.522,0 -5.044,0.031 -7.566,-0.001c-0.064,-0.002 -0.127,-0.006 -0.19,-0.012c-0.369,-0.042 -0.724,-0.156 -1.042,-0.349c-0.222,-0.135 -0.423,-0.305 -0.593,-0.501c-0.184,-0.213 -0.332,-0.457 -0.435,-0.719c-0.231,-0.585 -0.231,-1.251 0,-1.836c0.106,-0.271 0.261,-0.522 0.454,-0.74c-0.123,-0.045 -0.243,-0.1 -0.359,-0.166c-0.286,-0.162 -0.539,-0.38 -0.741,-0.64c-0.188,-0.241 -0.331,-0.516 -0.42,-0.809c-0.072,-0.235 -0.108,-0.481 -0.108,-0.727c0,-0.701 0.302,-1.383 0.822,-1.853c0.057,-0.052 0.116,-0.101 0.178,-0.147c-0.177,-0.133 -0.336,-0.289 -0.472,-0.464c-0.188,-0.241 -0.331,-0.516 -0.42,-0.809c-0.072,-0.235 -0.108,-0.481 -0.108,-0.727c0,-0.701 0.302,-1.383 0.822,-1.853c0.167,-0.151 0.354,-0.28 0.555,-0.381c0.082,-0.041 0.166,-0.077 0.251,-0.109Z" style="fill:#640082;"/>
        </g>
        <path d="M25.5,26c0.398,0 0.779,0.158 1.061,0.439c0.281,0.282 0.439,0.663 0.439,1.061c0,0.398 -0.158,0.779 -0.439,1.061c-0.282,0.281 -0.663,0.439 -1.061,0.439c-1.181,0 -2.819,0 -4,0c-0.398,0 -0.779,-0.158 -1.061,-0.439c-0.281,-0.282 -0.439,-0.663 -0.439,-1.061c0,-0.398 0.158,-0.779 0.439,-1.061c0.282,-0.281 0.663,-0.439 1.061,-0.439c1.181,0 2.819,0 4,0Zm1,-4c0.398,0 0.779,0.158 1.061,0.439c0.281,0.282 0.439,0.663 0.439,1.061c0,0.398 -0.158,0.779 -0.439,1.061c-0.282,0.281 -0.663,0.439 -1.061,0.439c-1.665,0 -4.335,0 -6,0c-0.398,0 -0.779,-0.158 -1.061,-0.439c-0.281,-0.282 -0.439,-0.663 -0.439,-1.061c0,-0.398 0.158,-0.779 0.439,-1.061c0.282,-0.281 0.663,-0.439 1.061,-0.439c1.665,0 4.335,0 6,0Zm0,-4c0.398,0 0.779,0.158 1.061,0.439c0.281,0.282 0.439,0.663 0.439,1.061c0,0.398 -0.158,0.779 -0.439,1.061c-0.282,0.281 -0.663,0.439 -1.061,0.439c-1.665,0 -4.335,0 -6,0c-0.398,0 -0.779,-0.158 -1.061,-0.439c-0.281,-0.282 -0.439,-0.663 -0.439,-1.061c0,-0.398 0.158,-0.779 0.439,-1.061c0.282,-0.281 0.663,-0.439 1.061,-0.439c1.665,0 4.335,0 6,0Zm0,-4c0.398,0 0.779,0.158 1.061,0.439c0.281,0.282 0.439,0.663 0.439,1.061c0,0.398 -0.158,0.779 -0.439,1.061c-0.282,0.281 -0.663,0.439 -1.061,0.439c-1.43,0 -3.57,0 -5,0c-0.398,0 -0.779,-0.158 -1.061,-0.439c-0.281,-0.282 -0.439,-0.663 -0.439,-1.061c0,-0.398 0.158,-0.779 0.439,-1.061c0.282,-0.281 0.663,-0.439 1.061,-0.439c1.43,0 3.57,0 5,0Z" style="fill:#f10dc3;"/>
    </g>
</svg>
