<?xml version="1.0" encoding="UTF-8" standalone="no"?>
<!DOCTYPE svg PUBLIC "-//W3C//DTD SVG 1.1//EN" "http://www.w3.org/Graphics/SVG/1.1/DTD/svg11.dtd">
<svg width="100%" height="100%" viewBox="0 0 32 32" version="1.1" xmlns="http://www.w3.org/2000/svg" xmlns:xlink="http://www.w3.org/1999/xlink" xml:space="preserve" xmlns:serif="http://www.serif.com/" style="fill-rule:evenodd;clip-rule:evenodd;stroke-linejoin:round;stroke-miterlimit:2;">
    <rect id="v--hmn-" serif:id="v [hmn]" x="0" y="0" width="32" height="32" style="fill:none;"/>
    <clipPath id="_clip1">
        <rect x="0" y="0" width="32" height="32"/>
    </clipPath>
    <g clip-path="url(#_clip1)">
        <g id="outline">
            <path d="M19.751,6.492c0.159,-0.614 0.318,-1.228 0.476,-1.843c0.13,-0.512 0.26,-1.025 0.389,-1.538c0.041,-0.14 0.084,-0.278 0.138,-0.414c0.083,-0.207 0.184,-0.405 0.304,-0.592c0.457,-0.708 1.171,-1.242 1.983,-1.471c0.19,-0.054 0.385,-0.091 0.581,-0.113c0.059,-0.006 0.205,-0.019 0.252,-0.021c0.066,-0.002 0.133,0 0.2,0c0.068,0.003 0.135,0.006 0.203,0.009c0.143,0.017 0.284,0.034 0.425,0.063c0.278,0.056 0.547,0.145 0.803,0.266c0.346,0.165 0.664,0.388 0.939,0.656c0.519,0.506 0.875,1.172 1.003,1.886c0.05,0.28 0.064,0.566 0.045,0.849c-0.009,0.139 -0.028,0.275 -0.048,0.412c-0.091,0.41 -0.183,0.819 -0.277,1.228c-0.326,1.405 -0.673,2.805 -1.027,4.203c-0.377,1.471 -0.76,2.941 -1.14,4.411l0,2.289c0.077,0.044 0.076,0.045 0.156,0.095l0.117,0.077c0.188,0.135 0.368,0.278 0.533,0.441c0.489,0.482 0.85,1.088 1.039,1.748c0.091,0.315 0.136,0.635 0.153,0.962c0.016,0.909 0.007,1.818 0.001,2.728c-0.005,0.306 -0.022,0.612 -0.056,0.917c-0.076,0.678 -0.227,1.348 -0.45,1.994c-0.271,0.787 -0.648,1.536 -1.118,2.223c-0.411,0.6 -0.892,1.151 -1.431,1.639c-1.324,1.199 -2.989,1.999 -4.752,2.285c-0.377,0.061 -0.757,0.098 -1.139,0.113c-0.344,0.012 -0.691,0.006 -1.035,0.006c-1.107,-0.001 -2.213,-0.167 -3.271,-0.496c-1.066,-0.332 -2.08,-0.827 -2.997,-1.463c-1.86,-1.29 -3.302,-3.149 -4.08,-5.275c-0.299,-0.815 -0.5,-1.665 -0.598,-2.527c-0.043,-0.373 -0.064,-0.747 -0.071,-1.122l-0.001,-0.117l0,0l0,-0.029c-0.003,-0.567 -0.004,-1.134 -0.004,-1.7c-0.007,-1.953 -0.019,-3.906 0.005,-5.858c0.014,-0.374 0.078,-0.741 0.204,-1.093c0.34,-0.951 1.093,-1.722 2.035,-2.085c0.376,-0.146 0.771,-0.219 1.173,-0.234c0.087,-0.001 0.087,-0.001 0.174,0c0.402,0.015 0.797,0.088 1.173,0.234c0.019,0.007 0.037,0.014 0.056,0.022c0.397,-0.474 0.916,-0.842 1.504,-1.052c0.253,-0.091 0.513,-0.149 0.778,-0.18c-0.04,-0.158 -0.079,-0.316 -0.119,-0.474c-0.253,-1.02 -0.498,-2.042 -0.732,-3.067l-0.088,-0.386c-0.033,-0.152 -0.07,-0.304 -0.101,-0.457c-0.016,-0.079 -0.033,-0.237 -0.042,-0.324c-0.029,-0.312 -0.016,-0.629 0.039,-0.937c0.14,-0.782 0.555,-1.505 1.155,-2.026c0.264,-0.229 0.562,-0.417 0.881,-0.559c0.268,-0.118 0.55,-0.199 0.839,-0.247c0.073,-0.012 0.229,-0.034 0.295,-0.039c0.067,-0.006 0.135,-0.006 0.203,-0.009c0.067,0 0.133,0 0.2,0c0.12,0.009 0.239,0.018 0.358,0.035c0.231,0.032 0.459,0.086 0.679,0.164c0.779,0.274 1.457,0.833 1.867,1.552c0.156,0.272 0.266,0.56 0.354,0.86c0.192,0.764 0.386,1.526 0.582,2.288c0.094,0.365 0.188,0.729 0.283,1.093Z"/>
        </g>
        <g id="emoji">
            <path d="M23.894,18.447c0.678,0.339 1.106,1.032 1.106,1.789c0,0.657 0,1.524 0,2.471c0,1.934 -0.768,3.789 -2.136,5.157c-1.368,1.368 -3.223,2.136 -5.157,2.136c-0.226,0 -0.454,0 -0.682,0c-4.984,0 -9.025,-4.041 -9.025,-9.025l0,-7.475l1.5,0l0,-1.5l8.5,0l0,2l5,0l0,4c0,0 0.432,0.216 0.894,0.447Z" style="fill:#f10dc3;"/>
            <clipPath id="_clip2">
                <path d="M23.894,18.447c0.678,0.339 1.106,1.032 1.106,1.789c0,0.657 0,1.524 0,2.471c0,1.934 -0.768,3.789 -2.136,5.157c-1.368,1.368 -3.223,2.136 -5.157,2.136c-0.226,0 -0.454,0 -0.682,0c-4.984,0 -9.025,-4.041 -9.025,-9.025l0,-7.475l1.5,0l0,-1.5l8.5,0l0,2l5,0l0,4c0,0 0.432,0.216 0.894,0.447Z"/>
            </clipPath>
            <g clip-path="url(#_clip2)">
                <path d="M16.546,20.001c0.133,0.009 0.262,0.038 0.383,0.096c0.354,0.168 0.581,0.538 0.571,0.929c-0.004,0.134 -0.036,0.262 -0.089,0.385c-0.651,1.371 -1.33,2.728 -2.035,4.071c-0.074,0.128 -0.168,0.239 -0.287,0.326c-0.107,0.078 -0.23,0.135 -0.359,0.165c-0.116,0.028 -0.237,0.034 -0.355,0.019c-0.361,-0.045 -0.675,-0.291 -0.807,-0.629c-0.038,-0.099 -0.061,-0.204 -0.067,-0.31c-0.008,-0.161 0.024,-0.317 0.088,-0.464c0.651,-1.371 1.33,-2.728 2.035,-4.071c0.121,-0.21 0.303,-0.373 0.532,-0.457c0.075,-0.027 0.152,-0.044 0.231,-0.055c0.053,-0.005 0.106,-0.006 0.159,-0.005Z" style="fill:#a90eb1;fill-rule:nonzero;"/>
                <rect x="15" y="16" width="9" height="2" style="fill:#2b2b2b;fill-rule:nonzero;"/>
                <path d="M9.5,13.5l0,-2.5l12,0l0,1.5l2.5,0l0,5.499l-8,0.001l0,0.506c-0.004,0.327 -0.065,0.648 -0.19,0.951c-0.086,0.207 -0.2,0.403 -0.338,0.58c-0.483,0.619 -1.248,0.982 -2.034,0.962c-0.286,-0.007 -0.571,-0.063 -0.838,-0.167c-0.286,-0.11 -0.551,-0.273 -0.778,-0.479c-0.243,-0.22 -0.442,-0.488 -0.582,-0.785c-0.031,-0.064 -0.058,-0.13 -0.083,-0.196c-0.501,0.442 -1.173,0.671 -1.843,0.621c-0.224,-0.017 -0.446,-0.064 -0.657,-0.139c-0.288,-0.104 -0.557,-0.26 -0.789,-0.46c-0.248,-0.214 -0.454,-0.478 -0.602,-0.771c-0.099,-0.198 -0.17,-0.408 -0.214,-0.623l-0.052,0l0,-0.496c-0.016,-1.334 -0.016,-2.669 0,-4.004l2.5,0Z" style="fill:#640082;"/>
            </g>
            <path d="M12,12.5c0,-0.398 0.158,-0.779 0.439,-1.061c0.282,-0.281 0.663,-0.439 1.061,-0.439c0.398,0 0.779,0.158 1.061,0.439c0.281,0.282 0.439,0.663 0.439,1.061c0,1.665 0,4.335 0,6c0,0.398 -0.158,0.779 -0.439,1.061c-0.282,0.281 -0.663,0.439 -1.061,0.439c-0.398,0 -0.779,-0.158 -1.061,-0.439c-0.281,-0.282 -0.439,-0.663 -0.439,-1.061c0,-1.665 0,-4.335 0,-6Zm-4,1c0,-0.398 0.158,-0.779 0.439,-1.061c0.282,-0.281 0.663,-0.439 1.061,-0.439c0.398,0 0.779,0.158 1.061,0.439c0.281,0.282 0.439,0.663 0.439,1.061c0,1.181 0,2.819 0,4c0,0.398 -0.158,0.779 -0.439,1.061c-0.282,0.281 -0.663,0.439 -1.061,0.439c-0.398,0 -0.779,-0.158 -1.061,-0.439c-0.281,-0.282 -0.439,-0.663 -0.439,-1.061c0,-1.181 0,-2.819 0,-4Zm14.548,2.5c-0.03,0.121 -0.061,0.242 -0.091,0.363c-0.02,0.072 -0.024,0.091 -0.05,0.161c-0.059,0.158 -0.144,0.305 -0.252,0.435c-0.126,0.151 -0.281,0.276 -0.455,0.368c-0.149,0.078 -0.311,0.131 -0.477,0.156c-0.506,0.075 -1.027,-0.119 -1.36,-0.507c-0.04,-0.048 -0.078,-0.097 -0.112,-0.149c-0.003,0.005 -0.007,0.01 -0.01,0.015c-0.095,0.139 -0.213,0.262 -0.348,0.363c-0.411,0.304 -0.962,0.378 -1.438,0.192c-0.131,-0.051 -0.254,-0.121 -0.366,-0.206c-0.178,-0.136 -0.325,-0.313 -0.427,-0.513c-0.038,-0.076 -0.067,-0.154 -0.095,-0.234c-1.119,-3.997 -2.015,-8.054 -3.022,-12.081c-0.043,-0.194 -0.058,-0.387 -0.029,-0.584c0.076,-0.506 0.413,-0.948 0.882,-1.153c0.156,-0.069 0.318,-0.104 0.487,-0.122c0.084,-0.004 0.084,-0.004 0.168,-0.004c0.141,0.009 0.278,0.03 0.413,0.074c0.321,0.105 0.602,0.319 0.787,0.601c0.078,0.119 0.134,0.246 0.18,0.38c0.967,3.456 1.769,6.957 2.619,10.445l0.368,0c0.816,-3.469 1.762,-6.907 2.627,-10.364c0.038,-0.137 0.086,-0.266 0.157,-0.389c0.184,-0.317 0.483,-0.56 0.832,-0.673c0.135,-0.044 0.271,-0.065 0.413,-0.074c0.084,0 0.083,0 0.168,0.004c0.197,0.02 0.386,0.067 0.563,0.158c0.43,0.218 0.735,0.64 0.806,1.117c0.025,0.168 0.016,0.334 -0.011,0.502c-0.735,3.337 -1.623,6.638 -2.475,9.947l0,1.772l-0.452,0Z" style="fill:#f10dc3;"/>
            <path d="M23,18l-6.873,0c0.022,0.083 0.022,0.082 0.046,0.165c0.099,0.311 0.226,0.609 0.394,0.89c0.524,0.875 1.379,1.526 2.362,1.799c0.35,0.097 0.709,0.144 1.072,0.146l0.413,0l2.293,2.293l-1.414,1.414l-1.723,-1.722c-0.104,-0.007 -0.208,-0.018 -0.312,-0.031c-0.582,-0.076 -1.152,-0.23 -1.69,-0.468c-1.127,-0.499 -2.085,-1.347 -2.717,-2.404c-0.226,-0.377 -0.41,-0.779 -0.548,-1.196c-0.193,-0.585 -0.291,-1.194 -0.303,-1.81l0,-0.071l0,-1.005l9,0l0,2Z" style="fill:#640082;fill-rule:nonzero;"/>
        </g>
    </g>
</svg>
