<?xml version="1.0" encoding="UTF-8" standalone="no"?>
<!DOCTYPE svg PUBLIC "-//W3C//DTD SVG 1.1//EN" "http://www.w3.org/Graphics/SVG/1.1/DTD/svg11.dtd">
<svg width="100%" height="100%" viewBox="0 0 32 32" version="1.1" xmlns="http://www.w3.org/2000/svg" xmlns:xlink="http://www.w3.org/1999/xlink" xml:space="preserve" xmlns:serif="http://www.serif.com/" style="fill-rule:evenodd;clip-rule:evenodd;stroke-linejoin:round;stroke-miterlimit:2;">
    <rect id="vulcan--hmn-" serif:id="vulcan [hmn]" x="0" y="0" width="32" height="32" style="fill:none;"/>
    <clipPath id="_clip1">
        <rect x="0" y="0" width="32" height="32"/>
    </clipPath>
    <g clip-path="url(#_clip1)">
        <g id="outline">
            <path d="M11.934,11.136c0.141,-0.57 0.284,-1.139 0.428,-1.708c0.451,-1.761 0.911,-3.518 1.363,-5.278c0.131,-0.513 0.26,-1.025 0.389,-1.538c0.031,-0.103 0.03,-0.103 0.063,-0.206c0.097,-0.281 0.218,-0.549 0.38,-0.8c0.456,-0.708 1.17,-1.242 1.982,-1.472c0.19,-0.053 0.385,-0.09 0.582,-0.112c0.059,-0.006 0.203,-0.019 0.251,-0.021c0.067,-0.002 0.133,0 0.2,0c0.068,0.003 0.136,0.006 0.203,0.009c0.143,0.017 0.285,0.034 0.426,0.063c0.277,0.056 0.547,0.144 0.802,0.266c0.315,0.15 0.607,0.348 0.864,0.584c0.464,0.427 0.807,0.977 0.987,1.579l0.018,-0.001c0.067,-0.002 0.133,0 0.2,0c0.068,0.003 0.136,0.006 0.203,0.008c0.143,0.017 0.285,0.035 0.426,0.063c0.277,0.057 0.547,0.145 0.802,0.267c0.346,0.165 0.664,0.387 0.939,0.655c0.519,0.507 0.875,1.173 1.003,1.887c0.05,0.28 0.064,0.566 0.045,0.849c-0.009,0.139 -0.028,0.275 -0.048,0.412c-0.091,0.41 -0.183,0.819 -0.277,1.228c-0.326,1.405 -0.673,2.804 -1.027,4.203c-0.376,1.468 -0.759,2.936 -1.138,4.404l0,0.437l0.094,-0.085c0.232,-0.2 0.472,-0.387 0.73,-0.553c0.64,-0.413 1.357,-0.703 2.103,-0.853c0.404,-0.08 0.812,-0.114 1.224,-0.117c0.154,0.003 0.154,0.003 0.308,0.009c0.408,0.028 0.811,0.087 1.207,0.191c0.736,0.194 1.434,0.528 2.048,0.978c0.24,0.177 0.464,0.371 0.677,0.579l1.464,1.41c-0.98,0.98 -1.96,1.961 -2.941,2.941c-2.648,2.649 -5.281,5.313 -7.946,7.945c-0.083,0.08 -0.167,0.159 -0.252,0.237c-0.369,0.331 -0.76,0.635 -1.176,0.905c-0.92,0.598 -1.946,1.03 -3.017,1.271c-0.634,0.143 -1.279,0.215 -1.928,0.227c-0.236,0.002 -0.472,0.002 -0.707,0c-0.364,-0.007 -0.726,-0.027 -1.088,-0.067c-0.849,-0.095 -1.688,-0.289 -2.493,-0.578c-1.399,-0.501 -2.693,-1.287 -3.782,-2.298c-1.324,-1.229 -2.336,-2.782 -2.924,-4.49c-0.264,-0.766 -0.443,-1.561 -0.533,-2.366c-0.04,-0.362 -0.06,-0.724 -0.067,-1.088l-0.001,-0.131l0,-1.76c-0.203,-0.603 -0.404,-1.208 -0.604,-1.813c-0.577,-1.766 -1.145,-3.534 -1.721,-5.301c-0.169,-0.515 -0.339,-1.03 -0.51,-1.545l-0.043,-0.15c-0.037,-0.153 -0.07,-0.305 -0.091,-0.461c-0.042,-0.311 -0.041,-0.627 0.003,-0.938c0.124,-0.882 0.594,-1.7 1.291,-2.255c0.24,-0.191 0.505,-0.35 0.786,-0.472c0.288,-0.123 0.593,-0.209 0.903,-0.251c0.097,-0.013 0.238,-0.03 0.331,-0.034c0.052,-0.002 0.103,-0.001 0.155,-0.001c-0.001,-0.22 0.02,-0.439 0.061,-0.655c0.09,-0.468 0.277,-0.916 0.544,-1.311c0.366,-0.538 0.88,-0.971 1.476,-1.234c0.258,-0.114 0.532,-0.197 0.81,-0.245c0.097,-0.016 0.236,-0.038 0.33,-0.045c0.068,-0.006 0.137,-0.006 0.206,-0.009c0.067,0 0.134,0 0.2,0c0.12,0.009 0.24,0.018 0.359,0.034c0.204,0.029 0.406,0.074 0.602,0.138c0.749,0.246 1.402,0.745 1.836,1.403c0.113,0.172 0.21,0.356 0.291,0.545c0.046,0.109 0.086,0.22 0.125,0.332c0.112,0.402 0.223,0.804 0.332,1.207c0.374,1.393 0.726,2.792 1.072,4.192c0.063,0.261 0.127,0.522 0.19,0.784Z"/>
        </g>
        <g id="emoji">
            <path d="M13.074,15c0.885,-3.979 1.981,-7.909 2.97,-11.863c0.038,-0.137 0.086,-0.266 0.157,-0.389c0.184,-0.317 0.484,-0.559 0.832,-0.673c0.135,-0.044 0.272,-0.065 0.413,-0.074c0.084,0 0.084,0 0.168,0.004c0.169,0.018 0.331,0.053 0.488,0.122c0.441,0.193 0.768,0.598 0.866,1.07c0.04,0.195 0.036,0.389 0.004,0.585c-0.755,3.428 -1.671,6.818 -2.545,10.218l0.975,0c0.693,-2.793 1.444,-5.572 2.142,-8.364c0.038,-0.136 0.086,-0.265 0.157,-0.388c0.184,-0.317 0.484,-0.56 0.832,-0.673c0.135,-0.045 0.272,-0.065 0.413,-0.074c0.084,0 0.084,0 0.168,0.004c0.197,0.02 0.386,0.067 0.564,0.157c0.429,0.218 0.734,0.641 0.805,1.117c0.025,0.169 0.017,0.335 -0.011,0.503c-0.734,3.333 -1.62,6.63 -2.472,9.936l0,3.224c0,0.412 0.252,0.782 0.636,0.932c0.383,0.15 0.82,0.049 1.099,-0.253c0.435,-0.472 0.913,-0.99 1.388,-1.504c0.752,-0.815 1.804,-1.288 2.913,-1.31c1.109,-0.022 2.179,0.408 2.964,1.193c0,0 0,0 0,0c0,0 -6.038,6.038 -9.364,9.364c-1.368,1.368 -3.223,2.136 -5.157,2.136c-0.148,0 -0.3,0 -0.454,0c-2.394,0 -4.689,-0.951 -6.382,-2.643c-1.692,-1.693 -2.643,-3.988 -2.643,-6.382l0,-2.078c-1.003,-2.964 -1.933,-5.954 -2.923,-8.923c-0.057,-0.19 -0.087,-0.382 -0.073,-0.581c0.038,-0.539 0.375,-1.027 0.865,-1.255c0.181,-0.083 0.371,-0.124 0.569,-0.137c0.085,-0.001 0.084,-0.001 0.168,0.002c0.141,0.014 0.277,0.039 0.41,0.088c0.291,0.107 0.545,0.304 0.72,0.559c0.064,0.093 0.114,0.192 0.158,0.296c0.851,2.332 1.626,4.692 2.391,7.054l0.624,0c-0.83,-3.201 -1.562,-6.428 -2.365,-9.636c-0.036,-0.166 -0.054,-0.331 -0.038,-0.501c0.047,-0.509 0.359,-0.969 0.815,-1.201c0.178,-0.09 0.366,-0.137 0.564,-0.157c0.084,-0.005 0.084,-0.005 0.168,-0.004c0.141,0.009 0.278,0.029 0.413,0.073c0.321,0.105 0.601,0.32 0.787,0.602c0.078,0.119 0.134,0.246 0.179,0.379c0.876,3.126 1.615,6.289 2.377,9.445l2.265,0Z" style="fill:#f10dc3;"/>
            <clipPath id="_clip2">
                <path d="M13.074,15c0.885,-3.979 1.981,-7.909 2.97,-11.863c0.038,-0.137 0.086,-0.266 0.157,-0.389c0.184,-0.317 0.484,-0.559 0.832,-0.673c0.135,-0.044 0.272,-0.065 0.413,-0.074c0.084,0 0.084,0 0.168,0.004c0.169,0.018 0.331,0.053 0.488,0.122c0.441,0.193 0.768,0.598 0.866,1.07c0.04,0.195 0.036,0.389 0.004,0.585c-0.755,3.428 -1.671,6.818 -2.545,10.218l0.975,0c0.693,-2.793 1.444,-5.572 2.142,-8.364c0.038,-0.136 0.086,-0.265 0.157,-0.388c0.184,-0.317 0.484,-0.56 0.832,-0.673c0.135,-0.045 0.272,-0.065 0.413,-0.074c0.084,0 0.084,0 0.168,0.004c0.197,0.02 0.386,0.067 0.564,0.157c0.429,0.218 0.734,0.641 0.805,1.117c0.025,0.169 0.017,0.335 -0.011,0.503c-0.734,3.333 -1.62,6.63 -2.472,9.936l0,3.224c0,0.412 0.252,0.782 0.636,0.932c0.383,0.15 0.82,0.049 1.099,-0.253c0.435,-0.472 0.913,-0.99 1.388,-1.504c0.752,-0.815 1.804,-1.288 2.913,-1.31c1.109,-0.022 2.179,0.408 2.964,1.193c0,0 0,0 0,0c0,0 -6.038,6.038 -9.364,9.364c-1.368,1.368 -3.223,2.136 -5.157,2.136c-0.148,0 -0.3,0 -0.454,0c-2.394,0 -4.689,-0.951 -6.382,-2.643c-1.692,-1.693 -2.643,-3.988 -2.643,-6.382l0,-2.078c-1.003,-2.964 -1.933,-5.954 -2.923,-8.923c-0.057,-0.19 -0.087,-0.382 -0.073,-0.581c0.038,-0.539 0.375,-1.027 0.865,-1.255c0.181,-0.083 0.371,-0.124 0.569,-0.137c0.085,-0.001 0.084,-0.001 0.168,0.002c0.141,0.014 0.277,0.039 0.41,0.088c0.291,0.107 0.545,0.304 0.72,0.559c0.064,0.093 0.114,0.192 0.158,0.296c0.851,2.332 1.626,4.692 2.391,7.054l0.624,0c-0.83,-3.201 -1.562,-6.428 -2.365,-9.636c-0.036,-0.166 -0.054,-0.331 -0.038,-0.501c0.047,-0.509 0.359,-0.969 0.815,-1.201c0.178,-0.09 0.366,-0.137 0.564,-0.157c0.084,-0.005 0.084,-0.005 0.168,-0.004c0.141,0.009 0.278,0.029 0.413,0.073c0.321,0.105 0.601,0.32 0.787,0.602c0.078,0.119 0.134,0.246 0.179,0.379c0.876,3.126 1.615,6.289 2.377,9.445l2.265,0Z"/>
            </clipPath>
            <g clip-path="url(#_clip2)">
                <path d="M16.225,19.469c0.297,0.019 0.591,0.059 0.88,0.132c0.322,0.08 0.635,0.197 0.932,0.346c0.132,0.066 0.259,0.14 0.384,0.217l4.872,-4.871c0.121,-0.113 0.255,-0.201 0.415,-0.249c0.133,-0.041 0.275,-0.054 0.414,-0.037c0.115,0.015 0.228,0.049 0.332,0.102c0.382,0.194 0.601,0.624 0.534,1.047c-0.026,0.162 -0.091,0.316 -0.189,0.446c-0.038,0.049 -0.05,0.06 -0.092,0.105l-6.207,6.207c-0.251,-0.251 -0.499,-0.504 -0.753,-0.752c-0.046,-0.043 -0.093,-0.084 -0.141,-0.124c-0.211,-0.169 -0.442,-0.307 -0.694,-0.404c-0.642,-0.248 -1.372,-0.221 -1.995,0.073c-0.245,0.116 -0.465,0.271 -0.664,0.455c-0.69,0.673 -1.364,1.363 -2.046,2.045c-0.121,0.113 -0.255,0.201 -0.415,0.249c-0.111,0.034 -0.228,0.049 -0.344,0.043c-0.117,-0.006 -0.232,-0.033 -0.339,-0.078c-0.371,-0.158 -0.616,-0.535 -0.609,-0.938c0.003,-0.164 0.046,-0.325 0.125,-0.468c0.035,-0.062 0.076,-0.116 0.12,-0.171c0.661,-0.708 1.368,-1.372 2.053,-2.057c0.186,-0.181 0.382,-0.349 0.595,-0.499c0.483,-0.34 1.033,-0.583 1.61,-0.713c0.328,-0.074 0.661,-0.107 0.997,-0.111c0.113,0.001 0.112,0.001 0.225,0.005Z" style="fill:#a90eb1;fill-rule:nonzero;"/>
            </g>
        </g>
    </g>
</svg>
