<?xml version="1.0" encoding="UTF-8" standalone="no"?>
<!DOCTYPE svg PUBLIC "-//W3C//DTD SVG 1.1//EN" "http://www.w3.org/Graphics/SVG/1.1/DTD/svg11.dtd">
<svg width="100%" height="100%" viewBox="0 0 32 32" version="1.1" xmlns="http://www.w3.org/2000/svg" xmlns:xlink="http://www.w3.org/1999/xlink" xml:space="preserve" xmlns:serif="http://www.serif.com/" style="fill-rule:evenodd;clip-rule:evenodd;stroke-linejoin:round;stroke-miterlimit:2;">
    <rect id="writing_hand--hmn-" serif:id="writing_hand [hmn]" x="0" y="0" width="32" height="32" style="fill:none;"/>
    <clipPath id="_clip1">
        <rect x="0" y="0" width="32" height="32"/>
    </clipPath>
    <g clip-path="url(#_clip1)">
        <g id="outline">
            <path d="M16.163,8.509c0,0 3.421,-3.421 5.423,-5.423c0.375,-0.375 0.884,-0.586 1.414,-0.586c0.531,0 1.039,0.211 1.414,0.586c0.481,0.481 1.019,1.019 1.5,1.5c0.781,0.781 0.781,2.047 0,2.828c-1.595,1.596 -3.971,3.971 -3.971,3.971l5.768,4.603l2.289,0c1.105,0 2,0.895 2,2l0,7.012c0,1.105 -0.895,2 -2,2c-5.557,0 -18.302,0 -18.302,0c-0.177,0.123 -0.36,0.236 -0.551,0.338c-0.607,0.324 -1.272,0.535 -1.954,0.619c-0.381,0.048 -0.768,0.059 -1.151,0.02c-0.408,-0.041 -0.811,-0.139 -1.192,-0.29c-0.279,-0.11 -0.547,-0.248 -0.798,-0.411l-1.724,1.724l-4.328,0l0,-4.328l1.002,-1.002l2.829,-8.487c0.032,-0.093 0.032,-0.092 0.067,-0.184c0.077,-0.191 0.165,-0.378 0.269,-0.556c0.258,-0.442 0.601,-0.832 1.005,-1.146c0.218,-0.169 0.454,-0.311 0.7,-0.435c1.41,-0.663 2.833,-1.297 4.253,-1.936c1.482,-0.678 2.963,-1.359 4.453,-2.021c0.426,-0.181 0.871,-0.308 1.331,-0.369c0.084,-0.012 0.169,-0.021 0.254,-0.027Z"/>
        </g>
        <g id="emoji">
            <rect x="9" y="21" width="13" height="4" style="fill:#640082;"/>
            <path d="M12,12.273c0,0 -3.575,1.625 -5.206,2.366c-0.506,0.23 -0.894,0.661 -1.07,1.188c-0.742,2.226 -2.724,8.173 -2.724,8.173c0,0 0,0 0,0c1.657,0.552 3.448,-0.343 4,-2c0.5,-1.5 1,-3 1,-3l7,-3.5" style="fill:#f10dc3;"/>
            <clipPath id="_clip2">
                <path d="M12,12.273c0,0 -3.575,1.625 -5.206,2.366c-0.506,0.23 -0.894,0.661 -1.07,1.188c-0.742,2.226 -2.724,8.173 -2.724,8.173c0,0 0,0 0,0c1.657,0.552 3.448,-0.343 4,-2c0.5,-1.5 1,-3 1,-3l7,-3.5"/>
            </clipPath>
            <g clip-path="url(#_clip2)">
                <path d="M15.898,13.505c0.21,0.007 0.418,0.028 0.624,0.069c0.524,0.104 1.023,0.323 1.455,0.637c0.142,0.104 0.282,0.218 0.406,0.344c0.004,0.004 -0.02,-0.019 -0.015,-0.014c0.099,0.099 0.193,0.2 0.273,0.316c0.22,0.316 0.346,0.694 0.358,1.079c0.008,0.244 -0.029,0.489 -0.11,0.72c-0.057,0.165 -0.136,0.322 -0.234,0.467c-0.296,0.436 -0.761,0.742 -1.279,0.841c-0.205,0.04 -0.417,0.047 -0.625,0.02c-0.243,-0.03 -0.479,-0.105 -0.695,-0.221c-0.093,-0.049 -0.178,-0.108 -0.264,-0.169l-0.012,-0.009l-11.642,8.059l-0.087,0.058c-0.091,0.053 -0.182,0.102 -0.279,0.143c-0.226,0.094 -0.468,0.147 -0.713,0.154c-0.174,0.005 -0.349,-0.013 -0.519,-0.053c-0.513,-0.121 -0.965,-0.447 -1.242,-0.895c-0.11,-0.178 -0.192,-0.374 -0.241,-0.577c-0.058,-0.238 -0.072,-0.486 -0.041,-0.728c0.031,-0.243 0.107,-0.479 0.223,-0.694c0.099,-0.185 0.228,-0.353 0.379,-0.498c0.077,-0.073 0.159,-0.136 0.244,-0.198c3.968,-2.748 7.906,-5.54 11.906,-8.242c0.184,-0.119 0.375,-0.225 0.577,-0.311c0.394,-0.169 0.811,-0.263 1.238,-0.293c0.105,-0.005 0.209,-0.007 0.315,-0.005Z" style="fill:#a90eb1;fill-rule:nonzero;"/>
            </g>
            <path d="M3.5,27l4,-4l3.5,0l0,-4l4,0l0,-3l-0.5,0l0,-2l-12.5,0l0,13l1.5,0Z" style="fill:none;"/>
            <clipPath id="_clip3">
                <path d="M3.5,27l4,-4l3.5,0l0,-4l4,0l0,-3l-0.5,0l0,-2l-12.5,0l0,13l1.5,0Z"/>
            </clipPath>
            <g clip-path="url(#_clip3)">
                <path d="M2,25.5l0,1.5l1.5,0l11.5,-11.5l-1.5,-1.5l-11.5,11.5Z" style="fill:#fff;"/>
                <path d="M21,16c0.096,0.003 0.096,8.997 0,9l-7.172,0l-1.362,1.362c-0.096,0.094 -0.095,0.093 -0.193,0.184c-0.312,0.275 -0.644,0.521 -1.006,0.726c-0.678,0.384 -1.436,0.624 -2.211,0.701c-0.637,0.063 -1.28,0.015 -1.893,-0.175c-0.315,-0.098 -0.619,-0.231 -0.904,-0.395c-0.344,-0.198 -0.661,-0.441 -0.941,-0.721c-0.331,-0.331 -0.611,-0.715 -0.825,-1.132c-0.253,-0.496 -0.414,-1.038 -0.47,-1.592c-0.032,-0.318 -0.023,-0.638 -0.023,-0.958l0.003,-0.105c0.014,-0.177 0.041,-0.348 0.096,-0.517c0.121,-0.368 0.349,-0.698 0.652,-0.94c0.111,-0.089 0.23,-0.16 0.355,-0.227l1.403,-0.702l1.434,-2.867c0.044,-0.085 0.044,-0.084 0.092,-0.168c0.11,-0.179 0.231,-0.349 0.374,-0.504c0.372,-0.405 0.854,-0.703 1.381,-0.854c0.237,-0.068 0.477,-0.101 0.722,-0.114c3.496,-0.062 6.992,-0.002 10.488,-0.002Z" style="fill:#640082;fill-rule:nonzero;"/>
                <path d="M14.5,16l-2,2l3.5,0l0,-2l-1.5,0Z"/>
            </g>
            <path d="M21,23l-8,0c0,0 -1.076,1.076 -1.94,1.94c-0.679,0.679 -1.599,1.06 -2.559,1.06c-0.001,0 -0.001,0 -0.001,0c-1.381,0 -2.5,-1.119 -2.5,-2.5c0,-0.299 0,-0.5 0,-0.5l2,-1c0,0 1.175,-2.35 1.724,-3.447c0.169,-0.339 0.515,-0.553 0.894,-0.553c2.321,0 10.382,0 10.382,0" style="fill:#f10dc3;"/>
            <path d="M16,23c0,0 0.927,0.464 1.889,0.944c1.388,0.695 2.919,1.056 4.472,1.056c2.956,0 7.639,0 7.639,0l0,-7.012l-2.989,0c0,0 -5.804,-4.631 -8.573,-6.841c-0.882,-0.704 -2.085,-0.853 -3.113,-0.386c-1.775,0.807 -4.325,1.966 -4.325,1.966l3,3.273c0,0 0.308,-0.154 0.682,-0.341c0.787,-0.394 1.738,-0.239 2.36,0.383c0.082,0.082 0.166,0.166 0.251,0.251c0.286,0.286 0.371,0.716 0.217,1.09c-0.155,0.373 -0.52,0.617 -0.924,0.617c-0.345,0 -0.586,0 -0.586,0" style="fill:#f10dc3;"/>
            <clipPath id="_clip4">
                <path d="M16,23c0,0 0.927,0.464 1.889,0.944c1.388,0.695 2.919,1.056 4.472,1.056c2.956,0 7.639,0 7.639,0l0,-7.012l-2.989,0c0,0 -5.804,-4.631 -8.573,-6.841c-0.882,-0.704 -2.085,-0.853 -3.113,-0.386c-1.775,0.807 -4.325,1.966 -4.325,1.966l3,3.273c0,0 0.308,-0.154 0.682,-0.341c0.787,-0.394 1.738,-0.239 2.36,0.383c0.082,0.082 0.166,0.166 0.251,0.251c0.286,0.286 0.371,0.716 0.217,1.09c-0.155,0.373 -0.52,0.617 -0.924,0.617c-0.345,0 -0.586,0 -0.586,0"/>
            </clipPath>
            <g clip-path="url(#_clip4)">
                <rect x="26" y="17" width="5" height="10" style="fill:#a90eb1;"/>
                <path d="M13.116,14.555l9.384,-9.383c0.943,0.942 1.886,1.885 2.828,2.828l-6.76,6.76c0.026,0.031 0.05,0.064 0.073,0.097c0.22,0.316 0.346,0.694 0.358,1.079c0.008,0.244 -0.029,0.489 -0.11,0.72c-0.057,0.165 -0.136,0.322 -0.234,0.467c-0.296,0.436 -0.761,0.742 -1.279,0.841c-0.205,0.04 -0.417,0.047 -0.625,0.02c-0.243,-0.03 -0.479,-0.105 -0.695,-0.221c-0.093,-0.049 -0.178,-0.108 -0.264,-0.169l-0.012,-0.009l-0.118,0.082l-0.162,0.161l-0.029,-0.029l-11.333,7.845l-0.087,0.058c-0.091,0.053 -0.182,0.102 -0.279,0.143c-0.226,0.094 -0.468,0.147 -0.713,0.154c-0.174,0.005 -0.349,-0.013 -0.519,-0.053c-0.513,-0.121 -0.965,-0.447 -1.242,-0.895c-0.11,-0.178 -0.192,-0.374 -0.241,-0.577c-0.058,-0.238 -0.072,-0.486 -0.041,-0.728c0.031,-0.243 0.107,-0.479 0.223,-0.694c0.099,-0.185 0.228,-0.353 0.379,-0.498c0.077,-0.073 0.159,-0.136 0.244,-0.198c3.753,-2.599 7.478,-5.237 11.254,-7.801Z" style="fill:#a90eb1;"/>
            </g>
            <path d="M11.5,16l3,0l10,-10l-1.5,-1.5l-11.5,11.5Z" style="fill:#fff;"/>
        </g>
    </g>
</svg>
