<?xml version="1.0" encoding="UTF-8" standalone="no"?>
<!DOCTYPE svg PUBLIC "-//W3C//DTD SVG 1.1//EN" "http://www.w3.org/Graphics/SVG/1.1/DTD/svg11.dtd">
<svg width="100%" height="100%" viewBox="0 0 32 32" version="1.1" xmlns="http://www.w3.org/2000/svg" xmlns:xlink="http://www.w3.org/1999/xlink" xml:space="preserve" xmlns:serif="http://www.serif.com/" style="fill-rule:evenodd;clip-rule:evenodd;stroke-linejoin:round;stroke-miterlimit:2;">
    <rect id="asleep" x="0" y="0" width="32" height="32" style="fill:none;"/>
    <clipPath id="_clip1">
        <rect x="0" y="0" width="32" height="32"/>
    </clipPath>
    <g clip-path="url(#_clip1)">
        <g id="outline">
            <path d="M30,0c0.53,0 1.039,0.211 1.414,0.586c0.375,0.375 0.586,0.884 0.586,1.414l0,6c0,0.53 -0.211,1.039 -0.586,1.414c-0.375,0.375 -0.884,0.586 -1.414,0.586l-0.141,0c1.362,2.353 2.141,5.086 2.141,8l0,1c0,7.18 -5.82,13 -13,13l-6,0c-7.18,0 -13,-5.82 -13,-13c0,-0.332 0,-0.665 0,-1c0,-8.837 7.163,-16 16,-16l0.052,0c1.944,0.006 3.807,0.359 5.528,1l0.42,0l0,-1c0,-0.53 0.211,-1.039 0.586,-1.414c0.375,-0.375 0.884,-0.586 1.414,-0.586l6,0Z"/>
        </g>
        <g id="emoji">
            <path d="M30,18c0,-7.732 -6.268,-14 -14,-14c0,0 0,0 0,0c-7.732,0 -14,6.268 -14,14c0,0.335 0,0.668 0,1c0,6.075 4.925,11 11,11c1.972,0 4.028,0 6,0c6.075,0 11,-4.925 11,-11c0,-0.332 0,-0.665 0,-1Z" style="fill:#fbc546;"/>
            <g>
                <path d="M11.172,25.895c-0.164,-0.082 -0.305,-0.208 -0.405,-0.369c-0.182,-0.295 -0.198,-0.663 -0.043,-0.973c0.056,-0.112 0.113,-0.227 0.17,-0.342c0.678,-1.355 2.063,-2.211 3.578,-2.211c0.972,0 2.084,0 3.056,0c1.515,0 2.9,0.856 3.578,2.211c0.057,0.115 0.114,0.23 0.17,0.342c0.155,0.31 0.139,0.678 -0.043,0.973c-0.1,0.161 -0.241,0.287 -0.405,0.369c-0.926,-0.572 -8.73,-0.572 -9.656,0Z" style="fill:#722245;"/>
                <path d="M11.172,25.895c0.926,-0.572 2.011,-0.895 3.153,-0.895c1.09,0 2.26,0 3.35,0c1.142,0 2.227,0.323 3.153,0.895c-0.136,0.068 -0.289,0.105 -0.446,0.105c-2.295,0 -6.469,0 -8.764,0c-0.157,0 -0.31,-0.037 -0.446,-0.105Z" style="fill:#ca3b8f;"/>
            </g>
            <path d="M22.5,18.586l2.293,-2.293c0.39,-0.39 1.024,-0.39 1.414,0c0.39,0.39 0.39,1.024 0,1.414l-3.707,3.707l-3.707,-3.707c-0.39,-0.39 -0.39,-1.024 0,-1.414c0.39,-0.39 1.024,-0.39 1.414,0l2.293,2.293Zm-13,0l2.293,-2.293c0.39,-0.39 1.024,-0.39 1.414,0c0.39,0.39 0.39,1.024 0,1.414l-3.707,3.707l-3.707,-3.707c-0.39,-0.39 -0.39,-1.024 0,-1.414c0.39,-0.39 1.024,-0.39 1.414,0l2.293,2.293Z"/>
            <path d="M24,4l0,-2l6,0l0,1.414l-2.586,2.586l2.586,0l0,2l-6,0l0,-1.414l2.586,-2.586l-2.586,0Z" style="fill:#1d5dff;"/>
            <path d="M17,7l0,-2l6,0l0,1.414l-2.586,2.586l2.586,0l0,2l-6,0l0,-1.414l2.586,-2.586l-2.586,0Z" style="fill:#1d5dff;"/>
        </g>
    </g>
</svg>
