<?xml version="1.0" encoding="UTF-8" standalone="no"?>
<!DOCTYPE svg PUBLIC "-//W3C//DTD SVG 1.1//EN" "http://www.w3.org/Graphics/SVG/1.1/DTD/svg11.dtd">
<svg width="100%" height="100%" viewBox="0 0 32 32" version="1.1" xmlns="http://www.w3.org/2000/svg" xmlns:xlink="http://www.w3.org/1999/xlink" xml:space="preserve" xmlns:serif="http://www.serif.com/" style="fill-rule:evenodd;clip-rule:evenodd;stroke-linejoin:round;stroke-miterlimit:2;">
    <rect id="astonished" x="0" y="0" width="32" height="32" style="fill:none;"/>
    <clipPath id="_clip1">
        <rect x="0" y="0" width="32" height="32"/>
    </clipPath>
    <g clip-path="url(#_clip1)">
        <g id="outline">
            <path d="M16,0c4.243,0 8.313,1.686 11.314,4.686c3,3.001 4.686,7.071 4.686,11.314l0,1c0,8.284 -6.716,15 -15,15l-2,0c-8.284,0 -15,-6.716 -15,-15l0,-1c0,-8.837 7.163,-16 16,-16l0,0Z"/>
        </g>
        <g id="emoji">
            <g>
                <path d="M26.18,11.212c-6.678,-0.568 -20.455,-1.375 -22.997,-0.422l-0.213,0.08c2.046,-5.194 7.109,-8.87 13.03,-8.87l0.087,0c0.306,0.002 0.61,0.014 0.913,0.036l1.346,0.637l1.654,-0.089c0.338,0.1 0.671,0.214 1,0.339l1.352,1.077l1.648,0.511c0.344,0.239 0.677,0.494 1,0.765l1,5.224c0.002,0.247 0.062,0.488 0.177,0.706l0.003,0.006Zm1.82,-2.423c0.399,0.664 0.742,1.36 1.025,2.079c0,0 -1.897,-0.28 -2.408,-0.367c0.246,-0.275 1.383,-1.712 1.383,-1.712Z" style="fill:#7aafff;"/>
                <path d="M25,5.276c0.31,0.261 0.611,0.536 0.899,0.825c0.814,0.813 1.518,1.717 2.101,2.688l0,0.711c0,0.37 -0.137,0.726 -0.383,1.001c-0.657,-0.112 -1.485,-0.208 -2.437,-0.289l-0.003,-0.006c-0.115,-0.218 -0.175,-0.459 -0.177,-0.706l0,-4.224Zm-4,-2.353c1.058,0.405 2.066,0.937 3,1.588l0,3.989c-0.001,0.191 -0.036,0.38 -0.107,0.557c-0.053,0.131 -0.123,0.254 -0.21,0.365c-0.297,0.382 -0.773,0.6 -1.257,0.576c-0.172,-0.008 -0.341,-0.047 -0.5,-0.112c-0.17,-0.071 -0.327,-0.172 -0.46,-0.299c-0.142,-0.136 -0.258,-0.3 -0.337,-0.479c-0.085,-0.192 -0.128,-0.399 -0.129,-0.608l0,-5.577Zm-4,-0.887c1.023,0.073 2.028,0.258 3,0.548l0,4.916c-0.001,0.191 -0.036,0.38 -0.107,0.557c-0.053,0.131 -0.123,0.254 -0.21,0.365c-0.297,0.382 -0.773,0.6 -1.257,0.576c-0.172,-0.008 -0.341,-0.047 -0.5,-0.112c-0.17,-0.071 -0.327,-0.172 -0.46,-0.299c-0.142,-0.136 -0.258,-0.3 -0.337,-0.479c-0.085,-0.192 -0.128,-0.399 -0.129,-0.608l0,-5.464Z" style="fill:#3988ff;"/>
                <path d="M18.856,8.983c3.402,0 6.775,0.612 9.961,1.807l0.208,0.078c0.638,1.619 0.975,3.358 0.975,5.132l0,1c0,7.18 -5.82,13 -13,13l-2,0c-7.18,0 -13,-5.82 -13,-13l0,-1c0,-1.811 0.344,-3.541 0.97,-5.13l0.213,-0.08c3.186,-1.195 6.559,-1.807 9.961,-1.807l5.712,0Z" style="fill:#fbc546;"/>
            </g>
            <g>
                <path d="M13.581,23.775c-0.375,-0.512 -0.581,-1.133 -0.581,-1.775c0,-0.965 0,-2.035 0,-3c0,-0.796 0.316,-1.559 0.879,-2.121c0.562,-0.563 1.325,-0.879 2.121,-0.879c0.796,0 1.559,0.316 2.121,0.879c0.563,0.562 0.879,1.325 0.879,2.121c0,0.965 0,2.035 0,3c0,0.642 -0.206,1.263 -0.581,1.775c-0.69,-0.493 -4.148,-0.493 -4.838,0Z" style="fill:#722245;"/>
                <path d="M13.581,23.775c0.69,-0.493 1.53,-0.775 2.419,-0.775c0,0 0,0 0,0c0.889,0 1.729,0.282 2.419,0.775c-0.09,0.122 -0.189,0.238 -0.298,0.346c-0.562,0.563 -1.325,0.879 -2.121,0.879c-0.796,0 -1.559,-0.316 -2.121,-0.879c-0.109,-0.108 -0.208,-0.224 -0.298,-0.346Z" style="fill:#ca3b8f;"/>
            </g>
            <g>
                <path d="M26,11c0,-2.209 -1.791,-4 -4,-4l0,0c-2.209,0 -4,1.791 -4,4l0,0c0,2.209 1.791,4 4,4l0,0c2.209,0 4,-1.791 4,-4l0,0Z" style="fill:#fff;"/>
                <path d="M24,10.962c0,-0.52 -0.207,-1.019 -0.575,-1.387c-0.368,-0.368 -0.867,-0.575 -1.387,-0.575l-0.076,0c-0.52,0 -1.019,0.207 -1.387,0.575c-0.368,0.368 -0.575,0.867 -0.575,1.387l0,0.038c0,0.53 0.211,1.039 0.586,1.414c0.375,0.375 0.884,0.586 1.414,0.586l0,0c1.105,0 2,-0.895 2,-2l0,-0.038Z"/>
                <path d="M6,11c0,-2.209 1.791,-4 4,-4l0,0c2.209,0 4,1.791 4,4l0,0c0,2.209 -1.791,4 -4,4l0,0c-2.209,0 -4,-1.791 -4,-4l0,0Z" style="fill:#fff;"/>
                <path d="M12,10.962c0,-0.52 -0.207,-1.019 -0.575,-1.387c-0.368,-0.368 -0.867,-0.575 -1.387,-0.575l-0.038,0c-0.53,0 -1.039,0.211 -1.414,0.586c-0.375,0.375 -0.586,0.884 -0.586,1.414l0,0.038c0,0.52 0.207,1.019 0.575,1.387c0.368,0.368 0.867,0.575 1.387,0.575l0.002,0c1.124,0 2.036,-0.912 2.036,-2.036l0,-0.002Z"/>
            </g>
        </g>
    </g>
</svg>
