<?xml version="1.0" encoding="UTF-8" standalone="no"?>
<!DOCTYPE svg PUBLIC "-//W3C//DTD SVG 1.1//EN" "http://www.w3.org/Graphics/SVG/1.1/DTD/svg11.dtd">
<svg width="100%" height="100%" viewBox="0 0 32 32" version="1.1" xmlns="http://www.w3.org/2000/svg" xmlns:xlink="http://www.w3.org/1999/xlink" xml:space="preserve" xmlns:serif="http://www.serif.com/" style="fill-rule:evenodd;clip-rule:evenodd;stroke-linejoin:round;stroke-miterlimit:2;">
    <rect id="cold_sweat" x="0" y="0" width="32" height="32" style="fill:none;"/>
    <clipPath id="_clip1">
        <rect x="0" y="0" width="32" height="32"/>
    </clipPath>
    <g clip-path="url(#_clip1)">
        <g id="outline">
            <path d="M17.006,32l-4.012,0c-7.176,0 -12.994,-5.818 -12.994,-12.994l0,-1.006c0,-8.284 6.716,-15 15,-15l0.002,0c2.815,0 5.449,0.776 7.699,2.125l2.01,-4.019c0.339,-0.678 1.031,-1.106 1.789,-1.106c0.758,0 1.45,0.428 1.789,1.106c0,0 1.757,3.514 2.942,5.884c1.017,2.033 0.618,4.489 -0.989,6.097c-0.001,0 -0.001,0.001 -0.001,0.001c-0.26,0.259 -0.543,0.489 -0.846,0.686c0.394,1.339 0.605,2.757 0.605,4.224c0,0.337 0,0.673 0,1.008c0,7.176 -5.818,12.994 -12.994,12.994Z"/>
        </g>
        <g id="emoji">
            <path d="M27.312,13.816c0.02,0.06 0.04,0.121 0.06,0.182c-0.305,0.218 -0.551,0.118 -0.793,0c0.22,-0.047 0.26,-0.319 0.718,-0.227l0.015,0.045Zm-24.684,0.182c0.387,-1.189 0.942,-2.32 1.65,-3.351c1.106,-1.609 2.573,-2.963 4.267,-3.934c1.242,-0.712 2.603,-1.216 4.01,-1.483c1.464,-0.279 2.971,-0.301 4.445,-0.077l3,0.843c0.341,0.142 0.674,0.299 1,0.468l3,2.155c0.353,0.339 0.687,0.698 1,1.074c0,0 1.248,4.293 1.407,4.304l-23.779,0.001Z" style="fill:#7aafff;"/>
            <path d="M25,9.693c0.995,1.197 1.78,2.575 2.297,4.078c-0.215,0.135 -0.462,0.213 -0.718,0.227l-0.158,0l-0.014,-0.001c-0.159,-0.011 -0.316,-0.045 -0.464,-0.104c-0.402,-0.161 -0.72,-0.495 -0.861,-0.905c-0.054,-0.157 -0.081,-0.322 -0.082,-0.488l0,-2.807Zm-4,-3.229c1.102,0.575 2.112,1.303 3,2.155l0,2.881c-0.001,0.191 -0.036,0.38 -0.107,0.557c-0.053,0.131 -0.123,0.254 -0.21,0.365c-0.297,0.382 -0.773,0.6 -1.257,0.576c-0.172,-0.008 -0.341,-0.047 -0.5,-0.112c-0.17,-0.071 -0.327,-0.172 -0.46,-0.299c-0.142,-0.136 -0.258,-0.3 -0.337,-0.479c-0.085,-0.192 -0.128,-0.399 -0.129,-0.608l0,-5.036Zm-4,-1.311c1.046,0.161 2.051,0.448 3,0.843l0,4.504c-0.001,0.191 -0.036,0.38 -0.107,0.557c-0.053,0.131 -0.123,0.254 -0.21,0.365c-0.297,0.382 -0.773,0.6 -1.257,0.576c-0.172,-0.008 -0.341,-0.047 -0.5,-0.112c-0.17,-0.071 -0.327,-0.172 -0.46,-0.299c-0.142,-0.136 -0.258,-0.3 -0.337,-0.479c-0.085,-0.192 -0.128,-0.399 -0.129,-0.608l0,-5.347Z" style="fill:#3988ff;"/>
            <path d="M17.006,30l-4.012,0c-6.072,0 -10.994,-4.922 -10.994,-10.994l0,-1.006c0,-1.396 0.22,-2.741 0.628,-4.002l0.555,-0.208c3.186,-1.195 6.559,-1.807 9.961,-1.807l3.712,0c1.815,0 3.622,0.175 5.397,0.518c0.152,0.206 4.942,2.102 5.28,2.034c0.304,1.103 0.467,2.265 0.467,3.465c0,0.336 0,0.672 0,1.006c0,6.072 -4.922,10.994 -10.994,10.994Z" style="fill:#fbc546;"/>
            <path d="M22.253,12.501c1.551,0.301 3.078,0.731 4.564,1.289l0.555,0.208c0.058,0.177 0.111,0.357 0.161,0.537c-0.338,0.068 -0.684,0.102 -1.033,0.102c-1.403,0 -2.749,-0.557 -3.741,-1.549c0,0 0,-0.001 -0.001,-0.001c-0.184,-0.185 -0.353,-0.38 -0.505,-0.586Z" style="fill:#e59a10;"/>
            <g>
                <path d="M8.794,25.381c-0.308,0.038 -0.621,-0.07 -0.842,-0.299c-0.267,-0.277 -0.351,-0.684 -0.216,-1.045c0.173,-0.461 0.364,-0.972 0.561,-1.495c1.024,-2.732 3.636,-4.542 6.554,-4.542c0.099,0 0.199,0 0.298,0c2.918,0 5.53,1.81 6.554,4.542c0.197,0.523 0.388,1.034 0.561,1.495c0.135,0.361 0.051,0.768 -0.216,1.045c-0.221,0.229 -0.534,0.337 -0.842,0.299c-0.671,-1.04 -3.438,-2.013 -6.206,-2.013c-2.768,0 -5.535,0.973 -6.206,2.013Z" style="fill:#722245;"/>
                <path d="M15.001,22c2.539,0 4.863,1.3 6.205,3.381c-0.065,-0.008 -0.131,-0.023 -0.195,-0.044c-0.978,-0.326 -2.119,-0.706 -2.933,-0.978c-0.714,-0.238 -1.462,-0.359 -2.214,-0.359l-1.728,0c-0.752,0 -1.5,0.121 -2.214,0.359c-0.814,0.272 -1.955,0.652 -2.933,0.978c-0.064,0.021 -0.13,0.036 -0.195,0.044c1.342,-2.081 3.666,-3.381 6.205,-3.381l0.002,0Z" style="fill:#ca3b8f;"/>
            </g>
            <g>
                <path d="M20.113,10.207c-0.374,0.397 2.733,1.948 2.882,1.647l2.005,1.146l0,1.502c0,0.928 -0.369,1.817 -1.025,2.473c-0.656,0.656 -1.545,1.025 -2.473,1.025l-0.002,0c-1.933,0 -3.5,-1.567 -3.5,-3.5c0,-0.657 0,-1.345 0,-2.002c0,-0.928 0.369,-1.817 1.025,-2.473c0.095,-0.096 0.195,-0.185 0.3,-0.268l0.788,0.45Z" style="fill:#fff;"/>
                <path d="M20.113,10.207l2.882,1.647c0.003,0.048 0.005,0.097 0.005,0.146c0,0.936 0,2.048 0,2.983c0,0.531 -0.211,1.039 -0.586,1.415c-0.375,0.375 -0.884,0.585 -1.414,0.585c-0.53,0 -1.039,-0.21 -1.414,-0.585c-0.375,-0.376 -0.586,-0.884 -0.586,-1.415c0,-0.935 0,-2.047 0,-2.983c0,-0.53 0.211,-1.039 0.586,-1.414c0.155,-0.156 0.334,-0.283 0.527,-0.379Z"/>
            </g>
            <g>
                <path d="M9.887,10.207c0.374,0.397 -2.733,1.948 -2.882,1.647l-2.005,1.146l0,1.502c0,0.928 0.369,1.817 1.025,2.473c0.656,0.656 1.545,1.025 2.473,1.025l0.002,0c1.933,0 3.5,-1.567 3.5,-3.5c0,-0.657 0,-1.345 0,-2.002c0,-0.928 -0.369,-1.817 -1.025,-2.473c-0.095,-0.096 -0.195,-0.185 -0.3,-0.268l-0.788,0.45Z" style="fill:#fff;"/>
                <path d="M9.887,10.207l-2.882,1.647c-0.003,0.048 -0.005,0.097 -0.005,0.146c0,0.936 0,2.048 0,2.983c0,0.531 0.211,1.039 0.586,1.415c0.375,0.375 0.884,0.585 1.414,0.585c0.53,0 1.039,-0.21 1.414,-0.585c0.375,-0.376 0.586,-0.884 0.586,-1.415c0,-0.935 0,-2.047 0,-2.983c0,-0.53 -0.211,-1.039 -0.586,-1.414c-0.155,-0.156 -0.334,-0.283 -0.527,-0.379Z"/>
            </g>
            <path d="M26.5,2c0,0 -1.757,3.514 -2.942,5.884c-0.632,1.264 -0.384,2.79 0.615,3.789c0,0 0,0 0.001,0.001c0.617,0.617 1.453,0.963 2.326,0.963c0.873,0 1.709,-0.346 2.326,-0.963c0.001,-0.001 0.001,-0.001 0.001,-0.001c0.999,-0.999 1.247,-2.525 0.615,-3.789c-1.185,-2.37 -2.942,-5.884 -2.942,-5.884Z" style="fill:#fff;"/>
        </g>
    </g>
</svg>
