<?xml version="1.0" encoding="UTF-8" standalone="no"?><!DOCTYPE svg PUBLIC "-//W3C//DTD SVG 1.1//EN" "http://www.w3.org/Graphics/SVG/1.1/DTD/svg11.dtd"><svg width="100%" height="100%" viewBox="0 0 32 32" version="1.1" xmlns="http://www.w3.org/2000/svg" xmlns:xlink="http://www.w3.org/1999/xlink" xml:space="preserve" xmlns:serif="http://www.serif.com/" style="fill-rule:evenodd;clip-rule:evenodd;stroke-linejoin:round;stroke-miterlimit:2;"><rect id="cold_sweat" x="0" y="0" width="32" height="32" style="fill:none;"/><clipPath id="_clip1"><rect x="0" y="0" width="32" height="32"/></clipPath><g clip-path="url(#_clip1)"><g id="outline"><path d="M26.647,0.005l0.147,0.017l0.145,0.027l0.143,0.038l0.139,0.048l0.136,0.058l0.131,0.068l0.126,0.078l0.119,0.086l0.113,0.096l0.105,0.103l0.098,0.111l0.089,0.117l0.08,0.124l0.071,0.13l2.946,5.893l0.043,0.086l0.044,0.096l0.042,0.097l0.041,0.097l0.038,0.098l0.037,0.099l0.034,0.098l0.032,0.099l0.03,0.099l0.028,0.1l0.027,0.101l0.024,0.1l0.022,0.102l0.02,0.101l0.018,0.101l0.016,0.101l0.014,0.102l0.013,0.102l0.01,0.102l0.008,0.102l0.006,0.101l0.004,0.102l0.002,0.102l0.001,0.102l-0.002,0.102l-0.004,0.102l-0.005,0.101l-0.008,0.101l-0.009,0.102l-0.012,0.101l-0.013,0.1l-0.016,0.1l-0.017,0.1l-0.019,0.1l-0.021,0.099l-0.023,0.099l-0.025,0.098l-0.026,0.098l-0.029,0.098l-0.031,0.097l-0.032,0.096l-0.034,0.096l-0.036,0.095l-0.038,0.095l-0.041,0.095l-0.042,0.093l-0.043,0.093l-0.045,0.091l-0.048,0.091l-0.049,0.091l-0.052,0.09l-0.052,0.089l-0.055,0.087l-0.057,0.088l-0.058,0.085l-0.06,0.085l-0.062,0.084l-0.064,0.083l-0.065,0.082l-0.068,0.08l-0.069,0.08l-0.071,0.078l-0.072,0.077l-0.075,0.077l-0.016,0.015l-0.066,0.065l-0.083,0.078l-0.085,0.076l-0.086,0.074l-0.088,0.072l-0.089,0.07l-0.09,0.068l-0.092,0.066l-0.093,0.064l-0.057,0.038l0.012,0.04l0.054,0.191l0.051,0.191l0.049,0.192l0.047,0.194l0.044,0.194l0.041,0.196l0.039,0.196l0.036,0.197l0.034,0.198l0.031,0.199l0.029,0.199l0.026,0.201l0.023,0.201l0.02,0.202l0.018,0.203l0.015,0.203l0.013,0.204l0.01,0.205l0.006,0.205l0.005,0.207l0.001,0.199l0,1.021l-0.001,0.161l-0.003,0.167l-0.005,0.167l-0.008,0.166l-0.009,0.165l-0.012,0.166l-0.013,0.164l-0.016,0.164l-0.018,0.164l-0.019,0.163l-0.022,0.162l-0.024,0.161l-0.025,0.161l-0.028,0.161l-0.029,0.16l-0.032,0.159l-0.033,0.158l-0.036,0.158l-0.037,0.157l-0.039,0.156l-0.041,0.155l-0.043,0.155l-0.045,0.154l-0.047,0.153l-0.048,0.153l-0.05,0.151l-0.052,0.151l-0.054,0.15l-0.056,0.149l-0.057,0.148l-0.059,0.147l-0.061,0.146l-0.063,0.146l-0.064,0.144l-0.066,0.144l-0.067,0.143l-0.07,0.141l-0.071,0.141l-0.072,0.139l-0.074,0.139l-0.076,0.138l-0.078,0.136l-0.079,0.136l-0.08,0.134l-0.082,0.134l-0.084,0.132l-0.086,0.131l-0.086,0.13l-0.089,0.13l-0.09,0.128l-0.091,0.126l-0.092,0.126l-0.095,0.124l-0.095,0.124l-0.097,0.121l-0.099,0.121l-0.1,0.12l-0.101,0.118l-0.103,0.117l-0.104,0.116l-0.105,0.115l-0.107,0.113l-0.108,0.112l-0.11,0.111l-0.111,0.11l-0.112,0.108l-0.113,0.107l-0.115,0.105l-0.116,0.104l-0.117,0.103l-0.118,0.101l-0.12,0.1l-0.121,0.099l-0.122,0.097l-0.123,0.095l-0.124,0.094l-0.126,0.093l-0.127,0.092l-0.127,0.089l-0.129,0.089l-0.131,0.086l-0.131,0.086l-0.132,0.083l-0.134,0.083l-0.134,0.08l-0.136,0.079l-0.136,0.078l-0.138,0.076l-0.138,0.074l-0.14,0.072l-0.141,0.071l-0.141,0.07l-0.143,0.067l-0.144,0.066l-0.144,0.065l-0.146,0.062l-0.146,0.061l-0.147,0.059l-0.148,0.057l-0.149,0.056l-0.15,0.054l-0.151,0.052l-0.151,0.05l-0.153,0.049l-0.153,0.046l-0.154,0.045l-0.155,0.043l-0.155,0.041l-0.156,0.039l-0.157,0.037l-0.158,0.036l-0.158,0.033l-0.159,0.032l-0.16,0.029l-0.161,0.028l-0.161,0.025l-0.161,0.024l-0.163,0.022l-0.162,0.019l-0.164,0.018l-0.164,0.016l-0.164,0.013l-0.165,0.012l-0.166,0.009l-0.166,0.008l-0.167,0.005l-0.167,0.003l-0.161,0.001l-4.024,0l-0.161,-0.001l-0.167,-0.003l-0.167,-0.005l-0.166,-0.008l-0.166,-0.009l-0.165,-0.012l-0.164,-0.013l-0.164,-0.016l-0.164,-0.018l-0.162,-0.019l-0.163,-0.022l-0.161,-0.024l-0.161,-0.025l-0.161,-0.028l-0.16,-0.029l-0.159,-0.032l-0.158,-0.033l-0.158,-0.036l-0.157,-0.037l-0.156,-0.039l-0.155,-0.041l-0.155,-0.043l-0.154,-0.045l-0.153,-0.046l-0.153,-0.049l-0.151,-0.05l-0.151,-0.052l-0.15,-0.054l-0.149,-0.056l-0.148,-0.057l-0.147,-0.059l-0.146,-0.061l-0.146,-0.063l-0.144,-0.064l-0.144,-0.066l-0.143,-0.067l-0.141,-0.07l-0.141,-0.071l-0.14,-0.072l-0.138,-0.074l-0.138,-0.076l-0.136,-0.078l-0.136,-0.079l-0.134,-0.08l-0.134,-0.083l-0.132,-0.083l-0.131,-0.086l-0.131,-0.086l-0.129,-0.089l-0.127,-0.089l-0.127,-0.092l-0.126,-0.093l-0.124,-0.094l-0.123,-0.095l-0.122,-0.097l-0.121,-0.099l-0.12,-0.1l-0.118,-0.101l-0.117,-0.103l-0.116,-0.104l-0.115,-0.105l-0.113,-0.107l-0.112,-0.108l-0.111,-0.11l-0.11,-0.111l-0.108,-0.112l-0.107,-0.113l-0.105,-0.115l-0.104,-0.116l-0.103,-0.117l-0.101,-0.118l-0.1,-0.12l-0.099,-0.121l-0.097,-0.122l-0.095,-0.123l-0.095,-0.124l-0.092,-0.126l-0.091,-0.126l-0.09,-0.128l-0.089,-0.13l-0.087,-0.13l-0.085,-0.131l-0.083,-0.132l-0.083,-0.134l-0.08,-0.134l-0.079,-0.136l-0.078,-0.136l-0.075,-0.138l-0.075,-0.139l-0.072,-0.139l-0.071,-0.141l-0.07,-0.142l-0.067,-0.142l-0.066,-0.143l-0.064,-0.145l-0.063,-0.146l-0.061,-0.146l-0.059,-0.147l-0.057,-0.148l-0.056,-0.149l-0.054,-0.15l-0.052,-0.151l-0.05,-0.151l-0.048,-0.153l-0.047,-0.153l-0.045,-0.154l-0.043,-0.154l-0.041,-0.156l-0.039,-0.156l-0.037,-0.157l-0.036,-0.158l-0.033,-0.158l-0.032,-0.16l-0.029,-0.159l-0.028,-0.16l-0.025,-0.162l-0.024,-0.161l-0.022,-0.162l-0.019,-0.163l-0.018,-0.164l-0.016,-0.164l-0.013,-0.165l-0.012,-0.165l-0.009,-0.165l-0.008,-0.166l-0.005,-0.167l-0.003,-0.167l-0.001,-0.161l0,-1.018l0.001,-0.187l0.004,-0.193l0.006,-0.192l0.008,-0.192l0.011,-0.191l0.014,-0.191l0.015,-0.19l0.018,-0.189l0.021,-0.189l0.022,-0.188l0.025,-0.187l0.028,-0.187l0.029,-0.186l0.032,-0.185l0.034,-0.184l0.037,-0.184l0.038,-0.183l0.041,-0.182l0.043,-0.181l0.045,-0.18l0.048,-0.18l0.049,-0.178l0.052,-0.178l0.054,-0.177l0.056,-0.176l0.058,-0.175l0.06,-0.174l0.062,-0.172l0.064,-0.173l0.066,-0.171l0.068,-0.169l0.071,-0.169l0.072,-0.168l0.074,-0.167l0.076,-0.166l0.078,-0.164l0.08,-0.164l0.082,-0.162l0.084,-0.161l0.086,-0.16l0.087,-0.159l0.09,-0.158l0.091,-0.156l0.093,-0.155l0.095,-0.155l0.096,-0.152l0.099,-0.152l0.1,-0.15l0.102,-0.149l0.103,-0.148l0.106,-0.146l0.107,-0.145l0.109,-0.143l0.11,-0.143l0.112,-0.141l0.114,-0.139l0.115,-0.138l0.117,-0.137l0.119,-0.135l0.12,-0.134l0.122,-0.132l0.123,-0.131l0.125,-0.13l0.126,-0.128l0.128,-0.126l0.13,-0.125l0.13,-0.123l0.133,-0.122l0.134,-0.12l0.135,-0.119l0.137,-0.117l0.138,-0.115l0.139,-0.114l0.141,-0.112l0.142,-0.11l0.144,-0.109l0.145,-0.107l0.146,-0.105l0.148,-0.104l0.149,-0.102l0.15,-0.1l0.152,-0.099l0.152,-0.096l0.154,-0.095l0.156,-0.093l0.156,-0.092l0.158,-0.089l0.159,-0.087l0.16,-0.086l0.161,-0.084l0.162,-0.082l0.164,-0.08l0.164,-0.078l0.166,-0.076l0.167,-0.074l0.168,-0.072l0.169,-0.071l0.17,-0.068l0.17,-0.066l0.173,-0.064l0.172,-0.062l0.174,-0.06l0.175,-0.058l0.176,-0.056l0.177,-0.054l0.178,-0.052l0.178,-0.049l0.18,-0.048l0.18,-0.045l0.181,-0.043l0.182,-0.041l0.183,-0.038l0.184,-0.037l0.184,-0.034l0.185,-0.032l0.186,-0.029l0.187,-0.028l0.187,-0.025l0.188,-0.022l0.189,-0.021l0.189,-0.018l0.19,-0.015l0.191,-0.014l0.191,-0.011l0.191,-0.008l0.193,-0.006l0.193,-0.004l0.187,-0.001l0.014,0l0.168,0.001l0.173,0.003l0.173,0.005l0.173,0.007l0.172,0.009l0.171,0.01l0.171,0.013l0.171,0.015l0.17,0.016l0.169,0.018l0.169,0.021l0.169,0.022l0.167,0.024l0.168,0.026l0.167,0.027l0.166,0.03l0.165,0.031l0.165,0.033l0.164,0.035l0.164,0.037l0.162,0.038l0.163,0.041l0.161,0.042l0.161,0.044l0.16,0.045l0.159,0.047l0.159,0.049l0.158,0.051l0.157,0.052l0.156,0.054l0.156,0.056l0.154,0.057l0.154,0.059l0.153,0.061l0.153,0.062l0.151,0.064l0.151,0.065l0.149,0.067l0.149,0.069l0.148,0.07l0.147,0.072l0.146,0.073l0.145,0.075l0.144,0.076l0.144,0.078l0.142,0.079l0.141,0.081l0.141,0.082l0.054,0.033l2.01,-4.019l0.071,-0.13l0.08,-0.124l0.089,-0.117l0.098,-0.111l0.105,-0.103l0.113,-0.096l0.119,-0.086l0.126,-0.078l0.131,-0.068l0.136,-0.058l0.139,-0.048l0.143,-0.038l0.145,-0.027l0.147,-0.017l0.147,-0.005l0.147,0.005Zm-3.089,7.879l-0.029,0.059l-0.027,0.059l-0.026,0.059l-0.025,0.059l-0.107,-0.09l-0.108,-0.09l-0.109,-0.088l-0.11,-0.087l-0.111,-0.086l-0.111,-0.085l-0.113,-0.084l-0.114,-0.082l-0.115,-0.081l-0.115,-0.08l-0.117,-0.079l-0.117,-0.078l-0.118,-0.076l-0.119,-0.075l-0.12,-0.074l-0.121,-0.073l-0.122,-0.071l-0.122,-0.07l-0.123,-0.069l-0.125,-0.067l-0.125,-0.066l-0.125,-0.065l-0.127,-0.064l-0.127,-0.062l-0.128,-0.061l-0.129,-0.059l-0.13,-0.058l-0.13,-0.057l-0.131,-0.055l-0.132,-0.054l-0.133,-0.052l-0.133,-0.051l-0.134,-0.05l-0.134,-0.048l-0.136,-0.047l-0.136,-0.045l-0.136,-0.044l-0.138,-0.042l-0.138,-0.041l-0.138,-0.04l-0.139,-0.038l-0.14,-0.036l-0.141,-0.035l-0.141,-0.033l-0.141,-0.032l-0.142,-0.03l-0.143,-0.029l-0.143,-0.027l-0.144,-0.026l-0.145,-0.024l-0.145,-0.022l-0.145,-0.021l-0.146,-0.019l-0.147,-0.017l-0.147,-0.016l-0.147,-0.015l-0.148,-0.012l-0.148,-0.011l-0.149,-0.01l-0.149,-0.007l-0.15,-0.006l-0.15,-0.005l-0.151,-0.002l-0.151,-0.001l-0.002,0l-0.168,0.001l-0.168,0.003l-0.167,0.006l-0.166,0.007l-0.166,0.009l-0.165,0.012l-0.165,0.013l-0.164,0.016l-0.164,0.018l-0.163,0.019l-0.162,0.022l-0.162,0.024l-0.161,0.025l-0.16,0.028l-0.16,0.03l-0.159,0.031l-0.158,0.034l-0.158,0.035l-0.157,0.037l-0.156,0.039l-0.155,0.041l-0.155,0.043l-0.154,0.045l-0.153,0.046l-0.152,0.049l-0.151,0.05l-0.151,0.052l-0.15,0.054l-0.149,0.055l-0.148,0.058l-0.147,0.059l-0.146,0.061l-0.146,0.062l-0.144,0.064l-0.143,0.066l-0.143,0.068l-0.142,0.069l-0.14,0.071l-0.14,0.073l-0.139,0.074l-0.137,0.076l-0.137,0.077l-0.135,0.079l-0.135,0.081l-0.133,0.082l-0.133,0.084l-0.131,0.085l-0.13,0.087l-0.13,0.089l-0.128,0.089l-0.126,0.092l-0.126,0.093l-0.125,0.094l-0.123,0.096l-0.122,0.097l-0.121,0.099l-0.12,0.1l-0.119,0.101l-0.117,0.103l-0.116,0.104l-0.115,0.106l-0.113,0.107l-0.112,0.108l-0.111,0.11l-0.11,0.111l-0.108,0.112l-0.107,0.113l-0.106,0.115l-0.104,0.116l-0.103,0.117l-0.101,0.119l-0.1,0.12l-0.099,0.121l-0.097,0.122l-0.096,0.123l-0.094,0.125l-0.093,0.126l-0.092,0.126l-0.089,0.128l-0.089,0.13l-0.087,0.13l-0.085,0.131l-0.084,0.133l-0.082,0.133l-0.081,0.135l-0.079,0.135l-0.077,0.137l-0.076,0.137l-0.074,0.139l-0.073,0.14l-0.071,0.14l-0.069,0.142l-0.068,0.143l-0.066,0.143l-0.064,0.144l-0.062,0.146l-0.061,0.146l-0.059,0.147l-0.058,0.148l-0.055,0.149l-0.054,0.15l-0.052,0.151l-0.05,0.151l-0.049,0.152l-0.046,0.153l-0.045,0.154l-0.043,0.155l-0.041,0.155l-0.039,0.156l-0.037,0.157l-0.035,0.158l-0.034,0.158l-0.031,0.159l-0.03,0.16l-0.028,0.16l-0.025,0.161l-0.024,0.162l-0.022,0.162l-0.019,0.163l-0.018,0.164l-0.016,0.164l-0.013,0.165l-0.012,0.165l-0.009,0.166l-0.007,0.166l-0.006,0.167l-0.003,0.168l-0.001,0.168l0,1.006l0.001,0.142l0.003,0.142l0.004,0.141l0.006,0.141l0.008,0.14l0.01,0.14l0.012,0.139l0.013,0.139l0.015,0.138l0.016,0.138l0.019,0.138l0.02,0.136l0.021,0.136l0.024,0.136l0.025,0.135l0.026,0.135l0.029,0.134l0.03,0.133l0.031,0.133l0.033,0.132l0.035,0.131l0.036,0.131l0.038,0.13l0.039,0.129l0.041,0.129l0.043,0.128l0.044,0.127l0.045,0.127l0.047,0.126l0.049,0.125l0.05,0.125l0.051,0.123l0.053,0.123l0.054,0.122l0.056,0.122l0.057,0.12l0.059,0.12l0.06,0.119l0.061,0.118l0.063,0.117l0.064,0.117l0.066,0.115l0.066,0.115l0.069,0.114l0.069,0.113l0.071,0.112l0.072,0.111l0.074,0.11l0.074,0.109l0.076,0.108l0.078,0.108l0.078,0.106l0.08,0.105l0.081,0.105l0.082,0.103l0.083,0.102l0.085,0.102l0.086,0.1l0.087,0.099l0.088,0.098l0.089,0.097l0.091,0.096l0.091,0.095l0.093,0.094l0.094,0.093l0.095,0.091l0.096,0.091l0.097,0.089l0.098,0.088l0.099,0.087l0.101,0.086l0.101,0.085l0.102,0.083l0.103,0.082l0.105,0.081l0.105,0.08l0.106,0.078l0.108,0.078l0.108,0.076l0.109,0.074l0.11,0.074l0.111,0.072l0.112,0.071l0.113,0.069l0.114,0.069l0.115,0.066l0.115,0.066l0.117,0.064l0.117,0.063l0.118,0.061l0.119,0.06l0.12,0.059l0.12,0.057l0.122,0.056l0.122,0.054l0.123,0.053l0.123,0.051l0.125,0.05l0.125,0.049l0.126,0.047l0.127,0.045l0.127,0.044l0.128,0.043l0.129,0.041l0.129,0.039l0.13,0.038l0.131,0.036l0.131,0.035l0.132,0.033l0.133,0.031l0.133,0.03l0.134,0.029l0.135,0.026l0.135,0.025l0.136,0.024l0.136,0.021l0.136,0.02l0.138,0.019l0.138,0.016l0.138,0.015l0.139,0.013l0.139,0.012l0.14,0.01l0.14,0.008l0.141,0.006l0.141,0.004l0.142,0.003l0.142,0.001l4.012,0l0.142,-0.001l0.142,-0.003l0.141,-0.004l0.141,-0.006l0.14,-0.008l0.14,-0.01l0.139,-0.012l0.139,-0.013l0.138,-0.015l0.138,-0.016l0.138,-0.019l0.136,-0.02l0.136,-0.021l0.136,-0.024l0.135,-0.025l0.135,-0.026l0.134,-0.029l0.133,-0.03l0.133,-0.031l0.132,-0.033l0.131,-0.035l0.131,-0.036l0.13,-0.038l0.129,-0.039l0.129,-0.041l0.128,-0.043l0.127,-0.044l0.127,-0.045l0.126,-0.047l0.125,-0.049l0.125,-0.05l0.123,-0.051l0.123,-0.053l0.122,-0.054l0.122,-0.056l0.12,-0.057l0.12,-0.059l0.119,-0.06l0.118,-0.061l0.117,-0.063l0.117,-0.064l0.115,-0.066l0.115,-0.066l0.114,-0.069l0.113,-0.069l0.112,-0.071l0.111,-0.072l0.11,-0.074l0.109,-0.074l0.108,-0.076l0.108,-0.078l0.106,-0.078l0.105,-0.08l0.105,-0.081l0.103,-0.082l0.102,-0.083l0.101,-0.085l0.101,-0.086l0.099,-0.087l0.098,-0.088l0.097,-0.089l0.096,-0.091l0.095,-0.091l0.094,-0.093l0.093,-0.094l0.091,-0.095l0.091,-0.096l0.089,-0.097l0.088,-0.098l0.087,-0.099l0.086,-0.101l0.085,-0.101l0.083,-0.102l0.082,-0.103l0.081,-0.105l0.08,-0.105l0.078,-0.106l0.078,-0.108l0.076,-0.108l0.074,-0.109l0.074,-0.11l0.072,-0.111l0.071,-0.112l0.069,-0.113l0.069,-0.114l0.066,-0.115l0.066,-0.115l0.064,-0.117l0.063,-0.117l0.061,-0.118l0.06,-0.119l0.059,-0.12l0.057,-0.12l0.056,-0.122l0.054,-0.122l0.053,-0.123l0.051,-0.123l0.05,-0.125l0.049,-0.125l0.047,-0.126l0.045,-0.127l0.044,-0.127l0.043,-0.128l0.041,-0.129l0.039,-0.129l0.038,-0.13l0.036,-0.131l0.035,-0.131l0.033,-0.132l0.031,-0.133l0.03,-0.133l0.029,-0.134l0.026,-0.135l0.025,-0.135l0.024,-0.136l0.021,-0.136l0.02,-0.136l0.019,-0.138l0.016,-0.138l0.015,-0.138l0.013,-0.139l0.012,-0.139l0.01,-0.14l0.008,-0.14l0.006,-0.141l0.004,-0.141l0.003,-0.142l0.001,-0.142l0,-1.008l-0.001,-0.18l-0.004,-0.179l-0.006,-0.178l-0.008,-0.178l-0.011,-0.177l-0.013,-0.176l-0.016,-0.176l-0.018,-0.175l-0.02,-0.175l-0.022,-0.173l-0.025,-0.173l-0.027,-0.173l-0.029,-0.171l-0.031,-0.171l-0.034,-0.17l-0.036,-0.169l-0.038,-0.168l-0.04,-0.168l-0.043,-0.166l-0.044,-0.166l-0.047,-0.165l-0.049,-0.164l-0.05,-0.163l-0.053,-0.162l-0.055,-0.161l-0.057,-0.161l-0.059,-0.159l-0.061,-0.158l-0.063,-0.158l-0.065,-0.156l-0.067,-0.155l-0.069,-0.154l0.07,-0.008l0.069,-0.01l0.07,-0.011l0.069,-0.012l0.069,-0.014l0.068,-0.015l0.068,-0.017l0.067,-0.018l0.067,-0.02l0.067,-0.021l0.066,-0.022l0.066,-0.024l0.065,-0.025l0.064,-0.027l0.064,-0.028l0.064,-0.029l0.063,-0.031l0.062,-0.032l0.061,-0.033l0.061,-0.035l0.06,-0.036l0.059,-0.037l0.059,-0.038l0.058,-0.04l0.057,-0.041l0.056,-0.042l0.055,-0.044l0.055,-0.045l0.053,-0.046l0.053,-0.047l0.052,-0.049l0.05,-0.049l0.001,-0.001l0.047,-0.048l0.045,-0.047l0.044,-0.049l0.043,-0.05l0.042,-0.05l0.04,-0.051l0.04,-0.051l0.038,-0.052l0.038,-0.053l0.036,-0.053l0.035,-0.054l0.034,-0.055l0.033,-0.055l0.032,-0.055l0.03,-0.056l0.03,-0.057l0.028,-0.057l0.027,-0.058l0.026,-0.058l0.025,-0.058l0.023,-0.059l0.023,-0.059l0.021,-0.06l0.02,-0.06l0.019,-0.06l0.018,-0.061l0.017,-0.061l0.015,-0.061l0.015,-0.061l0.013,-0.062l0.012,-0.062l0.01,-0.062l0.01,-0.063l0.008,-0.062l0.007,-0.063l0.006,-0.063l0.005,-0.063l0.003,-0.063l0.003,-0.063l0.001,-0.063l-0.001,-0.063l-0.001,-0.064l-0.003,-0.063l-0.003,-0.063l-0.005,-0.064l-0.007,-0.063l-0.007,-0.063l-0.009,-0.063l-0.01,-0.063l-0.011,-0.063l-0.013,-0.063l-0.013,-0.063l-0.015,-0.062l-0.017,-0.062l-0.017,-0.062l-0.019,-0.062l-0.02,-0.062l-0.021,-0.061l-0.023,-0.061l-0.024,-0.061l-0.025,-0.06l-0.026,-0.061l-0.028,-0.059l-0.029,-0.06l-2.942,-5.884l-2.942,5.884Z"/></g><g id="emoji"><g><path d="M15.086,5c-0.057,0.159 2.911,0.397 2.906,0.346c0.421,0.099 0.834,0.218 1.237,0.357c-0.148,0.237 2.771,1.34 2.771,1.34c0.396,0.253 0.777,0.527 1.142,0.821c-0.093,0.197 2.858,3.203 2.858,3.203c1.267,2.006 2,4.383 2,6.931c0,0.337 0,0.673 0,1.008c0,6.072 -4.922,10.994 -10.994,10.994c-1.328,0 -2.684,0 -4.012,0c-6.072,0 -10.994,-4.922 -10.994,-10.994l0,-1.006c0,-7.18 5.82,-13 13,-13l0.086,0Z" style="fill:#fbc546;"/><clipPath id="_clip2"><path d="M15.086,5c-0.057,0.159 2.911,0.397 2.906,0.346c0.421,0.099 0.834,0.218 1.237,0.357c-0.148,0.237 2.771,1.34 2.771,1.34c0.396,0.253 0.777,0.527 1.142,0.821c-0.093,0.197 2.858,3.203 2.858,3.203c1.267,2.006 2,4.383 2,6.931c0,0.337 0,0.673 0,1.008c0,6.072 -4.922,10.994 -10.994,10.994c-1.328,0 -2.684,0 -4.012,0c-6.072,0 -10.994,-4.922 -10.994,-10.994l0,-1.006c0,-7.18 5.82,-13 13,-13l0.086,0Z"/></clipPath><g clip-path="url(#_clip2)"><path d="M31.235,6.999l0.042,0.086l0.045,0.096l0.042,0.097l0.041,0.097l0.038,0.098l0.037,0.098l0.034,0.099l0.032,0.099l0.03,0.1l0.028,0.099l0.027,0.101l0.024,0.101l0.022,0.101l0.02,0.101l0.018,0.101l0.016,0.101l0.014,0.102l0.013,0.102l0.01,0.102l0.008,0.102l0.006,0.102l0.004,0.102l0.002,0.101l0.001,0.102l-0.002,0.102l-0.004,0.102l-0.005,0.101l-0.008,0.101l-0.009,0.102l-0.012,0.1l-0.013,0.101l-0.016,0.1l-0.017,0.1l-0.019,0.1l-0.021,0.099l-0.023,0.099l-0.025,0.098l-0.026,0.098l-0.029,0.098l-0.031,0.097l-0.032,0.096l-0.034,0.096l-0.037,0.096l-0.037,0.094l-0.04,0.094l-0.042,0.094l-0.044,0.093l-0.046,0.092l-0.047,0.091l-0.049,0.09l-0.051,0.09l-0.053,0.089l-0.055,0.087l-0.056,0.087l-0.059,0.086l-0.06,0.085l-0.062,0.084l-0.064,0.083l-0.065,0.082l-0.068,0.08l-0.069,0.08l-0.07,0.078l-0.073,0.077l-0.067,0.069l-0.017,0.017l-0.085,0.083l-0.096,0.089l-0.098,0.086l-0.1,0.084l-0.102,0.082l-0.104,0.078l-0.105,0.076l-0.107,0.074l-0.109,0.07l-0.11,0.068l-0.112,0.065l-0.113,0.062l-0.115,0.06l-0.116,0.056l-0.117,0.054l-0.119,0.051l-0.119,0.048l-0.121,0.045l-0.122,0.042l-0.123,0.039l-0.124,0.036l-0.125,0.033l-0.126,0.03l-0.127,0.027l-0.128,0.024l-0.128,0.02l-0.129,0.018l-0.129,0.015l-0.13,0.011l-0.131,0.008l-0.131,0.005l-0.131,0.001l-0.131,-0.001l-0.131,-0.005l-0.131,-0.008l-0.13,-0.011l-0.129,-0.015l-0.129,-0.018l-0.128,-0.02l-0.128,-0.024l-0.127,-0.027l-0.126,-0.03l-0.125,-0.033l-0.124,-0.036l-0.123,-0.039l-0.122,-0.042l-0.121,-0.045l-0.12,-0.048l-0.118,-0.051l-0.117,-0.054l-0.116,-0.056l-0.115,-0.06l-0.113,-0.062l-0.112,-0.065l-0.11,-0.068l-0.109,-0.07l-0.107,-0.074l-0.105,-0.076l-0.104,-0.078l-0.102,-0.082l-0.1,-0.084l-0.098,-0.086l-0.096,-0.089l-0.085,-0.083l-0.017,-0.017l-0.067,-0.069l-0.072,-0.077l-0.071,-0.078l-0.07,-0.08l-0.067,-0.08l-0.065,-0.082l-0.064,-0.083l-0.062,-0.084l-0.06,-0.085l-0.059,-0.086l-0.056,-0.087l-0.055,-0.087l-0.053,-0.089l-0.051,-0.09l-0.049,-0.09l-0.047,-0.091l-0.046,-0.092l-0.044,-0.093l-0.042,-0.094l-0.039,-0.094l-0.038,-0.094l-0.037,-0.096l-0.034,-0.095l-0.032,-0.097l-0.031,-0.098l-0.029,-0.097l-0.026,-0.098l-0.025,-0.098l-0.023,-0.099l-0.021,-0.1l-0.019,-0.099l-0.017,-0.1l-0.016,-0.1l-0.013,-0.101l-0.012,-0.1l-0.009,-0.102l-0.008,-0.101l-0.005,-0.101l-0.004,-0.102l-0.002,-0.102l0.001,-0.102l0.002,-0.101l0.004,-0.102l0.006,-0.102l0.008,-0.102l0.01,-0.102l0.013,-0.102l0.014,-0.102l0.016,-0.101l0.018,-0.101l0.02,-0.101l0.022,-0.101l0.024,-0.101l0.027,-0.101l0.028,-0.099l0.03,-0.1l0.032,-0.099l0.035,-0.099l0.036,-0.098l0.038,-0.098l0.041,-0.097l0.042,-0.097l0.045,-0.096l0.042,-0.086l3.999,-7.999l1.472,0l3.999,7.999Zm-5.884,1.771l-0.016,0.032l-0.011,0.024l-0.01,0.023l-0.01,0.024l-0.009,0.024l-0.009,0.024l-0.008,0.024l-0.008,0.023l-0.007,0.024l-0.007,0.025l-0.006,0.024l-0.006,0.024l-0.006,0.025l-0.004,0.024l-0.005,0.024l-0.004,0.025l-0.003,0.025l-0.003,0.024l-0.002,0.025l-0.002,0.024l-0.002,0.025l-0.001,0.025l0,0.025l-0.001,0.025l0.001,0.024l0.001,0.025l0.001,0.025l0.002,0.024l0.002,0.025l0.003,0.024l0.003,0.025l0.004,0.024l0.004,0.025l0.005,0.024l0.005,0.024l0.006,0.024l0.006,0.024l0.006,0.024l0.007,0.024l0.007,0.023l0.008,0.024l0.009,0.023l0.009,0.023l0.009,0.024l0.01,0.022l0.01,0.023l0.01,0.022l0.011,0.022l0.012,0.022l0.011,0.022l0.013,0.022l0.013,0.021l0.013,0.021l0.013,0.021l0.015,0.021l0.014,0.021l0.015,0.02l0.015,0.02l0.016,0.02l0.017,0.02l0.016,0.019l0.018,0.019l0.018,0.019l0.017,0.017l0.025,0.025l0.023,0.021l0.024,0.021l0.025,0.021l0.024,0.02l0.026,0.019l0.025,0.019l0.026,0.017l0.027,0.017l0.027,0.017l0.027,0.016l0.028,0.015l0.028,0.015l0.028,0.013l0.028,0.014l0.029,0.012l0.029,0.012l0.03,0.011l0.03,0.01l0.03,0.009l0.03,0.009l0.031,0.008l0.03,0.008l0.031,0.006l0.031,0.006l0.032,0.005l0.031,0.004l0.031,0.004l0.032,0.003l0.032,0.001l0.032,0.002l0.032,0l0.032,0l0.032,-0.002l0.032,-0.001l0.032,-0.003l0.031,-0.004l0.032,-0.004l0.031,-0.005l0.031,-0.006l0.031,-0.006l0.03,-0.008l0.031,-0.008l0.03,-0.009l0.03,-0.009l0.03,-0.01l0.029,-0.011l0.03,-0.012l0.029,-0.013l0.028,-0.013l0.028,-0.013l0.028,-0.015l0.028,-0.015l0.027,-0.016l0.027,-0.016l0.027,-0.018l0.026,-0.018l0.025,-0.018l0.026,-0.019l0.024,-0.02l0.025,-0.02l0.023,-0.021l0.024,-0.022l0.025,-0.025l0.017,-0.017l0.018,-0.019l0.017,-0.019l0.017,-0.02l0.017,-0.019l0.016,-0.02l0.015,-0.02l0.015,-0.02l0.014,-0.021l0.015,-0.021l0.013,-0.021l0.013,-0.021l0.013,-0.021l0.013,-0.022l0.012,-0.022l0.011,-0.022l0.011,-0.022l0.01,-0.022l0.01,-0.023l0.01,-0.022l0.009,-0.024l0.009,-0.023l0.008,-0.023l0.008,-0.023l0.008,-0.024l0.007,-0.024l0.006,-0.024l0.006,-0.024l0.006,-0.024l0.005,-0.024l0.005,-0.024l0.004,-0.025l0.004,-0.024l0.003,-0.025l0.003,-0.024l0.002,-0.025l0.002,-0.024l0.001,-0.025l0.001,-0.025l0.001,-0.024l-0.001,-0.025l0,-0.025l-0.001,-0.025l-0.002,-0.025l-0.002,-0.024l-0.002,-0.025l-0.003,-0.024l-0.003,-0.025l-0.004,-0.025l-0.005,-0.024l-0.004,-0.024l-0.006,-0.025l-0.006,-0.024l-0.006,-0.024l-0.007,-0.025l-0.007,-0.024l-0.008,-0.023l-0.008,-0.024l-0.009,-0.024l-0.009,-0.024l-0.01,-0.024l-0.01,-0.023l-0.011,-0.024l-0.016,-0.032l-1.149,-2.298l-1.149,2.298Z" style="fill:#e59a10;"/></g><path d="M23.142,7.864c1.12,0.901 2.088,1.983 2.858,3.203l0,1.433c0,0.398 -0.158,0.779 -0.439,1.061c-0.282,0.281 -0.663,0.439 -1.061,0.439c-0.398,0 -0.779,-0.158 -1.061,-0.439c-0.281,-0.282 -0.439,-0.663 -0.439,-1.061c0,-1.181 0,-2.819 0,-4c0,-0.222 0.049,-0.439 0.142,-0.636Zm-3.913,-2.161c0.982,0.337 1.911,0.789 2.771,1.34l0,4.457c0,0.398 -0.158,0.779 -0.439,1.061c-0.282,0.281 -0.663,0.439 -1.061,0.439c-0.398,0 -0.779,-0.158 -1.061,-0.439c-0.281,-0.282 -0.439,-0.663 -0.439,-1.061c0,-1.43 0,-3.57 0,-5c0,-0.284 0.081,-0.56 0.229,-0.797Zm-4.143,-0.703c0.999,0.007 1.972,0.126 2.906,0.346c0.005,0.051 0.008,0.102 0.008,0.154c0,1.43 0,3.57 0,5c0,0.398 -0.158,0.779 -0.439,1.061c-0.282,0.281 -0.663,0.439 -1.061,0.439c-0.398,0 -0.779,-0.158 -1.061,-0.439c-0.281,-0.282 -0.439,-0.663 -0.439,-1.061c0,-1.43 0,-3.57 0,-5c0,-0.172 0.029,-0.341 0.086,-0.5Z" style="fill:#579aff;"/></g><g><path d="M8.794,25.381c-0.308,0.038 -0.621,-0.07 -0.842,-0.299c-0.267,-0.277 -0.351,-0.684 -0.216,-1.045c0.173,-0.461 0.364,-0.972 0.561,-1.495c1.024,-2.732 3.636,-4.542 6.554,-4.542c0.099,0 0.199,0 0.298,0c2.918,0 5.53,1.81 6.554,4.542c0.197,0.523 0.388,1.034 0.561,1.495c0.135,0.361 0.051,0.768 -0.216,1.045c-0.221,0.229 -0.534,0.337 -0.842,0.299c-1.342,-2.081 -11.07,-2.081 -12.412,0Z" style="fill:#722245;"/><path d="M8.794,25.381c1.342,-2.081 3.666,-3.381 6.205,-3.381c0.001,0 0.001,0 0.002,0c2.539,0 4.863,1.3 6.205,3.381c-0.065,-0.008 -0.131,-0.023 -0.195,-0.044c-0.978,-0.326 -2.119,-0.706 -2.933,-0.978c-0.714,-0.238 -1.462,-0.359 -2.214,-0.359c-0.541,0 -1.187,0 -1.728,0c-0.752,0 -1.5,0.121 -2.214,0.359c-0.814,0.272 -1.955,0.652 -2.933,0.978c-0.064,0.021 -0.13,0.036 -0.195,0.044Z" style="fill:#ca3b8f;"/></g><g><path d="M11,11.999c0,-0.552 -0.447,-0.999 -0.999,-0.999c-0.001,0 -0.001,0 -0.001,0l-3,3l0,1c0,0.53 0.211,1.039 0.586,1.414c0.375,0.375 0.884,0.586 1.414,0.586c1.105,0 2,-0.895 2,-2c0,-1.008 0,-2.186 0,-3.001Z"/><path d="M23,14l-3,-3l-0.001,0c-0.552,0 -0.999,0.447 -0.999,0.999c0,0.816 0,1.995 0,3.003c0,1.103 0.895,1.998 1.998,1.998c0.001,0 0.003,0 0.004,0c1.103,0 1.998,-0.895 1.998,-1.998c0,-0.552 0,-1.002 0,-1.002Z"/></g><path d="M26.5,2c0,0 -1.757,3.514 -2.942,5.884c-0.632,1.264 -0.384,2.79 0.615,3.789c0,0 0,0 0.001,0.001c0.617,0.617 1.453,0.963 2.326,0.963c0.873,0 1.709,-0.346 2.326,-0.963c0.001,-0.001 0.001,-0.001 0.001,-0.001c0.999,-0.999 1.247,-2.525 0.615,-3.789c-1.185,-2.37 -2.942,-5.884 -2.942,-5.884Z" style="fill:#fff;"/></g></g></svg>