<?xml version="1.0" encoding="UTF-8" standalone="no"?>
<!DOCTYPE svg PUBLIC "-//W3C//DTD SVG 1.1//EN" "http://www.w3.org/Graphics/SVG/1.1/DTD/svg11.dtd">
<svg width="100%" height="100%" viewBox="0 0 32 32" version="1.1" xmlns="http://www.w3.org/2000/svg" xmlns:xlink="http://www.w3.org/1999/xlink" xml:space="preserve" xmlns:serif="http://www.serif.com/" style="fill-rule:evenodd;clip-rule:evenodd;stroke-linejoin:round;stroke-miterlimit:2;">
    <rect id="crazy" x="0" y="-0.017" width="32" height="32" style="fill:none;"/>
    <clipPath id="_clip1">
        <rect x="0" y="-0.017" width="32" height="32"/>
    </clipPath>
    <g clip-path="url(#_clip1)">
        <g id="outline">
            <path d="M16,-0.017c4.243,0 8.313,1.686 11.314,4.687c3,3 4.686,7.07 4.686,11.313l0,2c0,7.732 -6.268,14 -14,14c-1.325,0 -2.675,0 -4,0c-7.732,0 -14,-6.268 -14,-14l0,-2c0,-8.836 7.163,-16 16,-16l0,0Z"/>
        </g>
        <g id="emoji">
            <path d="M30,15.983c0,-3.713 -1.475,-7.274 -4.101,-9.899c-2.625,-2.626 -6.186,-4.101 -9.899,-4.101l0,0c-7.732,0 -14,6.268 -14,14l0,2c0,6.628 5.373,12 12,12l4,0c6.627,0 12,-5.372 12,-12l0,-2Z" style="fill:#fbc546;"/>
            <g>
                <g>
                    <path d="M10.751,9.387c0.396,0.193 0.76,0.451 1.077,0.768c0.751,0.75 1.172,1.767 1.172,2.828l0,0.002c0,2.208 -1.79,3.998 -3.998,3.998l-0.004,0c-2.208,0 -3.998,-1.79 -3.998,-3.998l0,-0.004c0,-1.016 0.379,-1.944 1.004,-2.649c-0.003,0.047 4.907,-0.617 4.747,-0.945Z" style="fill:#fff;"/>
                    <path d="M9,8.983c0.613,0 1.211,0.141 1.751,0.404c0.16,0.328 0.249,0.697 0.249,1.086c0,0.001 0,0.003 0,0.004c0,1.375 -1.115,2.49 -2.49,2.49l-0.02,0c-1.375,0 -2.49,-1.115 -2.49,-2.49c0,-0.001 0,-0.003 0,-0.004c0,-0.047 0.001,-0.094 0.004,-0.141c0.732,-0.827 1.802,-1.349 2.994,-1.349l0.002,0Z"/>
                </g>
                <g>
                    <path d="M24.032,7.117c1.709,0.455 2.968,2.012 2.968,3.864c0,0.66 0,1.343 0,2.002c0,1.061 -0.421,2.079 -1.172,2.829c-0.75,0.75 -1.767,1.171 -2.828,1.171l-0.002,0c-2.208,0 -3.998,-1.79 -3.998,-3.998c0,-0.66 0,-1.344 0,-2.004c0,-0.702 0.181,-1.362 0.499,-1.935c0.257,1.101 4.787,-1.539 4.533,-1.929Z" style="fill:#fff;"/>
                    <path d="M23.002,6.983c0.356,0 0.701,0.047 1.03,0.134c0.254,0.39 0.402,0.856 0.402,1.356c0,0.001 0,0.003 0,0.004c-0.001,1.375 -1.115,2.49 -2.491,2.49c-0.006,0 -0.013,0 -0.019,0c-1.18,0 -2.168,-0.82 -2.425,-1.921c0.682,-1.23 1.993,-2.063 3.499,-2.063l0.004,0Z"/>
                </g>
            </g>
            <g>
                <path d="M9.354,24.453c-1.583,-1.41 -2.715,-3.314 -3.153,-5.47l19.598,0c-0.438,2.156 -1.57,4.06 -3.153,5.47l-13.292,0Z" style="fill:#722245;"/>
                <path d="M12,24.263c0,0.122 -0.995,1.243 -0.986,1.364l0.002,0.026c-0.595,-0.343 -1.152,-0.746 -1.662,-1.2l0.755,-1.134c0.13,-0.193 0.28,-0.371 0.45,-0.53c0.136,-0.126 0.284,-0.24 0.441,-0.34l1,1.814Zm9,-1.814c0.349,0.221 0.654,0.516 0.891,0.87l0.755,1.134c-0.51,0.454 -1.067,0.857 -1.662,1.2l0.002,-0.026c0.009,-0.121 -0.986,-1.242 -0.986,-1.364l1,-1.814Z" style="fill:#a1256c;"/>
                <path d="M21,25.263c0,0.123 -0.005,0.244 -0.014,0.364c-0.185,2.437 -2.221,4.356 -4.706,4.356c-0.186,0 -0.374,0 -0.56,0c-2.607,0 -4.72,-2.113 -4.72,-4.72l0,-2.814c0.262,-0.165 0.548,-0.29 0.848,-0.369c0.248,-0.064 0.502,-0.096 0.758,-0.097l6.788,0c0.578,0 1.133,0.166 1.606,0.466l0,2.814Z" style="fill:#dd34a2;"/>
            </g>
        </g>
    </g>
</svg>
