<?xml version="1.0" encoding="UTF-8" standalone="no"?><!DOCTYPE svg PUBLIC "-//W3C//DTD SVG 1.1//EN" "http://www.w3.org/Graphics/SVG/1.1/DTD/svg11.dtd"><svg width="100%" height="100%" viewBox="0 0 32 32" version="1.1" xmlns="http://www.w3.org/2000/svg" xmlns:xlink="http://www.w3.org/1999/xlink" xml:space="preserve" xmlns:serif="http://www.serif.com/" style="fill-rule:evenodd;clip-rule:evenodd;stroke-linejoin:round;stroke-miterlimit:1.41421;"><rect id="crazy" x="0" y="-0.017" width="32" height="32" style="fill:none;"/><clipPath id="_clip1"><rect x="0" y="-0.017" width="32" height="32"/></clipPath><g clip-path="url(#_clip1)"><g id="outline"><path d="M16.199,-0.016l0.198,0.004l0.198,0.006l0.198,0.009l0.198,0.011l0.197,0.013l0.197,0.016l0.196,0.019l0.196,0.02l0.196,0.023l0.195,0.026l0.195,0.028l0.194,0.03l0.193,0.032l0.194,0.035l0.192,0.038l0.192,0.039l0.191,0.042l0.191,0.044l0.19,0.047l0.189,0.049l0.189,0.051l0.188,0.053l0.187,0.056l0.187,0.058l0.186,0.06l0.185,0.062l0.184,0.065l0.183,0.067l0.183,0.069l0.181,0.072l0.181,0.073l0.18,0.076l0.179,0.078l0.178,0.08l0.177,0.082l0.175,0.085l0.175,0.086l0.174,0.089l0.173,0.091l0.172,0.093l0.171,0.095l0.169,0.098l0.169,0.099l0.167,0.102l0.166,0.103l0.165,0.106l0.164,0.107l0.162,0.11l0.161,0.112l0.16,0.114l0.159,0.116l0.157,0.118l0.156,0.12l0.155,0.122l0.153,0.124l0.152,0.126l0.15,0.128l0.149,0.13l0.148,0.132l0.146,0.133l0.144,0.136l0.143,0.138l0.142,0.14l0.139,0.141l0.138,0.143l0.136,0.144l0.134,0.146l0.132,0.148l0.13,0.149l0.128,0.15l0.126,0.152l0.124,0.153l0.121,0.155l0.12,0.156l0.118,0.157l0.116,0.159l0.114,0.16l0.112,0.161l0.11,0.162l0.108,0.164l0.105,0.165l0.104,0.166l0.101,0.168l0.1,0.168l0.097,0.17l0.095,0.17l0.093,0.172l0.091,0.173l0.089,0.174l0.086,0.175l0.085,0.176l0.082,0.177l0.08,0.178l0.078,0.179l0.076,0.179l0.074,0.181l0.071,0.182l0.069,0.182l0.067,0.184l0.065,0.184l0.062,0.185l0.06,0.185l0.058,0.187l0.056,0.187l0.054,0.188l0.051,0.189l0.048,0.189l0.047,0.19l0.044,0.191l0.042,0.191l0.04,0.192l0.037,0.193l0.035,0.193l0.032,0.193l0.031,0.195l0.028,0.194l0.025,0.195l0.023,0.196l0.021,0.196l0.018,0.196l0.016,0.197l0.013,0.197l0.011,0.198l0.009,0.198l0.006,0.198l0.004,0.199l0.001,0.192l0,2.013l-0.001,0.174l-0.004,0.18l-0.005,0.179l-0.008,0.179l-0.01,0.179l-0.013,0.177l-0.014,0.178l-0.017,0.176l-0.019,0.176l-0.021,0.176l-0.024,0.175l-0.025,0.174l-0.028,0.173l-0.03,0.173l-0.031,0.172l-0.034,0.172l-0.036,0.17l-0.038,0.17l-0.041,0.169l-0.042,0.169l-0.044,0.167l-0.046,0.167l-0.049,0.166l-0.05,0.165l-0.052,0.164l-0.054,0.163l-0.056,0.162l-0.058,0.162l-0.06,0.16l-0.062,0.16l-0.063,0.159l-0.066,0.157l-0.067,0.157l-0.07,0.156l-0.071,0.154l-0.073,0.154l-0.074,0.153l-0.077,0.151l-0.078,0.151l-0.08,0.149l-0.082,0.148l-0.083,0.147l-0.085,0.146l-0.087,0.145l-0.089,0.144l-0.09,0.143l-0.092,0.141l-0.093,0.14l-0.095,0.139l-0.097,0.138l-0.098,0.137l-0.1,0.135l-0.102,0.134l-0.103,0.133l-0.104,0.131l-0.107,0.13l-0.107,0.129l-0.109,0.128l-0.111,0.126l-0.112,0.125l-0.114,0.124l-0.115,0.122l-0.117,0.12l-0.117,0.12l-0.12,0.118l-0.121,0.116l-0.122,0.115l-0.123,0.114l-0.125,0.112l-0.126,0.111l-0.128,0.109l-0.129,0.108l-0.13,0.106l-0.132,0.104l-0.132,0.103l-0.134,0.102l-0.136,0.1l-0.136,0.098l-0.138,0.097l-0.139,0.095l-0.14,0.094l-0.142,0.092l-0.142,0.09l-0.144,0.088l-0.145,0.087l-0.146,0.085l-0.147,0.084l-0.148,0.081l-0.15,0.08l-0.15,0.079l-0.152,0.076l-0.152,0.075l-0.154,0.073l-0.155,0.071l-0.155,0.069l-0.157,0.067l-0.158,0.066l-0.158,0.064l-0.16,0.061l-0.16,0.06l-0.162,0.058l-0.162,0.056l-0.163,0.054l-0.165,0.053l-0.165,0.05l-0.165,0.048l-0.167,0.046l-0.168,0.044l-0.168,0.043l-0.169,0.04l-0.17,0.038l-0.171,0.036l-0.171,0.034l-0.172,0.032l-0.173,0.029l-0.173,0.028l-0.175,0.026l-0.174,0.023l-0.176,0.021l-0.176,0.019l-0.177,0.017l-0.177,0.015l-0.178,0.012l-0.178,0.01l-0.179,0.008l-0.18,0.006l-0.18,0.003l-0.174,0.001l-4.012,0l-0.174,-0.001l-0.18,-0.003l-0.18,-0.006l-0.179,-0.008l-0.178,-0.01l-0.178,-0.012l-0.177,-0.015l-0.177,-0.017l-0.176,-0.019l-0.176,-0.021l-0.174,-0.023l-0.175,-0.026l-0.173,-0.028l-0.173,-0.029l-0.172,-0.032l-0.171,-0.034l-0.171,-0.036l-0.17,-0.038l-0.169,-0.04l-0.168,-0.043l-0.168,-0.044l-0.167,-0.046l-0.165,-0.048l-0.165,-0.05l-0.165,-0.053l-0.163,-0.054l-0.162,-0.056l-0.162,-0.058l-0.16,-0.06l-0.16,-0.061l-0.158,-0.064l-0.158,-0.066l-0.157,-0.067l-0.155,-0.069l-0.155,-0.071l-0.154,-0.073l-0.152,-0.075l-0.152,-0.076l-0.15,-0.079l-0.15,-0.08l-0.148,-0.081l-0.147,-0.084l-0.146,-0.085l-0.145,-0.087l-0.144,-0.088l-0.142,-0.09l-0.142,-0.092l-0.14,-0.094l-0.139,-0.095l-0.138,-0.097l-0.136,-0.098l-0.136,-0.1l-0.134,-0.102l-0.132,-0.103l-0.132,-0.104l-0.13,-0.106l-0.129,-0.108l-0.128,-0.109l-0.126,-0.111l-0.125,-0.112l-0.123,-0.114l-0.122,-0.115l-0.121,-0.116l-0.12,-0.118l-0.117,-0.12l-0.117,-0.12l-0.115,-0.122l-0.114,-0.124l-0.112,-0.125l-0.111,-0.126l-0.109,-0.128l-0.107,-0.129l-0.106,-0.13l-0.105,-0.131l-0.103,-0.133l-0.102,-0.134l-0.1,-0.135l-0.098,-0.137l-0.097,-0.138l-0.095,-0.139l-0.093,-0.14l-0.092,-0.141l-0.09,-0.143l-0.089,-0.144l-0.087,-0.145l-0.085,-0.146l-0.083,-0.147l-0.082,-0.148l-0.08,-0.149l-0.078,-0.151l-0.077,-0.151l-0.074,-0.153l-0.073,-0.154l-0.071,-0.154l-0.07,-0.156l-0.067,-0.157l-0.066,-0.157l-0.063,-0.159l-0.062,-0.16l-0.06,-0.16l-0.058,-0.162l-0.056,-0.162l-0.054,-0.163l-0.052,-0.164l-0.051,-0.165l-0.048,-0.166l-0.046,-0.167l-0.044,-0.167l-0.042,-0.169l-0.041,-0.169l-0.038,-0.17l-0.036,-0.17l-0.034,-0.172l-0.031,-0.172l-0.03,-0.173l-0.028,-0.173l-0.025,-0.174l-0.024,-0.175l-0.021,-0.176l-0.019,-0.176l-0.017,-0.176l-0.014,-0.178l-0.013,-0.177l-0.01,-0.179l-0.008,-0.179l-0.005,-0.179l-0.004,-0.18l-0.001,-0.174l0,-2.013l0.001,-0.2l0.004,-0.206l0.007,-0.205l0.009,-0.204l0.011,-0.204l0.015,-0.204l0.016,-0.202l0.019,-0.202l0.022,-0.201l0.024,-0.201l0.027,-0.2l0.029,-0.199l0.032,-0.198l0.034,-0.198l0.036,-0.196l0.039,-0.196l0.041,-0.195l0.044,-0.194l0.046,-0.193l0.048,-0.193l0.05,-0.191l0.053,-0.191l0.055,-0.189l0.058,-0.189l0.059,-0.187l0.062,-0.187l0.064,-0.186l0.066,-0.184l0.069,-0.183l0.07,-0.183l0.073,-0.181l0.075,-0.18l0.077,-0.179l0.079,-0.178l0.081,-0.177l0.084,-0.175l0.085,-0.175l0.087,-0.173l0.09,-0.172l0.091,-0.171l0.094,-0.169l0.095,-0.168l0.097,-0.167l0.1,-0.166l0.101,-0.164l0.103,-0.163l0.105,-0.162l0.107,-0.16l0.108,-0.159l0.111,-0.157l0.112,-0.156l0.115,-0.155l0.116,-0.153l0.117,-0.152l0.12,-0.15l0.121,-0.149l0.123,-0.147l0.125,-0.146l0.127,-0.144l0.128,-0.143l0.13,-0.141l0.131,-0.14l0.133,-0.138l0.135,-0.136l0.137,-0.135l0.138,-0.133l0.139,-0.132l0.142,-0.13l0.142,-0.128l0.145,-0.126l0.145,-0.125l0.148,-0.123l0.148,-0.122l0.151,-0.119l0.152,-0.118l0.153,-0.116l0.154,-0.114l0.156,-0.113l0.158,-0.11l0.159,-0.109l0.16,-0.107l0.162,-0.105l0.163,-0.103l0.164,-0.101l0.166,-0.099l0.166,-0.098l0.169,-0.095l0.169,-0.093l0.171,-0.092l0.172,-0.089l0.173,-0.088l0.174,-0.085l0.176,-0.083l0.177,-0.081l0.177,-0.08l0.179,-0.077l0.181,-0.074l0.181,-0.073l0.182,-0.071l0.184,-0.068l0.184,-0.067l0.186,-0.064l0.186,-0.061l0.188,-0.06l0.188,-0.057l0.19,-0.056l0.19,-0.052l0.192,-0.051l0.192,-0.048l0.193,-0.046l0.195,-0.044l0.195,-0.041l0.195,-0.039l0.197,-0.036l0.198,-0.034l0.198,-0.031l0.199,-0.03l0.2,-0.026l0.2,-0.024l0.202,-0.022l0.201,-0.019l0.203,-0.017l0.203,-0.014l0.204,-0.012l0.205,-0.009l0.205,-0.007l0.206,-0.003l0.2,-0.002l0.012,0l0.193,0.001Zm-0.355,4l-0.155,0.003l-0.154,0.005l-0.154,0.007l-0.154,0.009l-0.152,0.01l-0.153,0.013l-0.151,0.014l-0.151,0.017l-0.151,0.018l-0.15,0.02l-0.149,0.022l-0.149,0.023l-0.148,0.026l-0.147,0.027l-0.147,0.029l-0.146,0.031l-0.145,0.033l-0.145,0.034l-0.143,0.036l-0.144,0.038l-0.142,0.039l-0.142,0.042l-0.141,0.043l-0.141,0.044l-0.139,0.046l-0.139,0.048l-0.138,0.05l-0.137,0.051l-0.137,0.053l-0.135,0.054l-0.135,0.057l-0.134,0.057l-0.134,0.059l-0.132,0.061l-0.131,0.063l-0.131,0.064l-0.13,0.065l-0.129,0.067l-0.128,0.068l-0.127,0.07l-0.126,0.072l-0.125,0.073l-0.124,0.074l-0.123,0.076l-0.122,0.078l-0.122,0.078l-0.12,0.081l-0.119,0.081l-0.118,0.083l-0.118,0.085l-0.116,0.085l-0.115,0.087l-0.114,0.089l-0.112,0.09l-0.112,0.091l-0.111,0.092l-0.109,0.094l-0.109,0.095l-0.107,0.096l-0.106,0.098l-0.105,0.099l-0.104,0.1l-0.102,0.101l-0.102,0.103l-0.1,0.103l-0.098,0.105l-0.098,0.106l-0.096,0.107l-0.095,0.109l-0.094,0.109l-0.093,0.111l-0.091,0.112l-0.089,0.113l-0.089,0.114l-0.087,0.115l-0.086,0.116l-0.084,0.117l-0.083,0.118l-0.082,0.119l-0.08,0.121l-0.079,0.121l-0.077,0.122l-0.076,0.123l-0.074,0.125l-0.073,0.125l-0.072,0.126l-0.07,0.127l-0.068,0.128l-0.067,0.128l-0.066,0.13l-0.064,0.131l-0.062,0.131l-0.061,0.133l-0.059,0.133l-0.058,0.134l-0.056,0.135l-0.054,0.136l-0.053,0.136l-0.051,0.137l-0.05,0.138l-0.048,0.139l-0.046,0.14l-0.045,0.14l-0.043,0.141l-0.041,0.142l-0.039,0.143l-0.038,0.143l-0.036,0.144l-0.035,0.144l-0.032,0.146l-0.031,0.146l-0.029,0.146l-0.027,0.148l-0.026,0.148l-0.024,0.148l-0.021,0.15l-0.02,0.149l-0.019,0.151l-0.016,0.151l-0.014,0.152l-0.013,0.152l-0.011,0.153l-0.008,0.153l-0.007,0.154l-0.005,0.155l-0.003,0.155l-0.001,0.162l0,1.987l0.001,0.136l0.002,0.129l0.004,0.129l0.006,0.129l0.007,0.127l0.009,0.128l0.011,0.127l0.012,0.126l0.013,0.126l0.015,0.125l0.017,0.125l0.018,0.125l0.02,0.124l0.021,0.123l0.023,0.123l0.024,0.122l0.026,0.121l0.027,0.121l0.029,0.121l0.03,0.12l0.031,0.119l0.033,0.119l0.035,0.118l0.035,0.118l0.037,0.117l0.039,0.116l0.04,0.116l0.041,0.115l0.043,0.114l0.044,0.114l0.045,0.113l0.047,0.112l0.048,0.112l0.049,0.111l0.051,0.11l0.052,0.11l0.053,0.108l0.055,0.109l0.056,0.107l0.057,0.107l0.058,0.105l0.06,0.105l0.061,0.105l0.062,0.103l0.063,0.103l0.064,0.102l0.066,0.101l0.067,0.1l0.068,0.099l0.069,0.099l0.07,0.098l0.072,0.096l0.072,0.096l0.074,0.095l0.075,0.094l0.076,0.093l0.077,0.093l0.078,0.091l0.079,0.09l0.08,0.09l0.082,0.088l0.082,0.087l0.084,0.087l0.084,0.085l0.085,0.085l0.087,0.083l0.087,0.083l0.089,0.081l0.089,0.08l0.09,0.079l0.092,0.078l0.092,0.077l0.093,0.076l0.094,0.075l0.095,0.074l0.096,0.073l0.097,0.071l0.097,0.07l0.099,0.07l0.099,0.068l0.1,0.066l0.102,0.066l0.101,0.065l0.103,0.063l0.104,0.062l0.104,0.061l0.105,0.059l0.106,0.059l0.106,0.057l0.108,0.055l0.108,0.055l0.109,0.053l0.109,0.052l0.111,0.051l0.11,0.049l0.112,0.048l0.113,0.047l0.113,0.045l0.113,0.044l0.115,0.043l0.115,0.041l0.115,0.04l0.117,0.039l0.117,0.037l0.117,0.036l0.118,0.034l0.119,0.033l0.119,0.032l0.12,0.03l0.121,0.028l0.121,0.027l0.122,0.026l0.122,0.024l0.122,0.023l0.124,0.021l0.124,0.02l0.124,0.018l0.125,0.017l0.125,0.015l0.126,0.014l0.127,0.012l0.126,0.01l0.128,0.009l0.128,0.007l0.128,0.006l0.129,0.004l0.129,0.002l0.136,0.001l3.988,0l0.136,-0.001l0.129,-0.002l0.129,-0.004l0.128,-0.006l0.128,-0.007l0.128,-0.009l0.126,-0.01l0.127,-0.012l0.126,-0.014l0.125,-0.015l0.125,-0.017l0.124,-0.018l0.124,-0.02l0.124,-0.021l0.122,-0.023l0.122,-0.024l0.122,-0.026l0.121,-0.027l0.121,-0.028l0.12,-0.03l0.119,-0.032l0.119,-0.033l0.118,-0.034l0.117,-0.036l0.117,-0.037l0.117,-0.039l0.115,-0.04l0.115,-0.041l0.115,-0.043l0.113,-0.044l0.113,-0.045l0.113,-0.047l0.112,-0.048l0.11,-0.049l0.111,-0.051l0.109,-0.052l0.109,-0.053l0.108,-0.055l0.108,-0.055l0.106,-0.057l0.106,-0.059l0.105,-0.059l0.104,-0.061l0.104,-0.062l0.103,-0.063l0.101,-0.065l0.101,-0.066l0.101,-0.066l0.099,-0.068l0.099,-0.07l0.097,-0.07l0.097,-0.071l0.096,-0.073l0.095,-0.074l0.094,-0.075l0.093,-0.075l0.092,-0.078l0.092,-0.078l0.09,-0.079l0.089,-0.08l0.089,-0.081l0.087,-0.083l0.087,-0.083l0.085,-0.085l0.084,-0.085l0.084,-0.087l0.082,-0.087l0.082,-0.088l0.08,-0.09l0.079,-0.09l0.078,-0.091l0.077,-0.093l0.076,-0.093l0.075,-0.094l0.074,-0.095l0.072,-0.096l0.072,-0.097l0.07,-0.097l0.069,-0.099l0.068,-0.099l0.067,-0.1l0.066,-0.101l0.064,-0.102l0.063,-0.103l0.062,-0.103l0.061,-0.105l0.06,-0.105l0.058,-0.105l0.057,-0.107l0.056,-0.107l0.055,-0.109l0.053,-0.108l0.052,-0.11l0.05,-0.11l0.05,-0.111l0.048,-0.112l0.047,-0.112l0.045,-0.113l0.044,-0.114l0.043,-0.114l0.041,-0.115l0.04,-0.116l0.039,-0.116l0.037,-0.117l0.035,-0.118l0.035,-0.118l0.033,-0.119l0.031,-0.119l0.03,-0.12l0.029,-0.12l0.027,-0.122l0.026,-0.121l0.024,-0.122l0.023,-0.123l0.021,-0.123l0.02,-0.124l0.018,-0.125l0.017,-0.125l0.015,-0.125l0.013,-0.126l0.012,-0.126l0.011,-0.127l0.009,-0.128l0.007,-0.127l0.006,-0.129l0.004,-0.129l0.002,-0.129l0.001,-0.136l0,-1.987l-0.001,-0.156l-0.003,-0.149l-0.004,-0.148l-0.007,-0.149l-0.008,-0.148l-0.01,-0.148l-0.012,-0.148l-0.014,-0.147l-0.015,-0.147l-0.018,-0.146l-0.019,-0.147l-0.021,-0.146l-0.022,-0.145l-0.025,-0.146l-0.026,-0.144l-0.028,-0.145l-0.029,-0.144l-0.032,-0.143l-0.033,-0.143l-0.035,-0.143l-0.037,-0.142l-0.038,-0.141l-0.04,-0.141l-0.042,-0.141l-0.043,-0.14l-0.045,-0.139l-0.047,-0.139l-0.049,-0.138l-0.05,-0.137l-0.052,-0.137l-0.053,-0.136l-0.055,-0.136l-0.057,-0.135l-0.059,-0.134l-0.06,-0.133l-0.062,-0.133l-0.063,-0.132l-0.065,-0.131l-0.067,-0.131l-0.068,-0.129l-0.07,-0.129l-0.071,-0.128l-0.073,-0.127l-0.074,-0.127l-0.077,-0.125l-0.077,-0.125l-0.079,-0.124l-0.081,-0.122l-0.083,-0.122l-0.083,-0.121l-0.086,-0.12l-0.087,-0.119l-0.088,-0.118l-0.09,-0.117l-0.092,-0.116l-0.093,-0.115l-0.094,-0.114l-0.096,-0.112l-0.097,-0.112l-0.099,-0.111l-0.101,-0.109l-0.102,-0.109l-0.103,-0.107l-0.105,-0.106l-0.106,-0.105l-0.107,-0.103l-0.108,-0.102l-0.11,-0.1l-0.111,-0.099l-0.111,-0.098l-0.113,-0.096l-0.114,-0.094l-0.115,-0.093l-0.116,-0.092l-0.117,-0.09l-0.118,-0.088l-0.119,-0.087l-0.12,-0.085l-0.121,-0.084l-0.121,-0.083l-0.123,-0.08l-0.124,-0.08l-0.124,-0.077l-0.126,-0.076l-0.126,-0.075l-0.127,-0.073l-0.128,-0.071l-0.129,-0.07l-0.13,-0.068l-0.13,-0.067l-0.132,-0.065l-0.132,-0.063l-0.132,-0.062l-0.134,-0.06l-0.134,-0.058l-0.135,-0.057l-0.135,-0.055l-0.137,-0.054l-0.136,-0.052l-0.138,-0.05l-0.138,-0.049l-0.139,-0.046l-0.139,-0.046l-0.14,-0.043l-0.141,-0.042l-0.14,-0.04l-0.142,-0.038l-0.142,-0.037l-0.143,-0.035l-0.143,-0.033l-0.143,-0.031l-0.144,-0.03l-0.144,-0.028l-0.145,-0.026l-0.145,-0.025l-0.146,-0.022l-0.146,-0.021l-0.146,-0.019l-0.147,-0.017l-0.147,-0.016l-0.147,-0.014l-0.148,-0.012l-0.148,-0.01l-0.148,-0.008l-0.148,-0.006l-0.149,-0.005l-0.149,-0.003l-0.149,-0.001l-0.156,0.001Z"/></g><g id="emoji"><path d="M30,15.983c0,-3.713 -1.475,-7.274 -4.101,-9.899c-2.625,-2.626 -6.186,-4.101 -9.899,-4.101c0,0 0,0 0,0c-7.732,0 -14,6.268 -14,14c0,0.669 0,1.338 0,2c0,6.628 5.373,12 12,12c1.325,0 2.675,0 4,0c6.627,0 12,-5.372 12,-12c0,-0.662 0,-1.331 0,-2Z" style="fill:#fbc546;"/><path d="M24.078,19.986l0.078,0.01l0.077,0.015l0.076,0.021l0.074,0.027l0.071,0.033l0.068,0.039l0.066,0.043l0.061,0.049l0.058,0.053l0.053,0.058l0.049,0.062l0.044,0.065l0.038,0.068l0.033,0.072l0.027,0.073l0.021,0.076l0.016,0.077l0.009,0.078l0.003,0.078l-0.003,0.079l-0.009,0.078l-0.016,0.077l-0.021,0.075l-0.027,0.074l-0.033,0.071l-0.038,0.069l-0.044,0.065l-0.049,0.062l-0.053,0.057l-1.883,1.883l-0.067,0.065l-0.072,0.068l-0.074,0.065l-0.076,0.064l-0.077,0.061l-0.078,0.06l-0.08,0.057l-0.081,0.056l-0.082,0.053l-0.083,0.051l-0.085,0.049l-0.085,0.048l-0.087,0.044l-0.088,0.043l-0.089,0.041l-0.089,0.038l-0.091,0.036l-0.091,0.034l-0.093,0.032l-0.093,0.03l-0.093,0.027l-0.095,0.025l-0.095,0.023l-0.096,0.02l-0.096,0.018l-0.097,0.016l-0.098,0.013l-0.098,0.011l-0.098,0.009l-0.099,0.006l-0.099,0.004l-0.099,0.001l-0.099,-0.001l-0.099,-0.004l-0.099,-0.006l-0.098,-0.009l-0.098,-0.011l-0.098,-0.013l-0.097,-0.016l-0.096,-0.018l-0.096,-0.02l-0.095,-0.023l-0.095,-0.025l-0.093,-0.027l-0.093,-0.03l-0.093,-0.032l-0.091,-0.034l-0.091,-0.036l-0.089,-0.038l-0.089,-0.041l-0.088,-0.043l-0.087,-0.044l-0.085,-0.048l-0.085,-0.049l-0.083,-0.051l-0.082,-0.053l-0.081,-0.056l-0.08,-0.057l-0.078,-0.06l-0.077,-0.061l-0.076,-0.064l-0.074,-0.065l-0.072,-0.068l-0.067,-0.065l-1.167,-1.167l-0.009,-0.008l-0.009,0.008l-1.167,1.167l-0.067,0.065l-0.072,0.068l-0.074,0.065l-0.076,0.064l-0.077,0.061l-0.078,0.06l-0.08,0.057l-0.081,0.056l-0.082,0.053l-0.083,0.051l-0.085,0.049l-0.085,0.048l-0.087,0.044l-0.088,0.043l-0.089,0.041l-0.089,0.038l-0.091,0.036l-0.091,0.034l-0.093,0.032l-0.093,0.03l-0.093,0.027l-0.095,0.025l-0.095,0.023l-0.096,0.02l-0.096,0.018l-0.097,0.016l-0.098,0.013l-0.098,0.011l-0.098,0.009l-0.099,0.006l-0.099,0.004l-0.099,0.001l-0.099,-0.001l-0.099,-0.004l-0.099,-0.006l-0.098,-0.009l-0.098,-0.011l-0.098,-0.013l-0.097,-0.016l-0.096,-0.018l-0.096,-0.02l-0.095,-0.023l-0.095,-0.025l-0.093,-0.027l-0.093,-0.03l-0.093,-0.032l-0.091,-0.034l-0.091,-0.036l-0.089,-0.038l-0.089,-0.041l-0.088,-0.043l-0.087,-0.044l-0.085,-0.048l-0.085,-0.049l-0.083,-0.051l-0.082,-0.053l-0.081,-0.056l-0.08,-0.057l-0.078,-0.06l-0.077,-0.061l-0.076,-0.064l-0.074,-0.065l-0.072,-0.068l-0.067,-0.065l-1.883,-1.883l-0.053,-0.057l-0.049,-0.062l-0.044,-0.065l-0.038,-0.069l-0.033,-0.071l-0.027,-0.074l-0.021,-0.075l-0.016,-0.077l-0.009,-0.078l-0.003,-0.079l0.003,-0.078l0.009,-0.078l0.016,-0.077l0.021,-0.076l0.027,-0.073l0.033,-0.072l0.038,-0.068l0.044,-0.065l0.049,-0.062l0.053,-0.058l0.058,-0.053l0.061,-0.049l0.066,-0.043l0.068,-0.039l0.071,-0.033l0.074,-0.027l0.076,-0.021l0.077,-0.015l0.078,-0.01l0.078,-0.003l0.078,0.003l0.078,0.01l0.077,0.015l0.076,0.021l0.074,0.027l0.071,0.033l0.068,0.039l0.066,0.043l0.061,0.049l0.058,0.053l1.874,1.874l0.04,0.04l0.037,0.033l0.037,0.033l0.038,0.032l0.038,0.03l0.039,0.03l0.04,0.029l0.04,0.028l0.041,0.026l0.042,0.026l0.042,0.024l0.043,0.024l0.044,0.022l0.043,0.022l0.045,0.02l0.045,0.019l0.045,0.018l0.046,0.017l0.046,0.016l0.046,0.015l0.047,0.014l0.048,0.012l0.047,0.012l0.048,0.01l0.048,0.009l0.049,0.008l0.048,0.006l0.049,0.006l0.049,0.004l0.05,0.003l0.049,0.002l0.05,0.001l0.05,-0.001l0.049,-0.002l0.05,-0.003l0.049,-0.004l0.049,-0.006l0.048,-0.006l0.049,-0.008l0.048,-0.009l0.048,-0.01l0.047,-0.012l0.048,-0.012l0.047,-0.014l0.046,-0.015l0.046,-0.016l0.046,-0.017l0.045,-0.018l0.045,-0.019l0.045,-0.02l0.043,-0.022l0.044,-0.022l0.043,-0.024l0.042,-0.024l0.042,-0.026l0.041,-0.026l0.04,-0.028l0.04,-0.029l0.039,-0.03l0.038,-0.03l0.038,-0.032l0.037,-0.033l0.037,-0.033l0.04,-0.04l1.176,-1.175l0.062,-0.06l0.075,-0.065l0.078,-0.06l0.08,-0.057l0.083,-0.052l0.085,-0.048l0.087,-0.044l0.09,-0.04l0.091,-0.035l0.092,-0.03l0.094,-0.026l0.096,-0.022l0.097,-0.017l0.097,-0.012l0.099,-0.007l0.099,-0.003l0.099,0.003l0.099,0.007l0.097,0.012l0.097,0.017l0.096,0.022l0.094,0.026l0.092,0.03l0.091,0.035l0.09,0.04l0.087,0.044l0.085,0.048l0.083,0.052l0.08,0.057l0.078,0.06l0.075,0.065l0.062,0.06l1.176,1.175l0.04,0.04l0.037,0.033l0.037,0.033l0.038,0.032l0.038,0.03l0.039,0.03l0.04,0.029l0.04,0.028l0.041,0.026l0.042,0.026l0.042,0.024l0.043,0.024l0.044,0.022l0.043,0.022l0.045,0.02l0.045,0.019l0.045,0.018l0.046,0.017l0.046,0.016l0.046,0.015l0.047,0.014l0.048,0.012l0.047,0.012l0.048,0.01l0.048,0.009l0.049,0.008l0.048,0.006l0.049,0.006l0.049,0.004l0.05,0.003l0.049,0.002l0.05,0.001l0.05,-0.001l0.049,-0.002l0.05,-0.003l0.049,-0.004l0.049,-0.006l0.048,-0.006l0.049,-0.008l0.048,-0.009l0.048,-0.01l0.047,-0.012l0.048,-0.012l0.047,-0.014l0.046,-0.015l0.046,-0.016l0.046,-0.017l0.045,-0.018l0.045,-0.019l0.045,-0.02l0.043,-0.022l0.044,-0.022l0.043,-0.024l0.042,-0.024l0.042,-0.026l0.041,-0.026l0.04,-0.028l0.04,-0.029l0.039,-0.03l0.038,-0.03l0.038,-0.032l0.037,-0.033l0.037,-0.033l0.04,-0.04l1.874,-1.874l0.058,-0.053l0.061,-0.049l0.066,-0.043l0.068,-0.039l0.071,-0.033l0.074,-0.027l0.076,-0.021l0.077,-0.015l0.078,-0.01l0.078,-0.003l0.078,0.003Z" style="fill:#593604;"/><g><circle cx="8" cy="12.983" r="5" style="fill:#fff;"/><circle cx="24" cy="12.983" r="5" style="fill:#fff;"/></g><g><circle cx="8" cy="12.983" r="4"/><circle cx="24" cy="12.983" r="4"/></g><g><circle cx="7" cy="11.983" r="2" style="fill:#4d4d4d;"/><circle cx="23" cy="11.983" r="2" style="fill:#4d4d4d;"/></g></g></g></svg>