<?xml version="1.0" encoding="UTF-8" standalone="no"?>
<!DOCTYPE svg PUBLIC "-//W3C//DTD SVG 1.1//EN" "http://www.w3.org/Graphics/SVG/1.1/DTD/svg11.dtd">
<svg width="100%" height="100%" viewBox="0 0 32 32" version="1.1" xmlns="http://www.w3.org/2000/svg" xmlns:xlink="http://www.w3.org/1999/xlink" xml:space="preserve" xmlns:serif="http://www.serif.com/" style="fill-rule:evenodd;clip-rule:evenodd;stroke-linecap:round;stroke-linejoin:round;stroke-miterlimit:1.5;">
    <rect id="dead" x="0" y="0" width="32" height="32" style="fill:none;"/>
    <clipPath id="_clip1">
        <rect x="0" y="0" width="32" height="32"/>
    </clipPath>
    <g clip-path="url(#_clip1)">
        <g id="outline">
            <path d="M16,1c4.243,0 8.313,1.686 11.314,4.686c3,3.001 4.686,7.071 4.686,11.314c0,0.671 0,1.339 0,2c0,7.18 -5.82,13 -13,13c-1.972,0 -4.028,0 -6,0c-7.18,0 -13,-5.82 -13,-13l0,-2c0,-8.837 7.163,-16 16,-16l0,0Z"/>
        </g>
        <g id="emoji">
            <path d="M30,17c0,-3.713 -1.475,-7.274 -4.101,-9.899c-2.625,-2.626 -6.186,-4.101 -9.899,-4.101l0,0c-7.732,0 -14,6.268 -14,14l0,2c0,6.075 4.925,11 11,11c1.972,0 4.028,0 6,0c6.075,0 11,-4.925 11,-11c0,-0.661 0,-1.329 0,-2Z" style="fill:#fbc546;"/>
            <path d="M25.293,9.293c0.101,-0.1 0.22,-0.178 0.353,-0.228c0.121,-0.046 0.249,-0.068 0.378,-0.065c0.125,0.003 0.249,0.03 0.364,0.078c0.103,0.043 0.199,0.104 0.282,0.179c0.081,0.074 0.15,0.161 0.204,0.256c0.15,0.27 0.166,0.603 0.043,0.886c-0.05,0.115 -0.122,0.219 -0.21,0.308l-2.293,2.293l2.293,2.293c0.088,0.089 0.16,0.193 0.21,0.308c0.123,0.283 0.107,0.616 -0.043,0.886c-0.054,0.095 -0.123,0.182 -0.204,0.256c-0.083,0.075 -0.179,0.136 -0.282,0.179c-0.115,0.048 -0.239,0.075 -0.364,0.078c-0.129,0.003 -0.257,-0.019 -0.378,-0.065c-0.133,-0.05 -0.252,-0.128 -0.353,-0.228l-2.293,-2.293l-2.293,2.293c-0.101,0.1 -0.22,0.178 -0.353,0.228c-0.121,0.046 -0.249,0.068 -0.378,0.065c-0.125,-0.003 -0.249,-0.03 -0.364,-0.078c-0.103,-0.043 -0.199,-0.104 -0.282,-0.179c-0.081,-0.074 -0.15,-0.161 -0.204,-0.256c-0.15,-0.27 -0.166,-0.603 -0.043,-0.886c0.05,-0.115 0.122,-0.219 0.21,-0.308l2.293,-2.293l-2.293,-2.293c-0.088,-0.089 -0.16,-0.193 -0.21,-0.308c-0.123,-0.283 -0.107,-0.616 0.043,-0.886c0.054,-0.095 0.123,-0.182 0.204,-0.256c0.083,-0.075 0.179,-0.136 0.282,-0.179c0.115,-0.048 0.239,-0.075 0.364,-0.078c0.129,-0.003 0.257,0.019 0.378,0.065c0.133,0.05 0.252,0.128 0.353,0.228l2.293,2.293l2.293,-2.293Z"/>
            <path d="M11.293,9.293c0.101,-0.1 0.22,-0.178 0.353,-0.228c0.121,-0.046 0.249,-0.068 0.378,-0.065c0.125,0.003 0.249,0.03 0.364,0.078c0.103,0.043 0.199,0.104 0.282,0.179c0.081,0.074 0.15,0.161 0.204,0.256c0.15,0.27 0.166,0.603 0.043,0.886c-0.05,0.115 -0.122,0.219 -0.21,0.308l-2.293,2.293l2.293,2.293c0.088,0.089 0.16,0.193 0.21,0.308c0.123,0.283 0.107,0.616 -0.043,0.886c-0.054,0.095 -0.123,0.182 -0.204,0.256c-0.083,0.075 -0.179,0.136 -0.282,0.179c-0.115,0.048 -0.239,0.075 -0.364,0.078c-0.129,0.003 -0.257,-0.019 -0.378,-0.065c-0.133,-0.05 -0.252,-0.128 -0.353,-0.228l-2.293,-2.293l-2.293,2.293c-0.101,0.1 -0.22,0.178 -0.353,0.228c-0.121,0.046 -0.249,0.068 -0.378,0.065c-0.125,-0.003 -0.249,-0.03 -0.364,-0.078c-0.103,-0.043 -0.199,-0.104 -0.282,-0.179c-0.081,-0.074 -0.15,-0.161 -0.204,-0.256c-0.15,-0.27 -0.166,-0.603 -0.043,-0.886c0.05,-0.115 0.122,-0.219 0.21,-0.308l2.293,-2.293l-2.293,-2.293c-0.088,-0.089 -0.16,-0.193 -0.21,-0.308c-0.123,-0.283 -0.107,-0.616 0.043,-0.886c0.054,-0.095 0.123,-0.182 0.204,-0.256c0.083,-0.075 0.179,-0.136 0.282,-0.179c0.115,-0.048 0.239,-0.075 0.364,-0.078c0.129,-0.003 0.257,0.019 0.378,0.065c0.133,0.05 0.252,0.128 0.353,0.228l2.293,2.293l2.293,-2.293Z"/>
            <path d="M8,20c0,0 0.755,1.132 1.609,2.413c0.587,0.881 1.538,1.452 2.592,1.557c1.054,0.104 2.099,-0.27 2.847,-1.018c0.001,-0.001 0.001,-0.001 0.002,-0.002c0.252,-0.252 0.594,-0.393 0.95,-0.393c0.356,0 0.698,0.141 0.95,0.393c0.001,0.001 0.001,0.001 0.002,0.002c0.748,0.748 1.793,1.122 2.847,1.018c1.054,-0.105 2.005,-0.676 2.592,-1.557c0.854,-1.281 1.609,-2.413 1.609,-2.413" style="fill:none;stroke:#593604;stroke-width:2px;"/>
        </g>
    </g>
</svg>
