<?xml version="1.0" encoding="UTF-8" standalone="no"?>
<!DOCTYPE svg PUBLIC "-//W3C//DTD SVG 1.1//EN" "http://www.w3.org/Graphics/SVG/1.1/DTD/svg11.dtd">
<svg width="100%" height="100%" viewBox="0 0 32 32" version="1.1" xmlns="http://www.w3.org/2000/svg" xmlns:xlink="http://www.w3.org/1999/xlink" xml:space="preserve" xmlns:serif="http://www.serif.com/" style="fill-rule:evenodd;clip-rule:evenodd;stroke-linejoin:round;stroke-miterlimit:2;">
    <rect id="dizzy_face" x="0" y="-0.017" width="32" height="32" style="fill:none;"/>
    <clipPath id="_clip1">
        <rect x="0" y="-0.017" width="32" height="32"/>
    </clipPath>
    <g clip-path="url(#_clip1)">
        <g id="outline">
            <path d="M16,0.983c8.837,0 16,7.164 16,16l0,0.502c0,3.58 -1.422,7.013 -3.953,9.545c-2.532,2.531 -5.965,3.953 -9.545,3.953c-1.652,0 -3.352,0 -5.004,0c-3.58,0 -7.013,-1.422 -9.545,-3.953c-2.531,-2.532 -3.953,-5.965 -3.953,-9.545c0,-0.167 0,-0.334 0,-0.502c0,-8.836 7.163,-16 16,-16l0,0Z"/>
        </g>
        <g id="emoji">
            <path d="M2.257,14.298c0.866,0.042 4.934,-7.453 4.911,-8.178c2.409,-1.961 5.483,-3.137 8.832,-3.137l0.091,0.001c3.313,0.021 6.353,1.193 8.741,3.136c-0.346,0.791 3.076,7.882 4.911,8.178c0.169,0.869 0.257,1.767 0.257,2.685l0,0.502c0,3.05 -1.211,5.974 -3.368,8.131c-2.156,2.156 -5.081,3.367 -8.13,3.367l-5.004,0c-3.049,0 -5.974,-1.211 -8.13,-3.367c-2.157,-2.157 -3.368,-5.081 -3.368,-8.131c0,-0.167 0,-0.334 0,-0.502c0,-0.918 0.088,-1.816 0.257,-2.685Z" style="fill:#fbc546;"/>
            <path d="M23.9,18.483l-0.51,0c-1.363,0 -3.042,-0.913 -4.006,-1.877c-0.964,-0.964 -1.884,-2.649 -1.884,-4.013c0,0 0,-0.001 0,-0.002c0,-2.959 3.149,-6.108 6.108,-6.108l0.894,0c0.305,0 1.51,0.705 1.791,1.011c1.724,1.869 2.945,4.208 3.45,6.804c-0.163,0.56 -0.399,1.089 -0.697,1.575c0.133,-0.436 -0.702,0.011 -1.424,0.733c-0.722,0.722 -2.701,1.877 -3.722,1.877Z" style="fill:#fff;"/>
            <path d="M23.9,16.233l-0.51,0c-0.965,0 -1.891,-0.383 -2.574,-1.066c-0.683,-0.682 -1.066,-1.608 -1.066,-2.574c0,0 0,-0.001 0,-0.002c0,-2.13 1.727,-3.858 3.858,-3.858l0.894,0c1.259,0 2.467,0.501 3.357,1.391c0.891,0.89 1.391,2.098 1.391,3.357c0,0.337 0,0.676 0,1.012c0,0.48 -0.071,0.944 -0.204,1.38c-1.143,1.865 -3.2,3.11 -5.546,3.11c-3.587,0 -6.5,-2.912 -6.5,-6.5c0,-3.587 2.913,-6.5 6.5,-6.5c0.456,0 0.902,0.047 1.332,0.137c0.52,0.424 1.009,0.883 1.463,1.376c-0.576,-0.173 -1.18,-0.263 -1.793,-0.263l-0.894,0c-2.959,0 -5.358,2.399 -5.358,5.358c0,0.001 0,0.002 0,0.002c0,1.364 0.542,2.671 1.505,3.635c0.964,0.964 2.272,1.505 3.635,1.505l0.51,0c1.021,0 2,-0.405 2.722,-1.127c0.722,-0.722 1.128,-1.702 1.128,-2.723c0,-0.029 0,-0.058 0,-0.088c0,-0.944 -0.375,-1.85 -1.043,-2.518c-0.668,-0.668 -1.574,-1.044 -2.519,-1.044l-0.688,0c-0.597,0 -1.169,0.237 -1.591,0.659c-0.422,0.422 -0.659,0.995 -0.659,1.591c0,1.243 1.007,2.25 2.25,2.25l0.501,0c0.414,0 0.749,-0.335 0.749,-0.749c0,0 0,0 0,-0.001c0,-0.414 -0.336,-0.75 -0.75,-0.75c-0.204,0 -0.396,0 -0.5,0c-0.414,0 -0.75,-0.335 -0.75,-0.75c0,-0.199 0.079,-0.389 0.22,-0.53c0.14,-0.141 0.331,-0.22 0.53,-0.22l0.688,0c0.547,0 1.071,0.218 1.458,0.604c0.387,0.387 0.604,0.911 0.604,1.458c0,0.03 0,0.059 0,0.088c0,0.624 -0.248,1.221 -0.688,1.662c-0.441,0.441 -1.039,0.688 -1.662,0.688Z" style="fill:#982eee;"/>
            <path d="M8.392,6.483c2.959,0 6.108,3.149 6.108,6.108c0,0.001 0,0.002 0,0.002c0,1.364 -0.92,3.049 -1.884,4.013c-0.964,0.964 -2.643,1.877 -4.006,1.877l-0.51,0c-1.021,0 -3,-1.155 -3.722,-1.877c-0.722,-0.722 -1.557,-1.169 -1.424,-0.733c-0.298,-0.486 -0.534,-1.015 -0.697,-1.575c0.504,-2.594 1.725,-4.933 3.448,-6.802c0.282,-0.306 1.488,-1.013 1.793,-1.013l0.894,0Z" style="fill:#fff;"/>
            <path d="M7.168,6.12c0.43,-0.09 0.876,-0.137 1.332,-0.137c3.587,0 6.5,2.913 6.5,6.5c0,3.588 -2.913,6.5 -6.5,6.5c-2.346,0 -4.403,-1.245 -5.546,-3.11c-0.133,-0.436 -0.204,-0.9 -0.204,-1.38c0,-0.336 0,-0.675 0,-1.012c0,-1.259 0.5,-2.467 1.391,-3.357c0.89,-0.89 2.098,-1.391 3.357,-1.391l0.894,0c2.131,0 3.858,1.728 3.858,3.858c0,0.001 0,0.002 0,0.002c0,0.966 -0.383,1.892 -1.066,2.574c-0.683,0.683 -1.609,1.066 -2.574,1.066l-0.51,0c-0.623,0 -1.221,-0.247 -1.662,-0.688c-0.44,-0.441 -0.688,-1.038 -0.688,-1.662c0,-0.029 0,-0.058 0,-0.088c0,-0.547 0.217,-1.071 0.604,-1.458c0.387,-0.386 0.911,-0.604 1.458,-0.604l0.688,0c0.199,0 0.39,0.079 0.53,0.22c0.141,0.141 0.22,0.331 0.22,0.53c0,0.415 -0.336,0.75 -0.75,0.75c-0.104,0 -0.296,0 -0.5,0c-0.414,0 -0.75,0.336 -0.75,0.75c0,0.001 0,0.001 0,0.001c0,0.414 0.335,0.749 0.749,0.749l0.501,0c1.243,0 2.25,-1.007 2.25,-2.25c0,-0.596 -0.237,-1.169 -0.659,-1.591c-0.422,-0.422 -0.994,-0.659 -1.591,-0.659l-0.688,0c-0.945,0 -1.851,0.376 -2.519,1.044c-0.668,0.668 -1.043,1.574 -1.043,2.518c0,0.03 0,0.059 0,0.088c0,1.021 0.406,2.001 1.128,2.723c0.722,0.722 1.701,1.127 2.722,1.127l0.51,0c1.363,0 2.671,-0.541 3.635,-1.505c0.963,-0.964 1.505,-2.271 1.505,-3.635c0,0 0,-0.001 0,-0.002c0,-2.959 -2.399,-5.358 -5.358,-5.358l-0.894,0c-0.613,0 -1.217,0.09 -1.793,0.263c0.454,-0.493 0.943,-0.953 1.463,-1.376Z" style="fill:#982eee;"/>
            <g>
                <path d="M16.469,18.983c2.142,0 4.078,1.277 4.922,3.246c0.267,0.623 0.538,1.256 0.78,1.821c0.152,0.355 0.087,0.765 -0.168,1.055c-0.255,0.29 -0.654,0.406 -1.025,0.3l-0.492,-0.14c-0.512,-0.703 -2.499,-1.282 -4.486,-1.282c-1.987,0 -3.974,0.579 -4.486,1.282l-0.492,0.14c-0.371,0.106 -0.77,-0.01 -1.025,-0.3c-0.255,-0.29 -0.32,-0.7 -0.168,-1.055c0.242,-0.565 0.513,-1.198 0.78,-1.821c0.844,-1.969 2.78,-3.246 4.922,-3.246l0.938,0Z" style="fill:#722245;"/>
                <path d="M16.001,22.983c1.807,0 3.46,0.875 4.485,2.282l-1.745,-0.498c-1.791,-0.512 -3.691,-0.512 -5.482,0l-1.745,0.498c1.025,-1.407 2.678,-2.282 4.485,-2.282l0.002,0Z" style="fill:#ca3b8f;"/>
            </g>
        </g>
    </g>
</svg>
