<?xml version="1.0" encoding="UTF-8" standalone="no"?><!DOCTYPE svg PUBLIC "-//W3C//DTD SVG 1.1//EN" "http://www.w3.org/Graphics/SVG/1.1/DTD/svg11.dtd"><svg width="100%" height="100%" viewBox="0 0 32 32" version="1.1" xmlns="http://www.w3.org/2000/svg" xmlns:xlink="http://www.w3.org/1999/xlink" xml:space="preserve" xmlns:serif="http://www.serif.com/" style="fill-rule:evenodd;clip-rule:evenodd;stroke-linejoin:round;stroke-miterlimit:1.41421;"><rect id="drooling" x="0" y="0" width="32" height="32" style="fill:none;"/><clipPath id="_clip1"><rect x="0" y="0" width="32" height="32"/></clipPath><g clip-path="url(#_clip1)"><g id="outline"><path d="M16.206,1.001l0.206,0.004l0.205,0.007l0.205,0.009l0.204,0.011l0.203,0.015l0.203,0.016l0.202,0.019l0.201,0.022l0.2,0.024l0.2,0.027l0.199,0.029l0.198,0.032l0.198,0.034l0.197,0.036l0.195,0.039l0.195,0.041l0.195,0.044l0.193,0.046l0.192,0.048l0.191,0.05l0.191,0.053l0.19,0.055l0.188,0.058l0.188,0.059l0.186,0.062l0.186,0.064l0.184,0.066l0.184,0.069l0.182,0.07l0.181,0.073l0.181,0.075l0.179,0.077l0.177,0.079l0.177,0.081l0.176,0.084l0.174,0.085l0.173,0.087l0.172,0.09l0.171,0.091l0.169,0.094l0.169,0.095l0.167,0.097l0.165,0.1l0.164,0.101l0.163,0.103l0.162,0.105l0.16,0.107l0.159,0.108l0.157,0.111l0.157,0.113l0.154,0.114l0.154,0.116l0.151,0.117l0.15,0.12l0.149,0.121l0.147,0.123l0.147,0.125l0.144,0.127l0.142,0.128l0.142,0.13l0.139,0.131l0.138,0.133l0.137,0.135l0.135,0.137l0.133,0.138l0.132,0.14l0.129,0.141l0.128,0.142l0.127,0.144l0.125,0.146l0.123,0.148l0.121,0.148l0.12,0.151l0.117,0.152l0.116,0.153l0.115,0.154l0.112,0.157l0.11,0.157l0.109,0.159l0.107,0.16l0.105,0.162l0.103,0.163l0.102,0.164l0.099,0.166l0.097,0.166l0.095,0.169l0.094,0.169l0.091,0.17l0.09,0.173l0.087,0.173l0.085,0.174l0.083,0.176l0.082,0.177l0.079,0.178l0.077,0.178l0.075,0.181l0.072,0.181l0.071,0.182l0.069,0.184l0.066,0.184l0.064,0.186l0.062,0.186l0.059,0.188l0.058,0.188l0.055,0.19l0.053,0.191l0.05,0.191l0.048,0.192l0.046,0.194l0.044,0.193l0.041,0.195l0.039,0.196l0.036,0.197l0.034,0.198l0.032,0.198l0.029,0.199l0.027,0.2l0.024,0.2l0.021,0.201l0.02,0.202l0.016,0.203l0.015,0.204l0.011,0.203l0.009,0.205l0.007,0.205l0.004,0.205l0.001,0.2l0,1.014l-0.001,0.16l-0.003,0.168l-0.006,0.166l-0.007,0.166l-0.009,0.166l-0.012,0.165l-0.013,0.164l-0.016,0.165l-0.018,0.163l-0.019,0.163l-0.022,0.163l-0.024,0.161l-0.025,0.161l-0.028,0.161l-0.029,0.159l-0.032,0.16l-0.034,0.159l-0.035,0.157l-0.037,0.157l-0.039,0.156l-0.041,0.156l-0.043,0.155l-0.045,0.154l-0.047,0.153l-0.048,0.153l-0.051,0.151l-0.052,0.151l-0.053,0.15l-0.056,0.149l-0.057,0.148l-0.06,0.148l-0.06,0.145l-0.063,0.146l-0.064,0.145l-0.066,0.143l-0.068,0.143l-0.069,0.142l-0.071,0.141l-0.073,0.139l-0.074,0.139l-0.076,0.138l-0.078,0.136l-0.079,0.136l-0.08,0.134l-0.083,0.134l-0.084,0.133l-0.084,0.13l-0.087,0.131l-0.089,0.129l-0.089,0.128l-0.092,0.127l-0.093,0.125l-0.094,0.125l-0.096,0.123l-0.097,0.122l-0.098,0.121l-0.1,0.12l-0.102,0.118l-0.103,0.118l-0.104,0.115l-0.105,0.115l-0.107,0.113l-0.108,0.112l-0.11,0.111l-0.11,0.11l-0.112,0.108l-0.114,0.107l-0.114,0.105l-0.117,0.105l-0.117,0.102l-0.118,0.102l-0.12,0.1l-0.121,0.098l-0.122,0.097l-0.123,0.096l-0.125,0.094l-0.125,0.093l-0.127,0.092l-0.128,0.089l-0.129,0.089l-0.13,0.086l-0.132,0.086l-0.132,0.083l-0.134,0.083l-0.134,0.08l-0.136,0.08l-0.137,0.077l-0.137,0.076l-0.139,0.074l-0.14,0.073l-0.14,0.071l-0.142,0.069l-0.143,0.068l-0.143,0.066l-0.145,0.064l-0.145,0.063l-0.146,0.06l-0.148,0.06l-0.148,0.057l-0.149,0.056l-0.15,0.053l-0.151,0.053l-0.152,0.05l-0.152,0.048l-0.153,0.047l-0.154,0.045l-0.155,0.043l-0.156,0.041l-0.156,0.039l-0.157,0.037l-0.158,0.035l-0.158,0.034l-0.159,0.031l-0.16,0.03l-0.161,0.028l-0.161,0.025l-0.161,0.024l-0.163,0.022l-0.163,0.019l-0.163,0.018l-0.164,0.016l-0.165,0.013l-0.165,0.012l-0.166,0.009l-0.166,0.008l-0.166,0.005l-0.167,0.003l-0.162,0.001l-6.012,0l-0.162,-0.001l-0.167,-0.003l-0.166,-0.005l-0.166,-0.008l-0.166,-0.009l-0.165,-0.012l-0.165,-0.013l-0.164,-0.016l-0.163,-0.018l-0.163,-0.019l-0.163,-0.022l-0.161,-0.024l-0.161,-0.025l-0.161,-0.028l-0.16,-0.03l-0.159,-0.031l-0.158,-0.034l-0.158,-0.035l-0.157,-0.037l-0.156,-0.039l-0.156,-0.041l-0.155,-0.043l-0.154,-0.045l-0.153,-0.047l-0.152,-0.048l-0.152,-0.05l-0.151,-0.053l-0.15,-0.053l-0.149,-0.056l-0.148,-0.057l-0.148,-0.06l-0.146,-0.06l-0.145,-0.063l-0.145,-0.064l-0.143,-0.066l-0.143,-0.068l-0.142,-0.069l-0.141,-0.071l-0.139,-0.073l-0.139,-0.074l-0.138,-0.076l-0.136,-0.077l-0.136,-0.079l-0.134,-0.081l-0.134,-0.083l-0.132,-0.083l-0.132,-0.086l-0.13,-0.086l-0.129,-0.089l-0.128,-0.09l-0.127,-0.091l-0.125,-0.092l-0.125,-0.095l-0.123,-0.096l-0.122,-0.097l-0.121,-0.098l-0.12,-0.1l-0.118,-0.102l-0.117,-0.102l-0.116,-0.104l-0.115,-0.106l-0.114,-0.107l-0.112,-0.108l-0.11,-0.11l-0.11,-0.111l-0.108,-0.112l-0.107,-0.113l-0.105,-0.115l-0.104,-0.115l-0.103,-0.118l-0.102,-0.118l-0.1,-0.12l-0.099,-0.121l-0.096,-0.122l-0.096,-0.123l-0.095,-0.125l-0.092,-0.125l-0.091,-0.127l-0.091,-0.128l-0.088,-0.129l-0.086,-0.13l-0.086,-0.132l-0.084,-0.132l-0.082,-0.133l-0.08,-0.135l-0.079,-0.136l-0.078,-0.137l-0.076,-0.137l-0.074,-0.139l-0.072,-0.139l-0.072,-0.141l-0.069,-0.142l-0.068,-0.143l-0.066,-0.143l-0.064,-0.145l-0.063,-0.146l-0.06,-0.145l-0.06,-0.148l-0.057,-0.148l-0.056,-0.149l-0.053,-0.15l-0.052,-0.151l-0.051,-0.151l-0.048,-0.153l-0.047,-0.154l-0.045,-0.153l-0.042,-0.155l-0.042,-0.156l-0.039,-0.156l-0.037,-0.157l-0.036,-0.158l-0.033,-0.158l-0.031,-0.159l-0.03,-0.16l-0.028,-0.161l-0.025,-0.161l-0.024,-0.162l-0.022,-0.162l-0.019,-0.163l-0.018,-0.163l-0.016,-0.164l-0.013,-0.165l-0.012,-0.165l-0.009,-0.166l-0.008,-0.166l-0.005,-0.166l-0.003,-0.168l-0.001,-0.161l0,-1.012l0.001,-0.2l0.004,-0.206l0.007,-0.205l0.009,-0.205l0.011,-0.203l0.015,-0.204l0.016,-0.203l0.02,-0.202l0.021,-0.201l0.024,-0.2l0.027,-0.2l0.029,-0.199l0.032,-0.199l0.034,-0.197l0.036,-0.196l0.039,-0.197l0.041,-0.195l0.044,-0.193l0.046,-0.194l0.048,-0.192l0.05,-0.191l0.053,-0.191l0.055,-0.19l0.058,-0.188l0.059,-0.188l0.062,-0.186l0.064,-0.186l0.066,-0.184l0.069,-0.184l0.071,-0.182l0.072,-0.181l0.075,-0.181l0.077,-0.178l0.079,-0.178l0.082,-0.177l0.083,-0.176l0.085,-0.174l0.088,-0.173l0.089,-0.172l0.091,-0.171l0.094,-0.169l0.095,-0.169l0.097,-0.166l0.099,-0.166l0.102,-0.164l0.103,-0.163l0.105,-0.162l0.107,-0.16l0.109,-0.159l0.11,-0.157l0.112,-0.157l0.115,-0.154l0.116,-0.153l0.117,-0.152l0.12,-0.151l0.121,-0.148l0.123,-0.148l0.125,-0.146l0.127,-0.144l0.128,-0.142l0.13,-0.142l0.131,-0.139l0.133,-0.138l0.135,-0.137l0.137,-0.134l0.138,-0.134l0.139,-0.131l0.142,-0.13l0.142,-0.128l0.144,-0.127l0.147,-0.125l0.147,-0.123l0.149,-0.121l0.15,-0.119l0.151,-0.118l0.154,-0.116l0.154,-0.115l0.157,-0.112l0.157,-0.11l0.159,-0.109l0.16,-0.107l0.162,-0.105l0.163,-0.103l0.164,-0.101l0.165,-0.1l0.167,-0.097l0.169,-0.095l0.169,-0.094l0.171,-0.091l0.172,-0.089l0.173,-0.088l0.174,-0.085l0.176,-0.084l0.176,-0.081l0.178,-0.079l0.179,-0.077l0.181,-0.075l0.181,-0.073l0.182,-0.07l0.184,-0.069l0.184,-0.066l0.186,-0.064l0.186,-0.062l0.188,-0.059l0.189,-0.058l0.189,-0.055l0.19,-0.053l0.192,-0.05l0.192,-0.048l0.193,-0.046l0.195,-0.044l0.195,-0.041l0.195,-0.039l0.197,-0.036l0.198,-0.034l0.198,-0.032l0.199,-0.029l0.2,-0.027l0.2,-0.024l0.201,-0.022l0.202,-0.019l0.203,-0.016l0.203,-0.015l0.204,-0.011l0.205,-0.009l0.205,-0.007l0.206,-0.004l0.206,-0.001l0.206,0.001Zm-0.362,4l-0.155,0.003l-0.154,0.005l-0.154,0.007l-0.154,0.008l-0.152,0.011l-0.153,0.013l-0.151,0.014l-0.151,0.016l-0.151,0.019l-0.15,0.02l-0.149,0.021l-0.149,0.024l-0.148,0.026l-0.147,0.027l-0.147,0.029l-0.146,0.031l-0.145,0.032l-0.145,0.035l-0.143,0.036l-0.144,0.038l-0.142,0.039l-0.142,0.041l-0.141,0.043l-0.14,0.045l-0.14,0.046l-0.139,0.048l-0.138,0.05l-0.137,0.051l-0.137,0.053l-0.136,0.054l-0.134,0.056l-0.134,0.058l-0.133,0.059l-0.133,0.061l-0.132,0.062l-0.13,0.064l-0.13,0.066l-0.128,0.067l-0.129,0.068l-0.127,0.07l-0.126,0.072l-0.125,0.073l-0.124,0.074l-0.123,0.076l-0.122,0.077l-0.122,0.079l-0.12,0.08l-0.119,0.082l-0.118,0.083l-0.118,0.084l-0.116,0.086l-0.115,0.087l-0.114,0.089l-0.112,0.089l-0.112,0.091l-0.111,0.093l-0.109,0.094l-0.109,0.095l-0.107,0.096l-0.106,0.098l-0.105,0.098l-0.104,0.1l-0.102,0.102l-0.102,0.102l-0.1,0.104l-0.098,0.105l-0.098,0.106l-0.096,0.107l-0.095,0.109l-0.094,0.109l-0.092,0.111l-0.092,0.112l-0.089,0.112l-0.089,0.114l-0.087,0.116l-0.086,0.115l-0.084,0.117l-0.083,0.119l-0.082,0.119l-0.08,0.12l-0.079,0.122l-0.077,0.122l-0.076,0.123l-0.074,0.124l-0.073,0.126l-0.072,0.125l-0.07,0.127l-0.068,0.128l-0.067,0.129l-0.066,0.13l-0.064,0.131l-0.062,0.131l-0.061,0.132l-0.059,0.134l-0.058,0.134l-0.056,0.134l-0.054,0.136l-0.053,0.137l-0.051,0.137l-0.05,0.138l-0.048,0.139l-0.046,0.139l-0.045,0.141l-0.043,0.141l-0.041,0.142l-0.039,0.142l-0.038,0.144l-0.036,0.143l-0.035,0.145l-0.032,0.146l-0.031,0.146l-0.029,0.146l-0.027,0.147l-0.026,0.149l-0.024,0.148l-0.021,0.149l-0.02,0.15l-0.019,0.15l-0.016,0.152l-0.014,0.152l-0.013,0.152l-0.011,0.152l-0.008,0.154l-0.007,0.154l-0.005,0.154l-0.003,0.155l-0.001,0.162l0,0.988l0.001,0.123l0.002,0.116l0.004,0.117l0.005,0.115l0.006,0.115l0.008,0.115l0.01,0.114l0.011,0.114l0.012,0.113l0.013,0.113l0.015,0.112l0.017,0.112l0.018,0.112l0.019,0.11l0.02,0.111l0.022,0.11l0.023,0.109l0.024,0.109l0.026,0.109l0.027,0.108l0.028,0.107l0.03,0.107l0.031,0.107l0.032,0.105l0.034,0.105l0.034,0.105l0.036,0.104l0.038,0.104l0.038,0.103l0.039,0.101l0.041,0.102l0.043,0.102l0.043,0.1l0.044,0.1l0.046,0.1l0.046,0.098l0.048,0.097l0.049,0.098l0.051,0.097l0.051,0.096l0.053,0.095l0.053,0.094l0.055,0.094l0.056,0.093l0.057,0.093l0.058,0.091l0.059,0.091l0.06,0.091l0.061,0.089l0.062,0.088l0.064,0.089l0.064,0.087l0.065,0.086l0.066,0.085l0.068,0.086l0.069,0.083l0.069,0.083l0.07,0.082l0.071,0.081l0.073,0.081l0.073,0.08l0.074,0.078l0.075,0.078l0.076,0.077l0.077,0.076l0.078,0.075l0.078,0.074l0.08,0.073l0.08,0.073l0.082,0.071l0.082,0.07l0.083,0.069l0.084,0.069l0.085,0.067l0.085,0.067l0.086,0.065l0.088,0.064l0.087,0.064l0.089,0.062l0.089,0.061l0.091,0.06l0.091,0.059l0.091,0.058l0.093,0.057l0.093,0.056l0.093,0.055l0.095,0.053l0.095,0.053l0.096,0.051l0.097,0.051l0.097,0.049l0.098,0.047l0.099,0.047l0.099,0.046l0.1,0.044l0.1,0.044l0.102,0.042l0.101,0.04l0.103,0.04l0.103,0.038l0.103,0.038l0.104,0.036l0.105,0.034l0.105,0.034l0.106,0.032l0.106,0.031l0.107,0.029l0.107,0.029l0.108,0.027l0.109,0.026l0.109,0.024l0.109,0.023l0.11,0.022l0.111,0.02l0.11,0.019l0.112,0.018l0.112,0.017l0.112,0.015l0.113,0.013l0.113,0.012l0.114,0.011l0.114,0.01l0.115,0.008l0.115,0.006l0.116,0.005l0.116,0.004l0.116,0.002l0.123,0.001l5.988,0l0.123,-0.001l0.116,-0.002l0.116,-0.004l0.116,-0.005l0.115,-0.006l0.115,-0.008l0.114,-0.01l0.114,-0.011l0.113,-0.012l0.113,-0.013l0.112,-0.015l0.112,-0.017l0.112,-0.018l0.11,-0.019l0.111,-0.02l0.11,-0.022l0.109,-0.023l0.109,-0.024l0.109,-0.026l0.108,-0.027l0.107,-0.029l0.107,-0.029l0.106,-0.031l0.106,-0.032l0.105,-0.034l0.105,-0.034l0.104,-0.036l0.103,-0.038l0.103,-0.038l0.103,-0.04l0.101,-0.04l0.102,-0.042l0.1,-0.044l0.1,-0.044l0.099,-0.046l0.099,-0.047l0.098,-0.047l0.097,-0.05l0.097,-0.05l0.095,-0.051l0.096,-0.053l0.095,-0.053l0.093,-0.055l0.093,-0.056l0.093,-0.057l0.091,-0.058l0.091,-0.059l0.091,-0.06l0.089,-0.061l0.089,-0.063l0.087,-0.063l0.088,-0.064l0.086,-0.065l0.085,-0.067l0.085,-0.067l0.084,-0.069l0.083,-0.069l0.082,-0.07l0.082,-0.071l0.08,-0.073l0.08,-0.073l0.078,-0.074l0.078,-0.075l0.077,-0.076l0.076,-0.077l0.075,-0.078l0.074,-0.078l0.073,-0.08l0.073,-0.081l0.071,-0.081l0.07,-0.082l0.07,-0.083l0.068,-0.084l0.067,-0.085l0.067,-0.085l0.065,-0.086l0.064,-0.087l0.063,-0.088l0.063,-0.089l0.061,-0.089l0.06,-0.09l0.06,-0.092l0.058,-0.092l0.056,-0.091l0.056,-0.094l0.055,-0.094l0.054,-0.094l0.052,-0.095l0.051,-0.096l0.051,-0.097l0.049,-0.097l0.047,-0.098l0.047,-0.098l0.046,-0.1l0.044,-0.1l0.043,-0.1l0.043,-0.102l0.041,-0.102l0.039,-0.101l0.038,-0.103l0.038,-0.104l0.036,-0.104l0.034,-0.105l0.034,-0.105l0.032,-0.106l0.031,-0.106l0.029,-0.107l0.029,-0.107l0.027,-0.108l0.025,-0.109l0.025,-0.109l0.023,-0.109l0.022,-0.11l0.02,-0.111l0.019,-0.11l0.018,-0.112l0.017,-0.112l0.015,-0.112l0.013,-0.113l0.012,-0.113l0.011,-0.114l0.01,-0.114l0.008,-0.115l0.006,-0.115l0.005,-0.116l0.004,-0.116l0.002,-0.116l0.001,-0.124l0,-0.986l-0.001,-0.162l-0.003,-0.156l-0.005,-0.154l-0.007,-0.154l-0.008,-0.154l-0.011,-0.152l-0.013,-0.152l-0.014,-0.152l-0.016,-0.152l-0.019,-0.15l-0.02,-0.15l-0.021,-0.149l-0.024,-0.149l-0.026,-0.148l-0.027,-0.147l-0.029,-0.146l-0.031,-0.146l-0.032,-0.146l-0.035,-0.145l-0.036,-0.144l-0.038,-0.143l-0.039,-0.142l-0.041,-0.142l-0.043,-0.141l-0.045,-0.141l-0.046,-0.139l-0.048,-0.139l-0.05,-0.138l-0.051,-0.137l-0.053,-0.137l-0.054,-0.136l-0.056,-0.134l-0.058,-0.134l-0.059,-0.134l-0.061,-0.132l-0.062,-0.131l-0.064,-0.131l-0.066,-0.13l-0.067,-0.128l-0.068,-0.129l-0.07,-0.127l-0.072,-0.125l-0.073,-0.126l-0.074,-0.124l-0.076,-0.123l-0.077,-0.122l-0.079,-0.122l-0.08,-0.12l-0.082,-0.119l-0.083,-0.119l-0.084,-0.117l-0.086,-0.115l-0.087,-0.116l-0.089,-0.114l-0.089,-0.112l-0.092,-0.112l-0.092,-0.111l-0.094,-0.109l-0.095,-0.109l-0.096,-0.107l-0.098,-0.106l-0.098,-0.105l-0.1,-0.104l-0.102,-0.102l-0.102,-0.101l-0.104,-0.101l-0.105,-0.098l-0.106,-0.098l-0.107,-0.096l-0.109,-0.096l-0.109,-0.093l-0.111,-0.092l-0.112,-0.092l-0.112,-0.089l-0.114,-0.089l-0.115,-0.087l-0.117,-0.086l-0.117,-0.084l-0.118,-0.083l-0.119,-0.082l-0.12,-0.08l-0.122,-0.079l-0.122,-0.077l-0.123,-0.076l-0.124,-0.074l-0.125,-0.073l-0.126,-0.072l-0.128,-0.07l-0.127,-0.068l-0.129,-0.067l-0.13,-0.066l-0.131,-0.064l-0.131,-0.062l-0.132,-0.061l-0.134,-0.059l-0.134,-0.058l-0.135,-0.056l-0.135,-0.054l-0.137,-0.053l-0.137,-0.051l-0.138,-0.05l-0.139,-0.048l-0.14,-0.046l-0.14,-0.045l-0.141,-0.043l-0.142,-0.041l-0.142,-0.039l-0.144,-0.038l-0.144,-0.036l-0.144,-0.035l-0.145,-0.032l-0.146,-0.031l-0.147,-0.029l-0.147,-0.027l-0.148,-0.026l-0.149,-0.024l-0.149,-0.021l-0.15,-0.02l-0.151,-0.019l-0.151,-0.016l-0.151,-0.014l-0.153,-0.013l-0.152,-0.011l-0.154,-0.008l-0.154,-0.007l-0.154,-0.005l-0.155,-0.003l-0.156,-0.001l-0.156,0.001Z"/></g><g id="emoji"><path d="M16,29l-3,0c-6.075,0 -11,-4.925 -11,-11c0,-0.332 0,-0.665 0,-1c0,-7.732 6.268,-14 14,-14c0,0 0,0 0,0c7.732,0 14,6.268 14,14c0,0.335 0,0.668 0,1c0,5.392 -3.88,9.878 -9,10.819l-1,-0.819l-3,0l-1,1Z" style="fill:#fbc546;"/><path d="M9.929,20.916c-0.093,-0.084 -0.183,-0.17 -0.272,-0.259c-0.65,-0.65 -1.344,-1.344 -1.95,-1.95c-0.286,-0.286 -0.371,-0.716 -0.217,-1.09c0.155,-0.373 0.52,-0.617 0.924,-0.617c3.847,0 11.325,0 15.172,0c0.404,0 0.769,0.244 0.924,0.617c0.154,0.374 0.069,0.804 -0.217,1.09c-0.606,0.606 -1.3,1.3 -1.95,1.95c-0.089,0.089 -0.179,0.175 -0.272,0.259c-1.111,-1.195 -11.031,-1.195 -12.142,0Z" style="fill:#722245;"/><path d="M16,19l1,1l0,2l-1,1l-0.686,0c-1.997,0 -3.916,-0.746 -5.385,-2.084c1.111,-1.195 2.69,-1.916 4.396,-1.916l1.675,0Zm5,1.005c0.391,0.26 0.751,0.566 1.071,0.911c-0.335,0.305 -0.693,0.58 -1.071,0.821l-1,-0.737l1,-0.995Z" style="fill:#ca3b8f;"/><path d="M16,24l0,-5l1.675,0c1.214,0 2.363,0.365 3.325,1.005l0,8.834c-0.649,0.106 -1.317,0.161 -2,0.161l-3,0l0,-5Z" style="fill:#009ad2;"/><path d="M12.05,9.001l0.039,0.003l0.04,0.004l0.039,0.006l0.039,0.008l0.039,0.009l0.038,0.01l0.038,0.012l0.038,0.014l0.036,0.015l0.037,0.016l0.035,0.018l0.035,0.02l0.034,0.02l0.033,0.022l0.032,0.024l0.031,0.024l0.031,0.026l0.029,0.027l0.028,0.028l0.027,0.029l0.026,0.031l0.024,0.031l0.024,0.032l0.022,0.033l0.02,0.034l0.02,0.035l0.018,0.035l0.016,0.037l0.015,0.036l0.014,0.038l0.012,0.038l0.01,0.038l0.009,0.039l0.008,0.039l0.006,0.039l0.004,0.04l0.003,0.039l0.001,0.04l0,0.04l-0.002,0.04l-0.004,0.039l-0.005,0.04l-0.007,0.039l-0.008,0.039l-0.01,0.038l-0.011,0.038l-0.013,0.038l-0.014,0.037l-0.016,0.037l-0.017,0.035l-0.019,0.036l-0.02,0.034l-0.021,0.034l-0.023,0.032l-0.024,0.032l-0.025,0.031l-0.026,0.029l-0.028,0.029l-4,4l-0.029,0.028l-0.029,0.026l-0.031,0.025l-0.032,0.024l-0.032,0.023l-0.034,0.021l-0.034,0.02l-0.036,0.019l-0.035,0.017l-0.037,0.016l-0.037,0.014l-0.038,0.013l-0.038,0.011l-0.038,0.01l-0.039,0.008l-0.039,0.007l-0.04,0.005l-0.039,0.004l-0.04,0.002l-0.04,0l-0.04,-0.001l-0.039,-0.003l-0.04,-0.004l-0.039,-0.006l-0.039,-0.008l-0.039,-0.009l-0.038,-0.01l-0.038,-0.012l-0.038,-0.014l-0.036,-0.015l-0.037,-0.016l-0.035,-0.018l-0.035,-0.02l-0.034,-0.02l-0.033,-0.022l-0.032,-0.024l-0.031,-0.024l-0.031,-0.026l-0.029,-0.027l-0.028,-0.028l-0.027,-0.029l-0.026,-0.031l-0.024,-0.031l-0.024,-0.032l-0.022,-0.033l-0.02,-0.034l-0.02,-0.035l-0.018,-0.035l-0.016,-0.037l-0.015,-0.036l-0.014,-0.038l-0.012,-0.038l-0.01,-0.038l-0.009,-0.039l-0.008,-0.039l-0.006,-0.039l-0.004,-0.04l-0.003,-0.039l-0.001,-0.04l0,-0.04l0.002,-0.04l0.004,-0.039l0.005,-0.04l0.007,-0.039l0.008,-0.039l0.01,-0.038l0.011,-0.038l0.013,-0.038l0.014,-0.037l0.016,-0.037l0.017,-0.035l0.019,-0.036l0.02,-0.034l0.021,-0.034l0.023,-0.032l0.024,-0.032l0.025,-0.031l0.026,-0.029l0.028,-0.029l4,-4l0.029,-0.028l0.029,-0.026l0.031,-0.025l0.032,-0.024l0.032,-0.023l0.034,-0.021l0.034,-0.02l0.036,-0.019l0.035,-0.017l0.037,-0.016l0.037,-0.014l0.038,-0.013l0.038,-0.011l0.038,-0.01l0.039,-0.008l0.039,-0.007l0.04,-0.005l0.039,-0.004l0.04,-0.002l0.04,0l0.04,0.001Z"/><path d="M20.03,9l0.04,0.002l0.039,0.004l0.04,0.005l0.039,0.007l0.039,0.008l0.038,0.01l0.038,0.011l0.038,0.013l0.037,0.014l0.037,0.016l0.035,0.017l0.036,0.019l0.034,0.02l0.034,0.021l0.032,0.023l0.032,0.024l0.031,0.025l0.029,0.026l0.029,0.028l4,4l0.028,0.029l0.026,0.029l0.025,0.031l0.024,0.032l0.023,0.032l0.021,0.034l0.02,0.034l0.019,0.036l0.017,0.035l0.016,0.037l0.014,0.037l0.013,0.038l0.011,0.038l0.01,0.038l0.008,0.039l0.007,0.039l0.005,0.04l0.004,0.039l0.002,0.04l0,0.04l-0.001,0.04l-0.003,0.039l-0.004,0.04l-0.006,0.039l-0.008,0.039l-0.009,0.039l-0.01,0.038l-0.012,0.038l-0.014,0.038l-0.015,0.036l-0.016,0.037l-0.018,0.035l-0.02,0.035l-0.02,0.034l-0.022,0.033l-0.024,0.032l-0.024,0.031l-0.026,0.031l-0.027,0.029l-0.028,0.028l-0.029,0.027l-0.031,0.026l-0.031,0.024l-0.032,0.024l-0.033,0.022l-0.034,0.02l-0.035,0.02l-0.035,0.018l-0.037,0.016l-0.036,0.015l-0.038,0.014l-0.038,0.012l-0.038,0.01l-0.039,0.009l-0.039,0.008l-0.039,0.006l-0.04,0.004l-0.039,0.003l-0.04,0.001l-0.04,0l-0.04,-0.002l-0.039,-0.004l-0.04,-0.005l-0.039,-0.007l-0.039,-0.008l-0.038,-0.01l-0.038,-0.011l-0.038,-0.013l-0.037,-0.014l-0.037,-0.016l-0.035,-0.017l-0.036,-0.019l-0.034,-0.02l-0.034,-0.021l-0.032,-0.023l-0.032,-0.024l-0.031,-0.025l-0.029,-0.026l-0.029,-0.028l-4,-4l-0.028,-0.029l-0.026,-0.029l-0.025,-0.031l-0.024,-0.032l-0.023,-0.032l-0.021,-0.034l-0.02,-0.034l-0.019,-0.036l-0.017,-0.035l-0.016,-0.037l-0.014,-0.037l-0.013,-0.038l-0.011,-0.038l-0.01,-0.038l-0.008,-0.039l-0.007,-0.039l-0.005,-0.04l-0.004,-0.039l-0.002,-0.04l0,-0.04l0.001,-0.04l0.003,-0.039l0.004,-0.04l0.006,-0.039l0.008,-0.039l0.009,-0.039l0.01,-0.038l0.012,-0.038l0.014,-0.038l0.015,-0.036l0.016,-0.037l0.018,-0.035l0.02,-0.035l0.02,-0.034l0.022,-0.033l0.024,-0.032l0.024,-0.031l0.026,-0.031l0.027,-0.029l0.028,-0.028l0.029,-0.027l0.031,-0.026l0.031,-0.024l0.032,-0.024l0.033,-0.022l0.034,-0.02l0.035,-0.02l0.035,-0.018l0.037,-0.016l0.036,-0.015l0.038,-0.014l0.038,-0.012l0.038,-0.01l0.039,-0.009l0.039,-0.008l0.039,-0.006l0.04,-0.004l0.039,-0.003l0.04,-0.001l0.04,0Z"/></g></g></svg>