<?xml version="1.0" encoding="UTF-8" standalone="no"?><!DOCTYPE svg PUBLIC "-//W3C//DTD SVG 1.1//EN" "http://www.w3.org/Graphics/SVG/1.1/DTD/svg11.dtd"><svg width="100%" height="100%" viewBox="0 0 32 32" version="1.1" xmlns="http://www.w3.org/2000/svg" xmlns:xlink="http://www.w3.org/1999/xlink" xml:space="preserve" xmlns:serif="http://www.serif.com/" style="fill-rule:evenodd;clip-rule:evenodd;stroke-linejoin:round;stroke-miterlimit:2;"><rect id="exhausted" x="0" y="0.017" width="32" height="32" style="fill:none;"/><clipPath id="_clip1"><rect x="0" y="0.017" width="32" height="32"/></clipPath><g clip-path="url(#_clip1)"><g id="outline"><path d="M26.648,0.022l0.146,0.016l0.145,0.028l0.143,0.037l0.139,0.048l0.136,0.059l0.131,0.068l0.126,0.077l0.119,0.087l0.113,0.095l0.105,0.103l0.098,0.111l0.089,0.118l0.08,0.124l0.071,0.129l2.946,5.893l0.043,0.087l0.044,0.096l0.043,0.097l0.04,0.097l0.038,0.097l0.036,0.099l0.035,0.098l0.032,0.1l0.03,0.099l0.028,0.1l0.027,0.1l0.024,0.101l0.022,0.102l0.02,0.101l0.018,0.1l0.016,0.102l0.014,0.102l0.013,0.102l0.01,0.102l0.008,0.101l0.006,0.102l0.004,0.102l0.002,0.103l0.001,0.101l-0.002,0.101l-0.004,0.102l-0.005,0.101l-0.008,0.102l-0.009,0.101l-0.012,0.101l-0.013,0.1l-0.016,0.101l-0.017,0.1l-0.019,0.099l-0.021,0.1l-0.023,0.098l-0.025,0.099l-0.026,0.098l-0.029,0.098l-0.031,0.097l-0.032,0.096l-0.034,0.096l-0.037,0.096l-0.038,0.094l-0.039,0.094l-0.042,0.094l-0.044,0.092l-0.045,0.092l-0.048,0.092l-0.049,0.09l-0.051,0.09l-0.053,0.088l-0.055,0.088l-0.057,0.087l-0.058,0.086l-0.06,0.085l-0.062,0.084l-0.064,0.083l-0.065,0.081l-0.068,0.081l-0.069,0.08l-0.071,0.078l-0.072,0.077l-0.077,0.079l-0.016,0.015l-0.064,0.062l-0.083,0.079l-0.085,0.076l-0.086,0.073l-0.088,0.073l-0.089,0.07l-0.09,0.068l-0.092,0.066l-0.093,0.064l-0.057,0.038l0.012,0.04l0.054,0.191l0.051,0.191l0.049,0.193l0.047,0.193l0.043,0.195l0.042,0.195l0.039,0.197l0.036,0.197l0.034,0.198l0.031,0.199l0.029,0.199l0.026,0.201l0.023,0.201l0.02,0.202l0.018,0.203l0.015,0.203l0.013,0.205l0.009,0.205l0.007,0.205l0.005,0.206l0.001,0.2l0,1.019l-0.001,0.161l-0.003,0.167l-0.005,0.167l-0.008,0.166l-0.009,0.165l-0.012,0.165l-0.013,0.165l-0.016,0.164l-0.018,0.163l-0.019,0.163l-0.022,0.162l-0.024,0.162l-0.025,0.161l-0.028,0.16l-0.029,0.16l-0.032,0.159l-0.033,0.159l-0.036,0.158l-0.037,0.156l-0.039,0.157l-0.041,0.155l-0.043,0.155l-0.045,0.154l-0.047,0.153l-0.048,0.152l-0.05,0.152l-0.052,0.151l-0.054,0.15l-0.056,0.148l-0.057,0.149l-0.059,0.147l-0.061,0.146l-0.063,0.146l-0.064,0.144l-0.066,0.144l-0.067,0.142l-0.07,0.142l-0.071,0.141l-0.072,0.139l-0.075,0.139l-0.075,0.137l-0.078,0.137l-0.079,0.136l-0.08,0.134l-0.083,0.134l-0.083,0.132l-0.085,0.131l-0.087,0.13l-0.089,0.129l-0.09,0.128l-0.091,0.127l-0.092,0.125l-0.095,0.125l-0.095,0.123l-0.097,0.122l-0.099,0.121l-0.1,0.12l-0.101,0.118l-0.103,0.117l-0.104,0.116l-0.105,0.115l-0.107,0.113l-0.108,0.112l-0.11,0.111l-0.111,0.109l-0.112,0.108l-0.113,0.107l-0.115,0.106l-0.116,0.104l-0.117,0.103l-0.118,0.101l-0.12,0.1l-0.121,0.098l-0.122,0.097l-0.123,0.096l-0.124,0.094l-0.126,0.093l-0.127,0.091l-0.128,0.09l-0.129,0.088l-0.13,0.087l-0.131,0.085l-0.132,0.084l-0.134,0.082l-0.134,0.081l-0.136,0.079l-0.136,0.077l-0.138,0.076l-0.139,0.074l-0.139,0.073l-0.141,0.071l-0.141,0.069l-0.143,0.068l-0.144,0.066l-0.144,0.064l-0.146,0.063l-0.146,0.061l-0.147,0.059l-0.148,0.057l-0.149,0.056l-0.15,0.054l-0.151,0.052l-0.151,0.05l-0.153,0.048l-0.153,0.047l-0.154,0.045l-0.155,0.042l-0.155,0.042l-0.156,0.039l-0.157,0.037l-0.158,0.035l-0.158,0.034l-0.159,0.031l-0.16,0.03l-0.161,0.027l-0.161,0.026l-0.161,0.024l-0.163,0.021l-0.162,0.02l-0.164,0.018l-0.164,0.015l-0.164,0.014l-0.165,0.011l-0.166,0.01l-0.166,0.007l-0.167,0.006l-0.167,0.003l-0.161,0.001l-4.024,0l-0.161,-0.001l-0.167,-0.003l-0.167,-0.006l-0.166,-0.007l-0.166,-0.01l-0.165,-0.011l-0.164,-0.014l-0.164,-0.015l-0.164,-0.018l-0.162,-0.02l-0.163,-0.021l-0.161,-0.024l-0.161,-0.026l-0.161,-0.027l-0.16,-0.03l-0.159,-0.031l-0.158,-0.034l-0.158,-0.035l-0.157,-0.037l-0.156,-0.039l-0.155,-0.042l-0.155,-0.042l-0.154,-0.045l-0.153,-0.047l-0.153,-0.048l-0.151,-0.05l-0.151,-0.052l-0.15,-0.054l-0.149,-0.056l-0.148,-0.057l-0.147,-0.059l-0.146,-0.061l-0.146,-0.063l-0.144,-0.064l-0.144,-0.066l-0.143,-0.068l-0.141,-0.069l-0.141,-0.071l-0.139,-0.073l-0.139,-0.074l-0.138,-0.076l-0.136,-0.077l-0.136,-0.079l-0.134,-0.081l-0.134,-0.082l-0.132,-0.084l-0.132,-0.085l-0.129,-0.087l-0.129,-0.088l-0.128,-0.09l-0.127,-0.091l-0.126,-0.093l-0.124,-0.094l-0.123,-0.096l-0.122,-0.097l-0.121,-0.098l-0.12,-0.1l-0.118,-0.101l-0.117,-0.103l-0.116,-0.104l-0.115,-0.106l-0.113,-0.107l-0.112,-0.108l-0.111,-0.109l-0.11,-0.111l-0.108,-0.112l-0.107,-0.113l-0.105,-0.115l-0.104,-0.116l-0.103,-0.117l-0.101,-0.118l-0.1,-0.12l-0.099,-0.121l-0.097,-0.122l-0.095,-0.123l-0.095,-0.125l-0.092,-0.125l-0.091,-0.127l-0.09,-0.128l-0.089,-0.129l-0.086,-0.13l-0.086,-0.131l-0.084,-0.133l-0.082,-0.133l-0.08,-0.134l-0.079,-0.136l-0.078,-0.137l-0.076,-0.137l-0.074,-0.139l-0.072,-0.139l-0.071,-0.141l-0.07,-0.142l-0.067,-0.142l-0.066,-0.144l-0.064,-0.144l-0.063,-0.146l-0.061,-0.146l-0.059,-0.147l-0.057,-0.149l-0.056,-0.148l-0.054,-0.15l-0.052,-0.151l-0.05,-0.152l-0.048,-0.152l-0.047,-0.153l-0.045,-0.154l-0.043,-0.155l-0.041,-0.155l-0.039,-0.156l-0.037,-0.158l-0.036,-0.157l-0.033,-0.159l-0.032,-0.159l-0.029,-0.16l-0.028,-0.16l-0.025,-0.161l-0.024,-0.162l-0.022,-0.162l-0.019,-0.163l-0.018,-0.163l-0.016,-0.164l-0.013,-0.165l-0.012,-0.165l-0.009,-0.165l-0.008,-0.166l-0.005,-0.167l-0.003,-0.167l-0.001,-0.161l0,-1.019l0.001,-0.187l0.004,-0.192l0.006,-0.193l0.008,-0.192l0.011,-0.191l0.014,-0.191l0.015,-0.189l0.018,-0.189l0.021,-0.189l0.022,-0.188l0.025,-0.187l0.028,-0.187l0.029,-0.186l0.032,-0.185l0.034,-0.184l0.037,-0.184l0.038,-0.183l0.041,-0.182l0.043,-0.181l0.045,-0.181l0.048,-0.179l0.049,-0.179l0.052,-0.177l0.054,-0.177l0.056,-0.176l0.058,-0.175l0.06,-0.174l0.062,-0.173l0.064,-0.172l0.066,-0.171l0.068,-0.17l0.071,-0.169l0.072,-0.167l0.074,-0.167l0.076,-0.166l0.078,-0.165l0.08,-0.163l0.082,-0.162l0.084,-0.161l0.086,-0.161l0.087,-0.159l0.09,-0.157l0.091,-0.157l0.093,-0.155l0.095,-0.154l0.096,-0.153l0.099,-0.151l0.1,-0.15l0.102,-0.149l0.103,-0.148l0.106,-0.146l0.107,-0.145l0.109,-0.144l0.11,-0.142l0.112,-0.141l0.114,-0.14l0.115,-0.138l0.117,-0.136l0.119,-0.136l0.12,-0.133l0.122,-0.133l0.123,-0.131l0.125,-0.129l0.126,-0.128l0.128,-0.126l0.13,-0.125l0.13,-0.123l0.133,-0.122l0.134,-0.12l0.135,-0.119l0.137,-0.117l0.138,-0.115l0.139,-0.114l0.141,-0.112l0.142,-0.111l0.144,-0.108l0.145,-0.107l0.146,-0.106l0.148,-0.103l0.149,-0.102l0.15,-0.101l0.152,-0.098l0.153,-0.097l0.153,-0.094l0.156,-0.094l0.156,-0.091l0.158,-0.089l0.159,-0.088l0.16,-0.085l0.161,-0.084l0.162,-0.082l0.164,-0.08l0.164,-0.078l0.166,-0.076l0.167,-0.075l0.168,-0.072l0.169,-0.07l0.17,-0.068l0.17,-0.066l0.173,-0.065l0.172,-0.062l0.174,-0.06l0.175,-0.058l0.176,-0.056l0.177,-0.053l0.178,-0.052l0.178,-0.05l0.18,-0.047l0.18,-0.045l0.181,-0.043l0.182,-0.041l0.183,-0.039l0.184,-0.036l0.184,-0.034l0.185,-0.032l0.186,-0.03l0.187,-0.027l0.187,-0.025l0.188,-0.023l0.189,-0.02l0.189,-0.018l0.19,-0.016l0.191,-0.013l0.191,-0.011l0.192,-0.008l0.192,-0.006l0.193,-0.004l0.192,-0.001l0.175,0.001l0.173,0.003l0.173,0.005l0.173,0.006l0.172,0.009l0.171,0.011l0.171,0.013l0.171,0.014l0.17,0.017l0.17,0.018l0.169,0.02l0.168,0.023l0.168,0.024l0.167,0.025l0.167,0.028l0.166,0.03l0.166,0.031l0.164,0.033l0.165,0.035l0.163,0.037l0.163,0.038l0.162,0.041l0.162,0.042l0.161,0.043l0.16,0.046l0.159,0.047l0.159,0.049l0.158,0.051l0.157,0.052l0.156,0.054l0.156,0.056l0.154,0.057l0.154,0.059l0.153,0.061l0.153,0.062l0.151,0.064l0.151,0.065l0.149,0.067l0.149,0.069l0.148,0.07l0.147,0.072l0.146,0.073l0.145,0.075l0.145,0.076l0.143,0.078l0.142,0.079l0.142,0.081l0.14,0.082l0.055,0.033l2.01,-4.02l0.071,-0.129l0.08,-0.124l0.089,-0.118l0.098,-0.111l0.105,-0.103l0.113,-0.095l0.12,-0.087l0.125,-0.077l0.131,-0.068l0.136,-0.059l0.139,-0.048l0.143,-0.037l0.145,-0.028l0.147,-0.016l0.147,-0.005l0.148,0.005Zm-3.09,7.879l-0.029,0.059l-0.027,0.059l-0.026,0.059l-0.025,0.06l-0.107,-0.091l-0.108,-0.089l-0.109,-0.089l-0.11,-0.087l-0.111,-0.086l-0.112,-0.085l-0.113,-0.083l-0.113,-0.083l-0.115,-0.081l-0.116,-0.08l-0.116,-0.079l-0.117,-0.078l-0.119,-0.076l-0.119,-0.075l-0.12,-0.074l-0.121,-0.073l-0.121,-0.071l-0.123,-0.07l-0.123,-0.069l-0.124,-0.067l-0.125,-0.066l-0.126,-0.065l-0.127,-0.064l-0.127,-0.062l-0.128,-0.061l-0.129,-0.059l-0.13,-0.058l-0.13,-0.057l-0.131,-0.055l-0.132,-0.054l-0.133,-0.052l-0.133,-0.051l-0.134,-0.05l-0.135,-0.048l-0.135,-0.047l-0.136,-0.045l-0.137,-0.044l-0.137,-0.043l-0.138,-0.04l-0.138,-0.04l-0.14,-0.038l-0.14,-0.036l-0.14,-0.035l-0.141,-0.033l-0.142,-0.032l-0.142,-0.03l-0.143,-0.029l-0.143,-0.027l-0.144,-0.026l-0.144,-0.024l-0.145,-0.022l-0.146,-0.021l-0.146,-0.019l-0.146,-0.018l-0.147,-0.016l-0.148,-0.014l-0.148,-0.013l-0.148,-0.011l-0.149,-0.009l-0.149,-0.008l-0.15,-0.006l-0.15,-0.004l-0.151,-0.002l-0.151,-0.001l0,0l-0.168,0.001l-0.168,0.003l-0.167,0.005l-0.166,0.008l-0.166,0.009l-0.165,0.012l-0.165,0.013l-0.164,0.016l-0.164,0.017l-0.163,0.02l-0.162,0.022l-0.162,0.023l-0.161,0.026l-0.16,0.028l-0.16,0.029l-0.159,0.032l-0.158,0.033l-0.158,0.036l-0.157,0.037l-0.156,0.039l-0.155,0.041l-0.155,0.043l-0.154,0.045l-0.153,0.046l-0.152,0.049l-0.151,0.05l-0.151,0.052l-0.15,0.054l-0.149,0.055l-0.148,0.057l-0.147,0.059l-0.146,0.061l-0.146,0.063l-0.144,0.064l-0.143,0.066l-0.143,0.068l-0.142,0.069l-0.14,0.071l-0.14,0.072l-0.139,0.075l-0.137,0.076l-0.137,0.077l-0.135,0.079l-0.135,0.081l-0.133,0.082l-0.133,0.084l-0.131,0.085l-0.13,0.087l-0.13,0.088l-0.128,0.09l-0.126,0.091l-0.126,0.093l-0.125,0.095l-0.123,0.095l-0.122,0.098l-0.121,0.098l-0.12,0.1l-0.119,0.102l-0.117,0.103l-0.116,0.104l-0.115,0.105l-0.113,0.107l-0.112,0.109l-0.111,0.109l-0.11,0.111l-0.108,0.112l-0.107,0.114l-0.106,0.115l-0.104,0.116l-0.103,0.117l-0.101,0.119l-0.1,0.119l-0.099,0.121l-0.097,0.123l-0.096,0.123l-0.094,0.125l-0.093,0.125l-0.092,0.127l-0.089,0.128l-0.089,0.129l-0.087,0.131l-0.085,0.131l-0.084,0.132l-0.082,0.134l-0.081,0.134l-0.079,0.136l-0.077,0.136l-0.076,0.138l-0.074,0.139l-0.073,0.139l-0.071,0.141l-0.069,0.142l-0.068,0.142l-0.066,0.144l-0.064,0.144l-0.062,0.146l-0.061,0.146l-0.059,0.147l-0.058,0.148l-0.055,0.149l-0.054,0.15l-0.052,0.15l-0.05,0.152l-0.049,0.152l-0.046,0.153l-0.045,0.154l-0.043,0.154l-0.041,0.156l-0.039,0.156l-0.037,0.157l-0.035,0.157l-0.034,0.159l-0.031,0.159l-0.03,0.159l-0.028,0.161l-0.025,0.161l-0.024,0.162l-0.022,0.162l-0.019,0.163l-0.018,0.164l-0.016,0.164l-0.013,0.164l-0.012,0.166l-0.009,0.166l-0.007,0.166l-0.006,0.167l-0.003,0.168l-0.001,0.168l0,1.006l0.001,0.142l0.003,0.141l0.004,0.142l0.006,0.14l0.008,0.141l0.01,0.14l0.012,0.139l0.013,0.139l0.015,0.138l0.016,0.138l0.019,0.137l0.02,0.137l0.021,0.136l0.024,0.136l0.025,0.135l0.026,0.134l0.029,0.134l0.03,0.134l0.031,0.132l0.033,0.132l0.035,0.132l0.036,0.13l0.038,0.131l0.039,0.129l0.041,0.129l0.043,0.128l0.044,0.127l0.045,0.127l0.047,0.126l0.049,0.125l0.05,0.124l0.051,0.124l0.053,0.123l0.054,0.122l0.056,0.121l0.057,0.121l0.059,0.12l0.06,0.119l0.061,0.118l0.063,0.117l0.064,0.116l0.066,0.116l0.066,0.115l0.069,0.113l0.069,0.113l0.071,0.112l0.072,0.111l0.074,0.111l0.074,0.109l0.076,0.108l0.078,0.107l0.078,0.107l0.08,0.105l0.081,0.104l0.082,0.104l0.083,0.102l0.085,0.101l0.086,0.1l0.087,0.1l0.088,0.098l0.089,0.097l0.091,0.096l0.091,0.095l0.093,0.094l0.094,0.092l0.095,0.092l0.096,0.09l0.097,0.09l0.098,0.088l0.099,0.087l0.101,0.086l0.101,0.084l0.102,0.084l0.103,0.082l0.105,0.081l0.105,0.08l0.106,0.078l0.108,0.077l0.108,0.076l0.109,0.075l0.11,0.074l0.111,0.072l0.112,0.071l0.113,0.069l0.114,0.068l0.115,0.067l0.115,0.066l0.117,0.064l0.117,0.063l0.118,0.061l0.119,0.06l0.12,0.059l0.12,0.057l0.122,0.056l0.122,0.054l0.123,0.053l0.123,0.051l0.125,0.05l0.125,0.049l0.126,0.047l0.127,0.045l0.127,0.044l0.128,0.043l0.129,0.04l0.129,0.04l0.13,0.038l0.131,0.036l0.131,0.035l0.132,0.033l0.133,0.031l0.133,0.03l0.134,0.028l0.135,0.027l0.135,0.025l0.136,0.023l0.136,0.022l0.136,0.02l0.138,0.018l0.138,0.017l0.138,0.015l0.139,0.013l0.139,0.012l0.14,0.009l0.14,0.008l0.141,0.007l0.141,0.004l0.142,0.003l0.142,0.001l4.012,0l0.142,-0.001l0.142,-0.003l0.141,-0.004l0.141,-0.007l0.14,-0.008l0.14,-0.009l0.139,-0.012l0.139,-0.013l0.138,-0.015l0.138,-0.017l0.138,-0.018l0.136,-0.02l0.136,-0.022l0.136,-0.023l0.135,-0.025l0.135,-0.027l0.134,-0.028l0.133,-0.03l0.133,-0.031l0.132,-0.033l0.131,-0.035l0.131,-0.036l0.13,-0.038l0.129,-0.04l0.129,-0.04l0.128,-0.043l0.127,-0.044l0.127,-0.045l0.126,-0.047l0.125,-0.049l0.125,-0.05l0.123,-0.051l0.123,-0.053l0.122,-0.054l0.122,-0.056l0.12,-0.057l0.12,-0.059l0.119,-0.06l0.118,-0.061l0.117,-0.063l0.117,-0.064l0.115,-0.066l0.115,-0.067l0.114,-0.068l0.113,-0.069l0.112,-0.071l0.111,-0.072l0.11,-0.074l0.109,-0.075l0.108,-0.076l0.108,-0.077l0.106,-0.078l0.105,-0.08l0.105,-0.081l0.103,-0.082l0.102,-0.084l0.101,-0.084l0.101,-0.086l0.099,-0.087l0.098,-0.088l0.097,-0.09l0.096,-0.09l0.095,-0.092l0.094,-0.092l0.093,-0.094l0.091,-0.095l0.091,-0.096l0.089,-0.097l0.088,-0.098l0.087,-0.1l0.086,-0.1l0.085,-0.101l0.083,-0.102l0.082,-0.104l0.081,-0.104l0.08,-0.105l0.078,-0.107l0.078,-0.107l0.076,-0.108l0.074,-0.109l0.074,-0.111l0.072,-0.111l0.071,-0.112l0.069,-0.113l0.069,-0.113l0.066,-0.115l0.066,-0.116l0.064,-0.116l0.063,-0.117l0.061,-0.118l0.06,-0.119l0.059,-0.12l0.057,-0.121l0.056,-0.121l0.054,-0.122l0.053,-0.123l0.051,-0.124l0.05,-0.124l0.049,-0.125l0.047,-0.126l0.045,-0.127l0.044,-0.127l0.043,-0.128l0.041,-0.129l0.039,-0.129l0.038,-0.131l0.036,-0.13l0.035,-0.132l0.033,-0.132l0.031,-0.132l0.03,-0.134l0.029,-0.134l0.026,-0.134l0.025,-0.135l0.024,-0.136l0.021,-0.136l0.02,-0.137l0.019,-0.137l0.016,-0.138l0.015,-0.138l0.013,-0.139l0.012,-0.139l0.01,-0.14l0.008,-0.141l0.006,-0.14l0.004,-0.142l0.003,-0.141l0.001,-0.142l0,-1.006l-0.001,-0.18l-0.004,-0.179l-0.006,-0.178l-0.008,-0.178l-0.011,-0.177l-0.013,-0.177l-0.016,-0.176l-0.018,-0.175l-0.02,-0.174l-0.022,-0.174l-0.025,-0.173l-0.027,-0.173l-0.029,-0.171l-0.032,-0.171l-0.033,-0.17l-0.036,-0.169l-0.038,-0.169l-0.04,-0.167l-0.043,-0.167l-0.044,-0.166l-0.047,-0.165l-0.049,-0.164l-0.051,-0.163l-0.053,-0.162l-0.055,-0.161l-0.057,-0.161l-0.059,-0.159l-0.061,-0.158l-0.063,-0.158l-0.065,-0.156l-0.067,-0.155l-0.069,-0.154l0.07,-0.008l0.07,-0.01l0.069,-0.011l0.069,-0.012l0.069,-0.014l0.068,-0.015l0.068,-0.017l0.068,-0.018l0.067,-0.02l0.067,-0.021l0.066,-0.022l0.065,-0.024l0.066,-0.025l0.064,-0.027l0.064,-0.028l0.063,-0.029l0.063,-0.031l0.062,-0.032l0.062,-0.033l0.061,-0.035l0.06,-0.036l0.059,-0.037l0.059,-0.038l0.057,-0.04l0.057,-0.041l0.057,-0.043l0.055,-0.043l0.055,-0.045l0.053,-0.046l0.053,-0.047l0.052,-0.049l0.05,-0.05l0.001,-0.001l0.047,-0.047l0.045,-0.048l0.044,-0.048l0.043,-0.05l0.042,-0.05l0.04,-0.051l0.04,-0.051l0.038,-0.052l0.038,-0.053l0.036,-0.053l0.035,-0.054l0.034,-0.055l0.033,-0.055l0.032,-0.056l0.03,-0.056l0.03,-0.056l0.028,-0.057l0.027,-0.058l0.026,-0.058l0.025,-0.058l0.023,-0.059l0.023,-0.06l0.021,-0.059l0.02,-0.06l0.019,-0.06l0.018,-0.061l0.017,-0.061l0.015,-0.061l0.015,-0.062l0.013,-0.061l0.012,-0.062l0.01,-0.063l0.01,-0.062l0.008,-0.063l0.007,-0.062l0.006,-0.063l0.005,-0.063l0.003,-0.063l0.003,-0.063l0.001,-0.064l-0.001,-0.063l-0.001,-0.063l-0.003,-0.063l-0.003,-0.064l-0.005,-0.063l-0.007,-0.063l-0.007,-0.063l-0.009,-0.064l-0.01,-0.063l-0.011,-0.062l-0.013,-0.063l-0.013,-0.063l-0.015,-0.062l-0.017,-0.063l-0.017,-0.062l-0.019,-0.062l-0.02,-0.061l-0.021,-0.061l-0.023,-0.062l-0.024,-0.06l-0.025,-0.061l-0.026,-0.06l-0.028,-0.06l-0.029,-0.059l-2.942,-5.884l-2.942,5.884Z"/></g><g id="emoji"><path d="M28,18.017c0,-7.18 -5.82,-13 -13,-13l0,0c-7.18,0 -13,5.82 -13,13l0,1.006c0,6.072 4.922,10.994 10.994,10.994c1.328,0 2.684,0 4.012,0c6.072,0 10.994,-4.922 10.994,-10.994c0,-0.335 0,-0.67 0,-1.006Z" style="fill:#fbc546;"/><clipPath id="_clip2"><path d="M28,18.017c0,-7.18 -5.82,-13 -13,-13l0,0c-7.18,0 -13,5.82 -13,13l0,1.006c0,6.072 4.922,10.994 10.994,10.994c1.328,0 2.684,0 4.012,0c6.072,0 10.994,-4.922 10.994,-10.994c0,-0.335 0,-0.67 0,-1.006Z"/></clipPath><g clip-path="url(#_clip2)"><path d="M31.235,7.015l0.043,0.087l0.044,0.096l0.042,0.096l0.041,0.097l0.038,0.099l0.036,0.098l0.035,0.098l0.032,0.099l0.03,0.1l0.029,0.101l0.026,0.1l0.024,0.1l0.022,0.102l0.02,0.1l0.018,0.101l0.016,0.102l0.014,0.102l0.013,0.102l0.01,0.102l0.008,0.101l0.006,0.102l0.004,0.102l0.002,0.102l0.001,0.102l-0.002,0.102l-0.004,0.101l-0.005,0.101l-0.008,0.102l-0.009,0.101l-0.012,0.101l-0.013,0.1l-0.016,0.101l-0.017,0.1l-0.019,0.099l-0.021,0.099l-0.023,0.099l-0.025,0.099l-0.026,0.098l-0.029,0.097l-0.031,0.098l-0.032,0.096l-0.034,0.096l-0.037,0.096l-0.038,0.094l-0.039,0.094l-0.042,0.093l-0.044,0.093l-0.046,0.093l-0.047,0.091l-0.049,0.09l-0.051,0.09l-0.053,0.088l-0.055,0.088l-0.056,0.087l-0.059,0.086l-0.06,0.085l-0.062,0.084l-0.064,0.083l-0.065,0.082l-0.068,0.081l-0.069,0.079l-0.071,0.078l-0.072,0.077l-0.064,0.065l-0.017,0.017l-0.088,0.086l-0.096,0.089l-0.098,0.087l-0.1,0.084l-0.102,0.081l-0.104,0.079l-0.105,0.076l-0.107,0.073l-0.109,0.071l-0.11,0.067l-0.112,0.066l-0.113,0.062l-0.115,0.059l-0.116,0.057l-0.117,0.054l-0.119,0.05l-0.119,0.048l-0.121,0.045l-0.122,0.042l-0.123,0.039l-0.124,0.036l-0.125,0.034l-0.126,0.03l-0.127,0.026l-0.128,0.024l-0.128,0.021l-0.129,0.018l-0.129,0.014l-0.13,0.012l-0.131,0.008l-0.131,0.004l-0.131,0.002l-0.131,-0.002l-0.131,-0.004l-0.131,-0.008l-0.13,-0.012l-0.129,-0.014l-0.129,-0.018l-0.128,-0.021l-0.128,-0.024l-0.127,-0.026l-0.125,-0.03l-0.126,-0.034l-0.123,-0.036l-0.124,-0.039l-0.122,-0.042l-0.121,-0.045l-0.119,-0.048l-0.119,-0.05l-0.117,-0.054l-0.116,-0.057l-0.115,-0.059l-0.113,-0.062l-0.112,-0.065l-0.11,-0.068l-0.109,-0.071l-0.107,-0.073l-0.105,-0.076l-0.104,-0.079l-0.102,-0.081l-0.1,-0.084l-0.098,-0.087l-0.096,-0.089l-0.088,-0.086l-0.017,-0.017l-0.064,-0.065l-0.073,-0.077l-0.071,-0.079l-0.068,-0.078l-0.068,-0.081l-0.065,-0.082l-0.064,-0.083l-0.062,-0.084l-0.06,-0.085l-0.059,-0.086l-0.056,-0.087l-0.055,-0.088l-0.053,-0.088l-0.051,-0.09l-0.049,-0.09l-0.048,-0.092l-0.045,-0.092l-0.043,-0.092l-0.042,-0.093l-0.041,-0.096l-0.037,-0.093l-0.037,-0.096l-0.034,-0.097l-0.032,-0.095l-0.031,-0.097l-0.029,-0.098l-0.026,-0.099l-0.025,-0.098l-0.023,-0.098l-0.021,-0.099l-0.019,-0.1l-0.018,-0.1l-0.015,-0.101l-0.013,-0.1l-0.012,-0.102l-0.009,-0.101l-0.008,-0.1l-0.005,-0.102l-0.004,-0.102l-0.002,-0.101l0.001,-0.102l0.002,-0.102l0.004,-0.101l0.006,-0.102l0.008,-0.103l0.01,-0.102l0.013,-0.101l0.014,-0.102l0.016,-0.101l0.018,-0.102l0.02,-0.101l0.022,-0.1l0.024,-0.101l0.027,-0.101l0.027,-0.099l0.031,-0.101l0.032,-0.099l0.034,-0.098l0.037,-0.099l0.038,-0.097l0.041,-0.098l0.042,-0.097l0.044,-0.095l0.043,-0.087l3.999,-7.998l1.472,0l3.999,7.998Zm-5.884,1.772l-0.016,0.032l-0.011,0.024l-0.01,0.023l-0.01,0.023l-0.009,0.025l-0.009,0.023l-0.008,0.024l-0.008,0.025l-0.007,0.023l-0.007,0.025l-0.006,0.024l-0.006,0.024l-0.006,0.025l-0.004,0.024l-0.005,0.024l-0.004,0.024l-0.003,0.025l-0.003,0.025l-0.003,0.025l-0.001,0.024l-0.002,0.024l-0.001,0.026l-0.001,0.024l0,0.025l0.001,0.025l0.001,0.024l0.001,0.024l0.002,0.026l0.002,0.025l0.003,0.024l0.003,0.025l0.004,0.024l0.004,0.024l0.005,0.024l0.005,0.024l0.006,0.025l0.006,0.024l0.006,0.024l0.007,0.023l0.007,0.024l0.009,0.024l0.008,0.023l0.009,0.023l0.009,0.024l0.009,0.021l0.01,0.023l0.011,0.023l0.011,0.022l0.012,0.022l0.011,0.021l0.013,0.022l0.013,0.022l0.013,0.021l0.013,0.021l0.015,0.021l0.014,0.02l0.015,0.02l0.016,0.021l0.015,0.019l0.016,0.02l0.018,0.02l0.017,0.019l0.017,0.018l0.018,0.018l0.025,0.024l0.024,0.022l0.023,0.021l0.025,0.021l0.024,0.02l0.026,0.019l0.025,0.018l0.027,0.018l0.026,0.017l0.027,0.017l0.027,0.016l0.028,0.015l0.028,0.014l0.028,0.014l0.028,0.013l0.029,0.013l0.03,0.011l0.029,0.011l0.03,0.011l0.03,0.009l0.03,0.009l0.031,0.008l0.03,0.007l0.031,0.007l0.031,0.006l0.031,0.005l0.032,0.004l0.031,0.003l0.032,0.003l0.032,0.002l0.032,0.001l0.032,0.001l0.032,-0.001l0.032,-0.001l0.032,-0.002l0.032,-0.003l0.031,-0.003l0.031,-0.004l0.032,-0.005l0.031,-0.006l0.031,-0.007l0.03,-0.007l0.031,-0.008l0.03,-0.009l0.03,-0.009l0.03,-0.011l0.029,-0.011l0.03,-0.012l0.029,-0.012l0.028,-0.013l0.028,-0.014l0.028,-0.014l0.028,-0.015l0.027,-0.016l0.027,-0.017l0.027,-0.017l0.026,-0.018l0.025,-0.018l0.026,-0.019l0.024,-0.02l0.025,-0.021l0.023,-0.021l0.024,-0.022l0.025,-0.024l0.017,-0.017l0.018,-0.019l0.018,-0.02l0.017,-0.019l0.016,-0.02l0.015,-0.019l0.016,-0.021l0.015,-0.02l0.014,-0.02l0.015,-0.021l0.013,-0.021l0.013,-0.021l0.013,-0.022l0.012,-0.021l0.012,-0.022l0.012,-0.022l0.011,-0.022l0.01,-0.022l0.01,-0.023l0.01,-0.023l0.009,-0.023l0.009,-0.023l0.009,-0.024l0.008,-0.023l0.007,-0.023l0.007,-0.024l0.006,-0.024l0.006,-0.024l0.006,-0.024l0.005,-0.024l0.005,-0.025l0.004,-0.024l0.004,-0.024l0.003,-0.025l0.003,-0.025l0.002,-0.025l0.002,-0.024l0.001,-0.025l0.001,-0.025l0.001,-0.024l0,-0.025l-0.001,-0.024l-0.001,-0.025l-0.002,-0.024l-0.002,-0.026l-0.002,-0.025l-0.003,-0.024l-0.003,-0.025l-0.004,-0.023l-0.005,-0.025l-0.005,-0.025l-0.005,-0.023l-0.006,-0.025l-0.006,-0.025l-0.007,-0.023l-0.007,-0.024l-0.008,-0.025l-0.008,-0.024l-0.009,-0.024l-0.009,-0.023l-0.01,-0.024l-0.011,-0.024l-0.01,-0.023l-0.016,-0.032l-1.149,-2.298l-1.149,2.298Z" style="fill:#e59a10;"/></g><path d="M23.034,9.517l0.046,0.003l0.045,0.005l0.045,0.006l0.045,0.009l0.044,0.011l0.044,0.013l0.043,0.014l0.042,0.017l0.041,0.019l0.041,0.02l0.04,0.022l0.038,0.025l0.038,0.025l0.036,0.028l0.035,0.029l0.034,0.031l0.032,0.032l0.031,0.033l0.029,0.035l0.027,0.037l0.026,0.037l0.024,0.039l0.023,0.04l0.02,0.04l0.019,0.042l0.016,0.042l0.015,0.043l0.013,0.044l0.011,0.044l0.008,0.045l0.007,0.045l0.005,0.045l0.002,0.046l0.001,0.045l-0.002,0.046l-0.003,0.045l-0.006,0.045l-0.008,0.045l-0.009,0.044l-0.012,0.044l-0.014,0.044l-0.016,0.043l-0.017,0.042l-0.02,0.041l-0.021,0.04l-0.024,0.039l-0.025,0.038l-0.026,0.037l-0.029,0.036l-0.029,0.034l-0.032,0.033l-2.856,2.856l2.465,0.821l0.043,0.016l0.042,0.017l0.041,0.019l0.041,0.021l0.039,0.023l0.038,0.025l0.038,0.026l0.035,0.028l0.035,0.03l0.033,0.031l0.032,0.033l0.03,0.034l0.029,0.035l0.027,0.037l0.025,0.038l0.024,0.039l0.021,0.04l0.02,0.041l0.018,0.041l0.016,0.043l0.014,0.043l0.013,0.044l0.01,0.045l0.008,0.044l0.006,0.045l0.004,0.046l0.002,0.045l0,0.046l-0.003,0.045l-0.004,0.046l-0.006,0.045l-0.009,0.044l-0.01,0.045l-0.012,0.044l-0.015,0.043l-0.016,0.042l-0.018,0.042l-0.021,0.041l-0.021,0.04l-0.024,0.038l-0.026,0.038l-0.027,0.037l-0.029,0.035l-0.03,0.034l-0.032,0.032l-0.034,0.031l-0.034,0.03l-0.036,0.027l-0.038,0.027l-0.038,0.024l-0.04,0.023l-0.04,0.02l-0.041,0.019l-0.043,0.018l-0.043,0.015l-0.043,0.013l-0.044,0.011l-0.045,0.009l-0.045,0.007l-0.045,0.005l-0.046,0.003l-0.045,0.001l-0.046,-0.001l-0.045,-0.003l-0.045,-0.006l-0.045,-0.007l-0.045,-0.009l-0.044,-0.012l-0.043,-0.013l-5.087,-1.696l-0.114,-0.484l4.81,-4.809l0.033,-0.032l0.034,-0.03l0.036,-0.028l0.037,-0.027l0.038,-0.025l0.039,-0.023l0.04,-0.021l0.041,-0.02l0.042,-0.018l0.043,-0.015l0.043,-0.014l0.044,-0.012l0.045,-0.01l0.045,-0.007l0.045,-0.006l0.045,-0.004l0.046,-0.001l0.045,0Z"/><path d="M7.057,9.518l0.045,0.004l0.045,0.006l0.045,0.007l0.045,0.01l0.044,0.012l0.043,0.014l0.043,0.015l0.042,0.018l0.041,0.02l0.04,0.021l0.039,0.023l0.038,0.025l0.037,0.027l0.036,0.028l0.034,0.03l0.033,0.032l4.81,4.809l-0.114,0.484l-5.087,1.696l-0.043,0.013l-0.044,0.012l-0.045,0.009l-0.045,0.007l-0.045,0.006l-0.045,0.003l-0.046,0.001l-0.045,-0.001l-0.046,-0.003l-0.045,-0.005l-0.045,-0.007l-0.045,-0.009l-0.044,-0.011l-0.043,-0.013l-0.043,-0.015l-0.043,-0.018l-0.041,-0.019l-0.04,-0.02l-0.04,-0.023l-0.038,-0.024l-0.038,-0.027l-0.036,-0.027l-0.034,-0.03l-0.034,-0.031l-0.032,-0.032l-0.03,-0.034l-0.029,-0.035l-0.027,-0.037l-0.026,-0.038l-0.024,-0.038l-0.021,-0.04l-0.021,-0.041l-0.018,-0.042l-0.016,-0.042l-0.015,-0.043l-0.012,-0.044l-0.01,-0.045l-0.009,-0.044l-0.006,-0.045l-0.004,-0.046l-0.003,-0.045l0,-0.046l0.002,-0.045l0.004,-0.046l0.006,-0.045l0.008,-0.044l0.01,-0.045l0.013,-0.044l0.014,-0.043l0.016,-0.043l0.018,-0.041l0.02,-0.041l0.021,-0.04l0.024,-0.039l0.025,-0.038l0.027,-0.037l0.029,-0.035l0.03,-0.034l0.032,-0.033l0.033,-0.031l0.035,-0.03l0.035,-0.028l0.038,-0.026l0.038,-0.025l0.039,-0.023l0.041,-0.021l0.041,-0.019l0.042,-0.017l0.043,-0.016l2.465,-0.821l-2.856,-2.856l-0.032,-0.033l-0.029,-0.034l-0.029,-0.036l-0.026,-0.037l-0.025,-0.038l-0.024,-0.039l-0.021,-0.04l-0.02,-0.041l-0.017,-0.042l-0.016,-0.043l-0.014,-0.044l-0.012,-0.044l-0.009,-0.044l-0.008,-0.045l-0.006,-0.045l-0.003,-0.045l-0.002,-0.046l0.001,-0.045l0.002,-0.046l0.005,-0.045l0.007,-0.045l0.008,-0.045l0.011,-0.044l0.013,-0.044l0.015,-0.043l0.016,-0.042l0.019,-0.042l0.02,-0.04l0.023,-0.04l0.024,-0.039l0.026,-0.037l0.027,-0.037l0.029,-0.035l0.031,-0.033l0.032,-0.032l0.034,-0.031l0.035,-0.029l0.036,-0.028l0.038,-0.025l0.038,-0.025l0.04,-0.022l0.041,-0.02l0.041,-0.019l0.042,-0.017l0.043,-0.014l0.044,-0.013l0.044,-0.011l0.045,-0.009l0.045,-0.006l0.045,-0.005l0.046,-0.003l0.045,0l0.046,0.001Z"/><g><path d="M8.852,24.017l-0.234,0c-0.347,0 -0.668,-0.18 -0.851,-0.475c-0.182,-0.294 -0.198,-0.663 -0.043,-0.973c0.249,-0.498 0.541,-1.083 0.841,-1.683c1.186,-2.371 3.61,-3.869 6.261,-3.869c0.116,0 0.232,0 0.348,0c2.651,0 5.075,1.498 6.261,3.869c0.3,0.6 0.592,1.185 0.841,1.683c0.155,0.31 0.139,0.679 -0.043,0.973c-0.183,0.295 -0.504,0.475 -0.851,0.475l-0.234,0c-1.115,-1.246 -11.181,-1.246 -12.296,0Z" style="fill:#722245;"/><path d="M8.852,24.017c1.115,-1.246 2.727,-2 4.473,-2c1.09,0 2.26,0 3.35,0c1.746,0 3.358,0.754 4.473,2l-12.296,0Z" style="fill:#ca3b8f;"/></g><path d="M26.5,2.017c0,0 -1.757,3.514 -2.942,5.884c-0.632,1.263 -0.384,2.789 0.615,3.788c0,0.001 0,0.001 0.001,0.001c0.617,0.617 1.453,0.964 2.326,0.964c0.873,0 1.709,-0.347 2.326,-0.964c0.001,0 0.001,0 0.001,-0.001c0.999,-0.999 1.247,-2.525 0.615,-3.788c-1.185,-2.37 -2.942,-5.884 -2.942,-5.884Z" style="fill:#fff;"/></g></g></svg>