<?xml version="1.0" encoding="UTF-8" standalone="no"?>
<!DOCTYPE svg PUBLIC "-//W3C//DTD SVG 1.1//EN" "http://www.w3.org/Graphics/SVG/1.1/DTD/svg11.dtd">
<svg width="100%" height="100%" viewBox="0 0 32 32" version="1.1" xmlns="http://www.w3.org/2000/svg" xmlns:xlink="http://www.w3.org/1999/xlink" xml:space="preserve" xmlns:serif="http://www.serif.com/" style="fill-rule:evenodd;clip-rule:evenodd;stroke-linecap:round;stroke-miterlimit:1.5;">
    <rect id="hot" x="0" y="0" width="32" height="32" style="fill:none;"/>
    <clipPath id="_clip1">
        <rect x="0" y="0" width="32" height="32"/>
    </clipPath>
    <g clip-path="url(#_clip1)">
        <g id="outline">
            <path d="M22.701,5.126l2.01,-4.02c0.339,-0.678 1.031,-1.106 1.789,-1.106c0.758,0 1.45,0.428 1.789,1.106c0,0 1.757,3.514 2.942,5.884c1.017,2.033 0.618,4.489 -0.989,6.097c-0.001,0 -0.001,0.001 -0.001,0.001c-0.26,0.259 -0.543,0.489 -0.846,0.686c0.394,1.34 0.605,2.758 0.605,4.226c0,0.336 0,0.672 0,1.006c0,7.176 -5.818,12.994 -12.994,12.994c-1.328,0 -2.684,0 -4.012,0c-7.176,0 -12.994,-5.818 -12.994,-12.994l0,-1.006c0,-8.284 6.716,-15 15,-15l0,0c2.816,0 5.45,0.776 7.701,2.126Z"/>
        </g>
        <g id="emoji">
            <path d="M28,18c0,-7.18 -5.82,-13 -13,-13l0,0c-7.18,0 -13,5.82 -13,13l0,1.006c0,6.072 4.922,10.994 10.994,10.994c1.328,0 2.684,0 4.012,0c6.072,0 10.994,-4.922 10.994,-10.994c0,-0.334 0,-0.67 0,-1.006Z" style="fill:#fb4646;"/>
            <clipPath id="_clip2">
                <path d="M28,18c0,-7.18 -5.82,-13 -13,-13l0,0c-7.18,0 -13,5.82 -13,13l0,1.006c0,6.072 4.922,10.994 10.994,10.994c1.328,0 2.684,0 4.012,0c6.072,0 10.994,-4.922 10.994,-10.994c0,-0.334 0,-0.67 0,-1.006Z"/>
            </clipPath>
            <g clip-path="url(#_clip2)">
                <path d="M26.5,2c0,0 -1.757,3.514 -2.942,5.884c-0.632,1.264 -0.384,2.79 0.615,3.789c0,0 0,0 0.001,0.001c0.617,0.617 1.453,0.963 2.326,0.963c0.873,0 1.709,-0.346 2.326,-0.963c0.001,-0.001 0.001,-0.001 0.001,-0.001c0.999,-0.999 1.247,-2.525 0.615,-3.789c-1.185,-2.37 -2.942,-5.884 -2.942,-5.884Z" style="fill:none;stroke:#dc2a2a;stroke-width:4px;"/>
            </g>
            <path d="M20.851,14.063l2.465,0.822c0.524,0.174 0.807,0.741 0.633,1.265c-0.175,0.523 -0.742,0.807 -1.265,0.632l-5.535,-1.845l5.144,-5.144c0.39,-0.39 1.024,-0.39 1.414,0c0.39,0.39 0.39,1.024 0,1.414l-2.856,2.856Zm-11.702,0l-2.856,-2.856c-0.39,-0.39 -0.39,-1.024 0,-1.414c0.39,-0.39 1.024,-0.39 1.414,0l5.144,5.144l-5.535,1.845c-0.523,0.175 -1.09,-0.109 -1.265,-0.632c-0.174,-0.524 0.109,-1.091 0.633,-1.265l2.465,-0.822Z"/>
            <g>
                <path d="M9,24l-1.259,0c-0.358,0 -0.689,-0.191 -0.867,-0.502c-0.178,-0.31 -0.177,-0.693 0.003,-1.002c0.186,-0.318 0.389,-0.666 0.597,-1.023c1.255,-2.151 3.557,-3.473 6.047,-3.473c0.964,0 1.994,0 2.958,0c2.49,0 4.792,1.322 6.047,3.473c0.208,0.357 0.411,0.705 0.597,1.023c0.18,0.309 0.181,0.692 0.003,1.002c-0.178,0.311 -0.509,0.502 -0.867,0.502l-1.259,0l-2.109,-0.664c-0.557,-0.835 -7.225,-0.835 -7.782,0l-2.109,0.664Z" style="fill:#4d0b0b;"/>
                <path d="M21,24l-1,0l-1,-1l1,-0.5l1,1.5Zm-11,-1.5l1,0.5l-1,1l-1,0l1,-1.5Z" style="fill:#801e36;"/>
                <path d="M10,23.5l0,-1l0.109,-0.164c0.557,-0.835 1.494,-1.336 2.497,-1.336c1.392,0 3.396,0 4.788,0c1.003,0 1.94,0.501 2.497,1.336l0.109,0.164l0,1l-0.005,0c-0.055,1.172 -0.544,2.284 -1.377,3.118c-0.886,0.885 -2.086,1.382 -3.338,1.382c-0.186,0 -0.374,0 -0.56,0c-1.252,0 -2.452,-0.497 -3.338,-1.382c-0.833,-0.834 -1.322,-1.946 -1.377,-3.118l-0.005,0Z" style="fill:#9a1756;"/>
            </g>
            <path d="M26.5,2c0,0 -1.757,3.514 -2.942,5.884c-0.632,1.264 -0.384,2.79 0.615,3.789c0,0 0,0 0.001,0.001c0.617,0.617 1.453,0.963 2.326,0.963c0.873,0 1.709,-0.346 2.326,-0.963c0.001,-0.001 0.001,-0.001 0.001,-0.001c0.999,-0.999 1.247,-2.525 0.615,-3.789c-1.185,-2.37 -2.942,-5.884 -2.942,-5.884Z" style="fill:#fff;"/>
        </g>
    </g>
</svg>
