<?xml version="1.0" encoding="UTF-8" standalone="no"?>
<!DOCTYPE svg PUBLIC "-//W3C//DTD SVG 1.1//EN" "http://www.w3.org/Graphics/SVG/1.1/DTD/svg11.dtd">
<svg width="100%" height="100%" viewBox="0 0 32 32" version="1.1" xmlns="http://www.w3.org/2000/svg" xmlns:xlink="http://www.w3.org/1999/xlink" xml:space="preserve" xmlns:serif="http://www.serif.com/" style="fill-rule:evenodd;clip-rule:evenodd;stroke-linecap:round;stroke-linejoin:round;stroke-miterlimit:1.5;">
    <rect id="mild_panic" x="0" y="-0.017" width="32" height="32" style="fill:none;"/>
    <clipPath id="_clip1">
        <rect x="0" y="-0.017" width="32" height="32"/>
    </clipPath>
    <g clip-path="url(#_clip1)">
        <g id="outline">
            <path d="M16,1.983c3.262,0 6.406,1.139 8.902,3.195l1.598,-3.195c0,0 1.757,3.514 2.942,5.885c0.551,1.101 0.433,2.402 -0.268,3.379c0.542,1.505 0.826,3.106 0.826,4.736l0,1c0,7.18 -5.82,13 -13,13l-2,0c-7.18,0 -13,-5.82 -13,-13l0,-1c0,-7.732 6.268,-14 14,-14l0,0Z" style="fill:none;stroke:#000;stroke-width:4px;"/>
        </g>
        <g id="emoji">
            <path d="M30,15.983c0,-3.713 -1.475,-7.274 -4.101,-9.899c-2.625,-2.626 -6.186,-4.101 -9.899,-4.101l0,0c-7.732,0 -14,6.268 -14,14l0,1c0,7.18 5.82,13 13,13l2,0c7.18,0 13,-5.82 13,-13l0,-1Z" style="fill:#fbc546;"/>
            <clipPath id="_clip2">
                <path d="M30,15.983c0,-3.713 -1.475,-7.274 -4.101,-9.899c-2.625,-2.626 -6.186,-4.101 -9.899,-4.101l0,0c-7.732,0 -14,6.268 -14,14l0,1c0,7.18 5.82,13 13,13l2,0c7.18,0 13,-5.82 13,-13l0,-1Z"/>
            </clipPath>
            <g clip-path="url(#_clip2)">
                <path d="M31.235,6.982l0.042,0.086l0.045,0.096l0.042,0.097l0.041,0.097l0.038,0.098l0.037,0.099l0.034,0.098l0.032,0.099l0.03,0.1l0.029,0.1l0.026,0.1l0.024,0.101l0.022,0.101l0.02,0.101l0.018,0.101l0.016,0.102l0.015,0.102l0.012,0.101l0.01,0.102l0.008,0.102l0.006,0.102l0.004,0.102l0.002,0.102l0.001,0.102l-0.002,0.101l-0.004,0.102l-0.005,0.101l-0.008,0.102l-0.009,0.101l-0.012,0.1l-0.013,0.101l-0.016,0.1l-0.017,0.1l-0.019,0.1l-0.021,0.099l-0.023,0.099l-0.025,0.099l-0.026,0.098l-0.029,0.097l-0.031,0.097l-0.032,0.097l-0.034,0.096l-0.037,0.095l-0.038,0.095l-0.039,0.094l-0.042,0.093l-0.044,0.093l-0.046,0.092l-0.047,0.091l-0.049,0.091l-0.051,0.089l-0.053,0.089l-0.055,0.088l-0.056,0.087l-0.059,0.086l-0.06,0.085l-0.062,0.084l-0.064,0.082l-0.065,0.082l-0.068,0.081l-0.069,0.079l-0.071,0.079l-0.072,0.077l-0.064,0.065l-0.017,0.017l-0.088,0.086l-0.096,0.089l-0.098,0.087l-0.1,0.084l-0.102,0.081l-0.104,0.079l-0.105,0.076l-0.107,0.073l-0.109,0.07l-0.11,0.068l-0.112,0.065l-0.113,0.062l-0.115,0.06l-0.116,0.056l-0.117,0.054l-0.119,0.051l-0.119,0.048l-0.121,0.045l-0.122,0.042l-0.123,0.039l-0.124,0.036l-0.125,0.033l-0.126,0.03l-0.127,0.027l-0.128,0.024l-0.128,0.021l-0.129,0.017l-0.129,0.015l-0.13,0.011l-0.131,0.008l-0.131,0.005l-0.131,0.002l-0.131,-0.002l-0.131,-0.005l-0.131,-0.008l-0.13,-0.011l-0.129,-0.015l-0.129,-0.017l-0.128,-0.021l-0.128,-0.024l-0.127,-0.027l-0.126,-0.03l-0.125,-0.033l-0.124,-0.036l-0.123,-0.039l-0.122,-0.042l-0.121,-0.045l-0.12,-0.048l-0.118,-0.051l-0.117,-0.053l-0.116,-0.057l-0.115,-0.06l-0.113,-0.062l-0.112,-0.065l-0.11,-0.068l-0.109,-0.07l-0.107,-0.073l-0.105,-0.076l-0.104,-0.079l-0.102,-0.081l-0.1,-0.084l-0.098,-0.087l-0.096,-0.089l-0.082,-0.08l-0.017,-0.017l-0.07,-0.072l-0.072,-0.077l-0.071,-0.078l-0.069,-0.079l-0.068,-0.081l-0.065,-0.082l-0.064,-0.083l-0.062,-0.083l-0.06,-0.085l-0.058,-0.086l-0.057,-0.087l-0.055,-0.088l-0.053,-0.089l-0.051,-0.089l-0.049,-0.091l-0.047,-0.091l-0.046,-0.092l-0.044,-0.093l-0.041,-0.093l-0.04,-0.094l-0.038,-0.095l-0.037,-0.095l-0.034,-0.096l-0.032,-0.097l-0.031,-0.097l-0.029,-0.097l-0.026,-0.098l-0.025,-0.099l-0.023,-0.099l-0.021,-0.099l-0.019,-0.1l-0.017,-0.1l-0.016,-0.1l-0.013,-0.101l-0.012,-0.1l-0.009,-0.101l-0.008,-0.102l-0.005,-0.101l-0.004,-0.102l-0.002,-0.101l0.001,-0.102l0.002,-0.102l0.004,-0.102l0.006,-0.102l0.008,-0.102l0.01,-0.102l0.012,-0.101l0.015,-0.102l0.016,-0.102l0.018,-0.101l0.02,-0.101l0.022,-0.101l0.024,-0.101l0.027,-0.1l0.028,-0.1l0.03,-0.099l0.032,-0.1l0.034,-0.099l0.037,-0.098l0.038,-0.098l0.041,-0.097l0.042,-0.097l0.045,-0.096l0.042,-0.086l3.999,-7.999l1.472,0l3.999,7.999Zm-5.884,1.771l-0.016,0.033l-0.011,0.023l-0.01,0.024l-0.01,0.023l-0.009,0.024l-0.009,0.024l-0.008,0.024l-0.008,0.024l-0.007,0.024l-0.007,0.024l-0.006,0.024l-0.006,0.024l-0.006,0.025l-0.004,0.024l-0.005,0.025l-0.004,0.024l-0.003,0.025l-0.003,0.024l-0.002,0.025l-0.002,0.025l-0.002,0.025l-0.001,0.024l0,0.025l-0.001,0.025l0.001,0.024l0.001,0.025l0.001,0.025l0.002,0.024l0.002,0.025l0.003,0.025l0.003,0.024l0.004,0.025l0.004,0.024l0.005,0.024l0.005,0.024l0.006,0.024l0.006,0.025l0.006,0.023l0.007,0.024l0.008,0.024l0.007,0.023l0.009,0.023l0.009,0.024l0.009,0.023l0.009,0.022l0.011,0.023l0.01,0.022l0.011,0.022l0.012,0.023l0.011,0.021l0.013,0.022l0.013,0.022l0.013,0.02l0.013,0.021l0.014,0.021l0.015,0.021l0.015,0.02l0.015,0.02l0.016,0.02l0.017,0.02l0.016,0.019l0.018,0.019l0.018,0.019l0.017,0.017l0.025,0.025l0.023,0.022l0.024,0.021l0.025,0.02l0.024,0.02l0.026,0.019l0.025,0.019l0.026,0.018l0.027,0.017l0.027,0.016l0.027,0.016l0.028,0.015l0.028,0.015l0.028,0.014l0.029,0.013l0.028,0.012l0.03,0.012l0.029,0.011l0.03,0.01l0.03,0.01l0.03,0.008l0.031,0.009l0.03,0.007l0.031,0.006l0.031,0.006l0.032,0.005l0.031,0.005l0.031,0.003l0.032,0.003l0.032,0.002l0.032,0.001l0.032,0l0.032,0l0.032,-0.001l0.032,-0.002l0.032,-0.003l0.031,-0.003l0.031,-0.005l0.032,-0.005l0.031,-0.006l0.031,-0.006l0.03,-0.007l0.031,-0.009l0.03,-0.008l0.03,-0.01l0.03,-0.01l0.029,-0.011l0.03,-0.012l0.029,-0.012l0.028,-0.013l0.028,-0.014l0.028,-0.015l0.028,-0.015l0.027,-0.016l0.027,-0.016l0.027,-0.017l0.026,-0.018l0.025,-0.019l0.026,-0.019l0.024,-0.02l0.025,-0.02l0.024,-0.021l0.023,-0.022l0.025,-0.024l0.017,-0.018l0.018,-0.019l0.018,-0.019l0.016,-0.019l0.017,-0.02l0.015,-0.02l0.016,-0.02l0.015,-0.02l0.015,-0.021l0.014,-0.02l0.013,-0.022l0.013,-0.021l0.013,-0.021l0.013,-0.022l0.011,-0.021l0.012,-0.022l0.011,-0.023l0.01,-0.022l0.01,-0.023l0.01,-0.022l0.009,-0.024l0.009,-0.023l0.009,-0.023l0.007,-0.023l0.008,-0.024l0.007,-0.024l0.006,-0.023l0.006,-0.024l0.006,-0.025l0.005,-0.024l0.005,-0.024l0.004,-0.024l0.004,-0.025l0.003,-0.024l0.003,-0.025l0.002,-0.025l0.002,-0.024l0.001,-0.025l0.001,-0.025l0.001,-0.024l-0.001,-0.025l0,-0.025l-0.001,-0.025l-0.002,-0.024l-0.002,-0.025l-0.002,-0.025l-0.003,-0.024l-0.003,-0.025l-0.004,-0.024l-0.005,-0.025l-0.004,-0.024l-0.006,-0.024l-0.006,-0.025l-0.006,-0.024l-0.007,-0.024l-0.007,-0.024l-0.008,-0.024l-0.008,-0.024l-0.009,-0.024l-0.009,-0.024l-0.01,-0.023l-0.01,-0.024l-0.011,-0.023l-0.016,-0.033l-1.149,-2.298l-1.149,2.298Z" style="fill:#e59a10;"/>
            </g>
            <path d="M11,20.983c0,0 0,0 0,0c1.281,1.281 3.017,2 4.828,2c0.115,0 0.229,0 0.344,0c1.811,0 3.547,-0.719 4.828,-2c0,0 0,0 0,0" style="fill:none;stroke:#593604;stroke-width:2px;"/>
            <g>
                <circle cx="9" cy="13.983" r="5" style="fill:#fff;"/>
                <circle cx="23" cy="13.983" r="5" style="fill:#fff;"/>
                <clipPath id="_clip3">
                    <circle cx="23" cy="13.983" r="5"/>
                </clipPath>
                <g clip-path="url(#_clip3)">
                    <path d="M31.235,6.982l0.042,0.086l0.045,0.096l0.042,0.097l0.041,0.097l0.038,0.098l0.037,0.099l0.034,0.098l0.032,0.099l0.03,0.1l0.029,0.1l0.026,0.1l0.024,0.101l0.022,0.101l0.02,0.101l0.018,0.101l0.016,0.102l0.015,0.102l0.012,0.101l0.01,0.102l0.008,0.102l0.006,0.102l0.004,0.102l0.002,0.102l0.001,0.102l-0.002,0.101l-0.004,0.102l-0.005,0.101l-0.008,0.102l-0.009,0.101l-0.012,0.1l-0.013,0.101l-0.016,0.1l-0.017,0.1l-0.019,0.1l-0.021,0.099l-0.023,0.099l-0.025,0.099l-0.026,0.098l-0.029,0.097l-0.031,0.097l-0.032,0.097l-0.034,0.096l-0.037,0.095l-0.038,0.095l-0.039,0.094l-0.042,0.093l-0.044,0.093l-0.046,0.092l-0.047,0.091l-0.049,0.091l-0.051,0.089l-0.053,0.089l-0.055,0.088l-0.056,0.087l-0.059,0.086l-0.06,0.085l-0.062,0.084l-0.064,0.082l-0.065,0.082l-0.068,0.081l-0.069,0.079l-0.071,0.079l-0.072,0.077l-0.064,0.065l-0.017,0.017l-0.088,0.086l-0.096,0.089l-0.098,0.087l-0.1,0.084l-0.102,0.081l-0.104,0.079l-0.105,0.076l-0.107,0.073l-0.109,0.07l-0.11,0.068l-0.112,0.065l-0.113,0.062l-0.115,0.06l-0.116,0.056l-0.117,0.054l-0.119,0.051l-0.119,0.048l-0.121,0.045l-0.122,0.042l-0.123,0.039l-0.124,0.036l-0.125,0.033l-0.126,0.03l-0.127,0.027l-0.128,0.024l-0.128,0.021l-0.129,0.017l-0.129,0.015l-0.13,0.011l-0.131,0.008l-0.131,0.005l-0.131,0.002l-0.131,-0.002l-0.131,-0.005l-0.131,-0.008l-0.13,-0.011l-0.129,-0.015l-0.129,-0.017l-0.128,-0.021l-0.128,-0.024l-0.127,-0.027l-0.126,-0.03l-0.125,-0.033l-0.124,-0.036l-0.123,-0.039l-0.122,-0.042l-0.121,-0.045l-0.12,-0.048l-0.118,-0.051l-0.117,-0.053l-0.116,-0.057l-0.115,-0.06l-0.113,-0.062l-0.112,-0.065l-0.11,-0.068l-0.109,-0.07l-0.107,-0.073l-0.105,-0.076l-0.104,-0.079l-0.102,-0.081l-0.1,-0.084l-0.098,-0.087l-0.096,-0.089l-0.082,-0.08l-0.017,-0.017l-0.07,-0.072l-0.072,-0.077l-0.071,-0.078l-0.069,-0.079l-0.068,-0.081l-0.065,-0.082l-0.064,-0.083l-0.062,-0.083l-0.06,-0.085l-0.058,-0.086l-0.057,-0.087l-0.055,-0.088l-0.053,-0.089l-0.051,-0.089l-0.049,-0.091l-0.047,-0.091l-0.046,-0.092l-0.044,-0.093l-0.041,-0.093l-0.04,-0.094l-0.038,-0.095l-0.037,-0.095l-0.034,-0.096l-0.032,-0.097l-0.031,-0.097l-0.029,-0.097l-0.026,-0.098l-0.025,-0.099l-0.023,-0.099l-0.021,-0.099l-0.019,-0.1l-0.017,-0.1l-0.016,-0.1l-0.013,-0.101l-0.012,-0.1l-0.009,-0.101l-0.008,-0.102l-0.005,-0.101l-0.004,-0.102l-0.002,-0.101l0.001,-0.102l0.002,-0.102l0.004,-0.102l0.006,-0.102l0.008,-0.102l0.01,-0.102l0.012,-0.101l0.015,-0.102l0.016,-0.102l0.018,-0.101l0.02,-0.101l0.022,-0.101l0.024,-0.101l0.027,-0.1l0.028,-0.1l0.03,-0.099l0.032,-0.1l0.034,-0.099l0.037,-0.098l0.038,-0.098l0.041,-0.097l0.042,-0.097l0.045,-0.096l0.042,-0.086l3.999,-7.999l1.472,0l3.999,7.999Zm-5.884,1.771l-0.016,0.033l-0.011,0.023l-0.01,0.024l-0.01,0.023l-0.009,0.024l-0.009,0.024l-0.008,0.024l-0.008,0.024l-0.007,0.024l-0.007,0.024l-0.006,0.024l-0.006,0.024l-0.006,0.025l-0.004,0.024l-0.005,0.025l-0.004,0.024l-0.003,0.025l-0.003,0.024l-0.002,0.025l-0.002,0.025l-0.002,0.025l-0.001,0.024l0,0.025l-0.001,0.025l0.001,0.024l0.001,0.025l0.001,0.025l0.002,0.024l0.002,0.025l0.003,0.025l0.003,0.024l0.004,0.025l0.004,0.024l0.005,0.024l0.005,0.024l0.006,0.024l0.006,0.025l0.006,0.023l0.007,0.024l0.008,0.024l0.007,0.023l0.009,0.023l0.009,0.024l0.009,0.023l0.009,0.022l0.011,0.023l0.01,0.022l0.011,0.022l0.012,0.023l0.011,0.021l0.013,0.022l0.013,0.022l0.013,0.02l0.013,0.021l0.014,0.021l0.015,0.021l0.015,0.02l0.015,0.02l0.016,0.02l0.017,0.02l0.016,0.019l0.018,0.019l0.018,0.019l0.017,0.017l0.025,0.025l0.023,0.022l0.024,0.021l0.025,0.02l0.024,0.02l0.026,0.019l0.025,0.019l0.026,0.018l0.027,0.017l0.027,0.016l0.027,0.016l0.028,0.015l0.028,0.015l0.028,0.014l0.029,0.013l0.028,0.012l0.03,0.012l0.029,0.011l0.03,0.01l0.03,0.01l0.03,0.008l0.031,0.009l0.03,0.007l0.031,0.006l0.031,0.006l0.032,0.005l0.031,0.005l0.031,0.003l0.032,0.003l0.032,0.002l0.032,0.001l0.032,0l0.032,0l0.032,-0.001l0.032,-0.002l0.032,-0.003l0.031,-0.003l0.031,-0.005l0.032,-0.005l0.031,-0.006l0.031,-0.006l0.03,-0.007l0.031,-0.009l0.03,-0.008l0.03,-0.01l0.03,-0.01l0.029,-0.011l0.03,-0.012l0.029,-0.012l0.028,-0.013l0.028,-0.014l0.028,-0.015l0.028,-0.015l0.027,-0.016l0.027,-0.016l0.027,-0.017l0.026,-0.018l0.025,-0.019l0.026,-0.019l0.024,-0.02l0.025,-0.02l0.024,-0.021l0.023,-0.022l0.025,-0.024l0.017,-0.018l0.018,-0.019l0.018,-0.019l0.016,-0.019l0.017,-0.02l0.015,-0.02l0.016,-0.02l0.015,-0.02l0.015,-0.021l0.014,-0.02l0.013,-0.022l0.013,-0.021l0.013,-0.021l0.013,-0.022l0.011,-0.021l0.012,-0.022l0.011,-0.023l0.01,-0.022l0.01,-0.023l0.01,-0.022l0.009,-0.024l0.009,-0.023l0.009,-0.023l0.007,-0.023l0.008,-0.024l0.007,-0.024l0.006,-0.023l0.006,-0.024l0.006,-0.025l0.005,-0.024l0.005,-0.024l0.004,-0.024l0.004,-0.025l0.003,-0.024l0.003,-0.025l0.002,-0.025l0.002,-0.024l0.001,-0.025l0.001,-0.025l0.001,-0.024l-0.001,-0.025l0,-0.025l-0.001,-0.025l-0.002,-0.024l-0.002,-0.025l-0.002,-0.025l-0.003,-0.024l-0.003,-0.025l-0.004,-0.024l-0.005,-0.025l-0.004,-0.024l-0.006,-0.024l-0.006,-0.025l-0.006,-0.024l-0.007,-0.024l-0.007,-0.024l-0.008,-0.024l-0.008,-0.024l-0.009,-0.024l-0.009,-0.024l-0.01,-0.023l-0.01,-0.024l-0.011,-0.023l-0.016,-0.033l-1.149,-2.298l-1.149,2.298Z" style="fill:#d2d2d2;"/>
                </g>
                <path d="M25,13.983c0,-1.104 -0.895,-2 -2,-2l-0.038,0c-0.52,0 -1.019,0.207 -1.387,0.575c-0.368,0.368 -0.575,0.867 -0.575,1.387l0,0.076c0,0.521 0.207,1.02 0.575,1.388c0.368,0.368 0.867,0.574 1.387,0.574l0.038,0c1.105,0 2,-0.895 2,-2l0,0Z"/>
                <path d="M11,13.983c0,-1.104 -0.895,-2 -2,-2l-0.038,0c-0.52,0 -1.019,0.207 -1.387,0.575c-0.368,0.368 -0.575,0.867 -0.575,1.387l0,0.076c0,0.521 0.207,1.02 0.575,1.388c0.368,0.368 0.867,0.574 1.387,0.574l0.038,0c1.105,0 2,-0.895 2,-2l0,0Z"/>
            </g>
            <path d="M26.5,1.983c0,0 -1.757,3.514 -2.942,5.885c-0.632,1.263 -0.384,2.789 0.615,3.788c0,0 0,0.001 0.001,0.001c0.617,0.617 1.453,0.964 2.326,0.964c0.873,0 1.709,-0.347 2.326,-0.964c0.001,0 0.001,-0.001 0.001,-0.001c0.999,-0.999 1.247,-2.525 0.615,-3.788c-1.185,-2.371 -2.942,-5.885 -2.942,-5.885Z" style="fill:#fff;"/>
        </g>
    </g>
</svg>
