<?xml version="1.0" encoding="UTF-8" standalone="no"?>
<!DOCTYPE svg PUBLIC "-//W3C//DTD SVG 1.1//EN" "http://www.w3.org/Graphics/SVG/1.1/DTD/svg11.dtd">
<svg width="100%" height="100%" viewBox="0 0 32 32" version="1.1" xmlns="http://www.w3.org/2000/svg" xmlns:xlink="http://www.w3.org/1999/xlink" xml:space="preserve" xmlns:serif="http://www.serif.com/" style="fill-rule:evenodd;clip-rule:evenodd;stroke-linecap:round;stroke-linejoin:round;stroke-miterlimit:1.5;">
    <rect id="mild_panic" x="0" y="-0.017" width="32" height="32" style="fill:none;"/>
    <clipPath id="_clip1">
        <rect x="0" y="-0.017" width="32" height="32"/>
    </clipPath>
    <g clip-path="url(#_clip1)">
        <g id="outline">
            <path d="M16,-0.017l0,0c2.891,0 5.702,0.783 8.148,2.231l0.563,-1.125c0.339,-0.678 1.031,-1.106 1.789,-1.106c0.758,0 1.45,0.428 1.789,1.106c0,0 1.757,3.514 2.942,5.884c0.716,1.432 0.73,3.074 0.114,4.481c0.431,1.457 0.655,2.982 0.655,4.529l0,1c0,8.285 -6.716,15 -15,15l-2,0c-8.284,0 -15,-6.715 -15,-15l0,-1c0,-8.836 7.163,-16 16,-16Z"/>
        </g>
        <g id="emoji">
            <path d="M16.087,1.984c2.547,0.015 5.02,0.725 7.165,2.024c0,0 5.595,10.209 6.523,9.477c0.149,0.818 0.225,1.654 0.225,2.498l0,1c0,7.18 -5.82,13 -13,13l-2,0c-7.18,0 -13,-5.82 -13,-13l0,-1c0,-7.732 6.268,-14 14,-14l0.087,0.001Z" style="fill:#fbc546;"/>
            <path d="M23.252,4.008c0.955,0.578 1.845,1.273 2.647,2.076c2.029,2.029 3.371,4.616 3.876,7.401c-0.928,0.732 -2.081,1.136 -3.275,1.136c-1.403,0 -2.749,-0.558 -3.741,-1.55c0,0 0,0 -0.001,-0.001c-1.607,-1.607 -2.006,-4.063 -0.989,-6.097l1.483,-2.965Z" style="fill:#e59a10;"/>
            <path d="M11,20.983c0,0 0,0 0,0c1.281,1.281 3.017,2 4.828,2c0.115,0 0.229,0 0.344,0c1.811,0 3.547,-0.719 4.828,-2c0,0 0,0 0,0" style="fill:none;stroke:#593604;stroke-width:2px;"/>
            <g>
                <circle cx="9" cy="13.983" r="5" style="fill:#fff;"/>
                <g>
                    <path d="M21.211,9.313c-0.005,1.378 6.294,5.235 6.771,5.096c-0.216,2.56 -2.366,4.574 -4.982,4.574c-2.76,0 -5,-2.24 -5,-5c0,-2.129 1.334,-3.95 3.211,-4.67Z" style="fill:#fff;"/>
                    <path d="M21.211,9.313c0.556,-0.213 1.159,-0.33 1.789,-0.33c2.76,0 5,2.241 5,5c0,0.144 -0.006,0.285 -0.018,0.426c-0.477,0.139 -0.976,0.212 -1.482,0.212c-1.403,0 -2.749,-0.558 -3.741,-1.55c0,0 0,0 -0.001,-0.001c-1.019,-1.019 -1.552,-2.379 -1.547,-3.757Z" style="fill:#d2d2d2;"/>
                </g>
                <path d="M25,13.983c0,-1.104 -0.895,-2 -2,-2l-0.038,0c-0.52,0 -1.019,0.207 -1.387,0.575c-0.368,0.368 -0.575,0.867 -0.575,1.387l0,0.076c0,0.521 0.207,1.02 0.575,1.388c0.368,0.368 0.867,0.574 1.387,0.574l0.038,0c1.105,0 2,-0.895 2,-2l0,0Z"/>
                <path d="M11,13.983c0,-1.104 -0.895,-2 -2,-2l-0.038,0c-0.52,0 -1.019,0.207 -1.387,0.575c-0.368,0.368 -0.575,0.867 -0.575,1.387l0,0.076c0,0.521 0.207,1.02 0.575,1.388c0.368,0.368 0.867,0.574 1.387,0.574l0.038,0c1.105,0 2,-0.895 2,-2l0,0Z"/>
            </g>
            <path d="M26.5,1.983c0,0 -1.757,3.514 -2.942,5.885c-0.632,1.263 -0.384,2.789 0.615,3.788c0,0 0,0.001 0.001,0.001c0.617,0.617 1.453,0.964 2.326,0.964c0.873,0 1.709,-0.347 2.326,-0.964c0.001,0 0.001,-0.001 0.001,-0.001c0.999,-0.999 1.247,-2.525 0.615,-3.788c-1.185,-2.371 -2.942,-5.885 -2.942,-5.885Z" style="fill:#fff;"/>
        </g>
    </g>
</svg>
