<?xml version="1.0" encoding="UTF-8" standalone="no"?>
<!DOCTYPE svg PUBLIC "-//W3C//DTD SVG 1.1//EN" "http://www.w3.org/Graphics/SVG/1.1/DTD/svg11.dtd">
<svg width="100%" height="100%" viewBox="0 0 32 32" version="1.1" xmlns="http://www.w3.org/2000/svg" xmlns:xlink="http://www.w3.org/1999/xlink" xml:space="preserve" xmlns:serif="http://www.serif.com/" style="fill-rule:evenodd;clip-rule:evenodd;stroke-linejoin:round;stroke-miterlimit:2;">
    <rect id="mind_blown" x="0" y="-0.017" width="32" height="32" style="fill:none;"/>
    <clipPath id="_clip1">
        <rect x="0" y="-0.017" width="32" height="32"/>
    </clipPath>
    <g clip-path="url(#_clip1)">
        <g id="outline">
            <path d="M8.124,2.289c0.099,-0.266 0.255,-0.513 0.462,-0.72c0,0 0.174,-0.174 0.419,-0.419c1.553,-1.553 3.925,-1.938 5.889,-0.956c0,0 0,0 0,0c0.036,0.018 0.071,0.037 0.105,0.057c1.023,-0.595 2.363,-0.124 2.858,0.99l1.145,2.863c-0.001,-0.04 -0.002,-0.08 -0.002,-0.121c0,-1.655 1.344,-3 3,-3c0.943,0 1.784,0.436 2.334,1.117c1.278,-0.427 2.672,0.501 2.666,1.892c-0.001,0.31 -0.079,0.607 -0.211,0.886l-0.759,1.518l4.253,0.607c1.485,0.243 2.239,2.013 1.287,3.22c-0.184,0.232 -0.414,0.412 -0.676,0.549l-2.062,1.031c0.362,0.089 0.718,0.219 1.062,0.391c0,0 0,0 0,0c0.988,0.494 1.389,1.696 0.895,2.684l-0.998,1.995c-0.024,0.049 -0.051,0.098 -0.08,0.145l-0.012,0.021l-0.008,0.012c-0.093,0.148 -0.204,0.281 -0.329,0.397c0.421,1.209 0.638,2.484 0.638,3.771l0,0.764c0,5.523 -4.477,10 -10,10l-8,0c-5.523,0 -10,-4.477 -10,-10l0,-0.764c0,-1.287 0.217,-2.562 0.638,-3.771c-0.206,-0.192 -0.374,-0.429 -0.486,-0.699c-0.309,-0.748 -0.138,-1.608 0.434,-2.18l2.038,-2.038l-3.518,-1.759c-1.332,-0.7 -1.488,-2.617 -0.203,-3.461c0.248,-0.163 0.523,-0.26 0.814,-0.308l4.253,-0.607l-0.759,-1.518c-0.607,-1.276 0.247,-2.813 1.68,-2.892c0.31,-0.017 0.611,0.043 0.897,0.159l0.336,0.144Z"/>
        </g>
        <g id="emoji">
            <circle cx="22" cy="3.983" r="1" style="fill:#fbc546;"/>
            <path d="M29,13.983l-1,2l-3,-1c0,0 0.174,-0.174 0.419,-0.419c0.944,-0.944 2.387,-1.178 3.581,-0.581c0,0 0,0 0,0Z" style="fill:#fbc546;"/>
            <path d="M14,1.983l-1,2l-3,-1c0,0 0.174,-0.174 0.419,-0.419c0.944,-0.944 2.387,-1.178 3.581,-0.581c0,0 0,0 0,0Z" style="fill:#fbc546;"/>
            <g>
                <path d="M16,1.983l-2,5l-7,-3l2,4l-7,1l6,3l-4,4l6,0l-3,3l18,0l-3,-3l6,0l-4,-4l6,-3l-7,-1l2,-4l-7,3l-2,-5Z" style="fill:#f30800;"/>
                <path d="M16,5.983l-2,3l-4,-2l2,3l-5,0l4,2l-3,3l4,0l-2,3l4,-1l2,2l2,-2l3,1l-1,-3l4,0l-3,-3l4,-2l-5,0l2,-3l-4,2l-2,-3Z" style="fill:#ffa32b;"/>
            </g>
            <path d="M27,16.983l-22,0c0,0 0,0 0,0c-0.658,1.316 -1,2.766 -1,4.236l0,0.764c0,4.419 3.582,8 8,8l8,0c4.418,0 8,-3.581 8,-8l0,-0.764c0,-1.47 -0.342,-2.92 -1,-4.236c0,0 0,0 0,0Z" style="fill:#fbc546;"/>
            <circle cx="10.5" cy="20.483" r="2.5" style="fill:#fff;"/>
            <circle cx="21.5" cy="20.483" r="2.5" style="fill:#fff;"/>
            <g>
                <path d="M12,20.499c0,-0.398 -0.158,-0.78 -0.439,-1.061c-0.282,-0.281 -0.663,-0.439 -1.061,-0.439c-0.398,0 -0.779,0.158 -1.061,0.439c-0.281,0.281 -0.439,0.663 -0.439,1.061l0,0.018c0,0.398 0.158,0.779 0.439,1.06c0.282,0.282 0.663,0.44 1.061,0.44c0.398,0 0.779,-0.158 1.061,-0.44c0.281,-0.281 0.439,-0.662 0.439,-1.06l0,-0.018Z"/>
                <path d="M23,20.497c0,-0.828 -0.671,-1.498 -1.498,-1.498l-0.004,0c-0.827,0 -1.498,0.67 -1.498,1.498l0,0.022c0,0.827 0.671,1.498 1.498,1.498l0.004,0c0.827,0 1.498,-0.671 1.498,-1.498l0,-0.022Z"/>
                <path d="M21.276,26.536c0.155,0.31 0.139,0.678 -0.043,0.973c-0.183,0.295 -0.504,0.474 -0.851,0.474c-2.295,0 -6.469,0 -8.764,0c-0.347,0 -0.668,-0.179 -0.851,-0.474c-0.182,-0.295 -0.198,-0.663 -0.043,-0.973c0.281,-0.563 0.613,-1.226 0.934,-1.869c0.823,-1.645 2.503,-2.684 4.342,-2.684c0,0 0,0 0,0c1.839,0 3.519,1.039 4.342,2.684c0.321,0.643 0.653,1.306 0.934,1.869Z" style="fill:#5b2b02;"/>
            </g>
            <g>
                <path d="M12.711,27.983l-1.093,0c-0.347,0 -0.668,-0.179 -0.851,-0.474c-0.182,-0.295 -0.198,-0.663 -0.043,-0.973c0.281,-0.563 0.613,-1.226 0.934,-1.869c0.823,-1.645 2.503,-2.684 4.342,-2.684c0,0 0,0 0,0c1.839,0 3.519,1.039 4.342,2.684c0.321,0.643 0.653,1.306 0.934,1.869c0.155,0.31 0.139,0.678 -0.043,0.973c-0.183,0.295 -0.504,0.474 -0.851,0.474l-1.093,0c-1.554,-0.304 -2.641,-0.278 -3.396,-0.278c-0.79,-0.001 -1.989,0.041 -3.182,0.278Z" style="fill:#722245;"/>
                <path d="M12.711,27.983c0.953,-0.638 2.091,-1 3.289,-1c0,0 0,0 0,0c1.198,0 2.336,0.362 3.289,1l-6.578,0Z" style="fill:#ca3b8f;"/>
            </g>
            <g>
                <path d="M6,13.983l-3,0c-1.105,0 -2,-0.895 -2,-2l0,-0.002c0,-1.325 0.527,-2.597 1.464,-3.534c0.937,-0.937 2.208,-1.464 3.534,-1.464l0.002,0c1.105,0 2,0.896 2,2l0,3c0,1.105 -0.895,2 -2,2Z"/>
                <path d="M3,11.983l0,-0.002c0,-0.795 0.316,-1.557 0.878,-2.12c0.562,-0.562 1.325,-0.878 2.12,-0.878l0.002,0l0,3l-3,0Z" style="fill:#fbc546;"/>
            </g>
            <g>
                <path d="M12.586,9.569c-0.609,0.609 -0.76,1.539 -0.375,2.309l1,2c0.494,0.988 1.695,1.388 2.683,0.894l2,-1c0.575,-0.287 0.977,-0.834 1.08,-1.468c0.103,-0.635 -0.105,-1.28 -0.56,-1.735l-2,-2c-0.781,-0.781 -2.047,-0.781 -2.828,0l-1,1Z"/>
                <path d="M14,10.983l1,-1l2,2l-2,1l-1,-2Z" style="fill:#fbc546;"/>
            </g>
        </g>
    </g>
</svg>
