<?xml version="1.0" encoding="UTF-8" standalone="no"?><!DOCTYPE svg PUBLIC "-//W3C//DTD SVG 1.1//EN" "http://www.w3.org/Graphics/SVG/1.1/DTD/svg11.dtd"><svg width="100%" height="100%" viewBox="0 0 32 32" version="1.1" xmlns="http://www.w3.org/2000/svg" xmlns:xlink="http://www.w3.org/1999/xlink" xml:space="preserve" xmlns:serif="http://www.serif.com/" style="fill-rule:evenodd;clip-rule:evenodd;stroke-linecap:round;stroke-linejoin:round;stroke-miterlimit:1.5;"><rect id="mind_blown" x="0" y="-0.017" width="32" height="32" style="fill:none;"/><clipPath id="_clip1"><rect x="0" y="-0.017" width="32" height="32"/></clipPath><g clip-path="url(#_clip1)"><g id="outline"><path d="M4,15.983l4,-4l-6,-3l7,-1l-2,-4l7,3l2,-5l2,5l7,-3l-2,4l7,1l-6,3l4,4l-6,0l1,1l4,0l0,0c0.658,1.316 1,2.766 1,4.236c0,0.243 0,0.499 0,0.764c0,4.419 -3.582,8 -8,8c-2.574,0 -5.426,0 -8,0c-4.418,0 -8,-3.581 -8,-8c0,-0.265 0,-0.521 0,-0.764c0,-1.47 0.342,-2.92 1,-4.236l0,0l4,0l1,-1l-6,0Z" style="fill:none;stroke:#000;stroke-width:4px;"/></g><g id="emoji"><circle cx="22" cy="3.983" r="1" style="fill:#fbc546;"/><path d="M22.153,0.987l0.151,0.011l0.151,0.019l0.148,0.027l0.146,0.033l0.143,0.041l0.14,0.047l0.137,0.054l0.133,0.061l0.13,0.066l0.125,0.073l0.122,0.078l0.117,0.083l0.113,0.089l0.109,0.094l0.103,0.099l0.1,0.104l0.094,0.108l0.088,0.113l0.084,0.117l0.078,0.122l0.072,0.126l0.066,0.129l0.061,0.134l0.054,0.137l0.047,0.139l0.041,0.143l0.034,0.147l0.026,0.148l0.019,0.15l0.012,0.151l0.004,0.153l-0.004,0.153l-0.012,0.152l-0.019,0.15l-0.026,0.148l-0.034,0.146l-0.041,0.143l-0.047,0.14l-0.054,0.137l-0.061,0.134l-0.066,0.129l-0.072,0.126l-0.078,0.122l-0.084,0.117l-0.088,0.113l-0.094,0.108l-0.1,0.104l-0.103,0.099l-0.109,0.094l-0.113,0.089l-0.117,0.083l-0.122,0.078l-0.125,0.072l-0.13,0.067l-0.133,0.06l-0.137,0.054l-0.14,0.047l-0.143,0.041l-0.146,0.034l-0.148,0.026l-0.151,0.02l-0.151,0.011l-0.153,0.004l-0.153,-0.004l-0.151,-0.011l-0.151,-0.02l-0.148,-0.026l-0.146,-0.034l-0.143,-0.041l-0.14,-0.047l-0.137,-0.054l-0.133,-0.06l-0.13,-0.067l-0.125,-0.072l-0.122,-0.078l-0.117,-0.083l-0.113,-0.089l-0.109,-0.094l-0.103,-0.099l-0.1,-0.104l-0.094,-0.108l-0.088,-0.113l-0.084,-0.117l-0.078,-0.122l-0.072,-0.126l-0.066,-0.129l-0.061,-0.134l-0.054,-0.137l-0.047,-0.14l-0.041,-0.143l-0.034,-0.146l-0.026,-0.148l-0.019,-0.15l-0.012,-0.152l-0.004,-0.153l0.004,-0.153l0.012,-0.151l0.019,-0.15l0.026,-0.148l0.034,-0.147l0.041,-0.143l0.047,-0.139l0.054,-0.137l0.061,-0.134l0.066,-0.129l0.072,-0.126l0.078,-0.122l0.084,-0.117l0.088,-0.113l0.094,-0.108l0.1,-0.104l0.103,-0.099l0.109,-0.094l0.113,-0.089l0.117,-0.083l0.122,-0.078l0.125,-0.073l0.13,-0.066l0.133,-0.061l0.137,-0.054l0.14,-0.047l0.143,-0.041l0.146,-0.033l0.148,-0.027l0.151,-0.019l0.151,-0.011l0.153,-0.004l0.153,0.004Zm-0.203,1.997l-0.05,0.004l-0.05,0.006l-0.05,0.009l-0.049,0.011l-0.048,0.014l-0.047,0.016l-0.047,0.018l-0.045,0.021l-0.043,0.022l-0.042,0.024l-0.04,0.026l-0.039,0.027l-0.038,0.03l-0.035,0.031l-0.035,0.033l-0.032,0.034l-0.031,0.036l-0.03,0.037l-0.027,0.039l-0.027,0.041l-0.024,0.042l-0.022,0.043l-0.02,0.045l-0.018,0.046l-0.016,0.047l-0.014,0.048l-0.011,0.049l-0.009,0.05l-0.007,0.05l-0.003,0.05l-0.002,0.05l0.002,0.05l0.003,0.05l0.007,0.05l0.009,0.05l0.011,0.05l0.014,0.048l0.016,0.046l0.018,0.047l0.02,0.045l0.022,0.043l0.024,0.042l0.027,0.041l0.027,0.039l0.03,0.037l0.031,0.036l0.032,0.034l0.035,0.033l0.035,0.031l0.038,0.029l0.039,0.028l0.04,0.026l0.042,0.024l0.043,0.022l0.045,0.02l0.047,0.019l0.047,0.015l0.048,0.014l0.049,0.012l0.05,0.008l0.05,0.007l0.05,0.004l0.05,0.001l0.05,-0.001l0.05,-0.004l0.05,-0.007l0.05,-0.008l0.049,-0.012l0.048,-0.014l0.047,-0.015l0.047,-0.019l0.045,-0.02l0.043,-0.022l0.042,-0.024l0.04,-0.026l0.039,-0.028l0.038,-0.029l0.035,-0.031l0.035,-0.033l0.032,-0.034l0.031,-0.036l0.03,-0.037l0.027,-0.039l0.027,-0.041l0.024,-0.042l0.022,-0.043l0.02,-0.045l0.018,-0.047l0.016,-0.046l0.014,-0.048l0.011,-0.05l0.009,-0.05l0.007,-0.05l0.003,-0.05l0.002,-0.05l-0.002,-0.05l-0.003,-0.05l-0.007,-0.05l-0.009,-0.05l-0.011,-0.049l-0.014,-0.048l-0.016,-0.047l-0.018,-0.046l-0.02,-0.045l-0.022,-0.043l-0.024,-0.042l-0.027,-0.041l-0.027,-0.039l-0.03,-0.037l-0.031,-0.036l-0.032,-0.034l-0.035,-0.033l-0.035,-0.031l-0.038,-0.03l-0.039,-0.027l-0.04,-0.026l-0.042,-0.024l-0.043,-0.022l-0.045,-0.021l-0.047,-0.018l-0.047,-0.016l-0.048,-0.014l-0.049,-0.011l-0.05,-0.009l-0.05,-0.006l-0.05,-0.004l-0.05,-0.001l-0.05,0.001Z"/><path d="M29,13.983l-1,2l-3,-1c0,0 0.174,-0.174 0.419,-0.419c0.944,-0.944 2.387,-1.178 3.581,-0.581c0,0 0,0 0,0Z" style="fill:#fbc546;"/><path d="M27.675,11.656l0.098,0.002l0.099,0.004l0.098,0.006l0.098,0.008l0.099,0.01l0.098,0.011l0.098,0.014l0.098,0.016l0.098,0.017l0.098,0.019l0.098,0.022l0.097,0.023l0.097,0.025l0.096,0.028l0.096,0.029l0.096,0.031l0.096,0.033l0.095,0.035l0.094,0.037l0.094,0.039l0.094,0.041l0.092,0.043l0.083,0.041l1.798,0.899l-2.67,5.34l-6.819,-2.273l-0.228,-0.967l2.046,-2.046l0.066,-0.065l0.074,-0.07l0.076,-0.068l0.076,-0.067l0.078,-0.065l0.08,-0.063l0.079,-0.062l0.082,-0.06l0.082,-0.058l0.083,-0.056l0.084,-0.055l0.084,-0.053l0.086,-0.051l0.087,-0.049l0.087,-0.048l0.088,-0.046l0.089,-0.044l0.09,-0.042l0.09,-0.04l0.091,-0.039l0.091,-0.037l0.092,-0.034l0.093,-0.034l0.093,-0.031l0.094,-0.029l0.094,-0.028l0.095,-0.026l0.095,-0.024l0.095,-0.022l0.096,-0.02l0.097,-0.019l0.096,-0.017l0.097,-0.014l0.097,-0.013l0.098,-0.011l0.097,-0.009l0.098,-0.008l0.098,-0.005l0.098,-0.004l0.098,-0.001l0.099,0Zm-0.144,2.001l-0.06,0.002l-0.059,0.003l-0.06,0.005l-0.059,0.005l-0.059,0.007l-0.059,0.008l-0.059,0.009l-0.059,0.01l-0.059,0.011l-0.058,0.012l-0.058,0.014l-0.058,0.015l-0.058,0.015l-0.057,0.017l-0.057,0.018l-0.057,0.019l-0.056,0.02l-0.056,0.021l-0.056,0.023l-0.055,0.023l-0.055,0.025l-0.054,0.025l-0.054,0.027l-0.054,0.028l-0.053,0.029l-0.052,0.03l-0.052,0.031l-0.052,0.032l-0.051,0.033l-0.05,0.034l-0.05,0.036l-0.049,0.036l-0.049,0.038l-0.048,0.038l-0.047,0.04l-0.047,0.04l-0.046,0.042l-0.045,0.043l-0.045,0.043l-0.419,0.419l3,1l1,-2l0,0l-0.056,-0.027l-0.057,-0.026l-0.057,-0.025l-0.057,-0.024l-0.057,-0.023l-0.058,-0.021l-0.058,-0.02l-0.058,-0.019l-0.059,-0.018l-0.058,-0.016l-0.059,-0.016l-0.059,-0.014l-0.059,-0.013l-0.06,-0.012l-0.059,-0.01l-0.06,-0.01l-0.059,-0.008l-0.06,-0.007l-0.06,-0.006l-0.06,-0.005l-0.06,-0.003l-0.059,-0.003l-0.06,-0.001l-0.06,0l-0.06,0.001Z"/><path d="M14,1.983l-1,2l-3,-1c0,0 0.174,-0.174 0.419,-0.419c0.944,-0.944 2.387,-1.178 3.581,-0.581c0,0 0,0 0,0Z" style="fill:#fbc546;"/><path d="M12.675,-0.344l0.098,0.002l0.099,0.004l0.098,0.006l0.098,0.008l0.099,0.01l0.098,0.011l0.098,0.014l0.098,0.016l0.098,0.017l0.098,0.019l0.098,0.022l0.097,0.023l0.097,0.025l0.096,0.028l0.096,0.029l0.096,0.031l0.096,0.033l0.095,0.035l0.094,0.037l0.094,0.039l0.094,0.041l0.092,0.043l0.083,0.041l1.798,0.899l-2.67,5.34l-6.819,-2.273l-0.228,-0.967l2.046,-2.046l0.066,-0.065l0.074,-0.07l0.076,-0.068l0.076,-0.067l0.078,-0.065l0.08,-0.063l0.079,-0.062l0.082,-0.06l0.082,-0.058l0.083,-0.056l0.084,-0.055l0.084,-0.053l0.086,-0.051l0.087,-0.049l0.087,-0.048l0.088,-0.046l0.089,-0.044l0.09,-0.042l0.09,-0.04l0.091,-0.039l0.091,-0.037l0.092,-0.034l0.093,-0.034l0.093,-0.031l0.094,-0.029l0.094,-0.028l0.095,-0.026l0.095,-0.024l0.095,-0.022l0.096,-0.02l0.097,-0.019l0.096,-0.017l0.097,-0.014l0.097,-0.013l0.098,-0.011l0.097,-0.009l0.098,-0.008l0.098,-0.005l0.098,-0.004l0.098,-0.001l0.099,0Zm-0.144,2.001l-0.06,0.002l-0.059,0.003l-0.06,0.005l-0.059,0.005l-0.059,0.007l-0.059,0.008l-0.059,0.009l-0.059,0.01l-0.059,0.011l-0.058,0.012l-0.058,0.014l-0.058,0.015l-0.058,0.015l-0.057,0.017l-0.057,0.018l-0.057,0.019l-0.056,0.02l-0.056,0.021l-0.056,0.023l-0.055,0.023l-0.055,0.025l-0.054,0.025l-0.054,0.027l-0.054,0.028l-0.053,0.029l-0.052,0.03l-0.052,0.031l-0.052,0.032l-0.051,0.033l-0.05,0.034l-0.05,0.036l-0.049,0.036l-0.049,0.038l-0.048,0.038l-0.047,0.04l-0.047,0.04l-0.046,0.042l-0.045,0.043l-0.045,0.043l-0.419,0.419l3,1l1,-2l0,0l-0.056,-0.027l-0.057,-0.026l-0.057,-0.025l-0.057,-0.024l-0.057,-0.023l-0.058,-0.021l-0.058,-0.02l-0.058,-0.019l-0.059,-0.018l-0.058,-0.016l-0.059,-0.016l-0.059,-0.014l-0.059,-0.013l-0.06,-0.012l-0.059,-0.01l-0.06,-0.01l-0.059,-0.008l-0.06,-0.007l-0.06,-0.006l-0.06,-0.005l-0.06,-0.003l-0.059,-0.003l-0.06,-0.001l-0.06,0l-0.06,0.001Z"/><g><path d="M16,1.983l-2,5l-7,-3l2,4l-7,1l6,3l-4,4l6,0l-3,3l18,0l-3,-3l6,0l-4,-4l6,-3l-7,-1l2,-4l-7,3l-2,-5Z" style="fill:#f30800;"/><path d="M16,5.983l-2,3l-4,-2l2,3l-5,0l4,2l-3,3l4,0l-2,3l4,-1l2,2l2,-2l3,1l-1,-3l4,0l-3,-3l4,-2l-5,0l2,-3l-4,2l-2,-3Z" style="fill:#ffa32b;"/></g><path d="M27,16.983l-22,0c0,0 0,0 0,0c-0.658,1.316 -1,2.766 -1,4.236c0,0.243 0,0.499 0,0.764c0,4.419 3.582,8 8,8c2.574,0 5.426,0 8,0c4.418,0 8,-3.581 8,-8c0,-0.265 0,-0.521 0,-0.764c0,-1.47 -0.342,-2.92 -1,-4.236c0,0 0,0 0,0Z" style="fill:#fbc546;"/><g><path d="M12,20.499c0,-0.398 -0.158,-0.78 -0.439,-1.061c-0.282,-0.281 -0.663,-0.439 -1.061,-0.439c-0.398,0 -0.779,0.158 -1.061,0.439c-0.281,0.281 -0.439,0.663 -0.439,1.061c0,0.006 0,0.012 0,0.018c0,0.398 0.158,0.779 0.439,1.06c0.282,0.282 0.663,0.44 1.061,0.44c0.398,0 0.779,-0.158 1.061,-0.44c0.281,-0.281 0.439,-0.662 0.439,-1.06c0,-0.006 0,-0.012 0,-0.018Z"/><path d="M23,20.497c0,-0.828 -0.671,-1.498 -1.498,-1.498c-0.001,0 -0.003,0 -0.004,0c-0.827,0 -1.498,0.67 -1.498,1.498c0,0.007 0,0.014 0,0.022c0,0.827 0.671,1.498 1.498,1.498c0.001,0 0.003,0 0.004,0c0.827,0 1.498,-0.671 1.498,-1.498c0,-0.008 0,-0.015 0,-0.022Z"/><path d="M21.276,26.536c0.155,0.31 0.139,0.678 -0.043,0.973c-0.183,0.295 -0.504,0.474 -0.851,0.474c-2.295,0 -6.469,0 -8.764,0c-0.347,0 -0.668,-0.179 -0.851,-0.474c-0.182,-0.295 -0.198,-0.663 -0.043,-0.973c0.281,-0.563 0.613,-1.226 0.934,-1.869c0.823,-1.645 2.503,-2.684 4.342,-2.684c0,0 0,0 0,0c1.839,0 3.519,1.039 4.342,2.684c0.321,0.643 0.653,1.306 0.934,1.869Z" style="fill:#5b2b02;"/></g><g><path d="M12.711,27.983l-1.093,0c-0.347,0 -0.668,-0.179 -0.851,-0.474c-0.182,-0.295 -0.198,-0.663 -0.043,-0.973c0.281,-0.563 0.613,-1.226 0.934,-1.869c0.823,-1.645 2.503,-2.684 4.342,-2.684c0,0 0,0 0,0c1.839,0 3.519,1.039 4.342,2.684c0.321,0.643 0.653,1.306 0.934,1.869c0.155,0.31 0.139,0.678 -0.043,0.973c-0.183,0.295 -0.504,0.474 -0.851,0.474l-1.093,0c-1.554,-0.304 -2.641,-0.278 -3.396,-0.278c-0.79,-0.001 -1.989,0.041 -3.182,0.278Z" style="fill:#722245;"/><path d="M12.711,27.983c0.953,-0.638 2.091,-1 3.289,-1c0,0 0,0 0,0c1.198,0 2.336,0.362 3.289,1l-6.578,0Z" style="fill:#ca3b8f;"/></g><path d="M3,11.983c0,0 0,0 0,-0.002c0,-0.795 0.316,-1.557 0.878,-2.12c0.562,-0.562 1.325,-0.878 2.12,-0.878c0.001,0 0.002,0 0.002,0l0,3l-3,0Z" style="fill:#fbc546;"/><path d="M8,13.983l-7,0l0,-2.014l0.001,-0.112l0.005,-0.123l0.008,-0.124l0.01,-0.122l0.014,-0.123l0.017,-0.122l0.019,-0.121l0.023,-0.12l0.025,-0.12l0.029,-0.119l0.031,-0.118l0.034,-0.117l0.037,-0.117l0.039,-0.115l0.043,-0.114l0.045,-0.113l0.048,-0.112l0.051,-0.111l0.054,-0.11l0.056,-0.108l0.058,-0.107l0.062,-0.106l0.064,-0.104l0.067,-0.103l0.069,-0.101l0.072,-0.099l0.074,-0.098l0.077,-0.096l0.079,-0.095l0.082,-0.092l0.084,-0.091l0.087,-0.089l0.089,-0.087l0.09,-0.084l0.093,-0.081l0.094,-0.08l0.096,-0.077l0.098,-0.074l0.1,-0.072l0.101,-0.069l0.103,-0.067l0.104,-0.064l0.106,-0.061l0.106,-0.059l0.109,-0.056l0.109,-0.054l0.111,-0.05l0.112,-0.048l0.113,-0.046l0.115,-0.042l0.115,-0.04l0.116,-0.037l0.118,-0.034l0.118,-0.031l0.119,-0.028l0.119,-0.026l0.121,-0.022l0.121,-0.02l0.122,-0.017l0.122,-0.013l0.123,-0.011l0.123,-0.008l0.124,-0.004l0.112,-0.002l2.014,0l0,7Zm-2.002,-5l-0.074,0.001l-0.075,0.003l-0.074,0.005l-0.073,0.006l-0.074,0.008l-0.073,0.01l-0.072,0.012l-0.073,0.013l-0.071,0.016l-0.072,0.017l-0.071,0.018l-0.07,0.021l-0.07,0.022l-0.069,0.024l-0.068,0.025l-0.068,0.028l-0.067,0.028l-0.067,0.031l-0.066,0.032l-0.065,0.033l-0.064,0.036l-0.063,0.037l-0.063,0.038l-0.061,0.04l-0.061,0.042l-0.06,0.043l-0.058,0.044l-0.058,0.046l-0.057,0.048l-0.055,0.049l-0.055,0.05l-0.053,0.052l-0.052,0.054l-0.05,0.054l-0.049,0.056l-0.048,0.056l-0.046,0.058l-0.045,0.059l-0.043,0.059l-0.041,0.061l-0.04,0.062l-0.039,0.062l-0.037,0.063l-0.035,0.065l-0.033,0.065l-0.033,0.065l-0.03,0.067l-0.029,0.067l-0.027,0.068l-0.025,0.068l-0.024,0.07l-0.022,0.069l-0.021,0.071l-0.019,0.071l-0.017,0.071l-0.015,0.072l-0.013,0.072l-0.012,0.073l-0.01,0.073l-0.008,0.073l-0.007,0.074l-0.004,0.074l-0.003,0.074l-0.001,0.074l0,0.002l3,0l0,-3l-0.002,0Z"/><path d="M14,10.983l1,-1l2,2l-2,1l-1,-2Z" style="fill:#fbc546;"/><path d="M20.01,12.165l-0.097,0.598l-5.807,2.904l-2.54,-5.079l3.434,-3.433l5.01,5.01Zm-6.01,-1.182l1,2l2,-1l-2,-2l-1,1Z"/></g></g></svg>