<?xml version="1.0" encoding="UTF-8" standalone="no"?><!DOCTYPE svg PUBLIC "-//W3C//DTD SVG 1.1//EN" "http://www.w3.org/Graphics/SVG/1.1/DTD/svg11.dtd"><svg width="100%" height="100%" viewBox="0 0 32 32" version="1.1" xmlns="http://www.w3.org/2000/svg" xmlns:xlink="http://www.w3.org/1999/xlink" xml:space="preserve" xmlns:serif="http://www.serif.com/" style="fill-rule:evenodd;clip-rule:evenodd;stroke-linejoin:round;stroke-miterlimit:2;"><rect id="open_mouth" x="0" y="0.008" width="32" height="32" style="fill:none;"/><clipPath id="_clip1"><rect x="0" y="0.008" width="32" height="32"/></clipPath><g clip-path="url(#_clip1)"><g id="outline"><path d="M16.206,2.01l0.206,0.004l0.205,0.006l0.205,0.009l0.204,0.012l0.203,0.014l0.203,0.017l0.201,0.019l0.202,0.022l0.2,0.024l0.2,0.026l0.199,0.03l0.198,0.031l0.198,0.034l0.197,0.037l0.195,0.038l0.195,0.042l0.195,0.043l0.193,0.046l0.192,0.048l0.192,0.051l0.19,0.052l0.19,0.056l0.188,0.057l0.188,0.06l0.186,0.061l0.186,0.064l0.184,0.067l0.184,0.068l0.182,0.071l0.181,0.073l0.181,0.074l0.179,0.078l0.178,0.079l0.176,0.081l0.176,0.083l0.174,0.085l0.173,0.088l0.172,0.089l0.171,0.092l0.169,0.093l0.169,0.095l0.167,0.098l0.165,0.099l0.164,0.101l0.163,0.103l0.162,0.105l0.16,0.107l0.159,0.109l0.157,0.11l0.157,0.113l0.154,0.114l0.153,0.116l0.152,0.118l0.15,0.119l0.149,0.122l0.148,0.123l0.145,0.125l0.145,0.126l0.143,0.128l0.141,0.13l0.139,0.132l0.138,0.133l0.137,0.135l0.135,0.136l0.133,0.138l0.131,0.14l0.13,0.141l0.128,0.143l0.127,0.144l0.125,0.146l0.123,0.147l0.121,0.149l0.12,0.15l0.117,0.152l0.116,0.153l0.115,0.155l0.112,0.156l0.111,0.157l0.108,0.159l0.107,0.16l0.105,0.162l0.103,0.163l0.101,0.164l0.1,0.166l0.097,0.167l0.095,0.168l0.094,0.169l0.091,0.171l0.09,0.172l0.087,0.173l0.085,0.175l0.083,0.175l0.082,0.177l0.079,0.178l0.077,0.179l0.075,0.18l0.072,0.181l0.071,0.183l0.069,0.183l0.066,0.185l0.064,0.185l0.062,0.187l0.059,0.187l0.058,0.189l0.055,0.189l0.053,0.191l0.05,0.191l0.048,0.192l0.046,0.194l0.044,0.194l0.041,0.195l0.039,0.196l0.036,0.197l0.034,0.197l0.032,0.198l0.029,0.199l0.027,0.2l0.024,0.201l0.022,0.201l0.019,0.202l0.016,0.202l0.015,0.204l0.011,0.204l0.009,0.204l0.007,0.205l0.004,0.206l0.001,0.2l0,1.013l-0.001,0.161l-0.003,0.167l-0.005,0.166l-0.008,0.167l-0.009,0.165l-0.012,0.165l-0.013,0.165l-0.016,0.164l-0.018,0.164l-0.019,0.162l-0.022,0.163l-0.024,0.162l-0.025,0.161l-0.028,0.16l-0.029,0.16l-0.032,0.159l-0.033,0.159l-0.036,0.157l-0.037,0.157l-0.039,0.157l-0.041,0.155l-0.043,0.155l-0.045,0.154l-0.047,0.153l-0.048,0.153l-0.05,0.151l-0.053,0.151l-0.053,0.15l-0.056,0.149l-0.057,0.148l-0.06,0.148l-0.06,0.146l-0.063,0.146l-0.064,0.144l-0.066,0.144l-0.068,0.142l-0.069,0.142l-0.071,0.141l-0.073,0.14l-0.074,0.138l-0.076,0.138l-0.077,0.137l-0.08,0.135l-0.08,0.135l-0.082,0.133l-0.084,0.133l-0.085,0.131l-0.087,0.13l-0.089,0.129l-0.089,0.128l-0.092,0.127l-0.093,0.126l-0.094,0.124l-0.096,0.123l-0.097,0.122l-0.098,0.121l-0.1,0.12l-0.102,0.119l-0.102,0.117l-0.104,0.116l-0.106,0.114l-0.107,0.114l-0.108,0.112l-0.11,0.111l-0.11,0.109l-0.113,0.108l-0.113,0.107l-0.115,0.106l-0.116,0.104l-0.117,0.103l-0.118,0.101l-0.12,0.1l-0.121,0.099l-0.122,0.097l-0.123,0.095l-0.125,0.095l-0.125,0.093l-0.127,0.091l-0.128,0.09l-0.129,0.088l-0.13,0.087l-0.132,0.085l-0.132,0.084l-0.134,0.082l-0.134,0.081l-0.136,0.079l-0.136,0.077l-0.138,0.076l-0.139,0.074l-0.139,0.073l-0.141,0.071l-0.142,0.069l-0.142,0.068l-0.144,0.066l-0.145,0.064l-0.145,0.063l-0.147,0.061l-0.147,0.059l-0.148,0.057l-0.149,0.056l-0.15,0.054l-0.151,0.052l-0.152,0.05l-0.152,0.049l-0.153,0.046l-0.154,0.045l-0.155,0.043l-0.156,0.041l-0.156,0.039l-0.157,0.037l-0.158,0.036l-0.158,0.033l-0.159,0.032l-0.16,0.029l-0.161,0.028l-0.161,0.026l-0.161,0.023l-0.163,0.022l-0.163,0.02l-0.163,0.017l-0.164,0.016l-0.165,0.014l-0.165,0.011l-0.166,0.01l-0.166,0.007l-0.166,0.005l-0.168,0.003l-0.161,0.001l-6.012,0l-0.161,-0.001l-0.168,-0.003l-0.166,-0.005l-0.166,-0.007l-0.166,-0.01l-0.165,-0.011l-0.165,-0.014l-0.164,-0.016l-0.163,-0.017l-0.163,-0.02l-0.163,-0.022l-0.161,-0.023l-0.161,-0.026l-0.161,-0.028l-0.16,-0.029l-0.159,-0.032l-0.158,-0.033l-0.158,-0.036l-0.157,-0.037l-0.156,-0.039l-0.156,-0.041l-0.155,-0.043l-0.154,-0.045l-0.153,-0.046l-0.153,-0.049l-0.151,-0.05l-0.151,-0.052l-0.15,-0.054l-0.149,-0.056l-0.148,-0.057l-0.147,-0.059l-0.147,-0.061l-0.145,-0.063l-0.145,-0.064l-0.143,-0.066l-0.143,-0.068l-0.142,-0.069l-0.141,-0.071l-0.139,-0.073l-0.139,-0.074l-0.138,-0.076l-0.136,-0.077l-0.136,-0.079l-0.135,-0.081l-0.133,-0.082l-0.132,-0.084l-0.132,-0.085l-0.13,-0.087l-0.129,-0.088l-0.128,-0.09l-0.127,-0.091l-0.125,-0.093l-0.125,-0.095l-0.123,-0.095l-0.122,-0.097l-0.121,-0.099l-0.12,-0.1l-0.118,-0.101l-0.117,-0.103l-0.116,-0.104l-0.115,-0.106l-0.113,-0.107l-0.113,-0.108l-0.11,-0.109l-0.11,-0.111l-0.108,-0.112l-0.107,-0.114l-0.105,-0.114l-0.105,-0.116l-0.102,-0.117l-0.102,-0.119l-0.1,-0.12l-0.098,-0.12l-0.097,-0.123l-0.096,-0.123l-0.094,-0.124l-0.093,-0.126l-0.092,-0.127l-0.089,-0.128l-0.089,-0.129l-0.087,-0.13l-0.085,-0.131l-0.083,-0.133l-0.083,-0.133l-0.08,-0.135l-0.079,-0.135l-0.078,-0.137l-0.076,-0.138l-0.074,-0.138l-0.073,-0.14l-0.071,-0.141l-0.069,-0.141l-0.068,-0.143l-0.066,-0.144l-0.064,-0.144l-0.063,-0.146l-0.06,-0.146l-0.06,-0.148l-0.057,-0.148l-0.056,-0.149l-0.053,-0.15l-0.053,-0.15l-0.05,-0.152l-0.048,-0.153l-0.047,-0.153l-0.045,-0.154l-0.043,-0.155l-0.041,-0.155l-0.039,-0.157l-0.037,-0.157l-0.035,-0.157l-0.034,-0.159l-0.031,-0.159l-0.03,-0.16l-0.028,-0.16l-0.025,-0.161l-0.024,-0.162l-0.022,-0.162l-0.019,-0.163l-0.018,-0.164l-0.016,-0.164l-0.013,-0.165l-0.012,-0.165l-0.009,-0.165l-0.008,-0.167l-0.005,-0.166l-0.003,-0.167l-0.001,-0.161l0,-1.013l0.001,-0.2l0.004,-0.206l0.007,-0.205l0.009,-0.204l0.011,-0.204l0.015,-0.204l0.016,-0.202l0.019,-0.202l0.022,-0.201l0.024,-0.201l0.027,-0.2l0.029,-0.199l0.032,-0.198l0.034,-0.198l0.036,-0.196l0.039,-0.196l0.041,-0.195l0.044,-0.194l0.046,-0.193l0.048,-0.193l0.05,-0.191l0.053,-0.191l0.055,-0.189l0.058,-0.189l0.059,-0.187l0.062,-0.187l0.064,-0.185l0.066,-0.185l0.069,-0.183l0.07,-0.183l0.073,-0.181l0.075,-0.18l0.077,-0.179l0.079,-0.178l0.081,-0.177l0.084,-0.175l0.085,-0.175l0.087,-0.173l0.09,-0.172l0.091,-0.171l0.094,-0.169l0.095,-0.168l0.097,-0.167l0.1,-0.166l0.101,-0.164l0.103,-0.163l0.105,-0.162l0.107,-0.16l0.108,-0.159l0.111,-0.157l0.112,-0.156l0.115,-0.155l0.116,-0.153l0.117,-0.152l0.12,-0.15l0.121,-0.149l0.123,-0.147l0.125,-0.146l0.127,-0.144l0.128,-0.143l0.13,-0.141l0.131,-0.14l0.133,-0.138l0.135,-0.136l0.137,-0.135l0.138,-0.133l0.139,-0.132l0.142,-0.13l0.142,-0.128l0.145,-0.126l0.145,-0.125l0.148,-0.123l0.148,-0.122l0.151,-0.119l0.152,-0.118l0.153,-0.116l0.154,-0.114l0.157,-0.113l0.157,-0.11l0.159,-0.109l0.16,-0.107l0.162,-0.105l0.163,-0.103l0.164,-0.101l0.166,-0.099l0.166,-0.098l0.169,-0.095l0.169,-0.093l0.171,-0.092l0.172,-0.089l0.173,-0.088l0.174,-0.085l0.176,-0.083l0.177,-0.081l0.177,-0.079l0.179,-0.078l0.181,-0.074l0.181,-0.073l0.182,-0.071l0.184,-0.068l0.184,-0.067l0.186,-0.064l0.186,-0.061l0.188,-0.06l0.188,-0.057l0.19,-0.055l0.19,-0.053l0.192,-0.051l0.192,-0.048l0.193,-0.046l0.195,-0.043l0.195,-0.042l0.195,-0.038l0.197,-0.037l0.198,-0.034l0.198,-0.031l0.199,-0.03l0.2,-0.026l0.2,-0.024l0.202,-0.022l0.201,-0.019l0.203,-0.017l0.203,-0.014l0.204,-0.012l0.205,-0.009l0.205,-0.006l0.206,-0.004l0.206,-0.002l0.206,0.002Zm-0.362,3.999l-0.155,0.003l-0.154,0.005l-0.154,0.007l-0.154,0.009l-0.152,0.01l-0.153,0.013l-0.151,0.014l-0.151,0.017l-0.151,0.018l-0.15,0.02l-0.149,0.022l-0.149,0.023l-0.148,0.026l-0.147,0.027l-0.147,0.029l-0.146,0.031l-0.145,0.033l-0.145,0.034l-0.143,0.036l-0.144,0.038l-0.142,0.039l-0.142,0.042l-0.141,0.043l-0.141,0.044l-0.139,0.046l-0.139,0.048l-0.138,0.05l-0.137,0.051l-0.137,0.053l-0.135,0.055l-0.135,0.056l-0.134,0.057l-0.134,0.059l-0.132,0.061l-0.131,0.063l-0.131,0.064l-0.13,0.065l-0.129,0.067l-0.128,0.069l-0.127,0.07l-0.126,0.071l-0.125,0.073l-0.124,0.074l-0.123,0.076l-0.122,0.078l-0.122,0.078l-0.12,0.081l-0.119,0.081l-0.118,0.083l-0.117,0.085l-0.117,0.085l-0.115,0.087l-0.114,0.089l-0.112,0.09l-0.112,0.091l-0.111,0.092l-0.109,0.094l-0.109,0.095l-0.107,0.096l-0.106,0.098l-0.105,0.099l-0.104,0.1l-0.102,0.101l-0.102,0.103l-0.1,0.103l-0.098,0.105l-0.098,0.106l-0.096,0.108l-0.095,0.108l-0.094,0.109l-0.093,0.111l-0.091,0.112l-0.089,0.113l-0.089,0.114l-0.087,0.115l-0.086,0.116l-0.084,0.117l-0.083,0.118l-0.082,0.119l-0.08,0.121l-0.079,0.121l-0.077,0.122l-0.076,0.123l-0.074,0.125l-0.073,0.125l-0.072,0.126l-0.07,0.127l-0.068,0.128l-0.067,0.129l-0.066,0.129l-0.064,0.131l-0.062,0.131l-0.061,0.133l-0.059,0.133l-0.058,0.134l-0.056,0.135l-0.054,0.136l-0.053,0.136l-0.051,0.137l-0.05,0.138l-0.048,0.139l-0.046,0.14l-0.045,0.14l-0.043,0.141l-0.041,0.142l-0.039,0.143l-0.038,0.143l-0.036,0.144l-0.035,0.145l-0.032,0.145l-0.031,0.146l-0.029,0.147l-0.027,0.147l-0.026,0.148l-0.024,0.148l-0.021,0.15l-0.02,0.149l-0.019,0.151l-0.016,0.151l-0.014,0.152l-0.013,0.152l-0.011,0.153l-0.008,0.153l-0.007,0.154l-0.005,0.155l-0.003,0.155l-0.001,0.162l0,0.987l0.001,0.123l0.002,0.117l0.004,0.116l0.005,0.115l0.006,0.115l0.008,0.115l0.01,0.114l0.011,0.114l0.012,0.113l0.013,0.113l0.015,0.113l0.017,0.112l0.018,0.111l0.019,0.111l0.02,0.11l0.022,0.11l0.023,0.11l0.024,0.109l0.026,0.108l0.027,0.108l0.029,0.107l0.029,0.107l0.031,0.107l0.032,0.105l0.034,0.106l0.034,0.104l0.036,0.104l0.038,0.104l0.038,0.103l0.04,0.102l0.04,0.102l0.042,0.101l0.044,0.1l0.044,0.1l0.046,0.1l0.046,0.098l0.048,0.098l0.05,0.097l0.05,0.097l0.051,0.096l0.053,0.095l0.053,0.095l0.055,0.094l0.056,0.093l0.057,0.092l0.058,0.092l0.059,0.091l0.06,0.09l0.061,0.089l0.062,0.089l0.064,0.088l0.064,0.087l0.065,0.086l0.067,0.086l0.067,0.084l0.068,0.084l0.07,0.083l0.07,0.083l0.071,0.081l0.073,0.08l0.073,0.08l0.074,0.079l0.075,0.077l0.076,0.077l0.077,0.076l0.078,0.075l0.078,0.074l0.08,0.074l0.081,0.072l0.081,0.071l0.082,0.071l0.083,0.069l0.084,0.068l0.085,0.068l0.085,0.066l0.086,0.065l0.087,0.065l0.088,0.063l0.089,0.062l0.089,0.061l0.091,0.061l0.091,0.059l0.091,0.058l0.093,0.057l0.093,0.055l0.094,0.055l0.094,0.054l0.095,0.052l0.096,0.052l0.097,0.05l0.097,0.049l0.098,0.048l0.099,0.047l0.099,0.045l0.1,0.045l0.1,0.043l0.101,0.042l0.102,0.041l0.103,0.039l0.103,0.039l0.103,0.037l0.104,0.036l0.105,0.035l0.105,0.033l0.106,0.032l0.106,0.031l0.107,0.03l0.107,0.028l0.108,0.027l0.109,0.026l0.109,0.024l0.109,0.023l0.11,0.022l0.11,0.021l0.111,0.019l0.112,0.018l0.112,0.016l0.112,0.015l0.113,0.014l0.113,0.012l0.114,0.011l0.114,0.009l0.115,0.008l0.115,0.007l0.116,0.005l0.116,0.003l0.116,0.003l0.123,0l5.988,0l0.123,0l0.116,-0.003l0.116,-0.003l0.116,-0.005l0.115,-0.007l0.115,-0.008l0.114,-0.009l0.114,-0.011l0.113,-0.012l0.113,-0.014l0.112,-0.015l0.112,-0.016l0.112,-0.018l0.111,-0.019l0.11,-0.021l0.11,-0.022l0.109,-0.023l0.109,-0.024l0.109,-0.026l0.108,-0.027l0.107,-0.028l0.107,-0.03l0.106,-0.031l0.106,-0.032l0.105,-0.033l0.105,-0.035l0.104,-0.036l0.104,-0.037l0.102,-0.039l0.103,-0.039l0.101,-0.041l0.102,-0.042l0.1,-0.043l0.1,-0.045l0.099,-0.045l0.099,-0.047l0.098,-0.048l0.097,-0.049l0.097,-0.05l0.096,-0.052l0.095,-0.052l0.094,-0.054l0.094,-0.055l0.093,-0.055l0.093,-0.057l0.091,-0.058l0.091,-0.059l0.091,-0.061l0.089,-0.061l0.089,-0.062l0.088,-0.063l0.087,-0.065l0.086,-0.065l0.085,-0.066l0.085,-0.068l0.084,-0.068l0.083,-0.069l0.082,-0.071l0.081,-0.071l0.081,-0.072l0.08,-0.074l0.078,-0.074l0.078,-0.075l0.077,-0.076l0.076,-0.077l0.075,-0.077l0.074,-0.079l0.073,-0.08l0.073,-0.08l0.071,-0.081l0.07,-0.083l0.07,-0.083l0.068,-0.083l0.067,-0.085l0.067,-0.086l0.065,-0.086l0.064,-0.087l0.064,-0.088l0.062,-0.089l0.061,-0.089l0.06,-0.09l0.059,-0.091l0.058,-0.092l0.057,-0.092l0.056,-0.093l0.055,-0.094l0.053,-0.095l0.053,-0.095l0.051,-0.096l0.05,-0.097l0.05,-0.097l0.047,-0.098l0.047,-0.099l0.046,-0.099l0.044,-0.1l0.044,-0.1l0.042,-0.101l0.04,-0.102l0.04,-0.102l0.038,-0.103l0.038,-0.104l0.036,-0.104l0.034,-0.104l0.034,-0.106l0.032,-0.105l0.031,-0.107l0.029,-0.107l0.029,-0.107l0.027,-0.108l0.026,-0.108l0.024,-0.109l0.023,-0.11l0.022,-0.11l0.02,-0.11l0.019,-0.111l0.018,-0.112l0.017,-0.111l0.015,-0.113l0.013,-0.113l0.012,-0.113l0.011,-0.114l0.01,-0.114l0.008,-0.115l0.006,-0.115l0.005,-0.115l0.004,-0.116l0.002,-0.117l0.001,-0.123l0,-0.987l-0.001,-0.162l-0.003,-0.155l-0.005,-0.155l-0.007,-0.154l-0.008,-0.153l-0.011,-0.153l-0.013,-0.152l-0.014,-0.152l-0.016,-0.151l-0.019,-0.151l-0.02,-0.149l-0.021,-0.15l-0.024,-0.148l-0.026,-0.148l-0.027,-0.148l-0.029,-0.146l-0.031,-0.146l-0.032,-0.146l-0.035,-0.144l-0.036,-0.144l-0.038,-0.143l-0.039,-0.143l-0.041,-0.142l-0.043,-0.141l-0.045,-0.14l-0.046,-0.14l-0.048,-0.139l-0.05,-0.138l-0.051,-0.137l-0.053,-0.136l-0.054,-0.136l-0.056,-0.135l-0.058,-0.134l-0.059,-0.133l-0.061,-0.133l-0.062,-0.131l-0.064,-0.131l-0.066,-0.129l-0.067,-0.129l-0.068,-0.128l-0.07,-0.127l-0.072,-0.126l-0.073,-0.125l-0.074,-0.125l-0.076,-0.123l-0.077,-0.122l-0.079,-0.121l-0.08,-0.121l-0.082,-0.119l-0.083,-0.118l-0.084,-0.117l-0.086,-0.116l-0.087,-0.115l-0.089,-0.114l-0.089,-0.113l-0.091,-0.112l-0.093,-0.111l-0.094,-0.109l-0.095,-0.109l-0.096,-0.107l-0.098,-0.106l-0.098,-0.105l-0.1,-0.103l-0.102,-0.103l-0.102,-0.101l-0.104,-0.1l-0.105,-0.099l-0.106,-0.098l-0.107,-0.096l-0.109,-0.095l-0.109,-0.094l-0.111,-0.092l-0.111,-0.091l-0.113,-0.09l-0.114,-0.089l-0.115,-0.087l-0.117,-0.085l-0.117,-0.085l-0.118,-0.083l-0.119,-0.081l-0.12,-0.081l-0.122,-0.078l-0.122,-0.078l-0.123,-0.076l-0.124,-0.074l-0.125,-0.073l-0.126,-0.071l-0.127,-0.07l-0.128,-0.069l-0.129,-0.067l-0.13,-0.065l-0.131,-0.064l-0.131,-0.063l-0.132,-0.061l-0.134,-0.059l-0.134,-0.057l-0.135,-0.056l-0.135,-0.055l-0.137,-0.053l-0.137,-0.051l-0.138,-0.05l-0.139,-0.048l-0.139,-0.046l-0.141,-0.044l-0.141,-0.043l-0.142,-0.042l-0.142,-0.039l-0.144,-0.038l-0.144,-0.036l-0.144,-0.034l-0.145,-0.033l-0.146,-0.031l-0.147,-0.029l-0.147,-0.027l-0.148,-0.026l-0.149,-0.023l-0.149,-0.022l-0.15,-0.02l-0.151,-0.018l-0.151,-0.017l-0.151,-0.014l-0.153,-0.013l-0.152,-0.01l-0.154,-0.009l-0.154,-0.007l-0.154,-0.005l-0.155,-0.003l-0.156,-0.001l-0.156,0.001Z"/></g><g id="emoji"><path d="M30,18.008c0,-7.732 -6.268,-14 -14,-14c0,0 0,0 0,0c-7.732,0 -14,6.268 -14,14c0,0.335 0,0.668 0,1c0,6.075 4.925,11 11,11c1.972,0 4.028,0 6,0c6.075,0 11,-4.925 11,-11c0,-0.332 0,-0.665 0,-1Z" style="fill:#fbc546;"/><path d="M12.586,24.094c-0.372,-0.607 -0.586,-1.321 -0.586,-2.086l0,0c0,-2.209 1.791,-4 4,-4l0,0c2.209,0 4,1.791 4,4l0,0c0,0.765 -0.214,1.479 -0.586,2.086c-0.977,-0.691 -5.851,-0.691 -6.828,0Z" style="fill:#722245;"/><path d="M12.586,24.094c0.977,-0.691 2.163,-1.086 3.414,-1.086c0,0 0,0 0,0c1.251,0 2.437,0.395 3.414,1.086c-0.703,1.148 -1.969,1.914 -3.414,1.914l0,0c-1.445,0 -2.711,-0.766 -3.414,-1.914Z" style="fill:#ca3b8f;"/><path d="M11,12.508c0,-0.828 -0.672,-1.5 -1.5,-1.5c-0.828,0 -1.5,0.672 -1.5,1.5c0,0.917 0,2.084 0,3c0,0.829 0.672,1.5 1.5,1.5c0.828,0 1.5,-0.671 1.5,-1.5c0,-0.916 0,-2.083 0,-3Z"/><path d="M24,12.506c0,-0.397 -0.158,-0.778 -0.439,-1.059c-0.281,-0.281 -0.662,-0.439 -1.059,-0.439c-0.001,0 -0.003,0 -0.004,0c-0.397,0 -0.778,0.158 -1.059,0.439c-0.281,0.281 -0.439,0.662 -0.439,1.059c0,0.917 0,2.085 0,3.002c0,0.829 0.672,1.5 1.5,1.5c0.828,0 1.5,-0.671 1.5,-1.5c0,-0.917 0,-2.085 0,-3.002Z"/></g></g></svg>