<?xml version="1.0" encoding="UTF-8" standalone="no"?><!DOCTYPE svg PUBLIC "-//W3C//DTD SVG 1.1//EN" "http://www.w3.org/Graphics/SVG/1.1/DTD/svg11.dtd"><svg width="100%" height="100%" viewBox="0 0 32 32" version="1.1" xmlns="http://www.w3.org/2000/svg" xmlns:xlink="http://www.w3.org/1999/xlink" xml:space="preserve" xmlns:serif="http://www.serif.com/" style="fill-rule:evenodd;clip-rule:evenodd;stroke-linejoin:round;stroke-miterlimit:2;"><rect id="pleading" x="0" y="0.017" width="32" height="32" style="fill:none;"/><clipPath id="_clip1"><rect x="0" y="0.017" width="32" height="32"/></clipPath><g clip-path="url(#_clip1)"><g id="outline"><path d="M16.199,0.018l0.198,0.004l0.198,0.006l0.198,0.008l0.198,0.011l0.197,0.014l0.197,0.016l0.196,0.018l0.196,0.021l0.196,0.023l0.195,0.025l0.195,0.028l0.194,0.03l0.193,0.033l0.194,0.035l0.192,0.037l0.192,0.04l0.191,0.041l0.191,0.045l0.19,0.046l0.189,0.049l0.189,0.051l0.188,0.054l0.187,0.055l0.187,0.058l0.186,0.06l0.185,0.063l0.184,0.065l0.183,0.067l0.183,0.069l0.181,0.071l0.181,0.074l0.18,0.075l0.179,0.078l0.178,0.08l0.177,0.083l0.176,0.084l0.174,0.087l0.174,0.089l0.173,0.091l0.172,0.093l0.171,0.095l0.169,0.097l0.169,0.099l0.167,0.102l0.166,0.104l0.165,0.105l0.164,0.108l0.162,0.11l0.162,0.112l0.159,0.113l0.159,0.116l0.157,0.118l0.156,0.12l0.155,0.122l0.153,0.124l0.152,0.126l0.15,0.128l0.149,0.13l0.148,0.132l0.146,0.134l0.144,0.136l0.143,0.137l0.142,0.14l0.139,0.141l0.138,0.143l0.136,0.145l0.134,0.146l0.132,0.147l0.13,0.149l0.127,0.151l0.127,0.151l0.124,0.154l0.121,0.154l0.12,0.156l0.118,0.158l0.116,0.158l0.114,0.16l0.112,0.161l0.11,0.163l0.108,0.164l0.105,0.165l0.104,0.166l0.101,0.167l0.1,0.168l0.097,0.17l0.095,0.171l0.093,0.171l0.091,0.173l0.089,0.174l0.086,0.175l0.085,0.176l0.082,0.177l0.08,0.178l0.078,0.179l0.076,0.18l0.074,0.181l0.071,0.181l0.069,0.182l0.067,0.184l0.065,0.184l0.062,0.185l0.06,0.186l0.058,0.186l0.056,0.188l0.053,0.187l0.052,0.189l0.048,0.19l0.047,0.19l0.044,0.19l0.042,0.192l0.04,0.192l0.037,0.192l0.035,0.193l0.032,0.194l0.031,0.194l0.028,0.195l0.025,0.195l0.023,0.195l0.021,0.196l0.018,0.197l0.016,0.197l0.013,0.197l0.011,0.197l0.009,0.198l0.006,0.198l0.004,0.199l0.001,0.193l0,2.012l-0.001,0.174l-0.004,0.18l-0.005,0.18l-0.008,0.178l-0.01,0.179l-0.013,0.178l-0.014,0.177l-0.017,0.177l-0.019,0.176l-0.021,0.175l-0.024,0.175l-0.025,0.174l-0.028,0.174l-0.03,0.173l-0.031,0.172l-0.034,0.171l-0.036,0.171l-0.038,0.169l-0.041,0.17l-0.042,0.168l-0.044,0.168l-0.046,0.166l-0.049,0.166l-0.05,0.165l-0.052,0.164l-0.054,0.163l-0.056,0.163l-0.058,0.162l-0.06,0.16l-0.062,0.16l-0.063,0.158l-0.066,0.158l-0.067,0.156l-0.07,0.156l-0.071,0.155l-0.072,0.153l-0.075,0.153l-0.077,0.152l-0.078,0.15l-0.08,0.149l-0.081,0.148l-0.084,0.148l-0.085,0.146l-0.087,0.145l-0.089,0.143l-0.09,0.143l-0.092,0.141l-0.093,0.141l-0.095,0.139l-0.097,0.137l-0.098,0.137l-0.1,0.135l-0.102,0.134l-0.103,0.133l-0.104,0.132l-0.107,0.13l-0.107,0.129l-0.11,0.127l-0.11,0.127l-0.112,0.124l-0.114,0.124l-0.115,0.122l-0.116,0.121l-0.119,0.119l-0.119,0.118l-0.121,0.117l-0.122,0.115l-0.123,0.113l-0.125,0.113l-0.126,0.11l-0.128,0.109l-0.129,0.108l-0.13,0.106l-0.132,0.105l-0.132,0.103l-0.134,0.101l-0.136,0.1l-0.136,0.099l-0.138,0.096l-0.139,0.096l-0.14,0.093l-0.142,0.092l-0.142,0.09l-0.144,0.089l-0.145,0.087l-0.146,0.085l-0.147,0.083l-0.148,0.082l-0.15,0.08l-0.15,0.078l-0.152,0.077l-0.152,0.074l-0.154,0.073l-0.155,0.071l-0.155,0.069l-0.157,0.068l-0.158,0.065l-0.158,0.064l-0.16,0.062l-0.16,0.06l-0.162,0.058l-0.162,0.056l-0.163,0.054l-0.165,0.052l-0.165,0.05l-0.166,0.048l-0.166,0.047l-0.168,0.044l-0.168,0.042l-0.169,0.04l-0.17,0.038l-0.171,0.036l-0.171,0.034l-0.172,0.032l-0.173,0.03l-0.173,0.028l-0.175,0.025l-0.174,0.023l-0.176,0.022l-0.176,0.019l-0.177,0.016l-0.177,0.015l-0.178,0.012l-0.178,0.011l-0.179,0.007l-0.18,0.006l-0.18,0.004l-0.174,0.001l-4.012,0l-0.174,-0.001l-0.18,-0.004l-0.18,-0.006l-0.179,-0.007l-0.178,-0.011l-0.178,-0.012l-0.177,-0.015l-0.177,-0.016l-0.176,-0.019l-0.176,-0.022l-0.174,-0.023l-0.175,-0.025l-0.173,-0.028l-0.173,-0.03l-0.172,-0.032l-0.171,-0.034l-0.171,-0.036l-0.17,-0.038l-0.169,-0.04l-0.168,-0.042l-0.168,-0.044l-0.167,-0.047l-0.165,-0.048l-0.165,-0.05l-0.165,-0.052l-0.163,-0.054l-0.162,-0.056l-0.162,-0.058l-0.16,-0.06l-0.16,-0.062l-0.158,-0.064l-0.158,-0.065l-0.157,-0.068l-0.155,-0.069l-0.155,-0.071l-0.154,-0.073l-0.152,-0.074l-0.152,-0.077l-0.15,-0.078l-0.15,-0.08l-0.148,-0.082l-0.147,-0.083l-0.146,-0.086l-0.145,-0.086l-0.144,-0.089l-0.142,-0.09l-0.142,-0.092l-0.14,-0.093l-0.139,-0.096l-0.138,-0.096l-0.136,-0.099l-0.136,-0.1l-0.134,-0.101l-0.132,-0.103l-0.132,-0.105l-0.13,-0.106l-0.129,-0.108l-0.128,-0.109l-0.126,-0.11l-0.125,-0.113l-0.123,-0.113l-0.122,-0.115l-0.121,-0.117l-0.12,-0.118l-0.117,-0.119l-0.117,-0.121l-0.115,-0.122l-0.114,-0.124l-0.112,-0.124l-0.11,-0.127l-0.11,-0.127l-0.107,-0.129l-0.107,-0.13l-0.104,-0.132l-0.103,-0.133l-0.102,-0.134l-0.1,-0.135l-0.098,-0.137l-0.097,-0.137l-0.095,-0.14l-0.093,-0.14l-0.092,-0.141l-0.09,-0.143l-0.089,-0.143l-0.087,-0.145l-0.085,-0.146l-0.083,-0.147l-0.082,-0.149l-0.08,-0.149l-0.078,-0.15l-0.077,-0.152l-0.074,-0.153l-0.073,-0.153l-0.071,-0.155l-0.07,-0.156l-0.067,-0.156l-0.066,-0.158l-0.063,-0.158l-0.062,-0.16l-0.06,-0.161l-0.058,-0.161l-0.056,-0.163l-0.054,-0.163l-0.052,-0.164l-0.051,-0.165l-0.048,-0.166l-0.046,-0.166l-0.044,-0.168l-0.042,-0.168l-0.04,-0.169l-0.039,-0.17l-0.036,-0.171l-0.034,-0.171l-0.031,-0.173l-0.03,-0.172l-0.028,-0.174l-0.025,-0.174l-0.024,-0.175l-0.021,-0.175l-0.019,-0.176l-0.017,-0.177l-0.014,-0.177l-0.013,-0.178l-0.01,-0.178l-0.008,-0.18l-0.005,-0.179l-0.004,-0.18l-0.001,-0.174l0,-2.013l0.001,-0.2l0.004,-0.205l0.007,-0.205l0.009,-0.205l0.011,-0.204l0.015,-0.203l0.016,-0.203l0.019,-0.202l0.022,-0.201l0.024,-0.201l0.027,-0.199l0.029,-0.199l0.032,-0.199l0.034,-0.197l0.036,-0.197l0.039,-0.196l0.041,-0.195l0.044,-0.194l0.046,-0.193l0.048,-0.192l0.05,-0.192l0.053,-0.191l0.055,-0.189l0.058,-0.188l0.059,-0.188l0.062,-0.187l0.064,-0.185l0.066,-0.184l0.069,-0.184l0.071,-0.183l0.072,-0.18l0.075,-0.181l0.077,-0.179l0.079,-0.178l0.082,-0.177l0.083,-0.175l0.085,-0.174l0.088,-0.174l0.089,-0.172l0.091,-0.17l0.094,-0.17l0.095,-0.168l0.097,-0.167l0.1,-0.165l0.101,-0.165l0.103,-0.163l0.105,-0.161l0.107,-0.16l0.108,-0.159l0.111,-0.158l0.112,-0.156l0.115,-0.154l0.116,-0.154l0.118,-0.152l0.119,-0.15l0.121,-0.149l0.123,-0.147l0.125,-0.146l0.127,-0.144l0.128,-0.143l0.13,-0.141l0.131,-0.14l0.133,-0.138l0.135,-0.136l0.137,-0.135l0.138,-0.133l0.139,-0.132l0.141,-0.129l0.143,-0.129l0.145,-0.126l0.145,-0.125l0.148,-0.123l0.148,-0.121l0.151,-0.12l0.152,-0.118l0.153,-0.116l0.154,-0.114l0.156,-0.112l0.158,-0.111l0.159,-0.109l0.16,-0.106l0.162,-0.105l0.163,-0.104l0.164,-0.101l0.165,-0.099l0.167,-0.097l0.169,-0.096l0.169,-0.093l0.171,-0.091l0.172,-0.09l0.173,-0.087l0.174,-0.086l0.176,-0.083l0.177,-0.081l0.177,-0.079l0.179,-0.077l0.181,-0.075l0.181,-0.073l0.182,-0.07l0.184,-0.069l0.184,-0.066l0.186,-0.064l0.186,-0.062l0.188,-0.06l0.188,-0.057l0.19,-0.055l0.19,-0.053l0.192,-0.051l0.192,-0.048l0.193,-0.046l0.195,-0.043l0.195,-0.041l0.195,-0.039l0.197,-0.037l0.198,-0.034l0.198,-0.031l0.199,-0.029l0.2,-0.027l0.2,-0.024l0.202,-0.022l0.201,-0.019l0.203,-0.017l0.203,-0.014l0.204,-0.012l0.205,-0.009l0.205,-0.006l0.206,-0.004l0.206,-0.001l0.199,0.001Zm-0.355,4l-0.155,0.003l-0.154,0.005l-0.154,0.006l-0.154,0.009l-0.152,0.011l-0.153,0.012l-0.151,0.015l-0.151,0.016l-0.151,0.018l-0.15,0.02l-0.149,0.022l-0.149,0.024l-0.148,0.025l-0.147,0.028l-0.147,0.029l-0.146,0.03l-0.145,0.033l-0.144,0.034l-0.144,0.036l-0.144,0.038l-0.142,0.04l-0.142,0.041l-0.141,0.043l-0.141,0.045l-0.139,0.046l-0.139,0.048l-0.138,0.049l-0.137,0.052l-0.137,0.052l-0.135,0.055l-0.135,0.056l-0.134,0.058l-0.134,0.059l-0.132,0.061l-0.131,0.062l-0.131,0.064l-0.13,0.065l-0.129,0.067l-0.128,0.069l-0.127,0.07l-0.126,0.071l-0.125,0.073l-0.124,0.075l-0.123,0.076l-0.122,0.077l-0.122,0.079l-0.12,0.08l-0.119,0.082l-0.118,0.083l-0.117,0.084l-0.117,0.086l-0.115,0.087l-0.114,0.088l-0.112,0.09l-0.112,0.091l-0.111,0.093l-0.109,0.093l-0.109,0.095l-0.107,0.097l-0.106,0.097l-0.105,0.099l-0.104,0.1l-0.102,0.101l-0.102,0.103l-0.1,0.104l-0.098,0.105l-0.098,0.106l-0.096,0.107l-0.095,0.108l-0.094,0.11l-0.093,0.11l-0.091,0.112l-0.09,0.113l-0.088,0.114l-0.087,0.115l-0.086,0.116l-0.084,0.118l-0.083,0.118l-0.082,0.119l-0.08,0.12l-0.079,0.121l-0.077,0.122l-0.076,0.124l-0.074,0.124l-0.073,0.125l-0.072,0.126l-0.07,0.127l-0.068,0.128l-0.067,0.129l-0.066,0.13l-0.064,0.13l-0.062,0.132l-0.061,0.132l-0.059,0.133l-0.058,0.134l-0.056,0.135l-0.054,0.136l-0.053,0.136l-0.051,0.138l-0.05,0.138l-0.048,0.139l-0.046,0.139l-0.045,0.14l-0.043,0.142l-0.041,0.142l-0.039,0.142l-0.038,0.143l-0.036,0.144l-0.035,0.145l-0.032,0.145l-0.031,0.146l-0.029,0.147l-0.027,0.147l-0.026,0.148l-0.024,0.149l-0.021,0.149l-0.02,0.15l-0.019,0.15l-0.016,0.151l-0.014,0.152l-0.013,0.152l-0.011,0.153l-0.008,0.154l-0.007,0.154l-0.005,0.154l-0.003,0.155l-0.001,0.162l0,1.987l0.001,0.136l0.002,0.13l0.004,0.129l0.006,0.128l0.007,0.128l0.009,0.127l0.011,0.127l0.012,0.127l0.013,0.125l0.016,0.126l0.016,0.125l0.018,0.124l0.02,0.124l0.021,0.123l0.023,0.123l0.024,0.122l0.026,0.122l0.027,0.121l0.029,0.12l0.03,0.12l0.031,0.12l0.033,0.119l0.035,0.118l0.035,0.117l0.037,0.117l0.039,0.116l0.04,0.116l0.041,0.115l0.043,0.114l0.044,0.114l0.045,0.113l0.047,0.113l0.048,0.111l0.049,0.111l0.051,0.11l0.052,0.11l0.053,0.109l0.055,0.108l0.056,0.107l0.057,0.107l0.058,0.106l0.06,0.105l0.06,0.104l0.063,0.104l0.063,0.102l0.064,0.102l0.066,0.101l0.067,0.101l0.068,0.099l0.069,0.098l0.07,0.098l0.072,0.097l0.072,0.095l0.074,0.095l0.075,0.095l0.076,0.093l0.077,0.092l0.078,0.091l0.079,0.091l0.08,0.089l0.082,0.088l0.082,0.088l0.083,0.086l0.085,0.086l0.085,0.084l0.087,0.084l0.087,0.082l0.089,0.081l0.089,0.081l0.09,0.079l0.092,0.078l0.092,0.077l0.093,0.076l0.094,0.075l0.095,0.074l0.096,0.072l0.097,0.072l0.097,0.07l0.099,0.069l0.099,0.068l0.1,0.067l0.102,0.066l0.101,0.064l0.103,0.063l0.104,0.062l0.104,0.061l0.105,0.06l0.106,0.058l0.106,0.057l0.108,0.056l0.108,0.054l0.109,0.054l0.109,0.052l0.11,0.05l0.111,0.05l0.112,0.048l0.113,0.046l0.112,0.046l0.114,0.044l0.115,0.042l0.115,0.042l0.115,0.04l0.117,0.038l0.117,0.037l0.117,0.036l0.118,0.035l0.119,0.032l0.119,0.032l0.12,0.03l0.121,0.029l0.121,0.027l0.121,0.025l0.123,0.025l0.123,0.022l0.123,0.022l0.124,0.019l0.124,0.019l0.125,0.016l0.125,0.015l0.126,0.014l0.127,0.012l0.126,0.01l0.128,0.009l0.128,0.008l0.128,0.005l0.129,0.004l0.129,0.003l0.136,0.001l3.988,0l0.136,-0.001l0.129,-0.003l0.129,-0.004l0.128,-0.005l0.128,-0.008l0.128,-0.009l0.127,-0.01l0.126,-0.012l0.126,-0.014l0.125,-0.015l0.125,-0.016l0.124,-0.019l0.124,-0.019l0.123,-0.022l0.123,-0.022l0.122,-0.025l0.122,-0.025l0.121,-0.027l0.121,-0.029l0.12,-0.03l0.119,-0.032l0.119,-0.033l0.118,-0.034l0.117,-0.036l0.117,-0.037l0.117,-0.038l0.115,-0.04l0.115,-0.042l0.115,-0.042l0.113,-0.044l0.114,-0.046l0.112,-0.046l0.111,-0.048l0.112,-0.05l0.11,-0.05l0.109,-0.052l0.109,-0.054l0.108,-0.054l0.108,-0.056l0.106,-0.057l0.106,-0.058l0.105,-0.06l0.104,-0.061l0.104,-0.062l0.103,-0.063l0.101,-0.065l0.101,-0.065l0.101,-0.067l0.099,-0.068l0.099,-0.069l0.097,-0.07l0.097,-0.072l0.096,-0.073l0.095,-0.073l0.094,-0.075l0.093,-0.076l0.092,-0.077l0.092,-0.078l0.09,-0.079l0.089,-0.081l0.089,-0.081l0.087,-0.082l0.087,-0.084l0.085,-0.084l0.084,-0.086l0.084,-0.086l0.082,-0.088l0.082,-0.088l0.08,-0.089l0.079,-0.091l0.078,-0.091l0.077,-0.092l0.076,-0.093l0.075,-0.095l0.074,-0.094l0.072,-0.096l0.072,-0.097l0.07,-0.098l0.069,-0.098l0.068,-0.1l0.067,-0.1l0.066,-0.101l0.064,-0.102l0.063,-0.102l0.063,-0.104l0.06,-0.104l0.06,-0.105l0.058,-0.106l0.057,-0.107l0.056,-0.107l0.055,-0.108l0.053,-0.109l0.052,-0.11l0.051,-0.11l0.049,-0.111l0.048,-0.111l0.047,-0.113l0.045,-0.113l0.044,-0.114l0.043,-0.114l0.041,-0.115l0.04,-0.116l0.039,-0.116l0.037,-0.117l0.035,-0.117l0.035,-0.119l0.033,-0.118l0.031,-0.12l0.03,-0.12l0.029,-0.12l0.027,-0.121l0.026,-0.122l0.024,-0.122l0.023,-0.123l0.021,-0.123l0.02,-0.124l0.018,-0.124l0.017,-0.125l0.015,-0.125l0.013,-0.126l0.012,-0.127l0.011,-0.127l0.009,-0.127l0.007,-0.128l0.006,-0.129l0.004,-0.128l0.002,-0.129l0.001,-0.136l0,-1.988l-0.001,-0.156l-0.003,-0.148l-0.004,-0.149l-0.007,-0.148l-0.008,-0.148l-0.01,-0.149l-0.012,-0.147l-0.014,-0.147l-0.015,-0.147l-0.018,-0.147l-0.019,-0.146l-0.021,-0.146l-0.022,-0.146l-0.025,-0.145l-0.026,-0.145l-0.028,-0.144l-0.029,-0.144l-0.032,-0.144l-0.033,-0.143l-0.035,-0.142l-0.037,-0.142l-0.038,-0.142l-0.04,-0.141l-0.042,-0.14l-0.043,-0.14l-0.045,-0.14l-0.047,-0.138l-0.049,-0.138l-0.05,-0.138l-0.052,-0.137l-0.053,-0.136l-0.055,-0.135l-0.057,-0.135l-0.059,-0.135l-0.06,-0.133l-0.062,-0.133l-0.063,-0.132l-0.065,-0.131l-0.067,-0.13l-0.068,-0.13l-0.07,-0.129l-0.071,-0.128l-0.073,-0.127l-0.074,-0.126l-0.076,-0.126l-0.078,-0.125l-0.079,-0.123l-0.081,-0.123l-0.082,-0.122l-0.084,-0.121l-0.086,-0.12l-0.087,-0.119l-0.088,-0.118l-0.09,-0.116l-0.092,-0.116l-0.093,-0.115l-0.094,-0.114l-0.096,-0.113l-0.097,-0.112l-0.099,-0.11l-0.101,-0.11l-0.102,-0.108l-0.103,-0.107l-0.105,-0.107l-0.106,-0.104l-0.107,-0.104l-0.109,-0.102l-0.109,-0.1l-0.111,-0.099l-0.111,-0.097l-0.113,-0.096l-0.114,-0.095l-0.115,-0.093l-0.116,-0.091l-0.117,-0.09l-0.118,-0.089l-0.119,-0.087l-0.12,-0.085l-0.12,-0.084l-0.122,-0.082l-0.123,-0.081l-0.124,-0.079l-0.124,-0.078l-0.126,-0.076l-0.126,-0.074l-0.127,-0.073l-0.128,-0.072l-0.129,-0.07l-0.13,-0.068l-0.13,-0.066l-0.132,-0.065l-0.132,-0.064l-0.132,-0.061l-0.134,-0.06l-0.134,-0.059l-0.135,-0.057l-0.135,-0.055l-0.137,-0.054l-0.137,-0.051l-0.137,-0.051l-0.138,-0.048l-0.139,-0.047l-0.139,-0.045l-0.14,-0.044l-0.14,-0.041l-0.141,-0.04l-0.142,-0.039l-0.142,-0.036l-0.143,-0.035l-0.143,-0.033l-0.143,-0.032l-0.144,-0.03l-0.144,-0.028l-0.145,-0.026l-0.145,-0.024l-0.146,-0.023l-0.146,-0.021l-0.146,-0.019l-0.147,-0.017l-0.147,-0.016l-0.147,-0.013l-0.148,-0.012l-0.148,-0.01l-0.148,-0.009l-0.148,-0.006l-0.149,-0.005l-0.149,-0.002l-0.149,-0.001l-0.156,0.001Z"/></g><g id="emoji"><path d="M30,16.017c0,-3.713 -1.475,-7.274 -4.101,-9.9c-2.625,-2.625 -6.186,-4.1 -9.899,-4.1l0,0c-7.732,0 -14,6.268 -14,14l0,2c0,6.627 5.373,12 12,12l4,0c6.627,0 12,-5.373 12,-12l0,-2Z" style="fill:#fbc546;"/><g><circle cx="8" cy="13.017" r="5" style="fill:#fff;"/><circle cx="24" cy="13.017" r="5" style="fill:#fff;"/></g><circle cx="8" cy="13.017" r="4"/><circle cx="24" cy="13.017" r="4"/><g><circle cx="7" cy="12.017" r="2" style="fill:#4d4d4d;"/><circle cx="23" cy="12.017" r="2" style="fill:#4d4d4d;"/></g><path d="M20.182,19.022l0.103,0.006l0.101,0.009l0.101,0.012l0.101,0.014l0.099,0.016l0.099,0.019l0.098,0.022l0.097,0.023l0.096,0.026l0.095,0.029l0.095,0.03l0.093,0.033l0.092,0.035l0.091,0.037l0.09,0.04l0.088,0.041l0.088,0.043l0.086,0.046l0.085,0.047l0.083,0.05l0.083,0.051l0.081,0.053l0.079,0.056l0.078,0.057l0.077,0.058l0.075,0.061l0.074,0.062l0.072,0.064l0.071,0.066l0.069,0.067l0.067,0.069l0.066,0.071l0.064,0.072l0.062,0.073l0.06,0.076l0.059,0.076l0.057,0.078l0.055,0.08l0.054,0.081l0.051,0.082l0.049,0.084l0.048,0.085l0.045,0.086l0.044,0.087l0.041,0.089l0.039,0.09l0.038,0.091l0.035,0.092l0.032,0.093l0.031,0.094l0.028,0.096l0.026,0.096l0.024,0.097l0.021,0.097l0.019,0.099l0.017,0.1l0.014,0.1l0.011,0.101l0.009,0.102l0.007,0.102l0.004,0.103l0.001,0.097l0,0.983l-0.003,0.074l-0.008,0.075l-0.014,0.073l-0.019,0.072l-0.025,0.071l-0.03,0.069l-0.035,0.066l-0.04,0.063l-0.044,0.06l-0.049,0.057l-0.053,0.053l-0.057,0.049l-0.06,0.044l-0.063,0.04l-0.066,0.035l-0.069,0.03l-0.07,0.024l-0.072,0.02l-0.074,0.014l-0.074,0.008l-0.075,0.003l-0.075,-0.003l-0.074,-0.008l-0.074,-0.014l-0.072,-0.02l-0.07,-0.024l-0.069,-0.03l-0.066,-0.035l-0.063,-0.04l-0.061,-0.044l-0.056,-0.049l-0.053,-0.053l-0.049,-0.057l-0.044,-0.06l-0.04,-0.063l-0.035,-0.066l-0.03,-0.069l-0.025,-0.071l-0.019,-0.072l-0.014,-0.073l-0.008,-0.075l-0.003,-0.074l0,-0.97l-0.001,-0.059l-0.002,-0.053l-0.003,-0.051l-0.005,-0.052l-0.005,-0.051l-0.007,-0.05l-0.009,-0.05l-0.009,-0.049l-0.011,-0.049l-0.012,-0.049l-0.013,-0.048l-0.014,-0.048l-0.015,-0.047l-0.017,-0.046l-0.017,-0.047l-0.019,-0.045l-0.019,-0.045l-0.021,-0.044l-0.022,-0.044l-0.023,-0.043l-0.024,-0.043l-0.025,-0.042l-0.025,-0.042l-0.027,-0.04l-0.028,-0.04l-0.029,-0.04l-0.029,-0.038l-0.031,-0.038l-0.031,-0.038l-0.033,-0.036l-0.033,-0.036l-0.034,-0.035l-0.035,-0.034l-0.035,-0.033l-0.037,-0.032l-0.037,-0.031l-0.038,-0.031l-0.039,-0.03l-0.039,-0.028l-0.04,-0.028l-0.041,-0.027l-0.041,-0.026l-0.042,-0.025l-0.043,-0.024l-0.043,-0.022l-0.044,-0.022l-0.044,-0.021l-0.045,-0.02l-0.046,-0.018l-0.046,-0.018l-0.046,-0.016l-0.048,-0.015l-0.047,-0.015l-0.048,-0.013l-0.049,-0.011l-0.049,-0.011l-0.049,-0.01l-0.05,-0.008l-0.051,-0.007l-0.051,-0.006l-0.051,-0.004l-0.052,-0.004l-0.052,-0.002l-0.059,0l-0.05,0l-0.042,0l-0.037,0.001l-0.038,0.002l-0.037,0.002l-0.037,0.003l-0.037,0.004l-0.037,0.005l-0.037,0.005l-0.036,0.005l-0.037,0.007l-0.036,0.007l-0.037,0.008l-0.036,0.008l-0.036,0.009l-0.035,0.01l-0.036,0.011l-0.035,0.011l-0.035,0.011l-0.035,0.013l-0.035,0.013l-0.035,0.013l-0.034,0.015l-0.034,0.015l-0.034,0.015l-0.033,0.016l-0.033,0.017l-0.033,0.017l-0.033,0.018l-0.032,0.019l-0.032,0.019l-0.032,0.02l-0.035,0.023l-2.789,1.86l-2.789,-1.86l-0.035,-0.023l-0.032,-0.02l-0.032,-0.019l-0.032,-0.019l-0.033,-0.018l-0.033,-0.017l-0.033,-0.017l-0.033,-0.016l-0.034,-0.016l-0.034,-0.014l-0.034,-0.015l-0.035,-0.013l-0.034,-0.013l-0.036,-0.013l-0.035,-0.011l-0.035,-0.011l-0.036,-0.011l-0.035,-0.01l-0.036,-0.009l-0.036,-0.008l-0.037,-0.008l-0.036,-0.007l-0.037,-0.007l-0.036,-0.005l-0.037,-0.005l-0.037,-0.005l-0.037,-0.004l-0.037,-0.003l-0.037,-0.002l-0.038,-0.002l-0.037,-0.001l-0.042,0l-0.05,0l-0.059,0l-0.052,0.002l-0.052,0.004l-0.051,0.004l-0.051,0.006l-0.051,0.007l-0.05,0.008l-0.049,0.01l-0.049,0.011l-0.049,0.011l-0.048,0.013l-0.047,0.015l-0.047,0.015l-0.047,0.016l-0.046,0.018l-0.046,0.018l-0.045,0.02l-0.044,0.021l-0.044,0.022l-0.043,0.022l-0.043,0.024l-0.042,0.025l-0.041,0.026l-0.041,0.027l-0.04,0.028l-0.039,0.028l-0.039,0.03l-0.038,0.03l-0.037,0.032l-0.037,0.032l-0.035,0.033l-0.035,0.034l-0.034,0.035l-0.033,0.036l-0.033,0.036l-0.031,0.037l-0.031,0.039l-0.029,0.038l-0.029,0.04l-0.028,0.04l-0.027,0.04l-0.026,0.042l-0.024,0.042l-0.024,0.043l-0.023,0.043l-0.022,0.043l-0.021,0.045l-0.019,0.045l-0.019,0.046l-0.017,0.045l-0.017,0.047l-0.015,0.047l-0.014,0.048l-0.013,0.048l-0.012,0.049l-0.011,0.048l-0.009,0.05l-0.009,0.05l-0.007,0.051l-0.005,0.05l-0.005,0.052l-0.003,0.051l-0.002,0.053l-0.001,0.059l0,0.97l-0.003,0.074l-0.008,0.075l-0.014,0.073l-0.019,0.072l-0.025,0.071l-0.03,0.069l-0.035,0.066l-0.04,0.063l-0.044,0.06l-0.049,0.057l-0.053,0.053l-0.057,0.049l-0.06,0.044l-0.063,0.04l-0.066,0.035l-0.069,0.03l-0.07,0.024l-0.072,0.02l-0.074,0.014l-0.074,0.008l-0.075,0.003l-0.075,-0.003l-0.074,-0.008l-0.074,-0.014l-0.072,-0.02l-0.07,-0.024l-0.069,-0.03l-0.066,-0.035l-0.063,-0.04l-0.061,-0.044l-0.056,-0.049l-0.053,-0.053l-0.049,-0.057l-0.044,-0.06l-0.04,-0.063l-0.035,-0.066l-0.03,-0.069l-0.025,-0.071l-0.019,-0.072l-0.014,-0.073l-0.008,-0.075l-0.003,-0.074l0,-0.983l0.001,-0.097l0.004,-0.103l0.007,-0.102l0.009,-0.102l0.011,-0.101l0.014,-0.1l0.017,-0.099l0.019,-0.099l0.021,-0.098l0.024,-0.097l0.026,-0.097l0.028,-0.095l0.031,-0.094l0.032,-0.093l0.035,-0.092l0.038,-0.091l0.039,-0.09l0.041,-0.088l0.044,-0.088l0.045,-0.086l0.048,-0.085l0.049,-0.084l0.052,-0.082l0.053,-0.081l0.055,-0.08l0.057,-0.078l0.059,-0.076l0.06,-0.075l0.062,-0.074l0.064,-0.072l0.066,-0.071l0.068,-0.069l0.068,-0.067l0.071,-0.066l0.072,-0.064l0.074,-0.062l0.075,-0.061l0.077,-0.058l0.078,-0.057l0.079,-0.056l0.081,-0.053l0.083,-0.051l0.083,-0.05l0.085,-0.047l0.086,-0.046l0.088,-0.043l0.088,-0.041l0.09,-0.04l0.091,-0.037l0.092,-0.035l0.093,-0.033l0.095,-0.03l0.095,-0.029l0.096,-0.026l0.097,-0.023l0.098,-0.022l0.099,-0.019l0.099,-0.016l0.101,-0.014l0.101,-0.012l0.101,-0.009l0.103,-0.006l0.102,-0.004l0.097,-0.001l0.072,0l0.07,0l0.074,0.002l0.074,0.004l0.074,0.005l0.074,0.006l0.074,0.007l0.073,0.009l0.073,0.01l0.073,0.012l0.073,0.013l0.072,0.014l0.072,0.015l0.072,0.017l0.072,0.018l0.071,0.02l0.07,0.02l0.071,0.022l0.07,0.024l0.069,0.024l0.069,0.026l0.069,0.027l0.068,0.028l0.068,0.03l0.067,0.031l0.066,0.032l0.066,0.033l0.066,0.035l0.064,0.036l0.065,0.037l0.063,0.038l0.063,0.04l0.059,0.038l1.687,1.125l1.687,-1.125l0.059,-0.038l0.063,-0.04l0.063,-0.038l0.065,-0.037l0.064,-0.036l0.066,-0.035l0.066,-0.033l0.067,-0.032l0.067,-0.031l0.067,-0.03l0.068,-0.028l0.069,-0.027l0.069,-0.026l0.069,-0.024l0.07,-0.024l0.07,-0.022l0.071,-0.02l0.071,-0.02l0.072,-0.018l0.071,-0.017l0.073,-0.015l0.072,-0.014l0.073,-0.013l0.073,-0.012l0.073,-0.01l0.073,-0.009l0.074,-0.007l0.074,-0.006l0.074,-0.005l0.074,-0.004l0.074,-0.002l0.07,0l0.072,0l0.097,0.001l0.102,0.004Z" style="fill:#593604;"/></g></g></svg>