<?xml version="1.0" encoding="UTF-8" standalone="no"?>
<!DOCTYPE svg PUBLIC "-//W3C//DTD SVG 1.1//EN" "http://www.w3.org/Graphics/SVG/1.1/DTD/svg11.dtd">
<svg width="100%" height="100%" viewBox="0 0 32 32" version="1.1" xmlns="http://www.w3.org/2000/svg" xmlns:xlink="http://www.w3.org/1999/xlink" xml:space="preserve" xmlns:serif="http://www.serif.com/" style="fill-rule:evenodd;clip-rule:evenodd;stroke-linejoin:round;stroke-miterlimit:2;">
    <rect id="pleading" x="0" y="0.017" width="32" height="32" style="fill:none;"/>
    <clipPath id="_clip1">
        <rect x="0" y="0.017" width="32" height="32"/>
    </clipPath>
    <g clip-path="url(#_clip1)">
        <g id="outline">
            <path d="M16,0.017c4.243,0 8.313,1.685 11.314,4.686c3,3.001 4.686,7.07 4.686,11.314l0,2c0,7.732 -6.268,14 -14,14c-1.325,0 -2.675,0 -4,0c-7.732,0 -14,-6.268 -14,-14l0,-2c0,-8.837 7.163,-16 16,-16l0,0Z"/>
        </g>
        <g id="emoji">
            <path d="M2,16.017c0,-3.713 1.475,-7.274 4.101,-9.9c2.625,-2.625 6.186,-4.1 9.899,-4.1l0,0c7.732,0 14,6.268 14,14l0,2c0,6.627 -5.373,12 -12,12l-4,0c-6.627,0 -12,-5.373 -12,-12l0,-2Z" style="fill:#fbc546;"/>
            <path d="M16,22.219l-2.445,1.63c-0.46,0.306 -1.081,0.182 -1.387,-0.278c-0.306,-0.459 -0.182,-1.08 0.277,-1.386l3,-2c0.336,-0.224 0.774,-0.224 1.11,0l3,2c0.459,0.306 0.583,0.927 0.277,1.386c-0.306,0.46 -0.927,0.584 -1.387,0.278l-2.445,-1.63Z" style="fill:#593604;"/>
            <g>
                <path d="M21.173,8.132c-0.085,0.259 0.48,1.338 1.53,1.987c0.983,0.608 2.284,0.606 2.277,0.551l2.02,1.347l0,1.5c0,1.193 -0.474,2.338 -1.318,3.182c-0.844,0.844 -1.989,1.318 -3.182,1.318c-1.193,0 -2.338,-0.474 -3.182,-1.318c-0.844,-0.844 -1.318,-1.989 -1.318,-3.182c0,-0.661 0,-1.342 0,-2.002c0,-1.193 0.474,-2.337 1.317,-3.181c0.304,-0.303 0.646,-0.559 1.016,-0.762l0.84,0.56Z" style="fill:#fff;"/>
                <path d="M21.173,8.132l3.807,2.538c0.013,0.114 0.02,0.229 0.02,0.345c0,0.65 0,1.337 0,1.987c0,0.795 -0.316,1.558 -0.878,2.12c-0.562,0.562 -1.325,0.878 -2.12,0.878l-0.004,0c-0.795,0 -1.558,-0.316 -2.12,-0.878c-0.562,-0.562 -0.878,-1.325 -0.878,-2.12c0,-0.65 0,-1.337 0,-1.987c0,-0.795 0.316,-1.558 0.878,-2.12c0.363,-0.363 0.81,-0.624 1.295,-0.763Z"/>
            </g>
            <g>
                <path d="M10.827,8.132c0.085,0.259 -0.48,1.338 -1.53,1.987c-0.983,0.608 -2.284,0.606 -2.277,0.551l-2.02,1.347l0,1.5c0,1.193 0.474,2.338 1.318,3.182c0.844,0.844 1.989,1.318 3.182,1.318c1.193,0 2.338,-0.474 3.182,-1.318c0.844,-0.844 1.318,-1.989 1.318,-3.182c0,-0.661 0,-1.342 0,-2.002c0,-1.193 -0.474,-2.337 -1.317,-3.181c-0.304,-0.303 -0.646,-0.559 -1.016,-0.762l-0.84,0.56Z" style="fill:#fff;"/>
                <path d="M10.827,8.132l-3.807,2.538c-0.013,0.114 -0.02,0.229 -0.02,0.345c0,0.65 0,1.337 0,1.987c0,0.795 0.316,1.558 0.878,2.12c0.562,0.562 1.325,0.878 2.12,0.878l0.004,0c0.795,0 1.558,-0.316 2.12,-0.878c0.562,-0.562 0.878,-1.325 0.878,-2.12c0,-0.65 0,-1.337 0,-1.987c0,-0.795 -0.316,-1.558 -0.878,-2.12c-0.363,-0.363 -0.81,-0.624 -1.295,-0.763Z"/>
            </g>
        </g>
    </g>
</svg>
