<?xml version="1.0" encoding="UTF-8" standalone="no"?><!DOCTYPE svg PUBLIC "-//W3C//DTD SVG 1.1//EN" "http://www.w3.org/Graphics/SVG/1.1/DTD/svg11.dtd"><svg width="100%" height="100%" viewBox="0 0 32 32" version="1.1" xmlns="http://www.w3.org/2000/svg" xmlns:xlink="http://www.w3.org/1999/xlink" xml:space="preserve" xmlns:serif="http://www.serif.com/" style="fill-rule:evenodd;clip-rule:evenodd;stroke-linejoin:round;stroke-miterlimit:1.41421;"><rect id="scared" x="0" y="0" width="32" height="32" style="fill:none;"/><clipPath id="_clip1"><rect x="0" y="0" width="32" height="32"/></clipPath><g clip-path="url(#_clip1)"><g id="outline"><path d="M16.199,0.001l0.198,0.004l0.198,0.006l0.198,0.009l0.198,0.011l0.197,0.013l0.197,0.016l0.196,0.018l0.196,0.021l0.196,0.023l0.195,0.025l0.195,0.028l0.194,0.031l0.193,0.032l0.194,0.035l0.192,0.037l0.192,0.04l0.191,0.042l0.191,0.044l0.19,0.047l0.189,0.048l0.189,0.051l0.188,0.054l0.187,0.056l0.187,0.058l0.186,0.06l0.185,0.062l0.184,0.065l0.183,0.067l0.183,0.069l0.181,0.071l0.181,0.074l0.18,0.076l0.179,0.078l0.178,0.08l0.177,0.082l0.176,0.085l0.174,0.086l0.174,0.089l0.173,0.091l0.172,0.093l0.171,0.095l0.169,0.097l0.169,0.1l0.167,0.101l0.166,0.104l0.165,0.105l0.164,0.108l0.162,0.11l0.162,0.112l0.159,0.114l0.159,0.116l0.157,0.118l0.156,0.12l0.155,0.121l0.153,0.124l0.152,0.126l0.15,0.128l0.149,0.13l0.148,0.132l0.146,0.134l0.144,0.136l0.143,0.138l0.142,0.139l0.139,0.142l0.138,0.143l0.136,0.144l0.134,0.146l0.132,0.148l0.13,0.149l0.127,0.15l0.127,0.152l0.124,0.153l0.121,0.155l0.12,0.156l0.118,0.157l0.116,0.159l0.114,0.16l0.112,0.161l0.11,0.162l0.108,0.164l0.105,0.165l0.104,0.166l0.101,0.167l0.1,0.169l0.097,0.169l0.095,0.171l0.093,0.172l0.091,0.173l0.089,0.174l0.086,0.175l0.085,0.176l0.082,0.176l0.08,0.178l0.078,0.179l0.076,0.18l0.074,0.181l0.071,0.181l0.069,0.183l0.067,0.183l0.065,0.184l0.062,0.185l0.06,0.186l0.058,0.187l0.056,0.187l0.053,0.188l0.052,0.189l0.048,0.189l0.047,0.19l0.044,0.191l0.042,0.191l0.04,0.192l0.037,0.193l0.035,0.193l0.032,0.193l0.031,0.194l0.028,0.195l0.025,0.195l0.023,0.196l0.021,0.196l0.018,0.196l0.016,0.197l0.013,0.197l0.011,0.198l0.009,0.198l0.006,0.198l0.004,0.198l0.001,0.193l0,3.012l-0.001,0.161l-0.003,0.168l-0.005,0.166l-0.008,0.166l-0.009,0.166l-0.012,0.165l-0.013,0.165l-0.016,0.164l-0.018,0.163l-0.019,0.163l-0.022,0.163l-0.024,0.161l-0.025,0.161l-0.028,0.161l-0.03,0.16l-0.031,0.159l-0.033,0.158l-0.036,0.158l-0.037,0.157l-0.039,0.157l-0.041,0.155l-0.043,0.155l-0.045,0.154l-0.047,0.153l-0.048,0.152l-0.05,0.152l-0.053,0.151l-0.053,0.15l-0.056,0.149l-0.057,0.148l-0.059,0.147l-0.061,0.147l-0.063,0.145l-0.064,0.145l-0.066,0.143l-0.068,0.143l-0.069,0.142l-0.071,0.14l-0.073,0.14l-0.074,0.139l-0.076,0.138l-0.077,0.136l-0.08,0.136l-0.08,0.135l-0.082,0.133l-0.084,0.132l-0.086,0.132l-0.086,0.13l-0.089,0.129l-0.089,0.128l-0.092,0.127l-0.093,0.125l-0.094,0.125l-0.096,0.123l-0.097,0.122l-0.098,0.121l-0.1,0.12l-0.102,0.118l-0.102,0.117l-0.105,0.116l-0.105,0.115l-0.107,0.113l-0.108,0.113l-0.11,0.11l-0.111,0.11l-0.111,0.108l-0.114,0.107l-0.115,0.105l-0.116,0.105l-0.117,0.102l-0.118,0.102l-0.12,0.1l-0.121,0.098l-0.122,0.097l-0.123,0.096l-0.125,0.094l-0.125,0.093l-0.127,0.091l-0.128,0.09l-0.129,0.089l-0.13,0.087l-0.132,0.085l-0.132,0.083l-0.133,0.083l-0.135,0.08l-0.136,0.079l-0.136,0.078l-0.138,0.076l-0.139,0.074l-0.139,0.073l-0.141,0.071l-0.142,0.069l-0.143,0.068l-0.143,0.066l-0.145,0.064l-0.145,0.063l-0.147,0.06l-0.147,0.06l-0.148,0.057l-0.149,0.056l-0.15,0.053l-0.151,0.053l-0.151,0.05l-0.153,0.048l-0.153,0.047l-0.154,0.045l-0.155,0.043l-0.156,0.041l-0.156,0.039l-0.157,0.037l-0.158,0.036l-0.158,0.033l-0.159,0.031l-0.16,0.03l-0.161,0.028l-0.161,0.025l-0.161,0.024l-0.163,0.022l-0.163,0.019l-0.163,0.018l-0.164,0.016l-0.165,0.013l-0.165,0.012l-0.166,0.009l-0.166,0.008l-0.166,0.005l-0.168,0.003l-0.161,0.001l-6.012,0l-0.161,-0.001l-0.168,-0.003l-0.166,-0.005l-0.166,-0.008l-0.166,-0.009l-0.165,-0.012l-0.165,-0.013l-0.164,-0.016l-0.163,-0.018l-0.163,-0.019l-0.163,-0.022l-0.161,-0.024l-0.161,-0.025l-0.161,-0.028l-0.16,-0.03l-0.159,-0.031l-0.158,-0.033l-0.158,-0.036l-0.157,-0.037l-0.156,-0.039l-0.156,-0.041l-0.155,-0.043l-0.154,-0.045l-0.153,-0.047l-0.153,-0.048l-0.151,-0.05l-0.151,-0.053l-0.15,-0.053l-0.149,-0.056l-0.148,-0.057l-0.147,-0.06l-0.147,-0.06l-0.145,-0.063l-0.145,-0.064l-0.143,-0.066l-0.143,-0.068l-0.142,-0.069l-0.141,-0.071l-0.139,-0.073l-0.139,-0.074l-0.138,-0.076l-0.136,-0.078l-0.136,-0.079l-0.134,-0.08l-0.134,-0.082l-0.132,-0.084l-0.132,-0.086l-0.13,-0.086l-0.129,-0.089l-0.128,-0.09l-0.127,-0.091l-0.125,-0.093l-0.125,-0.094l-0.123,-0.096l-0.122,-0.097l-0.121,-0.098l-0.12,-0.1l-0.118,-0.102l-0.117,-0.102l-0.116,-0.105l-0.115,-0.105l-0.113,-0.107l-0.113,-0.108l-0.11,-0.11l-0.11,-0.11l-0.108,-0.112l-0.107,-0.114l-0.105,-0.115l-0.105,-0.116l-0.102,-0.117l-0.102,-0.118l-0.1,-0.12l-0.098,-0.121l-0.097,-0.122l-0.096,-0.123l-0.094,-0.125l-0.093,-0.125l-0.091,-0.127l-0.09,-0.128l-0.089,-0.129l-0.087,-0.131l-0.085,-0.131l-0.084,-0.132l-0.082,-0.133l-0.08,-0.135l-0.079,-0.136l-0.078,-0.136l-0.076,-0.138l-0.074,-0.139l-0.073,-0.139l-0.071,-0.141l-0.069,-0.142l-0.068,-0.143l-0.066,-0.143l-0.064,-0.145l-0.063,-0.145l-0.06,-0.146l-0.06,-0.148l-0.057,-0.148l-0.056,-0.149l-0.053,-0.15l-0.053,-0.151l-0.05,-0.151l-0.048,-0.153l-0.047,-0.153l-0.045,-0.154l-0.043,-0.155l-0.041,-0.156l-0.039,-0.156l-0.037,-0.157l-0.035,-0.157l-0.034,-0.159l-0.031,-0.159l-0.03,-0.16l-0.028,-0.161l-0.025,-0.161l-0.024,-0.161l-0.022,-0.163l-0.019,-0.163l-0.018,-0.163l-0.016,-0.164l-0.013,-0.165l-0.012,-0.165l-0.009,-0.166l-0.008,-0.166l-0.005,-0.166l-0.003,-0.168l-0.001,-0.161l0,-3.012l0.001,-0.2l0.004,-0.206l0.007,-0.205l0.009,-0.205l0.011,-0.203l0.015,-0.204l0.016,-0.203l0.019,-0.201l0.022,-0.202l0.024,-0.2l0.027,-0.2l0.029,-0.199l0.032,-0.198l0.034,-0.198l0.036,-0.197l0.039,-0.195l0.041,-0.195l0.044,-0.195l0.046,-0.193l0.048,-0.192l0.05,-0.192l0.053,-0.19l0.055,-0.19l0.058,-0.188l0.059,-0.188l0.062,-0.186l0.064,-0.186l0.066,-0.184l0.069,-0.184l0.071,-0.182l0.072,-0.181l0.075,-0.181l0.077,-0.179l0.079,-0.177l0.082,-0.177l0.083,-0.176l0.085,-0.174l0.087,-0.173l0.09,-0.172l0.091,-0.171l0.094,-0.169l0.095,-0.169l0.097,-0.166l0.099,-0.166l0.102,-0.164l0.103,-0.163l0.105,-0.162l0.107,-0.16l0.108,-0.159l0.111,-0.158l0.112,-0.156l0.115,-0.154l0.116,-0.153l0.118,-0.152l0.119,-0.151l0.121,-0.148l0.123,-0.148l0.125,-0.145l0.127,-0.145l0.128,-0.142l0.13,-0.142l0.131,-0.139l0.133,-0.138l0.135,-0.137l0.137,-0.135l0.138,-0.133l0.139,-0.131l0.141,-0.13l0.143,-0.128l0.145,-0.127l0.145,-0.125l0.148,-0.123l0.148,-0.121l0.151,-0.119l0.152,-0.118l0.153,-0.116l0.154,-0.115l0.156,-0.112l0.158,-0.111l0.159,-0.108l0.16,-0.107l0.162,-0.105l0.163,-0.103l0.164,-0.101l0.165,-0.1l0.167,-0.097l0.169,-0.095l0.169,-0.094l0.171,-0.091l0.172,-0.09l0.173,-0.087l0.174,-0.085l0.176,-0.084l0.177,-0.081l0.177,-0.079l0.179,-0.077l0.181,-0.075l0.181,-0.073l0.182,-0.07l0.184,-0.069l0.184,-0.066l0.186,-0.064l0.186,-0.062l0.188,-0.059l0.188,-0.058l0.19,-0.055l0.19,-0.053l0.192,-0.05l0.192,-0.048l0.193,-0.046l0.195,-0.044l0.195,-0.041l0.195,-0.039l0.197,-0.036l0.198,-0.034l0.198,-0.032l0.199,-0.029l0.2,-0.027l0.2,-0.024l0.202,-0.022l0.201,-0.019l0.203,-0.016l0.203,-0.015l0.204,-0.011l0.205,-0.009l0.205,-0.007l0.206,-0.004l0.206,-0.001l0.199,0.001Zm-0.355,4l-0.155,0.003l-0.154,0.005l-0.154,0.007l-0.154,0.008l-0.152,0.011l-0.153,0.013l-0.151,0.014l-0.151,0.016l-0.151,0.019l-0.15,0.02l-0.149,0.021l-0.149,0.024l-0.148,0.026l-0.147,0.027l-0.147,0.029l-0.146,0.031l-0.145,0.032l-0.144,0.035l-0.145,0.036l-0.143,0.038l-0.142,0.039l-0.142,0.041l-0.141,0.043l-0.141,0.045l-0.139,0.046l-0.139,0.048l-0.138,0.05l-0.137,0.051l-0.137,0.053l-0.135,0.054l-0.135,0.056l-0.134,0.058l-0.134,0.059l-0.132,0.061l-0.131,0.062l-0.131,0.064l-0.13,0.066l-0.129,0.067l-0.128,0.068l-0.127,0.07l-0.126,0.072l-0.125,0.073l-0.124,0.074l-0.123,0.076l-0.122,0.077l-0.122,0.079l-0.12,0.08l-0.119,0.082l-0.118,0.083l-0.117,0.084l-0.117,0.086l-0.115,0.087l-0.114,0.088l-0.112,0.09l-0.112,0.092l-0.111,0.092l-0.109,0.094l-0.109,0.095l-0.107,0.096l-0.106,0.098l-0.105,0.098l-0.104,0.1l-0.102,0.102l-0.102,0.102l-0.1,0.104l-0.098,0.105l-0.098,0.106l-0.096,0.107l-0.095,0.109l-0.094,0.109l-0.093,0.111l-0.091,0.112l-0.09,0.113l-0.088,0.113l-0.087,0.115l-0.086,0.116l-0.084,0.118l-0.083,0.118l-0.082,0.119l-0.08,0.12l-0.079,0.122l-0.077,0.122l-0.076,0.123l-0.074,0.124l-0.073,0.125l-0.072,0.126l-0.07,0.128l-0.068,0.128l-0.067,0.128l-0.066,0.13l-0.064,0.131l-0.062,0.131l-0.061,0.132l-0.059,0.134l-0.058,0.134l-0.056,0.134l-0.054,0.136l-0.053,0.137l-0.051,0.137l-0.05,0.138l-0.048,0.139l-0.046,0.14l-0.045,0.14l-0.043,0.141l-0.041,0.142l-0.039,0.142l-0.038,0.144l-0.036,0.143l-0.035,0.145l-0.032,0.145l-0.031,0.146l-0.029,0.147l-0.027,0.147l-0.026,0.148l-0.024,0.149l-0.021,0.149l-0.02,0.15l-0.019,0.151l-0.016,0.151l-0.014,0.151l-0.013,0.153l-0.011,0.152l-0.008,0.154l-0.007,0.154l-0.005,0.154l-0.003,0.155l-0.001,0.162l0,2.988l0.001,0.123l0.002,0.116l0.004,0.116l0.005,0.116l0.006,0.115l0.008,0.115l0.01,0.114l0.011,0.114l0.012,0.113l0.013,0.113l0.015,0.112l0.017,0.112l0.018,0.112l0.019,0.11l0.02,0.111l0.022,0.11l0.023,0.109l0.024,0.109l0.026,0.109l0.027,0.108l0.029,0.107l0.029,0.107l0.031,0.106l0.032,0.106l0.034,0.105l0.034,0.105l0.036,0.104l0.038,0.103l0.038,0.104l0.04,0.102l0.04,0.101l0.043,0.102l0.043,0.1l0.044,0.1l0.046,0.099l0.047,0.099l0.047,0.098l0.049,0.097l0.051,0.097l0.051,0.096l0.053,0.095l0.053,0.094l0.055,0.094l0.056,0.093l0.057,0.093l0.058,0.092l0.059,0.091l0.06,0.09l0.061,0.089l0.062,0.089l0.064,0.088l0.064,0.087l0.065,0.086l0.067,0.085l0.067,0.085l0.068,0.084l0.07,0.083l0.07,0.082l0.071,0.081l0.073,0.081l0.073,0.08l0.074,0.078l0.075,0.078l0.076,0.077l0.077,0.076l0.078,0.075l0.078,0.074l0.08,0.073l0.08,0.073l0.082,0.071l0.082,0.07l0.083,0.07l0.084,0.068l0.085,0.067l0.085,0.067l0.086,0.065l0.087,0.064l0.088,0.064l0.089,0.062l0.089,0.061l0.091,0.06l0.091,0.059l0.091,0.058l0.093,0.057l0.093,0.056l0.094,0.055l0.094,0.053l0.095,0.053l0.096,0.051l0.097,0.051l0.097,0.049l0.098,0.047l0.099,0.047l0.099,0.046l0.1,0.044l0.1,0.044l0.101,0.042l0.102,0.04l0.103,0.04l0.103,0.038l0.103,0.038l0.104,0.035l0.105,0.035l0.105,0.034l0.106,0.032l0.106,0.031l0.107,0.029l0.107,0.029l0.108,0.027l0.109,0.026l0.109,0.024l0.109,0.023l0.11,0.022l0.11,0.02l0.111,0.019l0.112,0.018l0.112,0.017l0.112,0.015l0.113,0.013l0.113,0.012l0.114,0.011l0.114,0.01l0.115,0.008l0.115,0.006l0.116,0.005l0.116,0.004l0.116,0.002l0.123,0.001l5.988,0l0.123,-0.001l0.116,-0.002l0.116,-0.004l0.116,-0.005l0.115,-0.006l0.115,-0.008l0.114,-0.01l0.114,-0.011l0.113,-0.012l0.113,-0.013l0.112,-0.015l0.112,-0.017l0.112,-0.018l0.111,-0.019l0.11,-0.02l0.11,-0.022l0.109,-0.023l0.109,-0.024l0.109,-0.026l0.108,-0.027l0.107,-0.029l0.107,-0.029l0.106,-0.031l0.106,-0.032l0.105,-0.034l0.105,-0.034l0.104,-0.036l0.103,-0.038l0.103,-0.038l0.103,-0.04l0.102,-0.04l0.101,-0.042l0.1,-0.044l0.1,-0.044l0.099,-0.046l0.099,-0.047l0.098,-0.047l0.097,-0.05l0.097,-0.05l0.096,-0.051l0.095,-0.053l0.094,-0.053l0.094,-0.055l0.093,-0.056l0.093,-0.057l0.091,-0.058l0.091,-0.059l0.091,-0.06l0.089,-0.061l0.089,-0.062l0.087,-0.064l0.088,-0.064l0.086,-0.065l0.086,-0.067l0.084,-0.067l0.084,-0.068l0.083,-0.07l0.082,-0.07l0.082,-0.071l0.08,-0.073l0.079,-0.073l0.079,-0.074l0.078,-0.075l0.077,-0.076l0.076,-0.077l0.075,-0.078l0.074,-0.078l0.073,-0.08l0.073,-0.081l0.071,-0.081l0.07,-0.082l0.07,-0.083l0.068,-0.084l0.067,-0.084l0.067,-0.086l0.065,-0.086l0.064,-0.088l0.064,-0.087l0.062,-0.089l0.061,-0.09l0.06,-0.09l0.059,-0.09l0.058,-0.092l0.057,-0.093l0.056,-0.093l0.055,-0.094l0.053,-0.094l0.053,-0.095l0.051,-0.096l0.05,-0.097l0.05,-0.097l0.048,-0.098l0.046,-0.099l0.046,-0.099l0.044,-0.1l0.044,-0.101l0.041,-0.1l0.041,-0.102l0.04,-0.103l0.038,-0.103l0.038,-0.103l0.036,-0.104l0.034,-0.104l0.034,-0.106l0.032,-0.106l0.031,-0.106l0.029,-0.107l0.029,-0.108l0.027,-0.107l0.026,-0.109l0.024,-0.109l0.023,-0.109l0.022,-0.11l0.02,-0.111l0.019,-0.11l0.018,-0.112l0.017,-0.112l0.015,-0.112l0.013,-0.113l0.012,-0.113l0.011,-0.114l0.01,-0.114l0.008,-0.115l0.006,-0.115l0.005,-0.116l0.004,-0.116l0.002,-0.116l0.001,-0.123l0,-2.988l-0.001,-0.155l-0.003,-0.149l-0.004,-0.149l-0.007,-0.148l-0.008,-0.148l-0.01,-0.148l-0.012,-0.148l-0.014,-0.147l-0.015,-0.147l-0.018,-0.147l-0.019,-0.146l-0.021,-0.146l-0.022,-0.146l-0.025,-0.145l-0.026,-0.145l-0.028,-0.144l-0.029,-0.144l-0.032,-0.143l-0.033,-0.143l-0.035,-0.143l-0.037,-0.142l-0.038,-0.141l-0.04,-0.141l-0.042,-0.141l-0.043,-0.14l-0.045,-0.139l-0.047,-0.139l-0.049,-0.138l-0.05,-0.137l-0.052,-0.137l-0.053,-0.137l-0.055,-0.135l-0.057,-0.135l-0.059,-0.134l-0.06,-0.134l-0.062,-0.133l-0.063,-0.131l-0.065,-0.132l-0.067,-0.13l-0.068,-0.13l-0.07,-0.129l-0.071,-0.128l-0.073,-0.127l-0.074,-0.126l-0.076,-0.126l-0.078,-0.124l-0.079,-0.124l-0.081,-0.123l-0.082,-0.121l-0.084,-0.121l-0.086,-0.12l-0.087,-0.119l-0.088,-0.118l-0.09,-0.117l-0.092,-0.116l-0.093,-0.115l-0.094,-0.114l-0.096,-0.113l-0.097,-0.111l-0.099,-0.111l-0.101,-0.109l-0.102,-0.109l-0.103,-0.107l-0.105,-0.106l-0.106,-0.105l-0.107,-0.103l-0.109,-0.102l-0.109,-0.101l-0.111,-0.099l-0.111,-0.097l-0.113,-0.096l-0.114,-0.094l-0.115,-0.093l-0.116,-0.092l-0.117,-0.09l-0.118,-0.088l-0.119,-0.087l-0.12,-0.086l-0.12,-0.083l-0.122,-0.083l-0.123,-0.081l-0.124,-0.079l-0.124,-0.078l-0.126,-0.076l-0.126,-0.074l-0.127,-0.073l-0.128,-0.071l-0.129,-0.07l-0.13,-0.068l-0.13,-0.067l-0.132,-0.065l-0.132,-0.063l-0.132,-0.062l-0.134,-0.06l-0.134,-0.059l-0.135,-0.057l-0.135,-0.055l-0.137,-0.053l-0.137,-0.052l-0.137,-0.05l-0.138,-0.049l-0.139,-0.047l-0.139,-0.045l-0.14,-0.043l-0.14,-0.042l-0.141,-0.04l-0.142,-0.038l-0.142,-0.037l-0.143,-0.035l-0.143,-0.033l-0.143,-0.032l-0.144,-0.029l-0.144,-0.028l-0.145,-0.026l-0.145,-0.025l-0.146,-0.022l-0.146,-0.021l-0.146,-0.019l-0.147,-0.018l-0.147,-0.015l-0.147,-0.014l-0.148,-0.012l-0.148,-0.01l-0.148,-0.008l-0.148,-0.007l-0.149,-0.004l-0.149,-0.003l-0.149,-0.001l-0.156,0.001Z"/></g><g id="emoji"><path d="M16,2c0.359,0 0.717,0.014 1.072,0.041c0.282,0.25 0.928,0.959 0.928,0.959l2,-0.416c0.372,0.11 0.739,0.237 1.1,0.378c0.212,0.366 0.9,1.549 0.9,1.549l2,0c0.349,0.243 0.688,0.502 1.015,0.778c0.175,0.337 0.985,1.711 0.985,1.711l2,1.789c1.298,2.16 2,4.649 2,7.211c0,1.007 0,2.014 0,3c0,6.075 -4.925,11 -11,11c-1.972,0 -4.028,0 -6,0c-6.075,0 -11,-4.925 -11,-11c0,-0.986 0,-1.993 0,-3c0,-7.732 6.268,-14 14,-14l0,0Z" style="fill:#fbc546;"/><g><path d="M9.794,24.381c-0.308,0.038 -0.621,-0.07 -0.842,-0.299c-0.267,-0.277 -0.351,-0.684 -0.216,-1.045c0.173,-0.461 0.364,-0.972 0.561,-1.495c1.024,-2.732 3.636,-4.542 6.554,-4.542c0.099,0 0.199,0 0.298,0c2.918,0 5.53,1.81 6.554,4.542c0.197,0.523 0.388,1.034 0.561,1.495c0.135,0.361 0.051,0.768 -0.216,1.045c-0.221,0.229 -0.534,0.337 -0.842,0.299c-1.342,-2.081 -11.07,-2.081 -12.412,0Z" style="fill:#722245;"/><path d="M9.794,24.381c1.342,-2.081 3.666,-3.381 6.205,-3.381c0.001,0 0.001,0 0.002,0c2.539,0 4.863,1.3 6.205,3.381c-0.065,-0.008 -0.131,-0.023 -0.195,-0.044c-0.978,-0.326 -2.119,-0.706 -2.933,-0.978c-0.714,-0.238 -1.462,-0.359 -2.214,-0.359c-0.541,0 -1.187,0 -1.728,0c-0.752,0 -1.5,0.121 -2.214,0.359c-0.814,0.272 -1.955,0.652 -2.933,0.978c-0.064,0.021 -0.13,0.036 -0.195,0.044Z" style="fill:#ca3b8f;"/></g><path d="M25.015,5.289c0.305,0.257 0.6,0.527 0.884,0.812c0.814,0.813 1.518,1.717 2.101,2.688l0,1.711c0,0.398 -0.158,0.779 -0.439,1.061c-0.282,0.281 -0.663,0.439 -1.061,0.439c-0.398,0 -0.779,-0.158 -1.061,-0.439c-0.281,-0.282 -0.439,-0.663 -0.439,-1.061c0,-1.43 0,-3.57 0,-5c0,-0.071 0.005,-0.142 0.015,-0.211Zm-3.915,-2.327c1.021,0.399 1.995,0.919 2.9,1.549l0,4.989c0,0.398 -0.158,0.779 -0.439,1.061c-0.282,0.281 -0.663,0.439 -1.061,0.439c-0.398,0 -0.779,-0.158 -1.061,-0.439c-0.281,-0.282 -0.439,-0.663 -0.439,-1.061c0,-1.665 0,-4.335 0,-6c0,-0.186 0.034,-0.368 0.1,-0.538Zm-4.028,-0.921c0.998,0.077 1.979,0.26 2.928,0.543l0,5.916c0,0.398 -0.158,0.779 -0.439,1.061c-0.282,0.281 -0.663,0.439 -1.061,0.439c-0.398,0 -0.779,-0.158 -1.061,-0.439c-0.281,-0.282 -0.439,-0.663 -0.439,-1.061c0,-1.665 0,-4.335 0,-6c0,-0.157 0.025,-0.312 0.072,-0.459Z" style="fill:#579aff;"/><path d="M11,12.498c0,-0.827 -0.671,-1.498 -1.498,-1.498c-0.001,0 -0.001,0 -0.002,0c-0.398,0 -0.779,0.158 -1.061,0.439c-0.281,0.282 -0.439,0.663 -0.439,1.061c0,0.633 0,1.367 0,2c0,0.398 0.158,0.779 0.439,1.061c0.282,0.281 0.663,0.439 1.061,0.439c0.398,0 0.779,-0.158 1.061,-0.439c0.281,-0.282 0.439,-0.663 0.439,-1.061c0,-0.633 0,-1.369 0,-2.002Z"/><path d="M24,12.498c0,-0.827 -0.671,-1.498 -1.498,-1.498c-0.001,0 -0.003,0 -0.004,0c-0.827,0 -1.498,0.671 -1.498,1.498c0,0.634 0,1.37 0,2.004c0,0.827 0.671,1.498 1.498,1.498c0.001,0 0.003,0 0.004,0c0.827,0 1.498,-0.671 1.498,-1.498c0,-0.634 0,-1.37 0,-2.004Z"/></g></g></svg>