<?xml version="1.0" encoding="UTF-8" standalone="no"?><!DOCTYPE svg PUBLIC "-//W3C//DTD SVG 1.1//EN" "http://www.w3.org/Graphics/SVG/1.1/DTD/svg11.dtd"><svg width="100%" height="100%" viewBox="0 0 32 32" version="1.1" xmlns="http://www.w3.org/2000/svg" xmlns:xlink="http://www.w3.org/1999/xlink" xml:space="preserve" xmlns:serif="http://www.serif.com/" style="fill-rule:evenodd;clip-rule:evenodd;stroke-linejoin:round;stroke-miterlimit:2;"><rect id="scream" x="0" y="0" width="32" height="32" style="fill:none;"/><clipPath id="_clip1"><rect x="0" y="0" width="32" height="32"/></clipPath><g clip-path="url(#_clip1)"><g id="outline"><path d="M16.186,0.001l0.186,0.004l0.186,0.005l0.186,0.008l0.185,0.011l0.185,0.012l0.184,0.015l0.184,0.017l0.184,0.02l0.184,0.021l0.183,0.024l0.182,0.026l0.182,0.029l0.182,0.03l0.181,0.033l0.18,0.035l0.18,0.037l0.179,0.039l0.179,0.042l0.178,0.043l0.178,0.046l0.177,0.048l0.176,0.05l0.176,0.052l0.174,0.055l0.175,0.056l0.173,0.059l0.173,0.06l0.171,0.063l0.172,0.065l0.17,0.067l0.169,0.069l0.169,0.071l0.168,0.073l0.166,0.075l0.166,0.077l0.165,0.079l0.164,0.082l0.163,0.083l0.162,0.085l0.161,0.087l0.16,0.09l0.159,0.091l0.158,0.093l0.157,0.095l0.156,0.097l0.154,0.099l0.154,0.101l0.152,0.103l0.152,0.105l0.149,0.107l0.149,0.108l0.148,0.111l0.146,0.112l0.145,0.115l0.143,0.116l0.143,0.118l0.141,0.12l0.139,0.122l0.139,0.123l0.137,0.126l0.135,0.127l0.134,0.129l0.133,0.131l0.13,0.133l0.13,0.134l0.127,0.135l0.126,0.137l0.123,0.139l0.122,0.139l0.12,0.141l0.118,0.143l0.116,0.143l0.115,0.145l0.112,0.146l0.111,0.148l0.108,0.149l0.107,0.149l0.105,0.152l0.103,0.152l0.101,0.154l0.099,0.154l0.097,0.156l0.095,0.157l0.093,0.157l0.092,0.16l0.089,0.16l0.087,0.161l0.085,0.162l0.083,0.163l0.082,0.164l0.079,0.165l0.077,0.166l0.075,0.166l0.073,0.168l0.071,0.169l0.069,0.169l0.067,0.17l0.065,0.172l0.063,0.171l0.06,0.173l0.059,0.173l0.056,0.175l0.055,0.174l0.052,0.176l0.05,0.176l0.048,0.177l0.046,0.178l0.043,0.178l0.042,0.179l0.039,0.179l0.037,0.18l0.035,0.181l0.033,0.18l0.03,0.182l0.029,0.182l0.026,0.182l0.024,0.183l0.021,0.184l0.02,0.183l0.017,0.184l0.015,0.185l0.012,0.185l0.011,0.185l0.008,0.186l0.005,0.186l0.004,0.186l0.001,0.18l0,1.015l-0.001,0.128l-0.001,0.133l-0.004,0.134l-0.004,0.132l-0.006,0.133l-0.007,0.133l-0.008,0.132l-0.009,0.132l-0.011,0.132l-0.012,0.132l-0.013,0.131l-0.014,0.132l-0.016,0.131l-0.017,0.131l-0.018,0.13l-0.019,0.131l-0.021,0.13l-0.021,0.13l-0.023,0.129l-0.024,0.13l-0.026,0.129l-0.026,0.129l-0.028,0.128l-0.029,0.128l-0.03,0.128l-0.031,0.127l-0.033,0.127l-0.033,0.127l-0.035,0.126l-0.036,0.126l-0.037,0.126l-0.039,0.125l-0.039,0.125l-0.041,0.124l-0.041,0.124l-0.043,0.124l-0.045,0.124l-0.045,0.122l-0.046,0.122l-0.048,0.123l-0.048,0.121l-0.05,0.121l-0.051,0.121l-0.052,0.119l-0.053,0.12l-0.055,0.119l-0.055,0.118l-0.056,0.119l-0.058,0.117l-0.059,0.117l-0.06,0.117l-0.061,0.116l-0.062,0.115l-0.063,0.115l-0.064,0.114l-0.065,0.114l-0.067,0.113l-0.049,0.083l0.001,0.025l0.004,0.082l0.002,0.083l0.001,0.073l0,2.009l0,0.038l0.001,0.031l0.001,0.03l0.002,0.031l0.002,0.031l0.002,0.03l0.004,0.031l0.003,0.03l0.004,0.031l0.005,0.03l0.004,0.03l0.006,0.029l0.005,0.031l0.007,0.03l0.007,0.03l0.008,0.037l1.424,5.692l-0.24,0.308l-10.245,0l0,-2.324l-0.183,0.038l-0.184,0.037l-0.185,0.034l-0.185,0.032l-0.186,0.029l-0.186,0.026l-0.187,0.024l-0.187,0.022l-0.188,0.019l-0.188,0.017l-0.189,0.014l-0.189,0.011l-0.189,0.009l-0.19,0.007l-0.19,0.004l-0.183,0.001l-2.022,0l-0.183,-0.001l-0.19,-0.004l-0.19,-0.007l-0.189,-0.009l-0.189,-0.011l-0.189,-0.014l-0.188,-0.017l-0.188,-0.019l-0.187,-0.022l-0.187,-0.024l-0.186,-0.026l-0.186,-0.029l-0.185,-0.032l-0.185,-0.034l-0.184,-0.037l-0.183,-0.038l0,2.324l-10.245,0l-0.24,-0.308l1.423,-5.692l0.009,-0.037l0.007,-0.03l0.006,-0.03l0.006,-0.031l0.006,-0.03l0.004,-0.029l0.005,-0.03l0.004,-0.031l0.003,-0.03l0.004,-0.031l0.002,-0.03l0.002,-0.031l0.002,-0.031l0.001,-0.03l0.001,-0.031l0,-0.038l0,-2.009l0.001,-0.073l0.002,-0.084l0.004,-0.081l0.001,-0.025l-0.049,-0.083l-0.067,-0.113l-0.065,-0.114l-0.064,-0.114l-0.063,-0.115l-0.062,-0.115l-0.061,-0.116l-0.06,-0.117l-0.059,-0.117l-0.058,-0.117l-0.056,-0.119l-0.055,-0.118l-0.055,-0.119l-0.053,-0.12l-0.052,-0.12l-0.051,-0.12l-0.05,-0.121l-0.048,-0.121l-0.048,-0.122l-0.046,-0.123l-0.045,-0.123l-0.045,-0.123l-0.043,-0.124l-0.041,-0.124l-0.041,-0.124l-0.039,-0.125l-0.039,-0.125l-0.037,-0.126l-0.036,-0.126l-0.035,-0.126l-0.033,-0.127l-0.033,-0.127l-0.031,-0.127l-0.03,-0.128l-0.029,-0.128l-0.028,-0.128l-0.026,-0.129l-0.026,-0.129l-0.024,-0.13l-0.023,-0.129l-0.021,-0.13l-0.021,-0.13l-0.019,-0.13l-0.018,-0.131l-0.017,-0.131l-0.016,-0.131l-0.014,-0.132l-0.013,-0.131l-0.012,-0.132l-0.011,-0.132l-0.009,-0.132l-0.008,-0.132l-0.007,-0.133l-0.006,-0.133l-0.004,-0.132l-0.004,-0.134l-0.001,-0.133l-0.001,-0.128l0,-1.015l0.001,-0.187l0.004,-0.193l0.006,-0.192l0.008,-0.192l0.011,-0.191l0.014,-0.191l0.015,-0.19l0.018,-0.189l0.021,-0.189l0.022,-0.188l0.025,-0.187l0.028,-0.187l0.029,-0.186l0.032,-0.185l0.034,-0.184l0.037,-0.184l0.038,-0.183l0.041,-0.182l0.043,-0.181l0.045,-0.18l0.048,-0.18l0.049,-0.178l0.052,-0.178l0.054,-0.177l0.056,-0.176l0.058,-0.175l0.06,-0.174l0.062,-0.172l0.064,-0.172l0.066,-0.172l0.068,-0.17l0.071,-0.168l0.072,-0.168l0.074,-0.167l0.076,-0.166l0.078,-0.164l0.08,-0.164l0.082,-0.162l0.084,-0.161l0.086,-0.16l0.087,-0.159l0.09,-0.158l0.091,-0.156l0.093,-0.155l0.095,-0.155l0.096,-0.152l0.099,-0.152l0.1,-0.15l0.102,-0.149l0.103,-0.148l0.106,-0.146l0.107,-0.145l0.109,-0.144l0.11,-0.142l0.112,-0.141l0.114,-0.139l0.115,-0.138l0.117,-0.137l0.119,-0.135l0.12,-0.134l0.122,-0.132l0.123,-0.131l0.125,-0.13l0.126,-0.128l0.128,-0.126l0.13,-0.125l0.13,-0.123l0.133,-0.122l0.134,-0.12l0.135,-0.119l0.137,-0.117l0.138,-0.115l0.139,-0.114l0.141,-0.112l0.142,-0.11l0.144,-0.109l0.145,-0.107l0.146,-0.106l0.148,-0.103l0.149,-0.102l0.15,-0.1l0.152,-0.099l0.152,-0.096l0.154,-0.095l0.156,-0.093l0.156,-0.091l0.158,-0.09l0.159,-0.087l0.16,-0.086l0.161,-0.084l0.162,-0.082l0.164,-0.08l0.164,-0.078l0.166,-0.076l0.167,-0.074l0.168,-0.072l0.169,-0.071l0.17,-0.068l0.171,-0.066l0.172,-0.064l0.172,-0.062l0.174,-0.06l0.175,-0.058l0.176,-0.056l0.177,-0.054l0.178,-0.052l0.178,-0.049l0.18,-0.048l0.18,-0.045l0.181,-0.043l0.182,-0.041l0.183,-0.038l0.184,-0.037l0.184,-0.034l0.185,-0.032l0.186,-0.029l0.187,-0.028l0.187,-0.025l0.188,-0.022l0.189,-0.021l0.189,-0.018l0.19,-0.015l0.191,-0.014l0.191,-0.011l0.192,-0.008l0.192,-0.006l0.193,-0.004l0.193,-0.001l0.186,0.001Zm-5.109,25.199l0.123,0.051l0.124,0.05l0.124,0.048l0.125,0.047l0.126,0.045l0.126,0.043l0.127,0.041l0.128,0.04l0.128,0.038l0.128,0.037l0.13,0.034l0.129,0.033l0.13,0.032l0.131,0.029l0.131,0.028l0.131,0.026l0.132,0.024l0.132,0.023l0.133,0.021l0.133,0.019l0.134,0.017l0.133,0.015l0.134,0.014l0.135,0.012l0.135,0.01l0.135,0.008l0.135,0.007l0.135,0.004l0.136,0.003l0.143,0.001l1.994,0l0.143,-0.001l0.136,-0.003l0.135,-0.004l0.135,-0.007l0.135,-0.008l0.135,-0.01l0.135,-0.012l0.134,-0.014l0.133,-0.015l0.134,-0.017l0.133,-0.019l0.133,-0.021l0.132,-0.023l0.132,-0.024l0.131,-0.026l0.131,-0.028l0.131,-0.029l0.13,-0.032l0.129,-0.033l0.13,-0.034l0.128,-0.037l0.128,-0.038l0.128,-0.04l0.127,-0.041l0.126,-0.043l0.126,-0.045l0.125,-0.047l0.124,-0.048l0.124,-0.05l0.123,-0.051l0.122,-0.053l2.213,-0.996l0.742,0.48l0,3.369l1.438,0l-0.261,-1.044l-0.02,-0.082l-0.02,-0.091l-0.019,-0.089l-0.017,-0.09l-0.016,-0.091l-0.015,-0.091l-0.013,-0.091l-0.012,-0.09l-0.011,-0.092l-0.009,-0.091l-0.007,-0.091l-0.007,-0.092l-0.005,-0.091l-0.003,-0.092l-0.002,-0.092l-0.001,-0.085l0,-2.006l0,-0.019l0,-0.01l-0.001,-0.009l0,-0.01l-0.001,-0.009l-0.001,-0.009l-0.001,-0.009l-0.001,-0.009l-0.002,-0.009l-0.001,-0.01l-0.002,-0.007l-0.002,-0.009l-0.002,-0.008l-0.002,-0.009l-0.002,-0.009l-0.265,-0.925l0.584,-0.859l0.051,-0.078l0.052,-0.079l0.05,-0.079l0.05,-0.08l0.049,-0.08l0.048,-0.08l0.048,-0.081l0.046,-0.081l0.046,-0.081l0.045,-0.082l0.044,-0.083l0.044,-0.083l0.043,-0.083l0.042,-0.084l0.041,-0.083l0.04,-0.085l0.04,-0.084l0.038,-0.085l0.038,-0.086l0.038,-0.086l0.036,-0.086l0.036,-0.086l0.034,-0.087l0.034,-0.087l0.033,-0.087l0.033,-0.088l0.031,-0.088l0.031,-0.088l0.03,-0.089l0.029,-0.089l0.028,-0.089l0.027,-0.09l0.027,-0.089l0.026,-0.09l0.024,-0.09l0.024,-0.091l0.024,-0.091l0.022,-0.091l0.021,-0.091l0.021,-0.091l0.02,-0.092l0.019,-0.092l0.018,-0.092l0.017,-0.092l0.016,-0.093l0.016,-0.093l0.015,-0.093l0.013,-0.093l0.013,-0.093l0.012,-0.094l0.011,-0.093l0.011,-0.094l0.009,-0.094l0.009,-0.094l0.007,-0.094l0.007,-0.095l0.006,-0.094l0.005,-0.095l0.004,-0.095l0.003,-0.095l0.002,-0.095l0.002,-0.095l0,-0.1l0,-0.993l-0.001,-0.143l-0.002,-0.136l-0.005,-0.136l-0.006,-0.136l-0.007,-0.137l-0.009,-0.135l-0.011,-0.135l-0.013,-0.135l-0.014,-0.135l-0.016,-0.135l-0.017,-0.134l-0.02,-0.133l-0.02,-0.134l-0.023,-0.133l-0.024,-0.133l-0.025,-0.132l-0.028,-0.132l-0.028,-0.131l-0.031,-0.132l-0.032,-0.13l-0.033,-0.13l-0.035,-0.13l-0.037,-0.129l-0.039,-0.129l-0.039,-0.128l-0.042,-0.128l-0.043,-0.127l-0.044,-0.127l-0.046,-0.126l-0.048,-0.125l-0.049,-0.125l-0.05,-0.124l-0.052,-0.124l-0.054,-0.123l-0.055,-0.122l-0.057,-0.122l-0.058,-0.121l-0.059,-0.12l-0.061,-0.12l-0.063,-0.119l-0.064,-0.118l-0.065,-0.117l-0.067,-0.117l-0.069,-0.116l-0.069,-0.115l-0.071,-0.114l-0.073,-0.113l-0.074,-0.113l-0.076,-0.111l-0.076,-0.111l-0.079,-0.11l-0.079,-0.109l-0.082,-0.108l-0.082,-0.108l-0.084,-0.106l-0.085,-0.105l-0.087,-0.105l-0.088,-0.103l-0.089,-0.103l-0.091,-0.101l-0.092,-0.1l-0.093,-0.099l-0.095,-0.099l-0.096,-0.097l-0.097,-0.096l-0.098,-0.095l-0.1,-0.093l-0.1,-0.092l-0.102,-0.091l-0.102,-0.089l-0.103,-0.088l-0.105,-0.087l-0.105,-0.085l-0.106,-0.084l-0.108,-0.082l-0.108,-0.081l-0.109,-0.08l-0.11,-0.079l-0.11,-0.076l-0.112,-0.076l-0.113,-0.074l-0.113,-0.072l-0.114,-0.072l-0.115,-0.069l-0.116,-0.069l-0.117,-0.067l-0.117,-0.065l-0.118,-0.064l-0.119,-0.063l-0.12,-0.061l-0.12,-0.059l-0.121,-0.058l-0.122,-0.057l-0.122,-0.055l-0.123,-0.054l-0.123,-0.052l-0.125,-0.05l-0.125,-0.049l-0.125,-0.048l-0.126,-0.046l-0.127,-0.044l-0.127,-0.043l-0.128,-0.042l-0.128,-0.039l-0.129,-0.039l-0.129,-0.037l-0.13,-0.035l-0.13,-0.033l-0.13,-0.032l-0.132,-0.031l-0.131,-0.028l-0.132,-0.028l-0.132,-0.025l-0.133,-0.024l-0.133,-0.023l-0.134,-0.02l-0.133,-0.02l-0.135,-0.017l-0.134,-0.016l-0.135,-0.014l-0.135,-0.013l-0.135,-0.011l-0.136,-0.009l-0.135,-0.007l-0.137,-0.006l-0.136,-0.005l-0.136,-0.002l-0.137,-0.001l-0.143,0.001l-0.142,0.003l-0.142,0.004l-0.141,0.006l-0.14,0.008l-0.14,0.01l-0.14,0.012l-0.139,0.013l-0.139,0.015l-0.138,0.017l-0.137,0.018l-0.137,0.02l-0.136,0.022l-0.136,0.023l-0.135,0.025l-0.134,0.027l-0.134,0.028l-0.133,0.03l-0.133,0.031l-0.132,0.033l-0.131,0.035l-0.131,0.036l-0.13,0.038l-0.129,0.039l-0.128,0.041l-0.128,0.043l-0.128,0.043l-0.126,0.046l-0.126,0.047l-0.125,0.048l-0.125,0.05l-0.123,0.052l-0.123,0.053l-0.122,0.054l-0.121,0.056l-0.121,0.057l-0.12,0.058l-0.118,0.06l-0.119,0.062l-0.117,0.063l-0.116,0.064l-0.116,0.065l-0.115,0.067l-0.113,0.068l-0.113,0.07l-0.112,0.071l-0.112,0.072l-0.11,0.073l-0.109,0.075l-0.109,0.076l-0.107,0.078l-0.106,0.078l-0.106,0.08l-0.104,0.081l-0.104,0.083l-0.102,0.083l-0.102,0.085l-0.1,0.086l-0.099,0.087l-0.099,0.088l-0.097,0.09l-0.096,0.09l-0.095,0.092l-0.094,0.093l-0.093,0.094l-0.092,0.095l-0.09,0.096l-0.09,0.097l-0.088,0.099l-0.087,0.099l-0.086,0.1l-0.085,0.102l-0.083,0.102l-0.083,0.104l-0.081,0.104l-0.08,0.106l-0.078,0.106l-0.078,0.107l-0.076,0.109l-0.075,0.109l-0.073,0.11l-0.072,0.112l-0.071,0.112l-0.07,0.113l-0.068,0.113l-0.067,0.115l-0.065,0.116l-0.065,0.116l-0.062,0.117l-0.062,0.118l-0.06,0.119l-0.058,0.12l-0.057,0.121l-0.056,0.121l-0.054,0.122l-0.053,0.123l-0.052,0.124l-0.05,0.124l-0.048,0.125l-0.047,0.126l-0.045,0.126l-0.044,0.128l-0.043,0.127l-0.041,0.129l-0.039,0.13l-0.038,0.129l-0.036,0.131l-0.035,0.131l-0.033,0.132l-0.031,0.133l-0.03,0.133l-0.029,0.134l-0.026,0.134l-0.025,0.135l-0.023,0.136l-0.022,0.137l-0.02,0.136l-0.018,0.137l-0.017,0.138l-0.015,0.139l-0.013,0.139l-0.012,0.14l-0.01,0.14l-0.008,0.14l-0.006,0.141l-0.004,0.142l-0.003,0.142l-0.001,0.149l0,0.993l0,0.1l0.002,0.095l0.002,0.095l0.003,0.095l0.004,0.095l0.005,0.095l0.006,0.094l0.007,0.095l0.007,0.094l0.009,0.094l0.009,0.094l0.011,0.094l0.011,0.094l0.012,0.093l0.013,0.093l0.013,0.093l0.015,0.093l0.016,0.093l0.016,0.093l0.017,0.092l0.018,0.092l0.019,0.092l0.02,0.092l0.021,0.091l0.021,0.091l0.022,0.091l0.024,0.091l0.024,0.091l0.024,0.09l0.026,0.09l0.027,0.089l0.027,0.09l0.028,0.089l0.029,0.089l0.03,0.089l0.031,0.088l0.031,0.088l0.033,0.088l0.033,0.087l0.034,0.087l0.034,0.087l0.036,0.086l0.036,0.086l0.038,0.086l0.037,0.085l0.039,0.086l0.04,0.084l0.04,0.085l0.041,0.083l0.042,0.084l0.043,0.083l0.044,0.083l0.044,0.083l0.045,0.082l0.046,0.081l0.046,0.081l0.048,0.081l0.048,0.08l0.049,0.08l0.05,0.08l0.05,0.079l0.052,0.079l0.051,0.078l0.584,0.859l-0.265,0.926l-0.002,0.008l-0.002,0.008l-0.002,0.009l-0.002,0.009l-0.002,0.008l-0.001,0.009l-0.002,0.009l-0.001,0.009l-0.001,0.008l-0.001,0.01l-0.001,0.009l0,0.01l-0.001,0.01l0,0.009l0,0.019l0,2.006l-0.001,0.085l-0.002,0.092l-0.003,0.092l-0.005,0.091l-0.007,0.092l-0.007,0.091l-0.009,0.091l-0.011,0.092l-0.012,0.09l-0.013,0.091l-0.015,0.092l-0.016,0.09l-0.017,0.089l-0.019,0.091l-0.021,0.09l-0.019,0.081l-0.261,1.045l1.438,0l0,-3.369l0.742,-0.48l2.213,0.996l0.122,0.053Z"/></g><g id="emoji"><g><path d="M27,8.072c1.296,2.058 2,4.457 2,6.928l0,1.004c0,1.636 -0.334,3.237 -0.964,4.712c-0.11,-0.139 -8.036,6.904 -8.036,6.904c-0.971,0.25 -1.977,0.38 -2.996,0.38l-2.008,0c-1.019,0 -2.025,-0.13 -2.996,-0.38c0,0 -7.926,-7.043 -8.036,-6.904c-0.63,-1.475 -0.964,-3.076 -0.964,-4.712l0,-1.004c0,-7.18 5.82,-13 13,-13l0,0c0.029,0 0.057,0 0.086,0c-0.057,0.159 2.911,0.399 2.906,0.349c0.418,0.099 0.83,0.218 1.235,0.357c-0.147,0.237 2.773,1.34 2.773,1.34c0.394,0.251 0.775,0.524 1.141,0.819c-0.092,0.197 2.859,3.207 2.859,3.207Z" style="fill:#fbc546;"/><path d="M24.141,4.865c0.366,0.293 0.717,0.608 1.051,0.943c0.691,0.69 1.296,1.45 1.808,2.264l0,1.428c0,0.398 -0.158,0.779 -0.439,1.061c-0.282,0.281 -0.663,0.439 -1.061,0.439c-0.398,0 -0.779,-0.158 -1.061,-0.439c-0.281,-0.282 -0.439,-0.663 -0.439,-1.061c0,-1.181 0,-2.819 0,-4c0,-0.222 0.049,-0.438 0.141,-0.635Zm-3.914,-2.159c0.973,0.335 1.904,0.784 2.773,1.34l0,4.454c0,0.398 -0.158,0.779 -0.439,1.061c-0.282,0.281 -0.663,0.439 -1.061,0.439c-0.398,0 -0.779,-0.158 -1.061,-0.439c-0.281,-0.282 -0.439,-0.663 -0.439,-1.061c0,-1.43 0,-3.57 0,-5c0,-0.283 0.08,-0.557 0.227,-0.794Zm-4.141,-0.706c0.986,0.007 1.961,0.125 2.906,0.349c0.005,0.05 0.008,0.1 0.008,0.151c0,1.43 0,3.57 0,5c0,0.398 -0.158,0.779 -0.439,1.061c-0.282,0.281 -0.663,0.439 -1.061,0.439c-0.398,0 -0.779,-0.158 -1.061,-0.439c-0.281,-0.282 -0.439,-0.663 -0.439,-1.061c0,-1.43 0,-3.57 0,-5c0,-0.172 0.029,-0.341 0.086,-0.5Z" style="fill:#579aff;"/><path d="M3.964,20.716c0.11,-0.139 0.228,-0.272 0.354,-0.398c0.844,-0.844 1.989,-1.318 3.182,-1.318c0,0 0,0 0,0c1.193,0 2.338,0.474 3.182,1.318c0.844,0.844 1.318,1.989 1.318,3.182l0,4.12c-2.059,-0.531 -3.958,-1.605 -5.486,-3.134c-1.094,-1.093 -1.954,-2.375 -2.55,-3.77Zm16.036,6.904l0,-4.12c0,-1.193 0.474,-2.338 1.318,-3.182c0.844,-0.844 1.989,-1.318 3.182,-1.318c0,0 0,0 0,0c1.193,0 2.338,0.474 3.182,1.318c0.126,0.126 0.244,0.259 0.354,0.398c-0.596,1.395 -1.456,2.677 -2.55,3.77c-1.528,1.529 -3.427,2.603 -5.486,3.134Z" style="fill:#7e5108;"/></g><path d="M27,23.5c0,-1.381 -1.119,-2.5 -2.5,-2.5c-0.663,0 -1.299,0.263 -1.768,0.732c-0.469,0.469 -0.732,1.105 -0.732,1.768l0,6.5l6,0c0,0 -0.615,-2.461 -0.881,-3.522c-0.079,-0.318 -0.119,-0.643 -0.119,-0.97l0,-2.008Z" style="fill:#fbc546;"/><path d="M5,23.5c0,-1.381 1.119,-2.5 2.5,-2.5c0.663,0 1.299,0.263 1.768,0.732c0.469,0.469 0.732,1.105 0.732,1.768l0,6.5l-6,0c0,0 0.615,-2.461 0.881,-3.522c0.079,-0.318 0.119,-0.643 0.119,-0.97l0,-2.008Z" style="fill:#fbc546;"/><g><path d="M13.415,23.523c-0.269,-0.457 -0.415,-0.983 -0.415,-1.523l0,-4c0,-0.796 0.316,-1.559 0.879,-2.121c0.562,-0.563 1.325,-0.879 2.121,-0.879c0.796,0 1.559,0.316 2.121,0.879c0.563,0.562 0.879,1.325 0.879,2.121l0,4c0,0.54 -0.146,1.066 -0.415,1.523c-0.516,-0.931 -4.654,-0.931 -5.17,0Z" style="fill:#722245;"/><path d="M13.415,23.523c0.516,-0.931 1.501,-1.523 2.585,-1.523c0,0 0,0 0,0c1.084,0 2.069,0.592 2.585,1.523c-0.128,0.217 -0.283,0.418 -0.464,0.598c-0.562,0.563 -1.325,0.879 -2.121,0.879c-0.796,0 -1.559,-0.316 -2.121,-0.879c-0.181,-0.18 -0.336,-0.381 -0.464,-0.598Z" style="fill:#ca3b8f;"/></g><path d="M26,11c0,-2.209 -1.791,-4 -4,-4l0,0c-2.209,0 -4,1.791 -4,4l0,0c0,2.209 1.791,4 4,4l0,0c2.209,0 4,-1.791 4,-4l0,0Z" style="fill:#fff;"/><path d="M25,10.998c0,-0.795 -0.316,-1.558 -0.878,-2.12c-0.562,-0.562 -1.325,-0.878 -2.12,-0.878l-0.004,0c-0.795,0 -1.558,0.316 -2.12,0.878c-0.562,0.562 -0.878,1.325 -0.878,2.12l0,0.004c0,0.795 0.316,1.558 0.878,2.12c0.562,0.562 1.325,0.878 2.12,0.878l0.004,0c0.795,0 1.558,-0.316 2.12,-0.878c0.562,-0.562 0.878,-1.325 0.878,-2.12l0,-0.004Z"/><path d="M6,11c0,-2.209 1.791,-4 4,-4l0,0c2.209,0 4,1.791 4,4l0,0c0,2.209 -1.791,4 -4,4l0,0c-2.209,0 -4,-1.791 -4,-4l0,0Z" style="fill:#fff;"/><path d="M13,10.998c0,-0.795 -0.316,-1.558 -0.878,-2.12c-0.562,-0.562 -1.325,-0.878 -2.12,-0.878l-0.004,0c-0.795,0 -1.558,0.316 -2.12,0.878c-0.562,0.562 -0.878,1.325 -0.878,2.12l0,0.004c0,0.795 0.316,1.558 0.878,2.12c0.562,0.562 1.325,0.878 2.12,0.878l0.004,0c0.795,0 1.558,-0.316 2.12,-0.878c0.562,-0.562 0.878,-1.325 0.878,-2.12l0,-0.004Z"/></g></g></svg>