<?xml version="1.0" encoding="UTF-8" standalone="no"?><!DOCTYPE svg PUBLIC "-//W3C//DTD SVG 1.1//EN" "http://www.w3.org/Graphics/SVG/1.1/DTD/svg11.dtd"><svg width="100%" height="100%" viewBox="0 0 32 32" version="1.1" xmlns="http://www.w3.org/2000/svg" xmlns:xlink="http://www.w3.org/1999/xlink" xml:space="preserve" xmlns:serif="http://www.serif.com/" style="fill-rule:evenodd;clip-rule:evenodd;stroke-linejoin:round;stroke-miterlimit:1.41421;"><rect id="scream" x="0" y="0" width="32" height="32" style="fill:none;"/><g id="outline"><path d="M16.195,0.001l0.193,0.004l0.192,0.006l0.192,0.008l0.191,0.011l0.191,0.014l0.19,0.015l0.189,0.018l0.189,0.021l0.188,0.022l0.187,0.025l0.187,0.028l0.185,0.029l0.186,0.032l0.184,0.034l0.183,0.037l0.183,0.038l0.182,0.041l0.182,0.043l0.18,0.045l0.179,0.048l0.179,0.049l0.177,0.052l0.177,0.054l0.176,0.055l0.175,0.058l0.174,0.06l0.173,0.063l0.172,0.064l0.171,0.066l0.17,0.068l0.169,0.07l0.167,0.073l0.167,0.074l0.166,0.076l0.164,0.078l0.164,0.08l0.162,0.082l0.161,0.084l0.16,0.085l0.159,0.088l0.158,0.089l0.156,0.091l0.155,0.093l0.155,0.095l0.152,0.097l0.152,0.098l0.15,0.101l0.149,0.101l0.148,0.104l0.146,0.106l0.145,0.107l0.143,0.108l0.143,0.111l0.14,0.112l0.14,0.113l0.138,0.116l0.137,0.117l0.135,0.119l0.134,0.12l0.132,0.121l0.131,0.124l0.129,0.124l0.128,0.127l0.127,0.128l0.124,0.129l0.124,0.131l0.121,0.132l0.121,0.134l0.118,0.135l0.117,0.137l0.115,0.138l0.114,0.14l0.112,0.14l0.111,0.143l0.108,0.143l0.108,0.145l0.105,0.147l0.103,0.147l0.102,0.149l0.101,0.15l0.098,0.152l0.097,0.153l0.094,0.154l0.093,0.155l0.092,0.156l0.089,0.158l0.088,0.159l0.085,0.16l0.084,0.161l0.082,0.162l0.08,0.164l0.078,0.164l0.076,0.166l0.074,0.167l0.073,0.167l0.07,0.169l0.068,0.17l0.066,0.171l0.064,0.172l0.062,0.173l0.061,0.174l0.058,0.175l0.055,0.176l0.054,0.177l0.052,0.177l0.049,0.179l0.048,0.179l0.045,0.181l0.043,0.181l0.041,0.182l0.038,0.182l0.037,0.184l0.034,0.184l0.032,0.186l0.029,0.186l0.028,0.186l0.025,0.187l0.022,0.188l0.021,0.189l0.018,0.189l0.015,0.19l0.014,0.191l0.011,0.191l0.008,0.192l0.006,0.192l0.004,0.193l0.001,0.187l0,1.02l-0.001,0.161l-0.003,0.167l-0.005,0.167l-0.008,0.166l-0.009,0.166l-0.012,0.164l-0.013,0.165l-0.016,0.164l-0.018,0.164l-0.019,0.163l-0.022,0.162l-0.024,0.162l-0.025,0.16l-0.028,0.161l-0.029,0.16l-0.032,0.159l-0.033,0.158l-0.036,0.158l-0.037,0.157l-0.039,0.156l-0.041,0.156l-0.043,0.154l-0.045,0.154l-0.046,0.153l-0.049,0.153l-0.05,0.151l-0.052,0.151l-0.054,0.15l-0.056,0.149l-0.057,0.148l-0.059,0.147l-0.061,0.146l-0.062,0.146l-0.065,0.144l-0.066,0.144l-0.067,0.142l-0.07,0.142l-0.071,0.141l-0.072,0.14l-0.074,0.138l-0.076,0.138l-0.078,0.136l-0.079,0.136l-0.08,0.134l-0.083,0.134l-0.083,0.132l-0.085,0.131l-0.087,0.13l-0.089,0.13l-0.089,0.127l-0.092,0.127l-0.092,0.126l-0.095,0.124l-0.095,0.123l-0.097,0.122l-0.099,0.121l-0.1,0.12l-0.101,0.118l-0.103,0.117l-0.104,0.116l-0.105,0.115l-0.107,0.113l-0.108,0.112l-0.11,0.111l-0.111,0.11l-0.112,0.108l-0.113,0.107l-0.115,0.105l-0.116,0.104l-0.117,0.103l-0.118,0.101l-0.12,0.1l-0.121,0.099l-0.122,0.097l-0.123,0.095l-0.124,0.095l-0.126,0.092l-0.127,0.092l-0.127,0.089l-0.13,0.089l-0.13,0.086l-0.131,0.086l-0.132,0.083l-0.134,0.083l-0.134,0.08l-0.136,0.079l-0.136,0.078l-0.138,0.076l-0.138,0.074l-0.14,0.072l-0.141,0.071l-0.141,0.07l-0.143,0.067l-0.144,0.066l-0.144,0.065l-0.146,0.062l-0.146,0.061l-0.147,0.059l-0.148,0.057l-0.149,0.056l-0.15,0.054l-0.151,0.052l-0.151,0.05l-0.153,0.049l-0.153,0.046l-0.154,0.045l-0.155,0.043l-0.155,0.041l-0.156,0.039l-0.157,0.037l-0.158,0.036l-0.158,0.033l-0.16,0.032l-0.159,0.029l-0.161,0.028l-0.161,0.025l-0.161,0.024l-0.163,0.022l-0.162,0.019l-0.164,0.018l-0.164,0.016l-0.164,0.013l-0.165,0.012l-0.166,0.009l-0.166,0.008l-0.167,0.005l-0.167,0.003l-0.161,0.001l-4.024,0l-0.161,-0.001l-0.167,-0.003l-0.167,-0.005l-0.166,-0.008l-0.166,-0.009l-0.165,-0.012l-0.164,-0.013l-0.164,-0.016l-0.164,-0.018l-0.162,-0.019l-0.163,-0.022l-0.161,-0.024l-0.161,-0.025l-0.161,-0.028l-0.16,-0.029l-0.159,-0.032l-0.158,-0.033l-0.158,-0.036l-0.157,-0.037l-0.156,-0.039l-0.155,-0.041l-0.155,-0.043l-0.154,-0.045l-0.153,-0.046l-0.153,-0.049l-0.151,-0.05l-0.151,-0.052l-0.15,-0.054l-0.149,-0.056l-0.148,-0.057l-0.147,-0.059l-0.146,-0.061l-0.146,-0.062l-0.144,-0.065l-0.144,-0.066l-0.143,-0.067l-0.141,-0.07l-0.141,-0.071l-0.14,-0.072l-0.138,-0.074l-0.138,-0.076l-0.136,-0.078l-0.136,-0.079l-0.134,-0.08l-0.134,-0.083l-0.132,-0.083l-0.131,-0.086l-0.13,-0.086l-0.13,-0.089l-0.127,-0.089l-0.127,-0.092l-0.126,-0.092l-0.124,-0.095l-0.123,-0.095l-0.122,-0.097l-0.121,-0.099l-0.12,-0.1l-0.118,-0.101l-0.117,-0.103l-0.116,-0.104l-0.115,-0.105l-0.113,-0.107l-0.112,-0.108l-0.111,-0.11l-0.11,-0.111l-0.108,-0.112l-0.107,-0.113l-0.105,-0.115l-0.104,-0.116l-0.103,-0.117l-0.101,-0.118l-0.1,-0.12l-0.099,-0.121l-0.097,-0.122l-0.095,-0.123l-0.095,-0.124l-0.092,-0.126l-0.092,-0.127l-0.089,-0.127l-0.089,-0.13l-0.087,-0.13l-0.085,-0.131l-0.083,-0.132l-0.083,-0.134l-0.08,-0.134l-0.079,-0.136l-0.078,-0.136l-0.076,-0.138l-0.074,-0.138l-0.072,-0.14l-0.071,-0.141l-0.07,-0.142l-0.067,-0.142l-0.066,-0.144l-0.065,-0.144l-0.062,-0.145l-0.061,-0.147l-0.059,-0.147l-0.057,-0.148l-0.056,-0.149l-0.054,-0.15l-0.052,-0.151l-0.05,-0.151l-0.049,-0.153l-0.046,-0.153l-0.045,-0.154l-0.043,-0.154l-0.041,-0.156l-0.039,-0.156l-0.037,-0.157l-0.036,-0.158l-0.033,-0.159l-0.032,-0.158l-0.029,-0.16l-0.028,-0.161l-0.025,-0.16l-0.024,-0.162l-0.022,-0.162l-0.019,-0.163l-0.018,-0.164l-0.016,-0.164l-0.013,-0.165l-0.012,-0.164l-0.009,-0.166l-0.008,-0.166l-0.005,-0.167l-0.003,-0.166l-0.001,-0.161l0,-1.02l0.001,-0.186l0.004,-0.193l0.006,-0.193l0.008,-0.191l0.011,-0.191l0.014,-0.191l0.015,-0.19l0.018,-0.189l0.021,-0.189l0.022,-0.188l0.025,-0.187l0.028,-0.187l0.029,-0.186l0.032,-0.185l0.034,-0.184l0.037,-0.184l0.038,-0.183l0.041,-0.182l0.043,-0.181l0.045,-0.18l0.048,-0.18l0.049,-0.178l0.052,-0.178l0.054,-0.177l0.056,-0.176l0.058,-0.175l0.06,-0.174l0.062,-0.173l0.064,-0.172l0.066,-0.17l0.068,-0.17l0.071,-0.169l0.072,-0.168l0.074,-0.167l0.076,-0.166l0.078,-0.164l0.08,-0.164l0.082,-0.162l0.084,-0.161l0.086,-0.16l0.087,-0.159l0.09,-0.158l0.091,-0.156l0.093,-0.156l0.095,-0.154l0.096,-0.152l0.099,-0.152l0.1,-0.15l0.102,-0.149l0.104,-0.148l0.105,-0.146l0.107,-0.145l0.109,-0.144l0.11,-0.142l0.112,-0.141l0.114,-0.139l0.115,-0.138l0.117,-0.137l0.119,-0.135l0.12,-0.134l0.122,-0.132l0.123,-0.131l0.125,-0.13l0.126,-0.128l0.128,-0.126l0.13,-0.125l0.131,-0.123l0.132,-0.122l0.134,-0.12l0.135,-0.119l0.137,-0.117l0.138,-0.115l0.139,-0.114l0.141,-0.112l0.142,-0.11l0.144,-0.109l0.145,-0.107l0.146,-0.105l0.148,-0.104l0.149,-0.102l0.15,-0.1l0.152,-0.099l0.152,-0.096l0.155,-0.095l0.155,-0.093l0.156,-0.091l0.158,-0.09l0.159,-0.087l0.16,-0.086l0.161,-0.084l0.162,-0.082l0.164,-0.08l0.164,-0.078l0.166,-0.076l0.167,-0.074l0.168,-0.072l0.169,-0.071l0.17,-0.068l0.17,-0.066l0.173,-0.064l0.172,-0.062l0.174,-0.06l0.175,-0.058l0.176,-0.056l0.177,-0.054l0.178,-0.052l0.178,-0.049l0.18,-0.048l0.18,-0.045l0.181,-0.043l0.182,-0.041l0.183,-0.038l0.184,-0.037l0.184,-0.034l0.185,-0.032l0.186,-0.029l0.187,-0.028l0.187,-0.025l0.188,-0.022l0.189,-0.021l0.189,-0.018l0.19,-0.015l0.191,-0.014l0.191,-0.011l0.192,-0.008l0.192,-0.006l0.193,-0.004l0.187,-0.001l0.014,0l0.187,0.001Zm-0.338,4l-0.142,0.003l-0.142,0.004l-0.141,0.006l-0.14,0.008l-0.14,0.01l-0.14,0.012l-0.139,0.013l-0.139,0.015l-0.138,0.017l-0.137,0.018l-0.137,0.02l-0.136,0.022l-0.136,0.023l-0.135,0.025l-0.134,0.027l-0.134,0.028l-0.133,0.03l-0.133,0.031l-0.132,0.033l-0.131,0.035l-0.13,0.036l-0.131,0.038l-0.129,0.039l-0.128,0.041l-0.128,0.043l-0.128,0.043l-0.126,0.046l-0.126,0.047l-0.125,0.048l-0.125,0.05l-0.123,0.052l-0.123,0.052l-0.122,0.055l-0.121,0.056l-0.121,0.057l-0.12,0.058l-0.119,0.06l-0.118,0.062l-0.117,0.062l-0.116,0.065l-0.116,0.065l-0.115,0.067l-0.113,0.068l-0.113,0.07l-0.112,0.071l-0.112,0.072l-0.11,0.073l-0.109,0.075l-0.108,0.076l-0.108,0.078l-0.106,0.078l-0.106,0.08l-0.104,0.081l-0.104,0.083l-0.102,0.083l-0.102,0.085l-0.1,0.086l-0.099,0.087l-0.099,0.088l-0.097,0.09l-0.096,0.09l-0.095,0.092l-0.094,0.093l-0.093,0.094l-0.092,0.095l-0.09,0.096l-0.09,0.097l-0.088,0.099l-0.087,0.099l-0.086,0.1l-0.085,0.102l-0.083,0.102l-0.083,0.104l-0.081,0.104l-0.08,0.106l-0.078,0.106l-0.078,0.108l-0.076,0.108l-0.075,0.109l-0.073,0.11l-0.072,0.112l-0.071,0.112l-0.07,0.113l-0.068,0.113l-0.067,0.115l-0.065,0.116l-0.065,0.116l-0.062,0.118l-0.062,0.117l-0.06,0.119l-0.058,0.12l-0.057,0.121l-0.056,0.121l-0.054,0.122l-0.053,0.123l-0.052,0.124l-0.05,0.124l-0.048,0.125l-0.047,0.126l-0.046,0.126l-0.043,0.128l-0.043,0.128l-0.041,0.128l-0.039,0.129l-0.038,0.131l-0.036,0.13l-0.035,0.131l-0.033,0.132l-0.031,0.133l-0.03,0.133l-0.028,0.134l-0.027,0.134l-0.025,0.135l-0.023,0.136l-0.022,0.136l-0.02,0.137l-0.019,0.138l-0.016,0.137l-0.015,0.139l-0.013,0.139l-0.012,0.139l-0.01,0.141l-0.008,0.14l-0.006,0.141l-0.004,0.142l-0.003,0.142l-0.001,0.15l0,0.992l0.001,0.124l0.002,0.116l0.004,0.116l0.005,0.115l0.006,0.116l0.008,0.114l0.01,0.114l0.011,0.114l0.012,0.113l0.013,0.113l0.015,0.112l0.017,0.112l0.018,0.112l0.019,0.111l0.02,0.11l0.022,0.11l0.023,0.109l0.024,0.109l0.026,0.108l0.027,0.108l0.028,0.107l0.03,0.107l0.031,0.107l0.032,0.105l0.033,0.106l0.035,0.104l0.036,0.104l0.037,0.104l0.039,0.102l0.039,0.103l0.041,0.101l0.042,0.101l0.043,0.101l0.045,0.099l0.045,0.1l0.047,0.098l0.048,0.098l0.049,0.097l0.05,0.097l0.051,0.096l0.053,0.095l0.053,0.094l0.055,0.094l0.056,0.093l0.057,0.092l0.058,0.092l0.059,0.091l0.06,0.09l0.061,0.089l0.062,0.089l0.064,0.088l0.064,0.087l0.065,0.086l0.066,0.086l0.068,0.084l0.068,0.084l0.069,0.083l0.071,0.082l0.071,0.081l0.072,0.081l0.073,0.079l0.074,0.079l0.075,0.078l0.076,0.077l0.077,0.076l0.078,0.075l0.079,0.074l0.079,0.073l0.08,0.072l0.082,0.071l0.082,0.071l0.083,0.069l0.084,0.068l0.084,0.068l0.086,0.066l0.086,0.065l0.087,0.064l0.088,0.064l0.088,0.062l0.09,0.061l0.09,0.06l0.091,0.059l0.091,0.058l0.093,0.057l0.093,0.056l0.094,0.055l0.094,0.053l0.095,0.053l0.096,0.051l0.097,0.05l0.097,0.049l0.098,0.048l0.098,0.047l0.1,0.045l0.099,0.045l0.101,0.043l0.101,0.042l0.102,0.041l0.102,0.039l0.103,0.039l0.103,0.037l0.104,0.036l0.105,0.035l0.105,0.033l0.105,0.032l0.107,0.031l0.107,0.03l0.107,0.028l0.108,0.027l0.108,0.026l0.109,0.024l0.109,0.023l0.11,0.022l0.111,0.02l0.11,0.019l0.112,0.018l0.112,0.017l0.112,0.015l0.113,0.013l0.113,0.012l0.114,0.011l0.114,0.01l0.114,0.008l0.115,0.006l0.116,0.005l0.116,0.004l0.116,0.002l0.123,0.001l4,0l0.123,-0.001l0.116,-0.002l0.116,-0.004l0.116,-0.005l0.115,-0.006l0.114,-0.008l0.114,-0.01l0.114,-0.011l0.113,-0.012l0.113,-0.013l0.112,-0.015l0.112,-0.017l0.112,-0.017l0.11,-0.02l0.111,-0.02l0.11,-0.022l0.109,-0.023l0.109,-0.024l0.108,-0.026l0.108,-0.027l0.108,-0.028l0.106,-0.03l0.107,-0.031l0.105,-0.032l0.105,-0.033l0.105,-0.035l0.104,-0.036l0.103,-0.037l0.103,-0.039l0.102,-0.039l0.102,-0.041l0.101,-0.042l0.101,-0.043l0.099,-0.045l0.1,-0.045l0.098,-0.047l0.098,-0.048l0.097,-0.049l0.097,-0.05l0.096,-0.051l0.095,-0.053l0.094,-0.053l0.094,-0.055l0.093,-0.056l0.093,-0.057l0.091,-0.058l0.091,-0.059l0.09,-0.06l0.09,-0.061l0.088,-0.062l0.088,-0.064l0.087,-0.064l0.086,-0.065l0.086,-0.066l0.084,-0.068l0.084,-0.068l0.083,-0.069l0.082,-0.071l0.082,-0.071l0.08,-0.072l0.079,-0.073l0.079,-0.074l0.078,-0.075l0.077,-0.076l0.076,-0.077l0.075,-0.078l0.074,-0.079l0.073,-0.079l0.072,-0.081l0.071,-0.081l0.071,-0.082l0.069,-0.083l0.068,-0.084l0.068,-0.084l0.066,-0.086l0.065,-0.086l0.064,-0.087l0.064,-0.088l0.062,-0.089l0.061,-0.089l0.06,-0.09l0.059,-0.091l0.058,-0.092l0.057,-0.092l0.056,-0.093l0.055,-0.094l0.053,-0.094l0.053,-0.095l0.051,-0.096l0.05,-0.097l0.049,-0.097l0.048,-0.098l0.047,-0.098l0.045,-0.1l0.045,-0.099l0.043,-0.101l0.042,-0.101l0.041,-0.102l0.039,-0.102l0.039,-0.102l0.037,-0.104l0.036,-0.104l0.035,-0.105l0.033,-0.105l0.032,-0.105l0.031,-0.107l0.03,-0.107l0.028,-0.107l0.027,-0.108l0.026,-0.108l0.024,-0.109l0.023,-0.109l0.022,-0.11l0.02,-0.11l0.019,-0.111l0.018,-0.112l0.017,-0.112l0.015,-0.112l0.013,-0.113l0.012,-0.113l0.011,-0.114l0.01,-0.114l0.008,-0.114l0.006,-0.116l0.005,-0.115l0.004,-0.116l0.002,-0.116l0.001,-0.123l0,-0.996l-0.001,-0.149l-0.003,-0.142l-0.004,-0.141l-0.006,-0.142l-0.008,-0.14l-0.01,-0.14l-0.012,-0.14l-0.013,-0.139l-0.015,-0.138l-0.016,-0.138l-0.019,-0.138l-0.02,-0.137l-0.022,-0.136l-0.023,-0.135l-0.025,-0.135l-0.026,-0.134l-0.029,-0.134l-0.03,-0.134l-0.031,-0.132l-0.033,-0.132l-0.035,-0.131l-0.036,-0.131l-0.038,-0.13l-0.039,-0.129l-0.041,-0.129l-0.042,-0.128l-0.044,-0.127l-0.046,-0.126l-0.047,-0.126l-0.048,-0.126l-0.05,-0.124l-0.051,-0.123l-0.053,-0.123l-0.055,-0.122l-0.055,-0.122l-0.058,-0.12l-0.058,-0.12l-0.06,-0.119l-0.061,-0.118l-0.063,-0.117l-0.064,-0.116l-0.066,-0.116l-0.067,-0.114l-0.068,-0.114l-0.07,-0.113l-0.07,-0.112l-0.073,-0.112l-0.073,-0.11l-0.075,-0.109l-0.076,-0.108l-0.077,-0.108l-0.079,-0.106l-0.08,-0.105l-0.081,-0.105l-0.082,-0.103l-0.084,-0.103l-0.084,-0.101l-0.086,-0.101l-0.087,-0.099l-0.089,-0.098l-0.089,-0.098l-0.091,-0.096l-0.091,-0.095l-0.093,-0.094l-0.094,-0.093l-0.095,-0.091l-0.096,-0.091l-0.098,-0.089l-0.098,-0.089l-0.099,-0.087l-0.101,-0.086l-0.101,-0.084l-0.103,-0.084l-0.103,-0.082l-0.104,-0.081l-0.106,-0.08l-0.106,-0.079l-0.108,-0.077l-0.108,-0.076l-0.109,-0.075l-0.111,-0.073l-0.111,-0.073l-0.112,-0.07l-0.113,-0.07l-0.113,-0.068l-0.115,-0.067l-0.116,-0.066l-0.116,-0.064l-0.117,-0.063l-0.118,-0.061l-0.119,-0.06l-0.12,-0.058l-0.12,-0.058l-0.122,-0.055l-0.122,-0.055l-0.123,-0.053l-0.123,-0.051l-0.125,-0.05l-0.125,-0.048l-0.126,-0.047l-0.126,-0.046l-0.127,-0.044l-0.128,-0.042l-0.129,-0.041l-0.129,-0.039l-0.13,-0.038l-0.131,-0.036l-0.131,-0.035l-0.132,-0.033l-0.132,-0.031l-0.134,-0.03l-0.133,-0.028l-0.135,-0.027l-0.135,-0.025l-0.135,-0.023l-0.137,-0.022l-0.136,-0.02l-0.138,-0.018l-0.138,-0.017l-0.138,-0.015l-0.139,-0.013l-0.14,-0.012l-0.14,-0.01l-0.14,-0.008l-0.141,-0.006l-0.142,-0.004l-0.142,-0.003l-0.144,-0.001l-0.144,0.001Z"/></g><g id="emoji"><g><path d="M7.965,25.201c-2.991,-1.965 -4.965,-5.349 -4.965,-9.195c0,-0.334 0,-0.67 0,-1.006c0,-7.18 5.82,-13 13,-13l0.086,0c0.135,0.158 0.914,0.703 0.914,0.703c0,0 1.995,-0.329 1.992,-0.357c0.421,0.099 0.834,0.218 1.237,0.357c0.149,0.23 1.771,1.297 1.771,1.297l1,0.043c0.396,0.253 0.777,0.527 1.142,0.821c0.087,0.163 0.858,1.136 0.858,1.136l2,2.067c1.267,2.006 2,4.383 2,6.931c0,0.337 0,0.673 0,1.008c0,3.846 -1.974,7.23 -4.965,9.195l-0.035,0.023c-1.724,1.123 -3.783,1.776 -5.994,1.776c-1.328,0 -2.684,0 -4.012,0c-2.211,0 -4.27,-0.653 -5.994,-1.776l-0.035,-0.023Z" style="fill:#fbc546;"/><path d="M24.142,4.864c1.12,0.901 2.088,1.983 2.858,3.203l0,1.433c0,0.398 -0.158,0.779 -0.439,1.061c-0.282,0.281 -0.663,0.439 -1.061,0.439c-0.398,0 -0.779,-0.158 -1.061,-0.439c-0.281,-0.282 -0.439,-0.663 -0.439,-1.061c0,-1.181 0,-2.819 0,-4c0,-0.222 0.049,-0.439 0.142,-0.636Zm-3.913,-2.161c0.982,0.337 1.911,0.789 2.771,1.34l0,4.457c0,0.398 -0.158,0.779 -0.439,1.061c-0.282,0.281 -0.663,0.439 -1.061,0.439c-0.398,0 -0.779,-0.158 -1.061,-0.439c-0.281,-0.282 -0.439,-0.663 -0.439,-1.061c0,-1.43 0,-3.57 0,-5c0,-0.284 0.081,-0.56 0.229,-0.797Zm-4.143,-0.703c0.999,0.007 1.972,0.126 2.906,0.346c0.005,0.051 0.008,0.102 0.008,0.154c0,1.43 0,3.57 0,5c0,0.398 -0.158,0.779 -0.439,1.061c-0.282,0.281 -0.663,0.439 -1.061,0.439c-0.398,0 -0.779,-0.158 -1.061,-0.439c-0.281,-0.282 -0.439,-0.663 -0.439,-1.061c0,-1.43 0,-3.57 0,-5c0,-0.172 0.029,-0.341 0.086,-0.5Z" style="fill:#579aff;"/></g><g><path d="M13.774,23.012c-0.497,-0.551 -0.774,-1.267 -0.774,-2.012c0,-0.965 0,-2.035 0,-3c0,-0.796 0.316,-1.559 0.879,-2.121c0.562,-0.563 1.325,-0.879 2.121,-0.879c0.796,0 1.559,0.316 2.121,0.879c0.563,0.562 0.879,1.325 0.879,2.121c0,0.965 0,2.035 0,3c0,0.745 -0.277,1.461 -0.774,2.012c-0.551,-0.631 -3.901,-0.631 -4.452,0Z" style="fill:#722245;"/><path d="M13.774,23.012c0.551,-0.631 1.357,-1.012 2.226,-1.012c0,0 0,0 0,0c0.869,0 1.675,0.381 2.226,1.012c-0.034,0.037 -0.069,0.074 -0.105,0.109c-0.562,0.563 -1.325,0.879 -2.121,0.879c-0.796,0 -1.559,-0.316 -2.121,-0.879c-0.036,-0.035 -0.071,-0.072 -0.105,-0.109Z" style="fill:#ca3b8f;"/></g><path d="M27,23.5c0,-1.381 -1.119,-2.5 -2.5,-2.5c-0.663,0 -1.299,0.263 -1.768,0.732c-0.469,0.469 -0.732,1.105 -0.732,1.768c0,2.663 0,6.5 0,6.5l6,0c0,0 -0.615,-2.461 -0.881,-3.522c-0.079,-0.318 -0.119,-0.643 -0.119,-0.97c0,-0.479 0,-1.243 0,-2.008Z" style="fill:#fbc546;"/><path d="M24.615,19.001l0.115,0.005l0.114,0.007l0.114,0.01l0.113,0.013l0.112,0.016l0.111,0.018l0.111,0.021l0.109,0.024l0.109,0.027l0.108,0.029l0.107,0.032l0.105,0.034l0.104,0.036l0.104,0.04l0.101,0.041l0.101,0.044l0.099,0.047l0.098,0.048l0.096,0.051l0.095,0.053l0.094,0.055l0.092,0.058l0.091,0.06l0.089,0.061l0.087,0.064l0.085,0.066l0.084,0.067l0.082,0.07l0.081,0.072l0.079,0.073l0.077,0.075l0.075,0.077l0.073,0.079l0.072,0.08l0.07,0.082l0.068,0.085l0.065,0.086l0.064,0.087l0.061,0.089l0.06,0.089l0.057,0.093l0.056,0.094l0.053,0.095l0.051,0.096l0.048,0.098l0.047,0.099l0.044,0.101l0.041,0.101l0.039,0.103l0.037,0.105l0.035,0.106l0.031,0.106l0.029,0.108l0.027,0.109l0.024,0.109l0.021,0.111l0.018,0.111l0.016,0.113l0.013,0.113l0.01,0.113l0.007,0.114l0.005,0.115l0.001,0.102l0,2.013l0,0.039l0.001,0.03l0.001,0.031l0.002,0.03l0.002,0.03l0.002,0.031l0.004,0.03l0.003,0.031l0.004,0.03l0.004,0.03l0.005,0.032l0.006,0.029l0.005,0.03l0.007,0.03l0.007,0.03l0.009,0.037l1.5,6l-10.562,0l0,-8.513l0.001,-0.099l0.004,-0.111l0.007,-0.11l0.01,-0.111l0.012,-0.111l0.015,-0.109l0.018,-0.11l0.02,-0.108l0.023,-0.107l0.026,-0.108l0.028,-0.107l0.03,-0.105l0.034,-0.105l0.036,-0.104l0.037,-0.102l0.041,-0.102l0.044,-0.101l0.045,-0.1l0.049,-0.099l0.05,-0.097l0.053,-0.096l0.055,-0.096l0.058,-0.093l0.06,-0.093l0.062,-0.091l0.065,-0.089l0.067,-0.088l0.069,-0.087l0.072,-0.085l0.073,-0.084l0.076,-0.081l0.078,-0.08l0.08,-0.078l0.082,-0.076l0.083,-0.074l0.085,-0.071l0.087,-0.069l0.088,-0.067l0.089,-0.065l0.091,-0.062l0.093,-0.06l0.094,-0.058l0.095,-0.055l0.096,-0.053l0.097,-0.051l0.099,-0.048l0.1,-0.045l0.101,-0.044l0.102,-0.04l0.102,-0.039l0.104,-0.035l0.105,-0.034l0.106,-0.03l0.106,-0.028l0.107,-0.026l0.108,-0.023l0.108,-0.02l0.109,-0.018l0.11,-0.015l0.11,-0.012l0.111,-0.01l0.111,-0.007l0.111,-0.004l0.112,-0.001l0.115,0.001Zm-0.115,1.999l-0.062,0.001l-0.062,0.002l-0.062,0.004l-0.061,0.005l-0.061,0.007l-0.061,0.008l-0.061,0.01l-0.06,0.011l-0.06,0.013l-0.059,0.014l-0.059,0.016l-0.059,0.017l-0.058,0.019l-0.058,0.019l-0.057,0.022l-0.057,0.022l-0.056,0.024l-0.055,0.026l-0.055,0.026l-0.054,0.029l-0.054,0.029l-0.053,0.031l-0.052,0.032l-0.051,0.033l-0.051,0.035l-0.049,0.036l-0.049,0.037l-0.048,0.038l-0.048,0.04l-0.046,0.041l-0.045,0.042l-0.045,0.043l-0.043,0.045l-0.042,0.045l-0.041,0.046l-0.04,0.048l-0.038,0.048l-0.037,0.049l-0.036,0.049l-0.035,0.051l-0.033,0.051l-0.032,0.052l-0.031,0.053l-0.029,0.054l-0.029,0.054l-0.026,0.055l-0.026,0.055l-0.024,0.056l-0.022,0.057l-0.022,0.057l-0.019,0.058l-0.019,0.058l-0.017,0.059l-0.016,0.059l-0.014,0.059l-0.013,0.06l-0.011,0.06l-0.01,0.061l-0.008,0.061l-0.007,0.061l-0.005,0.061l-0.004,0.062l-0.002,0.062l-0.001,0.062l0,6.5l6,0l-0.881,-3.522l-0.014,-0.06l-0.013,-0.06l-0.013,-0.06l-0.012,-0.06l-0.01,-0.06l-0.01,-0.06l-0.009,-0.061l-0.008,-0.061l-0.007,-0.06l-0.006,-0.061l-0.005,-0.061l-0.004,-0.061l-0.004,-0.062l-0.002,-0.061l-0.002,-0.061l0,-0.061l0,-2.008l-0.001,-0.065l-0.002,-0.064l-0.004,-0.063l-0.006,-0.064l-0.007,-0.062l-0.009,-0.063l-0.01,-0.062l-0.012,-0.061l-0.013,-0.061l-0.015,-0.06l-0.016,-0.059l-0.017,-0.059l-0.019,-0.059l-0.021,-0.058l-0.021,-0.057l-0.023,-0.056l-0.025,-0.056l-0.026,-0.055l-0.026,-0.054l-0.029,-0.054l-0.029,-0.052l-0.031,-0.052l-0.032,-0.051l-0.033,-0.051l-0.034,-0.049l-0.036,-0.049l-0.036,-0.047l-0.038,-0.047l-0.039,-0.046l-0.039,-0.045l-0.041,-0.044l-0.042,-0.043l-0.043,-0.042l-0.044,-0.041l-0.045,-0.039l-0.046,-0.039l-0.047,-0.038l-0.047,-0.036l-0.049,-0.036l-0.049,-0.034l-0.051,-0.033l-0.051,-0.032l-0.052,-0.031l-0.052,-0.029l-0.054,-0.029l-0.054,-0.026l-0.055,-0.026l-0.056,-0.025l-0.056,-0.023l-0.057,-0.021l-0.058,-0.021l-0.059,-0.019l-0.059,-0.017l-0.059,-0.016l-0.06,-0.015l-0.061,-0.013l-0.061,-0.012l-0.062,-0.01l-0.063,-0.009l-0.062,-0.007l-0.064,-0.006l-0.063,-0.004l-0.064,-0.002l-0.065,-0.001l0,0Z"/><path d="M5,23.5c0,-1.381 1.119,-2.5 2.5,-2.5c0.663,0 1.299,0.263 1.768,0.732c0.469,0.469 0.732,1.105 0.732,1.768c0,2.663 0,6.5 0,6.5l-6,0c0,0 0.615,-2.461 0.881,-3.522c0.079,-0.318 0.119,-0.643 0.119,-0.97c0,-0.479 0,-1.243 0,-2.008Z" style="fill:#fbc546;"/><path d="M7.612,19.001l0.111,0.004l0.111,0.007l0.111,0.01l0.11,0.012l0.11,0.015l0.109,0.018l0.108,0.02l0.108,0.023l0.107,0.026l0.106,0.028l0.106,0.03l0.104,0.034l0.104,0.035l0.103,0.039l0.102,0.04l0.101,0.044l0.1,0.045l0.098,0.048l0.098,0.051l0.097,0.053l0.094,0.055l0.094,0.058l0.093,0.06l0.091,0.062l0.089,0.065l0.089,0.067l0.086,0.069l0.085,0.071l0.084,0.074l0.081,0.076l0.08,0.078l0.078,0.08l0.076,0.082l0.073,0.083l0.072,0.085l0.069,0.087l0.067,0.088l0.065,0.09l0.062,0.09l0.06,0.092l0.058,0.094l0.055,0.096l0.053,0.096l0.051,0.098l0.047,0.098l0.046,0.099l0.044,0.102l0.041,0.102l0.038,0.103l0.035,0.103l0.033,0.105l0.031,0.106l0.029,0.107l0.025,0.106l0.023,0.108l0.02,0.108l0.018,0.109l0.015,0.111l0.012,0.11l0.01,0.11l0.007,0.111l0.004,0.111l0.001,0.099l0,8.513l-10.562,0l1.5,-6l0.009,-0.037l0.007,-0.03l0.006,-0.03l0.006,-0.03l0.006,-0.03l0.005,-0.031l0.004,-0.03l0.004,-0.03l0.003,-0.031l0.003,-0.029l0.003,-0.031l0.002,-0.032l0.002,-0.029l0.001,-0.03l0.001,-0.032l0,-0.039l0,-2.011l0.001,-0.103l0.005,-0.115l0.007,-0.114l0.01,-0.114l0.013,-0.113l0.016,-0.112l0.018,-0.111l0.021,-0.111l0.024,-0.109l0.027,-0.109l0.029,-0.108l0.031,-0.106l0.035,-0.106l0.037,-0.105l0.038,-0.102l0.042,-0.102l0.044,-0.101l0.047,-0.099l0.048,-0.098l0.051,-0.096l0.053,-0.095l0.056,-0.094l0.057,-0.092l0.06,-0.09l0.061,-0.089l0.064,-0.087l0.066,-0.087l0.067,-0.084l0.07,-0.082l0.071,-0.08l0.073,-0.079l0.076,-0.077l0.077,-0.076l0.079,-0.073l0.08,-0.071l0.083,-0.07l0.084,-0.067l0.085,-0.066l0.088,-0.064l0.088,-0.061l0.091,-0.06l0.092,-0.058l0.094,-0.055l0.095,-0.053l0.096,-0.051l0.098,-0.048l0.099,-0.047l0.101,-0.044l0.102,-0.041l0.103,-0.04l0.104,-0.036l0.105,-0.034l0.107,-0.032l0.108,-0.029l0.109,-0.027l0.109,-0.024l0.111,-0.021l0.111,-0.018l0.112,-0.016l0.113,-0.013l0.114,-0.01l0.114,-0.007l0.115,-0.005l0.115,-0.001l0.112,0.001Zm-0.112,1.999l-0.065,0.001l-0.064,0.002l-0.063,0.004l-0.064,0.006l-0.062,0.007l-0.063,0.009l-0.062,0.01l-0.061,0.012l-0.061,0.013l-0.06,0.015l-0.059,0.016l-0.059,0.017l-0.059,0.019l-0.058,0.021l-0.057,0.021l-0.056,0.023l-0.056,0.025l-0.055,0.026l-0.054,0.026l-0.054,0.029l-0.052,0.029l-0.052,0.031l-0.051,0.032l-0.051,0.033l-0.049,0.034l-0.049,0.036l-0.047,0.036l-0.047,0.038l-0.046,0.039l-0.045,0.039l-0.044,0.041l-0.043,0.042l-0.042,0.043l-0.041,0.044l-0.039,0.045l-0.039,0.046l-0.038,0.047l-0.036,0.047l-0.036,0.049l-0.034,0.049l-0.033,0.051l-0.032,0.051l-0.031,0.052l-0.029,0.052l-0.029,0.054l-0.026,0.054l-0.026,0.055l-0.025,0.056l-0.023,0.056l-0.021,0.057l-0.021,0.058l-0.019,0.059l-0.017,0.059l-0.016,0.059l-0.015,0.06l-0.013,0.061l-0.012,0.061l-0.01,0.062l-0.009,0.063l-0.007,0.062l-0.006,0.064l-0.004,0.063l-0.002,0.064l-0.001,0.065l0,2.008l0,0.061l-0.002,0.061l-0.002,0.061l-0.004,0.062l-0.004,0.061l-0.005,0.061l-0.006,0.061l-0.007,0.06l-0.008,0.061l-0.009,0.061l-0.01,0.06l-0.01,0.06l-0.012,0.06l-0.013,0.06l-0.013,0.06l-0.014,0.06l-0.881,3.522l6,0l0,-6.5l-0.001,-0.062l-0.002,-0.062l-0.004,-0.062l-0.005,-0.061l-0.007,-0.061l-0.008,-0.061l-0.01,-0.061l-0.011,-0.06l-0.013,-0.06l-0.014,-0.059l-0.016,-0.059l-0.017,-0.059l-0.019,-0.058l-0.019,-0.058l-0.022,-0.057l-0.022,-0.057l-0.024,-0.056l-0.026,-0.055l-0.026,-0.055l-0.029,-0.054l-0.029,-0.054l-0.031,-0.053l-0.032,-0.052l-0.033,-0.051l-0.035,-0.051l-0.036,-0.049l-0.037,-0.049l-0.038,-0.048l-0.04,-0.048l-0.041,-0.046l-0.042,-0.045l-0.043,-0.045l-0.045,-0.043l-0.045,-0.042l-0.046,-0.041l-0.048,-0.04l-0.048,-0.038l-0.049,-0.037l-0.049,-0.036l-0.051,-0.035l-0.051,-0.033l-0.052,-0.032l-0.053,-0.031l-0.054,-0.029l-0.054,-0.029l-0.055,-0.026l-0.055,-0.026l-0.056,-0.024l-0.057,-0.022l-0.057,-0.022l-0.058,-0.019l-0.058,-0.019l-0.059,-0.017l-0.059,-0.016l-0.059,-0.014l-0.06,-0.013l-0.06,-0.011l-0.061,-0.01l-0.061,-0.008l-0.061,-0.007l-0.061,-0.005l-0.062,-0.004l-0.062,-0.002l-0.062,-0.001l0,0Z"/><path d="M26,13c0,-3.314 -2.686,-6 -6,-6c-1.105,0 -2,0.895 -2,2c0,0.313 0,0.65 0,1c0,3.314 2.686,6 6,6c1.105,0 2,-0.895 2,-2c0,-0.313 0,-0.65 0,-1Z"/><path d="M6,13c0,-3.314 2.686,-6 6,-6c1.105,0 2,0.895 2,2c0,0.313 0,0.65 0,1c0,3.314 -2.686,6 -6,6c-1.105,0 -2,-0.895 -2,-2c0,-0.313 0,-0.65 0,-1Z"/></g></svg>