<?xml version="1.0" encoding="UTF-8" standalone="no"?>
<!DOCTYPE svg PUBLIC "-//W3C//DTD SVG 1.1//EN" "http://www.w3.org/Graphics/SVG/1.1/DTD/svg11.dtd">
<svg width="100%" height="100%" viewBox="0 0 32 32" version="1.1" xmlns="http://www.w3.org/2000/svg" xmlns:xlink="http://www.w3.org/1999/xlink" xml:space="preserve" xmlns:serif="http://www.serif.com/" style="fill-rule:evenodd;clip-rule:evenodd;stroke-linejoin:round;stroke-miterlimit:2;">
    <rect id="scream" x="0" y="0" width="32" height="32" style="fill:none;"/>
    <clipPath id="_clip1">
        <rect x="0" y="0" width="32" height="32"/>
    </clipPath>
    <g clip-path="url(#_clip1)">
        <g id="outline">
            <path d="M16,0c3.978,0 7.794,1.58 10.607,4.393c2.813,2.813 4.393,6.629 4.393,10.607l0,1.004c0,2.567 -0.705,5.062 -2.009,7.224c0.006,0.09 0.009,0.181 0.009,0.272l0,2.008c0,0.163 0.02,0.326 0.06,0.485l1.502,6.007l-10.562,0l0,-2.324c-0.976,0.214 -1.981,0.324 -2.996,0.324l-2.008,0c-1.015,0 -2.02,-0.11 -2.996,-0.324l0,2.324l-10.562,0l1.502,-6.007c0.04,-0.159 0.06,-0.322 0.06,-0.485l0,-2.008c0,-0.091 0.003,-0.182 0.009,-0.272c-1.304,-2.162 -2.009,-4.657 -2.009,-7.224l0,-1.004c0,-8.284 6.716,-15 15,-15l0,0Z"/>
        </g>
        <g id="emoji">
            <g>
                <path d="M21.967,9.902c-6.633,-0.28 -16.11,-0.056 -18.195,0.674c1.809,-5.001 6.601,-8.576 12.228,-8.576l0.081,0c0.307,0.002 0.614,0.015 0.919,0.039c0.94,0.362 1.937,0.567 3,0.592c0.338,0.109 0.672,0.232 1,0.369c0,0 0.829,6.848 0.96,6.899l0.007,0.003Zm5.983,-0.019c0.098,0.228 0.189,0.458 0.274,0.692c-0.152,0.041 -0.624,-0.008 -0.839,-0.054c0.127,-0.162 0.405,-0.476 0.565,-0.638Zm-3.95,-5.13c0.346,0.27 0.68,0.559 1,0.866l0.671,3.791c0.002,0.204 -0.341,0.631 -0.55,0.681l0.002,0.004c-0.674,-0.058 -2.422,-0.108 -3.224,-0.149l0.002,-0.001c0.147,-0.041 2.099,-5.192 2.099,-5.192Z" style="fill:#7aafff;"/>
                <path d="M25,5.619c0.065,0.062 0.129,0.125 0.192,0.189c1.182,1.181 2.113,2.567 2.758,4.075c-0.052,0.198 -0.144,0.384 -0.272,0.545c-0.613,-0.131 -1.492,-0.242 -2.555,-0.333l-0.002,-0.004c-0.079,-0.188 -0.12,-0.387 -0.121,-0.591l0,-3.881Zm-4,-2.619c1.069,0.446 2.079,1.034 3,1.753l0,3.747c-0.001,0.142 -0.02,0.282 -0.06,0.419c-0.099,0.343 -0.323,0.644 -0.623,0.839c-0.129,0.083 -0.269,0.146 -0.416,0.187l-0.002,0.001c-0.303,-0.016 -0.614,-0.03 -0.932,-0.044l-0.007,-0.003c-0.131,-0.051 -0.255,-0.119 -0.367,-0.204c-0.26,-0.198 -0.451,-0.479 -0.538,-0.794c-0.037,-0.131 -0.054,-0.265 -0.055,-0.401l0,-5.5Zm-4,-0.961c1.026,0.079 2.032,0.279 3,0.592l0,4.869c-0.001,0.191 -0.036,0.38 -0.107,0.557c-0.053,0.131 -0.123,0.254 -0.21,0.365c-0.297,0.382 -0.773,0.6 -1.257,0.576c-0.172,-0.008 -0.341,-0.047 -0.5,-0.112c-0.17,-0.071 -0.327,-0.172 -0.46,-0.299c-0.142,-0.136 -0.258,-0.3 -0.337,-0.479c-0.085,-0.192 -0.128,-0.399 -0.129,-0.608l0,-5.461Z" style="fill:#3988ff;"/>
                <path d="M3.964,20.716c-0.63,-1.475 -0.964,-3.076 -0.964,-4.712l0,-1.004c0,-1.553 0.272,-3.042 0.772,-4.424c3.011,-1.054 6.179,-1.593 9.372,-1.593l5.712,0c3.191,0 6.358,0.539 9.368,1.592c0.509,1.405 0.776,2.901 0.776,4.425l0,1.004c0,1.636 -0.334,3.237 -0.964,4.712c-0.819,-1.038 -8.036,6.904 -8.036,6.904c-0.971,0.25 -1.977,0.38 -2.996,0.38l-2.008,0c-1.019,0 -2.025,-0.13 -2.996,-0.38c0,0 -7.212,-7.949 -8.036,-6.904Z" style="fill:#fbc546;"/>
                <path d="M3.964,20.716c0.824,-1.045 2.102,-1.716 3.536,-1.716l0.028,0c1.183,0.007 2.317,0.481 3.154,1.318c0.844,0.844 1.318,1.989 1.318,3.182l0,4.12c-2.058,-0.531 -3.958,-1.605 -5.486,-3.134c-1.094,-1.093 -1.954,-2.375 -2.55,-3.77Zm16.036,6.904l0,-4.12c0,-1.193 0.474,-2.338 1.318,-3.182c0.844,-0.844 1.989,-1.318 3.182,-1.318l0.029,0c1.422,0.009 2.688,0.678 3.507,1.716c-0.596,1.395 -1.456,2.677 -2.55,3.77c-1.528,1.529 -3.428,2.603 -5.486,3.134Z" style="fill:#7e5108;"/>
            </g>
            <path d="M9.498,16c-0.928,0 -1.817,-0.369 -2.473,-1.025c-0.656,-0.656 -1.025,-1.545 -1.025,-2.473c0,-0.657 0,-1.345 0,-2.002c0,-1.933 1.567,-3.5 3.5,-3.5l0.002,0c0.928,0 1.817,0.369 2.473,1.025c0.656,0.656 1.025,1.545 1.025,2.473c0,0.657 0,1.345 0,2.002c0,1.933 -1.567,3.5 -3.5,3.5l-0.002,0Z" style="fill:#fff;"/>
            <path d="M12,10.5c0,-0.663 -0.263,-1.299 -0.732,-1.768c-0.469,-0.469 -1.105,-0.732 -1.768,-0.732c-1.381,0 -2.5,1.119 -2.5,2.5l0,1.983c0,0.663 0.263,1.299 0.732,1.768c0.469,0.469 1.105,0.732 1.768,0.732c1.381,0 2.5,-1.119 2.5,-2.5l0,-1.983Z"/>
            <path d="M22.502,16c0.928,0 1.817,-0.369 2.473,-1.025c0.656,-0.656 1.025,-1.545 1.025,-2.473c0,-0.657 0,-1.345 0,-2.002c0,-1.933 -1.567,-3.5 -3.5,-3.5l-0.002,0c-0.928,0 -1.817,0.369 -2.473,1.025c-0.656,0.656 -1.025,1.545 -1.025,2.473c0,0.657 0,1.345 0,2.002c0,1.933 1.567,3.5 3.5,3.5l0.002,0Z" style="fill:#fff;"/>
            <path d="M20,10.5c0,-0.663 0.263,-1.299 0.732,-1.768c0.469,-0.469 1.105,-0.732 1.768,-0.732c1.381,0 2.5,1.119 2.5,2.5l0,1.983c0,0.663 -0.263,1.299 -0.732,1.768c-0.469,0.469 -1.105,0.732 -1.768,0.732c-1.381,0 -2.5,-1.119 -2.5,-2.5l0,-1.983Z"/>
            <path d="M27,23.5c0,-1.381 -1.119,-2.5 -2.5,-2.5c-0.663,0 -1.299,0.263 -1.768,0.732c-0.469,0.469 -0.732,1.105 -0.732,1.768l0,6.5l6,0c0,0 -0.615,-2.461 -0.881,-3.522c-0.079,-0.318 -0.119,-0.643 -0.119,-0.97l0,-2.008Zm-17,6.5l-6,0c0,0 0.615,-2.461 0.881,-3.522c0.079,-0.318 0.119,-0.643 0.119,-0.97l0,-2.008c0,-1.381 1.119,-2.5 2.5,-2.5c0.663,0 1.299,0.263 1.768,0.732c0.469,0.469 0.732,1.105 0.732,1.768l0,6.5Z" style="fill:#fbc546;"/>
            <g>
                <path d="M13.415,23.523c-0.269,-0.457 -0.415,-0.983 -0.415,-1.523l0,-4c0,-0.796 0.316,-1.559 0.879,-2.121c0.562,-0.563 1.325,-0.879 2.121,-0.879c0.796,0 1.559,0.316 2.121,0.879c0.563,0.562 0.879,1.325 0.879,2.121l0,4c0,0.54 -0.146,1.066 -0.415,1.523c-0.516,-0.931 -4.654,-0.931 -5.17,0Z" style="fill:#722245;"/>
                <path d="M13.415,23.523c0.516,-0.931 1.501,-1.523 2.585,-1.523c0,0 0,0 0,0c1.084,0 2.069,0.592 2.585,1.523c-0.128,0.217 -0.283,0.418 -0.464,0.598c-0.562,0.563 -1.325,0.879 -2.121,0.879c-0.796,0 -1.559,-0.316 -2.121,-0.879c-0.181,-0.18 -0.336,-0.381 -0.464,-0.598Z" style="fill:#ca3b8f;"/>
            </g>
        </g>
    </g>
</svg>
