<?xml version="1.0" encoding="UTF-8" standalone="no"?><!DOCTYPE svg PUBLIC "-//W3C//DTD SVG 1.1//EN" "http://www.w3.org/Graphics/SVG/1.1/DTD/svg11.dtd"><svg width="100%" height="100%" viewBox="0 0 32 32" version="1.1" xmlns="http://www.w3.org/2000/svg" xmlns:xlink="http://www.w3.org/1999/xlink" xml:space="preserve" xmlns:serif="http://www.serif.com/" style="fill-rule:evenodd;clip-rule:evenodd;stroke-linejoin:round;stroke-miterlimit:2;"><rect id="shocked" x="0" y="0" width="32" height="32" style="fill:none;"/><clipPath id="_clip1"><rect x="0" y="0" width="32" height="32"/></clipPath><g clip-path="url(#_clip1)"><g id="outline"><path d="M15.249,2.002l0.125,0.003l0.124,0.003l0.124,0.005l0.124,0.005l0.123,0.007l0.123,0.007l0.123,0.009l0.123,0.009l0.123,0.011l0.122,0.011l0.122,0.013l0.121,0.013l0.122,0.015l0.121,0.015l0.121,0.017l0.12,0.017l0.121,0.018l0.119,0.019l0.12,0.021l0.119,0.021l0.119,0.022l0.119,0.023l0.118,0.024l0.118,0.025l0.118,0.025l0.117,0.027l0.117,0.028l0.117,0.028l0.116,0.03l0.116,0.03l0.116,0.031l0.115,0.032l0.115,0.033l0.114,0.034l0.114,0.035l0.114,0.036l0.113,0.036l0.113,0.038l0.112,0.038l0.113,0.039l0.111,0.04l0.112,0.041l0.11,0.042l0.111,0.042l0.11,0.044l0.109,0.044l0.109,0.045l0.109,0.046l0.108,0.046l0.108,0.048l0.108,0.048l0.106,0.049l0.107,0.05l0.106,0.051l0.106,0.052l0.104,0.052l0.105,0.053l0.104,0.054l0.104,0.055l0.103,0.055l0.103,0.057l0.102,0.057l0.101,0.058l0.102,0.058l0.1,0.06l0.1,0.06l0.1,0.061l0.099,0.061l0.099,0.063l0.098,0.063l0.097,0.064l0.097,0.064l0.097,0.066l0.096,0.066l0.095,0.066l0.095,0.068l0.094,0.068l0.094,0.069l0.078,0.058l0,-2.024l0.003,-0.128l0.012,-0.152l0.019,-0.149l0.026,-0.148l0.034,-0.146l0.041,-0.144l0.047,-0.14l0.054,-0.136l0.06,-0.134l0.067,-0.129l0.072,-0.126l0.078,-0.122l0.084,-0.118l0.088,-0.112l0.094,-0.109l0.099,-0.104l0.104,-0.099l0.109,-0.094l0.113,-0.089l0.117,-0.083l0.122,-0.078l0.126,-0.072l0.129,-0.067l0.134,-0.06l0.136,-0.054l0.14,-0.047l0.144,-0.041l0.146,-0.034l0.148,-0.026l0.15,-0.019l0.151,-0.012l0.128,-0.003l2.05,0l0.128,0.003l0.151,0.012l0.15,0.019l0.148,0.026l0.146,0.034l0.144,0.041l0.14,0.047l0.136,0.054l0.134,0.06l0.129,0.067l0.126,0.072l0.122,0.078l0.117,0.083l0.113,0.089l0.109,0.094l0.104,0.099l0.099,0.104l0.094,0.109l0.088,0.112l0.084,0.118l0.078,0.122l0.072,0.126l0.067,0.129l0.06,0.134l0.054,0.136l0.047,0.14l0.041,0.144l0.034,0.146l0.026,0.148l0.019,0.149l0.012,0.152l0.003,0.128l0,7.05l-0.003,0.128l-0.012,0.152l-0.019,0.149l-0.026,0.148l-0.034,0.146l-0.041,0.144l-0.047,0.14l-0.054,0.136l-0.06,0.134l-0.067,0.129l-0.072,0.126l-0.078,0.122l-0.084,0.118l-0.088,0.112l-0.094,0.109l-0.099,0.104l-0.104,0.099l-0.078,0.067l0.02,0.022l0.064,0.072l0.062,0.073l0.06,0.074l0.058,0.076l0.057,0.078l0.055,0.08l0.053,0.08l0.05,0.081l0.05,0.084l0.047,0.084l0.045,0.086l0.043,0.087l0.042,0.088l0.039,0.089l0.037,0.091l0.034,0.091l0.033,0.093l0.031,0.094l0.028,0.095l0.026,0.096l0.024,0.096l0.021,0.098l0.019,0.098l0.016,0.099l0.014,0.1l0.012,0.1l0.009,0.101l0.006,0.102l0.004,0.102l0.001,0.102l-0.001,0.102l-0.004,0.102l-0.006,0.102l-0.009,0.101l-0.012,0.1l-0.014,0.1l-0.016,0.099l-0.019,0.098l-0.021,0.098l-0.024,0.096l-0.026,0.096l-0.028,0.095l-0.031,0.094l-0.033,0.093l-0.034,0.091l-0.037,0.091l-0.039,0.089l-0.041,0.088l-0.044,0.087l-0.045,0.086l-0.048,0.085l-0.049,0.083l-0.05,0.081l-0.053,0.08l-0.055,0.08l-0.057,0.078l-0.058,0.076l-0.06,0.074l-0.062,0.073l-0.064,0.072l-0.065,0.07l-0.067,0.068l-0.068,0.067l-0.07,0.065l-0.072,0.064l-0.073,0.062l-0.074,0.06l-0.077,0.058l-0.077,0.057l-0.079,0.054l-0.081,0.053l-0.081,0.051l-0.076,0.045l0,0.542l-0.001,0.155l-0.003,0.162l-0.005,0.161l-0.007,0.16l-0.009,0.161l-0.011,0.16l-0.013,0.16l-0.015,0.16l-0.016,0.159l-0.019,0.159l-0.021,0.158l-0.022,0.159l-0.025,0.158l-0.026,0.157l-0.029,0.157l-0.03,0.156l-0.032,0.156l-0.034,0.155l-0.036,0.156l-0.038,0.154l-0.04,0.154l-0.041,0.153l-0.044,0.153l-0.045,0.152l-0.047,0.152l-0.049,0.15l-0.051,0.151l-0.052,0.149l-0.055,0.149l-0.056,0.148l-0.058,0.148l-0.059,0.147l-0.062,0.146l-0.064,0.145l-0.064,0.145l-0.067,0.144l-0.069,0.143l-0.07,0.142l-0.073,0.141l-0.073,0.141l-0.076,0.139l-0.077,0.139l-0.079,0.138l-0.081,0.137l-0.083,0.135l-0.084,0.135l-0.086,0.134l-0.087,0.133l-0.089,0.132l-0.091,0.131l-0.093,0.13l-0.094,0.129l-0.096,0.128l-0.097,0.127l-0.099,0.125l-0.101,0.125l-0.102,0.123l-0.104,0.123l-0.106,0.12l-0.107,0.12l-0.109,0.119l-0.11,0.117l-0.112,0.117l-0.113,0.114l-0.115,0.114l-0.117,0.112l-0.117,0.11l-0.119,0.109l-0.12,0.107l-0.121,0.106l-0.122,0.104l-0.123,0.102l-0.125,0.101l-0.125,0.099l-0.127,0.097l-0.128,0.096l-0.129,0.094l-0.13,0.093l-0.131,0.091l-0.132,0.089l-0.133,0.087l-0.134,0.086l-0.135,0.084l-0.136,0.083l-0.136,0.081l-0.138,0.079l-0.139,0.077l-0.139,0.076l-0.141,0.073l-0.141,0.073l-0.142,0.07l-0.143,0.069l-0.144,0.066l-0.145,0.066l-0.145,0.063l-0.146,0.061l-0.147,0.06l-0.147,0.058l-0.149,0.056l-0.149,0.055l-0.149,0.052l-0.15,0.051l-0.152,0.049l-0.151,0.047l-0.152,0.045l-0.153,0.044l-0.153,0.041l-0.154,0.04l-0.155,0.038l-0.155,0.036l-0.155,0.034l-0.156,0.032l-0.156,0.03l-0.157,0.029l-0.158,0.026l-0.157,0.025l-0.158,0.022l-0.159,0.021l-0.159,0.019l-0.159,0.016l-0.16,0.015l-0.16,0.013l-0.16,0.011l-0.16,0.009l-0.161,0.007l-0.161,0.005l-0.162,0.003l-0.155,0.001l-4.012,0l-0.156,-0.001l-0.161,-0.003l-0.161,-0.005l-0.161,-0.007l-0.16,-0.009l-0.16,-0.011l-0.16,-0.013l-0.16,-0.015l-0.159,-0.016l-0.159,-0.019l-0.159,-0.021l-0.158,-0.022l-0.157,-0.025l-0.158,-0.026l-0.157,-0.029l-0.156,-0.03l-0.156,-0.032l-0.155,-0.034l-0.155,-0.036l-0.155,-0.038l-0.154,-0.04l-0.153,-0.041l-0.153,-0.044l-0.152,-0.045l-0.151,-0.047l-0.151,-0.049l-0.151,-0.051l-0.149,-0.052l-0.149,-0.055l-0.149,-0.056l-0.147,-0.058l-0.147,-0.06l-0.146,-0.061l-0.145,-0.063l-0.145,-0.066l-0.144,-0.066l-0.143,-0.069l-0.142,-0.07l-0.141,-0.073l-0.141,-0.073l-0.139,-0.076l-0.139,-0.077l-0.138,-0.079l-0.136,-0.081l-0.136,-0.083l-0.135,-0.084l-0.134,-0.086l-0.133,-0.087l-0.132,-0.089l-0.131,-0.091l-0.13,-0.093l-0.129,-0.094l-0.128,-0.096l-0.127,-0.097l-0.125,-0.099l-0.125,-0.101l-0.123,-0.102l-0.123,-0.104l-0.12,-0.106l-0.12,-0.107l-0.119,-0.109l-0.117,-0.11l-0.117,-0.112l-0.114,-0.114l-0.114,-0.114l-0.112,-0.117l-0.11,-0.117l-0.109,-0.119l-0.107,-0.119l-0.106,-0.121l-0.104,-0.123l-0.102,-0.123l-0.101,-0.125l-0.099,-0.125l-0.097,-0.127l-0.096,-0.128l-0.094,-0.129l-0.093,-0.13l-0.091,-0.13l-0.089,-0.133l-0.087,-0.133l-0.086,-0.134l-0.084,-0.135l-0.083,-0.135l-0.081,-0.137l-0.079,-0.138l-0.077,-0.139l-0.076,-0.139l-0.073,-0.141l-0.073,-0.141l-0.07,-0.143l-0.069,-0.142l-0.066,-0.144l-0.066,-0.145l-0.063,-0.145l-0.061,-0.146l-0.06,-0.147l-0.058,-0.148l-0.056,-0.148l-0.055,-0.149l-0.052,-0.149l-0.051,-0.151l-0.049,-0.15l-0.047,-0.152l-0.045,-0.152l-0.044,-0.153l-0.041,-0.153l-0.04,-0.154l-0.038,-0.155l-0.036,-0.154l-0.034,-0.156l-0.032,-0.156l-0.03,-0.156l-0.029,-0.157l-0.026,-0.158l-0.025,-0.157l-0.022,-0.158l-0.021,-0.159l-0.019,-0.159l-0.016,-0.159l-0.015,-0.16l-0.013,-0.16l-0.011,-0.16l-0.009,-0.16l-0.007,-0.161l-0.005,-0.161l-0.003,-0.161l-0.001,-0.156l0,-2.013l0.001,-0.186l0.004,-0.193l0.006,-0.193l0.008,-0.191l0.011,-0.191l0.014,-0.191l0.015,-0.19l0.018,-0.189l0.021,-0.189l0.022,-0.188l0.025,-0.187l0.028,-0.187l0.029,-0.186l0.032,-0.185l0.034,-0.184l0.037,-0.184l0.038,-0.183l0.041,-0.182l0.043,-0.181l0.045,-0.18l0.048,-0.18l0.049,-0.178l0.052,-0.178l0.054,-0.177l0.056,-0.176l0.058,-0.175l0.06,-0.173l0.062,-0.174l0.064,-0.171l0.066,-0.171l0.068,-0.17l0.071,-0.169l0.072,-0.168l0.074,-0.167l0.076,-0.166l0.078,-0.164l0.08,-0.164l0.082,-0.162l0.084,-0.161l0.086,-0.16l0.087,-0.159l0.089,-0.158l0.092,-0.156l0.093,-0.156l0.095,-0.153l0.096,-0.153l0.099,-0.152l0.1,-0.15l0.102,-0.149l0.104,-0.148l0.105,-0.146l0.107,-0.145l0.109,-0.144l0.11,-0.142l0.112,-0.141l0.114,-0.139l0.115,-0.138l0.117,-0.137l0.119,-0.135l0.12,-0.134l0.122,-0.133l0.123,-0.13l0.125,-0.13l0.126,-0.128l0.128,-0.126l0.13,-0.125l0.131,-0.123l0.132,-0.122l0.134,-0.12l0.135,-0.119l0.137,-0.117l0.138,-0.115l0.139,-0.114l0.141,-0.112l0.142,-0.11l0.144,-0.109l0.145,-0.107l0.146,-0.105l0.148,-0.104l0.149,-0.102l0.15,-0.1l0.152,-0.099l0.152,-0.096l0.155,-0.095l0.155,-0.093l0.156,-0.091l0.158,-0.09l0.159,-0.087l0.16,-0.086l0.161,-0.084l0.162,-0.082l0.164,-0.08l0.164,-0.078l0.166,-0.076l0.167,-0.074l0.168,-0.072l0.169,-0.071l0.17,-0.068l0.171,-0.066l0.171,-0.064l0.174,-0.062l0.173,-0.06l0.175,-0.058l0.176,-0.056l0.177,-0.054l0.178,-0.052l0.178,-0.049l0.18,-0.048l0.18,-0.045l0.181,-0.043l0.182,-0.041l0.183,-0.038l0.184,-0.037l0.184,-0.034l0.185,-0.032l0.186,-0.029l0.187,-0.028l0.187,-0.025l0.188,-0.022l0.189,-0.021l0.189,-0.018l0.19,-0.015l0.191,-0.014l0.191,-0.011l0.192,-0.008l0.192,-0.006l0.193,-0.004l0.191,-0.001l0.127,0l0.124,0.002Zm-0.392,3.999l-0.142,0.003l-0.142,0.004l-0.141,0.006l-0.14,0.008l-0.14,0.01l-0.14,0.012l-0.139,0.013l-0.139,0.015l-0.138,0.017l-0.137,0.018l-0.137,0.02l-0.136,0.022l-0.136,0.023l-0.135,0.025l-0.134,0.027l-0.134,0.028l-0.133,0.03l-0.133,0.031l-0.132,0.033l-0.131,0.035l-0.131,0.036l-0.129,0.038l-0.13,0.039l-0.128,0.041l-0.128,0.043l-0.128,0.044l-0.126,0.045l-0.126,0.047l-0.125,0.048l-0.124,0.05l-0.124,0.052l-0.123,0.053l-0.122,0.054l-0.121,0.056l-0.121,0.057l-0.12,0.058l-0.119,0.06l-0.118,0.062l-0.117,0.062l-0.116,0.065l-0.116,0.065l-0.115,0.067l-0.113,0.068l-0.113,0.07l-0.112,0.071l-0.112,0.072l-0.11,0.073l-0.109,0.075l-0.108,0.076l-0.108,0.078l-0.106,0.078l-0.106,0.08l-0.104,0.081l-0.104,0.083l-0.102,0.083l-0.102,0.085l-0.1,0.086l-0.099,0.087l-0.099,0.088l-0.097,0.09l-0.096,0.09l-0.095,0.092l-0.094,0.093l-0.093,0.094l-0.092,0.095l-0.09,0.096l-0.09,0.097l-0.088,0.099l-0.087,0.099l-0.086,0.1l-0.085,0.102l-0.083,0.102l-0.083,0.104l-0.081,0.104l-0.08,0.106l-0.078,0.106l-0.078,0.108l-0.076,0.108l-0.075,0.109l-0.073,0.111l-0.072,0.11l-0.071,0.112l-0.07,0.114l-0.068,0.114l-0.067,0.114l-0.065,0.116l-0.065,0.116l-0.062,0.118l-0.062,0.117l-0.06,0.119l-0.058,0.12l-0.057,0.121l-0.056,0.121l-0.055,0.122l-0.052,0.123l-0.052,0.124l-0.05,0.124l-0.048,0.125l-0.047,0.126l-0.046,0.126l-0.043,0.128l-0.043,0.128l-0.041,0.128l-0.039,0.129l-0.038,0.13l-0.036,0.131l-0.035,0.131l-0.033,0.132l-0.031,0.133l-0.03,0.133l-0.028,0.134l-0.027,0.134l-0.025,0.136l-0.023,0.135l-0.022,0.136l-0.02,0.137l-0.018,0.137l-0.017,0.139l-0.015,0.138l-0.013,0.139l-0.012,0.14l-0.01,0.14l-0.008,0.14l-0.006,0.142l-0.004,0.141l-0.003,0.142l-0.001,0.15l0,1.987l0.001,0.118l0.002,0.112l0.003,0.111l0.005,0.111l0.006,0.111l0.008,0.112l0.009,0.11l0.01,0.11l0.012,0.111l0.013,0.11l0.014,0.109l0.016,0.11l0.017,0.109l0.018,0.109l0.02,0.109l0.021,0.108l0.022,0.108l0.023,0.107l0.025,0.108l0.027,0.107l0.027,0.106l0.029,0.106l0.03,0.106l0.031,0.105l0.033,0.105l0.034,0.105l0.035,0.104l0.036,0.103l0.038,0.103l0.039,0.103l0.04,0.103l0.041,0.101l0.043,0.101l0.044,0.101l0.045,0.1l0.046,0.1l0.048,0.099l0.048,0.098l0.05,0.098l0.051,0.097l0.053,0.097l0.053,0.096l0.055,0.095l0.056,0.095l0.057,0.094l0.058,0.093l0.06,0.093l0.06,0.092l0.062,0.091l0.063,0.091l0.064,0.09l0.065,0.089l0.066,0.089l0.068,0.088l0.068,0.087l0.07,0.086l0.071,0.085l0.072,0.085l0.073,0.083l0.074,0.083l0.076,0.083l0.076,0.081l0.077,0.08l0.079,0.08l0.08,0.079l0.08,0.077l0.081,0.076l0.083,0.076l0.082,0.074l0.084,0.073l0.085,0.072l0.085,0.071l0.086,0.07l0.087,0.068l0.088,0.068l0.089,0.066l0.089,0.065l0.09,0.064l0.09,0.063l0.092,0.062l0.092,0.06l0.093,0.06l0.093,0.058l0.094,0.057l0.095,0.056l0.095,0.055l0.096,0.053l0.097,0.053l0.097,0.051l0.098,0.05l0.098,0.048l0.099,0.048l0.1,0.046l0.1,0.045l0.101,0.044l0.101,0.043l0.101,0.041l0.103,0.04l0.102,0.039l0.103,0.038l0.104,0.036l0.104,0.036l0.105,0.033l0.104,0.033l0.106,0.031l0.106,0.03l0.106,0.029l0.106,0.028l0.107,0.026l0.107,0.025l0.108,0.023l0.108,0.022l0.108,0.021l0.109,0.02l0.109,0.018l0.109,0.017l0.109,0.016l0.11,0.014l0.11,0.013l0.11,0.012l0.111,0.01l0.111,0.009l0.11,0.008l0.112,0.006l0.111,0.005l0.112,0.003l0.111,0.002l0.118,0.001l3.988,0l0.118,-0.001l0.111,-0.002l0.112,-0.003l0.111,-0.005l0.112,-0.006l0.11,-0.008l0.111,-0.009l0.111,-0.01l0.11,-0.012l0.11,-0.013l0.11,-0.014l0.109,-0.016l0.109,-0.017l0.109,-0.018l0.109,-0.02l0.108,-0.021l0.108,-0.022l0.108,-0.023l0.107,-0.025l0.107,-0.026l0.106,-0.028l0.106,-0.029l0.106,-0.03l0.106,-0.031l0.104,-0.033l0.105,-0.033l0.104,-0.036l0.104,-0.036l0.103,-0.038l0.102,-0.039l0.103,-0.04l0.101,-0.041l0.101,-0.043l0.101,-0.044l0.1,-0.045l0.1,-0.046l0.099,-0.048l0.098,-0.048l0.098,-0.05l0.097,-0.051l0.097,-0.053l0.096,-0.053l0.095,-0.055l0.095,-0.056l0.094,-0.057l0.093,-0.058l0.093,-0.06l0.092,-0.06l0.092,-0.062l0.09,-0.063l0.09,-0.064l0.089,-0.065l0.089,-0.066l0.088,-0.068l0.087,-0.068l0.086,-0.07l0.085,-0.071l0.085,-0.072l0.084,-0.073l0.082,-0.074l0.083,-0.076l0.081,-0.076l0.08,-0.077l0.08,-0.079l0.079,-0.08l0.077,-0.08l0.076,-0.081l0.076,-0.083l0.074,-0.082l0.073,-0.084l0.072,-0.085l0.071,-0.085l0.07,-0.086l0.068,-0.087l0.068,-0.088l0.066,-0.089l0.065,-0.089l0.064,-0.09l0.063,-0.09l0.062,-0.092l0.06,-0.092l0.06,-0.092l0.058,-0.094l0.057,-0.094l0.056,-0.095l0.055,-0.095l0.053,-0.096l0.053,-0.097l0.051,-0.097l0.05,-0.098l0.049,-0.099l0.047,-0.098l0.046,-0.1l0.045,-0.1l0.044,-0.101l0.043,-0.101l0.041,-0.102l0.04,-0.102l0.039,-0.102l0.038,-0.104l0.036,-0.103l0.035,-0.104l0.034,-0.105l0.033,-0.105l0.031,-0.105l0.03,-0.106l0.029,-0.106l0.028,-0.106l0.026,-0.107l0.025,-0.107l0.023,-0.108l0.022,-0.108l0.021,-0.108l0.02,-0.109l0.018,-0.109l0.017,-0.109l0.016,-0.109l0.014,-0.11l0.013,-0.11l0.012,-0.11l0.01,-0.111l0.009,-0.111l0.008,-0.111l0.006,-0.111l0.005,-0.111l0.003,-0.112l0.002,-0.111l0.001,-0.118l0,-3.729l-0.546,-1.698l-0.041,-0.124l-0.043,-0.123l-0.044,-0.122l-0.046,-0.122l-0.047,-0.121l-0.049,-0.121l-0.049,-0.119l-0.052,-0.119l-0.052,-0.119l-0.054,-0.117l-0.055,-0.117l-0.057,-0.116l-0.058,-0.115l-0.059,-0.115l-0.231,-0.434l-0.252,-0.395l-0.046,-0.072l-0.047,-0.071l-0.048,-0.071l-0.048,-0.071l-0.049,-0.07l-0.049,-0.07l-0.049,-0.07l-0.051,-0.069l-0.051,-0.069l-0.051,-0.068l-0.052,-0.068l-0.052,-0.067l-0.053,-0.067l-0.053,-0.066l-0.054,-0.067l-0.054,-0.066l-0.055,-0.065l-0.055,-0.065l-0.056,-0.064l-0.056,-0.064l-0.057,-0.064l-0.058,-0.063l-0.057,-0.063l-0.059,-0.062l-0.058,-0.062l-0.06,-0.061l-0.059,-0.061l-0.06,-0.061l-0.061,-0.06l-0.061,-0.059l-0.061,-0.059l-0.063,-0.059l-0.062,-0.058l-0.063,-0.057l-0.063,-0.057l-0.064,-0.057l-0.064,-0.056l-0.065,-0.056l-0.065,-0.055l-0.065,-0.055l-0.066,-0.054l-0.066,-0.054l-0.067,-0.053l-0.067,-0.052l-0.068,-0.053l-0.068,-0.051l-0.068,-0.051l-0.069,-0.051l-0.069,-0.05l-0.07,-0.049l-0.07,-0.049l-0.07,-0.049l-0.071,-0.048l-0.071,-0.047l-0.072,-0.047l-0.072,-0.046l-0.072,-0.046l-0.073,-0.045l-0.073,-0.045l-0.073,-0.044l-0.074,-0.043l-0.074,-0.043l-0.075,-0.043l-0.075,-0.042l-0.075,-0.041l-0.076,-0.041l-0.075,-0.04l-0.077,-0.039l-0.076,-0.039l-0.077,-0.039l-0.078,-0.037l-0.077,-0.037l-0.078,-0.037l-0.078,-0.036l-0.079,-0.035l-0.079,-0.035l-0.079,-0.034l-0.08,-0.034l-0.08,-0.033l-0.08,-0.032l-0.08,-0.032l-0.081,-0.031l-0.081,-0.031l-0.081,-0.03l-0.082,-0.029l-0.082,-0.028l-0.082,-0.028l-0.083,-0.028l-0.083,-0.027l-0.083,-0.026l-0.084,-0.025l-0.083,-0.025l-0.084,-0.024l-0.084,-0.024l-0.085,-0.022l-0.085,-0.023l-0.085,-0.021l-0.085,-0.021l-0.086,-0.02l-0.086,-0.02l-0.086,-0.019l-0.086,-0.018l-0.087,-0.017l-0.087,-0.017l-0.087,-0.016l-0.087,-0.016l-0.088,-0.015l-0.088,-0.014l-0.088,-0.013l-0.088,-0.013l-0.089,-0.012l-0.089,-0.011l-0.089,-0.011l-0.089,-0.009l-0.089,-0.01l-0.09,-0.008l-0.09,-0.008l-0.09,-0.007l-0.091,-0.006l-0.09,-0.006l-0.091,-0.005l-0.091,-0.004l-0.092,-0.003l-0.091,-0.003l-0.092,-0.001l-0.092,-0.002l-0.09,0l-0.145,0.001Z"/></g><g id="emoji"><path d="M28,17c0,-7.18 -5.82,-13 -13,-13l0,0c-7.18,0 -13,5.82 -13,13l0,2c0,2.917 1.159,5.715 3.222,7.778c2.063,2.063 4.861,3.222 7.778,3.222l4,0c2.917,0 5.715,-1.159 7.778,-3.222c2.063,-2.063 3.222,-4.861 3.222,-7.778l0,-2Z" style="fill:#fbc546;"/><clipPath id="_clip2"><path d="M28,17c0,-7.18 -5.82,-13 -13,-13l0,0c-7.18,0 -13,5.82 -13,13l0,2c0,2.917 1.159,5.715 3.222,7.778c2.063,2.063 4.861,3.222 7.778,3.222l4,0c2.917,0 5.715,-1.159 7.778,-3.222c2.063,-2.063 3.222,-4.861 3.222,-7.778l0,-2Z"/></clipPath><g clip-path="url(#_clip2)"><path d="M29.153,0.003l0.151,0.012l0.15,0.019l0.148,0.026l0.146,0.034l0.143,0.041l0.141,0.047l0.137,0.054l0.133,0.06l0.13,0.067l0.125,0.072l0.122,0.078l0.117,0.084l0.114,0.088l0.108,0.094l0.104,0.099l0.099,0.104l0.094,0.109l0.088,0.113l0.084,0.117l0.078,0.122l0.072,0.126l0.067,0.129l0.06,0.133l0.054,0.137l0.047,0.141l0.041,0.143l0.034,0.146l0.026,0.148l0.019,0.149l0.012,0.152l0.003,0.128l0,7.05l-0.003,0.128l-0.012,0.152l-0.019,0.149l-0.026,0.148l-0.034,0.146l-0.041,0.143l-0.047,0.141l-0.054,0.137l-0.06,0.133l-0.067,0.129l-0.072,0.126l-0.078,0.122l-0.084,0.117l-0.088,0.113l-0.094,0.109l-0.099,0.104l-0.104,0.099l-0.108,0.094l-0.114,0.088l-0.117,0.084l-0.122,0.078l-0.126,0.072l-0.129,0.067l-0.133,0.06l-0.137,0.054l-0.141,0.047l-0.143,0.041l-0.146,0.034l-0.148,0.026l-0.15,0.019l-0.151,0.012l-0.128,0.003l-2.05,0l-0.128,-0.003l-0.151,-0.012l-0.15,-0.019l-0.149,-0.026l-0.145,-0.034l-0.143,-0.041l-0.141,-0.047l-0.136,-0.054l-0.134,-0.06l-0.13,-0.067l-0.125,-0.072l-0.122,-0.078l-0.117,-0.084l-0.113,-0.088l-0.109,-0.094l-0.104,-0.099l-0.099,-0.104l-0.094,-0.109l-0.088,-0.113l-0.084,-0.117l-0.078,-0.122l-0.072,-0.126l-0.067,-0.129l-0.06,-0.133l-0.054,-0.137l-0.047,-0.141l-0.041,-0.143l-0.034,-0.145l-0.026,-0.149l-0.019,-0.15l-0.012,-0.152l-0.003,-0.127l0,-7.05l0.003,-0.127l0.012,-0.152l0.019,-0.15l0.026,-0.149l0.034,-0.145l0.041,-0.143l0.047,-0.141l0.054,-0.137l0.06,-0.133l0.067,-0.129l0.072,-0.126l0.078,-0.122l0.084,-0.117l0.088,-0.113l0.094,-0.109l0.099,-0.104l0.104,-0.099l0.109,-0.094l0.113,-0.088l0.117,-0.084l0.122,-0.078l0.125,-0.072l0.13,-0.067l0.134,-0.06l0.136,-0.054l0.141,-0.047l0.143,-0.041l0.145,-0.034l0.149,-0.026l0.15,-0.019l0.151,-0.012l0.128,-0.003l2.05,0l0.128,0.003Z" style="fill:#e59a10;"/><circle cx="28" cy="15" r="2" style="fill:#d92020;"/><path d="M28.102,11.001l0.102,0.004l0.102,0.006l0.101,0.009l0.1,0.012l0.1,0.014l0.099,0.016l0.098,0.019l0.098,0.021l0.097,0.024l0.095,0.026l0.095,0.028l0.094,0.031l0.092,0.032l0.092,0.035l0.091,0.037l0.089,0.04l0.088,0.041l0.087,0.043l0.086,0.045l0.085,0.047l0.083,0.05l0.081,0.051l0.081,0.053l0.079,0.054l0.077,0.057l0.076,0.058l0.075,0.06l0.074,0.063l0.071,0.063l0.07,0.065l0.069,0.067l0.066,0.068l0.065,0.07l0.064,0.072l0.062,0.073l0.06,0.074l0.058,0.077l0.056,0.077l0.055,0.079l0.053,0.08l0.052,0.083l0.049,0.083l0.047,0.084l0.045,0.085l0.043,0.088l0.041,0.087l0.039,0.09l0.038,0.091l0.035,0.092l0.032,0.092l0.031,0.095l0.028,0.093l0.026,0.096l0.024,0.097l0.021,0.098l0.019,0.098l0.016,0.1l0.014,0.099l0.012,0.1l0.008,0.101l0.007,0.101l0.004,0.103l0.001,0.102l-0.001,0.102l-0.004,0.103l-0.007,0.101l-0.008,0.101l-0.012,0.1l-0.014,0.099l-0.016,0.1l-0.019,0.098l-0.021,0.098l-0.024,0.097l-0.026,0.096l-0.028,0.093l-0.031,0.095l-0.032,0.092l-0.035,0.092l-0.038,0.091l-0.039,0.09l-0.041,0.087l-0.043,0.088l-0.045,0.085l-0.047,0.084l-0.049,0.083l-0.052,0.083l-0.053,0.08l-0.055,0.079l-0.056,0.077l-0.058,0.077l-0.06,0.074l-0.062,0.073l-0.064,0.072l-0.065,0.07l-0.066,0.068l-0.069,0.067l-0.07,0.065l-0.071,0.063l-0.074,0.063l-0.075,0.06l-0.076,0.058l-0.077,0.057l-0.079,0.054l-0.081,0.053l-0.081,0.051l-0.083,0.05l-0.085,0.047l-0.086,0.045l-0.087,0.043l-0.088,0.041l-0.089,0.04l-0.091,0.037l-0.092,0.035l-0.092,0.032l-0.094,0.031l-0.095,0.028l-0.095,0.026l-0.097,0.024l-0.098,0.021l-0.098,0.019l-0.099,0.016l-0.1,0.014l-0.1,0.012l-0.101,0.009l-0.102,0.006l-0.102,0.004l-0.102,0.001l-0.102,-0.001l-0.102,-0.004l-0.102,-0.006l-0.101,-0.009l-0.1,-0.012l-0.1,-0.014l-0.099,-0.016l-0.098,-0.019l-0.098,-0.021l-0.097,-0.024l-0.095,-0.026l-0.095,-0.028l-0.094,-0.031l-0.092,-0.032l-0.092,-0.035l-0.091,-0.037l-0.089,-0.04l-0.088,-0.041l-0.087,-0.043l-0.086,-0.045l-0.085,-0.047l-0.083,-0.05l-0.081,-0.051l-0.081,-0.053l-0.079,-0.054l-0.077,-0.057l-0.076,-0.058l-0.075,-0.06l-0.074,-0.063l-0.071,-0.063l-0.07,-0.065l-0.069,-0.067l-0.066,-0.068l-0.065,-0.07l-0.064,-0.072l-0.062,-0.073l-0.06,-0.074l-0.058,-0.077l-0.056,-0.077l-0.055,-0.079l-0.053,-0.08l-0.052,-0.083l-0.049,-0.083l-0.047,-0.084l-0.045,-0.085l-0.043,-0.088l-0.041,-0.087l-0.039,-0.09l-0.038,-0.091l-0.035,-0.092l-0.032,-0.092l-0.031,-0.095l-0.028,-0.093l-0.026,-0.096l-0.024,-0.097l-0.021,-0.098l-0.019,-0.098l-0.016,-0.1l-0.014,-0.099l-0.012,-0.1l-0.008,-0.101l-0.007,-0.101l-0.004,-0.103l-0.001,-0.102l0.001,-0.102l0.004,-0.103l0.007,-0.101l0.008,-0.101l0.012,-0.1l0.014,-0.099l0.016,-0.1l0.019,-0.098l0.021,-0.098l0.024,-0.097l0.026,-0.096l0.028,-0.093l0.031,-0.095l0.032,-0.092l0.035,-0.092l0.038,-0.091l0.039,-0.09l0.041,-0.087l0.043,-0.088l0.045,-0.085l0.047,-0.084l0.049,-0.083l0.052,-0.083l0.053,-0.08l0.055,-0.079l0.056,-0.077l0.058,-0.077l0.06,-0.074l0.062,-0.073l0.064,-0.072l0.065,-0.07l0.066,-0.068l0.069,-0.067l0.07,-0.065l0.071,-0.063l0.074,-0.063l0.075,-0.06l0.076,-0.058l0.077,-0.057l0.079,-0.054l0.081,-0.053l0.081,-0.051l0.083,-0.05l0.085,-0.047l0.086,-0.045l0.087,-0.043l0.088,-0.041l0.089,-0.04l0.091,-0.037l0.092,-0.035l0.092,-0.032l0.094,-0.031l0.095,-0.028l0.095,-0.026l0.097,-0.024l0.098,-0.021l0.098,-0.019l0.099,-0.016l0.1,-0.014l0.1,-0.012l0.101,-0.009l0.102,-0.006l0.102,-0.004l0.102,-0.001l0.102,0.001Z" style="fill:#e59a10;"/></g><g><path d="M8.794,24.381c-0.308,0.038 -0.621,-0.07 -0.842,-0.299c-0.267,-0.277 -0.351,-0.684 -0.216,-1.045c0.173,-0.461 0.364,-0.972 0.561,-1.495c1.024,-2.732 3.636,-4.542 6.554,-4.542c0.099,0 0.199,0 0.298,0c2.918,0 5.53,1.81 6.554,4.542c0.197,0.523 0.388,1.034 0.561,1.495c0.135,0.361 0.051,0.768 -0.216,1.045c-0.221,0.229 -0.534,0.337 -0.842,0.299c-1.96,-2.445 -10.505,-2.468 -12.412,0Z" style="fill:#722245;"/><path d="M8.794,24.381c1.342,-2.081 3.666,-3.381 6.205,-3.381c0.001,0 0.001,0 0.002,0c2.539,0 4.863,1.3 6.205,3.381c-0.065,-0.008 -0.131,-0.023 -0.195,-0.044c-0.978,-0.326 -2.119,-0.706 -2.933,-0.978c-0.714,-0.238 -1.462,-0.359 -2.214,-0.359c-0.541,0 -1.187,0 -1.728,0c-0.752,0 -1.5,0.121 -2.214,0.359c-0.814,0.272 -1.955,0.652 -2.933,0.978c-0.064,0.021 -0.13,0.036 -0.195,0.044Z" style="fill:#ca3b8f;"/></g><path d="M11,10.5c0,-0.398 -0.158,-0.779 -0.439,-1.061c-0.282,-0.281 -0.663,-0.439 -1.061,-0.439c-0.398,0 -0.779,0.158 -1.061,0.439c-0.281,0.282 -0.439,0.663 -0.439,1.061c0,1.181 0,2.819 0,4c0,0.398 0.158,0.779 0.439,1.061c0.282,0.281 0.663,0.439 1.061,0.439c0.398,0 0.779,-0.158 1.061,-0.439c0.281,-0.282 0.439,-0.663 0.439,-1.061c0,-1.181 0,-2.819 0,-4Z"/><path d="M22,10.498c0,-0.397 -0.158,-0.778 -0.439,-1.059c-0.281,-0.281 -0.662,-0.439 -1.059,-0.439c-0.001,0 -0.003,0 -0.004,0c-0.397,0 -0.778,0.158 -1.059,0.439c-0.281,0.281 -0.439,0.662 -0.439,1.059c0,1.182 0,2.822 0,4.004c0,0.397 0.158,0.778 0.439,1.059c0.281,0.281 0.662,0.439 1.059,0.439c0.001,0 0.003,0 0.004,0c0.397,0 0.778,-0.158 1.059,-0.439c0.281,-0.281 0.439,-0.662 0.439,-1.059c0,-1.182 0,-2.822 0,-4.004Z"/><path d="M30,3c0,-0.552 -0.448,-1 -1,-1c-0.611,0 -1.389,0 -2,0c-0.552,0 -1,0.448 -1,1c0,1.732 0,5.268 0,7c0,0.552 0.448,1 1,1c0.611,0 1.389,0 2,0c0.552,0 1,-0.448 1,-1c0,-1.732 0,-5.268 0,-7Z" style="fill:#fff;"/><circle cx="28" cy="15" r="2" style="fill:#fff;"/></g></g></svg>