<?xml version="1.0" encoding="UTF-8" standalone="no"?>
<!DOCTYPE svg PUBLIC "-//W3C//DTD SVG 1.1//EN" "http://www.w3.org/Graphics/SVG/1.1/DTD/svg11.dtd">
<svg width="100%" height="100%" viewBox="0 0 32 32" version="1.1" xmlns="http://www.w3.org/2000/svg" xmlns:xlink="http://www.w3.org/1999/xlink" xml:space="preserve" xmlns:serif="http://www.serif.com/" style="fill-rule:evenodd;clip-rule:evenodd;stroke-linejoin:round;stroke-miterlimit:2;">
    <rect id="shocked" x="0" y="0" width="32" height="32" style="fill:none;"/>
    <clipPath id="_clip1">
        <rect x="0" y="0" width="32" height="32"/>
    </clipPath>
    <g clip-path="url(#_clip1)">
        <g id="outline">
            <path d="M29,0c1.657,0 3,1.343 3,3c0,1.732 0,5.268 0,7c0,0.917 -0.412,1.739 -1.061,2.288c0.659,0.713 1.061,1.666 1.061,2.712c0,1.479 -0.805,2.772 -2,3.463l0,0.537c0,3.448 -1.37,6.754 -3.808,9.192c-2.438,2.438 -5.744,3.808 -9.192,3.808c-1.324,0 -2.676,0 -4,0c-3.448,0 -6.754,-1.37 -9.192,-3.808c-2.438,-2.438 -3.808,-5.744 -3.808,-9.192l0,-2c0,-8.284 6.716,-15 15,-15l0,0c3.377,0 6.493,1.116 9,2.999l0,-1.999c0,-1.657 1.343,-3 3,-3l2,0Z"/>
        </g>
        <g id="emoji">
            <g>
                <path d="M15.042,4c3.477,0.011 6.632,1.387 8.958,3.619c0,0 1.006,1.924 1.684,4.663c0.73,2.944 1.172,6.718 2.316,6.718c0,2.917 -1.159,5.715 -3.222,7.778c-2.063,2.063 -4.861,3.222 -7.778,3.222l-4,0c-2.917,0 -5.715,-1.159 -7.778,-3.222c-2.063,-2.063 -3.222,-4.861 -3.222,-7.778l0,-2c0,-7.18 5.82,-13 13,-13l0.042,0Z" style="fill:#fbc546;"/>
                <path d="M24,7.619c2.465,2.366 4,5.694 4,9.381l0,2c-2.208,0 -4,-1.792 -4,-4c0,-1.046 0.402,-1.998 1.06,-2.711c-0.648,-0.551 -1.06,-1.372 -1.06,-2.289l0,-2.381Z" style="fill:#e59a10;"/>
            </g>
            <path d="M28,13c1.104,0 2,0.896 2,2c0,1.104 -0.896,2 -2,2c-1.104,0 -2,-0.896 -2,-2c0,-1.104 0.896,-2 2,-2Zm1,-11c0.552,0 1,0.448 1,1c0,1.732 0,5.268 0,7c0,0.552 -0.448,1 -1,1c-0.611,0 -1.389,0 -2,0c-0.552,0 -1,-0.448 -1,-1c0,-1.732 0,-5.268 0,-7c0,-0.552 0.448,-1 1,-1l2,0Z" style="fill:#fff;"/>
            <g>
                <path d="M20.192,8.253l4.769,2.725c0.026,0.17 0.039,0.345 0.039,0.522c0,0.657 0,1.345 0,2.002c0,0.928 -0.369,1.817 -1.025,2.473c-0.656,0.656 -1.545,1.025 -2.473,1.025l-0.002,0c-1.933,0 -3.5,-1.567 -3.5,-3.5c0,-0.657 0,-1.345 0,-2.002c0,-0.928 0.369,-1.817 1.025,-2.473c0.336,-0.337 0.734,-0.598 1.167,-0.772Z" style="fill:#fff;"/>
                <path d="M9.808,8.253l-4.769,2.725c-0.026,0.17 -0.039,0.345 -0.039,0.522c0,0.657 0,1.345 0,2.002c0,0.928 0.369,1.817 1.025,2.473c0.656,0.656 1.545,1.025 2.473,1.025l0.002,0c1.933,0 3.5,-1.567 3.5,-3.5c0,-0.657 0,-1.345 0,-2.002c0,-0.928 -0.369,-1.817 -1.025,-2.473c-0.336,-0.337 -0.734,-0.598 -1.167,-0.772Z" style="fill:#fff;"/>
                <path d="M19,12c0,-0.53 0.211,-1.039 0.586,-1.414c0.375,-0.375 0.884,-0.586 1.414,-0.586c0.53,0 1.039,0.211 1.414,0.586c0.375,0.375 0.586,0.884 0.586,1.414c0,0.329 0,0.671 0,1c0,0.53 -0.211,1.039 -0.586,1.414c-0.375,0.375 -0.884,0.586 -1.414,0.586c-0.53,0 -1.039,-0.211 -1.414,-0.586c-0.375,-0.375 -0.586,-0.884 -0.586,-1.414c0,-0.329 0,-0.671 0,-1Z"/>
                <path d="M11,12c0,-0.53 -0.211,-1.039 -0.586,-1.414c-0.375,-0.375 -0.884,-0.586 -1.414,-0.586c-0.53,0 -1.039,0.211 -1.414,0.586c-0.375,0.375 -0.586,0.884 -0.586,1.414c0,0.329 0,0.671 0,1c0,0.53 0.211,1.039 0.586,1.414c0.375,0.375 0.884,0.586 1.414,0.586c0.53,0 1.039,-0.211 1.414,-0.586c0.375,-0.375 0.586,-0.884 0.586,-1.414c0,-0.329 0,-0.671 0,-1Z"/>
            </g>
            <path d="M8.989,24.337c-0.366,0.122 -0.769,0.023 -1.037,-0.255c-0.267,-0.277 -0.351,-0.684 -0.216,-1.045c0.173,-0.461 0.364,-0.972 0.561,-1.495c1.024,-2.732 3.636,-4.542 6.554,-4.542c0.099,0 0.199,0 0.298,0c2.918,0 5.53,1.81 6.554,4.542c0.197,0.523 0.388,1.034 0.561,1.495c0.135,0.361 0.051,0.768 -0.216,1.045c-0.268,0.278 -0.671,0.377 -1.037,0.255c-0.978,-0.326 -2.119,-0.706 -2.933,-0.978c-0.714,-0.238 -1.462,-0.359 -2.214,-0.359c-0.541,0 -1.187,0 -1.728,0c-0.752,0 -1.5,0.121 -2.214,0.359c-0.814,0.272 -1.955,0.652 -2.933,0.978Z" style="fill:#722245;"/>
            <clipPath id="_clip2">
                <path d="M8.989,24.337c-0.366,0.122 -0.769,0.023 -1.037,-0.255c-0.267,-0.277 -0.351,-0.684 -0.216,-1.045c0.173,-0.461 0.364,-0.972 0.561,-1.495c1.024,-2.732 3.636,-4.542 6.554,-4.542c0.099,0 0.199,0 0.298,0c2.918,0 5.53,1.81 6.554,4.542c0.197,0.523 0.388,1.034 0.561,1.495c0.135,0.361 0.051,0.768 -0.216,1.045c-0.268,0.278 -0.671,0.377 -1.037,0.255c-0.978,-0.326 -2.119,-0.706 -2.933,-0.978c-0.714,-0.238 -1.462,-0.359 -2.214,-0.359c-0.541,0 -1.187,0 -1.728,0c-0.752,0 -1.5,0.121 -2.214,0.359c-0.814,0.272 -1.955,0.652 -2.933,0.978Z"/>
            </clipPath>
            <g clip-path="url(#_clip2)">
                <path d="M8,26c0,0 0.054,-0.134 0.143,-0.358c1.122,-2.804 3.837,-4.642 6.856,-4.642c0.001,0 0.001,0 0.002,0c3.019,0 5.734,1.838 6.856,4.642c0.089,0.224 0.143,0.358 0.143,0.358l-14,0Z" style="fill:#ca3b8f;"/>
            </g>
        </g>
    </g>
</svg>
