<?xml version="1.0" encoding="UTF-8" standalone="no"?>
<!DOCTYPE svg PUBLIC "-//W3C//DTD SVG 1.1//EN" "http://www.w3.org/Graphics/SVG/1.1/DTD/svg11.dtd">
<svg width="100%" height="100%" viewBox="0 0 32 32" version="1.1" xmlns="http://www.w3.org/2000/svg" xmlns:xlink="http://www.w3.org/1999/xlink" xml:space="preserve" xmlns:serif="http://www.serif.com/" style="fill-rule:evenodd;clip-rule:evenodd;stroke-linejoin:round;stroke-miterlimit:2;">
    <rect id="sleepy" x="0" y="0" width="32" height="32" style="fill:none;"/>
    <clipPath id="_clip1">
        <rect x="0" y="0" width="32" height="32"/>
    </clipPath>
    <g clip-path="url(#_clip1)">
        <g id="outline">
            <path d="M16,2c8.837,0 16,7.163 16,16c0,0.335 0,0.668 0,1c0,2.154 -0.524,4.186 -1.452,5.975c0.292,0.634 0.452,1.335 0.452,2.064c0,0 0,0.001 0,0.001c0,1.315 -0.523,2.577 -1.453,3.507c-0.93,0.93 -2.192,1.453 -3.507,1.453c0,0 -0.001,0 -0.001,0c-0.957,0 -1.867,-0.276 -2.64,-0.765c-1.374,0.495 -2.855,0.765 -4.399,0.765c-1.972,0 -4.028,0 -6,0c-7.18,0 -13,-5.82 -13,-13c0,-0.332 0,-0.665 0,-1c0,-8.837 7.163,-16 16,-16l0,0Z"/>
        </g>
        <g id="emoji">
            <g>
                <path d="M16.091,4c7.69,0.049 13.909,6.298 13.909,14c0,0.335 0,0.668 0,1c0,1.487 -0.295,2.905 -0.83,4.199c-0.406,-0.329 -7.51,6.172 -7.348,6.436c-0.901,0.238 -1.847,0.365 -2.822,0.365c-1.972,0 -4.028,0 -6,0c-6.075,0 -11,-4.925 -11,-11c0,-0.332 0,-0.665 0,-1c0,-7.732 6.268,-14 14,-14l0.091,0Z" style="fill:#fbc546;"/>
                <path d="M21.822,29.635c-0.162,-0.264 -0.299,-0.545 -0.411,-0.842c-0.887,-2.366 -2.284,-6.091 -2.284,-6.091c-0.275,-0.734 -0.096,-1.562 0.459,-2.116c0.554,-0.555 1.382,-0.734 2.116,-0.459c0,0 3.725,1.397 6.091,2.284c0.508,0.191 0.971,0.459 1.377,0.788c-1.299,3.144 -4.013,5.553 -7.348,6.436Z" style="fill:#e59a10;"/>
            </g>
            <path d="M21,22c0,0 1.397,3.725 2.284,6.091c0.431,1.148 1.528,1.909 2.755,1.909c0,0 0.001,0 0.001,0c0.785,0 1.538,-0.312 2.093,-0.867c0.555,-0.555 0.867,-1.308 0.867,-2.093l0,-0.001c0,-1.227 -0.761,-2.324 -1.909,-2.755c-2.366,-0.887 -6.091,-2.284 -6.091,-2.284Z" style="fill:#fff;"/>
            <g>
                <path d="M11.172,25.895c-0.164,-0.082 -0.305,-0.208 -0.405,-0.369c-0.182,-0.295 -0.198,-0.663 -0.043,-0.973c0.056,-0.112 0.113,-0.227 0.17,-0.342c0.678,-1.355 2.063,-2.211 3.578,-2.211c0.972,0 2.084,0 3.056,0c1.515,0 2.9,0.856 3.578,2.211c0.057,0.115 0.114,0.23 0.17,0.342c0.155,0.31 0.139,0.678 -0.043,0.973c-0.1,0.161 -0.241,0.287 -0.405,0.369c-0.926,-0.572 -8.73,-0.572 -9.656,0Z" style="fill:#722245;"/>
                <path d="M11.172,25.895c0.926,-0.572 2.011,-0.895 3.153,-0.895c1.09,0 2.26,0 3.35,0c1.142,0 2.227,0.323 3.153,0.895c-0.136,0.068 -0.289,0.105 -0.446,0.105c-2.295,0 -6.469,0 -8.764,0c-0.157,0 -0.31,-0.037 -0.446,-0.105Z" style="fill:#ca3b8f;"/>
            </g>
            <path d="M22.5,18.586l2.293,-2.293c0.39,-0.39 1.024,-0.39 1.414,0c0.39,0.39 0.39,1.024 0,1.414l-3.707,3.707l-3.707,-3.707c-0.39,-0.39 -0.39,-1.024 0,-1.414c0.39,-0.39 1.024,-0.39 1.414,0l2.293,2.293Z"/>
            <path d="M9.5,18.586l2.293,-2.293c0.39,-0.39 1.024,-0.39 1.414,0c0.39,0.39 0.39,1.024 0,1.414l-3.707,3.707l-3.707,-3.707c-0.39,-0.39 -0.39,-1.024 0,-1.414c0.39,-0.39 1.024,-0.39 1.414,0l2.293,2.293Z"/>
        </g>
    </g>
</svg>
