<?xml version="1.0" encoding="UTF-8" standalone="no"?><!DOCTYPE svg PUBLIC "-//W3C//DTD SVG 1.1//EN" "http://www.w3.org/Graphics/SVG/1.1/DTD/svg11.dtd"><svg width="100%" height="100%" viewBox="0 0 32 32" version="1.1" xmlns="http://www.w3.org/2000/svg" xmlns:xlink="http://www.w3.org/1999/xlink" xml:space="preserve" xmlns:serif="http://www.serif.com/" style="fill-rule:evenodd;clip-rule:evenodd;stroke-linecap:round;stroke-linejoin:round;stroke-miterlimit:2;"><rect id="sleepy" x="0" y="0" width="32" height="32" style="fill:none;"/><clipPath id="_clip1"><rect x="0" y="0" width="32" height="32"/></clipPath><g clip-path="url(#_clip1)"><g id="outline"><path d="M16.206,2.001l0.206,0.004l0.205,0.007l0.205,0.009l0.204,0.011l0.203,0.015l0.203,0.016l0.201,0.019l0.202,0.022l0.2,0.024l0.2,0.027l0.199,0.029l0.198,0.032l0.198,0.034l0.197,0.036l0.195,0.039l0.195,0.041l0.195,0.044l0.193,0.046l0.192,0.048l0.192,0.05l0.19,0.053l0.19,0.055l0.188,0.058l0.188,0.059l0.186,0.062l0.186,0.064l0.184,0.066l0.184,0.069l0.182,0.07l0.181,0.073l0.181,0.075l0.178,0.077l0.178,0.079l0.177,0.081l0.176,0.084l0.174,0.085l0.173,0.087l0.172,0.09l0.171,0.091l0.169,0.094l0.169,0.095l0.166,0.097l0.166,0.1l0.165,0.101l0.162,0.103l0.162,0.105l0.16,0.107l0.159,0.108l0.158,0.111l0.155,0.112l0.155,0.115l0.154,0.116l0.151,0.117l0.151,0.12l0.148,0.121l0.148,0.123l0.145,0.125l0.145,0.127l0.143,0.128l0.141,0.13l0.139,0.131l0.138,0.133l0.137,0.135l0.134,0.137l0.134,0.138l0.131,0.139l0.13,0.141l0.128,0.143l0.127,0.145l0.125,0.145l0.123,0.147l0.121,0.15l0.12,0.15l0.117,0.151l0.117,0.154l0.114,0.154l0.112,0.156l0.111,0.158l0.108,0.159l0.107,0.16l0.105,0.162l0.103,0.163l0.101,0.164l0.1,0.165l0.097,0.168l0.095,0.168l0.094,0.169l0.091,0.171l0.089,0.172l0.088,0.173l0.085,0.174l0.084,0.176l0.081,0.177l0.079,0.178l0.077,0.178l0.075,0.18l0.073,0.182l0.07,0.182l0.069,0.184l0.066,0.184l0.064,0.186l0.062,0.186l0.059,0.188l0.058,0.189l0.055,0.189l0.053,0.19l0.05,0.192l0.048,0.192l0.046,0.193l0.044,0.195l0.041,0.195l0.039,0.195l0.036,0.197l0.034,0.198l0.032,0.198l0.029,0.198l0.027,0.201l0.024,0.2l0.022,0.202l0.019,0.202l0.016,0.202l0.015,0.203l0.011,0.204l0.009,0.205l0.007,0.205l0.004,0.206l0.001,0.2l0,1.011l-0.001,0.118l-0.001,0.122l-0.003,0.123l-0.004,0.121l-0.005,0.122l-0.006,0.122l-0.008,0.121l-0.008,0.121l-0.01,0.12l-0.01,0.121l-0.012,0.12l-0.013,0.12l-0.014,0.119l-0.015,0.119l-0.016,0.119l-0.017,0.119l-0.018,0.118l-0.019,0.118l-0.021,0.118l-0.021,0.117l-0.022,0.116l-0.024,0.117l-0.024,0.116l-0.026,0.116l-0.026,0.114l-0.028,0.116l-0.028,0.115l-0.03,0.113l-0.031,0.115l-0.031,0.113l-0.033,0.112l-0.033,0.113l-0.035,0.112l-0.035,0.112l-0.037,0.111l-0.037,0.11l-0.039,0.111l-0.039,0.11l-0.041,0.109l-0.041,0.109l-0.042,0.108l-0.043,0.108l-0.044,0.108l-0.045,0.107l-0.046,0.106l-0.047,0.107l-0.048,0.105l-0.048,0.104l-0.05,0.105l-0.051,0.105l-0.051,0.103l-0.053,0.103l-0.022,0.042l0.008,0.016l0.046,0.106l0.044,0.107l0.042,0.108l0.04,0.109l0.037,0.111l0.034,0.111l0.031,0.111l0.029,0.113l0.027,0.115l0.023,0.115l0.021,0.115l0.019,0.116l0.015,0.118l0.013,0.118l0.01,0.118l0.007,0.118l0.005,0.12l0.001,0.109l0,0.024l-0.001,0.11l-0.005,0.124l-0.008,0.122l-0.01,0.122l-0.014,0.121l-0.016,0.121l-0.02,0.121l-0.022,0.119l-0.025,0.119l-0.028,0.118l-0.031,0.117l-0.034,0.117l-0.037,0.114l-0.039,0.115l-0.043,0.115l-0.045,0.112l-0.047,0.11l-0.05,0.11l-0.054,0.109l-0.055,0.108l-0.059,0.106l-0.06,0.104l-0.064,0.103l-0.066,0.103l-0.069,0.101l-0.071,0.098l-0.074,0.097l-0.076,0.095l-0.079,0.094l-0.081,0.092l-0.084,0.09l-0.086,0.088l-0.087,0.086l-0.091,0.084l-0.092,0.081l-0.094,0.079l-0.095,0.076l-0.097,0.074l-0.099,0.071l-0.1,0.069l-0.102,0.066l-0.104,0.064l-0.104,0.061l-0.106,0.058l-0.108,0.056l-0.109,0.052l-0.11,0.051l-0.111,0.048l-0.112,0.044l-0.113,0.043l-0.115,0.039l-0.115,0.037l-0.117,0.034l-0.117,0.031l-0.118,0.028l-0.119,0.025l-0.119,0.022l-0.121,0.02l-0.12,0.016l-0.122,0.014l-0.122,0.01l-0.122,0.008l-0.123,0.005l-0.111,0.001l-0.027,0l-0.127,-0.002l-0.14,-0.006l-0.14,-0.01l-0.139,-0.014l-0.138,-0.017l-0.137,-0.022l-0.136,-0.025l-0.135,-0.029l-0.134,-0.033l-0.132,-0.036l-0.131,-0.04l-0.129,-0.043l-0.129,-0.047l-0.126,-0.05l-0.125,-0.054l-0.124,-0.057l-0.121,-0.06l-0.119,-0.063l-0.118,-0.067l-0.116,-0.07l-0.03,-0.019l-0.087,0.031l-0.169,0.058l-0.171,0.056l-0.172,0.054l-0.172,0.052l-0.174,0.049l-0.174,0.046l-0.175,0.044l-0.177,0.042l-0.177,0.04l-0.178,0.037l-0.179,0.035l-0.18,0.032l-0.18,0.03l-0.182,0.027l-0.182,0.025l-0.183,0.022l-0.183,0.019l-0.184,0.017l-0.186,0.015l-0.185,0.012l-0.187,0.009l-0.186,0.007l-0.188,0.004l-0.181,0.001l-6.013,0l-0.161,-0.001l-0.168,-0.003l-0.166,-0.005l-0.166,-0.008l-0.166,-0.009l-0.165,-0.012l-0.165,-0.013l-0.164,-0.016l-0.163,-0.018l-0.163,-0.019l-0.163,-0.022l-0.161,-0.024l-0.161,-0.025l-0.161,-0.028l-0.16,-0.03l-0.159,-0.031l-0.158,-0.033l-0.158,-0.036l-0.157,-0.037l-0.157,-0.039l-0.155,-0.041l-0.155,-0.043l-0.154,-0.045l-0.153,-0.047l-0.153,-0.048l-0.151,-0.051l-0.151,-0.051l-0.15,-0.054l-0.149,-0.056l-0.148,-0.057l-0.147,-0.059l-0.147,-0.061l-0.145,-0.063l-0.145,-0.064l-0.144,-0.066l-0.142,-0.068l-0.142,-0.069l-0.141,-0.071l-0.139,-0.073l-0.139,-0.074l-0.138,-0.076l-0.136,-0.078l-0.136,-0.079l-0.134,-0.08l-0.134,-0.082l-0.132,-0.084l-0.132,-0.086l-0.13,-0.086l-0.129,-0.089l-0.128,-0.09l-0.126,-0.091l-0.126,-0.093l-0.125,-0.094l-0.123,-0.096l-0.122,-0.097l-0.121,-0.098l-0.12,-0.1l-0.118,-0.102l-0.117,-0.102l-0.116,-0.105l-0.115,-0.105l-0.113,-0.107l-0.113,-0.108l-0.111,-0.11l-0.109,-0.11l-0.108,-0.112l-0.107,-0.114l-0.106,-0.115l-0.104,-0.116l-0.102,-0.117l-0.102,-0.118l-0.1,-0.12l-0.098,-0.121l-0.097,-0.122l-0.096,-0.123l-0.094,-0.125l-0.093,-0.126l-0.091,-0.126l-0.09,-0.128l-0.089,-0.129l-0.086,-0.13l-0.086,-0.132l-0.084,-0.132l-0.082,-0.133l-0.081,-0.135l-0.079,-0.136l-0.077,-0.136l-0.076,-0.138l-0.074,-0.139l-0.073,-0.14l-0.071,-0.14l-0.069,-0.142l-0.068,-0.142l-0.066,-0.144l-0.064,-0.145l-0.063,-0.145l-0.061,-0.147l-0.059,-0.147l-0.057,-0.148l-0.056,-0.149l-0.053,-0.15l-0.053,-0.151l-0.05,-0.152l-0.048,-0.152l-0.047,-0.153l-0.045,-0.154l-0.043,-0.155l-0.041,-0.156l-0.039,-0.156l-0.037,-0.157l-0.036,-0.158l-0.033,-0.158l-0.031,-0.159l-0.03,-0.16l-0.028,-0.161l-0.025,-0.161l-0.024,-0.162l-0.022,-0.162l-0.019,-0.163l-0.018,-0.163l-0.016,-0.165l-0.013,-0.164l-0.012,-0.165l-0.009,-0.166l-0.008,-0.166l-0.005,-0.166l-0.003,-0.168l-0.001,-0.161l0,-1.012l0.001,-0.2l0.004,-0.206l0.007,-0.205l0.009,-0.205l0.011,-0.204l0.015,-0.203l0.016,-0.202l0.019,-0.202l0.022,-0.202l0.024,-0.2l0.027,-0.201l0.029,-0.198l0.032,-0.198l0.034,-0.198l0.036,-0.197l0.039,-0.195l0.041,-0.195l0.044,-0.195l0.046,-0.193l0.048,-0.192l0.05,-0.192l0.053,-0.19l0.055,-0.189l0.058,-0.189l0.059,-0.188l0.062,-0.186l0.064,-0.186l0.066,-0.184l0.069,-0.184l0.07,-0.182l0.073,-0.182l0.075,-0.18l0.077,-0.178l0.079,-0.178l0.081,-0.177l0.084,-0.176l0.085,-0.174l0.087,-0.173l0.09,-0.172l0.091,-0.171l0.094,-0.169l0.095,-0.168l0.097,-0.168l0.1,-0.165l0.101,-0.164l0.103,-0.163l0.105,-0.162l0.107,-0.16l0.108,-0.159l0.111,-0.158l0.112,-0.156l0.114,-0.154l0.117,-0.154l0.117,-0.151l0.12,-0.15l0.121,-0.15l0.123,-0.147l0.125,-0.145l0.127,-0.145l0.128,-0.143l0.13,-0.141l0.131,-0.139l0.134,-0.138l0.134,-0.137l0.137,-0.135l0.138,-0.133l0.139,-0.131l0.141,-0.13l0.143,-0.128l0.145,-0.127l0.145,-0.125l0.148,-0.123l0.148,-0.121l0.151,-0.12l0.151,-0.117l0.154,-0.116l0.155,-0.115l0.155,-0.112l0.158,-0.11l0.159,-0.109l0.16,-0.107l0.162,-0.105l0.162,-0.103l0.165,-0.101l0.166,-0.1l0.166,-0.097l0.169,-0.095l0.169,-0.094l0.171,-0.091l0.172,-0.09l0.173,-0.087l0.174,-0.085l0.176,-0.084l0.177,-0.081l0.178,-0.079l0.178,-0.077l0.181,-0.075l0.181,-0.073l0.182,-0.07l0.184,-0.069l0.184,-0.066l0.186,-0.064l0.186,-0.062l0.188,-0.059l0.188,-0.058l0.19,-0.055l0.19,-0.053l0.192,-0.05l0.192,-0.048l0.193,-0.046l0.195,-0.044l0.195,-0.041l0.195,-0.039l0.197,-0.036l0.198,-0.034l0.198,-0.032l0.199,-0.029l0.2,-0.027l0.2,-0.024l0.202,-0.022l0.201,-0.019l0.203,-0.016l0.203,-0.015l0.204,-0.011l0.205,-0.009l0.205,-0.007l0.206,-0.004l0.206,-0.001l0.206,0.001Zm-0.362,4l-0.155,0.003l-0.154,0.005l-0.154,0.007l-0.154,0.008l-0.152,0.011l-0.153,0.013l-0.151,0.014l-0.151,0.016l-0.151,0.019l-0.15,0.02l-0.149,0.021l-0.149,0.024l-0.148,0.026l-0.147,0.027l-0.147,0.029l-0.145,0.031l-0.146,0.032l-0.145,0.035l-0.143,0.036l-0.144,0.038l-0.142,0.039l-0.142,0.041l-0.141,0.043l-0.141,0.045l-0.139,0.046l-0.139,0.048l-0.138,0.05l-0.137,0.051l-0.137,0.053l-0.135,0.054l-0.135,0.056l-0.134,0.058l-0.134,0.059l-0.132,0.061l-0.131,0.062l-0.131,0.064l-0.13,0.066l-0.129,0.067l-0.128,0.068l-0.127,0.07l-0.126,0.072l-0.125,0.073l-0.124,0.074l-0.123,0.076l-0.122,0.077l-0.122,0.079l-0.12,0.08l-0.119,0.082l-0.118,0.083l-0.118,0.084l-0.116,0.086l-0.115,0.087l-0.114,0.089l-0.113,0.089l-0.111,0.091l-0.111,0.093l-0.109,0.094l-0.109,0.095l-0.107,0.096l-0.106,0.098l-0.105,0.099l-0.104,0.1l-0.102,0.101l-0.102,0.102l-0.1,0.104l-0.098,0.105l-0.098,0.106l-0.096,0.107l-0.095,0.108l-0.094,0.11l-0.093,0.111l-0.091,0.111l-0.089,0.113l-0.089,0.115l-0.087,0.114l-0.086,0.116l-0.084,0.118l-0.083,0.118l-0.082,0.119l-0.08,0.12l-0.079,0.122l-0.077,0.122l-0.076,0.123l-0.074,0.124l-0.073,0.125l-0.072,0.126l-0.07,0.128l-0.068,0.127l-0.067,0.129l-0.066,0.13l-0.064,0.131l-0.062,0.131l-0.061,0.132l-0.059,0.134l-0.058,0.134l-0.056,0.135l-0.054,0.135l-0.053,0.137l-0.051,0.137l-0.05,0.138l-0.048,0.139l-0.046,0.14l-0.045,0.14l-0.043,0.141l-0.041,0.142l-0.04,0.143l-0.037,0.142l-0.036,0.144l-0.035,0.145l-0.032,0.145l-0.031,0.146l-0.029,0.147l-0.027,0.148l-0.026,0.147l-0.024,0.149l-0.022,0.15l-0.019,0.149l-0.019,0.15l-0.016,0.151l-0.014,0.152l-0.013,0.153l-0.011,0.153l-0.008,0.153l-0.007,0.154l-0.005,0.154l-0.003,0.155l-0.001,0.162l0,0.988l0.001,0.123l0.002,0.116l0.004,0.116l0.005,0.116l0.006,0.115l0.008,0.115l0.01,0.114l0.011,0.114l0.012,0.113l0.013,0.113l0.016,0.112l0.016,0.113l0.018,0.111l0.019,0.11l0.02,0.111l0.022,0.11l0.023,0.109l0.024,0.109l0.026,0.109l0.027,0.108l0.029,0.107l0.029,0.106l0.031,0.107l0.032,0.106l0.034,0.106l0.035,0.104l0.035,0.104l0.037,0.103l0.039,0.103l0.04,0.103l0.04,0.102l0.042,0.1l0.044,0.101l0.044,0.1l0.046,0.099l0.047,0.099l0.048,0.098l0.049,0.097l0.05,0.097l0.051,0.095l0.053,0.096l0.053,0.095l0.055,0.093l0.056,0.093l0.057,0.093l0.058,0.091l0.059,0.091l0.06,0.091l0.061,0.089l0.062,0.088l0.064,0.089l0.064,0.087l0.065,0.086l0.067,0.086l0.067,0.084l0.069,0.084l0.069,0.083l0.07,0.082l0.072,0.082l0.072,0.08l0.073,0.079l0.074,0.079l0.075,0.078l0.076,0.077l0.077,0.076l0.078,0.075l0.078,0.074l0.08,0.073l0.08,0.073l0.082,0.071l0.082,0.07l0.083,0.07l0.084,0.068l0.084,0.067l0.086,0.067l0.086,0.065l0.087,0.064l0.089,0.064l0.088,0.062l0.089,0.061l0.091,0.06l0.09,0.059l0.092,0.058l0.093,0.057l0.093,0.056l0.094,0.055l0.094,0.053l0.095,0.053l0.096,0.051l0.097,0.051l0.097,0.049l0.098,0.047l0.099,0.047l0.099,0.046l0.1,0.044l0.1,0.044l0.101,0.041l0.102,0.041l0.103,0.04l0.102,0.038l0.104,0.038l0.104,0.036l0.105,0.034l0.105,0.034l0.106,0.032l0.106,0.031l0.107,0.029l0.107,0.029l0.108,0.027l0.109,0.026l0.109,0.024l0.109,0.023l0.11,0.022l0.11,0.02l0.112,0.019l0.111,0.018l0.112,0.017l0.112,0.015l0.113,0.013l0.113,0.012l0.114,0.011l0.114,0.01l0.115,0.008l0.115,0.006l0.116,0.005l0.116,0.004l0.116,0.002l0.123,0.001l5.987,0l0.138,-0.001l0.131,-0.003l0.13,-0.004l0.129,-0.007l0.129,-0.008l0.129,-0.01l0.128,-0.012l0.127,-0.014l0.127,-0.015l0.126,-0.017l0.125,-0.019l0.125,-0.02l0.124,-0.023l0.124,-0.024l0.123,-0.025l0.122,-0.028l0.122,-0.029l0.121,-0.03l0.121,-0.032l0.12,-0.034l0.119,-0.036l0.118,-0.037l0.117,-0.038l0.117,-0.04l0.117,-0.042l0.115,-0.044l0.115,-0.044l0.114,-0.047l0.113,-0.048l0.112,-0.049l0.112,-0.051l1.517,-0.716l1.026,1.221l0.017,0.019l0.018,0.019l0.018,0.018l0.019,0.018l0.019,0.017l0.02,0.017l0.02,0.016l0.02,0.016l0.022,0.015l0.021,0.015l0.022,0.014l0.022,0.013l0.022,0.013l0.023,0.012l0.024,0.012l0.023,0.01l0.024,0.011l0.024,0.009l0.024,0.009l0.025,0.009l0.025,0.007l0.024,0.007l0.026,0.006l0.025,0.006l0.026,0.004l0.026,0.004l0.026,0.004l0.027,0.002l0.026,0.002l0.027,0.001l0.03,0.001l0.023,0l0.024,-0.001l0.023,-0.002l0.024,-0.002l0.023,-0.002l0.024,-0.004l0.023,-0.003l0.023,-0.005l0.023,-0.005l0.023,-0.005l0.023,-0.006l0.022,-0.007l0.023,-0.007l0.022,-0.007l0.021,-0.008l0.023,-0.009l0.021,-0.009l0.021,-0.01l0.021,-0.01l0.021,-0.011l0.021,-0.012l0.02,-0.011l0.02,-0.013l0.019,-0.012l0.02,-0.014l0.019,-0.014l0.019,-0.014l0.018,-0.015l0.019,-0.015l0.017,-0.015l0.017,-0.016l0.018,-0.017l0.017,-0.018l0.016,-0.017l0.015,-0.017l0.015,-0.018l0.015,-0.019l0.015,-0.019l0.014,-0.02l0.013,-0.019l0.012,-0.019l0.012,-0.02l0.013,-0.021l0.011,-0.02l0.011,-0.021l0.01,-0.021l0.009,-0.021l0.01,-0.022l0.009,-0.022l0.007,-0.021l0.008,-0.022l0.008,-0.023l0.006,-0.022l0.006,-0.023l0.005,-0.023l0.005,-0.023l0.005,-0.024l0.003,-0.022l0.003,-0.023l0.003,-0.024l0.002,-0.024l0.002,-0.023l0.001,-0.023l0,-0.026l0,-0.024l-0.001,-0.022l-0.002,-0.023l-0.002,-0.023l-0.002,-0.022l-0.003,-0.022l-0.003,-0.022l-0.005,-0.023l-0.004,-0.022l-0.005,-0.02l-0.005,-0.021l-0.007,-0.023l-0.006,-0.021l-0.007,-0.02l-0.007,-0.021l-0.008,-0.02l-0.009,-0.021l-0.009,-0.02l-0.009,-0.019l-0.01,-0.02l-0.01,-0.021l-0.011,-0.018l-0.011,-0.019l-0.011,-0.019l-0.012,-0.018l-0.013,-0.019l-0.013,-0.018l-0.014,-0.018l-0.013,-0.016l-0.014,-0.017l-0.014,-0.017l-1.078,-1.175l0.893,-1.373l0.042,-0.066l0.043,-0.068l0.042,-0.068l0.04,-0.067l0.04,-0.069l0.04,-0.069l0.039,-0.069l0.039,-0.071l0.038,-0.07l0.038,-0.07l0.036,-0.071l0.036,-0.071l0.036,-0.072l0.035,-0.071l0.034,-0.072l0.034,-0.073l0.033,-0.073l0.032,-0.073l0.032,-0.073l0.031,-0.074l0.03,-0.075l0.03,-0.074l0.029,-0.075l0.029,-0.076l0.028,-0.075l0.027,-0.076l0.026,-0.076l0.026,-0.077l0.026,-0.076l0.024,-0.077l0.024,-0.077l0.023,-0.077l0.023,-0.079l0.022,-0.079l0.02,-0.078l0.021,-0.079l0.02,-0.078l0.019,-0.079l0.018,-0.081l0.018,-0.079l0.017,-0.081l0.016,-0.08l0.015,-0.081l0.015,-0.081l0.014,-0.081l0.013,-0.082l0.013,-0.081l0.012,-0.083l0.011,-0.082l0.01,-0.082l0.01,-0.083l0.009,-0.083l0.008,-0.083l0.007,-0.084l0.007,-0.084l0.006,-0.084l0.005,-0.084l0.004,-0.084l0.004,-0.084l0.002,-0.086l0.002,-0.085l0.002,-0.085l0,-0.091l0,-0.989l-0.001,-0.162l-0.003,-0.155l-0.005,-0.154l-0.007,-0.154l-0.008,-0.153l-0.011,-0.153l-0.013,-0.153l-0.014,-0.152l-0.016,-0.151l-0.019,-0.15l-0.019,-0.149l-0.022,-0.15l-0.024,-0.149l-0.026,-0.147l-0.027,-0.148l-0.029,-0.147l-0.031,-0.146l-0.032,-0.145l-0.035,-0.145l-0.036,-0.144l-0.037,-0.142l-0.04,-0.143l-0.041,-0.142l-0.043,-0.141l-0.045,-0.14l-0.046,-0.14l-0.048,-0.139l-0.05,-0.138l-0.051,-0.137l-0.053,-0.137l-0.054,-0.135l-0.056,-0.135l-0.058,-0.134l-0.059,-0.134l-0.061,-0.132l-0.062,-0.131l-0.064,-0.131l-0.066,-0.13l-0.067,-0.129l-0.068,-0.128l-0.07,-0.127l-0.072,-0.126l-0.073,-0.125l-0.074,-0.124l-0.076,-0.123l-0.077,-0.122l-0.079,-0.122l-0.08,-0.12l-0.082,-0.119l-0.083,-0.118l-0.084,-0.118l-0.086,-0.116l-0.087,-0.114l-0.089,-0.115l-0.089,-0.113l-0.091,-0.111l-0.093,-0.111l-0.094,-0.11l-0.095,-0.108l-0.096,-0.107l-0.098,-0.106l-0.098,-0.105l-0.1,-0.104l-0.102,-0.102l-0.102,-0.101l-0.104,-0.1l-0.105,-0.099l-0.106,-0.098l-0.107,-0.096l-0.109,-0.095l-0.109,-0.094l-0.111,-0.093l-0.111,-0.091l-0.113,-0.089l-0.114,-0.089l-0.115,-0.087l-0.116,-0.086l-0.118,-0.084l-0.118,-0.083l-0.119,-0.082l-0.12,-0.08l-0.122,-0.079l-0.122,-0.077l-0.123,-0.076l-0.124,-0.074l-0.125,-0.073l-0.126,-0.072l-0.127,-0.07l-0.128,-0.068l-0.129,-0.067l-0.13,-0.066l-0.131,-0.064l-0.131,-0.062l-0.132,-0.061l-0.134,-0.059l-0.134,-0.058l-0.135,-0.056l-0.135,-0.054l-0.137,-0.053l-0.137,-0.051l-0.138,-0.05l-0.139,-0.048l-0.139,-0.046l-0.141,-0.045l-0.141,-0.043l-0.142,-0.041l-0.142,-0.039l-0.144,-0.038l-0.144,-0.036l-0.144,-0.035l-0.145,-0.032l-0.146,-0.031l-0.147,-0.029l-0.147,-0.027l-0.148,-0.026l-0.149,-0.024l-0.149,-0.021l-0.15,-0.02l-0.151,-0.019l-0.151,-0.016l-0.151,-0.014l-0.153,-0.013l-0.152,-0.011l-0.154,-0.008l-0.154,-0.007l-0.154,-0.005l-0.155,-0.003l-0.156,-0.001l-0.156,0.001Z"/></g><g id="emoji"><path d="M30,18c0,-7.732 -6.268,-14 -14,-14c0,0 0,0 0,0c-7.732,0 -14,6.268 -14,14c0,0.335 0,0.668 0,1c0,6.075 4.925,11 11,11c1.972,0 4.028,0 6,0c6.075,0 11,-4.925 11,-11c0,-0.332 0,-0.665 0,-1Z" style="fill:#fbc546;"/><clipPath id="_clip2"><path d="M30,18c0,-7.732 -6.268,-14 -14,-14c0,0 0,0 0,0c-7.732,0 -14,6.268 -14,14c0,0.335 0,0.668 0,1c0,6.075 4.925,11 11,11c1.972,0 4.028,0 6,0c6.075,0 11,-4.925 11,-11c0,-0.332 0,-0.665 0,-1Z"/></clipPath><g clip-path="url(#_clip2)"><path d="M21,22c0,0 1.397,3.725 2.284,6.091c0.431,1.148 1.528,1.909 2.755,1.909c0,0 0.001,0 0.001,0c0.785,0 1.538,-0.312 2.093,-0.867c0.555,-0.555 0.867,-1.308 0.867,-2.093c0,0 0,-0.001 0,-0.001c0,-1.227 -0.761,-2.324 -1.909,-2.755c-2.366,-0.887 -6.091,-2.284 -6.091,-2.284Z" style="fill:none;stroke:#e59a10;stroke-width:4px;"/></g><path d="M21,22c0,0 1.397,3.725 2.284,6.091c0.431,1.148 1.528,1.909 2.755,1.909c0,0 0.001,0 0.001,0c0.785,0 1.538,-0.312 2.093,-0.867c0.555,-0.555 0.867,-1.308 0.867,-2.093c0,0 0,-0.001 0,-0.001c0,-1.227 -0.761,-2.324 -1.909,-2.755c-2.366,-0.887 -6.091,-2.284 -6.091,-2.284Z" style="fill:#fff;"/><g><path d="M11.172,25.895c-0.164,-0.082 -0.305,-0.208 -0.405,-0.369c-0.182,-0.295 -0.198,-0.663 -0.043,-0.973c0.056,-0.112 0.113,-0.227 0.17,-0.342c0.678,-1.355 2.063,-2.211 3.578,-2.211c0.972,0 2.084,0 3.056,0c1.515,0 2.9,0.856 3.578,2.211c0.057,0.115 0.114,0.23 0.17,0.342c0.155,0.31 0.139,0.678 -0.043,0.973c-0.1,0.161 -0.241,0.287 -0.405,0.369c-0.926,-0.572 -8.73,-0.572 -9.656,0Z" style="fill:#722245;"/><path d="M11.172,25.895c0.926,-0.572 2.011,-0.895 3.153,-0.895c1.09,0 2.26,0 3.35,0c1.142,0 2.227,0.323 3.153,0.895c-0.136,0.068 -0.289,0.105 -0.446,0.105c-2.295,0 -6.469,0 -8.764,0c-0.157,0 -0.31,-0.037 -0.446,-0.105Z" style="fill:#ca3b8f;"/></g><path d="M25.536,16.001l0.049,0.003l0.048,0.005l0.047,0.007l0.048,0.01l0.046,0.012l0.047,0.015l0.045,0.016l0.044,0.019l0.044,0.021l0.043,0.023l0.041,0.025l0.04,0.027l0.039,0.029l0.037,0.031l0.036,0.032l0.034,0.034l0.032,0.036l0.031,0.037l0.029,0.039l0.027,0.04l0.025,0.041l0.023,0.043l0.021,0.044l0.019,0.044l0.016,0.046l0.015,0.046l0.012,0.046l0.01,0.048l0.007,0.047l0.005,0.049l0.003,0.048l0.001,0.048l-0.002,0.048l-0.004,0.049l-0.006,0.047l-0.009,0.048l-0.011,0.047l-0.013,0.047l-0.016,0.045l-0.017,0.045l-0.02,0.044l-0.022,0.043l-0.024,0.042l-0.026,0.041l-0.028,0.04l-0.03,0.038l-0.032,0.036l-0.033,0.035l-3.707,3.707l-3.707,-3.707l-0.033,-0.035l-0.032,-0.036l-0.03,-0.038l-0.028,-0.04l-0.026,-0.041l-0.024,-0.042l-0.022,-0.043l-0.02,-0.044l-0.017,-0.045l-0.016,-0.045l-0.013,-0.047l-0.011,-0.047l-0.009,-0.048l-0.006,-0.047l-0.004,-0.049l-0.002,-0.048l0.001,-0.048l0.003,-0.048l0.005,-0.049l0.007,-0.047l0.01,-0.048l0.012,-0.046l0.015,-0.046l0.016,-0.046l0.019,-0.044l0.021,-0.044l0.023,-0.043l0.025,-0.041l0.027,-0.04l0.029,-0.039l0.031,-0.037l0.032,-0.036l0.034,-0.034l0.036,-0.032l0.037,-0.031l0.039,-0.029l0.04,-0.027l0.042,-0.025l0.042,-0.023l0.044,-0.021l0.044,-0.019l0.046,-0.016l0.046,-0.015l0.046,-0.012l0.048,-0.01l0.048,-0.007l0.048,-0.005l0.048,-0.003l0.048,-0.001l0.048,0.002l0.049,0.004l0.047,0.006l0.048,0.009l0.047,0.011l0.047,0.013l0.045,0.016l0.045,0.017l0.044,0.02l0.043,0.022l0.042,0.024l0.041,0.026l0.04,0.028l0.038,0.03l0.036,0.032l0.035,0.033l2.293,2.293l2.293,-2.293l0.035,-0.033l0.036,-0.032l0.039,-0.03l0.039,-0.028l0.041,-0.026l0.042,-0.024l0.043,-0.022l0.044,-0.02l0.045,-0.017l0.046,-0.016l0.046,-0.013l0.047,-0.011l0.048,-0.009l0.047,-0.006l0.049,-0.004l0.048,-0.002l0.048,0.001Z"/><path d="M12.536,16.001l0.048,0.003l0.048,0.005l0.048,0.007l0.048,0.01l0.046,0.012l0.046,0.015l0.046,0.016l0.044,0.019l0.044,0.021l0.042,0.023l0.042,0.025l0.04,0.027l0.039,0.029l0.037,0.031l0.036,0.032l0.034,0.034l0.032,0.036l0.031,0.037l0.029,0.039l0.027,0.04l0.025,0.041l0.023,0.043l0.021,0.044l0.019,0.044l0.016,0.046l0.015,0.046l0.012,0.046l0.01,0.048l0.007,0.047l0.005,0.049l0.003,0.048l0.001,0.048l-0.002,0.048l-0.004,0.049l-0.006,0.047l-0.009,0.048l-0.011,0.047l-0.013,0.047l-0.016,0.045l-0.017,0.045l-0.02,0.044l-0.022,0.043l-0.024,0.042l-0.026,0.041l-0.028,0.04l-0.03,0.038l-0.032,0.036l-0.033,0.035l-3.707,3.707l-3.707,-3.707l-0.033,-0.035l-0.032,-0.036l-0.03,-0.038l-0.028,-0.04l-0.026,-0.041l-0.024,-0.042l-0.022,-0.043l-0.02,-0.044l-0.017,-0.045l-0.016,-0.045l-0.013,-0.047l-0.011,-0.047l-0.009,-0.048l-0.006,-0.047l-0.004,-0.049l-0.002,-0.048l0.001,-0.048l0.003,-0.048l0.005,-0.049l0.007,-0.047l0.01,-0.048l0.012,-0.046l0.015,-0.046l0.016,-0.046l0.019,-0.044l0.021,-0.044l0.023,-0.043l0.025,-0.041l0.027,-0.04l0.029,-0.039l0.031,-0.037l0.032,-0.036l0.034,-0.034l0.036,-0.032l0.037,-0.031l0.039,-0.029l0.04,-0.027l0.041,-0.025l0.043,-0.023l0.044,-0.021l0.044,-0.019l0.045,-0.016l0.047,-0.015l0.046,-0.012l0.048,-0.01l0.047,-0.007l0.048,-0.005l0.049,-0.003l0.048,-0.001l0.048,0.002l0.049,0.004l0.047,0.006l0.048,0.009l0.047,0.011l0.046,0.013l0.046,0.016l0.045,0.017l0.044,0.02l0.043,0.022l0.042,0.024l0.041,0.026l0.039,0.028l0.039,0.03l0.036,0.032l0.035,0.033l2.293,2.293l2.293,-2.293l0.035,-0.033l0.036,-0.032l0.038,-0.03l0.04,-0.028l0.041,-0.026l0.042,-0.024l0.043,-0.022l0.044,-0.02l0.045,-0.017l0.045,-0.016l0.047,-0.013l0.047,-0.011l0.048,-0.009l0.047,-0.006l0.049,-0.004l0.048,-0.002l0.048,0.001Z"/></g></g></svg>