<?xml version="1.0" encoding="UTF-8" standalone="no"?><!DOCTYPE svg PUBLIC "-//W3C//DTD SVG 1.1//EN" "http://www.w3.org/Graphics/SVG/1.1/DTD/svg11.dtd"><svg width="100%" height="100%" viewBox="0 0 32 32" version="1.1" xmlns="http://www.w3.org/2000/svg" xmlns:xlink="http://www.w3.org/1999/xlink" xml:space="preserve" xmlns:serif="http://www.serif.com/" style="fill-rule:evenodd;clip-rule:evenodd;stroke-linecap:round;stroke-linejoin:round;stroke-miterlimit:1.5;"><rect id="starry_eyes" x="0" y="-0.017" width="32" height="32" style="fill:none;"/><clipPath id="_clip1"><rect x="0" y="-0.017" width="32" height="32"/></clipPath><g clip-path="url(#_clip1)"><g id="outline"><path d="M30.235,7.131l0.171,0.034l0.167,0.048l0.161,0.06l0.154,0.072l0.149,0.084l0.141,0.094l0.134,0.105l0.125,0.116l0.117,0.125l0.107,0.135l0.096,0.143l0.086,0.152l0.074,0.159l0.061,0.166l0.048,0.17l0.034,0.172l0.02,0.173l0.006,0.173l-0.007,0.172l-0.021,0.17l-0.034,0.167l-0.046,0.163l-0.059,0.16l-0.071,0.155l-0.083,0.149l-0.095,0.144l-0.106,0.136l-0.118,0.128l-0.129,0.12l-0.096,0.076l0.006,0.017l0.062,0.197l0.06,0.198l0.057,0.199l0.054,0.199l0.052,0.201l0.05,0.201l0.047,0.202l0.044,0.202l0.042,0.203l0.039,0.204l0.036,0.205l0.034,0.205l0.031,0.205l0.028,0.206l0.026,0.207l0.023,0.207l0.021,0.208l0.018,0.208l0.015,0.209l0.012,0.209l0.01,0.209l0.007,0.21l0.004,0.21l0.001,0.204l0,2.013l-0.001,0.174l-0.004,0.18l-0.005,0.179l-0.008,0.179l-0.01,0.178l-0.013,0.178l-0.014,0.178l-0.017,0.176l-0.019,0.176l-0.021,0.176l-0.024,0.175l-0.025,0.174l-0.028,0.173l-0.03,0.173l-0.031,0.172l-0.034,0.172l-0.036,0.17l-0.038,0.17l-0.041,0.169l-0.042,0.169l-0.044,0.167l-0.046,0.167l-0.049,0.166l-0.05,0.165l-0.052,0.164l-0.054,0.163l-0.056,0.163l-0.058,0.161l-0.06,0.16l-0.062,0.16l-0.063,0.159l-0.066,0.157l-0.067,0.157l-0.07,0.156l-0.071,0.154l-0.073,0.154l-0.074,0.153l-0.077,0.151l-0.078,0.151l-0.08,0.149l-0.082,0.148l-0.083,0.147l-0.085,0.146l-0.087,0.145l-0.089,0.144l-0.09,0.143l-0.092,0.141l-0.093,0.14l-0.095,0.139l-0.097,0.138l-0.098,0.137l-0.1,0.135l-0.102,0.134l-0.103,0.133l-0.104,0.131l-0.107,0.13l-0.107,0.129l-0.11,0.128l-0.11,0.126l-0.112,0.125l-0.114,0.124l-0.115,0.122l-0.117,0.12l-0.117,0.12l-0.12,0.118l-0.121,0.116l-0.122,0.115l-0.123,0.114l-0.125,0.112l-0.126,0.111l-0.128,0.109l-0.129,0.108l-0.13,0.106l-0.132,0.104l-0.132,0.103l-0.134,0.102l-0.136,0.1l-0.136,0.098l-0.138,0.097l-0.139,0.095l-0.14,0.094l-0.142,0.092l-0.142,0.09l-0.144,0.088l-0.145,0.087l-0.146,0.085l-0.147,0.084l-0.148,0.081l-0.15,0.08l-0.15,0.079l-0.152,0.076l-0.152,0.075l-0.154,0.073l-0.155,0.071l-0.155,0.069l-0.157,0.067l-0.158,0.066l-0.158,0.064l-0.16,0.061l-0.16,0.06l-0.162,0.058l-0.162,0.056l-0.163,0.054l-0.165,0.053l-0.165,0.05l-0.165,0.048l-0.167,0.046l-0.168,0.044l-0.168,0.043l-0.169,0.04l-0.17,0.038l-0.171,0.036l-0.171,0.034l-0.172,0.032l-0.173,0.03l-0.173,0.027l-0.175,0.026l-0.174,0.023l-0.176,0.021l-0.176,0.019l-0.177,0.017l-0.177,0.015l-0.178,0.012l-0.178,0.01l-0.179,0.008l-0.18,0.006l-0.18,0.003l-0.174,0.001l-4.012,0l-0.174,-0.001l-0.18,-0.003l-0.18,-0.006l-0.179,-0.008l-0.178,-0.01l-0.178,-0.012l-0.177,-0.015l-0.177,-0.017l-0.176,-0.019l-0.176,-0.021l-0.174,-0.023l-0.175,-0.026l-0.173,-0.027l-0.173,-0.03l-0.172,-0.032l-0.171,-0.034l-0.171,-0.036l-0.17,-0.038l-0.169,-0.04l-0.168,-0.043l-0.168,-0.044l-0.166,-0.046l-0.166,-0.048l-0.165,-0.05l-0.165,-0.053l-0.163,-0.054l-0.162,-0.056l-0.162,-0.058l-0.16,-0.06l-0.16,-0.061l-0.158,-0.064l-0.158,-0.066l-0.157,-0.067l-0.155,-0.069l-0.155,-0.071l-0.154,-0.073l-0.152,-0.075l-0.152,-0.076l-0.15,-0.079l-0.15,-0.08l-0.148,-0.081l-0.147,-0.084l-0.146,-0.085l-0.145,-0.087l-0.144,-0.088l-0.142,-0.09l-0.142,-0.092l-0.14,-0.094l-0.139,-0.095l-0.138,-0.097l-0.136,-0.098l-0.136,-0.1l-0.134,-0.102l-0.132,-0.103l-0.132,-0.104l-0.13,-0.106l-0.129,-0.108l-0.128,-0.109l-0.126,-0.111l-0.125,-0.112l-0.123,-0.114l-0.122,-0.115l-0.121,-0.116l-0.12,-0.118l-0.117,-0.12l-0.117,-0.12l-0.115,-0.122l-0.114,-0.124l-0.112,-0.125l-0.11,-0.126l-0.11,-0.128l-0.107,-0.129l-0.107,-0.13l-0.104,-0.131l-0.103,-0.133l-0.102,-0.134l-0.1,-0.135l-0.098,-0.137l-0.097,-0.138l-0.095,-0.139l-0.093,-0.14l-0.092,-0.141l-0.09,-0.143l-0.089,-0.144l-0.087,-0.145l-0.085,-0.146l-0.083,-0.147l-0.082,-0.148l-0.08,-0.149l-0.078,-0.151l-0.077,-0.151l-0.074,-0.153l-0.073,-0.154l-0.071,-0.154l-0.07,-0.156l-0.067,-0.157l-0.066,-0.157l-0.063,-0.159l-0.062,-0.16l-0.06,-0.16l-0.058,-0.161l-0.056,-0.163l-0.054,-0.163l-0.052,-0.164l-0.051,-0.165l-0.048,-0.166l-0.046,-0.167l-0.044,-0.167l-0.042,-0.169l-0.041,-0.169l-0.038,-0.17l-0.036,-0.17l-0.034,-0.172l-0.031,-0.172l-0.03,-0.173l-0.028,-0.173l-0.025,-0.174l-0.024,-0.175l-0.021,-0.176l-0.019,-0.176l-0.017,-0.176l-0.014,-0.178l-0.013,-0.178l-0.01,-0.178l-0.008,-0.179l-0.005,-0.179l-0.004,-0.18l-0.001,-0.174l0,-2.013l0.001,-0.208l0.005,-0.214l0.007,-0.214l0.009,-0.213l0.013,-0.212l0.015,-0.211l0.018,-0.211l0.021,-0.21l0.024,-0.209l0.026,-0.208l0.029,-0.208l0.031,-0.207l0.034,-0.206l0.037,-0.205l0.04,-0.204l0.041,-0.203l0.045,-0.202l0.047,-0.202l0.05,-0.2l0.052,-0.199l0.054,-0.199l0.057,-0.197l0.06,-0.197l0.06,-0.189l-0.093,-0.073l-0.129,-0.12l-0.118,-0.128l-0.106,-0.136l-0.095,-0.144l-0.083,-0.149l-0.071,-0.155l-0.059,-0.16l-0.046,-0.163l-0.034,-0.167l-0.021,-0.17l-0.007,-0.172l0.006,-0.173l0.02,-0.173l0.034,-0.172l0.048,-0.17l0.061,-0.166l0.074,-0.159l0.086,-0.152l0.096,-0.143l0.107,-0.135l0.117,-0.125l0.125,-0.116l0.134,-0.105l0.141,-0.094l0.149,-0.084l0.154,-0.072l0.161,-0.06l0.167,-0.048l0.171,-0.034l0.174,-0.021l0.137,-0.006l0.612,0l0.063,-0.093l0.073,-0.107l0.075,-0.107l0.075,-0.107l0.076,-0.105l0.077,-0.105l0.078,-0.104l0.078,-0.104l0.08,-0.103l0.08,-0.102l0.081,-0.102l0.082,-0.101l0.082,-0.1l0.084,-0.1l0.084,-0.098l0.085,-0.099l0.086,-0.097l0.086,-0.097l0.087,-0.096l0.089,-0.095l0.088,-0.095l0.09,-0.094l0.09,-0.093l0.091,-0.092l0.092,-0.092l0.093,-0.091l0.093,-0.09l0.094,-0.09l0.095,-0.088l0.095,-0.088l0.096,-0.087l0.097,-0.087l0.098,-0.086l0.098,-0.084l0.099,-0.084l0.1,-0.084l0.1,-0.082l0.101,-0.082l0.102,-0.081l0.102,-0.08l0.104,-0.079l0.103,-0.078l0.105,-0.078l0.105,-0.077l0.105,-0.076l0.107,-0.075l0.107,-0.074l0.107,-0.074l0.109,-0.072l0.108,-0.072l0.11,-0.071l0.11,-0.07l0.111,-0.069l0.111,-0.068l0.112,-0.067l0.112,-0.067l0.114,-0.065l0.113,-0.065l0.115,-0.064l0.114,-0.063l0.116,-0.062l0.116,-0.061l0.116,-0.06l0.118,-0.059l0.117,-0.058l0.118,-0.058l0.119,-0.056l0.12,-0.055l0.119,-0.055l0.121,-0.053l0.121,-0.053l0.121,-0.052l0.122,-0.05l0.122,-0.05l0.123,-0.048l0.124,-0.048l0.124,-0.047l0.124,-0.046l0.125,-0.044l0.125,-0.044l0.126,-0.043l0.127,-0.041l0.126,-0.041l0.128,-0.04l0.127,-0.038l0.128,-0.038l0.129,-0.036l0.129,-0.036l0.129,-0.034l0.13,-0.033l0.131,-0.033l0.13,-0.031l0.131,-0.03l0.132,-0.029l0.132,-0.028l0.132,-0.027l0.133,-0.026l0.133,-0.024l0.133,-0.024l0.134,-0.023l0.134,-0.021l0.135,-0.02l0.135,-0.019l0.135,-0.018l0.135,-0.017l0.136,-0.016l0.136,-0.015l0.137,-0.013l0.137,-0.013l0.137,-0.011l0.137,-0.01l0.138,-0.009l0.138,-0.007l0.138,-0.007l0.139,-0.005l0.139,-0.004l0.139,-0.003l0.139,-0.002l0.136,-0.001l0.01,0l0.193,0.001l0.198,0.004l0.198,0.006l0.198,0.009l0.198,0.011l0.197,0.013l0.197,0.016l0.196,0.019l0.196,0.02l0.196,0.023l0.195,0.026l0.195,0.028l0.194,0.03l0.194,0.032l0.193,0.035l0.192,0.038l0.192,0.039l0.191,0.042l0.191,0.044l0.19,0.047l0.19,0.049l0.188,0.051l0.188,0.053l0.187,0.056l0.187,0.058l0.186,0.06l0.185,0.063l0.184,0.064l0.183,0.067l0.183,0.069l0.181,0.072l0.181,0.073l0.18,0.076l0.179,0.078l0.178,0.08l0.177,0.082l0.175,0.085l0.175,0.086l0.174,0.089l0.173,0.091l0.172,0.093l0.171,0.095l0.169,0.098l0.169,0.099l0.167,0.102l0.166,0.103l0.165,0.106l0.164,0.107l0.162,0.11l0.162,0.112l0.159,0.114l0.159,0.116l0.157,0.118l0.156,0.12l0.155,0.122l0.153,0.124l0.152,0.126l0.15,0.128l0.149,0.13l0.148,0.132l0.146,0.133l0.144,0.136l0.143,0.138l0.14,0.138l0.098,0.099l0.096,0.098l0.095,0.099l0.094,0.1l0.093,0.1l0.092,0.101l0.091,0.102l0.09,0.102l0.089,0.104l0.088,0.104l0.087,0.104l0.087,0.105l0.085,0.106l0.085,0.107l0.083,0.107l0.083,0.108l0.081,0.108l0.081,0.109l0.079,0.11l0.079,0.11l0.078,0.111l0.077,0.112l0.075,0.112l0.012,0.018l0.614,0l0.137,0.006l0.174,0.021Zm-14.34,-3.147l-0.105,0.001l-0.105,0.002l-0.105,0.004l-0.104,0.004l-0.104,0.004l-0.104,0.006l-0.104,0.007l-0.103,0.007l-0.103,0.009l-0.103,0.009l-0.102,0.01l-0.103,0.011l-0.102,0.012l-0.101,0.013l-0.102,0.013l-0.101,0.015l-0.101,0.015l-0.1,0.016l-0.1,0.017l-0.1,0.017l-0.1,0.019l-0.099,0.019l-0.1,0.02l-0.098,0.021l-0.099,0.022l-0.098,0.023l-0.098,0.023l-0.097,0.024l-0.097,0.025l-0.097,0.026l-0.097,0.026l-0.096,0.028l-0.096,0.028l-0.095,0.029l-0.096,0.029l-0.095,0.031l-0.094,0.031l-0.094,0.032l-0.094,0.033l-0.093,0.033l-0.094,0.034l-0.092,0.035l-0.093,0.036l-0.092,0.036l-0.091,0.037l-0.092,0.038l-0.091,0.039l-0.09,0.039l-0.09,0.04l-0.09,0.041l-0.089,0.042l-0.089,0.042l-0.089,0.043l-0.088,0.043l-0.088,0.045l-0.087,0.045l-0.087,0.046l-0.087,0.046l-0.086,0.047l-0.085,0.048l-0.085,0.048l-0.085,0.05l-0.085,0.049l-0.084,0.051l-0.083,0.051l-0.083,0.052l-0.083,0.052l-0.082,0.054l-0.082,0.053l-0.081,0.055l-0.081,0.055l-0.08,0.056l-0.08,0.056l-0.079,0.057l-0.079,0.058l-0.078,0.058l-0.078,0.059l-0.078,0.059l-0.076,0.061l-0.077,0.06l-0.076,0.062l-0.075,0.062l-0.075,0.062l-0.074,0.063l-0.074,0.064l-0.073,0.064l-0.073,0.065l-0.073,0.066l-0.071,0.066l-0.071,0.066l-0.071,0.068l-0.07,0.067l-0.07,0.069l-0.069,0.069l-0.068,0.069l-0.068,0.07l-0.067,0.071l-0.067,0.071l-0.066,0.071l-0.066,0.073l-0.065,0.072l-0.064,0.073l-0.064,0.074l-0.063,0.074l-0.063,0.075l-0.062,0.076l-0.062,0.075l-0.06,0.077l-0.061,0.076l-0.059,0.078l-0.059,0.078l-0.059,0.078l-0.057,0.079l-0.057,0.079l-0.057,0.08l-0.056,0.08l-0.055,0.081l-0.055,0.081l-0.053,0.081l-0.054,0.082l-0.052,0.083l-0.052,0.083l-0.052,0.083l-0.05,0.084l-0.05,0.084l-0.049,0.085l-0.347,0.607l-0.29,0.668l-0.059,0.14l-0.057,0.141l-0.055,0.142l-0.053,0.143l-0.052,0.144l-0.05,0.144l-0.048,0.145l-0.047,0.146l-0.044,0.147l-0.043,0.148l-0.041,0.148l-0.039,0.15l-0.037,0.15l-0.035,0.15l-0.033,0.152l-0.032,0.152l-0.029,0.153l-0.028,0.154l-0.025,0.154l-0.024,0.155l-0.022,0.155l-0.019,0.157l-0.018,0.157l-0.015,0.157l-0.014,0.159l-0.012,0.159l-0.009,0.159l-0.007,0.16l-0.006,0.161l-0.003,0.161l-0.001,0.169l0,1.987l0.001,0.136l0.002,0.129l0.004,0.129l0.006,0.129l0.007,0.127l0.009,0.128l0.011,0.127l0.012,0.126l0.013,0.126l0.015,0.125l0.017,0.125l0.018,0.125l0.02,0.124l0.021,0.123l0.023,0.123l0.024,0.122l0.026,0.121l0.027,0.122l0.029,0.12l0.03,0.12l0.031,0.119l0.033,0.119l0.035,0.118l0.035,0.118l0.037,0.117l0.039,0.116l0.04,0.116l0.041,0.115l0.043,0.114l0.044,0.114l0.045,0.113l0.047,0.112l0.048,0.112l0.049,0.111l0.051,0.11l0.052,0.11l0.053,0.108l0.055,0.109l0.056,0.107l0.057,0.107l0.058,0.105l0.06,0.105l0.061,0.105l0.062,0.103l0.063,0.103l0.064,0.102l0.066,0.101l0.067,0.1l0.068,0.099l0.069,0.099l0.07,0.098l0.072,0.096l0.072,0.096l0.074,0.095l0.075,0.094l0.076,0.093l0.077,0.093l0.078,0.091l0.079,0.09l0.08,0.09l0.082,0.088l0.082,0.087l0.084,0.087l0.084,0.085l0.085,0.085l0.087,0.083l0.087,0.083l0.089,0.081l0.089,0.08l0.09,0.079l0.092,0.078l0.092,0.077l0.093,0.076l0.094,0.075l0.095,0.074l0.096,0.073l0.097,0.071l0.097,0.07l0.099,0.07l0.099,0.068l0.101,0.066l0.101,0.066l0.101,0.065l0.103,0.063l0.104,0.062l0.104,0.061l0.105,0.059l0.106,0.058l0.106,0.058l0.108,0.055l0.108,0.055l0.109,0.053l0.109,0.052l0.111,0.051l0.11,0.049l0.112,0.048l0.113,0.047l0.113,0.045l0.113,0.044l0.115,0.043l0.115,0.041l0.115,0.04l0.117,0.039l0.117,0.037l0.117,0.036l0.118,0.034l0.119,0.033l0.119,0.032l0.12,0.03l0.121,0.028l0.121,0.027l0.121,0.026l0.123,0.024l0.123,0.023l0.123,0.021l0.124,0.02l0.124,0.018l0.125,0.017l0.125,0.015l0.126,0.014l0.127,0.012l0.126,0.01l0.128,0.009l0.128,0.007l0.128,0.006l0.129,0.004l0.129,0.002l0.136,0.001l3.988,0l0.136,-0.001l0.129,-0.002l0.129,-0.004l0.128,-0.006l0.128,-0.007l0.128,-0.009l0.126,-0.01l0.127,-0.012l0.126,-0.014l0.125,-0.015l0.125,-0.017l0.124,-0.018l0.124,-0.02l0.123,-0.021l0.123,-0.023l0.123,-0.024l0.121,-0.026l0.121,-0.027l0.121,-0.028l0.12,-0.03l0.119,-0.032l0.119,-0.033l0.118,-0.034l0.117,-0.036l0.117,-0.037l0.117,-0.039l0.115,-0.04l0.115,-0.041l0.115,-0.043l0.113,-0.044l0.113,-0.045l0.113,-0.047l0.112,-0.048l0.11,-0.049l0.111,-0.051l0.109,-0.052l0.109,-0.053l0.108,-0.055l0.108,-0.055l0.106,-0.058l0.106,-0.058l0.105,-0.059l0.104,-0.061l0.104,-0.062l0.103,-0.063l0.101,-0.065l0.101,-0.066l0.101,-0.066l0.099,-0.068l0.099,-0.07l0.097,-0.07l0.097,-0.071l0.096,-0.073l0.095,-0.074l0.094,-0.075l0.093,-0.076l0.092,-0.077l0.092,-0.078l0.09,-0.079l0.089,-0.08l0.089,-0.081l0.087,-0.083l0.087,-0.083l0.085,-0.085l0.084,-0.085l0.084,-0.087l0.082,-0.087l0.082,-0.088l0.08,-0.09l0.079,-0.09l0.078,-0.091l0.077,-0.093l0.076,-0.093l0.075,-0.094l0.074,-0.095l0.072,-0.096l0.072,-0.096l0.07,-0.098l0.069,-0.099l0.068,-0.099l0.067,-0.1l0.066,-0.101l0.064,-0.102l0.063,-0.103l0.063,-0.103l0.06,-0.105l0.06,-0.105l0.058,-0.105l0.057,-0.107l0.056,-0.107l0.055,-0.109l0.053,-0.108l0.052,-0.11l0.051,-0.11l0.049,-0.111l0.048,-0.112l0.047,-0.112l0.045,-0.113l0.044,-0.114l0.043,-0.114l0.041,-0.115l0.04,-0.116l0.039,-0.116l0.037,-0.117l0.035,-0.118l0.035,-0.118l0.033,-0.119l0.031,-0.119l0.03,-0.12l0.029,-0.12l0.027,-0.122l0.026,-0.121l0.024,-0.122l0.023,-0.123l0.021,-0.123l0.02,-0.124l0.018,-0.125l0.017,-0.125l0.015,-0.125l0.013,-0.126l0.012,-0.126l0.011,-0.127l0.009,-0.128l0.007,-0.127l0.006,-0.129l0.004,-0.129l0.002,-0.129l0.001,-0.136l0,-1.987l-0.001,-0.165l-0.003,-0.157l-0.005,-0.157l-0.008,-0.157l-0.009,-0.157l-0.011,-0.157l-0.013,-0.156l-0.016,-0.155l-0.017,-0.156l-0.019,-0.155l-0.022,-0.154l-0.023,-0.155l-0.026,-0.153l-0.027,-0.154l-0.029,-0.153l-0.031,-0.152l-0.034,-0.152l-0.035,-0.151l-0.037,-0.151l-0.039,-0.15l-0.041,-0.15l-0.043,-0.149l-0.044,-0.148l-0.047,-0.148l-0.049,-0.147l-0.05,-0.147l-0.052,-0.146l-0.055,-0.145l-0.056,-0.144l-0.058,-0.144l-0.059,-0.143l-0.292,-0.672l-0.348,-0.611l-0.051,-0.088l-0.051,-0.087l-0.053,-0.086l-0.053,-0.087l-0.053,-0.086l-0.055,-0.085l-0.055,-0.085l-0.056,-0.085l-0.057,-0.084l-0.058,-0.083l-0.058,-0.084l-0.059,-0.082l-0.06,-0.083l-0.06,-0.081l-0.061,-0.082l-0.062,-0.081l-0.063,-0.08l-0.063,-0.08l-0.064,-0.079l-0.065,-0.079l-0.065,-0.079l-0.067,-0.078l-0.066,-0.077l-0.068,-0.077l-0.068,-0.076l-0.069,-0.076l-0.07,-0.075l-0.07,-0.075l-0.071,-0.074l-0.072,-0.074l-0.071,-0.072l-0.108,-0.106l-0.107,-0.103l-0.108,-0.102l-0.11,-0.1l-0.111,-0.099l-0.111,-0.098l-0.113,-0.096l-0.114,-0.094l-0.115,-0.093l-0.116,-0.092l-0.117,-0.09l-0.118,-0.088l-0.119,-0.087l-0.12,-0.085l-0.121,-0.084l-0.121,-0.083l-0.123,-0.08l-0.124,-0.08l-0.124,-0.077l-0.126,-0.076l-0.126,-0.075l-0.127,-0.073l-0.128,-0.071l-0.129,-0.07l-0.13,-0.068l-0.13,-0.067l-0.132,-0.065l-0.132,-0.063l-0.132,-0.062l-0.134,-0.06l-0.134,-0.058l-0.135,-0.057l-0.135,-0.055l-0.137,-0.054l-0.136,-0.052l-0.138,-0.05l-0.138,-0.048l-0.139,-0.047l-0.139,-0.045l-0.14,-0.044l-0.14,-0.042l-0.141,-0.04l-0.142,-0.038l-0.142,-0.037l-0.143,-0.035l-0.143,-0.033l-0.143,-0.031l-0.144,-0.03l-0.144,-0.028l-0.145,-0.026l-0.145,-0.024l-0.146,-0.023l-0.146,-0.021l-0.146,-0.019l-0.147,-0.017l-0.147,-0.016l-0.147,-0.014l-0.148,-0.012l-0.148,-0.01l-0.148,-0.008l-0.148,-0.006l-0.149,-0.005l-0.149,-0.003l-0.151,-0.001l-0.103,0.001Z"/></g><g id="emoji"><path d="M30,15.983c0,-3.713 -1.475,-7.274 -4.101,-9.899c-2.625,-2.626 -6.186,-4.101 -9.899,-4.101l0,0c-7.732,0 -14,6.268 -14,14l0,2c0,6.628 5.373,12 12,12l4,0c6.627,0 12,-5.372 12,-12l0,-2Z" style="fill:#fbc546;"/><clipPath id="_clip2"><path d="M30,15.983c0,-3.713 -1.475,-7.274 -4.101,-9.899c-2.625,-2.626 -6.186,-4.101 -9.899,-4.101l0,0c-7.732,0 -14,6.268 -14,14l0,2c0,6.628 5.373,12 12,12l4,0c6.627,0 12,-5.372 12,-12l0,-2Z"/></clipPath><g clip-path="url(#_clip2)"><path d="M8.69,4.604c-0.027,-0.083 -0.103,-0.138 -0.19,-0.138c-0.087,0 -0.163,0.055 -0.19,0.138c-0.435,1.337 -1.462,4.5 -1.462,4.5c0,0 -3.327,0 -4.732,0c-0.087,0 -0.164,0.056 -0.191,0.138c-0.026,0.083 0.003,0.173 0.073,0.224c1.137,0.826 3.828,2.781 3.828,2.781c0,0 -1.028,3.164 -1.462,4.501c-0.027,0.082 0.003,0.172 0.073,0.223c0.07,0.051 0.165,0.051 0.235,0c1.137,-0.826 3.828,-2.781 3.828,-2.781c0,0 2.691,1.955 3.828,2.781c0.07,0.051 0.165,0.051 0.235,0c0.07,-0.051 0.1,-0.141 0.073,-0.223c-0.434,-1.337 -1.462,-4.501 -1.462,-4.501c0,0 2.691,-1.955 3.828,-2.781c0.07,-0.051 0.099,-0.141 0.073,-0.224c-0.027,-0.082 -0.104,-0.138 -0.191,-0.138c-1.405,0 -4.732,0 -4.732,0c0,0 -1.027,-3.163 -1.462,-4.5Zm14.62,0c0.027,-0.083 0.103,-0.138 0.19,-0.138c0.087,0 0.163,0.055 0.19,0.138c0.435,1.337 1.462,4.5 1.462,4.5c0,0 3.327,0 4.732,0c0.087,0 0.164,0.056 0.191,0.138c0.026,0.083 -0.003,0.173 -0.073,0.224c-1.137,0.826 -3.828,2.781 -3.828,2.781c0,0 1.028,3.164 1.462,4.501c0.027,0.082 -0.003,0.172 -0.073,0.223c-0.07,0.051 -0.165,0.051 -0.235,0c-1.137,-0.826 -3.828,-2.781 -3.828,-2.781c0,0 -2.691,1.955 -3.828,2.781c-0.07,0.051 -0.165,0.051 -0.235,0c-0.07,-0.051 -0.1,-0.141 -0.073,-0.223c0.434,-1.337 1.462,-4.501 1.462,-4.501c0,0 -2.691,-1.955 -3.828,-2.781c-0.07,-0.051 -0.099,-0.141 -0.073,-0.224c0.027,-0.082 0.104,-0.138 0.191,-0.138c1.405,0 4.732,0 4.732,0c0,0 1.027,-3.163 1.462,-4.5Z" style="fill:none;stroke:#bf7e0d;stroke-width:4px;"/></g><path d="M24.078,19.986l0.078,0.01l0.077,0.015l0.076,0.021l0.074,0.027l0.071,0.033l0.068,0.039l0.066,0.043l0.061,0.049l0.058,0.053l0.053,0.058l0.049,0.062l0.044,0.065l0.038,0.068l0.033,0.072l0.027,0.073l0.021,0.076l0.016,0.077l0.009,0.078l0.003,0.078l-0.003,0.079l-0.009,0.078l-0.016,0.077l-0.021,0.075l-0.027,0.074l-0.033,0.071l-0.038,0.069l-0.044,0.065l-0.049,0.062l-0.053,0.057l-1.883,1.883l-0.067,0.065l-0.072,0.068l-0.074,0.065l-0.076,0.064l-0.077,0.061l-0.078,0.06l-0.08,0.057l-0.081,0.056l-0.082,0.053l-0.083,0.051l-0.085,0.049l-0.085,0.048l-0.087,0.044l-0.088,0.043l-0.089,0.041l-0.089,0.038l-0.091,0.036l-0.091,0.034l-0.093,0.032l-0.093,0.03l-0.093,0.027l-0.095,0.025l-0.095,0.023l-0.096,0.02l-0.096,0.018l-0.097,0.016l-0.098,0.013l-0.098,0.011l-0.098,0.009l-0.099,0.006l-0.099,0.004l-0.099,0.001l-0.099,-0.001l-0.099,-0.004l-0.099,-0.006l-0.098,-0.009l-0.098,-0.011l-0.098,-0.013l-0.097,-0.016l-0.096,-0.018l-0.096,-0.02l-0.095,-0.023l-0.095,-0.025l-0.093,-0.027l-0.093,-0.03l-0.093,-0.032l-0.091,-0.034l-0.091,-0.036l-0.089,-0.038l-0.089,-0.041l-0.088,-0.043l-0.087,-0.044l-0.085,-0.048l-0.085,-0.049l-0.083,-0.051l-0.082,-0.053l-0.081,-0.056l-0.08,-0.057l-0.078,-0.06l-0.077,-0.061l-0.076,-0.064l-0.074,-0.065l-0.072,-0.068l-0.067,-0.065l-1.167,-1.167l-0.009,-0.008l-0.009,0.008l-1.167,1.167l-0.067,0.065l-0.072,0.068l-0.074,0.065l-0.076,0.064l-0.077,0.061l-0.078,0.06l-0.08,0.057l-0.081,0.056l-0.082,0.053l-0.083,0.051l-0.085,0.049l-0.085,0.048l-0.087,0.044l-0.088,0.043l-0.089,0.041l-0.089,0.038l-0.091,0.036l-0.091,0.034l-0.093,0.032l-0.093,0.03l-0.093,0.027l-0.095,0.025l-0.095,0.023l-0.096,0.02l-0.096,0.018l-0.097,0.016l-0.098,0.013l-0.098,0.011l-0.098,0.009l-0.099,0.006l-0.099,0.004l-0.099,0.001l-0.099,-0.001l-0.099,-0.004l-0.099,-0.006l-0.098,-0.009l-0.098,-0.011l-0.098,-0.013l-0.097,-0.016l-0.096,-0.018l-0.096,-0.02l-0.095,-0.023l-0.095,-0.025l-0.093,-0.027l-0.093,-0.03l-0.093,-0.032l-0.091,-0.034l-0.091,-0.036l-0.089,-0.038l-0.089,-0.041l-0.088,-0.043l-0.087,-0.044l-0.085,-0.048l-0.085,-0.049l-0.083,-0.051l-0.082,-0.053l-0.081,-0.056l-0.08,-0.057l-0.078,-0.06l-0.077,-0.061l-0.076,-0.064l-0.074,-0.065l-0.072,-0.068l-0.067,-0.065l-1.883,-1.883l-0.053,-0.057l-0.049,-0.062l-0.044,-0.065l-0.038,-0.069l-0.033,-0.071l-0.027,-0.074l-0.021,-0.075l-0.016,-0.077l-0.009,-0.078l-0.003,-0.079l0.003,-0.078l0.009,-0.078l0.016,-0.077l0.021,-0.076l0.027,-0.073l0.033,-0.072l0.038,-0.068l0.044,-0.065l0.049,-0.062l0.053,-0.058l0.058,-0.053l0.061,-0.049l0.066,-0.043l0.068,-0.039l0.071,-0.033l0.074,-0.027l0.076,-0.021l0.077,-0.015l0.078,-0.01l0.078,-0.003l0.078,0.003l0.078,0.01l0.077,0.015l0.076,0.021l0.074,0.027l0.071,0.033l0.068,0.039l0.066,0.043l0.061,0.049l0.058,0.053l1.874,1.874l0.04,0.04l0.037,0.033l0.037,0.033l0.038,0.032l0.038,0.03l0.039,0.03l0.04,0.029l0.04,0.028l0.041,0.026l0.042,0.026l0.042,0.024l0.043,0.024l0.044,0.022l0.043,0.022l0.045,0.02l0.045,0.019l0.045,0.018l0.046,0.017l0.046,0.016l0.046,0.015l0.047,0.014l0.048,0.012l0.047,0.012l0.048,0.01l0.048,0.009l0.049,0.008l0.048,0.006l0.049,0.006l0.049,0.004l0.05,0.003l0.049,0.002l0.05,0.001l0.05,-0.001l0.049,-0.002l0.05,-0.003l0.049,-0.004l0.049,-0.006l0.048,-0.006l0.049,-0.008l0.048,-0.009l0.048,-0.01l0.047,-0.012l0.048,-0.012l0.047,-0.014l0.046,-0.015l0.046,-0.016l0.046,-0.017l0.045,-0.018l0.045,-0.019l0.045,-0.02l0.043,-0.022l0.044,-0.022l0.043,-0.024l0.042,-0.024l0.042,-0.026l0.041,-0.026l0.04,-0.028l0.04,-0.029l0.039,-0.03l0.038,-0.03l0.038,-0.032l0.037,-0.033l0.037,-0.033l0.04,-0.04l1.176,-1.175l0.062,-0.06l0.075,-0.065l0.078,-0.06l0.08,-0.057l0.083,-0.052l0.085,-0.048l0.087,-0.044l0.09,-0.04l0.091,-0.035l0.092,-0.03l0.094,-0.026l0.096,-0.022l0.097,-0.017l0.097,-0.012l0.099,-0.007l0.099,-0.003l0.099,0.003l0.099,0.007l0.097,0.012l0.097,0.017l0.096,0.022l0.094,0.026l0.092,0.03l0.091,0.035l0.09,0.04l0.087,0.044l0.085,0.048l0.083,0.052l0.08,0.057l0.078,0.06l0.075,0.065l0.062,0.06l1.176,1.175l0.04,0.04l0.037,0.033l0.037,0.033l0.038,0.032l0.038,0.03l0.039,0.03l0.04,0.029l0.04,0.028l0.041,0.026l0.042,0.026l0.042,0.024l0.043,0.024l0.044,0.022l0.043,0.022l0.045,0.02l0.045,0.019l0.045,0.018l0.046,0.017l0.046,0.016l0.046,0.015l0.047,0.014l0.048,0.012l0.047,0.012l0.048,0.01l0.048,0.009l0.049,0.008l0.048,0.006l0.049,0.006l0.049,0.004l0.05,0.003l0.049,0.002l0.05,0.001l0.05,-0.001l0.049,-0.002l0.05,-0.003l0.049,-0.004l0.049,-0.006l0.048,-0.006l0.049,-0.008l0.048,-0.009l0.048,-0.01l0.047,-0.012l0.048,-0.012l0.047,-0.014l0.046,-0.015l0.046,-0.016l0.046,-0.017l0.045,-0.018l0.045,-0.019l0.045,-0.02l0.043,-0.022l0.044,-0.022l0.043,-0.024l0.042,-0.024l0.042,-0.026l0.041,-0.026l0.04,-0.028l0.04,-0.029l0.039,-0.03l0.038,-0.03l0.038,-0.032l0.037,-0.033l0.037,-0.033l0.04,-0.04l1.874,-1.874l0.058,-0.053l0.061,-0.049l0.066,-0.043l0.068,-0.039l0.071,-0.033l0.074,-0.027l0.076,-0.021l0.077,-0.015l0.078,-0.01l0.078,-0.003l0.078,0.003Z" style="fill:#593604;"/><path d="M8.69,4.604c-0.027,-0.083 -0.103,-0.138 -0.19,-0.138c-0.087,0 -0.163,0.055 -0.19,0.138c-0.435,1.337 -1.462,4.5 -1.462,4.5c0,0 -3.327,0 -4.732,0c-0.087,0 -0.164,0.056 -0.191,0.138c-0.026,0.083 0.003,0.173 0.073,0.224c1.137,0.826 3.828,2.781 3.828,2.781c0,0 -1.028,3.164 -1.462,4.501c-0.027,0.082 0.003,0.172 0.073,0.223c0.07,0.051 0.165,0.051 0.235,0c1.137,-0.826 3.828,-2.781 3.828,-2.781c0,0 2.691,1.955 3.828,2.781c0.07,0.051 0.165,0.051 0.235,0c0.07,-0.051 0.1,-0.141 0.073,-0.223c-0.434,-1.337 -1.462,-4.501 -1.462,-4.501c0,0 2.691,-1.955 3.828,-2.781c0.07,-0.051 0.099,-0.141 0.073,-0.224c-0.027,-0.082 -0.104,-0.138 -0.191,-0.138c-1.405,0 -4.732,0 -4.732,0c0,0 -1.027,-3.163 -1.462,-4.5Zm14.62,0c0.027,-0.083 0.103,-0.138 0.19,-0.138c0.087,0 0.163,0.055 0.19,0.138c0.435,1.337 1.462,4.5 1.462,4.5c0,0 3.327,0 4.732,0c0.087,0 0.164,0.056 0.191,0.138c0.026,0.083 -0.003,0.173 -0.073,0.224c-1.137,0.826 -3.828,2.781 -3.828,2.781c0,0 1.028,3.164 1.462,4.501c0.027,0.082 -0.003,0.172 -0.073,0.223c-0.07,0.051 -0.165,0.051 -0.235,0c-1.137,-0.826 -3.828,-2.781 -3.828,-2.781c0,0 -2.691,1.955 -3.828,2.781c-0.07,0.051 -0.165,0.051 -0.235,0c-0.07,-0.051 -0.1,-0.141 -0.073,-0.223c0.434,-1.337 1.462,-4.501 1.462,-4.501c0,0 -2.691,-1.955 -3.828,-2.781c-0.07,-0.051 -0.099,-0.141 -0.073,-0.224c0.027,-0.082 0.104,-0.138 0.191,-0.138c1.405,0 4.732,0 4.732,0c0,0 1.027,-3.163 1.462,-4.5Z" style="fill:#ffec8e;"/></g></g></svg>