<?xml version="1.0" encoding="UTF-8" standalone="no"?>
<!DOCTYPE svg PUBLIC "-//W3C//DTD SVG 1.1//EN" "http://www.w3.org/Graphics/SVG/1.1/DTD/svg11.dtd">
<svg width="100%" height="100%" viewBox="0 0 32 32" version="1.1" xmlns="http://www.w3.org/2000/svg" xmlns:xlink="http://www.w3.org/1999/xlink" xml:space="preserve" xmlns:serif="http://www.serif.com/" style="fill-rule:evenodd;clip-rule:evenodd;stroke-linejoin:round;stroke-miterlimit:2;">
    <rect id="starry_eyes" x="0" y="-0.017" width="32" height="32" style="fill:none;"/>
    <clipPath id="_clip1">
        <rect x="0" y="-0.017" width="32" height="32"/>
    </clipPath>
    <g clip-path="url(#_clip1)">
        <g id="outline">
            <path d="M16.099,-0.016c4.208,0.026 8.238,1.708 11.215,4.686c0.447,0.447 0.866,0.919 1.254,1.412l0.573,0c1.238,0 2.336,0.797 2.719,1.975c0.1,0.308 0.145,0.624 0.139,0.935l0,1.906l-0.001,-0.035c0.006,0.197 -0.009,0.393 -0.044,0.587c-0.061,0.337 -0.183,0.663 -0.359,0.957c0.267,1.164 0.405,2.363 0.405,3.576l0,2c0,7.732 -6.268,14 -14,14l-4,0c-7.732,0 -14,-6.268 -14,-14l0,-2c0,-1.231 0.139,-2.429 0.402,-3.58c-0.155,-0.262 -0.269,-0.548 -0.335,-0.845c-0.036,-0.167 -0.058,-0.337 -0.064,-0.507l0,-0.007l-0.001,-0.034l-0.002,-0.049l0,-0.02l0,-1.958l0,-0.015c-0.003,-0.304 0.043,-0.611 0.14,-0.911c0.383,-1.178 1.481,-1.975 2.719,-1.975l0.572,0c2.93,-3.715 7.471,-6.099 12.569,-6.099l0.099,0.001Z"/>
        </g>
        <g id="emoji">
            <path d="M30,15.983c0,-3.713 -1.475,-7.274 -4.101,-9.899c-2.625,-2.626 -6.186,-4.101 -9.899,-4.101l0,0c-7.732,0 -14,6.268 -14,14l0,2c0,6.628 5.373,12 12,12l4,0c6.627,0 12,-5.372 12,-12l0,-2Z" style="fill:#fbc546;"/>
            <path d="M10.053,23.77c-1.375,-1.16 -2.442,-2.765 -2.852,-4.787l17.598,0c-0.41,2.022 -1.477,3.627 -2.852,4.787c-1.103,-1.118 -10.791,-1.118 -11.894,0Z" style="fill:#722245;"/>
            <path d="M10.053,23.77c1.103,-1.118 2.629,-1.787 4.272,-1.787c1.09,0 2.26,0 3.35,0c1.643,0 3.169,0.669 4.272,1.787c-1.726,1.457 -3.939,2.213 -5.947,2.213c-2.008,0 -4.221,-0.756 -5.947,-2.213Z" style="fill:#ca3b8f;"/>
            <path d="M22.683,6.577c0.031,-0.095 0.078,-0.184 0.139,-0.262c0.077,-0.099 0.175,-0.18 0.286,-0.237c0.09,-0.046 0.188,-0.076 0.289,-0.088c0.085,-0.011 0.172,-0.008 0.257,0.007c0.091,0.017 0.179,0.048 0.26,0.093c0.09,0.049 0.171,0.115 0.238,0.192c0.074,0.087 0.129,0.187 0.165,0.295l0.782,2.406l4.9,0l0,1.915c0.014,0.285 -0.115,0.564 -0.353,0.738c-1.404,1.02 -2.981,2.166 -2.981,2.166l0.461,1.421l0.719,0.357l0,1.957l0,0c0.011,0.282 -0.117,0.558 -0.354,0.73c-0.301,0.219 -0.709,0.219 -1.01,0c-1.404,-1.02 -2.981,-2.166 -2.981,-2.166c0,0 -1.577,1.146 -2.981,2.166c-0.301,0.219 -0.709,0.219 -1.01,0c-0.237,-0.172 -0.365,-0.448 -0.354,-0.73l0,0l0,-1.957l0.7,-0.3l0.48,-1.478c0,0 -1.577,-1.146 -2.981,-2.166c-0.227,-0.165 -0.354,-0.426 -0.354,-0.695l0,0l0,-1.958l4.901,0l0.782,-2.406Zm-15,0c0.031,-0.095 0.078,-0.184 0.139,-0.262c0.077,-0.099 0.175,-0.18 0.286,-0.237c0.09,-0.046 0.188,-0.076 0.289,-0.088c0.085,-0.011 0.172,-0.008 0.257,0.007c0.091,0.017 0.179,0.048 0.26,0.093c0.09,0.049 0.171,0.115 0.238,0.192c0.074,0.087 0.129,0.187 0.165,0.295l0.782,2.406l4.9,0l0,1.915c0.014,0.285 -0.115,0.564 -0.353,0.738c-1.404,1.02 -2.981,2.166 -2.981,2.166l0.461,1.421l0.719,0.357l0,1.957l0,0c0.011,0.282 -0.117,0.558 -0.354,0.73c-0.301,0.219 -0.709,0.219 -1.01,0c-1.404,-1.02 -2.981,-2.166 -2.981,-2.166c0,0 -1.577,1.146 -2.981,2.166c-0.301,0.219 -0.709,0.219 -1.01,0c-0.237,-0.172 -0.365,-0.448 -0.354,-0.73l0,0l0,-1.957l0.7,-0.3l0.48,-1.478c0,0 -1.577,-1.146 -2.981,-2.166c-0.227,-0.165 -0.354,-0.426 -0.354,-0.695l0,0l0,-1.958l4.901,0l0.782,-2.406Z" style="fill:#d69200;"/>
            <path d="M22.683,4.577c0.115,-0.354 0.445,-0.594 0.817,-0.594c0.372,0 0.702,0.24 0.817,0.594c0.536,1.65 1.139,3.505 1.139,3.505c0,0 1.95,0 3.685,0c0.372,0 0.702,0.239 0.817,0.593c0.115,0.354 -0.011,0.742 -0.312,0.961c-1.404,1.02 -2.981,2.166 -2.981,2.166c0,0 0.602,1.854 1.138,3.504c0.115,0.354 -0.011,0.742 -0.312,0.961c-0.301,0.219 -0.709,0.219 -1.01,0c-1.404,-1.02 -2.981,-2.166 -2.981,-2.166c0,0 -1.577,1.146 -2.981,2.166c-0.301,0.219 -0.709,0.219 -1.01,0c-0.301,-0.219 -0.427,-0.607 -0.312,-0.961c0.536,-1.65 1.138,-3.504 1.138,-3.504c0,0 -1.577,-1.146 -2.981,-2.166c-0.301,-0.219 -0.427,-0.607 -0.312,-0.961c0.115,-0.354 0.445,-0.593 0.817,-0.593c1.735,0 3.685,0 3.685,0c0,0 0.603,-1.855 1.139,-3.505Zm-15,0c0.115,-0.354 0.445,-0.594 0.817,-0.594c0.372,0 0.702,0.24 0.817,0.594c0.536,1.65 1.139,3.505 1.139,3.505c0,0 1.95,0 3.685,0c0.372,0 0.702,0.239 0.817,0.593c0.115,0.354 -0.011,0.742 -0.312,0.961c-1.404,1.02 -2.981,2.166 -2.981,2.166c0,0 0.602,1.854 1.138,3.504c0.115,0.354 -0.011,0.742 -0.312,0.961c-0.301,0.219 -0.709,0.219 -1.01,0c-1.404,-1.02 -2.981,-2.166 -2.981,-2.166c0,0 -1.577,1.146 -2.981,2.166c-0.301,0.219 -0.709,0.219 -1.01,0c-0.301,-0.219 -0.427,-0.607 -0.312,-0.961c0.536,-1.65 1.138,-3.504 1.138,-3.504c0,0 -1.577,-1.146 -2.981,-2.166c-0.301,-0.219 -0.427,-0.607 -0.312,-0.961c0.115,-0.354 0.445,-0.593 0.817,-0.593c1.735,0 3.685,0 3.685,0c0,0 0.603,-1.855 1.139,-3.505Z" style="fill:#fff9ef;"/>
        </g>
    </g>
</svg>
