<?xml version="1.0" encoding="UTF-8" standalone="no"?>
<!DOCTYPE svg PUBLIC "-//W3C//DTD SVG 1.1//EN" "http://www.w3.org/Graphics/SVG/1.1/DTD/svg11.dtd">
<svg width="100%" height="100%" viewBox="0 0 32 32" version="1.1" xmlns="http://www.w3.org/2000/svg" xmlns:xlink="http://www.w3.org/1999/xlink" xml:space="preserve" xmlns:serif="http://www.serif.com/" style="fill-rule:evenodd;clip-rule:evenodd;stroke-linejoin:round;stroke-miterlimit:2;">
    <rect id="surprised" x="0" y="0" width="32" height="32" style="fill:none;"/>
    <clipPath id="_clip1">
        <rect x="0" y="0" width="32" height="32"/>
    </clipPath>
    <g clip-path="url(#_clip1)">
        <g id="outline">
            <path d="M29,0c1.657,0 3,1.343 3,3c0,1.732 0,5.268 0,7c0,0.917 -0.412,1.739 -1.061,2.288c0.659,0.713 1.061,1.666 1.061,2.712c0,1.479 -0.805,2.772 -2,3.463l0,0.039c0,3.58 -1.422,7.013 -3.953,9.545c-2.532,2.531 -5.965,3.953 -9.545,3.953l-3.004,0c-3.58,0 -7.013,-1.422 -9.545,-3.953c-2.531,-2.532 -3.953,-5.965 -3.953,-9.545l0,-1.504c0,-8.283 6.715,-14.998 14.998,-14.998l0.002,0c3.265,0 6.419,1.064 9,3.001l0,-2.001c0,-1.657 1.343,-3 3,-3l2,0Z"/>
        </g>
        <g id="emoji">
            <g>
                <path d="M15,4c3.358,0 6.582,1.299 9,3.619c0,0 1.322,1.636 1.684,3.381c0.698,3.369 0.854,7.996 2.305,8c-0.124,2.869 -1.318,5.594 -3.357,7.632c-2.156,2.157 -5.081,3.368 -8.13,3.368l-3.004,0c-3.049,0 -5.974,-1.211 -8.13,-3.368c-2.157,-2.156 -3.368,-5.081 -3.368,-8.13l0,-1.504c0,-7.179 5.819,-12.998 12.998,-12.998l0.002,0Z" style="fill:#fbc546;"/>
                <path d="M24,7.619c0.065,0.062 0.129,0.125 0.192,0.189c2.438,2.438 3.808,5.744 3.808,9.192l0,1.502c0,0.166 -0.004,0.333 -0.011,0.498c-2.202,-0.006 -3.989,-1.796 -3.989,-4c0,-1.046 0.402,-1.998 1.06,-2.711c-0.648,-0.551 -1.06,-1.372 -1.06,-2.289l0,-2.381Z" style="fill:#e59a10;"/>
            </g>
            <g>
                <path d="M8.502,18c0.928,0 1.817,-0.369 2.473,-1.025c0.656,-0.656 1.025,-1.545 1.025,-2.473c0,-0.657 0,-1.345 0,-2.002c0,-1.933 -1.567,-3.5 -3.5,-3.5l-0.002,0c-0.928,0 -1.817,0.369 -2.473,1.025c-0.656,0.656 -1.025,1.545 -1.025,2.473c0,0.657 0,1.345 0,2.002c0,1.933 1.567,3.5 3.5,3.5l0.002,0Z" style="fill:#fff;"/>
                <path d="M7,13c0,-0.53 0.211,-1.039 0.586,-1.414c0.375,-0.375 0.884,-0.586 1.414,-0.586c1.105,0 2,0.895 2,2l0,0.983c0,0.531 -0.211,1.039 -0.586,1.415c-0.375,0.375 -0.884,0.585 -1.414,0.585c-1.105,0 -2,-0.895 -2,-2l0,-0.983Z"/>
                <path d="M21.498,18c-0.928,0 -1.817,-0.369 -2.473,-1.025c-0.656,-0.656 -1.025,-1.545 -1.025,-2.473c0,-0.657 0,-1.345 0,-2.002c0,-1.933 1.567,-3.5 3.5,-3.5l0.002,0c0.928,0 1.817,0.369 2.473,1.025c0.656,0.656 1.025,1.545 1.025,2.473c0,0.657 0,1.345 0,2.002c0,1.933 -1.567,3.5 -3.5,3.5l-0.002,0Z" style="fill:#fff;"/>
                <path d="M23,13c0,-0.53 -0.211,-1.039 -0.586,-1.414c-0.375,-0.375 -0.884,-0.586 -1.414,-0.586c-1.105,0 -2,0.895 -2,2l0,0.983c0,0.531 0.211,1.039 0.586,1.415c0.375,0.375 0.884,0.585 1.414,0.585c1.105,0 2,-0.895 2,-2l0,-0.983Z"/>
            </g>
            <g>
                <path d="M12.449,24.579c-0.285,-0.459 -0.449,-1 -0.449,-1.579c0,-0.654 0,-1.346 0,-2c0,-1.657 1.343,-3 3,-3c1.657,0 3,1.343 3,3c0,0.654 0,1.346 0,2c0,0.579 -0.164,1.12 -0.449,1.579c-0.78,-0.374 -4.322,-0.374 -5.102,0Z" style="fill:#722245;"/>
                <path d="M12.449,24.579c0.78,-0.374 1.649,-0.579 2.551,-0.579c0,0 0,0 0,0c0.902,0 1.771,0.205 2.551,0.579c-0.529,0.853 -1.474,1.421 -2.551,1.421c-1.077,0 -2.022,-0.568 -2.551,-1.421Z" style="fill:#ca3b8f;"/>
            </g>
            <path d="M28,13c1.104,0 2,0.896 2,2c0,1.104 -0.896,2 -2,2c-1.104,0 -2,-0.896 -2,-2c0,-1.104 0.896,-2 2,-2Zm1,-11c0.552,0 1,0.448 1,1c0,1.732 0,5.268 0,7c0,0.552 -0.448,1 -1,1c-0.611,0 -1.389,0 -2,0c-0.552,0 -1,-0.448 -1,-1c0,-1.732 0,-5.268 0,-7c0,-0.552 0.448,-1 1,-1l2,0Z" style="fill:#fff;"/>
        </g>
    </g>
</svg>
