<?xml version="1.0" encoding="UTF-8" standalone="no"?><!DOCTYPE svg PUBLIC "-//W3C//DTD SVG 1.1//EN" "http://www.w3.org/Graphics/SVG/1.1/DTD/svg11.dtd"><svg width="100%" height="100%" viewBox="0 0 32 32" version="1.1" xmlns="http://www.w3.org/2000/svg" xmlns:xlink="http://www.w3.org/1999/xlink" xml:space="preserve" xmlns:serif="http://www.serif.com/" style="fill-rule:evenodd;clip-rule:evenodd;stroke-linejoin:round;stroke-miterlimit:1.41421;"><rect id="surprised" x="0" y="0" width="32" height="32" style="fill:none;"/><clipPath id="_clip1"><rect x="0" y="0" width="32" height="32"/></clipPath><g clip-path="url(#_clip1)"><g id="outline"><path d="M29.153,0.003l0.151,0.012l0.15,0.019l0.148,0.026l0.146,0.034l0.143,0.041l0.141,0.047l0.137,0.054l0.133,0.06l0.129,0.067l0.126,0.072l0.122,0.078l0.118,0.084l0.113,0.088l0.108,0.094l0.104,0.099l0.099,0.104l0.094,0.109l0.089,0.113l0.083,0.117l0.078,0.122l0.072,0.126l0.067,0.129l0.06,0.134l0.054,0.137l0.047,0.139l0.041,0.144l0.034,0.145l0.026,0.149l0.019,0.15l0.012,0.151l0.003,0.128l0,7.05l-0.003,0.128l-0.012,0.151l-0.019,0.15l-0.026,0.149l-0.034,0.145l-0.041,0.144l-0.047,0.139l-0.054,0.137l-0.06,0.134l-0.067,0.129l-0.072,0.126l-0.078,0.122l-0.083,0.117l-0.089,0.113l-0.094,0.109l-0.099,0.104l-0.104,0.099l-0.078,0.067l0.02,0.022l0.064,0.072l0.062,0.073l0.06,0.075l0.058,0.075l0.057,0.078l0.055,0.079l0.052,0.081l0.051,0.081l0.05,0.083l0.047,0.085l0.045,0.086l0.043,0.086l0.042,0.089l0.039,0.09l0.037,0.09l0.035,0.091l0.032,0.093l0.031,0.094l0.028,0.095l0.026,0.096l0.024,0.097l0.021,0.097l0.019,0.098l0.016,0.099l0.014,0.1l0.012,0.1l0.009,0.101l0.006,0.102l0.004,0.102l0.001,0.102l-0.001,0.102l-0.004,0.102l-0.006,0.102l-0.009,0.101l-0.012,0.1l-0.014,0.1l-0.016,0.099l-0.019,0.098l-0.021,0.097l-0.024,0.097l-0.026,0.096l-0.028,0.095l-0.031,0.094l-0.032,0.093l-0.035,0.091l-0.037,0.091l-0.039,0.089l-0.042,0.088l-0.043,0.087l-0.045,0.086l-0.047,0.085l-0.05,0.083l-0.051,0.081l-0.052,0.081l-0.055,0.079l-0.057,0.078l-0.058,0.075l-0.06,0.075l-0.062,0.073l-0.064,0.072l-0.065,0.07l-0.067,0.068l-0.068,0.067l-0.07,0.065l-0.072,0.064l-0.073,0.062l-0.075,0.06l-0.076,0.058l-0.077,0.057l-0.079,0.054l-0.08,0.053l-0.082,0.051l-0.076,0.045l0,0.044l-0.001,0.162l-0.003,0.167l-0.005,0.167l-0.008,0.167l-0.009,0.167l-0.011,0.166l-0.014,0.166l-0.015,0.166l-0.017,0.165l-0.02,0.165l-0.021,0.165l-0.024,0.164l-0.025,0.164l-0.028,0.163l-0.029,0.163l-0.032,0.163l-0.033,0.162l-0.036,0.161l-0.037,0.161l-0.039,0.16l-0.041,0.16l-0.043,0.159l-0.045,0.159l-0.047,0.158l-0.049,0.157l-0.051,0.157l-0.053,0.156l-0.054,0.155l-0.057,0.155l-0.058,0.154l-0.06,0.153l-0.062,0.152l-0.064,0.152l-0.066,0.151l-0.068,0.15l-0.069,0.149l-0.071,0.149l-0.073,0.147l-0.075,0.147l-0.077,0.146l-0.079,0.145l-0.08,0.144l-0.082,0.143l-0.084,0.142l-0.085,0.141l-0.088,0.14l-0.089,0.14l-0.091,0.138l-0.092,0.137l-0.095,0.136l-0.096,0.135l-0.098,0.134l-0.099,0.132l-0.101,0.132l-0.103,0.13l-0.105,0.13l-0.106,0.128l-0.108,0.127l-0.11,0.125l-0.111,0.125l-0.113,0.123l-0.114,0.122l-0.117,0.12l-0.117,0.12l-0.12,0.117l-0.12,0.117l-0.122,0.114l-0.123,0.113l-0.125,0.111l-0.125,0.11l-0.127,0.108l-0.128,0.106l-0.13,0.105l-0.13,0.103l-0.132,0.101l-0.132,0.099l-0.134,0.098l-0.135,0.096l-0.136,0.095l-0.137,0.092l-0.138,0.091l-0.14,0.089l-0.14,0.088l-0.141,0.085l-0.142,0.084l-0.143,0.082l-0.144,0.08l-0.145,0.079l-0.146,0.077l-0.147,0.075l-0.147,0.073l-0.149,0.071l-0.149,0.069l-0.15,0.068l-0.151,0.066l-0.152,0.064l-0.152,0.062l-0.153,0.06l-0.154,0.058l-0.155,0.057l-0.155,0.054l-0.156,0.053l-0.157,0.051l-0.157,0.049l-0.158,0.047l-0.159,0.045l-0.159,0.043l-0.16,0.041l-0.16,0.039l-0.161,0.037l-0.161,0.036l-0.162,0.033l-0.163,0.032l-0.163,0.029l-0.163,0.028l-0.164,0.025l-0.164,0.024l-0.165,0.021l-0.165,0.02l-0.165,0.017l-0.166,0.015l-0.166,0.014l-0.166,0.011l-0.167,0.009l-0.167,0.008l-0.167,0.005l-0.167,0.003l-0.162,0.001l-3.016,0l-0.162,-0.001l-0.167,-0.003l-0.167,-0.005l-0.167,-0.008l-0.167,-0.009l-0.166,-0.011l-0.166,-0.014l-0.166,-0.015l-0.165,-0.017l-0.165,-0.02l-0.165,-0.021l-0.164,-0.024l-0.164,-0.025l-0.163,-0.028l-0.163,-0.029l-0.163,-0.032l-0.162,-0.033l-0.161,-0.036l-0.161,-0.037l-0.16,-0.039l-0.16,-0.041l-0.159,-0.043l-0.159,-0.045l-0.158,-0.047l-0.157,-0.049l-0.157,-0.051l-0.156,-0.053l-0.155,-0.054l-0.155,-0.057l-0.154,-0.058l-0.153,-0.06l-0.152,-0.062l-0.152,-0.064l-0.151,-0.066l-0.15,-0.068l-0.149,-0.069l-0.149,-0.071l-0.147,-0.073l-0.147,-0.075l-0.146,-0.077l-0.145,-0.079l-0.144,-0.08l-0.143,-0.082l-0.142,-0.084l-0.141,-0.085l-0.14,-0.088l-0.14,-0.089l-0.138,-0.091l-0.137,-0.092l-0.136,-0.095l-0.135,-0.096l-0.134,-0.098l-0.132,-0.099l-0.132,-0.101l-0.13,-0.103l-0.13,-0.105l-0.128,-0.106l-0.127,-0.108l-0.125,-0.11l-0.125,-0.111l-0.123,-0.113l-0.122,-0.114l-0.12,-0.117l-0.12,-0.117l-0.117,-0.12l-0.117,-0.12l-0.114,-0.122l-0.113,-0.123l-0.111,-0.125l-0.11,-0.125l-0.108,-0.127l-0.106,-0.128l-0.105,-0.13l-0.103,-0.13l-0.101,-0.132l-0.099,-0.132l-0.098,-0.134l-0.096,-0.135l-0.095,-0.136l-0.092,-0.137l-0.091,-0.138l-0.089,-0.14l-0.088,-0.14l-0.085,-0.141l-0.084,-0.142l-0.082,-0.143l-0.08,-0.144l-0.079,-0.145l-0.077,-0.146l-0.075,-0.147l-0.073,-0.147l-0.071,-0.149l-0.069,-0.149l-0.068,-0.15l-0.066,-0.151l-0.064,-0.152l-0.062,-0.152l-0.06,-0.153l-0.058,-0.154l-0.057,-0.155l-0.054,-0.155l-0.053,-0.156l-0.051,-0.157l-0.049,-0.157l-0.047,-0.158l-0.045,-0.159l-0.043,-0.159l-0.041,-0.16l-0.039,-0.16l-0.037,-0.161l-0.036,-0.161l-0.033,-0.162l-0.032,-0.163l-0.029,-0.163l-0.028,-0.163l-0.025,-0.164l-0.024,-0.164l-0.021,-0.165l-0.02,-0.165l-0.017,-0.165l-0.015,-0.166l-0.014,-0.166l-0.011,-0.166l-0.009,-0.167l-0.008,-0.167l-0.005,-0.167l-0.003,-0.167l-0.001,-0.162l0,-1.516l0.001,-0.187l0.004,-0.193l0.006,-0.192l0.008,-0.192l0.011,-0.191l0.014,-0.191l0.015,-0.19l0.018,-0.189l0.021,-0.189l0.022,-0.188l0.025,-0.187l0.028,-0.187l0.029,-0.185l0.032,-0.186l0.034,-0.184l0.037,-0.184l0.038,-0.182l0.041,-0.182l0.043,-0.181l0.045,-0.181l0.048,-0.179l0.049,-0.179l0.052,-0.177l0.054,-0.177l0.055,-0.176l0.058,-0.175l0.061,-0.174l0.062,-0.173l0.064,-0.172l0.066,-0.171l0.068,-0.17l0.07,-0.168l0.073,-0.168l0.074,-0.167l0.076,-0.166l0.078,-0.164l0.08,-0.164l0.082,-0.162l0.084,-0.161l0.085,-0.16l0.088,-0.159l0.089,-0.158l0.092,-0.156l0.093,-0.156l0.094,-0.153l0.097,-0.153l0.098,-0.152l0.101,-0.15l0.102,-0.149l0.103,-0.148l0.106,-0.146l0.107,-0.145l0.108,-0.143l0.111,-0.143l0.112,-0.14l0.114,-0.14l0.115,-0.138l0.117,-0.137l0.118,-0.135l0.121,-0.134l0.121,-0.132l0.124,-0.131l0.124,-0.129l0.127,-0.128l0.128,-0.127l0.129,-0.124l0.131,-0.124l0.132,-0.121l0.134,-0.121l0.135,-0.118l0.137,-0.117l0.138,-0.115l0.14,-0.114l0.14,-0.112l0.143,-0.111l0.143,-0.108l0.145,-0.107l0.146,-0.106l0.148,-0.104l0.149,-0.101l0.15,-0.101l0.152,-0.098l0.152,-0.097l0.155,-0.095l0.155,-0.093l0.156,-0.091l0.158,-0.089l0.159,-0.088l0.16,-0.085l0.161,-0.084l0.162,-0.082l0.164,-0.08l0.164,-0.078l0.166,-0.076l0.167,-0.074l0.167,-0.073l0.169,-0.07l0.17,-0.068l0.171,-0.066l0.172,-0.064l0.173,-0.062l0.174,-0.061l0.175,-0.058l0.176,-0.055l0.177,-0.054l0.177,-0.052l0.179,-0.049l0.179,-0.048l0.181,-0.045l0.181,-0.043l0.182,-0.041l0.183,-0.038l0.183,-0.037l0.184,-0.034l0.186,-0.032l0.185,-0.029l0.187,-0.028l0.187,-0.025l0.188,-0.022l0.189,-0.021l0.189,-0.018l0.19,-0.015l0.191,-0.014l0.191,-0.011l0.192,-0.008l0.192,-0.006l0.193,-0.004l0.187,-0.001l0.014,0l0.18,0.001l0.186,0.004l0.186,0.005l0.186,0.008l0.185,0.011l0.185,0.012l0.184,0.015l0.184,0.017l0.184,0.02l0.184,0.021l0.183,0.024l0.182,0.026l0.182,0.029l0.182,0.03l0.181,0.033l0.18,0.035l0.18,0.037l0.179,0.039l0.179,0.042l0.178,0.043l0.178,0.046l0.177,0.048l0.176,0.05l0.176,0.052l0.174,0.055l0.175,0.056l0.173,0.059l0.173,0.06l0.171,0.063l0.172,0.065l0.17,0.067l0.169,0.069l0.169,0.071l0.168,0.073l0.166,0.075l0.166,0.077l0.165,0.079l0.164,0.082l0.163,0.083l0.162,0.085l0.161,0.087l0.16,0.089l0.159,0.092l0.158,0.093l0.157,0.095l0.156,0.097l0.155,0.099l0.153,0.101l0.152,0.103l0.151,0.105l0.15,0.107l0.149,0.108l0.076,0.057l0,-2.026l0.003,-0.127l0.012,-0.151l0.019,-0.15l0.026,-0.148l0.034,-0.146l0.041,-0.144l0.047,-0.139l0.054,-0.137l0.06,-0.134l0.067,-0.129l0.072,-0.126l0.078,-0.122l0.084,-0.118l0.088,-0.112l0.094,-0.109l0.099,-0.104l0.104,-0.099l0.109,-0.094l0.113,-0.088l0.117,-0.084l0.122,-0.078l0.125,-0.072l0.13,-0.067l0.133,-0.06l0.137,-0.054l0.141,-0.047l0.143,-0.041l0.146,-0.034l0.148,-0.026l0.15,-0.019l0.151,-0.012l0.128,-0.003l2.05,0l0.128,0.003Zm-14.298,5.998l-0.142,0.003l-0.142,0.004l-0.141,0.006l-0.14,0.008l-0.14,0.01l-0.14,0.012l-0.139,0.013l-0.138,0.015l-0.138,0.017l-0.138,0.018l-0.136,0.02l-0.137,0.022l-0.135,0.023l-0.135,0.025l-0.135,0.027l-0.133,0.028l-0.134,0.03l-0.132,0.031l-0.132,0.033l-0.131,0.035l-0.131,0.036l-0.13,0.038l-0.129,0.039l-0.129,0.041l-0.128,0.042l-0.127,0.044l-0.127,0.046l-0.125,0.047l-0.125,0.048l-0.125,0.05l-0.123,0.051l-0.123,0.053l-0.122,0.055l-0.121,0.055l-0.121,0.058l-0.12,0.058l-0.119,0.06l-0.118,0.061l-0.117,0.063l-0.116,0.064l-0.116,0.066l-0.115,0.067l-0.113,0.068l-0.113,0.07l-0.112,0.07l-0.111,0.073l-0.111,0.073l-0.109,0.075l-0.108,0.076l-0.108,0.077l-0.106,0.079l-0.106,0.08l-0.104,0.081l-0.103,0.082l-0.103,0.084l-0.101,0.084l-0.101,0.086l-0.099,0.087l-0.098,0.089l-0.098,0.089l-0.096,0.091l-0.095,0.091l-0.094,0.093l-0.093,0.094l-0.091,0.095l-0.091,0.096l-0.089,0.098l-0.089,0.098l-0.087,0.099l-0.086,0.101l-0.084,0.101l-0.084,0.103l-0.082,0.103l-0.081,0.104l-0.08,0.106l-0.079,0.106l-0.077,0.108l-0.076,0.108l-0.075,0.109l-0.073,0.111l-0.073,0.111l-0.07,0.112l-0.07,0.113l-0.068,0.113l-0.067,0.115l-0.066,0.116l-0.064,0.116l-0.062,0.117l-0.062,0.118l-0.06,0.119l-0.059,0.12l-0.057,0.12l-0.055,0.122l-0.055,0.122l-0.052,0.123l-0.052,0.123l-0.05,0.125l-0.048,0.125l-0.047,0.125l-0.046,0.127l-0.044,0.127l-0.042,0.128l-0.041,0.129l-0.039,0.129l-0.038,0.13l-0.036,0.131l-0.035,0.131l-0.033,0.132l-0.031,0.132l-0.03,0.134l-0.028,0.133l-0.027,0.135l-0.025,0.135l-0.023,0.135l-0.022,0.137l-0.02,0.136l-0.019,0.138l-0.016,0.138l-0.015,0.138l-0.013,0.139l-0.012,0.14l-0.01,0.14l-0.008,0.14l-0.006,0.141l-0.004,0.142l-0.003,0.142l-0.001,0.149l0,1.492l0.001,0.124l0.002,0.118l0.004,0.118l0.005,0.117l0.006,0.117l0.008,0.117l0.01,0.117l0.011,0.117l0.012,0.116l0.013,0.116l0.016,0.116l0.016,0.116l0.018,0.115l0.019,0.115l0.021,0.114l0.022,0.114l0.024,0.114l0.025,0.114l0.026,0.113l0.027,0.113l0.029,0.113l0.031,0.112l0.032,0.111l0.033,0.111l0.034,0.111l0.036,0.11l0.037,0.11l0.038,0.109l0.04,0.109l0.041,0.109l0.042,0.107l0.044,0.108l0.045,0.106l0.046,0.107l0.048,0.105l0.049,0.105l0.05,0.105l0.051,0.104l0.053,0.103l0.054,0.102l0.055,0.103l0.057,0.101l0.057,0.1l0.059,0.1l0.061,0.1l0.061,0.099l0.063,0.097l0.064,0.097l0.065,0.097l0.066,0.096l0.068,0.095l0.069,0.094l0.07,0.093l0.071,0.093l0.072,0.091l0.074,0.091l0.075,0.09l0.076,0.09l0.077,0.088l0.078,0.088l0.08,0.086l0.08,0.086l0.082,0.085l0.083,0.084l0.084,0.083l0.085,0.082l0.086,0.08l0.086,0.08l0.088,0.078l0.088,0.077l0.089,0.076l0.091,0.075l0.091,0.074l0.091,0.072l0.093,0.071l0.093,0.07l0.094,0.069l0.095,0.068l0.096,0.066l0.096,0.065l0.098,0.064l0.098,0.063l0.098,0.061l0.099,0.061l0.1,0.059l0.101,0.057l0.102,0.057l0.102,0.055l0.102,0.054l0.103,0.053l0.104,0.051l0.105,0.05l0.105,0.049l0.105,0.048l0.107,0.046l0.106,0.045l0.108,0.044l0.107,0.042l0.109,0.041l0.109,0.04l0.109,0.038l0.11,0.037l0.11,0.036l0.111,0.034l0.111,0.033l0.111,0.032l0.113,0.031l0.112,0.029l0.113,0.027l0.113,0.026l0.113,0.025l0.114,0.024l0.115,0.022l0.114,0.021l0.115,0.019l0.115,0.018l0.116,0.016l0.116,0.016l0.116,0.013l0.116,0.012l0.117,0.011l0.117,0.01l0.117,0.008l0.117,0.006l0.117,0.005l0.118,0.004l0.118,0.002l0.124,0.001l2.992,0l0.124,-0.001l0.118,-0.002l0.118,-0.004l0.117,-0.005l0.117,-0.006l0.117,-0.008l0.117,-0.01l0.117,-0.011l0.116,-0.012l0.116,-0.013l0.116,-0.016l0.116,-0.016l0.115,-0.018l0.115,-0.019l0.114,-0.021l0.115,-0.022l0.114,-0.024l0.113,-0.025l0.113,-0.026l0.113,-0.027l0.112,-0.029l0.112,-0.031l0.112,-0.032l0.111,-0.033l0.111,-0.034l0.11,-0.036l0.11,-0.037l0.109,-0.038l0.109,-0.04l0.109,-0.041l0.107,-0.042l0.108,-0.044l0.106,-0.045l0.107,-0.046l0.105,-0.048l0.105,-0.049l0.105,-0.05l0.104,-0.051l0.103,-0.053l0.102,-0.054l0.102,-0.055l0.102,-0.057l0.101,-0.057l0.1,-0.059l0.099,-0.061l0.098,-0.061l0.098,-0.063l0.098,-0.064l0.096,-0.065l0.096,-0.066l0.095,-0.068l0.094,-0.069l0.093,-0.07l0.093,-0.071l0.091,-0.072l0.091,-0.074l0.091,-0.075l0.089,-0.076l0.088,-0.077l0.088,-0.078l0.086,-0.08l0.086,-0.08l0.085,-0.082l0.084,-0.083l0.083,-0.084l0.082,-0.085l0.08,-0.086l0.08,-0.086l0.078,-0.088l0.077,-0.088l0.076,-0.09l0.075,-0.09l0.074,-0.091l0.072,-0.091l0.071,-0.093l0.07,-0.093l0.069,-0.094l0.068,-0.095l0.066,-0.096l0.065,-0.097l0.064,-0.097l0.063,-0.097l0.061,-0.099l0.061,-0.1l0.059,-0.1l0.057,-0.1l0.057,-0.101l0.055,-0.103l0.054,-0.102l0.053,-0.103l0.051,-0.104l0.05,-0.105l0.049,-0.105l0.048,-0.105l0.046,-0.107l0.045,-0.106l0.044,-0.108l0.042,-0.107l0.041,-0.109l0.04,-0.109l0.038,-0.109l0.037,-0.11l0.036,-0.11l0.034,-0.111l0.033,-0.111l0.032,-0.111l0.031,-0.112l0.029,-0.113l0.027,-0.113l0.026,-0.113l0.025,-0.114l0.024,-0.114l0.022,-0.114l0.021,-0.114l0.019,-0.115l0.018,-0.115l0.016,-0.116l0.016,-0.116l0.013,-0.116l0.012,-0.116l0.011,-0.117l0.01,-0.117l0.008,-0.117l0.006,-0.117l0.005,-0.117l0.004,-0.118l0.002,-0.118l0.001,-0.124l0,-3.221l-0.549,-1.705l-0.041,-0.124l-0.043,-0.123l-0.044,-0.122l-0.045,-0.122l-0.048,-0.121l-0.048,-0.12l-0.05,-0.121l-0.051,-0.119l-0.053,-0.119l-0.054,-0.118l-0.056,-0.118l-0.057,-0.117l-0.058,-0.116l-0.06,-0.115l-0.236,-0.446l-0.279,-0.436l-0.084,-0.128l-0.086,-0.127l-0.088,-0.125l-0.09,-0.124l-0.091,-0.124l-0.093,-0.122l-0.095,-0.12l-0.097,-0.12l-0.098,-0.118l-0.101,-0.117l-0.101,-0.116l-0.104,-0.115l-0.106,-0.113l-0.107,-0.112l-0.109,-0.111l-0.097,-0.095l-0.098,-0.095l-0.1,-0.093l-0.1,-0.092l-0.102,-0.091l-0.102,-0.089l-0.103,-0.088l-0.105,-0.087l-0.105,-0.085l-0.106,-0.084l-0.108,-0.082l-0.108,-0.082l-0.109,-0.079l-0.11,-0.078l-0.111,-0.077l-0.111,-0.076l-0.113,-0.074l-0.113,-0.072l-0.114,-0.072l-0.115,-0.069l-0.116,-0.069l-0.117,-0.067l-0.117,-0.065l-0.118,-0.064l-0.119,-0.063l-0.12,-0.061l-0.12,-0.059l-0.121,-0.058l-0.122,-0.057l-0.122,-0.055l-0.123,-0.054l-0.124,-0.052l-0.124,-0.05l-0.125,-0.049l-0.125,-0.048l-0.126,-0.046l-0.127,-0.044l-0.127,-0.043l-0.128,-0.042l-0.128,-0.04l-0.129,-0.038l-0.129,-0.037l-0.13,-0.035l-0.13,-0.033l-0.13,-0.032l-0.132,-0.031l-0.131,-0.028l-0.132,-0.028l-0.132,-0.025l-0.133,-0.024l-0.133,-0.023l-0.134,-0.02l-0.133,-0.02l-0.135,-0.017l-0.134,-0.016l-0.135,-0.014l-0.135,-0.013l-0.135,-0.011l-0.136,-0.009l-0.135,-0.007l-0.136,-0.006l-0.137,-0.005l-0.136,-0.002l-0.138,-0.001l-0.144,0.001Z"/></g><g id="emoji"><path d="M28,17c0,-3.448 -1.37,-6.754 -3.808,-9.192c-2.438,-2.438 -5.744,-3.808 -9.192,-3.808c-0.001,0 -0.001,0 -0.002,0c-7.179,0 -12.998,5.819 -12.998,12.998c0,0.502 0,1.005 0,1.504c0,3.049 1.211,5.974 3.368,8.13c2.156,2.157 5.081,3.368 8.13,3.368c0.997,0 2.007,0 3.004,0c3.049,0 5.974,-1.211 8.13,-3.368c2.157,-2.156 3.368,-5.081 3.368,-8.13c0,-0.499 0,-1 0,-1.502Z" style="fill:#fbc546;"/><clipPath id="_clip2"><path d="M28,17c0,-3.448 -1.37,-6.754 -3.808,-9.192c-2.438,-2.438 -5.744,-3.808 -9.192,-3.808c-0.001,0 -0.001,0 -0.002,0c-7.179,0 -12.998,5.819 -12.998,12.998c0,0.502 0,1.005 0,1.504c0,3.049 1.211,5.974 3.368,8.13c2.156,2.157 5.081,3.368 8.13,3.368c0.997,0 2.007,0 3.004,0c3.049,0 5.974,-1.211 8.13,-3.368c2.157,-2.156 3.368,-5.081 3.368,-8.13c0,-0.499 0,-1 0,-1.502Z"/></clipPath><g clip-path="url(#_clip2)"><path d="M29.153,0.003l0.151,0.012l0.15,0.019l0.149,0.026l0.145,0.034l0.143,0.041l0.141,0.047l0.136,0.054l0.134,0.06l0.13,0.067l0.125,0.072l0.122,0.078l0.117,0.083l0.113,0.089l0.109,0.094l0.104,0.099l0.099,0.104l0.094,0.109l0.088,0.113l0.084,0.117l0.078,0.122l0.072,0.126l0.067,0.129l0.06,0.133l0.054,0.137l0.047,0.141l0.041,0.143l0.034,0.145l0.026,0.149l0.019,0.15l0.012,0.152l0.003,0.127l0,7.05l-0.003,0.127l-0.012,0.152l-0.019,0.15l-0.026,0.149l-0.034,0.145l-0.041,0.143l-0.047,0.141l-0.054,0.137l-0.06,0.133l-0.067,0.129l-0.072,0.126l-0.078,0.122l-0.084,0.117l-0.088,0.113l-0.094,0.109l-0.099,0.104l-0.104,0.099l-0.109,0.094l-0.113,0.089l-0.117,0.083l-0.122,0.078l-0.125,0.072l-0.13,0.067l-0.134,0.06l-0.136,0.054l-0.141,0.047l-0.143,0.041l-0.145,0.034l-0.149,0.026l-0.15,0.019l-0.151,0.012l-0.128,0.003l-2.05,0l-0.128,-0.003l-0.151,-0.012l-0.15,-0.019l-0.149,-0.026l-0.145,-0.034l-0.143,-0.041l-0.141,-0.047l-0.137,-0.054l-0.133,-0.06l-0.13,-0.067l-0.125,-0.072l-0.122,-0.078l-0.117,-0.084l-0.114,-0.088l-0.108,-0.094l-0.104,-0.099l-0.099,-0.104l-0.094,-0.109l-0.088,-0.113l-0.084,-0.117l-0.078,-0.122l-0.072,-0.125l-0.067,-0.13l-0.06,-0.134l-0.054,-0.137l-0.047,-0.139l-0.041,-0.143l-0.034,-0.147l-0.026,-0.148l-0.019,-0.149l-0.012,-0.152l-0.003,-0.128l0,-7.05l0.003,-0.128l0.012,-0.152l0.019,-0.149l0.026,-0.148l0.034,-0.147l0.041,-0.143l0.047,-0.139l0.054,-0.137l0.06,-0.134l0.067,-0.129l0.072,-0.126l0.078,-0.122l0.084,-0.117l0.088,-0.113l0.094,-0.109l0.099,-0.104l0.104,-0.099l0.108,-0.094l0.114,-0.088l0.117,-0.084l0.122,-0.078l0.125,-0.072l0.13,-0.067l0.133,-0.06l0.137,-0.054l0.141,-0.047l0.143,-0.041l0.145,-0.034l0.149,-0.026l0.15,-0.019l0.151,-0.012l0.128,-0.003l2.05,0l0.128,0.003Z" style="fill:#e59a10;"/><circle cx="28" cy="15" r="2" style="fill:#d92020;"/><path d="M28.102,11.001l0.102,0.004l0.102,0.006l0.101,0.009l0.1,0.012l0.1,0.014l0.099,0.016l0.098,0.019l0.098,0.021l0.096,0.024l0.096,0.026l0.095,0.028l0.094,0.031l0.093,0.032l0.091,0.035l0.091,0.037l0.089,0.039l0.088,0.042l0.087,0.043l0.086,0.045l0.085,0.047l0.083,0.05l0.081,0.051l0.081,0.053l0.079,0.054l0.078,0.057l0.076,0.058l0.074,0.06l0.073,0.062l0.072,0.064l0.07,0.065l0.068,0.067l0.067,0.068l0.065,0.07l0.064,0.072l0.062,0.073l0.06,0.074l0.058,0.077l0.057,0.077l0.054,0.079l0.053,0.08l0.051,0.082l0.05,0.083l0.047,0.085l0.045,0.085l0.043,0.088l0.042,0.088l0.039,0.089l0.037,0.091l0.034,0.091l0.033,0.093l0.031,0.094l0.028,0.095l0.026,0.096l0.024,0.097l0.021,0.097l0.019,0.098l0.016,0.099l0.014,0.1l0.012,0.1l0.009,0.101l0.006,0.102l0.004,0.102l0.001,0.102l-0.001,0.102l-0.004,0.102l-0.006,0.102l-0.009,0.101l-0.012,0.1l-0.014,0.1l-0.016,0.099l-0.019,0.098l-0.021,0.097l-0.024,0.097l-0.026,0.096l-0.028,0.095l-0.031,0.094l-0.033,0.093l-0.034,0.091l-0.037,0.091l-0.039,0.089l-0.042,0.088l-0.043,0.088l-0.045,0.085l-0.047,0.085l-0.05,0.083l-0.051,0.082l-0.053,0.08l-0.054,0.079l-0.057,0.077l-0.058,0.077l-0.06,0.074l-0.062,0.073l-0.064,0.072l-0.065,0.07l-0.067,0.068l-0.068,0.067l-0.07,0.065l-0.072,0.064l-0.073,0.062l-0.074,0.06l-0.076,0.058l-0.078,0.057l-0.079,0.054l-0.081,0.053l-0.081,0.051l-0.083,0.05l-0.085,0.047l-0.086,0.045l-0.087,0.043l-0.088,0.042l-0.089,0.039l-0.091,0.037l-0.091,0.035l-0.093,0.032l-0.094,0.031l-0.095,0.028l-0.096,0.026l-0.096,0.024l-0.098,0.021l-0.098,0.019l-0.099,0.016l-0.1,0.014l-0.1,0.012l-0.101,0.009l-0.102,0.006l-0.102,0.004l-0.102,0.001l-0.102,-0.001l-0.102,-0.004l-0.102,-0.006l-0.101,-0.009l-0.1,-0.012l-0.1,-0.014l-0.099,-0.016l-0.098,-0.019l-0.098,-0.021l-0.096,-0.024l-0.096,-0.026l-0.095,-0.028l-0.094,-0.031l-0.093,-0.032l-0.091,-0.035l-0.091,-0.037l-0.089,-0.039l-0.088,-0.042l-0.087,-0.043l-0.086,-0.045l-0.085,-0.047l-0.083,-0.05l-0.081,-0.051l-0.081,-0.053l-0.079,-0.054l-0.078,-0.057l-0.076,-0.058l-0.074,-0.06l-0.073,-0.062l-0.072,-0.064l-0.07,-0.065l-0.068,-0.067l-0.067,-0.068l-0.065,-0.07l-0.064,-0.072l-0.062,-0.073l-0.06,-0.074l-0.058,-0.077l-0.057,-0.077l-0.054,-0.079l-0.053,-0.08l-0.051,-0.082l-0.05,-0.083l-0.047,-0.085l-0.045,-0.085l-0.043,-0.088l-0.042,-0.088l-0.039,-0.089l-0.037,-0.091l-0.034,-0.091l-0.033,-0.093l-0.031,-0.094l-0.028,-0.095l-0.026,-0.096l-0.024,-0.097l-0.021,-0.097l-0.019,-0.098l-0.016,-0.099l-0.014,-0.1l-0.012,-0.1l-0.009,-0.101l-0.006,-0.102l-0.004,-0.102l-0.001,-0.102l0.001,-0.102l0.004,-0.102l0.006,-0.102l0.009,-0.101l0.012,-0.1l0.014,-0.1l0.016,-0.099l0.019,-0.098l0.021,-0.097l0.024,-0.097l0.026,-0.096l0.028,-0.095l0.031,-0.094l0.033,-0.093l0.034,-0.091l0.037,-0.091l0.039,-0.089l0.042,-0.088l0.043,-0.088l0.045,-0.085l0.047,-0.085l0.05,-0.083l0.051,-0.082l0.053,-0.08l0.054,-0.079l0.057,-0.077l0.058,-0.077l0.06,-0.074l0.062,-0.073l0.064,-0.072l0.065,-0.07l0.067,-0.068l0.068,-0.067l0.07,-0.065l0.072,-0.064l0.073,-0.062l0.074,-0.06l0.076,-0.058l0.078,-0.057l0.079,-0.054l0.081,-0.053l0.081,-0.051l0.083,-0.05l0.085,-0.047l0.086,-0.045l0.087,-0.043l0.088,-0.042l0.089,-0.039l0.091,-0.037l0.091,-0.035l0.093,-0.032l0.094,-0.031l0.095,-0.028l0.096,-0.026l0.096,-0.024l0.098,-0.021l0.098,-0.019l0.099,-0.016l0.1,-0.014l0.1,-0.012l0.101,-0.009l0.102,-0.006l0.102,-0.004l0.102,-0.001l0.102,0.001Z" style="fill:#e59a10;"/></g><g><path d="M13.093,24.316c-0.667,-0.55 -1.093,-1.383 -1.093,-2.316c0,-0.654 0,-1.346 0,-2c0,-1.657 1.343,-3 3,-3c1.657,0 3,1.343 3,3c0,0.654 0,1.346 0,2c0,0.933 -0.426,1.766 -1.093,2.316c-0.603,-0.206 -3.211,-0.206 -3.814,0Z" style="fill:#722245;"/><path d="M13.093,24.316c0.603,-0.206 1.246,-0.316 1.907,-0.316c0,0 0,0 0,0c0.661,0 1.304,0.11 1.907,0.316c-0.518,0.427 -1.183,0.684 -1.907,0.684c-0.724,0 -1.389,-0.257 -1.907,-0.684Z" style="fill:#ca3b8f;"/></g><path d="M11,10.5c0,-0.398 -0.158,-0.779 -0.439,-1.061c-0.282,-0.281 -0.663,-0.439 -1.061,-0.439c-0.398,0 -0.779,0.158 -1.061,0.439c-0.281,0.282 -0.439,0.663 -0.439,1.061c0,1.181 0,2.819 0,4c0,0.398 0.158,0.779 0.439,1.061c0.282,0.281 0.663,0.439 1.061,0.439c0.398,0 0.779,-0.158 1.061,-0.439c0.281,-0.282 0.439,-0.663 0.439,-1.061c0,-1.181 0,-2.819 0,-4Z"/><path d="M22,10.498c0,-0.397 -0.158,-0.778 -0.439,-1.059c-0.281,-0.281 -0.662,-0.439 -1.059,-0.439c-0.001,0 -0.003,0 -0.004,0c-0.397,0 -0.778,0.158 -1.059,0.439c-0.281,0.281 -0.439,0.662 -0.439,1.059c0,1.182 0,2.822 0,4.004c0,0.397 0.158,0.778 0.439,1.059c0.281,0.281 0.662,0.439 1.059,0.439c0.001,0 0.003,0 0.004,0c0.397,0 0.778,-0.158 1.059,-0.439c0.281,-0.281 0.439,-0.662 0.439,-1.059c0,-1.182 0,-2.822 0,-4.004Z"/><path d="M30,3c0,-0.552 -0.448,-1 -1,-1c-0.611,0 -1.389,0 -2,0c-0.552,0 -1,0.448 -1,1c0,1.732 0,5.268 0,7c0,0.552 0.448,1 1,1c0.611,0 1.389,0 2,0c0.552,0 1,-0.448 1,-1c0,-1.732 0,-5.268 0,-7Z" style="fill:#fff;"/><circle cx="28" cy="15" r="2" style="fill:#fff;"/></g></g></svg>