<?xml version="1.0" encoding="UTF-8" standalone="no"?>
<!DOCTYPE svg PUBLIC "-//W3C//DTD SVG 1.1//EN" "http://www.w3.org/Graphics/SVG/1.1/DTD/svg11.dtd">
<svg width="100%" height="100%" viewBox="0 0 32 32" version="1.1" xmlns="http://www.w3.org/2000/svg" xmlns:xlink="http://www.w3.org/1999/xlink" xml:space="preserve" xmlns:serif="http://www.serif.com/" style="fill-rule:evenodd;clip-rule:evenodd;stroke-linejoin:round;stroke-miterlimit:2;">
    <rect id="weary" x="0" y="0.017" width="32" height="32" style="fill:none;"/>
    <clipPath id="_clip1">
        <rect x="0" y="0.017" width="32" height="32"/>
    </clipPath>
    <g clip-path="url(#_clip1)">
        <g id="outline">
            <path d="M15.263,3.019c2.717,0.047 5.258,0.816 7.438,2.124l2.01,-4.021c0.339,-0.677 1.031,-1.105 1.789,-1.105c0.758,0 1.45,0.428 1.789,1.105c0,0 1.757,3.514 2.942,5.884c1.017,2.034 0.618,4.49 -0.989,6.098c-0.001,0 -0.001,0 -0.001,0.001c-0.26,0.259 -0.543,0.489 -0.846,0.686c0.394,1.34 0.605,2.758 0.605,4.226c0,0.336 0,0.671 0,1.006c0,7.176 -5.818,12.994 -12.994,12.994l-4.012,0c-7.176,0 -12.994,-5.818 -12.994,-12.994l0,-1.006c0,-8.285 6.716,-15 15,-15l0.263,0.002Z"/>
        </g>
        <g id="emoji">
            <path d="M15.084,5.017c2.463,0.016 4.763,0.716 6.72,1.92c0,0 5.391,7.682 5.729,7.615c0.304,1.103 0.467,2.265 0.467,3.465c0,0.336 0,0.671 0,1.006c0,6.072 -4.922,10.994 -10.994,10.994c-1.328,0 -2.684,0 -4.012,0c-6.072,0 -10.994,-4.922 -10.994,-10.994l0,-1.006c0,-7.18 5.82,-13 13,-13l0.084,0Z" style="fill:#fbc546;"/>
            <path d="M21.804,6.937c2.765,1.702 4.845,4.41 5.729,7.615c-0.338,0.067 -0.684,0.102 -1.033,0.102c-1.403,0 -2.749,-0.557 -3.741,-1.549c0,-0.001 0,-0.001 -0.001,-0.001c-1.607,-1.608 -2.006,-4.064 -0.989,-6.098l0.035,-0.069Z" style="fill:#e59a10;"/>
            <path d="M7.447,15.911l4,-2c0.494,-0.247 0.694,-0.848 0.447,-1.342c-0.246,-0.493 -0.848,-0.694 -1.341,-0.447l-4,2c-0.494,0.247 -0.694,0.848 -0.447,1.342c0.246,0.494 0.848,0.694 1.341,0.447Z"/>
            <path d="M23.447,14.122l-4,-2c-0.493,-0.247 -1.095,-0.046 -1.341,0.447c-0.247,0.494 -0.047,1.095 0.447,1.342l4,2c0.493,0.247 1.095,0.047 1.341,-0.447c0.247,-0.494 0.047,-1.095 -0.447,-1.342Z"/>
            <g>
                <path d="M8.852,24.017l-1.234,0c-0.347,0 -0.668,-0.18 -0.851,-0.475c-0.182,-0.294 -0.198,-0.663 -0.043,-0.973c0.378,-0.757 0.862,-1.725 1.341,-2.683c1.186,-2.371 3.61,-3.869 6.261,-3.869c0.447,0 0.901,0 1.348,0c2.651,0 5.075,1.498 6.261,3.869c0.479,0.958 0.963,1.926 1.341,2.683c0.155,0.31 0.139,0.679 -0.043,0.973c-0.183,0.295 -0.504,0.475 -0.851,0.475l-1.234,0c-1.115,-1.246 -11.181,-1.246 -12.296,0Z" style="fill:#722245;"/>
                <path d="M8.852,24.017c1.115,-1.246 2.727,-2 4.473,-2c1.09,0 2.26,0 3.35,0c1.746,0 3.358,0.754 4.473,2l-12.296,0Z" style="fill:#ca3b8f;"/>
            </g>
            <path d="M26.5,2.017c0,0 -1.757,3.514 -2.942,5.884c-0.632,1.263 -0.384,2.789 0.615,3.788c0,0.001 0,0.001 0.001,0.001c0.617,0.617 1.453,0.964 2.326,0.964c0.873,0 1.709,-0.347 2.326,-0.964c0.001,0 0.001,0 0.001,-0.001c0.999,-0.999 1.247,-2.525 0.615,-3.788c-1.185,-2.37 -2.942,-5.884 -2.942,-5.884Z" style="fill:#fff;"/>
        </g>
    </g>
</svg>
