<?xml version="1.0" encoding="UTF-8" standalone="no"?>
<!DOCTYPE svg PUBLIC "-//W3C//DTD SVG 1.1//EN" "http://www.w3.org/Graphics/SVG/1.1/DTD/svg11.dtd">
<svg width="100%" height="100%" viewBox="0 0 32 32" version="1.1" xmlns="http://www.w3.org/2000/svg" xmlns:xlink="http://www.w3.org/1999/xlink" xml:space="preserve" xmlns:serif="http://www.serif.com/" style="fill-rule:evenodd;clip-rule:evenodd;stroke-linecap:round;stroke-miterlimit:1.5;">
    <rect id="woozy" x="0" y="-0.017" width="32" height="32" style="fill:none;"/>
    <clipPath id="_clip1">
        <rect x="0" y="-0.017" width="32" height="32"/>
    </clipPath>
    <g clip-path="url(#_clip1)">
        <g id="outline">
            <path d="M16,0.983c8.837,0 16,7.164 16,16l0,0.502c0,3.58 -1.422,7.013 -3.953,9.545c-2.532,2.531 -5.965,3.953 -9.545,3.953c-1.652,0 -3.352,0 -5.004,0c-3.58,0 -7.013,-1.422 -9.545,-3.953c-2.531,-2.532 -3.953,-5.965 -3.953,-9.545c0,-0.167 0,-0.334 0,-0.502c0,-8.836 7.163,-16 16,-16l0,0Z"/>
        </g>
        <g id="emoji">
            <path d="M30,16.983c0,-7.732 -6.268,-14 -14,-14c0,0 0,0 0,0c-7.732,0 -14,6.268 -14,14c0,0.168 0,0.335 0,0.502c0,3.05 1.211,5.974 3.368,8.131c2.156,2.156 5.081,3.367 8.13,3.367l5.004,0c3.049,0 5.974,-1.211 8.13,-3.367c2.157,-2.157 3.368,-5.081 3.368,-8.131l0,-0.502Z" style="fill:#fbc546;"/>
            <g>
                <path d="M11.774,12.059l1.134,-0.378c0.06,0.257 0.092,0.526 0.092,0.802c0,0.658 0,1.345 0,2.002c0,0.928 -0.369,1.818 -1.025,2.474c-0.656,0.656 -1.545,1.024 -2.473,1.024l-0.002,0c-1.933,0 -3.5,-1.567 -3.5,-3.5l0,-0.5l2,-0.666c0.761,0.784 3.436,-0.339 3.774,-1.258Z" style="fill:#fff;"/>
                <path d="M11.774,12.059c0.144,0.276 0.226,0.591 0.226,0.924l0,0.984c0,0.53 -0.211,1.039 -0.586,1.414c-0.375,0.375 -0.884,0.586 -1.414,0.586c-1.105,0 -2,-0.896 -2,-2l0,-0.65l3.774,-1.258Z"/>
            </g>
            <g>
                <path d="M19.667,10.428l6.18,1.03c0.101,0.328 0.153,0.673 0.153,1.023c0,0.658 0,1.345 0,2.002c0,1.933 -1.567,3.5 -3.5,3.5l-0.002,0c-0.928,0 -1.817,-0.368 -2.473,-1.024c-0.656,-0.656 -1.025,-1.546 -1.025,-2.474c0,-0.657 0,-1.344 0,-2.002c0,-0.768 0.247,-1.478 0.667,-2.055Z" style="fill:#fff;"/>
                <path d="M24,12.983c0,-0.53 -0.211,-1.039 -0.586,-1.414c-0.375,-0.375 -0.884,-0.586 -1.414,-0.586c-1.105,0 -2,0.896 -2,2l0,0.984c0,0.53 0.211,1.039 0.586,1.414c0.375,0.375 0.884,0.586 1.414,0.586c1.105,0 2,-0.896 2,-2l0,-0.984Z"/>
            </g>
            <path d="M6,19.983c0,0 0.146,0.439 0.327,0.981c0.431,1.293 1.358,2.362 2.577,2.971c0,0 0,0 0.001,0.001c1.227,0.613 2.716,0.302 3.595,-0.752c0.376,-0.452 0.789,-0.948 1.195,-1.435c0.57,-0.684 1.415,-1.08 2.305,-1.08c0.89,0 1.735,0.396 2.305,1.08c0.197,0.237 0.396,0.476 0.592,0.711c0.54,0.647 1.327,1.038 2.169,1.076c0.842,0.038 1.661,-0.28 2.257,-0.876c1.306,-1.306 2.677,-2.677 2.677,-2.677" style="fill:none;stroke:#593604;stroke-width:2px;"/>
        </g>
    </g>
</svg>
