<?xml version="1.0" encoding="UTF-8" standalone="no"?><!DOCTYPE svg PUBLIC "-//W3C//DTD SVG 1.1//EN" "http://www.w3.org/Graphics/SVG/1.1/DTD/svg11.dtd"><svg width="100%" height="100%" viewBox="0 0 32 32" version="1.1" xmlns="http://www.w3.org/2000/svg" xmlns:xlink="http://www.w3.org/1999/xlink" xml:space="preserve" xmlns:serif="http://www.serif.com/" style="fill-rule:evenodd;clip-rule:evenodd;stroke-linecap:round;stroke-linejoin:round;stroke-miterlimit:1.5;"><rect id="blue_potion" x="0" y="0" width="32" height="32" style="fill:none;"/><clipPath id="_clip1"><rect x="0" y="0" width="32" height="32"/></clipPath><g clip-path="url(#_clip1)"><g id="outline"><path d="M12,5.5c0,-0.133 0.053,-0.26 0.146,-0.354c0.094,-0.093 0.221,-0.146 0.354,-0.146c1.436,0 5.564,0 7,0c0.133,0 0.26,0.053 0.354,0.146c0.093,0.094 0.146,0.221 0.146,0.354c0,0.305 0,0.695 0,1c0,0.133 -0.053,0.26 -0.146,0.354c-0.094,0.093 -0.221,0.146 -0.354,0.146c-0.25,0 -0.5,0 -0.5,0l0,4c0,0 4.725,9.449 5.789,11.578c0.139,0.277 0.211,0.584 0.211,0.894c0,0.913 0,2.966 0,4.528c0,0.53 -0.211,1.039 -0.586,1.414c-0.375,0.375 -0.884,0.586 -1.414,0.586c-3.463,0 -10.537,0 -14,0c-0.53,0 -1.039,-0.211 -1.414,-0.586c-0.375,-0.375 -0.586,-0.884 -0.586,-1.414c0,-1.562 0,-3.615 0,-4.528c0,-0.31 0.072,-0.617 0.211,-0.894c1.064,-2.129 5.789,-11.578 5.789,-11.578l0,-4c0,0 -0.25,0 -0.5,0c-0.133,0 -0.26,-0.053 -0.354,-0.146c-0.093,-0.094 -0.146,-0.221 -0.146,-0.354c0,-0.305 0,-0.695 0,-1Z" style="stroke:#000;stroke-width:4px;"/><rect x="14" y="2" width="4" height="5" style="fill:#63401e;stroke:#000;stroke-width:4px;"/></g><g id="emoji"><path d="M12,5.5c0,-0.133 0.053,-0.26 0.146,-0.354c0.094,-0.093 0.221,-0.146 0.354,-0.146c1.436,0 5.564,0 7,0c0.133,0 0.26,0.053 0.354,0.146c0.093,0.094 0.146,0.221 0.146,0.354c0,0.305 0,0.695 0,1c0,0.133 -0.053,0.26 -0.146,0.354c-0.094,0.093 -0.221,0.146 -0.354,0.146c-0.25,0 -0.5,0 -0.5,0l0,4c0,0 4.725,9.449 5.789,11.578c0.139,0.277 0.211,0.584 0.211,0.894c0,0.913 0,2.966 0,4.528c0,0.53 -0.211,1.039 -0.586,1.414c-0.375,0.375 -0.884,0.586 -1.414,0.586c-3.463,0 -10.537,0 -14,0c-0.53,0 -1.039,-0.211 -1.414,-0.586c-0.375,-0.375 -0.586,-0.884 -0.586,-1.414c0,-1.562 0,-3.615 0,-4.528c0,-0.31 0.072,-0.617 0.211,-0.894c1.064,-2.129 5.789,-11.578 5.789,-11.578l0,-4c0,0 -0.25,0 -0.5,0c-0.133,0 -0.26,-0.053 -0.354,-0.146c-0.093,-0.094 -0.146,-0.221 -0.146,-0.354c0,-0.305 0,-0.695 0,-1Z" style="fill:#d8d8d8;"/><clipPath id="_clip2"><path d="M12,5.5c0,-0.133 0.053,-0.26 0.146,-0.354c0.094,-0.093 0.221,-0.146 0.354,-0.146c1.436,0 5.564,0 7,0c0.133,0 0.26,0.053 0.354,0.146c0.093,0.094 0.146,0.221 0.146,0.354c0,0.305 0,0.695 0,1c0,0.133 -0.053,0.26 -0.146,0.354c-0.094,0.093 -0.221,0.146 -0.354,0.146c-0.25,0 -0.5,0 -0.5,0l0,4c0,0 4.725,9.449 5.789,11.578c0.139,0.277 0.211,0.584 0.211,0.894c0,0.913 0,2.966 0,4.528c0,0.53 -0.211,1.039 -0.586,1.414c-0.375,0.375 -0.884,0.586 -1.414,0.586c-3.463,0 -10.537,0 -14,0c-0.53,0 -1.039,-0.211 -1.414,-0.586c-0.375,-0.375 -0.586,-0.884 -0.586,-1.414c0,-1.562 0,-3.615 0,-4.528c0,-0.31 0.072,-0.617 0.211,-0.894c1.064,-2.129 5.789,-11.578 5.789,-11.578l0,-4c0,0 -0.25,0 -0.5,0c-0.133,0 -0.26,-0.053 -0.354,-0.146c-0.093,-0.094 -0.146,-0.221 -0.146,-0.354c0,-0.305 0,-0.695 0,-1Z"/></clipPath><g clip-path="url(#_clip2)"><rect x="6" y="13" width="21" height="18" style="fill:#30bfdb;"/><rect x="6" y="12" width="21" height="3" style="fill:#72d3e7;"/><path d="M16,10.399c0,0.398 -0.06,0.795 -0.177,1.176c-0.677,2.2 -3.096,10.062 -3.69,11.994c-0.088,0.286 -0.133,0.583 -0.133,0.882c0,1.548 0,6.549 0,6.549l-7,0l0,-24l11,0c0,0 0,2.282 0,3.399Z" style="fill:#fff;fill-opacity:0.494118;"/></g><path d="M19.5,5l0.025,0.001l0.024,0.001l0.025,0.003l0.024,0.005l0.024,0.005l0.023,0.007l0.024,0.007l0.022,0.009l0.023,0.01l0.021,0.011l0.022,0.012l0.02,0.013l0.02,0.014l0.02,0.015l0.019,0.016l0.018,0.017l0.017,0.018l0.016,0.019l0.015,0.02l0.014,0.02l0.013,0.02l0.012,0.022l0.011,0.021l0.01,0.023l0.009,0.022l0.007,0.024l0.007,0.023l0.005,0.024l0.005,0.024l0.003,0.025l0.001,0.024l0.001,0.025l0,1l-0.001,0.025l-0.001,0.024l-0.003,0.025l-0.005,0.024l-0.005,0.024l-0.007,0.023l-0.007,0.024l-0.009,0.022l-0.01,0.023l-0.011,0.021l-0.012,0.022l-0.013,0.02l-0.014,0.02l-0.015,0.02l-0.016,0.019l-0.017,0.018l-0.018,0.017l-0.019,0.016l-0.02,0.015l-0.02,0.014l-0.02,0.013l-0.022,0.012l-0.021,0.011l-0.023,0.01l-0.022,0.009l-0.024,0.007l-0.023,0.007l-0.024,0.005l-0.024,0.005l-0.025,0.003l-0.024,0.001l-0.025,0.001l-0.5,0l0,4l5.789,11.578l0.025,0.052l0.024,0.053l0.022,0.054l0.02,0.054l0.019,0.055l0.018,0.055l0.015,0.056l0.015,0.056l0.012,0.056l0.011,0.057l0.009,0.057l0.008,0.057l0.005,0.058l0.005,0.058l0.002,0.058l0.001,0.058l0,4.528l-0.001,0.05l-0.001,0.049l-0.004,0.05l-0.004,0.049l-0.005,0.049l-0.007,0.048l-0.008,0.049l-0.009,0.048l-0.01,0.048l-0.011,0.048l-0.013,0.047l-0.013,0.047l-0.015,0.046l-0.016,0.046l-0.017,0.046l-0.018,0.045l-0.019,0.045l-0.021,0.045l-0.021,0.043l-0.023,0.044l-0.023,0.043l-0.025,0.042l-0.025,0.042l-0.027,0.041l-0.028,0.04l-0.028,0.04l-0.03,0.039l-0.031,0.039l-0.032,0.037l-0.032,0.037l-0.034,0.037l-0.035,0.035l-0.035,0.035l-0.037,0.034l-0.037,0.032l-0.037,0.032l-0.039,0.031l-0.039,0.03l-0.04,0.028l-0.04,0.028l-0.041,0.027l-0.042,0.025l-0.042,0.025l-0.043,0.023l-0.044,0.023l-0.043,0.021l-0.045,0.021l-0.045,0.019l-0.045,0.018l-0.046,0.017l-0.046,0.016l-0.046,0.015l-0.047,0.013l-0.048,0.013l-0.047,0.011l-0.048,0.01l-0.048,0.009l-0.049,0.008l-0.048,0.007l-0.049,0.005l-0.049,0.004l-0.05,0.004l-0.049,0.001l-0.05,0.001l-14,0l-0.05,-0.001l-0.049,-0.001l-0.05,-0.004l-0.049,-0.004l-0.049,-0.005l-0.048,-0.007l-0.049,-0.008l-0.048,-0.009l-0.048,-0.01l-0.047,-0.011l-0.048,-0.013l-0.047,-0.013l-0.046,-0.015l-0.046,-0.016l-0.046,-0.017l-0.045,-0.018l-0.045,-0.019l-0.045,-0.021l-0.043,-0.021l-0.044,-0.023l-0.043,-0.023l-0.042,-0.025l-0.042,-0.025l-0.041,-0.027l-0.04,-0.028l-0.04,-0.028l-0.039,-0.03l-0.039,-0.031l-0.037,-0.032l-0.037,-0.032l-0.037,-0.034l-0.035,-0.035l-0.035,-0.035l-0.034,-0.037l-0.032,-0.037l-0.032,-0.037l-0.031,-0.039l-0.03,-0.039l-0.028,-0.04l-0.028,-0.04l-0.027,-0.041l-0.025,-0.042l-0.025,-0.042l-0.023,-0.043l-0.023,-0.044l-0.021,-0.043l-0.021,-0.045l-0.019,-0.045l-0.018,-0.045l-0.017,-0.046l-0.016,-0.046l-0.015,-0.046l-0.013,-0.047l-0.013,-0.047l-0.011,-0.048l-0.01,-0.048l-0.009,-0.048l-0.008,-0.049l-0.007,-0.048l-0.005,-0.049l-0.004,-0.049l-0.004,-0.05l-0.001,-0.049l-0.001,-0.05l0,-4.528l0.001,-0.058l0.002,-0.058l0.005,-0.058l0.005,-0.058l0.008,-0.057l0.009,-0.057l0.011,-0.057l0.012,-0.056l0.015,-0.056l0.015,-0.056l0.018,-0.055l0.019,-0.055l0.02,-0.054l0.022,-0.054l0.024,-0.053l0.025,-0.052l5.789,-11.578l0,-4l-0.5,0l-0.025,-0.001l-0.024,-0.001l-0.025,-0.003l-0.024,-0.005l-0.024,-0.005l-0.023,-0.007l-0.024,-0.007l-0.022,-0.009l-0.023,-0.01l-0.021,-0.011l-0.022,-0.012l-0.02,-0.013l-0.02,-0.014l-0.02,-0.015l-0.019,-0.016l-0.018,-0.017l-0.017,-0.018l-0.016,-0.019l-0.015,-0.02l-0.014,-0.02l-0.013,-0.02l-0.012,-0.022l-0.011,-0.021l-0.01,-0.023l-0.009,-0.022l-0.007,-0.024l-0.007,-0.023l-0.005,-0.024l-0.005,-0.024l-0.003,-0.025l-0.001,-0.024l-0.001,-0.025l0,-1l0.001,-0.025l0.001,-0.024l0.003,-0.025l0.005,-0.024l0.005,-0.024l0.007,-0.023l0.007,-0.024l0.009,-0.022l0.01,-0.023l0.011,-0.021l0.012,-0.022l0.013,-0.02l0.014,-0.02l0.015,-0.02l0.016,-0.019l0.017,-0.018l0.018,-0.017l0.019,-0.016l0.02,-0.015l0.02,-0.014l0.02,-0.013l0.022,-0.012l0.021,-0.011l0.023,-0.01l0.022,-0.009l0.024,-0.007l0.023,-0.007l0.024,-0.005l0.024,-0.005l0.025,-0.003l0.024,-0.001l0.025,-0.001l7,0Zm-6.5,1c0,0 0.098,0.005 0.098,0.005l0.097,0.014l0.095,0.024l0.093,0.033l0.088,0.042l0.085,0.051l0.078,0.058l0.073,0.066l0.066,0.073l0.058,0.078l0.051,0.085l0.042,0.088l0.033,0.093l0.024,0.095l0.014,0.097l0.005,0.098l0,4l-0.004,0.093l-0.013,0.091l-0.021,0.091l-0.03,0.087l-0.038,0.085l-5.785,11.571l-0.016,0.033l-0.012,0.027l-0.011,0.027l-0.01,0.027l-0.01,0.027l-0.008,0.028l-0.008,0.027l-0.007,0.028l-0.006,0.029l-0.006,0.028l-0.004,0.029l-0.004,0.028l-0.003,0.029l-0.002,0.029l-0.001,0.029l-0.001,0.036l0,4.515l0,0.031l0.001,0.025l0.002,0.024l0.002,0.025l0.003,0.024l0.003,0.025l0.004,0.024l0.004,0.024l0.006,0.024l0.005,0.024l0.006,0.023l0.007,0.024l0.008,0.023l0.008,0.023l0.008,0.023l0.009,0.023l0.01,0.022l0.01,0.022l0.011,0.022l0.011,0.022l0.012,0.021l0.012,0.021l0.013,0.021l0.013,0.021l0.014,0.02l0.014,0.02l0.015,0.019l0.015,0.02l0.016,0.019l0.017,0.018l0.017,0.018l0.017,0.018l0.018,0.017l0.018,0.017l0.018,0.017l0.019,0.016l0.02,0.015l0.019,0.015l0.02,0.014l0.02,0.014l0.021,0.013l0.021,0.013l0.021,0.012l0.021,0.012l0.022,0.011l0.022,0.011l0.022,0.01l0.022,0.01l0.023,0.009l0.023,0.008l0.023,0.008l0.023,0.008l0.024,0.007l0.023,0.006l0.024,0.005l0.024,0.006l0.024,0.004l0.024,0.004l0.025,0.003l0.024,0.003l0.025,0.002l0.024,0.002l0.025,0.001l0.031,0l13.988,0l0.031,0l0.025,-0.001l0.024,-0.002l0.025,-0.002l0.024,-0.003l0.025,-0.003l0.024,-0.004l0.024,-0.004l0.024,-0.006l0.024,-0.005l0.023,-0.006l0.024,-0.007l0.023,-0.008l0.023,-0.008l0.023,-0.008l0.023,-0.009l0.022,-0.01l0.022,-0.01l0.022,-0.011l0.022,-0.011l0.021,-0.012l0.021,-0.012l0.021,-0.013l0.021,-0.013l0.02,-0.014l0.02,-0.014l0.019,-0.015l0.02,-0.015l0.019,-0.016l0.018,-0.017l0.018,-0.017l0.018,-0.017l0.017,-0.018l0.017,-0.018l0.017,-0.018l0.016,-0.019l0.015,-0.02l0.015,-0.019l0.014,-0.02l0.014,-0.02l0.013,-0.021l0.013,-0.021l0.012,-0.021l0.012,-0.021l0.011,-0.022l0.011,-0.022l0.01,-0.022l0.01,-0.022l0.009,-0.023l0.008,-0.023l0.008,-0.023l0.008,-0.023l0.007,-0.024l0.006,-0.023l0.005,-0.024l0.006,-0.024l0.004,-0.024l0.004,-0.024l0.003,-0.025l0.003,-0.024l0.002,-0.025l0.002,-0.024l0.001,-0.025l0,-0.031l0,-4.515l-0.001,-0.036l-0.001,-0.029l-0.002,-0.029l-0.003,-0.029l-0.004,-0.028l-0.004,-0.029l-0.006,-0.028l-0.006,-0.029l-0.007,-0.028l-0.008,-0.027l-0.008,-0.028l-0.01,-0.027l-0.01,-0.027l-0.011,-0.027l-0.012,-0.027l-0.016,-0.033l-5.785,-11.571l-0.038,-0.085l-0.03,-0.087l-0.021,-0.091l-0.013,-0.091l-0.004,-0.093l0,-4l0.005,-0.098l0.014,-0.097l0.024,-0.095l0.033,-0.093l0.042,-0.088l0.051,-0.085l0.058,-0.078l0.066,-0.073l0.073,-0.066l0.078,-0.058l0.085,-0.051l0.088,-0.042l0.093,-0.033l0.095,-0.024l0.097,-0.014l0.098,-0.005c0,0 -6,0 -6,0Z" style="fill:#d8d8d8;"/><rect x="14" y="2" width="4" height="4" style="fill:#63401e;"/></g></g></svg>