<?xml version="1.0" encoding="UTF-8" standalone="no"?><!DOCTYPE svg PUBLIC "-//W3C//DTD SVG 1.1//EN" "http://www.w3.org/Graphics/SVG/1.1/DTD/svg11.dtd"><svg width="100%" height="100%" viewBox="0 0 32 32" version="1.1" xmlns="http://www.w3.org/2000/svg" xmlns:xlink="http://www.w3.org/1999/xlink" xml:space="preserve" xmlns:serif="http://www.serif.com/" style="fill-rule:evenodd;clip-rule:evenodd;stroke-linecap:round;stroke-linejoin:round;stroke-miterlimit:1.5;"><rect id="pink_potion" x="0" y="0" width="32" height="32" style="fill:none;"/><clipPath id="_clip1"><rect x="0" y="0" width="32" height="32"/></clipPath><g clip-path="url(#_clip1)"><g id="outline"><path d="M12,5.5c0,-0.133 0.053,-0.26 0.146,-0.354c0.094,-0.093 0.221,-0.146 0.354,-0.146c1.436,0 5.564,0 7,0c0.133,0 0.26,0.053 0.354,0.146c0.093,0.094 0.146,0.221 0.146,0.354c0,0.305 0,0.695 0,1c0,0.133 -0.053,0.26 -0.146,0.354c-0.094,0.093 -0.221,0.146 -0.354,0.146c-0.25,0 -0.5,0 -0.5,0c0,0 0,2.362 0,3.839c0,0.718 0.385,1.381 1.008,1.737c0.441,0.252 0.991,0.566 1.578,0.902c2.73,1.559 4.414,4.462 4.414,7.606c0,0.274 0,0.552 0,0.832c0,2.144 -0.852,4.2 -2.368,5.716c-1.516,1.516 -3.572,2.368 -5.716,2.368c-1.263,0 -2.569,0 -3.832,0c-2.144,0 -4.2,-0.852 -5.716,-2.368c-1.516,-1.516 -2.368,-3.572 -2.368,-5.716c0,-0.28 0,-0.558 0,-0.832c0,-3.144 1.684,-6.047 4.414,-7.606c0.587,-0.336 1.137,-0.65 1.578,-0.902c0.623,-0.356 1.008,-1.019 1.008,-1.737c0,-1.477 0,-3.839 0,-3.839c0,0 -0.25,0 -0.5,0c-0.133,0 -0.26,-0.053 -0.354,-0.146c-0.093,-0.094 -0.146,-0.221 -0.146,-0.354c0,-0.305 0,-0.695 0,-1Z" style="stroke:#000;stroke-width:4px;"/><rect x="14" y="2" width="4" height="5" style="fill:#63401e;stroke:#000;stroke-width:4px;"/></g><g id="emoji"><path d="M12,5.5c0,-0.133 0.053,-0.26 0.146,-0.354c0.094,-0.093 0.221,-0.146 0.354,-0.146c1.436,0 5.564,0 7,0c0.133,0 0.26,0.053 0.354,0.146c0.093,0.094 0.146,0.221 0.146,0.354c0,0.305 0,0.695 0,1c0,0.133 -0.053,0.26 -0.146,0.354c-0.094,0.093 -0.221,0.146 -0.354,0.146c-0.25,0 -0.5,0 -0.5,0c0,0 0,2.362 0,3.839c0,0.718 0.385,1.381 1.008,1.737c0.441,0.252 0.991,0.566 1.578,0.902c2.73,1.559 4.414,4.462 4.414,7.606c0,0.274 0,0.552 0,0.832c0,2.144 -0.852,4.2 -2.368,5.716c-1.516,1.516 -3.572,2.368 -5.716,2.368c-1.263,0 -2.569,0 -3.832,0c-2.144,0 -4.2,-0.852 -5.716,-2.368c-1.516,-1.516 -2.368,-3.572 -2.368,-5.716c0,-0.28 0,-0.558 0,-0.832c0,-3.144 1.684,-6.047 4.414,-7.606c0.587,-0.336 1.137,-0.65 1.578,-0.902c0.623,-0.356 1.008,-1.019 1.008,-1.737c0,-1.477 0,-3.839 0,-3.839c0,0 -0.25,0 -0.5,0c-0.133,0 -0.26,-0.053 -0.354,-0.146c-0.093,-0.094 -0.146,-0.221 -0.146,-0.354c0,-0.305 0,-0.695 0,-1Z" style="fill:#d8d8d8;"/><clipPath id="_clip2"><path d="M12,5.5c0,-0.133 0.053,-0.26 0.146,-0.354c0.094,-0.093 0.221,-0.146 0.354,-0.146c1.436,0 5.564,0 7,0c0.133,0 0.26,0.053 0.354,0.146c0.093,0.094 0.146,0.221 0.146,0.354c0,0.305 0,0.695 0,1c0,0.133 -0.053,0.26 -0.146,0.354c-0.094,0.093 -0.221,0.146 -0.354,0.146c-0.25,0 -0.5,0 -0.5,0c0,0 0,2.362 0,3.839c0,0.718 0.385,1.381 1.008,1.737c0.441,0.252 0.991,0.566 1.578,0.902c2.73,1.559 4.414,4.462 4.414,7.606c0,0.274 0,0.552 0,0.832c0,2.144 -0.852,4.2 -2.368,5.716c-1.516,1.516 -3.572,2.368 -5.716,2.368c-1.263,0 -2.569,0 -3.832,0c-2.144,0 -4.2,-0.852 -5.716,-2.368c-1.516,-1.516 -2.368,-3.572 -2.368,-5.716c0,-0.28 0,-0.558 0,-0.832c0,-3.144 1.684,-6.047 4.414,-7.606c0.587,-0.336 1.137,-0.65 1.578,-0.902c0.623,-0.356 1.008,-1.019 1.008,-1.737c0,-1.477 0,-3.839 0,-3.839c0,0 -0.25,0 -0.5,0c-0.133,0 -0.26,-0.053 -0.354,-0.146c-0.093,-0.094 -0.146,-0.221 -0.146,-0.354c0,-0.305 0,-0.695 0,-1Z"/></clipPath><g clip-path="url(#_clip2)"><rect x="6" y="13" width="21" height="18" style="fill:#ff4586;"/><rect x="6" y="12" width="21" height="3" style="fill:#ff8fb6;"/><path d="M16,12c0,0.62 -0.325,1.195 -0.857,1.514c-0.001,0.001 -0.001,0.001 -0.002,0.001c-2.569,1.542 -4.141,4.318 -4.141,7.315c0,0.167 0,0.335 0,0.503c0,2.938 1.383,5.704 3.734,7.467c0.167,0.126 0.266,0.2 0.266,0.2l0,2l-11,0l0,-24l12,0c0,0 0,3.293 0,5Z" style="fill:#fff;fill-opacity:0.494118;"/></g><path d="M19.5,5l0.025,0.001l0.024,0.001l0.025,0.003l0.024,0.005l0.024,0.005l0.023,0.007l0.024,0.007l0.022,0.009l0.023,0.01l0.021,0.011l0.022,0.012l0.02,0.013l0.02,0.014l0.02,0.015l0.019,0.016l0.018,0.017l0.017,0.018l0.016,0.019l0.015,0.02l0.014,0.02l0.013,0.02l0.012,0.022l0.011,0.021l0.01,0.023l0.009,0.022l0.007,0.024l0.007,0.023l0.005,0.024l0.005,0.024l0.003,0.025l0.001,0.024l0.001,0.025l0,1l-0.001,0.025l-0.001,0.024l-0.003,0.025l-0.005,0.024l-0.005,0.024l-0.007,0.023l-0.007,0.024l-0.009,0.022l-0.01,0.023l-0.011,0.021l-0.012,0.022l-0.013,0.02l-0.014,0.02l-0.015,0.02l-0.016,0.019l-0.017,0.018l-0.018,0.017l-0.019,0.016l-0.02,0.015l-0.02,0.014l-0.02,0.013l-0.022,0.012l-0.021,0.011l-0.023,0.01l-0.022,0.009l-0.024,0.007l-0.023,0.007l-0.024,0.005l-0.024,0.005l-0.025,0.003l-0.024,0.001l-0.025,0.001l-0.5,0l0,3.839l0.001,0.067l0.003,0.067l0.006,0.067l0.008,0.065l0.01,0.066l0.012,0.065l0.014,0.064l0.016,0.063l0.018,0.063l0.02,0.062l0.022,0.062l0.025,0.06l0.026,0.06l0.028,0.059l0.029,0.057l0.032,0.057l0.034,0.056l0.035,0.054l0.037,0.054l0.039,0.052l0.041,0.051l0.042,0.05l0.044,0.048l0.045,0.047l0.048,0.046l0.048,0.044l0.051,0.042l0.052,0.041l0.053,0.04l0.055,0.038l0.056,0.036l0.058,0.034l1.578,0.902l0.127,0.074l0.126,0.076l0.124,0.078l0.123,0.08l0.12,0.081l0.12,0.084l0.117,0.085l0.116,0.087l0.115,0.089l0.113,0.091l0.111,0.092l0.109,0.094l0.108,0.096l0.106,0.098l0.104,0.099l0.102,0.1l0.101,0.102l0.099,0.104l0.097,0.105l0.095,0.107l0.094,0.108l0.091,0.11l0.09,0.11l0.088,0.113l0.086,0.114l0.084,0.115l0.083,0.116l0.08,0.118l0.078,0.119l0.077,0.12l0.074,0.121l0.073,0.123l0.07,0.123l0.069,0.125l0.066,0.126l0.064,0.127l0.063,0.128l0.06,0.13l0.058,0.13l0.056,0.131l0.054,0.132l0.052,0.133l0.05,0.134l0.047,0.135l0.045,0.135l0.044,0.137l0.04,0.137l0.039,0.138l0.037,0.139l0.034,0.14l0.032,0.14l0.03,0.141l0.027,0.142l0.025,0.142l0.023,0.143l0.02,0.143l0.018,0.144l0.016,0.145l0.013,0.145l0.011,0.145l0.009,0.146l0.006,0.147l0.004,0.147l0.001,0.147l0,0.832l-0.001,0.101l-0.001,0.1l-0.004,0.1l-0.004,0.1l-0.006,0.1l-0.006,0.099l-0.008,0.1l-0.01,0.099l-0.01,0.099l-0.012,0.099l-0.013,0.099l-0.014,0.098l-0.015,0.098l-0.016,0.098l-0.018,0.097l-0.019,0.098l-0.02,0.097l-0.021,0.096l-0.022,0.097l-0.024,0.096l-0.024,0.095l-0.026,0.096l-0.027,0.095l-0.028,0.094l-0.03,0.094l-0.03,0.094l-0.032,0.094l-0.032,0.093l-0.034,0.092l-0.035,0.093l-0.036,0.091l-0.037,0.092l-0.039,0.091l-0.039,0.09l-0.041,0.09l-0.041,0.089l-0.043,0.089l-0.044,0.089l-0.044,0.087l-0.046,0.088l-0.047,0.087l-0.048,0.086l-0.05,0.085l-0.05,0.086l-0.051,0.084l-0.052,0.084l-0.054,0.083l-0.054,0.083l-0.056,0.082l-0.056,0.082l-0.058,0.08l-0.058,0.081l-0.06,0.079l-0.06,0.079l-0.062,0.078l-0.063,0.077l-0.063,0.077l-0.065,0.076l-0.066,0.075l-0.066,0.075l-0.068,0.074l-0.069,0.073l-0.069,0.072l-0.071,0.071l-0.071,0.071l-0.072,0.069l-0.073,0.069l-0.074,0.068l-0.075,0.066l-0.075,0.066l-0.076,0.065l-0.077,0.063l-0.077,0.063l-0.078,0.062l-0.079,0.06l-0.079,0.06l-0.081,0.058l-0.08,0.058l-0.082,0.056l-0.082,0.056l-0.083,0.054l-0.083,0.054l-0.084,0.052l-0.084,0.051l-0.086,0.05l-0.085,0.05l-0.086,0.048l-0.087,0.047l-0.088,0.046l-0.087,0.044l-0.089,0.044l-0.089,0.043l-0.089,0.041l-0.09,0.041l-0.09,0.039l-0.091,0.039l-0.092,0.037l-0.091,0.036l-0.093,0.035l-0.092,0.034l-0.093,0.032l-0.094,0.032l-0.094,0.03l-0.094,0.03l-0.094,0.028l-0.095,0.027l-0.096,0.026l-0.095,0.024l-0.096,0.024l-0.097,0.022l-0.096,0.021l-0.097,0.02l-0.098,0.019l-0.097,0.018l-0.098,0.016l-0.098,0.015l-0.098,0.014l-0.099,0.013l-0.099,0.012l-0.099,0.01l-0.099,0.01l-0.1,0.008l-0.099,0.006l-0.1,0.006l-0.1,0.004l-0.1,0.004l-0.1,0.001l-0.101,0.001l-3.832,0l-0.101,-0.001l-0.1,-0.001l-0.1,-0.004l-0.1,-0.004l-0.1,-0.006l-0.099,-0.006l-0.1,-0.008l-0.099,-0.01l-0.099,-0.01l-0.099,-0.012l-0.099,-0.013l-0.098,-0.014l-0.098,-0.015l-0.098,-0.016l-0.097,-0.018l-0.098,-0.019l-0.097,-0.02l-0.096,-0.021l-0.097,-0.022l-0.096,-0.024l-0.095,-0.024l-0.096,-0.026l-0.095,-0.027l-0.094,-0.028l-0.094,-0.03l-0.094,-0.03l-0.094,-0.032l-0.093,-0.032l-0.092,-0.034l-0.093,-0.035l-0.091,-0.036l-0.092,-0.037l-0.091,-0.039l-0.09,-0.039l-0.09,-0.041l-0.089,-0.041l-0.089,-0.043l-0.089,-0.044l-0.087,-0.044l-0.088,-0.046l-0.087,-0.047l-0.086,-0.048l-0.085,-0.05l-0.086,-0.05l-0.084,-0.051l-0.084,-0.052l-0.083,-0.054l-0.083,-0.054l-0.082,-0.056l-0.082,-0.056l-0.08,-0.058l-0.081,-0.058l-0.079,-0.06l-0.079,-0.06l-0.078,-0.062l-0.077,-0.063l-0.077,-0.063l-0.076,-0.065l-0.075,-0.066l-0.075,-0.066l-0.074,-0.068l-0.073,-0.069l-0.072,-0.069l-0.071,-0.071l-0.071,-0.071l-0.069,-0.072l-0.069,-0.073l-0.068,-0.074l-0.066,-0.075l-0.066,-0.075l-0.065,-0.076l-0.063,-0.077l-0.063,-0.077l-0.062,-0.078l-0.06,-0.079l-0.06,-0.079l-0.058,-0.081l-0.058,-0.08l-0.056,-0.082l-0.056,-0.082l-0.054,-0.083l-0.054,-0.083l-0.052,-0.084l-0.051,-0.084l-0.05,-0.086l-0.05,-0.085l-0.048,-0.086l-0.047,-0.087l-0.046,-0.088l-0.044,-0.087l-0.044,-0.089l-0.043,-0.089l-0.041,-0.089l-0.041,-0.09l-0.039,-0.09l-0.039,-0.091l-0.037,-0.092l-0.036,-0.091l-0.035,-0.093l-0.034,-0.092l-0.032,-0.093l-0.032,-0.094l-0.03,-0.094l-0.03,-0.094l-0.028,-0.094l-0.027,-0.095l-0.026,-0.096l-0.024,-0.095l-0.024,-0.096l-0.022,-0.097l-0.021,-0.096l-0.02,-0.097l-0.019,-0.098l-0.018,-0.097l-0.016,-0.098l-0.015,-0.098l-0.014,-0.098l-0.013,-0.099l-0.012,-0.099l-0.01,-0.099l-0.01,-0.099l-0.008,-0.1l-0.006,-0.099l-0.006,-0.1l-0.004,-0.1l-0.004,-0.1l-0.001,-0.1l-0.001,-0.101l0,-0.832l0.001,-0.147l0.004,-0.147l0.006,-0.147l0.009,-0.146l0.011,-0.145l0.013,-0.145l0.016,-0.145l0.018,-0.144l0.02,-0.143l0.023,-0.143l0.025,-0.142l0.027,-0.142l0.03,-0.141l0.032,-0.14l0.034,-0.14l0.037,-0.139l0.039,-0.138l0.04,-0.137l0.044,-0.137l0.045,-0.135l0.047,-0.135l0.05,-0.134l0.052,-0.133l0.054,-0.132l0.056,-0.131l0.058,-0.13l0.06,-0.13l0.063,-0.128l0.064,-0.127l0.066,-0.126l0.069,-0.125l0.07,-0.123l0.073,-0.123l0.074,-0.121l0.077,-0.12l0.078,-0.119l0.08,-0.118l0.083,-0.116l0.084,-0.115l0.086,-0.114l0.088,-0.113l0.09,-0.11l0.091,-0.11l0.094,-0.108l0.095,-0.107l0.097,-0.105l0.099,-0.104l0.101,-0.102l0.102,-0.1l0.104,-0.099l0.106,-0.098l0.108,-0.096l0.109,-0.094l0.111,-0.092l0.113,-0.091l0.115,-0.089l0.116,-0.087l0.117,-0.085l0.12,-0.084l0.12,-0.081l0.123,-0.08l0.124,-0.078l0.126,-0.076l0.127,-0.074l1.578,-0.902l0.058,-0.034l0.056,-0.036l0.055,-0.038l0.053,-0.04l0.052,-0.041l0.051,-0.042l0.048,-0.044l0.048,-0.046l0.045,-0.047l0.044,-0.048l0.042,-0.05l0.041,-0.051l0.039,-0.052l0.037,-0.054l0.035,-0.054l0.034,-0.056l0.032,-0.057l0.029,-0.057l0.028,-0.059l0.026,-0.06l0.025,-0.06l0.022,-0.062l0.02,-0.062l0.018,-0.063l0.016,-0.063l0.014,-0.064l0.012,-0.065l0.01,-0.066l0.008,-0.065l0.006,-0.067l0.003,-0.067l0.001,-0.067l0,-3.839l-0.5,0l-0.025,-0.001l-0.024,-0.001l-0.025,-0.003l-0.024,-0.005l-0.024,-0.005l-0.023,-0.007l-0.024,-0.007l-0.022,-0.009l-0.023,-0.01l-0.021,-0.011l-0.022,-0.012l-0.02,-0.013l-0.02,-0.014l-0.02,-0.015l-0.019,-0.016l-0.018,-0.017l-0.017,-0.018l-0.016,-0.019l-0.015,-0.02l-0.014,-0.02l-0.013,-0.02l-0.012,-0.022l-0.011,-0.021l-0.01,-0.023l-0.009,-0.022l-0.007,-0.024l-0.007,-0.023l-0.005,-0.024l-0.005,-0.024l-0.003,-0.025l-0.001,-0.024l-0.001,-0.025l0,-1l0.001,-0.025l0.001,-0.024l0.003,-0.025l0.005,-0.024l0.005,-0.024l0.007,-0.023l0.007,-0.024l0.009,-0.022l0.01,-0.023l0.011,-0.021l0.012,-0.022l0.013,-0.02l0.014,-0.02l0.015,-0.02l0.016,-0.019l0.017,-0.018l0.018,-0.017l0.019,-0.016l0.02,-0.015l0.02,-0.014l0.02,-0.013l0.022,-0.012l0.021,-0.011l0.023,-0.01l0.022,-0.009l0.024,-0.007l0.023,-0.007l0.024,-0.005l0.024,-0.005l0.025,-0.003l0.024,-0.001l0.025,-0.001l7,0Zm-6.5,1c0,0 0.098,0.005 0.098,0.005l0.097,0.014l0.095,0.024l0.093,0.033l0.088,0.042l0.085,0.051l0.078,0.058l0.073,0.066l0.066,0.073l0.058,0.078l0.051,0.085l0.042,0.088l0.033,0.093l0.024,0.095l0.014,0.097l0.005,0.098l0,3.848l-0.002,0.092l-0.005,0.1l-0.008,0.099l-0.011,0.099l-0.015,0.098l-0.018,0.098l-0.021,0.096l-0.025,0.095l-0.027,0.095l-0.03,0.093l-0.034,0.092l-0.036,0.091l-0.039,0.089l-0.042,0.088l-0.045,0.087l-0.047,0.085l-0.05,0.084l-0.053,0.082l-0.056,0.08l-0.058,0.078l-0.061,0.077l-0.064,0.074l-0.066,0.073l-0.068,0.07l-0.071,0.069l-0.073,0.066l-0.076,0.064l-0.077,0.061l-0.08,0.059l-0.083,0.057l-0.084,0.054l-0.079,0.047l-1.582,0.904l-0.117,0.068l-0.111,0.067l-0.11,0.069l-0.108,0.071l-0.108,0.072l-0.105,0.074l-0.105,0.076l-0.102,0.077l-0.102,0.079l-0.099,0.08l-0.099,0.082l-0.097,0.083l-0.095,0.085l-0.094,0.086l-0.092,0.088l-0.091,0.089l-0.089,0.091l-0.088,0.091l-0.086,0.093l-0.084,0.095l-0.083,0.096l-0.081,0.097l-0.08,0.098l-0.078,0.1l-0.076,0.1l-0.074,0.102l-0.073,0.103l-0.071,0.105l-0.07,0.105l-0.068,0.107l-0.065,0.107l-0.065,0.109l-0.062,0.109l-0.061,0.111l-0.059,0.112l-0.057,0.112l-0.055,0.114l-0.053,0.114l-0.052,0.115l-0.049,0.116l-0.048,0.117l-0.046,0.118l-0.044,0.119l-0.042,0.119l-0.04,0.121l-0.039,0.121l-0.036,0.121l-0.034,0.122l-0.032,0.123l-0.031,0.124l-0.028,0.124l-0.026,0.125l-0.025,0.126l-0.022,0.126l-0.02,0.126l-0.018,0.127l-0.016,0.128l-0.014,0.128l-0.012,0.128l-0.01,0.129l-0.007,0.129l-0.006,0.13l-0.003,0.13l-0.001,0.135l0,0.825l0.001,0.091l0.001,0.088l0.003,0.088l0.004,0.087l0.005,0.088l0.006,0.087l0.007,0.087l0.008,0.087l0.009,0.087l0.01,0.087l0.011,0.086l0.013,0.086l0.013,0.086l0.014,0.086l0.016,0.085l0.016,0.086l0.018,0.084l0.018,0.085l0.02,0.085l0.021,0.084l0.021,0.084l0.023,0.083l0.024,0.083l0.024,0.083l0.026,0.083l0.027,0.082l0.027,0.082l0.029,0.082l0.029,0.081l0.031,0.081l0.032,0.08l0.032,0.08l0.034,0.08l0.034,0.079l0.036,0.079l0.036,0.078l0.038,0.078l0.038,0.077l0.039,0.077l0.041,0.077l0.041,0.076l0.042,0.075l0.043,0.076l0.044,0.074l0.045,0.074l0.046,0.074l0.047,0.073l0.047,0.072l0.049,0.072l0.049,0.072l0.051,0.07l0.051,0.071l0.052,0.069l0.053,0.069l0.054,0.069l0.055,0.068l0.056,0.067l0.057,0.066l0.057,0.066l0.059,0.066l0.059,0.064l0.06,0.064l0.061,0.064l0.062,0.062l0.062,0.062l0.064,0.061l0.064,0.06l0.064,0.059l0.066,0.059l0.066,0.057l0.066,0.057l0.067,0.056l0.068,0.055l0.069,0.054l0.069,0.053l0.069,0.052l0.071,0.051l0.07,0.051l0.072,0.049l0.072,0.049l0.072,0.047l0.073,0.047l0.074,0.046l0.074,0.045l0.074,0.044l0.075,0.043l0.076,0.042l0.076,0.041l0.077,0.041l0.077,0.039l0.077,0.038l0.078,0.038l0.078,0.036l0.079,0.036l0.079,0.034l0.08,0.034l0.08,0.032l0.08,0.032l0.081,0.031l0.081,0.029l0.082,0.029l0.082,0.027l0.082,0.027l0.083,0.026l0.083,0.024l0.083,0.024l0.083,0.023l0.084,0.021l0.084,0.021l0.085,0.02l0.084,0.018l0.085,0.018l0.086,0.016l0.085,0.016l0.086,0.014l0.086,0.013l0.086,0.013l0.086,0.011l0.087,0.01l0.087,0.009l0.087,0.008l0.087,0.007l0.087,0.006l0.088,0.005l0.087,0.004l0.088,0.003l0.088,0.001l0.091,0.001l3.826,0l0.091,-0.001l0.088,-0.001l0.088,-0.003l0.087,-0.004l0.088,-0.005l0.087,-0.006l0.087,-0.007l0.087,-0.008l0.087,-0.009l0.087,-0.01l0.086,-0.011l0.086,-0.013l0.086,-0.013l0.086,-0.014l0.085,-0.016l0.086,-0.016l0.085,-0.018l0.084,-0.018l0.085,-0.02l0.084,-0.021l0.084,-0.021l0.083,-0.023l0.083,-0.024l0.083,-0.024l0.083,-0.026l0.082,-0.027l0.082,-0.027l0.082,-0.029l0.081,-0.029l0.081,-0.031l0.08,-0.032l0.08,-0.032l0.08,-0.034l0.079,-0.034l0.079,-0.036l0.078,-0.036l0.078,-0.038l0.077,-0.038l0.077,-0.039l0.077,-0.041l0.076,-0.041l0.076,-0.042l0.075,-0.043l0.074,-0.044l0.074,-0.045l0.074,-0.046l0.073,-0.047l0.072,-0.047l0.072,-0.049l0.072,-0.049l0.07,-0.051l0.071,-0.051l0.069,-0.052l0.069,-0.053l0.069,-0.054l0.068,-0.055l0.067,-0.056l0.066,-0.057l0.066,-0.057l0.066,-0.059l0.064,-0.059l0.064,-0.06l0.064,-0.061l0.062,-0.062l0.062,-0.062l0.061,-0.064l0.06,-0.064l0.059,-0.064l0.059,-0.066l0.057,-0.066l0.057,-0.066l0.056,-0.067l0.055,-0.068l0.054,-0.069l0.053,-0.069l0.052,-0.069l0.051,-0.071l0.051,-0.07l0.049,-0.072l0.049,-0.072l0.047,-0.072l0.047,-0.073l0.046,-0.074l0.045,-0.074l0.044,-0.074l0.043,-0.076l0.042,-0.075l0.041,-0.076l0.041,-0.077l0.039,-0.077l0.038,-0.077l0.038,-0.078l0.036,-0.078l0.036,-0.079l0.034,-0.079l0.034,-0.08l0.032,-0.08l0.032,-0.08l0.031,-0.081l0.029,-0.081l0.029,-0.082l0.027,-0.082l0.027,-0.082l0.026,-0.083l0.024,-0.083l0.024,-0.083l0.023,-0.083l0.021,-0.084l0.021,-0.084l0.02,-0.085l0.018,-0.085l0.018,-0.084l0.016,-0.086l0.016,-0.085l0.014,-0.086l0.013,-0.086l0.013,-0.086l0.011,-0.086l0.01,-0.087l0.009,-0.087l0.008,-0.087l0.007,-0.087l0.006,-0.087l0.005,-0.088l0.004,-0.087l0.003,-0.088l0.001,-0.088l0.001,-0.091l0,-0.825l-0.001,-0.135l-0.003,-0.13l-0.006,-0.13l-0.007,-0.129l-0.01,-0.129l-0.012,-0.128l-0.014,-0.128l-0.016,-0.128l-0.018,-0.127l-0.02,-0.126l-0.022,-0.126l-0.025,-0.126l-0.026,-0.125l-0.028,-0.124l-0.031,-0.124l-0.032,-0.123l-0.034,-0.122l-0.036,-0.121l-0.039,-0.121l-0.04,-0.121l-0.042,-0.119l-0.044,-0.119l-0.046,-0.118l-0.048,-0.117l-0.049,-0.116l-0.052,-0.115l-0.053,-0.114l-0.055,-0.114l-0.057,-0.112l-0.059,-0.112l-0.061,-0.111l-0.062,-0.109l-0.065,-0.109l-0.065,-0.107l-0.068,-0.107l-0.07,-0.105l-0.071,-0.105l-0.073,-0.103l-0.074,-0.102l-0.076,-0.1l-0.078,-0.1l-0.08,-0.098l-0.081,-0.097l-0.083,-0.096l-0.084,-0.095l-0.086,-0.093l-0.088,-0.091l-0.089,-0.091l-0.091,-0.089l-0.092,-0.088l-0.094,-0.086l-0.095,-0.085l-0.097,-0.083l-0.099,-0.082l-0.099,-0.08l-0.102,-0.079l-0.102,-0.077l-0.105,-0.076l-0.105,-0.074l-0.108,-0.072l-0.108,-0.071l-0.11,-0.069l-0.111,-0.067l-0.117,-0.068l-1.582,-0.904l-0.079,-0.047l-0.084,-0.054l-0.083,-0.057l-0.08,-0.059l-0.077,-0.061l-0.076,-0.064l-0.073,-0.066l-0.071,-0.069l-0.068,-0.07l-0.066,-0.073l-0.064,-0.074l-0.061,-0.077l-0.058,-0.078l-0.056,-0.08l-0.053,-0.082l-0.05,-0.084l-0.047,-0.085l-0.045,-0.087l-0.042,-0.088l-0.039,-0.089l-0.036,-0.091l-0.034,-0.092l-0.03,-0.093l-0.027,-0.095l-0.025,-0.095l-0.021,-0.096l-0.018,-0.098l-0.015,-0.098l-0.011,-0.099l-0.008,-0.099l-0.005,-0.1l-0.002,-0.092l0,-3.848l0.005,-0.098l0.014,-0.097l0.024,-0.095l0.033,-0.093l0.042,-0.088l0.051,-0.085l0.058,-0.078l0.066,-0.073l0.073,-0.066l0.078,-0.058l0.085,-0.051l0.088,-0.042l0.093,-0.033l0.095,-0.024l0.097,-0.014l0.098,-0.005c0,0 -6,0 -6,0Z" style="fill:#d8d8d8;"/><rect x="14" y="2" width="4" height="4" style="fill:#63401e;"/></g></g></svg>