<?xml version="1.0" encoding="UTF-8" standalone="no"?><!DOCTYPE svg PUBLIC "-//W3C//DTD SVG 1.1//EN" "http://www.w3.org/Graphics/SVG/1.1/DTD/svg11.dtd"><svg width="100%" height="100%" viewBox="0 0 32 32" version="1.1" xmlns="http://www.w3.org/2000/svg" xmlns:xlink="http://www.w3.org/1999/xlink" xml:space="preserve" xmlns:serif="http://www.serif.com/" style="fill-rule:evenodd;clip-rule:evenodd;stroke-linecap:round;stroke-linejoin:round;stroke-miterlimit:1.5;"><rect id="red_potion" x="0" y="0" width="32" height="32" style="fill:none;"/><g id="outline"><path d="M12,5.5c0,-0.133 0.053,-0.26 0.146,-0.354c0.094,-0.093 0.221,-0.146 0.354,-0.146c1.436,0 5.564,0 7,0c0.133,0 0.26,0.053 0.354,0.146c0.093,0.094 0.146,0.221 0.146,0.354c0,0.305 0,0.695 0,1c0,0.133 -0.053,0.26 -0.146,0.354c-0.094,0.093 -0.221,0.146 -0.354,0.146c-0.25,0 -0.5,0 -0.5,0l0,3c0,0 0.43,0.537 1.008,1.259c1.937,2.422 2.992,5.43 2.992,8.531c0,1.766 0,3.678 0,5.089c0,1.358 -0.539,2.66 -1.5,3.621c0,0 0,0 0,0c-0.961,0.961 -2.263,1.5 -3.621,1.5c-1.161,0 -2.597,0 -3.758,0c-1.358,0 -2.66,-0.539 -3.621,-1.5c0,0 0,0 0,0c-0.961,-0.961 -1.5,-2.263 -1.5,-3.621c0,-1.411 0,-3.323 0,-5.089c0,-3.101 1.055,-6.109 2.992,-8.531c0.578,-0.722 1.008,-1.259 1.008,-1.259l0,-3c0,0 -0.25,0 -0.5,0c-0.133,0 -0.26,-0.053 -0.354,-0.146c-0.093,-0.094 -0.146,-0.221 -0.146,-0.354c0,-0.305 0,-0.695 0,-1Z" style="stroke:#000;stroke-width:4px;"/><rect x="14" y="2" width="4" height="5" style="fill:#63401e;stroke:#000;stroke-width:4px;"/></g><g id="emoji"><path d="M12,5.5c0,-0.133 0.053,-0.26 0.146,-0.354c0.094,-0.093 0.221,-0.146 0.354,-0.146c1.436,0 5.564,0 7,0c0.133,0 0.26,0.053 0.354,0.146c0.093,0.094 0.146,0.221 0.146,0.354c0,0.305 0,0.695 0,1c0,0.133 -0.053,0.26 -0.146,0.354c-0.094,0.093 -0.221,0.146 -0.354,0.146c-0.25,0 -0.5,0 -0.5,0l0,3c0,0 0.43,0.537 1.008,1.259c1.937,2.422 2.992,5.43 2.992,8.531c0,1.766 0,3.678 0,5.089c0,1.358 -0.539,2.66 -1.5,3.621c0,0 0,0 0,0c-0.961,0.961 -2.263,1.5 -3.621,1.5c-1.161,0 -2.597,0 -3.758,0c-1.358,0 -2.66,-0.539 -3.621,-1.5c0,0 0,0 0,0c-0.961,-0.961 -1.5,-2.263 -1.5,-3.621c0,-1.411 0,-3.323 0,-5.089c0,-3.101 1.055,-6.109 2.992,-8.531c0.578,-0.722 1.008,-1.259 1.008,-1.259l0,-3c0,0 -0.25,0 -0.5,0c-0.133,0 -0.26,-0.053 -0.354,-0.146c-0.093,-0.094 -0.146,-0.221 -0.146,-0.354c0,-0.305 0,-0.695 0,-1Z" style="fill:#d8d8d8;"/><clipPath id="_clip1"><path d="M12,5.5c0,-0.133 0.053,-0.26 0.146,-0.354c0.094,-0.093 0.221,-0.146 0.354,-0.146c1.436,0 5.564,0 7,0c0.133,0 0.26,0.053 0.354,0.146c0.093,0.094 0.146,0.221 0.146,0.354c0,0.305 0,0.695 0,1c0,0.133 -0.053,0.26 -0.146,0.354c-0.094,0.093 -0.221,0.146 -0.354,0.146c-0.25,0 -0.5,0 -0.5,0l0,3c0,0 0.43,0.537 1.008,1.259c1.937,2.422 2.992,5.43 2.992,8.531c0,1.766 0,3.678 0,5.089c0,1.358 -0.539,2.66 -1.5,3.621c0,0 0,0 0,0c-0.961,0.961 -2.263,1.5 -3.621,1.5c-1.161,0 -2.597,0 -3.758,0c-1.358,0 -2.66,-0.539 -3.621,-1.5c0,0 0,0 0,0c-0.961,-0.961 -1.5,-2.263 -1.5,-3.621c0,-1.411 0,-3.323 0,-5.089c0,-3.101 1.055,-6.109 2.992,-8.531c0.578,-0.722 1.008,-1.259 1.008,-1.259l0,-3c0,0 -0.25,0 -0.5,0c-0.133,0 -0.26,-0.053 -0.354,-0.146c-0.093,-0.094 -0.146,-0.221 -0.146,-0.354c0,-0.305 0,-0.695 0,-1Z"/></clipPath><g clip-path="url(#_clip1)"><rect x="6" y="13" width="21" height="18" style="fill:#e82731;"/><rect x="6" y="12" width="21" height="3" style="fill:#e8636a;"/><path d="M16,10c0,0 -1.303,3.04 -2.191,5.113c-0.534,1.245 -0.809,2.585 -0.809,3.94c0,1.583 0,3.779 0,5.462c0,1.591 0.632,3.117 1.757,4.242c0.148,0.148 0.243,0.243 0.243,0.243l0,2l-7,0l0,-24l8,0l0,3Z" style="fill:#fff;fill-opacity:0.494118;"/></g><path d="M19.5,5l0.025,0.001l0.024,0.001l0.025,0.003l0.024,0.005l0.024,0.005l0.023,0.007l0.024,0.007l0.022,0.009l0.023,0.01l0.021,0.011l0.022,0.012l0.02,0.013l0.02,0.014l0.02,0.015l0.019,0.016l0.018,0.017l0.017,0.018l0.016,0.019l0.015,0.02l0.014,0.02l0.013,0.02l0.012,0.022l0.011,0.021l0.01,0.023l0.009,0.022l0.007,0.024l0.007,0.023l0.005,0.024l0.005,0.024l0.003,0.025l0.001,0.024l0.001,0.025l0,1l-0.001,0.025l-0.001,0.024l-0.003,0.025l-0.005,0.024l-0.005,0.024l-0.007,0.023l-0.007,0.024l-0.009,0.022l-0.01,0.023l-0.011,0.021l-0.012,0.022l-0.013,0.02l-0.014,0.02l-0.015,0.02l-0.016,0.019l-0.017,0.018l-0.018,0.017l-0.019,0.016l-0.02,0.015l-0.02,0.014l-0.02,0.013l-0.022,0.012l-0.021,0.011l-0.023,0.01l-0.022,0.009l-0.024,0.007l-0.023,0.007l-0.024,0.005l-0.024,0.005l-0.025,0.003l-0.024,0.001l-0.025,0.001l-0.5,0l0,3l1.008,1.259l0.09,0.114l0.089,0.115l0.087,0.116l0.086,0.116l0.085,0.117l0.084,0.119l0.082,0.118l0.081,0.12l0.08,0.12l0.078,0.122l0.077,0.121l0.076,0.123l0.074,0.123l0.073,0.125l0.072,0.124l0.07,0.126l0.069,0.126l0.068,0.127l0.066,0.127l0.065,0.128l0.063,0.129l0.063,0.13l0.06,0.13l0.06,0.13l0.058,0.131l0.056,0.132l0.055,0.132l0.054,0.133l0.053,0.134l0.05,0.134l0.05,0.134l0.048,0.135l0.047,0.136l0.045,0.135l0.044,0.137l0.043,0.137l0.041,0.137l0.039,0.138l0.038,0.138l0.037,0.139l0.035,0.139l0.034,0.139l0.032,0.14l0.031,0.14l0.03,0.141l0.027,0.141l0.027,0.141l0.025,0.142l0.023,0.142l0.022,0.142l0.021,0.142l0.019,0.143l0.017,0.143l0.016,0.143l0.015,0.144l0.013,0.144l0.011,0.144l0.01,0.144l0.009,0.144l0.007,0.145l0.005,0.145l0.004,0.145l0.002,0.145l0.001,0.145l0,5.089l0,0.064l-0.002,0.063l-0.002,0.064l-0.002,0.063l-0.004,0.063l-0.004,0.063l-0.005,0.063l-0.006,0.063l-0.007,0.063l-0.007,0.063l-0.008,0.062l-0.009,0.062l-0.01,0.062l-0.01,0.062l-0.011,0.062l-0.012,0.062l-0.013,0.061l-0.013,0.061l-0.015,0.061l-0.014,0.061l-0.016,0.061l-0.016,0.06l-0.017,0.06l-0.018,0.06l-0.019,0.06l-0.019,0.059l-0.02,0.06l-0.021,0.059l-0.021,0.058l-0.022,0.059l-0.023,0.058l-0.024,0.058l-0.024,0.057l-0.025,0.057l-0.026,0.057l-0.026,0.057l-0.027,0.056l-0.028,0.056l-0.028,0.056l-0.029,0.055l-0.03,0.055l-0.03,0.055l-0.032,0.054l-0.031,0.054l-0.033,0.053l-0.033,0.054l-0.034,0.052l-0.034,0.053l-0.035,0.052l-0.036,0.051l-0.037,0.052l-0.037,0.05l-0.037,0.051l-0.039,0.05l-0.039,0.049l-0.04,0.049l-0.04,0.049l-0.041,0.048l-0.041,0.047l-0.043,0.048l-0.042,0.046l-0.044,0.047l-0.044,0.045l-0.045,0.046l0,0l-0.046,0.045l-0.045,0.044l-0.047,0.044l-0.046,0.042l-0.048,0.043l-0.047,0.041l-0.048,0.041l-0.049,0.04l-0.049,0.04l-0.049,0.039l-0.05,0.039l-0.051,0.037l-0.05,0.037l-0.052,0.037l-0.051,0.036l-0.052,0.035l-0.053,0.034l-0.052,0.034l-0.053,0.033l-0.054,0.033l-0.054,0.031l-0.054,0.032l-0.055,0.03l-0.055,0.03l-0.055,0.029l-0.056,0.028l-0.056,0.028l-0.056,0.027l-0.057,0.026l-0.057,0.026l-0.057,0.025l-0.057,0.024l-0.058,0.024l-0.058,0.023l-0.059,0.022l-0.058,0.021l-0.059,0.021l-0.06,0.02l-0.059,0.019l-0.06,0.019l-0.06,0.018l-0.06,0.017l-0.06,0.016l-0.061,0.016l-0.061,0.014l-0.061,0.015l-0.061,0.013l-0.061,0.013l-0.062,0.012l-0.062,0.011l-0.062,0.01l-0.062,0.01l-0.062,0.009l-0.062,0.008l-0.063,0.007l-0.063,0.007l-0.063,0.006l-0.063,0.005l-0.063,0.004l-0.063,0.004l-0.063,0.002l-0.064,0.002l-0.063,0.002l-0.064,0l-3.758,0l-0.064,0l-0.063,-0.002l-0.064,-0.002l-0.063,-0.002l-0.063,-0.004l-0.063,-0.004l-0.063,-0.005l-0.063,-0.006l-0.063,-0.007l-0.063,-0.007l-0.062,-0.008l-0.062,-0.009l-0.062,-0.01l-0.062,-0.01l-0.062,-0.011l-0.062,-0.012l-0.061,-0.013l-0.061,-0.013l-0.061,-0.015l-0.061,-0.014l-0.061,-0.016l-0.06,-0.016l-0.06,-0.017l-0.06,-0.018l-0.06,-0.019l-0.059,-0.019l-0.06,-0.02l-0.059,-0.021l-0.058,-0.021l-0.059,-0.022l-0.058,-0.023l-0.058,-0.024l-0.057,-0.024l-0.057,-0.025l-0.057,-0.026l-0.057,-0.026l-0.056,-0.027l-0.056,-0.028l-0.056,-0.028l-0.055,-0.029l-0.055,-0.03l-0.055,-0.03l-0.054,-0.032l-0.054,-0.031l-0.054,-0.033l-0.053,-0.033l-0.052,-0.034l-0.053,-0.034l-0.052,-0.035l-0.051,-0.036l-0.052,-0.037l-0.05,-0.037l-0.051,-0.037l-0.05,-0.039l-0.049,-0.039l-0.049,-0.04l-0.049,-0.04l-0.048,-0.041l-0.047,-0.041l-0.048,-0.043l-0.046,-0.042l-0.047,-0.044l-0.045,-0.044l-0.046,-0.045l0,0l-0.045,-0.046l-0.044,-0.045l-0.044,-0.047l-0.042,-0.046l-0.043,-0.048l-0.041,-0.047l-0.041,-0.048l-0.04,-0.049l-0.04,-0.049l-0.039,-0.049l-0.039,-0.05l-0.037,-0.051l-0.037,-0.05l-0.037,-0.052l-0.036,-0.051l-0.035,-0.052l-0.034,-0.053l-0.034,-0.052l-0.033,-0.054l-0.033,-0.053l-0.031,-0.054l-0.032,-0.054l-0.03,-0.055l-0.03,-0.055l-0.029,-0.055l-0.028,-0.056l-0.028,-0.056l-0.027,-0.056l-0.026,-0.057l-0.026,-0.057l-0.025,-0.057l-0.024,-0.057l-0.024,-0.058l-0.023,-0.058l-0.022,-0.059l-0.021,-0.058l-0.021,-0.059l-0.02,-0.06l-0.019,-0.059l-0.019,-0.06l-0.018,-0.06l-0.017,-0.06l-0.016,-0.06l-0.016,-0.061l-0.014,-0.061l-0.015,-0.061l-0.013,-0.061l-0.013,-0.061l-0.012,-0.062l-0.011,-0.062l-0.01,-0.062l-0.01,-0.062l-0.009,-0.062l-0.008,-0.062l-0.007,-0.063l-0.007,-0.063l-0.006,-0.063l-0.005,-0.063l-0.004,-0.063l-0.004,-0.063l-0.002,-0.063l-0.002,-0.064l-0.002,-0.063l0,-0.064l0,-5.089l0.001,-0.145l0.002,-0.145l0.004,-0.145l0.005,-0.145l0.007,-0.145l0.009,-0.144l0.01,-0.144l0.011,-0.144l0.013,-0.144l0.015,-0.144l0.016,-0.143l0.017,-0.143l0.019,-0.143l0.021,-0.142l0.022,-0.142l0.023,-0.142l0.025,-0.142l0.027,-0.141l0.027,-0.141l0.03,-0.141l0.031,-0.14l0.032,-0.14l0.034,-0.139l0.035,-0.139l0.037,-0.139l0.038,-0.138l0.039,-0.138l0.041,-0.137l0.043,-0.137l0.044,-0.137l0.045,-0.135l0.047,-0.136l0.048,-0.135l0.05,-0.134l0.05,-0.134l0.053,-0.134l0.054,-0.133l0.055,-0.132l0.056,-0.132l0.058,-0.131l0.06,-0.13l0.06,-0.13l0.063,-0.13l0.063,-0.129l0.065,-0.128l0.066,-0.127l0.068,-0.127l0.069,-0.126l0.07,-0.126l0.072,-0.124l0.073,-0.125l0.074,-0.123l0.076,-0.123l0.077,-0.121l0.078,-0.122l0.08,-0.12l0.081,-0.12l0.082,-0.118l0.084,-0.119l0.085,-0.117l0.086,-0.116l0.087,-0.116l0.089,-0.115l0.09,-0.114l1.008,-1.259l0,-3l-0.5,0l-0.025,-0.001l-0.024,-0.001l-0.025,-0.003l-0.024,-0.005l-0.024,-0.005l-0.023,-0.007l-0.024,-0.007l-0.022,-0.009l-0.023,-0.01l-0.021,-0.011l-0.022,-0.012l-0.02,-0.013l-0.02,-0.014l-0.02,-0.015l-0.019,-0.016l-0.018,-0.017l-0.017,-0.018l-0.016,-0.019l-0.015,-0.02l-0.014,-0.02l-0.013,-0.02l-0.012,-0.022l-0.011,-0.021l-0.01,-0.023l-0.009,-0.022l-0.007,-0.024l-0.007,-0.023l-0.005,-0.024l-0.005,-0.024l-0.003,-0.025l-0.001,-0.024l-0.001,-0.025l0,-1l0.001,-0.025l0.001,-0.024l0.003,-0.025l0.005,-0.024l0.005,-0.024l0.007,-0.023l0.007,-0.024l0.009,-0.022l0.01,-0.023l0.011,-0.021l0.012,-0.022l0.013,-0.02l0.014,-0.02l0.015,-0.02l0.016,-0.019l0.017,-0.018l0.018,-0.017l0.019,-0.016l0.02,-0.015l0.02,-0.014l0.02,-0.013l0.022,-0.012l0.021,-0.011l0.023,-0.01l0.022,-0.009l0.024,-0.007l0.023,-0.007l0.024,-0.005l0.024,-0.005l0.025,-0.003l0.024,-0.001l0.025,-0.001l7,0Zm-6.5,1c0,0 0.098,0.005 0.098,0.005l0.097,0.014l0.095,0.024l0.093,0.033l0.088,0.042l0.085,0.051l0.078,0.058l0.073,0.066l0.066,0.073l0.058,0.078l0.051,0.085l0.042,0.088l0.033,0.093l0.024,0.095l0.014,0.097l0.005,0.098l0,3l-0.005,0.096l-0.014,0.096l-0.023,0.093l-0.031,0.091l-0.041,0.088l-0.049,0.083l-0.056,0.078l-1.006,1.257l-0.085,0.108l-0.083,0.106l-0.081,0.107l-0.08,0.108l-0.078,0.109l-0.078,0.109l-0.076,0.11l-0.075,0.111l-0.074,0.112l-0.073,0.112l-0.071,0.113l-0.07,0.114l-0.069,0.114l-0.068,0.115l-0.066,0.116l-0.065,0.116l-0.064,0.117l-0.063,0.117l-0.061,0.119l-0.06,0.118l-0.059,0.12l-0.058,0.12l-0.056,0.12l-0.055,0.121l-0.054,0.122l-0.052,0.122l-0.051,0.122l-0.05,0.124l-0.049,0.123l-0.047,0.124l-0.046,0.125l-0.045,0.125l-0.043,0.126l-0.042,0.126l-0.041,0.126l-0.039,0.127l-0.038,0.127l-0.037,0.128l-0.035,0.128l-0.034,0.129l-0.033,0.128l-0.031,0.13l-0.03,0.129l-0.028,0.13l-0.028,0.13l-0.025,0.131l-0.025,0.131l-0.023,0.131l-0.022,0.132l-0.02,0.131l-0.019,0.132l-0.018,0.133l-0.016,0.132l-0.015,0.133l-0.013,0.133l-0.012,0.133l-0.011,0.134l-0.009,0.134l-0.008,0.133l-0.007,0.135l-0.005,0.134l-0.003,0.134l-0.002,0.135l-0.001,0.137l0,5.083l0,0.054l0.001,0.052l0.002,0.051l0.002,0.051l0.003,0.05l0.003,0.051l0.004,0.051l0.005,0.05l0.006,0.051l0.005,0.05l0.007,0.051l0.007,0.05l0.008,0.05l0.008,0.049l0.009,0.05l0.01,0.05l0.01,0.049l0.011,0.049l0.011,0.05l0.012,0.048l0.013,0.049l0.013,0.049l0.014,0.048l0.014,0.048l0.015,0.048l0.016,0.048l0.016,0.048l0.016,0.047l0.018,0.048l0.017,0.047l0.019,0.046l0.019,0.047l0.019,0.046l0.02,0.046l0.021,0.046l0.021,0.046l0.022,0.045l0.022,0.045l0.023,0.045l0.023,0.044l0.024,0.045l0.025,0.044l0.025,0.043l0.025,0.044l0.027,0.043l0.026,0.042l0.027,0.043l0.028,0.042l0.028,0.042l0.029,0.041l0.03,0.042l0.029,0.04l0.031,0.041l0.031,0.04l0.031,0.04l0.032,0.039l0.032,0.039l0.033,0.039l0.034,0.038l0.034,0.038l0.034,0.038l0.035,0.037l0.036,0.037l0.036,0.037l0.037,0.036l0.037,0.036l0.037,0.035l0.038,0.034l0.038,0.034l0.038,0.034l0.039,0.033l0.039,0.032l0.039,0.032l0.04,0.031l0.04,0.031l0.041,0.031l0.04,0.029l0.042,0.03l0.041,0.029l0.042,0.028l0.042,0.028l0.043,0.027l0.042,0.026l0.043,0.026l0.044,0.026l0.043,0.025l0.044,0.025l0.045,0.024l0.044,0.023l0.045,0.023l0.045,0.022l0.045,0.022l0.046,0.021l0.046,0.021l0.046,0.02l0.046,0.019l0.047,0.019l0.046,0.019l0.047,0.017l0.048,0.018l0.047,0.016l0.048,0.016l0.048,0.016l0.048,0.015l0.048,0.014l0.048,0.014l0.049,0.013l0.049,0.013l0.048,0.012l0.05,0.011l0.049,0.011l0.049,0.01l0.05,0.01l0.05,0.009l0.049,0.008l0.05,0.008l0.05,0.007l0.051,0.007l0.05,0.005l0.051,0.006l0.05,0.005l0.051,0.004l0.051,0.003l0.05,0.003l0.051,0.002l0.051,0.002l0.052,0.001l0.054,0l3.752,0l0.054,0l0.052,-0.001l0.051,-0.002l0.051,-0.002l0.05,-0.003l0.051,-0.003l0.051,-0.004l0.05,-0.005l0.051,-0.006l0.05,-0.005l0.051,-0.007l0.05,-0.007l0.05,-0.008l0.049,-0.008l0.05,-0.009l0.05,-0.01l0.049,-0.01l0.049,-0.011l0.05,-0.011l0.048,-0.012l0.049,-0.013l0.049,-0.013l0.048,-0.014l0.048,-0.014l0.048,-0.015l0.048,-0.016l0.048,-0.016l0.047,-0.016l0.048,-0.018l0.047,-0.017l0.046,-0.019l0.047,-0.019l0.046,-0.019l0.046,-0.02l0.046,-0.021l0.046,-0.021l0.045,-0.022l0.045,-0.022l0.045,-0.023l0.044,-0.023l0.045,-0.024l0.044,-0.025l0.043,-0.025l0.044,-0.026l0.043,-0.026l0.042,-0.026l0.043,-0.027l0.042,-0.028l0.042,-0.028l0.041,-0.029l0.042,-0.03l0.04,-0.029l0.041,-0.031l0.04,-0.031l0.04,-0.031l0.039,-0.032l0.039,-0.032l0.039,-0.033l0.038,-0.034l0.038,-0.034l0.038,-0.034l0.037,-0.035l0.037,-0.036l0.037,-0.036l0.036,-0.037l0.036,-0.037l0.035,-0.037l0.034,-0.038l0.034,-0.038l0.034,-0.038l0.033,-0.039l0.032,-0.039l0.032,-0.039l0.031,-0.04l0.031,-0.04l0.031,-0.041l0.029,-0.04l0.03,-0.042l0.029,-0.041l0.028,-0.042l0.028,-0.042l0.027,-0.043l0.026,-0.042l0.027,-0.043l0.025,-0.044l0.025,-0.043l0.025,-0.044l0.024,-0.045l0.023,-0.044l0.023,-0.045l0.022,-0.045l0.022,-0.045l0.021,-0.046l0.021,-0.046l0.02,-0.046l0.019,-0.046l0.019,-0.047l0.019,-0.046l0.017,-0.047l0.018,-0.048l0.016,-0.047l0.016,-0.048l0.016,-0.048l0.015,-0.048l0.014,-0.048l0.014,-0.048l0.013,-0.049l0.013,-0.049l0.012,-0.048l0.011,-0.05l0.011,-0.049l0.01,-0.049l0.01,-0.05l0.009,-0.05l0.008,-0.049l0.008,-0.05l0.007,-0.05l0.007,-0.051l0.005,-0.05l0.006,-0.051l0.005,-0.05l0.004,-0.051l0.003,-0.051l0.003,-0.05l0.002,-0.051l0.002,-0.051l0.001,-0.052l0,-0.054l0,-5.083l-0.001,-0.137l-0.002,-0.135l-0.003,-0.134l-0.005,-0.134l-0.007,-0.135l-0.008,-0.133l-0.009,-0.134l-0.011,-0.134l-0.012,-0.133l-0.013,-0.133l-0.015,-0.133l-0.016,-0.132l-0.018,-0.133l-0.019,-0.132l-0.02,-0.131l-0.022,-0.132l-0.023,-0.131l-0.025,-0.131l-0.025,-0.131l-0.028,-0.13l-0.028,-0.13l-0.03,-0.129l-0.031,-0.13l-0.033,-0.128l-0.034,-0.129l-0.035,-0.128l-0.037,-0.128l-0.038,-0.127l-0.039,-0.127l-0.041,-0.126l-0.042,-0.126l-0.043,-0.126l-0.045,-0.125l-0.046,-0.125l-0.047,-0.124l-0.049,-0.123l-0.05,-0.124l-0.051,-0.122l-0.052,-0.122l-0.054,-0.122l-0.055,-0.121l-0.056,-0.12l-0.058,-0.12l-0.059,-0.12l-0.06,-0.118l-0.061,-0.119l-0.063,-0.117l-0.064,-0.117l-0.065,-0.116l-0.066,-0.116l-0.068,-0.115l-0.069,-0.114l-0.07,-0.114l-0.071,-0.113l-0.073,-0.112l-0.074,-0.112l-0.075,-0.111l-0.076,-0.11l-0.078,-0.109l-0.078,-0.109l-0.08,-0.108l-0.081,-0.107l-0.083,-0.106l-0.085,-0.108l-1.006,-1.257l-0.056,-0.078l-0.049,-0.083l-0.041,-0.088l-0.031,-0.091l-0.023,-0.093l-0.014,-0.096l-0.005,-0.096l0,-3l0.005,-0.098l0.014,-0.097l0.024,-0.095l0.033,-0.093l0.042,-0.088l0.051,-0.085l0.058,-0.078l0.066,-0.073l0.073,-0.066l0.078,-0.058l0.085,-0.051l0.088,-0.042l0.093,-0.033l0.095,-0.024l0.097,-0.014l0.098,-0.005c0,0 -6,0 -6,0Z" style="fill:#d8d8d8;"/><rect x="14" y="2" width="4" height="4" style="fill:#63401e;"/></g></svg>