<?xml version="1.0" encoding="UTF-8" standalone="no"?>
<!DOCTYPE svg PUBLIC "-//W3C//DTD SVG 1.1//EN" "http://www.w3.org/Graphics/SVG/1.1/DTD/svg11.dtd">
<svg width="100%" height="100%" viewBox="0 0 32 32" version="1.1" xmlns="http://www.w3.org/2000/svg" xmlns:xlink="http://www.w3.org/1999/xlink" xml:space="preserve" xmlns:serif="http://www.serif.com/" style="fill-rule:evenodd;clip-rule:evenodd;stroke-linecap:square;stroke-linejoin:round;stroke-miterlimit:1.5;">
    <rect id="closed_umbrella" x="0" y="0" width="32" height="32" style="fill:none;"/>
    <clipPath id="_clip1">
        <rect x="0" y="0" width="32" height="32"/>
    </clipPath>
    <g clip-path="url(#_clip1)">
        <g id="outline">
            <path d="M18.772,9.986l1.985,-1.986c0,0 -0.808,-0.808 -1.585,-1.586c-0.781,-0.781 -0.781,-2.047 0,-2.828c0.827,-0.828 1.71,-1.711 1.71,-1.711c1.998,-1.998 5.238,-1.998 7.236,0c0.002,0.002 0.005,0.005 0.007,0.007c1.998,1.998 1.998,5.238 0,7.236l-5.111,5.11c0.684,-0.17 1.411,-0.032 1.987,0.383c0.627,0.452 0.999,1.178 0.999,1.951c0,0.289 0,0.639 0,0.921c0,1.038 -0.556,1.995 -1.456,2.51c-3.044,1.739 -20.552,11.743 -20.552,11.743c-0.783,0.448 -1.768,0.316 -2.406,-0.322c-0.638,-0.638 -0.77,-1.623 -0.322,-2.406c0,0 10.004,-17.508 11.743,-20.552c0.515,-0.9 1.472,-1.456 2.51,-1.456l0.921,0c0.773,0 1.499,0.372 1.951,0.999c0.415,0.576 0.553,1.303 0.383,1.987Z"/>
        </g>
        <g id="emoji">
            <path d="M22,5c0,0 0.471,-0.471 1.004,-1.004c0.826,-0.826 2.166,-0.826 2.992,0c0.003,0.003 0.005,0.005 0.008,0.008c0.396,0.397 0.619,0.935 0.619,1.496c0,0.561 -0.223,1.1 -0.619,1.496c-1.05,1.05 -2.267,2.267 -2.267,2.267" style="fill:none;stroke:#525252;stroke-width:2px;"/>
            <g>
                <path d="M17,15.414l0,-0.828l3.724,-3.724l1.603,-0.096l0.282,1.039l-4.609,4.609l-1,-1Z" style="fill:#3d3d3d;"/>
                <path d="M20.724,10.862l3.276,-3.276l1.414,1.414l-2.805,2.805l-1.885,-0.943Z" style="fill:#525252;"/>
            </g>
            <g>
                <path d="M18.354,14.646c0.108,0.109 0.269,0.146 0.414,0.098c0.532,-0.177 1.227,-0.409 1.699,-0.566c0.123,-0.041 0.259,-0.021 0.365,0.055c0.105,0.076 0.168,0.199 0.168,0.329c0,0.536 0,1.34 0,1.876c0,0.13 0.063,0.253 0.168,0.329c0.106,0.076 0.242,0.096 0.365,0.055c0.546,-0.182 1.388,-0.462 1.934,-0.644c0.123,-0.041 0.259,-0.021 0.365,0.055c0.105,0.076 0.168,0.199 0.168,0.329c0,0.289 0,0.639 0,0.921c0,0.32 -0.171,0.615 -0.448,0.773c-3.044,1.74 -20.552,11.744 -20.552,11.744l0.864,-1.372l13.136,-13.628l1.354,-0.354Z" style="fill:#b3222e;"/>
                <path d="M3,30l11.744,-20.552c0.158,-0.277 0.453,-0.448 0.773,-0.448c0.282,0 0.632,0 0.921,0c0.13,0 0.253,0.063 0.329,0.168c0.076,0.106 0.096,0.242 0.055,0.365c-0.182,0.546 -0.462,1.388 -0.644,1.934c-0.041,0.123 -0.021,0.259 0.055,0.365c0.076,0.105 0.199,0.168 0.329,0.168c0.536,0 1.34,0 1.876,0c0.13,0 0.253,0.063 0.329,0.168c0.076,0.106 0.096,0.242 0.055,0.365c-0.157,0.472 -0.389,1.167 -0.566,1.699l0.098,0.414l-15.354,15.354Z" style="fill:#e82731;"/>
            </g>
        </g>
    </g>
</svg>
