<?xml version="1.0" encoding="UTF-8" standalone="no"?>
<!DOCTYPE svg PUBLIC "-//W3C//DTD SVG 1.1//EN" "http://www.w3.org/Graphics/SVG/1.1/DTD/svg11.dtd">
<svg width="100%" height="100%" viewBox="0 0 32 32" version="1.1" xmlns="http://www.w3.org/2000/svg" xmlns:xlink="http://www.w3.org/1999/xlink" xml:space="preserve" xmlns:serif="http://www.serif.com/" style="fill-rule:evenodd;clip-rule:evenodd;stroke-linecap:square;stroke-linejoin:round;stroke-miterlimit:1.5;">
    <rect id="umbrella" x="0" y="0" width="32" height="32" style="fill:none;"/>
    <clipPath id="_clip1">
        <rect x="0" y="0" width="32" height="32"/>
    </clipPath>
    <g clip-path="url(#_clip1)">
        <g id="outline">
            <path d="M13,16.528l-2.671,0.445c-0.417,0.069 -0.845,0.005 -1.223,-0.184c0,0 -1.383,-0.691 -2.522,-1.261c-0.695,-0.347 -1.46,-0.528 -2.236,-0.528l-2.348,0c-0.693,0 -1.337,-0.359 -1.701,-0.949c-0.365,-0.589 -0.398,-1.325 -0.088,-1.945c0,0 0.677,-1.353 1.387,-2.774c1.249,-2.497 3.317,-4.49 5.858,-5.645c3.242,-1.474 7.716,-3.508 7.716,-3.508c0.526,-0.239 1.13,-0.239 1.656,0c0,0 4.474,2.034 7.716,3.508c2.541,1.155 4.609,3.148 5.858,5.645c0.71,1.421 1.387,2.774 1.387,2.774c0.31,0.62 0.277,1.356 -0.088,1.945c-0.364,0.59 -1.008,0.949 -1.701,0.949l-2.348,0c-0.776,0 -1.541,0.181 -2.236,0.528c-1.139,0.57 -2.522,1.261 -2.522,1.261c-0.378,0.189 -0.806,0.253 -1.223,0.184l-2.671,-0.445l0,10.472c-0.002,0.554 -0.092,1.105 -0.273,1.628c-0.28,0.814 -0.772,1.55 -1.417,2.12c-0.505,0.446 -1.1,0.787 -1.739,0.999c-0.497,0.164 -1.017,0.248 -1.54,0.253l-0.031,0c-1.326,0 -2.598,-0.527 -3.536,-1.464c-0.937,-0.938 -1.464,-2.21 -1.464,-3.536c0,-0.255 0,-1.132 0,-2c0,-0.53 0.211,-1.039 0.586,-1.414c0.375,-0.375 0.884,-0.586 1.414,-0.586c1,0 2,0 2,0l0,-6.472Z"/>
        </g>
        <g id="emoji">
            <path d="M16,11l0,16c0,0.53 -0.211,1.039 -0.586,1.414c-0.375,0.375 -0.884,0.586 -1.414,0.586c-0.53,0 -1.039,-0.211 -1.414,-0.586c-0.375,-0.375 -0.586,-0.884 -0.586,-1.414c0,-0.551 0,-1 0,-1" style="fill:none;stroke:#525252;stroke-width:2px;"/>
            <rect x="15" y="13.249" width="2" height="6.751" style="fill:#3d3d3d;"/>
            <path d="M16,2c0,0 4.475,2.034 7.716,3.507c2.125,0.966 3.853,2.632 4.897,4.719c0.711,1.421 1.387,2.774 1.387,2.774c0,0 -1.246,0 -2.348,0c-1.086,0 -2.158,0.253 -3.13,0.739l-2.522,1.261l-6,-13Z" style="fill:#a31f28;"/>
            <path d="M16,2l3.567,5.351c0.287,0.43 0.505,0.902 0.647,1.399l1.786,6.25c0,0 -3.107,-0.518 -4.849,-0.808c-0.762,-0.127 -1.54,-0.127 -2.302,0c-1.742,0.29 -4.849,0.808 -4.849,0.808c0,0 -1.383,-0.691 -2.522,-1.261c-0.972,-0.486 -2.044,-0.739 -3.13,-0.739l-2.348,0l1.387,-2.774c1.044,-2.087 2.772,-3.753 4.897,-4.719l7.716,-3.507Z" style="fill:#e82731;"/>
            <clipPath id="_clip2">
                <path d="M16,2l3.567,5.351c0.287,0.43 0.505,0.902 0.647,1.399l1.786,6.25c0,0 -3.107,-0.518 -4.849,-0.808c-0.762,-0.127 -1.54,-0.127 -2.302,0c-1.742,0.29 -4.849,0.808 -4.849,0.808c0,0 -1.383,-0.691 -2.522,-1.261c-0.972,-0.486 -2.044,-0.739 -3.13,-0.739l-2.348,0l1.387,-2.774c1.044,-2.087 2.772,-3.753 4.897,-4.719l7.716,-3.507Z"/>
            </clipPath>
            <g clip-path="url(#_clip2)">
                <path d="M16,1l0,1c0,0 -2.532,3.798 -3.567,5.351c-0.287,0.43 -0.505,0.902 -0.647,1.399c-0.517,1.807 -1.786,6.25 -1.786,6.25l0,2" style="fill:none;stroke:#bd242e;stroke-width:2px;stroke-miterlimit:3;"/>
            </g>
        </g>
    </g>
</svg>
