<?xml version="1.0" encoding="UTF-8" standalone="no"?><!DOCTYPE svg PUBLIC "-//W3C//DTD SVG 1.1//EN" "http://www.w3.org/Graphics/SVG/1.1/DTD/svg11.dtd"><svg width="100%" height="100%" viewBox="0 0 32 32" version="1.1" xmlns="http://www.w3.org/2000/svg" xmlns:xlink="http://www.w3.org/1999/xlink" xml:space="preserve" xmlns:serif="http://www.serif.com/" style="fill-rule:evenodd;clip-rule:evenodd;stroke-linejoin:round;stroke-miterlimit:1.41421;"><rect id="oil_lamp" x="0" y="0" width="32" height="32" style="fill:none;"/><clipPath id="_clip1"><rect x="0" y="0" width="32" height="32"/></clipPath><g clip-path="url(#_clip1)"><g id="outline"><path d="M21,11.102c0.1,0.103 0.198,0.208 0.292,0.317c0.442,0.51 0.81,1.084 1.088,1.7c0.605,1.336 0.772,2.853 0.478,4.29c-0.138,0.673 -0.376,1.325 -0.704,1.929c-0.31,0.57 -0.7,1.096 -1.154,1.56l0,3.102l-1,0l0,0.171c0.057,0.02 0.113,0.042 0.169,0.065c0.806,0.341 1.436,1.036 1.696,1.872c0.06,0.192 0.1,0.389 0.12,0.588c0.013,0.129 0.012,0.155 0.015,0.279l0,5.025l-12,0l0,-5.025c0.003,-0.124 0.002,-0.15 0.015,-0.279c0.02,-0.199 0.06,-0.396 0.12,-0.588c0.275,-0.884 0.963,-1.608 1.834,-1.926c0.01,-0.004 0.02,-0.008 0.031,-0.011l0,-0.171l-1,0l0,-3.102c-0.454,-0.464 -0.844,-0.99 -1.154,-1.56c-0.328,-0.604 -0.566,-1.256 -0.704,-1.929c-0.282,-1.38 -0.14,-2.837 0.409,-4.134c0.264,-0.623 0.618,-1.206 1.049,-1.728c0.127,-0.154 0.26,-0.302 0.4,-0.445l0,-11.102l10,0l0,11.102Z"/></g><g id="emoji"><rect x="13" y="2" width="6" height="20" style="fill:#e5e5e5;"/><circle cx="16" cy="16" r="5" style="fill:#e5e5e5;"/><circle cx="16" cy="16" r="4" style="fill:#f6c738;"/><circle cx="16" cy="18" r="2" style="fill:#fce9b0;"/><circle cx="16" cy="18" r="1" style="fill:#fff;"/><path d="M18,21l-1,-1l-2,0l-1,1l0,6l4,0l0,-6Z" style="fill:#915732;"/><path d="M20,27c0,-0.552 -0.448,-1 -1,-1c-1.537,0 -4.463,0 -6,0c-0.552,0 -1,0.448 -1,1c0,1.185 0,3 0,3l8,0c0,0 0,-1.815 0,-3Z" style="fill:#be916a;"/><path d="M16,2l-2,0c0,0 0,5.655 0,8c0,0.265 0.105,0.52 0.293,0.707c0.187,0.188 0.442,0.293 0.707,0.293c0,0 0,0 0,0c0.265,0 0.52,-0.105 0.707,-0.293c0.188,-0.187 0.293,-0.442 0.293,-0.707c0,-2.345 0,-8 0,-8Z" style="fill:#fff;"/></g></g></svg>