<?xml version="1.0" encoding="UTF-8" standalone="no"?><!DOCTYPE svg PUBLIC "-//W3C//DTD SVG 1.1//EN" "http://www.w3.org/Graphics/SVG/1.1/DTD/svg11.dtd"><svg width="100%" height="100%" viewBox="0 0 32 32" version="1.1" xmlns="http://www.w3.org/2000/svg" xmlns:xlink="http://www.w3.org/1999/xlink" xml:space="preserve" xmlns:serif="http://www.serif.com/" style="fill-rule:evenodd;clip-rule:evenodd;stroke-linejoin:round;stroke-miterlimit:1.41421;"><rect id="atm" x="0" y="0" width="32" height="32" style="fill:none;"/><clipPath id="_clip1"><rect x="0" y="0" width="32" height="32"/></clipPath><g clip-path="url(#_clip1)"><g id="outline"><path d="M32,8c0,-4.418 -3.582,-8 -8,-8c-4.887,0 -11.113,0 -16,0c-4.418,0 -8,3.582 -8,8c0,4.887 0,11.113 0,16c0,4.418 3.582,8 8,8c4.887,0 11.113,0 16,0c4.418,0 8,-3.582 8,-8c0,-4.887 0,-11.113 0,-16Z"/></g><g id="emoji"><path d="M30,8c0,-1.591 -0.632,-3.117 -1.757,-4.243c-1.126,-1.125 -2.652,-1.757 -4.243,-1.757c-4.724,0 -11.276,0 -16,0c-1.591,0 -3.117,0.632 -4.243,1.757c-1.125,1.126 -1.757,2.652 -1.757,4.243c0,4.724 0,11.276 0,16c0,1.591 0.632,3.117 1.757,4.243c1.126,1.125 2.652,1.757 4.243,1.757c4.724,0 11.276,0 16,0c1.591,0 3.117,-0.632 4.243,-1.757c1.125,-1.126 1.757,-2.652 1.757,-4.243c0,-4.724 0,-11.276 0,-16Z" style="fill:#334cec;"/><rect x="1" y="9" width="30" height="14"/><path d="M9.551,18.743l-3.809,0l-0.65,1.742l-1.82,0l3.679,-8.97l1.391,0l3.679,8.97l-1.82,0l-0.65,-1.742Zm-0.533,-1.417l-1.378,-3.653l-1.365,3.653l2.743,0Z" style="fill:#fff;fill-rule:nonzero;"/><path d="M18.43,12.997l-2.691,0l0,7.488l-1.703,0l0,-7.488l-2.691,0l0,-1.482l7.085,0l0,1.482Z" style="fill:#fff;fill-rule:nonzero;"/><path d="M28.258,11.515l0,8.97l-1.703,0l0,-5.681l-2.197,3.952l-1.144,0l-2.236,-3.991l0,5.72l-1.703,0l0,-8.97l1.703,0l2.808,5.135l2.769,-5.135l1.703,0Z" style="fill:#fff;fill-rule:nonzero;"/></g></g></svg>