<?xml version="1.0" encoding="UTF-8" standalone="no"?><!DOCTYPE svg PUBLIC "-//W3C//DTD SVG 1.1//EN" "http://www.w3.org/Graphics/SVG/1.1/DTD/svg11.dtd"><svg width="100%" height="100%" viewBox="0 0 32 32" version="1.1" xmlns="http://www.w3.org/2000/svg" xmlns:xlink="http://www.w3.org/1999/xlink" xml:space="preserve" xmlns:serif="http://www.serif.com/" style="fill-rule:evenodd;clip-rule:evenodd;stroke-linecap:round;stroke-linejoin:round;stroke-miterlimit:1.5;"><rect id="litter_in_bin" x="0" y="0" width="32" height="32" style="fill:none;"/><clipPath id="_clip1"><rect x="0" y="0" width="32" height="32"/></clipPath><g clip-path="url(#_clip1)"><g id="outline"><path d="M32,8c0,-4.418 -3.582,-8 -8,-8c-4.887,0 -11.113,0 -16,0c-4.418,0 -8,3.582 -8,8c0,4.887 0,11.113 0,16c0,4.418 3.582,8 8,8c4.887,0 11.113,0 16,0c4.418,0 8,-3.582 8,-8c0,-4.887 0,-11.113 0,-16Z"/></g><g id="emoji"><path d="M30,8c0,-1.591 -0.632,-3.117 -1.757,-4.243c-1.126,-1.125 -2.652,-1.757 -4.243,-1.757c-4.724,0 -11.276,0 -16,0c-1.591,0 -3.117,0.632 -4.243,1.757c-1.125,1.126 -1.757,2.652 -1.757,4.243c0,4.724 0,11.276 0,16c0,1.591 0.632,3.117 1.757,4.243c1.126,1.125 2.652,1.757 4.243,1.757c4.724,0 11.276,0 16,0c1.591,0 3.117,-0.632 4.243,-1.757c1.125,-1.126 1.757,-2.652 1.757,-4.243c0,-4.724 0,-11.276 0,-16Z" style="fill:#334cec;"/><rect x="4" y="18" width="12" height="11" style="fill:none;"/><clipPath id="_clip2"><rect x="4" y="18" width="12" height="11"/></clipPath><g clip-path="url(#_clip2)"><path d="M12.5,28l-5,0l-3,-12l11,0l-3,12Zm-6.079,-10.5l2.25,9l2.658,0l2.25,-9l-7.158,0Z" style="fill:#fff;"/></g><path d="M13,15l3,-1c0,0 1.536,-1.843 2.2,-2.64c0.19,-0.228 0.472,-0.36 0.768,-0.36c1.113,0 3.922,0 5.278,0c0.446,0 0.839,0.296 0.961,0.725c0.512,1.79 1.793,6.275 1.793,6.275" style="fill:none;stroke:#fff;stroke-width:2px;"/><circle cx="21.5" cy="6.5" r="2.5" style="fill:#fff;"/><rect x="19" y="10" width="5" height="9" style="fill:#fff;"/><path d="M23,19l0,8" style="fill:none;stroke:#fff;stroke-width:2px;"/><path d="M20,19l0,8" style="fill:none;stroke:#fff;stroke-width:2px;"/><path d="M7.636,17.449l1.415,-2.449l2.449,1.414l-1.414,2.45l-2.45,-1.415Z" style="fill:#fff;"/></g></g></svg>