<?xml version="1.0" encoding="UTF-8" standalone="no"?><!DOCTYPE svg PUBLIC "-//W3C//DTD SVG 1.1//EN" "http://www.w3.org/Graphics/SVG/1.1/DTD/svg11.dtd"><svg width="100%" height="100%" viewBox="0 0 32 32" version="1.1" xmlns="http://www.w3.org/2000/svg" xmlns:xlink="http://www.w3.org/1999/xlink" xml:space="preserve" xmlns:serif="http://www.serif.com/" style="fill-rule:evenodd;clip-rule:evenodd;stroke-linejoin:round;stroke-miterlimit:1.41421;"><path id="potable_water" d="M32,32l0,-32l-32,0l0,32l32,0Z" style="fill:none;"/><clipPath id="_clip1"><path d="M32,32l0,-32l-32,0l0,32l32,0Z"/></clipPath><g clip-path="url(#_clip1)"><g id="outline"><path d="M24,32c4.418,0 8,-3.582 8,-8c0,-4.887 0,-11.113 0,-16c0,-4.418 -3.582,-8 -8,-8c-4.887,0 -11.113,0 -16,0c-4.418,0 -8,3.582 -8,8c0,4.887 0,11.113 0,16c0,4.418 3.582,8 8,8c4.887,0 11.113,0 16,0Z"/></g><g id="emoji"><path d="M2,24c0,1.591 0.632,3.117 1.757,4.243c1.126,1.125 2.652,1.757 4.243,1.757c4.724,0 11.276,0 16,0c1.591,0 3.117,-0.632 4.243,-1.757c1.125,-1.126 1.757,-2.652 1.757,-4.243c0,-4.724 0,-11.276 0,-16c0,-1.591 -0.632,-3.117 -1.757,-4.243c-1.126,-1.125 -2.652,-1.757 -4.243,-1.757c-4.724,0 -11.276,0 -16,0c-1.591,0 -3.117,0.632 -4.243,1.757c-1.125,1.126 -1.757,2.652 -1.757,4.243c0,4.724 0,11.276 0,16Z" style="fill:#334cec;"/><path d="M7,17l11,0c0,0 -1.364,6.821 -1.839,9.196c-0.094,0.468 -0.504,0.804 -0.981,0.804c-1.347,0 -4.013,0 -5.36,0c-0.477,0 -0.887,-0.336 -0.981,-0.804c-0.475,-2.375 -1.839,-9.196 -1.839,-9.196Zm10.5,-8l0,-2l3,0l0,2l4.5,0l0,3c0,0 -7.289,0 -10,0c-0.552,0 -1,0.448 -1,1c0,0.504 0,1.092 0,1.5c0,0.133 -0.053,0.26 -0.146,0.354c-0.094,0.093 -0.221,0.146 -0.354,0.146c-0.555,0 -1.445,0 -2,0c-0.133,0 -0.26,-0.053 -0.354,-0.146c-0.093,-0.094 -0.146,-0.221 -0.146,-0.354c0,-0.367 0,-0.904 0,-1.5c0,-1.061 0.421,-2.078 1.172,-2.828c0.75,-0.751 1.767,-1.172 2.828,-1.172l2.5,0Zm5.5,-4c0,-0.552 -0.448,-1 -1,-1c-1.537,0 -4.464,0 -6.001,0c-0.552,0 -0.999,0.447 -0.999,0.999c0,0.001 0,0.001 0,0.002c0,0.552 0.447,0.999 0.999,0.999c1.537,0 4.464,0 6.001,0c0.552,0 1,-0.448 1,-1c0,0 0,0 0,0Z" style="fill:#fff;"/></g></g></svg>