<?xml version="1.0" encoding="UTF-8" standalone="no"?><!DOCTYPE svg PUBLIC "-//W3C//DTD SVG 1.1//EN" "http://www.w3.org/Graphics/SVG/1.1/DTD/svg11.dtd"><svg width="100%" height="100%" viewBox="0 0 32 32" version="1.1" xmlns="http://www.w3.org/2000/svg" xmlns:xlink="http://www.w3.org/1999/xlink" xml:space="preserve" xmlns:serif="http://www.serif.com/" style="fill-rule:evenodd;clip-rule:evenodd;stroke-linejoin:round;stroke-miterlimit:1.41421;"><rect id="wc" x="0" y="0" width="32" height="32" style="fill:none;"/><clipPath id="_clip1"><rect x="0" y="0" width="32" height="32"/></clipPath><g clip-path="url(#_clip1)"><g id="outline"><path d="M32,8c0,-4.418 -3.582,-8 -8,-8c-4.887,0 -11.113,0 -16,0c-4.418,0 -8,3.582 -8,8c0,4.887 0,11.113 0,16c0,4.418 3.582,8 8,8c4.887,0 11.113,0 16,0c4.418,0 8,-3.582 8,-8c0,-4.887 0,-11.113 0,-16Z"/></g><g id="emoji"><path d="M30,8c0,-1.591 -0.632,-3.117 -1.757,-4.243c-1.126,-1.125 -2.652,-1.757 -4.243,-1.757c-4.724,0 -11.276,0 -16,0c-1.591,0 -3.117,0.632 -4.243,1.757c-1.125,1.126 -1.757,2.652 -1.757,4.243c0,4.724 0,11.276 0,16c0,1.591 0.632,3.117 1.757,4.243c1.126,1.125 2.652,1.757 4.243,1.757c4.724,0 11.276,0 16,0c1.591,0 3.117,-0.632 4.243,-1.757c1.125,-1.126 1.757,-2.652 1.757,-4.243c0,-4.724 0,-11.276 0,-16Z" style="fill:#334cec;"/><path d="M18.272,10.03l-2.864,11.974l-2.082,0l-2.187,-8.867l-2.169,8.867l-2.065,0l-2.95,-11.974l2.273,0l1.805,8.452l1.753,-8.452l2.828,0l1.84,8.452l1.701,-8.452l2.117,0Z" style="fill:#fff;fill-rule:nonzero;"/><path d="M23.304,22.143c-2.903,0 -4.355,-1.59 -4.355,-4.772l0,-2.742c0,-3.182 1.463,-4.772 4.39,-4.772c1.307,0 2.349,0.347 3.124,1.041c0.775,0.694 1.163,1.672 1.163,2.933l0,0.121l-2.274,0l0,-0.104c0,-0.613 -0.176,-1.099 -0.529,-1.458c-0.353,-0.358 -0.853,-0.538 -1.501,-0.538c-0.729,0 -1.258,0.226 -1.588,0.677c-0.33,0.451 -0.495,1.192 -0.495,2.222l0,2.585c0,0.972 0.171,1.678 0.512,2.117c0.342,0.44 0.877,0.66 1.605,0.66c0.648,0 1.143,-0.174 1.484,-0.521c0.342,-0.347 0.512,-0.821 0.512,-1.423l0,-0.139l2.239,0l0,0.122c0,1.284 -0.382,2.27 -1.146,2.959c-0.763,0.688 -1.81,1.032 -3.141,1.032Z" style="fill:#fff;fill-rule:nonzero;"/></g></g></svg>