<?xml version="1.0" encoding="UTF-8" standalone="no"?>
<!DOCTYPE svg PUBLIC "-//W3C//DTD SVG 1.1//EN" "http://www.w3.org/Graphics/SVG/1.1/DTD/svg11.dtd">
<svg width="100%" height="100%" viewBox="0 0 32 32" version="1.1" xmlns="http://www.w3.org/2000/svg" xmlns:xlink="http://www.w3.org/1999/xlink" xml:space="preserve" xmlns:serif="http://www.serif.com/" style="fill-rule:evenodd;clip-rule:evenodd;stroke-linejoin:round;stroke-miterlimit:2;">
    <rect id="female_symbol" x="0" y="0" width="32" height="32" style="fill:none;"/>
    <g id="outline">
        <rect x="11" y="7" width="10" height="8"/>
        <path d="M7.5,10.5c0,-4.691 3.809,-8.5 8.5,-8.5c4.691,0 8.5,3.809 8.5,8.5l0,2c0,4.18 -3.023,7.659 -7,8.368l0,0.632l3.5,0l0,5l-3.5,0l0,3.5l-3,0l0,-3.5l-3.5,0l0,-5l3.5,0l0,-0.632c-3.977,-0.709 -7,-4.188 -7,-8.368l0,-2Zm13.624,2l-3.624,0l0,3.293c1.66,-0.471 3.002,-1.702 3.624,-3.293Zm-6.624,0l-3.624,0c0.622,1.591 1.964,2.822 3.624,3.293l0,-3.293Zm6.624,-2c-0.8,-2.048 -2.794,-3.5 -5.124,-3.5c-2.33,0 -4.324,1.452 -5.124,3.5l3.624,0l0,-0.5l3,0l0,0.5l3.624,0Z" style="fill:none;stroke:#000;stroke-width:4px;"/>
    </g>
    <g id="emoji">
        <path d="M7.737,10.5c0.9,-3.728 4.261,-6.5 8.263,-6.5c4.002,0 7.363,2.772 8.263,6.5l0.237,0l0,2c0,4.18 -3.023,7.659 -7,8.368l0,2.632l3.5,0l0,3l-3.5,0l0,3.5l-3,0l0,-3.5l-3.5,0l0,-3l3.5,0l0,-2.632c-3.977,-0.709 -7,-4.188 -7,-8.368l0,-2l0.237,0Zm8.263,-3.5c3.036,0 5.5,2.464 5.5,5.5c0,3.036 -2.464,5.5 -5.5,5.5c-3.036,0 -5.5,-2.464 -5.5,-5.5c0,-3.036 2.464,-5.5 5.5,-5.5Z" style="fill:#747474;"/>
        <path d="M14.5,18.868c-3.977,-0.709 -7,-4.188 -7,-8.368c0,-4.691 3.809,-8.5 8.5,-8.5c4.691,0 8.5,3.809 8.5,8.5c0,4.18 -3.023,7.659 -7,8.368l0,2.632l3.5,0l0,3l-3.5,0l0,3.5l-3,0l0,-3.5l-3.5,0l0,-3l3.5,0l0,-2.632Zm1.5,-13.868c3.036,0 5.5,2.464 5.5,5.5c0,3.036 -2.464,5.5 -5.5,5.5c-3.036,0 -5.5,-2.464 -5.5,-5.5c0,-3.036 2.464,-5.5 5.5,-5.5Z" style="fill:#fff;"/>
    </g>
</svg>
