<?xml version="1.0" encoding="UTF-8" standalone="no"?>
<!DOCTYPE svg PUBLIC "-//W3C//DTD SVG 1.1//EN" "http://www.w3.org/Graphics/SVG/1.1/DTD/svg11.dtd">
<svg width="100%" height="100%" viewBox="0 0 32 32" version="1.1" xmlns="http://www.w3.org/2000/svg" xmlns:xlink="http://www.w3.org/1999/xlink" xml:space="preserve" xmlns:serif="http://www.serif.com/" style="fill-rule:evenodd;clip-rule:evenodd;stroke-linecap:round;stroke-linejoin:round;stroke-miterlimit:1.5;">
    <rect id="club_suit" x="0" y="0" width="32" height="32" style="fill:none;"/>
    <clipPath id="_clip1">
        <rect x="0" y="0" width="32" height="32"/>
    </clipPath>
    <g clip-path="url(#_clip1)">
        <g id="outline">
            <path d="M10.425,7.363c0.022,-1.278 0.484,-2.545 1.372,-3.56c0,0 0,0 0.001,0c1.06,-1.212 2.592,-1.907 4.202,-1.907c1.61,0 3.142,0.695 4.202,1.907c0.001,0 0.001,0 0.001,0c0.888,1.015 1.35,2.282 1.372,3.56l0,0c0.001,0.063 0.001,0.126 0,0.189l0,1.811l0,0c0.014,0.848 -0.165,1.701 -0.543,2.49c1.366,-0.525 2.898,-0.504 4.268,0.087c1.705,0.736 2.94,2.262 3.305,4.084c0.02,0.101 0.04,0.201 0.06,0.302c0.069,0.344 0.105,0.692 0.108,1.037l0.001,0l0,2l-0.001,0c0.013,1.299 -0.427,2.574 -1.264,3.595c-1.06,1.292 -2.644,2.042 -4.315,2.042c-0.001,0 -0.002,0 -0.003,0c-1.973,0 -3.795,-1.057 -4.774,-2.77l-0.535,-0.936l1.118,6.706l0,2l-6,0l0,-2l1.126,-6.753l-0.587,1.015c-0.978,1.694 -2.786,2.738 -4.742,2.738l-0.003,0c-1.668,0 -3.249,-0.748 -4.307,-2.039c-0.85,-1.036 -1.291,-2.335 -1.261,-3.654l0,-1.754c-0.009,-0.404 0.026,-0.811 0.106,-1.215c0.021,-0.105 0.042,-0.209 0.063,-0.314c0.365,-1.822 1.6,-3.348 3.305,-4.084c1.37,-0.591 2.902,-0.612 4.268,-0.087c-0.378,-0.789 -0.557,-1.642 -0.543,-2.49l0,0l0,-1.811c-0.001,-0.063 -0.001,-0.126 0,-0.189l0,0l0,0Z" style="fill:none;stroke:#000;stroke-width:4px;"/>
        </g>
        <g id="emoji">
            <path d="M10.834,7.363c0.227,-0.558 0.549,-1.086 0.963,-1.56c0,0 0,0 0.001,0c1.06,-1.212 2.592,-1.907 4.202,-1.907c1.61,0 3.142,0.695 4.202,1.907c0.001,0 0.001,0 0.001,0c0.414,0.474 0.736,1.002 0.963,1.56l0.409,0l0,2l0,0c0.019,1.099 -0.288,2.207 -0.931,3.171c-0.868,1.302 -1.644,2.466 -1.644,2.466c0,0 0.417,-0.261 1.061,-0.663c1.575,-0.985 3.533,-1.133 5.239,-0.397c1.494,0.645 2.628,1.897 3.131,3.423l0.343,0l0,2l-0.001,0c0.013,1.299 -0.427,2.574 -1.264,3.595c-1.06,1.292 -2.644,2.042 -4.315,2.042c-0.001,0 -0.002,0 -0.003,0c-1.973,0 -3.795,-1.057 -4.774,-2.77l-1.144,-2.003l1.727,7.773l0,2l-6,0l0,-2l1.736,-7.81l-1.197,2.072c-0.978,1.694 -2.786,2.738 -4.742,2.738l-0.003,0c-1.668,0 -3.249,-0.748 -4.307,-2.039c-0.85,-1.036 -1.291,-2.335 -1.261,-3.654l0,-1.944l0.343,0c0.503,-1.526 1.637,-2.778 3.131,-3.423c1.706,-0.736 3.664,-0.588 5.239,0.397c0.644,0.402 1.061,0.663 1.061,0.663c0,0 -0.776,-1.164 -1.644,-2.466c-0.643,-0.964 -0.95,-2.072 -0.931,-3.171l0,0l0,-2l0.409,0Z" style="fill:#474747;"/>
            <path d="M14.594,18.435l-1.055,1.827c-0.978,1.694 -2.786,2.738 -4.742,2.738l-0.003,0c-1.668,0 -3.249,-0.748 -4.307,-2.039c-1.058,-1.29 -1.482,-2.987 -1.155,-4.623c0.021,-0.105 0.042,-0.209 0.063,-0.314c0.365,-1.822 1.6,-3.348 3.305,-4.084c1.706,-0.736 3.664,-0.588 5.239,0.397c0.644,0.402 1.061,0.663 1.061,0.663c0,0 -0.776,-1.164 -1.644,-2.466c-1.39,-2.085 -1.21,-4.844 0.441,-6.731c0,0 0,0 0.001,0c1.06,-1.212 2.592,-1.907 4.202,-1.907c1.61,0 3.142,0.695 4.202,1.907c0.001,0 0.001,0 0.001,0c1.651,1.887 1.831,4.646 0.441,6.731c-0.868,1.302 -1.644,2.466 -1.644,2.466c0,0 0.417,-0.261 1.061,-0.663c1.575,-0.985 3.533,-1.133 5.239,-0.397c1.705,0.736 2.94,2.262 3.305,4.084c0.02,0.101 0.04,0.201 0.06,0.302c0.328,1.639 -0.096,3.339 -1.156,4.632c-1.06,1.292 -2.644,2.042 -4.315,2.042c-0.001,0 -0.002,0 -0.003,0c-1.973,0 -3.795,-1.057 -4.774,-2.77l-1.005,-1.759l1.588,9.529l-6,0l1.594,-9.565Z" style="fill:#717171;"/>
        </g>
    </g>
</svg>
