<?xml version="1.0" encoding="UTF-8" standalone="no"?>
<!DOCTYPE svg PUBLIC "-//W3C//DTD SVG 1.1//EN" "http://www.w3.org/Graphics/SVG/1.1/DTD/svg11.dtd">
<svg width="100%" height="100%" viewBox="0 0 32 32" version="1.1" xmlns="http://www.w3.org/2000/svg" xmlns:xlink="http://www.w3.org/1999/xlink" xml:space="preserve" xmlns:serif="http://www.serif.com/" style="fill-rule:evenodd;clip-rule:evenodd;stroke-linejoin:round;stroke-miterlimit:1.41421;">
    <path id="divide" d="M0,0l0,32l32,0l0,-32l-32,0Z" style="fill:none;"/>
    <clipPath id="_clip1">
        <path d="M0,0l0,32l32,0l0,-32l-32,0Z"/>
    </clipPath>
    <g clip-path="url(#_clip1)">
        <g id="outline">
            <path d="M29,20l-26,0l0,-7l26,0l0,7Z" style="fill:none;fill-rule:nonzero;stroke:#000;stroke-width:4px;"/>
            <path d="M16,21c-1.933,0 -3.5,1.567 -3.5,3.5l0,2.002c0,0.928 0.369,1.817 1.025,2.473c0.656,0.656 1.545,1.025 2.473,1.025c0.001,0 0.001,0 0.002,0c1.933,0 3.5,-1.567 3.5,-3.5l0,-2.002c0,-0.928 -0.369,-1.817 -1.025,-2.473c-0.656,-0.656 -1.545,-1.025 -2.473,-1.025c-0.001,0 -0.001,0 -0.002,0Z" style="fill:none;stroke:#000;stroke-width:4px;stroke-miterlimit:1.5;"/>
            <path d="M16,3c-1.933,0 -3.5,1.567 -3.5,3.5l0,2.002c0,0.928 0.369,1.817 1.025,2.473c0.656,0.656 1.545,1.025 2.473,1.025c0.001,0 0.001,0 0.002,0c1.933,0 3.5,-1.567 3.5,-3.5l0,-2.002c0,-0.928 -0.369,-1.817 -1.025,-2.473c-0.656,-0.656 -1.545,-1.025 -2.473,-1.025c-0.001,0 -0.001,0 -0.002,0Z" style="fill:none;stroke:#000;stroke-width:4px;stroke-miterlimit:1.5;"/>
        </g>
        <g id="emoji">
            <path d="M29,20l-26,0l0,-2l2,-2l22,0l2,2l0,2Z" style="fill:#747474;fill-rule:nonzero;"/>
            <path d="M29,18l-26,0l0,-5l26,0l0,5Z" style="fill:#fff;fill-rule:nonzero;"/>
            <path d="M12.5,24l0,2.5c0,1.933 1.567,3.5 3.5,3.5c0,0 0,0 0,0c1.933,0 3.5,-1.567 3.5,-3.5c0,-1.316 0,-2.5 0,-2.5l-7,0Z" style="fill:#747474;"/>
            <path d="M12.5,6l0,2.5c0,1.933 1.567,3.5 3.5,3.5c0,0 0,0 0,0c1.933,0 3.5,-1.567 3.5,-3.5c0,-1.316 0,-2.5 0,-2.5l-7,0Z" style="fill:#747474;"/>
            <circle cx="16" cy="24.5" r="3.5" style="fill:#fff;"/>
            <circle cx="16" cy="6.5" r="3.5" style="fill:#fff;"/>
        </g>
    </g>
</svg>
