<?xml version="1.0" encoding="UTF-8" standalone="no"?>
<!DOCTYPE svg PUBLIC "-//W3C//DTD SVG 1.1//EN" "http://www.w3.org/Graphics/SVG/1.1/DTD/svg11.dtd">
<svg width="100%" height="100%" viewBox="0 0 32 32" version="1.1" xmlns="http://www.w3.org/2000/svg" xmlns:xlink="http://www.w3.org/1999/xlink" xml:space="preserve" xmlns:serif="http://www.serif.com/" style="fill-rule:evenodd;clip-rule:evenodd;stroke-linecap:round;stroke-linejoin:round;stroke-miterlimit:1.5;">
    <rect id="dollar" x="0" y="0" width="32" height="32" style="fill:none;"/>
    <clipPath id="_clip1">
        <rect x="0" y="0" width="32" height="32"/>
    </clipPath>
    <g clip-path="url(#_clip1)">
        <g id="outline">
            <path d="M17.5,10l0,3l4,0c1.459,0 2.858,0.579 3.889,1.611c0.582,0.582 1.02,1.281 1.292,2.042c0.208,0.414 0.319,0.875 0.319,1.347l0,2.5c0,1.459 -0.579,2.858 -1.611,3.889c-1.031,1.032 -2.43,1.611 -3.889,1.611l-4,0l0,4l-3,0l0,-4l-7.5,0l0,-5l7.5,0l0,-3l-4,0c-1.459,0 -2.858,-0.579 -3.889,-1.611c-1.032,-1.031 -1.611,-2.43 -1.611,-3.889l0,-1.502c0,-0.077 0.002,-0.153 0.007,-0.229c-0.005,-0.089 -0.007,-0.179 -0.007,-0.269c0,0 0,0 0,0c0,-3.038 2.462,-5.5 5.5,-5.5l4,0l0,-3l3,0l0,3l7.5,0l0,5l-7.5,0Zm0,8l0,3l4,0c0.663,0 1.299,-0.263 1.768,-0.732c0.223,-0.223 0.399,-0.484 0.523,-0.768c-0.124,-0.284 -0.3,-0.545 -0.523,-0.768c-0.469,-0.469 -1.105,-0.732 -1.768,-0.732l-4,0Zm-3,-8l-4,0c-0.663,0 -1.299,0.263 -1.768,0.732c-0.223,0.223 -0.399,0.484 -0.523,0.768c0.124,0.284 0.3,0.545 0.523,0.768c0.469,0.469 1.105,0.732 1.768,0.732l4,0l0,-3Z" style="fill:none;stroke:#000;stroke-width:4px;"/>
        </g>
        <g id="emoji">
            <path d="M17.5,28l0,2l-3,0l0,-2l0.846,-1l0.654,0l1.5,1Zm7.5,-21l0,3c0,0 -9.774,0 -14.5,0c-0.663,0 -1.299,0.263 -1.768,0.732c-0.469,0.469 -0.732,1.105 -0.732,1.768c0,1.381 1.119,2.5 2.5,2.5c3.479,0 9.772,0 13.5,0c0.796,0 1.559,0.316 2.121,0.879c0.563,0.562 0.879,1.325 0.879,2.121l0,2.5c0,1.459 -0.579,2.858 -1.611,3.889c-1.031,1.032 -2.43,1.611 -3.889,1.611l-14.5,0l0,-3c0,0 9.774,0 14.5,0c0.663,0 1.299,-0.263 1.768,-0.732c0.469,-0.469 0.732,-1.105 0.732,-1.768c0,-0.663 -0.263,-1.299 -0.732,-1.768c-0.469,-0.469 -1.105,-0.732 -1.768,-0.732c-2.784,0 -7.369,0 -11,0c-1.459,0 -2.858,-0.579 -3.889,-1.611c-1.032,-1.031 -1.611,-2.43 -1.611,-3.889l0,-1.502c0,-1.06 0.421,-2.077 1.171,-2.827c0.75,-0.75 1.767,-1.171 2.827,-1.171l16.002,0Z" style="fill:#737373;"/>
            <path d="M10.5,5l4,0l0,-3l3,0l0,3l7.5,0l0,3l-7.5,0l0,5l4,0c1.459,0 2.858,0.579 3.889,1.611c1.032,1.031 1.611,2.43 1.611,3.889c0,0 0,0 0,0c0,3.038 -2.462,5.5 -5.5,5.5l-4,0l0,4l-3,0l0,-4l-7.5,0l0,-3l7.5,0l0,-5l-4,0c-1.459,0 -2.858,-0.579 -3.889,-1.611c-1.032,-1.031 -1.611,-2.43 -1.611,-3.889c0,0 0,0 0,0c0,-3.038 2.462,-5.5 5.5,-5.5Zm7,11l0,5l4,0c0.663,0 1.299,-0.263 1.768,-0.732c0.469,-0.469 0.732,-1.105 0.732,-1.768c0,-0.663 -0.263,-1.299 -0.732,-1.768c-0.469,-0.469 -1.105,-0.732 -1.768,-0.732l-4,0Zm-3,-8l-4,0c-0.663,0 -1.299,0.263 -1.768,0.732c-0.469,0.469 -0.732,1.105 -0.732,1.768c0,0.663 0.263,1.299 0.732,1.768c0.469,0.469 1.105,0.732 1.768,0.732l4,0l0,-5Z" style="fill:#fff;"/>
        </g>
    </g>
</svg>
