<?xml version="1.0" encoding="UTF-8" standalone="no"?>
<!DOCTYPE svg PUBLIC "-//W3C//DTD SVG 1.1//EN" "http://www.w3.org/Graphics/SVG/1.1/DTD/svg11.dtd">
<svg width="100%" height="100%" viewBox="0 0 32 32" version="1.1" xmlns="http://www.w3.org/2000/svg" xmlns:xlink="http://www.w3.org/1999/xlink" xml:space="preserve" xmlns:serif="http://www.serif.com/" style="fill-rule:evenodd;clip-rule:evenodd;stroke-linejoin:round;stroke-miterlimit:1.41421;">
    <path id="double_loop" d="M0,0l0,32l32,0l0,-32l-32,0Z" style="fill:none;"/>
    <g id="outline">
        <path id="path3" d="M16,9.107c-1.943,0 -3.812,0.625 -5.574,1.545c-2.366,-1.363 -5.343,-1.327 -7.596,0.358c-0.253,0.189 -0.412,0.31 -0.412,0.31l0,2l1.803,2.399c0,0 0.154,-0.117 0.406,-0.305c0.813,-0.608 1.774,-0.797 2.723,-0.707l-0.733,0.732c-2.106,2.105 -2.106,5.564 0,7.668c0.062,0.062 0.121,0.122 0.176,0.178c0.003,0.003 0.005,0.007 0.008,0.01c2.004,2.002 5.297,2.001 7.301,-0.002l0.002,0c1.059,-1.06 1.633,-2.513 1.587,-4.01c-0.045,-1.497 -0.706,-2.91 -1.828,-3.904c-0.262,-0.232 -0.537,-0.475 -0.808,-0.715c1.917,-0.656 3.973,-0.656 5.89,0c-0.271,0.24 -0.546,0.483 -0.808,0.715c-1.122,0.994 -1.783,2.407 -1.828,3.904c-0.046,1.497 0.528,2.95 1.588,4.01l0.002,0c2.003,2.003 5.296,2.004 7.3,0.002c0.003,-0.003 0.006,-0.007 0.008,-0.01c0.055,-0.056 0.114,-0.116 0.176,-0.178c2.106,-2.104 2.106,-5.563 0,-7.668l-0.733,-0.732c0.949,-0.09 1.91,0.099 2.723,0.707c0.252,0.188 0.406,0.305 0.406,0.305l1.803,-2.399l0,-2c0,0 -0.159,-0.121 -0.412,-0.31l-0.002,0c-2.253,-1.684 -5.229,-1.721 -7.594,-0.358c-1.762,-0.92 -3.631,-1.545 -5.574,-1.545Zm-5.68,7.141c0.523,0.462 1.049,0.929 1.553,1.375c0.504,0.446 0.8,1.079 0.82,1.752c0.021,0.673 -0.236,1.321 -0.713,1.797c-0.856,0.857 -2.2,0.857 -3.058,0c-0.063,-0.064 -0.125,-0.127 -0.184,-0.186c-0.958,-0.957 -0.958,-2.466 0,-3.423l0.778,-0.78c0.238,-0.238 0.548,-0.328 0.804,-0.535Zm11.36,0c0.256,0.207 0.566,0.297 0.804,0.535l0.778,0.78c0.958,0.957 0.958,2.466 0,3.423c-0.059,0.059 -0.121,0.122 -0.184,0.186c-0.858,0.857 -2.202,0.857 -3.058,0c-0.477,-0.476 -0.734,-1.124 -0.713,-1.797c0.02,-0.673 0.316,-1.306 0.82,-1.752c0.504,-0.446 1.03,-0.913 1.553,-1.375Z" style="fill:none;fill-rule:nonzero;stroke:#000;stroke-width:4px;"/>
        <rect x="7" y="16" width="18" height="5"/>
    </g>
    <g id="emoji">
        <path id="path31" serif:id="path3" d="M16,11.107c-1.943,0 -3.812,0.625 -5.574,1.545c-2.366,-1.363 -5.343,-1.327 -7.596,0.358c-0.253,0.189 -0.412,0.31 -0.412,0.31l1.803,2.399c0,0 0.154,-0.117 0.406,-0.305c0.813,-0.608 1.774,-0.797 2.723,-0.707l-0.733,0.732c-2.106,2.105 -2.106,5.564 0,7.668c0.062,0.062 0.121,0.122 0.176,0.178c0.003,0.003 0.005,0.007 0.008,0.01c2.004,2.002 5.297,2.001 7.301,-0.002l0.002,0c1.059,-1.06 1.633,-2.513 1.587,-4.01c-0.045,-1.497 -0.706,-2.91 -1.828,-3.904c-0.262,-0.232 -0.537,-0.475 -0.808,-0.715c1.917,-0.656 3.973,-0.656 5.89,0c-0.271,0.24 -0.546,0.483 -0.808,0.715c-1.122,0.994 -1.783,2.407 -1.828,3.904c-0.046,1.497 0.528,2.95 1.588,4.01l0.002,0c2.003,2.003 5.296,2.004 7.3,0.002c0.003,-0.003 0.006,-0.007 0.008,-0.01c0.055,-0.056 0.114,-0.116 0.176,-0.178c2.106,-2.104 2.106,-5.563 0,-7.668l-0.733,-0.732c0.949,-0.09 1.91,0.099 2.723,0.707c0.252,0.188 0.406,0.305 0.406,0.305l1.803,-2.399c0,0 -0.159,-0.121 -0.412,-0.31l-0.002,0c-2.253,-1.684 -5.229,-1.721 -7.594,-0.358c-1.762,-0.92 -3.631,-1.545 -5.574,-1.545Zm-5.68,5.141c0.523,0.462 1.049,0.929 1.553,1.375c0.504,0.446 0.8,1.079 0.82,1.752c0.021,0.673 -0.236,1.321 -0.713,1.797c-0.856,0.857 -2.2,0.857 -3.058,0c-0.063,-0.064 -0.125,-0.127 -0.184,-0.186c-0.958,-0.957 -0.958,-2.466 0,-3.423l0.778,-0.78c0.238,-0.238 0.548,-0.328 0.804,-0.535Zm11.36,0c0.256,0.207 0.566,0.297 0.804,0.535l0.778,0.78c0.958,0.957 0.958,2.466 0,3.423c-0.059,0.059 -0.121,0.122 -0.184,0.186c-0.858,0.857 -2.202,0.857 -3.058,0c-0.477,-0.476 -0.734,-1.124 -0.713,-1.797c0.02,-0.673 0.316,-1.306 0.82,-1.752c0.504,-0.446 1.03,-0.913 1.553,-1.375Z" style="fill:#747474;fill-rule:nonzero;"/>
        <path d="M2.418,11.32l0,2l2.582,0l0,-1.948l-2.582,-0.052Z" style="fill:#747474;"/>
        <path d="M27,11.32l0,2l2.582,0l0,-1.948l-2.582,-0.052Z" style="fill:#747474;"/>
        <rect x="5.039" y="17.342" width="2.961" height="1.984" style="fill:#747474;"/>
        <rect x="24" y="17.342" width="2.961" height="1.984" style="fill:#747474;"/>
        <path id="path32" serif:id="path3" d="M16,9.107c-1.943,0 -3.812,0.625 -5.574,1.545c-2.366,-1.363 -5.343,-1.327 -7.596,0.358c-0.253,0.189 -0.412,0.31 -0.412,0.31l1.803,2.399c0,0 0.154,-0.117 0.406,-0.305c0.813,-0.608 1.774,-0.797 2.723,-0.707l-0.733,0.732c-2.106,2.105 -2.106,5.564 0,7.668c0.062,0.062 0.121,0.122 0.176,0.178c0.003,0.003 0.005,0.007 0.008,0.01c2.004,2.002 5.297,2.001 7.301,-0.002l0.002,0c1.059,-1.06 1.633,-2.513 1.587,-4.01c-0.045,-1.497 -0.706,-2.91 -1.828,-3.904c-0.262,-0.232 -0.537,-0.475 -0.808,-0.715c1.917,-0.656 3.973,-0.656 5.89,0c-0.271,0.24 -0.546,0.483 -0.808,0.715c-1.122,0.994 -1.783,2.407 -1.828,3.904c-0.046,1.497 0.528,2.95 1.588,4.01l0.002,0c2.003,2.003 5.296,2.004 7.3,0.002c0.003,-0.003 0.006,-0.007 0.008,-0.01c0.055,-0.056 0.114,-0.116 0.176,-0.178c2.106,-2.104 2.106,-5.563 0,-7.668l-0.733,-0.732c0.949,-0.09 1.91,0.099 2.723,0.707c0.252,0.188 0.406,0.305 0.406,0.305l1.803,-2.399c0,0 -0.159,-0.121 -0.412,-0.31l-0.002,0c-2.253,-1.684 -5.229,-1.721 -7.594,-0.358c-1.762,-0.92 -3.631,-1.545 -5.574,-1.545Zm-5.68,5.141c0.523,0.462 1.049,0.929 1.553,1.375c0.504,0.446 0.8,1.079 0.82,1.752c0.021,0.673 -0.236,1.321 -0.713,1.797c-0.856,0.857 -2.2,0.857 -3.058,0c-0.063,-0.064 -0.125,-0.127 -0.184,-0.186c-0.958,-0.957 -0.958,-2.466 0,-3.423l0.778,-0.78c0.238,-0.238 0.548,-0.328 0.804,-0.535Zm11.36,0c0.256,0.207 0.566,0.297 0.804,0.535l0.778,0.78c0.958,0.957 0.958,2.466 0,3.423c-0.059,0.059 -0.121,0.122 -0.184,0.186c-0.858,0.857 -2.202,0.857 -3.058,0c-0.477,-0.476 -0.734,-1.124 -0.713,-1.797c0.02,-0.673 0.316,-1.306 0.82,-1.752c0.504,-0.446 1.03,-0.913 1.553,-1.375Z" style="fill:#fff;fill-rule:nonzero;"/>
    </g>
</svg>
