<?xml version="1.0" encoding="UTF-8" standalone="no"?>
<!DOCTYPE svg PUBLIC "-//W3C//DTD SVG 1.1//EN" "http://www.w3.org/Graphics/SVG/1.1/DTD/svg11.dtd">
<svg width="100%" height="100%" viewBox="0 0 32 32" version="1.1" xmlns="http://www.w3.org/2000/svg" xmlns:xlink="http://www.w3.org/1999/xlink" xml:space="preserve" xmlns:serif="http://www.serif.com/" style="fill-rule:evenodd;clip-rule:evenodd;stroke-linejoin:round;stroke-miterlimit:1.41421;">
    <path id="gray_question_mark" d="M0,0l0,32l32,0l0,-32l-32,0Z" style="fill:none;"/>
    <clipPath id="_clip1">
        <path d="M0,0l0,32l32,0l0,-32l-32,0Z"/>
    </clipPath>
    <g clip-path="url(#_clip1)">
        <g id="outline">
            <path d="M12.535,21.164c-0.118,0 -0.219,-0.044 -0.302,-0.133c-0.083,-0.088 -0.124,-0.195 -0.124,-0.321l0,-0.906c0,-0.956 0.177,-1.781 0.533,-2.473c0.355,-0.693 0.782,-1.259 1.279,-1.7c0.498,-0.44 1.149,-0.95 1.955,-1.529c0.9,-0.604 1.557,-1.133 1.972,-1.586c0.415,-0.453 0.622,-0.994 0.622,-1.624c0,-0.679 -0.249,-1.214 -0.746,-1.605c-0.498,-0.39 -1.161,-0.585 -1.991,-0.585c-0.9,0 -1.616,0.22 -2.15,0.661c-0.533,0.44 -0.799,1.013 -0.799,1.718l0,0.416c0,0.276 -0.142,0.415 -0.427,0.415l-5.046,-0.227c-0.118,0 -0.219,-0.031 -0.302,-0.094c-0.083,-0.063 -0.124,-0.145 -0.124,-0.246l0,-0.264c0,-1.586 0.379,-2.989 1.137,-4.21c0.758,-1.221 1.818,-2.172 3.18,-2.851c1.363,-0.68 2.92,-1.02 4.674,-1.02c1.729,0 3.239,0.315 4.531,0.944c1.291,0.629 2.286,1.517 2.985,2.662c0.699,1.146 1.048,2.474 1.048,3.984c0,1.133 -0.189,2.096 -0.568,2.889c-0.38,0.793 -0.836,1.441 -1.369,1.945c-0.533,0.503 -1.214,1.045 -2.043,1.624c-0.829,0.579 -1.445,1.088 -1.848,1.529c-0.403,0.44 -0.604,0.975 -0.604,1.605l0,0.528c0,0.126 -0.042,0.233 -0.125,0.321c-0.082,0.089 -0.183,0.133 -0.302,0.133l-5.046,0Zm2.31,8.798c-0.877,0 -1.605,-0.308 -2.186,-0.925c-0.58,-0.617 -0.87,-1.403 -0.87,-2.36c0,-0.982 0.284,-1.775 0.853,-2.379c0.568,-0.604 1.303,-0.906 2.203,-0.906c0.9,0 1.641,0.302 2.221,0.906c0.581,0.604 0.871,1.397 0.871,2.379c0,0.931 -0.29,1.712 -0.871,2.341c-0.58,0.63 -1.321,0.944 -2.221,0.944Z" style="fill:none;fill-rule:nonzero;stroke:#000;stroke-width:4px;"/>
            <path d="M12.535,20.164c-0.118,0 -0.219,-0.044 -0.302,-0.133c-0.083,-0.088 -0.124,-0.195 -0.124,-0.321l0,-0.906c0,-0.956 0.177,-1.781 0.533,-2.473c0.355,-0.693 0.782,-1.259 1.279,-1.7c0.498,-0.44 1.149,-0.95 1.955,-1.529c0.9,-0.604 1.557,-1.133 1.972,-1.586c0.415,-0.453 0.622,-0.994 0.622,-1.624c0,-0.679 -0.249,-1.214 -0.746,-1.605c-0.498,-0.39 -1.161,-0.585 -1.991,-0.585c-0.9,0 -1.616,0.22 -2.15,0.661c-0.533,0.44 -0.799,1.013 -0.799,1.718l0,0.416c0,0.276 -0.142,0.415 -0.427,0.415l-5.046,-0.227c-0.118,0 -0.219,-0.031 -0.302,-0.094c-0.083,-0.063 -0.124,-0.145 -0.124,-0.246l0,-0.264c0,-1.586 0.379,-2.989 1.137,-4.21c0.758,-1.221 1.818,-2.172 3.18,-2.851c1.363,-0.68 2.92,-1.02 4.674,-1.02c1.729,0 3.239,0.315 4.531,0.944c1.291,0.629 2.286,1.517 2.985,2.662c0.699,1.146 1.048,2.474 1.048,3.984c0,1.133 -0.189,2.096 -0.568,2.889c-0.38,0.793 -0.836,1.441 -1.369,1.945c-0.533,0.503 -1.214,1.045 -2.043,1.624c-0.829,0.579 -1.445,1.088 -1.848,1.529c-0.403,0.44 -0.604,0.975 -0.604,1.605l0,0.528c0,0.126 -0.042,0.233 -0.125,0.321c-0.082,0.089 -0.183,0.133 -0.302,0.133l-5.046,0Zm2.31,8.798c-0.877,0 -1.605,-0.308 -2.186,-0.925c-0.58,-0.617 -0.87,-1.403 -0.87,-2.36c0,-0.982 0.284,-1.775 0.853,-2.379c0.568,-0.604 1.303,-0.906 2.203,-0.906c0.9,0 1.641,0.302 2.221,0.906c0.581,0.604 0.871,1.397 0.871,2.379c0,0.931 -0.29,1.712 -0.871,2.341c-0.58,0.63 -1.321,0.944 -2.221,0.944Z" style="fill:none;fill-rule:nonzero;stroke:#000;stroke-width:4px;"/>
            <rect x="10" y="8" width="10" height="4"/>
        </g>
        <g id="emoji">
            <path d="M12.535,21.164c-0.118,0 -0.219,-0.044 -0.302,-0.133c-0.083,-0.088 -0.124,-0.195 -0.124,-0.321l0,-0.906c0,-0.956 0.177,-1.781 0.533,-2.473c0.355,-0.693 0.782,-1.259 1.279,-1.7c0.498,-0.44 1.149,-0.95 1.955,-1.529c0.9,-0.604 1.557,-1.133 1.972,-1.586c0.415,-0.453 0.622,-0.994 0.622,-1.624c0,-0.679 -0.249,-1.214 -0.746,-1.605c-0.498,-0.39 -1.161,-0.585 -1.991,-0.585c-0.9,0 -1.616,0.22 -2.15,0.661c-0.533,0.44 -0.799,1.013 -0.799,1.718l0,0.416c0,0.276 -0.142,0.415 -0.427,0.415l-5.046,-0.227c-0.118,0 -0.219,-0.031 -0.302,-0.094c-0.083,-0.063 -0.124,-0.145 -0.124,-0.246l0,-0.264c0,-1.586 0.379,-2.989 1.137,-4.21c0.758,-1.221 1.818,-2.172 3.18,-2.851c1.363,-0.68 2.92,-1.02 4.674,-1.02c1.729,0 3.239,0.315 4.531,0.944c1.291,0.629 2.286,1.517 2.985,2.662c0.699,1.146 1.048,2.474 1.048,3.984c0,1.133 -0.189,2.096 -0.568,2.889c-0.38,0.793 -0.836,1.441 -1.369,1.945c-0.533,0.503 -1.214,1.045 -2.043,1.624c-0.829,0.579 -1.445,1.088 -1.848,1.529c-0.403,0.44 -0.604,0.975 -0.604,1.605l0,0.528c0,0.126 -0.042,0.233 -0.125,0.321c-0.082,0.089 -0.183,0.133 -0.302,0.133l-5.046,0Zm2.31,8.798c-0.877,0 -1.605,-0.308 -2.186,-0.925c-0.58,-0.617 -0.87,-1.403 -0.87,-2.36c0,-0.982 0.284,-1.775 0.853,-2.379c0.568,-0.604 1.303,-0.906 2.203,-0.906c0.9,0 1.641,0.302 2.221,0.906c0.581,0.604 0.871,1.397 0.871,2.379c0,0.931 -0.29,1.712 -0.871,2.341c-0.58,0.63 -1.321,0.944 -2.221,0.944Z" style="fill:#666;fill-rule:nonzero;"/>
            <path d="M12.535,20.164c-0.118,0 -0.219,-0.044 -0.302,-0.133c-0.083,-0.088 -0.124,-0.195 -0.124,-0.321l0,-0.906c0,-0.956 0.177,-1.781 0.533,-2.473c0.355,-0.693 0.782,-1.259 1.279,-1.7c0.498,-0.44 1.149,-0.95 1.955,-1.529c0.9,-0.604 1.557,-1.133 1.972,-1.586c0.415,-0.453 0.622,-0.994 0.622,-1.624c0,-0.679 -0.249,-1.214 -0.746,-1.605c-0.498,-0.39 -1.161,-0.585 -1.991,-0.585c-0.9,0 -1.616,0.22 -2.15,0.661c-0.533,0.44 -0.799,1.013 -0.799,1.718l0,0.416c0,0.276 -0.142,0.415 -0.427,0.415l-5.046,-0.227c-0.118,0 -0.219,-0.031 -0.302,-0.094c-0.083,-0.063 -0.124,-0.145 -0.124,-0.246l0,-0.264c0,-1.586 0.379,-2.989 1.137,-4.21c0.758,-1.221 1.818,-2.172 3.18,-2.851c1.363,-0.68 2.92,-1.02 4.674,-1.02c1.729,0 3.239,0.315 4.531,0.944c1.291,0.629 2.286,1.517 2.985,2.662c0.699,1.146 1.048,2.474 1.048,3.984c0,1.133 -0.189,2.096 -0.568,2.889c-0.38,0.793 -0.836,1.441 -1.369,1.945c-0.533,0.503 -1.214,1.045 -2.043,1.624c-0.829,0.579 -1.445,1.088 -1.848,1.529c-0.403,0.44 -0.604,0.975 -0.604,1.605l0,0.528c0,0.126 -0.042,0.233 -0.125,0.321c-0.082,0.089 -0.183,0.133 -0.302,0.133l-5.046,0Zm2.31,8.798c-0.877,0 -1.605,-0.308 -2.186,-0.925c-0.58,-0.617 -0.87,-1.403 -0.87,-2.36c0,-0.982 0.284,-1.775 0.853,-2.379c0.568,-0.604 1.303,-0.906 2.203,-0.906c0.9,0 1.641,0.302 2.221,0.906c0.581,0.604 0.871,1.397 0.871,2.379c0,0.931 -0.29,1.712 -0.871,2.341c-0.58,0.63 -1.321,0.944 -2.221,0.944Z" style="fill:#b3b3b3;fill-rule:nonzero;"/>
        </g>
    </g>
</svg>
