<?xml version="1.0" encoding="UTF-8" standalone="no"?>
<!DOCTYPE svg PUBLIC "-//W3C//DTD SVG 1.1//EN" "http://www.w3.org/Graphics/SVG/1.1/DTD/svg11.dtd">
<svg width="100%" height="100%" viewBox="0 0 32 32" version="1.1" xmlns="http://www.w3.org/2000/svg" xmlns:xlink="http://www.w3.org/1999/xlink" xml:space="preserve" xmlns:serif="http://www.serif.com/" style="fill-rule:evenodd;clip-rule:evenodd;stroke-linejoin:round;stroke-miterlimit:1.41421;">
    <path id="gray_exclamation_mark" d="M0,0l0,32l32,0l0,-32l-32,0Z" style="fill:none;"/>
    <g id="outline">
        <path d="M14.058,20.589c-0.121,0 -0.224,-0.045 -0.309,-0.135c-0.084,-0.09 -0.127,-0.2 -0.127,-0.328l-0.617,-16.663c0,-0.309 0.146,-0.463 0.436,-0.463l5.154,0c0.291,0 0.436,0.154 0.436,0.463l-0.617,16.663c0,0.128 -0.042,0.238 -0.127,0.328c-0.085,0.09 -0.188,0.135 -0.309,0.135l-3.92,0Zm1.706,9.372c-0.92,0 -1.676,-0.315 -2.269,-0.945c-0.592,-0.63 -0.889,-1.433 -0.889,-2.41c0,-0.977 0.297,-1.775 0.889,-2.392c0.593,-0.617 1.349,-0.925 2.269,-0.925c0.92,0 1.676,0.308 2.269,0.925c0.593,0.617 0.889,1.415 0.889,2.392c0,0.951 -0.296,1.748 -0.889,2.391c-0.593,0.643 -1.349,0.964 -2.269,0.964Z" style="fill:none;fill-rule:nonzero;stroke:#000;stroke-width:4px;"/>
        <path d="M14.058,19.589c-0.121,0 -0.224,-0.045 -0.309,-0.135c-0.084,-0.09 -0.127,-0.2 -0.127,-0.328l-0.617,-16.663c0,-0.309 0.146,-0.463 0.436,-0.463l5.154,0c0.291,0 0.436,0.154 0.436,0.463l-0.617,16.663c0,0.128 -0.042,0.238 -0.127,0.328c-0.085,0.09 -0.188,0.135 -0.309,0.135l-3.92,0Zm1.706,9.372c-0.92,0 -1.676,-0.315 -2.269,-0.945c-0.592,-0.63 -0.889,-1.433 -0.889,-2.41c0,-0.977 0.297,-1.775 0.889,-2.392c0.593,-0.617 1.349,-0.925 2.269,-0.925c0.92,0 1.676,0.308 2.269,0.925c0.593,0.617 0.889,1.415 0.889,2.392c0,0.951 -0.296,1.748 -0.889,2.391c-0.593,0.643 -1.349,0.964 -2.269,0.964Z" style="fill:none;fill-rule:nonzero;stroke:#000;stroke-width:4px;"/>
    </g>
    <g id="emoji">
        <path d="M14.058,20.589c-0.121,0 -0.224,-0.045 -0.309,-0.135c-0.084,-0.09 -0.127,-0.2 -0.127,-0.328l-0.617,-16.663c0,-0.309 0.146,-0.463 0.436,-0.463l5.154,0c0.291,0 0.436,0.154 0.436,0.463l-0.617,16.663c0,0.128 -0.042,0.238 -0.127,0.328c-0.085,0.09 -0.188,0.135 -0.309,0.135l-3.92,0Zm1.706,9.372c-0.92,0 -1.676,-0.315 -2.269,-0.945c-0.592,-0.63 -0.889,-1.433 -0.889,-2.41c0,-0.977 0.297,-1.775 0.889,-2.392c0.593,-0.617 1.349,-0.925 2.269,-0.925c0.92,0 1.676,0.308 2.269,0.925c0.593,0.617 0.889,1.415 0.889,2.392c0,0.951 -0.296,1.748 -0.889,2.391c-0.593,0.643 -1.349,0.964 -2.269,0.964Z" style="fill:#666;fill-rule:nonzero;"/>
        <path d="M14.058,19.589c-0.121,0 -0.224,-0.045 -0.309,-0.135c-0.084,-0.09 -0.127,-0.2 -0.127,-0.328l-0.617,-16.663c0,-0.309 0.146,-0.463 0.436,-0.463l5.154,0c0.291,0 0.436,0.154 0.436,0.463l-0.617,16.663c0,0.128 -0.042,0.238 -0.127,0.328c-0.085,0.09 -0.188,0.135 -0.309,0.135l-3.92,0Zm1.706,9.372c-0.92,0 -1.676,-0.315 -2.269,-0.945c-0.592,-0.63 -0.889,-1.433 -0.889,-2.41c0,-0.977 0.297,-1.775 0.889,-2.392c0.593,-0.617 1.349,-0.925 2.269,-0.925c0.92,0 1.676,0.308 2.269,0.925c0.593,0.617 0.889,1.415 0.889,2.392c0,0.951 -0.296,1.748 -0.889,2.391c-0.593,0.643 -1.349,0.964 -2.269,0.964Z" style="fill:#b3b3b3;fill-rule:nonzero;"/>
    </g>
</svg>
