<?xml version="1.0" encoding="UTF-8" standalone="no"?>
<!DOCTYPE svg PUBLIC "-//W3C//DTD SVG 1.1//EN" "http://www.w3.org/Graphics/SVG/1.1/DTD/svg11.dtd">
<svg width="100%" height="100%" viewBox="0 0 32 32" version="1.1" xmlns="http://www.w3.org/2000/svg" xmlns:xlink="http://www.w3.org/1999/xlink" xml:space="preserve" xmlns:serif="http://www.serif.com/" style="fill-rule:evenodd;clip-rule:evenodd;stroke-linecap:round;stroke-linejoin:round;stroke-miterlimit:1.5;">
    <rect id="heart_suit" x="0" y="0" width="32" height="32" style="fill:none;"/>
    <clipPath id="_clip1">
        <rect x="0" y="0" width="32" height="32"/>
    </clipPath>
    <g clip-path="url(#_clip1)">
        <g id="outline">
            <path d="M16,8c1.182,-3.011 2.582,-6 6.535,-6c3.29,0 5.509,2.613 5.471,6.373l0,0l0,1.808c0,0.063 0,0.127 0,0.191l0,0.001l0,0c-0.001,0.117 -0.005,0.235 -0.01,0.354c-0.174,3.697 -2.93,7.56 -5.722,11.191c-3.447,4.482 -6.271,8.078 -6.274,8.082c0,0 -2.825,-3.597 -6.274,-8.082c-2.792,-3.631 -5.548,-7.494 -5.722,-11.191c-0.005,-0.119 -0.009,-0.237 -0.01,-0.354l0,0l0,-0.001c0,-0.064 0,-0.128 0,-0.191l0,-1.808l0,0c-0.038,-3.76 2.181,-6.373 5.471,-6.373c3.953,0 5.353,2.989 6.535,6Z" style="fill:none;stroke:#000;stroke-width:4px;"/>
        </g>
        <g id="emoji">
            <path d="M16.682,8.373c1.095,-2.375 2.621,-4.373 5.853,-4.373c2.668,0 4.632,1.718 5.259,4.373l0.212,0l0,1.808c0,0.063 0,0.127 0,0.191l0,0.001l0,0c-0.001,0.117 -0.005,0.235 -0.01,0.354c-0.174,3.697 -2.93,7.56 -5.722,11.191c-3.233,4.204 -5.918,7.629 -6.241,8.041l-0.033,0.041c0,0 -2.825,-3.597 -6.274,-8.082c-2.792,-3.631 -5.548,-7.494 -5.722,-11.191c-0.005,-0.119 -0.009,-0.237 -0.01,-0.354l0,0l0,-0.001c0,-0.064 0,-0.128 0,-0.191l0,-1.808l0.212,0c0.627,-2.655 2.591,-4.373 5.259,-4.373c3.232,0 4.758,1.998 5.853,4.373l1.364,0Z" style="fill:#9d151d;"/>
            <path d="M16.056,7.859c1.17,-2.963 2.587,-5.859 6.479,-5.859c3.393,0 5.646,2.778 5.461,6.727c-0.174,3.697 -2.93,7.56 -5.722,11.191c-3.018,3.924 -5.558,7.169 -6.146,7.919l-0.128,0.163c0,0 -2.825,-3.597 -6.274,-8.082c-2.792,-3.631 -5.548,-7.494 -5.722,-11.191c-0.185,-3.949 2.068,-6.727 5.461,-6.727c3.953,0 5.353,2.989 6.535,6l0.056,-0.141Z" style="fill:#e82731;"/>
        </g>
    </g>
</svg>
