<?xml version="1.0" encoding="UTF-8" standalone="no"?>
<!DOCTYPE svg PUBLIC "-//W3C//DTD SVG 1.1//EN" "http://www.w3.org/Graphics/SVG/1.1/DTD/svg11.dtd">
<svg width="100%" height="100%" viewBox="0 0 32 32" version="1.1" xmlns="http://www.w3.org/2000/svg" xmlns:xlink="http://www.w3.org/1999/xlink" xml:space="preserve" xmlns:serif="http://www.serif.com/" style="fill-rule:evenodd;clip-rule:evenodd;stroke-linejoin:round;stroke-miterlimit:1.41421;">
    <path id="multiply" d="M0,0l0,32l32,0l0,-32l-32,0Z" style="fill:none;"/>
    <g id="outline">
        <path d="M16,11.5l7.425,-7.424l3.535,3.535l0,2l-6.424,6.425l6.424,6.424l0,2l-3.535,3.536l-7.425,-7.425l-7.425,7.425l-3.535,-3.536l0,-2l6.424,-6.424l-6.424,-6.425l0,-2l3.535,-3.535l7.425,7.424Z" style="fill:none;fill-rule:nonzero;stroke:#000;stroke-width:4px;"/>
    </g>
    <g id="emoji">
        <path d="M16,13.741l7.425,-7.665l3.535,1.535l0,2l-7.599,7.599l4.639,4.79l2.96,0.46l0,2l-3.535,3.536l-7.425,-7.425l-7.425,7.425l-3.535,-3.536l0,-2l2.96,-0.46l4.639,-4.79l-7.599,-7.599l0,-2l3.535,-1.535l7.425,7.665Z" style="fill:#747474;fill-rule:nonzero;"/>
        <path d="M16,11.5l7.425,-7.424l3.535,3.535l-7.424,7.425l7.424,7.424l-3.535,3.536l-7.425,-7.425l-7.425,7.425l-3.535,-3.536l7.424,-7.424l-7.424,-7.425l3.535,-3.535l7.425,7.424Z" style="fill:#fff;fill-rule:nonzero;"/>
    </g>
</svg>
