<?xml version="1.0" encoding="UTF-8" standalone="no"?>
<!DOCTYPE svg PUBLIC "-//W3C//DTD SVG 1.1//EN" "http://www.w3.org/Graphics/SVG/1.1/DTD/svg11.dtd">
<svg width="100%" height="100%" viewBox="0 0 32 32" version="1.1" xmlns="http://www.w3.org/2000/svg" xmlns:xlink="http://www.w3.org/1999/xlink" xml:space="preserve" xmlns:serif="http://www.serif.com/" style="fill-rule:evenodd;clip-rule:evenodd;stroke-linejoin:round;stroke-miterlimit:1.5;">
    <path id="music_notes" d="M0,0l0,32l32,0l0,-32l-32,0Z" style="fill:none;"/>
    <clipPath id="_clip1">
        <path d="M0,0l0,32l32,0l0,-32l-32,0Z"/>
    </clipPath>
    <g clip-path="url(#_clip1)">
        <g id="outline">
            <path d="M25,15l0,11.5c0,1.932 -2.24,3.5 -5,3.5c-2.76,0 -5,-1.568 -5,-3.5l0,-2c0,-1.932 2.24,-3.5 5,-3.5c0.711,0 1.387,0.104 2,0.292l0,-14.292l8,4l0,6.5l-5,-2.5Zm-23,4.5c0,-1.932 2.24,-3.5 5,-3.5c0.711,0 1.387,0.104 2,0.292l0,-14.292l8,4l0,6.5l-5,-2.5l0,11.5c0,1.932 -2.24,3.5 -5,3.5c-2.76,0 -5,-1.568 -5,-3.5l0,-2Z" style="fill:none;stroke:#000;stroke-width:4px;"/>
        </g>
        <g id="emoji">
            <path d="M2.897,19.5c0.904,-0.906 2.405,-1.5 4.103,-1.5c1.698,0 3.199,0.594 4.103,1.5l0.897,0l0,2c0,1.932 -2.24,3.5 -5,3.5c-2.76,0 -5,-1.568 -5,-3.5l0,-2l0.897,0Z" style="fill:#956607;"/>
            <path d="M15.897,24.5c0.904,-0.906 2.405,-1.5 4.103,-1.5c1.698,0 3.199,0.594 4.103,1.5l0.897,0l0,2c0,1.932 -2.24,3.5 -5,3.5c-2.76,0 -5,-1.568 -5,-3.5l0,-2l0.897,0Z" style="fill:#956607;"/>
            <path d="M17,10.5l0,2l-5,-2.5l-2,-4l5,2l2,2.5Z" style="fill:#956607;"/>
            <path d="M30,15.5l0,2l-5,-2.5l-2,-4l5,2l2,2.5Z" style="fill:#956607;"/>
            <path d="M9,16.292l0,-14.292l8,4l0,4.5l-5,-2.5l0,11.5c0,1.932 -2.24,3.5 -5,3.5c-2.76,0 -5,-1.568 -5,-3.5c0,-1.932 2.24,-3.5 5,-3.5c0.711,0 1.387,0.104 2,0.292Z" style="fill:#ef9b00;"/>
            <path d="M22,21.292l0,-14.292l8,4l0,4.5l-5,-2.5l0,11.5c0,1.932 -2.24,3.5 -5,3.5c-2.76,0 -5,-1.568 -5,-3.5c0,-1.932 2.24,-3.5 5,-3.5c0.711,0 1.387,0.104 2,0.292Z" style="fill:#ef9b00;"/>
        </g>
    </g>
</svg>
