<?xml version="1.0" encoding="UTF-8" standalone="no"?>
<!DOCTYPE svg PUBLIC "-//W3C//DTD SVG 1.1//EN" "http://www.w3.org/Graphics/SVG/1.1/DTD/svg11.dtd">
<svg width="100%" height="100%" viewBox="0 0 32 32" version="1.1" xmlns="http://www.w3.org/2000/svg" xmlns:xlink="http://www.w3.org/1999/xlink" xml:space="preserve" xmlns:serif="http://www.serif.com/" style="fill-rule:evenodd;clip-rule:evenodd;stroke-linejoin:round;stroke-miterlimit:1.41421;">
    <path id="tick" d="M0,0l0,32l32,0l0,-32l-32,0Z" style="fill:none;"/>
    <g id="outline">
        <path d="M28.768,10.768l-16.768,16.768l-8.768,-8.768l0,-2l3.536,-3.536l5.232,5.232l13.232,-13.232l3.536,3.536l0,2Z" style="fill:none;fill-rule:nonzero;stroke:#000;stroke-width:4px;"/>
    </g>
    <g id="emoji">
        <path d="M28.768,10.768l-16.768,16.768l-8.768,-8.768l0,-2l3.536,-1.536l5.232,5.232l13.232,-13.232l3.536,1.536l0,2Z" style="fill:#747474;fill-rule:nonzero;"/>
        <path d="M28.768,8.768l-16.768,16.768l-8.768,-8.768l3.536,-3.536l5.232,5.232l13.232,-13.232l3.536,3.536Z" style="fill:#fff;fill-rule:nonzero;"/>
    </g>
</svg>
