<?xml version="1.0" encoding="UTF-8" standalone="no"?>
<!DOCTYPE svg PUBLIC "-//W3C//DTD SVG 1.1//EN" "http://www.w3.org/Graphics/SVG/1.1/DTD/svg11.dtd">
<svg width="100%" height="100%" viewBox="0 0 32 32" version="1.1" xmlns="http://www.w3.org/2000/svg" xmlns:xlink="http://www.w3.org/1999/xlink" xml:space="preserve" xmlns:serif="http://www.serif.com/" style="fill-rule:evenodd;clip-rule:evenodd;stroke-linejoin:round;stroke-miterlimit:1.41421;">
    <path id="tilde" d="M0,0l0,32l32,0l0,-32l-32,0Z" style="fill:none;"/>
    <g id="outline">
        <path id="path3" d="M10.463,11.777c-2.624,0 -5.134,1.098 -6.914,3.028c-0.208,0.225 -1.385,1.5 -1.385,1.5l0,2l3.672,3.39c0,0 0.578,-0.624 1.387,-1.5c0,0 0.001,-0.001 0.002,-0.002c0.833,-0.904 2.006,-1.416 3.238,-1.416c1.23,0 2.399,0.512 3.234,1.414c0.002,0.002 0.003,0.003 0.004,0.004c0,0.001 0,0.002 0,0.002c0.003,0.004 0.009,0.005 0.012,0.008c1.78,1.922 4.283,3.018 6.902,3.018c2.623,0 5.132,-1.097 6.912,-3.026l0.002,-0.002c1.284,-1.39 2.307,-2.5 2.307,-2.5l0,-2l-3.672,-3.39c0,0 -1.025,1.108 -2.31,2.5c0,0 0,0.001 0,0.002c-0.834,0.903 -2.007,1.416 -3.239,1.416c-1.232,0 -2.403,-0.513 -3.238,-1.418c-0.001,-0.001 -0.001,-0.002 -0.002,-0.002c-0.002,-0.002 -0.004,-0.002 -0.006,-0.004c-0.001,-0.001 -0.001,-0.002 -0.002,-0.002c-1.78,-1.925 -4.284,-3.02 -6.904,-3.02l0,0Z" style="fill:none;fill-rule:nonzero;stroke:#000;stroke-width:4px;"/>
    </g>
    <g id="emoji">
        <path id="path31" serif:id="path3" d="M10.463,13.777c-2.624,0 -5.134,1.098 -6.914,3.028c-0.208,0.225 -1.385,-0.5 -1.385,-0.5l0,2l3.672,3.39c0,0 0.578,-0.624 1.387,-1.5c0,0 0.001,-0.001 0.002,-0.002c0.833,-0.904 2.006,-1.416 3.238,-1.416c1.23,0 2.399,0.512 3.234,1.414c0.002,0.002 0.003,0.003 0.004,0.004c0,0.001 0,0.002 0,0.002c0.003,0.004 0.009,0.005 0.012,0.008c1.78,1.922 4.283,3.018 6.902,3.018c2.623,0 5.132,-1.097 6.912,-3.026l0.002,-0.002c1.284,-1.39 2.307,-2.5 2.307,-2.5l0,-2l-3.672,-1.39c0,0 -1.025,1.108 -2.31,2.5c0,0 0,0.001 0,0.002c-0.834,0.903 -2.007,1.416 -3.239,1.416c-1.232,0 -2.403,-0.513 -3.238,-1.418c-0.001,-0.001 -0.001,-0.002 -0.002,-0.002c-0.002,-0.002 -0.004,-0.002 -0.006,-0.004c-0.001,-0.001 -0.001,-0.002 -0.002,-0.002c-1.78,-1.925 -4.284,-3.02 -6.904,-3.02l0,0Z" style="fill:#747474;fill-rule:nonzero;"/>
        <path id="path32" serif:id="path3" d="M10.463,11.777c-2.624,0 -5.134,1.098 -6.914,3.028c-0.808,0.875 -1.385,1.5 -1.385,1.5l3.672,3.39c0,0 0.578,-0.624 1.387,-1.5c0,0 0.001,-0.001 0.002,-0.002c0.833,-0.904 2.006,-1.416 3.238,-1.416c1.23,0 2.399,0.512 3.234,1.414c0.002,0.002 0.003,0.003 0.004,0.004c0,0.001 0,0.002 0,0.002c0.003,0.004 0.009,0.005 0.012,0.008c1.78,1.922 4.283,3.018 6.902,3.018c2.623,0 5.132,-1.097 6.912,-3.026l0.002,-0.002c1.284,-1.39 2.307,-2.5 2.307,-2.5l-3.672,-3.39c0,0 -1.025,1.108 -2.31,2.5c0,0 0,0.001 0,0.002c-0.834,0.903 -2.007,1.416 -3.239,1.416c-1.232,0 -2.403,-0.513 -3.238,-1.418c-0.001,-0.001 -0.001,-0.002 -0.002,-0.002c-0.002,-0.002 -0.004,-0.002 -0.006,-0.004c-0.001,-0.001 -0.001,-0.002 -0.002,-0.002c-1.78,-1.925 -4.284,-3.02 -6.904,-3.02l0,0Z" style="fill:#fff;fill-rule:nonzero;"/>
    </g>
</svg>
