<?xml version="1.0" encoding="UTF-8" standalone="no"?>
<!DOCTYPE svg PUBLIC "-//W3C//DTD SVG 1.1//EN" "http://www.w3.org/Graphics/SVG/1.1/DTD/svg11.dtd">
<svg width="100%" height="100%" viewBox="0 0 32 32" version="1.1" xmlns="http://www.w3.org/2000/svg" xmlns:xlink="http://www.w3.org/1999/xlink" xml:space="preserve" xmlns:serif="http://www.serif.com/" style="fill-rule:evenodd;clip-rule:evenodd;stroke-linejoin:round;stroke-miterlimit:1.41421;">
    <path id="wavy_dash" d="M0,0l0,32l32,0l0,-32l-32,0Z" style="fill:none;"/>
    <g id="outline">
        <path id="path3" d="M16,12.576c-1.485,0 -2.906,0.622 -3.914,1.713c0,0.001 0,0.001 0,0.002c-0.528,0.573 -1.086,1.177 -1.611,1.746c-0.001,0.001 -0.002,0.001 -0.002,0.002c-0.251,0.272 -0.594,0.423 -0.961,0.426c-0.002,0 -0.003,0 -0.004,0c-0.367,0.003 -0.716,-0.145 -0.969,-0.41c-1.483,-1.557 -3.092,-3.242 -3.092,-3.242l-2.894,2.759l0,2c0,0 1.609,1.687 3.092,3.242c1.014,1.065 2.427,1.664 3.898,1.651c1.47,-0.012 2.872,-0.633 3.869,-1.713c0.528,-0.571 1.087,-1.177 1.615,-1.75c0.253,-0.272 0.603,-0.426 0.973,-0.426c0.371,0 0.722,0.155 0.975,0.428c0.528,0.573 1.085,1.177 1.613,1.748c0.997,1.08 2.4,1.702 3.871,1.713c1.471,0.012 2.882,-0.587 3.896,-1.651c1.483,-1.555 3.092,-3.242 3.092,-3.242l0,-2l-2.894,-2.759c0,0 -1.609,1.685 -3.092,3.242c-0.253,0.265 -0.602,0.413 -0.969,0.41c-0.001,0 -0.002,0 -0.004,0c-0.367,-0.003 -0.71,-0.154 -0.961,-0.426c0,-0.001 -0.001,-0.001 -0.002,-0.002c-0.525,-0.569 -1.083,-1.174 -1.611,-1.746c0,-0.001 0,-0.001 0,-0.002c-1.008,-1.091 -2.429,-1.713 -3.914,-1.713Z" style="fill:none;fill-rule:nonzero;stroke:#000;stroke-width:4px;"/>
    </g>
    <g id="emoji">
        <path id="path31" serif:id="path3" d="M16,14.576c-1.485,0 -6.121,3.886 -6.488,3.889c-0.002,0 -0.003,0 -0.004,0c-0.367,0.003 -4.061,-3.652 -4.061,-3.652l-2.894,0.759l0,2c0,0 1.609,1.687 3.092,3.242c1.014,1.065 2.427,1.664 3.898,1.651c1.47,-0.012 2.872,-0.633 3.869,-1.713c0.528,-0.571 1.087,-1.177 1.615,-1.75c0.253,-0.272 0.603,-0.426 0.973,-0.426c0.371,0 0.722,0.155 0.975,0.428c0.528,0.573 1.085,1.177 1.613,1.748c0.997,1.08 2.4,1.702 3.871,1.713c1.471,0.012 2.882,-0.587 3.896,-1.651c1.483,-1.555 3.092,-3.242 3.092,-3.242l0,-2l-2.894,-0.759c0,0 -3.694,3.655 -4.061,3.652c-0.001,0 -0.002,0 -0.004,0c-0.367,-0.003 -5.003,-3.889 -6.488,-3.889Z" style="fill:#747474;fill-rule:nonzero;"/>
        <path id="path32" serif:id="path3" d="M16,12.576c-1.485,0 -2.906,0.622 -3.914,1.713c0,0.001 0,0.001 0,0.002c-0.528,0.573 -1.086,1.177 -1.611,1.746c-0.001,0.001 -0.002,0.001 -0.002,0.002c-0.251,0.272 -0.594,0.423 -0.961,0.426c-0.002,0 -0.003,0 -0.004,0c-0.367,0.003 -0.716,-0.145 -0.969,-0.41c-1.483,-1.557 -3.092,-3.242 -3.092,-3.242l-2.894,2.759c0,0 1.609,1.687 3.092,3.242c1.014,1.065 2.427,1.664 3.898,1.651c1.47,-0.012 2.872,-0.633 3.869,-1.713c0.528,-0.571 1.087,-1.177 1.615,-1.75c0.253,-0.272 0.603,-0.426 0.973,-0.426c0.371,0 0.722,0.155 0.975,0.428c0.528,0.573 1.085,1.177 1.613,1.748c0.997,1.08 2.4,1.702 3.871,1.713c1.471,0.012 2.882,-0.587 3.896,-1.651c1.483,-1.555 3.092,-3.242 3.092,-3.242l-2.894,-2.759c0,0 -1.609,1.685 -3.092,3.242c-0.253,0.265 -0.602,0.413 -0.969,0.41c-0.001,0 -0.002,0 -0.004,0c-0.367,-0.003 -0.71,-0.154 -0.961,-0.426c0,-0.001 -0.001,-0.001 -0.002,-0.002c-0.525,-0.569 -1.083,-1.174 -1.611,-1.746c0,-0.001 0,-0.001 0,-0.002c-1.008,-1.091 -2.429,-1.713 -3.914,-1.713Z" style="fill:#fff;fill-rule:nonzero;"/>
    </g>
</svg>
