<?xml version="1.0" encoding="UTF-8" standalone="no"?><!DOCTYPE svg PUBLIC "-//W3C//DTD SVG 1.1//EN" "http://www.w3.org/Graphics/SVG/1.1/DTD/svg11.dtd"><svg width="100%" height="100%" viewBox="0 0 32 32" version="1.1" xmlns="http://www.w3.org/2000/svg" xmlns:xlink="http://www.w3.org/1999/xlink" xml:space="preserve" xmlns:serif="http://www.serif.com/" style="fill-rule:evenodd;clip-rule:evenodd;stroke-linecap:round;stroke-miterlimit:1.5;"><rect id="_2_busts_in_silhouette" serif:id="2_busts_in_silhouette" x="0" y="0" width="32" height="32" style="fill:none;"/><clipPath id="_clip1"><rect x="0" y="0" width="32" height="32"/></clipPath><g clip-path="url(#_clip1)"><g id="outline"><rect x="10" y="15" width="12" height="9"/><path d="M2,30c0,0 0,-1.348 0,-3c0,-1.591 0.632,-3.117 1.757,-4.243c1.126,-1.125 2.652,-1.757 4.243,-1.757c0.988,0 2.012,0 3,0c1.591,0 3.117,0.632 4.243,1.757c0.284,0.285 0.538,0.596 0.757,0.926c0.219,-0.33 0.473,-0.641 0.757,-0.926c1.126,-1.125 2.652,-1.757 4.243,-1.757c0.988,0 2.012,0 3,0c1.591,0 3.117,0.632 4.243,1.757c1.125,1.126 1.757,2.652 1.757,4.243c0,1.652 0,3 0,3l-28,0Zm12,-15.502c0,-1.193 -0.474,-2.337 -1.317,-3.181c-0.844,-0.843 -1.988,-1.317 -3.181,-1.317c-0.001,0 -0.003,0 -0.004,0c-1.193,0 -2.337,0.474 -3.181,1.317c-0.843,0.844 -1.317,1.988 -1.317,3.181c0,0.334 0,0.67 0,1.004c0,1.193 0.474,2.337 1.317,3.181c0.844,0.843 1.988,1.317 3.181,1.317c0.001,0 0.003,0 0.004,0c1.193,0 2.337,-0.474 3.181,-1.317c0.843,-0.844 1.317,-1.988 1.317,-3.181c0,-0.334 0,-0.67 0,-1.004Zm13,0c0,-1.193 -0.474,-2.337 -1.317,-3.181c-0.844,-0.843 -1.988,-1.317 -3.181,-1.317c-0.001,0 -0.003,0 -0.004,0c-1.193,0 -2.337,0.474 -3.181,1.317c-0.843,0.844 -1.317,1.988 -1.317,3.181c0,0.334 0,0.67 0,1.004c0,1.193 0.474,2.337 1.317,3.181c0.844,0.843 1.988,1.317 3.181,1.317c0.001,0 0.003,0 0.004,0c1.193,0 2.337,-0.474 3.181,-1.317c0.843,-0.844 1.317,-1.988 1.317,-3.181c0,-0.334 0,-0.67 0,-1.004Z" style="fill:none;stroke:#000;stroke-width:4px;"/></g><g id="emoji"><path d="M2,30c0,0 0,-1.348 0,-3c0,-1.591 0.632,-3.117 1.757,-4.243c1.126,-1.125 2.652,-1.757 4.243,-1.757c0.988,0 2.012,0 3,0c1.591,0 3.117,0.632 4.243,1.757c0.284,0.285 0.538,0.596 0.757,0.926c0.219,-0.33 0.473,-0.641 0.757,-0.926c1.126,-1.125 2.652,-1.757 4.243,-1.757c0.988,0 2.012,0 3,0c1.591,0 3.117,0.632 4.243,1.757c1.125,1.126 1.757,2.652 1.757,4.243c0,1.652 0,3 0,3l-28,0Zm12,-15.502c0,-1.193 -0.474,-2.337 -1.317,-3.181c-0.844,-0.843 -1.988,-1.317 -3.181,-1.317c-0.001,0 -0.003,0 -0.004,0c-1.193,0 -2.337,0.474 -3.181,1.317c-0.843,0.844 -1.317,1.988 -1.317,3.181c0,0.334 0,0.67 0,1.004c0,1.193 0.474,2.337 1.317,3.181c0.844,0.843 1.988,1.317 3.181,1.317c0.001,0 0.003,0 0.004,0c1.193,0 2.337,-0.474 3.181,-1.317c0.843,-0.844 1.317,-1.988 1.317,-3.181c0,-0.334 0,-0.67 0,-1.004Zm13,0c0,-1.193 -0.474,-2.337 -1.317,-3.181c-0.844,-0.843 -1.988,-1.317 -3.181,-1.317c-0.001,0 -0.003,0 -0.004,0c-1.193,0 -2.337,0.474 -3.181,1.317c-0.843,0.844 -1.317,1.988 -1.317,3.181c0,0.334 0,0.67 0,1.004c0,1.193 0.474,2.337 1.317,3.181c0.844,0.843 1.988,1.317 3.181,1.317c0.001,0 0.003,0 0.004,0c1.193,0 2.337,-0.474 3.181,-1.317c0.843,-0.844 1.317,-1.988 1.317,-3.181c0,-0.334 0,-0.67 0,-1.004Z" style="fill:#666;"/></g></g></svg>