<?xml version="1.0" encoding="UTF-8" standalone="no"?><!DOCTYPE svg PUBLIC "-//W3C//DTD SVG 1.1//EN" "http://www.w3.org/Graphics/SVG/1.1/DTD/svg11.dtd"><svg width="100%" height="100%" viewBox="0 0 32 32" version="1.1" xmlns="http://www.w3.org/2000/svg" xmlns:xlink="http://www.w3.org/1999/xlink" xml:space="preserve" xmlns:serif="http://www.serif.com/" style="fill-rule:evenodd;clip-rule:evenodd;stroke-linejoin:round;stroke-miterlimit:1.41421;"><rect id="paws" x="0" y="0" width="32" height="32" style="fill:none;"/><clipPath id="_clip1"><rect x="0" y="0" width="32" height="32"/></clipPath><g clip-path="url(#_clip1)"><g id="outline"><path d="M7.615,0.002l0.114,0.005l0.114,0.009l0.113,0.013l0.113,0.016l0.111,0.019l0.11,0.023l0.109,0.026l0.107,0.029l0.106,0.033l0.105,0.035l0.103,0.038l0.101,0.041l0.099,0.044l0.098,0.047l0.096,0.049l0.093,0.051l0.092,0.054l0.09,0.055l0.088,0.058l0.086,0.06l0.084,0.062l0.082,0.064l0.08,0.066l0.077,0.068l0.014,0.012l0.014,-0.012l0.077,-0.068l0.08,-0.066l0.082,-0.064l0.084,-0.062l0.086,-0.06l0.088,-0.058l0.09,-0.055l0.092,-0.054l0.094,-0.051l0.095,-0.049l0.098,-0.047l0.099,-0.044l0.101,-0.041l0.103,-0.038l0.105,-0.035l0.106,-0.033l0.107,-0.029l0.109,-0.026l0.11,-0.023l0.111,-0.019l0.113,-0.016l0.113,-0.013l0.114,-0.009l0.114,-0.005l0.115,-0.002l0.115,0.002l0.114,0.005l0.114,0.009l0.113,0.013l0.113,0.016l0.111,0.019l0.11,0.023l0.109,0.026l0.107,0.029l0.106,0.033l0.105,0.035l0.103,0.038l0.101,0.041l0.099,0.044l0.098,0.047l0.096,0.049l0.093,0.051l0.092,0.054l0.09,0.055l0.088,0.058l0.086,0.06l0.084,0.062l0.082,0.064l0.08,0.066l0.077,0.068l0.076,0.069l0.074,0.071l0.072,0.072l0.07,0.074l0.068,0.075l0.066,0.077l0.064,0.078l0.062,0.079l0.06,0.081l0.058,0.082l0.056,0.083l0.054,0.084l0.053,0.085l0.05,0.087l0.049,0.087l0.046,0.089l0.045,0.089l0.043,0.091l0.041,0.091l0.039,0.093l0.037,0.093l0.035,0.094l0.033,0.095l0.031,0.095l0.03,0.097l0.027,0.097l0.026,0.098l0.023,0.099l0.022,0.1l0.02,0.1l0.017,0.101l0.016,0.101l0.013,0.103l0.012,0.102l0.009,0.103l0.008,0.104l0.005,0.104l0.003,0.105l0.001,0.105l-0.001,0.105l-0.003,0.105l-0.005,0.104l-0.008,0.104l-0.009,0.103l-0.001,0.01l0.096,0.014l0.111,0.019l0.11,0.023l0.109,0.026l0.107,0.029l0.106,0.033l0.105,0.035l0.103,0.038l0.101,0.041l0.099,0.044l0.098,0.047l0.095,0.049l0.094,0.051l0.092,0.053l0.09,0.056l0.088,0.058l0.086,0.06l0.084,0.062l0.082,0.064l0.08,0.066l0.077,0.068l0.076,0.069l0.074,0.071l0.072,0.072l0.07,0.074l0.068,0.075l0.066,0.077l0.064,0.078l0.062,0.079l0.06,0.081l0.058,0.082l0.056,0.083l0.054,0.084l0.053,0.086l0.05,0.086l0.049,0.087l0.046,0.089l0.045,0.089l0.043,0.091l0.041,0.091l0.039,0.093l0.037,0.093l0.035,0.094l0.033,0.095l0.032,0.096l0.029,0.096l0.027,0.097l0.026,0.099l0.023,0.098l0.022,0.1l0.019,0.1l0.018,0.101l0.016,0.101l0.013,0.103l0.012,0.102l0.009,0.103l0.008,0.104l0.005,0.104l0.003,0.105l0.001,0.105l-0.001,0.105l-0.003,0.105l-0.005,0.104l-0.008,0.104l-0.009,0.103l-0.012,0.102l-0.013,0.103l-0.016,0.101l-0.018,0.101l-0.019,0.1l-0.022,0.1l-0.023,0.098l-0.026,0.099l-0.027,0.097l-0.029,0.096l-0.032,0.096l-0.033,0.095l-0.035,0.094l-0.037,0.093l-0.039,0.093l-0.041,0.091l-0.043,0.091l-0.045,0.089l-0.046,0.089l-0.049,0.087l-0.05,0.086l-0.053,0.086l-0.054,0.084l-0.056,0.083l-0.058,0.082l-0.06,0.081l-0.062,0.079l-0.064,0.078l-0.066,0.077l-0.068,0.075l-0.07,0.074l-0.072,0.072l-0.074,0.071l-0.076,0.069l-0.077,0.068l-0.08,0.066l-0.065,0.05l0.019,-0.007l0.105,-0.035l0.106,-0.033l0.107,-0.029l0.109,-0.026l0.11,-0.023l0.111,-0.019l0.113,-0.016l0.113,-0.013l0.114,-0.009l0.114,-0.005l0.115,-0.002l0.115,0.002l0.114,0.005l0.114,0.009l0.113,0.013l0.113,0.016l0.111,0.019l0.11,0.023l0.109,0.026l0.107,0.029l0.106,0.033l0.105,0.035l0.103,0.038l0.101,0.041l0.099,0.044l0.098,0.047l0.095,0.049l0.094,0.051l0.092,0.054l0.09,0.055l0.088,0.058l0.086,0.06l0.084,0.063l0.082,0.063l0.08,0.066l0.077,0.068l0.014,0.012l0.014,-0.012l0.077,-0.068l0.08,-0.066l0.082,-0.064l0.084,-0.062l0.086,-0.06l0.088,-0.058l0.09,-0.055l0.092,-0.054l0.094,-0.051l0.095,-0.049l0.098,-0.047l0.099,-0.044l0.101,-0.041l0.103,-0.038l0.105,-0.035l0.106,-0.033l0.107,-0.029l0.109,-0.026l0.11,-0.023l0.111,-0.019l0.113,-0.016l0.113,-0.013l0.114,-0.009l0.114,-0.005l0.115,-0.002l0.115,0.002l0.114,0.005l0.114,0.009l0.113,0.013l0.113,0.016l0.111,0.019l0.11,0.023l0.109,0.026l0.107,0.029l0.106,0.033l0.105,0.035l0.103,0.038l0.101,0.041l0.099,0.044l0.098,0.047l0.096,0.049l0.093,0.051l0.092,0.054l0.09,0.055l0.088,0.058l0.086,0.06l0.084,0.062l0.082,0.064l0.08,0.066l0.077,0.068l0.076,0.069l0.074,0.071l0.072,0.072l0.07,0.074l0.068,0.075l0.066,0.077l0.064,0.078l0.062,0.079l0.06,0.081l0.058,0.082l0.056,0.083l0.054,0.084l0.053,0.085l0.05,0.087l0.049,0.087l0.046,0.089l0.045,0.089l0.043,0.091l0.041,0.091l0.039,0.093l0.037,0.093l0.035,0.094l0.033,0.095l0.031,0.095l0.03,0.097l0.027,0.098l0.026,0.098l0.023,0.098l0.022,0.1l0.02,0.1l0.017,0.101l0.016,0.101l0.013,0.103l0.012,0.102l0.009,0.103l0.008,0.104l0.005,0.104l0.003,0.105l0.001,0.105l-0.001,0.105l-0.003,0.105l-0.005,0.104l-0.008,0.104l-0.009,0.103l-0.001,0.01l0.096,0.014l0.111,0.019l0.11,0.023l0.109,0.026l0.107,0.029l0.106,0.033l0.105,0.035l0.103,0.038l0.101,0.041l0.099,0.044l0.098,0.047l0.095,0.049l0.094,0.051l0.092,0.053l0.09,0.056l0.088,0.058l0.086,0.06l0.084,0.062l0.082,0.064l0.08,0.066l0.077,0.068l0.076,0.069l0.074,0.071l0.072,0.072l0.07,0.074l0.068,0.075l0.066,0.077l0.064,0.078l0.062,0.079l0.06,0.081l0.058,0.082l0.056,0.083l0.054,0.084l0.053,0.086l0.05,0.086l0.049,0.087l0.046,0.089l0.045,0.089l0.043,0.091l0.041,0.091l0.039,0.093l0.037,0.093l0.035,0.094l0.033,0.095l0.032,0.096l0.029,0.096l0.027,0.097l0.026,0.099l0.023,0.098l0.022,0.1l0.02,0.1l0.017,0.101l0.016,0.101l0.013,0.103l0.012,0.102l0.009,0.103l0.008,0.104l0.005,0.104l0.003,0.105l0.001,0.105l-0.001,0.105l-0.003,0.105l-0.005,0.104l-0.008,0.104l-0.009,0.103l-0.012,0.102l-0.013,0.103l-0.016,0.101l-0.017,0.101l-0.02,0.1l-0.022,0.1l-0.023,0.098l-0.026,0.099l-0.027,0.097l-0.029,0.096l-0.032,0.096l-0.033,0.095l-0.035,0.094l-0.037,0.093l-0.039,0.093l-0.041,0.091l-0.043,0.091l-0.045,0.089l-0.046,0.089l-0.049,0.087l-0.05,0.086l-0.053,0.086l-0.054,0.084l-0.056,0.083l-0.058,0.082l-0.06,0.081l-0.062,0.079l-0.064,0.078l-0.066,0.077l-0.068,0.075l-0.07,0.074l-0.072,0.072l-0.074,0.071l-0.076,0.069l-0.077,0.068l-0.08,0.066l-0.082,0.063l-0.084,0.063l-0.086,0.06l-0.088,0.058l-0.09,0.055l-0.092,0.054l-0.062,0.034l0.036,0.1l0.035,0.106l0.031,0.106l0.029,0.108l0.026,0.108l0.023,0.109l0.019,0.11l0.017,0.111l0.014,0.111l0.011,0.112l0.008,0.112l0.005,0.113l0.001,0.099l0,0.173l-0.002,0.108l-0.005,0.122l-0.009,0.121l-0.013,0.121l-0.016,0.12l-0.02,0.12l-0.023,0.118l-0.027,0.118l-0.03,0.116l-0.033,0.115l-0.037,0.114l-0.04,0.113l-0.044,0.112l-0.046,0.11l-0.05,0.108l-0.053,0.108l-0.056,0.105l-0.059,0.104l-0.062,0.102l-0.065,0.1l-0.068,0.099l-0.071,0.097l-0.074,0.094l-0.077,0.093l-0.08,0.09l-0.082,0.088l-0.085,0.086l-0.088,0.083l-0.091,0.081l-0.093,0.079l-0.096,0.075l-0.098,0.074l-0.101,0.07l-0.102,0.067l-0.104,0.063l-0.105,0.061l-0.107,0.057l-0.109,0.053l-0.109,0.051l-0.111,0.047l-0.112,0.043l-0.113,0.041l-0.114,0.037l-0.115,0.033l-0.116,0.03l-0.117,0.027l-0.117,0.023l-0.118,0.02l-0.118,0.016l-0.119,0.013l-0.119,0.009l-0.12,0.006l-0.119,0.002l-0.12,-0.001l-0.12,-0.005l-0.12,-0.008l-0.12,-0.012l-0.12,-0.015l-0.119,-0.019l-0.119,-0.023l-0.119,-0.026l-0.118,-0.03l-0.118,-0.033l-0.102,-0.032l-1.689,-0.563l-0.067,-0.022l-0.058,-0.018l-0.059,-0.016l-0.058,-0.015l-0.059,-0.014l-0.059,-0.012l-0.06,-0.012l-0.059,-0.01l-0.06,-0.009l-0.059,-0.008l-0.06,-0.006l-0.06,-0.006l-0.06,-0.004l-0.06,-0.003l-0.06,-0.002l-0.06,0l-0.06,0l-0.06,0.002l-0.06,0.003l-0.06,0.004l-0.06,0.006l-0.06,0.006l-0.059,0.008l-0.06,0.009l-0.059,0.01l-0.06,0.012l-0.059,0.012l-0.059,0.014l-0.058,0.015l-0.059,0.016l-0.058,0.018l-0.067,0.022l-1.689,0.562l-0.102,0.033l-0.118,0.033l-0.118,0.03l-0.119,0.026l-0.119,0.023l-0.119,0.019l-0.12,0.015l-0.12,0.012l-0.12,0.008l-0.12,0.005l-0.12,0.001l-0.119,-0.002l-0.12,-0.006l-0.119,-0.009l-0.119,-0.013l-0.118,-0.016l-0.118,-0.02l-0.117,-0.023l-0.117,-0.027l-0.116,-0.03l-0.115,-0.033l-0.114,-0.037l-0.113,-0.041l-0.112,-0.043l-0.111,-0.047l-0.109,-0.051l-0.109,-0.053l-0.107,-0.057l-0.105,-0.061l-0.104,-0.063l-0.102,-0.067l-0.101,-0.07l-0.098,-0.074l-0.096,-0.075l-0.093,-0.079l-0.091,-0.081l-0.088,-0.083l-0.085,-0.086l-0.082,-0.088l-0.08,-0.091l-0.077,-0.092l-0.074,-0.094l-0.071,-0.097l-0.068,-0.099l-0.065,-0.1l-0.062,-0.102l-0.059,-0.104l-0.056,-0.105l-0.053,-0.108l-0.05,-0.108l-0.046,-0.11l-0.044,-0.112l-0.04,-0.113l-0.037,-0.114l-0.033,-0.115l-0.03,-0.116l-0.027,-0.118l-0.023,-0.118l-0.02,-0.12l-0.016,-0.12l-0.013,-0.121l-0.009,-0.121l-0.005,-0.122l-0.002,-0.108l0,-0.173l0.001,-0.099l0.005,-0.113l0.008,-0.112l0.011,-0.112l0.014,-0.111l0.017,-0.111l0.019,-0.11l0.023,-0.109l0.026,-0.108l0.029,-0.108l0.031,-0.106l0.035,-0.106l0.036,-0.1l-0.062,-0.034l-0.092,-0.054l-0.09,-0.055l-0.088,-0.058l-0.086,-0.06l-0.084,-0.063l-0.082,-0.063l-0.08,-0.066l-0.077,-0.068l-0.076,-0.069l-0.074,-0.071l-0.072,-0.072l-0.07,-0.074l-0.068,-0.075l-0.066,-0.077l-0.064,-0.078l-0.062,-0.079l-0.06,-0.081l-0.058,-0.082l-0.056,-0.083l-0.054,-0.084l-0.053,-0.086l-0.05,-0.086l-0.049,-0.087l-0.046,-0.089l-0.045,-0.089l-0.043,-0.091l-0.041,-0.091l-0.039,-0.093l-0.037,-0.093l-0.035,-0.094l-0.033,-0.095l-0.032,-0.096l-0.029,-0.096l-0.027,-0.097l-0.026,-0.099l-0.023,-0.098l-0.022,-0.1l-0.02,-0.1l-0.017,-0.101l-0.016,-0.101l-0.013,-0.102l-0.012,-0.103l-0.009,-0.103l-0.008,-0.104l-0.005,-0.104l-0.003,-0.105l-0.001,-0.105l0.001,-0.105l0.003,-0.105l0.005,-0.104l0.008,-0.104l0.009,-0.103l0.012,-0.103l0.013,-0.102l0.016,-0.101l0.017,-0.101l0.02,-0.1l0.022,-0.1l0.023,-0.098l0.026,-0.099l0.027,-0.097l0.029,-0.096l0.032,-0.096l0.033,-0.095l0.035,-0.094l0.037,-0.093l0.039,-0.093l0.041,-0.091l0.043,-0.091l0.045,-0.089l0.046,-0.089l0.049,-0.087l0.05,-0.086l0.053,-0.086l0.054,-0.084l0.056,-0.083l0.058,-0.082l0.06,-0.081l0.062,-0.079l0.064,-0.078l0.066,-0.077l0.068,-0.075l0.07,-0.074l0.028,-0.029l-0.097,-0.015l-0.119,-0.023l-0.119,-0.026l-0.118,-0.03l-0.118,-0.033l-0.102,-0.032l-1.689,-0.563l-0.067,-0.022l-0.058,-0.018l-0.059,-0.016l-0.058,-0.015l-0.059,-0.014l-0.059,-0.012l-0.06,-0.012l-0.059,-0.01l-0.06,-0.009l-0.059,-0.008l-0.06,-0.006l-0.06,-0.006l-0.06,-0.004l-0.06,-0.003l-0.06,-0.002l-0.06,0l-0.06,0l-0.06,0.002l-0.06,0.003l-0.06,0.004l-0.06,0.006l-0.06,0.006l-0.059,0.008l-0.06,0.009l-0.059,0.01l-0.06,0.012l-0.059,0.012l-0.059,0.014l-0.058,0.015l-0.059,0.016l-0.058,0.018l-0.067,0.022l-1.689,0.563l-0.102,0.032l-0.118,0.033l-0.118,0.03l-0.119,0.026l-0.119,0.023l-0.119,0.019l-0.12,0.015l-0.12,0.012l-0.12,0.008l-0.12,0.005l-0.12,0.001l-0.119,-0.002l-0.12,-0.006l-0.119,-0.009l-0.119,-0.013l-0.118,-0.016l-0.118,-0.02l-0.117,-0.023l-0.117,-0.027l-0.116,-0.03l-0.115,-0.033l-0.114,-0.037l-0.113,-0.041l-0.112,-0.043l-0.111,-0.047l-0.109,-0.051l-0.109,-0.053l-0.107,-0.057l-0.105,-0.061l-0.104,-0.063l-0.102,-0.067l-0.101,-0.071l-0.098,-0.073l-0.096,-0.075l-0.093,-0.079l-0.091,-0.081l-0.088,-0.083l-0.085,-0.086l-0.082,-0.088l-0.08,-0.09l-0.077,-0.093l-0.074,-0.094l-0.071,-0.097l-0.068,-0.099l-0.065,-0.1l-0.062,-0.102l-0.059,-0.104l-0.056,-0.105l-0.053,-0.108l-0.05,-0.108l-0.046,-0.11l-0.044,-0.112l-0.04,-0.113l-0.037,-0.114l-0.033,-0.115l-0.03,-0.117l-0.027,-0.117l-0.023,-0.118l-0.02,-0.12l-0.016,-0.12l-0.013,-0.121l-0.009,-0.121l-0.005,-0.122l-0.002,-0.108l0,-0.173l0.001,-0.099l0.005,-0.113l0.008,-0.112l0.011,-0.112l0.014,-0.111l0.017,-0.111l0.019,-0.11l0.023,-0.109l0.026,-0.108l0.029,-0.108l0.031,-0.106l0.035,-0.106l0.036,-0.1l-0.062,-0.034l-0.092,-0.054l-0.09,-0.055l-0.088,-0.058l-0.086,-0.06l-0.084,-0.063l-0.082,-0.063l-0.08,-0.066l-0.077,-0.068l-0.076,-0.069l-0.074,-0.071l-0.072,-0.072l-0.07,-0.074l-0.068,-0.075l-0.066,-0.077l-0.064,-0.078l-0.062,-0.079l-0.06,-0.081l-0.058,-0.082l-0.056,-0.083l-0.054,-0.084l-0.053,-0.086l-0.05,-0.086l-0.049,-0.087l-0.046,-0.089l-0.045,-0.089l-0.043,-0.091l-0.041,-0.091l-0.039,-0.093l-0.037,-0.093l-0.035,-0.094l-0.033,-0.095l-0.032,-0.096l-0.029,-0.096l-0.027,-0.097l-0.026,-0.099l-0.023,-0.098l-0.022,-0.1l-0.02,-0.1l-0.017,-0.101l-0.016,-0.101l-0.013,-0.103l-0.012,-0.102l-0.009,-0.103l-0.008,-0.104l-0.005,-0.104l-0.003,-0.105l-0.001,-0.105l0.001,-0.105l0.003,-0.105l0.005,-0.104l0.008,-0.104l0.009,-0.103l0.012,-0.103l0.013,-0.102l0.016,-0.101l0.017,-0.101l0.02,-0.1l0.022,-0.1l0.023,-0.098l0.026,-0.099l0.027,-0.097l0.029,-0.096l0.032,-0.096l0.033,-0.095l0.035,-0.094l0.037,-0.094l0.039,-0.092l0.041,-0.091l0.043,-0.091l0.045,-0.089l0.046,-0.089l0.049,-0.087l0.05,-0.086l0.053,-0.086l0.054,-0.084l0.056,-0.083l0.058,-0.082l0.06,-0.081l0.062,-0.079l0.064,-0.078l0.066,-0.077l0.068,-0.075l0.07,-0.074l0.072,-0.072l0.074,-0.071l0.076,-0.069l0.077,-0.068l0.08,-0.066l0.082,-0.064l0.084,-0.062l0.086,-0.06l0.088,-0.058l0.09,-0.055l0.092,-0.054l0.094,-0.051l0.095,-0.049l0.098,-0.047l0.099,-0.044l0.101,-0.041l0.103,-0.038l0.105,-0.035l0.106,-0.033l0.107,-0.029l0.109,-0.026l0.11,-0.023l0.111,-0.019l0.096,-0.014l-0.001,-0.01l-0.009,-0.103l-0.008,-0.104l-0.005,-0.104l-0.003,-0.105l-0.001,-0.105l0.001,-0.105l0.003,-0.105l0.005,-0.104l0.008,-0.104l0.009,-0.103l0.012,-0.102l0.013,-0.103l0.016,-0.101l0.017,-0.101l0.02,-0.1l0.022,-0.1l0.023,-0.098l0.026,-0.098l0.027,-0.098l0.03,-0.096l0.031,-0.096l0.033,-0.095l0.035,-0.094l0.037,-0.094l0.039,-0.092l0.041,-0.091l0.043,-0.091l0.045,-0.089l0.046,-0.089l0.049,-0.087l0.05,-0.087l0.053,-0.085l0.054,-0.084l0.056,-0.083l0.058,-0.082l0.06,-0.081l0.062,-0.079l0.064,-0.078l0.066,-0.077l0.068,-0.075l0.07,-0.074l0.072,-0.072l0.074,-0.071l0.076,-0.069l0.077,-0.068l0.08,-0.066l0.082,-0.064l0.084,-0.062l0.086,-0.06l0.088,-0.058l0.09,-0.055l0.092,-0.054l0.093,-0.051l0.096,-0.049l0.098,-0.047l0.099,-0.044l0.101,-0.041l0.103,-0.038l0.105,-0.035l0.106,-0.033l0.107,-0.029l0.109,-0.026l0.11,-0.023l0.111,-0.019l0.113,-0.016l0.113,-0.013l0.114,-0.009l0.114,-0.005l0.115,-0.002l0.115,0.002Zm14.37,22.998l-0.014,0.001l-0.014,0l-0.013,0.001l-0.013,0.002l-0.014,0.001l-0.013,0.002l-0.013,0.002l-0.013,0.002l-0.013,0.003l-0.012,0.003l-0.013,0.003l-0.013,0.003l-0.012,0.003l-0.012,0.004l-0.013,0.004l-0.012,0.005l-0.012,0.004l-0.012,0.005l-0.012,0.005l-0.012,0.005l-0.012,0.006l-0.011,0.005l-0.012,0.006l-0.011,0.007l-0.011,0.006l-0.012,0.007l-0.011,0.006l-0.011,0.008l-0.01,0.007l-0.011,0.007l-0.01,0.008l-0.011,0.008l-0.01,0.008l-0.01,0.009l-0.01,0.008l-0.009,0.009l-0.01,0.009l-0.009,0.009l-0.009,0.009l-0.009,0.01l-0.009,0.009l-0.008,0.01l-0.009,0.01l-0.008,0.01l-0.008,0.01l-0.007,0.011l-0.008,0.01l-0.007,0.011l-0.007,0.011l-0.007,0.011l-0.007,0.011l-0.006,0.011l-0.006,0.012l-0.006,0.012l-0.006,0.011l-0.005,0.012l-0.006,0.012l-0.005,0.013l-0.005,0.012l-0.004,0.013l-0.005,0.013l-0.004,0.013l-0.007,0.023l-0.197,0.689l-0.024,0.081l-0.028,0.089l-0.03,0.089l-0.031,0.088l-0.034,0.088l-0.035,0.087l-0.036,0.086l-0.038,0.085l-0.039,0.085l-0.041,0.083l-0.043,0.083l-0.044,0.082l-0.046,0.081l-0.047,0.081l-0.048,0.079l-0.05,0.078l-0.052,0.078l-0.053,0.077l-0.054,0.075l-0.056,0.075l-0.057,0.073l-0.059,0.073l-0.06,0.071l-0.061,0.07l-0.063,0.07l-0.064,0.068l-0.065,0.067l-0.067,0.065l-0.067,0.065l-0.07,0.063l-0.07,0.062l-0.064,0.055l-1.539,1.283l-0.013,0.01l-0.001,0.001l-0.002,0.002l-0.001,0.002l-0.002,0.001l-0.001,0.002l-0.001,0.001l-0.002,0.002l-0.001,0.001l-0.001,0.002l-0.001,0.002l-0.001,0.002l-0.002,0.002l-0.001,0.001l-0.001,0.002l-0.001,0.002l0,0.002l-0.001,0.002l-0.001,0.002l-0.001,0.002l0,0.002l-0.001,0.002l0,0.002l-0.001,0.002l0,0.002l-0.001,0.002l0,0.002l0,0.002l-0.001,0.003l0,0.002l0,0.002l0,0.016l0,0.115l0,0.02l0.002,0.011l0.003,0.011l0.005,0.011l0.006,0.009l0.007,0.009l0.009,0.007l0.01,0.006l0.011,0.005l0.011,0.003l0.011,0.001l0.002,0l0.003,0l0.002,0l0.002,0l0.003,-0.001l0.002,0l0.002,0l0.002,-0.001l0.002,0l0.003,-0.001l0.002,0l0.016,-0.006l1.68,-0.559l0.125,-0.041l0.136,-0.041l0.136,-0.037l0.137,-0.036l0.138,-0.032l0.137,-0.029l0.139,-0.027l0.138,-0.024l0.139,-0.021l0.14,-0.018l0.139,-0.016l0.14,-0.012l0.14,-0.01l0.14,-0.007l0.14,-0.004l0.14,-0.002l0.14,0.002l0.14,0.004l0.14,0.007l0.14,0.01l0.14,0.012l0.139,0.016l0.14,0.018l0.139,0.021l0.138,0.024l0.139,0.027l0.137,0.029l0.138,0.032l0.137,0.036l0.136,0.037l0.136,0.041l0.125,0.041l1.68,0.559l0.018,0.006l0.011,0.002l0.01,0.001l0.002,0l0.002,0l0.002,-0.001l0.003,0l0.002,0l0.002,0l0.003,-0.001l0.002,0l0.002,-0.001l0.002,-0.001l0.002,0l0.002,-0.001l0.003,-0.001l0.002,-0.001l0.002,-0.001l0.002,-0.001l0.002,-0.001l0.002,-0.001l0.001,-0.001l0.003,-0.001l0.002,-0.002l0.001,-0.001l0.002,-0.002l0.002,-0.001l0.002,-0.002l0.002,-0.001l0.001,-0.002l0.002,-0.002l0.001,-0.001l0.002,-0.002l0.001,-0.002l0.001,-0.002l0.002,-0.001l0.001,-0.002l0.001,-0.002l0.001,-0.002l0.001,-0.002l0.001,-0.002l0.001,-0.003l0.001,-0.002l0.001,-0.002l0.001,-0.002l0,-0.002l0.001,-0.002l0.001,-0.002l0,-0.003l0.001,-0.002l0,-0.002l0,-0.002l0,-0.002l0.001,-0.003l0,-0.002l0,-0.018l0,-0.115l0,-0.016l0,-0.002l0,-0.002l-0.001,-0.003l0,-0.002l0,-0.002l-0.001,-0.002l0,-0.002l-0.001,-0.002l0,-0.002l-0.001,-0.002l0,-0.002l-0.001,-0.002l-0.001,-0.002l-0.001,-0.002l-0.001,-0.002l0,-0.002l-0.001,-0.002l-0.001,-0.001l-0.001,-0.002l-0.002,-0.002l-0.001,-0.002l-0.001,-0.002l-0.001,-0.001l-0.002,-0.002l-0.001,-0.001l-0.001,-0.002l-0.002,-0.001l-0.001,-0.002l-0.002,-0.002l-0.001,-0.001l-0.013,-0.01l-1.539,-1.283l-0.064,-0.055l-0.07,-0.062l-0.069,-0.063l-0.068,-0.065l-0.067,-0.066l-0.065,-0.066l-0.064,-0.068l-0.063,-0.07l-0.061,-0.07l-0.06,-0.072l-0.059,-0.072l-0.057,-0.073l-0.056,-0.075l-0.054,-0.076l-0.053,-0.076l-0.051,-0.078l-0.051,-0.078l-0.048,-0.079l-0.047,-0.081l-0.046,-0.081l-0.044,-0.082l-0.042,-0.083l-0.042,-0.084l-0.039,-0.084l-0.038,-0.085l-0.036,-0.086l-0.035,-0.087l-0.034,-0.088l-0.031,-0.088l-0.03,-0.089l-0.028,-0.089l-0.024,-0.081l-0.197,-0.689l-0.007,-0.023l-0.004,-0.013l-0.005,-0.013l-0.004,-0.013l-0.005,-0.012l-0.005,-0.013l-0.006,-0.012l-0.005,-0.012l-0.006,-0.011l-0.006,-0.012l-0.006,-0.012l-0.006,-0.011l-0.007,-0.011l-0.007,-0.011l-0.007,-0.011l-0.007,-0.011l-0.008,-0.01l-0.007,-0.011l-0.008,-0.01l-0.008,-0.01l-0.009,-0.01l-0.008,-0.01l-0.009,-0.009l-0.009,-0.01l-0.009,-0.009l-0.009,-0.009l-0.01,-0.009l-0.009,-0.009l-0.01,-0.008l-0.01,-0.009l-0.01,-0.008l-0.011,-0.008l-0.01,-0.008l-0.011,-0.007l-0.01,-0.007l-0.011,-0.008l-0.011,-0.006l-0.012,-0.007l-0.011,-0.006l-0.011,-0.007l-0.012,-0.006l-0.011,-0.005l-0.012,-0.006l-0.012,-0.005l-0.012,-0.005l-0.012,-0.005l-0.012,-0.004l-0.012,-0.005l-0.013,-0.004l-0.012,-0.004l-0.012,-0.003l-0.013,-0.003l-0.013,-0.003l-0.012,-0.003l-0.013,-0.003l-0.013,-0.002l-0.013,-0.002l-0.013,-0.002l-0.014,-0.001l-0.013,-0.002l-0.013,-0.001l-0.014,0l-0.014,-0.001l-0.015,0l-0.015,0Zm-11.705,-8.724l0.14,0.007l0.14,0.01l0.14,0.012l0.14,0.016l0.139,0.018l0.139,0.021l0.138,0.024l0.139,0.027l0.137,0.029l0.138,0.032l0.137,0.036l0.136,0.037l0.136,0.041l0.125,0.04l1.679,0.56l0.019,0.006l0.012,0.002l0.009,0.001l0.002,0l0.002,0l0.002,0l0.003,-0.001l0.002,0l0.002,0l0.002,-0.001l0.003,0l0.002,-0.001l0.002,-0.001l0.002,0l0.002,-0.001l0.003,-0.001l0.002,-0.001l0.002,-0.001l0.002,-0.001l0.002,-0.001l0.002,-0.001l0.001,-0.001l0.003,-0.001l0.002,-0.002l0.002,-0.001l0.001,-0.002l0.002,-0.001l0.002,-0.002l0.002,-0.001l0.001,-0.002l0.002,-0.002l0.001,-0.001l0.002,-0.002l0.001,-0.002l0.001,-0.002l0.002,-0.001l0.001,-0.002l0.001,-0.002l0.001,-0.002l0.001,-0.002l0.001,-0.002l0.001,-0.003l0.001,-0.002l0.001,-0.002l0.001,-0.002l0,-0.002l0.001,-0.002l0.001,-0.002l0,-0.003l0.001,-0.002l0,-0.002l0,-0.002l0,-0.002l0.001,-0.003l0,-0.002l0,-0.018l0,-0.115l0,-0.016l0,-0.002l0,-0.002l-0.001,-0.003l0,-0.002l0,-0.002l-0.001,-0.002l0,-0.002l-0.001,-0.002l0,-0.002l-0.001,-0.002l0,-0.002l-0.001,-0.002l-0.001,-0.002l-0.001,-0.002l-0.001,-0.002l0,-0.002l-0.001,-0.002l-0.001,-0.001l-0.002,-0.002l-0.001,-0.002l-0.001,-0.002l-0.001,-0.001l-0.001,-0.002l-0.002,-0.002l-0.001,-0.001l-0.001,-0.002l-0.002,-0.001l-0.001,-0.002l-0.002,-0.001l-0.001,-0.002l-0.013,-0.01l-1.539,-1.283l-0.064,-0.055l-0.07,-0.062l-0.07,-0.063l-0.067,-0.065l-0.067,-0.065l-0.065,-0.067l-0.064,-0.068l-0.063,-0.07l-0.061,-0.07l-0.06,-0.071l-0.059,-0.073l-0.057,-0.073l-0.056,-0.075l-0.054,-0.076l-0.053,-0.076l-0.051,-0.077l-0.051,-0.079l-0.048,-0.079l-0.047,-0.081l-0.046,-0.081l-0.044,-0.082l-0.043,-0.083l-0.041,-0.083l-0.039,-0.085l-0.038,-0.085l-0.036,-0.086l-0.035,-0.087l-0.034,-0.088l-0.031,-0.088l-0.03,-0.089l-0.028,-0.089l-0.024,-0.081l-0.197,-0.689l-0.007,-0.023l-0.004,-0.013l-0.005,-0.013l-0.004,-0.013l-0.005,-0.012l-0.005,-0.013l-0.006,-0.012l-0.005,-0.012l-0.006,-0.011l-0.006,-0.012l-0.006,-0.012l-0.006,-0.011l-0.007,-0.011l-0.007,-0.011l-0.007,-0.011l-0.007,-0.011l-0.008,-0.01l-0.007,-0.011l-0.008,-0.01l-0.008,-0.01l-0.009,-0.01l-0.008,-0.01l-0.009,-0.009l-0.009,-0.01l-0.009,-0.009l-0.009,-0.009l-0.01,-0.009l-0.009,-0.009l-0.01,-0.008l-0.01,-0.009l-0.01,-0.008l-0.011,-0.008l-0.01,-0.008l-0.011,-0.007l-0.01,-0.007l-0.011,-0.008l-0.011,-0.006l-0.011,-0.007l-0.012,-0.006l-0.011,-0.007l-0.012,-0.006l-0.011,-0.005l-0.012,-0.006l-0.012,-0.005l-0.012,-0.005l-0.012,-0.005l-0.012,-0.004l-0.012,-0.005l-0.013,-0.004l-0.012,-0.004l-0.012,-0.003l-0.013,-0.003l-0.013,-0.003l-0.012,-0.003l-0.013,-0.003l-0.013,-0.002l-0.013,-0.002l-0.013,-0.002l-0.014,-0.001l-0.013,-0.002l-0.013,-0.001l-0.014,0l-0.014,-0.001l-0.015,0l-0.015,0l-0.014,0.001l-0.013,0l-0.014,0.001l-0.013,0.002l-0.014,0.001l-0.013,0.002l-0.013,0.002l-0.013,0.002l-0.013,0.003l-0.012,0.003l-0.013,0.003l-0.013,0.003l-0.012,0.003l-0.012,0.004l-0.013,0.004l-0.012,0.005l-0.012,0.004l-0.012,0.005l-0.012,0.005l-0.012,0.005l-0.012,0.006l-0.011,0.005l-0.012,0.006l-0.011,0.007l-0.012,0.006l-0.011,0.007l-0.011,0.006l-0.011,0.008l-0.01,0.007l-0.011,0.007l-0.01,0.008l-0.011,0.008l-0.01,0.008l-0.01,0.009l-0.01,0.008l-0.009,0.009l-0.01,0.009l-0.009,0.009l-0.009,0.009l-0.009,0.01l-0.009,0.009l-0.008,0.01l-0.009,0.01l-0.008,0.01l-0.008,0.01l-0.007,0.011l-0.008,0.01l-0.007,0.011l-0.007,0.011l-0.007,0.011l-0.007,0.011l-0.006,0.011l-0.006,0.012l-0.006,0.011l-0.006,0.012l-0.005,0.012l-0.006,0.012l-0.005,0.013l-0.005,0.012l-0.004,0.013l-0.005,0.013l-0.004,0.013l-0.007,0.023l-0.197,0.689l-0.024,0.081l-0.028,0.089l-0.03,0.089l-0.032,0.088l-0.033,0.088l-0.035,0.087l-0.036,0.086l-0.038,0.085l-0.039,0.085l-0.041,0.083l-0.043,0.083l-0.044,0.082l-0.046,0.081l-0.047,0.081l-0.049,0.079l-0.05,0.078l-0.051,0.078l-0.053,0.076l-0.054,0.076l-0.056,0.075l-0.057,0.073l-0.059,0.073l-0.06,0.071l-0.061,0.07l-0.063,0.07l-0.064,0.068l-0.065,0.067l-0.067,0.065l-0.067,0.065l-0.07,0.063l-0.07,0.062l-0.064,0.055l-1.539,1.283l-0.013,0.01l-0.001,0.002l-0.002,0.001l-0.001,0.001l-0.002,0.002l-0.001,0.002l-0.001,0.001l-0.002,0.002l-0.001,0.002l-0.001,0.001l-0.001,0.002l-0.001,0.002l-0.002,0.002l-0.001,0.002l-0.001,0.001l0,0.002l-0.001,0.002l-0.001,0.002l-0.001,0.002l-0.001,0.002l0,0.002l-0.001,0.002l0,0.002l-0.001,0.002l0,0.002l-0.001,0.002l0,0.002l0,0.002l-0.001,0.003l0,0.002l0,0.002l0,0.016l0,0.115l0,0.02l0.002,0.011l0.003,0.011l0.005,0.011l0.006,0.009l0.007,0.009l0.009,0.007l0.01,0.006l0.011,0.005l0.011,0.003l0.011,0.001l0.002,0l0.003,0l0.002,0l0.002,0l0.002,-0.001l0.003,0l0.002,0l0.002,-0.001l0.002,0l0.003,-0.001l0.002,0l0.017,-0.006l1.679,-0.56l0.125,-0.04l0.136,-0.041l0.136,-0.037l0.137,-0.036l0.138,-0.032l0.137,-0.029l0.139,-0.027l0.138,-0.024l0.139,-0.021l0.139,-0.018l0.14,-0.016l0.14,-0.012l0.14,-0.01l0.14,-0.007l0.14,-0.004l0.14,-0.002l0.14,0.002l0.14,0.004Z"/></g><g id="emoji"><path d="M27.252,26.377c0.474,0.395 0.748,0.98 0.748,1.596c0,0.047 0,0.095 0,0.144c0,0.668 -0.321,1.295 -0.863,1.686c-0.542,0.39 -1.238,0.497 -1.872,0.285c-0.577,-0.192 -1.167,-0.389 -1.684,-0.561c-1.026,-0.342 -2.136,-0.342 -3.162,0c-0.517,0.172 -1.107,0.369 -1.684,0.561c-0.634,0.212 -1.33,0.105 -1.872,-0.285c-0.542,-0.391 -0.863,-1.018 -0.863,-1.686c0,-0.049 0,-0.097 0,-0.144c0,-0.616 0.274,-1.201 0.748,-1.596c0.471,-0.393 1.077,-0.898 1.542,-1.285c0.463,-0.386 0.798,-0.902 0.964,-1.481c0.061,-0.213 0.128,-0.449 0.197,-0.689c0.325,-1.138 1.365,-1.922 2.548,-1.922c0.001,0 0.001,0 0.002,0c1.183,0 2.223,0.784 2.548,1.922c0.069,0.24 0.136,0.476 0.197,0.689c0.166,0.579 0.501,1.095 0.964,1.481c0.465,0.387 1.071,0.892 1.542,1.285Zm0.748,-6.377c1.104,0 2,1.12 2,2.5c0,1.38 -0.896,2.5 -2,2.5c-1.104,0 -2,-1.12 -2,-2.5c0,-1.38 0.896,-2.5 2,-2.5Zm-12,0c-1.104,0 -2,1.12 -2,2.5c0,1.38 0.896,2.5 2,2.5c1.104,0 2,-1.12 2,-2.5c0,-1.38 -0.896,-2.5 -2,-2.5Zm8.5,-5c1.104,0 2,1.12 2,2.5c0,1.38 -0.896,2.5 -2,2.5c-1.104,0 -2,-1.12 -2,-2.5c0,-1.38 0.896,-2.5 2,-2.5Zm-5,0c-1.104,0 -2,1.12 -2,2.5c0,1.38 0.896,2.5 2,2.5c1.104,0 2,-1.12 2,-2.5c0,-1.38 -0.896,-2.5 -2,-2.5Zm-4.248,-1.623c0.474,0.395 0.748,0.98 0.748,1.596c0,0.047 0,0.095 0,0.144c0,0.668 -0.321,1.295 -0.863,1.686c-0.542,0.39 -1.238,0.497 -1.872,0.285c-0.577,-0.192 -1.167,-0.389 -1.684,-0.561c-1.026,-0.342 -2.136,-0.342 -3.162,0c-0.517,0.172 -1.107,0.369 -1.684,0.561c-0.634,0.212 -1.33,0.105 -1.872,-0.285c-0.542,-0.391 -0.863,-1.018 -0.863,-1.686c0,-0.049 0,-0.097 0,-0.144c0,-0.616 0.274,-1.201 0.748,-1.596c0.471,-0.393 1.077,-0.898 1.542,-1.285c0.463,-0.386 0.798,-0.902 0.964,-1.481c0.061,-0.213 0.128,-0.449 0.197,-0.689c0.325,-1.138 1.365,-1.922 2.548,-1.922c0.001,0 0.001,0 0.002,0c1.183,0 2.223,0.784 2.548,1.922c0.069,0.24 0.136,0.476 0.197,0.689c0.166,0.579 0.501,1.095 0.964,1.481c0.465,0.387 1.071,0.892 1.542,1.285Zm-11.252,-6.377c-1.104,0 -2,1.12 -2,2.5c0,1.38 0.896,2.5 2,2.5c1.104,0 2,-1.12 2,-2.5c0,-1.38 -0.896,-2.5 -2,-2.5Zm12,0c1.104,0 2,1.12 2,2.5c0,1.38 -0.896,2.5 -2,2.5c-1.104,0 -2,-1.12 -2,-2.5c0,-1.38 0.896,-2.5 2,-2.5Zm-8.5,-5c-1.104,0 -2,1.12 -2,2.5c0,1.38 0.896,2.5 2,2.5c1.104,0 2,-1.12 2,-2.5c0,-1.38 -0.896,-2.5 -2,-2.5Zm5,0c1.104,0 2,1.12 2,2.5c0,1.38 -0.896,2.5 -2,2.5c-1.104,0 -2,-1.12 -2,-2.5c0,-1.38 0.896,-2.5 2,-2.5Z" style="fill:#666;"/></g></g></svg>