<?xml version="1.0" encoding="UTF-8" standalone="no"?><!DOCTYPE svg PUBLIC "-//W3C//DTD SVG 1.1//EN" "http://www.w3.org/Graphics/SVG/1.1/DTD/svg11.dtd"><svg width="100%" height="100%" viewBox="0 0 32 32" version="1.1" xmlns="http://www.w3.org/2000/svg" xmlns:xlink="http://www.w3.org/1999/xlink" xml:space="preserve" xmlns:serif="http://www.serif.com/" style="fill-rule:evenodd;clip-rule:evenodd;stroke-linecap:square;stroke-miterlimit:1.5;"><rect id="bullet_train" x="0" y="0" width="32" height="32" style="fill:none;"/><clipPath id="_clip1"><rect x="0" y="0" width="32" height="32"/></clipPath><g clip-path="url(#_clip1)"><g id="outline"><path d="M3.392,20.443c-0.841,0.337 -1.392,1.151 -1.392,2.056c0,0 0,0.001 0,0.001c0,1.381 1.119,2.5 2.5,2.5c6.865,0 25.5,0 25.5,0l0,-16c0,0 -1.942,0 -4.193,0c-4.326,0 -8.441,1.867 -11.289,5.122c-0.519,0.593 -1.006,1.15 -1.411,1.613c-0.728,0.831 -1.642,1.479 -2.668,1.889c-1.933,0.774 -5.196,2.079 -7.047,2.819Z" style="fill:none;stroke:#000;stroke-width:4px;"/><rect x="2" y="28" width="28" height="2" style="fill:none;stroke:#000;stroke-width:4px;stroke-linecap:round;"/></g><g id="emoji"><rect x="2" y="28" width="28" height="2" style="fill:#7f7f7f;"/><g><path d="M30,9l0,9l-1,1l1,1l0,5c0,0 -18.635,0 -25.5,0c-1.381,0 -2.5,-1.119 -2.5,-2.5c0,0 0,-0.001 0,-0.001c0,-0.905 0.551,-1.719 1.392,-2.056c1.851,-0.74 5.114,-2.045 7.047,-2.819c0.914,-0.365 1.74,-0.919 2.424,-1.624l5.137,-2l0.323,-3c2.252,-1.296 4.828,-2 7.484,-2l4.193,0Z" style="fill:#e6e6e6;"/><path d="M18.323,11l3.177,0c0.663,0 1.299,0.263 1.768,0.732c0.469,0.469 0.732,1.105 0.732,1.768c0,0.663 -0.263,1.299 -0.732,1.768c-0.469,0.469 -1.105,0.732 -1.768,0.732l-8.637,0c0.083,-0.086 0.165,-0.175 0.244,-0.265c0.405,-0.463 0.892,-1.02 1.411,-1.613c1.1,-1.257 2.388,-2.307 3.805,-3.122Z"/><path d="M30,18l0,2l-18,0c-0.552,0 -1,-0.448 -1,-1c0,-0.552 0.448,-1 1,-1l18,0Z" style="fill:#27acbb;"/><path d="M3.392,20.443c-0.841,0.337 -1.392,1.151 -1.392,2.056c0,0 0,0.001 0,0.001c0,1.381 1.119,2.5 2.5,2.5c6.865,0 25.5,0 25.5,0l0,-16c0,0 -1.942,0 -4.193,0c-4.326,0 -8.441,1.867 -11.289,5.122c-0.519,0.593 -1.006,1.15 -1.411,1.613c-0.728,0.831 -1.642,1.479 -2.668,1.889c-1.933,0.774 -5.196,2.079 -7.047,2.819Z" style="fill:none;"/><clipPath id="_clip2"><path d="M3.392,20.443c-0.841,0.337 -1.392,1.151 -1.392,2.056c0,0 0,0.001 0,0.001c0,1.381 1.119,2.5 2.5,2.5c6.865,0 25.5,0 25.5,0l0,-16c0,0 -1.942,0 -4.193,0c-4.326,0 -8.441,1.867 -11.289,5.122c-0.519,0.593 -1.006,1.15 -1.411,1.613c-0.728,0.831 -1.642,1.479 -2.668,1.889c-1.933,0.774 -5.196,2.079 -7.047,2.819Z"/></clipPath><g clip-path="url(#_clip2)"><path d="M3,17c0,0 1.944,1.944 3.121,3.121c0.563,0.563 0.879,1.326 0.879,2.122c0,0.17 0,0.344 0,0.514c0,0.796 -0.316,1.559 -0.879,2.122c-1.177,1.177 -3.121,3.121 -3.121,3.121" style="fill:none;stroke:#a8a8a8;stroke-width:1px;"/></g><path d="M29,12.5c0,-0.398 -0.158,-0.779 -0.439,-1.061c-0.282,-0.281 -0.663,-0.439 -1.061,-0.439c-0.398,0 -0.779,0.158 -1.061,0.439c-0.281,0.282 -0.439,0.663 -0.439,1.061c0,0.633 0,1.367 0,2c0,0.398 0.158,0.779 0.439,1.061c0.282,0.281 0.663,0.439 1.061,0.439c0.398,0 0.779,-0.158 1.061,-0.439c0.281,-0.282 0.439,-0.663 0.439,-1.061c0,-0.633 0,-1.367 0,-2Z"/></g></g></g></svg>