<?xml version="1.0" encoding="UTF-8" standalone="no"?><!DOCTYPE svg PUBLIC "-//W3C//DTD SVG 1.1//EN" "http://www.w3.org/Graphics/SVG/1.1/DTD/svg11.dtd"><svg width="100%" height="100%" viewBox="0 0 32 32" version="1.1" xmlns="http://www.w3.org/2000/svg" xmlns:xlink="http://www.w3.org/1999/xlink" xml:space="preserve" xmlns:serif="http://www.serif.com/" style="fill-rule:evenodd;clip-rule:evenodd;stroke-linecap:square;stroke-miterlimit:1.5;"><rect id="light_rail" x="0" y="0" width="32" height="32" style="fill:none;"/><clipPath id="_clip1"><rect x="0" y="0" width="32" height="32"/></clipPath><g clip-path="url(#_clip1)"><g id="outline"><path d="M10,8c-4.418,0 -8,3.582 -8,8c0,2.952 0,6.049 0,8c0,0.53 0.211,1.039 0.586,1.414c0.375,0.375 0.884,0.586 1.414,0.586c6.406,0 26,0 26,0l0,-18c0,0 -11.725,0 -20,0Z" style="fill:none;stroke:#000;stroke-width:4px;"/><rect x="2" y="28" width="28" height="2" style="fill:none;stroke:#000;stroke-width:4px;stroke-linecap:round;"/></g><g id="emoji"><rect x="2" y="28" width="28" height="2" style="fill:#7f7f7f;"/><g><path d="M30,23l0,3c0,0 -19.594,0 -26,0c-0.53,0 -1.039,-0.211 -1.414,-0.586c-0.375,-0.375 -0.586,-0.884 -0.586,-1.414l0,-1l1,-1l26,0l1,1Z" style="fill:#b3b3b3;"/><path d="M2,21l1,-1l26,0l1,1l0,2l-28,0l0,-2Zm28,-2l-1,1l-26,0l-1,-1l0,-3c0,-4.418 3.582,-8 8,-8l20,0l0,11Z" style="fill:#e6e6e6;"/><rect x="2" y="19" width="28" height="2" style="fill:#67db40;"/></g><path d="M29,11c0,-0.552 -0.448,-1 -1,-1c-3.014,0 -11.986,0 -15,0c-0.552,0 -1,0.448 -1,1c0,1.732 0,5.268 0,7c0,0.552 0.448,1 1,1c3.014,0 11.986,0 15,0c0.552,0 1,-0.448 1,-1c0,-1.732 0,-5.268 0,-7Z"/><path d="M10,11c0,-0.265 -0.105,-0.52 -0.293,-0.707c-0.187,-0.188 -0.442,-0.293 -0.707,-0.293c0,0 0,0 0,0c-2.761,0 -5,2.239 -5,5c0,1.144 0,2.244 0,3c0,0.265 0.105,0.52 0.293,0.707c0.187,0.188 0.442,0.293 0.707,0.293c1.11,0 2.89,0 4,0c0.265,0 0.52,-0.105 0.707,-0.293c0.188,-0.187 0.293,-0.442 0.293,-0.707c0,-1.732 0,-5.268 0,-7Z"/><path d="M27.052,9.001l0.051,0.002l0.051,0.003l0.05,0.004l0.051,0.006l0.05,0.007l0.049,0.008l0.049,0.01l0.049,0.01l0.048,0.012l0.048,0.013l0.047,0.014l0.046,0.015l0.047,0.016l0.045,0.018l0.045,0.018l0.045,0.02l0.044,0.02l0.043,0.022l0.043,0.022l0.043,0.024l0.041,0.025l0.041,0.025l0.04,0.027l0.04,0.027l0.039,0.028l0.038,0.03l0.037,0.03l0.037,0.031l0.036,0.032l0.035,0.032l0.034,0.034l0.034,0.034l0.032,0.035l0.032,0.036l0.031,0.037l0.03,0.037l0.03,0.038l0.028,0.039l0.027,0.04l0.027,0.04l0.025,0.041l0.025,0.041l0.024,0.043l0.022,0.042l0.022,0.044l0.02,0.044l0.02,0.045l0.018,0.045l0.018,0.045l0.016,0.047l0.015,0.046l0.014,0.047l0.013,0.048l0.012,0.048l0.01,0.049l0.01,0.049l0.008,0.049l0.007,0.05l0.006,0.051l0.004,0.05l0.003,0.051l0.002,0.051l0.001,0.052l0,10l-0.001,0.052l-0.002,0.051l-0.003,0.051l-0.004,0.05l-0.006,0.051l-0.007,0.05l-0.008,0.049l-0.01,0.049l-0.01,0.049l-0.012,0.048l-0.013,0.048l-0.014,0.047l-0.015,0.046l-0.016,0.047l-0.018,0.045l-0.018,0.045l-0.02,0.045l-0.02,0.044l-0.022,0.044l-0.022,0.042l-0.024,0.043l-0.025,0.041l-0.025,0.041l-0.027,0.04l-0.027,0.04l-0.028,0.039l-0.03,0.038l-0.03,0.037l-0.031,0.037l-0.032,0.036l-0.032,0.035l-0.034,0.034l-0.034,0.034l-0.035,0.032l-0.036,0.032l-0.037,0.031l-0.037,0.03l-0.038,0.03l-0.039,0.028l-0.04,0.027l-0.04,0.027l-0.041,0.025l-0.041,0.025l-0.043,0.024l-0.043,0.022l-0.043,0.022l-0.044,0.02l-0.045,0.02l-0.045,0.018l-0.045,0.018l-0.047,0.016l-0.046,0.015l-0.047,0.014l-0.048,0.013l-0.048,0.012l-0.049,0.01l-0.049,0.01l-0.049,0.008l-0.05,0.007l-0.051,0.006l-0.05,0.004l-0.051,0.003l-0.051,0.002l-0.052,0.001l-5,0l-0.052,-0.001l-0.051,-0.002l-0.051,-0.003l-0.05,-0.004l-0.051,-0.006l-0.05,-0.007l-0.049,-0.008l-0.049,-0.01l-0.049,-0.01l-0.048,-0.012l-0.048,-0.013l-0.047,-0.014l-0.046,-0.015l-0.047,-0.016l-0.045,-0.018l-0.045,-0.018l-0.045,-0.02l-0.044,-0.02l-0.043,-0.022l-0.043,-0.022l-0.043,-0.024l-0.041,-0.025l-0.041,-0.025l-0.04,-0.027l-0.04,-0.027l-0.039,-0.028l-0.038,-0.03l-0.037,-0.03l-0.037,-0.031l-0.036,-0.032l-0.035,-0.032l-0.034,-0.034l-0.034,-0.034l-0.032,-0.035l-0.032,-0.036l-0.031,-0.037l-0.03,-0.037l-0.03,-0.038l-0.028,-0.039l-0.027,-0.04l-0.027,-0.04l-0.025,-0.041l-0.025,-0.041l-0.024,-0.043l-0.022,-0.042l-0.022,-0.044l-0.02,-0.044l-0.02,-0.045l-0.018,-0.045l-0.018,-0.045l-0.016,-0.047l-0.015,-0.046l-0.014,-0.047l-0.013,-0.048l-0.012,-0.048l-0.01,-0.049l-0.01,-0.049l-0.008,-0.049l-0.007,-0.05l-0.006,-0.051l-0.004,-0.05l-0.003,-0.051l-0.002,-0.051l-0.001,-0.052l0,-10l0.001,-0.052l0.002,-0.051l0.003,-0.051l0.004,-0.05l0.006,-0.051l0.007,-0.05l0.008,-0.049l0.01,-0.049l0.01,-0.049l0.012,-0.048l0.013,-0.048l0.014,-0.047l0.015,-0.046l0.016,-0.047l0.018,-0.045l0.018,-0.045l0.02,-0.045l0.02,-0.044l0.022,-0.044l0.022,-0.042l0.024,-0.043l0.025,-0.041l0.025,-0.041l0.027,-0.04l0.027,-0.04l0.028,-0.039l0.03,-0.038l0.03,-0.037l0.031,-0.037l0.032,-0.036l0.032,-0.035l0.034,-0.034l0.034,-0.034l0.035,-0.032l0.036,-0.032l0.037,-0.031l0.037,-0.03l0.038,-0.03l0.039,-0.028l0.04,-0.027l0.04,-0.027l0.041,-0.025l0.041,-0.025l0.043,-0.024l0.043,-0.022l0.043,-0.022l0.044,-0.02l0.045,-0.02l0.045,-0.018l0.045,-0.018l0.047,-0.016l0.046,-0.015l0.047,-0.014l0.048,-0.013l0.048,-0.012l0.049,-0.01l0.049,-0.01l0.049,-0.008l0.05,-0.007l0.051,-0.006l0.05,-0.004l0.051,-0.003l0.051,-0.002l0.052,-0.001l5,0l0.052,0.001Zm-5.046,0.999l-0.032,0l-0.026,0.001l-0.026,0.002l-0.025,0.002l-0.026,0.003l-0.025,0.004l-0.024,0.004l-0.025,0.004l-0.024,0.006l-0.024,0.006l-0.023,0.006l-0.024,0.007l-0.023,0.007l-0.023,0.008l-0.023,0.009l-0.022,0.009l-0.022,0.01l-0.022,0.01l-0.022,0.011l-0.021,0.011l-0.021,0.012l-0.021,0.012l-0.02,0.013l-0.02,0.013l-0.02,0.014l-0.02,0.014l-0.019,0.015l-0.019,0.015l-0.018,0.016l-0.018,0.016l-0.018,0.016l-0.017,0.017l-0.017,0.017l-0.016,0.018l-0.016,0.018l-0.016,0.018l-0.015,0.019l-0.015,0.019l-0.014,0.02l-0.014,0.02l-0.013,0.02l-0.013,0.02l-0.012,0.021l-0.012,0.021l-0.011,0.021l-0.011,0.022l-0.01,0.022l-0.01,0.022l-0.009,0.022l-0.009,0.023l-0.008,0.023l-0.007,0.023l-0.007,0.024l-0.006,0.023l-0.006,0.024l-0.006,0.025l-0.004,0.024l-0.004,0.024l-0.004,0.025l-0.003,0.026l-0.002,0.025l-0.002,0.026l-0.001,0.026l0,0.032l0,9.988l0,0.032l0.001,0.026l0.002,0.026l0.002,0.025l0.003,0.026l0.004,0.025l0.004,0.024l0.004,0.024l0.006,0.025l0.006,0.024l0.006,0.023l0.007,0.024l0.007,0.023l0.008,0.023l0.009,0.023l0.009,0.022l0.01,0.022l0.01,0.022l0.011,0.022l0.011,0.021l0.012,0.021l0.012,0.021l0.013,0.02l0.013,0.02l0.014,0.02l0.014,0.02l0.015,0.019l0.015,0.019l0.016,0.018l0.016,0.018l0.016,0.018l0.017,0.017l0.017,0.017l0.018,0.016l0.018,0.016l0.018,0.016l0.019,0.015l0.019,0.015l0.02,0.014l0.02,0.014l0.02,0.013l0.02,0.013l0.021,0.012l0.021,0.012l0.021,0.011l0.022,0.011l0.022,0.01l0.022,0.01l0.022,0.009l0.023,0.009l0.023,0.008l0.023,0.007l0.024,0.007l0.023,0.007l0.024,0.005l0.024,0.006l0.025,0.004l0.024,0.004l0.025,0.004l0.026,0.003l0.025,0.002l0.026,0.002l0.026,0.001l0.032,0l4.988,0l0.032,0l0.026,-0.001l0.026,-0.002l0.025,-0.002l0.026,-0.003l0.025,-0.004l0.024,-0.004l0.025,-0.004l0.024,-0.006l0.024,-0.005l0.023,-0.007l0.024,-0.007l0.023,-0.007l0.023,-0.008l0.023,-0.009l0.022,-0.009l0.022,-0.01l0.022,-0.01l0.022,-0.011l0.021,-0.011l0.021,-0.012l0.021,-0.012l0.02,-0.013l0.02,-0.013l0.02,-0.014l0.02,-0.014l0.019,-0.015l0.019,-0.015l0.018,-0.016l0.018,-0.016l0.018,-0.016l0.017,-0.017l0.017,-0.017l0.016,-0.018l0.016,-0.018l0.016,-0.018l0.015,-0.019l0.015,-0.019l0.014,-0.02l0.014,-0.02l0.013,-0.02l0.013,-0.02l0.012,-0.021l0.012,-0.021l0.011,-0.021l0.011,-0.022l0.01,-0.022l0.01,-0.022l0.009,-0.022l0.009,-0.023l0.008,-0.023l0.007,-0.023l0.007,-0.024l0.007,-0.023l0.005,-0.024l0.006,-0.024l0.004,-0.025l0.004,-0.024l0.004,-0.025l0.003,-0.026l0.002,-0.025l0.002,-0.026l0.001,-0.026l0,-0.032l0,-9.988l0,-0.032l-0.001,-0.026l-0.002,-0.026l-0.002,-0.025l-0.003,-0.026l-0.004,-0.025l-0.004,-0.024l-0.004,-0.025l-0.006,-0.024l-0.005,-0.023l-0.007,-0.024l-0.007,-0.024l-0.007,-0.023l-0.008,-0.023l-0.009,-0.023l-0.009,-0.022l-0.01,-0.022l-0.01,-0.022l-0.011,-0.022l-0.011,-0.021l-0.012,-0.021l-0.012,-0.021l-0.013,-0.02l-0.013,-0.02l-0.014,-0.02l-0.014,-0.02l-0.015,-0.019l-0.015,-0.019l-0.016,-0.018l-0.016,-0.018l-0.016,-0.018l-0.017,-0.017l-0.017,-0.017l-0.018,-0.016l-0.018,-0.016l-0.018,-0.016l-0.019,-0.015l-0.019,-0.015l-0.02,-0.014l-0.02,-0.014l-0.02,-0.013l-0.02,-0.013l-0.021,-0.012l-0.021,-0.012l-0.021,-0.011l-0.022,-0.011l-0.022,-0.01l-0.022,-0.01l-0.022,-0.009l-0.023,-0.009l-0.023,-0.008l-0.023,-0.007l-0.024,-0.007l-0.023,-0.006l-0.024,-0.006l-0.024,-0.006l-0.025,-0.004l-0.024,-0.004l-0.025,-0.004l-0.026,-0.003l-0.025,-0.002l-0.026,-0.002l-0.026,-0.001l-0.032,0l-4.988,0Z" style="fill:#8c8c8c;"/></g></g></svg>