<?xml version="1.0" encoding="UTF-8" standalone="no"?><!DOCTYPE svg PUBLIC "-//W3C//DTD SVG 1.1//EN" "http://www.w3.org/Graphics/SVG/1.1/DTD/svg11.dtd"><svg width="100%" height="100%" viewBox="0 0 32 32" version="1.1" xmlns="http://www.w3.org/2000/svg" xmlns:xlink="http://www.w3.org/1999/xlink" xml:space="preserve" xmlns:serif="http://www.serif.com/" style="fill-rule:evenodd;clip-rule:evenodd;stroke-linecap:round;stroke-linejoin:round;stroke-miterlimit:1.5;"><rect id="metro" x="0" y="0" width="32" height="32" style="fill:none;"/><clipPath id="_clip1"><rect x="0" y="0" width="32" height="32"/></clipPath><g clip-path="url(#_clip1)"><g id="outline"><path d="M7.362,28c-3.266,-2.553 -5.362,-6.533 -5.362,-11c0,-7.727 6.273,-14 14,-14c7.719,0 13.987,6.26 14,14c-0.008,4.473 -2.104,8.451 -5.362,11l-17.276,0Z" style="fill:none;stroke:#000;stroke-width:4px;"/></g><g id="emoji"><g><path d="M7.161,27.839c-3.151,-2.557 -5.161,-6.465 -5.161,-10.839c0,-7.727 6.273,-14 14,-14c7.719,0 13.987,6.26 14,14c-0.008,4.38 -2.018,8.286 -5.161,10.839l-6.839,-2.839l-4,0l-6.839,2.839Z" style="fill:#333;"/><path d="M24.839,27.839c-0.066,0.054 -0.134,0.108 -0.201,0.161l-17.276,0c-0.067,-0.053 -0.135,-0.106 -0.201,-0.161l6.839,-6.839l4,0l6.839,6.839Z" style="fill:#696969;"/></g><rect x="9" y="24" width="2" height="3"/><rect x="21" y="24" width="2" height="3"/><path d="M7.781,25c-0.459,0 -0.859,-0.312 -0.97,-0.757c-0.316,-1.264 -0.958,-3.832 -1.387,-5.545c-0.278,-1.115 -0.278,-2.281 0,-3.396c0.18,-0.716 0.396,-1.582 0.61,-2.44c0.616,-2.464 2.226,-4.562 4.446,-5.795c0.001,-0.001 0.001,-0.001 0.001,-0.001c3.432,-1.907 7.606,-1.907 11.038,0c0,0 0,0 0.001,0.001c2.22,1.233 3.83,3.331 4.446,5.795c0.214,0.858 0.43,1.724 0.61,2.44c0.278,1.115 0.278,2.281 0,3.396c-0.429,1.713 -1.071,4.281 -1.387,5.545c-0.111,0.445 -0.511,0.757 -0.97,0.757c-2.961,0 -13.477,0 -16.438,0Z" style="fill:#f11717;"/><g><path d="M23.168,11c0.211,0.351 0.385,0.725 0.518,1.118l0.865,2.555l-0.551,2.327l-3,4l-1.333,1l-7.334,0l-1.333,-1l-3,-4l-0.551,-2.327l0.973,-2.874c0.094,-0.279 0.213,-0.546 0.354,-0.799l1.224,-1l12,0l1.168,1Z"/><path d="M7.449,14.673l4.884,7.327l-2.044,0c-0.396,0 -0.756,-0.235 -0.915,-0.598c-0.489,-1.113 -1.537,-3.498 -2.062,-4.691c-0.201,-0.458 -0.223,-0.973 -0.063,-1.446l0.2,-0.592Zm17.102,0l0.2,0.592c0.16,0.473 0.138,0.988 -0.063,1.446c-0.525,1.193 -1.573,3.578 -2.062,4.691c-0.159,0.363 -0.519,0.598 -0.915,0.598l-2.044,0l4.884,-7.327Z" style="fill:#fff;"/><path d="M8.776,11c0.417,-0.75 1.03,-1.38 1.78,-1.819c0.095,-0.055 0.193,-0.112 0.292,-0.17c3.183,-1.86 7.121,-1.86 10.304,0c0,0 0,0 0,0c0.834,0.487 1.524,1.173 2.016,1.989l-14.392,0Z" style="fill:#3f3f3f;"/><g><rect x="12" y="9" width="6" height="1" style="fill:#e9a620;"/><rect x="19" y="9" width="1" height="1" style="fill:#e9a620;"/></g></g></g></g></svg>