<?xml version="1.0" encoding="UTF-8" standalone="no"?><!DOCTYPE svg PUBLIC "-//W3C//DTD SVG 1.1//EN" "http://www.w3.org/Graphics/SVG/1.1/DTD/svg11.dtd"><svg width="100%" height="100%" viewBox="0 0 32 32" version="1.1" xmlns="http://www.w3.org/2000/svg" xmlns:xlink="http://www.w3.org/1999/xlink" xml:space="preserve" xmlns:serif="http://www.serif.com/" style="fill-rule:evenodd;clip-rule:evenodd;stroke-linecap:round;stroke-miterlimit:1.5;"><rect id="railway_car" x="0" y="0" width="32" height="32" style="fill:none;"/><clipPath id="_clip1"><rect x="0" y="0" width="32" height="32"/></clipPath><g clip-path="url(#_clip1)"><g id="outline"><path d="M30,28l0,2l-28,0l0,-2l28,0Zm-22.732,-1l-4.268,0c-0.552,0 -1,-0.448 -1,-1c0,-3.284 0,-13.716 0,-17c0,-0.552 0.448,-1 1,-1c4.355,0 21.645,0 26,0c0.552,0 1,0.448 1,1c0,3.284 0,13.716 0,17c0,0.552 -0.448,1 -1,1l-3.268,0c-0.346,0.598 -0.992,1 -1.732,1c-0.74,0 -1.386,-0.402 -1.732,-1l-11.536,0c-0.346,0.598 -0.992,1 -1.732,1c-0.74,0 -1.386,-0.402 -1.732,-1Z" style="fill:none;stroke:#000;stroke-width:4px;"/><path d="M16,9l3,-3l-3,-3l-4,0" style="fill:none;stroke:#000;stroke-width:6px;stroke-linecap:square;"/><rect x="9" y="3" width="9" height="6"/></g><g id="emoji"><path d="M20.414,6l-4.414,4.414l-1.414,-1.414l3,-3l-2,-2l-4.586,0l0,-2l5.414,0l4,4Z" style="fill:#6f6f6f;fill-rule:nonzero;"/><rect x="2" y="28" width="28" height="2" style="fill:#7f7f7f;"/><rect x="5" y="23" width="22" height="4" style="fill:#2d2d2d;"/><circle cx="9" cy="26" r="2" style="fill:#666;"/><circle cx="24" cy="26" r="2" style="fill:#666;"/><path d="M30,9c0,-0.552 -0.448,-1 -1,-1c-4.355,0 -21.645,0 -26,0c-0.552,0 -1,0.448 -1,1c0,3.284 0,13.716 0,17c0,0.552 0.448,1 1,1c0.873,0 2,0 2,0c0,0 1.152,-1.152 1.707,-1.707c0.188,-0.188 0.442,-0.293 0.707,-0.293c2.424,0 14.748,0 17.172,0c0.265,0 0.519,0.105 0.707,0.293c0.555,0.555 1.707,1.707 1.707,1.707c0,0 1.127,0 2,0c0.552,0 1,-0.448 1,-1c0,-3.284 0,-13.716 0,-17Z" style="fill:#b3b3b3;"/><g><path d="M21,12c0,-0.552 -0.448,-1 -1,-1c-1.185,0 -3,0 -3,0l-1,1l-1,-1l-6,0l-1,1l-1,-1c0,0 -1.815,0 -3,0c-0.552,0 -1,0.448 -1,1c0,1.732 0,5.268 0,7c0,0.552 0.448,1 1,1c1.185,0 3,0 3,0l1,-1l1,1l6,0l1,-1l1,1c0,0 1.815,0 3,0c0.552,0 1,-0.448 1,-1c0,-1.732 0,-5.268 0,-7Z"/><rect x="7" y="11" width="2" height="9" style="fill:#404040;"/><rect x="15" y="11" width="2" height="9" style="fill:#404040;"/></g><path d="M29,12c0,-1.105 -0.895,-2 -2,-2c-0.941,0 -2.059,0 -3,0c-1.105,0 -2,0.895 -2,2c0,3.646 0,11 0,11l1,1l5,0l1,-1c0,0 0,-7.354 0,-11Z" style="fill:#ffdb38;"/><path d="M29,24c0,0.265 -0.105,0.52 -0.293,0.707c-0.187,0.188 -0.442,0.293 -0.707,0.293c-1.331,0 -3.669,0 -5,0c-0.265,0 -0.52,-0.105 -0.707,-0.293c-0.188,-0.187 -0.293,-0.442 -0.293,-0.707c0,-0.5 0,-1 0,-1l7,0c0,0 0,0.5 0,1Z" style="fill:#fff;"/><path d="M28,12c0,-0.265 -0.105,-0.52 -0.293,-0.707c-0.187,-0.188 -0.442,-0.293 -0.707,-0.293c-0.871,0 -2.129,0 -3,0c-0.265,0 -0.52,0.105 -0.707,0.293c-0.188,0.187 -0.293,0.442 -0.293,0.707c0,1.732 0,5.268 0,7c0,0.265 0.105,0.52 0.293,0.707c0.187,0.188 0.442,0.293 0.707,0.293c0.871,0 2.129,0 3,0c0.265,0 0.52,-0.105 0.707,-0.293c0.188,-0.187 0.293,-0.442 0.293,-0.707c0,-1.732 0,-5.268 0,-7Z"/></g></g></svg>