<?xml version="1.0" encoding="UTF-8" standalone="no"?><!DOCTYPE svg PUBLIC "-//W3C//DTD SVG 1.1//EN" "http://www.w3.org/Graphics/SVG/1.1/DTD/svg11.dtd"><svg width="100%" height="100%" viewBox="0 0 32 32" version="1.1" xmlns="http://www.w3.org/2000/svg" xmlns:xlink="http://www.w3.org/1999/xlink" xml:space="preserve" xmlns:serif="http://www.serif.com/" style="fill-rule:evenodd;clip-rule:evenodd;stroke-linecap:round;stroke-miterlimit:1.5;"><rect id="suspension_railway" x="0" y="0" width="32" height="32" style="fill:none;"/><clipPath id="_clip1"><rect x="0" y="0" width="32" height="32"/></clipPath><g clip-path="url(#_clip1)"><g id="outline"><path d="M30,8l-28,0c0,0 0,9.88 0,15l3,3c5.382,0 16.618,0 22,0l3,-3c0,-5.12 0,-15 0,-15Z" style="fill:none;stroke:#000;stroke-width:4px;"/><rect x="1" y="7" width="30" height="8"/></g><g id="emoji"><rect x="5" y="9" width="3" height="5" style="fill:#4b4b4b;"/><rect x="24" y="9" width="3" height="5" style="fill:#4b4b4b;"/><g><path d="M2,22l0,-10l28,0l0,10c0,0 -1.265,2 -1,2l0,0l-2,2c-5.382,0 -16.618,0 -22,0l-2,-2l-1,-2Z" style="fill:#ccc;"/><path d="M2,22l19,0c0.552,0 1,0.448 1,1c0,0.552 -0.448,1 -1,1l-18,0l-1,-1l0,-1Zm28,0l0,1l-1,1l0,0c-0.265,0 -0.52,-0.105 -0.707,-0.293c-0.188,-0.187 -0.293,-0.442 -0.293,-0.707c0,-0.265 0.105,-0.52 0.293,-0.707c0.187,-0.188 0.442,-0.293 0.707,-0.293l1,0Z" style="fill:#5b48d8;"/></g><rect x="2" y="8" width="28" height="2" style="fill:#7f7f7f;"/><g><path d="M21,16c0,-0.265 -0.105,-0.52 -0.293,-0.707c-0.187,-0.188 -0.442,-0.293 -0.707,-0.293c-1.185,0 -3,0 -3,0l-1,1l-1,-1l-5,0l-1.076,1l-0.924,-1c0,0 -1.815,0 -3,0c-0.265,0 -0.52,0.105 -0.707,0.293c-0.188,0.187 -0.293,0.442 -0.293,0.707c0,1.11 0,2.89 0,4c0,0.265 0.105,0.52 0.293,0.707c0.187,0.188 0.442,0.293 0.707,0.293c1.185,0 3,0 3,0l1,-1l1,1l5,0l1,-1l1,1c0,0 1.815,0 3,0c0.265,0 0.52,-0.105 0.707,-0.293c0.188,-0.187 0.293,-0.442 0.293,-0.707c0,-1.11 0,-2.89 0,-4Z"/><rect x="8" y="15" width="2" height="6" style="fill:#404040;"/><rect x="15" y="15" width="2" height="6" style="fill:#404040;"/></g><path d="M27,16c0,-0.552 -0.448,-1 -1,-1c-0.611,0 -1.389,0 -2,0c-0.552,0 -1,0.448 -1,1c0,1.732 0,5.268 0,7c0,0.552 0.448,1 1,1c0.611,0 1.389,0 2,0c0.552,0 1,-0.448 1,-1c0,-1.732 0,-5.268 0,-7Z"/></g></g></svg>