<?xml version="1.0" encoding="UTF-8" standalone="no"?><!DOCTYPE svg PUBLIC "-//W3C//DTD SVG 1.1//EN" "http://www.w3.org/Graphics/SVG/1.1/DTD/svg11.dtd"><svg width="100%" height="100%" viewBox="0 0 32 32" version="1.1" xmlns="http://www.w3.org/2000/svg" xmlns:xlink="http://www.w3.org/1999/xlink" xml:space="preserve" xmlns:serif="http://www.serif.com/" style="fill-rule:evenodd;clip-rule:evenodd;stroke-linecap:round;stroke-miterlimit:1.5;"><rect id="tram" x="0" y="0" width="32" height="32" style="fill:none;"/><clipPath id="_clip1"><rect x="0" y="0" width="32" height="32"/></clipPath><g clip-path="url(#_clip1)"><g id="outline"><path d="M28,9c0,-1.657 -1.343,-3 -3,-3c-4.611,0 -13.389,0 -18,0c-1.657,0 -3,1.343 -3,3c0,6.839 0,23 0,23l24,0c0,0 0,-16.161 0,-23Z"/><path d="M16,9l0,-3l-4,-3l8,0l-4,3" style="fill:none;"/><clipPath id="_clip2"><path d="M16,9l0,-3l-4,-3l8,0l-4,3"/></clipPath><g clip-path="url(#_clip2)"><rect x="6" y="28" width="20" height="2" style="fill:none;stroke:#000;stroke-width:4px;"/></g><path d="M16,9l0,-3l-4,-3l8,0l-4,3" style="fill:none;stroke:#000;stroke-width:6px;stroke-linecap:square;stroke-linejoin:round;"/></g><g id="emoji"><path d="M16,9l0,-3l-4,-3l8,0l-4,3" style="fill:none;stroke:#6f6f6f;stroke-width:2px;stroke-linecap:square;stroke-linejoin:round;"/><rect x="6" y="28" width="20" height="2" style="fill:#7f7f7f;"/><path d="M8.5,24.5l-0.5,2.5l-1,0c-0.265,0 -0.52,-0.105 -0.707,-0.293c-0.188,-0.187 -0.293,-0.442 -0.293,-0.707c0,-3.284 0,-13.716 0,-17c0,-0.265 0.105,-0.52 0.293,-0.707c0.187,-0.188 0.442,-0.293 0.707,-0.293c3.414,0 14.586,0 18,0c0.265,0 0.52,0.105 0.707,0.293c0.188,0.187 0.293,0.442 0.293,0.707c0,3.284 0,13.716 0,17c0,0.265 -0.105,0.52 -0.293,0.707c-0.187,0.188 -0.442,0.293 -0.707,0.293l-1,0l-0.5,-2.5l-10,0l-5,0Zm5,0l10,0l0,1.5l-0.5,1l-14,0l-0.5,-1l0,-1.5l5,0Zm12.5,-4.5l-1,1l-18,0l-1,-1l0,2l1,-1l18,0l1,1l0,-2Z" style="fill:#ccc;"/><path d="M24,27l-1,0l0,-2l-14,0l0,2l-1,0l0,-3l16,0l0,3Z" style="fill:#979797;"/><rect x="6" y="20" width="20" height="2" style="fill:#af54bc;"/><g><path d="M24.889,12l0,7c0,0.265 -0.105,0.52 -0.293,0.707c-0.188,0.188 -0.442,0.293 -0.707,0.293c-3.121,0 -12.657,0 -15.778,0c-0.265,0 -0.519,-0.105 -0.707,-0.293c-0.188,-0.187 -0.293,-0.442 -0.293,-0.707l0,-7l1.889,-1l14,0l1.889,1Z"/><path d="M7.111,12l0,-2c0,-0.265 0.105,-0.52 0.293,-0.707c0.188,-0.188 0.442,-0.293 0.707,-0.293c3.121,0 12.657,0 15.778,0c0.265,0 0.519,0.105 0.707,0.293c0.188,0.187 0.293,0.442 0.293,0.707l0,2l-17.778,0Z" style="fill:#3f3f3f;"/><rect x="12" y="10" width="6" height="1" style="fill:#e9a620;"/><rect x="19" y="10" width="1" height="1" style="fill:#e9a620;"/></g><path d="M11,22c0,-0.552 -0.448,-1 -1,-1c-0.611,0 -1.389,0 -2,0c-0.552,0 -1,0.448 -1,1c0,0.552 0.448,1 1,1c0.611,0 1.389,0 2,0c0.552,0 1,-0.448 1,-1c0,0 0,0 0,0Z" style="fill:#404040;"/><path d="M25,22c0,-0.552 -0.448,-1 -1,-1c-0.611,0 -1.389,0 -2,0c-0.552,0 -1,0.448 -1,1c0,0.552 0.448,1 1,1c0.611,0 1.389,0 2,0c0.552,0 1,-0.448 1,-1c0,0 0,0 0,0Z" style="fill:#404040;"/></g></g></svg>