<?xml version="1.0" encoding="UTF-8" standalone="no"?>
<!DOCTYPE svg PUBLIC "-//W3C//DTD SVG 1.1//EN" "http://www.w3.org/Graphics/SVG/1.1/DTD/svg11.dtd">
<svg width="100%" height="100%" viewBox="0 0 32 32" version="1.1" xmlns="http://www.w3.org/2000/svg" xmlns:xlink="http://www.w3.org/1999/xlink" xml:space="preserve" xmlns:serif="http://www.serif.com/" style="fill-rule:evenodd;clip-rule:evenodd;stroke-linejoin:round;stroke-miterlimit:2;">
    <rect id="back_of_hand--paw-" serif:id="back_of_hand [paw]" x="0" y="0" width="32" height="32" style="fill:none;"/>
    <clipPath id="_clip1">
        <rect x="0" y="0" width="32" height="32"/>
    </clipPath>
    <g clip-path="url(#_clip1)">
        <g id="outline">
            <path d="M17.035,31.996l-1.035,0l0,0.004l-0.133,0c-3.159,0 -6.189,-1.255 -8.423,-3.489c-2.371,-2.371 -5.979,-5.979 -5.979,-5.979c-1.952,-1.952 -1.952,-5.12 0,-7.071c1.484,-1.485 3.674,-1.84 5.496,-1.065l-1.701,-6.805c-0.602,-2.409 0.865,-4.854 3.275,-5.457c1.354,-0.338 2.721,-0.023 3.764,0.747c0.65,-1.687 2.287,-2.885 4.201,-2.885c1.81,0 3.372,1.071 4.086,2.613c0.9,-0.523 1.984,-0.739 3.087,-0.532c2.164,0.406 3.675,2.301 3.671,4.427c0.291,0.015 0.584,0.057 0.877,0.131c2.409,0.603 3.875,3.048 3.272,5.457c0,0 -1.49,5.956 -2.68,10.71c-1.352,5.404 -6.207,9.194 -11.778,9.194Z"/>
        </g>
        <g id="emoji">
            <path d="M14,13l0,0l0,-8.504c0.002,-0.314 0.058,-0.624 0.174,-0.916c0.283,-0.718 0.9,-1.278 1.642,-1.489c0.263,-0.075 0.539,-0.106 0.813,-0.092c0.279,0.015 0.556,0.076 0.816,0.182c0.288,0.118 0.554,0.291 0.78,0.506c0.232,0.221 0.422,0.488 0.554,0.781c0.146,0.322 0.218,0.671 0.221,1.025l0,9.507c0.001,0.067 0.013,0.133 0.039,0.195c0.081,0.191 0.279,0.315 0.487,0.304c0.058,-0.003 0.115,-0.016 0.169,-0.038c0.055,-0.024 0.106,-0.058 0.15,-0.099c0.046,-0.044 0.084,-0.098 0.111,-0.156c0.029,-0.065 0.043,-0.135 0.044,-0.206l0,-5.899l0.387,-2.062c0.254,-1.356 1.561,-2.25 2.917,-1.996c1.062,0.199 1.84,1.043 2.007,2.05l-1.554,9.325c-0.01,0.066 -0.009,0.133 0.007,0.198c0.048,0.203 0.223,0.357 0.429,0.381c0.058,0.006 0.117,0.003 0.173,-0.011c0.059,-0.014 0.115,-0.038 0.165,-0.072c0.053,-0.036 0.099,-0.083 0.135,-0.136c0.039,-0.059 0.065,-0.126 0.077,-0.196l1.123,-6.734c0.546,-0.323 1.215,-0.439 1.879,-0.273c1.339,0.336 2.153,1.695 1.817,3.033c0,0 -1.494,5.959 -2.687,10.714c-1.131,4.511 -5.186,7.674 -9.836,7.674l-1.039,0l0,0.004l-0.133,0c-2.629,0 -5.15,-1.044 -7.009,-2.903c-2.371,-2.371 -5.979,-5.98 -5.979,-5.98c-1.171,-1.17 -1.171,-3.071 0,-4.242c1.171,-1.171 3.072,-1.171 4.242,0l2.879,2.878l0,-1.449l-2.799,-11.198c-0.084,-0.344 -0.099,-0.702 -0.035,-1.051c0.057,-0.316 0.176,-0.621 0.348,-0.892c0.167,-0.264 0.383,-0.495 0.634,-0.68c0.226,-0.166 0.48,-0.292 0.748,-0.374c0.262,-0.08 0.537,-0.117 0.81,-0.108c0.772,0.024 1.506,0.418 1.955,1.046c0.182,0.255 0.312,0.543 0.39,0.847l0.949,3.794l0,3.812c0.001,0.067 0.013,0.133 0.039,0.195c0.081,0.191 0.279,0.315 0.487,0.304c0.058,-0.003 0.115,-0.016 0.169,-0.038c0.055,-0.024 0.106,-0.058 0.15,-0.099c0.046,-0.044 0.084,-0.098 0.111,-0.156c0.029,-0.065 0.043,-0.135 0.044,-0.206l0,-0.5Z" style="fill:#f10dc3;"/>
        </g>
    </g>
</svg>
