<?xml version="1.0" encoding="UTF-8" standalone="no"?><!DOCTYPE svg PUBLIC "-//W3C//DTD SVG 1.1//EN" "http://www.w3.org/Graphics/SVG/1.1/DTD/svg11.dtd"><svg width="100%" height="100%" viewBox="0 0 32 32" version="1.1" xmlns="http://www.w3.org/2000/svg" xmlns:xlink="http://www.w3.org/1999/xlink" xml:space="preserve" xmlns:serif="http://www.serif.com/" style="fill-rule:evenodd;clip-rule:evenodd;stroke-linecap:round;stroke-linejoin:round;stroke-miterlimit:1.5;"><rect id="call_me--paw-" serif:id="call_me [paw]" x="0" y="0" width="32" height="32" style="fill:none;"/><g id="outline"><g><path d="M24.002,15c1.103,0 1.998,0.895 1.998,1.998c0,0.001 0,0.003 0,0.004c0,1.103 -0.895,1.998 -1.998,1.998c-3.171,0 -9.002,0 -9.002,0l0,-4c0,0 5.831,0 9.002,0Z" style="fill:#b0b0b0;"/><path d="M24.104,13.001l0.102,0.004l0.101,0.006l0.101,0.009l0.101,0.012l0.099,0.014l0.099,0.016l0.099,0.019l0.097,0.021l0.097,0.024l0.096,0.026l0.094,0.028l0.094,0.03l0.093,0.033l0.092,0.035l0.09,0.037l0.089,0.039l0.089,0.041l0.086,0.043l0.086,0.046l0.085,0.047l0.082,0.049l0.083,0.051l0.08,0.053l0.079,0.055l0.077,0.056l0.076,0.058l0.075,0.061l0.073,0.061l0.071,0.064l0.071,0.065l0.068,0.067l0.067,0.068l0.065,0.07l0.063,0.072l0.062,0.073l0.061,0.075l0.058,0.076l0.056,0.077l0.055,0.079l0.053,0.08l0.051,0.083l0.049,0.083l0.047,0.084l0.046,0.085l0.043,0.088l0.041,0.088l0.039,0.089l0.037,0.091l0.035,0.091l0.033,0.094l0.03,0.093l0.028,0.094l0.026,0.097l0.024,0.096l0.021,0.097l0.019,0.099l0.016,0.099l0.014,0.099l0.012,0.101l0.009,0.101l0.006,0.101l0.004,0.102l0.001,0.089l0,0.03l-0.001,0.089l-0.004,0.102l-0.006,0.101l-0.009,0.101l-0.012,0.101l-0.014,0.099l-0.016,0.099l-0.019,0.099l-0.021,0.097l-0.024,0.096l-0.026,0.097l-0.028,0.094l-0.03,0.093l-0.033,0.094l-0.035,0.091l-0.037,0.091l-0.039,0.089l-0.041,0.088l-0.043,0.088l-0.046,0.085l-0.047,0.084l-0.049,0.084l-0.051,0.082l-0.053,0.08l-0.055,0.079l-0.056,0.077l-0.058,0.076l-0.061,0.075l-0.061,0.073l-0.064,0.072l-0.065,0.07l-0.067,0.068l-0.068,0.067l-0.071,0.065l-0.071,0.064l-0.073,0.061l-0.075,0.061l-0.076,0.058l-0.077,0.056l-0.079,0.055l-0.08,0.053l-0.082,0.051l-0.083,0.049l-0.085,0.047l-0.086,0.046l-0.087,0.043l-0.088,0.041l-0.089,0.039l-0.091,0.037l-0.091,0.035l-0.093,0.033l-0.094,0.03l-0.095,0.028l-0.095,0.026l-0.097,0.024l-0.097,0.021l-0.098,0.019l-0.1,0.016l-0.099,0.014l-0.101,0.012l-0.101,0.009l-0.101,0.006l-0.102,0.004l-0.089,0.001l-11.015,0l0,-8l11.015,0l0.089,0.001Z"/><path d="M24,11c0.53,0 1.039,0.211 1.414,0.586c0.375,0.375 0.586,0.884 0.586,1.414c0,0.53 -0.211,1.039 -0.586,1.414c-0.375,0.375 -0.884,0.586 -1.414,0.586c-3.172,0 -9,0 -9,0l0,-4c0,0 5.828,0 9,0Z" style="fill:#b0b0b0;"/><path d="M24.099,9.001l0.099,0.004l0.099,0.006l0.098,0.008l0.098,0.011l0.098,0.014l0.097,0.015l0.096,0.018l0.096,0.021l0.095,0.023l0.094,0.024l0.094,0.028l0.093,0.029l0.093,0.032l0.091,0.034l0.091,0.036l0.089,0.039l0.089,0.04l0.088,0.043l0.087,0.045l0.086,0.047l0.084,0.049l0.083,0.051l0.082,0.054l0.081,0.055l0.08,0.058l0.078,0.059l0.077,0.062l0.076,0.063l0.074,0.066l0.073,0.067l0.071,0.07l0.069,0.07l0.067,0.073l0.066,0.074l0.063,0.076l0.062,0.077l0.059,0.078l0.058,0.08l0.055,0.081l0.053,0.082l0.052,0.083l0.049,0.085l0.047,0.085l0.045,0.087l0.043,0.088l0.04,0.088l0.039,0.09l0.036,0.091l0.034,0.091l0.032,0.093l0.029,0.093l0.028,0.094l0.024,0.094l0.023,0.095l0.021,0.096l0.018,0.096l0.015,0.097l0.014,0.098l0.011,0.098l0.008,0.098l0.006,0.098l0.004,0.099l0.001,0.1l-0.001,0.1l-0.004,0.099l-0.006,0.098l-0.008,0.098l-0.011,0.098l-0.014,0.098l-0.015,0.097l-0.018,0.096l-0.021,0.096l-0.023,0.095l-0.024,0.094l-0.028,0.094l-0.029,0.093l-0.032,0.093l-0.034,0.091l-0.036,0.091l-0.039,0.09l-0.04,0.088l-0.043,0.088l-0.045,0.087l-0.047,0.085l-0.049,0.085l-0.052,0.083l-0.053,0.082l-0.055,0.081l-0.058,0.08l-0.059,0.078l-0.062,0.077l-0.063,0.076l-0.066,0.074l-0.067,0.073l-0.069,0.07l-0.071,0.07l-0.073,0.067l-0.074,0.066l-0.076,0.063l-0.077,0.062l-0.078,0.059l-0.08,0.058l-0.081,0.055l-0.082,0.054l-0.083,0.051l-0.084,0.049l-0.086,0.047l-0.087,0.045l-0.088,0.043l-0.089,0.04l-0.089,0.039l-0.091,0.036l-0.091,0.034l-0.093,0.032l-0.093,0.029l-0.094,0.028l-0.094,0.024l-0.095,0.023l-0.096,0.021l-0.096,0.018l-0.097,0.015l-0.098,0.014l-0.098,0.011l-0.098,0.008l-0.099,0.006l-0.099,0.004l-0.087,0.001l-11.012,0l0,-8l11.012,0l0.087,0.001Zm-7.099,3.999l0,0l6.988,0l0,0l0,0l-6.988,0Z"/><path d="M24,19c0.53,0 1.039,0.211 1.414,0.586c0.375,0.375 0.586,0.884 0.586,1.414c0,0.53 -0.211,1.039 -0.586,1.414c-0.375,0.375 -0.884,0.586 -1.414,0.586c-3.172,0 -9,0 -9,0l0,-4c0,0 5.828,0 9,0Z" style="fill:#b0b0b0;"/><path d="M24.099,17.001l0.099,0.004l0.099,0.006l0.098,0.008l0.098,0.011l0.098,0.014l0.097,0.015l0.096,0.018l0.096,0.021l0.095,0.023l0.095,0.025l0.093,0.027l0.093,0.029l0.093,0.032l0.091,0.034l0.091,0.036l0.09,0.039l0.088,0.04l0.088,0.043l0.087,0.045l0.085,0.047l0.084,0.049l0.084,0.051l0.082,0.054l0.081,0.055l0.08,0.058l0.078,0.059l0.077,0.062l0.076,0.063l0.074,0.066l0.073,0.067l0.071,0.069l0.069,0.071l0.067,0.073l0.066,0.074l0.063,0.076l0.062,0.077l0.059,0.078l0.058,0.08l0.055,0.081l0.053,0.082l0.052,0.083l0.049,0.085l0.047,0.085l0.045,0.087l0.043,0.088l0.04,0.088l0.039,0.09l0.036,0.091l0.034,0.091l0.032,0.093l0.029,0.093l0.028,0.094l0.024,0.094l0.023,0.095l0.021,0.096l0.018,0.096l0.015,0.097l0.014,0.098l0.011,0.098l0.008,0.098l0.006,0.098l0.004,0.099l0.001,0.1l-0.001,0.1l-0.004,0.099l-0.006,0.098l-0.008,0.098l-0.011,0.098l-0.014,0.098l-0.015,0.097l-0.018,0.096l-0.021,0.096l-0.023,0.095l-0.024,0.094l-0.028,0.094l-0.029,0.093l-0.032,0.093l-0.034,0.091l-0.036,0.091l-0.039,0.09l-0.04,0.088l-0.043,0.088l-0.045,0.087l-0.047,0.085l-0.049,0.085l-0.052,0.083l-0.053,0.083l-0.055,0.08l-0.057,0.079l-0.06,0.079l-0.062,0.077l-0.063,0.076l-0.066,0.074l-0.067,0.073l-0.069,0.071l-0.071,0.069l-0.073,0.067l-0.074,0.066l-0.076,0.063l-0.077,0.062l-0.078,0.059l-0.08,0.058l-0.081,0.055l-0.082,0.054l-0.084,0.051l-0.084,0.049l-0.085,0.047l-0.087,0.045l-0.088,0.043l-0.088,0.04l-0.09,0.039l-0.091,0.036l-0.091,0.034l-0.093,0.032l-0.093,0.029l-0.094,0.028l-0.094,0.024l-0.095,0.023l-0.096,0.021l-0.096,0.018l-0.097,0.015l-0.098,0.014l-0.098,0.011l-0.098,0.008l-0.099,0.006l-0.099,0.004l-0.087,0.001l-11.012,0l0,-8l11.012,0l0.087,0.001Z"/></g><path d="M15,29l-9.013,0l-0.089,-0.001l-0.102,-0.004l-0.102,-0.006l-0.1,-0.009l-0.101,-0.012l-0.1,-0.014l-0.099,-0.016l-0.098,-0.019l-0.097,-0.021l-0.097,-0.024l-0.096,-0.026l-0.095,-0.028l-0.094,-0.031l-0.092,-0.032l-0.092,-0.035l-0.091,-0.037l-0.089,-0.039l-0.088,-0.041l-0.088,-0.044l-0.085,-0.045l-0.084,-0.047l-0.083,-0.049l-0.083,-0.051l-0.08,-0.053l-0.079,-0.055l-0.077,-0.056l-0.077,-0.059l-0.074,-0.06l-0.074,-0.062l-0.071,-0.064l-0.07,-0.064l-0.069,-0.067l-0.066,-0.069l-0.065,-0.07l-0.064,-0.071l-0.062,-0.074l-0.06,-0.074l-0.059,-0.077l-0.056,-0.077l-0.054,-0.079l-0.054,-0.081l-0.051,-0.082l-0.049,-0.082l-0.047,-0.085l-0.045,-0.085l-0.044,-0.088l-0.041,-0.088l-0.039,-0.089l-0.037,-0.091l-0.035,-0.092l-0.033,-0.093l-0.03,-0.094l-0.028,-0.094l-0.026,-0.096l-0.024,-0.096l-0.021,-0.098l-0.019,-0.098l-0.016,-0.1l-0.014,-0.099l-0.012,-0.1l-0.009,-0.102l-0.006,-0.1l-0.004,-0.102l-0.001,-0.09l0,-10.026l0.001,-0.09l0.004,-0.102l0.006,-0.1l0.009,-0.102l0.012,-0.1l0.014,-0.099l0.016,-0.1l0.019,-0.098l0.021,-0.098l0.024,-0.097l0.026,-0.095l0.028,-0.094l0.03,-0.094l0.033,-0.093l0.035,-0.092l0.037,-0.091l0.039,-0.089l0.041,-0.089l0.044,-0.086l0.045,-0.086l0.047,-0.085l0.049,-0.083l0.051,-0.081l0.054,-0.081l0.054,-0.079l0.056,-0.077l0.059,-0.077l0.06,-0.074l0.062,-0.073l0.064,-0.072l0.065,-0.07l0.066,-0.069l0.069,-0.067l0.07,-0.064l0.071,-0.064l0.074,-0.062l0.074,-0.06l0.076,-0.058l0.078,-0.057l0.079,-0.055l0.08,-0.053l0.082,-0.051l0.084,-0.049l0.084,-0.047l0.086,-0.045l0.087,-0.044l0.088,-0.041l0.089,-0.039l0.091,-0.037l0.092,-0.035l0.093,-0.033l0.093,-0.03l0.095,-0.028l0.096,-0.026l0.097,-0.024l0.097,-0.021l0.098,-0.019l0.099,-0.016l0.1,-0.014l0.101,-0.012l0.1,-0.009l0.102,-0.006l0.102,-0.004l0.089,-0.001l9.013,0l0,18Zm-8.987,-14l-0.013,0l0,0.013l0,9.974l0,0.013l0.013,0l4.987,0l0,-10l-4.987,0Z"/><path d="M14.156,1.002l0.153,0.006l0.152,0.009l0.152,0.014l0.15,0.017l0.15,0.021l0.148,0.024l0.148,0.029l0.146,0.031l0.144,0.036l0.144,0.039l0.142,0.042l0.141,0.045l0.138,0.049l0.137,0.053l0.136,0.055l0.134,0.059l0.132,0.061l0.131,0.065l0.128,0.068l0.127,0.071l0.125,0.073l0.123,0.077l0.12,0.079l0.118,0.083l0.117,0.084l0.114,0.088l0.112,0.09l0.11,0.093l0.107,0.095l0.105,0.098l0.103,0.101l0.101,0.103l0.098,0.105l0.095,0.107l0.093,0.11l0.09,0.112l0.087,0.114l0.086,0.117l0.082,0.118l0.079,0.121l0.077,0.122l0.073,0.125l0.071,0.127l0.068,0.128l0.065,0.131l0.061,0.132l0.059,0.134l0.055,0.135l0.053,0.137l0.049,0.14l0.045,0.14l0.042,0.142l0.039,0.144l0.036,0.144l0.031,0.146l0.029,0.147l0.024,0.149l0.021,0.15l0.017,0.15l0.014,0.152l0.009,0.152l0.006,0.153l0.002,0.142l0,1.556l-0.001,0.102l-0.006,0.116l-0.008,0.116l-0.012,0.115l-0.001,0.009l3.028,0l0,20l-17,0l0,-9.977l0,-0.106l0.002,-0.111l0.003,-0.111l0.003,-0.111l0.005,-0.11l0.005,-0.111l0.007,-0.11l0.008,-0.111l0.008,-0.11l0.01,-0.11l0.011,-0.109l0.011,-0.11l0.013,-0.11l0.014,-0.109l0.014,-0.11l0.016,-0.109l0.017,-0.108l0.017,-0.109l0.019,-0.108l0.02,-0.109l0.02,-0.108l0.022,-0.108l0.023,-0.107l0.023,-0.108l0.025,-0.107l0.025,-0.107l0.027,-0.106l0.027,-0.107l0.029,-0.106l0.029,-0.106l0.031,-0.105l0.031,-0.106l0.032,-0.104l0.033,-0.105l0.035,-0.105l0.035,-0.104l0.036,-0.104l0.037,-0.103l0.038,-0.103l0.039,-0.103l0.04,-0.102l0.041,-0.102l0.042,-0.102l0.043,-0.102l0.043,-0.101l0.045,-0.1l0.045,-0.1l0.047,-0.1l0.047,-0.1l0.049,-0.099l0.049,-0.098l0.05,-0.098l0.051,-0.098l0.053,-0.097l0.053,-0.097l0.054,-0.097l0.054,-0.096l0.056,-0.095l0.057,-0.095l0.057,-0.095l0.059,-0.094l0.059,-0.094l0.06,-0.093l0.059,-0.089l3.987,-5.981l0,-5.394l2.015,0l0.141,0.002Zm-2.81,13.584l-0.043,0.066l-0.04,0.062l-0.04,0.063l-0.039,0.062l-0.038,0.063l-0.038,0.064l-0.037,0.063l-0.037,0.064l-0.036,0.065l-0.035,0.064l-0.035,0.065l-0.034,0.065l-0.033,0.066l-0.033,0.066l-0.032,0.066l-0.032,0.066l-0.031,0.066l-0.03,0.067l-0.03,0.067l-0.029,0.068l-0.029,0.067l-0.028,0.068l-0.027,0.068l-0.027,0.069l-0.025,0.068l-0.026,0.069l-0.025,0.069l-0.024,0.069l-0.023,0.069l-0.023,0.07l-0.022,0.069l-0.022,0.071l-0.021,0.07l-0.02,0.07l-0.02,0.071l-0.018,0.07l-0.019,0.071l-0.017,0.072l-0.018,0.071l-0.016,0.071l-0.016,0.072l-0.015,0.071l-0.014,0.072l-0.014,0.072l-0.013,0.072l-0.012,0.073l-0.012,0.072l-0.011,0.073l-0.011,0.073l-0.009,0.072l-0.01,0.073l-0.008,0.073l-0.008,0.073l-0.007,0.074l-0.006,0.073l-0.006,0.074l-0.005,0.073l-0.005,0.074l-0.003,0.073l-0.004,0.074l-0.002,0.074l-0.002,0.074l-0.001,0.074l0,0.078l0,5.968l9,0l0,-12l-0.398,0l-0.081,-0.001l-0.097,-0.005l-0.095,-0.008l-0.096,-0.011l-0.095,-0.013l-0.095,-0.017l-0.093,-0.02l-0.093,-0.023l-0.091,-0.025l-0.091,-0.029l-0.09,-0.031l-0.088,-0.034l-0.086,-0.036l-0.086,-0.04l-0.085,-0.042l-0.083,-0.044l-0.081,-0.048l-0.081,-0.05l-0.079,-0.052l-0.077,-0.055l-0.075,-0.057l-0.073,-0.059l-0.072,-0.063l-0.07,-0.064l-0.068,-0.067l-0.066,-0.069l-0.064,-0.071l-0.061,-0.074l-0.06,-0.075l-0.057,-0.079l-0.055,-0.079l-0.052,-0.082l-0.05,-0.083l-0.046,-0.084l-0.044,-0.086l-0.042,-0.088l-0.038,-0.088l-0.035,-0.088l-0.032,-0.091l-0.03,-0.09l-0.026,-0.091l-0.024,-0.093l-0.02,-0.092l-0.017,-0.093l-0.015,-0.094l-0.012,-0.093l-0.009,-0.094l-0.005,-0.095l-0.003,-0.093l0,-0.095l0.003,-0.094l0.007,-0.095l0.009,-0.094l0.012,-0.094l0.015,-0.092l0.018,-0.095l0.021,-0.092l0.024,-0.093l0.027,-0.092l0.03,-0.091l0.034,-0.091l0.036,-0.089l0.038,-0.088l0.036,-0.073l0.065,-0.132l0.007,-0.013l0,0l0,-0.014l0,-0.908l-4.654,6.98Z"/><path d="M18,23.5l8,4" style="fill:none;stroke:#000;stroke-width:8px;"/></g><g id="emoji"><path d="M16.5,13c0,0 -6.969,0 -10.5,0c-0.53,0 -1.039,0.211 -1.414,0.586c-0.375,0.375 -0.586,0.884 -0.586,1.414c0,2.661 0,7.339 0,10c0,0.53 0.211,1.039 0.586,1.414c0.375,0.375 0.884,0.586 1.414,0.586c3.531,0 10.5,0 10.5,0l0,-14Z" style="fill:#a90eb1;"/><path d="M14,7c0,0 -2.672,4.008 -4.45,6.675c-1.011,1.516 -1.55,3.297 -1.55,5.119c0,0.292 0,0.597 0,0.911c0,1.934 0.769,3.79 2.137,5.158c1.368,1.368 3.224,2.137 5.158,2.137c2.965,0 5.705,0 5.705,0l-0.017,-4l2.017,0l0,-12c0,0 -2.605,0 -4.382,0c-0.347,0 -0.668,-0.179 -0.851,-0.474c-0.182,-0.295 -0.198,-0.663 -0.043,-0.973c0.022,-0.045 0.044,-0.089 0.065,-0.131c0.139,-0.277 0.211,-0.584 0.211,-0.894c0,-0.368 0,-0.918 0,-1.53c0,-2.208 -1.79,-3.998 -3.998,-3.998c-0.001,0 -0.002,0 -0.002,0l0,4Z" style="fill:#f10dc3;"/><g><path d="M24,19c0.53,0 1.039,0.211 1.414,0.586c0.375,0.375 0.586,0.884 0.586,1.414c0,0.53 -0.211,1.039 -0.586,1.414c-0.375,0.375 -0.884,0.586 -1.414,0.586c-1.488,0 -3.512,0 -5,0c-0.53,0 -1.039,-0.211 -1.414,-0.586c-0.375,-0.375 -0.586,-0.884 -0.586,-1.414c0,-0.53 0.211,-1.039 0.586,-1.414c0.375,-0.375 0.884,-0.586 1.414,-0.586c1.488,0 3.512,0 5,0Z" style="fill:#f10dc3;"/><path d="M24.002,15c1.103,0 1.998,0.895 1.998,1.998c0,0.001 0,0.003 0,0.004c0,1.103 -0.895,1.998 -1.998,1.998c-1.489,0 -3.515,0 -5.004,0c-1.103,0 -1.998,-0.895 -1.998,-1.998c0,-0.001 0,-0.003 0,-0.004c0,-1.103 0.895,-1.998 1.998,-1.998c1.489,0 3.515,0 5.004,0Z" style="fill:#f10dc3;"/><path d="M24,11c0.53,0 1.039,0.211 1.414,0.586c0.375,0.375 0.586,0.884 0.586,1.414c0,0.53 -0.211,1.039 -0.586,1.414c-0.375,0.375 -0.884,0.586 -1.414,0.586c-1.488,0 -3.512,0 -5,0c-0.53,0 -1.039,-0.211 -1.414,-0.586c-0.375,-0.375 -0.586,-0.884 -0.586,-1.414c0,-0.53 0.211,-1.039 0.586,-1.414c0.375,-0.375 0.884,-0.586 1.414,-0.586c1.488,0 3.512,0 5,0Z" style="fill:#f10dc3;"/></g><path d="M18,23.5l8,4" style="fill:none;stroke:#f10dc3;stroke-width:4px;"/></g></svg>