<?xml version="1.0" encoding="UTF-8" standalone="no"?>
<!DOCTYPE svg PUBLIC "-//W3C//DTD SVG 1.1//EN" "http://www.w3.org/Graphics/SVG/1.1/DTD/svg11.dtd">
<svg width="100%" height="100%" viewBox="0 0 32 32" version="1.1" xmlns="http://www.w3.org/2000/svg" xmlns:xlink="http://www.w3.org/1999/xlink" xml:space="preserve" xmlns:serif="http://www.serif.com/" style="fill-rule:evenodd;clip-rule:evenodd;stroke-linejoin:round;stroke-miterlimit:2;">
    <rect id="call_me--paw-" serif:id="call_me [paw]" x="0" y="0" width="32" height="32" style="fill:none;"/>
    <g id="outline">
        <path d="M20.056,29l-14.056,0c-2.209,0 -4,-1.791 -4,-4c0,-2.661 0,-7.339 0,-10c0,-2.209 1.791,-4 4,-4l2.93,0l3.07,-4.606l0,-5.394l2.002,0c3.313,0 5.998,2.685 5.998,5.998c0,0.612 0,1.162 0,1.53c0,0.158 -0.009,0.316 -0.028,0.472l4.028,0c1.061,0 2.078,0.421 2.828,1.172c0.751,0.75 1.172,1.767 1.172,2.828l0,0c0,0.708 -0.188,1.396 -0.535,1.999c0.34,0.588 0.535,1.271 0.535,1.999c0,0.001 0,0.003 0,0.004c0,0.728 -0.195,1.411 -0.535,1.999c0.347,0.603 0.535,1.291 0.535,1.999l0,0c0,0.941 -0.331,1.847 -0.929,2.563l0.718,0.359c1.974,0.988 2.776,3.392 1.789,5.367c-0.988,1.974 -3.392,2.776 -5.367,1.789l-4.155,-2.078Z"/>
    </g>
    <g id="emoji">
        <path d="M16.5,13l-10.5,0c-0.53,0 -1.039,0.211 -1.414,0.586c-0.375,0.375 -0.586,0.884 -0.586,1.414c0,2.661 0,7.339 0,10c0,0.53 0.211,1.039 0.586,1.414c0.375,0.375 0.884,0.586 1.414,0.586c2.509,0 9.295,0 9.295,0l1.205,-1l0,-13Z" style="fill:#a90eb1;"/>
        <path d="M20.528,27l-5.233,0c-1.934,0 -3.79,-0.769 -5.158,-2.137c-1.368,-1.368 -2.137,-3.224 -2.137,-5.158c0,-0.314 0,-0.619 0,-0.911c0,-1.822 0.539,-3.603 1.55,-5.119c1.778,-2.667 4.45,-6.675 4.45,-6.675l0,-4l0.002,0c2.208,0 3.998,1.79 3.998,3.998c0,0.612 0,1.162 0,1.53c0,0.31 -0.072,0.617 -0.211,0.894c-0.021,0.042 -0.043,0.086 -0.065,0.131c-0.155,0.31 -0.139,0.678 0.043,0.973c0.183,0.295 0.504,0.474 0.851,0.474l5.382,0c0.53,0 1.039,0.211 1.414,0.586c0.375,0.375 0.586,0.884 0.586,1.414c0,0.53 -0.211,1.039 -0.586,1.414c-0.375,0.375 -0.884,0.586 -1.414,0.586l0.002,0c1.103,0 1.998,0.895 1.998,1.998c0,0.001 0,0.003 0,0.004c0,1.103 -0.895,1.998 -1.998,1.998l-0.002,0c0.53,0 1.039,0.211 1.414,0.586c0.375,0.375 0.586,0.884 0.586,1.414c0,0.53 -0.211,1.039 -0.586,1.414c-0.375,0.375 -0.884,0.586 -1.414,0.586l-2.528,0l5.422,2.711c0.224,0.114 0.426,0.265 0.594,0.452c0.412,0.46 0.592,1.101 0.478,1.708c-0.041,0.215 -0.118,0.423 -0.225,0.614c-0.111,0.195 -0.254,0.372 -0.422,0.519c-0.188,0.164 -0.407,0.293 -0.641,0.377c-0.242,0.087 -0.501,0.128 -0.757,0.118c-0.284,-0.011 -0.561,-0.085 -0.815,-0.21l-4.578,-2.289Z" style="fill:#f10dc3;"/>
    </g>
</svg>
