<?xml version="1.0" encoding="UTF-8" standalone="no"?>
<!DOCTYPE svg PUBLIC "-//W3C//DTD SVG 1.1//EN" "http://www.w3.org/Graphics/SVG/1.1/DTD/svg11.dtd">
<svg width="100%" height="100%" viewBox="0 0 32 32" version="1.1" xmlns="http://www.w3.org/2000/svg" xmlns:xlink="http://www.w3.org/1999/xlink" xml:space="preserve" xmlns:serif="http://www.serif.com/" style="fill-rule:evenodd;clip-rule:evenodd;stroke-linejoin:round;stroke-miterlimit:2;">
    <rect id="crossed_fingers--paw-" serif:id="crossed_fingers [paw]" x="0" y="0" width="32" height="32" style="fill:none;"/>
    <clipPath id="_clip1">
        <rect x="0" y="0" width="32" height="32"/>
    </clipPath>
    <g clip-path="url(#_clip1)">
        <g id="Layer10">
            <path d="M18.5,0.258c0.912,-0.323 1.935,-0.357 2.923,-0.027c2.356,0.785 3.631,3.336 2.846,5.692l-1.026,3.077l2.026,6.077l0.012,0.035c1.119,0.241 2.134,0.862 2.861,1.775c0.948,1.193 1.301,2.753 0.959,4.237c-0.116,0.502 -0.238,1.032 -0.363,1.574c-1.257,5.445 -6.105,9.302 -11.693,9.302l-1.073,0c-5.574,0.003 -10.434,-3.793 -11.785,-9.2c-0.609,-2.433 -1.178,-4.709 -1.178,-4.709c-0.602,-2.409 0.865,-4.854 3.275,-5.457c0.153,-0.038 0.306,-0.068 0.458,-0.09c0.479,-1.394 1.631,-2.526 3.167,-2.91c1.225,-0.306 2.46,-0.077 3.457,0.539l0.391,-1.173l-1.026,-3.077c-0.785,-2.356 0.49,-4.907 2.846,-5.692c0.988,-0.33 2.011,-0.296 2.923,0.027Z"/>
        </g>
        <g id="Layer9">
            <path d="M15.36,12l-0.022,-1.419l2.29,-6.872c0.072,-0.209 0.167,-0.409 0.289,-0.593c0.252,-0.379 0.608,-0.684 1.019,-0.878c0.173,-0.081 0.378,-0.146 0.564,-0.188l0.013,0.013c0.209,0.218 0.709,0.299 0.857,0.562c0.109,0.195 0.197,0.398 0.269,0.609l1.087,2.766l-0.064,1.419l-1.748,5.244l3.222,2.337c0.288,0.877 0.576,1.754 0.864,2.632l0,6.368l-13,-4l2.032,3.314l-5.235,-2.314l-1.295,0c0,0 -0.772,-0.967 -1.021,-1.263l-0.521,-2.082l1.04,-2.655c3.923,-2.944 4.095,-3.002 9,-3l0.36,0Z" style="fill:#640082;fill-rule:nonzero;"/>
            <path d="M13.762,17.341l0,0c0.154,-0.348 0.238,-0.731 0.238,-1.13l0,-1.617l1.338,-4.013l1.473,4.419l-0.811,0l0,1.657l-0.72,1.083c0,3.314 3.406,6.26 6.72,6.26l1,-1l0,-2l-1,0c-2.209,0 -4,-1.791 -4,-4l6.229,0c0.914,0 1.778,0.417 2.348,1.132c0.569,0.716 0.781,1.652 0.575,2.543c-0.116,0.502 -0.238,1.032 -0.363,1.574c-1.047,4.537 -5.088,7.751 -9.744,7.751l-1.076,0c-4.653,0 -8.713,-3.17 -9.842,-7.683l-0.646,-2.58c0.562,0.351 1.254,0.469 1.921,0.302l0.011,-0.003c0.915,-0.233 1.608,-0.894 1.92,-1.716c0.668,0.584 1.6,0.844 2.527,0.617c0,-0.001 0.001,-0.001 0.002,-0.001c0.099,-0.024 0.196,-0.054 0.29,-0.088c0,0 1.338,0.15 2.29,-0.334l-0.68,-1.173Zm-6.365,-2.837c0.162,0.001 0.321,0.018 0.476,0.05l0.582,2.329c0.004,0.014 0.008,0.029 0.012,0.043c0.22,0.946 -0.355,1.898 -1.297,2.14l-0.012,0.003c-0.58,0.146 -1.191,-0.071 -1.55,-0.55l-0.648,-0.864l-0.011,-0.044c-0.335,-1.339 0.48,-2.697 1.818,-3.032c0.205,-0.052 0.411,-0.076 0.613,-0.076l0.017,0.001Zm1.198,-1.187c0.238,-0.832 0.9,-1.518 1.799,-1.742c1.004,-0.252 2.02,0.145 2.606,0.924l0,3.712c-0.001,0.197 -0.032,0.392 -0.095,0.579c-0.15,0.442 -0.472,0.816 -0.888,1.028c-0.173,0.089 -0.36,0.149 -0.552,0.179c-0.19,0.029 -0.385,0.028 -0.574,-0.004c-0.22,-0.036 -0.432,-0.114 -0.624,-0.227c-0.205,-0.12 -0.385,-0.281 -0.528,-0.47c-0.143,-0.189 -0.252,-0.409 -0.309,-0.64l-0.835,-3.339Zm14.54,1.683l-5.27,0l-3.237,-9.709c-0.114,-0.357 -0.156,-0.733 -0.108,-1.106c0.043,-0.337 0.156,-0.665 0.329,-0.958c0.161,-0.273 0.374,-0.514 0.625,-0.707c0.221,-0.171 0.47,-0.303 0.735,-0.392c0.265,-0.088 0.545,-0.132 0.824,-0.128c0.707,0.01 1.398,0.332 1.861,0.867c0.213,0.247 0.371,0.535 0.478,0.842l3.763,11.291Zm-3.635,-12.95c0.416,-0.085 0.859,-0.065 1.291,0.078c1.309,0.437 2.017,1.854 1.581,3.163l-0.71,2.128l-1.342,-4.026c-0.071,-0.21 -0.16,-0.414 -0.268,-0.608c-0.148,-0.263 -0.33,-0.504 -0.539,-0.722l-0.013,-0.013Z" style="fill:#f10dc3;"/>
            <path d="M16,16.657l0,0.343c0,3.314 2.686,6 6,6l1,0l0,1.158c0,0.923 -0.426,1.796 -1.154,2.364c-0.728,0.569 -1.677,0.77 -2.574,0.546c-0.917,-0.229 -1.782,-0.445 -2.294,-0.574c-0.318,-0.079 -0.643,-0.119 -0.97,-0.119l-0.016,0c-0.327,0 -0.652,0.04 -0.97,0.119c-0.512,0.129 -1.377,0.345 -2.294,0.574c-0.897,0.224 -1.846,0.023 -2.574,-0.546c-0.728,-0.568 -1.154,-1.441 -1.154,-2.364c0,-0.172 0,-0.34 0,-0.501c0,-1.061 0.421,-2.078 1.172,-2.829l1.98,-1.98c0.73,-0.264 1.306,-0.817 1.61,-1.507c0.657,-0.443 1.435,-0.684 2.238,-0.684Z" style="fill:#ff80b7;"/>
            <path d="M16.993,3.582c-1.047,0.258 -1.601,1.672 -1.235,3.156c0.365,1.484 1.513,2.479 2.56,2.221c1.048,-0.258 1.602,-1.672 1.236,-3.156c-0.366,-1.484 -1.513,-2.479 -2.561,-2.221Z" style="fill:#ff80b7;"/>
        </g>
    </g>
</svg>
