<?xml version="1.0" encoding="UTF-8" standalone="no"?>
<!DOCTYPE svg PUBLIC "-//W3C//DTD SVG 1.1//EN" "http://www.w3.org/Graphics/SVG/1.1/DTD/svg11.dtd">
<svg width="100%" height="100%" viewBox="0 0 32 32" version="1.1" xmlns="http://www.w3.org/2000/svg" xmlns:xlink="http://www.w3.org/1999/xlink" xml:space="preserve" xmlns:serif="http://www.serif.com/" style="fill-rule:evenodd;clip-rule:evenodd;stroke-linejoin:round;stroke-miterlimit:2;">
    <rect id="fist_facing_right--paw-" serif:id="fist_facing_right [paw]" x="0" y="0" width="32" height="32" style="fill:none;"/>
    <clipPath id="_clip1">
        <rect x="0" y="0" width="32" height="32"/>
    </clipPath>
    <g clip-path="url(#_clip1)">
        <g id="outline">
            <path d="M25,6c3.866,0 7,3.134 7,7c0,0.984 0,2.016 0,3c0,3.171 -2.108,5.849 -5,6.71l0,0.29c0,1.326 -0.527,2.598 -1.464,3.536c-0.938,0.937 -2.21,1.464 -3.536,1.464l-3.277,0c-2.307,0 -4.502,-0.996 -6.021,-2.732l-4.61,-5.268l-6.092,0c-1.105,0 -2,-0.895 -2,-2l0,-10c0,-1.105 0.895,-2 2,-2l23,0Z"/>
        </g>
        <g id="emoji">
            <path d="M7,18l-5,0l0,-10l5,0l1,1l0,8l-1,1Z" style="fill:#a90eb1;"/>
            <path d="M7,8l18,0c2.761,0 5,2.239 5,5c0,0.984 0,2.016 0,3c0,2.751 -2.221,4.983 -4.968,5l-0.032,0l-1,1l1,1c0,0.796 -0.316,1.559 -0.879,2.121c-0.562,0.563 -1.325,0.879 -2.121,0.879l-3.277,0c-1.731,0 -3.377,-0.747 -4.516,-2.049l-5.207,-5.951l-2,0l0,-10Z" style="fill:#f10dc3;"/>
            <path d="M25,23l-3.93,0c-1.003,0 -1.939,-0.501 -2.496,-1.336l-3.861,-5.791l0.837,-0.838c1.326,-1.326 3.209,-1.933 5.06,-1.633c1.851,0.3 3.445,1.472 4.284,3.15c0,0 0,0.001 0,0.001l-1.788,0.894c0,0 -0.001,0 -0.001,-0.001c-0.551,-1.102 -1.599,-1.872 -2.815,-2.07c-1.067,-0.173 -2.15,0.113 -2.988,0.774l2.936,4.405c0.186,0.278 0.498,0.445 0.832,0.445l3.93,0l0,2Z" style="fill:#640082;"/>
        </g>
    </g>
</svg>
