<?xml version="1.0" encoding="UTF-8" standalone="no"?>
<!DOCTYPE svg PUBLIC "-//W3C//DTD SVG 1.1//EN" "http://www.w3.org/Graphics/SVG/1.1/DTD/svg11.dtd">
<svg width="100%" height="100%" viewBox="0 0 32 32" version="1.1" xmlns="http://www.w3.org/2000/svg" xmlns:xlink="http://www.w3.org/1999/xlink" xml:space="preserve" xmlns:serif="http://www.serif.com/" style="fill-rule:evenodd;clip-rule:evenodd;stroke-linecap:round;stroke-linejoin:round;stroke-miterlimit:2;">
    <rect id="fist_facing_left--paw-" serif:id="fist_facing_left [paw]" x="0" y="0" width="32" height="32" style="fill:none;"/>
    <g id="outline">
        <path d="M7,21l0,0c-2.761,0 -5,-2.239 -5,-5c0,-0.984 0,-2.016 0,-3c0,-2.761 2.239,-5 5,-5c8.052,0 23,0 23,0l0,10l-7,0c0,0 -3.133,3.581 -5.207,5.951c-1.139,1.302 -2.785,2.049 -4.516,2.049c-1.034,0 -2.218,0 -3.277,0c-0.796,0 -1.559,-0.316 -2.121,-0.879c-0.563,-0.562 -0.879,-1.325 -0.879,-2.121c0,-1.063 0,-2 0,-2Z" style="fill:none;stroke:#000;stroke-width:4px;"/>
    </g>
    <g id="emoji">
        <path d="M7,21l0,0c-2.761,0 -5,-2.239 -5,-5c0,-0.984 0,-2.016 0,-3c0,-2.761 2.239,-5 5,-5c8.052,0 23,0 23,0l0,10l-7,0c0,0 -3.133,3.581 -5.207,5.951c-1.139,1.302 -2.785,2.049 -4.516,2.049c-1.034,0 -2.218,0 -3.277,0c-0.796,0 -1.559,-0.316 -2.121,-0.879c-0.563,-0.562 -0.879,-1.325 -0.879,-2.121c0,-1.063 0,-2 0,-2Z" style="fill:#f10dc3;"/>
        <clipPath id="_clip1">
            <path d="M7,21l0,0c-2.761,0 -5,-2.239 -5,-5c0,-0.984 0,-2.016 0,-3c0,-2.761 2.239,-5 5,-5c8.052,0 23,0 23,0l0,10l-7,0c0,0 -3.133,3.581 -5.207,5.951c-1.139,1.302 -2.785,2.049 -4.516,2.049c-1.034,0 -2.218,0 -3.277,0c-0.796,0 -1.559,-0.316 -2.121,-0.879c-0.563,-0.562 -0.879,-1.325 -0.879,-2.121c0,-1.063 0,-2 0,-2Z"/>
        </clipPath>
        <g clip-path="url(#_clip1)">
            <rect x="25" y="6.5" width="6" height="12.5" style="fill:#a90eb1;"/>
            <path d="M12.43,13.327l0.087,0.003l0.086,0.003l0.086,0.005l0.086,0.006l0.086,0.007l0.085,0.009l0.085,0.01l0.086,0.011l0.084,0.012l0.085,0.013l0.085,0.015l0.084,0.016l0.083,0.017l0.084,0.019l0.083,0.019l0.083,0.021l0.083,0.022l0.082,0.024l0.082,0.024l0.082,0.026l0.081,0.027l0.08,0.028l0.081,0.029l0.08,0.03l0.079,0.032l0.079,0.032l0.079,0.034l0.078,0.036l0.077,0.036l0.078,0.037l0.076,0.039l0.076,0.039l0.076,0.041l0.075,0.042l0.074,0.043l0.074,0.044l0.073,0.046l0.072,0.046l0.073,0.048l0.071,0.049l0.07,0.049l0.07,0.051l0.07,0.052l0.069,0.053l0.067,0.054l0.067,0.056l0.067,0.056l0.066,0.057l0.064,0.059l0.065,0.059l0.063,0.061l0.06,0.059l0.84,0.84l-3.866,5.798l-0.048,0.07l-0.056,0.076l-0.057,0.073l-0.06,0.071l-0.062,0.069l-0.063,0.067l-0.066,0.065l-0.067,0.063l-0.069,0.06l-0.071,0.059l-0.072,0.056l-0.074,0.054l-0.075,0.051l-0.078,0.049l-0.078,0.047l-0.08,0.044l-0.081,0.042l-0.082,0.039l-0.084,0.037l-0.084,0.034l-0.086,0.032l-0.087,0.029l-0.088,0.027l-0.088,0.024l-0.09,0.021l-0.09,0.018l-0.091,0.016l-0.092,0.013l-0.092,0.01l-0.093,0.007l-0.094,0.005l-0.085,0.001l-9.938,0l0,-2l9.922,0l0.039,-0.001l0.031,-0.001l0.031,-0.002l0.031,-0.004l0.03,-0.004l0.031,-0.005l0.03,-0.007l0.029,-0.007l0.03,-0.007l0.029,-0.009l0.029,-0.01l0.029,-0.011l0.028,-0.011l0.028,-0.012l0.027,-0.013l0.027,-0.014l0.027,-0.015l0.026,-0.016l0.026,-0.016l0.025,-0.017l0.025,-0.018l0.024,-0.019l0.023,-0.019l0.023,-0.02l0.023,-0.021l0.021,-0.022l0.022,-0.022l0.02,-0.023l0.02,-0.024l0.019,-0.024l0.019,-0.026l0.022,-0.032l2.932,-4.398l-0.006,-0.005l-0.045,-0.035l-0.045,-0.034l-0.046,-0.033l-0.047,-0.033l-0.047,-0.032l-0.047,-0.031l-0.048,-0.031l-0.048,-0.03l-0.048,-0.029l-0.049,-0.028l-0.049,-0.027l-0.05,-0.027l-0.05,-0.026l-0.05,-0.026l-0.051,-0.024l-0.051,-0.024l-0.051,-0.023l-0.052,-0.022l-0.052,-0.022l-0.052,-0.021l-0.053,-0.02l-0.052,-0.019l-0.054,-0.018l-0.053,-0.018l-0.054,-0.017l-0.053,-0.016l-0.054,-0.015l-0.055,-0.015l-0.054,-0.013l-0.055,-0.013l-0.055,-0.012l-0.055,-0.012l-0.055,-0.01l-0.056,-0.01l-0.055,-0.009l-0.056,-0.008l-0.056,-0.007l-0.056,-0.007l-0.056,-0.005l-0.057,-0.005l-0.056,-0.004l-0.057,-0.003l-0.056,-0.002l-0.057,-0.002l-0.057,0l-0.056,0l-0.057,0.001l-0.057,0.002l-0.057,0.003l-0.057,0.003l-0.057,0.005l-0.057,0.005l-0.058,0.006l-0.057,0.007l-0.057,0.008l-0.057,0.009l-0.057,0.01l-0.056,0.01l-0.057,0.012l-0.056,0.012l-0.056,0.013l-0.055,0.014l-0.056,0.014l-0.054,0.016l-0.055,0.016l-0.054,0.017l-0.054,0.017l-0.054,0.019l-0.054,0.019l-0.053,0.02l-0.052,0.021l-0.052,0.022l-0.052,0.022l-0.052,0.023l-0.051,0.024l-0.051,0.025l-0.05,0.025l-0.05,0.026l-0.05,0.027l-0.049,0.027l-0.048,0.028l-0.049,0.029l-0.048,0.03l-0.047,0.03l-0.047,0.031l-0.046,0.031l-0.046,0.033l-0.046,0.033l-0.045,0.033l-0.045,0.035l-0.043,0.034l-0.044,0.036l-0.043,0.036l-0.042,0.037l-0.042,0.038l-0.042,0.038l-0.041,0.039l-0.04,0.039l-0.04,0.04l-0.039,0.04l-0.038,0.041l-0.039,0.042l-0.037,0.043l-0.037,0.042l-0.036,0.044l-0.035,0.044l-0.035,0.044l-0.035,0.046l-0.033,0.045l-0.033,0.047l-0.033,0.046l-0.032,0.048l-0.031,0.048l-0.03,0.048l-0.03,0.049l-0.029,0.049l-0.028,0.05l-0.028,0.05l-0.027,0.052l-0.026,0.051l0.003,-0.006l-1.796,-0.88l0.004,-0.009l0.04,-0.078l0.041,-0.077l0.042,-0.077l0.043,-0.076l0.044,-0.075l0.045,-0.075l0.047,-0.073l0.047,-0.073l0.048,-0.072l0.05,-0.071l0.05,-0.071l0.051,-0.069l0.053,-0.069l0.053,-0.068l0.054,-0.067l0.055,-0.066l0.056,-0.065l0.057,-0.065l0.058,-0.063l0.059,-0.063l0.059,-0.061l0.061,-0.061l0.061,-0.06l0.062,-0.059l0.063,-0.058l0.064,-0.057l0.065,-0.056l0.065,-0.055l0.066,-0.054l0.067,-0.053l0.068,-0.053l0.068,-0.051l0.07,-0.05l0.07,-0.049l0.07,-0.048l0.072,-0.047l0.072,-0.046l0.073,-0.045l0.073,-0.044l0.074,-0.043l0.075,-0.042l0.075,-0.04l0.076,-0.04l0.077,-0.038l0.077,-0.038l0.078,-0.036l0.079,-0.035l0.078,-0.034l0.08,-0.033l0.08,-0.032l0.081,-0.03l0.081,-0.03l0.082,-0.028l0.082,-0.027l0.083,-0.026l0.083,-0.024l0.083,-0.024l0.084,-0.022l0.085,-0.021l0.085,-0.02l0.085,-0.018l0.086,-0.017l0.086,-0.016l0.087,-0.015l0.087,-0.014l0.086,-0.012l0.087,-0.01l0.087,-0.01l0.087,-0.008l0.087,-0.007l0.086,-0.005l0.087,-0.005l0.087,-0.002l0.086,-0.002l0.087,0l0.086,0Z" style="fill:#640082;"/>
        </g>
    </g>
</svg>
