<?xml version="1.0" encoding="UTF-8" standalone="no"?>
<!DOCTYPE svg PUBLIC "-//W3C//DTD SVG 1.1//EN" "http://www.w3.org/Graphics/SVG/1.1/DTD/svg11.dtd">
<svg width="100%" height="100%" viewBox="0 0 32 32" version="1.1" xmlns="http://www.w3.org/2000/svg" xmlns:xlink="http://www.w3.org/1999/xlink" xml:space="preserve" xmlns:serif="http://www.serif.com/" style="fill-rule:evenodd;clip-rule:evenodd;stroke-linejoin:round;stroke-miterlimit:2;">
    <rect id="fist--paw-" serif:id="fist [paw]" x="0" y="0" width="32" height="32" style="fill:none;"/>
    <g id="outline">
        <path d="M19.75,3.201c0.874,-0.748 2.01,-1.201 3.25,-1.201c2.76,0 5,2.24 5,5l0,4.352c0.817,0.324 1.544,0.861 2.099,1.571c0.947,1.214 1.283,2.796 0.909,4.29c-0.275,1.103 -0.59,2.36 -0.91,3.642c-1.51,6.04 -6.983,10.243 -13.207,10.145l0,0.019c0,0 -0.451,-0.001 -1.142,-0.003c-6.412,-0.015 -11.995,-4.384 -13.55,-10.604c-0.678,-2.711 -1.3,-5.199 -1.3,-5.199c-0.669,-2.678 0.961,-5.394 3.638,-6.064c0.406,-0.101 0.812,-0.15 1.212,-0.15c0,-2.241 1.517,-4.282 3.788,-4.85c0.955,-0.238 1.915,-0.185 2.785,0.105c0.894,-1.357 2.432,-2.254 4.178,-2.254c1.24,0 2.376,0.453 3.25,1.201Z"/>
    </g>
    <g id="emoji">
        <path d="M18,21c0,0 -8.235,-2 -13,-2c-0.556,0 -1.366,-1.144 -1.38,-1.15l-0.354,-1.416c0.255,0.238 2.734,-5.422 2.734,-5.422l2,-2.012l2,-2l8,-2l3,0l5,6.012l0,9.988l-8,0Z" style="fill:#640082;"/>
        <path d="M26.158,13c0.923,0 1.796,0.426 2.364,1.154c0.569,0.728 0.77,1.677 0.546,2.574c-0.262,1.048 -0.559,2.235 -0.862,3.448c-1.296,5.186 -5.956,8.824 -11.302,8.824l-1.127,0c-5.506,0 -10.306,-3.748 -11.642,-9.09l-0.515,-2.06c0.06,0.027 0.12,0.052 0.181,0.075c1.098,0.419 2.329,0.296 3.323,-0.331c0.011,-0.007 0.021,-0.014 0.032,-0.021c0.865,-0.546 1.445,-1.405 1.653,-2.36c0.722,0.613 1.699,0.908 2.697,0.733c0,0 0,0 0,0c1.235,-0.217 2.194,-1.101 2.557,-2.225c0.157,0.163 0.33,0.311 0.518,0.441c0.147,0.102 0.301,0.192 0.461,0.269c-0.018,0.078 0.958,4.569 0.958,4.569l6,2l1.564,-1l0.436,0l0,-2l-2,0c-1.061,0 -2.078,-0.421 -2.828,-1.172c-0.751,-0.75 -1.172,-1.767 -1.172,-2.828l0,-1l8.158,0Zm-22.892,3.434l-0.426,-1.706c-0.402,-1.607 0.576,-3.237 2.182,-3.638c0.774,-0.194 1.554,-0.067 2.199,0.296l0.592,2.37c0.286,1.144 -0.194,2.342 -1.191,2.972c-0.011,0.007 -0.021,0.013 -0.032,0.02c-0.727,0.459 -1.629,0.549 -2.432,0.243c-0.335,-0.128 -0.637,-0.319 -0.892,-0.557Zm5.484,-3.066l-0.91,-3.64c-0.402,-1.607 0.576,-3.237 2.182,-3.638c0.907,-0.227 1.822,-0.014 2.519,0.504l0.666,5.859c0.137,1.2 -0.684,2.299 -1.874,2.508c0,0 0,0 0,0c-1.146,0.201 -2.253,-0.49 -2.583,-1.593Zm7.25,0.346c-0.029,-0.006 -0.058,-0.013 -0.087,-0.021c-0.293,-0.078 -0.571,-0.211 -0.816,-0.391c-0.261,-0.192 -0.483,-0.436 -0.649,-0.714c-0.178,-0.298 -0.288,-0.631 -0.33,-0.975l-0.579,-5.095c0.23,-1.427 1.469,-2.518 2.961,-2.518c1.043,0 1.962,0.533 2.5,1.342l0,5.658l-3,0l0,2.714Zm4,-2.714l0,-4c0.002,-0.376 0.07,-0.749 0.208,-1.1c0.34,-0.861 1.08,-1.533 1.971,-1.786c0.316,-0.09 0.647,-0.127 0.975,-0.11c0.336,0.017 0.668,0.091 0.98,0.218c0.346,0.141 0.665,0.349 0.935,0.607c0.279,0.266 0.507,0.585 0.666,0.937c0.175,0.388 0.262,0.809 0.265,1.234l0,4l-6,0Z" style="fill:#f10dc3;"/>
        <path d="M23.564,20c0.284,0.556 0.436,1.177 0.436,1.815c0,0.021 0,0.041 0,0.062c0,1.232 -0.567,2.395 -1.538,3.153c-0.971,0.758 -2.237,1.026 -3.432,0.727c-0.905,-0.226 -1.739,-0.434 -2.302,-0.575c-0.478,-0.12 -0.978,-0.12 -1.456,0c-0.563,0.141 -1.397,0.349 -2.302,0.575c-1.195,0.299 -2.461,0.031 -3.432,-0.727c-0.971,-0.758 -1.538,-1.921 -1.538,-3.153c0,-0.021 0,-0.041 0,-0.062c0,-1.153 0.498,-2.251 1.366,-3.01c1.095,-0.958 2.663,-2.33 4,-3.5c0.496,-0.434 1.072,-0.725 1.676,-0.874c0.318,0.154 0.657,0.258 1.004,0.308c0.163,1.319 0.762,2.554 1.711,3.504c1.126,1.125 2.652,1.757 4.243,1.757l1.564,0Z" style="fill:#ff80b7;"/>
    </g>
</svg>
