<?xml version="1.0" encoding="UTF-8" standalone="no"?><!DOCTYPE svg PUBLIC "-//W3C//DTD SVG 1.1//EN" "http://www.w3.org/Graphics/SVG/1.1/DTD/svg11.dtd"><svg width="100%" height="100%" viewBox="0 0 32 32" version="1.1" xmlns="http://www.w3.org/2000/svg" xmlns:xlink="http://www.w3.org/1999/xlink" xml:space="preserve" xmlns:serif="http://www.serif.com/" style="fill-rule:evenodd;clip-rule:evenodd;stroke-linecap:round;stroke-miterlimit:1.5;"><rect id="fist--paw-" serif:id="fist [paw]" x="0" y="0" width="32" height="32" style="fill:none;"/><g id="outline"><path d="M12.322,4.254c0.159,-0.242 0.339,-0.47 0.537,-0.681c0.518,-0.551 1.161,-0.98 1.868,-1.248c0.377,-0.143 0.77,-0.24 1.17,-0.289c0.151,-0.018 0.301,-0.027 0.452,-0.034c0.152,-0.002 0.151,-0.002 0.302,0c0.151,0.007 0.301,0.016 0.452,0.034c0.4,0.049 0.793,0.146 1.17,0.289c0.538,0.204 1.04,0.502 1.477,0.876c0.45,-0.385 0.967,-0.689 1.523,-0.893c0.351,-0.13 0.717,-0.219 1.088,-0.267c0.159,-0.021 0.318,-0.031 0.479,-0.038c0.16,-0.003 0.16,-0.003 0.32,0c0.161,0.007 0.32,0.017 0.479,0.038c0.371,0.048 0.737,0.137 1.088,0.267c0.652,0.24 1.252,0.617 1.751,1.1c0.538,0.521 0.956,1.163 1.214,1.865c0.148,0.401 0.244,0.821 0.285,1.247c0.015,0.16 0.02,0.319 0.023,0.48l0,4.352c0.032,0.012 0.063,0.025 0.094,0.038c0.433,0.182 0.84,0.425 1.206,0.72c0.962,0.778 1.611,1.907 1.8,3.129c0.064,0.42 0.075,0.847 0.032,1.269c-0.019,0.19 -0.052,0.377 -0.09,0.564c-0.308,1.313 -0.646,2.618 -0.98,3.924c-0.112,0.419 -0.24,0.833 -0.389,1.24c-0.294,0.799 -0.664,1.569 -1.104,2.298c-0.838,1.387 -1.93,2.618 -3.207,3.618c-1.275,0.998 -2.73,1.763 -4.276,2.245c-0.902,0.281 -1.833,0.466 -2.774,0.55c-0.326,0.03 -0.653,0.046 -0.98,0.052c-0.096,0.008 -0.191,0.013 -0.287,0.018c-0.482,0.006 -0.964,0.002 -1.445,-0.002c-0.446,-0.008 -0.891,-0.033 -1.334,-0.081c-0.872,-0.094 -1.734,-0.271 -2.572,-0.527c-1.552,-0.474 -3.018,-1.219 -4.316,-2.193c-1.372,-1.03 -2.552,-2.312 -3.462,-3.766c-0.517,-0.824 -0.947,-1.703 -1.281,-2.616c-0.153,-0.419 -0.284,-0.845 -0.399,-1.276c-0.455,-1.779 -0.891,-3.562 -1.337,-5.343c-0.047,-0.201 -0.087,-0.401 -0.112,-0.606c-0.05,-0.407 -0.049,-0.821 0.002,-1.228c0.16,-1.281 0.825,-2.471 1.832,-3.279c0.36,-0.289 0.761,-0.528 1.187,-0.707c0.378,-0.16 0.776,-0.272 1.182,-0.335c0.204,-0.031 0.408,-0.047 0.613,-0.056c0.073,-0.001 0.111,-0.001 0.147,-0.001c0,-0.214 0.014,-0.427 0.041,-0.638c0.159,-1.239 0.79,-2.393 1.747,-3.195c0.374,-0.314 0.794,-0.572 1.243,-0.764c0.408,-0.175 0.839,-0.295 1.279,-0.356c0.176,-0.025 0.352,-0.037 0.53,-0.045c0.133,-0.003 0.133,-0.003 0.266,-0.002c0.134,0.005 0.266,0.011 0.399,0.025c0.309,0.031 0.615,0.091 0.913,0.179c0.052,0.016 0.103,0.032 0.154,0.049Z"/></g><g id="emoji"><path d="M18,5l3,0l0,12l-15,0l0,-5.988l2,-2.012l2,-2l4,-1l4,-1Z" style="fill:#640082;"/><path d="M3.264,16.431c-0.141,-0.568 -0.282,-1.136 -0.424,-1.703c-0.027,-0.117 -0.051,-0.233 -0.066,-0.352c-0.035,-0.276 -0.031,-0.557 0.011,-0.832c0.115,-0.751 0.521,-1.442 1.12,-1.909c0.219,-0.172 0.463,-0.312 0.721,-0.416c0.221,-0.09 0.453,-0.153 0.689,-0.187c0.118,-0.018 0.237,-0.025 0.356,-0.031c0.12,-0.001 0.12,-0.001 0.239,0.003c0.279,0.021 0.551,0.068 0.817,0.159c0.487,0.168 0.924,0.462 1.265,0.845l0.329,-0.329c-0.159,-0.651 -0.319,-1.302 -0.481,-1.951c-0.024,-0.102 -0.045,-0.202 -0.06,-0.305c-0.039,-0.274 -0.04,-0.552 -0.003,-0.826c0.037,-0.274 0.112,-0.542 0.223,-0.795c0.305,-0.7 0.878,-1.267 1.581,-1.565c0.254,-0.107 0.523,-0.18 0.798,-0.214c0.103,-0.013 0.206,-0.018 0.309,-0.022c0.104,-0.001 0.103,-0.001 0.207,0.003c0.277,0.018 0.548,0.064 0.812,0.153c0.657,0.221 1.226,0.672 1.592,1.26c0.077,0.125 0.144,0.255 0.201,0.388l0,-0.805c0,-1.657 1.343,-3 3,-3c1.657,0 3,1.343 3,3l0,1l0.5,0l0,-1c0,-1.657 1.343,-3 3,-3c1.657,0 3,1.343 3,3l0,4.032l-1,0.976l1,0.992l0.158,0c0.923,0 1.796,0.426 2.364,1.154c0.569,0.728 0.77,1.677 0.546,2.574c-0.262,1.048 -0.559,2.235 -0.862,3.448c-1.266,5.062 -5.736,8.65 -10.921,8.818c-0.09,0.011 -0.18,0.017 -0.27,0.022c-0.463,0.009 -0.926,0.003 -1.39,-0.001c-0.382,-0.007 -0.763,-0.028 -1.143,-0.069c-0.747,-0.081 -1.486,-0.233 -2.204,-0.452c-1.33,-0.406 -2.587,-1.045 -3.699,-1.88c-1.176,-0.882 -2.188,-1.981 -2.969,-3.228c-0.442,-0.706 -0.81,-1.459 -1.097,-2.242c-0.131,-0.359 -0.243,-0.724 -0.342,-1.093c-0.187,-0.734 -0.372,-1.468 -0.555,-2.203c0.125,0.056 0.305,-0.443 0.305,-0.443c-0.261,-0.119 -0.65,-0.967 -0.657,-0.974Z" style="fill:#f10dc3;"/><path d="M8,21.815c0,-1.153 0.498,-2.251 1.366,-3.01c1.095,-0.958 2.663,-2.33 4,-3.5c1.508,-1.32 3.76,-1.32 5.268,0c2.331,2.04 5.366,4.695 5.366,4.695c0,0 0,0.809 0,1.877c0,1.232 -0.567,2.395 -1.538,3.153c-0.971,0.758 -2.237,1.026 -3.432,0.727c-0.905,-0.226 -1.739,-0.434 -2.302,-0.575c-0.478,-0.12 -0.978,-0.12 -1.456,0c-0.563,0.141 -1.397,0.349 -2.302,0.575c-1.195,0.299 -2.461,0.031 -3.432,-0.727c-0.971,-0.758 -1.538,-1.921 -1.538,-3.153c0,-0.021 0,-0.041 0,-0.062Z" style="fill:#ff80b7;"/><path d="M20.764,5l1.236,9l-2,5l-15.487,2.144c0,0 -0.243,-0.724 -0.342,-1.093c-0.453,-1.772 -0.888,-3.549 -1.331,-5.323c-0.027,-0.117 -0.051,-0.233 -0.066,-0.352c-0.035,-0.276 -0.031,-0.557 0.011,-0.832c0.115,-0.751 0.521,-1.442 1.12,-1.909c0.219,-0.172 0.463,-0.312 0.721,-0.416c0.221,-0.09 0.453,-0.153 0.689,-0.187c0.118,-0.018 0.237,-0.025 0.356,-0.031c0.12,-0.001 0.12,-0.001 0.239,0.003c0.03,0.002 0.06,0.005 0.09,0.008l0,0l1.76,-1.77l4.531,-2.815l1.35,-0.337l2.359,-1.09l4.764,0Z" style="fill:none;"/><clipPath id="_clip1"><path d="M20.764,5l1.236,9l-2,5l-15.487,2.144c0,0 -0.243,-0.724 -0.342,-1.093c-0.453,-1.772 -0.888,-3.549 -1.331,-5.323c-0.027,-0.117 -0.051,-0.233 -0.066,-0.352c-0.035,-0.276 -0.031,-0.557 0.011,-0.832c0.115,-0.751 0.521,-1.442 1.12,-1.909c0.219,-0.172 0.463,-0.312 0.721,-0.416c0.221,-0.09 0.453,-0.153 0.689,-0.187c0.118,-0.018 0.237,-0.025 0.356,-0.031c0.12,-0.001 0.12,-0.001 0.239,0.003c0.03,0.002 0.06,0.005 0.09,0.008l0,0l1.76,-1.77l4.531,-2.815l1.35,-0.337l2.359,-1.09l4.764,0Z"/></clipPath><g clip-path="url(#_clip1)"><path d="M6.782,7.568c0,0 0.841,3.365 1.454,5.819c0.355,1.417 1.744,2.32 3.183,2.067c0,0 0.001,0 0.001,0c1.449,-0.255 2.45,-1.595 2.284,-3.057c-0.331,-2.907 -0.82,-7.211 -0.82,-7.211" style="fill:none;stroke:#640082;stroke-width:1px;"/><path d="M19.5,4c0,0 0,4.485 0,7.332c0,1.348 -0.917,2.522 -2.225,2.849c-0.008,0.002 -0.015,0.004 -0.023,0.006c-0.821,0.205 -1.691,0.046 -2.386,-0.436c-0.696,-0.482 -1.149,-1.241 -1.245,-2.082c-0.323,-2.845 -0.737,-6.483 -0.737,-6.483" style="fill:none;stroke:#640082;stroke-width:1px;"/><path d="M6.782,7.568c0,0 0.899,3.599 1.516,6.067c0.339,1.353 -0.23,2.771 -1.409,3.516c-0.011,0.006 -0.021,0.013 -0.032,0.02c-0.86,0.543 -1.927,0.65 -2.878,0.287c-0.951,-0.363 -1.675,-1.153 -1.955,-2.132c-0.003,-0.012 -0.005,-0.019 -0.005,-0.019" style="fill:none;stroke:#640082;stroke-width:1px;"/></g><path d="M26,12l-9,0c0,0 0,0.872 0,2c0,1.326 0.527,2.598 1.464,3.536c0.938,0.937 2.21,1.464 3.536,1.464c1.128,0 2,0 2,0" style="fill:#f10dc3;stroke:#640082;stroke-width:2px;stroke-linecap:butt;"/></g></svg>