<?xml version="1.0" encoding="UTF-8" standalone="no"?><!DOCTYPE svg PUBLIC "-//W3C//DTD SVG 1.1//EN" "http://www.w3.org/Graphics/SVG/1.1/DTD/svg11.dtd"><svg width="100%" height="100%" viewBox="0 0 32 32" version="1.1" xmlns="http://www.w3.org/2000/svg" xmlns:xlink="http://www.w3.org/1999/xlink" xml:space="preserve" xmlns:serif="http://www.serif.com/" style="fill-rule:evenodd;clip-rule:evenodd;stroke-linejoin:round;stroke-miterlimit:1.41421;"><rect id="fist_facing_left--paw-" serif:id="fist_facing_left [paw]" x="0" y="0" width="32" height="32" style="fill:none;"/><clipPath id="_clip1"><rect x="0" y="0" width="32" height="32"/></clipPath><g clip-path="url(#_clip1)"><g id="outline"><path d="M32,20l-8.092,0l-4.614,5.273l-0.068,0.076l-0.072,0.08l-0.074,0.078l-0.074,0.078l-0.076,0.076l-0.076,0.076l-0.078,0.074l-0.078,0.073l-0.079,0.072l-0.08,0.071l-0.081,0.069l-0.082,0.069l-0.083,0.067l-0.083,0.066l-0.084,0.065l-0.085,0.064l-0.086,0.063l-0.087,0.062l-0.087,0.06l-0.088,0.059l-0.089,0.058l-0.089,0.057l-0.09,0.055l-0.091,0.055l-0.092,0.053l-0.092,0.051l-0.093,0.051l-0.094,0.049l-0.094,0.048l-0.095,0.047l-0.095,0.046l-0.096,0.044l-0.096,0.043l-0.098,0.042l-0.097,0.04l-0.098,0.04l-0.099,0.037l-0.099,0.037l-0.1,0.035l-0.1,0.034l-0.101,0.033l-0.101,0.031l-0.102,0.03l-0.102,0.029l-0.102,0.027l-0.103,0.026l-0.104,0.025l-0.103,0.023l-0.104,0.022l-0.105,0.021l-0.104,0.019l-0.105,0.018l-0.106,0.016l-0.106,0.015l-0.106,0.014l-0.106,0.012l-0.107,0.011l-0.106,0.009l-0.107,0.008l-0.108,0.006l-0.107,0.006l-0.108,0.003l-0.108,0.002l-0.101,0.001l-3.296,0l-0.112,-0.001l-0.124,-0.005l-0.123,-0.008l-0.123,-0.01l-0.123,-0.014l-0.121,-0.017l-0.121,-0.019l-0.121,-0.023l-0.12,-0.025l-0.119,-0.029l-0.118,-0.031l-0.117,-0.034l-0.117,-0.037l-0.115,-0.04l-0.114,-0.042l-0.113,-0.045l-0.112,-0.048l-0.111,-0.051l-0.11,-0.054l-0.108,-0.056l-0.108,-0.059l-0.105,-0.061l-0.104,-0.064l-0.103,-0.067l-0.101,-0.069l-0.1,-0.072l-0.098,-0.074l-0.096,-0.077l-0.094,-0.079l-0.093,-0.082l-0.091,-0.085l-0.089,-0.086l-0.086,-0.089l-0.085,-0.091l-0.081,-0.092l-0.08,-0.095l-0.077,-0.096l-0.074,-0.098l-0.072,-0.1l-0.069,-0.101l-0.067,-0.102l-0.064,-0.105l-0.061,-0.105l-0.059,-0.107l-0.056,-0.109l-0.054,-0.11l-0.05,-0.11l-0.049,-0.112l-0.045,-0.114l-0.042,-0.114l-0.04,-0.115l-0.037,-0.117l-0.034,-0.117l-0.031,-0.118l-0.029,-0.119l-0.025,-0.12l-0.023,-0.12l-0.019,-0.122l-0.017,-0.121l-0.014,-0.123l-0.01,-0.123l-0.008,-0.123l-0.005,-0.124l-0.001,-0.112l0,-0.302l-0.081,-0.025l-0.082,-0.026l-0.082,-0.027l-0.081,-0.028l-0.081,-0.029l-0.08,-0.03l-0.086,-0.033l-0.152,-0.063l-0.157,-0.068l-0.154,-0.072l-0.152,-0.076l-0.15,-0.079l-0.148,-0.083l-0.145,-0.085l-0.143,-0.09l-0.141,-0.093l-0.138,-0.095l-0.136,-0.1l-0.134,-0.102l-0.131,-0.105l-0.128,-0.108l-0.125,-0.112l-0.123,-0.114l-0.12,-0.117l-0.117,-0.12l-0.114,-0.123l-0.112,-0.125l-0.108,-0.129l-0.105,-0.13l-0.102,-0.134l-0.099,-0.135l-0.096,-0.139l-0.093,-0.141l-0.09,-0.143l-0.085,-0.145l-0.083,-0.148l-0.079,-0.15l-0.076,-0.152l-0.072,-0.154l-0.068,-0.157l-0.063,-0.152l-0.033,-0.086l-0.03,-0.08l-0.029,-0.081l-0.028,-0.081l-0.027,-0.082l-0.026,-0.082l-0.025,-0.083l-0.024,-0.083l-0.023,-0.083l-0.023,-0.084l-0.021,-0.084l-0.02,-0.085l-0.019,-0.085l-0.018,-0.086l-0.017,-0.085l-0.016,-0.086l-0.015,-0.086l-0.013,-0.087l-0.013,-0.088l-0.012,-0.087l-0.011,-0.088l-0.009,-0.088l-0.008,-0.088l-0.008,-0.088l-0.006,-0.089l-0.005,-0.089l-0.004,-0.09l-0.003,-0.089l-0.001,-0.09l-0.001,-0.084l0,-3.012l0.001,-0.084l0.001,-0.09l0.003,-0.089l0.004,-0.09l0.005,-0.089l0.006,-0.089l0.008,-0.088l0.008,-0.088l0.009,-0.088l0.011,-0.088l0.012,-0.087l0.013,-0.088l0.013,-0.087l0.015,-0.086l0.016,-0.086l0.017,-0.085l0.018,-0.086l0.019,-0.085l0.02,-0.085l0.021,-0.084l0.023,-0.084l0.023,-0.083l0.024,-0.083l0.025,-0.083l0.026,-0.082l0.027,-0.082l0.028,-0.081l0.029,-0.081l0.03,-0.08l0.033,-0.086l0.063,-0.152l0.068,-0.157l0.072,-0.154l0.076,-0.152l0.079,-0.15l0.083,-0.148l0.085,-0.145l0.09,-0.143l0.093,-0.141l0.096,-0.139l0.099,-0.135l0.102,-0.134l0.105,-0.131l0.108,-0.128l0.112,-0.125l0.114,-0.123l0.117,-0.12l0.12,-0.117l0.123,-0.114l0.125,-0.112l0.129,-0.108l0.13,-0.105l0.134,-0.102l0.135,-0.1l0.139,-0.095l0.141,-0.093l0.143,-0.089l0.145,-0.086l0.148,-0.083l0.15,-0.079l0.152,-0.076l0.154,-0.072l0.157,-0.068l0.152,-0.063l0.086,-0.033l0.08,-0.03l0.081,-0.029l0.081,-0.028l0.082,-0.027l0.082,-0.026l0.083,-0.025l0.083,-0.024l0.083,-0.023l0.084,-0.023l0.084,-0.021l0.085,-0.02l0.085,-0.019l0.086,-0.018l0.085,-0.017l0.086,-0.016l0.086,-0.015l0.087,-0.013l0.088,-0.013l0.087,-0.012l0.088,-0.011l0.088,-0.009l0.088,-0.008l0.089,-0.008l0.088,-0.006l0.089,-0.005l0.09,-0.004l0.09,-0.003l0.089,-0.001l0.084,-0.001l25.006,0l0,14Zm-24.994,-10l-0.045,0l-0.04,0.001l-0.039,0.001l-0.038,0.002l-0.039,0.002l-0.038,0.003l-0.038,0.003l-0.038,0.004l-0.038,0.004l-0.038,0.004l-0.037,0.005l-0.037,0.006l-0.037,0.006l-0.037,0.006l-0.037,0.007l-0.037,0.007l-0.036,0.008l-0.036,0.008l-0.036,0.008l-0.036,0.009l-0.036,0.01l-0.036,0.01l-0.035,0.01l-0.035,0.011l-0.035,0.011l-0.034,0.011l-0.035,0.012l-0.035,0.013l-0.034,0.012l-0.028,0.011l-0.073,0.03l-0.067,0.029l-0.066,0.031l-0.064,0.032l-0.065,0.034l-0.063,0.035l-0.062,0.037l-0.061,0.039l-0.061,0.039l-0.059,0.041l-0.059,0.043l-0.057,0.044l-0.056,0.045l-0.056,0.047l-0.054,0.048l-0.052,0.049l-0.052,0.051l-0.051,0.051l-0.049,0.053l-0.048,0.054l-0.047,0.056l-0.045,0.056l-0.044,0.057l-0.043,0.059l-0.041,0.059l-0.039,0.06l-0.039,0.062l-0.037,0.062l-0.035,0.064l-0.034,0.064l-0.032,0.064l-0.031,0.066l-0.029,0.067l-0.03,0.073l-0.011,0.028l-0.012,0.034l-0.013,0.035l-0.012,0.034l-0.011,0.035l-0.011,0.035l-0.011,0.035l-0.01,0.036l-0.01,0.035l-0.01,0.036l-0.009,0.036l-0.008,0.036l-0.008,0.036l-0.008,0.036l-0.007,0.037l-0.007,0.037l-0.006,0.037l-0.006,0.037l-0.006,0.037l-0.005,0.037l-0.004,0.038l-0.004,0.038l-0.004,0.038l-0.003,0.038l-0.003,0.038l-0.002,0.039l-0.002,0.039l-0.001,0.039l-0.001,0.038l0,0.046l0,2.988l0,0.046l0.001,0.038l0.001,0.039l0.002,0.039l0.002,0.039l0.003,0.038l0.003,0.038l0.004,0.038l0.004,0.038l0.004,0.038l0.005,0.037l0.006,0.037l0.006,0.037l0.006,0.037l0.007,0.037l0.007,0.037l0.008,0.036l0.008,0.036l0.008,0.036l0.009,0.036l0.01,0.036l0.01,0.036l0.01,0.035l0.011,0.035l0.011,0.035l0.011,0.035l0.012,0.034l0.013,0.035l0.012,0.034l0.011,0.028l0.03,0.073l0.029,0.067l0.031,0.066l0.032,0.064l0.034,0.064l0.035,0.064l0.037,0.062l0.039,0.062l0.039,0.06l0.041,0.059l0.043,0.059l0.044,0.057l0.045,0.056l0.047,0.056l0.048,0.054l0.049,0.052l0.051,0.052l0.051,0.051l0.053,0.049l0.054,0.048l0.056,0.047l0.056,0.045l0.057,0.044l0.059,0.042l0.059,0.042l0.061,0.039l0.061,0.039l0.062,0.037l0.064,0.035l0.064,0.034l0.064,0.032l0.066,0.031l0.067,0.029l0.073,0.03l0.028,0.011l0.035,0.013l0.034,0.012l0.034,0.012l0.035,0.011l0.035,0.011l0.036,0.011l0.035,0.01l0.035,0.01l0.036,0.01l0.036,0.009l0.036,0.008l0.036,0.008l0.036,0.008l0.037,0.007l0.037,0.007l0.037,0.006l0.037,0.006l0.037,0.006l0.037,0.005l0.038,0.004l0.038,0.004l0.038,0.004l0.038,0.003l0.038,0.003l0.039,0.002l0.039,0.002l0.039,0.001l0.039,0.001l2.039,0.013l0,3.975l0,0.037l0.001,0.025l0.002,0.025l0.002,0.024l0.003,0.024l0.003,0.025l0.004,0.024l0.005,0.024l0.005,0.024l0.005,0.024l0.007,0.023l0.006,0.024l0.008,0.023l0.008,0.023l0.008,0.023l0.009,0.023l0.01,0.022l0.01,0.022l0.011,0.022l0.011,0.022l0.012,0.021l0.012,0.022l0.013,0.02l0.013,0.021l0.014,0.02l0.014,0.02l0.015,0.019l0.015,0.02l0.016,0.018l0.017,0.019l0.017,0.018l0.017,0.018l0.018,0.017l0.018,0.017l0.018,0.016l0.019,0.016l0.02,0.016l0.019,0.015l0.02,0.014l0.02,0.014l0.021,0.013l0.021,0.013l0.021,0.012l0.021,0.012l0.022,0.011l0.022,0.011l0.022,0.01l0.022,0.01l0.023,0.009l0.023,0.008l0.023,0.008l0.023,0.008l0.024,0.006l0.023,0.007l0.024,0.005l0.024,0.005l0.024,0.005l0.024,0.004l0.025,0.003l0.024,0.003l0.024,0.002l0.025,0.002l0.025,0.001l0.037,0l3.259,0l0.06,0l0.055,-0.002l0.053,-0.001l0.054,-0.003l0.054,-0.003l0.053,-0.004l0.054,-0.005l0.053,-0.005l0.053,-0.006l0.053,-0.007l0.053,-0.008l0.052,-0.008l0.053,-0.009l0.052,-0.009l0.053,-0.01l0.052,-0.011l0.051,-0.012l0.052,-0.012l0.051,-0.013l0.051,-0.014l0.052,-0.014l0.051,-0.015l0.05,-0.016l0.05,-0.016l0.051,-0.017l0.049,-0.018l0.05,-0.018l0.049,-0.019l0.05,-0.02l0.048,-0.02l0.049,-0.021l0.048,-0.021l0.048,-0.023l0.048,-0.023l0.047,-0.023l0.047,-0.024l0.047,-0.025l0.047,-0.025l0.046,-0.026l0.046,-0.026l0.045,-0.027l0.045,-0.028l0.045,-0.029l0.044,-0.029l0.044,-0.029l0.044,-0.03l0.043,-0.031l0.043,-0.031l0.043,-0.032l0.042,-0.033l0.041,-0.033l0.042,-0.034l0.04,-0.034l0.041,-0.035l0.04,-0.035l0.039,-0.036l0.04,-0.037l0.038,-0.037l0.038,-0.037l0.038,-0.038l0.038,-0.039l0.037,-0.04l0.036,-0.039l0.04,-0.046l5.8,-6.629l5.908,0l0,-6l-20.994,0Z"/></g><g id="emoji"><path d="M7,21c0,0 0,0 0,0c-2.761,0 -5,-2.239 -5,-5c0,-0.984 0,-2.016 0,-3c0,-2.761 2.239,-5 5,-5c8.052,0 23,0 23,0l0,10l-7,0c0,0 -3.133,3.581 -5.207,5.951c-1.139,1.302 -2.785,2.049 -4.516,2.049c-1.034,0 -2.218,0 -3.277,0c-0.796,0 -1.559,-0.316 -2.121,-0.879c-0.563,-0.562 -0.879,-1.325 -0.879,-2.121c0,-1.063 0,-2 0,-2Z" style="fill:#f10dc3;"/><clipPath id="_clip2"><path d="M7,21c0,0 0,0 0,0c-2.761,0 -5,-2.239 -5,-5c0,-0.984 0,-2.016 0,-3c0,-2.761 2.239,-5 5,-5c8.052,0 23,0 23,0l0,10l-7,0c0,0 -3.133,3.581 -5.207,5.951c-1.139,1.302 -2.785,2.049 -4.516,2.049c-1.034,0 -2.218,0 -3.277,0c-0.796,0 -1.559,-0.316 -2.121,-0.879c-0.563,-0.562 -0.879,-1.325 -0.879,-2.121c0,-1.063 0,-2 0,-2Z"/></clipPath><g clip-path="url(#_clip2)"><rect x="25" y="6.5" width="6" height="12.5" style="fill:#a90eb1;"/><path d="M12.43,13.327l0.087,0.003l0.086,0.003l0.086,0.005l0.086,0.006l0.086,0.007l0.085,0.009l0.085,0.01l0.086,0.011l0.084,0.012l0.085,0.013l0.085,0.015l0.084,0.016l0.083,0.017l0.084,0.019l0.083,0.019l0.083,0.021l0.083,0.022l0.082,0.024l0.082,0.024l0.082,0.026l0.081,0.027l0.08,0.028l0.081,0.029l0.08,0.03l0.079,0.032l0.079,0.032l0.079,0.035l0.078,0.035l0.077,0.036l0.078,0.037l0.076,0.039l0.076,0.039l0.076,0.041l0.075,0.042l0.074,0.043l0.074,0.044l0.073,0.046l0.073,0.046l0.072,0.048l0.071,0.049l0.071,0.049l0.069,0.051l0.07,0.052l0.068,0.053l0.068,0.054l0.068,0.056l0.066,0.056l0.066,0.057l0.065,0.059l0.064,0.059l0.063,0.061l0.06,0.059l0.84,0.84l-3.866,5.798l-0.048,0.07l-0.056,0.076l-0.057,0.073l-0.06,0.071l-0.062,0.069l-0.063,0.067l-0.066,0.065l-0.067,0.063l-0.069,0.061l-0.071,0.058l-0.072,0.056l-0.074,0.054l-0.076,0.051l-0.077,0.049l-0.078,0.047l-0.08,0.044l-0.081,0.042l-0.082,0.039l-0.084,0.037l-0.084,0.034l-0.086,0.032l-0.087,0.029l-0.088,0.027l-0.088,0.024l-0.09,0.021l-0.09,0.018l-0.091,0.016l-0.092,0.013l-0.092,0.01l-0.093,0.007l-0.094,0.005l-0.086,0.001l-9.937,0l0,-2l9.922,0l0.039,-0.001l0.031,-0.001l0.031,-0.002l0.031,-0.004l0.03,-0.004l0.031,-0.005l0.03,-0.007l0.029,-0.007l0.03,-0.007l0.029,-0.009l0.029,-0.01l0.029,-0.011l0.028,-0.011l0.028,-0.012l0.027,-0.014l0.027,-0.013l0.027,-0.015l0.026,-0.016l0.026,-0.016l0.025,-0.017l0.025,-0.018l0.024,-0.019l0.023,-0.019l0.023,-0.021l0.023,-0.02l0.021,-0.022l0.022,-0.022l0.02,-0.023l0.02,-0.024l0.019,-0.024l0.019,-0.026l0.022,-0.032l2.932,-4.398l-0.006,-0.005l-0.045,-0.035l-0.045,-0.034l-0.047,-0.033l-0.046,-0.033l-0.047,-0.032l-0.047,-0.031l-0.048,-0.031l-0.048,-0.03l-0.048,-0.029l-0.049,-0.028l-0.049,-0.027l-0.05,-0.027l-0.05,-0.026l-0.05,-0.026l-0.051,-0.024l-0.051,-0.024l-0.051,-0.023l-0.052,-0.022l-0.052,-0.022l-0.052,-0.021l-0.053,-0.02l-0.052,-0.019l-0.053,-0.018l-0.054,-0.018l-0.054,-0.017l-0.053,-0.016l-0.054,-0.015l-0.055,-0.015l-0.054,-0.013l-0.055,-0.013l-0.055,-0.012l-0.055,-0.012l-0.055,-0.01l-0.056,-0.01l-0.055,-0.009l-0.056,-0.008l-0.056,-0.007l-0.056,-0.007l-0.056,-0.005l-0.057,-0.005l-0.056,-0.004l-0.057,-0.003l-0.056,-0.002l-0.057,-0.002l-0.057,0l-0.056,0l-0.057,0.001l-0.057,0.002l-0.057,0.003l-0.057,0.003l-0.057,0.005l-0.057,0.005l-0.058,0.006l-0.057,0.007l-0.057,0.008l-0.057,0.009l-0.057,0.01l-0.056,0.01l-0.057,0.012l-0.056,0.012l-0.056,0.013l-0.055,0.014l-0.056,0.014l-0.055,0.016l-0.054,0.016l-0.054,0.017l-0.054,0.017l-0.054,0.019l-0.053,0.019l-0.053,0.02l-0.053,0.021l-0.052,0.022l-0.052,0.022l-0.052,0.023l-0.051,0.024l-0.051,0.025l-0.05,0.025l-0.05,0.026l-0.05,0.027l-0.049,0.027l-0.048,0.028l-0.049,0.029l-0.048,0.03l-0.047,0.03l-0.047,0.031l-0.046,0.032l-0.046,0.032l-0.046,0.033l-0.045,0.033l-0.044,0.035l-0.044,0.035l-0.044,0.035l-0.043,0.036l-0.042,0.037l-0.042,0.038l-0.042,0.038l-0.041,0.038l-0.04,0.04l-0.04,0.04l-0.039,0.04l-0.038,0.041l-0.038,0.042l-0.038,0.042l-0.037,0.043l-0.036,0.044l-0.035,0.044l-0.035,0.044l-0.035,0.046l-0.033,0.045l-0.033,0.046l-0.033,0.047l-0.032,0.048l-0.031,0.047l-0.03,0.049l-0.03,0.049l-0.029,0.049l-0.028,0.05l-0.028,0.05l-0.027,0.052l-0.03,0.059l-1.782,-0.908l0.001,-0.001l0.036,-0.072l0.041,-0.077l0.042,-0.077l0.043,-0.076l0.044,-0.075l0.045,-0.075l0.047,-0.073l0.047,-0.073l0.048,-0.072l0.05,-0.071l0.05,-0.071l0.051,-0.069l0.053,-0.069l0.053,-0.068l0.054,-0.067l0.055,-0.066l0.056,-0.065l0.057,-0.065l0.058,-0.063l0.059,-0.063l0.059,-0.062l0.061,-0.06l0.061,-0.06l0.062,-0.059l0.063,-0.058l0.064,-0.057l0.065,-0.056l0.065,-0.055l0.066,-0.054l0.067,-0.053l0.068,-0.052l0.068,-0.052l0.07,-0.05l0.07,-0.049l0.07,-0.048l0.072,-0.047l0.072,-0.046l0.072,-0.045l0.074,-0.044l0.074,-0.043l0.075,-0.042l0.075,-0.04l0.076,-0.04l0.077,-0.038l0.077,-0.038l0.078,-0.036l0.079,-0.035l0.078,-0.034l0.08,-0.033l0.08,-0.032l0.081,-0.03l0.081,-0.03l0.082,-0.028l0.082,-0.027l0.083,-0.026l0.083,-0.024l0.084,-0.024l0.083,-0.022l0.085,-0.021l0.085,-0.02l0.085,-0.018l0.086,-0.017l0.086,-0.016l0.087,-0.015l0.087,-0.014l0.086,-0.012l0.087,-0.01l0.087,-0.01l0.087,-0.008l0.087,-0.007l0.086,-0.005l0.087,-0.005l0.087,-0.002l0.086,-0.002l0.087,0l0.086,0Z" style="fill:#640082;"/></g></g></g></svg>