<?xml version="1.0" encoding="UTF-8" standalone="no"?>
<!DOCTYPE svg PUBLIC "-//W3C//DTD SVG 1.1//EN" "http://www.w3.org/Graphics/SVG/1.1/DTD/svg11.dtd">
<svg width="100%" height="100%" viewBox="0 0 32 32" version="1.1" xmlns="http://www.w3.org/2000/svg" xmlns:xlink="http://www.w3.org/1999/xlink" xml:space="preserve" xmlns:serif="http://www.serif.com/" style="fill-rule:evenodd;clip-rule:evenodd;stroke-linejoin:round;stroke-miterlimit:2;">
    <rect id="handshake--paw-" serif:id="handshake [paw]" x="0" y="0" width="32" height="32" style="fill:none;"/>
    <clipPath id="_clip1">
        <rect x="0" y="0" width="32" height="32"/>
    </clipPath>
    <g clip-path="url(#_clip1)">
        <g id="outline">
            <path d="M19.736,10l0.792,0l11.472,-5.736l0,15.972l-1.045,0.523c-0.242,1.979 -1.459,3.729 -3.272,4.635c-0.447,0.224 -0.908,0.454 -1.322,0.662c-0.727,0.363 -1.521,0.486 -2.283,0.391l-5.528,2.764c-4.94,2.47 -10.947,0.468 -13.417,-4.472l-1.619,-3.239l-3.514,0l0,-15.759l6.823,2.262l10.058,-0.003c1.137,0 2.176,0.642 2.684,1.659l0.171,0.341Z"/>
        </g>
        <g id="emoji">
            <path d="M21.792,25.354l-1.349,0.675l-1.443,-0.029l-0.443,0.971l-0.902,0.451c-0.426,0.213 -0.862,0.385 -1.303,0.516l-1.852,0.062l-0.649,0.265c-2.85,-0.083 -5.564,-1.691 -6.929,-4.42c-1.168,-2.338 -2.172,-4.345 -2.172,-4.345l-2.75,0.011l0,-11l4.5,1.492c0,0 8.061,-0.002 10.382,-0.003c0.358,0 0.688,0.192 0.866,0.5l-6.076,0l-3.5,3.5l3.394,3.395c1.208,1.208 3.049,1.514 4.581,0.766l5.268,6.773c0.117,0.15 0.243,0.291 0.377,0.42Z" style="fill:#f10dc3;"/>
            <path d="M16.352,27.938c-0.825,0.246 -1.669,0.352 -2.501,0.327l-2.127,-2.127c0.628,-0.314 1.257,-0.628 1.885,-0.943l2.743,2.743Zm4.091,-1.909l-1.886,0.942l-2.833,-2.833c0.628,-0.314 1.257,-0.628 1.885,-0.943l2.834,2.834Z" style="fill:#640082;"/>
            <path d="M16,16c0,0 -0.324,0.162 -0.711,0.355c-0.77,0.385 -1.7,0.234 -2.308,-0.374c-0.87,-0.87 -1.981,-1.981 -1.981,-1.981l2,-2l8,0l9,-4.5l0,11.5l-1,0.5c0,0 0,0.214 0,0.528c0,1.515 -0.856,2.9 -2.211,3.578c-0.448,0.223 -0.908,0.454 -1.322,0.661c-0.513,0.256 -1.092,0.273 -1.6,0.083c0,0 -3.164,-7.85 -4.867,-7.85l-2,-0.5l-1,0Z" style="fill:#f10dc3;"/>
            <path d="M17,16l4.221,0c1.703,0 3.26,0.962 4.022,2.486c0.026,0.052 0.052,0.105 0.079,0.157c0.972,1.944 0.414,4.305 -1.324,5.609l-0.131,0.098l-0.019,-0.008c-0.338,-0.133 -0.631,-0.351 -0.855,-0.636l-5.993,-7.706Z" style="fill:#ff80b7;"/>
        </g>
    </g>
</svg>
