<?xml version="1.0" encoding="UTF-8" standalone="no"?>
<!DOCTYPE svg PUBLIC "-//W3C//DTD SVG 1.1//EN" "http://www.w3.org/Graphics/SVG/1.1/DTD/svg11.dtd">
<svg width="100%" height="100%" viewBox="0 0 32 32" version="1.1" xmlns="http://www.w3.org/2000/svg" xmlns:xlink="http://www.w3.org/1999/xlink" xml:space="preserve" xmlns:serif="http://www.serif.com/" style="fill-rule:evenodd;clip-rule:evenodd;stroke-linejoin:round;stroke-miterlimit:2;">
    <rect id="hand--paw-" serif:id="hand [paw]" x="0" y="0" width="32" height="32" style="fill:none;"/>
    <clipPath id="_clip1">
        <rect x="0" y="0" width="32" height="32"/>
    </clipPath>
    <g clip-path="url(#_clip1)">
        <g id="outline">
            <path d="M11.414,2.609c0.714,-1.542 2.276,-2.613 4.086,-2.613c1.914,0 3.551,1.198 4.201,2.885c1.043,-0.77 2.41,-1.085 3.764,-0.747c2.41,0.603 3.877,3.048 3.275,5.457l-1.701,6.805c1.822,-0.775 4.012,-0.42 5.496,1.065c1.952,1.951 1.952,5.119 0,7.071c0,0 -3.608,3.608 -5.979,5.979c-2.234,2.234 -5.264,3.489 -8.423,3.489l-0.133,0l0,-0.004l-1.035,0c-5.571,0 -10.426,-3.79 -11.778,-9.194c-1.19,-4.754 -2.68,-10.71 -2.68,-10.71c-0.603,-2.409 0.863,-4.854 3.272,-5.457c0.293,-0.074 0.586,-0.116 0.877,-0.131c-0.004,-2.126 1.507,-4.021 3.671,-4.427c1.103,-0.207 2.187,0.009 3.087,0.532Z"/>
        </g>
        <g id="emoji">
            <path d="M13,4.493c0.002,-0.313 0.059,-0.622 0.173,-0.913c0.189,-0.478 0.526,-0.891 0.955,-1.173c0.211,-0.14 0.444,-0.247 0.688,-0.316c0.263,-0.075 0.539,-0.106 0.813,-0.092c0.279,0.015 0.556,0.076 0.816,0.182c0.288,0.118 0.554,0.291 0.779,0.506c0.233,0.221 0.422,0.488 0.555,0.781c0.146,0.323 0.219,0.673 0.221,1.028l0,8.689l0,0l0,0.315c0.001,0.067 0.013,0.133 0.039,0.195c0.081,0.191 0.279,0.315 0.487,0.304c0.058,-0.003 0.115,-0.016 0.169,-0.038c0.055,-0.024 0.106,-0.058 0.15,-0.099c0.046,-0.044 0.084,-0.098 0.111,-0.156c0.029,-0.065 0.043,-0.135 0.044,-0.206l0,-3.812l0.949,-3.794c0.334,-1.339 1.693,-2.154 3.031,-1.819c1.339,0.334 2.154,1.693 1.819,3.031l-2.799,11.198l0,1.449l2.879,-2.878c1.17,-1.171 3.071,-1.171 4.242,0c1.171,1.171 1.171,3.072 0,4.242c0,0 -3.608,3.609 -5.979,5.98c-1.859,1.859 -4.38,2.903 -7.009,2.903l-0.133,0l0,-0.004l-1.039,0c-4.65,0 -8.705,-3.163 -9.836,-7.674c-1.193,-4.755 -2.687,-10.714 -2.687,-10.714c-0.336,-1.338 0.478,-2.697 1.817,-3.033c0.664,-0.166 1.333,-0.05 1.879,0.273l1.123,6.734c0.012,0.07 0.038,0.137 0.077,0.196c0.036,0.053 0.082,0.1 0.135,0.136c0.05,0.034 0.106,0.058 0.165,0.072c0.056,0.014 0.115,0.017 0.173,0.011c0.206,-0.024 0.381,-0.178 0.429,-0.381c0.016,-0.065 0.017,-0.132 0.007,-0.198l-1.554,-9.324c0.01,-0.062 0.023,-0.124 0.038,-0.185c0.076,-0.312 0.213,-0.609 0.401,-0.87c0.182,-0.253 0.411,-0.471 0.673,-0.64c0.236,-0.152 0.496,-0.264 0.769,-0.329c0.266,-0.064 0.543,-0.085 0.815,-0.06c0.253,0.023 0.501,0.085 0.735,0.183c0.473,0.199 0.881,0.543 1.154,0.978c0.167,0.266 0.28,0.56 0.339,0.868l0.387,2.062l0,5.899c0.001,0.067 0.013,0.133 0.039,0.195c0.081,0.191 0.279,0.315 0.487,0.304c0.058,-0.003 0.115,-0.016 0.169,-0.038c0.055,-0.024 0.106,-0.058 0.15,-0.099c0.046,-0.044 0.084,-0.098 0.111,-0.156c0.029,-0.065 0.043,-0.135 0.044,-0.206l0,-9.507Z" style="fill:#f10dc3;"/>
            <path d="M14.992,26.375c-0.327,0 -0.652,0.04 -0.97,0.119c-0.512,0.129 -1.377,0.345 -2.294,0.574c-0.897,0.224 -1.846,0.023 -2.574,-0.546c-0.728,-0.568 -1.154,-1.441 -1.154,-2.364c0,-0.172 0,-0.34 0,-0.501c0,-1.061 0.421,-2.078 1.172,-2.829c0.819,-0.819 1.951,-1.951 3,-3c0.75,-0.75 1.767,-1.171 2.828,-1.171c1.061,0 2.078,0.421 2.828,1.171c1.049,1.049 2.181,2.181 3,3c0.751,0.751 1.172,1.768 1.172,2.829c0,0.161 0,0.329 0,0.501c0,0.923 -0.426,1.796 -1.154,2.364c-0.728,0.569 -1.677,0.77 -2.574,0.546c-0.917,-0.229 -1.782,-0.445 -2.294,-0.574c-0.318,-0.079 -0.643,-0.119 -0.97,-0.119l-0.016,0Zm13.026,-8.89c0.903,0.903 0.59,2.684 -0.699,3.973c-1.289,1.289 -3.07,1.602 -3.973,0.699c-0.904,-0.904 -0.591,-2.684 0.699,-3.973c1.289,-1.29 3.069,-1.603 3.973,-0.699Zm-23.847,-7.585c0.85,-0.212 1.772,0.548 2.058,1.695c0.286,1.148 -0.171,2.252 -1.021,2.464c-0.85,0.211 -1.772,-0.548 -2.058,-1.696c-0.286,-1.148 0.171,-2.252 1.021,-2.463Zm4.571,-4.577c1.022,-0.255 2.149,0.728 2.514,2.193c0.366,1.466 -0.168,2.862 -1.19,3.117c-1.022,0.255 -2.149,-0.728 -2.514,-2.193c-0.366,-1.465 0.168,-2.862 1.19,-3.117Zm13.939,-0.189c0.989,0.247 1.487,1.673 1.11,3.184c-0.376,1.51 -1.485,2.536 -2.475,2.29c-0.99,-0.247 -1.487,-1.674 -1.111,-3.184c0.377,-1.511 1.486,-2.537 2.476,-2.29Zm-7.172,-1.634c1.104,0 2,1.344 2,3c0,1.656 -0.896,3 -2,3c-1.103,0 -2,-1.344 -2,-3c0,-1.656 0.897,-3 2,-3Z" style="fill:#ff80b7;"/>
        </g>
    </g>
</svg>
