<?xml version="1.0" encoding="UTF-8" standalone="no"?>
<!DOCTYPE svg PUBLIC "-//W3C//DTD SVG 1.1//EN" "http://www.w3.org/Graphics/SVG/1.1/DTD/svg11.dtd">
<svg width="100%" height="100%" viewBox="0 0 32 32" version="1.1" xmlns="http://www.w3.org/2000/svg" xmlns:xlink="http://www.w3.org/1999/xlink" xml:space="preserve" xmlns:serif="http://www.serif.com/" style="fill-rule:evenodd;clip-rule:evenodd;stroke-miterlimit:2;">
    <rect id="handshake--paw-" serif:id="handshake [paw]" x="0" y="0" width="32" height="32" style="fill:none;"/>
    <clipPath id="_clip1">
        <rect x="0" y="0" width="32" height="32"/>
    </clipPath>
    <g clip-path="url(#_clip1)">
        <g id="outline">
            <path d="M6.823,8.003l10.076,-0.003l0.088,0.002l0.106,0.005l0.105,0.01l0.103,0.012l0.104,0.017l0.103,0.02l0.101,0.023l0.099,0.027l0.1,0.03l0.098,0.034l0.096,0.037l0.093,0.039l0.095,0.044l0.091,0.046l0.089,0.049l0.089,0.053l0.086,0.055l0.085,0.059l0.083,0.062l0.078,0.062l0.08,0.067l0.075,0.07l0.073,0.071l0.074,0.078l0.067,0.076l0.065,0.078l0.066,0.085l0.06,0.085l0.057,0.086l0.057,0.092l0.052,0.091l0.04,0.076l6.296,12.592l0.054,0.116l0.058,0.142l0.049,0.141l0.043,0.143l0.035,0.148l0.028,0.145l0.02,0.146l0.013,0.15l0.006,0.145l-0.001,0.143l-0.009,0.146l-0.015,0.146l-0.023,0.143l-0.028,0.137l-0.035,0.139l-0.043,0.139l-0.048,0.134l-0.056,0.133l-0.062,0.132l-0.068,0.127l-0.072,0.121l-0.081,0.123l-0.087,0.118l-0.09,0.111l-0.1,0.111l-0.105,0.106l-0.108,0.099l-0.116,0.096l-0.12,0.089l-0.126,0.085l-0.131,0.078l-0.112,0.06l-5.979,2.989l-0.11,0.054l-0.116,0.055l-0.116,0.054l-0.117,0.052l-0.117,0.05l-0.117,0.049l-0.118,0.047l-0.119,0.046l-0.118,0.044l-0.119,0.043l-0.119,0.041l-0.119,0.039l-0.12,0.038l-0.12,0.036l-0.12,0.035l-0.121,0.033l-0.12,0.031l-0.121,0.03l-0.121,0.029l-0.121,0.026l-0.121,0.026l-0.121,0.023l-0.122,0.023l-0.122,0.02l-0.121,0.019l-0.122,0.018l-0.121,0.016l-0.122,0.015l-0.122,0.013l-0.121,0.011l-0.122,0.01l-0.122,0.009l-0.122,0.007l-0.121,0.005l-0.122,0.004l-0.121,0.003l-0.122,0.001l-0.121,-0.001l-0.121,-0.002l-0.121,-0.003l-0.121,-0.005l-0.121,-0.006l-0.12,-0.008l-0.121,-0.009l-0.12,-0.011l-0.119,-0.012l-0.12,-0.013l-0.12,-0.015l-0.119,-0.017l-0.119,-0.018l-0.118,-0.019l-0.119,-0.02l-0.118,-0.022l-0.117,-0.024l-0.118,-0.025l-0.117,-0.026l-0.116,-0.027l-0.117,-0.029l-0.116,-0.031l-0.116,-0.032l-0.115,-0.033l-0.114,-0.034l-0.115,-0.036l-0.114,-0.037l-0.113,-0.039l-0.113,-0.04l-0.112,-0.041l-0.112,-0.043l-0.112,-0.044l-0.111,-0.045l-0.111,-0.047l-0.109,-0.047l-0.11,-0.05l-0.109,-0.05l-0.108,-0.052l-0.107,-0.053l-0.108,-0.055l-0.106,-0.056l-0.106,-0.057l-0.105,-0.058l-0.104,-0.06l-0.104,-0.061l-0.104,-0.062l-0.102,-0.064l-0.101,-0.064l-0.102,-0.067l-0.1,-0.067l-0.099,-0.068l-0.099,-0.07l-0.099,-0.072l-0.097,-0.072l-0.096,-0.074l-0.096,-0.075l-0.095,-0.076l-0.094,-0.077l-0.093,-0.079l-0.093,-0.08l-0.091,-0.081l-0.09,-0.082l-0.089,-0.083l-0.089,-0.084l-0.088,-0.087l-0.087,-0.087l-0.086,-0.088l-0.085,-0.09l-0.083,-0.09l-0.083,-0.091l-0.082,-0.094l-0.08,-0.094l-0.081,-0.096l-0.078,-0.096l-0.077,-0.097l-0.077,-0.099l-0.076,-0.1l-0.074,-0.101l-0.072,-0.101l-0.073,-0.104l-0.071,-0.105l-0.068,-0.104l-0.069,-0.106l-0.068,-0.109l-0.065,-0.107l-0.065,-0.11l-0.064,-0.111l-0.062,-0.112l-0.06,-0.112l-0.06,-0.114l-0.056,-0.109l-1.622,-3.245l-3.514,0l0,-15.759l6.823,2.262Zm1.923,15.016l0.036,0.069l0.037,0.069l0.038,0.068l0.038,0.066l0.039,0.066l0.04,0.066l0.04,0.064l0.041,0.063l0.043,0.065l0.042,0.062l0.042,0.061l0.045,0.062l0.044,0.061l0.045,0.059l0.046,0.059l0.046,0.058l0.048,0.058l0.047,0.057l0.048,0.056l0.049,0.055l0.05,0.056l0.05,0.054l0.05,0.053l0.052,0.053l0.052,0.052l0.051,0.051l0.053,0.05l0.054,0.05l0.055,0.05l0.055,0.049l0.055,0.047l0.055,0.047l0.056,0.046l0.057,0.046l0.057,0.045l0.058,0.044l0.059,0.043l0.058,0.043l0.059,0.041l0.06,0.042l0.06,0.04l0.06,0.04l0.062,0.039l0.061,0.038l0.062,0.037l0.062,0.037l0.063,0.036l0.064,0.035l0.063,0.034l0.064,0.034l0.064,0.032l0.065,0.032l0.066,0.032l0.064,0.03l0.066,0.029l0.067,0.03l0.066,0.028l0.067,0.027l0.067,0.026l0.067,0.026l0.068,0.025l0.068,0.024l0.068,0.023l0.069,0.022l0.069,0.022l0.069,0.021l0.069,0.02l0.07,0.019l0.069,0.018l0.07,0.017l0.071,0.017l0.07,0.016l0.071,0.015l0.071,0.014l0.071,0.013l0.071,0.012l0.071,0.012l0.071,0.011l0.072,0.01l0.071,0.009l0.072,0.008l0.073,0.007l0.072,0.006l0.072,0.006l0.072,0.004l0.072,0.004l0.073,0.003l0.072,0.002l0.073,0.001l0.073,0.001l0.072,-0.001l0.073,-0.002l0.073,-0.002l0.072,-0.003l0.073,-0.004l0.073,-0.005l0.073,-0.006l0.072,-0.007l0.073,-0.008l0.073,-0.009l0.073,-0.009l0.072,-0.011l0.073,-0.011l0.073,-0.013l0.072,-0.013l0.073,-0.014l0.072,-0.015l0.072,-0.016l0.073,-0.017l0.072,-0.018l0.072,-0.019l0.072,-0.02l0.072,-0.02l0.072,-0.022l0.071,-0.023l0.072,-0.023l0.072,-0.025l0.071,-0.025l0.071,-0.027l0.071,-0.027l0.071,-0.029l0.071,-0.029l0.071,-0.031l0.071,-0.031l0.07,-0.033l0.07,-0.033l0.076,-0.037l5.05,-2.525l-5.553,-11.106l-10.087,0.003l-2.177,-0.722l0,6.219l1.986,0l2.722,5.445l0.038,0.074Z"/>
            <path d="M32,20.236l-1.045,0.522l0,0.006l-0.014,0.106l-0.016,0.103l-0.017,0.102l-0.019,0.103l-0.021,0.103l-0.023,0.1l-0.024,0.101l-0.026,0.1l-0.027,0.1l-0.03,0.099l-0.031,0.099l-0.033,0.099l-0.034,0.096l-0.036,0.097l-0.037,0.095l-0.04,0.095l-0.04,0.095l-0.043,0.094l-0.044,0.093l-0.045,0.091l-0.047,0.091l-0.049,0.091l-0.051,0.09l-0.05,0.087l-0.054,0.088l-0.055,0.087l-0.055,0.085l-0.059,0.086l-0.059,0.085l-0.06,0.081l-0.062,0.082l-0.063,0.081l-0.064,0.079l-0.067,0.079l-0.067,0.078l-0.069,0.077l-0.071,0.075l-0.071,0.074l-0.073,0.073l-0.075,0.072l-0.075,0.07l-0.076,0.07l-0.079,0.068l-0.08,0.068l-0.08,0.065l-0.082,0.064l-0.083,0.063l-0.084,0.061l-0.086,0.06l-0.087,0.059l-0.087,0.057l-0.09,0.057l-0.09,0.054l-0.091,0.053l-0.093,0.051l-0.093,0.05l-0.086,0.044l-1.341,0.671l-0.07,0.034l-0.081,0.037l-0.079,0.034l-0.082,0.034l-0.083,0.031l-0.082,0.029l-0.083,0.028l-0.083,0.025l-0.083,0.024l-0.085,0.022l-0.084,0.02l-0.084,0.018l-0.085,0.017l-0.085,0.014l-0.084,0.013l-0.085,0.011l-0.085,0.009l-0.086,0.007l-0.085,0.005l-0.084,0.003l-0.084,0.002l-0.085,0l-0.086,-0.002l-0.084,-0.004l-0.085,-0.005l-0.083,-0.008l-0.084,-0.009l-0.084,-0.011l-0.083,-0.012l-0.082,-0.014l-0.083,-0.016l-0.084,-0.018l-0.08,-0.02l-0.082,-0.021l-0.082,-0.023l-0.079,-0.024l-0.081,-0.027l-0.079,-0.028l-0.08,-0.029l-0.078,-0.032l-0.077,-0.033l-0.077,-0.034l-0.078,-0.037l-0.076,-0.038l-0.074,-0.04l-0.074,-0.041l-0.074,-0.043l-0.073,-0.045l-0.072,-0.046l-0.071,-0.048l-0.07,-0.05l-0.07,-0.052l-0.068,-0.052l-0.067,-0.054l-0.066,-0.056l-0.066,-0.058l-0.063,-0.059l-0.064,-0.061l-0.062,-0.062l-0.059,-0.062l-0.06,-0.067l-0.057,-0.066l-0.056,-0.066l-0.049,-0.062l-5.274,-6.781l-0.036,0.017l-0.073,0.034l-0.073,0.032l-0.074,0.031l-0.074,0.029l-0.074,0.027l-0.075,0.026l-0.076,0.025l-0.075,0.023l-0.075,0.021l-0.077,0.02l-0.076,0.018l-0.077,0.017l-0.076,0.015l-0.076,0.014l-0.077,0.012l-0.078,0.011l-0.076,0.009l-0.078,0.008l-0.087,0.007l-0.144,0.007l-0.154,0.002l-0.154,-0.004l-0.154,-0.01l-0.153,-0.016l-0.152,-0.022l-0.151,-0.027l-0.15,-0.034l-0.149,-0.039l-0.147,-0.045l-0.146,-0.05l-0.135,-0.053l-0.08,-0.034l-0.071,-0.032l-0.071,-0.033l-0.068,-0.034l-0.069,-0.036l-0.07,-0.037l-0.067,-0.039l-0.066,-0.039l-0.069,-0.043l-0.066,-0.043l-0.063,-0.043l-0.065,-0.046l-0.064,-0.048l-0.062,-0.047l-0.062,-0.05l-0.061,-0.051l-0.06,-0.052l-0.06,-0.054l-0.059,-0.055l-0.05,-0.049l-3.401,-3.402l4,-4l8.356,0l11.472,-5.736l0,15.972Zm-10.528,-6.236l-7.644,0l0,0l0.56,0.56l0.007,0.006l0,0l0.009,-0.004l1.124,-0.562l2.45,0l6.587,8.469l0.007,0.009l0,0l0.01,-0.005l1.304,-0.652l0.04,-0.02l0.032,-0.017l0.03,-0.017l0.031,-0.018l0.03,-0.019l0.029,-0.018l0.03,-0.019l0.029,-0.02l0.028,-0.019l0.028,-0.021l0.028,-0.021l0.027,-0.021l0.028,-0.023l0.025,-0.021l0.026,-0.023l0.026,-0.023l0.025,-0.024l0.025,-0.024l0.024,-0.024l0.024,-0.025l0.023,-0.025l0.023,-0.025l0.023,-0.026l0.021,-0.026l0.022,-0.027l0.021,-0.027l0.021,-0.027l0.021,-0.029l0.019,-0.027l0.019,-0.027l0.019,-0.03l0.018,-0.028l0.017,-0.029l0.019,-0.031l0.016,-0.03l0.016,-0.029l0.016,-0.031l0.015,-0.031l0.015,-0.031l0.014,-0.031l0.013,-0.031l0.013,-0.032l0.013,-0.032l0.012,-0.032l0.012,-0.033l0.011,-0.032l0.01,-0.033l0.009,-0.032l0.01,-0.034l0.008,-0.033l0.008,-0.034l0.008,-0.034l0.007,-0.034l0.006,-0.033l0.006,-0.036l0.005,-0.034l0.005,-0.033l0.004,-0.035l0.003,-0.036l0.003,-0.034l0.002,-0.036l0.002,-0.035l0.001,-0.035l0,-0.046l0,-1.754l1,-0.5l0,-7.028l-6.528,3.264Z"/>
        </g>
        <g id="emoji">
            <path d="M4.75,19.5l-2.75,0.011l0,-11l4.5,1.492c0,0 8.061,-0.002 10.382,-0.003c0.379,0 0.725,0.214 0.894,0.553c1.071,2.142 4.952,9.902 6.277,12.553c0.247,0.494 0.047,1.094 -0.447,1.341c-1.236,0.618 -3.581,1.791 -5.951,2.975c-3.951,1.976 -8.757,0.374 -10.733,-3.577c-1.168,-2.338 -2.172,-4.345 -2.172,-4.345Z" style="fill:#f10dc3;"/>
            <clipPath id="_clip2">
                <path d="M4.75,19.5l-2.75,0.011l0,-11l4.5,1.492c0,0 8.061,-0.002 10.382,-0.003c0.379,0 0.725,0.214 0.894,0.553c1.071,2.142 4.952,9.902 6.277,12.553c0.247,0.494 0.047,1.094 -0.447,1.341c-1.236,0.618 -3.581,1.791 -5.951,2.975c-3.951,1.976 -8.757,0.374 -10.733,-3.577c-1.168,-2.338 -2.172,-4.345 -2.172,-4.345Z"/>
            </clipPath>
            <g clip-path="url(#_clip2)">
                <path d="M10,27l10,-5l3,3l-10,5l-3,-3Z" style="fill:none;"/>
                <clipPath id="_clip3">
                    <path d="M10,27l10,-5l3,3l-10,5l-3,-3Z"/>
                </clipPath>
                <g clip-path="url(#_clip3)">
                    <path d="M20,27l-7,-7" style="fill:none;stroke:#640082;stroke-width:2px;"/>
                    <path d="M16,29l-7,-7" style="fill:none;stroke:#640082;stroke-width:2px;"/>
                </g>
                <path d="M32,21.236l-1.136,0.568l-0.013,0.053l-0.022,0.085l-0.023,0.084l-0.024,0.081l-0.026,0.082l-0.028,0.083l-0.028,0.08l-0.029,0.079l-0.033,0.082l-0.032,0.078l-0.034,0.078l-0.036,0.08l-0.036,0.077l-0.038,0.076l-0.039,0.076l-0.041,0.075l-0.042,0.075l-0.042,0.073l-0.045,0.074l-0.046,0.073l-0.045,0.069l-0.049,0.072l-0.05,0.071l-0.05,0.069l-0.051,0.067l-0.053,0.067l-0.054,0.067l-0.054,0.065l-0.057,0.065l-0.058,0.064l-0.058,0.063l-0.059,0.061l-0.062,0.062l-0.062,0.06l-0.062,0.058l-0.064,0.058l-0.065,0.057l-0.067,0.056l-0.067,0.054l-0.068,0.053l-0.07,0.053l-0.07,0.051l-0.071,0.05l-0.072,0.049l-0.074,0.049l-0.074,0.046l-0.075,0.045l-0.076,0.044l-0.077,0.043l-0.079,0.042l-0.07,0.036l-1.893,0.947l-0.07,0.034l-0.081,0.037l-0.079,0.034l-0.082,0.034l-0.083,0.031l-0.082,0.029l-0.083,0.028l-0.083,0.025l-0.083,0.024l-0.085,0.022l-0.084,0.02l-0.084,0.018l-0.085,0.017l-0.085,0.014l-0.084,0.013l-0.085,0.011l-0.085,0.009l-0.086,0.007l-0.085,0.005l-0.084,0.003l-0.084,0.002l-0.085,0l-0.086,-0.002l-0.084,-0.004l-0.085,-0.005l-0.083,-0.008l-0.084,-0.009l-0.084,-0.011l-0.083,-0.012l-0.082,-0.014l-0.083,-0.016l-0.084,-0.018l-0.08,-0.02l-0.082,-0.021l-0.082,-0.023l-0.079,-0.024l-0.081,-0.027l-0.079,-0.028l-0.08,-0.029l-0.078,-0.032l-0.077,-0.033l-0.077,-0.034l-0.078,-0.037l-0.076,-0.038l-0.074,-0.04l-0.074,-0.041l-0.074,-0.043l-0.073,-0.045l-0.072,-0.046l-0.071,-0.048l-0.07,-0.05l-0.07,-0.052l-0.068,-0.052l-0.067,-0.054l-0.066,-0.056l-0.066,-0.058l-0.063,-0.059l-0.064,-0.061l-0.062,-0.062l-0.059,-0.062l-0.06,-0.067l-0.057,-0.066l-0.056,-0.066l-0.049,-0.062l-5.274,-6.781l-0.036,0.017l-0.073,0.034l-0.073,0.032l-0.074,0.031l-0.074,0.029l-0.074,0.027l-0.075,0.026l-0.076,0.025l-0.075,0.023l-0.075,0.021l-0.077,0.02l-0.076,0.018l-0.077,0.017l-0.076,0.015l-0.076,0.014l-0.077,0.012l-0.078,0.011l-0.076,0.009l-0.078,0.008l-0.087,0.007l-0.144,0.007l-0.154,0.002l-0.154,-0.004l-0.154,-0.01l-0.153,-0.016l-0.152,-0.022l-0.151,-0.027l-0.15,-0.034l-0.149,-0.039l-0.147,-0.045l-0.146,-0.05l-0.135,-0.053l-0.08,-0.034l-0.071,-0.032l-0.071,-0.033l-0.068,-0.034l-0.069,-0.036l-0.07,-0.037l-0.067,-0.039l-0.066,-0.039l-0.069,-0.043l-0.066,-0.043l-0.063,-0.043l-0.065,-0.046l-0.064,-0.048l-0.062,-0.047l-0.062,-0.05l-0.061,-0.051l-0.06,-0.052l-0.06,-0.054l-0.059,-0.055l-0.05,-0.049l-3.401,-3.402l3.5,-3.5l7.856,0l12.472,-6.236l0,16.972Zm-11.528,-6.736l-2.105,0l6.198,7.969l0.007,0.009l0,0l0.01,-0.005l1.857,-0.929l0.025,-0.012l0.015,-0.008l0.015,-0.009l0.016,-0.009l0.015,-0.009l0.015,-0.009l0.014,-0.009l0.014,-0.01l0.015,-0.01l0.014,-0.011l0.013,-0.01l0.014,-0.011l0.014,-0.011l0.012,-0.011l0.013,-0.011l0.013,-0.011l0.014,-0.013l0.012,-0.012l0.011,-0.011l0.012,-0.013l0.012,-0.013l0.011,-0.012l0.011,-0.012l0.012,-0.014l0.01,-0.013l0.011,-0.013l0.011,-0.015l0.01,-0.014l0.009,-0.013l0.009,-0.013l0.011,-0.017l0.009,-0.013l0.008,-0.014l0.009,-0.016l0.009,-0.015l0.008,-0.015l0.007,-0.015l0.008,-0.016l0.008,-0.016l0.006,-0.014l0.007,-0.016l0.007,-0.017l0.006,-0.014l0.006,-0.017l0.006,-0.018l0.005,-0.014l0.005,-0.016l0.006,-0.019l0.004,-0.015l0.004,-0.015l0.004,-0.018l0.004,-0.018l0.003,-0.016l0.004,-0.017l0.003,-0.019l0.002,-0.015l0.002,-0.017l0.003,-0.02l0.001,-0.016l0.001,-0.016l0.002,-0.019l0,-0.019l0.001,-0.017l0,-0.026l0,-1.373l1,-0.5l0,-8.028l-7.528,3.764Zm-6.144,0l0.06,0.06l0.007,0.006l0,0l0.009,-0.004l0.124,-0.062l-0.2,0Z"/>
            </g>
            <path d="M30,19l0,-11.5l-9,4.5l-8,0l-2,2c0,0 1.111,1.111 1.981,1.981c0.608,0.608 1.538,0.759 2.308,0.374c0.387,-0.193 0.711,-0.355 0.711,-0.355l1,0c0,0 4.056,5.215 5.993,7.706c0.586,0.752 1.621,0.987 2.474,0.561c0.414,-0.207 0.874,-0.438 1.322,-0.661c1.355,-0.678 2.211,-2.063 2.211,-3.578c0,-0.314 0,-0.528 0,-0.528l1,-0.5Z" style="fill:#f10dc3;"/>
            <clipPath id="_clip4">
                <path d="M30,19l0,-11.5l-9,4.5l-8,0l-2,2c0,0 1.111,1.111 1.981,1.981c0.608,0.608 1.538,0.759 2.308,0.374c0.387,-0.193 0.711,-0.355 0.711,-0.355l1,0c0,0 4.056,5.215 5.993,7.706c0.586,0.752 1.621,0.987 2.474,0.561c0.414,-0.207 0.874,-0.438 1.322,-0.661c1.355,-0.678 2.211,-2.063 2.211,-3.578c0,-0.314 0,-0.528 0,-0.528l1,-0.5Z"/>
            </clipPath>
            <g clip-path="url(#_clip4)">
                <path d="M16,17l1,-1l4.221,0c1.703,0 3.26,0.962 4.022,2.486c0.026,0.052 0.052,0.105 0.079,0.157c0.972,1.944 0.414,4.305 -1.324,5.609c-0.573,0.429 -0.998,0.748 -0.998,0.748l-7,-8Z" style="fill:#ff80b7;"/>
            </g>
        </g>
    </g>
</svg>
