<?xml version="1.0" encoding="UTF-8" standalone="no"?>
<!DOCTYPE svg PUBLIC "-//W3C//DTD SVG 1.1//EN" "http://www.w3.org/Graphics/SVG/1.1/DTD/svg11.dtd">
<svg width="100%" height="100%" viewBox="0 0 32 32" version="1.1" xmlns="http://www.w3.org/2000/svg" xmlns:xlink="http://www.w3.org/1999/xlink" xml:space="preserve" xmlns:serif="http://www.serif.com/" style="fill-rule:evenodd;clip-rule:evenodd;stroke-linejoin:round;stroke-miterlimit:2;">
    <rect id="index_finger--paw-" serif:id="index_finger [paw]" x="0" y="0" width="32" height="32" style="fill:none;"/>
    <clipPath id="_clip1">
        <rect x="0" y="0" width="32" height="32"/>
    </clipPath>
    <g clip-path="url(#_clip1)">
        <g id="Layer10">
            <path d="M17,30l0.045,0c4.656,0 8.697,-3.214 9.744,-7.751c0.125,-0.542 0.247,-1.072 0.363,-1.574c0.206,-0.891 -0.006,-1.827 -0.575,-2.543c-0.57,-0.715 -1.434,-1.132 -2.348,-1.132c-0.145,0 -0.229,0 -0.229,0l-9,11l2,2Z"/>
            <path d="M24,4.5c0,-0.663 -0.263,-1.299 -0.732,-1.768c-0.469,-0.469 -1.105,-0.732 -1.768,-0.732c-0.663,0 -1.299,0.263 -1.768,0.732c-0.469,0.469 -0.732,1.105 -0.732,1.768c0,4.945 0,15.5 0,15.5l5,0l0,-15.5Z"/>
            <path d="M17,7.528l0,-3.028c0,-2.484 2.016,-4.5 4.5,-4.5c2.484,0 4.5,2.016 4.5,4.5l0,10.824c0.832,0.315 1.575,0.85 2.142,1.563c0.948,1.193 1.301,2.753 0.959,4.237c-0.116,0.502 -0.238,1.032 -0.363,1.574c-1.257,5.445 -6.105,9.302 -11.693,9.302l-0.873,0l-0.004,-0.003l-0.196,0c-5.574,0.003 -10.434,-3.79 -11.785,-9.197c-0.609,-2.433 -1.178,-4.709 -1.178,-4.709c-0.602,-2.409 0.865,-4.854 3.275,-5.457c0.152,-0.038 0.305,-0.068 0.458,-0.09c0.479,-1.394 1.631,-2.526 3.167,-2.91c0.92,-0.23 1.846,-0.158 2.672,0.153c0.773,-1.365 2.239,-2.287 3.919,-2.287c0.169,0 0.336,0.009 0.5,0.028Z"/>
        </g>
        <g id="Layer9">
            <path d="M16,24l-8.458,-4c-0.046,0.014 -0.093,0.027 -0.14,0.039c0,0 0,0 0,0c-0.455,0.114 -0.92,0.095 -1.348,-0.039l-0.054,0l0,-0.018c-0.181,-0.061 -0.355,-0.143 -0.519,-0.245l-0.521,-2.082l1.04,-2.655l3,-2l1.075,0l1.925,-1l3,-1l2,-1l3,0l4,5l0,8l-8,1Z" style="fill:#640082;"/>
            <path d="M24.229,17c0.914,0 1.778,0.417 2.348,1.132c0.569,0.716 0.781,1.652 0.575,2.543c-0.116,0.502 -0.238,1.032 -0.363,1.574c-1.047,4.537 -5.088,7.751 -9.744,7.751l-0.045,0l-0.001,-0.004l-1.034,0c-4.653,0 -8.709,-3.166 -9.838,-7.679l-0.646,-2.58c0.562,0.351 1.254,0.469 1.921,0.302c0,0 0,0 0,0c0.92,-0.231 1.618,-0.894 1.931,-1.719c0.668,0.584 1.6,0.844 2.527,0.617c0,-0.001 0.001,-0.001 0.002,-0.001c0.099,-0.024 0.196,-0.054 0.29,-0.088c0,0 2.62,0.447 4.335,0.523c0.919,2.134 3.041,3.629 5.513,3.629l1,0l0,-2l-1,0c-2.209,0 -4,-1.791 -4,-4l6.229,0Zm-19.269,0.655l-0.011,-0.044c-0.335,-1.339 0.48,-2.697 1.818,-3.032c0.375,-0.094 0.751,-0.098 1.106,-0.025l0.582,2.329c0.004,0.014 0.008,0.029 0.012,0.043c0.221,0.95 -0.359,1.905 -1.308,2.143c0,0 -0.001,0 -0.001,0c-0.58,0.146 -1.191,-0.071 -1.55,-0.55l-0.648,-0.864Zm3.635,-4.338c0.238,-0.832 0.9,-1.518 1.799,-1.742c1.004,-0.252 2.02,0.145 2.606,0.924l0,3.712c-0.003,0.266 -0.058,0.528 -0.172,0.769c-0.105,0.223 -0.256,0.424 -0.441,0.587c-0.169,0.149 -0.366,0.265 -0.578,0.342c-0.196,0.071 -0.404,0.108 -0.612,0.109c-0.651,0.003 -1.27,-0.356 -1.59,-0.923c-0.078,-0.137 -0.139,-0.286 -0.177,-0.439l-0.835,-3.339Zm7.41,3.939c-0.268,0.022 -0.541,-0.015 -0.794,-0.109c-0.481,-0.177 -0.874,-0.555 -1.07,-1.029c-0.093,-0.225 -0.139,-0.466 -0.141,-0.71l0,-3.413c0.001,-0.291 0.051,-0.581 0.152,-0.854c0.185,-0.506 0.536,-0.945 0.988,-1.239c0.204,-0.132 0.427,-0.235 0.661,-0.303c0.263,-0.076 0.538,-0.109 0.812,-0.097c0.285,0.013 0.567,0.075 0.832,0.183c0.197,0.081 0.384,0.187 0.555,0.316l0,4.999l-2,0l0,2c0,0.086 0.002,0.171 0.005,0.256Zm2.995,-12.756c0.004,-0.332 0.065,-0.661 0.194,-0.967c0.272,-0.646 0.822,-1.163 1.484,-1.395c0.27,-0.094 0.557,-0.14 0.844,-0.138c0.284,0.003 0.568,0.054 0.835,0.151c0.294,0.108 0.568,0.271 0.803,0.48c0.251,0.223 0.456,0.497 0.6,0.8c0.158,0.335 0.235,0.7 0.24,1.069l0,10.5l-5,0l0,-10.5Z" style="fill:#f10dc3;"/>
            <path d="M23,23l0,1.158c0,0.923 -0.426,1.796 -1.154,2.364c-0.728,0.569 -1.677,0.77 -2.574,0.546c-0.917,-0.229 -1.782,-0.445 -2.294,-0.574c-0.318,-0.079 -0.643,-0.119 -0.97,-0.119l-0.016,0c-0.327,0 -0.652,0.04 -0.97,0.119c-0.512,0.129 -1.377,0.345 -2.294,0.574c-0.897,0.224 -1.846,0.023 -2.574,-0.546c-0.728,-0.568 -1.154,-1.441 -1.154,-2.364c0,-0.172 0,-0.34 0,-0.501c0,-1.061 0.421,-2.078 1.172,-2.829l1.98,-1.98c0.728,-0.264 1.303,-0.813 1.608,-1.501c0.058,0.063 0.119,0.123 0.183,0.181c0.596,0.537 1.39,0.799 2.187,0.721c0.575,2.714 2.985,4.751 5.87,4.751l1,0Z" style="fill:#ff80b7;"/>
            <ellipse cx="21.5" cy="6.5" rx="2" ry="3" style="fill:#ff80b7;"/>
        </g>
    </g>
</svg>
