<?xml version="1.0" encoding="UTF-8" standalone="no"?><!DOCTYPE svg PUBLIC "-//W3C//DTD SVG 1.1//EN" "http://www.w3.org/Graphics/SVG/1.1/DTD/svg11.dtd"><svg width="100%" height="100%" viewBox="0 0 32 32" version="1.1" xmlns="http://www.w3.org/2000/svg" xmlns:xlink="http://www.w3.org/1999/xlink" xml:space="preserve" xmlns:serif="http://www.serif.com/" style="fill-rule:evenodd;clip-rule:evenodd;stroke-linecap:round;stroke-miterlimit:1.5;"><rect id="point_up--paw-" serif:id="point_up [paw]" x="0" y="0" width="32" height="32" style="fill:none;"/><g id="outline"><path d="M17,7.529l0,-3.029c0.003,-0.161 0.002,-0.201 0.015,-0.362c0.029,-0.361 0.102,-0.719 0.217,-1.063c0.21,-0.631 0.562,-1.213 1.023,-1.692c0.418,-0.436 0.925,-0.786 1.481,-1.023c0.334,-0.142 0.684,-0.244 1.042,-0.302c0.18,-0.029 0.359,-0.043 0.541,-0.054c0.181,-0.004 0.181,-0.004 0.362,0c0.161,0.009 0.201,0.009 0.361,0.029c0.36,0.044 0.715,0.131 1.054,0.259c0.565,0.215 1.085,0.544 1.521,0.963c0.48,0.46 0.855,1.027 1.091,1.649c0.128,0.339 0.215,0.694 0.259,1.054c0.022,0.18 0.029,0.36 0.033,0.542l0,10.824c0.049,0.019 0.098,0.038 0.147,0.058c0.473,0.197 0.915,0.466 1.306,0.796c0.9,0.759 1.511,1.831 1.707,2.991c0.069,0.414 0.087,0.837 0.051,1.256c-0.016,0.188 -0.045,0.374 -0.08,0.56c-0.133,0.615 -0.279,1.228 -0.423,1.84c-0.094,0.378 -0.201,0.751 -0.329,1.118c-0.278,0.8 -0.64,1.57 -1.08,2.293c-0.755,1.24 -1.736,2.34 -2.881,3.232c-1.146,0.892 -2.454,1.574 -3.842,2.002c-0.77,0.237 -1.564,0.396 -2.365,0.474c-0.345,0.033 -0.69,0.05 -1.036,0.055l-0.125,0.001l-0.878,0l-0.003,-0.002c-0.109,-0.001 -0.218,-0.001 -0.327,-0.002c-0.387,-0.006 -0.774,-0.026 -1.159,-0.067c-0.758,-0.08 -1.508,-0.232 -2.237,-0.453c-1.428,-0.432 -2.774,-1.131 -3.95,-2.049c-1.11,-0.866 -2.068,-1.926 -2.816,-3.119c-0.45,-0.716 -0.824,-1.479 -1.114,-2.273c-0.134,-0.364 -0.247,-0.734 -0.347,-1.109c-0.412,-1.609 -0.807,-3.223 -1.21,-4.835c-0.041,-0.178 -0.078,-0.357 -0.1,-0.539c-0.051,-0.409 -0.045,-0.824 0.018,-1.231c0.062,-0.407 0.18,-0.806 0.35,-1.181c0.476,-1.047 1.352,-1.886 2.42,-2.315c0.335,-0.135 0.687,-0.229 1.045,-0.28c0.044,-0.13 0.094,-0.257 0.15,-0.382c0.443,-0.989 1.243,-1.798 2.227,-2.251c0.362,-0.167 0.747,-0.285 1.141,-0.351c0.158,-0.026 0.317,-0.042 0.476,-0.053c0.12,-0.006 0.24,-0.008 0.36,-0.007c0.12,0.004 0.239,0.01 0.358,0.022c0.318,0.032 0.633,0.098 0.936,0.197c0.065,0.021 0.129,0.043 0.192,0.067c0.195,-0.344 0.435,-0.664 0.713,-0.946c0.486,-0.493 1.086,-0.871 1.741,-1.096c0.327,-0.113 0.667,-0.187 1.011,-0.222c0.129,-0.013 0.258,-0.019 0.388,-0.023c0.13,0 0.13,0 0.259,0.004c0.103,0.006 0.205,0.014 0.306,0.025Z"/></g><g id="emoji"><path d="M6,15l3,-2l1.075,0l1.925,-1l3,-1l2,-1l3,0l0,10l-14,0l0,-5Z" style="fill:#640082;"/><path d="M4.961,17.659l-0.012,-0.048c-0.023,-0.1 -0.043,-0.199 -0.056,-0.301c-0.025,-0.202 -0.025,-0.408 0,-0.61c0.079,-0.645 0.414,-1.245 0.922,-1.65c0.186,-0.148 0.393,-0.27 0.614,-0.36c0.188,-0.077 0.387,-0.131 0.589,-0.16c0.101,-0.015 0.202,-0.021 0.304,-0.026c0.102,0 0.102,0 0.204,0.005c0.205,0.016 0.405,0.049 0.601,0.111c0.177,0.056 0.347,0.132 0.507,0.225l-0.059,-0.239c-0.068,-0.291 -0.093,-0.587 -0.059,-0.885c0.026,-0.237 0.087,-0.47 0.179,-0.689c0.243,-0.579 0.705,-1.053 1.278,-1.311c0.301,-0.136 0.621,-0.204 0.95,-0.22c0.089,-0.001 0.089,-0.001 0.179,0.001c0.208,0.012 0.413,0.043 0.614,0.103c0.573,0.171 1.073,0.549 1.394,1.054c0.128,0.202 0.222,0.42 0.292,0.648c0.201,0.745 0.394,1.492 0.583,2.24c0.007,-1.182 0.015,-2.365 0.015,-3.547c0.005,-0.26 0.04,-0.515 0.119,-0.763c0.229,-0.714 0.781,-1.299 1.481,-1.569c0.274,-0.106 0.559,-0.156 0.851,-0.168c0.098,0 0.097,0 0.194,0.004c0.292,0.023 0.575,0.084 0.845,0.2c0.628,0.271 1.125,0.799 1.359,1.441c0.089,0.245 0.134,0.498 0.149,0.758l0.002,0.102l0,-7.505c0,-0.663 0.263,-1.299 0.732,-1.768c0.469,-0.469 1.105,-0.732 1.768,-0.732c0.663,0 1.299,0.263 1.768,0.732c0.469,0.469 0.732,1.105 0.732,1.768l0,10.5l-1,1l1,1l0.229,0c0.914,0 1.778,0.417 2.348,1.132c0.569,0.716 0.781,1.652 0.575,2.543c-0.116,0.502 -0.238,1.032 -0.363,1.574c-1.047,4.537 -5.088,7.751 -9.744,7.751l-0.045,0l0.002,-0.004c-0.382,0.006 -0.764,0.002 -1.146,0c-0.961,-0.016 -1.915,-0.157 -2.835,-0.436c-1.192,-0.361 -2.314,-0.944 -3.296,-1.711c-0.927,-0.723 -1.727,-1.608 -2.351,-2.604c-0.376,-0.598 -0.688,-1.235 -0.93,-1.897c-0.112,-0.304 -0.207,-0.613 -0.29,-0.926c-0.229,-0.895 -0.453,-1.791 -0.676,-2.687c0.052,0.032 0.258,-0.665 0.258,-0.665c0,0 -0.54,-1.112 -0.775,-1.411Z" style="fill:#f10dc3;"/><path d="M16,18l2,0l0,-0.806c0.3,0.172 0.579,0.385 0.828,0.634c1.943,1.943 4.172,4.172 4.172,4.172c0,0 0,0.985 0,2.158c0,0.923 -0.426,1.796 -1.154,2.364c-0.728,0.569 -1.677,0.77 -2.574,0.546c-0.917,-0.229 -1.782,-0.445 -2.294,-0.574c-0.318,-0.079 -0.643,-0.119 -0.97,-0.119c-0.005,0 -0.011,0 -0.016,0c-0.327,0 -0.652,0.04 -0.97,0.119c-0.512,0.129 -1.377,0.345 -2.294,0.574c-0.897,0.224 -1.846,0.023 -2.574,-0.546c-0.728,-0.568 -1.154,-1.441 -1.154,-2.364c0,-0.172 0,-0.34 0,-0.501c0,-1.061 0.421,-2.078 1.172,-2.829c0.819,-0.819 1.951,-1.951 3,-3c0.299,-0.299 0.642,-0.547 1.014,-0.735l1.814,0.907Z" style="fill:#ff80b7;"/><path d="M19,10l5,5c0,0 -17.314,9.01 -17.556,8.348c-0.112,-0.304 -0.207,-0.613 -0.29,-0.926c-0.41,-1.602 -0.803,-3.207 -1.205,-4.811c-0.023,-0.1 -0.043,-0.199 -0.056,-0.301c-0.025,-0.202 -0.025,-0.408 0,-0.61c0.079,-0.645 0.414,-1.245 0.922,-1.65c0.186,-0.148 0.393,-0.27 0.614,-0.36c0.028,-0.012 0.058,-0.023 0.087,-0.034l2.097,-1.398l3.723,-1.37l1.764,-0.588l3.898,-1.3l1.002,0Z" style="fill:none;"/><clipPath id="_clip1"><path d="M19,10l5,5c0,0 -17.314,9.01 -17.556,8.348c-0.112,-0.304 -0.207,-0.613 -0.29,-0.926c-0.41,-1.602 -0.803,-3.207 -1.205,-4.811c-0.023,-0.1 -0.043,-0.199 -0.056,-0.301c-0.025,-0.202 -0.025,-0.408 0,-0.61c0.079,-0.645 0.414,-1.245 0.922,-1.65c0.186,-0.148 0.393,-0.27 0.614,-0.36c0.028,-0.012 0.058,-0.023 0.087,-0.034l2.097,-1.398l3.723,-1.37l1.764,-0.588l3.898,-1.3l1.002,0Z"/></clipPath><g clip-path="url(#_clip1)"><path d="M7.75,12c0,0 0.678,2.714 1.19,4.762c0.31,1.238 1.562,1.993 2.801,1.689c0.001,0 0.001,0 0.002,-0.001c1.031,-0.252 1.757,-1.177 1.757,-2.239c0,-2.36 0,-6.191 0,-6.191" style="fill:none;stroke:#640082;stroke-width:1px;"/><path d="M18.5,5c0,0 0,6.811 0,10.378c0,1.206 -0.911,2.217 -2.111,2.341c-0.096,0.011 -0.194,0.021 -0.291,0.031c-0.664,0.069 -1.325,-0.147 -1.82,-0.593c-0.495,-0.447 -0.778,-1.082 -0.778,-1.749c0,-2.334 0,-5.388 0,-5.388" style="fill:none;stroke:#640082;stroke-width:1px;"/><path d="M7.75,11.998c0,0 0.682,2.729 1.195,4.779c0.307,1.227 -0.439,2.47 -1.665,2.777c0,0 0,0 0,0c-0.776,0.195 -1.592,-0.095 -2.072,-0.735c-0.36,-0.48 -0.708,-0.944 -0.708,-0.944" style="fill:none;stroke:#640082;stroke-width:1px;"/></g><path d="M24,16l-7,0c0,0 0,0.403 0,1c0,2.761 2.239,5 5,5c0.597,0 1,0 1,0" style="fill:#f10dc3;stroke:#640082;stroke-width:2px;stroke-linecap:butt;"/><ellipse cx="21.5" cy="6.5" rx="2" ry="3" style="fill:#ff80b7;"/></g></svg>