<?xml version="1.0" encoding="UTF-8" standalone="no"?><!DOCTYPE svg PUBLIC "-//W3C//DTD SVG 1.1//EN" "http://www.w3.org/Graphics/SVG/1.1/DTD/svg11.dtd"><svg width="100%" height="100%" viewBox="0 0 32 32" version="1.1" xmlns="http://www.w3.org/2000/svg" xmlns:xlink="http://www.w3.org/1999/xlink" xml:space="preserve" xmlns:serif="http://www.serif.com/" style="fill-rule:evenodd;clip-rule:evenodd;stroke-linecap:round;stroke-miterlimit:1.5;"><rect id="metal--paw-" serif:id="metal [paw]" x="0" y="0" width="32" height="32" style="fill:none;"/><g id="outline"><path d="M18,7.528l0,-3.04c0.006,-0.477 0.078,-0.948 0.228,-1.402c0.196,-0.593 0.517,-1.143 0.936,-1.606c0.446,-0.493 1,-0.883 1.614,-1.138c0.339,-0.14 0.695,-0.239 1.057,-0.293c0.147,-0.022 0.294,-0.034 0.442,-0.044c0.112,-0.004 0.223,-0.005 0.335,-0.004c0.148,0.006 0.295,0.015 0.443,0.033c0.364,0.045 0.723,0.135 1.065,0.268c0.619,0.239 1.183,0.615 1.64,1.096c0.457,0.48 0.804,1.06 1.012,1.688c0.15,0.454 0.222,0.925 0.228,1.402l0,10.836c0.049,0.019 0.098,0.038 0.147,0.058c1.131,0.47 2.065,1.357 2.593,2.461c0.201,0.42 0.342,0.868 0.42,1.326c0.069,0.415 0.087,0.837 0.051,1.256c-0.016,0.188 -0.045,0.374 -0.08,0.56c-0.133,0.615 -0.279,1.228 -0.423,1.84c-0.094,0.378 -0.201,0.751 -0.329,1.118c-0.278,0.8 -0.64,1.57 -1.08,2.293c-0.755,1.24 -1.736,2.34 -2.881,3.232c-1.146,0.892 -2.454,1.574 -3.842,2.002c-0.77,0.237 -1.564,0.396 -2.365,0.474c-0.345,0.033 -0.69,0.05 -1.036,0.055l-0.125,0.001l-0.878,0l-0.003,-0.003c-0.271,0.001 -0.543,0.001 -0.814,-0.001c-0.372,-0.005 -0.743,-0.025 -1.112,-0.064c-0.806,-0.085 -1.603,-0.255 -2.374,-0.506c-1.359,-0.443 -2.634,-1.138 -3.743,-2.04c-1.048,-0.853 -1.946,-1.889 -2.64,-3.048c-0.376,-0.627 -0.692,-1.289 -0.943,-1.975c-0.128,-0.348 -0.236,-0.703 -0.332,-1.062c-0.965,-3.772 -1.89,-7.554 -2.835,-11.331c-0.036,-0.159 -0.069,-0.318 -0.089,-0.481c-0.04,-0.324 -0.04,-0.652 0,-0.976c0.126,-1.032 0.663,-1.991 1.475,-2.64c0.298,-0.237 0.629,-0.432 0.982,-0.576c0.302,-0.123 0.619,-0.21 0.943,-0.256c0.162,-0.024 0.324,-0.033 0.487,-0.04c0.163,0 0.163,0 0.326,0.006c0.145,0.012 0.181,0.013 0.325,0.034c0.215,0.03 0.428,0.079 0.636,0.144c0.938,0.297 1.748,0.942 2.246,1.791c0.137,0.234 0.251,0.483 0.338,0.74c0.032,0.092 0.045,0.139 0.062,0.201l0.012,-0.005c0.362,-0.167 0.747,-0.285 1.141,-0.351c0.158,-0.026 0.317,-0.042 0.476,-0.053c0.12,-0.006 0.24,-0.008 0.36,-0.007c0.12,0.004 0.239,0.01 0.358,0.022c0.318,0.032 0.633,0.098 0.936,0.197c0.065,0.021 0.129,0.044 0.192,0.067c0.195,-0.344 0.435,-0.664 0.713,-0.946c0.456,-0.462 1.011,-0.823 1.619,-1.052c0.323,-0.122 0.661,-0.206 1.004,-0.251c0.172,-0.023 0.344,-0.033 0.517,-0.038c0.13,0 0.129,0 0.259,0.004c0.103,0.006 0.204,0.013 0.306,0.024Z"/></g><g id="emoji"><path d="M7,11l4,2l2,-1l3,-1l2,-1l3,0l0,10l-14,0l0,-9Z" style="fill:#640082;"/><path d="M20,12.005l0,-7.505c0,-0.663 0.263,-1.299 0.732,-1.768c0.469,-0.469 1.105,-0.732 1.768,-0.732c0.663,0 1.299,0.263 1.768,0.732c0.469,0.469 0.732,1.105 0.732,1.768l0,10.5l-1,1l1,1l0.229,0c0.914,0 1.778,0.417 2.348,1.132c0.569,0.716 0.781,1.652 0.575,2.543c-0.116,0.502 -0.238,1.032 -0.363,1.574c-1.047,4.537 -5.088,7.751 -9.744,7.751l-0.045,0l0.002,-0.004l-0.002,0c-0.575,0 -1.155,0.007 -1.733,-0.002c-0.912,-0.024 -1.816,-0.168 -2.687,-0.442c-1.098,-0.345 -2.132,-0.889 -3.039,-1.598c-0.855,-0.667 -1.596,-1.479 -2.182,-2.392c-0.529,-0.824 -0.923,-1.725 -1.186,-2.668c-1.011,-3.788 -1.904,-7.606 -2.855,-11.409c-0.022,-0.101 -0.03,-0.126 -0.043,-0.228c-0.02,-0.154 -0.022,-0.31 -0.006,-0.465c0.069,-0.663 0.477,-1.261 1.07,-1.568c0.172,-0.089 0.357,-0.153 0.548,-0.189c0.101,-0.019 0.128,-0.02 0.23,-0.03c0.117,-0.005 0.117,-0.005 0.233,-0.003c0.195,0.015 0.384,0.045 0.569,0.11c0.479,0.168 0.882,0.518 1.115,0.968c0.072,0.14 0.122,0.284 0.165,0.435c0.54,2.159 1.06,4.324 1.595,6.485l0.37,0c-0.195,-0.798 -0.39,-1.597 -0.589,-2.394c-0.068,-0.291 -0.093,-0.587 -0.059,-0.885c0.026,-0.237 0.087,-0.47 0.179,-0.689c0.243,-0.579 0.705,-1.053 1.278,-1.311c0.301,-0.136 0.621,-0.204 0.95,-0.22c0.09,-0.001 0.089,-0.001 0.179,0.001c0.208,0.012 0.413,0.043 0.614,0.103c0.573,0.171 1.073,0.549 1.394,1.054c0.128,0.202 0.222,0.42 0.292,0.648c0.201,0.745 0.394,1.492 0.583,2.24c0.007,-1.182 0.015,-2.365 0.015,-3.547c0.006,-0.293 0.05,-0.579 0.151,-0.855c0.256,-0.705 0.83,-1.268 1.54,-1.51c0.246,-0.085 0.5,-0.124 0.76,-0.135c0.097,0 0.097,0 0.194,0.004c0.292,0.023 0.575,0.084 0.845,0.2c0.628,0.271 1.125,0.799 1.359,1.441c0.089,0.245 0.134,0.498 0.149,0.758l0.002,0.102Z" style="fill:#f10dc3;"/><path d="M17,18l2,0l0,-0.806c0.3,0.172 0.579,0.385 0.828,0.634c1.943,1.943 4.172,4.172 4.172,4.172c0,0 0,0.985 0,2.158c0,0.923 -0.426,1.796 -1.154,2.364c-0.728,0.569 -1.677,0.77 -2.574,0.546c-0.917,-0.229 -1.782,-0.445 -2.294,-0.574c-0.318,-0.079 -0.643,-0.119 -0.97,-0.119c-0.005,0 -0.011,0 -0.016,0c-0.327,0 -0.652,0.04 -0.97,0.119c-0.512,0.129 -1.377,0.345 -2.294,0.574c-0.897,0.224 -1.846,0.023 -2.574,-0.546c-0.728,-0.568 -1.154,-1.441 -1.154,-2.364c0,-0.172 0,-0.34 0,-0.501c0,-1.061 0.421,-2.078 1.172,-2.829c0.819,-0.819 1.951,-1.951 3,-3c0.299,-0.299 0.642,-0.547 1.014,-0.735l1.814,0.907Z" style="fill:#ff80b7;"/><path d="M7,11l4,2l2,-1l3,-1l2,-1l3,0l0,10l-14,0l0,-9Z" style="fill:none;"/><clipPath id="_clip1"><path d="M7,11l4,2l2,-1l3,-1l2,-1l3,0l0,10l-14,0l0,-9Z"/></clipPath><g clip-path="url(#_clip1)"><path d="M9.015,11c0,0 0,0.458 0,0.754c0,0.163 0.02,0.326 0.06,0.485c0.179,0.717 0.726,2.905 1.147,4.587c0.292,1.168 1.473,1.881 2.643,1.594c0.001,0 0.001,0 0.001,0c0.959,-0.235 1.634,-1.095 1.634,-2.082c0,-2.347 0,-6.318 0,-6.318" style="fill:none;stroke:#640082;stroke-width:1px;"/><path d="M19.5,7c0,0 0,5.31 0,8.378c0,1.206 -0.911,2.217 -2.111,2.341c-0.096,0.011 -0.194,0.021 -0.291,0.031c-0.664,0.069 -1.325,-0.147 -1.82,-0.593c-0.495,-0.447 -0.778,-1.082 -0.778,-1.749c0,-2.334 0,-5.388 0,-5.388" style="fill:none;stroke:#640082;stroke-width:1px;"/></g><path d="M6.072,10.393c0.849,-0.212 1.795,0.641 2.109,1.903c0.315,1.262 -0.119,2.459 -0.969,2.671c-0.85,0.212 -1.795,-0.641 -2.109,-1.903c-0.315,-1.262 0.119,-2.459 0.969,-2.671Z" style="fill:#ff80b7;"/><path d="M25,16l-7,0c0,0 0,0.403 0,1c0,2.761 2.239,5 5,5c0.597,0 1,0 1,0" style="fill:#f10dc3;stroke:#640082;stroke-width:2px;stroke-linecap:butt;"/><ellipse cx="22.5" cy="6.5" rx="2" ry="3" style="fill:#ff80b7;"/></g></svg>