<?xml version="1.0" encoding="UTF-8" standalone="no"?>
<!DOCTYPE svg PUBLIC "-//W3C//DTD SVG 1.1//EN" "http://www.w3.org/Graphics/SVG/1.1/DTD/svg11.dtd">
<svg width="100%" height="100%" viewBox="0 0 32 32" version="1.1" xmlns="http://www.w3.org/2000/svg" xmlns:xlink="http://www.w3.org/1999/xlink" xml:space="preserve" xmlns:serif="http://www.serif.com/" style="fill-rule:evenodd;clip-rule:evenodd;stroke-linecap:round;stroke-miterlimit:1.5;">
    <rect id="middle_finger--paw-" serif:id="middle_finger [paw]" x="0" y="0" width="32" height="32" style="fill:none;"/>
    <clipPath id="_clip1">
        <rect x="0" y="0" width="32" height="32"/>
    </clipPath>
    <g clip-path="url(#_clip1)">
        <g id="outline">
            <path d="M10.941,9l0.123,0.004l0.123,0.007l0.123,0.01l0.122,0.013l0.122,0.017l0.121,0.02l0.12,0.024l0.12,0.027l0.12,0.03l0.118,0.033l0.117,0.036l0.117,0.04l0.115,0.043l0.114,0.046l0.113,0.049l0.111,0.052l0.11,0.055l0.108,0.058l0.107,0.062l0.105,0.064l0.103,0.066l0.101,0.07l0.1,0.072l0.097,0.075l0.095,0.078l0.094,0.08l0.09,0.083l0.089,0.085l0.086,0.088l0.084,0.09l0.081,0.092l0.079,0.094l0.076,0.097l0.074,0.098l0.071,0.101l0.068,0.102l0.065,0.104l0.062,0.106l0.06,0.108l0.056,0.109l0.054,0.111l0.05,0.112l0.047,0.113l0.045,0.115l0.041,0.116l0.038,0.117l0.034,0.118l0.032,0.119l2.124,8.496l0.028,0.119l0.025,0.121l0.021,0.121l0.019,0.121l0.015,0.122l0.011,0.123l0.009,0.122l0.004,0.123l0.002,0.123l-0.002,0.123l-0.005,0.123l-0.008,0.122l-0.012,0.123l-0.015,0.122l-0.019,0.121l-0.022,0.121l-0.025,0.121l-0.028,0.119l-0.032,0.119l-0.035,0.118l-0.038,0.117l-0.041,0.116l-0.045,0.114l-0.047,0.114l-0.051,0.112l-0.053,0.11l-0.057,0.109l-0.06,0.108l-0.062,0.106l-0.066,0.104l-0.068,0.102l-0.071,0.1l-0.073,0.099l-0.077,0.096l-0.079,0.094l-0.081,0.092l-0.084,0.09l-0.087,0.087l-0.088,0.086l-0.091,0.082l-0.094,0.08l-0.095,0.078l-0.098,0.075l-0.099,0.072l-0.102,0.069l-0.103,0.067l-0.105,0.064l-0.107,0.06l-0.108,0.058l-0.11,0.055l-0.112,0.052l-0.112,0.049l-0.114,0.046l-0.116,0.043l-0.116,0.039l-0.118,0.036l-0.118,0.033l-0.119,0.03l-0.12,0.027l-0.121,0.023l-0.121,0.02l-0.122,0.017l-0.122,0.013l-0.123,0.01l-0.123,0.006l-0.122,0.004l-0.123,0l-0.123,-0.004l-0.123,-0.007l-0.123,-0.01l-0.122,-0.013l-0.121,-0.017l-0.122,-0.02l-0.12,-0.024l-0.12,-0.027l-0.12,-0.03l-0.118,-0.033l-0.117,-0.036l-0.117,-0.04l-0.115,-0.043l-0.114,-0.046l-0.113,-0.049l-0.111,-0.052l-0.11,-0.055l-0.108,-0.058l-0.107,-0.062l-0.105,-0.063l-0.103,-0.067l-0.101,-0.07l-0.1,-0.072l-0.097,-0.075l-0.095,-0.078l-0.093,-0.08l-0.091,-0.083l-0.089,-0.085l-0.086,-0.088l-0.084,-0.09l-0.081,-0.092l-0.079,-0.094l-0.076,-0.097l-0.074,-0.098l-0.071,-0.101l-0.068,-0.102l-0.065,-0.104l-0.062,-0.106l-0.06,-0.108l-0.056,-0.109l-0.054,-0.111l-0.05,-0.112l-0.047,-0.113l-0.045,-0.115l-0.041,-0.116l-0.038,-0.117l-0.034,-0.118l-0.032,-0.119l-2.124,-8.496l-0.028,-0.119l-0.025,-0.121l-0.021,-0.121l-0.019,-0.121l-0.015,-0.122l-0.011,-0.123l-0.008,-0.122l-0.005,-0.123l-0.002,-0.123l0.002,-0.123l0.005,-0.123l0.008,-0.122l0.012,-0.123l0.015,-0.122l0.019,-0.121l0.022,-0.121l0.025,-0.121l0.028,-0.119l0.032,-0.119l0.035,-0.118l0.038,-0.117l0.041,-0.115l0.045,-0.115l0.047,-0.113l0.051,-0.112l0.053,-0.111l0.057,-0.109l0.06,-0.108l0.062,-0.106l0.066,-0.104l0.068,-0.102l0.071,-0.1l0.073,-0.099l0.077,-0.096l0.079,-0.094l0.081,-0.092l0.084,-0.09l0.087,-0.087l0.088,-0.085l0.091,-0.083l0.094,-0.08l0.095,-0.078l0.098,-0.074l0.099,-0.073l0.102,-0.069l0.103,-0.067l0.105,-0.063l0.107,-0.061l0.108,-0.058l0.11,-0.055l0.112,-0.052l0.112,-0.049l0.115,-0.046l0.115,-0.043l0.116,-0.039l0.118,-0.036l0.118,-0.033l0.119,-0.03l0.12,-0.027l0.121,-0.023l0.121,-0.02l0.122,-0.017l0.122,-0.013l0.123,-0.01l0.123,-0.006l0.123,-0.004l0.122,0Z"/>
            <path d="M16.762,0.004l0.174,0.013l0.173,0.02l0.172,0.027l0.172,0.034l0.17,0.04l0.168,0.047l0.166,0.053l0.164,0.06l0.161,0.066l0.159,0.072l0.156,0.079l0.153,0.084l0.149,0.09l0.146,0.096l0.142,0.101l0.138,0.107l0.134,0.113l0.129,0.117l0.125,0.122l0.12,0.127l0.114,0.132l0.11,0.135l0.104,0.14l0.099,0.144l0.093,0.148l0.087,0.151l0.081,0.154l0.076,0.158l0.069,0.16l0.063,0.163l0.056,0.165l0.05,0.167l0.044,0.169l0.037,0.171l0.03,0.172l0.024,0.173l0.017,0.173l0.01,0.175l0.003,0.174l0,17l-0.003,0.175l-0.01,0.174l-0.017,0.173l-0.024,0.173l-0.03,0.172l-0.037,0.171l-0.044,0.169l-0.05,0.167l-0.056,0.165l-0.063,0.163l-0.069,0.16l-0.076,0.158l-0.081,0.154l-0.087,0.151l-0.093,0.148l-0.099,0.144l-0.104,0.14l-0.11,0.136l-0.114,0.131l-0.12,0.127l-0.125,0.122l-0.129,0.118l-0.134,0.112l-0.138,0.107l-0.142,0.101l-0.146,0.096l-0.149,0.09l-0.153,0.084l-0.156,0.079l-0.159,0.072l-0.161,0.066l-0.164,0.06l-0.166,0.053l-0.168,0.047l-0.17,0.04l-0.172,0.034l-0.172,0.027l-0.173,0.02l-0.174,0.013l-0.175,0.007l-0.174,0l-0.175,-0.007l-0.174,-0.013l-0.173,-0.02l-0.172,-0.027l-0.172,-0.034l-0.169,-0.04l-0.169,-0.047l-0.166,-0.053l-0.164,-0.06l-0.161,-0.066l-0.159,-0.072l-0.156,-0.079l-0.153,-0.084l-0.149,-0.09l-0.146,-0.096l-0.142,-0.101l-0.138,-0.107l-0.134,-0.112l-0.129,-0.118l-0.125,-0.122l-0.119,-0.127l-0.115,-0.131l-0.11,-0.136l-0.104,-0.14l-0.099,-0.144l-0.093,-0.148l-0.087,-0.151l-0.081,-0.154l-0.076,-0.158l-0.069,-0.16l-0.063,-0.163l-0.056,-0.165l-0.05,-0.167l-0.044,-0.169l-0.037,-0.171l-0.03,-0.172l-0.024,-0.173l-0.016,-0.173l-0.011,-0.174l-0.003,-0.175l0,-17l0.003,-0.174l0.011,-0.175l0.016,-0.173l0.024,-0.173l0.03,-0.172l0.037,-0.171l0.044,-0.169l0.05,-0.167l0.056,-0.165l0.063,-0.163l0.069,-0.16l0.076,-0.158l0.081,-0.154l0.087,-0.151l0.093,-0.148l0.099,-0.144l0.104,-0.14l0.11,-0.135l0.115,-0.132l0.119,-0.127l0.125,-0.122l0.129,-0.117l0.134,-0.113l0.138,-0.107l0.142,-0.101l0.146,-0.096l0.149,-0.09l0.153,-0.084l0.156,-0.079l0.159,-0.072l0.161,-0.066l0.164,-0.06l0.166,-0.053l0.169,-0.047l0.169,-0.04l0.172,-0.034l0.172,-0.027l0.173,-0.02l0.174,-0.013l0.175,-0.007l0.174,0l0.175,0.007Z"/>
            <path d="M16,30l-1.351,0c-4.631,0 -8.656,-3.179 -9.728,-7.684c-0.217,-0.91 -0.43,-1.804 -0.625,-2.621c-0.212,-0.893 -0.004,-1.834 0.565,-2.554c0.569,-0.721 1.436,-1.141 2.354,-1.141c1.645,0 3.202,0 3.202,0l4.583,11l4,0l-3,3Z"/>
            <path d="M16.333,25l5.086,0l0.706,1.704l-5.297,5.296l-2.185,0l-0.124,-0.001l-0.13,-0.002l-0.129,-0.003l-0.129,-0.005l-0.129,-0.006l-0.129,-0.008l-0.128,-0.009l-0.128,-0.01l-0.128,-0.012l-0.127,-0.013l-0.127,-0.014l-0.127,-0.016l-0.126,-0.017l-0.126,-0.018l-0.125,-0.02l-0.126,-0.02l-0.124,-0.023l-0.125,-0.023l-0.124,-0.025l-0.123,-0.026l-0.124,-0.027l-0.122,-0.029l-0.123,-0.03l-0.122,-0.031l-0.121,-0.032l-0.121,-0.034l-0.12,-0.035l-0.12,-0.036l-0.12,-0.037l-0.119,-0.038l-0.118,-0.04l-0.118,-0.041l-0.117,-0.042l-0.117,-0.043l-0.116,-0.045l-0.116,-0.045l-0.115,-0.047l-0.115,-0.048l-0.114,-0.049l-0.113,-0.05l-0.113,-0.052l-0.113,-0.052l-0.112,-0.054l-0.11,-0.054l-0.111,-0.056l-0.109,-0.057l-0.11,-0.058l-0.108,-0.06l-0.108,-0.06l-0.107,-0.061l-0.107,-0.063l-0.105,-0.063l-0.106,-0.065l-0.104,-0.065l-0.104,-0.067l-0.103,-0.068l-0.102,-0.068l-0.102,-0.07l-0.101,-0.071l-0.1,-0.072l-0.099,-0.073l-0.099,-0.074l-0.097,-0.074l-0.097,-0.076l-0.097,-0.077l-0.095,-0.078l-0.095,-0.079l-0.094,-0.079l-0.093,-0.081l-0.092,-0.082l-0.091,-0.082l-0.091,-0.084l-0.09,-0.085l-0.089,-0.085l-0.087,-0.086l-0.088,-0.088l-0.086,-0.088l-0.085,-0.089l-0.085,-0.09l-0.083,-0.091l-0.083,-0.092l-0.082,-0.093l-0.081,-0.093l-0.08,-0.095l-0.079,-0.095l-0.078,-0.096l-0.077,-0.097l-0.076,-0.098l-0.075,-0.099l-0.074,-0.099l-0.074,-0.101l-0.071,-0.101l-0.072,-0.102l-0.07,-0.103l-0.069,-0.103l-0.068,-0.105l-0.067,-0.105l-0.066,-0.107l-0.065,-0.106l-0.064,-0.108l-0.063,-0.108l-0.062,-0.109l-0.06,-0.11l-0.06,-0.11l-0.058,-0.112l-0.058,-0.112l-0.056,-0.113l-0.055,-0.113l-0.054,-0.115l-0.053,-0.114l-0.052,-0.116l-0.05,-0.117l-0.049,-0.116l-0.049,-0.118l-0.047,-0.118l-0.045,-0.119l-0.045,-0.12l-0.043,-0.12l-0.042,-0.121l-0.041,-0.121l-0.04,-0.122l-0.038,-0.123l-0.037,-0.123l-0.036,-0.124l-0.035,-0.124l-0.033,-0.125l-0.032,-0.127l-0.03,-0.121l-0.628,-2.64l-0.028,-0.125l-0.028,-0.14l-0.023,-0.141l-0.019,-0.141l-0.015,-0.141l-0.01,-0.141l-0.007,-0.14l-0.003,-0.141l0.001,-0.141l0.005,-0.14l0.009,-0.14l0.012,-0.139l0.017,-0.14l0.021,-0.138l0.024,-0.138l0.028,-0.136l0.032,-0.136l0.036,-0.136l0.04,-0.134l0.043,-0.133l0.047,-0.131l0.051,-0.131l0.055,-0.13l0.058,-0.128l0.062,-0.126l0.066,-0.125l0.069,-0.123l0.073,-0.122l0.076,-0.12l0.08,-0.117l0.084,-0.116l0.087,-0.113l0.09,-0.111l0.093,-0.108l0.096,-0.105l0.099,-0.103l0.101,-0.098l0.104,-0.096l0.106,-0.093l0.109,-0.09l0.111,-0.086l0.113,-0.083l0.115,-0.08l0.118,-0.076l0.119,-0.073l0.122,-0.07l0.123,-0.066l0.125,-0.063l0.126,-0.059l0.129,-0.056l0.13,-0.052l0.131,-0.048l0.133,-0.045l0.134,-0.041l0.135,-0.037l0.137,-0.034l0.137,-0.03l0.139,-0.026l0.139,-0.022l0.141,-0.018l0.141,-0.014l0.142,-0.01l0.143,-0.006l0.129,-0.002l4.549,0l4.583,11Zm-9.104,-7l-0.043,0.001l-0.029,0.001l-0.028,0.002l-0.028,0.003l-0.028,0.003l-0.028,0.005l-0.028,0.005l-0.027,0.006l-0.027,0.007l-0.027,0.007l-0.027,0.008l-0.027,0.009l-0.026,0.01l-0.026,0.01l-0.026,0.011l-0.025,0.012l-0.025,0.013l-0.025,0.013l-0.024,0.014l-0.024,0.015l-0.023,0.015l-0.023,0.016l-0.023,0.017l-0.022,0.017l-0.022,0.018l-0.021,0.018l-0.021,0.019l-0.02,0.02l-0.02,0.02l-0.019,0.021l-0.019,0.022l-0.018,0.022l-0.017,0.023l-0.017,0.023l-0.016,0.024l-0.015,0.024l-0.015,0.024l-0.014,0.025l-0.013,0.024l-0.012,0.026l-0.012,0.025l-0.011,0.026l-0.01,0.026l-0.009,0.027l-0.009,0.026l-0.008,0.027l-0.007,0.027l-0.006,0.027l-0.006,0.028l-0.005,0.027l-0.004,0.028l-0.003,0.028l-0.003,0.027l-0.002,0.029l-0.001,0.028l0,0.028l0.001,0.028l0.001,0.028l0.002,0.028l0.003,0.028l0.004,0.028l0.004,0.028l0.006,0.028l0.009,0.042l0.62,2.603l0.022,0.09l0.021,0.083l0.022,0.084l0.024,0.083l0.024,0.083l0.025,0.083l0.025,0.081l0.027,0.082l0.027,0.081l0.028,0.08l0.029,0.081l0.029,0.079l0.031,0.08l0.031,0.078l0.032,0.079l0.033,0.078l0.034,0.077l0.034,0.077l0.036,0.077l0.035,0.076l0.037,0.075l0.037,0.075l0.039,0.075l0.038,0.074l0.04,0.073l0.041,0.074l0.041,0.072l0.041,0.072l0.043,0.072l0.043,0.071l0.044,0.071l0.045,0.069l0.045,0.07l0.046,0.069l0.047,0.069l0.047,0.067l0.049,0.068l0.048,0.067l0.049,0.066l0.051,0.066l0.05,0.065l0.052,0.065l0.052,0.064l0.052,0.064l0.054,0.063l0.054,0.062l0.054,0.062l0.055,0.061l0.056,0.061l0.056,0.06l0.057,0.059l0.058,0.059l0.058,0.058l0.059,0.058l0.059,0.057l0.06,0.056l0.06,0.056l0.061,0.055l0.062,0.055l0.062,0.054l0.063,0.053l0.063,0.053l0.064,0.052l0.064,0.051l0.065,0.05l0.065,0.051l0.066,0.049l0.066,0.048l0.067,0.048l0.067,0.048l0.068,0.046l0.068,0.046l0.069,0.045l0.07,0.045l0.069,0.043l0.07,0.043l0.071,0.043l0.071,0.042l0.071,0.04l0.072,0.041l0.073,0.039l0.072,0.039l0.073,0.038l0.074,0.037l0.074,0.037l0.075,0.035l0.074,0.035l0.075,0.034l0.076,0.034l0.076,0.033l0.076,0.032l0.077,0.031l0.077,0.03l0.078,0.03l0.078,0.029l0.078,0.028l0.078,0.027l0.079,0.026l0.079,0.026l0.08,0.025l0.08,0.024l0.08,0.023l0.08,0.022l0.081,0.022l0.081,0.02l0.081,0.02l0.082,0.019l0.082,0.018l0.082,0.018l0.083,0.016l0.076,0.015l-4.112,-9.868l-1.854,0Z"/>
            <path d="M22.305,9.004l0.123,0.006l0.123,0.01l0.122,0.013l0.122,0.017l0.121,0.02l0.121,0.023l0.12,0.027l0.119,0.03l0.118,0.033l0.118,0.036l0.116,0.039l0.115,0.043l0.115,0.046l0.112,0.049l0.112,0.052l0.11,0.055l0.108,0.058l0.107,0.061l0.105,0.063l0.103,0.067l0.102,0.069l0.099,0.072l0.098,0.075l0.095,0.078l0.094,0.08l0.091,0.083l0.088,0.085l0.087,0.087l0.084,0.09l0.081,0.092l0.079,0.094l0.077,0.096l0.073,0.099l0.071,0.1l0.068,0.102l0.066,0.104l0.062,0.106l0.06,0.108l0.057,0.109l0.053,0.111l0.051,0.112l0.047,0.113l0.045,0.115l0.041,0.115l0.038,0.117l0.035,0.118l0.032,0.119l0.028,0.119l0.025,0.121l0.022,0.121l0.019,0.121l0.015,0.122l0.012,0.123l0.008,0.122l0.005,0.123l0.002,0.123l-0.002,0.123l-0.005,0.123l-0.008,0.122l-0.011,0.123l-0.015,0.122l-0.019,0.121l-0.021,0.121l-0.025,0.121l-0.028,0.119l-2.125,8.5l-0.032,0.119l-0.034,0.118l-0.038,0.117l-0.041,0.116l-0.045,0.115l-0.047,0.113l-0.05,0.112l-0.054,0.111l-0.056,0.109l-0.06,0.108l-0.062,0.106l-0.065,0.104l-0.068,0.102l-0.071,0.101l-0.074,0.098l-0.076,0.097l-0.079,0.094l-0.081,0.092l-0.084,0.09l-0.086,0.088l-0.089,0.085l-0.091,0.083l-0.093,0.08l-0.095,0.078l-0.097,0.075l-0.1,0.072l-0.101,0.07l-0.103,0.066l-0.105,0.064l-0.107,0.062l-0.108,0.058l-0.11,0.055l-0.111,0.052l-0.113,0.049l-0.114,0.046l-0.115,0.043l-0.117,0.04l-0.117,0.036l-0.118,0.033l-0.12,0.03l-0.12,0.027l-0.12,0.024l-0.121,0.02l-0.122,0.017l-0.122,0.013l-0.123,0.01l-0.123,0.007l-0.123,0.004l-0.122,0l-0.123,-0.004l-0.123,-0.006l-0.123,-0.01l-0.122,-0.013l-0.122,-0.017l-0.121,-0.02l-0.121,-0.023l-0.12,-0.027l-0.119,-0.03l-0.118,-0.033l-0.118,-0.036l-0.116,-0.04l-0.116,-0.042l-0.114,-0.046l-0.112,-0.049l-0.112,-0.052l-0.11,-0.055l-0.108,-0.058l-0.107,-0.061l-0.105,-0.063l-0.103,-0.067l-0.102,-0.069l-0.099,-0.073l-0.098,-0.074l-0.095,-0.078l-0.094,-0.08l-0.091,-0.083l-0.088,-0.085l-0.087,-0.087l-0.084,-0.09l-0.081,-0.092l-0.079,-0.094l-0.077,-0.096l-0.073,-0.099l-0.071,-0.1l-0.068,-0.102l-0.066,-0.104l-0.062,-0.106l-0.06,-0.108l-0.057,-0.109l-0.053,-0.111l-0.051,-0.112l-0.047,-0.113l-0.045,-0.115l-0.041,-0.115l-0.038,-0.117l-0.035,-0.118l-0.032,-0.119l-0.028,-0.119l-0.025,-0.121l-0.022,-0.121l-0.019,-0.121l-0.015,-0.122l-0.012,-0.123l-0.008,-0.122l-0.005,-0.123l-0.002,-0.123l0.002,-0.123l0.004,-0.123l0.009,-0.122l0.011,-0.123l0.015,-0.122l0.019,-0.121l0.021,-0.121l0.025,-0.121l0.028,-0.119l2.125,-8.5l0.032,-0.119l0.034,-0.118l0.038,-0.117l0.041,-0.116l0.045,-0.115l0.047,-0.113l0.05,-0.112l0.054,-0.111l0.056,-0.109l0.06,-0.108l0.062,-0.106l0.065,-0.104l0.068,-0.102l0.071,-0.101l0.074,-0.098l0.076,-0.097l0.079,-0.094l0.081,-0.092l0.084,-0.09l0.086,-0.088l0.089,-0.085l0.09,-0.083l0.094,-0.08l0.095,-0.078l0.097,-0.075l0.1,-0.072l0.101,-0.07l0.103,-0.066l0.105,-0.064l0.107,-0.062l0.108,-0.058l0.11,-0.055l0.111,-0.052l0.113,-0.049l0.114,-0.046l0.115,-0.043l0.117,-0.04l0.117,-0.036l0.118,-0.033l0.12,-0.03l0.12,-0.027l0.12,-0.024l0.121,-0.02l0.122,-0.017l0.122,-0.013l0.123,-0.01l0.123,-0.007l0.123,-0.004l0.122,0l0.123,0.004Z"/>
            <path d="M25.698,12.501l0.137,0.004l0.137,0.008l0.137,0.013l0.136,0.017l0.136,0.021l0.135,0.025l0.134,0.029l0.133,0.034l0.132,0.037l0.131,0.041l0.129,0.046l0.129,0.049l0.126,0.053l0.125,0.057l0.123,0.061l0.121,0.064l0.119,0.068l0.117,0.072l0.115,0.075l0.112,0.079l0.11,0.082l0.108,0.086l0.105,0.088l0.102,0.092l0.099,0.095l0.096,0.098l0.093,0.101l0.09,0.103l0.087,0.106l0.084,0.109l0.08,0.112l0.077,0.113l0.073,0.116l0.07,0.119l0.066,0.12l0.062,0.122l0.059,0.124l0.055,0.126l0.051,0.128l0.047,0.129l0.043,0.13l0.039,0.131l0.035,0.133l0.031,0.134l0.027,0.134l0.022,0.136l0.019,0.136l0.015,0.136l0.01,0.137l0.006,0.137l0.002,0.137l-0.002,0.138l-0.007,0.137l-0.01,0.137l-0.015,0.136l-0.019,0.136l-0.023,0.135l-0.027,0.135l-0.031,0.133l-1.18,4.721l-0.03,0.115l-0.033,0.125l-0.035,0.124l-0.036,0.124l-0.037,0.124l-0.039,0.124l-0.04,0.123l-0.041,0.123l-0.042,0.119l-0.043,0.121l-0.045,0.121l-0.046,0.12l-0.047,0.118l-0.049,0.119l-0.05,0.118l-0.049,0.115l-0.052,0.116l-0.054,0.117l-0.054,0.115l-0.055,0.114l-0.057,0.114l-0.057,0.112l-0.059,0.112l-0.06,0.112l-0.06,0.11l-0.062,0.11l-0.063,0.108l-0.064,0.108l-0.066,0.109l-0.066,0.107l-0.067,0.105l-0.068,0.105l-0.07,0.105l-0.07,0.103l-0.071,0.102l-0.073,0.103l-0.073,0.101l-0.074,0.1l-0.076,0.1l-0.075,0.098l-0.077,0.097l-0.079,0.098l-0.079,0.096l-0.08,0.095l-0.081,0.094l-0.081,0.093l-0.084,0.093l-0.083,0.091l-0.085,0.091l-0.086,0.09l-0.085,0.088l-0.087,0.088l-0.089,0.088l-0.089,0.086l-0.089,0.084l-0.09,0.084l-0.093,0.085l-0.092,0.082l-0.093,0.081l-0.094,0.081l-0.094,0.079l-0.095,0.078l-0.097,0.078l-0.097,0.076l-0.098,0.076l-0.099,0.075l-0.099,0.073l-0.099,0.072l-0.101,0.072l-0.103,0.071l-0.102,0.069l-0.103,0.068l-0.103,0.067l-0.104,0.067l-0.105,0.065l-0.107,0.065l-0.107,0.063l-0.106,0.062l-0.108,0.061l-0.109,0.06l-0.109,0.059l-0.109,0.057l-0.111,0.058l-0.111,0.055l-0.112,0.054l-0.113,0.054l-0.112,0.052l-0.114,0.051l-0.113,0.05l-0.115,0.049l-0.116,0.048l-0.115,0.046l-0.116,0.045l-0.119,0.045l-0.117,0.043l-0.117,0.042l-0.119,0.04l-0.119,0.04l-0.119,0.038l-0.121,0.037l-0.121,0.036l-0.121,0.035l-0.121,0.033l-0.122,0.032l-0.123,0.031l-0.123,0.03l-0.123,0.028l-0.123,0.027l-0.125,0.026l-0.124,0.025l-0.126,0.023l-0.125,0.022l-0.125,0.021l-0.127,0.019l-0.126,0.019l-0.127,0.016l-0.127,0.016l-0.128,0.014l-0.127,0.013l-0.128,0.011l-0.129,0.011l-0.128,0.008l-0.129,0.008l-0.129,0.006l-0.13,0.005l-0.129,0.003l-0.13,0.002l-0.118,0.001l-1.043,-0.001l-0.137,-0.002l-0.137,-0.006l-0.137,-0.011l-0.136,-0.015l-0.136,-0.019l-0.135,-0.023l-0.135,-0.027l-0.134,-0.031l-0.132,-0.035l-0.132,-0.039l-0.13,-0.044l-0.129,-0.047l-0.127,-0.051l-0.126,-0.055l-0.124,-0.059l-0.122,-0.062l-0.12,-0.067l-0.118,-0.07l-0.116,-0.073l-0.114,-0.077l-0.111,-0.08l-0.109,-0.084l-0.106,-0.087l-0.104,-0.09l-0.1,-0.094l-0.098,-0.096l-0.095,-0.099l-0.091,-0.103l-0.089,-0.104l-0.085,-0.108l-0.082,-0.11l-0.079,-0.113l-0.075,-0.114l-0.071,-0.118l-0.068,-0.119l-0.065,-0.121l-0.06,-0.123l-0.057,-0.125l-0.053,-0.127l-0.049,-0.128l-0.045,-0.13l-0.041,-0.131l-0.037,-0.132l-0.033,-0.133l-0.029,-0.134l-0.025,-0.135l-0.021,-0.136l-0.017,-0.136l-0.012,-0.137l-0.008,-0.137l-0.005,-0.137l0.001,-0.137l0.004,-0.137l0.008,-0.137l0.013,-0.137l0.017,-0.136l0.021,-0.136l0.025,-0.135l0.029,-0.134l0.033,-0.133l0.037,-0.132l0.042,-0.131l0.045,-0.13l0.049,-0.128l0.053,-0.126l0.057,-0.125l0.061,-0.123l0.064,-0.121l0.068,-0.12l0.072,-0.117l0.075,-0.114l0.079,-0.113l0.082,-0.11l0.085,-0.107l0.089,-0.105l0.092,-0.102l0.095,-0.099l0.097,-0.097l0.101,-0.093l0.104,-0.09l0.106,-0.087l0.109,-0.083l0.111,-0.081l0.114,-0.077l0.116,-0.073l0.118,-0.07l0.12,-0.066l0.123,-0.062l0.124,-0.059l0.125,-0.055l0.128,-0.051l0.129,-0.047l0.13,-0.043l0.132,-0.039l0.132,-0.035l0.134,-0.031l0.135,-0.027l0.135,-0.023l0.136,-0.019l0.136,-0.014l0.137,-0.011l0.137,-0.006l0.138,-0.002l1.018,0.001l0.047,-0.001l0.033,0l0.035,-0.001l0.033,-0.001l0.034,-0.002l0.034,-0.002l0.033,-0.002l0.034,-0.003l0.033,-0.003l0.033,-0.003l0.033,-0.004l0.032,-0.004l0.034,-0.004l0.032,-0.005l0.032,-0.005l0.033,-0.005l0.032,-0.006l0.032,-0.006l0.032,-0.006l0.032,-0.007l0.032,-0.007l0.032,-0.007l0.031,-0.008l0.031,-0.008l0.032,-0.008l0.031,-0.008l0.032,-0.009l0.031,-0.01l0.03,-0.009l0.031,-0.01l0.03,-0.01l0.031,-0.01l0.031,-0.011l0.03,-0.012l0.029,-0.01l0.03,-0.012l0.031,-0.012l0.029,-0.012l0.03,-0.013l0.029,-0.013l0.03,-0.013l0.029,-0.014l0.029,-0.014l0.029,-0.014l0.029,-0.014l0.028,-0.015l0.028,-0.015l0.029,-0.015l0.028,-0.015l0.028,-0.016l0.028,-0.017l0.028,-0.016l0.027,-0.016l0.027,-0.018l0.027,-0.017l0.027,-0.017l0.028,-0.018l0.026,-0.018l0.026,-0.018l0.026,-0.019l0.026,-0.019l0.026,-0.019l0.026,-0.02l0.025,-0.019l0.026,-0.02l0.024,-0.02l0.025,-0.02l0.025,-0.022l0.024,-0.02l0.025,-0.022l0.024,-0.021l0.023,-0.021l0.023,-0.022l0.025,-0.023l0.022,-0.022l0.023,-0.022l0.022,-0.023l0.024,-0.024l0.022,-0.023l0.021,-0.023l0.022,-0.024l0.021,-0.023l0.022,-0.025l0.021,-0.024l0.02,-0.025l0.021,-0.025l0.019,-0.024l0.021,-0.026l0.02,-0.026l0.019,-0.025l0.019,-0.026l0.019,-0.026l0.018,-0.025l0.018,-0.027l0.019,-0.027l0.018,-0.027l0.017,-0.027l0.018,-0.028l0.017,-0.028l0.016,-0.025l0.016,-0.029l0.017,-0.028l0.016,-0.028l0.016,-0.03l0.015,-0.027l0.015,-0.029l0.015,-0.03l0.014,-0.028l0.015,-0.03l0.014,-0.03l0.013,-0.028l0.013,-0.03l0.014,-0.032l0.012,-0.029l0.012,-0.03l0.013,-0.032l0.012,-0.031l0.011,-0.029l0.011,-0.032l0.012,-0.033l0.01,-0.031l0.01,-0.032l0.01,-0.032l0.01,-0.032l0.01,-0.032l0.009,-0.034l0.009,-0.033l0.011,-0.044l1.174,-4.697l0.036,-0.133l0.039,-0.132l0.043,-0.13l0.048,-0.129l0.051,-0.127l0.055,-0.126l0.059,-0.124l0.062,-0.122l0.067,-0.12l0.07,-0.118l0.073,-0.116l0.077,-0.114l0.081,-0.111l0.083,-0.108l0.087,-0.107l0.091,-0.103l0.093,-0.101l0.097,-0.097l0.099,-0.095l0.102,-0.092l0.105,-0.088l0.108,-0.085l0.11,-0.082l0.112,-0.079l0.115,-0.075l0.117,-0.071l0.12,-0.068l0.121,-0.064l0.123,-0.061l0.125,-0.057l0.127,-0.053l0.128,-0.048l0.13,-0.046l0.13,-0.041l0.133,-0.037l0.133,-0.033l0.134,-0.029l0.135,-0.025l0.136,-0.02l0.136,-0.017l0.137,-0.012l0.137,-0.008l0.137,-0.005l0.137,0.001Z"/>
        </g>
        <g id="emoji">
            <path d="M12,12l9,0l3,1l2,2l0,4l-14,0l0,-7Z" style="fill:#640082;"/>
            <path d="M10.994,11.003l0.091,0.006l0.091,0.009l0.091,0.013l0.089,0.016l0.09,0.019l0.088,0.022l0.088,0.026l0.087,0.029l0.085,0.032l0.084,0.035l0.083,0.038l0.082,0.041l0.08,0.044l0.078,0.047l0.077,0.05l0.074,0.053l0.073,0.055l0.071,0.058l0.068,0.06l0.066,0.063l0.064,0.065l0.062,0.068l0.059,0.07l0.056,0.071l0.054,0.074l0.051,0.076l0.048,0.078l0.045,0.079l0.043,0.081l0.039,0.082l0.036,0.084l0.034,0.085l0.03,0.086l0.027,0.087l0.023,0.089l2.124,8.496l0.021,0.089l0.017,0.089l0.014,0.091l0.011,0.09l0.007,0.091l0.004,0.092l0.001,0.091l-0.003,0.091l-0.006,0.091l-0.009,0.091l-0.013,0.091l-0.016,0.09l-0.019,0.089l-0.022,0.088l-0.026,0.088l-0.029,0.087l-0.032,0.085l-0.035,0.084l-0.038,0.083l-0.041,0.082l-0.044,0.08l-0.047,0.078l-0.05,0.077l-0.052,0.074l-0.056,0.073l-0.058,0.071l-0.06,0.068l-0.063,0.066l-0.065,0.064l-0.068,0.062l-0.07,0.059l-0.071,0.056l-0.074,0.054l-0.076,0.051l-0.078,0.048l-0.079,0.045l-0.081,0.043l-0.082,0.039l-0.084,0.036l-0.085,0.034l-0.086,0.03l-0.087,0.027l-0.089,0.023l-0.089,0.021l-0.089,0.017l-0.091,0.014l-0.09,0.011l-0.091,0.007l-0.091,0.004l-0.092,0.001l-0.091,-0.003l-0.091,-0.006l-0.091,-0.009l-0.091,-0.013l-0.089,-0.016l-0.09,-0.019l-0.088,-0.022l-0.088,-0.026l-0.087,-0.029l-0.085,-0.032l-0.084,-0.035l-0.083,-0.038l-0.082,-0.041l-0.08,-0.044l-0.078,-0.047l-0.077,-0.05l-0.074,-0.052l-0.073,-0.056l-0.071,-0.058l-0.068,-0.06l-0.066,-0.063l-0.064,-0.065l-0.062,-0.068l-0.059,-0.069l-0.056,-0.072l-0.054,-0.074l-0.051,-0.076l-0.048,-0.078l-0.045,-0.079l-0.042,-0.081l-0.04,-0.082l-0.036,-0.084l-0.033,-0.085l-0.031,-0.086l-0.027,-0.087l-0.023,-0.089l-2.124,-8.496l-0.021,-0.089l-0.017,-0.089l-0.014,-0.091l-0.011,-0.09l-0.007,-0.091l-0.004,-0.092l-0.001,-0.091l0.003,-0.091l0.006,-0.091l0.009,-0.091l0.013,-0.091l0.016,-0.089l0.019,-0.09l0.022,-0.088l0.026,-0.088l0.029,-0.087l0.032,-0.085l0.035,-0.084l0.038,-0.083l0.041,-0.082l0.044,-0.08l0.047,-0.078l0.05,-0.077l0.053,-0.074l0.055,-0.073l0.058,-0.071l0.06,-0.068l0.063,-0.066l0.065,-0.064l0.068,-0.062l0.07,-0.059l0.071,-0.056l0.074,-0.054l0.076,-0.051l0.078,-0.048l0.079,-0.045l0.081,-0.042l0.082,-0.04l0.084,-0.036l0.085,-0.033l0.086,-0.031l0.087,-0.027l0.089,-0.023l0.089,-0.021l0.089,-0.017l0.091,-0.014l0.09,-0.011l0.091,-0.007l0.092,-0.004l0.091,-0.001l0.091,0.003Z" style="fill:#f10dc3;"/>
            <path d="M16.693,2.007l0.128,0.014l0.127,0.02l0.126,0.026l0.125,0.033l0.122,0.039l0.121,0.045l0.118,0.052l0.115,0.057l0.112,0.064l0.109,0.069l0.105,0.074l0.101,0.08l0.096,0.085l0.092,0.09l0.088,0.095l0.082,0.098l0.078,0.103l0.071,0.107l0.067,0.111l0.06,0.113l0.055,0.117l0.048,0.119l0.043,0.122l0.036,0.123l0.029,0.126l0.023,0.126l0.017,0.128l0.01,0.128l0.003,0.129l0,17l-0.003,0.129l-0.01,0.128l-0.017,0.128l-0.023,0.126l-0.029,0.126l-0.036,0.123l-0.043,0.122l-0.048,0.119l-0.055,0.117l-0.06,0.113l-0.067,0.111l-0.071,0.107l-0.078,0.103l-0.082,0.098l-0.088,0.095l-0.092,0.09l-0.096,0.085l-0.101,0.08l-0.105,0.074l-0.109,0.069l-0.112,0.064l-0.115,0.057l-0.118,0.052l-0.121,0.045l-0.122,0.039l-0.125,0.033l-0.126,0.026l-0.127,0.02l-0.128,0.014l-0.129,0.006l-0.128,0l-0.129,-0.006l-0.128,-0.014l-0.127,-0.02l-0.126,-0.026l-0.125,-0.033l-0.122,-0.039l-0.121,-0.045l-0.118,-0.052l-0.115,-0.057l-0.112,-0.064l-0.109,-0.069l-0.104,-0.074l-0.101,-0.08l-0.097,-0.085l-0.092,-0.09l-0.088,-0.095l-0.082,-0.098l-0.078,-0.103l-0.071,-0.107l-0.067,-0.111l-0.06,-0.113l-0.055,-0.117l-0.048,-0.119l-0.043,-0.122l-0.036,-0.123l-0.029,-0.126l-0.023,-0.126l-0.017,-0.128l-0.01,-0.128l-0.003,-0.129l0,-17l0.003,-0.129l0.01,-0.128l0.017,-0.128l0.023,-0.126l0.029,-0.126l0.036,-0.123l0.043,-0.122l0.048,-0.119l0.055,-0.117l0.06,-0.113l0.067,-0.111l0.071,-0.107l0.078,-0.103l0.082,-0.098l0.088,-0.095l0.092,-0.09l0.097,-0.085l0.101,-0.08l0.104,-0.074l0.109,-0.069l0.112,-0.064l0.115,-0.057l0.118,-0.052l0.121,-0.045l0.122,-0.039l0.125,-0.033l0.126,-0.026l0.127,-0.02l0.128,-0.014l0.129,-0.006l0.128,0l0.129,0.006Z" style="fill:#f10dc3;"/>
            <path d="M22.189,11.001l0.092,0.004l0.091,0.007l0.09,0.011l0.091,0.014l0.089,0.017l0.089,0.021l0.089,0.023l0.087,0.027l0.086,0.03l0.085,0.034l0.084,0.036l0.082,0.039l0.081,0.043l0.079,0.045l0.078,0.048l0.076,0.051l0.074,0.054l0.071,0.056l0.07,0.059l0.068,0.062l0.065,0.064l0.063,0.066l0.06,0.068l0.058,0.071l0.055,0.073l0.053,0.074l0.05,0.077l0.047,0.078l0.044,0.08l0.041,0.082l0.038,0.083l0.035,0.084l0.032,0.085l0.029,0.087l0.026,0.088l0.022,0.088l0.019,0.09l0.016,0.089l0.013,0.091l0.009,0.091l0.006,0.091l0.003,0.091l-0.001,0.091l-0.004,0.092l-0.007,0.091l-0.011,0.09l-0.014,0.091l-0.017,0.089l-0.021,0.089l-2.125,8.5l-0.023,0.089l-0.027,0.087l-0.031,0.086l-0.033,0.085l-0.036,0.084l-0.04,0.082l-0.042,0.081l-0.045,0.079l-0.048,0.078l-0.051,0.076l-0.054,0.074l-0.056,0.071l-0.059,0.07l-0.062,0.068l-0.064,0.065l-0.066,0.063l-0.068,0.06l-0.071,0.058l-0.073,0.055l-0.074,0.053l-0.077,0.05l-0.078,0.047l-0.08,0.044l-0.082,0.041l-0.083,0.038l-0.084,0.035l-0.085,0.032l-0.087,0.029l-0.088,0.026l-0.088,0.022l-0.09,0.019l-0.089,0.016l-0.091,0.013l-0.091,0.009l-0.091,0.006l-0.091,0.003l-0.091,-0.001l-0.092,-0.004l-0.091,-0.007l-0.09,-0.011l-0.091,-0.014l-0.089,-0.017l-0.089,-0.021l-0.089,-0.023l-0.087,-0.027l-0.086,-0.031l-0.085,-0.033l-0.084,-0.036l-0.082,-0.04l-0.081,-0.042l-0.079,-0.045l-0.078,-0.048l-0.076,-0.051l-0.074,-0.054l-0.071,-0.056l-0.07,-0.059l-0.068,-0.062l-0.065,-0.064l-0.063,-0.066l-0.06,-0.068l-0.058,-0.071l-0.056,-0.073l-0.052,-0.074l-0.05,-0.077l-0.047,-0.078l-0.044,-0.08l-0.041,-0.082l-0.038,-0.083l-0.035,-0.084l-0.032,-0.085l-0.029,-0.087l-0.026,-0.088l-0.022,-0.088l-0.019,-0.09l-0.016,-0.089l-0.013,-0.091l-0.009,-0.091l-0.006,-0.091l-0.003,-0.091l0.001,-0.091l0.004,-0.092l0.007,-0.091l0.011,-0.09l0.014,-0.091l0.017,-0.089l0.021,-0.089l2.125,-8.5l0.023,-0.089l0.027,-0.087l0.03,-0.086l0.034,-0.085l0.036,-0.084l0.039,-0.082l0.043,-0.081l0.045,-0.079l0.048,-0.078l0.051,-0.076l0.054,-0.074l0.056,-0.071l0.059,-0.07l0.062,-0.068l0.064,-0.065l0.066,-0.063l0.068,-0.06l0.071,-0.058l0.073,-0.056l0.074,-0.052l0.077,-0.05l0.078,-0.047l0.08,-0.044l0.082,-0.041l0.083,-0.038l0.084,-0.035l0.085,-0.032l0.087,-0.029l0.088,-0.026l0.088,-0.022l0.09,-0.019l0.089,-0.016l0.091,-0.013l0.091,-0.009l0.091,-0.006l0.091,-0.003l0.091,0.001Z" style="fill:#f10dc3;"/>
            <path d="M25.678,14.504l0.102,0.005l0.101,0.008l0.101,0.013l0.101,0.016l0.1,0.021l0.099,0.025l0.098,0.028l0.096,0.033l0.096,0.037l0.093,0.04l0.092,0.045l0.09,0.048l0.088,0.051l0.086,0.055l0.083,0.059l0.081,0.062l0.079,0.065l0.075,0.069l0.073,0.071l0.07,0.074l0.067,0.077l0.063,0.08l0.06,0.083l0.057,0.084l0.054,0.087l0.049,0.089l0.047,0.091l0.042,0.093l0.038,0.094l0.035,0.096l0.031,0.098l0.026,0.098l0.023,0.099l0.019,0.101l0.014,0.101l0.01,0.101l0.007,0.102l0.002,0.102l-0.002,0.102l-0.007,0.102l-0.01,0.101l-0.015,0.101l-0.018,0.1l-0.023,0.1l-1.179,4.712l-0.026,0.099l-0.028,0.106l-0.029,0.103l-0.03,0.104l-0.031,0.104l-0.033,0.103l-0.033,0.102l-0.034,0.101l-0.035,0.102l-0.037,0.101l-0.037,0.1l-0.038,0.1l-0.04,0.099l-0.04,0.099l-0.042,0.098l-0.041,0.097l-0.044,0.097l-0.044,0.097l-0.046,0.096l-0.045,0.095l-0.048,0.095l-0.048,0.095l-0.049,0.092l-0.049,0.093l-0.051,0.092l-0.052,0.092l-0.052,0.091l-0.054,0.09l-0.054,0.09l-0.056,0.09l-0.056,0.088l-0.057,0.087l-0.057,0.087l-0.059,0.086l-0.06,0.087l-0.06,0.084l-0.061,0.084l-0.062,0.085l-0.063,0.083l-0.064,0.082l-0.064,0.081l-0.065,0.081l-0.066,0.08l-0.067,0.08l-0.067,0.078l-0.069,0.078l-0.069,0.077l-0.07,0.077l-0.07,0.075l-0.072,0.075l-0.072,0.075l-0.073,0.073l-0.073,0.072l-0.074,0.073l-0.075,0.071l-0.076,0.07l-0.077,0.07l-0.076,0.068l-0.078,0.068l-0.078,0.067l-0.08,0.067l-0.079,0.065l-0.081,0.065l-0.081,0.064l-0.081,0.063l-0.082,0.062l-0.084,0.062l-0.083,0.06l-0.084,0.06l-0.085,0.059l-0.085,0.058l-0.086,0.057l-0.087,0.056l-0.087,0.056l-0.088,0.054l-0.088,0.054l-0.089,0.053l-0.09,0.052l-0.089,0.05l-0.092,0.051l-0.09,0.049l-0.092,0.048l-0.092,0.048l-0.093,0.046l-0.093,0.046l-0.094,0.044l-0.094,0.044l-0.095,0.042l-0.095,0.042l-0.096,0.041l-0.096,0.04l-0.097,0.039l-0.097,0.038l-0.097,0.037l-0.099,0.036l-0.098,0.035l-0.099,0.034l-0.099,0.032l-0.1,0.032l-0.1,0.031l-0.101,0.03l-0.101,0.029l-0.101,0.028l-0.102,0.027l-0.103,0.026l-0.102,0.025l-0.103,0.023l-0.103,0.023l-0.104,0.022l-0.104,0.02l-0.104,0.02l-0.105,0.018l-0.105,0.018l-0.105,0.016l-0.105,0.015l-0.106,0.014l-0.106,0.013l-0.106,0.012l-0.107,0.011l-0.107,0.009l-0.107,0.009l-0.108,0.007l-0.107,0.007l-0.108,0.005l-0.108,0.004l-0.108,0.003l-0.109,0.002l-0.102,0l-1.042,0l-0.102,-0.002l-0.102,-0.006l-0.101,-0.011l-0.101,-0.014l-0.1,-0.019l-0.1,-0.022l-0.098,-0.027l-0.098,-0.031l-0.096,-0.035l-0.094,-0.038l-0.093,-0.043l-0.091,-0.046l-0.089,-0.049l-0.087,-0.054l-0.084,-0.057l-0.083,-0.06l-0.079,-0.064l-0.077,-0.066l-0.075,-0.07l-0.071,-0.073l-0.068,-0.076l-0.066,-0.078l-0.062,-0.081l-0.058,-0.084l-0.055,-0.086l-0.052,-0.088l-0.048,-0.09l-0.044,-0.091l-0.041,-0.094l-0.036,-0.095l-0.033,-0.097l-0.029,-0.098l-0.024,-0.099l-0.021,-0.1l-0.017,-0.1l-0.012,-0.101l-0.008,-0.102l-0.004,-0.102l0,-0.102l0.004,-0.102l0.008,-0.102l0.012,-0.101l0.017,-0.1l0.021,-0.1l0.024,-0.099l0.029,-0.098l0.033,-0.097l0.036,-0.095l0.041,-0.093l0.044,-0.092l0.048,-0.09l0.052,-0.088l0.055,-0.086l0.058,-0.084l0.062,-0.081l0.066,-0.078l0.068,-0.076l0.071,-0.073l0.075,-0.07l0.077,-0.066l0.079,-0.064l0.083,-0.06l0.084,-0.057l0.087,-0.053l0.089,-0.05l0.091,-0.046l0.093,-0.043l0.094,-0.038l0.096,-0.035l0.098,-0.031l0.098,-0.026l0.1,-0.023l0.1,-0.019l0.101,-0.014l0.101,-0.011l0.102,-0.006l0.102,-0.002l1.029,0l0.062,0l0.055,-0.001l0.055,-0.002l0.056,-0.002l0.054,-0.002l0.055,-0.003l0.055,-0.004l0.054,-0.005l0.054,-0.004l0.054,-0.006l0.054,-0.006l0.054,-0.007l0.054,-0.007l0.053,-0.007l0.054,-0.009l0.053,-0.008l0.052,-0.01l0.053,-0.01l0.053,-0.01l0.052,-0.011l0.052,-0.011l0.052,-0.012l0.052,-0.013l0.052,-0.013l0.051,-0.014l0.052,-0.014l0.051,-0.014l0.05,-0.015l0.051,-0.016l0.05,-0.016l0.051,-0.017l0.05,-0.017l0.05,-0.018l0.049,-0.018l0.05,-0.019l0.049,-0.019l0.049,-0.019l0.049,-0.021l0.048,-0.02l0.048,-0.021l0.048,-0.022l0.048,-0.022l0.047,-0.023l0.048,-0.023l0.047,-0.024l0.046,-0.023l0.047,-0.025l0.047,-0.025l0.045,-0.025l0.046,-0.026l0.045,-0.027l0.046,-0.026l0.044,-0.028l0.045,-0.027l0.044,-0.028l0.044,-0.029l0.043,-0.029l0.044,-0.03l0.043,-0.029l0.043,-0.031l0.043,-0.031l0.042,-0.031l0.041,-0.031l0.042,-0.033l0.041,-0.032l0.041,-0.033l0.041,-0.033l0.039,-0.034l0.04,-0.034l0.04,-0.034l0.039,-0.036l0.039,-0.035l0.038,-0.035l0.038,-0.037l0.038,-0.036l0.037,-0.037l0.037,-0.037l0.037,-0.038l0.036,-0.038l0.036,-0.038l0.035,-0.039l0.035,-0.039l0.034,-0.039l0.035,-0.041l0.034,-0.04l0.033,-0.04l0.033,-0.041l0.033,-0.042l0.033,-0.042l0.031,-0.042l0.031,-0.041l0.031,-0.043l0.031,-0.044l0.03,-0.043l0.029,-0.043l0.03,-0.045l0.029,-0.045l0.029,-0.044l0.027,-0.045l0.027,-0.044l0.027,-0.046l0.027,-0.047l0.026,-0.046l0.026,-0.047l0.025,-0.046l0.025,-0.049l0.024,-0.047l0.024,-0.047l0.024,-0.049l0.022,-0.048l0.022,-0.048l0.022,-0.049l0.022,-0.05l0.021,-0.05l0.02,-0.049l0.02,-0.051l0.02,-0.051l0.019,-0.05l0.018,-0.052l0.018,-0.051l0.017,-0.052l0.017,-0.052l0.017,-0.052l0.015,-0.052l0.016,-0.053l0.015,-0.054l0.014,-0.053l0.015,-0.06l1.176,-4.7l0.027,-0.098l0.031,-0.098l0.035,-0.096l0.038,-0.094l0.043,-0.093l0.046,-0.091l0.05,-0.089l0.053,-0.087l0.057,-0.084l0.06,-0.082l0.064,-0.08l0.067,-0.077l0.07,-0.074l0.073,-0.072l0.075,-0.068l0.079,-0.065l0.081,-0.062l0.083,-0.059l0.086,-0.055l0.088,-0.051l0.09,-0.048l0.092,-0.045l0.094,-0.04l0.095,-0.037l0.097,-0.032l0.097,-0.029l0.099,-0.025l0.1,-0.02l0.101,-0.017l0.101,-0.012l0.102,-0.008l0.102,-0.005l0.102,0Z" style="fill:#f10dc3;"/>
            <rect x="11" y="13" width="11" height="14" style="fill:#f10dc3;"/>
            <path d="M16,30l-1.442,0c-4.589,0 -8.589,-3.123 -9.702,-7.575c-0.234,-0.935 -0.464,-1.857 -0.674,-2.697c-0.224,-0.897 -0.023,-1.846 0.546,-2.574c0.568,-0.728 1.441,-1.154 2.364,-1.154c1.629,0 3.158,0 3.158,0l2.75,11l6,0l-3,3Z" style="fill:#f10dc3;"/>
            <path d="M8.924,16l-1.924,0l0,3.538c0,0.255 0.101,0.5 0.282,0.68c0.18,0.181 0.425,0.282 0.68,0.282c0.255,0 0.5,-0.101 0.68,-0.282c0.181,-0.18 0.282,-0.425 0.282,-0.68c0,-1.322 0,-3.538 0,-3.538Z" style="fill:#a90eb1;"/>
            <path d="M12,12l9,0l3,1l2,2l0,4l-14,0l0,-7Z" style="fill:none;"/>
            <clipPath id="_clip2">
                <path d="M12,12l9,0l3,1l2,2l0,4l-14,0l0,-7Z"/>
            </clipPath>
            <g clip-path="url(#_clip2)">
                <path d="M19.5,15l0,-6" style="fill:none;stroke:#640082;stroke-width:1px;"/>
                <path d="M13.5,15l0,-6" style="fill:none;stroke:#640082;stroke-width:1px;"/>
                <path d="M24.125,17.5l1.125,-4.5" style="fill:none;stroke:#640082;stroke-width:1px;"/>
            </g>
        </g>
    </g>
</svg>
