<?xml version="1.0" encoding="UTF-8" standalone="no"?><!DOCTYPE svg PUBLIC "-//W3C//DTD SVG 1.1//EN" "http://www.w3.org/Graphics/SVG/1.1/DTD/svg11.dtd"><svg width="100%" height="100%" viewBox="0 0 32 32" version="1.1" xmlns="http://www.w3.org/2000/svg" xmlns:xlink="http://www.w3.org/1999/xlink" xml:space="preserve" xmlns:serif="http://www.serif.com/" style="fill-rule:evenodd;clip-rule:evenodd;stroke-linejoin:round;stroke-miterlimit:1.41421;"><rect id="ok_hand--paw-" serif:id="ok_hand [paw]" x="0" y="0" width="32" height="32" style="fill:none;"/><clipPath id="_clip1"><rect x="0" y="0" width="32" height="32"/></clipPath><g clip-path="url(#_clip1)"><g id="outline"><path d="M29,21.488l-0.002,0.113l-0.006,0.128l-0.01,0.129l-0.015,0.127l-0.018,0.127l-0.023,0.128l-0.026,0.125l-0.031,0.125l-0.035,0.124l-0.038,0.121l-0.042,0.122l-0.047,0.12l-0.049,0.118l-0.055,0.118l-0.057,0.115l-0.054,0.099l-3.393,6.032l-0.038,0.066l-0.043,0.072l-0.044,0.071l-0.046,0.072l-0.046,0.07l-0.047,0.067l-0.049,0.068l-0.05,0.068l-0.05,0.065l-0.052,0.065l-0.053,0.065l-0.054,0.063l-0.054,0.062l-0.056,0.062l-0.057,0.06l-0.057,0.059l-0.058,0.058l-0.06,0.057l-0.061,0.057l-0.06,0.054l-0.061,0.054l-0.064,0.053l-0.064,0.052l-0.064,0.051l-0.065,0.05l-0.065,0.048l-0.067,0.047l-0.068,0.047l-0.067,0.045l-0.07,0.044l-0.069,0.043l-0.07,0.042l-0.071,0.041l-0.071,0.039l-0.073,0.039l-0.073,0.037l-0.073,0.036l-0.074,0.035l-0.075,0.034l-0.076,0.032l-0.075,0.031l-0.076,0.03l-0.077,0.028l-0.078,0.028l-0.077,0.026l-0.079,0.025l-0.078,0.024l-0.08,0.022l-0.08,0.021l-0.08,0.02l-0.081,0.019l-0.081,0.017l-0.081,0.016l-0.082,0.014l-0.082,0.013l-0.082,0.012l-0.083,0.011l-0.083,0.009l-0.083,0.007l-0.084,0.007l-0.084,0.005l-0.084,0.003l-0.084,0.002l-0.076,0.001l-7.74,0l-0.105,-0.002l-0.121,-0.005l-0.12,-0.009l-0.118,-0.013l-0.119,-0.016l-0.117,-0.019l-0.117,-0.023l-0.116,-0.027l-0.114,-0.029l-0.114,-0.034l-0.112,-0.036l-0.111,-0.04l-0.11,-0.043l-0.109,-0.046l-0.107,-0.049l-0.105,-0.052l-0.104,-0.056l-0.102,-0.058l-0.101,-0.062l-0.098,-0.064l-0.097,-0.067l-0.095,-0.07l-0.093,-0.074l-0.091,-0.076l-0.089,-0.078l-0.087,-0.082l-0.084,-0.085l-0.081,-0.086l-0.08,-0.09l-0.077,-0.092l-0.074,-0.095l-0.063,-0.085l-4.043,-5.66l-0.04,-0.057l-0.044,-0.066l-0.041,-0.063l-0.041,-0.067l-0.04,-0.068l-0.038,-0.067l-0.037,-0.068l-0.039,-0.077l-0.063,-0.132l-0.061,-0.142l-0.056,-0.144l-0.049,-0.146l-0.045,-0.148l-0.038,-0.15l-0.033,-0.151l-0.025,-0.142l-0.013,-0.087l-0.01,-0.078l-0.008,-0.076l-0.007,-0.077l-0.005,-0.078l-0.004,-0.077l-0.002,-0.079l-0.001,-0.068l0,-6.369l4.537,0l0.097,0.001l0.106,0.003l0.106,0.004l0.105,0.007l0.105,0.008l0.105,0.01l0.104,0.012l0.104,0.014l0.103,0.016l0.103,0.017l0.103,0.019l0.102,0.021l0.101,0.022l0.101,0.025l0.101,0.026l0.099,0.027l0.099,0.03l0.099,0.031l0.098,0.033l0.097,0.034l0.097,0.036l0.096,0.038l0.095,0.039l0.094,0.04l0.093,0.043l0.093,0.044l0.092,0.045l0.091,0.048l0.091,0.048l0.089,0.05l0.089,0.052l0.087,0.053l0.087,0.054l0.086,0.057l0.085,0.057l0.083,0.059l0.084,0.061l0.081,0.062l0.081,0.063l0.08,0.065l0.079,0.066l0.077,0.068l0.077,0.068l0.075,0.071l0.074,0.071l0.073,0.073l0.072,0.074l0.071,0.076l0.069,0.077l0.068,0.078l0.067,0.079l0.065,0.081l0.065,0.082l0.063,0.083l0.061,0.084l0.06,0.086l0.059,0.087l0.058,0.088l0.055,0.089l0.055,0.09l0.053,0.091l0.051,0.092l0.05,0.094l0.045,0.087l1.1,2.2l0.446,0.223l1.907,-1.089l1.139,-3.418l9.517,-1.586l0,5.849Zm-20,0.869l0.001,0.003l0.004,0.006l4.015,5.622l0.009,0.012l0.015,0l7.693,0l0.025,0l0.017,-0.001l0.018,0l0.016,-0.001l0.017,-0.002l0.016,-0.001l0.017,-0.002l0.017,-0.002l0.016,-0.002l0.017,-0.003l0.016,-0.003l0.016,-0.003l0.017,-0.004l0.015,-0.003l0.016,-0.004l0.016,-0.004l0.016,-0.005l0.016,-0.005l0.015,-0.005l0.016,-0.005l0.015,-0.005l0.015,-0.006l0.016,-0.006l0.015,-0.006l0.016,-0.007l0.014,-0.006l0.015,-0.007l0.015,-0.008l0.014,-0.007l0.014,-0.008l0.015,-0.008l0.014,-0.008l0.014,-0.008l0.014,-0.009l0.014,-0.009l0.014,-0.009l0.013,-0.009l0.013,-0.009l0.014,-0.01l0.013,-0.01l0.013,-0.011l0.013,-0.01l0.011,-0.01l0.013,-0.011l0.013,-0.012l0.012,-0.011l0.011,-0.011l0.012,-0.011l0.012,-0.012l0.011,-0.012l0.011,-0.012l0.011,-0.013l0.011,-0.013l0.01,-0.012l0.01,-0.013l0.011,-0.014l0.009,-0.012l0.009,-0.013l0.011,-0.016l0.009,-0.013l0.009,-0.014l0.009,-0.014l0.009,-0.015l0.012,-0.022l3.368,-5.988l0.009,-0.015l0,-0.001l0,0l0,-0.001l0.001,0l0,-0.001l0,-0.001l0,0l0,-0.001l0,0l0.001,-0.001l0,-0.001l0,-0.001l0,-0.001l0,-0.016l0,-1.094l-2.483,0.414l-0.506,1.517l-0.039,0.108l-0.052,0.127l-0.058,0.125l-0.064,0.121l-0.069,0.118l-0.074,0.115l-0.078,0.11l-0.084,0.107l-0.09,0.104l-0.093,0.1l-0.097,0.094l-0.102,0.09l-0.107,0.087l-0.111,0.081l-0.114,0.077l-0.099,0.059l-2.737,1.564l-0.068,0.038l-0.083,0.042l-0.084,0.04l-0.085,0.037l-0.086,0.034l-0.087,0.031l-0.089,0.03l-0.087,0.025l-0.089,0.024l-0.09,0.02l-0.089,0.018l-0.091,0.015l-0.09,0.012l-0.091,0.01l-0.091,0.006l-0.091,0.004l-0.091,0.001l-0.091,-0.001l-0.092,-0.005l-0.091,-0.007l-0.09,-0.01l-0.091,-0.012l-0.091,-0.016l-0.09,-0.018l-0.09,-0.021l-0.088,-0.024l-0.088,-0.027l-0.089,-0.03l-0.088,-0.032l-0.085,-0.035l-0.085,-0.038l-0.072,-0.034l-1.254,-0.627l-0.09,-0.047l-0.106,-0.061l-0.101,-0.065l-0.099,-0.068l-0.097,-0.073l-0.093,-0.076l-0.089,-0.079l-0.087,-0.084l-0.083,-0.086l-0.08,-0.091l-0.077,-0.093l-0.072,-0.096l-0.068,-0.099l-0.065,-0.102l-0.061,-0.105l-0.047,-0.09l-1.251,-2.501l-0.02,-0.039l-0.016,-0.031l-0.017,-0.031l-0.018,-0.031l-0.018,-0.03l-0.019,-0.03l-0.019,-0.029l-0.02,-0.029l-0.019,-0.028l-0.021,-0.028l-0.021,-0.028l-0.021,-0.027l-0.022,-0.027l-0.022,-0.026l-0.023,-0.026l-0.023,-0.026l-0.024,-0.025l-0.023,-0.025l-0.025,-0.024l-0.025,-0.024l-0.025,-0.023l-0.025,-0.023l-0.026,-0.023l-0.026,-0.022l-0.026,-0.021l-0.028,-0.021l-0.027,-0.021l-0.028,-0.02l-0.028,-0.02l-0.028,-0.019l-0.028,-0.019l-0.03,-0.018l-0.029,-0.018l-0.03,-0.017l-0.029,-0.017l-0.031,-0.016l-0.03,-0.016l-0.031,-0.015l-0.031,-0.015l-0.031,-0.014l-0.032,-0.014l-0.031,-0.013l-0.032,-0.012l-0.032,-0.012l-0.032,-0.012l-0.033,-0.011l-0.033,-0.01l-0.033,-0.01l-0.033,-0.009l-0.033,-0.008l-0.034,-0.008l-0.034,-0.008l-0.034,-0.007l-0.033,-0.006l-0.035,-0.006l-0.034,-0.005l-0.035,-0.005l-0.035,-0.004l-0.035,-0.003l-0.034,-0.003l-0.036,-0.002l-0.035,-0.002l-0.036,-0.001l-0.044,0l-0.519,0l0,2.349l0,0.008Z"/><path d="M17,20l-3.006,0l-0.084,-0.001l-0.09,-0.001l-0.089,-0.003l-0.089,-0.004l-0.09,-0.005l-0.088,-0.006l-0.089,-0.008l-0.088,-0.008l-0.089,-0.01l-0.087,-0.01l-0.087,-0.012l-0.088,-0.013l-0.086,-0.013l-0.087,-0.015l-0.086,-0.016l-0.086,-0.017l-0.085,-0.018l-0.085,-0.019l-0.085,-0.02l-0.084,-0.021l-0.084,-0.023l-0.083,-0.023l-0.083,-0.024l-0.083,-0.025l-0.082,-0.026l-0.082,-0.027l-0.081,-0.028l-0.081,-0.029l-0.081,-0.03l-0.085,-0.033l-0.152,-0.063l-0.157,-0.068l-0.154,-0.072l-0.152,-0.076l-0.15,-0.079l-0.148,-0.083l-0.145,-0.086l-0.143,-0.089l-0.141,-0.093l-0.138,-0.095l-0.137,-0.1l-0.133,-0.102l-0.13,-0.105l-0.129,-0.108l-0.125,-0.112l-0.123,-0.114l-0.12,-0.117l-0.117,-0.12l-0.114,-0.123l-0.111,-0.125l-0.109,-0.128l-0.105,-0.131l-0.103,-0.134l-0.099,-0.136l-0.095,-0.138l-0.093,-0.141l-0.089,-0.143l-0.086,-0.145l-0.083,-0.148l-0.079,-0.15l-0.076,-0.152l-0.072,-0.154l-0.068,-0.157l-0.063,-0.152l-0.033,-0.086l-0.03,-0.081l-0.029,-0.081l-0.027,-0.079l-0.028,-0.083l-0.026,-0.082l-0.025,-0.083l-0.024,-0.083l-0.023,-0.083l-0.023,-0.084l-0.021,-0.084l-0.02,-0.085l-0.019,-0.085l-0.018,-0.085l-0.017,-0.086l-0.016,-0.086l-0.015,-0.087l-0.013,-0.086l-0.013,-0.088l-0.012,-0.087l-0.01,-0.087l-0.01,-0.088l-0.008,-0.089l-0.008,-0.088l-0.006,-0.09l-0.005,-0.089l-0.004,-0.089l-0.003,-0.089l-0.002,-0.09l0,-0.084l0,-3.006l10,0l0,10Zm-5.806,-5.934l0.011,0.028l0.03,0.073l0.029,0.067l0.031,0.066l0.032,0.065l0.034,0.063l0.035,0.063l0.037,0.063l0.039,0.061l0.039,0.061l0.042,0.06l0.042,0.058l0.044,0.057l0.045,0.056l0.047,0.055l0.048,0.055l0.049,0.053l0.051,0.051l0.052,0.051l0.053,0.049l0.053,0.048l0.055,0.046l0.057,0.046l0.057,0.044l0.059,0.042l0.059,0.042l0.061,0.039l0.061,0.039l0.062,0.037l0.063,0.035l0.064,0.034l0.066,0.032l0.065,0.031l0.067,0.029l0.073,0.03l0.029,0.011l0.034,0.013l0.031,0.011l0,-1.83l-1.83,0l0.012,0.032l0.012,0.034Z"/><path d="M25.236,14.528l0.118,0.061l0.117,0.064l0.115,0.068l0.113,0.07l0.111,0.073l0.109,0.076l0.107,0.08l0.105,0.082l0.103,0.084l0.1,0.088l0.098,0.09l0.095,0.092l0.094,0.096l0.09,0.097l0.088,0.1l0.085,0.102l0.083,0.105l0.079,0.107l0.077,0.108l0.074,0.111l0.071,0.113l0.068,0.114l0.064,0.117l0.062,0.118l0.058,0.119l0.056,0.121l0.052,0.123l0.048,0.124l0.046,0.125l0.042,0.126l0.039,0.128l0.035,0.128l0.032,0.129l0.028,0.13l0.025,0.131l0.022,0.131l0.018,0.132l0.014,0.132l0.011,0.133l0.008,0.133l0.003,0.133l0.001,0.133l-0.004,0.133l-0.006,0.133l-0.011,0.133l-0.014,0.132l-0.017,0.132l-0.021,0.132l-0.024,0.131l-0.028,0.13l-0.031,0.129l-0.035,0.129l-0.038,0.127l-0.042,0.127l-0.045,0.125l-0.048,0.124l-0.051,0.123l-0.055,0.121l-0.058,0.12l-0.061,0.118l-0.064,0.117l-0.068,0.115l-0.07,0.113l-0.073,0.111l-0.076,0.109l-0.08,0.107l-0.082,0.105l-0.084,0.103l-0.088,0.1l-0.09,0.098l-0.092,0.096l-0.096,0.093l-0.097,0.09l-0.1,0.088l-0.103,0.085l-0.104,0.083l-0.107,0.079l-0.108,0.077l-0.111,0.074l-0.113,0.071l-0.114,0.068l-0.117,0.064l-0.118,0.062l-0.119,0.058l-0.121,0.056l-0.123,0.052l-0.124,0.049l-0.125,0.045l-0.126,0.042l-0.128,0.039l-0.128,0.035l-0.129,0.032l-0.13,0.028l-0.131,0.025l-0.131,0.022l-0.132,0.018l-0.132,0.014l-0.133,0.011l-0.133,0.008l-0.133,0.003l-0.133,0.001l-0.133,-0.004l-0.133,-0.006l-0.133,-0.011l-0.132,-0.013l-0.132,-0.018l-0.132,-0.021l-0.131,-0.024l-0.13,-0.028l-0.129,-0.031l-0.129,-0.035l-0.127,-0.038l-0.127,-0.042l-0.125,-0.045l-0.124,-0.048l-0.123,-0.051l-0.121,-0.055l-0.12,-0.058l-6.952,-3.476l-0.078,-0.003l-0.133,-0.009l-0.132,-0.012l-0.133,-0.016l-0.131,-0.02l-0.131,-0.023l-0.131,-0.026l-0.13,-0.03l-0.129,-0.033l-0.127,-0.037l-0.127,-0.04l-0.126,-0.043l-0.125,-0.047l-0.123,-0.05l-0.122,-0.054l-0.121,-0.056l-0.118,-0.06l-0.118,-0.063l-0.115,-0.066l-0.114,-0.069l-0.112,-0.072l-0.11,-0.075l-0.108,-0.078l-0.106,-0.081l-0.103,-0.084l-0.102,-0.086l-0.099,-0.089l-0.096,-0.092l-0.094,-0.094l-0.092,-0.096l-0.089,-0.099l-0.086,-0.102l-0.084,-0.103l-0.081,-0.106l-0.078,-0.108l-0.075,-0.11l-0.072,-0.112l-0.069,-0.114l-0.066,-0.115l-0.063,-0.118l-0.06,-0.118l-0.056,-0.121l-0.054,-0.122l-0.05,-0.123l-0.047,-0.125l-0.043,-0.126l-0.04,-0.127l-0.037,-0.127l-0.033,-0.129l-0.03,-0.13l-0.026,-0.131l-0.023,-0.131l-0.02,-0.131l-0.016,-0.133l-0.012,-0.132l-0.009,-0.133l-0.005,-0.133l-0.002,-0.133l0.002,-0.133l0.005,-0.133l0.009,-0.133l0.012,-0.132l0.016,-0.133l0.02,-0.131l0.023,-0.131l0.026,-0.131l0.03,-0.13l0.033,-0.129l0.037,-0.127l0.04,-0.127l0.043,-0.126l0.047,-0.125l0.05,-0.123l0.054,-0.122l0.056,-0.121l0.06,-0.118l0.063,-0.118l0.066,-0.115l0.069,-0.114l0.072,-0.112l0.075,-0.11l0.078,-0.108l0.081,-0.106l0.084,-0.103l0.086,-0.102l0.089,-0.099l0.092,-0.096l0.094,-0.094l0.096,-0.092l0.099,-0.089l0.102,-0.086l0.103,-0.084l0.106,-0.081l0.108,-0.078l0.11,-0.075l0.112,-0.072l0.114,-0.069l0.115,-0.066l0.118,-0.063l0.118,-0.06l0.121,-0.056l0.122,-0.054l0.123,-0.05l0.125,-0.046l0.126,-0.044l0.127,-0.04l0.127,-0.037l0.129,-0.033l0.13,-0.03l0.131,-0.026l0.131,-0.023l0.131,-0.02l0.133,-0.016l0.132,-0.012l0.133,-0.009l0.133,-0.005l0.133,-0.002l2.18,0l9.056,4.528Z"/><path d="M26.743,11.5l-4.243,4.243c0,0 -2.273,-2.274 -4.501,-4.502c-2.343,-2.342 -2.343,-6.14 0,-8.482c0.001,-0.001 0.001,-0.002 0.001,-0.002c2.914,2.915 5.828,5.829 8.743,8.743Z" style="fill:#565656;fill-rule:nonzero;stroke:#000;stroke-width:4px;"/><path d="M26.789,10.869c0.139,0.278 0.211,0.584 0.211,0.895c0,1.814 0,8.236 0,8.236l-6,0l0,-7.292c0,0 -0.603,-1.206 -1.343,-2.685c-0.711,-1.423 -0.828,-3.07 -0.325,-4.579c0.503,-1.509 1.585,-2.757 3.008,-3.468c0.001,-0.001 0.002,-0.001 0.002,-0.001c1.482,2.965 2.964,5.93 4.447,8.894Z" style="fill:#767676;fill-rule:nonzero;stroke:#000;stroke-width:4px;"/><rect x="14" y="19" width="5" height="4"/></g><g id="emoji"><path d="M16.4,8.37c-0.457,-1.952 0.076,-4.089 1.599,-5.611c0.001,-0.001 0.001,-0.002 0.001,-0.002c2.914,2.915 5.828,5.829 8.743,8.743l-4.243,4.243l-2.157,-2.158c0.314,-0.464 -2.946,-5.406 -3.943,-5.215Z" style="fill:#f10dc3;"/><path d="M16.4,8.37c0.997,-0.191 2.069,0.099 2.842,0.872c0.252,0.252 0.509,0.509 0.758,0.758c0.531,0.531 0.829,1.25 0.829,2c0,0.569 -0.172,1.121 -0.486,1.585l-2.344,-2.344c-0.821,-0.82 -1.354,-1.819 -1.599,-2.871Z" style="fill:#ff80b7;"/><path d="M26.743,11.5l-4.243,4.243c0,0 -2.273,-2.274 -4.501,-4.502c-2.343,-2.342 -2.343,-6.14 0,-8.482c0.001,-0.001 0.001,-0.002 0.001,-0.002c2.914,2.915 5.828,5.829 8.743,8.743Z" style="fill:none;"/><clipPath id="_clip2"><path d="M26.743,11.5l-4.243,4.243c0,0 -2.273,-2.274 -4.501,-4.502c-2.343,-2.342 -2.343,-6.14 0,-8.482c0.001,-0.001 0.001,-0.002 0.001,-0.002c2.914,2.915 5.828,5.829 8.743,8.743Z" clip-rule="nonzero"/></clipPath><g clip-path="url(#_clip2)"><path d="M27,11.292l0,8.708l-6,0l0,-7.292c0,0 -0.603,-1.206 -1.343,-2.685c-0.711,-1.423 -0.828,-3.07 -0.325,-4.579c0.503,-1.509 1.585,-2.757 3.008,-3.468c0.001,-0.001 0.002,-0.001 0.002,-0.001c1.552,3.106 3.105,6.211 4.658,9.317Z" style="fill:none;stroke:#a90eb1;stroke-width:2px;"/></g><path d="M19.39,5.278c0.526,-1.435 1.58,-2.617 2.95,-3.302c0.001,-0.001 0.002,-0.001 0.002,-0.001c1.482,2.965 2.964,5.93 4.447,8.894c0.139,0.278 0.211,0.584 0.211,0.895l0,8.236l-6,0l0,-6l0.656,-0.328c0.887,-0.444 -1.888,-8.388 -2.266,-8.394Z" style="fill:#f10dc3;"/><path d="M19.39,5.278c0.378,0.006 0.755,0.069 1.12,0.191c0.941,0.314 1.718,0.988 2.162,1.875c0.217,0.434 0.439,0.878 0.656,1.312c0.444,0.887 0.516,1.914 0.203,2.854c-0.314,0.941 -0.988,1.718 -1.875,2.162l-0.656,0.328l0,-1.292c0,0 -0.603,-1.206 -1.343,-2.685c-0.711,-1.423 -0.828,-3.07 -0.325,-4.579c0.019,-0.056 0.038,-0.111 0.058,-0.166Z" style="fill:#ff80b7;"/><path d="M21,12.708l6,3l0,4.292l-6,0l0,-6l-0.5,-1l0.5,-0.292Z" style="fill:#a90eb1;"/><path d="M20.47,20.589l-4.47,-2.235c0,0 -1.799,-2.153 -2.5,-2.854c-0.701,-0.701 -3.835,-1.382 -4.319,-1.16c-0.118,-0.427 -0.181,-0.876 -0.181,-1.34l0,-1c0,0 5.561,0 7.236,0c0.311,0 0.617,0.072 0.895,0.211l8.174,4.087l0.182,0.096l0.002,0.001c0.902,0.518 1.511,1.491 1.511,2.605l0,0l0,2.471c0,0.347 -0.089,0.688 -0.259,0.99l-3.377,6.003c-0.534,0.949 -1.538,1.536 -2.627,1.536c-2.207,0 -5.917,0 -7.708,0c-0.646,0 -1.252,-0.312 -1.627,-0.838c-1.044,-1.461 -3.17,-4.438 -4.029,-5.64c-0.243,-0.34 -0.373,-0.746 -0.373,-1.163c0,-1.349 0,-4.359 0,-4.359l1.028,0c-0.06,1.155 5.046,4.068 5.834,3.723l0.489,0.979c0.097,0.193 0.254,0.35 0.447,0.447c0.323,0.162 0.843,0.422 1.223,0.612c0.299,0.149 0.653,0.139 0.944,-0.027c0.717,-0.409 2.076,-1.186 2.703,-1.544c0.214,-0.123 0.375,-0.319 0.453,-0.552l0.349,-1.049Z" style="fill:#f10dc3;"/><path d="M8.028,18l1.5,0c1.515,0 2.9,0.856 3.578,2.211l0.756,1.512c-0.788,0.345 -1.717,0.35 -2.545,-0.065c-0.536,-0.267 -1.098,-0.549 -1.634,-0.816c-1.101,-0.551 -1.715,-1.687 -1.655,-2.842Z" style="fill:#ff80b7;"/><path d="M9.181,14.34c0.484,-0.222 1.015,-0.34 1.558,-0.34c0.503,0 1.019,0 1.522,0c0.992,0 1.943,0.394 2.644,1.095c0.701,0.701 1.095,1.652 1.095,2.643l0,0.616l-0.708,-0.354l-1.292,0c-2.297,0 -4.233,-1.549 -4.819,-3.66Z" style="fill:#ff80b7;"/></g></g></svg>