<?xml version="1.0" encoding="UTF-8" standalone="no"?>
<!DOCTYPE svg PUBLIC "-//W3C//DTD SVG 1.1//EN" "http://www.w3.org/Graphics/SVG/1.1/DTD/svg11.dtd">
<svg width="100%" height="100%" viewBox="0 0 32 32" version="1.1" xmlns="http://www.w3.org/2000/svg" xmlns:xlink="http://www.w3.org/1999/xlink" xml:space="preserve" xmlns:serif="http://www.serif.com/" style="fill-rule:evenodd;clip-rule:evenodd;stroke-linecap:round;stroke-miterlimit:1.5;">
    <rect id="palms_up--paw-" serif:id="palms_up [paw]" x="0" y="0" width="32" height="32" style="fill:none;"/>
    <g id="outline">
        <path d="M11.709,8.847l0.098,0.004l0.099,0.008l0.098,0.01l0.097,0.014l0.097,0.016l0.097,0.02l0.096,0.022l0.095,0.026l0.094,0.028l0.094,0.032l0.092,0.034l0.091,0.037l0.09,0.04l0.089,0.043l0.087,0.045l0.086,0.048l0.085,0.051l0.083,0.053l0.081,0.056l0.079,0.059l0.077,0.061l0.076,0.063l0.073,0.065l0.072,0.068l0.069,0.07l0.067,0.072l0.065,0.075l0.063,0.076l0.06,0.078l0.057,0.08l0.055,0.081l0.053,0.084l0.05,0.085l0.047,0.086l0.045,0.088l0.041,0.089l0.039,0.091l0.036,0.091l0.034,0.093l0.03,0.094l0.028,0.094l0.024,0.096l0.022,0.096l0.018,0.097l0.016,0.097l0.012,0.098l0.01,0.098l0.006,0.098l0.003,0.098l0.001,0.099l-0.003,0.098l-0.006,0.099l-0.009,0.098l-0.012,0.098l-1.078,7.796l-0.015,0.097l-0.018,0.097l-0.021,0.096l-0.024,0.096l-0.027,0.094l-0.03,0.094l-0.033,0.093l-0.036,0.092l-0.038,0.091l-0.041,0.089l-0.044,0.088l-0.047,0.087l-0.05,0.085l-0.052,0.084l-0.055,0.081l-0.057,0.081l-0.059,0.078l-0.062,0.077l-0.065,0.074l-0.067,0.073l-0.069,0.07l-0.071,0.068l-0.073,0.066l-0.075,0.064l-0.077,0.061l-0.079,0.059l-0.081,0.056l-0.082,0.054l-0.085,0.051l-0.085,0.049l-0.087,0.046l-0.089,0.043l-0.09,0.04l-0.091,0.038l-0.092,0.035l-0.093,0.031l-0.094,0.029l-0.095,0.026l-0.096,0.023l-0.097,0.02l-0.097,0.017l-0.097,0.014l-0.098,0.011l-0.098,0.008l-0.099,0.005l-0.098,0.002l-0.099,-0.001l-0.098,-0.005l-0.098,-0.007l-0.098,-0.011l-0.098,-0.013l-0.097,-0.017l-0.096,-0.019l-0.096,-0.023l-0.096,-0.025l-0.094,-0.029l-0.093,-0.031l-0.093,-0.034l-0.091,-0.037l-0.09,-0.04l-0.089,-0.043l-0.087,-0.045l-0.086,-0.049l-0.084,-0.05l-0.083,-0.054l-0.081,-0.056l-0.08,-0.058l-0.077,-0.061l-0.076,-0.063l-0.073,-0.066l-0.071,-0.068l-0.07,-0.07l-0.067,-0.072l-0.065,-0.074l-0.062,-0.076l-0.06,-0.078l-0.058,-0.08l-0.055,-0.082l-0.052,-0.083l-0.05,-0.085l-0.048,-0.087l-0.044,-0.087l-0.042,-0.09l-0.039,-0.09l-0.036,-0.092l-0.033,-0.092l-0.031,-0.094l-0.027,-0.095l-0.025,-0.095l-0.021,-0.096l-0.019,-0.097l-0.015,-0.097l-0.013,-0.098l-0.009,-0.098l-0.007,-0.098l-0.003,-0.099l0,-0.098l0.003,-0.099l0.006,-0.098l0.009,-0.098l0.012,-0.098l1.077,-7.796l0.016,-0.097l0.018,-0.097l0.021,-0.096l0.024,-0.096l0.027,-0.095l0.029,-0.094l0.033,-0.092l0.036,-0.092l0.038,-0.091l0.042,-0.089l0.044,-0.088l0.047,-0.087l0.049,-0.085l0.052,-0.084l0.055,-0.082l0.057,-0.08l0.06,-0.078l0.062,-0.077l0.064,-0.074l0.067,-0.073l0.069,-0.07l0.071,-0.068l0.073,-0.066l0.075,-0.064l0.078,-0.061l0.079,-0.059l0.08,-0.057l0.083,-0.053l0.084,-0.052l0.086,-0.048l0.087,-0.046l0.088,-0.043l0.09,-0.041l0.091,-0.037l0.092,-0.035l0.094,-0.032l0.094,-0.029l0.095,-0.026l0.096,-0.023l0.096,-0.02l0.097,-0.017l0.098,-0.014l0.098,-0.011l0.098,-0.008l0.098,-0.004l0.099,-0.002l0.098,0.001Z"/>
        <path d="M5.598,8.799l0.097,0.005l0.096,0.007l0.096,0.011l0.096,0.013l0.095,0.017l0.094,0.019l0.094,0.023l0.094,0.025l0.092,0.028l0.092,0.03l0.09,0.034l0.09,0.036l0.088,0.039l0.087,0.042l0.086,0.044l0.084,0.047l0.083,0.05l0.082,0.052l0.08,0.054l0.078,0.057l0.076,0.059l0.075,0.062l0.072,0.063l0.071,0.066l0.068,0.068l0.067,0.07l0.064,0.072l0.062,0.074l0.06,0.076l0.057,0.078l0.055,0.079l0.053,0.081l0.05,0.083l0.048,0.084l0.045,0.086l0.042,0.086l0.04,0.088l0.037,0.09l0.034,0.09l0.031,0.091l0.029,0.093l0.026,0.093l0.023,0.094l0.02,0.094l0.017,0.095l1.222,7.388l0.014,0.095l0.012,0.096l0.008,0.096l0.006,0.097l0.002,0.096l0,0.097l-0.003,0.097l-0.007,0.096l-0.009,0.096l-0.012,0.096l-0.015,0.095l-0.018,0.095l-0.021,0.095l-0.023,0.093l-0.027,0.093l-0.029,0.092l-0.032,0.091l-0.035,0.09l-0.038,0.089l-0.04,0.088l-0.043,0.087l-0.046,0.085l-0.048,0.083l-0.051,0.083l-0.053,0.08l-0.056,0.079l-0.058,0.077l-0.06,0.076l-0.063,0.073l-0.064,0.072l-0.067,0.07l-0.07,0.067l-0.071,0.065l-0.073,0.064l-0.075,0.061l-0.076,0.058l-0.079,0.056l-0.08,0.054l-0.082,0.052l-0.083,0.048l-0.085,0.047l-0.086,0.043l-0.088,0.041l-0.088,0.039l-0.09,0.035l-0.091,0.033l-0.092,0.03l-0.093,0.027l-0.093,0.025l-0.094,0.021l-0.095,0.019l-0.095,0.016l-0.096,0.013l-0.096,0.01l-0.096,0.007l-0.097,0.004l-0.097,0.001l-0.096,-0.002l-0.097,-0.005l-0.096,-0.008l-0.096,-0.01l-0.095,-0.014l-0.096,-0.016l-0.094,-0.02l-0.094,-0.022l-0.094,-0.025l-0.092,-0.028l-0.092,-0.031l-0.09,-0.033l-0.09,-0.037l-0.088,-0.039l-0.087,-0.041l-0.086,-0.045l-0.084,-0.047l-0.083,-0.049l-0.082,-0.052l-0.08,-0.054l-0.078,-0.057l-0.076,-0.059l-0.075,-0.062l-0.072,-0.064l-0.071,-0.066l-0.068,-0.068l-0.067,-0.07l-0.064,-0.072l-0.062,-0.074l-0.06,-0.076l-0.057,-0.077l-0.055,-0.08l-0.053,-0.081l-0.05,-0.082l-0.048,-0.084l-0.045,-0.086l-0.042,-0.087l-0.04,-0.088l-0.037,-0.089l-0.034,-0.09l-0.031,-0.092l-0.029,-0.092l-0.026,-0.093l-0.023,-0.094l-0.02,-0.094l-0.017,-0.095l-1.222,-7.388l-0.014,-0.096l-0.012,-0.096l-0.008,-0.096l-0.006,-0.096l-0.002,-0.097l0,-0.096l0.003,-0.097l0.007,-0.096l0.009,-0.097l0.012,-0.095l0.015,-0.096l0.018,-0.095l0.021,-0.094l0.023,-0.094l0.027,-0.093l0.029,-0.092l0.032,-0.091l0.035,-0.09l0.038,-0.089l0.04,-0.087l0.043,-0.087l0.046,-0.085l0.048,-0.084l0.051,-0.082l0.053,-0.081l0.056,-0.079l0.058,-0.077l0.06,-0.075l0.063,-0.074l0.064,-0.071l0.067,-0.07l0.07,-0.067l0.071,-0.066l0.073,-0.063l0.075,-0.061l0.076,-0.059l0.079,-0.056l0.08,-0.054l0.082,-0.051l0.083,-0.049l0.085,-0.046l0.086,-0.044l0.088,-0.041l0.088,-0.038l0.09,-0.036l0.091,-0.032l0.092,-0.031l0.093,-0.027l0.093,-0.024l0.094,-0.022l0.095,-0.018l0.095,-0.016l0.096,-0.013l0.096,-0.01l0.096,-0.007l0.097,-0.004l0.097,-0.001l0.096,0.002Z"/>
        <path d="M8.771,7.906l0.1,0.007l0.101,0.009l0.099,0.013l0.099,0.016l0.099,0.019l0.098,0.022l0.097,0.025l0.097,0.029l0.095,0.031l0.095,0.034l0.093,0.038l0.092,0.04l0.091,0.043l0.089,0.046l0.088,0.049l0.086,0.052l0.085,0.054l0.083,0.057l0.08,0.06l0.079,0.062l0.077,0.064l0.075,0.067l0.073,0.07l0.071,0.071l0.068,0.074l0.066,0.076l0.063,0.078l0.061,0.08l0.058,0.082l0.056,0.084l0.053,0.085l0.05,0.087l0.047,0.089l0.045,0.09l0.042,0.091l0.039,0.093l0.036,0.094l0.032,0.095l0.03,0.096l0.027,0.096l0.024,0.098l0.02,0.098l0.018,0.099l0.014,0.1l0.011,0.1l0.008,0.1l0.005,0.1l0.002,0.101l0,8l-0.002,0.1l-0.005,0.101l-0.008,0.1l-0.011,0.1l-0.014,0.099l-0.018,0.099l-0.02,0.099l-0.024,0.097l-0.027,0.097l-0.03,0.096l-0.032,0.095l-0.036,0.094l-0.039,0.093l-0.042,0.091l-0.045,0.09l-0.047,0.089l-0.05,0.087l-0.053,0.085l-0.056,0.084l-0.058,0.082l-0.061,0.08l-0.063,0.078l-0.066,0.076l-0.068,0.073l-0.071,0.072l-0.073,0.069l-0.075,0.067l-0.077,0.065l-0.079,0.062l-0.08,0.06l-0.083,0.057l-0.085,0.054l-0.086,0.052l-0.088,0.048l-0.089,0.046l-0.091,0.044l-0.092,0.04l-0.093,0.037l-0.095,0.035l-0.095,0.031l-0.097,0.028l-0.097,0.026l-0.098,0.022l-0.099,0.019l-0.099,0.016l-0.099,0.012l-0.101,0.01l-0.1,0.006l-0.1,0.003l-0.101,0l-0.1,-0.003l-0.101,-0.006l-0.1,-0.01l-0.099,-0.012l-0.099,-0.016l-0.099,-0.019l-0.098,-0.022l-0.097,-0.026l-0.097,-0.028l-0.095,-0.031l-0.095,-0.035l-0.093,-0.037l-0.092,-0.04l-0.091,-0.044l-0.089,-0.046l-0.088,-0.048l-0.086,-0.052l-0.085,-0.054l-0.083,-0.057l-0.081,-0.06l-0.079,-0.062l-0.077,-0.065l-0.074,-0.067l-0.073,-0.069l-0.071,-0.072l-0.068,-0.073l-0.066,-0.076l-0.063,-0.078l-0.061,-0.08l-0.058,-0.082l-0.056,-0.084l-0.053,-0.085l-0.05,-0.087l-0.048,-0.089l-0.044,-0.09l-0.042,-0.091l-0.039,-0.093l-0.036,-0.094l-0.032,-0.095l-0.03,-0.096l-0.027,-0.097l-0.024,-0.097l-0.02,-0.099l-0.018,-0.099l-0.014,-0.099l-0.011,-0.1l-0.008,-0.1l-0.005,-0.101l-0.002,-0.1l0,-8l0.002,-0.101l0.005,-0.1l0.008,-0.1l0.011,-0.1l0.014,-0.1l0.018,-0.099l0.02,-0.098l0.024,-0.098l0.027,-0.096l0.03,-0.096l0.032,-0.095l0.036,-0.094l0.039,-0.093l0.042,-0.091l0.044,-0.09l0.048,-0.089l0.05,-0.087l0.053,-0.085l0.056,-0.084l0.058,-0.082l0.061,-0.08l0.063,-0.078l0.066,-0.076l0.068,-0.074l0.071,-0.071l0.073,-0.07l0.074,-0.067l0.077,-0.064l0.079,-0.062l0.081,-0.06l0.083,-0.057l0.085,-0.054l0.086,-0.052l0.088,-0.049l0.089,-0.046l0.091,-0.043l0.092,-0.04l0.093,-0.038l0.095,-0.034l0.095,-0.031l0.097,-0.029l0.097,-0.025l0.098,-0.022l0.099,-0.019l0.099,-0.016l0.099,-0.013l0.1,-0.009l0.101,-0.007l0.1,-0.003l0.101,0l0.1,0.003Z"/>
        <path d="M3.493,13.257l0.083,0.003l0.082,0.004l0.082,0.006l0.083,0.008l0.081,0.01l0.082,0.013l0.081,0.014l0.081,0.016l0.081,0.018l0.08,0.02l0.079,0.022l0.079,0.024l0.079,0.025l0.078,0.028l0.077,0.029l0.076,0.032l0.075,0.033l0.075,0.035l0.074,0.037l0.073,0.038l0.072,0.04l0.071,0.043l0.07,0.043l0.069,0.046l0.068,0.047l0.066,0.048l0.066,0.051l0.064,0.052l0.063,0.053l0.061,0.055l0.061,0.056l0.059,0.058l0.057,0.059l0.056,0.061l0.055,0.062l0.053,0.063l0.051,0.064l0.05,0.066l0.048,0.067l0.047,0.068l0.045,0.069l0.043,0.07l0.042,0.072l0.04,0.072l0.038,0.073l0.036,0.074l0.035,0.075l0.033,0.076l0.03,0.076l0.029,0.078l0.028,0.078l0.025,0.078l0.023,0.079l0.513,1.818l0.011,0.036l0.006,0.019l0.006,0.02l0.007,0.018l0.007,0.017l0.007,0.018l0.008,0.018l0.007,0.016l0.009,0.017l0.008,0.017l0.009,0.016l0.009,0.017l0.009,0.015l0.01,0.016l0.01,0.015l0.011,0.016l0.011,0.015l0.01,0.015l0.012,0.014l0.011,0.015l0.012,0.014l0.012,0.014l0.013,0.013l0.012,0.014l0.014,0.013l0.013,0.013l0.013,0.013l0.014,0.012l0.014,0.012l0.015,0.012l0.015,0.012l0.014,0.011l0.015,0.011l0.015,0.011l0.016,0.011l0.015,0.009l0.016,0.01l0.016,0.009l0.017,0.01l0.016,0.009l0.017,0.008l0.016,0.008l0.017,0.008l0.017,0.007l0.017,0.007l0.017,0.007l0.018,0.006l0.017,0.006l0.018,0.006l0.017,0.005l0.018,0.005l0.018,0.004l0.018,0.004l0.018,0.004l0.019,0.004l0.018,0.003l0.019,0.002l0.019,0.003l0.019,0.002l0.019,0.001l0.019,0.001l0.02,0.001l0.02,0.001l0.038,0l0.145,-0.002l0.083,0l0.082,0.002l0.082,0.004l0.083,0.005l0.082,0.008l0.082,0.01l0.081,0.012l0.082,0.014l0.081,0.016l0.08,0.018l0.08,0.019l0.08,0.022l0.079,0.023l0.079,0.026l0.078,0.027l0.077,0.03l0.076,0.031l0.076,0.033l0.075,0.034l0.074,0.037l0.073,0.038l0.072,0.04l0.071,0.042l0.07,0.043l0.069,0.046l0.068,0.046l0.067,0.049l0.065,0.05l0.065,0.052l0.063,0.053l0.062,0.054l0.06,0.057l0.059,0.057l0.058,0.059l0.056,0.061l0.055,0.061l0.053,0.063l0.052,0.065l0.05,0.065l0.048,0.067l0.047,0.068l0.046,0.069l0.043,0.07l0.042,0.071l0.04,0.072l0.039,0.073l0.036,0.074l0.035,0.075l0.033,0.076l0.031,0.076l0.029,0.077l0.028,0.078l0.025,0.078l0.024,0.079l0.022,0.08l0.02,0.08l0.017,0.081l0.016,0.081l0.014,0.081l0.012,0.082l0.01,0.082l0.008,0.082l0.006,0.082l0.004,0.082l0.002,0.083l0,0.082l-0.002,0.083l-0.004,0.082l-0.005,0.083l-0.008,0.082l-0.01,0.082l-0.012,0.081l-0.014,0.082l-0.016,0.081l-0.018,0.08l-0.019,0.08l-0.022,0.08l-0.024,0.079l-0.025,0.079l-0.027,0.077l-0.03,0.078l-0.031,0.076l-0.033,0.076l-0.034,0.075l-0.037,0.073l-0.038,0.074l-0.04,0.072l-0.042,0.071l-0.043,0.07l-0.046,0.069l-0.046,0.068l-0.049,0.067l-0.05,0.065l-0.052,0.065l-0.053,0.063l-0.055,0.062l-0.056,0.06l-0.057,0.059l-0.059,0.058l-0.061,0.056l-0.061,0.055l-0.063,0.053l-0.065,0.052l-0.065,0.05l-0.067,0.048l-0.068,0.047l-0.069,0.045l-0.07,0.044l-0.071,0.042l-0.072,0.04l-0.073,0.038l-0.074,0.037l-0.075,0.035l-0.076,0.033l-0.076,0.031l-0.077,0.029l-0.078,0.028l-0.078,0.025l-0.079,0.024l-0.08,0.022l-0.08,0.019l-0.081,0.018l-0.081,0.016l-0.081,0.014l-0.082,0.012l-0.082,0.01l-0.082,0.008l-0.082,0.006l-0.082,0.004l-0.083,0.002l-0.181,0.002l-0.146,0.001l-0.162,-0.003l-0.163,-0.007l-0.161,-0.01l-0.162,-0.013l-0.16,-0.016l-0.16,-0.02l-0.159,-0.023l-0.157,-0.026l-0.157,-0.03l-0.156,-0.032l-0.156,-0.036l-0.154,-0.039l-0.152,-0.042l-0.152,-0.045l-0.151,-0.048l-0.149,-0.051l-0.147,-0.054l-0.147,-0.056l-0.145,-0.06l-0.144,-0.063l-0.142,-0.065l-0.141,-0.068l-0.14,-0.071l-0.137,-0.074l-0.136,-0.076l-0.134,-0.078l-0.133,-0.082l-0.131,-0.085l-0.129,-0.086l-0.127,-0.089l-0.126,-0.093l-0.124,-0.094l-0.121,-0.097l-0.12,-0.099l-0.118,-0.102l-0.116,-0.104l-0.114,-0.107l-0.112,-0.108l-0.109,-0.111l-0.108,-0.113l-0.105,-0.117l-0.103,-0.117l-0.101,-0.12l-0.098,-0.123l-0.096,-0.124l-0.094,-0.127l-0.091,-0.128l-0.088,-0.13l-0.087,-0.133l-0.083,-0.135l-0.081,-0.137l-0.079,-0.138l-0.075,-0.141l-0.073,-0.142l-0.07,-0.143l-0.067,-0.147l-0.064,-0.147l-0.061,-0.149l-0.059,-0.151l-0.055,-0.153l-0.052,-0.153l-0.049,-0.155l-0.041,-0.14l-0.523,-1.852l-0.022,-0.08l-0.019,-0.08l-0.018,-0.081l-0.015,-0.081l-0.014,-0.081l-0.012,-0.082l-0.009,-0.082l-0.008,-0.082l-0.006,-0.082l-0.004,-0.083l-0.001,-0.082l0,-0.083l0.002,-0.082l0.004,-0.083l0.007,-0.082l0.008,-0.082l0.01,-0.082l0.012,-0.082l0.014,-0.081l0.016,-0.081l0.018,-0.08l0.02,-0.08l0.022,-0.08l0.024,-0.079l0.026,-0.078l0.027,-0.078l0.03,-0.077l0.031,-0.076l0.033,-0.076l0.035,-0.075l0.037,-0.074l0.039,-0.073l0.04,-0.072l0.042,-0.071l0.044,-0.069l0.045,-0.069l0.047,-0.068l0.049,-0.067l0.05,-0.065l0.052,-0.064l0.054,-0.063l0.055,-0.062l0.056,-0.06l0.058,-0.059l0.059,-0.057l0.061,-0.056l0.061,-0.055l0.064,-0.053l0.064,-0.052l0.066,-0.049l0.067,-0.049l0.068,-0.046l0.069,-0.045l0.07,-0.044l0.071,-0.041l0.073,-0.04l0.073,-0.038l0.074,-0.037l0.075,-0.034l0.076,-0.033l0.076,-0.031l0.077,-0.029l0.078,-0.027l0.079,-0.025l0.079,-0.024l0.08,-0.021l0.08,-0.02l0.08,-0.017l0.081,-0.016l0.082,-0.014l0.081,-0.011l0.082,-0.01l0.083,-0.008l0.082,-0.005l0.082,-0.004l0.083,-0.002l0.082,0Z"/>
        <path d="M13.856,10.909l0.099,0.006l0.1,0.009l0.098,0.012l0.099,0.015l0.097,0.019l0.098,0.021l0.096,0.024l0.096,0.028l0.095,0.03l0.093,0.033l0.093,0.037l0.092,0.039l0.09,0.041l0.089,0.045l0.088,0.048l0.086,0.05l0.084,0.052l0.083,0.056l0.081,0.058l0.079,0.06l0.077,0.063l0.075,0.065l0.073,0.067l0.071,0.07l0.069,0.072l0.067,0.074l0.064,0.076l0.062,0.078l0.059,0.08l0.057,0.082l0.054,0.083l0.052,0.085l0.049,0.087l0.046,0.088l0.044,0.089l0.041,0.091l0.037,0.092l0.035,0.093l0.032,0.095l0.03,0.095l0.026,0.096l0.023,0.097l0.02,0.097l0.017,0.098l0.014,0.099l0.011,0.099l0.008,0.099l0.005,0.099l0.001,0.1l-0.001,0.099l-0.004,0.1l-0.008,0.099l-0.011,0.099l-0.013,0.099l-0.017,0.098l-0.794,4.238l-0.03,0.15l-0.037,0.166l-0.041,0.166l-0.044,0.164l-0.047,0.161l-0.051,0.162l-0.055,0.16l-0.057,0.156l-0.062,0.157l-0.064,0.154l-0.067,0.152l-0.071,0.152l-0.074,0.148l-0.077,0.147l-0.08,0.144l-0.082,0.141l-0.087,0.143l-0.088,0.138l-0.091,0.136l-0.094,0.134l-0.097,0.132l-0.1,0.13l-0.101,0.126l-0.105,0.125l-0.108,0.123l-0.109,0.12l-0.112,0.117l-0.114,0.115l-0.117,0.113l-0.12,0.111l-0.121,0.106l-0.124,0.106l-0.126,0.102l-0.127,0.099l-0.13,0.097l-0.133,0.095l-0.135,0.091l-0.136,0.089l-0.138,0.085l-0.14,0.083l-0.142,0.08l-0.143,0.077l-0.147,0.074l-0.147,0.071l-0.149,0.067l-0.151,0.065l-0.152,0.062l-0.154,0.058l-0.155,0.055l-0.157,0.052l-0.158,0.048l-0.16,0.045l-0.161,0.042l-0.162,0.039l-0.164,0.034l-0.164,0.032l-0.166,0.027l-0.166,0.025l-0.167,0.02l-0.169,0.017l-0.169,0.013l-0.17,0.01l-0.171,0.005l-0.153,0.002l-0.558,0l-0.1,-0.001l-0.099,-0.005l-0.099,-0.008l-0.099,-0.011l-0.099,-0.014l-0.098,-0.016l-0.097,-0.02l-0.097,-0.023l-0.096,-0.026l-0.095,-0.029l-0.095,-0.032l-0.093,-0.035l-0.092,-0.038l-0.091,-0.041l-0.089,-0.043l-0.089,-0.046l-0.086,-0.049l-0.086,-0.051l-0.083,-0.055l-0.082,-0.056l-0.08,-0.06l-0.078,-0.061l-0.076,-0.064l-0.074,-0.067l-0.072,-0.069l-0.07,-0.071l-0.068,-0.073l-0.065,-0.075l-0.063,-0.077l-0.06,-0.079l-0.058,-0.081l-0.056,-0.082l-0.053,-0.085l-0.05,-0.086l-0.047,-0.087l-0.045,-0.089l-0.042,-0.09l-0.039,-0.092l-0.036,-0.092l-0.034,-0.094l-0.03,-0.095l-0.028,-0.096l-0.024,-0.096l-0.022,-0.097l-0.018,-0.098l-0.016,-0.098l-0.012,-0.099l-0.009,-0.099l-0.007,-0.1l-0.003,-0.099l0,-0.1l0.003,-0.099l0.007,-0.099l0.009,-0.1l0.012,-0.098l0.016,-0.099l0.018,-0.097l0.022,-0.098l0.024,-0.096l0.028,-0.096l0.03,-0.095l0.034,-0.093l0.036,-0.093l0.039,-0.091l0.042,-0.091l0.045,-0.089l0.047,-0.087l0.05,-0.086l0.053,-0.084l0.056,-0.083l0.058,-0.081l0.06,-0.079l0.063,-0.077l0.065,-0.075l0.068,-0.073l0.07,-0.071l0.072,-0.069l0.074,-0.066l0.076,-0.064l0.078,-0.062l0.08,-0.059l0.082,-0.057l0.083,-0.054l0.086,-0.052l0.086,-0.049l0.089,-0.046l0.089,-0.043l0.091,-0.041l0.092,-0.038l0.093,-0.034l0.095,-0.032l0.095,-0.029l0.096,-0.026l0.097,-0.023l0.097,-0.02l0.098,-0.017l0.099,-0.014l0.099,-0.011l0.099,-0.008l0.099,-0.004l0.1,-0.002l0.522,0l0.047,0l0.028,-0.001l0.028,-0.002l0.028,-0.002l0.027,-0.003l0.028,-0.003l0.027,-0.004l0.026,-0.005l0.027,-0.005l0.026,-0.005l0.026,-0.006l0.025,-0.007l0.026,-0.007l0.026,-0.008l0.025,-0.008l0.024,-0.009l0.025,-0.009l0.025,-0.01l0.024,-0.011l0.024,-0.011l0.024,-0.011l0.023,-0.012l0.024,-0.013l0.023,-0.013l0.023,-0.013l0.023,-0.014l0.022,-0.015l0.022,-0.015l0.021,-0.015l0.021,-0.015l0.022,-0.018l0.021,-0.016l0.019,-0.017l0.021,-0.018l0.019,-0.018l0.019,-0.018l0.019,-0.019l0.019,-0.02l0.018,-0.02l0.016,-0.019l0.017,-0.02l0.018,-0.021l0.016,-0.021l0.015,-0.022l0.015,-0.021l0.015,-0.022l0.015,-0.023l0.012,-0.021l0.014,-0.023l0.013,-0.024l0.013,-0.024l0.012,-0.024l0.01,-0.022l0.011,-0.026l0.011,-0.024l0.009,-0.025l0.01,-0.027l0.009,-0.025l0.008,-0.025l0.008,-0.027l0.007,-0.027l0.006,-0.027l0.007,-0.028l0.009,-0.046l0.787,-4.203l0.02,-0.097l0.023,-0.097l0.026,-0.096l0.029,-0.095l0.031,-0.095l0.035,-0.093l0.038,-0.092l0.04,-0.091l0.043,-0.09l0.046,-0.088l0.049,-0.087l0.052,-0.085l0.054,-0.084l0.056,-0.082l0.059,-0.08l0.062,-0.078l0.064,-0.076l0.066,-0.074l0.069,-0.072l0.071,-0.07l0.073,-0.068l0.075,-0.065l0.077,-0.063l0.079,-0.061l0.081,-0.058l0.082,-0.056l0.084,-0.053l0.086,-0.05l0.088,-0.048l0.088,-0.044l0.091,-0.043l0.091,-0.039l0.093,-0.036l0.093,-0.034l0.095,-0.03l0.096,-0.028l0.096,-0.025l0.097,-0.021l0.098,-0.019l0.098,-0.016l0.099,-0.012l0.099,-0.009l0.1,-0.007l0.099,-0.003l0.1,0l0.099,0.003Z"/>
    </g>
    <g id="emoji">
        <path d="M11.619,12.013l-1.078,7.796" style="fill:none;stroke:#f10dc3;stroke-width:2.39px;"/>
        <path d="M5.489,11.964l1.223,7.388" style="fill:none;stroke:#f10dc3;stroke-width:2.39px;"/>
        <path d="M8.62,11.07l0,8" style="fill:none;stroke:#f10dc3;stroke-width:2.39px;"/>
        <path d="M3.498,15.239l0.053,0.003l0.053,0.005l0.052,0.007l0.053,0.009l0.051,0.011l0.052,0.012l0.051,0.015l0.05,0.017l0.05,0.018l0.049,0.02l0.048,0.022l0.047,0.024l0.047,0.025l0.045,0.027l0.045,0.029l0.043,0.031l0.042,0.032l0.041,0.033l0.04,0.035l0.039,0.037l0.037,0.038l0.035,0.039l0.034,0.04l0.033,0.042l0.031,0.043l0.029,0.044l0.028,0.045l0.026,0.046l0.025,0.047l0.022,0.048l0.021,0.049l0.019,0.049l0.017,0.05l0.016,0.051l0.515,1.828l0.02,0.066l0.018,0.059l0.02,0.058l0.021,0.057l0.022,0.056l0.023,0.056l0.024,0.055l0.025,0.055l0.026,0.053l0.027,0.054l0.028,0.052l0.029,0.052l0.03,0.05l0.031,0.05l0.033,0.05l0.033,0.049l0.034,0.048l0.035,0.047l0.036,0.047l0.036,0.045l0.038,0.045l0.039,0.044l0.039,0.043l0.04,0.043l0.041,0.042l0.042,0.04l0.043,0.04l0.043,0.039l0.044,0.038l0.045,0.038l0.046,0.036l0.047,0.035l0.046,0.035l0.048,0.033l0.049,0.033l0.049,0.031l0.05,0.031l0.05,0.03l0.051,0.028l0.052,0.028l0.052,0.026l0.052,0.026l0.054,0.024l0.053,0.024l0.054,0.022l0.055,0.021l0.056,0.02l0.055,0.019l0.056,0.018l0.057,0.017l0.057,0.016l0.057,0.014l0.058,0.013l0.058,0.013l0.059,0.01l0.059,0.01l0.059,0.009l0.06,0.007l0.06,0.006l0.06,0.005l0.061,0.004l0.061,0.002l0.061,0.002l0.069,-0.001l0.156,-0.001l0.053,0l0.053,0.002l0.053,0.004l0.052,0.007l0.053,0.008l0.052,0.01l0.051,0.012l0.051,0.013l0.051,0.016l0.05,0.018l0.049,0.019l0.049,0.021l0.048,0.023l0.046,0.025l0.046,0.027l0.045,0.028l0.044,0.03l0.043,0.031l0.041,0.033l0.04,0.034l0.039,0.036l0.038,0.038l0.036,0.038l0.035,0.04l0.033,0.042l0.032,0.042l0.03,0.044l0.028,0.044l0.027,0.046l0.025,0.047l0.023,0.047l0.022,0.049l0.02,0.049l0.018,0.05l0.016,0.05l0.014,0.051l0.012,0.052l0.011,0.052l0.008,0.052l0.007,0.053l0.004,0.052l0.003,0.053l0.001,0.053l-0.002,0.053l-0.003,0.053l-0.005,0.053l-0.007,0.052l-0.009,0.053l-0.011,0.051l-0.013,0.052l-0.015,0.051l-0.017,0.05l-0.018,0.05l-0.021,0.049l-0.022,0.048l-0.024,0.047l-0.025,0.046l-0.028,0.046l-0.029,0.044l-0.03,0.043l-0.032,0.042l-0.034,0.041l-0.035,0.04l-0.037,0.038l-0.038,0.037l-0.039,0.035l-0.041,0.034l-0.042,0.033l-0.043,0.031l-0.044,0.029l-0.045,0.028l-0.046,0.026l-0.048,0.024l-0.048,0.022l-0.048,0.021l-0.05,0.019l-0.05,0.017l-0.051,0.015l-0.051,0.013l-0.052,0.012l-0.052,0.009l-0.052,0.007l-0.053,0.006l-0.053,0.004l-0.053,0.001l-0.171,0.002l-0.114,0.001l-0.121,-0.003l-0.121,-0.004l-0.121,-0.008l-0.12,-0.01l-0.119,-0.012l-0.119,-0.015l-0.118,-0.017l-0.117,-0.019l-0.117,-0.022l-0.116,-0.024l-0.116,-0.027l-0.114,-0.029l-0.114,-0.031l-0.113,-0.033l-0.112,-0.036l-0.11,-0.038l-0.11,-0.04l-0.109,-0.042l-0.109,-0.045l-0.107,-0.046l-0.105,-0.049l-0.105,-0.051l-0.104,-0.052l-0.102,-0.055l-0.101,-0.057l-0.1,-0.059l-0.099,-0.06l-0.098,-0.063l-0.096,-0.065l-0.095,-0.066l-0.094,-0.069l-0.092,-0.07l-0.09,-0.072l-0.089,-0.074l-0.088,-0.076l-0.087,-0.077l-0.084,-0.08l-0.084,-0.081l-0.081,-0.082l-0.08,-0.085l-0.079,-0.086l-0.076,-0.087l-0.075,-0.09l-0.073,-0.091l-0.072,-0.092l-0.069,-0.095l-0.068,-0.095l-0.066,-0.097l-0.064,-0.099l-0.062,-0.1l-0.061,-0.102l-0.058,-0.103l-0.056,-0.104l-0.054,-0.106l-0.052,-0.107l-0.05,-0.109l-0.048,-0.109l-0.045,-0.111l-0.044,-0.113l-0.041,-0.113l-0.039,-0.114l-0.036,-0.116l-0.033,-0.11l-0.52,-1.842l-0.013,-0.052l-0.012,-0.051l-0.009,-0.052l-0.008,-0.053l-0.006,-0.052l-0.003,-0.053l-0.002,-0.053l0,-0.053l0.002,-0.053l0.004,-0.053l0.006,-0.053l0.008,-0.052l0.01,-0.052l0.012,-0.052l0.013,-0.051l0.016,-0.051l0.017,-0.05l0.019,-0.049l0.021,-0.049l0.023,-0.047l0.025,-0.047l0.026,-0.046l0.028,-0.045l0.03,-0.044l0.031,-0.043l0.033,-0.042l0.034,-0.04l0.036,-0.039l0.037,-0.038l0.039,-0.036l0.04,-0.035l0.041,-0.033l0.042,-0.032l0.044,-0.03l0.044,-0.029l0.046,-0.027l0.046,-0.025l0.048,-0.024l0.048,-0.021l0.049,-0.02l0.05,-0.019l0.05,-0.016l0.051,-0.014l0.052,-0.013l0.052,-0.01l0.052,-0.009l0.053,-0.007l0.052,-0.004l0.053,-0.003l0.053,-0.001l0.053,0.001Z" style="fill:#f10dc3;"/>
        <path d="M13.779,14.13c0,0 -0.396,2.117 -0.775,4.14c-0.394,2.101 -2.228,3.623 -4.365,3.623c-0.303,0 -0.497,0 -0.497,0" style="fill:none;stroke:#f10dc3;stroke-width:2.39px;"/>
        <path d="M5.468,16.013l-1.149,1.428l1.634,1.866l-2.458,-1.073l4.442,4.226l4.806,-1.741l0,-5.56l-6.305,0l-0.97,0.854Z" style="fill:#f10dc3;"/>
        <path d="M13.228,11.307l-0.849,4.941" style="fill:none;stroke:#000;stroke-width:0.48px;"/>
        <path d="M10.075,10.836l0,4.706" style="fill:none;stroke:#000;stroke-width:0.48px;"/>
        <path d="M7.166,10.836l0,4.471" style="fill:none;stroke:#000;stroke-width:0.48px;"/>
        <path d="M11.698,11.432c-0.505,-0.067 -1,0.451 -1.103,1.155c-0.103,0.705 0.223,1.331 0.729,1.398c0.506,0.067 1,-0.451 1.103,-1.155c0.104,-0.705 -0.223,-1.331 -0.729,-1.398Z" style="fill:#ff80b7;"/>
        <path d="M14.115,13.613c-0.412,-0.1 -0.86,0.258 -0.998,0.798c-0.139,0.54 0.083,1.059 0.495,1.159c0.412,0.099 0.859,-0.258 0.998,-0.798c0.138,-0.54 -0.083,-1.06 -0.495,-1.159Z" style="fill:#ff80b7;"/>
        <ellipse cx="8.616" cy="12.013" rx="0.97" ry="1.412" style="fill:#ff80b7;"/>
        <path d="M5.387,11.367c-0.489,0.068 -0.796,0.712 -0.685,1.438c0.112,0.725 0.599,1.259 1.088,1.191c0.489,-0.068 0.796,-0.712 0.685,-1.437c-0.112,-0.726 -0.599,-1.26 -1.088,-1.192Z" style="fill:#ff80b7;"/>
        <path d="M3.158,15.841c-0.592,0.147 -0.883,0.947 -0.648,1.786c0.235,0.839 0.906,1.401 1.499,1.254c0.593,-0.146 0.883,-0.947 0.648,-1.786c-0.234,-0.839 -0.906,-1.401 -1.499,-1.254Z" style="fill:#ff80b7;"/>
        <path d="M11.967,19.909c0,-0.362 -0.146,-0.708 -0.406,-0.959c-0.139,-0.136 -0.307,-0.299 -0.492,-0.478c-1.391,-1.35 -3.603,-1.35 -4.994,0c-0.184,0.179 -0.352,0.342 -0.492,0.478c-0.259,0.251 -0.406,0.597 -0.406,0.959c0,0 0,0.001 0,0.002c0,0.544 0.25,1.058 0.678,1.395c0.428,0.336 0.986,0.457 1.515,0.329c0.291,-0.071 0.549,-0.133 0.724,-0.176c0.157,-0.038 0.317,-0.057 0.478,-0.057c0.161,0 0.322,0.019 0.478,0.057c0.175,0.043 0.433,0.105 0.725,0.176c0.529,0.128 1.087,0.007 1.515,-0.329c0.427,-0.337 0.677,-0.851 0.677,-1.395c0,-0.001 0,-0.002 0,-0.002Z" style="fill:#ff80b7;"/>
        <path d="M3.965,12.82l1.222,4.039" style="fill:none;stroke:#000;stroke-width:0.48px;"/>
    </g>
    <g id="outline1" serif:id="outline">
        <path d="M20.488,8.848l0.098,0.004l0.098,0.008l0.098,0.011l0.098,0.014l0.097,0.017l0.096,0.02l0.096,0.023l0.095,0.026l0.094,0.029l0.094,0.032l0.092,0.035l0.091,0.037l0.09,0.041l0.088,0.043l0.087,0.046l0.086,0.048l0.084,0.052l0.083,0.053l0.08,0.057l0.079,0.059l0.078,0.061l0.075,0.064l0.073,0.066l0.071,0.068l0.069,0.07l0.067,0.073l0.064,0.074l0.062,0.077l0.06,0.078l0.057,0.08l0.055,0.082l0.052,0.084l0.049,0.085l0.047,0.087l0.044,0.088l0.041,0.089l0.039,0.091l0.036,0.092l0.033,0.092l0.029,0.094l0.027,0.095l0.024,0.096l0.021,0.096l0.018,0.097l0.015,0.097l1.078,7.796l0.012,0.098l0.009,0.098l0.006,0.098l0.003,0.099l0,0.098l-0.004,0.099l-0.006,0.098l-0.009,0.098l-0.013,0.098l-0.015,0.097l-0.019,0.097l-0.021,0.096l-0.025,0.095l-0.027,0.095l-0.031,0.094l-0.033,0.092l-0.036,0.092l-0.039,0.09l-0.042,0.09l-0.044,0.087l-0.048,0.087l-0.05,0.085l-0.052,0.083l-0.055,0.082l-0.058,0.08l-0.06,0.078l-0.062,0.076l-0.065,0.074l-0.067,0.072l-0.07,0.07l-0.071,0.068l-0.074,0.066l-0.075,0.063l-0.077,0.061l-0.08,0.058l-0.081,0.056l-0.083,0.054l-0.084,0.05l-0.086,0.049l-0.087,0.045l-0.089,0.043l-0.09,0.04l-0.091,0.037l-0.093,0.034l-0.093,0.031l-0.095,0.029l-0.095,0.025l-0.096,0.023l-0.096,0.019l-0.097,0.017l-0.098,0.013l-0.098,0.011l-0.098,0.007l-0.098,0.005l-0.099,0.001l-0.098,-0.002l-0.099,-0.005l-0.098,-0.008l-0.098,-0.011l-0.097,-0.014l-0.097,-0.017l-0.097,-0.02l-0.096,-0.023l-0.095,-0.026l-0.094,-0.029l-0.093,-0.031l-0.092,-0.035l-0.091,-0.038l-0.09,-0.04l-0.089,-0.043l-0.087,-0.046l-0.086,-0.049l-0.084,-0.051l-0.082,-0.054l-0.081,-0.056l-0.079,-0.059l-0.077,-0.061l-0.075,-0.064l-0.073,-0.066l-0.072,-0.068l-0.068,-0.07l-0.067,-0.073l-0.065,-0.074l-0.062,-0.077l-0.059,-0.078l-0.058,-0.081l-0.054,-0.081l-0.052,-0.084l-0.05,-0.085l-0.047,-0.087l-0.044,-0.088l-0.041,-0.089l-0.039,-0.091l-0.035,-0.092l-0.033,-0.093l-0.03,-0.094l-0.027,-0.094l-0.024,-0.096l-0.021,-0.096l-0.018,-0.097l-0.015,-0.097l-1.078,-7.796l-0.012,-0.098l-0.009,-0.098l-0.006,-0.099l-0.003,-0.098l0.001,-0.099l0.003,-0.098l0.006,-0.098l0.01,-0.098l0.012,-0.098l0.016,-0.097l0.018,-0.097l0.022,-0.096l0.024,-0.096l0.028,-0.094l0.03,-0.094l0.034,-0.093l0.036,-0.091l0.039,-0.091l0.041,-0.089l0.045,-0.088l0.047,-0.086l0.05,-0.085l0.053,-0.084l0.055,-0.081l0.057,-0.08l0.06,-0.078l0.063,-0.076l0.065,-0.075l0.067,-0.072l0.069,-0.07l0.072,-0.068l0.073,-0.065l0.076,-0.063l0.077,-0.061l0.079,-0.059l0.081,-0.056l0.083,-0.053l0.085,-0.051l0.085,-0.048l0.088,-0.045l0.089,-0.043l0.09,-0.04l0.091,-0.037l0.092,-0.034l0.094,-0.032l0.094,-0.028l0.095,-0.026l0.096,-0.022l0.097,-0.02l0.097,-0.016l0.097,-0.014l0.098,-0.01l0.098,-0.008l0.099,-0.004l0.098,-0.001l0.099,0.002Z"/>
        <path d="M26.595,8.798l0.097,0.004l0.096,0.007l0.096,0.01l0.096,0.013l0.095,0.016l0.095,0.018l0.094,0.022l0.093,0.024l0.093,0.027l0.092,0.031l0.091,0.032l0.09,0.036l0.088,0.038l0.088,0.041l0.086,0.044l0.085,0.046l0.083,0.049l0.082,0.051l0.08,0.054l0.079,0.056l0.076,0.059l0.075,0.061l0.073,0.063l0.071,0.066l0.07,0.067l0.067,0.07l0.064,0.071l0.063,0.074l0.06,0.075l0.058,0.077l0.056,0.079l0.053,0.081l0.051,0.082l0.048,0.084l0.046,0.085l0.043,0.087l0.04,0.087l0.038,0.089l0.035,0.09l0.032,0.091l0.029,0.092l0.027,0.093l0.023,0.094l0.021,0.094l0.018,0.095l0.015,0.096l0.012,0.095l0.009,0.097l0.007,0.096l0.003,0.097l0,0.096l-0.002,0.097l-0.006,0.096l-0.008,0.096l-0.012,0.096l-0.014,0.096l-1.222,7.388l-0.017,0.095l-0.02,0.094l-0.023,0.094l-0.026,0.093l-0.029,0.092l-0.031,0.092l-0.034,0.09l-0.037,0.089l-0.04,0.088l-0.042,0.087l-0.045,0.086l-0.048,0.084l-0.05,0.082l-0.053,0.081l-0.055,0.08l-0.057,0.077l-0.06,0.076l-0.062,0.074l-0.064,0.072l-0.067,0.07l-0.068,0.068l-0.071,0.066l-0.072,0.064l-0.075,0.062l-0.076,0.059l-0.078,0.057l-0.08,0.054l-0.082,0.052l-0.083,0.049l-0.084,0.047l-0.086,0.045l-0.087,0.041l-0.088,0.039l-0.09,0.037l-0.09,0.033l-0.092,0.031l-0.092,0.028l-0.094,0.025l-0.094,0.022l-0.094,0.02l-0.096,0.016l-0.095,0.014l-0.096,0.01l-0.096,0.008l-0.097,0.005l-0.096,0.002l-0.097,-0.001l-0.097,-0.004l-0.096,-0.007l-0.096,-0.01l-0.096,-0.013l-0.095,-0.016l-0.095,-0.019l-0.094,-0.021l-0.093,-0.025l-0.093,-0.027l-0.092,-0.03l-0.091,-0.033l-0.09,-0.035l-0.088,-0.039l-0.088,-0.041l-0.086,-0.043l-0.085,-0.047l-0.083,-0.048l-0.082,-0.052l-0.08,-0.054l-0.079,-0.056l-0.076,-0.058l-0.075,-0.061l-0.073,-0.064l-0.071,-0.065l-0.07,-0.067l-0.067,-0.07l-0.064,-0.072l-0.063,-0.073l-0.06,-0.076l-0.058,-0.077l-0.056,-0.079l-0.053,-0.08l-0.051,-0.083l-0.048,-0.083l-0.046,-0.085l-0.043,-0.087l-0.04,-0.088l-0.038,-0.089l-0.035,-0.09l-0.032,-0.091l-0.029,-0.092l-0.027,-0.093l-0.023,-0.093l-0.021,-0.095l-0.018,-0.095l-0.015,-0.095l-0.012,-0.096l-0.009,-0.096l-0.007,-0.096l-0.003,-0.097l0,-0.097l0.002,-0.096l0.006,-0.097l0.008,-0.096l0.012,-0.096l0.014,-0.095l1.222,-7.388l0.017,-0.095l0.02,-0.094l0.023,-0.094l0.026,-0.093l0.029,-0.093l0.031,-0.091l0.034,-0.09l0.037,-0.09l0.04,-0.088l0.042,-0.086l0.045,-0.086l0.048,-0.084l0.05,-0.083l0.053,-0.081l0.055,-0.079l0.057,-0.078l0.06,-0.076l0.062,-0.074l0.064,-0.072l0.067,-0.07l0.068,-0.068l0.071,-0.066l0.072,-0.063l0.075,-0.062l0.076,-0.059l0.078,-0.057l0.08,-0.054l0.082,-0.052l0.083,-0.05l0.084,-0.047l0.086,-0.044l0.087,-0.042l0.088,-0.039l0.09,-0.036l0.09,-0.034l0.092,-0.03l0.092,-0.028l0.094,-0.025l0.094,-0.023l0.094,-0.019l0.095,-0.017l0.096,-0.013l0.096,-0.011l0.096,-0.007l0.097,-0.005l0.096,-0.002l0.097,0.001Z"/>
        <path d="M23.53,7.906l0.101,0.007l0.1,0.009l0.099,0.013l0.099,0.016l0.099,0.019l0.098,0.022l0.097,0.025l0.097,0.029l0.095,0.031l0.095,0.034l0.093,0.038l0.092,0.04l0.091,0.043l0.089,0.046l0.088,0.049l0.086,0.052l0.085,0.054l0.083,0.057l0.081,0.06l0.079,0.062l0.077,0.064l0.074,0.067l0.073,0.07l0.071,0.071l0.068,0.074l0.066,0.076l0.063,0.078l0.061,0.08l0.058,0.082l0.056,0.084l0.053,0.085l0.05,0.087l0.048,0.089l0.044,0.09l0.042,0.091l0.039,0.093l0.036,0.094l0.032,0.095l0.03,0.096l0.027,0.096l0.024,0.098l0.02,0.098l0.018,0.099l0.014,0.1l0.011,0.1l0.008,0.1l0.005,0.1l0.002,0.101l0,8l-0.002,0.1l-0.005,0.101l-0.008,0.1l-0.011,0.1l-0.014,0.099l-0.018,0.099l-0.02,0.099l-0.024,0.097l-0.027,0.097l-0.03,0.096l-0.032,0.095l-0.036,0.094l-0.039,0.093l-0.042,0.091l-0.044,0.09l-0.048,0.089l-0.05,0.087l-0.053,0.085l-0.056,0.084l-0.058,0.082l-0.061,0.08l-0.063,0.078l-0.066,0.076l-0.068,0.073l-0.071,0.072l-0.073,0.069l-0.074,0.067l-0.077,0.065l-0.079,0.062l-0.081,0.06l-0.083,0.057l-0.085,0.054l-0.086,0.052l-0.088,0.048l-0.089,0.046l-0.091,0.044l-0.092,0.04l-0.093,0.037l-0.095,0.035l-0.095,0.031l-0.097,0.028l-0.097,0.026l-0.098,0.022l-0.099,0.019l-0.099,0.016l-0.099,0.012l-0.1,0.01l-0.101,0.006l-0.1,0.003l-0.101,0l-0.1,-0.003l-0.1,-0.006l-0.1,-0.01l-0.1,-0.012l-0.099,-0.016l-0.099,-0.019l-0.098,-0.022l-0.097,-0.026l-0.097,-0.028l-0.095,-0.031l-0.095,-0.035l-0.093,-0.037l-0.092,-0.04l-0.091,-0.044l-0.089,-0.046l-0.088,-0.048l-0.086,-0.052l-0.085,-0.054l-0.083,-0.057l-0.08,-0.06l-0.079,-0.062l-0.077,-0.065l-0.075,-0.067l-0.073,-0.069l-0.071,-0.072l-0.068,-0.073l-0.066,-0.076l-0.063,-0.078l-0.061,-0.08l-0.058,-0.082l-0.056,-0.084l-0.053,-0.085l-0.05,-0.087l-0.047,-0.089l-0.045,-0.09l-0.042,-0.091l-0.039,-0.093l-0.036,-0.094l-0.032,-0.095l-0.03,-0.096l-0.027,-0.097l-0.024,-0.097l-0.02,-0.099l-0.018,-0.099l-0.014,-0.099l-0.011,-0.1l-0.008,-0.1l-0.005,-0.101l-0.002,-0.1l0,-8l0.002,-0.101l0.005,-0.1l0.008,-0.1l0.011,-0.1l0.014,-0.1l0.018,-0.099l0.02,-0.098l0.024,-0.098l0.027,-0.096l0.03,-0.096l0.032,-0.095l0.036,-0.094l0.039,-0.093l0.042,-0.091l0.045,-0.09l0.047,-0.089l0.05,-0.087l0.053,-0.085l0.056,-0.084l0.058,-0.082l0.061,-0.08l0.063,-0.078l0.066,-0.076l0.068,-0.074l0.071,-0.071l0.073,-0.07l0.075,-0.067l0.077,-0.064l0.079,-0.062l0.08,-0.06l0.083,-0.057l0.085,-0.054l0.086,-0.052l0.088,-0.049l0.089,-0.046l0.091,-0.043l0.092,-0.04l0.093,-0.038l0.095,-0.034l0.095,-0.031l0.097,-0.029l0.097,-0.025l0.098,-0.022l0.099,-0.019l0.099,-0.016l0.1,-0.013l0.1,-0.009l0.1,-0.007l0.1,-0.003l0.101,0l0.1,0.003Z"/>
        <path d="M28.672,13.259l0.082,0.004l0.082,0.005l0.083,0.008l0.082,0.01l0.081,0.011l0.082,0.014l0.081,0.016l0.08,0.017l0.08,0.02l0.08,0.021l0.079,0.024l0.079,0.025l0.078,0.027l0.077,0.029l0.076,0.031l0.076,0.033l0.075,0.034l0.074,0.037l0.073,0.038l0.073,0.04l0.071,0.041l0.07,0.044l0.069,0.045l0.068,0.046l0.067,0.049l0.066,0.049l0.064,0.052l0.064,0.053l0.062,0.055l0.06,0.056l0.059,0.057l0.058,0.059l0.056,0.06l0.055,0.062l0.054,0.063l0.052,0.064l0.05,0.065l0.049,0.067l0.047,0.068l0.045,0.069l0.044,0.069l0.042,0.071l0.04,0.072l0.039,0.073l0.037,0.074l0.035,0.075l0.033,0.076l0.031,0.076l0.03,0.077l0.027,0.078l0.026,0.078l0.024,0.079l0.022,0.08l0.02,0.08l0.018,0.08l0.016,0.081l0.014,0.081l0.012,0.082l0.01,0.082l0.008,0.082l0.007,0.082l0.004,0.083l0.002,0.082l0,0.083l-0.001,0.082l-0.004,0.083l-0.006,0.082l-0.008,0.082l-0.009,0.082l-0.012,0.082l-0.014,0.081l-0.015,0.081l-0.018,0.081l-0.019,0.08l-0.022,0.08l-0.523,1.852l-0.041,0.14l-0.049,0.155l-0.052,0.153l-0.055,0.153l-0.059,0.151l-0.061,0.149l-0.064,0.147l-0.067,0.147l-0.07,0.143l-0.073,0.142l-0.075,0.141l-0.079,0.138l-0.081,0.137l-0.083,0.135l-0.087,0.133l-0.088,0.13l-0.091,0.128l-0.094,0.127l-0.096,0.124l-0.098,0.123l-0.101,0.12l-0.103,0.117l-0.105,0.117l-0.108,0.113l-0.109,0.111l-0.112,0.108l-0.114,0.107l-0.116,0.104l-0.118,0.102l-0.12,0.099l-0.121,0.097l-0.124,0.094l-0.126,0.093l-0.127,0.089l-0.129,0.087l-0.131,0.084l-0.133,0.081l-0.134,0.079l-0.136,0.076l-0.137,0.074l-0.14,0.071l-0.141,0.068l-0.142,0.065l-0.144,0.063l-0.145,0.06l-0.146,0.056l-0.148,0.054l-0.15,0.051l-0.15,0.048l-0.152,0.045l-0.152,0.042l-0.154,0.039l-0.156,0.036l-0.156,0.032l-0.157,0.03l-0.157,0.026l-0.159,0.023l-0.16,0.02l-0.16,0.016l-0.161,0.013l-0.162,0.01l-0.163,0.007l-0.162,0.003l-0.146,-0.001l-0.181,-0.002l-0.083,-0.002l-0.082,-0.004l-0.082,-0.006l-0.082,-0.008l-0.082,-0.01l-0.082,-0.012l-0.081,-0.014l-0.081,-0.016l-0.081,-0.018l-0.08,-0.019l-0.08,-0.022l-0.079,-0.024l-0.078,-0.025l-0.078,-0.028l-0.077,-0.029l-0.076,-0.031l-0.076,-0.033l-0.075,-0.035l-0.074,-0.037l-0.073,-0.038l-0.072,-0.04l-0.071,-0.042l-0.07,-0.044l-0.069,-0.045l-0.068,-0.047l-0.067,-0.048l-0.065,-0.05l-0.065,-0.052l-0.063,-0.053l-0.061,-0.055l-0.061,-0.056l-0.059,-0.058l-0.057,-0.059l-0.056,-0.06l-0.055,-0.062l-0.053,-0.063l-0.052,-0.065l-0.05,-0.065l-0.049,-0.067l-0.046,-0.068l-0.046,-0.069l-0.043,-0.07l-0.042,-0.071l-0.04,-0.072l-0.038,-0.074l-0.037,-0.073l-0.034,-0.075l-0.033,-0.076l-0.031,-0.076l-0.03,-0.078l-0.027,-0.077l-0.025,-0.079l-0.024,-0.079l-0.022,-0.08l-0.019,-0.08l-0.018,-0.08l-0.016,-0.081l-0.014,-0.082l-0.012,-0.081l-0.01,-0.082l-0.007,-0.082l-0.006,-0.083l-0.004,-0.082l-0.002,-0.083l0,-0.082l0.002,-0.083l0.004,-0.082l0.006,-0.082l0.008,-0.082l0.01,-0.082l0.012,-0.082l0.014,-0.081l0.016,-0.081l0.017,-0.081l0.02,-0.08l0.022,-0.08l0.024,-0.079l0.025,-0.078l0.028,-0.078l0.029,-0.077l0.031,-0.076l0.033,-0.076l0.035,-0.075l0.036,-0.074l0.039,-0.073l0.04,-0.072l0.042,-0.071l0.043,-0.07l0.046,-0.069l0.047,-0.068l0.048,-0.067l0.05,-0.065l0.052,-0.065l0.053,-0.063l0.055,-0.061l0.056,-0.061l0.058,-0.059l0.059,-0.057l0.06,-0.057l0.062,-0.054l0.063,-0.053l0.065,-0.052l0.065,-0.05l0.067,-0.049l0.068,-0.046l0.069,-0.046l0.07,-0.043l0.071,-0.042l0.072,-0.04l0.073,-0.038l0.074,-0.037l0.075,-0.034l0.076,-0.033l0.076,-0.031l0.077,-0.03l0.078,-0.027l0.079,-0.026l0.079,-0.023l0.08,-0.022l0.08,-0.019l0.08,-0.018l0.081,-0.016l0.082,-0.014l0.081,-0.012l0.082,-0.01l0.082,-0.008l0.083,-0.005l0.082,-0.004l0.082,-0.002l0.083,0l0.145,0.002l0.038,0l0.02,-0.001l0.02,-0.001l0.019,-0.001l0.019,-0.001l0.019,-0.002l0.019,-0.003l0.019,-0.002l0.018,-0.003l0.019,-0.004l0.018,-0.004l0.018,-0.004l0.018,-0.004l0.018,-0.005l0.017,-0.005l0.018,-0.006l0.017,-0.006l0.017,-0.006l0.018,-0.007l0.017,-0.007l0.017,-0.007l0.017,-0.008l0.016,-0.008l0.017,-0.008l0.016,-0.009l0.017,-0.01l0.015,-0.009l0.016,-0.01l0.016,-0.01l0.016,-0.01l0.015,-0.011l0.015,-0.011l0.014,-0.011l0.015,-0.012l0.015,-0.012l0.014,-0.012l0.014,-0.012l0.013,-0.013l0.013,-0.013l0.014,-0.013l0.012,-0.014l0.013,-0.013l0.012,-0.014l0.012,-0.014l0.011,-0.015l0.012,-0.014l0.01,-0.015l0.011,-0.015l0.011,-0.016l0.01,-0.015l0.01,-0.016l0.009,-0.015l0.009,-0.017l0.009,-0.016l0.008,-0.017l0.009,-0.017l0.007,-0.016l0.008,-0.018l0.007,-0.018l0.007,-0.017l0.007,-0.018l0.006,-0.02l0.006,-0.019l0.011,-0.036l0.513,-1.818l0.023,-0.079l0.025,-0.078l0.028,-0.078l0.029,-0.078l0.03,-0.076l0.033,-0.076l0.035,-0.075l0.036,-0.074l0.038,-0.073l0.04,-0.072l0.042,-0.072l0.043,-0.07l0.045,-0.069l0.047,-0.068l0.048,-0.067l0.05,-0.066l0.051,-0.064l0.053,-0.063l0.055,-0.062l0.056,-0.061l0.057,-0.059l0.059,-0.058l0.061,-0.056l0.061,-0.055l0.063,-0.053l0.064,-0.052l0.066,-0.051l0.066,-0.048l0.068,-0.047l0.069,-0.046l0.07,-0.043l0.071,-0.043l0.072,-0.04l0.073,-0.038l0.074,-0.037l0.075,-0.035l0.075,-0.033l0.076,-0.032l0.077,-0.029l0.078,-0.028l0.079,-0.025l0.079,-0.024l0.079,-0.022l0.08,-0.02l0.081,-0.018l0.081,-0.016l0.081,-0.014l0.082,-0.013l0.081,-0.01l0.083,-0.008l0.082,-0.006l0.082,-0.004l0.083,-0.003l0.082,0l0.083,0.002Z"/>
        <path d="M18.343,10.906l0.1,0.003l0.099,0.007l0.099,0.009l0.099,0.012l0.098,0.016l0.098,0.019l0.097,0.021l0.096,0.025l0.096,0.028l0.095,0.03l0.093,0.034l0.093,0.036l0.092,0.039l0.09,0.043l0.089,0.044l0.087,0.048l0.086,0.05l0.084,0.053l0.083,0.056l0.08,0.058l0.079,0.061l0.077,0.063l0.075,0.065l0.073,0.068l0.071,0.07l0.069,0.072l0.066,0.074l0.064,0.076l0.062,0.078l0.059,0.081l0.057,0.081l0.054,0.084l0.051,0.085l0.049,0.087l0.046,0.088l0.043,0.09l0.04,0.091l0.038,0.092l0.035,0.093l0.032,0.095l0.028,0.095l0.026,0.096l0.023,0.097l0.02,0.097l0.787,4.203l0.009,0.046l0.007,0.028l0.006,0.027l0.007,0.027l0.008,0.026l0.008,0.026l0.009,0.027l0.009,0.024l0.01,0.026l0.011,0.024l0.01,0.024l0.012,0.025l0.011,0.023l0.013,0.024l0.013,0.024l0.013,0.022l0.014,0.023l0.014,0.022l0.015,0.022l0.015,0.021l0.016,0.022l0.016,0.022l0.016,0.019l0.017,0.02l0.018,0.021l0.018,0.02l0.018,0.019l0.018,0.018l0.02,0.019l0.02,0.018l0.019,0.017l0.02,0.018l0.022,0.017l0.02,0.016l0.021,0.016l0.023,0.016l0.022,0.015l0.021,0.014l0.023,0.014l0.023,0.013l0.023,0.013l0.023,0.013l0.025,0.012l0.023,0.011l0.024,0.011l0.025,0.011l0.024,0.01l0.024,0.009l0.025,0.009l0.026,0.008l0.025,0.008l0.026,0.007l0.025,0.007l0.026,0.006l0.027,0.005l0.026,0.005l0.026,0.005l0.027,0.004l0.028,0.003l0.027,0.003l0.028,0.002l0.028,0.002l0.028,0.001l0.047,0l0.522,0l0.1,0.002l0.099,0.004l0.099,0.008l0.099,0.011l0.099,0.014l0.098,0.017l0.097,0.02l0.097,0.023l0.096,0.026l0.095,0.029l0.095,0.032l0.093,0.034l0.092,0.038l0.091,0.041l0.089,0.043l0.089,0.046l0.086,0.049l0.085,0.052l0.084,0.054l0.082,0.057l0.08,0.059l0.078,0.062l0.076,0.064l0.074,0.066l0.072,0.069l0.07,0.071l0.067,0.073l0.066,0.075l0.063,0.077l0.06,0.079l0.058,0.081l0.056,0.083l0.052,0.084l0.051,0.086l0.047,0.087l0.045,0.089l0.042,0.091l0.039,0.091l0.036,0.093l0.034,0.093l0.03,0.095l0.028,0.096l0.024,0.096l0.022,0.098l0.018,0.097l0.016,0.099l0.012,0.098l0.009,0.1l0.007,0.099l0.003,0.099l0,0.1l-0.003,0.099l-0.007,0.1l-0.009,0.099l-0.012,0.099l-0.016,0.098l-0.018,0.098l-0.022,0.097l-0.024,0.096l-0.028,0.096l-0.03,0.095l-0.034,0.094l-0.036,0.092l-0.039,0.092l-0.042,0.09l-0.045,0.089l-0.047,0.087l-0.051,0.086l-0.052,0.085l-0.056,0.082l-0.058,0.081l-0.06,0.079l-0.063,0.077l-0.066,0.075l-0.067,0.073l-0.07,0.071l-0.072,0.069l-0.074,0.067l-0.076,0.064l-0.078,0.061l-0.08,0.06l-0.082,0.056l-0.084,0.055l-0.085,0.051l-0.086,0.049l-0.089,0.046l-0.089,0.043l-0.091,0.041l-0.092,0.038l-0.093,0.035l-0.095,0.032l-0.095,0.029l-0.096,0.026l-0.097,0.023l-0.097,0.02l-0.098,0.016l-0.099,0.014l-0.099,0.011l-0.099,0.008l-0.099,0.005l-0.1,0.001l-0.558,0l-0.153,-0.002l-0.171,-0.005l-0.17,-0.01l-0.169,-0.013l-0.168,-0.017l-0.168,-0.02l-0.166,-0.025l-0.166,-0.027l-0.165,-0.032l-0.163,-0.034l-0.162,-0.039l-0.161,-0.042l-0.16,-0.045l-0.158,-0.048l-0.156,-0.052l-0.156,-0.055l-0.154,-0.058l-0.153,-0.062l-0.15,-0.065l-0.149,-0.067l-0.148,-0.072l-0.145,-0.073l-0.144,-0.077l-0.142,-0.08l-0.14,-0.083l-0.138,-0.085l-0.137,-0.089l-0.135,-0.092l-0.131,-0.093l-0.13,-0.097l-0.129,-0.1l-0.125,-0.102l-0.124,-0.105l-0.122,-0.108l-0.119,-0.11l-0.116,-0.112l-0.115,-0.116l-0.113,-0.118l-0.109,-0.12l-0.106,-0.121l-0.105,-0.125l-0.103,-0.129l-0.099,-0.128l-0.097,-0.132l-0.094,-0.134l-0.091,-0.136l-0.089,-0.139l-0.086,-0.14l-0.083,-0.143l-0.079,-0.144l-0.077,-0.147l-0.074,-0.15l-0.07,-0.149l-0.068,-0.153l-0.064,-0.154l-0.061,-0.155l-0.058,-0.159l-0.055,-0.159l-0.051,-0.16l-0.047,-0.163l-0.044,-0.164l-0.041,-0.166l-0.037,-0.166l-0.03,-0.15l-0.794,-4.238l-0.016,-0.098l-0.014,-0.099l-0.011,-0.099l-0.007,-0.099l-0.005,-0.1l-0.001,-0.099l0.001,-0.1l0.005,-0.099l0.008,-0.099l0.011,-0.099l0.014,-0.099l0.017,-0.098l0.02,-0.097l0.023,-0.097l0.027,-0.096l0.029,-0.095l0.032,-0.095l0.035,-0.093l0.038,-0.092l0.04,-0.091l0.044,-0.089l0.046,-0.088l0.049,-0.087l0.052,-0.085l0.054,-0.083l0.057,-0.082l0.059,-0.08l0.062,-0.078l0.064,-0.076l0.067,-0.074l0.069,-0.072l0.071,-0.07l0.073,-0.067l0.075,-0.065l0.077,-0.063l0.079,-0.06l0.081,-0.058l0.083,-0.056l0.085,-0.052l0.086,-0.051l0.087,-0.047l0.089,-0.045l0.09,-0.041l0.092,-0.039l0.093,-0.037l0.093,-0.033l0.095,-0.03l0.096,-0.028l0.096,-0.024l0.098,-0.021l0.097,-0.019l0.099,-0.015l0.099,-0.012l0.099,-0.009l0.099,-0.006l0.1,-0.003l0.099,0Z"/>
    </g>
    <g id="emoji1" serif:id="emoji">
        <path d="M20.381,12.013l1.078,7.796" style="fill:none;stroke:#f10dc3;stroke-width:2.39px;"/>
        <path d="M26.511,11.964l-1.223,7.388" style="fill:none;stroke:#f10dc3;stroke-width:2.39px;"/>
        <path d="M23.38,11.07l0,8" style="fill:none;stroke:#f10dc3;stroke-width:2.39px;"/>
        <path d="M28.608,15.239l0.053,0.003l0.052,0.004l0.053,0.007l0.052,0.009l0.052,0.01l0.052,0.013l0.051,0.014l0.05,0.016l0.05,0.019l0.049,0.02l0.048,0.021l0.048,0.024l0.046,0.025l0.046,0.027l0.044,0.029l0.044,0.03l0.042,0.032l0.041,0.033l0.04,0.035l0.039,0.036l0.037,0.038l0.036,0.039l0.034,0.04l0.033,0.042l0.031,0.043l0.03,0.044l0.028,0.045l0.026,0.046l0.025,0.047l0.023,0.047l0.021,0.049l0.019,0.049l0.017,0.05l0.016,0.051l0.014,0.051l0.011,0.052l0.01,0.052l0.008,0.052l0.006,0.053l0.004,0.053l0.002,0.053l0,0.053l-0.002,0.053l-0.003,0.053l-0.006,0.052l-0.008,0.053l-0.009,0.052l-0.012,0.051l-0.013,0.052l-0.52,1.842l-0.033,0.11l-0.036,0.116l-0.039,0.114l-0.041,0.113l-0.044,0.113l-0.045,0.111l-0.048,0.109l-0.05,0.109l-0.052,0.107l-0.054,0.106l-0.056,0.104l-0.058,0.103l-0.061,0.102l-0.062,0.1l-0.064,0.099l-0.066,0.097l-0.068,0.095l-0.069,0.095l-0.072,0.092l-0.073,0.091l-0.075,0.09l-0.076,0.087l-0.079,0.086l-0.08,0.085l-0.081,0.082l-0.084,0.081l-0.084,0.08l-0.087,0.077l-0.088,0.076l-0.089,0.074l-0.09,0.072l-0.092,0.07l-0.094,0.069l-0.095,0.066l-0.096,0.065l-0.098,0.063l-0.098,0.06l-0.101,0.059l-0.101,0.057l-0.102,0.055l-0.104,0.052l-0.105,0.051l-0.105,0.049l-0.108,0.046l-0.108,0.045l-0.108,0.042l-0.111,0.04l-0.111,0.038l-0.111,0.036l-0.113,0.033l-0.114,0.031l-0.114,0.029l-0.116,0.027l-0.116,0.024l-0.117,0.022l-0.117,0.019l-0.118,0.017l-0.119,0.015l-0.119,0.012l-0.12,0.01l-0.121,0.008l-0.121,0.004l-0.121,0.003l-0.114,-0.001l-0.171,-0.002l-0.053,-0.001l-0.053,-0.004l-0.053,-0.006l-0.052,-0.007l-0.052,-0.009l-0.052,-0.012l-0.051,-0.013l-0.051,-0.015l-0.05,-0.017l-0.05,-0.019l-0.048,-0.021l-0.048,-0.022l-0.048,-0.024l-0.046,-0.026l-0.045,-0.028l-0.044,-0.029l-0.043,-0.031l-0.042,-0.033l-0.041,-0.034l-0.039,-0.035l-0.038,-0.037l-0.037,-0.038l-0.035,-0.04l-0.034,-0.041l-0.032,-0.042l-0.03,-0.043l-0.029,-0.044l-0.028,-0.046l-0.025,-0.046l-0.024,-0.047l-0.022,-0.048l-0.021,-0.049l-0.018,-0.05l-0.017,-0.05l-0.015,-0.051l-0.013,-0.052l-0.011,-0.051l-0.009,-0.053l-0.007,-0.052l-0.005,-0.053l-0.003,-0.053l-0.002,-0.053l0.001,-0.053l0.003,-0.053l0.004,-0.052l0.007,-0.053l0.008,-0.052l0.011,-0.052l0.012,-0.052l0.014,-0.051l0.016,-0.05l0.018,-0.05l0.02,-0.049l0.022,-0.049l0.023,-0.047l0.025,-0.047l0.027,-0.046l0.028,-0.044l0.03,-0.044l0.032,-0.042l0.033,-0.042l0.035,-0.04l0.036,-0.038l0.038,-0.038l0.039,-0.036l0.04,-0.034l0.041,-0.033l0.043,-0.031l0.044,-0.03l0.045,-0.028l0.046,-0.027l0.046,-0.025l0.048,-0.023l0.049,-0.021l0.049,-0.019l0.05,-0.018l0.051,-0.016l0.051,-0.013l0.051,-0.012l0.052,-0.01l0.053,-0.008l0.052,-0.007l0.053,-0.004l0.053,-0.002l0.053,0l0.156,0.001l0.069,0.001l0.061,-0.002l0.061,-0.002l0.061,-0.004l0.06,-0.005l0.06,-0.006l0.06,-0.007l0.059,-0.009l0.059,-0.01l0.059,-0.01l0.058,-0.013l0.058,-0.013l0.057,-0.014l0.057,-0.016l0.057,-0.017l0.056,-0.018l0.055,-0.019l0.056,-0.02l0.054,-0.021l0.055,-0.022l0.053,-0.024l0.054,-0.024l0.052,-0.026l0.052,-0.026l0.052,-0.028l0.051,-0.028l0.05,-0.03l0.05,-0.031l0.049,-0.031l0.049,-0.033l0.048,-0.033l0.046,-0.035l0.047,-0.035l0.046,-0.036l0.045,-0.038l0.044,-0.038l0.043,-0.039l0.043,-0.04l0.042,-0.04l0.041,-0.042l0.04,-0.043l0.039,-0.043l0.039,-0.044l0.038,-0.045l0.036,-0.045l0.036,-0.047l0.035,-0.047l0.034,-0.048l0.033,-0.049l0.033,-0.05l0.031,-0.05l0.03,-0.05l0.029,-0.052l0.028,-0.052l0.027,-0.054l0.026,-0.053l0.025,-0.055l0.024,-0.055l0.023,-0.056l0.022,-0.056l0.021,-0.057l0.02,-0.058l0.018,-0.059l0.02,-0.066l0.515,-1.828l0.016,-0.051l0.017,-0.05l0.019,-0.049l0.021,-0.049l0.022,-0.048l0.025,-0.047l0.026,-0.046l0.028,-0.045l0.029,-0.044l0.031,-0.043l0.033,-0.042l0.034,-0.04l0.035,-0.039l0.037,-0.038l0.039,-0.037l0.04,-0.035l0.041,-0.033l0.042,-0.032l0.043,-0.031l0.045,-0.029l0.045,-0.027l0.047,-0.025l0.047,-0.024l0.048,-0.022l0.049,-0.02l0.05,-0.018l0.05,-0.017l0.051,-0.015l0.052,-0.012l0.051,-0.011l0.053,-0.009l0.052,-0.007l0.053,-0.005l0.053,-0.003l0.053,-0.001l0.053,0.001Z" style="fill:#f10dc3;"/>
        <path d="M18.221,14.13c0,0 0.396,2.117 0.775,4.14c0.394,2.101 2.228,3.623 4.365,3.623c0.303,0 0.497,0 0.497,0" style="fill:none;stroke:#f10dc3;stroke-width:2.39px;"/>
        <path d="M26.532,16.013l1.149,1.428l-1.634,1.866l2.458,-1.073l-4.442,4.226l-4.806,-1.741l0,-5.56l6.305,0l0.97,0.854Z" style="fill:#f10dc3;"/>
        <path d="M18.772,11.307l0.849,4.941" style="fill:none;stroke:#000;stroke-width:0.48px;"/>
        <path d="M21.925,10.836l0,4.706" style="fill:none;stroke:#000;stroke-width:0.48px;"/>
        <path d="M24.834,10.836l0,4.471" style="fill:none;stroke:#000;stroke-width:0.48px;"/>
        <path d="M20.302,11.432c0.505,-0.067 1,0.451 1.103,1.155c0.103,0.705 -0.223,1.331 -0.729,1.398c-0.506,0.067 -1,-0.451 -1.103,-1.155c-0.104,-0.705 0.223,-1.331 0.729,-1.398Z" style="fill:#ff80b7;"/>
        <path d="M17.885,13.613c0.412,-0.1 0.86,0.258 0.998,0.798c0.139,0.54 -0.083,1.059 -0.495,1.159c-0.412,0.099 -0.859,-0.258 -0.998,-0.798c-0.138,-0.54 0.083,-1.06 0.495,-1.159Z" style="fill:#ff80b7;"/>
        <ellipse cx="23.384" cy="12.013" rx="0.97" ry="1.412" style="fill:#ff80b7;"/>
        <path d="M26.613,11.367c0.489,0.068 0.796,0.712 0.685,1.438c-0.112,0.725 -0.599,1.259 -1.088,1.191c-0.489,-0.068 -0.796,-0.712 -0.685,-1.437c0.112,-0.726 0.599,-1.26 1.088,-1.192Z" style="fill:#ff80b7;"/>
        <path d="M28.842,15.841c0.592,0.147 0.883,0.947 0.648,1.786c-0.235,0.839 -0.906,1.401 -1.499,1.254c-0.593,-0.146 -0.883,-0.947 -0.648,-1.786c0.234,-0.839 0.906,-1.401 1.499,-1.254Z" style="fill:#ff80b7;"/>
        <path d="M20.033,19.909c0,-0.362 0.146,-0.708 0.406,-0.959c0.139,-0.136 0.307,-0.299 0.492,-0.478c1.391,-1.35 3.603,-1.35 4.994,0c0.184,0.179 0.352,0.342 0.492,0.478c0.259,0.251 0.406,0.597 0.406,0.959c0,0 0,0.001 0,0.002c0,0.544 -0.25,1.058 -0.678,1.395c-0.428,0.336 -0.986,0.457 -1.515,0.329c-0.291,-0.071 -0.549,-0.133 -0.724,-0.176c-0.157,-0.038 -0.317,-0.057 -0.478,-0.057c-0.161,0 -0.322,0.019 -0.478,0.057c-0.175,0.043 -0.433,0.105 -0.725,0.176c-0.529,0.128 -1.087,0.007 -1.515,-0.329c-0.427,-0.337 -0.677,-0.851 -0.677,-1.395c0,-0.001 0,-0.002 0,-0.002Z" style="fill:#ff80b7;"/>
        <path d="M28.035,12.82l-1.222,4.039" style="fill:none;stroke:#000;stroke-width:0.48px;"/>
    </g>
</svg>
