<?xml version="1.0" encoding="UTF-8" standalone="no"?>
<!DOCTYPE svg PUBLIC "-//W3C//DTD SVG 1.1//EN" "http://www.w3.org/Graphics/SVG/1.1/DTD/svg11.dtd">
<svg width="100%" height="100%" viewBox="0 0 32 32" version="1.1" xmlns="http://www.w3.org/2000/svg" xmlns:xlink="http://www.w3.org/1999/xlink" xml:space="preserve" xmlns:serif="http://www.serif.com/" style="fill-rule:evenodd;clip-rule:evenodd;stroke-linejoin:round;stroke-miterlimit:2;">
    <path id="pinched_fingers--paw-" serif:id="pinched_fingers [paw]" d="M32,32l0,-32l-32,0l0,32l32,0Z" style="fill:none;"/>
    <clipPath id="_clip1">
        <path d="M32,32l0,-32l-32,0l0,32l32,0Z"/>
    </clipPath>
    <g clip-path="url(#_clip1)">
        <g id="outline">
            <path d="M15.486,4.557c0.163,-0.305 0.398,-0.555 0.677,-0.735l0.023,-0.015c0.013,-0.009 0.026,-0.017 0.039,-0.025l0.03,-0.017l0.022,-0.012l0.028,-0.016l0.017,-0.009l0.022,-0.011l0.03,-0.015l0.017,-0.008l0.017,-0.008l0.036,-0.016l0.012,-0.006c0.321,-0.138 0.679,-0.194 1.042,-0.149l0.036,0.005l0.017,0.003l0.026,0.004l0.035,0.006l0.014,0.003c0.15,0.028 0.294,0.074 0.43,0.134l0.027,0.012c0.007,0.003 0.015,0.007 0.023,0.01l0.017,0.009c0.762,-1.328 1.91,-2.453 3.381,-3.189c0.371,-0.185 0.602,-0.301 0.602,-0.301c0.861,-0.43 1.884,-0.181 2.46,0.544c0.097,-0.025 0.196,-0.047 0.295,-0.067c0.45,-0.09 0.747,-0.149 0.747,-0.149c1.039,-0.208 2.06,0.431 2.327,1.456c0,0 2.161,8.283 2.815,10.79c0.166,0.636 0.25,1.291 0.25,1.949l0,0.266c0,0.031 -0.001,0.062 -0.002,0.093c0.001,0.059 0.002,0.119 0.002,0.178c0,1.475 0,3.949 0,5.845c0,2.466 -1.678,4.615 -4.071,5.213c-5.176,1.294 -16.842,4.211 -21.959,5.49c-1.195,0.299 -2.461,0.03 -3.432,-0.728c-0.971,-0.758 -1.538,-1.921 -1.538,-3.153l0,-3.584c0,-1.636 0.996,-3.106 2.514,-3.714c0.925,-0.37 2.155,-0.861 2.947,-1.179l0.408,-1.019c1.003,-2.506 2.89,-4.558 5.305,-5.765c0,0 0,0 0,0c0.218,-0.109 0.394,-0.285 0.503,-0.503c1.103,-2.206 3.784,-7.568 3.784,-7.568l0.014,-0.027l0.011,-0.022Z"/>
        </g>
        <g id="emoji">
            <path d="M17.808,5.819c0.191,1.667 1.915,7.982 1.915,7.982l-2.723,5.199l-5,1l0,-3c0,0 0.802,-2.406 0.97,-2.909c0.02,-0.061 0.044,-0.12 0.073,-0.177c0.446,-0.892 4.207,-8.414 4.207,-8.414l0.558,0.319Z" style="fill:#f10dc3;"/>
            <path d="M17.57,7.86c0.483,1.08 1.838,5.31 1.838,5.31c-0.512,0.224 -1.115,0.227 -1.653,-0.043c-0.169,-0.084 -0.341,-0.17 -0.51,-0.254c-0.964,-0.482 -1.354,-1.654 -0.872,-2.618l1.197,-2.395Z" style="fill:#ff80b7;"/>
            <path d="M17.808,5.819l0.903,0.516c2.115,1.208 2.894,3.873 1.764,6.031l-0.752,1.435l-1.357,-2.715c-0.818,-1.636 -1.012,-3.507 -0.558,-5.267Z" style="fill:#640082;"/>
            <path d="M26,2.5c0,0 -0.297,0.059 -0.747,0.149c-1.095,0.219 -2.049,0.887 -2.631,1.84c-0.581,0.954 -0.737,2.107 -0.43,3.182c0.837,2.93 1.808,6.329 1.808,6.329l0,1l5,0l0,-0.266c0,-0.487 -0.062,-0.973 -0.185,-1.444c-0.654,-2.507 -2.815,-10.79 -2.815,-10.79Z" style="fill:#a90eb1;"/>
            <path d="M19.673,5.044c0.563,-1.148 1.493,-2.127 2.725,-2.743c0.371,-0.186 0.602,-0.301 0.602,-0.301c0,0 3.935,7.87 5.432,10.863c0.373,0.748 0.568,1.572 0.568,2.408c0,1.475 0,3.949 0,5.845c0,1.548 -1.054,2.897 -2.556,3.273c-5.176,1.294 -16.842,4.211 -21.959,5.49c-0.597,0.149 -1.23,0.015 -1.716,-0.364c-0.485,-0.379 -0.769,-0.961 -0.769,-1.577c0,-1.202 0,-2.587 0,-3.584c0,-0.818 0.498,-1.553 1.257,-1.857c0.925,-0.37 2.154,-0.862 2.947,-1.179c0.508,-0.203 0.911,-0.606 1.114,-1.114c0.117,-0.293 0.258,-0.645 0.408,-1.019c0.821,-2.052 2.366,-3.731 4.342,-4.719c0,0 0,0 0.001,0c0.604,-0.303 1.094,-0.793 1.397,-1.397c0.261,-0.522 0.534,-1.069 0.534,-1.069l5,3.182c0,0 -0.132,0.251 -0.327,0.625c-0.312,0.594 -0.257,1.315 0.142,1.855c0.398,0.54 1.07,0.805 1.73,0.684c0.001,-0.001 0.003,-0.001 0.005,-0.001c0.84,-0.155 1.45,-0.888 1.45,-1.743c0,-0.432 0,-0.867 0,-1.161c0,-0.24 -0.055,-0.476 -0.162,-0.69l-0.939,-1.893c0.327,-0.039 -0.412,-6.657 -1.226,-7.814Z" style="fill:#f10dc3;"/>
            <path d="M19.673,5.044c1.244,-0.226 2.539,0.38 3.133,1.569c0.29,0.58 0.598,1.194 0.888,1.774c0.721,1.443 0.136,3.198 -1.307,3.919c-0.174,0.088 -0.35,0.175 -0.524,0.263c-0.311,0.155 -0.637,0.25 -0.964,0.289l-1.216,-2.451c-0.871,-1.755 -0.812,-3.73 -0.01,-5.363Z" style="fill:#ff80b7;"/>
        </g>
    </g>
</svg>
