<?xml version="1.0" encoding="UTF-8" standalone="no"?>
<!DOCTYPE svg PUBLIC "-//W3C//DTD SVG 1.1//EN" "http://www.w3.org/Graphics/SVG/1.1/DTD/svg11.dtd">
<svg width="100%" height="100%" viewBox="0 0 32 32" version="1.1" xmlns="http://www.w3.org/2000/svg" xmlns:xlink="http://www.w3.org/1999/xlink" xml:space="preserve" xmlns:serif="http://www.serif.com/" style="fill-rule:evenodd;clip-rule:evenodd;stroke-linejoin:round;stroke-miterlimit:2;">
    <path id="point_left--paw-" serif:id="point_left [paw]" d="M0,0l0,32l32,0l0,-32l-32,0Z" style="fill:none;"/>
    <g id="Layer10">
        <path d="M13.368,8l-8.868,0c-2.484,0 -4.5,2.016 -4.5,4.5c0,2.484 2.016,4.5 4.5,4.5l3.112,0c-0.073,0.321 -0.112,0.656 -0.112,1c0,1.624 0.862,3.047 2.152,3.839c-0.191,0.714 -0.209,1.485 -0.018,2.252c0.384,1.536 1.516,2.688 2.91,3.167c0.022,0.153 0.052,0.306 0.09,0.458c0.603,2.41 3.048,3.877 5.457,3.275c0,0 2.276,-0.569 4.709,-1.178c5.407,-1.351 9.2,-6.211 9.197,-11.785l-0.001,-0.408c0.003,-0.04 0.004,-0.08 0.004,-0.12l0,-1.238c0,-5.596 -3.581,-10.564 -8.889,-12.333c-3.743,-1.248 -7.479,-2.493 -7.479,-2.493c-0.609,-0.203 -1.28,-0.101 -1.801,0.275c-0.522,0.376 -0.831,0.979 -0.831,1.622l0,2.338l0.005,0.28c0.037,0.709 0.16,1.396 0.363,2.049Z"/>
    </g>
    <g id="Layer9">
        <path d="M10,14l0,5l1,1l1,3l1,2l2,2l5,0l0,-13l-10,0Z" style="fill:#640082;"/>
        <path d="M4.5,10c-0.349,0.001 -0.696,0.073 -1.015,0.215c-0.298,0.132 -0.569,0.324 -0.795,0.56c-0.215,0.226 -0.387,0.491 -0.505,0.78c-0.108,0.264 -0.17,0.547 -0.183,0.832c-0.012,0.274 0.021,0.549 0.097,0.812c0.068,0.234 0.17,0.457 0.303,0.661c0.293,0.452 0.732,0.803 1.238,0.988c0.276,0.101 0.567,0.151 0.86,0.152l10,0c0.067,0.001 0.133,0.013 0.195,0.039c0.191,0.081 0.315,0.279 0.304,0.487c-0.003,0.058 -0.016,0.115 -0.038,0.169c-0.024,0.055 -0.058,0.106 -0.099,0.15c-0.044,0.046 -0.098,0.084 -0.156,0.111c-0.065,0.029 -0.135,0.043 -0.206,0.044l-3.999,0c-0.608,0.456 -1.001,1.183 -1.001,2c0,1.252 0.923,2.291 2.125,2.472l4.265,-0.96c0.07,-0.015 0.141,-0.016 0.211,-0.002c0.063,0.013 0.123,0.038 0.176,0.074c0.051,0.034 0.095,0.076 0.13,0.125c0.034,0.047 0.059,0.1 0.075,0.156c0.055,0.201 -0.022,0.42 -0.191,0.542c-0.055,0.039 -0.116,0.065 -0.181,0.081l-4.025,0.905c-0.496,0.593 -0.712,1.407 -0.51,2.213c0.278,1.116 1.268,1.868 2.365,1.894l3.939,-0.985c0.065,-0.015 0.132,-0.02 0.198,-0.009c0.206,0.032 0.373,0.194 0.414,0.398c0.011,0.057 0.012,0.116 0.003,0.173c-0.009,0.06 -0.029,0.117 -0.059,0.17c-0.032,0.056 -0.075,0.105 -0.125,0.145c-0.056,0.045 -0.12,0.075 -0.189,0.093l-3.606,0.902c-0.027,0.276 -0.007,0.561 0.064,0.846c0.335,1.338 1.693,2.153 3.032,1.818c0,0 2.275,-0.569 4.706,-1.178c4.513,-1.129 7.679,-5.185 7.679,-9.838l0,-0.531l0.004,-0.004l0,-1.238c0,-4.735 -3.03,-8.939 -7.521,-10.436c-3.743,-1.247 -7.479,-2.493 -7.479,-2.493l0,2.338c0,0.814 0.165,1.604 0.47,2.329c0.577,0.19 1.921,1.818 1.376,2l-12.346,0Z" style="fill:#f10dc3;"/>
        <path d="M19.71,10c0.117,0 0.234,-0.02 0.344,-0.061c0.202,-0.074 0.378,-0.214 0.495,-0.395c0.053,-0.082 0.094,-0.171 0.121,-0.264c0.031,-0.106 0.044,-0.216 0.039,-0.325c-0.005,-0.114 -0.03,-0.227 -0.073,-0.333c-0.047,-0.115 -0.116,-0.222 -0.202,-0.312c-0.09,-0.094 -0.199,-0.171 -0.318,-0.224c-0.128,-0.057 -0.266,-0.086 -0.406,-0.086l-4.24,0c0.317,0.751 0.784,1.433 1.376,2l2.864,0Z" style="fill:#a90eb1;"/>
    </g>
</svg>
