<?xml version="1.0" encoding="UTF-8" standalone="no"?>
<!DOCTYPE svg PUBLIC "-//W3C//DTD SVG 1.1//EN" "http://www.w3.org/Graphics/SVG/1.1/DTD/svg11.dtd">
<svg width="100%" height="100%" viewBox="0 0 32 32" version="1.1" xmlns="http://www.w3.org/2000/svg" xmlns:xlink="http://www.w3.org/1999/xlink" xml:space="preserve" xmlns:serif="http://www.serif.com/" style="fill-rule:evenodd;clip-rule:evenodd;stroke-linecap:round;stroke-miterlimit:1.5;">
    <rect id="point_up--paw-" serif:id="point_up [paw]" x="0" y="0" width="32" height="32" style="fill:none;"/>
    <clipPath id="_clip1">
        <rect x="0" y="0" width="32" height="32"/>
    </clipPath>
    <g clip-path="url(#_clip1)">
        <g id="Layer10">
            <path d="M23.144,9.502l0.12,0.006l0.119,0.008l0.119,0.012l0.119,0.015l0.119,0.018l0.118,0.021l0.117,0.025l0.116,0.027l0.116,0.031l0.115,0.034l0.114,0.036l0.113,0.04l0.112,0.043l0.111,0.046l0.109,0.048l0.109,0.052l0.106,0.054l0.106,0.057l0.103,0.06l0.102,0.063l0.101,0.065l0.098,0.069l0.097,0.07l0.095,0.073l0.093,0.076l0.09,0.078l0.089,0.081l0.087,0.083l0.084,0.085l0.082,0.087l0.079,0.09l0.078,0.092l0.074,0.093l0.073,0.096l0.069,0.097l0.067,0.1l0.065,0.101l0.061,0.102l0.059,0.105l0.056,0.106l0.053,0.107l0.051,0.109l0.047,0.11l0.045,0.111l0.041,0.112l0.039,0.114l0.035,0.114l0.033,0.115l0.029,0.117l0.026,0.116l0.023,0.118l0.02,0.118l0.017,0.119l0.014,0.119l0.011,0.119l0.007,0.12l0.004,0.119l0.001,0.12l-0.002,0.12l-0.006,0.12l-0.008,0.119l-0.012,0.119l-0.015,0.119l-0.018,0.119l-0.021,0.118l-0.025,0.117l-0.027,0.116l-2,8l-0.031,0.116l-0.034,0.115l-0.036,0.114l-0.04,0.113l-0.043,0.112l-0.046,0.111l-0.048,0.109l-0.052,0.109l-0.054,0.106l-0.057,0.106l-0.06,0.103l-0.063,0.102l-0.065,0.101l-0.069,0.098l-0.07,0.097l-0.073,0.095l-0.076,0.093l-0.078,0.09l-0.081,0.089l-0.083,0.087l-0.085,0.084l-0.087,0.082l-0.09,0.079l-0.092,0.078l-0.093,0.074l-0.096,0.073l-0.097,0.069l-0.1,0.067l-0.101,0.065l-0.102,0.061l-0.105,0.059l-0.106,0.056l-0.107,0.053l-0.109,0.051l-0.11,0.047l-0.111,0.045l-0.112,0.041l-0.114,0.039l-0.114,0.035l-0.115,0.033l-0.117,0.029l-0.116,0.026l-0.118,0.023l-0.118,0.02l-0.119,0.017l-0.119,0.014l-0.119,0.011l-0.12,0.007l-0.119,0.004l-0.12,0.001l-0.12,-0.002l-0.12,-0.006l-0.119,-0.008l-0.119,-0.012l-0.119,-0.015l-0.119,-0.018l-0.118,-0.021l-0.117,-0.025l-0.116,-0.027l-0.116,-0.031l-0.115,-0.034l-0.114,-0.036l-0.113,-0.04l-0.112,-0.043l-0.111,-0.046l-0.109,-0.048l-0.109,-0.052l-0.106,-0.054l-0.106,-0.057l-0.103,-0.06l-0.102,-0.063l-0.101,-0.065l-0.098,-0.069l-0.097,-0.07l-0.095,-0.073l-0.093,-0.076l-0.09,-0.078l-0.089,-0.081l-0.087,-0.083l-0.084,-0.085l-0.082,-0.087l-0.079,-0.09l-0.078,-0.092l-0.074,-0.093l-0.073,-0.096l-0.069,-0.097l-0.067,-0.1l-0.065,-0.101l-0.061,-0.102l-0.059,-0.105l-0.056,-0.106l-0.053,-0.107l-0.051,-0.109l-0.047,-0.11l-0.045,-0.111l-0.041,-0.112l-0.039,-0.114l-0.035,-0.114l-0.033,-0.115l-0.029,-0.117l-0.026,-0.116l-0.023,-0.118l-0.02,-0.118l-0.017,-0.119l-0.014,-0.119l-0.011,-0.119l-0.007,-0.12l-0.004,-0.119l-0.001,-0.12l0.002,-0.12l0.006,-0.12l0.008,-0.119l0.012,-0.119l0.015,-0.119l0.018,-0.119l0.021,-0.118l0.025,-0.117l0.027,-0.116l2,-8l0.031,-0.116l0.034,-0.115l0.036,-0.114l0.04,-0.113l0.043,-0.112l0.046,-0.111l0.048,-0.109l0.052,-0.109l0.054,-0.106l0.057,-0.106l0.06,-0.103l0.063,-0.102l0.065,-0.101l0.069,-0.098l0.07,-0.097l0.073,-0.095l0.076,-0.093l0.078,-0.09l0.081,-0.089l0.083,-0.087l0.085,-0.084l0.087,-0.082l0.09,-0.079l0.092,-0.078l0.093,-0.074l0.096,-0.073l0.097,-0.069l0.1,-0.067l0.101,-0.065l0.102,-0.061l0.105,-0.059l0.106,-0.056l0.107,-0.053l0.109,-0.051l0.11,-0.047l0.111,-0.045l0.112,-0.041l0.114,-0.039l0.114,-0.035l0.115,-0.033l0.117,-0.029l0.116,-0.026l0.118,-0.023l0.118,-0.02l0.119,-0.017l0.119,-0.014l0.119,-0.011l0.12,-0.007l0.119,-0.004l0.12,-0.001l0.12,0.002Z"/>
            <path d="M12.681,0.004l0.181,0.011l0.18,0.018l0.18,0.025l0.178,0.033l0.177,0.04l0.175,0.047l0.173,0.054l0.171,0.06l0.168,0.068l0.165,0.074l0.162,0.081l0.159,0.088l0.155,0.094l0.151,0.1l0.147,0.105l0.143,0.112l0.138,0.118l0.133,0.123l0.128,0.128l0.123,0.133l0.118,0.138l0.111,0.143l0.106,0.147l0.1,0.151l0.094,0.155l0.088,0.159l0.08,0.162l0.075,0.165l0.068,0.168l0.06,0.171l0.054,0.173l0.047,0.175l0.04,0.177l0.033,0.178l0.025,0.18l0.018,0.18l0.011,0.181l0.004,0.181l0,18.5l-0.004,0.181l-0.011,0.181l-0.018,0.18l-0.025,0.18l-0.033,0.178l-0.04,0.177l-0.047,0.175l-0.054,0.173l-0.06,0.171l-0.068,0.168l-0.075,0.165l-0.08,0.162l-0.088,0.159l-0.094,0.155l-0.1,0.151l-0.106,0.147l-0.111,0.143l-0.118,0.138l-0.123,0.133l-0.128,0.128l-0.133,0.123l-0.138,0.118l-0.143,0.111l-0.147,0.106l-0.151,0.1l-0.155,0.094l-0.159,0.088l-0.162,0.081l-0.165,0.074l-0.168,0.068l-0.171,0.06l-0.173,0.054l-0.175,0.047l-0.177,0.04l-0.178,0.033l-0.18,0.025l-0.18,0.018l-0.181,0.011l-0.181,0.004l-0.181,-0.004l-0.181,-0.011l-0.18,-0.018l-0.18,-0.025l-0.178,-0.033l-0.177,-0.04l-0.175,-0.047l-0.173,-0.054l-0.171,-0.06l-0.168,-0.068l-0.165,-0.074l-0.162,-0.081l-0.159,-0.088l-0.155,-0.094l-0.151,-0.1l-0.147,-0.106l-0.143,-0.111l-0.138,-0.118l-0.133,-0.123l-0.128,-0.128l-0.123,-0.133l-0.118,-0.138l-0.112,-0.143l-0.105,-0.147l-0.1,-0.151l-0.094,-0.155l-0.088,-0.159l-0.081,-0.162l-0.074,-0.165l-0.068,-0.168l-0.06,-0.171l-0.054,-0.173l-0.047,-0.175l-0.04,-0.177l-0.033,-0.178l-0.025,-0.18l-0.018,-0.18l-0.011,-0.181l-0.004,-0.181l0,-18.5l0.004,-0.181l0.011,-0.181l0.018,-0.18l0.025,-0.18l0.033,-0.178l0.04,-0.177l0.047,-0.175l0.054,-0.173l0.06,-0.171l0.068,-0.168l0.074,-0.165l0.081,-0.162l0.088,-0.159l0.094,-0.155l0.1,-0.151l0.105,-0.147l0.112,-0.143l0.118,-0.138l0.123,-0.133l0.128,-0.128l0.133,-0.123l0.138,-0.118l0.143,-0.112l0.147,-0.105l0.151,-0.1l0.155,-0.094l0.159,-0.088l0.162,-0.081l0.165,-0.074l0.168,-0.068l0.171,-0.06l0.173,-0.054l0.175,-0.047l0.177,-0.04l0.178,-0.033l0.18,-0.025l0.18,-0.018l0.181,-0.011l0.181,-0.004l0.181,0.004Z"/>
            <path d="M26.698,12.501l0.137,0.004l0.137,0.008l0.137,0.013l0.136,0.017l0.136,0.021l0.135,0.025l0.134,0.029l0.133,0.034l0.132,0.037l0.131,0.041l0.129,0.046l0.128,0.049l0.127,0.053l0.125,0.057l0.123,0.061l0.121,0.064l0.119,0.068l0.117,0.072l0.115,0.075l0.112,0.079l0.11,0.082l0.108,0.086l0.105,0.088l0.102,0.092l0.099,0.095l0.096,0.098l0.093,0.101l0.09,0.103l0.087,0.106l0.084,0.109l0.08,0.112l0.077,0.113l0.073,0.116l0.07,0.119l0.066,0.12l0.062,0.122l0.059,0.124l0.055,0.126l0.051,0.128l0.047,0.129l0.043,0.13l0.039,0.131l0.035,0.133l0.031,0.134l0.027,0.134l0.022,0.136l0.019,0.136l0.015,0.136l0.01,0.137l0.006,0.137l0.002,0.137l-0.002,0.138l-0.007,0.137l-0.01,0.137l-0.015,0.136l-0.019,0.136l-0.023,0.135l-0.027,0.135l-0.031,0.133l-1.18,4.721l-0.029,0.113l-0.034,0.127l-0.035,0.126l-0.036,0.122l-0.037,0.124l-0.039,0.124l-0.039,0.121l-0.042,0.123l-0.042,0.122l-0.044,0.121l-0.044,0.12l-0.046,0.12l-0.047,0.118l-0.049,0.119l-0.049,0.116l-0.05,0.117l-0.053,0.118l-0.053,0.115l-0.054,0.115l-0.055,0.114l-0.056,0.112l-0.058,0.114l-0.059,0.112l-0.059,0.111l-0.062,0.112l-0.061,0.109l-0.063,0.108l-0.065,0.109l-0.064,0.107l-0.067,0.108l-0.068,0.106l-0.067,0.104l-0.069,0.104l-0.07,0.104l-0.073,0.103l-0.072,0.102l-0.073,0.101l-0.074,0.1l-0.075,0.099l-0.076,0.099l-0.078,0.098l-0.077,0.096l-0.08,0.097l-0.08,0.095l-0.081,0.094l-0.082,0.094l-0.083,0.092l-0.083,0.091l-0.084,0.09l-0.087,0.091l-0.086,0.089l-0.086,0.087l-0.089,0.088l-0.088,0.085l-0.09,0.085l-0.091,0.085l-0.092,0.084l-0.092,0.082l-0.093,0.081l-0.093,0.08l-0.095,0.08l-0.096,0.079l-0.096,0.077l-0.097,0.076l-0.098,0.076l-0.098,0.074l-0.099,0.074l-0.101,0.073l-0.1,0.071l-0.102,0.07l-0.102,0.07l-0.103,0.068l-0.105,0.068l-0.104,0.066l-0.104,0.065l-0.108,0.065l-0.105,0.063l-0.106,0.061l-0.11,0.062l-0.108,0.06l-0.109,0.059l-0.11,0.058l-0.11,0.056l-0.111,0.056l-0.112,0.054l-0.113,0.054l-0.112,0.052l-0.114,0.051l-0.113,0.05l-0.115,0.049l-0.116,0.048l-0.115,0.046l-0.117,0.046l-0.117,0.044l-0.118,0.043l-0.118,0.042l-0.118,0.04l-0.119,0.04l-0.119,0.038l-0.121,0.037l-0.12,0.036l-0.122,0.035l-0.121,0.033l-0.122,0.032l-0.123,0.031l-0.123,0.03l-0.123,0.028l-0.124,0.027l-0.124,0.026l-0.124,0.025l-0.126,0.023l-0.125,0.022l-0.125,0.021l-0.126,0.019l-0.128,0.019l-0.126,0.016l-0.127,0.016l-0.128,0.014l-0.127,0.013l-0.128,0.011l-0.129,0.011l-0.128,0.008l-0.129,0.008l-0.129,0.006l-0.13,0.005l-0.129,0.003l-0.13,0.002l-0.118,0.001l-1.043,-0.001l-0.137,-0.002l-0.137,-0.006l-0.137,-0.011l-0.136,-0.015l-0.136,-0.019l-0.135,-0.023l-0.135,-0.027l-0.134,-0.031l-0.132,-0.035l-0.132,-0.039l-0.13,-0.044l-0.129,-0.047l-0.127,-0.051l-0.126,-0.055l-0.124,-0.059l-0.122,-0.062l-0.12,-0.067l-0.118,-0.07l-0.116,-0.073l-0.114,-0.077l-0.111,-0.08l-0.109,-0.084l-0.106,-0.087l-0.104,-0.09l-0.1,-0.094l-0.098,-0.096l-0.095,-0.099l-0.091,-0.103l-0.089,-0.104l-0.085,-0.108l-0.082,-0.11l-0.079,-0.113l-0.075,-0.114l-0.071,-0.118l-0.068,-0.119l-0.065,-0.121l-0.06,-0.123l-0.057,-0.125l-0.053,-0.127l-0.049,-0.128l-0.045,-0.13l-0.041,-0.131l-0.037,-0.132l-0.033,-0.133l-0.029,-0.134l-0.025,-0.135l-0.021,-0.136l-0.017,-0.136l-0.012,-0.137l-0.008,-0.137l-0.005,-0.137l0.001,-0.137l0.004,-0.137l0.008,-0.137l0.013,-0.137l0.017,-0.136l0.021,-0.136l0.025,-0.135l0.029,-0.134l0.033,-0.133l0.037,-0.132l0.042,-0.131l0.045,-0.13l0.049,-0.128l0.053,-0.126l0.057,-0.125l0.061,-0.123l0.064,-0.121l0.068,-0.12l0.072,-0.117l0.075,-0.114l0.079,-0.113l0.082,-0.11l0.085,-0.107l0.089,-0.105l0.092,-0.102l0.095,-0.099l0.097,-0.097l0.101,-0.093l0.104,-0.09l0.106,-0.087l0.109,-0.083l0.111,-0.081l0.114,-0.077l0.116,-0.073l0.118,-0.07l0.12,-0.066l0.123,-0.062l0.124,-0.059l0.125,-0.055l0.128,-0.051l0.129,-0.047l0.13,-0.043l0.132,-0.039l0.132,-0.035l0.134,-0.031l0.135,-0.027l0.135,-0.023l0.136,-0.019l0.136,-0.014l0.137,-0.011l0.137,-0.006l0.137,-0.002l1.019,0.001l0.047,-0.001l0.033,0l0.034,-0.001l0.034,-0.001l0.034,-0.002l0.033,-0.002l0.034,-0.002l0.034,-0.003l0.033,-0.003l0.033,-0.003l0.033,-0.004l0.032,-0.004l0.034,-0.004l0.032,-0.005l0.032,-0.005l0.033,-0.005l0.032,-0.006l0.032,-0.006l0.032,-0.006l0.032,-0.007l0.032,-0.007l0.032,-0.007l0.031,-0.008l0.031,-0.007l0.032,-0.009l0.032,-0.008l0.03,-0.009l0.031,-0.009l0.031,-0.01l0.031,-0.01l0.03,-0.01l0.031,-0.011l0.031,-0.01l0.03,-0.011l0.03,-0.012l0.03,-0.011l0.03,-0.012l0.029,-0.012l0.03,-0.013l0.029,-0.013l0.03,-0.013l0.029,-0.014l0.029,-0.014l0.029,-0.014l0.028,-0.014l0.029,-0.015l0.028,-0.015l0.029,-0.015l0.029,-0.016l0.026,-0.015l0.029,-0.016l0.028,-0.018l0.027,-0.015l0.027,-0.018l0.028,-0.017l0.026,-0.017l0.027,-0.018l0.026,-0.018l0.027,-0.018l0.027,-0.019l0.025,-0.019l0.025,-0.019l0.027,-0.02l0.025,-0.019l0.026,-0.02l0.025,-0.021l0.024,-0.019l0.024,-0.021l0.025,-0.021l0.025,-0.022l0.024,-0.021l0.024,-0.022l0.022,-0.021l0.024,-0.022l0.023,-0.023l0.023,-0.022l0.023,-0.024l0.023,-0.023l0.021,-0.022l0.022,-0.024l0.022,-0.024l0.022,-0.024l0.021,-0.024l0.021,-0.024l0.02,-0.025l0.02,-0.024l0.021,-0.026l0.02,-0.025l0.019,-0.025l0.02,-0.026l0.019,-0.026l0.019,-0.026l0.019,-0.027l0.017,-0.025l0.018,-0.026l0.019,-0.028l0.018,-0.028l0.017,-0.027l0.016,-0.026l0.018,-0.029l0.015,-0.027l0.017,-0.028l0.017,-0.03l0.014,-0.026l0.016,-0.029l0.015,-0.029l0.014,-0.028l0.015,-0.03l0.015,-0.03l0.014,-0.03l0.013,-0.029l0.013,-0.029l0.013,-0.03l0.013,-0.031l0.012,-0.03l0.013,-0.032l0.012,-0.031l0.011,-0.031l0.012,-0.031l0.01,-0.031l0.011,-0.031l0.01,-0.033l0.01,-0.032l0.01,-0.032l0.01,-0.034l0.009,-0.032l0.008,-0.032l0.012,-0.045l1.174,-4.697l0.036,-0.133l0.039,-0.132l0.043,-0.13l0.048,-0.129l0.051,-0.127l0.055,-0.126l0.059,-0.124l0.062,-0.122l0.067,-0.12l0.07,-0.118l0.073,-0.116l0.077,-0.114l0.081,-0.111l0.083,-0.108l0.087,-0.107l0.091,-0.103l0.093,-0.101l0.097,-0.097l0.099,-0.095l0.102,-0.092l0.105,-0.088l0.108,-0.085l0.11,-0.082l0.112,-0.079l0.115,-0.075l0.117,-0.071l0.12,-0.068l0.121,-0.064l0.123,-0.061l0.125,-0.057l0.127,-0.053l0.128,-0.048l0.13,-0.046l0.13,-0.041l0.133,-0.037l0.133,-0.033l0.134,-0.029l0.135,-0.025l0.136,-0.02l0.136,-0.017l0.137,-0.012l0.137,-0.008l0.137,-0.005l0.137,0.001Z"/>
            <path d="M17.5,30l-1.238,0c-4.735,0 -8.939,-3.03 -10.436,-7.521c-1.247,-3.743 -2.493,-7.479 -2.493,-7.479l2.338,0c2.249,0 4.309,1.257 5.336,3.258c1.827,3.553 4.493,8.742 4.493,8.742l5,0l-3,3Z"/>
            <path d="M5.811,13.001l0.14,0.004l0.139,0.006l0.139,0.008l0.139,0.011l0.138,0.014l0.138,0.015l0.137,0.018l0.137,0.021l0.135,0.022l0.136,0.025l0.134,0.027l0.134,0.03l0.134,0.032l0.132,0.033l0.132,0.037l0.131,0.038l0.13,0.041l0.13,0.042l0.128,0.045l0.127,0.047l0.127,0.05l0.126,0.051l0.125,0.053l0.123,0.056l0.123,0.057l0.122,0.06l0.121,0.061l0.119,0.064l0.119,0.065l0.117,0.068l0.116,0.07l0.115,0.071l0.114,0.074l0.112,0.075l0.111,0.077l0.11,0.079l0.109,0.081l0.107,0.083l0.106,0.085l0.104,0.086l0.104,0.089l0.101,0.09l0.101,0.092l0.098,0.094l0.097,0.095l0.096,0.098l0.094,0.099l0.092,0.1l0.091,0.103l0.089,0.104l0.088,0.106l0.085,0.107l0.085,0.109l0.082,0.11l0.08,0.112l0.079,0.114l0.077,0.115l0.075,0.117l0.073,0.119l0.071,0.119l0.069,0.121l0.067,0.123l0.061,0.117l3.939,7.664l6.198,0l0.706,1.704l-5.297,5.296l-2.071,0l-0.126,-0.001l-0.131,-0.002l-0.13,-0.003l-0.13,-0.004l-0.13,-0.006l-0.13,-0.007l-0.13,-0.009l-0.129,-0.009l-0.129,-0.011l-0.128,-0.013l-0.129,-0.013l-0.128,-0.015l-0.127,-0.016l-0.128,-0.017l-0.127,-0.018l-0.127,-0.02l-0.126,-0.021l-0.126,-0.022l-0.126,-0.024l-0.125,-0.024l-0.125,-0.026l-0.124,-0.027l-0.125,-0.028l-0.123,-0.029l-0.124,-0.031l-0.123,-0.032l-0.122,-0.033l-0.122,-0.034l-0.122,-0.035l-0.121,-0.036l-0.121,-0.038l-0.12,-0.039l-0.12,-0.039l-0.12,-0.041l-0.118,-0.042l-0.119,-0.044l-0.118,-0.044l-0.117,-0.046l-0.117,-0.046l-0.116,-0.048l-0.116,-0.049l-0.115,-0.049l-0.115,-0.051l-0.114,-0.052l-0.114,-0.053l-0.113,-0.055l-0.113,-0.055l-0.111,-0.056l-0.112,-0.057l-0.111,-0.059l-0.11,-0.059l-0.109,-0.061l-0.109,-0.061l-0.108,-0.063l-0.108,-0.063l-0.107,-0.065l-0.107,-0.066l-0.105,-0.066l-0.105,-0.068l-0.105,-0.068l-0.104,-0.07l-0.103,-0.071l-0.102,-0.071l-0.102,-0.073l-0.101,-0.073l-0.1,-0.075l-0.099,-0.075l-0.099,-0.077l-0.098,-0.077l-0.098,-0.078l-0.096,-0.08l-0.096,-0.08l-0.095,-0.081l-0.095,-0.082l-0.093,-0.083l-0.093,-0.084l-0.092,-0.085l-0.091,-0.085l-0.091,-0.087l-0.089,-0.087l-0.089,-0.089l-0.088,-0.089l-0.087,-0.09l-0.087,-0.091l-0.085,-0.092l-0.085,-0.093l-0.084,-0.093l-0.083,-0.095l-0.081,-0.095l-0.081,-0.096l-0.081,-0.097l-0.079,-0.098l-0.078,-0.098l-0.078,-0.1l-0.077,-0.1l-0.076,-0.102l-0.074,-0.101l-0.074,-0.103l-0.073,-0.104l-0.072,-0.104l-0.07,-0.105l-0.071,-0.106l-0.069,-0.106l-0.068,-0.108l-0.066,-0.108l-0.067,-0.109l-0.064,-0.109l-0.064,-0.111l-0.063,-0.111l-0.062,-0.112l-0.061,-0.112l-0.06,-0.114l-0.059,-0.114l-0.057,-0.114l-0.057,-0.116l-0.056,-0.116l-0.054,-0.116l-0.053,-0.118l-0.053,-0.118l-0.051,-0.119l-0.05,-0.12l-0.049,-0.12l-0.047,-0.12l-0.047,-0.122l-0.046,-0.122l-0.044,-0.123l-0.043,-0.123l-0.041,-0.119l-3.208,-9.624l0.355,-0.492l4.602,0l0.132,0.001Zm1.911,8.84l0.031,0.091l0.03,0.086l0.03,0.085l0.032,0.084l0.032,0.084l0.034,0.085l0.033,0.083l0.035,0.082l0.036,0.083l0.036,0.082l0.037,0.081l0.037,0.081l0.039,0.08l0.039,0.08l0.04,0.08l0.041,0.079l0.041,0.078l0.042,0.077l0.043,0.078l0.043,0.077l0.044,0.076l0.045,0.076l0.046,0.075l0.046,0.075l0.048,0.074l0.047,0.074l0.048,0.073l0.049,0.073l0.05,0.072l0.051,0.071l0.051,0.071l0.052,0.071l0.052,0.07l0.053,0.069l0.053,0.069l0.055,0.068l0.055,0.068l0.055,0.067l0.056,0.066l0.057,0.067l0.057,0.065l0.058,0.064l0.059,0.065l0.059,0.063l0.06,0.063l0.06,0.063l0.061,0.062l0.061,0.061l0.063,0.06l0.062,0.06l0.063,0.06l0.064,0.059l0.064,0.057l0.065,0.058l0.066,0.057l0.066,0.056l0.066,0.056l0.067,0.055l0.067,0.054l0.068,0.053l0.069,0.053l0.069,0.053l0.069,0.051l0.07,0.051l0.071,0.05l0.071,0.05l0.071,0.049l0.072,0.048l0.072,0.048l0.073,0.047l0.074,0.046l0.073,0.045l0.074,0.045l0.075,0.044l0.075,0.043l0.075,0.043l0.076,0.042l0.077,0.041l0.076,0.04l0.077,0.04l0.078,0.039l0.078,0.038l0.078,0.038l0.079,0.037l0.079,0.036l0.079,0.035l0.08,0.034l0.08,0.034l0.081,0.033l0.08,0.032l0.082,0.032l0.081,0.031l0.082,0.029l0.082,0.03l0.083,0.028l0.083,0.027l0.083,0.027l0.002,0.001l-4.319,-8.404l-0.036,-0.07l-0.034,-0.061l-0.035,-0.061l-0.035,-0.06l-0.037,-0.059l-0.037,-0.058l-0.039,-0.058l-0.039,-0.057l-0.04,-0.056l-0.041,-0.055l-0.042,-0.054l-0.043,-0.054l-0.044,-0.053l-0.044,-0.052l-0.045,-0.051l-0.047,-0.05l-0.047,-0.049l-0.047,-0.049l-0.049,-0.048l-0.049,-0.047l-0.05,-0.046l-0.051,-0.045l-0.051,-0.044l-0.053,-0.043l-0.053,-0.043l-0.053,-0.041l-0.055,-0.04l-0.055,-0.04l-0.056,-0.039l-0.056,-0.038l-0.057,-0.036l-0.057,-0.036l-0.058,-0.035l-0.059,-0.034l-0.059,-0.033l-0.06,-0.031l-0.06,-0.031l-0.061,-0.03l-0.062,-0.029l-0.061,-0.027l-0.063,-0.027l-0.063,-0.026l-0.063,-0.024l-0.064,-0.024l-0.064,-0.022l-0.065,-0.022l-0.065,-0.02l-0.065,-0.019l-0.066,-0.018l-0.066,-0.017l-0.067,-0.016l-0.067,-0.015l-0.067,-0.013l-0.067,-0.013l-0.069,-0.011l-0.068,-0.01l-0.068,-0.009l-0.041,-0.005l1.605,4.816Z"/>
            <path d="M10,4.5c0,-0.663 0.263,-1.299 0.732,-1.768c0.469,-0.469 1.105,-0.732 1.768,-0.732c0.663,0 1.299,0.263 1.768,0.732c0.469,0.469 0.732,1.105 0.732,1.768c0,4.945 0,15.5 0,15.5l-5,0l0,-15.5Z" style="stroke:#000;stroke-width:2px;"/>
            <path d="M18.195,7.504l0.129,0.008l0.129,0.011l0.129,0.015l0.128,0.018l0.128,0.023l0.127,0.026l0.126,0.029l0.126,0.034l0.124,0.037l0.123,0.04l0.122,0.044l0.121,0.047l0.119,0.051l0.118,0.055l0.116,0.057l0.115,0.061l0.112,0.065l0.111,0.067l0.109,0.071l0.106,0.074l0.105,0.077l0.102,0.079l0.1,0.083l0.098,0.086l0.094,0.088l0.093,0.091l0.09,0.094l0.087,0.096l0.084,0.099l0.081,0.101l0.078,0.103l0.076,0.106l0.072,0.107l0.069,0.11l0.066,0.112l0.063,0.113l0.059,0.116l0.056,0.117l0.053,0.118l0.049,0.12l0.046,0.121l0.042,0.123l0.038,0.124l0.035,0.125l0.032,0.126l0.028,0.126l0.024,0.128l0.02,0.128l0.017,0.128l0.013,0.129l0.01,0.13l0.005,0.129l0.002,0.13l0,9.496l-0.002,0.13l-0.005,0.129l-0.01,0.13l-0.013,0.129l-0.017,0.128l-0.02,0.128l-0.024,0.128l-0.028,0.126l-0.032,0.126l-0.035,0.125l-0.038,0.124l-0.042,0.123l-0.046,0.121l-0.049,0.12l-0.053,0.118l-0.056,0.117l-0.059,0.116l-0.063,0.113l-0.066,0.112l-0.069,0.11l-0.072,0.107l-0.076,0.106l-0.078,0.103l-0.081,0.101l-0.084,0.099l-0.087,0.096l-0.09,0.094l-0.093,0.091l-0.094,0.088l-0.098,0.086l-0.1,0.083l-0.102,0.08l-0.105,0.076l-0.106,0.074l-0.109,0.071l-0.111,0.067l-0.112,0.065l-0.115,0.061l-0.116,0.057l-0.118,0.055l-0.119,0.051l-0.121,0.047l-0.122,0.044l-0.123,0.041l-0.124,0.036l-0.126,0.034l-0.126,0.029l-0.127,0.026l-0.128,0.023l-0.128,0.018l-0.129,0.015l-0.129,0.011l-0.129,0.008l-0.13,0.004l-0.13,0l-0.129,-0.004l-0.13,-0.008l-0.129,-0.011l-0.129,-0.015l-0.128,-0.018l-0.128,-0.023l-0.127,-0.026l-0.126,-0.029l-0.126,-0.034l-0.124,-0.036l-0.123,-0.041l-0.122,-0.044l-0.121,-0.047l-0.119,-0.051l-0.118,-0.055l-0.116,-0.057l-0.115,-0.061l-0.112,-0.065l-0.111,-0.067l-0.109,-0.071l-0.106,-0.074l-0.105,-0.076l-0.102,-0.08l-0.1,-0.083l-0.097,-0.086l-0.095,-0.088l-0.093,-0.091l-0.09,-0.094l-0.086,-0.096l-0.085,-0.099l-0.081,-0.101l-0.078,-0.103l-0.076,-0.106l-0.072,-0.107l-0.069,-0.11l-0.066,-0.112l-0.063,-0.113l-0.059,-0.116l-0.056,-0.117l-0.053,-0.118l-0.049,-0.12l-0.045,-0.121l-0.043,-0.123l-0.038,-0.124l-0.035,-0.125l-0.032,-0.126l-0.028,-0.126l-0.024,-0.128l-0.02,-0.128l-0.017,-0.128l-0.013,-0.129l-0.01,-0.13l-0.005,-0.129l-0.002,-0.13l0,-9.496l0.002,-0.13l0.005,-0.129l0.01,-0.13l0.013,-0.129l0.017,-0.128l0.02,-0.128l0.024,-0.128l0.028,-0.126l0.032,-0.126l0.035,-0.125l0.038,-0.124l0.043,-0.123l0.045,-0.121l0.049,-0.12l0.053,-0.118l0.056,-0.117l0.059,-0.116l0.063,-0.113l0.066,-0.112l0.069,-0.11l0.072,-0.107l0.076,-0.106l0.078,-0.103l0.081,-0.101l0.085,-0.099l0.086,-0.096l0.09,-0.094l0.093,-0.091l0.095,-0.088l0.097,-0.086l0.1,-0.083l0.102,-0.079l0.105,-0.077l0.106,-0.074l0.109,-0.071l0.111,-0.067l0.112,-0.065l0.115,-0.061l0.116,-0.057l0.118,-0.055l0.119,-0.051l0.121,-0.047l0.122,-0.044l0.123,-0.04l0.124,-0.037l0.126,-0.034l0.126,-0.029l0.127,-0.026l0.128,-0.023l0.128,-0.018l0.129,-0.015l0.129,-0.011l0.13,-0.008l0.129,-0.004l0.13,0l0.13,0.004Z"/>
        </g>
        <g id="Layer9">
            <path d="M14,10l5,0l1,1l3,1l2,1l2,2l0,5l-13,0l0,-10Z" style="fill:#640082;"/>
            <g id="Layer101" serif:id="Layer10">
                <path d="M23.077,11.501l0.089,0.005l0.089,0.007l0.089,0.011l0.088,0.014l0.087,0.017l0.087,0.02l0.087,0.023l0.085,0.026l0.084,0.029l0.083,0.033l0.082,0.035l0.081,0.038l0.079,0.041l0.078,0.044l0.076,0.046l0.075,0.049l0.072,0.052l0.071,0.055l0.069,0.057l0.067,0.059l0.064,0.062l0.062,0.063l0.06,0.067l0.058,0.068l0.055,0.07l0.053,0.072l0.049,0.074l0.048,0.076l0.044,0.077l0.042,0.079l0.039,0.08l0.036,0.082l0.033,0.083l0.03,0.084l0.027,0.085l0.024,0.086l0.021,0.087l0.018,0.087l0.015,0.088l0.011,0.089l0.009,0.088l0.005,0.089l0.002,0.09l-0.001,0.089l-0.005,0.089l-0.007,0.089l-0.011,0.089l-0.014,0.088l-0.017,0.087l-0.02,0.087l-2,8l-0.023,0.087l-0.026,0.085l-0.029,0.084l-0.033,0.083l-0.035,0.082l-0.038,0.081l-0.041,0.079l-0.044,0.078l-0.046,0.076l-0.049,0.075l-0.052,0.072l-0.055,0.071l-0.057,0.069l-0.059,0.067l-0.062,0.064l-0.063,0.062l-0.067,0.06l-0.068,0.058l-0.07,0.055l-0.072,0.053l-0.074,0.049l-0.076,0.048l-0.077,0.044l-0.079,0.042l-0.08,0.039l-0.082,0.036l-0.083,0.033l-0.084,0.03l-0.085,0.027l-0.086,0.024l-0.087,0.021l-0.087,0.018l-0.088,0.015l-0.089,0.011l-0.088,0.009l-0.089,0.005l-0.09,0.002l-0.089,-0.001l-0.089,-0.005l-0.089,-0.007l-0.089,-0.011l-0.088,-0.014l-0.087,-0.017l-0.087,-0.02l-0.087,-0.023l-0.085,-0.026l-0.084,-0.029l-0.083,-0.033l-0.082,-0.035l-0.081,-0.038l-0.079,-0.041l-0.078,-0.044l-0.076,-0.046l-0.075,-0.049l-0.072,-0.052l-0.071,-0.055l-0.069,-0.057l-0.067,-0.059l-0.064,-0.062l-0.062,-0.063l-0.06,-0.067l-0.058,-0.068l-0.055,-0.07l-0.053,-0.072l-0.049,-0.074l-0.048,-0.076l-0.044,-0.077l-0.042,-0.079l-0.039,-0.08l-0.036,-0.082l-0.033,-0.083l-0.03,-0.084l-0.027,-0.085l-0.024,-0.086l-0.021,-0.087l-0.018,-0.087l-0.015,-0.088l-0.011,-0.089l-0.009,-0.088l-0.005,-0.089l-0.002,-0.09l0.001,-0.089l0.005,-0.089l0.007,-0.089l0.011,-0.089l0.014,-0.088l0.017,-0.087l0.02,-0.087l2,-8l0.023,-0.087l0.026,-0.085l0.029,-0.084l0.033,-0.083l0.035,-0.082l0.038,-0.081l0.041,-0.079l0.044,-0.078l0.046,-0.076l0.049,-0.075l0.052,-0.072l0.055,-0.071l0.057,-0.069l0.059,-0.067l0.062,-0.064l0.063,-0.062l0.067,-0.06l0.068,-0.058l0.07,-0.055l0.072,-0.053l0.074,-0.049l0.076,-0.048l0.077,-0.044l0.079,-0.042l0.08,-0.039l0.082,-0.036l0.083,-0.033l0.084,-0.03l0.085,-0.027l0.086,-0.024l0.087,-0.021l0.087,-0.018l0.088,-0.015l0.089,-0.011l0.088,-0.009l0.089,-0.005l0.09,-0.002l0.089,0.001Z" style="fill:#f10dc3;"/>
                <path d="M18.145,9.504l0.097,0.008l0.096,0.011l0.096,0.015l0.095,0.019l0.095,0.022l0.093,0.026l0.092,0.03l0.091,0.033l0.09,0.036l0.088,0.041l0.087,0.043l0.085,0.047l0.083,0.05l0.081,0.053l0.079,0.057l0.077,0.059l0.074,0.062l0.072,0.066l0.069,0.067l0.066,0.071l0.064,0.073l0.061,0.076l0.058,0.077l0.055,0.08l0.051,0.082l0.049,0.084l0.045,0.086l0.042,0.087l0.038,0.09l0.035,0.09l0.032,0.092l0.027,0.093l0.025,0.093l0.02,0.095l0.017,0.096l0.013,0.096l0.01,0.096l0.005,0.097l0.002,0.097l0,9.496l-0.002,0.097l-0.005,0.097l-0.01,0.096l-0.013,0.096l-0.017,0.096l-0.02,0.095l-0.025,0.093l-0.027,0.093l-0.032,0.092l-0.035,0.091l-0.038,0.089l-0.042,0.087l-0.045,0.086l-0.049,0.084l-0.051,0.082l-0.055,0.08l-0.058,0.078l-0.061,0.075l-0.064,0.073l-0.066,0.071l-0.069,0.067l-0.072,0.066l-0.074,0.062l-0.077,0.059l-0.079,0.057l-0.081,0.053l-0.083,0.05l-0.085,0.047l-0.087,0.043l-0.088,0.041l-0.09,0.036l-0.091,0.033l-0.092,0.03l-0.093,0.026l-0.095,0.022l-0.095,0.019l-0.096,0.015l-0.096,0.011l-0.097,0.008l-0.096,0.004l-0.097,0l-0.097,-0.004l-0.097,-0.008l-0.096,-0.011l-0.096,-0.015l-0.095,-0.019l-0.095,-0.022l-0.093,-0.026l-0.092,-0.03l-0.091,-0.033l-0.09,-0.036l-0.088,-0.041l-0.087,-0.043l-0.085,-0.047l-0.083,-0.05l-0.081,-0.053l-0.079,-0.057l-0.077,-0.059l-0.074,-0.062l-0.072,-0.066l-0.069,-0.067l-0.066,-0.071l-0.064,-0.073l-0.061,-0.075l-0.058,-0.078l-0.055,-0.08l-0.051,-0.082l-0.049,-0.084l-0.045,-0.086l-0.042,-0.087l-0.038,-0.089l-0.035,-0.091l-0.032,-0.092l-0.027,-0.093l-0.025,-0.093l-0.02,-0.095l-0.017,-0.096l-0.013,-0.096l-0.009,-0.096l-0.006,-0.097l-0.002,-0.097l0,-9.496l0.002,-0.097l0.006,-0.097l0.009,-0.096l0.013,-0.096l0.017,-0.096l0.02,-0.095l0.025,-0.093l0.027,-0.093l0.032,-0.092l0.035,-0.09l0.038,-0.09l0.042,-0.087l0.045,-0.086l0.049,-0.084l0.051,-0.082l0.055,-0.08l0.058,-0.077l0.061,-0.076l0.064,-0.073l0.066,-0.071l0.069,-0.067l0.072,-0.066l0.074,-0.062l0.077,-0.059l0.079,-0.057l0.081,-0.053l0.083,-0.05l0.085,-0.047l0.087,-0.043l0.088,-0.041l0.09,-0.036l0.091,-0.033l0.092,-0.03l0.093,-0.026l0.095,-0.022l0.095,-0.019l0.096,-0.015l0.096,-0.011l0.097,-0.008l0.097,-0.004l0.097,0l0.096,0.004Z" style="fill:#f10dc3;"/>
                <path d="M17.5,30l-1.238,0c-4.735,0 -8.939,-3.03 -10.436,-7.521c-1.247,-3.743 -2.493,-7.479 -2.493,-7.479l2.338,0c2.249,0 4.309,1.257 5.336,3.258c1.827,3.553 4.493,8.742 4.493,8.742l5,0l-3,3Z" style="fill:#f10dc3;"/>
                <clipPath id="_clip2">
                    <path d="M17.5,30l-1.238,0c-4.735,0 -8.939,-3.03 -10.436,-7.521c-1.247,-3.743 -2.493,-7.479 -2.493,-7.479l2.338,0c2.249,0 4.309,1.257 5.336,3.258c1.827,3.553 4.493,8.742 4.493,8.742l5,0l-3,3Z"/>
                </clipPath>
                <g clip-path="url(#_clip2)">
                    <path d="M10,14l-2,0l0,5.71c0,0.552 0.448,1 1,1c0.552,0 1,-0.448 1,-1c0,-1.87 0,-5.71 0,-5.71Z" style="fill:#a90eb1;"/>
                </g>
                <path d="M26.678,14.504l0.102,0.005l0.101,0.008l0.101,0.013l0.101,0.016l0.1,0.021l0.099,0.025l0.098,0.028l0.096,0.033l0.096,0.037l0.093,0.04l0.092,0.045l0.09,0.048l0.088,0.051l0.086,0.055l0.083,0.059l0.081,0.062l0.079,0.065l0.075,0.069l0.073,0.071l0.07,0.074l0.067,0.077l0.063,0.08l0.06,0.083l0.057,0.084l0.054,0.087l0.049,0.089l0.047,0.091l0.042,0.093l0.038,0.094l0.035,0.096l0.031,0.098l0.026,0.098l0.023,0.099l0.019,0.101l0.014,0.101l0.01,0.101l0.007,0.102l0.002,0.102l-0.002,0.102l-0.007,0.102l-0.01,0.101l-0.015,0.101l-0.018,0.1l-0.023,0.1l-1.179,4.712l-0.026,0.099l-0.028,0.105l-0.029,0.104l-0.03,0.104l-0.031,0.104l-0.032,0.102l-0.034,0.103l-0.034,0.102l-0.035,0.1l-0.037,0.102l-0.037,0.1l-0.038,0.1l-0.04,0.1l-0.04,0.098l-0.041,0.097l-0.042,0.098l-0.044,0.098l-0.044,0.096l-0.046,0.096l-0.045,0.095l-0.048,0.095l-0.048,0.094l-0.048,0.093l-0.051,0.094l-0.05,0.091l-0.052,0.091l-0.052,0.092l-0.054,0.09l-0.054,0.09l-0.055,0.089l-0.057,0.088l-0.057,0.088l-0.058,0.087l-0.058,0.086l-0.059,0.086l-0.061,0.085l-0.061,0.085l-0.062,0.084l-0.063,0.082l-0.063,0.082l-0.065,0.083l-0.066,0.08l-0.065,0.08l-0.067,0.08l-0.068,0.078l-0.068,0.078l-0.069,0.077l-0.07,0.077l-0.071,0.076l-0.071,0.074l-0.072,0.075l-0.073,0.073l-0.073,0.072l-0.074,0.073l-0.075,0.071l-0.076,0.07l-0.076,0.069l-0.077,0.069l-0.078,0.068l-0.078,0.067l-0.08,0.067l-0.079,0.065l-0.081,0.065l-0.081,0.064l-0.081,0.063l-0.082,0.062l-0.084,0.062l-0.083,0.06l-0.084,0.06l-0.085,0.059l-0.085,0.058l-0.087,0.057l-0.086,0.056l-0.087,0.056l-0.088,0.054l-0.088,0.054l-0.089,0.053l-0.089,0.052l-0.091,0.051l-0.09,0.05l-0.091,0.049l-0.092,0.048l-0.092,0.048l-0.093,0.046l-0.093,0.046l-0.094,0.044l-0.094,0.044l-0.095,0.042l-0.095,0.042l-0.096,0.041l-0.096,0.04l-0.096,0.039l-0.098,0.038l-0.098,0.037l-0.098,0.036l-0.098,0.035l-0.099,0.033l-0.099,0.033l-0.1,0.032l-0.1,0.031l-0.101,0.03l-0.101,0.029l-0.101,0.028l-0.102,0.027l-0.103,0.026l-0.102,0.025l-0.103,0.023l-0.103,0.023l-0.104,0.022l-0.104,0.02l-0.104,0.02l-0.104,0.018l-0.106,0.018l-0.105,0.016l-0.105,0.015l-0.106,0.014l-0.106,0.013l-0.106,0.012l-0.107,0.011l-0.107,0.009l-0.107,0.009l-0.108,0.007l-0.107,0.007l-0.108,0.005l-0.108,0.004l-0.108,0.003l-0.109,0.002l-0.102,0l-1.042,0l-0.102,-0.002l-0.102,-0.006l-0.101,-0.011l-0.101,-0.014l-0.1,-0.019l-0.1,-0.022l-0.098,-0.027l-0.098,-0.031l-0.096,-0.035l-0.094,-0.038l-0.093,-0.043l-0.091,-0.046l-0.089,-0.049l-0.087,-0.054l-0.084,-0.057l-0.083,-0.06l-0.079,-0.064l-0.077,-0.066l-0.075,-0.07l-0.071,-0.073l-0.068,-0.076l-0.066,-0.078l-0.062,-0.081l-0.058,-0.084l-0.055,-0.086l-0.052,-0.088l-0.048,-0.09l-0.044,-0.091l-0.041,-0.094l-0.036,-0.095l-0.033,-0.097l-0.029,-0.098l-0.024,-0.099l-0.021,-0.1l-0.017,-0.1l-0.012,-0.101l-0.008,-0.102l-0.005,-0.102l0,-0.102l0.005,-0.102l0.008,-0.102l0.012,-0.101l0.017,-0.1l0.021,-0.1l0.024,-0.099l0.029,-0.098l0.033,-0.097l0.036,-0.095l0.041,-0.093l0.044,-0.092l0.048,-0.09l0.052,-0.088l0.055,-0.086l0.058,-0.084l0.062,-0.081l0.066,-0.078l0.068,-0.076l0.071,-0.073l0.075,-0.07l0.077,-0.066l0.079,-0.064l0.083,-0.06l0.084,-0.057l0.087,-0.053l0.089,-0.05l0.091,-0.046l0.093,-0.043l0.094,-0.038l0.096,-0.035l0.098,-0.031l0.098,-0.026l0.1,-0.023l0.1,-0.019l0.101,-0.014l0.101,-0.011l0.102,-0.006l0.102,-0.002l1.029,0l0.062,0l0.055,-0.001l0.055,-0.002l0.056,-0.002l0.054,-0.002l0.055,-0.003l0.055,-0.004l0.054,-0.005l0.054,-0.004l0.054,-0.006l0.054,-0.006l0.054,-0.007l0.054,-0.007l0.053,-0.007l0.054,-0.009l0.052,-0.008l0.053,-0.01l0.053,-0.01l0.053,-0.01l0.052,-0.011l0.052,-0.011l0.052,-0.012l0.052,-0.013l0.052,-0.013l0.051,-0.014l0.052,-0.014l0.051,-0.014l0.05,-0.015l0.051,-0.016l0.05,-0.016l0.051,-0.017l0.05,-0.017l0.05,-0.018l0.049,-0.018l0.05,-0.019l0.048,-0.019l0.05,-0.019l0.049,-0.021l0.048,-0.02l0.048,-0.021l0.048,-0.022l0.048,-0.022l0.047,-0.023l0.048,-0.023l0.047,-0.024l0.046,-0.023l0.047,-0.025l0.046,-0.025l0.046,-0.025l0.046,-0.026l0.045,-0.026l0.046,-0.027l0.044,-0.028l0.045,-0.027l0.044,-0.028l0.044,-0.029l0.043,-0.029l0.044,-0.029l0.043,-0.03l0.043,-0.031l0.043,-0.031l0.042,-0.031l0.041,-0.031l0.042,-0.033l0.041,-0.032l0.041,-0.033l0.041,-0.033l0.039,-0.034l0.04,-0.034l0.04,-0.034l0.039,-0.035l0.039,-0.036l0.038,-0.035l0.038,-0.037l0.038,-0.036l0.037,-0.037l0.037,-0.037l0.037,-0.038l0.036,-0.038l0.036,-0.038l0.035,-0.039l0.035,-0.039l0.035,-0.04l0.034,-0.04l0.034,-0.04l0.034,-0.041l0.033,-0.041l0.032,-0.04l0.032,-0.042l0.032,-0.043l0.032,-0.042l0.031,-0.043l0.03,-0.042l0.03,-0.044l0.03,-0.044l0.029,-0.044l0.029,-0.044l0.028,-0.045l0.028,-0.045l0.028,-0.045l0.026,-0.045l0.027,-0.046l0.026,-0.047l0.026,-0.047l0.025,-0.046l0.025,-0.048l0.024,-0.048l0.024,-0.047l0.024,-0.049l0.022,-0.048l0.023,-0.049l0.021,-0.048l0.022,-0.05l0.021,-0.05l0.02,-0.05l0.02,-0.05l0.02,-0.051l0.019,-0.05l0.018,-0.051l0.018,-0.052l0.017,-0.052l0.017,-0.051l0.017,-0.053l0.016,-0.053l0.015,-0.052l0.015,-0.053l0.014,-0.054l0.015,-0.06l1.176,-4.7l0.027,-0.098l0.031,-0.098l0.035,-0.096l0.038,-0.094l0.043,-0.093l0.046,-0.091l0.05,-0.089l0.053,-0.087l0.057,-0.084l0.06,-0.082l0.064,-0.08l0.067,-0.077l0.07,-0.074l0.073,-0.072l0.075,-0.068l0.079,-0.065l0.081,-0.062l0.083,-0.059l0.086,-0.055l0.088,-0.051l0.09,-0.048l0.092,-0.045l0.094,-0.04l0.095,-0.037l0.097,-0.032l0.097,-0.029l0.099,-0.025l0.1,-0.02l0.101,-0.017l0.101,-0.012l0.102,-0.008l0.102,-0.005l0.102,0Z" style="fill:#f10dc3;"/>
                <path d="M22,13l-11,0l0,11l2,3l9,-2l0,-12Z" style="fill:#f10dc3;"/>
                <path d="M10,4.5c0,-1.381 1.119,-2.5 2.5,-2.5c1.381,0 2.5,1.119 2.5,2.5c0,5.567 0,18.5 0,18.5l-5,0l0,-18.5Z" style="fill:#f10dc3;"/>
            </g>
            <path d="M14,10l5,0l1,1l3,1l2,1l2,2l0,5l-13,0l0,-10Z" style="fill:none;"/>
            <clipPath id="_clip3">
                <path d="M14,10l5,0l1,1l3,1l2,1l2,2l0,5l-13,0l0,-10Z"/>
            </clipPath>
            <g clip-path="url(#_clip3)">
                <path d="M15.5,5l0,9.5" style="fill:none;stroke:#640082;stroke-width:1px;"/>
                <path d="M20,16l1.125,-5" style="fill:none;stroke:#640082;stroke-width:1px;"/>
                <path d="M25,18l1.25,-5" style="fill:none;stroke:#640082;stroke-width:1px;"/>
            </g>
        </g>
    </g>
</svg>
