<?xml version="1.0" encoding="UTF-8" standalone="no"?><!DOCTYPE svg PUBLIC "-//W3C//DTD SVG 1.1//EN" "http://www.w3.org/Graphics/SVG/1.1/DTD/svg11.dtd"><svg width="100%" height="100%" viewBox="0 0 32 32" version="1.1" xmlns="http://www.w3.org/2000/svg" xmlns:xlink="http://www.w3.org/1999/xlink" xml:space="preserve" xmlns:serif="http://www.serif.com/" style="fill-rule:evenodd;clip-rule:evenodd;stroke-linecap:round;stroke-miterlimit:1.5;"><rect id="point_down--paw-" serif:id="point_down [paw]" x="0" y="0" width="32" height="32" style="fill:none;"/><g id="Layer10"><path d="M11.144,5.502l0.12,0.006l0.119,0.008l0.119,0.012l0.119,0.015l0.119,0.018l0.118,0.021l0.117,0.025l0.116,0.027l0.116,0.031l0.115,0.034l0.114,0.036l0.113,0.04l0.112,0.043l0.111,0.046l0.109,0.048l0.109,0.052l0.106,0.054l0.106,0.057l0.103,0.06l0.102,0.063l0.101,0.065l0.098,0.069l0.097,0.07l0.095,0.073l0.093,0.076l0.09,0.078l0.089,0.081l0.087,0.083l0.084,0.085l0.082,0.087l0.079,0.09l0.078,0.092l0.074,0.093l0.073,0.096l0.069,0.097l0.067,0.1l0.065,0.101l0.061,0.102l0.059,0.105l0.056,0.106l0.053,0.107l0.051,0.109l0.047,0.11l0.045,0.111l0.041,0.112l0.039,0.114l0.035,0.114l0.033,0.115l0.029,0.117l0.026,0.116l0.023,0.118l0.02,0.118l0.017,0.119l0.014,0.119l0.011,0.119l0.007,0.12l0.004,0.119l0.001,0.12l-0.002,0.12l-0.006,0.12l-0.008,0.119l-0.012,0.119l-0.015,0.119l-0.018,0.119l-0.021,0.118l-0.025,0.117l-0.027,0.116l-2,8l-0.031,0.116l-0.034,0.115l-0.036,0.114l-0.04,0.113l-0.043,0.112l-0.046,0.111l-0.048,0.109l-0.052,0.109l-0.054,0.106l-0.057,0.106l-0.06,0.103l-0.063,0.102l-0.065,0.101l-0.069,0.098l-0.07,0.097l-0.073,0.095l-0.076,0.093l-0.078,0.09l-0.081,0.089l-0.083,0.087l-0.085,0.084l-0.087,0.082l-0.09,0.079l-0.092,0.078l-0.093,0.074l-0.096,0.073l-0.097,0.069l-0.1,0.067l-0.101,0.065l-0.102,0.061l-0.105,0.059l-0.106,0.056l-0.107,0.053l-0.109,0.051l-0.11,0.047l-0.111,0.045l-0.112,0.041l-0.114,0.039l-0.114,0.035l-0.115,0.033l-0.117,0.029l-0.116,0.026l-0.118,0.023l-0.118,0.02l-0.119,0.017l-0.119,0.014l-0.119,0.011l-0.12,0.007l-0.119,0.004l-0.12,0.001l-0.12,-0.002l-0.12,-0.006l-0.119,-0.008l-0.119,-0.012l-0.119,-0.015l-0.119,-0.018l-0.118,-0.021l-0.117,-0.025l-0.116,-0.027l-0.116,-0.031l-0.115,-0.034l-0.114,-0.036l-0.113,-0.04l-0.112,-0.043l-0.111,-0.046l-0.109,-0.048l-0.109,-0.052l-0.106,-0.054l-0.106,-0.057l-0.103,-0.06l-0.102,-0.063l-0.101,-0.065l-0.098,-0.069l-0.097,-0.07l-0.095,-0.073l-0.093,-0.076l-0.09,-0.078l-0.089,-0.081l-0.087,-0.083l-0.084,-0.085l-0.082,-0.087l-0.079,-0.09l-0.078,-0.092l-0.074,-0.093l-0.073,-0.096l-0.069,-0.097l-0.067,-0.1l-0.065,-0.101l-0.061,-0.102l-0.059,-0.105l-0.056,-0.106l-0.053,-0.107l-0.051,-0.109l-0.047,-0.11l-0.045,-0.111l-0.041,-0.112l-0.039,-0.114l-0.035,-0.114l-0.033,-0.115l-0.029,-0.117l-0.026,-0.116l-0.023,-0.118l-0.02,-0.118l-0.017,-0.119l-0.014,-0.119l-0.011,-0.119l-0.007,-0.12l-0.004,-0.119l-0.001,-0.12l0.002,-0.12l0.006,-0.12l0.008,-0.119l0.012,-0.119l0.015,-0.119l0.018,-0.119l0.021,-0.118l0.025,-0.117l0.027,-0.116l2,-8l0.031,-0.116l0.034,-0.115l0.036,-0.114l0.04,-0.113l0.043,-0.112l0.046,-0.111l0.048,-0.109l0.052,-0.109l0.054,-0.106l0.057,-0.106l0.06,-0.103l0.063,-0.102l0.065,-0.101l0.069,-0.098l0.07,-0.097l0.073,-0.095l0.076,-0.093l0.078,-0.09l0.081,-0.089l0.083,-0.087l0.085,-0.084l0.087,-0.082l0.09,-0.079l0.092,-0.078l0.093,-0.074l0.096,-0.073l0.097,-0.069l0.1,-0.067l0.101,-0.065l0.102,-0.061l0.105,-0.059l0.106,-0.056l0.107,-0.053l0.109,-0.051l0.11,-0.047l0.111,-0.045l0.112,-0.041l0.114,-0.039l0.114,-0.035l0.115,-0.033l0.117,-0.029l0.116,-0.026l0.118,-0.023l0.118,-0.02l0.119,-0.017l0.119,-0.014l0.119,-0.011l0.12,-0.007l0.119,-0.004l0.12,-0.001l0.12,0.002Z"/><path d="M19.681,4.504l0.181,0.011l0.18,0.018l0.18,0.025l0.178,0.033l0.177,0.04l0.175,0.047l0.173,0.054l0.171,0.06l0.168,0.068l0.165,0.074l0.162,0.081l0.159,0.088l0.155,0.094l0.151,0.1l0.147,0.106l0.143,0.111l0.138,0.118l0.133,0.123l0.128,0.128l0.123,0.133l0.118,0.138l0.112,0.143l0.105,0.147l0.1,0.151l0.094,0.155l0.088,0.159l0.081,0.162l0.074,0.165l0.068,0.168l0.06,0.171l0.054,0.173l0.047,0.175l0.04,0.177l0.033,0.178l0.025,0.18l0.018,0.18l0.011,0.181l0.004,0.181l0,18.5l-0.004,0.181l-0.011,0.181l-0.018,0.18l-0.025,0.18l-0.033,0.178l-0.04,0.177l-0.047,0.175l-0.054,0.173l-0.06,0.171l-0.068,0.168l-0.074,0.165l-0.081,0.162l-0.088,0.159l-0.094,0.155l-0.1,0.151l-0.105,0.147l-0.112,0.143l-0.118,0.138l-0.123,0.133l-0.128,0.128l-0.133,0.123l-0.138,0.118l-0.143,0.111l-0.147,0.106l-0.151,0.1l-0.155,0.094l-0.159,0.088l-0.162,0.081l-0.165,0.074l-0.168,0.068l-0.171,0.06l-0.173,0.054l-0.175,0.047l-0.177,0.04l-0.178,0.033l-0.18,0.025l-0.18,0.018l-0.181,0.011l-0.181,0.004l-0.181,-0.004l-0.181,-0.011l-0.18,-0.018l-0.18,-0.025l-0.178,-0.033l-0.177,-0.04l-0.175,-0.047l-0.173,-0.054l-0.171,-0.06l-0.168,-0.068l-0.165,-0.074l-0.162,-0.081l-0.159,-0.088l-0.155,-0.094l-0.151,-0.1l-0.147,-0.106l-0.143,-0.111l-0.138,-0.118l-0.133,-0.123l-0.128,-0.128l-0.123,-0.133l-0.118,-0.138l-0.111,-0.143l-0.106,-0.147l-0.1,-0.151l-0.094,-0.155l-0.088,-0.159l-0.081,-0.162l-0.074,-0.165l-0.068,-0.168l-0.06,-0.171l-0.054,-0.173l-0.047,-0.175l-0.04,-0.177l-0.033,-0.178l-0.025,-0.18l-0.018,-0.18l-0.011,-0.181l-0.004,-0.181l0,-18.5l0.004,-0.181l0.011,-0.181l0.018,-0.18l0.025,-0.18l0.033,-0.178l0.04,-0.177l0.047,-0.175l0.054,-0.173l0.06,-0.171l0.068,-0.168l0.074,-0.165l0.081,-0.162l0.088,-0.159l0.094,-0.155l0.1,-0.151l0.106,-0.147l0.111,-0.143l0.118,-0.138l0.123,-0.133l0.128,-0.128l0.133,-0.123l0.138,-0.118l0.143,-0.111l0.147,-0.106l0.151,-0.1l0.155,-0.094l0.159,-0.088l0.162,-0.081l0.165,-0.074l0.168,-0.068l0.171,-0.06l0.173,-0.054l0.175,-0.047l0.177,-0.04l0.178,-0.033l0.18,-0.025l0.18,-0.018l0.181,-0.011l0.181,-0.004l0.181,0.004Z"/><path d="M15.003,0.004l0.137,0.002l0.137,0.006l0.137,0.011l0.136,0.015l0.136,0.019l0.135,0.023l0.135,0.027l0.134,0.031l0.132,0.035l0.132,0.039l0.13,0.044l0.129,0.047l0.127,0.051l0.126,0.055l0.124,0.059l0.122,0.062l0.12,0.067l0.118,0.07l0.116,0.073l0.114,0.077l0.111,0.08l0.109,0.084l0.106,0.087l0.104,0.09l0.1,0.094l0.098,0.096l0.095,0.099l0.091,0.103l0.089,0.104l0.085,0.108l0.082,0.11l0.079,0.113l0.075,0.114l0.071,0.118l0.068,0.119l0.065,0.121l0.06,0.123l0.057,0.125l0.053,0.127l0.049,0.128l0.045,0.13l0.041,0.131l0.037,0.132l0.033,0.133l0.029,0.134l0.025,0.135l0.021,0.136l0.017,0.136l0.012,0.137l0.008,0.137l0.005,0.137l-0.001,0.137l-0.004,0.137l-0.008,0.137l-0.013,0.137l-0.017,0.136l-0.021,0.136l-0.025,0.135l-0.029,0.134l-0.033,0.133l-0.037,0.132l-0.042,0.131l-0.045,0.13l-0.049,0.128l-0.053,0.126l-0.057,0.125l-0.061,0.123l-0.064,0.121l-0.068,0.12l-0.072,0.117l-0.075,0.114l-0.079,0.113l-0.082,0.11l-0.085,0.107l-0.089,0.105l-0.092,0.102l-0.095,0.099l-0.097,0.097l-0.101,0.093l-0.104,0.09l-0.106,0.087l-0.109,0.083l-0.111,0.081l-0.114,0.077l-0.116,0.073l-0.118,0.07l-0.12,0.066l-0.122,0.062l-0.125,0.059l-0.125,0.055l-0.128,0.051l-0.129,0.047l-0.13,0.043l-0.132,0.039l-0.132,0.035l-0.134,0.031l-0.135,0.027l-0.135,0.023l-0.136,0.019l-0.136,0.014l-0.137,0.011l-0.137,0.006l-0.137,0.002l-1.019,-0.001l-0.047,0.001l-0.034,0l-0.033,0.001l-0.034,0.001l-0.034,0.002l-0.033,0.002l-0.034,0.002l-0.034,0.003l-0.033,0.003l-0.033,0.003l-0.032,0.004l-0.033,0.004l-0.033,0.004l-0.033,0.005l-0.033,0.005l-0.032,0.005l-0.032,0.006l-0.032,0.006l-0.032,0.006l-0.032,0.007l-0.032,0.007l-0.031,0.007l-0.032,0.008l-0.032,0.008l-0.031,0.008l-0.031,0.008l-0.031,0.009l-0.032,0.01l-0.03,0.009l-0.03,0.01l-0.032,0.01l-0.03,0.011l-0.03,0.01l-0.031,0.011l-0.03,0.012l-0.029,0.011l-0.03,0.012l-0.031,0.013l-0.029,0.012l-0.029,0.013l-0.03,0.013l-0.029,0.014l-0.029,0.014l-0.028,0.014l-0.029,0.014l-0.03,0.015l-0.027,0.015l-0.029,0.015l-0.029,0.016l-0.027,0.015l-0.028,0.016l-0.027,0.017l-0.028,0.016l-0.027,0.018l-0.028,0.017l-0.026,0.017l-0.027,0.018l-0.026,0.018l-0.028,0.019l-0.026,0.018l-0.025,0.019l-0.025,0.019l-0.027,0.02l-0.026,0.02l-0.024,0.019l-0.025,0.02l-0.025,0.02l-0.025,0.022l-0.024,0.02l-0.024,0.021l-0.025,0.022l-0.023,0.022l-0.024,0.022l-0.023,0.021l-0.022,0.022l-0.024,0.023l-0.023,0.024l-0.023,0.023l-0.021,0.022l-0.022,0.024l-0.022,0.024l-0.022,0.024l-0.021,0.024l-0.02,0.024l-0.021,0.025l-0.021,0.025l-0.02,0.025l-0.02,0.025l-0.019,0.025l-0.019,0.025l-0.02,0.027l-0.019,0.026l-0.019,0.027l-0.019,0.027l-0.017,0.025l-0.018,0.027l-0.017,0.027l-0.017,0.027l-0.017,0.027l-0.017,0.029l-0.017,0.028l-0.016,0.027l-0.016,0.028l-0.015,0.028l-0.016,0.029l-0.015,0.029l-0.015,0.03l-0.014,0.028l-0.014,0.029l-0.015,0.031l-0.013,0.029l-0.014,0.03l-0.012,0.029l-0.013,0.031l-0.013,0.032l-0.011,0.028l-0.012,0.031l-0.012,0.033l-0.012,0.031l-0.01,0.031l-0.011,0.031l-0.01,0.033l-0.011,0.033l-0.009,0.031l-0.01,0.032l-0.009,0.034l-0.008,0.032l-0.012,0.045l-1.174,4.697l-0.036,0.133l-0.039,0.132l-0.043,0.13l-0.048,0.129l-0.051,0.127l-0.055,0.126l-0.059,0.124l-0.062,0.122l-0.067,0.12l-0.07,0.118l-0.073,0.116l-0.077,0.114l-0.081,0.111l-0.083,0.108l-0.087,0.107l-0.091,0.103l-0.093,0.101l-0.096,0.097l-0.1,0.095l-0.102,0.092l-0.105,0.088l-0.108,0.085l-0.11,0.082l-0.112,0.079l-0.115,0.075l-0.117,0.071l-0.12,0.068l-0.121,0.064l-0.123,0.061l-0.125,0.057l-0.127,0.053l-0.128,0.049l-0.129,0.045l-0.131,0.041l-0.133,0.037l-0.133,0.033l-0.134,0.029l-0.135,0.025l-0.136,0.02l-0.136,0.017l-0.137,0.012l-0.137,0.008l-0.137,0.005l-0.137,-0.001l-0.137,-0.004l-0.137,-0.008l-0.137,-0.013l-0.136,-0.017l-0.136,-0.021l-0.135,-0.025l-0.134,-0.029l-0.133,-0.034l-0.132,-0.037l-0.131,-0.041l-0.129,-0.045l-0.128,-0.05l-0.127,-0.053l-0.125,-0.057l-0.123,-0.061l-0.121,-0.064l-0.119,-0.068l-0.117,-0.072l-0.115,-0.075l-0.112,-0.079l-0.11,-0.082l-0.108,-0.086l-0.105,-0.088l-0.102,-0.092l-0.099,-0.095l-0.096,-0.098l-0.093,-0.101l-0.09,-0.103l-0.087,-0.106l-0.084,-0.109l-0.08,-0.112l-0.077,-0.113l-0.073,-0.116l-0.07,-0.119l-0.066,-0.12l-0.062,-0.122l-0.059,-0.124l-0.055,-0.126l-0.05,-0.128l-0.048,-0.129l-0.043,-0.13l-0.039,-0.131l-0.035,-0.133l-0.031,-0.134l-0.027,-0.134l-0.022,-0.136l-0.019,-0.136l-0.015,-0.136l-0.01,-0.137l-0.006,-0.137l-0.002,-0.137l0.002,-0.138l0.007,-0.137l0.01,-0.137l0.015,-0.136l0.019,-0.136l0.023,-0.135l0.027,-0.135l0.031,-0.133l1.18,-4.721l0.029,-0.113l0.034,-0.127l0.035,-0.124l0.036,-0.124l0.038,-0.126l0.038,-0.122l0.039,-0.121l0.042,-0.123l0.042,-0.123l0.044,-0.12l0.044,-0.119l0.046,-0.119l0.048,-0.121l0.048,-0.118l0.049,-0.116l0.051,-0.119l0.052,-0.116l0.053,-0.115l0.054,-0.114l0.055,-0.115l0.057,-0.114l0.057,-0.112l0.059,-0.112l0.059,-0.111l0.061,-0.111l0.062,-0.11l0.064,-0.109l0.064,-0.108l0.064,-0.107l0.067,-0.107l0.067,-0.106l0.068,-0.105l0.07,-0.105l0.071,-0.104l0.071,-0.102l0.072,-0.102l0.073,-0.101l0.073,-0.099l0.076,-0.1l0.076,-0.099l0.078,-0.098l0.078,-0.097l0.079,-0.096l0.08,-0.095l0.081,-0.094l0.082,-0.094l0.083,-0.092l0.083,-0.091l0.084,-0.091l0.087,-0.09l0.086,-0.089l0.086,-0.087l0.088,-0.087l0.089,-0.086l0.091,-0.086l0.09,-0.084l0.092,-0.084l0.091,-0.081l0.094,-0.082l0.094,-0.081l0.094,-0.079l0.095,-0.078l0.097,-0.077l0.098,-0.078l0.097,-0.075l0.098,-0.074l0.099,-0.074l0.101,-0.073l0.101,-0.071l0.101,-0.07l0.102,-0.07l0.104,-0.068l0.104,-0.068l0.104,-0.066l0.104,-0.065l0.106,-0.065l0.107,-0.063l0.107,-0.062l0.109,-0.061l0.108,-0.06l0.109,-0.059l0.11,-0.058l0.11,-0.056l0.111,-0.056l0.112,-0.054l0.112,-0.054l0.113,-0.052l0.114,-0.051l0.114,-0.05l0.115,-0.049l0.115,-0.048l0.115,-0.046l0.117,-0.046l0.117,-0.044l0.117,-0.043l0.119,-0.042l0.119,-0.041l0.118,-0.039l0.119,-0.038l0.121,-0.037l0.12,-0.036l0.121,-0.035l0.122,-0.033l0.122,-0.032l0.123,-0.031l0.122,-0.03l0.124,-0.028l0.124,-0.027l0.124,-0.026l0.125,-0.025l0.125,-0.023l0.125,-0.022l0.126,-0.021l0.126,-0.019l0.126,-0.019l0.127,-0.016l0.127,-0.016l0.127,-0.014l0.128,-0.013l0.129,-0.011l0.128,-0.011l0.128,-0.008l0.129,-0.008l0.129,-0.006l0.129,-0.005l0.131,-0.003l0.129,-0.002l0.118,-0.001l1.043,0.001Z"/><path d="M14.5,2c0,0 0.488,0 1.238,0c4.735,0 8.939,3.03 10.436,7.521c1.247,3.743 2.493,7.479 2.493,7.479c0,0 -1.088,0 -2.338,0c-2.249,0 -4.309,-1.257 -5.336,-3.258c-1.827,-3.553 -4.493,-8.742 -4.493,-8.742l-5,0l3,-3Z"/><path d="M15.869,0.001l0.131,0.002l0.13,0.003l0.131,0.004l0.13,0.006l0.129,0.007l0.129,0.009l0.13,0.009l0.129,0.011l0.128,0.013l0.129,0.013l0.128,0.015l0.127,0.016l0.128,0.017l0.127,0.019l0.127,0.019l0.126,0.021l0.126,0.022l0.126,0.024l0.125,0.024l0.125,0.026l0.125,0.027l0.124,0.028l0.123,0.029l0.124,0.031l0.123,0.032l0.122,0.033l0.122,0.034l0.122,0.035l0.121,0.036l0.121,0.038l0.12,0.039l0.12,0.039l0.119,0.041l0.12,0.043l0.118,0.043l0.118,0.044l0.117,0.045l0.117,0.047l0.116,0.048l0.116,0.049l0.115,0.049l0.115,0.051l0.114,0.052l0.114,0.053l0.113,0.055l0.113,0.055l0.111,0.056l0.112,0.058l0.111,0.058l0.11,0.059l0.109,0.061l0.109,0.061l0.108,0.063l0.108,0.064l0.107,0.064l0.106,0.066l0.106,0.066l0.105,0.068l0.104,0.068l0.104,0.07l0.104,0.071l0.102,0.071l0.101,0.073l0.102,0.073l0.1,0.075l0.099,0.075l0.099,0.077l0.098,0.077l0.098,0.078l0.096,0.08l0.096,0.08l0.095,0.081l0.095,0.082l0.093,0.083l0.093,0.084l0.092,0.085l0.091,0.085l0.091,0.087l0.09,0.087l0.088,0.089l0.088,0.089l0.087,0.09l0.087,0.091l0.085,0.092l0.085,0.093l0.084,0.093l0.082,0.095l0.082,0.095l0.081,0.096l0.081,0.097l0.079,0.098l0.078,0.098l0.078,0.1l0.077,0.1l0.076,0.102l0.074,0.102l0.074,0.102l0.073,0.104l0.072,0.104l0.071,0.105l0.069,0.105l0.069,0.107l0.069,0.108l0.066,0.108l0.066,0.109l0.065,0.109l0.064,0.111l0.063,0.111l0.062,0.112l0.061,0.112l0.06,0.114l0.059,0.114l0.057,0.114l0.057,0.116l0.056,0.116l0.054,0.117l0.053,0.117l0.053,0.118l0.051,0.119l0.05,0.12l0.049,0.12l0.048,0.121l0.046,0.121l0.046,0.122l0.044,0.123l0.043,0.123l0.041,0.119l3.208,9.624l-0.355,0.492l-4.602,0l-0.132,-0.001l-0.14,-0.004l-0.139,-0.006l-0.139,-0.008l-0.139,-0.011l-0.138,-0.014l-0.138,-0.015l-0.137,-0.018l-0.136,-0.02l-0.136,-0.023l-0.136,-0.025l-0.134,-0.027l-0.134,-0.03l-0.133,-0.031l-0.133,-0.034l-0.132,-0.037l-0.131,-0.038l-0.13,-0.041l-0.13,-0.042l-0.128,-0.045l-0.127,-0.047l-0.127,-0.05l-0.126,-0.051l-0.125,-0.053l-0.124,-0.056l-0.122,-0.057l-0.122,-0.06l-0.121,-0.061l-0.119,-0.064l-0.119,-0.065l-0.117,-0.068l-0.116,-0.07l-0.115,-0.071l-0.114,-0.073l-0.112,-0.076l-0.111,-0.077l-0.111,-0.08l-0.108,-0.08l-0.107,-0.083l-0.106,-0.085l-0.104,-0.087l-0.104,-0.088l-0.101,-0.09l-0.101,-0.092l-0.098,-0.094l-0.097,-0.095l-0.096,-0.098l-0.094,-0.099l-0.092,-0.1l-0.091,-0.103l-0.089,-0.104l-0.088,-0.105l-0.085,-0.108l-0.085,-0.109l-0.082,-0.11l-0.08,-0.112l-0.079,-0.114l-0.077,-0.115l-0.075,-0.117l-0.073,-0.118l-0.071,-0.12l-0.069,-0.122l-0.067,-0.122l-0.061,-0.117l-3.939,-7.664l-6.198,0l-0.706,-1.704l5.297,-5.296l2.071,0l0.126,0.001Zm6.899,12.82l0.036,0.07l0.034,0.061l0.035,0.061l0.035,0.06l0.037,0.059l0.037,0.058l0.039,0.058l0.039,0.057l0.04,0.056l0.041,0.055l0.042,0.054l0.043,0.054l0.044,0.053l0.044,0.052l0.045,0.051l0.047,0.05l0.047,0.05l0.047,0.048l0.049,0.048l0.049,0.047l0.05,0.046l0.051,0.045l0.052,0.044l0.052,0.043l0.053,0.042l0.054,0.042l0.054,0.041l0.055,0.039l0.055,0.039l0.057,0.038l0.057,0.036l0.057,0.036l0.058,0.035l0.059,0.034l0.059,0.033l0.06,0.031l0.06,0.031l0.061,0.03l0.062,0.029l0.062,0.028l0.062,0.026l0.063,0.026l0.063,0.024l0.064,0.024l0.064,0.022l0.065,0.022l0.065,0.02l0.065,0.019l0.066,0.018l0.066,0.017l0.067,0.016l0.067,0.015l0.067,0.013l0.067,0.013l0.068,0.011l0.069,0.01l0.068,0.009l0.041,0.005l-1.605,-4.816l-0.031,-0.091l-0.03,-0.086l-0.03,-0.085l-0.032,-0.084l-0.032,-0.085l-0.034,-0.084l-0.033,-0.083l-0.035,-0.082l-0.036,-0.083l-0.036,-0.082l-0.037,-0.081l-0.037,-0.081l-0.039,-0.08l-0.039,-0.08l-0.04,-0.08l-0.041,-0.079l-0.041,-0.078l-0.042,-0.077l-0.043,-0.078l-0.043,-0.077l-0.044,-0.076l-0.045,-0.076l-0.046,-0.075l-0.047,-0.075l-0.046,-0.074l-0.048,-0.074l-0.049,-0.073l-0.049,-0.073l-0.049,-0.072l-0.05,-0.071l-0.052,-0.072l-0.052,-0.07l-0.052,-0.07l-0.053,-0.069l-0.053,-0.069l-0.055,-0.068l-0.055,-0.068l-0.055,-0.067l-0.056,-0.066l-0.057,-0.067l-0.057,-0.065l-0.058,-0.064l-0.059,-0.065l-0.059,-0.064l-0.06,-0.062l-0.06,-0.063l-0.061,-0.062l-0.062,-0.061l-0.061,-0.06l-0.063,-0.06l-0.064,-0.06l-0.063,-0.058l-0.064,-0.058l-0.065,-0.058l-0.066,-0.057l-0.066,-0.056l-0.066,-0.056l-0.067,-0.055l-0.067,-0.054l-0.068,-0.053l-0.069,-0.053l-0.069,-0.053l-0.069,-0.051l-0.07,-0.051l-0.071,-0.05l-0.071,-0.05l-0.071,-0.049l-0.072,-0.048l-0.072,-0.048l-0.073,-0.047l-0.073,-0.046l-0.074,-0.045l-0.074,-0.045l-0.075,-0.044l-0.075,-0.043l-0.075,-0.043l-0.076,-0.042l-0.076,-0.041l-0.077,-0.04l-0.077,-0.04l-0.078,-0.039l-0.078,-0.038l-0.078,-0.038l-0.079,-0.037l-0.079,-0.036l-0.079,-0.035l-0.08,-0.034l-0.08,-0.034l-0.081,-0.033l-0.08,-0.032l-0.082,-0.032l-0.081,-0.031l-0.082,-0.029l-0.082,-0.029l-0.083,-0.029l-0.083,-0.027l-0.083,-0.027l-0.002,-0.001l4.319,8.404Z"/><path d="M22,27.5c0,0.663 -0.263,1.299 -0.732,1.768c-0.469,0.469 -1.105,0.732 -1.768,0.732c-0.663,0 -1.299,-0.263 -1.768,-0.732c-0.469,-0.469 -0.732,-1.105 -0.732,-1.768c0,-4.945 0,-15.5 0,-15.5l5,0c0,0 0,10.555 0,15.5Z" style="stroke:#000;stroke-width:2px;"/><path d="M14.194,6.008l0.13,0.008l0.129,0.011l0.129,0.015l0.128,0.018l0.128,0.023l0.127,0.026l0.126,0.029l0.126,0.034l0.124,0.036l0.123,0.041l0.122,0.044l0.121,0.047l0.119,0.051l0.118,0.055l0.116,0.057l0.115,0.061l0.112,0.065l0.111,0.067l0.109,0.071l0.106,0.074l0.105,0.076l0.102,0.08l0.1,0.083l0.097,0.086l0.095,0.088l0.093,0.091l0.09,0.094l0.086,0.096l0.085,0.099l0.081,0.101l0.078,0.103l0.076,0.106l0.072,0.107l0.069,0.11l0.066,0.112l0.063,0.113l0.059,0.116l0.056,0.117l0.053,0.118l0.049,0.12l0.045,0.121l0.043,0.123l0.038,0.124l0.035,0.125l0.032,0.126l0.028,0.126l0.024,0.128l0.02,0.128l0.017,0.128l0.013,0.129l0.009,0.13l0.006,0.129l0.002,0.13l0,9.496l-0.002,0.13l-0.006,0.129l-0.009,0.13l-0.013,0.129l-0.017,0.128l-0.02,0.128l-0.024,0.128l-0.028,0.126l-0.032,0.126l-0.035,0.125l-0.038,0.124l-0.043,0.123l-0.045,0.121l-0.049,0.12l-0.053,0.118l-0.056,0.117l-0.059,0.116l-0.063,0.113l-0.066,0.112l-0.069,0.11l-0.072,0.107l-0.076,0.106l-0.078,0.103l-0.081,0.101l-0.085,0.099l-0.086,0.096l-0.09,0.094l-0.093,0.091l-0.095,0.088l-0.097,0.086l-0.1,0.083l-0.102,0.079l-0.105,0.077l-0.106,0.074l-0.109,0.071l-0.111,0.067l-0.112,0.065l-0.115,0.061l-0.116,0.057l-0.118,0.055l-0.119,0.051l-0.121,0.047l-0.122,0.044l-0.123,0.041l-0.124,0.036l-0.126,0.034l-0.126,0.029l-0.127,0.026l-0.128,0.023l-0.128,0.018l-0.129,0.015l-0.129,0.011l-0.13,0.008l-0.129,0.004l-0.13,0l-0.13,-0.004l-0.129,-0.008l-0.129,-0.011l-0.129,-0.015l-0.128,-0.018l-0.128,-0.023l-0.127,-0.026l-0.126,-0.029l-0.126,-0.034l-0.124,-0.036l-0.123,-0.041l-0.122,-0.044l-0.121,-0.047l-0.119,-0.051l-0.118,-0.055l-0.116,-0.057l-0.115,-0.061l-0.112,-0.065l-0.111,-0.067l-0.109,-0.071l-0.106,-0.074l-0.105,-0.077l-0.102,-0.079l-0.1,-0.083l-0.098,-0.086l-0.094,-0.088l-0.093,-0.091l-0.09,-0.094l-0.087,-0.096l-0.084,-0.099l-0.081,-0.101l-0.078,-0.103l-0.076,-0.106l-0.072,-0.107l-0.069,-0.11l-0.066,-0.112l-0.063,-0.113l-0.059,-0.116l-0.056,-0.117l-0.053,-0.118l-0.049,-0.12l-0.046,-0.121l-0.042,-0.123l-0.038,-0.124l-0.035,-0.125l-0.032,-0.126l-0.028,-0.126l-0.024,-0.128l-0.02,-0.128l-0.017,-0.128l-0.013,-0.129l-0.01,-0.13l-0.005,-0.129l-0.002,-0.13l0,-9.496l0.002,-0.13l0.005,-0.129l0.01,-0.13l0.013,-0.129l0.017,-0.128l0.02,-0.128l0.024,-0.128l0.028,-0.126l0.032,-0.126l0.035,-0.125l0.038,-0.124l0.042,-0.123l0.046,-0.121l0.049,-0.12l0.053,-0.118l0.056,-0.117l0.059,-0.116l0.063,-0.113l0.066,-0.112l0.069,-0.11l0.072,-0.107l0.076,-0.106l0.078,-0.103l0.081,-0.101l0.084,-0.099l0.087,-0.096l0.09,-0.094l0.093,-0.091l0.094,-0.088l0.098,-0.086l0.1,-0.083l0.102,-0.08l0.105,-0.076l0.106,-0.074l0.109,-0.071l0.111,-0.067l0.112,-0.065l0.115,-0.061l0.116,-0.057l0.118,-0.055l0.119,-0.051l0.121,-0.047l0.122,-0.044l0.123,-0.041l0.124,-0.036l0.126,-0.034l0.126,-0.029l0.127,-0.026l0.128,-0.023l0.128,-0.018l0.129,-0.015l0.129,-0.011l0.129,-0.008l0.13,-0.004l0.13,0l0.129,0.004Z"/></g><g id="Layer9"><path d="M18,22l-5,0l-1,-1l-3,-1l-2,-1l-2,-2l0,-5l13,0l0,10Z" style="fill:#640082;"/><g id="Layer101" serif:id="Layer10"><path d="M11.077,7.501l0.089,0.005l0.089,0.007l0.089,0.011l0.088,0.014l0.087,0.017l0.087,0.02l0.087,0.023l0.085,0.026l0.084,0.029l0.083,0.033l0.082,0.035l0.081,0.038l0.079,0.041l0.078,0.044l0.076,0.046l0.075,0.049l0.072,0.052l0.071,0.055l0.069,0.057l0.067,0.059l0.064,0.062l0.062,0.063l0.06,0.067l0.058,0.068l0.055,0.07l0.053,0.072l0.049,0.074l0.048,0.076l0.044,0.077l0.042,0.079l0.039,0.08l0.036,0.082l0.033,0.083l0.03,0.084l0.027,0.085l0.024,0.086l0.021,0.087l0.018,0.087l0.015,0.088l0.011,0.089l0.009,0.088l0.005,0.089l0.002,0.09l-0.001,0.089l-0.005,0.089l-0.007,0.089l-0.011,0.089l-0.014,0.088l-0.017,0.087l-0.02,0.087l-2,8l-0.023,0.087l-0.026,0.085l-0.029,0.084l-0.033,0.083l-0.035,0.082l-0.038,0.081l-0.041,0.079l-0.044,0.078l-0.046,0.076l-0.049,0.075l-0.052,0.072l-0.055,0.071l-0.057,0.069l-0.059,0.067l-0.062,0.064l-0.063,0.062l-0.067,0.06l-0.068,0.058l-0.07,0.055l-0.072,0.053l-0.074,0.049l-0.076,0.048l-0.077,0.044l-0.079,0.042l-0.08,0.039l-0.082,0.036l-0.083,0.033l-0.084,0.03l-0.085,0.027l-0.086,0.024l-0.087,0.021l-0.087,0.018l-0.088,0.015l-0.089,0.011l-0.088,0.009l-0.089,0.005l-0.09,0.002l-0.089,-0.001l-0.089,-0.005l-0.089,-0.007l-0.089,-0.011l-0.088,-0.014l-0.087,-0.017l-0.087,-0.02l-0.087,-0.023l-0.085,-0.026l-0.084,-0.029l-0.083,-0.033l-0.082,-0.035l-0.081,-0.038l-0.079,-0.041l-0.078,-0.044l-0.076,-0.046l-0.075,-0.049l-0.072,-0.052l-0.071,-0.055l-0.069,-0.057l-0.067,-0.059l-0.064,-0.062l-0.062,-0.063l-0.06,-0.067l-0.058,-0.068l-0.055,-0.07l-0.053,-0.072l-0.049,-0.074l-0.048,-0.076l-0.044,-0.077l-0.042,-0.079l-0.039,-0.08l-0.036,-0.082l-0.033,-0.083l-0.03,-0.084l-0.027,-0.085l-0.024,-0.086l-0.021,-0.087l-0.018,-0.087l-0.015,-0.088l-0.011,-0.089l-0.009,-0.088l-0.005,-0.089l-0.002,-0.09l0.001,-0.089l0.005,-0.089l0.007,-0.089l0.011,-0.089l0.014,-0.088l0.017,-0.087l0.02,-0.087l2,-8l0.023,-0.087l0.026,-0.085l0.029,-0.084l0.033,-0.083l0.035,-0.082l0.038,-0.081l0.041,-0.079l0.044,-0.078l0.046,-0.076l0.049,-0.075l0.052,-0.072l0.055,-0.071l0.057,-0.069l0.059,-0.067l0.062,-0.064l0.063,-0.062l0.067,-0.06l0.068,-0.058l0.07,-0.055l0.072,-0.053l0.074,-0.049l0.076,-0.048l0.077,-0.044l0.079,-0.042l0.08,-0.039l0.082,-0.036l0.083,-0.033l0.084,-0.03l0.085,-0.027l0.086,-0.024l0.087,-0.021l0.087,-0.018l0.088,-0.015l0.089,-0.011l0.088,-0.009l0.089,-0.005l0.09,-0.002l0.089,0.001Z" style="fill:#f10dc3;"/><path d="M14.145,8.008l0.097,0.008l0.096,0.011l0.096,0.015l0.095,0.019l0.095,0.022l0.093,0.026l0.092,0.03l0.091,0.033l0.09,0.036l0.088,0.041l0.087,0.043l0.085,0.047l0.083,0.05l0.081,0.053l0.079,0.057l0.077,0.059l0.074,0.062l0.072,0.066l0.069,0.067l0.066,0.071l0.064,0.073l0.061,0.075l0.058,0.078l0.055,0.08l0.051,0.082l0.049,0.084l0.045,0.086l0.042,0.087l0.038,0.089l0.035,0.091l0.032,0.092l0.027,0.093l0.025,0.093l0.02,0.095l0.017,0.096l0.013,0.096l0.009,0.096l0.006,0.097l0.002,0.097l0,9.496l-0.002,0.097l-0.006,0.097l-0.009,0.096l-0.013,0.096l-0.017,0.096l-0.02,0.095l-0.025,0.093l-0.027,0.093l-0.032,0.092l-0.035,0.091l-0.038,0.089l-0.042,0.087l-0.045,0.086l-0.049,0.084l-0.051,0.082l-0.055,0.08l-0.058,0.078l-0.061,0.075l-0.064,0.073l-0.066,0.071l-0.069,0.067l-0.072,0.066l-0.074,0.062l-0.077,0.059l-0.079,0.057l-0.081,0.053l-0.083,0.05l-0.085,0.047l-0.087,0.043l-0.088,0.041l-0.09,0.036l-0.091,0.033l-0.092,0.03l-0.093,0.026l-0.095,0.022l-0.095,0.019l-0.096,0.015l-0.096,0.011l-0.097,0.008l-0.097,0.004l-0.097,0l-0.096,-0.004l-0.097,-0.008l-0.096,-0.011l-0.096,-0.015l-0.095,-0.019l-0.095,-0.022l-0.093,-0.026l-0.092,-0.03l-0.091,-0.033l-0.09,-0.036l-0.088,-0.041l-0.087,-0.043l-0.085,-0.047l-0.083,-0.05l-0.081,-0.053l-0.079,-0.057l-0.077,-0.059l-0.074,-0.062l-0.072,-0.066l-0.069,-0.067l-0.066,-0.071l-0.064,-0.073l-0.061,-0.075l-0.058,-0.078l-0.055,-0.08l-0.051,-0.082l-0.049,-0.084l-0.045,-0.086l-0.042,-0.087l-0.038,-0.089l-0.035,-0.091l-0.032,-0.092l-0.027,-0.093l-0.025,-0.093l-0.02,-0.095l-0.017,-0.096l-0.013,-0.096l-0.01,-0.096l-0.005,-0.097l-0.002,-0.097l0,-9.496l0.002,-0.097l0.005,-0.097l0.01,-0.096l0.013,-0.096l0.017,-0.096l0.02,-0.095l0.025,-0.093l0.027,-0.093l0.032,-0.092l0.035,-0.091l0.038,-0.089l0.042,-0.087l0.045,-0.086l0.049,-0.084l0.051,-0.082l0.055,-0.08l0.058,-0.078l0.061,-0.075l0.064,-0.073l0.066,-0.071l0.069,-0.067l0.072,-0.066l0.074,-0.062l0.077,-0.059l0.079,-0.057l0.081,-0.053l0.083,-0.05l0.085,-0.047l0.087,-0.043l0.088,-0.041l0.09,-0.036l0.091,-0.033l0.092,-0.03l0.093,-0.026l0.095,-0.022l0.095,-0.019l0.096,-0.015l0.096,-0.011l0.097,-0.008l0.096,-0.004l0.097,0l0.097,0.004Z" style="fill:#f10dc3;"/><path d="M14.5,2c0,0 0.488,0 1.238,0c4.735,0 8.939,3.03 10.436,7.521c1.247,3.743 2.493,7.479 2.493,7.479c0,0 -1.088,0 -2.338,0c-2.249,0 -4.309,-1.257 -5.336,-3.258c-1.827,-3.553 -4.493,-8.742 -4.493,-8.742l-5,0l3,-3Z" style="fill:#f10dc3;"/><clipPath id="_clip1"><path d="M14.5,2c0,0 0.488,0 1.238,0c4.735,0 8.939,3.03 10.436,7.521c1.247,3.743 2.493,7.479 2.493,7.479c0,0 -1.088,0 -2.338,0c-2.249,0 -4.309,-1.257 -5.336,-3.258c-1.827,-3.553 -4.493,-8.742 -4.493,-8.742l-5,0l3,-3Z"/></clipPath><g clip-path="url(#_clip1)"><path d="M22,18l2,0c0,0 0,-3.84 0,-5.71c0,-0.552 -0.448,-1 -1,-1c-0.552,0 -1,0.448 -1,1c0,1.87 0,5.71 0,5.71Z" style="fill:#a90eb1;"/></g><path d="M15.102,2.006l0.102,0.006l0.101,0.011l0.101,0.014l0.1,0.019l0.1,0.022l0.098,0.027l0.098,0.031l0.096,0.035l0.094,0.038l0.093,0.043l0.091,0.046l0.089,0.049l0.087,0.054l0.084,0.057l0.083,0.06l0.079,0.064l0.077,0.066l0.075,0.07l0.071,0.073l0.068,0.076l0.066,0.078l0.062,0.081l0.058,0.084l0.055,0.086l0.052,0.088l0.048,0.09l0.044,0.091l0.041,0.094l0.036,0.095l0.033,0.097l0.029,0.098l0.024,0.099l0.021,0.1l0.017,0.1l0.012,0.101l0.008,0.102l0.004,0.102l0,0.102l-0.004,0.102l-0.008,0.102l-0.012,0.101l-0.017,0.1l-0.021,0.1l-0.024,0.099l-0.029,0.098l-0.033,0.097l-0.036,0.095l-0.041,0.093l-0.044,0.092l-0.048,0.09l-0.052,0.088l-0.055,0.086l-0.058,0.084l-0.062,0.081l-0.066,0.078l-0.068,0.076l-0.071,0.073l-0.075,0.07l-0.077,0.066l-0.079,0.064l-0.083,0.06l-0.084,0.057l-0.087,0.053l-0.089,0.05l-0.091,0.046l-0.093,0.043l-0.094,0.038l-0.096,0.035l-0.098,0.031l-0.098,0.026l-0.1,0.023l-0.1,0.019l-0.101,0.014l-0.101,0.011l-0.102,0.006l-0.102,0.002l-1.029,0l-0.062,0l-0.055,0.001l-0.056,0.002l-0.054,0.002l-0.055,0.002l-0.055,0.004l-0.055,0.003l-0.054,0.005l-0.054,0.005l-0.055,0.005l-0.053,0.006l-0.054,0.007l-0.054,0.007l-0.053,0.007l-0.053,0.009l-0.054,0.008l-0.053,0.01l-0.052,0.01l-0.053,0.01l-0.052,0.011l-0.053,0.011l-0.051,0.012l-0.052,0.013l-0.052,0.013l-0.051,0.014l-0.052,0.014l-0.051,0.014l-0.051,0.015l-0.05,0.016l-0.05,0.016l-0.051,0.017l-0.05,0.017l-0.05,0.018l-0.049,0.018l-0.05,0.019l-0.049,0.019l-0.049,0.019l-0.049,0.021l-0.048,0.02l-0.048,0.021l-0.048,0.022l-0.048,0.022l-0.047,0.023l-0.047,0.023l-0.048,0.023l-0.047,0.025l-0.046,0.024l-0.046,0.025l-0.046,0.025l-0.046,0.026l-0.045,0.027l-0.045,0.026l-0.045,0.027l-0.045,0.028l-0.044,0.028l-0.044,0.029l-0.044,0.029l-0.043,0.03l-0.043,0.03l-0.043,0.03l-0.043,0.031l-0.041,0.031l-0.042,0.031l-0.042,0.033l-0.041,0.032l-0.041,0.033l-0.041,0.033l-0.039,0.034l-0.04,0.034l-0.04,0.035l-0.039,0.035l-0.039,0.035l-0.038,0.035l-0.038,0.037l-0.038,0.036l-0.037,0.037l-0.037,0.037l-0.037,0.038l-0.036,0.038l-0.036,0.038l-0.035,0.039l-0.035,0.039l-0.035,0.04l-0.034,0.04l-0.034,0.04l-0.033,0.04l-0.033,0.041l-0.033,0.042l-0.033,0.042l-0.031,0.042l-0.031,0.041l-0.031,0.043l-0.031,0.044l-0.03,0.043l-0.029,0.043l-0.03,0.045l-0.029,0.044l-0.028,0.045l-0.028,0.045l-0.028,0.045l-0.027,0.046l-0.026,0.046l-0.026,0.046l-0.026,0.047l-0.025,0.046l-0.025,0.048l-0.024,0.048l-0.024,0.048l-0.023,0.047l-0.023,0.048l-0.023,0.05l-0.022,0.049l-0.021,0.05l-0.021,0.049l-0.02,0.049l-0.02,0.051l-0.02,0.051l-0.019,0.05l-0.018,0.052l-0.018,0.051l-0.017,0.052l-0.017,0.052l-0.017,0.052l-0.015,0.052l-0.016,0.054l-0.015,0.052l-0.014,0.054l-0.016,0.061l-1.175,4.699l-0.027,0.098l-0.031,0.098l-0.035,0.096l-0.038,0.094l-0.043,0.093l-0.046,0.091l-0.05,0.089l-0.053,0.087l-0.057,0.084l-0.06,0.082l-0.064,0.08l-0.067,0.077l-0.07,0.074l-0.073,0.072l-0.075,0.068l-0.079,0.065l-0.081,0.062l-0.083,0.059l-0.086,0.055l-0.088,0.051l-0.09,0.048l-0.092,0.045l-0.094,0.04l-0.095,0.037l-0.097,0.032l-0.097,0.029l-0.099,0.025l-0.1,0.02l-0.101,0.017l-0.101,0.012l-0.102,0.008l-0.102,0.005l-0.102,0l-0.102,-0.005l-0.101,-0.008l-0.101,-0.013l-0.101,-0.016l-0.1,-0.021l-0.099,-0.025l-0.098,-0.028l-0.096,-0.033l-0.096,-0.037l-0.093,-0.04l-0.092,-0.045l-0.09,-0.048l-0.088,-0.051l-0.086,-0.055l-0.083,-0.059l-0.081,-0.062l-0.079,-0.065l-0.075,-0.069l-0.073,-0.071l-0.07,-0.074l-0.067,-0.077l-0.063,-0.08l-0.06,-0.083l-0.057,-0.084l-0.054,-0.087l-0.049,-0.089l-0.047,-0.091l-0.042,-0.093l-0.038,-0.094l-0.035,-0.096l-0.031,-0.098l-0.026,-0.098l-0.023,-0.099l-0.019,-0.101l-0.014,-0.101l-0.01,-0.101l-0.007,-0.102l-0.002,-0.102l0.002,-0.102l0.007,-0.102l0.01,-0.101l0.015,-0.101l0.018,-0.1l0.023,-0.1l1.18,-4.713l0.025,-0.098l0.028,-0.105l0.029,-0.105l0.03,-0.103l0.031,-0.103l0.033,-0.104l0.033,-0.102l0.034,-0.101l0.035,-0.102l0.037,-0.101l0.037,-0.1l0.038,-0.1l0.04,-0.099l0.04,-0.099l0.042,-0.098l0.042,-0.098l0.043,-0.097l0.044,-0.095l0.045,-0.096l0.047,-0.097l0.047,-0.094l0.048,-0.094l0.049,-0.093l0.049,-0.093l0.051,-0.092l0.052,-0.092l0.053,-0.091l0.053,-0.09l0.054,-0.09l0.056,-0.089l0.056,-0.088l0.057,-0.088l0.057,-0.087l0.059,-0.086l0.06,-0.087l0.06,-0.084l0.061,-0.084l0.062,-0.085l0.063,-0.083l0.064,-0.082l0.064,-0.081l0.065,-0.08l0.066,-0.081l0.067,-0.08l0.067,-0.078l0.069,-0.078l0.069,-0.077l0.07,-0.077l0.07,-0.075l0.072,-0.075l0.072,-0.074l0.073,-0.074l0.073,-0.072l0.074,-0.073l0.075,-0.071l0.076,-0.07l0.077,-0.07l0.076,-0.068l0.078,-0.068l0.078,-0.067l0.08,-0.067l0.079,-0.065l0.081,-0.065l0.081,-0.064l0.081,-0.063l0.082,-0.062l0.084,-0.062l0.083,-0.06l0.084,-0.06l0.085,-0.059l0.085,-0.058l0.086,-0.057l0.087,-0.056l0.087,-0.056l0.088,-0.054l0.088,-0.054l0.089,-0.053l0.09,-0.052l0.09,-0.051l0.09,-0.05l0.091,-0.049l0.092,-0.048l0.092,-0.048l0.093,-0.046l0.093,-0.046l0.094,-0.044l0.094,-0.044l0.095,-0.042l0.095,-0.042l0.096,-0.041l0.096,-0.04l0.097,-0.039l0.097,-0.038l0.097,-0.037l0.099,-0.036l0.098,-0.035l0.099,-0.034l0.099,-0.032l0.1,-0.032l0.1,-0.031l0.101,-0.03l0.101,-0.029l0.101,-0.028l0.102,-0.027l0.102,-0.026l0.103,-0.025l0.103,-0.023l0.103,-0.023l0.104,-0.022l0.104,-0.02l0.104,-0.02l0.105,-0.018l0.104,-0.018l0.106,-0.016l0.105,-0.015l0.106,-0.014l0.106,-0.013l0.107,-0.012l0.106,-0.011l0.107,-0.009l0.107,-0.009l0.108,-0.007l0.107,-0.007l0.108,-0.005l0.108,-0.004l0.108,-0.003l0.109,-0.002l0.102,0l1.042,0l0.102,0.002Z" style="fill:#f10dc3;"/><path d="M10,19l11,0l0,-11l-2,-3l-9,2l0,12Z" style="fill:#f10dc3;"/><path d="M22,27.5c0,1.381 -1.119,2.5 -2.5,2.5c-1.381,0 -2.5,-1.119 -2.5,-2.5c0,-5.567 0,-18.5 0,-18.5l5,0c0,0 0,12.933 0,18.5Z" style="fill:#f10dc3;"/></g><path d="M18,22l-5,0l-1,-1l-3,-1l-2,-1l-2,-2l0,-5l13,0l0,10Z" style="fill:none;"/><clipPath id="_clip2"><path d="M18,22l-5,0l-1,-1l-3,-1l-2,-1l-2,-2l0,-5l13,0l0,10Z"/></clipPath><g clip-path="url(#_clip2)"><path d="M16.5,27l0,-9.5" style="fill:none;stroke:#640082;stroke-width:1px;"/><path d="M12,16l-1.125,5" style="fill:none;stroke:#640082;stroke-width:1px;"/><path d="M7,14l-1.25,5" style="fill:none;stroke:#640082;stroke-width:1px;"/></g></g></svg>