<?xml version="1.0" encoding="UTF-8" standalone="no"?>
<!DOCTYPE svg PUBLIC "-//W3C//DTD SVG 1.1//EN" "http://www.w3.org/Graphics/SVG/1.1/DTD/svg11.dtd">
<svg width="100%" height="100%" viewBox="0 0 32 32" version="1.1" xmlns="http://www.w3.org/2000/svg" xmlns:xlink="http://www.w3.org/1999/xlink" xml:space="preserve" xmlns:serif="http://www.serif.com/" style="fill-rule:evenodd;clip-rule:evenodd;stroke-linejoin:round;stroke-miterlimit:2;">
    <rect id="point_down--paw-" serif:id="point_down [paw]" x="0" y="0" width="32" height="32" style="fill:none;"/>
    <clipPath id="_clip1">
        <rect x="0" y="0" width="32" height="32"/>
    </clipPath>
    <g clip-path="url(#_clip1)">
        <g id="Layer10">
            <path d="M24,18.632l0,8.868c0,2.484 -2.016,4.5 -4.5,4.5c-2.484,0 -4.5,-2.016 -4.5,-4.5l0,-3.112c-0.321,0.073 -0.656,0.112 -1,0.112c-1.624,0 -3.047,-0.862 -3.839,-2.152c-0.714,0.191 -1.485,0.209 -2.252,0.018c-1.536,-0.384 -2.688,-1.516 -3.167,-2.91c-0.153,-0.022 -0.306,-0.052 -0.458,-0.09c-2.41,-0.603 -3.877,-3.048 -3.275,-5.457c0,0 0.569,-2.276 1.178,-4.709c1.351,-5.407 6.211,-9.2 11.785,-9.197l0.408,0.001c0.04,-0.003 0.08,-0.004 0.12,-0.004l1.238,0c5.596,0 10.564,3.581 12.333,8.889c1.248,3.743 2.493,7.479 2.493,7.479c0.203,0.609 0.101,1.28 -0.275,1.801c-0.376,0.522 -0.979,0.831 -1.622,0.831l-2.338,0l-0.28,-0.005c-0.709,-0.037 -1.396,-0.16 -2.049,-0.363Z"/>
        </g>
        <g id="Layer9">
            <path d="M18,22l-5,0l-1,-1l-3,-1l-2,-1l-2,-2l0,-5l13,0l0,10Z" style="fill:#640082;"/>
            <path d="M22,27.5c-0.001,0.349 -0.073,0.696 -0.215,1.015c-0.132,0.298 -0.324,0.569 -0.56,0.795c-0.226,0.215 -0.491,0.387 -0.78,0.505c-0.264,0.108 -0.547,0.17 -0.832,0.183c-0.274,0.012 -0.549,-0.021 -0.812,-0.097c-0.234,-0.068 -0.457,-0.17 -0.661,-0.303c-0.452,-0.293 -0.803,-0.732 -0.988,-1.238c-0.101,-0.276 -0.151,-0.567 -0.152,-0.86l0,-10c-0.001,-0.067 -0.013,-0.133 -0.039,-0.195c-0.081,-0.191 -0.279,-0.315 -0.487,-0.304c-0.058,0.003 -0.115,0.016 -0.169,0.038c-0.055,0.024 -0.106,0.058 -0.15,0.099c-0.046,0.044 -0.084,0.098 -0.111,0.156c-0.029,0.065 -0.043,0.135 -0.044,0.206l0,3.999c-0.456,0.608 -1.183,1.001 -2,1.001c-1.252,0 -2.291,-0.923 -2.472,-2.125l0.96,-4.265c0.015,-0.07 0.016,-0.141 0.002,-0.211c-0.013,-0.063 -0.038,-0.123 -0.074,-0.176c-0.034,-0.051 -0.076,-0.095 -0.125,-0.13c-0.047,-0.034 -0.1,-0.059 -0.156,-0.075c-0.201,-0.055 -0.42,0.022 -0.542,0.191c-0.039,0.055 -0.065,0.116 -0.081,0.181l-0.905,4.025c-0.593,0.496 -1.407,0.712 -2.213,0.51c-1.116,-0.278 -1.868,-1.268 -1.894,-2.365l0.985,-3.939c0.015,-0.065 0.02,-0.132 0.009,-0.198c-0.032,-0.206 -0.194,-0.373 -0.398,-0.414c-0.057,-0.011 -0.116,-0.012 -0.173,-0.003c-0.06,0.009 -0.117,0.029 -0.17,0.059c-0.056,0.032 -0.105,0.075 -0.145,0.125c-0.045,0.056 -0.075,0.12 -0.093,0.189l-0.902,3.606c-0.276,0.027 -0.561,0.007 -0.846,-0.064c-1.338,-0.335 -2.153,-1.693 -1.818,-3.032c0,0 0.569,-2.275 1.178,-4.706c1.129,-4.513 5.185,-7.679 9.838,-7.679l0.531,0l0.004,-0.004l1.238,0c4.735,0 8.939,3.03 10.436,7.521c1.247,3.743 2.493,7.479 2.493,7.479l-2.338,0c-0.814,0 -1.604,-0.165 -2.329,-0.47c-0.19,-0.577 -1.818,-1.921 -2,-1.376l0,12.346Z" style="fill:#f10dc3;"/>
            <path d="M22,12.29c0,-0.117 0.02,-0.234 0.061,-0.344c0.074,-0.202 0.214,-0.378 0.395,-0.495c0.082,-0.053 0.171,-0.094 0.264,-0.121c0.106,-0.031 0.216,-0.044 0.325,-0.039c0.114,0.005 0.227,0.03 0.333,0.073c0.115,0.047 0.222,0.116 0.312,0.202c0.094,0.09 0.171,0.199 0.224,0.318c0.057,0.128 0.086,0.266 0.086,0.406l0,4.24c-0.751,-0.317 -1.433,-0.784 -2,-1.376l0,-2.864Z" style="fill:#a90eb1;"/>
        </g>
    </g>
</svg>
