<?xml version="1.0" encoding="UTF-8" standalone="no"?>
<!DOCTYPE svg PUBLIC "-//W3C//DTD SVG 1.1//EN" "http://www.w3.org/Graphics/SVG/1.1/DTD/svg11.dtd">
<svg width="100%" height="100%" viewBox="0 0 32 32" version="1.1" xmlns="http://www.w3.org/2000/svg" xmlns:xlink="http://www.w3.org/1999/xlink" xml:space="preserve" xmlns:serif="http://www.serif.com/" style="fill-rule:evenodd;clip-rule:evenodd;stroke-linejoin:round;stroke-miterlimit:2;">
    <rect id="pray--paw-" serif:id="pray [paw]" x="0" y="0" width="32" height="32" style="fill:none;"/>
    <path d="M24,22l6,6l0,2l-8,0c0,0 -3.637,-3.637 -4.707,-4.707c-0.188,-0.188 -0.293,-0.442 -0.293,-0.707c0,-2.478 0,-15.383 0,-19.968c0,-0.347 0.179,-0.668 0.474,-0.851c0.295,-0.182 0.663,-0.198 0.973,-0.043c0.009,0.004 0.017,0.008 0.025,0.012c3.388,1.694 5.528,5.157 5.528,8.944c0,4.321 0,9.32 0,9.32Z" style="fill:none;stroke:#000;stroke-width:4px;"/>
    <path d="M8,22l-6,6l0,2l8,0c0,0 3.637,-3.637 4.707,-4.707c0.188,-0.188 0.293,-0.442 0.293,-0.707c0,-2.478 0,-15.383 0,-19.968c0,-0.347 -0.179,-0.668 -0.474,-0.851c-0.295,-0.182 -0.663,-0.198 -0.973,-0.043c-0.009,0.004 -0.017,0.008 -0.025,0.012c-3.388,1.694 -5.528,5.157 -5.528,8.944c0,4.321 0,9.32 0,9.32Z" style="fill:none;stroke:#000;stroke-width:4px;"/>
    <path d="M7.5,22.5l2,0l3,3l0,2l-2.5,2.5l-8,0l0,-2l5.5,-5.5Z" style="fill:#a90eb1;"/>
    <path d="M24.5,22.5l-2,0l-3,3l0,2l2.5,2.5l8,0l0,-2l-5.5,-5.5Z" style="fill:#a90eb1;"/>
    <path d="M8,22l-0.5,0.5l5,5c0,0 1.137,-1.137 2.207,-2.207c0.188,-0.188 0.293,-0.442 0.293,-0.707c0,-2.478 0,-15.383 0,-19.968c0,-0.347 -0.179,-0.668 -0.474,-0.851c-0.295,-0.182 -0.663,-0.198 -0.973,-0.043c-0.009,0.004 -0.017,0.008 -0.025,0.012c-3.388,1.694 -5.528,5.157 -5.528,8.944c0,4.321 0,9.32 0,9.32Z" style="fill:#f10dc3;"/>
    <clipPath id="_clip1">
        <path d="M8,22l-0.5,0.5l5,5c0,0 1.137,-1.137 2.207,-2.207c0.188,-0.188 0.293,-0.442 0.293,-0.707c0,-2.478 0,-15.383 0,-19.968c0,-0.347 -0.179,-0.668 -0.474,-0.851c-0.295,-0.182 -0.663,-0.198 -0.973,-0.043c-0.009,0.004 -0.017,0.008 -0.025,0.012c-3.388,1.694 -5.528,5.157 -5.528,8.944c0,4.321 0,9.32 0,9.32Z"/>
    </clipPath>
    <g clip-path="url(#_clip1)">
        <path d="M14.153,9.003l0.151,0.012l0.15,0.019l0.148,0.026l0.146,0.034l0.144,0.041l0.14,0.047l0.136,0.054l0.134,0.06l0.13,0.067l0.125,0.072l0.122,0.078l0.118,0.084l0.113,0.089l0.108,0.093l0.104,0.099l0.099,0.104l0.094,0.109l0.089,0.113l0.083,0.117l0.078,0.121l0.073,0.127l0.066,0.13l0.06,0.132l0.054,0.136l0.047,0.141l0.041,0.144l0.034,0.146l0.026,0.148l0.019,0.149l0.012,0.151l0.003,0.129l0,12.025l-7,0l0,-11.012l0.001,-0.088l0.004,-0.098l0.006,-0.099l0.009,-0.099l0.01,-0.097l0.014,-0.098l0.015,-0.096l0.018,-0.096l0.021,-0.097l0.023,-0.095l0.025,-0.096l0.027,-0.092l0.029,-0.093l0.032,-0.093l0.034,-0.091l0.036,-0.091l0.038,-0.088l0.042,-0.091l0.042,-0.087l0.045,-0.086l0.047,-0.086l0.05,-0.085l0.051,-0.083l0.053,-0.082l0.055,-0.08l0.058,-0.081l0.06,-0.078l0.061,-0.077l0.063,-0.076l0.065,-0.074l0.068,-0.073l0.07,-0.071l0.07,-0.069l0.073,-0.067l0.074,-0.065l0.076,-0.064l0.077,-0.062l0.078,-0.059l0.079,-0.057l0.082,-0.056l0.082,-0.054l0.084,-0.051l0.084,-0.049l0.085,-0.047l0.087,-0.045l0.088,-0.043l0.089,-0.04l0.089,-0.039l0.09,-0.036l0.092,-0.034l0.093,-0.032l0.093,-0.029l0.093,-0.027l0.095,-0.026l0.095,-0.022l0.096,-0.02l0.096,-0.019l0.097,-0.015l0.098,-0.014l0.098,-0.011l0.098,-0.008l0.099,-0.006l0.099,-0.004l0.112,-0.001l0.14,0.003Zm-0.153,1.997l-0.05,0.001l-0.049,0.001l-0.05,0.004l-0.049,0.004l-0.049,0.005l-0.048,0.007l-0.049,0.008l-0.048,0.009l-0.048,0.01l-0.047,0.011l-0.048,0.013l-0.047,0.013l-0.046,0.015l-0.046,0.016l-0.046,0.017l-0.045,0.018l-0.045,0.019l-0.045,0.021l-0.043,0.021l-0.044,0.023l-0.043,0.023l-0.042,0.025l-0.042,0.025l-0.041,0.027l-0.04,0.028l-0.04,0.028l-0.039,0.03l-0.039,0.031l-0.037,0.032l-0.037,0.032l-0.037,0.034l-0.035,0.035l-0.035,0.035l-0.034,0.037l-0.032,0.037l-0.032,0.037l-0.031,0.039l-0.03,0.039l-0.028,0.04l-0.028,0.04l-0.027,0.041l-0.025,0.042l-0.025,0.042l-0.023,0.043l-0.023,0.044l-0.021,0.043l-0.021,0.045l-0.019,0.045l-0.018,0.045l-0.017,0.046l-0.016,0.046l-0.015,0.046l-0.013,0.047l-0.013,0.048l-0.011,0.047l-0.01,0.048l-0.009,0.048l-0.008,0.049l-0.007,0.048l-0.005,0.049l-0.004,0.049l-0.004,0.05l-0.001,0.049l-0.001,0.05l0,9l3,0l0,-10l-0.001,-0.051l-0.004,-0.051l-0.007,-0.05l-0.008,-0.05l-0.011,-0.048l-0.014,-0.047l-0.016,-0.047l-0.018,-0.045l-0.02,-0.045l-0.022,-0.043l-0.024,-0.042l-0.026,-0.04l-0.028,-0.039l-0.029,-0.038l-0.032,-0.036l-0.033,-0.035l-0.035,-0.033l-0.036,-0.032l-0.038,-0.029l-0.039,-0.028l-0.04,-0.026l-0.042,-0.024l-0.043,-0.022l-0.045,-0.02l-0.045,-0.018l-0.047,-0.016l-0.047,-0.014l-0.048,-0.011l-0.05,-0.008l-0.05,-0.007l-0.051,-0.004l-0.051,-0.001l0,0Z" style="fill:#640082;"/>
        <path d="M9,23l0,-2l7,0l0,5l-6,-2l-1,-1Z" style="fill:#f10dc3;"/>
    </g>
    <path d="M24,22l0.5,0.5l-5,5c0,0 -1.137,-1.137 -2.207,-2.207c-0.188,-0.188 -0.293,-0.442 -0.293,-0.707c0,-2.478 0,-15.383 0,-19.968c0,-0.347 0.179,-0.668 0.474,-0.851c0.295,-0.182 0.663,-0.198 0.973,-0.043c0.009,0.004 0.017,0.008 0.025,0.012c3.388,1.694 5.528,5.157 5.528,8.944c0,4.321 0,9.32 0,9.32Z" style="fill:#f10dc3;"/>
    <clipPath id="_clip2">
        <path d="M24,22l0.5,0.5l-5,5c0,0 -1.137,-1.137 -2.207,-2.207c-0.188,-0.188 -0.293,-0.442 -0.293,-0.707c0,-2.478 0,-15.383 0,-19.968c0,-0.347 0.179,-0.668 0.474,-0.851c0.295,-0.182 0.663,-0.198 0.973,-0.043c0.009,0.004 0.017,0.008 0.025,0.012c3.388,1.694 5.528,5.157 5.528,8.944c0,4.321 0,9.32 0,9.32Z"/>
    </clipPath>
    <g clip-path="url(#_clip2)">
        <path d="M18.099,9.001l0.099,0.004l0.099,0.006l0.098,0.008l0.098,0.011l0.098,0.014l0.097,0.015l0.096,0.019l0.096,0.02l0.095,0.022l0.095,0.026l0.093,0.027l0.093,0.029l0.093,0.032l0.092,0.034l0.09,0.036l0.089,0.039l0.089,0.04l0.088,0.043l0.087,0.045l0.085,0.047l0.084,0.049l0.084,0.051l0.082,0.054l0.082,0.056l0.079,0.057l0.078,0.059l0.077,0.062l0.076,0.064l0.074,0.065l0.073,0.067l0.07,0.069l0.07,0.071l0.068,0.073l0.065,0.074l0.063,0.076l0.061,0.077l0.06,0.078l0.058,0.081l0.055,0.08l0.053,0.082l0.051,0.083l0.05,0.085l0.047,0.086l0.045,0.086l0.042,0.087l0.042,0.091l0.038,0.088l0.036,0.091l0.034,0.091l0.032,0.093l0.029,0.093l0.027,0.092l0.025,0.096l0.023,0.095l0.021,0.097l0.018,0.096l0.015,0.096l0.014,0.098l0.01,0.097l0.009,0.099l0.006,0.099l0.004,0.098l0.001,0.088l0,11.012l-7,0l0,-12.025l0.003,-0.129l0.012,-0.151l0.019,-0.149l0.026,-0.148l0.034,-0.146l0.041,-0.144l0.047,-0.141l0.054,-0.136l0.06,-0.132l0.066,-0.13l0.073,-0.127l0.078,-0.121l0.083,-0.117l0.089,-0.113l0.094,-0.109l0.099,-0.104l0.104,-0.099l0.108,-0.093l0.113,-0.089l0.118,-0.084l0.122,-0.078l0.125,-0.072l0.13,-0.067l0.134,-0.06l0.136,-0.054l0.14,-0.047l0.144,-0.041l0.146,-0.034l0.148,-0.026l0.15,-0.019l0.151,-0.012l0.14,-0.003l0.112,0.001Zm-0.15,2l-0.051,0.004l-0.05,0.007l-0.05,0.008l-0.048,0.011l-0.047,0.014l-0.047,0.016l-0.045,0.018l-0.045,0.02l-0.043,0.022l-0.042,0.024l-0.04,0.026l-0.039,0.028l-0.038,0.029l-0.036,0.032l-0.035,0.033l-0.033,0.035l-0.032,0.036l-0.029,0.038l-0.028,0.039l-0.026,0.04l-0.024,0.042l-0.022,0.043l-0.02,0.045l-0.018,0.045l-0.016,0.047l-0.014,0.047l-0.011,0.048l-0.008,0.05l-0.007,0.05l-0.004,0.051l-0.001,0.051l0,10l3,0l0,-9l-0.001,-0.05l-0.001,-0.049l-0.004,-0.05l-0.004,-0.049l-0.005,-0.049l-0.007,-0.048l-0.008,-0.049l-0.009,-0.048l-0.01,-0.048l-0.011,-0.047l-0.013,-0.048l-0.013,-0.047l-0.015,-0.046l-0.016,-0.046l-0.017,-0.046l-0.018,-0.045l-0.019,-0.045l-0.021,-0.045l-0.021,-0.043l-0.023,-0.044l-0.023,-0.043l-0.025,-0.042l-0.025,-0.042l-0.027,-0.041l-0.028,-0.04l-0.028,-0.04l-0.03,-0.039l-0.031,-0.039l-0.032,-0.037l-0.032,-0.037l-0.034,-0.037l-0.035,-0.035l-0.035,-0.035l-0.037,-0.034l-0.037,-0.032l-0.037,-0.032l-0.039,-0.031l-0.039,-0.03l-0.04,-0.028l-0.04,-0.028l-0.041,-0.027l-0.042,-0.025l-0.042,-0.025l-0.043,-0.023l-0.044,-0.023l-0.043,-0.021l-0.045,-0.021l-0.045,-0.019l-0.045,-0.018l-0.046,-0.017l-0.046,-0.016l-0.046,-0.015l-0.047,-0.013l-0.048,-0.013l-0.047,-0.011l-0.048,-0.01l-0.048,-0.009l-0.049,-0.008l-0.048,-0.007l-0.049,-0.005l-0.049,-0.004l-0.05,-0.004l-0.049,-0.001l-0.05,-0.001c0,0 -0.051,0.001 -0.051,0.001Z" style="fill:#640082;"/>
        <path d="M22,24l1,-1l0,-2l-7,0l0,5l6,-2Z" style="fill:#f10dc3;"/>
    </g>
</svg>
