<?xml version="1.0" encoding="UTF-8" standalone="no"?>
<!DOCTYPE svg PUBLIC "-//W3C//DTD SVG 1.1//EN" "http://www.w3.org/Graphics/SVG/1.1/DTD/svg11.dtd">
<svg width="100%" height="100%" viewBox="0 0 32 32" version="1.1" xmlns="http://www.w3.org/2000/svg" xmlns:xlink="http://www.w3.org/1999/xlink" xml:space="preserve" xmlns:serif="http://www.serif.com/" style="fill-rule:evenodd;clip-rule:evenodd;stroke-linejoin:round;stroke-miterlimit:2;">
    <rect id="punch--paw-" serif:id="punch [paw]" x="0" y="0" width="32" height="32" style="fill:none;"/>
    <g id="outline">
        <path d="M1,19.502l0,-8.177c0,-3.444 2.203,-6.501 5.47,-7.59c0.357,-0.119 0.69,-0.23 0.974,-0.324c0.816,-0.272 1.67,-0.411 2.53,-0.411l9.026,0c4.677,0 8.521,3.568 8.958,8.13l1.578,1.577c0.937,0.938 1.464,2.21 1.464,3.536c0,2.257 0,6.929 0,8.343c0,0.795 -0.316,1.559 -0.879,2.121c-0.574,0.574 -1.84,1.84 -2.414,2.414c-0.562,0.563 -1.326,0.879 -2.121,0.879l-10.586,0l0,-2.002c0,-0.694 0.144,-1.374 0.417,-1.998l-4.417,0c-1.731,0 -3.256,-0.879 -4.154,-2.216c-1.837,0.557 -3.959,-0.091 -5.09,-1.787c-0.499,-0.747 -0.734,-1.602 -0.756,-2.495Z"/>
    </g>
    <g id="emoji">
        <path d="M18.5,15l0,-3l7.5,0l1.5,1.5l0.5,1.5l0,10c-0.002,0.628 -4,1 -4,1l-5,0l-2,2l0,-3c0,-0.265 -0.105,-0.52 -0.293,-0.707c-0.187,-0.188 -0.442,-0.293 -0.707,-0.293c-1.707,0 -5,0 -5,0l0,-2l-5,0l0,-7l12.5,0Z" style="fill:#640082;"/>
        <path d="M28.121,14.121c0.563,0.563 0.879,1.326 0.879,2.122c0,2.257 0,6.929 0,8.343c0,0.265 -0.105,0.519 -0.293,0.707c-0.574,0.574 -1.84,1.84 -2.414,2.414c-0.188,0.188 -0.442,0.293 -0.707,0.293l-8.586,0l0,-0.002c0,-1.656 1.342,-2.998 2.998,-2.998l0.939,0c0.254,0.131 0.521,0.238 0.795,0.319c0.476,0.14 0.975,0.198 1.471,0.177c0.513,-0.023 1.022,-0.134 1.498,-0.329c0.519,-0.212 0.998,-0.522 1.404,-0.91c0.425,-0.405 0.77,-0.893 1.009,-1.43c0.255,-0.575 0.384,-1.199 0.386,-1.827l0,-7.5l0.621,0.621Z" style="fill:#a90eb1;"/>
        <path d="M7,21.828c-0.318,0.113 -0.656,0.172 -1,0.172c-0.796,0 -1.559,-0.316 -2.121,-0.879c-0.563,-0.562 -0.879,-1.325 -0.879,-2.121l0,-7.675c0,-2.583 1.653,-4.876 4.103,-5.693c0.357,-0.119 0.689,-0.229 0.973,-0.324c0.612,-0.204 1.253,-0.308 1.898,-0.308c1.747,0 5.559,0 9.026,0c3.866,0 7,3.134 7,7l0,9c0,1.657 -1.343,3 -3,3c-0.768,0 -1.469,-0.289 -2,-0.764l0,-8.236l-1,0l0,6l0,0.019c-0.01,1.648 -1.35,2.981 -3,2.981c-1.657,0 -3,-1.343 -3,-3l0,-6l-1,0l0,8.236c-0.531,0.475 -1.232,0.764 -2,0.764c-1.58,0 -2.875,-1.221 -2.991,-2.772l-0.009,0.008l0,-6.236l-1,0l0,6.828Z" style="fill:#f10dc3;"/>
    </g>
</svg>
