<?xml version="1.0" encoding="UTF-8" standalone="no"?>
<!DOCTYPE svg PUBLIC "-//W3C//DTD SVG 1.1//EN" "http://www.w3.org/Graphics/SVG/1.1/DTD/svg11.dtd">
<svg width="100%" height="100%" viewBox="0 0 32 32" version="1.1" xmlns="http://www.w3.org/2000/svg" xmlns:xlink="http://www.w3.org/1999/xlink" xml:space="preserve" xmlns:serif="http://www.serif.com/" style="fill-rule:evenodd;clip-rule:evenodd;stroke-linejoin:round;stroke-miterlimit:1.41421;">
    <rect id="raised_hands--paw-" serif:id="raised_hands [paw]" x="0" y="0" width="32" height="32" style="fill:none;"/>
    <clipPath id="_clip1">
        <rect x="0" y="0" width="32" height="32"/>
    </clipPath>
    <g clip-path="url(#_clip1)">
        <g id="Layer11">
            <path d="M6.958,20.047l0,-4.023l0.002,-0.061l0.004,-0.061l0.008,-0.06l0.011,-0.06l0.014,-0.059l0.017,-0.059l0.02,-0.057l0.023,-0.057l0.026,-0.055l0.028,-0.053l0.032,-0.053l0.034,-0.05l0.037,-0.049l0.038,-0.047l0.042,-0.045l0.044,-0.042l0.045,-0.04l0.048,-0.038l0.049,-0.035l0.052,-0.033l0.053,-0.03l0.054,-0.027l0.056,-0.025l0.057,-0.021l0.058,-0.018l0.059,-0.016l0.06,-0.012l0.06,-0.01l0.06,-0.006l0.061,-0.003l0.061,0l0.061,0.003l0.061,0.006l0.06,0.01l0.059,0.012l0.059,0.016l0.058,0.018l0.057,0.021l0.056,0.025l0.055,0.027l0.053,0.03l0.051,0.033l0.049,0.035l0.048,0.038l0.046,0.04l0.044,0.042l0.041,0.045l0.039,0.047l0.037,0.049l0.033,0.05l0.032,0.053l0.029,0.053l0.026,0.055l0.022,0.057l0.021,0.057l0.017,0.059l0.013,0.059l0.011,0.06l0.008,0.06l0.005,0.061l0.001,0.061l0,4.023l0.082,0l0.84,-3.362l0.016,-0.056l0.018,-0.055l0.021,-0.054l0.023,-0.053l0.026,-0.052l0.029,-0.05l0.031,-0.05l0.033,-0.047l0.036,-0.046l0.038,-0.044l0.04,-0.042l0.042,-0.04l0.044,-0.038l0.046,-0.035l0.047,-0.034l0.049,-0.031l0.051,-0.029l0.051,-0.026l0.053,-0.023l0.055,-0.021l0.055,-0.019l0.055,-0.015l0.057,-0.013l0.057,-0.01l0.058,-0.007l0.058,-0.004l0.058,-0.002l0.058,0.002l0.058,0.004l0.058,0.007l0.057,0.01l0.056,0.013l0.056,0.015l0.055,0.018l0.055,0.021l0.053,0.024l0.051,0.026l0.051,0.028l0.049,0.031l0.047,0.034l0.046,0.036l0.044,0.037l0.042,0.04l0.041,0.042l0.037,0.044l0.036,0.046l0.034,0.047l0.031,0.05l0.028,0.05l0.026,0.052l0.024,0.053l0.021,0.054l0.018,0.055l0.016,0.056l0.012,0.057l0.01,0.057l0.007,0.058l0.005,0.057l0.001,0.058l-0.001,0.059l-0.005,0.057l-0.007,0.058l-0.01,0.057l-0.012,0.057l-1.357,5.425l0,0.59l1.395,-1.394l0.038,-0.038l0.04,-0.035l0.042,-0.035l0.042,-0.032l0.044,-0.031l0.045,-0.029l0.046,-0.028l0.047,-0.026l0.048,-0.024l0.049,-0.022l0.05,-0.02l0.05,-0.019l0.052,-0.016l0.051,-0.015l0.052,-0.012l0.053,-0.011l0.053,-0.009l0.053,-0.006l0.054,-0.005l0.054,-0.002l0.053,-0.001l0.054,0.001l0.053,0.004l0.054,0.006l0.053,0.007l0.053,0.01l0.052,0.012l0.052,0.013l0.052,0.016l0.051,0.017l0.05,0.02l0.049,0.021l0.049,0.023l0.047,0.025l0.047,0.027l0.045,0.028l0.045,0.03l0.043,0.032l0.042,0.034l0.041,0.035l0.039,0.036l0.038,0.038l0.037,0.04l0.035,0.04l0.033,0.042l0.032,0.043l0.03,0.045l0.028,0.045l0.027,0.047l0.025,0.047l0.023,0.049l0.022,0.049l0.019,0.05l0.017,0.051l0.016,0.052l0.013,0.052l0.012,0.052l0.01,0.053l0.007,0.053l0.006,0.054l0.004,0.053l0.001,0.054l0,0.053l-0.003,0.054l-0.005,0.054l-0.006,0.053l-0.009,0.053l-0.011,0.053l-0.012,0.052l-0.015,0.052l-0.016,0.051l-0.019,0.05l-0.02,0.05l-0.022,0.049l-0.024,0.048l-0.026,0.047l-0.028,0.046l-0.029,0.045l-0.031,0.044l-0.032,0.042l-0.034,0.042l-0.036,0.04l-0.038,0.039l-2.831,2.832l-0.039,0.038l-0.042,0.04l-0.042,0.039l-0.043,0.04l-0.043,0.039l-0.044,0.037l-0.044,0.038l-0.044,0.037l-0.045,0.036l-0.045,0.036l-0.046,0.035l-0.046,0.035l-0.047,0.034l-0.047,0.033l-0.047,0.033l-0.047,0.032l-0.048,0.032l-0.049,0.03l-0.048,0.031l-0.049,0.03l-0.05,0.029l-0.05,0.028l-0.049,0.028l-0.051,0.028l-0.051,0.026l-0.051,0.026l-0.051,0.025l-0.051,0.025l-0.052,0.024l-0.105,0.047l-0.053,0.022l-0.052,0.021l-0.053,0.021l-0.054,0.02l-0.054,0.02l-0.054,0.019l-0.054,0.018l-0.054,0.018l-0.055,0.017l-0.055,0.016l-0.055,0.016l-0.055,0.015l-0.056,0.014l-0.055,0.014l-0.057,0.013l-0.055,0.012l-0.057,0.012l-0.056,0.011l-0.057,0.01l-0.006,0.001l-0.036,0.012l-0.057,0.017l-0.059,0.014l-0.058,0.01l-0.06,0.008l-0.06,0.004l-0.06,0.002l-0.279,0l-0.014,0l-0.058,0.001l-0.054,0.001l-0.068,0l-0.054,-0.001l-0.015,-0.001l-0.473,0l-0.052,-0.001l-0.051,-0.002l-0.051,-0.001l-0.051,-0.003l-0.051,-0.003l-0.051,-0.003l-0.101,-0.009l-0.05,-0.005l-0.05,-0.006l-0.051,-0.006l-0.05,-0.007l-0.05,-0.007l-0.049,-0.007l-0.05,-0.009l-0.049,-0.008l-0.05,-0.01l-0.049,-0.009l-0.098,-0.021l-0.049,-0.011l-0.048,-0.012l-0.048,-0.013l-0.049,-0.012l-0.047,-0.013l-0.048,-0.014l-0.048,-0.014l-0.047,-0.015l-0.048,-0.015l-0.046,-0.015l-0.047,-0.017l-0.047,-0.016l-0.046,-0.017l-0.046,-0.018l-0.046,-0.018l-0.046,-0.018l-0.045,-0.018l-0.045,-0.02l-0.046,-0.02l-0.045,-0.02l-0.044,-0.02l-0.044,-0.022l-0.045,-0.021l-0.043,-0.022l-0.087,-0.045l-0.043,-0.023l-0.043,-0.024l-0.043,-0.024l-0.042,-0.025l-0.042,-0.025l-0.042,-0.025l-0.041,-0.026l-0.042,-0.026l-0.041,-0.027l-0.04,-0.027l-0.041,-0.027l-0.04,-0.028l-0.04,-0.028l-0.039,-0.029l-0.04,-0.029l-0.038,-0.029l-0.039,-0.03l-0.038,-0.03l-0.076,-0.062l-0.037,-0.031l-0.037,-0.032l-0.037,-0.032l-0.037,-0.032l-0.072,-0.067l-0.035,-0.034l-0.035,-0.033l-0.069,-0.069l-0.034,-0.035l-0.034,-0.036l-0.067,-0.072l-0.032,-0.036l-0.033,-0.038l-0.031,-0.036l-0.032,-0.038l-0.031,-0.038l-0.031,-0.038l-0.061,-0.078l-0.029,-0.039l-0.03,-0.039l-0.029,-0.04l-0.056,-0.081l-0.028,-0.041l-0.054,-0.082l-0.027,-0.042l-0.026,-0.042l-0.026,-0.042l-0.025,-0.043l-0.025,-0.044l-0.025,-0.043l-0.024,-0.043l-0.023,-0.044l-0.024,-0.044l-0.022,-0.045l-0.022,-0.045l-0.022,-0.044l-0.021,-0.046l-0.021,-0.045l-0.021,-0.046l-0.02,-0.047l-0.039,-0.092l-0.018,-0.048l-0.019,-0.046l-0.017,-0.048l-0.034,-0.096l-0.016,-0.048l-0.032,-0.097l-0.014,-0.049l-0.014,-0.049l-0.014,-0.049l-0.013,-0.05l-0.013,-0.047l-1.271,-5.071l-0.013,-0.058l-0.01,-0.059l-0.008,-0.06l-0.004,-0.059l-0.001,-0.06l0.002,-0.06l0.005,-0.06l0.008,-0.059l0.011,-0.059l0.014,-0.058l0.017,-0.058l0.02,-0.056l0.023,-0.056l0.025,-0.054l0.028,-0.053l0.031,-0.052l0.033,-0.049l0.036,-0.048l0.038,-0.047l0.041,-0.044l0.042,-0.042l0.045,-0.039l0.047,-0.038l0.048,-0.035l0.051,-0.033l0.052,-0.03l0.053,-0.027l0.055,-0.025l0.055,-0.021l0.058,-0.019l0.057,-0.016l0.058,-0.014l0.06,-0.01l0.059,-0.007l0.06,-0.004l0.06,-0.001l0.06,0.002l0.06,0.005l0.059,0.008l0.059,0.011l0.058,0.014l0.057,0.017l0.057,0.02l0.055,0.022l0.055,0.026l0.053,0.028l0.051,0.031l0.05,0.033l0.048,0.036l0.046,0.038l0.044,0.041l0.042,0.042l0.04,0.045l0.037,0.047l0.035,0.049l0.033,0.05l0.03,0.051l0.028,0.054l0.024,0.055l0.022,0.056l0.019,0.056l0.016,0.058l0.102,0.407l-0.381,-2.03l-0.009,-0.059l-0.007,-0.06l-0.003,-0.06l0,-0.059l0.002,-0.06l0.006,-0.06l0.008,-0.059l0.012,-0.059l0.014,-0.058l0.018,-0.058l0.02,-0.056l0.023,-0.055l0.026,-0.054l0.029,-0.053l0.031,-0.051l0.034,-0.05l0.036,-0.047l0.039,-0.046l0.041,-0.044l0.043,-0.041l0.045,-0.04l0.047,-0.037l0.049,-0.034l0.051,-0.032l0.052,-0.03l0.053,-0.027l0.055,-0.024l0.057,-0.021l0.056,-0.018l0.058,-0.016l0.059,-0.012l0.059,-0.01l0.059,-0.006l0.06,-0.004l0.061,-0.001l0.059,0.003l0.06,0.006l0.059,0.008l0.059,0.012l0.058,0.014l0.057,0.018l0.057,0.02l0.055,0.023l0.054,0.026l0.053,0.029l0.051,0.031l0.049,0.034l0.048,0.037l0.045,0.038l0.044,0.041l0.042,0.043l0.039,0.045l0.037,0.047l0.035,0.049l0.032,0.051l0.03,0.052l0.027,0.054l0.023,0.054l0.022,0.057l0.018,0.057l0.016,0.057l0.012,0.059l0.617,3.293l0.039,0Z" style="fill:none;stroke:#000;stroke-width:4px;"/>
            <path d="M25.042,20.047l0,-4.023l-0.002,-0.061l-0.004,-0.061l-0.008,-0.06l-0.011,-0.06l-0.014,-0.059l-0.017,-0.059l-0.02,-0.057l-0.023,-0.057l-0.026,-0.055l-0.028,-0.053l-0.032,-0.053l-0.034,-0.05l-0.037,-0.049l-0.038,-0.047l-0.042,-0.045l-0.044,-0.042l-0.045,-0.04l-0.048,-0.038l-0.049,-0.035l-0.052,-0.033l-0.053,-0.03l-0.054,-0.027l-0.056,-0.025l-0.057,-0.021l-0.058,-0.018l-0.059,-0.016l-0.06,-0.012l-0.06,-0.01l-0.06,-0.006l-0.061,-0.003l-0.061,0l-0.061,0.003l-0.061,0.006l-0.06,0.01l-0.059,0.012l-0.059,0.016l-0.058,0.018l-0.057,0.021l-0.056,0.025l-0.055,0.027l-0.053,0.03l-0.051,0.033l-0.049,0.035l-0.048,0.038l-0.046,0.04l-0.044,0.042l-0.041,0.045l-0.039,0.047l-0.037,0.049l-0.033,0.05l-0.032,0.053l-0.029,0.053l-0.026,0.055l-0.022,0.057l-0.021,0.057l-0.017,0.059l-0.013,0.059l-0.011,0.06l-0.008,0.06l-0.005,0.061l-0.001,0.061l0,4.023l-0.082,0l-0.84,-3.362l-0.016,-0.056l-0.018,-0.055l-0.021,-0.054l-0.023,-0.053l-0.026,-0.052l-0.029,-0.05l-0.031,-0.05l-0.033,-0.047l-0.036,-0.046l-0.038,-0.044l-0.04,-0.042l-0.042,-0.04l-0.044,-0.038l-0.046,-0.035l-0.047,-0.034l-0.049,-0.031l-0.051,-0.029l-0.051,-0.026l-0.053,-0.023l-0.055,-0.021l-0.055,-0.019l-0.055,-0.015l-0.057,-0.013l-0.057,-0.01l-0.058,-0.007l-0.058,-0.004l-0.058,-0.002l-0.058,0.002l-0.058,0.004l-0.058,0.007l-0.057,0.01l-0.056,0.013l-0.056,0.015l-0.055,0.018l-0.055,0.021l-0.053,0.024l-0.051,0.026l-0.051,0.028l-0.049,0.031l-0.047,0.034l-0.046,0.036l-0.044,0.037l-0.042,0.04l-0.041,0.042l-0.037,0.044l-0.036,0.046l-0.034,0.047l-0.031,0.05l-0.028,0.05l-0.026,0.052l-0.024,0.053l-0.021,0.054l-0.018,0.055l-0.016,0.056l-0.012,0.057l-0.01,0.057l-0.007,0.058l-0.005,0.057l-0.001,0.058l0.001,0.059l0.005,0.057l0.007,0.058l0.01,0.057l0.012,0.057l1.357,5.425l0,0.59l-1.395,-1.394l-0.038,-0.038l-0.04,-0.035l-0.042,-0.035l-0.042,-0.032l-0.044,-0.031l-0.045,-0.029l-0.046,-0.028l-0.047,-0.026l-0.048,-0.024l-0.049,-0.022l-0.05,-0.02l-0.05,-0.019l-0.052,-0.016l-0.051,-0.015l-0.052,-0.012l-0.053,-0.011l-0.053,-0.009l-0.053,-0.006l-0.054,-0.005l-0.054,-0.002l-0.053,-0.001l-0.054,0.001l-0.053,0.004l-0.054,0.006l-0.053,0.007l-0.053,0.01l-0.052,0.012l-0.052,0.013l-0.052,0.016l-0.051,0.017l-0.05,0.02l-0.049,0.021l-0.049,0.023l-0.047,0.025l-0.047,0.027l-0.045,0.028l-0.045,0.03l-0.043,0.032l-0.042,0.034l-0.041,0.035l-0.039,0.036l-0.038,0.038l-0.037,0.04l-0.035,0.04l-0.033,0.042l-0.032,0.043l-0.03,0.045l-0.028,0.045l-0.027,0.047l-0.025,0.047l-0.023,0.049l-0.022,0.049l-0.019,0.05l-0.017,0.051l-0.016,0.052l-0.013,0.052l-0.012,0.052l-0.01,0.053l-0.007,0.053l-0.006,0.054l-0.004,0.053l-0.001,0.054l0,0.053l0.003,0.054l0.005,0.054l0.006,0.053l0.009,0.053l0.011,0.053l0.012,0.052l0.015,0.052l0.016,0.051l0.019,0.05l0.02,0.05l0.022,0.049l0.024,0.048l0.026,0.047l0.028,0.046l0.029,0.045l0.031,0.044l0.032,0.042l0.034,0.042l0.036,0.04l0.038,0.039l2.831,2.832l0.039,0.038l0.042,0.04l0.042,0.039l0.043,0.04l0.043,0.039l0.044,0.037l0.044,0.038l0.044,0.037l0.045,0.036l0.045,0.036l0.046,0.035l0.046,0.035l0.047,0.034l0.047,0.033l0.047,0.033l0.047,0.032l0.048,0.032l0.049,0.03l0.048,0.031l0.049,0.03l0.05,0.029l0.05,0.028l0.049,0.028l0.051,0.028l0.051,0.026l0.051,0.026l0.051,0.025l0.051,0.025l0.052,0.024l0.105,0.047l0.053,0.022l0.052,0.021l0.053,0.021l0.054,0.02l0.054,0.02l0.054,0.019l0.054,0.018l0.054,0.018l0.055,0.017l0.055,0.016l0.055,0.016l0.055,0.015l0.056,0.014l0.055,0.014l0.057,0.013l0.055,0.012l0.057,0.012l0.056,0.011l0.057,0.01l0.006,0.001l0.036,0.012l0.057,0.017l0.059,0.014l0.058,0.01l0.06,0.008l0.06,0.004l0.06,0.002l0.279,0l0.014,0l0.058,0.001l0.054,0.001l0.068,0l0.054,-0.001l0.015,-0.001l0.473,0l0.052,-0.001l0.051,-0.002l0.051,-0.001l0.051,-0.003l0.051,-0.003l0.051,-0.003l0.101,-0.009l0.05,-0.005l0.05,-0.006l0.051,-0.006l0.05,-0.007l0.05,-0.007l0.049,-0.007l0.05,-0.009l0.049,-0.008l0.05,-0.01l0.049,-0.009l0.098,-0.021l0.049,-0.011l0.048,-0.012l0.048,-0.013l0.049,-0.012l0.047,-0.013l0.048,-0.014l0.048,-0.014l0.047,-0.015l0.048,-0.015l0.046,-0.015l0.047,-0.017l0.047,-0.016l0.046,-0.017l0.046,-0.018l0.046,-0.018l0.046,-0.018l0.045,-0.018l0.045,-0.02l0.046,-0.02l0.045,-0.02l0.044,-0.02l0.044,-0.022l0.045,-0.021l0.043,-0.022l0.087,-0.045l0.043,-0.023l0.043,-0.024l0.043,-0.024l0.042,-0.025l0.042,-0.025l0.042,-0.025l0.041,-0.026l0.042,-0.026l0.041,-0.027l0.04,-0.027l0.041,-0.027l0.04,-0.028l0.04,-0.028l0.039,-0.029l0.04,-0.029l0.038,-0.029l0.039,-0.03l0.038,-0.03l0.076,-0.062l0.037,-0.031l0.037,-0.032l0.037,-0.032l0.037,-0.032l0.072,-0.067l0.035,-0.034l0.035,-0.033l0.069,-0.069l0.034,-0.035l0.034,-0.036l0.067,-0.072l0.032,-0.036l0.033,-0.038l0.031,-0.036l0.032,-0.038l0.031,-0.038l0.031,-0.038l0.061,-0.078l0.029,-0.039l0.03,-0.039l0.029,-0.04l0.056,-0.081l0.028,-0.041l0.054,-0.082l0.027,-0.042l0.026,-0.042l0.026,-0.042l0.025,-0.043l0.025,-0.044l0.025,-0.043l0.024,-0.043l0.023,-0.044l0.024,-0.044l0.022,-0.045l0.022,-0.045l0.022,-0.044l0.021,-0.046l0.021,-0.045l0.021,-0.046l0.02,-0.047l0.039,-0.092l0.018,-0.048l0.019,-0.046l0.017,-0.048l0.034,-0.096l0.016,-0.048l0.032,-0.097l0.014,-0.049l0.014,-0.049l0.014,-0.049l0.013,-0.05l0.013,-0.047l1.271,-5.071l0.013,-0.058l0.01,-0.059l0.008,-0.06l0.004,-0.059l0.001,-0.06l-0.002,-0.06l-0.005,-0.06l-0.008,-0.059l-0.011,-0.059l-0.014,-0.058l-0.017,-0.058l-0.02,-0.056l-0.023,-0.056l-0.025,-0.054l-0.028,-0.053l-0.031,-0.052l-0.033,-0.049l-0.036,-0.048l-0.038,-0.047l-0.041,-0.044l-0.042,-0.042l-0.045,-0.039l-0.047,-0.038l-0.048,-0.035l-0.051,-0.033l-0.052,-0.03l-0.053,-0.027l-0.055,-0.025l-0.055,-0.021l-0.058,-0.019l-0.057,-0.016l-0.058,-0.014l-0.06,-0.01l-0.059,-0.007l-0.06,-0.004l-0.06,-0.001l-0.06,0.002l-0.06,0.005l-0.059,0.008l-0.059,0.011l-0.058,0.014l-0.057,0.017l-0.057,0.02l-0.055,0.022l-0.055,0.026l-0.053,0.028l-0.051,0.031l-0.05,0.033l-0.048,0.036l-0.046,0.038l-0.044,0.041l-0.042,0.042l-0.04,0.045l-0.037,0.047l-0.035,0.049l-0.033,0.05l-0.03,0.051l-0.028,0.054l-0.024,0.055l-0.022,0.056l-0.019,0.056l-0.016,0.058l-0.102,0.407l0.381,-2.03l0.009,-0.059l0.007,-0.06l0.003,-0.06l0,-0.059l-0.002,-0.06l-0.006,-0.06l-0.008,-0.059l-0.012,-0.059l-0.014,-0.058l-0.018,-0.058l-0.02,-0.056l-0.023,-0.055l-0.026,-0.054l-0.029,-0.053l-0.031,-0.051l-0.034,-0.05l-0.036,-0.047l-0.039,-0.046l-0.041,-0.044l-0.043,-0.041l-0.045,-0.04l-0.047,-0.037l-0.049,-0.034l-0.051,-0.032l-0.052,-0.03l-0.053,-0.027l-0.055,-0.024l-0.057,-0.021l-0.056,-0.018l-0.058,-0.016l-0.059,-0.012l-0.059,-0.01l-0.059,-0.006l-0.06,-0.004l-0.061,-0.001l-0.059,0.003l-0.06,0.006l-0.059,0.008l-0.059,0.012l-0.058,0.014l-0.057,0.018l-0.057,0.02l-0.055,0.023l-0.054,0.026l-0.053,0.029l-0.051,0.031l-0.049,0.034l-0.048,0.037l-0.045,0.038l-0.044,0.041l-0.042,0.043l-0.039,0.045l-0.037,0.047l-0.035,0.049l-0.032,0.051l-0.03,0.052l-0.027,0.054l-0.023,0.054l-0.022,0.057l-0.018,0.057l-0.016,0.057l-0.012,0.059l-0.617,3.293l-0.039,0Z" style="fill:none;stroke:#000;stroke-width:4px;"/>
            <path d="M6.526,5.5c0.247,0.011 0.472,0.103 0.656,0.269c1.034,0.998 2.051,2.015 3.049,3.049c0.101,0.112 0.179,0.24 0.224,0.384c0.037,0.121 0.052,0.249 0.042,0.376c-0.009,0.114 -0.038,0.227 -0.085,0.332c-0.154,0.342 -0.495,0.573 -0.869,0.589c-0.103,0.005 -0.207,-0.007 -0.307,-0.035c-0.158,-0.043 -0.298,-0.124 -0.418,-0.233c-1.034,-0.998 -2.05,-2.015 -3.049,-3.049c-0.093,-0.103 -0.167,-0.22 -0.213,-0.352c-0.034,-0.098 -0.053,-0.201 -0.056,-0.304c-0.009,-0.362 0.185,-0.709 0.498,-0.891c0.14,-0.081 0.297,-0.124 0.459,-0.134c0.035,-0.001 0.034,-0.001 0.069,-0.001Zm19.017,0.001c0.139,0.008 0.273,0.04 0.399,0.102c0.324,0.16 0.541,0.492 0.557,0.854c0.005,0.103 -0.007,0.207 -0.035,0.307c-0.043,0.158 -0.124,0.298 -0.233,0.418c-0.998,1.034 -2.015,2.051 -3.049,3.049c-0.112,0.101 -0.24,0.179 -0.384,0.224c-0.121,0.037 -0.249,0.052 -0.376,0.042c-0.114,-0.009 -0.227,-0.038 -0.332,-0.085c-0.342,-0.154 -0.573,-0.495 -0.589,-0.869c-0.005,-0.103 0.007,-0.207 0.035,-0.307c0.043,-0.158 0.124,-0.298 0.233,-0.418c0.998,-1.034 2.015,-2.051 3.049,-3.049c0.184,-0.166 0.409,-0.258 0.656,-0.269c0.035,0 0.034,0 0.069,0.001Zm-9.483,-3.499c0.106,0.008 0.209,0.029 0.309,0.069c0.26,0.103 0.469,0.316 0.568,0.579c0.037,0.1 0.056,0.204 0.062,0.31c0.027,1.36 0.027,2.72 0,4.08c-0.009,0.16 -0.05,0.314 -0.13,0.454c-0.179,0.316 -0.526,0.513 -0.889,0.506c-0.106,-0.002 -0.212,-0.021 -0.312,-0.057c-0.112,-0.039 -0.217,-0.099 -0.309,-0.176c-0.102,-0.085 -0.186,-0.19 -0.247,-0.308c-0.068,-0.131 -0.102,-0.272 -0.111,-0.419c-0.027,-1.36 -0.027,-2.72 0,-4.08c0.006,-0.106 0.025,-0.21 0.062,-0.31c0.094,-0.25 0.288,-0.456 0.531,-0.564c0.098,-0.043 0.201,-0.068 0.307,-0.081c0.053,-0.004 0.105,-0.005 0.159,-0.003Z" style="fill:#fff;stroke:#000;stroke-width:4px;"/>
            <g>
                <path d="M6.958,20.047l0,-4.023l0.002,-0.061l0.004,-0.061l0.008,-0.06l0.011,-0.06l0.014,-0.059l0.017,-0.059l0.02,-0.057l0.023,-0.057l0.026,-0.055l0.028,-0.053l0.032,-0.053l0.034,-0.05l0.037,-0.049l0.038,-0.047l0.042,-0.045l0.044,-0.042l0.045,-0.04l0.048,-0.038l0.049,-0.035l0.052,-0.033l0.053,-0.03l0.054,-0.027l0.056,-0.025l0.057,-0.021l0.058,-0.018l0.059,-0.016l0.06,-0.012l0.06,-0.01l0.06,-0.006l0.061,-0.003l0.061,0l0.061,0.003l0.061,0.006l0.06,0.01l0.059,0.012l0.059,0.016l0.058,0.018l0.057,0.021l0.056,0.025l0.055,0.027l0.053,0.03l0.051,0.033l0.049,0.035l0.048,0.038l0.046,0.04l0.044,0.042l0.041,0.045l0.039,0.047l0.037,0.049l0.033,0.05l0.032,0.053l0.029,0.053l0.026,0.055l0.022,0.057l0.021,0.057l0.017,0.059l0.013,0.059l0.011,0.06l0.008,0.06l0.005,0.061l0.001,0.061l0,4.023l0.082,0l0.84,-3.362l0.016,-0.056l0.018,-0.055l0.021,-0.054l0.023,-0.053l0.026,-0.052l0.029,-0.05l0.031,-0.05l0.033,-0.047l0.036,-0.046l0.038,-0.044l0.04,-0.042l0.042,-0.04l0.044,-0.038l0.046,-0.035l0.047,-0.034l0.049,-0.031l0.051,-0.029l0.051,-0.026l0.053,-0.023l0.055,-0.021l0.055,-0.019l0.055,-0.015l0.057,-0.013l0.057,-0.01l0.058,-0.007l0.058,-0.004l0.058,-0.002l0.058,0.002l0.058,0.004l0.058,0.007l0.057,0.01l0.056,0.013l0.056,0.015l0.055,0.018l0.055,0.021l0.053,0.024l0.051,0.026l0.051,0.028l0.049,0.031l0.047,0.034l0.046,0.036l0.044,0.037l0.042,0.04l0.041,0.042l0.037,0.044l0.036,0.046l0.034,0.047l0.031,0.05l0.028,0.05l0.026,0.052l0.024,0.053l0.021,0.054l0.018,0.055l0.016,0.056l0.012,0.057l0.01,0.057l0.007,0.058l0.005,0.057l0.001,0.058l-0.001,0.059l-0.005,0.057l-0.007,0.058l-0.01,0.057l-0.012,0.057l-1.357,5.425l0,0.59l1.395,-1.394l0.038,-0.038l0.04,-0.035l0.042,-0.035l0.042,-0.032l0.044,-0.031l0.045,-0.029l0.046,-0.028l0.047,-0.026l0.048,-0.024l0.049,-0.022l0.05,-0.02l0.05,-0.019l0.052,-0.016l0.051,-0.015l0.052,-0.012l0.053,-0.011l0.053,-0.009l0.053,-0.006l0.054,-0.005l0.054,-0.002l0.053,-0.001l0.054,0.001l0.053,0.004l0.054,0.006l0.053,0.007l0.053,0.01l0.052,0.012l0.052,0.013l0.052,0.016l0.051,0.017l0.05,0.02l0.049,0.021l0.049,0.023l0.047,0.025l0.047,0.027l0.045,0.028l0.045,0.03l0.043,0.032l0.042,0.034l0.041,0.035l0.039,0.036l0.038,0.038l0.037,0.04l0.035,0.04l0.033,0.042l0.032,0.043l0.03,0.045l0.028,0.045l0.027,0.047l0.025,0.047l0.023,0.049l0.022,0.049l0.019,0.05l0.017,0.051l0.016,0.052l0.013,0.052l0.012,0.052l0.01,0.053l0.007,0.053l0.006,0.054l0.004,0.053l0.001,0.054l0,0.053l-0.003,0.054l-0.005,0.054l-0.006,0.053l-0.009,0.053l-0.011,0.053l-0.012,0.052l-0.015,0.052l-0.016,0.051l-0.019,0.05l-0.02,0.05l-0.022,0.049l-0.024,0.048l-0.026,0.047l-0.028,0.046l-0.029,0.045l-0.031,0.044l-0.032,0.042l-0.034,0.042l-0.036,0.04l-0.038,0.039l-2.831,2.832l-0.039,0.038l-0.042,0.04l-0.042,0.039l-0.043,0.04l-0.043,0.039l-0.044,0.037l-0.044,0.038l-0.044,0.037l-0.045,0.036l-0.045,0.036l-0.046,0.035l-0.046,0.035l-0.047,0.034l-0.047,0.033l-0.047,0.033l-0.047,0.032l-0.048,0.032l-0.049,0.03l-0.048,0.031l-0.049,0.03l-0.05,0.029l-0.05,0.028l-0.049,0.028l-0.051,0.028l-0.051,0.026l-0.051,0.026l-0.051,0.025l-0.051,0.025l-0.052,0.024l-0.105,0.047l-0.053,0.022l-0.052,0.021l-0.053,0.021l-0.054,0.02l-0.054,0.02l-0.054,0.019l-0.054,0.018l-0.054,0.018l-0.055,0.017l-0.055,0.016l-0.055,0.016l-0.055,0.015l-0.056,0.014l-0.055,0.014l-0.057,0.013l-0.055,0.012l-0.057,0.012l-0.056,0.011l-0.057,0.01l-0.006,0.001l-0.036,0.012l-0.057,0.017l-0.059,0.014l-0.058,0.01l-0.06,0.008l-0.06,0.004l-0.06,0.002l-0.279,0l-0.014,0l-0.058,0.001l-0.054,0.001l-0.068,0l-0.054,-0.001l-0.015,-0.001l-0.473,0l-0.052,-0.001l-0.051,-0.002l-0.051,-0.001l-0.051,-0.003l-0.051,-0.003l-0.051,-0.003l-0.101,-0.009l-0.05,-0.005l-0.05,-0.006l-0.051,-0.006l-0.05,-0.007l-0.05,-0.007l-0.049,-0.007l-0.05,-0.009l-0.049,-0.008l-0.05,-0.01l-0.049,-0.009l-0.098,-0.021l-0.049,-0.011l-0.048,-0.012l-0.048,-0.013l-0.049,-0.012l-0.047,-0.013l-0.048,-0.014l-0.048,-0.014l-0.047,-0.015l-0.048,-0.015l-0.046,-0.015l-0.047,-0.017l-0.047,-0.016l-0.046,-0.017l-0.046,-0.018l-0.046,-0.018l-0.046,-0.018l-0.045,-0.018l-0.045,-0.02l-0.046,-0.02l-0.045,-0.02l-0.044,-0.02l-0.044,-0.022l-0.045,-0.021l-0.043,-0.022l-0.087,-0.045l-0.043,-0.023l-0.043,-0.024l-0.043,-0.024l-0.042,-0.025l-0.042,-0.025l-0.042,-0.025l-0.041,-0.026l-0.042,-0.026l-0.041,-0.027l-0.04,-0.027l-0.041,-0.027l-0.04,-0.028l-0.04,-0.028l-0.039,-0.029l-0.04,-0.029l-0.038,-0.029l-0.039,-0.03l-0.038,-0.03l-0.076,-0.062l-0.037,-0.031l-0.037,-0.032l-0.037,-0.032l-0.037,-0.032l-0.072,-0.067l-0.035,-0.034l-0.035,-0.033l-0.069,-0.069l-0.034,-0.035l-0.034,-0.036l-0.067,-0.072l-0.032,-0.036l-0.033,-0.038l-0.031,-0.036l-0.032,-0.038l-0.031,-0.038l-0.031,-0.038l-0.061,-0.078l-0.029,-0.039l-0.03,-0.039l-0.029,-0.04l-0.056,-0.081l-0.028,-0.041l-0.054,-0.082l-0.027,-0.042l-0.026,-0.042l-0.026,-0.042l-0.025,-0.043l-0.025,-0.044l-0.025,-0.043l-0.024,-0.043l-0.023,-0.044l-0.024,-0.044l-0.022,-0.045l-0.022,-0.045l-0.022,-0.044l-0.021,-0.046l-0.021,-0.045l-0.021,-0.046l-0.02,-0.047l-0.039,-0.092l-0.018,-0.048l-0.019,-0.046l-0.017,-0.048l-0.034,-0.096l-0.016,-0.048l-0.032,-0.097l-0.014,-0.049l-0.014,-0.049l-0.014,-0.049l-0.013,-0.05l-0.013,-0.047l-1.271,-5.071l-0.013,-0.058l-0.01,-0.059l-0.008,-0.06l-0.004,-0.059l-0.001,-0.06l0.002,-0.06l0.005,-0.06l0.008,-0.059l0.011,-0.059l0.014,-0.058l0.017,-0.058l0.02,-0.056l0.023,-0.056l0.025,-0.054l0.028,-0.053l0.031,-0.052l0.033,-0.049l0.036,-0.048l0.038,-0.047l0.041,-0.044l0.042,-0.042l0.045,-0.039l0.047,-0.038l0.048,-0.035l0.051,-0.033l0.052,-0.03l0.053,-0.027l0.055,-0.025l0.055,-0.021l0.058,-0.019l0.057,-0.016l0.058,-0.014l0.06,-0.01l0.059,-0.007l0.06,-0.004l0.06,-0.001l0.06,0.002l0.06,0.005l0.059,0.008l0.059,0.011l0.058,0.014l0.057,0.017l0.057,0.02l0.055,0.022l0.055,0.026l0.053,0.028l0.051,0.031l0.05,0.033l0.048,0.036l0.046,0.038l0.044,0.041l0.042,0.042l0.04,0.045l0.037,0.047l0.035,0.049l0.033,0.05l0.03,0.051l0.028,0.054l0.024,0.055l0.022,0.056l0.019,0.056l0.016,0.058l0.102,0.407l-0.381,-2.03l-0.009,-0.059l-0.007,-0.06l-0.003,-0.06l0,-0.059l0.002,-0.06l0.006,-0.06l0.008,-0.059l0.012,-0.059l0.014,-0.058l0.018,-0.058l0.02,-0.056l0.023,-0.055l0.026,-0.054l0.029,-0.053l0.031,-0.051l0.034,-0.05l0.036,-0.047l0.039,-0.046l0.041,-0.044l0.043,-0.041l0.045,-0.04l0.047,-0.037l0.049,-0.034l0.051,-0.032l0.052,-0.03l0.053,-0.027l0.055,-0.024l0.057,-0.021l0.056,-0.018l0.058,-0.016l0.059,-0.012l0.059,-0.01l0.059,-0.006l0.06,-0.004l0.061,-0.001l0.059,0.003l0.06,0.006l0.059,0.008l0.059,0.012l0.058,0.014l0.057,0.018l0.057,0.02l0.055,0.023l0.054,0.026l0.053,0.029l0.051,0.031l0.049,0.034l0.048,0.037l0.045,0.038l0.044,0.041l0.042,0.043l0.039,0.045l0.037,0.047l0.035,0.049l0.032,0.051l0.03,0.052l0.027,0.054l0.023,0.054l0.022,0.057l0.018,0.057l0.016,0.057l0.012,0.059l0.617,3.293l0.039,0Z" style="fill:#f10dc3;"/>
                <path d="M3.647,16.262l0.828,4.967" style="fill:none;stroke:#000;stroke-width:0.47px;stroke-linecap:round;stroke-linejoin:miter;stroke-miterlimit:1.5;"/>
                <path d="M6.722,15.789l0,4.731" style="fill:none;stroke:#000;stroke-width:0.47px;stroke-linecap:round;stroke-linejoin:miter;stroke-miterlimit:1.5;"/>
                <path d="M9.56,15.789l0,4.494" style="fill:none;stroke:#000;stroke-width:0.47px;stroke-linecap:round;stroke-linejoin:miter;stroke-miterlimit:1.5;"/>
                <g>
                    <path d="M4.944,16.415c0.483,-0.12 1.016,0.345 1.189,1.038c0.173,0.693 -0.079,1.353 -0.563,1.474c-0.483,0.121 -1.016,-0.344 -1.189,-1.037c-0.173,-0.693 0.079,-1.354 0.563,-1.475Z" style="fill:#ff80b7;"/>
                    <path d="M2.782,18.58c0.402,-0.1 0.838,0.26 0.973,0.802c0.135,0.543 -0.081,1.065 -0.483,1.166c-0.402,0.1 -0.838,-0.259 -0.973,-0.803c-0.136,-0.543 0.08,-1.065 0.483,-1.165Z" style="fill:#ff80b7;"/>
                    <ellipse cx="8.145" cy="16.972" rx="0.946" ry="1.419" style="fill:#ff80b7;"/>
                    <path d="M11.538,16.326c0.468,0.117 0.703,0.791 0.525,1.506c-0.178,0.714 -0.703,1.2 -1.171,1.083c-0.468,-0.117 -0.703,-0.792 -0.526,-1.506c0.179,-0.715 0.703,-1.2 1.172,-1.083Z" style="fill:#ff80b7;"/>
                    <path d="M14.062,22.168c0.428,0.428 0.28,1.27 -0.33,1.88c-0.61,0.61 -1.453,0.758 -1.88,0.331c-0.427,-0.428 -0.279,-1.27 0.331,-1.88c0.61,-0.61 1.452,-0.758 1.879,-0.331Z" style="fill:#ff80b7;"/>
                    <path d="M4.593,25.088c0,-0.502 0.199,-0.983 0.554,-1.338c0.388,-0.388 0.923,-0.923 1.419,-1.419c0.355,-0.355 0.836,-0.554 1.338,-0.554c0.502,0 0.983,0.199 1.338,0.554c0.496,0.496 1.032,1.031 1.419,1.419c0.355,0.355 0.555,0.836 0.555,1.338l0,0.237c0,0.437 -0.202,0.85 -0.546,1.118c-0.345,0.27 -0.794,0.365 -1.218,0.259c-0.434,-0.109 -0.843,-0.211 -1.085,-0.272c-0.151,-0.037 -0.304,-0.056 -0.459,-0.056l-0.008,0c-0.154,0 -0.308,0.019 -0.458,0.056c-0.243,0.061 -0.652,0.163 -1.086,0.272c-0.424,0.106 -0.873,0.011 -1.217,-0.259c-0.345,-0.268 -0.546,-0.681 -0.546,-1.118l0,-0.237Z" style="fill:#ff80b7;"/>
                </g>
            </g>
            <g>
                <path d="M25.042,20.047l0,-4.023l-0.002,-0.061l-0.004,-0.061l-0.008,-0.06l-0.011,-0.06l-0.014,-0.059l-0.017,-0.059l-0.02,-0.057l-0.023,-0.057l-0.026,-0.055l-0.028,-0.053l-0.032,-0.053l-0.034,-0.05l-0.037,-0.049l-0.038,-0.047l-0.042,-0.045l-0.044,-0.042l-0.045,-0.04l-0.048,-0.038l-0.049,-0.035l-0.052,-0.033l-0.053,-0.03l-0.054,-0.027l-0.056,-0.025l-0.057,-0.021l-0.058,-0.018l-0.059,-0.016l-0.06,-0.012l-0.06,-0.01l-0.06,-0.006l-0.061,-0.003l-0.061,0l-0.061,0.003l-0.061,0.006l-0.06,0.01l-0.059,0.012l-0.059,0.016l-0.058,0.018l-0.057,0.021l-0.056,0.025l-0.055,0.027l-0.053,0.03l-0.051,0.033l-0.049,0.035l-0.048,0.038l-0.046,0.04l-0.044,0.042l-0.041,0.045l-0.039,0.047l-0.037,0.049l-0.033,0.05l-0.032,0.053l-0.029,0.053l-0.026,0.055l-0.022,0.057l-0.021,0.057l-0.017,0.059l-0.013,0.059l-0.011,0.06l-0.008,0.06l-0.005,0.061l-0.001,0.061l0,4.023l-0.082,0l-0.84,-3.362l-0.016,-0.056l-0.018,-0.055l-0.021,-0.054l-0.023,-0.053l-0.026,-0.052l-0.029,-0.05l-0.031,-0.05l-0.033,-0.047l-0.036,-0.046l-0.038,-0.044l-0.04,-0.042l-0.042,-0.04l-0.044,-0.038l-0.046,-0.035l-0.047,-0.034l-0.049,-0.031l-0.051,-0.029l-0.051,-0.026l-0.053,-0.023l-0.055,-0.021l-0.055,-0.019l-0.055,-0.015l-0.057,-0.013l-0.057,-0.01l-0.058,-0.007l-0.058,-0.004l-0.058,-0.002l-0.058,0.002l-0.058,0.004l-0.058,0.007l-0.057,0.01l-0.056,0.013l-0.056,0.015l-0.055,0.018l-0.055,0.021l-0.053,0.024l-0.051,0.026l-0.051,0.028l-0.049,0.031l-0.047,0.034l-0.046,0.036l-0.044,0.037l-0.042,0.04l-0.041,0.042l-0.037,0.044l-0.036,0.046l-0.034,0.047l-0.031,0.05l-0.028,0.05l-0.026,0.052l-0.024,0.053l-0.021,0.054l-0.018,0.055l-0.016,0.056l-0.012,0.057l-0.01,0.057l-0.007,0.058l-0.005,0.057l-0.001,0.058l0.001,0.059l0.005,0.057l0.007,0.058l0.01,0.057l0.012,0.057l1.357,5.425l0,0.59l-1.395,-1.394l-0.038,-0.038l-0.04,-0.035l-0.042,-0.035l-0.042,-0.032l-0.044,-0.031l-0.045,-0.029l-0.046,-0.028l-0.047,-0.026l-0.048,-0.024l-0.049,-0.022l-0.05,-0.02l-0.05,-0.019l-0.052,-0.016l-0.051,-0.015l-0.052,-0.012l-0.053,-0.011l-0.053,-0.009l-0.053,-0.006l-0.054,-0.005l-0.054,-0.002l-0.053,-0.001l-0.054,0.001l-0.053,0.004l-0.054,0.006l-0.053,0.007l-0.053,0.01l-0.052,0.012l-0.052,0.013l-0.052,0.016l-0.051,0.017l-0.05,0.02l-0.049,0.021l-0.049,0.023l-0.047,0.025l-0.047,0.027l-0.045,0.028l-0.045,0.03l-0.043,0.032l-0.042,0.034l-0.041,0.035l-0.039,0.036l-0.038,0.038l-0.037,0.04l-0.035,0.04l-0.033,0.042l-0.032,0.043l-0.03,0.045l-0.028,0.045l-0.027,0.047l-0.025,0.047l-0.023,0.049l-0.022,0.049l-0.019,0.05l-0.017,0.051l-0.016,0.052l-0.013,0.052l-0.012,0.052l-0.01,0.053l-0.007,0.053l-0.006,0.054l-0.004,0.053l-0.001,0.054l0,0.053l0.003,0.054l0.005,0.054l0.006,0.053l0.009,0.053l0.011,0.053l0.012,0.052l0.015,0.052l0.016,0.051l0.019,0.05l0.02,0.05l0.022,0.049l0.024,0.048l0.026,0.047l0.028,0.046l0.029,0.045l0.031,0.044l0.032,0.042l0.034,0.042l0.036,0.04l0.038,0.039l2.831,2.832l0.039,0.038l0.042,0.04l0.042,0.039l0.043,0.04l0.043,0.039l0.044,0.037l0.044,0.038l0.044,0.037l0.045,0.036l0.045,0.036l0.046,0.035l0.046,0.035l0.047,0.034l0.047,0.033l0.047,0.033l0.047,0.032l0.048,0.032l0.049,0.03l0.048,0.031l0.049,0.03l0.05,0.029l0.05,0.028l0.049,0.028l0.051,0.028l0.051,0.026l0.051,0.026l0.051,0.025l0.051,0.025l0.052,0.024l0.105,0.047l0.053,0.022l0.052,0.021l0.053,0.021l0.054,0.02l0.054,0.02l0.054,0.019l0.054,0.018l0.054,0.018l0.055,0.017l0.055,0.016l0.055,0.016l0.055,0.015l0.056,0.014l0.055,0.014l0.057,0.013l0.055,0.012l0.057,0.012l0.056,0.011l0.057,0.01l0.006,0.001l0.036,0.012l0.057,0.017l0.059,0.014l0.058,0.01l0.06,0.008l0.06,0.004l0.06,0.002l0.279,0l0.014,0l0.058,0.001l0.054,0.001l0.068,0l0.054,-0.001l0.015,-0.001l0.473,0l0.052,-0.001l0.051,-0.002l0.051,-0.001l0.051,-0.003l0.051,-0.003l0.051,-0.003l0.101,-0.009l0.05,-0.005l0.05,-0.006l0.051,-0.006l0.05,-0.007l0.05,-0.007l0.049,-0.007l0.05,-0.009l0.049,-0.008l0.05,-0.01l0.049,-0.009l0.098,-0.021l0.049,-0.011l0.048,-0.012l0.048,-0.013l0.049,-0.012l0.047,-0.013l0.048,-0.014l0.048,-0.014l0.047,-0.015l0.048,-0.015l0.046,-0.015l0.047,-0.017l0.047,-0.016l0.046,-0.017l0.046,-0.018l0.046,-0.018l0.046,-0.018l0.045,-0.018l0.045,-0.02l0.046,-0.02l0.045,-0.02l0.044,-0.02l0.044,-0.022l0.045,-0.021l0.043,-0.022l0.087,-0.045l0.043,-0.023l0.043,-0.024l0.043,-0.024l0.042,-0.025l0.042,-0.025l0.042,-0.025l0.041,-0.026l0.042,-0.026l0.041,-0.027l0.04,-0.027l0.041,-0.027l0.04,-0.028l0.04,-0.028l0.039,-0.029l0.04,-0.029l0.038,-0.029l0.039,-0.03l0.038,-0.03l0.076,-0.062l0.037,-0.031l0.037,-0.032l0.037,-0.032l0.037,-0.032l0.072,-0.067l0.035,-0.034l0.035,-0.033l0.069,-0.069l0.034,-0.035l0.034,-0.036l0.067,-0.072l0.032,-0.036l0.033,-0.038l0.031,-0.036l0.032,-0.038l0.031,-0.038l0.031,-0.038l0.061,-0.078l0.029,-0.039l0.03,-0.039l0.029,-0.04l0.056,-0.081l0.028,-0.041l0.054,-0.082l0.027,-0.042l0.026,-0.042l0.026,-0.042l0.025,-0.043l0.025,-0.044l0.025,-0.043l0.024,-0.043l0.023,-0.044l0.024,-0.044l0.022,-0.045l0.022,-0.045l0.022,-0.044l0.021,-0.046l0.021,-0.045l0.021,-0.046l0.02,-0.047l0.039,-0.092l0.018,-0.048l0.019,-0.046l0.017,-0.048l0.034,-0.096l0.016,-0.048l0.032,-0.097l0.014,-0.049l0.014,-0.049l0.014,-0.049l0.013,-0.05l0.013,-0.047l1.271,-5.071l0.013,-0.058l0.01,-0.059l0.008,-0.06l0.004,-0.059l0.001,-0.06l-0.002,-0.06l-0.005,-0.06l-0.008,-0.059l-0.011,-0.059l-0.014,-0.058l-0.017,-0.058l-0.02,-0.056l-0.023,-0.056l-0.025,-0.054l-0.028,-0.053l-0.031,-0.052l-0.033,-0.049l-0.036,-0.048l-0.038,-0.047l-0.041,-0.044l-0.042,-0.042l-0.045,-0.039l-0.047,-0.038l-0.048,-0.035l-0.051,-0.033l-0.052,-0.03l-0.053,-0.027l-0.055,-0.025l-0.055,-0.021l-0.058,-0.019l-0.057,-0.016l-0.058,-0.014l-0.06,-0.01l-0.059,-0.007l-0.06,-0.004l-0.06,-0.001l-0.06,0.002l-0.06,0.005l-0.059,0.008l-0.059,0.011l-0.058,0.014l-0.057,0.017l-0.057,0.02l-0.055,0.022l-0.055,0.026l-0.053,0.028l-0.051,0.031l-0.05,0.033l-0.048,0.036l-0.046,0.038l-0.044,0.041l-0.042,0.042l-0.04,0.045l-0.037,0.047l-0.035,0.049l-0.033,0.05l-0.03,0.051l-0.028,0.054l-0.024,0.055l-0.022,0.056l-0.019,0.056l-0.016,0.058l-0.102,0.407l0.381,-2.03l0.009,-0.059l0.007,-0.06l0.003,-0.06l0,-0.059l-0.002,-0.06l-0.006,-0.06l-0.008,-0.059l-0.012,-0.059l-0.014,-0.058l-0.018,-0.058l-0.02,-0.056l-0.023,-0.055l-0.026,-0.054l-0.029,-0.053l-0.031,-0.051l-0.034,-0.05l-0.036,-0.047l-0.039,-0.046l-0.041,-0.044l-0.043,-0.041l-0.045,-0.04l-0.047,-0.037l-0.049,-0.034l-0.051,-0.032l-0.052,-0.03l-0.053,-0.027l-0.055,-0.024l-0.057,-0.021l-0.056,-0.018l-0.058,-0.016l-0.059,-0.012l-0.059,-0.01l-0.059,-0.006l-0.06,-0.004l-0.061,-0.001l-0.059,0.003l-0.06,0.006l-0.059,0.008l-0.059,0.012l-0.058,0.014l-0.057,0.018l-0.057,0.02l-0.055,0.023l-0.054,0.026l-0.053,0.029l-0.051,0.031l-0.049,0.034l-0.048,0.037l-0.045,0.038l-0.044,0.041l-0.042,0.043l-0.039,0.045l-0.037,0.047l-0.035,0.049l-0.032,0.051l-0.03,0.052l-0.027,0.054l-0.023,0.054l-0.022,0.057l-0.018,0.057l-0.016,0.057l-0.012,0.059l-0.617,3.293l-0.039,0Z" style="fill:#f10dc3;"/>
                <path d="M28.353,16.262l-0.828,4.967" style="fill:none;stroke:#000;stroke-width:0.47px;stroke-linecap:round;stroke-linejoin:miter;stroke-miterlimit:1.5;"/>
                <path d="M25.278,15.789l0,4.731" style="fill:none;stroke:#000;stroke-width:0.47px;stroke-linecap:round;stroke-linejoin:miter;stroke-miterlimit:1.5;"/>
                <path d="M22.44,15.789l0,4.494" style="fill:none;stroke:#000;stroke-width:0.47px;stroke-linecap:round;stroke-linejoin:miter;stroke-miterlimit:1.5;"/>
                <g>
                    <path d="M27.056,16.415c-0.483,-0.12 -1.016,0.345 -1.189,1.038c-0.173,0.693 0.079,1.353 0.563,1.474c0.483,0.121 1.016,-0.344 1.189,-1.037c0.173,-0.693 -0.079,-1.354 -0.563,-1.475Z" style="fill:#ff80b7;"/>
                    <path d="M29.218,18.58c-0.402,-0.1 -0.838,0.26 -0.973,0.802c-0.135,0.543 0.081,1.065 0.483,1.166c0.402,0.1 0.838,-0.259 0.973,-0.803c0.136,-0.543 -0.08,-1.065 -0.483,-1.165Z" style="fill:#ff80b7;"/>
                    <ellipse cx="23.855" cy="16.972" rx="0.946" ry="1.419" style="fill:#ff80b7;"/>
                    <path d="M20.462,16.326c-0.468,0.117 -0.703,0.791 -0.525,1.506c0.178,0.714 0.703,1.2 1.171,1.083c0.468,-0.117 0.703,-0.792 0.526,-1.506c-0.179,-0.715 -0.703,-1.2 -1.172,-1.083Z" style="fill:#ff80b7;"/>
                    <path d="M17.938,22.168c-0.428,0.428 -0.28,1.27 0.33,1.88c0.61,0.61 1.453,0.758 1.88,0.331c0.427,-0.428 0.279,-1.27 -0.331,-1.88c-0.61,-0.61 -1.452,-0.758 -1.879,-0.331Z" style="fill:#ff80b7;"/>
                    <path d="M27.407,25.088c0,-0.502 -0.199,-0.983 -0.554,-1.338c-0.388,-0.388 -0.923,-0.923 -1.419,-1.419c-0.355,-0.355 -0.836,-0.554 -1.338,-0.554c-0.502,0 -0.983,0.199 -1.338,0.554c-0.496,0.496 -1.032,1.031 -1.419,1.419c-0.355,0.355 -0.555,0.836 -0.555,1.338l0,0.237c0,0.437 0.202,0.85 0.546,1.118c0.345,0.27 0.794,0.365 1.218,0.259c0.434,-0.109 0.843,-0.211 1.085,-0.272c0.151,-0.037 0.304,-0.056 0.459,-0.056l0.008,0c0.154,0 0.308,0.019 0.458,0.056c0.243,0.061 0.652,0.163 1.086,0.272c0.424,0.106 0.873,0.011 1.217,-0.259c0.345,-0.268 0.546,-0.681 0.546,-1.118l0,-0.237Z" style="fill:#ff80b7;"/>
                </g>
            </g>
            <path d="M6.526,5.5c0.247,0.011 0.472,0.103 0.656,0.269c1.034,0.998 2.051,2.015 3.049,3.049c0.101,0.112 0.179,0.24 0.224,0.384c0.037,0.121 0.052,0.249 0.042,0.376c-0.009,0.114 -0.038,0.227 -0.085,0.332c-0.154,0.342 -0.495,0.573 -0.869,0.589c-0.103,0.005 -0.207,-0.007 -0.307,-0.035c-0.158,-0.043 -0.298,-0.124 -0.418,-0.233c-1.034,-0.998 -2.05,-2.015 -3.049,-3.049c-0.093,-0.103 -0.167,-0.22 -0.213,-0.352c-0.034,-0.098 -0.053,-0.201 -0.056,-0.304c-0.009,-0.362 0.185,-0.709 0.498,-0.891c0.14,-0.081 0.297,-0.124 0.459,-0.134c0.035,-0.001 0.034,-0.001 0.069,-0.001Zm19.017,0.001c0.139,0.008 0.273,0.04 0.399,0.102c0.324,0.16 0.541,0.492 0.557,0.854c0.005,0.103 -0.007,0.207 -0.035,0.307c-0.043,0.158 -0.124,0.298 -0.233,0.418c-0.998,1.034 -2.015,2.051 -3.049,3.049c-0.112,0.101 -0.24,0.179 -0.384,0.224c-0.121,0.037 -0.249,0.052 -0.376,0.042c-0.114,-0.009 -0.227,-0.038 -0.332,-0.085c-0.342,-0.154 -0.573,-0.495 -0.589,-0.869c-0.005,-0.103 0.007,-0.207 0.035,-0.307c0.043,-0.158 0.124,-0.298 0.233,-0.418c0.998,-1.034 2.015,-2.051 3.049,-3.049c0.184,-0.166 0.409,-0.258 0.656,-0.269c0.035,0 0.034,0 0.069,0.001Zm-9.483,-3.499c0.106,0.008 0.209,0.029 0.309,0.069c0.26,0.103 0.469,0.316 0.568,0.579c0.037,0.1 0.056,0.204 0.062,0.31c0.027,1.36 0.027,2.72 0,4.08c-0.009,0.16 -0.05,0.314 -0.13,0.454c-0.179,0.316 -0.526,0.513 -0.889,0.506c-0.106,-0.002 -0.212,-0.021 -0.312,-0.057c-0.112,-0.039 -0.217,-0.099 -0.309,-0.176c-0.102,-0.085 -0.186,-0.19 -0.247,-0.308c-0.068,-0.131 -0.102,-0.272 -0.111,-0.419c-0.027,-1.36 -0.027,-2.72 0,-4.08c0.006,-0.106 0.025,-0.21 0.062,-0.31c0.094,-0.25 0.288,-0.456 0.531,-0.564c0.098,-0.043 0.201,-0.068 0.307,-0.081c0.053,-0.004 0.105,-0.005 0.159,-0.003Z" style="fill:#fff;"/>
        </g>
    </g>
</svg>
