<?xml version="1.0" encoding="UTF-8" standalone="no"?>
<!DOCTYPE svg PUBLIC "-//W3C//DTD SVG 1.1//EN" "http://www.w3.org/Graphics/SVG/1.1/DTD/svg11.dtd">
<svg width="100%" height="100%" viewBox="0 0 32 32" version="1.1" xmlns="http://www.w3.org/2000/svg" xmlns:xlink="http://www.w3.org/1999/xlink" xml:space="preserve" xmlns:serif="http://www.serif.com/" style="fill-rule:evenodd;clip-rule:evenodd;stroke-linejoin:round;stroke-miterlimit:2;">
    <rect id="thumbs_up--paw-" serif:id="thumbs_up [paw]" x="0" y="0" width="32" height="32" style="fill:none;"/>
    <clipPath id="_clip1">
        <rect x="0" y="0" width="32" height="32"/>
    </clipPath>
    <g clip-path="url(#_clip1)">
        <g id="outline">
            <path d="M8.084,11l2.916,-4.582l0,-6.418c1.051,0 2.103,-0.011 3.154,0.002c0.203,0.008 0.406,0.02 0.608,0.046c0.443,0.056 0.881,0.163 1.301,0.317c0.772,0.282 1.482,0.725 2.077,1.292c0.629,0.599 1.125,1.335 1.443,2.143c0.182,0.461 0.306,0.946 0.369,1.438c0.026,0.202 0.038,0.405 0.046,0.608c0.011,0.899 0.002,1.797 0.002,2.696c-0.002,0.147 -0.011,0.293 -0.026,0.44c2.043,-0.007 4.086,-0.007 6.128,0.019c0.169,0.007 0.337,0.019 0.505,0.045c0.39,0.06 0.772,0.178 1.128,0.349c0.462,0.223 0.88,0.535 1.226,0.915c0.324,0.357 0.584,0.774 0.761,1.223c0.171,0.434 0.265,0.898 0.277,1.365c0.01,0.403 -0.041,0.808 -0.151,1.196c-0.079,0.278 -0.188,0.547 -0.325,0.801c0.156,0.127 0.303,0.265 0.438,0.414c0.325,0.358 0.584,0.774 0.761,1.223c0.284,0.719 0.352,1.517 0.197,2.274c-0.085,0.417 -0.238,0.819 -0.45,1.187c-0.102,0.178 -0.218,0.348 -0.346,0.508c0.25,0.311 0.452,0.66 0.599,1.032c0.171,0.434 0.265,0.898 0.277,1.365c0.01,0.403 -0.041,0.808 -0.151,1.196c-0.133,0.468 -0.352,0.911 -0.644,1.301c-0.381,0.51 -0.884,0.925 -1.457,1.204c0.155,0.415 0.241,0.856 0.252,1.299c0.01,0.403 -0.041,0.808 -0.151,1.196c-0.15,0.53 -0.411,1.026 -0.762,1.451c-0.409,0.496 -0.937,0.89 -1.528,1.14c-0.491,0.207 -1.014,0.308 -1.545,0.315l-6.026,0c-5.029,0 -10.058,0.061 -15.086,-0.001c-0.099,-0.004 -0.099,-0.004 -0.198,-0.01c-0.425,-0.037 -0.839,-0.13 -1.234,-0.293c-1.004,-0.416 -1.81,-1.242 -2.201,-2.256c-0.166,-0.43 -0.25,-0.881 -0.267,-1.341c-0.054,-4.399 -0.054,-8.799 0,-13.198c0.017,-0.46 0.101,-0.911 0.267,-1.341c0.224,-0.581 0.585,-1.107 1.047,-1.525c0.412,-0.373 0.901,-0.658 1.428,-0.833c0.403,-0.133 0.821,-0.197 1.244,-0.202l4.097,0Z"/>
        </g>
        <g id="emoji">
            <path d="M16.5,13l-12.5,0c-0.53,0 -1.039,0.211 -1.414,0.586c-0.375,0.375 -0.586,0.884 -0.586,1.414c0,3.271 0,9.729 0,13c0,0.53 0.211,1.039 0.586,1.414c0.375,0.375 0.884,0.586 1.414,0.586c3.977,0 12.5,0 12.5,0l0,-17Z" style="fill:#a90eb1;"/>
            <path d="M13,7c0,0 -3.508,5.512 -5.557,8.733c-0.942,1.48 -1.443,3.199 -1.443,4.955c0,0.618 0,1.304 0,2.017c0,1.934 0.769,3.79 2.137,5.158c1.368,1.368 3.224,2.137 5.158,2.137c3.292,0 6.455,0 6.455,0l2.233,-2l0.017,-15l-2.25,-2l-1.132,0c-0.347,0 -0.668,-0.179 -0.851,-0.474c-0.182,-0.295 -0.198,-0.663 -0.043,-0.973c0.022,-0.045 0.044,-0.089 0.065,-0.131c0.139,-0.277 0.211,-0.584 0.211,-0.894c0,-0.549 0,-1.51 0,-2.528c0,-2.209 -1.791,-4 -4,-4c-0.588,0 -1,0 -1,0l0,5Z" style="fill:#f10dc3;"/>
            <path d="M15.448,13c0.994,0 1.947,0.395 2.65,1.098c0.937,0.937 2.328,2.328 3.574,3.574c1.562,1.562 1.562,4.094 0,5.656c-1.246,1.246 -2.637,2.637 -3.574,3.574c-0.703,0.703 -1.656,1.098 -2.65,1.098c-0.001,0 -0.001,0 -0.001,0c-1.262,0 -2.447,-0.607 -3.185,-1.63c-0.738,-1.024 -0.939,-2.34 -0.539,-3.538c0.224,-0.674 0.425,-1.276 0.566,-1.7c0.137,-0.41 0.137,-0.854 0,-1.264c-0.141,-0.424 -0.342,-1.026 -0.566,-1.7c-0.4,-1.198 -0.199,-2.514 0.539,-3.538c0.738,-1.023 1.923,-1.63 3.185,-1.63l0.001,0Z" style="fill:#ff80b7;"/>
            <path d="M19.763,11l6.237,0l0,2l2,0l0,10l-1,0l0,5l-2.017,0l0.017,2l-5.236,0c-0.045,-0.051 -0.089,-0.103 -0.131,-0.156c-0.225,-0.29 -0.397,-0.62 -0.503,-0.971c-0.086,-0.283 -0.13,-0.578 -0.13,-0.873c0,-0.824 0.349,-1.627 0.95,-2.19c-0.153,-0.056 -0.302,-0.125 -0.445,-0.208c-0.27,-0.155 -0.516,-0.353 -0.726,-0.584c-0.227,-0.25 -0.412,-0.538 -0.543,-0.849c-0.304,-0.718 -0.314,-1.545 -0.028,-2.271c0.133,-0.336 0.328,-0.648 0.571,-0.916c0.167,-0.183 0.356,-0.346 0.562,-0.483c-0.269,-0.178 -0.509,-0.4 -0.708,-0.655c-0.225,-0.29 -0.397,-0.62 -0.503,-0.971c-0.086,-0.283 -0.13,-0.578 -0.13,-0.873c0,-0.841 0.363,-1.659 0.986,-2.224c0.2,-0.181 0.425,-0.335 0.666,-0.456c0.097,-0.049 0.196,-0.092 0.297,-0.129c-0.059,-0.056 -0.116,-0.113 -0.17,-0.173c-0.227,-0.25 -0.412,-0.538 -0.543,-0.849c-0.304,-0.718 -0.314,-1.545 -0.028,-2.27c0.13,-0.33 0.319,-0.635 0.555,-0.899Z" style="fill:#640082;"/>
            <path d="M25.002,30l-3.002,0c-1.105,0 -2,-0.895 -2,-2c0,-0.001 0,-0.001 0,-0.002c0,-1.103 0.895,-1.998 1.998,-1.998c0.941,0 2.061,0 3.002,0c1.105,0 2,0.895 2,2c0,0.001 0,0.001 0,0.002c0,1.103 -0.895,1.998 -1.998,1.998Zm2,-5l-6.004,0c-1.103,0 -1.998,-0.895 -1.998,-1.998c0,-0.001 0,-0.003 0,-0.004c0,-1.103 0.895,-1.998 1.998,-1.998c1.744,0 4.26,0 6.004,0c1.103,0 1.998,0.895 1.998,1.998c0,0.001 0,0.003 0,0.004c0,1.103 -0.895,1.998 -1.998,1.998Zm0,-5l-6.004,0c-1.103,0 -1.998,-0.895 -1.998,-1.998c0,-0.001 0,-0.003 0,-0.004c0,-1.103 0.895,-1.998 1.998,-1.998c1.744,0 4.26,0 6.004,0c1.103,0 1.998,0.895 1.998,1.998c0,0.001 0,0.003 0,0.004c0,1.103 -0.895,1.998 -1.998,1.998Zm-1.002,-9c1.105,0 2,0.895 2,2c0,1.105 -0.895,2 -2,2l-4,0c-0.279,-0.001 -0.557,-0.058 -0.812,-0.172c-0.239,-0.106 -0.456,-0.259 -0.636,-0.448c-0.172,-0.181 -0.31,-0.393 -0.404,-0.624c-0.087,-0.212 -0.136,-0.438 -0.146,-0.666c-0.01,-0.219 0.016,-0.439 0.077,-0.649c0.055,-0.187 0.137,-0.366 0.243,-0.529c0.234,-0.362 0.586,-0.642 0.99,-0.791c0.221,-0.08 0.454,-0.12 0.688,-0.121l4,0Z" style="fill:#f10dc3;"/>
        </g>
    </g>
</svg>
