<?xml version="1.0" encoding="UTF-8" standalone="no"?>
<!DOCTYPE svg PUBLIC "-//W3C//DTD SVG 1.1//EN" "http://www.w3.org/Graphics/SVG/1.1/DTD/svg11.dtd">
<svg width="100%" height="100%" viewBox="0 0 32 32" version="1.1" xmlns="http://www.w3.org/2000/svg" xmlns:xlink="http://www.w3.org/1999/xlink" xml:space="preserve" xmlns:serif="http://www.serif.com/" style="fill-rule:evenodd;clip-rule:evenodd;stroke-linejoin:round;stroke-miterlimit:2;">
    <rect id="vulcan--paw-" serif:id="vulcan [paw]" x="0" y="0" width="32" height="32" style="fill:none;"/>
    <clipPath id="_clip1">
        <rect x="0" y="0" width="32" height="32"/>
    </clipPath>
    <g clip-path="url(#_clip1)">
        <g id="outline">
            <path d="M14.25,9.52l1.981,-5.943c0.785,-2.356 3.336,-3.631 5.692,-2.846c1.391,0.464 2.406,1.543 2.841,2.834c0.906,-0.151 1.867,-0.027 2.75,0.415c2.221,1.111 3.122,3.817 2.01,6.038l-2.826,5.646c1.471,-0.018 2.936,0.61 3.938,1.837c1.744,2.138 1.425,5.291 -0.713,7.035c0,0 -3.559,2.905 -5.858,4.781c-1.828,1.492 -4.051,2.402 -6.382,2.627c-0.223,0.034 -0.451,0.052 -0.683,0.052l-0.16,0c-0.102,0.003 -0.204,0.004 -0.306,0.004l-0.534,0l0,-0.004l-0.493,0c-5.226,0 -9.865,-3.344 -11.518,-8.301c-1.611,-4.832 -3.758,-11.272 -3.758,-11.272c-0.786,-2.356 0.49,-4.906 2.846,-5.692c0.305,-0.102 0.614,-0.169 0.922,-0.204c-0.011,-1.894 1.185,-3.665 3.078,-4.296c2.356,-0.785 4.907,0.49 5.692,2.846l1.481,4.443Z"/>
        </g>
        <g id="emoji">
            <path d="M6.047,6.978c-0.047,-0.241 -0.06,-0.487 -0.034,-0.733c0.033,-0.32 0.128,-0.632 0.279,-0.916c0.146,-0.276 0.343,-0.523 0.58,-0.727c0.212,-0.182 0.456,-0.328 0.716,-0.43c0.256,-0.1 0.527,-0.158 0.8,-0.17c0.771,-0.035 1.534,0.302 2.029,0.893c0.202,0.241 0.354,0.518 0.455,0.814l2.492,7.476l1.772,0l2.992,-8.976c0.437,-1.309 1.854,-2.017 3.163,-1.581c1.309,0.437 2.017,1.854 1.581,3.163l-0.113,0.337l-3.408,7.669c-0.027,0.061 -0.042,0.127 -0.043,0.194c-0.004,0.208 0.126,0.401 0.32,0.476c0.055,0.021 0.112,0.032 0.17,0.033c0.061,0.001 0.121,-0.009 0.178,-0.029c0.06,-0.022 0.117,-0.055 0.165,-0.098c0.053,-0.047 0.094,-0.105 0.124,-0.17l3.593,-8.085c0.741,-0.644 1.828,-0.817 2.761,-0.35c1.234,0.618 1.734,2.121 1.117,3.355l-5.736,11.46l0,0.093l2.865,-2.338c1.283,-1.047 3.174,-0.855 4.221,0.428c1.047,1.283 0.855,3.174 -0.427,4.221c0,0 -3.559,2.904 -5.859,4.781c-1.537,1.254 -3.411,2.014 -5.374,2.192c-0.138,0.024 -0.281,0.036 -0.426,0.036l-0.187,0c-0.093,0.003 -0.186,0.004 -0.279,0.004l-0.534,0l0,-0.004l-0.496,0c-4.363,0 -8.237,-2.79 -9.619,-6.929c-1.614,-4.832 -3.765,-11.275 -3.765,-11.275c-0.437,-1.309 0.27,-2.726 1.579,-3.163c0.657,-0.22 1.341,-0.151 1.915,0.138l2.414,6.898c0.024,0.067 0.061,0.128 0.11,0.18c0.044,0.046 0.097,0.084 0.156,0.11c0.055,0.025 0.114,0.04 0.175,0.044c0.058,0.004 0.116,-0.003 0.172,-0.019c0.199,-0.059 0.345,-0.241 0.358,-0.449c0.004,-0.067 -0.006,-0.133 -0.027,-0.196l-2.925,-8.357Z" style="fill:#f10dc3;"/>
            <path d="M28.406,18.861c0.786,1.007 0.257,2.736 -1.181,3.857c-1.438,1.121 -3.243,1.213 -4.029,0.206c-0.786,-1.008 -0.256,-2.736 1.181,-3.858c1.438,-1.121 3.244,-1.213 4.029,-0.205Zm-24.532,-9.036c0.849,-0.212 1.771,0.548 2.057,1.696c0.287,1.148 -0.171,2.251 -1.02,2.463c-0.85,0.212 -1.772,-0.548 -2.058,-1.695c-0.286,-1.148 0.171,-2.252 1.021,-2.464Zm22.195,-3c0.907,0.467 1.065,1.969 0.354,3.354c-0.712,1.384 -2.026,2.13 -2.933,1.664c-0.907,-0.467 -1.066,-1.969 -0.354,-3.354c0.711,-1.384 2.026,-2.13 2.933,-1.664Zm-17.959,-1.725c1.023,-0.255 2.149,0.728 2.514,2.193c0.366,1.466 -0.168,2.862 -1.19,3.117c-1.022,0.255 -2.149,-0.728 -2.514,-2.193c-0.365,-1.465 0.168,-2.862 1.19,-3.117Zm12.707,-1.249c1.039,0.371 1.431,1.938 0.874,3.497c-0.557,1.56 -1.853,2.524 -2.892,2.153c-1.04,-0.371 -1.432,-1.938 -0.875,-3.498c0.557,-1.559 1.853,-2.524 2.893,-2.152Z" style="fill:#ff80b7;"/>
            <path d="M8,23.657c0,-1.061 0.421,-2.078 1.172,-2.829c0.819,-0.819 1.951,-1.951 3,-3c0.75,-0.75 1.767,-1.171 2.828,-1.171c1.061,0 2.078,0.421 2.828,1.171c1.049,1.049 2.181,2.181 3,3c0.751,0.751 1.172,1.768 1.172,2.829c0,0.161 0,0.329 0,0.501c0,0.923 -0.426,1.796 -1.154,2.364c-0.728,0.569 -1.677,0.77 -2.574,0.546c-0.917,-0.229 -1.782,-0.445 -2.294,-0.574c-0.318,-0.079 -0.643,-0.119 -0.97,-0.119c-0.005,0 -0.011,0 -0.016,0c-0.327,0 -0.652,0.04 -0.97,0.119c-0.512,0.129 -1.377,0.345 -2.294,0.574c-0.897,0.224 -1.846,0.023 -2.574,-0.546c-0.728,-0.568 -1.154,-1.441 -1.154,-2.364c0,-0.172 0,-0.34 0,-0.501Z" style="fill:#ff80b7;"/>
        </g>
    </g>
</svg>
