<?xml version="1.0" encoding="UTF-8" standalone="no"?>
<!DOCTYPE svg PUBLIC "-//W3C//DTD SVG 1.1//EN" "http://www.w3.org/Graphics/SVG/1.1/DTD/svg11.dtd">
<svg width="100%" height="100%" viewBox="0 0 32 32" version="1.1" xmlns="http://www.w3.org/2000/svg" xmlns:xlink="http://www.w3.org/1999/xlink" xml:space="preserve" xmlns:serif="http://www.serif.com/" style="fill-rule:evenodd;clip-rule:evenodd;stroke-linejoin:round;stroke-miterlimit:2;">
    <rect id="wave--paw-" serif:id="wave [paw]" x="0" y="0" width="32" height="32" style="fill:none;"/>
    <g id="outline">
        <path d="M3.695,26c-0.513,-0.791 -0.607,-1.826 -0.155,-2.73c0.28,-0.559 0.725,-0.982 1.247,-1.238c-1.325,-1.232 -1.657,-3.264 -0.69,-4.878c0.061,-0.103 0.127,-0.203 0.197,-0.297c-0.068,-0.084 -0.132,-0.171 -0.193,-0.26c-0.677,-1.001 -0.854,-2.293 -0.471,-3.439c0.136,-0.406 0.34,-0.789 0.599,-1.13c0.267,-0.35 0.592,-0.654 0.959,-0.896c0.219,-0.144 0.452,-0.266 0.696,-0.363c-0.076,-0.322 -0.111,-0.654 -0.103,-0.985c0.012,-0.488 0.115,-0.973 0.304,-1.423c0.17,-0.405 0.409,-0.781 0.704,-1.107c0.287,-0.318 0.626,-0.589 1,-0.797c0.902,-0.503 1.984,-0.622 2.971,-0.346c0.173,-0.574 0.475,-1.109 0.89,-1.551c0.293,-0.313 0.638,-0.576 1.016,-0.778c0.388,-0.206 0.81,-0.347 1.245,-0.414c0.465,-0.071 0.943,-0.058 1.404,0.04c0.108,-0.496 0.355,-0.967 0.74,-1.353c0.74,-0.739 1.797,-0.969 2.733,-0.69c0.08,-0.108 0.169,-0.212 0.267,-0.31c1.074,-1.073 2.816,-1.073 3.89,0l2,2c1.073,1.074 1.073,2.816 0,3.89c-0.124,0.123 -0.256,0.232 -0.395,0.327c2.008,0.362 3.533,2.12 3.533,4.231c0,0 0,3.809 0,6.379c0,2.149 -0.703,4.226 -1.982,5.923c-0.091,0.177 -0.212,0.343 -0.361,0.492c0,0 -0.042,0.043 -0.119,0.12l-0.18,0.174c-0.078,0.085 -0.158,0.168 -0.24,0.25c0,0 0,0 0,0c-0.109,0.108 -0.226,0.201 -0.351,0.279c-3.109,2.596 -7.332,3.351 -11.106,2.072c-0.025,0.351 -0.117,0.704 -0.284,1.038c-0.373,0.746 -1.041,1.248 -1.792,1.437c-0.047,0.191 -0.117,0.38 -0.208,0.563c-0.679,1.357 -2.332,1.908 -3.69,1.23l-3,-1.5c-1.357,-0.679 -1.908,-2.332 -1.23,-3.69c0.047,-0.094 0.099,-0.184 0.155,-0.27Z"/>
    </g>
    <g id="emoji">
        <path d="M14.406,10.795l-1.542,-2.571c-0.123,-0.207 -0.208,-0.433 -0.248,-0.67c-0.097,-0.583 0.088,-1.195 0.493,-1.626c0.143,-0.153 0.312,-0.282 0.497,-0.381c0.19,-0.101 0.396,-0.17 0.608,-0.202c0.236,-0.036 0.479,-0.028 0.712,0.025c0.24,0.054 0.47,0.154 0.672,0.294c0.224,0.155 0.41,0.357 0.551,0.589l5.336,8.894l0,-3.644c0,-1.269 1.03,-2.299 2.299,-2.299c1.269,0 2.299,1.03 2.299,2.299l0,6.379c0,1.823 -0.634,3.58 -1.781,4.976l0.024,0.025c0,0 -0.043,0.042 -0.12,0.119c-0.063,0.064 -0.128,0.127 -0.193,0.189c-0.074,0.08 -0.149,0.158 -0.226,0.235c0,0.001 -0.001,0.001 -0.001,0.001l-0.015,-0.016c-3.101,2.739 -7.645,3.181 -11.233,1.032c-2.945,-1.763 -6.067,-3.633 -6.067,-3.633c-0.907,-0.544 -1.202,-1.721 -0.659,-2.628c0.27,-0.451 0.696,-0.75 1.167,-0.871l4.257,3.041c0.042,0.029 0.089,0.051 0.139,0.062c0.156,0.035 0.321,-0.033 0.407,-0.168c0.024,-0.037 0.041,-0.079 0.051,-0.122c0.01,-0.045 0.012,-0.092 0.005,-0.138c-0.007,-0.049 -0.023,-0.096 -0.048,-0.139c-0.027,-0.047 -0.065,-0.087 -0.108,-0.119l-5.895,-4.21c-0.01,-0.014 -0.02,-0.028 -0.029,-0.042c-0.332,-0.49 -0.419,-1.122 -0.231,-1.683c0.066,-0.199 0.166,-0.387 0.293,-0.554c0.131,-0.171 0.289,-0.319 0.468,-0.437c0.2,-0.132 0.424,-0.225 0.658,-0.275c0.241,-0.051 0.491,-0.055 0.734,-0.012c0.268,0.047 0.521,0.153 0.746,0.305l1.326,0.908l3.197,3.196c0.039,0.038 0.084,0.068 0.135,0.088c0.046,0.017 0.096,0.025 0.145,0.024c0.046,-0.001 0.092,-0.01 0.135,-0.028c0.041,-0.016 0.08,-0.04 0.113,-0.07c0.118,-0.107 0.158,-0.281 0.098,-0.429c-0.019,-0.048 -0.048,-0.09 -0.084,-0.127l-5.152,-5.151c-0.19,-0.193 -0.34,-0.422 -0.436,-0.676c-0.087,-0.23 -0.128,-0.477 -0.122,-0.723c0.005,-0.239 0.056,-0.477 0.148,-0.697c0.083,-0.198 0.2,-0.381 0.344,-0.541c0.141,-0.155 0.307,-0.288 0.49,-0.39c0.517,-0.288 1.154,-0.319 1.697,-0.084c0.22,0.096 0.419,0.234 0.59,0.403l4.709,4.709l0,0l0.17,0.17c0.037,0.036 0.079,0.065 0.127,0.084c0.148,0.06 0.322,0.02 0.429,-0.098c0.03,-0.033 0.054,-0.072 0.07,-0.113c0.018,-0.043 0.027,-0.089 0.028,-0.135c0.001,-0.049 -0.007,-0.098 -0.024,-0.145c-0.02,-0.051 -0.05,-0.096 -0.088,-0.135l-2.065,-2.065Z" style="fill:#f10dc3;"/>
        <path d="M21.522,15.84c0.756,0 1.481,0.301 2.015,0.835c0.001,0 0.001,0 0.001,0c0.581,0.581 0.862,1.398 0.761,2.213c-0.1,0.815 -0.571,1.539 -1.275,1.962c-0.461,0.276 -0.874,0.524 -1.144,0.686c-0.215,0.129 -0.413,0.283 -0.591,0.46l-0.009,0.008c-0.18,0.18 -0.337,0.381 -0.468,0.6c-0.162,0.27 -0.41,0.683 -0.686,1.144c-0.423,0.704 -1.147,1.175 -1.962,1.275c-0.815,0.1 -1.632,-0.18 -2.213,-0.761c0,0 0,-0.001 0,-0.001c-0.534,-0.534 -0.835,-1.259 -0.835,-2.015c0,-0.66 0,-1.525 0,-2.406c0,-1.06 0.422,-2.078 1.172,-2.828c0.75,-0.75 1.768,-1.172 2.828,-1.172l2.406,0Zm-15.037,3.105c0.345,-0.576 1.257,-0.663 2.034,-0.197c0.777,0.467 1.127,1.313 0.781,1.888c-0.345,0.575 -1.257,0.663 -2.034,0.197c-0.777,-0.467 -1.127,-1.313 -0.781,-1.888Zm-0.003,-4.957c0.416,-0.692 1.559,-0.77 2.551,-0.174c0.992,0.596 1.459,1.642 1.043,2.334c-0.415,0.692 -1.558,0.77 -2.55,0.174c-0.992,-0.596 -1.46,-1.642 -1.044,-2.334Zm17.035,-3.855c0.979,0 1.774,1.134 1.774,2.531c0,1.398 -0.795,2.532 -1.774,2.532c-0.979,0 -1.774,-1.134 -1.774,-2.532c0,-1.397 0.795,-2.531 1.774,-2.531Zm-14.356,-0.8c0.598,-0.598 1.812,-0.356 2.709,0.542c0.897,0.897 1.14,2.111 0.542,2.709c-0.598,0.598 -1.812,0.355 -2.709,-0.542c-0.897,-0.897 -1.14,-2.111 -0.542,-2.709Zm4.771,-3.001c0.67,-0.402 1.713,0.101 2.327,1.124c0.615,1.022 0.57,2.179 -0.1,2.582c-0.67,0.402 -1.713,-0.101 -2.327,-1.124c-0.615,-1.022 -0.57,-2.179 0.1,-2.582Z" style="fill:#ff80b7;"/>
        <path d="M5.665,28.171l3,1.5c0.37,0.185 0.821,0.035 1.006,-0.336c0.185,-0.37 0.035,-0.821 -0.336,-1.006l-3,-1.5c-0.37,-0.185 -0.821,-0.035 -1.006,0.336c-0.185,0.37 -0.035,0.821 0.336,1.006Zm0,-3l5,2.5c0.37,0.185 0.821,0.035 1.006,-0.336c0.185,-0.37 0.035,-0.821 -0.336,-1.006l-5,-2.5c-0.37,-0.185 -0.821,-0.035 -1.006,0.336c-0.185,0.37 -0.035,0.821 0.336,1.006Zm11.805,-20.641l3,3c0.292,0.293 0.768,0.293 1.06,0c0.293,-0.292 0.293,-0.768 0,-1.06l-3,-3c-0.292,-0.293 -0.768,-0.293 -1.06,0c-0.293,0.292 -0.293,0.768 0,1.06Zm3,-1l2,2c0.292,0.293 0.768,0.293 1.06,0c0.293,-0.292 0.293,-0.768 0,-1.06l-2,-2c-0.292,-0.293 -0.768,-0.293 -1.06,0c-0.293,0.292 -0.293,0.768 0,1.06Z" style="fill:#565656;"/>
    </g>
</svg>
