<?xml version="1.0" encoding="UTF-8" standalone="no"?>
<!DOCTYPE svg PUBLIC "-//W3C//DTD SVG 1.1//EN" "http://www.w3.org/Graphics/SVG/1.1/DTD/svg11.dtd">
<svg width="100%" height="100%" viewBox="0 0 32 32" version="1.1" xmlns="http://www.w3.org/2000/svg" xmlns:xlink="http://www.w3.org/1999/xlink" xml:space="preserve" xmlns:serif="http://www.serif.com/" style="fill-rule:evenodd;clip-rule:evenodd;stroke-linecap:round;stroke-linejoin:round;stroke-miterlimit:2;">
    <rect id="wave--paw-" serif:id="wave [paw]" x="0" y="0" width="32" height="32" style="fill:none;"/>
    <g id="outline">
        <path d="M6,24.5l5,2.5" style="fill:none;stroke:#000;stroke-width:5.5px;"/>
        <path d="M6,27.5l3,1.5" style="fill:none;stroke:#000;stroke-width:5.5px;"/>
        <path d="M18,4l3,3" style="fill:none;stroke:#000;stroke-width:5.5px;"/>
        <path d="M21,3l2,2" style="fill:none;stroke:#000;stroke-width:5.5px;"/>
    </g>
    <g>
        <path d="M12.985,15.751l-4.608,-4.608l-0.068,-0.071l-0.064,-0.075l-0.06,-0.079l-0.056,-0.081l-0.053,-0.084l-0.047,-0.086l-0.043,-0.089l-0.038,-0.091l-0.034,-0.093l-0.029,-0.094l-0.023,-0.096l-0.02,-0.096l-0.013,-0.098l-0.009,-0.098l-0.004,-0.099l0.001,-0.099l0.006,-0.098l0.011,-0.098l0.017,-0.097l0.022,-0.096l0.026,-0.096l0.031,-0.093l0.036,-0.092l0.041,-0.09l0.045,-0.087l0.05,-0.086l0.054,-0.082l0.058,-0.08l0.063,-0.076l0.066,-0.074l0.069,-0.069l0.074,-0.067l0.076,-0.062l0.08,-0.058l0.082,-0.054l0.086,-0.05l0.087,-0.045l0.09,-0.041l0.092,-0.036l0.093,-0.031l0.096,-0.026l0.096,-0.022l0.097,-0.016l0.098,-0.012l0.098,-0.006l0.099,-0.001l0.099,0.004l0.098,0.009l0.098,0.013l0.096,0.019l0.097,0.024l0.093,0.029l0.094,0.034l0.09,0.038l0.089,0.043l0.087,0.047l0.084,0.052l0.08,0.056l0.079,0.06l0.075,0.064l0.071,0.069l4.608,4.608l0.094,-0.094l-2.888,-4.813l-0.047,-0.082l-0.042,-0.084l-0.038,-0.086l-0.034,-0.088l-0.029,-0.089l-0.026,-0.09l-0.02,-0.092l-0.017,-0.092l-0.011,-0.094l-0.007,-0.094l-0.003,-0.093l0.002,-0.095l0.007,-0.094l0.012,-0.093l0.016,-0.092l0.021,-0.092l0.025,-0.091l0.029,-0.089l0.034,-0.088l0.038,-0.086l0.042,-0.084l0.046,-0.082l0.051,-0.079l0.054,-0.077l0.058,-0.074l0.061,-0.071l0.065,-0.069l0.068,-0.065l0.071,-0.061l0.075,-0.058l0.077,-0.054l0.079,-0.05l0.081,-0.047l0.084,-0.042l0.087,-0.038l0.087,-0.034l0.089,-0.029l0.091,-0.026l0.092,-0.02l0.092,-0.016l0.094,-0.012l0.093,-0.007l0.094,-0.003l0.094,0.003l0.094,0.007l0.093,0.012l0.093,0.015l0.092,0.021l0.09,0.025l0.09,0.03l0.087,0.033l0.087,0.039l0.084,0.041l0.081,0.046l0.08,0.051l0.077,0.054l0.074,0.058l0.071,0.061l0.068,0.065l0.065,0.068l0.062,0.071l0.058,0.075l0.054,0.077l0.05,0.079l4.66,7.768l0.677,0.676l0,-3.194l0.001,-0.087l0.005,-0.087l0.008,-0.087l0.012,-0.086l0.015,-0.085l0.018,-0.086l0.02,-0.084l0.025,-0.084l0.027,-0.082l0.031,-0.082l0.034,-0.08l0.036,-0.078l0.04,-0.078l0.042,-0.076l0.046,-0.074l0.048,-0.073l0.051,-0.071l0.053,-0.068l0.057,-0.066l0.058,-0.065l0.061,-0.062l0.063,-0.06l0.066,-0.057l0.067,-0.055l0.07,-0.052l0.071,-0.049l0.074,-0.047l0.075,-0.045l0.077,-0.041l0.078,-0.038l0.079,-0.035l0.081,-0.032l0.083,-0.029l0.082,-0.026l0.084,-0.023l0.085,-0.019l0.086,-0.017l0.085,-0.013l0.087,-0.009l0.087,-0.007l0.087,-0.004l0.087,0l0.087,0.004l0.087,0.007l0.086,0.009l0.086,0.013l0.085,0.017l0.085,0.019l0.085,0.023l0.082,0.026l0.082,0.029l0.081,0.032l0.08,0.035l0.078,0.038l0.077,0.041l0.074,0.045l0.074,0.047l0.072,0.049l0.069,0.052l0.068,0.055l0.065,0.057l0.064,0.06l0.06,0.062l0.059,0.065l0.056,0.066l0.053,0.068l0.052,0.071l0.048,0.073l0.045,0.074l0.043,0.076l0.039,0.078l0.037,0.078l0.033,0.08l0.031,0.082l0.027,0.082l0.025,0.084l0.021,0.084l0.018,0.086l0.015,0.085l0.011,0.086l0.009,0.087l0.005,0.087l0.001,0.087l0,6.488l0,0.087l-0.002,0.094l-0.003,0.094l-0.004,0.094l-0.005,0.094l-0.007,0.093l-0.007,0.094l-0.009,0.093l-0.01,0.093l-0.011,0.093l-0.012,0.093l-0.013,0.092l-0.014,0.092l-0.016,0.093l-0.016,0.091l-0.018,0.091l-0.018,0.091l-0.02,0.091l-0.022,0.09l-0.022,0.091l-0.023,0.09l-0.025,0.09l-0.024,0.089l-0.027,0.089l-0.028,0.088l-0.028,0.089l-0.03,0.087l-0.03,0.088l-0.032,0.086l-0.034,0.087l-0.033,0.087l-0.035,0.085l-0.036,0.085l-0.037,0.085l-0.038,0.084l-0.039,0.085l-0.04,0.083l-0.042,0.083l-0.041,0.083l-0.043,0.082l-0.045,0.081l-0.045,0.082l-0.046,0.08l-0.047,0.08l-0.048,0.079l-0.05,0.079l-0.05,0.078l-0.051,0.078l-0.052,0.077l-0.053,0.077l-0.006,0.009l-0.027,0.055l-0.046,0.084l-0.052,0.083l-0.055,0.079l-0.06,0.077l-0.063,0.074l-0.067,0.07l-0.319,0.32l-0.016,0.017l-0.066,0.068l-0.061,0.062l-0.078,0.077l-0.062,0.061l-0.019,0.016l-0.542,0.543l-0.06,0.058l-0.061,0.057l-0.06,0.056l-0.062,0.056l-0.061,0.054l-0.063,0.055l-0.062,0.053l-0.063,0.053l-0.064,0.051l-0.064,0.051l-0.065,0.051l-0.065,0.05l-0.065,0.049l-0.065,0.048l-0.067,0.047l-0.066,0.047l-0.068,0.046l-0.067,0.045l-0.068,0.044l-0.067,0.044l-0.07,0.043l-0.069,0.042l-0.069,0.041l-0.07,0.041l-0.069,0.04l-0.071,0.039l-0.071,0.039l-0.071,0.037l-0.071,0.037l-0.072,0.036l-0.072,0.035l-0.072,0.034l-0.072,0.034l-0.074,0.033l-0.073,0.032l-0.073,0.031l-0.074,0.031l-0.073,0.029l-0.075,0.029l-0.075,0.029l-0.074,0.027l-0.075,0.026l-0.075,0.027l-0.075,0.025l-0.076,0.024l-0.076,0.023l-0.076,0.023l-0.076,0.022l-0.076,0.022l-0.077,0.02l-0.077,0.019l-0.076,0.019l-0.078,0.018l-0.077,0.017l-0.078,0.017l-0.077,0.015l-0.078,0.015l-0.078,0.014l-0.077,0.014l-0.079,0.012l-0.078,0.012l-0.078,0.011l-0.078,0.01l-0.079,0.009l-0.078,0.008l-0.079,0.009l-0.079,0.006l-0.079,0.006l-0.079,0.005l-0.078,0.005l-0.079,0.004l-0.08,0.003l-0.079,0.001l-0.079,0.002l-0.079,0l-0.079,0l-0.079,-0.001l-0.08,-0.002l-0.079,-0.003l-0.079,-0.003l-0.079,-0.005l-0.08,-0.005l-0.079,-0.006l-0.079,-0.006l-0.079,-0.008l-0.079,-0.009l-0.079,-0.009l-0.08,-0.01l-0.079,-0.011l-0.078,-0.011l-0.079,-0.013l-0.079,-0.014l-0.078,-0.013l-0.08,-0.016l-0.156,-0.032l-0.079,-0.018l-0.078,-0.018l-0.077,-0.019l-0.078,-0.019l-0.078,-0.022l-0.078,-0.021l-0.077,-0.022l-0.078,-0.024l-0.077,-0.024l-0.077,-0.025l-0.077,-0.026l-0.076,-0.026l-0.076,-0.028l-0.076,-0.028l-0.077,-0.029l-0.076,-0.03l-0.075,-0.031l-0.075,-0.031l-0.076,-0.033l-0.074,-0.032l-0.075,-0.035l-0.074,-0.035l-0.075,-0.035l-0.073,-0.037l-0.073,-0.038l-0.074,-0.038l-0.073,-0.039l-0.072,-0.04l-0.072,-0.04l-0.072,-0.042l-0.068,-0.04l-7.266,-4.352l-0.081,-0.051l-0.08,-0.057l-0.076,-0.06l-0.073,-0.063l-0.07,-0.068l-0.067,-0.071l-0.062,-0.074l-0.058,-0.077l-0.056,-0.08l-0.051,-0.083l-0.046,-0.085l-0.042,-0.088l-0.037,-0.089l-0.033,-0.092l-0.029,-0.092l-0.024,-0.095l-0.018,-0.095l-0.014,-0.096l-0.01,-0.096l-0.004,-0.097l0.001,-0.097l0.006,-0.097l0.01,-0.097l0.015,-0.096l0.021,-0.095l0.025,-0.093l0.03,-0.093l0.034,-0.09l0.039,-0.089l0.044,-0.087l0.047,-0.085l0.052,-0.082l0.056,-0.079l0.06,-0.076l0.064,-0.073l0.068,-0.07l0.07,-0.067l0.075,-0.062l0.077,-0.059l0.08,-0.055l0.083,-0.051l0.084,-0.046l0.088,-0.042l0.09,-0.038l0.091,-0.033l0.093,-0.029l0.094,-0.022l0.095,-0.02l0.096,-0.013l0.097,-0.01l0.097,-0.004l0.097,0.001l0.097,0.006l0.096,0.01l0.096,0.016l0.095,0.02l0.094,0.025l0.092,0.029l0.091,0.035l0.089,0.039l0.087,0.043l0.085,0.048l0.582,0.349l-2.761,-1.889l-0.078,-0.057l-0.076,-0.061l-0.073,-0.065l-0.069,-0.067l-0.066,-0.072l-0.061,-0.075l-0.058,-0.077l-0.055,-0.081l-0.05,-0.083l-0.046,-0.086l-0.041,-0.088l-0.037,-0.09l-0.032,-0.091l-0.027,-0.093l-0.022,-0.095l-0.019,-0.095l-0.012,-0.096l-0.008,-0.097l-0.004,-0.097l0.002,-0.097l0.006,-0.097l0.012,-0.096l0.017,-0.096l0.021,-0.095l0.025,-0.093l0.031,-0.092l0.035,-0.09l0.04,-0.089l0.044,-0.086l0.049,-0.085l0.053,-0.081l0.057,-0.079l0.06,-0.075l0.065,-0.073l0.068,-0.07l0.072,-0.065l0.074,-0.061l0.078,-0.059l0.081,-0.054l0.083,-0.05l0.086,-0.046l0.087,-0.041l0.09,-0.037l0.092,-0.032l0.093,-0.027l0.094,-0.022l0.096,-0.019l0.096,-0.013l0.097,-0.007l0.097,-0.004l0.097,0.001l0.097,0.008l0.096,0.011l0.096,0.016l0.094,0.022l0.094,0.025l0.092,0.031l0.09,0.035l0.089,0.04l0.086,0.044l0.084,0.049l0.081,0.053l4.48,3.064l0.044,-0.044Z" style="fill:none;stroke:#000;stroke-width:4px;stroke-linecap:butt;stroke-miterlimit:1.41421;"/>
        <path d="M12.985,15.751l-4.608,-4.608l-0.068,-0.071l-0.064,-0.075l-0.06,-0.079l-0.056,-0.081l-0.053,-0.084l-0.047,-0.086l-0.043,-0.089l-0.038,-0.091l-0.034,-0.093l-0.029,-0.094l-0.023,-0.096l-0.02,-0.096l-0.013,-0.098l-0.009,-0.098l-0.004,-0.099l0.001,-0.099l0.006,-0.098l0.011,-0.098l0.017,-0.097l0.022,-0.096l0.026,-0.096l0.031,-0.093l0.036,-0.092l0.041,-0.09l0.045,-0.087l0.05,-0.086l0.054,-0.082l0.058,-0.08l0.063,-0.076l0.066,-0.074l0.069,-0.069l0.074,-0.067l0.076,-0.062l0.08,-0.058l0.082,-0.054l0.086,-0.05l0.087,-0.045l0.09,-0.041l0.092,-0.036l0.093,-0.031l0.096,-0.026l0.096,-0.022l0.097,-0.016l0.098,-0.012l0.098,-0.006l0.099,-0.001l0.099,0.004l0.098,0.009l0.098,0.013l0.096,0.019l0.097,0.024l0.093,0.029l0.094,0.034l0.09,0.038l0.089,0.043l0.087,0.047l0.084,0.052l0.08,0.056l0.079,0.06l0.075,0.064l0.071,0.069l4.608,4.608l0.094,-0.094l-2.888,-4.813l-0.047,-0.082l-0.042,-0.084l-0.038,-0.086l-0.034,-0.088l-0.029,-0.089l-0.026,-0.09l-0.02,-0.092l-0.017,-0.092l-0.011,-0.094l-0.007,-0.094l-0.003,-0.093l0.002,-0.095l0.007,-0.094l0.012,-0.093l0.016,-0.092l0.021,-0.092l0.025,-0.091l0.029,-0.089l0.034,-0.088l0.038,-0.086l0.042,-0.084l0.046,-0.082l0.051,-0.079l0.054,-0.077l0.058,-0.074l0.061,-0.071l0.065,-0.069l0.068,-0.065l0.071,-0.061l0.075,-0.058l0.077,-0.054l0.079,-0.05l0.081,-0.047l0.084,-0.042l0.087,-0.038l0.087,-0.034l0.089,-0.029l0.091,-0.026l0.092,-0.02l0.092,-0.016l0.094,-0.012l0.093,-0.007l0.094,-0.003l0.094,0.003l0.094,0.007l0.093,0.012l0.093,0.015l0.092,0.021l0.09,0.025l0.09,0.03l0.087,0.033l0.087,0.039l0.084,0.041l0.081,0.046l0.08,0.051l0.077,0.054l0.074,0.058l0.071,0.061l0.068,0.065l0.065,0.068l0.062,0.071l0.058,0.075l0.054,0.077l0.05,0.079l4.66,7.768l0.677,0.676l0,-3.194l0.001,-0.087l0.005,-0.087l0.008,-0.087l0.012,-0.086l0.015,-0.085l0.018,-0.086l0.02,-0.084l0.025,-0.084l0.027,-0.082l0.031,-0.082l0.034,-0.08l0.036,-0.078l0.04,-0.078l0.042,-0.076l0.046,-0.074l0.048,-0.073l0.051,-0.071l0.053,-0.068l0.057,-0.066l0.058,-0.065l0.061,-0.062l0.063,-0.06l0.066,-0.057l0.067,-0.055l0.07,-0.052l0.071,-0.049l0.074,-0.047l0.075,-0.045l0.077,-0.041l0.078,-0.038l0.079,-0.035l0.081,-0.032l0.083,-0.029l0.082,-0.026l0.084,-0.023l0.085,-0.019l0.086,-0.017l0.085,-0.013l0.087,-0.009l0.087,-0.007l0.087,-0.004l0.087,0l0.087,0.004l0.087,0.007l0.086,0.009l0.086,0.013l0.085,0.017l0.085,0.019l0.085,0.023l0.082,0.026l0.082,0.029l0.081,0.032l0.08,0.035l0.078,0.038l0.077,0.041l0.074,0.045l0.074,0.047l0.072,0.049l0.069,0.052l0.068,0.055l0.065,0.057l0.064,0.06l0.06,0.062l0.059,0.065l0.056,0.066l0.053,0.068l0.052,0.071l0.048,0.073l0.045,0.074l0.043,0.076l0.039,0.078l0.037,0.078l0.033,0.08l0.031,0.082l0.027,0.082l0.025,0.084l0.021,0.084l0.018,0.086l0.015,0.085l0.011,0.086l0.009,0.087l0.005,0.087l0.001,0.087l0,6.488l0,0.087l-0.002,0.094l-0.003,0.094l-0.004,0.094l-0.005,0.094l-0.007,0.093l-0.007,0.094l-0.009,0.093l-0.01,0.093l-0.011,0.093l-0.012,0.093l-0.013,0.092l-0.014,0.092l-0.016,0.093l-0.016,0.091l-0.018,0.091l-0.018,0.091l-0.02,0.091l-0.022,0.09l-0.022,0.091l-0.023,0.09l-0.025,0.09l-0.024,0.089l-0.027,0.089l-0.028,0.088l-0.028,0.089l-0.03,0.087l-0.03,0.088l-0.032,0.086l-0.034,0.087l-0.033,0.087l-0.035,0.085l-0.036,0.085l-0.037,0.085l-0.038,0.084l-0.039,0.085l-0.04,0.083l-0.042,0.083l-0.041,0.083l-0.043,0.082l-0.045,0.081l-0.045,0.082l-0.046,0.08l-0.047,0.08l-0.048,0.079l-0.05,0.079l-0.05,0.078l-0.051,0.078l-0.052,0.077l-0.053,0.077l-0.006,0.009l-0.027,0.055l-0.046,0.084l-0.052,0.083l-0.055,0.079l-0.06,0.077l-0.063,0.074l-0.067,0.07l-0.319,0.32l-0.016,0.017l-0.066,0.068l-0.061,0.062l-0.078,0.077l-0.062,0.061l-0.019,0.016l-0.542,0.543l-0.06,0.058l-0.061,0.057l-0.06,0.056l-0.062,0.056l-0.061,0.054l-0.063,0.055l-0.062,0.053l-0.063,0.053l-0.064,0.051l-0.064,0.051l-0.065,0.051l-0.065,0.05l-0.065,0.049l-0.065,0.048l-0.067,0.047l-0.066,0.047l-0.068,0.046l-0.067,0.045l-0.068,0.044l-0.067,0.044l-0.07,0.043l-0.069,0.042l-0.069,0.041l-0.07,0.041l-0.069,0.04l-0.071,0.039l-0.071,0.039l-0.071,0.037l-0.071,0.037l-0.072,0.036l-0.072,0.035l-0.072,0.034l-0.072,0.034l-0.074,0.033l-0.073,0.032l-0.073,0.031l-0.074,0.031l-0.073,0.029l-0.075,0.029l-0.075,0.029l-0.074,0.027l-0.075,0.026l-0.075,0.027l-0.075,0.025l-0.076,0.024l-0.076,0.023l-0.076,0.023l-0.076,0.022l-0.076,0.022l-0.077,0.02l-0.077,0.019l-0.076,0.019l-0.078,0.018l-0.077,0.017l-0.078,0.017l-0.077,0.015l-0.078,0.015l-0.078,0.014l-0.077,0.014l-0.079,0.012l-0.078,0.012l-0.078,0.011l-0.078,0.01l-0.079,0.009l-0.078,0.008l-0.079,0.009l-0.079,0.006l-0.079,0.006l-0.079,0.005l-0.078,0.005l-0.079,0.004l-0.08,0.003l-0.079,0.001l-0.079,0.002l-0.079,0l-0.079,0l-0.079,-0.001l-0.08,-0.002l-0.079,-0.003l-0.079,-0.003l-0.079,-0.005l-0.08,-0.005l-0.079,-0.006l-0.079,-0.006l-0.079,-0.008l-0.079,-0.009l-0.079,-0.009l-0.08,-0.01l-0.079,-0.011l-0.078,-0.011l-0.079,-0.013l-0.079,-0.014l-0.078,-0.013l-0.08,-0.016l-0.156,-0.032l-0.079,-0.018l-0.078,-0.018l-0.077,-0.019l-0.078,-0.019l-0.078,-0.022l-0.078,-0.021l-0.077,-0.022l-0.078,-0.024l-0.077,-0.024l-0.077,-0.025l-0.077,-0.026l-0.076,-0.026l-0.076,-0.028l-0.076,-0.028l-0.077,-0.029l-0.076,-0.03l-0.075,-0.031l-0.075,-0.031l-0.076,-0.033l-0.074,-0.032l-0.075,-0.035l-0.074,-0.035l-0.075,-0.035l-0.073,-0.037l-0.073,-0.038l-0.074,-0.038l-0.073,-0.039l-0.072,-0.04l-0.072,-0.04l-0.072,-0.042l-0.068,-0.04l-7.266,-4.352l-0.081,-0.051l-0.08,-0.057l-0.076,-0.06l-0.073,-0.063l-0.07,-0.068l-0.067,-0.071l-0.062,-0.074l-0.058,-0.077l-0.056,-0.08l-0.051,-0.083l-0.046,-0.085l-0.042,-0.088l-0.037,-0.089l-0.033,-0.092l-0.029,-0.092l-0.024,-0.095l-0.018,-0.095l-0.014,-0.096l-0.01,-0.096l-0.004,-0.097l0.001,-0.097l0.006,-0.097l0.01,-0.097l0.015,-0.096l0.021,-0.095l0.025,-0.093l0.03,-0.093l0.034,-0.09l0.039,-0.089l0.044,-0.087l0.047,-0.085l0.052,-0.082l0.056,-0.079l0.06,-0.076l0.064,-0.073l0.068,-0.07l0.07,-0.067l0.075,-0.062l0.077,-0.059l0.08,-0.055l0.083,-0.051l0.084,-0.046l0.088,-0.042l0.09,-0.038l0.091,-0.033l0.093,-0.029l0.094,-0.022l0.095,-0.02l0.096,-0.013l0.097,-0.01l0.097,-0.004l0.097,0.001l0.097,0.006l0.096,0.01l0.096,0.016l0.095,0.02l0.094,0.025l0.092,0.029l0.091,0.035l0.089,0.039l0.087,0.043l0.085,0.048l0.582,0.349l-2.761,-1.889l-0.078,-0.057l-0.076,-0.061l-0.073,-0.065l-0.069,-0.067l-0.066,-0.072l-0.061,-0.075l-0.058,-0.077l-0.055,-0.081l-0.05,-0.083l-0.046,-0.086l-0.041,-0.088l-0.037,-0.09l-0.032,-0.091l-0.027,-0.093l-0.022,-0.095l-0.019,-0.095l-0.012,-0.096l-0.008,-0.097l-0.004,-0.097l0.002,-0.097l0.006,-0.097l0.012,-0.096l0.017,-0.096l0.021,-0.095l0.025,-0.093l0.031,-0.092l0.035,-0.09l0.04,-0.089l0.044,-0.086l0.049,-0.085l0.053,-0.081l0.057,-0.079l0.06,-0.075l0.065,-0.073l0.068,-0.07l0.072,-0.065l0.074,-0.061l0.078,-0.059l0.081,-0.054l0.083,-0.05l0.086,-0.046l0.087,-0.041l0.09,-0.037l0.092,-0.032l0.093,-0.027l0.094,-0.022l0.096,-0.019l0.096,-0.013l0.097,-0.007l0.097,-0.004l0.097,0.001l0.097,0.008l0.096,0.011l0.096,0.016l0.094,0.022l0.094,0.025l0.092,0.031l0.09,0.035l0.089,0.04l0.086,0.044l0.084,0.049l0.081,0.053l4.48,3.064l0.044,-0.044Z" style="fill:#f10dc3;"/>
        <path d="M4.857,15.209l6.638,4.742" style="fill:none;stroke:#000;stroke-width:0.77px;stroke-linejoin:miter;stroke-miterlimit:1.5;"/>
        <path d="M7.837,11.145l5.419,5.419" style="fill:none;stroke:#000;stroke-width:0.77px;stroke-linejoin:miter;stroke-miterlimit:1.5;"/>
        <path d="M11.088,7.894l5.148,5.148" style="fill:none;stroke:#000;stroke-width:0.77px;stroke-linejoin:miter;stroke-miterlimit:1.5;"/>
        <g>
            <path d="M6.518,13.898c0.415,-0.692 1.559,-0.77 2.55,-0.173c0.993,0.596 1.46,1.641 1.044,2.333c-0.415,0.692 -1.558,0.77 -2.55,0.174c-0.992,-0.595 -1.46,-1.642 -1.044,-2.334Z" style="fill:#ff80b7;"/>
            <path d="M6.521,18.855c0.346,-0.575 1.257,-0.663 2.034,-0.196c0.777,0.467 1.127,1.313 0.782,1.888c-0.347,0.575 -1.258,0.663 -2.035,0.196c-0.777,-0.467 -1.127,-1.313 -0.781,-1.888Z" style="fill:#ff80b7;"/>
            <path d="M9.197,9.244c0.598,-0.598 1.812,-0.356 2.709,0.542c0.897,0.897 1.14,2.111 0.542,2.709c-0.598,0.598 -1.812,0.355 -2.709,-0.542c-0.898,-0.897 -1.14,-2.111 -0.542,-2.709Z" style="fill:#ff80b7;"/>
            <path d="M13.968,6.243c0.67,-0.402 1.713,0.101 2.327,1.124c0.615,1.022 0.57,2.179 -0.1,2.582c-0.67,0.402 -1.713,-0.102 -2.327,-1.124c-0.615,-1.023 -0.57,-2.18 0.1,-2.582Z" style="fill:#ff80b7;"/>
            <path d="M23.553,10.044c0.979,0 1.774,1.134 1.774,2.531c0,1.397 -0.795,2.532 -1.774,2.532c-0.98,0 -1.775,-1.134 -1.774,-2.532c-0.001,-1.397 0.794,-2.531 1.774,-2.531Z" style="fill:#ff80b7;"/>
            <path d="M16.05,24.235c-0.575,-0.575 -0.898,-1.354 -0.898,-2.168l0,-3.251c0,-0.813 0.323,-1.592 0.898,-2.167c0.575,-0.575 1.354,-0.898 2.167,-0.898l3.252,0c0.813,0 1.593,0.323 2.168,0.898c0.087,0.087 0.178,0.178 0.271,0.271c0.5,0.501 0.742,1.205 0.656,1.907c-0.086,0.703 -0.492,1.326 -1.099,1.69c-0.621,0.373 -1.207,0.725 -1.554,0.932c-0.215,0.13 -0.413,0.284 -0.59,0.462c-0.003,0.002 -0.006,0.006 -0.009,0.008c-0.177,0.177 -0.332,0.375 -0.461,0.59c-0.208,0.348 -0.559,0.933 -0.932,1.554c-0.365,0.608 -0.988,1.013 -1.691,1.099c-0.702,0.087 -1.406,-0.155 -1.906,-0.655c-0.093,-0.094 -0.184,-0.185 -0.272,-0.272Z" style="fill:#ff80b7;"/>
        </g>
    </g>
    <path d="M6,24.5l5,2.5" style="fill:none;stroke:#565656;stroke-width:1.5px;"/>
    <path d="M6,27.5l3,1.5" style="fill:none;stroke:#565656;stroke-width:1.5px;"/>
    <path d="M18,4l3,3" style="fill:none;stroke:#565656;stroke-width:1.5px;"/>
    <path d="M21,3l2,2" style="fill:none;stroke:#565656;stroke-width:1.5px;"/>
</svg>
