<?xml version="1.0" encoding="UTF-8" standalone="no"?>
<!DOCTYPE svg PUBLIC "-//W3C//DTD SVG 1.1//EN" "http://www.w3.org/Graphics/SVG/1.1/DTD/svg11.dtd">
<svg width="100%" height="100%" viewBox="0 0 32 32" version="1.1" xmlns="http://www.w3.org/2000/svg" xmlns:xlink="http://www.w3.org/1999/xlink" xml:space="preserve" xmlns:serif="http://www.serif.com/" style="fill-rule:evenodd;clip-rule:evenodd;stroke-linecap:round;stroke-linejoin:round;stroke-miterlimit:2;">
    <rect id="writing_hand--paw-" serif:id="writing_hand [paw]" x="0" y="0" width="32" height="32" style="fill:none;"/>
    <clipPath id="_clip1">
        <rect x="0" y="0" width="32" height="32"/>
    </clipPath>
    <g clip-path="url(#_clip1)">
        <g id="outline">
            <rect x="10" y="24" width="13" height="2" style="fill:none;stroke:#000;stroke-width:4px;"/>
            <path d="M17.038,17.717l-6.416,3.208l-0.009,0.024l-0.034,0.081l-0.036,0.08l-0.036,0.079l-0.039,0.079l-0.039,0.078l-0.04,0.076l-0.041,0.077l-0.043,0.075l-0.044,0.075l-0.046,0.074l-0.047,0.074l-0.047,0.071l-0.048,0.071l-0.05,0.07l-0.051,0.069l-0.052,0.069l-0.054,0.067l-0.054,0.067l-0.055,0.066l-0.056,0.064l-0.058,0.064l-0.058,0.062l-0.059,0.061l-0.061,0.061l-0.062,0.06l-0.062,0.059l-0.063,0.057l-0.064,0.057l-0.065,0.055l-0.066,0.054l-0.068,0.054l-0.067,0.052l-0.069,0.05l-0.07,0.051l-0.07,0.048l-0.071,0.047l-0.072,0.047l-0.073,0.045l-0.074,0.044l-0.074,0.043l-0.076,0.042l-0.075,0.04l-0.077,0.039l-0.077,0.038l-0.078,0.037l-0.079,0.035l-0.08,0.034l-0.08,0.033l-0.081,0.032l-0.082,0.03l-0.081,0.029l-0.083,0.027l-0.084,0.026l-0.083,0.025l-0.085,0.023l-0.085,0.022l-0.085,0.021l-0.086,0.019l-0.087,0.018l-0.086,0.016l-0.087,0.015l-0.088,0.013l-0.087,0.012l-0.087,0.01l-0.087,0.009l-0.088,0.007l-0.087,0.006l-0.087,0.004l-0.087,0.003l-0.087,0.001l-0.087,0l-0.087,-0.002l-0.086,-0.003l-0.087,-0.004l-0.086,-0.006l-0.086,-0.007l-0.086,-0.009l-0.085,-0.011l-0.086,-0.011l-0.085,-0.013l-0.084,-0.015l-0.085,-0.016l-0.084,-0.017l-0.083,-0.018l-0.084,-0.02l-0.083,-0.022l-0.082,-0.023l-0.082,-0.024l-0.082,-0.025l-0.081,-0.027l-0.08,-0.028l-0.081,-0.029l-0.08,-0.031l-0.079,-0.032l-0.079,-0.033l-0.078,-0.035l-0.078,-0.036l-0.077,-0.037l-0.076,-0.039l-0.076,-0.04l-0.075,-0.041l-0.075,-0.043l-0.073,-0.043l-0.073,-0.045l-0.074,-0.047l-0.071,-0.047l-0.071,-0.048l-0.071,-0.051l-0.069,-0.05l-0.069,-0.052l-0.068,-0.054l-0.067,-0.055l-0.066,-0.056l-0.065,-0.057l-0.065,-0.058l-0.065,-0.061l-0.062,-0.06l-0.061,-0.061l-0.061,-0.063l-0.06,-0.064l-0.059,-0.066l-0.058,-0.066l-0.057,-0.068l-0.05,-0.061l-1.221,-1.527l3.412,-6.012l0.059,-0.099l0.07,-0.111l0.074,-0.108l0.077,-0.106l0.081,-0.103l0.084,-0.101l0.086,-0.096l0.091,-0.095l0.093,-0.092l0.096,-0.088l0.099,-0.086l0.102,-0.082l0.105,-0.079l0.107,-0.075l0.11,-0.072l0.098,-0.06l5.717,-3.355l5.885,7.846Zm-9.549,-1.058l-0.014,0.009l0,0l-0.008,0.014l-1.943,3.423l0.015,0.004l0.019,0.005l0.019,0.004l0.019,0.005l0.019,0.003l0.019,0.004l0.019,0.003l0.019,0.003l0.019,0.003l0.019,0.002l0.019,0.002l0.02,0.002l0.019,0.001l0.019,0.001l0.02,0.001l0.019,0l0.02,0l0.019,0l0.02,-0.001l0.019,-0.001l0.02,-0.001l0.02,-0.002l0.019,-0.002l0.02,-0.002l0.02,-0.003l0.019,-0.003l0.02,-0.003l0.02,-0.004l0.019,-0.004l0.02,-0.004l0.019,-0.005l0.019,-0.005l0.019,-0.005l0.019,-0.005l0.019,-0.006l0.018,-0.006l0.019,-0.007l0.019,-0.007l0.017,-0.007l0.018,-0.007l0.018,-0.008l0.018,-0.008l0.017,-0.008l0.017,-0.008l0.018,-0.009l0.017,-0.01l0.017,-0.009l0.017,-0.009l0.016,-0.01l0.016,-0.01l0.017,-0.011l0.016,-0.011l0.016,-0.011l0.015,-0.011l0.016,-0.011l0.016,-0.012l0.014,-0.012l0.015,-0.012l0.015,-0.013l0.014,-0.012l0.015,-0.014l0.014,-0.013l0.014,-0.013l0.013,-0.013l0.014,-0.015l0.013,-0.014l0.013,-0.014l0.013,-0.015l0.012,-0.015l0.012,-0.015l0.012,-0.014l0.011,-0.015l0.012,-0.017l0.011,-0.015l0.012,-0.017l0.011,-0.016l0.01,-0.016l0.009,-0.016l0.011,-0.017l0.009,-0.017l0.009,-0.016l0.01,-0.019l0.009,-0.017l0.008,-0.018l0.008,-0.017l0.008,-0.018l0.008,-0.019l0.007,-0.019l0.007,-0.018l0.007,-0.018l0.009,-0.027l0.422,-1.264l3.597,-1.799l-0.865,-1.154l-2.608,1.53Z"/>
            <path d="M21.209,23.011l0.104,0.014l0.103,0.019l0.102,0.024l0.1,0.03l0.099,0.035l0.096,0.04l0.095,0.045l0.092,0.05l0.089,0.055l0.087,0.059l0.083,0.064l0.079,0.068l0.076,0.072l0.072,0.076l0.068,0.079l0.064,0.083l0.059,0.087l0.055,0.089l0.05,0.092l0.045,0.095l0.04,0.096l0.035,0.099l0.03,0.1l0.024,0.102l0.019,0.103l0.014,0.104l0.008,0.104l0.003,0.105l-0.003,0.105l-0.008,0.104l-0.014,0.104l-0.019,0.103l-0.024,0.102l-0.03,0.1l-0.035,0.099l-0.04,0.096l-0.045,0.095l-0.05,0.092l-0.055,0.089l-0.059,0.087l-0.064,0.083l-0.068,0.079l-0.072,0.076l-0.076,0.072l-0.079,0.068l-0.083,0.064l-0.087,0.059l-0.089,0.055l-0.092,0.05l-0.095,0.045l-0.096,0.04l-0.099,0.035l-0.1,0.03l-0.102,0.024l-0.103,0.019l-0.104,0.014l-0.104,0.008l-0.105,0.003l-6.675,0l-2.36,0.787l-0.072,0.023l-0.081,0.024l-0.082,0.023l-0.082,0.021l-0.082,0.019l-0.084,0.018l-0.083,0.016l-0.083,0.015l-0.084,0.012l-0.084,0.011l-0.084,0.01l-0.085,0.007l-0.085,0.006l-0.085,0.005l-0.085,0.002l-0.074,0.001l-0.025,0l-0.131,-0.002l-0.144,-0.005l-0.144,-0.009l-0.142,-0.013l-0.141,-0.016l-0.141,-0.02l-0.14,-0.023l-0.138,-0.026l-0.137,-0.03l-0.136,-0.033l-0.136,-0.037l-0.133,-0.04l-0.132,-0.043l-0.131,-0.046l-0.129,-0.049l-0.127,-0.052l-0.126,-0.055l-0.124,-0.058l-0.123,-0.061l-0.121,-0.064l-0.119,-0.066l-0.117,-0.069l-0.115,-0.072l-0.114,-0.075l-0.111,-0.077l-0.109,-0.08l-0.108,-0.082l-0.105,-0.085l-0.104,-0.088l-0.101,-0.089l-0.098,-0.092l-0.097,-0.094l-0.094,-0.097l-0.092,-0.099l-0.09,-0.101l-0.087,-0.103l-0.085,-0.105l-0.082,-0.108l-0.08,-0.109l-0.077,-0.111l-0.074,-0.113l-0.073,-0.116l-0.069,-0.117l-0.067,-0.119l-0.063,-0.121l-0.061,-0.122l-0.058,-0.125l-0.055,-0.126l-0.053,-0.128l-0.049,-0.129l-0.045,-0.13l-0.043,-0.132l-0.04,-0.134l-0.037,-0.135l-0.033,-0.136l-0.03,-0.137l-0.026,-0.138l-0.023,-0.139l-0.02,-0.142l-0.016,-0.141l-0.013,-0.142l-0.009,-0.144l-0.005,-0.144l-0.002,-0.131l0,-1.375l4.55,-3.412l0.081,-0.059l0.101,-0.066l0.105,-0.063l0.106,-0.059l0.107,-0.053l0.11,-0.049l0.111,-0.045l0.113,-0.04l0.115,-0.036l0.116,-0.031l0.118,-0.027l0.118,-0.021l0.119,-0.017l0.121,-0.013l0.121,-0.007l0.101,-0.002l9.687,0l0.105,0.003l0.104,0.008l0.104,0.014l0.103,0.019l0.102,0.024l0.1,0.03l0.099,0.035l0.096,0.04l0.095,0.045l0.092,0.05l0.089,0.055l0.087,0.059l0.083,0.064l0.079,0.068l0.076,0.072l0.072,0.076l0.068,0.079l0.064,0.083l0.059,0.087l0.055,0.089l0.05,0.092l0.045,0.095l0.04,0.096l0.035,0.099l0.03,0.1l0.024,0.102l0.019,0.103l0.014,0.104l0.008,0.104l0.003,0.105l-0.003,0.105l-0.008,0.104l-0.014,0.104l-0.019,0.103l-0.024,0.102l-0.03,0.1l-0.035,0.099l-0.04,0.096l-0.045,0.095l-0.05,0.092l-0.055,0.089l-0.059,0.087l-0.064,0.083l-0.068,0.079l-0.072,0.076l-0.076,0.072l-0.079,0.068l-0.083,0.064l-0.087,0.059l-0.089,0.055l-0.092,0.05l-0.095,0.045l-0.096,0.04l-0.099,0.035l-0.1,0.03l-0.102,0.024l-0.103,0.019l-0.104,0.014l-0.104,0.008l-0.105,0.003l-9.333,0l-2.568,1.926l0.014,0.037l0.015,0.036l0.016,0.036l0.017,0.036l0.017,0.036l0.019,0.034l0.019,0.035l0.02,0.034l0.021,0.033l0.022,0.033l0.022,0.033l0.024,0.032l0.024,0.031l0.024,0.031l0.026,0.03l0.026,0.03l0.027,0.029l0.028,0.028l0.028,0.028l0.029,0.027l0.03,0.026l0.03,0.026l0.031,0.024l0.031,0.024l0.032,0.024l0.033,0.022l0.033,0.022l0.033,0.021l0.034,0.02l0.035,0.019l0.035,0.019l0.035,0.017l0.036,0.017l0.036,0.016l0.037,0.015l0.037,0.014l0.037,0.013l0.038,0.012l0.039,0.012l0.038,0.01l0.039,0.01l0.04,0.009l0.04,0.007l0.04,0.007l0.041,0.006l0.041,0.004l0.042,0.004l0.042,0.003l0.043,0.001l0.046,0.001l0.003,0l0.005,0l0.004,0l0.004,-0.001l0.005,0l0.004,-0.001l0.004,0l0.005,-0.001l0.005,-0.001l0.004,-0.001l0.004,0l0.005,-0.002l0.004,-0.001l0.004,-0.001l0.005,-0.001l0.013,-0.005l2.956,-0.985l7.325,0l0.105,0.003l0.104,0.008Z"/>
            <path d="M16,24c0,0 0.927,0.464 1.889,0.944c1.388,0.695 2.919,1.056 4.472,1.056c2.956,0 7.639,0 7.639,0l0,-8.012l-3,0c0,0 -2.671,-2.648 -5.18,-5.135c-2.553,-2.53 -6.48,-3.047 -9.601,-1.264c-1.246,0.712 -2.219,1.268 -2.219,1.268l2,5.143c0,0 1.516,-0.758 2.682,-1.341c0.787,-0.394 1.738,-0.239 2.36,0.383c0.082,0.082 0.166,0.166 0.251,0.251c0.286,0.286 0.371,0.716 0.217,1.09c-0.155,0.373 -0.52,0.617 -0.924,0.617c-0.345,0 -0.586,0 -0.586,0" style="fill:none;stroke:#000;stroke-width:4px;"/>
            <path d="M17.828,15.5l-13.5,13.5l-4.328,0l0,-4.328l13.5,-13.5l4.328,4.328Z"/>
            <path d="M11,16.5l1.5,1.5l12,-12l-1.5,-1.5l-12,12Z" style="fill:none;stroke:#000;stroke-width:4px;"/>
        </g>
        <g id="emoji">
            <rect x="10.5" y="25" width="14" height="1" style="fill:#640082;"/>
            <path d="M10.625,12.5c0,0 -2.991,1.756 -4.163,2.443c-0.303,0.178 -0.553,0.432 -0.727,0.738c-0.733,1.291 -2.735,4.819 -2.735,4.819c0,0 0.141,0.176 0.369,0.461c0.724,0.905 1.884,1.341 3.024,1.138c1.141,-0.203 2.079,-1.014 2.445,-2.113c0.101,-0.303 0.162,-0.486 0.162,-0.486l5,-2.5l-3.375,-4.5Z" style="fill:#f10dc3;"/>
            <clipPath id="_clip2">
                <path d="M10.625,12.5c0,0 -2.991,1.756 -4.163,2.443c-0.303,0.178 -0.553,0.432 -0.727,0.738c-0.733,1.291 -2.735,4.819 -2.735,4.819c0,0 0.141,0.176 0.369,0.461c0.724,0.905 1.884,1.341 3.024,1.138c1.141,-0.203 2.079,-1.014 2.445,-2.113c0.101,-0.303 0.162,-0.486 0.162,-0.486l5,-2.5l-3.375,-4.5Z"/>
            </clipPath>
            <g clip-path="url(#_clip2)">
                <path d="M3,24c0,0 8.574,-5.276 11.796,-7.259c0.706,-0.434 1.618,-0.327 2.204,0.259c0,0 0,0 0,0" style="fill:none;stroke:#a90eb1;stroke-width:4px;"/>
            </g>
            <path d="M16,24c0,0 0.927,0.464 1.889,0.944c1.388,0.695 2.919,1.056 4.472,1.056c2.956,0 7.639,0 7.639,0l0,-8.012l-3,0c0,0 -2.671,-2.648 -5.18,-5.135c-2.553,-2.53 -6.48,-3.047 -9.601,-1.264c-1.246,0.712 -2.219,1.268 -2.219,1.268l4,4.143c0,0 0.308,-0.154 0.682,-0.341c0.787,-0.394 1.738,-0.239 2.36,0.383c0.082,0.082 0.166,0.166 0.251,0.251c0.286,0.286 0.371,0.716 0.217,1.09c-0.155,0.373 -0.52,0.617 -0.924,0.617c-0.345,0 -0.586,0 -0.586,0" style="fill:#f10dc3;"/>
            <clipPath id="_clip3">
                <path d="M16,24c0,0 0.927,0.464 1.889,0.944c1.388,0.695 2.919,1.056 4.472,1.056c2.956,0 7.639,0 7.639,0l0,-8.012l-3,0c0,0 -2.671,-2.648 -5.18,-5.135c-2.553,-2.53 -6.48,-3.047 -9.601,-1.264c-1.246,0.712 -2.219,1.268 -2.219,1.268l4,4.143c0,0 0.308,-0.154 0.682,-0.341c0.787,-0.394 1.738,-0.239 2.36,0.383c0.082,0.082 0.166,0.166 0.251,0.251c0.286,0.286 0.371,0.716 0.217,1.09c-0.155,0.373 -0.52,0.617 -0.924,0.617c-0.345,0 -0.586,0 -0.586,0"/>
            </clipPath>
            <g clip-path="url(#_clip3)">
                <rect x="27" y="17" width="4" height="10" style="fill:#a90eb1;"/>
                <path d="M3,24c0,0 8.574,-5.276 11.796,-7.259c0.706,-0.434 1.618,-0.327 2.204,0.259c0,0 0,0 0,0" style="fill:none;stroke:#a90eb1;stroke-width:4px;"/>
                <path d="M14.5,16l7,-7" style="fill:none;stroke:#a90eb1;stroke-width:4px;stroke-miterlimit:1.5;"/>
            </g>
            <path d="M3.5,27l4,-4l7.5,0l0,-4l0,-5l-13,0l0,13l1.5,0Z" style="fill:none;"/>
            <clipPath id="_clip4">
                <path d="M3.5,27l4,-4l7.5,0l0,-4l0,-5l-13,0l0,13l1.5,0Z"/>
            </clipPath>
            <g clip-path="url(#_clip4)">
                <path d="M2,25.5l0,1.5l1.5,0l7,-7l1.5,-2.5l1.5,-0.5l1.5,-1.5l-1.5,-1.5l-11.5,11.5Z" style="fill:#fff;"/>
                <path d="M13.5,17l0.5,0l-1,0.5l-1.5,1.5l-0.5,7l-7,0l0,-12l10,0l-0.5,3Z" style="fill:none;"/>
                <clipPath id="_clip5">
                    <path d="M13.5,17l0.5,0l-1,0.5l-1.5,1.5l-0.5,7l-7,0l0,-12l10,0l-0.5,3Z"/>
                </clipPath>
                <g clip-path="url(#_clip5)">
                    <path d="M21,25l-7,0c0,0 -1.871,0.624 -2.658,0.886c-0.227,0.075 -0.464,0.114 -0.703,0.114c0,0 -0.001,0 -0.001,0c-2.009,0 -3.638,-1.629 -3.638,-3.638l0,-0.362c0,0 2.839,-2.129 3.733,-2.8c0.173,-0.13 0.384,-0.2 0.6,-0.2c1.737,0 9.667,0 9.667,0" style="fill:none;stroke:#640082;stroke-width:4px;"/>
                </g>
            </g>
            <path d="M21,25l-7,0c0,0 -1.871,0.624 -2.658,0.886c-0.227,0.075 -0.464,0.114 -0.703,0.114c0,0 -0.001,0 -0.001,0c-2.009,0 -3.638,-1.629 -3.638,-3.638l0,-0.362c0,0 2.839,-2.129 3.733,-2.8c0.173,-0.13 0.384,-0.2 0.6,-0.2c1.737,0 9.667,0 9.667,0" style="fill:#f10dc3;"/>
            <path d="M11.5,16l2,1l11,-11l-1.5,-1.5l-11.5,11.5Z" style="fill:#fff;"/>
        </g>
    </g>
</svg>
