<?xml version="1.0" encoding="UTF-8" standalone="no"?>
<!DOCTYPE svg PUBLIC "-//W3C//DTD SVG 1.1//EN" "http://www.w3.org/Graphics/SVG/1.1/DTD/svg11.dtd">
<svg width="100%" height="100%" viewBox="0 0 32 32" version="1.1" xmlns="http://www.w3.org/2000/svg" xmlns:xlink="http://www.w3.org/1999/xlink" xml:space="preserve" xmlns:serif="http://www.serif.com/" style="fill-rule:evenodd;clip-rule:evenodd;stroke-linejoin:round;stroke-miterlimit:2;">
    <rect id="writing_hand--paw-" serif:id="writing_hand [paw]" x="0" y="0" width="32" height="32" style="fill:none;"/>
    <clipPath id="_clip1">
        <rect x="0" y="0" width="32" height="32"/>
    </clipPath>
    <g clip-path="url(#_clip1)">
        <g id="outline">
            <path d="M10.5,28c-0.06,0 -0.12,-0.003 -0.179,-0.008l-0.024,-0.002c-1.339,-0.08 -2.552,-0.627 -3.478,-1.48l-2.491,2.49l-4.328,0c0,-1.443 0,-2.886 0,-4.328l2.113,-2.113c-0.107,-0.111 -0.209,-0.227 -0.306,-0.348l-1.215,-1.52l3.404,-5.998c0.347,-0.611 0.848,-1.119 1.454,-1.475l3.384,-1.986l0.018,-0.013c0.051,-0.035 0.103,-0.068 0.156,-0.098l0.615,-0.352l1.53,-0.898l0.013,0.017l0.061,-0.035c1.536,-0.878 3.228,-1.31 4.91,-1.318l5.449,-5.449c0.178,-0.177 0.386,-0.321 0.616,-0.421c0.303,-0.131 0.637,-0.185 0.966,-0.158c0.257,0.022 0.51,0.093 0.74,0.211c0.187,0.095 0.358,0.22 0.506,0.368c0.5,0.5 1,1 1.5,1.5c0.143,0.142 0.264,0.306 0.357,0.484c0.199,0.379 0.271,0.818 0.205,1.241c-0.029,0.183 -0.083,0.363 -0.161,0.531c-0.099,0.213 -0.236,0.405 -0.401,0.572l-3.384,3.389c0.242,0.2 0.475,0.41 0.698,0.63l4.595,4.555l2.177,0c1.105,0 2,0.895 2,2l0,8.012c0,1.105 -0.895,2 -2,2l-19.5,0Z"/>
        </g>
        <g id="emoji">
            <path d="M22.5,24l-11.625,0l-0.375,2l12,0l0,-2Z" style="fill:#640082;"/>
            <path d="M9,19.5c-0.054,0.162 -0.108,0.324 -0.162,0.486c-0.031,0.094 -0.067,0.186 -0.107,0.277c-0.167,0.379 -0.409,0.724 -0.709,1.01c-0.234,0.223 -0.502,0.411 -0.793,0.553c-0.47,0.23 -0.996,0.341 -1.519,0.32c-0.441,-0.018 -0.877,-0.13 -1.273,-0.325c-0.293,-0.145 -0.562,-0.336 -0.798,-0.563l0.861,-1.258l11.5,-9l1.086,-0.414c1.441,0.163 2.836,0.716 4.019,1.638l-0.105,0.776l-1,5l-2,2c0,0 -1.164,-1.005 -1.243,-1.015c0.333,-0.057 0.62,-0.282 0.753,-0.602c0.154,-0.374 0.069,-0.804 -0.217,-1.09c-0.085,-0.085 -0.169,-0.169 -0.251,-0.251c-0.622,-0.622 -1.573,-0.777 -2.36,-0.383l-5.682,2.841Z" style="fill:#a90eb1;"/>
            <path d="M27,26l-1,-1l0,-6l1,-1.012l3,0l0,8.012l-3,0Z" style="fill:#a90eb1;"/>
            <path d="M27,26l-4.639,0c-0.448,-0.001 -0.895,-0.03 -1.338,-0.09c-0.825,-0.111 -1.635,-0.326 -2.406,-0.637c-0.247,-0.1 -0.49,-0.21 -0.728,-0.329c-0.63,-0.314 -1.259,-0.629 -1.889,-0.944l0,-5l0.586,0c0.058,0 0.115,-0.005 0.171,-0.015c0.079,0.01 0.161,0.015 0.243,0.015c1.104,0 2,-0.896 2,-2c0,-0.552 -0.224,-1.052 -0.586,-1.414l0,0c-0.113,-0.114 -0.232,-0.219 -0.357,-0.315l3.048,-3.047c0.248,0.193 0.487,0.403 0.715,0.629l5.18,5.135l0,8.012Zm-16.994,-13.137l-0.006,-0.006c0,0 0.973,-0.556 2.219,-1.268c1.516,-0.866 3.221,-1.189 4.867,-1.003l-4,4c-0.182,0.183 -0.324,0.396 -0.424,0.63l0.251,0.335l-9.274,5.707c-0.095,-0.092 -0.186,-0.191 -0.27,-0.297c-0.228,-0.285 -0.369,-0.461 -0.369,-0.461c0,0 2.002,-3.528 2.735,-4.819c0.174,-0.306 0.424,-0.56 0.727,-0.738l3.544,-2.08Z" style="fill:#f10dc3;"/>
            <path d="M3.5,27l-1.5,0l0,-1.5l3.002,-3.002l0.739,0.324l0.116,1.178l-0.256,0.899l-2.101,2.101Zm6.828,-9.826l12.672,-12.674l1.5,1.5l-11,11l-2.5,1l-0.672,-0.826Z" style="fill:#fff;"/>
            <path d="M13.5,17l-7.899,7.899c-0.384,-0.763 -0.601,-1.625 -0.601,-2.537l0,-0.362c0,-0.63 0.296,-1.222 0.8,-1.6c0,0 2.839,-2.129 3.733,-2.8c0.52,-0.389 1.151,-0.6 1.8,-0.6l2.167,0Z" style="fill:#640082;"/>
            <path d="M19,19l0,6l-5,0c0,0 -1.871,0.624 -2.658,0.886c-0.227,0.075 -0.464,0.114 -0.703,0.114c0,0 -0.001,0 -0.001,0c-2.009,0 -3.638,-1.629 -3.638,-3.638l0,-0.362c0,0 2.839,-2.129 3.733,-2.8c0.173,-0.13 0.384,-0.2 0.6,-0.2l7.667,0Z" style="fill:#f10dc3;"/>
        </g>
    </g>
</svg>
