<?xml version="1.0" encoding="UTF-8" standalone="no"?><!DOCTYPE svg PUBLIC "-//W3C//DTD SVG 1.1//EN" "http://www.w3.org/Graphics/SVG/1.1/DTD/svg11.dtd"><svg width="100%" height="100%" viewBox="0 0 32 32" version="1.1" xmlns="http://www.w3.org/2000/svg" xmlns:xlink="http://www.w3.org/1999/xlink" xml:space="preserve" xmlns:serif="http://www.serif.com/" style="fill-rule:evenodd;clip-rule:evenodd;stroke-linejoin:round;stroke-miterlimit:1.41421;"><rect id="football" x="0" y="0" width="32" height="32" style="fill:none;"/><clipPath id="_clip1"><rect x="0" y="0" width="32" height="32"/></clipPath><g clip-path="url(#_clip1)"><g id="outline"><circle cx="16" cy="16" r="16"/></g><g id="emoji"><g><path d="M4.512,24c-0.969,-1.388 -1.692,-2.96 -2.108,-4.652c3.03,0.438 16.771,-13.227 16.953,-16.725l0.054,-0.107l0.167,-0.054c3.578,0.945 6.597,3.272 8.45,6.374l1.842,5.249c0.086,0.626 0.13,1.265 0.13,1.915c0,2.974 -0.929,5.732 -2.512,8l-7.225,5.338c-1.344,0.43 -2.777,0.662 -4.263,0.662c-1.486,0 -2.919,-0.232 -4.263,-0.662l-7.225,-5.338Z" style="fill:#ebebeb;"/><path d="M4.641,7.818c1.878,-2.6 4.625,-4.531 7.815,-5.365l6.918,0.157c0.331,3.092 -1.702,7.528 -5.469,11.295c-3.851,3.852 -8.404,5.891 -11.501,5.443c-0.264,-1.073 -0.404,-2.194 -0.404,-3.348c0,-0.379 0.015,-0.755 0.045,-1.126l2.596,-7.056Z" style="fill:#fff;"/><path d="M17,14.49l11.332,-3.966l0.66,1.888l-11.381,3.983l6.841,9.235l-1.607,1.191l-6.845,-9.242l-6.741,9.102l-1.607,-1.191l6.737,-9.095l-11.407,-3.992l0.661,-1.888l11.357,3.975l0,-11.948l2,0l0,11.948Z" style="fill:#ccc;fill-rule:nonzero;"/><path d="M28.028,8.836c0.941,1.576 1.582,3.352 1.842,5.249l-2.282,-1.658c-0.351,-0.255 -0.497,-0.706 -0.363,-1.118l0.803,-2.473Z" style="fill:#303030;"/><path d="M27.488,24c-1.74,2.492 -4.27,4.393 -7.225,5.338l1.51,-4.647c0.134,-0.412 0.518,-0.691 0.951,-0.691l4.764,0Z" style="fill:#303030;"/><path d="M4.512,24l4.764,0c0.433,0 0.817,0.279 0.951,0.691l1.51,4.647c-2.955,-0.945 -5.485,-2.846 -7.225,-5.338Z" style="fill:#303030;"/><path d="M12.456,2.453c1.132,-0.296 2.32,-0.453 3.544,-0.453c1.237,0 2.436,0.161 3.578,0.462l-2.967,2.156c-0.351,0.255 -0.825,0.255 -1.176,0l-2.979,-2.165Z" style="fill:#303030;"/><path d="M4.641,7.818l1.134,3.491c0.134,0.412 -0.012,0.863 -0.363,1.118l-3.367,2.447c0.209,-2.621 1.141,-5.039 2.596,-7.056Z" style="fill:#303030;"/><path d="M15.412,8.866c0.351,-0.255 0.825,-0.255 1.176,0c1.319,0.958 4.505,3.273 5.824,4.231c0.351,0.255 0.497,0.706 0.363,1.118c-0.504,1.552 -1.72,5.296 -2.224,6.847c-0.134,0.412 -0.518,0.691 -0.951,0.691c-1.631,0 -5.569,0 -7.2,0c-0.433,0 -0.817,-0.279 -0.951,-0.691c-0.504,-1.551 -1.72,-5.295 -2.224,-6.847c-0.134,-0.412 0.012,-0.863 0.363,-1.118c1.319,-0.958 4.505,-3.273 5.824,-4.231Z" style="fill:#303030;"/></g></g></g></svg>