<?xml version="1.0" encoding="UTF-8" standalone="no"?><!DOCTYPE svg PUBLIC "-//W3C//DTD SVG 1.1//EN" "http://www.w3.org/Graphics/SVG/1.1/DTD/svg11.dtd"><svg width="100%" height="100%" viewBox="0 0 32 32" version="1.1" xmlns="http://www.w3.org/2000/svg" xmlns:xlink="http://www.w3.org/1999/xlink" xml:space="preserve" xmlns:serif="http://www.serif.com/" style="fill-rule:evenodd;clip-rule:evenodd;stroke-linecap:round;stroke-linejoin:round;stroke-miterlimit:1.5;"><rect id="tennis_ball" x="0" y="0" width="32" height="32" style="fill:none;"/><clipPath id="_clip1"><rect x="0" y="0" width="32" height="32"/></clipPath><g clip-path="url(#_clip1)"><g id="outline"><circle cx="16" cy="16" r="16"/></g><g id="emoji"><path d="M30,16c0,7.727 -6.273,14 -14,14c-7.727,0 -14,-6.273 -14,-14c0,-7.727 6.273,-14 14,-14c7.727,0 14,6.273 14,14Z" style="fill:#e2f10a;"/><clipPath id="_clip2"><path d="M30,16c0,7.727 -6.273,14 -14,14c-7.727,0 -14,-6.273 -14,-14c0,-7.727 6.273,-14 14,-14c7.727,0 14,6.273 14,14Z"/></clipPath><g clip-path="url(#_clip2)"><path d="M26,1c0,0 -0.179,12 -10,12c-9.821,0 -10,-12 -10,-12" style="fill:none;stroke:#fff;stroke-width:3px;"/><path d="M26,31c0,0 -0.179,-12 -10,-12c-9.821,0 -10,12 -10,12" style="fill:none;stroke:#fff;stroke-width:3px;"/><path d="M0.76,0.712c4.967,-4.968 11.795,-6.205 15.238,-2.763c3.443,3.443 2.205,10.271 -2.762,15.238c-4.967,4.968 -11.795,6.205 -15.238,2.762c-3.443,-3.442 -2.205,-10.27 2.762,-15.237Z" style="fill:#fff;fill-opacity:0.466667;"/></g></g></g></svg>