<?xml version="1.0" encoding="UTF-8" standalone="no"?><!DOCTYPE svg PUBLIC "-//W3C//DTD SVG 1.1//EN" "http://www.w3.org/Graphics/SVG/1.1/DTD/svg11.dtd"><svg width="100%" height="100%" viewBox="0 0 32 32" version="1.1" xmlns="http://www.w3.org/2000/svg" xmlns:xlink="http://www.w3.org/1999/xlink" xml:space="preserve" style="fill-rule:evenodd;clip-rule:evenodd;stroke-miterlimit:1.5;"><rect id="capricorn" x="0" y="0" width="32" height="32" style="fill:none;"/><clipPath id="_clip1"><rect x="0" y="0" width="32" height="32"/></clipPath><g clip-path="url(#_clip1)"><g id="outline"><path d="M32,8c0,-4.418 -3.582,-8 -8,-8c-4.887,0 -11.113,0 -16,0c-4.418,0 -8,3.582 -8,8c0,4.887 0,11.113 0,16c0,4.418 3.582,8 8,8c4.887,0 11.113,0 16,0c4.418,0 8,-3.582 8,-8c0,-4.887 0,-11.113 0,-16Z"/></g><g id="emoji"><path d="M30,8c0,-1.591 -0.632,-3.117 -1.757,-4.243c-1.126,-1.125 -2.652,-1.757 -4.243,-1.757c-4.724,0 -11.276,0 -16,0c-1.591,0 -3.117,0.632 -4.243,1.757c-1.125,1.126 -1.757,2.652 -1.757,4.243c0,4.724 0,11.276 0,16c0,1.591 0.632,3.117 1.757,4.243c1.126,1.125 2.652,1.757 4.243,1.757c4.724,0 11.276,0 16,0c1.591,0 3.117,-0.632 4.243,-1.757c1.125,-1.126 1.757,-2.652 1.757,-4.243c0,-4.724 0,-11.276 0,-16Z" style="fill:#982eee;"/></g><path d="M7,7l2,0l0,11c0,0 4.548,-6.569 7.178,-10.368c0.249,-0.36 0.703,-0.516 1.12,-0.385c0.418,0.13 0.702,0.517 0.702,0.954c0,4.406 0,11.799 0,11.799c0,0 0.491,0.818 1.075,1.792c0.496,0.826 1.315,1.408 2.259,1.604c0.943,0.197 1.926,-0.01 2.71,-0.571c0.001,0 0.002,-0.001 0.003,-0.001c0.912,-0.652 1.453,-1.703 1.453,-2.824c0,-1.121 -0.541,-2.172 -1.453,-2.824c-0.001,0 -0.002,-0.001 -0.003,-0.001c-0.784,-0.561 -1.767,-0.768 -2.71,-0.571c-0.944,0.196 -1.763,0.778 -2.259,1.604c-1.211,2.018 -2.691,4.486 -3.492,5.821c-0.362,0.602 -1.013,0.971 -1.715,0.971c-1.183,0 -2.868,0 -2.868,0" style="fill:none;stroke:#fff;stroke-width:2px;"/></g></svg>