<?xml version="1.0" encoding="UTF-8" standalone="no"?><!DOCTYPE svg PUBLIC "-//W3C//DTD SVG 1.1//EN" "http://www.w3.org/Graphics/SVG/1.1/DTD/svg11.dtd"><svg width="100%" height="100%" viewBox="0 0 32 32" version="1.1" xmlns="http://www.w3.org/2000/svg" xmlns:xlink="http://www.w3.org/1999/xlink" xml:space="preserve" style="fill-rule:evenodd;clip-rule:evenodd;stroke-linejoin:round;stroke-miterlimit:1.5;"><rect id="leo" x="0" y="0" width="32" height="32" style="fill:none;"/><clipPath id="_clip1"><rect x="0" y="0" width="32" height="32"/></clipPath><g clip-path="url(#_clip1)"><g id="outline"><path d="M32,8c0,-4.418 -3.582,-8 -8,-8c-4.887,0 -11.113,0 -16,0c-4.418,0 -8,3.582 -8,8c0,4.887 0,11.113 0,16c0,4.418 3.582,8 8,8c4.887,0 11.113,0 16,0c4.418,0 8,-3.582 8,-8c0,-4.887 0,-11.113 0,-16Z"/></g><g id="emoji"><path d="M30,8c0,-1.591 -0.632,-3.117 -1.757,-4.243c-1.126,-1.125 -2.652,-1.757 -4.243,-1.757c-4.724,0 -11.276,0 -16,0c-1.591,0 -3.117,0.632 -4.243,1.757c-1.125,1.126 -1.757,2.652 -1.757,4.243c0,4.724 0,11.276 0,16c0,1.591 0.632,3.117 1.757,4.243c1.126,1.125 2.652,1.757 4.243,1.757c4.724,0 11.276,0 16,0c1.591,0 3.117,-0.632 4.243,-1.757c1.125,-1.126 1.757,-2.652 1.757,-4.243c0,-4.724 0,-11.276 0,-16Z" style="fill:#982eee;"/><circle cx="11" cy="18" r="4" style="fill:none;stroke:#fff;stroke-width:2px;"/><path d="M13.38,14.843c0,0 -0.749,-0.896 -1.407,-1.681c-0.629,-0.751 -0.973,-1.698 -0.973,-2.677c0,-0.001 0,-0.001 0,-0.001c0,-3.029 2.455,-5.484 5.484,-5.484c0.006,0 0.012,0 0.018,0c3.036,0 5.498,2.462 5.498,5.498c0,0.065 0,0.128 0,0.19c0,0.863 -0.201,1.714 -0.587,2.485c-1.009,2.02 -3.09,6.18 -4.357,8.715c-0.631,1.261 -0.383,2.785 0.614,3.782c0,0 0,0 0.001,0.001c0.618,0.618 1.455,0.965 2.329,0.965c0.874,0 1.711,-0.347 2.329,-0.965c0.39,-0.39 0.671,-0.671 0.671,-0.671" style="fill:none;stroke:#fff;stroke-width:2px;"/></g></g></svg>