<?xml version="1.0" encoding="UTF-8" standalone="no"?><!DOCTYPE svg PUBLIC "-//W3C//DTD SVG 1.1//EN" "http://www.w3.org/Graphics/SVG/1.1/DTD/svg11.dtd"><svg width="100%" height="100%" viewBox="0 0 32 32" version="1.1" xmlns="http://www.w3.org/2000/svg" xmlns:xlink="http://www.w3.org/1999/xlink" xml:space="preserve" style="fill-rule:evenodd;clip-rule:evenodd;stroke-linejoin:round;stroke-miterlimit:1.5;"><rect id="scorpio" x="0" y="0" width="32" height="32" style="fill:none;"/><clipPath id="_clip1"><rect x="0" y="0" width="32" height="32"/></clipPath><g clip-path="url(#_clip1)"><g id="outline"><path d="M32,8c0,-4.418 -3.582,-8 -8,-8c-4.887,0 -11.113,0 -16,0c-4.418,0 -8,3.582 -8,8c0,4.887 0,11.113 0,16c0,4.418 3.582,8 8,8c4.887,0 11.113,0 16,0c4.418,0 8,-3.582 8,-8c0,-4.887 0,-11.113 0,-16Z"/></g><g id="emoji"><path d="M30,8c0,-1.591 -0.632,-3.117 -1.757,-4.243c-1.126,-1.125 -2.652,-1.757 -4.243,-1.757c-4.724,0 -11.276,0 -16,0c-1.591,0 -3.117,0.632 -4.243,1.757c-1.125,1.126 -1.757,2.652 -1.757,4.243c0,4.724 0,11.276 0,16c0,1.591 0.632,3.117 1.757,4.243c1.126,1.125 2.652,1.757 4.243,1.757c4.724,0 11.276,0 16,0c1.591,0 3.117,-0.632 4.243,-1.757c1.125,-1.126 1.757,-2.652 1.757,-4.243c0,-4.724 0,-11.276 0,-16Z" style="fill:#982eee;"/><path d="M10,6l0,16" style="fill:none;stroke:#fff;stroke-width:2px;"/><path d="M10,11c0,0 1.844,-1.844 3.293,-3.293c0.286,-0.286 0.716,-0.371 1.09,-0.217c0.373,0.155 0.617,0.52 0.617,0.924c0,4.471 0,13.586 0,13.586" style="fill:none;stroke:#fff;stroke-width:2px;"/><path d="M15,11c0,0 1.844,-1.844 3.293,-3.293c0.286,-0.286 0.716,-0.371 1.09,-0.217c0.373,0.155 0.617,0.52 0.617,0.924c0,4.471 0,13.586 0,13.586l4,4" style="fill:none;stroke:#fff;stroke-width:2px;"/><path d="M19,26l5,0l0,-5" style="fill:none;stroke:#fff;stroke-width:2px;stroke-linejoin:miter;"/></g></g></svg>