<?xml version="1.0" encoding="UTF-8" standalone="no"?><!DOCTYPE svg PUBLIC "-//W3C//DTD SVG 1.1//EN" "http://www.w3.org/Graphics/SVG/1.1/DTD/svg11.dtd"><svg width="100%" height="100%" viewBox="0 0 32 32" version="1.1" xmlns="http://www.w3.org/2000/svg" xmlns:xlink="http://www.w3.org/1999/xlink" xml:space="preserve" xmlns:serif="http://www.serif.com/" style="fill-rule:evenodd;clip-rule:evenodd;stroke-linecap:round;stroke-linejoin:round;stroke-miterlimit:1.5;"><rect id="beating_heart" x="0" y="0" width="32" height="32" style="fill:none;"/><clipPath id="_clip1"><rect x="0" y="0" width="32" height="32"/></clipPath><g clip-path="url(#_clip1)"><g id="outline"><path d="M16,26c0,0 -5.293,-5.293 -9.25,-9.25c-2.347,-2.347 -2.347,-6.153 0,-8.5c0,0 0,0 0,0c2.347,-2.347 6.153,-2.347 8.5,0c0.451,0.451 0.75,0.75 0.75,0.75c0,0 0.299,-0.299 0.75,-0.75c2.347,-2.347 6.153,-2.347 8.5,0c0,0 0,0 0,0c2.347,2.347 2.347,6.153 0,8.5c-3.957,3.957 -9.25,9.25 -9.25,9.25Z" style="fill:none;stroke:#000;stroke-width:4px;"/><path d="M27,7c0,0 0,0 0,0c3.038,3.038 3.038,7.962 0,11c0,0 0,0 0,0" style="fill:none;stroke:#000;stroke-width:5.5px;"/><path d="M5,7c0,0 0,0 0,0c-3.038,3.038 -3.038,7.962 0,11c0,0 0,0 0,0" style="fill:none;stroke:#000;stroke-width:5.5px;"/></g><g id="emoji"><path d="M16,25.19c0,0 -4.763,-4.763 -8.411,-8.41c-1.086,-1.087 -1.696,-2.56 -1.696,-4.096c0,-1.536 0.61,-3.009 1.696,-4.096c0.001,0 0.001,0 0.002,-0.001c2.086,-2.086 5.468,-2.086 7.554,0c0.506,0.506 0.855,0.855 0.855,0.855c0,0 0.349,-0.349 0.855,-0.855c2.086,-2.086 5.468,-2.086 7.554,0c0.001,0.001 0.001,0.001 0.002,0.001c1.086,1.087 1.696,2.56 1.696,4.096c0,1.536 -0.61,3.009 -1.696,4.096c-3.648,3.647 -8.411,8.41 -8.411,8.41Z" style="fill:#ff4586;"/><clipPath id="_clip2"><path d="M16,25.19c0,0 -4.763,-4.763 -8.411,-8.41c-1.086,-1.087 -1.696,-2.56 -1.696,-4.096c0,-1.536 0.61,-3.009 1.696,-4.096c0.001,0 0.001,0 0.002,-0.001c2.086,-2.086 5.468,-2.086 7.554,0c0.506,0.506 0.855,0.855 0.855,0.855c0,0 0.349,-0.349 0.855,-0.855c2.086,-2.086 5.468,-2.086 7.554,0c0.001,0.001 0.001,0.001 0.002,0.001c1.086,1.087 1.696,2.56 1.696,4.096c0,1.536 -0.61,3.009 -1.696,4.096c-3.648,3.647 -8.411,8.41 -8.411,8.41Z"/></clipPath><g clip-path="url(#_clip2)"><path d="M23,1c0,0 0,1.906 0,3.858c0,2.652 -1.054,5.196 -2.929,7.071c-1.208,1.208 -2.589,2.589 -3.728,3.728c-1.5,1.5 -2.343,3.535 -2.343,5.657c0,2.566 0,5.686 0,5.686l-12,0l0,-26l21,0Z" style="fill:#ff8fb6;"/></g><path d="M11.072,6.49l0.072,0.001l0.072,0.002l0.072,0.003l0.072,0.004l0.072,0.005l0.072,0.005l0.072,0.007l0.072,0.007l0.072,0.008l0.071,0.009l0.072,0.01l0.071,0.011l0.072,0.012l0.071,0.012l0.071,0.013l0.071,0.015l0.071,0.015l0.07,0.016l0.071,0.016l0.07,0.018l0.07,0.018l0.07,0.02l0.07,0.02l0.07,0.021l0.069,0.022l0.069,0.023l0.069,0.023l0.069,0.025l0.068,0.025l0.069,0.026l0.068,0.027l0.067,0.028l0.068,0.029l0.067,0.03l0.067,0.03l0.066,0.032l0.066,0.032l0.066,0.033l0.066,0.034l0.065,0.035l0.065,0.036l0.065,0.036l0.064,0.037l0.064,0.039l0.063,0.039l0.063,0.04l0.063,0.041l0.062,0.041l0.062,0.043l0.062,0.043l0.061,0.044l0.06,0.046l0.06,0.046l0.06,0.046l0.059,0.048l0.059,0.049l0.058,0.049l0.058,0.05l0.057,0.052l0.057,0.052l0.057,0.052l0.055,0.054l0.056,0.055l0.75,0.75l0.75,-0.75l0.056,-0.055l0.055,-0.054l0.057,-0.052l0.057,-0.052l0.057,-0.052l0.058,-0.05l0.058,-0.049l0.059,-0.049l0.059,-0.048l0.06,-0.046l0.06,-0.046l0.06,-0.046l0.061,-0.044l0.062,-0.043l0.062,-0.043l0.062,-0.041l0.063,-0.041l0.063,-0.04l0.063,-0.039l0.064,-0.039l0.064,-0.037l0.065,-0.036l0.065,-0.036l0.065,-0.035l0.066,-0.034l0.066,-0.033l0.066,-0.032l0.066,-0.032l0.067,-0.03l0.067,-0.03l0.068,-0.029l0.067,-0.028l0.068,-0.027l0.069,-0.026l0.068,-0.025l0.069,-0.025l0.069,-0.023l0.069,-0.023l0.069,-0.022l0.07,-0.021l0.07,-0.02l0.07,-0.02l0.07,-0.018l0.07,-0.018l0.071,-0.016l0.07,-0.016l0.071,-0.015l0.071,-0.015l0.071,-0.013l0.071,-0.012l0.072,-0.012l0.071,-0.011l0.072,-0.01l0.071,-0.009l0.072,-0.008l0.072,-0.007l0.072,-0.007l0.072,-0.005l0.072,-0.005l0.072,-0.004l0.072,-0.003l0.072,-0.002l0.072,-0.001l0.072,-0.001l0.072,0.001l0.072,0.001l0.072,0.002l0.072,0.003l0.072,0.004l0.072,0.005l0.072,0.005l0.072,0.007l0.072,0.007l0.072,0.008l0.071,0.009l0.072,0.01l0.071,0.011l0.072,0.012l0.071,0.012l0.071,0.013l0.071,0.015l0.071,0.015l0.07,0.016l0.071,0.016l0.07,0.018l0.07,0.018l0.07,0.02l0.07,0.02l0.07,0.021l0.069,0.022l0.069,0.023l0.069,0.023l0.069,0.025l0.068,0.025l0.069,0.026l0.068,0.027l0.067,0.028l0.068,0.029l0.067,0.03l0.067,0.03l0.066,0.032l0.066,0.032l0.066,0.033l0.066,0.034l0.065,0.035l0.065,0.036l0.065,0.036l0.064,0.037l0.064,0.039l0.063,0.039l0.063,0.04l0.063,0.041l0.062,0.041l0.062,0.043l0.062,0.043l0.061,0.044l0.06,0.046l0.06,0.046l0.06,0.046l0.059,0.048l0.059,0.049l0.058,0.049l0.058,0.05l0.057,0.052l0.057,0.052l0.057,0.052l0.055,0.054l0.056,0.055l0.055,0.056l0.054,0.055l0.052,0.057l0.052,0.057l0.052,0.057l0.05,0.058l0.049,0.058l0.049,0.059l0.048,0.059l0.046,0.06l0.046,0.06l0.046,0.06l0.044,0.061l0.043,0.062l0.043,0.062l0.041,0.062l0.041,0.063l0.04,0.063l0.039,0.063l0.039,0.064l0.037,0.064l0.036,0.065l0.036,0.065l0.035,0.065l0.034,0.066l0.033,0.066l0.032,0.066l0.032,0.066l0.03,0.067l0.03,0.067l0.029,0.068l0.028,0.067l0.027,0.068l0.026,0.069l0.025,0.068l0.025,0.069l0.023,0.069l0.023,0.069l0.022,0.069l0.021,0.07l0.02,0.07l0.02,0.07l0.018,0.07l0.018,0.07l0.016,0.071l0.016,0.07l0.015,0.071l0.015,0.071l0.013,0.071l0.012,0.071l0.012,0.072l0.011,0.071l0.01,0.072l0.009,0.071l0.008,0.072l0.007,0.072l0.007,0.072l0.005,0.072l0.005,0.072l0.004,0.072l0.003,0.072l0.002,0.072l0.001,0.072l0.001,0.072l-0.001,0.072l-0.001,0.072l-0.002,0.072l-0.003,0.072l-0.004,0.072l-0.005,0.072l-0.005,0.072l-0.007,0.072l-0.007,0.072l-0.008,0.072l-0.009,0.071l-0.01,0.072l-0.011,0.071l-0.012,0.072l-0.012,0.071l-0.013,0.071l-0.015,0.071l-0.015,0.071l-0.016,0.07l-0.016,0.071l-0.018,0.07l-0.018,0.07l-0.02,0.07l-0.02,0.07l-0.021,0.07l-0.022,0.069l-0.023,0.069l-0.023,0.069l-0.025,0.069l-0.025,0.068l-0.026,0.069l-0.027,0.068l-0.028,0.067l-0.029,0.068l-0.03,0.067l-0.03,0.067l-0.032,0.066l-0.032,0.066l-0.033,0.066l-0.034,0.066l-0.035,0.065l-0.036,0.065l-0.036,0.065l-0.037,0.064l-0.039,0.064l-0.039,0.063l-0.04,0.063l-0.041,0.063l-0.041,0.062l-0.043,0.062l-0.043,0.062l-0.044,0.061l-0.046,0.06l-0.046,0.06l-0.046,0.06l-0.048,0.059l-0.049,0.059l-0.049,0.058l-0.05,0.058l-0.052,0.057l-0.052,0.057l-0.052,0.057l-0.054,0.055l-0.055,0.056l-9.25,9.25l-9.25,-9.25l-0.055,-0.056l-0.054,-0.055l-0.052,-0.057l-0.052,-0.057l-0.052,-0.057l-0.05,-0.058l-0.049,-0.058l-0.049,-0.059l-0.048,-0.059l-0.046,-0.06l-0.046,-0.06l-0.046,-0.06l-0.044,-0.061l-0.043,-0.062l-0.043,-0.062l-0.041,-0.062l-0.041,-0.063l-0.04,-0.063l-0.039,-0.063l-0.039,-0.064l-0.037,-0.064l-0.036,-0.065l-0.036,-0.065l-0.035,-0.065l-0.034,-0.066l-0.033,-0.066l-0.032,-0.066l-0.032,-0.066l-0.03,-0.067l-0.03,-0.067l-0.029,-0.068l-0.028,-0.067l-0.027,-0.068l-0.026,-0.069l-0.025,-0.068l-0.025,-0.069l-0.023,-0.069l-0.023,-0.069l-0.022,-0.069l-0.021,-0.07l-0.02,-0.07l-0.02,-0.07l-0.018,-0.07l-0.018,-0.07l-0.016,-0.071l-0.016,-0.07l-0.015,-0.071l-0.015,-0.071l-0.013,-0.071l-0.012,-0.071l-0.012,-0.072l-0.011,-0.071l-0.01,-0.072l-0.009,-0.071l-0.008,-0.072l-0.007,-0.072l-0.007,-0.072l-0.005,-0.072l-0.005,-0.072l-0.004,-0.072l-0.003,-0.072l-0.002,-0.072l-0.001,-0.072l-0.001,-0.072l0.001,-0.072l0.001,-0.072l0.002,-0.072l0.003,-0.072l0.004,-0.072l0.005,-0.072l0.005,-0.072l0.007,-0.072l0.007,-0.072l0.008,-0.072l0.009,-0.071l0.01,-0.072l0.011,-0.071l0.012,-0.072l0.012,-0.071l0.013,-0.071l0.015,-0.071l0.015,-0.071l0.016,-0.07l0.016,-0.071l0.018,-0.07l0.018,-0.07l0.02,-0.07l0.02,-0.07l0.021,-0.07l0.022,-0.069l0.023,-0.069l0.023,-0.069l0.025,-0.069l0.025,-0.068l0.026,-0.069l0.027,-0.068l0.028,-0.067l0.029,-0.068l0.03,-0.067l0.03,-0.067l0.032,-0.066l0.032,-0.066l0.033,-0.066l0.034,-0.066l0.035,-0.065l0.036,-0.065l0.036,-0.065l0.037,-0.064l0.039,-0.064l0.039,-0.063l0.04,-0.063l0.041,-0.063l0.041,-0.062l0.043,-0.062l0.043,-0.062l0.044,-0.061l0.046,-0.06l0.046,-0.06l0.046,-0.06l0.048,-0.059l0.049,-0.059l0.049,-0.058l0.05,-0.058l0.052,-0.057l0.052,-0.057l0.052,-0.057l0.054,-0.055l0.055,-0.056l0,0l0.056,-0.055l0.055,-0.054l0.057,-0.052l0.057,-0.052l0.057,-0.052l0.058,-0.05l0.058,-0.049l0.059,-0.049l0.059,-0.048l0.06,-0.046l0.06,-0.046l0.06,-0.046l0.061,-0.044l0.062,-0.043l0.062,-0.043l0.062,-0.041l0.063,-0.041l0.063,-0.04l0.063,-0.039l0.064,-0.039l0.064,-0.037l0.065,-0.036l0.065,-0.036l0.065,-0.035l0.066,-0.034l0.066,-0.033l0.066,-0.032l0.066,-0.032l0.067,-0.03l0.067,-0.03l0.068,-0.029l0.067,-0.028l0.068,-0.027l0.069,-0.026l0.068,-0.025l0.069,-0.025l0.069,-0.023l0.069,-0.023l0.069,-0.022l0.07,-0.021l0.07,-0.02l0.07,-0.02l0.07,-0.018l0.07,-0.018l0.071,-0.016l0.07,-0.016l0.071,-0.015l0.071,-0.015l0.071,-0.013l0.071,-0.012l0.072,-0.012l0.071,-0.011l0.072,-0.01l0.071,-0.009l0.072,-0.008l0.072,-0.007l0.072,-0.007l0.072,-0.005l0.072,-0.005l0.072,-0.004l0.072,-0.003l0.072,-0.002l0.072,-0.001l0.072,-0.001l0.072,0.001Zm9.88,2l-0.048,0.001l-0.049,0.001l-0.048,0.002l-0.048,0.003l-0.048,0.003l-0.048,0.004l-0.048,0.004l-0.049,0.005l-0.047,0.005l-0.048,0.006l-0.048,0.007l-0.048,0.007l-0.048,0.008l-0.047,0.008l-0.048,0.009l-0.047,0.009l-0.047,0.011l-0.048,0.01l-0.046,0.011l-0.048,0.012l-0.046,0.012l-0.047,0.013l-0.046,0.014l-0.047,0.014l-0.046,0.014l-0.046,0.016l-0.046,0.015l-0.046,0.017l-0.045,0.016l-0.046,0.018l-0.045,0.018l-0.045,0.018l-0.045,0.02l-0.045,0.019l-0.044,0.021l-0.044,0.02l-0.044,0.022l-0.044,0.022l-0.044,0.023l-0.043,0.023l-0.043,0.023l-0.043,0.025l-0.043,0.024l-0.042,0.026l-0.042,0.026l-0.042,0.026l-0.042,0.028l-0.041,0.027l-0.042,0.029l-0.04,0.029l-0.041,0.029l-0.04,0.03l-0.041,0.031l-0.04,0.031l-0.039,0.032l-0.039,0.033l-0.039,0.033l-0.039,0.033l-0.039,0.035l-0.038,0.035l-0.038,0.035l-0.037,0.036l-0.042,0.042l-2.16,2.159l-2.16,-2.16l-0.042,-0.041l-0.037,-0.036l-0.038,-0.036l-0.038,-0.035l-0.039,-0.034l-0.039,-0.033l-0.038,-0.033l-0.04,-0.033l-0.039,-0.032l-0.04,-0.031l-0.041,-0.031l-0.04,-0.03l-0.041,-0.029l-0.041,-0.029l-0.041,-0.029l-0.041,-0.027l-0.042,-0.028l-0.042,-0.026l-0.042,-0.026l-0.042,-0.026l-0.043,-0.024l-0.043,-0.025l-0.043,-0.023l-0.043,-0.023l-0.044,-0.023l-0.044,-0.022l-0.044,-0.021l-0.044,-0.021l-0.044,-0.021l-0.045,-0.019l-0.045,-0.02l-0.045,-0.018l-0.045,-0.018l-0.046,-0.017l-0.045,-0.017l-0.046,-0.017l-0.046,-0.015l-0.046,-0.016l-0.046,-0.014l-0.047,-0.014l-0.046,-0.014l-0.047,-0.013l-0.046,-0.012l-0.047,-0.012l-0.047,-0.011l-0.048,-0.01l-0.047,-0.011l-0.047,-0.009l-0.048,-0.009l-0.047,-0.008l-0.048,-0.008l-0.048,-0.007l-0.048,-0.007l-0.048,-0.006l-0.047,-0.005l-0.049,-0.005l-0.048,-0.004l-0.048,-0.004l-0.048,-0.003l-0.048,-0.003l-0.048,-0.002l-0.049,-0.001l-0.048,-0.001l-0.048,-0.001l-0.048,0.001l-0.048,0.001l-0.049,0.001l-0.048,0.002l-0.048,0.003l-0.048,0.003l-0.048,0.004l-0.048,0.004l-0.049,0.005l-0.047,0.005l-0.048,0.006l-0.048,0.007l-0.048,0.007l-0.048,0.008l-0.047,0.008l-0.048,0.009l-0.047,0.009l-0.047,0.011l-0.048,0.01l-0.047,0.011l-0.047,0.012l-0.046,0.012l-0.047,0.013l-0.046,0.014l-0.047,0.014l-0.046,0.014l-0.046,0.016l-0.046,0.015l-0.046,0.017l-0.045,0.017l-0.046,0.017l-0.045,0.018l-0.045,0.018l-0.045,0.02l-0.045,0.019l-0.044,0.021l-0.044,0.021l-0.044,0.021l-0.044,0.022l-0.044,0.022l-0.043,0.024l-0.043,0.023l-0.043,0.025l-0.043,0.024l-0.042,0.026l-0.042,0.026l-0.042,0.026l-0.042,0.028l-0.041,0.027l-0.041,0.029l-0.041,0.029l-0.041,0.029l-0.04,0.03l-0.041,0.031l-0.04,0.031l-0.039,0.032l-0.039,0.033l-0.039,0.033l-0.039,0.033l-0.039,0.034l-0.038,0.035l-0.038,0.036l-0.037,0.036l-0.037,0.036l0.008,-0.008l-0.046,0.047l-0.036,0.037l-0.035,0.038l-0.036,0.038l-0.034,0.039l-0.033,0.038l-0.034,0.04l-0.032,0.039l-0.032,0.04l-0.031,0.039l-0.031,0.04l-0.03,0.041l-0.029,0.041l-0.029,0.04l-0.029,0.042l-0.027,0.041l-0.028,0.042l-0.026,0.042l-0.026,0.042l-0.025,0.042l-0.025,0.043l-0.025,0.043l-0.023,0.043l-0.023,0.043l-0.023,0.044l-0.022,0.044l-0.021,0.044l-0.021,0.044l-0.021,0.045l-0.019,0.044l-0.02,0.045l-0.018,0.045l-0.018,0.045l-0.018,0.046l-0.016,0.045l-0.017,0.046l-0.015,0.046l-0.016,0.046l-0.014,0.046l-0.014,0.046l-0.014,0.047l-0.013,0.047l-0.012,0.046l-0.012,0.047l-0.011,0.048l-0.011,0.047l-0.009,0.047l-0.01,0.047l-0.009,0.048l-0.008,0.048l-0.008,0.047l-0.007,0.048l-0.007,0.047l-0.006,0.049l-0.005,0.048l-0.005,0.047l-0.004,0.049l-0.004,0.048l-0.003,0.047l-0.003,0.049l-0.002,0.048l-0.001,0.049l-0.001,0.048l-0.001,0.048l0.001,0.048l0.001,0.048l0.001,0.049l0.002,0.048l0.003,0.049l0.003,0.047l0.004,0.048l0.004,0.049l0.005,0.047l0.005,0.048l0.006,0.049l0.007,0.047l0.007,0.048l0.008,0.048l0.008,0.047l0.009,0.048l0.01,0.047l0.009,0.047l0.011,0.047l0.011,0.048l0.012,0.047l0.012,0.046l0.013,0.047l0.014,0.047l0.014,0.046l0.014,0.046l0.016,0.046l0.015,0.046l0.017,0.046l0.016,0.045l0.018,0.046l0.018,0.045l0.018,0.045l0.02,0.045l0.019,0.044l0.021,0.045l0.021,0.044l0.021,0.044l0.022,0.044l0.023,0.044l0.023,0.043l0.023,0.043l0.025,0.043l0.025,0.043l0.025,0.042l0.026,0.042l0.026,0.042l0.028,0.042l0.027,0.041l0.029,0.042l0.029,0.04l0.029,0.041l0.03,0.041l0.031,0.04l0.031,0.04l0.032,0.039l0.032,0.039l0.034,0.04l0.033,0.038l0.034,0.039l0.036,0.038l0.035,0.038l0.036,0.037l0.041,0.042l7.832,7.832l7.832,-7.832l0.041,-0.042l0.036,-0.037l0.036,-0.038l0.035,-0.038l0.034,-0.039l0.033,-0.039l0.034,-0.039l0.032,-0.039l0.032,-0.04l0.031,-0.039l0.031,-0.04l0.03,-0.041l0.029,-0.041l0.029,-0.04l0.029,-0.042l0.027,-0.041l0.027,-0.042l0.027,-0.042l0.026,-0.042l0.026,-0.043l0.024,-0.042l0.025,-0.043l0.024,-0.043l0.022,-0.043l0.023,-0.044l0.022,-0.044l0.022,-0.044l0.02,-0.044l0.02,-0.044l0.02,-0.045l0.02,-0.045l0.018,-0.045l0.018,-0.045l0.018,-0.046l0.016,-0.045l0.017,-0.046l0.015,-0.046l0.016,-0.046l0.014,-0.046l0.014,-0.046l0.014,-0.047l0.013,-0.047l0.012,-0.047l0.012,-0.046l0.011,-0.047l0.01,-0.047l0.01,-0.048l0.01,-0.047l0.009,-0.048l0.008,-0.048l0.008,-0.047l0.007,-0.048l0.007,-0.048l0.006,-0.048l0.005,-0.047l0.005,-0.049l0.004,-0.048l0.004,-0.047l0.003,-0.049l0.003,-0.048l0.002,-0.048l0.001,-0.049l0.001,-0.048l0.001,-0.048l-0.001,-0.048l-0.001,-0.048l-0.001,-0.049l-0.002,-0.048l-0.003,-0.048l-0.003,-0.049l-0.004,-0.047l-0.004,-0.048l-0.005,-0.049l-0.005,-0.047l-0.006,-0.048l-0.007,-0.048l-0.007,-0.048l-0.008,-0.047l-0.008,-0.048l-0.009,-0.048l-0.01,-0.047l-0.01,-0.048l-0.01,-0.047l-0.011,-0.047l-0.012,-0.047l-0.012,-0.046l-0.013,-0.047l-0.014,-0.047l-0.014,-0.046l-0.014,-0.046l-0.016,-0.047l-0.015,-0.045l-0.017,-0.046l-0.016,-0.045l-0.018,-0.046l-0.018,-0.045l-0.018,-0.045l-0.02,-0.045l-0.02,-0.045l-0.02,-0.044l-0.02,-0.044l-0.022,-0.044l-0.022,-0.044l-0.023,-0.044l-0.022,-0.043l-0.024,-0.043l-0.025,-0.043l-0.024,-0.042l-0.026,-0.043l-0.026,-0.042l-0.027,-0.042l-0.027,-0.042l-0.027,-0.041l-0.029,-0.042l-0.029,-0.04l-0.029,-0.041l-0.03,-0.041l-0.031,-0.04l-0.031,-0.039l-0.032,-0.04l-0.032,-0.039l-0.034,-0.039l-0.033,-0.039l-0.034,-0.039l-0.035,-0.038l-0.036,-0.038l-0.036,-0.037l-0.047,-0.047l0.009,0.008l-0.037,-0.036l-0.037,-0.036l-0.038,-0.036l-0.038,-0.034l-0.039,-0.035l-0.039,-0.033l-0.039,-0.033l-0.039,-0.033l-0.039,-0.032l-0.04,-0.031l-0.04,-0.031l-0.041,-0.03l-0.041,-0.029l-0.041,-0.029l-0.041,-0.029l-0.041,-0.027l-0.042,-0.028l-0.042,-0.026l-0.042,-0.026l-0.042,-0.026l-0.043,-0.024l-0.043,-0.025l-0.043,-0.023l-0.044,-0.024l-0.043,-0.022l-0.044,-0.022l-0.044,-0.021l-0.044,-0.021l-0.045,-0.021l-0.044,-0.019l-0.045,-0.019l-0.045,-0.019l-0.045,-0.018l-0.046,-0.018l-0.045,-0.016l-0.046,-0.017l-0.046,-0.015l-0.046,-0.016l-0.046,-0.014l-0.046,-0.014l-0.047,-0.014l-0.047,-0.013l-0.047,-0.012l-0.046,-0.012l-0.047,-0.011l-0.048,-0.01l-0.047,-0.011l-0.047,-0.009l-0.048,-0.009l-0.047,-0.008l-0.048,-0.008l-0.048,-0.007l-0.048,-0.007l-0.047,-0.006l-0.048,-0.005l-0.049,-0.005l-0.048,-0.004l-0.048,-0.004l-0.048,-0.003l-0.048,-0.003l-0.048,-0.002l-0.049,-0.001l-0.048,-0.001l-0.048,-0.001l-0.048,0.001Z" style="fill:#ff4586;"/><path d="M27,7c0,0 0,0 0,0c3.038,3.038 3.038,7.962 0,11c0,0 0,0 0,0" style="fill:none;stroke:#ae0b6d;stroke-width:1.5px;"/><path d="M5,7c0,0 0,0 0,0c-3.038,3.038 -3.038,7.962 0,11c0,0 0,0 0,0" style="fill:none;stroke:#ae0b6d;stroke-width:1.5px;"/></g></g></svg>