<?xml version="1.0" encoding="UTF-8" standalone="no"?>
<!DOCTYPE svg PUBLIC "-//W3C//DTD SVG 1.1//EN" "http://www.w3.org/Graphics/SVG/1.1/DTD/svg11.dtd">
<svg width="100%" height="100%" viewBox="0 0 32 32" version="1.1" xmlns="http://www.w3.org/2000/svg" xmlns:xlink="http://www.w3.org/1999/xlink" xml:space="preserve" xmlns:serif="http://www.serif.com/" style="fill-rule:evenodd;clip-rule:evenodd;stroke-linejoin:round;stroke-miterlimit:1.5;">
    <rect id="beating_heart" x="0" y="0" width="32" height="32" style="fill:none;"/>
    <path d="M3.712,8.236C3.582,8.629 3.157,8.842 2.764,8.712C2.371,8.582 2.158,8.157 2.288,7.764C2.288,7.764 2.817,6.018 5.382,4.7C7.845,3.434 10.102,3.757 10.102,3.757C10.512,3.813 10.799,4.192 10.743,4.602C10.687,5.012 10.308,5.299 9.898,5.243C9.898,5.243 8.069,5.005 6.068,6.034C4.168,7.01 3.712,8.236 3.712,8.236ZM29.712,7.764C29.842,8.157 29.629,8.582 29.236,8.712C28.843,8.842 28.418,8.629 28.288,8.236C28.288,8.236 27.832,7.01 25.932,6.034C23.931,5.005 22.102,5.243 22.102,5.243C21.692,5.299 21.313,5.012 21.257,4.602C21.201,4.192 21.488,3.813 21.898,3.757C21.898,3.757 24.155,3.434 26.618,4.7C29.183,6.018 29.712,7.764 29.712,7.764ZM2.841,23.858C2.643,23.495 2.778,23.039 3.142,22.841C3.505,22.643 3.961,22.778 4.159,23.142C5.028,24.74 7.473,27.455 9.319,28.321C9.693,28.497 9.855,28.944 9.679,29.319C9.503,29.693 9.056,29.855 8.681,29.679C6.599,28.702 3.821,25.661 2.841,23.858ZM27.841,23.142C28.039,22.778 28.495,22.643 28.858,22.841C29.222,23.039 29.357,23.495 29.159,23.858C28.179,25.661 25.401,28.702 23.319,29.679C22.944,29.855 22.497,29.693 22.321,29.319C22.145,28.944 22.307,28.497 22.681,28.321C24.527,27.455 26.972,24.74 27.841,23.142ZM15.252,28.833C13.313,27.866 8.08,24.941 5.291,20.317C1.855,14.621 4.241,8.323 9.381,8.013C12.361,7.834 14.49,9.493 15.443,11.568C15.528,11.803 15.751,11.959 16,11.959C16.25,11.959 16.472,11.803 16.558,11.569C17.51,9.493 19.639,7.834 22.619,8.013C27.759,8.323 30.145,14.621 26.709,20.317C23.92,24.941 18.687,27.866 16.748,28.833C16.274,29.056 15.726,29.056 15.252,28.833Z" style="fill:none;stroke:black;stroke-width:4px;"/>
    <path d="M3.712,8.236C3.582,8.629 3.157,8.842 2.764,8.712C2.371,8.582 2.158,8.157 2.288,7.764C2.288,7.764 2.817,6.018 5.382,4.7C7.845,3.434 10.102,3.757 10.102,3.757C10.512,3.813 10.799,4.192 10.743,4.602C10.687,5.012 10.308,5.299 9.898,5.243C9.898,5.243 8.069,5.005 6.068,6.034C4.168,7.01 3.712,8.236 3.712,8.236ZM29.712,7.764C29.842,8.157 29.629,8.582 29.236,8.712C28.843,8.842 28.418,8.629 28.288,8.236C28.288,8.236 27.832,7.01 25.932,6.034C23.931,5.005 22.102,5.243 22.102,5.243C21.692,5.299 21.313,5.012 21.257,4.602C21.201,4.192 21.488,3.813 21.898,3.757C21.898,3.757 24.155,3.434 26.618,4.7C29.183,6.018 29.712,7.764 29.712,7.764ZM2.841,23.858C2.643,23.495 2.778,23.039 3.142,22.841C3.505,22.643 3.961,22.778 4.159,23.142C5.028,24.74 7.473,27.455 9.319,28.321C9.693,28.497 9.855,28.944 9.679,29.319C9.503,29.693 9.056,29.855 8.681,29.679C6.599,28.702 3.821,25.661 2.841,23.858ZM27.841,23.142C28.039,22.778 28.495,22.643 28.858,22.841C29.222,23.039 29.357,23.495 29.159,23.858C28.179,25.661 25.401,28.702 23.319,29.679C22.944,29.855 22.497,29.693 22.321,29.319C22.145,28.944 22.307,28.497 22.681,28.321C24.527,27.455 26.972,24.74 27.841,23.142Z" style="fill:rgb(228,2,101);"/>
    <path d="M3.772,13.572C4.88,20.738 27.374,20.544 28.276,13.958C28.475,15.926 28.008,18.165 26.709,20.317C23.92,24.941 18.687,27.866 16.748,28.833C16.274,29.056 15.726,29.056 15.252,28.833C13.313,27.866 8.08,24.941 5.291,20.317C3.907,18.023 3.468,15.631 3.772,13.572Z" style="fill:rgb(206,2,72);"/>
    <path d="M28.276,13.958C27.374,20.544 18.626,26.056 16,26.099C13.149,26.146 4.88,20.738 3.772,13.572C4.224,10.519 6.311,8.198 9.381,8.013C12.361,7.834 14.49,9.493 15.443,11.568C15.528,11.803 15.751,11.959 16,11.959C16.25,11.959 16.472,11.803 16.558,11.569C17.51,9.493 19.639,7.834 22.619,8.013C25.817,8.206 27.949,10.716 28.276,13.958Z" style="fill:rgb(255,60,128);"/>
</svg>
