<?xml version="1.0" encoding="UTF-8" standalone="no"?>
<!DOCTYPE svg PUBLIC "-//W3C//DTD SVG 1.1//EN" "http://www.w3.org/Graphics/SVG/1.1/DTD/svg11.dtd">
<svg width="100%" height="100%" viewBox="0 0 32 32" version="1.1" xmlns="http://www.w3.org/2000/svg" xmlns:xlink="http://www.w3.org/1999/xlink" xml:space="preserve" xmlns:serif="http://www.serif.com/" style="fill-rule:evenodd;clip-rule:evenodd;stroke-linejoin:round;stroke-miterlimit:1.5;">
    <rect id="beating_heart" x="0" y="0" width="32" height="32" style="fill:none;"/>
    <path d="M16,29C16,29 8.822,25.905 5.385,20.208C1.979,14.563 4.345,8.32 9.439,8.013C12.393,7.835 14.504,9.48 15.448,11.537C15.533,11.769 15.753,11.924 16,11.924C16.247,11.924 16.468,11.769 16.553,11.537C17.496,9.48 19.607,7.835 22.561,8.013C27.655,8.32 30.021,14.563 26.615,20.208C23.178,25.905 16,29 16,29ZM3.712,8.236C3.582,8.629 3.157,8.842 2.764,8.712C2.371,8.582 2.158,8.157 2.288,7.764C2.288,7.764 2.817,6.018 5.382,4.7C7.845,3.434 10.102,3.757 10.102,3.757C10.512,3.813 10.799,4.192 10.743,4.602C10.687,5.012 10.308,5.299 9.898,5.243C9.898,5.243 8.069,5.005 6.068,6.034C4.168,7.01 3.712,8.236 3.712,8.236ZM29.712,7.764C29.842,8.157 29.629,8.582 29.236,8.712C28.843,8.842 28.418,8.629 28.288,8.236C28.288,8.236 27.832,7.01 25.932,6.034C23.931,5.005 22.102,5.243 22.102,5.243C21.692,5.299 21.313,5.012 21.257,4.602C21.201,4.192 21.488,3.813 21.898,3.757C21.898,3.757 24.155,3.434 26.618,4.7C29.183,6.018 29.712,7.764 29.712,7.764ZM2.841,23.858C2.643,23.495 2.778,23.039 3.142,22.841C3.505,22.643 3.961,22.778 4.159,23.142C5.028,24.74 7.473,27.455 9.319,28.321C9.693,28.497 9.855,28.944 9.679,29.319C9.503,29.693 9.056,29.855 8.681,29.679C6.599,28.702 3.821,25.661 2.841,23.858ZM27.841,23.142C28.039,22.778 28.495,22.643 28.858,22.841C29.222,23.039 29.357,23.495 29.159,23.858C28.179,25.661 25.401,28.702 23.319,29.679C22.944,29.855 22.497,29.693 22.321,29.319C22.145,28.944 22.307,28.497 22.681,28.321C24.527,27.455 26.972,24.74 27.841,23.142Z" style="fill:none;stroke:black;stroke-width:4px;"/>
    <path d="M3.712,8.236C3.582,8.629 3.157,8.842 2.764,8.712C2.371,8.582 2.158,8.157 2.288,7.764C2.288,7.764 2.817,6.018 5.382,4.7C7.845,3.434 10.102,3.757 10.102,3.757C10.512,3.813 10.799,4.192 10.743,4.602C10.687,5.012 10.308,5.299 9.898,5.243C9.898,5.243 8.069,5.005 6.068,6.034C4.168,7.01 3.712,8.236 3.712,8.236ZM29.712,7.764C29.842,8.157 29.629,8.582 29.236,8.712C28.843,8.842 28.418,8.629 28.288,8.236C28.288,8.236 27.832,7.01 25.932,6.034C23.931,5.005 22.102,5.243 22.102,5.243C21.692,5.299 21.313,5.012 21.257,4.602C21.201,4.192 21.488,3.813 21.898,3.757C21.898,3.757 24.155,3.434 26.618,4.7C29.183,6.018 29.712,7.764 29.712,7.764ZM2.841,23.858C2.643,23.495 2.778,23.039 3.142,22.841C3.505,22.643 3.961,22.778 4.159,23.142C5.028,24.74 7.473,27.455 9.319,28.321C9.693,28.497 9.855,28.944 9.679,29.319C9.503,29.693 9.056,29.855 8.681,29.679C6.599,28.702 3.821,25.661 2.841,23.858ZM27.841,23.142C28.039,22.778 28.495,22.643 28.858,22.841C29.222,23.039 29.357,23.495 29.159,23.858C28.179,25.661 25.401,28.702 23.319,29.679C22.944,29.855 22.497,29.693 22.321,29.319C22.145,28.944 22.307,28.497 22.681,28.321C24.527,27.455 26.972,24.74 27.841,23.142Z" style="fill:rgb(228,2,101);"/>
    <path d="M3.88,13.523C4.978,20.626 27.274,20.433 28.168,13.905C28.365,15.856 27.902,18.075 26.615,20.208C23.178,25.905 16,29 16,29C16,29 8.822,25.905 5.385,20.208C4.013,17.935 3.578,15.564 3.88,13.523Z" style="fill:rgb(206,2,73);"/>
    <path d="M28.168,13.905C27.274,20.433 18.603,25.897 16,25.939C13.174,25.986 4.978,20.626 3.88,13.523C4.327,10.497 6.397,8.196 9.439,8.013C12.393,7.835 14.504,9.48 15.448,11.537C15.533,11.769 15.753,11.924 16,11.924C16.247,11.924 16.468,11.769 16.553,11.537C17.496,9.48 19.607,7.835 22.561,8.013C25.73,8.204 27.843,10.692 28.168,13.905Z" style="fill:rgb(255,60,128);"/>
</svg>
