<?xml version="1.0" encoding="UTF-8" standalone="no"?>
<!DOCTYPE svg PUBLIC "-//W3C//DTD SVG 1.1//EN" "http://www.w3.org/Graphics/SVG/1.1/DTD/svg11.dtd">
<svg width="100%" height="100%" viewBox="0 0 32 32" version="1.1" xmlns="http://www.w3.org/2000/svg" xmlns:xlink="http://www.w3.org/1999/xlink" xml:space="preserve" xmlns:serif="http://www.serif.com/" style="fill-rule:evenodd;clip-rule:evenodd;stroke-linejoin:round;stroke-miterlimit:1.5;">
    <rect id="broken_heart" x="0" y="0" width="32" height="32" style="fill:none;"/>
    <path d="M16,28.5C16,28.5 24.209,24.96 28.139,18.446C32.034,11.99 29.329,4.851 23.503,4.5C20.124,4.297 17.711,6.178 16.632,8.53C16.535,8.795 16.283,8.972 16,8.972C15.718,8.972 15.465,8.795 15.369,8.53C14.289,6.178 11.876,4.297 8.497,4.5C2.671,4.851 -0.034,11.99 3.861,18.446C7.791,24.96 16,28.5 16,28.5Z" style="fill:none;stroke:black;stroke-width:4px;"/>
    <path d="M14.684,27.86C12.204,26.569 6.82,23.35 3.861,18.446C2.293,15.846 1.794,13.135 2.14,10.801C3.395,18.924 28.892,18.703 29.915,11.238C30.14,13.469 29.611,16.006 28.139,18.446C24.959,23.717 18.977,27.041 16.81,28.117L14.684,27.86Z" style="fill:rgb(206,2,73);"/>
    <path d="M14.089,24.588C10.036,23.088 3.199,17.654 2.14,10.801C2.651,7.341 5.018,4.709 8.497,4.5C11.282,4.332 13.41,5.581 14.677,7.341L15.824,10L16.5,10L16.887,8.028C18.065,5.917 20.368,4.311 23.503,4.5C27.127,4.718 29.544,7.564 29.915,11.238C28.94,18.355 19.884,24.364 16.461,24.953C16.913,24.502 14.138,24.48 14.089,24.588Z" style="fill:rgb(255,60,128);"/>
    <path d="M14.684,27.86L14.03,25.243C13.945,24.902 14.045,24.541 14.293,24.293L17.519,21.067L12.36,16.768C12.125,16.572 11.992,16.28 12,15.974C12.008,15.669 12.155,15.383 12.4,15.2L15.88,12.59L14.677,7.341C14.948,7.717 15.179,8.116 15.369,8.53C15.465,8.795 15.718,8.972 16,8.972C16.283,8.972 16.535,8.795 16.632,8.53C16.71,8.36 16.795,8.193 16.887,8.028L17.975,12.777C18.063,13.162 17.916,13.563 17.6,13.8C17.6,13.8 14.612,16.041 14.612,16.041L19.64,20.232C19.856,20.412 19.986,20.674 19.999,20.955C20.012,21.235 19.906,21.508 19.707,21.707C19.707,21.707 16.107,25.307 16.107,25.307L16.81,28.117C16.299,28.371 16,28.5 16,28.5C16,28.5 15.499,28.284 14.684,27.86Z" style="fill:rgb(97,1,43);"/>
</svg>
