<?xml version="1.0" encoding="UTF-8" standalone="no"?>
<!DOCTYPE svg PUBLIC "-//W3C//DTD SVG 1.1//EN" "http://www.w3.org/Graphics/SVG/1.1/DTD/svg11.dtd">
<svg width="100%" height="100%" viewBox="0 0 32 32" version="1.1" xmlns="http://www.w3.org/2000/svg" xmlns:xlink="http://www.w3.org/1999/xlink" xml:space="preserve" xmlns:serif="http://www.serif.com/" style="fill-rule:evenodd;clip-rule:evenodd;stroke-linejoin:round;stroke-miterlimit:1.5;">
    <rect id="empty_heart" x="0" y="0" width="32" height="32" style="fill:none;"/>
    <path d="M16,28.5C16,28.5 24.209,24.96 28.139,18.446C32.034,11.99 29.329,4.851 23.503,4.5C18.827,4.219 16,7.93 16,11.357C16,7.93 13.173,4.219 8.497,4.5C2.671,4.851 -0.034,11.99 3.861,18.446C7.791,24.96 16,28.5 16,28.5Z" style="fill:none;stroke:black;stroke-width:4px;"/>
    <path d="M16,28.5C16,28.5 24.209,24.96 28.139,18.446C32.034,11.99 29.329,4.851 23.503,4.5C18.827,4.219 16,7.93 16,11.357C16,7.93 13.173,4.219 8.497,4.5C2.671,4.851 -0.034,11.99 3.861,18.446C7.791,24.96 16,28.5 16,28.5Z"/>
    <path d="M13.545,27.245C13.065,26.972 12.896,26.361 13.169,25.881C13.441,25.401 14.052,25.233 14.532,25.505C15.114,25.836 15.616,26.098 16.001,26.288C16.384,26.097 16.886,25.836 17.468,25.505C17.948,25.233 18.559,25.401 18.831,25.881C19.104,26.361 18.935,26.972 18.455,27.245C17.564,27.751 16.847,28.106 16.428,28.304C16.157,28.432 15.843,28.432 15.572,28.304C15.153,28.106 14.436,27.751 13.545,27.245ZM22.263,24.739C21.824,25.073 21.196,24.988 20.862,24.548C20.527,24.109 20.613,23.481 21.052,23.147C22.118,22.335 23.212,21.388 24.217,20.308C24.593,19.904 25.226,19.881 25.63,20.257C26.034,20.633 26.057,21.266 25.681,21.67C24.595,22.837 23.415,23.862 22.263,24.739ZM28.446,17.911C28.182,18.396 27.574,18.575 27.089,18.311C26.605,18.047 26.425,17.44 26.689,16.955C27.383,15.679 27.783,14.377 27.916,13.137C27.975,12.588 28.468,12.19 29.017,12.249C29.565,12.308 29.963,12.801 29.904,13.35C29.746,14.831 29.275,16.387 28.446,17.911ZM29.205,8.499C29.432,9.003 29.208,9.595 28.705,9.822C28.201,10.049 27.609,9.825 27.382,9.321C26.862,8.168 26.002,7.266 24.852,6.813C24.338,6.611 24.085,6.03 24.287,5.516C24.49,5.003 25.071,4.75 25.584,4.952C27.22,5.596 28.466,6.859 29.205,8.499ZM20.541,4.906C21.061,4.719 21.634,4.989 21.821,5.508C22.009,6.027 21.739,6.601 21.22,6.788C19.988,7.232 19.073,8.127 18.541,9.172C18.291,9.664 17.689,9.861 17.197,9.611C16.705,9.361 16.508,8.758 16.758,8.266C17.508,6.792 18.804,5.533 20.541,4.906ZM15.241,8.266C15.492,8.757 15.296,9.36 14.805,9.611C14.313,9.862 13.71,9.666 13.459,9.175C12.924,8.126 12.009,7.232 10.78,6.788C10.261,6.601 9.991,6.027 10.179,5.508C10.366,4.989 10.94,4.72 11.459,4.907C13.192,5.533 14.487,6.788 15.241,8.266ZM6.416,4.952C6.929,4.75 7.51,5.003 7.712,5.516C7.915,6.03 7.662,6.611 7.148,6.813C5.998,7.266 5.138,8.168 4.618,9.321C4.391,9.825 3.799,10.049 3.295,9.822C2.792,9.595 2.568,9.003 2.795,8.5C3.534,6.859 4.78,5.596 6.416,4.952ZM2.096,13.35C2.037,12.801 2.435,12.308 2.983,12.249C3.532,12.19 4.025,12.588 4.084,13.137C4.217,14.377 4.617,15.679 5.311,16.955C5.575,17.44 5.395,18.047 4.911,18.311C4.426,18.575 3.818,18.396 3.554,17.911C2.725,16.387 2.254,14.831 2.096,13.35ZM6.319,21.67C5.943,21.266 5.966,20.633 6.37,20.257C6.774,19.881 7.407,19.904 7.783,20.308C8.788,21.388 9.882,22.335 10.948,23.147C11.387,23.481 11.473,24.109 11.138,24.548C10.804,24.988 10.176,25.073 9.737,24.739C8.585,23.862 7.405,22.837 6.319,21.67Z" style="fill:rgb(255,117,117);"/>
</svg>
