<?xml version="1.0" encoding="UTF-8" standalone="no"?><!DOCTYPE svg PUBLIC "-//W3C//DTD SVG 1.1//EN" "http://www.w3.org/Graphics/SVG/1.1/DTD/svg11.dtd"><svg width="100%" height="100%" viewBox="0 0 32 32" version="1.1" xmlns="http://www.w3.org/2000/svg" xmlns:xlink="http://www.w3.org/1999/xlink" xml:space="preserve" xmlns:serif="http://www.serif.com/" style="fill-rule:evenodd;clip-rule:evenodd;stroke-linecap:round;stroke-linejoin:round;stroke-miterlimit:1.5;"><rect id="growing_heart" x="0" y="0" width="32" height="32" style="fill:none;"/><g id="outline"><path d="M16,28c0,0 -6.877,-6.877 -11.751,-11.751c-2.623,-2.623 -2.623,-6.875 0,-9.498c0.001,-0.001 0.001,-0.001 0.002,-0.002c1.26,-1.26 2.968,-1.967 4.749,-1.967c1.781,0 3.489,0.707 4.749,1.967c1.247,1.247 2.251,2.251 2.251,2.251c0,0 1.004,-1.004 2.251,-2.251c1.26,-1.26 2.968,-1.967 4.749,-1.967c1.781,0 3.489,0.707 4.749,1.967c0.001,0.001 0.001,0.001 0.002,0.002c2.623,2.623 2.623,6.875 0,9.498c-4.874,4.874 -11.751,11.751 -11.751,11.751Z" style="fill:none;stroke:#000;stroke-width:4px;"/></g><g id="emoji"><path d="M16,28c0,0 -6.877,-6.877 -11.751,-11.751c-2.623,-2.623 -2.623,-6.875 0,-9.498c0.001,-0.001 0.001,-0.001 0.002,-0.002c1.26,-1.26 2.968,-1.967 4.749,-1.967c1.781,0 3.489,0.707 4.749,1.967c1.247,1.247 2.251,2.251 2.251,2.251c0,0 1.004,-1.004 2.251,-2.251c1.26,-1.26 2.968,-1.967 4.749,-1.967c1.781,0 3.489,0.707 4.749,1.967c0.001,0.001 0.001,0.001 0.002,0.002c2.623,2.623 2.623,6.875 0,9.498c-4.874,4.874 -11.751,11.751 -11.751,11.751Z" style="fill:#ff4586;"/><path d="M16,25.247c0,0 -5.184,-5.184 -8.811,-8.81c-1.905,-1.906 -1.905,-4.996 0,-6.902c0.001,0 0.001,0 0.001,0c0.915,-0.916 2.157,-1.43 3.451,-1.43c1.294,0 2.535,0.514 3.45,1.43c1.039,1.038 1.909,1.908 1.909,1.908c0,0 0.87,-0.87 1.909,-1.908c0.915,-0.916 2.156,-1.43 3.45,-1.43c1.294,0 2.536,0.514 3.451,1.43c0,0 0,0 0.001,0c1.905,1.906 1.905,4.996 0,6.902c-3.627,3.626 -8.811,8.81 -8.811,8.81Z" style="fill:#ae0b6d;"/><path d="M16,20.884c0,0 -2.953,-2.954 -4.927,-4.927c-0.957,-0.957 -0.957,-2.509 0,-3.467c0.001,0 0.002,-0.001 0.003,-0.002c0.957,-0.957 2.509,-0.957 3.466,0c0.75,0.749 1.458,1.458 1.458,1.458c0,0 0.708,-0.709 1.458,-1.458c0.957,-0.957 2.509,-0.957 3.466,0c0.001,0.001 0.002,0.002 0.003,0.002c0.957,0.958 0.957,2.51 0,3.467c-1.974,1.973 -4.927,4.927 -4.927,4.927Z" style="fill:#670640;"/></g></svg>