<?xml version="1.0" encoding="UTF-8" standalone="no"?>
<!DOCTYPE svg PUBLIC "-//W3C//DTD SVG 1.1//EN" "http://www.w3.org/Graphics/SVG/1.1/DTD/svg11.dtd">
<svg width="100%" height="100%" viewBox="0 0 32 32" version="1.1" xmlns="http://www.w3.org/2000/svg" xmlns:xlink="http://www.w3.org/1999/xlink" xml:space="preserve" xmlns:serif="http://www.serif.com/" style="fill-rule:evenodd;clip-rule:evenodd;stroke-linejoin:round;stroke-miterlimit:1.5;">
    <rect id="growing_heart" x="0" y="0" width="32" height="32" style="fill:none;"/>
    <path d="M15.153,28.096C15.689,28.349 16.311,28.349 16.848,28.097C19.045,27 24.977,23.685 28.139,18.443C32.034,11.988 29.329,4.848 23.503,4.498C20.124,4.294 17.711,6.175 16.632,8.528C16.535,8.793 16.283,8.97 16,8.97C15.718,8.969 15.465,8.793 15.369,8.527C14.289,6.175 11.876,4.294 8.497,4.498C2.671,4.848 -0.034,11.988 3.861,18.443C7.023,23.685 12.955,27 15.153,28.096Z" style="fill:none;stroke:black;stroke-width:4px;"/>
    <path d="M15.153,28.096C15.689,28.349 16.311,28.349 16.848,28.097C19.045,27 24.977,23.685 28.139,18.443C32.034,11.988 29.329,4.848 23.503,4.498C20.124,4.294 17.711,6.175 16.632,8.528C16.535,8.793 16.283,8.97 16,8.97C15.718,8.969 15.465,8.793 15.369,8.527C14.289,6.175 11.876,4.294 8.497,4.498C2.671,4.848 -0.034,11.988 3.861,18.443C7.023,23.685 12.955,27 15.153,28.096Z" style="fill:rgb(254,191,213);"/>
    <path d="M15.395,25.864C15.778,26.045 16.222,26.045 16.605,25.865C18.175,25.082 22.411,22.714 24.669,18.971C27.451,14.36 25.519,9.261 21.358,9.011C18.946,8.866 17.222,10.209 16.451,11.889C16.382,12.079 16.202,12.205 16,12.205C15.798,12.205 15.618,12.078 15.549,11.889C14.778,10.209 13.054,8.866 10.642,9.011C6.481,9.261 4.549,14.36 7.331,18.971C9.589,22.714 13.825,25.082 15.395,25.864Z" style="fill:rgb(254,137,178);"/>
    <path d="M10.177,15.654C10.705,19.066 21.416,18.973 21.846,15.837C21.94,16.774 21.718,17.84 21.1,18.865C19.771,21.067 17.279,22.46 16.356,22.92C16.131,23.027 15.869,23.027 15.644,22.92C14.721,22.46 12.229,21.067 10.9,18.865C10.241,17.773 10.032,16.634 10.177,15.654Z" style="fill:rgb(206,2,73);"/>
    <path d="M21.846,15.837C21.416,18.973 17.25,21.598 16,21.619C14.642,21.641 10.705,19.066 10.177,15.654C10.392,14.2 11.386,13.094 12.848,13.006C14.267,12.921 15.281,13.711 15.735,14.699C15.775,14.811 15.881,14.885 16,14.885C16.119,14.885 16.225,14.811 16.266,14.699C16.719,13.711 17.733,12.921 19.152,13.006C20.675,13.098 21.69,14.293 21.846,15.837Z" style="fill:rgb(255,60,128);"/>
</svg>
