<?xml version="1.0" encoding="UTF-8" standalone="no"?>
<!DOCTYPE svg PUBLIC "-//W3C//DTD SVG 1.1//EN" "http://www.w3.org/Graphics/SVG/1.1/DTD/svg11.dtd">
<svg width="100%" height="100%" viewBox="0 0 32 32" version="1.1" xmlns="http://www.w3.org/2000/svg" xmlns:xlink="http://www.w3.org/1999/xlink" xml:space="preserve" xmlns:serif="http://www.serif.com/" style="fill-rule:evenodd;clip-rule:evenodd;stroke-linejoin:round;stroke-miterlimit:1.5;">
    <rect id="half_heart" x="0" y="0" width="32" height="32" style="fill:none;"/>
    <path d="M15.153,28.099C15.689,28.352 16.311,28.352 16.848,28.099C19.045,27.003 24.977,23.687 28.139,18.446C32.034,11.99 29.329,4.851 23.503,4.5C20.124,4.297 17.711,6.178 16.632,8.53C16.535,8.795 16.283,8.972 16,8.972C15.718,8.972 15.465,8.795 15.369,8.53C14.289,6.178 11.876,4.297 8.497,4.5C2.671,4.851 -0.034,11.99 3.861,18.446C7.023,23.687 12.955,27.003 15.153,28.099Z" style="fill:none;stroke:black;stroke-width:4px;"/>
    <path d="M15.153,28.099C15.689,28.352 16.311,28.352 16.848,28.099C19.045,27.003 24.977,23.687 28.139,18.446C32.034,11.99 29.329,4.851 23.503,4.5C20.124,4.297 17.711,6.178 16.632,8.53C16.535,8.795 16.283,8.972 16,8.972C15.718,8.972 15.465,8.795 15.369,8.53C14.289,6.178 11.876,4.297 8.497,4.5C2.671,4.851 -0.034,11.99 3.861,18.446C7.023,23.687 12.955,27.003 15.153,28.099Z"/>
    <path d="M28.898,17C28.761,17.304 27.574,18.575 27.089,18.311C26.605,18.047 26.425,17.44 26.689,16.955C27.383,15.679 27.783,14.377 27.916,13.137C27.975,12.588 28.468,12.19 29.017,12.249C29.565,12.308 29.963,12.801 29.904,13.35C29.777,14.537 29.449,15.772 28.898,17ZM29.205,8.499C29.432,9.003 29.208,9.595 28.705,9.822C28.201,10.049 27.609,9.825 27.382,9.321C26.862,8.168 26.002,7.266 24.852,6.813C24.338,6.611 24.085,6.03 24.287,5.516C24.49,5.003 25.071,4.75 25.584,4.952C27.22,5.596 28.466,6.859 29.205,8.499ZM20.541,4.906C21.061,4.719 21.634,4.989 21.821,5.508C22.009,6.027 21.739,6.601 21.22,6.788C19.988,7.232 19.073,8.127 18.541,9.172C18.291,9.664 17.689,9.861 17.197,9.611C16.705,9.361 16.508,8.758 16.758,8.266C17.508,6.792 18.804,5.533 20.541,4.906ZM15.241,8.266C15.492,8.757 15.296,9.36 14.805,9.611C14.313,9.862 13.71,9.666 13.459,9.175C12.924,8.126 12.009,7.232 10.78,6.788C10.261,6.601 9.991,6.027 10.179,5.508C10.366,4.989 10.94,4.72 11.459,4.907C13.192,5.533 14.487,6.788 15.241,8.266ZM6.416,4.952C6.929,4.75 7.51,5.003 7.712,5.516C7.915,6.03 7.662,6.611 7.148,6.813C5.998,7.266 5.138,8.168 4.618,9.321C4.391,9.825 3.799,10.049 3.295,9.822C2.792,9.595 2.568,9.003 2.795,8.5C3.534,6.859 4.78,5.596 6.416,4.952ZM2.096,13.35C2.037,12.801 2.435,12.308 2.983,12.249C3.532,12.19 4.025,12.588 4.084,13.137C4.217,14.377 4.617,15.679 5.311,16.955C5.575,17.44 5.395,18.047 4.911,18.311C4.426,18.575 3.239,17.304 3.102,17C2.551,15.772 2.223,14.537 2.096,13.35Z" style="fill:rgb(255,117,117);"/>
    <path d="M27.395,17L28.899,17C28.681,17.484 28.428,17.967 28.139,18.446C24.977,23.687 19.045,27.003 16.848,28.099C16.311,28.352 15.689,28.352 15.153,28.099C12.955,27.003 7.023,23.687 3.861,18.446C3.572,17.967 3.319,17.484 3.101,17L4.746,17C8.114,21.844 23.977,21.663 27.395,17Z" style="fill:rgb(194,2,2);"/>
    <path d="M27.395,17C23.977,21.663 18.161,24.964 16,25C13.663,25.038 8.114,21.844 4.746,17L27.395,17Z" style="fill:rgb(253,46,46);"/>
</svg>
