<?xml version="1.0" encoding="UTF-8" standalone="no"?><!DOCTYPE svg PUBLIC "-//W3C//DTD SVG 1.1//EN" "http://www.w3.org/Graphics/SVG/1.1/DTD/svg11.dtd"><svg width="100%" height="100%" viewBox="0 0 32 32" version="1.1" xmlns="http://www.w3.org/2000/svg" xmlns:xlink="http://www.w3.org/1999/xlink" xml:space="preserve" xmlns:serif="http://www.serif.com/" style="fill-rule:evenodd;clip-rule:evenodd;stroke-linejoin:round;stroke-miterlimit:1.41421;"><rect id="half_heart" x="0" y="0" width="32" height="32" style="fill:none;"/><g id="outline"><path d="M10.216,2.784c0.609,0.019 1.213,0.094 1.805,0.235c1.036,0.247 2.025,0.685 2.903,1.287c0.382,0.261 0.739,0.553 1.076,0.87c0.076,-0.072 0.153,-0.142 0.23,-0.211c0.297,-0.259 0.607,-0.5 0.934,-0.719c0.679,-0.452 1.422,-0.809 2.199,-1.056c1.092,-0.346 2.25,-0.475 3.391,-0.375c1.063,0.092 2.107,0.381 3.066,0.849c1.352,0.659 2.524,1.67 3.374,2.912c0.642,0.937 1.097,2 1.334,3.111c0.171,0.807 0.227,1.638 0.166,2.46c-0.068,0.923 -0.285,1.834 -0.639,2.688c-0.299,0.723 -0.696,1.404 -1.177,2.021c-0.219,0.282 -0.457,0.548 -0.708,0.803l-12.17,12.169c-4.081,-4.08 -8.186,-8.136 -12.241,-12.242c-0.075,-0.078 -0.149,-0.156 -0.222,-0.236c-0.239,-0.267 -0.464,-0.545 -0.67,-0.838c-0.449,-0.639 -0.811,-1.338 -1.075,-2.073c-0.337,-0.941 -0.51,-1.939 -0.51,-2.939c0,-0.822 0.117,-1.644 0.346,-2.433c0.258,-0.886 0.657,-1.73 1.178,-2.491c0.971,-1.418 2.361,-2.532 3.957,-3.171c0.693,-0.277 1.422,-0.465 2.162,-0.557c0.321,-0.04 0.644,-0.059 0.967,-0.066c0.108,0 0.216,0 0.324,0.002Z" style="fill-rule:nonzero;"/></g><g id="emoji"><path d="M15.538,26.204c0,0 -5.799,-5.8 -10.066,-10.067c-1.179,-1.179 -1.842,-2.778 -1.842,-4.446c0,-1.668 0.663,-3.267 1.842,-4.446c0.001,-0.001 0.001,-0.002 0.002,-0.002c1.179,-1.18 2.779,-1.842 4.446,-1.842c1.668,0 3.267,0.662 4.447,1.842c1.168,1.168 2.107,2.107 2.107,2.107l0,14.981l-0.936,1.873Z" style="fill:#e02a33;"/><clipPath id="_clip1"><path d="M15.538,26.204c0,0 -5.799,-5.8 -10.066,-10.067c-1.179,-1.179 -1.842,-2.778 -1.842,-4.446c0,-1.668 0.663,-3.267 1.842,-4.446c0.001,-0.001 0.001,-0.002 0.002,-0.002c1.179,-1.18 2.779,-1.842 4.446,-1.842c1.668,0 3.267,0.662 4.447,1.842c1.168,1.168 2.107,2.107 2.107,2.107l0,14.981l-0.936,1.873Z"/></clipPath><g clip-path="url(#_clip1)"><path d="M19,0c0,0 0,0.347 0,0.858c0,2.652 -1.054,5.196 -2.929,7.071c-1.208,1.208 -2.589,2.589 -3.728,3.728c-1.5,1.5 -2.343,3.535 -2.343,5.657c0,2.566 0,5.686 0,5.686l-10,0l0,-23l19,0Z" style="fill:#ff7780;"/></g><path d="M10.083,4.782l0.084,0.002l0.083,0.003l0.083,0.003l0.083,0.005l0.083,0.005l0.082,0.007l0.083,0.008l0.082,0.008l0.082,0.01l0.082,0.011l0.082,0.011l0.081,0.013l0.081,0.014l0.082,0.014l0.08,0.016l0.081,0.017l0.08,0.017l0.08,0.019l0.08,0.019l0.08,0.021l0.079,0.021l0.079,0.023l0.078,0.023l0.079,0.024l0.078,0.026l0.077,0.026l0.077,0.027l0.077,0.028l0.077,0.029l0.076,0.03l0.076,0.031l0.076,0.032l0.075,0.033l0.074,0.033l0.075,0.035l0.073,0.035l0.074,0.037l0.073,0.037l0.072,0.038l0.073,0.039l0.071,0.04l0.071,0.041l0.071,0.042l0.07,0.042l0.07,0.044l0.069,0.044l0.069,0.045l0.068,0.046l0.068,0.047l0.067,0.048l0.067,0.049l0.066,0.049l0.065,0.051l0.065,0.051l0.064,0.052l0.064,0.053l0.063,0.053l0.063,0.055l0.062,0.055l0.061,0.056l0.061,0.057l0.06,0.058l0.059,0.059l2.251,2.251l0,16l-1,2l-10.751,-10.751l-0.059,-0.059l-0.058,-0.06l-0.057,-0.061l-0.056,-0.061l-0.055,-0.062l-0.055,-0.063l-0.053,-0.063l-0.053,-0.064l-0.052,-0.064l-0.051,-0.065l-0.051,-0.065l-0.049,-0.066l-0.049,-0.067l-0.048,-0.067l-0.047,-0.068l-0.046,-0.068l-0.045,-0.069l-0.044,-0.069l-0.044,-0.07l-0.042,-0.07l-0.042,-0.071l-0.041,-0.071l-0.04,-0.071l-0.039,-0.072l-0.038,-0.073l-0.037,-0.073l-0.037,-0.073l-0.035,-0.074l-0.035,-0.075l-0.033,-0.074l-0.033,-0.075l-0.032,-0.076l-0.031,-0.076l-0.03,-0.076l-0.029,-0.077l-0.028,-0.077l-0.027,-0.077l-0.026,-0.077l-0.026,-0.078l-0.024,-0.079l-0.023,-0.078l-0.023,-0.079l-0.021,-0.079l-0.021,-0.08l-0.019,-0.08l-0.019,-0.08l-0.017,-0.08l-0.017,-0.081l-0.016,-0.08l-0.014,-0.081l-0.014,-0.082l-0.013,-0.081l-0.011,-0.082l-0.011,-0.082l-0.01,-0.082l-0.008,-0.082l-0.008,-0.083l-0.007,-0.082l-0.005,-0.083l-0.005,-0.083l-0.003,-0.083l-0.003,-0.083l-0.002,-0.084l0,-0.083l0,-0.083l0.002,-0.084l0.003,-0.083l0.003,-0.083l0.005,-0.083l0.005,-0.083l0.007,-0.082l0.008,-0.083l0.008,-0.082l0.01,-0.082l0.011,-0.082l0.011,-0.082l0.013,-0.081l0.014,-0.082l0.014,-0.081l0.016,-0.08l0.017,-0.081l0.017,-0.08l0.019,-0.08l0.019,-0.08l0.021,-0.08l0.021,-0.079l0.023,-0.079l0.023,-0.078l0.024,-0.079l0.026,-0.078l0.026,-0.077l0.027,-0.077l0.028,-0.077l0.029,-0.077l0.03,-0.076l0.031,-0.076l0.032,-0.076l0.033,-0.075l0.033,-0.074l0.035,-0.075l0.035,-0.074l0.037,-0.073l0.037,-0.073l0.038,-0.073l0.039,-0.072l0.04,-0.071l0.041,-0.071l0.042,-0.071l0.042,-0.07l0.044,-0.07l0.044,-0.069l0.045,-0.069l0.046,-0.068l0.047,-0.068l0.048,-0.067l0.049,-0.067l0.049,-0.066l0.051,-0.065l0.051,-0.065l0.052,-0.064l0.053,-0.064l0.053,-0.063l0.055,-0.063l0.055,-0.062l0.056,-0.061l0.057,-0.061l0.058,-0.06l0.059,-0.059l0.002,-0.002l0.059,-0.059l0.06,-0.058l0.061,-0.057l0.061,-0.056l0.062,-0.055l0.063,-0.055l0.063,-0.053l0.064,-0.053l0.064,-0.052l0.065,-0.051l0.065,-0.051l0.066,-0.049l0.067,-0.049l0.067,-0.048l0.068,-0.047l0.068,-0.046l0.069,-0.045l0.069,-0.044l0.07,-0.044l0.07,-0.042l0.071,-0.042l0.071,-0.041l0.071,-0.04l0.072,-0.039l0.073,-0.038l0.073,-0.037l0.073,-0.037l0.074,-0.035l0.075,-0.035l0.074,-0.033l0.075,-0.033l0.076,-0.032l0.076,-0.031l0.076,-0.03l0.077,-0.029l0.077,-0.028l0.077,-0.027l0.077,-0.026l0.078,-0.026l0.079,-0.024l0.078,-0.023l0.079,-0.023l0.079,-0.021l0.08,-0.021l0.08,-0.019l0.08,-0.019l0.08,-0.017l0.081,-0.017l0.08,-0.016l0.081,-0.014l0.082,-0.014l0.081,-0.013l0.082,-0.011l0.082,-0.011l0.082,-0.01l0.082,-0.008l0.083,-0.008l0.082,-0.007l0.083,-0.005l0.083,-0.005l0.083,-0.003l0.083,-0.003l0.084,-0.002l0.083,0l0.083,0Zm-0.142,2l-0.058,0.001l-0.059,0.002l-0.058,0.003l-0.058,0.003l-0.058,0.004l-0.058,0.005l-0.058,0.005l-0.058,0.006l-0.058,0.007l-0.057,0.007l-0.057,0.009l-0.058,0.008l-0.057,0.01l-0.057,0.01l-0.056,0.011l-0.057,0.012l-0.056,0.012l-0.056,0.013l-0.056,0.014l-0.056,0.015l-0.056,0.015l-0.055,0.015l-0.056,0.017l-0.055,0.017l-0.054,0.018l-0.055,0.018l-0.054,0.019l-0.054,0.02l-0.054,0.02l-0.054,0.021l-0.053,0.022l-0.053,0.022l-0.052,0.023l-0.053,0.024l-0.052,0.024l-0.052,0.025l-0.052,0.026l-0.051,0.026l-0.051,0.026l-0.05,0.028l-0.051,0.028l-0.05,0.029l-0.049,0.029l-0.05,0.03l-0.049,0.031l-0.048,0.03l-0.048,0.032l-0.048,0.033l-0.048,0.033l-0.047,0.033l-0.047,0.034l-0.046,0.035l-0.046,0.035l-0.046,0.036l-0.045,0.037l-0.044,0.037l-0.045,0.038l-0.044,0.038l-0.043,0.039l-0.043,0.039l-0.043,0.04l-0.042,0.041l-0.039,0.038l0.007,-0.006l-0.053,0.053l-0.04,0.042l-0.041,0.043l-0.039,0.043l-0.039,0.043l-0.038,0.044l-0.038,0.045l-0.037,0.044l-0.037,0.045l-0.036,0.046l-0.035,0.046l-0.035,0.046l-0.034,0.047l-0.033,0.047l-0.034,0.048l-0.032,0.048l-0.032,0.048l-0.031,0.049l-0.03,0.048l-0.03,0.049l-0.029,0.05l-0.029,0.051l-0.028,0.05l-0.027,0.05l-0.027,0.051l-0.026,0.051l-0.026,0.052l-0.025,0.052l-0.024,0.052l-0.024,0.053l-0.023,0.052l-0.022,0.053l-0.022,0.054l-0.021,0.053l-0.02,0.053l-0.02,0.054l-0.019,0.055l-0.019,0.055l-0.017,0.054l-0.017,0.056l-0.017,0.055l-0.015,0.055l-0.015,0.055l-0.015,0.056l-0.014,0.057l-0.013,0.056l-0.012,0.056l-0.012,0.057l-0.011,0.056l-0.01,0.057l-0.009,0.057l-0.009,0.058l-0.009,0.057l-0.007,0.057l-0.007,0.058l-0.006,0.057l-0.005,0.058l-0.005,0.059l-0.004,0.058l-0.003,0.058l-0.003,0.059l-0.002,0.058l-0.001,0.058l0,0.059l0,0.059l0.001,0.058l0.002,0.058l0.003,0.059l0.003,0.058l0.004,0.058l0.005,0.059l0.005,0.058l0.006,0.057l0.007,0.058l0.007,0.057l0.009,0.057l0.009,0.058l0.009,0.057l0.01,0.057l0.011,0.056l0.012,0.057l0.012,0.056l0.013,0.056l0.014,0.057l0.015,0.056l0.015,0.055l0.015,0.055l0.017,0.055l0.017,0.056l0.017,0.054l0.019,0.055l0.019,0.055l0.02,0.054l0.02,0.053l0.021,0.053l0.022,0.054l0.022,0.053l0.023,0.052l0.024,0.053l0.024,0.052l0.025,0.052l0.026,0.052l0.026,0.051l0.027,0.051l0.027,0.05l0.028,0.05l0.029,0.051l0.029,0.05l0.03,0.049l0.03,0.048l0.031,0.049l0.032,0.048l0.033,0.048l0.033,0.048l0.033,0.047l0.034,0.047l0.035,0.046l0.035,0.046l0.036,0.046l0.037,0.045l0.037,0.044l0.038,0.045l0.038,0.044l0.039,0.043l0.039,0.043l0.041,0.043l0.04,0.042l0.045,0.046l8.333,8.333l0,-13.344l-1.661,-1.661l-0.046,-0.045l-0.042,-0.041l-0.043,-0.04l-0.043,-0.039l-0.043,-0.039l-0.045,-0.039l-0.044,-0.037l-0.044,-0.037l-0.045,-0.037l-0.046,-0.036l-0.046,-0.035l-0.046,-0.035l-0.047,-0.034l-0.047,-0.034l-0.048,-0.032l-0.048,-0.033l-0.048,-0.032l-0.048,-0.03l-0.049,-0.031l-0.05,-0.03l-0.049,-0.029l-0.05,-0.029l-0.05,-0.028l-0.051,-0.027l-0.051,-0.027l-0.052,-0.026l-0.051,-0.026l-0.052,-0.025l-0.052,-0.024l-0.053,-0.024l-0.052,-0.023l-0.053,-0.022l-0.053,-0.022l-0.054,-0.021l-0.054,-0.02l-0.054,-0.02l-0.054,-0.019l-0.055,-0.018l-0.055,-0.018l-0.054,-0.017l-0.056,-0.017l-0.055,-0.015l-0.056,-0.015l-0.055,-0.015l-0.057,-0.014l-0.056,-0.013l-0.056,-0.012l-0.057,-0.012l-0.056,-0.011l-0.057,-0.01l-0.057,-0.01l-0.058,-0.008l-0.057,-0.009l-0.057,-0.007l-0.058,-0.007l-0.058,-0.006l-0.058,-0.005l-0.058,-0.005l-0.058,-0.004l-0.058,-0.003l-0.058,-0.003l-0.059,-0.002l-0.058,-0.001l-0.059,0l-0.059,0Z" style="fill:#e02a33;"/><path d="M16,27l0,-19c0,0 0.519,-0.519 1.251,-1.251c1.26,-1.26 2.968,-1.967 4.749,-1.967c1.781,0 3.489,0.707 4.749,1.967c0.001,0.001 0.001,0.001 0.002,0.002c1.26,1.26 1.967,2.968 1.967,4.749c0,1.781 -0.707,3.489 -1.967,4.749c-4.557,4.557 -10.751,10.751 -10.751,10.751Z" style="fill:#fff;"/><path d="M22.083,4.782l0.084,0.002l0.083,0.003l0.083,0.003l0.083,0.005l0.083,0.005l0.082,0.007l0.083,0.008l0.082,0.008l0.082,0.01l0.082,0.011l0.082,0.011l0.081,0.013l0.082,0.014l0.081,0.014l0.08,0.016l0.081,0.017l0.08,0.017l0.08,0.019l0.08,0.019l0.08,0.021l0.079,0.021l0.079,0.023l0.078,0.023l0.079,0.024l0.078,0.026l0.077,0.026l0.077,0.027l0.077,0.028l0.077,0.029l0.076,0.03l0.076,0.031l0.076,0.032l0.075,0.033l0.074,0.033l0.075,0.035l0.074,0.035l0.073,0.037l0.073,0.037l0.073,0.038l0.072,0.039l0.071,0.04l0.071,0.041l0.071,0.042l0.07,0.042l0.07,0.044l0.069,0.044l0.069,0.045l0.068,0.046l0.068,0.047l0.067,0.048l0.067,0.049l0.066,0.049l0.065,0.051l0.065,0.051l0.064,0.052l0.064,0.053l0.063,0.053l0.063,0.055l0.062,0.055l0.061,0.056l0.061,0.057l0.06,0.058l0.061,0.061l0.059,0.059l0.058,0.06l0.057,0.061l0.056,0.061l0.055,0.062l0.055,0.063l0.053,0.063l0.053,0.064l0.052,0.064l0.051,0.065l0.051,0.065l0.049,0.066l0.049,0.067l0.048,0.067l0.047,0.068l0.046,0.068l0.045,0.069l0.044,0.069l0.044,0.07l0.042,0.07l0.042,0.071l0.041,0.071l0.04,0.071l0.039,0.072l0.038,0.073l0.037,0.073l0.037,0.073l0.035,0.074l0.035,0.075l0.033,0.074l0.033,0.075l0.032,0.076l0.031,0.076l0.03,0.076l0.029,0.077l0.028,0.077l0.027,0.077l0.026,0.077l0.026,0.078l0.024,0.079l0.023,0.078l0.023,0.079l0.021,0.079l0.021,0.08l0.019,0.08l0.019,0.08l0.017,0.08l0.017,0.081l0.016,0.08l0.014,0.081l0.014,0.082l0.013,0.081l0.011,0.082l0.011,0.082l0.01,0.082l0.008,0.082l0.008,0.083l0.007,0.082l0.005,0.083l0.005,0.083l0.003,0.083l0.003,0.083l0.002,0.084l0,0.083l0,0.083l-0.002,0.084l-0.003,0.083l-0.003,0.083l-0.005,0.083l-0.005,0.083l-0.007,0.082l-0.008,0.083l-0.008,0.082l-0.01,0.082l-0.011,0.082l-0.011,0.082l-0.013,0.081l-0.014,0.082l-0.014,0.081l-0.016,0.08l-0.017,0.081l-0.017,0.08l-0.019,0.08l-0.019,0.08l-0.021,0.08l-0.021,0.079l-0.023,0.079l-0.023,0.078l-0.024,0.079l-0.026,0.078l-0.026,0.077l-0.027,0.077l-0.028,0.077l-0.029,0.077l-0.03,0.076l-0.031,0.076l-0.032,0.076l-0.033,0.075l-0.033,0.074l-0.035,0.075l-0.035,0.074l-0.037,0.073l-0.037,0.073l-0.038,0.073l-0.039,0.072l-0.04,0.071l-0.041,0.071l-0.042,0.071l-0.042,0.07l-0.044,0.07l-0.044,0.069l-0.045,0.069l-0.046,0.068l-0.047,0.068l-0.048,0.067l-0.049,0.067l-0.049,0.066l-0.051,0.065l-0.051,0.065l-0.052,0.064l-0.053,0.064l-0.053,0.063l-0.055,0.063l-0.055,0.062l-0.056,0.061l-0.057,0.061l-0.058,0.06l-0.059,0.059l-10.751,10.751l0,-19l1.251,-1.251l0.059,-0.059l0.06,-0.058l0.061,-0.057l0.061,-0.056l0.062,-0.055l0.063,-0.055l0.063,-0.053l0.064,-0.053l0.064,-0.052l0.065,-0.051l0.065,-0.051l0.066,-0.049l0.067,-0.049l0.067,-0.048l0.068,-0.047l0.068,-0.046l0.069,-0.045l0.069,-0.044l0.07,-0.044l0.07,-0.042l0.071,-0.042l0.071,-0.041l0.071,-0.04l0.073,-0.039l0.072,-0.038l0.073,-0.037l0.074,-0.037l0.073,-0.035l0.075,-0.035l0.074,-0.033l0.075,-0.033l0.076,-0.032l0.076,-0.031l0.076,-0.03l0.077,-0.029l0.077,-0.028l0.077,-0.027l0.077,-0.026l0.078,-0.026l0.079,-0.024l0.078,-0.023l0.079,-0.023l0.079,-0.021l0.08,-0.021l0.08,-0.019l0.08,-0.019l0.08,-0.017l0.081,-0.017l0.08,-0.016l0.082,-0.014l0.081,-0.014l0.081,-0.013l0.082,-0.011l0.082,-0.011l0.082,-0.01l0.082,-0.008l0.083,-0.008l0.082,-0.007l0.083,-0.005l0.083,-0.005l0.083,-0.003l0.083,-0.003l0.084,-0.002l0.083,0l0.083,0Zm-0.129,3l-0.046,0.001l-0.046,0.001l-0.046,0.002l-0.046,0.003l-0.046,0.003l-0.046,0.004l-0.045,0.004l-0.046,0.005l-0.045,0.005l-0.046,0.006l-0.045,0.007l-0.045,0.007l-0.045,0.007l-0.045,0.008l-0.044,0.009l-0.045,0.009l-0.044,0.01l-0.045,0.01l-0.044,0.011l-0.044,0.011l-0.043,0.012l-0.044,0.013l-0.044,0.013l-0.043,0.013l-0.043,0.014l-0.043,0.015l-0.043,0.015l-0.042,0.015l-0.043,0.016l-0.042,0.017l-0.042,0.017l-0.042,0.017l-0.041,0.018l-0.042,0.019l-0.041,0.019l-0.04,0.02l-0.041,0.02l-0.041,0.021l-0.04,0.021l-0.039,0.021l-0.041,0.023l-0.039,0.022l-0.039,0.023l-0.039,0.024l-0.039,0.024l-0.037,0.024l-0.038,0.025l-0.038,0.026l-0.038,0.026l-0.037,0.026l-0.037,0.027l-0.036,0.028l-0.036,0.027l-0.036,0.029l-0.036,0.029l-0.035,0.029l-0.035,0.029l-0.035,0.03l-0.034,0.032l-0.034,0.03l-0.033,0.032l-0.034,0.032l-0.039,0.039l-0.366,0.366l0,10.514l5.623,-5.623l0.04,-0.04l0.031,-0.033l0.032,-0.033l0.03,-0.034l0.032,-0.034l0.03,-0.035l0.029,-0.035l0.03,-0.035l0.028,-0.036l0.029,-0.036l0.027,-0.036l0.028,-0.036l0.027,-0.037l0.026,-0.037l0.026,-0.038l0.026,-0.037l0.025,-0.038l0.024,-0.039l0.024,-0.038l0.024,-0.039l0.023,-0.039l0.023,-0.04l0.022,-0.039l0.021,-0.04l0.022,-0.041l0.02,-0.039l0.02,-0.041l0.02,-0.042l0.019,-0.04l0.018,-0.041l0.018,-0.042l0.018,-0.042l0.018,-0.043l0.016,-0.042l0.016,-0.041l0.015,-0.042l0.016,-0.044l0.014,-0.043l0.014,-0.043l0.013,-0.043l0.014,-0.044l0.012,-0.044l0.012,-0.043l0.011,-0.045l0.011,-0.044l0.01,-0.043l0.01,-0.045l0.009,-0.045l0.009,-0.044l0.008,-0.045l0.007,-0.045l0.007,-0.045l0.007,-0.046l0.006,-0.044l0.005,-0.045l0.005,-0.047l0.004,-0.046l0.004,-0.045l0.003,-0.046l0.003,-0.046l0.002,-0.045l0.001,-0.046l0.001,-0.046l0,-0.047l0,-0.047l-0.001,-0.046l-0.001,-0.046l-0.002,-0.045l-0.003,-0.046l-0.003,-0.046l-0.004,-0.045l-0.004,-0.046l-0.005,-0.047l-0.005,-0.045l-0.006,-0.044l-0.007,-0.046l-0.007,-0.045l-0.007,-0.045l-0.008,-0.045l-0.009,-0.044l-0.009,-0.045l-0.01,-0.045l-0.01,-0.043l-0.011,-0.044l-0.011,-0.045l-0.012,-0.043l-0.012,-0.044l-0.014,-0.044l-0.013,-0.043l-0.014,-0.043l-0.014,-0.043l-0.016,-0.044l-0.015,-0.042l-0.016,-0.041l-0.016,-0.042l-0.018,-0.043l-0.018,-0.042l-0.018,-0.042l-0.018,-0.041l-0.019,-0.04l-0.02,-0.042l-0.02,-0.041l-0.02,-0.039l-0.022,-0.041l-0.021,-0.04l-0.022,-0.039l-0.023,-0.04l-0.023,-0.039l-0.024,-0.039l-0.024,-0.038l-0.024,-0.039l-0.025,-0.038l-0.026,-0.037l-0.026,-0.038l-0.026,-0.037l-0.027,-0.037l-0.028,-0.036l-0.027,-0.036l-0.029,-0.036l-0.028,-0.036l-0.03,-0.035l-0.029,-0.035l-0.03,-0.035l-0.032,-0.034l-0.03,-0.034l-0.032,-0.033l-0.031,-0.033l-0.05,-0.051l0.01,0.011l-0.028,-0.028l-0.034,-0.032l-0.033,-0.032l-0.034,-0.03l-0.034,-0.032l-0.035,-0.03l-0.035,-0.029l-0.035,-0.029l-0.036,-0.029l-0.036,-0.029l-0.036,-0.028l-0.036,-0.027l-0.037,-0.027l-0.037,-0.026l-0.037,-0.026l-0.038,-0.026l-0.039,-0.025l-0.037,-0.024l-0.039,-0.024l-0.039,-0.024l-0.039,-0.023l-0.04,-0.023l-0.04,-0.022l-0.039,-0.021l-0.04,-0.021l-0.041,-0.021l-0.041,-0.02l-0.04,-0.02l-0.041,-0.019l-0.042,-0.019l-0.041,-0.018l-0.042,-0.017l-0.042,-0.017l-0.042,-0.017l-0.043,-0.016l-0.042,-0.015l-0.043,-0.016l-0.043,-0.014l-0.043,-0.014l-0.043,-0.013l-0.044,-0.013l-0.044,-0.013l-0.043,-0.012l-0.044,-0.011l-0.044,-0.011l-0.045,-0.01l-0.044,-0.01l-0.045,-0.009l-0.044,-0.009l-0.045,-0.008l-0.045,-0.007l-0.045,-0.007l-0.045,-0.007l-0.046,-0.006l-0.045,-0.005l-0.046,-0.005l-0.045,-0.004l-0.046,-0.004l-0.046,-0.003l-0.046,-0.003l-0.046,-0.002l-0.046,-0.001l-0.046,-0.001l-0.046,0l-0.046,0Z" style="fill:#ccc;"/></g></svg>