<?xml version="1.0" encoding="UTF-8" standalone="no"?><!DOCTYPE svg PUBLIC "-//W3C//DTD SVG 1.1//EN" "http://www.w3.org/Graphics/SVG/1.1/DTD/svg11.dtd"><svg width="100%" height="100%" viewBox="0 0 32 32" version="1.1" xmlns="http://www.w3.org/2000/svg" xmlns:xlink="http://www.w3.org/1999/xlink" xml:space="preserve" xmlns:serif="http://www.serif.com/" style="fill-rule:evenodd;clip-rule:evenodd;stroke-linecap:round;stroke-linejoin:round;stroke-miterlimit:1.5;"><rect id="half_heart" x="0" y="0" width="32" height="32" style="fill:none;"/><g id="outline"><path d="M16,28c0,0 -6.877,-6.877 -11.751,-11.751c-2.623,-2.623 -2.623,-6.875 0,-9.498c0.001,-0.001 0.001,-0.001 0.002,-0.002c1.26,-1.26 2.968,-1.967 4.749,-1.967c1.781,0 3.489,0.707 4.749,1.967c1.247,1.247 2.251,2.251 2.251,2.251c0,0 1.004,-1.004 2.251,-2.251c1.26,-1.26 2.968,-1.967 4.749,-1.967c1.781,0 3.489,0.707 4.749,1.967c0.001,0.001 0.001,0.001 0.002,0.002c2.623,2.623 2.623,6.875 0,9.498c-4.874,4.874 -11.751,11.751 -11.751,11.751Z" style="fill:none;stroke:#000;stroke-width:4px;"/></g><g id="emoji"><path d="M16,28c0,0 -6.877,-6.877 -11.751,-11.751c-2.623,-2.623 -2.623,-6.875 0,-9.498c0.001,-0.001 0.001,-0.001 0.002,-0.002c1.26,-1.26 2.968,-1.967 4.749,-1.967c1.781,0 3.489,0.707 4.749,1.967c1.721,1.721 3.251,3.251 3.251,3.251l0,16l-1,2Z" style="fill:#e82731;"/><clipPath id="_clip1"><path d="M16,28c0,0 -6.877,-6.877 -11.751,-11.751c-2.623,-2.623 -2.623,-6.875 0,-9.498c0.001,-0.001 0.001,-0.001 0.002,-0.002c1.26,-1.26 2.968,-1.967 4.749,-1.967c1.781,0 3.489,0.707 4.749,1.967c1.721,1.721 3.251,3.251 3.251,3.251l0,16l-1,2Z"/></clipPath><g clip-path="url(#_clip1)"><path d="M19,1c0,0 0,0.347 0,0.858c0,2.652 -1.054,5.196 -2.929,7.071c-1.208,1.208 -2.589,2.589 -3.728,3.728c-1.5,1.5 -2.343,3.535 -2.343,5.657c0,2.566 0,5.686 0,5.686l-10,0l0,-23l19,0Z" style="fill:#ff7780;"/></g><path d="M9.083,4.782l0.084,0.002l0.083,0.003l0.083,0.003l0.083,0.005l0.083,0.005l0.082,0.007l0.083,0.008l0.082,0.008l0.082,0.01l0.082,0.011l0.082,0.011l0.081,0.013l0.081,0.014l0.082,0.014l0.08,0.016l0.081,0.017l0.08,0.017l0.08,0.019l0.08,0.019l0.08,0.021l0.079,0.021l0.079,0.023l0.078,0.023l0.079,0.024l0.078,0.026l0.077,0.026l0.077,0.027l0.077,0.028l0.077,0.029l0.076,0.03l0.076,0.031l0.076,0.032l0.075,0.033l0.074,0.033l0.075,0.035l0.073,0.035l0.074,0.037l0.073,0.037l0.072,0.038l0.073,0.039l0.071,0.04l0.071,0.041l0.071,0.042l0.07,0.042l0.07,0.044l0.069,0.044l0.069,0.045l0.068,0.046l0.068,0.047l0.067,0.048l0.067,0.049l0.066,0.049l0.065,0.051l0.065,0.051l0.064,0.052l0.064,0.053l0.063,0.053l0.063,0.055l0.062,0.055l0.061,0.056l0.061,0.057l0.06,0.058l0.059,0.059l3.251,3.251l0,16l-1,2l-11.751,-11.751l-0.061,-0.062l-0.06,-0.062l-0.059,-0.063l-0.058,-0.064l-0.057,-0.064l-0.057,-0.064l-0.055,-0.065l-0.054,-0.066l-0.053,-0.066l-0.053,-0.067l-0.051,-0.067l-0.051,-0.068l-0.049,-0.068l-0.049,-0.069l-0.047,-0.069l-0.047,-0.07l-0.045,-0.07l-0.045,-0.07l-0.044,-0.071l-0.042,-0.071l-0.042,-0.072l-0.041,-0.072l-0.04,-0.073l-0.039,-0.073l-0.038,-0.073l-0.037,-0.074l-0.036,-0.074l-0.035,-0.074l-0.034,-0.075l-0.033,-0.075l-0.032,-0.075l-0.031,-0.076l-0.031,-0.076l-0.029,-0.076l-0.028,-0.076l-0.028,-0.077l-0.026,-0.077l-0.026,-0.078l-0.024,-0.077l-0.024,-0.078l-0.022,-0.078l-0.022,-0.078l-0.02,-0.078l-0.02,-0.079l-0.019,-0.079l-0.018,-0.079l-0.016,-0.079l-0.016,-0.079l-0.015,-0.08l-0.014,-0.079l-0.013,-0.08l-0.012,-0.08l-0.011,-0.08l-0.01,-0.08l-0.009,-0.08l-0.008,-0.08l-0.008,-0.081l-0.006,-0.08l-0.005,-0.08l-0.004,-0.081l-0.004,-0.08l-0.002,-0.081l-0.002,-0.08l0,-0.081l0,-0.081l0.002,-0.08l0.002,-0.081l0.004,-0.08l0.004,-0.081l0.005,-0.08l0.006,-0.08l0.008,-0.081l0.008,-0.08l0.009,-0.08l0.01,-0.08l0.011,-0.08l0.012,-0.08l0.013,-0.08l0.014,-0.079l0.015,-0.08l0.016,-0.079l0.016,-0.079l0.018,-0.079l0.019,-0.079l0.02,-0.079l0.02,-0.078l0.022,-0.078l0.022,-0.078l0.024,-0.078l0.025,-0.077l0.025,-0.078l0.026,-0.077l0.028,-0.077l0.028,-0.076l0.029,-0.076l0.031,-0.076l0.031,-0.076l0.032,-0.075l0.033,-0.075l0.034,-0.075l0.035,-0.074l0.036,-0.074l0.037,-0.074l0.038,-0.073l0.039,-0.073l0.04,-0.073l0.041,-0.072l0.042,-0.072l0.042,-0.071l0.044,-0.071l0.045,-0.07l0.045,-0.07l0.047,-0.07l0.047,-0.069l0.049,-0.069l0.049,-0.068l0.051,-0.068l0.051,-0.067l0.053,-0.067l0.053,-0.066l0.054,-0.066l0.055,-0.065l0.057,-0.064l0.057,-0.064l0.058,-0.064l0.059,-0.063l0.06,-0.062l0.061,-0.062l0.002,-0.002l0.059,-0.059l0.06,-0.058l0.061,-0.057l0.061,-0.056l0.062,-0.055l0.063,-0.055l0.063,-0.053l0.064,-0.053l0.064,-0.052l0.065,-0.051l0.065,-0.051l0.066,-0.049l0.067,-0.049l0.067,-0.048l0.068,-0.047l0.068,-0.046l0.069,-0.045l0.069,-0.044l0.07,-0.044l0.07,-0.042l0.071,-0.042l0.071,-0.041l0.071,-0.04l0.072,-0.039l0.073,-0.038l0.073,-0.037l0.073,-0.037l0.074,-0.035l0.075,-0.035l0.074,-0.033l0.075,-0.033l0.076,-0.032l0.076,-0.031l0.076,-0.03l0.077,-0.029l0.077,-0.028l0.077,-0.027l0.077,-0.026l0.078,-0.026l0.079,-0.024l0.078,-0.023l0.079,-0.023l0.079,-0.021l0.08,-0.021l0.08,-0.019l0.08,-0.019l0.08,-0.017l0.081,-0.017l0.08,-0.016l0.081,-0.014l0.082,-0.014l0.081,-0.013l0.082,-0.011l0.082,-0.011l0.082,-0.01l0.082,-0.008l0.083,-0.008l0.082,-0.007l0.083,-0.005l0.083,-0.005l0.083,-0.003l0.083,-0.003l0.084,-0.002l0.083,0l0.083,0Zm-0.142,2l-0.058,0.001l-0.059,0.002l-0.058,0.003l-0.058,0.003l-0.058,0.004l-0.058,0.005l-0.058,0.005l-0.058,0.006l-0.058,0.007l-0.057,0.007l-0.057,0.009l-0.058,0.008l-0.057,0.01l-0.057,0.01l-0.056,0.011l-0.057,0.012l-0.056,0.012l-0.056,0.013l-0.057,0.014l-0.055,0.014l-0.056,0.016l-0.055,0.015l-0.055,0.017l-0.056,0.017l-0.054,0.018l-0.055,0.018l-0.054,0.019l-0.054,0.02l-0.054,0.02l-0.053,0.021l-0.054,0.022l-0.053,0.022l-0.052,0.023l-0.053,0.024l-0.052,0.024l-0.052,0.025l-0.051,0.025l-0.052,0.027l-0.051,0.027l-0.05,0.027l-0.051,0.028l-0.049,0.028l-0.05,0.03l-0.05,0.03l-0.049,0.03l-0.048,0.031l-0.048,0.032l-0.048,0.033l-0.048,0.033l-0.047,0.033l-0.047,0.034l-0.046,0.035l-0.046,0.035l-0.046,0.036l-0.045,0.037l-0.044,0.037l-0.045,0.038l-0.044,0.038l-0.043,0.039l-0.043,0.039l-0.043,0.04l-0.042,0.041l-0.053,0.053l0.006,-0.007l-0.04,0.041l-0.043,0.044l-0.041,0.045l-0.041,0.044l-0.041,0.046l-0.039,0.045l-0.039,0.046l-0.038,0.046l-0.038,0.047l-0.037,0.047l-0.035,0.047l-0.036,0.048l-0.035,0.047l-0.033,0.048l-0.034,0.049l-0.033,0.049l-0.031,0.048l-0.032,0.05l-0.03,0.049l-0.03,0.051l-0.03,0.05l-0.028,0.05l-0.028,0.051l-0.027,0.051l-0.027,0.052l-0.026,0.051l-0.025,0.051l-0.024,0.053l-0.024,0.052l-0.023,0.053l-0.023,0.053l-0.022,0.053l-0.021,0.052l-0.021,0.054l-0.02,0.054l-0.019,0.053l-0.018,0.055l-0.018,0.054l-0.017,0.054l-0.017,0.054l-0.016,0.055l-0.015,0.055l-0.014,0.055l-0.014,0.056l-0.013,0.055l-0.013,0.056l-0.012,0.055l-0.011,0.055l-0.01,0.056l-0.01,0.057l-0.009,0.055l-0.008,0.057l-0.008,0.056l-0.007,0.055l-0.007,0.057l-0.005,0.057l-0.006,0.056l-0.004,0.057l-0.004,0.057l-0.003,0.056l-0.002,0.056l-0.002,0.058l-0.001,0.056l0,0.057l0,0.057l0.001,0.056l0.002,0.058l0.002,0.056l0.003,0.056l0.004,0.057l0.004,0.057l0.006,0.056l0.005,0.057l0.007,0.057l0.007,0.055l0.008,0.056l0.008,0.057l0.009,0.055l0.01,0.057l0.01,0.056l0.011,0.055l0.012,0.055l0.013,0.056l0.013,0.056l0.014,0.055l0.014,0.054l0.015,0.056l0.016,0.055l0.017,0.054l0.017,0.054l0.018,0.054l0.018,0.055l0.02,0.054l0.019,0.053l0.021,0.053l0.021,0.054l0.022,0.052l0.022,0.053l0.024,0.053l0.024,0.052l0.024,0.053l0.025,0.051l0.026,0.051l0.027,0.052l0.027,0.051l0.028,0.051l0.028,0.05l0.03,0.05l0.03,0.051l0.03,0.049l0.032,0.049l0.032,0.05l0.032,0.048l0.033,0.048l0.034,0.049l0.035,0.047l0.036,0.048l0.036,0.048l0.036,0.046l0.038,0.047l0.038,0.046l0.039,0.046l0.04,0.045l0.04,0.046l0.041,0.044l0.041,0.045l0.043,0.044l0.048,0.048l9.332,9.333l0,-13.344l-2.661,-2.661l-0.046,-0.045l-0.042,-0.041l-0.043,-0.04l-0.043,-0.039l-0.044,-0.039l-0.043,-0.038l-0.044,-0.038l-0.046,-0.037l-0.044,-0.037l-0.046,-0.036l-0.046,-0.035l-0.046,-0.035l-0.047,-0.034l-0.048,-0.034l-0.047,-0.033l-0.047,-0.032l-0.049,-0.032l-0.048,-0.031l-0.049,-0.03l-0.049,-0.03l-0.05,-0.029l-0.051,-0.029l-0.05,-0.028l-0.05,-0.028l-0.051,-0.026l-0.051,-0.026l-0.052,-0.026l-0.052,-0.025l-0.052,-0.024l-0.052,-0.024l-0.053,-0.023l-0.053,-0.022l-0.054,-0.022l-0.053,-0.021l-0.054,-0.02l-0.054,-0.02l-0.054,-0.019l-0.055,-0.019l-0.054,-0.017l-0.055,-0.017l-0.056,-0.017l-0.055,-0.015l-0.056,-0.016l-0.056,-0.014l-0.056,-0.014l-0.056,-0.013l-0.056,-0.012l-0.057,-0.012l-0.057,-0.011l-0.056,-0.01l-0.057,-0.01l-0.058,-0.008l-0.057,-0.009l-0.058,-0.007l-0.057,-0.007l-0.058,-0.006l-0.058,-0.005l-0.058,-0.005l-0.058,-0.004l-0.058,-0.003l-0.058,-0.003l-0.059,-0.002l-0.058,-0.001l-0.059,0l-0.059,0Z" style="fill:#e82731;"/><path d="M16,28l0,-19c0,0 1.004,-1.004 2.251,-2.251c1.26,-1.26 2.968,-1.967 4.749,-1.967c1.781,0 3.489,0.707 4.749,1.967c0.001,0.001 0.001,0.001 0.002,0.002c2.623,2.623 2.623,6.875 0,9.498c-4.874,4.874 -11.751,11.751 -11.751,11.751Z" style="fill:#fff;"/><path d="M23.083,4.782l0.084,0.002l0.083,0.003l0.083,0.003l0.083,0.005l0.083,0.005l0.082,0.007l0.083,0.008l0.082,0.008l0.082,0.01l0.082,0.011l0.082,0.011l0.081,0.013l0.082,0.014l0.081,0.014l0.08,0.016l0.081,0.017l0.08,0.017l0.08,0.019l0.08,0.019l0.08,0.021l0.079,0.021l0.079,0.023l0.078,0.023l0.079,0.024l0.078,0.026l0.077,0.026l0.077,0.027l0.077,0.028l0.077,0.029l0.076,0.03l0.076,0.031l0.076,0.032l0.075,0.033l0.074,0.033l0.075,0.035l0.074,0.035l0.073,0.037l0.073,0.037l0.073,0.038l0.072,0.039l0.071,0.04l0.071,0.041l0.071,0.042l0.07,0.042l0.07,0.044l0.069,0.044l0.069,0.045l0.068,0.046l0.068,0.047l0.067,0.048l0.067,0.049l0.066,0.049l0.065,0.051l0.065,0.051l0.064,0.052l0.064,0.053l0.063,0.053l0.063,0.055l0.062,0.055l0.061,0.056l0.061,0.057l0.06,0.058l0.061,0.061l0.061,0.062l0.06,0.062l0.059,0.063l0.058,0.064l0.057,0.064l0.057,0.064l0.055,0.065l0.054,0.066l0.053,0.066l0.053,0.067l0.051,0.067l0.051,0.068l0.049,0.068l0.049,0.069l0.047,0.069l0.047,0.07l0.045,0.07l0.045,0.07l0.044,0.071l0.042,0.071l0.042,0.072l0.041,0.072l0.04,0.073l0.039,0.073l0.038,0.073l0.037,0.074l0.036,0.074l0.035,0.074l0.034,0.075l0.033,0.075l0.032,0.075l0.031,0.076l0.031,0.076l0.029,0.076l0.028,0.076l0.028,0.077l0.026,0.077l0.025,0.078l0.025,0.077l0.024,0.078l0.022,0.078l0.022,0.078l0.02,0.078l0.02,0.079l0.019,0.079l0.018,0.079l0.016,0.079l0.016,0.079l0.015,0.08l0.014,0.079l0.013,0.08l0.012,0.08l0.011,0.08l0.01,0.08l0.009,0.08l0.008,0.08l0.008,0.081l0.006,0.08l0.005,0.08l0.004,0.081l0.004,0.08l0.002,0.081l0.002,0.08l0,0.081l0,0.081l-0.002,0.08l-0.002,0.081l-0.004,0.08l-0.004,0.081l-0.005,0.08l-0.006,0.08l-0.008,0.081l-0.008,0.08l-0.009,0.08l-0.01,0.08l-0.011,0.08l-0.012,0.08l-0.013,0.08l-0.014,0.079l-0.015,0.08l-0.016,0.079l-0.016,0.079l-0.018,0.079l-0.019,0.079l-0.02,0.079l-0.02,0.078l-0.022,0.078l-0.022,0.078l-0.024,0.078l-0.024,0.077l-0.026,0.078l-0.026,0.077l-0.028,0.077l-0.028,0.076l-0.029,0.076l-0.031,0.076l-0.031,0.076l-0.032,0.075l-0.033,0.075l-0.034,0.075l-0.035,0.074l-0.036,0.074l-0.037,0.074l-0.038,0.073l-0.039,0.073l-0.04,0.073l-0.041,0.072l-0.042,0.072l-0.042,0.071l-0.044,0.071l-0.045,0.07l-0.045,0.07l-0.047,0.07l-0.047,0.069l-0.049,0.069l-0.049,0.068l-0.051,0.068l-0.051,0.067l-0.053,0.067l-0.053,0.066l-0.054,0.066l-0.055,0.065l-0.057,0.064l-0.057,0.064l-0.058,0.064l-0.059,0.063l-0.06,0.062l-0.061,0.062l-11.751,11.751l0,-19l2.251,-2.251l0.059,-0.059l0.06,-0.058l0.061,-0.057l0.061,-0.056l0.062,-0.055l0.063,-0.055l0.063,-0.053l0.064,-0.053l0.064,-0.052l0.065,-0.051l0.065,-0.051l0.066,-0.049l0.067,-0.049l0.067,-0.048l0.068,-0.047l0.068,-0.046l0.069,-0.045l0.069,-0.044l0.07,-0.044l0.07,-0.042l0.071,-0.042l0.071,-0.041l0.071,-0.04l0.073,-0.039l0.072,-0.038l0.073,-0.037l0.074,-0.037l0.073,-0.035l0.075,-0.035l0.074,-0.033l0.075,-0.033l0.076,-0.032l0.076,-0.031l0.076,-0.03l0.077,-0.029l0.077,-0.028l0.077,-0.027l0.077,-0.026l0.078,-0.026l0.079,-0.024l0.078,-0.023l0.079,-0.023l0.079,-0.021l0.08,-0.021l0.08,-0.019l0.08,-0.019l0.08,-0.017l0.081,-0.017l0.08,-0.016l0.082,-0.014l0.081,-0.014l0.081,-0.013l0.082,-0.011l0.082,-0.011l0.082,-0.01l0.082,-0.008l0.083,-0.008l0.082,-0.007l0.083,-0.005l0.083,-0.005l0.083,-0.003l0.083,-0.003l0.084,-0.002l0.083,0l0.083,0Zm-0.129,3l-0.046,0.001l-0.046,0.001l-0.046,0.002l-0.046,0.003l-0.046,0.003l-0.046,0.004l-0.046,0.004l-0.045,0.005l-0.045,0.005l-0.046,0.006l-0.045,0.007l-0.045,0.007l-0.045,0.007l-0.045,0.008l-0.044,0.009l-0.045,0.009l-0.044,0.01l-0.044,0.01l-0.045,0.011l-0.043,0.011l-0.044,0.012l-0.044,0.013l-0.044,0.013l-0.043,0.013l-0.043,0.014l-0.043,0.015l-0.043,0.014l-0.042,0.016l-0.043,0.016l-0.042,0.017l-0.042,0.017l-0.042,0.017l-0.042,0.019l-0.041,0.018l-0.04,0.019l-0.042,0.02l-0.041,0.02l-0.04,0.02l-0.04,0.022l-0.04,0.021l-0.039,0.022l-0.04,0.023l-0.039,0.023l-0.039,0.024l-0.038,0.024l-0.039,0.024l-0.038,0.025l-0.037,0.025l-0.037,0.026l-0.038,0.027l-0.037,0.027l-0.036,0.027l-0.037,0.028l-0.036,0.029l-0.035,0.028l-0.035,0.029l-0.035,0.03l-0.035,0.03l-0.034,0.031l-0.034,0.031l-0.033,0.032l-0.033,0.032l-0.04,0.039l-1.366,1.366l0,10.514l6.623,-6.622l0.041,-0.042l0.034,-0.035l0.033,-0.035l0.032,-0.036l0.032,-0.036l0.032,-0.036l0.03,-0.036l0.03,-0.036l0.03,-0.037l0.029,-0.037l0.028,-0.037l0.028,-0.038l0.027,-0.037l0.027,-0.038l0.027,-0.039l0.025,-0.037l0.025,-0.039l0.025,-0.039l0.024,-0.039l0.023,-0.039l0.024,-0.04l0.022,-0.039l0.021,-0.04l0.022,-0.04l0.021,-0.041l0.02,-0.04l0.02,-0.04l0.019,-0.042l0.019,-0.041l0.019,-0.042l0.017,-0.041l0.017,-0.041l0.017,-0.041l0.016,-0.043l0.016,-0.042l0.015,-0.042l0.014,-0.043l0.015,-0.043l0.013,-0.043l0.013,-0.042l0.012,-0.044l0.012,-0.042l0.012,-0.044l0.011,-0.044l0.01,-0.043l0.01,-0.044l0.009,-0.044l0.009,-0.043l0.008,-0.044l0.008,-0.045l0.007,-0.044l0.007,-0.045l0.006,-0.045l0.005,-0.042l0.005,-0.045l0.005,-0.045l0.004,-0.044l0.003,-0.046l0.003,-0.044l0.003,-0.045l0.002,-0.045l0.001,-0.044l0.001,-0.045l0,-0.045l0,-0.045l-0.001,-0.045l-0.001,-0.044l-0.002,-0.045l-0.003,-0.045l-0.003,-0.044l-0.003,-0.046l-0.004,-0.044l-0.004,-0.043l-0.006,-0.046l-0.005,-0.045l-0.006,-0.045l-0.007,-0.043l-0.007,-0.044l-0.008,-0.045l-0.008,-0.043l-0.009,-0.045l-0.009,-0.044l-0.01,-0.043l-0.01,-0.043l-0.011,-0.044l-0.012,-0.044l-0.012,-0.043l-0.012,-0.043l-0.013,-0.043l-0.013,-0.042l-0.015,-0.043l-0.014,-0.043l-0.015,-0.042l-0.016,-0.042l-0.016,-0.043l-0.016,-0.04l-0.018,-0.042l-0.018,-0.042l-0.018,-0.041l-0.019,-0.041l-0.019,-0.042l-0.02,-0.04l-0.02,-0.04l-0.021,-0.041l-0.022,-0.04l-0.021,-0.04l-0.022,-0.039l-0.024,-0.04l-0.023,-0.039l-0.024,-0.039l-0.024,-0.038l-0.026,-0.039l-0.026,-0.039l-0.026,-0.039l-0.027,-0.037l-0.027,-0.037l-0.028,-0.038l-0.028,-0.037l-0.029,-0.037l-0.03,-0.037l-0.029,-0.035l-0.031,-0.037l-0.032,-0.036l-0.032,-0.036l-0.032,-0.036l-0.033,-0.034l-0.034,-0.036l-0.047,-0.048l0.01,0.011l-0.033,-0.032l-0.033,-0.032l-0.033,-0.032l-0.034,-0.031l-0.034,-0.03l-0.035,-0.031l-0.035,-0.03l-0.035,-0.029l-0.036,-0.028l-0.036,-0.029l-0.036,-0.028l-0.036,-0.027l-0.037,-0.027l-0.037,-0.026l-0.037,-0.026l-0.038,-0.026l-0.038,-0.025l-0.039,-0.024l-0.038,-0.024l-0.039,-0.024l-0.04,-0.023l-0.038,-0.022l-0.04,-0.022l-0.04,-0.022l-0.041,-0.022l-0.04,-0.02l-0.04,-0.02l-0.041,-0.02l-0.041,-0.019l-0.042,-0.019l-0.041,-0.018l-0.042,-0.017l-0.042,-0.017l-0.042,-0.017l-0.042,-0.016l-0.043,-0.016l-0.043,-0.015l-0.043,-0.014l-0.043,-0.014l-0.043,-0.014l-0.044,-0.012l-0.044,-0.013l-0.043,-0.012l-0.044,-0.011l-0.044,-0.011l-0.045,-0.01l-0.044,-0.01l-0.045,-0.009l-0.045,-0.009l-0.044,-0.008l-0.045,-0.007l-0.045,-0.007l-0.045,-0.007l-0.046,-0.006l-0.045,-0.005l-0.046,-0.005l-0.045,-0.004l-0.046,-0.004l-0.046,-0.003l-0.046,-0.003l-0.046,-0.002l-0.046,-0.001l-0.046,-0.001l-0.046,0l-0.046,0Z" style="fill:#ccc;"/></g></svg>