<?xml version="1.0" encoding="UTF-8" standalone="no"?>
<!DOCTYPE svg PUBLIC "-//W3C//DTD SVG 1.1//EN" "http://www.w3.org/Graphics/SVG/1.1/DTD/svg11.dtd">
<svg width="100%" height="100%" viewBox="0 0 32 32" version="1.1" xmlns="http://www.w3.org/2000/svg" xmlns:xlink="http://www.w3.org/1999/xlink" xml:space="preserve" xmlns:serif="http://www.serif.com/" style="fill-rule:evenodd;clip-rule:evenodd;stroke-linejoin:round;stroke-miterlimit:2;">
    <rect id="heart_decoration" x="0" y="0" width="32" height="32" style="fill:none;"/>
    <clipPath id="_clip1">
        <rect x="0" y="0" width="32" height="32"/>
    </clipPath>
    <g clip-path="url(#_clip1)">
        <path d="M32,8C32,3.582 28.418,0 24,0L8,0C3.582,0 0,3.582 0,8L0,24C0,28.418 3.582,32 8,32L24,32C28.418,32 32,28.418 32,24L32,8Z"/>
        <path d="M30,8C30,6.409 29.368,4.883 28.243,3.757C27.117,2.632 25.591,2 24,2L8,2C6.409,2 4.883,2.632 3.757,3.757C2.632,4.883 2,6.409 2,8L2,24C2,25.591 2.632,27.117 3.757,28.243C4.883,29.368 6.409,30 8,30L24,30C25.591,30 27.117,29.368 28.243,28.243C29.368,27.117 30,25.591 30,24L30,8Z" style="fill:rgb(194,47,255);"/>
        <path d="M16,25.458C16,25.458 22.466,22.67 25.562,17.539C28.63,12.454 26.499,6.83 21.91,6.553C19.249,6.393 17.348,7.875 16.498,9.728C16.422,9.937 16.223,10.076 16,10.076C15.778,10.076 15.579,9.937 15.503,9.728C14.652,7.875 12.751,6.393 10.09,6.553C5.501,6.83 3.37,12.454 6.438,17.539C9.534,22.67 16,25.458 16,25.458Z" style="fill:white;"/>
    </g>
</svg>
