<?xml version="1.0" encoding="UTF-8" standalone="no"?>
<!DOCTYPE svg PUBLIC "-//W3C//DTD SVG 1.1//EN" "http://www.w3.org/Graphics/SVG/1.1/DTD/svg11.dtd">
<svg width="100%" height="100%" viewBox="0 0 32 32" version="1.1" xmlns="http://www.w3.org/2000/svg" xmlns:xlink="http://www.w3.org/1999/xlink" xml:space="preserve" xmlns:serif="http://www.serif.com/" style="fill-rule:evenodd;clip-rule:evenodd;stroke-linecap:round;stroke-linejoin:round;stroke-miterlimit:1.5;">
    <rect id="heart_exclamation" x="0" y="0" width="32" height="32" style="fill:none;"/>
    <clipPath id="_clip1">
        <rect x="0" y="0" width="32" height="32"/>
    </clipPath>
    <g clip-path="url(#_clip1)">
        <path d="M16,22C18.208,22 20,23.792 20,26C20,28.208 18.208,30 16,30C13.792,30 12,28.208 12,26C12,23.792 13.792,22 16,22ZM15.359,19.856C13.697,19.028 9.212,16.521 6.821,12.557C3.876,7.676 5.921,2.277 10.327,2.011C12.881,1.858 14.706,3.28 15.523,5.059C15.596,5.259 15.787,5.393 16,5.393C16.214,5.393 16.405,5.26 16.478,5.059C17.294,3.28 19.119,1.858 21.673,2.011C26.079,2.277 28.124,7.676 25.179,12.557C22.788,16.521 18.303,19.028 16.641,19.857C16.235,20.048 15.765,20.048 15.359,19.856Z" style="fill:none;stroke:black;stroke-width:4px;"/>
        <path d="M19.948,25.355C19.982,25.565 20,25.78 20,26C20,28.208 18.208,30 16,30C13.792,30 12,28.208 12,26C12,25.78 12.018,25.565 12.052,25.355C12.361,27.137 19.639,27.137 19.948,25.355ZM5.519,6.776C6.468,12.919 25.749,12.752 26.522,7.106C26.693,8.794 26.292,10.712 25.179,12.557C22.788,16.521 18.303,19.028 16.641,19.857C16.235,20.048 15.765,20.048 15.359,19.856C13.697,19.028 9.212,16.521 6.821,12.557C5.635,10.591 5.258,8.541 5.519,6.776Z" style="fill:rgb(206,2,73);"/>
        <path d="M12.052,25.355C12.361,23.453 14.012,22 16,22C17.988,22 19.639,23.453 19.948,25.355C19.639,27.137 17.988,28.5 16,28.5C14.012,28.5 12.361,27.137 12.052,25.355ZM26.522,7.106C25.749,12.752 18.251,17.476 16,17.513C13.556,17.554 6.468,12.919 5.519,6.776C5.906,4.159 7.695,2.17 10.327,2.011C12.881,1.858 14.706,3.28 15.523,5.059C15.596,5.259 15.787,5.393 16,5.393C16.214,5.393 16.405,5.26 16.478,5.059C17.294,3.28 19.119,1.858 21.673,2.011C24.414,2.176 26.242,4.328 26.522,7.106Z" style="fill:rgb(255,60,128);"/>
    </g>
</svg>
