<?xml version="1.0" encoding="UTF-8" standalone="no"?>
<!DOCTYPE svg PUBLIC "-//W3C//DTD SVG 1.1//EN" "http://www.w3.org/Graphics/SVG/1.1/DTD/svg11.dtd">
<svg width="100%" height="100%" viewBox="0 0 32 32" version="1.1" xmlns="http://www.w3.org/2000/svg" xmlns:xlink="http://www.w3.org/1999/xlink" xml:space="preserve" xmlns:serif="http://www.serif.com/" style="fill-rule:evenodd;clip-rule:evenodd;stroke-linejoin:round;stroke-miterlimit:1.5;">
    <rect id="heart_on_fire" x="0" y="0" width="32" height="32" style="fill:none;"/>
    <clipPath id="_clip1">
        <rect x="0" y="0" width="32" height="32"/>
    </clipPath>
    <g clip-path="url(#_clip1)">
        <path d="M5.945,22.585C5.553,22.115 3.176,19.2 2.521,16.865C1.867,14.539 2.037,10.91 3,9C4.304,6.414 5.5,5.5 5.5,5.5C5.5,5.5 6.939,7.972 9.5,6.829C11.754,5.823 10.051,2.928 10.051,2.928C13.987,2.496 13.441,8.166 16.324,7.653C18.652,7.239 17.591,3.408 21,2C21,2 21.222,6.335 24,7C26.424,7.58 27.428,5.421 27.428,5.421C27.812,5.87 28.79,7.276 29.35,9.077C29.877,10.772 30.164,12.866 29.914,15.043C29.501,18.646 26,22.655 26,22.655C22.966,26.49 18.558,28.94 16.783,29.825C16.287,30.058 15.713,30.058 15.217,29.825C13.432,28.935 8.981,26.46 5.945,22.585Z" style="fill:none;stroke:black;stroke-width:4px;"/>
        <path d="M5.945,22.585C5.553,22.115 3.176,19.2 2.521,16.865C1.867,14.539 2.037,10.91 3,9C4.304,6.414 5.5,5.5 5.5,5.5C5.5,5.5 6.939,7.972 9.5,6.829C11.754,5.823 10.051,2.928 10.051,2.928C13.987,2.496 13.441,8.166 16.324,7.653C18.652,7.239 17.591,3.408 21,2C21,2 21.222,6.335 24,7C26.424,7.58 27.428,5.421 27.428,5.421C27.812,5.87 28.79,7.276 29.35,9.077C29.877,10.772 30.164,12.866 29.914,15.043C29.501,18.646 26,22.655 26,22.655C24.696,24.302 23.139,25.694 21.646,26.816C22.197,25.293 7.635,23.378 7.299,24.137C6.827,23.648 6.372,23.13 5.945,22.585Z" style="fill:rgb(251,187,12);"/>
        <path d="M3.596,18.309C3.102,16.754 2.985,15.224 3.19,13.838C4.482,15.638 5.193,17.495 5.407,19.285C4.622,19.371 3.984,18.792 3.596,18.309ZM8.014,22.404C10.92,25.247 20.047,25.631 22.674,23.527C22.38,24.694 21.981,25.89 21.646,26.816C19.664,28.306 17.795,29.32 16.783,29.825C16.287,30.058 15.713,30.058 15.217,29.825C13.683,29.06 10.181,27.125 7.299,24.137C7.486,23.715 7.741,23.114 8.014,22.404ZM26.965,18.946C27.324,16.201 28.421,15.448 28.86,14.241C29.055,16.164 28.643,18.332 27.484,20.443C27.394,19.977 27.235,19.463 26.965,18.946Z" style="fill:rgb(194,2,2);"/>
        <path d="M5.407,19.285C4.311,17.642 3.494,15.803 3.19,13.838C3.663,10.639 5.85,8.207 9.066,8.014C12.188,7.826 14.418,9.565 15.417,11.738C15.506,11.984 15.739,12.147 16,12.147C16.261,12.147 16.495,11.984 16.584,11.739C17.582,9.565 19.812,7.826 22.934,8.014C26.284,8.216 28.518,10.846 28.86,14.241C28.634,15.895 27.935,17.485 26.965,18.946C26.728,18.49 26.404,18.032 25.966,17.604C24.42,16.095 21.5,16.082 21.5,16.082C21.5,16.082 23.346,18.27 23.069,21.383C23.011,22.033 22.864,22.774 22.674,23.527C20.047,25.631 17.304,26.939 16,26.961C14.338,26.988 10.92,25.247 8.014,22.404C8.232,21.836 8.461,21.198 8.674,20.528C9.415,18.197 8.005,16.355 8.005,16.355C8.005,16.355 8.069,17.599 6.287,18.915C5.978,19.143 5.683,19.255 5.407,19.285Z" style="fill:rgb(253,46,46);"/>
    </g>
</svg>
