<?xml version="1.0" encoding="UTF-8" standalone="no"?><!DOCTYPE svg PUBLIC "-//W3C//DTD SVG 1.1//EN" "http://www.w3.org/Graphics/SVG/1.1/DTD/svg11.dtd"><svg width="100%" height="100%" viewBox="0 0 32 32" version="1.1" xmlns="http://www.w3.org/2000/svg" xmlns:xlink="http://www.w3.org/1999/xlink" xml:space="preserve" xmlns:serif="http://www.serif.com/" style="fill-rule:evenodd;clip-rule:evenodd;stroke-linecap:round;stroke-linejoin:round;stroke-miterlimit:1.5;"><rect id="heart_arrow" x="0" y="0" width="32" height="32" style="fill:none;"/><g id="outline"><path d="M10,21l-4.751,-4.751c-1.26,-1.26 -1.967,-2.968 -1.967,-4.749c0,-1.781 0.707,-3.489 1.967,-4.749c0.001,-0.001 0.001,-0.001 0.002,-0.002c1.26,-1.26 2.968,-1.967 4.749,-1.967c1.781,0 3.489,0.707 4.749,1.967c0.732,0.732 1.251,1.251 1.251,1.251c0,0 0.519,-0.519 1.251,-1.251c1.26,-1.26 2.968,-1.967 4.749,-1.967c1.781,0 3.489,0.707 4.749,1.967c0.001,0.001 0.001,0.001 0.002,0.002c1.26,1.26 1.967,2.968 1.967,4.749c0,1.781 -0.707,3.489 -1.967,4.749c-4.557,4.557 -10.751,10.751 -10.751,10.751l-4,-4l-4,4l-2,-2l4,-4Z" style="fill:none;stroke:#000;stroke-width:4px;"/><path d="M21,5l7,7l2,-8.916l-9,1.916Z" style="fill:none;stroke:#000;stroke-width:4px;stroke-linecap:butt;"/></g><g id="emoji"><path d="M12,19l2,2l-6,6l-2,-2l6,-6Z" style="fill:#fdef24;"/><path d="M16,25.841c0,0 -5.62,-5.619 -9.754,-9.754c-2.38,-2.38 -2.38,-6.238 0,-8.618c0,0 0.001,-0.001 0.001,-0.001c2.38,-2.38 6.238,-2.38 8.618,0c0.665,0.664 1.135,1.134 1.135,1.134c0,0 0.47,-0.47 1.135,-1.134c2.38,-2.38 6.238,-2.38 8.618,0c0,0 0.001,0.001 0.001,0.001c2.38,2.38 2.38,6.238 0,8.618c-4.134,4.135 -9.754,9.754 -9.754,9.754Z" style="fill:#ff4586;"/><clipPath id="_clip1"><path d="M16,25.841c0,0 -5.62,-5.619 -9.754,-9.754c-2.38,-2.38 -2.38,-6.238 0,-8.618c0,0 0.001,-0.001 0.001,-0.001c2.38,-2.38 6.238,-2.38 8.618,0c0.665,0.664 1.135,1.134 1.135,1.134c0,0 0.47,-0.47 1.135,-1.134c2.38,-2.38 6.238,-2.38 8.618,0c0,0 0.001,0.001 0.001,0.001c2.38,2.38 2.38,6.238 0,8.618c-4.134,4.135 -9.754,9.754 -9.754,9.754Z"/></clipPath><g clip-path="url(#_clip1)"><path d="M13,28l-12,0l0,-29l22,0c0,0 0,3.107 0,5.858c0,1.958 -0.575,3.858 -1.63,5.473c-0.411,-0.212 -0.877,-0.331 -1.37,-0.331c-1.656,0 -3,1.344 -3,3c0,0.572 0.16,1.107 0.438,1.562l-2.095,2.095c-1.5,1.5 -2.343,3.535 -2.343,5.657l0,5.686Z" style="fill:#ff8fb6;"/></g><path d="M10.083,4.782l0.084,0.002l0.083,0.003l0.083,0.003l0.083,0.005l0.083,0.005l0.082,0.007l0.083,0.008l0.082,0.008l0.082,0.01l0.082,0.011l0.082,0.011l0.081,0.013l0.081,0.014l0.082,0.014l0.08,0.016l0.081,0.017l0.08,0.017l0.08,0.019l0.08,0.019l0.08,0.021l0.079,0.021l0.079,0.023l0.078,0.023l0.079,0.024l0.078,0.026l0.077,0.026l0.077,0.027l0.077,0.028l0.077,0.029l0.076,0.03l0.076,0.031l0.076,0.032l0.075,0.033l0.074,0.033l0.075,0.035l0.073,0.035l0.074,0.037l0.073,0.037l0.072,0.038l0.073,0.039l0.071,0.04l0.071,0.041l0.071,0.042l0.07,0.042l0.07,0.044l0.069,0.044l0.069,0.045l0.068,0.046l0.068,0.047l0.067,0.048l0.067,0.049l0.066,0.049l0.065,0.051l0.065,0.051l0.064,0.052l0.064,0.053l0.063,0.053l0.063,0.055l0.062,0.055l0.061,0.056l0.061,0.057l0.06,0.058l0.059,0.059l1.251,1.251l1.251,-1.251l0.059,-0.059l0.06,-0.058l0.061,-0.057l0.061,-0.056l0.062,-0.055l0.063,-0.055l0.063,-0.053l0.064,-0.053l0.064,-0.052l0.065,-0.051l0.065,-0.051l0.066,-0.049l0.067,-0.049l0.067,-0.048l0.068,-0.047l0.068,-0.046l0.069,-0.045l0.069,-0.044l0.07,-0.044l0.07,-0.042l0.071,-0.042l0.071,-0.041l0.071,-0.04l0.073,-0.039l0.072,-0.038l0.073,-0.037l0.074,-0.037l0.073,-0.035l0.075,-0.035l0.074,-0.033l0.075,-0.033l0.076,-0.032l0.076,-0.031l0.076,-0.03l0.077,-0.029l0.077,-0.028l0.077,-0.027l0.077,-0.026l0.078,-0.026l0.079,-0.024l0.078,-0.023l0.079,-0.023l0.079,-0.021l0.08,-0.021l0.08,-0.019l0.08,-0.019l0.08,-0.017l0.081,-0.017l0.08,-0.016l0.082,-0.014l0.081,-0.014l0.081,-0.013l0.082,-0.011l0.082,-0.011l0.082,-0.01l0.082,-0.008l0.083,-0.008l0.082,-0.007l0.083,-0.005l0.083,-0.005l0.083,-0.003l0.083,-0.003l0.084,-0.002l0.083,0l0.083,0l0.084,0.002l0.083,0.003l0.083,0.003l0.083,0.005l0.083,0.005l0.082,0.007l0.083,0.008l0.082,0.008l0.082,0.01l0.082,0.011l0.082,0.011l0.081,0.013l0.082,0.014l0.081,0.014l0.08,0.016l0.081,0.017l0.08,0.017l0.08,0.019l0.08,0.019l0.08,0.021l0.079,0.021l0.079,0.023l0.078,0.023l0.079,0.024l0.078,0.026l0.077,0.026l0.077,0.027l0.077,0.028l0.077,0.029l0.076,0.03l0.076,0.031l0.076,0.032l0.075,0.033l0.074,0.033l0.075,0.035l0.074,0.035l0.073,0.037l0.073,0.037l0.073,0.038l0.072,0.039l0.071,0.04l0.071,0.041l0.071,0.042l0.07,0.042l0.07,0.044l0.069,0.044l0.069,0.045l0.068,0.046l0.068,0.047l0.067,0.048l0.067,0.049l0.066,0.049l0.065,0.051l0.065,0.051l0.064,0.052l0.064,0.053l0.063,0.053l0.063,0.055l0.062,0.055l0.061,0.056l0.061,0.057l0.06,0.058l0.061,0.061l0.059,0.059l0.058,0.06l0.057,0.061l0.056,0.061l0.055,0.062l0.055,0.063l0.053,0.063l0.053,0.064l0.052,0.064l0.051,0.065l0.051,0.065l0.049,0.066l0.049,0.067l0.048,0.067l0.047,0.068l0.046,0.068l0.045,0.069l0.044,0.069l0.044,0.07l0.042,0.07l0.042,0.071l0.041,0.071l0.04,0.071l0.039,0.072l0.038,0.073l0.037,0.073l0.037,0.073l0.035,0.074l0.035,0.075l0.033,0.074l0.033,0.075l0.032,0.076l0.031,0.076l0.03,0.076l0.029,0.077l0.028,0.077l0.027,0.077l0.026,0.077l0.026,0.078l0.024,0.079l0.023,0.078l0.023,0.079l0.021,0.079l0.021,0.08l0.019,0.08l0.019,0.08l0.017,0.08l0.017,0.081l0.016,0.08l0.014,0.081l0.014,0.082l0.013,0.081l0.011,0.082l0.011,0.082l0.01,0.082l0.008,0.082l0.008,0.083l0.007,0.082l0.005,0.083l0.005,0.083l0.003,0.083l0.003,0.083l0.002,0.084l0,0.083l0,0.083l-0.002,0.084l-0.003,0.083l-0.003,0.083l-0.005,0.083l-0.005,0.083l-0.007,0.082l-0.008,0.083l-0.008,0.082l-0.01,0.082l-0.011,0.082l-0.011,0.082l-0.013,0.081l-0.014,0.082l-0.014,0.081l-0.016,0.08l-0.017,0.081l-0.017,0.08l-0.019,0.08l-0.019,0.08l-0.021,0.08l-0.021,0.079l-0.023,0.079l-0.023,0.078l-0.024,0.079l-0.026,0.078l-0.026,0.077l-0.027,0.077l-0.028,0.077l-0.029,0.077l-0.03,0.076l-0.031,0.076l-0.032,0.076l-0.033,0.075l-0.033,0.074l-0.035,0.075l-0.035,0.074l-0.037,0.073l-0.037,0.073l-0.038,0.073l-0.039,0.072l-0.04,0.071l-0.041,0.071l-0.042,0.071l-0.042,0.07l-0.044,0.07l-0.044,0.069l-0.045,0.069l-0.046,0.068l-0.047,0.068l-0.048,0.067l-0.049,0.067l-0.049,0.066l-0.051,0.065l-0.051,0.065l-0.052,0.064l-0.053,0.064l-0.053,0.063l-0.055,0.063l-0.055,0.062l-0.056,0.061l-0.057,0.061l-0.058,0.06l-0.059,0.059l-10.751,10.751l-10.751,-10.751l-0.059,-0.059l-0.058,-0.06l-0.057,-0.061l-0.056,-0.061l-0.055,-0.062l-0.055,-0.063l-0.053,-0.063l-0.053,-0.064l-0.052,-0.064l-0.051,-0.065l-0.051,-0.065l-0.049,-0.066l-0.049,-0.067l-0.048,-0.067l-0.047,-0.068l-0.046,-0.068l-0.045,-0.069l-0.044,-0.069l-0.044,-0.07l-0.042,-0.07l-0.042,-0.071l-0.041,-0.071l-0.04,-0.071l-0.039,-0.072l-0.038,-0.073l-0.037,-0.073l-0.037,-0.073l-0.035,-0.074l-0.035,-0.075l-0.033,-0.074l-0.033,-0.075l-0.032,-0.076l-0.031,-0.076l-0.03,-0.076l-0.029,-0.077l-0.028,-0.077l-0.027,-0.077l-0.026,-0.077l-0.026,-0.078l-0.024,-0.079l-0.023,-0.078l-0.023,-0.079l-0.021,-0.079l-0.021,-0.08l-0.019,-0.08l-0.019,-0.08l-0.017,-0.08l-0.017,-0.081l-0.016,-0.08l-0.014,-0.081l-0.014,-0.082l-0.013,-0.081l-0.011,-0.082l-0.011,-0.082l-0.01,-0.082l-0.008,-0.082l-0.008,-0.083l-0.007,-0.082l-0.005,-0.083l-0.005,-0.083l-0.003,-0.083l-0.003,-0.083l-0.002,-0.084l0,-0.083l0,-0.083l0.002,-0.084l0.003,-0.083l0.003,-0.083l0.005,-0.083l0.005,-0.083l0.007,-0.082l0.008,-0.083l0.008,-0.082l0.01,-0.082l0.011,-0.082l0.011,-0.082l0.013,-0.081l0.014,-0.082l0.014,-0.081l0.016,-0.08l0.017,-0.081l0.017,-0.08l0.019,-0.08l0.019,-0.08l0.021,-0.08l0.021,-0.079l0.023,-0.079l0.023,-0.078l0.024,-0.079l0.026,-0.078l0.026,-0.077l0.027,-0.077l0.028,-0.077l0.029,-0.077l0.03,-0.076l0.031,-0.076l0.032,-0.076l0.033,-0.075l0.033,-0.074l0.035,-0.075l0.035,-0.074l0.037,-0.073l0.037,-0.073l0.038,-0.073l0.039,-0.072l0.04,-0.071l0.041,-0.071l0.042,-0.071l0.042,-0.07l0.044,-0.07l0.044,-0.069l0.045,-0.069l0.046,-0.068l0.047,-0.068l0.048,-0.067l0.049,-0.067l0.049,-0.066l0.051,-0.065l0.051,-0.065l0.052,-0.064l0.053,-0.064l0.053,-0.063l0.055,-0.063l0.055,-0.062l0.056,-0.061l0.057,-0.061l0.058,-0.06l0.059,-0.059l0.002,-0.002l0.059,-0.059l0.06,-0.058l0.061,-0.057l0.061,-0.056l0.062,-0.055l0.063,-0.055l0.063,-0.053l0.064,-0.053l0.064,-0.052l0.065,-0.051l0.065,-0.051l0.066,-0.049l0.067,-0.049l0.067,-0.048l0.068,-0.047l0.068,-0.046l0.069,-0.045l0.069,-0.044l0.07,-0.044l0.07,-0.042l0.071,-0.042l0.071,-0.041l0.071,-0.04l0.072,-0.039l0.073,-0.038l0.073,-0.037l0.073,-0.037l0.074,-0.035l0.075,-0.035l0.074,-0.033l0.075,-0.033l0.076,-0.032l0.076,-0.031l0.076,-0.03l0.077,-0.029l0.077,-0.028l0.077,-0.027l0.077,-0.026l0.078,-0.026l0.079,-0.024l0.078,-0.023l0.079,-0.023l0.079,-0.021l0.08,-0.021l0.08,-0.019l0.08,-0.019l0.08,-0.017l0.081,-0.017l0.08,-0.016l0.081,-0.014l0.082,-0.014l0.081,-0.013l0.082,-0.011l0.082,-0.011l0.082,-0.01l0.082,-0.008l0.083,-0.008l0.082,-0.007l0.083,-0.005l0.083,-0.005l0.083,-0.003l0.083,-0.003l0.084,-0.002l0.083,0l0.083,0Zm-0.142,2l-0.058,0.001l-0.059,0.002l-0.058,0.003l-0.058,0.003l-0.058,0.004l-0.058,0.005l-0.058,0.005l-0.058,0.006l-0.058,0.007l-0.057,0.007l-0.057,0.009l-0.058,0.008l-0.057,0.01l-0.057,0.01l-0.056,0.011l-0.057,0.012l-0.056,0.012l-0.056,0.013l-0.057,0.014l-0.055,0.015l-0.056,0.015l-0.055,0.015l-0.056,0.017l-0.054,0.017l-0.055,0.018l-0.055,0.018l-0.054,0.019l-0.054,0.02l-0.054,0.02l-0.053,0.021l-0.054,0.022l-0.053,0.022l-0.052,0.023l-0.053,0.024l-0.052,0.024l-0.052,0.025l-0.052,0.026l-0.051,0.026l-0.051,0.026l-0.05,0.028l-0.051,0.028l-0.05,0.029l-0.049,0.029l-0.05,0.03l-0.049,0.03l-0.048,0.032l-0.049,0.031l-0.047,0.033l-0.048,0.032l-0.047,0.034l-0.047,0.034l-0.046,0.035l-0.046,0.035l-0.046,0.036l-0.045,0.037l-0.045,0.037l-0.044,0.038l-0.044,0.038l-0.043,0.039l-0.043,0.039l-0.043,0.04l-0.042,0.041l-0.042,0.042l-0.043,0.043l-0.041,0.042l-0.04,0.043l-0.039,0.043l-0.039,0.044l-0.038,0.043l-0.038,0.044l-0.037,0.045l-0.037,0.046l-0.036,0.045l-0.035,0.046l-0.035,0.046l-0.034,0.047l-0.033,0.047l-0.033,0.048l-0.033,0.048l-0.031,0.048l-0.032,0.049l-0.03,0.049l-0.03,0.049l-0.029,0.049l-0.029,0.05l-0.028,0.051l-0.028,0.05l-0.026,0.051l-0.026,0.051l-0.026,0.052l-0.025,0.052l-0.024,0.052l-0.024,0.053l-0.023,0.052l-0.022,0.053l-0.022,0.053l-0.021,0.054l-0.02,0.054l-0.02,0.054l-0.019,0.054l-0.018,0.055l-0.018,0.054l-0.017,0.056l-0.017,0.055l-0.015,0.055l-0.015,0.055l-0.015,0.056l-0.014,0.057l-0.013,0.056l-0.012,0.056l-0.012,0.056l-0.011,0.057l-0.01,0.057l-0.01,0.057l-0.008,0.058l-0.009,0.057l-0.007,0.057l-0.007,0.058l-0.006,0.058l-0.005,0.058l-0.005,0.058l-0.004,0.058l-0.003,0.058l-0.003,0.059l-0.002,0.058l-0.001,0.058l0,0.059l0,0.059l0.001,0.058l0.002,0.058l0.003,0.059l0.003,0.058l0.004,0.058l0.005,0.058l0.005,0.058l0.006,0.058l0.007,0.058l0.007,0.057l0.009,0.057l0.008,0.058l0.01,0.057l0.01,0.057l0.011,0.057l0.012,0.056l0.012,0.056l0.013,0.056l0.014,0.057l0.015,0.056l0.015,0.055l0.015,0.055l0.017,0.055l0.017,0.056l0.018,0.054l0.018,0.055l0.019,0.054l0.02,0.054l0.02,0.054l0.021,0.054l0.022,0.053l0.022,0.053l0.023,0.052l0.024,0.053l0.024,0.052l0.025,0.052l0.026,0.052l0.026,0.051l0.026,0.051l0.028,0.05l0.028,0.051l0.029,0.05l0.029,0.049l0.03,0.049l0.03,0.049l0.032,0.049l0.031,0.048l0.033,0.048l0.033,0.048l0.033,0.047l0.034,0.047l0.035,0.046l0.035,0.046l0.036,0.045l0.037,0.046l0.037,0.045l0.038,0.044l0.038,0.043l0.039,0.044l0.039,0.043l0.04,0.043l0.041,0.042l0.045,0.046l9.333,9.333l9.332,-9.333l0.046,-0.046l0.041,-0.042l0.04,-0.043l0.039,-0.043l0.039,-0.043l0.038,-0.044l0.038,-0.045l0.037,-0.044l0.037,-0.046l0.036,-0.045l0.035,-0.046l0.035,-0.046l0.034,-0.047l0.034,-0.047l0.032,-0.047l0.033,-0.049l0.032,-0.048l0.031,-0.049l0.03,-0.048l0.03,-0.05l0.029,-0.049l0.029,-0.05l0.028,-0.051l0.027,-0.05l0.027,-0.051l0.027,-0.052l0.025,-0.051l0.025,-0.052l0.024,-0.052l0.024,-0.053l0.023,-0.052l0.022,-0.053l0.022,-0.054l0.021,-0.053l0.02,-0.054l0.02,-0.054l0.019,-0.054l0.018,-0.055l0.018,-0.055l0.017,-0.054l0.017,-0.056l0.015,-0.055l0.016,-0.056l0.014,-0.055l0.014,-0.057l0.013,-0.056l0.012,-0.056l0.012,-0.057l0.011,-0.057l0.01,-0.056l0.009,-0.057l0.009,-0.058l0.009,-0.057l0.007,-0.058l0.007,-0.057l0.006,-0.058l0.005,-0.058l0.005,-0.058l0.004,-0.058l0.003,-0.058l0.003,-0.058l0.002,-0.059l0.001,-0.058l0,-0.059l0,-0.059l-0.001,-0.058l-0.002,-0.059l-0.003,-0.058l-0.003,-0.058l-0.004,-0.058l-0.005,-0.058l-0.005,-0.058l-0.006,-0.058l-0.007,-0.057l-0.007,-0.058l-0.009,-0.057l-0.009,-0.058l-0.009,-0.057l-0.01,-0.056l-0.011,-0.057l-0.012,-0.057l-0.012,-0.056l-0.013,-0.056l-0.014,-0.057l-0.014,-0.055l-0.016,-0.056l-0.015,-0.055l-0.017,-0.056l-0.017,-0.054l-0.018,-0.055l-0.018,-0.055l-0.019,-0.054l-0.02,-0.054l-0.02,-0.054l-0.021,-0.053l-0.022,-0.054l-0.022,-0.053l-0.023,-0.052l-0.024,-0.053l-0.024,-0.052l-0.025,-0.052l-0.025,-0.051l-0.027,-0.052l-0.027,-0.051l-0.027,-0.05l-0.028,-0.051l-0.029,-0.05l-0.029,-0.049l-0.03,-0.05l-0.03,-0.048l-0.031,-0.049l-0.032,-0.048l-0.033,-0.049l-0.032,-0.047l-0.034,-0.047l-0.034,-0.047l-0.035,-0.046l-0.035,-0.046l-0.036,-0.045l-0.037,-0.046l-0.037,-0.044l-0.038,-0.045l-0.038,-0.044l-0.039,-0.043l-0.039,-0.043l-0.04,-0.043l-0.041,-0.042l-0.042,-0.042l-0.043,-0.043l-0.042,-0.04l-0.043,-0.041l-0.043,-0.039l-0.043,-0.039l-0.044,-0.038l-0.044,-0.038l-0.045,-0.037l-0.045,-0.037l-0.046,-0.036l-0.046,-0.035l-0.046,-0.035l-0.047,-0.034l-0.047,-0.033l-0.048,-0.033l-0.048,-0.033l-0.048,-0.031l-0.048,-0.032l-0.049,-0.03l-0.05,-0.03l-0.049,-0.029l-0.05,-0.029l-0.05,-0.028l-0.051,-0.028l-0.051,-0.026l-0.051,-0.026l-0.052,-0.026l-0.052,-0.025l-0.052,-0.024l-0.052,-0.024l-0.053,-0.023l-0.053,-0.022l-0.054,-0.022l-0.053,-0.021l-0.054,-0.02l-0.054,-0.02l-0.054,-0.019l-0.055,-0.018l-0.055,-0.018l-0.055,-0.017l-0.055,-0.017l-0.055,-0.015l-0.056,-0.015l-0.056,-0.015l-0.056,-0.014l-0.056,-0.013l-0.056,-0.012l-0.057,-0.012l-0.056,-0.011l-0.057,-0.01l-0.057,-0.01l-0.058,-0.008l-0.057,-0.009l-0.057,-0.007l-0.058,-0.007l-0.058,-0.006l-0.058,-0.005l-0.058,-0.005l-0.058,-0.004l-0.058,-0.003l-0.058,-0.003l-0.059,-0.002l-0.058,-0.001l-0.059,0l-0.059,0l-0.058,0.001l-0.059,0.002l-0.058,0.003l-0.058,0.003l-0.058,0.004l-0.058,0.005l-0.058,0.005l-0.058,0.006l-0.057,0.007l-0.058,0.007l-0.057,0.009l-0.058,0.008l-0.057,0.01l-0.057,0.01l-0.056,0.011l-0.057,0.012l-0.056,0.012l-0.056,0.013l-0.056,0.014l-0.056,0.014l-0.056,0.016l-0.055,0.015l-0.056,0.017l-0.054,0.017l-0.055,0.018l-0.055,0.018l-0.054,0.019l-0.054,0.02l-0.054,0.02l-0.053,0.021l-0.054,0.022l-0.053,0.022l-0.053,0.023l-0.052,0.024l-0.052,0.024l-0.052,0.025l-0.052,0.026l-0.051,0.026l-0.051,0.026l-0.051,0.028l-0.05,0.028l-0.05,0.029l-0.049,0.029l-0.05,0.03l-0.049,0.03l-0.048,0.032l-0.048,0.031l-0.048,0.033l-0.048,0.032l-0.047,0.034l-0.047,0.034l-0.046,0.035l-0.046,0.035l-0.046,0.036l-0.045,0.037l-0.044,0.037l-0.045,0.038l-0.044,0.038l-0.043,0.039l-0.043,0.039l-0.043,0.04l-0.042,0.041l-0.046,0.046l-2.661,2.66l-2.661,-2.66l-0.046,-0.046l-0.042,-0.041l-0.043,-0.04l-0.043,-0.039l-0.043,-0.039l-0.044,-0.038l-0.045,-0.038l-0.044,-0.037l-0.045,-0.037l-0.046,-0.036l-0.046,-0.035l-0.046,-0.035l-0.047,-0.034l-0.047,-0.033l-0.048,-0.033l-0.048,-0.033l-0.048,-0.032l-0.048,-0.031l-0.049,-0.03l-0.05,-0.03l-0.049,-0.029l-0.05,-0.029l-0.051,-0.028l-0.05,-0.028l-0.051,-0.026l-0.052,-0.027l-0.051,-0.025l-0.052,-0.025l-0.052,-0.024l-0.053,-0.024l-0.052,-0.023l-0.053,-0.022l-0.054,-0.022l-0.053,-0.021l-0.054,-0.02l-0.054,-0.02l-0.054,-0.019l-0.055,-0.018l-0.055,-0.018l-0.054,-0.017l-0.056,-0.017l-0.055,-0.015l-0.056,-0.016l-0.056,-0.014l-0.056,-0.014l-0.056,-0.013l-0.056,-0.012l-0.057,-0.012l-0.056,-0.011l-0.057,-0.01l-0.057,-0.01l-0.058,-0.008l-0.057,-0.009l-0.058,-0.007l-0.057,-0.007l-0.058,-0.006l-0.058,-0.005l-0.058,-0.005l-0.058,-0.004l-0.058,-0.003l-0.058,-0.003l-0.059,-0.002l-0.058,-0.001l-0.059,0l-0.059,0Z" style="fill:#ff4586;"/><path d="M23.5,7.5l-2.5,-2.5l9,-1.916l-2,8.916l-2.5,-2.5l-4.5,4.5c-0.265,0.265 -0.625,0.414 -1,0.414c-0.375,0 -0.735,-0.149 -1,-0.414c0,0 0,0 0,0c-0.265,-0.265 -0.414,-0.625 -0.414,-1c0,-0.375 0.149,-0.735 0.414,-1l4.5,-4.5Z" style="fill:#fdef24;"/></g></svg>