<?xml version="1.0" encoding="UTF-8" standalone="no"?>
<!DOCTYPE svg PUBLIC "-//W3C//DTD SVG 1.1//EN" "http://www.w3.org/Graphics/SVG/1.1/DTD/svg11.dtd">
<svg width="100%" height="100%" viewBox="0 0 32 32" version="1.1" xmlns="http://www.w3.org/2000/svg" xmlns:xlink="http://www.w3.org/1999/xlink" xml:space="preserve" xmlns:serif="http://www.serif.com/" style="fill-rule:evenodd;clip-rule:evenodd;stroke-linejoin:round;stroke-miterlimit:1.5;">
    <rect id="heart_arrow" x="0" y="0" width="32" height="32" style="fill:none;"/>
    <path d="M3.904,9.004C3.779,8.895 3.687,8.749 3.645,8.582L2.335,3.338C2.264,3.056 2.347,2.758 2.552,2.552C2.758,2.347 3.056,2.264 3.338,2.335L8.582,3.645C8.871,3.718 9.099,3.94 9.179,4.227C9.258,4.515 9.177,4.823 8.966,5.034L8.414,5.586C8.627,5.551 8.844,5.527 9.066,5.514C12.188,5.326 14.418,7.065 15.417,9.238C15.506,9.484 15.739,9.647 16,9.647C16.261,9.647 16.495,9.484 16.584,9.239C17.582,7.065 19.812,5.326 22.934,5.514C28.319,5.838 30.819,12.437 27.219,18.403C26.413,19.739 25.412,20.94 24.343,22L26.201,22C26.392,22 26.576,22.076 26.712,22.212L29.266,24.766C29.473,24.973 29.535,25.284 29.423,25.554C29.311,25.824 29.048,26 28.755,26L27.414,26L27.707,26.293C28.097,26.683 28.097,27.317 27.707,27.707C27.317,28.097 26.683,28.097 26.293,27.707L26,27.414L26,28.755C26,29.048 25.824,29.311 25.554,29.423C25.284,29.535 24.973,29.473 24.766,29.266L22.212,26.712C22.076,26.576 22,26.392 22,26.201L22,24.046C19.889,25.684 17.855,26.79 16.783,27.325C16.287,27.558 15.713,27.558 15.217,27.325C13.186,26.312 7.703,23.247 4.781,18.403C2.767,15.065 2.662,11.529 3.904,9.004Z" style="fill:none;stroke:black;stroke-width:4px;"/>
    <path d="M5.034,8.966C4.823,9.177 4.515,9.258 4.227,9.179C3.94,9.099 3.718,8.871 3.645,8.582C3.275,7.099 2.698,4.79 2.335,3.338C2.264,3.056 2.347,2.758 2.552,2.552C2.758,2.347 3.056,2.264 3.338,2.335C4.79,2.698 7.099,3.275 8.582,3.645C8.871,3.718 9.099,3.94 9.179,4.227C9.258,4.515 9.177,4.823 8.966,5.034C7.866,6.134 6.134,7.866 5.034,8.966Z" style="fill:rgb(255,211,0);"/>
    <path d="M3.19,11.338C4.35,18.845 27.915,18.641 28.86,11.741C29.069,13.804 28.579,16.149 27.219,18.403C24.297,23.247 18.814,26.312 16.783,27.325C16.287,27.558 15.713,27.558 15.217,27.325C13.186,26.312 7.703,23.247 4.781,18.403C3.331,16 2.871,13.495 3.19,11.338Z" style="fill:rgb(206,2,73);"/>
    <path d="M28.86,11.741C27.915,18.641 18.751,24.415 16,24.461C13.013,24.51 4.35,18.845 3.19,11.338C3.663,8.139 5.85,5.707 9.066,5.514C12.188,5.326 14.418,7.065 15.417,9.238C15.506,9.484 15.739,9.647 16,9.647C16.261,9.647 16.495,9.484 16.584,9.239C17.582,7.065 19.812,5.326 22.934,5.514C26.284,5.716 28.518,8.346 28.86,11.741Z" style="fill:rgb(255,60,128);"/>
    <path d="M22.212,26.712C22.076,26.576 22,26.392 22,26.201L22,22L26.201,22C26.392,22 26.576,22.076 26.712,22.212C27.183,22.683 28.351,23.851 29.266,24.766C29.473,24.973 29.535,25.284 29.423,25.554C29.311,25.824 29.048,26 28.755,26C27.49,26 26,26 26,26L26,28.755C26,29.048 25.824,29.311 25.554,29.423C25.284,29.535 24.973,29.473 24.766,29.266C23.851,28.351 22.683,27.183 22.212,26.712Z" style="fill:rgb(255,211,0);"/>
    <path d="M27.707,26.293C28.097,26.683 28.097,27.317 27.707,27.707C27.317,28.097 26.683,28.097 26.293,27.707L15.84,17.254C15.449,16.864 15.449,16.23 15.84,15.84C16.23,15.449 16.864,15.449 17.254,15.84L27.707,26.293Z" style="fill:rgb(108,108,108);"/>
    <path d="M16.5,18C16.5,18.552 16.052,19 15.5,19C14.948,19 14.5,18.552 14.5,18C14.5,16.992 14.839,16.132 15.432,15.514C16.026,14.894 16.889,14.5 18,14.5C18.552,14.5 19,14.948 19,15.5C19,16.052 18.552,16.5 18,16.5C17.519,16.5 17.132,16.631 16.875,16.899C16.615,17.17 16.5,17.559 16.5,18Z" style="fill:rgb(206,2,73);"/>
</svg>
