<?xml version="1.0" encoding="UTF-8" standalone="no"?>
<!DOCTYPE svg PUBLIC "-//W3C//DTD SVG 1.1//EN" "http://www.w3.org/Graphics/SVG/1.1/DTD/svg11.dtd">
<svg width="100%" height="100%" viewBox="0 0 32 32" version="1.1" xmlns="http://www.w3.org/2000/svg" xmlns:xlink="http://www.w3.org/1999/xlink" xml:space="preserve" xmlns:serif="http://www.serif.com/" style="fill-rule:evenodd;clip-rule:evenodd;stroke-linejoin:round;stroke-miterlimit:1.5;">
    <rect id="heart_arrow" x="0" y="0" width="32" height="32" style="fill:none;"/>
    <path d="M3.968,9.055C3.81,8.942 3.694,8.776 3.645,8.582L2.335,3.338C2.264,3.056 2.347,2.758 2.552,2.552C2.758,2.347 3.056,2.264 3.338,2.335L8.582,3.645C8.871,3.718 9.099,3.94 9.179,4.227C9.258,4.515 9.177,4.823 8.966,5.034L8.411,5.589C8.643,5.549 8.882,5.521 9.127,5.506C12.222,5.32 14.432,7.043 15.422,9.198C15.51,9.441 15.741,9.603 16,9.603C16.259,9.603 16.49,9.441 16.579,9.198C17.568,7.043 19.778,5.32 22.873,5.506C28.21,5.827 30.688,12.368 27.12,18.282C26.282,19.671 25.232,20.913 24.113,22L26.201,22C26.392,22 26.576,22.076 26.712,22.212L29.266,24.766C29.473,24.973 29.535,25.284 29.423,25.554C29.311,25.824 29.048,26 28.755,26L26,26L26,28.755C26,29.048 25.824,29.311 25.554,29.423C25.284,29.535 24.973,29.473 24.766,29.266L22.212,26.712C22.076,26.576 22,26.392 22,26.201L22,23.834C18.925,26.231 16,27.492 16,27.492C16,27.492 8.48,24.25 4.88,18.282C2.907,15.012 2.782,11.551 3.968,9.055Z" style="fill:none;stroke:black;stroke-width:4px;"/>
    <path d="M16,16L4,4" style="fill:none;stroke:rgb(108,108,108);stroke-width:2px;stroke-linecap:round;"/>
    <path d="M5.034,8.966C4.823,9.177 4.515,9.258 4.227,9.179C3.94,9.099 3.718,8.871 3.645,8.582C3.275,7.099 2.698,4.79 2.335,3.338C2.264,3.056 2.347,2.758 2.552,2.552C2.758,2.347 3.056,2.264 3.338,2.335C4.79,2.698 7.099,3.275 8.582,3.645C8.871,3.718 9.099,3.94 9.179,4.227C9.258,4.515 9.177,4.823 8.966,5.034C7.866,6.134 6.134,7.866 5.034,8.966Z" style="fill:rgb(255,211,0);"/>
    <path d="M3.303,11.279C4.453,18.72 27.81,18.518 28.747,11.679C28.953,13.723 28.469,16.047 27.12,18.282C23.52,24.25 16,27.492 16,27.492C16,27.492 8.48,24.25 4.88,18.282C3.443,15.9 2.986,13.417 3.303,11.279Z" style="fill:rgb(206,2,73);"/>
    <path d="M28.747,11.679C27.81,18.518 18.727,24.241 16,24.286C13.039,24.335 4.453,18.72 3.303,11.279C3.772,8.108 5.939,5.698 9.127,5.506C12.222,5.32 14.432,7.043 15.422,9.198C15.51,9.441 15.741,9.603 16,9.603C16.259,9.603 16.49,9.441 16.579,9.198C17.568,7.043 19.778,5.32 22.873,5.506C26.194,5.706 28.407,8.313 28.747,11.679Z" style="fill:rgb(255,60,128);"/>
    <path d="M22.212,26.712C22.076,26.576 22,26.392 22,26.201L22,22L26.201,22C26.392,22 26.576,22.076 26.712,22.212C27.183,22.683 28.351,23.851 29.266,24.766C29.473,24.973 29.535,25.284 29.423,25.554C29.311,25.824 29.048,26 28.755,26C27.49,26 26,26 26,26L26,28.755C26,29.048 25.824,29.311 25.554,29.423C25.284,29.535 24.973,29.473 24.766,29.266C23.851,28.351 22.683,27.183 22.212,26.712Z" style="fill:rgb(255,211,0);"/>
    <path d="M27.707,26.293C28.097,26.683 28.097,27.317 27.707,27.707C27.317,28.097 26.683,28.097 26.293,27.707L15.84,17.254C15.449,16.864 15.449,16.23 15.84,15.84C16.23,15.449 16.864,15.449 17.254,15.84L27.707,26.293Z" style="fill:rgb(108,108,108);"/>
    <path d="M16.5,18C16.5,18.552 16.052,19 15.5,19C14.948,19 14.5,18.552 14.5,18C14.5,16.992 14.839,16.132 15.432,15.514C16.026,14.894 16.889,14.5 18,14.5C18.552,14.5 19,14.948 19,15.5C19,16.052 18.552,16.5 18,16.5C17.519,16.5 17.132,16.631 16.875,16.899C16.615,17.17 16.5,17.559 16.5,18Z" style="fill:rgb(206,2,73);"/>
</svg>
