<?xml version="1.0" encoding="UTF-8" standalone="no"?><!DOCTYPE svg PUBLIC "-//W3C//DTD SVG 1.1//EN" "http://www.w3.org/Graphics/SVG/1.1/DTD/svg11.dtd"><svg width="100%" height="100%" viewBox="0 0 32 32" version="1.1" xmlns="http://www.w3.org/2000/svg" xmlns:xlink="http://www.w3.org/1999/xlink" xml:space="preserve" xmlns:serif="http://www.serif.com/" style="fill-rule:evenodd;clip-rule:evenodd;stroke-linejoin:round;stroke-miterlimit:1.41421;"><rect id="heart_growing" x="0" y="0" width="32" height="32" style="fill:none;"/><g id="outline"><path d="M10.216,2.784l0.108,0.004l0.108,0.005l0.108,0.006l0.107,0.007l0.107,0.009l0.107,0.009l0.107,0.012l0.107,0.012l0.106,0.014l0.106,0.015l0.106,0.017l0.105,0.018l0.106,0.019l0.104,0.02l0.105,0.021l0.104,0.023l0.104,0.024l0.103,0.026l0.104,0.026l0.103,0.028l0.102,0.029l0.102,0.031l0.102,0.031l0.101,0.033l0.101,0.034l0.1,0.035l0.1,0.037l0.099,0.037l0.099,0.039l0.098,0.04l0.098,0.041l0.098,0.043l0.097,0.044l0.096,0.045l0.096,0.046l0.095,0.047l0.095,0.048l0.094,0.05l0.094,0.05l0.093,0.052l0.092,0.053l0.092,0.054l0.091,0.056l0.091,0.056l0.089,0.057l0.09,0.059l0.088,0.06l0.088,0.061l0.087,0.062l0.086,0.063l0.086,0.064l0.085,0.066l0.084,0.066l0.084,0.068l0.083,0.068l0.082,0.07l0.081,0.071l0.08,0.072l0.08,0.073l0.07,0.066l0.07,-0.066l0.08,-0.073l0.08,-0.072l0.081,-0.071l0.082,-0.07l0.083,-0.068l0.084,-0.068l0.084,-0.066l0.085,-0.066l0.086,-0.064l0.086,-0.063l0.087,-0.062l0.088,-0.061l0.088,-0.06l0.09,-0.059l0.089,-0.057l0.091,-0.056l0.091,-0.056l0.092,-0.054l0.092,-0.053l0.093,-0.052l0.094,-0.05l0.094,-0.05l0.095,-0.048l0.095,-0.047l0.096,-0.046l0.096,-0.045l0.097,-0.044l0.098,-0.042l0.098,-0.042l0.098,-0.04l0.099,-0.039l0.099,-0.037l0.1,-0.037l0.1,-0.035l0.101,-0.034l0.101,-0.033l0.102,-0.031l0.102,-0.031l0.102,-0.029l0.103,-0.028l0.103,-0.026l0.104,-0.026l0.104,-0.024l0.104,-0.023l0.105,-0.021l0.104,-0.02l0.106,-0.019l0.105,-0.018l0.106,-0.017l0.106,-0.015l0.106,-0.014l0.107,-0.012l0.107,-0.012l0.107,-0.009l0.107,-0.009l0.107,-0.007l0.108,-0.006l0.108,-0.005l0.108,-0.004l0.108,-0.002l0.108,0l0.108,0l0.108,0.002l0.108,0.004l0.108,0.005l0.108,0.006l0.107,0.007l0.107,0.009l0.107,0.009l0.107,0.012l0.107,0.012l0.106,0.014l0.106,0.015l0.106,0.017l0.105,0.018l0.106,0.019l0.104,0.02l0.105,0.021l0.104,0.023l0.104,0.024l0.104,0.026l0.103,0.026l0.103,0.028l0.102,0.029l0.102,0.031l0.102,0.031l0.101,0.033l0.101,0.034l0.1,0.035l0.1,0.037l0.099,0.037l0.099,0.039l0.098,0.04l0.099,0.042l0.097,0.042l0.097,0.044l0.096,0.044l0.096,0.047l0.095,0.047l0.095,0.048l0.094,0.05l0.094,0.05l0.093,0.052l0.092,0.053l0.092,0.054l0.091,0.055l0.091,0.057l0.09,0.058l0.089,0.058l0.088,0.06l0.088,0.061l0.087,0.062l0.087,0.063l0.085,0.064l0.085,0.066l0.084,0.066l0.084,0.068l0.083,0.068l0.082,0.07l0.081,0.071l0.08,0.072l0.08,0.073l0.078,0.074l0.078,0.075l0.076,0.075l0.079,0.08l0.075,0.078l0.074,0.078l0.073,0.08l0.072,0.08l0.071,0.082l0.07,0.081l0.068,0.083l0.068,0.084l0.066,0.084l0.065,0.085l0.065,0.085l0.063,0.087l0.062,0.087l0.061,0.088l0.06,0.088l0.059,0.09l0.057,0.09l0.056,0.09l0.056,0.091l0.054,0.092l0.053,0.092l0.052,0.093l0.05,0.094l0.05,0.094l0.048,0.095l0.048,0.095l0.046,0.096l0.044,0.096l0.044,0.097l0.042,0.097l0.042,0.099l0.04,0.098l0.039,0.099l0.037,0.099l0.037,0.1l0.035,0.1l0.034,0.101l0.033,0.101l0.031,0.102l0.031,0.102l0.029,0.102l0.028,0.103l0.026,0.104l0.026,0.103l0.024,0.104l0.023,0.104l0.021,0.105l0.02,0.105l0.019,0.104l0.018,0.106l0.017,0.106l0.015,0.106l0.014,0.106l0.012,0.107l0.012,0.107l0.009,0.106l0.009,0.108l0.007,0.107l0.006,0.108l0.005,0.108l0.003,0.108l0.003,0.108l0,0.108l0,0.108l-0.003,0.108l-0.003,0.109l-0.005,0.107l-0.006,0.108l-0.007,0.107l-0.009,0.108l-0.009,0.106l-0.012,0.107l-0.012,0.107l-0.014,0.106l-0.015,0.106l-0.017,0.106l-0.018,0.106l-0.019,0.104l-0.02,0.105l-0.021,0.105l-0.023,0.104l-0.024,0.104l-0.026,0.103l-0.026,0.104l-0.028,0.103l-0.029,0.102l-0.031,0.102l-0.031,0.102l-0.033,0.101l-0.034,0.101l-0.035,0.1l-0.037,0.1l-0.037,0.099l-0.039,0.099l-0.04,0.098l-0.042,0.099l-0.042,0.097l-0.044,0.097l-0.044,0.096l-0.046,0.096l-0.048,0.095l-0.048,0.095l-0.05,0.094l-0.05,0.094l-0.052,0.093l-0.053,0.092l-0.054,0.092l-0.056,0.091l-0.056,0.09l-0.057,0.09l-0.059,0.09l-0.06,0.088l-0.061,0.088l-0.062,0.087l-0.063,0.087l-0.065,0.085l-0.065,0.085l-0.066,0.084l-0.068,0.084l-0.068,0.083l-0.07,0.081l-0.071,0.082l-0.072,0.08l-0.073,0.08l-0.074,0.078l-0.075,0.078l-0.072,0.073l-12.169,12.169l-12.17,-12.169l-0.071,-0.073l-0.075,-0.078l-0.074,-0.078l-0.073,-0.08l-0.072,-0.08l-0.071,-0.082l-0.07,-0.081l-0.068,-0.083l-0.068,-0.084l-0.066,-0.084l-0.065,-0.085l-0.065,-0.085l-0.063,-0.087l-0.062,-0.087l-0.061,-0.088l-0.06,-0.088l-0.058,-0.089l-0.058,-0.091l-0.057,-0.09l-0.055,-0.091l-0.054,-0.092l-0.053,-0.092l-0.052,-0.093l-0.05,-0.094l-0.05,-0.094l-0.048,-0.095l-0.048,-0.095l-0.046,-0.096l-0.044,-0.096l-0.044,-0.097l-0.043,-0.098l-0.041,-0.098l-0.04,-0.098l-0.039,-0.099l-0.037,-0.099l-0.037,-0.1l-0.035,-0.1l-0.034,-0.101l-0.033,-0.101l-0.031,-0.102l-0.031,-0.102l-0.029,-0.102l-0.028,-0.103l-0.026,-0.104l-0.026,-0.103l-0.024,-0.104l-0.023,-0.104l-0.021,-0.104l-0.02,-0.106l-0.019,-0.105l-0.018,-0.105l-0.017,-0.106l-0.015,-0.106l-0.014,-0.106l-0.012,-0.107l-0.012,-0.107l-0.009,-0.106l-0.009,-0.108l-0.007,-0.107l-0.006,-0.108l-0.005,-0.107l-0.003,-0.109l-0.003,-0.108l0,-0.108l0,-0.108l0.003,-0.108l0.003,-0.108l0.005,-0.108l0.006,-0.108l0.007,-0.107l0.009,-0.108l0.009,-0.106l0.012,-0.107l0.012,-0.107l0.014,-0.106l0.015,-0.106l0.017,-0.106l0.018,-0.105l0.019,-0.105l0.02,-0.106l0.021,-0.104l0.023,-0.104l0.024,-0.104l0.026,-0.103l0.026,-0.104l0.028,-0.103l0.029,-0.102l0.031,-0.102l0.031,-0.102l0.033,-0.101l0.034,-0.101l0.035,-0.1l0.037,-0.1l0.037,-0.099l0.039,-0.099l0.04,-0.098l0.041,-0.098l0.043,-0.098l0.044,-0.097l0.044,-0.096l0.046,-0.096l0.048,-0.095l0.048,-0.095l0.05,-0.094l0.05,-0.094l0.052,-0.093l0.053,-0.092l0.054,-0.092l0.055,-0.091l0.057,-0.09l0.058,-0.091l0.058,-0.089l0.06,-0.088l0.061,-0.088l0.062,-0.087l0.063,-0.087l0.065,-0.085l0.065,-0.085l0.066,-0.084l0.068,-0.084l0.068,-0.083l0.07,-0.081l0.071,-0.082l0.072,-0.08l0.073,-0.08l0.074,-0.078l0.075,-0.078l0.075,-0.076l0.011,-0.011l0.069,-0.068l0.078,-0.075l0.078,-0.074l0.08,-0.073l0.08,-0.072l0.081,-0.071l0.082,-0.069l0.083,-0.069l0.084,-0.068l0.084,-0.066l0.085,-0.066l0.085,-0.064l0.087,-0.063l0.087,-0.062l0.088,-0.061l0.088,-0.06l0.089,-0.058l0.09,-0.058l0.091,-0.057l0.091,-0.055l0.092,-0.054l0.092,-0.053l0.093,-0.052l0.094,-0.05l0.094,-0.05l0.095,-0.048l0.095,-0.048l0.096,-0.046l0.096,-0.044l0.097,-0.044l0.097,-0.042l0.099,-0.042l0.098,-0.04l0.099,-0.039l0.099,-0.037l0.1,-0.037l0.1,-0.035l0.101,-0.034l0.101,-0.033l0.102,-0.031l0.102,-0.031l0.102,-0.029l0.103,-0.028l0.103,-0.026l0.104,-0.026l0.104,-0.024l0.104,-0.023l0.105,-0.021l0.104,-0.02l0.106,-0.019l0.105,-0.018l0.106,-0.017l0.106,-0.015l0.106,-0.014l0.107,-0.012l0.107,-0.012l0.107,-0.009l0.107,-0.009l0.107,-0.007l0.108,-0.006l0.108,-0.005l0.108,-0.004l0.108,-0.002l0.108,0l0.108,0l0.108,0.002Zm11.725,3.998l-0.058,0.001l-0.059,0.002l-0.058,0.003l-0.058,0.003l-0.058,0.004l-0.058,0.005l-0.058,0.005l-0.058,0.006l-0.058,0.007l-0.057,0.007l-0.057,0.009l-0.058,0.008l-0.057,0.01l-0.057,0.01l-0.056,0.011l-0.057,0.012l-0.056,0.012l-0.057,0.013l-0.056,0.014l-0.055,0.014l-0.056,0.016l-0.055,0.015l-0.056,0.017l-0.054,0.017l-0.055,0.018l-0.055,0.018l-0.054,0.019l-0.054,0.02l-0.054,0.02l-0.053,0.021l-0.054,0.022l-0.053,0.022l-0.052,0.023l-0.053,0.024l-0.052,0.024l-0.052,0.025l-0.052,0.026l-0.051,0.026l-0.051,0.026l-0.05,0.028l-0.051,0.028l-0.05,0.029l-0.049,0.029l-0.05,0.03l-0.049,0.03l-0.048,0.032l-0.048,0.031l-0.048,0.033l-0.048,0.032l-0.047,0.034l-0.047,0.034l-0.046,0.035l-0.046,0.035l-0.046,0.036l-0.045,0.037l-0.045,0.037l-0.044,0.038l-0.044,0.038l-0.043,0.039l-0.043,0.039l-0.043,0.04l-0.042,0.041l-0.046,0.046l-2.661,2.66l-2.661,-2.66l-0.046,-0.046l-0.042,-0.041l-0.043,-0.04l-0.043,-0.039l-0.043,-0.039l-0.044,-0.038l-0.044,-0.038l-0.045,-0.037l-0.045,-0.037l-0.046,-0.036l-0.046,-0.035l-0.046,-0.035l-0.047,-0.034l-0.047,-0.034l-0.048,-0.032l-0.048,-0.033l-0.048,-0.031l-0.048,-0.032l-0.049,-0.03l-0.05,-0.03l-0.049,-0.029l-0.05,-0.029l-0.051,-0.028l-0.05,-0.028l-0.051,-0.026l-0.051,-0.026l-0.052,-0.026l-0.052,-0.025l-0.052,-0.024l-0.053,-0.024l-0.052,-0.023l-0.053,-0.022l-0.054,-0.022l-0.053,-0.021l-0.054,-0.02l-0.054,-0.02l-0.054,-0.019l-0.055,-0.018l-0.055,-0.018l-0.054,-0.017l-0.056,-0.017l-0.055,-0.015l-0.056,-0.015l-0.055,-0.015l-0.057,-0.014l-0.056,-0.013l-0.056,-0.012l-0.057,-0.012l-0.056,-0.011l-0.057,-0.01l-0.057,-0.01l-0.058,-0.008l-0.057,-0.009l-0.057,-0.007l-0.058,-0.007l-0.058,-0.006l-0.058,-0.005l-0.058,-0.005l-0.058,-0.004l-0.058,-0.003l-0.058,-0.003l-0.059,-0.002l-0.058,-0.001l-0.059,0l-0.059,0l-0.058,0.001l-0.059,0.002l-0.058,0.003l-0.058,0.003l-0.058,0.004l-0.058,0.005l-0.058,0.005l-0.058,0.006l-0.058,0.007l-0.057,0.007l-0.057,0.009l-0.058,0.008l-0.057,0.01l-0.057,0.01l-0.056,0.011l-0.057,0.012l-0.056,0.012l-0.056,0.013l-0.056,0.014l-0.056,0.015l-0.056,0.015l-0.055,0.015l-0.055,0.017l-0.055,0.017l-0.055,0.018l-0.055,0.018l-0.054,0.019l-0.054,0.02l-0.054,0.02l-0.053,0.021l-0.054,0.022l-0.053,0.022l-0.052,0.023l-0.053,0.024l-0.052,0.024l-0.052,0.025l-0.051,0.025l-0.052,0.027l-0.051,0.026l-0.05,0.028l-0.051,0.028l-0.05,0.029l-0.049,0.029l-0.05,0.03l-0.049,0.03l-0.048,0.031l-0.049,0.032l-0.047,0.033l-0.048,0.033l-0.047,0.033l-0.047,0.034l-0.046,0.035l-0.046,0.035l-0.046,0.036l-0.045,0.037l-0.044,0.037l-0.045,0.038l-0.044,0.038l-0.043,0.039l-0.043,0.039l-0.043,0.04l-0.042,0.041l-0.044,0.043l-0.041,0.042l-0.041,0.042l-0.04,0.043l-0.039,0.043l-0.039,0.043l-0.038,0.044l-0.038,0.045l-0.037,0.044l-0.037,0.045l-0.036,0.046l-0.035,0.046l-0.035,0.046l-0.034,0.047l-0.034,0.047l-0.032,0.047l-0.033,0.049l-0.032,0.048l-0.031,0.048l-0.03,0.049l-0.03,0.05l-0.029,0.049l-0.029,0.05l-0.028,0.051l-0.028,0.05l-0.026,0.051l-0.027,0.052l-0.025,0.051l-0.025,0.052l-0.024,0.052l-0.024,0.053l-0.023,0.052l-0.022,0.053l-0.022,0.054l-0.021,0.053l-0.02,0.054l-0.02,0.054l-0.019,0.054l-0.019,0.055l-0.017,0.055l-0.017,0.054l-0.017,0.056l-0.015,0.055l-0.016,0.056l-0.014,0.055l-0.014,0.056l-0.013,0.057l-0.012,0.056l-0.012,0.057l-0.011,0.056l-0.01,0.057l-0.01,0.057l-0.008,0.058l-0.009,0.057l-0.007,0.058l-0.007,0.057l-0.006,0.058l-0.005,0.058l-0.005,0.058l-0.004,0.058l-0.003,0.058l-0.003,0.059l-0.002,0.058l-0.001,0.058l0,0.059l0,0.059l0.001,0.058l0.002,0.058l0.003,0.059l0.003,0.058l0.004,0.058l0.005,0.058l0.005,0.058l0.006,0.058l0.007,0.057l0.007,0.058l0.009,0.057l0.008,0.058l0.01,0.057l0.01,0.057l0.011,0.056l0.012,0.057l0.012,0.056l0.013,0.057l0.014,0.056l0.014,0.055l0.016,0.056l0.015,0.055l0.017,0.056l0.017,0.054l0.017,0.055l0.019,0.055l0.019,0.054l0.02,0.054l0.02,0.054l0.021,0.053l0.022,0.054l0.022,0.053l0.023,0.052l0.024,0.053l0.024,0.052l0.025,0.052l0.025,0.051l0.027,0.052l0.026,0.051l0.028,0.05l0.028,0.051l0.029,0.05l0.029,0.049l0.03,0.05l0.03,0.049l0.031,0.048l0.032,0.048l0.033,0.049l0.032,0.047l0.034,0.047l0.034,0.047l0.035,0.046l0.035,0.046l0.036,0.046l0.037,0.045l0.037,0.044l0.038,0.045l0.038,0.044l0.039,0.043l0.039,0.043l0.04,0.043l0.041,0.042l0.046,0.046l9.332,9.333l9.333,-9.333l0.045,-0.046l0.041,-0.042l0.04,-0.043l0.039,-0.043l0.039,-0.043l0.038,-0.044l0.038,-0.045l0.037,-0.044l0.037,-0.045l0.036,-0.046l0.035,-0.046l0.035,-0.046l0.034,-0.047l0.034,-0.047l0.032,-0.047l0.033,-0.049l0.031,-0.048l0.031,-0.048l0.031,-0.05l0.03,-0.049l0.029,-0.049l0.029,-0.05l0.028,-0.051l0.028,-0.05l0.026,-0.051l0.027,-0.052l0.025,-0.051l0.025,-0.052l0.024,-0.052l0.024,-0.053l0.023,-0.052l0.022,-0.053l0.022,-0.054l0.021,-0.053l0.02,-0.054l0.02,-0.054l0.019,-0.054l0.019,-0.055l0.017,-0.055l0.017,-0.054l0.017,-0.056l0.015,-0.055l0.016,-0.056l0.014,-0.055l0.014,-0.056l0.013,-0.057l0.012,-0.056l0.012,-0.056l0.011,-0.057l0.01,-0.057l0.01,-0.057l0.008,-0.058l0.009,-0.057l0.007,-0.058l0.007,-0.057l0.006,-0.058l0.005,-0.058l0.005,-0.058l0.004,-0.058l0.003,-0.058l0.003,-0.059l0.002,-0.058l0.001,-0.058l0,-0.059l0,-0.059l-0.001,-0.058l-0.002,-0.058l-0.003,-0.059l-0.003,-0.058l-0.004,-0.058l-0.005,-0.058l-0.005,-0.058l-0.006,-0.058l-0.007,-0.057l-0.007,-0.058l-0.009,-0.057l-0.008,-0.058l-0.01,-0.057l-0.01,-0.057l-0.011,-0.057l-0.012,-0.056l-0.012,-0.056l-0.013,-0.057l-0.014,-0.056l-0.014,-0.055l-0.016,-0.056l-0.015,-0.055l-0.017,-0.056l-0.017,-0.054l-0.017,-0.055l-0.019,-0.055l-0.019,-0.054l-0.02,-0.054l-0.02,-0.054l-0.021,-0.053l-0.022,-0.054l-0.022,-0.053l-0.023,-0.052l-0.024,-0.053l-0.024,-0.052l-0.025,-0.052l-0.025,-0.051l-0.027,-0.052l-0.026,-0.051l-0.028,-0.05l-0.028,-0.051l-0.029,-0.05l-0.029,-0.049l-0.03,-0.049l-0.031,-0.05l-0.031,-0.048l-0.031,-0.048l-0.033,-0.049l-0.032,-0.047l-0.034,-0.047l-0.034,-0.047l-0.035,-0.046l-0.035,-0.046l-0.036,-0.046l-0.037,-0.045l-0.037,-0.044l-0.038,-0.045l-0.038,-0.044l-0.039,-0.043l-0.039,-0.043l-0.04,-0.043l-0.041,-0.042l-0.043,-0.043l-0.042,-0.042l-0.042,-0.041l-0.043,-0.04l-0.043,-0.039l-0.043,-0.039l-0.044,-0.038l-0.044,-0.038l-0.045,-0.037l-0.045,-0.037l-0.046,-0.036l-0.046,-0.035l-0.046,-0.035l-0.047,-0.034l-0.047,-0.033l-0.048,-0.033l-0.047,-0.033l-0.049,-0.032l-0.048,-0.031l-0.049,-0.03l-0.05,-0.03l-0.049,-0.029l-0.05,-0.029l-0.051,-0.028l-0.05,-0.028l-0.051,-0.026l-0.052,-0.027l-0.051,-0.025l-0.052,-0.025l-0.052,-0.024l-0.053,-0.024l-0.052,-0.023l-0.053,-0.022l-0.054,-0.022l-0.053,-0.021l-0.054,-0.02l-0.054,-0.02l-0.054,-0.019l-0.055,-0.018l-0.055,-0.018l-0.055,-0.017l-0.055,-0.017l-0.055,-0.015l-0.056,-0.015l-0.056,-0.015l-0.056,-0.014l-0.056,-0.013l-0.056,-0.012l-0.057,-0.012l-0.056,-0.011l-0.057,-0.01l-0.057,-0.01l-0.058,-0.008l-0.057,-0.009l-0.057,-0.007l-0.058,-0.007l-0.058,-0.006l-0.058,-0.005l-0.058,-0.005l-0.058,-0.004l-0.058,-0.003l-0.058,-0.003l-0.059,-0.002l-0.058,-0.001l-0.059,0l-0.059,0Z"/></g><g id="emoji"><path d="M16,27c0,0 -6.194,-6.194 -10.751,-10.751c-1.26,-1.26 -1.967,-2.968 -1.967,-4.749c0,-1.781 0.707,-3.489 1.967,-4.749c0.001,-0.001 0.001,-0.001 0.002,-0.002c1.26,-1.26 2.968,-1.967 4.749,-1.967c1.781,0 3.489,0.707 4.749,1.967c0.732,0.732 1.251,1.251 1.251,1.251c0,0 0.519,-0.519 1.251,-1.251c1.26,-1.26 2.968,-1.967 4.749,-1.967c1.781,0 3.489,0.707 4.749,1.967c0.001,0.001 0.001,0.001 0.002,0.002c1.26,1.26 1.967,2.968 1.967,4.749c0,1.781 -0.707,3.489 -1.967,4.749c-4.557,4.557 -10.751,10.751 -10.751,10.751Z" style="fill:#f229a1;"/><path d="M16,24.247c0,0 -4.5,-4.499 -7.811,-7.81c-1.905,-1.906 -1.905,-4.996 0,-6.902c0.001,0 0.001,0 0.001,0c0.915,-0.916 2.157,-1.43 3.451,-1.43c1.294,0 2.535,0.514 3.45,1.43c0.532,0.532 0.909,0.908 0.909,0.908c0,0 0.377,-0.376 0.909,-0.908c0.915,-0.916 2.156,-1.43 3.45,-1.43c1.294,0 2.536,0.514 3.451,1.43c0,0 0,0 0.001,0c1.905,1.906 1.905,4.996 0,6.902c-3.311,3.311 -7.811,7.81 -7.811,7.81Z" style="fill:#ae0b6d;"/><path d="M16,19.884c0,0 -2.263,-2.263 -3.927,-3.927c-0.957,-0.957 -0.957,-2.509 0,-3.467c0.001,0 0.002,-0.001 0.003,-0.002c0.459,-0.46 1.083,-0.718 1.733,-0.718c0.65,0 1.274,0.258 1.733,0.718c0.268,0.268 0.458,0.458 0.458,0.458c0,0 0.19,-0.19 0.458,-0.458c0.459,-0.46 1.083,-0.718 1.733,-0.718c0.65,0 1.274,0.258 1.733,0.718c0.001,0.001 0.002,0.002 0.003,0.002c0.957,0.958 0.957,2.51 0,3.467c-1.664,1.664 -3.927,3.927 -3.927,3.927Z" style="fill:#670640;"/></g></svg>