<?xml version="1.0" encoding="UTF-8" standalone="no"?>
<!DOCTYPE svg PUBLIC "-//W3C//DTD SVG 1.1//EN" "http://www.w3.org/Graphics/SVG/1.1/DTD/svg11.dtd">
<svg width="100%" height="100%" viewBox="0 0 32 32" version="1.1" xmlns="http://www.w3.org/2000/svg" xmlns:xlink="http://www.w3.org/1999/xlink" xml:space="preserve" xmlns:serif="http://www.serif.com/" style="fill-rule:evenodd;clip-rule:evenodd;stroke-linecap:round;stroke-linejoin:round;stroke-miterlimit:1.5;">
    <rect id="heart_exclamation" x="0" y="0" width="32" height="32" style="fill:none;"/>
    <clipPath id="_clip1">
        <rect x="0" y="0" width="32" height="32"/>
    </clipPath>
    <g clip-path="url(#_clip1)">
        <path d="M16,22C18.208,22 20,23.792 20,26C20,28.208 18.208,30 16,30C13.792,30 12,28.208 12,26C12,23.792 13.792,22 16,22ZM16,20C16,20 9.849,17.347 6.903,12.466C3.985,7.628 6.012,2.278 10.378,2.015C12.909,1.863 14.718,3.272 15.527,5.035C15.599,5.234 15.788,5.366 16,5.366C16.212,5.366 16.401,5.234 16.474,5.035C17.282,3.272 19.091,1.863 21.622,2.015C25.988,2.278 28.015,7.628 25.097,12.466C22.151,17.347 16,20 16,20Z" style="fill:none;stroke:black;stroke-width:4px;"/>
        <path d="M19.948,25.355C19.982,25.565 20,25.78 20,26C20,28.208 18.208,30 16,30C13.792,30 12,28.208 12,26C12,25.78 12.018,25.565 12.052,25.355C12.361,27.137 19.639,27.137 19.948,25.355ZM5.613,6.737C6.554,12.824 25.661,12.659 26.427,7.064C26.596,8.736 26.199,10.638 25.097,12.466C22.151,17.347 16,20 16,20C16,20 9.849,17.347 6.903,12.466C5.728,10.517 5.355,8.486 5.613,6.737Z" style="fill:rgb(206,2,73);"/>
        <path d="M12.052,25.355C12.361,23.453 14.012,22 16,22C17.988,22 19.639,23.453 19.948,25.355C19.639,27.137 17.988,28.5 16,28.5C14.012,28.5 12.361,27.137 12.052,25.355ZM26.427,7.064C25.661,12.659 18.23,17.34 16,17.377C13.578,17.417 6.554,12.824 5.613,6.737C5.997,4.144 7.77,2.172 10.378,2.015C12.909,1.863 14.718,3.272 15.527,5.035C15.599,5.234 15.788,5.366 16,5.366C16.212,5.366 16.401,5.234 16.474,5.035C17.282,3.272 19.091,1.863 21.622,2.015C24.338,2.179 26.149,4.311 26.427,7.064Z" style="fill:rgb(255,60,128);"/>
    </g>
</svg>
