<?xml version="1.0" encoding="UTF-8" standalone="no"?>
<!DOCTYPE svg PUBLIC "-//W3C//DTD SVG 1.1//EN" "http://www.w3.org/Graphics/SVG/1.1/DTD/svg11.dtd">
<svg width="100%" height="100%" viewBox="0 0 32 32" version="1.1" xmlns="http://www.w3.org/2000/svg" xmlns:xlink="http://www.w3.org/1999/xlink" xml:space="preserve" xmlns:serif="http://www.serif.com/" style="fill-rule:evenodd;clip-rule:evenodd;stroke-linejoin:round;stroke-miterlimit:2;">
    <rect id="heart_decoration" x="0" y="0" width="32" height="32" style="fill:none;"/>
    <clipPath id="_clip1">
        <rect x="0" y="0" width="32" height="32"/>
    </clipPath>
    <g clip-path="url(#_clip1)">
        <path d="M32,8C32,3.582 28.418,0 24,0L8,0C3.582,0 0,3.582 0,8L0,24C0,28.418 3.582,32 8,32L24,32C28.418,32 32,28.418 32,24L32,8Z"/>
        <path d="M30,8C30,6.409 29.368,4.883 28.243,3.757C27.117,2.632 25.591,2 24,2L8,2C6.409,2 4.883,2.632 3.757,3.757C2.632,4.883 2,6.409 2,8L2,24C2,25.591 2.632,27.117 3.757,28.243C4.883,29.368 6.409,30 8,30L24,30C25.591,30 27.117,29.368 28.243,28.243C29.368,27.117 30,25.591 30,24L30,8Z" style="fill:rgb(194,47,255);"/>
        <path d="M15.324,25.349C15.752,25.55 16.248,25.551 16.677,25.349C18.431,24.474 23.165,21.827 25.689,17.644C28.798,12.491 26.639,6.792 21.989,6.512C19.292,6.35 17.366,7.851 16.505,9.729C16.427,9.941 16.226,10.082 16,10.082C15.775,10.082 15.573,9.94 15.496,9.729C14.634,7.851 12.708,6.35 10.011,6.512C5.361,6.792 3.202,12.491 6.311,17.644C8.835,21.827 13.569,24.474 15.324,25.349Z" style="fill:white;"/>
    </g>
</svg>
