<?xml version="1.0" encoding="UTF-8" standalone="no"?>
<!DOCTYPE svg PUBLIC "-//W3C//DTD SVG 1.1//EN" "http://www.w3.org/Graphics/SVG/1.1/DTD/svg11.dtd">
<svg width="100%" height="100%" viewBox="0 0 32 32" version="1.1" xmlns="http://www.w3.org/2000/svg" xmlns:xlink="http://www.w3.org/1999/xlink" xml:space="preserve" xmlns:serif="http://www.serif.com/" style="fill-rule:evenodd;clip-rule:evenodd;stroke-linejoin:round;stroke-miterlimit:1.5;">
    <rect id="light_blue_heart" x="0" y="0" width="32" height="32" style="fill:none;"/>
    <path d="M16,28.5C16,28.5 24.209,24.96 28.139,18.446C32.034,11.99 29.329,4.851 23.503,4.5C20.124,4.297 17.711,6.178 16.632,8.53C16.535,8.795 16.283,8.972 16,8.972C15.718,8.972 15.465,8.795 15.369,8.53C14.289,6.178 11.876,4.297 8.497,4.5C2.671,4.851 -0.034,11.99 3.861,18.446C7.791,24.96 16,28.5 16,28.5Z" style="fill:none;stroke:black;stroke-width:4px;"/>
    <path d="M2.14,10.801C3.395,18.924 28.892,18.703 29.915,11.238C30.14,13.469 29.611,16.006 28.139,18.446C24.209,24.96 16,28.5 16,28.5C16,28.5 7.791,24.96 3.861,18.446C2.293,15.846 1.794,13.135 2.14,10.801Z" style="fill:rgb(0,169,232);"/>
    <path d="M29.915,11.238C28.892,18.703 18.976,24.951 16,25C12.768,25.053 3.395,18.924 2.14,10.801C2.651,7.341 5.018,4.709 8.497,4.5C11.876,4.297 14.289,6.178 15.369,8.53C15.465,8.795 15.718,8.972 16,8.972C16.283,8.972 16.535,8.795 16.632,8.53C17.711,6.178 20.124,4.297 23.503,4.5C27.127,4.718 29.544,7.564 29.915,11.238Z" style="fill:rgb(78,207,255);"/>
</svg>
