<?xml version="1.0" encoding="UTF-8" standalone="no"?>
<!DOCTYPE svg PUBLIC "-//W3C//DTD SVG 1.1//EN" "http://www.w3.org/Graphics/SVG/1.1/DTD/svg11.dtd">
<svg width="100%" height="100%" viewBox="0 0 32 32" version="1.1" xmlns="http://www.w3.org/2000/svg" xmlns:xlink="http://www.w3.org/1999/xlink" xml:space="preserve" xmlns:serif="http://www.serif.com/" style="fill-rule:evenodd;clip-rule:evenodd;stroke-linejoin:round;stroke-miterlimit:1.5;">
    <rect id="orbiting_hearts" x="0" y="0" width="32" height="32" style="fill:none;"/>
    <clipPath id="_clip1">
        <rect x="0" y="0" width="32" height="32"/>
    </clipPath>
    <g clip-path="url(#_clip1)">
        <path d="M11.302,30C11.302,30 5.834,27.642 3.216,23.303C0.622,19.003 2.423,14.247 6.304,14.014C8.554,13.878 10.162,15.131 10.881,16.698C10.946,16.875 11.114,16.993 11.302,16.993C11.49,16.993 11.658,16.875 11.723,16.698C12.441,15.131 14.049,13.878 16.299,14.014C20.18,14.247 21.981,19.003 19.387,23.303C16.769,27.642 11.302,30 11.302,30ZM23.022,15C23.022,15 18.92,13.231 16.956,9.976C15.01,6.75 16.362,3.183 19.273,3.008C20.961,2.906 22.167,3.846 22.707,5.021C22.755,5.154 22.881,5.242 23.022,5.242C23.163,5.242 23.29,5.154 23.338,5.021C23.877,3.846 25.083,2.906 26.771,3.008C29.682,3.183 31.034,6.75 29.088,9.976C27.124,13.231 23.022,15 23.022,15Z" style="fill:none;stroke:black;stroke-width:4px;"/>
        <ellipse cx="16" cy="15.5" rx="13" ry="7.5" style="fill:none;stroke:black;stroke-width:6px;stroke-linecap:round;"/>
        <ellipse cx="16" cy="15.5" rx="13" ry="7.5"/>
        <path d="M5.238,12.676C4.865,13.083 4.232,13.11 3.826,12.737C3.419,12.364 3.391,11.731 3.764,11.324C6.089,8.789 10.687,7 16,7C18.268,7 20.406,7.322 22.288,7.888C22.817,8.048 23.117,8.606 22.958,9.134C22.798,9.663 22.24,9.963 21.712,9.804C20.003,9.289 18.06,9 16,9C11.344,9 7.276,10.455 5.238,12.676ZM27.978,15.114C27.915,14.565 28.31,14.069 28.858,14.006C29.406,13.944 29.902,14.338 29.965,14.886C29.988,15.089 30,15.294 30,15.5C30,17.439 28.957,19.26 27.109,20.714C24.601,22.687 20.562,24 16,24C14.541,24 13.135,23.867 11.817,23.621C11.274,23.519 10.916,22.997 11.017,22.454C11.118,21.912 11.641,21.553 12.183,21.655C13.386,21.879 14.669,22 16,22C20.048,22 23.647,20.893 25.872,19.142C27.179,18.114 28,16.872 28,15.5C28,15.37 27.993,15.241 27.978,15.114Z" style="fill:rgb(254,174,209);"/>
        <path d="M20.57,18.502C20.72,19.988 20.368,21.678 19.387,23.303C16.769,27.642 11.302,30 11.302,30C11.302,30 5.834,27.642 3.216,23.303C2.171,21.571 1.839,19.765 2.069,18.211C2.906,23.621 19.889,23.475 20.57,18.502ZM29.975,6.374C30.088,7.489 29.823,8.757 29.088,9.976C27.124,13.231 23.022,15 23.022,15C23.022,15 18.92,13.231 16.956,9.976C16.173,8.677 15.924,7.322 16.096,6.156C16.724,10.215 29.464,10.105 29.975,6.374Z" style="fill:rgb(206,2,73);"/>
        <path d="M2.069,18.211C2.41,15.906 3.986,14.153 6.304,14.014C8.554,13.878 10.162,15.131 10.881,16.698C10.946,16.875 11.114,16.993 11.302,16.993C11.49,16.993 11.658,16.875 11.723,16.698C12.441,15.131 14.049,13.878 16.299,14.014C18.713,14.159 20.323,16.055 20.57,18.502C19.889,23.475 13.284,27.636 11.302,27.669C9.149,27.704 2.906,23.621 2.069,18.211ZM16.096,6.156C16.352,4.427 17.534,3.112 19.273,3.008C20.961,2.906 22.167,3.846 22.707,5.021C22.755,5.154 22.881,5.242 23.022,5.242C23.163,5.242 23.29,5.154 23.338,5.021C23.877,3.846 25.083,2.906 26.771,3.008C28.582,3.117 29.79,4.538 29.975,6.374C29.464,10.105 24.509,13.227 23.022,13.251C21.407,13.278 16.724,10.215 16.096,6.156Z" style="fill:rgb(255,60,128);"/>
    </g>
</svg>
