<?xml version="1.0" encoding="UTF-8" standalone="no"?>
<!DOCTYPE svg PUBLIC "-//W3C//DTD SVG 1.1//EN" "http://www.w3.org/Graphics/SVG/1.1/DTD/svg11.dtd">
<svg width="100%" height="100%" viewBox="0 0 32 32" version="1.1" xmlns="http://www.w3.org/2000/svg" xmlns:xlink="http://www.w3.org/1999/xlink" xml:space="preserve" xmlns:serif="http://www.serif.com/" style="fill-rule:evenodd;clip-rule:evenodd;stroke-linejoin:round;stroke-miterlimit:1.5;">
    <rect id="ribbon_heart" x="0" y="0" width="32" height="32" style="fill:none;"/>
    <g id="Layer1">
    </g>
    <g id="outline">
        <path d="M8.593,23.813L7.5,26L6.249,23.5L3.5,24L5.229,20.541C4.501,20.719 3.726,20.576 3.107,20.139C2.413,19.65 2,18.855 2,18.006L2,18L2,13.784C2,13.571 2.026,13.363 2.077,13.162C2.005,12.346 2.028,11.554 2.14,10.801C2.651,7.341 5.018,4.709 8.497,4.5C11.876,4.297 14.289,6.178 15.369,8.53C15.465,8.795 15.718,8.972 16,8.972C16.283,8.972 16.535,8.795 16.632,8.53C17.711,6.178 20.124,4.297 23.503,4.5C27.127,4.718 29.544,7.564 29.915,11.238C30.14,13.469 29.611,16.006 28.139,18.446C24.209,24.96 16,28.5 16,28.5C16,28.5 12.242,26.879 8.593,23.813Z" style="fill:none;stroke:black;stroke-width:4px;"/>
    </g>
    <path d="M2.183,14C1.999,12.89 1.99,11.81 2.14,10.801C2.336,12.069 3.123,13.134 4.315,14C3.559,14.55 2.857,14.439 2.183,14ZM4.74,14.289C9.961,17.627 21.547,17.673 27,14.709L28.397,18C28.314,18.149 28.228,18.298 28.139,18.446C24.209,24.96 16,28.5 16,28.5C16,28.5 7.791,24.96 3.861,18.446C3.772,18.298 3.686,18.149 3.603,18L4.74,14.289ZM28.108,14C29.118,13.231 29.768,12.309 29.915,11.238C30.004,12.119 29.975,13.048 29.817,14C29.247,14.509 28.677,14.546 28.108,14Z" style="fill:rgb(206,2,73);"/>
    <path d="M3.069,14C2.632,12.978 2.311,11.908 2.14,10.801C2.651,7.341 5.018,4.709 8.497,4.5C11.876,4.297 14.289,6.178 15.369,8.53C15.465,8.795 15.718,8.972 16,8.972C16.283,8.972 16.535,8.795 16.632,8.53C17.711,6.178 20.124,4.297 23.503,4.5C27.127,4.718 29.544,7.564 29.915,11.238C29.785,12.181 29.514,13.105 29.133,14L27,17.52C23.545,21.906 18.079,24.966 16,25C13.662,25.038 8.108,21.84 4.74,16.991L3.069,14Z" style="fill:rgb(255,60,128);"/>
    <path d="M3.603,18C2.864,16.667 2.401,15.312 2.183,14L3.069,14C4.615,15.194 5.486,16.529 5.49,18L3.603,18ZM28.397,18L26.61,18C26.06,16.343 26.732,14.94 29.133,14L29.817,14C29.599,15.312 29.136,16.667 28.397,18Z" style="fill:rgb(214,144,0);"/>
    <path d="M3.069,14L29.133,14C28.527,15.421 27.643,16.768 26.61,18L5.49,18C4.523,16.78 3.683,15.437 3.069,14Z" style="fill:rgb(255,177,19);"/>
    <g id="bow">
        <path d="M16.307,21.615L17.5,24L14.751,23.5L13.5,26L11,21C11.592,21 12.165,19.825 12.652,19.504L15.176,20.406C15.544,20.537 15.926,21.606 16.307,21.615ZM10,21L7.5,26L6.249,23.5L3.5,24L4.693,21.615C5.074,21.606 5.456,20.537 5.824,20.406L8.348,19.504C8.835,19.825 9.408,21 10,21Z" style="fill:rgb(255,172,24);"/>
        <path d="M4.693,21.615L7.5,16L13.5,16L16.307,21.615C15.926,21.606 15.544,21.537 15.176,21.406L12.652,20.504C12.165,20.825 11.592,21 11,21L10.5,20L10,21C9.408,21 8.835,20.825 8.348,20.504L5.824,21.406C5.456,21.537 5.074,21.606 4.693,21.615Z" style="fill:rgb(203,117,0);"/>
        <path d="M2,18L2,13.784C2,12.845 2.512,11.982 3.336,11.532C4.16,11.082 5.164,11.118 5.953,11.626L9.77,14.079C9.913,14.171 10,14.33 10,14.5L10,17C10,17.091 9.976,17.176 9.933,17.25C9.976,17.324 10,17.41 10,17.5L10,18.5C10,18.711 9.867,18.9 9.668,18.971L5.488,20.464C4.689,20.749 3.8,20.628 3.107,20.139C2.413,19.65 2,18.855 2,18.006L2,18ZM11.067,17.25C11.024,17.176 11,17.091 11,17L11,14.5C11,14.33 11.087,14.171 11.23,14.079L15.047,11.626C15.836,11.118 16.84,11.082 17.664,11.532C18.488,11.982 19,12.845 19,13.784L19,18L19,18.006C19,18.855 18.587,19.65 17.893,20.139C17.2,20.628 16.311,20.749 15.512,20.464L11.332,18.971C11.133,18.9 11,18.711 11,18.5L11,17.5C11,17.41 11.024,17.324 11.067,17.25ZM17.317,19.322C17.628,19.103 15.849,19.522 15.849,19.522C16.342,19.698 16.889,19.624 17.317,19.322Z" style="fill:rgb(255,214,79);"/>
        <path d="M9,17.852L5.151,16.478C4.658,16.302 4.111,16.376 3.683,16.678C3.255,16.98 3,17.47 3,17.994L3,18.006C3,18.53 3.255,19.02 3.683,19.322C4.111,19.624 4.658,19.698 5.151,19.522L9,18.148L9,17.852ZM12,17.852L12,18.148L15.849,19.522C16.342,19.698 16.889,19.624 17.317,19.322C17.745,19.02 18,18.53 18,18.006L18,17.994C18,17.47 17.745,16.98 17.317,16.678C16.889,16.376 16.342,16.302 15.849,16.478L12,17.852Z" style="fill:rgb(174,100,0);"/>
        <path d="M13,14C13,13.47 12.789,12.961 12.414,12.586C12.039,12.211 11.53,12 11,12L10,12C9.47,12 8.961,12.211 8.586,12.586C8.211,12.961 8,13.47 8,14L8,18C8,18.53 8.211,19.039 8.586,19.414C8.961,19.789 9.47,20 10,20L11,20C11.53,20 12.039,19.789 12.414,19.414C12.789,19.039 13,18.53 13,18L13,14Z" style="fill:rgb(255,170,19);"/>
    </g>
</svg>
