<?xml version="1.0" encoding="UTF-8" standalone="no"?>
<!DOCTYPE svg PUBLIC "-//W3C//DTD SVG 1.1//EN" "http://www.w3.org/Graphics/SVG/1.1/DTD/svg11.dtd">
<svg width="100%" height="100%" viewBox="0 0 32 32" version="1.1" xmlns="http://www.w3.org/2000/svg" xmlns:xlink="http://www.w3.org/1999/xlink" xml:space="preserve" xmlns:serif="http://www.serif.com/" style="fill-rule:evenodd;clip-rule:evenodd;stroke-linecap:round;stroke-linejoin:round;stroke-miterlimit:1.5;">
    <rect id="sparkling_heart" x="0" y="0" width="32" height="32" style="fill:none;"/>
    <clipPath id="_clip1">
        <rect x="0" y="0" width="32" height="32"/>
    </clipPath>
    <g clip-path="url(#_clip1)">
        <path d="M7.746,4.585C7.99,4.544 8.241,4.515 8.497,4.5C11.876,4.297 14.289,6.178 15.369,8.53C15.465,8.795 15.718,8.972 16,8.972C16.283,8.972 16.535,8.795 16.632,8.53C17.711,6.178 20.124,4.297 23.503,4.5C28.294,4.788 30.975,9.669 29.609,14.984L30.177,15.139C30.339,15.183 30.452,15.331 30.452,15.5C30.452,15.669 30.339,15.817 30.177,15.861L29.26,16.111C28.977,16.891 28.605,17.673 28.139,18.446C24.209,24.96 16,28.5 16,28.5C16,28.5 14.045,27.657 11.586,26.036L10.274,26.328C9.802,26.433 9.433,26.802 9.328,27.274L8.865,29.357C8.827,29.528 8.675,29.65 8.5,29.65C8.325,29.65 8.173,29.528 8.135,29.357L7.672,27.274C7.567,26.802 7.198,26.433 6.726,26.328L4.643,25.865C4.472,25.827 4.35,25.675 4.35,25.5C4.35,25.325 4.472,25.173 4.643,25.135L6.726,24.672C7.198,24.567 7.567,24.198 7.672,23.726L7.805,23.125C6.34,21.797 4.94,20.234 3.861,18.446C1.443,14.438 1.569,10.165 3.407,7.419L2.298,7.11C2.136,7.065 2.024,6.918 2.024,6.75C2.024,6.582 2.136,6.435 2.298,6.39L4.821,5.689C5.242,5.572 5.572,5.242 5.689,4.821L6.39,2.298C6.435,2.136 6.582,2.024 6.75,2.024C6.918,2.024 7.065,2.136 7.11,2.298L7.746,4.585Z" style="fill:none;stroke:black;stroke-width:4px;"/>
        <path d="M2.14,10.801C3.395,18.924 28.892,18.703 29.915,11.238C30.14,13.469 29.611,16.006 28.139,18.446C24.209,24.96 16,28.5 16,28.5C16,28.5 7.791,24.96 3.861,18.446C2.293,15.846 1.794,13.135 2.14,10.801Z" style="fill:rgb(206,2,73);"/>
        <path d="M29.915,11.238C28.892,18.703 18.976,24.951 16,25C12.768,25.053 3.395,18.924 2.14,10.801C2.651,7.341 5.018,4.709 8.497,4.5C11.876,4.297 14.289,6.178 15.369,8.53C15.465,8.795 15.718,8.972 16,8.972C16.283,8.972 16.535,8.795 16.632,8.53C17.711,6.178 20.124,4.297 23.503,4.5C27.127,4.718 29.544,7.564 29.915,11.238Z" style="fill:rgb(255,60,128);"/>
        <path d="M8.865,21.643C8.827,21.472 8.675,21.35 8.5,21.35C8.325,21.35 8.173,21.472 8.135,21.643C7.977,22.355 7.799,23.154 7.672,23.726C7.567,24.198 7.198,24.567 6.726,24.672C6.154,24.799 5.355,24.977 4.643,25.135C4.472,25.173 4.35,25.325 4.35,25.5C4.35,25.675 4.472,25.827 4.643,25.865C5.355,26.023 6.154,26.201 6.726,26.328C7.198,26.433 7.567,26.802 7.672,27.274C7.799,27.846 7.977,28.645 8.135,29.357C8.173,29.528 8.325,29.65 8.5,29.65C8.675,29.65 8.827,29.528 8.865,29.357C9.023,28.645 9.201,27.846 9.328,27.274C9.433,26.802 9.802,26.433 10.274,26.328C10.846,26.201 11.645,26.023 12.357,25.865C12.528,25.827 12.65,25.675 12.65,25.5C12.65,25.325 12.528,25.173 12.357,25.135C11.645,24.977 10.846,24.799 10.274,24.672C9.802,24.567 9.433,24.198 9.328,23.726C9.201,23.154 9.023,22.355 8.865,21.643Z" style="fill:rgb(255,187,68);"/>
        <path d="M24.861,9.823C24.817,9.661 24.669,9.548 24.5,9.548C24.331,9.548 24.183,9.661 24.139,9.823C23.839,10.922 23.425,12.442 23.187,13.313C23.071,13.739 22.739,14.071 22.313,14.187C21.442,14.425 19.922,14.839 18.823,15.139C18.661,15.183 18.548,15.331 18.548,15.5C18.548,15.669 18.661,15.817 18.823,15.861C19.922,16.161 21.442,16.575 22.313,16.813C22.739,16.929 23.071,17.261 23.187,17.687C23.425,18.558 23.839,20.078 24.139,21.177C24.183,21.339 24.331,21.452 24.5,21.452C24.669,21.452 24.817,21.339 24.861,21.177C25.161,20.078 25.575,18.558 25.813,17.687C25.929,17.261 26.261,16.929 26.687,16.813C27.558,16.575 29.078,16.161 30.177,15.861C30.339,15.817 30.452,15.669 30.452,15.5C30.452,15.331 30.339,15.183 30.177,15.139C29.078,14.839 27.558,14.425 26.687,14.187C26.261,14.071 25.929,13.739 25.813,13.313C25.575,12.442 25.161,10.922 24.861,9.823Z" style="fill:rgb(255,233,98);"/>
        <path d="M7.11,2.298C7.065,2.136 6.918,2.024 6.75,2.024C6.582,2.024 6.435,2.136 6.39,2.298C6.161,3.122 5.874,4.155 5.689,4.821C5.572,5.242 5.242,5.572 4.821,5.689C4.155,5.874 3.122,6.161 2.298,6.39C2.136,6.435 2.024,6.582 2.024,6.75C2.024,6.918 2.136,7.065 2.298,7.11C3.122,7.339 4.155,7.626 4.821,7.811C5.242,7.928 5.572,8.258 5.689,8.679C5.874,9.345 6.161,10.378 6.39,11.202C6.435,11.364 6.582,11.476 6.75,11.476C6.918,11.476 7.065,11.364 7.11,11.202C7.339,10.378 7.626,9.345 7.811,8.679C7.928,8.258 8.258,7.928 8.679,7.811C9.345,7.626 10.378,7.339 11.202,7.11C11.364,7.065 11.476,6.918 11.476,6.75C11.476,6.582 11.364,6.435 11.202,6.39C10.378,6.161 9.345,5.874 8.679,5.689C8.258,5.572 7.928,5.242 7.811,4.821C7.626,4.155 7.339,3.122 7.11,2.298Z" style="fill:rgb(255,219,76);"/>
    </g>
</svg>
