<?xml version="1.0" encoding="UTF-8" standalone="no"?><!DOCTYPE svg PUBLIC "-//W3C//DTD SVG 1.1//EN" "http://www.w3.org/Graphics/SVG/1.1/DTD/svg11.dtd"><svg width="100%" height="100%" viewBox="0 0 32 32" version="1.1" xmlns="http://www.w3.org/2000/svg" xmlns:xlink="http://www.w3.org/1999/xlink" xml:space="preserve" xmlns:serif="http://www.serif.com/" style="fill-rule:evenodd;clip-rule:evenodd;stroke-linecap:round;stroke-linejoin:round;stroke-miterlimit:1.5;"><rect id="two_hearts" x="0" y="0" width="32" height="32" style="fill:none;"/><g id="outline"><path d="M24,13.5c0,0 -2.931,-2.931 -5,-5c-1.105,-1.105 -1.105,-2.895 0,-4c0,0 0,0 0,0c0.531,-0.531 1.25,-0.829 2,-0.829c0.75,0 1.469,0.298 2,0.829c0.551,0.551 1,1 1,1c0,0 0.449,-0.449 1,-1c0.531,-0.531 1.25,-0.829 2,-0.829c0.75,0 1.469,0.298 2,0.829c0,0 0,0 0,0c1.105,1.105 1.105,2.895 0,4c-2.069,2.069 -5,5 -5,5Z" style="fill:none;stroke:#000;stroke-width:4px;"/><path d="M12,29c0,0 -4.959,-4.959 -8.501,-8.501c-1.933,-1.933 -1.933,-5.065 0,-6.998c0.001,-0.001 0.001,-0.001 0.002,-0.002c1.933,-1.933 5.065,-1.933 6.998,0c0.841,0.841 1.501,1.501 1.501,1.501c0,0 0.66,-0.66 1.501,-1.501c1.933,-1.933 5.065,-1.933 6.998,0c0.001,0.001 0.001,0.001 0.002,0.002c1.933,1.933 1.933,5.065 0,6.998c-3.542,3.542 -8.501,8.501 -8.501,8.501Z" style="fill:none;stroke:#000;stroke-width:4px;"/></g><g id="emoji"><path d="M24,13.225c0,0 -2.767,-2.768 -4.72,-4.72c-1.043,-1.043 -1.043,-2.733 0,-3.776c0,0 0,0 0,0c0.501,-0.501 1.18,-0.782 1.888,-0.782c0.708,0 1.387,0.281 1.888,0.782c0.52,0.52 0.944,0.944 0.944,0.944c0,0 0.424,-0.424 0.944,-0.944c0.501,-0.501 1.18,-0.782 1.888,-0.782c0.708,0 1.387,0.281 1.888,0.782c0,0 0,0 0,0c1.043,1.043 1.043,2.733 0,3.776c-1.953,1.952 -4.72,4.72 -4.72,4.72Z" style="fill:#ff4586;"/><path d="M26.898,3.947l0.066,0.003l0.066,0.004l0.066,0.006l0.065,0.007l0.065,0.009l0.065,0.01l0.064,0.012l0.064,0.014l0.064,0.015l0.063,0.017l0.062,0.018l0.063,0.02l0.061,0.021l0.061,0.023l0.061,0.024l0.059,0.025l0.06,0.028l0.058,0.028l0.058,0.03l0.057,0.032l0.057,0.032l0.055,0.035l0.055,0.035l0.054,0.037l0.053,0.038l0.053,0.04l0.051,0.041l0.05,0.043l0.05,0.043l0.048,0.045l0.048,0.047l0.048,0.049l0.047,0.051l0.045,0.051l0.044,0.052l0.042,0.053l0.04,0.053l0.039,0.055l0.037,0.055l0.036,0.056l0.035,0.056l0.032,0.058l0.032,0.057l0.03,0.059l0.028,0.059l0.026,0.059l0.026,0.06l0.023,0.061l0.023,0.061l0.02,0.061l0.019,0.062l0.018,0.062l0.016,0.062l0.014,0.063l0.013,0.063l0.012,0.063l0.01,0.064l0.008,0.063l0.007,0.064l0.005,0.064l0.004,0.064l0.002,0.064l0.001,0.064l-0.001,0.064l-0.002,0.064l-0.004,0.064l-0.005,0.064l-0.007,0.063l-0.008,0.064l-0.01,0.063l-0.012,0.064l-0.013,0.063l-0.014,0.062l-0.016,0.063l-0.018,0.062l-0.019,0.062l-0.02,0.061l-0.023,0.061l-0.023,0.06l-0.026,0.06l-0.026,0.06l-0.028,0.059l-0.03,0.058l-0.032,0.058l-0.032,0.057l-0.035,0.057l-0.036,0.056l-0.037,0.055l-0.039,0.054l-0.04,0.054l-0.042,0.053l-0.044,0.052l-0.045,0.051l-0.047,0.05l-0.048,0.05l-4.72,4.72l-4.72,-4.72l-0.048,-0.05l-0.047,-0.05l-0.045,-0.051l-0.044,-0.052l-0.042,-0.053l-0.04,-0.054l-0.039,-0.054l-0.037,-0.055l-0.036,-0.056l-0.035,-0.057l-0.032,-0.057l-0.032,-0.058l-0.03,-0.058l-0.028,-0.059l-0.026,-0.06l-0.026,-0.06l-0.023,-0.06l-0.023,-0.061l-0.02,-0.061l-0.019,-0.062l-0.018,-0.062l-0.016,-0.063l-0.014,-0.062l-0.013,-0.063l-0.012,-0.064l-0.01,-0.063l-0.008,-0.064l-0.007,-0.063l-0.005,-0.064l-0.004,-0.064l-0.002,-0.064l-0.001,-0.064l0.001,-0.064l0.002,-0.064l0.004,-0.064l0.005,-0.064l0.007,-0.064l0.008,-0.063l0.01,-0.064l0.012,-0.063l0.013,-0.063l0.014,-0.063l0.016,-0.062l0.018,-0.062l0.019,-0.062l0.02,-0.061l0.023,-0.061l0.023,-0.061l0.026,-0.06l0.026,-0.059l0.028,-0.059l0.03,-0.059l0.032,-0.057l0.032,-0.058l0.035,-0.056l0.036,-0.056l0.037,-0.055l0.039,-0.055l0.04,-0.053l0.042,-0.053l0.044,-0.052l0.045,-0.051l0.047,-0.051l0.048,-0.049l0,0l0.048,-0.047l0.048,-0.045l0.05,-0.043l0.05,-0.043l0.051,-0.041l0.053,-0.04l0.053,-0.038l0.054,-0.037l0.055,-0.035l0.055,-0.035l0.057,-0.032l0.057,-0.032l0.058,-0.03l0.058,-0.028l0.06,-0.028l0.059,-0.025l0.061,-0.024l0.061,-0.023l0.061,-0.021l0.063,-0.02l0.062,-0.018l0.063,-0.017l0.064,-0.015l0.064,-0.014l0.064,-0.012l0.065,-0.01l0.065,-0.009l0.065,-0.007l0.066,-0.006l0.066,-0.004l0.066,-0.003l0.066,0l0.066,0l0.066,0.003l0.066,0.004l0.066,0.006l0.065,0.007l0.065,0.009l0.065,0.01l0.064,0.012l0.064,0.014l0.064,0.015l0.063,0.017l0.062,0.018l0.063,0.02l0.061,0.021l0.061,0.023l0.061,0.024l0.059,0.025l0.06,0.028l0.058,0.028l0.058,0.03l0.057,0.032l0.057,0.032l0.055,0.035l0.055,0.035l0.054,0.037l0.053,0.038l0.053,0.04l0.051,0.041l0.05,0.043l0.05,0.043l0.048,0.045l0.048,0.047l0.944,0.944l0.944,-0.944l0.048,-0.047l0.048,-0.045l0.05,-0.043l0.05,-0.043l0.051,-0.041l0.053,-0.04l0.053,-0.038l0.054,-0.037l0.055,-0.035l0.055,-0.035l0.057,-0.032l0.057,-0.032l0.058,-0.03l0.058,-0.028l0.06,-0.028l0.059,-0.025l0.061,-0.024l0.061,-0.023l0.061,-0.021l0.063,-0.02l0.062,-0.018l0.063,-0.017l0.064,-0.015l0.064,-0.014l0.064,-0.012l0.065,-0.01l0.065,-0.009l0.065,-0.007l0.066,-0.006l0.066,-0.004l0.066,-0.003l0.066,0l0.066,0Zm-0.108,1l-0.041,0.002l-0.041,0.002l-0.041,0.004l-0.041,0.004l-0.041,0.006l-0.04,0.007l-0.04,0.007l-0.04,0.009l-0.04,0.009l-0.039,0.01l-0.04,0.012l-0.038,0.012l-0.039,0.013l-0.038,0.015l-0.038,0.015l-0.037,0.016l-0.037,0.017l-0.037,0.018l-0.036,0.018l-0.036,0.02l-0.035,0.021l-0.035,0.021l-0.034,0.022l-0.034,0.023l-0.033,0.024l-0.033,0.025l-0.032,0.026l-0.032,0.026l-0.031,0.028l-0.03,0.028l-0.034,0.033l-1.647,1.647l-1.647,-1.647l-0.034,-0.033l-0.03,-0.028l-0.031,-0.028l-0.032,-0.026l-0.032,-0.026l-0.033,-0.025l-0.033,-0.024l-0.034,-0.023l-0.034,-0.022l-0.035,-0.021l-0.035,-0.021l-0.036,-0.02l-0.036,-0.018l-0.037,-0.018l-0.037,-0.017l-0.037,-0.016l-0.038,-0.015l-0.038,-0.015l-0.039,-0.013l-0.038,-0.012l-0.04,-0.012l-0.039,-0.01l-0.04,-0.009l-0.04,-0.009l-0.04,-0.007l-0.04,-0.007l-0.041,-0.006l-0.041,-0.004l-0.041,-0.004l-0.041,-0.002l-0.041,-0.002l-0.042,0l-0.042,0l-0.041,0.002l-0.041,0.002l-0.041,0.004l-0.041,0.004l-0.041,0.006l-0.04,0.007l-0.04,0.007l-0.04,0.009l-0.04,0.009l-0.039,0.01l-0.04,0.012l-0.038,0.012l-0.039,0.013l-0.038,0.015l-0.038,0.015l-0.037,0.016l-0.037,0.017l-0.037,0.018l-0.036,0.018l-0.036,0.02l-0.035,0.021l-0.035,0.021l-0.034,0.022l-0.034,0.023l-0.033,0.024l-0.033,0.025l-0.032,0.026l-0.031,0.026l-0.032,0.028l-0.03,0.028l-0.039,0.038l0.008,-0.008l-0.029,0.03l-0.03,0.032l-0.028,0.032l-0.028,0.033l-0.026,0.033l-0.025,0.034l-0.024,0.033l-0.024,0.035l-0.022,0.035l-0.022,0.035l-0.02,0.036l-0.019,0.035l-0.019,0.037l-0.018,0.037l-0.016,0.037l-0.016,0.037l-0.015,0.038l-0.013,0.038l-0.013,0.038l-0.012,0.039l-0.011,0.038l-0.01,0.039l-0.009,0.04l-0.008,0.039l-0.008,0.04l-0.006,0.039l-0.005,0.04l-0.004,0.04l-0.004,0.04l-0.002,0.041l-0.002,0.04l0,0.04l0,0.04l0.002,0.04l0.002,0.04l0.004,0.04l0.004,0.04l0.005,0.04l0.006,0.04l0.008,0.04l0.008,0.039l0.009,0.039l0.01,0.039l0.011,0.039l0.012,0.039l0.012,0.038l0.014,0.038l0.015,0.038l0.016,0.037l0.016,0.037l0.018,0.037l0.019,0.036l0.019,0.036l0.02,0.036l0.022,0.035l0.022,0.035l0.024,0.034l0.024,0.034l0.025,0.034l0.026,0.033l0.028,0.032l0.028,0.033l0.03,0.031l0.034,0.036l4.009,4.009l4.009,-4.009l0.034,-0.036l0.03,-0.032l0.028,-0.032l0.028,-0.032l0.026,-0.033l0.025,-0.034l0.024,-0.034l0.024,-0.034l0.022,-0.035l0.022,-0.035l0.02,-0.036l0.019,-0.036l0.019,-0.036l0.018,-0.037l0.016,-0.037l0.016,-0.037l0.015,-0.038l0.013,-0.038l0.013,-0.038l0.012,-0.039l0.011,-0.039l0.01,-0.039l0.009,-0.039l0.008,-0.04l0.008,-0.039l0.006,-0.04l0.005,-0.04l0.004,-0.04l0.004,-0.04l0.002,-0.04l0.002,-0.04l0,-0.04l0,-0.04l-0.002,-0.04l-0.002,-0.041l-0.004,-0.04l-0.004,-0.04l-0.005,-0.04l-0.006,-0.039l-0.008,-0.04l-0.008,-0.039l-0.009,-0.04l-0.01,-0.039l-0.011,-0.038l-0.012,-0.039l-0.013,-0.038l-0.013,-0.038l-0.015,-0.038l-0.016,-0.038l-0.016,-0.036l-0.018,-0.037l-0.019,-0.037l-0.019,-0.035l-0.02,-0.036l-0.022,-0.035l-0.022,-0.035l-0.024,-0.035l-0.024,-0.033l-0.025,-0.034l-0.026,-0.033l-0.028,-0.033l-0.028,-0.032l-0.029,-0.031l-0.041,-0.042l0.008,0.009l-0.028,-0.028l-0.03,-0.028l-0.032,-0.028l-0.031,-0.026l-0.032,-0.026l-0.033,-0.025l-0.033,-0.024l-0.034,-0.023l-0.034,-0.022l-0.035,-0.021l-0.035,-0.021l-0.036,-0.02l-0.036,-0.018l-0.037,-0.018l-0.037,-0.017l-0.037,-0.016l-0.038,-0.015l-0.038,-0.015l-0.039,-0.013l-0.038,-0.012l-0.04,-0.012l-0.039,-0.01l-0.04,-0.009l-0.04,-0.009l-0.04,-0.007l-0.041,-0.007l-0.04,-0.006l-0.041,-0.004l-0.041,-0.004l-0.041,-0.002l-0.041,-0.002l-0.042,0l-0.042,0Z" style="fill:#ff4586;"/><path d="M12,28.512c0,0 -4.674,-4.673 -8.012,-8.012c-1.821,-1.821 -1.821,-4.774 0,-6.595c0.001,0 0.001,-0.001 0.002,-0.002c1.821,-1.821 4.774,-1.821 6.595,0c0.793,0.792 1.415,1.415 1.415,1.415c0,0 0.622,-0.623 1.415,-1.415c1.821,-1.821 4.774,-1.821 6.595,0c0.001,0.001 0.001,0.002 0.002,0.002c1.821,1.821 1.821,4.774 0,6.595c-3.338,3.339 -8.012,8.012 -8.012,8.012Z" style="fill:#ff4586;"/><path d="M7.4,12.538l0.111,0.004l0.112,0.007l0.112,0.009l0.111,0.012l0.111,0.015l0.111,0.018l0.11,0.02l0.11,0.022l0.11,0.026l0.109,0.028l0.108,0.03l0.108,0.034l0.107,0.036l0.107,0.038l0.105,0.042l0.105,0.044l0.104,0.046l0.103,0.05l0.102,0.052l0.101,0.054l0.1,0.058l0.099,0.06l0.098,0.062l0.096,0.066l0.095,0.068l0.094,0.071l0.092,0.073l0.091,0.076l0.045,0.039l0.044,0.04l0.044,0.04l0.044,0.041l0.043,0.042l0.043,0.042l1.415,1.415l1.415,-1.415l0.043,-0.042l0.043,-0.042l0.044,-0.041l0.044,-0.04l0.044,-0.04l0.045,-0.039l0.091,-0.076l0.092,-0.073l0.094,-0.071l0.095,-0.068l0.096,-0.066l0.098,-0.062l0.099,-0.06l0.1,-0.058l0.101,-0.054l0.102,-0.052l0.103,-0.05l0.104,-0.046l0.105,-0.044l0.105,-0.042l0.107,-0.038l0.107,-0.036l0.108,-0.034l0.108,-0.03l0.109,-0.028l0.11,-0.026l0.11,-0.022l0.11,-0.02l0.111,-0.018l0.111,-0.015l0.111,-0.012l0.112,-0.009l0.112,-0.007l0.111,-0.004l0.112,-0.001l0.112,0.001l0.112,0.004l0.112,0.007l0.111,0.009l0.112,0.012l0.111,0.015l0.111,0.018l0.11,0.02l0.11,0.022l0.11,0.026l0.109,0.028l0.108,0.03l0.108,0.034l0.107,0.036l0.106,0.038l0.106,0.042l0.105,0.044l0.104,0.046l0.103,0.05l0.102,0.052l0.101,0.054l0.1,0.058l0.099,0.06l0.097,0.062l0.097,0.066l0.095,0.068l0.093,0.071l0.093,0.073l0.09,0.076l0.045,0.039l0.045,0.04l0.044,0.04l0.044,0.041l0.043,0.042l0.045,0.044l0.042,0.043l0.042,0.044l0.041,0.043l0.041,0.044l0.039,0.045l0.039,0.045l0.076,0.091l0.074,0.092l0.07,0.094l0.068,0.095l0.066,0.096l0.062,0.097l0.06,0.099l0.058,0.1l0.054,0.101l0.052,0.102l0.05,0.103l0.046,0.104l0.045,0.105l0.041,0.106l0.039,0.106l0.036,0.107l0.033,0.108l0.031,0.109l0.028,0.109l0.025,0.109l0.023,0.11l0.02,0.111l0.017,0.11l0.015,0.111l0.012,0.112l0.009,0.111l0.007,0.112l0.004,0.112l0.001,0.112l-0.001,0.112l-0.004,0.112l-0.007,0.111l-0.009,0.112l-0.012,0.111l-0.015,0.111l-0.017,0.111l-0.02,0.11l-0.023,0.11l-0.025,0.11l-0.028,0.109l-0.031,0.109l-0.033,0.107l-0.036,0.108l-0.039,0.106l-0.041,0.106l-0.045,0.104l-0.046,0.104l-0.05,0.103l-0.052,0.102l-0.054,0.101l-0.058,0.1l-0.06,0.099l-0.062,0.098l-0.066,0.096l-0.068,0.095l-0.07,0.094l-0.074,0.092l-0.076,0.091l-0.039,0.045l-0.039,0.044l-0.041,0.044l-0.041,0.044l-0.042,0.043l-0.042,0.043l-8.012,8.012l-8.012,-8.012l-0.042,-0.043l-0.042,-0.043l-0.041,-0.044l-0.041,-0.044l-0.039,-0.044l-0.039,-0.045l-0.076,-0.091l-0.074,-0.092l-0.07,-0.094l-0.068,-0.095l-0.066,-0.096l-0.062,-0.098l-0.06,-0.099l-0.058,-0.1l-0.054,-0.101l-0.052,-0.102l-0.05,-0.103l-0.046,-0.104l-0.045,-0.104l-0.041,-0.106l-0.039,-0.106l-0.036,-0.108l-0.033,-0.107l-0.031,-0.109l-0.028,-0.109l-0.025,-0.11l-0.023,-0.11l-0.02,-0.11l-0.017,-0.111l-0.015,-0.111l-0.012,-0.111l-0.009,-0.112l-0.007,-0.111l-0.004,-0.112l-0.001,-0.112l0.001,-0.112l0.004,-0.112l0.007,-0.112l0.009,-0.111l0.012,-0.112l0.015,-0.111l0.017,-0.11l0.02,-0.111l0.023,-0.11l0.025,-0.109l0.028,-0.109l0.031,-0.109l0.033,-0.108l0.036,-0.107l0.039,-0.106l0.041,-0.106l0.045,-0.105l0.046,-0.104l0.05,-0.103l0.052,-0.102l0.054,-0.101l0.058,-0.1l0.06,-0.099l0.062,-0.097l0.066,-0.096l0.068,-0.095l0.07,-0.094l0.074,-0.092l0.076,-0.091l0.039,-0.045l0.039,-0.045l0.041,-0.044l0.041,-0.043l0.042,-0.044l0.042,-0.043l0.002,-0.002l0.043,-0.042l0.043,-0.042l0.044,-0.041l0.044,-0.04l0.045,-0.04l0.045,-0.039l0.09,-0.076l0.093,-0.073l0.093,-0.071l0.095,-0.068l0.097,-0.066l0.097,-0.062l0.099,-0.06l0.1,-0.058l0.101,-0.054l0.102,-0.052l0.103,-0.05l0.104,-0.046l0.105,-0.044l0.106,-0.042l0.106,-0.038l0.107,-0.036l0.108,-0.034l0.108,-0.03l0.109,-0.028l0.11,-0.026l0.11,-0.022l0.11,-0.02l0.111,-0.018l0.111,-0.015l0.112,-0.012l0.111,-0.009l0.112,-0.007l0.112,-0.004l0.112,-0.001l0.112,0.001Zm9.224,1l-0.088,0.003l-0.088,0.006l-0.087,0.007l-0.088,0.009l-0.087,0.012l-0.087,0.014l-0.087,0.015l-0.087,0.018l-0.086,0.02l-0.085,0.022l-0.086,0.024l-0.084,0.026l-0.084,0.029l-0.084,0.03l-0.083,0.032l-0.082,0.035l-0.081,0.036l-0.081,0.039l-0.08,0.041l-0.079,0.043l-0.079,0.045l-0.077,0.047l-0.077,0.049l-0.075,0.051l-0.075,0.054l-0.073,0.055l-0.073,0.058l-0.074,0.062l-0.033,0.028l-0.035,0.032l-0.035,0.031l-0.034,0.033l-0.034,0.033l-0.036,0.035l-2.12,2.12l-2.12,-2.12l-0.036,-0.035l-0.034,-0.033l-0.035,-0.033l-0.034,-0.031l-0.035,-0.032l-0.033,-0.028l-0.074,-0.062l-0.073,-0.058l-0.073,-0.055l-0.075,-0.054l-0.075,-0.051l-0.077,-0.049l-0.077,-0.047l-0.079,-0.045l-0.079,-0.043l-0.08,-0.041l-0.081,-0.038l-0.081,-0.037l-0.082,-0.035l-0.083,-0.032l-0.084,-0.03l-0.084,-0.029l-0.084,-0.026l-0.086,-0.024l-0.085,-0.022l-0.086,-0.02l-0.087,-0.018l-0.087,-0.015l-0.087,-0.014l-0.087,-0.012l-0.088,-0.009l-0.087,-0.007l-0.088,-0.006l-0.088,-0.003l-0.088,-0.001l-0.088,0.001l-0.088,0.003l-0.088,0.006l-0.088,0.007l-0.088,0.009l-0.087,0.012l-0.087,0.014l-0.087,0.015l-0.086,0.018l-0.086,0.02l-0.086,0.022l-0.085,0.024l-0.085,0.026l-0.084,0.029l-0.083,0.03l-0.083,0.032l-0.082,0.035l-0.082,0.037l-0.081,0.038l-0.08,0.041l-0.079,0.043l-0.078,0.045l-0.078,0.047l-0.076,0.049l-0.076,0.051l-0.074,0.054l-0.074,0.055l-0.072,0.058l-0.074,0.062l-0.033,0.028l-0.035,0.032l-0.035,0.031l-0.035,0.033l-0.034,0.033l-0.035,0.034l-0.035,0.035l-0.032,0.035l-0.033,0.034l-0.032,0.035l-0.031,0.035l-0.028,0.033l-0.062,0.074l-0.058,0.072l-0.055,0.074l-0.054,0.074l-0.051,0.076l-0.049,0.076l-0.047,0.078l-0.045,0.078l-0.043,0.079l-0.041,0.08l-0.039,0.081l-0.036,0.082l-0.035,0.082l-0.032,0.083l-0.031,0.083l-0.028,0.084l-0.026,0.085l-0.024,0.085l-0.022,0.086l-0.02,0.086l-0.018,0.086l-0.015,0.087l-0.014,0.087l-0.012,0.087l-0.009,0.088l-0.007,0.088l-0.006,0.088l-0.003,0.088l-0.001,0.088l0.001,0.088l0.003,0.088l0.006,0.088l0.007,0.088l0.009,0.087l0.012,0.087l0.013,0.087l0.016,0.087l0.018,0.087l0.02,0.086l0.022,0.085l0.024,0.086l0.026,0.084l0.029,0.085l0.03,0.083l0.032,0.083l0.035,0.082l0.036,0.081l0.039,0.081l0.041,0.08l0.043,0.079l0.045,0.079l0.047,0.077l0.049,0.077l0.051,0.075l0.054,0.075l0.055,0.073l0.058,0.073l0.062,0.074l0.028,0.033l0.031,0.035l0.032,0.035l0.033,0.034l0.033,0.034l0.035,0.036l7.303,7.303l7.303,-7.303l0.035,-0.036l0.033,-0.034l0.033,-0.034l0.032,-0.035l0.031,-0.035l0.028,-0.033l0.062,-0.074l0.058,-0.073l0.055,-0.073l0.054,-0.075l0.051,-0.075l0.049,-0.077l0.047,-0.077l0.045,-0.079l0.043,-0.079l0.041,-0.08l0.039,-0.081l0.036,-0.081l0.035,-0.082l0.032,-0.083l0.031,-0.084l0.028,-0.084l0.026,-0.084l0.024,-0.086l0.022,-0.085l0.02,-0.086l0.018,-0.087l0.015,-0.086l0.014,-0.088l0.012,-0.087l0.009,-0.087l0.007,-0.088l0.006,-0.088l0.003,-0.088l0.001,-0.088l-0.001,-0.088l-0.003,-0.088l-0.006,-0.088l-0.007,-0.088l-0.009,-0.088l-0.012,-0.087l-0.014,-0.087l-0.015,-0.087l-0.018,-0.086l-0.02,-0.086l-0.022,-0.086l-0.024,-0.085l-0.026,-0.085l-0.028,-0.084l-0.031,-0.083l-0.032,-0.083l-0.035,-0.082l-0.036,-0.082l-0.039,-0.081l-0.041,-0.08l-0.043,-0.079l-0.045,-0.078l-0.047,-0.078l-0.049,-0.076l-0.051,-0.076l-0.054,-0.074l-0.055,-0.074l-0.058,-0.072l-0.061,-0.074l-0.029,-0.033l-0.031,-0.035l-0.032,-0.035l-0.033,-0.035l-0.033,-0.034l-0.033,-0.034l0.002,0.002l-0.038,-0.037l-0.034,-0.033l-0.035,-0.033l-0.035,-0.031l-0.035,-0.032l-0.033,-0.028l-0.074,-0.062l-0.072,-0.058l-0.074,-0.055l-0.074,-0.054l-0.076,-0.051l-0.076,-0.049l-0.078,-0.047l-0.078,-0.045l-0.079,-0.043l-0.08,-0.041l-0.081,-0.038l-0.082,-0.037l-0.082,-0.035l-0.083,-0.032l-0.083,-0.03l-0.084,-0.029l-0.085,-0.026l-0.085,-0.024l-0.086,-0.022l-0.086,-0.02l-0.086,-0.018l-0.087,-0.015l-0.087,-0.014l-0.087,-0.012l-0.088,-0.009l-0.088,-0.007l-0.088,-0.006l-0.088,-0.003l-0.088,-0.001l-0.088,0.001Z" style="fill:#ff4586;"/><path d="M22.869,12.094l-3.589,-3.589c-1.043,-1.043 -1.043,-2.733 0,-3.776c0,0 0,0 0,0c0.501,-0.501 1.18,-0.782 1.888,-0.782c0.708,0 1.387,0.281 1.888,0.782c0.52,0.52 0.944,0.944 0.944,0.944c0,0 0.424,-0.424 0.944,-0.944c0.486,-0.486 1.139,-0.765 1.824,-0.782c-0.256,1.642 -1.025,3.171 -2.214,4.36c0,0 0,0.001 -0.001,0.001c-1.012,1.012 -1.61,2.362 -1.684,3.786Z" style="fill:#ff8fb6;"/><path d="M8.551,25.064l-4.563,-4.564c-1.821,-1.821 -1.821,-4.774 0,-6.595c0.001,0 0.001,-0.001 0.002,-0.002c1.821,-1.821 4.774,-1.821 6.595,0c0.793,0.792 1.415,1.415 1.415,1.415c0,0 0.622,-0.623 1.415,-1.415c0.693,-0.693 1.55,-1.122 2.446,-1.288l0,0.243c0,2.652 -1.053,5.196 -2.929,7.071c-0.898,0.898 -1.874,1.874 -2.728,2.728c-0.701,0.701 -1.258,1.518 -1.653,2.407Z" style="fill:#ff8fb6;"/><path d="M27.07,3.672l0.07,0.003l0.07,0.004l0.07,0.006l0.069,0.008l0.069,0.009l0.068,0.011l0.068,0.013l0.068,0.015l0.067,0.016l0.067,0.017l0.066,0.02l0.066,0.021l0.066,0.022l0.064,0.024l0.064,0.026l0.064,0.027l0.062,0.029l0.062,0.03l0.062,0.032l0.06,0.033l0.06,0.035l0.059,0.036l0.058,0.038l0.057,0.039l0.056,0.04l0.056,0.042l0.054,0.044l0.054,0.045l0.052,0.046l0.051,0.048l0.051,0.049l0.051,0.053l0.05,0.053l0.047,0.054l0.046,0.055l0.045,0.056l0.043,0.057l0.041,0.058l0.04,0.058l0.038,0.059l0.036,0.06l0.035,0.061l0.033,0.061l0.032,0.062l0.03,0.062l0.028,0.063l0.027,0.064l0.025,0.064l0.023,0.064l0.022,0.065l0.02,0.066l0.019,0.066l0.017,0.066l0.015,0.066l0.014,0.067l0.012,0.067l0.01,0.067l0.009,0.067l0.008,0.068l0.005,0.068l0.004,0.067l0.003,0.068l0.001,0.068l-0.001,0.068l-0.003,0.068l-0.004,0.067l-0.005,0.068l-0.008,0.068l-0.009,0.067l-0.01,0.067l-0.012,0.067l-0.014,0.067l-0.015,0.066l-0.017,0.066l-0.019,0.066l-0.02,0.066l-0.022,0.065l-0.023,0.064l-0.025,0.064l-0.027,0.064l-0.028,0.063l-0.03,0.062l-0.032,0.062l-0.033,0.061l-0.035,0.061l-0.036,0.06l-0.038,0.059l-0.04,0.058l-0.041,0.058l-0.043,0.057l-0.045,0.056l-0.046,0.055l-0.047,0.054l-0.05,0.053l-0.051,0.053l-5,5l-5,-5l-0.051,-0.053l-0.05,-0.053l-0.047,-0.054l-0.046,-0.055l-0.045,-0.056l-0.043,-0.057l-0.041,-0.058l-0.04,-0.058l-0.038,-0.059l-0.036,-0.06l-0.035,-0.061l-0.033,-0.061l-0.032,-0.062l-0.03,-0.062l-0.028,-0.063l-0.027,-0.064l-0.025,-0.064l-0.023,-0.064l-0.022,-0.065l-0.02,-0.066l-0.019,-0.066l-0.017,-0.066l-0.015,-0.066l-0.014,-0.067l-0.012,-0.067l-0.01,-0.067l-0.009,-0.067l-0.008,-0.068l-0.005,-0.068l-0.004,-0.067l-0.003,-0.068l-0.001,-0.068l0.001,-0.068l0.003,-0.068l0.004,-0.067l0.005,-0.068l0.008,-0.068l0.009,-0.067l0.01,-0.067l0.012,-0.067l0.014,-0.067l0.015,-0.066l0.017,-0.066l0.019,-0.066l0.02,-0.066l0.022,-0.065l0.023,-0.064l0.025,-0.064l0.027,-0.064l0.028,-0.063l0.03,-0.062l0.032,-0.062l0.033,-0.061l0.035,-0.061l0.036,-0.06l0.038,-0.059l0.04,-0.058l0.041,-0.058l0.043,-0.057l0.045,-0.056l0.046,-0.055l0.047,-0.054l0.05,-0.053l0.051,-0.053l0,0l0.051,-0.049l0.051,-0.048l0.052,-0.046l0.054,-0.045l0.054,-0.044l0.056,-0.042l0.056,-0.04l0.057,-0.039l0.058,-0.038l0.059,-0.036l0.06,-0.035l0.06,-0.033l0.062,-0.032l0.062,-0.03l0.062,-0.029l0.064,-0.027l0.064,-0.026l0.064,-0.024l0.066,-0.022l0.066,-0.021l0.066,-0.02l0.067,-0.017l0.067,-0.016l0.068,-0.015l0.068,-0.013l0.068,-0.011l0.069,-0.009l0.069,-0.008l0.07,-0.006l0.07,-0.004l0.07,-0.003l0.07,-0.001l0.07,0.001l0.07,0.003l0.07,0.004l0.07,0.006l0.069,0.008l0.069,0.009l0.068,0.011l0.068,0.013l0.068,0.015l0.067,0.016l0.067,0.017l0.066,0.02l0.066,0.021l0.066,0.022l0.064,0.024l0.064,0.026l0.064,0.027l0.062,0.029l0.062,0.03l0.062,0.032l0.06,0.033l0.06,0.035l0.059,0.036l0.058,0.038l0.057,0.039l0.056,0.04l0.056,0.042l0.054,0.044l0.054,0.045l0.052,0.046l0.051,0.048l0.051,0.049l1,1l1,-1l0.051,-0.049l0.051,-0.048l0.052,-0.046l0.054,-0.045l0.054,-0.044l0.056,-0.042l0.056,-0.04l0.057,-0.039l0.058,-0.038l0.059,-0.036l0.06,-0.035l0.06,-0.033l0.062,-0.032l0.062,-0.03l0.062,-0.029l0.064,-0.027l0.064,-0.026l0.064,-0.024l0.066,-0.022l0.066,-0.021l0.066,-0.02l0.067,-0.017l0.067,-0.016l0.068,-0.015l0.068,-0.013l0.068,-0.011l0.069,-0.009l0.069,-0.008l0.07,-0.006l0.07,-0.004l0.07,-0.003l0.07,-0.001l0.07,0.001Zm-0.115,1l-0.046,0.002l-0.045,0.003l-0.045,0.003l-0.044,0.005l-0.045,0.007l-0.044,0.007l-0.044,0.008l-0.044,0.009l-0.044,0.011l-0.043,0.011l-0.043,0.012l-0.042,0.014l-0.042,0.015l-0.042,0.015l-0.042,0.017l-0.04,0.017l-0.041,0.019l-0.04,0.019l-0.04,0.021l-0.039,0.021l-0.039,0.023l-0.038,0.023l-0.037,0.025l-0.037,0.025l-0.037,0.026l-0.035,0.027l-0.035,0.028l-0.035,0.029l-0.034,0.03l-0.033,0.031l-0.037,0.036l-1.703,1.703l-1.703,-1.703l-0.037,-0.036l-0.033,-0.031l-0.034,-0.03l-0.035,-0.029l-0.035,-0.028l-0.035,-0.027l-0.037,-0.026l-0.037,-0.025l-0.037,-0.025l-0.039,-0.023l-0.038,-0.023l-0.039,-0.021l-0.04,-0.021l-0.04,-0.019l-0.04,-0.019l-0.041,-0.017l-0.042,-0.017l-0.042,-0.015l-0.042,-0.015l-0.042,-0.014l-0.043,-0.012l-0.043,-0.011l-0.044,-0.011l-0.044,-0.009l-0.044,-0.008l-0.044,-0.007l-0.045,-0.007l-0.044,-0.005l-0.045,-0.003l-0.045,-0.003l-0.046,-0.002l-0.045,-0.001l-0.045,0.001l-0.046,0.002l-0.045,0.003l-0.045,0.003l-0.044,0.005l-0.045,0.007l-0.044,0.007l-0.044,0.008l-0.044,0.009l-0.044,0.011l-0.043,0.011l-0.043,0.012l-0.042,0.014l-0.042,0.015l-0.042,0.015l-0.041,0.017l-0.041,0.017l-0.041,0.019l-0.04,0.019l-0.04,0.021l-0.039,0.021l-0.038,0.023l-0.039,0.023l-0.037,0.025l-0.037,0.025l-0.037,0.026l-0.035,0.027l-0.035,0.028l-0.035,0.029l-0.034,0.03l-0.033,0.031l-0.033,0.032l-0.033,0.035l-0.032,0.034l-0.032,0.036l-0.029,0.035l-0.029,0.036l-0.028,0.037l-0.027,0.037l-0.025,0.038l-0.025,0.038l-0.023,0.039l-0.023,0.039l-0.021,0.039l-0.02,0.04l-0.019,0.04l-0.019,0.041l-0.017,0.041l-0.016,0.041l-0.015,0.042l-0.014,0.042l-0.013,0.042l-0.012,0.042l-0.011,0.043l-0.01,0.043l-0.009,0.043l-0.008,0.043l-0.007,0.044l-0.005,0.043l-0.005,0.044l-0.004,0.044l-0.002,0.044l-0.002,0.044l-0.001,0.044l0.001,0.044l0.002,0.044l0.002,0.044l0.004,0.044l0.005,0.044l0.005,0.043l0.007,0.044l0.008,0.043l0.009,0.043l0.01,0.043l0.011,0.043l0.012,0.042l0.013,0.042l0.014,0.042l0.015,0.042l0.016,0.041l0.017,0.041l0.019,0.041l0.019,0.04l0.02,0.04l0.022,0.039l0.022,0.039l0.023,0.039l0.025,0.038l0.025,0.038l0.027,0.037l0.028,0.037l0.029,0.036l0.029,0.035l0.031,0.036l0.033,0.034l0.037,0.039l4.289,4.289l4.289,-4.289l0.038,-0.039l0.032,-0.034l0.031,-0.035l0.029,-0.036l0.029,-0.036l0.028,-0.037l0.027,-0.037l0.025,-0.038l0.025,-0.038l0.023,-0.039l0.022,-0.039l0.022,-0.039l0.02,-0.04l0.019,-0.04l0.019,-0.041l0.017,-0.041l0.016,-0.041l0.015,-0.041l0.014,-0.042l0.013,-0.043l0.012,-0.042l0.011,-0.043l0.01,-0.043l0.009,-0.043l0.008,-0.043l0.007,-0.044l0.005,-0.043l0.005,-0.044l0.004,-0.044l0.002,-0.044l0.002,-0.044l0.001,-0.044l-0.001,-0.044l-0.002,-0.044l-0.002,-0.044l-0.004,-0.044l-0.005,-0.044l-0.005,-0.043l-0.007,-0.044l-0.008,-0.043l-0.009,-0.043l-0.01,-0.043l-0.011,-0.043l-0.012,-0.042l-0.013,-0.042l-0.014,-0.042l-0.015,-0.042l-0.016,-0.041l-0.017,-0.041l-0.019,-0.041l-0.019,-0.04l-0.02,-0.04l-0.021,-0.039l-0.023,-0.039l-0.023,-0.039l-0.025,-0.038l-0.025,-0.038l-0.027,-0.037l-0.028,-0.037l-0.029,-0.036l-0.029,-0.035l-0.032,-0.036l-0.032,-0.034l-0.033,-0.035l-0.033,-0.032l-0.033,-0.031l-0.034,-0.03l-0.035,-0.029l-0.035,-0.028l-0.035,-0.027l-0.037,-0.026l-0.037,-0.025l-0.037,-0.025l-0.038,-0.023l-0.039,-0.023l-0.039,-0.021l-0.04,-0.021l-0.04,-0.019l-0.041,-0.019l-0.041,-0.017l-0.041,-0.017l-0.042,-0.015l-0.042,-0.015l-0.042,-0.014l-0.043,-0.012l-0.043,-0.011l-0.044,-0.011l-0.044,-0.009l-0.044,-0.008l-0.044,-0.007l-0.045,-0.007l-0.044,-0.005l-0.045,-0.003l-0.045,-0.003l-0.046,-0.002l-0.045,-0.001l-0.045,0.001Z" style="fill:#ff4586;"/><path d="M7.119,12.051l0.118,0.004l0.119,0.007l0.118,0.01l0.118,0.013l0.118,0.015l0.118,0.019l0.117,0.021l0.117,0.024l0.116,0.027l0.116,0.03l0.115,0.032l0.114,0.036l0.114,0.038l0.113,0.041l0.112,0.044l0.111,0.047l0.11,0.049l0.11,0.052l0.054,0.028l0.054,0.028l0.054,0.028l0.053,0.03l0.053,0.03l0.053,0.031l0.053,0.031l0.052,0.032l0.052,0.033l0.052,0.034l0.051,0.034l0.051,0.035l0.05,0.036l0.051,0.036l0.05,0.037l0.049,0.038l0.049,0.039l0.049,0.039l0.048,0.04l0.048,0.041l0.048,0.041l0.047,0.042l0.047,0.043l0.046,0.044l0.046,0.044l0.046,0.045l1.501,1.501l1.501,-1.501l0.046,-0.045l0.046,-0.044l0.046,-0.044l0.047,-0.043l0.047,-0.042l0.048,-0.041l0.048,-0.041l0.048,-0.04l0.049,-0.039l0.049,-0.039l0.049,-0.038l0.05,-0.037l0.051,-0.036l0.05,-0.036l0.051,-0.035l0.051,-0.034l0.052,-0.034l0.052,-0.033l0.052,-0.032l0.053,-0.031l0.053,-0.031l0.053,-0.03l0.053,-0.03l0.054,-0.028l0.054,-0.028l0.054,-0.028l0.11,-0.052l0.11,-0.049l0.111,-0.047l0.112,-0.044l0.113,-0.041l0.114,-0.038l0.114,-0.036l0.115,-0.032l0.116,-0.03l0.116,-0.027l0.117,-0.024l0.117,-0.021l0.118,-0.019l0.118,-0.015l0.118,-0.013l0.118,-0.01l0.119,-0.007l0.118,-0.004l0.119,-0.001l0.119,0.001l0.118,0.004l0.119,0.007l0.118,0.01l0.118,0.013l0.118,0.015l0.118,0.019l0.117,0.021l0.117,0.024l0.116,0.027l0.116,0.03l0.115,0.032l0.114,0.036l0.114,0.038l0.113,0.041l0.112,0.044l0.111,0.047l0.11,0.049l0.11,0.052l0.054,0.028l0.054,0.028l0.054,0.028l0.053,0.03l0.053,0.03l0.053,0.031l0.053,0.031l0.052,0.032l0.052,0.033l0.052,0.034l0.051,0.034l0.051,0.035l0.05,0.036l0.051,0.036l0.05,0.037l0.049,0.038l0.049,0.039l0.049,0.039l0.048,0.04l0.048,0.041l0.048,0.041l0.047,0.042l0.047,0.043l0.046,0.044l0.046,0.044l0.048,0.047l0.045,0.046l0.044,0.046l0.044,0.046l0.043,0.047l0.042,0.047l0.041,0.048l0.041,0.048l0.04,0.048l0.039,0.049l0.039,0.049l0.038,0.049l0.037,0.05l0.036,0.051l0.036,0.05l0.035,0.051l0.034,0.051l0.034,0.052l0.033,0.052l0.032,0.052l0.031,0.053l0.031,0.053l0.03,0.053l0.03,0.053l0.028,0.054l0.028,0.054l0.028,0.054l0.052,0.11l0.049,0.11l0.047,0.111l0.044,0.112l0.041,0.113l0.038,0.114l0.036,0.114l0.032,0.115l0.03,0.116l0.027,0.116l0.024,0.117l0.021,0.117l0.019,0.118l0.015,0.118l0.013,0.118l0.01,0.118l0.007,0.119l0.004,0.118l0.001,0.119l-0.001,0.119l-0.004,0.118l-0.007,0.119l-0.01,0.118l-0.013,0.118l-0.015,0.118l-0.019,0.118l-0.021,0.117l-0.024,0.117l-0.027,0.116l-0.03,0.116l-0.032,0.115l-0.036,0.114l-0.038,0.114l-0.041,0.113l-0.044,0.112l-0.047,0.111l-0.049,0.11l-0.052,0.11l-0.028,0.054l-0.028,0.054l-0.028,0.054l-0.03,0.053l-0.03,0.053l-0.031,0.053l-0.031,0.053l-0.032,0.052l-0.033,0.052l-0.034,0.052l-0.034,0.051l-0.035,0.051l-0.036,0.05l-0.036,0.051l-0.037,0.05l-0.038,0.049l-0.039,0.049l-0.039,0.049l-0.04,0.048l-0.041,0.048l-0.041,0.048l-0.042,0.047l-0.043,0.047l-0.044,0.046l-0.044,0.046l-0.045,0.046l-8.501,8.501l-8.501,-8.501l-0.045,-0.046l-0.044,-0.046l-0.044,-0.046l-0.043,-0.047l-0.042,-0.047l-0.041,-0.048l-0.041,-0.048l-0.04,-0.048l-0.039,-0.049l-0.039,-0.049l-0.038,-0.049l-0.037,-0.05l-0.036,-0.051l-0.036,-0.05l-0.035,-0.051l-0.034,-0.051l-0.034,-0.052l-0.033,-0.052l-0.032,-0.052l-0.031,-0.053l-0.031,-0.053l-0.03,-0.053l-0.03,-0.053l-0.028,-0.054l-0.028,-0.054l-0.028,-0.054l-0.052,-0.11l-0.049,-0.11l-0.047,-0.111l-0.044,-0.112l-0.041,-0.113l-0.038,-0.114l-0.036,-0.114l-0.032,-0.115l-0.03,-0.116l-0.027,-0.116l-0.024,-0.117l-0.021,-0.117l-0.019,-0.118l-0.015,-0.118l-0.013,-0.118l-0.01,-0.118l-0.007,-0.119l-0.004,-0.118l-0.001,-0.119l0.001,-0.119l0.004,-0.118l0.007,-0.119l0.01,-0.118l0.013,-0.118l0.015,-0.118l0.019,-0.118l0.021,-0.117l0.024,-0.117l0.027,-0.116l0.03,-0.116l0.032,-0.115l0.036,-0.114l0.038,-0.114l0.041,-0.113l0.044,-0.112l0.047,-0.111l0.049,-0.11l0.052,-0.11l0.028,-0.054l0.028,-0.054l0.028,-0.054l0.03,-0.053l0.03,-0.053l0.031,-0.053l0.031,-0.053l0.032,-0.052l0.033,-0.052l0.034,-0.052l0.034,-0.051l0.035,-0.051l0.036,-0.05l0.036,-0.051l0.037,-0.05l0.038,-0.049l0.039,-0.049l0.039,-0.049l0.04,-0.048l0.041,-0.048l0.041,-0.048l0.042,-0.047l0.043,-0.047l0.044,-0.046l0.044,-0.046l0.045,-0.046l0.002,-0.002l0.046,-0.045l0.046,-0.044l0.046,-0.044l0.047,-0.043l0.047,-0.042l0.048,-0.041l0.048,-0.041l0.048,-0.04l0.049,-0.039l0.049,-0.039l0.049,-0.038l0.05,-0.037l0.051,-0.036l0.05,-0.036l0.051,-0.035l0.051,-0.034l0.052,-0.034l0.052,-0.033l0.052,-0.032l0.053,-0.031l0.053,-0.031l0.053,-0.03l0.053,-0.03l0.054,-0.028l0.054,-0.028l0.054,-0.028l0.11,-0.052l0.11,-0.049l0.111,-0.047l0.112,-0.044l0.113,-0.041l0.114,-0.038l0.114,-0.036l0.115,-0.032l0.116,-0.03l0.116,-0.027l0.117,-0.024l0.117,-0.021l0.118,-0.019l0.118,-0.015l0.118,-0.013l0.118,-0.01l0.119,-0.007l0.118,-0.004l0.119,-0.001l0.119,0.001Zm9.786,1l-0.095,0.003l-0.094,0.006l-0.095,0.008l-0.094,0.01l-0.095,0.012l-0.093,0.015l-0.094,0.017l-0.093,0.019l-0.093,0.022l-0.092,0.023l-0.092,0.026l-0.091,0.028l-0.091,0.031l-0.09,0.033l-0.089,0.035l-0.089,0.037l-0.088,0.039l-0.089,0.043l-0.041,0.021l-0.043,0.022l-0.043,0.023l-0.042,0.023l-0.043,0.024l-0.042,0.025l-0.041,0.025l-0.042,0.025l-0.041,0.026l-0.042,0.027l-0.04,0.028l-0.041,0.028l-0.04,0.028l-0.04,0.029l-0.04,0.03l-0.04,0.03l-0.039,0.031l-0.039,0.031l-0.039,0.032l-0.038,0.033l-0.038,0.033l-0.038,0.033l-0.037,0.035l-0.037,0.034l-0.037,0.036l-0.039,0.038l-2.206,2.206l-2.206,-2.206l-0.039,-0.038l-0.037,-0.036l-0.037,-0.035l-0.037,-0.034l-0.038,-0.033l-0.038,-0.033l-0.038,-0.033l-0.039,-0.032l-0.039,-0.031l-0.039,-0.031l-0.04,-0.03l-0.04,-0.03l-0.04,-0.029l-0.04,-0.028l-0.041,-0.028l-0.04,-0.028l-0.042,-0.027l-0.041,-0.026l-0.042,-0.025l-0.041,-0.025l-0.043,-0.025l-0.042,-0.024l-0.042,-0.023l-0.043,-0.023l-0.043,-0.022l-0.041,-0.021l-0.089,-0.043l-0.088,-0.039l-0.089,-0.037l-0.089,-0.035l-0.09,-0.033l-0.091,-0.031l-0.091,-0.028l-0.092,-0.026l-0.092,-0.023l-0.093,-0.022l-0.093,-0.019l-0.094,-0.017l-0.093,-0.015l-0.095,-0.012l-0.094,-0.01l-0.095,-0.008l-0.094,-0.006l-0.095,-0.003l-0.095,-0.001l-0.095,0.001l-0.095,0.003l-0.094,0.006l-0.095,0.008l-0.094,0.01l-0.095,0.012l-0.093,0.015l-0.094,0.017l-0.093,0.019l-0.093,0.022l-0.092,0.023l-0.092,0.026l-0.091,0.028l-0.091,0.031l-0.09,0.033l-0.089,0.035l-0.089,0.037l-0.088,0.039l-0.089,0.043l-0.041,0.021l-0.043,0.022l-0.043,0.023l-0.042,0.023l-0.042,0.024l-0.043,0.025l-0.041,0.025l-0.042,0.025l-0.041,0.026l-0.042,0.027l-0.04,0.028l-0.041,0.027l-0.04,0.029l-0.041,0.029l-0.039,0.03l-0.04,0.03l-0.039,0.031l-0.039,0.031l-0.039,0.032l-0.038,0.033l-0.038,0.033l-0.038,0.033l-0.037,0.034l-0.037,0.035l-0.037,0.036l-0.038,0.037l-0.037,0.038l-0.036,0.037l-0.034,0.037l-0.035,0.037l-0.033,0.038l-0.034,0.038l-0.032,0.039l-0.032,0.038l-0.031,0.039l-0.031,0.039l-0.03,0.04l-0.03,0.04l-0.029,0.04l-0.029,0.04l-0.027,0.041l-0.028,0.04l-0.027,0.042l-0.026,0.041l-0.025,0.042l-0.026,0.041l-0.024,0.042l-0.024,0.043l-0.023,0.042l-0.023,0.043l-0.022,0.043l-0.021,0.041l-0.043,0.089l-0.039,0.088l-0.037,0.089l-0.035,0.089l-0.033,0.09l-0.031,0.091l-0.028,0.091l-0.026,0.092l-0.023,0.092l-0.022,0.093l-0.019,0.093l-0.017,0.094l-0.015,0.094l-0.012,0.094l-0.01,0.094l-0.008,0.095l-0.006,0.094l-0.003,0.095l-0.001,0.095l0.001,0.095l0.003,0.095l0.006,0.094l0.008,0.095l0.01,0.094l0.012,0.095l0.015,0.093l0.017,0.094l0.019,0.093l0.022,0.093l0.023,0.092l0.026,0.092l0.028,0.091l0.031,0.091l0.033,0.09l0.035,0.089l0.037,0.089l0.039,0.088l0.043,0.089l0.021,0.041l0.022,0.043l0.023,0.043l0.023,0.042l0.024,0.042l0.025,0.043l0.025,0.041l0.025,0.042l0.026,0.041l0.027,0.042l0.028,0.04l0.028,0.041l0.028,0.04l0.029,0.04l0.03,0.04l0.03,0.04l0.031,0.039l0.031,0.039l0.032,0.039l0.033,0.038l0.033,0.038l0.033,0.038l0.034,0.037l0.035,0.037l0.036,0.037l0.038,0.039l7.792,7.792l7.792,-7.792l0.038,-0.039l0.036,-0.037l0.034,-0.037l0.035,-0.037l0.033,-0.038l0.034,-0.038l0.032,-0.039l0.032,-0.038l0.031,-0.039l0.031,-0.039l0.03,-0.04l0.03,-0.04l0.029,-0.04l0.029,-0.04l0.027,-0.041l0.028,-0.04l0.027,-0.042l0.026,-0.041l0.025,-0.042l0.026,-0.041l0.024,-0.042l0.024,-0.043l0.023,-0.042l0.023,-0.043l0.022,-0.043l0.021,-0.041l0.043,-0.089l0.039,-0.088l0.037,-0.089l0.035,-0.089l0.033,-0.09l0.031,-0.091l0.028,-0.091l0.026,-0.092l0.023,-0.092l0.022,-0.093l0.019,-0.093l0.017,-0.094l0.015,-0.094l0.012,-0.094l0.01,-0.094l0.008,-0.095l0.006,-0.094l0.003,-0.095l0.001,-0.095l-0.001,-0.095l-0.003,-0.095l-0.006,-0.094l-0.008,-0.095l-0.01,-0.094l-0.012,-0.095l-0.015,-0.093l-0.017,-0.094l-0.019,-0.093l-0.022,-0.093l-0.023,-0.092l-0.026,-0.092l-0.028,-0.091l-0.031,-0.091l-0.033,-0.09l-0.035,-0.089l-0.037,-0.089l-0.039,-0.088l-0.043,-0.089l-0.021,-0.041l-0.022,-0.043l-0.023,-0.043l-0.023,-0.042l-0.024,-0.043l-0.024,-0.042l-0.026,-0.041l-0.025,-0.042l-0.026,-0.041l-0.027,-0.041l-0.028,-0.041l-0.027,-0.041l-0.029,-0.04l-0.029,-0.041l-0.03,-0.039l-0.03,-0.04l-0.031,-0.039l-0.031,-0.039l-0.032,-0.039l-0.032,-0.038l-0.034,-0.038l-0.033,-0.038l-0.035,-0.037l-0.034,-0.037l-0.036,-0.037l-0.037,-0.038l-0.038,-0.037l-0.037,-0.036l-0.037,-0.034l-0.037,-0.035l-0.038,-0.033l-0.038,-0.034l-0.038,-0.032l-0.039,-0.032l-0.039,-0.031l-0.039,-0.031l-0.04,-0.03l-0.04,-0.03l-0.04,-0.029l-0.04,-0.028l-0.041,-0.028l-0.041,-0.028l-0.041,-0.027l-0.041,-0.026l-0.041,-0.025l-0.042,-0.025l-0.043,-0.025l-0.042,-0.024l-0.042,-0.023l-0.043,-0.023l-0.043,-0.022l-0.041,-0.021l-0.089,-0.043l-0.088,-0.039l-0.089,-0.037l-0.089,-0.035l-0.09,-0.033l-0.091,-0.031l-0.091,-0.028l-0.092,-0.026l-0.092,-0.023l-0.093,-0.022l-0.093,-0.019l-0.094,-0.017l-0.093,-0.015l-0.095,-0.012l-0.094,-0.01l-0.095,-0.008l-0.094,-0.006l-0.095,-0.003l-0.095,-0.001l-0.095,0.001Z" style="fill:#ff4586;"/></g></svg>