<?xml version="1.0" encoding="UTF-8" standalone="no"?>
<!DOCTYPE svg PUBLIC "-//W3C//DTD SVG 1.1//EN" "http://www.w3.org/Graphics/SVG/1.1/DTD/svg11.dtd">
<svg width="100%" height="100%" viewBox="0 0 32 32" version="1.1" xmlns="http://www.w3.org/2000/svg" xmlns:xlink="http://www.w3.org/1999/xlink" xml:space="preserve" xmlns:serif="http://www.serif.com/" style="fill-rule:evenodd;clip-rule:evenodd;stroke-linejoin:round;stroke-miterlimit:1.5;">
    <rect id="two_hearts" x="0" y="0" width="32" height="32" style="fill:none;"/>
    <clipPath id="_clip1">
        <rect x="0" y="0" width="32" height="32"/>
    </clipPath>
    <g clip-path="url(#_clip1)">
        <path d="M22.533,14.904C21.425,14.352 18.435,12.68 16.841,10.038C14.877,6.784 16.241,3.184 19.178,3.008C20.881,2.905 22.097,3.853 22.642,5.039C22.691,5.173 22.818,5.262 22.96,5.262C23.103,5.262 23.23,5.173 23.279,5.039C23.823,3.853 25.039,2.905 26.742,3.008C29.68,3.184 31.043,6.784 29.08,10.038C27.486,12.68 24.495,14.352 23.387,14.905C23.117,15.032 22.803,15.032 22.533,14.904ZM10.817,29.872C9.34,29.136 5.353,26.907 3.227,23.384C0.609,19.045 2.427,14.246 6.344,14.01C8.614,13.873 10.236,15.138 10.962,16.719C11.027,16.897 11.197,17.016 11.387,17.016C11.577,17.016 11.746,16.897 11.811,16.719C12.537,15.138 14.159,13.873 16.429,14.01C20.346,14.246 22.164,19.045 19.546,23.384C17.421,26.907 13.433,29.136 11.956,29.873C11.595,30.043 11.178,30.042 10.817,29.872Z" style="fill:none;stroke:black;stroke-width:4px;"/>
        <path d="M29.975,6.404C30.088,7.529 29.822,8.808 29.08,10.038C27.486,12.68 24.495,14.352 23.387,14.905C23.117,15.032 22.803,15.032 22.533,14.904C21.425,14.352 18.435,12.68 16.841,10.038C16.05,8.727 15.799,7.361 15.973,6.184C16.606,10.279 29.459,10.168 29.975,6.404ZM20.74,18.539C20.891,20.039 20.535,21.744 19.546,23.384C17.421,26.907 13.433,29.136 11.956,29.873C11.595,30.043 11.178,30.042 10.817,29.872C9.34,29.136 5.353,26.907 3.227,23.384C2.173,21.636 1.838,19.814 2.07,18.246C2.914,23.705 20.052,23.557 20.74,18.539Z" style="fill:rgb(206,2,73);"/>
        <path d="M15.973,6.184C16.231,4.44 17.424,3.113 19.178,3.008C20.881,2.905 22.097,3.853 22.642,5.039C22.691,5.173 22.818,5.262 22.96,5.262C23.103,5.262 23.23,5.173 23.279,5.039C23.823,3.853 25.039,2.905 26.742,3.008C28.57,3.118 29.788,4.552 29.975,6.404C29.459,10.168 24.461,13.318 22.96,13.342C21.331,13.369 16.606,10.279 15.973,6.184ZM2.07,18.246C2.414,15.919 4.005,14.151 6.344,14.01C8.614,13.873 10.236,15.138 10.962,16.719C11.027,16.897 11.197,17.016 11.387,17.016C11.577,17.016 11.746,16.897 11.811,16.719C12.537,15.138 14.159,13.873 16.429,14.01C18.866,14.157 20.49,16.07 20.74,18.539C20.052,23.557 13.387,27.757 11.387,27.79C9.214,27.825 2.914,23.705 2.07,18.246Z" style="fill:rgb(255,60,128);"/>
    </g>
</svg>
