<?xml version="1.0" encoding="UTF-8" standalone="no"?><!DOCTYPE svg PUBLIC "-//W3C//DTD SVG 1.1//EN" "http://www.w3.org/Graphics/SVG/1.1/DTD/svg11.dtd"><svg width="100%" height="100%" viewBox="0 0 32 32" version="1.1" xmlns="http://www.w3.org/2000/svg" xmlns:xlink="http://www.w3.org/1999/xlink" xml:space="preserve" xmlns:serif="http://www.serif.com/" style="fill-rule:evenodd;clip-rule:evenodd;stroke-linejoin:round;stroke-miterlimit:1.41421;"><rect id="two_hearts" x="0" y="0" width="32" height="32" style="fill:none;"/><g id="outline"><path d="M26.744,2.055l0.113,0.004l0.112,0.007l0.112,0.01l0.111,0.012l0.111,0.015l0.11,0.018l0.109,0.021l0.109,0.023l0.108,0.026l0.108,0.028l0.106,0.031l0.106,0.034l0.105,0.036l0.104,0.038l0.103,0.042l0.101,0.043l0.101,0.046l0.1,0.049l0.098,0.051l0.098,0.053l0.096,0.056l0.094,0.058l0.094,0.061l0.092,0.063l0.09,0.065l0.089,0.068l0.087,0.07l0.086,0.072l0.085,0.074l0.082,0.077l0.072,0.07l0.019,0.019l0.072,0.074l0.079,0.085l0.076,0.086l0.074,0.088l0.072,0.09l0.069,0.091l0.067,0.093l0.065,0.095l0.062,0.096l0.06,0.096l0.057,0.099l0.055,0.1l0.052,0.101l0.05,0.102l0.048,0.104l0.045,0.105l0.042,0.105l0.039,0.106l0.038,0.109l0.034,0.108l0.032,0.109l0.029,0.11l0.026,0.112l0.024,0.111l0.021,0.112l0.018,0.114l0.016,0.113l0.013,0.114l0.01,0.115l0.007,0.115l0.004,0.116l0.001,0.115l-0.001,0.116l-0.004,0.115l-0.007,0.116l-0.01,0.115l-0.013,0.113l-0.016,0.114l-0.018,0.113l-0.021,0.112l-0.024,0.112l-0.026,0.111l-0.029,0.111l-0.032,0.109l-0.034,0.108l-0.038,0.108l-0.039,0.107l-0.042,0.105l-0.045,0.105l-0.048,0.103l-0.05,0.102l-0.052,0.102l-0.055,0.099l-0.057,0.099l-0.06,0.097l-0.062,0.096l-0.065,0.094l-0.067,0.093l-0.069,0.091l-0.072,0.09l-0.074,0.088l-0.076,0.087l-0.079,0.085l-0.072,0.073l-5.855,5.855l-5.855,-5.855l-0.072,-0.074l-0.079,-0.084l-0.076,-0.087l-0.074,-0.088l-0.072,-0.09l-0.069,-0.091l-0.067,-0.093l-0.065,-0.094l-0.062,-0.096l-0.06,-0.097l-0.057,-0.099l-0.055,-0.1l-0.052,-0.101l-0.05,-0.102l-0.048,-0.103l-0.044,-0.105l-0.043,-0.106l-0.039,-0.106l-0.037,-0.108l-0.035,-0.108l-0.032,-0.11l-0.029,-0.11l-0.026,-0.111l-0.024,-0.111l-0.021,-0.113l-0.018,-0.113l-0.016,-0.114l-0.013,-0.114l-0.01,-0.115l-0.007,-0.114l-0.004,-0.116l-0.001,-0.116l0.001,-0.116l0.004,-0.115l0.007,-0.115l0.01,-0.115l0.013,-0.114l0.016,-0.113l0.018,-0.114l0.021,-0.112l0.024,-0.111l0.026,-0.111l0.029,-0.111l0.032,-0.11l0.035,-0.108l0.037,-0.107l0.039,-0.107l0.043,-0.106l0.044,-0.104l0.048,-0.104l0.05,-0.102l0.052,-0.101l0.055,-0.1l0.057,-0.098l0.06,-0.098l0.062,-0.095l0.065,-0.095l0.067,-0.093l0.069,-0.091l0.072,-0.09l0.074,-0.088l0.076,-0.086l0.079,-0.085l0.072,-0.074l0.019,-0.019l0.072,-0.07l0.082,-0.077l0.085,-0.074l0.085,-0.072l0.088,-0.07l0.089,-0.068l0.09,-0.065l0.092,-0.063l0.094,-0.061l0.094,-0.058l0.096,-0.056l0.098,-0.053l0.098,-0.051l0.1,-0.049l0.101,-0.046l0.101,-0.043l0.103,-0.042l0.104,-0.038l0.105,-0.036l0.106,-0.034l0.106,-0.031l0.108,-0.028l0.108,-0.026l0.109,-0.023l0.109,-0.021l0.11,-0.018l0.111,-0.015l0.111,-0.012l0.112,-0.01l0.112,-0.007l0.113,-0.004l0.112,-0.001l0.113,0.001l0.113,0.004l0.112,0.007l0.111,0.01l0.112,0.012l0.11,0.015l0.111,0.018l0.109,0.021l0.109,0.023l0.108,0.026l0.108,0.028l0.106,0.031l0.106,0.034l0.105,0.036l0.103,0.038l0.103,0.042l0.102,0.043l0.101,0.046l0.1,0.049l0.098,0.051l0.098,0.053l0.096,0.056l0.094,0.058l0.094,0.061l0.092,0.063l0.018,0.013l0.019,-0.013l0.092,-0.063l0.093,-0.061l0.094,-0.058l0.096,-0.056l0.098,-0.053l0.098,-0.051l0.1,-0.049l0.101,-0.046l0.102,-0.043l0.103,-0.042l0.103,-0.038l0.105,-0.036l0.106,-0.034l0.106,-0.031l0.108,-0.028l0.108,-0.026l0.109,-0.023l0.109,-0.021l0.111,-0.018l0.11,-0.015l0.112,-0.012l0.111,-0.01l0.112,-0.007l0.113,-0.004l0.113,-0.001l0.112,0.001Zm-0.126,3.999l-0.013,0.001l-0.014,0l-0.013,0.002l-0.014,0.001l-0.013,0.002l-0.013,0.002l-0.013,0.002l-0.013,0.003l-0.013,0.003l-0.013,0.004l-0.013,0.003l-0.012,0.004l-0.013,0.005l-0.012,0.004l-0.012,0.005l-0.013,0.006l-0.012,0.005l-0.012,0.006l-0.011,0.006l-0.012,0.006l-0.012,0.007l-0.011,0.007l-0.011,0.007l-0.011,0.008l-0.011,0.008l-0.01,0.008l-0.011,0.008l-0.01,0.009l-0.01,0.009l-0.01,0.009l-0.019,0.018l-2.238,2.238l-2.238,-2.238l-0.019,-0.018l-0.01,-0.01l-0.01,-0.008l-0.01,-0.009l-0.01,-0.008l-0.011,-0.008l-0.011,-0.008l-0.011,-0.008l-0.011,-0.007l-0.011,-0.007l-0.012,-0.007l-0.011,-0.006l-0.012,-0.006l-0.012,-0.006l-0.012,-0.005l-0.013,-0.006l-0.012,-0.005l-0.012,-0.004l-0.013,-0.005l-0.012,-0.004l-0.013,-0.003l-0.013,-0.004l-0.013,-0.003l-0.013,-0.003l-0.013,-0.002l-0.013,-0.002l-0.013,-0.002l-0.014,-0.001l-0.013,-0.002l-0.014,0l-0.013,-0.001l-0.014,0l-0.013,0l-0.014,0.001l-0.013,0l-0.013,0.002l-0.014,0.001l-0.013,0.002l-0.013,0.002l-0.013,0.002l-0.013,0.003l-0.013,0.003l-0.013,0.004l-0.013,0.003l-0.012,0.004l-0.013,0.005l-0.012,0.004l-0.013,0.005l-0.012,0.006l-0.012,0.005l-0.012,0.006l-0.012,0.006l-0.011,0.006l-0.012,0.007l-0.011,0.007l-0.011,0.007l-0.011,0.008l-0.011,0.008l-0.011,0.008l-0.01,0.008l-0.01,0.009l-0.011,0.009l-0.009,0.009l-0.011,0.01l-0.012,0.013l-0.012,0.012l-0.01,0.012l-0.011,0.012l-0.01,0.013l-0.01,0.013l-0.009,0.013l-0.01,0.014l-0.009,0.014l-0.008,0.013l-0.008,0.014l-0.008,0.014l-0.007,0.015l-0.008,0.015l-0.006,0.014l-0.007,0.015l-0.006,0.015l-0.005,0.015l-0.006,0.016l-0.005,0.015l-0.004,0.016l-0.004,0.015l-0.004,0.016l-0.003,0.016l-0.003,0.016l-0.003,0.016l-0.002,0.016l-0.002,0.016l-0.001,0.016l-0.001,0.017l-0.001,0.017l0,0.016l0,0.017l0.001,0.016l0.001,0.017l0.001,0.016l0.002,0.016l0.002,0.016l0.003,0.016l0.003,0.016l0.003,0.016l0.004,0.016l0.004,0.016l0.004,0.015l0.005,0.016l0.006,0.015l0.005,0.015l0.006,0.015l0.007,0.015l0.006,0.015l0.008,0.014l0.007,0.015l0.008,0.014l0.008,0.014l0.008,0.014l0.009,0.014l0.01,0.013l0.009,0.013l0.01,0.013l0.01,0.013l0.011,0.012l0.011,0.013l0.011,0.012l0.02,0.021l3.009,3.009l3.009,-3.009l0.02,-0.021l0.012,-0.012l0.01,-0.013l0.011,-0.012l0.01,-0.013l0.01,-0.013l0.009,-0.013l0.01,-0.013l0.008,-0.014l0.009,-0.014l0.008,-0.014l0.008,-0.014l0.007,-0.015l0.008,-0.014l0.006,-0.015l0.007,-0.015l0.006,-0.015l0.005,-0.015l0.005,-0.015l0.006,-0.016l0.004,-0.016l0.004,-0.015l0.004,-0.016l0.003,-0.015l0.003,-0.017l0.003,-0.016l0.002,-0.016l0.002,-0.016l0.001,-0.017l0.001,-0.016l0.001,-0.016l0,-0.017l0,-0.017l-0.001,-0.016l-0.001,-0.016l-0.001,-0.016l-0.002,-0.017l-0.002,-0.016l-0.003,-0.016l-0.003,-0.016l-0.003,-0.016l-0.004,-0.015l-0.004,-0.016l-0.005,-0.016l-0.005,-0.016l-0.005,-0.014l-0.005,-0.015l-0.006,-0.016l-0.007,-0.015l-0.006,-0.014l-0.008,-0.015l-0.007,-0.015l-0.008,-0.014l-0.008,-0.013l-0.009,-0.015l-0.008,-0.013l-0.01,-0.014l-0.009,-0.013l-0.01,-0.013l-0.01,-0.012l-0.011,-0.013l-0.011,-0.012l-0.011,-0.012l-0.012,-0.013l-0.011,-0.01l-0.009,-0.009l-0.011,-0.009l-0.01,-0.009l-0.01,-0.008l-0.011,-0.008l-0.011,-0.008l-0.011,-0.008l-0.011,-0.007l-0.011,-0.007l-0.012,-0.007l-0.011,-0.006l-0.012,-0.006l-0.012,-0.006l-0.012,-0.005l-0.012,-0.006l-0.013,-0.005l-0.012,-0.004l-0.013,-0.005l-0.012,-0.004l-0.013,-0.003l-0.013,-0.004l-0.013,-0.003l-0.013,-0.003l-0.013,-0.002l-0.013,-0.002l-0.013,-0.002l-0.014,-0.001l-0.013,-0.002l-0.013,0l-0.014,-0.001l-0.013,0l-0.014,0Z"/><path d="M17.344,9.836l0.159,0.006l0.158,0.01l0.158,0.013l0.158,0.018l0.156,0.021l0.156,0.026l0.155,0.029l0.154,0.032l0.153,0.037l0.152,0.04l0.151,0.044l0.149,0.047l0.149,0.051l0.147,0.055l0.145,0.058l0.144,0.062l0.143,0.065l0.141,0.069l0.139,0.072l0.138,0.076l0.136,0.079l0.133,0.082l0.133,0.086l0.13,0.089l0.128,0.092l0.125,0.096l0.124,0.099l0.122,0.102l0.119,0.105l0.116,0.108l0.106,0.103l0.018,0.019l0.103,0.105l0.108,0.117l0.105,0.119l0.103,0.121l0.098,0.124l0.096,0.126l0.092,0.128l0.089,0.13l0.086,0.132l0.082,0.134l0.079,0.136l0.076,0.137l0.072,0.139l0.069,0.142l0.065,0.142l0.062,0.144l0.058,0.146l0.055,0.147l0.051,0.148l0.047,0.149l0.044,0.151l0.041,0.152l0.036,0.153l0.033,0.154l0.029,0.155l0.025,0.156l0.021,0.156l0.018,0.158l0.014,0.158l0.009,0.159l0.006,0.159l0.002,0.159l-0.002,0.16l-0.006,0.159l-0.009,0.158l-0.014,0.158l-0.018,0.158l-0.021,0.156l-0.025,0.156l-0.029,0.155l-0.033,0.154l-0.036,0.153l-0.041,0.152l-0.044,0.151l-0.047,0.149l-0.051,0.148l-0.055,0.147l-0.058,0.146l-0.062,0.144l-0.065,0.143l-0.069,0.141l-0.072,0.139l-0.075,0.138l-0.079,0.135l-0.083,0.134l-0.086,0.133l-0.089,0.13l-0.092,0.127l-0.096,0.126l-0.098,0.124l-0.102,0.121l-0.106,0.12l-0.108,0.116l-0.103,0.106l-9.028,9.028l-9.029,-9.028l-0.103,-0.106l-0.108,-0.116l-0.106,-0.12l-0.102,-0.121l-0.098,-0.124l-0.096,-0.126l-0.092,-0.127l-0.089,-0.13l-0.086,-0.133l-0.082,-0.134l-0.079,-0.135l-0.076,-0.138l-0.072,-0.139l-0.069,-0.141l-0.065,-0.143l-0.062,-0.144l-0.058,-0.145l-0.055,-0.147l-0.051,-0.149l-0.047,-0.149l-0.044,-0.151l-0.04,-0.152l-0.037,-0.153l-0.033,-0.154l-0.029,-0.155l-0.025,-0.156l-0.021,-0.156l-0.018,-0.158l-0.014,-0.158l-0.009,-0.158l-0.006,-0.159l-0.002,-0.16l0.002,-0.159l0.006,-0.16l0.009,-0.158l0.014,-0.158l0.018,-0.158l0.021,-0.156l0.025,-0.156l0.029,-0.155l0.033,-0.154l0.037,-0.153l0.04,-0.152l0.044,-0.151l0.047,-0.149l0.051,-0.148l0.055,-0.147l0.058,-0.146l0.062,-0.144l0.065,-0.142l0.069,-0.142l0.072,-0.139l0.075,-0.137l0.08,-0.136l0.082,-0.134l0.086,-0.132l0.089,-0.13l0.092,-0.128l0.096,-0.126l0.099,-0.124l0.101,-0.121l0.106,-0.119l0.108,-0.117l0.103,-0.105l0.018,-0.019l0.106,-0.103l0.116,-0.108l0.119,-0.105l0.122,-0.102l0.124,-0.099l0.125,-0.096l0.128,-0.092l0.131,-0.089l0.132,-0.086l0.134,-0.082l0.135,-0.079l0.138,-0.076l0.139,-0.072l0.141,-0.069l0.143,-0.065l0.144,-0.062l0.145,-0.058l0.147,-0.055l0.149,-0.051l0.149,-0.047l0.151,-0.044l0.152,-0.04l0.153,-0.037l0.154,-0.032l0.155,-0.029l0.156,-0.026l0.156,-0.021l0.158,-0.018l0.158,-0.013l0.158,-0.01l0.159,-0.006l0.16,-0.002l0.159,0.002l0.16,0.006l0.158,0.01l0.158,0.013l0.157,0.018l0.157,0.021l0.156,0.026l0.155,0.029l0.154,0.032l0.153,0.037l0.152,0.04l0.15,0.044l0.15,0.047l0.148,0.051l0.147,0.055l0.146,0.058l0.144,0.062l0.142,0.065l0.141,0.069l0.14,0.072l0.137,0.076l0.136,0.079l0.134,0.082l0.132,0.086l0.13,0.089l0.128,0.092l0.126,0.096l0.124,0.099l0.121,0.102l0.119,0.105l0.117,0.108l0.043,0.042l0.042,-0.042l0.117,-0.108l0.119,-0.105l0.121,-0.102l0.124,-0.099l0.126,-0.096l0.128,-0.092l0.13,-0.089l0.132,-0.086l0.134,-0.082l0.136,-0.079l0.137,-0.076l0.14,-0.072l0.141,-0.069l0.142,-0.065l0.144,-0.062l0.146,-0.058l0.147,-0.055l0.148,-0.051l0.15,-0.047l0.15,-0.044l0.152,-0.04l0.153,-0.037l0.154,-0.032l0.155,-0.029l0.156,-0.026l0.157,-0.021l0.157,-0.018l0.158,-0.013l0.159,-0.01l0.159,-0.006l0.159,-0.002l0.16,0.002Zm-0.22,3.999l-0.06,0.002l-0.06,0.004l-0.06,0.005l-0.059,0.007l-0.059,0.008l-0.059,0.009l-0.059,0.011l-0.058,0.013l-0.058,0.014l-0.057,0.015l-0.057,0.016l-0.056,0.018l-0.056,0.019l-0.056,0.021l-0.055,0.022l-0.054,0.023l-0.054,0.025l-0.053,0.026l-0.053,0.027l-0.052,0.029l-0.051,0.03l-0.051,0.031l-0.05,0.032l-0.049,0.034l-0.048,0.035l-0.048,0.036l-0.046,0.037l-0.046,0.039l-0.045,0.039l-0.044,0.041l-0.052,0.051l-2.748,2.748l-2.748,-2.748l-0.053,-0.051l-0.044,-0.041l-0.045,-0.039l-0.045,-0.039l-0.047,-0.037l-0.048,-0.036l-0.048,-0.035l-0.049,-0.034l-0.05,-0.032l-0.051,-0.031l-0.051,-0.03l-0.052,-0.029l-0.053,-0.027l-0.053,-0.026l-0.054,-0.025l-0.054,-0.023l-0.055,-0.022l-0.056,-0.021l-0.056,-0.019l-0.056,-0.018l-0.057,-0.016l-0.057,-0.016l-0.058,-0.013l-0.058,-0.013l-0.059,-0.011l-0.059,-0.009l-0.059,-0.008l-0.059,-0.007l-0.06,-0.005l-0.06,-0.004l-0.06,-0.002l-0.06,-0.001l-0.06,0.001l-0.061,0.002l-0.06,0.004l-0.059,0.005l-0.06,0.007l-0.059,0.008l-0.059,0.009l-0.058,0.011l-0.058,0.013l-0.058,0.014l-0.057,0.015l-0.057,0.016l-0.057,0.018l-0.056,0.019l-0.055,0.021l-0.055,0.022l-0.055,0.023l-0.054,0.025l-0.053,0.026l-0.052,0.027l-0.052,0.029l-0.052,0.03l-0.05,0.031l-0.05,0.032l-0.049,0.034l-0.049,0.035l-0.047,0.036l-0.047,0.037l-0.046,0.039l-0.045,0.039l-0.044,0.041l-0.043,0.043l-0.043,0.044l-0.041,0.044l-0.04,0.045l-0.038,0.046l-0.038,0.046l-0.036,0.048l-0.035,0.048l-0.033,0.049l-0.032,0.05l-0.032,0.051l-0.029,0.051l-0.029,0.052l-0.027,0.053l-0.026,0.053l-0.025,0.054l-0.023,0.054l-0.022,0.055l-0.021,0.055l-0.019,0.057l-0.018,0.056l-0.017,0.057l-0.015,0.057l-0.014,0.058l-0.012,0.058l-0.011,0.059l-0.009,0.058l-0.009,0.06l-0.006,0.059l-0.005,0.06l-0.004,0.06l-0.002,0.06l-0.001,0.06l0.001,0.06l0.002,0.061l0.004,0.06l0.005,0.059l0.006,0.059l0.009,0.06l0.009,0.059l0.011,0.058l0.012,0.058l0.014,0.058l0.015,0.057l0.017,0.057l0.018,0.057l0.019,0.056l0.021,0.055l0.022,0.055l0.023,0.055l0.025,0.054l0.026,0.053l0.027,0.052l0.029,0.052l0.029,0.052l0.032,0.05l0.032,0.05l0.033,0.049l0.035,0.049l0.036,0.047l0.038,0.047l0.038,0.046l0.04,0.044l0.041,0.045l0.051,0.052l6.183,6.183l6.182,-6.183l0.051,-0.052l0.041,-0.044l0.04,-0.045l0.038,-0.046l0.038,-0.047l0.036,-0.047l0.035,-0.049l0.033,-0.049l0.033,-0.05l0.031,-0.05l0.029,-0.051l0.029,-0.053l0.027,-0.052l0.026,-0.053l0.025,-0.054l0.023,-0.055l0.022,-0.055l0.021,-0.055l0.019,-0.056l0.018,-0.057l0.017,-0.057l0.015,-0.057l0.014,-0.058l0.012,-0.058l0.011,-0.058l0.009,-0.059l0.009,-0.06l0.006,-0.059l0.005,-0.059l0.004,-0.06l0.002,-0.06l0.001,-0.061l-0.001,-0.06l-0.002,-0.06l-0.004,-0.06l-0.005,-0.06l-0.006,-0.059l-0.009,-0.06l-0.009,-0.058l-0.011,-0.059l-0.012,-0.058l-0.014,-0.058l-0.015,-0.057l-0.017,-0.057l-0.018,-0.056l-0.019,-0.057l-0.021,-0.055l-0.022,-0.055l-0.023,-0.054l-0.025,-0.054l-0.026,-0.053l-0.027,-0.053l-0.028,-0.052l-0.03,-0.051l-0.031,-0.051l-0.033,-0.05l-0.033,-0.049l-0.035,-0.048l-0.036,-0.048l-0.038,-0.046l-0.038,-0.046l-0.04,-0.045l-0.041,-0.044l-0.043,-0.044l-0.043,-0.043l-0.044,-0.041l-0.045,-0.039l-0.046,-0.039l-0.047,-0.037l-0.047,-0.036l-0.049,-0.035l-0.049,-0.034l-0.05,-0.032l-0.05,-0.031l-0.052,-0.03l-0.051,-0.029l-0.053,-0.027l-0.053,-0.026l-0.054,-0.025l-0.055,-0.023l-0.055,-0.022l-0.055,-0.021l-0.056,-0.019l-0.057,-0.018l-0.057,-0.016l-0.057,-0.015l-0.058,-0.014l-0.058,-0.013l-0.058,-0.011l-0.059,-0.009l-0.059,-0.008l-0.06,-0.007l-0.059,-0.005l-0.06,-0.004l-0.06,-0.002l-0.061,-0.001l-0.06,0.001Z"/></g><g id="emoji"><path d="M24,12.41c0,0 -2.232,-2.232 -3.848,-3.847c-0.433,-0.434 -0.677,-1.022 -0.677,-1.636c0,-0.613 0.244,-1.201 0.677,-1.635c0.001,-0.001 0.001,-0.001 0.002,-0.001c0.414,-0.415 0.976,-0.647 1.561,-0.647c0.586,0 1.148,0.232 1.562,0.647c0.402,0.401 0.723,0.722 0.723,0.722c0,0 0.321,-0.321 0.723,-0.722c0.414,-0.415 0.976,-0.647 1.562,-0.647c0.585,0 1.147,0.232 1.561,0.647c0.001,0 0.001,0 0.002,0.001c0.433,0.434 0.677,1.022 0.677,1.635c0,0.614 -0.244,1.202 -0.677,1.636c-1.616,1.615 -3.848,3.847 -3.848,3.847Z" style="fill:#f229a1;"/><clipPath id="_clip1"><path d="M24,12.41c0,0 -2.232,-2.232 -3.848,-3.847c-0.433,-0.434 -0.677,-1.022 -0.677,-1.636c0,-0.613 0.244,-1.201 0.677,-1.635c0.001,-0.001 0.001,-0.001 0.002,-0.001c0.414,-0.415 0.976,-0.647 1.561,-0.647c0.586,0 1.148,0.232 1.562,0.647c0.402,0.401 0.723,0.722 0.723,0.722c0,0 0.321,-0.321 0.723,-0.722c0.414,-0.415 0.976,-0.647 1.562,-0.647c0.585,0 1.147,0.232 1.561,0.647c0.001,0 0.001,0 0.002,0.001c0.433,0.434 0.677,1.022 0.677,1.635c0,0.614 -0.244,1.202 -0.677,1.636c-1.616,1.615 -3.848,3.847 -3.848,3.847Z"/></clipPath><g clip-path="url(#_clip1)"><path d="M26.861,1c0,0 0,0.787 0,1.737c0,2.089 -0.83,4.093 -2.307,5.57c0,0 0,0.001 -0.001,0.001c-1.083,1.083 -1.692,2.553 -1.692,4.085c0,2.667 0,6.607 0,6.607l-10,0l0,-18l14,0Z" style="fill:#f88dcf;"/></g><path d="M26.695,4.055l0.063,0.002l0.062,0.004l0.063,0.005l0.062,0.007l0.062,0.009l0.062,0.01l0.061,0.011l0.061,0.013l0.061,0.014l0.06,0.016l0.059,0.018l0.06,0.019l0.058,0.02l0.059,0.021l0.057,0.023l0.057,0.025l0.057,0.026l0.055,0.027l0.056,0.028l0.054,0.03l0.054,0.032l0.053,0.032l0.052,0.034l0.051,0.035l0.051,0.037l0.05,0.038l0.049,0.039l0.048,0.04l0.047,0.042l0.046,0.043l0.047,0.045l0.046,0.048l0.045,0.048l0.044,0.05l0.042,0.05l0.041,0.051l0.04,0.052l0.038,0.053l0.037,0.054l0.035,0.055l0.034,0.055l0.033,0.057l0.031,0.057l0.03,0.057l0.029,0.059l0.027,0.059l0.026,0.06l0.024,0.06l0.022,0.061l0.021,0.061l0.02,0.062l0.018,0.063l0.017,0.063l0.015,0.063l0.014,0.064l0.012,0.064l0.01,0.065l0.009,0.065l0.007,0.065l0.006,0.065l0.004,0.066l0.003,0.066l0,0.066l0,0.066l-0.003,0.066l-0.004,0.066l-0.006,0.066l-0.007,0.065l-0.009,0.065l-0.01,0.064l-0.012,0.064l-0.014,0.064l-0.015,0.064l-0.017,0.063l-0.018,0.062l-0.02,0.062l-0.021,0.061l-0.022,0.061l-0.024,0.061l-0.026,0.059l-0.027,0.06l-0.029,0.058l-0.03,0.058l-0.031,0.057l-0.033,0.056l-0.034,0.055l-0.035,0.055l-0.037,0.054l-0.038,0.053l-0.04,0.052l-0.041,0.052l-0.042,0.05l-0.044,0.049l-0.045,0.049l-0.046,0.047l-4.432,4.432l-4.432,-4.432l-0.046,-0.047l-0.045,-0.049l-0.044,-0.049l-0.042,-0.05l-0.041,-0.052l-0.04,-0.052l-0.038,-0.053l-0.037,-0.054l-0.035,-0.055l-0.034,-0.055l-0.033,-0.056l-0.031,-0.057l-0.03,-0.058l-0.029,-0.058l-0.027,-0.06l-0.026,-0.059l-0.024,-0.061l-0.022,-0.061l-0.021,-0.061l-0.02,-0.062l-0.018,-0.062l-0.017,-0.063l-0.015,-0.064l-0.014,-0.064l-0.012,-0.064l-0.01,-0.064l-0.009,-0.065l-0.007,-0.065l-0.006,-0.066l-0.004,-0.066l-0.003,-0.066l0,-0.066l0,-0.066l0.003,-0.066l0.004,-0.066l0.006,-0.065l0.007,-0.065l0.009,-0.065l0.01,-0.065l0.012,-0.064l0.014,-0.064l0.015,-0.063l0.017,-0.063l0.018,-0.063l0.02,-0.062l0.021,-0.061l0.022,-0.061l0.024,-0.06l0.026,-0.06l0.027,-0.059l0.029,-0.059l0.03,-0.057l0.031,-0.057l0.033,-0.057l0.034,-0.055l0.035,-0.055l0.037,-0.054l0.038,-0.053l0.04,-0.052l0.041,-0.051l0.042,-0.05l0.044,-0.05l0.045,-0.048l0.046,-0.048l0.002,-0.001l0.045,-0.044l0.046,-0.043l0.047,-0.042l0.048,-0.04l0.049,-0.039l0.05,-0.038l0.051,-0.037l0.051,-0.035l0.052,-0.034l0.053,-0.032l0.054,-0.032l0.054,-0.03l0.056,-0.028l0.055,-0.027l0.057,-0.026l0.057,-0.025l0.057,-0.023l0.059,-0.021l0.058,-0.02l0.06,-0.019l0.059,-0.018l0.06,-0.016l0.061,-0.014l0.061,-0.013l0.061,-0.011l0.062,-0.01l0.062,-0.009l0.062,-0.007l0.063,-0.005l0.062,-0.004l0.063,-0.002l0.063,-0.001l0.064,0.001l0.063,0.002l0.062,0.004l0.063,0.005l0.062,0.007l0.062,0.009l0.062,0.01l0.061,0.011l0.061,0.013l0.061,0.014l0.06,0.016l0.059,0.018l0.06,0.019l0.058,0.02l0.058,0.021l0.058,0.023l0.057,0.025l0.056,0.026l0.056,0.027l0.055,0.028l0.055,0.03l0.054,0.032l0.053,0.032l0.052,0.034l0.051,0.035l0.051,0.037l0.05,0.038l0.049,0.039l0.048,0.04l0.047,0.042l0.046,0.043l0.045,0.044l0.833,0.833l0.833,-0.833l0.045,-0.044l0.046,-0.043l0.047,-0.042l0.048,-0.04l0.049,-0.039l0.05,-0.038l0.051,-0.037l0.051,-0.035l0.052,-0.034l0.053,-0.032l0.054,-0.032l0.055,-0.03l0.055,-0.028l0.056,-0.027l0.056,-0.026l0.057,-0.025l0.058,-0.023l0.058,-0.021l0.058,-0.02l0.06,-0.019l0.059,-0.018l0.06,-0.016l0.061,-0.014l0.061,-0.013l0.061,-0.011l0.062,-0.01l0.062,-0.009l0.062,-0.007l0.063,-0.005l0.062,-0.004l0.063,-0.002l0.064,-0.001l0.063,0.001Zm-0.102,0.999l-0.038,0.002l-0.038,0.002l-0.038,0.003l-0.038,0.005l-0.037,0.005l-0.038,0.006l-0.037,0.007l-0.037,0.008l-0.037,0.008l-0.036,0.01l-0.037,0.011l-0.035,0.011l-0.036,0.012l-0.035,0.013l-0.035,0.014l-0.035,0.015l-0.034,0.016l-0.034,0.016l-0.033,0.018l-0.033,0.018l-0.033,0.019l-0.032,0.02l-0.032,0.02l-0.031,0.022l-0.031,0.022l-0.03,0.023l-0.03,0.023l-0.029,0.025l-0.029,0.025l-0.028,0.026l-0.032,0.031l-1.535,1.536l-1.535,-1.536l-0.032,-0.031l-0.028,-0.026l-0.029,-0.025l-0.029,-0.024l-0.03,-0.024l-0.03,-0.023l-0.031,-0.022l-0.031,-0.022l-0.032,-0.02l-0.032,-0.02l-0.033,-0.019l-0.032,-0.018l-0.034,-0.018l-0.034,-0.016l-0.034,-0.016l-0.035,-0.015l-0.035,-0.014l-0.035,-0.013l-0.036,-0.012l-0.036,-0.011l-0.036,-0.011l-0.036,-0.01l-0.037,-0.008l-0.037,-0.008l-0.037,-0.007l-0.038,-0.006l-0.037,-0.005l-0.038,-0.005l-0.038,-0.003l-0.038,-0.002l-0.038,-0.002l-0.039,0l-0.038,0l-0.038,0.002l-0.038,0.002l-0.038,0.003l-0.038,0.005l-0.038,0.005l-0.037,0.006l-0.037,0.007l-0.037,0.008l-0.037,0.008l-0.036,0.01l-0.037,0.011l-0.035,0.011l-0.036,0.012l-0.035,0.013l-0.035,0.014l-0.035,0.015l-0.034,0.016l-0.034,0.016l-0.034,0.018l-0.033,0.018l-0.032,0.019l-0.032,0.02l-0.032,0.02l-0.031,0.022l-0.031,0.022l-0.03,0.023l-0.03,0.023l-0.029,0.025l-0.029,0.025l-0.028,0.026l-0.028,0.028l-0.03,0.03l-0.028,0.031l-0.027,0.03l-0.026,0.032l-0.026,0.032l-0.025,0.032l-0.024,0.033l-0.023,0.034l-0.022,0.034l-0.021,0.035l-0.021,0.035l-0.019,0.036l-0.019,0.036l-0.018,0.036l-0.017,0.037l-0.016,0.038l-0.015,0.037l-0.014,0.038l-0.013,0.039l-0.012,0.038l-0.012,0.039l-0.01,0.039l-0.009,0.04l-0.009,0.04l-0.008,0.04l-0.006,0.04l-0.006,0.041l-0.004,0.041l-0.004,0.04l-0.002,0.042l-0.002,0.041l0,0.041l0,0.041l0.002,0.042l0.002,0.041l0.004,0.041l0.004,0.04l0.006,0.041l0.006,0.04l0.008,0.04l0.008,0.04l0.01,0.04l0.01,0.039l0.012,0.039l0.012,0.039l0.013,0.038l0.014,0.038l0.015,0.038l0.016,0.037l0.017,0.037l0.018,0.037l0.019,0.036l0.019,0.035l0.021,0.036l0.021,0.034l0.022,0.034l0.023,0.034l0.024,0.033l0.025,0.033l0.026,0.032l0.026,0.031l0.027,0.031l0.028,0.03l0.033,0.034l3.721,3.721l3.721,-3.721l0.033,-0.034l0.028,-0.03l0.027,-0.031l0.026,-0.031l0.026,-0.032l0.025,-0.033l0.024,-0.033l0.023,-0.034l0.022,-0.034l0.021,-0.034l0.021,-0.036l0.019,-0.035l0.019,-0.036l0.018,-0.037l0.017,-0.037l0.016,-0.037l0.015,-0.038l0.014,-0.038l0.013,-0.038l0.012,-0.039l0.012,-0.039l0.01,-0.039l0.009,-0.04l0.009,-0.04l0.007,-0.04l0.007,-0.04l0.006,-0.041l0.004,-0.04l0.004,-0.041l0.002,-0.041l0.002,-0.041l0,-0.042l0,-0.041l-0.002,-0.041l-0.002,-0.041l-0.004,-0.041l-0.004,-0.041l-0.006,-0.041l-0.007,-0.04l-0.007,-0.04l-0.009,-0.04l-0.009,-0.039l-0.01,-0.04l-0.012,-0.039l-0.012,-0.039l-0.013,-0.038l-0.014,-0.038l-0.015,-0.038l-0.016,-0.037l-0.017,-0.037l-0.018,-0.036l-0.019,-0.036l-0.019,-0.036l-0.021,-0.035l-0.021,-0.035l-0.022,-0.034l-0.023,-0.034l-0.024,-0.033l-0.025,-0.032l-0.026,-0.032l-0.026,-0.032l-0.027,-0.031l-0.028,-0.03l-0.03,-0.03l-0.028,-0.028l-0.028,-0.026l-0.029,-0.025l-0.029,-0.024l-0.03,-0.024l-0.03,-0.023l-0.031,-0.022l-0.031,-0.022l-0.032,-0.02l-0.032,-0.02l-0.032,-0.019l-0.033,-0.018l-0.034,-0.018l-0.034,-0.016l-0.034,-0.016l-0.035,-0.015l-0.035,-0.014l-0.035,-0.013l-0.035,-0.012l-0.036,-0.011l-0.037,-0.011l-0.036,-0.01l-0.037,-0.008l-0.037,-0.008l-0.037,-0.007l-0.037,-0.006l-0.038,-0.005l-0.038,-0.005l-0.038,-0.003l-0.038,-0.002l-0.038,-0.002l-0.038,0l-0.039,0Z" style="fill:#f229a1;"/><path d="M12.711,26.448c0,0 -4.114,-4.113 -7.053,-7.052c-0.77,-0.77 -1.202,-1.814 -1.202,-2.903c0,-1.089 0.432,-2.134 1.202,-2.904c0.001,0 0.001,0 0.001,0c0.77,-0.77 1.814,-1.203 2.903,-1.203c1.089,0 2.134,0.433 2.904,1.203c0.697,0.697 1.245,1.244 1.245,1.244c0,0 0.547,-0.547 1.244,-1.244c0.77,-0.77 1.815,-1.203 2.904,-1.203c1.089,0 2.133,0.433 2.903,1.203c0,0 0,0 0.001,0c0.77,0.77 1.202,1.815 1.202,2.904c0,1.089 -0.432,2.133 -1.202,2.903c-2.939,2.939 -7.052,7.052 -7.052,7.052Z" style="fill:#f229a1;"/><clipPath id="_clip2"><path d="M12.711,26.448c0,0 -4.114,-4.113 -7.053,-7.052c-0.77,-0.77 -1.202,-1.814 -1.202,-2.903c0,-1.089 0.432,-2.134 1.202,-2.904c0.001,0 0.001,0 0.001,0c0.77,-0.77 1.814,-1.203 2.903,-1.203c1.089,0 2.134,0.433 2.904,1.203c0.697,0.697 1.245,1.244 1.245,1.244c0,0 0.547,-0.547 1.244,-1.244c0.77,-0.77 1.815,-1.203 2.904,-1.203c1.089,0 2.133,0.433 2.903,1.203c0,0 0,0 0.001,0c0.77,0.77 1.202,1.815 1.202,2.904c0,1.089 -0.432,2.133 -1.202,2.903c-2.939,2.939 -7.052,7.052 -7.052,7.052Z"/></clipPath><g clip-path="url(#_clip2)"><path d="M16.861,8c0,0 0,1.906 0,3.858c0,2.652 -1.053,5.196 -2.929,7.071c-0.898,0.898 -1.874,1.874 -2.728,2.728c-1.5,1.5 -2.343,3.535 -2.343,5.657c0,2.566 0,5.686 0,5.686l-10,0l0,-25l18,0Z" style="fill:#f88dcf;"/></g><path d="M17.294,11.836l0.11,0.004l0.109,0.006l0.109,0.01l0.108,0.012l0.108,0.015l0.107,0.017l0.107,0.02l0.106,0.023l0.106,0.025l0.104,0.027l0.104,0.031l0.103,0.032l0.102,0.035l0.101,0.038l0.101,0.04l0.099,0.043l0.098,0.045l0.097,0.047l0.096,0.05l0.095,0.052l0.094,0.054l0.092,0.057l0.091,0.059l0.089,0.061l0.089,0.064l0.086,0.066l0.085,0.068l0.084,0.07l0.082,0.073l0.081,0.074l0.079,0.078l0.077,0.079l0.075,0.08l0.072,0.082l0.07,0.084l0.069,0.085l0.065,0.087l0.064,0.088l0.061,0.089l0.059,0.091l0.057,0.093l0.054,0.093l0.053,0.095l0.049,0.096l0.048,0.097l0.045,0.098l0.042,0.1l0.04,0.1l0.038,0.101l0.035,0.102l0.033,0.103l0.03,0.104l0.028,0.105l0.025,0.105l0.022,0.106l0.02,0.107l0.018,0.107l0.014,0.108l0.013,0.108l0.009,0.109l0.007,0.11l0.004,0.109l0.001,0.11l-0.001,0.11l-0.004,0.11l-0.007,0.109l-0.009,0.109l-0.013,0.108l-0.014,0.108l-0.018,0.107l-0.02,0.107l-0.022,0.106l-0.025,0.105l-0.028,0.105l-0.03,0.104l-0.033,0.103l-0.035,0.102l-0.038,0.101l-0.04,0.101l-0.042,0.099l-0.045,0.098l-0.048,0.097l-0.049,0.096l-0.053,0.095l-0.054,0.094l-0.057,0.092l-0.059,0.091l-0.061,0.089l-0.064,0.089l-0.065,0.086l-0.069,0.085l-0.07,0.084l-0.072,0.082l-0.075,0.081l-0.077,0.078l-7.605,7.606l-7.606,-7.606l-0.077,-0.078l-0.075,-0.081l-0.072,-0.082l-0.07,-0.084l-0.068,-0.085l-0.066,-0.086l-0.064,-0.089l-0.061,-0.089l-0.059,-0.091l-0.057,-0.092l-0.054,-0.094l-0.053,-0.095l-0.049,-0.096l-0.048,-0.097l-0.045,-0.098l-0.042,-0.099l-0.04,-0.101l-0.038,-0.101l-0.035,-0.102l-0.033,-0.103l-0.03,-0.104l-0.028,-0.105l-0.025,-0.105l-0.022,-0.106l-0.02,-0.107l-0.018,-0.107l-0.014,-0.108l-0.013,-0.108l-0.009,-0.109l-0.007,-0.109l-0.004,-0.11l-0.001,-0.11l0.001,-0.11l0.004,-0.109l0.007,-0.11l0.009,-0.109l0.013,-0.108l0.014,-0.108l0.018,-0.107l0.02,-0.107l0.022,-0.106l0.025,-0.105l0.028,-0.105l0.03,-0.104l0.033,-0.103l0.035,-0.102l0.038,-0.101l0.04,-0.1l0.042,-0.1l0.045,-0.098l0.048,-0.097l0.049,-0.096l0.053,-0.095l0.054,-0.093l0.057,-0.093l0.059,-0.091l0.061,-0.089l0.064,-0.088l0.066,-0.087l0.068,-0.085l0.07,-0.084l0.072,-0.082l0.075,-0.08l0.077,-0.079l0.001,-0.001l0.078,-0.077l0.081,-0.074l0.082,-0.073l0.084,-0.07l0.085,-0.068l0.086,-0.066l0.089,-0.064l0.089,-0.061l0.091,-0.059l0.092,-0.057l0.094,-0.054l0.095,-0.052l0.096,-0.05l0.097,-0.047l0.098,-0.045l0.099,-0.043l0.101,-0.04l0.101,-0.038l0.102,-0.035l0.103,-0.032l0.104,-0.031l0.105,-0.027l0.105,-0.025l0.106,-0.023l0.107,-0.02l0.107,-0.017l0.108,-0.015l0.108,-0.012l0.109,-0.01l0.109,-0.006l0.11,-0.004l0.11,-0.002l0.11,0.002l0.109,0.004l0.11,0.006l0.108,0.01l0.109,0.012l0.108,0.015l0.107,0.017l0.107,0.02l0.106,0.023l0.105,0.025l0.105,0.027l0.104,0.031l0.103,0.032l0.102,0.035l0.101,0.038l0.1,0.04l0.1,0.043l0.098,0.045l0.097,0.047l0.096,0.05l0.095,0.052l0.093,0.054l0.093,0.057l0.091,0.059l0.089,0.061l0.088,0.064l0.087,0.066l0.085,0.068l0.084,0.07l0.082,0.073l0.08,0.074l0.079,0.077l1.343,1.343l1.342,-1.343l0.079,-0.077l0.08,-0.074l0.082,-0.073l0.084,-0.07l0.085,-0.068l0.087,-0.066l0.088,-0.064l0.09,-0.061l0.09,-0.059l0.093,-0.057l0.093,-0.054l0.095,-0.052l0.096,-0.05l0.097,-0.047l0.098,-0.045l0.1,-0.043l0.1,-0.04l0.101,-0.038l0.102,-0.035l0.103,-0.032l0.104,-0.031l0.105,-0.027l0.105,-0.025l0.106,-0.023l0.107,-0.02l0.107,-0.017l0.108,-0.015l0.109,-0.012l0.108,-0.01l0.11,-0.006l0.109,-0.004l0.11,-0.002l0.11,0.002Zm-0.195,0.999l-0.085,0.003l-0.084,0.006l-0.085,0.007l-0.084,0.009l-0.083,0.012l-0.083,0.013l-0.083,0.016l-0.082,0.017l-0.081,0.02l-0.081,0.021l-0.081,0.023l-0.079,0.026l-0.08,0.027l-0.078,0.029l-0.078,0.031l-0.076,0.033l-0.077,0.035l-0.075,0.037l-0.074,0.038l-0.073,0.04l-0.073,0.043l-0.071,0.043l-0.071,0.046l-0.069,0.048l-0.068,0.049l-0.067,0.051l-0.066,0.053l-0.065,0.054l-0.064,0.056l-0.062,0.058l-0.065,0.064l-2.045,2.045l-2.046,-2.045l-0.065,-0.064l-0.062,-0.058l-0.064,-0.056l-0.065,-0.054l-0.066,-0.053l-0.067,-0.051l-0.068,-0.049l-0.069,-0.048l-0.071,-0.046l-0.071,-0.044l-0.073,-0.042l-0.073,-0.04l-0.074,-0.038l-0.075,-0.037l-0.076,-0.035l-0.077,-0.033l-0.078,-0.031l-0.078,-0.029l-0.079,-0.027l-0.08,-0.026l-0.081,-0.023l-0.081,-0.021l-0.081,-0.02l-0.082,-0.017l-0.083,-0.016l-0.083,-0.013l-0.083,-0.012l-0.084,-0.009l-0.085,-0.007l-0.084,-0.006l-0.085,-0.003l-0.085,-0.001l-0.085,0.001l-0.085,0.003l-0.085,0.006l-0.084,0.007l-0.084,0.009l-0.083,0.012l-0.083,0.013l-0.083,0.016l-0.082,0.017l-0.082,0.02l-0.081,0.021l-0.08,0.023l-0.08,0.026l-0.079,0.027l-0.078,0.029l-0.078,0.031l-0.077,0.033l-0.076,0.035l-0.075,0.037l-0.074,0.038l-0.074,0.04l-0.072,0.043l-0.072,0.043l-0.07,0.046l-0.069,0.048l-0.069,0.049l-0.067,0.051l-0.066,0.052l-0.064,0.055l-0.064,0.056l-0.062,0.058l-0.062,0.06l-0.06,0.061l-0.057,0.062l-0.056,0.064l-0.055,0.065l-0.053,0.066l-0.05,0.067l-0.05,0.068l-0.047,0.069l-0.046,0.071l-0.044,0.071l-0.042,0.073l-0.04,0.073l-0.039,0.074l-0.036,0.075l-0.035,0.076l-0.033,0.077l-0.031,0.078l-0.029,0.078l-0.028,0.079l-0.025,0.08l-0.023,0.081l-0.022,0.081l-0.019,0.081l-0.018,0.082l-0.015,0.083l-0.014,0.083l-0.011,0.083l-0.009,0.084l-0.008,0.085l-0.005,0.084l-0.003,0.085l-0.001,0.085l0.001,0.085l0.003,0.085l0.005,0.085l0.008,0.084l0.009,0.084l0.011,0.083l0.014,0.083l0.015,0.083l0.018,0.082l0.019,0.082l0.022,0.081l0.023,0.08l0.025,0.08l0.028,0.079l0.029,0.078l0.031,0.078l0.033,0.077l0.035,0.076l0.036,0.075l0.039,0.074l0.04,0.074l0.042,0.072l0.044,0.072l0.046,0.07l0.047,0.069l0.05,0.069l0.05,0.067l0.053,0.066l0.055,0.064l0.056,0.064l0.057,0.062l0.064,0.066l6.895,6.894l6.894,-6.895l0.064,-0.065l0.057,-0.062l0.056,-0.064l0.055,-0.064l0.053,-0.066l0.05,-0.067l0.05,-0.069l0.047,-0.069l0.046,-0.07l0.044,-0.072l0.042,-0.072l0.04,-0.074l0.039,-0.074l0.036,-0.075l0.035,-0.076l0.033,-0.077l0.031,-0.078l0.029,-0.078l0.028,-0.079l0.025,-0.08l0.023,-0.08l0.022,-0.081l0.019,-0.082l0.018,-0.082l0.015,-0.083l0.014,-0.083l0.011,-0.083l0.009,-0.084l0.008,-0.084l0.005,-0.085l0.003,-0.085l0.001,-0.085l-0.001,-0.085l-0.003,-0.085l-0.005,-0.084l-0.008,-0.085l-0.009,-0.084l-0.011,-0.083l-0.014,-0.083l-0.015,-0.083l-0.018,-0.082l-0.019,-0.081l-0.022,-0.081l-0.023,-0.081l-0.025,-0.079l-0.028,-0.08l-0.029,-0.078l-0.031,-0.078l-0.033,-0.077l-0.035,-0.076l-0.036,-0.075l-0.039,-0.074l-0.04,-0.073l-0.042,-0.073l-0.044,-0.071l-0.046,-0.071l-0.047,-0.069l-0.049,-0.068l-0.051,-0.067l-0.053,-0.066l-0.054,-0.065l-0.057,-0.064l-0.057,-0.062l-0.06,-0.061l-0.062,-0.06l-0.062,-0.058l-0.064,-0.056l-0.064,-0.055l-0.066,-0.052l-0.067,-0.051l-0.069,-0.049l-0.069,-0.048l-0.07,-0.046l-0.072,-0.043l-0.072,-0.043l-0.074,-0.04l-0.074,-0.038l-0.075,-0.037l-0.076,-0.035l-0.077,-0.033l-0.078,-0.031l-0.078,-0.029l-0.079,-0.027l-0.08,-0.026l-0.08,-0.023l-0.081,-0.021l-0.082,-0.02l-0.082,-0.017l-0.083,-0.016l-0.083,-0.013l-0.083,-0.012l-0.084,-0.009l-0.084,-0.007l-0.085,-0.006l-0.085,-0.003l-0.085,-0.001l-0.085,0.001Z" style="fill:#f229a1;"/></g></svg>