<?xml version="1.0" encoding="UTF-8" standalone="no"?><!DOCTYPE svg PUBLIC "-//W3C//DTD SVG 1.1//EN" "http://www.w3.org/Graphics/SVG/1.1/DTD/svg11.dtd"><svg width="100%" height="100%" viewBox="0 0 32 32" version="1.1" xmlns="http://www.w3.org/2000/svg" xmlns:xlink="http://www.w3.org/1999/xlink" xml:space="preserve" xmlns:serif="http://www.serif.com/" style="fill-rule:evenodd;clip-rule:evenodd;stroke-linejoin:round;stroke-miterlimit:1.41421;"><rect id="battery_medium" x="0" y="0" width="32" height="32" style="fill:none;"/><clipPath id="_clip1"><rect x="0" y="0" width="32" height="32"/></clipPath><g clip-path="url(#_clip1)"><g id="outline"><path d="M29,10c0,-2.209 -1.791,-4 -4,-4c-5.534,0 -15.466,0 -21,0c-2.209,0 -4,1.791 -4,4c0,3.486 0,8.514 0,12c0,2.209 1.791,4 4,4c5.534,0 15.466,0 21,0c2.209,0 4,-1.791 4,-4c0,-3.486 0,-8.514 0,-12Z"/><path d="M32,14c0,-1.657 -1.343,-3 -3,-3c-2.27,0 -5,0 -5,0l0,10c0,0 2.73,0 5,0c1.657,0 3,-1.343 3,-3c0,-1.265 0,-2.735 0,-4Z"/></g><path d="M30,14c0,-0.265 -0.105,-0.52 -0.293,-0.707c-0.187,-0.188 -0.442,-0.293 -0.707,-0.293c-1.185,0 -3,0 -3,0l0,6c0,0 1.815,0 3,0c0.265,0 0.52,-0.105 0.707,-0.293c0.188,-0.187 0.293,-0.442 0.293,-0.707c0,-1.11 0,-2.89 0,-4Z" style="fill:#999;"/><g id="emoji"><path d="M27,10c0,-0.53 -0.211,-1.039 -0.586,-1.414c-0.375,-0.375 -0.884,-0.586 -1.414,-0.586c-4.683,0 -16.317,0 -21,0c-0.53,0 -1.039,0.211 -1.414,0.586c-0.375,0.375 -0.586,0.884 -0.586,1.414c0,3.074 0,8.926 0,12c0,0.53 0.211,1.039 0.586,1.414c0.375,0.375 0.884,0.586 1.414,0.586c4.683,0 16.317,0 21,0c0.53,0 1.039,-0.211 1.414,-0.586c0.375,-0.375 0.586,-0.884 0.586,-1.414c0,-3.074 0,-8.926 0,-12Z" style="fill:#fff;"/></g><path d="M10,10c0,-0.552 -0.448,-1 -1,-1c-1.322,0 -3.638,0 -4.96,0c-0.552,0 -1,0.448 -1,1c0,2.577 0,9.423 0,12c0,0.552 0.448,1 1,1c1.322,0 3.638,0 4.96,0c0.552,0 1,-0.448 1,-1c0,-2.577 0,-9.423 0,-12Z" style="fill:#ef9b00;"/><path d="M18.04,10c0,-0.552 -0.448,-1 -1,-1c-1.339,0 -3.701,0 -5.04,0c-0.552,0 -1,0.448 -1,1c0,2.577 0,9.423 0,12c0,0.552 0.448,1 1,1c1.339,0 3.701,0 5.04,0c0.552,0 1,-0.448 1,-1c0,-2.577 0,-9.423 0,-12Z" style="fill:#ef9b00;"/></g></svg>