<?xml version="1.0" encoding="UTF-8" standalone="no"?>
<!DOCTYPE svg PUBLIC "-//W3C//DTD SVG 1.1//EN" "http://www.w3.org/Graphics/SVG/1.1/DTD/svg11.dtd">
<svg width="100%" height="100%" viewBox="0 0 32 32" version="1.1" xmlns="http://www.w3.org/2000/svg" xmlns:xlink="http://www.w3.org/1999/xlink" xml:space="preserve" xmlns:serif="http://www.serif.com/" style="fill-rule:evenodd;clip-rule:evenodd;stroke-linejoin:round;stroke-miterlimit:2;">
    <rect id="autism" x="0" y="0" width="32" height="32" style="fill:none;"/>
    <clipPath id="_clip1">
        <rect x="0" y="0" width="32" height="32"/>
    </clipPath>
    <g clip-path="url(#_clip1)">
        <g id="outline">
            <path id="path4" d="M2,15l0,-0.048c-0.005,-2.026 0.575,-4.081 1.806,-5.793c1.239,-1.724 3.061,-2.659 4.868,-2.659c1.841,0 3.626,0.979 4.868,2.656c0.75,1.015 1.615,2.184 2.458,3.323l0,0.001l0,-0.001c0.843,-1.139 1.708,-2.308 2.458,-3.323c1.242,-1.677 3.027,-2.656 4.868,-2.656c1.807,0 3.629,0.935 4.868,2.659c1.231,1.712 1.811,3.767 1.806,5.793l0,0.048l0,0l0,2l0,0c0.014,2.042 -0.565,4.115 -1.806,5.841c-1.239,1.724 -3.061,2.659 -4.868,2.659c-1.841,0 -3.626,-0.979 -4.868,-2.656c-0.75,-1.015 -1.615,-2.184 -2.458,-3.323l0,-0.001l0,0.001c-0.843,1.139 -1.708,2.308 -2.458,3.323c-1.242,1.677 -3.027,2.656 -4.868,2.656c-1.807,0 -3.629,-0.935 -4.868,-2.659c-1.241,-1.726 -1.82,-3.799 -1.806,-5.841l0,0l0,-2l0,0Zm24.943,1c-0.14,-1.11 -0.52,-2.184 -1.163,-3.059c-0.744,-1.012 -1.645,-1.441 -2.454,-1.441c-0.81,0 -1.676,0.387 -2.456,1.441l-2.264,3.059l2.264,3.059c0.78,1.054 1.646,1.441 2.456,1.441c0.809,0 1.71,-0.429 2.454,-1.441c0.643,-0.875 1.023,-1.949 1.163,-3.059Zm-13.549,0l-2.264,-3.059c-0.774,-1.046 -1.633,-1.435 -2.437,-1.441l-0.019,0c-0.809,0 -1.71,0.429 -2.454,1.441c-0.643,0.875 -1.023,1.949 -1.163,3.059c0.14,1.11 0.52,2.184 1.163,3.059c0.744,1.012 1.645,1.441 2.454,1.441l0.019,0c0.804,-0.006 1.663,-0.395 2.437,-1.441l2.264,-3.059Z" style="fill:none;fill-rule:nonzero;stroke:#000;stroke-width:4px;"/>
            <rect x="3" y="11" width="26" height="10.491"/>
        </g>
        <g id="emoji">
            <path id="path41" serif:id="path4" d="M2,15l0.179,0c0.256,-1.361 0.792,-2.68 1.627,-3.841c1.239,-1.724 3.061,-2.659 4.868,-2.659c1.841,0 3.626,0.979 4.868,2.656c0.75,1.015 1.615,2.184 2.458,3.323l0,0.001l0,-0.001c0.843,-1.139 1.708,-2.308 2.458,-3.323c1.242,-1.677 3.027,-2.656 4.868,-2.656c1.807,0 3.629,0.935 4.868,2.659c0.835,1.161 1.371,2.48 1.627,3.841l0.179,0l0,2l0,0c0.014,2.042 -0.565,4.115 -1.806,5.841c-1.239,1.724 -3.061,2.659 -4.868,2.659c-1.841,0 -3.626,-0.979 -4.868,-2.656c-0.75,-1.015 -1.615,-2.184 -2.458,-3.323l0,-0.001l0,0.001c-0.843,1.139 -1.708,2.308 -2.458,3.323c-1.242,1.677 -3.027,2.656 -4.868,2.656c-1.807,0 -3.629,-0.935 -4.868,-2.659c-1.241,-1.726 -1.82,-3.799 -1.806,-5.841l0,0l0,-2Zm15.866,2l3.004,4.059c0.78,1.054 1.646,1.441 2.456,1.441c0.809,0 1.71,-0.429 2.454,-1.441c0.835,-1.137 1.227,-2.607 1.224,-4.059l0,-0.034c-0.003,-1.441 -0.395,-2.897 -1.224,-4.025c-0.744,-1.012 -1.645,-1.441 -2.454,-1.441c-0.81,0 -1.676,0.387 -2.456,1.441l-3.004,4.059Zm-9.192,-5.5c-0.809,0 -1.71,0.429 -2.454,1.441c-0.829,1.128 -1.221,2.584 -1.224,4.025l0,0.034c-0.003,1.452 0.389,2.922 1.224,4.059c0.744,1.012 1.645,1.441 2.454,1.441l0.019,0c0.804,-0.006 1.663,-0.395 2.437,-1.441l3.004,-4.059l-3.004,-4.059c-0.774,-1.046 -1.633,-1.435 -2.437,-1.441l-0.019,0Z" style="fill-rule:nonzero;"/>
            <clipPath id="_clip2">
                <path d="M2,15l0.179,0c0.256,-1.361 0.792,-2.68 1.627,-3.841c1.239,-1.724 3.061,-2.659 4.868,-2.659c1.841,0 3.626,0.979 4.868,2.656c0.75,1.015 1.615,2.184 2.458,3.323l0,0.001l0,-0.001c0.843,-1.139 1.708,-2.308 2.458,-3.323c1.242,-1.677 3.027,-2.656 4.868,-2.656c1.807,0 3.629,0.935 4.868,2.659c0.835,1.161 1.371,2.48 1.627,3.841l0.179,0l0,2l0,0c0.014,2.042 -0.565,4.115 -1.806,5.841c-1.239,1.724 -3.061,2.659 -4.868,2.659c-1.841,0 -3.626,-0.979 -4.868,-2.656c-0.75,-1.015 -1.615,-2.184 -2.458,-3.323l0,-0.001l0,0.001c-0.843,1.139 -1.708,2.308 -2.458,3.323c-1.242,1.677 -3.027,2.656 -4.868,2.656c-1.807,0 -3.629,-0.935 -4.868,-2.659c-1.241,-1.726 -1.82,-3.799 -1.806,-5.841l0,0l0,-2Zm15.866,2l3.004,4.059c0.78,1.054 1.646,1.441 2.456,1.441c0.809,0 1.71,-0.429 2.454,-1.441c0.835,-1.137 1.227,-2.607 1.224,-4.059l0,-0.034c-0.003,-1.441 -0.395,-2.897 -1.224,-4.025c-0.744,-1.012 -1.645,-1.441 -2.454,-1.441c-0.81,0 -1.676,0.387 -2.456,1.441l-3.004,4.059Zm-9.192,-5.5c-0.809,0 -1.71,0.429 -2.454,1.441c-0.829,1.128 -1.221,2.584 -1.224,4.025l0,0.034c-0.003,1.452 0.389,2.922 1.224,4.059c0.744,1.012 1.645,1.441 2.454,1.441l0.019,0c0.804,-0.006 1.663,-0.395 2.437,-1.441l3.004,-4.059l-3.004,-4.059c-0.774,-1.046 -1.633,-1.435 -2.437,-1.441l-0.019,0Z" clip-rule="nonzero"/>
            </clipPath>
            <g clip-path="url(#_clip2)">
                <rect x="2" y="6" width="6" height="20" style="fill:#850e16;"/>
                <rect x="6.667" y="6" width="6.333" height="20" style="fill:#844008;"/>
                <rect x="11.333" y="6" width="6.074" height="20" style="fill:#826400;"/>
                <rect x="16" y="6" width="6" height="20" style="fill:#26670a;"/>
                <rect x="20.667" y="6" width="5.842" height="20" style="fill:#0f6572;"/>
                <rect x="25.333" y="6" width="6.03" height="20" style="fill:#49177b;"/>
            </g>
            <path id="path42" serif:id="path4" d="M16,12.48l0,-0.001c0.843,-1.139 1.708,-2.308 2.458,-3.323c1.242,-1.677 3.027,-2.656 4.868,-2.656c1.807,0 3.629,0.935 4.868,2.659c1.231,1.712 1.811,3.767 1.806,5.793l0,0.048c0.014,2.042 -0.565,4.115 -1.806,5.841c-1.239,1.724 -3.061,2.659 -4.868,2.659c-1.841,0 -3.626,-0.979 -4.868,-2.656c-0.75,-1.015 -1.615,-2.184 -2.458,-3.323l0,-0.001l0,0.001c-0.843,1.139 -1.708,2.308 -2.458,3.323c-1.242,1.677 -3.027,2.656 -4.868,2.656c-1.807,0 -3.629,-0.935 -4.868,-2.659c-1.241,-1.726 -1.82,-3.799 -1.806,-5.841l0,-0.048c-0.005,-2.026 0.575,-4.081 1.806,-5.793c1.239,-1.724 3.061,-2.659 4.868,-2.659c1.841,0 3.626,0.979 4.868,2.656c0.75,1.015 1.615,2.184 2.458,3.323l0,0.001Zm1.866,2.52l3.004,4.059c0.78,1.054 1.646,1.441 2.456,1.441c0.809,0 1.71,-0.429 2.454,-1.441c0.835,-1.137 1.227,-2.607 1.224,-4.059l0,-0.034c-0.003,-1.441 -0.395,-2.897 -1.224,-4.025c-0.744,-1.012 -1.645,-1.441 -2.454,-1.441c-0.81,0 -1.676,0.387 -2.456,1.441l-3.004,4.059Zm-9.192,-5.5c-0.809,0 -1.71,0.429 -2.454,1.441c-0.829,1.128 -1.221,2.584 -1.224,4.025l0,0.034c-0.003,1.452 0.389,2.922 1.224,4.059c0.744,1.012 1.645,1.441 2.454,1.441l0.019,0c0.804,-0.006 1.663,-0.395 2.437,-1.441l3.004,-4.059l-3.004,-4.059c-0.774,-1.046 -1.633,-1.435 -2.437,-1.441l-0.019,0Z" style="fill-rule:nonzero;"/>
            <clipPath id="_clip3">
                <path d="M16,12.48l0,-0.001c0.843,-1.139 1.708,-2.308 2.458,-3.323c1.242,-1.677 3.027,-2.656 4.868,-2.656c1.807,0 3.629,0.935 4.868,2.659c1.231,1.712 1.811,3.767 1.806,5.793l0,0.048c0.014,2.042 -0.565,4.115 -1.806,5.841c-1.239,1.724 -3.061,2.659 -4.868,2.659c-1.841,0 -3.626,-0.979 -4.868,-2.656c-0.75,-1.015 -1.615,-2.184 -2.458,-3.323l0,-0.001l0,0.001c-0.843,1.139 -1.708,2.308 -2.458,3.323c-1.242,1.677 -3.027,2.656 -4.868,2.656c-1.807,0 -3.629,-0.935 -4.868,-2.659c-1.241,-1.726 -1.82,-3.799 -1.806,-5.841l0,-0.048c-0.005,-2.026 0.575,-4.081 1.806,-5.793c1.239,-1.724 3.061,-2.659 4.868,-2.659c1.841,0 3.626,0.979 4.868,2.656c0.75,1.015 1.615,2.184 2.458,3.323l0,0.001Zm1.866,2.52l3.004,4.059c0.78,1.054 1.646,1.441 2.456,1.441c0.809,0 1.71,-0.429 2.454,-1.441c0.835,-1.137 1.227,-2.607 1.224,-4.059l0,-0.034c-0.003,-1.441 -0.395,-2.897 -1.224,-4.025c-0.744,-1.012 -1.645,-1.441 -2.454,-1.441c-0.81,0 -1.676,0.387 -2.456,1.441l-3.004,4.059Zm-9.192,-5.5c-0.809,0 -1.71,0.429 -2.454,1.441c-0.829,1.128 -1.221,2.584 -1.224,4.025l0,0.034c-0.003,1.452 0.389,2.922 1.224,4.059c0.744,1.012 1.645,1.441 2.454,1.441l0.019,0c0.804,-0.006 1.663,-0.395 2.437,-1.441l3.004,-4.059l-3.004,-4.059c-0.774,-1.046 -1.633,-1.435 -2.437,-1.441l-0.019,0Z" clip-rule="nonzero"/>
            </clipPath>
            <g clip-path="url(#_clip3)">
                <rect x="2" y="5" width="6" height="19" style="fill:#e82731;"/>
                <rect x="6.667" y="5" width="6.333" height="19" style="fill:#f1780f;"/>
                <rect x="11.333" y="5" width="6.074" height="19" style="fill:#eeba00;"/>
                <rect x="16" y="5" width="6" height="19" style="fill:#4cbf1e;"/>
                <rect x="20.667" y="5" width="5.842" height="19" style="fill:#30bfdb;"/>
                <rect x="25.333" y="5" width="6.03" height="19" style="fill:#9146dc;"/>
            </g>
        </g>
    </g>
</svg>
