<?xml version="1.0" encoding="UTF-8" standalone="no"?><!DOCTYPE svg PUBLIC "-//W3C//DTD SVG 1.1//EN" "http://www.w3.org/Graphics/SVG/1.1/DTD/svg11.dtd"><svg width="100%" height="100%" viewBox="0 0 32 32" version="1.1" xmlns="http://www.w3.org/2000/svg" xmlns:xlink="http://www.w3.org/1999/xlink" xml:space="preserve" xmlns:serif="http://www.serif.com/" style="fill-rule:evenodd;clip-rule:evenodd;stroke-linecap:square;stroke-linejoin:round;stroke-miterlimit:1.5;"><rect id="red_umbrella" x="0" y="0" width="32" height="32" style="fill:none;"/><clipPath id="_clip1"><rect x="0" y="0" width="32" height="32"/></clipPath><g clip-path="url(#_clip1)"><g id="outline"><path d="M16,11c0,0 0,11.31 0,16c0,0.53 -0.211,1.039 -0.586,1.414c-0.375,0.375 -0.884,0.586 -1.414,0.586c-0.53,0 -1.039,-0.211 -1.414,-0.586c-0.375,-0.375 -0.586,-0.884 -0.586,-1.414c0,-0.551 0,-1 0,-1" style="fill:none;stroke:#000;stroke-width:6px;"/><path d="M16,2c0,0 -4.475,2.034 -7.716,3.507c-2.125,0.966 -3.853,2.632 -4.897,4.719c-0.711,1.421 -1.387,2.774 -1.387,2.774c0,0 1.246,0 2.348,0c1.086,0 2.158,0.253 3.13,0.739c1.139,0.57 2.522,1.261 2.522,1.261c0,0 3.107,-0.518 4.849,-0.808c0.762,-0.127 1.54,-0.127 2.302,0c1.742,0.29 4.849,0.808 4.849,0.808c0,0 1.383,-0.691 2.522,-1.261c0.972,-0.486 2.044,-0.739 3.13,-0.739c1.102,0 2.348,0 2.348,0c0,0 -0.676,-1.353 -1.387,-2.774c-1.044,-2.087 -2.772,-3.753 -4.897,-4.719c-3.241,-1.473 -7.716,-3.507 -7.716,-3.507Z" style="fill:none;stroke:#000;stroke-width:4px;stroke-linecap:round;stroke-miterlimit:3;"/></g><g id="emoji"><path d="M16,11c0,0 0,11.31 0,16c0,0.53 -0.211,1.039 -0.586,1.414c-0.375,0.375 -0.884,0.586 -1.414,0.586c-0.53,0 -1.039,-0.211 -1.414,-0.586c-0.375,-0.375 -0.586,-0.884 -0.586,-1.414c0,-0.551 0,-1 0,-1" style="fill:none;stroke:#525252;stroke-width:2px;"/><rect x="15" y="13.249" width="2" height="6.751" style="fill:#3d3d3d;"/><path d="M16,2c0,0 -4.475,2.034 -7.716,3.507c-2.125,0.966 -3.853,2.632 -4.897,4.719c-0.711,1.421 -1.387,2.774 -1.387,2.774c0,0 1.246,0 2.348,0c1.086,0 2.158,0.253 3.13,0.739c1.139,0.57 2.522,1.261 2.522,1.261c0,0 3.107,-0.518 4.849,-0.808c0.762,-0.127 1.54,-0.127 2.302,0c1.742,0.29 4.849,0.808 4.849,0.808c0,0 1.383,-0.691 2.522,-1.261c0.972,-0.486 2.044,-0.739 3.13,-0.739c1.102,0 2.348,0 2.348,0c0,0 -0.676,-1.353 -1.387,-2.774c-1.044,-2.087 -2.772,-3.753 -4.897,-4.719c-3.241,-1.473 -7.716,-3.507 -7.716,-3.507Z" style="fill:#e82731;"/><clipPath id="_clip2"><path d="M16,2c0,0 -4.475,2.034 -7.716,3.507c-2.125,0.966 -3.853,2.632 -4.897,4.719c-0.711,1.421 -1.387,2.774 -1.387,2.774c0,0 1.246,0 2.348,0c1.086,0 2.158,0.253 3.13,0.739c1.139,0.57 2.522,1.261 2.522,1.261c0,0 3.107,-0.518 4.849,-0.808c0.762,-0.127 1.54,-0.127 2.302,0c1.742,0.29 4.849,0.808 4.849,0.808c0,0 1.383,-0.691 2.522,-1.261c0.972,-0.486 2.044,-0.739 3.13,-0.739c1.102,0 2.348,0 2.348,0c0,0 -0.676,-1.353 -1.387,-2.774c-1.044,-2.087 -2.772,-3.753 -4.897,-4.719c-3.241,-1.473 -7.716,-3.507 -7.716,-3.507Z"/></clipPath><g clip-path="url(#_clip2)"><path d="M16,2c0,0 -2.532,3.798 -3.567,5.351c-0.287,0.43 -0.505,0.902 -0.647,1.399c-0.517,1.807 -1.786,6.25 -1.786,6.25" style="fill:none;stroke:#891a20;stroke-width:2px;stroke-miterlimit:3;"/><path d="M16,2c0,0 2.532,3.798 3.567,5.351c0.287,0.43 0.505,0.902 0.647,1.399c0.517,1.807 1.786,6.25 1.786,6.25" style="fill:none;stroke:#891a20;stroke-width:2px;stroke-miterlimit:3;"/></g></g></g></svg>