<?xml version="1.0" encoding="UTF-8" standalone="no"?><!DOCTYPE svg PUBLIC "-//W3C//DTD SVG 1.1//EN" "http://www.w3.org/Graphics/SVG/1.1/DTD/svg11.dtd"><svg width="100%" height="100%" viewBox="0 0 32 32" version="1.1" xmlns="http://www.w3.org/2000/svg" xmlns:xlink="http://www.w3.org/1999/xlink" xml:space="preserve" style="fill-rule:evenodd;clip-rule:evenodd;stroke-linejoin:round;stroke-miterlimit:1.41421;"><rect id="factory_worker" x="0" y="0" width="32" height="32" style="fill:none;"/><clipPath id="_clip1"><rect x="0" y="0" width="32" height="32"/></clipPath><g clip-path="url(#_clip1)"><g id="outline"><path d="M21.937,14c0.005,0.037 0.009,0.074 0.014,0.111c0.029,0.263 0.043,0.526 0.048,0.79c0.005,0.733 0.005,1.465 0,2.198c-0.003,0.173 -0.01,0.345 -0.023,0.517c0.186,-0.268 0.396,-0.517 0.624,-0.751l2.39,-2.391c-0.001,-0.858 0.001,-1.716 0.011,-2.574c0.004,-0.098 0.004,-0.098 0.01,-0.197c0.04,-0.457 0.145,-0.903 0.332,-1.324c0.212,-0.479 0.52,-0.916 0.9,-1.277c0.426,-0.406 0.942,-0.715 1.5,-0.9c0.403,-0.133 0.821,-0.197 1.245,-0.202l3.012,0c0,2.004 0,4.008 0,6.012c-0.005,0.424 -0.069,0.842 -0.202,1.245c-0.175,0.527 -0.46,1.016 -0.832,1.428c-0.441,0.486 -1,0.86 -1.617,1.081c-0.251,0.09 -0.508,0.152 -0.77,0.19c-0.807,0.807 -1.614,1.615 -2.421,2.422c-0.016,0.016 -0.031,0.031 -0.045,0.048c-0.02,0.026 -0.038,0.053 -0.054,0.081c-0.041,0.08 -0.058,0.162 -0.059,0.251l0,2.008c0.4,0.359 0.704,0.824 0.866,1.343c0.059,0.191 0.099,0.388 0.119,0.586c0.013,0.129 0.012,0.156 0.015,0.28l0,7.025l-23,0c0,-0.725 -0.012,-1.451 0.002,-2.176c0.023,-0.746 0.156,-1.482 0.408,-2.186c0.172,-0.482 0.399,-0.945 0.672,-1.379c0.829,-1.312 2.094,-2.326 3.556,-2.849c0.134,-0.048 0.269,-0.092 0.405,-0.131c-0.504,-0.398 -0.96,-0.856 -1.354,-1.363c-0.461,-0.592 -0.838,-1.248 -1.117,-1.945c-0.254,-0.636 -0.427,-1.305 -0.511,-1.985c-0.037,-0.294 -0.055,-0.59 -0.06,-0.887c-0.005,-0.733 -0.005,-1.465 0,-2.198c0.005,-0.264 0.019,-0.527 0.048,-0.79c0.005,-0.037 0.009,-0.074 0.014,-0.111l-2.838,0c0.816,-2.447 1.607,-4.902 2.448,-7.341c0.027,-0.075 0.056,-0.149 0.087,-0.223c0.188,-0.432 0.442,-0.83 0.765,-1.174c0.53,-0.564 1.222,-0.967 1.974,-1.15c0.283,-0.068 0.571,-0.103 0.862,-0.111c3.093,-0.031 6.185,-0.031 9.278,0c0.501,0.015 0.999,0.111 1.462,0.308c0.281,0.12 0.549,0.267 0.797,0.446c0.482,0.347 0.884,0.803 1.169,1.324c0.102,0.187 0.187,0.381 0.26,0.58l0.023,0.066l2.425,7.275l-2.838,0Z"/></g><g id="emoji"><path d="M20,26c1.214,0.912 2,2.364 2,4l0,0l-2,0l-0.933,-1.929l0.933,-2.071Z" style="fill:#173899;"/><path d="M11.5,25l2,2l0.5,3l-8,0c0,0 0,-0.001 0,-0.002c0,-1.326 0.527,-2.597 1.464,-3.534c0.937,-0.937 2.208,-1.464 3.534,-1.464l0.502,0Zm5,0l0.5,0c1.126,0 2.164,0.372 3,1l0,4l-6,0l0.5,-3.025l2,-1.975Z" style="fill:#304fbd;"/><path d="M14,30l-1.637,-3.275c0.513,0.178 1.064,-0.725 1.637,-0.725c0.573,0 1.124,0.903 1.637,0.725l-1.637,3.275Z" style="fill:#fff;"/><path d="M16.5,25l-0.863,1.725c-0.513,0.178 -1.064,0.275 -1.637,0.275c-0.573,0 -1.124,-0.097 -1.637,-0.275l-0.863,-1.725l5,0Z" style="fill:#f10dc3;"/><path d="M20,15c0,-1.591 -0.632,-3.117 -1.757,-4.243c-1.126,-1.125 -2.652,-1.757 -4.243,-1.757c0,0 0,0 0,0c-1.591,0 -3.117,0.632 -4.243,1.757c-1.125,1.126 -1.757,2.652 -1.757,4.243c0,0.663 0,1.337 0,2c0,1.591 0.632,3.117 1.757,4.243c1.126,1.125 2.652,1.757 4.243,1.757c0,0 0,0 0,0c1.591,0 3.117,-0.632 4.243,-1.757c1.125,-1.126 1.757,-2.652 1.757,-4.243c0,-0.663 0,-1.337 0,-2Z" style="fill:#f10dc3;"/><clipPath id="_clip2"><path d="M20,15c0,-1.591 -0.632,-3.117 -1.757,-4.243c-1.126,-1.125 -2.652,-1.757 -4.243,-1.757c0,0 0,0 0,0c-1.591,0 -3.117,0.632 -4.243,1.757c-1.125,1.126 -1.757,2.652 -1.757,4.243c0,0.663 0,1.337 0,2c0,1.591 0.632,3.117 1.757,4.243c1.126,1.125 2.652,1.757 4.243,1.757c0,0 0,0 0,0c1.591,0 3.117,-0.632 4.243,-1.757c1.125,-1.126 1.757,-2.652 1.757,-4.243c0,-0.663 0,-1.337 0,-2Z"/></clipPath><g clip-path="url(#_clip2)"><rect x="7" y="10" width="14" height="5" style="fill:#a90eb1;"/><path d="M18,15c0,-0.552 -0.448,-1 -1,-1c-0.552,0 -1,0.448 -1,1c0,0.322 0,0.678 0,1c0,0.552 0.448,1 1,1c0.552,0 1,-0.448 1,-1c0,-0.322 0,-0.678 0,-1Zm-6,0c0,-0.552 -0.448,-1 -1,-1c-0.552,0 -1,0.448 -1,1c0,0.322 0,0.678 0,1c0,0.552 0.448,1 1,1c0.552,0 1,-0.448 1,-1c0,-0.322 0,-0.678 0,-1Z"/></g><path d="M6,12c0,0 0.954,-2.862 1.544,-4.632c0.272,-0.817 1.037,-1.368 1.898,-1.368c2.308,0 6.808,0 9.116,0c0.861,0 1.626,0.551 1.898,1.368c0.59,1.77 1.544,4.632 1.544,4.632l-16,0Z" style="fill:#1a1a1a;"/><clipPath id="_clip3"><path d="M6,12c0,0 0.954,-2.862 1.544,-4.632c0.272,-0.817 1.037,-1.368 1.898,-1.368c2.308,0 6.808,0 9.116,0c0.861,0 1.626,0.551 1.898,1.368c0.59,1.77 1.544,4.632 1.544,4.632l-16,0Z"/></clipPath><g clip-path="url(#_clip3)"><path d="M18.639,4.001c0.212,0.006 0.422,0.025 0.632,0.063c0.585,0.105 1.144,0.343 1.626,0.691c0.248,0.178 0.473,0.385 0.675,0.614c0.333,0.377 0.582,0.819 0.755,1.29l0.023,0.067l3.425,10.274l-23.55,0c1.149,-3.447 2.263,-6.906 3.448,-10.341c0.028,-0.075 0.056,-0.15 0.087,-0.224c0.189,-0.431 0.442,-0.83 0.765,-1.173c0.53,-0.564 1.222,-0.967 1.974,-1.15c0.283,-0.068 0.571,-0.103 0.862,-0.111c3.093,-0.031 6.185,-0.031 9.278,0Zm-9.188,3.999c-0.004,0 -0.007,-0.002 -0.009,0c-0.003,0.002 -0.003,0.007 -0.004,0.01l-1.663,4.99l12.45,0c-0.554,-1.664 -1.109,-3.327 -1.663,-4.991c-0.002,-0.005 -0.001,-0.007 -0.004,-0.009c-0.003,-0.001 -0.006,0 -0.009,0c-3.033,0 -6.065,0 -9.098,0Z" style="fill:#2f2f2f;fill-rule:nonzero;"/><path d="M19,5l-10,0c0,0 0,1.127 0,2c0,0.552 0.448,1 1,1c1.916,0 6.084,0 8,0c0.552,0 1,-0.448 1,-1c0,-0.873 0,-2 0,-2Z" style="fill:#4f89ca;"/></g><path d="M30,10c0,0 -0.449,0 -1,0c-0.53,0 -1.039,0.211 -1.414,0.586c-0.375,0.375 -0.586,0.884 -0.586,1.414c0,1.745 0,4 0,4c0,0 0.449,0 1,0c0.53,0 1.039,-0.211 1.414,-0.586c0.375,-0.375 0.586,-0.884 0.586,-1.414c0,-1.745 0,-4 0,-4Z" style="fill:#f89500;"/><clipPath id="_clip4"><path d="M30,10c0,0 -0.449,0 -1,0c-0.53,0 -1.039,0.211 -1.414,0.586c-0.375,0.375 -0.586,0.884 -0.586,1.414c0,1.745 0,4 0,4c0,0 0.449,0 1,0c0.53,0 1.039,-0.211 1.414,-0.586c0.375,-0.375 0.586,-0.884 0.586,-1.414c0,-1.745 0,-4 0,-4Z"/></clipPath><g clip-path="url(#_clip4)"><path d="M29,12c0,0 0,0 0,0c-1.105,0 -2,0.895 -2,2c0,1 0,2 0,2c0,0 0,0 0,0c1.105,0 2,-0.895 2,-2c0,-1 0,-2 0,-2Z" style="fill:#ffc772;"/></g><path d="M26.207,17.5c-0.506,0.506 -1.018,1.007 -1.518,1.519c-0.042,0.046 -0.083,0.092 -0.123,0.139c-0.256,0.321 -0.437,0.692 -0.517,1.095c-0.033,0.163 -0.047,0.327 -0.049,0.493l0,3.754l-1,0c0,-1.281 -0.015,-2.563 0.001,-3.844c0.009,-0.231 0.034,-0.458 0.085,-0.683c0.106,-0.473 0.312,-0.923 0.601,-1.313c0.102,-0.138 0.216,-0.267 0.336,-0.39l1.477,-1.477c0.236,0.236 0.471,0.471 0.707,0.707Z" style="fill:#999;fill-rule:nonzero;"/><path d="M25,25c0,-0.552 -0.448,-1 -1,-1c-0.322,0 -0.678,0 -1,0c-0.552,0 -1,0.448 -1,1c0,1.707 0,5 0,5l3,0c0,0 0,-3.293 0,-5Z" style="fill:#666;"/></g></g></svg>