<?xml version="1.0" encoding="UTF-8" standalone="no"?><!DOCTYPE svg PUBLIC "-//W3C//DTD SVG 1.1//EN" "http://www.w3.org/Graphics/SVG/1.1/DTD/svg11.dtd"><svg width="100%" height="100%" viewBox="0 0 32 32" version="1.1" xmlns="http://www.w3.org/2000/svg" xmlns:xlink="http://www.w3.org/1999/xlink" xml:space="preserve" style="fill-rule:evenodd;clip-rule:evenodd;stroke-linejoin:round;stroke-miterlimit:1.41421;"><rect id="farmer" x="0" y="0" width="32" height="32" style="fill:none;"/><clipPath id="_clip1"><rect x="0" y="0" width="32" height="32"/></clipPath><g clip-path="url(#_clip1)"><g id="outline"><path d="M5,15l-1.025,0c-0.14,-0.003 -0.279,-0.012 -0.418,-0.032c-0.29,-0.044 -0.574,-0.13 -0.839,-0.255c-0.356,-0.168 -0.678,-0.407 -0.942,-0.699c-0.231,-0.254 -0.417,-0.549 -0.548,-0.866c-0.113,-0.271 -0.185,-0.559 -0.214,-0.852c-0.088,-0.887 0.233,-1.787 0.864,-2.418c0.209,-0.208 0.449,-0.386 0.709,-0.525c0.302,-0.161 0.631,-0.27 0.97,-0.321c0.139,-0.02 0.278,-0.029 0.418,-0.032l1.713,0c0.277,-1.105 0.542,-2.214 0.831,-3.316c0.029,-0.103 0.029,-0.102 0.06,-0.204c0.143,-0.432 0.333,-0.843 0.583,-1.224c0.619,-0.943 1.557,-1.66 2.63,-2.01c0.468,-0.153 0.952,-0.229 1.443,-0.245c1.177,-0.013 2.353,-0.013 3.53,0c0.525,0.017 1.043,0.104 1.541,0.278c1.131,0.395 2.1,1.201 2.694,2.242c0.226,0.394 0.391,0.817 0.506,1.256l0.806,3.223l1.713,0l0.124,0.003c0.148,0.011 0.293,0.025 0.439,0.055c0.287,0.057 0.566,0.157 0.825,0.295c0.348,0.186 0.658,0.44 0.908,0.745c0.217,0.265 0.388,0.567 0.504,0.89c0.099,0.277 0.157,0.569 0.172,0.863c0.002,0.05 0.004,0.1 0.003,0.149l7,0l0,8.013c-0.002,0.166 -0.009,0.331 -0.026,0.496c-0.037,0.372 -0.117,0.74 -0.237,1.094c-0.233,0.688 -0.617,1.322 -1.118,1.847c-0.458,0.48 -1.011,0.868 -1.619,1.134l0,7.416l-2,0l0,0l-7,0l-17,0c0,-0.727 -0.012,-1.453 0.002,-2.18c0.026,-0.818 0.181,-1.632 0.486,-2.393c0.21,-0.523 0.477,-1.021 0.804,-1.481c0.717,-1.007 1.7,-1.818 2.826,-2.327c0.3,-0.135 0.61,-0.25 0.926,-0.342c-0.503,-0.396 -0.96,-0.853 -1.355,-1.361c-0.461,-0.592 -0.838,-1.248 -1.117,-1.945c-0.254,-0.636 -0.427,-1.305 -0.511,-1.985c-0.037,-0.294 -0.055,-0.59 -0.06,-0.887c-0.005,-0.699 -0.005,-1.399 -0.001,-2.099Zm15.058,5.765c-0.417,0.783 -0.965,1.495 -1.616,2.098c-0.155,0.145 -0.317,0.283 -0.484,0.415c0.315,0.092 0.624,0.206 0.924,0.341c0.564,0.255 1.094,0.586 1.572,0.98c1.112,0.918 1.927,2.177 2.303,3.569c0.162,0.596 0.239,1.209 0.243,1.826l0,0.006l0,-5.417c-0.535,-0.233 -1.027,-0.561 -1.45,-0.964c-0.554,-0.528 -0.983,-1.182 -1.246,-1.9c-0.113,-0.309 -0.195,-0.629 -0.246,-0.954Z"/></g><g id="emoji"><path d="M16.854,25.073c2.355,0.405 4.146,2.457 4.146,4.927c0,0 0,0 0,0l-16,0c0,0 0,0 0,0c0,-2.47 1.791,-4.522 4.146,-4.927c0.469,1.687 7.239,1.687 7.708,0Z" style="fill:#598d60;"/><path d="M9.146,25.073c0.277,-0.048 0.563,-0.073 0.854,-0.073c1.911,0 4.089,0 6,0c0.291,0 0.577,0.025 0.854,0.073c-0.469,1.687 -2.018,2.927 -3.854,2.927c-1.836,0 -3.385,-1.24 -3.854,-2.927Z" style="fill:#f10dc3;"/><path d="M19,15c0,-1.591 -0.632,-3.117 -1.757,-4.243c-1.126,-1.125 -2.652,-1.757 -4.243,-1.757c0,0 0,0 0,0c-1.591,0 -3.117,0.632 -4.243,1.757c-1.125,1.126 -1.757,2.652 -1.757,4.243c0,0.663 0,1.337 0,2c0,1.591 0.632,3.117 1.757,4.243c1.126,1.125 2.652,1.757 4.243,1.757c0,0 0,0 0,0c1.591,0 3.117,-0.632 4.243,-1.757c1.125,-1.126 1.757,-2.652 1.757,-4.243c0,-0.663 0,-1.337 0,-2Z" style="fill:#f10dc3;"/><clipPath id="_clip2"><path d="M19,15c0,-1.591 -0.632,-3.117 -1.757,-4.243c-1.126,-1.125 -2.652,-1.757 -4.243,-1.757c0,0 0,0 0,0c-1.591,0 -3.117,0.632 -4.243,1.757c-1.125,1.126 -1.757,2.652 -1.757,4.243c0,0.663 0,1.337 0,2c0,1.591 0.632,3.117 1.757,4.243c1.126,1.125 2.652,1.757 4.243,1.757c0,0 0,0 0,0c1.591,0 3.117,-0.632 4.243,-1.757c1.125,-1.126 1.757,-2.652 1.757,-4.243c0,-0.663 0,-1.337 0,-2Z"/></clipPath><g clip-path="url(#_clip2)"><rect x="6" y="12" width="14" height="5" style="fill:#a90eb1;"/><path d="M17,15c0,-0.552 -0.448,-1 -1,-1c-0.552,0 -1,0.448 -1,1c0,0.322 0,0.678 0,1c0,0.552 0.448,1 1,1c0.552,0 1,-0.448 1,-1c0,-0.322 0,-0.678 0,-1Zm-6,0c0,-0.552 -0.448,-1 -1,-1c-0.552,0 -1,0.448 -1,1c0,0.322 0,0.678 0,1c0,0.552 0.448,1 1,1c0.552,0 1,-0.448 1,-1c0,-0.322 0,-0.678 0,-1Z"/></g><path d="M7,12c0,0 0.841,-3.363 1.432,-5.728c0.334,-1.335 1.534,-2.272 2.91,-2.272c1.044,0 2.272,0 3.316,0c1.376,0 2.576,0.937 2.91,2.272c0.591,2.365 1.432,5.728 1.432,5.728l-12,0Z" style="fill:#ac8e50;"/><clipPath id="_clip3"><path d="M7,12c0,0 0.841,-3.363 1.432,-5.728c0.334,-1.335 1.534,-2.272 2.91,-2.272c1.044,0 2.272,0 3.316,0c1.376,0 2.576,0.937 2.91,2.272c0.591,2.365 1.432,5.728 1.432,5.728l-12,0Z"/></clipPath><g clip-path="url(#_clip3)"><rect x="6" y="9" width="14" height="3" style="fill:#594929;"/></g><path d="M23,12c0,-0.265 -0.105,-0.52 -0.293,-0.707c-0.187,-0.188 -0.442,-0.293 -0.707,-0.293c-3.414,0 -14.586,0 -18,0c-0.265,0 -0.52,0.105 -0.707,0.293c-0.188,0.187 -0.293,0.442 -0.293,0.707c0,0.265 0.105,0.52 0.293,0.707c0.187,0.188 0.442,0.293 0.707,0.293c3.414,0 14.586,0 18,0c0.265,0 0.52,-0.105 0.707,-0.293c0.188,-0.187 0.293,-0.442 0.293,-0.707c0,0 0,0 0,0Z" style="fill:#ac8e50;"/><rect x="25" y="22" width="2" height="8" style="fill:#634227;"/><path d="M30,14l-8,0c0,0 0,3.382 0,6c0,1.657 1.343,3 3,3c0.654,0 1.346,0 2,0c1.657,0 3,-1.343 3,-3c0,-2.618 0,-6 0,-6Z" style="fill:#919191;"/><clipPath id="_clip4"><path d="M30,14l-8,0c0,0 0,3.382 0,6c0,1.657 1.343,3 3,3c0.654,0 1.346,0 2,0c1.657,0 3,-1.343 3,-3c0,-2.618 0,-6 0,-6Z"/></clipPath><g clip-path="url(#_clip4)"><rect x="24" y="13" width="1" height="7"/><rect x="27" y="13" width="1" height="7"/></g></g></g></svg>