<?xml version="1.0" encoding="UTF-8" standalone="no"?><!DOCTYPE svg PUBLIC "-//W3C//DTD SVG 1.1//EN" "http://www.w3.org/Graphics/SVG/1.1/DTD/svg11.dtd"><svg width="100%" height="100%" viewBox="0 0 32 32" version="1.1" xmlns="http://www.w3.org/2000/svg" xmlns:xlink="http://www.w3.org/1999/xlink" xml:space="preserve" style="fill-rule:evenodd;clip-rule:evenodd;stroke-linejoin:round;stroke-miterlimit:1.41421;"><rect id="judge" x="0" y="0" width="32" height="32" style="fill:none;"/><g id="outline"><path d="M2,32c0,-0.716 -0.012,-1.454 0.002,-2.18c0.026,-0.818 0.181,-1.632 0.487,-2.393c0.188,-0.471 0.423,-0.921 0.707,-1.342c0.724,-1.071 1.744,-1.933 2.922,-2.466c0.3,-0.135 0.608,-0.249 0.924,-0.341c-0.167,-0.132 -0.329,-0.27 -0.485,-0.415c-0.769,-0.714 -1.394,-1.579 -1.831,-2.533c-0.326,-0.712 -0.546,-1.471 -0.652,-2.246c-0.045,-0.327 -0.067,-0.655 -0.073,-0.985c-0.005,-0.733 -0.005,-1.465 0,-2.198c0.005,-0.264 0.019,-0.527 0.048,-0.79c0.069,-0.616 0.21,-1.224 0.419,-1.808c0.386,-1.078 1.006,-2.069 1.805,-2.889c0.869,-0.891 1.945,-1.573 3.122,-1.978c0.807,-0.278 1.652,-0.42 2.506,-0.435c0.099,-0.001 0.099,-0.001 0.198,0c0.297,0.005 0.593,0.023 0.887,0.06c0.616,0.076 1.222,0.225 1.803,0.441c1.043,0.388 2.001,0.994 2.797,1.771c0.891,0.869 1.573,1.945 1.978,3.122c0.278,0.807 0.42,1.653 0.435,2.506c0.005,0.621 0.005,1.243 0.002,1.864c0.281,-0.252 0.609,-0.452 0.967,-0.583c0.235,-0.086 0.48,-0.142 0.728,-0.167c0.129,-0.013 0.155,-0.012 0.279,-0.015c2.059,0 4.119,-0.049 6.178,0.003c0.134,0.01 0.168,0.01 0.301,0.031c0.246,0.037 0.486,0.105 0.715,0.202c0.806,0.341 1.436,1.036 1.696,1.873c0.06,0.191 0.1,0.388 0.12,0.587c0.013,0.129 0.012,0.155 0.015,0.279l0,2.05c-0.003,0.124 -0.002,0.15 -0.015,0.279c-0.02,0.199 -0.06,0.396 -0.12,0.587c-0.275,0.885 -0.963,1.609 -1.833,1.927c-0.235,0.086 -0.48,0.142 -0.728,0.167c-0.129,0.013 -0.155,0.012 -0.279,0.015l-0.025,0l0,8l-4,0l0,0l-22,0Zm17,-11.127c-0.202,0.365 -0.432,0.714 -0.689,1.043c-0.394,0.507 -0.85,0.964 -1.353,1.362c0.315,0.092 0.624,0.206 0.924,0.341c0.564,0.255 1.094,0.586 1.572,0.98c1.134,0.937 1.959,2.228 2.325,3.653c0.147,0.569 0.217,1.154 0.221,1.742l0,0.006l0,-6l-0.025,0c-0.124,-0.003 -0.15,-0.002 -0.279,-0.015c-0.248,-0.025 -0.493,-0.081 -0.728,-0.167c-0.87,-0.318 -1.558,-1.042 -1.833,-1.927c-0.06,-0.191 -0.1,-0.388 -0.12,-0.587c-0.013,-0.129 -0.012,-0.155 -0.015,-0.279l0,-0.152Z"/></g><g id="emoji"><path d="M20,30c0,-2.761 -2.239,-5 -5,-5c-1.911,0 -4.089,0 -6,0c-2.761,0 -5,2.239 -5,5c0,0 0,0 0,0l16,0c0,0 0,0 0,0Z" style="fill:#303030;"/><clipPath id="_clip1"><path d="M20,30c0,-2.761 -2.239,-5 -5,-5c-1.911,0 -4.089,0 -6,0c-2.761,0 -5,2.239 -5,5c0,0 0,0 0,0l16,0c0,0 0,0 0,0Z"/></clipPath><g clip-path="url(#_clip1)"><path d="M17,22l-10,0l3,9l4,0l3,-9Z" style="fill:#fff;"/><circle cx="12" cy="24" r="4" style="fill:#f10dc3;"/></g><path d="M18,15c0,-1.591 -0.632,-3.117 -1.757,-4.243c-1.126,-1.125 -2.652,-1.757 -4.243,-1.757c0,0 0,0 0,0c-1.591,0 -3.117,0.632 -4.243,1.757c-1.125,1.126 -1.757,2.652 -1.757,4.243c0,0.663 0,1.337 0,2c0,1.591 0.632,3.117 1.757,4.243c1.126,1.125 2.652,1.757 4.243,1.757c0,0 0,0 0,0c1.591,0 3.117,-0.632 4.243,-1.757c1.125,-1.126 1.757,-2.652 1.757,-4.243c0,-0.663 0,-1.337 0,-2Z" style="fill:#f10dc3;"/><clipPath id="_clip2"><path d="M18,15c0,-1.591 -0.632,-3.117 -1.757,-4.243c-1.126,-1.125 -2.652,-1.757 -4.243,-1.757c0,0 0,0 0,0c-1.591,0 -3.117,0.632 -4.243,1.757c-1.125,1.126 -1.757,2.652 -1.757,4.243c0,0.663 0,1.337 0,2c0,1.591 0.632,3.117 1.757,4.243c1.126,1.125 2.652,1.757 4.243,1.757c0,0 0,0 0,0c1.591,0 3.117,-0.632 4.243,-1.757c1.125,-1.126 1.757,-2.652 1.757,-4.243c0,-0.663 0,-1.337 0,-2Z"/></clipPath><g clip-path="url(#_clip2)"><path d="M16,15c0,-0.552 -0.448,-1 -1,-1c-0.552,0 -1,0.448 -1,1c0,0.322 0,0.678 0,1c0,0.552 0.448,1 1,1c0.552,0 1,-0.448 1,-1c0,-0.322 0,-0.678 0,-1Zm-6,0c0,-0.552 -0.448,-1 -1,-1c-0.552,0 -1,0.448 -1,1c0,0.322 0,0.678 0,1c0,0.552 0.448,1 1,1c0.552,0 1,-0.448 1,-1c0,-0.322 0,-0.678 0,-1Z"/></g><rect x="24" y="21" width="2" height="9" style="fill:#a1693b;"/><clipPath id="_clip3"><rect x="24" y="21" width="2" height="9"/></clipPath><g clip-path="url(#_clip3)"><rect x="23" y="21" width="4" height="2" style="fill:#51351e;"/></g><path d="M29,19c0,-0.552 -0.448,-1 -1,-1c-1.537,0 -4.463,0 -6,0c-0.552,0 -1,0.448 -1,1c0,0.611 0,1.389 0,2c0,0.552 0.448,1 1,1c1.537,0 4.463,0 6,0c0.552,0 1,-0.448 1,-1c0,-0.611 0,-1.389 0,-2Z" style="fill:#a1693b;"/></g></svg>