<?xml version="1.0" encoding="UTF-8" standalone="no"?><!DOCTYPE svg PUBLIC "-//W3C//DTD SVG 1.1//EN" "http://www.w3.org/Graphics/SVG/1.1/DTD/svg11.dtd"><svg width="100%" height="100%" viewBox="0 0 32 32" version="1.1" xmlns="http://www.w3.org/2000/svg" xmlns:xlink="http://www.w3.org/1999/xlink" xml:space="preserve" style="fill-rule:evenodd;clip-rule:evenodd;stroke-linejoin:round;stroke-miterlimit:1.41421;"><rect id="student" x="0" y="0" width="32" height="32" style="fill:none;"/><clipPath id="_clip1"><rect x="0" y="0" width="32" height="32"/></clipPath><g clip-path="url(#_clip1)"><g id="outline"><path d="M9.06,11.021l-4.834,-3.021l11.774,-7.358c3.925,2.452 7.849,4.905 11.774,7.358l-4.834,3.021c0.234,0.409 0.433,0.838 0.592,1.281c0.198,0.554 0.335,1.129 0.407,1.712c0.037,0.294 0.055,0.59 0.06,0.887c0.005,0.732 0.005,1.466 0,2.198c-0.006,0.363 -0.033,0.724 -0.087,1.082c-0.11,0.742 -0.326,1.467 -0.638,2.149c-0.437,0.954 -1.062,1.819 -1.831,2.533c-0.156,0.145 -0.318,0.283 -0.485,0.415c0.315,0.092 0.624,0.206 0.924,0.341c0.564,0.255 1.094,0.586 1.572,0.98c1.089,0.899 1.894,2.126 2.28,3.486c0.177,0.622 0.262,1.263 0.266,1.909l0,2.006l-20,0c0,-0.725 -0.012,-1.451 0.002,-2.176c0.023,-0.746 0.156,-1.482 0.408,-2.186c0.172,-0.482 0.399,-0.945 0.672,-1.379c0.829,-1.312 2.094,-2.326 3.556,-2.849c0.134,-0.048 0.269,-0.092 0.405,-0.131c-0.504,-0.398 -0.96,-0.856 -1.354,-1.363c-0.461,-0.591 -0.838,-1.248 -1.117,-1.945c-0.242,-0.605 -0.41,-1.241 -0.498,-1.887c-0.045,-0.327 -0.067,-0.655 -0.073,-0.985c-0.005,-0.732 -0.005,-1.466 0,-2.198c0.015,-0.854 0.157,-1.699 0.435,-2.506c0.164,-0.477 0.374,-0.937 0.624,-1.374Z"/></g><g id="emoji"><path d="M19.854,25.073c2.355,0.405 4.146,2.457 4.146,4.927c0,0 0,0 0,0l-16,0c0,0 0,0 0,0c0,-2.47 1.791,-4.522 4.146,-4.927c0.469,1.687 7.239,1.687 7.708,0Z" style="fill:#333;"/><path d="M12.146,25.073c0.277,-0.048 0.563,-0.073 0.854,-0.073c1.911,0 4.089,0 6,0c0.291,0 0.577,0.025 0.854,0.073c-0.469,1.687 -2.018,2.927 -3.854,2.927c-1.836,0 -3.385,-1.24 -3.854,-2.927Z" style="fill:#f10dc3;"/><path d="M21.657,13c0.225,0.636 0.343,1.312 0.343,2c0,0.663 0,1.337 0,2c0,1.591 -0.632,3.117 -1.757,4.243c-1.126,1.125 -2.652,1.757 -4.243,1.757c0,0 0,0 0,0c-1.591,0 -3.117,-0.632 -4.243,-1.757c-1.125,-1.126 -1.757,-2.652 -1.757,-4.243c0,-0.663 0,-1.337 0,-2c0,-0.688 0.118,-1.364 0.343,-2l11.314,0Z" style="fill:#f10dc3;"/><path d="M10.269,9.418l-2.269,-1.418l8,-5l8,5l-2.269,1.418l-11.462,0Z" style="fill:#333;"/><path d="M10.269,9.418c0.847,-0.869 1.891,-1.54 3.034,-1.95c0.835,-0.299 1.712,-0.451 2.598,-0.467c0.099,-0.001 0.099,-0.001 0.198,0c0.854,0.015 1.699,0.157 2.506,0.435c1.145,0.395 2.196,1.051 3.052,1.907c0.025,0.025 0.049,0.05 0.074,0.075l-5.498,3.436c-0.152,0.003 -0.303,0.005 -0.455,0.007l-5.509,-3.443Z" style="fill:#1e1e1e;"/><path d="M10.343,13c0.296,-0.836 0.776,-1.604 1.414,-2.243c1.126,-1.125 2.652,-1.757 4.243,-1.757c0,0 0,0 0,0c1.591,0 3.117,0.632 4.243,1.757c0.638,0.639 1.118,1.407 1.414,2.243l-11.314,0Z" style="fill:#333;"/><path d="M20,15c0,-0.552 -0.448,-1 -1,-1c-0.552,0 -1,0.448 -1,1c0,0.322 0,0.678 0,1c0,0.552 0.448,1 1,1c0.552,0 1,-0.448 1,-1c0,-0.322 0,-0.678 0,-1Zm-6,0c0,-0.552 -0.448,-1 -1,-1c-0.552,0 -1,0.448 -1,1c0,0.322 0,0.678 0,1c0,0.552 0.448,1 1,1c0.552,0 1,-0.448 1,-1c0,-0.322 0,-0.678 0,-1Z"/><rect x="9" y="12" width="14" height="2"/><path d="M13,4.875l0,5.625c0,0.265 -0.105,0.52 -0.293,0.707c-0.187,0.188 -0.442,0.293 -0.707,0.293c-0.265,0 -0.52,-0.105 -0.707,-0.293c-0.188,-0.187 -0.293,-0.442 -0.293,-0.707l0,-4.375l2,-1.25Z" style="fill:#b89d43;"/></g></g></svg>