<?xml version="1.0" encoding="UTF-8" standalone="no"?>
<!DOCTYPE svg PUBLIC "-//W3C//DTD SVG 1.1//EN" "http://www.w3.org/Graphics/SVG/1.1/DTD/svg11.dtd">
<svg width="100%" height="100%" viewBox="0 0 32 32" version="1.1" xmlns="http://www.w3.org/2000/svg" xmlns:xlink="http://www.w3.org/1999/xlink" xml:space="preserve" xmlns:serif="http://www.serif.com/" style="fill-rule:evenodd;clip-rule:evenodd;stroke-linejoin:round;stroke-miterlimit:2;">
    <rect id="_8_asterisk" serif:id="8_asterisk" x="0" y="0" width="32" height="32" style="fill:none;"/>
    <clipPath id="_clip1">
        <rect x="0" y="0" width="32" height="32"/>
    </clipPath>
    <g clip-path="url(#_clip1)">
        <g id="outline">
            <path d="M32,8c0,-4.418 -3.582,-8 -8,-8l-16,0c-4.418,0 -8,3.582 -8,8l0,16c0,4.418 3.582,8 8,8l16,0c4.418,0 8,-3.582 8,-8l0,-16Z"/>
        </g>
        <g id="emoji">
            <path d="M30,8c0,-1.591 -0.632,-3.117 -1.757,-4.243c-1.126,-1.125 -2.652,-1.757 -4.243,-1.757l-16,0c-1.591,0 -3.117,0.632 -4.243,1.757c-1.125,1.126 -1.757,2.652 -1.757,4.243l0,16c0,1.591 0.632,3.117 1.757,4.243c1.126,1.125 2.652,1.757 4.243,1.757l16,0c1.591,0 3.117,-0.632 4.243,-1.757c1.125,-1.126 1.757,-2.652 1.757,-4.243l0,-16Z" style="fill:#4cbf1e;"/>
            <path d="M17.5,12.379l4.51,-4.511c0.708,0.707 1.415,1.414 2.122,2.122l-4.511,4.51l6.379,0l0,3l-6.379,0l4.511,4.51l-2.122,2.122l-4.51,-4.511l0,6.379l-3,0l0,-6.379l-4.51,4.511l-2.122,-2.122l4.511,-4.51l-6.379,0l0,-3l6.379,0l-4.511,-4.51l2.122,-2.122l4.51,4.511l0,-6.379l3,0l0,6.379Z" style="fill:#fff;"/>
        </g>
    </g>
</svg>
