<?xml version="1.0" encoding="UTF-8" standalone="no"?>
<!DOCTYPE svg PUBLIC "-//W3C//DTD SVG 1.1//EN" "http://www.w3.org/Graphics/SVG/1.1/DTD/svg11.dtd">
<svg width="100%" height="100%" viewBox="0 0 32 32" version="1.1" xmlns="http://www.w3.org/2000/svg" xmlns:xlink="http://www.w3.org/1999/xlink" xml:space="preserve" xmlns:serif="http://www.serif.com/" style="fill-rule:evenodd;clip-rule:evenodd;stroke-linejoin:round;stroke-miterlimit:2;">
    <rect id="_8_star" serif:id="8_star" x="0" y="0" width="32" height="32" style="fill:none;"/>
    <clipPath id="_clip1">
        <rect x="0" y="0" width="32" height="32"/>
    </clipPath>
    <g clip-path="url(#_clip1)">
        <g id="outline">
            <path d="M32,8c0,-4.418 -3.582,-8 -8,-8l-16,0c-4.418,0 -8,3.582 -8,8l0,16c0,4.418 3.582,8 8,8l16,0c4.418,0 8,-3.582 8,-8l0,-16Z"/>
        </g>
        <g id="emoji">
            <path d="M30,8c0,-1.591 -0.632,-3.117 -1.757,-4.243c-1.126,-1.125 -2.652,-1.757 -4.243,-1.757l-16,0c-1.591,0 -3.117,0.632 -4.243,1.757c-1.125,1.126 -1.757,2.652 -1.757,4.243l0,16c0,1.591 0.632,3.117 1.757,4.243c1.126,1.125 2.652,1.757 4.243,1.757l16,0c1.591,0 3.117,-0.632 4.243,-1.757c1.125,-1.126 1.757,-2.652 1.757,-4.243l0,-16Z" style="fill:#ef9b00;"/>
            <path d="M16,4l1.754,7.765l6.731,-4.25l-4.25,6.731l7.765,1.754l-7.765,1.754l4.25,6.731l-6.731,-4.25l-1.754,7.765l-1.754,-7.765l-6.731,4.25l4.25,-6.731l-7.765,-1.754l7.765,-1.754l-4.25,-6.731l6.731,4.25l1.754,-7.765Z" style="fill:#fff;"/>
        </g>
    </g>
</svg>
