<?xml version="1.0" encoding="UTF-8" standalone="no"?>
<!DOCTYPE svg PUBLIC "-//W3C//DTD SVG 1.1//EN" "http://www.w3.org/Graphics/SVG/1.1/DTD/svg11.dtd">
<svg width="100%" height="100%" viewBox="0 0 32 32" version="1.1" xmlns="http://www.w3.org/2000/svg" xmlns:xlink="http://www.w3.org/1999/xlink" xml:space="preserve" xmlns:serif="http://www.serif.com/" style="fill-rule:evenodd;clip-rule:evenodd;stroke-miterlimit:1.5;">
    <rect id="chart" x="0" y="0" width="32" height="32" style="fill:none;"/>
    <g id="outline">
        <rect x="0" y="0" width="32" height="32"/>
    </g>
    <g id="emoji">
        <rect x="2" y="2" width="28" height="28" style="fill:#199d4e;"/>
        <path d="M12.941,4l1.059,0l0,2l1,0l0,1l-1,0l0,1l1,0l0,1l-1,0l0,2l-1,0l0,-2l-1.441,0l-0.875,1.75l-0.368,0l-0.875,-1.75l-1.441,0l0,2l-1,0l0,-2l-1,0l0,-1l1,0l0,-1l-1,0l0,-1l1,0l0,-2l1.059,0l1,2l2.882,0l1,-2Zm-4.5,3l-0.441,0l0,1l0.941,0l-0.5,-1Zm3,0l-1.882,0l0.5,1l0.882,0l0.5,-1Zm1.559,0l-0.441,0l-0.5,1l0.941,0l0,-1Z" style="fill:#fff;"/>
    </g>
    <path d="M3,2l0,27l27,0" style="fill:none;stroke:#fff;stroke-width:2px;"/>
    <path d="M9,22l3,3l5,-10l4,4l5.5,-11" style="fill:none;stroke:#fff;stroke-width:2px;stroke-linejoin:miter;stroke-miterlimit:2;"/>
</svg>
