<?xml version="1.0" encoding="UTF-8" standalone="no"?>
<!DOCTYPE svg PUBLIC "-//W3C//DTD SVG 1.1//EN" "http://www.w3.org/Graphics/SVG/1.1/DTD/svg11.dtd">
<svg width="100%" height="100%" viewBox="0 0 32 32" version="1.1" xmlns="http://www.w3.org/2000/svg" xmlns:xlink="http://www.w3.org/1999/xlink" xml:space="preserve" xmlns:serif="http://www.serif.com/" style="fill-rule:evenodd;clip-rule:evenodd;stroke-linecap:round;stroke-linejoin:round;stroke-miterlimit:2;">
    <rect id="circle" x="0" y="0" width="32" height="32" style="fill:none;"/>
    <g id="outline">
        <path d="M3,15c0,-7.174 5.825,-12.998 13,-12.998c7.175,0 13,5.824 13,12.998l0,2c0,7.174 -5.825,12.998 -13,12.998c-7.175,0 -13,-5.824 -13,-12.998l0,-2Zm19.929,1c-0.486,-3.39 -3.405,-5.999 -6.929,-5.999c-3.524,0 -6.443,2.609 -6.929,5.999c0.486,3.39 3.405,5.999 6.929,5.999c3.524,0 6.443,-2.609 6.929,-5.999Z" style="fill:none;stroke:#000;stroke-width:4px;"/>
    </g>
    <g id="emoji">
        <path d="M3.153,15c0.964,-6.226 6.352,-10.998 12.847,-10.998c6.495,0 11.883,4.772 12.847,10.998l0.153,0l0,2c0,7.174 -5.825,12.998 -13,12.998c-7.175,0 -13,-5.824 -13,-12.998l0,-2l0.153,0Zm19.847,2c0,-3.863 -3.137,-6.999 -7,-6.999c-3.863,0 -7,3.136 -7,6.999c0,3.863 3.137,6.999 7,6.999c3.863,0 7,-3.136 7,-6.999l0,0Z" style="fill:#93151c;"/>
        <path d="M16,2.002c7.175,0 13,5.824 13,12.998c0,7.174 -5.825,12.998 -13,12.998c-7.175,0 -13,-5.824 -13,-12.998c0,-7.174 5.825,-12.998 13,-12.998Zm0,5.999c3.863,0 7,3.136 7,6.999c0,3.863 -3.137,6.999 -7,6.999c-3.863,0 -7,-3.136 -7,-6.999c0,-3.863 3.137,-6.999 7,-6.999Z" style="fill:#e02a33;"/>
    </g>
</svg>
