<?xml version="1.0" encoding="UTF-8" standalone="no"?>
<!DOCTYPE svg PUBLIC "-//W3C//DTD SVG 1.1//EN" "http://www.w3.org/Graphics/SVG/1.1/DTD/svg11.dtd">
<svg width="100%" height="100%" viewBox="0 0 32 32" version="1.1" xmlns="http://www.w3.org/2000/svg" xmlns:xlink="http://www.w3.org/1999/xlink" xml:space="preserve" xmlns:serif="http://www.serif.com/" style="fill-rule:evenodd;clip-rule:evenodd;stroke-linejoin:round;stroke-miterlimit:1.5;">
    <rect id="currency_conversion" x="0" y="0" width="32" height="32" style="fill:none;"/>
    <clipPath id="_clip1">
        <rect x="0" y="0" width="32" height="32"/>
    </clipPath>
    <g clip-path="url(#_clip1)">
        <g id="outline">
            <rect x="8" y="7" width="18" height="18"/>
            <path d="M4.454,17.925c-0.839,-0.238 -1.454,-1.01 -1.454,-1.925c0,-3.074 0,-8.926 0,-12c0,-1.105 0.895,-2 2,-2c2.22,0 5.78,0 8,0c1.105,0 2,0.895 2,2c0,3.074 0,8.926 0,12c0,1.105 -0.895,2 -2,2l-1.379,0l1.44,1.439l0,2l-2.122,2.122l-0.87,-0.871c0.201,0.361 0.452,0.695 0.749,0.992c0.844,0.844 1.989,1.318 3.182,1.318c2.038,0 2,0 2,0l0,5c0,0 0.187,0 -2,0c-4.142,0 -7.5,-3.358 -7.5,-7.5l0,-0.379l-1.439,1.44l-2.122,-2.122l0,-2l1.515,-1.514Zm15.925,-3.925l-1.44,-1.439l0,-2l2.122,-2.122l0.87,0.871c-0.201,-0.361 -0.452,-0.695 -0.749,-0.992c-0.844,-0.844 -1.989,-1.318 -3.182,-1.318c-2.038,0 -2,0 -2,0l0,-5c0,0 -0.187,0 2,0c4.142,0 7.5,3.358 7.5,7.5l0,0.379l1.439,-1.44l2.122,2.122l0,2l-1.515,1.514c0.839,0.238 1.454,1.01 1.454,1.925c0,3.074 0,8.926 0,12c0,1.105 -0.895,2 -2,2c-2.22,0 -5.78,0 -8,0c-1.105,0 -2,-0.895 -2,-2c0,-3.074 0,-8.926 0,-12c0,-1.105 0.895,-2 2,-2l1.379,0Z" style="fill:none;stroke:#000;stroke-width:4px;"/>
        </g>
        <g id="emoji">
            <g>
                <path d="M15,4c0,-1.105 -0.895,-2 -2,-2c-2.22,0 -5.78,0 -8,0c-1.105,0 -2,0.895 -2,2c0,3.074 0,8.926 0,12c0,1.105 0.895,2 2,2c2.22,0 5.78,0 8,0c1.105,0 2,-0.895 2,-2c0,-3.074 0,-8.926 0,-12Z" style="fill:#666;"/>
                <path d="M29,16c0,-1.105 -0.895,-2 -2,-2c-2.22,0 -5.78,0 -8,0c-1.105,0 -2,0.895 -2,2c0,3.074 0,8.926 0,12c0,1.105 0.895,2 2,2c2.22,0 5.78,0 8,0c1.105,0 2,-0.895 2,-2c0,-3.074 0,-8.926 0,-12Z" style="fill:#666;"/>
            </g>
            <path d="M8,5l0,-2l2,0l0,2l3,0l0,2l-6,0c-0.265,0 -0.52,0.105 -0.707,0.293c-0.188,0.187 -0.293,0.442 -0.293,0.707c0,0.552 0.448,1 1,1c1,0 2.589,0 4,0c1.657,0 3,1.343 3,3c0,0.796 -0.316,1.559 -0.879,2.121c-0.562,0.563 -1.325,0.879 -2.121,0.879l-1,0l0,2l-2,0l0,-2l-3,0l0,-2l6,0c0.265,0 0.52,-0.105 0.707,-0.293c0.188,-0.187 0.293,-0.442 0.293,-0.707c0,-0.552 -0.448,-1 -1,-1c-1,0 -2.589,0 -4,0c-1.657,0 -3,-1.343 -3,-3c0,-0.796 0.316,-1.559 0.879,-2.121c0.562,-0.563 1.325,-0.879 2.121,-0.879l1,0Z" style="fill:#fff;"/>
            <g>
                <path d="M6.5,22.121l-1.439,1.44l-2.122,-2.122l0,-2l5.061,-3.06l5.061,3.06l0,2l-2.122,2.122l-1.439,-1.44l0,0.379c0,2.485 2.015,4.5 4.5,4.5c1.116,0 2,0 2,0l0,3l-2,0c-4.142,0 -7.5,-3.358 -7.5,-7.5l0,-0.379Z" style="fill:#2b6d11;"/>
                <path d="M6.5,20.121l-1.439,1.44l-2.122,-2.122l5.061,-5.06l5.061,5.06l-2.122,2.122l-1.439,-1.44l0,0.379c0,2.485 2.015,4.5 4.5,4.5c1.116,0 2,0 2,0l0,3l-2,0c-4.142,0 -7.5,-3.358 -7.5,-7.5l0,-0.379Z" style="fill:#4cbf1e;"/>
            </g>
            <g>
                <path d="M22.5,12.543l0,-1.043c0,-2.485 -2.015,-4.5 -4.5,-4.5c-1.116,0 -2,0 -2,0l0,-3l2,0c4.142,0 7.5,3.358 7.5,7.5l0,1.043l3.561,-1.982l0,2l-5.061,5.06l-5.061,-5.06l0,-2l3.561,1.982Z" style="fill:#2b6d11;"/>
                <path d="M22.5,9.879l0,-0.379c0,-2.485 -2.015,-4.5 -4.5,-4.5c-1.116,0 -2,0 -2,0l0,-3l2,0c4.142,0 7.5,3.358 7.5,7.5l0,0.379l1.439,-1.44l2.122,2.122l-5.061,5.06l-5.061,-5.06l2.122,-2.122l1.439,1.44Z" style="fill:#4cbf1e;"/>
            </g>
            <path d="M21.586,21l-3.293,-3.293l1.414,-1.414l3.293,3.293l3.293,-3.293l1.414,1.414l-3.293,3.293l2.586,0l0,2l-3,0l0,1l3,0l0,2l-3,0l0,2l-2,0l0,-2l-3,0l0,-2l3,0l0,-1l-3,0l0,-2l2.586,0Z" style="fill:#fff;"/>
        </g>
    </g>
</svg>
