<?xml version="1.0" encoding="UTF-8" standalone="no"?>
<!DOCTYPE svg PUBLIC "-//W3C//DTD SVG 1.1//EN" "http://www.w3.org/Graphics/SVG/1.1/DTD/svg11.dtd">
<svg width="100%" height="100%" viewBox="0 0 32 32" version="1.1" xmlns="http://www.w3.org/2000/svg" xmlns:xlink="http://www.w3.org/1999/xlink" xml:space="preserve" xmlns:serif="http://www.serif.com/" style="fill-rule:evenodd;clip-rule:evenodd;stroke-linejoin:round;stroke-miterlimit:1.41421;">
    <rect id="diamond_with_dot" x="0" y="0" width="32" height="32" style="fill:none;"/>
    <g id="outline">
        <path d="M31.828,16l-15.828,15.828l-15.828,-15.828l15.828,-15.828l15.828,15.828Z" style="fill-rule:nonzero;"/>
    </g>
    <g id="emoji">
        <path d="M16,4l-12,12l12,12l12,-12l-12,-12Z" style="fill:#4575e7;"/>
        <path d="M29,16l-13,13l-13,-13l13,-13l13,13Zm-23.172,0l10.172,10.172l10.172,-10.172l-10.172,-10.172l-10.172,10.172Z" style="fill:#a4c0ff;fill-rule:nonzero;"/>
        <path d="M22.707,21.293l-1.414,1.414l-12,-12l1.414,-1.414l12,12Z" style="fill:#a4c0ff;fill-rule:nonzero;"/>
        <path d="M22.707,10.707l-12,12l-1.414,-1.414l12,-12l1.414,1.414Z" style="fill:#a4c0ff;fill-rule:nonzero;"/>
        <circle cx="16" cy="16" r="3"/>
    </g>
</svg>
