<?xml version="1.0" encoding="UTF-8" standalone="no"?>
<!DOCTYPE svg PUBLIC "-//W3C//DTD SVG 1.1//EN" "http://www.w3.org/Graphics/SVG/1.1/DTD/svg11.dtd">
<svg width="100%" height="100%" viewBox="0 0 32 32" version="1.1" xmlns="http://www.w3.org/2000/svg" xmlns:xlink="http://www.w3.org/1999/xlink" xml:space="preserve" xmlns:serif="http://www.serif.com/" style="fill-rule:evenodd;clip-rule:evenodd;stroke-linecap:round;stroke-linejoin:round;stroke-miterlimit:2;">
    <rect id="diamond_with_dot" x="0" y="0" width="32" height="32" style="fill:none;"/>
    <g id="outline">
        <path d="M10.062,8.938c-0.402,-0.756 -0.285,-1.715 0.352,-2.352c0.994,-0.994 2.342,-2.342 3.465,-3.465c1.171,-1.171 3.071,-1.171 4.242,0c1.123,1.123 2.471,2.471 3.465,3.465c0.637,0.637 0.754,1.596 0.352,2.352l1.124,1.124c0.756,-0.402 1.715,-0.285 2.352,0.352c0.994,0.994 2.342,2.342 3.465,3.465c1.171,1.171 1.171,3.071 0,4.242c-1.123,1.123 -2.471,2.471 -3.465,3.465c-0.637,0.637 -1.596,0.754 -2.352,0.352l-1.124,1.124c0.402,0.756 0.285,1.715 -0.352,2.352c-0.994,0.994 -2.342,2.342 -3.465,3.465c-1.171,1.171 -3.071,1.171 -4.242,0c-1.123,-1.123 -2.471,-2.471 -3.465,-3.465c-0.637,-0.637 -0.754,-1.596 -0.352,-2.352l-1.124,-1.124c-0.756,0.402 -1.715,0.285 -2.352,-0.352c-0.994,-0.994 -2.342,-2.342 -3.465,-3.465c-1.171,-1.171 -1.171,-3.071 0,-4.242c1.123,-1.123 2.471,-2.471 3.465,-3.465c0.637,-0.637 1.596,-0.754 2.352,-0.352l1.124,-1.124Z" style="fill:none;stroke:#000;stroke-width:4px;"/>
    </g>
    <g id="emoji">
        <path d="M16,29l-13,-13l13,-13l13,13l-13,13Z" style="fill:#731637;"/>
        <path d="M16,15c0,0 -3.541,-3.541 -5.586,-5.586c-0.781,-0.781 -0.781,-2.047 0,-2.828c0.994,-0.994 2.342,-2.342 3.465,-3.465c1.171,-1.171 3.071,-1.171 4.242,0c1.123,1.123 2.471,2.471 3.465,3.465c0.781,0.781 0.781,2.047 0,2.828c-2.045,2.045 -5.586,5.586 -5.586,5.586Z" style="fill:#ff4586;"/>
        <path d="M17,16c0,0 3.541,-3.541 5.586,-5.586c0.781,-0.781 2.047,-0.781 2.828,0c0.994,0.994 2.342,2.342 3.465,3.465c1.171,1.171 1.171,3.071 0,4.242c-1.123,1.123 -2.471,2.471 -3.465,3.465c-0.781,0.781 -2.047,0.781 -2.828,0c-2.045,-2.045 -5.586,-5.586 -5.586,-5.586Z" style="fill:#ff4586;"/>
        <path d="M16,17c0,0 3.541,3.541 5.586,5.586c0.781,0.781 0.781,2.047 0,2.828c-0.994,0.994 -2.342,2.342 -3.465,3.465c-1.171,1.171 -3.071,1.171 -4.242,0c-1.123,-1.123 -2.471,-2.471 -3.465,-3.465c-0.781,-0.781 -0.781,-2.047 0,-2.828c2.045,-2.045 5.586,-5.586 5.586,-5.586Z" style="fill:#ff4586;"/>
        <path d="M15,16c0,0 -3.541,3.541 -5.586,5.586c-0.781,0.781 -2.047,0.781 -2.828,0c-0.994,-0.994 -2.342,-2.342 -3.465,-3.465c-1.171,-1.171 -1.171,-3.071 0,-4.242c1.123,-1.123 2.471,-2.471 3.465,-3.465c0.781,-0.781 2.047,-0.781 2.828,0c2.045,2.045 5.586,5.586 5.586,5.586Z" style="fill:#ff4586;"/>
        <circle cx="16" cy="16" r="3"/>
    </g>
</svg>
