<?xml version="1.0" encoding="UTF-8" standalone="no"?>
<!DOCTYPE svg PUBLIC "-//W3C//DTD SVG 1.1//EN" "http://www.w3.org/Graphics/SVG/1.1/DTD/svg11.dtd">
<svg width="100%" height="100%" viewBox="0 0 32 32" version="1.1" xmlns="http://www.w3.org/2000/svg" xmlns:xlink="http://www.w3.org/1999/xlink" xml:space="preserve" xmlns:serif="http://www.serif.com/" style="fill-rule:evenodd;clip-rule:evenodd;stroke-miterlimit:3;">
    <rect id="exclamation_mark_red" x="0" y="0" width="32" height="32" style="fill:none;"/>
    <clipPath id="_clip1">
        <rect x="0" y="0" width="32" height="32"/>
    </clipPath>
    <g clip-path="url(#_clip1)">
        <g id="outline">
            <g id="emoji">
                <path d="M13.289,2l5.326,0l-0.583,18.514l-4.202,0l-0.541,-18.514Zm0.208,27.085c-0.638,-0.611 -0.957,-1.387 -0.957,-2.33c0,-0.943 0.319,-1.734 0.957,-2.372c0.638,-0.638 1.457,-0.957 2.455,-0.957c0.999,0 1.831,0.319 2.496,0.957c0.666,0.638 0.999,1.429 0.999,2.372c0,0.943 -0.333,1.719 -0.999,2.33c-0.665,0.61 -1.497,0.915 -2.496,0.915c-0.998,0 -1.817,-0.305 -2.455,-0.915Z" style="fill:#fff;fill-rule:nonzero;stroke:#000;stroke-width:4px;"/>
            </g>
        </g>
        <g id="emoji1" serif:id="emoji">
            <path d="M13.289,2l5.326,0l-0.583,18.514l-4.202,0l-0.541,-18.514Zm0.208,27.085c-0.638,-0.611 -0.957,-1.387 -0.957,-2.33c0,-0.943 0.319,-1.734 0.957,-2.372c0.638,-0.638 1.457,-0.957 2.455,-0.957c0.999,0 1.831,0.319 2.496,0.957c0.666,0.638 0.999,1.429 0.999,2.372c0,0.943 -0.333,1.719 -0.999,2.33c-0.665,0.61 -1.497,0.915 -2.496,0.915c-0.998,0 -1.817,-0.305 -2.455,-0.915Z" style="fill:#e02a33;fill-rule:nonzero;"/>
        </g>
    </g>
</svg>
