<?xml version="1.0" encoding="UTF-8" standalone="no"?>
<!DOCTYPE svg PUBLIC "-//W3C//DTD SVG 1.1//EN" "http://www.w3.org/Graphics/SVG/1.1/DTD/svg11.dtd">
<svg width="100%" height="100%" viewBox="0 0 32 32" version="1.1" xmlns="http://www.w3.org/2000/svg" xmlns:xlink="http://www.w3.org/1999/xlink" xml:space="preserve" xmlns:serif="http://www.serif.com/" style="fill-rule:evenodd;clip-rule:evenodd;stroke-miterlimit:3;">
    <rect id="exclamation_question" x="0" y="0" width="32" height="32" style="fill:none;"/>
    <clipPath id="_clip1">
        <rect x="0" y="0" width="32" height="32"/>
    </clipPath>
    <g clip-path="url(#_clip1)">
        <g id="outline">
            <path d="M3.093,3l4.908,0l-0.537,17.065l-3.873,0l-0.498,-17.065Zm0.191,24.965c-0.588,-0.563 -0.882,-1.279 -0.882,-2.148c0,-0.869 0.294,-1.598 0.882,-2.186c0.588,-0.588 1.342,-0.882 2.263,-0.882c0.92,0 1.687,0.294 2.301,0.882c0.613,0.588 0.92,1.317 0.92,2.186c0,0.869 -0.307,1.585 -0.92,2.148c-0.614,0.562 -1.381,0.843 -2.301,0.843c-0.921,0 -1.675,-0.281 -2.263,-0.843Z" style="fill:#fff;fill-rule:nonzero;stroke:#000;stroke-width:4px;"/>
            <path d="M29.629,10.018c0,1.355 -0.332,2.486 -0.997,3.394c-0.664,0.907 -1.713,1.719 -3.144,2.435c-1.202,0.613 -1.988,1.137 -2.359,1.572c-0.37,0.434 -0.607,0.837 -0.709,1.208c-0.102,0.371 -0.153,0.799 -0.153,1.285l0,1.112l-4.526,0l0,-1.534c0,-2.301 0.691,-3.937 2.071,-4.909c0.486,-0.358 1.202,-0.78 2.148,-1.265c0.946,-0.486 1.63,-0.978 2.051,-1.477c0.422,-0.498 0.633,-1.137 0.633,-1.917c0,-0.78 -0.319,-1.432 -0.959,-1.956c-0.639,-0.524 -1.585,-0.786 -2.837,-0.786c-1.253,0 -2.237,0.3 -2.953,0.901c-0.716,0.601 -1.125,1.387 -1.227,2.359l-4.717,0c0.128,-2.225 0.946,-4.008 2.454,-5.35c1.509,-1.342 3.624,-2.013 6.347,-2.013c2.723,0 4.883,0.664 6.481,1.994c1.597,1.329 2.396,2.978 2.396,4.947Zm-11.792,13.805c0.576,-0.562 1.33,-0.844 2.263,-0.844c0.933,0 1.706,0.282 2.32,0.844c0.614,0.562 0.92,1.278 0.92,2.148c0,0.869 -0.306,1.591 -0.92,2.166c-0.614,0.575 -1.387,0.863 -2.32,0.863c-0.933,0 -1.687,-0.288 -2.263,-0.863c-0.575,-0.575 -0.862,-1.297 -0.862,-2.166c0,-0.87 0.287,-1.586 0.862,-2.148Z" style="fill:#fff;fill-rule:nonzero;stroke:#000;stroke-width:4px;"/>
        </g>
        <g id="emoji">
            <path d="M3.093,3l4.908,0l-0.537,17.065l-3.873,0l-0.498,-17.065Zm0.191,24.965c-0.588,-0.563 -0.882,-1.279 -0.882,-2.148c0,-0.869 0.294,-1.598 0.882,-2.186c0.588,-0.588 1.342,-0.882 2.263,-0.882c0.92,0 1.687,0.294 2.301,0.882c0.613,0.588 0.92,1.317 0.92,2.186c0,0.869 -0.307,1.585 -0.92,2.148c-0.614,0.562 -1.381,0.843 -2.301,0.843c-0.921,0 -1.675,-0.281 -2.263,-0.843Z" style="fill:#e02a33;fill-rule:nonzero;"/>
            <path d="M29.629,10.018c0,1.355 -0.332,2.486 -0.997,3.394c-0.664,0.907 -1.713,1.719 -3.144,2.435c-1.202,0.613 -1.988,1.137 -2.359,1.572c-0.37,0.434 -0.607,0.837 -0.709,1.208c-0.102,0.371 -0.153,0.799 -0.153,1.285l0,1.112l-4.526,0l0,-1.534c0,-2.301 0.691,-3.937 2.071,-4.909c0.486,-0.358 1.202,-0.78 2.148,-1.265c0.946,-0.486 1.63,-0.978 2.051,-1.477c0.422,-0.498 0.633,-1.137 0.633,-1.917c0,-0.78 -0.319,-1.432 -0.959,-1.956c-0.639,-0.524 -1.585,-0.786 -2.837,-0.786c-1.253,0 -2.237,0.3 -2.953,0.901c-0.716,0.601 -1.125,1.387 -1.227,2.359l-4.717,0c0.128,-2.225 0.946,-4.008 2.454,-5.35c1.509,-1.342 3.624,-2.013 6.347,-2.013c2.723,0 4.883,0.664 6.481,1.994c1.597,1.329 2.396,2.978 2.396,4.947Zm-11.792,13.805c0.576,-0.562 1.33,-0.844 2.263,-0.844c0.933,0 1.706,0.282 2.32,0.844c0.614,0.562 0.92,1.278 0.92,2.148c0,0.869 -0.306,1.591 -0.92,2.166c-0.614,0.575 -1.387,0.863 -2.32,0.863c-0.933,0 -1.687,-0.288 -2.263,-0.863c-0.575,-0.575 -0.862,-1.297 -0.862,-2.166c0,-0.87 0.287,-1.586 0.862,-2.148Z" style="fill:#e02a33;fill-rule:nonzero;"/>
        </g>
    </g>
</svg>
