<?xml version="1.0" encoding="UTF-8" standalone="no"?>
<!DOCTYPE svg PUBLIC "-//W3C//DTD SVG 1.1//EN" "http://www.w3.org/Graphics/SVG/1.1/DTD/svg11.dtd">
<svg width="100%" height="100%" viewBox="0 0 32 32" version="1.1" xmlns="http://www.w3.org/2000/svg" xmlns:xlink="http://www.w3.org/1999/xlink" xml:space="preserve" xmlns:serif="http://www.serif.com/" style="fill-rule:evenodd;clip-rule:evenodd;stroke-miterlimit:3;">
    <rect id="question_mark_red" x="0" y="0" width="32" height="32" style="fill:none;"/>
    <clipPath id="_clip1">
        <rect x="0" y="0" width="32" height="32"/>
    </clipPath>
    <g clip-path="url(#_clip1)">
        <g id="outline">
            <g id="emoji">
                <path d="M25.23,9.614c0,1.47 -0.361,2.697 -1.082,3.682c-0.721,0.984 -1.858,1.865 -3.411,2.642c-1.304,0.665 -2.157,1.234 -2.559,1.705c-0.402,0.472 -0.659,0.909 -0.77,1.311c-0.111,0.402 -0.166,0.867 -0.166,1.394l0,1.206l-4.91,0l0,-1.664c0,-2.496 0.749,-4.271 2.247,-5.325c0.527,-0.389 1.304,-0.846 2.33,-1.373c1.026,-0.527 1.768,-1.061 2.226,-1.602c0.457,-0.541 0.686,-1.234 0.686,-2.08c0,-0.846 -0.346,-1.554 -1.04,-2.122c-0.693,-0.569 -1.719,-0.853 -3.079,-0.853c-1.359,0 -2.427,0.326 -3.203,0.978c-0.777,0.651 -1.221,1.504 -1.331,2.558l-5.118,0c0.139,-2.413 1.026,-4.347 2.663,-5.804c1.636,-1.456 3.931,-2.184 6.885,-2.184c2.954,0 5.298,0.721 7.032,2.164c1.733,1.442 2.6,3.231 2.6,5.367Zm-12.794,14.977c0.625,-0.61 1.443,-0.915 2.455,-0.915c1.013,0 1.852,0.305 2.517,0.915c0.666,0.611 0.999,1.387 0.999,2.33c0,0.943 -0.333,1.727 -0.999,2.351c-0.665,0.624 -1.504,0.936 -2.517,0.936c-1.012,0 -1.83,-0.312 -2.455,-0.936c-0.624,-0.624 -0.936,-1.408 -0.936,-2.351c0,-0.943 0.312,-1.719 0.936,-2.33Z" style="fill:#fff;fill-rule:nonzero;stroke:#000;stroke-width:4px;"/>
            </g>
        </g>
        <g id="emoji1" serif:id="emoji">
            <path d="M25.23,9.614c0,1.47 -0.361,2.697 -1.082,3.682c-0.721,0.984 -1.858,1.865 -3.411,2.642c-1.304,0.665 -2.157,1.234 -2.559,1.705c-0.402,0.472 -0.659,0.909 -0.77,1.311c-0.111,0.402 -0.166,0.867 -0.166,1.394l0,1.206l-4.91,0l0,-1.664c0,-2.496 0.749,-4.271 2.247,-5.325c0.527,-0.389 1.304,-0.846 2.33,-1.373c1.026,-0.527 1.768,-1.061 2.226,-1.602c0.457,-0.541 0.686,-1.234 0.686,-2.08c0,-0.846 -0.346,-1.554 -1.04,-2.122c-0.693,-0.569 -1.719,-0.853 -3.079,-0.853c-1.359,0 -2.427,0.326 -3.203,0.978c-0.777,0.651 -1.221,1.504 -1.331,2.558l-5.118,0c0.139,-2.413 1.026,-4.347 2.663,-5.804c1.636,-1.456 3.931,-2.184 6.885,-2.184c2.954,0 5.298,0.721 7.032,2.164c1.733,1.442 2.6,3.231 2.6,5.367Zm-12.794,14.977c0.625,-0.61 1.443,-0.915 2.455,-0.915c1.013,0 1.852,0.305 2.517,0.915c0.666,0.611 0.999,1.387 0.999,2.33c0,0.943 -0.333,1.727 -0.999,2.351c-0.665,0.624 -1.504,0.936 -2.517,0.936c-1.012,0 -1.83,-0.312 -2.455,-0.936c-0.624,-0.624 -0.936,-1.408 -0.936,-2.351c0,-0.943 0.312,-1.719 0.936,-2.33Z" style="fill:#e02a33;fill-rule:nonzero;"/>
        </g>
    </g>
</svg>
