<?xml version="1.0" encoding="UTF-8" standalone="no"?>
<!DOCTYPE svg PUBLIC "-//W3C//DTD SVG 1.1//EN" "http://www.w3.org/Graphics/SVG/1.1/DTD/svg11.dtd">
<svg width="100%" height="100%" viewBox="0 0 32 32" version="1.1" xmlns="http://www.w3.org/2000/svg" xmlns:xlink="http://www.w3.org/1999/xlink" xml:space="preserve" xmlns:serif="http://www.serif.com/" style="fill-rule:evenodd;clip-rule:evenodd;stroke-linejoin:round;stroke-miterlimit:1.41421;">
    <rect id="circle" x="0" y="0" width="32" height="32" style="fill:none;"/>
    <clipPath id="_clip1">
        <rect x="0" y="0" width="32" height="32"/>
    </clipPath>
    <g clip-path="url(#_clip1)">
        <g id="outline">
            <path d="M16.206,0.001l0.205,0.004l0.204,0.007l0.204,0.009l0.204,0.011l0.203,0.014l0.202,0.017l0.202,0.019l0.201,0.022l0.2,0.024l0.2,0.027l0.199,0.029l0.199,0.032l0.197,0.034l0.197,0.036l0.196,0.039l0.195,0.042l0.195,0.043l0.193,0.046l0.193,0.048l0.191,0.051l0.191,0.053l0.19,0.055l0.189,0.058l0.188,0.06l0.186,0.061l0.186,0.065l0.185,0.066l0.183,0.069l0.183,0.071l0.182,0.072l0.18,0.075l0.179,0.078l0.178,0.079l0.177,0.081l0.176,0.084l0.174,0.085l0.173,0.087l0.173,0.09l0.17,0.091l0.169,0.094l0.169,0.095l0.167,0.098l0.165,0.099l0.164,0.101l0.164,0.103l0.161,0.105l0.16,0.107l0.159,0.109l0.158,0.111l0.155,0.111l0.154,0.114l0.154,0.117l0.151,0.117l0.151,0.12l0.149,0.121l0.146,0.123l0.146,0.124l0.144,0.127l0.143,0.128l0.141,0.13l0.139,0.131l0.138,0.133l0.136,0.135l0.135,0.136l0.133,0.138l0.131,0.139l0.13,0.141l0.128,0.143l0.126,0.144l0.125,0.146l0.123,0.147l0.121,0.148l0.12,0.151l0.118,0.151l0.115,0.153l0.114,0.155l0.112,0.155l0.111,0.158l0.109,0.159l0.107,0.161l0.105,0.16l0.103,0.163l0.101,0.165l0.099,0.165l0.097,0.167l0.096,0.168l0.094,0.17l0.091,0.171l0.09,0.171l0.087,0.174l0.086,0.174l0.083,0.176l0.081,0.177l0.08,0.178l0.077,0.179l0.075,0.181l0.073,0.181l0.07,0.183l0.069,0.183l0.066,0.185l0.065,0.186l0.062,0.187l0.059,0.187l0.057,0.188l0.056,0.191l0.053,0.191l0.051,0.191l0.048,0.193l0.046,0.193l0.043,0.195l0.042,0.195l0.039,0.196l0.036,0.197l0.034,0.197l0.032,0.199l0.029,0.199l0.027,0.199l0.024,0.201l0.022,0.202l0.019,0.201l0.017,0.202l0.014,0.204l0.011,0.203l0.009,0.204l0.007,0.204l0.004,0.205l0.001,0.206l-0.001,0.206l-0.004,0.205l-0.007,0.204l-0.009,0.204l-0.011,0.203l-0.014,0.204l-0.017,0.202l-0.019,0.201l-0.022,0.202l-0.024,0.201l-0.027,0.199l-0.029,0.199l-0.032,0.199l-0.034,0.197l-0.036,0.197l-0.039,0.196l-0.042,0.195l-0.043,0.195l-0.046,0.193l-0.048,0.193l-0.051,0.191l-0.053,0.191l-0.056,0.191l-0.057,0.188l-0.059,0.187l-0.062,0.187l-0.065,0.186l-0.066,0.185l-0.069,0.183l-0.07,0.183l-0.073,0.181l-0.075,0.181l-0.077,0.179l-0.08,0.178l-0.081,0.177l-0.083,0.176l-0.086,0.174l-0.087,0.174l-0.09,0.171l-0.091,0.171l-0.094,0.17l-0.096,0.168l-0.097,0.167l-0.099,0.165l-0.101,0.165l-0.103,0.163l-0.105,0.16l-0.107,0.161l-0.109,0.159l-0.111,0.158l-0.112,0.155l-0.114,0.155l-0.115,0.153l-0.118,0.151l-0.12,0.151l-0.121,0.148l-0.123,0.147l-0.125,0.146l-0.126,0.144l-0.128,0.143l-0.13,0.141l-0.131,0.139l-0.133,0.138l-0.135,0.136l-0.136,0.135l-0.138,0.133l-0.139,0.131l-0.141,0.13l-0.143,0.128l-0.144,0.127l-0.146,0.124l-0.146,0.123l-0.149,0.121l-0.151,0.12l-0.151,0.117l-0.154,0.117l-0.154,0.114l-0.155,0.111l-0.158,0.111l-0.159,0.109l-0.16,0.107l-0.161,0.105l-0.164,0.103l-0.164,0.101l-0.165,0.099l-0.167,0.098l-0.169,0.095l-0.169,0.094l-0.17,0.091l-0.173,0.09l-0.173,0.087l-0.174,0.085l-0.176,0.084l-0.177,0.081l-0.178,0.079l-0.179,0.078l-0.18,0.075l-0.182,0.072l-0.183,0.071l-0.183,0.069l-0.185,0.066l-0.186,0.065l-0.186,0.061l-0.188,0.06l-0.189,0.058l-0.19,0.055l-0.191,0.053l-0.191,0.051l-0.193,0.048l-0.193,0.046l-0.195,0.043l-0.195,0.042l-0.196,0.039l-0.197,0.036l-0.197,0.034l-0.199,0.032l-0.199,0.029l-0.2,0.027l-0.2,0.024l-0.201,0.022l-0.202,0.019l-0.202,0.017l-0.203,0.014l-0.204,0.011l-0.204,0.009l-0.204,0.007l-0.206,0.004l-0.205,0.001l-0.205,-0.001l-0.206,-0.004l-0.204,-0.007l-0.204,-0.009l-0.204,-0.011l-0.203,-0.014l-0.202,-0.017l-0.202,-0.019l-0.201,-0.022l-0.2,-0.024l-0.2,-0.027l-0.199,-0.029l-0.199,-0.032l-0.197,-0.034l-0.197,-0.036l-0.196,-0.039l-0.195,-0.042l-0.195,-0.043l-0.193,-0.046l-0.193,-0.048l-0.191,-0.051l-0.191,-0.053l-0.19,-0.055l-0.189,-0.058l-0.188,-0.06l-0.187,-0.062l-0.185,-0.064l-0.185,-0.066l-0.183,-0.069l-0.183,-0.07l-0.182,-0.073l-0.18,-0.075l-0.179,-0.078l-0.178,-0.079l-0.177,-0.081l-0.176,-0.084l-0.174,-0.085l-0.174,-0.087l-0.171,-0.09l-0.171,-0.091l-0.17,-0.094l-0.168,-0.095l-0.167,-0.097l-0.165,-0.1l-0.165,-0.101l-0.163,-0.103l-0.161,-0.105l-0.16,-0.107l-0.159,-0.109l-0.157,-0.11l-0.157,-0.113l-0.153,-0.113l-0.154,-0.117l-0.152,-0.118l-0.149,-0.118l-0.149,-0.122l-0.148,-0.123l-0.145,-0.125l-0.144,-0.126l-0.143,-0.128l-0.14,-0.13l-0.14,-0.131l-0.138,-0.133l-0.136,-0.135l-0.135,-0.136l-0.133,-0.138l-0.132,-0.14l-0.128,-0.14l-0.129,-0.142l-0.127,-0.145l-0.124,-0.146l-0.123,-0.147l-0.121,-0.149l-0.12,-0.15l-0.117,-0.151l-0.116,-0.153l-0.115,-0.155l-0.112,-0.156l-0.111,-0.158l-0.108,-0.157l-0.107,-0.161l-0.105,-0.162l-0.103,-0.162l-0.101,-0.164l-0.1,-0.167l-0.097,-0.166l-0.095,-0.168l-0.094,-0.17l-0.091,-0.171l-0.089,-0.171l-0.088,-0.174l-0.086,-0.174l-0.083,-0.176l-0.081,-0.177l-0.08,-0.178l-0.077,-0.179l-0.074,-0.18l-0.073,-0.181l-0.071,-0.184l-0.069,-0.184l-0.066,-0.184l-0.064,-0.185l-0.063,-0.188l-0.059,-0.188l-0.058,-0.188l-0.055,-0.19l-0.053,-0.191l-0.051,-0.191l-0.048,-0.193l-0.046,-0.193l-0.043,-0.195l-0.042,-0.195l-0.039,-0.196l-0.036,-0.197l-0.034,-0.197l-0.032,-0.198l-0.029,-0.199l-0.027,-0.201l-0.024,-0.2l-0.022,-0.201l-0.019,-0.203l-0.017,-0.202l-0.014,-0.202l-0.011,-0.203l-0.009,-0.205l-0.007,-0.205l-0.004,-0.205l-0.001,-0.205l0.001,-0.205l0.004,-0.205l0.007,-0.205l0.009,-0.205l0.011,-0.203l0.014,-0.202l0.017,-0.202l0.019,-0.203l0.022,-0.201l0.024,-0.2l0.027,-0.201l0.029,-0.199l0.032,-0.198l0.034,-0.197l0.036,-0.197l0.039,-0.196l0.042,-0.195l0.043,-0.195l0.046,-0.193l0.048,-0.193l0.051,-0.191l0.053,-0.191l0.055,-0.19l0.058,-0.188l0.059,-0.188l0.063,-0.188l0.064,-0.185l0.066,-0.184l0.069,-0.184l0.071,-0.184l0.073,-0.181l0.074,-0.18l0.077,-0.179l0.08,-0.178l0.081,-0.177l0.083,-0.176l0.086,-0.174l0.088,-0.174l0.089,-0.171l0.091,-0.171l0.094,-0.17l0.095,-0.168l0.097,-0.166l0.1,-0.167l0.101,-0.164l0.103,-0.162l0.105,-0.162l0.107,-0.161l0.108,-0.157l0.111,-0.158l0.112,-0.156l0.115,-0.155l0.116,-0.153l0.117,-0.151l0.12,-0.15l0.121,-0.149l0.123,-0.147l0.124,-0.146l0.127,-0.145l0.129,-0.142l0.128,-0.14l0.132,-0.14l0.133,-0.138l0.135,-0.136l0.136,-0.135l0.138,-0.133l0.14,-0.131l0.14,-0.13l0.143,-0.128l0.144,-0.126l0.145,-0.125l0.148,-0.123l0.149,-0.122l0.149,-0.118l0.152,-0.118l0.154,-0.117l0.153,-0.113l0.157,-0.113l0.157,-0.11l0.159,-0.109l0.16,-0.107l0.161,-0.105l0.163,-0.103l0.165,-0.101l0.165,-0.1l0.167,-0.097l0.168,-0.095l0.17,-0.094l0.171,-0.091l0.171,-0.09l0.174,-0.087l0.174,-0.085l0.176,-0.084l0.177,-0.081l0.178,-0.079l0.179,-0.078l0.18,-0.075l0.182,-0.073l0.183,-0.07l0.183,-0.069l0.185,-0.066l0.185,-0.064l0.187,-0.062l0.188,-0.06l0.189,-0.058l0.19,-0.055l0.19,-0.053l0.192,-0.051l0.193,-0.048l0.193,-0.046l0.195,-0.043l0.195,-0.042l0.196,-0.039l0.197,-0.036l0.197,-0.034l0.199,-0.032l0.199,-0.029l0.2,-0.027l0.2,-0.024l0.201,-0.022l0.202,-0.019l0.202,-0.017l0.203,-0.014l0.204,-0.011l0.204,-0.009l0.204,-0.007l0.205,-0.004l0.206,-0.001l0.206,0.001Zm-0.285,10l-0.078,0.001l-0.078,0.003l-0.077,0.003l-0.077,0.004l-0.077,0.006l-0.076,0.006l-0.076,0.007l-0.076,0.008l-0.075,0.01l-0.075,0.01l-0.074,0.01l-0.074,0.012l-0.074,0.013l-0.073,0.014l-0.073,0.014l-0.073,0.015l-0.072,0.017l-0.072,0.017l-0.072,0.018l-0.071,0.018l-0.07,0.02l-0.071,0.021l-0.071,0.021l-0.069,0.022l-0.069,0.023l-0.07,0.024l-0.068,0.025l-0.069,0.025l-0.068,0.027l-0.067,0.027l-0.067,0.028l-0.067,0.028l-0.066,0.03l-0.066,0.03l-0.066,0.031l-0.065,0.032l-0.064,0.033l-0.065,0.034l-0.064,0.034l-0.063,0.034l-0.063,0.036l-0.063,0.037l-0.062,0.037l-0.061,0.038l-0.062,0.039l-0.061,0.04l-0.06,0.039l-0.06,0.041l-0.059,0.042l-0.058,0.042l-0.059,0.044l-0.058,0.043l-0.056,0.044l-0.058,0.046l-0.056,0.046l-0.055,0.045l-0.055,0.048l-0.055,0.048l-0.053,0.048l-0.054,0.049l-0.053,0.05l-0.051,0.05l-0.052,0.051l-0.051,0.052l-0.05,0.051l-0.05,0.053l-0.049,0.054l-0.049,0.054l-0.047,0.054l-0.047,0.055l-0.046,0.055l-0.046,0.057l-0.046,0.056l-0.044,0.058l-0.044,0.058l-0.043,0.058l-0.042,0.058l-0.041,0.059l-0.042,0.061l-0.04,0.06l-0.039,0.059l-0.039,0.063l-0.038,0.062l-0.037,0.061l-0.036,0.062l-0.036,0.064l-0.035,0.063l-0.035,0.064l-0.033,0.065l-0.033,0.064l-0.032,0.065l-0.031,0.066l-0.03,0.066l-0.03,0.066l-0.028,0.067l-0.029,0.068l-0.027,0.067l-0.026,0.067l-0.025,0.068l-0.025,0.07l-0.024,0.069l-0.023,0.069l-0.022,0.069l-0.021,0.07l-0.021,0.071l-0.019,0.071l-0.019,0.071l-0.018,0.072l-0.017,0.072l-0.017,0.072l-0.015,0.073l-0.014,0.073l-0.014,0.073l-0.013,0.074l-0.012,0.075l-0.011,0.074l-0.009,0.074l-0.01,0.076l-0.008,0.075l-0.007,0.075l-0.006,0.077l-0.006,0.077l-0.004,0.077l-0.003,0.077l-0.003,0.078l-0.001,0.078l-0.001,0.079l0.001,0.079l0.001,0.078l0.003,0.078l0.003,0.077l0.004,0.077l0.006,0.077l0.006,0.077l0.007,0.075l0.008,0.075l0.01,0.076l0.009,0.074l0.011,0.074l0.012,0.075l0.013,0.074l0.014,0.073l0.014,0.073l0.015,0.073l0.017,0.072l0.017,0.072l0.018,0.072l0.019,0.071l0.019,0.071l0.021,0.071l0.021,0.07l0.022,0.069l0.023,0.069l0.024,0.069l0.025,0.07l0.025,0.068l0.026,0.067l0.027,0.067l0.029,0.068l0.028,0.067l0.03,0.066l0.03,0.066l0.031,0.066l0.032,0.065l0.033,0.064l0.033,0.065l0.035,0.064l0.035,0.063l0.036,0.064l0.036,0.062l0.037,0.061l0.038,0.062l0.039,0.063l0.039,0.059l0.04,0.06l0.042,0.061l0.041,0.059l0.042,0.058l0.043,0.058l0.044,0.058l0.044,0.058l0.046,0.056l0.046,0.057l0.046,0.055l0.047,0.055l0.047,0.054l0.049,0.054l0.049,0.054l0.05,0.053l0.05,0.051l0.051,0.052l0.052,0.051l0.051,0.05l0.053,0.05l0.054,0.049l0.053,0.048l0.055,0.048l0.055,0.048l0.055,0.045l0.056,0.046l0.058,0.046l0.056,0.044l0.058,0.043l0.059,0.044l0.058,0.042l0.059,0.042l0.06,0.041l0.06,0.039l0.061,0.04l0.062,0.039l0.061,0.038l0.062,0.037l0.063,0.037l0.063,0.036l0.063,0.034l0.064,0.034l0.065,0.034l0.064,0.033l0.065,0.032l0.066,0.031l0.066,0.03l0.066,0.03l0.067,0.028l0.067,0.028l0.067,0.027l0.068,0.027l0.069,0.025l0.068,0.025l0.07,0.024l0.069,0.023l0.069,0.022l0.071,0.021l0.071,0.021l0.07,0.02l0.071,0.018l0.072,0.018l0.072,0.017l0.072,0.017l0.073,0.015l0.073,0.014l0.073,0.014l0.074,0.013l0.074,0.012l0.074,0.01l0.075,0.01l0.075,0.01l0.076,0.008l0.076,0.007l0.076,0.006l0.077,0.006l0.077,0.004l0.077,0.003l0.078,0.003l0.078,0.001l0.079,0.001l0.079,-0.001l0.078,-0.001l0.078,-0.003l0.077,-0.003l0.077,-0.004l0.077,-0.006l0.076,-0.006l0.076,-0.007l0.076,-0.008l0.075,-0.01l0.075,-0.01l0.074,-0.01l0.074,-0.012l0.074,-0.013l0.073,-0.014l0.073,-0.014l0.073,-0.015l0.072,-0.017l0.072,-0.017l0.072,-0.018l0.071,-0.019l0.071,-0.019l0.07,-0.021l0.07,-0.021l0.07,-0.022l0.07,-0.023l0.069,-0.024l0.068,-0.025l0.069,-0.025l0.067,-0.027l0.068,-0.027l0.067,-0.028l0.067,-0.028l0.066,-0.03l0.066,-0.03l0.066,-0.031l0.065,-0.032l0.065,-0.033l0.064,-0.033l0.063,-0.034l0.064,-0.036l0.063,-0.035l0.062,-0.037l0.063,-0.037l0.062,-0.038l0.061,-0.039l0.06,-0.039l0.061,-0.041l0.06,-0.04l0.058,-0.042l0.06,-0.042l0.058,-0.044l0.058,-0.043l0.057,-0.045l0.056,-0.044l0.056,-0.046l0.056,-0.047l0.055,-0.047l0.055,-0.048l0.053,-0.048l0.053,-0.049l0.053,-0.05l0.053,-0.05l0.051,-0.051l0.051,-0.051l0.05,-0.053l0.05,-0.053l0.049,-0.053l0.048,-0.053l0.048,-0.055l0.047,-0.055l0.046,-0.055l0.047,-0.057l0.045,-0.056l0.044,-0.057l0.044,-0.058l0.043,-0.059l0.042,-0.059l0.042,-0.059l0.04,-0.059l0.04,-0.06l0.04,-0.061l0.039,-0.062l0.038,-0.061l0.037,-0.063l0.037,-0.062l0.035,-0.063l0.035,-0.063l0.035,-0.064l0.033,-0.065l0.033,-0.064l0.032,-0.065l0.031,-0.066l0.03,-0.066l0.03,-0.066l0.028,-0.067l0.028,-0.067l0.027,-0.067l0.027,-0.068l0.025,-0.069l0.025,-0.069l0.024,-0.068l0.023,-0.07l0.022,-0.07l0.022,-0.071l0.02,-0.069l0.019,-0.071l0.019,-0.071l0.018,-0.072l0.017,-0.072l0.017,-0.072l0.015,-0.073l0.014,-0.073l0.014,-0.073l0.013,-0.074l0.011,-0.073l0.011,-0.075l0.011,-0.076l0.009,-0.075l0.008,-0.074l0.007,-0.077l0.006,-0.077l0.006,-0.075l0.004,-0.077l0.003,-0.078l0.003,-0.079l0.001,-0.078l0.001,-0.078l-0.001,-0.078l-0.001,-0.078l-0.003,-0.079l-0.003,-0.078l-0.004,-0.077l-0.006,-0.075l-0.006,-0.077l-0.007,-0.077l-0.008,-0.074l-0.009,-0.075l-0.011,-0.076l-0.011,-0.075l-0.011,-0.073l-0.013,-0.074l-0.014,-0.073l-0.014,-0.073l-0.015,-0.073l-0.017,-0.072l-0.017,-0.072l-0.018,-0.072l-0.018,-0.071l-0.02,-0.071l-0.02,-0.069l-0.022,-0.071l-0.022,-0.07l-0.023,-0.07l-0.024,-0.068l-0.025,-0.069l-0.025,-0.069l-0.027,-0.068l-0.027,-0.067l-0.028,-0.067l-0.028,-0.067l-0.03,-0.066l-0.03,-0.066l-0.031,-0.066l-0.032,-0.065l-0.033,-0.064l-0.033,-0.065l-0.035,-0.064l-0.035,-0.063l-0.035,-0.063l-0.037,-0.062l-0.037,-0.063l-0.038,-0.061l-0.039,-0.062l-0.04,-0.061l-0.04,-0.06l-0.04,-0.059l-0.042,-0.059l-0.042,-0.059l-0.043,-0.059l-0.044,-0.058l-0.044,-0.057l-0.045,-0.056l-0.047,-0.057l-0.046,-0.055l-0.047,-0.055l-0.048,-0.055l-0.048,-0.053l-0.049,-0.053l-0.05,-0.053l-0.05,-0.053l-0.051,-0.051l-0.051,-0.051l-0.053,-0.05l-0.053,-0.05l-0.053,-0.049l-0.053,-0.048l-0.055,-0.048l-0.055,-0.047l-0.056,-0.047l-0.056,-0.046l-0.056,-0.044l-0.057,-0.045l-0.058,-0.043l-0.058,-0.044l-0.06,-0.042l-0.058,-0.042l-0.06,-0.04l-0.061,-0.041l-0.06,-0.039l-0.061,-0.039l-0.062,-0.038l-0.063,-0.037l-0.062,-0.037l-0.063,-0.035l-0.063,-0.036l-0.064,-0.034l-0.064,-0.033l-0.065,-0.033l-0.065,-0.032l-0.066,-0.031l-0.066,-0.03l-0.066,-0.03l-0.067,-0.028l-0.067,-0.028l-0.068,-0.027l-0.067,-0.027l-0.069,-0.025l-0.068,-0.025l-0.069,-0.024l-0.07,-0.023l-0.07,-0.022l-0.07,-0.021l-0.07,-0.021l-0.071,-0.02l-0.071,-0.018l-0.072,-0.018l-0.072,-0.017l-0.072,-0.017l-0.073,-0.015l-0.073,-0.014l-0.073,-0.014l-0.074,-0.013l-0.074,-0.012l-0.074,-0.01l-0.075,-0.01l-0.075,-0.01l-0.076,-0.008l-0.076,-0.007l-0.076,-0.006l-0.077,-0.006l-0.077,-0.004l-0.077,-0.003l-0.078,-0.003l-0.078,-0.001l-0.079,-0.001l-0.079,0.001Z"/>
        </g>
        <g id="emoji">
            <path d="M16.18,2.001l0.18,0.004l0.179,0.005l0.179,0.008l0.178,0.01l0.178,0.013l0.177,0.014l0.177,0.017l0.175,0.019l0.176,0.021l0.175,0.024l0.174,0.025l0.173,0.028l0.173,0.03l0.172,0.032l0.172,0.034l0.17,0.036l0.17,0.038l0.169,0.04l0.169,0.042l0.167,0.045l0.167,0.046l0.166,0.048l0.165,0.05l0.165,0.053l0.163,0.054l0.162,0.056l0.162,0.058l0.16,0.06l0.16,0.062l0.159,0.064l0.157,0.065l0.157,0.068l0.156,0.069l0.154,0.071l0.154,0.073l0.153,0.075l0.151,0.076l0.151,0.079l0.149,0.08l0.148,0.081l0.148,0.084l0.146,0.085l0.144,0.087l0.144,0.088l0.143,0.091l0.141,0.092l0.14,0.093l0.139,0.095l0.138,0.097l0.136,0.098l0.136,0.1l0.134,0.102l0.132,0.103l0.132,0.104l0.13,0.107l0.129,0.107l0.127,0.109l0.127,0.111l0.124,0.112l0.124,0.114l0.122,0.115l0.12,0.116l0.12,0.118l0.118,0.12l0.116,0.12l0.115,0.122l0.114,0.124l0.112,0.125l0.11,0.125l0.11,0.128l0.108,0.129l0.105,0.13l0.105,0.131l0.103,0.133l0.102,0.134l0.1,0.136l0.098,0.136l0.097,0.138l0.095,0.139l0.094,0.14l0.091,0.141l0.09,0.143l0.089,0.144l0.087,0.144l0.085,0.146l0.084,0.148l0.082,0.148l0.08,0.149l0.078,0.151l0.076,0.151l0.075,0.153l0.073,0.153l0.071,0.155l0.069,0.156l0.068,0.157l0.065,0.158l0.064,0.158l0.062,0.16l0.06,0.16l0.058,0.162l0.056,0.163l0.054,0.163l0.052,0.163l0.051,0.165l0.048,0.167l0.046,0.167l0.045,0.167l0.042,0.168l0.04,0.17l0.038,0.17l0.036,0.17l0.034,0.172l0.032,0.172l0.03,0.173l0.028,0.173l0.025,0.175l0.024,0.174l0.021,0.175l0.019,0.177l0.017,0.176l0.014,0.177l0.013,0.178l0.01,0.179l0.008,0.178l0.005,0.179l0.004,0.179l0.001,0.181l-0.001,0.181l-0.004,0.179l-0.005,0.179l-0.008,0.178l-0.01,0.179l-0.013,0.178l-0.014,0.177l-0.017,0.176l-0.019,0.177l-0.021,0.175l-0.024,0.174l-0.025,0.175l-0.028,0.173l-0.03,0.173l-0.032,0.172l-0.034,0.172l-0.036,0.17l-0.038,0.17l-0.04,0.17l-0.042,0.168l-0.045,0.167l-0.046,0.167l-0.048,0.167l-0.051,0.165l-0.052,0.163l-0.054,0.163l-0.056,0.163l-0.058,0.162l-0.06,0.16l-0.062,0.16l-0.064,0.158l-0.065,0.158l-0.068,0.157l-0.069,0.156l-0.071,0.155l-0.073,0.153l-0.075,0.153l-0.076,0.151l-0.078,0.151l-0.08,0.149l-0.082,0.148l-0.084,0.148l-0.085,0.146l-0.087,0.144l-0.089,0.144l-0.09,0.143l-0.091,0.141l-0.094,0.14l-0.095,0.139l-0.097,0.138l-0.098,0.136l-0.1,0.136l-0.102,0.134l-0.103,0.133l-0.105,0.131l-0.105,0.13l-0.108,0.129l-0.11,0.128l-0.11,0.125l-0.112,0.125l-0.114,0.124l-0.115,0.122l-0.116,0.12l-0.118,0.12l-0.12,0.118l-0.12,0.116l-0.122,0.115l-0.124,0.114l-0.124,0.112l-0.127,0.111l-0.127,0.109l-0.129,0.107l-0.13,0.107l-0.132,0.104l-0.132,0.103l-0.134,0.102l-0.136,0.1l-0.136,0.098l-0.138,0.097l-0.139,0.095l-0.14,0.093l-0.141,0.092l-0.143,0.091l-0.144,0.088l-0.144,0.087l-0.146,0.085l-0.148,0.084l-0.148,0.081l-0.149,0.08l-0.151,0.079l-0.151,0.076l-0.153,0.075l-0.154,0.073l-0.154,0.071l-0.156,0.069l-0.157,0.068l-0.157,0.065l-0.159,0.064l-0.16,0.062l-0.16,0.06l-0.162,0.058l-0.162,0.056l-0.163,0.054l-0.165,0.053l-0.165,0.05l-0.166,0.048l-0.167,0.046l-0.167,0.045l-0.168,0.042l-0.17,0.04l-0.17,0.038l-0.17,0.036l-0.172,0.034l-0.172,0.032l-0.173,0.03l-0.173,0.028l-0.174,0.025l-0.175,0.024l-0.176,0.021l-0.175,0.019l-0.177,0.017l-0.177,0.014l-0.178,0.013l-0.178,0.01l-0.179,0.008l-0.179,0.005l-0.18,0.004l-0.18,0.001l-0.18,-0.001l-0.18,-0.004l-0.179,-0.005l-0.179,-0.008l-0.178,-0.01l-0.178,-0.013l-0.177,-0.014l-0.177,-0.017l-0.176,-0.019l-0.175,-0.021l-0.175,-0.024l-0.174,-0.025l-0.173,-0.028l-0.173,-0.03l-0.172,-0.032l-0.172,-0.034l-0.17,-0.036l-0.17,-0.038l-0.17,-0.04l-0.168,-0.042l-0.168,-0.045l-0.166,-0.046l-0.166,-0.048l-0.165,-0.05l-0.164,-0.053l-0.164,-0.054l-0.162,-0.056l-0.162,-0.058l-0.16,-0.06l-0.16,-0.062l-0.159,-0.064l-0.158,-0.065l-0.156,-0.068l-0.156,-0.069l-0.155,-0.071l-0.153,-0.073l-0.153,-0.075l-0.151,-0.076l-0.15,-0.078l-0.15,-0.081l-0.149,-0.081l-0.147,-0.084l-0.145,-0.085l-0.145,-0.087l-0.144,-0.089l-0.143,-0.09l-0.141,-0.091l-0.14,-0.094l-0.139,-0.095l-0.138,-0.097l-0.137,-0.098l-0.135,-0.1l-0.134,-0.102l-0.133,-0.103l-0.131,-0.104l-0.13,-0.106l-0.129,-0.108l-0.128,-0.109l-0.126,-0.111l-0.124,-0.112l-0.124,-0.113l-0.122,-0.115l-0.121,-0.117l-0.119,-0.118l-0.118,-0.119l-0.117,-0.121l-0.115,-0.122l-0.113,-0.123l-0.112,-0.125l-0.111,-0.127l-0.109,-0.127l-0.108,-0.129l-0.106,-0.13l-0.104,-0.131l-0.103,-0.133l-0.102,-0.134l-0.1,-0.136l-0.098,-0.136l-0.097,-0.138l-0.095,-0.138l-0.093,-0.141l-0.093,-0.142l-0.089,-0.142l-0.089,-0.143l-0.087,-0.146l-0.085,-0.146l-0.084,-0.147l-0.081,-0.148l-0.08,-0.149l-0.079,-0.151l-0.076,-0.151l-0.075,-0.153l-0.073,-0.153l-0.071,-0.155l-0.069,-0.156l-0.068,-0.157l-0.065,-0.157l-0.064,-0.159l-0.062,-0.16l-0.06,-0.161l-0.058,-0.161l-0.056,-0.162l-0.054,-0.164l-0.053,-0.164l-0.05,-0.165l-0.048,-0.166l-0.046,-0.167l-0.045,-0.167l-0.042,-0.168l-0.04,-0.17l-0.038,-0.17l-0.036,-0.17l-0.034,-0.172l-0.032,-0.172l-0.03,-0.173l-0.028,-0.173l-0.025,-0.174l-0.024,-0.175l-0.021,-0.175l-0.019,-0.176l-0.017,-0.178l-0.014,-0.177l-0.013,-0.177l-0.01,-0.178l-0.008,-0.179l-0.006,-0.179l-0.003,-0.18l-0.001,-0.18l0.001,-0.18l0.003,-0.18l0.006,-0.179l0.008,-0.179l0.01,-0.178l0.013,-0.177l0.014,-0.177l0.017,-0.178l0.019,-0.176l0.021,-0.175l0.024,-0.175l0.025,-0.174l0.028,-0.173l0.03,-0.173l0.032,-0.172l0.034,-0.172l0.036,-0.17l0.038,-0.17l0.04,-0.17l0.042,-0.168l0.045,-0.167l0.046,-0.167l0.048,-0.166l0.05,-0.165l0.053,-0.164l0.054,-0.164l0.056,-0.162l0.058,-0.161l0.06,-0.161l0.062,-0.16l0.064,-0.159l0.065,-0.157l0.068,-0.157l0.069,-0.156l0.071,-0.155l0.073,-0.153l0.075,-0.153l0.076,-0.151l0.079,-0.151l0.08,-0.149l0.081,-0.148l0.084,-0.147l0.085,-0.146l0.087,-0.146l0.089,-0.143l0.089,-0.142l0.093,-0.142l0.093,-0.141l0.095,-0.138l0.097,-0.138l0.098,-0.136l0.1,-0.136l0.102,-0.134l0.103,-0.133l0.104,-0.131l0.106,-0.13l0.108,-0.129l0.109,-0.127l0.111,-0.127l0.112,-0.125l0.113,-0.123l0.115,-0.122l0.117,-0.121l0.118,-0.119l0.119,-0.118l0.121,-0.117l0.122,-0.115l0.124,-0.113l0.124,-0.112l0.126,-0.111l0.128,-0.109l0.129,-0.108l0.13,-0.106l0.131,-0.104l0.133,-0.103l0.134,-0.102l0.135,-0.1l0.137,-0.098l0.138,-0.097l0.139,-0.095l0.14,-0.094l0.141,-0.091l0.143,-0.09l0.144,-0.089l0.145,-0.087l0.145,-0.085l0.147,-0.084l0.149,-0.082l0.15,-0.08l0.15,-0.078l0.151,-0.076l0.153,-0.075l0.153,-0.073l0.155,-0.071l0.156,-0.069l0.156,-0.068l0.158,-0.065l0.159,-0.064l0.16,-0.062l0.16,-0.06l0.162,-0.058l0.162,-0.056l0.164,-0.054l0.164,-0.053l0.165,-0.05l0.166,-0.048l0.166,-0.046l0.168,-0.045l0.168,-0.042l0.17,-0.04l0.17,-0.038l0.17,-0.036l0.172,-0.034l0.172,-0.032l0.173,-0.03l0.173,-0.028l0.174,-0.025l0.175,-0.024l0.175,-0.021l0.176,-0.019l0.177,-0.017l0.177,-0.014l0.178,-0.013l0.178,-0.01l0.179,-0.008l0.179,-0.005l0.18,-0.004l0.18,-0.001l0.18,0.001Zm-0.284,6l-0.104,0.002l-0.103,0.003l-0.103,0.005l-0.102,0.005l-0.102,0.007l-0.102,0.009l-0.101,0.01l-0.1,0.01l-0.1,0.013l-0.1,0.013l-0.1,0.014l-0.099,0.016l-0.098,0.017l-0.098,0.018l-0.098,0.02l-0.097,0.02l-0.097,0.022l-0.096,0.023l-0.095,0.024l-0.096,0.025l-0.094,0.026l-0.095,0.028l-0.094,0.028l-0.093,0.03l-0.093,0.031l-0.092,0.032l-0.092,0.033l-0.092,0.034l-0.091,0.035l-0.09,0.036l-0.089,0.038l-0.09,0.038l-0.089,0.04l-0.088,0.04l-0.087,0.042l-0.087,0.042l-0.087,0.044l-0.086,0.045l-0.085,0.045l-0.084,0.047l-0.084,0.048l-0.084,0.048l-0.083,0.05l-0.082,0.05l-0.081,0.052l-0.082,0.053l-0.08,0.053l-0.079,0.055l-0.079,0.055l-0.078,0.056l-0.078,0.058l-0.077,0.058l-0.075,0.059l-0.076,0.06l-0.075,0.061l-0.073,0.061l-0.073,0.063l-0.073,0.064l-0.072,0.064l-0.071,0.065l-0.07,0.067l-0.069,0.066l-0.068,0.068l-0.068,0.068l-0.066,0.069l-0.067,0.07l-0.065,0.072l-0.065,0.071l-0.063,0.072l-0.062,0.074l-0.062,0.073l-0.061,0.075l-0.06,0.075l-0.059,0.077l-0.059,0.077l-0.056,0.077l-0.057,0.078l-0.055,0.079l-0.055,0.08l-0.053,0.08l-0.052,0.08l-0.052,0.082l-0.051,0.083l-0.049,0.082l-0.049,0.083l-0.048,0.085l-0.047,0.084l-0.045,0.085l-0.045,0.086l-0.044,0.087l-0.042,0.087l-0.042,0.087l-0.04,0.088l-0.04,0.089l-0.038,0.089l-0.038,0.091l-0.036,0.09l-0.035,0.09l-0.034,0.091l-0.033,0.093l-0.032,0.092l-0.031,0.093l-0.03,0.093l-0.028,0.094l-0.028,0.094l-0.026,0.095l-0.025,0.095l-0.024,0.096l-0.023,0.096l-0.022,0.097l-0.02,0.098l-0.02,0.097l-0.018,0.098l-0.017,0.099l-0.016,0.099l-0.014,0.099l-0.013,0.099l-0.013,0.101l-0.011,0.101l-0.009,0.1l-0.008,0.102l-0.008,0.102l-0.005,0.103l-0.005,0.102l-0.003,0.103l-0.002,0.104l-0.001,0.104l0.001,0.104l0.002,0.104l0.003,0.103l0.005,0.102l0.005,0.103l0.008,0.102l0.008,0.102l0.009,0.1l0.011,0.101l0.013,0.101l0.013,0.099l0.014,0.099l0.016,0.099l0.017,0.099l0.018,0.098l0.02,0.097l0.02,0.098l0.022,0.097l0.023,0.096l0.024,0.096l0.025,0.095l0.026,0.095l0.028,0.094l0.028,0.094l0.03,0.093l0.031,0.093l0.032,0.092l0.033,0.093l0.034,0.091l0.035,0.09l0.036,0.09l0.038,0.091l0.038,0.089l0.04,0.089l0.04,0.088l0.042,0.087l0.042,0.087l0.044,0.087l0.045,0.086l0.045,0.085l0.047,0.084l0.048,0.085l0.049,0.083l0.049,0.082l0.051,0.083l0.052,0.082l0.052,0.08l0.053,0.08l0.055,0.08l0.055,0.079l0.057,0.078l0.056,0.077l0.059,0.077l0.059,0.077l0.06,0.075l0.061,0.075l0.062,0.073l0.062,0.074l0.063,0.072l0.065,0.071l0.065,0.072l0.067,0.07l0.066,0.069l0.068,0.068l0.068,0.068l0.069,0.067l0.07,0.066l0.071,0.065l0.072,0.064l0.073,0.064l0.073,0.063l0.073,0.061l0.075,0.061l0.076,0.06l0.075,0.059l0.077,0.058l0.078,0.058l0.078,0.056l0.079,0.055l0.079,0.055l0.08,0.053l0.082,0.053l0.081,0.051l0.082,0.051l0.083,0.05l0.084,0.048l0.084,0.048l0.084,0.047l0.085,0.045l0.086,0.045l0.087,0.044l0.087,0.042l0.087,0.042l0.088,0.04l0.089,0.04l0.09,0.038l0.089,0.038l0.09,0.036l0.091,0.035l0.092,0.034l0.092,0.033l0.092,0.032l0.093,0.031l0.093,0.03l0.094,0.028l0.095,0.028l0.094,0.026l0.095,0.025l0.096,0.024l0.097,0.023l0.096,0.022l0.097,0.02l0.098,0.02l0.098,0.018l0.098,0.017l0.099,0.016l0.1,0.014l0.1,0.013l0.1,0.013l0.1,0.01l0.101,0.01l0.102,0.009l0.102,0.007l0.102,0.005l0.103,0.005l0.103,0.003l0.104,0.002l0.104,0.001l0.104,-0.001l0.104,-0.002l0.103,-0.003l0.103,-0.005l0.102,-0.005l0.102,-0.007l0.101,-0.009l0.101,-0.01l0.101,-0.01l0.1,-0.013l0.1,-0.013l0.1,-0.014l0.099,-0.016l0.098,-0.017l0.098,-0.018l0.098,-0.02l0.097,-0.02l0.096,-0.022l0.097,-0.023l0.096,-0.024l0.095,-0.025l0.095,-0.026l0.094,-0.028l0.094,-0.028l0.093,-0.03l0.093,-0.031l0.092,-0.032l0.092,-0.033l0.092,-0.034l0.09,-0.035l0.091,-0.036l0.09,-0.038l0.089,-0.038l0.088,-0.04l0.089,-0.04l0.087,-0.042l0.087,-0.042l0.087,-0.044l0.086,-0.045l0.085,-0.045l0.085,-0.047l0.083,-0.048l0.084,-0.048l0.083,-0.05l0.082,-0.051l0.081,-0.051l0.081,-0.053l0.081,-0.054l0.079,-0.054l0.079,-0.055l0.078,-0.057l0.078,-0.057l0.077,-0.058l0.076,-0.059l0.075,-0.06l0.074,-0.061l0.075,-0.062l0.073,-0.062l0.072,-0.064l0.072,-0.064l0.07,-0.065l0.07,-0.066l0.07,-0.067l0.068,-0.068l0.068,-0.068l0.067,-0.069l0.066,-0.071l0.065,-0.07l0.064,-0.072l0.064,-0.073l0.062,-0.073l0.062,-0.073l0.061,-0.075l0.06,-0.075l0.059,-0.076l0.058,-0.077l0.057,-0.078l0.057,-0.078l0.055,-0.079l0.055,-0.079l0.053,-0.08l0.053,-0.082l0.051,-0.081l0.051,-0.082l0.05,-0.083l0.049,-0.084l0.047,-0.084l0.047,-0.084l0.045,-0.085l0.045,-0.086l0.044,-0.087l0.042,-0.087l0.042,-0.087l0.04,-0.088l0.04,-0.089l0.038,-0.089l0.038,-0.09l0.036,-0.09l0.035,-0.091l0.034,-0.092l0.033,-0.092l0.032,-0.091l0.031,-0.094l0.03,-0.094l0.028,-0.094l0.028,-0.093l0.026,-0.095l0.025,-0.095l0.024,-0.096l0.023,-0.096l0.022,-0.097l0.02,-0.098l0.02,-0.097l0.018,-0.098l0.017,-0.099l0.016,-0.098l0.014,-0.099l0.014,-0.101l0.012,-0.1l0.01,-0.1l0.01,-0.102l0.009,-0.102l0.007,-0.101l0.005,-0.102l0.005,-0.103l0.003,-0.104l0.002,-0.103l0.001,-0.104l-0.001,-0.104l-0.002,-0.103l-0.003,-0.104l-0.005,-0.103l-0.005,-0.102l-0.007,-0.101l-0.009,-0.102l-0.01,-0.102l-0.01,-0.1l-0.012,-0.1l-0.014,-0.101l-0.014,-0.099l-0.016,-0.098l-0.017,-0.099l-0.018,-0.098l-0.02,-0.097l-0.02,-0.098l-0.022,-0.097l-0.023,-0.096l-0.024,-0.096l-0.025,-0.095l-0.026,-0.095l-0.028,-0.093l-0.028,-0.094l-0.03,-0.094l-0.031,-0.094l-0.032,-0.091l-0.033,-0.092l-0.034,-0.092l-0.035,-0.091l-0.036,-0.09l-0.038,-0.09l-0.038,-0.089l-0.04,-0.089l-0.04,-0.088l-0.042,-0.087l-0.042,-0.087l-0.044,-0.087l-0.045,-0.086l-0.045,-0.085l-0.047,-0.084l-0.047,-0.084l-0.049,-0.084l-0.05,-0.083l-0.051,-0.082l-0.051,-0.081l-0.053,-0.082l-0.053,-0.08l-0.055,-0.079l-0.055,-0.079l-0.057,-0.078l-0.057,-0.078l-0.058,-0.077l-0.059,-0.076l-0.06,-0.075l-0.061,-0.075l-0.062,-0.073l-0.062,-0.073l-0.064,-0.073l-0.064,-0.072l-0.065,-0.07l-0.066,-0.07l-0.067,-0.07l-0.068,-0.068l-0.068,-0.068l-0.07,-0.067l-0.07,-0.066l-0.07,-0.065l-0.072,-0.064l-0.072,-0.064l-0.073,-0.062l-0.075,-0.062l-0.074,-0.061l-0.075,-0.06l-0.076,-0.059l-0.077,-0.058l-0.078,-0.057l-0.078,-0.057l-0.079,-0.055l-0.079,-0.054l-0.081,-0.054l-0.081,-0.053l-0.081,-0.051l-0.082,-0.051l-0.083,-0.05l-0.084,-0.048l-0.083,-0.048l-0.085,-0.047l-0.085,-0.045l-0.086,-0.045l-0.087,-0.044l-0.087,-0.042l-0.087,-0.042l-0.089,-0.04l-0.088,-0.04l-0.089,-0.038l-0.09,-0.038l-0.091,-0.036l-0.09,-0.035l-0.092,-0.034l-0.092,-0.033l-0.092,-0.032l-0.093,-0.031l-0.093,-0.03l-0.094,-0.028l-0.094,-0.028l-0.095,-0.026l-0.096,-0.025l-0.095,-0.024l-0.097,-0.023l-0.096,-0.022l-0.097,-0.02l-0.098,-0.02l-0.098,-0.018l-0.098,-0.017l-0.099,-0.016l-0.1,-0.014l-0.1,-0.013l-0.1,-0.013l-0.101,-0.01l-0.101,-0.01l-0.101,-0.009l-0.102,-0.007l-0.102,-0.005l-0.103,-0.005l-0.103,-0.003l-0.104,-0.002l-0.104,-0.001l-0.104,0.001Z" style="fill:#e02a33;"/>
        </g>
    </g>
</svg>
