<?xml version="1.0" encoding="UTF-8" standalone="no"?>
<!DOCTYPE svg PUBLIC "-//W3C//DTD SVG 1.1//EN" "http://www.w3.org/Graphics/SVG/1.1/DTD/svg11.dtd">
<svg width="100%" height="100%" viewBox="0 0 32 32" version="1.1" xmlns="http://www.w3.org/2000/svg" xmlns:xlink="http://www.w3.org/1999/xlink" xml:space="preserve" xmlns:serif="http://www.serif.com/" style="fill-rule:evenodd;clip-rule:evenodd;stroke-linecap:round;stroke-linejoin:round;stroke-miterlimit:1.5;">
    <rect id="beach_umbrella" x="0" y="0" width="32" height="32" style="fill:none;"/>
    <g id="outline">
        <path d="M30,23l-8,-18l-20,4l28,14Z" style="fill:none;stroke:#000;stroke-width:4px;"/>
        <rect x="2" y="5" width="29" height="27" style="fill:none;"/>
        <clipPath id="_clip1">
            <rect x="2" y="5" width="29" height="27"/>
        </clipPath>
        <g clip-path="url(#_clip1)">
            <path d="M16.892,14.271l-10.892,18.729" style="fill:none;stroke:#000;stroke-width:6px;stroke-linecap:square;stroke-linejoin:miter;"/>
        </g>
    </g>
    <g id="emoji">
        <rect x="2" y="5" width="29" height="25" style="fill:none;"/>
        <clipPath id="_clip2">
            <rect x="2" y="5" width="29" height="25"/>
        </clipPath>
        <g clip-path="url(#_clip2)">
            <path d="M18.259,13.909l-11.897,20.458l-1.729,-1.005l11.898,-20.459l1.728,1.006Z" style="fill:#919191;fill-rule:nonzero;"/>
            <clipPath id="_clip3">
                <path d="M18.259,13.909l-11.897,20.458l-1.729,-1.005l11.898,-20.459l1.728,1.006Z" clip-rule="nonzero"/>
            </clipPath>
            <g clip-path="url(#_clip3)">
                <path d="M30,23l-28,-14l28,14Z" style="fill:none;stroke:#535353;stroke-width:8px;stroke-linejoin:miter;"/>
            </g>
        </g>
        <path d="M30,23l-8,-18l-20,4l28,14Z" style="fill:#e34c3e;"/>
        <clipPath id="_clip4">
            <path d="M30,23l-8,-18l-20,4l28,14Z"/>
        </clipPath>
        <g clip-path="url(#_clip4)">
            <rect x="22" y="5" width="10" height="20" style="fill:#b7271a;"/>
        </g>
    </g>
</svg>
