<?xml version="1.0" encoding="UTF-8" standalone="no"?>
<!DOCTYPE svg PUBLIC "-//W3C//DTD SVG 1.1//EN" "http://www.w3.org/Graphics/SVG/1.1/DTD/svg11.dtd">
<svg width="100%" height="100%" viewBox="0 0 32 32" version="1.1" xmlns="http://www.w3.org/2000/svg" xmlns:xlink="http://www.w3.org/1999/xlink" xml:space="preserve" xmlns:serif="http://www.serif.com/" style="fill-rule:evenodd;clip-rule:evenodd;stroke-linecap:round;stroke-linejoin:round;stroke-miterlimit:1.5;">
    <rect id="moai" x="0" y="0" width="32" height="32" style="fill:none;"/>
    <clipPath id="_clip1">
        <rect x="0" y="0" width="32" height="32"/>
    </clipPath>
    <g clip-path="url(#_clip1)">
        <path d="M7.257,19.889c-0.185,-0.121 -0.458,-0.372 -0.757,-0.889c-0.741,-1.282 -0.342,-5.328 -0.118,-7.125c0.05,-0.492 0.465,-0.867 0.96,-0.867c0.095,-0.008 0.158,-0.008 0.158,-0.008l0.233,0c0.162,-2.911 0.288,-5.086 0.295,-5.11c0.223,-0.64 1.64,-3.89 7.972,-3.89c6.332,0 7.749,3.25 7.972,3.89c0.007,0.024 0.133,2.199 0.295,5.11l0.233,0c-0,0 0.063,0 0.158,0.008c0.495,0 0.91,0.375 0.96,0.867c0.224,1.797 0.623,5.843 -0.118,7.125c-0.299,0.517 -0.572,0.768 -0.757,0.889c0.147,2.896 0.256,5.273 0.256,5.93c-0,0.825 -0.395,1.601 -1.063,2.085c-1.237,0.884 -4.551,2.096 -7.936,2.096c-3.385,0 -6.699,-1.212 -7.936,-2.096c-0.668,-0.484 -1.063,-1.26 -1.063,-2.085c-0,-0.657 0.109,-3.034 0.256,-5.93Z" style="fill:none;stroke:#000;stroke-width:4px;"/>
        <path d="M24.5,20l-17,0c0,0 -0.458,-0.063 -1,-1c-0.741,-1.282 -0.342,-5.328 -0.118,-7.125c0.05,-0.492 0.465,-0.867 0.96,-0.867c0.095,-0.008 0.158,-0.008 0.158,-0.008l17,0c-0,0 0.063,0 0.158,0.008c0.495,0 0.91,0.375 0.96,0.867c0.224,1.797 0.623,5.843 -0.118,7.125c-0.542,0.937 -1,1 -1,1Z" style="fill:#65594c;"/>
        <path d="M16,30c-3.385,0 -6.699,-1.212 -7.936,-2.096c-0.668,-0.484 -1.063,-1.26 -1.063,-2.085c-0.001,-1.872 0.903,-17.773 1.015,-19.732c0.008,-0.134 0.04,-0.266 0.096,-0.389c0.433,-0.771 2.395,-3.698 7.888,-3.698c5.493,0 7.455,2.927 7.879,3.703c0.055,0.121 0.088,0.252 0.095,0.385c0.122,1.958 1.026,17.859 1.025,19.731c-0,0.825 -0.395,1.601 -1.063,2.085c-1.237,0.884 -4.551,2.096 -7.936,2.096Z" style="fill:#81766a;"/>
        <path d="M16,18c-0.475,0.021 -2.69,0.009 -3.604,0.003c-0.106,-0 -0.207,-0.046 -0.278,-0.125c-0.071,-0.079 -0.105,-0.184 -0.093,-0.29c0.042,-0.289 0.118,-0.584 0.224,-0.857c0.003,-0.014 0.006,-0.027 0.011,-0.04c0.66,-2.046 1.19,-3.815 1.52,-5.691l-4.667,-0c-0.174,0 -0.34,-0.071 -0.46,-0.197c-0.119,-0.126 -0.182,-0.296 -0.172,-0.47c0.007,-0.776 0.04,-1.996 0.256,-2.333c1.042,-1.625 3.89,-2 7.263,-2c3.373,-0 6.221,0.375 7.263,2c0.216,0.337 0.249,1.557 0.256,2.333c0.01,0.174 -0.053,0.344 -0.172,0.47c-0.12,0.126 -0.286,0.197 -0.46,0.197l-4.667,-0c0.33,1.876 0.86,3.645 1.52,5.691c0.005,0.013 0.008,0.026 0.011,0.04c0.106,0.273 0.182,0.568 0.224,0.857c0.012,0.106 -0.022,0.211 -0.093,0.29c-0.071,0.079 -0.172,0.125 -0.278,0.125c-0.914,0.006 -3.129,0.018 -3.604,-0.003Zm2.602,-2.513c-0.759,-2.472 -1.282,-4.645 -1.433,-7.287c-0.418,-0.337 -0.816,-0.449 -1.158,-0.448c-0.004,0 -0.007,0 -0.011,0c-0.004,0 -0.007,0 -0.011,0c-0.342,-0.001 -0.74,0.111 -1.158,0.448c-0.151,2.642 -0.674,4.815 -1.433,7.287c0.836,-0.337 2.096,-0.459 2.602,-0.459c0.506,0 1.766,0.122 2.602,0.459Zm-2.602,11.013c-1.521,-0 -2.946,-0.581 -2.946,-1.5c0,-0.714 -0.878,-1.328 -1.342,-1.5c-0.446,-0.166 -2.11,-0.894 -1.738,-1.152l0.051,-0.039c0.945,-0.655 2.868,-0.809 5.975,-0.809c3.107,-0 5.03,0.154 5.975,0.809l0.051,0.039c0.372,0.258 -1.292,0.986 -1.738,1.152c-0.464,0.172 -1.342,0.786 -1.342,1.5c-0,0.919 -1.425,1.5 -2.946,1.5Zm0,-6.138c-3.023,-0 -6.448,0.496 -6.448,0.496c-0.174,0.025 -0.341,-0.078 -0.396,-0.245c-0.054,-0.167 0.019,-0.349 0.173,-0.432c0,0 1.917,-1.043 6.671,-1.043c4.754,0 6.671,1.043 6.671,1.043c0.154,0.083 0.227,0.265 0.173,0.432c-0.055,0.167 -0.222,0.27 -0.396,0.245c0,-0 -3.425,-0.496 -6.448,-0.496Z" style="fill:#3b3023;"/>
        <path d="M16,20c-3.048,0 -6.5,0.5 -6.5,0.5c-0,0 1.869,-1 6.5,-1c4.631,0 6.5,1 6.5,1c-0,0 -3.452,-0.5 -6.5,-0.5Z" style="fill:none;"/>
    </g>
</svg>
