<?xml version="1.0" encoding="UTF-8" standalone="no"?>
<!DOCTYPE svg PUBLIC "-//W3C//DTD SVG 1.1//EN" "http://www.w3.org/Graphics/SVG/1.1/DTD/svg11.dtd">
<svg width="100%" height="100%" viewBox="0 0 32 32" version="1.1" xmlns="http://www.w3.org/2000/svg" xmlns:xlink="http://www.w3.org/1999/xlink" xml:space="preserve" xmlns:serif="http://www.serif.com/" style="fill-rule:evenodd;clip-rule:evenodd;stroke-linejoin:round;stroke-miterlimit:1.41421;">
    <rect id="snowy_mountain" x="0" y="0" width="32" height="32" style="fill:none;"/>
    <clipPath id="_clip1">
        <rect x="0" y="0" width="32" height="32"/>
    </clipPath>
    <g clip-path="url(#_clip1)">
        <g id="outline">
            <rect x="0" y="0" width="32" height="32"/>
        </g>
        <g id="emoji">
            <path d="M30,2l-28,0l0,7l1,1l26,0l1,-1l0,-7Z" style="fill:#4d83ef;"/>
            <path d="M30,16l-1,1l-26,0l-1,-1l0,-7l28,0l0,7Z" style="fill:#6898f7;"/>
            <path d="M2,20.5l0,-4.5l6,0l-6,4.5Zm21.5,-4.5l6.5,0l0,3l-5,-2l-1.5,-1Z" style="fill:#85acf9;"/>
            <path d="M2,22.303l0,-1.803l3,-4.5l6,-5l4,-5l5,3l5,6l3,2l2,2l0,2l-1,6l-25,0l-2,-4.697Z" style="fill:#e3ebfb;"/>
            <path d="M2,22.303l2.876,-4.315l-0.876,7.012l6,-5l2,-2l3,2l1,5l3,-5l0,-3l4,2l1,3l3,3l0,-2l2,3l0,-6l1,1l0,9l-28,0l0,-7.697Z" style="fill:#5f5e42;"/>
        </g>
    </g>
</svg>
