<?xml version="1.0" encoding="UTF-8" standalone="no"?>
<!DOCTYPE svg PUBLIC "-//W3C//DTD SVG 1.1//EN" "http://www.w3.org/Graphics/SVG/1.1/DTD/svg11.dtd">
<svg width="100%" height="100%" viewBox="0 0 32 32" version="1.1" xmlns="http://www.w3.org/2000/svg" xmlns:xlink="http://www.w3.org/1999/xlink" xml:space="preserve" xmlns:serif="http://www.serif.com/" style="fill-rule:evenodd;clip-rule:evenodd;stroke-linecap:square;stroke-linejoin:round;stroke-miterlimit:1.5;">
    <rect id="tokyo_tower" x="0" y="0" width="32" height="32" style="fill:none;"/>
    <g id="outline">
        <path d="M13,7l2,0l0,-5l2,0l0,5l2,0l0,2l-0.857,0l0.571,8l2.286,0l0,3l-1.934,0c0.274,1.136 0.747,2.219 1.4,3.199l4.534,6.801l-2,0c0,0 -1.169,-1.169 -2.243,-2.243c-1.125,-1.125 -2.651,-1.757 -4.242,-1.757c-0.34,0 -0.69,0 -1.03,0c-1.591,0 -3.117,0.632 -4.242,1.757l-2.243,2.243l-2,0c0,0 2.758,-4.137 4.534,-6.801c0.653,-0.98 1.126,-2.063 1.4,-3.199l-1.934,0l0,-3l2.286,0l0.571,-8l-0.857,0l0,-2Z" style="fill:none;stroke:#000;stroke-width:4px;"/>
    </g>
    <g id="emoji">
        <rect x="15" y="2" width="2" height="6" style="fill:#e02a33;"/>
        <path d="M18.571,15l0.241,3.364c0.123,1.728 0.693,3.394 1.654,4.835l4.534,6.801l-2,0c0,0 -1.169,-1.169 -2.243,-2.243c-1.125,-1.125 -2.651,-1.757 -4.242,-1.757c-0.34,0 -0.69,0 -1.03,0c-1.591,0 -3.117,0.632 -4.242,1.757l-2.243,2.243l-2,0c0,0 2.758,-4.137 4.534,-6.801c0.961,-1.441 1.531,-3.107 1.654,-4.835l0.241,-3.364l0.571,-1l4,0l0.571,1Z" style="fill:#e02a33;"/>
        <path d="M18.429,13l-0.429,1l-4,0l-0.429,-1l0.143,-2l0.286,-1l4,0l0.286,1l0.143,2Z" style="fill:#e02a33;"/>
        <path d="M18.571,15l-5.142,0l0.142,-2l4.858,0l0.142,2Z" style="fill:#fff;"/>
        <path d="M13.929,8l4.142,0l0.215,3l-4.572,0l0.215,-3Z" style="fill:#fff;"/>
        <rect x="11" y="17" width="10" height="3" style="fill:#fff;"/>
        <rect x="13" y="7" width="6" height="2" style="fill:#b5232a;"/>
    </g>
</svg>
