<?xml version="1.0" encoding="UTF-8" standalone="no"?><!DOCTYPE svg PUBLIC "-//W3C//DTD SVG 1.1//EN" "http://www.w3.org/Graphics/SVG/1.1/DTD/svg11.dtd"><svg width="100%" height="100%" viewBox="0 0 32 32" version="1.1" xmlns="http://www.w3.org/2000/svg" xmlns:xlink="http://www.w3.org/1999/xlink" xml:space="preserve" xmlns:serif="http://www.serif.com/" style="fill-rule:evenodd;clip-rule:evenodd;stroke-linejoin:round;stroke-miterlimit:2;"><rect id="volcano" x="0" y="0" width="32" height="32" style="fill:none;"/><clipPath id="_clip1"><rect x="0" y="0" width="32" height="32"/></clipPath><g clip-path="url(#_clip1)"><g id="outline"><path d="M32,2c0,-0.53 -0.211,-1.039 -0.586,-1.414c-0.375,-0.375 -0.884,-0.586 -1.414,-0.586l-28,0c-0.53,0 -1.039,0.211 -1.414,0.586c-0.375,0.375 -0.586,0.884 -0.586,1.414l0,28c0,0.53 0.211,1.039 0.586,1.414c0.375,0.375 0.884,0.586 1.414,0.586l28,0c0.53,0 1.039,-0.211 1.414,-0.586c0.375,-0.375 0.586,-0.884 0.586,-1.414l0,-28Z"/></g><g id="emoji"><path d="M30,2l-28,0l0,7l1,1l26,0l1,-1l0,-7Z" style="fill:#1185fa;"/><path d="M30,16l-1,1l-26,0l-1,-1l0,-7l28,0l0,7Z" style="fill:#3899fb;"/><path d="M25.818,16l4.182,0l0,3.429l-4.182,-3.429Zm-19.182,0l-4.636,3.625l0,-3.625l4.636,0Z" style="fill:#67b2fc;"/><path d="M2,19.625l8,-9.625l2,-2l2,1l5,-2l3,2l1,2l7,8.429l0,10.571l-28,0l0,-10.375Z" style="fill:#49433c;"/><path d="M20,16l5,13l-2,-1l-3,-9l-1,0l-1,-3l2,0Z" style="fill:#2d2925;"/><path d="M9,21l3,-7l2,-1l1,-3l1,0l-5,18l0,-4l-2,1l0,-4" style="fill:#2d2925;"/><path d="M20,9l4,9l1,0l-3,-7l-2,-2Z" style="fill:#2d2925;"/></g></g></svg>