<?xml version="1.0" encoding="UTF-8" standalone="no"?>
<!DOCTYPE svg PUBLIC "-//W3C//DTD SVG 1.1//EN" "http://www.w3.org/Graphics/SVG/1.1/DTD/svg11.dtd">
<svg width="100%" height="100%" viewBox="0 0 32 32" version="1.1" xmlns="http://www.w3.org/2000/svg" xmlns:xlink="http://www.w3.org/1999/xlink" xml:space="preserve" xmlns:serif="http://www.serif.com/" style="fill-rule:evenodd;clip-rule:evenodd;stroke-linejoin:round;stroke-miterlimit:1.41421;">
    <rect id="volcano" x="0" y="0" width="32" height="32" style="fill:none;"/>
    <clipPath id="_clip1">
        <rect x="0" y="0" width="32" height="32"/>
    </clipPath>
    <g clip-path="url(#_clip1)">
        <g id="outline">
            <rect x="0" y="0" width="32" height="32"/>
        </g>
        <g id="emoji">
            <path d="M30,2l-28,0l0,7l1,1l26,0l1,-1l0,-7Z" style="fill:#4d83ef;"/>
            <path d="M30,16l-1,1l-26,0l-1,-1l0,-7l28,0l0,7Z" style="fill:#6898f7;"/>
            <path d="M2,21.5l0,-5.5l6,0l-6,5.5Zm21.5,-5.5l6.5,0l0,5l-5,-4l-1.5,-1Z" style="fill:#85acf9;"/>
            <path d="M27.818,16l2.182,0l0,3.429l-2.182,-3.429Zm-23.182,0l-2.636,3.625l0,-3.625l2.636,0Z" style="fill:#85acf9;"/>
            <path d="M2,19.625l7,-9.625l2,-2l2,1l3,0l3,-2l5,3l6,9.429l0,10.571l-28,0l0,-10.375Z" style="fill:#49433c;"/>
            <ellipse cx="16" cy="12" rx="7" ry="2.5" style="fill:none;"/>
            <clipPath id="_clip2">
                <ellipse cx="16" cy="12" rx="7" ry="2.5"/>
            </clipPath>
            <g clip-path="url(#_clip2)">
                <ellipse cx="16" cy="13" rx="7" ry="2.5" style="fill:#ff6512;"/>
                <path d="M16.181,10.501l0.179,0.002l0.178,0.004l0.177,0.006l0.176,0.007l0.174,0.009l0.173,0.01l0.172,0.012l0.17,0.013l0.169,0.015l0.166,0.016l0.166,0.017l0.163,0.019l0.162,0.021l0.16,0.022l0.158,0.023l0.156,0.024l0.154,0.026l0.152,0.027l0.149,0.028l0.148,0.029l0.146,0.031l0.143,0.032l0.141,0.033l0.138,0.034l0.136,0.036l0.134,0.037l0.131,0.037l0.128,0.039l0.126,0.04l0.123,0.041l0.12,0.042l0.117,0.043l0.115,0.043l0.111,0.045l0.109,0.046l0.105,0.047l0.103,0.048l0.099,0.048l0.096,0.05l0.093,0.05l0.089,0.051l0.086,0.052l0.083,0.053l0.079,0.053l0.075,0.055l0.072,0.055l0.069,0.055l0.064,0.057l0.031,0.028l0.03,0.029l0.029,0.029l0.028,0.029l0.027,0.029l0.026,0.029l0.025,0.029l0.024,0.03l0.023,0.03l0.022,0.03l0.022,0.03l0.02,0.03l0.019,0.03l0.018,0.03l0.017,0.031l0.016,0.031l0.014,0.031l0.014,0.03l0.013,0.032l0.012,0.031l0.01,0.031l0.01,0.032l0.008,0.031l0.008,0.032l0.006,0.032l0.005,0.031l0.004,0.032l0.003,0.033l0.001,0.032l0.001,0.032l-0.001,0.032l-0.001,0.032l-0.003,0.033l-0.004,0.032l-0.005,0.031l-0.006,0.032l-0.008,0.032l-0.008,0.031l-0.01,0.032l-0.01,0.031l-0.012,0.031l-0.013,0.032l-0.014,0.03l-0.014,0.031l-0.016,0.031l-0.017,0.031l-0.018,0.03l-0.019,0.03l-0.02,0.03l-0.022,0.03l-0.022,0.03l-0.023,0.03l-0.024,0.03l-0.025,0.029l-0.026,0.029l-0.027,0.029l-0.028,0.029l-0.029,0.029l-0.03,0.029l-0.031,0.028l-0.064,0.057l-0.069,0.055l-0.072,0.055l-0.075,0.055l-0.079,0.053l-0.083,0.053l-0.086,0.052l-0.089,0.051l-0.093,0.05l-0.096,0.05l-0.099,0.048l-0.103,0.048l-0.105,0.047l-0.109,0.046l-0.111,0.045l-0.115,0.043l-0.117,0.043l-0.12,0.042l-0.123,0.041l-0.126,0.04l-0.128,0.039l-0.131,0.037l-0.134,0.037l-0.136,0.036l-0.138,0.034l-0.141,0.033l-0.143,0.032l-0.146,0.031l-0.148,0.029l-0.149,0.028l-0.152,0.027l-0.154,0.026l-0.156,0.024l-0.158,0.023l-0.16,0.022l-0.162,0.021l-0.163,0.019l-0.166,0.017l-0.166,0.016l-0.169,0.015l-0.17,0.013l-0.172,0.012l-0.173,0.01l-0.174,0.009l-0.176,0.007l-0.177,0.006l-0.178,0.004l-0.179,0.002l-0.181,0.001l-0.181,-0.001l-0.179,-0.002l-0.178,-0.004l-0.177,-0.006l-0.176,-0.007l-0.174,-0.009l-0.173,-0.01l-0.172,-0.012l-0.17,-0.013l-0.169,-0.015l-0.166,-0.016l-0.166,-0.017l-0.163,-0.019l-0.162,-0.021l-0.16,-0.022l-0.158,-0.023l-0.156,-0.024l-0.154,-0.026l-0.152,-0.027l-0.149,-0.028l-0.148,-0.029l-0.146,-0.031l-0.143,-0.032l-0.141,-0.033l-0.138,-0.034l-0.136,-0.036l-0.134,-0.037l-0.131,-0.037l-0.128,-0.039l-0.126,-0.04l-0.123,-0.041l-0.12,-0.042l-0.117,-0.043l-0.115,-0.043l-0.111,-0.045l-0.109,-0.046l-0.105,-0.047l-0.103,-0.048l-0.099,-0.048l-0.096,-0.05l-0.093,-0.05l-0.089,-0.051l-0.086,-0.052l-0.083,-0.053l-0.079,-0.053l-0.075,-0.055l-0.072,-0.055l-0.069,-0.055l-0.064,-0.057l-0.031,-0.028l-0.03,-0.029l-0.029,-0.029l-0.028,-0.029l-0.027,-0.029l-0.026,-0.029l-0.025,-0.029l-0.024,-0.03l-0.023,-0.03l-0.022,-0.03l-0.022,-0.03l-0.02,-0.03l-0.019,-0.03l-0.018,-0.03l-0.017,-0.031l-0.016,-0.031l-0.014,-0.031l-0.014,-0.03l-0.013,-0.032l-0.012,-0.031l-0.01,-0.031l-0.01,-0.032l-0.008,-0.031l-0.008,-0.032l-0.006,-0.032l-0.005,-0.031l-0.004,-0.032l-0.003,-0.033l-0.001,-0.032l-0.001,-0.032l0.001,-0.032l0.001,-0.032l0.003,-0.033l0.004,-0.032l0.005,-0.031l0.006,-0.032l0.008,-0.032l0.008,-0.031l0.01,-0.032l0.01,-0.031l0.012,-0.031l0.013,-0.032l0.014,-0.03l0.014,-0.031l0.016,-0.031l0.017,-0.031l0.018,-0.03l0.019,-0.03l0.02,-0.03l0.022,-0.03l0.022,-0.03l0.023,-0.03l0.024,-0.03l0.025,-0.029l0.026,-0.029l0.027,-0.029l0.028,-0.029l0.029,-0.029l0.03,-0.029l0.031,-0.028l0.064,-0.057l0.069,-0.055l0.072,-0.055l0.075,-0.055l0.079,-0.053l0.083,-0.053l0.086,-0.052l0.089,-0.051l0.093,-0.05l0.096,-0.05l0.099,-0.048l0.103,-0.048l0.105,-0.047l0.109,-0.046l0.111,-0.045l0.115,-0.043l0.117,-0.043l0.12,-0.042l0.123,-0.041l0.126,-0.04l0.128,-0.039l0.131,-0.037l0.134,-0.037l0.136,-0.036l0.138,-0.034l0.141,-0.033l0.143,-0.032l0.146,-0.031l0.148,-0.029l0.149,-0.028l0.152,-0.027l0.154,-0.026l0.156,-0.024l0.158,-0.023l0.16,-0.022l0.162,-0.021l0.163,-0.019l0.166,-0.017l0.166,-0.016l0.169,-0.015l0.17,-0.013l0.172,-0.012l0.173,-0.01l0.174,-0.009l0.176,-0.007l0.177,-0.006l0.178,-0.004l0.179,-0.002l0.181,-0.001l0.181,0.001Zm-0.352,1l-0.171,0.002l-0.169,0.004l-0.168,0.005l-0.167,0.007l-0.165,0.008l-0.164,0.01l-0.162,0.011l-0.161,0.013l-0.159,0.014l-0.157,0.015l-0.156,0.016l-0.154,0.018l-0.152,0.019l-0.15,0.021l-0.148,0.021l-0.146,0.023l-0.144,0.024l-0.142,0.025l-0.139,0.027l-0.137,0.027l-0.134,0.028l-0.132,0.03l-0.13,0.03l-0.127,0.032l-0.124,0.032l-0.121,0.033l-0.119,0.034l-0.115,0.035l-0.113,0.036l-0.109,0.036l-0.106,0.037l-0.103,0.038l-0.1,0.038l-0.096,0.039l-0.092,0.039l-0.089,0.039l-0.086,0.04l-0.081,0.04l-0.077,0.04l-0.074,0.04l-0.069,0.039l-0.065,0.04l-0.061,0.038l-0.057,0.039l-0.052,0.037l-0.047,0.036l-0.043,0.036l-0.042,0.036l-0.015,0.013l-0.016,0.016l-0.015,0.015l-0.014,0.015l-0.013,0.014l-0.012,0.013l-0.011,0.013l-0.01,0.012l-0.009,0.011l-0.007,0.01l-0.007,0.01l-0.006,0.009l-0.005,0.008l-0.004,0.007l-0.003,0.006l0.007,0.013l0.005,0.008l0.006,0.009l0.007,0.01l0.007,0.01l0.009,0.011l0.01,0.012l0.011,0.013l0.012,0.013l0.013,0.014l0.014,0.015l0.015,0.015l0.016,0.016l0.015,0.013l0.042,0.037l0.043,0.035l0.047,0.036l0.052,0.037l0.057,0.039l0.061,0.038l0.065,0.04l0.069,0.039l0.074,0.04l0.077,0.04l0.081,0.04l0.086,0.04l0.088,0.039l0.093,0.039l0.096,0.039l0.1,0.038l0.103,0.038l0.106,0.037l0.109,0.036l0.113,0.036l0.115,0.035l0.119,0.034l0.121,0.033l0.124,0.032l0.127,0.032l0.13,0.03l0.132,0.03l0.134,0.028l0.137,0.027l0.139,0.027l0.142,0.025l0.144,0.024l0.146,0.023l0.148,0.021l0.15,0.021l0.152,0.019l0.154,0.018l0.156,0.016l0.157,0.015l0.159,0.014l0.161,0.013l0.162,0.011l0.164,0.01l0.165,0.008l0.167,0.007l0.168,0.005l0.169,0.004l0.17,0.002l0.172,0.001l0.172,-0.001l0.17,-0.002l0.169,-0.004l0.168,-0.005l0.167,-0.007l0.165,-0.008l0.164,-0.01l0.162,-0.011l0.161,-0.013l0.159,-0.014l0.157,-0.015l0.156,-0.016l0.154,-0.018l0.152,-0.019l0.15,-0.021l0.148,-0.021l0.146,-0.023l0.144,-0.024l0.142,-0.025l0.139,-0.027l0.137,-0.027l0.134,-0.028l0.132,-0.03l0.13,-0.03l0.127,-0.032l0.124,-0.032l0.121,-0.033l0.119,-0.034l0.115,-0.035l0.113,-0.036l0.109,-0.036l0.106,-0.037l0.103,-0.038l0.1,-0.038l0.096,-0.039l0.093,-0.039l0.088,-0.039l0.086,-0.04l0.081,-0.04l0.077,-0.04l0.074,-0.04l0.069,-0.039l0.065,-0.04l0.061,-0.038l0.057,-0.039l0.052,-0.037l0.047,-0.036l0.043,-0.035l0.042,-0.037l0.015,-0.013l0.016,-0.016l0.015,-0.015l0.014,-0.015l0.013,-0.014l0.012,-0.013l0.011,-0.013l0.01,-0.012l0.008,-0.011l0.008,-0.01l0.007,-0.01l0.006,-0.009l0.005,-0.008l0.004,-0.007l0.003,-0.006l-0.003,-0.006l-0.004,-0.007l-0.005,-0.008l-0.006,-0.009l-0.007,-0.01l-0.007,-0.01l-0.009,-0.011l-0.01,-0.012l-0.011,-0.013l-0.012,-0.013l-0.013,-0.014l-0.014,-0.015l-0.015,-0.015l-0.016,-0.016l-0.015,-0.013l-0.042,-0.036l-0.043,-0.036l-0.047,-0.036l-0.052,-0.037l-0.057,-0.039l-0.061,-0.038l-0.065,-0.04l-0.069,-0.039l-0.074,-0.04l-0.077,-0.04l-0.081,-0.04l-0.086,-0.04l-0.089,-0.039l-0.092,-0.039l-0.096,-0.039l-0.1,-0.038l-0.103,-0.038l-0.106,-0.037l-0.109,-0.036l-0.113,-0.036l-0.115,-0.035l-0.119,-0.034l-0.121,-0.033l-0.124,-0.032l-0.127,-0.032l-0.13,-0.03l-0.132,-0.03l-0.134,-0.028l-0.137,-0.027l-0.139,-0.027l-0.142,-0.025l-0.144,-0.024l-0.146,-0.023l-0.148,-0.021l-0.15,-0.021l-0.152,-0.019l-0.154,-0.018l-0.156,-0.016l-0.157,-0.015l-0.159,-0.014l-0.161,-0.013l-0.162,-0.011l-0.164,-0.01l-0.165,-0.008l-0.167,-0.007l-0.168,-0.005l-0.169,-0.004l-0.171,-0.002l-0.171,-0.001l-0.171,0.001Z" style="fill:#ff902f;"/>
            </g>
            <path d="M10,15c0,0 1.753,0 3.183,0c1.185,0 2.343,-0.351 3.329,-1.008c0.746,-0.497 1.488,-0.992 1.488,-0.992l3,2l-2,2l-9,0l0,-2" style="fill:#49433c;"/>
        </g>
    </g>
</svg>
