<?xml version="1.0" encoding="UTF-8" standalone="no"?><!DOCTYPE svg PUBLIC "-//W3C//DTD SVG 1.1//EN" "http://www.w3.org/Graphics/SVG/1.1/DTD/svg11.dtd"><svg width="100%" height="100%" viewBox="0 0 32 32" version="1.1" xmlns="http://www.w3.org/2000/svg" xmlns:xlink="http://www.w3.org/1999/xlink" xml:space="preserve" xmlns:serif="http://www.serif.com/" style="fill-rule:evenodd;clip-rule:evenodd;stroke-linejoin:round;stroke-miterlimit:1.41421;"><rect id="world_map" x="0" y="0" width="32" height="32" style="fill:none;"/><clipPath id="_clip1"><rect x="0" y="0" width="32" height="32"/></clipPath><g clip-path="url(#_clip1)"><g id="outline"><rect x="0" y="4" width="32" height="24"/></g><g id="emoji"><rect x="2" y="6" width="28" height="20" style="fill:#334cec;"/><clipPath id="_clip2"><rect x="2" y="6" width="28" height="20"/></clipPath><g clip-path="url(#_clip2)"><path d="M1,25l8,0l3,-1l1,1l5,0l2,-1l9,0l-1,1l3,0l0,3l-30,0l0,-3Z" style="fill:#fff;"/><path d="M8,23l0,-4l-1,-1l0,-2l-2,-1l-1,-1l0,-2l-1,-2l0,-2l4,1l3,0l0,1l-1,0l-1,1l2,0l-1,1l-1,1l0,1l-2,0l2,2l2,0l2,2l-1,2l-3,3Z" style="fill:#27b85b;"/><clipPath id="_clip3"><path d="M8,23l0,-4l-1,-1l0,-2l-2,-1l-1,-1l0,-2l-1,-2l0,-2l4,1l3,0l0,1l-1,0l-1,1l2,0l-1,1l-1,1l0,1l-2,0l2,2l2,0l2,2l-1,2l-3,3Z"/></clipPath><g clip-path="url(#_clip3)"><path d="M5,15l0,-2l1,0l0,1l-1,1Z" style="fill:#f4c815;"/><path d="M6,17l2,0l1,2l0,5l-3,0l0,-7Z" style="fill:#f4c815;"/></g><path d="M15,9l0,2l-1,1l-1,0l0,1l1,0l1,-1l1,1l0,-1l1,0l0,1l-1,1l-1,0l-2,0l-1,1l0,1l1,1l1,0l1,1l0,2l1,1l1,0l2,-5l-1,0l0,-2l1,1l1,0l0,-1l2,3l1,-1l1,-1l0,1l1,0l2,-1l1,-2l-1,-1l1,-1l1,0l0,-2l-2,-1l-4,0l-2,1l-4,-1l-2,1Z" style="fill:#27b85b;"/><clipPath id="_clip4"><path d="M15,9l0,2l-1,1l-1,0l0,1l1,0l1,-1l1,1l0,-1l1,0l0,1l-1,1l-1,0l-2,0l-1,1l0,1l1,1l1,0l1,1l0,2l1,1l1,0l2,-5l-1,0l0,-2l1,1l1,0l0,-1l2,3l1,-1l1,-1l0,1l1,0l2,-1l1,-2l-1,-1l1,-1l1,0l0,-2l-2,-1l-4,0l-2,1l-4,-1l-2,1Z"/></clipPath><g clip-path="url(#_clip4)"><path d="M11,14l4,0l2,-2l2,1l3,0l0,1l-2,1l0,1l-1,2l-2,0l-1,-2l-5,0l0,-2Z" style="fill:#f4c815;"/></g><path d="M7,8l1,0l1,1l0,1l1,0l1,-2l-2,-1l-2,1Z" style="fill:#fff;"/><path d="M15,7l0,-1l-1,1l0,1l1,0l0,-1Z" style="fill:#fff;"/><path d="M24,21l0,-1l2,-2l0,1l1,0l0,-1l1,2l0,2l-1,-1l-3,0Z" style="fill:#27b85b;"/><clipPath id="_clip5"><path d="M24,21l0,-1l2,-2l0,1l1,0l0,-1l1,2l0,2l-1,-1l-3,0Z"/></clipPath><g clip-path="url(#_clip5)"><rect x="23" y="20" width="4" height="2" style="fill:#f4c815;"/></g><g><rect x="24" y="15" width="1" height="3" style="fill:#27b85b;"/><rect x="26" y="16" width="1" height="1" style="fill:#27b85b;"/><rect x="27" y="17" width="1" height="1" style="fill:#27b85b;"/><rect x="2" y="17" width="1" height="1" style="fill:#27b85b;"/><rect x="28" y="12" width="1" height="2" style="fill:#27b85b;"/></g><rect x="5" y="6" width="2" height="2" style="fill:#27b85b;"/></g></g></g></svg>