<?xml version="1.0" encoding="UTF-8" standalone="no"?><!DOCTYPE svg PUBLIC "-//W3C//DTD SVG 1.1//EN" "http://www.w3.org/Graphics/SVG/1.1/DTD/svg11.dtd"><svg width="100%" height="100%" viewBox="0 0 32 32" version="1.1" xmlns="http://www.w3.org/2000/svg" xmlns:xlink="http://www.w3.org/1999/xlink" xml:space="preserve" xmlns:serif="http://www.serif.com/" style="fill-rule:evenodd;clip-rule:evenodd;stroke-linecap:round;stroke-linejoin:round;stroke-miterlimit:1.5;"><rect id="balloon" x="0" y="0" width="32" height="32" style="fill:none;"/><clipPath id="_clip1"><rect x="0" y="0" width="32" height="32"/></clipPath><g clip-path="url(#_clip1)"><g id="outline"><path d="M15,22c0,0 0,0 0,0c0,3.866 3.134,7 7,7c1.163,0 2,0 2,0" style="fill:none;stroke:#000;stroke-width:6px;"/><path d="M7,10c0,-4.418 3.582,-8 8,-8c0,0 0,0 0,0c4.418,0 8,3.582 8,8c0,0.218 0,0.433 0,0.642c0,2.15 -0.854,4.212 -2.375,5.733c-2.03,2.03 -4.625,4.625 -4.625,4.625l2,2l-6,0l2,-2c0,0 -2.595,-2.595 -4.625,-4.625c-1.521,-1.521 -2.375,-3.583 -2.375,-5.733c0,-0.209 0,-0.424 0,-0.642Z" style="fill:none;stroke:#000;stroke-width:4px;"/></g><g id="emoji"><path d="M15,22c0,0 0,0 0,0c0,3.866 3.134,7 7,7c1.163,0 2,0 2,0" style="fill:none;stroke:#656565;stroke-width:2px;"/><path d="M7,10c0,-4.418 3.582,-8 8,-8c0,0 0,0 0,0c4.418,0 8,3.582 8,8c0,0.218 0,0.433 0,0.642c0,2.15 -0.854,4.212 -2.375,5.733c-2.03,2.03 -4.625,4.625 -4.625,4.625l2,2l-6,0l2,-2c0,0 -2.595,-2.595 -4.625,-4.625c-1.521,-1.521 -2.375,-3.583 -2.375,-5.733c0,-0.209 0,-0.424 0,-0.642Z" style="fill:#e02a33;"/><circle cx="12" cy="7" r="3" style="fill:#f06f76;"/></g></g></svg>