<?xml version="1.0" encoding="UTF-8" standalone="no"?><!DOCTYPE svg PUBLIC "-//W3C//DTD SVG 1.1//EN" "http://www.w3.org/Graphics/SVG/1.1/DTD/svg11.dtd"><svg width="100%" height="100%" viewBox="0 0 32 32" version="1.1" xmlns="http://www.w3.org/2000/svg" xmlns:xlink="http://www.w3.org/1999/xlink" xml:space="preserve" xmlns:serif="http://www.serif.com/" style="fill-rule:evenodd;clip-rule:evenodd;stroke-linecap:round;stroke-linejoin:round;stroke-miterlimit:1.5;"><rect id="tada" x="0" y="0" width="32" height="32" style="fill:none;"/><clipPath id="_clip1"><rect x="0" y="0" width="32" height="32"/></clipPath><g clip-path="url(#_clip1)"><g id="outline"><path d="M2,30c0,0 2.679,-10.715 4.013,-16.052c0.433,-1.733 1.99,-2.948 3.776,-2.948c0,0 0.001,0 0.001,0c6.191,0 11.21,5.019 11.21,11.21c0,0 0,0.001 0,0.001c0,1.786 -1.215,3.343 -2.948,3.776c-5.337,1.334 -16.052,4.013 -16.052,4.013Z" style="fill:none;stroke:#000;stroke-width:4px;"/><path d="M15,17c0,0 1.764,-0.882 3.379,-1.689c1.692,-0.847 3.03,-2.265 3.775,-4.005c0.089,-0.207 0.18,-0.418 0.27,-0.629c0.956,-2.231 3.149,-3.677 5.576,-3.677c0,0 0,0 0,0" style="fill:none;stroke:#000;stroke-width:6px;stroke-linecap:square;"/><path d="M11,13c0,0 0,-0.647 0,-1.34c0,-1.017 0.575,-1.947 1.485,-2.402c0,-0.001 0.001,-0.001 0.002,-0.001c0.666,-0.334 1.173,-0.918 1.409,-1.625c0.235,-0.707 0.181,-1.479 -0.153,-2.145c-0.401,-0.803 -0.743,-1.487 -0.743,-1.487" style="fill:none;stroke:#000;stroke-width:6px;stroke-linecap:square;"/><path d="M20.5,20.5c0,0 0.511,0 1.111,0c1.242,0 2.467,0.289 3.578,0.845c1.092,0.546 2.311,1.155 2.311,1.155" style="fill:none;stroke:#000;stroke-width:6px;stroke-linecap:square;"/><path d="M15,9l2,-2l2,2l-2,2l-2,-2Z" style="fill:none;stroke:#000;stroke-width:4px;"/><path d="M19,5l1,-3l3,1l-1,3l-3,-1Z" style="fill:none;stroke:#000;stroke-width:4px;"/><path d="M20,18l1,-3l3,1l-1,3l-3,-1Z" style="fill:none;stroke:#000;stroke-width:4px;"/><path d="M5,6l2,-2l2,2l-2,2l-2,-2Z" style="fill:none;stroke:#000;stroke-width:4px;"/><path d="M26,13l2,-2l2,2l-2,2l-2,-2Z" style="fill:none;stroke:#000;stroke-width:4px;"/><path d="M15,7l5,-2l6,0l0,9l-16,0l0,-8l5,1Z"/></g><g id="emoji"><g><path d="M7,12.177l12.823,12.823c-0.48,0.468 -1.085,0.816 -1.771,0.987c-5.337,1.334 -16.052,4.013 -16.052,4.013c0,0 2.679,-10.715 4.013,-16.052c0.171,-0.686 0.519,-1.291 0.987,-1.771Z" style="fill:#e4ab1b;"/><path d="M7,12.177c0.714,-0.733 1.71,-1.177 2.789,-1.177c0,0 0.001,0 0.001,0c6.191,0 11.21,5.019 11.21,11.21c0,0 0,0.001 0,0.001c0,1.079 -0.444,2.075 -1.177,2.789l-0.823,0c-3.183,0 -6.235,-1.264 -8.485,-3.515c-2.251,-2.25 -3.515,-5.302 -3.515,-8.485l0,-0.823Z" style="fill:#5e3d05;"/></g><path d="M15,17c0,0 1.764,-0.882 3.379,-1.689c1.692,-0.847 3.03,-2.265 3.775,-4.005c0.089,-0.207 0.18,-0.418 0.27,-0.629c0.956,-2.231 3.149,-3.677 5.576,-3.677c0,0 0,0 0,0" style="fill:none;stroke:#37cbe8;stroke-width:2px;stroke-linecap:square;"/><path d="M11,13c0,0 0,-0.647 0,-1.34c0,-1.017 0.575,-1.947 1.485,-2.402c0,-0.001 0.001,-0.001 0.002,-0.001c0.666,-0.334 1.173,-0.918 1.409,-1.625c0.235,-0.707 0.181,-1.479 -0.153,-2.145c-0.401,-0.803 -0.743,-1.487 -0.743,-1.487" style="fill:none;stroke:#f2c618;stroke-width:2px;stroke-linecap:square;"/><path d="M20.5,20.5c0,0 0.511,0 1.111,0c1.242,0 2.467,0.289 3.578,0.845c1.092,0.546 2.311,1.155 2.311,1.155" style="fill:none;stroke:#ff4586;stroke-width:2px;stroke-linecap:square;"/><path d="M15,9l2,-2l2,2l-2,2l-2,-2Z" style="fill:#9146dc;"/><path d="M5,6l2,-2l2,2l-2,2l-2,-2Z" style="fill:#9146dc;"/><path d="M26,13l2,-2l2,2l-2,2l-2,-2Z" style="fill:#9146dc;"/><path d="M19,5l1,-3l3,1l-1,3l-3,-1Z" style="fill:#f2298a;"/><path d="M20,18l1,-3l3,1l-1,3l-3,-1Z" style="fill:#f2c618;"/></g></g></svg>