<?xml version="1.0" encoding="UTF-8" standalone="no"?>
<!DOCTYPE svg PUBLIC "-//W3C//DTD SVG 1.1//EN" "http://www.w3.org/Graphics/SVG/1.1/DTD/svg11.dtd">
<svg width="100%" height="100%" viewBox="0 0 32 32" version="1.1" xmlns="http://www.w3.org/2000/svg" xmlns:xlink="http://www.w3.org/1999/xlink" xml:space="preserve" xmlns:serif="http://www.serif.com/" style="fill-rule:evenodd;clip-rule:evenodd;stroke-linecap:round;stroke-linejoin:round;stroke-miterlimit:1.5;">
    <rect id="_1f60e_sunglasses_face" serif:id="1f60e_sunglasses_face" x="0" y="-0" width="32" height="32" style="fill:none;"/>
    <path d="M16,29.5c-8.1,-0 -14,-5.5 -14,-12.5c0,-8.873 7.64,-14 14,-14c6.36,-0 14,5.127 14,14c0,7 -5.9,12.5 -14,12.5Z" style="fill:none;stroke:#000;stroke-width:4px;"/>
    <path d="M16,29.5c-8.1,-0 -14,-5.5 -14,-12.5c0,-8.873 7.64,-14 14,-14c6.36,-0 14,5.127 14,14c0,7 -5.9,12.5 -14,12.5Z" style="fill:#ffb636;"/>
    <path d="M11,21.004c0,0 1.755,1.996 5,1.996c3.245,-0 5,-2 5,-2" style="fill:none;stroke:#694300;stroke-width:2px;"/>
    <path d="M1.545,8.837c-0.322,0.092 -0.543,0.386 -0.543,0.721c-0.002,0.321 -0.002,0.719 -0.002,1.015c0,0.269 0.145,0.518 0.379,0.652c0.599,0.319 1.636,1.091 1.636,2.269c0,1.643 0.38,2.433 1.13,3.354c1.479,1.819 7.345,2.17 9.379,0.353c1.823,-1.629 1.107,-4.201 2.476,-4.201c1,-0 -1,-3 -1,-3c0,-0 -1.272,-2 -5,-2l-4,-0c-1.38,-0 -3.473,0.553 -4.455,0.837Z"/>
    <path d="M30.455,8.837c0.322,0.092 0.543,0.386 0.543,0.721c0.002,0.321 0.002,0.719 0.002,1.015c-0,0.269 -0.145,0.518 -0.379,0.652c-0.599,0.319 -1.636,1.091 -1.636,2.269c-0,1.643 -0.38,2.433 -1.13,3.354c-1.479,1.819 -7.345,2.17 -9.379,0.353c-1.823,-1.629 -1.107,-4.201 -2.476,-4.201c-1,-0 1,-3 1,-3c0,-0 1.272,-2 5,-2l4,-0c1.38,-0 3.473,0.553 4.455,0.837Z"/>
    <path d="M4.913,10.052c-0.884,0.834 -1.008,4.167 0.212,5.819c1.241,1.68 6.36,1.671 7.639,0.454c1.482,-1.41 1.534,-4.481 1.105,-5.482c-0.442,-1.03 -2.084,-1.843 -3.869,-1.843c-2.408,-0 -4.336,0.345 -5.087,1.052Z" style="fill:#202020;"/>
    <path d="M27.087,10.052c0.884,0.834 1.008,4.167 -0.212,5.819c-1.241,1.68 -6.36,1.671 -7.639,0.454c-1.482,-1.41 -1.534,-4.481 -1.105,-5.482c0.442,-1.03 2.084,-1.843 3.869,-1.843c2.408,-0 4.336,0.345 5.087,1.052Z" style="fill:#202020;"/>
    <path d="M14.5,10.001c0,0 0.644,-0.442 1.5,-0.442c0.856,-0 1.5,0.442 1.5,0.442l0,2.498l-3,-0l0,-2.498Z"/>
</svg>
