<?xml version="1.0" encoding="UTF-8" standalone="no"?>
<!DOCTYPE svg PUBLIC "-//W3C//DTD SVG 1.1//EN" "http://www.w3.org/Graphics/SVG/1.1/DTD/svg11.dtd">
<svg width="100%" height="100%" viewBox="0 0 32 32" version="1.1" xmlns="http://www.w3.org/2000/svg" xmlns:xlink="http://www.w3.org/1999/xlink" xml:space="preserve" xmlns:serif="http://www.serif.com/" style="fill-rule:evenodd;clip-rule:evenodd;stroke-linecap:round;stroke-linejoin:round;stroke-miterlimit:1.5;">
    <rect id="_1f603_smiley" serif:id="1f603_smiley" x="0" y="0" width="32" height="32" style="fill:none;"/>
    <path d="M16,29.5c-8.1,0 -14,-5.5 -14,-12.5c0,-8.873 7.64,-14 14,-14c6.36,0 14,5.127 14,14c0,7 -5.9,12.5 -14,12.5Z" style="fill:none;stroke:#000;stroke-width:4px;"/>
    <path d="M16,29.5c-8.1,0 -14,-5.5 -14,-12.5c0,-8.873 7.64,-14 14,-14c6.36,0 14,5.127 14,14c0,7 -5.9,12.5 -14,12.5Z" style="fill:#ffb636;"/>
    <path d="M19.913,17c-1.157,-0.996 -1.913,-2.641 -1.913,-4.5c0,-3.036 2.016,-5.5 4.5,-5.5c2.484,0 4.5,2.464 4.5,5.5c0,1.859 -0.756,3.504 -1.913,4.5l-5.174,0Zm-13,0c-1.157,-0.996 -1.913,-2.641 -1.913,-4.5c-0,-3.036 2.016,-5.5 4.5,-5.5c2.484,0 4.5,2.464 4.5,5.5c-0,1.859 -0.756,3.504 -1.913,4.5l-5.174,0Z" style="fill:#fff;"/>
    <ellipse cx="21.5" cy="12.5" rx="2.5" ry="3.5"/>
    <ellipse cx="10.5" cy="12.5" rx="2.5" ry="3.5"/>
    <path d="M20.379,26.093c3.01,-1.422 4.293,-4.18 4.807,-5.806c0.091,-0.301 0.035,-0.628 -0.153,-0.881c-0.188,-0.253 -0.484,-0.402 -0.799,-0.402c-3.454,-0.004 -13.014,-0.004 -16.468,-0.004c-0.316,-0 -0.614,0.15 -0.802,0.403c-0.189,0.254 -0.246,0.583 -0.154,0.885c0.517,1.626 1.801,4.383 4.811,5.805c1.009,-1.312 7.749,-1.312 8.758,-0Z"/>
    <path d="M20.379,26.093c-1.009,-1.312 -2.574,-2.089 -4.241,-2.089l-0.276,0c-1.667,0 -3.232,0.777 -4.241,2.089c1.177,0.555 2.617,0.907 4.379,0.907c1.762,0 3.202,-0.352 4.379,-0.907Z" style="fill:#c33700;"/>
</svg>
