<?xml version="1.0" encoding="UTF-8" standalone="no"?>
<!DOCTYPE svg PUBLIC "-//W3C//DTD SVG 1.1//EN" "http://www.w3.org/Graphics/SVG/1.1/DTD/svg11.dtd">
<svg width="100%" height="100%" viewBox="0 0 32 32" version="1.1" xmlns="http://www.w3.org/2000/svg" xmlns:xlink="http://www.w3.org/1999/xlink" xml:space="preserve" xmlns:serif="http://www.serif.com/" style="fill-rule:evenodd;clip-rule:evenodd;stroke-linecap:round;stroke-linejoin:round;stroke-miterlimit:1.5;">
    <rect id="_1f60c_content" serif:id="1f60c_content" x="0" y="0" width="32" height="32" style="fill:none;"/>
    <clipPath id="_clip1">
        <rect x="0" y="0" width="32" height="32"/>
    </clipPath>
    <g clip-path="url(#_clip1)">
        <path d="M16,29.5c-8.1,0 -14,-5.292 -14,-12.028c0,-8.538 7.64,-13.472 14,-13.472c6.36,0 14,4.934 14,13.472c0,6.736 -5.9,12.028 -14,12.028Z" style="fill:none;stroke:#000;stroke-width:4px;"/>
        <path d="M16,29.5c-8.1,0 -14,-5.292 -14,-12.028c0,-8.538 7.64,-13.472 14,-13.472c6.36,0 14,4.934 14,13.472c0,6.736 -5.9,12.028 -14,12.028Z" style="fill:#ffb636;"/>
        <path d="M8.543,11.448c0.414,0.717 1.72,0.739 2.915,0.049c1.195,-0.69 1.829,-1.832 1.415,-2.549c-0.414,-0.717 -1.72,-0.739 -2.915,-0.049c-1.195,0.689 -1.829,1.832 -1.415,2.549Z"/>
        <path d="M23.457,11.448c-0.414,0.717 -1.72,0.739 -2.915,0.049c-1.195,-0.69 -1.829,-1.832 -1.415,-2.549c0.414,-0.717 1.72,-0.739 2.915,-0.049c1.195,0.689 1.829,1.832 1.415,2.549Z"/>
        <path d="M13,17c0,0 -0,0.001 -0.001,0.002c-0.796,1.06 -1.98,1.761 -3.292,1.949c-1.312,0.187 -2.645,-0.154 -3.705,-0.95c-0.001,-0.001 -0.002,-0.001 -0.002,-0.001" style="fill:none;stroke:#000;stroke-width:2px;"/>
        <path d="M19,17c0,0 0,0.001 0.001,0.002c0.796,1.06 1.98,1.761 3.292,1.949c1.312,0.187 2.645,-0.154 3.705,-0.95c0.001,-0.001 0.002,-0.001 0.002,-0.001" style="fill:none;stroke:#000;stroke-width:2px;"/>
        <path d="M11.061,23.004c-0,0 1.653,2.5 5,2.5c3.347,0 5,-2.5 5,-2.5" style="fill:none;stroke:#694300;stroke-width:2px;"/>
    </g>
</svg>
