<?xml version="1.0" encoding="UTF-8" standalone="no"?>
<!DOCTYPE svg PUBLIC "-//W3C//DTD SVG 1.1//EN" "http://www.w3.org/Graphics/SVG/1.1/DTD/svg11.dtd">
<svg width="100%" height="100%" viewBox="0 0 32 32" version="1.1" xmlns="http://www.w3.org/2000/svg" xmlns:xlink="http://www.w3.org/1999/xlink" xml:space="preserve" xmlns:serif="http://www.serif.com/" style="fill-rule:evenodd;clip-rule:evenodd;stroke-linecap:round;stroke-linejoin:round;stroke-miterlimit:1.5;">
    <rect id="_1f604_grin" serif:id="1f604_grin" x="0" y="0" width="32" height="32" style="fill:none;"/>
    <path d="M16,30c-8.1,-0 -14,-5.604 -14,-12.736c0,-9.04 7.64,-14.264 14,-14.264c6.36,0 14,5.224 14,14.264c0,7.132 -5.9,12.736 -14,12.736Z" style="fill:none;stroke:#000;stroke-width:4px;"/>
    <path d="M16,30c-8.1,-0 -14,-5.604 -14,-12.736c0,-9.04 7.64,-14.264 14,-14.264c6.36,0 14,5.224 14,14.264c0,7.132 -5.9,12.736 -14,12.736Z" style="fill:#ffb636;"/>
    <path d="M19,17c0,0 0.059,-0.137 0.16,-0.372c0.564,-1.318 1.805,-2.22 3.233,-2.351c1.427,-0.131 2.812,0.53 3.607,1.723c-0,-0 0,0 0,0" style="fill:none;stroke:#000;stroke-width:2px;"/>
    <path d="M13,17c0,0 -0.059,-0.137 -0.16,-0.372c-0.564,-1.318 -1.805,-2.22 -3.233,-2.351c-1.427,-0.131 -2.812,0.53 -3.607,1.723c0,-0 0,0 0,0" style="fill:none;stroke:#000;stroke-width:2px;"/>
    <path d="M8.293,9.845c0.215,0.799 1.471,1.159 2.804,0.801c1.332,-0.357 2.24,-1.296 2.026,-2.095c-0.214,-0.8 -1.47,-1.159 -2.803,-0.802c-1.333,0.357 -2.241,1.296 -2.027,2.096Z"/>
    <path d="M23.707,9.845c-0.215,0.799 -1.471,1.159 -2.804,0.801c-1.332,-0.357 -2.24,-1.296 -2.026,-2.095c0.214,-0.8 1.47,-1.159 2.803,-0.802c1.333,0.357 2.241,1.296 2.027,2.096Z"/>
    <path d="M19.972,26.623c2.383,-1.235 3.361,-3.505 3.759,-5.039c0.087,-0.341 -0.013,-0.702 -0.262,-0.951c-0.249,-0.248 -0.611,-0.347 -0.952,-0.259c-1.351,0.286 -3.583,0.626 -6.517,0.626c-2.934,-0 -5.166,-0.34 -6.518,-0.624c-0.34,-0.087 -0.701,0.011 -0.95,0.259c-0.248,0.248 -0.347,0.608 -0.26,0.949c0.396,1.534 1.373,3.804 3.756,5.039c0.998,-1.025 6.946,-1.025 7.944,-0Z"/>
    <path d="M19.972,26.623c-0.998,-1.025 -2.377,-1.619 -3.834,-1.619l-0.276,0c-1.457,0 -2.836,0.594 -3.834,1.619c1.036,0.536 2.337,0.877 3.972,0.877c1.635,0 2.936,-0.341 3.972,-0.877Z" style="fill:#c33700;"/>
</svg>
