<?xml version="1.0" encoding="UTF-8" standalone="no"?>
<!DOCTYPE svg PUBLIC "-//W3C//DTD SVG 1.1//EN" "http://www.w3.org/Graphics/SVG/1.1/DTD/svg11.dtd">
<svg width="100%" height="100%" viewBox="0 0 32 32" version="1.1" xmlns="http://www.w3.org/2000/svg" xmlns:xlink="http://www.w3.org/1999/xlink" xml:space="preserve" xmlns:serif="http://www.serif.com/" style="fill-rule:evenodd;clip-rule:evenodd;stroke-linecap:round;stroke-linejoin:round;stroke-miterlimit:1.5;">
    <rect id="_1f619_happy_kiss" serif:id="1f619_happy_kiss" x="0" y="0" width="32" height="32" style="fill:none;"/>
    <path d="M16,30c-8.1,0 -14,-5.5 -14,-12.5c0,-11.095 9.192,-14 14,-14c4.808,0 14,2.905 14,14c-0,7 -5.9,12.5 -14,12.5Z" style="fill:none;stroke:#000;stroke-width:4px;"/>
    <path d="M16,30c-8.1,0 -14,-5.5 -14,-12.5c0,-11.095 9.192,-14 14,-14c4.808,0 14,2.905 14,14c-0,7 -5.9,12.5 -14,12.5Z" style="fill:#ffb636;"/>
    <path d="M7.543,10.75c0.414,0.717 1.72,0.739 2.915,0.049c1.195,-0.69 1.829,-1.832 1.415,-2.549c-0.414,-0.717 -1.72,-0.739 -2.915,-0.049c-1.195,0.69 -1.829,1.832 -1.415,2.549Z"/>
    <path d="M24.457,10.75c-0.414,0.717 -1.72,0.739 -2.915,0.049c-1.195,-0.69 -1.829,-1.832 -1.415,-2.549c0.414,-0.717 1.72,-0.739 2.915,-0.049c1.195,0.69 1.829,1.832 1.415,2.549Z"/>
    <path d="M19,17c0,0 0.059,-0.137 0.16,-0.372c0.564,-1.318 1.805,-2.22 3.233,-2.351c1.427,-0.131 2.812,0.53 3.607,1.723c-0,-0 0,0 0,0" style="fill:none;stroke:#000;stroke-width:2px;"/>
    <path d="M13,17c0,0 -0.059,-0.137 -0.16,-0.372c-0.564,-1.318 -1.805,-2.22 -3.233,-2.351c-1.427,-0.131 -2.812,0.53 -3.607,1.723c0,-0 0,0 0,0" style="fill:none;stroke:#000;stroke-width:2px;"/>
    <path d="M16,27c-0,0 0.596,-0.149 1.137,-0.284c0.507,-0.127 0.863,-0.583 0.863,-1.105c0,-0.074 0,-0.148 0,-0.222c-0,-0.522 -0.356,-0.978 -0.863,-1.105c-0.541,-0.135 -1.137,-0.284 -1.137,-0.284c-0,0 0.596,-0.149 1.137,-0.284c0.507,-0.127 0.863,-0.583 0.863,-1.105c0,-0.074 0,-0.148 0,-0.222c-0,-0.522 -0.356,-0.978 -0.863,-1.105c-0.541,-0.135 -1.137,-0.284 -1.137,-0.284" style="fill:none;stroke:#694300;stroke-width:2px;"/>
</svg>
