<?xml version="1.0" encoding="UTF-8" standalone="no"?>
<!DOCTYPE svg PUBLIC "-//W3C//DTD SVG 1.1//EN" "http://www.w3.org/Graphics/SVG/1.1/DTD/svg11.dtd">
<svg width="100%" height="100%" viewBox="0 0 32 32" version="1.1" xmlns="http://www.w3.org/2000/svg" xmlns:xlink="http://www.w3.org/1999/xlink" xml:space="preserve" xmlns:serif="http://www.serif.com/" style="fill-rule:evenodd;clip-rule:evenodd;stroke-linecap:round;stroke-linejoin:round;stroke-miterlimit:1.5;">
    <rect id="_1f614_pensive" serif:id="1f614_pensive" x="0" y="0" width="32" height="32" style="fill:none;"/>
    <clipPath id="_clip1">
        <rect x="0" y="0" width="32" height="32"/>
    </clipPath>
    <g clip-path="url(#_clip1)">
        <path d="M16,30c-8.1,0 -14,-4.492 -14,-11.328c0,-3.529 1.356,-6.814 4.111,-9.6c2.683,-2.713 6.618,-4.072 9.889,-4.072c3.271,0 7.206,1.359 9.889,4.072c2.755,2.786 4.111,6.071 4.111,9.6c0,6.836 -5.9,11.328 -14,11.328Z" style="fill:none;stroke:#000;stroke-width:4px;"/>
        <path d="M16,30c-8.1,0 -14,-4.492 -14,-11.328c0,-3.529 1.356,-6.814 4.111,-9.6c2.683,-2.713 6.618,-4.072 9.889,-4.072c3.271,0 7.206,1.359 9.889,4.072c2.755,2.786 4.111,6.071 4.111,9.6c0,6.836 -5.9,11.328 -14,11.328Z" style="fill:#ffb636;"/>
        <path d="M8.543,15.448c0.414,0.717 1.72,0.739 2.915,0.049c1.195,-0.69 1.829,-1.832 1.415,-2.549c-0.414,-0.717 -1.72,-0.739 -2.915,-0.049c-1.195,0.689 -1.829,1.832 -1.415,2.549Z"/>
        <path d="M23.457,15.448c-0.414,0.717 -1.72,0.739 -2.915,0.049c-1.195,-0.69 -1.829,-1.832 -1.415,-2.549c0.414,-0.717 1.72,-0.739 2.915,-0.049c1.195,0.689 1.829,1.832 1.415,2.549Z"/>
        <path d="M19,18c0,0 0.178,0.237 0.446,0.595c1.479,1.972 4.156,2.604 6.361,1.502c0.122,-0.062 0.193,-0.097 0.193,-0.097" style="fill:none;stroke:#000;stroke-width:2px;"/>
        <path d="M13,18c0,0 -0.178,0.237 -0.446,0.595c-1.479,1.972 -4.156,2.604 -6.361,1.502c-0.122,-0.062 -0.193,-0.097 -0.193,-0.097" style="fill:none;stroke:#000;stroke-width:2px;"/>
        <path d="M12,25.004c0,0 1.669,-1.5 3.969,-1.5c2.3,0 4.031,1.498 4.031,1.498" style="fill:none;stroke:#694300;stroke-width:2px;"/>
    </g>
</svg>
