<?xml version="1.0" encoding="UTF-8" standalone="no"?>
<!DOCTYPE svg PUBLIC "-//W3C//DTD SVG 1.1//EN" "http://www.w3.org/Graphics/SVG/1.1/DTD/svg11.dtd">
<svg width="100%" height="100%" viewBox="0 0 32 32" version="1.1" xmlns="http://www.w3.org/2000/svg" xmlns:xlink="http://www.w3.org/1999/xlink" xml:space="preserve" xmlns:serif="http://www.serif.com/" style="fill-rule:evenodd;clip-rule:evenodd;stroke-linecap:round;stroke-linejoin:round;stroke-miterlimit:1.5;">
    <rect id="_1f616_confounded" serif:id="1f616_confounded" x="0" y="0" width="32" height="32" style="fill:none;"/>
    <path d="M16,29.5c-8.1,0 -14,-3.792 -14,-10c0,-7.868 6.75,-13.5 14,-13.5c7.25,0 14,5.632 14,13.5c0,6.208 -5.9,10 -14,10Z" style="fill:none;stroke:#000;stroke-width:4px;"/>
    <path d="M16,29.5c-8.1,0 -14,-3.792 -14,-10c0,-7.868 6.75,-13.5 14,-13.5c7.25,0 14,5.632 14,13.5c0,6.208 -5.9,10 -14,10Z" style="fill:#ffb636;"/>
    <path d="M19,19.996c0,-0 0.002,-0.004 0.006,-0.01c1.196,-1.793 3.39,-2.641 5.481,-2.119c0.312,0.078 0.513,0.129 0.513,0.129" style="fill:none;stroke:#000;stroke-width:2px;"/>
    <path d="M13,20c0,0 -0.002,-0.003 -0.006,-0.01c-1.196,-1.793 -3.39,-2.641 -5.481,-2.118c-0.312,0.078 -0.513,0.128 -0.513,0.128" style="fill:none;stroke:#000;stroke-width:2px;"/>
    <path d="M9.5,26l1.5,-2.5l2.5,2l2.5,-2l2.5,2l2.5,-2l1.5,2.5" style="fill:none;stroke:#694300;stroke-width:2px;"/>
    <path d="M9.941,11.794c-0.586,0.585 -0.269,1.853 0.707,2.828c0.975,0.976 2.243,1.293 2.828,0.707c0.585,-0.585 0.269,-1.852 -0.707,-2.828c-0.976,-0.976 -2.243,-1.293 -2.828,-0.707Z"/>
    <path d="M22.059,11.794c0.586,0.585 0.269,1.853 -0.707,2.828c-0.975,0.976 -2.243,1.293 -2.828,0.707c-0.585,-0.585 -0.269,-1.852 0.707,-2.828c0.976,-0.976 2.243,-1.293 2.828,-0.707Z"/>
</svg>
