<?xml version="1.0" encoding="UTF-8" standalone="no"?>
<!DOCTYPE svg PUBLIC "-//W3C//DTD SVG 1.1//EN" "http://www.w3.org/Graphics/SVG/1.1/DTD/svg11.dtd">
<svg width="100%" height="100%" viewBox="0 0 32 32" version="1.1" xmlns="http://www.w3.org/2000/svg" xmlns:xlink="http://www.w3.org/1999/xlink" xml:space="preserve" xmlns:serif="http://www.serif.com/" style="fill-rule:evenodd;clip-rule:evenodd;stroke-linecap:round;stroke-linejoin:round;stroke-miterlimit:1.5;">
    <rect id="_1f61f_worried" serif:id="1f61f_worried" x="0" y="0" width="32" height="32" style="fill:none;"/>
    <clipPath id="_clip1">
        <rect x="0" y="0" width="32" height="32"/>
    </clipPath>
    <g clip-path="url(#_clip1)">
        <path d="M16,29.5c-8.1,0 -14,-4.764 -14,-11.5c0,-8.538 7.015,-14 14,-14c6.985,0 14,5.462 14,14c0,6.736 -5.9,11.5 -14,11.5Z" style="fill:none;stroke:#000;stroke-width:4px;"/>
        <path d="M16,29.5c-8.1,0 -14,-4.764 -14,-11.5c0,-8.538 7.015,-14 14,-14c6.985,0 14,5.462 14,14c0,6.736 -5.9,11.5 -14,11.5Z" style="fill:#ffb636;"/>
        <path d="M8.543,9.448c0.414,0.717 1.72,0.739 2.915,0.049c1.195,-0.69 1.829,-1.832 1.415,-2.549c-0.414,-0.717 -1.72,-0.739 -2.915,-0.049c-1.195,0.689 -1.829,1.832 -1.415,2.549Z"/>
        <path d="M23.457,9.448c-0.414,0.717 -1.72,0.739 -2.915,0.049c-1.195,-0.69 -1.829,-1.832 -1.415,-2.549c0.414,-0.717 1.72,-0.739 2.915,-0.049c1.195,0.689 1.829,1.832 1.415,2.549Z"/>
        <path d="M12,24c0,0 0,-0.001 0.001,-0.002c0.82,-1.435 2.346,-2.32 3.999,-2.32c1.653,-0 3.179,0.885 3.999,2.32c0.001,0.001 0.001,0.002 0.001,0.002" style="fill:none;stroke:#694300;stroke-width:2px;"/>
        <path d="M22.5,21c-2.484,-0 -4.5,-2.464 -4.5,-5.5c0,-1.959 0.839,-3.679 2.102,-4.654l6.187,1.687c0.45,0.857 0.711,1.875 0.711,2.967c0,3.036 -2.016,5.5 -4.5,5.5Zm-13,-0c-2.484,-0 -4.5,-2.464 -4.5,-5.5c-0,-1.092 0.261,-2.11 0.711,-2.967l6.187,-1.687c1.263,0.975 2.102,2.695 2.102,4.654c-0,3.036 -2.016,5.5 -4.5,5.5Z" style="fill:#fff;"/>
        <path d="M21.5,13c1.38,-0 2.5,1.12 2.5,2.5c0,1.38 -1.12,2.5 -2.5,2.5c-1.38,-0 -2.5,-1.12 -2.5,-2.5c0,-1.38 1.12,-2.5 2.5,-2.5Zm-11,-0c1.38,-0 2.5,1.12 2.5,2.5c0,1.38 -1.12,2.5 -2.5,2.5c-1.38,-0 -2.5,-1.12 -2.5,-2.5c-0,-1.38 1.12,-2.5 2.5,-2.5Z"/>
    </g>
</svg>
