<?xml version="1.0" encoding="UTF-8" standalone="no"?>
<!DOCTYPE svg PUBLIC "-//W3C//DTD SVG 1.1//EN" "http://www.w3.org/Graphics/SVG/1.1/DTD/svg11.dtd">
<svg width="100%" height="100%" viewBox="0 0 32 32" version="1.1" xmlns="http://www.w3.org/2000/svg" xmlns:xlink="http://www.w3.org/1999/xlink" xml:space="preserve" xmlns:serif="http://www.serif.com/" style="fill-rule:evenodd;clip-rule:evenodd;stroke-linecap:round;stroke-linejoin:round;stroke-miterlimit:1.5;">
    <rect id="_1f62d_sob" serif:id="1f62d_sob" x="0" y="0" width="32" height="32" style="fill:none;"/>
    <clipPath id="_clip1">
        <rect x="0" y="0" width="32" height="32"/>
    </clipPath>
    <g clip-path="url(#_clip1)">
        <path d="M4.541,23.703c-1.618,-1.693 -2.541,-3.93 -2.541,-6.699c0,-3.613 1.356,-6.977 4.111,-9.83c2.683,-2.778 6.618,-4.17 9.889,-4.17c3.271,0 7.206,1.392 9.889,4.17c2.755,2.853 4.111,6.217 4.111,9.83c0,2.769 -0.923,5.006 -2.541,6.699c1.601,0.65 2.541,1.442 2.541,2.297c0,2.208 -6.273,4 -14,4c-7.727,-0 -14,-1.792 -14,-4c0,-0.855 0.94,-1.647 2.541,-2.297Z" style="fill:none;stroke:#000;stroke-width:4px;"/>
        <path d="M29.219,24.68c0.506,0.414 0.781,0.858 0.781,1.32c0,2.208 -6.273,4 -14,4c-7.727,-0 -14,-1.792 -14,-4c0,-0.462 0.275,-0.906 0.781,-1.32c3.437,0.311 22.719,1.017 26.438,0Z" style="fill:#3fa7ff;"/>
        <path d="M2.781,24.68c1.91,-1.56 7.11,-2.68 13.219,-2.68c6.109,-0 11.309,1.12 13.219,2.68c-2.449,2.991 -7.241,3.924 -13.219,3.924c-5.978,0 -10.77,-0.933 -13.219,-3.924Z" style="fill:#007fea;"/>
        <path d="M16,3.004c3.271,0 7.206,1.392 9.889,4.17c2.755,2.853 4.111,6.217 4.111,9.83c0,7 -5.9,10.6 -14,10.6l-0,0c-8.1,0 -14,-3.6 -14,-10.6c0,-3.613 1.356,-6.977 4.111,-9.83c2.683,-2.778 6.618,-4.17 9.889,-4.17Z" style="fill:#ffb636;"/>
        <path d="M12.5,13l0,16l-5,0l0,-13l5,-3Zm7,0l5,3l-0,13l-5,0l-0,-16Z" style="fill:#3fa7ff;"/>
        <path d="M8.543,10.448c0.414,0.717 1.72,0.739 2.915,0.049c1.195,-0.69 1.829,-1.832 1.415,-2.549c-0.414,-0.717 -1.72,-0.739 -2.915,-0.049c-1.195,0.689 -1.829,1.832 -1.415,2.549Z"/>
        <path d="M23.457,10.448c-0.414,0.717 -1.72,0.739 -2.915,0.049c-1.195,-0.69 -1.829,-1.832 -1.415,-2.549c0.414,-0.717 1.72,-0.739 2.915,-0.049c1.195,0.689 1.829,1.832 1.415,2.549Z"/>
        <path d="M11.832,23l-0.902,0c-0.457,-0 -0.887,-0.214 -1.162,-0.579c-0.275,-0.365 -0.363,-0.837 -0.238,-1.276l0.136,-0.478c0.79,-2.762 3.315,-4.667 6.188,-4.667l0.292,0c2.873,0 5.398,1.905 6.188,4.667l0.136,0.478c0.125,0.439 0.037,0.911 -0.238,1.276c-0.275,0.365 -0.705,0.579 -1.162,0.579l-0.902,-0c-0.935,-1.248 -7.401,-1.248 -8.336,-0Z"/>
        <path d="M20.168,23c-0.935,-1.248 -2.409,-1.996 -3.988,-1.996l-0.36,0c-1.579,0 -3.053,0.748 -3.988,1.996l8.336,-0Z" style="fill:#c33700;"/>
        <path d="M19.5,12.5c0,0 0.075,0.175 0.192,0.447c0.754,1.76 2.673,2.712 4.53,2.247c0.459,-0.114 0.778,-0.194 0.778,-0.194" style="fill:none;stroke:#000;stroke-width:2px;"/>
        <path d="M12.5,12.5c0,0 -0.075,0.175 -0.192,0.447c-0.754,1.76 -2.673,2.712 -4.53,2.247c-0.459,-0.114 -0.778,-0.194 -0.778,-0.194" style="fill:none;stroke:#000;stroke-width:2px;"/>
    </g>
</svg>
