<?xml version="1.0" encoding="UTF-8" standalone="no"?>
<!DOCTYPE svg PUBLIC "-//W3C//DTD SVG 1.1//EN" "http://www.w3.org/Graphics/SVG/1.1/DTD/svg11.dtd">
<svg width="100%" height="100%" viewBox="0 0 32 32" version="1.1" xmlns="http://www.w3.org/2000/svg" xmlns:xlink="http://www.w3.org/1999/xlink" xml:space="preserve" xmlns:serif="http://www.serif.com/" style="fill-rule:evenodd;clip-rule:evenodd;stroke-linecap:round;stroke-linejoin:round;stroke-miterlimit:1.5;">
    <rect id="_1f628_scared" serif:id="1f628_scared" x="0" y="0" width="32" height="32" style="fill:none;"/>
    <clipPath id="_clip1">
        <rect x="0" y="0" width="32" height="32"/>
    </clipPath>
    <g clip-path="url(#_clip1)">
        <path d="M16,29.5c-8.1,0 -14,-4.764 -14,-11.5c0,-8.538 7.015,-14 14,-14c6.985,0 14,5.462 14,14c0,6.736 -5.9,11.5 -14,11.5Z" style="fill:none;stroke:#000;stroke-width:4px;"/>
        <path d="M16,29.5c-8.1,0 -14,-4.764 -14,-11.5c0,-8.538 7.015,-14 14,-14c6.985,0 14,5.462 14,14c0,6.736 -5.9,11.5 -14,11.5Z" style="fill:#ffb636;"/>
        <path d="M2.147,19.807c-0.097,-0.584 -0.147,-1.187 -0.147,-1.807c0,-8.538 7.015,-14 14,-14c6.985,0 14,5.462 14,14c-0,0.62 -0.05,1.223 -0.147,1.807c-0.885,-1.128 -26.821,-1.128 -27.706,-0Z" style="fill:#739dff;"/>
        <path d="M29.853,19.807c-0.957,5.765 -6.498,9.693 -13.853,9.693c-7.355,0 -12.896,-3.928 -13.853,-9.693c0.885,-1.128 5.747,-6.807 13.853,-6.807c8.106,-0 12.968,5.679 13.853,6.807Z" style="fill:#ffb636;"/>
        <path d="M8.543,8.448c0.414,0.717 1.72,0.739 2.915,0.049c1.195,-0.69 1.829,-1.832 1.415,-2.549c-0.414,-0.717 -1.72,-0.739 -2.915,-0.049c-1.195,0.689 -1.829,1.832 -1.415,2.549Z"/>
        <path d="M23.457,8.448c-0.414,0.717 -1.72,0.739 -2.915,0.049c-1.195,-0.69 -1.829,-1.832 -1.415,-2.549c0.414,-0.717 1.72,-0.739 2.915,-0.049c1.195,0.689 1.829,1.832 1.415,2.549Z"/>
        <path d="M11.876,24.942c-0.306,-0.095 -0.569,-0.303 -0.732,-0.59c-0.226,-0.4 -0.22,-0.892 0.017,-1.286l0.347,-0.579c0.926,-1.543 2.593,-2.487 4.393,-2.487l0.198,0c1.8,-0 3.467,0.944 4.393,2.487l0.347,0.579c0.237,0.394 0.243,0.886 0.017,1.286c-0.163,0.287 -0.426,0.495 -0.732,0.59c-0.936,-1.213 -7.312,-1.213 -8.248,0Z"/>
        <path d="M20.124,24.942c-0.121,0.038 -0.249,0.058 -0.38,0.058l-7.488,0c-0.131,-0 -0.259,-0.02 -0.38,-0.058c0.936,-1.213 2.39,-1.938 3.944,-1.938l0.36,0c1.554,0 3.008,0.725 3.944,1.938Z" style="fill:#c33700;"/>
        <path d="M22.5,20c-2.484,-0 -4.5,-2.464 -4.5,-5.5c0,-1.959 0.839,-3.679 2.102,-4.654l6.187,1.687c0.45,0.857 0.711,1.875 0.711,2.967c0,3.036 -2.016,5.5 -4.5,5.5Zm-13,-0c-2.484,-0 -4.5,-2.464 -4.5,-5.5c0,-1.092 0.261,-2.11 0.711,-2.967l6.187,-1.687c1.263,0.975 2.102,2.695 2.102,4.654c0,3.036 -2.016,5.5 -4.5,5.5Z" style="fill:#fff;"/>
        <circle cx="21.5" cy="14.5" r="2"/>
        <circle cx="10.5" cy="14.5" r="2"/>
    </g>
</svg>
