<?xml version="1.0" encoding="UTF-8" standalone="no"?>
<!DOCTYPE svg PUBLIC "-//W3C//DTD SVG 1.1//EN" "http://www.w3.org/Graphics/SVG/1.1/DTD/svg11.dtd">
<svg width="100%" height="100%" viewBox="0 0 32 32" version="1.1" xmlns="http://www.w3.org/2000/svg" xmlns:xlink="http://www.w3.org/1999/xlink" xml:space="preserve" xmlns:serif="http://www.serif.com/" style="fill-rule:evenodd;clip-rule:evenodd;stroke-linecap:round;stroke-linejoin:round;stroke-miterlimit:1.5;">
    <rect id="_1f620_angry" serif:id="1f620_angry" x="0" y="0" width="32" height="32" style="fill:none;"/>
    <path d="M16,29.5c-8.1,0 -14,-4.764 -14,-11.5c0,-8.538 7.64,-14 14,-14c6.36,0 14,5.462 14,14c0,6.736 -5.9,11.5 -14,11.5Z" style="fill:none;stroke:#000;stroke-width:4px;"/>
    <path d="M16,29.5c-8.1,0 -14,-4.764 -14,-11.5c0,-8.538 7.64,-14 14,-14c6.36,0 14,5.462 14,14c0,6.736 -5.9,11.5 -14,11.5Z" style="fill:#ff662a;"/>
    <path d="M13,10l6,-0" style="fill:none;stroke:#de430f;stroke-width:1.5px;"/>
    <path d="M14,7l4,-0" style="fill:none;stroke:#de430f;stroke-width:1.5px;"/>
    <path d="M23.017,13.718l2.907,-1.585c1.096,1.291 1.534,3.291 0.995,5.302c-0.8,2.983 -3.447,4.87 -5.908,4.211c-2.036,-0.546 -3.311,-2.663 -3.238,-5.067l1.265,-0.691c-0.025,0.199 4.576,-1.53 3.979,-2.17Z" style="fill:#fff;"/>
    <path d="M12.962,15.888l1.265,0.691c0.073,2.404 -1.202,4.521 -3.238,5.067c-2.461,0.659 -5.108,-1.228 -5.908,-4.211c-0.539,-2.011 -0.101,-4.011 0.995,-5.302l2.907,1.585c-0.597,0.64 4.004,2.369 3.979,2.17Z" style="fill:#fff;"/>
    <path d="M23.017,13.718c0.597,0.64 0.983,1.648 0.983,2.782c0,1.932 -1.12,3.5 -2.5,3.5c-1.38,-0 -2.5,-1.568 -2.5,-3.5c-0,-0.209 0.013,-0.413 0.038,-0.612l3.979,-2.17Z"/>
    <path d="M12.962,15.888c0.025,0.199 0.038,0.403 0.038,0.612c0,1.932 -1.12,3.5 -2.5,3.5c-1.38,-0 -2.5,-1.568 -2.5,-3.5c-0,-1.134 0.386,-2.142 0.983,-2.782l3.979,2.17Z"/>
    <path d="M12,25.5c0,0 0.001,-0.001 0.002,-0.002c0.93,-1.279 2.416,-2.036 3.998,-2.036c1.582,-0 3.068,0.757 3.998,2.036c0.001,0.001 0.002,0.002 0.002,0.002" style="fill:none;stroke:#783318;stroke-width:2px;"/>
    <path d="M9.941,10.171c-0.586,0.585 -0.269,1.852 0.707,2.828c0.975,0.976 2.243,1.293 2.828,0.707c0.585,-0.585 0.269,-1.853 -0.707,-2.828c-0.976,-0.976 -2.243,-1.293 -2.828,-0.707Z"/>
    <path d="M22.059,10.171c0.586,0.585 0.269,1.852 -0.707,2.828c-0.975,0.976 -2.243,1.293 -2.828,0.707c-0.585,-0.585 -0.269,-1.853 0.707,-2.828c0.976,-0.976 2.243,-1.293 2.828,-0.707Z"/>
</svg>
