<?xml version="1.0" encoding="UTF-8" standalone="no"?>
<!DOCTYPE svg PUBLIC "-//W3C//DTD SVG 1.1//EN" "http://www.w3.org/Graphics/SVG/1.1/DTD/svg11.dtd">
<svg width="100%" height="100%" viewBox="0 0 32 32" version="1.1" xmlns="http://www.w3.org/2000/svg" xmlns:xlink="http://www.w3.org/1999/xlink" xml:space="preserve" xmlns:serif="http://www.serif.com/" style="fill-rule:evenodd;clip-rule:evenodd;stroke-linecap:round;stroke-linejoin:round;stroke-miterlimit:1.5;">
    <rect id="_1f625_disappointed_but_relieved" serif:id="1f625_disappointed_but_relieved" x="0" y="0" width="32" height="32" style="fill:none;"/>
    <clipPath id="_clip1">
        <rect x="0" y="0" width="32" height="32"/>
    </clipPath>
    <g clip-path="url(#_clip1)">
        <path d="M25,2c0,0 -2.065,3.717 -3.541,6.373c-0.864,1.555 -0.592,3.494 0.666,4.752c0.019,0.019 0.039,0.039 0.058,0.058c0.747,0.747 1.761,1.167 2.817,1.167c1.056,0 2.07,-0.42 2.817,-1.167c0.019,-0.019 0.039,-0.039 0.058,-0.058c1.258,-1.258 1.53,-3.197 0.666,-4.752c-1.476,-2.656 -3.541,-6.373 -3.541,-6.373Z" style="fill:none;stroke:#000;stroke-width:4px;"/>
        <path d="M16,30c-8.1,0 -14,-4.492 -14,-11.328c0,-3.529 1.356,-6.814 4.111,-9.6c2.683,-2.713 6.618,-4.072 9.889,-4.072c3.271,0 7.206,1.359 9.889,4.072c2.755,2.786 4.111,6.071 4.111,9.6c0,6.836 -5.9,11.328 -14,11.328Z" style="fill:none;stroke:#000;stroke-width:4px;"/>
        <path d="M16,30c-8.1,0 -14,-4.492 -14,-11.328c0,-3.529 1.356,-6.814 4.111,-9.6c2.683,-2.713 6.618,-4.072 9.889,-4.072c3.271,0 7.206,1.359 9.889,4.072c2.755,2.786 4.111,6.071 4.111,9.6c0,6.836 -5.9,11.328 -14,11.328Z" style="fill:#ffb636;"/>
        <path d="M13,17c0,0 -0.242,0.182 -0.607,0.455c-1.947,1.46 -4.671,1.267 -6.392,-0.454c-0.001,-0.001 -0.001,-0.001 -0.001,-0.001" style="fill:none;stroke:#000;stroke-width:2px;"/>
        <path d="M19,17c0,0 0.242,0.182 0.607,0.455c1.947,1.46 4.671,1.267 6.392,-0.454c0.001,-0.001 0.001,-0.001 0.001,-0.001" style="fill:none;stroke:#000;stroke-width:2px;"/>
        <path d="M25,2c0,0 -2.065,3.717 -3.541,6.373c-0.864,1.555 -0.592,3.494 0.666,4.752c0.019,0.019 0.039,0.039 0.058,0.058c0.747,0.747 1.761,1.167 2.817,1.167c1.056,0 2.07,-0.42 2.817,-1.167c0.019,-0.019 0.039,-0.039 0.058,-0.058c1.258,-1.258 1.53,-3.197 0.666,-4.752c-1.476,-2.656 -3.541,-6.373 -3.541,-6.373Z" style="fill:#3fa7ff;"/>
        <path d="M12.061,24.004c-0,0 0,-0 0.001,-0.001c0.954,-1.211 2.409,-1.92 3.95,-1.926c1.542,-0.007 3.002,0.691 3.965,1.895c0.015,0.018 0.023,0.028 0.023,0.028" style="fill:none;stroke:#694300;stroke-width:2px;"/>
    </g>
</svg>
