<?xml version="1.0" encoding="UTF-8" standalone="no"?>
<!DOCTYPE svg PUBLIC "-//W3C//DTD SVG 1.1//EN" "http://www.w3.org/Graphics/SVG/1.1/DTD/svg11.dtd">
<svg width="100%" height="100%" viewBox="0 0 32 32" version="1.1" xmlns="http://www.w3.org/2000/svg" xmlns:xlink="http://www.w3.org/1999/xlink" xml:space="preserve" xmlns:serif="http://www.serif.com/" style="fill-rule:evenodd;clip-rule:evenodd;stroke-linecap:round;stroke-linejoin:round;stroke-miterlimit:1.5;">
    <rect id="_1f623_perservering" serif:id="1f623_perservering" x="0" y="0" width="32" height="32" style="fill:none;"/>
    <clipPath id="_clip1">
        <rect x="0" y="0" width="32" height="32"/>
    </clipPath>
    <g clip-path="url(#_clip1)">
        <path d="M16,30c-8.1,0 -14,-4.492 -14,-11.328c0,-3.529 1.356,-6.814 4.111,-9.6c2.683,-2.713 6.618,-4.072 9.889,-4.072c3.271,0 7.206,1.359 9.889,4.072c2.755,2.786 4.111,6.071 4.111,9.6c0,6.836 -5.9,11.328 -14,11.328Z" style="fill:none;stroke:#000;stroke-width:4px;"/>
        <path d="M16,30c-8.1,0 -14,-4.492 -14,-11.328c0,-3.529 1.356,-6.814 4.111,-9.6c2.683,-2.713 6.618,-4.072 9.889,-4.072c3.271,0 7.206,1.359 9.889,4.072c2.755,2.786 4.111,6.071 4.111,9.6c0,6.836 -5.9,11.328 -14,11.328Z" style="fill:#ffb636;"/>
        <path d="M9.941,12.732c-0.586,0.586 -0.269,1.853 0.707,2.829c0.975,0.975 2.243,1.292 2.828,0.707c0.585,-0.586 0.269,-1.853 -0.707,-2.829c-0.976,-0.975 -2.243,-1.292 -2.828,-0.707Z"/>
        <path d="M22.059,12.732c0.586,0.586 0.269,1.853 -0.707,2.829c-0.975,0.975 -2.243,1.292 -2.828,0.707c-0.585,-0.586 -0.269,-1.853 0.707,-2.829c0.976,-0.975 2.243,-1.292 2.828,-0.707Z"/>
        <path d="M19,19.996c0,-0 0.205,-0.205 0.507,-0.508c1.45,-1.449 3.721,-1.674 5.426,-0.537c0.043,0.029 0.067,0.045 0.067,0.045" style="fill:none;stroke:#000;stroke-width:2px;"/>
        <path d="M13,20c0,0 -0.205,-0.205 -0.507,-0.507c-1.45,-1.45 -3.721,-1.675 -5.426,-0.538c-0.043,0.029 -0.067,0.045 -0.067,0.045" style="fill:none;stroke:#000;stroke-width:2px;"/>
        <path d="M12.061,26.004c-0,0 -0,0 0,0c0.688,-1.573 2.241,-2.591 3.958,-2.596c1.717,-0.005 3.275,1.004 3.973,2.573c0.005,0.013 0.008,0.019 0.008,0.019" style="fill:none;stroke:#694300;stroke-width:2px;"/>
    </g>
</svg>
