<?xml version="1.0" encoding="UTF-8" standalone="no"?>
<!DOCTYPE svg PUBLIC "-//W3C//DTD SVG 1.1//EN" "http://www.w3.org/Graphics/SVG/1.1/DTD/svg11.dtd">
<svg width="100%" height="100%" viewBox="0 0 32 32" version="1.1" xmlns="http://www.w3.org/2000/svg" xmlns:xlink="http://www.w3.org/1999/xlink" xml:space="preserve" xmlns:serif="http://www.serif.com/" style="fill-rule:evenodd;clip-rule:evenodd;stroke-linecap:round;stroke-linejoin:round;stroke-miterlimit:1.5;">
    <rect id="_1f635_etc_dizzy_face" serif:id="1f635_etc_dizzy_face" x="0" y="0" width="32" height="32" style="fill:none;"/>
    <clipPath id="_clip1">
        <rect x="0" y="0" width="32" height="32"/>
    </clipPath>
    <g clip-path="url(#_clip1)">
        <path d="M16,30c-8.1,-0 -14,-4.12 -14,-10.002c-0,-3.529 1.522,-7.765 3.658,-10.087c2.625,-2.851 5.725,-4.911 10.342,-4.911l0,0c4.617,0 7.717,2.06 10.342,4.911c2.136,2.322 3.658,6.558 3.658,10.087c0,5.882 -5.9,10.002 -14,10.002l-0,-0Z" style="fill:none;stroke:#000;stroke-width:4px;"/>
        <path d="M16,30c-8.1,-0 -14,-4.12 -14,-10.002c-0,-3.529 1.522,-7.765 3.658,-10.087c2.625,-2.851 5.725,-4.911 10.342,-4.911l0,0c4.617,0 7.717,2.06 10.342,4.911c2.136,2.322 3.658,6.558 3.658,10.087c0,5.882 -5.9,10.002 -14,10.002l-0,-0Z" style="fill:#ffb636;"/>
        <path d="M8,25c0,0 0.532,-0.93 1.047,-1.831c0.204,-0.358 0.578,-0.584 0.99,-0.598c0.411,-0.014 0.801,0.186 1.029,0.528c0.29,0.435 0.604,0.906 0.893,1.339c0.226,0.339 0.609,0.539 1.016,0.529c0.407,-0.01 0.781,-0.227 0.991,-0.576c0.324,-0.541 0.687,-1.146 1.016,-1.694c0.214,-0.357 0.601,-0.576 1.018,-0.576c0.417,-0 0.804,0.219 1.018,0.576c0.329,0.548 0.692,1.153 1.016,1.694c0.21,0.349 0.584,0.566 0.991,0.576c0.407,0.01 0.79,-0.19 1.016,-0.529c0.289,-0.433 0.603,-0.904 0.893,-1.339c0.228,-0.342 0.618,-0.542 1.029,-0.528c0.412,0.014 0.786,0.24 0.99,0.598c0.515,0.901 1.047,1.831 1.047,1.831" style="fill:none;stroke:#694300;stroke-width:2px;"/>
        <path d="M27.805,13.719c0.578,1.873 0.203,3.894 -1.165,5.263c-1.479,1.478 -3.717,1.796 -5.709,1.008c0.24,-0.739 0.02,-0.546 -0.596,-1.103c-1.505,-1.364 -3.409,-4.235 -2.361,-6.073c0.601,-1.055 3.707,-3.099 4.666,-2.886c1.761,0.391 5.086,4.027 5.165,3.791Z" style="fill:#fff;"/>
        <path d="M11.069,19.99c-1.992,0.788 -4.23,0.47 -5.709,-1.008c-1.368,-1.369 -1.743,-3.39 -1.165,-5.263c0.672,-0.298 2.603,-3.044 4.364,-3.435c0.959,-0.213 4.895,0.615 5.497,1.67c0.431,0.755 0.346,3.029 -0.431,4.556c-1.113,2.188 -3.116,3.621 -2.556,3.48Z" style="fill:#fff;"/>
        <path d="M20.931,19.99c-0.779,-0.308 -1.521,-0.785 -2.164,-1.429c-2.288,-2.288 -2.477,-5.816 -0.42,-7.872c2.056,-2.057 5.584,-1.868 7.872,0.42c0.766,0.765 1.296,1.669 1.586,2.61c-0.079,0.236 -0.246,0.443 -0.484,0.567c-0.489,0.256 -1.094,0.066 -1.349,-0.423c-0.06,-0.115 -0.124,-0.229 -0.193,-0.341c-0.652,-1.066 -1.734,-2.017 -3.495,-2.408c-0.958,-0.213 -2.315,0.082 -2.917,1.136c-1.048,1.839 -0.478,3.909 1.028,5.273c0.615,0.557 1.651,0.846 2.451,0.405c0.557,-0.306 0.791,-0.942 0.782,-1.569c-0.009,-0.667 -0.295,-1.357 -0.891,-1.73c-0.15,-0.093 -0.328,-0.147 -0.498,-0.16c-0.03,-0.003 -0.067,-0.001 -0.103,0.002c0.059,0.152 0.17,0.409 0.318,0.616c0.319,0.45 0.213,1.075 -0.237,1.394c-0.45,0.32 -1.075,0.214 -1.394,-0.236c-0.983,-1.384 -0.811,-2.376 -0.426,-2.941c0.289,-0.423 0.764,-0.711 1.343,-0.804c0.647,-0.105 1.437,0.046 2.057,0.434c1.184,0.74 1.813,2.074 1.831,3.397c0.019,1.363 -0.607,2.682 -1.817,3.349c-0.886,0.489 -1.928,0.55 -2.88,0.31Z"/>
        <path d="M11.069,19.99c-0.952,0.24 -1.994,0.179 -2.88,-0.31c-1.21,-0.667 -1.836,-1.986 -1.817,-3.349c0.018,-1.323 0.647,-2.657 1.831,-3.397c0.62,-0.388 1.41,-0.539 2.057,-0.434c0.579,0.093 1.054,0.381 1.343,0.804c0.385,0.565 0.557,1.557 -0.426,2.941c-0.319,0.45 -0.944,0.556 -1.394,0.236c-0.45,-0.319 -0.556,-0.944 -0.237,-1.394c0.148,-0.208 0.253,-0.443 0.312,-0.592c-0.17,0.009 -0.44,0.038 -0.595,0.134c-0.596,0.373 -0.882,1.063 -0.891,1.73c-0.009,0.627 0.225,1.263 0.782,1.569c0.8,0.441 1.836,0.152 2.451,-0.405c1.506,-1.364 2.076,-3.434 1.028,-5.273c-0.602,-1.054 -1.959,-1.349 -2.917,-1.136c-1.761,0.391 -2.843,1.342 -3.495,2.408c-0.069,0.112 -0.133,0.226 -0.193,0.341c-0.255,0.489 -0.86,0.679 -1.349,0.423c-0.238,-0.124 -0.405,-0.331 -0.484,-0.567c0.29,-0.941 0.82,-1.845 1.586,-2.61c2.288,-2.288 5.816,-2.477 7.872,-0.42c2.057,2.056 1.868,5.584 -0.42,7.872c-0.643,0.644 -1.385,1.121 -2.164,1.429Z"/>
    </g>
</svg>
