<?xml version="1.0" encoding="UTF-8" standalone="no"?>
<!DOCTYPE svg PUBLIC "-//W3C//DTD SVG 1.1//EN" "http://www.w3.org/Graphics/SVG/1.1/DTD/svg11.dtd">
<svg width="100%" height="100%" viewBox="0 0 32 32" version="1.1" xmlns="http://www.w3.org/2000/svg" xmlns:xlink="http://www.w3.org/1999/xlink" xml:space="preserve" xmlns:serif="http://www.serif.com/" style="fill-rule:evenodd;clip-rule:evenodd;stroke-linecap:round;stroke-linejoin:round;stroke-miterlimit:1.5;">
    <rect id="_1f637_medical_mask" serif:id="1f637_medical_mask" x="0" y="0" width="32" height="32" style="fill:none;"/>
    <path d="M16,29.5c-8.1,-0 -14,-5.5 -14,-12.5c0,-8.873 7.64,-14 14,-14c6.36,-0 14,5.127 14,14c0,7 -5.9,12.5 -14,12.5Z" style="fill:none;stroke:#000;stroke-width:4px;"/>
    <path d="M5.824,25.748c-1.866,-1.739 -3.14,-3.981 -3.616,-6.505c1.496,1.104 3.791,2.309 5.97,3.357c1.458,1.761 -0.888,4.228 -2.354,3.148Zm-3.724,-10.479c0.917,-7.805 7.966,-12.269 13.9,-12.269c5.934,-0 12.983,4.464 13.9,12.269c-0.432,3.599 -3.38,5.371 -5.769,6.784c-0.442,-0.327 -16.39,-0.042 -16.832,0.285c-2.389,-1.412 -4.083,-4.668 -5.199,-7.069Zm27.692,3.974c-0.476,2.524 -1.75,4.766 -3.616,6.505c-0.968,0.564 -3.759,-1.708 -2.867,-2.92c2.179,-1.048 4.903,-2.644 6.483,-3.585Z" style="fill:#ffb636;"/>
    <path d="M2.208,19.243c-0.137,-0.726 -0.208,-1.476 -0.208,-2.243c0,-0.594 0.034,-1.171 0.1,-1.731c1.116,2.401 2.867,4.402 5.256,5.814c0.442,-0.326 1.431,-0.849 3.644,-1.583c3.014,-1 4.281,-1 5,-1c0.719,-0 1.986,-0 5,1c2.213,0.734 3.202,1.257 3.644,1.583c2.389,-1.412 4.14,-3.413 5.256,-5.814c0.066,0.56 0.1,1.137 0.1,1.731c0,0.768 -0.071,1.517 -0.208,2.243c-1.382,1.731 -3.163,3.164 -5.343,4.212c-0.035,0.713 0.283,1.277 0.906,1.9l0.136,0.136l0.685,0.257c-2.495,2.325 -6.05,3.752 -10.176,3.752c-4.126,-0 -7.681,-1.427 -10.176,-3.752l0.685,-0.257l0.136,-0.136c0.623,-0.623 0.941,-1.187 0.906,-1.9c-2.179,-1.048 -3.961,-2.48 -5.343,-4.212Z" style="fill:#fff;"/>
    <path d="M9.553,22.894c-0.494,-0.246 -0.694,-0.848 -0.447,-1.341c0.246,-0.494 0.848,-0.694 1.341,-0.447c0,-0 1.854,0.894 5.553,0.894c3.699,-0 5.553,-0.894 5.553,-0.894c0.493,-0.247 1.095,-0.047 1.341,0.447c0.247,0.493 0.047,1.095 -0.447,1.341c0,0 -2.145,1.106 -6.447,1.106c-4.302,-0 -6.447,-1.106 -6.447,-1.106Z" style="fill:#b7b7b7;"/>
    <ellipse cx="22.5" cy="13.5" rx="4.5" ry="5.5" style="fill:#fff;"/>
    <ellipse cx="9.5" cy="13.5" rx="4.5" ry="5.5" style="fill:#fff;"/>
    <ellipse cx="21.5" cy="13.5" rx="2.5" ry="3.5"/>
    <ellipse cx="10.5" cy="13.5" rx="2.5" ry="3.5"/>
</svg>
