<?xml version="1.0" encoding="UTF-8" standalone="no"?>
<!DOCTYPE svg PUBLIC "-//W3C//DTD SVG 1.1//EN" "http://www.w3.org/Graphics/SVG/1.1/DTD/svg11.dtd">
<svg width="100%" height="100%" viewBox="0 0 32 32" version="1.1" xmlns="http://www.w3.org/2000/svg" xmlns:xlink="http://www.w3.org/1999/xlink" xml:space="preserve" xmlns:serif="http://www.serif.com/" style="fill-rule:evenodd;clip-rule:evenodd;stroke-linecap:round;stroke-linejoin:round;stroke-miterlimit:1.5;">
    <rect id="_1f693_party_face" serif:id="1f693_party_face" x="0" y="0" width="32" height="32" style="fill:none;"/>
    <clipPath id="_clip1">
        <rect x="0" y="0" width="32" height="32"/>
    </clipPath>
    <g clip-path="url(#_clip1)">
        <g id="outline">
            <path d="M13.513,5.775c0.063,-0.203 0.039,-0.423 -0.065,-0.608c-0.104,-0.185 -0.28,-0.319 -0.485,-0.371c-2.707,-0.703 -10.963,-2.796 -10.963,-2.796c0,-0 0.738,8.114 0.946,10.405c0.03,0.337 0.272,0.618 0.602,0.698c0.846,-0.004 2.647,-0.295 5.422,-2.425c2.885,-2.214 4.069,-3.958 4.543,-4.903Z" style="fill:none;stroke:#000;stroke-width:4px;"/>
            <path d="M15.25,30c-7.521,-0 -13,-5.292 -13,-12.028c-0,-8.538 7.095,-13.472 13,-13.472c5.905,0 13,4.934 13,13.472c-0,6.736 -5.479,12.028 -13,12.028Z" style="fill:none;stroke:#000;stroke-width:4px;"/>
            <path id="aaa" d="M16,22.5l8,0c3.776,0 5,-2.295 5,-4.248c0,-1.235 -0.817,-3.294 -3,-3.294c-1.924,0 -3.049,1.404 -3.093,2.623c-0.032,0.916 0.562,1.947 1.622,1.947c0.589,0 1.471,-0.421 1.471,-1.567" style="fill:none;stroke:#000;stroke-width:6px;"/>
            <path d="M24.426,3.583c1.841,-2.086 7.585,1.941 5.525,4c-2.059,2.059 -7.503,-1.759 -5.525,-4Z" style="fill:#ff9a4c;stroke:#000;stroke-width:4px;"/>
            <path d="M0.017,16.775c0.309,-2.765 5.28,-2.798 4.777,0.071c-0.504,2.868 -5.109,2.899 -4.777,-0.071Z" style="fill:#f2484a;stroke:#000;stroke-width:4px;"/>
            <path d="M22.042,26.741c1.621,-2.261 7.742,1.165 5.901,3.422c-1.841,2.257 -7.643,-0.993 -5.901,-3.422Z" style="fill:#982eee;stroke:#000;stroke-width:4px;"/>
            <path d="M8.643,25.16c0.274,2.041 -6.495,3.61 -6.642,1.556c-0.104,-1.454 6.368,-3.597 6.642,-1.556Z" style="fill:#f248db;stroke:#000;stroke-width:4px;"/>
            <path d="M19.687,-2.645c1.496,1.415 -2.782,6.891 -4.187,5.386c-0.995,-1.066 2.69,-6.801 4.187,-5.386Z" style="fill:#d8fdeb;stroke:#000;stroke-width:4px;"/>
        </g>
        <path d="M2.188,4.07c-0.065,-0.553 1.197,-1.658 2.043,-1.504c0.526,0.133 1.116,0.283 1.738,0.441c-0.756,0.633 -3.198,2.376 -3.64,2.617l-0.141,-1.554Zm0.375,4.126c0.307,-1.099 0.629,-2.446 1.437,-3.196c0.954,-0.885 2.711,-1.257 4.149,-1.44c0.827,0.21 1.647,0.418 2.397,0.608c-2.375,0.184 -7.328,4.687 -7.769,6.38l-0.214,-2.352Z" style="fill:#f47da8;"/>
        <path d="M8.149,3.56c-1.508,0.409 -2.712,1.091 -3.666,1.976c-0.808,0.749 -1.439,1.648 -1.92,2.66l-0.234,-2.572c0.285,-0.537 0.654,-1.002 1.119,-1.394c0.653,-0.551 1.486,-0.956 2.521,-1.223c0.701,0.177 1.443,0.366 2.18,0.553Zm-5.372,6.988c0.441,-1.693 1.19,-3.17 2.386,-4.279c1.259,-1.168 3.008,-1.917 5.383,-2.101c0.847,0.216 1.602,0.408 2.174,0.553c0.25,0.064 0.454,0.247 0.544,0.489c0.09,0.243 0.056,0.514 -0.093,0.726c-0.839,1.157 -2.44,3.161 -4.47,4.731c-2.728,2.111 -4.394,2.425 -5.181,2.441c-0.316,-0.089 -0.544,-0.364 -0.573,-0.691l-0.17,-1.869Zm1.454,-7.982c-0.542,0.252 -1.016,0.552 -1.428,0.9c-0.222,0.187 -0.427,0.389 -0.615,0.604l-0.188,-2.07c-0,0 0.913,0.231 2.231,0.566Z" style="fill:#982eee;"/>
        <path d="M15.25,30c-7.521,-0 -13,-5.292 -13,-12.028c-0,-8.538 7.095,-13.472 13,-13.472c5.905,0 13,4.934 13,13.472c-0,6.736 -5.479,12.028 -13,12.028Z" style="fill:#ffb636;"/>
        <g id="face">
            <circle cx="25.924" cy="18.264" r="2.984" style="fill:#ffb636;"/>
            <path d="M7.543,9.085c0.215,0.8 1.471,1.159 2.804,0.802c1.332,-0.357 2.24,-1.296 2.026,-2.096c-0.214,-0.8 -1.47,-1.159 -2.803,-0.802c-1.333,0.357 -2.241,1.296 -2.027,2.096Z"/>
            <path d="M22.957,9.085c-0.215,0.8 -1.471,1.159 -2.804,0.802c-1.332,-0.357 -2.24,-1.296 -2.026,-2.096c0.214,-0.8 1.47,-1.159 2.803,-0.802c1.333,0.357 2.241,1.296 2.027,2.096Z"/>
            <path d="M12.25,16.25c-0,0 -0.05,-0.1 -0.137,-0.274c-0.625,-1.25 -1.843,-2.094 -3.232,-2.242c-1.389,-0.147 -2.758,0.424 -3.63,1.515c-0.001,0.001 -0.001,0.001 -0.001,0.001" style="fill:none;stroke:#000;stroke-width:2px;"/>
            <path d="M18.25,16.25c-0,0 0.05,-0.1 0.137,-0.274c0.625,-1.25 1.843,-2.094 3.232,-2.242c1.389,-0.147 2.758,0.424 3.63,1.515c0.001,0.001 0.001,0.001 0.001,0.001" style="fill:none;stroke:#000;stroke-width:2px;"/>
            <rect x="24" y="15" width="4" height="2" style="fill:#ffb636;"/>
            <path id="aaa1" serif:id="aaa" d="M16,22.5l8,0c3.776,0 5,-2.295 5,-4.248c0,-1.235 -0.817,-3.294 -3,-3.294c-1.924,0 -3.049,1.404 -3.093,2.623c-0.032,0.916 0.562,1.947 1.622,1.947c0.589,0 1.471,-0.421 1.471,-1.567" style="fill:none;stroke:#00a5fa;stroke-width:2px;"/>
            <rect x="16" y="21" width="3" height="3" style="fill:#0071ab;"/>
            <path d="M14.25,25.25c-0,-0 0.596,-0.149 1.137,-0.284c0.507,-0.127 0.863,-0.583 0.863,-1.105c-0,-0.074 -0,-0.148 -0,-0.222c-0,-0.522 -0.356,-0.978 -0.863,-1.105c-0.541,-0.135 -1.137,-0.284 -1.137,-0.284c-0,-0 0.596,-0.149 1.137,-0.284c0.507,-0.127 0.863,-0.583 0.863,-1.105c-0,-0.074 -0,-0.148 -0,-0.222c-0,-0.522 -0.356,-0.978 -0.863,-1.105c-0.541,-0.135 -1.137,-0.284 -1.137,-0.284" style="fill:none;stroke:#694300;stroke-width:2px;"/>
        </g>
        <g id="confetti">
            <path d="M24.426,3.583c1.841,-2.086 7.585,1.941 5.525,4c-2.059,2.059 -7.503,-1.759 -5.525,-4Z" style="fill:#ff9a4c;"/>
            <path d="M0.017,16.775c0.309,-2.765 5.28,-2.798 4.777,0.071c-0.504,2.868 -5.109,2.899 -4.777,-0.071Z" style="fill:#4cb5ff;"/>
            <path d="M22.042,26.741c1.621,-2.261 7.742,1.165 5.901,3.422c-1.841,2.257 -7.643,-0.993 -5.901,-3.422Z" style="fill:#ae68f7;"/>
            <path d="M8.643,25.16c0.274,2.041 -6.495,3.61 -6.642,1.556c-0.104,-1.454 6.368,-3.597 6.642,-1.556Z" style="fill:#f248db;"/>
            <path d="M19.687,-2.645c1.496,1.415 -2.782,6.891 -4.187,5.386c-0.995,-1.066 2.69,-6.801 4.187,-5.386Z" style="fill:#704ef6;"/>
        </g>
    </g>
</svg>
