<?xml version="1.0" encoding="UTF-8" standalone="no"?>
<!DOCTYPE svg PUBLIC "-//W3C//DTD SVG 1.1//EN" "http://www.w3.org/Graphics/SVG/1.1/DTD/svg11.dtd">
<svg width="100%" height="100%" viewBox="0 0 32 32" version="1.1" xmlns="http://www.w3.org/2000/svg" xmlns:xlink="http://www.w3.org/1999/xlink" xml:space="preserve" xmlns:serif="http://www.serif.com/" style="fill-rule:evenodd;clip-rule:evenodd;stroke-linecap:round;stroke-linejoin:round;stroke-miterlimit:1.5;">
    <rect id="_1f915_bandaged" serif:id="1f915_bandaged" x="0" y="0" width="32" height="32" style="fill:none;"/>
    <path d="M16,29.5c-8.1,-0 -14,-5.5 -14,-12.5c0,-8.873 7.64,-14 14,-14c6.36,-0 14,5.127 14,14c0,7 -5.9,12.5 -14,12.5Z" style="fill:none;stroke:#000;stroke-width:4px;"/>
    <path d="M24.485,5.939c3.172,2.382 5.515,6.147 5.515,11.061c0,7 -5.9,12.5 -14,12.5c-5.431,-0 -9.873,-2.472 -12.21,-6.212c-0.06,-3.58 1.988,-8.77 7.442,-12.922c5.274,-4.015 10.28,-4.72 13.253,-4.427Z" style="fill:none;stroke:#000;stroke-width:4px;"/>
    <path d="M24.485,5.939c3.172,2.382 5.515,6.147 5.515,11.061c0,7 -5.9,12.5 -14,12.5c-5.431,-0 -9.873,-2.472 -12.21,-6.212c-0.06,-3.58 1.988,-8.77 7.442,-12.922c5.274,-4.015 10.28,-4.72 13.253,-4.427Z" style="fill:#ffb636;"/>
    <ellipse cx="9.5" cy="13.5" rx="4.5" ry="5.5" style="fill:#fff;"/>
    <ellipse cx="10.5" cy="13.5" rx="2.5" ry="3.456"/>
    <path d="M21.984,4.421c0.87,0.418 1.711,0.925 2.501,1.518c-2.41,0.552 -6.458,2.045 -11.733,6.061c-5.453,4.152 -7.895,8.553 -8.962,11.288c-1.149,-1.837 -1.79,-3.981 -1.79,-6.288c0,-8.873 7.64,-14 14,-14c0.226,-0 0.453,0.006 0.681,0.019c1.121,0.489 1.614,0.807 5.303,1.402Z" style="fill:#fff;"/>
    <path d="M21.984,4.421c-8.172,0.015 -12.255,4.297 -12.255,4.297c-0.377,0.402 -1.011,0.423 -1.413,0.045c-0.403,-0.378 -0.423,-1.011 -0.045,-1.414c-0,0 2.79,-3.017 8.41,-4.33c1.756,0.099 3.585,0.576 5.303,1.402Z" style="fill:#c3c3c3;"/>
    <path d="M11,23c0,0 0.219,-0.175 0.565,-0.452c2.593,-2.074 6.277,-2.074 8.87,0c0.346,0.277 0.565,0.452 0.565,0.452" style="fill:none;stroke:#694300;stroke-width:2px;"/>
    <rect x="17" y="7" width="11" height="12" style="fill:none;"/>
    <clipPath id="_clip1">
        <rect x="17" y="7" width="11" height="12"/>
    </clipPath>
    <g clip-path="url(#_clip1)">
        <ellipse cx="22.5" cy="13.5" rx="4.5" ry="5.5" style="fill:#fff;"/>
    </g>
    <ellipse cx="21.5" cy="13.5" rx="2.5" ry="3.5"/>
</svg>
