<?xml version="1.0" encoding="UTF-8" standalone="no"?>
<!DOCTYPE svg PUBLIC "-//W3C//DTD SVG 1.1//EN" "http://www.w3.org/Graphics/SVG/1.1/DTD/svg11.dtd">
<svg width="100%" height="100%" viewBox="0 0 32 32" version="1.1" xmlns="http://www.w3.org/2000/svg" xmlns:xlink="http://www.w3.org/1999/xlink" xml:space="preserve" xmlns:serif="http://www.serif.com/" style="fill-rule:evenodd;clip-rule:evenodd;stroke-linecap:round;stroke-linejoin:round;stroke-miterlimit:1.5;">
    <rect id="_1f914_thinking" serif:id="1f914_thinking" x="0" y="0" width="32" height="32" style="fill:none;"/>
    <clipPath id="_clip1">
        <rect x="0" y="0" width="32" height="32"/>
    </clipPath>
    <g clip-path="url(#_clip1)">
        <path d="M5.464,23.36c-2.185,-2.22 -3.464,-5.164 -3.464,-8.411c0,-11.953 11,-12.949 14,-12.949c3,0 14,0.996 14,12.949c0,6.973 -5.9,12.551 -14,12.551c-1.406,-0 -2.746,-0.168 -4,-0.482l0,2.982c0,0.53 -0.211,1.039 -0.586,1.414c-0.375,0.375 -0.884,0.586 -1.414,0.586l-4,-0c-1.105,-0 -2,-0.895 -2,-2l0,-2.942c0,-1.392 0.536,-2.71 1.464,-3.698Z" style="fill:none;stroke:#000;stroke-width:4px;"/>
        <path d="M4.177,21.821c-1.391,-1.969 -2.177,-4.328 -2.177,-6.872c-0,-11.953 11,-12.949 14,-12.949c3,0 14,0.996 14,12.949c0,6.563 -5.226,11.89 -12.594,12.494c0.384,-0.572 -12.806,-6.043 -13.229,-5.622Z" style="fill:none;stroke:#000;stroke-width:4px;"/>
        <path d="M4.177,21.821c-1.391,-1.969 -2.177,-4.328 -2.177,-6.872c-0,-11.953 11,-12.949 14,-12.949c3,0 14,0.996 14,12.949c0,6.563 -5.226,11.89 -12.594,12.494c0.384,-0.572 -12.806,-6.043 -13.229,-5.622Z" style="fill:#ffb636;"/>
        <path d="M4.177,21.821c0.423,-0.421 0.901,-0.795 1.427,-1.11l1.613,-0.964c0.773,-0.462 1.734,-0.472 2.517,-0.028c0.782,0.444 1.266,1.274 1.266,2.174l0,0.107l3.506,0c1.93,0 3.494,1.564 3.494,3.494c0,0.699 -0.21,1.377 -0.594,1.949c-0.46,0.038 -0.929,0.057 -1.406,0.057c-5.144,-0 -9.402,-2.25 -11.823,-5.679Z" style="fill:#694300;"/>
        <path d="M26.981,10.988c0.012,0.168 0.019,0.339 0.019,0.512c-0,3.036 -2.016,5.5 -4.5,5.5c-2.484,0 -4.5,-2.464 -4.5,-5.5c0,-1.859 0.756,-3.504 1.913,-4.5l5.087,0c-1.104,0 1.845,5.689 1.981,3.988Z" style="fill:#fff;"/>
        <path d="M25,7l0.087,0c0.001,0.001 0.002,0.002 0.004,0.004c-0.03,-0.003 -0.061,-0.004 -0.091,-0.004Z" style="fill:#fff;"/>
        <path d="M13.98,11l0.002,0c0.012,0.165 0.018,0.331 0.018,0.5c-0,3.036 -2.016,5.5 -4.5,5.5c-2.484,0 -4.5,-2.464 -4.5,-5.5c-0,-0.169 0.006,-0.335 0.018,-0.5l5.002,0c0.139,1.695 3.821,1.695 3.96,0Z" style="fill:#fff;"/>
        <path d="M26.981,10.988c-0.136,1.701 -0.972,3.012 -1.981,3.012c-1.104,0 -2,-1.568 -2,-3.5c-0,-1.932 0.896,-3.5 2,-3.5c0.03,-0 0.061,0.001 0.091,0.004c1.047,0.903 1.765,2.339 1.89,3.984Z"/>
        <path d="M13.98,11c-0.139,1.695 -0.973,3 -1.98,3c-1.007,0 -1.841,-1.305 -1.98,-3l3.96,0Z"/>
        <path d="M12.061,19.004c-0,0 2.179,-0.315 4.095,-0.592c1.793,-0.26 3.605,0.328 4.904,1.592c0.001,0 0.001,0 0.001,0" style="fill:none;stroke:#694300;stroke-width:2px;"/>
        <path d="M24,3.5c0,0.828 -1.12,1.5 -2.5,1.5c-1.38,0 -2.5,-0.672 -2.5,-1.5c0,-0.828 1.12,-1.5 2.5,-1.5c1.38,-0 2.5,0.672 2.5,1.5Z"/>
        <path d="M13.665,8.448c-0.414,0.717 -1.72,0.739 -2.915,0.049c-1.195,-0.69 -1.829,-1.832 -1.415,-2.549c0.414,-0.717 1.72,-0.739 2.915,-0.049c1.195,0.689 1.829,1.832 1.415,2.549Z"/>
        <path d="M9,21.883c0,-0.18 -0.097,-0.346 -0.254,-0.435c-0.156,-0.089 -0.349,-0.086 -0.503,0.006c-0.441,0.265 -1.027,0.616 -1.621,0.973c-1.627,0.976 -2.622,2.734 -2.622,4.631c0,0.986 0,2.053 0,2.942c0,1.105 0.895,2 2,2l4,0c0.53,-0 1.039,-0.211 1.414,-0.586c0.375,-0.375 0.586,-0.884 0.586,-1.414l0,-3l2.5,0c0.398,0 0.779,-0.158 1.061,-0.439c0.281,-0.282 0.439,-0.663 0.439,-1.061c-0,-0.398 -0.158,-0.779 -0.439,-1.061c-0.282,-0.281 -0.663,-0.439 -1.061,-0.439c-2.057,0 -5.5,0 -5.5,0l0,-2.117Z" style="fill:#ffb636;"/>
    </g>
</svg>
