<?xml version="1.0" encoding="UTF-8" standalone="no"?>
<!DOCTYPE svg PUBLIC "-//W3C//DTD SVG 1.1//EN" "http://www.w3.org/Graphics/SVG/1.1/DTD/svg11.dtd">
<svg width="100%" height="100%" viewBox="0 0 32 32" version="1.1" xmlns="http://www.w3.org/2000/svg" xmlns:xlink="http://www.w3.org/1999/xlink" xml:space="preserve" xmlns:serif="http://www.serif.com/" style="fill-rule:evenodd;clip-rule:evenodd;stroke-linecap:round;stroke-linejoin:round;stroke-miterlimit:1.5;">
    <rect id="_1f92a_crazy" serif:id="1f92a_crazy" x="0" y="0" width="32" height="32" style="fill:none;"/>
    <path d="M16,30c-8.1,-0 -14,-4.764 -14,-11.5c0,-8.538 7.163,-14 14,-14c6.837,-0 14,5.462 14,14c0,6.736 -5.9,11.5 -14,11.5Z" style="fill:none;stroke:#000;stroke-width:4px;"/>
    <path d="M16,30c-8.1,-0 -14,-4.764 -14,-11.5c0,-8.538 7.163,-14 14,-14c6.837,-0 14,5.462 14,14c0,6.736 -5.9,11.5 -14,11.5Z" style="fill:#ffb636;"/>
    <path d="M9.973,9.025c2.262,0.237 4.027,2.151 4.027,4.475c-0,2.484 -2.016,4.5 -4.5,4.5c-2.324,-0 -4.238,-1.765 -4.475,-4.027c0.633,0.635 5.583,-4.315 4.948,-4.948Z" style="fill:#fff;"/>
    <path d="M26.975,13.973c-0.237,2.262 -2.151,4.027 -4.475,4.027c-2.484,-0 -4.5,-2.016 -4.5,-4.5c0,-2.324 1.765,-4.238 4.027,-4.475c-0.635,0.633 4.315,5.583 4.948,4.948Z" style="fill:#fff;"/>
    <path d="M5.025,13.973c-0.017,-0.155 -0.025,-0.313 -0.025,-0.473c-0,-2.484 2.016,-4.5 4.5,-4.5c0.16,-0 0.318,0.008 0.473,0.025c0.635,0.633 1.027,1.509 1.027,2.475c0,1.932 -1.568,3.5 -3.5,3.5c-0.966,-0 -1.842,-0.392 -2.475,-1.027Z"/>
    <path d="M26.975,13.973c-0.633,0.635 -1.509,1.027 -2.475,1.027c-1.932,-0 -3.5,-1.568 -3.5,-3.5c0,-0.966 0.392,-1.842 1.027,-2.475c0.155,-0.017 0.313,-0.025 0.473,-0.025c2.484,-0 4.5,2.016 4.5,4.5c0,0.16 -0.008,0.318 -0.025,0.473Z"/>
    <path d="M21.005,23.428c0.616,-0.675 1.091,-1.49 1.373,-2.405l0.061,-0.198c0.107,-0.349 0.015,-0.729 -0.24,-0.99c-0.254,-0.261 -0.632,-0.363 -0.983,-0.265c-1.448,0.429 -3.522,0.93 -5.216,0.93c-1.694,0 -3.768,-0.501 -5.218,-0.924c-0.349,-0.098 -0.724,0.003 -0.977,0.263c-0.253,0.26 -0.344,0.637 -0.238,0.984c0.014,0.067 0.035,0.133 0.055,0.2c0.282,0.915 0.757,1.73 1.373,2.405c1.006,-1.207 9.004,-1.207 10.01,0Z"/>
    <path d="M20,24.32c-0.454,-0.51 -0.5,-1.108 0,-1.823c0.371,0.264 0.71,0.576 1.005,0.931c-0.303,0.333 -0.64,0.632 -1.005,0.892Zm-8,-1.823c0.286,0.643 0.259,1.248 0,1.823c-0.365,-0.26 -0.702,-0.559 -1.005,-0.892c0.295,-0.355 0.634,-0.667 1.005,-0.931Z" style="fill:#872600;"/>
    <path d="M20,24.32c-0.005,0.003 -0.009,0.007 -0.014,0.01c-0.077,0.94 -0.486,1.826 -1.158,2.498c-0.75,0.751 -1.767,1.172 -2.828,1.172c-1.061,0 -2.078,-0.421 -2.828,-1.172c-0.672,-0.672 -1.081,-1.558 -1.158,-2.498c-0.005,-0.003 -0.009,-0.007 -0.014,-0.01l-0,-1.823c0.892,-0.635 1.972,-0.993 3.104,-0.993l1.792,0c1.132,0 2.212,0.358 3.104,0.993l-0,1.823Z" style="fill:#c33700;"/>
</svg>
