<?xml version="1.0" encoding="UTF-8" standalone="no"?>
<!DOCTYPE svg PUBLIC "-//W3C//DTD SVG 1.1//EN" "http://www.w3.org/Graphics/SVG/1.1/DTD/svg11.dtd">
<svg width="100%" height="100%" viewBox="0 0 32 32" version="1.1" xmlns="http://www.w3.org/2000/svg" xmlns:xlink="http://www.w3.org/1999/xlink" xml:space="preserve" xmlns:serif="http://www.serif.com/" style="fill-rule:evenodd;clip-rule:evenodd;stroke-linecap:round;stroke-linejoin:round;stroke-miterlimit:1.5;">
    <rect id="_1f929_starry_eyes" serif:id="1f929_starry_eyes" x="0" y="0" width="32" height="32" style="fill:none;"/>
    <clipPath id="_clip1">
        <rect x="0" y="0" width="32" height="32"/>
    </clipPath>
    <g clip-path="url(#_clip1)">
        <path d="M6.353,5.91c0.067,-0.349 0.327,-0.628 0.669,-0.72c0.343,-0.092 0.708,0.02 0.94,0.289c1.023,1.181 2.301,2.657 2.301,2.657c-0,0 1.938,-0.242 3.488,-0.435c0.352,-0.044 0.698,0.117 0.891,0.414c0.193,0.298 0.2,0.679 0.016,0.983c-0.807,1.337 -1.817,3.009 -1.817,3.009c0,0 0.83,1.768 1.493,3.183c0.15,0.321 0.104,0.7 -0.119,0.976c-0.223,0.275 -0.584,0.399 -0.93,0.319c-1.521,-0.355 -3.423,-0.798 -3.423,-0.798c-0,-0 -1.426,1.335 -2.566,2.402c-0.259,0.243 -0.633,0.316 -0.965,0.189c-0.331,-0.127 -0.56,-0.432 -0.591,-0.786c-0.132,-1.556 -0.298,-3.502 -0.298,-3.502c-0,-0 -1.71,-0.943 -3.078,-1.698c-0.311,-0.171 -0.496,-0.505 -0.478,-0.859c0.019,-0.354 0.238,-0.667 0.565,-0.805c1.439,-0.607 3.238,-1.366 3.238,-1.366c0,-0 0.369,-1.918 0.664,-3.452Z" style="fill:none;stroke:#000;stroke-width:4px;"/>
        <path d="M25.532,5.91c-0.067,-0.349 -0.327,-0.628 -0.67,-0.72c-0.342,-0.092 -0.707,0.02 -0.94,0.289c-1.022,1.181 -2.3,2.657 -2.3,2.657c0,0 -1.938,-0.242 -3.488,-0.435c-0.352,-0.044 -0.698,0.117 -0.891,0.414c-0.194,0.298 -0.2,0.679 -0.016,0.983c0.807,1.337 1.816,3.009 1.816,3.009c0,0 -0.829,1.768 -1.492,3.183c-0.151,0.321 -0.104,0.7 0.119,0.976c0.223,0.275 0.584,0.399 0.93,0.319c1.521,-0.355 3.423,-0.798 3.423,-0.798c-0,-0 1.425,1.335 2.566,2.402c0.259,0.243 0.633,0.316 0.964,0.189c0.332,-0.127 0.561,-0.432 0.591,-0.786c0.133,-1.556 0.299,-3.502 0.299,-3.502c0,-0 1.71,-0.943 3.078,-1.698c0.311,-0.171 0.496,-0.505 0.478,-0.859c-0.019,-0.354 -0.238,-0.667 -0.565,-0.805c-1.439,-0.607 -3.239,-1.366 -3.239,-1.366c0,-0 -0.368,-1.918 -0.663,-3.452Z" style="fill:none;stroke:#000;stroke-width:4px;"/>
        <path d="M16,30c-8.1,-0 -13,-4.92 -13,-9.6c-0,-9.375 6.939,-14 13,-14c6.061,0 13,4.625 13,14c-0,4.68 -4.9,9.6 -13,9.6Z" style="fill:none;stroke:#000;stroke-width:4px;"/>
        <path d="M16,30c-8.1,-0 -13,-4.92 -13,-9.6c-0,-9.375 6.939,-14 13,-14c6.061,0 13,4.625 13,14c-0,4.68 -4.9,9.6 -13,9.6Z" style="fill:#ffb636;"/>
        <path d="M19.905,24.555c0.938,-0.849 1.59,-2.017 1.78,-3.35l0.152,-1.066c0.041,-0.286 -0.044,-0.576 -0.234,-0.795c-0.189,-0.218 -0.464,-0.344 -0.754,-0.344l-9.698,-0c-0.29,-0 -0.565,0.126 -0.754,0.344c-0.19,0.219 -0.275,0.509 -0.234,0.795l0.152,1.066c0.19,1.333 0.842,2.501 1.78,3.35c0.992,-0.983 6.818,-0.983 7.81,0Z"/>
        <path d="M12.095,24.555c0.997,0.902 2.317,1.445 3.749,1.445l0.312,-0c1.432,0 2.752,-0.543 3.749,-1.445c-0.992,-0.983 -2.342,-1.551 -3.767,-1.551l-0.276,0c-1.425,0 -2.775,0.568 -3.767,1.551Z" style="fill:#c33700;"/>
        <path d="M6.353,5.91c0.067,-0.349 0.327,-0.628 0.669,-0.72c0.343,-0.092 0.708,0.02 0.94,0.289c1.023,1.181 2.301,2.657 2.301,2.657c-0,0 1.938,-0.242 3.488,-0.435c0.352,-0.044 0.698,0.117 0.891,0.414c0.193,0.298 0.2,0.679 0.016,0.983c-0.807,1.337 -1.817,3.009 -1.817,3.009c0,0 0.83,1.768 1.493,3.183c0.15,0.321 0.104,0.7 -0.119,0.976c-0.223,0.275 -0.584,0.399 -0.93,0.319c-1.521,-0.355 -3.423,-0.798 -3.423,-0.798c-0,-0 -1.426,1.335 -2.566,2.402c-0.259,0.243 -0.633,0.316 -0.965,0.189c-0.331,-0.127 -0.56,-0.432 -0.591,-0.786c-0.132,-1.556 -0.298,-3.502 -0.298,-3.502c-0,-0 -1.71,-0.943 -3.078,-1.698c-0.311,-0.171 -0.496,-0.505 -0.478,-0.859c0.019,-0.354 0.238,-0.667 0.565,-0.805c1.439,-0.607 3.238,-1.366 3.238,-1.366c0,-0 0.369,-1.918 0.664,-3.452Z" style="fill:#b535ff;"/>
        <path d="M25.532,5.91c-0.067,-0.349 -0.327,-0.628 -0.67,-0.72c-0.342,-0.092 -0.707,0.02 -0.94,0.289c-1.022,1.181 -2.3,2.657 -2.3,2.657c0,0 -1.938,-0.242 -3.488,-0.435c-0.352,-0.044 -0.698,0.117 -0.891,0.414c-0.194,0.298 -0.2,0.679 -0.016,0.983c0.807,1.337 1.816,3.009 1.816,3.009c0,0 -0.829,1.768 -1.492,3.183c-0.151,0.321 -0.104,0.7 0.119,0.976c0.223,0.275 0.584,0.399 0.93,0.319c1.521,-0.355 3.423,-0.798 3.423,-0.798c-0,-0 1.425,1.335 2.566,2.402c0.259,0.243 0.633,0.316 0.964,0.189c0.332,-0.127 0.561,-0.432 0.591,-0.786c0.133,-1.556 0.299,-3.502 0.299,-3.502c0,-0 1.71,-0.943 3.078,-1.698c0.311,-0.171 0.496,-0.505 0.478,-0.859c-0.019,-0.354 -0.238,-0.667 -0.565,-0.805c-1.439,-0.607 -3.239,-1.366 -3.239,-1.366c0,-0 -0.368,-1.918 -0.663,-3.452Z" style="fill:#b535ff;"/>
    </g>
</svg>
