<?xml version="1.0" encoding="UTF-8" standalone="no"?>
<!DOCTYPE svg PUBLIC "-//W3C//DTD SVG 1.1//EN" "http://www.w3.org/Graphics/SVG/1.1/DTD/svg11.dtd">
<svg width="100%" height="100%" viewBox="0 0 32 32" version="1.1" xmlns="http://www.w3.org/2000/svg" xmlns:xlink="http://www.w3.org/1999/xlink" xml:space="preserve" xmlns:serif="http://www.serif.com/" style="fill-rule:evenodd;clip-rule:evenodd;stroke-linecap:round;stroke-linejoin:round;stroke-miterlimit:1.5;">
    <rect id="_1f92b_shush" serif:id="1f92b_shush" x="0" y="0" width="32" height="32" style="fill:none;"/>
    <clipPath id="_clip1">
        <rect x="0" y="0" width="32" height="32"/>
    </clipPath>
    <g clip-path="url(#_clip1)">
        <path d="M18,28.385c-0.65,0.076 -1.317,0.115 -2,0.115c-8.1,0 -14,-5.5 -14,-12.5c0,-8.873 6.717,-14 14,-14c7.283,0 14,5.127 14,14c0,3.619 -1.577,6.838 -4.221,9.102c-0.865,0.742 -1.844,1.381 -2.92,1.898l3.641,0c0.398,-0 0.779,0.158 1.061,0.439c0.281,0.282 0.439,0.663 0.439,1.061c-0,0.398 -0.158,0.779 -0.439,1.061c-0.282,0.281 -0.663,0.439 -1.061,0.439l-0.5,0l0,0.5c0,0.315 -0.148,0.611 -0.4,0.8l-2.92,2.19c-0.441,0.331 -0.978,0.51 -1.53,0.51l-3.15,-0l-0,-5.615Z" style="fill:none;stroke:#000;stroke-width:4px;"/>
        <path d="M16,28.5c-8.1,0 -14,-5.5 -14,-12.5c0,-8.873 6.717,-14 14,-14c7.283,0 14,5.127 14,14c0,3.619 -1.577,6.838 -4.221,9.102c-0.248,-0.066 -9.779,3.398 -9.779,3.398Z" style="fill:#ffb636;"/>
        <path d="M16,28.5l0,-5.002c0,-1.932 1.566,-3.498 3.498,-3.498l0.004,0c1.932,-0 3.498,1.566 3.498,3.498l0,1.502l2,0c0.27,-0 0.531,0.036 0.779,0.102c-2.468,2.115 -5.867,3.398 -9.779,3.398Z" style="fill:#694300;"/>
        <path d="M8.543,6.448c0.414,0.717 1.72,0.739 2.915,0.049c1.195,-0.69 1.829,-1.832 1.415,-2.549c-0.414,-0.717 -1.72,-0.739 -2.915,-0.049c-1.195,0.689 -1.829,1.832 -1.415,2.549Z"/>
        <path d="M23.457,6.448c-0.414,0.717 -1.72,0.739 -2.915,0.049c-1.195,-0.69 -1.829,-1.832 -1.415,-2.549c0.414,-0.717 1.72,-0.739 2.915,-0.049c1.195,0.689 1.829,1.832 1.415,2.549Z"/>
        <rect x="17" y="7" width="11" height="12" style="fill:none;"/>
        <clipPath id="_clip2">
            <rect x="17" y="7" width="11" height="12"/>
        </clipPath>
        <g clip-path="url(#_clip2)">
            <ellipse cx="22.5" cy="13.5" rx="4.5" ry="5.5" style="fill:#fff;"/>
            <ellipse cx="21.5" cy="13.5" rx="2" ry="3.5"/>
        </g>
        <rect x="4" y="7" width="11" height="12" style="fill:none;"/>
        <clipPath id="_clip3">
            <rect x="4" y="7" width="11" height="12"/>
        </clipPath>
        <g clip-path="url(#_clip3)">
            <ellipse cx="9.5" cy="13.5" rx="4.5" ry="5.5" style="fill:#fff;"/>
            <ellipse cx="10.5" cy="13.5" rx="2" ry="3.5"/>
        </g>
        <path d="M18.766,24.162c0.153,-0.365 0.234,-0.759 0.234,-1.162l-0,-0.996c0,-0.795 -0.316,-1.558 -0.879,-2.121c-0.562,-0.563 -1.325,-0.879 -2.121,-0.879c-0.796,0 -1.559,0.316 -2.121,0.879c-0.563,0.563 -0.879,1.326 -0.879,2.121l-0,0.996c-0,0.403 0.081,0.797 0.234,1.162c0.553,-0.71 4.979,-0.71 5.532,-0Z"/>
        <path d="M13.234,24.162c0.149,0.355 0.367,0.682 0.645,0.959c0.562,0.563 1.325,0.879 2.121,0.879c0.796,-0 1.559,-0.316 2.121,-0.879c0.278,-0.277 0.496,-0.604 0.645,-0.959c-0.553,-0.71 -1.414,-1.158 -2.368,-1.158l-0.796,0c-0.954,0 -1.815,0.448 -2.368,1.158Z" style="fill:#c33700;"/>
        <path d="M28,28.5c-0,-0.398 -0.158,-0.779 -0.439,-1.061c-0.282,-0.281 -0.663,-0.439 -1.061,-0.439c-1.135,0 -2.5,0 -2.5,0l0,3l2.5,0c0.398,0 0.779,-0.158 1.061,-0.439c0.281,-0.282 0.439,-0.663 0.439,-1.061Z" style="fill:#ab6d00;"/>
        <path d="M18,23.498c0,-0.827 0.671,-1.498 1.498,-1.498c0.001,0 0.003,-0 0.004,0c0.827,-0 1.498,0.671 1.498,1.498c-0,1.473 -0,3.502 -0,3.502l4,-0c0.552,-0 1,0.448 1,1c-0,0.796 -0,1.877 -0,2.5c0,0.315 -0.148,0.611 -0.4,0.8c-0.683,0.512 -2.081,1.561 -2.92,2.19c-0.441,0.331 -0.978,0.51 -1.53,0.51c-1.175,-0 -3.15,-0 -3.15,-0l-0,-10.502Z" style="fill:#ffb636;"/>
    </g>
</svg>
