<?xml version="1.0" encoding="UTF-8" standalone="no"?>
<!DOCTYPE svg PUBLIC "-//W3C//DTD SVG 1.1//EN" "http://www.w3.org/Graphics/SVG/1.1/DTD/svg11.dtd">
<svg width="100%" height="100%" viewBox="0 0 32 32" version="1.1" xmlns="http://www.w3.org/2000/svg" xmlns:xlink="http://www.w3.org/1999/xlink" xml:space="preserve" xmlns:serif="http://www.serif.com/" style="fill-rule:evenodd;clip-rule:evenodd;stroke-linecap:round;stroke-linejoin:round;stroke-miterlimit:1.5;">
    <rect id="_1f978_disguised_face" serif:id="1f978_disguised_face" x="0" y="0" width="32" height="32" style="fill:none;"/>
    <clipPath id="_clip1">
        <rect x="0" y="0" width="32" height="32"/>
    </clipPath>
    <g clip-path="url(#_clip1)">
        <path d="M16,29.5c-8.1,0 -14,-5.5 -14,-12.5c0,-8.873 7.64,-14 14,-14c6.36,0 14,5.127 14,14c0,7 -5.9,12.5 -14,12.5Z" style="fill:none;stroke:#000;stroke-width:4px;"/>
        <path d="M16,29.5c-8.1,0 -14,-5.5 -14,-12.5c0,-8.873 7.64,-14 14,-14c6.36,0 14,5.127 14,14c0,7 -5.9,12.5 -14,12.5Z" style="fill:#ffb636;"/>
        <path d="M4.549,10.703c-0.265,0.14 -0.588,0.111 -0.825,-0.072c-0.237,-0.183 -0.345,-0.489 -0.277,-0.781c0.19,-0.88 0.411,-1.825 0.506,-2.228c0.032,-0.136 0.099,-0.261 0.195,-0.362c0.545,-0.533 2.471,-2.26 4.848,-2.26c2.815,0 5.004,0.72 5.004,3c0,2.28 -2.269,1.263 -5.004,1.263c-1.541,0 -3.249,0.769 -4.447,1.44Z"/>
        <path d="M27.451,10.703c0.265,0.14 0.588,0.111 0.825,-0.072c0.237,-0.183 0.345,-0.489 0.277,-0.781c-0.19,-0.88 -0.411,-1.825 -0.506,-2.228c-0.032,-0.136 -0.099,-0.261 -0.195,-0.362c-0.545,-0.533 -2.471,-2.26 -4.848,-2.26c-2.815,0 -5.004,0.72 -5.004,3c0,2.28 2.269,1.263 5.004,1.263c1.541,0 3.249,0.769 4.447,1.44Z"/>
        <path d="M21,25.263c0.265,0 0.52,-0.105 0.707,-0.293c0.188,-0.187 0.293,-0.442 0.293,-0.707c-0,-0.936 -0,-2.327 -0,-3.263c-0,-0.265 -0.105,-0.52 -0.293,-0.707c-0.187,-0.188 -0.442,-0.293 -0.707,-0.293c-2.26,0 -7.74,0 -10,0c-0.265,-0 -0.52,0.105 -0.707,0.293c-0.188,0.187 -0.293,0.442 -0.293,0.707c-0,0.936 -0,2.327 -0,3.263c0,0.265 0.105,0.52 0.293,0.707c0.187,0.188 0.442,0.293 0.707,0.293c2.26,0 7.74,0 10,0Z"/>
        <path d="M6,14l-4,0" style="fill:none;stroke:#595040;stroke-width:1.5px;"/>
        <path d="M30,14l-4,0" style="fill:none;stroke:#595040;stroke-width:1.5px;"/>
        <path d="M18,13.5l-4,0" style="fill:none;stroke:#595040;stroke-width:1.5px;"/>
        <circle cx="9.5" cy="14.5" r="5.5" style="fill:#fff;stroke:#595040;stroke-width:1.5px;"/>
        <circle cx="22.5" cy="14.5" r="5.5" style="fill:#fff;stroke:#595040;stroke-width:1.5px;"/>
        <ellipse cx="21.5" cy="14.5" rx="2" ry="2.5"/>
        <ellipse cx="10.5" cy="14.5" rx="2" ry="2.5"/>
        <path d="M17.342,14.683c-0.254,-0.508 -0.774,-0.829 -1.342,-0.829c-0.568,0 -1.088,0.321 -1.342,0.829c-0.805,1.612 -1.817,3.636 -2.573,5.146c-0.232,0.465 -0.207,1.017 0.066,1.46c0.273,0.442 0.756,0.711 1.276,0.711c1.562,0 3.584,0 5.146,-0c0.52,-0 1.003,-0.269 1.276,-0.711c0.273,-0.443 0.298,-0.995 0.066,-1.46c-0.756,-1.51 -1.768,-3.534 -2.573,-5.146Z" style="fill:#ab5e03;"/>
    </g>
</svg>
