<?xml version="1.0" encoding="UTF-8" standalone="no"?>
<!DOCTYPE svg PUBLIC "-//W3C//DTD SVG 1.1//EN" "http://www.w3.org/Graphics/SVG/1.1/DTD/svg11.dtd">
<svg width="100%" height="100%" viewBox="0 0 32 32" version="1.1" xmlns="http://www.w3.org/2000/svg" xmlns:xlink="http://www.w3.org/1999/xlink" xml:space="preserve" xmlns:serif="http://www.serif.com/" style="fill-rule:evenodd;clip-rule:evenodd;stroke-linecap:round;stroke-linejoin:round;stroke-miterlimit:1.5;">
    <rect id="_1f975_hot" serif:id="1f975_hot" x="0" y="0" width="32" height="32" style="fill:none;"/>
    <clipPath id="_clip1">
        <rect x="0" y="0" width="32" height="32"/>
    </clipPath>
    <g clip-path="url(#_clip1)">
        <path d="M29.404,14.576c0.394,1.434 0.596,2.929 0.596,4.424c0,5.323 -5.9,10.6 -14,10.6c-8.1,-0 -14,-5.277 -14,-10.6c0,-7.506 5.091,-15 14,-15c1.206,0 2.342,0.137 3.404,0.393l1.596,-2.393l2.59,3.885c0.114,0.171 0.209,0.349 0.285,0.533c0.811,0.574 1.546,1.236 2.203,1.966l0.922,-1.384l2.59,3.885c0.764,1.146 0.675,2.646 -0.186,3.691Z" style="fill:none;stroke:#000;stroke-width:4px;"/>
        <path d="M2.13,16.919c0.846,-6.75 5.786,-12.919 13.87,-12.919c8.084,0 13.024,6.169 13.87,12.919c-0.655,-0.374 -27.085,-0.374 -27.74,0Z" style="fill:#f40000;"/>
        <path d="M29.87,16.919c0.086,0.69 0.13,1.385 0.13,2.081c0,5.323 -5.9,10.6 -14,10.6c-8.1,0 -14,-5.277 -14,-10.6c-0,-0.696 0.044,-1.391 0.13,-2.081c0.655,-0.374 3.961,-1.919 13.87,-1.919c9.909,0 13.215,1.545 13.87,1.919Z" style="fill:#ff662a;"/>
        <path d="M28,14l-11,-4l0,12l11,-0l0,-8Z" style="fill:none;"/>
        <clipPath id="_clip2">
            <path d="M28,14l-11,-4l0,12l11,-0l0,-8Z"/>
        </clipPath>
        <g clip-path="url(#_clip2)">
            <path d="M23.38,12.805c2.461,0.66 3.929,3.176 3.275,5.615c-0.654,2.44 -3.183,3.885 -5.644,3.226c-2.461,-0.66 -3.929,-3.176 -3.275,-5.616c0.654,-2.439 3.183,-3.884 5.644,-3.225Z" style="fill:#fff;"/>
            <circle cx="22.5" cy="19" r="2"/>
        </g>
        <path d="M4,14l11,-4l0,12l-11,-0l0,-8Z" style="fill:none;"/>
        <clipPath id="_clip3">
            <path d="M4,14l11,-4l0,12l-11,-0l0,-8Z"/>
        </clipPath>
        <g clip-path="url(#_clip3)">
            <path d="M8.62,12.805c-2.461,0.66 -3.929,3.176 -3.275,5.615c0.654,2.44 3.183,3.885 5.644,3.226c2.461,-0.66 3.929,-3.176 3.275,-5.616c-0.654,-2.439 -3.183,-3.884 -5.644,-3.225Z" style="fill:#fff;"/>
            <circle cx="9.5" cy="19" r="2"/>
        </g>
        <path d="M11.657,26.998c-0.459,-0.022 -0.87,-0.3 -1.062,-0.722c-0.2,-0.441 -0.124,-0.958 0.195,-1.322l0.494,-0.564c1.19,-1.36 2.909,-2.14 4.716,-2.14c1.807,0 3.526,0.78 4.716,2.14l0.494,0.564c0.319,0.364 0.395,0.881 0.195,1.322c-0.192,0.422 -0.603,0.7 -1.062,0.722c-1.163,-1.117 -7.523,-1.117 -8.686,0Z"/>
        <path d="M11.657,26.998c1.163,-1.117 2.717,-1.748 4.343,-1.748c1.626,0 3.18,0.631 4.343,1.748c-0.021,0.001 -0.041,0.002 -0.061,0.002l-8.564,0c-0.02,0 -0.04,-0.001 -0.061,-0.002Z" style="fill:#d73737;"/>
        <path d="M21,2c0,0 -1.438,2.157 -2.589,3.884c-0.821,1.23 -0.658,2.869 0.387,3.914c0.001,0.001 0.001,0.001 0.001,0.001c0.584,0.584 1.376,0.912 2.201,0.912c0.825,-0 1.617,-0.328 2.201,-0.912c0,-0 0.001,-0.001 0.002,-0.002c1.045,-1.045 1.207,-2.682 0.387,-3.912c-1.151,-1.727 -2.59,-3.885 -2.59,-3.885Z" style="fill:#3fa7ff;"/>
        <path d="M27,7c0,0 -1.438,2.157 -2.589,3.884c-0.821,1.23 -0.658,2.869 0.387,3.914c0.001,0.001 0.001,0.001 0.001,0.001c0.584,0.584 1.376,0.912 2.201,0.912c0.825,-0 1.617,-0.328 2.201,-0.912c0,-0 0.001,-0.001 0.002,-0.002c1.045,-1.045 1.207,-2.682 0.387,-3.912c-1.151,-1.727 -2.59,-3.885 -2.59,-3.885Z" style="fill:#3fa7ff;"/>
    </g>
</svg>
