<?xml version="1.0" encoding="UTF-8" standalone="no"?>
<!DOCTYPE svg PUBLIC "-//W3C//DTD SVG 1.1//EN" "http://www.w3.org/Graphics/SVG/1.1/DTD/svg11.dtd">
<svg width="100%" height="100%" viewBox="0 0 32 32" version="1.1" xmlns="http://www.w3.org/2000/svg" xmlns:xlink="http://www.w3.org/1999/xlink" xml:space="preserve" xmlns:serif="http://www.serif.com/" style="fill-rule:evenodd;clip-rule:evenodd;stroke-linecap:round;stroke-linejoin:round;stroke-miterlimit:1.5;">
    <rect id="_1f976_cold" serif:id="1f976_cold" x="0" y="0" width="32" height="32" style="fill:none;"/>
    <clipPath id="_clip1">
        <rect x="0" y="0" width="32" height="32"/>
    </clipPath>
    <g clip-path="url(#_clip1)">
        <g id="outline">
            <path d="M2.053,16.858c-0.035,-0.369 -0.053,-0.743 -0.053,-1.122c0,-8.706 7.64,-13.736 14,-13.736c6.36,0 14,5.03 14,13.736c0,1.69 -0.358,3.292 -1.017,4.746c-0.091,1.802 -0.47,3.412 -1.132,4.833c-0.064,0.132 -0.199,0.216 -0.346,0.214c-0.148,-0.001 -0.281,-0.087 -0.343,-0.22c-0.208,-0.461 -0.388,-0.934 -0.54,-1.419c-1.041,1.052 -2.294,1.938 -3.716,2.616c-0.184,1.116 -0.539,2.549 -1.162,3.263c-0.14,0.131 -0.355,0.136 -0.5,0.011c-0.477,-0.506 -0.803,-1.409 -1.007,-2.307c-1.322,0.343 -2.742,0.527 -4.237,0.527c-3.216,0 -6.085,-0.851 -8.375,-2.306c-0.181,0.634 -0.428,1.234 -0.766,1.785c-0.073,0.114 -0.201,0.181 -0.337,0.175c-0.135,-0.006 -0.257,-0.084 -0.319,-0.204c-0.469,-0.917 -0.816,-1.895 -1.076,-2.916c-0.066,-0.261 0.007,-0.529 0.177,-0.72c-0.523,-0.536 -0.991,-1.115 -1.398,-1.73c-0.014,0.034 -0.028,0.068 -0.042,0.102c-0.06,0.143 -0.2,0.235 -0.355,0.233c-0.155,-0.001 -0.293,-0.096 -0.35,-0.24c-0.563,-1.474 -0.948,-3.152 -1.145,-5.044c-0.01,-0.095 0.003,-0.19 0.039,-0.277Z" style="fill:none;stroke:#000;stroke-width:4px;"/>
        </g>
        <path d="M5.127,24.534c-0.093,-0.371 0.092,-0.756 0.441,-0.914c0.253,-0.069 0.562,-0.15 0.932,-0.15c0.396,-0 0.723,0.093 0.97,0.201c0.308,0.149 0.479,0.486 0.416,0.823c-0.173,1.08 -0.482,2.096 -1.027,2.985c-0.073,0.114 -0.201,0.181 -0.337,0.175c-0.135,-0.006 -0.257,-0.084 -0.319,-0.204c-0.469,-0.917 -0.816,-1.895 -1.076,-2.916Zm14.906,1.766c-0.023,-0.197 0.068,-0.391 0.234,-0.5c0.259,-0.13 0.676,-0.3 1.233,-0.3c0.543,0 0.954,0.161 1.206,0.301c0.173,0.11 0.264,0.312 0.231,0.514c-0.175,1.138 -0.534,2.699 -1.193,3.454c-0.14,0.131 -0.355,0.136 -0.5,0.011c-0.691,-0.734 -1.066,-2.301 -1.211,-3.48Z" style="fill:#fff;"/>
        <path d="M2.298,18.36c-0.196,-0.843 -0.298,-1.721 -0.298,-2.624c0,-8.706 7.64,-13.736 14,-13.736c6.36,-0 14,5.03 14,13.736c0,0.903 -0.102,1.781 -0.298,2.624c-0.985,-1.897 -26.419,-1.897 -27.404,-0Z" style="fill:#30a6ff;"/>
        <path d="M29.702,18.36c-1.292,5.57 -6.667,9.64 -13.702,9.64c-7.035,-0 -12.41,-4.07 -13.702,-9.64c0.985,-1.897 4.612,-7.36 13.702,-7.36c9.09,-0 12.717,5.463 13.702,7.36Z" style="fill:#76c9ff;"/>
        <path d="M8.293,5.449c0.215,0.8 1.471,1.159 2.804,0.802c1.332,-0.357 2.24,-1.296 2.026,-2.096c-0.214,-0.799 -1.47,-1.159 -2.803,-0.801c-1.333,0.357 -2.241,1.296 -2.027,2.095Z"/>
        <path d="M23.707,5.449c-0.215,0.8 -1.471,1.159 -2.804,0.802c-1.332,-0.357 -2.24,-1.296 -2.026,-2.096c0.214,-0.799 1.47,-1.159 2.803,-0.801c1.333,0.357 2.241,1.296 2.027,2.095Z"/>
        <path d="M19.312,16c-0.515,-0.653 -0.92,-1.444 -1.159,-2.335c-0.785,-2.932 0.525,-5.835 2.923,-6.478c2.399,-0.642 4.985,1.216 5.771,4.148c0.459,1.714 0.202,3.417 -0.569,4.665l-6.966,-0Zm-13.59,-0c-0.771,-1.248 -1.028,-2.951 -0.569,-4.665c0.786,-2.932 3.372,-4.79 5.771,-4.148c2.398,0.643 3.708,3.546 2.923,6.478c-0.239,0.891 -0.644,1.682 -1.159,2.335l-6.966,-0Z" style="fill:#fff;"/>
        <path d="M21.5,10.5c1.104,-0 2,0.896 2,2c0,1.104 -0.896,2 -2,2c-1.104,0 -2,-0.896 -2,-2c0,-1.104 0.896,-2 2,-2Zm-11,-0c1.104,-0 2,0.896 2,2c-0,1.104 -0.896,2 -2,2c-1.104,0 -2,-0.896 -2,-2c-0,-1.104 0.896,-2 2,-2Z"/>
        <path d="M28.995,20.189c-0.063,1.92 -0.446,3.628 -1.144,5.126c-0.064,0.132 -0.199,0.216 -0.346,0.214c-0.148,-0.001 -0.281,-0.087 -0.343,-0.22c-0.706,-1.564 -1.09,-3.271 -1.149,-5.12c-0.004,-0.121 0.049,-0.236 0.143,-0.312c0.218,-0.148 0.666,-0.377 1.344,-0.377c0.679,0 1.127,0.23 1.35,0.371c0.096,0.077 0.149,0.195 0.145,0.318Zm-26.981,-3.054c-0.013,-0.116 0.011,-0.234 0.067,-0.336c0.2,-0.287 0.638,-0.827 1.419,-0.799c1.035,0.038 1.363,0.591 1.461,0.858c0.015,0.058 0.021,0.118 0.016,0.178c-0.109,1.792 -0.447,3.52 -1.113,5.15c-0.06,0.143 -0.2,0.235 -0.355,0.233c-0.155,-0.001 -0.293,-0.096 -0.35,-0.24c-0.563,-1.474 -0.948,-3.152 -1.145,-5.044Z" style="fill:#fff;"/>
        <path d="M23.115,22c1.368,-0.058 1.015,1.175 0.804,2.042c-0.136,0.109 -0.283,0.204 -0.442,0.282c-0.596,0.291 -1.287,0.317 -1.902,0.07c-1.36,-0.462 -3.251,-0.894 -5.575,-0.894c-2.324,-0 -4.215,0.432 -5.555,0.943c-0.63,0.252 -1.336,0.226 -1.945,-0.073c-0.153,-0.074 -0.296,-0.165 -0.427,-0.268c-0.5,-1.337 -0.299,-2.242 0.812,-2.102l6.959,-0.537l7.271,0.537Zm-14.23,-1c-1.312,0.419 -1.564,0.036 -0.611,-1.17c0.249,-0.211 0.568,-0.33 0.901,-0.33l13.65,-0c0.333,0 0.652,0.119 0.901,0.33c0.277,0.595 0.021,0.995 -0.611,1.17l-7.299,0.593l-6.931,-0.593Z" style="fill:#fff;"/>
        <path d="M23.115,21c-0.277,0.302 -0.277,0.698 -0,1l-14.23,-0c0.277,-0.302 0.277,-0.698 0,-1l14.23,0Zm-14.841,-1.17c-0.456,0.052 -0.513,-0.332 -0.217,-1.053c0.34,-0.179 0.723,-0.277 1.118,-0.277l13.65,-0c0.395,0 0.778,0.098 1.118,0.277c0.295,0.646 0.315,1.105 -0.217,1.053c-0.249,-0.211 -0.568,-0.33 -0.901,-0.33l-13.65,0c-0.333,0 -0.652,0.119 -0.901,0.33Z" style="fill:#b3b3b3;"/>
        <path d="M8.057,18.777c0.129,1.031 0.553,2.723 1.943,2.723c-1.337,0 -1.78,1.565 -1.927,2.602c-0.393,-0.309 -0.682,-0.736 -0.822,-1.224l-0.379,-1.325c-0.206,-0.723 -0.061,-1.5 0.391,-2.1c0.215,-0.285 0.487,-0.514 0.794,-0.676Zm13.943,2.723c1.39,0 1.814,-1.692 1.943,-2.723c0.307,0.162 0.579,0.391 0.794,0.676c0.452,0.6 0.597,1.377 0.391,2.1c-0.126,0.442 -0.255,0.893 -0.43,1.311c-0.133,0.467 -0.408,0.877 -0.779,1.178c-0.156,-1.036 -0.607,-2.542 -1.919,-2.542Z" style="fill:#004b62;"/>
    </g>
</svg>
