<?xml version="1.0" encoding="UTF-8" standalone="no"?>
<!DOCTYPE svg PUBLIC "-//W3C//DTD SVG 1.1//EN" "http://www.w3.org/Graphics/SVG/1.1/DTD/svg11.dtd">
<svg width="100%" height="100%" viewBox="0 0 32 32" version="1.1" xmlns="http://www.w3.org/2000/svg" xmlns:xlink="http://www.w3.org/1999/xlink" xml:space="preserve" xmlns:serif="http://www.serif.com/" style="fill-rule:evenodd;clip-rule:evenodd;stroke-linecap:round;stroke-linejoin:round;stroke-miterlimit:1.5;">
    <rect id="_1fae1_saluting_face" serif:id="1fae1_saluting_face" x="0" y="0" width="32" height="32" style="fill:none;"/>
    <clipPath id="_clip1">
        <rect x="0" y="0" width="32" height="32"/>
    </clipPath>
    <g clip-path="url(#_clip1)">
        <path d="M-5.574,15.064c-0.259,-0.646 -0.107,-1.383 0.384,-1.874c0.692,-0.692 1.682,-1.682 2.375,-2.375c0.54,-0.54 1.163,-0.989 1.846,-1.33c1.051,-0.526 2.73,-1.366 4.176,-2.089c1.81,-0.905 3.87,-1.181 5.855,-0.784c0.301,0.061 0.591,0.119 0.85,0.17c0.633,0.127 1.088,0.682 1.088,1.327c0,0.019 0,0.037 0,0.055c-0,0.512 -0.29,0.981 -0.748,1.21c-1.439,0.72 -4.452,2.226 -4.452,2.226c-0,0 0.147,0.295 0.329,0.659c0.178,0.355 0.207,0.767 0.081,1.145c-0.126,0.377 -0.396,0.689 -0.752,0.867c-1.965,0.982 -5.624,2.812 -7.769,3.884c-0.435,0.218 -0.94,0.243 -1.395,0.07c-0.454,-0.172 -0.815,-0.527 -0.995,-0.978c-0.291,-0.728 -0.62,-1.549 -0.873,-2.183Z" style="fill:none;stroke:#000;stroke-width:4px;"/>
        <path d="M22,30c-7.521,-0 -13,-4.981 -13,-11.321c0,-8.036 6.684,-12.679 13,-12.679c6.316,0 13,4.643 13,12.679c0,6.34 -5.479,11.321 -13,11.321Z" style="fill:none;stroke:#000;stroke-width:4px;"/>
        <path d="M22,30c-7.521,-0 -13,-4.981 -13,-11.321c0,-8.036 6.684,-12.679 13,-12.679c6.316,0 13,4.643 13,12.679c0,6.34 -5.479,11.321 -13,11.321Z" style="fill:#ffb636;"/>
        <path d="M18,23l8,0" style="fill:none;stroke:#694300;stroke-width:2px;"/>
        <ellipse cx="27.5" cy="15.25" rx="2" ry="3.25"/>
        <ellipse cx="16.5" cy="15.25" rx="2" ry="3.25"/>
        <path d="M-5.574,15.064c-0.259,-0.646 -0.107,-1.383 0.384,-1.874c0.692,-0.692 1.682,-1.682 2.375,-2.375c0.54,-0.54 1.163,-0.989 1.846,-1.33c1.051,-0.526 2.73,-1.366 4.176,-2.089c1.81,-0.905 3.87,-1.181 5.855,-0.784c0.301,0.061 0.591,0.119 0.85,0.17c0.633,0.127 1.088,0.682 1.088,1.327c0,0.019 0,0.037 0,0.055c-0,0.512 -0.29,0.981 -0.748,1.21c-1.439,0.72 -4.452,2.226 -4.452,2.226c-0,0 0.147,0.295 0.329,0.659c0.178,0.355 0.207,0.767 0.081,1.145c-0.126,0.377 -0.396,0.689 -0.752,0.867c-1.965,0.982 -5.624,2.812 -7.769,3.884c-0.435,0.218 -0.94,0.243 -1.395,0.07c-0.454,-0.172 -0.815,-0.527 -0.995,-0.978c-0.291,-0.728 -0.62,-1.549 -0.873,-2.183Z" style="fill:#ffb636;"/>
    </g>
</svg>
