<?xml version="1.0" encoding="UTF-8" standalone="no"?>
<!DOCTYPE svg PUBLIC "-//W3C//DTD SVG 1.1//EN" "http://www.w3.org/Graphics/SVG/1.1/DTD/svg11.dtd">
<svg width="100%" height="100%" viewBox="0 0 32 32" version="1.1" xmlns="http://www.w3.org/2000/svg" xmlns:xlink="http://www.w3.org/1999/xlink" xml:space="preserve" xmlns:serif="http://www.serif.com/" style="fill-rule:evenodd;clip-rule:evenodd;stroke-linejoin:round;stroke-miterlimit:2;">
    <rect id="fist--hoof-" serif:id="fist [hoof]" x="0" y="0" width="32" height="32" style="fill:none;"/>
    <g id="outline">
        <path d="M16.5,4.43c0.157,-0.155 0.324,-0.298 0.501,-0.431c0.911,-0.683 2.047,-1.038 3.185,-0.996c0.582,0.022 1.16,0.146 1.699,0.366c0.578,0.235 1.11,0.579 1.562,1.009c0.475,0.452 0.859,0.997 1.124,1.597c0.282,0.635 0.427,1.324 0.429,2.019c0,0.002 0,0.004 0,0.006l0,3l0.002,0c1.326,0 2.597,0.527 3.534,1.464c0.937,0.937 1.464,2.208 1.464,3.534c0,0.319 0,0.654 0,1.002c0,6.627 -5.373,12 -12,12l-4,0c-3.448,0 -6.754,-1.37 -9.192,-3.808c-2.438,-2.438 -3.808,-5.744 -3.808,-9.192l0,-5.002c0,-1.326 0.527,-2.597 1.464,-3.534c0.937,-0.937 2.208,-1.464 3.534,-1.464l0.004,0c0.778,0 1.538,0.182 2.222,0.523c0.024,-0.08 0.051,-0.159 0.079,-0.238c0.164,-0.449 0.393,-0.875 0.678,-1.26c0.288,-0.389 0.633,-0.735 1.02,-1.026c0.911,-0.683 2.047,-1.038 3.185,-0.996c0.582,0.022 1.16,0.146 1.699,0.366c0.578,0.235 1.11,0.579 1.562,1.009l0.053,0.052Z"/>
    </g>
    <g id="emoji">
        <path d="M3,12l4,-1l2,1l0,1l1,0l0,-1l2,-1l4,2l7,1l2.002,-1c0.795,0 1.558,0.316 2.12,0.878c0.562,0.562 0.878,1.325 0.878,2.12c0,0.319 0,0.654 0,1.002c0,5.523 -4.477,10 -10,10l-4,0c-2.917,0 -5.715,-1.159 -7.778,-3.222c-2.063,-2.063 -3.222,-4.861 -3.222,-7.778l0,-4Z" style="fill:#f10dc3;"/>
        <path d="M15.999,12c-0.025,2.045 -0.427,4.069 -1.187,5.969c-0.43,1.076 -0.812,2.031 -0.812,2.031c0,0 0,0 0,0c-2.168,-2.168 -3.531,-4.989 -3.899,-8l-0.101,0l0,-4.002c0,-0.795 0.316,-1.558 0.878,-2.12c0.562,-0.562 1.325,-0.878 2.12,-0.878l0.004,0c0.795,0 1.558,0.316 2.12,0.878c0.562,0.562 0.878,1.325 0.878,2.12l0,4.002l-0.001,0Zm-6.999,0.317c0,1.119 -0.111,2.236 -0.33,3.334c-0.291,1.456 -0.67,3.349 -0.67,3.349c0,0 -1.516,-1.516 -2.879,-2.879c-1.12,-1.12 -1.836,-2.57 -2.052,-4.121l-0.069,0l0,-1.002c0,-1.656 1.342,-2.998 2.998,-2.998l0.004,0c1.656,0 2.998,1.342 2.998,2.998l0,1.319Zm11.002,-7.317c0.795,0 1.558,0.316 2.12,0.878c0.562,0.562 0.878,1.325 0.878,2.12l0,3.002l-1,2l-2,1l-3,-1c0,0 0,-2.731 0,-5.002c0,-0.795 0.316,-1.558 0.878,-2.12c0.562,-0.562 1.325,-0.878 2.12,-0.878l0.004,0Z" style="fill:#ff80b7;"/>
        <path d="M23,11l0,2l-0.802,0c-2.113,0 -4.206,0.403 -6.167,1.188c-1.076,0.43 -2.031,0.812 -2.031,0.812l0.015,0.03c1.26,2.497 3.636,4.245 6.396,4.705c0.906,0.151 1.589,0.265 1.589,0.265l0,2c-0.109,0 -0.219,-0.009 -0.329,-0.027c0,0 -0.683,-0.114 -1.589,-0.265c-3.389,-0.565 -6.305,-2.711 -7.853,-5.777l-0.018,-0.037c-0.25,-0.5 -0.279,-1.082 -0.08,-1.605c0.198,-0.523 0.607,-0.938 1.126,-1.146c0,0 0.956,-0.382 2.031,-0.812c2.198,-0.879 4.543,-1.331 6.91,-1.331l0.802,0Z" style="fill:#640082;"/>
        <path d="M14,15c0,0 0,0 0,0c1.257,2.513 3.64,4.273 6.411,4.735c0.906,0.151 1.589,0.265 1.589,0.265l3,-7l-2.802,0c-2.113,0 -4.206,0.403 -6.167,1.188c-1.076,0.43 -2.031,0.812 -2.031,0.812Z" style="fill:#ff80b7;"/>
    </g>
</svg>
