<?xml version="1.0" encoding="UTF-8" standalone="no"?>
<!DOCTYPE svg PUBLIC "-//W3C//DTD SVG 1.1//EN" "http://www.w3.org/Graphics/SVG/1.1/DTD/svg11.dtd">
<svg width="100%" height="100%" viewBox="0 0 32 32" version="1.1" xmlns="http://www.w3.org/2000/svg" xmlns:xlink="http://www.w3.org/1999/xlink" xml:space="preserve" xmlns:serif="http://www.serif.com/" style="fill-rule:evenodd;clip-rule:evenodd;stroke-linejoin:round;stroke-miterlimit:2;">
    <rect id="metal--hoof-" serif:id="metal [hoof]" x="0" y="0" width="32" height="32" style="fill:none;"/>
    <clipPath id="_clip1">
        <rect x="0" y="0" width="32" height="32"/>
    </clipPath>
    <g clip-path="url(#_clip1)">
        <g id="outline">
            <path d="M17.791,10.738l0.246,-0.823c0.743,-2.476 1.792,-4.851 3.123,-7.069c0.606,-1.01 1.125,-1.875 1.125,-1.875c0.361,-0.602 1.012,-0.971 1.715,-0.971c0.703,0 1.354,0.369 1.715,0.971c0,0 0,0 0,0c2.201,3.668 2.754,8.092 1.525,12.188l-0.362,1.207c0.615,0.249 1.18,0.62 1.658,1.098c0.937,0.937 1.464,2.208 1.464,3.534c0,0.319 0,0.654 0,1.002c0,3.183 -1.264,6.235 -3.515,8.485c-2.25,2.251 -5.302,3.515 -8.485,3.515c0,0 -3,0 -3,0c-3.448,0 -6.754,-1.37 -9.192,-3.808c-2.438,-2.438 -3.808,-5.744 -3.808,-9.192l0,-2.675l-0.152,-0.457c-1.292,-3.877 -0.826,-8.125 1.277,-11.63c0.101,-0.169 0.16,-0.267 0.16,-0.267c0.361,-0.602 1.012,-0.971 1.715,-0.971c0.703,0 1.354,0.369 1.715,0.971c0,0 1.162,1.937 2.04,3.4c0.62,1.034 1.14,2.124 1.554,3.255c0.05,-0.055 0.102,-0.109 0.155,-0.162c0.937,-0.937 2.208,-1.464 3.534,-1.464l0.004,0c1.326,0 2.597,0.527 3.534,1.464c0.089,0.088 0.173,0.18 0.255,0.274Z"/>
        </g>
        <g id="emoji">
            <path d="M25,16c1.657,0 3,1.343 3,3c0,0.318 0,0.653 0,1c0,2.652 -1.054,5.196 -2.929,7.071c-1.875,1.875 -4.419,2.929 -7.071,2.929l-3,0c-2.917,0 -5.715,-1.159 -7.778,-3.222c-2.063,-2.063 -3.222,-4.861 -3.222,-7.778c0,-1.751 0,-3 0,-3l-0.087,-0.261l2.087,-1.739l3.391,0.174l0.609,1.826l8.3,0l0.636,-2.119l3.064,-0.881l2,2.075l0,1.925l1,-1Z" style="fill:#f10dc3;"/>
            <path d="M16.986,16c-0.036,0.89 -0.141,1.776 -0.316,2.651c-0.291,1.456 -0.67,3.349 -0.67,3.349c0,0 -0.282,-0.169 -0.713,-0.428c-2.076,-1.245 -3.522,-3.269 -4.058,-5.572l-0.229,0c0,0 0,-0.938 0,-2.002c0,-1.656 1.342,-2.998 2.998,-2.998l0.004,0c1.656,0 2.998,1.342 2.998,2.998l0,2.002l-0.014,0Zm-13.073,-0.261l-0.168,-0.503c-1.107,-3.323 -0.708,-6.965 1.095,-9.969c0.101,-0.169 0.16,-0.267 0.16,-0.267c0,0 1.162,1.937 2.04,3.4c0.638,1.063 1.158,2.194 1.55,3.37l0.801,2.404l-5.478,1.565Zm20.098,-13.72c1.902,3.181 2.379,7.015 1.314,10.566l-0.425,1.415l-0.9,1.4l-5.064,-1.519l1.017,-3.391c0.695,-2.318 1.677,-4.54 2.922,-6.615c0.606,-1.01 1.125,-1.875 1.125,-1.875l0.011,0.019Z" style="fill:#ff80b7;"/>
            <path d="M24.9,14l-0.6,2l-2.3,7l0,2c-0.109,0 -0.219,-0.009 -0.329,-0.027c0,0 -0.683,-0.114 -1.589,-0.265c-3.389,-0.565 -6.305,-2.711 -7.853,-5.777l-0.018,-0.037c-0.25,-0.5 -0.279,-1.082 -0.08,-1.605c0.198,-0.523 0.607,-0.938 1.126,-1.146c0,0 0.956,-0.382 2.031,-0.812c2.198,-0.879 4.543,-1.331 6.91,-1.331l2.702,0Z" style="fill:#640082;"/>
            <path d="M14,18c0,0 0,0 0,0c1.257,2.513 3.64,4.273 6.411,4.735c0.906,0.151 1.589,0.265 1.589,0.265l3,-7l-2.802,0c-2.113,0 -4.206,0.403 -6.167,1.188c-1.076,0.43 -2.031,0.812 -2.031,0.812Z" style="fill:#ff80b7;"/>
        </g>
    </g>
</svg>
