<?xml version="1.0" encoding="UTF-8" standalone="no"?>
<!DOCTYPE svg PUBLIC "-//W3C//DTD SVG 1.1//EN" "http://www.w3.org/Graphics/SVG/1.1/DTD/svg11.dtd">
<svg width="100%" height="100%" viewBox="0 0 32 32" version="1.1" xmlns="http://www.w3.org/2000/svg" xmlns:xlink="http://www.w3.org/1999/xlink" xml:space="preserve" xmlns:serif="http://www.serif.com/" style="fill-rule:evenodd;clip-rule:evenodd;stroke-linejoin:round;stroke-miterlimit:2;">
    <rect id="nail_polish--hoof-" serif:id="nail_polish [hoof]" x="0" y="0" width="32" height="32" style="fill:none;"/>
    <clipPath id="_clip1">
        <rect x="0" y="0" width="32" height="32"/>
    </clipPath>
    <g clip-path="url(#_clip1)">
        <g id="outline">
            <path d="M16,11c0,-0.758 0.428,-1.45 1.106,-1.789c0,0 0.379,-0.189 0.807,-0.404c0.387,-0.193 0.701,-0.507 0.894,-0.894c0.59,-1.179 1.404,-2.807 1.404,-2.807c0.391,-0.782 1.225,-1.196 2.045,-1.09l2.008,-4.016c2.157,0 4.315,0 6.472,0l-3.302,6.605c0.577,0.593 0.746,1.508 0.355,2.289c0,0 -0.814,1.629 -1.404,2.808c-0.58,1.161 -1.522,2.103 -2.683,2.683c-0.428,0.214 -0.808,0.404 -0.808,0.404c-0.563,0.281 -1.225,0.281 -1.788,0l-0.125,-0.062c0.001,0.008 0.003,0.017 0.004,0.025c0,0 0.055,0.443 0.055,0.443c0.168,1.342 0.179,2.684 0.04,4.003l0.288,-0.095c0.503,-0.168 1.054,-0.129 1.528,0.109c0.475,0.238 0.836,0.655 1.003,1.16c0,0 0.021,0.064 0.023,0.069c1.26,3.837 1.121,7.913 -0.259,11.559l-23.663,0l0,-17.828c3.379,-3.326 8.096,-4.926 12.805,-4.337c0.856,0.107 1.443,0.18 1.443,0.18c0.645,0.081 1.181,0.461 1.484,0.985l0.268,0Z"/>
        </g>
        <g id="emoji">
            <g>
                <path d="M2,24.638l5.979,-5.814l1.186,-0.402l1.835,1.578l-9,9l0,-4.362Z" style="fill:#640082;"/>
                <path d="M2,15.044c0.808,-0.705 1.691,-1.306 2.628,-1.794c-0.149,0.847 2.937,3.745 4.872,5.46c-0.336,0.336 -1.024,0.401 -1.391,0.768c-1.827,1.826 -3.998,3.997 -6.109,6.108l0,-10.542Z" style="fill:#ff80b7;"/>
                <path d="M8.109,19.478c-1.163,-0.461 -2.154,-1.302 -2.799,-2.407c-0.678,-1.165 -0.911,-2.521 -0.682,-3.821c2.408,-1.258 5.17,-1.775 7.929,-1.43c0.856,0.107 1.443,0.18 1.443,0.18c0,0 -0.117,1.287 -0.238,2.616c-0.006,0.064 -0.012,0.129 -0.02,0.193c-0.472,0.547 -4.696,4.438 -5.633,4.669Z" style="fill:#1ec6b2;"/>
                <path d="M13.742,14.809c-0.206,1.791 -1.013,3.462 -2.29,4.739l-0.452,0.452l-1.433,-0.159c-0.506,-0.056 -0.996,-0.18 -1.458,-0.363c1.036,-1.036 1.961,-1.961 2.701,-2.701c0.819,-0.819 1.818,-1.491 2.932,-1.968Z" style="fill:#086558;"/>
            </g>
            <g>
                <path d="M8.441,30l4.559,-4l1.062,-0.476c0.708,0.333 1.378,0.523 1.935,0.476c0.002,0 0.003,0 0.003,0c0,0 -0.076,1.076 -1.385,2.385l-1.615,1.615l-4.559,0Z" style="fill:#640082;"/>
                <path d="M2,27l6.335,-6.335c0.18,0.651 3.2,3.67 5.727,4.859l-4.476,4.476l-7.586,0l0,-3Z" style="fill:#ff80b7;"/>
                <path d="M13.747,25.839c-1.695,-0.39 -3.223,-1.378 -4.276,-2.824c-0.525,-0.72 -0.905,-1.517 -1.136,-2.35l3.095,-3.095c1.646,-1.646 3.877,-2.57 6.204,-2.57c0.775,0 1.366,0 1.366,0c0,0 0.02,0.163 0.055,0.443c0.253,2.019 0.104,4.04 -0.409,5.958c-0.356,0.733 -3.21,3.795 -4.899,4.438Z" style="fill:#1ec6b2;"/>
                <path d="M18.646,21.401c-0.231,0.864 -0.537,1.707 -0.913,2.52l-1.733,2.079c0,0 -0.001,0 -0.003,0c-0.765,0.064 -1.523,0.007 -2.25,-0.161l2.7,-2.7c0.665,-0.665 1.404,-1.248 2.199,-1.738Z" style="fill:#086558;"/>
            </g>
            <path d="M11,30l3.249,-3.249c0.2,0.688 2.056,1.197 4.209,2.249l-1.969,1l-5.489,0Z" style="fill:#ff80b7;"/>
            <path d="M16.489,30c-0.138,-0.104 -0.273,-0.215 -0.403,-0.331c-0.882,-0.79 -1.513,-1.804 -1.837,-2.918l2.913,-2.913c1.209,-1.209 2.682,-2.119 4.304,-2.66c0.317,-0.106 0.534,-0.178 0.534,-0.178c0,0 0,0 0,0c0.989,2.968 1.031,6.1 0.217,9l-5.728,0Z" style="fill:#1ec6b2;"/>
            <path d="M27.5,2l-2,0l-4.5,9l2,0l4.5,-9Z" style="fill:#575757;"/>
            <path d="M18,11c0,0 0.379,-0.19 0.807,-0.404c0.775,-0.387 1.402,-1.014 1.789,-1.789c0.59,-1.178 1.404,-2.807 1.404,-2.807l4,2c0,0 -0.814,1.629 -1.404,2.807c-0.387,0.775 -1.014,1.402 -1.789,1.789c-0.428,0.214 -0.807,0.404 -0.807,0.404l-4,-2Z" style="fill:#1ec6b2;"/>
        </g>
    </g>
</svg>
