<?xml version="1.0" encoding="UTF-8" standalone="no"?>
<!DOCTYPE svg PUBLIC "-//W3C//DTD SVG 1.1//EN" "http://www.w3.org/Graphics/SVG/1.1/DTD/svg11.dtd">
<svg width="100%" height="100%" viewBox="0 0 32 32" version="1.1" xmlns="http://www.w3.org/2000/svg" xmlns:xlink="http://www.w3.org/1999/xlink" xml:space="preserve" xmlns:serif="http://www.serif.com/" style="fill-rule:evenodd;clip-rule:evenodd;stroke-linejoin:round;stroke-miterlimit:2;">
    <path id="pinched_fingers--hoof-" serif:id="pinched_fingers [hoof]" d="M32,32l0,-32l-32,0l0,32l32,0Z" style="fill:none;"/>
    <clipPath id="_clip1">
        <path d="M32,32l0,-32l-32,0l0,32l32,0Z"/>
    </clipPath>
    <g clip-path="url(#_clip1)">
        <g id="outline">
            <path d="M23.502,1.134c0.43,-0.201 0.886,-0.351 1.359,-0.446c0.45,-0.09 0.747,-0.149 0.747,-0.149c1.039,-0.208 2.06,0.431 2.327,1.456c0,0 2.161,8.283 2.815,10.79c0.166,0.636 0.25,1.291 0.25,1.949l0,0.266c0,0.031 -0.001,0.062 -0.002,0.093c0.001,0.059 0.002,0.119 0.002,0.178c0,1.475 0,3.949 0,5.845c0,2.466 -1.678,4.615 -4.071,5.213c-5.176,1.294 -16.842,4.211 -21.959,5.49c-1.195,0.299 -2.461,0.03 -3.432,-0.728c-0.971,-0.758 -1.538,-1.921 -1.538,-3.153l0,-3.584c0,-1.636 0.996,-3.106 2.514,-3.714c0.925,-0.37 2.155,-0.861 2.947,-1.179l0.767,-1.916c0.728,-1.821 1.916,-3.421 3.446,-4.646l1.662,-1.329l1.001,-2.003c1.048,-2.096 2.593,-3.904 4.5,-5.266c0,0 0.001,0 0.001,0c0.287,-0.205 0.617,-0.326 0.954,-0.362c0.716,-1.347 1.844,-2.493 3.312,-3.227c0.001,-0.001 0.002,-0.001 0.002,-0.001c0.677,-0.339 1.488,-0.266 2.094,0.189l0.037,0.028c0.089,0.067 0.177,0.136 0.265,0.206Z"/>
        </g>
        <g id="emoji">
            <path d="M25.5,6.5c-0.245,-0.488 -1.018,-2.59 -1.398,-3l0.016,-0.437l0.02,-0.011c0.265,-0.143 0.546,-0.256 0.836,-0.336c0.092,-0.026 0.185,-0.048 0.279,-0.067c0.249,-0.049 0.498,-0.099 0.747,-0.149l1.78,6.825l-2.28,-2.825Z" style="fill:#ff80b7;"/>
            <path d="M24.129,3.074c0.38,0.41 0.731,0.846 1.049,1.305c0.311,0.45 0.589,0.921 0.834,1.41l1.768,3.536l1.035,3.965c0.123,0.471 0.185,0.957 0.185,1.444l0,0.266l-5,0l0,-1c0,0 -0.971,-3.399 -1.808,-6.329c-0.307,-1.075 -0.151,-2.228 0.43,-3.182c0.369,-0.604 0.887,-1.093 1.496,-1.426l0.011,0.011Z" style="fill:#640082;"/>
            <path d="M13,12.8c0,0 4.309,3.354 5.593,3.181c-0.218,0.557 -0.138,1.192 0.222,1.681c0.398,0.54 1.07,0.805 1.73,0.684c0.001,-0.001 0.003,-0.001 0.005,-0.001c0.84,-0.155 1.45,-0.888 1.45,-1.743l0,-0.647c0.849,0.673 6.993,-0.948 6.993,-0.948c0.005,0.087 0.007,0.176 0.007,0.264c0,1.475 0,3.949 0,5.845c0,1.548 -1.054,2.897 -2.556,3.273c-5.176,1.294 -16.842,4.211 -21.959,5.49c-0.597,0.149 -1.23,0.015 -1.716,-0.364c-0.485,-0.379 -0.769,-0.961 -0.769,-1.577c0,-1.202 0,-2.587 0,-3.584c0,-0.818 0.498,-1.553 1.257,-1.857c0.925,-0.37 2.154,-0.862 2.947,-1.179c0.508,-0.203 0.911,-0.606 1.114,-1.114c0.209,-0.52 0.492,-1.229 0.767,-1.917c0.6,-1.499 1.578,-2.817 2.839,-3.826l2.076,-1.661Z" style="fill:#f10dc3;"/>
            <path d="M18.082,5.975c0.649,1.317 1.912,7.309 1.912,7.309l-1.321,2.523c-0.03,0.057 -0.057,0.115 -0.08,0.174c-0.822,0.553 -1.844,0.769 -2.845,0.569c-0.001,-0.001 -0.001,-0.001 -0.002,-0.001c-1.597,-0.319 -2.746,-1.721 -2.746,-3.349l0,-0.4l-0.071,0.057l1.197,-2.395c0.902,-1.804 2.232,-3.361 3.874,-4.533c0,0 0,0 0,0l0.082,0.046Z" style="fill:#ff80b7;"/>
            <path d="M18.082,5.975l0.629,0.36c2.115,1.208 2.894,3.873 1.764,6.031l-0.481,0.918l-1.406,-2.833c-0.716,-1.443 -0.855,-3.022 -0.506,-4.476Z" style="fill:#640082;"/>
            <path d="M22,15.955l0,-0.514c0,-0.24 -0.055,-0.476 -0.162,-0.69c-0.379,-0.764 -1.368,-2.758 -2.354,-4.745c-1.373,-2.767 -0.248,-6.124 2.515,-7.505l0.001,-0.001c1.315,0.986 2.383,2.266 3.118,3.736c1.028,2.056 2.511,5.022 3.314,6.627c0.334,0.669 0.525,1.399 0.561,2.144l-0.579,0.579c-0.905,0.905 -2.133,1.414 -3.414,1.414c0,0 0,0 0,0c-1.095,0 -2.151,-0.372 -3,-1.045Z" style="fill:#ff80b7;"/>
        </g>
    </g>
</svg>
