<?xml version="1.0" encoding="UTF-8" standalone="no"?>
<!DOCTYPE svg PUBLIC "-//W3C//DTD SVG 1.1//EN" "http://www.w3.org/Graphics/SVG/1.1/DTD/svg11.dtd">
<svg width="100%" height="100%" viewBox="0 0 32 32" version="1.1" xmlns="http://www.w3.org/2000/svg" xmlns:xlink="http://www.w3.org/1999/xlink" xml:space="preserve" xmlns:serif="http://www.serif.com/" style="fill-rule:evenodd;clip-rule:evenodd;stroke-linejoin:round;stroke-miterlimit:2;">
    <rect id="point_down--hoof-" serif:id="point_down [hoof]" x="0" y="0" width="32" height="32" style="fill:none;"/>
    <clipPath id="_clip1">
        <rect x="0" y="0" width="32" height="32"/>
    </clipPath>
    <g clip-path="url(#_clip1)">
        <g id="outline">
            <path d="M28.699,6.947l0.029,0.045c0,0 0.697,1.195 1.469,2.519c1.538,2.637 2.166,5.707 1.788,8.736c0,0.001 0,0.001 0,0.001c-0.075,0.595 -0.412,1.125 -0.919,1.444c-0.507,0.319 -1.13,0.395 -1.698,0.205c0,0 -0.001,0 -0.001,0c-1.573,-0.524 -3.047,-1.298 -4.367,-2.288l0,2.735c0,4.152 -1.649,8.134 -4.586,11.07c0,0 0,0 0,0c-0.475,0.476 -1.158,0.68 -1.816,0.545c-0.659,-0.135 -1.205,-0.592 -1.455,-1.216c0,0 -0.382,-0.956 -0.812,-2.031c-0.663,-1.657 -1.083,-3.397 -1.249,-5.167c-0.646,0.297 -1.355,0.455 -2.08,0.455c-0.001,0 -0.003,0 -0.004,0c-1.326,0 -2.597,-0.527 -3.534,-1.464c-0.168,-0.168 -0.323,-0.347 -0.464,-0.535c-0.86,0.645 -1.911,0.999 -2.998,0.999l-0.004,0c-1.326,0 -2.597,-0.527 -3.534,-1.464c-0.937,-0.937 -1.464,-2.208 -1.464,-3.534l0,-5.002c0,-3.448 1.37,-6.754 3.808,-9.192c2.438,-2.438 5.744,-3.808 9.192,-3.808l1.789,0c5.168,0 9.994,2.58 12.864,6.875l0.011,0.016l0.035,0.056Z"/>
        </g>
        <g id="emoji">
            <path d="M19,30c0,0 0,0 0,0c2.561,-2.561 4,-6.035 4,-9.657l0,-1.343l-3,-1l-3,1l0,2.802c0,2.113 0.403,4.206 1.188,6.167c0.43,1.076 0.812,2.031 0.812,2.031Zm-5.998,-8l-0.002,0c-0.796,0 -1.559,-0.316 -2.121,-0.879c-0.563,-0.562 -0.879,-1.325 -0.879,-2.121c0,-0.574 0,-1 0,-1l1,-1l4,0l1,1l0,1.002c0,0.795 -0.316,1.558 -0.878,2.12c-0.562,0.562 -1.325,0.878 -2.12,0.878Zm-7,-1l-0.004,0c-0.795,0 -1.558,-0.316 -2.12,-0.878c-0.562,-0.562 -0.878,-1.325 -0.878,-2.12l0,-1.002l1,-1l4,0l1,1l0,1.002c0,0.795 -0.316,1.558 -0.878,2.12c-0.562,0.562 -1.325,0.878 -2.12,0.878Zm23.998,-3.001l0,0.001c-1.973,-0.658 -3.765,-1.765 -5.236,-3.236c-0.437,-0.437 -0.764,-0.764 -0.764,-0.764l0,-4l3,-2c0,0 0.697,1.195 1.469,2.519c1.317,2.258 1.855,4.886 1.531,7.48Z" style="fill:#ff80b7;"/>
            <path d="M23,19l-6,0l0,-2l-1,0l0,1l-6,0l0,-1l-7,0l0,-4c0,-2.917 1.159,-5.715 3.222,-7.778c2.063,-2.063 4.861,-3.222 7.778,-3.222c0.604,0 1.204,0 1.789,0c4.505,0 8.712,2.252 11.211,6c0,0 0,0 0,0l-3,6l-1,-1l0,6Z" style="fill:#f10dc3;"/>
            <rect x="3" y="14.5" width="6" height="2.5" style="fill:#f10dc3;"/>
        </g>
    </g>
</svg>
