<?xml version="1.0" encoding="UTF-8" standalone="no"?>
<!DOCTYPE svg PUBLIC "-//W3C//DTD SVG 1.1//EN" "http://www.w3.org/Graphics/SVG/1.1/DTD/svg11.dtd">
<svg width="100%" height="100%" viewBox="0 0 32 32" version="1.1" xmlns="http://www.w3.org/2000/svg" xmlns:xlink="http://www.w3.org/1999/xlink" xml:space="preserve" xmlns:serif="http://www.serif.com/" style="fill-rule:evenodd;clip-rule:evenodd;stroke-linejoin:round;stroke-miterlimit:2;">
    <path id="point_left--hoof-" serif:id="point_left [hoof]" d="M0,0l0,32l32,0l0,-32l-32,0Z" style="fill:none;"/>
    <clipPath id="_clip1">
        <path d="M0,0l0,32l32,0l0,-32l-32,0Z"/>
    </clipPath>
    <g clip-path="url(#_clip1)">
        <g id="outline">
            <path d="M25.109,3.336l0.016,0.011c4.295,2.87 6.875,7.696 6.875,12.864c0,0.585 0,1.185 0,1.789c0,3.448 -1.37,6.754 -3.808,9.192c-2.438,2.438 -5.744,3.808 -9.192,3.808l-5.002,0c-1.326,0 -2.597,-0.527 -3.534,-1.464c-0.937,-0.937 -1.464,-2.208 -1.464,-3.534l0,-0.004c0,-1.087 0.354,-2.138 0.999,-2.998c-0.188,-0.141 -0.367,-0.296 -0.535,-0.464c-0.937,-0.937 -1.464,-2.208 -1.464,-3.534c0,-0.001 0,-0.003 0,-0.004c0,-0.725 0.158,-1.434 0.455,-2.08c-1.77,-0.166 -3.51,-0.586 -5.167,-1.249c-1.075,-0.43 -2.031,-0.812 -2.031,-0.812c-0.624,-0.25 -1.081,-0.796 -1.216,-1.455c-0.135,-0.658 0.069,-1.341 0.545,-1.816c0,0 0,0 0,0c2.936,-2.937 6.918,-4.586 11.07,-4.586l2.735,0c-0.99,-1.32 -1.764,-2.794 -2.288,-4.367c0,0 0,-0.001 0,-0.001c-0.19,-0.568 -0.114,-1.191 0.205,-1.698c0.319,-0.507 0.849,-0.844 1.444,-0.919c0,0 0,0 0.001,0c3.029,-0.378 6.099,0.25 8.736,1.788c1.324,0.772 2.519,1.469 2.519,1.469l0.045,0.029l0.056,0.035Z"/>
        </g>
        <g id="emoji">
            <path d="M15,23l1,1l0,4l-1,1l-1.002,0c-0.795,0 -1.558,-0.316 -2.12,-0.878c-0.562,-0.562 -0.878,-1.325 -0.878,-2.12l0,-0.004c0,-0.795 0.316,-1.558 0.878,-2.12c0.562,-0.562 1.325,-0.878 2.12,-0.878l1.002,0Zm-1,-7l1,1l0,4l-1,1c0,0 -0.426,0 -1,0c-0.796,0 -1.559,-0.316 -2.121,-0.879c-0.563,-0.562 -0.879,-1.325 -0.879,-2.121l0,-0.002c0,-0.795 0.316,-1.558 0.878,-2.12c0.562,-0.562 1.325,-0.878 2.12,-0.878l1.002,0Zm0,-4l-1,3l-2.802,0c-2.113,0 -4.206,-0.403 -6.167,-1.188c-1.076,-0.43 -2.031,-0.812 -2.031,-0.812c0,0 0,0 0,0c2.561,-2.561 6.035,-4 9.657,-4l1.343,0l1,3Zm0.001,-10l-0.001,0c0.658,1.973 1.765,3.765 3.236,5.236c0.437,0.437 0.764,0.764 0.764,0.764l4,0l2,-3c0,0 -1.195,-0.697 -2.519,-1.469c-2.258,-1.317 -4.886,-1.855 -7.48,-1.531Z" style="fill:#ff80b7;"/>
            <path d="M13,9l0,6l2,0l0,1l-1,0l0,6l1,0l0,7l4,0c2.917,0 5.715,-1.159 7.778,-3.222c2.063,-2.063 3.222,-4.861 3.222,-7.778c0,-0.604 0,-1.204 0,-1.789c0,-4.505 -2.252,-8.712 -6,-11.211c0,0 0,0 0,0l-6,3l1,1l-6,0Z" style="fill:#f10dc3;"/>
            <path d="M15,29l0,-6l2.5,0l0,6l-2.5,0Z" style="fill:#f10dc3;"/>
        </g>
    </g>
</svg>
