<?xml version="1.0" encoding="UTF-8" standalone="no"?>
<!DOCTYPE svg PUBLIC "-//W3C//DTD SVG 1.1//EN" "http://www.w3.org/Graphics/SVG/1.1/DTD/svg11.dtd">
<svg width="100%" height="100%" viewBox="0 0 32 32" version="1.1" xmlns="http://www.w3.org/2000/svg" xmlns:xlink="http://www.w3.org/1999/xlink" xml:space="preserve" xmlns:serif="http://www.serif.com/" style="fill-rule:evenodd;clip-rule:evenodd;stroke-linecap:round;stroke-linejoin:round;stroke-miterlimit:1.5;">
    <rect id="point_down--hoof-" serif:id="point_down [hoof]" x="0" y="0" width="32" height="32" style="fill:none;"/>
    <clipPath id="_clip1">
        <rect x="0" y="0" width="32" height="32"/>
    </clipPath>
    <g clip-path="url(#_clip1)">
        <g id="outline">
            <path d="M30,18c0,0 0,0 0,0c-1.973,-0.658 -3.765,-1.765 -5.236,-3.236c-0.437,-0.437 -0.764,-0.764 -0.764,-0.764l3,-6c0,0 0.697,1.195 1.469,2.519c1.317,2.258 1.855,4.886 1.531,7.48c0,0.001 0,0.001 0,0.001Z" style="fill:none;stroke:#000;stroke-width:4px;"/>
            <path d="M14,2c-2.917,0 -5.715,1.159 -7.778,3.222c-2.063,2.063 -3.222,4.861 -3.222,7.778c0,1.751 0,3 0,3l0,1l20,0l0,-4l1,1l3,-6c0,0 0,0 0,0c-2.499,-3.748 -6.706,-6 -11.211,-6c-0.585,0 -1.185,0 -1.789,0Z" style="fill:none;stroke:#000;stroke-width:4px;"/>
            <path d="M19,30c0,0 0,0 0,0c2.561,-2.561 4,-6.035 4,-9.656c0,-1.805 0,-3.344 0,-3.344l-6,0l0,4.802c0,2.113 0.403,4.206 1.188,6.167c0.43,1.076 0.812,2.031 0.812,2.031Z" style="fill:none;stroke:#000;stroke-width:4px;"/>
            <path d="M9,18.002c0,0.795 -0.316,1.558 -0.878,2.12c-0.562,0.562 -1.325,0.878 -2.12,0.878l-0.004,0c-0.795,0 -1.558,-0.316 -2.12,-0.878c-0.562,-0.562 -0.878,-1.325 -0.878,-2.12l0,-3.002l6,0l0,3.002Z" style="fill:none;stroke:#000;stroke-width:4px;"/>
            <path d="M16,19.002c0,0.795 -0.316,1.558 -0.878,2.12c-0.562,0.562 -1.325,0.878 -2.12,0.878c-0.001,0 -0.003,0 -0.004,0c-0.795,0 -1.558,-0.316 -2.12,-0.878c-0.562,-0.562 -0.878,-1.325 -0.878,-2.12c0,-2.271 0,-5.002 0,-5.002l6,0l0,5.002Z" style="fill:none;stroke:#000;stroke-width:4px;"/>
        </g>
        <g id="emoji">
            <path d="M19,30c0,0 0,0 0,0c2.561,-2.561 4,-6.035 4,-9.656c0,-1.805 0,-3.344 0,-3.344l-3,-1l-3,1l0,4.802c0,2.113 0.403,4.206 1.188,6.167c0.43,1.076 0.812,2.031 0.812,2.031Z" style="fill:#ff80b7;"/>
            <clipPath id="_clip2">
                <path d="M19,30c0,0 0,0 0,0c2.561,-2.561 4,-6.035 4,-9.656c0,-1.805 0,-3.344 0,-3.344l-3,-1l-3,1l0,4.802c0,2.113 0.403,4.206 1.188,6.167c0.43,1.076 0.812,2.031 0.812,2.031Z"/>
            </clipPath>
            <g clip-path="url(#_clip2)">
                <rect x="17" y="16" width="6" height="3" style="fill:#f10dc3;"/>
            </g>
            <path d="M30,18c0,0 0,0 0,0c-1.973,-0.658 -3.765,-1.765 -5.236,-3.236c-0.437,-0.437 -0.764,-0.764 -0.764,-0.764l0,-4l3,-2c0,0 0.697,1.195 1.469,2.519c1.317,2.258 1.855,4.886 1.531,7.48c0,0.001 0,0.001 0,0.001Z" style="fill:#ff80b7;"/>
            <path d="M14,2c-2.917,0 -5.715,1.159 -7.778,3.222c-2.063,2.063 -3.222,4.861 -3.222,7.778c0,1.751 0,3 0,3l0,1l20,0l0,-4l1,1l3,-6c0,0 0,0 0,0c-2.499,-3.748 -6.706,-6 -11.211,-6c-0.585,0 -1.185,0 -1.789,0Z" style="fill:#f10dc3;"/>
            <path d="M9,18.002c0,0.795 -0.316,1.558 -0.878,2.12c-0.562,0.562 -1.325,0.878 -2.12,0.878l-0.004,0c-0.795,0 -1.558,-0.316 -2.12,-0.878c-0.562,-0.562 -0.878,-1.325 -0.878,-2.12l0,-1.002l6,0l0,1.002Z" style="fill:#ff80b7;"/>
            <path d="M16,19.002c0,0.795 -0.316,1.558 -0.878,2.12c-0.562,0.562 -1.325,0.878 -2.12,0.878l-0.004,0c-0.795,0 -1.558,-0.316 -2.12,-0.878c-0.562,-0.562 -0.878,-1.325 -0.878,-2.12l0,-1.002l6,0l0,1.002Z" style="fill:#ff80b7;"/>
            <rect x="10" y="14.5" width="6" height="3.5" style="fill:#f10dc3;"/>
            <rect x="3" y="14.5" width="6" height="2.5" style="fill:#f10dc3;"/>
        </g>
    </g>
</svg>
