<?xml version="1.0" encoding="UTF-8" standalone="no"?>
<!DOCTYPE svg PUBLIC "-//W3C//DTD SVG 1.1//EN" "http://www.w3.org/Graphics/SVG/1.1/DTD/svg11.dtd">
<svg width="100%" height="100%" viewBox="0 0 32 32" version="1.1" xmlns="http://www.w3.org/2000/svg" xmlns:xlink="http://www.w3.org/1999/xlink" xml:space="preserve" xmlns:serif="http://www.serif.com/" style="fill-rule:evenodd;clip-rule:evenodd;stroke-linejoin:round;stroke-miterlimit:2;">
    <path id="point_right--hoof-" serif:id="point_right [hoof]" d="M32,0l0,32l-32,0l0,-32l32,0Z" style="fill:none;"/>
    <clipPath id="_clip1">
        <path d="M32,0l0,32l-32,0l0,-32l32,0Z"/>
    </clipPath>
    <g clip-path="url(#_clip1)">
        <g id="outline">
            <path d="M6.947,3.301l0.045,-0.029c0,0 1.195,-0.697 2.519,-1.469c2.637,-1.538 5.707,-2.166 8.736,-1.788c0.001,0 0.001,0 0.001,0c0.595,0.075 1.125,0.412 1.444,0.919c0.319,0.507 0.395,1.13 0.205,1.698c0,0 0,0.001 0,0.001c-0.524,1.573 -1.298,3.047 -2.288,4.367l2.735,0c4.152,0 8.134,1.649 11.07,4.586c0,0 0,0 0,0c0.476,0.475 0.68,1.158 0.545,1.816c-0.135,0.659 -0.592,1.205 -1.216,1.455c0,0 -0.956,0.382 -2.031,0.812c-1.657,0.663 -3.397,1.083 -5.167,1.249c0.297,0.646 0.455,1.355 0.455,2.08c0,0.001 0,0.003 0,0.004c0,1.326 -0.527,2.597 -1.464,3.534c-0.168,0.168 -0.347,0.323 -0.535,0.464c0.645,0.86 0.999,1.911 0.999,2.998l0,0.004c0,1.326 -0.527,2.597 -1.464,3.534c-0.937,0.937 -2.208,1.464 -3.534,1.464l-5.002,0c-3.448,0 -6.754,-1.37 -9.192,-3.808c-2.438,-2.438 -3.808,-5.744 -3.808,-9.192c0,-0.604 0,-1.204 0,-1.789c0,-5.168 2.58,-9.994 6.875,-12.864l0.016,-0.011l0.056,-0.035Z"/>
        </g>
        <g id="emoji">
            <path d="M18.002,29l-1.002,0l-1,-1l0,-4l1,-1l1.002,0c0.795,0 1.558,0.316 2.12,0.878c0.562,0.562 0.878,1.325 0.878,2.12l0,0.004c0,0.795 -0.316,1.558 -0.878,2.12c-0.562,0.562 -1.325,0.878 -2.12,0.878Zm0.998,-7l-1,0l-1,-1l0,-4l1,-1l1.002,0c0.795,0 1.558,0.316 2.12,0.878c0.562,0.562 0.878,1.325 0.878,2.12l0,0.002c0,0.796 -0.316,1.559 -0.879,2.121c-0.562,0.563 -1.325,0.879 -2.121,0.879Zm1.343,-13c3.622,0 7.096,1.439 9.657,4c0,0 0,0 0,0c0,0 -0.955,0.382 -2.031,0.812c-1.961,0.785 -4.054,1.188 -6.167,1.188l-2.802,0l-1,-3l1,-3l1.343,0Zm-6.343,-1l-4,0l-2,-3c0,0 1.195,-0.697 2.519,-1.469c2.258,-1.317 4.886,-1.855 7.48,-1.531l0.001,0c-0.658,1.973 -1.765,3.765 -3.236,5.236l-0.764,0.764Z" style="fill:#ff80b7;"/>
            <path d="M19,9l0,6l-2,0l0,1l1,0l0,6l-1,0l0,7l-4,0c-2.917,0 -5.715,-1.159 -7.778,-3.222c-2.063,-2.063 -3.222,-4.861 -3.222,-7.778c0,-0.604 0,-1.204 0,-1.789c0,-4.505 2.252,-8.712 6,-11.211c0,0 0,0 0,0l6,3l-1,1l6,0Z" style="fill:#f10dc3;"/>
            <path d="M17,29l0,-6l-2.5,0l0,6l2.5,0Z" style="fill:#f10dc3;"/>
        </g>
    </g>
</svg>
