<?xml version="1.0" encoding="UTF-8" standalone="no"?>
<!DOCTYPE svg PUBLIC "-//W3C//DTD SVG 1.1//EN" "http://www.w3.org/Graphics/SVG/1.1/DTD/svg11.dtd">
<svg width="100%" height="100%" viewBox="0 0 32 32" version="1.1" xmlns="http://www.w3.org/2000/svg" xmlns:xlink="http://www.w3.org/1999/xlink" xml:space="preserve" xmlns:serif="http://www.serif.com/" style="fill-rule:evenodd;clip-rule:evenodd;stroke-linecap:round;stroke-linejoin:round;stroke-miterlimit:1.5;">
    <path id="point_left--hoof-" serif:id="point_left [hoof]" d="M0,0l0,32l32,0l0,-32l-32,0Z" style="fill:none;"/>
    <clipPath id="_clip1">
        <path d="M0,0l0,32l32,0l0,-32l-32,0Z"/>
    </clipPath>
    <g clip-path="url(#_clip1)">
        <g id="outline">
            <path d="M15,9l-3.344,0c-3.621,0 -7.095,1.439 -9.656,4c0,0 0,0 0,0c0,0 0.955,0.382 2.031,0.812c1.961,0.785 4.054,1.188 6.167,1.188l4.802,0l0,1l-2.002,0c-0.795,0 -1.558,0.316 -2.12,0.878c-0.562,0.562 -0.878,1.325 -0.878,2.12c0,0.001 0,0.003 0,0.004c0,0.795 0.316,1.558 0.878,2.12c0.562,0.562 1.325,0.878 2.12,0.878l2.002,0l0,1l-1.002,0c-0.795,0 -1.558,0.316 -2.12,0.878c-0.562,0.562 -0.878,1.325 -0.878,2.12l0,0.004c0,0.795 0.316,1.558 0.878,2.12c0.562,0.562 1.325,0.878 2.12,0.878l5.002,0c2.917,0 5.715,-1.159 7.778,-3.222c2.063,-2.063 3.222,-4.861 3.222,-7.778c0,-0.604 0,-1.204 0,-1.789c0,-4.505 -2.252,-8.712 -6,-11.211c0,0 0,0 0,0l-6,3l1,1l-4,0Zm-1,-7c0,0 0,0 0,0c0.658,1.973 1.765,3.765 3.236,5.236c0.437,0.437 0.764,0.764 0.764,0.764l6,-3c0,0 -1.195,-0.697 -2.519,-1.469c-2.258,-1.317 -4.886,-1.855 -7.48,-1.531c-0.001,0 -0.001,0 -0.001,0Z" style="fill:none;stroke:#000;stroke-width:4px;"/>
        </g>
        <g id="emoji">
            <path d="M2,13c0,0 0,0 0,0c2.561,-2.561 6.035,-4 9.657,-4l1.343,0l1,3l-1,3l-2.802,0c-2.113,0 -4.206,-0.403 -6.167,-1.188c-1.076,-0.43 -2.031,-0.812 -2.031,-0.812Z" style="fill:#ff80b7;"/>
            <path d="M14,2c0,0 0,0 0,0c0.658,1.973 1.765,3.765 3.236,5.236c0.437,0.437 0.764,0.764 0.764,0.764l4,0l2,-3c0,0 -1.195,-0.697 -2.519,-1.469c-2.258,-1.317 -4.886,-1.855 -7.48,-1.531c-0.001,0 -0.001,0 -0.001,0Z" style="fill:#ff80b7;"/>
            <path d="M13.998,23c-0.795,0 -1.558,0.316 -2.12,0.878c-0.562,0.562 -0.878,1.325 -0.878,2.12l0,0.004c0,0.795 0.316,1.558 0.878,2.12c0.562,0.562 1.325,0.878 2.12,0.878l1.002,0l1,-1l0,-4l-1,-1l-1.002,0Z" style="fill:#ff80b7;"/>
            <path d="M12.998,16c-0.795,0 -1.558,0.316 -2.12,0.878c-0.562,0.562 -0.878,1.325 -0.878,2.12l0,0.002c0,0.796 0.316,1.559 0.879,2.121c0.562,0.563 1.325,0.879 2.121,0.879c0.574,0 1,0 1,0l1,-1l0,-4l-1,-1l-1.002,0Z" style="fill:#ff80b7;"/>
            <path d="M13,9l0,6l2,0l0,1l-1,0l0,6l1,0l0,7l4,0c2.917,0 5.715,-1.159 7.778,-3.222c2.063,-2.063 3.222,-4.861 3.222,-7.778c0,-0.604 0,-1.204 0,-1.789c0,-4.505 -2.252,-8.712 -6,-11.211c0,0 0,0 0,0l-6,3l1,1l-6,0Z" style="fill:#f10dc3;"/>
            <path d="M15,29l0,-6l2.5,0l0,6l-2.5,0Z" style="fill:#f10dc3;"/>
        </g>
    </g>
</svg>
