<?xml version="1.0" encoding="UTF-8" standalone="no"?>
<!DOCTYPE svg PUBLIC "-//W3C//DTD SVG 1.1//EN" "http://www.w3.org/Graphics/SVG/1.1/DTD/svg11.dtd">
<svg width="100%" height="100%" viewBox="0 0 32 32" version="1.1" xmlns="http://www.w3.org/2000/svg" xmlns:xlink="http://www.w3.org/1999/xlink" xml:space="preserve" xmlns:serif="http://www.serif.com/" style="fill-rule:evenodd;clip-rule:evenodd;stroke-linecap:round;stroke-linejoin:round;stroke-miterlimit:2;">
    <rect id="selfie--hoof-" serif:id="selfie [hoof]" x="0" y="0" width="32" height="32" style="fill:none;"/>
    <clipPath id="_clip1">
        <rect x="0" y="0" width="32" height="32"/>
    </clipPath>
    <g clip-path="url(#_clip1)">
        <g id="outline">
            <path d="M26.116,4.341l0.107,0.072l0.112,0.078l0.11,0.08l0.109,0.082l0.107,0.083l0.106,0.084l0.105,0.086l0.103,0.088l0.101,0.089l0.1,0.09l0.098,0.092l0.097,0.093l0.096,0.095l0.093,0.096l0.092,0.097l0.091,0.099l0.089,0.1l0.087,0.101l0.086,0.102l0.084,0.104l0.082,0.104l0.081,0.107l0.079,0.107l0.078,0.108l0.076,0.11l0.074,0.11l0.072,0.111l0.071,0.113l0.068,0.114l0.067,0.114l0.066,0.116l0.063,0.117l0.062,0.117l0.06,0.119l0.058,0.119l0.057,0.121l0.054,0.121l0.053,0.122l0.051,0.123l0.049,0.123l0.047,0.125l0.045,0.125l0.044,0.126l0.041,0.127l0.04,0.127l0.037,0.129l0.036,0.128l0.034,0.13l0.032,0.13l0.03,0.13l0.027,0.131l0.026,0.132l0.024,0.133l0.022,0.133l0.02,0.133l0.018,0.134l0.015,0.134l0.014,0.135l0.012,0.135l0.009,0.135l0.007,0.136l0.006,0.136l0.003,0.136l0.001,0.129l0,5.759l-0.002,0.136l-0.005,0.148l-0.009,0.149l-0.013,0.147l-0.017,0.147l-0.02,0.146l-0.023,0.146l-0.027,0.144l-0.031,0.144l-0.034,0.143l-0.037,0.142l-0.041,0.14l-0.044,0.14l-0.048,0.138l-0.051,0.138l-0.055,0.135l-0.057,0.135l-0.061,0.133l-0.064,0.132l-0.068,0.13l-0.07,0.128l-0.074,0.127l-0.077,0.125l-0.08,0.123l-0.083,0.122l-0.086,0.119l-0.089,0.117l-0.093,0.116l-0.095,0.113l-0.098,0.111l-0.101,0.109l-0.096,0.098l-1.53,1.531l-3.335,8.892l-14.851,0l-0.067,-0.122l5.862,-9.38l-1.742,-1.307l-0.081,-0.063l-0.091,-0.074l-0.088,-0.077l-0.086,-0.079l-0.083,-0.082l-0.081,-0.084l-0.078,-0.085l-0.075,-0.089l-0.073,-0.09l-0.07,-0.092l-0.067,-0.093l-0.064,-0.095l-0.062,-0.098l-0.058,-0.099l-0.056,-0.1l-0.053,-0.102l-0.05,-0.103l-0.047,-0.106l-0.044,-0.106l-0.04,-0.107l-0.038,-0.109l-0.035,-0.11l-0.031,-0.111l-0.029,-0.112l-0.025,-0.113l-0.022,-0.114l-0.018,-0.115l-0.016,-0.115l-0.012,-0.116l-0.008,-0.117l-0.005,-0.117l-0.002,-0.103l0,-5.251l6.898,-3.449l6.969,-5.807l1.249,0.833Zm-6.014,8.344l-5.102,2.551l0,2.749l0,0.015l0.012,0.009l4.658,3.493l-4.062,6.498l5.006,0l2.665,-7.108l2.126,-2.126l0.044,-0.044l0.033,-0.037l0.033,-0.037l0.032,-0.037l0.031,-0.039l0.029,-0.039l0.029,-0.04l0.028,-0.04l0.026,-0.041l0.026,-0.042l0.025,-0.042l0.023,-0.043l0.023,-0.044l0.021,-0.043l0.02,-0.044l0.02,-0.046l0.018,-0.045l0.017,-0.046l0.016,-0.046l0.014,-0.046l0.014,-0.047l0.013,-0.047l0.011,-0.048l0.01,-0.048l0.009,-0.048l0.008,-0.048l0.007,-0.049l0.005,-0.049l0.004,-0.049l0.003,-0.049l0.002,-0.05l0.001,-0.062l0,-5.718l-0.001,-0.082l-0.001,-0.074l-0.003,-0.074l-0.004,-0.074l-0.005,-0.073l-0.007,-0.074l-0.007,-0.072l-0.009,-0.073l-0.009,-0.073l-0.011,-0.072l-0.012,-0.072l-0.013,-0.071l-0.014,-0.072l-0.015,-0.071l-0.016,-0.071l-0.017,-0.07l-0.019,-0.07l-0.019,-0.07l-0.02,-0.069l-0.022,-0.069l-0.022,-0.069l-0.024,-0.069l-0.024,-0.067l-0.026,-0.068l-0.027,-0.067l-0.027,-0.067l-0.029,-0.066l-0.029,-0.065l-0.031,-0.066l-0.031,-0.065l-0.033,-0.064l-0.033,-0.064l-0.035,-0.063l-0.035,-0.063l-0.037,-0.062l-0.037,-0.062l-0.038,-0.061l-0.04,-0.06l-0.04,-0.06l-0.041,-0.059l-0.042,-0.059l-0.043,-0.058l-0.043,-0.058l-0.045,-0.057l-0.007,-0.008l-4.855,4.045Z"/>
            <path d="M26,4c0,-0.53 -0.211,-1.039 -0.586,-1.414c-0.375,-0.375 -0.884,-0.586 -1.414,-0.586l-6,0c-0.53,0 -1.039,0.211 -1.414,0.586c-0.375,0.375 -0.586,0.884 -0.586,1.414l0,12c0,0.53 0.211,1.039 0.586,1.414c0.375,0.375 0.884,0.586 1.414,0.586l6,0c0.53,0 1.039,-0.211 1.414,-0.586c0.375,-0.375 0.586,-0.884 0.586,-1.414l0,-12Z" style="fill:none;stroke:#000;stroke-width:4px;"/>
            <path d="M13,12.999c0,-1.775 1.177,-3.335 2.884,-3.823c1.929,-0.551 4.116,-1.176 4.116,-1.176l0,1.737c0,1.34 -0.888,2.517 -2.176,2.885c-2.055,0.587 -4.824,1.378 -4.824,1.378l0,-1.001Z" style="fill:#767676;"/>
            <path d="M22,9.748l-0.001,0.093l-0.003,0.104l-0.006,0.103l-0.007,0.103l-0.01,0.103l-0.011,0.102l-0.014,0.102l-0.016,0.1l-0.017,0.101l-0.02,0.1l-0.022,0.099l-0.024,0.099l-0.025,0.098l-0.028,0.097l-0.029,0.096l-0.032,0.096l-0.033,0.095l-0.035,0.094l-0.037,0.093l-0.039,0.092l-0.041,0.092l-0.042,0.09l-0.044,0.089l-0.046,0.089l-0.047,0.088l-0.049,0.086l-0.051,0.085l-0.053,0.085l-0.054,0.083l-0.056,0.082l-0.057,0.081l-0.059,0.08l-0.061,0.079l-0.062,0.077l-0.063,0.076l-0.066,0.076l-0.066,0.073l-0.069,0.073l-0.069,0.071l-0.071,0.069l-0.073,0.069l-0.074,0.067l-0.075,0.065l-0.076,0.064l-0.079,0.063l-0.079,0.061l-0.081,0.06l-0.082,0.058l-0.083,0.056l-0.085,0.055l-0.086,0.053l-0.087,0.052l-0.088,0.05l-0.09,0.048l-0.09,0.046l-0.092,0.045l-0.093,0.043l-0.094,0.041l-0.095,0.039l-0.096,0.038l-0.097,0.035l-0.098,0.034l-0.098,0.031l-0.09,0.027l-7.384,2.109l0,-3.662l0.001,-0.114l0.004,-0.124l0.006,-0.124l0.009,-0.123l0.012,-0.123l0.014,-0.122l0.016,-0.121l0.019,-0.121l0.021,-0.12l0.024,-0.119l0.026,-0.119l0.028,-0.117l0.031,-0.118l0.033,-0.116l0.035,-0.115l0.038,-0.115l0.039,-0.113l0.042,-0.112l0.044,-0.112l0.047,-0.11l0.048,-0.109l0.051,-0.108l0.052,-0.107l0.055,-0.106l0.057,-0.105l0.059,-0.103l0.061,-0.102l0.062,-0.101l0.065,-0.099l0.067,-0.099l0.069,-0.096l0.07,-0.096l0.072,-0.094l0.075,-0.092l0.076,-0.091l0.078,-0.09l0.079,-0.088l0.082,-0.087l0.083,-0.085l0.085,-0.083l0.087,-0.081l0.088,-0.081l0.09,-0.078l0.092,-0.076l0.093,-0.075l0.095,-0.073l0.097,-0.072l0.097,-0.069l0.1,-0.067l0.101,-0.066l0.103,-0.064l0.104,-0.061l0.105,-0.06l0.107,-0.058l0.108,-0.055l0.11,-0.053l0.111,-0.052l0.112,-0.049l0.114,-0.047l0.115,-0.044l0.116,-0.043l0.117,-0.04l0.118,-0.038l0.109,-0.032l6.676,-1.907l0,4.399Z"/>
            <path d="M9,6l-2,-2" style="fill:none;stroke:#000;stroke-width:6px;"/>
            <path d="M9,10l-4,0" style="fill:none;stroke:#000;stroke-width:6px;"/>
            <path d="M9,14l-2,2" style="fill:none;stroke:#000;stroke-width:6px;"/>
        </g>
        <g id="emoji">
            <path d="M13,14c0,0 0,2.541 0,4c0,0.63 0.296,1.222 0.8,1.6c1.167,0.875 3.2,2.4 3.2,2.4l-5,8l10,0l3,-8c0,0 0.987,-0.987 1.828,-1.828c0.751,-0.751 1.172,-1.768 1.172,-2.829c0,-1.514 0,-3.804 0,-5.738c0,-2.252 -1.126,-4.355 -3,-5.605c0,0 0,0 0,0l-6,5l-6,3Z" style="fill:#f10dc3;"/>
            <clipPath id="_clip2">
                <path d="M13,14c0,0 0,2.541 0,4c0,0.63 0.296,1.222 0.8,1.6c1.167,0.875 3.2,2.4 3.2,2.4l-5,8l10,0l3,-8c0,0 0.987,-0.987 1.828,-1.828c0.751,-0.751 1.172,-1.768 1.172,-2.829c0,-1.514 0,-3.804 0,-5.738c0,-2.252 -1.126,-4.355 -3,-5.605c0,0 0,0 0,0l-6,5l-6,3Z"/>
            </clipPath>
            <g clip-path="url(#_clip2)">
                <rect x="11" y="22" width="16" height="9" style="fill:#a90eb1;"/>
                <rect x="19" y="1" width="10" height="13.5" style="fill:#ff80b7;"/>
            </g>
            <path d="M26,4c0,-0.53 -0.211,-1.039 -0.586,-1.414c-0.375,-0.375 -0.884,-0.586 -1.414,-0.586l-6,0c-0.53,0 -1.039,0.211 -1.414,0.586c-0.375,0.375 -0.586,0.884 -0.586,1.414l0,12c0,0.53 0.211,1.039 0.586,1.414c0.375,0.375 0.884,0.586 1.414,0.586l6,0c0.53,0 1.039,-0.211 1.414,-0.586c0.375,-0.375 0.586,-0.884 0.586,-1.414l0,-12Z" style="fill:#fff;"/>
            <clipPath id="_clip3">
                <path d="M26,4c0,-0.53 -0.211,-1.039 -0.586,-1.414c-0.375,-0.375 -0.884,-0.586 -1.414,-0.586l-6,0c-0.53,0 -1.039,0.211 -1.414,0.586c-0.375,0.375 -0.586,0.884 -0.586,1.414l0,12c0,0.53 0.211,1.039 0.586,1.414c0.375,0.375 0.884,0.586 1.414,0.586l6,0c0.53,0 1.039,-0.211 1.414,-0.586c0.375,-0.375 0.586,-0.884 0.586,-1.414l0,-12Z"/>
            </clipPath>
            <g clip-path="url(#_clip3)">
                <path d="M25,4c0,-0.552 -0.448,-1 -1,-1c-1.537,0 -4.463,0 -6,0c-0.552,0 -1,0.448 -1,1c0,2.577 0,9.423 0,12c0,0.552 0.448,1 1,1c1.537,0 4.463,0 6,0c0.552,0 1,-0.448 1,-1c0,-2.577 0,-9.423 0,-12Z"/>
                <clipPath id="_clip4">
                    <path d="M25,4c0,-0.552 -0.448,-1 -1,-1c-1.537,0 -4.463,0 -6,0c-0.552,0 -1,0.448 -1,1c0,2.577 0,9.423 0,12c0,0.552 0.448,1 1,1c1.537,0 4.463,0 6,0c0.552,0 1,-0.448 1,-1c0,-2.577 0,-9.423 0,-12Z"/>
                </clipPath>
                <g clip-path="url(#_clip4)">
                    <circle cx="21" cy="8" r="2" style="fill:#333;"/>
                    <path d="M24,13c0,-1.105 -0.895,-2 -2,-2l-2,0c-1.105,0 -2,0.895 -2,2l0,4l6,0l0,-4Z" style="fill:#333;"/>
                </g>
                <rect x="19" y="2" width="4" height="2" style="fill:#fff;"/>
            </g>
            <path d="M13,12.999c0,-1.775 1.177,-3.335 2.884,-3.823c1.929,-0.551 4.116,-1.176 4.116,-1.176l0,1.737c0,1.34 -0.888,2.517 -2.176,2.885c-2.055,0.587 -4.824,1.378 -4.824,1.378l0,-1.001Z" style="fill:#ff80b7;"/>
            <path d="M9,6l-2,-2" style="fill:none;stroke:#fff;stroke-width:2px;"/>
            <path d="M9,10l-4,0" style="fill:none;stroke:#fff;stroke-width:2px;"/>
            <path d="M9,14l-2,2" style="fill:none;stroke:#fff;stroke-width:2px;"/>
        </g>
    </g>
</svg>
