<?xml version="1.0" encoding="UTF-8" standalone="no"?>
<!DOCTYPE svg PUBLIC "-//W3C//DTD SVG 1.1//EN" "http://www.w3.org/Graphics/SVG/1.1/DTD/svg11.dtd">
<svg width="100%" height="100%" viewBox="0 0 32 32" version="1.1" xmlns="http://www.w3.org/2000/svg" xmlns:xlink="http://www.w3.org/1999/xlink" xml:space="preserve" xmlns:serif="http://www.serif.com/" style="fill-rule:evenodd;clip-rule:evenodd;stroke-linejoin:round;stroke-miterlimit:2;">
    <rect id="selfie--hoof-" serif:id="selfie [hoof]" x="0" y="0" width="32" height="32" style="fill:none;"/>
    <clipPath id="_clip1">
        <rect x="0" y="0" width="32" height="32"/>
    </clipPath>
    <g clip-path="url(#_clip1)">
        <g id="outline">
            <path d="M14,7.816l0,-3.816c0,-1.061 0.421,-2.078 1.172,-2.828c0.75,-0.751 1.767,-1.172 2.828,-1.172l6,0c1.061,0 2.078,0.421 2.828,1.172c0.751,0.75 1.172,1.767 1.172,2.828l0,2.042c1.276,1.546 2,3.507 2,5.563c0,1.934 0,4.224 0,5.738c0,1.591 -0.632,3.118 -1.757,4.243l-1.522,1.522l-3.335,8.892l-14.994,0l5.938,-9.502l-1.73,-1.298c-0.993,-0.768 -1.6,-1.938 -1.6,-3.2c0,-0.586 0,-1.171 0,-1.757l-1.879,1.878c-1.17,1.171 -3.072,1.171 -4.242,0c-1.171,-1.17 -1.171,-3.072 0,-4.242l0.878,-0.879l-0.757,0c-1.656,0 -3,-1.344 -3,-3c0,-1.656 1.344,-3 3,-3l0.757,0l-0.878,-0.879c-1.171,-1.17 -1.171,-3.072 0,-4.242c1.17,-1.171 3.072,-1.171 4.242,0l2,2c1.132,1.131 1.17,2.944 0.115,4.121c0.415,0.464 0.688,1.057 0.75,1.711c0.51,-0.773 1.197,-1.426 2.014,-1.895Z"/>
        </g>
        <g id="emoji">
            <g>
                <path d="M25,22l-3,8l-10,0l5,-8l1,-1l6,0l1,1Z" style="fill:#a90eb1;"/>
                <path d="M19,11l9,3.5l0,2.843c-0.002,0.525 -0.104,1.046 -0.304,1.531c-0.201,0.485 -0.498,0.925 -0.868,1.298l-1.828,1.828l-8,0c0,0 -2.033,-1.525 -3.2,-2.4c-0.504,-0.378 -0.8,-0.97 -0.8,-1.6c0,-1.459 0,-4 0,-4l6,-3Z" style="fill:#f10dc3;"/>
                <path d="M25,6c0.606,0.404 1.145,0.905 1.59,1.481c0.524,0.676 0.916,1.452 1.151,2.275c0.172,0.601 0.257,1.224 0.259,1.849l0,2.895l-9,0l0,-3.5l6,-5Z" style="fill:#ff80b7;"/>
            </g>
            <g>
                <path d="M26,4c0,-0.53 -0.211,-1.039 -0.586,-1.414c-0.375,-0.375 -0.884,-0.586 -1.414,-0.586l-6,0c-0.53,0 -1.039,0.211 -1.414,0.586c-0.375,0.375 -0.586,0.884 -0.586,1.414l0,12c0,0.53 0.211,1.039 0.586,1.414c0.375,0.375 0.884,0.586 1.414,0.586l6,0c0.53,0 1.039,-0.211 1.414,-0.586c0.375,-0.375 0.586,-0.884 0.586,-1.414l0,-12Z" style="fill:#fff;"/>
                <path d="M23,3l1,0c0.552,0 1,0.448 1,1c0,2.577 0,9.423 0,12c0,0.55 -0.444,0.997 -0.994,1l-0.006,0l-1,-1l-4,0l-1,1c0,0 0,0 -0.001,0c-0.265,0 -0.519,-0.105 -0.706,-0.293c-0.188,-0.187 -0.293,-0.441 -0.293,-0.706c0,-2.576 0,-9.424 0,-12.001c0,-0.552 0.448,-1 1,-1l1,0l0,1l4,0l0,-1Z"/>
                <path d="M22,11c1.105,0 2,0.895 2,2l0,4l-6,0l0,-4c0,-1.105 0.895,-2 2,-2l2,0Zm-1,-5c1.104,0 2,0.896 2,2c0,1.104 -0.896,2 -2,2c-1.104,0 -2,-0.896 -2,-2c0,-1.104 0.896,-2 2,-2Z" style="fill:#333;"/>
            </g>
            <path d="M13,12.999c0,-1.775 1.177,-3.335 2.884,-3.823c1.929,-0.551 4.116,-1.176 4.116,-1.176l0,1.737c0,1.34 -0.888,2.517 -2.176,2.885c-2.055,0.587 -4.824,1.378 -4.824,1.378l0,-1.001Z" style="fill:#ff80b7;"/>
            <path d="M8.293,13.293l-2,2c-0.39,0.39 -0.39,1.024 0,1.414c0.39,0.39 1.024,0.39 1.414,0l2,-2c0.39,-0.39 0.39,-1.024 0,-1.414c-0.39,-0.39 -1.024,-0.39 -1.414,0Zm0.707,-2.293l-4,0c-0.552,0 -1,-0.448 -1,-1c0,-0.552 0.448,-1 1,-1l4,0c0.552,0 1,0.448 1,1c0,0.552 -0.448,1 -1,1Zm0.707,-5.707l-2,-2c-0.39,-0.39 -1.024,-0.39 -1.414,0c-0.39,0.39 -0.39,1.024 0,1.414l2,2c0.39,0.39 1.024,0.39 1.414,0c0.39,-0.39 0.39,-1.024 0,-1.414Z" style="fill:#fff;"/>
        </g>
    </g>
</svg>
