<?xml version="1.0" encoding="UTF-8" standalone="no"?>
<!DOCTYPE svg PUBLIC "-//W3C//DTD SVG 1.1//EN" "http://www.w3.org/Graphics/SVG/1.1/DTD/svg11.dtd">
<svg width="100%" height="100%" viewBox="0 0 32 32" version="1.1" xmlns="http://www.w3.org/2000/svg" xmlns:xlink="http://www.w3.org/1999/xlink" xml:space="preserve" xmlns:serif="http://www.serif.com/" style="fill-rule:evenodd;clip-rule:evenodd;stroke-linejoin:round;stroke-miterlimit:2;">
    <path id="thumbs_up--hoof-" serif:id="thumbs_up [hoof]" d="M32,0l0,32l-32,0l0,-32l32,0Z" style="fill:none;"/>
    <clipPath id="_clip1">
        <path d="M32,0l0,32l-32,0l0,-32l32,0Z"/>
    </clipPath>
    <g clip-path="url(#_clip1)">
        <g id="outline">
            <path d="M19.16,11l8.34,0c1.193,0 2.338,0.474 3.182,1.318c0.791,0.791 1.257,1.847 1.312,2.959l0.006,0.223c0,1.152 -0.433,2.204 -1.146,3c0.713,0.796 1.146,1.848 1.146,3l0,0c0,1.193 -0.474,2.338 -1.318,3.182c-0.558,0.558 -1.248,0.955 -1.997,1.159c0.203,0.513 0.315,1.072 0.315,1.657c0,0.001 0,0.003 0,0.004c0,2.484 -2.014,4.498 -4.498,4.498l-19.502,0c-2.209,0 -4,-1.791 -4,-4c0,-3.074 0,-8.926 0,-12c0,-2.209 1.791,-4 4,-4l2.256,0c0.234,-1.056 0.626,-2.075 1.167,-3.022c0.198,-0.345 0.408,-0.713 0.622,-1.088c1.642,-2.874 4.099,-5.198 7.06,-6.679c0.001,0 0.001,0 0.001,0c0.542,-0.271 1.179,-0.282 1.73,-0.028c0.551,0.253 0.957,0.743 1.104,1.332c0,0 0.177,0.706 0.382,1.526c0.482,1.928 0.508,3.942 0.077,5.883l-0.239,1.076Z"/>
        </g>
        <g id="emoji">
            <path d="M16,14l-11,0c-1.105,0 -2,0.895 -2,2c0,3.074 0,8.926 0,12c0,1.105 0.895,2 2,2c3.869,0 12,0 12,0l-1,-16Z" style="fill:#a90eb1;"/>
            <path d="M10.44,9.48l0.341,-0.597c1.447,-2.532 3.611,-4.579 6.219,-5.883c0,0 0,0 0,0c0,0 0.177,0.707 0.381,1.526c0.407,1.627 0.43,3.326 0.066,4.964l-0.481,2.165l-1.966,0.845l-4,-2l-0.56,-1.02Z" style="fill:#ff80b7;"/>
            <path d="M20.599,30l-3.599,0c-2.122,0 -4.157,-0.843 -5.657,-2.343c-1.5,-1.5 -2.343,-3.535 -2.343,-5.657l0,-7.662c0,-1.532 0.4,-3.038 1.16,-4.368l0.28,-0.49l6.526,2.175l-0.299,1.345l3.414,0l0.001,0c-1.523,0.733 0.517,17 0.517,17l0,0Z" style="fill:#f10dc3;"/>
            <path d="M26.824,14l2.176,0l0,8.5l-2,0l0,5l-2.647,0.5l-0.353,2c-1.134,0 -2.267,0 -3.401,0l-3.536,-2.829c-0.455,-0.364 -0.658,-0.959 -0.52,-1.526c0.137,-0.566 0.591,-1.002 1.163,-1.116l1.801,-0.36c-1.202,-0.515 -2.347,-1.174 -3.406,-1.969c-0.001,0 -0.001,0 -0.001,0c-0.434,-0.325 -0.658,-0.859 -0.587,-1.397c0.071,-0.537 0.427,-0.994 0.93,-1.196l1.982,-0.792l-1.719,-0.344c-0.543,-0.109 -0.981,-0.507 -1.142,-1.036c-0.16,-0.53 -0.016,-1.104 0.375,-1.496c0,0 0,0 0.001,0c1.217,-1.217 2.619,-2.205 4.141,-2.938l0,-0.001l6.919,0l-0.176,1Z" style="fill:#640082;"/>
            <path d="M24.502,25c1.38,0 2.498,1.118 2.498,2.498c0,0.001 0,0.003 0,0.004c0,1.38 -1.118,2.498 -2.498,2.498l-0.502,0c-0.647,0 -1.275,-0.22 -1.781,-0.625c-1.406,-1.124 -4.219,-3.375 -4.219,-3.375c0,0 2.564,-0.513 4.02,-0.804c0.652,-0.13 1.315,-0.196 1.98,-0.196l0.502,0Zm2.998,-6c1.381,0 2.5,1.119 2.5,2.5c0,0.663 -0.263,1.299 -0.732,1.768c-0.469,0.469 -1.105,0.732 -1.768,0.732c-0.473,0 -0.982,0 -1.501,0c-3.245,0 -6.402,-1.053 -8.998,-3c-0.001,0 -0.001,0 -0.001,0c0,0 0.955,-0.382 2.031,-0.812c1.961,-0.785 4.054,-1.188 6.167,-1.188l2.302,0Zm0,-1l-3.856,0c-1.093,0 -2.184,-0.108 -3.256,-0.322c-1.462,-0.293 -3.388,-0.678 -3.388,-0.678c0,0 0,0 0,0c2.561,-2.561 6.035,-4 9.656,-4c0.29,0 0.573,0 0.844,0c0.663,0 1.299,0.263 1.768,0.732c0.469,0.469 0.732,1.105 0.732,1.768c0,1.381 -1.119,2.5 -2.5,2.5Z" style="fill:#ff80b7;"/>
        </g>
    </g>
</svg>
