<?xml version="1.0" encoding="UTF-8" standalone="no"?>
<!DOCTYPE svg PUBLIC "-//W3C//DTD SVG 1.1//EN" "http://www.w3.org/Graphics/SVG/1.1/DTD/svg11.dtd">
<svg width="100%" height="100%" viewBox="0 0 32 32" version="1.1" xmlns="http://www.w3.org/2000/svg" xmlns:xlink="http://www.w3.org/1999/xlink" xml:space="preserve" xmlns:serif="http://www.serif.com/" style="fill-rule:evenodd;clip-rule:evenodd;stroke-linejoin:round;stroke-miterlimit:2;">
    <rect id="v--hoof-" serif:id="v [hoof]" x="0" y="0" width="32" height="32" style="fill:none;"/>
    <clipPath id="_clip1">
        <rect x="0" y="0" width="32" height="32"/>
    </clipPath>
    <g clip-path="url(#_clip1)">
        <g id="outline">
            <path d="M18.058,9.849c0.741,-2.453 1.783,-4.805 3.102,-7.003c0.606,-1.01 1.125,-1.875 1.125,-1.875c0.361,-0.602 1.012,-0.971 1.715,-0.971c0.703,0 1.354,0.369 1.715,0.971c0,0 0,0 0,0c2.201,3.668 2.754,8.092 1.525,12.188l-0.362,1.207c0.615,0.249 1.18,0.62 1.658,1.098c0.937,0.937 1.464,2.208 1.464,3.534c0,0.319 0,0.654 0,1.002c0,3.183 -1.264,6.235 -3.515,8.485c-2.25,2.251 -5.302,3.515 -8.485,3.515c0,0 -3,0 -3,0c-3.448,0 -6.754,-1.37 -9.192,-3.808c-2.438,-2.438 -3.808,-5.744 -3.808,-9.192c0,0 0,-4.002 0,-4.002c0,-2.76 2.238,-4.998 4.998,-4.998l0.002,0c0.427,0 0.841,0.053 1.236,0.154c-0.38,-3.074 0.268,-6.215 1.889,-8.916c0.101,-0.169 0.16,-0.267 0.16,-0.267c0.361,-0.602 1.012,-0.971 1.715,-0.971c0.703,0 1.354,0.369 1.715,0.971c0,0 1.162,1.937 2.04,3.4c0.713,1.189 1.294,2.452 1.732,3.767l0.571,1.711Z"/>
        </g>
        <g id="emoji">
            <path d="M25,16c1.657,0 3,1.343 3,3c0,0.318 0,0.653 0,1c0,2.652 -1.054,5.196 -2.929,7.071c-1.875,1.875 -4.419,2.929 -7.071,2.929l-3,0c-2.917,0 -5.715,-1.159 -7.778,-3.222c-2.063,-2.063 -3.222,-4.861 -3.222,-7.778c0,-1.751 0,-3 0,-3l8,0l-0.154,-0.462l2.154,-1.538l3.385,0.154l0.615,1.846l0.3,0l0.636,-2.119l3.064,0.119l1,0.628l1,2.372l1,-1Z" style="fill:#f10dc3;"/>
            <path d="M9.986,16c-0.036,0.89 -0.141,1.776 -0.316,2.651c-0.291,1.456 -0.67,3.349 -0.67,3.349c0,0 -0.697,-0.418 -1.57,-0.942c-1.839,-1.103 -3.061,-2.97 -3.359,-5.058l-0.071,0l0,-1.002c0,-0.795 0.316,-1.558 0.878,-2.12c0.562,-0.562 1.325,-0.878 2.12,-0.878l0.002,0c0.796,0 1.559,0.316 2.121,0.879c0.559,0.558 0.874,1.313 0.879,2.102l0,0.019l0,1l-0.014,0Zm1.86,-0.462l-1.101,-3.302c-1.107,-3.323 -0.708,-6.965 1.095,-9.969c0.101,-0.169 0.16,-0.267 0.16,-0.267c0,0 1.162,1.937 2.04,3.4c0.638,1.063 1.158,2.194 1.55,3.37l1.795,5.384l-5.539,1.384Zm12.165,-13.519c1.902,3.181 2.379,7.015 1.314,10.566l-0.425,1.415l-1.9,1.1l-4.064,-1.219l1.017,-3.391c0.695,-2.318 1.677,-4.54 2.922,-6.615c0.606,-1.01 1.125,-1.875 1.125,-1.875l0.011,0.019Z" style="fill:#ff80b7;"/>
            <path d="M24.9,14l-0.6,2l-2.3,7l0,2c-0.109,0 -0.219,-0.009 -0.329,-0.027c0,0 -0.683,-0.114 -1.589,-0.265c-3.389,-0.565 -6.305,-2.711 -7.853,-5.777l-0.018,-0.037c-0.25,-0.5 -0.279,-1.082 -0.08,-1.605c0.198,-0.523 0.607,-0.938 1.126,-1.146c0,0 0.956,-0.382 2.031,-0.812c2.198,-0.879 4.543,-1.331 6.91,-1.331l2.702,0Z" style="fill:#640082;"/>
            <path d="M14,18c0,0 0,0 0,0c1.257,2.513 3.64,4.273 6.411,4.735c0.906,0.151 1.589,0.265 1.589,0.265l3,-7l-2.802,0c-2.113,0 -4.206,0.403 -6.167,1.188c-1.076,0.43 -2.031,0.812 -2.031,0.812Z" style="fill:#ff80b7;"/>
        </g>
    </g>
</svg>
