<?xml version="1.0" encoding="UTF-8" standalone="no"?>
<!DOCTYPE svg PUBLIC "-//W3C//DTD SVG 1.1//EN" "http://www.w3.org/Graphics/SVG/1.1/DTD/svg11.dtd">
<svg width="100%" height="100%" viewBox="0 0 32 32" version="1.1" xmlns="http://www.w3.org/2000/svg" xmlns:xlink="http://www.w3.org/1999/xlink" xml:space="preserve" xmlns:serif="http://www.serif.com/" style="fill-rule:evenodd;clip-rule:evenodd;stroke-linejoin:round;stroke-miterlimit:2;">
    <rect id="wave--hoof-" serif:id="wave [hoof]" x="0" y="0" width="32" height="32" style="fill:none;"/>
    <g id="outline">
        <path d="M19.788,1.365c0.08,-0.108 0.169,-0.212 0.267,-0.31c1.074,-1.073 2.816,-1.073 3.89,0l2,2c0.756,0.757 0.979,1.846 0.669,2.799c1.79,1.616 3.077,3.722 3.694,6.067c0.342,1.297 0.65,2.468 0.65,2.468l0.012,0.053l0.015,0.064l0.004,0.019c0.897,4.517 -0.519,9.186 -3.777,12.443c-0.046,0.047 -0.093,0.094 -0.14,0.141c-2.438,2.437 -5.745,3.807 -9.192,3.807c-2.593,0 -5.106,-0.774 -7.23,-2.196c-0.122,0.442 -0.356,0.858 -0.702,1.206c-0.736,0.739 -1.791,0.971 -2.727,0.696c-0.082,0.113 -0.175,0.221 -0.276,0.323c-1.074,1.073 -2.816,1.073 -3.89,0l-2,-2c-1.073,-1.074 -1.073,-2.816 0,-3.89c0.098,-0.098 0.202,-0.187 0.31,-0.267c-0.278,-0.935 -0.05,-1.99 0.687,-2.729c0.566,-0.568 1.319,-0.837 2.062,-0.806c-0.807,-1.792 -1.236,-3.75 -1.236,-5.753l0,-1.221c0,-0.737 0.406,-1.415 1.056,-1.763c0.557,-0.298 1.215,-0.313 1.777,-0.054c-0.235,-1.02 -0.357,-2.071 -0.357,-3.135l0,-0.001c0,-0.672 0.338,-1.299 0.899,-1.669c0.561,-0.371 1.271,-0.434 1.889,-0.169l0.822,0.352l-0.352,-0.822c-0.265,-0.618 -0.202,-1.327 0.168,-1.888c0.37,-0.562 0.998,-0.899 1.67,-0.899l0.001,0c2.287,0 4.517,0.561 6.504,1.608c-0.972,-1.079 -0.938,-2.745 0.1,-3.784c0.74,-0.739 1.797,-0.969 2.733,-0.69Z"/>
    </g>
    <g id="emoji">
        <path d="M7.984,23.556c-1.995,-2.202 -3.106,-5.071 -3.106,-8.056l0,-1.221c0,0 1.261,0.841 2.314,1.543c0.931,0.621 1.799,1.333 2.591,2.124l1.905,1.906l-0.463,0.986l-2.233,2.202l-1.008,0.516Zm3.704,-4.943l-0.832,-0.832c-2.242,-2.242 -3.502,-5.283 -3.502,-8.454l0,-0.001c0,0 0.622,0.267 1.395,0.598c1.942,0.832 3.707,2.027 5.2,3.521l1.454,1.453l-0.385,1.09l-2.315,2.672l-1.015,-0.047Zm13.002,-11.763l0,0c-0.814,1.628 -1.238,3.424 -1.238,5.245c0,0.542 0,0.946 0,0.946l2.476,2.477l3.096,-0.62c0,0 -0.308,-1.171 -0.65,-2.468c-0.582,-2.214 -1.877,-4.175 -3.684,-5.58Zm-14.239,-0.619c3.171,0 6.212,1.259 8.454,3.501l0.832,0.832l-0.318,1.068l-2.591,2.364l-0.806,0.283l-1.454,-1.453c-1.493,-1.494 -2.688,-3.259 -3.52,-5.201c-0.332,-0.772 -0.598,-1.394 -0.598,-1.394l0.001,0Z" style="fill:#ff80b7;"/>
        <path d="M21.701,12.528l0.143,0.803l1.156,0.885l0.452,0.063l0,-1.238l5.572,1.857c0,0 0,0.001 0,0.001c0.774,3.868 -0.437,7.866 -3.226,10.655c-0.046,0.046 -0.093,0.093 -0.14,0.14c-2.063,2.063 -4.861,3.222 -7.778,3.222c-2.918,0 -5.716,-1.159 -7.779,-3.222l-2.128,-2.128l3.715,-3.714l0.619,0.619l0.619,-0.619l-1.238,-1.239l3.715,-3.715l1.238,1.239l0.619,-0.619l-1.238,-1.239l3.715,-3.715l1.964,1.964Z" style="fill:#f10dc3;"/>
        <path d="M23.195,14.536c-0.843,0.843 -1.051,2.13 -0.519,3.196c0.008,0.015 0.031,0.06 0.061,0.121c0.216,0.432 0.041,0.958 -0.391,1.174c0,0 -0.001,0 -0.001,0.001c-0.432,0.216 -0.958,0.041 -1.174,-0.391c-0.031,-0.062 -0.053,-0.106 -0.061,-0.122c-0.813,-1.627 -0.568,-3.569 0.591,-4.939l0,-1.048l1.751,1.751l-0.257,0.257Z" style="fill:#a90eb1;"/>
        <path d="M5.531,28.47c0.141,0.141 0.219,0.331 0.219,0.53c0,0.199 -0.078,0.389 -0.219,0.53c0,0 0,0 -0.001,0c-0.14,0.141 -0.331,0.22 -0.53,0.22c-0.199,0 -0.39,-0.079 -0.53,-0.22c-0.561,-0.56 -1.441,-1.44 -2.001,-2c-0.141,-0.141 -0.219,-0.331 -0.219,-0.53c0,-0.199 0.078,-0.389 0.219,-0.53c0,0 0,0 0.001,0c0.14,-0.141 0.331,-0.22 0.53,-0.22c0.199,0 0.39,0.079 0.53,0.22c0.561,0.56 1.441,1.44 2.001,2Zm2.999,-1.016c0.293,0.292 0.294,0.766 0.002,1.059c0,0.001 -0.001,0.001 -0.001,0.002c-0.292,0.293 -0.767,0.294 -1.06,0.002c-0.972,-0.969 -3.029,-3.018 -4.001,-3.986c-0.293,-0.292 -0.294,-0.767 -0.002,-1.06c0,0 0.001,-0.001 0.001,-0.001c0.292,-0.293 0.767,-0.294 1.06,-0.002c0.972,0.969 3.029,3.017 4.001,3.986Zm14,-20.984c0.141,0.14 0.22,0.331 0.22,0.53c0,0.199 -0.079,0.39 -0.22,0.53c-0.14,0.141 -0.331,0.22 -0.53,0.22c-0.199,0 -0.39,-0.079 -0.53,-0.22c-0.779,-0.778 -2.222,-2.221 -3,-3c-0.141,-0.14 -0.22,-0.331 -0.22,-0.53c0,-0.199 0.079,-0.39 0.22,-0.53c0.14,-0.141 0.331,-0.22 0.53,-0.22c0.199,0 0.39,0.079 0.53,0.22c0.779,0.778 2.222,2.221 3,3Zm2.001,-2c0.141,0.141 0.219,0.331 0.219,0.53c0,0.199 -0.078,0.389 -0.219,0.53c0,0 -0.001,0.001 -0.001,0.001c-0.141,0.141 -0.331,0.219 -0.53,0.219c-0.199,0 -0.389,-0.078 -0.53,-0.219c-0.56,-0.56 -1.44,-1.44 -2,-2.001c-0.141,-0.14 -0.22,-0.331 -0.22,-0.53c0,-0.199 0.079,-0.39 0.22,-0.53c0,-0.001 0,-0.001 0,-0.001c0.141,-0.141 0.331,-0.219 0.53,-0.219c0.199,0 0.389,0.078 0.53,0.219c0.56,0.561 1.44,1.441 2.001,2.001Z" style="fill:#565656;"/>
    </g>
</svg>
