<?xml version="1.0" encoding="UTF-8" standalone="no"?><!DOCTYPE svg PUBLIC "-//W3C//DTD SVG 1.1//EN" "http://www.w3.org/Graphics/SVG/1.1/DTD/svg11.dtd"><svg width="100%" height="100%" viewBox="0 0 32 32" version="1.1" xmlns="http://www.w3.org/2000/svg" xmlns:xlink="http://www.w3.org/1999/xlink" xml:space="preserve" style="fill-rule:evenodd;clip-rule:evenodd;stroke-linejoin:round;stroke-miterlimit:1.41421;"><rect id="_5_30" x="0" y="0" width="32" height="32" style="fill:none;"/><g id="outline"><circle cx="16" cy="16" r="16"/></g><g id="emoji"><circle cx="16" cy="16" r="14" style="fill:#fff;"/><path d="M16.05,15.001c0.062,0.005 0.123,0.012 0.185,0.027c0.182,0.044 0.35,0.14 0.481,0.274c0.059,0.06 0.106,0.127 0.15,0.198l3,5.196l-1.732,1l-1.134,-1.964l0,6.268l-2,0l0,-10l0.002,-0.062c0.01,-0.105 0.029,-0.205 0.067,-0.303c0.099,-0.253 0.302,-0.459 0.554,-0.561c0.098,-0.04 0.198,-0.06 0.302,-0.071c0.063,-0.003 0.063,-0.003 0.125,-0.002Z" style="fill-rule:nonzero;"/></g></svg>