<?xml version="1.0" encoding="UTF-8" standalone="no"?><!DOCTYPE svg PUBLIC "-//W3C//DTD SVG 1.1//EN" "http://www.w3.org/Graphics/SVG/1.1/DTD/svg11.dtd"><svg width="100%" height="100%" viewBox="0 0 32 32" version="1.1" xmlns="http://www.w3.org/2000/svg" xmlns:xlink="http://www.w3.org/1999/xlink" xml:space="preserve" style="fill-rule:evenodd;clip-rule:evenodd;stroke-linejoin:round;stroke-miterlimit:1.41421;"><rect id="_7_30" x="0" y="0" width="32" height="32" style="fill:none;"/><g id="outline"><circle cx="16" cy="16" r="16"/></g><g id="emoji"><circle cx="16" cy="16" r="14" style="fill:#fff;"/><path d="M16.075,15.003c0.104,0.011 0.204,0.031 0.302,0.071c0.272,0.11 0.485,0.34 0.575,0.619c0.032,0.101 0.045,0.202 0.048,0.307l0,10l-2,0l0,-6.268l-1.134,1.964l-1.732,-1l3,-5.196l0.033,-0.053c0.048,-0.068 0.1,-0.132 0.162,-0.188c0.123,-0.112 0.275,-0.192 0.436,-0.231c0.062,-0.015 0.123,-0.022 0.185,-0.027c0.062,-0.001 0.062,-0.001 0.125,0.002Z" style="fill-rule:nonzero;"/></g></svg>