<?xml version="1.0" encoding="UTF-8" standalone="no"?><!DOCTYPE svg PUBLIC "-//W3C//DTD SVG 1.1//EN" "http://www.w3.org/Graphics/SVG/1.1/DTD/svg11.dtd"><svg width="100%" height="100%" viewBox="0 0 32 32" version="1.1" xmlns="http://www.w3.org/2000/svg" xmlns:xlink="http://www.w3.org/1999/xlink" xml:space="preserve" style="fill-rule:evenodd;clip-rule:evenodd;stroke-linejoin:round;stroke-miterlimit:1.41421;"><rect id="_8_30" x="0" y="0" width="32" height="32" style="fill:none;"/><g id="outline"><circle cx="16" cy="16" r="16"/></g><g id="emoji"><circle cx="16" cy="16" r="14" style="fill:#fff;"/><path d="M16.031,15c0.103,0.007 0.203,0.022 0.301,0.057c0.274,0.096 0.496,0.312 0.6,0.582c0.046,0.116 0.064,0.237 0.068,0.361l0,10l-2,0l0,-8.268l-3.696,2.134l-1,-1.732l5.196,-3l0.054,-0.029c0.057,-0.026 0.112,-0.05 0.172,-0.067c0.06,-0.017 0.12,-0.026 0.182,-0.034c0.061,-0.004 0.061,-0.004 0.123,-0.004Z" style="fill-rule:nonzero;"/></g></svg>