<?xml version="1.0" encoding="UTF-8" standalone="no"?><!DOCTYPE svg PUBLIC "-//W3C//DTD SVG 1.1//EN" "http://www.w3.org/Graphics/SVG/1.1/DTD/svg11.dtd"><svg width="100%" height="100%" viewBox="0 0 32 32" version="1.1" xmlns="http://www.w3.org/2000/svg" xmlns:xlink="http://www.w3.org/1999/xlink" xml:space="preserve" xmlns:serif="http://www.serif.com/" style="fill-rule:evenodd;clip-rule:evenodd;stroke-linecap:square;stroke-linejoin:round;stroke-miterlimit:3;"><path id="musical_score" d="M0,0l0,32l32,0l0,-32l-32,0Z" style="fill:none;"/><clipPath id="_clip1"><path d="M0,0l0,32l32,0l0,-32l-32,0Z"/></clipPath><g clip-path="url(#_clip1)"><g id="outline"><path d="M9,9l0,-1c0,0 0,-0.066 0,-0.179c0,-1.75 0.918,-3.372 2.419,-4.272c1.276,-0.766 2.581,-1.549 2.581,-1.549c0,0 0.086,1.205 0.187,2.616c0.11,1.54 -0.216,3.054 -0.908,4.384l16.721,0l0,17l-19.5,0c0,0.796 -0.316,1.559 -0.879,2.121c-0.562,0.563 -1.325,0.879 -2.121,0.879c-0.167,0 -0.335,0 -0.5,0c-1.381,0 -2.5,-1.119 -2.5,-2.5c0,-0.009 0,-0.018 0,-0.027c0,-0.163 0.027,-0.322 0.078,-0.473l-2.578,0l0,-17l7,0Zm-0.076,17l-1.502,0c0.051,0.151 0.078,0.31 0.078,0.473c0,0.3 0,0.527 0,0.527c0,0 0.012,0 0.034,0c0.646,0 1.195,-0.419 1.39,-1Zm1.701,-17l0.846,-0.712c0.969,-0.817 1.529,-2.02 1.529,-3.288c0,0 0,0 0,0c0,0 -0.986,0.789 -1.719,1.375c-0.494,0.395 -0.781,0.993 -0.781,1.625l0,1l0.125,0Z" style="fill:none;stroke:#000;stroke-width:4px;"/><rect x="6.59" y="25" width="3.133" height="3.014"/></g><g id="emoji"><path d="M30,24l-1,-1l-26,0l-1,1l0,2l28,0l0,-2Z" style="fill:#737373;"/><path d="M30,9l-28,0l0,3l0.394,0.512l-0.394,0.488l0,3l0.359,0.564l-0.359,0.436l0,3l0.43,0.562l-0.43,0.438l0,3l28,0l0,-3l-0.484,-0.492l0.484,-0.508l0,-3l-0.484,-0.634l0.484,-0.366l0,-3l-0.43,-0.541l0.43,-0.459l0,-3Z" style="fill:#fff;"/><rect x="2" y="20" width="28" height="1" style="fill:#b0b0b0;"/><rect x="2" y="16" width="28" height="1" style="fill:#b0b0b0;"/><rect x="2" y="12" width="28" height="1" style="fill:#b0b0b0;"/><path d="M9,8l0,-0.179c0,-1.75 0.918,-3.372 2.419,-4.272c1.276,-0.766 2.581,-1.549 2.581,-1.549c0,0 0.086,1.205 0.187,2.616c0.196,2.739 -0.988,5.396 -3.157,7.083l-0.53,0.412l0,1.911c0.146,-0.015 0.294,-0.022 0.445,-0.022c0.037,0 0.073,0 0.11,0c2.455,0 4.445,1.99 4.445,4.445c0,0.018 0,0.036 0,0.054c0,2.869 -2.197,5.225 -5,5.478l0,2.023c0,0.796 -0.316,1.559 -0.879,2.121c-0.562,0.563 -1.325,0.879 -2.121,0.879c-0.167,0 -0.335,0 -0.5,0c-1.381,0 -2.5,-1.119 -2.5,-2.5c0,-0.009 0,-0.018 0,-0.027c0,-0.391 0.155,-0.765 0.431,-1.042c0.277,-0.276 0.651,-0.431 1.042,-0.431c0.018,0 0.036,0 0.054,0c0.391,0 0.765,0.155 1.042,0.431c0.276,0.277 0.431,0.651 0.431,1.042c0,0.3 0,0.527 0,0.527c0,0 0.012,0 0.034,0c0.809,0 1.466,-0.656 1.466,-1.466c0,-0.304 0,-0.534 0,-0.534l0,-1l-0.074,0c-2.997,0 -5.426,-2.429 -5.426,-5.426c0,-0.001 0,-0.001 0,-0.002c0,-2.265 1,-4.414 2.732,-5.873l2.768,-2.331l0,-2.368Zm0,5.278l-1.516,1.179c-1.252,0.973 -1.984,2.471 -1.984,4.057c0,0.176 0,0.354 0,0.532c0,0.783 0.311,1.535 0.865,2.089c0.554,0.554 1.306,0.865 2.089,0.865l0.546,0l0,-4.323c-0.311,0.353 -0.5,0.816 -0.5,1.323l0,2l0,0c-1.105,0 -2,-0.895 -2,-2c0,-0.179 0,-0.365 0,-0.555c0,-1.758 1.02,-3.277 2.5,-3.998l0,-1.169Zm1.5,3.722l0,4.855c1.161,-0.382 2,-1.476 2,-2.765c0,-0.031 0,-0.061 0,-0.092c0,-1.103 -0.895,-1.998 -1.998,-1.998l-0.002,0Zm0,-7.895l0.971,-0.817c0.969,-0.817 1.529,-2.02 1.529,-3.288c0,0 0,0 0,0c0,0 -0.986,0.789 -1.719,1.375c-0.494,0.395 -0.781,0.993 -0.781,1.625l0,1.105Z" style="fill:#199d4e;"/></g></g></svg>