<?xml version="1.0" encoding="UTF-8" standalone="no"?><!DOCTYPE svg PUBLIC "-//W3C//DTD SVG 1.1//EN" "http://www.w3.org/Graphics/SVG/1.1/DTD/svg11.dtd"><svg width="100%" height="100%" viewBox="0 0 32 32" version="1.1" xmlns="http://www.w3.org/2000/svg" xmlns:xlink="http://www.w3.org/1999/xlink" xml:space="preserve" xmlns:serif="http://www.serif.com/" style="fill-rule:evenodd;clip-rule:evenodd;stroke-linejoin:round;stroke-miterlimit:1.41421;"><rect id="arrow_up_left" x="0" y="0" width="32" height="32" style="fill:none;"/><g id="outline"><path d="M23,10l-8.172,0l12.971,12.971l0,2.029l-2.828,2.799l-14.971,-14.971l0,10.172l-4,0l0,-19l17,0l0,6Z" style="fill-rule:nonzero;stroke:#000;stroke-width:4px;"/></g><g id="emoji"><path d="M23,10l-11,0l0,-3l10,0l1,1l0,2Z" style="fill:#747474;"/><path d="M10,23l-4,0l0,-2l0.5,-0.5l3,0l0.5,0.5l0,2Z" style="fill:#747474;"/><path d="M27.799,22.971l-17.799,-15.799l-2.828,2.828l17.799,17.799l2.828,-2.799l0,-2.029Z" style="fill:#747474;fill-rule:nonzero;"/><path d="M10,10.828l0,10.172l-4,0l0,-17l17,0l0,4l-10.172,0l14.971,14.971l-2.828,2.828l-14.971,-14.971Z" style="fill:#fff;fill-rule:nonzero;"/></g></svg>