<?xml version="1.0" encoding="UTF-8" standalone="no"?><!DOCTYPE svg PUBLIC "-//W3C//DTD SVG 1.1//EN" "http://www.w3.org/Graphics/SVG/1.1/DTD/svg11.dtd"><svg width="100%" height="100%" viewBox="0 0 32 32" version="1.1" xmlns="http://www.w3.org/2000/svg" xmlns:xlink="http://www.w3.org/1999/xlink" xml:space="preserve" xmlns:serif="http://www.serif.com/" style="fill-rule:evenodd;clip-rule:evenodd;stroke-linejoin:round;stroke-miterlimit:1.41421;"><path id="arrows_clockwise" d="M32,0l0,32l-32,0l0,-32l32,0Z" style="fill:none;"/><clipPath id="_clip1"><path d="M32,0l0,32l-32,0l0,-32l32,0Z"/></clipPath><g clip-path="url(#_clip1)"><g id="outline"><path d="M11,20c0,2.761 2.239,5 5,5c0,0 0,0 0,0l0,5l0,0c-4.418,0 -8,-3.582 -8,-8l0,-10.379c0,0 -3.5,3.5 -3.5,3.5l-2.121,-2.121l0,-2l7.121,-7.121l7.121,7.121l0,2l-2.121,2.121l-3.5,-3.5l0,8.379Zm10,-8.002c0,-1.326 -0.527,-2.597 -1.464,-3.534c-0.937,-0.937 -2.208,-1.464 -3.534,-1.464c-0.001,0 -0.002,0 -0.002,0l0,-5c0,0 0.001,0 0.002,0c2.121,0 4.156,0.843 5.655,2.343c1.5,1.499 2.343,3.534 2.343,5.655l0,10.381l3.5,-3.5l2.121,2.121l0,2l-7.121,7.121l-7.121,-7.121l0,-2l2.121,-2.121l3.5,3.5l0,-8.381Z" style="fill:none;stroke:#000;stroke-width:4px;"/><rect x="11" y="8" width="9" height="15"/></g><g id="emoji"><path d="M16,5l1,-1l5,2l0,6l-1,0c0,0 0,-0.001 0,-0.002c0,-1.326 -0.527,-2.597 -1.464,-3.534c-0.937,-0.937 -2.208,-1.464 -3.534,-1.464c-0.001,0 -0.002,0 -0.002,0l0,-2Z" style="fill:#747474;fill-rule:nonzero;"/><path d="M16,30c0,0 0,0 0,0c-4.418,0 -8,-3.582 -8,-8c0,-1.703 0,-3 0,-3l2,0l0,4l6,5l0,2Z" style="fill:#747474;fill-rule:nonzero;"/><path d="M21,22.379l3,0l3.5,-3.5l2.121,0.121l0,2l-7.121,7.121l-7.121,-7.121l0,-2l2.121,-0.121l3.5,3.5Z" style="fill:#747474;fill-rule:nonzero;"/><path d="M8,11.621l-3.5,3.5l-2.121,-2.121l0,-2l7.121,-3.121l7.121,3.121l0,2l-2.121,2.121l-3.5,-3.5l-3,0Z" style="fill:#747474;fill-rule:nonzero;"/><path d="M21,20.379l0,-10.379c0,-2.761 -2.239,-5 -5,-5c0,0 0,0 0,0l0,-3c0,0 0.001,0 0.002,0c2.121,0 4.156,0.843 5.655,2.343c1.5,1.499 2.343,3.534 2.343,5.655l0,10.381l3.5,-3.5l2.121,2.121l-7.121,7.121l-7.121,-7.121l2.121,-2.121l3.5,3.5Z" style="fill:#fff;fill-rule:nonzero;"/><path d="M8,9.621l-3.5,3.5l-2.121,-2.121l7.121,-7.121l7.121,7.121l-2.121,2.121l-3.5,-3.5l0,10.379c0,2.761 2.239,5 5,5c0,0 0,0 0,0l0,3l0,0c-4.418,0 -8,-3.582 -8,-8l0,-10.379Z" style="fill:#fff;fill-rule:nonzero;"/></g></g></svg>