<?xml version="1.0" encoding="UTF-8" standalone="no"?><!DOCTYPE svg PUBLIC "-//W3C//DTD SVG 1.1//EN" "http://www.w3.org/Graphics/SVG/1.1/DTD/svg11.dtd"><svg width="100%" height="100%" viewBox="0 0 32 32" version="1.1" xmlns="http://www.w3.org/2000/svg" xmlns:xlink="http://www.w3.org/1999/xlink" xml:space="preserve" xmlns:serif="http://www.serif.com/" style="fill-rule:evenodd;clip-rule:evenodd;stroke-linejoin:round;stroke-miterlimit:1.41421;"><path id="arrow_up_down" d="M32,32l0,-32l-32,0l0,32l32,0Z" style="fill:none;"/><clipPath id="_clip1"><path d="M32,32l0,-32l-32,0l0,32l32,0Z"/></clipPath><g clip-path="url(#_clip1)"><g id="outline"><path d="M15,9.621l-3.5,3.5l-2.121,-2.121l0,-2l7.121,-7.121l7.121,7.121l0,2l-2.121,2.121l-3.5,-3.5l0,12.758l3.5,-3.5l2.121,2.121l0,2l-7.121,7.121l-7.121,-7.121l0,-2l2.121,-2.121l3.5,3.5l0,-12.758Z" style="fill:none;stroke:#000;stroke-width:4px;"/></g><g id="emoji"><path d="M16,8.621l-4.5,4.5l-2.121,-2.121l0,-2l7.121,-6.121l7.121,6.121l0,2l-2.121,2.121l-4.5,-4.5l0,16.758l4.5,-4.5l2.121,0.121l0,2l-7.121,7.121l-7.121,-7.121l0,-2l2.121,-0.121l4.5,4.5l0,-16.758Z" style="fill:#747474;fill-rule:nonzero;"/><path d="M15,7.621l-3.5,3.5l-2.121,-2.121l7.121,-7.121l7.121,7.121l-2.121,2.121l-3.5,-3.5l0,14.758l3.5,-3.5l2.121,2.121l-7.121,7.121l-7.121,-7.121l2.121,-2.121l3.5,3.5l0,-14.758Z" style="fill:#fff;fill-rule:nonzero;"/></g></g></svg>