<?xml version="1.0" encoding="UTF-8" standalone="no"?><!DOCTYPE svg PUBLIC "-//W3C//DTD SVG 1.1//EN" "http://www.w3.org/Graphics/SVG/1.1/DTD/svg11.dtd"><svg width="100%" height="100%" viewBox="0 0 32 32" version="1.1" xmlns="http://www.w3.org/2000/svg" xmlns:xlink="http://www.w3.org/1999/xlink" xml:space="preserve" xmlns:serif="http://www.serif.com/" style="fill-rule:evenodd;clip-rule:evenodd;stroke-linejoin:round;stroke-miterlimit:1.41421;"><rect id="arrow_up" x="0" y="0" width="32" height="32" style="fill:none;"/><g id="outline"><path d="M14,11.828l-7,7l-2.828,-2.828l0,-2l11.828,-11.828l11.828,11.828l0,2l-2.828,2.828l-7,-7l0,17.172l-4,0l0,-17.172Z" style="fill:none;stroke:#000;stroke-width:4px;"/></g><g id="emoji"><path d="M18,26l-1,-1l-2,0l-1,1l0,3l4,0l0,-3Z" style="fill:#747474;"/><path d="M27.828,16l-2.828,2.828l-9,-9l-9,9l-2.828,-2.828l0,-2l11.828,-9.828l11.828,9.828l0,2Z" style="fill:#747474;fill-rule:nonzero;"/><path d="M14,9.828l-7,7l-2.828,-2.828l11.828,-11.828l11.828,11.828l-2.828,2.828l-7,-7l0,16.172l-4,0l0,-16.172Z" style="fill:#fff;fill-rule:nonzero;"/></g></svg>