<?xml version="1.0" encoding="UTF-8" standalone="no"?><!DOCTYPE svg PUBLIC "-//W3C//DTD SVG 1.1//EN" "http://www.w3.org/Graphics/SVG/1.1/DTD/svg11.dtd"><svg width="100%" height="100%" viewBox="0 0 32 32" version="1.1" xmlns="http://www.w3.org/2000/svg" xmlns:xlink="http://www.w3.org/1999/xlink" xml:space="preserve" xmlns:serif="http://www.serif.com/" style="fill-rule:evenodd;clip-rule:evenodd;stroke-linejoin:round;stroke-miterlimit:1.41421;"><rect id="arrow_left_right" x="0" y="0" width="32" height="32" style="fill:none;"/><clipPath id="_clip1"><rect x="0" y="0" width="32" height="32"/></clipPath><g clip-path="url(#_clip1)"><g id="outline"><path d="M9.621,19l1.5,1.5l0,2l-2.121,2.121l-7.121,-7.121l0,-2l7.121,-7.121l2.121,2.121l0,2l-1.5,1.5l12.758,0l-1.5,-1.5l0,-2l2.121,-2.121l7.121,7.121l0,2l-7.121,7.121l-2.121,-2.121l0,-2l1.5,-1.5l-12.758,0Z" style="fill:#747474;fill-rule:nonzero;stroke:#000;stroke-width:4px;"/></g><g id="emoji"><path d="M7.621,19l3.5,1.5l0,2l-2.121,2.121l-7.121,-7.121l0,-2l7.121,-5.121l2.121,0.121l0,2l-3.5,3.5l16.758,0l-3.5,-3.5l0,-2l2.121,-0.121l7.121,5.121l0,2l-7.121,7.121l-2.121,-2.121l0,-2l3.5,-1.5l-16.758,0Z" style="fill:#747474;fill-rule:nonzero;"/><path d="M7.621,17l3.5,3.5l-2.121,2.121l-7.121,-7.121l7.121,-7.121l2.121,2.121l-3.5,3.5l16.758,0l-3.5,-3.5l2.121,-2.121l7.121,7.121l-7.121,7.121l-2.121,-2.121l3.5,-3.5l-16.758,0Z" style="fill:#fff;fill-rule:nonzero;"/></g></g></svg>