<?xml version="1.0" encoding="UTF-8" standalone="no"?><!DOCTYPE svg PUBLIC "-//W3C//DTD SVG 1.1//EN" "http://www.w3.org/Graphics/SVG/1.1/DTD/svg11.dtd"><svg width="100%" height="100%" viewBox="0 0 32 32" version="1.1" xmlns="http://www.w3.org/2000/svg" xmlns:xlink="http://www.w3.org/1999/xlink" xml:space="preserve" xmlns:serif="http://www.serif.com/" style="fill-rule:evenodd;clip-rule:evenodd;stroke-linejoin:round;stroke-miterlimit:1.41421;"><rect id="arrow_down" x="0" y="0" width="32" height="32" style="fill:none;"/><clipPath id="_clip1"><rect x="0" y="0" width="32" height="32"/></clipPath><g clip-path="url(#_clip1)"><g id="outline"><path d="M14,20.343l0,-17.171l4,0l0,17.171l7,-7l2.828,2.829l0,2l-11.828,11.828l-11.828,-11.828l0,-2l2.828,-2.829l7,7Z" style="fill:none;stroke:#000;stroke-width:4px;"/></g><g id="emoji"><path d="M27.828,16.172l-2.828,-0.829l-9,9l-9,-9l-2.828,0.829l0,2l11.828,11.828l11.828,-11.828l0,-2Z" style="fill:#747474;fill-rule:nonzero;"/><path d="M18,20.343l7,-7l2.828,2.829l-11.828,11.828l-11.828,-11.828l2.828,-2.829l7,7l0,-17.171l4,0l0,17.171Z" style="fill:#fff;fill-rule:nonzero;"/></g></g></svg>