<?xml version="1.0" encoding="UTF-8" standalone="no"?><!DOCTYPE svg PUBLIC "-//W3C//DTD SVG 1.1//EN" "http://www.w3.org/Graphics/SVG/1.1/DTD/svg11.dtd"><svg width="100%" height="100%" viewBox="0 0 32 32" version="1.1" xmlns="http://www.w3.org/2000/svg" xmlns:xlink="http://www.w3.org/1999/xlink" xml:space="preserve" xmlns:serif="http://www.serif.com/" style="fill-rule:evenodd;clip-rule:evenodd;stroke-linejoin:round;stroke-miterlimit:1.41421;"><path id="arrow_curve_down" d="M32,0l0,32l-32,0l0,-32l32,0Z" style="fill:none;"/><g id="outline"><path d="M17,19.172l-5,-5l-2.828,2.828l0,2l9.828,9.828l9.828,-9.828l0,-2l-2.828,-2.828l-5,5l0,-7.172c0,-2.652 -1.054,-5.196 -2.929,-7.071c-1.875,-1.875 -4.419,-2.929 -7.071,-2.929c-3.695,0 -7,0 -7,0l0,6c0,0 3.592,0 7,0c3.314,0 6,2.686 6,6l0,5.172Z" style="fill:none;stroke:#000;stroke-width:4px;"/></g><g id="emoji"><path d="M18,21.172l-8.828,-4.172l0,2l9.828,9.828l9.828,-9.828l0,-2l-8.828,4.172l0,-10.172l-6,-7l-10,0l0,4c0,0 3.592,0 7,0c3.314,0 6,2.686 6,6l1,2l0,5.172Z" style="fill:#747474;fill-rule:nonzero;"/><path d="M4,6l0,-4c0,0 3.305,0 7,0c2.652,0 5.196,1.054 7.071,2.929c1.875,1.875 2.929,4.419 2.929,7.071l0,7.172l5,-5l2.828,2.828l-9.828,9.828l-9.828,-9.828l2.828,-2.828l5,5l0,-7.172c0,-3.314 -2.686,-6 -6,-6l-7,0Z" style="fill:#fff;"/></g></svg>