<?xml version="1.0" encoding="UTF-8" standalone="no"?><!DOCTYPE svg PUBLIC "-//W3C//DTD SVG 1.1//EN" "http://www.w3.org/Graphics/SVG/1.1/DTD/svg11.dtd"><svg width="100%" height="100%" viewBox="0 0 32 32" version="1.1" xmlns="http://www.w3.org/2000/svg" xmlns:xlink="http://www.w3.org/1999/xlink" xml:space="preserve" xmlns:serif="http://www.serif.com/" style="fill-rule:evenodd;clip-rule:evenodd;stroke-linejoin:round;stroke-miterlimit:1.41421;"><rect id="end" x="0" y="0" width="32" height="32" style="fill:none;"/><clipPath id="_clip1"><rect x="0" y="0" width="32" height="32"/></clipPath><g clip-path="url(#_clip1)"><g id="outline"><path d="M0,22c0,-1.591 0.632,-3.117 1.757,-4.243c1.126,-1.125 2.652,-1.757 4.243,-1.757c5.718,0 14.282,0 20,0c3.314,0 6,2.686 6,6c0,1.308 0,2.692 0,4c0,1.591 -0.632,3.117 -1.757,4.243c-1.126,1.125 -2.652,1.757 -4.243,1.757c-5.718,0 -14.282,0 -20,0c-1.591,0 -3.117,-0.632 -4.243,-1.757c-1.125,-1.126 -1.757,-2.652 -1.757,-4.243c0,-1.308 0,-2.692 0,-4Z"/><rect x="13" y="14" width="14" height="3"/><path d="M28,13l0,-5l-16.379,0l1.5,-1.5l0,-2l-2.121,-2.121l-7.121,7.121l0,2l7.121,7.121l2.121,-2.121l0,-2l-1.5,-1.5l16.379,0Z" style="fill:#747474;fill-rule:nonzero;stroke:#000;stroke-width:4px;"/></g><g id="emoji"><path d="M28,13l0,-2l-2,-1l-16.379,0l3.5,-3.5l0,-2l-2.121,-0.121l-7.121,5.121l0,2l7.121,7.121l2.121,-2.121l0,-2l-3.5,-1.5l18.379,0Z" style="fill:#747474;fill-rule:nonzero;"/><path d="M9.621,11l3.5,3.5l-2.121,2.121l-7.121,-7.121l7.121,-7.121l2.121,2.121l-3.5,3.5l18.379,0l0,3l-18.379,0Z" style="fill:#fff;fill-rule:nonzero;"/><path d="M2,22c0,-1.061 0.421,-2.078 1.172,-2.828c0.75,-0.751 1.767,-1.172 2.828,-1.172c5.322,0 14.678,0 20,0c1.061,0 2.078,0.421 2.828,1.172c0.751,0.75 1.172,1.767 1.172,2.828c0,1.287 0,2.713 0,4c0,1.061 -0.421,2.078 -1.172,2.828c-0.75,0.751 -1.767,1.172 -2.828,1.172c-5.322,0 -14.678,0 -20,0c-1.061,0 -2.078,-0.421 -2.828,-1.172c-0.751,-0.75 -1.172,-1.767 -1.172,-2.828c0,-1.287 0,-2.713 0,-4Z" style="fill:#666;"/><path d="M7.176,21.423l0,1.916l3.485,0l0,1.277l-3.485,0l0,1.983l4.056,0l0,1.278l-5.523,0l0,-7.731l5.523,0l0,1.277l-4.056,0Z" style="fill:#fff;fill-rule:nonzero;"/><path d="M18.796,20.146l0,7.731l-1.468,0l-3.574,-5.121l0,5.121l-1.468,0l0,-7.731l1.468,0l3.574,5.131l0,-5.131l1.468,0Z" style="fill:#fff;fill-rule:nonzero;"/><path d="M20.118,20.146l3.014,0c1.03,0 1.828,0.276 2.392,0.829c0.564,0.553 0.846,1.404 0.846,2.554l0,0.953c0,1.15 -0.288,2.004 -0.863,2.56c-0.575,0.557 -1.386,0.835 -2.431,0.835l-2.958,0l0,-7.731Zm3.002,6.453c0.605,0 1.054,-0.169 1.345,-0.509c0.291,-0.34 0.437,-0.876 0.437,-1.608l0,-0.874c0,-0.762 -0.146,-1.317 -0.437,-1.664c-0.291,-0.347 -0.74,-0.521 -1.345,-0.521l-1.535,0l0,5.176l1.535,0Z" style="fill:#fff;fill-rule:nonzero;"/></g></g></svg>