<?xml version="1.0" encoding="UTF-8" standalone="no"?><!DOCTYPE svg PUBLIC "-//W3C//DTD SVG 1.1//EN" "http://www.w3.org/Graphics/SVG/1.1/DTD/svg11.dtd"><svg width="100%" height="100%" viewBox="0 0 32 32" version="1.1" xmlns="http://www.w3.org/2000/svg" xmlns:xlink="http://www.w3.org/1999/xlink" xml:space="preserve" xmlns:serif="http://www.serif.com/" style="fill-rule:evenodd;clip-rule:evenodd;stroke-linejoin:round;stroke-miterlimit:1.41421;"><rect id="on_arrow" x="0" y="0" width="32" height="32" style="fill:none;"/><clipPath id="_clip1"><rect x="0" y="0" width="32" height="32"/></clipPath><g clip-path="url(#_clip1)"><g id="outline"><path d="M30,22c0,-3.314 -2.686,-6 -6,-6c-4.724,0 -11.276,0 -16,0c-3.314,0 -6,2.686 -6,6c0,1.308 0,2.692 0,4c0,3.314 2.686,6 6,6c4.724,0 11.276,0 16,0c3.314,0 6,-2.686 6,-6c0,-1.308 0,-2.692 0,-4Z"/><rect x="8" y="14.5" width="13" height="4"/><path d="M9.621,13l1.5,1.5l0,2l-2.121,2.121l-7.121,-7.121l0,-2l7.121,-7.121l2.121,2.121l0,2l-1.5,1.5l12.758,0l-1.5,-1.5l0,-2l2.121,-2.121l7.121,7.121l0,2l-7.121,7.121l-2.121,-2.121l0,-2l1.5,-1.5l-12.758,0Z" style="fill:#747474;fill-rule:nonzero;stroke:#000;stroke-width:4px;"/></g><g id="emoji"><path d="M7.621,13l3.5,1.5l0,2l-2.121,2.121l-7.121,-7.121l0,-2l7.121,-5.121l2.121,0.121l0,2l-3.5,3.5l16.758,0l-3.5,-3.5l0,-2l2.121,-0.121l7.121,5.121l0,2l-7.121,7.121l-2.121,-2.121l0,-2l3.5,-1.5l-16.758,0Z" style="fill:#747474;fill-rule:nonzero;"/><path d="M7.621,11l3.5,3.5l-2.121,2.121l-7.121,-7.121l7.121,-7.121l2.121,2.121l-3.5,3.5l16.758,0l-3.5,-3.5l2.121,-2.121l7.121,7.121l-7.121,7.121l-2.121,-2.121l3.5,-3.5l-16.758,0Z" style="fill:#fff;fill-rule:nonzero;"/><path d="M28,22c0,-1.061 -0.421,-2.078 -1.172,-2.828c-0.75,-0.751 -1.767,-1.172 -2.828,-1.172c-4.439,0 -11.561,0 -16,0c-1.061,0 -2.078,0.421 -2.828,1.172c-0.751,0.75 -1.172,1.767 -1.172,2.828c0,1.287 0,2.713 0,4c0,1.061 0.421,2.078 1.172,2.828c0.75,0.751 1.767,1.172 2.828,1.172c4.439,0 11.561,0 16,0c1.061,0 2.078,-0.421 2.828,-1.172c0.751,-0.75 1.172,-1.767 1.172,-2.828c0,-1.287 0,-2.713 0,-4Z" style="fill:#666;"/><path d="M8.37,27.148c-0.56,-0.567 -0.841,-1.415 -0.841,-2.543l0,-1.21c0,-1.128 0.286,-1.976 0.858,-2.543c0.571,-0.568 1.361,-0.852 2.369,-0.852c0.994,0 1.774,0.284 2.342,0.852c0.568,0.567 0.852,1.415 0.852,2.543l0,1.21c0,1.12 -0.29,1.966 -0.869,2.538c-0.579,0.571 -1.369,0.857 -2.37,0.857c-1,0 -1.781,-0.284 -2.341,-0.852Zm4.112,-2.565l0,-1.11c0,-1.456 -0.575,-2.184 -1.726,-2.184c-0.59,0 -1.029,0.179 -1.316,0.537c-0.288,0.359 -0.432,0.908 -0.432,1.647l0,1.11c0,0.709 0.144,1.236 0.432,1.579c0.287,0.344 0.726,0.516 1.316,0.516c1.151,0 1.726,-0.699 1.726,-2.095Z" style="fill:#fff;fill-rule:nonzero;"/><path d="M21.625,20.146l0,7.731l-1.468,0l-3.574,-5.121l0,5.121l-1.468,0l0,-7.731l1.468,0l3.574,5.131l0,-5.131l1.468,0Z" style="fill:#fff;fill-rule:nonzero;"/><path d="M22.891,20.146l1.58,0l-0.269,5.154l-1.042,0l-0.269,-5.154Zm0.056,6.274l1.468,0l0,1.457l-1.468,0l0,-1.457Z" style="fill:#fff;fill-rule:nonzero;"/></g></g></svg>