<?xml version="1.0" encoding="UTF-8" standalone="no"?><!DOCTYPE svg PUBLIC "-//W3C//DTD SVG 1.1//EN" "http://www.w3.org/Graphics/SVG/1.1/DTD/svg11.dtd"><svg width="100%" height="100%" viewBox="0 0 32 32" version="1.1" xmlns="http://www.w3.org/2000/svg" xmlns:xlink="http://www.w3.org/1999/xlink" xml:space="preserve" xmlns:serif="http://www.serif.com/" style="fill-rule:evenodd;clip-rule:evenodd;stroke-linejoin:round;stroke-miterlimit:1.41421;"><rect id="soon" x="0" y="0" width="32" height="32" style="fill:none;"/><clipPath id="_clip1"><rect x="0" y="0" width="32" height="32"/></clipPath><g clip-path="url(#_clip1)"><g id="outline"><path d="M32,22c0,-1.591 -0.632,-3.117 -1.757,-4.243c-1.126,-1.125 -2.652,-1.757 -4.243,-1.757c-5.718,0 -14.282,0 -20,0c-3.314,0 -6,2.686 -6,6c0,1.308 0,2.692 0,4c0,1.591 0.632,3.117 1.757,4.243c1.126,1.125 2.652,1.757 4.243,1.757c5.718,0 14.282,0 20,0c1.591,0 3.117,-0.632 4.243,-1.757c1.125,-1.126 1.757,-2.652 1.757,-4.243c0,-1.308 0,-2.692 0,-4Z"/><path d="M4,13l0,-5l16.379,0l-1.5,-1.5l0,-2l2.121,-2.121l7.121,7.121l0,2l-7.121,7.121l-2.121,-2.121l0,-2l1.5,-1.5l-16.379,0Z" style="fill:#747474;fill-rule:nonzero;stroke:#000;stroke-width:4px;"/><rect x="5" y="14" width="14" height="3"/></g><g id="emoji"><path d="M4,13l0,-2l2,-1l16.379,0l-3.5,-3.5l0,-2l2.121,-0.121l7.121,5.121l0,2l-7.121,7.121l-2.121,-2.121l0,-2l3.5,-1.5l-18.379,0Z" style="fill:#747474;fill-rule:nonzero;"/><path d="M22.379,8l-3.5,-3.5l2.121,-2.121l7.121,7.121l-7.121,7.121l-2.121,-2.121l3.5,-3.5l-18.379,0l0,-3l18.379,0Z" style="fill:#fff;fill-rule:nonzero;"/><path d="M30,22c0,-1.061 -0.421,-2.078 -1.172,-2.828c-0.75,-0.751 -1.767,-1.172 -2.828,-1.172c-5.322,0 -14.678,0 -20,0c-1.061,0 -2.078,0.421 -2.828,1.172c-0.751,0.75 -1.172,1.767 -1.172,2.828c0,1.287 0,2.713 0,4c0,1.061 0.421,2.078 1.172,2.828c0.75,0.751 1.767,1.172 2.828,1.172c5.322,0 14.678,0 20,0c1.061,0 2.078,-0.421 2.828,-1.172c0.751,-0.75 1.172,-1.767 1.172,-2.828c0,-1.287 0,-2.713 0,-4Z" style="fill:#666;"/><path d="M6.471,27.373c-0.359,-0.396 -0.542,-0.964 -0.549,-1.704l1.299,0c0.015,0.381 0.092,0.662 0.23,0.841c0.138,0.179 0.342,0.269 0.611,0.269c0.269,0 0.465,-0.082 0.588,-0.247c0.123,-0.164 0.185,-0.426 0.185,-0.784c0,-0.299 -0.069,-0.536 -0.208,-0.712c-0.138,-0.175 -0.371,-0.338 -0.7,-0.487l-0.526,-0.235c-0.501,-0.224 -0.861,-0.501 -1.082,-0.829c-0.22,-0.329 -0.33,-0.77 -0.33,-1.323c0,-0.649 0.188,-1.169 0.566,-1.557c0.377,-0.388 0.887,-0.583 1.529,-0.583c0.635,0 1.126,0.193 1.473,0.577c0.348,0.385 0.533,0.94 0.555,1.664l-1.266,0c-0.008,-0.351 -0.069,-0.614 -0.185,-0.79c-0.116,-0.175 -0.308,-0.263 -0.577,-0.263c-0.5,0 -0.751,0.295 -0.751,0.885c0,0.269 0.062,0.484 0.185,0.644c0.123,0.161 0.331,0.305 0.622,0.432l0.504,0.224c0.538,0.239 0.928,0.538 1.171,0.896c0.243,0.359 0.364,0.837 0.364,1.434c0,0.718 -0.186,1.27 -0.56,1.659c-0.373,0.388 -0.904,0.582 -1.591,0.582c-0.68,0 -1.199,-0.198 -1.557,-0.593Z" style="fill:#fff;fill-rule:nonzero;"/><path d="M11.49,27.401c-0.388,-0.378 -0.582,-0.929 -0.582,-1.653l0,-3.485c0,-0.732 0.205,-1.286 0.616,-1.664c0.411,-0.377 0.952,-0.565 1.624,-0.565c0.65,0 1.171,0.188 1.563,0.565c0.393,0.378 0.589,0.932 0.589,1.664l0,3.485c0,0.717 -0.208,1.266 -0.622,1.647c-0.415,0.381 -0.951,0.571 -1.608,0.571c-0.665,0 -1.191,-0.188 -1.58,-0.565Zm2.224,-0.975c0.138,-0.198 0.208,-0.476 0.208,-0.835l0,-3.104c0,-0.395 -0.068,-0.696 -0.202,-0.902c-0.135,-0.205 -0.336,-0.308 -0.605,-0.308c-0.291,0 -0.502,0.101 -0.633,0.303c-0.131,0.202 -0.196,0.504 -0.196,0.907l0,3.104c0,0.754 0.276,1.132 0.829,1.132c0.261,0 0.461,-0.099 0.599,-0.297Z" style="fill:#fff;fill-rule:nonzero;"/><path d="M16.734,27.401c-0.389,-0.378 -0.583,-0.929 -0.583,-1.653l0,-3.485c0,-0.732 0.206,-1.286 0.617,-1.664c0.41,-0.377 0.952,-0.565 1.624,-0.565c0.65,0 1.171,0.188 1.563,0.565c0.392,0.378 0.588,0.932 0.588,1.664l0,3.485c0,0.717 -0.207,1.266 -0.621,1.647c-0.415,0.381 -0.951,0.571 -1.608,0.571c-0.665,0 -1.192,-0.188 -1.58,-0.565Zm2.224,-0.975c0.138,-0.198 0.207,-0.476 0.207,-0.835l0,-3.104c0,-0.395 -0.067,-0.696 -0.201,-0.902c-0.135,-0.205 -0.337,-0.308 -0.605,-0.308c-0.292,0 -0.503,0.101 -0.634,0.303c-0.13,0.202 -0.196,0.504 -0.196,0.907l0,3.104c0,0.754 0.277,1.132 0.83,1.132c0.261,0 0.461,-0.099 0.599,-0.297Z" style="fill:#fff;fill-rule:nonzero;"/><path d="M25.81,20.146l0,7.731l-1.379,0l-1.613,-4.123l0,4.123l-1.378,0l0,-7.731l1.378,0l1.613,4.302l0,-4.302l1.379,0Z" style="fill:#fff;fill-rule:nonzero;"/></g></g></svg>