<?xml version="1.0" encoding="UTF-8" standalone="no"?><!DOCTYPE svg PUBLIC "-//W3C//DTD SVG 1.1//EN" "http://www.w3.org/Graphics/SVG/1.1/DTD/svg11.dtd"><svg width="100%" height="100%" viewBox="0 0 32 32" version="1.1" xmlns="http://www.w3.org/2000/svg" xmlns:xlink="http://www.w3.org/1999/xlink" xml:space="preserve" xmlns:serif="http://www.serif.com/" style="fill-rule:evenodd;clip-rule:evenodd;stroke-linejoin:round;stroke-miterlimit:1.41421;"><rect id="top" x="0" y="0" width="32" height="32" style="fill:none;"/><clipPath id="_clip1"><rect x="0" y="0" width="32" height="32"/></clipPath><g clip-path="url(#_clip1)"><g id="outline"><path d="M32,22c0,-1.591 -0.632,-3.117 -1.757,-4.243c-1.126,-1.125 -2.652,-1.757 -4.243,-1.757c-5.718,0 -14.282,0 -20,0c-3.314,0 -6,2.686 -6,6c0,1.308 0,2.692 0,4c0,1.591 0.632,3.117 1.757,4.243c1.126,1.125 2.652,1.757 4.243,1.757c5.718,0 14.282,0 20,0c1.591,0 3.117,-0.632 4.243,-1.757c1.125,-1.126 1.757,-2.652 1.757,-4.243c0,-1.308 0,-2.692 0,-4Z"/><path d="M15,9.621l-3.5,3.5l-2.121,-2.121l0,-2l7.121,-7.121l7.121,7.121l0,2l-2.121,2.121l-3.5,-3.5l0,12.379l-3,0l0,-12.379Z" style="fill:none;stroke:#000;stroke-width:4px;"/></g><g id="emoji"><path d="M15,9.621l-3.5,3.5l-2.121,-2.121l0,-2l7.121,-4.121l7.121,4.121l0,2l-2.121,2.121l-3.5,-3.5l-1,0.379l1,4l0,2l-3,0l0,-2l1,-4l-1,-0.379Z" style="fill:#747474;fill-rule:nonzero;"/><path d="M15,7.621l-3.5,3.5l-2.121,-2.121l7.121,-7.121l7.121,7.121l-2.121,2.121l-3.5,-3.5l0,6.379l-3,0l0,-6.379Z" style="fill:#fff;fill-rule:nonzero;"/><path d="M30,22c0,-1.061 -0.421,-2.078 -1.172,-2.828c-0.75,-0.751 -1.767,-1.172 -2.828,-1.172c-5.322,0 -14.678,0 -20,0c-1.061,0 -2.078,0.421 -2.828,1.172c-0.751,0.75 -1.172,1.767 -1.172,2.828c0,1.287 0,2.713 0,4c0,1.061 0.421,2.078 1.172,2.828c0.75,0.751 1.767,1.172 2.828,1.172c5.322,0 14.678,0 20,0c1.061,0 2.078,-0.421 2.828,-1.172c0.751,-0.75 1.172,-1.767 1.172,-2.828c0,-1.287 0,-2.713 0,-4Z" style="fill:#666;"/><path d="M11.927,21.423l-2.319,0l0,6.454l-1.468,0l0,-6.454l-2.319,0l0,-1.277l6.106,0l0,1.277Z" style="fill:#fff;fill-rule:nonzero;"/><path d="M13.115,27.148c-0.56,-0.567 -0.84,-1.415 -0.84,-2.543l0,-1.21c0,-1.128 0.285,-1.976 0.857,-2.543c0.571,-0.568 1.361,-0.852 2.369,-0.852c0.994,0 1.774,0.284 2.342,0.852c0.568,0.567 0.852,1.415 0.852,2.543l0,1.21c0,1.12 -0.29,1.966 -0.869,2.538c-0.579,0.571 -1.368,0.857 -2.369,0.857c-1.001,0 -1.782,-0.284 -2.342,-0.852Zm4.112,-2.565l0,-1.11c0,-1.456 -0.575,-2.184 -1.726,-2.184c-0.59,0 -1.029,0.179 -1.316,0.537c-0.288,0.359 -0.431,0.908 -0.431,1.647l0,1.11c0,0.709 0.143,1.236 0.431,1.579c0.287,0.344 0.726,0.516 1.316,0.516c1.151,0 1.726,-0.699 1.726,-2.095Z" style="fill:#fff;fill-rule:nonzero;"/><path d="M25.232,20.773c0.49,0.418 0.734,1.016 0.734,1.793c0,0.747 -0.244,1.329 -0.734,1.748c-0.489,0.418 -1.185,0.627 -2.089,0.627l-1.815,0l0,2.936l-1.468,0l0,-7.731l3.339,0c0.866,0 1.544,0.209 2.033,0.627Zm-0.733,1.782c0,-0.381 -0.109,-0.665 -0.325,-0.852c-0.217,-0.187 -0.523,-0.28 -0.919,-0.28l-1.927,0l0,2.23l1.927,0c0.829,0 1.244,-0.366 1.244,-1.098Z" style="fill:#fff;fill-rule:nonzero;"/></g></g></svg>