<?xml version="1.0" encoding="UTF-8" standalone="no"?><!DOCTYPE svg PUBLIC "-//W3C//DTD SVG 1.1//EN" "http://www.w3.org/Graphics/SVG/1.1/DTD/svg11.dtd"><svg width="100%" height="100%" viewBox="0 0 32 32" version="1.1" xmlns="http://www.w3.org/2000/svg" xmlns:xlink="http://www.w3.org/1999/xlink" xml:space="preserve" xmlns:serif="http://www.serif.com/" style="fill-rule:evenodd;clip-rule:evenodd;stroke-linejoin:round;stroke-miterlimit:1.41421;"><rect id="fast_forward" x="0" y="0" width="32" height="32" style="fill:none;"/><clipPath id="_clip1"><rect x="0" y="0" width="32" height="32"/></clipPath><g clip-path="url(#_clip1)"><g id="outline"><path d="M32,8c0,-4.418 -3.582,-8 -8,-8c-4.887,0 -11.113,0 -16,0c-4.418,0 -8,3.582 -8,8c0,4.887 0,11.113 0,16c0,4.418 3.582,8 8,8c4.887,0 11.113,0 16,0c4.418,0 8,-3.582 8,-8c0,-4.887 0,-11.113 0,-16Z"/></g><g id="emoji"><path d="M24,30c1.591,0 3.117,-0.632 4.243,-1.757c1.125,-1.126 1.757,-2.652 1.757,-4.243c0,-4.724 0,-11.276 0,-16c0,-1.591 -0.632,-3.117 -1.757,-4.243c-1.126,-1.125 -2.652,-1.757 -4.243,-1.757c-4.724,0 -11.276,0 -16,0c-1.591,0 -3.117,0.632 -4.243,1.757c-1.125,1.126 -1.757,2.652 -1.757,4.243c0,4.724 0,11.276 0,16c0,1.591 0.632,3.117 1.757,4.243c1.126,1.125 2.652,1.757 4.243,1.757c4.724,0 11.276,0 16,0Z" style="fill:#fff;"/></g><path d="M16,14.727c0,0 0,-2.228 0,-3.905c0,-0.365 0.199,-0.701 0.519,-0.877c0.32,-0.176 0.71,-0.163 1.018,0.033c2.168,1.38 6.09,3.875 8.137,5.178c0.289,0.184 0.463,0.502 0.463,0.844c0,0.342 -0.174,0.66 -0.463,0.844c-2.047,1.303 -5.969,3.798 -8.137,5.178c-0.308,0.196 -0.698,0.209 -1.018,0.033c-0.32,-0.176 -0.519,-0.512 -0.519,-0.877c0,-1.677 0,-3.905 0,-3.905c0,0 -4.893,3.113 -7.463,4.749c-0.308,0.196 -0.698,0.209 -1.018,0.033c-0.32,-0.176 -0.519,-0.512 -0.519,-0.877c0,-2.684 0,-7.672 0,-10.356c0,-0.365 0.199,-0.701 0.519,-0.877c0.32,-0.176 0.71,-0.163 1.018,0.033c2.57,1.636 7.463,4.749 7.463,4.749Z" style="fill:#333;"/></g></svg>