<?xml version="1.0" encoding="UTF-8" standalone="no"?><!DOCTYPE svg PUBLIC "-//W3C//DTD SVG 1.1//EN" "http://www.w3.org/Graphics/SVG/1.1/DTD/svg11.dtd"><svg width="100%" height="100%" viewBox="0 0 32 32" version="1.1" xmlns="http://www.w3.org/2000/svg" xmlns:xlink="http://www.w3.org/1999/xlink" xml:space="preserve" xmlns:serif="http://www.serif.com/" style="fill-rule:evenodd;clip-rule:evenodd;stroke-linejoin:round;stroke-miterlimit:1.41421;"><path id="fast_down" d="M0,0l0,32l32,0l0,-32l-32,0Z" style="fill:none;"/><clipPath id="_clip1"><path d="M0,0l0,32l32,0l0,-32l-32,0Z"/></clipPath><g clip-path="url(#_clip1)"><g id="outline"><path d="M8,0c-4.418,0 -8,3.582 -8,8c0,4.887 0,11.113 0,16c0,4.418 3.582,8 8,8c4.887,0 11.113,0 16,0c4.418,0 8,-3.582 8,-8c0,-4.887 0,-11.113 0,-16c0,-4.418 -3.582,-8 -8,-8c-4.887,0 -11.113,0 -16,0Z"/></g><g id="emoji"><path d="M30,8c0,-1.591 -0.632,-3.117 -1.757,-4.243c-1.126,-1.125 -2.652,-1.757 -4.243,-1.757c-4.724,0 -11.276,0 -16,0c-1.591,0 -3.117,0.632 -4.243,1.757c-1.125,1.126 -1.757,2.652 -1.757,4.243c0,4.724 0,11.276 0,16c0,1.591 0.632,3.117 1.757,4.243c1.126,1.125 2.652,1.757 4.243,1.757c4.724,0 11.276,0 16,0c1.591,0 3.117,-0.632 4.243,-1.757c1.125,-1.126 1.757,-2.652 1.757,-4.243c0,-4.724 0,-11.276 0,-16Z" style="fill:#fff;"/></g><path d="M9.978,17.537c-0.196,-0.308 -0.209,-0.698 -0.033,-1.018c0.176,-0.32 0.512,-0.519 0.877,-0.519c1.677,0 3.905,0 3.905,0c0,0 -3.113,-4.893 -4.749,-7.463c-0.196,-0.308 -0.209,-0.698 -0.033,-1.018c0.176,-0.32 0.512,-0.519 0.877,-0.519c2.684,0 7.672,0 10.356,0c0.365,0 0.701,0.199 0.877,0.519c0.176,0.32 0.163,0.71 -0.033,1.018c-1.636,2.57 -4.749,7.463 -4.749,7.463c0,0 2.228,0 3.905,0c0.365,0 0.701,0.199 0.877,0.519c0.176,0.32 0.163,0.71 -0.033,1.018c-1.38,2.168 -3.875,6.09 -5.178,8.137c-0.184,0.289 -0.502,0.463 -0.844,0.463c-0.342,0 -0.66,-0.174 -0.844,-0.463c-1.303,-2.047 -3.798,-5.969 -5.178,-8.137Z" style="fill:#333;"/></g></svg>