<?xml version="1.0" encoding="UTF-8" standalone="no"?><!DOCTYPE svg PUBLIC "-//W3C//DTD SVG 1.1//EN" "http://www.w3.org/Graphics/SVG/1.1/DTD/svg11.dtd"><svg width="100%" height="100%" viewBox="0 0 32 32" version="1.1" xmlns="http://www.w3.org/2000/svg" xmlns:xlink="http://www.w3.org/1999/xlink" xml:space="preserve" xmlns:serif="http://www.serif.com/" style="fill-rule:evenodd;clip-rule:evenodd;stroke-linejoin:round;stroke-miterlimit:1.41421;"><path id="repeat" d="M0,32l0,-32l32,0l0,32l-32,0Z" style="fill:none;"/><clipPath id="_clip1"><path d="M0,32l0,-32l32,0l0,32l-32,0Z"/></clipPath><g clip-path="url(#_clip1)"><g id="outline"><path d="M24,32c4.418,0 8,-3.582 8,-8c0,-4.887 0,-11.113 0,-16c0,-4.418 -3.582,-8 -8,-8c-4.887,0 -11.113,0 -16,0c-4.418,0 -8,3.582 -8,8c0,4.887 0,11.113 0,16c0,4.418 3.582,8 8,8c4.887,0 11.113,0 16,0Z"/></g><g id="emoji"><path d="M24,30c1.591,0 3.117,-0.632 4.243,-1.757c1.125,-1.126 1.757,-2.652 1.757,-4.243c0,-4.724 0,-11.276 0,-16c0,-1.591 -0.632,-3.117 -1.757,-4.243c-1.126,-1.125 -2.652,-1.757 -4.243,-1.757c-4.724,0 -11.276,0 -16,0c-1.591,0 -3.117,0.632 -4.243,1.757c-1.125,1.126 -1.757,2.652 -1.757,4.243c0,4.724 0,11.276 0,16c0,1.591 0.632,3.117 1.757,4.243c1.126,1.125 2.652,1.757 4.243,1.757c4.724,0 11.276,0 16,0Z" style="fill:#fff;"/><path d="M13,20.015c2.211,0.021 4.421,0.051 6.63,-0.017c0.359,-0.016 0.712,-0.082 1.05,-0.203c0.759,-0.272 1.409,-0.807 1.823,-1.498c0.132,-0.22 0.239,-0.454 0.32,-0.698c0.113,-0.341 0.17,-0.696 0.177,-1.055c0,-0.096 0.001,-0.192 0.002,-0.289c0.905,-0.894 1.81,-1.788 2.703,-2.694c0.187,0.602 0.283,1.226 0.295,1.856c0.002,0.415 0.006,0.83 -0.002,1.244c-0.021,0.693 -0.144,1.377 -0.378,2.031c-0.505,1.409 -1.499,2.618 -2.783,3.386c-0.408,0.244 -0.843,0.444 -1.295,0.593c-0.658,0.218 -1.345,0.325 -2.037,0.329l-6.505,0c0,0 0,1.615 0,2.793c0,0.202 -0.122,0.384 -0.309,0.462c-0.186,0.077 -0.402,0.034 -0.545,-0.109c-1.226,-1.226 -3.435,-3.435 -4.292,-4.292c-0.196,-0.196 -0.196,-0.512 0,-0.708c0.857,-0.857 3.066,-3.066 4.292,-4.292c0.143,-0.143 0.359,-0.186 0.545,-0.109c0.187,0.078 0.309,0.26 0.309,0.462c0,1.183 0,2.808 0,2.808Zm6,-11.015c0,0 0,-1.615 0,-2.793c0,-0.202 0.122,-0.384 0.309,-0.462c0.186,-0.077 0.402,-0.034 0.545,0.109c1.226,1.226 3.435,3.435 4.292,4.292c0.196,0.196 0.196,0.512 0,0.708c-0.857,0.857 -3.066,3.066 -4.292,4.292c-0.143,0.143 -0.359,0.186 -0.545,0.109c-0.187,-0.078 -0.309,-0.26 -0.309,-0.462c0,-1.183 0,-2.808 0,-2.808c-2.211,-0.021 -4.421,-0.051 -6.63,0.017c-0.087,0.004 -0.173,0.011 -0.259,0.02c-0.326,0.038 -0.646,0.118 -0.95,0.245c-0.692,0.286 -1.28,0.794 -1.664,1.436c-0.132,0.22 -0.239,0.454 -0.32,0.698c-0.113,0.341 -0.17,0.696 -0.177,1.055c0,0.096 -0.001,0.192 -0.002,0.288c-0.905,0.895 -1.811,1.79 -2.704,2.697c-0.179,-0.574 -0.273,-1.173 -0.292,-1.774c-0.008,-0.443 -0.008,-0.886 0,-1.329c0.022,-0.693 0.144,-1.376 0.379,-2.03c0.504,-1.409 1.498,-2.618 2.782,-3.386c0.408,-0.244 0.843,-0.444 1.295,-0.593c0.658,-0.218 1.345,-0.325 2.037,-0.329l6.505,0Z" style="fill:#333;"/></g></g></svg>