<?xml version="1.0" encoding="UTF-8" standalone="no"?><!DOCTYPE svg PUBLIC "-//W3C//DTD SVG 1.1//EN" "http://www.w3.org/Graphics/SVG/1.1/DTD/svg11.dtd"><svg width="100%" height="100%" viewBox="0 0 32 32" version="1.1" xmlns="http://www.w3.org/2000/svg" xmlns:xlink="http://www.w3.org/1999/xlink" xml:space="preserve" xmlns:serif="http://www.serif.com/" style="fill-rule:evenodd;clip-rule:evenodd;stroke-linejoin:round;stroke-miterlimit:1.41421;"><path id="shuffle" d="M0,32l0,-32l32,0l0,32l-32,0Z" style="fill:none;"/><clipPath id="_clip1"><path d="M0,32l0,-32l32,0l0,32l-32,0Z"/></clipPath><g clip-path="url(#_clip1)"><g id="outline"><path d="M24,32c4.418,0 8,-3.582 8,-8c0,-4.887 0,-11.113 0,-16c0,-4.418 -3.582,-8 -8,-8c-4.887,0 -11.113,0 -16,0c-4.418,0 -8,3.582 -8,8c0,4.887 0,11.113 0,16c0,4.418 3.582,8 8,8c4.887,0 11.113,0 16,0Z"/></g><g id="emoji"><path d="M24,30c1.591,0 3.117,-0.632 4.243,-1.757c1.125,-1.126 1.757,-2.652 1.757,-4.243c0,-4.724 0,-11.276 0,-16c0,-1.591 -0.632,-3.117 -1.757,-4.243c-1.126,-1.125 -2.652,-1.757 -4.243,-1.757c-4.724,0 -11.276,0 -16,0c-1.591,0 -3.117,0.632 -4.243,1.757c-1.125,1.126 -1.757,2.652 -1.757,4.243c0,4.724 0,11.276 0,16c0,1.591 0.632,3.117 1.757,4.243c1.126,1.125 2.652,1.757 4.243,1.757c4.724,0 11.276,0 16,0Z" style="fill:#fff;"/></g><path d="M23,23l-0.404,0c-1.36,-0.016 -2.681,-0.531 -3.696,-1.435c-0.696,-0.65 -1.386,-1.305 -2.074,-1.963c0.704,-0.71 1.409,-1.419 2.116,-2.127c0.656,0.628 1.315,1.253 1.979,1.873c0.464,0.413 1.068,0.644 1.693,0.652l0.386,0l0,-1.293c0,-0.202 0.122,-0.384 0.309,-0.462c0.186,-0.077 0.402,-0.034 0.545,0.109c0.868,0.868 2.171,2.171 2.792,2.792c0.094,0.094 0.147,0.221 0.147,0.354c0,0.133 -0.053,0.26 -0.147,0.354c-0.621,0.621 -1.924,1.924 -2.792,2.792c-0.143,0.143 -0.359,0.186 -0.545,0.109c-0.187,-0.078 -0.309,-0.26 -0.309,-0.462l0,-1.293Zm-15.148,0.5l-1.852,0l0,-3c0.635,0 1.27,0.007 1.905,-0.001c0.165,-0.006 0.327,-0.024 0.488,-0.06c0.442,-0.1 0.842,-0.32 1.173,-0.628c3.107,-3.031 6.139,-6.138 9.208,-9.207c0.225,-0.219 0.463,-0.423 0.72,-0.604c0.587,-0.412 1.254,-0.708 1.953,-0.865c0.395,-0.09 0.796,-0.13 1.201,-0.135l0.352,0c0,0 0,-0.654 0,-1.293c0,-0.202 0.122,-0.384 0.309,-0.462c0.186,-0.077 0.402,-0.034 0.545,0.109c0.868,0.868 2.171,2.171 2.792,2.792c0.094,0.094 0.147,0.221 0.147,0.354c0,0.133 -0.053,0.26 -0.147,0.354c-0.621,0.621 -1.924,1.924 -2.792,2.792c-0.143,0.143 -0.359,0.186 -0.545,0.109c-0.187,-0.078 -0.309,-0.26 -0.309,-0.462c0,-0.64 0,-1.295 0,-1.295c-0.135,0 -0.27,0.001 -0.405,0.003c-0.062,0.002 -0.124,0.006 -0.185,0.011c-0.387,0.044 -0.759,0.166 -1.089,0.375c-0.139,0.088 -0.267,0.19 -0.388,0.302c-3.106,3.031 -6.138,6.138 -9.207,9.207c-0.258,0.251 -0.532,0.48 -0.831,0.68c-0.634,0.423 -1.356,0.711 -2.106,0.842c-0.31,0.054 -0.622,0.078 -0.937,0.082Zm3.962,-8.731c-0.741,-0.71 -1.485,-1.416 -2.235,-2.117c-0.464,-0.413 -1.068,-0.644 -1.693,-0.652l-1.886,0l0,-3c0.676,0 1.352,-0.007 2.028,0.001c1.319,0.048 2.586,0.556 3.572,1.434c0.781,0.73 1.557,1.467 2.328,2.207c-0.704,0.71 -1.408,1.419 -2.114,2.127Z" style="fill:#333;"/></g></svg>