<?xml version="1.0" encoding="UTF-8" standalone="no"?><!DOCTYPE svg PUBLIC "-//W3C//DTD SVG 1.1//EN" "http://www.w3.org/Graphics/SVG/1.1/DTD/svg11.dtd"><svg width="100%" height="100%" viewBox="0 0 32 32" version="1.1" xmlns="http://www.w3.org/2000/svg" xmlns:xlink="http://www.w3.org/1999/xlink" xml:space="preserve" xmlns:serif="http://www.serif.com/" style="fill-rule:evenodd;clip-rule:evenodd;stroke-linejoin:round;stroke-miterlimit:1.41421;"><path id="shuffle" d="M0,32l0,-32l32,0l0,32l-32,0Z" style="fill:none;"/><clipPath id="_clip1"><path d="M0,32l0,-32l32,0l0,32l-32,0Z"/></clipPath><g clip-path="url(#_clip1)"><g id="outline"><path d="M24,32c4.418,0 8,-3.582 8,-8c0,-4.887 0,-11.113 0,-16c0,-4.418 -3.582,-8 -8,-8c-4.887,0 -11.113,0 -16,0c-4.418,0 -8,3.582 -8,8c0,4.887 0,11.113 0,16c0,4.418 3.582,8 8,8c4.887,0 11.113,0 16,0Z"/></g><g id="emoji"><path d="M24,30c1.591,0 3.117,-0.632 4.243,-1.757c1.125,-1.126 1.757,-2.652 1.757,-4.243c0,-4.724 0,-11.276 0,-16c0,-1.591 -0.632,-3.117 -1.757,-4.243c-1.126,-1.125 -2.652,-1.757 -4.243,-1.757c-4.724,0 -11.276,0 -16,0c-1.591,0 -3.117,0.632 -4.243,1.757c-1.125,1.126 -1.757,2.652 -1.757,4.243c0,4.724 0,11.276 0,16c0,1.591 0.632,3.117 1.757,4.243c1.126,1.125 2.652,1.757 4.243,1.757c4.724,0 11.276,0 16,0Z" style="fill:#666;"/><path d="M23,20.5l0,-3l4,4l-4,4l0,-2l-0.352,0c-0.269,-0.003 -0.537,-0.02 -0.803,-0.06c-0.71,-0.106 -1.397,-0.352 -2.012,-0.72c-0.35,-0.209 -0.669,-0.458 -0.967,-0.735c-0.746,-0.728 -1.486,-1.462 -2.222,-2.2c0.704,-0.709 1.408,-1.419 2.115,-2.127c0.72,0.722 1.444,1.441 2.174,2.153c0.106,0.098 0.217,0.189 0.337,0.269c0.271,0.181 0.577,0.308 0.897,0.371c0.165,0.033 0.331,0.047 0.499,0.049l0.334,0Zm0,-11.5l0,-2.5l4,4l-4,4l0,-2.502c-0.135,0 -0.27,0.001 -0.405,0.003c-0.062,0.002 -0.124,0.006 -0.185,0.011c-0.387,0.044 -0.759,0.166 -1.089,0.375c-0.139,0.088 -0.267,0.19 -0.388,0.302c-3.106,3.031 -6.138,6.138 -9.207,9.207c-0.258,0.251 -0.532,0.48 -0.831,0.68c-0.634,0.423 -1.356,0.711 -2.106,0.842c-0.31,0.054 -0.622,0.078 -0.937,0.082l-1.852,0l0,-3c0.635,0 1.27,0.007 1.905,-0.001c0.165,-0.006 0.327,-0.024 0.488,-0.06c0.442,-0.1 0.842,-0.32 1.173,-0.628c3.107,-3.031 6.139,-6.138 9.208,-9.207c0.225,-0.219 0.463,-0.423 0.72,-0.604c0.587,-0.412 1.254,-0.708 1.953,-0.865c0.395,-0.09 0.796,-0.13 1.201,-0.135l0.352,0Zm-11.259,5.842c-0.72,-0.722 -1.444,-1.441 -2.175,-2.153c-0.105,-0.098 -0.216,-0.189 -0.336,-0.269c-0.271,-0.181 -0.577,-0.308 -0.897,-0.371c-0.165,-0.033 -0.331,-0.047 -0.499,-0.049l-1.834,0l0,-3c0.66,0 1.32,-0.007 1.98,0.002c0.361,0.013 0.719,0.053 1.073,0.133c0.699,0.157 1.366,0.453 1.953,0.865c0.222,0.157 0.429,0.331 0.629,0.516c0.745,0.727 1.485,1.461 2.221,2.199c-0.704,0.709 -1.408,1.419 -2.115,2.127Z" style="fill:#fff;"/></g></g></svg>