<?xml version="1.0" encoding="UTF-8" standalone="no"?><!DOCTYPE svg PUBLIC "-//W3C//DTD SVG 1.1//EN" "http://www.w3.org/Graphics/SVG/1.1/DTD/svg11.dtd"><svg width="100%" height="100%" viewBox="0 0 32 32" version="1.1" xmlns="http://www.w3.org/2000/svg" xmlns:xlink="http://www.w3.org/1999/xlink" xml:space="preserve" xmlns:serif="http://www.serif.com/" style="fill-rule:evenodd;clip-rule:evenodd;stroke-linejoin:round;stroke-miterlimit:1.41421;"><rect id="skip_back" x="0" y="0" width="32" height="32" style="fill:none;"/><clipPath id="_clip1"><rect x="0" y="0" width="32" height="32"/></clipPath><g clip-path="url(#_clip1)"><g id="outline"><path d="M32,8c0,-4.418 -3.582,-8 -8,-8c-4.887,0 -11.113,0 -16,0c-4.418,0 -8,3.582 -8,8c0,4.887 0,11.113 0,16c0,4.418 3.582,8 8,8c4.887,0 11.113,0 16,0c4.418,0 8,-3.582 8,-8c0,-4.887 0,-11.113 0,-16Z"/></g><g id="emoji"><path d="M24,30c1.591,0 3.117,-0.632 4.243,-1.757c1.125,-1.126 1.757,-2.652 1.757,-4.243c0,-4.724 0,-11.276 0,-16c0,-1.591 -0.632,-3.117 -1.757,-4.243c-1.126,-1.125 -2.652,-1.757 -4.243,-1.757c-4.724,0 -11.276,0 -16,0c-1.591,0 -3.117,0.632 -4.243,1.757c-1.125,1.126 -1.757,2.652 -1.757,4.243c0,4.724 0,11.276 0,16c0,1.591 0.632,3.117 1.757,4.243c1.126,1.125 2.652,1.757 4.243,1.757c4.724,0 11.276,0 16,0Z" style="fill:#fff;"/></g><path d="M6,10c0,-0.552 0.448,-1 1,-1c0.322,0 0.678,0 1,0c0.552,0 1,0.448 1,1c0,1.61 0,4.6 0,4.6c0,0 4.096,-2.867 6.427,-4.499c0.305,-0.213 0.704,-0.24 1.035,-0.067c0.331,0.172 0.538,0.514 0.538,0.887c0,1.853 0,4.379 0,4.379c0,0 4.847,-3.393 7.427,-5.199c0.305,-0.213 0.704,-0.24 1.035,-0.067c0.331,0.172 0.538,0.514 0.538,0.887c0,2.672 0,7.486 0,10.158c0,0.373 -0.207,0.715 -0.538,0.887c-0.331,0.173 -0.73,0.146 -1.035,-0.067c-2.58,-1.806 -7.427,-5.199 -7.427,-5.199c0,0 0,2.526 0,4.379c0,0.373 -0.207,0.715 -0.538,0.887c-0.331,0.173 -0.73,0.146 -1.035,-0.067c-2.331,-1.632 -6.427,-4.499 -6.427,-4.499c0,0 0,2.99 0,4.6c0,0.552 -0.448,1 -1,1c-0.322,0 -0.678,0 -1,0c-0.552,0 -1,-0.448 -1,-1c0,-2.577 0,-9.423 0,-12Z" style="fill:#333;"/></g></svg>