<?xml version="1.0" encoding="UTF-8" standalone="no"?><!DOCTYPE svg PUBLIC "-//W3C//DTD SVG 1.1//EN" "http://www.w3.org/Graphics/SVG/1.1/DTD/svg11.dtd"><svg width="100%" height="100%" viewBox="0 0 32 32" version="1.1" xmlns="http://www.w3.org/2000/svg" xmlns:xlink="http://www.w3.org/1999/xlink" xml:space="preserve" style="fill-rule:evenodd;clip-rule:evenodd;stroke-linejoin:round;stroke-miterlimit:1.41421;"><rect id="coyote" x="0" y="0" width="32" height="32" style="fill:none;"/><clipPath id="_clip1"><rect x="0" y="0" width="32" height="32"/></clipPath><g clip-path="url(#_clip1)"><g id="outline"><path d="M28,8.709l0,4.966c0.394,1.182 0.793,2.362 1.181,3.546c0.258,0.815 0.462,1.645 0.599,2.49c0.138,0.845 0.206,1.697 0.219,2.552l0.001,0.166l0,3.862l-0.846,0.522l-1.154,-0.577l0,3.055l-0.846,0.522l-3.307,-1.654l-1.429,0.476l-0.86,1.722c-0.095,0.182 -0.203,0.355 -0.331,0.515c-0.365,0.457 -0.863,0.802 -1.419,0.982c-0.267,0.086 -0.541,0.13 -0.82,0.144c-1.963,0.038 -3.926,0.002 -5.889,0.002c-0.275,-0.005 -0.545,-0.04 -0.809,-0.116c-0.595,-0.171 -1.13,-0.528 -1.517,-1.012c-0.128,-0.16 -0.236,-0.333 -0.33,-0.515l-0.861,-1.722l-1.429,-0.476l-3.307,1.654l-0.846,-0.522l0,-3.055l-1.154,0.577l-0.846,-0.522c0,-1.343 -0.006,-2.685 0.001,-4.028c0.002,-0.171 0.007,-0.342 0.013,-0.513c0.036,-0.797 0.12,-1.59 0.264,-2.375c0.133,-0.73 0.317,-1.447 0.541,-2.154l0.052,-0.158l1.129,-3.388l0,-4.966l0.846,-0.522l3.387,1.693c0.865,-0.216 1.73,-0.435 2.596,-0.648c0.164,-0.039 0.329,-0.077 0.494,-0.114c0.55,-0.117 1.103,-0.218 1.66,-0.295c1.221,-0.169 2.457,-0.235 3.689,-0.197c1.065,0.032 2.128,0.142 3.177,0.329c0.498,0.088 0.992,0.196 1.483,0.316l2.435,0.609l3.387,-1.693c0.282,0.174 0.564,0.348 0.846,0.522Z"/></g><g id="emoji"><path d="M6,23l-2,1c0,0 0,-0.73 0,-1.566c0,-1.612 0.26,-3.214 0.77,-4.743c0.563,-1.691 1.23,-3.691 1.23,-3.691l0,-3l2,1c0,0 1.47,-0.367 3.149,-0.787c3.185,-0.797 6.517,-0.797 9.702,0c1.679,0.42 3.149,0.787 3.149,0.787l2,-1l0,3c0,0 0.667,2 1.23,3.691c0.51,1.529 0.77,3.131 0.77,4.743c0,0.836 0,1.566 0,1.566l-2,-1l-8,3l-4,0l-8,-3Z" style="fill:#bb793a;"/><path d="M26,23l0,4l-2,-1l-3,1c0,0 -0.79,1.581 -1.224,2.447c-0.169,0.339 -0.515,0.553 -0.894,0.553c-1.327,0 -4.437,0 -5.764,0c-0.379,0 -0.725,-0.214 -0.894,-0.553c-0.434,-0.866 -1.224,-2.447 -1.224,-2.447l-3,-1l-2,1l0,-4c0,0 1.121,-1.121 1.121,-1.121c0.563,-0.563 1.326,-0.879 2.122,-0.879l2.757,0l0,2c0,1.105 0.895,2 2,2c1.222,0 2.778,0 4,0c1.105,0 2,-0.895 2,-2l0,-2l2.757,0c0.796,0 1.559,0.316 2.122,0.879l1.121,1.121Z" style="fill:#dac8ad;"/><path d="M20,11c0,0 0,-0.553 0,-1.292c0,-2.272 1.284,-4.35 3.317,-5.366c2.911,-1.456 6.683,-3.342 6.683,-3.342c0,0 0,4.447 0,7.686c0,2.122 -0.843,4.157 -2.343,5.657c-0.383,0.383 -0.657,0.657 -0.657,0.657" style="fill:#bb793a;"/><path d="M28.707,7l-2.707,2.707l0,3.293l-3,0l0,-1l2,0l0,-2.707l3,-3l0.707,0.707Z" style="fill:#6b3f21;"/><path d="M12,11c0,0 0,-0.553 0,-1.292c0,-2.272 -1.284,-4.35 -3.317,-5.366c-2.911,-1.456 -6.683,-3.342 -6.683,-3.342c0,0 0,4.447 0,7.686c0,2.122 0.843,4.157 2.343,5.657c0.383,0.383 0.657,0.657 0.657,0.657" style="fill:#bb793a;"/><path d="M19.854,17.837l-0.712,0.711l0.613,0.93l0.027,0.043l0.027,0.047l0.026,0.048l0.024,0.049l0.022,0.05l0.021,0.051l0.018,0.051l0.017,0.052l0.015,0.052l0.012,0.053l0.011,0.054l0.009,0.053l0.007,0.055l0.005,0.054l0.003,0.055l0.001,0.05l0,2.705l-1,0l0,-2.696l0,-0.022l-0.001,-0.019l-0.002,-0.018l-0.002,-0.018l-0.003,-0.018l-0.004,-0.018l-0.004,-0.017l-0.005,-0.018l-0.006,-0.017l-0.006,-0.017l-0.007,-0.017l-0.007,-0.016l-0.008,-0.017l-0.009,-0.016l-0.009,-0.016l-0.012,-0.019l-1.057,-1.603l1.288,-1.289l0.708,0.708Z" style="fill:#6b3f21;"/><path d="M14.143,18.436l-1.056,1.585l-0.013,0.02l-0.009,0.016l-0.009,0.016l-0.008,0.017l-0.008,0.016l-0.007,0.017l-0.006,0.017l-0.005,0.018l-0.005,0.018l-0.005,0.017l-0.003,0.018l-0.004,0.018l-0.002,0.019l-0.002,0.018l-0.001,0.018l0,0.023l0,2.71l-1,0l0,-2.719l0.001,-0.051l0.003,-0.055l0.005,-0.055l0.007,-0.055l0.009,-0.054l0.011,-0.054l0.013,-0.053l0.015,-0.053l0.017,-0.052l0.019,-0.052l0.021,-0.051l0.022,-0.05l0.025,-0.049l0.026,-0.049l0.028,-0.048l0.027,-0.042l0.608,-0.911l-0.711,-0.71l0.708,-0.708l1.289,1.29Z" style="fill:#6b3f21;"/><path d="M18.996,27l0.03,0l0.026,-0.001l0.026,-0.002l0.024,-0.002l0.026,-0.003l0.025,-0.004l0.025,-0.004l0.024,-0.004l0.024,-0.006l0.025,-0.006l0.023,-0.006l0.023,-0.007l0.024,-0.008l0.023,-0.008l0.022,-0.008l0.023,-0.009l0.022,-0.01l0.022,-0.01l0.022,-0.011l0.021,-0.011l0.021,-0.012l0.021,-0.013l0.021,-0.012l0.02,-0.014l0.02,-0.013l0.019,-0.014l0.019,-0.015l0.019,-0.015l0.018,-0.016l0.018,-0.016l0.018,-0.016l0.017,-0.017l0.017,-0.017l0.016,-0.018l0.017,-0.018l0.015,-0.018l0.015,-0.019l0.015,-0.019l0.014,-0.019l0.013,-0.02l0.014,-0.02l0.012,-0.021l0.013,-0.021l0.012,-0.021l0.011,-0.021l0.011,-0.022l0.01,-0.022l0.01,-0.022l0.009,-0.023l0.009,-0.022l0.007,-0.023l0.008,-0.023l0.007,-0.024l0.007,-0.024l0.005,-0.024l0.006,-0.024l0.004,-0.024l0.004,-0.025l0.004,-0.025l0.003,-0.025l0.002,-0.025l0.002,-0.026l0.001,-0.026l0,-0.032l0.002,-0.041l0.006,-0.041l0.009,-0.041l0.012,-0.039l0.016,-0.039l0.018,-0.036l0.022,-0.036l0.024,-0.033l0.027,-0.031l0.03,-0.029l0.032,-0.026l0.034,-0.024l0.035,-0.021l0.038,-0.017l0.038,-0.015l0.04,-0.011l0.041,-0.008l0.041,-0.005l0.041,-0.001l0.041,0.002l0.041,0.006l0.041,0.009l0.039,0.012l0.038,0.016l0.037,0.018l0.036,0.022l0.033,0.024l0.031,0.027l0.029,0.03l0.026,0.032l0.024,0.034l0.021,0.035l0.017,0.038l0.015,0.038l0.011,0.04l0.008,0.041l0.005,0.041l0.001,0.041l-0.001,0.045l-0.002,0.052l-0.003,0.05l-0.004,0.051l-0.006,0.05l-0.007,0.05l-0.008,0.05l-0.01,0.049l-0.01,0.048l-0.012,0.048l-0.013,0.048l-0.014,0.047l-0.015,0.047l-0.017,0.047l-0.017,0.046l-0.018,0.045l-0.02,0.044l-0.02,0.044l-0.022,0.044l-0.023,0.043l-0.023,0.042l-0.025,0.041l-0.025,0.041l-0.027,0.041l-0.027,0.039l-0.029,0.039l-0.029,0.038l-0.03,0.037l-0.031,0.037l-0.032,0.036l-0.032,0.035l-0.034,0.034l-0.034,0.034l-0.035,0.033l-0.036,0.031l-0.036,0.031l-0.038,0.03l-0.038,0.029l-0.039,0.029l-0.04,0.027l-0.04,0.027l-0.041,0.025l-0.041,0.025l-0.042,0.023l-0.043,0.023l-0.044,0.022l-0.044,0.02l-0.044,0.02l-0.045,0.018l-0.047,0.018l-0.046,0.016l-0.046,0.015l-0.048,0.014l-0.048,0.013l-0.048,0.012l-0.049,0.01l-0.049,0.01l-0.049,0.008l-0.05,0.007l-0.05,0.006l-0.051,0.004l-0.051,0.003l-0.05,0.002l-0.048,0.001l-2.211,0l-0.793,-0.793l-0.793,0.793l-2.213,0l-0.048,-0.001l-0.05,-0.002l-0.051,-0.003l-0.051,-0.004l-0.05,-0.006l-0.05,-0.007l-0.049,-0.008l-0.049,-0.01l-0.049,-0.01l-0.049,-0.012l-0.046,-0.013l-0.048,-0.014l-0.046,-0.015l-0.047,-0.016l-0.046,-0.018l-0.045,-0.018l-0.044,-0.02l-0.044,-0.02l-0.044,-0.022l-0.043,-0.023l-0.042,-0.023l-0.041,-0.024l-0.041,-0.026l-0.041,-0.026l-0.039,-0.028l-0.039,-0.028l-0.038,-0.029l-0.037,-0.03l-0.037,-0.031l-0.036,-0.032l-0.034,-0.032l-0.035,-0.034l-0.033,-0.035l-0.033,-0.034l-0.032,-0.036l-0.031,-0.037l-0.03,-0.037l-0.029,-0.038l-0.028,-0.039l-0.027,-0.039l-0.027,-0.041l-0.025,-0.04l-0.025,-0.042l-0.024,-0.042l-0.022,-0.043l-0.022,-0.044l-0.02,-0.044l-0.02,-0.044l-0.018,-0.045l-0.018,-0.046l-0.016,-0.046l-0.015,-0.047l-0.014,-0.047l-0.013,-0.048l-0.012,-0.048l-0.01,-0.049l-0.01,-0.049l-0.008,-0.049l-0.007,-0.05l-0.006,-0.05l-0.004,-0.051l-0.003,-0.051l-0.002,-0.051l-0.001,-0.048l0,-0.005l0.002,-0.041l0.005,-0.041l0.008,-0.041l0.012,-0.039l0.015,-0.039l0.018,-0.037l0.021,-0.035l0.024,-0.034l0.027,-0.032l0.029,-0.029l0.032,-0.027l0.034,-0.024l0.035,-0.021l0.037,-0.018l0.039,-0.015l0.039,-0.012l0.041,-0.008l0.041,-0.005l0.041,-0.002l0.041,0.002l0.041,0.005l0.041,0.008l0.039,0.012l0.039,0.015l0.037,0.018l0.035,0.021l0.034,0.024l0.032,0.027l0.029,0.029l0.027,0.032l0.024,0.034l0.021,0.035l0.018,0.037l0.015,0.039l0.012,0.039l0.008,0.041l0.005,0.041l0.002,0.041l0,-0.001l0,0.029l0.001,0.026l0.002,0.025l0.002,0.026l0.003,0.025l0.004,0.025l0.004,0.024l0.004,0.025l0.006,0.024l0.005,0.024l0.007,0.023l0.007,0.024l0.007,0.023l0.008,0.023l0.009,0.023l0.009,0.022l0.01,0.023l0.01,0.021l0.011,0.022l0.011,0.021l0.012,0.022l0.012,0.02l0.013,0.021l0.013,0.02l0.014,0.019l0.014,0.02l0.015,0.019l0.015,0.019l0.015,0.018l0.016,0.018l0.017,0.018l0.016,0.017l0.017,0.016l0.018,0.017l0.018,0.016l0.018,0.015l0.019,0.015l0.019,0.015l0.02,0.014l0.019,0.014l0.02,0.013l0.021,0.013l0.02,0.012l0.022,0.012l0.022,0.011l0.02,0.011l0.022,0.01l0.023,0.01l0.023,0.009l0.022,0.009l0.023,0.008l0.023,0.007l0.023,0.007l0.025,0.007l0.023,0.005l0.024,0.006l0.025,0.004l0.024,0.004l0.026,0.004l0.024,0.003l0.025,0.002l0.026,0.002l0.026,0.001l0.03,0l1.791,0l1.207,-1.207l1.207,1.207l1.789,0Z" style="fill:#755c35;"/><path d="M23,17c0,0 -0.216,0.432 -0.447,0.894c-0.339,0.678 -1.032,1.106 -1.789,1.106c-0.827,0 -1.764,0 -1.764,0c0,0 -0.277,-0.277 -0.539,-0.539c-0.255,-0.255 -0.255,-0.667 0,-0.922c0,0 0,0 0.001,-0.001c0.942,-0.942 2.337,-1.272 3.602,-0.85c0.521,0.174 0.936,0.312 0.936,0.312Z"/><path d="M9,17c0,0 0.216,0.432 0.447,0.894c0.339,0.678 1.032,1.106 1.789,1.106c0.827,0 1.764,0 1.764,0c0,0 0.277,-0.277 0.539,-0.539c0.255,-0.255 0.255,-0.667 0,-0.922c0,0 0,0 -0.001,-0.001c-0.942,-0.942 -2.337,-1.272 -3.602,-0.85c-0.521,0.174 -0.936,0.312 -0.936,0.312Z"/><path d="M7,9.293l0,2.707l2,0l0,1l-3,0l0,-3.293l-2.707,-2.707l0.707,-0.707l3,3Z" style="fill:#6b3f21;"/><path d="M15.414,23c-0.265,0 -0.519,0.105 -0.707,0.293c-0.062,0.062 -0.13,0.13 -0.197,0.197c-0.305,0.305 -0.38,0.77 -0.188,1.155c0.13,0.258 0.277,0.554 0.402,0.802c0.169,0.339 0.515,0.553 0.894,0.553c0.243,0 0.521,0 0.764,0c0.379,0 0.725,-0.214 0.894,-0.553c0.125,-0.248 0.272,-0.544 0.402,-0.802c0.192,-0.385 0.117,-0.85 -0.188,-1.155c-0.067,-0.067 -0.135,-0.135 -0.197,-0.197c-0.188,-0.188 -0.442,-0.293 -0.707,-0.293c-0.343,0 -0.829,0 -1.172,0Z"/><path d="M31,0c0.001,2.933 0.018,5.865 -0.001,8.798c-0.002,0.112 -0.005,0.223 -0.01,0.335c-0.035,0.626 -0.127,1.247 -0.288,1.854c-0.291,1.099 -0.791,2.14 -1.467,3.054c-0.264,0.357 -0.556,0.691 -0.868,1.007l-1.366,1.366l-1.414,-1.414c0.489,-0.49 0.999,-0.984 1.485,-1.488c0.276,-0.294 0.529,-0.607 0.753,-0.942c0.49,-0.735 0.839,-1.563 1.023,-2.428c0.102,-0.48 0.15,-0.968 0.153,-1.459l0,-6.065c-1.772,0.886 -3.551,1.757 -5.315,2.658c-0.078,0.042 -0.155,0.085 -0.231,0.129c-0.323,0.195 -0.626,0.419 -0.899,0.68c-0.664,0.631 -1.147,1.443 -1.384,2.328c-0.114,0.425 -0.167,0.86 -0.171,1.3l0,2.287l-2,0c0,-0.805 -0.006,-1.611 0.001,-2.416c0.016,-0.612 0.101,-1.217 0.27,-1.806c0.387,-1.349 1.185,-2.569 2.267,-3.464c0.409,-0.338 0.855,-0.624 1.328,-0.865l6.898,-3.449l1.236,0Zm-28.764,0l6.898,3.449c0.473,0.241 0.919,0.527 1.328,0.865c1.082,0.895 1.88,2.115 2.267,3.464c0.18,0.628 0.265,1.274 0.271,1.926l0,2.296l-2,0c0,-0.793 0.006,-1.587 -0.001,-2.381c-0.01,-0.379 -0.056,-0.754 -0.148,-1.123c-0.243,-0.973 -0.783,-1.862 -1.533,-2.528c-0.329,-0.292 -0.694,-0.534 -1.086,-0.734l-5.232,-2.616c0,2.081 -0.037,4.162 0.002,6.242c0.004,0.116 0.009,0.231 0.017,0.346c0.03,0.372 0.085,0.74 0.172,1.103c0.191,0.805 0.527,1.573 0.985,2.261c0.257,0.385 0.552,0.74 0.876,1.068l1.362,1.362l-1.414,1.414c-0.481,-0.481 -0.964,-0.959 -1.442,-1.443c-0.462,-0.48 -0.875,-1.002 -1.224,-1.57c-0.615,-0.999 -1.031,-2.118 -1.218,-3.276c-0.077,-0.475 -0.113,-0.955 -0.116,-1.436l0,-8.689l1.236,0Z"/></g></g></svg>