<?xml version="1.0" encoding="UTF-8" standalone="no"?><!DOCTYPE svg PUBLIC "-//W3C//DTD SVG 1.1//EN" "http://www.w3.org/Graphics/SVG/1.1/DTD/svg11.dtd"><svg width="100%" height="100%" viewBox="0 0 32 32" version="1.1" xmlns="http://www.w3.org/2000/svg" xmlns:xlink="http://www.w3.org/1999/xlink" xml:space="preserve" style="fill-rule:evenodd;clip-rule:evenodd;stroke-linejoin:round;stroke-miterlimit:1.41421;"><rect id="wolf" x="0" y="0" width="32" height="32" style="fill:none;"/><clipPath id="_clip1"><rect x="0" y="0" width="32" height="32"/></clipPath><g clip-path="url(#_clip1)"><g id="outline"><path d="M0,19.675l3,-9l0,-4.675l4.754,0c1.025,-0.256 2.049,-0.516 3.074,-0.768c0.165,-0.039 0.33,-0.077 0.495,-0.114c0.66,-0.14 1.324,-0.256 1.994,-0.338c0.835,-0.103 1.674,-0.154 2.515,-0.164c0.168,-0.001 0.168,-0.001 0.336,0c0.841,0.01 1.68,0.061 2.515,0.164c0.838,0.102 1.668,0.257 2.489,0.452l0.16,0.039l2.914,0.729l4.754,0l0,4.675l3,9l0,2.325l-1.225,0l0.836,2.508l-0.354,0.492l-4.037,0l-3.357,0.746l-1.806,3.611l-0.04,0.079c-0.104,0.182 -0.219,0.356 -0.356,0.516c-0.381,0.444 -0.89,0.771 -1.452,0.932c-0.236,0.068 -0.475,0.101 -0.72,0.114c-2.296,0.04 -4.592,0.002 -6.888,0.002c-0.206,-0.004 -0.41,-0.023 -0.611,-0.066c-0.605,-0.129 -1.163,-0.449 -1.581,-0.904c-0.186,-0.203 -0.339,-0.429 -0.466,-0.673l-1.806,-3.611c-3.641,-0.809 -3.663,-0.746 -7.394,-0.746l-0.354,-0.492l0.836,-2.508l-1.225,0l0,-2.325Z"/></g><g id="emoji"><path d="M12.618,29l6.764,0c-1.491,0 -5.273,0 -6.764,0l0,0Zm-4.618,-21l3.149,-0.787c3.185,-0.797 6.517,-0.797 9.702,0c1.679,0.42 3.149,0.787 3.149,0.787l3,0l0,3l3,9l-2,0l-6,3l-12,0l-6,-3l-2,0l3,-9l0,-3l3,0Z" style="fill:#646464;"/><path d="M28,20l1,3l-2,0l-4.5,1c0,0 -1.573,3.146 -2.224,4.447c-0.169,0.339 -0.515,0.553 -0.894,0.553l-6.764,0c-0.379,0 -0.725,-0.214 -0.894,-0.553c-0.651,-1.301 -2.224,-4.447 -2.224,-4.447l-4.5,-1l-2,0l1,-3l4,-2l0,3l3,-1l-1,2l12,0l-1,-2l3,1l0,-3l4,2Z" style="fill:#c2c2c2;"/><path d="M28,12l-0.929,0c-0.787,0 -1.555,-0.186 -2.246,-0.533l-0.238,-0.607c0,0 -0.448,-0.249 -0.607,0.07c-0.155,-0.122 -0.304,-0.254 -0.444,-0.394c-0.762,-0.762 -1.536,-1.536 -1.536,-1.536l-1,-2l2.5,2l4.5,0l0,3Z" style="fill:#c2c2c2;"/><path d="M4,12l0.929,0c0.787,0 1.555,-0.186 2.246,-0.533l0.238,-0.607c0,0 0.448,-0.249 0.607,0.07c0.155,-0.122 0.304,-0.254 0.444,-0.394c0.762,-0.762 1.536,-1.536 1.536,-1.536l1,-1l-2.5,1l-4.5,0l0,3Z" style="fill:#c2c2c2;"/><path d="M19.999,8c0.001,-0.051 0.002,-0.102 0.003,-0.152c0.013,-0.355 0.057,-0.706 0.138,-1.051c0.082,-0.345 0.2,-0.679 0.347,-1.001c0.231,-0.491 0.487,-0.98 0.726,-1.459c0.129,-0.25 0.267,-0.494 0.422,-0.729c0.388,-0.585 0.864,-1.112 1.407,-1.556c0.365,-0.298 0.759,-0.553 1.173,-0.776c0.481,-0.247 0.967,-0.485 1.451,-0.727c0.258,-0.124 0.527,-0.217 0.81,-0.267c0.155,-0.028 0.312,-0.04 0.47,-0.046c0.095,0 0.094,0 0.189,0.003c0.349,0.021 0.689,0.091 1.013,0.225c0.769,0.319 1.382,0.958 1.669,1.74c0.111,0.302 0.166,0.615 0.182,0.935c0.021,1.338 0.01,2.676 0,4.014c-0.007,0.322 -0.027,0.642 -0.066,0.962c-0.045,0.364 -0.115,0.723 -0.201,1.079l-1.004,4.019l-1.941,-0.485c0.344,-1.373 0.697,-2.744 1.029,-4.119c0.055,-0.244 0.101,-0.49 0.132,-0.739c0.03,-0.248 0.045,-0.497 0.051,-0.748c0.01,-1.317 0.063,-2.636 -0.001,-3.951c-0.011,-0.138 -0.046,-0.271 -0.11,-0.394c-0.173,-0.334 -0.529,-0.547 -0.906,-0.541c-0.128,0.003 -0.252,0.031 -0.37,0.079c-0.5,0.22 -0.98,0.482 -1.466,0.731c-0.296,0.16 -0.577,0.342 -0.838,0.555c-0.362,0.296 -0.682,0.643 -0.949,1.028c-0.114,0.166 -0.217,0.339 -0.313,0.517c-0.253,0.494 -0.508,0.989 -0.745,1.492c-0.189,0.415 -0.291,0.859 -0.301,1.315l-0.007,1.043l-1.993,-0.996l-0.001,0Zm-9.992,0.996c-0.002,-0.373 0.004,-0.759 -0.01,-1.137c-0.004,-0.078 -0.01,-0.156 -0.019,-0.234c-0.044,-0.359 -0.144,-0.703 -0.299,-1.03c-0.238,-0.485 -0.479,-0.968 -0.725,-1.449c-0.096,-0.178 -0.199,-0.351 -0.313,-0.517c-0.267,-0.385 -0.587,-0.732 -0.949,-1.028c-0.261,-0.213 -0.542,-0.395 -0.838,-0.555c-0.486,-0.249 -0.966,-0.511 -1.466,-0.731c-0.118,-0.048 -0.242,-0.076 -0.37,-0.079c-0.377,-0.006 -0.733,0.207 -0.906,0.541c-0.064,0.123 -0.099,0.256 -0.11,0.394c-0.064,1.315 -0.011,2.634 -0.001,3.951c0.006,0.286 0.026,0.571 0.065,0.855c0.035,0.249 0.085,0.495 0.144,0.74l1.003,4.011l-1.941,0.485c-0.345,-1.383 -0.701,-2.764 -1.036,-4.149c-0.071,-0.314 -0.129,-0.63 -0.169,-0.949c-0.039,-0.32 -0.059,-0.64 -0.066,-0.962c-0.01,-1.308 -0.001,-2.617 -0.001,-3.925c0.005,-0.318 0.052,-0.632 0.152,-0.935c0.272,-0.821 0.901,-1.498 1.7,-1.829c0.324,-0.134 0.664,-0.204 1.013,-0.225c0.095,-0.003 0.094,-0.003 0.189,-0.003c0.222,0.008 0.44,0.033 0.656,0.085c0.188,0.046 0.368,0.112 0.544,0.19c0.473,0.227 0.94,0.468 1.409,0.702c0.292,0.15 0.575,0.314 0.846,0.501c0.577,0.399 1.093,0.886 1.527,1.438c0.261,0.333 0.487,0.69 0.688,1.064c0.269,0.523 0.538,1.047 0.789,1.58c0.147,0.322 0.265,0.656 0.347,1.001c0.081,0.345 0.125,0.696 0.138,1.051l0.001,0.076l0.001,0.076l0,0l-1.993,0.996Z"/><path d="M21.996,8.569l0.004,-0.616c0.01,-0.456 0.112,-0.9 0.301,-1.315c0.237,-0.503 0.492,-0.998 0.745,-1.492c0.096,-0.178 0.199,-0.351 0.313,-0.517c0.267,-0.385 0.587,-0.732 0.949,-1.028c0.261,-0.213 0.542,-0.395 0.838,-0.555c0.486,-0.249 0.966,-0.511 1.466,-0.731c0.118,-0.048 0.242,-0.076 0.37,-0.079c0.377,-0.006 0.733,0.207 0.906,0.541c0.064,0.123 0.099,0.256 0.11,0.394c0.064,1.315 0.011,2.634 0.001,3.951c-0.006,0.251 -0.021,0.5 -0.051,0.748c-0.031,0.249 -0.077,0.495 -0.132,0.739c-0.232,0.96 -0.474,1.918 -0.716,2.877l-5.104,-2.917Z" style="fill:#c2c2c2;"/><path d="M4.902,11.485l-0.692,-2.768c-0.059,-0.245 -0.109,-0.491 -0.144,-0.74c-0.039,-0.284 -0.059,-0.569 -0.065,-0.855c-0.01,-1.317 -0.063,-2.636 0.001,-3.951c0.011,-0.138 0.046,-0.271 0.11,-0.394c0.173,-0.334 0.529,-0.547 0.906,-0.541c0.128,0.003 0.252,0.031 0.37,0.079c0.5,0.22 0.98,0.482 1.466,0.731c0.296,0.16 0.577,0.342 0.838,0.555c0.362,0.296 0.682,0.643 0.949,1.028c0.114,0.166 0.217,0.339 0.313,0.517c0.246,0.481 0.487,0.964 0.725,1.449c0.155,0.327 0.255,0.671 0.299,1.03c0.009,0.078 0.015,0.156 0.019,0.234c0.008,0.235 0.009,0.473 0.009,0.709l-5.104,2.917Z" style="fill:#c2c2c2;"/><path d="M23.98,10.93c0.159,-0.319 0.318,-0.639 0.475,-0.959c0.216,-0.456 0.374,-0.937 0.462,-1.435c0.055,-0.316 0.081,-0.634 0.083,-0.954l0,-2.582l1,0c0,0.862 0,1.724 0,2.585c-0.004,0.566 -0.074,1.127 -0.22,1.674c-0.113,0.425 -0.272,0.835 -0.465,1.23l-0.49,0.978c-0.298,-0.149 -0.581,-0.329 -0.845,-0.537Z" style="fill:#4c4c4c;"/><path d="M8.02,10.93c-0.159,-0.319 -0.318,-0.639 -0.475,-0.959c-0.216,-0.456 -0.374,-0.937 -0.462,-1.435c-0.055,-0.316 -0.081,-0.634 -0.083,-0.954l0,-2.582l-1,0c0,0.862 0,1.724 0,2.585c0.004,0.566 0.074,1.127 0.22,1.674c0.113,0.425 0.272,0.835 0.465,1.23l0.49,0.978c0.298,-0.149 0.581,-0.329 0.845,-0.537Z" style="fill:#4c4c4c;"/><path d="M15,21c-0.552,0 -1,0.448 -1,1c0,0.207 0,0.414 0,0.586c0,0.265 0.105,0.519 0.293,0.707c0.13,0.13 0.284,0.284 0.414,0.414c0.188,0.188 0.442,0.293 0.707,0.293c0.343,0 0.829,0 1.172,0c0.265,0 0.519,-0.105 0.707,-0.293c0.13,-0.13 0.284,-0.284 0.414,-0.414c0.188,-0.188 0.293,-0.442 0.293,-0.707c0,-0.172 0,-0.379 0,-0.586c0,-0.552 -0.448,-1 -1,-1c-0.611,0 -1.389,0 -2,0Z"/><path d="M20,17.849l1.75,2.625l0.028,0.043l0.028,0.048l0.026,0.048l0.025,0.05l0.022,0.05l0.021,0.051l0.019,0.052l0.017,0.052l0.015,0.053l0.013,0.054l0.011,0.053l0.009,0.054l0.007,0.055l0.005,0.055l0.003,0.055l0.001,0.051l0,0.702l-1,0l0,-0.693l0,-0.023l-0.001,-0.018l-0.002,-0.018l-0.003,-0.019l-0.003,-0.018l-0.003,-0.018l-0.005,-0.018l-0.004,-0.017l-0.006,-0.017l-0.006,-0.018l-0.007,-0.017l-0.008,-0.016l-0.008,-0.017l-0.009,-0.016l-0.009,-0.016l-0.012,-0.019l-1.914,-2.871l0,-0.668l1,0l0,0.366Z" style="fill:#353535;"/><path d="M13,18.151l-1.914,2.871l-0.012,0.019l-0.009,0.016l-0.009,0.016l-0.008,0.017l-0.008,0.016l-0.007,0.017l-0.006,0.018l-0.006,0.017l-0.004,0.017l-0.005,0.018l-0.003,0.018l-0.003,0.018l-0.003,0.019l-0.002,0.018l-0.001,0.018l0,0.023l0,0.71l-1,0l0,-0.719l0.001,-0.051l0.003,-0.055l0.005,-0.055l0.007,-0.055l0.009,-0.054l0.011,-0.053l0.013,-0.054l0.015,-0.053l0.017,-0.052l0.019,-0.052l0.021,-0.051l0.022,-0.05l0.025,-0.05l0.026,-0.048l0.028,-0.048l0.028,-0.043l1.75,-2.625l0,-0.349l1,0l0,0.651Z" style="fill:#353535;"/><path d="M21.044,23.502l0.043,0.006l0.042,0.009l0.042,0.013l0.04,0.017l0.039,0.02l0.037,0.023l0.034,0.027l0.033,0.029l0.029,0.033l0.027,0.034l0.023,0.037l0.02,0.039l0.017,0.04l0.013,0.042l0.009,0.042l0.006,0.043l0.002,0.044l0,0.561l0,0.048l-0.002,0.05l-0.002,0.05l-0.004,0.05l-0.004,0.049l-0.006,0.049l-0.006,0.049l-0.008,0.049l-0.008,0.049l-0.009,0.048l-0.01,0.048l-0.011,0.048l-0.012,0.047l-0.013,0.047l-0.014,0.047l-0.015,0.046l-0.015,0.046l-0.017,0.046l-0.017,0.045l-0.019,0.047l-0.038,0.086l-0.042,0.087l-0.045,0.085l-0.049,0.083l-0.051,0.081l-0.055,0.079l-0.057,0.077l-0.061,0.075l-0.064,0.072l-0.066,0.07l-0.069,0.067l-0.07,0.063l-0.038,0.033l-0.038,0.031l-0.038,0.03l-0.038,0.029l-0.04,0.029l-0.04,0.028l-0.041,0.027l-0.041,0.026l-0.041,0.025l-0.043,0.026l-0.043,0.024l-0.043,0.023l-0.044,0.022l-0.044,0.022l-0.046,0.021l-0.045,0.019l-0.046,0.019l-0.047,0.019l-0.047,0.017l-0.045,0.015l-1.831,0.611l-1.962,-0.981l-1.962,0.981l-1.831,-0.611l-0.045,-0.015l-0.047,-0.017l-0.047,-0.019l-0.046,-0.019l-0.045,-0.019l-0.046,-0.021l-0.044,-0.022l-0.044,-0.022l-0.043,-0.023l-0.043,-0.024l-0.043,-0.026l-0.041,-0.025l-0.041,-0.026l-0.041,-0.027l-0.04,-0.028l-0.04,-0.029l-0.038,-0.029l-0.038,-0.03l-0.038,-0.031l-0.038,-0.033l-0.07,-0.063l-0.069,-0.067l-0.066,-0.07l-0.064,-0.072l-0.061,-0.075l-0.057,-0.077l-0.055,-0.079l-0.051,-0.081l-0.049,-0.083l-0.045,-0.085l-0.042,-0.087l-0.038,-0.086l-0.019,-0.047l-0.017,-0.045l-0.017,-0.046l-0.015,-0.046l-0.015,-0.046l-0.014,-0.047l-0.013,-0.047l-0.012,-0.047l-0.011,-0.048l-0.01,-0.048l-0.009,-0.048l-0.008,-0.049l-0.008,-0.049l-0.006,-0.049l-0.006,-0.049l-0.004,-0.05l-0.004,-0.049l-0.002,-0.05l-0.002,-0.05l0,-0.048l0,-0.561l0.002,-0.044l0.006,-0.043l0.009,-0.042l0.013,-0.042l0.017,-0.04l0.02,-0.039l0.023,-0.037l0.027,-0.034l0.029,-0.033l0.033,-0.029l0.034,-0.027l0.037,-0.023l0.039,-0.02l0.04,-0.017l0.042,-0.013l0.042,-0.009l0.043,-0.006l0.044,-0.002l0.044,0.002l0.043,0.006l0.042,0.009l0.042,0.013l0.04,0.017l0.039,0.02l0.037,0.023l0.034,0.027l0.033,0.029l0.029,0.033l0.027,0.034l0.023,0.037l0.02,0.039l0.017,0.04l0.013,0.042l0.009,0.042l0.006,0.043l0.002,0.044l0,0.556l0,0.033l0.001,0.03l0.002,0.03l0.002,0.03l0.002,0.03l0.004,0.029l0.004,0.03l0.004,0.029l0.005,0.029l0.005,0.029l0.007,0.029l0.006,0.028l0.007,0.028l0.008,0.029l0.008,0.028l0.009,0.028l0.009,0.027l0.01,0.027l0.011,0.027l0.01,0.025l0.024,0.056l0.025,0.051l0.027,0.051l0.029,0.05l0.031,0.049l0.033,0.047l0.035,0.047l0.036,0.045l0.038,0.043l0.04,0.042l0.041,0.04l0.045,0.041l0.021,0.017l0.022,0.018l0.023,0.018l0.023,0.018l0.024,0.017l0.023,0.017l0.024,0.016l0.025,0.016l0.026,0.015l0.025,0.015l0.026,0.014l0.026,0.014l0.026,0.013l0.027,0.014l0.027,0.012l0.027,0.012l0.028,0.011l0.028,0.011l0.028,0.011l0.031,0.01l1.434,0.478l2.038,-1.019l2.038,1.019l1.434,-0.478l0.031,-0.01l0.028,-0.011l0.028,-0.011l0.028,-0.011l0.027,-0.012l0.027,-0.012l0.027,-0.014l0.026,-0.013l0.026,-0.014l0.026,-0.014l0.025,-0.015l0.026,-0.015l0.025,-0.016l0.024,-0.016l0.023,-0.017l0.024,-0.017l0.023,-0.018l0.023,-0.018l0.022,-0.018l0.021,-0.017l0.045,-0.041l0.041,-0.04l0.04,-0.042l0.038,-0.043l0.036,-0.045l0.035,-0.047l0.033,-0.047l0.031,-0.049l0.029,-0.05l0.027,-0.05l0.025,-0.052l0.024,-0.056l0.01,-0.025l0.011,-0.027l0.01,-0.027l0.009,-0.028l0.009,-0.027l0.008,-0.028l0.008,-0.029l0.007,-0.028l0.006,-0.028l0.007,-0.029l0.005,-0.029l0.005,-0.029l0.004,-0.029l0.004,-0.03l0.004,-0.029l0.002,-0.03l0.002,-0.03l0.002,-0.03l0.001,-0.03l0,-0.033l0,-0.556l0.002,-0.044l0.006,-0.043l0.009,-0.042l0.013,-0.042l0.017,-0.04l0.02,-0.039l0.023,-0.037l0.027,-0.034l0.029,-0.033l0.033,-0.029l0.034,-0.027l0.037,-0.023l0.039,-0.02l0.04,-0.017l0.042,-0.013l0.042,-0.009l0.043,-0.006l0.044,-0.002l0.044,0.002Z" style="fill:#4c4c4c;"/><g><rect x="19" y="15" width="5" height="1"/><rect x="8" y="15" width="5" height="1"/><path d="M23,15c0,0 0,0.242 0,0.558c0,0.861 -0.551,1.626 -1.368,1.898c-0.791,0.264 -1.632,0.544 -1.632,0.544l-1,0l0,-3l4,0Z"/><path d="M9,15c0,0 0,0.242 0,0.558c0,0.861 0.551,1.626 1.368,1.898c0.791,0.264 1.632,0.544 1.632,0.544l1,0l0,-3l-4,0Z"/></g></g></g></svg>