<?xml version="1.0" encoding="UTF-8" standalone="no"?>
<!DOCTYPE svg PUBLIC "-//W3C//DTD SVG 1.1//EN" "http://www.w3.org/Graphics/SVG/1.1/DTD/svg11.dtd">
<svg width="100%" height="100%" viewBox="0 0 32 32" version="1.1" xmlns="http://www.w3.org/2000/svg" xmlns:xlink="http://www.w3.org/1999/xlink" xml:space="preserve" xmlns:serif="http://www.serif.com/" style="fill-rule:evenodd;clip-rule:evenodd;stroke-linecap:round;stroke-miterlimit:3;">
    <rect id="western_dragon" x="0" y="0" width="32" height="32" style="fill:none;"/>
    <clipPath id="_clip1">
        <rect x="0" y="0" width="32" height="32"/>
    </clipPath>
    <g clip-path="url(#_clip1)">
        <g id="outline">
            <path d="M26.565,16.177c0.352,-1.763 -0.104,-3.591 -1.244,-4.981c-1.139,-1.39 -2.842,-2.196 -4.64,-2.196c-1.324,0 -2.602,0 -3.61,0c-1.326,0 -2.598,0.527 -3.535,1.464c-2.55,2.55 -7.536,7.536 -7.536,7.536c0,0 0,0 0,0c-0.64,0 -1.254,0.254 -1.707,0.707c-0.335,0.335 -0.754,0.754 -1.18,1.18c-0.56,0.56 -0.875,1.32 -0.875,2.113c0,0.793 0.315,1.553 0.875,2.113c0.498,0.498 0.887,0.887 0.887,0.887l2,0l4,4l0,-3c0,0 4.675,-4.675 6.384,-6.384c0.34,-0.34 0.892,-0.34 1.232,0c0,0 0,0 0.001,0.001c0.231,0.231 0.298,0.58 0.169,0.881c-0.518,1.21 -1.846,4.309 -2.463,5.747c-0.213,0.498 -0.323,1.034 -0.323,1.576c0,0.888 0,2.179 0,2.179l10,0c0,0 0,-3.181 0,-4.911c0,-0.724 0.072,-1.447 0.214,-2.157c0.287,-1.439 0.824,-4.124 1.351,-6.755Z" style="fill:none;stroke:#000;stroke-width:4px;"/>
            <path d="M18,9c0,0 0.385,0.385 0.879,0.879c0.562,0.562 1.325,0.878 2.121,0.878c0.796,0 1.559,-0.316 2.121,-0.878c0.624,-0.624 1.28,-1.28 1.809,-1.809c0.698,-0.698 1.173,-1.587 1.367,-2.554c0.295,-1.475 0.703,-3.516 0.703,-3.516l-9,7Z" style="fill:#be8b40;stroke:#000;stroke-width:4px;stroke-linecap:butt;stroke-linejoin:round;stroke-miterlimit:1.5;"/>
            <rect x="11" y="20" width="12" height="9"/>
            <path d="M17,14l0,-5c0,0 0,0 0,0c1.827,-1.827 4.553,-2.418 6.972,-1.511c2.009,0.754 4.028,1.511 4.028,1.511l-2,1l4,6l-2,0l1,8l-2,0l1,6l-4,0l0,-16l-7,0Z" style="fill:#1c5832;stroke:#000;stroke-width:4px;stroke-linecap:butt;stroke-linejoin:round;stroke-miterlimit:2;"/>
            <path d="M13,12l2,-8l2,6l-4,2Z" style="fill:none;stroke:#000;stroke-width:4px;stroke-linejoin:round;stroke-miterlimit:2;"/>
        </g>
        <g id="emoji">
            <path d="M17,14l0,-5c0,0 0,0 0,0c1.827,-1.827 4.553,-2.418 6.972,-1.511c2.009,0.754 4.028,1.511 4.028,1.511l-2,1l4,6l-2,0l1,8l-2,0l1,6l-4,0l0,-16l-7,0Z" style="fill:#742125;"/>
            <path d="M13,12l2,-8l2,6l-4,2Z" style="fill:#d8c31e;"/>
            <path d="M5.292,25l-1.292,0l-0.887,-0.887c-0.56,-0.56 -0.875,-1.32 -0.875,-2.113c0,-0.793 0.315,-1.553 0.875,-2.113c0.426,-0.426 0.845,-0.845 1.18,-1.18c0.453,-0.453 1.067,-0.707 1.707,-0.707l0,0l7.536,-7.536c0.937,-0.937 2.209,-1.464 3.535,-1.464c1.008,0 2.286,0 3.61,0c1.798,0 3.501,0.806 4.64,2.196c1.14,1.39 1.596,3.218 1.244,4.981c-0.527,2.631 -1.064,5.316 -1.351,6.755c-0.142,0.71 -0.214,1.433 -0.214,2.157l0,4.911l-6,0l-1.308,-2.718l0.793,-7.356c0,0 -1.161,-1.25 -2.083,-0.328l-6.402,6.402l0,3l-3.647,-3.647l-0.033,-0.332l-0.626,-0.101l-0.402,0.08Z" style="fill:#d5232f;"/>
            <path d="M16.384,19.616l0.018,-0.018c0.922,-0.922 2.376,-1.042 3.437,-0.284c0.001,0 0.001,0 0.001,0.001c0.977,0.698 1.359,1.968 0.928,3.089c-0.469,1.217 -1.055,2.742 -1.42,3.692c-0.23,0.598 -0.348,1.232 -0.348,1.872l0,2.032l-4,0c0,0 0,-1.291 0,-2.179c0,-0.542 0.11,-1.078 0.323,-1.576c0.617,-1.438 1.945,-4.537 2.463,-5.747c0.129,-0.301 0.062,-0.65 -0.169,-0.881c-0.001,-0.001 -0.001,-0.001 -0.001,-0.001c-0.34,-0.34 -0.892,-0.34 -1.232,0Z" style="fill:#ee869b;"/>
            <path d="M5.292,25l3.708,-3.712l0.002,-1.835c0.032,-0.256 0.238,-0.447 0.498,-0.458l2.5,0l0,-1.995l1,0c0,0.832 0,1.663 0,2.495c-0.011,0.273 -0.224,0.488 -0.5,0.5l-2.5,0l0,1.5c-0.009,0.229 -0.057,0.256 -0.146,0.353l-3.501,3.505l-0.353,-0.353l-0.708,0Z" style="fill:#9c1b31;"/>
            <path d="M5,20.5l-1,1" style="fill:none;stroke:#7f1318;stroke-width:2px;stroke-linejoin:round;stroke-miterlimit:2;"/>
            <path d="M17,12c0,0 -0.427,0 -1.002,0c-0.795,0 -1.558,0.316 -2.12,0.878c-0.562,0.562 -0.878,1.325 -0.878,2.12c0,0.001 0,0.002 0,0.002c0,0 0.426,0 1,0c1.657,0 3,-1.343 3,-3c0,0 0,0 0,0Z"/>
            <path d="M18,9c0,0 0.385,0.385 0.879,0.879c0.562,0.562 1.325,0.878 2.121,0.878c0.796,0 1.559,-0.316 2.121,-0.878c0.624,-0.624 1.28,-1.28 1.809,-1.809c0.698,-0.698 1.173,-1.587 1.367,-2.554c0.295,-1.475 0.703,-3.516 0.703,-3.516l-9,7Z" style="fill:#d8c31e;"/>
        </g>
    </g>
</svg>
