<?xml version="1.0" encoding="UTF-8" standalone="no"?><!DOCTYPE svg PUBLIC "-//W3C//DTD SVG 1.1//EN" "http://www.w3.org/Graphics/SVG/1.1/DTD/svg11.dtd"><svg width="100%" height="100%" viewBox="0 0 32 32" version="1.1" xmlns="http://www.w3.org/2000/svg" xmlns:xlink="http://www.w3.org/1999/xlink" xml:space="preserve" xmlns:serif="http://www.serif.com/" style="fill-rule:evenodd;clip-rule:evenodd;stroke-linejoin:round;stroke-miterlimit:1.41421;"><rect id="angry" x="0" y="0" width="32" height="32" style="fill:none;"/><clipPath id="_clip1"><rect x="0" y="0" width="32" height="32"/></clipPath><g clip-path="url(#_clip1)"><g id="outline"><path d="M16.206,2.001l0.206,0.004l0.205,0.007l0.205,0.009l0.204,0.011l0.203,0.015l0.203,0.016l0.201,0.019l0.202,0.022l0.2,0.024l0.2,0.027l0.199,0.029l0.198,0.032l0.198,0.034l0.197,0.036l0.195,0.039l0.195,0.041l0.195,0.044l0.193,0.046l0.192,0.048l0.192,0.05l0.19,0.053l0.19,0.055l0.188,0.058l0.188,0.059l0.186,0.062l0.186,0.064l0.184,0.066l0.184,0.069l0.182,0.07l0.181,0.073l0.181,0.075l0.179,0.077l0.177,0.079l0.177,0.081l0.176,0.084l0.174,0.085l0.173,0.087l0.172,0.09l0.171,0.091l0.169,0.094l0.169,0.095l0.166,0.097l0.166,0.1l0.164,0.101l0.163,0.103l0.162,0.105l0.16,0.107l0.159,0.108l0.157,0.111l0.157,0.112l0.154,0.115l0.153,0.116l0.152,0.117l0.15,0.12l0.149,0.121l0.148,0.123l0.146,0.125l0.144,0.127l0.142,0.128l0.142,0.13l0.139,0.131l0.138,0.133l0.137,0.135l0.135,0.137l0.133,0.138l0.131,0.139l0.13,0.142l0.128,0.142l0.127,0.144l0.125,0.146l0.123,0.148l0.121,0.149l0.12,0.15l0.117,0.152l0.116,0.153l0.115,0.154l0.112,0.156l0.111,0.158l0.108,0.159l0.107,0.16l0.105,0.162l0.103,0.163l0.101,0.164l0.1,0.165l0.097,0.168l0.095,0.168l0.094,0.169l0.091,0.171l0.09,0.172l0.087,0.173l0.085,0.174l0.083,0.176l0.082,0.177l0.079,0.177l0.077,0.179l0.075,0.181l0.073,0.181l0.07,0.182l0.069,0.184l0.066,0.184l0.064,0.186l0.062,0.186l0.059,0.188l0.058,0.188l0.055,0.19l0.053,0.19l0.05,0.192l0.048,0.192l0.046,0.193l0.044,0.195l0.041,0.195l0.039,0.195l0.036,0.197l0.034,0.198l0.032,0.198l0.029,0.199l0.027,0.2l0.024,0.2l0.022,0.201l0.019,0.202l0.016,0.203l0.015,0.203l0.011,0.204l0.009,0.205l0.007,0.205l0.004,0.206l0.001,0.2l0,1.012l-0.001,0.162l-0.003,0.166l-0.005,0.167l-0.008,0.166l-0.009,0.166l-0.012,0.165l-0.013,0.165l-0.016,0.164l-0.018,0.163l-0.019,0.163l-0.022,0.163l-0.024,0.161l-0.025,0.161l-0.028,0.161l-0.03,0.16l-0.031,0.159l-0.033,0.158l-0.036,0.158l-0.037,0.157l-0.039,0.156l-0.041,0.156l-0.043,0.155l-0.045,0.154l-0.047,0.153l-0.048,0.152l-0.05,0.152l-0.053,0.151l-0.053,0.15l-0.056,0.149l-0.057,0.148l-0.059,0.147l-0.061,0.147l-0.063,0.145l-0.064,0.145l-0.066,0.143l-0.068,0.143l-0.069,0.142l-0.071,0.141l-0.073,0.139l-0.074,0.139l-0.076,0.138l-0.078,0.136l-0.079,0.136l-0.08,0.134l-0.082,0.134l-0.084,0.132l-0.085,0.132l-0.087,0.13l-0.089,0.129l-0.09,0.128l-0.091,0.127l-0.093,0.125l-0.094,0.125l-0.096,0.123l-0.097,0.122l-0.098,0.121l-0.1,0.12l-0.102,0.118l-0.102,0.117l-0.105,0.116l-0.105,0.115l-0.107,0.113l-0.108,0.112l-0.11,0.111l-0.11,0.11l-0.113,0.108l-0.113,0.107l-0.115,0.105l-0.116,0.105l-0.117,0.102l-0.118,0.102l-0.12,0.1l-0.121,0.098l-0.122,0.097l-0.123,0.096l-0.125,0.094l-0.125,0.093l-0.127,0.092l-0.128,0.089l-0.129,0.089l-0.13,0.086l-0.132,0.086l-0.132,0.084l-0.134,0.082l-0.134,0.08l-0.136,0.079l-0.136,0.078l-0.138,0.076l-0.139,0.074l-0.139,0.073l-0.141,0.071l-0.142,0.069l-0.143,0.068l-0.143,0.066l-0.145,0.064l-0.145,0.063l-0.147,0.06l-0.147,0.06l-0.148,0.057l-0.149,0.056l-0.15,0.053l-0.151,0.053l-0.152,0.05l-0.152,0.048l-0.153,0.047l-0.154,0.045l-0.155,0.043l-0.156,0.041l-0.156,0.039l-0.157,0.037l-0.158,0.035l-0.158,0.034l-0.159,0.031l-0.16,0.03l-0.161,0.028l-0.161,0.025l-0.161,0.024l-0.163,0.022l-0.163,0.019l-0.163,0.018l-0.164,0.016l-0.165,0.013l-0.165,0.012l-0.166,0.009l-0.166,0.008l-0.166,0.005l-0.167,0.003l-0.162,0.001l-6.012,0l-0.162,-0.001l-0.167,-0.003l-0.166,-0.005l-0.166,-0.008l-0.166,-0.009l-0.165,-0.012l-0.165,-0.013l-0.164,-0.016l-0.163,-0.018l-0.163,-0.019l-0.163,-0.022l-0.161,-0.024l-0.161,-0.025l-0.161,-0.028l-0.16,-0.03l-0.159,-0.031l-0.158,-0.034l-0.158,-0.035l-0.157,-0.037l-0.156,-0.039l-0.156,-0.041l-0.155,-0.043l-0.154,-0.045l-0.153,-0.047l-0.152,-0.048l-0.152,-0.05l-0.151,-0.053l-0.15,-0.053l-0.149,-0.056l-0.148,-0.057l-0.147,-0.06l-0.147,-0.06l-0.145,-0.063l-0.145,-0.064l-0.143,-0.066l-0.143,-0.068l-0.142,-0.069l-0.141,-0.071l-0.139,-0.073l-0.139,-0.074l-0.138,-0.076l-0.136,-0.078l-0.136,-0.079l-0.134,-0.08l-0.134,-0.082l-0.132,-0.084l-0.132,-0.086l-0.13,-0.086l-0.129,-0.089l-0.128,-0.089l-0.127,-0.092l-0.125,-0.093l-0.125,-0.094l-0.123,-0.096l-0.122,-0.097l-0.121,-0.098l-0.12,-0.1l-0.118,-0.102l-0.117,-0.102l-0.116,-0.105l-0.115,-0.105l-0.113,-0.107l-0.113,-0.108l-0.11,-0.11l-0.11,-0.11l-0.108,-0.113l-0.107,-0.113l-0.106,-0.115l-0.104,-0.116l-0.102,-0.117l-0.102,-0.118l-0.1,-0.12l-0.098,-0.121l-0.097,-0.122l-0.096,-0.123l-0.094,-0.125l-0.093,-0.125l-0.091,-0.127l-0.09,-0.128l-0.089,-0.129l-0.087,-0.13l-0.085,-0.132l-0.084,-0.132l-0.082,-0.133l-0.08,-0.135l-0.08,-0.136l-0.077,-0.136l-0.076,-0.138l-0.074,-0.139l-0.073,-0.139l-0.071,-0.141l-0.069,-0.142l-0.068,-0.143l-0.066,-0.143l-0.064,-0.145l-0.063,-0.145l-0.061,-0.147l-0.059,-0.147l-0.057,-0.148l-0.056,-0.149l-0.053,-0.15l-0.053,-0.151l-0.05,-0.151l-0.048,-0.153l-0.047,-0.153l-0.045,-0.154l-0.043,-0.155l-0.041,-0.156l-0.039,-0.156l-0.037,-0.157l-0.036,-0.158l-0.033,-0.158l-0.031,-0.159l-0.03,-0.16l-0.028,-0.161l-0.025,-0.161l-0.024,-0.161l-0.022,-0.163l-0.019,-0.163l-0.018,-0.163l-0.016,-0.164l-0.013,-0.165l-0.012,-0.165l-0.009,-0.166l-0.008,-0.166l-0.005,-0.167l-0.003,-0.167l-0.001,-0.161l0,-1.012l0.001,-0.2l0.004,-0.206l0.007,-0.205l0.009,-0.205l0.011,-0.204l0.015,-0.203l0.016,-0.203l0.019,-0.201l0.022,-0.202l0.024,-0.2l0.027,-0.2l0.029,-0.199l0.032,-0.198l0.034,-0.198l0.036,-0.197l0.039,-0.195l0.041,-0.195l0.044,-0.195l0.046,-0.193l0.048,-0.192l0.05,-0.191l0.053,-0.191l0.055,-0.19l0.058,-0.188l0.059,-0.188l0.062,-0.186l0.064,-0.186l0.066,-0.184l0.069,-0.184l0.07,-0.182l0.073,-0.181l0.075,-0.181l0.077,-0.179l0.079,-0.177l0.082,-0.177l0.083,-0.176l0.085,-0.174l0.087,-0.173l0.09,-0.172l0.091,-0.171l0.094,-0.169l0.095,-0.169l0.097,-0.167l0.1,-0.165l0.101,-0.164l0.103,-0.163l0.105,-0.162l0.107,-0.16l0.108,-0.159l0.111,-0.158l0.112,-0.156l0.115,-0.154l0.116,-0.153l0.117,-0.152l0.12,-0.151l0.121,-0.148l0.123,-0.148l0.125,-0.146l0.127,-0.144l0.128,-0.142l0.13,-0.142l0.131,-0.139l0.133,-0.138l0.135,-0.137l0.137,-0.135l0.138,-0.133l0.139,-0.131l0.142,-0.13l0.142,-0.128l0.145,-0.127l0.145,-0.125l0.148,-0.123l0.149,-0.121l0.15,-0.12l0.151,-0.117l0.154,-0.116l0.154,-0.115l0.156,-0.112l0.158,-0.111l0.159,-0.108l0.16,-0.107l0.162,-0.105l0.163,-0.103l0.164,-0.101l0.166,-0.1l0.166,-0.097l0.169,-0.095l0.169,-0.094l0.171,-0.091l0.172,-0.09l0.173,-0.087l0.174,-0.085l0.176,-0.084l0.177,-0.081l0.177,-0.079l0.179,-0.077l0.181,-0.075l0.181,-0.073l0.182,-0.07l0.184,-0.069l0.184,-0.066l0.186,-0.064l0.186,-0.062l0.188,-0.059l0.188,-0.058l0.19,-0.055l0.19,-0.053l0.192,-0.05l0.192,-0.048l0.193,-0.046l0.195,-0.044l0.195,-0.041l0.195,-0.039l0.197,-0.036l0.198,-0.034l0.198,-0.032l0.199,-0.029l0.2,-0.027l0.2,-0.024l0.202,-0.022l0.201,-0.019l0.203,-0.016l0.203,-0.015l0.204,-0.011l0.205,-0.009l0.205,-0.007l0.206,-0.004l0.2,-0.001l0.012,0l0.2,0.001Zm-0.362,4l-0.155,0.003l-0.154,0.005l-0.154,0.007l-0.154,0.008l-0.152,0.011l-0.153,0.013l-0.151,0.014l-0.151,0.016l-0.151,0.019l-0.15,0.02l-0.149,0.021l-0.149,0.024l-0.148,0.026l-0.147,0.027l-0.147,0.029l-0.146,0.031l-0.145,0.032l-0.145,0.035l-0.143,0.036l-0.144,0.038l-0.142,0.039l-0.142,0.041l-0.141,0.043l-0.14,0.045l-0.14,0.046l-0.139,0.048l-0.138,0.05l-0.137,0.051l-0.137,0.053l-0.135,0.054l-0.135,0.056l-0.134,0.058l-0.134,0.059l-0.132,0.061l-0.131,0.062l-0.131,0.064l-0.13,0.066l-0.129,0.067l-0.128,0.068l-0.127,0.07l-0.126,0.072l-0.125,0.073l-0.124,0.074l-0.123,0.076l-0.122,0.077l-0.122,0.079l-0.12,0.08l-0.119,0.082l-0.118,0.083l-0.118,0.084l-0.116,0.086l-0.115,0.087l-0.114,0.089l-0.113,0.089l-0.111,0.091l-0.111,0.093l-0.109,0.094l-0.109,0.095l-0.107,0.096l-0.106,0.098l-0.105,0.098l-0.104,0.1l-0.102,0.102l-0.101,0.102l-0.101,0.104l-0.098,0.105l-0.098,0.106l-0.096,0.107l-0.095,0.109l-0.094,0.109l-0.093,0.111l-0.091,0.112l-0.089,0.112l-0.089,0.114l-0.087,0.115l-0.086,0.117l-0.084,0.117l-0.083,0.118l-0.082,0.119l-0.08,0.12l-0.079,0.122l-0.077,0.122l-0.076,0.123l-0.074,0.124l-0.073,0.125l-0.072,0.126l-0.07,0.127l-0.068,0.128l-0.067,0.129l-0.066,0.13l-0.064,0.131l-0.062,0.131l-0.061,0.132l-0.059,0.134l-0.058,0.134l-0.056,0.135l-0.054,0.135l-0.053,0.137l-0.051,0.137l-0.05,0.138l-0.048,0.139l-0.046,0.14l-0.045,0.14l-0.043,0.141l-0.041,0.142l-0.039,0.142l-0.038,0.144l-0.036,0.144l-0.035,0.144l-0.032,0.145l-0.031,0.146l-0.029,0.147l-0.027,0.147l-0.026,0.148l-0.024,0.149l-0.021,0.149l-0.02,0.15l-0.019,0.151l-0.016,0.151l-0.014,0.151l-0.013,0.153l-0.011,0.152l-0.008,0.154l-0.007,0.154l-0.005,0.154l-0.003,0.155l-0.001,0.162l0,0.988l0.001,0.123l0.002,0.116l0.004,0.116l0.005,0.116l0.006,0.115l0.008,0.115l0.01,0.114l0.011,0.114l0.012,0.113l0.013,0.113l0.015,0.112l0.017,0.112l0.018,0.112l0.019,0.111l0.02,0.11l0.022,0.11l0.023,0.109l0.024,0.109l0.026,0.109l0.027,0.108l0.029,0.107l0.029,0.107l0.031,0.106l0.032,0.106l0.034,0.105l0.034,0.105l0.036,0.104l0.038,0.103l0.038,0.104l0.04,0.102l0.04,0.101l0.042,0.102l0.044,0.1l0.044,0.1l0.046,0.099l0.047,0.099l0.047,0.098l0.05,0.097l0.05,0.097l0.051,0.095l0.053,0.096l0.053,0.094l0.055,0.094l0.056,0.093l0.057,0.093l0.058,0.091l0.059,0.091l0.06,0.091l0.061,0.089l0.062,0.089l0.064,0.088l0.064,0.087l0.065,0.086l0.067,0.085l0.067,0.085l0.068,0.084l0.07,0.083l0.07,0.082l0.071,0.082l0.073,0.08l0.073,0.079l0.074,0.079l0.075,0.078l0.076,0.077l0.077,0.076l0.078,0.075l0.079,0.074l0.079,0.073l0.08,0.073l0.082,0.071l0.082,0.07l0.083,0.07l0.084,0.068l0.085,0.067l0.085,0.067l0.086,0.065l0.087,0.064l0.088,0.064l0.089,0.062l0.089,0.061l0.091,0.06l0.091,0.059l0.091,0.058l0.093,0.057l0.093,0.056l0.094,0.055l0.094,0.053l0.095,0.053l0.096,0.051l0.097,0.05l0.097,0.05l0.098,0.047l0.099,0.047l0.099,0.046l0.1,0.044l0.1,0.044l0.101,0.042l0.102,0.04l0.103,0.04l0.102,0.038l0.104,0.038l0.104,0.036l0.105,0.034l0.105,0.034l0.106,0.032l0.106,0.031l0.107,0.029l0.107,0.029l0.108,0.027l0.109,0.026l0.109,0.024l0.109,0.023l0.11,0.022l0.11,0.02l0.111,0.019l0.112,0.018l0.112,0.017l0.112,0.015l0.113,0.013l0.113,0.012l0.114,0.011l0.114,0.01l0.115,0.008l0.115,0.006l0.116,0.005l0.116,0.004l0.116,0.002l0.123,0.001l5.988,0l0.123,-0.001l0.116,-0.002l0.116,-0.004l0.116,-0.005l0.115,-0.006l0.115,-0.008l0.114,-0.01l0.114,-0.011l0.113,-0.012l0.113,-0.013l0.112,-0.015l0.112,-0.017l0.112,-0.018l0.111,-0.019l0.11,-0.02l0.11,-0.022l0.109,-0.023l0.109,-0.024l0.109,-0.026l0.108,-0.027l0.107,-0.029l0.107,-0.029l0.106,-0.031l0.106,-0.032l0.105,-0.034l0.105,-0.034l0.104,-0.036l0.104,-0.038l0.102,-0.038l0.103,-0.04l0.102,-0.04l0.101,-0.042l0.1,-0.044l0.1,-0.044l0.099,-0.046l0.099,-0.047l0.098,-0.047l0.097,-0.05l0.097,-0.05l0.096,-0.051l0.095,-0.053l0.094,-0.053l0.094,-0.055l0.093,-0.056l0.093,-0.057l0.091,-0.058l0.091,-0.059l0.091,-0.06l0.089,-0.061l0.089,-0.062l0.088,-0.064l0.087,-0.064l0.086,-0.065l0.085,-0.067l0.085,-0.067l0.084,-0.068l0.083,-0.07l0.082,-0.07l0.081,-0.071l0.081,-0.073l0.079,-0.073l0.079,-0.074l0.078,-0.075l0.077,-0.076l0.076,-0.077l0.075,-0.078l0.074,-0.079l0.073,-0.079l0.073,-0.08l0.071,-0.082l0.07,-0.082l0.07,-0.083l0.068,-0.084l0.067,-0.085l0.067,-0.085l0.065,-0.086l0.064,-0.087l0.064,-0.088l0.062,-0.089l0.061,-0.089l0.06,-0.091l0.059,-0.091l0.058,-0.091l0.057,-0.093l0.056,-0.093l0.055,-0.094l0.053,-0.094l0.053,-0.095l0.051,-0.096l0.051,-0.097l0.049,-0.097l0.047,-0.098l0.047,-0.099l0.046,-0.099l0.044,-0.1l0.044,-0.1l0.042,-0.102l0.04,-0.101l0.04,-0.103l0.038,-0.103l0.038,-0.103l0.036,-0.104l0.034,-0.105l0.034,-0.105l0.032,-0.106l0.031,-0.106l0.029,-0.107l0.029,-0.107l0.027,-0.108l0.026,-0.109l0.024,-0.109l0.023,-0.109l0.022,-0.11l0.02,-0.111l0.019,-0.11l0.018,-0.112l0.017,-0.112l0.015,-0.112l0.013,-0.113l0.012,-0.113l0.011,-0.114l0.01,-0.114l0.008,-0.115l0.006,-0.115l0.005,-0.116l0.004,-0.116l0.002,-0.116l0.001,-0.123l0,-0.988l-0.001,-0.162l-0.003,-0.155l-0.005,-0.154l-0.007,-0.154l-0.008,-0.154l-0.011,-0.152l-0.013,-0.153l-0.014,-0.151l-0.016,-0.152l-0.019,-0.15l-0.02,-0.15l-0.021,-0.149l-0.024,-0.149l-0.026,-0.148l-0.027,-0.147l-0.029,-0.147l-0.031,-0.146l-0.032,-0.145l-0.035,-0.145l-0.036,-0.144l-0.038,-0.143l-0.039,-0.142l-0.041,-0.142l-0.043,-0.141l-0.045,-0.141l-0.046,-0.139l-0.048,-0.139l-0.05,-0.138l-0.051,-0.137l-0.053,-0.137l-0.054,-0.135l-0.056,-0.135l-0.058,-0.134l-0.059,-0.134l-0.061,-0.132l-0.062,-0.131l-0.064,-0.131l-0.066,-0.13l-0.067,-0.129l-0.068,-0.127l-0.07,-0.128l-0.072,-0.126l-0.073,-0.125l-0.074,-0.124l-0.076,-0.123l-0.077,-0.122l-0.079,-0.122l-0.08,-0.12l-0.082,-0.119l-0.083,-0.118l-0.084,-0.117l-0.086,-0.117l-0.087,-0.115l-0.089,-0.114l-0.089,-0.113l-0.091,-0.111l-0.093,-0.111l-0.094,-0.109l-0.095,-0.109l-0.096,-0.107l-0.098,-0.106l-0.098,-0.105l-0.101,-0.104l-0.101,-0.102l-0.102,-0.102l-0.104,-0.1l-0.105,-0.098l-0.106,-0.098l-0.107,-0.096l-0.109,-0.095l-0.109,-0.094l-0.111,-0.093l-0.111,-0.091l-0.113,-0.089l-0.114,-0.089l-0.115,-0.087l-0.116,-0.086l-0.118,-0.084l-0.118,-0.083l-0.119,-0.082l-0.12,-0.08l-0.122,-0.079l-0.122,-0.077l-0.123,-0.076l-0.124,-0.074l-0.125,-0.073l-0.126,-0.072l-0.127,-0.07l-0.128,-0.068l-0.129,-0.067l-0.13,-0.066l-0.131,-0.064l-0.131,-0.062l-0.132,-0.061l-0.134,-0.059l-0.134,-0.058l-0.135,-0.056l-0.135,-0.054l-0.137,-0.053l-0.137,-0.051l-0.138,-0.05l-0.139,-0.048l-0.139,-0.046l-0.141,-0.045l-0.141,-0.043l-0.142,-0.041l-0.142,-0.039l-0.144,-0.038l-0.143,-0.036l-0.145,-0.035l-0.145,-0.032l-0.146,-0.031l-0.147,-0.029l-0.147,-0.027l-0.148,-0.026l-0.149,-0.024l-0.149,-0.021l-0.15,-0.02l-0.151,-0.019l-0.151,-0.016l-0.151,-0.014l-0.153,-0.013l-0.152,-0.011l-0.154,-0.008l-0.154,-0.007l-0.154,-0.005l-0.155,-0.003l-0.156,-0.001l-0.156,0.001Z"/><g><path d="M17.084,2.001l0.084,0.004l0.084,0.006l0.084,0.008l0.083,0.01l0.084,0.013l0.082,0.016l0.083,0.017l0.081,0.02l0.081,0.022l0.081,0.025l0.08,0.026l0.079,0.029l0.078,0.031l0.077,0.034l0.077,0.035l0.075,0.038l0.074,0.039l0.073,0.042l0.072,0.044l0.071,0.046l0.069,0.047l0.068,0.05l0.066,0.051l0.066,0.054l0.063,0.055l0.062,0.057l0.06,0.059l1.6,1.599l0.075,0.078l0.087,0.093l0.084,0.095l0.081,0.097l0.079,0.099l0.075,0.101l0.073,0.102l0.071,0.103l0.067,0.105l0.065,0.107l0.062,0.108l0.059,0.108l0.056,0.11l0.053,0.111l0.05,0.112l0.047,0.113l0.045,0.114l0.042,0.114l0.038,0.115l0.036,0.116l0.033,0.117l0.03,0.117l0.027,0.116l0.025,0.119l0.021,0.118l0.018,0.119l0.016,0.118l0.013,0.119l0.01,0.12l0.007,0.119l0.004,0.119l0.002,0.12l-0.002,0.119l-0.004,0.12l-0.007,0.119l-0.01,0.12l-0.013,0.119l-0.016,0.118l-0.018,0.119l-0.021,0.118l-0.025,0.119l-0.027,0.116l-0.03,0.117l-0.033,0.117l-0.036,0.116l-0.038,0.115l-0.042,0.114l-0.045,0.114l-0.047,0.113l-0.05,0.112l-0.053,0.111l-0.056,0.109l-0.059,0.109l-0.062,0.108l-0.065,0.107l-0.067,0.105l-0.071,0.103l-0.073,0.102l-0.075,0.101l-0.079,0.099l-0.081,0.097l-0.084,0.095l-0.087,0.093l-0.076,0.078l-1.599,1.599l-0.06,0.059l-0.062,0.057l-0.063,0.055l-0.066,0.053l-0.066,0.052l-0.068,0.05l-0.069,0.047l-0.071,0.046l-0.072,0.044l-0.073,0.042l-0.074,0.039l-0.075,0.038l-0.077,0.035l-0.077,0.034l-0.078,0.031l-0.079,0.029l-0.08,0.026l-0.081,0.025l-0.081,0.022l-0.081,0.02l-0.083,0.017l-0.082,0.016l-0.084,0.013l-0.083,0.01l-0.084,0.008l-0.084,0.006l-0.084,0.004l-0.084,0.001l-0.084,-0.001l-0.084,-0.004l-0.084,-0.006l-0.084,-0.008l-0.083,-0.01l-0.084,-0.013l-0.082,-0.016l-0.083,-0.017l-0.081,-0.02l-0.082,-0.022l-0.08,-0.025l-0.08,-0.026l-0.079,-0.029l-0.078,-0.031l-0.077,-0.034l-0.077,-0.035l-0.075,-0.038l-0.074,-0.039l-0.073,-0.042l-0.072,-0.044l-0.071,-0.046l-0.069,-0.047l-0.068,-0.05l-0.066,-0.052l-0.066,-0.053l-0.063,-0.055l-0.062,-0.057l-0.06,-0.059l-0.059,-0.06l-0.057,-0.062l-0.055,-0.063l-0.053,-0.066l-0.052,-0.066l-0.05,-0.068l-0.047,-0.069l-0.046,-0.071l-0.044,-0.072l-0.042,-0.073l-0.039,-0.074l-0.038,-0.075l-0.035,-0.077l-0.034,-0.077l-0.031,-0.078l-0.029,-0.079l-0.026,-0.08l-0.025,-0.081l-0.022,-0.081l-0.02,-0.081l-0.017,-0.083l-0.016,-0.082l-0.013,-0.084l-0.01,-0.083l-0.008,-0.084l-0.006,-0.084l-0.004,-0.084l-0.001,-0.084l0.001,-0.084l0.004,-0.084l0.006,-0.084l0.008,-0.084l0.01,-0.083l0.013,-0.084l0.016,-0.082l0.017,-0.083l0.02,-0.081l0.022,-0.082l0.025,-0.08l0.026,-0.08l0.029,-0.079l0.031,-0.078l0.034,-0.077l0.035,-0.077l0.038,-0.075l0.039,-0.074l0.042,-0.073l0.044,-0.072l0.046,-0.071l0.047,-0.069l0.05,-0.068l0.052,-0.066l0.053,-0.066l0.055,-0.063l0.057,-0.062l0.059,-0.06l0.878,-0.879l-0.878,-0.879l-0.059,-0.06l-0.057,-0.062l-0.055,-0.063l-0.053,-0.066l-0.052,-0.066l-0.05,-0.068l-0.047,-0.069l-0.046,-0.071l-0.044,-0.072l-0.042,-0.073l-0.039,-0.074l-0.038,-0.075l-0.035,-0.077l-0.034,-0.077l-0.031,-0.078l-0.029,-0.079l-0.026,-0.08l-0.025,-0.08l-0.022,-0.082l-0.02,-0.081l-0.017,-0.083l-0.016,-0.082l-0.013,-0.084l-0.01,-0.083l-0.008,-0.084l-0.006,-0.084l-0.004,-0.084l-0.001,-0.084l0.001,-0.084l0.004,-0.084l0.006,-0.084l0.008,-0.084l0.01,-0.083l0.013,-0.084l0.016,-0.082l0.017,-0.083l0.02,-0.081l0.022,-0.082l0.025,-0.08l0.026,-0.08l0.029,-0.079l0.031,-0.078l0.034,-0.077l0.035,-0.077l0.038,-0.075l0.039,-0.074l0.042,-0.073l0.044,-0.072l0.046,-0.071l0.047,-0.069l0.05,-0.068l0.052,-0.066l0.053,-0.066l0.055,-0.063l0.057,-0.062l0.059,-0.06l0.06,-0.059l0.062,-0.057l0.063,-0.055l0.066,-0.053l0.066,-0.052l0.068,-0.05l0.069,-0.047l0.071,-0.046l0.072,-0.044l0.073,-0.042l0.074,-0.039l0.075,-0.038l0.077,-0.035l0.077,-0.034l0.078,-0.031l0.079,-0.029l0.08,-0.026l0.08,-0.025l0.082,-0.022l0.081,-0.02l0.083,-0.017l0.082,-0.016l0.084,-0.013l0.083,-0.01l0.084,-0.008l0.084,-0.006l0.084,-0.004l0.084,-0.001l0.084,0.001Z"/><path d="M29.084,2.001l0.084,0.004l0.084,0.006l0.084,0.008l0.083,0.01l0.084,0.013l0.082,0.016l0.083,0.017l0.081,0.02l0.082,0.022l0.08,0.025l0.08,0.026l0.079,0.029l0.078,0.031l0.077,0.034l0.077,0.035l0.075,0.038l0.074,0.039l0.073,0.042l0.072,0.044l0.071,0.046l0.069,0.047l0.068,0.05l0.066,0.052l0.066,0.053l0.063,0.055l0.062,0.057l0.06,0.059l0.059,0.06l0.057,0.062l0.055,0.063l0.053,0.066l0.052,0.066l0.05,0.068l0.047,0.069l0.046,0.071l0.044,0.072l0.042,0.073l0.039,0.074l0.038,0.075l0.035,0.077l0.034,0.077l0.031,0.078l0.029,0.079l0.026,0.08l0.025,0.08l0.022,0.082l0.02,0.081l0.017,0.083l0.016,0.082l0.013,0.084l0.01,0.083l0.008,0.084l0.006,0.084l0.004,0.084l0.001,0.084l-0.001,0.084l-0.004,0.084l-0.006,0.084l-0.008,0.084l-0.01,0.083l-0.013,0.084l-0.016,0.082l-0.017,0.083l-0.02,0.081l-0.022,0.082l-0.025,0.08l-0.026,0.08l-0.029,0.079l-0.031,0.078l-0.034,0.077l-0.035,0.077l-0.038,0.075l-0.039,0.074l-0.042,0.073l-0.044,0.072l-0.046,0.071l-0.047,0.069l-0.05,0.068l-0.052,0.066l-0.053,0.066l-0.055,0.063l-0.057,0.062l-0.059,0.06l-0.878,0.879l0.878,0.879l0.059,0.06l0.057,0.062l0.055,0.063l0.053,0.066l0.052,0.066l0.05,0.068l0.047,0.069l0.046,0.071l0.044,0.072l0.042,0.073l0.039,0.074l0.038,0.075l0.035,0.077l0.034,0.077l0.031,0.078l0.029,0.079l0.026,0.08l0.025,0.08l0.022,0.082l0.02,0.081l0.017,0.083l0.016,0.082l0.013,0.084l0.01,0.083l0.008,0.084l0.006,0.084l0.004,0.084l0.001,0.084l-0.001,0.084l-0.004,0.084l-0.006,0.084l-0.008,0.084l-0.01,0.083l-0.013,0.084l-0.016,0.082l-0.017,0.083l-0.02,0.081l-0.022,0.081l-0.025,0.081l-0.026,0.08l-0.029,0.079l-0.031,0.078l-0.034,0.077l-0.035,0.077l-0.038,0.075l-0.039,0.074l-0.042,0.073l-0.044,0.072l-0.046,0.071l-0.047,0.069l-0.05,0.068l-0.052,0.066l-0.053,0.066l-0.055,0.063l-0.057,0.062l-0.059,0.06l-0.06,0.059l-0.062,0.057l-0.063,0.055l-0.066,0.053l-0.066,0.052l-0.068,0.05l-0.069,0.047l-0.071,0.046l-0.072,0.044l-0.073,0.042l-0.074,0.039l-0.075,0.038l-0.077,0.035l-0.077,0.034l-0.078,0.031l-0.079,0.029l-0.08,0.026l-0.08,0.025l-0.082,0.022l-0.081,0.02l-0.083,0.017l-0.082,0.016l-0.084,0.013l-0.083,0.01l-0.084,0.008l-0.084,0.006l-0.084,0.004l-0.084,0.001l-0.084,-0.001l-0.084,-0.004l-0.084,-0.006l-0.084,-0.008l-0.083,-0.01l-0.084,-0.013l-0.082,-0.016l-0.083,-0.017l-0.081,-0.02l-0.081,-0.022l-0.081,-0.025l-0.08,-0.026l-0.079,-0.029l-0.078,-0.031l-0.077,-0.034l-0.077,-0.035l-0.075,-0.038l-0.074,-0.039l-0.073,-0.042l-0.072,-0.044l-0.071,-0.046l-0.069,-0.047l-0.068,-0.05l-0.066,-0.052l-0.066,-0.053l-0.063,-0.055l-0.062,-0.057l-0.06,-0.059l-1.599,-1.599l-0.076,-0.078l-0.087,-0.093l-0.084,-0.095l-0.081,-0.097l-0.079,-0.099l-0.075,-0.101l-0.073,-0.102l-0.071,-0.103l-0.067,-0.105l-0.065,-0.107l-0.062,-0.108l-0.059,-0.109l-0.056,-0.109l-0.053,-0.111l-0.05,-0.112l-0.047,-0.113l-0.045,-0.114l-0.042,-0.114l-0.038,-0.115l-0.036,-0.116l-0.033,-0.117l-0.03,-0.117l-0.027,-0.116l-0.025,-0.119l-0.021,-0.118l-0.018,-0.119l-0.016,-0.118l-0.013,-0.119l-0.01,-0.12l-0.007,-0.119l-0.004,-0.12l-0.002,-0.119l0.002,-0.12l0.004,-0.119l0.007,-0.119l0.01,-0.12l0.013,-0.119l0.016,-0.118l0.018,-0.119l0.021,-0.118l0.025,-0.119l0.027,-0.116l0.03,-0.117l0.033,-0.117l0.036,-0.116l0.038,-0.115l0.042,-0.114l0.045,-0.114l0.047,-0.113l0.05,-0.112l0.053,-0.111l0.056,-0.11l0.059,-0.108l0.062,-0.108l0.065,-0.107l0.067,-0.105l0.071,-0.103l0.073,-0.102l0.075,-0.101l0.079,-0.099l0.081,-0.097l0.084,-0.095l0.087,-0.093l0.075,-0.078l1.6,-1.599l0.06,-0.059l0.062,-0.057l0.063,-0.055l0.066,-0.054l0.066,-0.051l0.068,-0.05l0.069,-0.047l0.071,-0.046l0.072,-0.044l0.073,-0.042l0.074,-0.039l0.075,-0.038l0.077,-0.035l0.077,-0.034l0.078,-0.031l0.079,-0.029l0.08,-0.026l0.081,-0.025l0.081,-0.022l0.081,-0.02l0.083,-0.017l0.082,-0.016l0.084,-0.013l0.083,-0.01l0.084,-0.008l0.084,-0.006l0.084,-0.004l0.084,-0.001l0.084,0.001Z"/><path d="M23.119,7.83l0.12,0.004l0.12,0.007l0.119,0.01l0.119,0.013l0.118,0.016l0.119,0.018l0.118,0.022l0.118,0.024l0.118,0.027l0.117,0.03l0.116,0.033l0.116,0.036l0.115,0.038l0.114,0.042l0.114,0.045l0.113,0.047l0.112,0.05l0.111,0.053l0.11,0.057l0.109,0.058l0.107,0.062l0.107,0.065l0.105,0.067l0.103,0.07l0.102,0.074l0.101,0.075l0.099,0.079l0.097,0.081l0.095,0.084l0.094,0.087l0.077,0.076l1.599,1.599l0.059,0.06l0.057,0.062l0.055,0.063l0.053,0.066l0.052,0.066l0.05,0.068l0.047,0.069l0.046,0.071l0.044,0.072l0.042,0.073l0.039,0.074l0.038,0.075l0.035,0.077l0.034,0.077l0.031,0.078l0.029,0.079l0.026,0.08l0.025,0.08l0.022,0.082l0.02,0.081l0.017,0.083l0.016,0.082l0.013,0.084l0.01,0.083l0.008,0.084l0.006,0.084l0.004,0.084l0.001,0.084l-0.001,0.084l-0.004,0.084l-0.006,0.084l-0.008,0.084l-0.01,0.083l-0.013,0.084l-0.016,0.082l-0.017,0.083l-0.02,0.081l-0.022,0.082l-0.025,0.08l-0.026,0.08l-0.029,0.079l-0.031,0.078l-0.034,0.077l-0.035,0.077l-0.038,0.075l-0.039,0.074l-0.042,0.073l-0.044,0.072l-0.046,0.071l-0.047,0.069l-0.05,0.068l-0.052,0.066l-0.053,0.066l-0.055,0.063l-0.057,0.062l-0.059,0.06l-0.06,0.059l-0.062,0.057l-0.063,0.055l-0.066,0.053l-0.066,0.052l-0.068,0.05l-0.069,0.047l-0.071,0.046l-0.072,0.044l-0.073,0.042l-0.074,0.039l-0.075,0.038l-0.077,0.035l-0.077,0.034l-0.078,0.031l-0.079,0.029l-0.08,0.026l-0.08,0.025l-0.082,0.022l-0.081,0.02l-0.083,0.017l-0.082,0.016l-0.084,0.013l-0.083,0.01l-0.084,0.008l-0.084,0.006l-0.084,0.004l-0.084,0.001l-0.084,-0.001l-0.084,-0.004l-0.084,-0.006l-0.084,-0.008l-0.083,-0.01l-0.084,-0.013l-0.082,-0.016l-0.083,-0.017l-0.081,-0.02l-0.081,-0.022l-0.081,-0.025l-0.08,-0.026l-0.079,-0.029l-0.078,-0.031l-0.077,-0.034l-0.077,-0.035l-0.075,-0.038l-0.074,-0.039l-0.073,-0.042l-0.072,-0.044l-0.071,-0.046l-0.069,-0.047l-0.068,-0.05l-0.066,-0.051l-0.066,-0.054l-0.063,-0.055l-0.062,-0.057l-0.06,-0.059l-0.879,-0.878l-0.879,0.878l-0.06,0.059l-0.062,0.057l-0.063,0.055l-0.066,0.054l-0.066,0.051l-0.068,0.05l-0.069,0.047l-0.071,0.046l-0.072,0.044l-0.073,0.042l-0.074,0.039l-0.075,0.038l-0.077,0.035l-0.077,0.034l-0.078,0.031l-0.079,0.029l-0.08,0.026l-0.081,0.025l-0.081,0.022l-0.081,0.02l-0.083,0.017l-0.082,0.016l-0.084,0.013l-0.083,0.01l-0.084,0.008l-0.084,0.006l-0.084,0.004l-0.084,0.001l-0.084,-0.001l-0.084,-0.004l-0.084,-0.006l-0.084,-0.008l-0.083,-0.01l-0.084,-0.013l-0.082,-0.016l-0.083,-0.017l-0.081,-0.02l-0.082,-0.022l-0.08,-0.025l-0.08,-0.026l-0.079,-0.029l-0.078,-0.031l-0.077,-0.034l-0.077,-0.035l-0.075,-0.038l-0.074,-0.039l-0.073,-0.042l-0.072,-0.044l-0.071,-0.046l-0.069,-0.047l-0.068,-0.05l-0.066,-0.052l-0.066,-0.053l-0.063,-0.055l-0.062,-0.057l-0.06,-0.059l-0.059,-0.06l-0.057,-0.062l-0.055,-0.063l-0.053,-0.066l-0.052,-0.066l-0.05,-0.068l-0.047,-0.069l-0.046,-0.071l-0.044,-0.072l-0.042,-0.073l-0.039,-0.074l-0.038,-0.075l-0.035,-0.077l-0.034,-0.077l-0.031,-0.078l-0.029,-0.079l-0.026,-0.08l-0.025,-0.08l-0.022,-0.082l-0.02,-0.081l-0.017,-0.083l-0.016,-0.082l-0.013,-0.084l-0.01,-0.083l-0.008,-0.084l-0.006,-0.084l-0.004,-0.084l-0.001,-0.084l0.001,-0.084l0.004,-0.084l0.006,-0.084l0.008,-0.084l0.01,-0.083l0.013,-0.084l0.016,-0.082l0.017,-0.083l0.02,-0.081l0.022,-0.082l0.025,-0.08l0.026,-0.08l0.029,-0.079l0.031,-0.078l0.034,-0.077l0.035,-0.077l0.038,-0.075l0.039,-0.074l0.042,-0.073l0.044,-0.072l0.046,-0.071l0.047,-0.069l0.05,-0.068l0.052,-0.066l0.053,-0.066l0.055,-0.063l0.057,-0.062l0.059,-0.06l1.599,-1.599l0.077,-0.076l0.094,-0.087l0.095,-0.084l0.097,-0.081l0.099,-0.079l0.101,-0.075l0.102,-0.074l0.103,-0.07l0.105,-0.067l0.107,-0.065l0.107,-0.062l0.109,-0.058l0.11,-0.057l0.111,-0.053l0.112,-0.05l0.113,-0.047l0.114,-0.045l0.114,-0.042l0.115,-0.038l0.116,-0.036l0.116,-0.033l0.117,-0.03l0.118,-0.027l0.118,-0.024l0.118,-0.022l0.119,-0.018l0.118,-0.016l0.119,-0.013l0.119,-0.01l0.12,-0.007l0.12,-0.004l0.119,-0.002l0.119,0.002Z"/><path d="M26.084,0.001l0.084,0.004l0.084,0.006l0.084,0.008l0.083,0.01l0.084,0.013l0.082,0.016l0.083,0.017l0.081,0.02l0.082,0.022l0.08,0.025l0.08,0.026l0.079,0.029l0.078,0.031l0.077,0.034l0.077,0.035l0.075,0.038l0.074,0.039l0.073,0.042l0.072,0.044l0.071,0.046l0.069,0.047l0.068,0.05l0.066,0.052l0.066,0.053l0.063,0.055l0.062,0.057l0.06,0.059l0.059,0.06l0.057,0.062l0.055,0.063l0.053,0.066l0.052,0.066l0.05,0.068l0.047,0.069l0.046,0.071l0.044,0.072l0.042,0.073l0.039,0.074l0.038,0.075l0.035,0.077l0.034,0.077l0.031,0.078l0.029,0.079l0.026,0.08l0.025,0.081l0.022,0.081l0.02,0.081l0.017,0.083l0.016,0.082l0.013,0.084l0.01,0.083l0.008,0.084l0.006,0.084l0.004,0.084l0.001,0.084l-0.001,0.084l-0.004,0.084l-0.006,0.084l-0.008,0.084l-0.01,0.083l-0.013,0.084l-0.016,0.082l-0.017,0.083l-0.02,0.081l-0.022,0.082l-0.025,0.08l-0.026,0.08l-0.029,0.079l-0.031,0.078l-0.034,0.077l-0.035,0.077l-0.038,0.075l-0.039,0.074l-0.042,0.073l-0.044,0.072l-0.046,0.071l-0.047,0.069l-0.05,0.068l-0.052,0.066l-0.053,0.066l-0.055,0.063l-0.057,0.062l-0.059,0.06l-1.599,1.599l-0.078,0.076l-0.093,0.087l-0.095,0.084l-0.097,0.081l-0.099,0.079l-0.101,0.075l-0.102,0.074l-0.104,0.07l-0.104,0.067l-0.107,0.065l-0.107,0.062l-0.109,0.058l-0.11,0.057l-0.111,0.053l-0.112,0.05l-0.113,0.047l-0.114,0.045l-0.114,0.042l-0.115,0.038l-0.116,0.036l-0.116,0.033l-0.117,0.03l-0.118,0.027l-0.118,0.024l-0.118,0.022l-0.119,0.018l-0.118,0.016l-0.119,0.013l-0.12,0.01l-0.119,0.007l-0.12,0.004l-0.119,0.002l-0.119,-0.002l-0.12,-0.004l-0.119,-0.007l-0.12,-0.01l-0.119,-0.013l-0.118,-0.016l-0.119,-0.018l-0.118,-0.022l-0.118,-0.024l-0.118,-0.027l-0.117,-0.03l-0.116,-0.033l-0.116,-0.036l-0.115,-0.038l-0.114,-0.042l-0.114,-0.045l-0.113,-0.047l-0.112,-0.05l-0.111,-0.053l-0.11,-0.057l-0.109,-0.058l-0.107,-0.062l-0.107,-0.065l-0.104,-0.067l-0.104,-0.07l-0.102,-0.074l-0.101,-0.075l-0.099,-0.079l-0.097,-0.081l-0.095,-0.084l-0.093,-0.087l-0.078,-0.076l-1.599,-1.599l-0.059,-0.06l-0.057,-0.062l-0.055,-0.063l-0.053,-0.066l-0.052,-0.066l-0.05,-0.068l-0.047,-0.069l-0.046,-0.071l-0.044,-0.072l-0.042,-0.073l-0.039,-0.074l-0.038,-0.075l-0.035,-0.077l-0.034,-0.077l-0.031,-0.078l-0.029,-0.079l-0.026,-0.08l-0.025,-0.08l-0.022,-0.082l-0.02,-0.081l-0.017,-0.083l-0.016,-0.082l-0.013,-0.084l-0.01,-0.083l-0.008,-0.084l-0.006,-0.084l-0.004,-0.084l-0.001,-0.084l0.001,-0.084l0.004,-0.084l0.006,-0.084l0.008,-0.084l0.01,-0.083l0.013,-0.084l0.016,-0.082l0.017,-0.083l0.02,-0.081l0.022,-0.081l0.025,-0.081l0.026,-0.08l0.029,-0.079l0.031,-0.078l0.034,-0.077l0.035,-0.077l0.038,-0.075l0.039,-0.074l0.042,-0.073l0.044,-0.072l0.046,-0.071l0.047,-0.069l0.05,-0.068l0.052,-0.066l0.053,-0.066l0.055,-0.063l0.057,-0.062l0.059,-0.06l0.06,-0.059l0.062,-0.057l0.063,-0.055l0.066,-0.053l0.066,-0.052l0.068,-0.05l0.069,-0.047l0.071,-0.046l0.072,-0.044l0.073,-0.042l0.074,-0.039l0.075,-0.038l0.077,-0.035l0.077,-0.034l0.078,-0.031l0.079,-0.029l0.08,-0.026l0.08,-0.025l0.082,-0.022l0.081,-0.02l0.083,-0.017l0.082,-0.016l0.084,-0.013l0.083,-0.01l0.084,-0.008l0.084,-0.006l0.084,-0.004l0.084,-0.001l0.084,0.001l0.084,0.004l0.084,0.006l0.084,0.008l0.083,0.01l0.084,0.013l0.082,0.016l0.083,0.017l0.081,0.02l0.081,0.022l0.081,0.025l0.08,0.026l0.079,0.029l0.078,0.031l0.077,0.034l0.077,0.035l0.075,0.038l0.074,0.039l0.073,0.042l0.072,0.044l0.071,0.046l0.069,0.047l0.068,0.05l0.066,0.052l0.066,0.053l0.063,0.055l0.062,0.057l0.06,0.059l0.879,0.878l0.879,-0.878l0.06,-0.059l0.062,-0.057l0.063,-0.055l0.066,-0.053l0.066,-0.052l0.068,-0.05l0.069,-0.047l0.071,-0.046l0.072,-0.044l0.073,-0.042l0.074,-0.039l0.075,-0.038l0.077,-0.035l0.077,-0.034l0.078,-0.031l0.079,-0.029l0.08,-0.026l0.081,-0.025l0.081,-0.022l0.081,-0.02l0.083,-0.017l0.082,-0.016l0.084,-0.013l0.083,-0.01l0.084,-0.008l0.084,-0.006l0.084,-0.004l0.084,-0.001l0.084,0.001Z"/></g></g><g id="emoji"><path d="M30,18c0,-7.732 -6.268,-14 -14,-14c0,0 0,0 0,0c-7.732,0 -14,6.268 -14,14c0,0.335 0,0.668 0,1c0,6.075 4.925,11 11,11c1.972,0 4.028,0 6,0c6.075,0 11,-4.925 11,-11c0,-0.332 0,-0.665 0,-1Z" style="fill:#fbc546;"/><path d="M16.132,20.501l0.131,0.005l0.13,0.006l0.129,0.01l0.129,0.012l0.129,0.015l0.127,0.018l0.127,0.02l0.126,0.023l0.126,0.026l0.124,0.028l0.124,0.03l0.122,0.033l0.122,0.036l0.121,0.038l0.119,0.04l0.119,0.043l0.118,0.045l0.116,0.048l0.115,0.05l0.114,0.052l0.113,0.054l0.112,0.057l0.11,0.059l0.109,0.061l0.108,0.063l0.106,0.065l0.105,0.068l0.104,0.07l0.102,0.071l0.1,0.074l0.099,0.076l0.098,0.077l0.096,0.08l0.094,0.082l0.093,0.083l0.091,0.086l0.089,0.087l0.087,0.089l0.086,0.091l0.084,0.093l0.082,0.094l0.08,0.097l0.078,0.098l0.077,0.1l0.074,0.101l0.072,0.103l0.071,0.105l0.068,0.106l0.066,0.108l0.064,0.109l0.062,0.111l0.059,0.113l0.058,0.114l0.055,0.115l0.053,0.117l0.05,0.118l0.048,0.12l0.046,0.12l0.043,0.122l0.041,0.124l0.038,0.125l0.036,0.125l0.032,0.122l0.031,0.125l0.013,0.062l0.01,0.062l0.005,0.063l0.002,0.062l-0.002,0.063l-0.007,0.063l-0.01,0.062l-0.014,0.061l-0.018,0.06l-0.022,0.059l-0.025,0.058l-0.029,0.055l-0.032,0.054l-0.036,0.052l-0.039,0.049l-0.041,0.047l-0.045,0.044l-0.047,0.042l-0.05,0.038l-0.053,0.035l-0.054,0.031l-0.056,0.029l-0.058,0.024l-0.059,0.021l-0.06,0.017l-0.062,0.013l-0.062,0.01l-0.063,0.005l-0.062,0.002l-0.063,-0.002l-0.063,-0.007l-0.062,-0.01l-0.061,-0.014l-0.06,-0.018l-0.059,-0.022l-0.058,-0.025l-0.055,-0.029l-0.054,-0.032l-0.052,-0.036l-0.049,-0.039l-0.047,-0.041l-0.044,-0.045l-0.042,-0.047l-0.038,-0.05l-0.035,-0.053l-0.031,-0.054l-0.029,-0.056l-0.024,-0.058l-0.021,-0.059l-0.017,-0.06l-0.029,-0.116l-0.024,-0.09l-0.024,-0.086l-0.026,-0.084l-0.027,-0.083l-0.029,-0.082l-0.031,-0.081l-0.032,-0.081l-0.034,-0.079l-0.036,-0.079l-0.037,-0.077l-0.038,-0.077l-0.041,-0.075l-0.041,-0.075l-0.043,-0.074l-0.045,-0.072l-0.045,-0.072l-0.048,-0.07l-0.048,-0.069l-0.05,-0.069l-0.052,-0.067l-0.052,-0.066l-0.054,-0.065l-0.056,-0.063l-0.056,-0.063l-0.058,-0.061l-0.059,-0.06l-0.06,-0.059l-0.061,-0.058l-0.063,-0.056l-0.063,-0.055l-0.065,-0.054l-0.065,-0.052l-0.067,-0.051l-0.068,-0.05l-0.069,-0.048l-0.07,-0.047l-0.07,-0.045l-0.072,-0.044l-0.072,-0.043l-0.074,-0.041l-0.074,-0.04l-0.075,-0.038l-0.076,-0.036l-0.077,-0.036l-0.078,-0.033l-0.078,-0.032l-0.079,-0.031l-0.08,-0.028l-0.081,-0.027l-0.081,-0.026l-0.081,-0.024l-0.083,-0.022l-0.083,-0.021l-0.084,-0.018l-0.084,-0.018l-0.085,-0.015l-0.085,-0.014l-0.086,-0.012l-0.086,-0.01l-0.087,-0.008l-0.087,-0.007l-0.088,-0.004l-0.088,-0.003l-0.09,-0.001l-0.09,0.001l-0.088,0.003l-0.088,0.004l-0.087,0.007l-0.087,0.008l-0.086,0.01l-0.086,0.012l-0.085,0.014l-0.085,0.015l-0.084,0.018l-0.084,0.018l-0.083,0.021l-0.083,0.022l-0.081,0.024l-0.081,0.026l-0.081,0.027l-0.08,0.028l-0.079,0.031l-0.078,0.032l-0.078,0.033l-0.077,0.036l-0.076,0.036l-0.075,0.038l-0.074,0.04l-0.074,0.041l-0.072,0.043l-0.072,0.044l-0.07,0.045l-0.07,0.047l-0.069,0.048l-0.068,0.05l-0.067,0.051l-0.065,0.052l-0.065,0.054l-0.063,0.055l-0.063,0.056l-0.061,0.058l-0.06,0.059l-0.059,0.06l-0.058,0.061l-0.056,0.063l-0.056,0.063l-0.054,0.065l-0.052,0.066l-0.052,0.067l-0.05,0.069l-0.048,0.069l-0.048,0.07l-0.045,0.072l-0.045,0.072l-0.043,0.074l-0.041,0.075l-0.041,0.075l-0.038,0.077l-0.037,0.077l-0.036,0.079l-0.034,0.079l-0.032,0.081l-0.031,0.081l-0.029,0.082l-0.027,0.083l-0.026,0.084l-0.024,0.086l-0.024,0.09l-0.029,0.116l-0.017,0.06l-0.021,0.059l-0.024,0.058l-0.029,0.056l-0.031,0.054l-0.035,0.053l-0.038,0.05l-0.042,0.047l-0.044,0.045l-0.047,0.041l-0.049,0.039l-0.052,0.036l-0.054,0.032l-0.055,0.029l-0.058,0.025l-0.059,0.022l-0.06,0.018l-0.061,0.014l-0.062,0.01l-0.063,0.007l-0.063,0.002l-0.062,-0.002l-0.063,-0.005l-0.062,-0.01l-0.062,-0.013l-0.06,-0.017l-0.059,-0.021l-0.058,-0.024l-0.056,-0.029l-0.054,-0.031l-0.053,-0.035l-0.05,-0.038l-0.047,-0.042l-0.045,-0.044l-0.041,-0.047l-0.039,-0.049l-0.036,-0.052l-0.032,-0.054l-0.029,-0.055l-0.025,-0.058l-0.022,-0.059l-0.018,-0.06l-0.014,-0.061l-0.01,-0.062l-0.007,-0.063l-0.002,-0.063l0.002,-0.062l0.005,-0.063l0.01,-0.062l0.013,-0.062l0.031,-0.125l0.032,-0.122l0.036,-0.125l0.038,-0.125l0.041,-0.124l0.043,-0.122l0.046,-0.12l0.048,-0.12l0.05,-0.118l0.053,-0.117l0.055,-0.115l0.058,-0.114l0.059,-0.113l0.062,-0.111l0.064,-0.109l0.066,-0.108l0.068,-0.106l0.071,-0.105l0.072,-0.103l0.074,-0.101l0.077,-0.1l0.078,-0.098l0.08,-0.097l0.082,-0.094l0.084,-0.093l0.086,-0.091l0.087,-0.089l0.089,-0.087l0.091,-0.086l0.093,-0.083l0.094,-0.082l0.096,-0.08l0.098,-0.077l0.099,-0.076l0.1,-0.074l0.102,-0.071l0.104,-0.07l0.105,-0.068l0.106,-0.065l0.108,-0.063l0.109,-0.061l0.11,-0.059l0.112,-0.057l0.113,-0.054l0.114,-0.052l0.115,-0.05l0.116,-0.048l0.118,-0.045l0.119,-0.043l0.119,-0.04l0.121,-0.038l0.122,-0.036l0.122,-0.033l0.124,-0.03l0.124,-0.028l0.126,-0.026l0.126,-0.023l0.127,-0.02l0.127,-0.018l0.129,-0.015l0.129,-0.012l0.129,-0.01l0.13,-0.006l0.131,-0.005l0.126,-0.001l0.012,0l0.126,0.001Z" style="fill:#593604;"/><path d="M8,15c0,-0.265 0.105,-0.52 0.293,-0.707c0.187,-0.188 0.442,-0.293 0.707,-0.293c0,0 0,0 0,0l3,3c0,0 0,0.449 0,1c0,0.53 -0.211,1.039 -0.586,1.414c-0.375,0.375 -0.884,0.586 -1.414,0.586c-1.105,0 -2,-0.895 -2,-2c0,-1.007 0,-2.185 0,-3Z"/><path d="M20,17l3,-3c0,0 0,0 0.001,0c0.552,0 0.999,0.447 0.999,0.999c0,0.816 0,1.995 0,3.003c0,1.103 -0.895,1.998 -1.998,1.998c-0.001,0 -0.003,0 -0.004,0c-1.103,0 -1.998,-0.895 -1.998,-1.998c0,-0.552 0,-1.002 0,-1.002Z"/><g><path d="M17.06,4.002l0.049,0.004l0.047,0.006l0.048,0.009l0.047,0.011l0.047,0.013l0.045,0.016l0.045,0.017l0.044,0.02l0.043,0.022l0.042,0.024l0.041,0.026l0.04,0.028l0.038,0.03l0.036,0.032l0.035,0.033l1.59,1.59l0.05,0.051l0.052,0.056l0.05,0.057l0.049,0.059l0.047,0.059l0.046,0.06l0.044,0.061l0.042,0.063l0.04,0.062l0.039,0.064l0.037,0.065l0.035,0.065l0.034,0.065l0.031,0.067l0.03,0.067l0.029,0.068l0.027,0.068l0.024,0.068l0.024,0.069l0.021,0.07l0.02,0.07l0.018,0.07l0.016,0.07l0.015,0.071l0.013,0.071l0.011,0.071l0.009,0.072l0.008,0.071l0.006,0.072l0.004,0.071l0.003,0.072l0.001,0.072l-0.001,0.072l-0.003,0.072l-0.004,0.071l-0.006,0.072l-0.008,0.071l-0.009,0.072l-0.011,0.071l-0.013,0.071l-0.015,0.071l-0.016,0.07l-0.018,0.07l-0.02,0.07l-0.021,0.07l-0.024,0.069l-0.024,0.068l-0.027,0.069l-0.029,0.067l-0.03,0.067l-0.031,0.067l-0.034,0.065l-0.035,0.065l-0.037,0.065l-0.039,0.064l-0.04,0.063l-0.042,0.062l-0.044,0.061l-0.046,0.06l-0.047,0.059l-0.049,0.059l-0.05,0.057l-0.052,0.056l-0.05,0.051l-1.59,1.59l-0.035,0.033l-0.036,0.032l-0.038,0.03l-0.04,0.028l-0.041,0.026l-0.042,0.024l-0.043,0.022l-0.044,0.02l-0.045,0.017l-0.045,0.016l-0.047,0.013l-0.047,0.011l-0.048,0.009l-0.047,0.006l-0.049,0.004l-0.048,0.002l-0.048,-0.001l-0.048,-0.003l-0.049,-0.005l-0.047,-0.007l-0.048,-0.01l-0.046,-0.012l-0.046,-0.015l-0.046,-0.016l-0.044,-0.019l-0.044,-0.021l-0.043,-0.023l-0.041,-0.025l-0.04,-0.027l-0.039,-0.029l-0.037,-0.031l-0.036,-0.032l-0.034,-0.034l-0.032,-0.036l-0.031,-0.037l-0.029,-0.039l-0.027,-0.04l-0.025,-0.041l-0.023,-0.043l-0.021,-0.044l-0.019,-0.044l-0.016,-0.046l-0.015,-0.046l-0.012,-0.046l-0.01,-0.048l-0.007,-0.047l-0.005,-0.049l-0.003,-0.048l-0.001,-0.048l0.002,-0.048l0.004,-0.049l0.006,-0.047l0.009,-0.048l0.011,-0.047l0.013,-0.047l0.016,-0.045l0.017,-0.045l0.02,-0.044l0.022,-0.043l0.024,-0.042l0.026,-0.041l0.028,-0.04l0.03,-0.038l0.032,-0.036l0.033,-0.035l1.581,-1.581l0.023,-0.024l0.018,-0.019l0.017,-0.019l0.016,-0.02l0.016,-0.02l0.015,-0.02l0.015,-0.02l0.014,-0.021l0.013,-0.02l0.013,-0.021l0.012,-0.022l0.011,-0.021l0.012,-0.022l0.01,-0.022l0.01,-0.022l0.009,-0.022l0.009,-0.023l0.008,-0.022l0.008,-0.023l0.007,-0.024l0.007,-0.023l0.006,-0.023l0.005,-0.024l0.005,-0.023l0.004,-0.024l0.004,-0.024l0.003,-0.024l0.003,-0.024l0.002,-0.024l0.001,-0.024l0.001,-0.024l0.001,-0.024l-0.001,-0.024l-0.001,-0.024l-0.001,-0.024l-0.002,-0.024l-0.003,-0.024l-0.003,-0.024l-0.004,-0.024l-0.004,-0.024l-0.005,-0.023l-0.005,-0.024l-0.006,-0.023l-0.007,-0.023l-0.007,-0.024l-0.008,-0.023l-0.008,-0.022l-0.009,-0.023l-0.009,-0.022l-0.01,-0.022l-0.01,-0.022l-0.012,-0.022l-0.011,-0.021l-0.012,-0.022l-0.013,-0.021l-0.014,-0.02l-0.013,-0.021l-0.015,-0.02l-0.015,-0.02l-0.016,-0.02l-0.016,-0.02l-0.017,-0.019l-0.018,-0.019l-0.023,-0.024l-1.581,-1.581l-0.033,-0.035l-0.032,-0.036l-0.03,-0.038l-0.028,-0.04l-0.026,-0.041l-0.024,-0.042l-0.022,-0.043l-0.02,-0.044l-0.017,-0.045l-0.016,-0.045l-0.013,-0.047l-0.011,-0.047l-0.009,-0.048l-0.006,-0.047l-0.004,-0.049l-0.002,-0.048l0.001,-0.048l0.003,-0.048l0.005,-0.049l0.007,-0.047l0.01,-0.048l0.012,-0.046l0.015,-0.046l0.016,-0.046l0.019,-0.044l0.021,-0.044l0.023,-0.043l0.025,-0.041l0.027,-0.04l0.029,-0.039l0.031,-0.037l0.032,-0.036l0.034,-0.034l0.036,-0.032l0.037,-0.031l0.039,-0.029l0.04,-0.027l0.041,-0.025l0.043,-0.023l0.044,-0.021l0.044,-0.019l0.046,-0.016l0.046,-0.015l0.046,-0.012l0.048,-0.01l0.047,-0.007l0.049,-0.005l0.048,-0.003l0.048,-0.001l0.048,0.002Z" style="fill:#f00;"/><path d="M29.036,4.001l0.048,0.003l0.049,0.005l0.047,0.007l0.048,0.01l0.046,0.012l0.046,0.015l0.046,0.016l0.044,0.019l0.044,0.021l0.043,0.023l0.041,0.025l0.04,0.027l0.039,0.029l0.037,0.031l0.036,0.032l0.034,0.034l0.032,0.036l0.031,0.037l0.029,0.039l0.027,0.04l0.025,0.041l0.023,0.043l0.021,0.044l0.019,0.044l0.016,0.046l0.015,0.046l0.012,0.046l0.01,0.048l0.007,0.047l0.005,0.049l0.003,0.048l0.001,0.048l-0.002,0.048l-0.004,0.049l-0.006,0.047l-0.009,0.048l-0.011,0.047l-0.013,0.047l-0.016,0.045l-0.017,0.045l-0.02,0.044l-0.022,0.043l-0.024,0.042l-0.026,0.041l-0.028,0.04l-0.03,0.038l-0.032,0.036l-0.033,0.035l-1.581,1.581l-0.023,0.024l-0.018,0.019l-0.017,0.019l-0.016,0.02l-0.016,0.02l-0.015,0.02l-0.015,0.02l-0.013,0.021l-0.014,0.02l-0.013,0.021l-0.012,0.022l-0.011,0.021l-0.012,0.022l-0.01,0.022l-0.01,0.022l-0.009,0.022l-0.009,0.023l-0.008,0.022l-0.008,0.023l-0.007,0.024l-0.007,0.023l-0.006,0.023l-0.005,0.024l-0.005,0.023l-0.004,0.024l-0.004,0.024l-0.003,0.024l-0.003,0.024l-0.002,0.024l-0.001,0.024l-0.001,0.024l-0.001,0.024l0.001,0.024l0.001,0.024l0.001,0.024l0.002,0.024l0.003,0.024l0.003,0.024l0.004,0.024l0.004,0.024l0.005,0.023l0.005,0.024l0.006,0.023l0.007,0.023l0.007,0.024l0.008,0.023l0.008,0.022l0.009,0.023l0.009,0.022l0.01,0.022l0.01,0.022l0.012,0.022l0.011,0.021l0.012,0.022l0.013,0.021l0.013,0.02l0.014,0.021l0.015,0.02l0.015,0.02l0.016,0.02l0.016,0.02l0.017,0.019l0.018,0.019l0.023,0.024l1.581,1.581l0.033,0.035l0.032,0.036l0.03,0.038l0.028,0.04l0.026,0.041l0.024,0.042l0.022,0.043l0.02,0.044l0.017,0.045l0.016,0.045l0.013,0.047l0.011,0.047l0.009,0.048l0.006,0.047l0.004,0.049l0.002,0.048l-0.001,0.048l-0.003,0.048l-0.005,0.049l-0.007,0.047l-0.01,0.048l-0.012,0.046l-0.015,0.046l-0.016,0.046l-0.019,0.044l-0.021,0.044l-0.023,0.043l-0.025,0.041l-0.027,0.04l-0.029,0.039l-0.031,0.037l-0.032,0.036l-0.034,0.034l-0.036,0.032l-0.037,0.031l-0.039,0.029l-0.04,0.027l-0.041,0.025l-0.043,0.023l-0.044,0.021l-0.044,0.019l-0.046,0.016l-0.046,0.015l-0.046,0.012l-0.048,0.01l-0.047,0.007l-0.049,0.005l-0.048,0.003l-0.048,0.001l-0.048,-0.002l-0.049,-0.004l-0.047,-0.006l-0.048,-0.009l-0.047,-0.011l-0.047,-0.013l-0.045,-0.016l-0.045,-0.017l-0.044,-0.02l-0.043,-0.022l-0.042,-0.024l-0.041,-0.026l-0.04,-0.028l-0.038,-0.03l-0.036,-0.032l-0.035,-0.033l-1.59,-1.59l-0.05,-0.051l-0.052,-0.056l-0.05,-0.057l-0.049,-0.059l-0.047,-0.059l-0.046,-0.06l-0.044,-0.061l-0.042,-0.062l-0.04,-0.063l-0.039,-0.064l-0.037,-0.065l-0.035,-0.065l-0.034,-0.065l-0.031,-0.067l-0.03,-0.067l-0.029,-0.067l-0.027,-0.069l-0.024,-0.068l-0.024,-0.069l-0.021,-0.07l-0.02,-0.07l-0.018,-0.07l-0.016,-0.07l-0.015,-0.071l-0.013,-0.071l-0.011,-0.071l-0.009,-0.072l-0.008,-0.071l-0.006,-0.072l-0.004,-0.071l-0.003,-0.072l-0.001,-0.072l0.001,-0.072l0.003,-0.072l0.004,-0.071l0.006,-0.072l0.008,-0.071l0.009,-0.072l0.011,-0.071l0.013,-0.071l0.015,-0.071l0.016,-0.07l0.018,-0.07l0.02,-0.07l0.021,-0.07l0.024,-0.069l0.024,-0.068l0.027,-0.068l0.029,-0.068l0.03,-0.067l0.031,-0.067l0.034,-0.065l0.035,-0.065l0.037,-0.065l0.039,-0.064l0.04,-0.062l0.042,-0.063l0.044,-0.061l0.046,-0.06l0.047,-0.059l0.049,-0.059l0.05,-0.057l0.052,-0.056l0.05,-0.051l1.59,-1.59l0.035,-0.033l0.036,-0.032l0.038,-0.03l0.04,-0.028l0.041,-0.026l0.042,-0.024l0.043,-0.022l0.044,-0.02l0.045,-0.017l0.045,-0.016l0.047,-0.013l0.047,-0.011l0.048,-0.009l0.047,-0.006l0.049,-0.004l0.048,-0.002l0.048,0.001Z" style="fill:#f00;"/><path d="M23.072,9.829l0.072,0.003l0.071,0.004l0.072,0.006l0.071,0.008l0.072,0.009l0.071,0.011l0.071,0.013l0.071,0.015l0.07,0.016l0.071,0.018l0.069,0.02l0.07,0.021l0.069,0.024l0.068,0.024l0.069,0.027l0.067,0.028l0.067,0.031l0.067,0.031l0.065,0.034l0.065,0.035l0.065,0.037l0.064,0.039l0.062,0.04l0.063,0.042l0.061,0.044l0.06,0.046l0.059,0.047l0.059,0.049l0.057,0.05l0.056,0.052l0.051,0.05l1.59,1.59l0.033,0.035l0.032,0.036l0.03,0.038l0.028,0.04l0.026,0.041l0.024,0.042l0.022,0.043l0.02,0.044l0.017,0.045l0.016,0.045l0.013,0.047l0.011,0.047l0.009,0.048l0.006,0.047l0.004,0.049l0.002,0.048l-0.001,0.048l-0.003,0.048l-0.005,0.049l-0.007,0.047l-0.01,0.048l-0.012,0.046l-0.015,0.046l-0.016,0.046l-0.019,0.044l-0.021,0.044l-0.023,0.043l-0.025,0.041l-0.027,0.04l-0.029,0.039l-0.031,0.037l-0.032,0.036l-0.034,0.034l-0.036,0.032l-0.037,0.031l-0.039,0.029l-0.04,0.027l-0.041,0.025l-0.043,0.023l-0.044,0.021l-0.044,0.019l-0.046,0.016l-0.046,0.015l-0.046,0.012l-0.048,0.01l-0.047,0.007l-0.049,0.005l-0.048,0.003l-0.048,0.001l-0.048,-0.002l-0.049,-0.004l-0.047,-0.006l-0.048,-0.009l-0.047,-0.011l-0.047,-0.013l-0.045,-0.016l-0.045,-0.017l-0.044,-0.02l-0.043,-0.022l-0.042,-0.024l-0.041,-0.026l-0.04,-0.028l-0.038,-0.03l-0.036,-0.032l-0.035,-0.033l-1.582,-1.581l-0.023,-0.023l-0.019,-0.018l-0.019,-0.017l-0.02,-0.016l-0.02,-0.016l-0.02,-0.015l-0.02,-0.015l-0.021,-0.013l-0.02,-0.014l-0.021,-0.013l-0.022,-0.012l-0.021,-0.012l-0.022,-0.011l-0.022,-0.01l-0.022,-0.01l-0.022,-0.009l-0.023,-0.009l-0.022,-0.008l-0.023,-0.008l-0.023,-0.007l-0.024,-0.007l-0.023,-0.006l-0.024,-0.005l-0.023,-0.005l-0.024,-0.004l-0.024,-0.004l-0.024,-0.003l-0.024,-0.003l-0.024,-0.002l-0.024,-0.001l-0.024,-0.001l-0.024,-0.001l-0.024,0.001l-0.024,0.001l-0.024,0.001l-0.024,0.002l-0.024,0.003l-0.024,0.003l-0.024,0.004l-0.024,0.004l-0.023,0.005l-0.024,0.005l-0.023,0.006l-0.024,0.007l-0.023,0.007l-0.023,0.008l-0.022,0.008l-0.023,0.009l-0.022,0.009l-0.022,0.01l-0.022,0.01l-0.022,0.011l-0.021,0.012l-0.022,0.012l-0.021,0.013l-0.02,0.014l-0.021,0.013l-0.02,0.015l-0.02,0.015l-0.02,0.016l-0.02,0.016l-0.019,0.017l-0.019,0.018l-0.023,0.023l-1.582,1.581l-0.035,0.033l-0.036,0.032l-0.038,0.03l-0.04,0.028l-0.041,0.026l-0.042,0.024l-0.043,0.022l-0.044,0.02l-0.045,0.017l-0.045,0.016l-0.047,0.013l-0.047,0.011l-0.048,0.009l-0.047,0.006l-0.049,0.004l-0.048,0.002l-0.048,-0.001l-0.048,-0.003l-0.049,-0.005l-0.047,-0.007l-0.048,-0.01l-0.046,-0.012l-0.046,-0.015l-0.046,-0.016l-0.044,-0.019l-0.044,-0.021l-0.043,-0.023l-0.041,-0.025l-0.04,-0.027l-0.039,-0.029l-0.037,-0.031l-0.036,-0.032l-0.034,-0.034l-0.032,-0.036l-0.031,-0.037l-0.029,-0.039l-0.027,-0.04l-0.025,-0.041l-0.023,-0.043l-0.021,-0.044l-0.019,-0.044l-0.016,-0.046l-0.015,-0.046l-0.012,-0.046l-0.01,-0.048l-0.007,-0.047l-0.005,-0.049l-0.003,-0.048l-0.001,-0.048l0.002,-0.048l0.004,-0.049l0.006,-0.047l0.009,-0.048l0.011,-0.047l0.013,-0.047l0.016,-0.045l0.017,-0.045l0.02,-0.044l0.022,-0.043l0.024,-0.042l0.026,-0.041l0.028,-0.04l0.03,-0.038l0.032,-0.036l0.033,-0.035l1.59,-1.59l0.051,-0.05l0.056,-0.052l0.057,-0.05l0.059,-0.049l0.059,-0.047l0.06,-0.046l0.061,-0.044l0.063,-0.042l0.062,-0.04l0.064,-0.039l0.065,-0.037l0.065,-0.035l0.065,-0.034l0.067,-0.031l0.067,-0.031l0.067,-0.028l0.069,-0.027l0.068,-0.024l0.069,-0.024l0.07,-0.021l0.069,-0.02l0.071,-0.018l0.07,-0.016l0.071,-0.015l0.071,-0.013l0.071,-0.011l0.072,-0.009l0.071,-0.008l0.072,-0.006l0.071,-0.004l0.072,-0.003l0.072,-0.001l0.072,0.001Z" style="fill:#f00;"/><path d="M26.036,2.001l0.048,0.003l0.049,0.005l0.047,0.007l0.048,0.01l0.046,0.012l0.046,0.015l0.046,0.016l0.044,0.019l0.044,0.021l0.043,0.023l0.041,0.025l0.04,0.027l0.039,0.029l0.037,0.031l0.036,0.032l0.034,0.034l0.032,0.036l0.031,0.037l0.029,0.039l0.027,0.04l0.025,0.041l0.023,0.043l0.021,0.044l0.019,0.044l0.016,0.046l0.015,0.046l0.012,0.046l0.01,0.048l0.007,0.047l0.005,0.049l0.003,0.048l0.001,0.048l-0.002,0.048l-0.004,0.049l-0.006,0.047l-0.009,0.048l-0.011,0.047l-0.013,0.047l-0.016,0.045l-0.017,0.045l-0.02,0.044l-0.022,0.043l-0.024,0.042l-0.026,0.041l-0.028,0.04l-0.03,0.038l-0.032,0.036l-0.033,0.035l-1.59,1.59l-0.051,0.05l-0.056,0.052l-0.057,0.05l-0.059,0.049l-0.059,0.047l-0.06,0.046l-0.061,0.044l-0.063,0.042l-0.062,0.04l-0.064,0.039l-0.064,0.037l-0.066,0.035l-0.066,0.034l-0.066,0.031l-0.067,0.03l-0.068,0.029l-0.068,0.027l-0.068,0.024l-0.069,0.024l-0.07,0.021l-0.069,0.02l-0.071,0.018l-0.07,0.016l-0.071,0.015l-0.071,0.013l-0.071,0.011l-0.072,0.009l-0.071,0.008l-0.072,0.006l-0.071,0.004l-0.072,0.003l-0.072,0.001l-0.072,-0.001l-0.072,-0.003l-0.071,-0.004l-0.072,-0.006l-0.071,-0.008l-0.072,-0.009l-0.071,-0.011l-0.071,-0.013l-0.071,-0.015l-0.07,-0.016l-0.071,-0.018l-0.069,-0.02l-0.07,-0.021l-0.069,-0.024l-0.068,-0.024l-0.068,-0.027l-0.068,-0.029l-0.067,-0.03l-0.066,-0.031l-0.066,-0.034l-0.066,-0.035l-0.064,-0.037l-0.064,-0.039l-0.062,-0.04l-0.063,-0.042l-0.061,-0.044l-0.06,-0.046l-0.059,-0.047l-0.059,-0.049l-0.057,-0.05l-0.056,-0.052l-0.051,-0.05l-1.59,-1.59l-0.033,-0.035l-0.032,-0.036l-0.03,-0.038l-0.028,-0.04l-0.026,-0.041l-0.024,-0.042l-0.022,-0.043l-0.02,-0.044l-0.017,-0.045l-0.016,-0.045l-0.013,-0.047l-0.011,-0.047l-0.009,-0.048l-0.006,-0.047l-0.004,-0.049l-0.002,-0.048l0.001,-0.048l0.003,-0.048l0.005,-0.049l0.007,-0.047l0.01,-0.048l0.012,-0.046l0.015,-0.046l0.016,-0.046l0.019,-0.044l0.021,-0.044l0.023,-0.043l0.025,-0.041l0.027,-0.04l0.029,-0.039l0.031,-0.037l0.032,-0.036l0.034,-0.034l0.036,-0.032l0.037,-0.031l0.039,-0.029l0.04,-0.027l0.041,-0.025l0.043,-0.023l0.044,-0.021l0.044,-0.019l0.046,-0.016l0.046,-0.015l0.046,-0.012l0.048,-0.01l0.047,-0.007l0.049,-0.005l0.048,-0.003l0.048,-0.001l0.048,0.002l0.049,0.004l0.047,0.006l0.048,0.009l0.047,0.011l0.047,0.013l0.045,0.016l0.045,0.017l0.044,0.02l0.043,0.022l0.042,0.024l0.041,0.026l0.04,0.028l0.038,0.03l0.036,0.032l0.035,0.033l1.581,1.581l0.024,0.023l0.019,0.018l0.019,0.017l0.02,0.016l0.02,0.016l0.02,0.015l0.02,0.015l0.021,0.013l0.02,0.014l0.021,0.013l0.022,0.012l0.021,0.012l0.022,0.011l0.022,0.01l0.022,0.01l0.022,0.009l0.023,0.009l0.022,0.008l0.023,0.008l0.023,0.007l0.024,0.007l0.023,0.006l0.023,0.005l0.024,0.005l0.024,0.004l0.024,0.004l0.024,0.003l0.024,0.003l0.024,0.002l0.024,0.001l0.024,0.001l0.024,0l0.024,0l0.024,-0.001l0.024,-0.001l0.024,-0.002l0.024,-0.003l0.024,-0.003l0.024,-0.004l0.024,-0.004l0.024,-0.005l0.023,-0.005l0.023,-0.006l0.024,-0.007l0.023,-0.007l0.023,-0.008l0.022,-0.008l0.023,-0.009l0.022,-0.009l0.022,-0.01l0.022,-0.01l0.022,-0.011l0.021,-0.012l0.022,-0.012l0.021,-0.013l0.02,-0.014l0.021,-0.013l0.02,-0.015l0.02,-0.015l0.02,-0.016l0.02,-0.016l0.019,-0.017l0.019,-0.018l0.024,-0.023l1.581,-1.581l0.035,-0.033l0.036,-0.032l0.038,-0.03l0.04,-0.028l0.041,-0.026l0.042,-0.024l0.043,-0.022l0.044,-0.02l0.045,-0.017l0.045,-0.016l0.047,-0.013l0.047,-0.011l0.048,-0.009l0.047,-0.006l0.049,-0.004l0.048,-0.002l0.048,0.001Z" style="fill:#f00;"/></g></g></g></svg>