<?xml version="1.0" encoding="UTF-8" standalone="no"?><!DOCTYPE svg PUBLIC "-//W3C//DTD SVG 1.1//EN" "http://www.w3.org/Graphics/SVG/1.1/DTD/svg11.dtd"><svg width="100%" height="100%" viewBox="0 0 32 32" version="1.1" xmlns="http://www.w3.org/2000/svg" xmlns:xlink="http://www.w3.org/1999/xlink" xml:space="preserve" xmlns:serif="http://www.serif.com/" style="fill-rule:evenodd;clip-rule:evenodd;stroke-linecap:round;stroke-miterlimit:1.5;"><rect id="angry" x="0" y="0" width="32" height="32" style="fill:none;"/><clipPath id="_clip1"><rect x="0" y="0" width="32" height="32"/></clipPath><g clip-path="url(#_clip1)"><g id="outline"><path d="M16.703,2.015c0.155,-0.015 0.311,-0.018 0.466,-0.01c0.144,-0.411 0.381,-0.798 0.71,-1.126c1.17,-1.171 3.072,-1.171 4.242,0l0.879,0.878l0.879,-0.878c1.17,-1.171 3.072,-1.171 4.242,0c0.329,0.328 0.566,0.715 0.71,1.126c0.823,-0.046 1.662,0.245 2.29,0.874c1.171,1.17 1.171,3.072 0,4.242l-0.878,0.879l0.878,0.879c1.14,1.139 1.17,2.971 0.091,4.148c0.511,1.565 0.788,3.237 0.788,4.973l0,1c0,7.18 -5.82,13 -13,13l-6,0c-7.18,0 -13,-5.82 -13,-13c0,-0.332 0,-0.665 0,-1c0,-8.837 7.163,-16 16,-16l0.103,0c0.201,0.002 0.4,0.007 0.6,0.015Z"/></g><g id="emoji"><path d="M30,18c0,-7.732 -6.268,-14 -14,-14c0,0 0,0 0,0c-7.732,0 -14,6.268 -14,14c0,0.335 0,0.668 0,1c0,6.075 4.925,11 11,11c1.972,0 4.028,0 6,0c6.075,0 11,-4.925 11,-11c0,-0.332 0,-0.665 0,-1Z" style="fill:#fbc546;"/><g><path d="M23.2,13.4l1.401,-0.7c0.131,0.098 0.257,0.207 0.374,0.325c0.656,0.656 1.025,1.545 1.025,2.473c0,0.657 0,1.345 0,2.002c0,1.933 -1.567,3.5 -3.5,3.5l-0.002,0c-0.928,0 -1.817,-0.369 -2.473,-1.025c-0.656,-0.656 -1.025,-1.545 -1.025,-2.473l0,-2.002l1,-0.5l0,0c0,0.936 3.275,-1.544 3.2,-1.6Z" style="fill:#fff;"/><path d="M23.2,13.4c0.075,0.056 0.147,0.118 0.214,0.186c0.375,0.375 0.586,0.884 0.586,1.414c0,0.936 0,2.048 0,2.983c0,0.531 -0.211,1.039 -0.586,1.415c-0.375,0.375 -0.884,0.585 -1.414,0.585c-0.53,0 -1.039,-0.21 -1.414,-0.585c-0.375,-0.376 -0.586,-0.884 -0.586,-1.415l0,-2.983l3.2,-1.6Z"/></g><g><path d="M8.8,13.4l-1.401,-0.7c-0.131,0.098 -0.257,0.207 -0.374,0.325c-0.656,0.656 -1.025,1.545 -1.025,2.473c0,0.657 0,1.345 0,2.002c0,1.933 1.567,3.5 3.5,3.5l0.002,0c0.928,0 1.817,-0.369 2.473,-1.025c0.656,-0.656 1.025,-1.545 1.025,-2.473l0,-2.002l-1,-0.5l0,0c0,0.936 -3.275,-1.544 -3.2,-1.6Z" style="fill:#fff;"/><path d="M8.8,13.4c-0.075,0.056 -0.147,0.118 -0.214,0.186c-0.375,0.375 -0.586,0.884 -0.586,1.414c0,0.936 0,2.048 0,2.983c0,0.531 0.211,1.039 0.586,1.415c0.375,0.375 0.884,0.585 1.414,0.585c0.53,0 1.039,-0.21 1.414,-0.585c0.375,-0.376 0.586,-0.884 0.586,-1.415l0,-2.983l-3.2,-1.6Z"/></g><path d="M11,26.5c0,0 0.011,-0.043 0.03,-0.12c0.57,-2.28 2.619,-3.88 4.969,-3.88c0.001,0 0.001,0 0.002,0c2.35,0 4.399,1.6 4.969,3.88c0.019,0.077 0.03,0.12 0.03,0.12" style="fill:none;stroke:#593604;stroke-width:2px;"/><g><path d="M17,5c0,0 0.808,0.808 1.586,1.586c0.781,0.781 0.781,2.047 0,2.828c-0.778,0.778 -1.586,1.586 -1.586,1.586" style="fill:none;stroke:#f00;stroke-width:2px;"/><path d="M29,5c0,0 -0.808,0.808 -1.586,1.586c-0.781,0.781 -0.781,2.047 0,2.828c0.778,0.778 1.586,1.586 1.586,1.586" style="fill:none;stroke:#f00;stroke-width:2px;"/><path d="M20,13c0,0 0.808,-0.808 1.586,-1.586c0.781,-0.781 2.047,-0.781 2.828,0c0.778,0.778 1.586,1.586 1.586,1.586" style="fill:none;stroke:#f00;stroke-width:2px;"/><path d="M20,3c0,0 0.808,0.808 1.586,1.586c0.781,0.781 2.047,0.781 2.828,0c0.778,-0.778 1.586,-1.586 1.586,-1.586" style="fill:none;stroke:#f00;stroke-width:2px;"/></g></g></g></svg>