<?xml version="1.0" encoding="UTF-8" standalone="no"?><!DOCTYPE svg PUBLIC "-//W3C//DTD SVG 1.1//EN" "http://www.w3.org/Graphics/SVG/1.1/DTD/svg11.dtd"><svg width="100%" height="100%" viewBox="0 0 32 32" version="1.1" xmlns="http://www.w3.org/2000/svg" xmlns:xlink="http://www.w3.org/1999/xlink" xml:space="preserve" xmlns:serif="http://www.serif.com/" style="fill-rule:evenodd;clip-rule:evenodd;stroke-linejoin:round;stroke-miterlimit:1.41421;"><rect id="angry_steam" x="0" y="0" width="32" height="32" style="fill:none;"/><clipPath id="_clip1"><rect x="0" y="0" width="32" height="32"/></clipPath><g clip-path="url(#_clip1)"><g id="outline"><path d="M16.193,1.001l0.193,0.004l0.193,0.006l0.191,0.008l0.191,0.011l0.191,0.014l0.19,0.015l0.189,0.018l0.189,0.021l0.188,0.022l0.187,0.025l0.187,0.028l0.186,0.029l0.185,0.032l0.184,0.034l0.184,0.037l0.183,0.038l0.182,0.041l0.181,0.043l0.18,0.045l0.18,0.048l0.178,0.049l0.178,0.052l0.177,0.054l0.176,0.056l0.175,0.058l0.174,0.06l0.172,0.062l0.173,0.064l0.17,0.066l0.17,0.068l0.169,0.071l0.168,0.072l0.167,0.074l0.166,0.076l0.164,0.078l0.164,0.08l0.162,0.082l0.161,0.084l0.16,0.086l0.159,0.087l0.158,0.089l0.156,0.092l0.156,0.093l0.154,0.095l0.152,0.096l0.152,0.099l0.15,0.1l0.149,0.102l0.148,0.104l0.146,0.105l0.145,0.107l0.144,0.109l0.142,0.11l0.141,0.112l0.139,0.114l0.138,0.115l0.137,0.117l0.135,0.119l0.134,0.12l0.133,0.122l0.13,0.123l0.13,0.125l0.128,0.126l0.126,0.128l0.125,0.13l0.123,0.131l0.122,0.132l0.12,0.134l0.119,0.135l0.117,0.137l0.115,0.138l0.114,0.139l0.112,0.141l0.11,0.143l0.109,0.143l0.107,0.145l0.106,0.146l0.103,0.148l0.102,0.149l0.1,0.15l0.099,0.152l0.096,0.152l0.095,0.155l0.093,0.155l0.091,0.156l0.09,0.158l0.087,0.159l0.086,0.16l0.084,0.161l0.082,0.162l0.08,0.164l0.078,0.164l0.076,0.166l0.074,0.167l0.072,0.168l0.071,0.169l0.068,0.169l0.066,0.171l0.064,0.173l0.062,0.172l0.06,0.174l0.058,0.175l0.056,0.176l0.054,0.177l0.052,0.178l0.049,0.178l0.048,0.18l0.045,0.18l0.043,0.181l0.041,0.182l0.038,0.183l0.037,0.184l0.034,0.184l0.032,0.185l0.029,0.186l0.028,0.187l0.025,0.187l0.022,0.188l0.021,0.189l0.018,0.189l0.015,0.19l0.014,0.191l0.011,0.191l0.008,0.192l0.006,0.192l0.004,0.193l0.001,0.187l0,1.287l0.059,0.067l0.062,0.074l0.06,0.075l0.058,0.076l0.055,0.076l0.054,0.079l0.052,0.08l0.049,0.081l0.048,0.082l0.046,0.083l0.044,0.084l0.041,0.085l0.039,0.086l0.038,0.087l0.035,0.088l0.033,0.09l0.031,0.089l0.028,0.09l0.027,0.091l0.024,0.091l0.022,0.093l0.02,0.093l0.017,0.093l0.016,0.095l0.013,0.094l0.01,0.095l0.008,0.095l0.006,0.097l0.004,0.097l0.001,0.083l0,0.031l-0.002,0.117l-0.007,0.134l-0.012,0.133l-0.016,0.133l-0.021,0.13l-0.025,0.13l-0.03,0.128l-0.034,0.128l-0.039,0.125l-0.042,0.124l-0.047,0.122l-0.051,0.12l-0.054,0.118l-0.059,0.116l-0.063,0.114l-0.066,0.112l-0.071,0.109l-0.073,0.107l-0.078,0.105l-0.081,0.101l-0.085,0.1l-0.088,0.096l-0.092,0.093l-0.095,0.091l-0.099,0.087l-0.101,0.084l-0.105,0.081l-0.107,0.077l-0.111,0.074l-0.046,0.028l-0.048,0.117l-0.064,0.151l-0.067,0.15l-0.068,0.149l-0.071,0.148l-0.074,0.147l-0.075,0.146l-0.078,0.144l-0.079,0.144l-0.082,0.142l-0.084,0.142l-0.087,0.14l-0.088,0.139l-0.091,0.137l-0.092,0.137l-0.095,0.135l-0.097,0.133l-0.099,0.133l-0.101,0.131l-0.103,0.129l-0.105,0.129l-0.108,0.127l-0.109,0.125l-0.111,0.123l-0.113,0.123l-0.115,0.12l-0.117,0.118l-0.098,0.097l-0.098,0.095l-0.1,0.093l-0.1,0.092l-0.101,0.091l-0.103,0.089l-0.103,0.088l-0.105,0.087l-0.105,0.085l-0.106,0.084l-0.108,0.082l-0.108,0.082l-0.109,0.079l-0.11,0.079l-0.111,0.077l-0.111,0.075l-0.113,0.074l-0.113,0.073l-0.114,0.071l-0.115,0.07l-0.116,0.068l-0.117,0.067l-0.117,0.065l-0.118,0.064l-0.119,0.063l-0.12,0.061l-0.12,0.059l-0.121,0.058l-0.122,0.057l-0.122,0.055l-0.123,0.054l-0.123,0.052l-0.125,0.05l-0.125,0.049l-0.125,0.048l-0.126,0.046l-0.127,0.044l-0.127,0.043l-0.128,0.042l-0.128,0.04l-0.128,0.038l-0.13,0.037l-0.129,0.035l-0.131,0.033l-0.13,0.032l-0.131,0.031l-0.132,0.028l-0.132,0.028l-0.132,0.025l-0.133,0.024l-0.133,0.023l-0.134,0.021l-0.133,0.019l-0.135,0.017l-0.134,0.016l-0.135,0.014l-0.135,0.013l-0.135,0.011l-0.136,0.009l-0.136,0.008l-0.136,0.005l-0.136,0.005l-0.136,0.002l-0.131,0.001l-8.012,0l-0.131,-0.001l-0.136,-0.002l-0.136,-0.005l-0.136,-0.005l-0.136,-0.008l-0.136,-0.009l-0.135,-0.011l-0.135,-0.013l-0.135,-0.014l-0.134,-0.016l-0.135,-0.017l-0.133,-0.019l-0.134,-0.021l-0.133,-0.023l-0.133,-0.024l-0.132,-0.025l-0.132,-0.028l-0.132,-0.028l-0.131,-0.031l-0.13,-0.032l-0.131,-0.033l-0.129,-0.035l-0.13,-0.037l-0.128,-0.038l-0.128,-0.04l-0.128,-0.042l-0.127,-0.043l-0.127,-0.044l-0.126,-0.046l-0.126,-0.048l-0.124,-0.049l-0.125,-0.05l-0.123,-0.052l-0.123,-0.054l-0.122,-0.055l-0.122,-0.057l-0.121,-0.058l-0.12,-0.059l-0.12,-0.061l-0.119,-0.063l-0.118,-0.064l-0.117,-0.065l-0.117,-0.067l-0.116,-0.068l-0.115,-0.07l-0.114,-0.071l-0.113,-0.073l-0.113,-0.074l-0.111,-0.075l-0.111,-0.077l-0.11,-0.079l-0.109,-0.079l-0.109,-0.082l-0.107,-0.082l-0.106,-0.084l-0.105,-0.085l-0.105,-0.087l-0.103,-0.088l-0.103,-0.089l-0.101,-0.091l-0.1,-0.092l-0.1,-0.093l-0.098,-0.095l-0.098,-0.097l-0.116,-0.118l-0.116,-0.12l-0.113,-0.123l-0.111,-0.123l-0.109,-0.125l-0.108,-0.127l-0.105,-0.129l-0.103,-0.129l-0.101,-0.131l-0.099,-0.133l-0.097,-0.133l-0.095,-0.135l-0.092,-0.137l-0.091,-0.137l-0.088,-0.139l-0.087,-0.14l-0.084,-0.142l-0.082,-0.142l-0.079,-0.144l-0.078,-0.144l-0.075,-0.146l-0.074,-0.147l-0.071,-0.148l-0.068,-0.149l-0.067,-0.15l-0.064,-0.151l-0.048,-0.117l-0.046,-0.028l-0.111,-0.074l-0.107,-0.077l-0.105,-0.081l-0.101,-0.084l-0.099,-0.087l-0.095,-0.091l-0.092,-0.093l-0.088,-0.096l-0.085,-0.1l-0.081,-0.101l-0.078,-0.105l-0.074,-0.107l-0.07,-0.109l-0.066,-0.112l-0.063,-0.114l-0.059,-0.116l-0.054,-0.118l-0.051,-0.12l-0.047,-0.123l-0.042,-0.123l-0.039,-0.125l-0.034,-0.128l-0.03,-0.128l-0.025,-0.13l-0.021,-0.131l-0.016,-0.132l-0.012,-0.133l-0.007,-0.133l-0.002,-0.117l0,-0.033l0.001,-0.083l0.004,-0.096l0.006,-0.097l0.008,-0.095l0.01,-0.095l0.013,-0.094l0.016,-0.095l0.017,-0.093l0.02,-0.093l0.022,-0.092l0.024,-0.092l0.027,-0.091l0.028,-0.09l0.031,-0.09l0.033,-0.089l0.035,-0.088l0.038,-0.087l0.039,-0.086l0.041,-0.085l0.044,-0.084l0.046,-0.083l0.048,-0.082l0.049,-0.081l0.052,-0.08l0.054,-0.078l0.055,-0.077l0.059,-0.077l0.059,-0.074l0.062,-0.074l0.059,-0.067l0,-1.287l0.001,-0.187l0.004,-0.193l0.006,-0.192l0.008,-0.192l0.011,-0.191l0.014,-0.191l0.015,-0.19l0.018,-0.189l0.021,-0.189l0.022,-0.188l0.025,-0.187l0.028,-0.187l0.029,-0.186l0.032,-0.185l0.034,-0.184l0.037,-0.184l0.038,-0.183l0.041,-0.182l0.043,-0.181l0.045,-0.18l0.048,-0.18l0.049,-0.178l0.052,-0.178l0.054,-0.177l0.056,-0.176l0.058,-0.175l0.06,-0.174l0.062,-0.172l0.064,-0.172l0.066,-0.172l0.068,-0.17l0.071,-0.168l0.072,-0.168l0.074,-0.167l0.076,-0.166l0.078,-0.164l0.08,-0.164l0.082,-0.162l0.084,-0.161l0.086,-0.16l0.087,-0.159l0.09,-0.158l0.091,-0.156l0.093,-0.155l0.095,-0.155l0.096,-0.152l0.099,-0.152l0.1,-0.15l0.102,-0.149l0.103,-0.148l0.106,-0.146l0.107,-0.145l0.109,-0.144l0.11,-0.142l0.112,-0.141l0.114,-0.139l0.115,-0.138l0.117,-0.137l0.119,-0.135l0.12,-0.134l0.122,-0.132l0.123,-0.131l0.125,-0.13l0.126,-0.128l0.128,-0.126l0.13,-0.125l0.13,-0.123l0.133,-0.122l0.134,-0.12l0.135,-0.119l0.137,-0.117l0.138,-0.115l0.139,-0.114l0.141,-0.112l0.142,-0.11l0.144,-0.109l0.145,-0.107l0.146,-0.106l0.148,-0.103l0.149,-0.102l0.15,-0.1l0.152,-0.099l0.153,-0.096l0.153,-0.095l0.156,-0.093l0.156,-0.091l0.158,-0.09l0.159,-0.087l0.16,-0.086l0.161,-0.084l0.162,-0.082l0.164,-0.08l0.164,-0.078l0.166,-0.076l0.167,-0.074l0.168,-0.072l0.169,-0.071l0.17,-0.068l0.171,-0.066l0.172,-0.064l0.172,-0.062l0.174,-0.06l0.175,-0.058l0.176,-0.056l0.177,-0.054l0.178,-0.052l0.178,-0.049l0.18,-0.048l0.18,-0.045l0.181,-0.043l0.182,-0.041l0.183,-0.038l0.184,-0.037l0.184,-0.034l0.185,-0.032l0.186,-0.029l0.187,-0.028l0.187,-0.025l0.188,-0.022l0.189,-0.021l0.189,-0.018l0.19,-0.015l0.191,-0.014l0.191,-0.011l0.191,-0.008l0.193,-0.006l0.193,-0.004l0.193,-0.001l0.193,0.001Zm-0.336,4l-0.142,0.003l-0.142,0.004l-0.141,0.006l-0.14,0.008l-0.14,0.01l-0.14,0.012l-0.139,0.013l-0.139,0.015l-0.138,0.017l-0.137,0.018l-0.137,0.02l-0.136,0.022l-0.136,0.023l-0.134,0.025l-0.135,0.027l-0.134,0.028l-0.133,0.03l-0.133,0.031l-0.132,0.033l-0.131,0.035l-0.13,0.036l-0.131,0.038l-0.129,0.039l-0.128,0.041l-0.128,0.043l-0.128,0.043l-0.126,0.046l-0.126,0.047l-0.125,0.048l-0.124,0.05l-0.124,0.052l-0.123,0.053l-0.122,0.054l-0.121,0.056l-0.121,0.057l-0.12,0.058l-0.118,0.06l-0.119,0.062l-0.117,0.063l-0.116,0.064l-0.116,0.065l-0.115,0.067l-0.113,0.068l-0.113,0.07l-0.112,0.071l-0.111,0.072l-0.111,0.073l-0.109,0.075l-0.109,0.076l-0.107,0.078l-0.106,0.078l-0.106,0.08l-0.104,0.081l-0.104,0.083l-0.102,0.083l-0.102,0.085l-0.1,0.086l-0.1,0.087l-0.098,0.088l-0.097,0.09l-0.096,0.09l-0.095,0.092l-0.094,0.093l-0.093,0.094l-0.092,0.095l-0.09,0.096l-0.09,0.097l-0.088,0.099l-0.087,0.099l-0.086,0.1l-0.085,0.102l-0.083,0.102l-0.083,0.104l-0.081,0.104l-0.08,0.106l-0.078,0.106l-0.078,0.107l-0.076,0.109l-0.075,0.109l-0.073,0.11l-0.072,0.112l-0.071,0.112l-0.07,0.113l-0.068,0.113l-0.067,0.115l-0.065,0.116l-0.065,0.116l-0.062,0.117l-0.062,0.118l-0.06,0.119l-0.058,0.12l-0.057,0.121l-0.056,0.121l-0.054,0.122l-0.053,0.123l-0.052,0.124l-0.05,0.124l-0.048,0.125l-0.047,0.126l-0.045,0.126l-0.044,0.128l-0.043,0.127l-0.041,0.129l-0.039,0.13l-0.038,0.129l-0.036,0.131l-0.035,0.131l-0.033,0.132l-0.031,0.133l-0.03,0.133l-0.029,0.134l-0.026,0.134l-0.025,0.135l-0.023,0.136l-0.022,0.137l-0.02,0.136l-0.018,0.137l-0.017,0.138l-0.015,0.139l-0.013,0.139l-0.012,0.14l-0.01,0.14l-0.008,0.14l-0.006,0.141l-0.004,0.142l-0.003,0.142l-0.001,0.149l0,3.392l-0.822,0.455l0.884,0.442l0.295,0.911l0.033,0.099l0.036,0.098l0.036,0.098l0.038,0.097l0.04,0.097l0.041,0.096l0.042,0.096l0.044,0.094l0.045,0.094l0.046,0.094l0.048,0.093l0.05,0.092l0.051,0.091l0.052,0.091l0.053,0.09l0.055,0.089l0.056,0.088l0.058,0.088l0.059,0.087l0.06,0.086l0.062,0.085l0.063,0.084l0.064,0.083l0.066,0.083l0.067,0.081l0.068,0.081l0.069,0.08l0.071,0.079l0.072,0.077l0.074,0.077l0.075,0.077l0.061,0.06l0.063,0.06l0.063,0.06l0.064,0.058l0.065,0.058l0.064,0.057l0.066,0.056l0.067,0.055l0.067,0.054l0.068,0.053l0.068,0.053l0.068,0.051l0.07,0.051l0.07,0.05l0.07,0.049l0.072,0.048l0.071,0.047l0.072,0.046l0.073,0.046l0.073,0.044l0.074,0.043l0.074,0.043l0.075,0.042l0.075,0.04l0.075,0.04l0.077,0.039l0.076,0.038l0.077,0.037l0.077,0.036l0.078,0.035l0.079,0.034l0.078,0.033l0.079,0.032l0.08,0.032l0.08,0.03l0.08,0.029l0.08,0.028l0.081,0.028l0.082,0.026l0.081,0.025l0.082,0.025l0.082,0.023l0.083,0.023l0.083,0.021l0.083,0.02l0.083,0.02l0.084,0.018l0.084,0.017l0.084,0.017l0.085,0.015l0.084,0.014l0.085,0.013l0.085,0.012l0.086,0.012l0.085,0.01l0.086,0.009l0.086,0.008l0.086,0.007l0.086,0.006l0.087,0.004l0.086,0.004l0.087,0.003l0.087,0.001l0.093,0.001l7.988,0l0.093,-0.001l0.087,-0.001l0.087,-0.003l0.086,-0.004l0.087,-0.004l0.086,-0.006l0.086,-0.007l0.086,-0.008l0.086,-0.009l0.085,-0.01l0.086,-0.012l0.085,-0.012l0.085,-0.013l0.084,-0.014l0.085,-0.015l0.084,-0.017l0.084,-0.017l0.083,-0.018l0.084,-0.02l0.083,-0.02l0.083,-0.021l0.083,-0.023l0.082,-0.023l0.082,-0.025l0.081,-0.025l0.082,-0.026l0.081,-0.028l0.08,-0.028l0.08,-0.029l0.08,-0.03l0.08,-0.032l0.079,-0.032l0.078,-0.033l0.079,-0.034l0.078,-0.035l0.077,-0.036l0.077,-0.037l0.076,-0.038l0.077,-0.039l0.075,-0.04l0.075,-0.04l0.075,-0.042l0.074,-0.043l0.074,-0.043l0.073,-0.045l0.073,-0.045l0.072,-0.046l0.071,-0.047l0.072,-0.048l0.07,-0.049l0.07,-0.05l0.07,-0.051l0.068,-0.051l0.069,-0.053l0.067,-0.053l0.067,-0.054l0.067,-0.055l0.066,-0.056l0.064,-0.057l0.065,-0.058l0.064,-0.058l0.063,-0.06l0.063,-0.06l0.061,-0.06l0.075,-0.077l0.074,-0.077l0.072,-0.078l0.071,-0.078l0.069,-0.08l0.068,-0.081l0.067,-0.081l0.066,-0.083l0.064,-0.083l0.063,-0.084l0.062,-0.085l0.06,-0.086l0.059,-0.087l0.058,-0.088l0.056,-0.088l0.055,-0.089l0.053,-0.09l0.052,-0.091l0.051,-0.091l0.05,-0.092l0.048,-0.093l0.046,-0.094l0.045,-0.094l0.044,-0.094l0.042,-0.096l0.041,-0.096l0.04,-0.097l0.038,-0.097l0.036,-0.098l0.036,-0.098l0.033,-0.099l0.295,-0.911l0.884,-0.442l-0.822,-0.455l0,-3.392l-0.001,-0.149l-0.003,-0.142l-0.004,-0.142l-0.006,-0.141l-0.008,-0.14l-0.01,-0.14l-0.012,-0.14l-0.013,-0.139l-0.015,-0.139l-0.016,-0.137l-0.019,-0.138l-0.02,-0.137l-0.022,-0.136l-0.023,-0.136l-0.025,-0.135l-0.027,-0.134l-0.028,-0.134l-0.03,-0.133l-0.031,-0.133l-0.033,-0.132l-0.035,-0.131l-0.036,-0.131l-0.038,-0.129l-0.039,-0.13l-0.041,-0.129l-0.043,-0.127l-0.044,-0.128l-0.045,-0.126l-0.047,-0.126l-0.048,-0.125l-0.05,-0.124l-0.052,-0.124l-0.053,-0.123l-0.054,-0.122l-0.056,-0.121l-0.057,-0.121l-0.058,-0.12l-0.06,-0.119l-0.062,-0.118l-0.062,-0.117l-0.065,-0.116l-0.065,-0.116l-0.067,-0.115l-0.068,-0.113l-0.07,-0.113l-0.071,-0.112l-0.072,-0.112l-0.073,-0.11l-0.075,-0.109l-0.076,-0.109l-0.078,-0.107l-0.078,-0.106l-0.08,-0.106l-0.081,-0.104l-0.083,-0.104l-0.083,-0.102l-0.085,-0.102l-0.086,-0.1l-0.087,-0.099l-0.088,-0.099l-0.09,-0.097l-0.09,-0.096l-0.092,-0.095l-0.093,-0.094l-0.094,-0.093l-0.095,-0.092l-0.096,-0.09l-0.097,-0.09l-0.098,-0.088l-0.1,-0.087l-0.1,-0.086l-0.102,-0.085l-0.102,-0.083l-0.104,-0.083l-0.104,-0.081l-0.106,-0.08l-0.106,-0.078l-0.108,-0.078l-0.108,-0.076l-0.109,-0.075l-0.11,-0.073l-0.112,-0.072l-0.112,-0.071l-0.113,-0.07l-0.113,-0.068l-0.115,-0.067l-0.116,-0.065l-0.116,-0.065l-0.117,-0.062l-0.119,-0.062l-0.118,-0.06l-0.12,-0.058l-0.121,-0.057l-0.121,-0.056l-0.122,-0.054l-0.123,-0.053l-0.124,-0.052l-0.124,-0.05l-0.125,-0.048l-0.126,-0.047l-0.126,-0.046l-0.128,-0.043l-0.128,-0.043l-0.128,-0.041l-0.13,-0.039l-0.13,-0.038l-0.13,-0.036l-0.131,-0.035l-0.132,-0.033l-0.133,-0.031l-0.133,-0.03l-0.134,-0.028l-0.135,-0.027l-0.134,-0.025l-0.136,-0.023l-0.136,-0.022l-0.137,-0.02l-0.137,-0.018l-0.138,-0.017l-0.139,-0.015l-0.139,-0.013l-0.139,-0.012l-0.141,-0.01l-0.14,-0.008l-0.141,-0.006l-0.142,-0.004l-0.142,-0.003l-0.143,-0.001l-0.143,0.001Z"/></g><g id="emoji"><path d="M29,16c0,-7.18 -5.82,-13 -13,-13c0,0 0,0 0,0c-7.18,0 -13,5.82 -13,13c0,1.013 0,2.022 0,3c0,2.387 0.948,4.676 2.636,6.364c1.688,1.688 3.977,2.636 6.364,2.636c2.589,0 5.411,0 8,0c2.387,0 4.676,-0.948 6.364,-2.636c1.688,-1.688 2.636,-3.977 2.636,-6.364c0,-0.978 0,-1.987 0,-3Z" style="fill:#fb4646;"/><path d="M24.034,7.501l0.046,0.002l0.045,0.005l0.045,0.007l0.045,0.008l0.044,0.011l0.044,0.013l0.043,0.015l0.042,0.016l0.041,0.019l0.041,0.02l0.04,0.023l0.038,0.024l0.038,0.026l0.036,0.027l0.035,0.029l0.034,0.031l0.032,0.032l0.031,0.034l0.029,0.035l0.027,0.036l0.026,0.038l0.024,0.038l0.023,0.04l0.02,0.041l0.019,0.041l0.016,0.042l0.015,0.043l0.013,0.044l0.011,0.044l0.008,0.045l0.007,0.045l0.005,0.045l0.002,0.046l0.001,0.045l-0.002,0.046l-0.003,0.045l-0.006,0.045l-0.008,0.045l-0.009,0.045l-0.012,0.044l-0.014,0.043l-0.016,0.043l-0.017,0.042l-0.02,0.041l-0.021,0.04l-0.024,0.039l-0.025,0.038l-0.026,0.037l-0.029,0.036l-0.029,0.034l-0.032,0.033l-2.856,2.856l2.465,0.822l0.043,0.015l0.042,0.017l0.041,0.02l0.041,0.021l0.039,0.022l0.038,0.025l0.038,0.027l0.035,0.028l0.035,0.029l0.033,0.031l0.032,0.033l0.03,0.034l0.029,0.035l0.027,0.037l0.025,0.038l0.024,0.039l0.021,0.04l0.02,0.041l0.018,0.042l0.016,0.042l0.014,0.044l0.013,0.043l0.01,0.045l0.008,0.045l0.006,0.045l0.004,0.045l0.002,0.046l0,0.045l-0.003,0.046l-0.004,0.045l-0.006,0.045l-0.009,0.045l-0.01,0.044l-0.012,0.044l-0.015,0.043l-0.016,0.043l-0.018,0.041l-0.021,0.041l-0.021,0.04l-0.024,0.039l-0.026,0.037l-0.027,0.037l-0.029,0.035l-0.03,0.034l-0.032,0.033l-0.034,0.031l-0.034,0.029l-0.036,0.028l-0.038,0.026l-0.038,0.024l-0.04,0.023l-0.04,0.021l-0.041,0.019l-0.043,0.017l-0.043,0.015l-0.043,0.013l-0.044,0.011l-0.045,0.009l-0.045,0.007l-0.045,0.005l-0.046,0.003l-0.045,0.001l-0.046,-0.001l-0.045,-0.003l-0.045,-0.005l-0.045,-0.008l-0.045,-0.009l-0.044,-0.012l-0.043,-0.013l-5.087,-1.695l-0.114,-0.484l4.81,-4.81l0.033,-0.032l0.034,-0.029l0.036,-0.029l0.037,-0.026l0.038,-0.025l0.039,-0.024l0.04,-0.021l0.041,-0.02l0.042,-0.017l0.043,-0.016l0.043,-0.014l0.044,-0.012l0.045,-0.009l0.045,-0.008l0.045,-0.006l0.045,-0.003l0.046,-0.002l0.045,0.001Z"/><path d="M8.057,7.502l0.045,0.003l0.045,0.006l0.045,0.008l0.045,0.009l0.044,0.012l0.043,0.014l0.043,0.016l0.042,0.017l0.041,0.02l0.04,0.021l0.039,0.024l0.038,0.025l0.037,0.026l0.036,0.029l0.034,0.029l0.033,0.032l4.81,4.81l-0.114,0.484l-5.087,1.695l-0.043,0.013l-0.044,0.012l-0.045,0.009l-0.045,0.008l-0.045,0.005l-0.045,0.003l-0.046,0.001l-0.045,-0.001l-0.046,-0.003l-0.045,-0.005l-0.045,-0.007l-0.045,-0.009l-0.044,-0.011l-0.043,-0.013l-0.043,-0.015l-0.043,-0.017l-0.041,-0.019l-0.04,-0.021l-0.04,-0.023l-0.038,-0.024l-0.038,-0.026l-0.036,-0.028l-0.034,-0.029l-0.034,-0.031l-0.032,-0.033l-0.03,-0.034l-0.029,-0.035l-0.027,-0.037l-0.026,-0.037l-0.024,-0.039l-0.021,-0.04l-0.021,-0.041l-0.018,-0.041l-0.016,-0.043l-0.015,-0.043l-0.012,-0.044l-0.01,-0.044l-0.009,-0.045l-0.006,-0.045l-0.004,-0.045l-0.003,-0.046l0,-0.045l0.002,-0.046l0.004,-0.045l0.006,-0.045l0.008,-0.045l0.01,-0.045l0.013,-0.043l0.014,-0.044l0.016,-0.042l0.018,-0.042l0.02,-0.041l0.021,-0.04l0.024,-0.039l0.025,-0.038l0.027,-0.037l0.029,-0.035l0.03,-0.034l0.032,-0.033l0.033,-0.031l0.035,-0.029l0.035,-0.028l0.038,-0.027l0.038,-0.025l0.039,-0.022l0.041,-0.021l0.041,-0.02l0.042,-0.017l0.043,-0.015l2.465,-0.822l-2.856,-2.856l-0.032,-0.033l-0.029,-0.034l-0.029,-0.036l-0.026,-0.037l-0.025,-0.038l-0.024,-0.039l-0.021,-0.04l-0.02,-0.041l-0.017,-0.042l-0.016,-0.043l-0.014,-0.043l-0.012,-0.044l-0.009,-0.045l-0.008,-0.045l-0.006,-0.045l-0.003,-0.045l-0.002,-0.046l0.001,-0.045l0.002,-0.046l0.005,-0.045l0.007,-0.045l0.008,-0.045l0.011,-0.044l0.013,-0.044l0.015,-0.043l0.016,-0.042l0.019,-0.041l0.02,-0.041l0.023,-0.04l0.024,-0.038l0.026,-0.038l0.027,-0.036l0.029,-0.035l0.031,-0.034l0.032,-0.032l0.034,-0.031l0.035,-0.029l0.036,-0.027l0.038,-0.026l0.038,-0.024l0.04,-0.023l0.041,-0.02l0.041,-0.019l0.042,-0.016l0.043,-0.015l0.044,-0.013l0.044,-0.011l0.045,-0.008l0.045,-0.007l0.045,-0.005l0.046,-0.002l0.045,-0.001l0.046,0.002Z"/><path d="M16.288,15.501l0.097,0.002l0.097,0.003l0.097,0.005l0.097,0.006l0.096,0.008l0.096,0.009l0.096,0.01l0.096,0.011l0.095,0.013l0.095,0.014l0.095,0.016l0.094,0.017l0.094,0.018l0.094,0.019l0.093,0.021l0.093,0.022l0.093,0.023l0.092,0.025l0.092,0.026l0.092,0.027l0.091,0.028l0.09,0.03l0.09,0.031l0.09,0.032l0.089,0.033l0.089,0.035l0.088,0.035l0.087,0.037l0.087,0.039l0.087,0.039l0.086,0.041l0.085,0.041l0.085,0.043l0.084,0.044l0.084,0.046l0.083,0.046l0.082,0.048l0.082,0.049l0.081,0.05l0.08,0.051l0.08,0.052l0.079,0.053l0.078,0.055l0.078,0.055l0.077,0.057l0.076,0.058l0.075,0.059l0.075,0.06l0.073,0.061l0.073,0.062l0.072,0.063l0.072,0.064l0.07,0.066l0.07,0.066l0.069,0.068l0.067,0.068l0.067,0.07l0.067,0.07l0.065,0.072l0.064,0.072l0.063,0.074l0.063,0.075l0.059,0.072l2.247,2.809l0.044,0.06l0.04,0.064l0.035,0.066l0.03,0.068l0.025,0.071l0.02,0.072l0.014,0.073l0.008,0.075l0.003,0.074l-0.003,0.075l-0.008,0.075l-0.014,0.073l-0.019,0.072l-0.025,0.071l-0.029,0.068l-0.035,0.067l-0.04,0.063l-0.044,0.06l-0.049,0.057l-0.053,0.053l-0.056,0.049l-0.06,0.044l-0.064,0.04l-0.066,0.035l-0.068,0.03l-0.071,0.025l-0.072,0.02l-0.073,0.014l-0.075,0.008l-0.074,0.003l-0.075,-0.003l-0.075,-0.008l-0.073,-0.014l-0.072,-0.019l-0.071,-0.025l-0.069,-0.029l-0.066,-0.035l-0.063,-0.04l-0.06,-0.044l-0.057,-0.049l-0.053,-0.053l-0.049,-0.056l-2.243,-2.804l-0.045,-0.056l-0.044,-0.053l-0.045,-0.052l-0.046,-0.051l-0.046,-0.051l-0.047,-0.05l-0.047,-0.049l-0.048,-0.049l-0.049,-0.047l-0.049,-0.047l-0.05,-0.047l-0.05,-0.045l-0.051,-0.045l-0.052,-0.044l-0.052,-0.043l-0.053,-0.042l-0.053,-0.042l-0.054,-0.041l-0.054,-0.04l-0.055,-0.04l-0.056,-0.038l-0.056,-0.038l-0.056,-0.037l-0.057,-0.036l-0.057,-0.035l-0.058,-0.035l-0.058,-0.034l-0.059,-0.032l-0.059,-0.032l-0.06,-0.032l-0.06,-0.03l-0.06,-0.03l-0.061,-0.028l-0.062,-0.028l-0.061,-0.027l-0.062,-0.027l-0.063,-0.025l-0.062,-0.024l-0.063,-0.024l-0.064,-0.023l-0.064,-0.022l-0.064,-0.02l-0.064,-0.021l-0.065,-0.019l-0.065,-0.018l-0.065,-0.017l-0.066,-0.017l-0.066,-0.015l-0.066,-0.015l-0.066,-0.014l-0.067,-0.013l-0.066,-0.012l-0.067,-0.011l-0.068,-0.01l-0.067,-0.009l-0.068,-0.008l-0.068,-0.007l-0.068,-0.006l-0.068,-0.006l-0.068,-0.004l-0.069,-0.004l-0.069,-0.002l-0.068,-0.001l-0.073,-0.001l-0.374,0l-0.073,0.001l-0.068,0.001l-0.069,0.002l-0.069,0.004l-0.068,0.004l-0.068,0.006l-0.068,0.006l-0.068,0.007l-0.068,0.008l-0.067,0.009l-0.068,0.01l-0.067,0.011l-0.066,0.012l-0.067,0.013l-0.066,0.014l-0.066,0.015l-0.066,0.015l-0.066,0.017l-0.065,0.017l-0.065,0.018l-0.065,0.019l-0.064,0.021l-0.064,0.02l-0.064,0.022l-0.064,0.023l-0.063,0.024l-0.062,0.024l-0.063,0.025l-0.062,0.027l-0.061,0.027l-0.062,0.028l-0.061,0.028l-0.06,0.03l-0.06,0.03l-0.06,0.032l-0.059,0.032l-0.059,0.032l-0.058,0.034l-0.058,0.035l-0.057,0.035l-0.057,0.036l-0.056,0.037l-0.056,0.038l-0.056,0.039l-0.055,0.039l-0.054,0.04l-0.054,0.041l-0.053,0.042l-0.053,0.042l-0.052,0.043l-0.052,0.044l-0.051,0.045l-0.05,0.045l-0.05,0.047l-0.049,0.047l-0.049,0.047l-0.048,0.049l-0.047,0.049l-0.047,0.05l-0.046,0.05l-0.046,0.052l-0.045,0.052l-0.044,0.053l-0.045,0.056l-2.243,2.804l-0.049,0.056l-0.053,0.053l-0.057,0.049l-0.06,0.044l-0.063,0.04l-0.067,0.035l-0.068,0.029l-0.071,0.025l-0.072,0.019l-0.074,0.014l-0.074,0.008l-0.075,0.003l-0.074,-0.003l-0.075,-0.008l-0.073,-0.014l-0.072,-0.02l-0.071,-0.025l-0.068,-0.03l-0.066,-0.035l-0.064,-0.04l-0.06,-0.044l-0.056,-0.049l-0.053,-0.053l-0.049,-0.057l-0.044,-0.06l-0.04,-0.063l-0.035,-0.067l-0.029,-0.068l-0.025,-0.071l-0.019,-0.072l-0.014,-0.073l-0.008,-0.075l-0.003,-0.075l0.003,-0.074l0.008,-0.075l0.014,-0.073l0.02,-0.072l0.025,-0.071l0.03,-0.068l0.035,-0.066l0.04,-0.064l0.044,-0.06l2.247,-2.809l0.059,-0.073l0.063,-0.074l0.063,-0.074l0.064,-0.072l0.066,-0.072l0.066,-0.07l0.067,-0.07l0.067,-0.069l0.069,-0.067l0.07,-0.066l0.07,-0.066l0.072,-0.064l0.072,-0.063l0.073,-0.062l0.073,-0.061l0.075,-0.06l0.075,-0.059l0.076,-0.058l0.077,-0.057l0.078,-0.055l0.078,-0.055l0.079,-0.053l0.08,-0.052l0.08,-0.051l0.081,-0.05l0.082,-0.049l0.082,-0.048l0.083,-0.046l0.084,-0.046l0.084,-0.044l0.085,-0.043l0.085,-0.041l0.086,-0.041l0.087,-0.039l0.087,-0.039l0.087,-0.037l0.088,-0.035l0.089,-0.035l0.089,-0.033l0.09,-0.032l0.09,-0.031l0.09,-0.03l0.091,-0.028l0.092,-0.027l0.092,-0.026l0.092,-0.025l0.093,-0.023l0.093,-0.022l0.093,-0.021l0.094,-0.019l0.094,-0.018l0.094,-0.017l0.095,-0.016l0.095,-0.014l0.095,-0.013l0.096,-0.011l0.096,-0.01l0.096,-0.009l0.096,-0.008l0.097,-0.006l0.097,-0.005l0.097,-0.003l0.097,-0.002l0.094,-0.001l0.388,0l0.094,0.001Z" style="fill:#5b1010;"/><path d="M21,15l6,3c0,0 0.515,0 1.118,0c0.499,0 0.978,0.198 1.331,0.551c0.353,0.353 0.551,0.832 0.551,1.331c0,0.001 0,0.001 0,0.002c0,0.684 -0.386,1.309 -0.998,1.615c-0.501,0.25 -1.002,0.501 -1.002,0.501c0,0 -0.251,0.501 -0.501,1.002c-0.306,0.612 -0.931,0.998 -1.615,0.998c-0.001,0 -0.001,0 -0.002,0c-0.499,0 -0.978,-0.198 -1.331,-0.551c-0.353,-0.353 -0.551,-0.832 -0.551,-1.331c0,-1.038 0,-2.118 0,-2.118l-3,-5Z" style="fill:#fff;"/><path d="M11,15l-6,3c0,0 -0.515,0 -1.118,0c-0.499,0 -0.978,0.198 -1.331,0.551c-0.353,0.353 -0.551,0.832 -0.551,1.331c0,0.001 0,0.001 0,0.002c0,0.684 0.386,1.309 0.998,1.615c0.501,0.25 1.002,0.501 1.002,0.501c0,0 0.251,0.501 0.501,1.002c0.306,0.612 0.931,0.998 1.615,0.998c0.001,0 0.001,0 0.002,0c0.499,0 0.978,-0.198 1.331,-0.551c0.353,-0.353 0.551,-0.832 0.551,-1.331c0,-1.038 0,-2.118 0,-2.118l3,-5Z" style="fill:#fff;"/></g></g></svg>