<?xml version="1.0" encoding="UTF-8" standalone="no"?><!DOCTYPE svg PUBLIC "-//W3C//DTD SVG 1.1//EN" "http://www.w3.org/Graphics/SVG/1.1/DTD/svg11.dtd"><svg width="100%" height="100%" viewBox="0 0 32 32" version="1.1" xmlns="http://www.w3.org/2000/svg" xmlns:xlink="http://www.w3.org/1999/xlink" xml:space="preserve" xmlns:serif="http://www.serif.com/" style="fill-rule:evenodd;clip-rule:evenodd;stroke-linecap:round;stroke-linejoin:round;stroke-miterlimit:1.5;"><rect id="bandaged" x="0" y="0" width="32" height="32" style="fill:none;"/><clipPath id="_clip1"><rect x="0" y="0" width="32" height="32"/></clipPath><g clip-path="url(#_clip1)"><g id="outline"><path d="M16,1c4.243,0 8.313,1.686 11.314,4.686c3,3.001 4.686,7.071 4.686,11.314c0,0.671 0,1.339 0,2c0,7.18 -5.82,13 -13,13c-1.972,0 -4.028,0 -6,0c-7.18,0 -13,-5.82 -13,-13l0,-2c0,-8.837 7.163,-16 16,-16l0,0Z"/></g><g id="emoji"><path d="M25.523,6.738c0.128,0.118 0.253,0.239 0.376,0.363c2.626,2.625 4.101,6.186 4.101,9.899c0,0.671 0,1.339 0,2c0,6.075 -4.925,11 -11,11c-1.972,0 -4.028,0 -6,0c-6.075,0 -11,-4.925 -11,-11l0,-0.5l1,-1.5l21,-11l1.523,0.738Zm-10.087,-3.727l-0.436,0.989l-9,4.156l-0.853,0c2.456,-3.011 6.141,-4.98 10.289,-5.145Z" style="fill:#fbc546;"/><g><path d="M21.273,11.137c-0.255,0.099 2.702,1.5 2.654,1.326l2.073,1.037l0,2.002c0,0.928 -0.369,1.817 -1.025,2.473c-0.656,0.656 -1.545,1.025 -2.473,1.025l-0.002,0c-1.933,0 -3.5,-1.567 -3.5,-3.5c0,-0.657 0,-1.345 0,-2.002c0,-0.928 0.369,-1.817 1.025,-2.473c0.117,-0.118 0.243,-0.227 0.374,-0.325l0.874,0.437Z" style="fill:#fff;"/><path d="M21.273,11.137l2.654,1.326c0.048,0.174 0.073,0.354 0.073,0.537c0,0.936 0,2.048 0,2.983c0,0.531 -0.211,1.039 -0.586,1.415c-0.375,0.375 -0.884,0.585 -1.414,0.585c-0.53,0 -1.039,-0.21 -1.414,-0.585c-0.375,-0.376 -0.586,-0.884 -0.586,-1.415c0,-0.935 0,-2.047 0,-2.983c0,-0.53 0.211,-1.039 0.586,-1.414c0.197,-0.198 0.432,-0.35 0.687,-0.449Z"/></g><g><path d="M10.727,11.137c0.255,0.099 -2.702,1.5 -2.654,1.326l-2.073,1.037l0,2.002c0,0.928 0.369,1.817 1.025,2.473c0.656,0.656 1.545,1.025 2.473,1.025l0.002,0c1.933,0 3.5,-1.567 3.5,-3.5c0,-0.657 0,-1.345 0,-2.002c0,-0.928 -0.369,-1.817 -1.025,-2.473c-0.117,-0.118 -0.243,-0.227 -0.374,-0.325l-0.874,0.437Z" style="fill:#fff;"/><path d="M10.727,11.137l-2.654,1.326c-0.048,0.174 -0.073,0.354 -0.073,0.537c0,0.936 0,2.048 0,2.983c0,0.531 0.211,1.039 0.586,1.415c0.375,0.375 0.884,0.585 1.414,0.585c0.53,0 1.039,-0.21 1.414,-0.585c0.375,-0.376 0.586,-0.884 0.586,-1.415c0,-0.935 0,-2.047 0,-2.983c0,-0.53 -0.211,-1.039 -0.586,-1.414c-0.197,-0.198 -0.432,-0.35 -0.687,-0.449Z"/></g><g><path d="M15.436,3.011c0.187,-0.007 0.375,-0.011 0.564,-0.011l0,0c2.705,0 5.33,0.783 7.571,2.224l0,0.776l-20.571,11l-0.99,-0.527c0.116,-3.149 1.273,-6.033 3.137,-8.317l10.289,-5.145Z" style="fill:#fff;"/><path d="M2,18.5l0,-1.5c0,-0.176 0.003,-0.352 0.01,-0.527l21.561,-11.249c0.69,0.443 1.344,0.949 1.952,1.514l-23.523,11.762Z" style="fill:#b0b0b0;"/></g><path d="M10,25c0,0 0.422,-0.422 0.95,-0.95c1.313,-1.313 3.093,-2.05 4.95,-2.05c2.63,0 6.1,0 6.1,0" style="fill:none;stroke:#593604;stroke-width:2px;"/></g></g></svg>