<?xml version="1.0" encoding="UTF-8" standalone="no"?><!DOCTYPE svg PUBLIC "-//W3C//DTD SVG 1.1//EN" "http://www.w3.org/Graphics/SVG/1.1/DTD/svg11.dtd"><svg width="100%" height="100%" viewBox="0 0 32 32" version="1.1" xmlns="http://www.w3.org/2000/svg" xmlns:xlink="http://www.w3.org/1999/xlink" xml:space="preserve" xmlns:serif="http://www.serif.com/" style="fill-rule:evenodd;clip-rule:evenodd;stroke-linejoin:round;stroke-miterlimit:1.41421;"><rect id="nauseous" x="0" y="0" width="32" height="32" style="fill:none;"/><clipPath id="_clip1"><rect x="0" y="0" width="32" height="32"/></clipPath><g clip-path="url(#_clip1)"><g id="outline"><path d="M16.206,1.001l0.206,0.004l0.205,0.007l0.205,0.009l0.204,0.011l0.203,0.015l0.203,0.016l0.201,0.019l0.202,0.022l0.2,0.024l0.2,0.027l0.199,0.029l0.198,0.032l0.198,0.034l0.197,0.036l0.195,0.039l0.195,0.041l0.195,0.044l0.193,0.046l0.192,0.048l0.192,0.05l0.19,0.053l0.19,0.055l0.188,0.058l0.188,0.059l0.186,0.062l0.186,0.064l0.184,0.066l0.184,0.069l0.182,0.07l0.181,0.073l0.181,0.075l0.179,0.077l0.177,0.079l0.177,0.082l0.176,0.083l0.174,0.085l0.173,0.087l0.172,0.09l0.171,0.091l0.169,0.094l0.169,0.095l0.166,0.097l0.166,0.1l0.164,0.101l0.163,0.103l0.162,0.105l0.16,0.107l0.159,0.108l0.158,0.111l0.156,0.112l0.154,0.115l0.153,0.116l0.152,0.117l0.151,0.12l0.148,0.121l0.148,0.123l0.145,0.125l0.145,0.127l0.142,0.128l0.142,0.13l0.139,0.131l0.138,0.133l0.137,0.135l0.135,0.137l0.133,0.138l0.131,0.139l0.13,0.142l0.128,0.142l0.127,0.145l0.125,0.145l0.123,0.148l0.121,0.148l0.12,0.151l0.117,0.152l0.116,0.153l0.115,0.154l0.112,0.156l0.111,0.158l0.108,0.159l0.107,0.16l0.105,0.162l0.103,0.163l0.101,0.164l0.1,0.166l0.097,0.166l0.095,0.169l0.094,0.169l0.091,0.171l0.09,0.172l0.087,0.173l0.085,0.174l0.084,0.176l0.081,0.177l0.079,0.177l0.077,0.179l0.075,0.181l0.073,0.181l0.07,0.182l0.069,0.184l0.066,0.184l0.064,0.186l0.062,0.186l0.059,0.188l0.058,0.188l0.055,0.19l0.053,0.19l0.05,0.192l0.048,0.192l0.046,0.193l0.044,0.195l0.041,0.195l0.039,0.195l0.036,0.197l0.034,0.198l0.032,0.198l0.029,0.199l0.027,0.2l0.024,0.2l0.022,0.201l0.019,0.202l0.016,0.203l0.015,0.203l0.011,0.204l0.009,0.205l0.007,0.205l0.004,0.206l0.001,0.2l0,0.012l-0.001,0.174l-0.004,0.18l-0.005,0.18l-0.008,0.179l-0.01,0.178l-0.013,0.178l-0.014,0.177l-0.017,0.177l-0.019,0.176l-0.021,0.176l-0.024,0.174l-0.025,0.175l-0.028,0.173l-0.03,0.173l-0.031,0.172l-0.034,0.171l-0.036,0.171l-0.038,0.17l-0.041,0.169l-0.042,0.168l-0.044,0.168l-0.046,0.167l-0.048,0.165l-0.051,0.165l-0.052,0.165l-0.054,0.163l-0.056,0.162l-0.058,0.162l-0.06,0.16l-0.062,0.16l-0.063,0.158l-0.066,0.158l-0.067,0.157l-0.07,0.155l-0.071,0.155l-0.073,0.154l-0.074,0.152l-0.077,0.152l-0.078,0.15l-0.08,0.15l-0.082,0.148l-0.083,0.147l-0.085,0.146l-0.087,0.145l-0.089,0.144l-0.09,0.142l-0.092,0.142l-0.093,0.14l-0.095,0.139l-0.097,0.138l-0.098,0.136l-0.1,0.136l-0.102,0.134l-0.103,0.132l-0.104,0.132l-0.107,0.13l-0.107,0.129l-0.109,0.128l-0.111,0.126l-0.112,0.125l-0.114,0.123l-0.115,0.122l-0.117,0.121l-0.117,0.12l-0.12,0.117l-0.121,0.117l-0.122,0.115l-0.123,0.114l-0.125,0.112l-0.126,0.11l-0.128,0.11l-0.129,0.107l-0.13,0.106l-0.132,0.105l-0.132,0.103l-0.134,0.102l-0.136,0.1l-0.136,0.098l-0.138,0.097l-0.139,0.095l-0.14,0.093l-0.142,0.092l-0.142,0.09l-0.144,0.089l-0.145,0.087l-0.146,0.085l-0.147,0.083l-0.148,0.082l-0.15,0.08l-0.15,0.078l-0.152,0.077l-0.152,0.074l-0.154,0.073l-0.155,0.071l-0.155,0.07l-0.157,0.067l-0.158,0.066l-0.158,0.063l-0.16,0.062l-0.16,0.06l-0.162,0.058l-0.162,0.056l-0.163,0.054l-0.165,0.052l-0.165,0.05l-0.165,0.049l-0.167,0.046l-0.168,0.044l-0.168,0.042l-0.169,0.041l-0.17,0.038l-0.171,0.036l-0.171,0.034l-0.172,0.031l-0.173,0.03l-0.173,0.028l-0.175,0.025l-0.174,0.024l-0.176,0.021l-0.176,0.019l-0.177,0.017l-0.177,0.014l-0.178,0.013l-0.178,0.01l-0.179,0.008l-0.18,0.005l-0.18,0.004l-0.174,0.001l-4.012,0l-0.174,-0.001l-0.18,-0.004l-0.18,-0.005l-0.179,-0.008l-0.178,-0.01l-0.178,-0.013l-0.177,-0.014l-0.177,-0.017l-0.176,-0.019l-0.176,-0.021l-0.174,-0.024l-0.175,-0.025l-0.173,-0.028l-0.173,-0.03l-0.172,-0.031l-0.171,-0.034l-0.171,-0.036l-0.17,-0.038l-0.169,-0.041l-0.168,-0.042l-0.168,-0.044l-0.167,-0.046l-0.165,-0.049l-0.165,-0.05l-0.165,-0.052l-0.163,-0.054l-0.162,-0.056l-0.162,-0.058l-0.16,-0.06l-0.16,-0.062l-0.158,-0.063l-0.158,-0.066l-0.157,-0.067l-0.155,-0.07l-0.155,-0.071l-0.154,-0.073l-0.152,-0.074l-0.152,-0.077l-0.15,-0.078l-0.15,-0.08l-0.148,-0.082l-0.147,-0.083l-0.146,-0.085l-0.145,-0.087l-0.144,-0.089l-0.142,-0.09l-0.142,-0.092l-0.14,-0.093l-0.139,-0.095l-0.138,-0.097l-0.136,-0.098l-0.136,-0.1l-0.134,-0.102l-0.133,-0.103l-0.131,-0.105l-0.13,-0.106l-0.129,-0.107l-0.128,-0.11l-0.126,-0.11l-0.125,-0.112l-0.123,-0.114l-0.122,-0.115l-0.121,-0.117l-0.12,-0.117l-0.117,-0.12l-0.117,-0.121l-0.115,-0.122l-0.114,-0.123l-0.112,-0.125l-0.111,-0.126l-0.109,-0.128l-0.107,-0.129l-0.107,-0.13l-0.104,-0.132l-0.103,-0.132l-0.102,-0.134l-0.1,-0.136l-0.098,-0.136l-0.097,-0.138l-0.095,-0.139l-0.093,-0.14l-0.092,-0.142l-0.09,-0.142l-0.089,-0.144l-0.087,-0.145l-0.085,-0.146l-0.083,-0.147l-0.082,-0.148l-0.08,-0.15l-0.078,-0.15l-0.077,-0.152l-0.074,-0.152l-0.073,-0.154l-0.071,-0.155l-0.07,-0.155l-0.067,-0.157l-0.066,-0.158l-0.063,-0.158l-0.062,-0.16l-0.06,-0.16l-0.058,-0.162l-0.056,-0.162l-0.054,-0.163l-0.052,-0.165l-0.05,-0.165l-0.049,-0.165l-0.046,-0.167l-0.044,-0.168l-0.042,-0.168l-0.041,-0.169l-0.038,-0.17l-0.036,-0.171l-0.034,-0.171l-0.031,-0.172l-0.03,-0.173l-0.028,-0.173l-0.025,-0.175l-0.024,-0.174l-0.021,-0.176l-0.019,-0.176l-0.017,-0.177l-0.014,-0.177l-0.013,-0.178l-0.01,-0.178l-0.008,-0.179l-0.005,-0.18l-0.004,-0.18l-0.001,-0.174l0,-0.012l0.001,-0.2l0.004,-0.206l0.007,-0.205l0.009,-0.205l0.011,-0.204l0.015,-0.203l0.016,-0.203l0.019,-0.201l0.022,-0.202l0.024,-0.2l0.027,-0.2l0.029,-0.199l0.032,-0.198l0.034,-0.198l0.036,-0.197l0.039,-0.195l0.041,-0.195l0.044,-0.195l0.046,-0.193l0.048,-0.192l0.05,-0.192l0.053,-0.19l0.055,-0.19l0.058,-0.188l0.059,-0.188l0.062,-0.186l0.064,-0.186l0.066,-0.184l0.069,-0.184l0.07,-0.182l0.073,-0.181l0.075,-0.181l0.077,-0.179l0.079,-0.177l0.081,-0.177l0.084,-0.176l0.085,-0.174l0.087,-0.173l0.09,-0.172l0.091,-0.171l0.094,-0.169l0.095,-0.169l0.097,-0.166l0.1,-0.166l0.101,-0.164l0.103,-0.163l0.105,-0.162l0.107,-0.16l0.108,-0.159l0.111,-0.158l0.112,-0.156l0.115,-0.154l0.116,-0.153l0.117,-0.152l0.12,-0.151l0.121,-0.148l0.123,-0.148l0.125,-0.145l0.127,-0.145l0.128,-0.143l0.13,-0.141l0.131,-0.139l0.133,-0.138l0.135,-0.137l0.137,-0.135l0.138,-0.133l0.139,-0.131l0.141,-0.13l0.143,-0.128l0.145,-0.127l0.145,-0.125l0.148,-0.123l0.148,-0.121l0.151,-0.12l0.152,-0.117l0.153,-0.116l0.154,-0.115l0.156,-0.112l0.158,-0.111l0.159,-0.108l0.16,-0.107l0.162,-0.105l0.163,-0.103l0.164,-0.101l0.166,-0.1l0.166,-0.097l0.169,-0.095l0.169,-0.094l0.171,-0.091l0.172,-0.09l0.173,-0.087l0.174,-0.085l0.176,-0.083l0.177,-0.082l0.177,-0.079l0.179,-0.077l0.181,-0.075l0.181,-0.073l0.182,-0.07l0.184,-0.069l0.184,-0.066l0.186,-0.064l0.186,-0.062l0.188,-0.059l0.188,-0.058l0.19,-0.055l0.19,-0.053l0.192,-0.05l0.192,-0.048l0.193,-0.046l0.195,-0.044l0.195,-0.041l0.195,-0.039l0.197,-0.036l0.198,-0.034l0.198,-0.032l0.199,-0.029l0.2,-0.027l0.2,-0.024l0.202,-0.022l0.201,-0.019l0.203,-0.016l0.203,-0.015l0.204,-0.011l0.205,-0.009l0.205,-0.007l0.206,-0.004l0.2,-0.001l0.012,0l0.2,0.001Zm-0.362,4l-0.155,0.003l-0.154,0.005l-0.154,0.007l-0.154,0.008l-0.152,0.011l-0.153,0.013l-0.151,0.014l-0.151,0.016l-0.151,0.019l-0.15,0.02l-0.149,0.021l-0.149,0.024l-0.148,0.026l-0.147,0.027l-0.147,0.029l-0.146,0.031l-0.145,0.032l-0.145,0.035l-0.143,0.036l-0.144,0.038l-0.142,0.039l-0.142,0.041l-0.141,0.043l-0.141,0.045l-0.139,0.046l-0.139,0.048l-0.138,0.05l-0.137,0.051l-0.137,0.053l-0.135,0.054l-0.135,0.056l-0.134,0.058l-0.134,0.059l-0.132,0.061l-0.131,0.062l-0.131,0.064l-0.13,0.066l-0.129,0.067l-0.128,0.068l-0.127,0.07l-0.126,0.072l-0.125,0.073l-0.124,0.074l-0.123,0.076l-0.122,0.077l-0.122,0.079l-0.12,0.08l-0.119,0.082l-0.118,0.083l-0.117,0.084l-0.117,0.086l-0.115,0.087l-0.114,0.089l-0.112,0.089l-0.112,0.092l-0.111,0.092l-0.109,0.094l-0.109,0.095l-0.107,0.096l-0.106,0.098l-0.105,0.098l-0.104,0.1l-0.102,0.102l-0.102,0.102l-0.1,0.104l-0.098,0.105l-0.098,0.106l-0.096,0.107l-0.095,0.109l-0.094,0.109l-0.092,0.111l-0.092,0.112l-0.089,0.112l-0.089,0.114l-0.087,0.115l-0.086,0.117l-0.084,0.117l-0.083,0.118l-0.082,0.119l-0.08,0.12l-0.079,0.122l-0.077,0.122l-0.076,0.123l-0.074,0.124l-0.073,0.125l-0.072,0.126l-0.07,0.127l-0.068,0.128l-0.067,0.129l-0.066,0.13l-0.064,0.131l-0.062,0.131l-0.061,0.132l-0.059,0.134l-0.058,0.134l-0.056,0.135l-0.054,0.135l-0.053,0.137l-0.051,0.137l-0.05,0.138l-0.048,0.139l-0.046,0.139l-0.045,0.141l-0.043,0.141l-0.041,0.142l-0.039,0.142l-0.038,0.144l-0.036,0.143l-0.035,0.145l-0.032,0.145l-0.031,0.146l-0.029,0.147l-0.027,0.147l-0.026,0.148l-0.024,0.149l-0.021,0.149l-0.02,0.15l-0.019,0.151l-0.016,0.151l-0.014,0.151l-0.013,0.153l-0.011,0.152l-0.008,0.154l-0.007,0.154l-0.005,0.154l-0.003,0.155l-0.001,0.156l0.001,0.13l0.002,0.129l0.004,0.129l0.006,0.128l0.007,0.128l0.009,0.128l0.011,0.126l0.012,0.127l0.013,0.126l0.015,0.125l0.017,0.125l0.018,0.124l0.02,0.124l0.021,0.124l0.023,0.122l0.024,0.122l0.026,0.122l0.027,0.121l0.029,0.121l0.03,0.12l0.031,0.119l0.033,0.119l0.035,0.118l0.035,0.117l0.037,0.117l0.039,0.117l0.04,0.115l0.041,0.115l0.043,0.115l0.044,0.113l0.045,0.113l0.047,0.113l0.048,0.112l0.049,0.111l0.051,0.11l0.052,0.109l0.053,0.109l0.055,0.108l0.056,0.108l0.057,0.106l0.058,0.106l0.06,0.105l0.061,0.104l0.062,0.104l0.063,0.102l0.064,0.102l0.066,0.102l0.067,0.1l0.068,0.099l0.069,0.099l0.07,0.097l0.072,0.097l0.072,0.096l0.074,0.095l0.075,0.094l0.076,0.093l0.077,0.092l0.078,0.092l0.079,0.09l0.08,0.089l0.082,0.089l0.082,0.087l0.084,0.087l0.084,0.085l0.085,0.084l0.087,0.084l0.087,0.082l0.089,0.082l0.089,0.08l0.09,0.079l0.092,0.078l0.092,0.077l0.093,0.076l0.094,0.075l0.095,0.074l0.096,0.072l0.097,0.072l0.097,0.07l0.099,0.069l0.099,0.068l0.1,0.067l0.102,0.066l0.101,0.064l0.103,0.063l0.104,0.062l0.104,0.061l0.105,0.06l0.106,0.058l0.106,0.057l0.108,0.056l0.108,0.055l0.109,0.053l0.109,0.052l0.11,0.051l0.111,0.049l0.112,0.048l0.112,0.047l0.114,0.045l0.113,0.044l0.115,0.043l0.115,0.041l0.115,0.04l0.117,0.039l0.117,0.037l0.117,0.035l0.118,0.035l0.119,0.033l0.119,0.031l0.12,0.03l0.121,0.029l0.121,0.027l0.122,0.026l0.122,0.024l0.122,0.023l0.124,0.021l0.124,0.02l0.124,0.018l0.125,0.017l0.125,0.015l0.126,0.013l0.127,0.012l0.126,0.011l0.128,0.009l0.128,0.007l0.128,0.006l0.129,0.004l0.129,0.002l0.136,0.001l3.988,0l0.136,-0.001l0.129,-0.002l0.129,-0.004l0.128,-0.006l0.128,-0.007l0.128,-0.009l0.126,-0.011l0.127,-0.012l0.126,-0.013l0.125,-0.015l0.125,-0.017l0.124,-0.018l0.124,-0.02l0.124,-0.021l0.122,-0.023l0.122,-0.024l0.122,-0.026l0.121,-0.027l0.121,-0.029l0.12,-0.03l0.119,-0.031l0.119,-0.033l0.118,-0.035l0.117,-0.035l0.117,-0.037l0.117,-0.039l0.115,-0.04l0.115,-0.041l0.115,-0.043l0.113,-0.044l0.114,-0.045l0.112,-0.047l0.112,-0.048l0.111,-0.049l0.11,-0.051l0.109,-0.052l0.109,-0.053l0.108,-0.055l0.108,-0.056l0.106,-0.057l0.106,-0.058l0.105,-0.06l0.104,-0.06l0.104,-0.063l0.103,-0.063l0.101,-0.064l0.102,-0.066l0.1,-0.067l0.099,-0.068l0.099,-0.069l0.097,-0.07l0.097,-0.072l0.096,-0.072l0.095,-0.074l0.094,-0.075l0.093,-0.076l0.092,-0.077l0.092,-0.078l0.09,-0.079l0.089,-0.08l0.089,-0.082l0.087,-0.082l0.087,-0.084l0.085,-0.084l0.084,-0.085l0.084,-0.087l0.082,-0.087l0.082,-0.089l0.08,-0.089l0.079,-0.09l0.078,-0.092l0.077,-0.092l0.076,-0.093l0.075,-0.094l0.074,-0.095l0.072,-0.096l0.072,-0.097l0.07,-0.097l0.069,-0.099l0.068,-0.099l0.067,-0.101l0.066,-0.101l0.064,-0.101l0.063,-0.103l0.062,-0.104l0.061,-0.104l0.06,-0.105l0.058,-0.106l0.057,-0.106l0.056,-0.108l0.055,-0.108l0.053,-0.109l0.052,-0.109l0.051,-0.111l0.049,-0.11l0.048,-0.112l0.047,-0.113l0.045,-0.113l0.044,-0.113l0.043,-0.115l0.041,-0.115l0.04,-0.115l0.039,-0.117l0.037,-0.117l0.035,-0.117l0.035,-0.118l0.033,-0.119l0.031,-0.119l0.03,-0.12l0.029,-0.121l0.027,-0.121l0.026,-0.122l0.024,-0.122l0.023,-0.122l0.021,-0.124l0.02,-0.124l0.018,-0.124l0.017,-0.125l0.015,-0.125l0.013,-0.126l0.012,-0.127l0.011,-0.126l0.009,-0.128l0.007,-0.128l0.006,-0.128l0.004,-0.129l0.002,-0.129l0.001,-0.13l-0.001,-0.156l-0.003,-0.155l-0.005,-0.154l-0.007,-0.154l-0.008,-0.154l-0.011,-0.152l-0.013,-0.153l-0.014,-0.151l-0.016,-0.151l-0.019,-0.151l-0.02,-0.15l-0.021,-0.149l-0.024,-0.149l-0.026,-0.148l-0.027,-0.147l-0.029,-0.147l-0.031,-0.146l-0.032,-0.145l-0.035,-0.145l-0.036,-0.144l-0.038,-0.143l-0.039,-0.142l-0.041,-0.142l-0.043,-0.141l-0.045,-0.141l-0.046,-0.139l-0.048,-0.139l-0.05,-0.138l-0.051,-0.137l-0.053,-0.137l-0.054,-0.135l-0.056,-0.135l-0.058,-0.134l-0.059,-0.134l-0.061,-0.132l-0.062,-0.131l-0.064,-0.131l-0.066,-0.13l-0.067,-0.129l-0.068,-0.127l-0.07,-0.128l-0.072,-0.126l-0.073,-0.125l-0.074,-0.124l-0.076,-0.123l-0.077,-0.122l-0.079,-0.122l-0.08,-0.12l-0.082,-0.119l-0.083,-0.118l-0.084,-0.118l-0.086,-0.116l-0.087,-0.115l-0.089,-0.114l-0.089,-0.113l-0.091,-0.111l-0.093,-0.111l-0.094,-0.109l-0.095,-0.109l-0.096,-0.107l-0.098,-0.106l-0.098,-0.105l-0.1,-0.104l-0.102,-0.102l-0.102,-0.102l-0.104,-0.1l-0.105,-0.098l-0.106,-0.098l-0.107,-0.096l-0.109,-0.095l-0.109,-0.094l-0.111,-0.093l-0.112,-0.091l-0.112,-0.089l-0.114,-0.089l-0.115,-0.087l-0.117,-0.086l-0.117,-0.084l-0.118,-0.083l-0.119,-0.082l-0.12,-0.08l-0.122,-0.079l-0.122,-0.077l-0.123,-0.076l-0.124,-0.074l-0.125,-0.073l-0.126,-0.072l-0.127,-0.07l-0.128,-0.068l-0.129,-0.067l-0.13,-0.066l-0.131,-0.064l-0.131,-0.062l-0.132,-0.061l-0.134,-0.059l-0.134,-0.058l-0.135,-0.056l-0.135,-0.054l-0.137,-0.053l-0.137,-0.051l-0.138,-0.05l-0.139,-0.048l-0.139,-0.046l-0.141,-0.045l-0.141,-0.043l-0.142,-0.041l-0.142,-0.039l-0.144,-0.038l-0.143,-0.036l-0.145,-0.035l-0.145,-0.032l-0.146,-0.031l-0.147,-0.029l-0.147,-0.027l-0.148,-0.026l-0.149,-0.024l-0.149,-0.021l-0.15,-0.02l-0.151,-0.019l-0.151,-0.016l-0.151,-0.014l-0.153,-0.013l-0.152,-0.011l-0.154,-0.008l-0.154,-0.007l-0.154,-0.005l-0.155,-0.003l-0.156,-0.001l-0.156,0.001Z"/></g><g id="emoji"><g><path d="M29.798,19.202c-1.033,5.575 -5.923,9.798 -11.798,9.798c-1.325,0 -2.675,0 -4,0c-6.627,0 -12,-5.373 -12,-12c0,0 0,0 0,0c0,-7.732 6.268,-14 14,-14c0,0 0,0 0,0c5.503,0 10.265,3.175 12.552,7.793c-0.182,-0.024 1.246,8.409 1.246,8.409Z" style="fill:#77b84c;"/><path d="M29.798,19.202l-4.798,4.798l-6,-3l-3,0c0,0 5.446,-5.446 9,-9c0.796,-0.796 1.875,-1.243 3,-1.243c0.186,0 0.37,0.012 0.552,0.036c0.927,1.871 1.448,3.978 1.448,6.207c0,0 0,0 0,0c0,0.752 -0.069,1.488 -0.202,2.202Z" style="fill:#519424;"/></g><path d="M24.448,14.106c0.494,0.247 0.694,0.847 0.447,1.34c0,0.001 -0.001,0.002 -0.001,0.002c-0.247,0.494 -0.847,0.694 -1.34,0.447c-1.088,-0.544 -2.914,-1.457 -4.002,-2.001c-0.494,-0.247 -0.694,-0.847 -0.447,-1.34c0,-0.001 0,-0.001 0.001,-0.001c0.118,-0.237 0.326,-0.418 0.578,-0.502c0.251,-0.084 0.526,-0.064 0.763,0.055c1.088,0.544 2.914,1.456 4.001,2Z" style="fill-rule:nonzero;"/><path d="M12.896,12.556c0.245,0.495 0.043,1.095 -0.452,1.34c-1.088,0.539 -2.912,1.444 -4,1.983c-0.495,0.246 -1.095,0.043 -1.34,-0.451c0,-0.001 0,-0.001 0,-0.001c-0.245,-0.495 -0.043,-1.094 0.451,-1.339c1.088,-0.54 2.914,-1.445 4.002,-1.984c0.494,-0.245 1.093,-0.043 1.338,0.451c0.001,0 0.001,0 0.001,0.001Z" style="fill-rule:nonzero;"/><path d="M19,21c0,0 4.941,-4.941 7.501,-7.501c0.828,-0.828 2.17,-0.828 2.998,0c0.001,0.001 0.001,0.001 0.002,0.002c0.828,0.828 0.828,2.17 0,2.998c-2.316,2.316 -6.501,6.501 -6.501,6.501l-4,-2Z" style="fill:#fff;"/><path d="M25,16l2,2l-4,4l-3,-1l5,-5Z" style="fill:#d92020;"/><path d="M28.051,12.879l0.051,0.002l0.05,0.003l0.051,0.004l0.051,0.005l0.05,0.007l0.051,0.008l0.05,0.009l0.05,0.01l0.05,0.012l0.049,0.013l0.05,0.013l0.049,0.016l0.048,0.016l0.049,0.018l0.048,0.018l0.047,0.02l0.048,0.022l0.047,0.022l0.046,0.024l0.046,0.025l0.045,0.026l0.045,0.027l0.044,0.028l0.044,0.03l0.043,0.031l0.043,0.032l0.042,0.034l0.041,0.034l0.041,0.036l0.04,0.037l0.041,0.04l0.038,0.039l0.037,0.04l0.036,0.041l0.034,0.041l0.034,0.042l0.032,0.043l0.031,0.043l0.03,0.044l0.028,0.044l0.027,0.045l0.026,0.045l0.025,0.046l0.024,0.046l0.022,0.047l0.022,0.048l0.02,0.047l0.018,0.048l0.018,0.049l0.016,0.048l0.016,0.049l0.013,0.05l0.013,0.049l0.012,0.05l0.01,0.05l0.009,0.05l0.008,0.051l0.007,0.05l0.005,0.051l0.004,0.051l0.003,0.05l0.002,0.051l0.001,0.051l-0.001,0.051l-0.002,0.051l-0.003,0.05l-0.004,0.051l-0.005,0.051l-0.007,0.05l-0.008,0.051l-0.009,0.05l-0.01,0.05l-0.012,0.05l-0.013,0.049l-0.013,0.05l-0.016,0.049l-0.016,0.048l-0.018,0.049l-0.018,0.048l-0.02,0.047l-0.022,0.048l-0.022,0.047l-0.024,0.046l-0.025,0.046l-0.026,0.045l-0.027,0.045l-0.028,0.044l-0.03,0.044l-0.031,0.043l-0.032,0.043l-0.034,0.042l-0.034,0.041l-0.036,0.041l-0.037,0.04l-0.038,0.039l-6.501,6.501l-4,-2l7.501,-7.501l0.039,-0.038l0.04,-0.037l0.041,-0.036l0.041,-0.034l0.042,-0.034l0.043,-0.032l0.043,-0.031l0.044,-0.03l0.044,-0.028l0.045,-0.027l0.045,-0.026l0.046,-0.025l0.046,-0.024l0.047,-0.022l0.048,-0.022l0.047,-0.02l0.048,-0.018l0.049,-0.018l0.048,-0.016l0.049,-0.016l0.05,-0.013l0.049,-0.013l0.05,-0.012l0.05,-0.01l0.05,-0.009l0.051,-0.008l0.05,-0.007l0.051,-0.005l0.051,-0.004l0.05,-0.003l0.051,-0.002l0.051,-0.001l0.051,0.001Zm-0.078,1l-0.027,0l-0.027,0.002l-0.027,0.002l-0.027,0.003l-0.027,0.004l-0.026,0.004l-0.027,0.005l-0.026,0.005l-0.027,0.006l-0.026,0.007l-0.026,0.007l-0.026,0.008l-0.025,0.009l-0.026,0.009l-0.025,0.01l-0.025,0.011l-0.025,0.011l-0.024,0.012l-0.025,0.012l-0.024,0.013l-0.024,0.014l-0.023,0.014l-0.023,0.015l-0.023,0.016l-0.023,0.016l-0.023,0.017l-0.022,0.018l-0.022,0.018l-0.022,0.019l-0.021,0.02l-0.025,0.025l-6.516,6.515l2.115,1.057l5.986,-5.987l0.025,-0.025l0.02,-0.022l0.019,-0.021l0.018,-0.022l0.018,-0.022l0.017,-0.023l0.016,-0.022l0.016,-0.024l0.015,-0.023l0.014,-0.023l0.014,-0.024l0.013,-0.024l0.012,-0.025l0.012,-0.024l0.011,-0.025l0.011,-0.025l0.01,-0.025l0.009,-0.026l0.009,-0.025l0.008,-0.026l0.007,-0.026l0.007,-0.026l0.006,-0.027l0.005,-0.026l0.005,-0.027l0.004,-0.027l0.004,-0.026l0.003,-0.027l0.002,-0.027l0.002,-0.027l0,-0.027l0.001,-0.027l-0.001,-0.027l0,-0.027l-0.002,-0.027l-0.002,-0.027l-0.003,-0.027l-0.004,-0.026l-0.004,-0.027l-0.005,-0.027l-0.005,-0.026l-0.006,-0.027l-0.007,-0.026l-0.007,-0.026l-0.008,-0.026l-0.009,-0.025l-0.009,-0.026l-0.01,-0.025l-0.011,-0.025l-0.011,-0.025l-0.012,-0.024l-0.012,-0.025l-0.013,-0.024l-0.014,-0.024l-0.014,-0.023l-0.015,-0.023l-0.016,-0.024l-0.016,-0.022l-0.017,-0.023l-0.018,-0.022l-0.018,-0.022l-0.019,-0.021l-0.02,-0.022l-0.021,-0.022l-0.022,-0.021l-0.021,-0.02l-0.022,-0.019l-0.022,-0.018l-0.022,-0.018l-0.023,-0.017l-0.023,-0.016l-0.023,-0.016l-0.023,-0.015l-0.023,-0.014l-0.024,-0.014l-0.024,-0.013l-0.025,-0.012l-0.024,-0.012l-0.025,-0.011l-0.025,-0.011l-0.025,-0.01l-0.026,-0.009l-0.025,-0.009l-0.026,-0.008l-0.026,-0.007l-0.026,-0.007l-0.027,-0.006l-0.026,-0.005l-0.027,-0.005l-0.026,-0.004l-0.027,-0.004l-0.027,-0.003l-0.027,-0.002l-0.027,-0.002l-0.027,0l-0.027,-0.001l-0.027,0.001Z" style="fill:#fff;"/><path d="M18.464,20.001l0.116,0.002l0.116,0.005l0.116,0.005l0.116,0.008l0.116,0.009l0.115,0.011l0.115,0.013l0.115,0.014l0.115,0.016l0.114,0.018l0.114,0.019l0.114,0.021l0.114,0.022l0.113,0.024l0.113,0.026l0.112,0.027l0.112,0.029l0.111,0.031l0.112,0.032l0.11,0.034l0.11,0.036l0.11,0.037l0.109,0.038l0.109,0.041l0.108,0.041l0.108,0.044l0.107,0.045l0.106,0.046l0.106,0.049l0.105,0.049l0.101,0.05l3.525,1.763l0.06,0.032l0.058,0.037l0.055,0.04l0.052,0.044l0.049,0.048l0.046,0.051l0.042,0.054l0.038,0.056l0.034,0.059l0.03,0.061l0.026,0.064l0.022,0.064l0.017,0.066l0.013,0.068l0.008,0.067l0.003,0.069l-0.001,0.068l-0.006,0.068l-0.011,0.067l-0.015,0.067l-0.02,0.065l-0.024,0.064l-0.029,0.062l-0.032,0.06l-0.037,0.058l-0.04,0.055l-0.044,0.052l-0.048,0.049l-0.051,0.046l-0.054,0.042l-0.056,0.038l-0.059,0.034l-0.061,0.03l-0.064,0.026l-0.064,0.022l-0.066,0.017l-0.068,0.013l-0.067,0.008l-0.069,0.003l-0.068,-0.001l-0.068,-0.006l-0.067,-0.011l-0.067,-0.015l-0.065,-0.02l-0.064,-0.024l-0.062,-0.029l-3.519,-1.759l-0.082,-0.04l-0.078,-0.037l-0.08,-0.036l-0.079,-0.035l-0.081,-0.034l-0.08,-0.033l-0.081,-0.031l-0.082,-0.03l-0.082,-0.029l-0.082,-0.028l-0.083,-0.027l-0.083,-0.025l-0.083,-0.024l-0.084,-0.023l-0.084,-0.022l-0.084,-0.02l-0.084,-0.02l-0.085,-0.018l-0.085,-0.017l-0.086,-0.015l-0.085,-0.015l-0.086,-0.013l-0.086,-0.012l-0.086,-0.011l-0.087,-0.009l-0.086,-0.008l-0.087,-0.007l-0.087,-0.006l-0.087,-0.004l-0.087,-0.003l-0.087,-0.002l-0.091,-0.001l-5.344,0l-0.068,-0.002l-0.068,-0.007l-0.067,-0.012l-0.067,-0.016l-0.065,-0.021l-0.063,-0.025l-0.062,-0.029l-0.06,-0.034l-0.057,-0.037l-0.054,-0.041l-0.052,-0.045l-0.048,-0.048l-0.045,-0.052l-0.041,-0.054l-0.037,-0.057l-0.034,-0.06l-0.029,-0.062l-0.025,-0.063l-0.021,-0.065l-0.016,-0.067l-0.012,-0.067l-0.007,-0.068l-0.002,-0.068l0.002,-0.068l0.007,-0.068l0.012,-0.067l0.016,-0.067l0.021,-0.065l0.025,-0.063l0.029,-0.062l0.034,-0.06l0.037,-0.057l0.041,-0.054l0.045,-0.052l0.048,-0.048l0.052,-0.045l0.054,-0.041l0.057,-0.037l0.06,-0.034l0.062,-0.029l0.063,-0.025l0.065,-0.021l0.067,-0.016l0.067,-0.012l0.068,-0.007l0.068,-0.002l5.351,0l0.113,0.001Z" style="fill:#23480a;"/></g></g></svg>