<?xml version="1.0" encoding="UTF-8" standalone="no"?><!DOCTYPE svg PUBLIC "-//W3C//DTD SVG 1.1//EN" "http://www.w3.org/Graphics/SVG/1.1/DTD/svg11.dtd"><svg width="100%" height="100%" viewBox="0 0 32 32" version="1.1" xmlns="http://www.w3.org/2000/svg" xmlns:xlink="http://www.w3.org/1999/xlink" xml:space="preserve" xmlns:serif="http://www.serif.com/" style="fill-rule:evenodd;clip-rule:evenodd;stroke-linejoin:round;stroke-miterlimit:2;"><rect id="swearing" x="0" y="0" width="32" height="32" style="fill:none;"/><clipPath id="_clip1"><rect x="0" y="0" width="32" height="32"/></clipPath><g clip-path="url(#_clip1)"><g id="outline"><path d="M17.169,2.005c0.144,-0.411 0.381,-0.798 0.71,-1.126c1.17,-1.171 3.072,-1.171 4.242,0l0.879,0.878l0.879,-0.878c1.17,-1.171 3.072,-1.171 4.242,0c0.329,0.328 0.566,0.715 0.71,1.126c0.823,-0.046 1.662,0.245 2.29,0.874c1.171,1.17 1.171,3.072 0,4.242l-0.878,0.879l0.878,0.879c1.14,1.139 1.17,2.971 0.091,4.148c0.511,1.565 0.788,3.237 0.788,4.973l0,1c0,7.18 -5.82,13 -13,13l-6,0c-7.18,0 -13,-5.82 -13,-13c0,-0.332 0,-0.665 0,-1c0,-8.837 7.163,-16 16,-16l0.052,0c0.218,0.001 0.436,0.006 0.652,0.015c0.154,-0.015 0.31,-0.018 0.465,-0.01Z"/></g><g id="emoji"><path d="M30,18c0,-7.732 -6.268,-14 -14,-14c0,0 0,0 0,0c-7.732,0 -14,6.268 -14,14c0,0.335 0,0.668 0,1c0,6.075 4.925,11 11,11c1.972,0 4.028,0 6,0c6.075,0 11,-4.925 11,-11c0,-0.332 0,-0.665 0,-1Z" style="fill:#fbc546;"/><g><path d="M23.71,12.963l1.185,-1.016c0.027,0.025 0.054,0.051 0.08,0.078c0.656,0.656 1.025,1.545 1.025,2.473c0,0.657 0,1.345 0,2.002c0,1.933 -1.567,3.5 -3.5,3.5l-0.002,0c-0.928,0 -1.817,-0.369 -2.473,-1.025c-0.544,-0.544 -0.891,-1.248 -0.993,-2.002l0.968,-0.83c0,0 2.278,-1.041 3.71,-3.18Z" style="fill:#fff;"/><path d="M23.71,12.963c0.188,0.31 0.29,0.668 0.29,1.037c0,0.936 0,2.048 0,2.983c0,0.531 -0.211,1.039 -0.586,1.415c-0.375,0.375 -0.884,0.585 -1.414,0.585c-0.53,0 -1.039,-0.21 -1.414,-0.585c-0.375,-0.376 -0.586,-0.884 -0.586,-1.415l0,-0.84l3.71,-3.18Z"/></g><g><path d="M8.322,12.963l-1.185,-1.016c-0.028,0.025 -0.054,0.051 -0.081,0.078c-0.656,0.656 -1.024,1.545 -1.024,2.473c0,0.657 0,1.345 0,2.002c0,1.933 1.567,3.5 3.5,3.5l0.002,0c0.928,0 1.817,-0.369 2.473,-1.025c0.544,-0.544 0.891,-1.248 0.993,-2.002l-0.968,-0.83c0,0 -2.278,-1.041 -3.71,-3.18Z" style="fill:#fff;"/><path d="M8.322,12.963c-0.188,0.31 -0.29,0.668 -0.29,1.037c0,0.936 0,2.048 0,2.983c0,0.531 0.211,1.039 0.586,1.415c0.375,0.375 0.883,0.585 1.414,0.585c0.53,0 1.039,-0.21 1.414,-0.585c0.375,-0.376 0.586,-0.884 0.586,-1.415l0,-0.84l-3.71,-3.18Z"/></g><rect x="3" y="20.018" width="26" height="11.982"/><path d="M18.604,29.925c-0.596,-0.322 -1.06,-0.773 -1.392,-1.352c-0.332,-0.58 -0.498,-1.249 -0.498,-2.006l0,-0.704c0,-0.758 0.166,-1.426 0.498,-2.006c0.332,-0.58 0.796,-1.031 1.392,-1.352c0.597,-0.322 1.281,-0.483 2.052,-0.483c0.757,0 1.434,0.159 2.031,0.478c0.596,0.318 1.062,0.765 1.397,1.342c0.335,0.576 0.503,1.233 0.503,1.971l0,0.703c0,0.644 -0.161,1.135 -0.483,1.473c-0.321,0.339 -0.727,0.508 -1.216,0.508c-0.302,0 -0.56,-0.057 -0.775,-0.171c-0.214,-0.114 -0.378,-0.275 -0.492,-0.482c-0.215,0.435 -0.644,0.653 -1.287,0.653c-1.012,0 -1.518,-0.606 -1.518,-1.82l0,-0.885c0,-0.576 0.118,-1.025 0.356,-1.347c0.238,-0.322 0.602,-0.482 1.091,-0.482c0.242,0 0.455,0.046 0.639,0.14c0.184,0.094 0.32,0.218 0.407,0.372l0,-0.402l1.096,0l0,2.866c0,0.214 0.045,0.373 0.136,0.477c0.09,0.104 0.209,0.156 0.357,0.156c0.187,0 0.328,-0.082 0.422,-0.246c0.094,-0.164 0.141,-0.431 0.141,-0.8l0,-0.703c0,-0.57 -0.113,-1.064 -0.337,-1.483c-0.225,-0.419 -0.546,-0.743 -0.965,-0.971c-0.419,-0.228 -0.92,-0.342 -1.503,-0.342c-0.879,0 -1.567,0.252 -2.067,0.755c-0.499,0.502 -0.749,1.189 -0.749,2.061l0,0.714c0,0.569 0.112,1.069 0.337,1.498c0.225,0.429 0.548,0.761 0.97,0.995c0.423,0.235 0.925,0.352 1.509,0.352c0.402,0 0.764,-0.042 1.085,-0.126c0.322,-0.083 0.654,-0.212 0.996,-0.387l0.442,0.855c-0.389,0.228 -0.784,0.395 -1.186,0.503c-0.402,0.107 -0.848,0.161 -1.337,0.161c-0.771,0 -1.455,-0.161 -2.052,-0.483Zm-4.615,-0.282l-0.895,0l0,-0.915c-0.596,-0.06 -1.062,-0.259 -1.397,-0.598c-0.335,-0.338 -0.516,-0.796 -0.543,-1.372l1.156,0c0.04,0.328 0.159,0.563 0.357,0.704c0.198,0.14 0.501,0.211 0.91,0.211c0.369,0 0.649,-0.067 0.84,-0.201c0.191,-0.134 0.286,-0.332 0.286,-0.594c0,-0.234 -0.064,-0.415 -0.191,-0.543c-0.127,-0.127 -0.335,-0.207 -0.623,-0.241l-0.754,-0.1c-1.214,-0.161 -1.82,-0.744 -1.82,-1.75c0,-0.516 0.156,-0.937 0.467,-1.262c0.312,-0.325 0.749,-0.524 1.312,-0.598l0,-0.784l0.895,0l0,0.774c0.557,0.06 0.992,0.248 1.307,0.563c0.315,0.315 0.493,0.744 0.533,1.287l-1.176,0c-0.027,-0.282 -0.131,-0.489 -0.312,-0.623c-0.181,-0.135 -0.446,-0.202 -0.794,-0.202c-0.329,0 -0.58,0.066 -0.754,0.197c-0.174,0.13 -0.262,0.316 -0.262,0.558c0,0.214 0.072,0.383 0.217,0.507c0.144,0.124 0.377,0.21 0.698,0.257l0.785,0.11c1.132,0.161 1.699,0.748 1.699,1.76c0,0.556 -0.171,1 -0.513,1.332c-0.342,0.332 -0.818,0.531 -1.428,0.598l0,0.925Zm-7.169,-0.603l-1.035,0l0.271,-2.051l-1.056,0l0,-0.925l1.177,0l0.151,-1.106l-1.046,0l0,-0.925l1.166,0l0.252,-1.931l1.035,0l-0.251,1.931l1.126,0l0.251,-1.931l1.036,0l-0.251,1.931l1.045,0l0,0.925l-1.166,0l-0.141,1.106l1.026,0l0,0.925l-1.146,0l-0.272,2.051l-1.046,0l0.272,-2.051l-1.126,0l-0.272,2.051Zm20.13,0l-1.317,0l0,-1.307l1.317,0l0,1.307Zm-5.661,-2.393l0,-0.844c0,-0.597 -0.221,-0.895 -0.664,-0.895c-0.234,0 -0.407,0.078 -0.517,0.236c-0.111,0.157 -0.166,0.374 -0.166,0.648l0,0.825c0,0.302 0.053,0.533 0.161,0.694c0.107,0.161 0.281,0.241 0.522,0.241c0.443,0 0.664,-0.302 0.664,-0.905Zm5.47,0.081l-0.935,0l-0.242,-4.626l1.418,0l-0.241,4.626Zm-18.27,-1.77l-1.126,0l-0.151,1.106l1.127,0l0.15,-1.106Z" style="fill:#fff;fill-rule:nonzero;"/><path d="M20.707,13.707c0,0 0.808,-0.808 1.586,-1.586c0.39,-0.39 1.024,-0.39 1.414,0c0.778,0.778 1.586,1.586 1.586,1.586c0.39,0.39 1.024,0.39 1.414,0c0.39,-0.39 0.39,-1.024 0,-1.414c0,0 -0.808,-0.808 -1.586,-1.586c-1.171,-1.171 -3.071,-1.171 -4.242,0c-0.778,0.778 -1.586,1.586 -1.586,1.586c-0.39,0.39 -0.39,1.024 0,1.414c0.39,0.39 1.024,0.39 1.414,0Zm-4.414,-8c0,0 0.808,0.808 1.586,1.586c0.39,0.39 0.39,1.024 0,1.414c-0.778,0.778 -1.586,1.586 -1.586,1.586c-0.39,0.39 -0.39,1.024 0,1.414c0.39,0.39 1.024,0.39 1.414,0c0,0 0.808,-0.808 1.586,-1.586c1.171,-1.171 1.171,-3.071 0,-4.242c-0.778,-0.778 -1.586,-1.586 -1.586,-1.586c-0.39,-0.39 -1.024,-0.39 -1.414,0c-0.39,0.39 -0.39,1.024 0,1.414Zm12,-1.414c0,0 -0.808,0.808 -1.586,1.586c-1.171,1.171 -1.171,3.071 0,4.242c0.778,0.778 1.586,1.586 1.586,1.586c0.39,0.39 1.024,0.39 1.414,0c0.39,-0.39 0.39,-1.024 0,-1.414c0,0 -0.808,-0.808 -1.586,-1.586c-0.39,-0.39 -0.39,-1.024 0,-1.414c0.778,-0.778 1.586,-1.586 1.586,-1.586c0.39,-0.39 0.39,-1.024 0,-1.414c-0.39,-0.39 -1.024,-0.39 -1.414,0Zm-9,-0.586c0,0 0.808,0.808 1.586,1.586c1.171,1.171 3.071,1.171 4.242,0c0.778,-0.778 1.586,-1.586 1.586,-1.586c0.39,-0.39 0.39,-1.024 0,-1.414c-0.39,-0.39 -1.024,-0.39 -1.414,0c0,0 -0.808,0.808 -1.586,1.586c-0.39,0.39 -1.024,0.39 -1.414,0c-0.778,-0.778 -1.586,-1.586 -1.586,-1.586c-0.39,-0.39 -1.024,-0.39 -1.414,0c-0.39,0.39 -0.39,1.024 0,1.414Z" style="fill:#f00;"/></g></g></svg>