<?xml version="1.0" encoding="UTF-8" standalone="no"?><!DOCTYPE svg PUBLIC "-//W3C//DTD SVG 1.1//EN" "http://www.w3.org/Graphics/SVG/1.1/DTD/svg11.dtd"><svg width="100%" height="100%" viewBox="0 0 32 32" version="1.1" xmlns="http://www.w3.org/2000/svg" xmlns:xlink="http://www.w3.org/1999/xlink" xml:space="preserve" xmlns:serif="http://www.serif.com/" style="fill-rule:evenodd;clip-rule:evenodd;stroke-linejoin:round;stroke-miterlimit:1.41421;"><rect id="swearing" x="0" y="0" width="32" height="32" style="fill:none;"/><clipPath id="_clip1"><rect x="0" y="0" width="32" height="32"/></clipPath><g clip-path="url(#_clip1)"><g id="outline"><path d="M16.206,2.001l0.206,0.004l0.205,0.007l0.205,0.009l0.204,0.011l0.203,0.015l0.203,0.016l0.201,0.019l0.202,0.022l0.2,0.024l0.2,0.027l0.199,0.029l0.198,0.032l0.198,0.034l0.197,0.036l0.195,0.039l0.195,0.041l0.195,0.044l0.193,0.046l0.192,0.048l0.192,0.05l0.19,0.053l0.19,0.055l0.188,0.058l0.188,0.059l0.186,0.062l0.186,0.064l0.184,0.066l0.184,0.069l0.182,0.07l0.181,0.073l0.181,0.075l0.179,0.077l0.177,0.079l0.177,0.081l0.176,0.084l0.174,0.085l0.173,0.087l0.172,0.09l0.171,0.091l0.169,0.094l0.169,0.095l0.166,0.097l0.166,0.1l0.164,0.101l0.163,0.103l0.162,0.105l0.16,0.107l0.159,0.108l0.158,0.111l0.156,0.112l0.154,0.115l0.154,0.116l0.151,0.118l0.15,0.119l0.149,0.121l0.148,0.123l0.145,0.125l0.145,0.127l0.143,0.128l0.141,0.13l0.139,0.131l0.138,0.133l0.137,0.135l0.135,0.137l0.133,0.138l0.131,0.139l0.13,0.142l0.128,0.142l0.127,0.145l0.125,0.145l0.123,0.148l0.121,0.148l0.12,0.151l0.117,0.152l0.116,0.153l0.115,0.154l0.112,0.156l0.111,0.158l0.108,0.159l0.107,0.16l0.105,0.162l0.103,0.163l0.101,0.164l0.1,0.166l0.097,0.166l0.095,0.169l0.094,0.169l0.091,0.171l0.09,0.172l0.087,0.173l0.085,0.174l0.083,0.176l0.082,0.177l0.079,0.178l0.077,0.178l0.075,0.181l0.073,0.181l0.07,0.182l0.069,0.184l0.066,0.184l0.064,0.186l0.062,0.186l0.059,0.188l0.058,0.188l0.055,0.19l0.053,0.19l0.05,0.192l0.048,0.192l0.046,0.194l0.044,0.194l0.041,0.194l0.039,0.196l0.036,0.197l0.034,0.198l0.032,0.198l0.029,0.199l0.027,0.2l0.024,0.2l0.022,0.202l0.019,0.201l0.016,0.203l0.015,0.204l0.011,0.203l0.009,0.205l0.007,0.205l0.004,0.206l0.001,0.2l0,1.012l-0.001,0.161l-0.003,0.168l-0.005,0.166l-0.008,0.166l-0.009,0.166l-0.012,0.165l-0.013,0.165l-0.016,0.164l-0.018,0.163l-0.019,0.163l-0.022,0.163l-0.024,0.161l-0.025,0.161l-0.028,0.161l-0.03,0.16l-0.031,0.159l-0.034,0.159l-0.035,0.157l-0.037,0.157l-0.039,0.156l-0.041,0.156l-0.043,0.155l-0.045,0.154l-0.047,0.153l-0.048,0.153l-0.05,0.151l-0.052,0.151l-0.054,0.15l-0.056,0.149l-0.057,0.148l-0.06,0.147l-0.06,0.147l-0.063,0.145l-0.064,0.145l-0.066,0.143l-0.068,0.143l-0.069,0.142l-0.071,0.14l-0.073,0.14l-0.074,0.139l-0.076,0.138l-0.078,0.136l-0.078,0.136l-0.081,0.134l-0.082,0.134l-0.084,0.132l-0.086,0.132l-0.086,0.13l-0.089,0.129l-0.089,0.128l-0.092,0.127l-0.093,0.125l-0.094,0.125l-0.096,0.123l-0.097,0.122l-0.098,0.121l-0.1,0.12l-0.102,0.118l-0.102,0.117l-0.105,0.116l-0.105,0.115l-0.107,0.113l-0.108,0.113l-0.11,0.11l-0.11,0.11l-0.113,0.108l-0.113,0.107l-0.115,0.105l-0.115,0.104l-0.118,0.103l-0.118,0.102l-0.12,0.1l-0.121,0.098l-0.122,0.097l-0.123,0.096l-0.125,0.094l-0.125,0.093l-0.127,0.092l-0.128,0.089l-0.129,0.089l-0.13,0.087l-0.132,0.085l-0.132,0.084l-0.134,0.082l-0.134,0.08l-0.136,0.079l-0.136,0.078l-0.138,0.076l-0.139,0.074l-0.139,0.073l-0.141,0.071l-0.142,0.069l-0.142,0.068l-0.144,0.066l-0.145,0.064l-0.145,0.063l-0.147,0.06l-0.147,0.06l-0.148,0.057l-0.149,0.056l-0.15,0.053l-0.151,0.053l-0.151,0.05l-0.153,0.048l-0.153,0.047l-0.154,0.045l-0.155,0.043l-0.156,0.041l-0.156,0.039l-0.157,0.037l-0.158,0.035l-0.158,0.034l-0.159,0.031l-0.16,0.03l-0.161,0.028l-0.161,0.025l-0.161,0.024l-0.163,0.022l-0.163,0.019l-0.163,0.018l-0.164,0.016l-0.165,0.013l-0.165,0.012l-0.166,0.009l-0.166,0.008l-0.166,0.005l-0.167,0.003l-0.162,0.001l-6.012,0l-0.162,-0.001l-0.167,-0.003l-0.166,-0.005l-0.166,-0.008l-0.166,-0.009l-0.165,-0.012l-0.165,-0.013l-0.164,-0.016l-0.163,-0.018l-0.163,-0.019l-0.163,-0.022l-0.161,-0.024l-0.161,-0.025l-0.161,-0.028l-0.16,-0.03l-0.159,-0.031l-0.158,-0.034l-0.158,-0.035l-0.157,-0.037l-0.156,-0.039l-0.156,-0.041l-0.155,-0.043l-0.154,-0.045l-0.153,-0.047l-0.152,-0.048l-0.152,-0.05l-0.151,-0.053l-0.15,-0.053l-0.149,-0.056l-0.148,-0.057l-0.148,-0.06l-0.146,-0.06l-0.145,-0.063l-0.145,-0.064l-0.143,-0.066l-0.143,-0.068l-0.142,-0.069l-0.141,-0.071l-0.139,-0.073l-0.139,-0.074l-0.138,-0.076l-0.136,-0.078l-0.136,-0.079l-0.134,-0.08l-0.134,-0.083l-0.132,-0.083l-0.132,-0.085l-0.13,-0.087l-0.129,-0.089l-0.128,-0.089l-0.127,-0.092l-0.125,-0.093l-0.125,-0.094l-0.123,-0.096l-0.122,-0.097l-0.121,-0.098l-0.12,-0.1l-0.118,-0.102l-0.117,-0.102l-0.116,-0.105l-0.115,-0.105l-0.113,-0.107l-0.113,-0.108l-0.11,-0.11l-0.11,-0.111l-0.108,-0.112l-0.107,-0.113l-0.105,-0.115l-0.105,-0.116l-0.102,-0.117l-0.102,-0.118l-0.1,-0.12l-0.098,-0.121l-0.097,-0.122l-0.096,-0.123l-0.094,-0.125l-0.093,-0.125l-0.091,-0.127l-0.09,-0.128l-0.089,-0.129l-0.087,-0.13l-0.085,-0.132l-0.084,-0.132l-0.082,-0.134l-0.08,-0.134l-0.079,-0.136l-0.078,-0.136l-0.076,-0.138l-0.074,-0.139l-0.073,-0.139l-0.071,-0.141l-0.069,-0.142l-0.068,-0.143l-0.066,-0.143l-0.064,-0.145l-0.063,-0.145l-0.061,-0.147l-0.059,-0.147l-0.057,-0.148l-0.056,-0.149l-0.053,-0.15l-0.053,-0.151l-0.05,-0.152l-0.048,-0.152l-0.047,-0.153l-0.045,-0.154l-0.043,-0.155l-0.041,-0.156l-0.039,-0.156l-0.037,-0.157l-0.036,-0.158l-0.033,-0.158l-0.031,-0.159l-0.03,-0.16l-0.028,-0.161l-0.025,-0.161l-0.024,-0.161l-0.022,-0.163l-0.019,-0.163l-0.018,-0.163l-0.016,-0.164l-0.013,-0.165l-0.012,-0.165l-0.009,-0.166l-0.008,-0.166l-0.005,-0.167l-0.003,-0.166l-0.001,-0.162l0,-1.012l0.001,-0.2l0.004,-0.206l0.007,-0.205l0.009,-0.205l0.011,-0.204l0.015,-0.203l0.016,-0.203l0.019,-0.202l0.022,-0.201l0.024,-0.2l0.027,-0.2l0.029,-0.199l0.032,-0.198l0.034,-0.198l0.036,-0.197l0.039,-0.195l0.041,-0.195l0.044,-0.195l0.046,-0.193l0.048,-0.192l0.05,-0.192l0.053,-0.19l0.055,-0.19l0.058,-0.188l0.059,-0.188l0.062,-0.186l0.064,-0.186l0.066,-0.184l0.069,-0.184l0.07,-0.182l0.073,-0.181l0.075,-0.181l0.077,-0.179l0.079,-0.177l0.081,-0.177l0.084,-0.176l0.085,-0.174l0.087,-0.173l0.09,-0.172l0.091,-0.171l0.094,-0.169l0.095,-0.168l0.097,-0.167l0.1,-0.166l0.101,-0.164l0.103,-0.163l0.105,-0.162l0.107,-0.16l0.108,-0.159l0.111,-0.158l0.112,-0.156l0.115,-0.154l0.116,-0.153l0.117,-0.152l0.12,-0.15l0.121,-0.149l0.123,-0.148l0.125,-0.146l0.127,-0.144l0.128,-0.142l0.13,-0.142l0.131,-0.139l0.133,-0.138l0.135,-0.137l0.137,-0.135l0.138,-0.133l0.139,-0.131l0.142,-0.13l0.142,-0.128l0.144,-0.127l0.146,-0.125l0.148,-0.123l0.149,-0.121l0.15,-0.12l0.152,-0.117l0.153,-0.116l0.154,-0.115l0.156,-0.112l0.158,-0.111l0.159,-0.108l0.16,-0.107l0.162,-0.105l0.163,-0.103l0.164,-0.101l0.166,-0.1l0.167,-0.097l0.168,-0.095l0.169,-0.094l0.171,-0.091l0.172,-0.09l0.173,-0.087l0.174,-0.085l0.176,-0.084l0.176,-0.081l0.178,-0.079l0.18,-0.077l0.18,-0.075l0.181,-0.073l0.182,-0.07l0.184,-0.069l0.184,-0.066l0.186,-0.064l0.186,-0.062l0.188,-0.059l0.188,-0.058l0.19,-0.055l0.19,-0.053l0.192,-0.05l0.192,-0.048l0.193,-0.046l0.195,-0.044l0.195,-0.041l0.195,-0.039l0.197,-0.036l0.198,-0.034l0.198,-0.032l0.199,-0.029l0.2,-0.027l0.2,-0.024l0.202,-0.022l0.201,-0.019l0.203,-0.016l0.203,-0.015l0.204,-0.011l0.205,-0.009l0.205,-0.007l0.206,-0.004l0.206,-0.001l0.206,0.001Zm-0.362,4l-0.155,0.003l-0.154,0.005l-0.154,0.007l-0.154,0.008l-0.152,0.011l-0.153,0.013l-0.151,0.014l-0.151,0.016l-0.151,0.019l-0.15,0.02l-0.149,0.021l-0.149,0.024l-0.148,0.026l-0.147,0.027l-0.147,0.029l-0.146,0.031l-0.145,0.032l-0.145,0.035l-0.143,0.036l-0.144,0.038l-0.142,0.039l-0.142,0.041l-0.141,0.043l-0.14,0.045l-0.14,0.046l-0.139,0.048l-0.138,0.05l-0.137,0.051l-0.137,0.053l-0.136,0.054l-0.134,0.056l-0.134,0.058l-0.133,0.059l-0.133,0.061l-0.131,0.062l-0.131,0.064l-0.13,0.066l-0.129,0.067l-0.127,0.068l-0.128,0.07l-0.126,0.072l-0.125,0.073l-0.124,0.074l-0.123,0.076l-0.122,0.077l-0.122,0.079l-0.12,0.08l-0.119,0.082l-0.118,0.083l-0.118,0.084l-0.116,0.086l-0.115,0.087l-0.114,0.089l-0.113,0.089l-0.111,0.091l-0.111,0.093l-0.109,0.094l-0.109,0.095l-0.107,0.096l-0.106,0.098l-0.105,0.098l-0.104,0.1l-0.102,0.102l-0.101,0.102l-0.101,0.104l-0.098,0.105l-0.098,0.106l-0.096,0.107l-0.095,0.109l-0.094,0.109l-0.093,0.111l-0.091,0.111l-0.089,0.113l-0.089,0.114l-0.087,0.115l-0.086,0.117l-0.084,0.117l-0.083,0.118l-0.082,0.119l-0.08,0.12l-0.079,0.122l-0.077,0.122l-0.076,0.123l-0.074,0.124l-0.073,0.125l-0.072,0.126l-0.07,0.128l-0.068,0.127l-0.067,0.129l-0.066,0.13l-0.064,0.131l-0.062,0.131l-0.061,0.132l-0.059,0.134l-0.058,0.134l-0.056,0.135l-0.054,0.135l-0.053,0.137l-0.051,0.137l-0.05,0.138l-0.048,0.139l-0.046,0.139l-0.045,0.141l-0.043,0.141l-0.041,0.142l-0.039,0.142l-0.038,0.143l-0.036,0.144l-0.035,0.145l-0.032,0.145l-0.031,0.146l-0.029,0.147l-0.027,0.147l-0.026,0.148l-0.024,0.149l-0.021,0.149l-0.02,0.15l-0.019,0.15l-0.016,0.152l-0.014,0.151l-0.013,0.153l-0.011,0.152l-0.008,0.154l-0.007,0.154l-0.005,0.154l-0.003,0.155l-0.001,0.162l0,0.988l0.001,0.123l0.002,0.116l0.004,0.116l0.005,0.116l0.006,0.115l0.008,0.115l0.01,0.114l0.011,0.114l0.012,0.113l0.013,0.113l0.015,0.112l0.017,0.112l0.018,0.112l0.019,0.11l0.02,0.111l0.022,0.11l0.023,0.109l0.024,0.109l0.026,0.109l0.027,0.108l0.029,0.107l0.029,0.107l0.031,0.106l0.032,0.106l0.034,0.105l0.034,0.105l0.036,0.104l0.038,0.103l0.038,0.103l0.04,0.103l0.04,0.101l0.042,0.102l0.044,0.1l0.044,0.1l0.046,0.099l0.047,0.099l0.047,0.098l0.049,0.097l0.051,0.097l0.051,0.096l0.053,0.095l0.053,0.094l0.055,0.094l0.056,0.093l0.057,0.093l0.058,0.091l0.059,0.091l0.06,0.091l0.061,0.089l0.062,0.089l0.064,0.088l0.064,0.087l0.065,0.086l0.067,0.085l0.067,0.085l0.068,0.084l0.07,0.083l0.07,0.082l0.071,0.082l0.073,0.08l0.073,0.079l0.074,0.079l0.075,0.078l0.076,0.077l0.077,0.076l0.078,0.075l0.079,0.074l0.079,0.073l0.081,0.073l0.081,0.071l0.082,0.07l0.083,0.07l0.084,0.068l0.085,0.067l0.085,0.067l0.086,0.065l0.087,0.064l0.088,0.064l0.089,0.062l0.089,0.061l0.091,0.06l0.091,0.059l0.091,0.058l0.093,0.057l0.093,0.056l0.094,0.055l0.094,0.053l0.095,0.053l0.096,0.051l0.097,0.05l0.097,0.05l0.098,0.048l0.099,0.046l0.099,0.046l0.1,0.044l0.1,0.044l0.102,0.042l0.101,0.04l0.103,0.04l0.103,0.038l0.103,0.038l0.104,0.036l0.105,0.034l0.105,0.034l0.106,0.032l0.106,0.031l0.107,0.029l0.107,0.029l0.108,0.027l0.109,0.026l0.109,0.024l0.109,0.023l0.11,0.022l0.11,0.02l0.111,0.019l0.112,0.018l0.112,0.017l0.112,0.015l0.113,0.013l0.113,0.012l0.114,0.011l0.114,0.01l0.115,0.008l0.115,0.006l0.116,0.005l0.116,0.004l0.116,0.002l0.123,0.001l5.988,0l0.123,-0.001l0.116,-0.002l0.116,-0.004l0.116,-0.005l0.115,-0.006l0.115,-0.008l0.114,-0.01l0.114,-0.011l0.113,-0.012l0.113,-0.013l0.112,-0.015l0.112,-0.017l0.112,-0.018l0.111,-0.019l0.11,-0.02l0.11,-0.022l0.109,-0.023l0.109,-0.024l0.109,-0.026l0.108,-0.027l0.107,-0.029l0.107,-0.029l0.106,-0.031l0.106,-0.032l0.105,-0.034l0.105,-0.034l0.104,-0.036l0.103,-0.038l0.103,-0.038l0.103,-0.04l0.102,-0.04l0.101,-0.042l0.1,-0.044l0.1,-0.044l0.099,-0.046l0.099,-0.047l0.098,-0.047l0.097,-0.05l0.097,-0.05l0.095,-0.051l0.096,-0.053l0.094,-0.053l0.094,-0.055l0.093,-0.056l0.093,-0.057l0.091,-0.058l0.091,-0.059l0.091,-0.06l0.089,-0.061l0.089,-0.062l0.088,-0.064l0.087,-0.064l0.086,-0.065l0.085,-0.067l0.085,-0.067l0.084,-0.069l0.083,-0.069l0.082,-0.07l0.081,-0.071l0.081,-0.073l0.08,-0.073l0.078,-0.074l0.078,-0.075l0.077,-0.076l0.076,-0.077l0.075,-0.078l0.074,-0.078l0.073,-0.08l0.073,-0.08l0.071,-0.082l0.07,-0.082l0.07,-0.083l0.068,-0.084l0.067,-0.085l0.067,-0.085l0.065,-0.086l0.064,-0.088l0.064,-0.087l0.062,-0.089l0.061,-0.089l0.06,-0.091l0.059,-0.091l0.058,-0.091l0.057,-0.093l0.056,-0.093l0.055,-0.094l0.054,-0.094l0.052,-0.096l0.051,-0.095l0.05,-0.097l0.05,-0.097l0.047,-0.098l0.047,-0.099l0.046,-0.099l0.044,-0.1l0.043,-0.1l0.043,-0.102l0.04,-0.102l0.04,-0.101l0.038,-0.104l0.038,-0.103l0.035,-0.104l0.035,-0.105l0.034,-0.105l0.032,-0.106l0.031,-0.106l0.029,-0.107l0.029,-0.107l0.027,-0.108l0.026,-0.109l0.024,-0.109l0.023,-0.109l0.022,-0.11l0.02,-0.111l0.019,-0.11l0.018,-0.112l0.017,-0.112l0.015,-0.112l0.013,-0.113l0.012,-0.113l0.011,-0.114l0.01,-0.114l0.008,-0.115l0.006,-0.115l0.005,-0.116l0.004,-0.116l0.002,-0.116l0.001,-0.123l0,-0.988l-0.001,-0.162l-0.003,-0.155l-0.005,-0.154l-0.007,-0.154l-0.008,-0.154l-0.011,-0.152l-0.013,-0.153l-0.014,-0.151l-0.016,-0.151l-0.019,-0.151l-0.02,-0.15l-0.021,-0.149l-0.024,-0.149l-0.026,-0.148l-0.027,-0.147l-0.029,-0.146l-0.031,-0.147l-0.032,-0.145l-0.035,-0.145l-0.036,-0.143l-0.038,-0.144l-0.039,-0.142l-0.041,-0.142l-0.043,-0.141l-0.045,-0.14l-0.046,-0.14l-0.048,-0.139l-0.05,-0.138l-0.051,-0.137l-0.053,-0.137l-0.054,-0.135l-0.056,-0.135l-0.058,-0.134l-0.059,-0.134l-0.061,-0.132l-0.062,-0.131l-0.064,-0.131l-0.066,-0.13l-0.067,-0.128l-0.068,-0.128l-0.07,-0.128l-0.072,-0.126l-0.073,-0.125l-0.074,-0.124l-0.076,-0.123l-0.077,-0.122l-0.079,-0.122l-0.08,-0.12l-0.082,-0.119l-0.083,-0.118l-0.084,-0.118l-0.086,-0.116l-0.087,-0.115l-0.089,-0.114l-0.089,-0.112l-0.091,-0.112l-0.093,-0.111l-0.094,-0.109l-0.095,-0.109l-0.096,-0.107l-0.098,-0.106l-0.098,-0.105l-0.1,-0.104l-0.102,-0.102l-0.102,-0.102l-0.104,-0.1l-0.105,-0.098l-0.106,-0.098l-0.107,-0.096l-0.109,-0.095l-0.109,-0.094l-0.111,-0.092l-0.111,-0.092l-0.113,-0.09l-0.114,-0.088l-0.115,-0.087l-0.117,-0.086l-0.117,-0.084l-0.118,-0.083l-0.119,-0.082l-0.12,-0.08l-0.122,-0.079l-0.122,-0.077l-0.123,-0.076l-0.124,-0.074l-0.125,-0.073l-0.126,-0.072l-0.128,-0.07l-0.127,-0.068l-0.129,-0.067l-0.13,-0.066l-0.131,-0.064l-0.131,-0.062l-0.132,-0.061l-0.134,-0.059l-0.134,-0.058l-0.135,-0.056l-0.135,-0.054l-0.137,-0.053l-0.137,-0.051l-0.138,-0.05l-0.139,-0.048l-0.139,-0.046l-0.141,-0.045l-0.141,-0.043l-0.142,-0.041l-0.142,-0.039l-0.144,-0.038l-0.143,-0.036l-0.145,-0.035l-0.145,-0.032l-0.146,-0.031l-0.147,-0.029l-0.147,-0.027l-0.148,-0.026l-0.149,-0.024l-0.149,-0.021l-0.15,-0.02l-0.151,-0.019l-0.151,-0.016l-0.151,-0.014l-0.153,-0.013l-0.152,-0.011l-0.154,-0.008l-0.154,-0.007l-0.154,-0.005l-0.155,-0.003l-0.156,-0.001l-0.156,0.001Z"/><g><path d="M17.084,2.001l0.084,0.004l0.084,0.006l0.084,0.008l0.083,0.01l0.083,0.013l0.083,0.016l0.083,0.017l0.081,0.02l0.081,0.022l0.081,0.025l0.08,0.026l0.079,0.029l0.078,0.031l0.077,0.034l0.077,0.035l0.075,0.038l0.074,0.039l0.073,0.042l0.072,0.044l0.071,0.046l0.069,0.047l0.068,0.05l0.066,0.051l0.065,0.054l0.064,0.055l0.062,0.057l0.06,0.059l1.6,1.599l0.075,0.077l0.087,0.094l0.084,0.096l0.081,0.097l0.078,0.098l0.076,0.1l0.074,0.103l0.07,0.104l0.067,0.104l0.065,0.106l0.062,0.109l0.059,0.108l0.056,0.11l0.053,0.111l0.05,0.111l0.047,0.113l0.045,0.115l0.042,0.114l0.038,0.116l0.036,0.115l0.033,0.117l0.03,0.117l0.027,0.116l0.025,0.119l0.021,0.118l0.018,0.117l0.016,0.12l0.013,0.119l0.01,0.12l0.007,0.119l0.004,0.119l0.002,0.12l-0.002,0.119l-0.004,0.12l-0.007,0.119l-0.01,0.12l-0.013,0.119l-0.016,0.12l-0.018,0.117l-0.021,0.118l-0.025,0.119l-0.027,0.116l-0.03,0.117l-0.033,0.117l-0.036,0.115l-0.038,0.116l-0.042,0.114l-0.045,0.115l-0.047,0.113l-0.05,0.111l-0.053,0.111l-0.056,0.109l-0.059,0.109l-0.062,0.109l-0.065,0.106l-0.067,0.104l-0.07,0.104l-0.074,0.103l-0.076,0.1l-0.078,0.098l-0.081,0.097l-0.084,0.096l-0.087,0.094l-0.076,0.077l-1.599,1.599l-0.06,0.059l-0.062,0.057l-0.064,0.055l-0.065,0.053l-0.066,0.052l-0.068,0.05l-0.069,0.047l-0.071,0.046l-0.072,0.044l-0.073,0.042l-0.074,0.039l-0.075,0.038l-0.077,0.035l-0.077,0.034l-0.078,0.031l-0.079,0.029l-0.08,0.026l-0.081,0.025l-0.081,0.022l-0.081,0.02l-0.083,0.017l-0.083,0.016l-0.083,0.013l-0.083,0.01l-0.084,0.008l-0.084,0.006l-0.084,0.004l-0.084,0.001l-0.084,-0.001l-0.084,-0.004l-0.084,-0.006l-0.084,-0.008l-0.083,-0.01l-0.084,-0.013l-0.082,-0.016l-0.083,-0.017l-0.081,-0.02l-0.082,-0.022l-0.08,-0.025l-0.08,-0.026l-0.079,-0.029l-0.078,-0.031l-0.077,-0.034l-0.077,-0.035l-0.075,-0.038l-0.074,-0.039l-0.073,-0.042l-0.072,-0.044l-0.071,-0.046l-0.069,-0.047l-0.068,-0.05l-0.066,-0.052l-0.066,-0.053l-0.063,-0.055l-0.062,-0.057l-0.06,-0.059l-0.059,-0.06l-0.057,-0.062l-0.055,-0.063l-0.054,-0.066l-0.051,-0.066l-0.05,-0.068l-0.047,-0.069l-0.046,-0.071l-0.044,-0.072l-0.042,-0.073l-0.039,-0.074l-0.038,-0.075l-0.035,-0.077l-0.034,-0.077l-0.031,-0.078l-0.029,-0.079l-0.026,-0.08l-0.025,-0.081l-0.022,-0.081l-0.02,-0.081l-0.017,-0.083l-0.016,-0.082l-0.013,-0.084l-0.01,-0.083l-0.008,-0.084l-0.006,-0.084l-0.004,-0.084l-0.001,-0.084l0.001,-0.084l0.004,-0.084l0.006,-0.084l0.008,-0.084l0.01,-0.083l0.013,-0.084l0.016,-0.082l0.017,-0.083l0.02,-0.081l0.022,-0.082l0.025,-0.08l0.026,-0.08l0.029,-0.079l0.031,-0.078l0.034,-0.077l0.035,-0.077l0.038,-0.075l0.039,-0.074l0.042,-0.073l0.044,-0.072l0.046,-0.071l0.047,-0.069l0.05,-0.068l0.051,-0.066l0.054,-0.066l0.055,-0.063l0.057,-0.062l0.059,-0.06l0.878,-0.879l-0.878,-0.879l-0.059,-0.06l-0.057,-0.062l-0.055,-0.063l-0.054,-0.066l-0.051,-0.066l-0.05,-0.068l-0.047,-0.069l-0.046,-0.071l-0.044,-0.072l-0.042,-0.073l-0.039,-0.074l-0.038,-0.075l-0.035,-0.077l-0.034,-0.077l-0.031,-0.078l-0.029,-0.079l-0.026,-0.08l-0.025,-0.08l-0.022,-0.082l-0.02,-0.081l-0.017,-0.083l-0.016,-0.082l-0.013,-0.084l-0.01,-0.083l-0.008,-0.084l-0.006,-0.084l-0.004,-0.084l-0.001,-0.084l0.001,-0.084l0.004,-0.084l0.006,-0.084l0.008,-0.084l0.01,-0.083l0.013,-0.084l0.016,-0.082l0.017,-0.083l0.02,-0.081l0.022,-0.082l0.025,-0.08l0.026,-0.08l0.029,-0.079l0.031,-0.078l0.034,-0.077l0.035,-0.077l0.038,-0.075l0.039,-0.074l0.042,-0.073l0.044,-0.072l0.046,-0.071l0.047,-0.069l0.05,-0.068l0.051,-0.066l0.054,-0.066l0.055,-0.063l0.057,-0.062l0.059,-0.06l0.06,-0.059l0.062,-0.057l0.063,-0.055l0.066,-0.053l0.066,-0.052l0.068,-0.05l0.069,-0.047l0.071,-0.046l0.072,-0.044l0.073,-0.042l0.074,-0.039l0.075,-0.038l0.077,-0.035l0.077,-0.034l0.078,-0.031l0.079,-0.029l0.08,-0.026l0.08,-0.025l0.082,-0.022l0.081,-0.02l0.083,-0.017l0.082,-0.016l0.084,-0.013l0.083,-0.01l0.084,-0.008l0.084,-0.006l0.084,-0.004l0.084,-0.001l0.084,0.001Z"/><path d="M29.084,2.001l0.084,0.004l0.084,0.006l0.084,0.008l0.083,0.01l0.083,0.013l0.083,0.016l0.083,0.017l0.081,0.02l0.081,0.022l0.081,0.025l0.08,0.026l0.079,0.029l0.078,0.031l0.077,0.034l0.077,0.035l0.075,0.038l0.074,0.039l0.073,0.042l0.072,0.044l0.071,0.046l0.069,0.047l0.068,0.05l0.066,0.051l0.065,0.054l0.064,0.055l0.062,0.057l0.06,0.059l0.059,0.06l0.057,0.062l0.055,0.063l0.053,0.066l0.052,0.066l0.05,0.068l0.047,0.069l0.046,0.071l0.044,0.072l0.042,0.073l0.039,0.074l0.038,0.075l0.035,0.077l0.034,0.077l0.031,0.078l0.029,0.079l0.026,0.08l0.025,0.08l0.022,0.082l0.02,0.081l0.017,0.083l0.016,0.082l0.013,0.084l0.01,0.083l0.008,0.084l0.006,0.084l0.004,0.084l0.001,0.084l-0.001,0.084l-0.004,0.084l-0.006,0.084l-0.008,0.084l-0.01,0.083l-0.013,0.083l-0.016,0.083l-0.017,0.083l-0.02,0.081l-0.022,0.081l-0.025,0.081l-0.026,0.08l-0.029,0.079l-0.031,0.078l-0.034,0.077l-0.035,0.077l-0.038,0.075l-0.039,0.074l-0.042,0.073l-0.044,0.072l-0.046,0.071l-0.047,0.069l-0.05,0.068l-0.052,0.066l-0.053,0.065l-0.055,0.064l-0.057,0.062l-0.059,0.06l-0.878,0.879l0.878,0.879l0.059,0.06l0.057,0.062l0.055,0.064l0.053,0.065l0.052,0.066l0.05,0.068l0.047,0.069l0.046,0.071l0.044,0.072l0.042,0.073l0.039,0.074l0.038,0.075l0.035,0.077l0.034,0.077l0.031,0.078l0.029,0.079l0.026,0.08l0.025,0.081l0.022,0.081l0.02,0.081l0.017,0.083l0.016,0.083l0.013,0.083l0.01,0.083l0.008,0.084l0.006,0.084l0.004,0.084l0.001,0.084l-0.001,0.084l-0.004,0.084l-0.006,0.084l-0.008,0.084l-0.01,0.083l-0.013,0.084l-0.016,0.082l-0.017,0.083l-0.02,0.081l-0.022,0.082l-0.025,0.08l-0.026,0.08l-0.029,0.079l-0.031,0.078l-0.034,0.077l-0.035,0.077l-0.038,0.075l-0.039,0.074l-0.042,0.073l-0.044,0.072l-0.046,0.071l-0.047,0.069l-0.05,0.068l-0.052,0.066l-0.053,0.066l-0.055,0.063l-0.057,0.062l-0.059,0.06l-0.06,0.059l-0.062,0.057l-0.064,0.055l-0.065,0.054l-0.066,0.051l-0.068,0.05l-0.069,0.047l-0.071,0.046l-0.072,0.044l-0.073,0.042l-0.074,0.039l-0.075,0.038l-0.077,0.035l-0.077,0.034l-0.078,0.031l-0.079,0.029l-0.08,0.026l-0.081,0.025l-0.081,0.022l-0.081,0.02l-0.083,0.017l-0.083,0.016l-0.083,0.013l-0.083,0.01l-0.084,0.008l-0.084,0.006l-0.084,0.004l-0.084,0.001l-0.084,-0.001l-0.084,-0.004l-0.084,-0.006l-0.084,-0.008l-0.083,-0.01l-0.084,-0.013l-0.082,-0.016l-0.083,-0.017l-0.081,-0.02l-0.082,-0.022l-0.08,-0.025l-0.08,-0.026l-0.079,-0.029l-0.078,-0.031l-0.077,-0.034l-0.077,-0.035l-0.075,-0.038l-0.074,-0.039l-0.073,-0.042l-0.072,-0.044l-0.071,-0.046l-0.069,-0.047l-0.068,-0.05l-0.067,-0.052l-0.065,-0.053l-0.063,-0.055l-0.062,-0.057l-0.06,-0.059l-1.599,-1.599l-0.076,-0.077l-0.087,-0.094l-0.083,-0.095l-0.082,-0.097l-0.079,-0.1l-0.076,-0.1l-0.072,-0.101l-0.07,-0.104l-0.068,-0.106l-0.065,-0.106l-0.062,-0.108l-0.059,-0.109l-0.055,-0.108l-0.054,-0.112l-0.05,-0.112l-0.048,-0.113l-0.044,-0.114l-0.042,-0.114l-0.038,-0.114l-0.036,-0.117l-0.033,-0.117l-0.03,-0.116l-0.027,-0.118l-0.024,-0.118l-0.022,-0.118l-0.018,-0.119l-0.016,-0.118l-0.013,-0.119l-0.01,-0.12l-0.007,-0.119l-0.004,-0.12l-0.002,-0.119l0.002,-0.12l0.004,-0.119l0.007,-0.119l0.01,-0.12l0.013,-0.119l0.016,-0.118l0.018,-0.119l0.021,-0.118l0.025,-0.118l0.027,-0.118l0.03,-0.116l0.033,-0.117l0.036,-0.117l0.038,-0.114l0.042,-0.114l0.044,-0.114l0.048,-0.113l0.051,-0.113l0.053,-0.11l0.055,-0.11l0.059,-0.108l0.062,-0.108l0.064,-0.106l0.068,-0.106l0.071,-0.104l0.072,-0.101l0.076,-0.101l0.079,-0.099l0.081,-0.097l0.084,-0.095l0.087,-0.094l0.075,-0.077l1.6,-1.599l0.06,-0.059l0.062,-0.057l0.063,-0.055l0.065,-0.053l0.067,-0.052l0.068,-0.05l0.069,-0.047l0.071,-0.046l0.072,-0.044l0.073,-0.042l0.074,-0.039l0.075,-0.038l0.077,-0.035l0.077,-0.034l0.078,-0.031l0.079,-0.029l0.08,-0.026l0.08,-0.025l0.082,-0.022l0.081,-0.02l0.083,-0.017l0.082,-0.016l0.084,-0.013l0.083,-0.01l0.084,-0.008l0.084,-0.006l0.084,-0.004l0.084,-0.001l0.084,0.001Z"/><path d="M23.119,7.83l0.12,0.004l0.12,0.007l0.119,0.01l0.118,0.013l0.119,0.016l0.119,0.018l0.118,0.022l0.118,0.024l0.118,0.027l0.117,0.03l0.116,0.033l0.116,0.036l0.115,0.038l0.114,0.042l0.114,0.045l0.113,0.047l0.112,0.05l0.111,0.053l0.11,0.057l0.109,0.059l0.107,0.061l0.106,0.065l0.106,0.067l0.103,0.07l0.103,0.074l0.1,0.075l0.098,0.079l0.098,0.081l0.095,0.084l0.093,0.087l0.078,0.075l1.599,1.6l0.059,0.06l0.057,0.062l0.055,0.064l0.053,0.065l0.052,0.066l0.05,0.068l0.047,0.069l0.046,0.071l0.044,0.072l0.042,0.073l0.039,0.074l0.038,0.075l0.035,0.077l0.034,0.077l0.031,0.078l0.029,0.079l0.026,0.08l0.025,0.081l0.022,0.081l0.02,0.081l0.017,0.083l0.016,0.083l0.013,0.083l0.01,0.083l0.008,0.084l0.006,0.084l0.004,0.084l0.001,0.084l-0.001,0.084l-0.004,0.084l-0.006,0.084l-0.008,0.084l-0.01,0.083l-0.013,0.084l-0.016,0.082l-0.017,0.083l-0.02,0.081l-0.022,0.082l-0.025,0.08l-0.026,0.08l-0.029,0.079l-0.031,0.078l-0.034,0.077l-0.035,0.077l-0.038,0.075l-0.039,0.074l-0.042,0.073l-0.044,0.072l-0.046,0.071l-0.047,0.069l-0.05,0.068l-0.052,0.066l-0.053,0.066l-0.055,0.063l-0.057,0.062l-0.059,0.06l-0.06,0.059l-0.062,0.057l-0.064,0.055l-0.065,0.054l-0.066,0.051l-0.068,0.05l-0.069,0.047l-0.071,0.046l-0.072,0.044l-0.073,0.042l-0.074,0.039l-0.075,0.038l-0.077,0.035l-0.077,0.034l-0.078,0.031l-0.079,0.029l-0.08,0.026l-0.081,0.025l-0.081,0.022l-0.081,0.02l-0.083,0.017l-0.083,0.016l-0.083,0.013l-0.083,0.01l-0.084,0.008l-0.084,0.006l-0.084,0.004l-0.084,0.001l-0.084,-0.001l-0.084,-0.004l-0.084,-0.006l-0.084,-0.008l-0.083,-0.01l-0.084,-0.013l-0.082,-0.016l-0.083,-0.017l-0.081,-0.02l-0.082,-0.022l-0.08,-0.025l-0.08,-0.026l-0.079,-0.029l-0.078,-0.031l-0.077,-0.034l-0.077,-0.035l-0.075,-0.038l-0.074,-0.039l-0.073,-0.042l-0.072,-0.044l-0.071,-0.046l-0.069,-0.047l-0.068,-0.05l-0.067,-0.052l-0.065,-0.053l-0.063,-0.055l-0.062,-0.057l-0.06,-0.059l-0.879,-0.878l-0.879,0.878l-0.06,0.059l-0.062,0.057l-0.064,0.055l-0.065,0.054l-0.066,0.051l-0.068,0.05l-0.069,0.047l-0.071,0.046l-0.072,0.044l-0.073,0.042l-0.074,0.039l-0.075,0.038l-0.077,0.035l-0.077,0.034l-0.078,0.031l-0.079,0.029l-0.08,0.026l-0.081,0.025l-0.081,0.022l-0.081,0.02l-0.083,0.017l-0.083,0.016l-0.083,0.013l-0.083,0.01l-0.084,0.008l-0.084,0.006l-0.084,0.004l-0.084,0.001l-0.084,-0.001l-0.084,-0.004l-0.084,-0.006l-0.084,-0.008l-0.083,-0.01l-0.084,-0.013l-0.082,-0.016l-0.083,-0.017l-0.081,-0.02l-0.082,-0.022l-0.08,-0.025l-0.08,-0.026l-0.079,-0.029l-0.078,-0.031l-0.077,-0.034l-0.077,-0.035l-0.075,-0.038l-0.074,-0.039l-0.073,-0.042l-0.072,-0.044l-0.071,-0.046l-0.069,-0.047l-0.068,-0.05l-0.066,-0.052l-0.066,-0.053l-0.063,-0.055l-0.062,-0.057l-0.06,-0.059l-0.059,-0.06l-0.057,-0.062l-0.055,-0.063l-0.054,-0.066l-0.051,-0.066l-0.05,-0.068l-0.047,-0.069l-0.046,-0.071l-0.044,-0.072l-0.042,-0.073l-0.039,-0.074l-0.038,-0.075l-0.035,-0.077l-0.034,-0.077l-0.031,-0.078l-0.029,-0.079l-0.026,-0.08l-0.025,-0.08l-0.022,-0.082l-0.02,-0.081l-0.017,-0.083l-0.016,-0.082l-0.013,-0.084l-0.01,-0.083l-0.008,-0.084l-0.006,-0.084l-0.004,-0.084l-0.001,-0.084l0.001,-0.084l0.004,-0.084l0.006,-0.084l0.008,-0.084l0.01,-0.083l0.013,-0.084l0.016,-0.082l0.017,-0.083l0.02,-0.081l0.022,-0.082l0.025,-0.08l0.026,-0.08l0.029,-0.079l0.031,-0.078l0.034,-0.077l0.035,-0.077l0.038,-0.075l0.039,-0.074l0.042,-0.073l0.044,-0.072l0.046,-0.071l0.047,-0.069l0.05,-0.068l0.051,-0.066l0.054,-0.066l0.055,-0.063l0.057,-0.062l0.059,-0.06l1.599,-1.6l0.078,-0.075l0.093,-0.087l0.095,-0.084l0.097,-0.081l0.099,-0.079l0.101,-0.076l0.102,-0.073l0.103,-0.07l0.105,-0.067l0.107,-0.065l0.108,-0.062l0.108,-0.058l0.11,-0.057l0.111,-0.053l0.112,-0.05l0.113,-0.047l0.114,-0.045l0.114,-0.042l0.115,-0.038l0.116,-0.036l0.116,-0.033l0.117,-0.03l0.118,-0.027l0.118,-0.024l0.118,-0.022l0.119,-0.018l0.118,-0.016l0.119,-0.013l0.119,-0.01l0.12,-0.007l0.12,-0.004l0.119,-0.002l0.119,0.002Z"/><path d="M20.084,0.001l0.084,0.004l0.084,0.006l0.084,0.008l0.083,0.01l0.083,0.013l0.083,0.016l0.083,0.017l0.081,0.02l0.081,0.022l0.081,0.025l0.08,0.026l0.079,0.029l0.078,0.031l0.077,0.034l0.077,0.035l0.075,0.038l0.074,0.039l0.073,0.042l0.072,0.044l0.071,0.046l0.069,0.047l0.068,0.05l0.066,0.052l0.065,0.053l0.064,0.055l0.062,0.057l0.06,0.059l0.879,0.878l0.879,-0.878l0.06,-0.059l0.062,-0.057l0.063,-0.055l0.065,-0.053l0.067,-0.052l0.068,-0.05l0.069,-0.047l0.071,-0.046l0.072,-0.044l0.073,-0.042l0.074,-0.039l0.075,-0.038l0.077,-0.035l0.077,-0.034l0.078,-0.031l0.079,-0.029l0.08,-0.026l0.08,-0.025l0.082,-0.022l0.081,-0.02l0.083,-0.017l0.082,-0.016l0.084,-0.013l0.083,-0.01l0.084,-0.008l0.084,-0.006l0.084,-0.004l0.084,-0.001l0.084,0.001l0.084,0.004l0.084,0.006l0.084,0.008l0.083,0.01l0.083,0.013l0.083,0.016l0.083,0.017l0.081,0.02l0.081,0.022l0.081,0.025l0.08,0.026l0.079,0.029l0.078,0.031l0.077,0.034l0.077,0.035l0.075,0.038l0.074,0.039l0.073,0.042l0.072,0.044l0.071,0.046l0.069,0.047l0.068,0.05l0.066,0.051l0.065,0.054l0.064,0.055l0.062,0.057l0.06,0.059l0.059,0.06l0.057,0.062l0.055,0.063l0.053,0.066l0.052,0.066l0.05,0.068l0.047,0.069l0.046,0.071l0.044,0.072l0.042,0.073l0.039,0.074l0.038,0.075l0.035,0.077l0.034,0.077l0.031,0.078l0.029,0.079l0.026,0.08l0.025,0.08l0.022,0.082l0.02,0.081l0.017,0.083l0.016,0.082l0.013,0.084l0.01,0.083l0.008,0.084l0.006,0.084l0.004,0.084l0.001,0.084l-0.001,0.084l-0.004,0.084l-0.006,0.084l-0.008,0.084l-0.01,0.083l-0.013,0.083l-0.016,0.083l-0.017,0.083l-0.02,0.081l-0.022,0.081l-0.025,0.081l-0.026,0.08l-0.029,0.079l-0.031,0.078l-0.034,0.077l-0.035,0.077l-0.038,0.075l-0.039,0.074l-0.042,0.073l-0.044,0.072l-0.046,0.071l-0.047,0.069l-0.05,0.068l-0.052,0.066l-0.053,0.065l-0.055,0.064l-0.057,0.062l-0.059,0.06l-1.599,1.6l-0.078,0.076l-0.093,0.086l-0.095,0.084l-0.098,0.081l-0.098,0.079l-0.1,0.075l-0.103,0.074l-0.104,0.07l-0.105,0.067l-0.106,0.065l-0.107,0.061l-0.109,0.059l-0.111,0.057l-0.11,0.053l-0.111,0.05l-0.114,0.048l-0.114,0.044l-0.114,0.042l-0.115,0.038l-0.116,0.036l-0.116,0.033l-0.117,0.03l-0.118,0.027l-0.118,0.024l-0.118,0.022l-0.119,0.018l-0.119,0.016l-0.119,0.013l-0.119,0.01l-0.119,0.007l-0.12,0.004l-0.119,0.002l-0.119,-0.002l-0.12,-0.004l-0.119,-0.007l-0.12,-0.01l-0.119,-0.013l-0.118,-0.016l-0.119,-0.018l-0.118,-0.022l-0.118,-0.024l-0.118,-0.027l-0.117,-0.03l-0.116,-0.033l-0.116,-0.036l-0.115,-0.038l-0.114,-0.042l-0.114,-0.045l-0.113,-0.047l-0.112,-0.05l-0.111,-0.053l-0.11,-0.057l-0.109,-0.058l-0.107,-0.062l-0.107,-0.065l-0.104,-0.067l-0.104,-0.07l-0.102,-0.073l-0.101,-0.076l-0.099,-0.079l-0.097,-0.081l-0.095,-0.084l-0.093,-0.086l-0.078,-0.076l-1.599,-1.6l-0.059,-0.06l-0.057,-0.062l-0.055,-0.063l-0.054,-0.066l-0.051,-0.066l-0.05,-0.068l-0.047,-0.069l-0.046,-0.071l-0.044,-0.072l-0.042,-0.073l-0.039,-0.074l-0.038,-0.075l-0.035,-0.077l-0.034,-0.077l-0.031,-0.078l-0.029,-0.079l-0.026,-0.08l-0.025,-0.08l-0.022,-0.082l-0.02,-0.081l-0.017,-0.083l-0.016,-0.082l-0.013,-0.084l-0.01,-0.083l-0.008,-0.084l-0.006,-0.084l-0.004,-0.084l-0.001,-0.084l0.001,-0.084l0.004,-0.084l0.006,-0.084l0.008,-0.084l0.01,-0.083l0.013,-0.084l0.016,-0.082l0.017,-0.083l0.02,-0.081l0.022,-0.081l0.025,-0.081l0.026,-0.08l0.029,-0.079l0.031,-0.078l0.034,-0.077l0.035,-0.077l0.038,-0.075l0.039,-0.074l0.042,-0.073l0.044,-0.072l0.046,-0.071l0.047,-0.069l0.05,-0.068l0.051,-0.066l0.054,-0.066l0.055,-0.063l0.057,-0.062l0.059,-0.06l0.06,-0.059l0.062,-0.057l0.063,-0.055l0.066,-0.053l0.066,-0.052l0.068,-0.05l0.069,-0.047l0.071,-0.046l0.072,-0.044l0.073,-0.042l0.074,-0.039l0.075,-0.038l0.077,-0.035l0.077,-0.034l0.078,-0.031l0.079,-0.029l0.08,-0.026l0.08,-0.025l0.082,-0.022l0.081,-0.02l0.083,-0.017l0.082,-0.016l0.084,-0.013l0.083,-0.01l0.084,-0.008l0.084,-0.006l0.084,-0.004l0.084,-0.001l0.084,0.001Z"/></g></g><g id="emoji"><path d="M30,18c0,-7.732 -6.268,-14 -14,-14c0,0 0,0 0,0c-7.732,0 -14,6.268 -14,14c0,0.335 0,0.668 0,1c0,6.075 4.925,11 11,11c1.972,0 4.028,0 6,0c6.075,0 11,-4.925 11,-11c0,-0.332 0,-0.665 0,-1Z" style="fill:#fbc546;"/><rect x="3" y="20.018" width="26" height="11.982"/><path d="M18.604,29.925c-0.596,-0.322 -1.06,-0.773 -1.392,-1.352c-0.332,-0.58 -0.498,-1.249 -0.498,-2.006l0,-0.704c0,-0.758 0.166,-1.426 0.498,-2.006c0.332,-0.58 0.796,-1.031 1.392,-1.352c0.597,-0.322 1.281,-0.483 2.052,-0.483c0.757,0 1.434,0.159 2.031,0.478c0.596,0.318 1.062,0.765 1.397,1.342c0.335,0.576 0.503,1.233 0.503,1.971l0,0.703c0,0.644 -0.161,1.135 -0.483,1.473c-0.321,0.339 -0.727,0.508 -1.216,0.508c-0.302,0 -0.56,-0.057 -0.775,-0.171c-0.214,-0.114 -0.378,-0.275 -0.492,-0.482c-0.215,0.435 -0.644,0.653 -1.287,0.653c-1.012,0 -1.518,-0.606 -1.518,-1.82l0,-0.885c0,-0.576 0.118,-1.025 0.356,-1.347c0.238,-0.322 0.602,-0.482 1.091,-0.482c0.242,0 0.455,0.046 0.639,0.14c0.184,0.094 0.32,0.218 0.407,0.372l0,-0.402l1.096,0l0,2.866c0,0.214 0.045,0.373 0.136,0.477c0.09,0.104 0.209,0.156 0.357,0.156c0.187,0 0.328,-0.082 0.422,-0.246c0.094,-0.164 0.141,-0.431 0.141,-0.8l0,-0.703c0,-0.57 -0.113,-1.064 -0.337,-1.483c-0.225,-0.419 -0.546,-0.743 -0.965,-0.971c-0.419,-0.228 -0.92,-0.342 -1.503,-0.342c-0.879,0 -1.567,0.252 -2.067,0.755c-0.499,0.502 -0.749,1.189 -0.749,2.061l0,0.714c0,0.569 0.112,1.069 0.337,1.498c0.225,0.429 0.548,0.761 0.97,0.995c0.423,0.235 0.925,0.352 1.509,0.352c0.402,0 0.764,-0.042 1.085,-0.126c0.322,-0.083 0.654,-0.212 0.996,-0.387l0.442,0.855c-0.389,0.228 -0.784,0.395 -1.186,0.503c-0.402,0.107 -0.848,0.161 -1.337,0.161c-0.771,0 -1.455,-0.161 -2.052,-0.483Zm-4.615,-0.282l-0.895,0l0,-0.915c-0.596,-0.06 -1.062,-0.259 -1.397,-0.598c-0.335,-0.338 -0.516,-0.796 -0.543,-1.372l1.156,0c0.04,0.328 0.159,0.563 0.357,0.704c0.198,0.14 0.501,0.211 0.91,0.211c0.369,0 0.649,-0.067 0.84,-0.201c0.191,-0.134 0.286,-0.332 0.286,-0.594c0,-0.234 -0.064,-0.415 -0.191,-0.543c-0.127,-0.127 -0.335,-0.207 -0.623,-0.241l-0.754,-0.1c-1.214,-0.161 -1.82,-0.744 -1.82,-1.75c0,-0.516 0.156,-0.937 0.467,-1.262c0.312,-0.325 0.749,-0.524 1.312,-0.598l0,-0.784l0.895,0l0,0.774c0.557,0.06 0.992,0.248 1.307,0.563c0.315,0.315 0.493,0.744 0.533,1.287l-1.176,0c-0.027,-0.282 -0.131,-0.489 -0.312,-0.623c-0.181,-0.135 -0.446,-0.202 -0.794,-0.202c-0.329,0 -0.58,0.066 -0.754,0.197c-0.174,0.13 -0.262,0.316 -0.262,0.558c0,0.214 0.072,0.383 0.217,0.507c0.144,0.124 0.377,0.21 0.698,0.257l0.785,0.11c1.132,0.161 1.699,0.748 1.699,1.76c0,0.556 -0.171,1 -0.513,1.332c-0.342,0.332 -0.818,0.531 -1.428,0.598l0,0.925Zm-7.169,-0.603l-1.035,0l0.271,-2.051l-1.056,0l0,-0.925l1.177,0l0.151,-1.106l-1.046,0l0,-0.925l1.166,0l0.252,-1.931l1.035,0l-0.251,1.931l1.126,0l0.251,-1.931l1.036,0l-0.251,1.931l1.045,0l0,0.925l-1.166,0l-0.141,1.106l1.026,0l0,0.925l-1.146,0l-0.272,2.051l-1.046,0l0.272,-2.051l-1.126,0l-0.272,2.051Zm20.13,0l-1.317,0l0,-1.307l1.317,0l0,1.307Zm-5.661,-2.393l0,-0.844c0,-0.597 -0.221,-0.895 -0.664,-0.895c-0.234,0 -0.407,0.078 -0.517,0.236c-0.111,0.157 -0.166,0.374 -0.166,0.648l0,0.825c0,0.302 0.053,0.533 0.161,0.694c0.107,0.161 0.281,0.241 0.522,0.241c0.443,0 0.664,-0.302 0.664,-0.905Zm5.47,0.081l-0.935,0l-0.242,-4.626l1.418,0l-0.241,4.626Zm-18.27,-1.77l-1.126,0l-0.151,1.106l1.127,0l0.15,-1.106Z" style="fill:#fff;fill-rule:nonzero;"/><path d="M8,13.999c0,-0.552 0.447,-0.999 0.999,-0.999c0.001,0 0.001,0 0.001,0l3,3c0,0 0,0.449 0,1c0,0.53 -0.211,1.039 -0.586,1.414c-0.375,0.375 -0.884,0.586 -1.414,0.586c-1.105,0 -2,-0.895 -2,-2c0,-1.008 0,-2.186 0,-3.001Z"/><path d="M20,16l3,-3c0,0 0,0 0.001,0c0.552,0 0.999,0.447 0.999,0.999c0,0.815 0,1.993 0,3.001c0,1.105 -0.895,2 -2,2c-0.001,0 -0.001,0 -0.002,0c-1.103,0 -1.998,-0.895 -1.998,-1.998c0,-0.552 0,-1.002 0,-1.002Z"/><g><path d="M17.06,4.002l0.049,0.004l0.047,0.006l0.048,0.009l0.047,0.011l0.046,0.013l0.046,0.016l0.045,0.017l0.044,0.02l0.043,0.022l0.042,0.024l0.041,0.026l0.04,0.028l0.038,0.03l0.036,0.032l0.035,0.033l1.59,1.59l0.05,0.051l0.052,0.056l0.05,0.057l0.049,0.059l0.047,0.059l0.046,0.06l0.044,0.062l0.042,0.062l0.04,0.062l0.039,0.064l0.037,0.065l0.035,0.065l0.034,0.066l0.031,0.066l0.03,0.067l0.029,0.067l0.027,0.069l0.024,0.068l0.024,0.069l0.021,0.07l0.02,0.07l0.018,0.07l0.016,0.07l0.015,0.071l0.013,0.071l0.011,0.071l0.009,0.072l0.008,0.071l0.006,0.072l0.004,0.071l0.003,0.072l0.001,0.072l-0.001,0.072l-0.003,0.072l-0.004,0.071l-0.006,0.072l-0.008,0.071l-0.009,0.072l-0.011,0.071l-0.013,0.071l-0.015,0.071l-0.016,0.07l-0.018,0.07l-0.02,0.07l-0.021,0.07l-0.023,0.069l-0.025,0.068l-0.027,0.069l-0.029,0.067l-0.03,0.067l-0.031,0.066l-0.034,0.066l-0.035,0.065l-0.037,0.065l-0.039,0.064l-0.04,0.062l-0.042,0.062l-0.044,0.062l-0.046,0.06l-0.047,0.059l-0.049,0.059l-0.05,0.057l-0.052,0.056l-0.05,0.051l-1.59,1.59l-0.035,0.033l-0.036,0.032l-0.038,0.03l-0.04,0.028l-0.041,0.026l-0.042,0.024l-0.043,0.022l-0.044,0.02l-0.045,0.017l-0.046,0.016l-0.046,0.013l-0.047,0.011l-0.048,0.009l-0.047,0.006l-0.049,0.004l-0.048,0.002l-0.048,-0.001l-0.048,-0.003l-0.049,-0.005l-0.047,-0.007l-0.048,-0.01l-0.046,-0.012l-0.047,-0.015l-0.045,-0.016l-0.044,-0.019l-0.044,-0.021l-0.043,-0.023l-0.041,-0.025l-0.04,-0.027l-0.039,-0.029l-0.037,-0.031l-0.036,-0.032l-0.034,-0.034l-0.032,-0.036l-0.031,-0.037l-0.029,-0.039l-0.027,-0.04l-0.025,-0.041l-0.023,-0.043l-0.021,-0.044l-0.019,-0.044l-0.016,-0.046l-0.015,-0.046l-0.012,-0.046l-0.01,-0.048l-0.007,-0.047l-0.005,-0.049l-0.003,-0.048l-0.001,-0.048l0.002,-0.048l0.004,-0.049l0.006,-0.047l0.009,-0.048l0.011,-0.047l0.013,-0.047l0.016,-0.045l0.017,-0.045l0.02,-0.044l0.022,-0.043l0.024,-0.042l0.026,-0.041l0.028,-0.04l0.03,-0.038l0.032,-0.036l0.033,-0.035l1.581,-1.581l0.023,-0.024l0.018,-0.019l0.017,-0.019l0.016,-0.02l0.016,-0.02l0.015,-0.02l0.014,-0.02l0.014,-0.02l0.014,-0.022l0.013,-0.021l0.012,-0.021l0.011,-0.021l0.012,-0.022l0.01,-0.022l0.01,-0.022l0.009,-0.022l0.009,-0.023l0.008,-0.022l0.008,-0.023l0.007,-0.023l0.007,-0.024l0.006,-0.023l0.005,-0.024l0.005,-0.023l0.004,-0.024l0.004,-0.024l0.003,-0.024l0.003,-0.024l0.002,-0.024l0.001,-0.024l0.001,-0.024l0.001,-0.024l-0.001,-0.024l-0.001,-0.024l-0.001,-0.024l-0.002,-0.024l-0.003,-0.024l-0.003,-0.024l-0.004,-0.024l-0.004,-0.024l-0.005,-0.023l-0.005,-0.024l-0.006,-0.023l-0.007,-0.024l-0.007,-0.023l-0.008,-0.023l-0.008,-0.022l-0.009,-0.023l-0.009,-0.022l-0.01,-0.022l-0.011,-0.022l-0.011,-0.022l-0.011,-0.021l-0.012,-0.021l-0.013,-0.021l-0.014,-0.022l-0.014,-0.02l-0.014,-0.02l-0.015,-0.02l-0.016,-0.02l-0.016,-0.02l-0.017,-0.019l-0.018,-0.019l-0.023,-0.024l-1.581,-1.581l-0.033,-0.035l-0.032,-0.036l-0.03,-0.038l-0.028,-0.04l-0.026,-0.041l-0.024,-0.042l-0.022,-0.043l-0.02,-0.044l-0.017,-0.045l-0.016,-0.045l-0.013,-0.047l-0.011,-0.047l-0.009,-0.048l-0.006,-0.047l-0.004,-0.049l-0.002,-0.048l0.001,-0.048l0.003,-0.048l0.005,-0.049l0.007,-0.047l0.01,-0.048l0.012,-0.046l0.015,-0.046l0.016,-0.046l0.019,-0.044l0.021,-0.044l0.023,-0.043l0.025,-0.041l0.027,-0.04l0.029,-0.039l0.031,-0.037l0.032,-0.036l0.034,-0.034l0.036,-0.032l0.037,-0.031l0.039,-0.029l0.04,-0.027l0.041,-0.025l0.043,-0.023l0.044,-0.021l0.044,-0.019l0.045,-0.016l0.047,-0.015l0.046,-0.012l0.048,-0.01l0.047,-0.007l0.049,-0.005l0.048,-0.003l0.048,-0.001l0.048,0.002Z" style="fill:#f00;"/><path d="M29.036,4.001l0.048,0.003l0.049,0.005l0.047,0.007l0.048,0.01l0.046,0.012l0.046,0.015l0.046,0.016l0.044,0.019l0.044,0.021l0.042,0.023l0.042,0.025l0.04,0.027l0.039,0.029l0.037,0.031l0.036,0.032l0.034,0.034l0.032,0.036l0.031,0.037l0.029,0.039l0.027,0.04l0.025,0.041l0.023,0.043l0.021,0.044l0.019,0.044l0.016,0.046l0.015,0.046l0.012,0.046l0.01,0.048l0.007,0.047l0.005,0.049l0.003,0.048l0.001,0.048l-0.002,0.048l-0.004,0.049l-0.006,0.047l-0.009,0.048l-0.011,0.047l-0.013,0.046l-0.016,0.046l-0.017,0.045l-0.02,0.044l-0.022,0.043l-0.024,0.042l-0.026,0.041l-0.028,0.04l-0.03,0.038l-0.032,0.036l-0.033,0.035l-1.581,1.581l-0.023,0.024l-0.018,0.019l-0.017,0.019l-0.016,0.02l-0.016,0.02l-0.015,0.02l-0.015,0.02l-0.014,0.021l-0.013,0.02l-0.013,0.021l-0.012,0.022l-0.011,0.021l-0.012,0.022l-0.01,0.022l-0.01,0.022l-0.009,0.022l-0.009,0.023l-0.008,0.022l-0.008,0.024l-0.007,0.022l-0.007,0.024l-0.006,0.023l-0.005,0.023l-0.005,0.024l-0.004,0.024l-0.004,0.024l-0.003,0.024l-0.003,0.024l-0.002,0.024l-0.001,0.024l-0.001,0.024l0,0.024l0,0.024l0.001,0.024l0.001,0.024l0.002,0.024l0.003,0.024l0.003,0.024l0.004,0.024l0.004,0.024l0.005,0.024l0.005,0.023l0.006,0.023l0.007,0.024l0.007,0.022l0.008,0.024l0.008,0.022l0.009,0.023l0.009,0.022l0.01,0.022l0.01,0.022l0.012,0.022l0.011,0.021l0.012,0.022l0.013,0.021l0.013,0.02l0.014,0.021l0.015,0.02l0.015,0.021l0.016,0.019l0.016,0.02l0.017,0.019l0.018,0.019l0.023,0.024l1.581,1.581l0.033,0.035l0.032,0.036l0.03,0.038l0.028,0.04l0.026,0.041l0.024,0.042l0.022,0.043l0.02,0.044l0.017,0.045l0.016,0.046l0.013,0.046l0.011,0.047l0.009,0.048l0.006,0.047l0.004,0.049l0.002,0.048l-0.001,0.048l-0.003,0.048l-0.005,0.049l-0.007,0.047l-0.01,0.048l-0.012,0.046l-0.015,0.046l-0.016,0.046l-0.019,0.044l-0.021,0.044l-0.023,0.043l-0.025,0.041l-0.027,0.04l-0.029,0.039l-0.031,0.037l-0.032,0.036l-0.034,0.034l-0.036,0.032l-0.037,0.031l-0.039,0.029l-0.04,0.027l-0.042,0.025l-0.042,0.023l-0.044,0.021l-0.044,0.019l-0.046,0.016l-0.046,0.015l-0.046,0.012l-0.048,0.01l-0.047,0.007l-0.049,0.005l-0.048,0.003l-0.048,0.001l-0.048,-0.002l-0.049,-0.004l-0.047,-0.006l-0.048,-0.009l-0.047,-0.011l-0.047,-0.013l-0.045,-0.016l-0.045,-0.017l-0.044,-0.02l-0.043,-0.022l-0.042,-0.024l-0.041,-0.026l-0.04,-0.028l-0.038,-0.03l-0.036,-0.032l-0.035,-0.033l-1.59,-1.59l-0.05,-0.051l-0.052,-0.056l-0.05,-0.057l-0.049,-0.058l-0.047,-0.06l-0.046,-0.06l-0.043,-0.061l-0.043,-0.062l-0.04,-0.063l-0.039,-0.064l-0.037,-0.065l-0.035,-0.065l-0.033,-0.065l-0.032,-0.067l-0.031,-0.067l-0.028,-0.068l-0.027,-0.068l-0.024,-0.068l-0.024,-0.069l-0.021,-0.07l-0.02,-0.07l-0.018,-0.069l-0.016,-0.071l-0.015,-0.071l-0.013,-0.071l-0.011,-0.071l-0.009,-0.072l-0.008,-0.071l-0.006,-0.072l-0.004,-0.071l-0.003,-0.072l-0.001,-0.072l0.001,-0.072l0.003,-0.072l0.004,-0.071l0.006,-0.072l0.008,-0.071l0.009,-0.072l0.011,-0.071l0.013,-0.071l0.015,-0.071l0.016,-0.071l0.018,-0.069l0.02,-0.07l0.021,-0.07l0.024,-0.069l0.024,-0.068l0.027,-0.068l0.028,-0.068l0.031,-0.067l0.032,-0.067l0.033,-0.065l0.035,-0.065l0.037,-0.065l0.039,-0.063l0.04,-0.064l0.043,-0.062l0.043,-0.061l0.046,-0.06l0.047,-0.06l0.049,-0.058l0.05,-0.057l0.052,-0.056l0.05,-0.051l1.59,-1.59l0.035,-0.033l0.036,-0.032l0.038,-0.03l0.04,-0.028l0.041,-0.026l0.042,-0.024l0.043,-0.022l0.044,-0.02l0.045,-0.017l0.045,-0.016l0.047,-0.013l0.047,-0.011l0.048,-0.009l0.047,-0.006l0.049,-0.004l0.048,-0.002l0.048,0.001Z" style="fill:#f00;"/><path d="M23.072,9.829l0.072,0.003l0.071,0.004l0.072,0.006l0.071,0.008l0.072,0.009l0.071,0.011l0.071,0.013l0.071,0.015l0.07,0.016l0.071,0.018l0.069,0.02l0.07,0.021l0.069,0.024l0.068,0.024l0.068,0.027l0.068,0.029l0.067,0.03l0.066,0.031l0.066,0.034l0.066,0.035l0.064,0.037l0.064,0.039l0.062,0.04l0.063,0.042l0.061,0.044l0.06,0.046l0.059,0.047l0.059,0.049l0.057,0.05l0.056,0.052l0.051,0.05l1.59,1.59l0.033,0.035l0.032,0.036l0.03,0.038l0.028,0.04l0.026,0.041l0.024,0.042l0.022,0.043l0.02,0.044l0.017,0.045l0.016,0.046l0.013,0.046l0.011,0.047l0.009,0.048l0.006,0.047l0.004,0.049l0.002,0.048l-0.001,0.048l-0.003,0.048l-0.005,0.049l-0.007,0.047l-0.01,0.048l-0.012,0.046l-0.015,0.046l-0.016,0.046l-0.019,0.044l-0.021,0.044l-0.023,0.043l-0.025,0.041l-0.027,0.04l-0.029,0.039l-0.031,0.037l-0.032,0.036l-0.034,0.034l-0.036,0.032l-0.037,0.031l-0.039,0.029l-0.04,0.027l-0.042,0.025l-0.042,0.023l-0.044,0.021l-0.044,0.019l-0.046,0.016l-0.046,0.015l-0.046,0.012l-0.048,0.01l-0.047,0.007l-0.049,0.005l-0.048,0.003l-0.048,0.001l-0.048,-0.002l-0.049,-0.004l-0.047,-0.006l-0.048,-0.009l-0.047,-0.011l-0.047,-0.013l-0.045,-0.016l-0.045,-0.017l-0.044,-0.02l-0.043,-0.022l-0.042,-0.024l-0.041,-0.026l-0.04,-0.028l-0.038,-0.03l-0.036,-0.032l-0.035,-0.033l-1.581,-1.581l-0.024,-0.023l-0.019,-0.018l-0.019,-0.017l-0.02,-0.016l-0.02,-0.016l-0.02,-0.015l-0.02,-0.015l-0.021,-0.013l-0.02,-0.014l-0.021,-0.013l-0.022,-0.012l-0.021,-0.012l-0.022,-0.011l-0.022,-0.01l-0.022,-0.01l-0.022,-0.009l-0.023,-0.009l-0.022,-0.008l-0.023,-0.008l-0.023,-0.007l-0.024,-0.007l-0.023,-0.006l-0.024,-0.005l-0.023,-0.005l-0.024,-0.004l-0.024,-0.004l-0.024,-0.003l-0.024,-0.003l-0.024,-0.002l-0.024,-0.001l-0.024,-0.001l-0.024,-0.001l-0.024,0.001l-0.024,0.001l-0.024,0.001l-0.024,0.002l-0.024,0.003l-0.024,0.003l-0.024,0.004l-0.024,0.004l-0.023,0.005l-0.024,0.005l-0.023,0.006l-0.024,0.007l-0.023,0.007l-0.023,0.008l-0.022,0.008l-0.023,0.009l-0.022,0.009l-0.022,0.01l-0.022,0.01l-0.022,0.011l-0.021,0.012l-0.022,0.012l-0.02,0.013l-0.021,0.014l-0.021,0.013l-0.02,0.015l-0.02,0.015l-0.02,0.016l-0.02,0.016l-0.019,0.017l-0.019,0.018l-0.024,0.023l-1.581,1.581l-0.035,0.033l-0.036,0.032l-0.038,0.03l-0.04,0.028l-0.041,0.026l-0.042,0.024l-0.043,0.022l-0.044,0.02l-0.045,0.017l-0.046,0.016l-0.046,0.013l-0.047,0.011l-0.048,0.009l-0.047,0.006l-0.049,0.004l-0.048,0.002l-0.048,-0.001l-0.048,-0.003l-0.049,-0.005l-0.047,-0.007l-0.048,-0.01l-0.046,-0.012l-0.047,-0.015l-0.045,-0.016l-0.044,-0.019l-0.044,-0.021l-0.043,-0.023l-0.041,-0.025l-0.04,-0.027l-0.039,-0.029l-0.037,-0.031l-0.036,-0.032l-0.034,-0.034l-0.032,-0.036l-0.031,-0.037l-0.029,-0.039l-0.027,-0.04l-0.025,-0.041l-0.023,-0.043l-0.021,-0.044l-0.019,-0.044l-0.016,-0.046l-0.015,-0.046l-0.012,-0.046l-0.01,-0.048l-0.007,-0.047l-0.005,-0.049l-0.003,-0.048l-0.001,-0.048l0.002,-0.048l0.004,-0.049l0.006,-0.047l0.009,-0.048l0.011,-0.047l0.013,-0.047l0.016,-0.045l0.017,-0.045l0.02,-0.044l0.022,-0.043l0.024,-0.042l0.026,-0.041l0.028,-0.04l0.03,-0.038l0.032,-0.036l0.033,-0.035l1.59,-1.59l0.051,-0.05l0.056,-0.052l0.057,-0.05l0.058,-0.049l0.06,-0.047l0.06,-0.046l0.061,-0.044l0.063,-0.042l0.062,-0.04l0.064,-0.039l0.065,-0.037l0.065,-0.035l0.065,-0.034l0.067,-0.031l0.067,-0.031l0.067,-0.028l0.069,-0.027l0.068,-0.024l0.069,-0.024l0.07,-0.021l0.069,-0.02l0.071,-0.018l0.07,-0.016l0.071,-0.015l0.071,-0.013l0.071,-0.011l0.072,-0.009l0.071,-0.008l0.072,-0.006l0.071,-0.004l0.072,-0.003l0.072,-0.001l0.072,0.001Z" style="fill:#f00;"/><path d="M20.06,2.002l0.049,0.004l0.047,0.006l0.048,0.009l0.047,0.011l0.046,0.013l0.046,0.016l0.045,0.017l0.044,0.02l0.043,0.022l0.042,0.024l0.041,0.026l0.04,0.028l0.038,0.03l0.036,0.032l0.035,0.033l1.581,1.581l0.024,0.023l0.019,0.018l0.019,0.017l0.02,0.016l0.02,0.016l0.02,0.015l0.02,0.015l0.021,0.013l0.02,0.014l0.021,0.013l0.022,0.012l0.021,0.012l0.022,0.011l0.022,0.01l0.022,0.01l0.022,0.009l0.023,0.009l0.022,0.008l0.023,0.008l0.023,0.007l0.024,0.007l0.023,0.006l0.023,0.005l0.024,0.005l0.024,0.004l0.024,0.004l0.024,0.003l0.024,0.003l0.024,0.002l0.024,0.001l0.024,0.001l0.024,0l0.024,0l0.024,-0.001l0.024,-0.001l0.024,-0.002l0.024,-0.003l0.024,-0.003l0.024,-0.004l0.024,-0.004l0.024,-0.005l0.023,-0.005l0.023,-0.006l0.023,-0.007l0.024,-0.007l0.023,-0.008l0.022,-0.008l0.023,-0.009l0.022,-0.009l0.022,-0.01l0.022,-0.011l0.022,-0.01l0.021,-0.012l0.022,-0.012l0.021,-0.013l0.021,-0.014l0.02,-0.013l0.02,-0.015l0.02,-0.015l0.02,-0.016l0.02,-0.016l0.019,-0.017l0.019,-0.018l0.024,-0.023l1.581,-1.581l0.035,-0.033l0.036,-0.032l0.038,-0.03l0.04,-0.028l0.041,-0.026l0.042,-0.024l0.043,-0.022l0.044,-0.02l0.045,-0.017l0.045,-0.016l0.047,-0.013l0.047,-0.011l0.048,-0.009l0.047,-0.006l0.049,-0.004l0.048,-0.002l0.048,0.001l0.048,0.003l0.049,0.005l0.047,0.007l0.048,0.01l0.046,0.012l0.046,0.015l0.046,0.016l0.044,0.019l0.044,0.021l0.042,0.023l0.042,0.025l0.04,0.027l0.039,0.029l0.037,0.031l0.036,0.032l0.034,0.034l0.032,0.036l0.031,0.037l0.029,0.039l0.027,0.04l0.025,0.041l0.023,0.043l0.021,0.044l0.019,0.044l0.016,0.046l0.015,0.046l0.012,0.046l0.01,0.048l0.007,0.047l0.005,0.049l0.003,0.048l0.001,0.048l-0.002,0.048l-0.004,0.049l-0.006,0.047l-0.009,0.048l-0.011,0.047l-0.013,0.046l-0.016,0.046l-0.017,0.045l-0.02,0.044l-0.022,0.043l-0.024,0.042l-0.026,0.041l-0.028,0.04l-0.03,0.038l-0.032,0.036l-0.033,0.035l-1.59,1.59l-0.051,0.05l-0.056,0.052l-0.057,0.05l-0.059,0.049l-0.059,0.047l-0.06,0.046l-0.061,0.044l-0.063,0.042l-0.062,0.04l-0.064,0.039l-0.064,0.037l-0.066,0.035l-0.066,0.034l-0.066,0.031l-0.067,0.03l-0.068,0.029l-0.068,0.027l-0.068,0.024l-0.069,0.024l-0.07,0.021l-0.069,0.02l-0.071,0.018l-0.07,0.016l-0.071,0.015l-0.071,0.013l-0.071,0.011l-0.072,0.009l-0.071,0.008l-0.072,0.006l-0.071,0.004l-0.072,0.003l-0.072,0.001l-0.072,-0.001l-0.072,-0.003l-0.071,-0.004l-0.072,-0.006l-0.071,-0.008l-0.072,-0.009l-0.071,-0.011l-0.071,-0.013l-0.071,-0.015l-0.07,-0.016l-0.071,-0.018l-0.069,-0.02l-0.07,-0.021l-0.069,-0.024l-0.068,-0.024l-0.068,-0.027l-0.068,-0.028l-0.067,-0.031l-0.066,-0.031l-0.066,-0.034l-0.065,-0.035l-0.065,-0.037l-0.064,-0.039l-0.062,-0.04l-0.063,-0.042l-0.061,-0.044l-0.06,-0.046l-0.06,-0.047l-0.058,-0.049l-0.057,-0.05l-0.056,-0.052l-0.051,-0.05l-1.59,-1.59l-0.033,-0.035l-0.032,-0.036l-0.03,-0.038l-0.028,-0.04l-0.026,-0.041l-0.024,-0.042l-0.022,-0.043l-0.02,-0.044l-0.017,-0.045l-0.016,-0.045l-0.013,-0.047l-0.011,-0.047l-0.009,-0.048l-0.006,-0.047l-0.004,-0.049l-0.002,-0.048l0.001,-0.048l0.003,-0.048l0.005,-0.049l0.007,-0.047l0.01,-0.048l0.012,-0.046l0.015,-0.046l0.016,-0.046l0.019,-0.044l0.021,-0.044l0.023,-0.043l0.025,-0.041l0.027,-0.04l0.029,-0.039l0.031,-0.037l0.032,-0.036l0.034,-0.034l0.036,-0.032l0.037,-0.031l0.039,-0.029l0.04,-0.027l0.041,-0.025l0.043,-0.023l0.044,-0.021l0.044,-0.019l0.045,-0.016l0.047,-0.015l0.046,-0.012l0.048,-0.01l0.047,-0.007l0.049,-0.005l0.048,-0.003l0.048,-0.001l0.048,0.002Z" style="fill:#f00;"/></g></g></g></svg>