<?xml version="1.0" encoding="UTF-8" standalone="no"?><!DOCTYPE svg PUBLIC "-//W3C//DTD SVG 1.1//EN" "http://www.w3.org/Graphics/SVG/1.1/DTD/svg11.dtd"><svg width="100%" height="100%" viewBox="0 0 32 32" version="1.1" xmlns="http://www.w3.org/2000/svg" xmlns:xlink="http://www.w3.org/1999/xlink" xml:space="preserve" xmlns:serif="http://www.serif.com/" style="fill-rule:evenodd;clip-rule:evenodd;stroke-linejoin:round;stroke-miterlimit:2;"><rect id="very_angry" x="0" y="0" width="32" height="32" style="fill:none;"/><clipPath id="_clip1"><rect x="0" y="0" width="32" height="32"/></clipPath><g clip-path="url(#_clip1)"><g id="outline"><path d="M17.169,2.005c0.144,-0.411 0.381,-0.798 0.71,-1.126c1.17,-1.171 3.072,-1.171 4.242,0l0.879,0.878l0.879,-0.878c1.17,-1.171 3.072,-1.171 4.242,0c0.329,0.328 0.566,0.715 0.71,1.126c0.823,-0.046 1.662,0.245 2.29,0.874c1.171,1.17 1.171,3.072 0,4.242l-0.878,0.879l0.878,0.879c1.14,1.139 1.17,2.971 0.091,4.148c0.511,1.565 0.788,3.237 0.788,4.973l0,1c0,7.18 -5.82,13 -13,13l-6,0c-7.18,0 -13,-5.82 -13,-13c0,-0.332 0,-0.665 0,-1c0,-8.837 7.163,-16 16,-16l0.052,0c0.218,0.001 0.436,0.006 0.652,0.015c0.154,-0.015 0.31,-0.018 0.465,-0.01Z"/></g><g id="emoji"><path d="M30,18c0,-7.732 -6.268,-14 -14,-14c0,0 0,0 0,0c-7.732,0 -14,6.268 -14,14c0,0.335 0,0.668 0,1c0,6.075 4.925,11 11,11c1.972,0 4.028,0 6,0c6.075,0 11,-4.925 11,-11c0,-0.332 0,-0.665 0,-1Z" style="fill:#fbc546;"/><g><path d="M23.71,12.963l1.185,-1.016c0.027,0.025 0.054,0.051 0.08,0.078c0.656,0.656 1.025,1.545 1.025,2.473c0,0.657 0,1.345 0,2.002c0,1.933 -1.567,3.5 -3.5,3.5l-0.002,0c-0.928,0 -1.817,-0.369 -2.473,-1.025c-0.544,-0.544 -0.891,-1.248 -0.993,-2.002l0.968,-0.83c0,0 2.278,-1.041 3.71,-3.18Z" style="fill:#fff;"/><path d="M23.71,12.963c0.188,0.31 0.29,0.668 0.29,1.037c0,0.936 0,2.048 0,2.983c0,0.531 -0.211,1.039 -0.586,1.415c-0.375,0.375 -0.884,0.585 -1.414,0.585c-0.53,0 -1.039,-0.21 -1.414,-0.585c-0.375,-0.376 -0.586,-0.884 -0.586,-1.415l0,-0.84l3.71,-3.18Z"/></g><g><path d="M8.322,12.963l-1.185,-1.016c-0.028,0.025 -0.054,0.051 -0.081,0.078c-0.656,0.656 -1.024,1.545 -1.024,2.473c0,0.657 0,1.345 0,2.002c0,1.933 1.567,3.5 3.5,3.5l0.002,0c0.928,0 1.817,-0.369 2.473,-1.025c0.544,-0.544 0.891,-1.248 0.993,-2.002l-0.968,-0.83c0,0 -2.278,-1.041 -3.71,-3.18Z" style="fill:#fff;"/><path d="M8.322,12.963c-0.188,0.31 -0.29,0.668 -0.29,1.037c0,0.936 0,2.048 0,2.983c0,0.531 0.211,1.039 0.586,1.415c0.375,0.375 0.883,0.585 1.414,0.585c0.53,0 1.039,-0.21 1.414,-0.585c0.375,-0.376 0.586,-0.884 0.586,-1.415l0,-0.84l-3.71,-3.18Z"/></g><path d="M25,24c0,-1.657 -1.343,-3 -3,-3c-3.329,0 -8.671,0 -12,0c-1.657,0 -3,1.343 -3,3c0,1.657 1.343,3 3,3c3.329,0 8.671,0 12,0c1.657,0 3,-1.343 3,-3c0,0 0,0 0,0Z" style="fill:#7e5108;"/><path d="M23.697,22.941c0.192,0.307 0.303,0.67 0.303,1.059c0,0 0,0 0,0c0,0.749 -0.412,1.402 -1.022,1.745c-0.721,-0.216 -1.096,-0.193 -1.854,-0.193c-2.86,0 -7.143,0 -10.002,0c-0.73,0 -1.39,0.031 -2.101,0.192c-0.609,-0.342 -1.021,-0.995 -1.021,-1.744c0,-0.389 0.111,-0.752 0.303,-1.059c1.298,-0.002 1.784,0.059 2.858,0.059l9.678,0c1.074,0 2.006,0.014 2.858,-0.059Z" style="fill:#707070;"/><path d="M9.021,25.744c0.545,-0.478 1.247,-0.744 1.977,-0.744c2.859,0 7.142,0 10.002,0c0.758,0 1.45,0.281 1.978,0.745c-0.289,0.162 -0.623,0.255 -0.978,0.255c-3.074,0 -8.926,0 -12,0c-0.356,0 -0.69,-0.093 -0.979,-0.256Zm-0.718,-2.803c0.354,-0.565 0.981,-0.941 1.697,-0.941c3.074,0 8.926,0 12,0c0.716,0 1.343,0.376 1.697,0.941c-0.778,0.668 -1.784,1.059 -2.858,1.059l-9.678,0c-1.074,0 -2.08,-0.391 -2.858,-1.059Z" style="fill:#fff;"/><path d="M20.707,13.707c0,0 0.808,-0.808 1.586,-1.586c0.39,-0.39 1.024,-0.39 1.414,0c0.778,0.778 1.586,1.586 1.586,1.586c0.39,0.39 1.024,0.39 1.414,0c0.39,-0.39 0.39,-1.024 0,-1.414c0,0 -0.808,-0.808 -1.586,-1.586c-1.171,-1.171 -3.071,-1.171 -4.242,0c-0.778,0.778 -1.586,1.586 -1.586,1.586c-0.39,0.39 -0.39,1.024 0,1.414c0.39,0.39 1.024,0.39 1.414,0Zm7.586,-9.414c0,0 -0.808,0.808 -1.586,1.586c-1.171,1.171 -1.171,3.071 0,4.242c0.778,0.778 1.586,1.586 1.586,1.586c0.39,0.39 1.024,0.39 1.414,0c0.39,-0.39 0.39,-1.024 0,-1.414c0,0 -0.808,-0.808 -1.586,-1.586c-0.39,-0.39 -0.39,-1.024 0,-1.414c0.778,-0.778 1.586,-1.586 1.586,-1.586c0.39,-0.39 0.39,-1.024 0,-1.414c-0.39,-0.39 -1.024,-0.39 -1.414,0Zm-12,1.414c0,0 0.808,0.808 1.586,1.586c0.39,0.39 0.39,1.024 0,1.414c-0.778,0.778 -1.586,1.586 -1.586,1.586c-0.39,0.39 -0.39,1.024 0,1.414c0.39,0.39 1.024,0.39 1.414,0c0,0 0.808,-0.808 1.586,-1.586c1.171,-1.171 1.171,-3.071 0,-4.242c-0.778,-0.778 -1.586,-1.586 -1.586,-1.586c-0.39,-0.39 -1.024,-0.39 -1.414,0c-0.39,0.39 -0.39,1.024 0,1.414Zm3,-2c0,0 0.808,0.808 1.586,1.586c1.171,1.171 3.071,1.171 4.242,0c0.778,-0.778 1.586,-1.586 1.586,-1.586c0.39,-0.39 0.39,-1.024 0,-1.414c-0.39,-0.39 -1.024,-0.39 -1.414,0c0,0 -0.808,0.808 -1.586,1.586c-0.39,0.39 -1.024,0.39 -1.414,0c-0.778,-0.778 -1.586,-1.586 -1.586,-1.586c-0.39,-0.39 -1.024,-0.39 -1.414,0c-0.39,0.39 -0.39,1.024 0,1.414Z" style="fill:#f00;"/></g></g></svg>