<?xml version="1.0" encoding="UTF-8" standalone="no"?><!DOCTYPE svg PUBLIC "-//W3C//DTD SVG 1.1//EN" "http://www.w3.org/Graphics/SVG/1.1/DTD/svg11.dtd"><svg width="100%" height="100%" viewBox="0 0 32 32" version="1.1" xmlns="http://www.w3.org/2000/svg" xmlns:xlink="http://www.w3.org/1999/xlink" xml:space="preserve" xmlns:serif="http://www.serif.com/" style="fill-rule:evenodd;clip-rule:evenodd;stroke-linejoin:round;stroke-miterlimit:1.41421;"><rect id="vomiting" x="0" y="0" width="32" height="32" style="fill:none;"/><clipPath id="_clip1"><rect x="0" y="0" width="32" height="32"/></clipPath><g clip-path="url(#_clip1)"><g id="outline"><path d="M16.206,1.001l0.206,0.004l0.205,0.007l0.205,0.009l0.204,0.011l0.203,0.015l0.203,0.016l0.201,0.019l0.202,0.022l0.2,0.024l0.2,0.027l0.199,0.029l0.198,0.032l0.198,0.034l0.197,0.036l0.195,0.039l0.195,0.041l0.195,0.044l0.193,0.046l0.192,0.048l0.192,0.05l0.19,0.053l0.19,0.055l0.188,0.058l0.188,0.059l0.186,0.062l0.186,0.064l0.184,0.066l0.184,0.069l0.182,0.07l0.181,0.073l0.181,0.075l0.179,0.077l0.177,0.079l0.177,0.082l0.176,0.083l0.174,0.085l0.173,0.087l0.172,0.09l0.171,0.091l0.169,0.094l0.169,0.095l0.166,0.097l0.166,0.1l0.164,0.101l0.163,0.103l0.162,0.105l0.16,0.107l0.159,0.108l0.158,0.111l0.156,0.112l0.154,0.115l0.153,0.116l0.152,0.117l0.151,0.12l0.148,0.121l0.148,0.123l0.146,0.125l0.144,0.127l0.142,0.128l0.142,0.13l0.139,0.131l0.138,0.133l0.137,0.135l0.135,0.137l0.133,0.138l0.131,0.139l0.13,0.142l0.128,0.142l0.127,0.145l0.125,0.145l0.123,0.148l0.121,0.149l0.12,0.15l0.117,0.152l0.116,0.153l0.115,0.154l0.112,0.156l0.111,0.158l0.108,0.159l0.107,0.16l0.105,0.162l0.103,0.163l0.101,0.164l0.1,0.166l0.097,0.166l0.095,0.169l0.094,0.169l0.091,0.171l0.09,0.172l0.087,0.173l0.085,0.174l0.084,0.176l0.081,0.177l0.079,0.177l0.077,0.179l0.075,0.181l0.073,0.181l0.07,0.182l0.069,0.184l0.066,0.184l0.064,0.186l0.062,0.186l0.059,0.188l0.058,0.188l0.055,0.19l0.053,0.19l0.05,0.192l0.048,0.192l0.046,0.193l0.044,0.195l0.041,0.195l0.039,0.195l0.036,0.197l0.034,0.198l0.032,0.198l0.029,0.199l0.027,0.2l0.024,0.2l0.022,0.201l0.019,0.202l0.016,0.203l0.015,0.203l0.011,0.204l0.009,0.205l0.007,0.205l0.004,0.206l0.001,0.2l0,0.011l-0.001,0.133l-0.002,0.138l-0.003,0.138l-0.005,0.137l-0.006,0.138l-0.007,0.136l-0.009,0.137l-0.01,0.136l-0.011,0.136l-0.012,0.136l-0.014,0.135l-0.015,0.135l-0.017,0.134l-0.017,0.134l-0.019,0.134l-0.02,0.133l-0.022,0.133l-0.022,0.132l-0.024,0.132l-0.025,0.132l-0.027,0.131l-0.027,0.131l-0.029,0.13l-0.03,0.13l-0.031,0.13l-0.033,0.129l-0.033,0.128l-0.035,0.128l-0.036,0.128l-0.037,0.127l-0.038,0.126l-0.04,0.126l-0.04,0.126l-0.042,0.125l-0.043,0.124l-0.044,0.124l-0.045,0.124l-0.046,0.122l-0.048,0.123l-0.048,0.121l-0.05,0.121l-0.05,0.121l-0.052,0.12l-0.053,0.12l-0.054,0.118l-0.055,0.119l-0.056,0.117l-0.057,0.117l-0.058,0.117l-0.059,0.115l-0.06,0.116l-0.062,0.114l-0.062,0.114l-0.063,0.113l-0.064,0.113l-0.066,0.111l-0.066,0.112l-0.067,0.11l-0.069,0.11l-0.069,0.109l-0.07,0.109l-0.071,0.108l-0.072,0.107l-0.073,0.106l-0.075,0.106l-0.075,0.105l-0.075,0.104l-0.077,0.103l-0.078,0.103l-0.079,0.102l-0.079,0.101l-0.081,0.101l-0.081,0.099l-0.083,0.099l-0.083,0.099l-0.084,0.097l-0.085,0.097l-0.086,0.095l-0.086,0.095l-0.088,0.095l-0.088,0.093l-0.089,0.093l-0.091,0.091l-0.091,0.091l-0.091,0.09l-0.093,0.09l-0.093,0.088l-0.094,0.088l-0.095,0.086l-0.096,0.086l-0.097,0.085l-0.097,0.084l-0.098,0.084l-0.099,0.082l-0.1,0.081l-0.1,0.081l-0.101,0.079l-0.103,0.079l-0.102,0.078l-0.104,0.077l-0.104,0.076l-0.105,0.075l-0.105,0.074l-0.107,0.073l-0.107,0.072l-0.108,0.071l-0.108,0.071l-0.109,0.069l-0.11,0.068l-0.11,0.068l-0.112,0.066l-0.112,0.065l-0.062,0.036l0,0.003l0.016,0.1l0.013,0.101l0.012,0.101l0.009,0.102l0.008,0.102l0.005,0.102l0.003,0.103l0.001,0.093l0,2.028l-18,0l0,-2.028l0.001,-0.093l0.003,-0.102l0.005,-0.103l0.008,-0.102l0.009,-0.102l0.012,-0.101l0.013,-0.101l0.016,-0.101l0,-0.002l-0.062,-0.036l-0.112,-0.065l-0.112,-0.066l-0.11,-0.068l-0.11,-0.068l-0.109,-0.069l-0.108,-0.071l-0.108,-0.071l-0.107,-0.072l-0.107,-0.073l-0.105,-0.074l-0.105,-0.075l-0.104,-0.076l-0.104,-0.077l-0.103,-0.078l-0.102,-0.079l-0.101,-0.079l-0.1,-0.081l-0.1,-0.081l-0.099,-0.082l-0.098,-0.084l-0.097,-0.084l-0.097,-0.085l-0.096,-0.086l-0.095,-0.086l-0.094,-0.088l-0.093,-0.088l-0.093,-0.09l-0.092,-0.09l-0.09,-0.091l-0.09,-0.091l-0.09,-0.093l-0.088,-0.093l-0.088,-0.095l-0.086,-0.095l-0.086,-0.096l-0.085,-0.096l-0.084,-0.097l-0.083,-0.099l-0.083,-0.099l-0.081,-0.099l-0.081,-0.101l-0.079,-0.101l-0.079,-0.102l-0.078,-0.103l-0.077,-0.103l-0.075,-0.104l-0.075,-0.105l-0.074,-0.106l-0.074,-0.106l-0.072,-0.108l-0.071,-0.107l-0.07,-0.109l-0.069,-0.109l-0.069,-0.11l-0.067,-0.11l-0.066,-0.111l-0.066,-0.113l-0.064,-0.112l-0.063,-0.113l-0.062,-0.114l-0.062,-0.114l-0.06,-0.116l-0.059,-0.115l-0.058,-0.117l-0.057,-0.117l-0.056,-0.117l-0.055,-0.119l-0.054,-0.119l-0.053,-0.119l-0.052,-0.12l-0.05,-0.12l-0.05,-0.122l-0.048,-0.121l-0.048,-0.123l-0.046,-0.123l-0.045,-0.123l-0.044,-0.124l-0.043,-0.124l-0.042,-0.125l-0.04,-0.126l-0.04,-0.126l-0.038,-0.126l-0.037,-0.127l-0.036,-0.128l-0.035,-0.128l-0.033,-0.129l-0.033,-0.128l-0.031,-0.13l-0.03,-0.13l-0.029,-0.13l-0.027,-0.131l-0.027,-0.131l-0.025,-0.132l-0.024,-0.132l-0.022,-0.132l-0.022,-0.133l-0.02,-0.133l-0.019,-0.134l-0.017,-0.134l-0.017,-0.134l-0.015,-0.135l-0.014,-0.135l-0.012,-0.136l-0.011,-0.136l-0.01,-0.136l-0.009,-0.137l-0.007,-0.136l-0.006,-0.137l-0.005,-0.138l-0.003,-0.138l-0.002,-0.138l-0.001,-0.133l0,-0.011l0.001,-0.2l0.004,-0.206l0.007,-0.205l0.009,-0.205l0.011,-0.204l0.015,-0.203l0.016,-0.203l0.019,-0.201l0.022,-0.202l0.024,-0.2l0.027,-0.2l0.029,-0.199l0.032,-0.198l0.034,-0.198l0.036,-0.197l0.039,-0.195l0.041,-0.195l0.044,-0.195l0.046,-0.193l0.048,-0.192l0.05,-0.192l0.053,-0.19l0.055,-0.19l0.058,-0.188l0.059,-0.188l0.062,-0.186l0.064,-0.186l0.066,-0.184l0.069,-0.184l0.07,-0.182l0.073,-0.181l0.075,-0.181l0.077,-0.179l0.079,-0.177l0.082,-0.177l0.083,-0.176l0.085,-0.174l0.087,-0.173l0.09,-0.172l0.091,-0.171l0.094,-0.169l0.095,-0.169l0.097,-0.167l0.1,-0.165l0.101,-0.164l0.103,-0.163l0.105,-0.162l0.107,-0.16l0.108,-0.159l0.111,-0.158l0.112,-0.156l0.115,-0.154l0.116,-0.154l0.118,-0.151l0.119,-0.151l0.121,-0.148l0.123,-0.148l0.125,-0.145l0.127,-0.145l0.128,-0.143l0.13,-0.141l0.131,-0.139l0.133,-0.138l0.135,-0.137l0.137,-0.135l0.138,-0.133l0.139,-0.131l0.141,-0.13l0.143,-0.128l0.145,-0.127l0.145,-0.125l0.148,-0.123l0.148,-0.121l0.151,-0.12l0.152,-0.117l0.153,-0.116l0.154,-0.115l0.156,-0.112l0.158,-0.111l0.159,-0.108l0.16,-0.107l0.162,-0.105l0.163,-0.103l0.164,-0.101l0.166,-0.1l0.166,-0.097l0.169,-0.095l0.169,-0.094l0.171,-0.091l0.172,-0.09l0.173,-0.087l0.174,-0.085l0.176,-0.083l0.176,-0.082l0.178,-0.079l0.179,-0.077l0.181,-0.075l0.181,-0.073l0.182,-0.07l0.184,-0.069l0.184,-0.066l0.186,-0.064l0.186,-0.062l0.188,-0.059l0.188,-0.058l0.19,-0.055l0.19,-0.053l0.192,-0.05l0.192,-0.048l0.193,-0.046l0.195,-0.044l0.195,-0.041l0.195,-0.039l0.197,-0.036l0.198,-0.034l0.198,-0.032l0.199,-0.029l0.2,-0.027l0.2,-0.024l0.202,-0.022l0.201,-0.019l0.203,-0.016l0.203,-0.015l0.204,-0.011l0.205,-0.009l0.205,-0.007l0.206,-0.004l0.206,-0.001l0.206,0.001Zm-0.362,4l-0.155,0.003l-0.154,0.005l-0.154,0.007l-0.154,0.008l-0.152,0.011l-0.153,0.013l-0.151,0.014l-0.151,0.016l-0.151,0.019l-0.15,0.02l-0.149,0.021l-0.149,0.024l-0.148,0.026l-0.147,0.027l-0.147,0.029l-0.146,0.031l-0.145,0.032l-0.144,0.035l-0.145,0.036l-0.143,0.038l-0.142,0.039l-0.142,0.041l-0.141,0.043l-0.14,0.045l-0.14,0.046l-0.139,0.048l-0.138,0.05l-0.137,0.051l-0.137,0.053l-0.135,0.054l-0.135,0.056l-0.134,0.058l-0.134,0.059l-0.132,0.061l-0.131,0.062l-0.131,0.064l-0.13,0.066l-0.129,0.067l-0.128,0.068l-0.127,0.07l-0.126,0.072l-0.125,0.073l-0.124,0.074l-0.123,0.076l-0.122,0.077l-0.122,0.079l-0.12,0.08l-0.119,0.082l-0.118,0.083l-0.117,0.084l-0.117,0.086l-0.115,0.087l-0.114,0.089l-0.112,0.089l-0.112,0.092l-0.111,0.092l-0.109,0.094l-0.109,0.095l-0.107,0.096l-0.106,0.098l-0.105,0.098l-0.104,0.1l-0.102,0.102l-0.102,0.102l-0.1,0.104l-0.098,0.105l-0.098,0.106l-0.096,0.107l-0.095,0.108l-0.094,0.11l-0.093,0.111l-0.091,0.112l-0.089,0.112l-0.089,0.114l-0.087,0.115l-0.086,0.117l-0.084,0.117l-0.083,0.118l-0.082,0.119l-0.08,0.12l-0.079,0.122l-0.077,0.122l-0.076,0.123l-0.074,0.124l-0.073,0.125l-0.072,0.126l-0.07,0.127l-0.068,0.128l-0.067,0.129l-0.066,0.13l-0.064,0.131l-0.062,0.131l-0.061,0.132l-0.059,0.134l-0.058,0.134l-0.056,0.135l-0.054,0.135l-0.053,0.137l-0.051,0.137l-0.05,0.138l-0.048,0.139l-0.046,0.139l-0.045,0.141l-0.043,0.141l-0.041,0.142l-0.039,0.142l-0.038,0.144l-0.036,0.144l-0.035,0.144l-0.032,0.145l-0.031,0.146l-0.029,0.147l-0.027,0.147l-0.026,0.148l-0.024,0.149l-0.021,0.149l-0.02,0.15l-0.019,0.151l-0.016,0.151l-0.014,0.151l-0.013,0.153l-0.011,0.152l-0.008,0.154l-0.007,0.154l-0.005,0.154l-0.003,0.155l-0.001,0.157l0.001,0.099l0.001,0.099l0.002,0.099l0.004,0.098l0.004,0.099l0.005,0.098l0.006,0.098l0.008,0.097l0.008,0.097l0.009,0.097l0.009,0.097l0.011,0.096l0.012,0.096l0.012,0.096l0.014,0.096l0.014,0.095l0.016,0.095l0.016,0.094l0.017,0.094l0.018,0.094l0.019,0.094l0.019,0.093l0.021,0.093l0.021,0.092l0.022,0.093l0.023,0.092l0.024,0.091l0.025,0.091l0.026,0.091l0.026,0.091l0.027,0.09l0.028,0.09l0.029,0.089l0.03,0.089l0.031,0.089l0.031,0.088l0.032,0.088l0.033,0.087l0.034,0.088l0.034,0.086l0.036,0.086l0.036,0.087l0.037,0.085l0.037,0.085l0.039,0.085l0.039,0.084l0.04,0.084l0.041,0.084l0.041,0.083l0.042,0.082l0.043,0.082l0.044,0.082l0.044,0.081l0.046,0.081l0.046,0.081l0.046,0.079l0.047,0.08l0.049,0.079l0.048,0.078l0.05,0.078l0.05,0.078l0.051,0.077l0.051,0.076l0.053,0.076l0.053,0.076l0.053,0.075l0.055,0.075l0.054,0.073l0.056,0.074l0.056,0.073l0.057,0.072l0.058,0.072l0.058,0.072l0.059,0.07l0.06,0.071l0.06,0.069l0.061,0.07l0.061,0.068l0.062,0.068l0.063,0.068l0.063,0.066l0.064,0.067l0.064,0.065l0.065,0.065l0.066,0.065l0.066,0.064l0.067,0.063l0.068,0.063l0.068,0.062l0.068,0.061l0.069,0.061l0.07,0.06l0.07,0.06l0.071,0.059l0.071,0.058l0.072,0.058l0.073,0.057l0.073,0.056l0.073,0.056l0.074,0.055l0.075,0.054l0.074,0.054l0.076,0.052l0.076,0.053l0.077,0.051l0.077,0.051l0.077,0.05l0.078,0.05l0.078,0.049l0.08,0.048l0.079,0.047l0.08,0.047l0.08,0.046l0.081,0.045l0.081,0.044l0.082,0.044l0.082,0.043l0.083,0.042l0.083,0.042l0.083,0.041l0.084,0.04l0.084,0.039l0.085,0.038l0.085,0.038l0.085,0.037l0.086,0.036l0.087,0.035l2.183,0.87l0.119,0.424l-0.322,0.43l7.525,0l-0.321,-0.429l0.119,-0.425l2.183,-0.87l0.087,-0.035l0.085,-0.036l0.086,-0.037l0.085,-0.038l0.085,-0.038l0.084,-0.039l0.084,-0.04l0.083,-0.041l0.083,-0.042l0.083,-0.042l0.082,-0.043l0.082,-0.044l0.081,-0.044l0.081,-0.045l0.08,-0.046l0.08,-0.047l0.079,-0.047l0.08,-0.048l0.078,-0.049l0.078,-0.05l0.077,-0.05l0.078,-0.051l0.076,-0.051l0.076,-0.052l0.076,-0.054l0.075,-0.053l0.074,-0.054l0.074,-0.055l0.073,-0.056l0.073,-0.056l0.073,-0.057l0.072,-0.058l0.071,-0.058l0.071,-0.059l0.07,-0.06l0.07,-0.06l0.069,-0.061l0.068,-0.061l0.068,-0.062l0.068,-0.063l0.067,-0.063l0.066,-0.064l0.066,-0.065l0.065,-0.065l0.064,-0.065l0.064,-0.067l0.063,-0.067l0.063,-0.067l0.062,-0.068l0.061,-0.069l0.061,-0.069l0.06,-0.069l0.06,-0.071l0.059,-0.07l0.058,-0.072l0.058,-0.072l0.057,-0.072l0.056,-0.073l0.055,-0.073l0.055,-0.075l0.055,-0.074l0.053,-0.075l0.053,-0.076l0.053,-0.076l0.051,-0.076l0.051,-0.077l0.05,-0.078l0.05,-0.078l0.048,-0.078l0.049,-0.079l0.047,-0.08l0.046,-0.08l0.046,-0.08l0.045,-0.081l0.045,-0.081l0.044,-0.082l0.043,-0.082l0.042,-0.082l0.041,-0.083l0.041,-0.084l0.04,-0.084l0.039,-0.084l0.039,-0.085l0.037,-0.085l0.037,-0.085l0.036,-0.086l0.036,-0.087l0.034,-0.086l0.034,-0.088l0.033,-0.087l0.032,-0.088l0.031,-0.088l0.031,-0.089l0.03,-0.089l0.029,-0.089l0.028,-0.09l0.027,-0.09l0.026,-0.091l0.026,-0.091l0.025,-0.091l0.024,-0.092l0.023,-0.091l0.022,-0.092l0.021,-0.093l0.021,-0.093l0.019,-0.093l0.019,-0.094l0.018,-0.094l0.017,-0.094l0.016,-0.094l0.016,-0.095l0.014,-0.095l0.014,-0.096l0.012,-0.096l0.012,-0.096l0.011,-0.096l0.009,-0.097l0.009,-0.097l0.008,-0.097l0.008,-0.098l0.006,-0.097l0.005,-0.098l0.004,-0.099l0.004,-0.098l0.002,-0.099l0.001,-0.1l0.001,-0.098l-0.001,-0.157l-0.003,-0.155l-0.005,-0.154l-0.007,-0.154l-0.008,-0.154l-0.011,-0.152l-0.013,-0.153l-0.014,-0.151l-0.016,-0.152l-0.019,-0.15l-0.02,-0.15l-0.021,-0.149l-0.024,-0.149l-0.026,-0.148l-0.027,-0.147l-0.029,-0.147l-0.031,-0.146l-0.032,-0.145l-0.035,-0.145l-0.036,-0.144l-0.038,-0.143l-0.039,-0.142l-0.041,-0.142l-0.043,-0.141l-0.045,-0.141l-0.046,-0.139l-0.048,-0.139l-0.05,-0.138l-0.051,-0.137l-0.053,-0.137l-0.054,-0.135l-0.056,-0.135l-0.058,-0.134l-0.059,-0.134l-0.061,-0.132l-0.062,-0.131l-0.064,-0.131l-0.066,-0.13l-0.067,-0.129l-0.068,-0.128l-0.07,-0.127l-0.072,-0.126l-0.073,-0.125l-0.074,-0.124l-0.076,-0.123l-0.077,-0.122l-0.079,-0.122l-0.08,-0.12l-0.082,-0.119l-0.083,-0.118l-0.084,-0.117l-0.086,-0.117l-0.087,-0.115l-0.089,-0.114l-0.089,-0.113l-0.091,-0.111l-0.093,-0.111l-0.094,-0.109l-0.095,-0.109l-0.096,-0.107l-0.098,-0.106l-0.098,-0.105l-0.101,-0.104l-0.101,-0.102l-0.102,-0.102l-0.104,-0.1l-0.105,-0.098l-0.106,-0.098l-0.107,-0.096l-0.109,-0.095l-0.109,-0.094l-0.111,-0.093l-0.112,-0.091l-0.112,-0.089l-0.114,-0.089l-0.115,-0.087l-0.117,-0.086l-0.117,-0.084l-0.118,-0.083l-0.119,-0.082l-0.12,-0.08l-0.122,-0.079l-0.122,-0.077l-0.123,-0.076l-0.124,-0.074l-0.125,-0.073l-0.126,-0.072l-0.127,-0.07l-0.128,-0.068l-0.129,-0.067l-0.13,-0.066l-0.131,-0.064l-0.131,-0.062l-0.132,-0.061l-0.134,-0.059l-0.134,-0.058l-0.135,-0.056l-0.135,-0.054l-0.137,-0.053l-0.137,-0.051l-0.138,-0.05l-0.139,-0.048l-0.14,-0.046l-0.14,-0.045l-0.141,-0.043l-0.142,-0.041l-0.142,-0.039l-0.144,-0.038l-0.143,-0.036l-0.145,-0.035l-0.145,-0.032l-0.146,-0.031l-0.147,-0.029l-0.147,-0.027l-0.148,-0.026l-0.149,-0.024l-0.149,-0.021l-0.15,-0.02l-0.151,-0.019l-0.151,-0.016l-0.151,-0.014l-0.153,-0.013l-0.152,-0.011l-0.154,-0.008l-0.154,-0.007l-0.154,-0.005l-0.155,-0.003l-0.156,-0.001l-0.156,0.001Z"/></g><g id="emoji"><path d="M30,17c0,-7.732 -6.268,-14 -14,-14c0,0 0,0 0,0c-7.732,0 -14,6.268 -14,14c0,0 0,0 0,0c0,6.627 5.373,12 12,12c1.325,0 2.675,0 4,0c6.627,0 12,-5.373 12,-12c0,0 0,0 0,0Z" style="fill:#77b84c;"/><g><path d="M9.128,24l-0.51,0c-0.347,0 -0.668,-0.179 -0.851,-0.474c-0.182,-0.295 -0.198,-0.663 -0.043,-0.973c0.249,-0.499 0.541,-1.084 0.841,-1.683c1.186,-2.372 3.61,-3.87 6.261,-3.87c0.772,0 1.576,0 2.348,0c2.651,0 5.075,1.498 6.261,3.87c0.3,0.599 0.592,1.184 0.841,1.683c0.155,0.31 0.139,0.678 -0.043,0.973c-0.183,0.295 -0.504,0.474 -0.851,0.474l-0.51,0c-1.056,-1.83 -12.688,-1.83 -13.744,0Z" style="fill:#193804;"/><path d="M9.128,24c1.056,-1.83 3.024,-3 5.197,-3c1.09,0 2.26,0 3.35,0c2.173,0 4.141,1.17 5.197,3l-13.744,0Z" style="fill:#2f6607;"/></g><path d="M24.034,9.501l0.046,0.002l0.045,0.005l0.045,0.007l0.045,0.008l0.044,0.011l0.044,0.013l0.043,0.015l0.042,0.016l0.041,0.019l0.041,0.02l0.04,0.023l0.038,0.024l0.038,0.026l0.036,0.027l0.035,0.029l0.034,0.031l0.032,0.032l0.031,0.034l0.029,0.035l0.027,0.036l0.026,0.038l0.024,0.038l0.023,0.04l0.02,0.041l0.019,0.041l0.016,0.042l0.015,0.043l0.013,0.044l0.011,0.044l0.008,0.045l0.007,0.045l0.005,0.045l0.002,0.046l0.001,0.045l-0.002,0.046l-0.003,0.045l-0.006,0.045l-0.008,0.045l-0.009,0.045l-0.012,0.044l-0.014,0.043l-0.016,0.043l-0.017,0.042l-0.02,0.041l-0.021,0.04l-0.024,0.039l-0.025,0.038l-0.026,0.037l-0.029,0.036l-0.029,0.034l-0.032,0.033l-2.856,2.856l2.465,0.822l0.043,0.015l0.042,0.017l0.041,0.02l0.041,0.021l0.039,0.022l0.038,0.025l0.038,0.027l0.035,0.028l0.035,0.029l0.033,0.031l0.032,0.033l0.03,0.034l0.029,0.035l0.027,0.037l0.025,0.038l0.024,0.039l0.021,0.04l0.02,0.041l0.018,0.042l0.016,0.042l0.014,0.044l0.013,0.043l0.01,0.045l0.008,0.045l0.006,0.045l0.004,0.045l0.002,0.046l0,0.045l-0.003,0.046l-0.004,0.045l-0.006,0.045l-0.009,0.045l-0.01,0.044l-0.012,0.044l-0.015,0.043l-0.016,0.043l-0.018,0.041l-0.021,0.041l-0.021,0.04l-0.024,0.039l-0.026,0.037l-0.027,0.037l-0.029,0.035l-0.03,0.034l-0.032,0.033l-0.034,0.031l-0.034,0.029l-0.036,0.028l-0.038,0.026l-0.038,0.024l-0.04,0.023l-0.04,0.021l-0.041,0.019l-0.043,0.017l-0.043,0.015l-0.043,0.013l-0.044,0.011l-0.045,0.009l-0.045,0.007l-0.045,0.005l-0.046,0.003l-0.045,0.001l-0.046,-0.001l-0.045,-0.003l-0.045,-0.005l-0.045,-0.008l-0.045,-0.009l-0.044,-0.012l-0.043,-0.013l-5.087,-1.695l-0.114,-0.484l4.81,-4.81l0.033,-0.032l0.034,-0.029l0.036,-0.029l0.037,-0.026l0.038,-0.025l0.039,-0.024l0.04,-0.021l0.041,-0.02l0.042,-0.017l0.043,-0.016l0.043,-0.014l0.044,-0.012l0.045,-0.009l0.045,-0.008l0.045,-0.006l0.045,-0.003l0.046,-0.002l0.045,0.001Z"/><path d="M8.057,9.502l0.045,0.003l0.045,0.006l0.045,0.008l0.045,0.009l0.044,0.012l0.043,0.014l0.043,0.016l0.042,0.017l0.041,0.02l0.04,0.021l0.039,0.024l0.038,0.025l0.037,0.026l0.036,0.029l0.034,0.029l0.033,0.032l4.81,4.81l-0.114,0.484l-5.087,1.695l-0.043,0.013l-0.044,0.012l-0.045,0.009l-0.045,0.008l-0.045,0.005l-0.045,0.003l-0.046,0.001l-0.045,-0.001l-0.046,-0.003l-0.045,-0.005l-0.045,-0.007l-0.045,-0.009l-0.044,-0.011l-0.043,-0.013l-0.043,-0.015l-0.043,-0.017l-0.041,-0.019l-0.04,-0.021l-0.04,-0.023l-0.038,-0.024l-0.038,-0.026l-0.036,-0.028l-0.034,-0.029l-0.034,-0.031l-0.032,-0.033l-0.03,-0.034l-0.029,-0.035l-0.027,-0.037l-0.026,-0.037l-0.024,-0.039l-0.021,-0.04l-0.021,-0.041l-0.018,-0.041l-0.016,-0.043l-0.015,-0.043l-0.012,-0.044l-0.01,-0.044l-0.009,-0.045l-0.006,-0.045l-0.004,-0.045l-0.003,-0.046l0,-0.045l0.002,-0.046l0.004,-0.045l0.006,-0.045l0.008,-0.045l0.01,-0.045l0.013,-0.043l0.014,-0.044l0.016,-0.042l0.018,-0.042l0.02,-0.041l0.021,-0.04l0.024,-0.039l0.025,-0.038l0.027,-0.037l0.029,-0.035l0.03,-0.034l0.032,-0.033l0.033,-0.031l0.035,-0.029l0.035,-0.028l0.038,-0.027l0.038,-0.025l0.039,-0.022l0.041,-0.021l0.041,-0.02l0.042,-0.017l0.043,-0.015l2.465,-0.822l-2.856,-2.856l-0.032,-0.033l-0.029,-0.034l-0.029,-0.036l-0.026,-0.037l-0.025,-0.038l-0.024,-0.039l-0.021,-0.04l-0.02,-0.041l-0.017,-0.042l-0.016,-0.043l-0.014,-0.043l-0.012,-0.044l-0.009,-0.045l-0.008,-0.045l-0.006,-0.045l-0.003,-0.045l-0.002,-0.046l0.001,-0.045l0.002,-0.046l0.005,-0.045l0.007,-0.045l0.008,-0.045l0.011,-0.044l0.013,-0.044l0.015,-0.043l0.016,-0.042l0.019,-0.041l0.02,-0.041l0.023,-0.04l0.024,-0.038l0.026,-0.038l0.027,-0.036l0.029,-0.035l0.031,-0.034l0.032,-0.032l0.034,-0.031l0.035,-0.029l0.036,-0.027l0.038,-0.026l0.038,-0.024l0.04,-0.023l0.041,-0.02l0.041,-0.019l0.042,-0.016l0.043,-0.015l0.044,-0.013l0.044,-0.011l0.045,-0.008l0.045,-0.007l0.045,-0.005l0.046,-0.002l0.045,-0.001l0.046,0.002Z"/><g><path d="M20,23l-1,-1l-6,0l-1,2.5l0,2.5c0,0 0,0 -0.001,0c-0.794,-0.004 -1.557,0.308 -2.12,0.867c-0.563,0.56 -0.879,1.321 -0.879,2.115c0,0.012 0,0.018 0,0.018l14,0c0,0 0,-0.006 0,-0.018c0,-0.794 -0.316,-1.555 -0.879,-2.115c-0.563,-0.559 -1.326,-0.871 -2.12,-0.867c-0.001,0 -0.001,0 -0.001,0l0,-4Z" style="fill:#e8e14f;"/><path d="M20,21c0,-0.552 -0.448,-1 -1,-1c-1.537,0 -4.463,0 -6,0c-0.265,0 -0.52,0.105 -0.707,0.293c-0.188,0.187 -0.293,0.442 -0.293,0.707c0,0.955 0,2.407 0,3.5c0,0.828 0.672,1.5 1.5,1.5c0.001,0 0.001,0 0.002,0c0.397,0 0.778,-0.158 1.059,-0.439c0.281,-0.281 0.439,-0.662 0.439,-1.059c0,-0.751 0,-1.502 0,-1.502l1,0c0,0 0,1.815 0,3c0,0.552 0.448,1 1,1c0,0 0,0 0,0c0.552,0 1,-0.448 1,-1c0,-1.185 0,-3 0,-3l2,0c0,0 0,-1.127 0,-2Z" style="fill:#b0aa35;"/></g></g></g></svg>