<?xml version="1.0" encoding="UTF-8" standalone="no"?><!DOCTYPE svg PUBLIC "-//W3C//DTD SVG 1.1//EN" "http://www.w3.org/Graphics/SVG/1.1/DTD/svg11.dtd"><svg width="100%" height="100%" viewBox="0 0 32 32" version="1.1" xmlns="http://www.w3.org/2000/svg" xmlns:xlink="http://www.w3.org/1999/xlink" xml:space="preserve" xmlns:serif="http://www.serif.com/" style="fill-rule:evenodd;clip-rule:evenodd;stroke-linejoin:round;stroke-miterlimit:1.41421;"><rect id="big_smile" x="0" y="0" width="32" height="32" style="fill:none;"/><clipPath id="_clip1"><rect x="0" y="0" width="32" height="32"/></clipPath><g clip-path="url(#_clip1)"><g id="outline"><path d="M16.199,0.001l0.198,0.004l0.198,0.006l0.198,0.009l0.198,0.011l0.197,0.013l0.197,0.016l0.196,0.018l0.196,0.021l0.196,0.023l0.195,0.025l0.195,0.028l0.194,0.031l0.193,0.032l0.194,0.035l0.192,0.037l0.192,0.04l0.191,0.042l0.191,0.044l0.19,0.047l0.189,0.048l0.189,0.051l0.188,0.054l0.187,0.056l0.187,0.058l0.186,0.06l0.185,0.062l0.184,0.065l0.183,0.067l0.183,0.069l0.181,0.071l0.181,0.074l0.18,0.076l0.179,0.078l0.178,0.08l0.177,0.082l0.176,0.085l0.174,0.086l0.174,0.089l0.173,0.091l0.172,0.093l0.171,0.095l0.169,0.097l0.169,0.1l0.167,0.101l0.166,0.104l0.165,0.105l0.164,0.108l0.162,0.11l0.161,0.112l0.16,0.114l0.159,0.116l0.157,0.118l0.156,0.119l0.155,0.122l0.153,0.124l0.152,0.126l0.15,0.128l0.149,0.13l0.148,0.132l0.146,0.134l0.144,0.136l0.143,0.138l0.142,0.139l0.139,0.142l0.138,0.143l0.136,0.144l0.134,0.146l0.132,0.148l0.13,0.149l0.128,0.15l0.126,0.152l0.124,0.153l0.122,0.155l0.119,0.156l0.118,0.157l0.116,0.159l0.114,0.159l0.112,0.162l0.11,0.162l0.108,0.164l0.105,0.165l0.104,0.166l0.101,0.167l0.1,0.169l0.097,0.169l0.095,0.171l0.093,0.172l0.091,0.173l0.089,0.174l0.086,0.175l0.085,0.176l0.082,0.176l0.08,0.178l0.078,0.179l0.076,0.18l0.074,0.181l0.071,0.181l0.069,0.183l0.067,0.183l0.065,0.184l0.062,0.185l0.06,0.186l0.058,0.187l0.056,0.187l0.053,0.188l0.052,0.189l0.048,0.189l0.047,0.19l0.044,0.191l0.042,0.191l0.04,0.192l0.037,0.192l0.035,0.194l0.032,0.193l0.031,0.194l0.028,0.195l0.025,0.195l0.023,0.196l0.021,0.196l0.018,0.196l0.016,0.197l0.013,0.197l0.011,0.198l0.009,0.198l0.006,0.198l0.004,0.198l0.001,0.193l0,1.012l-0.001,0.187l-0.004,0.193l-0.006,0.192l-0.008,0.192l-0.011,0.191l-0.014,0.191l-0.015,0.19l-0.018,0.189l-0.021,0.189l-0.022,0.188l-0.025,0.187l-0.028,0.187l-0.029,0.186l-0.032,0.185l-0.034,0.184l-0.037,0.184l-0.038,0.183l-0.041,0.182l-0.043,0.181l-0.045,0.18l-0.048,0.18l-0.049,0.178l-0.052,0.178l-0.054,0.177l-0.056,0.176l-0.058,0.175l-0.06,0.174l-0.062,0.173l-0.064,0.171l-0.066,0.171l-0.068,0.17l-0.071,0.169l-0.072,0.168l-0.074,0.167l-0.076,0.166l-0.078,0.164l-0.08,0.164l-0.082,0.162l-0.084,0.161l-0.086,0.16l-0.087,0.159l-0.089,0.158l-0.092,0.156l-0.093,0.156l-0.095,0.153l-0.096,0.153l-0.099,0.152l-0.1,0.15l-0.102,0.149l-0.103,0.148l-0.106,0.146l-0.107,0.145l-0.109,0.144l-0.11,0.142l-0.112,0.141l-0.114,0.139l-0.115,0.138l-0.117,0.137l-0.119,0.135l-0.12,0.134l-0.122,0.132l-0.123,0.131l-0.125,0.13l-0.126,0.128l-0.128,0.126l-0.13,0.125l-0.131,0.123l-0.132,0.122l-0.134,0.12l-0.135,0.119l-0.137,0.117l-0.138,0.115l-0.139,0.114l-0.141,0.112l-0.142,0.11l-0.144,0.109l-0.145,0.107l-0.146,0.105l-0.148,0.104l-0.149,0.102l-0.15,0.1l-0.152,0.099l-0.152,0.096l-0.154,0.095l-0.156,0.093l-0.156,0.091l-0.158,0.09l-0.159,0.087l-0.16,0.086l-0.161,0.084l-0.162,0.082l-0.164,0.08l-0.164,0.078l-0.166,0.076l-0.167,0.074l-0.168,0.072l-0.169,0.071l-0.17,0.068l-0.171,0.066l-0.171,0.064l-0.173,0.062l-0.174,0.06l-0.175,0.058l-0.176,0.056l-0.177,0.054l-0.178,0.052l-0.178,0.049l-0.18,0.048l-0.18,0.045l-0.181,0.043l-0.182,0.041l-0.183,0.038l-0.184,0.037l-0.184,0.034l-0.185,0.032l-0.186,0.029l-0.187,0.028l-0.187,0.025l-0.188,0.022l-0.189,0.021l-0.189,0.018l-0.19,0.015l-0.191,0.014l-0.191,0.011l-0.192,0.008l-0.192,0.006l-0.193,0.004l-0.187,0.001l-2.012,0l-0.187,-0.001l-0.193,-0.004l-0.192,-0.006l-0.192,-0.008l-0.191,-0.011l-0.191,-0.014l-0.19,-0.015l-0.189,-0.018l-0.189,-0.021l-0.188,-0.022l-0.187,-0.025l-0.187,-0.028l-0.186,-0.029l-0.185,-0.032l-0.184,-0.034l-0.184,-0.037l-0.183,-0.038l-0.182,-0.041l-0.181,-0.043l-0.18,-0.045l-0.18,-0.048l-0.178,-0.049l-0.178,-0.052l-0.177,-0.054l-0.176,-0.056l-0.175,-0.058l-0.174,-0.06l-0.173,-0.062l-0.171,-0.064l-0.171,-0.066l-0.17,-0.068l-0.169,-0.071l-0.168,-0.072l-0.167,-0.074l-0.166,-0.076l-0.164,-0.078l-0.164,-0.08l-0.162,-0.082l-0.161,-0.084l-0.16,-0.086l-0.159,-0.087l-0.158,-0.09l-0.156,-0.091l-0.155,-0.093l-0.155,-0.095l-0.152,-0.096l-0.152,-0.099l-0.15,-0.1l-0.149,-0.102l-0.148,-0.103l-0.146,-0.106l-0.145,-0.107l-0.144,-0.109l-0.142,-0.11l-0.141,-0.112l-0.139,-0.114l-0.138,-0.115l-0.137,-0.117l-0.135,-0.119l-0.134,-0.12l-0.132,-0.122l-0.131,-0.123l-0.13,-0.125l-0.128,-0.126l-0.126,-0.128l-0.125,-0.13l-0.123,-0.131l-0.122,-0.132l-0.12,-0.134l-0.119,-0.135l-0.117,-0.137l-0.115,-0.138l-0.114,-0.139l-0.112,-0.141l-0.11,-0.142l-0.109,-0.144l-0.107,-0.145l-0.105,-0.146l-0.104,-0.148l-0.102,-0.149l-0.1,-0.15l-0.099,-0.152l-0.096,-0.152l-0.095,-0.154l-0.093,-0.156l-0.092,-0.156l-0.089,-0.158l-0.087,-0.159l-0.086,-0.16l-0.084,-0.161l-0.082,-0.162l-0.08,-0.164l-0.078,-0.164l-0.076,-0.166l-0.074,-0.167l-0.072,-0.168l-0.071,-0.169l-0.068,-0.17l-0.066,-0.17l-0.064,-0.172l-0.062,-0.173l-0.06,-0.174l-0.058,-0.175l-0.056,-0.176l-0.054,-0.177l-0.052,-0.178l-0.049,-0.178l-0.048,-0.18l-0.045,-0.18l-0.043,-0.181l-0.041,-0.182l-0.038,-0.183l-0.037,-0.184l-0.034,-0.184l-0.032,-0.185l-0.029,-0.186l-0.028,-0.187l-0.025,-0.187l-0.022,-0.188l-0.021,-0.189l-0.018,-0.189l-0.015,-0.19l-0.014,-0.191l-0.011,-0.191l-0.008,-0.192l-0.006,-0.192l-0.004,-0.193l-0.001,-0.187l0,-1.012l0.001,-0.2l0.004,-0.206l0.007,-0.205l0.009,-0.205l0.011,-0.204l0.015,-0.203l0.016,-0.203l0.019,-0.202l0.022,-0.201l0.024,-0.2l0.027,-0.2l0.029,-0.199l0.032,-0.198l0.034,-0.198l0.036,-0.197l0.039,-0.195l0.041,-0.195l0.044,-0.194l0.046,-0.194l0.048,-0.192l0.05,-0.192l0.053,-0.19l0.055,-0.19l0.058,-0.188l0.059,-0.188l0.062,-0.186l0.064,-0.186l0.066,-0.184l0.069,-0.184l0.07,-0.182l0.073,-0.181l0.075,-0.181l0.077,-0.179l0.079,-0.177l0.081,-0.177l0.084,-0.176l0.085,-0.174l0.087,-0.173l0.09,-0.172l0.091,-0.171l0.094,-0.169l0.095,-0.169l0.097,-0.166l0.1,-0.166l0.101,-0.164l0.103,-0.163l0.105,-0.162l0.107,-0.16l0.108,-0.159l0.111,-0.158l0.112,-0.156l0.115,-0.154l0.116,-0.153l0.117,-0.152l0.12,-0.151l0.121,-0.148l0.123,-0.148l0.125,-0.145l0.127,-0.145l0.128,-0.142l0.13,-0.142l0.131,-0.139l0.133,-0.138l0.135,-0.137l0.137,-0.135l0.138,-0.133l0.139,-0.131l0.141,-0.13l0.143,-0.128l0.145,-0.127l0.145,-0.125l0.148,-0.123l0.148,-0.121l0.151,-0.12l0.152,-0.117l0.153,-0.116l0.154,-0.115l0.156,-0.112l0.158,-0.111l0.159,-0.108l0.16,-0.107l0.162,-0.105l0.163,-0.103l0.164,-0.101l0.166,-0.1l0.167,-0.097l0.168,-0.095l0.169,-0.094l0.171,-0.091l0.172,-0.09l0.173,-0.087l0.174,-0.085l0.176,-0.084l0.177,-0.081l0.177,-0.079l0.179,-0.077l0.181,-0.075l0.181,-0.073l0.182,-0.07l0.184,-0.069l0.184,-0.066l0.186,-0.064l0.186,-0.062l0.188,-0.059l0.188,-0.058l0.19,-0.055l0.19,-0.053l0.192,-0.05l0.192,-0.048l0.193,-0.046l0.195,-0.044l0.195,-0.041l0.195,-0.039l0.197,-0.036l0.198,-0.034l0.198,-0.032l0.199,-0.029l0.2,-0.027l0.2,-0.024l0.201,-0.022l0.202,-0.019l0.203,-0.016l0.203,-0.015l0.204,-0.011l0.205,-0.009l0.205,-0.007l0.206,-0.004l0.206,-0.001l0.199,0.001Zm-0.355,4l-0.155,0.003l-0.154,0.005l-0.154,0.007l-0.154,0.008l-0.152,0.011l-0.153,0.013l-0.151,0.014l-0.151,0.016l-0.151,0.019l-0.15,0.02l-0.149,0.021l-0.149,0.024l-0.148,0.026l-0.147,0.027l-0.147,0.029l-0.146,0.031l-0.145,0.032l-0.145,0.035l-0.143,0.036l-0.144,0.038l-0.142,0.039l-0.142,0.041l-0.141,0.043l-0.141,0.045l-0.139,0.046l-0.139,0.048l-0.138,0.05l-0.137,0.051l-0.137,0.053l-0.135,0.054l-0.135,0.056l-0.134,0.058l-0.134,0.059l-0.132,0.061l-0.131,0.062l-0.131,0.064l-0.13,0.066l-0.129,0.067l-0.127,0.068l-0.128,0.07l-0.126,0.072l-0.125,0.073l-0.124,0.074l-0.123,0.076l-0.122,0.077l-0.122,0.079l-0.12,0.08l-0.119,0.082l-0.118,0.083l-0.117,0.084l-0.117,0.086l-0.115,0.087l-0.114,0.089l-0.112,0.089l-0.112,0.091l-0.111,0.093l-0.109,0.094l-0.109,0.095l-0.107,0.096l-0.106,0.098l-0.105,0.098l-0.104,0.1l-0.102,0.102l-0.102,0.102l-0.1,0.104l-0.098,0.105l-0.098,0.106l-0.096,0.107l-0.095,0.109l-0.094,0.109l-0.093,0.111l-0.091,0.112l-0.089,0.112l-0.089,0.114l-0.087,0.115l-0.086,0.116l-0.084,0.118l-0.083,0.118l-0.082,0.119l-0.08,0.12l-0.079,0.122l-0.077,0.122l-0.076,0.123l-0.074,0.124l-0.073,0.125l-0.072,0.126l-0.07,0.127l-0.068,0.128l-0.067,0.129l-0.066,0.13l-0.064,0.131l-0.062,0.131l-0.061,0.132l-0.059,0.134l-0.058,0.134l-0.056,0.134l-0.054,0.136l-0.053,0.137l-0.051,0.137l-0.05,0.138l-0.048,0.139l-0.046,0.139l-0.045,0.141l-0.043,0.141l-0.041,0.142l-0.039,0.142l-0.038,0.144l-0.036,0.143l-0.035,0.145l-0.032,0.145l-0.031,0.146l-0.029,0.147l-0.027,0.147l-0.026,0.148l-0.024,0.149l-0.021,0.149l-0.02,0.15l-0.019,0.151l-0.016,0.151l-0.014,0.151l-0.013,0.153l-0.011,0.152l-0.008,0.154l-0.007,0.154l-0.005,0.154l-0.003,0.155l-0.001,0.162l0,0.988l0.001,0.149l0.003,0.142l0.004,0.142l0.006,0.141l0.008,0.14l0.01,0.14l0.012,0.14l0.013,0.139l0.015,0.139l0.017,0.137l0.018,0.138l0.02,0.137l0.022,0.136l0.023,0.135l0.025,0.136l0.027,0.134l0.028,0.134l0.03,0.133l0.031,0.133l0.033,0.132l0.035,0.131l0.036,0.131l0.038,0.13l0.039,0.129l0.041,0.128l0.043,0.128l0.043,0.128l0.046,0.126l0.047,0.126l0.048,0.125l0.05,0.125l0.052,0.123l0.053,0.123l0.054,0.122l0.056,0.121l0.057,0.121l0.058,0.12l0.06,0.118l0.062,0.119l0.063,0.117l0.064,0.116l0.065,0.116l0.067,0.115l0.068,0.113l0.07,0.113l0.071,0.112l0.072,0.112l0.074,0.11l0.074,0.109l0.076,0.108l0.078,0.108l0.078,0.106l0.08,0.106l0.081,0.104l0.083,0.104l0.083,0.102l0.085,0.102l0.086,0.1l0.087,0.099l0.088,0.099l0.09,0.097l0.09,0.096l0.092,0.095l0.093,0.094l0.094,0.093l0.095,0.092l0.096,0.09l0.097,0.09l0.099,0.088l0.099,0.087l0.1,0.086l0.102,0.085l0.102,0.083l0.104,0.083l0.104,0.081l0.106,0.08l0.106,0.078l0.108,0.078l0.108,0.076l0.109,0.075l0.11,0.073l0.112,0.072l0.112,0.071l0.113,0.07l0.113,0.068l0.115,0.067l0.116,0.065l0.116,0.065l0.117,0.062l0.118,0.062l0.119,0.06l0.12,0.058l0.121,0.057l0.121,0.056l0.122,0.055l0.123,0.052l0.124,0.052l0.124,0.05l0.125,0.048l0.126,0.047l0.126,0.046l0.128,0.043l0.128,0.043l0.128,0.041l0.129,0.039l0.13,0.038l0.131,0.036l0.131,0.035l0.132,0.033l0.133,0.031l0.133,0.03l0.134,0.028l0.134,0.027l0.135,0.025l0.136,0.023l0.136,0.022l0.137,0.02l0.138,0.018l0.137,0.017l0.139,0.015l0.139,0.013l0.139,0.012l0.141,0.01l0.14,0.008l0.141,0.006l0.142,0.004l0.142,0.003l0.149,0.001l1.988,0l0.149,-0.001l0.142,-0.003l0.142,-0.004l0.141,-0.006l0.14,-0.008l0.141,-0.01l0.139,-0.012l0.139,-0.013l0.139,-0.015l0.137,-0.017l0.138,-0.018l0.137,-0.02l0.136,-0.022l0.135,-0.023l0.136,-0.025l0.134,-0.027l0.134,-0.028l0.133,-0.03l0.133,-0.031l0.132,-0.033l0.131,-0.035l0.131,-0.036l0.13,-0.038l0.129,-0.039l0.128,-0.041l0.128,-0.043l0.128,-0.043l0.126,-0.046l0.126,-0.047l0.125,-0.048l0.124,-0.05l0.124,-0.052l0.123,-0.053l0.122,-0.054l0.121,-0.056l0.121,-0.057l0.12,-0.058l0.119,-0.06l0.118,-0.062l0.117,-0.062l0.116,-0.065l0.116,-0.065l0.115,-0.067l0.113,-0.068l0.113,-0.07l0.112,-0.071l0.112,-0.072l0.11,-0.073l0.109,-0.075l0.108,-0.076l0.108,-0.078l0.106,-0.078l0.106,-0.08l0.104,-0.081l0.104,-0.083l0.102,-0.083l0.102,-0.085l0.1,-0.086l0.099,-0.087l0.099,-0.088l0.097,-0.09l0.096,-0.09l0.095,-0.092l0.094,-0.093l0.093,-0.094l0.092,-0.095l0.09,-0.096l0.09,-0.097l0.088,-0.099l0.087,-0.099l0.086,-0.1l0.085,-0.102l0.083,-0.102l0.083,-0.104l0.081,-0.104l0.08,-0.106l0.078,-0.106l0.078,-0.108l0.076,-0.108l0.075,-0.109l0.073,-0.111l0.072,-0.111l0.071,-0.112l0.07,-0.113l0.068,-0.113l0.067,-0.115l0.065,-0.116l0.065,-0.116l0.062,-0.117l0.062,-0.118l0.06,-0.119l0.058,-0.12l0.057,-0.121l0.056,-0.121l0.054,-0.122l0.053,-0.123l0.052,-0.124l0.05,-0.124l0.048,-0.125l0.047,-0.126l0.046,-0.126l0.043,-0.128l0.043,-0.128l0.041,-0.128l0.039,-0.13l0.038,-0.13l0.036,-0.13l0.035,-0.131l0.033,-0.132l0.031,-0.133l0.03,-0.133l0.028,-0.134l0.027,-0.134l0.025,-0.135l0.023,-0.136l0.022,-0.136l0.02,-0.137l0.018,-0.137l0.017,-0.138l0.015,-0.139l0.013,-0.139l0.012,-0.14l0.01,-0.14l0.008,-0.14l0.006,-0.141l0.004,-0.142l0.003,-0.142l0.001,-0.149l0,-0.988l-0.001,-0.155l-0.003,-0.149l-0.004,-0.149l-0.007,-0.148l-0.008,-0.148l-0.01,-0.148l-0.012,-0.148l-0.014,-0.147l-0.015,-0.147l-0.018,-0.147l-0.019,-0.146l-0.021,-0.146l-0.022,-0.146l-0.025,-0.145l-0.026,-0.145l-0.028,-0.144l-0.029,-0.144l-0.032,-0.143l-0.033,-0.143l-0.035,-0.143l-0.037,-0.142l-0.038,-0.141l-0.04,-0.141l-0.042,-0.141l-0.043,-0.14l-0.045,-0.139l-0.047,-0.139l-0.049,-0.138l-0.05,-0.138l-0.052,-0.136l-0.053,-0.137l-0.055,-0.135l-0.057,-0.135l-0.059,-0.134l-0.06,-0.134l-0.062,-0.132l-0.063,-0.132l-0.065,-0.132l-0.067,-0.13l-0.068,-0.13l-0.069,-0.129l-0.072,-0.128l-0.073,-0.127l-0.074,-0.126l-0.076,-0.126l-0.078,-0.124l-0.079,-0.124l-0.081,-0.123l-0.082,-0.121l-0.084,-0.121l-0.086,-0.12l-0.087,-0.119l-0.088,-0.118l-0.09,-0.117l-0.092,-0.116l-0.093,-0.115l-0.094,-0.114l-0.096,-0.113l-0.097,-0.111l-0.099,-0.111l-0.101,-0.109l-0.102,-0.109l-0.103,-0.107l-0.105,-0.106l-0.106,-0.105l-0.107,-0.103l-0.109,-0.102l-0.109,-0.101l-0.111,-0.099l-0.111,-0.097l-0.113,-0.096l-0.114,-0.094l-0.115,-0.093l-0.116,-0.092l-0.117,-0.09l-0.118,-0.088l-0.119,-0.087l-0.12,-0.086l-0.121,-0.083l-0.121,-0.083l-0.123,-0.081l-0.124,-0.079l-0.124,-0.077l-0.126,-0.077l-0.126,-0.074l-0.127,-0.073l-0.128,-0.071l-0.129,-0.07l-0.13,-0.068l-0.13,-0.067l-0.132,-0.065l-0.132,-0.063l-0.132,-0.062l-0.134,-0.06l-0.134,-0.059l-0.135,-0.057l-0.135,-0.055l-0.137,-0.053l-0.136,-0.052l-0.138,-0.05l-0.138,-0.049l-0.139,-0.047l-0.139,-0.045l-0.14,-0.043l-0.141,-0.042l-0.14,-0.04l-0.142,-0.038l-0.142,-0.037l-0.143,-0.035l-0.143,-0.033l-0.143,-0.032l-0.144,-0.029l-0.144,-0.028l-0.145,-0.026l-0.145,-0.025l-0.146,-0.022l-0.146,-0.021l-0.146,-0.019l-0.147,-0.018l-0.147,-0.015l-0.147,-0.014l-0.148,-0.012l-0.148,-0.01l-0.148,-0.008l-0.148,-0.007l-0.149,-0.004l-0.149,-0.003l-0.149,-0.001l-0.156,0.001Z"/></g><g id="emoji"><path d="M30,16c0,-3.713 -1.475,-7.274 -4.101,-9.899c-2.625,-2.626 -6.186,-4.101 -9.899,-4.101c0,0 0,0 0,0c-7.732,0 -14,6.268 -14,14c0,0.334 0,0.667 0,1c0,7.18 5.82,13 13,13c0.666,0 1.334,0 2,0c7.18,0 13,-5.82 13,-13c0,-0.333 0,-0.666 0,-1Z" style="fill:#fbc546;"/><g><path d="M9.57,22.339c-1.876,-1.993 -2.854,-4.802 -3.369,-7.339l19.598,0c-0.515,2.537 -1.493,5.346 -3.369,7.339c-1.114,-1.446 -11.746,-1.446 -12.86,0Z" style="fill:#722245;"/><path d="M9.57,22.339c1.114,-1.446 2.856,-2.339 4.755,-2.339c1.09,0 2.26,0 3.35,0c1.899,0 3.641,0.893 4.755,2.339c-1.497,1.59 -3.566,2.661 -6.43,2.661c-2.864,0 -4.933,-1.071 -6.43,-2.661Z" style="fill:#ca3b8f;"/></g><g><path d="M11,8.5c0,-0.828 -0.672,-1.5 -1.5,-1.5c-0.828,0 -1.5,0.672 -1.5,1.5c0,0.916 0,2.084 0,3c0,0.828 0.672,1.5 1.5,1.5c0.828,0 1.5,-0.672 1.5,-1.5c0,-0.916 0,-2.084 0,-3Z"/><path d="M24,8.5c0,-0.828 -0.672,-1.5 -1.5,-1.5c-0.828,0 -1.5,0.672 -1.5,1.5c0,0.916 0,2.084 0,3c0,0.828 0.672,1.5 1.5,1.5c0.828,0 1.5,-0.672 1.5,-1.5c0,-0.916 0,-2.084 0,-3Z"/></g></g></g></svg>