<?xml version="1.0" encoding="UTF-8" standalone="no"?>
<!DOCTYPE svg PUBLIC "-//W3C//DTD SVG 1.1//EN" "http://www.w3.org/Graphics/SVG/1.1/DTD/svg11.dtd">
<svg width="100%" height="100%" viewBox="0 0 32 32" version="1.1" xmlns="http://www.w3.org/2000/svg" xmlns:xlink="http://www.w3.org/1999/xlink" xml:space="preserve" xmlns:serif="http://www.serif.com/" style="fill-rule:evenodd;clip-rule:evenodd;stroke-linejoin:round;stroke-miterlimit:2;">
    <rect id="big_smile" x="0" y="0" width="32" height="32" style="fill:none;"/>
    <clipPath id="_clip1">
        <rect x="0" y="0" width="32" height="32"/>
    </clipPath>
    <g clip-path="url(#_clip1)">
        <g id="outline">
            <path d="M16,0c4.243,0 8.313,1.686 11.314,4.686c3,3.001 4.686,7.071 4.686,11.314l0,1c0,8.284 -6.716,15 -15,15l-2,0c-8.284,0 -15,-6.716 -15,-15l0,-1c0,-8.837 7.163,-16 16,-16l0,0Z"/>
        </g>
        <g id="emoji">
            <path d="M30,16c0,-3.713 -1.475,-7.274 -4.101,-9.899c-2.625,-2.626 -6.186,-4.101 -9.899,-4.101l0,0c-7.732,0 -14,6.268 -14,14l0,1c0,7.18 5.82,13 13,13l2,0c7.18,0 13,-5.82 13,-13l0,-1Z" style="fill:#fbc546;"/>
            <g>
                <path d="M9.502,15c0.928,0 1.817,-0.369 2.473,-1.025c0.656,-0.656 1.025,-1.545 1.025,-2.473c0,-0.973 0,-2.029 0,-3.002c0,-1.933 -1.567,-3.5 -3.5,-3.5c-0.001,0 -0.001,0 -0.002,0c-0.928,0 -1.817,0.369 -2.473,1.025c-0.656,0.656 -1.025,1.545 -1.025,2.473c0,0.973 0,2.029 0,3.002c0,1.933 1.567,3.5 3.5,3.5c0.001,0 0.001,0 0.002,0Z" style="fill:#fff;"/>
                <path d="M8,8c0,-1.105 0.895,-2 2,-2c1.105,0 2,0.895 2,2c0,1.217 0,2.766 0,3.983c0,1.105 -0.895,2 -2,2c-1.105,0 -2,-0.895 -2,-2c0,-1.217 0,-2.766 0,-3.983Z"/>
                <path d="M22.498,15c-0.928,0 -1.817,-0.369 -2.473,-1.025c-0.656,-0.656 -1.025,-1.545 -1.025,-2.473c0,-0.973 0,-2.029 0,-3.002c0,-1.933 1.567,-3.5 3.5,-3.5c0.001,0 0.001,0 0.002,0c0.928,0 1.817,0.369 2.473,1.025c0.656,0.656 1.025,1.545 1.025,2.473c0,0.973 0,2.029 0,3.002c0,1.933 -1.567,3.5 -3.5,3.5c-0.001,0 -0.001,0 -0.002,0Z" style="fill:#fff;"/>
                <path d="M24,8c0,-1.105 -0.895,-2 -2,-2c-1.105,0 -2,0.895 -2,2c0,1.217 0,2.766 0,3.983c0,1.105 0.895,2 2,2c1.105,0 2,-0.895 2,-2c0,-1.217 0,-2.766 0,-3.983Z"/>
            </g>
            <g>
                <path d="M9.57,23.339c-1.876,-1.992 -2.854,-4.801 -3.369,-7.339l19.598,0c-0.515,2.538 -1.493,5.347 -3.369,7.339c-1.114,-1.446 -11.746,-1.446 -12.86,0Z" style="fill:#722245;"/>
                <path d="M9.57,23.339c1.114,-1.446 2.856,-2.339 4.755,-2.339c1.09,0 2.26,0 3.35,0c1.899,0 3.641,0.893 4.755,2.339c-1.497,1.59 -3.567,2.661 -6.43,2.661c-2.863,0 -4.933,-1.071 -6.43,-2.661Z" style="fill:#ca3b8f;"/>
            </g>
        </g>
    </g>
</svg>
