<?xml version="1.0" encoding="UTF-8" standalone="no"?>
<!DOCTYPE svg PUBLIC "-//W3C//DTD SVG 1.1//EN" "http://www.w3.org/Graphics/SVG/1.1/DTD/svg11.dtd">
<svg width="100%" height="100%" viewBox="0 0 32 32" version="1.1" xmlns="http://www.w3.org/2000/svg" xmlns:xlink="http://www.w3.org/1999/xlink" xml:space="preserve" xmlns:serif="http://www.serif.com/" style="fill-rule:evenodd;clip-rule:evenodd;stroke-linecap:round;stroke-miterlimit:1.5;">
    <rect id="content" x="0" y="0" width="32" height="32" style="fill:none;"/>
    <clipPath id="_clip1">
        <rect x="0" y="0" width="32" height="32"/>
    </clipPath>
    <g clip-path="url(#_clip1)">
        <g id="outline">
            <path d="M16,3c8.837,0 16,7.163 16,16l0,0.502c0,6.902 -5.596,12.498 -12.498,12.498l-7.004,0c-6.902,0 -12.498,-5.596 -12.498,-12.498c0,-0.167 0,-0.334 0,-0.502c0,-8.837 7.163,-16 16,-16l0,0Z"/>
        </g>
        <g id="emoji">
            <path d="M30,19c0,-7.732 -6.268,-14 -14,-14c0,0 0,0 0,0c-7.732,0 -14,6.268 -14,14c0,0.168 0,0.335 0,0.502c0,5.798 4.7,10.498 10.498,10.498l7.004,0c5.798,0 10.498,-4.7 10.498,-10.498l0,-0.502Z" style="fill:#fbc546;"/>
            <g>
                <path d="M10,20c0,0 0.563,0.75 1.201,1.601c1.132,1.51 2.91,2.399 4.798,2.399l0.001,0c1.889,0 3.667,-0.889 4.8,-2.4c0.638,-0.85 1.2,-1.6 1.2,-1.6" style="fill:none;stroke:#593604;stroke-width:2px;"/>
                <path d="M26.207,12.293c0.188,0.187 0.293,0.442 0.293,0.707c0,0.265 -0.105,0.52 -0.293,0.707c-1.247,1.247 -3.707,3.707 -3.707,3.707c0,0 -2.46,-2.46 -3.707,-3.707c-0.188,-0.187 -0.293,-0.442 -0.293,-0.707c0,-0.265 0.105,-0.52 0.293,-0.707c0.39,-0.391 1.024,-0.391 1.414,0c0.887,0.887 2.293,2.293 2.293,2.293c0,0 1.406,-1.406 2.293,-2.293c0.39,-0.391 1.024,-0.391 1.414,0Z" style="fill-rule:nonzero;"/>
                <path d="M13.208,12.294c0.39,0.39 0.39,1.022 0,1.412c-1.247,1.247 -3.708,3.708 -3.708,3.708c0,0 -2.46,-2.46 -3.707,-3.707c-0.188,-0.187 -0.293,-0.442 -0.293,-0.707c0,-0.265 0.105,-0.52 0.293,-0.707c0.39,-0.391 1.024,-0.391 1.414,0c0.887,0.887 2.293,2.293 2.293,2.293c0,0 1.407,-1.407 2.294,-2.294c0.39,-0.39 1.022,-0.39 1.412,0c0.001,0.001 0.001,0.001 0.002,0.002Z" style="fill-rule:nonzero;"/>
            </g>
        </g>
    </g>
</svg>
