<?xml version="1.0" encoding="UTF-8" standalone="no"?><!DOCTYPE svg PUBLIC "-//W3C//DTD SVG 1.1//EN" "http://www.w3.org/Graphics/SVG/1.1/DTD/svg11.dtd"><svg width="100%" height="100%" viewBox="0 0 32 32" version="1.1" xmlns="http://www.w3.org/2000/svg" xmlns:xlink="http://www.w3.org/1999/xlink" xml:space="preserve" xmlns:serif="http://www.serif.com/" style="fill-rule:evenodd;clip-rule:evenodd;stroke-linejoin:round;stroke-miterlimit:1.41421;"><rect id="grinning" x="0" y="0" width="32" height="32" style="fill:none;"/><clipPath id="_clip1"><rect x="0" y="0" width="32" height="32"/></clipPath><g clip-path="url(#_clip1)"><g id="outline"><path d="M16.208,0.001l0.206,0.004l0.205,0.007l0.205,0.009l0.203,0.011l0.204,0.015l0.202,0.016l0.202,0.019l0.202,0.022l0.2,0.024l0.2,0.027l0.199,0.029l0.198,0.032l0.198,0.034l0.196,0.036l0.196,0.039l0.195,0.041l0.194,0.044l0.193,0.046l0.193,0.048l0.191,0.05l0.191,0.053l0.189,0.055l0.189,0.058l0.187,0.059l0.187,0.062l0.185,0.064l0.185,0.066l0.183,0.069l0.182,0.07l0.182,0.073l0.18,0.075l0.179,0.077l0.178,0.079l0.176,0.081l0.176,0.084l0.174,0.085l0.173,0.087l0.172,0.09l0.171,0.091l0.169,0.093l0.169,0.096l0.167,0.097l0.165,0.099l0.164,0.101l0.163,0.104l0.162,0.104l0.16,0.107l0.159,0.109l0.157,0.111l0.156,0.112l0.155,0.114l0.153,0.116l0.152,0.118l0.15,0.12l0.149,0.121l0.147,0.123l0.146,0.125l0.144,0.126l0.143,0.128l0.141,0.13l0.14,0.132l0.138,0.133l0.136,0.135l0.135,0.136l0.133,0.138l0.132,0.14l0.13,0.141l0.128,0.143l0.126,0.144l0.125,0.146l0.123,0.147l0.121,0.149l0.12,0.15l0.118,0.152l0.116,0.153l0.114,0.155l0.112,0.156l0.111,0.157l0.109,0.159l0.107,0.16l0.105,0.162l0.102,0.163l0.102,0.164l0.099,0.166l0.097,0.166l0.096,0.168l0.093,0.17l0.091,0.171l0.09,0.172l0.087,0.173l0.085,0.174l0.084,0.175l0.081,0.177l0.079,0.178l0.077,0.179l0.075,0.18l0.073,0.182l0.07,0.182l0.069,0.183l0.066,0.185l0.064,0.185l0.062,0.187l0.059,0.187l0.058,0.189l0.055,0.189l0.053,0.191l0.05,0.191l0.048,0.193l0.046,0.193l0.044,0.194l0.041,0.195l0.039,0.196l0.036,0.196l0.034,0.198l0.032,0.198l0.029,0.199l0.027,0.2l0.024,0.2l0.022,0.202l0.019,0.202l0.016,0.202l0.015,0.203l0.011,0.204l0.009,0.205l0.007,0.205l0.004,0.206l0.001,0.2l0,2.014l-0.001,0.174l-0.004,0.18l-0.005,0.18l-0.008,0.179l-0.01,0.178l-0.013,0.178l-0.014,0.178l-0.017,0.176l-0.019,0.176l-0.021,0.176l-0.024,0.174l-0.025,0.174l-0.028,0.174l-0.03,0.173l-0.031,0.172l-0.034,0.171l-0.036,0.171l-0.039,0.17l-0.04,0.169l-0.042,0.168l-0.044,0.168l-0.046,0.166l-0.048,0.166l-0.051,0.166l-0.052,0.164l-0.054,0.163l-0.056,0.162l-0.058,0.162l-0.06,0.16l-0.062,0.16l-0.063,0.158l-0.066,0.158l-0.067,0.157l-0.07,0.155l-0.071,0.155l-0.073,0.154l-0.074,0.152l-0.077,0.152l-0.078,0.15l-0.08,0.15l-0.082,0.148l-0.083,0.147l-0.085,0.146l-0.087,0.145l-0.089,0.144l-0.09,0.142l-0.092,0.142l-0.093,0.14l-0.095,0.139l-0.097,0.138l-0.098,0.136l-0.1,0.135l-0.102,0.135l-0.103,0.133l-0.104,0.131l-0.107,0.13l-0.107,0.129l-0.11,0.128l-0.11,0.126l-0.112,0.125l-0.114,0.123l-0.115,0.122l-0.117,0.121l-0.118,0.12l-0.119,0.117l-0.121,0.117l-0.122,0.115l-0.123,0.114l-0.125,0.112l-0.126,0.11l-0.128,0.11l-0.129,0.107l-0.13,0.107l-0.132,0.104l-0.132,0.103l-0.134,0.102l-0.136,0.1l-0.136,0.098l-0.138,0.097l-0.139,0.095l-0.14,0.093l-0.142,0.092l-0.142,0.09l-0.144,0.089l-0.145,0.087l-0.146,0.085l-0.147,0.083l-0.148,0.082l-0.15,0.08l-0.15,0.078l-0.152,0.077l-0.152,0.074l-0.154,0.073l-0.155,0.071l-0.155,0.07l-0.157,0.067l-0.158,0.066l-0.158,0.063l-0.16,0.062l-0.16,0.06l-0.162,0.058l-0.162,0.056l-0.163,0.054l-0.165,0.052l-0.165,0.05l-0.165,0.049l-0.167,0.046l-0.168,0.044l-0.168,0.042l-0.169,0.041l-0.17,0.038l-0.171,0.036l-0.171,0.034l-0.172,0.031l-0.173,0.03l-0.173,0.028l-0.175,0.025l-0.174,0.024l-0.176,0.021l-0.176,0.019l-0.177,0.017l-0.177,0.014l-0.178,0.013l-0.178,0.01l-0.179,0.008l-0.18,0.005l-0.18,0.004l-0.174,0.001l-4.012,0l-0.174,-0.001l-0.18,-0.004l-0.18,-0.005l-0.179,-0.008l-0.178,-0.01l-0.178,-0.013l-0.177,-0.014l-0.177,-0.017l-0.176,-0.019l-0.176,-0.021l-0.174,-0.024l-0.175,-0.025l-0.173,-0.028l-0.173,-0.03l-0.172,-0.031l-0.171,-0.034l-0.171,-0.036l-0.17,-0.039l-0.169,-0.04l-0.168,-0.042l-0.168,-0.044l-0.167,-0.046l-0.165,-0.049l-0.165,-0.05l-0.165,-0.052l-0.163,-0.054l-0.162,-0.056l-0.162,-0.058l-0.16,-0.06l-0.16,-0.062l-0.158,-0.063l-0.158,-0.066l-0.157,-0.067l-0.155,-0.07l-0.155,-0.071l-0.154,-0.073l-0.152,-0.074l-0.152,-0.077l-0.15,-0.078l-0.15,-0.08l-0.148,-0.082l-0.147,-0.083l-0.146,-0.085l-0.145,-0.087l-0.144,-0.089l-0.142,-0.09l-0.142,-0.092l-0.14,-0.093l-0.139,-0.095l-0.138,-0.097l-0.136,-0.098l-0.136,-0.1l-0.134,-0.102l-0.132,-0.103l-0.132,-0.104l-0.13,-0.107l-0.129,-0.107l-0.128,-0.109l-0.126,-0.111l-0.125,-0.112l-0.123,-0.114l-0.122,-0.115l-0.121,-0.117l-0.12,-0.118l-0.117,-0.119l-0.117,-0.121l-0.115,-0.122l-0.114,-0.123l-0.112,-0.125l-0.11,-0.126l-0.11,-0.128l-0.107,-0.129l-0.107,-0.13l-0.104,-0.131l-0.103,-0.133l-0.102,-0.134l-0.1,-0.136l-0.098,-0.136l-0.097,-0.138l-0.095,-0.139l-0.093,-0.14l-0.092,-0.142l-0.09,-0.142l-0.089,-0.144l-0.087,-0.145l-0.085,-0.146l-0.083,-0.147l-0.082,-0.148l-0.08,-0.15l-0.078,-0.15l-0.077,-0.152l-0.074,-0.152l-0.073,-0.154l-0.071,-0.155l-0.07,-0.155l-0.067,-0.157l-0.066,-0.158l-0.063,-0.158l-0.062,-0.16l-0.06,-0.16l-0.058,-0.162l-0.056,-0.162l-0.054,-0.163l-0.052,-0.164l-0.051,-0.166l-0.048,-0.166l-0.046,-0.166l-0.044,-0.168l-0.042,-0.168l-0.04,-0.169l-0.039,-0.17l-0.036,-0.171l-0.034,-0.171l-0.031,-0.172l-0.03,-0.173l-0.028,-0.173l-0.025,-0.175l-0.024,-0.175l-0.021,-0.175l-0.019,-0.176l-0.017,-0.176l-0.014,-0.178l-0.013,-0.178l-0.01,-0.178l-0.008,-0.179l-0.005,-0.18l-0.004,-0.179l-0.001,-0.174l0,-2.016l0.001,-0.199l0.004,-0.206l0.007,-0.205l0.009,-0.205l0.011,-0.203l0.015,-0.204l0.016,-0.202l0.019,-0.202l0.022,-0.202l0.024,-0.2l0.027,-0.2l0.029,-0.199l0.032,-0.198l0.034,-0.198l0.036,-0.196l0.039,-0.196l0.041,-0.195l0.044,-0.194l0.046,-0.193l0.048,-0.193l0.05,-0.191l0.053,-0.191l0.055,-0.189l0.058,-0.189l0.059,-0.187l0.062,-0.187l0.064,-0.185l0.066,-0.185l0.069,-0.183l0.07,-0.182l0.073,-0.182l0.075,-0.18l0.077,-0.179l0.079,-0.178l0.081,-0.176l0.084,-0.176l0.085,-0.174l0.087,-0.173l0.09,-0.172l0.091,-0.171l0.093,-0.17l0.096,-0.168l0.097,-0.166l0.099,-0.166l0.101,-0.164l0.103,-0.163l0.106,-0.162l0.106,-0.16l0.109,-0.159l0.111,-0.157l0.112,-0.156l0.114,-0.155l0.116,-0.153l0.118,-0.152l0.12,-0.15l0.121,-0.149l0.123,-0.147l0.125,-0.146l0.126,-0.144l0.128,-0.143l0.13,-0.141l0.132,-0.14l0.133,-0.138l0.135,-0.136l0.136,-0.135l0.138,-0.133l0.14,-0.132l0.141,-0.13l0.142,-0.128l0.145,-0.126l0.146,-0.125l0.147,-0.123l0.149,-0.121l0.15,-0.12l0.152,-0.118l0.153,-0.116l0.155,-0.114l0.156,-0.112l0.157,-0.111l0.159,-0.109l0.16,-0.107l0.162,-0.104l0.163,-0.104l0.164,-0.101l0.166,-0.099l0.166,-0.097l0.169,-0.096l0.169,-0.093l0.171,-0.091l0.172,-0.09l0.173,-0.087l0.174,-0.085l0.176,-0.084l0.176,-0.081l0.178,-0.079l0.179,-0.077l0.18,-0.075l0.182,-0.073l0.182,-0.07l0.183,-0.069l0.185,-0.066l0.185,-0.064l0.187,-0.062l0.187,-0.059l0.189,-0.058l0.189,-0.055l0.191,-0.053l0.191,-0.05l0.193,-0.048l0.193,-0.046l0.194,-0.044l0.195,-0.041l0.196,-0.039l0.196,-0.036l0.198,-0.034l0.198,-0.032l0.199,-0.029l0.2,-0.027l0.2,-0.024l0.202,-0.022l0.202,-0.019l0.202,-0.016l0.204,-0.015l0.203,-0.011l0.205,-0.009l0.205,-0.007l0.206,-0.004l0.2,-0.001l0.016,0l0.2,0.001Zm-0.366,4l-0.155,0.003l-0.154,0.005l-0.154,0.007l-0.153,0.008l-0.153,0.011l-0.152,0.013l-0.152,0.014l-0.151,0.016l-0.151,0.019l-0.149,0.02l-0.15,0.021l-0.148,0.024l-0.148,0.026l-0.147,0.027l-0.147,0.029l-0.146,0.031l-0.145,0.032l-0.145,0.035l-0.144,0.036l-0.143,0.037l-0.143,0.04l-0.141,0.041l-0.142,0.043l-0.14,0.045l-0.139,0.046l-0.139,0.048l-0.138,0.049l-0.138,0.052l-0.136,0.053l-0.136,0.054l-0.135,0.056l-0.134,0.058l-0.133,0.059l-0.132,0.061l-0.132,0.062l-0.13,0.064l-0.13,0.065l-0.129,0.067l-0.128,0.069l-0.127,0.07l-0.126,0.071l-0.125,0.073l-0.124,0.075l-0.123,0.076l-0.122,0.077l-0.122,0.079l-0.12,0.08l-0.119,0.081l-0.118,0.083l-0.117,0.085l-0.116,0.086l-0.115,0.087l-0.114,0.088l-0.113,0.09l-0.112,0.091l-0.111,0.093l-0.109,0.093l-0.108,0.095l-0.108,0.097l-0.106,0.097l-0.105,0.099l-0.103,0.1l-0.103,0.101l-0.101,0.103l-0.1,0.103l-0.099,0.105l-0.098,0.106l-0.096,0.108l-0.095,0.108l-0.094,0.109l-0.092,0.111l-0.091,0.112l-0.09,0.113l-0.088,0.114l-0.087,0.115l-0.086,0.116l-0.085,0.117l-0.082,0.118l-0.082,0.119l-0.08,0.121l-0.079,0.121l-0.077,0.122l-0.076,0.123l-0.075,0.124l-0.073,0.125l-0.071,0.127l-0.07,0.126l-0.069,0.128l-0.066,0.129l-0.066,0.13l-0.064,0.13l-0.062,0.132l-0.061,0.132l-0.059,0.133l-0.058,0.135l-0.056,0.134l-0.054,0.136l-0.053,0.137l-0.052,0.137l-0.049,0.138l-0.048,0.138l-0.046,0.14l-0.045,0.14l-0.043,0.142l-0.041,0.141l-0.04,0.143l-0.037,0.143l-0.036,0.144l-0.035,0.144l-0.032,0.146l-0.031,0.146l-0.029,0.147l-0.027,0.147l-0.026,0.148l-0.024,0.148l-0.021,0.15l-0.02,0.149l-0.019,0.151l-0.016,0.151l-0.014,0.152l-0.013,0.152l-0.011,0.152l-0.008,0.154l-0.007,0.154l-0.005,0.154l-0.003,0.156l-0.001,0.162l0,1.989l0.001,0.136l0.002,0.129l0.004,0.129l0.006,0.128l0.007,0.128l0.009,0.128l0.011,0.126l0.012,0.127l0.013,0.126l0.015,0.125l0.017,0.125l0.018,0.124l0.02,0.124l0.021,0.124l0.023,0.122l0.024,0.122l0.026,0.122l0.027,0.121l0.029,0.121l0.03,0.12l0.031,0.119l0.033,0.119l0.035,0.118l0.035,0.117l0.037,0.117l0.039,0.117l0.04,0.115l0.041,0.115l0.043,0.115l0.044,0.113l0.045,0.114l0.047,0.112l0.048,0.111l0.05,0.112l0.05,0.11l0.052,0.109l0.053,0.109l0.055,0.108l0.056,0.108l0.057,0.106l0.058,0.106l0.06,0.105l0.06,0.104l0.063,0.104l0.063,0.103l0.064,0.101l0.066,0.102l0.067,0.1l0.068,0.099l0.069,0.099l0.07,0.097l0.072,0.097l0.072,0.096l0.074,0.095l0.075,0.094l0.076,0.093l0.077,0.092l0.078,0.092l0.079,0.09l0.08,0.089l0.082,0.089l0.082,0.087l0.083,0.087l0.085,0.085l0.085,0.085l0.087,0.083l0.087,0.082l0.089,0.082l0.089,0.08l0.09,0.079l0.092,0.078l0.092,0.077l0.093,0.076l0.094,0.075l0.095,0.074l0.096,0.072l0.097,0.072l0.097,0.07l0.099,0.069l0.099,0.068l0.1,0.067l0.102,0.066l0.101,0.064l0.103,0.063l0.104,0.063l0.104,0.06l0.105,0.06l0.106,0.058l0.106,0.057l0.108,0.056l0.108,0.055l0.109,0.053l0.109,0.052l0.111,0.051l0.11,0.049l0.112,0.048l0.113,0.047l0.113,0.045l0.113,0.044l0.115,0.043l0.115,0.041l0.115,0.04l0.117,0.039l0.117,0.037l0.117,0.035l0.118,0.035l0.119,0.033l0.119,0.031l0.12,0.03l0.121,0.029l0.121,0.027l0.121,0.026l0.123,0.024l0.123,0.023l0.123,0.021l0.124,0.02l0.124,0.018l0.125,0.017l0.125,0.015l0.126,0.013l0.127,0.012l0.126,0.011l0.128,0.009l0.128,0.007l0.128,0.006l0.129,0.004l0.129,0.002l0.136,0.001l3.988,0l0.136,-0.001l0.129,-0.002l0.129,-0.004l0.128,-0.006l0.128,-0.007l0.128,-0.009l0.126,-0.011l0.127,-0.012l0.126,-0.013l0.125,-0.015l0.125,-0.017l0.124,-0.018l0.124,-0.02l0.123,-0.021l0.123,-0.023l0.122,-0.024l0.122,-0.026l0.121,-0.027l0.121,-0.029l0.12,-0.03l0.119,-0.031l0.119,-0.033l0.118,-0.035l0.117,-0.035l0.117,-0.037l0.117,-0.039l0.115,-0.04l0.115,-0.041l0.115,-0.043l0.113,-0.044l0.113,-0.045l0.113,-0.047l0.111,-0.048l0.111,-0.049l0.111,-0.051l0.109,-0.052l0.109,-0.053l0.108,-0.055l0.108,-0.056l0.106,-0.057l0.106,-0.058l0.105,-0.06l0.104,-0.061l0.104,-0.062l0.103,-0.063l0.101,-0.064l0.102,-0.066l0.1,-0.067l0.099,-0.068l0.099,-0.069l0.097,-0.07l0.097,-0.072l0.096,-0.072l0.095,-0.074l0.094,-0.075l0.093,-0.076l0.092,-0.077l0.092,-0.078l0.09,-0.079l0.089,-0.08l0.089,-0.082l0.087,-0.082l0.087,-0.083l0.085,-0.085l0.085,-0.085l0.083,-0.087l0.082,-0.087l0.082,-0.089l0.08,-0.089l0.079,-0.09l0.078,-0.092l0.077,-0.092l0.076,-0.093l0.075,-0.094l0.074,-0.095l0.072,-0.096l0.072,-0.097l0.07,-0.097l0.069,-0.099l0.068,-0.099l0.067,-0.1l0.066,-0.102l0.064,-0.101l0.063,-0.103l0.063,-0.104l0.06,-0.104l0.06,-0.105l0.058,-0.106l0.057,-0.106l0.056,-0.108l0.055,-0.108l0.053,-0.109l0.052,-0.109l0.05,-0.11l0.05,-0.112l0.048,-0.111l0.047,-0.112l0.045,-0.113l0.044,-0.114l0.043,-0.115l0.041,-0.115l0.04,-0.115l0.039,-0.117l0.037,-0.117l0.035,-0.117l0.035,-0.118l0.033,-0.119l0.031,-0.119l0.03,-0.12l0.029,-0.121l0.027,-0.121l0.026,-0.122l0.024,-0.122l0.023,-0.122l0.021,-0.124l0.02,-0.123l0.018,-0.125l0.017,-0.125l0.015,-0.125l0.013,-0.126l0.012,-0.127l0.011,-0.126l0.009,-0.128l0.007,-0.128l0.006,-0.128l0.004,-0.129l0.002,-0.129l0.001,-0.136l0,-1.99l-0.001,-0.162l-0.003,-0.155l-0.005,-0.154l-0.007,-0.154l-0.008,-0.153l-0.011,-0.153l-0.013,-0.153l-0.014,-0.151l-0.016,-0.151l-0.019,-0.151l-0.02,-0.149l-0.021,-0.15l-0.024,-0.148l-0.025,-0.148l-0.028,-0.147l-0.029,-0.147l-0.031,-0.146l-0.032,-0.146l-0.035,-0.144l-0.036,-0.144l-0.037,-0.143l-0.04,-0.143l-0.041,-0.141l-0.043,-0.142l-0.045,-0.14l-0.046,-0.14l-0.048,-0.138l-0.049,-0.138l-0.052,-0.137l-0.053,-0.137l-0.054,-0.136l-0.056,-0.135l-0.058,-0.134l-0.059,-0.133l-0.061,-0.132l-0.062,-0.132l-0.064,-0.13l-0.066,-0.13l-0.066,-0.129l-0.069,-0.128l-0.07,-0.126l-0.071,-0.127l-0.073,-0.125l-0.075,-0.124l-0.076,-0.123l-0.077,-0.122l-0.079,-0.122l-0.08,-0.12l-0.082,-0.119l-0.083,-0.118l-0.084,-0.117l-0.086,-0.116l-0.087,-0.115l-0.088,-0.114l-0.09,-0.113l-0.091,-0.112l-0.093,-0.111l-0.093,-0.109l-0.095,-0.108l-0.097,-0.108l-0.097,-0.106l-0.099,-0.105l-0.1,-0.103l-0.101,-0.103l-0.103,-0.101l-0.103,-0.1l-0.105,-0.099l-0.106,-0.097l-0.107,-0.097l-0.109,-0.095l-0.109,-0.094l-0.111,-0.092l-0.112,-0.091l-0.113,-0.09l-0.114,-0.088l-0.115,-0.087l-0.116,-0.086l-0.117,-0.084l-0.118,-0.084l-0.119,-0.081l-0.12,-0.08l-0.122,-0.079l-0.122,-0.077l-0.123,-0.076l-0.124,-0.075l-0.125,-0.073l-0.126,-0.071l-0.127,-0.07l-0.128,-0.069l-0.129,-0.067l-0.13,-0.065l-0.13,-0.064l-0.132,-0.062l-0.132,-0.061l-0.133,-0.059l-0.134,-0.058l-0.135,-0.056l-0.136,-0.054l-0.136,-0.053l-0.138,-0.051l-0.138,-0.05l-0.139,-0.048l-0.139,-0.046l-0.14,-0.045l-0.142,-0.043l-0.141,-0.041l-0.143,-0.04l-0.143,-0.037l-0.144,-0.036l-0.145,-0.035l-0.145,-0.032l-0.146,-0.031l-0.147,-0.029l-0.147,-0.027l-0.148,-0.026l-0.148,-0.024l-0.15,-0.021l-0.149,-0.02l-0.151,-0.019l-0.151,-0.016l-0.152,-0.014l-0.152,-0.013l-0.152,-0.011l-0.154,-0.008l-0.154,-0.007l-0.154,-0.005l-0.155,-0.003l-0.158,-0.001l-0.158,0.001Z"/></g><g id="emoji"><path d="M30,15.998c0,-7.731 -6.267,-13.998 -13.998,-13.998c-0.001,0 -0.003,0 -0.004,0c-7.731,0 -13.998,6.267 -13.998,13.998c0,0.669 0,1.339 0,2.002c0,6.627 5.373,12 12,12c1.325,0 2.675,0 4,0c6.627,0 12,-5.373 12,-12c0,-0.663 0,-1.333 0,-2.002Z" style="fill:#fbc546;"/><g><path d="M6,18l0.219,0.328c1.113,1.669 4.992,1.353 4.992,1.353l9.578,0c0,0 3.879,0.316 4.992,-1.353c0.134,-0.201 0.219,-0.328 0.219,-0.328l0.285,0c-0.487,2.033 -1.481,3.848 -2.828,5.279c-1.286,-0.097 -2.457,-0.332 -2.457,-0.332l-10,0c0,0 -1.407,0.235 -2.457,0.332c-1.347,-1.431 -2.341,-3.246 -2.828,-5.279l0.285,0Z" style="fill:#707070;"/><path d="M8.543,23.279c0.542,-0.774 1.441,-1.279 2.457,-1.279c2.859,0 7.141,0 10,0c1.016,0 1.915,0.505 2.457,1.279c-1.918,2.037 -4.552,3.296 -7.457,3.296c-2.905,0 -5.539,-1.259 -7.457,-3.296Zm-2.828,-5.279c-0.045,-0.19 -0.086,-0.381 -0.123,-0.575l20.816,0c-0.037,0.194 -0.078,0.385 -0.123,0.575l-0.285,0c0,0 -0.085,0.127 -0.219,0.328c-1.113,1.669 -2.986,2.672 -4.992,2.672c-2.784,0 -6.794,0 -9.578,0c-2.006,0 -3.879,-1.003 -4.992,-2.672l-0.219,-0.328l-0.285,0Z" style="fill:#fff;"/></g><path d="M26.755,18.316l-0.026,0.118l-0.027,0.116l-0.028,0.116l-0.03,0.116l-0.031,0.115l-0.031,0.114l-0.034,0.115l-0.034,0.113l-0.035,0.113l-0.037,0.113l-0.038,0.112l-0.039,0.111l-0.04,0.111l-0.041,0.11l-0.043,0.11l-0.043,0.109l-0.045,0.109l-0.046,0.108l-0.047,0.108l-0.048,0.106l-0.049,0.107l-0.051,0.105l-0.051,0.105l-0.052,0.105l-0.054,0.103l-0.054,0.103l-0.056,0.103l-0.057,0.102l-0.057,0.101l-0.059,0.1l-0.06,0.1l-0.061,0.099l-0.061,0.098l-0.063,0.098l-0.064,0.097l-0.065,0.096l-0.065,0.096l-0.067,0.094l-0.068,0.094l-0.069,0.094l-0.069,0.092l-0.071,0.092l-0.071,0.091l-0.073,0.09l-0.073,0.089l-0.074,0.089l-0.075,0.088l-0.076,0.087l-0.077,0.086l-0.078,0.086l-0.079,0.084l-0.08,0.084l-0.08,0.083l-0.081,0.082l-0.082,0.081l-0.083,0.081l-0.084,0.079l-0.085,0.079l-0.086,0.077l-0.086,0.077l-0.087,0.076l-0.088,0.075l-0.089,0.074l-0.089,0.074l-0.091,0.072l-0.091,0.071l-0.092,0.071l-0.092,0.069l-0.093,0.069l-0.095,0.067l-0.094,0.067l-0.096,0.066l-0.096,0.064l-0.097,0.064l-0.098,0.063l-0.099,0.061l-0.099,0.061l-0.099,0.059l-0.101,0.059l-0.101,0.058l-0.102,0.056l-0.103,0.056l-0.103,0.054l-0.104,0.053l-0.104,0.053l-0.105,0.051l-0.106,0.05l-0.106,0.049l-0.107,0.048l-0.108,0.047l-0.108,0.046l-0.109,0.044l-0.109,0.044l-0.11,0.042l-0.11,0.041l-0.111,0.04l-0.112,0.039l-0.112,0.038l-0.112,0.037l-0.114,0.035l-0.113,0.034l-0.114,0.033l-0.115,0.032l-0.115,0.03l-0.116,0.03l-0.116,0.028l-0.117,0.027l-0.117,0.025l-0.117,0.025l-0.118,0.023l-0.119,0.022l-0.118,0.02l-0.12,0.02l-0.119,0.018l-0.121,0.016l-0.12,0.016l-0.121,0.014l-0.121,0.013l-0.122,0.011l-0.122,0.011l-0.122,0.008l-0.123,0.008l-0.123,0.006l-0.123,0.005l-0.124,0.003l-0.124,0.002l-0.124,0.001l-0.124,-0.001l-0.124,-0.002l-0.124,-0.003l-0.123,-0.005l-0.123,-0.006l-0.123,-0.008l-0.122,-0.008l-0.122,-0.011l-0.122,-0.011l-0.121,-0.013l-0.121,-0.014l-0.12,-0.016l-0.121,-0.016l-0.119,-0.018l-0.12,-0.02l-0.118,-0.02l-0.119,-0.022l-0.118,-0.023l-0.117,-0.025l-0.117,-0.025l-0.117,-0.027l-0.116,-0.028l-0.116,-0.03l-0.115,-0.03l-0.115,-0.032l-0.114,-0.033l-0.113,-0.034l-0.114,-0.035l-0.112,-0.037l-0.112,-0.038l-0.112,-0.039l-0.111,-0.04l-0.11,-0.041l-0.11,-0.042l-0.109,-0.044l-0.109,-0.044l-0.108,-0.046l-0.108,-0.047l-0.107,-0.048l-0.106,-0.049l-0.106,-0.05l-0.105,-0.051l-0.104,-0.053l-0.104,-0.053l-0.103,-0.054l-0.103,-0.056l-0.102,-0.056l-0.101,-0.058l-0.101,-0.059l-0.099,-0.059l-0.099,-0.061l-0.099,-0.061l-0.098,-0.063l-0.097,-0.064l-0.096,-0.064l-0.096,-0.066l-0.094,-0.067l-0.095,-0.067l-0.093,-0.069l-0.093,-0.069l-0.091,-0.071l-0.091,-0.071l-0.091,-0.072l-0.089,-0.074l-0.089,-0.074l-0.088,-0.075l-0.087,-0.076l-0.086,-0.077l-0.086,-0.077l-0.085,-0.079l-0.084,-0.079l-0.083,-0.081l-0.082,-0.081l-0.081,-0.082l-0.081,-0.083l-0.079,-0.084l-0.079,-0.084l-0.078,-0.086l-0.077,-0.086l-0.076,-0.087l-0.075,-0.088l-0.074,-0.089l-0.073,-0.089l-0.073,-0.09l-0.071,-0.091l-0.071,-0.092l-0.069,-0.092l-0.069,-0.094l-0.068,-0.094l-0.067,-0.094l-0.065,-0.096l-0.065,-0.096l-0.064,-0.097l-0.063,-0.098l-0.061,-0.098l-0.061,-0.099l-0.06,-0.1l-0.059,-0.1l-0.057,-0.101l-0.057,-0.102l-0.056,-0.103l-0.054,-0.103l-0.054,-0.103l-0.052,-0.105l-0.051,-0.105l-0.051,-0.105l-0.049,-0.107l-0.048,-0.106l-0.047,-0.108l-0.046,-0.108l-0.045,-0.109l-0.043,-0.109l-0.043,-0.11l-0.041,-0.11l-0.04,-0.111l-0.039,-0.111l-0.038,-0.112l-0.037,-0.113l-0.035,-0.113l-0.034,-0.113l-0.034,-0.115l-0.031,-0.114l-0.031,-0.115l-0.03,-0.116l-0.028,-0.116l-0.027,-0.117l-0.026,-0.116l-0.275,-1.317l22.059,0l-0.274,1.316Zm-20.554,-0.316l0.022,0.107l0.023,0.106l0.025,0.106l0.026,0.105l0.026,0.105l0.028,0.105l0.029,0.104l0.03,0.104l0.032,0.103l0.032,0.102l0.033,0.103l0.034,0.101l0.036,0.102l0.036,0.1l0.038,0.101l0.039,0.099l0.039,0.1l0.041,0.098l0.041,0.099l0.043,0.097l0.044,0.097l0.045,0.097l0.045,0.096l0.047,0.095l0.048,0.095l0.048,0.094l0.05,0.094l0.05,0.093l0.052,0.093l0.052,0.091l0.054,0.092l0.054,0.09l0.055,0.09l0.056,0.09l0.057,0.089l0.058,0.088l0.059,0.087l0.06,0.087l0.061,0.086l0.061,0.086l0.063,0.085l0.063,0.084l0.064,0.083l0.065,0.083l0.066,0.082l0.067,0.081l0.067,0.081l0.069,0.08l0.069,0.079l0.07,0.078l0.071,0.078l0.071,0.077l0.073,0.076l0.073,0.076l0.074,0.074l0.075,0.074l0.075,0.073l0.077,0.073l0.077,0.071l0.077,0.071l0.079,0.07l0.079,0.069l0.08,0.068l0.081,0.068l0.081,0.066l0.082,0.066l0.083,0.065l0.084,0.064l0.084,0.063l0.085,0.062l0.086,0.062l0.086,0.06l0.087,0.06l0.087,0.059l0.089,0.058l0.088,0.057l0.09,0.056l0.09,0.055l0.091,0.054l0.091,0.054l0.092,0.052l0.093,0.051l0.093,0.051l0.094,0.049l0.094,0.049l0.095,0.047l0.095,0.047l0.097,0.045l0.096,0.045l0.097,0.043l0.098,0.043l0.098,0.042l0.099,0.04l0.099,0.04l0.1,0.038l0.101,0.037l0.1,0.037l0.102,0.035l0.102,0.034l0.102,0.034l0.103,0.032l0.103,0.031l0.104,0.03l0.104,0.029l0.104,0.027l0.105,0.027l0.106,0.026l0.106,0.024l0.106,0.023l0.107,0.022l0.107,0.021l0.108,0.02l0.108,0.019l0.108,0.018l0.109,0.016l0.109,0.015l0.11,0.014l0.11,0.013l0.11,0.012l0.11,0.01l0.111,0.01l0.112,0.008l0.111,0.006l0.112,0.006l0.112,0.004l0.113,0.003l0.113,0.002l0.113,0.001l0.113,-0.001l0.113,-0.002l0.113,-0.003l0.112,-0.004l0.112,-0.006l0.111,-0.006l0.112,-0.008l0.111,-0.01l0.11,-0.01l0.11,-0.012l0.11,-0.013l0.11,-0.014l0.109,-0.015l0.109,-0.016l0.108,-0.018l0.108,-0.019l0.108,-0.02l0.107,-0.021l0.107,-0.022l0.106,-0.023l0.106,-0.024l0.106,-0.026l0.105,-0.027l0.104,-0.027l0.104,-0.029l0.104,-0.03l0.103,-0.031l0.103,-0.032l0.102,-0.034l0.102,-0.034l0.102,-0.035l0.1,-0.037l0.101,-0.037l0.1,-0.038l0.099,-0.04l0.099,-0.04l0.098,-0.042l0.098,-0.043l0.097,-0.043l0.096,-0.045l0.097,-0.045l0.095,-0.047l0.095,-0.047l0.094,-0.049l0.094,-0.049l0.093,-0.051l0.093,-0.051l0.092,-0.052l0.091,-0.054l0.091,-0.054l0.09,-0.055l0.09,-0.056l0.088,-0.057l0.089,-0.058l0.087,-0.059l0.087,-0.06l0.086,-0.06l0.086,-0.062l0.085,-0.062l0.084,-0.063l0.084,-0.064l0.083,-0.065l0.082,-0.066l0.081,-0.066l0.081,-0.068l0.08,-0.068l0.079,-0.069l0.079,-0.07l0.077,-0.071l0.077,-0.071l0.077,-0.073l0.075,-0.073l0.075,-0.074l0.074,-0.074l0.073,-0.076l0.073,-0.076l0.071,-0.077l0.071,-0.078l0.07,-0.078l0.069,-0.079l0.069,-0.08l0.067,-0.081l0.067,-0.081l0.066,-0.082l0.065,-0.083l0.064,-0.083l0.063,-0.084l0.063,-0.085l0.061,-0.086l0.061,-0.086l0.06,-0.087l0.059,-0.087l0.058,-0.088l0.057,-0.089l0.056,-0.09l0.055,-0.09l0.054,-0.09l0.054,-0.092l0.052,-0.091l0.052,-0.093l0.05,-0.093l0.05,-0.094l0.048,-0.094l0.048,-0.095l0.047,-0.095l0.045,-0.096l0.045,-0.097l0.044,-0.097l0.043,-0.097l0.041,-0.099l0.041,-0.098l0.039,-0.1l0.039,-0.099l0.038,-0.101l0.036,-0.1l0.036,-0.102l0.034,-0.101l0.033,-0.103l0.032,-0.102l0.032,-0.103l0.03,-0.104l0.029,-0.104l0.028,-0.105l0.026,-0.105l0.026,-0.105l0.025,-0.106l0.023,-0.106l0.022,-0.107l-19.598,0Z" style="fill:#7e5108;"/><path d="M26.207,13.293l0.033,0.035l0.032,0.036l0.03,0.038l0.028,0.04l0.026,0.041l0.024,0.042l0.022,0.043l0.02,0.044l0.017,0.045l0.016,0.045l0.013,0.047l0.011,0.047l0.009,0.048l0.006,0.047l0.004,0.049l0.002,0.048l-0.001,0.048l-0.003,0.048l-0.005,0.049l-0.007,0.047l-0.01,0.048l-0.012,0.046l-0.015,0.046l-0.016,0.046l-0.019,0.044l-0.021,0.044l-0.023,0.043l-0.025,0.041l-0.027,0.04l-0.029,0.039l-0.031,0.037l-0.032,0.036l-0.034,0.034l-0.036,0.032l-0.037,0.031l-0.039,0.029l-0.04,0.027l-0.041,0.025l-0.043,0.023l-0.044,0.021l-0.044,0.019l-0.046,0.016l-0.046,0.015l-0.046,0.012l-0.048,0.01l-0.047,0.007l-0.049,0.005l-0.048,0.003l-0.048,0.001l-0.048,-0.002l-0.049,-0.004l-0.047,-0.006l-0.048,-0.009l-0.047,-0.011l-0.046,-0.013l-0.046,-0.016l-0.045,-0.017l-0.044,-0.02l-0.043,-0.022l-0.042,-0.024l-0.041,-0.026l-0.04,-0.028l-0.038,-0.03l-0.036,-0.032l-0.035,-0.033l-2.293,-2.293l-2.293,2.293l-0.035,0.033l-0.036,0.032l-0.038,0.03l-0.04,0.028l-0.041,0.026l-0.042,0.024l-0.043,0.022l-0.044,0.02l-0.045,0.017l-0.045,0.016l-0.047,0.013l-0.047,0.011l-0.048,0.009l-0.047,0.006l-0.049,0.004l-0.048,0.002l-0.048,-0.001l-0.048,-0.003l-0.049,-0.005l-0.047,-0.007l-0.048,-0.01l-0.046,-0.012l-0.046,-0.015l-0.046,-0.016l-0.044,-0.019l-0.044,-0.021l-0.042,-0.023l-0.042,-0.025l-0.04,-0.027l-0.039,-0.029l-0.037,-0.031l-0.036,-0.032l-0.034,-0.034l-0.032,-0.036l-0.031,-0.037l-0.029,-0.039l-0.027,-0.04l-0.025,-0.041l-0.023,-0.043l-0.021,-0.044l-0.019,-0.044l-0.016,-0.046l-0.015,-0.046l-0.012,-0.046l-0.01,-0.048l-0.007,-0.047l-0.005,-0.049l-0.003,-0.048l-0.001,-0.048l0.002,-0.048l0.004,-0.049l0.006,-0.047l0.009,-0.048l0.011,-0.047l0.013,-0.047l0.016,-0.045l0.017,-0.045l0.02,-0.044l0.022,-0.043l0.024,-0.042l0.026,-0.041l0.028,-0.04l0.03,-0.038l0.032,-0.036l0.033,-0.035l3.707,-3.707l3.707,3.707Z"/><path d="M13.207,13.293l0.033,0.035l0.032,0.036l0.03,0.038l0.028,0.04l0.026,0.041l0.024,0.042l0.022,0.043l0.02,0.044l0.017,0.045l0.016,0.045l0.013,0.047l0.011,0.047l0.009,0.048l0.006,0.047l0.004,0.049l0.002,0.048l-0.001,0.048l-0.003,0.048l-0.005,0.049l-0.007,0.047l-0.01,0.048l-0.012,0.046l-0.015,0.046l-0.016,0.046l-0.019,0.044l-0.021,0.044l-0.023,0.043l-0.025,0.041l-0.027,0.04l-0.029,0.039l-0.031,0.037l-0.032,0.036l-0.034,0.034l-0.036,0.032l-0.037,0.031l-0.039,0.029l-0.04,0.027l-0.041,0.025l-0.043,0.023l-0.044,0.021l-0.044,0.019l-0.046,0.016l-0.046,0.015l-0.046,0.012l-0.048,0.01l-0.047,0.007l-0.049,0.005l-0.048,0.003l-0.048,0.001l-0.048,-0.002l-0.049,-0.004l-0.047,-0.006l-0.048,-0.009l-0.047,-0.011l-0.047,-0.013l-0.045,-0.016l-0.045,-0.017l-0.044,-0.02l-0.043,-0.022l-0.042,-0.024l-0.041,-0.026l-0.04,-0.028l-0.038,-0.03l-0.036,-0.032l-0.035,-0.033l-2.293,-2.293l-2.293,2.293l-0.035,0.033l-0.036,0.032l-0.038,0.03l-0.04,0.028l-0.041,0.026l-0.042,0.024l-0.043,0.022l-0.044,0.02l-0.045,0.017l-0.045,0.016l-0.047,0.013l-0.047,0.011l-0.048,0.009l-0.047,0.006l-0.049,0.004l-0.048,0.002l-0.048,-0.001l-0.048,-0.003l-0.049,-0.005l-0.047,-0.007l-0.048,-0.01l-0.046,-0.012l-0.046,-0.015l-0.046,-0.016l-0.044,-0.019l-0.044,-0.021l-0.043,-0.023l-0.041,-0.025l-0.04,-0.027l-0.039,-0.029l-0.037,-0.031l-0.036,-0.032l-0.034,-0.034l-0.032,-0.036l-0.031,-0.037l-0.029,-0.039l-0.027,-0.04l-0.025,-0.041l-0.023,-0.043l-0.021,-0.044l-0.019,-0.044l-0.016,-0.046l-0.015,-0.046l-0.012,-0.046l-0.01,-0.048l-0.007,-0.047l-0.005,-0.049l-0.003,-0.048l-0.001,-0.048l0.002,-0.048l0.004,-0.049l0.006,-0.047l0.009,-0.048l0.011,-0.047l0.013,-0.047l0.016,-0.045l0.017,-0.045l0.02,-0.044l0.022,-0.043l0.024,-0.042l0.026,-0.041l0.028,-0.04l0.03,-0.038l0.032,-0.036l0.033,-0.035l3.707,-3.707l3.707,3.707Z"/></g></g></svg>