<?xml version="1.0" encoding="UTF-8" standalone="no"?>
<!DOCTYPE svg PUBLIC "-//W3C//DTD SVG 1.1//EN" "http://www.w3.org/Graphics/SVG/1.1/DTD/svg11.dtd">
<svg width="100%" height="100%" viewBox="0 0 32 32" version="1.1" xmlns="http://www.w3.org/2000/svg" xmlns:xlink="http://www.w3.org/1999/xlink" xml:space="preserve" xmlns:serif="http://www.serif.com/" style="fill-rule:evenodd;clip-rule:evenodd;stroke-miterlimit:3;">
    <rect id="grinning" x="0" y="0" width="32" height="32" style="fill:none;"/>
    <clipPath id="_clip1">
        <rect x="0" y="0" width="32" height="32"/>
    </clipPath>
    <g clip-path="url(#_clip1)">
        <g id="outline">
            <path d="M16,0c4.243,0 8.313,1.686 11.314,4.686c3,3.001 4.686,7.071 4.686,11.314l0,1c0,8.284 -6.716,15 -15,15l-2,0c-8.284,0 -15,-6.716 -15,-15l0,-1c0,-8.837 7.163,-16 16,-16l0,0Z"/>
        </g>
        <g id="emoji">
            <path d="M30,16c0,-3.713 -1.475,-7.274 -4.101,-9.899c-2.625,-2.626 -6.186,-4.101 -9.899,-4.101l0,0c-7.732,0 -14,6.268 -14,14l0,1c0,7.18 5.82,13 13,13l2,0c7.18,0 13,-5.82 13,-13l0,-1Z" style="fill:#fbc546;"/>
            <path d="M5.789,14.713c0.187,0.187 0.441,0.292 0.706,0.292c0.265,0 0.519,-0.105 0.706,-0.292c0.004,-0.004 0.007,-0.006 0.007,-0.006c0.608,-0.608 1.432,-0.95 2.292,-0.95c0.86,0 1.684,0.342 2.292,0.95c0,0 0.003,0.002 0.007,0.006c0.187,0.187 0.441,0.292 0.706,0.292c0.265,0 0.519,-0.105 0.706,-0.292c0.001,0 0.001,-0.001 0.001,-0.001c0.391,-0.39 0.391,-1.024 0,-1.414c-0.003,-0.004 -0.005,-0.006 -0.005,-0.006c-0.983,-0.983 -2.317,-1.535 -3.707,-1.535c-1.39,0 -2.724,0.552 -3.707,1.535c0,0 -0.002,0.002 -0.005,0.006c-0.391,0.39 -0.391,1.024 0,1.414c0,0 0,0.001 0.001,0.001Z"/>
            <path d="M26.211,14.713c-0.187,0.187 -0.441,0.292 -0.706,0.292c-0.265,0 -0.519,-0.105 -0.706,-0.292c-0.004,-0.004 -0.007,-0.006 -0.007,-0.006c-0.608,-0.608 -1.432,-0.95 -2.292,-0.95c-0.86,0 -1.684,0.342 -2.292,0.95c0,0 -0.003,0.002 -0.007,0.006c-0.187,0.187 -0.441,0.292 -0.706,0.292c-0.265,0 -0.519,-0.105 -0.706,-0.292c-0.001,0 -0.001,-0.001 -0.001,-0.001c-0.391,-0.39 -0.391,-1.024 0,-1.414c0.003,-0.004 0.005,-0.006 0.005,-0.006c0.983,-0.983 2.317,-1.535 3.707,-1.535c1.39,0 2.724,0.552 3.707,1.535c0,0 0.002,0.002 0.005,0.006c0.391,0.39 0.391,1.024 0,1.414c0,0 0,0.001 -0.001,0.001Z"/>
            <g>
                <path d="M25.799,18c-0.926,4.562 -4.964,8 -9.799,8c-4.835,0 -8.873,-3.438 -9.799,-8l19.598,0Z" style="fill:none;stroke:#7e5108;stroke-width:2px;"/>
                <path d="M25.696,18.452c-0.433,1.719 -1.312,3.261 -2.507,4.496c-0.547,-0.583 -13.749,-0.632 -14.311,-0.07c-0.023,0.023 -0.045,0.046 -0.067,0.07c-1.195,-1.236 -2.074,-2.778 -2.507,-4.496c1.121,1.595 18.271,1.595 19.392,0Z" style="fill:#707070;"/>
                <path d="M8.811,22.948c0.022,-0.024 0.044,-0.047 0.067,-0.07c0.562,-0.562 1.325,-0.878 2.12,-0.878c2.859,0 7.142,0 10.002,0c0.863,0 1.642,0.365 2.189,0.948c-1.819,1.882 -4.368,3.052 -7.189,3.052c-2.821,0 -5.371,-1.171 -7.189,-3.052Zm-2.507,-4.496c-0.038,-0.149 -0.072,-0.3 -0.103,-0.452l19.598,0c-0.031,0.152 -0.065,0.303 -0.103,0.452c-1.121,1.595 -2.951,2.548 -4.907,2.548c-2.784,0 -6.794,0 -9.578,0c-1.956,0 -3.786,-0.953 -4.907,-2.548Z" style="fill:#fff;"/>
            </g>
        </g>
    </g>
</svg>
