<?xml version="1.0" encoding="UTF-8" standalone="no"?>
<!DOCTYPE svg PUBLIC "-//W3C//DTD SVG 1.1//EN" "http://www.w3.org/Graphics/SVG/1.1/DTD/svg11.dtd">
<svg width="100%" height="100%" viewBox="0 0 32 32" version="1.1" xmlns="http://www.w3.org/2000/svg" xmlns:xlink="http://www.w3.org/1999/xlink" xml:space="preserve" xmlns:serif="http://www.serif.com/" style="fill-rule:evenodd;clip-rule:evenodd;stroke-linejoin:round;stroke-miterlimit:2;">
    <rect id="grin" x="0" y="0" width="32" height="32" style="fill:none;"/>
    <clipPath id="_clip1">
        <rect x="0" y="0" width="32" height="32"/>
    </clipPath>
    <g clip-path="url(#_clip1)">
        <g id="outline">
            <path d="M16,0c4.243,0 8.313,1.686 11.314,4.686c3,3.001 4.686,7.071 4.686,11.314l0,1c0,8.284 -6.716,15 -15,15l-2,0c-8.284,0 -15,-6.716 -15,-15l0,-1c0,-8.837 7.163,-16 16,-16l0,0Z"/>
        </g>
        <g id="emoji">
            <path d="M30,16c0,-3.713 -1.475,-7.274 -4.101,-9.899c-2.625,-2.626 -6.186,-4.101 -9.899,-4.101l0,0c-7.732,0 -14,6.268 -14,14l0,1c0,7.18 5.82,13 13,13l2,0c7.18,0 13,-5.82 13,-13l0,-1Z" style="fill:#fbc546;"/>
            <path d="M5.789,13.713c0.187,0.187 0.441,0.292 0.706,0.292c0.265,0 0.519,-0.105 0.706,-0.292c0.004,-0.004 0.007,-0.006 0.007,-0.006c0.608,-0.608 1.432,-0.95 2.292,-0.95c0.86,0 1.684,0.342 2.292,0.95c0,0 0.003,0.002 0.007,0.006c0.187,0.187 0.441,0.292 0.706,0.292c0.265,0 0.519,-0.105 0.706,-0.292c0.001,0 0.001,-0.001 0.001,-0.001c0.391,-0.39 0.391,-1.024 0,-1.414c-0.003,-0.004 -0.005,-0.006 -0.005,-0.006c-0.983,-0.983 -2.317,-1.535 -3.707,-1.535c-1.39,0 -2.724,0.552 -3.707,1.535c0,0 -0.002,0.002 -0.005,0.006c-0.391,0.39 -0.391,1.024 0,1.414c0,0 0,0.001 0.001,0.001Z"/>
            <path d="M26.211,13.713c-0.187,0.187 -0.441,0.292 -0.706,0.292c-0.265,0 -0.519,-0.105 -0.706,-0.292c-0.004,-0.004 -0.007,-0.006 -0.007,-0.006c-0.608,-0.608 -1.432,-0.95 -2.292,-0.95c-0.86,0 -1.684,0.342 -2.292,0.95c0,0 -0.003,0.002 -0.007,0.006c-0.187,0.187 -0.441,0.292 -0.706,0.292c-0.265,0 -0.519,-0.105 -0.706,-0.292c-0.001,0 -0.001,-0.001 -0.001,-0.001c-0.391,-0.39 -0.391,-1.024 0,-1.414c0.003,-0.004 0.005,-0.006 0.005,-0.006c0.983,-0.983 2.317,-1.535 3.707,-1.535c1.39,0 2.724,0.552 3.707,1.535c0,0 0.002,0.002 0.005,0.006c0.391,0.39 0.391,1.024 0,1.414c0,0 0,0.001 -0.001,0.001Z"/>
            <g>
                <path d="M9.745,23.123c-2.28,-1.444 -4.034,-3.613 -4.544,-6.123l21.598,0c-0.51,2.51 -2.264,4.679 -4.544,6.123c-1.117,-1.318 -11.393,-1.318 -12.51,0Z" style="fill:#722245;"/>
                <path d="M9.745,23.123c1.117,-1.318 2.778,-2.123 4.58,-2.123c1.09,0 2.26,0 3.35,0c1.802,0 3.463,0.805 4.58,2.123c-1.864,1.181 -4.08,1.877 -6.255,1.877c-2.175,0 -4.391,-0.696 -6.255,-1.877Z" style="fill:#ca3b8f;"/>
            </g>
        </g>
    </g>
</svg>
