<?xml version="1.0" encoding="UTF-8" standalone="no"?><!DOCTYPE svg PUBLIC "-//W3C//DTD SVG 1.1//EN" "http://www.w3.org/Graphics/SVG/1.1/DTD/svg11.dtd"><svg width="100%" height="100%" viewBox="0 0 32 32" version="1.1" xmlns="http://www.w3.org/2000/svg" xmlns:xlink="http://www.w3.org/1999/xlink" xml:space="preserve" xmlns:serif="http://www.serif.com/" style="fill-rule:evenodd;clip-rule:evenodd;stroke-linejoin:round;stroke-miterlimit:1.41421;"><rect id="halo" x="0" y="0" width="32" height="32" style="fill:none;"/><clipPath id="_clip1"><rect x="0" y="0" width="32" height="32"/></clipPath><g clip-path="url(#_clip1)"><g id="outline"><path d="M16.193,2.001l0.193,0.004l0.192,0.006l0.192,0.008l0.191,0.011l0.191,0.014l0.19,0.015l0.189,0.018l0.189,0.021l0.188,0.022l0.187,0.025l0.187,0.028l0.186,0.029l0.185,0.032l0.184,0.034l0.184,0.037l0.183,0.038l0.182,0.041l0.181,0.043l0.18,0.045l0.18,0.048l0.178,0.049l0.178,0.052l0.177,0.054l0.176,0.056l0.175,0.058l0.174,0.06l0.172,0.062l0.172,0.064l0.171,0.066l0.17,0.068l0.169,0.071l0.168,0.072l0.167,0.074l0.166,0.076l0.164,0.078l0.164,0.08l0.162,0.082l0.161,0.084l0.16,0.086l0.159,0.087l0.158,0.09l0.156,0.091l0.156,0.093l0.154,0.095l0.152,0.096l0.152,0.099l0.15,0.1l0.149,0.102l0.148,0.104l0.146,0.105l0.145,0.107l0.144,0.109l0.142,0.11l0.141,0.112l0.139,0.114l0.138,0.115l0.137,0.117l0.135,0.119l0.134,0.12l0.132,0.122l0.131,0.123l0.13,0.125l0.128,0.126l0.126,0.128l0.125,0.13l0.123,0.131l0.122,0.132l0.12,0.134l0.119,0.135l0.117,0.137l0.115,0.138l0.114,0.139l0.112,0.141l0.11,0.142l0.109,0.144l0.107,0.145l0.105,0.146l0.104,0.148l0.102,0.149l0.1,0.15l0.099,0.152l0.096,0.152l0.095,0.154l0.093,0.156l0.092,0.156l0.089,0.158l0.087,0.159l0.086,0.16l0.084,0.161l0.082,0.162l0.08,0.164l0.078,0.164l0.076,0.166l0.074,0.167l0.072,0.168l0.071,0.169l0.068,0.17l0.066,0.171l0.064,0.171l0.062,0.173l0.06,0.174l0.058,0.175l0.056,0.176l0.054,0.177l0.052,0.178l0.049,0.178l0.048,0.18l0.045,0.18l0.043,0.181l0.041,0.182l0.038,0.183l0.037,0.184l0.034,0.184l0.032,0.185l0.029,0.186l0.028,0.187l0.025,0.187l0.022,0.188l0.021,0.189l0.018,0.189l0.015,0.19l0.014,0.191l0.011,0.191l0.008,0.192l0.006,0.192l0.004,0.193l0.001,0.187l0,2.012l-0.001,0.155l-0.003,0.162l-0.005,0.161l-0.007,0.161l-0.009,0.16l-0.011,0.16l-0.013,0.16l-0.015,0.16l-0.016,0.159l-0.019,0.159l-0.021,0.158l-0.022,0.159l-0.025,0.157l-0.026,0.158l-0.029,0.157l-0.03,0.156l-0.032,0.156l-0.034,0.155l-0.036,0.155l-0.038,0.155l-0.04,0.154l-0.041,0.153l-0.044,0.153l-0.045,0.152l-0.047,0.151l-0.049,0.151l-0.051,0.151l-0.052,0.149l-0.055,0.149l-0.056,0.149l-0.058,0.147l-0.06,0.147l-0.061,0.146l-0.063,0.145l-0.066,0.145l-0.066,0.144l-0.069,0.143l-0.07,0.142l-0.073,0.141l-0.073,0.141l-0.076,0.139l-0.077,0.139l-0.079,0.138l-0.081,0.136l-0.083,0.136l-0.084,0.135l-0.086,0.134l-0.087,0.133l-0.089,0.132l-0.091,0.131l-0.093,0.13l-0.094,0.129l-0.096,0.128l-0.097,0.127l-0.099,0.125l-0.101,0.125l-0.102,0.123l-0.104,0.122l-0.106,0.121l-0.107,0.12l-0.109,0.119l-0.11,0.117l-0.112,0.117l-0.114,0.114l-0.114,0.114l-0.117,0.112l-0.117,0.11l-0.119,0.109l-0.119,0.107l-0.121,0.106l-0.123,0.104l-0.123,0.102l-0.125,0.101l-0.125,0.099l-0.127,0.097l-0.128,0.096l-0.129,0.094l-0.13,0.093l-0.131,0.091l-0.132,0.089l-0.133,0.087l-0.134,0.086l-0.135,0.084l-0.136,0.083l-0.136,0.081l-0.138,0.079l-0.139,0.077l-0.139,0.076l-0.141,0.073l-0.141,0.073l-0.142,0.07l-0.143,0.069l-0.144,0.066l-0.145,0.066l-0.145,0.063l-0.146,0.061l-0.147,0.06l-0.147,0.058l-0.149,0.056l-0.149,0.055l-0.149,0.052l-0.151,0.051l-0.151,0.049l-0.151,0.047l-0.152,0.045l-0.153,0.044l-0.153,0.041l-0.154,0.04l-0.155,0.038l-0.155,0.036l-0.155,0.034l-0.156,0.032l-0.156,0.03l-0.157,0.029l-0.158,0.026l-0.157,0.025l-0.158,0.022l-0.159,0.021l-0.159,0.019l-0.159,0.016l-0.16,0.015l-0.16,0.013l-0.16,0.011l-0.16,0.009l-0.161,0.007l-0.161,0.005l-0.162,0.003l-0.155,0.001l-4.012,0l-0.155,-0.001l-0.162,-0.003l-0.161,-0.005l-0.161,-0.007l-0.16,-0.009l-0.16,-0.011l-0.16,-0.013l-0.16,-0.015l-0.159,-0.016l-0.159,-0.019l-0.159,-0.021l-0.158,-0.022l-0.157,-0.025l-0.158,-0.026l-0.157,-0.029l-0.156,-0.03l-0.156,-0.032l-0.155,-0.034l-0.155,-0.036l-0.155,-0.038l-0.154,-0.04l-0.153,-0.041l-0.153,-0.044l-0.152,-0.045l-0.151,-0.047l-0.151,-0.049l-0.151,-0.051l-0.149,-0.052l-0.149,-0.055l-0.149,-0.056l-0.147,-0.058l-0.147,-0.06l-0.146,-0.061l-0.145,-0.063l-0.145,-0.066l-0.144,-0.066l-0.143,-0.069l-0.142,-0.07l-0.141,-0.073l-0.141,-0.073l-0.139,-0.076l-0.139,-0.077l-0.138,-0.079l-0.136,-0.081l-0.136,-0.083l-0.135,-0.084l-0.134,-0.086l-0.133,-0.087l-0.132,-0.089l-0.131,-0.091l-0.13,-0.093l-0.129,-0.094l-0.128,-0.096l-0.127,-0.097l-0.125,-0.099l-0.125,-0.101l-0.123,-0.102l-0.122,-0.104l-0.122,-0.106l-0.119,-0.107l-0.119,-0.109l-0.117,-0.11l-0.117,-0.112l-0.114,-0.114l-0.114,-0.114l-0.112,-0.117l-0.11,-0.117l-0.109,-0.119l-0.107,-0.119l-0.106,-0.122l-0.104,-0.122l-0.102,-0.123l-0.101,-0.125l-0.099,-0.125l-0.097,-0.127l-0.096,-0.128l-0.094,-0.129l-0.093,-0.13l-0.091,-0.131l-0.089,-0.132l-0.087,-0.133l-0.086,-0.134l-0.084,-0.135l-0.083,-0.136l-0.081,-0.136l-0.079,-0.138l-0.077,-0.139l-0.076,-0.139l-0.073,-0.141l-0.073,-0.141l-0.07,-0.142l-0.069,-0.143l-0.066,-0.144l-0.066,-0.145l-0.063,-0.145l-0.061,-0.146l-0.06,-0.147l-0.058,-0.147l-0.056,-0.149l-0.055,-0.149l-0.052,-0.149l-0.051,-0.151l-0.049,-0.15l-0.047,-0.152l-0.045,-0.152l-0.044,-0.153l-0.041,-0.153l-0.04,-0.154l-0.038,-0.155l-0.036,-0.155l-0.034,-0.155l-0.032,-0.156l-0.03,-0.156l-0.029,-0.157l-0.026,-0.158l-0.025,-0.157l-0.022,-0.158l-0.021,-0.159l-0.019,-0.159l-0.016,-0.159l-0.015,-0.16l-0.013,-0.16l-0.011,-0.16l-0.009,-0.16l-0.007,-0.161l-0.005,-0.161l-0.003,-0.161l-0.001,-0.156l0,-2.012l0.001,-0.187l0.004,-0.193l0.006,-0.193l0.008,-0.191l0.011,-0.191l0.014,-0.191l0.015,-0.19l0.018,-0.189l0.021,-0.189l0.022,-0.188l0.025,-0.187l0.028,-0.187l0.029,-0.186l0.032,-0.185l0.034,-0.184l0.037,-0.184l0.038,-0.183l0.041,-0.182l0.043,-0.181l0.045,-0.18l0.048,-0.18l0.049,-0.178l0.052,-0.178l0.054,-0.177l0.056,-0.176l0.058,-0.175l0.06,-0.174l0.062,-0.173l0.064,-0.171l0.066,-0.171l0.068,-0.17l0.071,-0.169l0.072,-0.168l0.074,-0.167l0.076,-0.166l0.078,-0.164l0.08,-0.164l0.082,-0.162l0.084,-0.161l0.086,-0.16l0.087,-0.159l0.09,-0.158l0.091,-0.156l0.093,-0.156l0.095,-0.154l0.096,-0.152l0.099,-0.152l0.1,-0.15l0.102,-0.149l0.103,-0.148l0.106,-0.146l0.107,-0.145l0.109,-0.144l0.11,-0.142l0.112,-0.141l0.114,-0.139l0.115,-0.138l0.117,-0.137l0.119,-0.135l0.12,-0.134l0.122,-0.132l0.123,-0.131l0.125,-0.13l0.126,-0.128l0.128,-0.126l0.13,-0.125l0.131,-0.123l0.132,-0.122l0.134,-0.12l0.135,-0.119l0.137,-0.117l0.138,-0.115l0.139,-0.114l0.141,-0.112l0.142,-0.11l0.144,-0.109l0.145,-0.107l0.146,-0.105l0.148,-0.104l0.149,-0.102l0.15,-0.1l0.152,-0.099l0.152,-0.096l0.154,-0.095l0.156,-0.093l0.156,-0.091l0.158,-0.09l0.159,-0.087l0.16,-0.086l0.161,-0.084l0.162,-0.082l0.164,-0.08l0.164,-0.078l0.166,-0.076l0.167,-0.074l0.168,-0.072l0.169,-0.071l0.17,-0.068l0.171,-0.066l0.171,-0.064l0.173,-0.062l0.174,-0.06l0.175,-0.058l0.176,-0.056l0.177,-0.054l0.178,-0.052l0.178,-0.049l0.18,-0.048l0.18,-0.045l0.181,-0.043l0.182,-0.041l0.183,-0.038l0.184,-0.037l0.184,-0.034l0.185,-0.032l0.186,-0.029l0.187,-0.028l0.187,-0.025l0.188,-0.022l0.189,-0.021l0.189,-0.018l0.19,-0.015l0.191,-0.014l0.191,-0.011l0.192,-0.008l0.192,-0.006l0.193,-0.004l0.193,-0.001l0.193,0.001Zm-0.336,4l-0.142,0.003l-0.142,0.004l-0.141,0.006l-0.14,0.008l-0.14,0.01l-0.14,0.012l-0.139,0.013l-0.139,0.015l-0.138,0.017l-0.137,0.018l-0.137,0.02l-0.136,0.022l-0.136,0.023l-0.135,0.025l-0.134,0.027l-0.134,0.028l-0.133,0.03l-0.133,0.031l-0.132,0.033l-0.131,0.035l-0.131,0.036l-0.129,0.038l-0.13,0.039l-0.128,0.041l-0.128,0.043l-0.128,0.043l-0.126,0.046l-0.126,0.047l-0.125,0.048l-0.125,0.05l-0.123,0.052l-0.123,0.052l-0.122,0.055l-0.121,0.056l-0.121,0.057l-0.12,0.058l-0.119,0.06l-0.118,0.062l-0.117,0.062l-0.116,0.065l-0.116,0.065l-0.115,0.067l-0.113,0.068l-0.113,0.07l-0.112,0.071l-0.112,0.072l-0.11,0.073l-0.109,0.075l-0.108,0.076l-0.108,0.078l-0.106,0.078l-0.106,0.08l-0.104,0.081l-0.104,0.083l-0.102,0.083l-0.102,0.085l-0.1,0.086l-0.099,0.087l-0.099,0.088l-0.097,0.09l-0.096,0.09l-0.095,0.092l-0.094,0.093l-0.093,0.094l-0.092,0.095l-0.09,0.096l-0.09,0.097l-0.088,0.099l-0.087,0.099l-0.086,0.1l-0.085,0.102l-0.083,0.102l-0.083,0.104l-0.081,0.104l-0.08,0.106l-0.078,0.106l-0.078,0.108l-0.076,0.108l-0.075,0.109l-0.073,0.11l-0.072,0.112l-0.071,0.112l-0.07,0.113l-0.068,0.113l-0.067,0.115l-0.065,0.116l-0.064,0.116l-0.063,0.117l-0.062,0.119l-0.06,0.118l-0.058,0.12l-0.057,0.121l-0.056,0.121l-0.054,0.122l-0.053,0.123l-0.052,0.124l-0.05,0.124l-0.048,0.125l-0.047,0.126l-0.046,0.126l-0.043,0.128l-0.043,0.128l-0.041,0.128l-0.039,0.129l-0.038,0.131l-0.036,0.13l-0.035,0.131l-0.033,0.132l-0.031,0.133l-0.03,0.133l-0.028,0.134l-0.027,0.134l-0.025,0.135l-0.023,0.136l-0.022,0.136l-0.02,0.137l-0.018,0.137l-0.017,0.138l-0.015,0.139l-0.013,0.139l-0.012,0.14l-0.01,0.14l-0.008,0.14l-0.006,0.141l-0.004,0.142l-0.003,0.142l-0.001,0.149l0,1.988l0.001,0.118l0.002,0.112l0.003,0.111l0.005,0.111l0.006,0.111l0.008,0.111l0.009,0.111l0.01,0.111l0.012,0.11l0.013,0.11l0.014,0.11l0.016,0.109l0.017,0.109l0.018,0.109l0.02,0.109l0.021,0.108l0.022,0.108l0.023,0.108l0.025,0.107l0.026,0.107l0.028,0.106l0.029,0.106l0.03,0.106l0.031,0.105l0.033,0.105l0.034,0.105l0.035,0.104l0.036,0.104l0.038,0.103l0.039,0.102l0.04,0.102l0.041,0.102l0.043,0.101l0.044,0.101l0.045,0.1l0.046,0.099l0.047,0.1l0.049,0.098l0.05,0.098l0.051,0.097l0.053,0.097l0.053,0.096l0.055,0.095l0.056,0.095l0.057,0.094l0.058,0.093l0.06,0.093l0.06,0.092l0.062,0.092l0.063,0.09l0.064,0.09l0.065,0.089l0.066,0.089l0.068,0.088l0.068,0.087l0.07,0.086l0.071,0.085l0.072,0.085l0.073,0.084l0.074,0.082l0.076,0.083l0.076,0.081l0.077,0.08l0.079,0.08l0.08,0.079l0.08,0.077l0.081,0.076l0.082,0.076l0.083,0.074l0.084,0.073l0.085,0.072l0.085,0.071l0.086,0.07l0.087,0.068l0.088,0.068l0.089,0.066l0.089,0.065l0.09,0.064l0.09,0.063l0.092,0.062l0.092,0.06l0.093,0.06l0.093,0.058l0.094,0.057l0.095,0.056l0.095,0.055l0.096,0.053l0.097,0.053l0.097,0.051l0.098,0.05l0.098,0.049l0.099,0.047l0.1,0.046l0.1,0.045l0.101,0.044l0.101,0.043l0.102,0.041l0.102,0.04l0.102,0.039l0.104,0.038l0.103,0.036l0.104,0.035l0.105,0.034l0.105,0.033l0.105,0.031l0.106,0.03l0.106,0.029l0.106,0.028l0.107,0.026l0.107,0.025l0.108,0.023l0.108,0.022l0.108,0.021l0.109,0.02l0.109,0.018l0.109,0.017l0.109,0.016l0.11,0.014l0.11,0.013l0.11,0.012l0.111,0.01l0.111,0.009l0.111,0.008l0.111,0.006l0.111,0.005l0.111,0.003l0.112,0.002l0.118,0.001l3.988,0l0.118,-0.001l0.112,-0.002l0.111,-0.003l0.111,-0.005l0.111,-0.006l0.111,-0.008l0.111,-0.009l0.111,-0.01l0.11,-0.012l0.11,-0.013l0.11,-0.014l0.109,-0.016l0.109,-0.017l0.109,-0.018l0.109,-0.02l0.108,-0.021l0.108,-0.022l0.108,-0.023l0.107,-0.025l0.107,-0.026l0.106,-0.028l0.106,-0.029l0.106,-0.03l0.105,-0.031l0.105,-0.033l0.105,-0.034l0.104,-0.035l0.104,-0.036l0.103,-0.038l0.102,-0.039l0.102,-0.04l0.102,-0.041l0.101,-0.043l0.101,-0.044l0.1,-0.045l0.1,-0.046l0.099,-0.047l0.098,-0.049l0.098,-0.05l0.097,-0.051l0.097,-0.053l0.096,-0.053l0.095,-0.055l0.095,-0.056l0.094,-0.057l0.093,-0.058l0.093,-0.06l0.092,-0.06l0.092,-0.062l0.09,-0.063l0.09,-0.064l0.089,-0.065l0.089,-0.066l0.088,-0.068l0.087,-0.068l0.086,-0.07l0.085,-0.071l0.085,-0.072l0.084,-0.073l0.082,-0.074l0.083,-0.076l0.081,-0.076l0.08,-0.077l0.08,-0.079l0.079,-0.08l0.077,-0.08l0.076,-0.081l0.076,-0.083l0.074,-0.082l0.073,-0.084l0.072,-0.085l0.071,-0.085l0.07,-0.086l0.068,-0.087l0.068,-0.088l0.066,-0.089l0.065,-0.089l0.064,-0.09l0.063,-0.09l0.062,-0.092l0.06,-0.092l0.06,-0.093l0.058,-0.093l0.057,-0.094l0.056,-0.095l0.055,-0.095l0.053,-0.096l0.053,-0.097l0.051,-0.097l0.05,-0.098l0.048,-0.098l0.048,-0.099l0.046,-0.1l0.045,-0.1l0.044,-0.101l0.043,-0.101l0.041,-0.102l0.04,-0.102l0.039,-0.102l0.038,-0.103l0.036,-0.104l0.035,-0.104l0.034,-0.105l0.033,-0.105l0.031,-0.105l0.03,-0.106l0.029,-0.106l0.028,-0.106l0.026,-0.107l0.025,-0.107l0.023,-0.108l0.022,-0.108l0.021,-0.108l0.02,-0.109l0.018,-0.109l0.017,-0.109l0.016,-0.109l0.014,-0.11l0.013,-0.11l0.012,-0.11l0.01,-0.111l0.009,-0.111l0.008,-0.111l0.006,-0.111l0.005,-0.111l0.003,-0.111l0.002,-0.112l0.001,-0.118l0,-1.988l-0.001,-0.149l-0.003,-0.142l-0.004,-0.142l-0.006,-0.141l-0.008,-0.14l-0.01,-0.14l-0.012,-0.14l-0.013,-0.139l-0.015,-0.139l-0.017,-0.138l-0.018,-0.137l-0.02,-0.137l-0.022,-0.136l-0.023,-0.136l-0.025,-0.135l-0.027,-0.134l-0.028,-0.134l-0.03,-0.133l-0.031,-0.133l-0.033,-0.132l-0.035,-0.131l-0.036,-0.131l-0.038,-0.129l-0.039,-0.13l-0.041,-0.128l-0.043,-0.128l-0.043,-0.128l-0.046,-0.126l-0.047,-0.126l-0.048,-0.125l-0.05,-0.124l-0.052,-0.124l-0.053,-0.123l-0.054,-0.122l-0.056,-0.121l-0.057,-0.121l-0.058,-0.12l-0.06,-0.118l-0.062,-0.119l-0.063,-0.117l-0.064,-0.116l-0.065,-0.116l-0.067,-0.115l-0.068,-0.113l-0.07,-0.113l-0.071,-0.112l-0.072,-0.112l-0.073,-0.11l-0.075,-0.109l-0.076,-0.108l-0.078,-0.108l-0.078,-0.106l-0.08,-0.106l-0.081,-0.104l-0.083,-0.104l-0.083,-0.102l-0.085,-0.102l-0.086,-0.1l-0.087,-0.099l-0.088,-0.099l-0.09,-0.097l-0.09,-0.096l-0.092,-0.095l-0.093,-0.094l-0.094,-0.093l-0.095,-0.092l-0.096,-0.09l-0.097,-0.09l-0.099,-0.088l-0.099,-0.087l-0.1,-0.086l-0.102,-0.085l-0.102,-0.083l-0.104,-0.083l-0.104,-0.081l-0.106,-0.08l-0.106,-0.078l-0.108,-0.078l-0.108,-0.076l-0.109,-0.075l-0.11,-0.073l-0.112,-0.072l-0.112,-0.071l-0.113,-0.07l-0.113,-0.068l-0.115,-0.067l-0.116,-0.065l-0.116,-0.065l-0.117,-0.062l-0.118,-0.062l-0.119,-0.06l-0.12,-0.058l-0.121,-0.057l-0.121,-0.056l-0.122,-0.055l-0.123,-0.052l-0.124,-0.052l-0.124,-0.05l-0.125,-0.048l-0.126,-0.047l-0.126,-0.046l-0.128,-0.043l-0.128,-0.043l-0.128,-0.041l-0.13,-0.039l-0.129,-0.038l-0.131,-0.036l-0.131,-0.035l-0.132,-0.033l-0.133,-0.031l-0.133,-0.03l-0.134,-0.028l-0.134,-0.027l-0.135,-0.025l-0.136,-0.023l-0.136,-0.022l-0.137,-0.02l-0.137,-0.018l-0.138,-0.017l-0.139,-0.015l-0.139,-0.013l-0.14,-0.012l-0.14,-0.01l-0.14,-0.008l-0.141,-0.006l-0.142,-0.004l-0.142,-0.003l-0.143,-0.001l-0.143,0.001Z"/><path d="M16.327,0.001l0.322,0.004l0.32,0.006l0.318,0.009l0.316,0.011l0.314,0.013l0.312,0.016l0.309,0.018l0.308,0.02l0.305,0.023l0.302,0.025l0.3,0.027l0.297,0.029l0.295,0.032l0.292,0.034l0.29,0.036l0.286,0.038l0.284,0.04l0.281,0.043l0.278,0.045l0.275,0.046l0.272,0.049l0.269,0.051l0.267,0.054l0.263,0.055l0.259,0.058l0.257,0.06l0.254,0.062l0.25,0.065l0.248,0.066l0.244,0.07l0.241,0.071l0.238,0.074l0.236,0.077l0.232,0.08l0.229,0.082l0.219,0.083l0.119,0.047l0.111,0.044l0.111,0.046l0.11,0.046l0.11,0.048l0.108,0.048l0.109,0.05l0.107,0.05l0.107,0.051l0.107,0.053l0.105,0.054l0.106,0.054l0.104,0.057l0.105,0.057l0.103,0.059l0.104,0.061l0.103,0.062l0.102,0.063l0.102,0.066l0.102,0.067l0.101,0.069l0.101,0.071l0.1,0.074l0.1,0.075l0.1,0.079l0.099,0.08l0.098,0.084l0.099,0.086l0.098,0.09l0.096,0.093l0.097,0.096l0.095,0.1l0.095,0.104l0.094,0.108l0.092,0.112l0.091,0.116l0.089,0.121l0.088,0.127l0.086,0.13l0.082,0.137l0.08,0.141l0.077,0.146l0.073,0.152l0.069,0.157l0.065,0.162l0.059,0.167l0.054,0.172l0.048,0.176l0.041,0.18l0.034,0.183l0.027,0.186l0.02,0.189l0.012,0.19l0.004,0.191l-0.004,0.191l-0.012,0.19l-0.02,0.189l-0.027,0.186l-0.034,0.183l-0.041,0.18l-0.048,0.176l-0.054,0.172l-0.059,0.167l-0.065,0.162l-0.069,0.157l-0.073,0.152l-0.077,0.146l-0.08,0.141l-0.082,0.137l-0.086,0.13l-0.088,0.127l-0.089,0.121l-0.091,0.116l-0.092,0.112l-0.094,0.108l-0.095,0.104l-0.095,0.1l-0.097,0.096l-0.097,0.093l-0.097,0.09l-0.099,0.086l-0.098,0.084l-0.099,0.08l-0.1,0.079l-0.1,0.075l-0.1,0.074l-0.101,0.071l-0.101,0.069l-0.102,0.067l-0.102,0.066l-0.102,0.063l-0.103,0.062l-0.104,0.061l-0.103,0.059l-0.105,0.057l-0.104,0.057l-0.106,0.054l-0.105,0.054l-0.107,0.053l-0.107,0.051l-0.107,0.05l-0.109,0.05l-0.108,0.048l-0.11,0.048l-0.11,0.046l-0.111,0.046l-0.111,0.044l-0.119,0.047l-0.219,0.083l-0.229,0.082l-0.232,0.08l-0.236,0.077l-0.238,0.074l-0.241,0.071l-0.244,0.07l-0.248,0.066l-0.25,0.065l-0.254,0.062l-0.257,0.06l-0.259,0.058l-0.263,0.055l-0.267,0.054l-0.269,0.051l-0.272,0.049l-0.275,0.046l-0.278,0.045l-0.281,0.043l-0.284,0.04l-0.286,0.038l-0.29,0.036l-0.292,0.034l-0.295,0.032l-0.297,0.029l-0.3,0.027l-0.302,0.025l-0.305,0.023l-0.308,0.02l-0.309,0.018l-0.312,0.016l-0.314,0.013l-0.316,0.011l-0.318,0.009l-0.32,0.006l-0.322,0.004l-0.323,0.001l-0.324,-0.001l-0.322,-0.004l-0.32,-0.006l-0.318,-0.009l-0.316,-0.011l-0.314,-0.013l-0.312,-0.016l-0.309,-0.018l-0.308,-0.02l-0.304,-0.023l-0.303,-0.025l-0.3,-0.027l-0.297,-0.029l-0.295,-0.032l-0.292,-0.034l-0.289,-0.036l-0.287,-0.038l-0.284,-0.04l-0.281,-0.043l-0.278,-0.045l-0.275,-0.046l-0.272,-0.049l-0.269,-0.051l-0.266,-0.054l-0.263,-0.055l-0.26,-0.058l-0.257,-0.06l-0.254,-0.062l-0.25,-0.065l-0.248,-0.066l-0.244,-0.07l-0.241,-0.071l-0.238,-0.074l-0.235,-0.077l-0.232,-0.08l-0.23,-0.082l-0.219,-0.083l-0.119,-0.047l-0.111,-0.044l-0.111,-0.046l-0.11,-0.046l-0.109,-0.048l-0.109,-0.048l-0.108,-0.05l-0.108,-0.05l-0.107,-0.051l-0.106,-0.053l-0.106,-0.054l-0.105,-0.054l-0.105,-0.057l-0.105,-0.057l-0.103,-0.059l-0.104,-0.061l-0.103,-0.062l-0.102,-0.063l-0.102,-0.066l-0.102,-0.067l-0.101,-0.069l-0.1,-0.071l-0.101,-0.074l-0.1,-0.075l-0.099,-0.079l-0.1,-0.08l-0.098,-0.084l-0.098,-0.086l-0.098,-0.09l-0.097,-0.093l-0.096,-0.096l-0.096,-0.1l-0.095,-0.104l-0.094,-0.108l-0.092,-0.112l-0.091,-0.116l-0.089,-0.121l-0.088,-0.127l-0.085,-0.13l-0.083,-0.137l-0.08,-0.141l-0.077,-0.146l-0.073,-0.152l-0.069,-0.157l-0.065,-0.162l-0.059,-0.167l-0.054,-0.172l-0.047,-0.176l-0.042,-0.18l-0.034,-0.183l-0.027,-0.186l-0.02,-0.189l-0.012,-0.19l-0.004,-0.191l0.004,-0.191l0.012,-0.19l0.02,-0.189l0.027,-0.186l0.034,-0.183l0.042,-0.18l0.047,-0.176l0.054,-0.172l0.059,-0.167l0.065,-0.162l0.069,-0.157l0.073,-0.152l0.077,-0.146l0.08,-0.141l0.083,-0.137l0.085,-0.13l0.088,-0.127l0.089,-0.121l0.091,-0.116l0.092,-0.112l0.094,-0.108l0.095,-0.104l0.096,-0.1l0.096,-0.096l0.097,-0.093l0.098,-0.09l0.098,-0.086l0.098,-0.084l0.1,-0.08l0.099,-0.079l0.1,-0.075l0.101,-0.074l0.1,-0.071l0.101,-0.069l0.102,-0.067l0.102,-0.066l0.102,-0.063l0.103,-0.062l0.104,-0.061l0.103,-0.059l0.105,-0.057l0.105,-0.057l0.105,-0.054l0.106,-0.054l0.106,-0.053l0.107,-0.051l0.108,-0.05l0.108,-0.05l0.109,-0.048l0.109,-0.048l0.11,-0.046l0.111,-0.046l0.111,-0.044l0.119,-0.047l0.219,-0.083l0.23,-0.082l0.232,-0.08l0.235,-0.077l0.238,-0.074l0.241,-0.071l0.244,-0.07l0.248,-0.066l0.25,-0.065l0.254,-0.062l0.257,-0.06l0.26,-0.058l0.263,-0.055l0.266,-0.054l0.269,-0.051l0.272,-0.049l0.275,-0.046l0.278,-0.045l0.281,-0.043l0.284,-0.04l0.287,-0.038l0.289,-0.036l0.292,-0.034l0.295,-0.032l0.297,-0.029l0.3,-0.027l0.303,-0.025l0.304,-0.023l0.308,-0.02l0.309,-0.018l0.312,-0.016l0.314,-0.013l0.316,-0.011l0.318,-0.009l0.32,-0.006l0.322,-0.004l0.324,-0.001l0.323,0.001Z"/></g><g id="emoji"><rect x="2" y="0" width="28" height="8" style="fill:none;"/><clipPath id="_clip2"><rect x="2" y="0" width="28" height="8"/></clipPath><g clip-path="url(#_clip2)"><path d="M16.312,2.001l0.306,0.004l0.305,0.006l0.302,0.008l0.301,0.01l0.298,0.013l0.296,0.015l0.294,0.017l0.291,0.019l0.289,0.022l0.287,0.023l0.283,0.026l0.281,0.028l0.278,0.03l0.276,0.032l0.272,0.034l0.269,0.035l0.267,0.038l0.263,0.04l0.26,0.042l0.256,0.043l0.254,0.046l0.249,0.047l0.247,0.05l0.242,0.051l0.24,0.053l0.235,0.055l0.232,0.057l0.228,0.058l0.224,0.061l0.22,0.062l0.216,0.065l0.212,0.066l0.209,0.068l0.204,0.07l0.2,0.072l0.193,0.073l0.099,0.039l0.096,0.038l0.094,0.039l0.094,0.039l0.092,0.04l0.091,0.041l0.091,0.041l0.089,0.042l0.088,0.042l0.087,0.043l0.086,0.044l0.085,0.044l0.085,0.046l0.083,0.045l0.082,0.047l0.081,0.047l0.08,0.049l0.079,0.049l0.078,0.05l0.077,0.05l0.075,0.052l0.075,0.053l0.074,0.054l0.073,0.055l0.071,0.057l0.071,0.057l0.069,0.059l0.069,0.06l0.067,0.062l0.066,0.063l0.065,0.065l0.064,0.066l0.062,0.069l0.061,0.07l0.059,0.072l0.058,0.074l0.056,0.076l0.055,0.078l0.052,0.081l0.051,0.083l0.048,0.085l0.046,0.088l0.043,0.089l0.041,0.093l0.037,0.094l0.035,0.097l0.031,0.099l0.027,0.101l0.024,0.102l0.019,0.104l0.015,0.106l0.012,0.106l0.006,0.107l0.003,0.108l-0.003,0.108l-0.006,0.107l-0.012,0.106l-0.015,0.106l-0.019,0.104l-0.024,0.102l-0.027,0.101l-0.031,0.099l-0.035,0.097l-0.037,0.094l-0.041,0.093l-0.043,0.089l-0.046,0.088l-0.048,0.085l-0.051,0.083l-0.052,0.081l-0.055,0.078l-0.056,0.076l-0.058,0.074l-0.059,0.072l-0.061,0.07l-0.062,0.069l-0.064,0.066l-0.065,0.065l-0.066,0.063l-0.067,0.062l-0.068,0.06l-0.07,0.059l-0.071,0.057l-0.071,0.057l-0.073,0.055l-0.074,0.054l-0.075,0.053l-0.075,0.052l-0.077,0.05l-0.078,0.05l-0.079,0.049l-0.08,0.049l-0.081,0.047l-0.082,0.047l-0.083,0.045l-0.085,0.046l-0.085,0.044l-0.086,0.044l-0.087,0.043l-0.088,0.042l-0.089,0.042l-0.091,0.041l-0.091,0.041l-0.092,0.04l-0.094,0.039l-0.094,0.039l-0.096,0.038l-0.099,0.039l-0.193,0.073l-0.2,0.072l-0.204,0.07l-0.209,0.068l-0.212,0.066l-0.216,0.065l-0.22,0.062l-0.224,0.061l-0.228,0.058l-0.232,0.057l-0.235,0.055l-0.24,0.053l-0.242,0.051l-0.247,0.05l-0.249,0.047l-0.254,0.046l-0.256,0.043l-0.26,0.042l-0.263,0.04l-0.267,0.038l-0.269,0.035l-0.272,0.034l-0.276,0.032l-0.278,0.03l-0.281,0.028l-0.283,0.026l-0.287,0.023l-0.289,0.022l-0.291,0.019l-0.294,0.017l-0.296,0.015l-0.298,0.013l-0.301,0.01l-0.302,0.008l-0.305,0.006l-0.306,0.004l-0.308,0.001l-0.309,-0.001l-0.306,-0.004l-0.305,-0.006l-0.302,-0.008l-0.301,-0.01l-0.298,-0.013l-0.296,-0.015l-0.294,-0.017l-0.291,-0.019l-0.289,-0.022l-0.286,-0.023l-0.284,-0.026l-0.281,-0.028l-0.278,-0.03l-0.276,-0.032l-0.272,-0.034l-0.269,-0.035l-0.267,-0.038l-0.263,-0.04l-0.26,-0.042l-0.256,-0.043l-0.253,-0.046l-0.25,-0.047l-0.246,-0.05l-0.243,-0.051l-0.239,-0.053l-0.236,-0.055l-0.231,-0.057l-0.228,-0.058l-0.224,-0.061l-0.221,-0.062l-0.216,-0.065l-0.212,-0.066l-0.208,-0.068l-0.205,-0.07l-0.2,-0.072l-0.193,-0.073l-0.099,-0.039l-0.096,-0.038l-0.094,-0.039l-0.093,-0.039l-0.093,-0.04l-0.091,-0.041l-0.09,-0.041l-0.09,-0.042l-0.088,-0.042l-0.087,-0.043l-0.086,-0.044l-0.085,-0.044l-0.084,-0.046l-0.083,-0.045l-0.082,-0.047l-0.082,-0.047l-0.08,-0.049l-0.079,-0.049l-0.077,-0.05l-0.077,-0.05l-0.076,-0.052l-0.075,-0.053l-0.074,-0.054l-0.073,-0.055l-0.071,-0.057l-0.071,-0.057l-0.069,-0.059l-0.069,-0.06l-0.067,-0.062l-0.066,-0.063l-0.065,-0.065l-0.064,-0.066l-0.062,-0.069l-0.061,-0.07l-0.059,-0.072l-0.058,-0.074l-0.056,-0.076l-0.055,-0.078l-0.052,-0.081l-0.051,-0.083l-0.048,-0.085l-0.046,-0.088l-0.043,-0.089l-0.041,-0.093l-0.037,-0.094l-0.035,-0.097l-0.03,-0.099l-0.028,-0.101l-0.023,-0.102l-0.02,-0.104l-0.015,-0.106l-0.011,-0.106l-0.007,-0.107l-0.002,-0.108l0.002,-0.108l0.007,-0.107l0.011,-0.106l0.015,-0.106l0.02,-0.104l0.023,-0.102l0.028,-0.101l0.03,-0.099l0.035,-0.097l0.037,-0.094l0.041,-0.093l0.043,-0.089l0.046,-0.088l0.048,-0.085l0.051,-0.083l0.052,-0.081l0.055,-0.078l0.056,-0.076l0.058,-0.074l0.059,-0.072l0.061,-0.07l0.062,-0.069l0.064,-0.066l0.065,-0.065l0.066,-0.063l0.067,-0.062l0.069,-0.06l0.069,-0.059l0.071,-0.057l0.071,-0.057l0.073,-0.055l0.074,-0.054l0.075,-0.053l0.076,-0.052l0.077,-0.05l0.077,-0.05l0.079,-0.049l0.08,-0.049l0.082,-0.047l0.082,-0.047l0.083,-0.045l0.084,-0.046l0.085,-0.044l0.086,-0.044l0.087,-0.043l0.088,-0.042l0.09,-0.042l0.09,-0.041l0.091,-0.041l0.093,-0.04l0.093,-0.039l0.094,-0.039l0.096,-0.038l0.099,-0.039l0.193,-0.073l0.2,-0.072l0.205,-0.07l0.208,-0.068l0.212,-0.066l0.216,-0.065l0.221,-0.062l0.224,-0.061l0.228,-0.058l0.231,-0.057l0.236,-0.055l0.239,-0.053l0.243,-0.051l0.246,-0.05l0.25,-0.047l0.253,-0.046l0.256,-0.043l0.26,-0.042l0.263,-0.04l0.267,-0.038l0.269,-0.035l0.272,-0.034l0.276,-0.032l0.278,-0.03l0.281,-0.028l0.284,-0.026l0.286,-0.023l0.289,-0.022l0.291,-0.019l0.294,-0.017l0.296,-0.015l0.298,-0.013l0.301,-0.01l0.302,-0.008l0.305,-0.006l0.306,-0.004l0.309,-0.001l0.308,0.001Zm-0.594,3l-0.283,0.003l-0.281,0.006l-0.279,0.007l-0.278,0.01l-0.275,0.012l-0.272,0.014l-0.27,0.015l-0.268,0.018l-0.265,0.02l-0.262,0.021l-0.259,0.024l-0.257,0.025l-0.253,0.027l-0.25,0.029l-0.247,0.031l-0.243,0.032l-0.24,0.034l-0.236,0.036l-0.233,0.038l-0.229,0.039l-0.225,0.04l-0.221,0.042l-0.216,0.043l-0.212,0.045l-0.208,0.046l-0.204,0.048l-0.199,0.048l-0.194,0.05l-0.189,0.051l-0.184,0.053l-0.178,0.053l-0.174,0.054l-0.168,0.055l-0.162,0.055l-0.157,0.057l-0.153,0.058l-0.071,0.027l-0.071,0.029l-0.07,0.029l-0.069,0.029l-0.066,0.029l-0.065,0.028l-0.064,0.029l-0.062,0.029l-0.06,0.029l-0.058,0.029l-0.057,0.029l-0.055,0.028l-0.053,0.029l-0.051,0.028l-0.049,0.028l-0.048,0.028l-0.045,0.027l-0.044,0.028l-0.042,0.027l-0.04,0.026l-0.038,0.026l-0.036,0.025l-0.034,0.025l-0.032,0.024l-0.029,0.023l-0.028,0.023l-0.026,0.022l-0.024,0.021l-0.006,0.006l0.006,0.006l0.024,0.021l0.026,0.022l0.028,0.023l0.029,0.023l0.032,0.024l0.034,0.025l0.036,0.025l0.038,0.026l0.04,0.026l0.042,0.027l0.044,0.028l0.045,0.027l0.048,0.028l0.049,0.028l0.051,0.028l0.053,0.029l0.055,0.028l0.057,0.029l0.058,0.029l0.06,0.029l0.062,0.029l0.064,0.029l0.065,0.028l0.066,0.029l0.069,0.029l0.07,0.029l0.071,0.029l0.071,0.027l0.153,0.058l0.157,0.057l0.162,0.055l0.168,0.055l0.174,0.054l0.178,0.053l0.184,0.053l0.189,0.051l0.194,0.05l0.199,0.048l0.204,0.048l0.208,0.046l0.212,0.045l0.216,0.043l0.221,0.042l0.225,0.04l0.229,0.039l0.233,0.038l0.236,0.036l0.24,0.034l0.243,0.032l0.247,0.031l0.25,0.029l0.253,0.027l0.257,0.025l0.259,0.024l0.262,0.021l0.265,0.02l0.268,0.018l0.27,0.015l0.272,0.014l0.275,0.012l0.278,0.01l0.279,0.007l0.281,0.006l0.283,0.003l0.286,0.001l0.285,-0.001l0.283,-0.003l0.281,-0.006l0.28,-0.007l0.277,-0.01l0.275,-0.012l0.272,-0.014l0.27,-0.015l0.268,-0.018l0.265,-0.02l0.262,-0.021l0.259,-0.024l0.257,-0.025l0.253,-0.027l0.25,-0.029l0.247,-0.031l0.243,-0.032l0.24,-0.034l0.237,-0.036l0.232,-0.038l0.229,-0.039l0.225,-0.04l0.221,-0.042l0.216,-0.043l0.213,-0.045l0.208,-0.046l0.203,-0.048l0.199,-0.048l0.194,-0.05l0.189,-0.051l0.184,-0.053l0.179,-0.053l0.173,-0.054l0.168,-0.055l0.162,-0.055l0.157,-0.057l0.154,-0.058l0.07,-0.027l0.071,-0.029l0.07,-0.029l0.069,-0.029l0.066,-0.029l0.066,-0.028l0.063,-0.029l0.062,-0.029l0.06,-0.029l0.058,-0.029l0.057,-0.029l0.055,-0.028l0.053,-0.029l0.051,-0.028l0.05,-0.028l0.047,-0.028l0.046,-0.027l0.043,-0.028l0.042,-0.027l0.04,-0.026l0.038,-0.026l0.036,-0.025l0.034,-0.025l0.032,-0.024l0.03,-0.023l0.027,-0.023l0.026,-0.022l0.024,-0.021l0.007,-0.006l-0.007,-0.006l-0.024,-0.021l-0.026,-0.022l-0.027,-0.023l-0.03,-0.023l-0.032,-0.024l-0.034,-0.025l-0.036,-0.025l-0.038,-0.026l-0.04,-0.026l-0.042,-0.027l-0.043,-0.028l-0.046,-0.027l-0.047,-0.028l-0.05,-0.028l-0.051,-0.028l-0.053,-0.029l-0.055,-0.028l-0.057,-0.029l-0.058,-0.029l-0.06,-0.029l-0.062,-0.029l-0.063,-0.029l-0.066,-0.028l-0.066,-0.029l-0.069,-0.029l-0.07,-0.029l-0.071,-0.029l-0.07,-0.027l-0.154,-0.058l-0.157,-0.057l-0.162,-0.055l-0.168,-0.055l-0.173,-0.054l-0.179,-0.053l-0.184,-0.053l-0.189,-0.051l-0.194,-0.05l-0.199,-0.048l-0.203,-0.048l-0.208,-0.046l-0.213,-0.045l-0.216,-0.043l-0.221,-0.042l-0.225,-0.04l-0.229,-0.039l-0.232,-0.038l-0.237,-0.036l-0.24,-0.034l-0.243,-0.032l-0.247,-0.031l-0.25,-0.029l-0.253,-0.027l-0.257,-0.025l-0.259,-0.024l-0.262,-0.021l-0.265,-0.02l-0.268,-0.018l-0.27,-0.015l-0.272,-0.014l-0.275,-0.012l-0.277,-0.01l-0.28,-0.007l-0.281,-0.006l-0.283,-0.003l-0.285,-0.001l-0.286,0.001Z" style="fill:#009ad2;"/></g><path d="M29,17c0,-7.18 -5.82,-13 -13,-13c0,0 0,0 0,0c-7.18,0 -13,5.82 -13,13c0,0.669 0,1.338 0,2c0,2.917 1.159,5.715 3.222,7.778c2.063,2.063 4.861,3.222 7.778,3.222c1.324,0 2.676,0 4,0c2.917,0 5.715,-1.159 7.778,-3.222c2.063,-2.063 3.222,-4.861 3.222,-7.778c0,-0.662 0,-1.331 0,-2Z" style="fill:#fbc546;"/><path d="M9.178,20.016l0.073,0.016l0.072,0.022l0.07,0.026l0.067,0.032l0.066,0.037l0.062,0.042l0.058,0.046l0.056,0.05l0.051,0.055l0.047,0.058l0.598,0.798l0.065,0.085l0.064,0.081l0.064,0.08l0.066,0.079l0.067,0.077l0.068,0.077l0.069,0.076l0.069,0.074l0.071,0.073l0.072,0.073l0.073,0.071l0.073,0.069l0.075,0.069l0.075,0.068l0.077,0.066l0.077,0.066l0.078,0.064l0.079,0.063l0.08,0.061l0.081,0.061l0.082,0.059l0.082,0.058l0.083,0.057l0.084,0.056l0.085,0.054l0.085,0.053l0.086,0.052l0.087,0.051l0.088,0.05l0.088,0.048l0.089,0.047l0.089,0.045l0.091,0.044l0.09,0.043l0.092,0.042l0.092,0.041l0.093,0.039l0.093,0.037l0.094,0.037l0.094,0.035l0.095,0.034l0.095,0.032l0.096,0.031l0.097,0.03l0.097,0.028l0.097,0.027l0.098,0.025l0.098,0.024l0.098,0.023l0.099,0.021l0.1,0.02l0.1,0.019l0.1,0.017l0.1,0.015l0.101,0.014l0.101,0.013l0.102,0.011l0.101,0.01l0.102,0.008l0.103,0.007l0.102,0.005l0.103,0.004l0.103,0.002l0.104,0.001l0.103,-0.001l0.103,-0.002l0.103,-0.004l0.103,-0.005l0.102,-0.007l0.102,-0.008l0.102,-0.01l0.101,-0.011l0.101,-0.013l0.101,-0.014l0.101,-0.015l0.1,-0.017l0.099,-0.019l0.1,-0.02l0.099,-0.021l0.099,-0.023l0.098,-0.024l0.098,-0.025l0.097,-0.027l0.097,-0.028l0.096,-0.03l0.096,-0.031l0.096,-0.032l0.094,-0.034l0.095,-0.035l0.094,-0.037l0.093,-0.037l0.093,-0.04l0.092,-0.04l0.091,-0.042l0.091,-0.043l0.09,-0.044l0.09,-0.046l0.089,-0.047l0.088,-0.048l0.088,-0.049l0.087,-0.051l0.086,-0.052l0.085,-0.053l0.085,-0.055l0.084,-0.055l0.083,-0.057l0.083,-0.058l0.081,-0.06l0.081,-0.06l0.08,-0.062l0.079,-0.063l0.078,-0.064l0.077,-0.065l0.077,-0.067l0.075,-0.067l0.075,-0.069l0.074,-0.07l0.073,-0.071l0.071,-0.072l0.071,-0.074l0.07,-0.074l0.069,-0.076l0.068,-0.076l0.066,-0.078l0.066,-0.079l0.065,-0.08l0.063,-0.081l0.065,-0.085l0.598,-0.797l0.047,-0.058l0.051,-0.055l0.056,-0.05l0.058,-0.046l0.063,-0.042l0.065,-0.037l0.067,-0.032l0.07,-0.026l0.072,-0.022l0.073,-0.016l0.074,-0.011l0.074,-0.005l0.075,0.001l0.075,0.006l0.073,0.012l0.073,0.017l0.072,0.023l0.069,0.028l0.067,0.033l0.065,0.037l0.061,0.043l0.058,0.047l0.055,0.051l0.05,0.056l0.046,0.058l0.042,0.063l0.037,0.065l0.032,0.067l0.026,0.07l0.022,0.072l0.016,0.073l0.011,0.074l0.005,0.074l-0.001,0.075l-0.006,0.075l-0.012,0.073l-0.017,0.073l-0.023,0.072l-0.028,0.069l-0.033,0.067l-0.037,0.065l-0.043,0.061l-0.602,0.803l-0.078,0.103l-0.082,0.104l-0.083,0.102l-0.085,0.102l-0.086,0.1l-0.087,0.098l-0.088,0.098l-0.09,0.095l-0.091,0.095l-0.093,0.092l-0.093,0.092l-0.095,0.09l-0.096,0.088l-0.097,0.087l-0.098,0.086l-0.1,0.084l-0.1,0.082l-0.102,0.081l-0.103,0.079l-0.104,0.078l-0.104,0.077l-0.106,0.074l-0.107,0.073l-0.108,0.072l-0.109,0.07l-0.11,0.068l-0.111,0.067l-0.111,0.065l-0.113,0.064l-0.113,0.062l-0.115,0.06l-0.115,0.059l-0.116,0.057l-0.117,0.055l-0.118,0.054l-0.118,0.052l-0.119,0.05l-0.12,0.049l-0.121,0.046l-0.121,0.045l-0.122,0.044l-0.123,0.041l-0.123,0.04l-0.124,0.039l-0.125,0.036l-0.125,0.034l-0.126,0.033l-0.126,0.031l-0.127,0.029l-0.127,0.028l-0.128,0.025l-0.128,0.024l-0.129,0.022l-0.129,0.02l-0.13,0.018l-0.13,0.016l-0.131,0.015l-0.13,0.012l-0.132,0.011l-0.131,0.008l-0.132,0.007l-0.132,0.005l-0.132,0.003l-0.129,0.001l-0.009,0l-0.129,-0.001l-0.132,-0.003l-0.132,-0.005l-0.132,-0.006l-0.131,-0.009l-0.131,-0.011l-0.131,-0.012l-0.131,-0.015l-0.13,-0.016l-0.129,-0.018l-0.13,-0.02l-0.128,-0.022l-0.129,-0.024l-0.127,-0.025l-0.128,-0.028l-0.127,-0.029l-0.126,-0.031l-0.126,-0.033l-0.125,-0.034l-0.124,-0.036l-0.124,-0.039l-0.124,-0.039l-0.122,-0.042l-0.122,-0.043l-0.122,-0.046l-0.12,-0.046l-0.12,-0.049l-0.119,-0.05l-0.119,-0.052l-0.117,-0.054l-0.117,-0.055l-0.116,-0.057l-0.115,-0.059l-0.115,-0.06l-0.113,-0.062l-0.113,-0.063l-0.111,-0.065l-0.111,-0.067l-0.11,-0.069l-0.109,-0.07l-0.108,-0.071l-0.107,-0.073l-0.105,-0.075l-0.105,-0.076l-0.104,-0.078l-0.103,-0.08l-0.101,-0.08l-0.101,-0.083l-0.099,-0.084l-0.099,-0.085l-0.097,-0.087l-0.096,-0.089l-0.095,-0.09l-0.093,-0.091l-0.092,-0.093l-0.091,-0.094l-0.09,-0.096l-0.089,-0.097l-0.087,-0.098l-0.086,-0.1l-0.084,-0.102l-0.083,-0.103l-0.082,-0.104l-0.078,-0.102l-0.603,-0.804l-0.043,-0.061l-0.037,-0.065l-0.033,-0.067l-0.028,-0.069l-0.023,-0.072l-0.017,-0.073l-0.012,-0.073l-0.006,-0.075l-0.001,-0.075l0.005,-0.074l0.011,-0.074l0.016,-0.073l0.022,-0.072l0.026,-0.07l0.032,-0.067l0.037,-0.066l0.042,-0.062l0.046,-0.058l0.05,-0.056l0.055,-0.051l0.058,-0.047l0.061,-0.043l0.065,-0.037l0.067,-0.033l0.069,-0.028l0.072,-0.023l0.073,-0.017l0.073,-0.012l0.075,-0.006l0.075,-0.001l0.074,0.005l0.074,0.011Z" style="fill:#593604;"/><path d="M25.207,15.793l0.031,0.032l0.029,0.033l0.027,0.035l0.027,0.035l0.024,0.037l0.023,0.038l0.021,0.039l0.019,0.04l0.018,0.04l0.016,0.042l0.014,0.042l0.012,0.042l0.01,0.043l0.008,0.044l0.007,0.044l0.004,0.044l0.002,0.044l0.001,0.044l-0.002,0.044l-0.003,0.044l-0.005,0.044l-0.008,0.044l-0.009,0.043l-0.011,0.043l-0.013,0.042l-0.015,0.042l-0.017,0.041l-0.018,0.04l-0.02,0.039l-0.022,0.039l-0.024,0.037l-0.025,0.037l-0.027,0.035l-0.029,0.034l-0.029,0.032l-0.032,0.032l-0.032,0.029l-0.034,0.029l-0.035,0.027l-0.037,0.025l-0.037,0.024l-0.039,0.022l-0.039,0.02l-0.04,0.018l-0.041,0.017l-0.042,0.015l-0.042,0.013l-0.043,0.011l-0.043,0.009l-0.044,0.008l-0.044,0.005l-0.044,0.003l-0.044,0.002l-0.044,-0.001l-0.044,-0.002l-0.044,-0.004l-0.044,-0.007l-0.044,-0.008l-0.043,-0.01l-0.042,-0.012l-0.042,-0.014l-0.042,-0.016l-0.04,-0.018l-0.04,-0.019l-0.039,-0.021l-0.038,-0.023l-0.037,-0.024l-0.035,-0.027l-0.035,-0.027l-0.033,-0.029l-0.032,-0.031l-1.793,-1.793l-1.793,1.793l-0.032,0.031l-0.033,0.029l-0.035,0.027l-0.035,0.027l-0.037,0.024l-0.038,0.023l-0.039,0.021l-0.04,0.019l-0.04,0.018l-0.042,0.016l-0.042,0.014l-0.042,0.012l-0.043,0.01l-0.044,0.008l-0.044,0.007l-0.044,0.004l-0.044,0.002l-0.044,0.001l-0.044,-0.002l-0.044,-0.003l-0.044,-0.005l-0.044,-0.008l-0.043,-0.009l-0.043,-0.011l-0.042,-0.013l-0.042,-0.015l-0.041,-0.017l-0.04,-0.018l-0.039,-0.02l-0.039,-0.022l-0.037,-0.024l-0.037,-0.025l-0.035,-0.027l-0.034,-0.029l-0.032,-0.029l-0.032,-0.032l-0.029,-0.032l-0.029,-0.034l-0.027,-0.035l-0.025,-0.037l-0.024,-0.037l-0.022,-0.039l-0.02,-0.039l-0.018,-0.04l-0.017,-0.041l-0.015,-0.042l-0.013,-0.042l-0.011,-0.043l-0.009,-0.043l-0.008,-0.044l-0.005,-0.044l-0.003,-0.044l-0.002,-0.044l0.001,-0.044l0.002,-0.044l0.004,-0.044l0.007,-0.044l0.008,-0.044l0.01,-0.043l0.012,-0.042l0.014,-0.042l0.016,-0.042l0.018,-0.04l0.019,-0.04l0.021,-0.039l0.023,-0.038l0.024,-0.037l0.027,-0.035l0.027,-0.035l0.029,-0.033l0.031,-0.032l3.207,-3.207l3.207,3.207Z"/><path d="M13.207,15.793l0.031,0.032l0.029,0.033l0.027,0.035l0.027,0.035l0.024,0.037l0.023,0.038l0.021,0.039l0.019,0.04l0.018,0.04l0.016,0.042l0.014,0.042l0.012,0.042l0.01,0.043l0.008,0.044l0.007,0.044l0.004,0.044l0.002,0.044l0.001,0.044l-0.002,0.044l-0.003,0.044l-0.005,0.044l-0.008,0.044l-0.009,0.043l-0.011,0.043l-0.013,0.042l-0.015,0.042l-0.017,0.041l-0.018,0.04l-0.02,0.039l-0.022,0.039l-0.024,0.037l-0.025,0.037l-0.027,0.035l-0.029,0.034l-0.029,0.032l-0.032,0.032l-0.032,0.029l-0.034,0.029l-0.035,0.027l-0.037,0.025l-0.037,0.024l-0.039,0.022l-0.039,0.02l-0.04,0.018l-0.041,0.017l-0.042,0.015l-0.042,0.013l-0.043,0.011l-0.043,0.009l-0.044,0.008l-0.044,0.005l-0.044,0.003l-0.044,0.002l-0.044,-0.001l-0.044,-0.002l-0.044,-0.004l-0.044,-0.007l-0.044,-0.008l-0.043,-0.01l-0.042,-0.012l-0.042,-0.014l-0.042,-0.016l-0.04,-0.018l-0.04,-0.019l-0.039,-0.021l-0.038,-0.023l-0.037,-0.024l-0.035,-0.027l-0.035,-0.027l-0.033,-0.029l-0.032,-0.031l-1.793,-1.793l-1.793,1.793l-0.032,0.031l-0.033,0.029l-0.035,0.027l-0.035,0.027l-0.037,0.024l-0.038,0.023l-0.039,0.021l-0.04,0.019l-0.04,0.018l-0.042,0.016l-0.042,0.014l-0.042,0.012l-0.043,0.01l-0.044,0.008l-0.044,0.007l-0.044,0.004l-0.044,0.002l-0.044,0.001l-0.044,-0.002l-0.044,-0.003l-0.044,-0.005l-0.044,-0.008l-0.043,-0.009l-0.043,-0.011l-0.042,-0.013l-0.042,-0.015l-0.041,-0.017l-0.04,-0.018l-0.039,-0.02l-0.039,-0.022l-0.037,-0.024l-0.037,-0.025l-0.035,-0.027l-0.034,-0.029l-0.032,-0.029l-0.032,-0.032l-0.029,-0.032l-0.029,-0.034l-0.027,-0.035l-0.025,-0.037l-0.024,-0.037l-0.022,-0.039l-0.02,-0.039l-0.018,-0.04l-0.017,-0.041l-0.015,-0.042l-0.013,-0.042l-0.011,-0.043l-0.009,-0.043l-0.008,-0.044l-0.005,-0.044l-0.003,-0.044l-0.002,-0.044l0.001,-0.044l0.002,-0.044l0.004,-0.044l0.007,-0.044l0.008,-0.044l0.01,-0.043l0.012,-0.042l0.014,-0.042l0.016,-0.042l0.018,-0.04l0.019,-0.04l0.021,-0.039l0.023,-0.038l0.024,-0.037l0.027,-0.035l0.027,-0.035l0.029,-0.033l0.031,-0.032l3.207,-3.207l3.207,3.207Z"/><rect x="2" y="7" width="28" height="9" style="fill:none;"/><clipPath id="_clip3"><rect x="2" y="7" width="28" height="9"/></clipPath><g clip-path="url(#_clip3)"><path d="M16.312,2.001l0.306,0.004l0.305,0.006l0.302,0.008l0.301,0.01l0.298,0.013l0.296,0.015l0.294,0.017l0.291,0.019l0.289,0.022l0.287,0.023l0.283,0.026l0.281,0.028l0.278,0.03l0.276,0.032l0.272,0.034l0.269,0.035l0.267,0.038l0.263,0.04l0.26,0.042l0.256,0.043l0.254,0.046l0.249,0.047l0.247,0.05l0.242,0.051l0.24,0.053l0.235,0.055l0.232,0.057l0.228,0.058l0.224,0.061l0.22,0.062l0.216,0.065l0.212,0.066l0.209,0.068l0.204,0.07l0.2,0.072l0.193,0.073l0.099,0.039l0.096,0.038l0.094,0.039l0.094,0.039l0.092,0.04l0.091,0.041l0.091,0.041l0.089,0.042l0.088,0.042l0.087,0.043l0.086,0.044l0.085,0.044l0.085,0.046l0.083,0.045l0.082,0.047l0.081,0.047l0.08,0.049l0.079,0.049l0.078,0.05l0.077,0.05l0.075,0.052l0.075,0.053l0.074,0.054l0.073,0.055l0.071,0.057l0.071,0.057l0.069,0.059l0.069,0.06l0.067,0.062l0.066,0.063l0.065,0.065l0.064,0.066l0.062,0.069l0.061,0.07l0.059,0.072l0.058,0.074l0.056,0.076l0.055,0.078l0.052,0.081l0.051,0.083l0.048,0.085l0.046,0.088l0.043,0.089l0.041,0.093l0.037,0.094l0.035,0.097l0.031,0.099l0.027,0.101l0.024,0.102l0.019,0.104l0.015,0.106l0.012,0.106l0.006,0.107l0.003,0.108l-0.003,0.108l-0.006,0.107l-0.012,0.106l-0.015,0.106l-0.019,0.104l-0.024,0.102l-0.027,0.101l-0.031,0.099l-0.035,0.097l-0.037,0.094l-0.041,0.093l-0.043,0.089l-0.046,0.088l-0.048,0.085l-0.051,0.083l-0.052,0.081l-0.055,0.078l-0.056,0.076l-0.058,0.074l-0.059,0.072l-0.061,0.07l-0.062,0.069l-0.064,0.066l-0.065,0.065l-0.066,0.063l-0.067,0.062l-0.068,0.06l-0.07,0.059l-0.071,0.057l-0.071,0.057l-0.073,0.055l-0.074,0.054l-0.075,0.053l-0.075,0.052l-0.077,0.05l-0.078,0.05l-0.079,0.049l-0.08,0.049l-0.081,0.047l-0.082,0.047l-0.083,0.045l-0.085,0.046l-0.085,0.044l-0.086,0.044l-0.087,0.043l-0.088,0.042l-0.089,0.042l-0.091,0.041l-0.091,0.041l-0.092,0.04l-0.094,0.039l-0.094,0.039l-0.096,0.038l-0.099,0.039l-0.193,0.073l-0.2,0.072l-0.204,0.07l-0.209,0.068l-0.212,0.066l-0.216,0.065l-0.22,0.062l-0.224,0.061l-0.228,0.058l-0.232,0.057l-0.235,0.055l-0.24,0.053l-0.242,0.051l-0.247,0.05l-0.249,0.047l-0.254,0.046l-0.256,0.043l-0.26,0.042l-0.263,0.04l-0.267,0.038l-0.269,0.035l-0.272,0.034l-0.276,0.032l-0.278,0.03l-0.281,0.028l-0.283,0.026l-0.287,0.023l-0.289,0.022l-0.291,0.019l-0.294,0.017l-0.296,0.015l-0.298,0.013l-0.301,0.01l-0.302,0.008l-0.305,0.006l-0.306,0.004l-0.308,0.001l-0.309,-0.001l-0.306,-0.004l-0.305,-0.006l-0.302,-0.008l-0.301,-0.01l-0.298,-0.013l-0.296,-0.015l-0.294,-0.017l-0.291,-0.019l-0.289,-0.022l-0.286,-0.023l-0.284,-0.026l-0.281,-0.028l-0.278,-0.03l-0.276,-0.032l-0.272,-0.034l-0.269,-0.035l-0.267,-0.038l-0.263,-0.04l-0.26,-0.042l-0.256,-0.043l-0.253,-0.046l-0.25,-0.047l-0.246,-0.05l-0.243,-0.051l-0.239,-0.053l-0.236,-0.055l-0.231,-0.057l-0.228,-0.058l-0.224,-0.061l-0.221,-0.062l-0.216,-0.065l-0.212,-0.066l-0.208,-0.068l-0.205,-0.07l-0.2,-0.072l-0.193,-0.073l-0.099,-0.039l-0.096,-0.038l-0.094,-0.039l-0.093,-0.039l-0.093,-0.04l-0.091,-0.041l-0.09,-0.041l-0.09,-0.042l-0.088,-0.042l-0.087,-0.043l-0.086,-0.044l-0.085,-0.044l-0.084,-0.046l-0.083,-0.045l-0.082,-0.047l-0.082,-0.047l-0.08,-0.049l-0.079,-0.049l-0.077,-0.05l-0.077,-0.05l-0.076,-0.052l-0.075,-0.053l-0.074,-0.054l-0.073,-0.055l-0.071,-0.057l-0.071,-0.057l-0.069,-0.059l-0.069,-0.06l-0.067,-0.062l-0.066,-0.063l-0.065,-0.065l-0.064,-0.066l-0.062,-0.069l-0.061,-0.07l-0.059,-0.072l-0.058,-0.074l-0.056,-0.076l-0.055,-0.078l-0.052,-0.081l-0.051,-0.083l-0.048,-0.085l-0.046,-0.088l-0.043,-0.089l-0.041,-0.093l-0.037,-0.094l-0.035,-0.097l-0.03,-0.099l-0.028,-0.101l-0.023,-0.102l-0.02,-0.104l-0.015,-0.106l-0.011,-0.106l-0.007,-0.107l-0.002,-0.108l0.002,-0.108l0.007,-0.107l0.011,-0.106l0.015,-0.106l0.02,-0.104l0.023,-0.102l0.028,-0.101l0.03,-0.099l0.035,-0.097l0.037,-0.094l0.041,-0.093l0.043,-0.089l0.046,-0.088l0.048,-0.085l0.051,-0.083l0.052,-0.081l0.055,-0.078l0.056,-0.076l0.058,-0.074l0.059,-0.072l0.061,-0.07l0.062,-0.069l0.064,-0.066l0.065,-0.065l0.066,-0.063l0.067,-0.062l0.069,-0.06l0.069,-0.059l0.071,-0.057l0.071,-0.057l0.073,-0.055l0.074,-0.054l0.075,-0.053l0.076,-0.052l0.077,-0.05l0.077,-0.05l0.079,-0.049l0.08,-0.049l0.082,-0.047l0.082,-0.047l0.083,-0.045l0.084,-0.046l0.085,-0.044l0.086,-0.044l0.087,-0.043l0.088,-0.042l0.09,-0.042l0.09,-0.041l0.091,-0.041l0.093,-0.04l0.093,-0.039l0.094,-0.039l0.096,-0.038l0.099,-0.039l0.193,-0.073l0.2,-0.072l0.205,-0.07l0.208,-0.068l0.212,-0.066l0.216,-0.065l0.221,-0.062l0.224,-0.061l0.228,-0.058l0.231,-0.057l0.236,-0.055l0.239,-0.053l0.243,-0.051l0.246,-0.05l0.25,-0.047l0.253,-0.046l0.256,-0.043l0.26,-0.042l0.263,-0.04l0.267,-0.038l0.269,-0.035l0.272,-0.034l0.276,-0.032l0.278,-0.03l0.281,-0.028l0.284,-0.026l0.286,-0.023l0.289,-0.022l0.291,-0.019l0.294,-0.017l0.296,-0.015l0.298,-0.013l0.301,-0.01l0.302,-0.008l0.305,-0.006l0.306,-0.004l0.309,-0.001l0.308,0.001Zm-0.594,3l-0.283,0.003l-0.281,0.006l-0.279,0.007l-0.278,0.01l-0.275,0.012l-0.272,0.014l-0.27,0.015l-0.268,0.018l-0.265,0.02l-0.262,0.021l-0.259,0.024l-0.257,0.025l-0.253,0.027l-0.25,0.029l-0.247,0.031l-0.243,0.032l-0.24,0.034l-0.236,0.036l-0.233,0.038l-0.229,0.039l-0.225,0.04l-0.221,0.042l-0.216,0.043l-0.212,0.045l-0.208,0.046l-0.204,0.048l-0.199,0.048l-0.194,0.05l-0.189,0.051l-0.184,0.053l-0.178,0.053l-0.174,0.054l-0.168,0.055l-0.162,0.055l-0.157,0.057l-0.153,0.058l-0.071,0.027l-0.071,0.029l-0.07,0.029l-0.069,0.029l-0.066,0.029l-0.065,0.028l-0.064,0.029l-0.062,0.029l-0.06,0.029l-0.058,0.029l-0.057,0.029l-0.055,0.028l-0.053,0.029l-0.051,0.028l-0.049,0.028l-0.048,0.028l-0.045,0.027l-0.044,0.028l-0.042,0.027l-0.04,0.026l-0.038,0.026l-0.036,0.025l-0.034,0.025l-0.032,0.024l-0.029,0.023l-0.028,0.023l-0.026,0.022l-0.024,0.021l-0.006,0.006l0.006,0.006l0.024,0.021l0.026,0.022l0.028,0.023l0.029,0.023l0.032,0.024l0.034,0.025l0.036,0.025l0.038,0.026l0.04,0.026l0.042,0.027l0.044,0.028l0.045,0.027l0.048,0.028l0.049,0.028l0.051,0.028l0.053,0.029l0.055,0.028l0.057,0.029l0.058,0.029l0.06,0.029l0.062,0.029l0.064,0.029l0.065,0.028l0.066,0.029l0.069,0.029l0.07,0.029l0.071,0.029l0.071,0.027l0.153,0.058l0.157,0.057l0.162,0.055l0.168,0.055l0.174,0.054l0.178,0.053l0.184,0.053l0.189,0.051l0.194,0.05l0.199,0.048l0.204,0.048l0.208,0.046l0.212,0.045l0.216,0.043l0.221,0.042l0.225,0.04l0.229,0.039l0.233,0.038l0.236,0.036l0.24,0.034l0.243,0.032l0.247,0.031l0.25,0.029l0.253,0.027l0.257,0.025l0.259,0.024l0.262,0.021l0.265,0.02l0.268,0.018l0.27,0.015l0.272,0.014l0.275,0.012l0.278,0.01l0.279,0.007l0.281,0.006l0.283,0.003l0.286,0.001l0.285,-0.001l0.283,-0.003l0.281,-0.006l0.28,-0.007l0.277,-0.01l0.275,-0.012l0.272,-0.014l0.27,-0.015l0.268,-0.018l0.265,-0.02l0.262,-0.021l0.259,-0.024l0.257,-0.025l0.253,-0.027l0.25,-0.029l0.247,-0.031l0.243,-0.032l0.24,-0.034l0.237,-0.036l0.232,-0.038l0.229,-0.039l0.225,-0.04l0.221,-0.042l0.216,-0.043l0.213,-0.045l0.208,-0.046l0.203,-0.048l0.199,-0.048l0.194,-0.05l0.189,-0.051l0.184,-0.053l0.179,-0.053l0.173,-0.054l0.168,-0.055l0.162,-0.055l0.157,-0.057l0.154,-0.058l0.07,-0.027l0.071,-0.029l0.07,-0.029l0.069,-0.029l0.066,-0.029l0.066,-0.028l0.063,-0.029l0.062,-0.029l0.06,-0.029l0.058,-0.029l0.057,-0.029l0.055,-0.028l0.053,-0.029l0.051,-0.028l0.05,-0.028l0.047,-0.028l0.046,-0.027l0.043,-0.028l0.042,-0.027l0.04,-0.026l0.038,-0.026l0.036,-0.025l0.034,-0.025l0.032,-0.024l0.03,-0.023l0.027,-0.023l0.026,-0.022l0.024,-0.021l0.007,-0.006l-0.007,-0.006l-0.024,-0.021l-0.026,-0.022l-0.027,-0.023l-0.03,-0.023l-0.032,-0.024l-0.034,-0.025l-0.036,-0.025l-0.038,-0.026l-0.04,-0.026l-0.042,-0.027l-0.043,-0.028l-0.046,-0.027l-0.047,-0.028l-0.05,-0.028l-0.051,-0.028l-0.053,-0.029l-0.055,-0.028l-0.057,-0.029l-0.058,-0.029l-0.06,-0.029l-0.062,-0.029l-0.063,-0.029l-0.066,-0.028l-0.066,-0.029l-0.069,-0.029l-0.07,-0.029l-0.071,-0.029l-0.07,-0.027l-0.154,-0.058l-0.157,-0.057l-0.162,-0.055l-0.168,-0.055l-0.173,-0.054l-0.179,-0.053l-0.184,-0.053l-0.189,-0.051l-0.194,-0.05l-0.199,-0.048l-0.203,-0.048l-0.208,-0.046l-0.213,-0.045l-0.216,-0.043l-0.221,-0.042l-0.225,-0.04l-0.229,-0.039l-0.232,-0.038l-0.237,-0.036l-0.24,-0.034l-0.243,-0.032l-0.247,-0.031l-0.25,-0.029l-0.253,-0.027l-0.257,-0.025l-0.259,-0.024l-0.262,-0.021l-0.265,-0.02l-0.268,-0.018l-0.27,-0.015l-0.272,-0.014l-0.275,-0.012l-0.277,-0.01l-0.28,-0.007l-0.281,-0.006l-0.283,-0.003l-0.285,-0.001l-0.286,0.001Z" style="fill:#009ad2;"/></g></g></g></svg>