<?xml version="1.0" encoding="UTF-8" standalone="no"?><!DOCTYPE svg PUBLIC "-//W3C//DTD SVG 1.1//EN" "http://www.w3.org/Graphics/SVG/1.1/DTD/svg11.dtd"><svg width="100%" height="100%" viewBox="0 0 32 32" version="1.1" xmlns="http://www.w3.org/2000/svg" xmlns:xlink="http://www.w3.org/1999/xlink" xml:space="preserve" xmlns:serif="http://www.serif.com/" style="fill-rule:evenodd;clip-rule:evenodd;stroke-linecap:round;stroke-miterlimit:1.5;"><rect id="happy" x="0" y="0" width="32" height="32" style="fill:none;"/><clipPath id="_clip1"><rect x="0" y="0" width="32" height="32"/></clipPath><g clip-path="url(#_clip1)"><g id="outline"><path d="M29.153,0.003l0.151,0.012l0.15,0.019l0.149,0.026l0.145,0.034l0.143,0.041l0.141,0.047l0.136,0.054l0.134,0.06l0.13,0.067l0.125,0.072l0.122,0.078l0.118,0.084l0.112,0.088l0.109,0.094l0.104,0.099l0.099,0.104l0.094,0.109l0.089,0.113l0.083,0.117l0.078,0.122l0.072,0.125l0.067,0.13l0.06,0.133l0.054,0.138l0.048,0.14l0.04,0.142l0.034,0.146l0.026,0.149l0.019,0.15l0.012,0.151l0.003,0.128l0,7.05l-0.003,0.128l-0.012,0.151l-0.019,0.15l-0.026,0.149l-0.034,0.145l-0.04,0.143l-0.048,0.14l-0.054,0.137l-0.06,0.134l-0.067,0.129l-0.072,0.126l-0.078,0.122l-0.083,0.117l-0.089,0.113l-0.095,0.109l-0.098,0.104l-0.104,0.099l-0.078,0.067l0.02,0.022l0.064,0.072l0.062,0.073l0.06,0.075l0.058,0.076l0.057,0.077l0.054,0.079l0.053,0.081l0.051,0.081l0.049,0.083l0.048,0.085l0.045,0.086l0.043,0.087l0.042,0.088l0.039,0.089l0.037,0.091l0.035,0.092l0.032,0.092l0.031,0.094l0.028,0.095l0.026,0.096l0.024,0.096l0.021,0.098l0.019,0.098l0.016,0.099l0.014,0.1l0.012,0.1l0.009,0.101l0.006,0.102l0.004,0.102l0.001,0.102l-0.001,0.102l-0.004,0.102l-0.006,0.102l-0.009,0.101l-0.012,0.1l-0.014,0.099l-0.016,0.1l-0.019,0.098l-0.021,0.098l-0.024,0.096l-0.026,0.096l-0.028,0.095l-0.031,0.094l-0.032,0.092l-0.035,0.092l-0.037,0.091l-0.039,0.089l-0.042,0.089l-0.043,0.086l-0.045,0.086l-0.048,0.085l-0.049,0.083l-0.051,0.081l-0.053,0.081l-0.054,0.079l-0.057,0.077l-0.058,0.076l-0.06,0.075l-0.062,0.073l-0.064,0.072l-0.065,0.07l-0.067,0.068l-0.068,0.067l-0.07,0.065l-0.072,0.064l-0.073,0.062l-0.074,0.06l-0.076,0.058l-0.078,0.057l-0.079,0.055l-0.081,0.052l-0.081,0.051l-0.083,0.05l-0.001,0l-0.002,0.056l-0.007,0.173l-0.01,0.173l-0.012,0.172l-0.013,0.172l-0.016,0.172l-0.019,0.172l-0.02,0.171l-0.022,0.171l-0.024,0.17l-0.027,0.17l-0.028,0.169l-0.031,0.169l-0.032,0.168l-0.035,0.168l-0.037,0.168l-0.038,0.166l-0.041,0.167l-0.043,0.165l-0.045,0.165l-0.046,0.165l-0.049,0.163l-0.051,0.164l-0.052,0.162l-0.055,0.162l-0.057,0.161l-0.058,0.16l-0.061,0.16l-0.062,0.159l-0.064,0.158l-0.067,0.157l-0.068,0.157l-0.07,0.155l-0.072,0.155l-0.074,0.154l-0.076,0.153l-0.077,0.152l-0.08,0.152l-0.081,0.15l-0.083,0.149l-0.085,0.148l-0.087,0.148l-0.089,0.146l-0.091,0.146l-0.092,0.144l-0.094,0.143l-0.096,0.142l-0.098,0.141l-0.1,0.14l-0.101,0.139l-0.104,0.137l-0.104,0.137l-0.107,0.135l-0.109,0.134l-0.11,0.133l-0.112,0.132l-0.113,0.13l-0.116,0.129l-0.117,0.128l-0.119,0.126l-0.12,0.125l-0.122,0.124l-0.124,0.122l-0.125,0.12l-0.126,0.119l-0.128,0.117l-0.129,0.116l-0.13,0.113l-0.132,0.112l-0.133,0.11l-0.134,0.109l-0.135,0.107l-0.137,0.105l-0.137,0.103l-0.139,0.101l-0.14,0.1l-0.141,0.097l-0.142,0.097l-0.143,0.094l-0.145,0.092l-0.145,0.091l-0.146,0.089l-0.148,0.087l-0.148,0.085l-0.149,0.083l-0.15,0.081l-0.152,0.08l-0.152,0.077l-0.153,0.076l-0.154,0.074l-0.155,0.072l-0.155,0.07l-0.157,0.068l-0.157,0.067l-0.158,0.064l-0.159,0.062l-0.16,0.061l-0.16,0.058l-0.161,0.057l-0.162,0.055l-0.162,0.052l-0.163,0.051l-0.164,0.049l-0.165,0.046l-0.165,0.045l-0.165,0.043l-0.167,0.041l-0.166,0.038l-0.168,0.037l-0.168,0.035l-0.168,0.032l-0.169,0.031l-0.169,0.028l-0.17,0.027l-0.171,0.024l-0.17,0.022l-0.171,0.02l-0.172,0.019l-0.172,0.016l-0.172,0.013l-0.172,0.012l-0.173,0.01l-0.173,0.007l-0.174,0.006l-0.173,0.003l-0.168,0.001l-2.02,0l-0.168,-0.001l-0.174,-0.003l-0.173,-0.006l-0.173,-0.007l-0.173,-0.01l-0.172,-0.012l-0.172,-0.013l-0.172,-0.016l-0.172,-0.019l-0.171,-0.02l-0.17,-0.022l-0.171,-0.024l-0.17,-0.027l-0.169,-0.028l-0.169,-0.031l-0.168,-0.032l-0.168,-0.035l-0.168,-0.037l-0.166,-0.038l-0.167,-0.041l-0.165,-0.043l-0.165,-0.045l-0.165,-0.046l-0.164,-0.049l-0.163,-0.051l-0.162,-0.052l-0.162,-0.055l-0.161,-0.057l-0.161,-0.058l-0.159,-0.061l-0.159,-0.062l-0.158,-0.064l-0.157,-0.067l-0.157,-0.068l-0.155,-0.07l-0.155,-0.072l-0.154,-0.074l-0.153,-0.076l-0.152,-0.077l-0.152,-0.08l-0.15,-0.081l-0.149,-0.083l-0.149,-0.086l-0.147,-0.086l-0.146,-0.089l-0.146,-0.091l-0.144,-0.092l-0.143,-0.094l-0.142,-0.096l-0.141,-0.098l-0.14,-0.1l-0.139,-0.101l-0.137,-0.103l-0.137,-0.105l-0.135,-0.107l-0.134,-0.109l-0.133,-0.11l-0.132,-0.112l-0.13,-0.113l-0.129,-0.116l-0.128,-0.117l-0.126,-0.119l-0.125,-0.12l-0.124,-0.122l-0.122,-0.124l-0.12,-0.125l-0.119,-0.126l-0.117,-0.128l-0.116,-0.129l-0.113,-0.131l-0.112,-0.131l-0.11,-0.133l-0.109,-0.134l-0.107,-0.135l-0.104,-0.137l-0.104,-0.137l-0.101,-0.139l-0.1,-0.14l-0.097,-0.141l-0.097,-0.142l-0.094,-0.143l-0.092,-0.145l-0.091,-0.145l-0.089,-0.146l-0.086,-0.147l-0.086,-0.149l-0.083,-0.149l-0.081,-0.15l-0.08,-0.152l-0.077,-0.152l-0.076,-0.153l-0.074,-0.154l-0.072,-0.155l-0.07,-0.155l-0.068,-0.157l-0.067,-0.157l-0.064,-0.158l-0.062,-0.159l-0.061,-0.16l-0.058,-0.16l-0.057,-0.161l-0.055,-0.162l-0.052,-0.162l-0.051,-0.163l-0.049,-0.164l-0.046,-0.165l-0.045,-0.165l-0.043,-0.165l-0.041,-0.167l-0.038,-0.167l-0.037,-0.167l-0.035,-0.168l-0.032,-0.168l-0.031,-0.169l-0.028,-0.169l-0.027,-0.17l-0.024,-0.171l-0.022,-0.17l-0.02,-0.171l-0.019,-0.172l-0.016,-0.172l-0.013,-0.172l-0.012,-0.172l-0.01,-0.173l-0.007,-0.173l-0.006,-0.174l-0.003,-0.173l-0.001,-0.168l0,-1.016l0.001,-0.18l0.004,-0.186l0.005,-0.186l0.008,-0.186l0.011,-0.185l0.012,-0.185l0.015,-0.184l0.017,-0.184l0.02,-0.184l0.021,-0.184l0.024,-0.182l0.026,-0.183l0.029,-0.182l0.03,-0.182l0.033,-0.181l0.035,-0.18l0.037,-0.18l0.039,-0.179l0.042,-0.179l0.043,-0.178l0.046,-0.178l0.048,-0.177l0.05,-0.176l0.052,-0.176l0.055,-0.174l0.056,-0.175l0.059,-0.173l0.06,-0.173l0.063,-0.172l0.065,-0.171l0.067,-0.17l0.069,-0.169l0.071,-0.169l0.073,-0.167l0.075,-0.167l0.077,-0.166l0.079,-0.165l0.082,-0.164l0.083,-0.163l0.085,-0.162l0.087,-0.161l0.089,-0.16l0.092,-0.159l0.093,-0.158l0.095,-0.157l0.097,-0.156l0.099,-0.155l0.101,-0.153l0.103,-0.152l0.105,-0.151l0.107,-0.15l0.108,-0.149l0.111,-0.148l0.112,-0.146l0.115,-0.145l0.116,-0.143l0.118,-0.143l0.12,-0.141l0.122,-0.139l0.123,-0.139l0.126,-0.137l0.127,-0.135l0.129,-0.134l0.131,-0.133l0.133,-0.131l0.134,-0.129l0.135,-0.127l0.137,-0.125l0.139,-0.124l0.139,-0.122l0.141,-0.12l0.143,-0.118l0.143,-0.116l0.145,-0.115l0.146,-0.112l0.148,-0.111l0.149,-0.108l0.15,-0.107l0.151,-0.105l0.152,-0.103l0.153,-0.101l0.155,-0.099l0.156,-0.097l0.157,-0.095l0.158,-0.093l0.159,-0.091l0.16,-0.09l0.161,-0.087l0.162,-0.085l0.163,-0.083l0.164,-0.082l0.165,-0.079l0.166,-0.077l0.166,-0.075l0.168,-0.073l0.169,-0.071l0.169,-0.069l0.17,-0.067l0.171,-0.065l0.172,-0.063l0.173,-0.06l0.173,-0.059l0.175,-0.056l0.174,-0.055l0.176,-0.052l0.176,-0.05l0.177,-0.048l0.178,-0.046l0.178,-0.043l0.179,-0.042l0.179,-0.039l0.18,-0.037l0.18,-0.035l0.181,-0.033l0.182,-0.03l0.182,-0.029l0.182,-0.026l0.183,-0.024l0.184,-0.021l0.184,-0.02l0.184,-0.017l0.184,-0.015l0.185,-0.012l0.185,-0.011l0.186,-0.008l0.186,-0.005l0.186,-0.004l0.18,-0.001l0.012,0l0.121,0l0.124,0.002l0.125,0.003l0.124,0.003l0.124,0.005l0.124,0.005l0.123,0.007l0.123,0.007l0.123,0.009l0.123,0.009l0.122,0.011l0.123,0.011l0.122,0.013l0.121,0.013l0.121,0.015l0.122,0.015l0.12,0.017l0.121,0.017l0.12,0.018l0.12,0.019l0.12,0.021l0.119,0.021l0.119,0.022l0.118,0.023l0.119,0.024l0.118,0.024l0.117,0.026l0.118,0.027l0.117,0.028l0.116,0.028l0.116,0.029l0.116,0.031l0.116,0.031l0.115,0.032l0.115,0.033l0.114,0.034l0.114,0.035l0.114,0.035l0.113,0.037l0.113,0.037l0.113,0.039l0.112,0.039l0.111,0.04l0.112,0.041l0.11,0.041l0.111,0.043l0.11,0.043l0.109,0.044l0.109,0.046l0.109,0.045l0.108,0.047l0.108,0.048l0.107,0.048l0.107,0.049l0.107,0.05l0.106,0.051l0.105,0.051l0.105,0.053l0.105,0.053l0.104,0.054l0.104,0.055l0.103,0.055l0.102,0.056l0.102,0.057l0.102,0.058l0.101,0.059l0.101,0.059l0.1,0.06l0.1,0.061l0.099,0.062l0.098,0.062l0.098,0.063l0.098,0.064l0.097,0.065l0.096,0.065l0.096,0.066l0.095,0.067l0.095,0.067l0.095,0.068l0.093,0.069l0.078,0.058l0,-2.023l0.003,-0.128l0.012,-0.151l0.019,-0.15l0.026,-0.149l0.034,-0.146l0.04,-0.142l0.048,-0.14l0.054,-0.138l0.06,-0.133l0.067,-0.129l0.072,-0.126l0.078,-0.122l0.083,-0.117l0.089,-0.113l0.094,-0.109l0.099,-0.104l0.104,-0.099l0.109,-0.094l0.112,-0.088l0.118,-0.084l0.122,-0.078l0.125,-0.072l0.13,-0.067l0.134,-0.06l0.136,-0.054l0.141,-0.047l0.143,-0.041l0.145,-0.034l0.149,-0.026l0.15,-0.019l0.151,-0.012l0.128,-0.003l2.05,0l0.128,0.003Zm-14.29,5.998l-0.136,0.002l-0.136,0.005l-0.136,0.006l-0.136,0.007l-0.136,0.009l-0.135,0.011l-0.135,0.013l-0.135,0.014l-0.134,0.016l-0.135,0.017l-0.133,0.02l-0.134,0.02l-0.133,0.023l-0.133,0.024l-0.132,0.025l-0.132,0.028l-0.131,0.028l-0.132,0.031l-0.13,0.032l-0.13,0.033l-0.13,0.035l-0.129,0.037l-0.129,0.038l-0.128,0.04l-0.128,0.042l-0.127,0.043l-0.127,0.044l-0.126,0.046l-0.125,0.048l-0.125,0.049l-0.125,0.05l-0.123,0.052l-0.123,0.054l-0.122,0.055l-0.122,0.057l-0.121,0.058l-0.12,0.059l-0.12,0.061l-0.119,0.063l-0.118,0.064l-0.117,0.065l-0.117,0.067l-0.116,0.069l-0.115,0.069l-0.114,0.072l-0.113,0.072l-0.113,0.074l-0.112,0.076l-0.11,0.077l-0.11,0.078l-0.109,0.079l-0.108,0.082l-0.108,0.082l-0.106,0.084l-0.105,0.085l-0.105,0.087l-0.103,0.088l-0.102,0.089l-0.102,0.091l-0.1,0.092l-0.1,0.093l-0.098,0.095l-0.097,0.096l-0.096,0.097l-0.095,0.098l-0.093,0.1l-0.092,0.1l-0.091,0.102l-0.089,0.102l-0.088,0.103l-0.087,0.105l-0.085,0.105l-0.084,0.106l-0.082,0.108l-0.082,0.108l-0.079,0.109l-0.078,0.11l-0.077,0.11l-0.076,0.112l-0.074,0.113l-0.073,0.113l-0.071,0.114l-0.069,0.115l-0.069,0.116l-0.067,0.117l-0.065,0.117l-0.064,0.118l-0.063,0.119l-0.061,0.12l-0.059,0.12l-0.058,0.121l-0.057,0.122l-0.055,0.122l-0.054,0.123l-0.052,0.124l-0.05,0.124l-0.049,0.125l-0.048,0.125l-0.046,0.126l-0.044,0.127l-0.043,0.127l-0.042,0.128l-0.04,0.128l-0.038,0.129l-0.036,0.129l-0.036,0.13l-0.033,0.13l-0.032,0.131l-0.031,0.13l-0.028,0.132l-0.028,0.132l-0.025,0.132l-0.024,0.133l-0.023,0.133l-0.02,0.134l-0.02,0.133l-0.017,0.135l-0.016,0.134l-0.014,0.135l-0.013,0.135l-0.011,0.135l-0.009,0.136l-0.007,0.135l-0.006,0.136l-0.005,0.137l-0.002,0.136l-0.001,0.143l0,0.992l0.001,0.13l0.002,0.124l0.004,0.124l0.005,0.124l0.007,0.123l0.009,0.123l0.01,0.123l0.011,0.123l0.013,0.122l0.014,0.123l0.016,0.122l0.018,0.121l0.018,0.121l0.021,0.121l0.022,0.121l0.023,0.12l0.025,0.12l0.026,0.12l0.027,0.119l0.029,0.118l0.031,0.119l0.032,0.118l0.033,0.117l0.035,0.117l0.036,0.117l0.038,0.116l0.039,0.115l0.04,0.115l0.042,0.115l0.043,0.114l0.045,0.113l0.046,0.113l0.047,0.113l0.049,0.111l0.05,0.112l0.052,0.11l0.052,0.11l0.054,0.109l0.056,0.109l0.057,0.108l0.058,0.107l0.059,0.107l0.061,0.106l0.062,0.105l0.064,0.105l0.064,0.104l0.066,0.103l0.067,0.102l0.069,0.101l0.07,0.101l0.071,0.1l0.072,0.099l0.074,0.098l0.075,0.098l0.076,0.096l0.078,0.096l0.078,0.095l0.08,0.094l0.082,0.093l0.082,0.092l0.084,0.091l0.084,0.09l0.087,0.09l0.087,0.088l0.088,0.087l0.089,0.087l0.091,0.084l0.091,0.084l0.092,0.083l0.093,0.081l0.094,0.08l0.095,0.078l0.096,0.078l0.096,0.076l0.098,0.075l0.098,0.074l0.099,0.072l0.1,0.071l0.101,0.07l0.101,0.069l0.103,0.067l0.102,0.066l0.104,0.064l0.105,0.064l0.105,0.062l0.106,0.061l0.107,0.059l0.107,0.058l0.108,0.057l0.109,0.056l0.109,0.054l0.11,0.053l0.11,0.051l0.112,0.05l0.111,0.049l0.113,0.047l0.113,0.046l0.113,0.045l0.114,0.043l0.115,0.042l0.115,0.04l0.115,0.039l0.116,0.038l0.117,0.036l0.117,0.035l0.117,0.033l0.118,0.032l0.119,0.031l0.118,0.029l0.119,0.027l0.12,0.026l0.12,0.025l0.12,0.023l0.121,0.022l0.121,0.021l0.121,0.018l0.121,0.018l0.122,0.016l0.123,0.014l0.122,0.013l0.123,0.011l0.123,0.01l0.123,0.009l0.123,0.007l0.124,0.005l0.124,0.004l0.124,0.002l0.13,0.001l1.996,0l0.13,-0.001l0.124,-0.002l0.124,-0.004l0.124,-0.005l0.123,-0.007l0.123,-0.009l0.123,-0.01l0.123,-0.011l0.122,-0.013l0.123,-0.014l0.122,-0.016l0.121,-0.018l0.121,-0.018l0.121,-0.021l0.121,-0.022l0.12,-0.023l0.12,-0.025l0.12,-0.026l0.119,-0.027l0.118,-0.029l0.119,-0.031l0.118,-0.032l0.117,-0.033l0.117,-0.035l0.117,-0.036l0.116,-0.038l0.115,-0.039l0.115,-0.04l0.115,-0.042l0.114,-0.043l0.113,-0.045l0.113,-0.046l0.113,-0.047l0.111,-0.049l0.112,-0.05l0.11,-0.051l0.11,-0.053l0.109,-0.054l0.109,-0.056l0.108,-0.057l0.107,-0.058l0.107,-0.059l0.106,-0.061l0.105,-0.062l0.105,-0.064l0.104,-0.064l0.103,-0.066l0.102,-0.067l0.101,-0.069l0.101,-0.07l0.1,-0.071l0.099,-0.073l0.098,-0.073l0.098,-0.075l0.096,-0.076l0.096,-0.078l0.095,-0.078l0.094,-0.08l0.093,-0.082l0.092,-0.082l0.091,-0.084l0.09,-0.084l0.09,-0.087l0.088,-0.087l0.087,-0.088l0.087,-0.09l0.084,-0.09l0.084,-0.091l0.082,-0.092l0.082,-0.093l0.08,-0.094l0.078,-0.095l0.078,-0.096l0.076,-0.096l0.075,-0.098l0.074,-0.098l0.072,-0.099l0.071,-0.1l0.07,-0.101l0.068,-0.101l0.068,-0.102l0.066,-0.104l0.065,-0.103l0.063,-0.105l0.062,-0.105l0.061,-0.106l0.059,-0.107l0.058,-0.107l0.057,-0.108l0.056,-0.109l0.054,-0.109l0.053,-0.11l0.051,-0.11l0.05,-0.112l0.049,-0.111l0.047,-0.113l0.046,-0.113l0.045,-0.113l0.043,-0.114l0.042,-0.115l0.04,-0.115l0.039,-0.115l0.038,-0.116l0.036,-0.117l0.035,-0.117l0.033,-0.117l0.032,-0.118l0.031,-0.119l0.029,-0.118l0.027,-0.119l0.026,-0.12l0.025,-0.12l0.023,-0.12l0.022,-0.121l0.021,-0.121l0.018,-0.121l0.018,-0.122l0.016,-0.121l0.014,-0.123l0.013,-0.122l0.011,-0.123l0.01,-0.123l0.009,-0.123l0.007,-0.123l0.005,-0.124l0.004,-0.124l0.002,-0.124l0.001,-0.13l0,-2.735l-0.545,-1.696l-0.042,-0.124l-0.042,-0.123l-0.045,-0.122l-0.045,-0.122l-0.047,-0.121l-0.049,-0.12l-0.05,-0.12l-0.051,-0.119l-0.052,-0.118l-0.054,-0.118l-0.056,-0.116l-0.056,-0.116l-0.058,-0.116l-0.059,-0.114l-0.232,-0.436l-0.252,-0.396l-0.046,-0.071l-0.047,-0.072l-0.048,-0.071l-0.048,-0.07l-0.049,-0.071l-0.049,-0.07l-0.05,-0.069l-0.05,-0.069l-0.05,-0.069l-0.052,-0.068l-0.052,-0.068l-0.052,-0.067l-0.053,-0.067l-0.053,-0.067l-0.054,-0.066l-0.054,-0.066l-0.055,-0.065l-0.055,-0.065l-0.056,-0.064l-0.056,-0.064l-0.057,-0.064l-0.057,-0.063l-0.058,-0.063l-0.058,-0.062l-0.059,-0.062l-0.059,-0.061l-0.06,-0.061l-0.06,-0.061l-0.061,-0.06l-0.061,-0.059l-0.061,-0.059l-0.062,-0.059l-0.063,-0.058l-0.062,-0.057l-0.064,-0.057l-0.063,-0.057l-0.065,-0.056l-0.064,-0.056l-0.065,-0.055l-0.066,-0.054l-0.066,-0.055l-0.066,-0.053l-0.067,-0.053l-0.067,-0.053l-0.067,-0.052l-0.068,-0.052l-0.069,-0.051l-0.069,-0.05l-0.069,-0.05l-0.069,-0.05l-0.07,-0.049l-0.071,-0.048l-0.071,-0.048l-0.071,-0.048l-0.071,-0.046l-0.072,-0.047l-0.072,-0.045l-0.073,-0.046l-0.073,-0.044l-0.074,-0.044l-0.073,-0.044l-0.075,-0.043l-0.074,-0.042l-0.075,-0.042l-0.075,-0.041l-0.076,-0.041l-0.076,-0.04l-0.076,-0.04l-0.076,-0.038l-0.077,-0.039l-0.078,-0.038l-0.077,-0.037l-0.078,-0.036l-0.078,-0.036l-0.079,-0.036l-0.079,-0.034l-0.079,-0.035l-0.08,-0.033l-0.079,-0.033l-0.081,-0.033l-0.08,-0.031l-0.081,-0.031l-0.081,-0.031l-0.081,-0.03l-0.082,-0.029l-0.082,-0.029l-0.082,-0.028l-0.083,-0.027l-0.083,-0.027l-0.083,-0.026l-0.083,-0.025l-0.084,-0.025l-0.084,-0.024l-0.084,-0.024l-0.085,-0.023l-0.084,-0.022l-0.085,-0.021l-0.086,-0.021l-0.085,-0.02l-0.086,-0.02l-0.086,-0.019l-0.087,-0.018l-0.086,-0.017l-0.087,-0.017l-0.087,-0.016l-0.088,-0.016l-0.087,-0.015l-0.088,-0.014l-0.088,-0.013l-0.088,-0.013l-0.089,-0.012l-0.089,-0.011l-0.089,-0.011l-0.089,-0.01l-0.09,-0.009l-0.089,-0.008l-0.09,-0.008l-0.091,-0.007l-0.09,-0.006l-0.091,-0.006l-0.091,-0.005l-0.09,-0.004l-0.092,-0.003l-0.091,-0.003l-0.092,-0.001l-0.092,-0.002l-0.091,0l-0.14,0.001Zm13.137,-2.001l0,5l0,0l0,-5l0,0Z"/></g><g id="emoji"><path d="M28,16.998c0,-7.179 -5.819,-12.998 -12.998,-12.998c-0.001,0 -0.001,0 -0.002,0c-3.448,0 -6.754,1.37 -9.192,3.808c-2.438,2.438 -3.808,5.744 -3.808,9.192c0,0.335 0,0.67 0,1.004c0,3.182 1.264,6.233 3.514,8.482c2.249,2.25 5.3,3.514 8.482,3.514c0.668,0 1.34,0 2.008,0c3.182,0 6.233,-1.264 8.482,-3.514c2.25,-2.249 3.514,-5.3 3.514,-8.482c0,-0.335 0,-0.67 0,-1.006Z" style="fill:#fbc546;"/><clipPath id="_clip2"><path d="M28,16.998c0,-7.179 -5.819,-12.998 -12.998,-12.998c-0.001,0 -0.001,0 -0.002,0c-3.448,0 -6.754,1.37 -9.192,3.808c-2.438,2.438 -3.808,5.744 -3.808,9.192c0,0.335 0,0.67 0,1.004c0,3.182 1.264,6.233 3.514,8.482c2.249,2.25 5.3,3.514 8.482,3.514c0.668,0 1.34,0 2.008,0c3.182,0 6.233,-1.264 8.482,-3.514c2.25,-2.249 3.514,-5.3 3.514,-8.482c0,-0.335 0,-0.67 0,-1.006Z"/></clipPath><g clip-path="url(#_clip2)"><path d="M28,13c1.104,0 2,0.896 2,2c0,1.104 -0.896,2 -2,2c-1.104,0 -2,-0.896 -2,-2c0,-1.104 0.896,-2 2,-2Zm2,-10c0,-0.552 -0.448,-1 -1,-1c-0.611,0 -1.389,0 -2,0c-0.552,0 -1,0.448 -1,1c0,1.732 0,5.268 0,7c0,0.552 0.448,1 1,1c0.611,0 1.389,0 2,0c0.552,0 1,-0.448 1,-1c0,-1.732 0,-5.268 0,-7Z" style="fill:none;stroke:#e59a10;stroke-width:4px;"/></g><path d="M11,10.5c0,-0.398 -0.158,-0.779 -0.439,-1.061c-0.282,-0.281 -0.663,-0.439 -1.061,-0.439c-0.398,0 -0.779,0.158 -1.061,0.439c-0.281,0.282 -0.439,0.663 -0.439,1.061c0,1.181 0,2.819 0,4c0,0.398 0.158,0.779 0.439,1.061c0.282,0.281 0.663,0.439 1.061,0.439c0.398,0 0.779,-0.158 1.061,-0.439c0.281,-0.282 0.439,-0.663 0.439,-1.061c0,-1.181 0,-2.819 0,-4Z"/><path d="M22,10.498c0,-0.397 -0.158,-0.778 -0.439,-1.059c-0.281,-0.281 -0.662,-0.439 -1.059,-0.439c-0.001,0 -0.003,0 -0.004,0c-0.397,0 -0.778,0.158 -1.059,0.439c-0.281,0.281 -0.439,0.662 -0.439,1.059c0,1.182 0,2.822 0,4.004c0,0.397 0.158,0.778 0.439,1.059c0.281,0.281 0.662,0.439 1.059,0.439c0.001,0 0.003,0 0.004,0c0.397,0 0.778,-0.158 1.059,-0.439c0.281,-0.281 0.439,-0.662 0.439,-1.059c0,-1.182 0,-2.822 0,-4.004Z"/><g><path d="M8.589,24.315c-1.381,-1.403 -2.306,-3.255 -2.532,-5.315l17.886,0c-0.227,2.061 -1.152,3.913 -2.532,5.314c-1.115,-1.431 -11.707,-1.431 -12.822,0.001Z" style="fill:#722245;"/><path d="M8.589,24.315c1.115,-1.432 2.848,-2.315 4.736,-2.315c1.09,0 2.26,0 3.35,0c1.888,0 3.621,0.883 4.736,2.314c-1.532,1.556 -3.625,2.557 -5.948,2.674l-0.463,0.012l-0.463,-0.012c-2.324,-0.118 -4.416,-1.119 -5.948,-2.673Z" style="fill:#ca3b8f;"/></g><path d="M28,13c1.104,0 2,0.896 2,2c0,1.104 -0.896,2 -2,2c-1.104,0 -2,-0.896 -2,-2c0,-1.104 0.896,-2 2,-2Zm2,-10c0,-0.552 -0.448,-1 -1,-1c-0.611,0 -1.389,0 -2,0c-0.552,0 -1,0.448 -1,1c0,1.732 0,5.268 0,7c0,0.552 0.448,1 1,1c0.611,0 1.389,0 2,0c0.552,0 1,-0.448 1,-1c0,-1.732 0,-5.268 0,-7Z" style="fill:#fff;"/></g></g></svg>