<?xml version="1.0" encoding="UTF-8" standalone="no"?>
<!DOCTYPE svg PUBLIC "-//W3C//DTD SVG 1.1//EN" "http://www.w3.org/Graphics/SVG/1.1/DTD/svg11.dtd">
<svg width="100%" height="100%" viewBox="0 0 32 32" version="1.1" xmlns="http://www.w3.org/2000/svg" xmlns:xlink="http://www.w3.org/1999/xlink" xml:space="preserve" xmlns:serif="http://www.serif.com/" style="fill-rule:evenodd;clip-rule:evenodd;stroke-linejoin:round;stroke-miterlimit:2;">
    <rect id="joy" x="0" y="0" width="32" height="32" style="fill:none;"/>
    <clipPath id="_clip1">
        <rect x="0" y="0" width="32" height="32"/>
    </clipPath>
    <g clip-path="url(#_clip1)">
        <g id="outline">
            <path d="M16,2c8.837,0 16,7.163 16,16c0,0 0,0 0,0c0,1.314 -0.181,2.585 -0.521,3.791c0.345,1.52 -0.031,3.162 -1.112,4.399c-0.01,0.011 -0.02,0.022 -0.03,0.033c-0.618,0.707 -1.395,1.2 -2.234,1.468c-2.547,2.656 -6.132,4.309 -10.103,4.309c-1.325,0 -2.675,0 -4,0c-3.971,0 -7.556,-1.653 -10.103,-4.309c-0.839,-0.268 -1.616,-0.761 -2.234,-1.468c-0.01,-0.011 -0.02,-0.022 -0.03,-0.033c-1.081,-1.237 -1.457,-2.879 -1.112,-4.399c-0.34,-1.206 -0.521,-2.477 -0.521,-3.791c0,0 0,0 0,0c0,-8.837 7.163,-16 16,-16l0,0Z"/>
        </g>
        <g id="emoji">
            <g>
                <path d="M2.818,22.363c-0.528,-1.352 -0.818,-2.824 -0.818,-4.363c0,0 0,0 0,0c0,-7.732 6.268,-14 14,-14c0,0 0,0 0,0c7.732,0 14,6.268 14,14c0,0 0,0 0,0c0,1.539 -0.29,3.011 -0.818,4.363c-0.065,-0.11 -3.573,4.446 -3.119,4.524c-2.13,1.934 -4.959,3.113 -8.063,3.113c-1.325,0 -2.675,0 -4,0c-3.104,0 -5.933,-1.179 -8.063,-3.113c0.454,-0.078 -3.054,-4.634 -3.119,-4.524Z" style="fill:#fbc546;"/>
                <path d="M2.818,22.363c0.065,-0.11 0.138,-0.217 0.219,-0.319c1.627,-2.071 3.963,-5.044 3.963,-5.044c0,0 0.925,3.7 1.517,6.068c0.293,1.171 -0.145,2.403 -1.111,3.127c-0.059,0.045 -0.12,0.09 -0.18,0.136c-0.393,0.294 -0.835,0.478 -1.289,0.556c-1.362,-1.236 -2.439,-2.781 -3.119,-4.524Zm23.245,4.524c-0.454,-0.078 -0.896,-0.262 -1.289,-0.556c-0.06,-0.046 -0.121,-0.091 -0.18,-0.136c-0.966,-0.724 -1.404,-1.956 -1.111,-3.127c0.592,-2.368 1.517,-6.068 1.517,-6.068c0,0 2.336,2.973 3.963,5.044c0.081,0.102 0.154,0.209 0.219,0.319c-0.68,1.743 -1.757,3.288 -3.119,4.524Z" style="fill:#e59a10;"/>
            </g>
            <path d="M21.851,15.063l2.465,0.822c0.524,0.174 0.807,0.741 0.633,1.265c-0.175,0.523 -0.742,0.807 -1.265,0.632l-5.535,-1.845l5.144,-5.144c0.39,-0.39 1.024,-0.39 1.414,0c0.39,0.39 0.39,1.024 0,1.414l-2.856,2.856Zm-11.702,0l-2.856,-2.856c-0.39,-0.39 -0.39,-1.024 0,-1.414c0.39,-0.39 1.024,-0.39 1.414,0l5.144,5.144l-5.535,1.845c-0.523,0.175 -1.09,-0.109 -1.265,-0.632c-0.174,-0.524 0.109,-1.091 0.633,-1.265l2.465,-0.822Z"/>
            <g>
                <path d="M9.785,25.077c-1.904,-1.25 -3.392,-3.026 -3.95,-5.077l20.33,0c-0.558,2.051 -2.046,3.827 -3.95,5.077c-1.116,-1.291 -11.314,-1.291 -12.43,0Z" style="fill:#722245;"/>
                <path d="M9.785,25.077c1.116,-1.291 2.759,-2.077 4.54,-2.077c1.09,0 2.26,0 3.35,0c1.781,0 3.424,0.786 4.54,2.077c-1.838,1.207 -4.064,1.923 -6.215,1.923c-2.151,0 -4.377,-0.716 -6.215,-1.923Z" style="fill:#ca3b8f;"/>
            </g>
            <g>
                <path d="M25,16c0,0 2.336,2.973 3.963,5.044c0.891,1.134 0.849,2.743 -0.101,3.829c-0.01,0.011 -0.02,0.022 -0.03,0.033c-1.033,1.181 -2.802,1.366 -4.058,0.425c-0.06,-0.046 -0.121,-0.091 -0.18,-0.136c-0.966,-0.724 -1.404,-1.956 -1.111,-3.127c0.592,-2.368 1.517,-6.068 1.517,-6.068Z" style="fill:#1bb0e6;"/>
                <path d="M7,16c0,0 -2.336,2.973 -3.963,5.044c-0.891,1.134 -0.849,2.743 0.101,3.829c0.01,0.011 0.02,0.022 0.03,0.033c1.033,1.181 2.802,1.366 4.058,0.425c0.06,-0.046 0.121,-0.091 0.18,-0.136c0.966,-0.724 1.404,-1.956 1.111,-3.127c-0.592,-2.368 -1.517,-6.068 -1.517,-6.068Z" style="fill:#1bb0e6;"/>
            </g>
        </g>
    </g>
</svg>
