<?xml version="1.0" encoding="UTF-8" standalone="no"?>
<!DOCTYPE svg PUBLIC "-//W3C//DTD SVG 1.1//EN" "http://www.w3.org/Graphics/SVG/1.1/DTD/svg11.dtd">
<svg width="100%" height="100%" viewBox="0 0 32 32" version="1.1" xmlns="http://www.w3.org/2000/svg" xmlns:xlink="http://www.w3.org/1999/xlink" xml:space="preserve" xmlns:serif="http://www.serif.com/" style="fill-rule:evenodd;clip-rule:evenodd;stroke-linejoin:round;stroke-miterlimit:2;">
    <rect id="laughing" x="0" y="0" width="32" height="32" style="fill:none;"/>
    <clipPath id="_clip1">
        <rect x="0" y="0" width="32" height="32"/>
    </clipPath>
    <g clip-path="url(#_clip1)">
        <g id="outline">
            <path d="M16,2c8.837,0 16,7.163 16,16c0,0 0,0 0,0c0,7.732 -6.268,14 -14,14c-1.325,0 -2.675,0 -4,0c-7.732,0 -14,-6.268 -14,-14c0,0 0,0 0,0c0,-8.837 7.163,-16 16,-16l0,0Z"/>
        </g>
        <g id="emoji">
            <path d="M30,18c0,-7.732 -6.268,-14 -14,-14c0,0 0,0 0,0c-7.732,0 -14,6.268 -14,14c0,0 0,0 0,0c0,6.627 5.373,12 12,12c1.325,0 2.675,0 4,0c6.627,0 12,-5.373 12,-12c0,0 0,0 0,0Z" style="fill:#fbc546;"/>
            <path d="M10.149,15.063l-2.856,-2.856c-0.39,-0.39 -0.39,-1.024 0,-1.414c0.39,-0.39 1.024,-0.39 1.414,0l5.144,5.144l-5.535,1.845c-0.523,0.175 -1.09,-0.109 -1.265,-0.632c-0.174,-0.524 0.109,-1.091 0.633,-1.265l2.465,-0.822Zm11.702,0l2.465,0.822c0.524,0.174 0.807,0.741 0.633,1.265c-0.175,0.523 -0.742,0.807 -1.265,0.632l-5.535,-1.845l5.144,-5.144c0.39,-0.39 1.024,-0.39 1.414,0c0.39,0.39 0.39,1.024 0,1.414l-2.856,2.856Z"/>
            <g>
                <path d="M9.785,25.077c-1.904,-1.25 -3.392,-3.026 -3.95,-5.077l20.33,0c-0.558,2.051 -2.046,3.827 -3.95,5.077c-1.116,-1.291 -11.314,-1.291 -12.43,0Z" style="fill:#722245;"/>
                <path d="M9.785,25.077c1.116,-1.291 2.759,-2.077 4.54,-2.077c1.09,0 2.26,0 3.35,0c1.781,0 3.424,0.786 4.54,2.077c-1.838,1.207 -4.064,1.923 -6.215,1.923c-2.151,0 -4.377,-0.716 -6.215,-1.923Z" style="fill:#ca3b8f;"/>
            </g>
        </g>
    </g>
</svg>
