<?xml version="1.0" encoding="UTF-8" standalone="no"?>
<!DOCTYPE svg PUBLIC "-//W3C//DTD SVG 1.1//EN" "http://www.w3.org/Graphics/SVG/1.1/DTD/svg11.dtd">
<svg width="100%" height="100%" viewBox="0 0 32 32" version="1.1" xmlns="http://www.w3.org/2000/svg" xmlns:xlink="http://www.w3.org/1999/xlink" xml:space="preserve" xmlns:serif="http://www.serif.com/" style="fill-rule:evenodd;clip-rule:evenodd;stroke-linejoin:round;stroke-miterlimit:2;">
    <rect id="money_face" x="0" y="0" width="32" height="32" style="fill:none;"/>
    <clipPath id="_clip1">
        <rect x="0" y="0" width="32" height="32"/>
    </clipPath>
    <g clip-path="url(#_clip1)">
        <g id="outline">
            <path d="M10.432,1c1.766,-0.655 3.649,-1 5.568,-1l0.002,0c1.962,0 3.842,0.353 5.58,1l1.918,0c0.74,0 1.386,0.402 1.732,1l1.768,0c1.105,0 2,0.895 2,2l0,2.669c1.888,2.626 3,5.848 3,9.329l0,2.002c0,7.732 -6.268,14 -14,14l-4,0c-7.732,0 -14,-6.268 -14,-14l0,-2c0,-2.734 0.7,-5.396 2,-7.746l0,-1.254c0,-1.326 0.527,-2.598 1.464,-3.536c0.883,-0.882 2.061,-1.4 3.301,-1.458c0.345,-0.601 0.993,-1.006 1.735,-1.006l1.932,0Z"/>
        </g>
        <g id="emoji">
            <path d="M30,15.998c0,-7.731 -6.267,-13.998 -13.998,-13.998l-0.002,0c-3.713,0 -7.274,1.475 -9.899,4.101c-2.626,2.625 -4.101,6.186 -4.101,9.899l0,2c0,6.627 5.373,12 12,12l4,0c6.627,0 12,-5.373 12,-12l0,-2.002Z" style="fill:#fbc546;"/>
            <g>
                <path d="M28,13c0,0.796 -0.316,1.559 -0.879,2.121c-0.562,0.563 -1.325,0.879 -2.121,0.879l-1.5,0l0,1c-0.667,0 -1.333,0 -2,0l0,-1l-3.5,0c0,-0.667 0,-1.333 0,-2l2,0l0,-2c-0.796,0 -1.559,-0.316 -2.121,-0.879c-0.563,-0.562 -0.879,-1.325 -0.879,-2.121l0,-2c0,0 2.204,-1 3,-1l1.5,0l0,-1l2,0l0,1l3.5,0l0,2l-3.5,0l0,2l1.5,0c0.796,0 3,1 3,1l0,2Zm-13,0c0,0.796 -0.316,1.559 -0.879,2.121c-0.562,0.563 -1.325,0.879 -2.121,0.879l-1.5,0l0,1c-0.667,0 -1.333,0 -2,0l0,-1l-3.5,0c0,-0.667 0,-1.333 0,-2l2,0l0,-2c-0.796,0 -1.559,-0.316 -2.121,-0.879c-0.563,-0.562 -0.879,-1.325 -0.879,-2.121l0,-2c0,0 2.204,-1 3,-1l1.5,0l0,-1l2,0l0,1l3.5,0l0,2l-2,0l0,2c0.796,0 3,1 3,1l0,2Z" style="fill:#269710;"/>
                <path d="M21.5,4l0,-1l2,0l0,1l3.5,0l0,2l-3.5,0l0,2l1.5,0c0.796,0 1.559,0.316 2.121,0.879c0.563,0.562 0.879,1.325 0.879,2.121c0,0.796 -0.316,1.559 -0.879,2.121c-0.562,0.563 -1.325,0.879 -2.121,0.879l-1.5,0l0,1c-0.667,0 -1.333,0 -2,0l0,-1l-3.5,0c0,-0.667 0,-1.333 0,-2l3.5,0l0,-2l-1.5,0c-0.796,0 -1.559,-0.316 -2.121,-0.879c-0.563,-0.562 -0.879,-1.325 -0.879,-2.121c0,-0.796 0.316,-1.559 0.879,-2.121c0.562,-0.563 1.325,-0.879 2.121,-0.879l1.5,0Zm-13,0l0,-1l2,0l0,1l3.5,0l0,2l-3.5,0l0,2l1.5,0c0.796,0 1.559,0.316 2.121,0.879c0.563,0.562 0.879,1.325 0.879,2.121c0,0.796 -0.316,1.559 -0.879,2.121c-0.562,0.563 -1.325,0.879 -2.121,0.879l-1.5,0l0,1c-0.667,0 -1.333,0 -2,0l0,-1l-3.5,0c0,-0.667 0,-1.333 0,-2l3.5,0l0,-2l-1.5,0c-0.796,0 -1.559,-0.316 -2.121,-0.879c-0.563,-0.562 -0.879,-1.325 -0.879,-2.121c0,-0.796 0.316,-1.559 0.879,-2.121c0.562,-0.563 1.325,-0.879 2.121,-0.879l1.5,0Zm15,8l1.5,0c0.265,0 0.52,-0.105 0.707,-0.293c0.188,-0.187 0.293,-0.442 0.293,-0.707c0,-0.265 -0.105,-0.52 -0.293,-0.707c-0.187,-0.188 -0.442,-0.293 -0.707,-0.293l-1.5,0l0,2Zm-11.5,-2l-1.5,0l0,2l1.5,0c0.265,0 0.52,-0.105 0.707,-0.293c0.188,-0.187 0.293,-0.442 0.293,-0.707c0,-0.265 -0.105,-0.52 -0.293,-0.707c-0.187,-0.188 -0.442,-0.293 -0.707,-0.293Zm8,-2l1.5,0l0,-2l-1.5,0c-0.265,0 -0.52,0.105 -0.707,0.293c-0.188,0.187 -0.293,0.442 -0.293,0.707c0,0.265 0.105,0.52 0.293,0.707c0.187,0.188 0.442,0.293 0.707,0.293Zm-13,0l1.5,0l0,-2l-1.5,0c-0.265,0 -0.52,0.105 -0.707,0.293c-0.188,0.187 -0.293,0.442 -0.293,0.707c0,0.265 0.105,0.52 0.293,0.707c0.187,0.188 0.442,0.293 0.707,0.293Z" style="fill:#6dec51;"/>
            </g>
            <g>
                <path d="M9.354,23.469c-1.583,-1.409 -2.715,-3.314 -3.153,-5.469l19.598,0c-0.438,2.155 -1.57,4.06 -3.153,5.469l-13.292,0Z" style="fill:#165011;"/>
                <path d="M12,23.28c0,0.121 -0.995,1.242 -0.986,1.363l0.002,0.027c-0.595,-0.344 -1.152,-0.746 -1.662,-1.201l0.755,-1.133c0.13,-0.193 0.28,-0.371 0.45,-0.53c0.136,-0.127 0.284,-0.241 0.441,-0.34l1,1.814Zm9,-1.814c0.349,0.221 0.654,0.515 0.891,0.87l0.755,1.133c-0.51,0.455 -1.067,0.857 -1.662,1.201l0.002,-0.027c0.009,-0.121 -0.986,-1.242 -0.986,-1.363l1,-1.814Z" style="fill:#1d8016;"/>
                <path d="M21,24.28c0,0.122 -0.005,0.244 -0.014,0.363c-0.185,2.437 -2.221,4.357 -4.706,4.357c-0.186,0 -0.374,0 -0.56,0c-2.607,0 -4.72,-2.113 -4.72,-4.72l0,-2.814c0.262,-0.165 0.548,-0.291 0.848,-0.369c0.248,-0.064 0.502,-0.096 0.758,-0.097l6.788,0c0.578,0 1.133,0.166 1.606,0.466l0,2.814Z" style="fill:#2abd20;"/>
            </g>
        </g>
    </g>
</svg>
