<?xml version="1.0" encoding="UTF-8" standalone="no"?>
<!DOCTYPE svg PUBLIC "-//W3C//DTD SVG 1.1//EN" "http://www.w3.org/Graphics/SVG/1.1/DTD/svg11.dtd">
<svg width="100%" height="100%" viewBox="0 0 32 32" version="1.1" xmlns="http://www.w3.org/2000/svg" xmlns:xlink="http://www.w3.org/1999/xlink" xml:space="preserve" xmlns:serif="http://www.serif.com/" style="fill-rule:evenodd;clip-rule:evenodd;stroke-linejoin:round;stroke-miterlimit:2;">
    <rect id="party_face" x="0" y="0" width="32" height="32" style="fill:none;"/>
    <clipPath id="_clip1">
        <rect x="0" y="0" width="32" height="32"/>
    </clipPath>
    <g clip-path="url(#_clip1)">
        <g id="outline">
            <path d="M3,2c0.048,-1.483 1.546,-2.409 2.894,-1.789l7.919,3.959c0.712,-0.112 1.443,-0.17 2.187,-0.17l0.002,0l0.348,0.004c0.115,0.005 0.231,0.009 0.346,0.013l0.304,0.019l0,-2.036c0,-0.809 0.487,-1.538 1.235,-1.848c0.747,-0.309 1.607,-0.138 2.179,0.434c0,0 0.231,0.231 0.536,0.535c0.562,0.563 1.325,0.879 2.121,0.879l0.929,0c1.105,0 2,0.895 2,2l0,3c0,0.347 -0.089,0.674 -0.245,0.959l0.145,0.141c0.75,0.75 1.407,1.577 1.961,2.463c0.159,-0.025 0.317,-0.064 0.471,-0.115c0.567,-0.189 1.036,-0.345 1.036,-0.345c0.609,-0.204 1.28,-0.101 1.801,0.275c0.522,0.375 0.831,0.979 0.831,1.622l0,3c0,0.861 -0.551,1.625 -1.368,1.897l-0.661,0.221c0.02,0.292 0.029,0.585 0.029,0.88c0,0.334 0,0.669 0,1.002c0,1.352 -0.211,2.682 -0.615,3.947c0.201,0.035 0.406,0.053 0.614,0.053l0.001,0c0.738,0 1.415,0.406 1.763,1.056c0.348,0.651 0.31,1.44 -0.099,2.053l-2,3c-0.371,0.557 -0.995,0.891 -1.664,0.891l-0.001,0c-0.706,0 -1.399,-0.098 -2.062,-0.286l-0.109,0.114c-0.75,0.751 -1.767,1.172 -2.828,1.172l-1.003,0c-1.568,0.654 -3.265,1 -4.997,1c-0.665,0 -1.335,0 -2,0c-3.448,0 -6.754,-1.37 -9.192,-3.808c-0.206,-0.205 -0.404,-0.417 -0.594,-0.635c-1.04,0.293 -2.121,0.443 -3.214,0.443l0,0c-0.643,0 -1.247,-0.309 -1.622,-0.831c-0.376,-0.521 -0.479,-1.192 -0.275,-1.801l1,-3c0.181,-0.544 0.58,-0.97 1.081,-1.193c-0.122,-0.714 -0.184,-1.441 -0.184,-2.175l0,-1c0,-2.034 0.434,-3.967 1.214,-5.71c-0.141,-0.412 -0.214,-0.847 -0.214,-1.29l0,-0.101c-0.555,-0.256 -1.092,-0.557 -1.605,-0.899c-0.301,-0.2 -0.504,-0.336 -0.504,-0.336c-0.919,-0.613 -1.168,-1.854 -0.555,-2.773l2,-3c0.172,-0.259 0.401,-0.471 0.664,-0.622l0,-1.269Z"/>
        </g>
        <g id="emoji">
            <g>
                <path d="M23,25c0,0 0.136,0.204 0.336,0.505c1.04,1.559 2.789,2.495 4.663,2.495l0.001,0l2,-3l-0.001,0c-1.874,0 -3.623,-0.936 -4.663,-2.495c-0.2,-0.301 -0.336,-0.505 -0.336,-0.505l-2,3Z" style="fill:#f229a2;"/>
                <path d="M2,8l2,-3c0,0 0,0 0,0c1.281,1.281 3.017,2 4.828,2c0.659,0 1.172,0 1.172,0l-2,3l0,0c-1.956,0 -3.869,-0.579 -5.496,-1.664c-0.301,-0.201 -0.504,-0.336 -0.504,-0.336Z" style="fill:#f229a2;"/>
            </g>
            <g>
                <path d="M4.756,23.007c-0.495,-1.265 -0.756,-2.622 -0.756,-4.007l0,-1c0,-6.627 5.373,-12 12,-12l0.002,0c0.342,0 0.683,0.015 1.022,0.044l7.03,3.059c0.147,0.133 0.291,0.27 0.432,0.411c1.278,1.278 2.237,2.814 2.828,4.486c0,0 0.179,2.489 0.682,3.671c0.003,0.109 0.004,0.218 0.004,0.327l0,1.002c0,2.917 -1.159,5.715 -3.222,7.778c-2.063,2.063 -4.861,3.222 -7.778,3.222l-2,0c-2.706,0 -5.309,-0.997 -7.318,-2.788c-0.212,-1.509 -1.917,-3.738 -2.926,-4.205Z" style="fill:#fbc546;"/>
                <path d="M4.756,23.007c0.946,0.036 1.884,0.206 2.784,0.506c0.736,0.246 1.46,0.487 1.46,0.487l-1,3l-0.318,0.212c-0.157,-0.14 -0.311,-0.284 -0.46,-0.434c-1.084,-1.084 -1.918,-2.37 -2.466,-3.771Zm22.558,-9.007c0.414,1.171 0.647,2.409 0.682,3.671c-0.88,-0.734 -1.894,-1.304 -2.996,-1.671c0,0 0,0 0,0l1,-2l1.314,0Zm-10.29,-7.956c2.61,0.223 5.081,1.295 7.03,3.059l-2.036,0.221c-1.827,0.199 -3.593,-0.723 -4.476,-2.334l-0.518,-0.946Z" style="fill:#e59a10;"/>
            </g>
            <g>
                <path d="M25.207,16.793c0.391,0.39 0.391,1.024 0,1.414c-0.39,0.391 -1.024,0.391 -1.414,0c-0.739,-0.739 -1.793,-1.793 -1.793,-1.793c0,0 -1.071,1.071 -1.811,1.811c-0.183,0.183 -0.431,0.286 -0.689,0.286c-0.258,0 -0.506,-0.103 -0.689,-0.286c0,0 0,0 0,0c-0.193,-0.192 -0.301,-0.453 -0.301,-0.725c0,-0.272 0.108,-0.533 0.301,-0.725c1.131,-1.131 3.189,-3.189 3.189,-3.189c0,0 2.08,2.079 3.207,3.207Z" style="fill-rule:nonzero;"/>
                <path d="M13.208,16.794c0.187,0.187 0.292,0.441 0.292,0.706c0,0.265 -0.105,0.519 -0.292,0.706c0,0.001 -0.001,0.001 -0.001,0.001c-0.39,0.391 -1.024,0.391 -1.414,0c-0.739,-0.739 -1.793,-1.793 -1.793,-1.793c0,0 -1.071,1.071 -1.811,1.811c-0.183,0.183 -0.431,0.286 -0.689,0.286c-0.258,0 -0.506,-0.103 -0.689,-0.286c0,0 0,0 0,0c-0.193,-0.192 -0.301,-0.453 -0.301,-0.725c0,-0.272 0.108,-0.533 0.301,-0.725c1.131,-1.131 3.189,-3.189 3.189,-3.189c0,0 2.08,2.08 3.208,3.208Z" style="fill-rule:nonzero;"/>
            </g>
            <g>
                <path d="M10.196,12.392c-0.941,0.395 -1.966,0.608 -3.023,0.608c-0.058,0 -0.116,0 -0.173,0c-0.53,0 -1.039,-0.211 -1.414,-0.586c-0.375,-0.375 -0.586,-0.884 -0.586,-1.414c0,-3.172 0,-9 0,-9l1.45,1.366l4.169,7.123l-0.423,1.903Z" style="fill:#8012da;"/>
                <path d="M10.196,12.392l-5.196,-10.392c0,0 5.47,2.735 8.318,4.159c0.929,0.465 1.306,1.594 0.841,2.523c0,0 0,0 0,0.001c-0.851,1.7 -2.271,2.998 -3.963,3.709Z" style="fill:#982eee;"/>
            </g>
            <g>
                <path d="M14,22.91c0,0.059 0.01,0.119 0.029,0.176c0.162,0.488 0.985,2.957 1.515,4.546c0.272,0.817 1.037,1.368 1.898,1.368c1.027,0 2.423,0 3.558,0c1.105,0 2,-0.895 2,-2c0,0 0,0 0,0c0,0 -3.072,-3.687 -4.4,-5.28c-0.38,-0.456 -0.943,-0.72 -1.537,-0.72c-0.346,0 -0.753,0 -1.155,0c-1.054,0 -1.908,0.854 -1.908,1.908c0,0.001 0,0.001 0,0.002Z" style="fill:#5462cb;"/>
                <path d="M25,27c0,-0.53 -0.211,-1.039 -0.586,-1.414c-0.375,-0.375 -0.884,-0.586 -1.414,-0.586c-1.488,0 -3.512,0 -5,0c-0.53,0 -1.039,0.211 -1.414,0.586c-0.375,0.375 -0.586,0.884 -0.586,1.414c0,0.53 0.211,1.039 0.586,1.414c0.375,0.375 0.884,0.586 1.414,0.586c1.488,0 3.512,0 5,0c0.53,0 1.039,-0.211 1.414,-0.586c0.375,-0.375 0.586,-0.884 0.586,-1.414c0,0 0,0 0,0Z" style="fill:#2438b9;"/>
            </g>
            <g>
                <path d="M2,26l1,-3l0,0c1.956,0 3.869,-0.579 5.496,-1.664c0.301,-0.201 0.504,-0.336 0.504,-0.336l-1,3c0,0 -0.203,0.135 -0.504,0.336c-1.627,1.085 -3.54,1.664 -5.496,1.664l0,0Z" style="fill:#f229a2;"/>
                <path d="M30,15l0,-3c0,0 -0.468,0.156 -1.035,0.345c-1.258,0.419 -2.631,0.322 -3.817,-0.271c-0.093,-0.046 -0.148,-0.074 -0.148,-0.074l0,3c0,0 0.055,0.028 0.148,0.074c1.186,0.593 2.559,0.69 3.817,0.271c0.567,-0.189 1.035,-0.345 1.035,-0.345Z" style="fill:#f229a2;"/>
                <path d="M24,7l0,-3l-0.929,0c-1.326,0 -2.598,-0.527 -3.535,-1.464c-0.305,-0.305 -0.536,-0.536 -0.536,-0.536l0,3c0,0 0.231,0.231 0.536,0.536c0.937,0.937 2.209,1.464 3.535,1.464c0.518,0 0.929,0 0.929,0Z" style="fill:#f229a2;"/>
            </g>
        </g>
    </g>
</svg>
