<?xml version="1.0" encoding="UTF-8" standalone="no"?>
<!DOCTYPE svg PUBLIC "-//W3C//DTD SVG 1.1//EN" "http://www.w3.org/Graphics/SVG/1.1/DTD/svg11.dtd">
<svg width="100%" height="100%" viewBox="0 0 32 32" version="1.1" xmlns="http://www.w3.org/2000/svg" xmlns:xlink="http://www.w3.org/1999/xlink" xml:space="preserve" xmlns:serif="http://www.serif.com/" style="fill-rule:evenodd;clip-rule:evenodd;stroke-linejoin:round;stroke-miterlimit:2;">
    <rect id="rofl" x="0" y="0" width="32" height="32" style="fill:none;"/>
    <clipPath id="_clip1">
        <rect x="0" y="0" width="32" height="32"/>
    </clipPath>
    <g clip-path="url(#_clip1)">
        <g id="outline">
            <path d="M7.741,29.608c-1.093,-0.613 -2.12,-1.384 -3.049,-2.313c0,0 0,0 0,0c-6.248,-6.248 -6.248,-16.379 0,-22.627c0,0 0,0 0,0c6.248,-6.249 16.379,-6.249 22.627,0c0,0 0,0 0,0c0.929,0.929 1.7,1.956 2.313,3.049c1.318,0.831 2.214,2.258 2.323,3.897c0.001,0.015 0.002,0.029 0.003,0.044c0.063,0.938 -0.138,1.836 -0.542,2.618c0.077,3.679 -1.289,7.383 -4.097,10.191c-0.937,0.937 -1.891,1.891 -2.828,2.828c-2.808,2.808 -6.511,4.174 -10.191,4.097c-0.782,0.404 -1.68,0.605 -2.618,0.542c-0.014,-0.001 -0.029,-0.002 -0.044,-0.003c-1.639,-0.109 -3.066,-1.005 -3.897,-2.323Z"/>
        </g>
        <g id="emoji">
            <g>
                <path d="M9.77,28.388c-1.33,-0.583 -2.575,-1.419 -3.664,-2.507c0,0 0,0 0,0c-5.467,-5.467 -5.467,-14.332 0,-19.799c0,0 0,0 0,0c5.468,-5.467 14.332,-5.467 19.799,0c0,0 0,0 0,0c1.089,1.088 1.924,2.334 2.507,3.664c-0.124,-0.032 0.617,5.67 0.994,5.404c-0.139,2.874 -1.306,5.708 -3.501,7.903c-0.937,0.937 -1.891,1.891 -2.828,2.828c-2.195,2.195 -5.029,3.362 -7.903,3.501c0.266,-0.377 -5.436,-1.118 -5.404,-0.994Z" style="fill:#fbc546;"/>
                <path d="M9.77,28.388c-0.032,-0.124 -0.056,-0.251 -0.071,-0.381c-0.314,-2.615 -0.764,-6.369 -0.764,-6.369c0,0 3.27,1.963 5.363,3.218c1.035,0.621 1.597,1.802 1.426,2.997c-0.011,0.074 -0.021,0.149 -0.032,0.224c-0.069,0.485 -0.252,0.928 -0.518,1.305c-1.837,0.088 -3.691,-0.243 -5.404,-0.994Zm19.636,-13.238c-0.377,0.266 -0.82,0.449 -1.305,0.518c-0.075,0.011 -0.15,0.021 -0.224,0.032c-1.195,0.171 -2.376,-0.391 -2.997,-1.426c-1.255,-2.093 -3.217,-5.363 -3.217,-5.363c0,0 3.753,0.45 6.368,0.764c0.13,0.015 0.257,0.039 0.381,0.071c0.751,1.713 1.083,3.567 0.994,5.404Z" style="fill:#e59a10;"/>
            </g>
            <path d="M9.791,18.042l-4.038,0c-0.552,0 -1,-0.448 -1,-1c0,-0.552 0.448,-1 1,-1l7.275,0l-2.61,5.219c-0.247,0.493 -0.848,0.694 -1.341,0.447c-0.494,-0.247 -0.694,-0.848 -0.448,-1.342l1.162,-2.324Zm8.275,-8.275l2.324,-1.162c0.494,-0.246 1.095,-0.046 1.342,0.448c0.247,0.493 0.046,1.094 -0.447,1.341l-5.219,2.609l0,-7.274c0,-0.552 0.448,-1 1,-1c0.552,0 1,0.448 1,1l0,4.038Z"/>
            <g>
                <path d="M16.615,25.381c-2.23,0.462 -4.538,0.258 -6.383,-0.798l14.375,-14.375c1.057,1.845 1.26,4.153 0.798,6.383c-1.703,-0.124 -8.914,7.087 -8.79,8.79Z" style="fill:#722245;"/>
                <path d="M16.615,25.381c-0.124,-1.703 0.482,-3.42 1.742,-4.679c0.77,-0.771 1.598,-1.599 2.369,-2.37c1.259,-1.259 2.976,-1.865 4.679,-1.741c-0.447,2.153 -1.514,4.234 -3.035,5.755c-1.521,1.52 -3.602,2.588 -5.755,3.035Z" style="fill:#ca3b8f;"/>
            </g>
            <g>
                <path d="M20.955,8.203c0,0 3.754,0.451 6.369,0.765c1.432,0.172 2.54,1.339 2.636,2.779c0.001,0.015 0.002,0.03 0.003,0.044c0.104,1.566 -1.016,2.948 -2.569,3.17c-0.075,0.011 -0.15,0.021 -0.224,0.032c-1.195,0.17 -2.376,-0.392 -2.997,-1.427c-1.255,-2.092 -3.218,-5.363 -3.218,-5.363Z" style="fill:#1bb0e6;"/>
                <path d="M8.228,20.931c0,0 0.45,3.754 0.764,6.369c0.172,1.432 1.339,2.54 2.779,2.636c0.015,0.001 0.03,0.002 0.045,0.003c1.565,0.104 2.947,-1.016 3.169,-2.569c0.011,-0.075 0.021,-0.15 0.032,-0.224c0.171,-1.195 -0.391,-2.376 -1.426,-2.997c-2.093,-1.255 -5.363,-3.218 -5.363,-3.218Z" style="fill:#1bb0e6;"/>
            </g>
        </g>
    </g>
</svg>
