<?xml version="1.0" encoding="UTF-8" standalone="no"?><!DOCTYPE svg PUBLIC "-//W3C//DTD SVG 1.1//EN" "http://www.w3.org/Graphics/SVG/1.1/DTD/svg11.dtd"><svg width="100%" height="100%" viewBox="0 0 32 32" version="1.1" xmlns="http://www.w3.org/2000/svg" xmlns:xlink="http://www.w3.org/1999/xlink" xml:space="preserve" xmlns:serif="http://www.serif.com/" style="fill-rule:evenodd;clip-rule:evenodd;stroke-linejoin:round;stroke-miterlimit:1.41421;"><rect id="rofl" x="0" y="0" width="32" height="32" style="fill:none;"/><clipPath id="_clip1"><rect x="0" y="0" width="32" height="32"/></clipPath><g clip-path="url(#_clip1)"><g id="outline"><path d="M27.521,4.874l0.099,0.103l0.097,0.105l0.097,0.106l0.095,0.106l0.094,0.107l0.092,0.108l0.092,0.109l0.09,0.109l0.089,0.11l0.087,0.111l0.087,0.111l0.085,0.112l0.084,0.113l0.082,0.114l0.081,0.114l0.08,0.114l0.079,0.116l0.078,0.116l0.076,0.116l0.075,0.117l0.073,0.118l0.073,0.118l0.071,0.119l0.07,0.12l0.069,0.12l0.016,0.03l0.063,0.04l0.071,0.047l0.07,0.049l0.07,0.049l0.068,0.05l0.067,0.052l0.066,0.053l0.066,0.053l0.064,0.055l0.064,0.056l0.062,0.057l0.062,0.058l0.06,0.059l0.06,0.06l0.059,0.061l0.057,0.063l0.056,0.062l0.055,0.063l0.055,0.066l0.053,0.066l0.052,0.066l0.051,0.068l0.05,0.068l0.049,0.07l0.048,0.07l0.046,0.071l0.045,0.072l0.044,0.073l0.044,0.074l0.041,0.073l0.04,0.075l0.04,0.077l0.038,0.076l0.036,0.078l0.036,0.078l0.034,0.078l0.033,0.08l0.031,0.081l0.03,0.08l0.029,0.082l0.027,0.082l0.026,0.083l0.025,0.083l0.023,0.084l0.022,0.085l0.02,0.086l0.019,0.085l0.017,0.085l0.016,0.087l0.014,0.087l0.013,0.088l0.012,0.088l0.009,0.088l0.009,0.089l0.006,0.08l0.004,0.064l0.006,0.102l0.003,0.113l0.002,0.113l-0.002,0.112l-0.003,0.111l-0.007,0.111l-0.009,0.111l-0.011,0.11l-0.013,0.11l-0.016,0.109l-0.019,0.109l-0.02,0.107l-0.023,0.107l-0.025,0.106l-0.028,0.106l-0.029,0.104l-0.032,0.104l-0.034,0.102l-0.036,0.101l-0.039,0.101l-0.04,0.1l-0.043,0.099l-0.044,0.097l-0.047,0.097l-0.033,0.065l0.001,0.079l0.002,0.182l-0.001,0.183l-0.003,0.183l-0.006,0.182l-0.007,0.182l-0.011,0.183l-0.012,0.182l-0.015,0.182l-0.018,0.182l-0.019,0.181l-0.023,0.182l-0.024,0.181l-0.027,0.181l-0.029,0.181l-0.032,0.18l-0.034,0.18l-0.036,0.18l-0.039,0.179l-0.041,0.179l-0.043,0.179l-0.046,0.178l-0.048,0.177l-0.051,0.177l-0.053,0.177l-0.055,0.176l-0.058,0.175l-0.06,0.175l-0.062,0.174l-0.065,0.174l-0.067,0.173l-0.07,0.172l-0.072,0.171l-0.074,0.17l-0.077,0.17l-0.079,0.169l-0.081,0.168l-0.084,0.168l-0.086,0.166l-0.089,0.165l-0.091,0.165l-0.093,0.163l-0.095,0.163l-0.099,0.161l-0.1,0.161l-0.103,0.159l-0.105,0.158l-0.107,0.157l-0.11,0.156l-0.112,0.155l-0.115,0.153l-0.117,0.153l-0.119,0.151l-0.121,0.149l-0.124,0.149l-0.127,0.147l-0.128,0.145l-0.131,0.144l-0.133,0.143l-0.136,0.141l-0.133,0.135l-2.838,2.838l-0.135,0.133l-0.141,0.136l-0.143,0.133l-0.144,0.131l-0.145,0.128l-0.147,0.126l-0.149,0.124l-0.149,0.122l-0.151,0.119l-0.152,0.117l-0.154,0.115l-0.155,0.112l-0.156,0.11l-0.157,0.107l-0.158,0.105l-0.159,0.103l-0.161,0.1l-0.161,0.098l-0.162,0.096l-0.164,0.093l-0.165,0.091l-0.165,0.089l-0.166,0.086l-0.168,0.084l-0.168,0.081l-0.169,0.079l-0.169,0.077l-0.171,0.074l-0.171,0.072l-0.173,0.07l-0.172,0.067l-0.174,0.065l-0.174,0.062l-0.175,0.06l-0.175,0.058l-0.176,0.055l-0.176,0.053l-0.177,0.051l-0.178,0.048l-0.178,0.046l-0.179,0.043l-0.178,0.041l-0.18,0.039l-0.18,0.036l-0.18,0.034l-0.18,0.032l-0.181,0.029l-0.181,0.027l-0.181,0.024l-0.181,0.022l-0.182,0.02l-0.182,0.018l-0.182,0.015l-0.182,0.012l-0.183,0.01l-0.182,0.008l-0.182,0.006l-0.183,0.003l-0.182,0.001l-0.183,-0.002l-0.078,-0.001l-0.066,0.033l-0.097,0.047l-0.097,0.044l-0.099,0.043l-0.099,0.04l-0.101,0.038l-0.102,0.037l-0.102,0.034l-0.104,0.031l-0.105,0.03l-0.105,0.028l-0.106,0.025l-0.107,0.023l-0.107,0.02l-0.109,0.019l-0.109,0.016l-0.109,0.013l-0.111,0.011l-0.111,0.009l-0.111,0.006l-0.111,0.004l-0.112,0.002l-0.113,-0.002l-0.113,-0.003l-0.101,-0.006l-0.065,-0.004l-0.08,-0.006l-0.089,-0.009l-0.088,-0.009l-0.088,-0.012l-0.088,-0.013l-0.086,-0.014l-0.087,-0.016l-0.086,-0.017l-0.086,-0.019l-0.085,-0.021l-0.085,-0.021l-0.083,-0.023l-0.084,-0.025l-0.083,-0.026l-0.082,-0.027l-0.082,-0.029l-0.08,-0.03l-0.08,-0.032l-0.08,-0.032l-0.079,-0.035l-0.078,-0.035l-0.077,-0.036l-0.077,-0.038l-0.076,-0.04l-0.076,-0.04l-0.074,-0.042l-0.073,-0.043l-0.073,-0.044l-0.072,-0.045l-0.071,-0.047l-0.07,-0.047l-0.07,-0.049l-0.068,-0.05l-0.068,-0.051l-0.066,-0.052l-0.066,-0.053l-0.065,-0.054l-0.064,-0.056l-0.063,-0.056l-0.062,-0.058l-0.061,-0.058l-0.06,-0.06l-0.059,-0.06l-0.058,-0.062l-0.056,-0.062l-0.056,-0.064l-0.056,-0.064l-0.053,-0.066l-0.053,-0.066l-0.051,-0.067l-0.051,-0.069l-0.049,-0.069l-0.048,-0.07l-0.048,-0.071l-0.04,-0.063l-0.03,-0.017l-0.12,-0.068l-0.12,-0.07l-0.118,-0.071l-0.119,-0.073l-0.117,-0.073l-0.118,-0.075l-0.116,-0.076l-0.116,-0.078l-0.115,-0.079l-0.115,-0.08l-0.114,-0.081l-0.114,-0.082l-0.113,-0.084l-0.112,-0.085l-0.111,-0.087l-0.111,-0.087l-0.11,-0.089l-0.109,-0.09l-0.109,-0.092l-0.108,-0.092l-0.107,-0.094l-0.106,-0.095l-0.106,-0.097l-0.104,-0.097l-0.104,-0.099l-0.104,-0.1l-0.103,-0.103l-0.144,-0.145l-0.143,-0.149l-0.14,-0.149l-0.138,-0.151l-0.136,-0.153l-0.134,-0.154l-0.132,-0.155l-0.129,-0.156l-0.127,-0.158l-0.124,-0.159l-0.123,-0.16l-0.12,-0.161l-0.118,-0.163l-0.115,-0.163l-0.114,-0.165l-0.111,-0.166l-0.109,-0.167l-0.106,-0.168l-0.104,-0.169l-0.102,-0.17l-0.1,-0.171l-0.097,-0.172l-0.095,-0.173l-0.093,-0.174l-0.091,-0.175l-0.088,-0.176l-0.086,-0.176l-0.083,-0.178l-0.081,-0.178l-0.079,-0.179l-0.077,-0.179l-0.075,-0.181l-0.072,-0.181l-0.07,-0.181l-0.067,-0.183l-0.065,-0.183l-0.063,-0.184l-0.061,-0.184l-0.058,-0.184l-0.056,-0.186l-0.054,-0.186l-0.052,-0.186l-0.049,-0.187l-0.047,-0.187l-0.044,-0.188l-0.043,-0.188l-0.04,-0.188l-0.038,-0.189l-0.035,-0.189l-0.033,-0.19l-0.031,-0.19l-0.029,-0.19l-0.026,-0.19l-0.024,-0.191l-0.022,-0.191l-0.019,-0.191l-0.017,-0.191l-0.015,-0.191l-0.013,-0.192l-0.01,-0.192l-0.008,-0.191l-0.006,-0.192l-0.003,-0.192l-0.001,-0.191l0.001,-0.192l0.003,-0.192l0.006,-0.192l0.008,-0.191l0.01,-0.192l0.013,-0.191l0.015,-0.192l0.017,-0.191l0.019,-0.191l0.022,-0.191l0.024,-0.19l0.026,-0.191l0.029,-0.19l0.031,-0.19l0.033,-0.189l0.035,-0.189l0.038,-0.189l0.04,-0.189l0.043,-0.188l0.044,-0.188l0.047,-0.187l0.049,-0.187l0.052,-0.186l0.054,-0.186l0.056,-0.185l0.058,-0.185l0.061,-0.184l0.063,-0.184l0.065,-0.183l0.067,-0.183l0.07,-0.181l0.072,-0.181l0.075,-0.181l0.077,-0.179l0.079,-0.179l0.081,-0.178l0.083,-0.178l0.086,-0.176l0.089,-0.176l0.09,-0.174l0.093,-0.174l0.095,-0.173l0.097,-0.172l0.1,-0.171l0.102,-0.171l0.104,-0.169l0.106,-0.168l0.109,-0.167l0.111,-0.165l0.114,-0.165l0.115,-0.164l0.118,-0.163l0.12,-0.161l0.123,-0.16l0.124,-0.159l0.127,-0.158l0.129,-0.156l0.132,-0.155l0.134,-0.154l0.136,-0.152l0.138,-0.152l0.14,-0.149l0.143,-0.148l0.145,-0.147l0.147,-0.145l0.148,-0.143l0.15,-0.14l0.151,-0.138l0.152,-0.136l0.154,-0.134l0.155,-0.132l0.156,-0.129l0.158,-0.127l0.159,-0.124l0.16,-0.123l0.162,-0.12l0.162,-0.118l0.164,-0.116l0.165,-0.113l0.165,-0.111l0.167,-0.109l0.168,-0.106l0.169,-0.104l0.171,-0.102l0.171,-0.1l0.172,-0.097l0.173,-0.095l0.174,-0.093l0.174,-0.091l0.176,-0.088l0.177,-0.086l0.177,-0.083l0.178,-0.082l0.179,-0.079l0.18,-0.076l0.18,-0.075l0.181,-0.072l0.182,-0.07l0.182,-0.067l0.183,-0.065l0.184,-0.063l0.184,-0.061l0.185,-0.058l0.185,-0.057l0.186,-0.053l0.186,-0.052l0.187,-0.049l0.187,-0.047l0.188,-0.045l0.188,-0.042l0.189,-0.04l0.189,-0.038l0.189,-0.035l0.189,-0.033l0.19,-0.031l0.19,-0.029l0.191,-0.026l0.19,-0.024l0.191,-0.022l0.191,-0.019l0.191,-0.017l0.192,-0.015l0.191,-0.013l0.192,-0.01l0.191,-0.008l0.192,-0.006l0.192,-0.003l0.192,-0.001l0.191,0.001l0.192,0.003l0.192,0.006l0.192,0.008l0.191,0.01l0.192,0.013l0.191,0.015l0.191,0.017l0.191,0.019l0.191,0.022l0.191,0.024l0.19,0.026l0.19,0.029l0.19,0.031l0.19,0.033l0.189,0.035l0.189,0.038l0.188,0.04l0.188,0.042l0.188,0.045l0.187,0.047l0.187,0.049l0.187,0.052l0.185,0.053l0.186,0.057l0.184,0.058l0.185,0.061l0.183,0.063l0.183,0.065l0.183,0.067l0.181,0.07l0.182,0.072l0.18,0.075l0.179,0.076l0.179,0.079l0.178,0.082l0.178,0.083l0.176,0.086l0.176,0.088l0.175,0.091l0.174,0.093l0.173,0.095l0.172,0.097l0.171,0.1l0.17,0.102l0.169,0.104l0.168,0.106l0.167,0.109l0.166,0.111l0.165,0.113l0.163,0.116l0.163,0.118l0.161,0.12l0.16,0.123l0.159,0.124l0.158,0.127l0.156,0.129l0.156,0.132l0.153,0.134l0.131,0.116l0.038,0l0.681,0.688l0.1,0.104Zm-11.659,-0.892l-0.144,0.003l-0.145,0.004l-0.144,0.006l-0.143,0.008l-0.144,0.01l-0.144,0.011l-0.144,0.013l-0.143,0.014l-0.143,0.017l-0.144,0.018l-0.143,0.019l-0.142,0.022l-0.143,0.023l-0.142,0.025l-0.142,0.026l-0.142,0.029l-0.141,0.03l-0.141,0.032l-0.141,0.033l-0.141,0.035l-0.14,0.037l-0.139,0.039l-0.14,0.04l-0.139,0.042l-0.138,0.044l-0.138,0.045l-0.138,0.047l-0.137,0.049l-0.136,0.051l-0.136,0.052l-0.136,0.054l-0.135,0.056l-0.134,0.057l-0.134,0.059l-0.133,0.061l-0.133,0.063l-0.132,0.064l-0.132,0.066l-0.13,0.068l-0.131,0.069l-0.129,0.071l-0.129,0.073l-0.128,0.075l-0.127,0.076l-0.127,0.078l-0.126,0.08l-0.125,0.081l-0.124,0.083l-0.123,0.085l-0.123,0.087l-0.122,0.088l-0.121,0.09l-0.12,0.092l-0.119,0.094l-0.118,0.095l-0.118,0.097l-0.116,0.099l-0.116,0.1l-0.115,0.103l-0.113,0.104l-0.113,0.105l-0.112,0.108l-0.111,0.109l-0.109,0.111l-0.107,0.112l-0.106,0.113l-0.104,0.113l-0.103,0.115l-0.1,0.116l-0.099,0.116l-0.097,0.117l-0.095,0.119l-0.094,0.119l-0.092,0.12l-0.09,0.121l-0.088,0.122l-0.087,0.123l-0.084,0.123l-0.084,0.124l-0.081,0.125l-0.08,0.126l-0.078,0.127l-0.076,0.127l-0.075,0.128l-0.073,0.129l-0.071,0.129l-0.069,0.13l-0.068,0.131l-0.066,0.132l-0.064,0.132l-0.063,0.132l-0.06,0.133l-0.06,0.135l-0.057,0.134l-0.056,0.135l-0.054,0.136l-0.052,0.136l-0.051,0.136l-0.049,0.137l-0.047,0.138l-0.045,0.138l-0.044,0.138l-0.042,0.139l-0.04,0.14l-0.039,0.139l-0.037,0.14l-0.035,0.141l-0.033,0.14l-0.032,0.142l-0.03,0.141l-0.028,0.142l-0.027,0.142l-0.025,0.142l-0.023,0.143l-0.022,0.142l-0.019,0.143l-0.018,0.144l-0.017,0.143l-0.014,0.143l-0.013,0.144l-0.011,0.144l-0.01,0.143l-0.008,0.144l-0.006,0.144l-0.004,0.145l-0.002,0.143l-0.001,0.145l0.001,0.144l0.002,0.144l0.004,0.144l0.006,0.144l0.008,0.144l0.01,0.144l0.011,0.143l0.013,0.144l0.014,0.143l0.017,0.144l0.018,0.143l0.019,0.143l0.022,0.143l0.023,0.142l0.025,0.142l0.027,0.142l0.028,0.142l0.03,0.141l0.032,0.142l0.033,0.14l0.035,0.141l0.037,0.14l0.039,0.14l0.04,0.139l0.042,0.139l0.044,0.138l0.045,0.138l0.047,0.138l0.049,0.137l0.051,0.136l0.052,0.137l0.054,0.135l0.056,0.135l0.057,0.135l0.06,0.134l0.06,0.133l0.063,0.133l0.064,0.132l0.066,0.131l0.068,0.131l0.069,0.13l0.071,0.129l0.073,0.129l0.075,0.128l0.076,0.127l0.078,0.127l0.08,0.126l0.081,0.125l0.083,0.124l0.085,0.124l0.087,0.122l0.088,0.122l0.09,0.121l0.092,0.12l0.094,0.119l0.095,0.119l0.097,0.117l0.099,0.117l0.1,0.115l0.103,0.115l0.104,0.114l0.106,0.112l0.107,0.112l0.11,0.112l0.073,0.072l0.074,0.072l0.075,0.071l0.075,0.07l0.076,0.069l0.076,0.068l0.077,0.067l0.077,0.067l0.078,0.065l0.078,0.065l0.079,0.063l0.079,0.063l0.079,0.061l0.08,0.061l0.081,0.06l0.081,0.059l0.081,0.058l0.082,0.057l0.082,0.056l0.083,0.055l0.083,0.055l0.084,0.053l0.084,0.053l0.084,0.051l0.085,0.051l0.085,0.05l0.085,0.049l0.086,0.047l0.086,0.047l0.087,0.047l0.087,0.045l0.733,0.372l0.302,0.686l0.007,0.016l0.008,0.015l0.008,0.016l0.007,0.014l0.008,0.015l0.009,0.015l0.009,0.015l0.008,0.014l0.009,0.014l0.01,0.014l0.01,0.015l0.009,0.013l0.011,0.014l0.01,0.014l0.011,0.013l0.011,0.013l0.01,0.013l0.012,0.012l0.011,0.013l0.012,0.013l0.012,0.012l0.012,0.012l0.012,0.012l0.013,0.011l0.013,0.012l0.012,0.011l0.013,0.011l0.014,0.01l0.013,0.011l0.014,0.01l0.013,0.01l0.014,0.01l0.015,0.01l0.014,0.009l0.014,0.009l0.015,0.009l0.014,0.008l0.015,0.009l0.015,0.008l0.015,0.007l0.015,0.008l0.016,0.007l0.016,0.008l0.015,0.006l0.015,0.007l0.017,0.006l0.016,0.006l0.016,0.006l0.016,0.005l0.016,0.005l0.017,0.005l0.016,0.004l0.017,0.005l0.017,0.004l0.017,0.004l0.017,0.003l0.018,0.003l0.017,0.003l0.018,0.003l0.017,0.002l0.018,0.002l0.018,0.002l0.028,0.002l0.024,0.001l0.035,0.002l0.023,0.001l0.023,0l0.023,0l0.022,-0.001l0.023,-0.001l0.022,-0.002l0.021,-0.002l0.022,-0.003l0.022,-0.003l0.021,-0.003l0.021,-0.004l0.021,-0.005l0.021,-0.005l0.021,-0.005l0.02,-0.006l0.021,-0.006l0.02,-0.007l0.02,-0.007l0.02,-0.008l0.02,-0.008l0.02,-0.008l0.019,-0.009l0.019,-0.01l0.019,-0.009l0.019,-0.01l0.019,-0.011l0.018,-0.011l0.018,-0.011l0.019,-0.012l0.017,-0.012l0.611,-0.436l0.851,0.051l0.13,0.006l0.131,0.005l0.13,0.003l0.131,0.001l0.131,-0.001l0.13,-0.002l0.131,-0.004l0.131,-0.006l0.13,-0.007l0.13,-0.009l0.131,-0.011l0.13,-0.012l0.13,-0.014l0.13,-0.016l0.129,-0.018l0.13,-0.019l0.129,-0.021l0.129,-0.022l0.129,-0.025l0.128,-0.026l0.128,-0.027l0.128,-0.03l0.127,-0.031l0.128,-0.032l0.126,-0.035l0.127,-0.036l0.126,-0.038l0.125,-0.039l0.125,-0.041l0.125,-0.043l0.124,-0.045l0.124,-0.046l0.123,-0.048l0.123,-0.049l0.122,-0.052l0.121,-0.052l0.121,-0.055l0.121,-0.056l0.119,-0.058l0.12,-0.06l0.118,-0.062l0.118,-0.063l0.117,-0.064l0.117,-0.067l0.115,-0.068l0.116,-0.07l0.114,-0.071l0.113,-0.074l0.113,-0.075l0.112,-0.076l0.111,-0.079l0.111,-0.08l0.109,-0.081l0.109,-0.084l0.108,-0.085l0.107,-0.087l0.106,-0.089l0.105,-0.09l0.105,-0.092l0.103,-0.094l0.103,-0.096l0.101,-0.097l0.105,-0.104l2.819,-2.819l0.104,-0.105l0.097,-0.102l0.096,-0.102l0.094,-0.103l0.092,-0.105l0.09,-0.105l0.089,-0.106l0.087,-0.107l0.085,-0.108l0.084,-0.109l0.081,-0.109l0.081,-0.111l0.078,-0.111l0.076,-0.112l0.075,-0.113l0.074,-0.113l0.071,-0.115l0.07,-0.115l0.068,-0.116l0.067,-0.116l0.064,-0.117l0.064,-0.118l0.061,-0.119l0.06,-0.119l0.058,-0.119l0.056,-0.121l0.055,-0.121l0.053,-0.121l0.051,-0.123l0.05,-0.122l0.047,-0.123l0.046,-0.124l0.045,-0.124l0.043,-0.125l0.041,-0.125l0.04,-0.126l0.037,-0.125l0.036,-0.127l0.035,-0.126l0.033,-0.128l0.031,-0.127l0.029,-0.128l0.028,-0.128l0.025,-0.129l0.025,-0.128l0.022,-0.129l0.021,-0.129l0.019,-0.13l0.018,-0.13l0.016,-0.129l0.014,-0.13l0.012,-0.13l0.011,-0.131l0.009,-0.13l0.007,-0.131l0.006,-0.13l0.004,-0.131l0.002,-0.13l0.001,-0.131l-0.001,-0.131l-0.003,-0.13l-0.005,-0.131l-0.006,-0.13l-0.051,-0.851l0.436,-0.611l0.012,-0.017l0.012,-0.019l0.011,-0.018l0.011,-0.018l0.01,-0.018l0.011,-0.019l0.01,-0.02l0.009,-0.019l0.009,-0.019l0.008,-0.02l0.008,-0.02l0.008,-0.019l0.007,-0.021l0.007,-0.02l0.006,-0.021l0.006,-0.02l0.005,-0.021l0.005,-0.021l0.005,-0.021l0.004,-0.022l0.003,-0.02l0.003,-0.022l0.003,-0.022l0.002,-0.022l0.002,-0.022l0.001,-0.021l0.001,-0.024l0,-0.022l0,-0.023l-0.001,-0.023l-0.002,-0.035l-0.001,-0.024l-0.002,-0.028l-0.002,-0.018l-0.002,-0.018l-0.002,-0.018l-0.003,-0.017l-0.003,-0.017l-0.003,-0.017l-0.003,-0.018l-0.004,-0.018l-0.004,-0.016l-0.004,-0.016l-0.005,-0.017l-0.005,-0.017l-0.005,-0.016l-0.005,-0.016l-0.006,-0.016l-0.006,-0.017l-0.006,-0.015l-0.007,-0.016l-0.007,-0.016l-0.007,-0.015l-0.007,-0.016l-0.007,-0.015l-0.008,-0.015l-0.008,-0.015l-0.009,-0.015l-0.008,-0.014l-0.009,-0.015l-0.009,-0.015l-0.009,-0.014l-0.01,-0.014l-0.009,-0.013l-0.011,-0.014l-0.01,-0.014l-0.011,-0.014l-0.01,-0.013l-0.011,-0.012l-0.011,-0.014l-0.012,-0.013l-0.011,-0.012l-0.012,-0.012l-0.012,-0.012l-0.012,-0.012l-0.013,-0.012l-0.012,-0.011l-0.013,-0.012l-0.013,-0.011l-0.013,-0.01l-0.013,-0.011l-0.014,-0.01l-0.014,-0.011l-0.014,-0.01l-0.013,-0.009l-0.015,-0.009l-0.014,-0.01l-0.015,-0.009l-0.014,-0.008l-0.015,-0.009l-0.015,-0.008l-0.015,-0.008l-0.015,-0.007l-0.015,-0.008l-0.016,-0.007l-0.686,-0.302l-0.372,-0.733l-0.045,-0.087l-0.046,-0.087l-0.047,-0.086l-0.049,-0.086l-0.048,-0.085l-0.05,-0.085l-0.051,-0.085l-0.051,-0.084l-0.053,-0.084l-0.053,-0.084l-0.055,-0.083l-0.055,-0.083l-0.056,-0.082l-0.057,-0.082l-0.058,-0.081l-0.059,-0.081l-0.06,-0.081l-0.06,-0.08l-0.062,-0.079l-0.063,-0.079l-0.063,-0.079l-0.065,-0.078l-0.065,-0.078l-0.066,-0.077l-0.068,-0.077l-0.068,-0.076l-0.069,-0.076l-0.07,-0.075l-0.071,-0.075l-0.072,-0.074l-0.07,-0.071l-0.114,-0.112l-0.111,-0.108l-0.113,-0.105l-0.114,-0.104l-0.115,-0.103l-0.115,-0.1l-0.117,-0.099l-0.117,-0.097l-0.119,-0.095l-0.119,-0.094l-0.12,-0.092l-0.121,-0.09l-0.122,-0.088l-0.122,-0.087l-0.124,-0.085l-0.124,-0.083l-0.125,-0.081l-0.126,-0.08l-0.126,-0.078l-0.128,-0.076l-0.128,-0.075l-0.129,-0.073l-0.129,-0.071l-0.13,-0.069l-0.131,-0.068l-0.131,-0.066l-0.132,-0.064l-0.133,-0.063l-0.133,-0.061l-0.134,-0.059l-0.135,-0.057l-0.135,-0.056l-0.135,-0.054l-0.136,-0.052l-0.137,-0.051l-0.137,-0.049l-0.138,-0.047l-0.138,-0.045l-0.138,-0.044l-0.139,-0.042l-0.139,-0.04l-0.14,-0.039l-0.14,-0.037l-0.14,-0.035l-0.141,-0.033l-0.141,-0.032l-0.142,-0.03l-0.142,-0.029l-0.142,-0.026l-0.142,-0.025l-0.142,-0.023l-0.143,-0.022l-0.143,-0.019l-0.143,-0.018l-0.143,-0.017l-0.144,-0.014l-0.144,-0.013l-0.143,-0.011l-0.144,-0.01l-0.144,-0.008l-0.144,-0.006l-0.144,-0.004l-0.144,-0.003l-0.144,0l-0.144,0Z"/></g><g id="emoji"><g><path d="M9.77,28.388c-1.33,-0.583 -2.575,-1.419 -3.664,-2.507c0,0 0,0 0,0c-5.467,-5.467 -5.467,-14.332 0,-19.799c0,0 0,0 0,0c5.468,-5.467 14.332,-5.467 19.799,0c0,0 0,0 0,0c1.089,1.088 1.924,2.334 2.507,3.664c-0.124,-0.032 0.617,5.67 0.994,5.404c-0.139,2.874 -1.306,5.708 -3.501,7.903c-0.937,0.937 -1.891,1.891 -2.828,2.828c-2.195,2.195 -5.029,3.362 -7.903,3.501c0.266,-0.377 -5.436,-1.118 -5.404,-0.994Z" style="fill:#fbc546;"/><path d="M9.77,28.388c-0.032,-0.124 -0.056,-0.251 -0.071,-0.381c-0.314,-2.615 -0.764,-6.369 -0.764,-6.369c0,0 3.27,1.963 5.363,3.218c1.035,0.621 1.597,1.802 1.426,2.997c-0.011,0.074 -0.021,0.149 -0.032,0.224c-0.069,0.485 -0.252,0.928 -0.518,1.305c-1.837,0.088 -3.691,-0.243 -5.404,-0.994Zm19.636,-13.238c-0.377,0.266 -0.82,0.449 -1.305,0.518c-0.075,0.011 -0.15,0.021 -0.224,0.032c-1.195,0.171 -2.376,-0.391 -2.997,-1.426c-1.255,-2.093 -3.217,-5.363 -3.217,-5.363c0,0 3.753,0.45 6.368,0.764c0.13,0.015 0.257,0.039 0.381,0.071c0.751,1.713 1.083,3.567 0.994,5.404Z" style="fill:#e59a10;"/></g><g><path d="M16.615,25.381c-2.23,0.462 -4.538,0.258 -6.383,-0.798l14.375,-14.375c1.057,1.845 1.26,4.153 0.798,6.383c-1.703,-0.124 -8.914,7.087 -8.79,8.79Z" style="fill:#722245;"/><path d="M16.615,25.381c-0.124,-1.703 0.482,-3.42 1.742,-4.679c0.77,-0.771 1.598,-1.599 2.369,-2.37c1.259,-1.259 2.976,-1.865 4.679,-1.741c-0.447,2.153 -1.514,4.234 -3.035,5.755c-1.521,1.52 -3.602,2.588 -5.755,3.035Z" style="fill:#ca3b8f;"/></g><g><path d="M20.955,8.203c0,0 3.754,0.451 6.369,0.765c1.432,0.172 2.54,1.339 2.636,2.779c0.001,0.015 0.002,0.03 0.003,0.044c0.104,1.566 -1.016,2.948 -2.569,3.17c-0.075,0.011 -0.15,0.021 -0.224,0.032c-1.195,0.17 -2.376,-0.392 -2.997,-1.427c-1.255,-2.092 -3.218,-5.363 -3.218,-5.363Z" style="fill:#1bb0e6;"/><path d="M8.228,20.931c0,0 0.45,3.754 0.764,6.369c0.172,1.432 1.339,2.54 2.779,2.636c0.015,0.001 0.03,0.002 0.045,0.003c1.565,0.104 2.947,-1.016 3.169,-2.569c0.011,-0.075 0.021,-0.15 0.032,-0.224c0.171,-1.195 -0.391,-2.376 -1.426,-2.997c-2.093,-1.255 -5.363,-3.218 -5.363,-3.218Z" style="fill:#1bb0e6;"/></g><g><path d="M18.066,9.767c0,0 1.351,-0.675 2.302,-1.15c0.243,-0.122 0.525,-0.142 0.783,-0.056c0.257,0.086 0.471,0.271 0.592,0.514c0,0 0,0.001 0.001,0.001c0.115,0.231 0.134,0.498 0.052,0.743c-0.081,0.245 -0.257,0.448 -0.488,0.564c-1.594,0.797 -4.819,2.409 -4.819,2.409l-0.423,-0.261c0,0 0,-4.697 0,-6.802c0,-0.553 0.448,-1 1,-1c0.553,0 1,0.447 1,1c0,1.469 0,4.038 0,4.038Z" style="fill-rule:nonzero;"/><path d="M12.816,16.465c0,0 -1.582,3.164 -2.387,4.773c-0.121,0.243 -0.334,0.428 -0.592,0.514c-0.258,0.086 -0.54,0.066 -0.783,-0.055c0,0 0,-0.001 -0.001,-0.001c-0.231,-0.115 -0.406,-0.318 -0.488,-0.563c-0.082,-0.245 -0.063,-0.512 0.053,-0.743c0.476,-0.954 1.173,-2.348 1.173,-2.348c0,0 -2.569,0 -4.038,0c-0.266,0 -0.52,-0.105 -0.707,-0.293c-0.188,-0.187 -0.293,-0.442 -0.293,-0.707c0,-0.552 0.447,-1 1,-1c2.105,0 6.802,0 6.802,0l0.261,0.423Z" style="fill-rule:nonzero;"/></g></g></g></svg>