<?xml version="1.0" encoding="UTF-8" standalone="no"?>
<!DOCTYPE svg PUBLIC "-//W3C//DTD SVG 1.1//EN" "http://www.w3.org/Graphics/SVG/1.1/DTD/svg11.dtd">
<svg width="100%" height="100%" viewBox="0 0 32 32" version="1.1" xmlns="http://www.w3.org/2000/svg" xmlns:xlink="http://www.w3.org/1999/xlink" xml:space="preserve" xmlns:serif="http://www.serif.com/" style="fill-rule:evenodd;clip-rule:evenodd;stroke-linejoin:round;stroke-miterlimit:2;">
    <rect id="stick_out_tongue" x="0" y="0" width="32" height="32" style="fill:none;"/>
    <clipPath id="_clip1">
        <rect x="0" y="0" width="32" height="32"/>
    </clipPath>
    <g clip-path="url(#_clip1)">
        <g id="outline">
            <path d="M16,0c4.243,0 8.313,1.686 11.314,4.686c3,3.001 4.686,7.071 4.686,11.314l0,2c0,7.732 -6.268,14 -14,14c-1.325,0 -2.675,0 -4,0c-7.732,0 -14,-6.268 -14,-14l0,-2c0,-8.837 7.163,-16 16,-16l0,0Z"/>
        </g>
        <g id="emoji">
            <path d="M30,16c0,-3.713 -1.475,-7.274 -4.101,-9.899c-2.625,-2.626 -6.186,-4.101 -9.899,-4.101l0,0c-7.732,0 -14,6.268 -14,14l0,2c0,6.627 5.373,12 12,12l4,0c6.627,0 12,-5.373 12,-12l0,-2Z" style="fill:#fbc546;"/>
            <g>
                <path d="M9.5,16.842c1.933,0 3.5,-1.567 3.5,-3.5l0,-2c0,-1.933 -1.567,-3.5 -3.5,-3.5l-0.002,0c-0.928,0 -1.817,0.369 -2.473,1.025c-0.656,0.656 -1.025,1.546 -1.025,2.473c0,0.658 0,1.345 0,2.002c0,1.933 1.567,3.5 3.5,3.5l0,0Z" style="fill:#fff;"/>
                <path d="M8,10.842c0,-0.53 0.211,-1.039 0.586,-1.414c0.375,-0.375 0.884,-0.586 1.414,-0.586c0.53,0 1.039,0.211 1.414,0.586c0.375,0.375 0.586,0.884 0.586,1.414c0,0.936 0,2.048 0,2.984c0,0.53 -0.211,1.039 -0.586,1.414c-0.375,0.375 -0.884,0.586 -1.414,0.586c-0.53,0 -1.039,-0.211 -1.414,-0.586c-0.375,-0.375 -0.586,-0.884 -0.586,-1.414c0,-0.936 0,-2.048 0,-2.984Z"/>
            </g>
            <g>
                <path d="M22.5,16.842c-1.933,0 -3.5,-1.567 -3.5,-3.5l0,-2c0,-1.933 1.567,-3.5 3.5,-3.5l0.002,0c0.928,0 1.817,0.369 2.473,1.025c0.656,0.656 1.025,1.546 1.025,2.473c0,0.658 0,1.345 0,2.002c0,1.933 -1.567,3.5 -3.5,3.5l0,0Z" style="fill:#fff;"/>
                <path d="M24,10.842c0,-0.53 -0.211,-1.039 -0.586,-1.414c-0.375,-0.375 -0.884,-0.586 -1.414,-0.586c-0.53,0 -1.039,0.211 -1.414,0.586c-0.375,0.375 -0.586,0.884 -0.586,1.414c0,0.936 0,2.048 0,2.984c0,0.53 0.211,1.039 0.586,1.414c0.375,0.375 0.884,0.586 1.414,0.586c0.53,0 1.039,-0.211 1.414,-0.586c0.375,-0.375 0.586,-0.884 0.586,-1.414c0,-0.936 0,-2.048 0,-2.984Z"/>
            </g>
            <g>
                <path d="M9.354,23.469c-1.583,-1.409 -2.715,-3.314 -3.153,-5.469l19.598,0c-0.438,2.155 -1.57,4.06 -3.153,5.469l-13.292,0Z" style="fill:#722245;"/>
                <path d="M9.354,23.469l0.755,-1.133c0.237,-0.355 0.542,-0.649 0.891,-0.87l2,2.814c0,0.376 -0.231,0.741 -0.495,1.091c-1.169,-0.436 -2.236,-1.086 -3.151,-1.902Zm10.141,1.902c-0.264,-0.35 -0.495,-0.715 -0.495,-1.091l2,-2.814c0.349,0.221 0.654,0.515 0.891,0.87l0.755,1.133c-0.915,0.816 -1.982,1.466 -3.151,1.902Z" style="fill:#a1256c;"/>
                <path d="M19.394,21c0.578,0 1.133,0.166 1.606,0.466l0,1.814l-10,0l0,-1.814c0.473,-0.3 1.028,-0.466 1.606,-0.466l6.788,0Z" style="fill:#dd34a2;"/>
                <path d="M21,22l-10,0l0,2.28c0,2.607 2.113,4.72 4.72,4.72c0.186,0 0.374,0 0.56,0c2.607,0 4.72,-2.113 4.72,-4.72c0,-1.261 0,-2.28 0,-2.28Z" style="fill:#dd34a2;"/>
            </g>
        </g>
    </g>
</svg>
