<?xml version="1.0" encoding="UTF-8" standalone="no"?><!DOCTYPE svg PUBLIC "-//W3C//DTD SVG 1.1//EN" "http://www.w3.org/Graphics/SVG/1.1/DTD/svg11.dtd"><svg width="100%" height="100%" viewBox="0 0 32 32" version="1.1" xmlns="http://www.w3.org/2000/svg" xmlns:xlink="http://www.w3.org/1999/xlink" xml:space="preserve" xmlns:serif="http://www.serif.com/" style="fill-rule:evenodd;clip-rule:evenodd;stroke-linejoin:round;stroke-miterlimit:1.41421;"><rect id="stick_out_tongue" x="0" y="0" width="32" height="32" style="fill:none;"/><clipPath id="_clip1"><rect x="0" y="0" width="32" height="32"/></clipPath><g clip-path="url(#_clip1)"><g id="outline"><path d="M16.199,0.001l0.198,0.004l0.198,0.006l0.198,0.009l0.198,0.011l0.197,0.013l0.197,0.016l0.196,0.018l0.196,0.021l0.196,0.023l0.195,0.025l0.195,0.028l0.194,0.031l0.193,0.032l0.194,0.035l0.192,0.037l0.192,0.04l0.191,0.042l0.191,0.044l0.19,0.047l0.189,0.048l0.189,0.051l0.188,0.054l0.187,0.056l0.187,0.058l0.186,0.06l0.185,0.062l0.184,0.065l0.183,0.067l0.183,0.069l0.181,0.071l0.181,0.074l0.18,0.076l0.179,0.078l0.178,0.08l0.176,0.082l0.177,0.085l0.174,0.086l0.174,0.089l0.173,0.091l0.172,0.093l0.171,0.095l0.169,0.097l0.169,0.1l0.167,0.101l0.166,0.104l0.165,0.105l0.164,0.108l0.162,0.11l0.161,0.112l0.16,0.114l0.159,0.116l0.157,0.118l0.156,0.12l0.155,0.121l0.153,0.124l0.152,0.126l0.15,0.128l0.149,0.13l0.148,0.132l0.146,0.134l0.144,0.136l0.143,0.138l0.142,0.139l0.139,0.142l0.138,0.143l0.136,0.144l0.134,0.146l0.132,0.148l0.13,0.149l0.128,0.15l0.125,0.152l0.125,0.153l0.122,0.155l0.119,0.156l0.118,0.157l0.116,0.159l0.114,0.16l0.112,0.161l0.11,0.162l0.108,0.164l0.105,0.165l0.104,0.166l0.101,0.167l0.1,0.169l0.097,0.169l0.095,0.171l0.093,0.172l0.091,0.173l0.089,0.174l0.086,0.175l0.085,0.175l0.082,0.177l0.08,0.178l0.078,0.179l0.076,0.18l0.074,0.181l0.071,0.181l0.069,0.183l0.067,0.183l0.065,0.184l0.062,0.185l0.06,0.186l0.058,0.186l0.056,0.188l0.054,0.188l0.051,0.189l0.048,0.189l0.047,0.19l0.044,0.191l0.042,0.191l0.04,0.192l0.037,0.192l0.035,0.194l0.032,0.193l0.031,0.194l0.028,0.195l0.025,0.195l0.023,0.196l0.021,0.195l0.018,0.197l0.016,0.197l0.013,0.197l0.011,0.198l0.009,0.198l0.006,0.198l0.004,0.198l0.001,0.193l0,2.012l-0.001,0.175l-0.004,0.179l-0.005,0.18l-0.008,0.179l-0.01,0.178l-0.013,0.178l-0.014,0.177l-0.017,0.177l-0.019,0.176l-0.021,0.175l-0.024,0.175l-0.025,0.175l-0.028,0.173l-0.03,0.173l-0.031,0.172l-0.034,0.171l-0.036,0.171l-0.039,0.17l-0.04,0.169l-0.042,0.168l-0.044,0.168l-0.046,0.166l-0.048,0.166l-0.051,0.165l-0.052,0.165l-0.054,0.163l-0.056,0.162l-0.058,0.162l-0.06,0.16l-0.062,0.16l-0.064,0.159l-0.065,0.157l-0.067,0.157l-0.07,0.155l-0.071,0.155l-0.073,0.154l-0.074,0.152l-0.077,0.152l-0.078,0.15l-0.08,0.149l-0.082,0.149l-0.083,0.147l-0.085,0.146l-0.087,0.145l-0.089,0.144l-0.09,0.142l-0.092,0.142l-0.093,0.14l-0.095,0.139l-0.097,0.138l-0.098,0.136l-0.1,0.136l-0.102,0.134l-0.103,0.132l-0.105,0.132l-0.106,0.13l-0.107,0.129l-0.109,0.127l-0.111,0.127l-0.112,0.125l-0.114,0.123l-0.115,0.123l-0.116,0.12l-0.118,0.119l-0.12,0.119l-0.121,0.116l-0.122,0.115l-0.123,0.114l-0.125,0.112l-0.126,0.11l-0.128,0.11l-0.129,0.107l-0.13,0.106l-0.132,0.105l-0.132,0.103l-0.134,0.102l-0.136,0.1l-0.136,0.098l-0.138,0.097l-0.139,0.095l-0.14,0.093l-0.142,0.092l-0.142,0.091l-0.144,0.088l-0.145,0.087l-0.146,0.085l-0.147,0.083l-0.148,0.082l-0.15,0.08l-0.15,0.078l-0.152,0.077l-0.152,0.074l-0.154,0.073l-0.155,0.071l-0.155,0.07l-0.157,0.067l-0.158,0.066l-0.158,0.063l-0.16,0.062l-0.16,0.06l-0.162,0.058l-0.162,0.056l-0.163,0.054l-0.165,0.052l-0.165,0.05l-0.165,0.049l-0.167,0.046l-0.168,0.044l-0.168,0.042l-0.169,0.04l-0.17,0.039l-0.171,0.036l-0.171,0.034l-0.172,0.031l-0.173,0.03l-0.173,0.028l-0.175,0.025l-0.174,0.024l-0.176,0.021l-0.176,0.019l-0.177,0.017l-0.177,0.014l-0.178,0.013l-0.178,0.01l-0.179,0.008l-0.18,0.005l-0.18,0.004l-0.174,0.001l-4.012,0l-0.174,-0.001l-0.18,-0.004l-0.18,-0.005l-0.179,-0.008l-0.178,-0.01l-0.178,-0.013l-0.177,-0.014l-0.177,-0.017l-0.176,-0.019l-0.176,-0.021l-0.174,-0.024l-0.175,-0.025l-0.173,-0.028l-0.173,-0.03l-0.172,-0.031l-0.171,-0.034l-0.171,-0.036l-0.17,-0.039l-0.169,-0.04l-0.168,-0.042l-0.168,-0.044l-0.167,-0.046l-0.165,-0.049l-0.165,-0.05l-0.165,-0.052l-0.163,-0.054l-0.162,-0.056l-0.162,-0.058l-0.16,-0.06l-0.16,-0.062l-0.158,-0.063l-0.158,-0.066l-0.157,-0.067l-0.155,-0.07l-0.155,-0.071l-0.154,-0.073l-0.152,-0.074l-0.152,-0.077l-0.15,-0.078l-0.15,-0.08l-0.148,-0.082l-0.147,-0.083l-0.146,-0.085l-0.145,-0.087l-0.144,-0.088l-0.142,-0.091l-0.142,-0.092l-0.14,-0.093l-0.139,-0.095l-0.138,-0.097l-0.136,-0.098l-0.136,-0.1l-0.134,-0.102l-0.132,-0.103l-0.132,-0.105l-0.13,-0.106l-0.129,-0.107l-0.128,-0.11l-0.126,-0.11l-0.125,-0.112l-0.123,-0.114l-0.122,-0.115l-0.121,-0.116l-0.12,-0.119l-0.118,-0.119l-0.116,-0.12l-0.115,-0.123l-0.114,-0.123l-0.112,-0.125l-0.111,-0.127l-0.109,-0.127l-0.107,-0.129l-0.106,-0.13l-0.105,-0.132l-0.103,-0.132l-0.102,-0.134l-0.1,-0.136l-0.098,-0.136l-0.097,-0.138l-0.095,-0.139l-0.093,-0.14l-0.092,-0.142l-0.09,-0.142l-0.089,-0.144l-0.087,-0.145l-0.085,-0.146l-0.083,-0.147l-0.082,-0.149l-0.08,-0.149l-0.078,-0.15l-0.077,-0.152l-0.074,-0.152l-0.073,-0.154l-0.071,-0.155l-0.07,-0.155l-0.067,-0.157l-0.065,-0.157l-0.064,-0.159l-0.062,-0.16l-0.06,-0.16l-0.058,-0.162l-0.056,-0.162l-0.054,-0.163l-0.052,-0.165l-0.051,-0.165l-0.048,-0.166l-0.046,-0.166l-0.044,-0.168l-0.042,-0.168l-0.04,-0.169l-0.039,-0.17l-0.036,-0.171l-0.034,-0.171l-0.031,-0.172l-0.03,-0.173l-0.028,-0.173l-0.025,-0.175l-0.024,-0.175l-0.021,-0.175l-0.019,-0.176l-0.017,-0.177l-0.014,-0.177l-0.013,-0.178l-0.01,-0.178l-0.008,-0.179l-0.005,-0.18l-0.004,-0.179l-0.001,-0.175l0,-2.012l0.001,-0.2l0.004,-0.206l0.007,-0.205l0.009,-0.205l0.011,-0.204l0.015,-0.203l0.016,-0.203l0.019,-0.202l0.022,-0.201l0.024,-0.2l0.027,-0.2l0.029,-0.199l0.032,-0.198l0.034,-0.198l0.036,-0.197l0.039,-0.195l0.041,-0.195l0.044,-0.195l0.046,-0.193l0.048,-0.192l0.05,-0.192l0.053,-0.19l0.055,-0.19l0.058,-0.188l0.059,-0.188l0.062,-0.186l0.064,-0.186l0.066,-0.184l0.069,-0.184l0.07,-0.182l0.073,-0.181l0.075,-0.181l0.077,-0.179l0.079,-0.178l0.081,-0.176l0.084,-0.176l0.085,-0.174l0.088,-0.173l0.089,-0.172l0.091,-0.171l0.094,-0.169l0.095,-0.169l0.097,-0.166l0.1,-0.166l0.101,-0.164l0.103,-0.163l0.105,-0.162l0.107,-0.16l0.108,-0.159l0.111,-0.157l0.112,-0.157l0.115,-0.154l0.116,-0.153l0.117,-0.152l0.12,-0.15l0.121,-0.149l0.123,-0.148l0.125,-0.146l0.127,-0.144l0.128,-0.142l0.13,-0.142l0.131,-0.139l0.134,-0.138l0.134,-0.137l0.137,-0.135l0.138,-0.133l0.139,-0.131l0.142,-0.13l0.142,-0.128l0.145,-0.127l0.145,-0.125l0.148,-0.123l0.148,-0.121l0.151,-0.12l0.152,-0.117l0.153,-0.116l0.154,-0.115l0.157,-0.112l0.157,-0.111l0.159,-0.108l0.16,-0.107l0.162,-0.105l0.163,-0.103l0.164,-0.101l0.166,-0.1l0.167,-0.097l0.168,-0.095l0.169,-0.094l0.171,-0.091l0.172,-0.09l0.173,-0.087l0.174,-0.085l0.176,-0.083l0.177,-0.082l0.177,-0.079l0.179,-0.077l0.181,-0.075l0.181,-0.073l0.182,-0.07l0.184,-0.069l0.184,-0.066l0.186,-0.064l0.186,-0.062l0.188,-0.059l0.188,-0.058l0.19,-0.055l0.19,-0.053l0.192,-0.05l0.192,-0.048l0.193,-0.046l0.195,-0.044l0.195,-0.041l0.195,-0.039l0.197,-0.036l0.198,-0.034l0.198,-0.032l0.199,-0.029l0.2,-0.027l0.2,-0.024l0.201,-0.022l0.202,-0.019l0.203,-0.016l0.203,-0.015l0.204,-0.011l0.205,-0.009l0.205,-0.007l0.206,-0.004l0.206,-0.001l0.199,0.001Zm-0.355,4l-0.155,0.003l-0.154,0.005l-0.154,0.007l-0.154,0.008l-0.152,0.011l-0.153,0.013l-0.151,0.014l-0.151,0.016l-0.151,0.019l-0.15,0.02l-0.149,0.021l-0.149,0.024l-0.148,0.026l-0.147,0.027l-0.147,0.029l-0.146,0.031l-0.145,0.032l-0.145,0.035l-0.143,0.036l-0.144,0.038l-0.142,0.039l-0.142,0.041l-0.141,0.043l-0.141,0.045l-0.139,0.046l-0.139,0.048l-0.138,0.05l-0.137,0.051l-0.137,0.053l-0.136,0.054l-0.134,0.056l-0.134,0.058l-0.134,0.059l-0.132,0.061l-0.131,0.062l-0.131,0.064l-0.13,0.066l-0.129,0.067l-0.127,0.068l-0.128,0.07l-0.126,0.072l-0.125,0.073l-0.124,0.074l-0.123,0.076l-0.122,0.077l-0.122,0.079l-0.12,0.08l-0.119,0.082l-0.118,0.083l-0.118,0.084l-0.116,0.086l-0.115,0.087l-0.114,0.089l-0.113,0.089l-0.111,0.091l-0.111,0.093l-0.109,0.094l-0.109,0.095l-0.107,0.096l-0.106,0.098l-0.105,0.098l-0.104,0.1l-0.102,0.102l-0.102,0.102l-0.1,0.104l-0.098,0.105l-0.098,0.106l-0.096,0.107l-0.095,0.109l-0.094,0.109l-0.093,0.111l-0.091,0.111l-0.089,0.113l-0.089,0.114l-0.087,0.115l-0.086,0.117l-0.084,0.117l-0.083,0.118l-0.082,0.119l-0.08,0.12l-0.079,0.122l-0.077,0.122l-0.076,0.123l-0.074,0.124l-0.073,0.125l-0.072,0.126l-0.07,0.127l-0.068,0.128l-0.067,0.129l-0.066,0.13l-0.064,0.131l-0.062,0.131l-0.061,0.133l-0.059,0.133l-0.058,0.134l-0.056,0.135l-0.054,0.135l-0.053,0.137l-0.051,0.137l-0.05,0.138l-0.048,0.139l-0.046,0.139l-0.045,0.141l-0.043,0.141l-0.041,0.142l-0.039,0.142l-0.038,0.144l-0.036,0.143l-0.035,0.145l-0.032,0.145l-0.031,0.146l-0.029,0.147l-0.027,0.148l-0.026,0.147l-0.024,0.149l-0.021,0.149l-0.02,0.15l-0.019,0.151l-0.016,0.151l-0.014,0.151l-0.013,0.153l-0.011,0.152l-0.008,0.154l-0.007,0.154l-0.005,0.154l-0.003,0.155l-0.001,0.162l0,1.988l0.001,0.136l0.002,0.129l0.004,0.129l0.006,0.128l0.007,0.128l0.009,0.128l0.011,0.127l0.012,0.126l0.013,0.126l0.016,0.125l0.016,0.125l0.018,0.124l0.02,0.124l0.021,0.124l0.023,0.122l0.024,0.122l0.026,0.122l0.027,0.121l0.029,0.121l0.03,0.12l0.031,0.119l0.033,0.119l0.035,0.118l0.035,0.118l0.037,0.116l0.039,0.117l0.04,0.115l0.041,0.115l0.043,0.115l0.044,0.113l0.045,0.113l0.047,0.113l0.048,0.111l0.049,0.111l0.051,0.111l0.052,0.109l0.053,0.109l0.055,0.108l0.056,0.108l0.057,0.106l0.058,0.106l0.06,0.105l0.061,0.105l0.062,0.103l0.063,0.103l0.064,0.102l0.066,0.1l0.067,0.101l0.068,0.099l0.069,0.099l0.07,0.097l0.072,0.097l0.072,0.096l0.074,0.095l0.075,0.094l0.076,0.093l0.077,0.092l0.078,0.092l0.079,0.09l0.08,0.089l0.082,0.089l0.082,0.087l0.084,0.087l0.084,0.085l0.085,0.084l0.087,0.084l0.087,0.082l0.089,0.082l0.089,0.08l0.09,0.079l0.092,0.078l0.092,0.077l0.093,0.076l0.094,0.075l0.095,0.074l0.096,0.072l0.097,0.072l0.097,0.07l0.099,0.069l0.099,0.068l0.101,0.067l0.101,0.066l0.101,0.064l0.103,0.063l0.104,0.063l0.104,0.06l0.105,0.06l0.106,0.058l0.106,0.057l0.108,0.056l0.108,0.055l0.109,0.053l0.109,0.052l0.111,0.051l0.11,0.049l0.112,0.048l0.113,0.047l0.113,0.045l0.113,0.044l0.115,0.043l0.115,0.041l0.115,0.04l0.117,0.039l0.117,0.037l0.117,0.035l0.118,0.035l0.119,0.033l0.119,0.031l0.12,0.03l0.121,0.029l0.121,0.027l0.121,0.026l0.123,0.024l0.123,0.023l0.123,0.021l0.124,0.02l0.124,0.018l0.125,0.017l0.125,0.015l0.126,0.013l0.126,0.012l0.127,0.011l0.128,0.009l0.128,0.007l0.128,0.006l0.129,0.004l0.129,0.002l0.136,0.001l3.988,0l0.136,-0.001l0.129,-0.002l0.129,-0.004l0.128,-0.006l0.128,-0.007l0.128,-0.009l0.127,-0.011l0.126,-0.012l0.126,-0.013l0.125,-0.015l0.125,-0.017l0.124,-0.018l0.124,-0.02l0.123,-0.021l0.123,-0.023l0.123,-0.024l0.121,-0.026l0.121,-0.027l0.121,-0.029l0.12,-0.03l0.119,-0.031l0.119,-0.033l0.118,-0.035l0.117,-0.035l0.117,-0.037l0.117,-0.039l0.115,-0.04l0.115,-0.041l0.115,-0.043l0.113,-0.044l0.113,-0.045l0.113,-0.047l0.112,-0.048l0.11,-0.049l0.111,-0.051l0.109,-0.052l0.109,-0.053l0.108,-0.055l0.108,-0.056l0.106,-0.057l0.106,-0.058l0.105,-0.06l0.104,-0.06l0.104,-0.063l0.103,-0.063l0.101,-0.064l0.101,-0.066l0.101,-0.067l0.099,-0.068l0.099,-0.069l0.097,-0.07l0.097,-0.072l0.096,-0.072l0.095,-0.074l0.094,-0.075l0.093,-0.076l0.092,-0.077l0.092,-0.078l0.09,-0.079l0.089,-0.08l0.089,-0.082l0.087,-0.082l0.087,-0.084l0.085,-0.084l0.084,-0.085l0.084,-0.087l0.082,-0.087l0.082,-0.089l0.08,-0.089l0.079,-0.09l0.078,-0.092l0.077,-0.092l0.076,-0.093l0.075,-0.094l0.074,-0.095l0.072,-0.096l0.072,-0.097l0.07,-0.097l0.069,-0.099l0.068,-0.099l0.067,-0.101l0.066,-0.1l0.064,-0.102l0.063,-0.103l0.062,-0.103l0.061,-0.105l0.06,-0.105l0.058,-0.106l0.057,-0.106l0.056,-0.108l0.055,-0.108l0.053,-0.109l0.052,-0.109l0.051,-0.111l0.049,-0.111l0.048,-0.111l0.047,-0.113l0.045,-0.113l0.044,-0.113l0.043,-0.115l0.041,-0.115l0.04,-0.115l0.039,-0.117l0.037,-0.116l0.035,-0.118l0.035,-0.118l0.033,-0.119l0.031,-0.119l0.03,-0.12l0.029,-0.121l0.027,-0.121l0.026,-0.122l0.024,-0.122l0.023,-0.122l0.021,-0.124l0.02,-0.124l0.018,-0.124l0.016,-0.125l0.016,-0.125l0.013,-0.126l0.012,-0.126l0.011,-0.127l0.009,-0.128l0.007,-0.128l0.006,-0.128l0.004,-0.129l0.002,-0.129l0.001,-0.136l0,-1.988l-0.001,-0.155l-0.003,-0.149l-0.004,-0.149l-0.007,-0.148l-0.008,-0.148l-0.01,-0.148l-0.012,-0.148l-0.014,-0.147l-0.015,-0.147l-0.018,-0.147l-0.019,-0.146l-0.021,-0.146l-0.022,-0.146l-0.025,-0.145l-0.026,-0.144l-0.028,-0.145l-0.029,-0.144l-0.032,-0.143l-0.033,-0.143l-0.035,-0.143l-0.037,-0.142l-0.038,-0.142l-0.04,-0.14l-0.042,-0.141l-0.043,-0.14l-0.045,-0.139l-0.047,-0.139l-0.049,-0.138l-0.05,-0.137l-0.052,-0.137l-0.053,-0.137l-0.055,-0.135l-0.057,-0.135l-0.059,-0.134l-0.06,-0.134l-0.062,-0.132l-0.063,-0.132l-0.065,-0.132l-0.067,-0.13l-0.068,-0.13l-0.07,-0.129l-0.071,-0.128l-0.073,-0.127l-0.074,-0.126l-0.076,-0.126l-0.078,-0.124l-0.079,-0.124l-0.081,-0.123l-0.083,-0.121l-0.083,-0.121l-0.086,-0.12l-0.087,-0.119l-0.088,-0.118l-0.09,-0.117l-0.092,-0.116l-0.093,-0.115l-0.094,-0.114l-0.096,-0.113l-0.097,-0.111l-0.099,-0.111l-0.101,-0.11l-0.102,-0.108l-0.103,-0.107l-0.105,-0.106l-0.106,-0.105l-0.107,-0.103l-0.109,-0.102l-0.109,-0.101l-0.111,-0.099l-0.111,-0.097l-0.113,-0.096l-0.114,-0.094l-0.115,-0.093l-0.116,-0.092l-0.117,-0.09l-0.118,-0.088l-0.119,-0.087l-0.12,-0.086l-0.12,-0.083l-0.122,-0.083l-0.123,-0.081l-0.124,-0.079l-0.124,-0.078l-0.126,-0.076l-0.126,-0.074l-0.127,-0.073l-0.128,-0.071l-0.129,-0.07l-0.13,-0.068l-0.13,-0.067l-0.132,-0.065l-0.132,-0.063l-0.132,-0.062l-0.134,-0.06l-0.134,-0.059l-0.135,-0.057l-0.135,-0.055l-0.137,-0.053l-0.136,-0.052l-0.138,-0.05l-0.138,-0.049l-0.139,-0.047l-0.139,-0.045l-0.14,-0.043l-0.141,-0.042l-0.14,-0.04l-0.142,-0.038l-0.142,-0.037l-0.143,-0.035l-0.143,-0.033l-0.143,-0.032l-0.144,-0.029l-0.144,-0.028l-0.145,-0.026l-0.145,-0.025l-0.146,-0.022l-0.146,-0.021l-0.146,-0.019l-0.147,-0.018l-0.147,-0.015l-0.147,-0.014l-0.148,-0.012l-0.148,-0.01l-0.148,-0.008l-0.148,-0.007l-0.149,-0.004l-0.149,-0.003l-0.149,-0.001l-0.156,0.001Z"/></g><g id="emoji"><path d="M30,16c0,-3.713 -1.475,-7.274 -4.101,-9.899c-2.625,-2.626 -6.186,-4.101 -9.899,-4.101c0,0 0,0 0,0c-7.732,0 -14,6.268 -14,14c0,0.669 0,1.337 0,2c0,6.627 5.373,12 12,12c1.325,0 2.675,0 4,0c6.627,0 12,-5.373 12,-12c0,-0.663 0,-1.331 0,-2Z" style="fill:#fbc546;"/><g><path d="M9.354,23.469c-1.583,-1.409 -2.715,-3.314 -3.153,-5.469l19.598,0c-0.438,2.155 -1.57,4.06 -3.153,5.469l-13.292,0Z" style="fill:#722245;"/><path d="M9.354,23.469l0.755,-1.133c0.237,-0.355 0.542,-0.649 0.891,-0.87l2,2.814c0,0.376 -0.231,0.741 -0.495,1.091c-1.169,-0.436 -2.236,-1.086 -3.151,-1.902Zm10.141,1.902c-0.264,-0.35 -0.495,-0.715 -0.495,-1.091l2,-2.814c0.349,0.221 0.654,0.515 0.891,0.87l0.755,1.133c-0.915,0.816 -1.982,1.466 -3.151,1.902Z" style="fill:#a1256c;"/><path d="M19.394,21c0.578,0 1.133,0.166 1.606,0.466l0,1.814l-10,0l0,-1.814c0.473,-0.3 1.028,-0.466 1.606,-0.466l6.788,0Z" style="fill:#dd34a2;"/><path d="M21,22l-10,0c0,0 0,1.019 0,2.28c0,2.607 2.113,4.72 4.72,4.72c0.186,0 0.374,0 0.56,0c2.607,0 4.72,-2.113 4.72,-4.72c0,-1.261 0,-2.28 0,-2.28Z" style="fill:#dd34a2;"/></g><path d="M11,11.5c0,-0.828 -0.672,-1.5 -1.5,-1.5c-0.828,0 -1.5,0.672 -1.5,1.5c0,0.916 0,2.084 0,3c0,0.828 0.672,1.5 1.5,1.5c0.828,0 1.5,-0.672 1.5,-1.5c0,-0.916 0,-2.084 0,-3Z"/><path d="M24,11.5c0,-0.828 -0.672,-1.5 -1.5,-1.5c-0.828,0 -1.5,0.672 -1.5,1.5c0,0.916 0,2.084 0,3c0,0.828 0.672,1.5 1.5,1.5c0.828,0 1.5,-0.672 1.5,-1.5c0,-0.916 0,-2.084 0,-3Z"/></g></g></svg>