<?xml version="1.0" encoding="UTF-8" standalone="no"?><!DOCTYPE svg PUBLIC "-//W3C//DTD SVG 1.1//EN" "http://www.w3.org/Graphics/SVG/1.1/DTD/svg11.dtd"><svg width="100%" height="100%" viewBox="0 0 32 32" version="1.1" xmlns="http://www.w3.org/2000/svg" xmlns:xlink="http://www.w3.org/1999/xlink" xml:space="preserve" xmlns:serif="http://www.serif.com/" style="fill-rule:evenodd;clip-rule:evenodd;stroke-linejoin:round;stroke-miterlimit:1.41421;"><rect id="upside_down_smile" x="0" y="0" width="32" height="32" style="fill:none;"/><clipPath id="_clip1"><rect x="0" y="0" width="32" height="32"/></clipPath><g clip-path="url(#_clip1)"><g id="outline"><path d="M19.167,0.001l0.168,0.003l0.166,0.005l0.166,0.008l0.166,0.009l0.165,0.012l0.165,0.013l0.164,0.016l0.163,0.018l0.163,0.019l0.163,0.022l0.161,0.024l0.161,0.025l0.161,0.028l0.16,0.03l0.159,0.031l0.158,0.034l0.158,0.035l0.157,0.037l0.156,0.039l0.156,0.041l0.155,0.043l0.154,0.045l0.153,0.047l0.152,0.048l0.152,0.05l0.151,0.053l0.15,0.053l0.149,0.056l0.148,0.057l0.147,0.06l0.147,0.06l0.145,0.063l0.145,0.064l0.143,0.066l0.143,0.068l0.142,0.069l0.141,0.071l0.139,0.073l0.139,0.074l0.138,0.076l0.136,0.078l0.136,0.079l0.134,0.08l0.134,0.082l0.132,0.084l0.132,0.086l0.13,0.086l0.129,0.089l0.128,0.09l0.127,0.091l0.125,0.093l0.125,0.094l0.123,0.096l0.122,0.097l0.121,0.098l0.12,0.1l0.118,0.102l0.117,0.102l0.116,0.105l0.115,0.105l0.113,0.107l0.113,0.108l0.11,0.11l0.11,0.11l0.108,0.113l0.107,0.113l0.105,0.115l0.105,0.116l0.102,0.117l0.102,0.118l0.1,0.12l0.098,0.121l0.097,0.122l0.096,0.123l0.094,0.125l0.093,0.125l0.092,0.127l0.089,0.128l0.089,0.129l0.086,0.13l0.086,0.132l0.084,0.132l0.082,0.134l0.08,0.134l0.079,0.136l0.078,0.136l0.076,0.138l0.074,0.139l0.073,0.139l0.071,0.141l0.069,0.142l0.068,0.142l0.066,0.144l0.064,0.145l0.063,0.145l0.06,0.147l0.06,0.147l0.057,0.148l0.056,0.149l0.053,0.15l0.053,0.151l0.05,0.151l0.048,0.153l0.047,0.153l0.045,0.154l0.043,0.155l0.041,0.156l0.039,0.156l0.037,0.157l0.035,0.158l0.034,0.158l0.031,0.159l0.03,0.16l0.028,0.161l0.025,0.161l0.024,0.162l0.022,0.162l0.019,0.163l0.018,0.163l0.016,0.164l0.013,0.165l0.012,0.165l0.009,0.166l0.008,0.166l0.005,0.166l0.003,0.167l0.001,0.162l0,3.012l-0.001,0.193l-0.004,0.198l-0.006,0.198l-0.009,0.198l-0.011,0.198l-0.013,0.197l-0.016,0.197l-0.018,0.196l-0.021,0.196l-0.023,0.196l-0.025,0.195l-0.028,0.195l-0.031,0.194l-0.032,0.193l-0.035,0.194l-0.037,0.192l-0.04,0.192l-0.042,0.191l-0.044,0.191l-0.047,0.19l-0.048,0.189l-0.051,0.189l-0.054,0.188l-0.056,0.187l-0.058,0.187l-0.06,0.186l-0.062,0.185l-0.065,0.184l-0.067,0.183l-0.069,0.183l-0.071,0.181l-0.074,0.181l-0.076,0.18l-0.078,0.179l-0.08,0.178l-0.082,0.177l-0.085,0.175l-0.086,0.175l-0.089,0.174l-0.091,0.173l-0.093,0.172l-0.095,0.171l-0.097,0.169l-0.1,0.169l-0.101,0.167l-0.104,0.166l-0.105,0.165l-0.108,0.164l-0.11,0.162l-0.112,0.161l-0.114,0.16l-0.116,0.159l-0.118,0.157l-0.119,0.156l-0.122,0.155l-0.124,0.153l-0.126,0.152l-0.128,0.15l-0.13,0.149l-0.132,0.148l-0.134,0.146l-0.136,0.144l-0.138,0.143l-0.139,0.142l-0.142,0.139l-0.143,0.138l-0.144,0.136l-0.146,0.134l-0.148,0.132l-0.149,0.13l-0.15,0.128l-0.152,0.126l-0.153,0.124l-0.155,0.122l-0.156,0.119l-0.157,0.118l-0.159,0.116l-0.16,0.114l-0.161,0.112l-0.162,0.11l-0.164,0.108l-0.165,0.105l-0.166,0.104l-0.167,0.101l-0.169,0.1l-0.169,0.097l-0.171,0.095l-0.172,0.093l-0.173,0.091l-0.174,0.089l-0.175,0.086l-0.175,0.085l-0.177,0.082l-0.178,0.08l-0.179,0.078l-0.18,0.076l-0.181,0.074l-0.181,0.071l-0.183,0.069l-0.183,0.067l-0.184,0.065l-0.185,0.062l-0.186,0.06l-0.187,0.058l-0.187,0.056l-0.188,0.054l-0.189,0.051l-0.189,0.048l-0.19,0.047l-0.191,0.044l-0.191,0.042l-0.192,0.04l-0.192,0.037l-0.194,0.035l-0.193,0.032l-0.194,0.031l-0.195,0.028l-0.195,0.025l-0.196,0.023l-0.196,0.021l-0.196,0.018l-0.197,0.016l-0.197,0.013l-0.198,0.011l-0.198,0.009l-0.198,0.006l-0.198,0.004l-0.193,0.001l-0.012,0l-0.2,-0.001l-0.206,-0.004l-0.205,-0.007l-0.205,-0.009l-0.204,-0.011l-0.203,-0.015l-0.203,-0.016l-0.201,-0.019l-0.202,-0.022l-0.2,-0.024l-0.2,-0.027l-0.199,-0.029l-0.198,-0.032l-0.198,-0.034l-0.197,-0.036l-0.195,-0.039l-0.195,-0.041l-0.195,-0.044l-0.193,-0.046l-0.192,-0.048l-0.192,-0.05l-0.19,-0.053l-0.19,-0.055l-0.188,-0.058l-0.188,-0.059l-0.186,-0.062l-0.186,-0.064l-0.184,-0.066l-0.184,-0.069l-0.182,-0.07l-0.181,-0.073l-0.181,-0.075l-0.179,-0.077l-0.177,-0.079l-0.177,-0.081l-0.176,-0.084l-0.174,-0.085l-0.173,-0.087l-0.172,-0.09l-0.171,-0.091l-0.169,-0.094l-0.169,-0.095l-0.166,-0.097l-0.166,-0.1l-0.164,-0.101l-0.163,-0.103l-0.162,-0.105l-0.16,-0.107l-0.159,-0.108l-0.158,-0.111l-0.156,-0.112l-0.154,-0.115l-0.153,-0.116l-0.152,-0.117l-0.15,-0.12l-0.149,-0.121l-0.148,-0.123l-0.145,-0.125l-0.145,-0.127l-0.142,-0.128l-0.142,-0.13l-0.139,-0.131l-0.138,-0.133l-0.137,-0.135l-0.135,-0.137l-0.133,-0.138l-0.131,-0.139l-0.13,-0.142l-0.128,-0.142l-0.127,-0.145l-0.125,-0.145l-0.123,-0.148l-0.121,-0.148l-0.12,-0.151l-0.117,-0.152l-0.116,-0.153l-0.115,-0.154l-0.112,-0.156l-0.111,-0.158l-0.108,-0.159l-0.107,-0.16l-0.105,-0.162l-0.103,-0.163l-0.101,-0.164l-0.1,-0.166l-0.097,-0.166l-0.095,-0.169l-0.094,-0.169l-0.091,-0.171l-0.09,-0.172l-0.087,-0.173l-0.085,-0.174l-0.084,-0.176l-0.081,-0.177l-0.079,-0.177l-0.077,-0.179l-0.075,-0.181l-0.073,-0.181l-0.07,-0.182l-0.069,-0.184l-0.066,-0.184l-0.064,-0.186l-0.062,-0.186l-0.059,-0.188l-0.058,-0.188l-0.055,-0.19l-0.053,-0.19l-0.05,-0.192l-0.048,-0.192l-0.046,-0.193l-0.044,-0.195l-0.041,-0.195l-0.039,-0.195l-0.036,-0.197l-0.034,-0.198l-0.032,-0.198l-0.029,-0.199l-0.027,-0.2l-0.024,-0.2l-0.022,-0.201l-0.019,-0.202l-0.016,-0.203l-0.015,-0.203l-0.011,-0.204l-0.009,-0.205l-0.007,-0.205l-0.004,-0.206l-0.001,-0.2l0,-3.012l0.001,-0.162l0.003,-0.167l0.005,-0.166l0.008,-0.166l0.009,-0.166l0.012,-0.165l0.013,-0.165l0.016,-0.164l0.018,-0.163l0.019,-0.163l0.022,-0.163l0.024,-0.161l0.025,-0.161l0.028,-0.161l0.03,-0.16l0.031,-0.159l0.034,-0.158l0.035,-0.158l0.037,-0.157l0.039,-0.156l0.041,-0.156l0.043,-0.155l0.045,-0.154l0.047,-0.153l0.048,-0.153l0.05,-0.151l0.053,-0.151l0.053,-0.15l0.056,-0.149l0.057,-0.148l0.06,-0.147l0.06,-0.147l0.063,-0.145l0.064,-0.145l0.066,-0.144l0.068,-0.142l0.069,-0.142l0.071,-0.141l0.073,-0.139l0.074,-0.139l0.076,-0.138l0.078,-0.136l0.079,-0.136l0.08,-0.134l0.082,-0.134l0.084,-0.132l0.086,-0.132l0.086,-0.13l0.089,-0.129l0.09,-0.128l0.091,-0.127l0.093,-0.125l0.094,-0.125l0.096,-0.123l0.097,-0.122l0.098,-0.121l0.1,-0.12l0.102,-0.118l0.102,-0.117l0.105,-0.116l0.105,-0.115l0.107,-0.113l0.108,-0.113l0.11,-0.11l0.11,-0.11l0.113,-0.108l0.113,-0.107l0.115,-0.105l0.116,-0.105l0.117,-0.102l0.118,-0.102l0.12,-0.1l0.121,-0.098l0.122,-0.097l0.123,-0.096l0.125,-0.094l0.125,-0.093l0.127,-0.091l0.128,-0.09l0.129,-0.089l0.13,-0.086l0.132,-0.086l0.132,-0.084l0.134,-0.082l0.134,-0.08l0.136,-0.079l0.136,-0.078l0.138,-0.076l0.139,-0.074l0.139,-0.073l0.141,-0.071l0.142,-0.069l0.143,-0.068l0.143,-0.066l0.145,-0.064l0.145,-0.063l0.147,-0.06l0.147,-0.06l0.148,-0.057l0.149,-0.056l0.15,-0.053l0.151,-0.053l0.152,-0.05l0.152,-0.048l0.153,-0.047l0.154,-0.045l0.155,-0.043l0.156,-0.041l0.156,-0.039l0.157,-0.037l0.158,-0.035l0.158,-0.034l0.159,-0.031l0.16,-0.03l0.161,-0.028l0.161,-0.025l0.161,-0.024l0.163,-0.022l0.163,-0.019l0.163,-0.018l0.164,-0.016l0.165,-0.013l0.165,-0.012l0.166,-0.009l0.166,-0.008l0.166,-0.005l0.168,-0.003l0.161,-0.001l6.012,0l0.161,0.001Zm-6.161,3.999l-0.123,0.001l-0.116,0.002l-0.116,0.004l-0.116,0.005l-0.115,0.006l-0.115,0.008l-0.114,0.01l-0.114,0.011l-0.113,0.012l-0.113,0.013l-0.112,0.015l-0.112,0.017l-0.112,0.018l-0.111,0.019l-0.11,0.02l-0.11,0.022l-0.109,0.023l-0.109,0.024l-0.109,0.026l-0.108,0.027l-0.107,0.029l-0.107,0.029l-0.106,0.031l-0.106,0.032l-0.105,0.034l-0.105,0.034l-0.104,0.036l-0.103,0.038l-0.103,0.038l-0.103,0.04l-0.102,0.04l-0.101,0.043l-0.1,0.043l-0.1,0.044l-0.099,0.046l-0.099,0.047l-0.098,0.047l-0.097,0.05l-0.097,0.05l-0.096,0.051l-0.095,0.053l-0.094,0.053l-0.094,0.055l-0.093,0.056l-0.093,0.057l-0.091,0.058l-0.091,0.059l-0.091,0.06l-0.089,0.061l-0.089,0.062l-0.088,0.064l-0.087,0.064l-0.086,0.065l-0.085,0.067l-0.085,0.067l-0.084,0.068l-0.083,0.07l-0.082,0.07l-0.082,0.071l-0.08,0.073l-0.08,0.073l-0.078,0.074l-0.078,0.075l-0.077,0.076l-0.076,0.077l-0.075,0.078l-0.074,0.078l-0.073,0.08l-0.073,0.08l-0.071,0.082l-0.07,0.082l-0.07,0.083l-0.068,0.084l-0.067,0.085l-0.067,0.085l-0.065,0.086l-0.064,0.087l-0.064,0.088l-0.062,0.089l-0.061,0.089l-0.06,0.091l-0.059,0.091l-0.058,0.091l-0.057,0.093l-0.056,0.093l-0.055,0.094l-0.053,0.094l-0.053,0.095l-0.051,0.096l-0.05,0.097l-0.05,0.097l-0.048,0.098l-0.046,0.099l-0.046,0.099l-0.044,0.1l-0.044,0.1l-0.042,0.102l-0.04,0.101l-0.04,0.103l-0.038,0.102l-0.038,0.104l-0.036,0.104l-0.034,0.105l-0.034,0.105l-0.032,0.106l-0.031,0.106l-0.029,0.107l-0.029,0.107l-0.027,0.108l-0.026,0.109l-0.024,0.109l-0.023,0.109l-0.022,0.11l-0.02,0.111l-0.019,0.11l-0.018,0.112l-0.017,0.112l-0.015,0.112l-0.013,0.113l-0.012,0.113l-0.011,0.114l-0.01,0.114l-0.008,0.115l-0.006,0.115l-0.005,0.116l-0.004,0.116l-0.002,0.116l-0.001,0.123l0,2.988l0.001,0.162l0.003,0.155l0.005,0.154l0.007,0.154l0.008,0.154l0.011,0.152l0.013,0.153l0.014,0.151l0.016,0.151l0.019,0.151l0.02,0.15l0.021,0.149l0.024,0.149l0.026,0.148l0.027,0.147l0.029,0.147l0.031,0.146l0.032,0.145l0.035,0.145l0.036,0.143l0.038,0.144l0.039,0.142l0.041,0.142l0.043,0.141l0.045,0.141l0.046,0.139l0.048,0.139l0.05,0.138l0.051,0.137l0.053,0.137l0.054,0.135l0.056,0.135l0.058,0.134l0.059,0.134l0.061,0.132l0.062,0.131l0.064,0.131l0.066,0.13l0.067,0.129l0.068,0.128l0.07,0.127l0.072,0.126l0.073,0.125l0.074,0.124l0.076,0.123l0.077,0.122l0.079,0.122l0.08,0.12l0.082,0.119l0.083,0.118l0.084,0.118l0.086,0.116l0.087,0.115l0.089,0.114l0.089,0.112l0.091,0.112l0.093,0.111l0.094,0.109l0.095,0.109l0.096,0.107l0.098,0.106l0.098,0.105l0.1,0.104l0.102,0.102l0.102,0.102l0.104,0.1l0.105,0.098l0.106,0.098l0.107,0.096l0.109,0.095l0.109,0.094l0.111,0.093l0.111,0.091l0.113,0.089l0.114,0.089l0.115,0.087l0.116,0.086l0.118,0.084l0.118,0.083l0.119,0.082l0.12,0.08l0.122,0.079l0.122,0.077l0.123,0.076l0.124,0.074l0.125,0.073l0.126,0.072l0.128,0.07l0.127,0.068l0.129,0.067l0.13,0.066l0.131,0.064l0.131,0.062l0.132,0.061l0.134,0.059l0.134,0.058l0.135,0.056l0.135,0.054l0.137,0.053l0.137,0.051l0.138,0.05l0.139,0.048l0.139,0.046l0.141,0.045l0.141,0.043l0.142,0.041l0.142,0.039l0.144,0.038l0.143,0.036l0.145,0.035l0.145,0.032l0.146,0.031l0.147,0.029l0.147,0.027l0.148,0.026l0.149,0.024l0.149,0.021l0.15,0.02l0.151,0.019l0.151,0.016l0.151,0.014l0.153,0.013l0.152,0.011l0.154,0.008l0.154,0.007l0.154,0.005l0.155,0.003l0.156,0.001l0.149,-0.001l0.149,-0.003l0.149,-0.004l0.148,-0.007l0.148,-0.008l0.148,-0.01l0.148,-0.012l0.147,-0.014l0.147,-0.015l0.147,-0.018l0.146,-0.019l0.146,-0.021l0.146,-0.022l0.145,-0.025l0.145,-0.026l0.144,-0.028l0.144,-0.029l0.143,-0.032l0.143,-0.033l0.143,-0.035l0.142,-0.037l0.142,-0.038l0.14,-0.04l0.141,-0.042l0.14,-0.043l0.139,-0.045l0.139,-0.047l0.138,-0.049l0.137,-0.05l0.137,-0.052l0.137,-0.053l0.135,-0.055l0.135,-0.057l0.134,-0.059l0.134,-0.06l0.132,-0.062l0.132,-0.063l0.132,-0.065l0.13,-0.067l0.13,-0.068l0.129,-0.07l0.128,-0.071l0.127,-0.073l0.126,-0.074l0.126,-0.076l0.124,-0.078l0.124,-0.079l0.123,-0.081l0.121,-0.082l0.121,-0.084l0.12,-0.086l0.119,-0.087l0.118,-0.088l0.117,-0.09l0.116,-0.092l0.115,-0.093l0.114,-0.094l0.113,-0.096l0.111,-0.097l0.111,-0.099l0.11,-0.101l0.108,-0.102l0.107,-0.103l0.106,-0.105l0.105,-0.106l0.103,-0.107l0.102,-0.108l0.101,-0.11l0.099,-0.111l0.097,-0.111l0.096,-0.113l0.094,-0.114l0.093,-0.115l0.092,-0.116l0.09,-0.117l0.088,-0.118l0.087,-0.119l0.086,-0.12l0.083,-0.121l0.083,-0.121l0.081,-0.123l0.079,-0.124l0.078,-0.124l0.076,-0.126l0.074,-0.126l0.073,-0.127l0.071,-0.128l0.07,-0.129l0.068,-0.13l0.067,-0.13l0.065,-0.132l0.063,-0.132l0.062,-0.132l0.06,-0.134l0.059,-0.134l0.057,-0.135l0.055,-0.135l0.053,-0.137l0.052,-0.136l0.05,-0.138l0.049,-0.138l0.047,-0.139l0.045,-0.139l0.043,-0.14l0.042,-0.14l0.04,-0.141l0.038,-0.142l0.037,-0.142l0.035,-0.143l0.033,-0.143l0.032,-0.143l0.029,-0.144l0.028,-0.144l0.026,-0.145l0.025,-0.145l0.022,-0.146l0.021,-0.146l0.019,-0.146l0.018,-0.147l0.015,-0.147l0.014,-0.147l0.012,-0.148l0.01,-0.148l0.008,-0.148l0.007,-0.148l0.004,-0.149l0.003,-0.149l0.001,-0.155l0,-2.988l-0.001,-0.123l-0.002,-0.116l-0.004,-0.116l-0.005,-0.116l-0.006,-0.115l-0.008,-0.115l-0.01,-0.114l-0.011,-0.114l-0.012,-0.113l-0.013,-0.113l-0.015,-0.112l-0.017,-0.112l-0.018,-0.111l-0.019,-0.111l-0.02,-0.111l-0.022,-0.11l-0.023,-0.109l-0.024,-0.109l-0.026,-0.109l-0.027,-0.108l-0.029,-0.107l-0.029,-0.107l-0.031,-0.106l-0.032,-0.106l-0.034,-0.105l-0.034,-0.105l-0.036,-0.104l-0.038,-0.104l-0.038,-0.102l-0.04,-0.103l-0.04,-0.101l-0.042,-0.102l-0.044,-0.1l-0.044,-0.1l-0.046,-0.099l-0.046,-0.099l-0.048,-0.098l-0.05,-0.097l-0.05,-0.097l-0.051,-0.096l-0.053,-0.095l-0.053,-0.094l-0.055,-0.094l-0.056,-0.093l-0.057,-0.093l-0.058,-0.091l-0.059,-0.091l-0.06,-0.091l-0.061,-0.089l-0.062,-0.089l-0.064,-0.088l-0.064,-0.087l-0.065,-0.086l-0.067,-0.085l-0.067,-0.085l-0.068,-0.084l-0.07,-0.083l-0.07,-0.082l-0.071,-0.081l-0.073,-0.081l-0.073,-0.08l-0.074,-0.078l-0.075,-0.078l-0.076,-0.077l-0.077,-0.076l-0.078,-0.075l-0.078,-0.074l-0.08,-0.073l-0.081,-0.073l-0.081,-0.071l-0.082,-0.07l-0.083,-0.07l-0.084,-0.068l-0.085,-0.067l-0.085,-0.067l-0.086,-0.065l-0.087,-0.064l-0.088,-0.064l-0.089,-0.062l-0.089,-0.061l-0.091,-0.06l-0.091,-0.059l-0.091,-0.058l-0.093,-0.057l-0.093,-0.056l-0.094,-0.055l-0.094,-0.053l-0.095,-0.053l-0.096,-0.051l-0.097,-0.05l-0.097,-0.05l-0.098,-0.047l-0.099,-0.047l-0.099,-0.046l-0.1,-0.044l-0.1,-0.043l-0.101,-0.043l-0.102,-0.04l-0.103,-0.04l-0.103,-0.038l-0.103,-0.038l-0.104,-0.036l-0.105,-0.034l-0.105,-0.034l-0.106,-0.032l-0.106,-0.031l-0.107,-0.029l-0.107,-0.029l-0.108,-0.027l-0.109,-0.026l-0.109,-0.024l-0.109,-0.023l-0.11,-0.022l-0.11,-0.02l-0.111,-0.019l-0.112,-0.018l-0.112,-0.017l-0.112,-0.015l-0.113,-0.013l-0.113,-0.012l-0.114,-0.011l-0.114,-0.01l-0.115,-0.008l-0.115,-0.006l-0.116,-0.005l-0.116,-0.004l-0.116,-0.002l-0.123,-0.001l-5.988,0Z"/></g><g id="emoji"><path d="M30,16c0,3.713 -1.475,7.274 -4.101,9.899c-2.625,2.626 -6.186,4.101 -9.899,4.101c0,0 0,0 0,0c-7.732,0 -14,-6.268 -14,-14c0,-1.007 0,-2.014 0,-3c0,-6.075 4.925,-11 11,-11c1.972,0 4.028,0 6,0c6.075,0 11,4.925 11,11c0,0.986 0,1.993 0,3Z" style="fill:#fbc546;"/><path d="M11,20.5c0,0.828 -0.672,1.5 -1.5,1.5c-0.828,0 -1.5,-0.672 -1.5,-1.5c0,-0.916 0,-2.084 0,-3c0,-0.828 0.672,-1.5 1.5,-1.5c0.828,0 1.5,0.672 1.5,1.5c0,0.916 0,2.084 0,3Z"/><path d="M24,20.5c0,0.828 -0.672,1.5 -1.5,1.5c-0.828,0 -1.5,-0.672 -1.5,-1.5c0,-0.917 0,-2.085 0,-3.002c0,-0.397 0.158,-0.778 0.439,-1.059c0.281,-0.281 0.662,-0.439 1.059,-0.439c0.001,0 0.003,0 0.004,0c0.397,0 0.778,0.158 1.059,0.439c0.281,0.281 0.439,0.662 0.439,1.059c0,0.917 0,2.085 0,3.002Z"/><path d="M16.133,7.001l0.132,0.002l0.132,0.004l0.132,0.006l0.131,0.007l0.132,0.009l0.131,0.011l0.131,0.012l0.13,0.014l0.13,0.015l0.13,0.017l0.13,0.019l0.129,0.02l0.129,0.022l0.129,0.023l0.128,0.025l0.128,0.026l0.127,0.028l0.127,0.029l0.127,0.031l0.126,0.033l0.126,0.034l0.125,0.036l0.125,0.037l0.124,0.038l0.123,0.04l0.124,0.042l0.122,0.043l0.122,0.045l0.122,0.046l0.121,0.047l0.12,0.049l0.12,0.051l0.119,0.052l0.119,0.053l0.117,0.055l0.118,0.056l0.116,0.058l0.116,0.059l0.115,0.06l0.115,0.062l0.113,0.064l0.113,0.064l0.112,0.067l0.112,0.067l0.11,0.069l0.11,0.071l0.109,0.071l0.109,0.073l0.107,0.075l0.106,0.076l0.106,0.077l0.105,0.079l0.104,0.079l0.103,0.082l0.102,0.082l0.101,0.084l0.1,0.085l0.099,0.087l0.098,0.088l0.098,0.089l0.096,0.09l0.095,0.092l0.092,0.091l1.174,1.174l0.053,0.058l0.049,0.061l0.044,0.066l0.038,0.068l0.033,0.071l0.027,0.074l0.021,0.076l0.016,0.077l0.009,0.078l0.003,0.078l-0.003,0.078l-0.009,0.078l-0.016,0.077l-0.021,0.076l-0.027,0.074l-0.033,0.071l-0.038,0.068l-0.044,0.066l-0.049,0.061l-0.053,0.058l-0.058,0.053l-0.061,0.049l-0.066,0.044l-0.068,0.038l-0.071,0.033l-0.074,0.027l-0.076,0.021l-0.077,0.016l-0.078,0.009l-0.078,0.003l-0.078,-0.003l-0.078,-0.009l-0.077,-0.016l-0.076,-0.021l-0.074,-0.027l-0.071,-0.033l-0.068,-0.038l-0.066,-0.044l-0.061,-0.049l-0.058,-0.053l-1.17,-1.17l-0.078,-0.077l-0.078,-0.075l-0.078,-0.073l-0.079,-0.073l-0.08,-0.071l-0.08,-0.07l-0.082,-0.07l-0.082,-0.068l-0.083,-0.067l-0.083,-0.066l-0.085,-0.065l-0.085,-0.063l-0.086,-0.063l-0.086,-0.062l-0.087,-0.06l-0.088,-0.06l-0.089,-0.058l-0.089,-0.057l-0.09,-0.056l-0.09,-0.055l-0.092,-0.054l-0.091,-0.052l-0.093,-0.052l-0.093,-0.05l-0.093,-0.049l-0.094,-0.048l-0.095,-0.047l-0.095,-0.046l-0.096,-0.045l-0.096,-0.043l-0.097,-0.042l-0.097,-0.041l-0.098,-0.04l-0.098,-0.039l-0.099,-0.037l-0.099,-0.036l-0.1,-0.035l-0.1,-0.034l-0.1,-0.032l-0.101,-0.032l-0.102,-0.03l-0.101,-0.029l-0.102,-0.028l-0.103,-0.026l-0.103,-0.025l-0.103,-0.024l-0.103,-0.023l-0.104,-0.021l-0.104,-0.02l-0.105,-0.019l-0.104,-0.018l-0.105,-0.016l-0.106,-0.015l-0.105,-0.014l-0.106,-0.012l-0.106,-0.012l-0.106,-0.01l-0.107,-0.008l-0.106,-0.007l-0.107,-0.006l-0.107,-0.005l-0.108,-0.003l-0.107,-0.002l-0.108,-0.001l-0.108,0.001l-0.107,0.002l-0.108,0.003l-0.107,0.005l-0.107,0.006l-0.106,0.007l-0.107,0.008l-0.106,0.01l-0.106,0.012l-0.106,0.012l-0.105,0.014l-0.106,0.015l-0.105,0.016l-0.104,0.018l-0.105,0.019l-0.104,0.02l-0.104,0.021l-0.103,0.023l-0.103,0.024l-0.103,0.025l-0.103,0.026l-0.102,0.028l-0.101,0.029l-0.102,0.03l-0.101,0.032l-0.1,0.032l-0.1,0.034l-0.1,0.035l-0.099,0.036l-0.099,0.037l-0.098,0.039l-0.098,0.04l-0.097,0.041l-0.097,0.042l-0.096,0.043l-0.096,0.045l-0.095,0.046l-0.095,0.047l-0.094,0.048l-0.093,0.049l-0.093,0.05l-0.093,0.052l-0.091,0.052l-0.092,0.054l-0.09,0.055l-0.09,0.056l-0.089,0.057l-0.089,0.058l-0.088,0.06l-0.087,0.06l-0.086,0.062l-0.086,0.063l-0.085,0.063l-0.085,0.065l-0.083,0.066l-0.083,0.067l-0.082,0.068l-0.082,0.07l-0.08,0.07l-0.08,0.071l-0.079,0.073l-0.078,0.073l-0.078,0.075l-0.078,0.077l-1.17,1.17l-0.058,0.053l-0.061,0.049l-0.066,0.044l-0.068,0.038l-0.071,0.033l-0.074,0.027l-0.076,0.021l-0.077,0.016l-0.078,0.009l-0.078,0.003l-0.078,-0.003l-0.078,-0.009l-0.077,-0.016l-0.076,-0.021l-0.074,-0.027l-0.071,-0.033l-0.068,-0.038l-0.066,-0.044l-0.061,-0.049l-0.058,-0.053l-0.053,-0.058l-0.049,-0.061l-0.044,-0.066l-0.038,-0.068l-0.033,-0.071l-0.027,-0.074l-0.021,-0.076l-0.016,-0.077l-0.009,-0.078l-0.003,-0.078l0.003,-0.078l0.009,-0.078l0.016,-0.077l0.021,-0.076l0.027,-0.074l0.033,-0.071l0.038,-0.068l0.044,-0.066l0.049,-0.061l0.053,-0.058l1.174,-1.174l0.092,-0.091l0.095,-0.092l0.096,-0.09l0.098,-0.089l0.098,-0.088l0.099,-0.087l0.1,-0.085l0.101,-0.084l0.102,-0.082l0.103,-0.082l0.104,-0.079l0.105,-0.079l0.106,-0.077l0.106,-0.076l0.107,-0.075l0.109,-0.073l0.109,-0.071l0.11,-0.071l0.11,-0.069l0.112,-0.067l0.112,-0.067l0.113,-0.064l0.113,-0.064l0.115,-0.062l0.115,-0.06l0.116,-0.059l0.116,-0.058l0.118,-0.056l0.117,-0.055l0.119,-0.053l0.119,-0.052l0.12,-0.051l0.12,-0.049l0.121,-0.047l0.122,-0.046l0.122,-0.045l0.122,-0.043l0.124,-0.042l0.123,-0.04l0.124,-0.038l0.125,-0.037l0.125,-0.036l0.126,-0.034l0.126,-0.033l0.127,-0.031l0.127,-0.029l0.127,-0.028l0.128,-0.026l0.128,-0.025l0.129,-0.023l0.129,-0.022l0.129,-0.02l0.13,-0.019l0.13,-0.017l0.13,-0.015l0.13,-0.014l0.131,-0.012l0.131,-0.011l0.132,-0.009l0.131,-0.007l0.132,-0.006l0.132,-0.004l0.132,-0.002l0.13,-0.001l0.006,0l0.13,0.001Z" style="fill:#593604;"/></g></g></svg>