<?xml version="1.0" encoding="UTF-8" standalone="no"?><!DOCTYPE svg PUBLIC "-//W3C//DTD SVG 1.1//EN" "http://www.w3.org/Graphics/SVG/1.1/DTD/svg11.dtd"><svg width="100%" height="100%" viewBox="0 0 32 32" version="1.1" xmlns="http://www.w3.org/2000/svg" xmlns:xlink="http://www.w3.org/1999/xlink" xml:space="preserve" xmlns:serif="http://www.serif.com/" style="fill-rule:evenodd;clip-rule:evenodd;stroke-linejoin:round;stroke-miterlimit:1.41421;"><rect id="pirate_flag" x="0" y="0" width="32" height="32" style="fill:none;"/><clipPath id="_clip1"><rect x="0" y="0" width="32" height="32"/></clipPath><g clip-path="url(#_clip1)"><g id="outline"><rect x="0" y="4" width="32" height="24"/></g><g id="emoji"><rect x="2" y="6" width="28" height="20" style="fill:#3f3f3f;"/><path d="M24,21c0.552,0 1,0.448 1,1c0,0.552 -0.448,1 -1,1c-0.5,0 -1,0 -1,0c0,0 0,0.5 0,1c0,0.552 -0.448,1 -1,1c-0.552,0 -1,-0.448 -1,-1l0,-1.876l-5,-1.667l-5,1.667l0,1.876c0,0.552 -0.448,1 -1,1c-0.552,0 -1,-0.448 -1,-1l0,-1l-1,0c-0.552,0 -1,-0.448 -1,-1c0,-0.552 0.448,-1 1,-1l1.628,0l4,-1.333l-5,-1.667l-1.628,0c-0.552,0 -1,-0.448 -1,-1c0,-0.552 0.448,-1 1,-1c0.5,0 1,0 1,0c0,0 0,-0.517 0,-1.026c0,-0.258 0.103,-0.506 0.285,-0.689c0.183,-0.182 0.431,-0.285 0.689,-0.285c0,0 0.001,0 0.001,0c0.272,0 0.533,0.108 0.725,0.3c0.192,0.192 0.3,0.453 0.3,0.725l0,1.851l3,1l0,1.124l6,0l0,-1.124l3,-1l0,-1.876c0,-0.552 0.448,-1 1,-1c0.552,0 1,0.448 1,1c0,0.5 0,1 0,1c0,0 0.5,0 1,0c0.552,0 1,0.448 1,1c0,0.552 -0.448,1 -1,1l-1.628,0l-5,1.667l4,1.333l1.628,0Z" style="fill:#fff;"/><rect x="14" y="14" width="4" height="4" style="fill:#fff;"/><path d="M21,11c0,-1.061 -0.421,-2.078 -1.172,-2.828c-0.75,-0.751 -1.767,-1.172 -2.828,-1.172c-0.659,0 -1.341,0 -2,0c-1.061,0 -2.078,0.421 -2.828,1.172c-0.751,0.75 -1.172,1.767 -1.172,2.828c0,0.332 0,0.668 0,1c0,1.061 0.421,2.078 1.172,2.828c0.75,0.751 1.767,1.172 2.828,1.172c0.659,0 1.341,0 2,0c1.061,0 2.078,-0.421 2.828,-1.172c0.751,-0.75 1.172,-1.767 1.172,-2.828c0,-0.332 0,-0.668 0,-1Z" style="fill:#fff;"/><path d="M15,12.468c0,-0.389 -0.155,-0.763 -0.43,-1.038c-0.275,-0.275 -0.649,-0.43 -1.038,-0.43c-0.011,0 -0.023,0 -0.034,0c-0.397,0 -0.778,0.158 -1.059,0.439c-0.281,0.281 -0.439,0.662 -0.439,1.059c0,0.011 0,0.023 0,0.034c0,0.389 0.155,0.763 0.43,1.038c0.275,0.275 0.649,0.43 1.038,0.43c0.001,0 0.001,0 0.002,0c0.845,0 1.53,-0.685 1.53,-1.53c0,-0.001 0,-0.001 0,-0.002Z" style="fill:#353535;"/><path d="M20,12.468c0,-0.389 -0.155,-0.763 -0.43,-1.038c-0.275,-0.275 -0.649,-0.43 -1.038,-0.43c-0.011,0 -0.023,0 -0.034,0c-0.397,0 -0.778,0.158 -1.059,0.439c-0.281,0.281 -0.439,0.662 -0.439,1.059c0,0.011 0,0.023 0,0.034c0,0.389 0.155,0.763 0.43,1.038c0.275,0.275 0.649,0.43 1.038,0.43c0.001,0 0.001,0 0.002,0c0.845,0 1.53,-0.685 1.53,-1.53c0,-0.001 0,-0.001 0,-0.002Z" style="fill:#353535;"/></g></g></svg>