<?xml version="1.0" encoding="UTF-8" standalone="no"?>
<!DOCTYPE svg PUBLIC "-//W3C//DTD SVG 1.1//EN" "http://www.w3.org/Graphics/SVG/1.1/DTD/svg11.dtd">
<svg width="100%" height="100%" viewBox="0 0 32 32" version="1.1" xmlns="http://www.w3.org/2000/svg" xmlns:xlink="http://www.w3.org/1999/xlink" xml:space="preserve" xmlns:serif="http://www.serif.com/" style="fill-rule:evenodd;clip-rule:evenodd;stroke-linejoin:round;stroke-miterlimit:2;">
    <rect id="pirate_flag" x="0" y="0" width="32" height="32" style="fill:none;"/>
    <clipPath id="_clip1">
        <rect x="0" y="0" width="32" height="32"/>
    </clipPath>
    <g clip-path="url(#_clip1)">
        <g id="outline">
            <path d="M32,6c0,-0.53 -0.211,-1.039 -0.586,-1.414c-0.375,-0.375 -0.884,-0.586 -1.414,-0.586c-5.746,0 -22.254,0 -28,0c-0.53,0 -1.039,0.211 -1.414,0.586c-0.375,0.375 -0.586,0.884 -0.586,1.414c0,4.52 0,15.48 0,20c0,0.53 0.211,1.039 0.586,1.414c0.375,0.375 0.884,0.586 1.414,0.586c5.746,0 22.254,0 28,0c0.53,0 1.039,-0.211 1.414,-0.586c0.375,-0.375 0.586,-0.884 0.586,-1.414c0,-4.52 0,-15.48 0,-20Z"/>
        </g>
        <g id="emoji">
            <rect x="2" y="6" width="28" height="20" style="fill:#3f3f3f;"/>
            <path d="M24,21c0.552,0 1,0.448 1,1c0,0.552 -0.448,1 -1,1l-1,0l0,1c0,0.552 -0.448,1 -1,1c-0.552,0 -1,-0.448 -1,-1l0,-1.876l-5,-1.667l-5,1.667l0,1.851c0,0.272 -0.108,0.533 -0.3,0.725c-0.192,0.192 -0.453,0.3 -0.725,0.3l-0.001,0c-0.258,0 -0.506,-0.103 -0.689,-0.285c-0.182,-0.183 -0.285,-0.431 -0.285,-0.689l0,-1.026l-1,0c-0.552,0 -1,-0.448 -1,-1c0,-0.552 0.448,-1 1,-1l1.628,0l4,-1.333l-5,-1.667l-1.628,0c-0.552,0 -1,-0.448 -1,-1c0,-0.552 0.448,-1 1,-1l1,0l0,-1c0,-0.552 0.448,-1 1,-1c0.552,0 1,0.448 1,1l0,1.876l2.65,0.883c0.099,0.243 0.247,0.466 0.436,0.655c0.375,0.375 0.884,0.586 1.414,0.586c0.941,0 2.059,0 3,0c0.53,0 1.039,-0.211 1.414,-0.586c0.189,-0.189 0.337,-0.412 0.436,-0.655l2.65,-0.883l0,-1.876c0,-0.552 0.448,-1 1,-1c0.552,0 1,0.448 1,1l0,1l1,0c0.552,0 1,0.448 1,1c0,0.552 -0.448,1 -1,1l-1.628,0l-5,1.667l4,1.333l1.628,0Zm-10.5,-5.292c-0.493,-0.199 -0.945,-0.497 -1.328,-0.88c-0.751,-0.75 -1.172,-1.767 -1.172,-2.828c0,-0.332 0,-0.668 0,-1c0,-1.061 0.421,-2.078 1.172,-2.828c0.75,-0.751 1.767,-1.172 2.828,-1.172c0.659,0 1.341,0 2,0c1.061,0 2.078,0.421 2.828,1.172c0.751,0.75 1.172,1.767 1.172,2.828c0,0.332 0,0.668 0,1c0,1.061 -0.421,2.078 -1.172,2.828c-0.383,0.383 -0.835,0.681 -1.328,0.88l0,1.292c0,0.552 -0.448,1 -1,1c-0.871,0 -2.129,0 -3,0c-0.552,0 -1,-0.448 -1,-1l0,-1.292Zm1.5,-3.21c0,-0.397 -0.158,-0.778 -0.439,-1.059c-0.281,-0.281 -0.662,-0.439 -1.059,-0.439l-0.034,0c-0.389,0 -0.763,0.155 -1.038,0.43c-0.275,0.275 -0.43,0.649 -0.43,1.038l0,0.064c0,0.389 0.155,0.763 0.43,1.038c0.275,0.275 0.649,0.43 1.038,0.43l0.034,0c0.397,0 0.778,-0.158 1.059,-0.439c0.281,-0.281 0.439,-0.662 0.439,-1.059l0,-0.004Zm5,0c0,-0.397 -0.158,-0.778 -0.439,-1.059c-0.281,-0.281 -0.662,-0.439 -1.059,-0.439l-0.034,0c-0.389,0 -0.763,0.155 -1.038,0.43c-0.275,0.275 -0.43,0.649 -0.43,1.038l0,0.064c0,0.389 0.155,0.763 0.43,1.038c0.275,0.275 0.649,0.43 1.038,0.43l0.034,0c0.397,0 0.778,-0.158 1.059,-0.439c0.281,-0.281 0.439,-0.662 0.439,-1.059l0,-0.004Z" style="fill:#fff;"/>
        </g>
    </g>
</svg>
