<?xml version="1.0" encoding="UTF-8" standalone="no"?>
<!DOCTYPE svg PUBLIC "-//W3C//DTD SVG 1.1//EN" "http://www.w3.org/Graphics/SVG/1.1/DTD/svg11.dtd">
<svg width="100%" height="100%" viewBox="0 0 32 32" version="1.1" xmlns="http://www.w3.org/2000/svg" xmlns:xlink="http://www.w3.org/1999/xlink" xml:space="preserve" xmlns:serif="http://www.serif.com/" style="fill-rule:evenodd;clip-rule:evenodd;stroke-linecap:round;stroke-linejoin:round;stroke-miterlimit:1.5;">
    <rect id="_1f47f_imp_angry" serif:id="1f47f_imp_angry" x="0" y="0" width="32" height="32" style="fill:none;"/>
    <g id="outline">
        <path d="M16,29.5c-8.1,0 -14,-4.764 -14,-11.5c0,-8.538 6.605,-14 14,-14c7.395,0 14,5.462 14,14c0,6.736 -5.9,11.5 -14,11.5Z" style="fill:none;stroke:#000;stroke-width:4px;"/>
        <path d="M20,6c0,0 2.524,-0.333 4.387,-1.464c1.871,-1.135 3.613,-2.536 3.613,-2.536c0,0 1.099,4.655 0,7c-1.099,2.345 -2,3 -2,3l-6,-6Z" style="fill:none;stroke:#000;stroke-width:4px;"/>
        <path d="M12,6c0,0 -2.524,-0.333 -4.387,-1.464c-1.871,-1.135 -3.613,-2.536 -3.613,-2.536c0,0 -1.099,4.655 0,7c1.099,2.345 2,3 2,3l6,-6Z" style="fill:none;stroke:#000;stroke-width:4px;"/>
    </g>
    <path d="M20,6c0,0 2.524,-0.333 4.387,-1.464c1.871,-1.135 3.613,-2.536 3.613,-2.536c0,0 1.099,4.655 0,7c-1.099,2.345 -2,3 -2,3l-6,-6Z" style="fill:#8400d0;"/>
    <path d="M12,6c0,0 -2.524,-0.333 -4.387,-1.464c-1.871,-1.135 -3.613,-2.536 -3.613,-2.536c0,0 -1.099,4.655 0,7c1.099,2.345 2,3 2,3l6,-6Z" style="fill:#8400d0;"/>
    <path d="M16,29.5c-8.1,0 -14,-4.764 -14,-11.5c0,-8.538 6.605,-14 14,-14c7.395,0 14,5.462 14,14c0,6.736 -5.9,11.5 -14,11.5Z" style="fill:#b535ff;"/>
    <path d="M9,25l2,-3l2.5,2.5l2.5,-2.5l2.5,2.5l2.5,-2.5l2,3" style="fill:none;stroke:#4a0074;stroke-width:2px;"/>
    <path d="M23.202,12.925l2.616,-2.139c0.734,0.978 1.182,2.283 1.182,3.714c0,3.036 -2.016,5.5 -4.5,5.5c-1.801,0 -3.356,-1.296 -4.075,-3.166l1.271,-1.039c0.322,1.008 3.695,-2.412 3.506,-2.87Z"/>
    <path d="M12.304,15.795l1.271,1.039c-0.719,1.87 -2.274,3.166 -4.075,3.166c-2.484,0 -4.5,-2.464 -4.5,-5.5c-0,-1.431 0.448,-2.736 1.182,-3.714l2.616,2.139c-0.189,0.458 3.184,3.878 3.506,2.87Z"/>
    <path d="M23.202,12.925c0.189,0.458 0.298,0.998 0.298,1.575c0,1.656 -0.896,3 -2,3c-0.795,-0 -1.482,-0.697 -1.804,-1.705l3.506,-2.87Z" style="fill:#ffb636;"/>
    <path d="M12.304,15.795c-0.322,1.008 -1.009,1.705 -1.804,1.705c-1.104,-0 -2,-1.344 -2,-3c-0,-0.577 0.109,-1.117 0.298,-1.575l3.506,2.87Z" style="fill:#ffb636;"/>
    <path d="M9.941,9.171c-0.586,0.585 -0.269,1.852 0.707,2.828c0.975,0.976 2.243,1.293 2.828,0.707c0.585,-0.585 0.269,-1.853 -0.707,-2.828c-0.976,-0.976 -2.243,-1.293 -2.828,-0.707Z"/>
    <path d="M22.059,9.171c0.586,0.585 0.269,1.852 -0.707,2.828c-0.975,0.976 -2.243,1.293 -2.828,0.707c-0.585,-0.585 -0.269,-1.853 0.707,-2.828c0.976,-0.976 2.243,-1.293 2.828,-0.707Z"/>
</svg>
