<?xml version="1.0" encoding="UTF-8" standalone="no"?>
<!DOCTYPE svg PUBLIC "-//W3C//DTD SVG 1.1//EN" "http://www.w3.org/Graphics/SVG/1.1/DTD/svg11.dtd">
<svg width="100%" height="100%" viewBox="0 0 32 32" version="1.1" xmlns="http://www.w3.org/2000/svg" xmlns:xlink="http://www.w3.org/1999/xlink" xml:space="preserve" xmlns:serif="http://www.serif.com/" style="fill-rule:evenodd;clip-rule:evenodd;stroke-linecap:round;stroke-linejoin:round;stroke-miterlimit:1.5;">
    <rect id="_1f608_imp_devious" serif:id="1f608_imp_devious" x="0" y="0" width="32" height="32" style="fill:none;"/>
    <g id="outline">
        <path d="M16,29.5c-8.1,0 -14,-4.764 -14,-11.5c0,-8.538 6.605,-14 14,-14c7.395,0 14,5.462 14,14c0,6.736 -5.9,11.5 -14,11.5Z" style="fill:none;stroke:#000;stroke-width:4px;"/>
        <path d="M20,6c0,0 2.524,-0.333 4.387,-1.464c1.871,-1.135 3.613,-2.536 3.613,-2.536c0,0 1.099,4.655 0,7c-1.099,2.345 -2,3 -2,3l-6,-6Z" style="fill:none;stroke:#000;stroke-width:4px;"/>
        <path d="M12,6c0,0 -2.524,-0.333 -4.387,-1.464c-1.871,-1.135 -3.613,-2.536 -3.613,-2.536c0,0 -1.099,4.655 0,7c1.099,2.345 2,3 2,3l6,-6Z" style="fill:none;stroke:#000;stroke-width:4px;"/>
    </g>
    <path d="M20,6c0,0 2.524,-0.333 4.387,-1.464c1.871,-1.135 3.613,-2.536 3.613,-2.536c0,0 1.099,4.655 0,7c-1.099,2.345 -2,3 -2,3l-6,-6Z" style="fill:#8400d0;"/>
    <path d="M12,6c0,0 -2.524,-0.333 -4.387,-1.464c-1.871,-1.135 -3.613,-2.536 -3.613,-2.536c0,0 -1.099,4.655 0,7c1.099,2.345 2,3 2,3l6,-6Z" style="fill:#8400d0;"/>
    <path d="M16,29.5c-8.1,0 -14,-4.764 -14,-11.5c0,-8.538 6.605,-14 14,-14c7.395,0 14,5.462 14,14c0,6.736 -5.9,11.5 -14,11.5Z" style="fill:#b535ff;"/>
    <path d="M23.048,12.601l2.671,-1.942c0.793,0.991 1.281,2.347 1.281,3.841c0,3.036 -2.016,5.5 -4.5,5.5c-2.02,0 -3.731,-1.631 -4.3,-3.873l1.347,-0.979c0.197,1.345 3.783,-2.029 3.501,-2.547Z"/>
    <path d="M12.453,15.148l1.347,0.979c-0.569,2.242 -2.28,3.873 -4.3,3.873c-2.484,0 -4.5,-2.464 -4.5,-5.5c-0,-1.494 0.488,-2.85 1.281,-3.841l2.671,1.942c-0.282,0.518 3.304,3.892 3.501,2.547Z"/>
    <path d="M23.048,12.601c0.282,0.518 0.452,1.179 0.452,1.899c0,1.656 -0.896,3 -2,3c-0.956,-0 -1.756,-1.007 -1.953,-2.352l3.501,-2.547Z" style="fill:#ffb636;"/>
    <path d="M12.453,15.148c-0.197,1.345 -0.997,2.352 -1.953,2.352c-1.104,-0 -2,-1.344 -2,-3c-0,-0.72 0.17,-1.381 0.452,-1.899l3.501,2.547Z" style="fill:#ffb636;"/>
    <path d="M7,21.5l2,3.5l2,-2l2.5,3.5l2.5,-2.5l2.5,2.5l2.5,-3.5l2,2l2,-3.5" style="fill:none;stroke:#4a0074;stroke-width:2px;"/>
    <path d="M9.941,8.43c-0.586,0.585 -0.269,1.853 0.707,2.828c0.975,0.976 2.243,1.293 2.828,0.707c0.585,-0.585 0.269,-1.852 -0.707,-2.828c-0.976,-0.976 -2.243,-1.293 -2.828,-0.707Z"/>
    <path d="M22.059,8.43c0.586,0.585 0.269,1.853 -0.707,2.828c-0.975,0.976 -2.243,1.293 -2.828,0.707c-0.585,-0.585 -0.269,-1.852 0.707,-2.828c0.976,-0.976 2.243,-1.293 2.828,-0.707Z"/>
</svg>
