<?xml version="1.0" encoding="UTF-8" standalone="no"?>
<!DOCTYPE svg PUBLIC "-//W3C//DTD SVG 1.1//EN" "http://www.w3.org/Graphics/SVG/1.1/DTD/svg11.dtd">
<svg width="100%" height="100%" viewBox="0 0 32 32" version="1.1" xmlns="http://www.w3.org/2000/svg" xmlns:xlink="http://www.w3.org/1999/xlink" xml:space="preserve" xmlns:serif="http://www.serif.com/" style="fill-rule:evenodd;clip-rule:evenodd;stroke-linejoin:round;stroke-miterlimit:2;">
    <rect id="alien" x="0" y="-0" width="32" height="32" style="fill:none;"/>
    <g id="outline">
    </g>
    <path d="M16,-0c7.933,-0 14.5,5.116 14.5,14c-0,7.261 -5.835,13.176 -9.914,16.304l-0.003,0.002c-2.706,2.068 -6.46,2.068 -9.166,0l-0.003,-0.002c-4.079,-3.128 -9.914,-9.043 -9.914,-16.304c0,-8.884 6.567,-14 14.5,-14Z"/>
    <path d="M16,2c6.82,-0 12.5,4.362 12.5,12c-0,6.59 -5.429,11.878 -9.131,14.717c-1.989,1.52 -4.749,1.52 -6.738,0c-3.702,-2.839 -9.131,-8.127 -9.131,-14.717c0,-7.638 5.68,-12 12.5,-12Z" style="fill:#6cdb75;"/>
    <path d="M13.702,25.212c-0.393,0.388 -1.027,0.383 -1.414,-0.01c-0.388,-0.393 -0.383,-1.027 0.01,-1.414c0,-0 1.241,-1.288 3.702,-1.288c2.461,-0 3.702,1.288 3.702,1.288c0.393,0.387 0.398,1.021 0.01,1.414c-0.387,0.393 -1.021,0.398 -1.414,0.01c0,0 -0.788,-0.712 -2.298,-0.712c-1.51,-0 -2.298,0.712 -2.298,0.712Z" style="fill:#27512a;"/>
    <path d="M14.13,18.893c-0.049,0.68 -0.575,1.229 -1.251,1.308c-4.823,0.552 -8.043,-2.793 -7.121,-8.104c0.118,-0.689 0.699,-1.204 1.397,-1.239c4.7,-0.232 7.278,3.515 6.975,8.035Zm3.74,0c-0.303,-4.52 2.275,-8.267 6.975,-8.035c0.698,0.035 1.279,0.55 1.397,1.239c0.922,5.311 -2.298,8.656 -7.121,8.104c-0.676,-0.079 -1.202,-0.628 -1.251,-1.308Z"/>
</svg>
