<?xml version="1.0" encoding="UTF-8" standalone="no"?><!DOCTYPE svg PUBLIC "-//W3C//DTD SVG 1.1//EN" "http://www.w3.org/Graphics/SVG/1.1/DTD/svg11.dtd"><svg width="100%" height="100%" viewBox="0 0 32 32" version="1.1" xmlns="http://www.w3.org/2000/svg" xmlns:xlink="http://www.w3.org/1999/xlink" xml:space="preserve" xmlns:serif="http://www.serif.com/" style="fill-rule:evenodd;clip-rule:evenodd;stroke-linecap:round;stroke-linejoin:round;stroke-miterlimit:1.5;"><rect id="alien" x="0" y="0.017" width="32" height="32" style="fill:none;"/><clipPath id="_clip1"><rect x="0" y="0.017" width="32" height="32"/></clipPath><g clip-path="url(#_clip1)"><g id="outline"><path d="M3.812,11.317c-1.113,4.73 0.505,9.685 4.194,12.848c1.886,1.616 3.871,3.318 5.391,4.62c1.498,1.284 3.708,1.284 5.206,0c1.52,-1.302 3.505,-3.004 5.391,-4.62c3.689,-3.163 5.307,-8.118 4.194,-12.848c-0.004,-0.016 -0.007,-0.033 -0.011,-0.049c-1.276,-5.42 -6.113,-9.251 -11.681,-9.251c-0.33,0 -0.662,0 -0.992,0c-5.568,0 -10.405,3.831 -11.681,9.251c-0.004,0.016 -0.007,0.033 -0.011,0.049Z" style="fill:none;stroke:#000;stroke-width:4px;"/></g><g id="emoji"><path d="M3.812,11.317c-1.113,4.73 0.505,9.685 4.194,12.848c1.886,1.616 3.871,3.318 5.391,4.62c1.498,1.284 3.708,1.284 5.206,0c1.52,-1.302 3.505,-3.004 5.391,-4.62c3.689,-3.163 5.307,-8.118 4.194,-12.848c-0.004,-0.016 -0.007,-0.033 -0.011,-0.049c-1.276,-5.42 -6.113,-9.251 -11.681,-9.251c-0.33,0 -0.662,0 -0.992,0c-5.568,0 -10.405,3.831 -11.681,9.251c-0.004,0.016 -0.007,0.033 -0.011,0.049Z" style="fill:#89c794;"/><path d="M18.46,19.556c0,0 0,-0.16 0,-0.433c0,-1.763 0.701,-3.453 1.947,-4.699c1.246,-1.247 2.937,-1.947 4.699,-1.947c0.273,0 0.434,0 0.434,0c0,0 0,0.161 0,0.433c0,1.763 -0.701,3.453 -1.947,4.7c-1.246,1.246 -2.937,1.946 -4.699,1.946c-0.273,0 -0.434,0 -0.434,0Z"/><clipPath id="_clip2"><path d="M18.46,19.556c0,0 0,-0.16 0,-0.433c0,-1.763 0.701,-3.453 1.947,-4.699c1.246,-1.247 2.937,-1.947 4.699,-1.947c0.273,0 0.434,0 0.434,0c0,0 0,0.161 0,0.433c0,1.763 -0.701,3.453 -1.947,4.7c-1.246,1.246 -2.937,1.946 -4.699,1.946c-0.273,0 -0.434,0 -0.434,0Z"/></clipPath><g clip-path="url(#_clip2)"><path d="M17,19.017c0,0 0.403,0 1,0c2.761,0 5,-2.239 5,-5c0,-2.072 0,-4 0,-4l-6,0l0,9Z" style="fill:#666;"/></g><path d="M13.625,19.642c0,0 0,-0.229 0,-0.604c0,-1.763 -0.7,-3.453 -1.947,-4.7c-1.246,-1.246 -2.937,-1.946 -4.699,-1.946c-0.376,0 -0.604,0 -0.604,0c0,0 0,0.228 0,0.604c0,1.762 0.7,3.453 1.947,4.699c1.246,1.246 2.937,1.947 4.699,1.947c0.376,0 0.604,0 0.604,0Z"/><clipPath id="_clip3"><path d="M13.625,19.642c0,0 0,-0.229 0,-0.604c0,-1.763 -0.7,-3.453 -1.947,-4.7c-1.246,-1.246 -2.937,-1.946 -4.699,-1.946c-0.376,0 -0.604,0 -0.604,0c0,0 0,0.228 0,0.604c0,1.762 0.7,3.453 1.947,4.699c1.246,1.246 2.937,1.947 4.699,1.947c0.376,0 0.604,0 0.604,0Z"/></clipPath><g clip-path="url(#_clip3)"><path d="M6,13.017c0,0 0.001,0 0.002,0c1.326,0 2.597,0.526 3.534,1.464c0.937,0.937 1.464,2.208 1.464,3.534c0,1.617 0,3.002 0,3.002l-5,0l0,-8Z" style="fill:#666;"/></g><path d="M26,12.017l0,1.354l-0.001,0.086l-0.001,0.085l-0.003,0.086l-0.004,0.085l-0.004,0.085l-0.006,0.084l-0.007,0.084l-0.008,0.084l-0.009,0.084l-0.01,0.083l-0.011,0.083l-0.013,0.083l-0.013,0.082l-0.014,0.082l-0.015,0.082l-0.016,0.081l-0.017,0.081l-0.018,0.081l-0.019,0.08l-0.02,0.08l-0.021,0.079l-0.022,0.079l-0.023,0.079l-0.024,0.078l-0.025,0.078l-0.025,0.077l-0.027,0.077l-0.027,0.077l-0.029,0.076l-0.029,0.076l-0.03,0.075l-0.031,0.075l-0.032,0.074l-0.033,0.074l-0.034,0.073l-0.034,0.073l-0.036,0.072l-0.036,0.072l-0.037,0.072l-0.038,0.071l-0.039,0.07l-0.04,0.07l-0.04,0.069l-0.041,0.069l-0.042,0.068l-0.043,0.068l-0.044,0.067l-0.044,0.067l-0.045,0.066l-0.046,0.065l-0.047,0.065l-0.047,0.064l-0.049,0.064l-0.048,0.063l-0.05,0.062l-0.051,0.062l-0.051,0.061l-0.052,0.061l-0.052,0.06l-0.054,0.059l-0.053,0.059l-0.055,0.058l-0.056,0.057l-0.056,0.057l-0.056,0.056l-0.058,0.056l-0.058,0.054l-0.058,0.054l-0.06,0.053l-0.06,0.053l-0.06,0.052l-0.062,0.051l-0.061,0.051l-0.063,0.049l-0.063,0.049l-0.064,0.048l-0.064,0.048l-0.065,0.047l-0.065,0.045l-0.066,0.046l-0.067,0.044l-0.067,0.044l-0.068,0.043l-0.068,0.042l-0.069,0.041l-0.069,0.04l-0.07,0.04l-0.07,0.039l-0.071,0.038l-0.071,0.037l-0.072,0.036l-0.073,0.035l-0.073,0.035l-0.073,0.034l-0.074,0.032l-0.074,0.032l-0.075,0.032l-0.075,0.03l-0.076,0.029l-0.076,0.028l-0.076,0.028l-0.077,0.027l-0.078,0.025l-0.078,0.025l-0.078,0.024l-0.079,0.023l-0.079,0.021l-0.079,0.021l-0.08,0.02l-0.08,0.02l-0.081,0.018l-0.081,0.017l-0.081,0.016l-0.082,0.015l-0.082,0.014l-0.082,0.013l-0.083,0.012l-0.083,0.011l-0.083,0.01l-0.083,0.009l-0.084,0.008l-0.085,0.007l-0.084,0.006l-0.085,0.005l-0.085,0.004l-0.085,0.003l-0.086,0.001l-0.086,0.001l-1.354,0l0,-1.354l0.001,-0.086l0.001,-0.086l0.003,-0.085l0.004,-0.085l0.004,-0.085l0.006,-0.085l0.007,-0.084l0.008,-0.084l0.009,-0.083l0.01,-0.084l0.011,-0.083l0.013,-0.082l0.013,-0.083l0.014,-0.082l0.015,-0.081l0.016,-0.082l0.017,-0.081l0.018,-0.08l0.019,-0.08l0.02,-0.08l0.021,-0.08l0.022,-0.079l0.023,-0.078l0.024,-0.079l0.025,-0.077l0.025,-0.078l0.027,-0.077l0.027,-0.076l0.029,-0.077l0.029,-0.075l0.03,-0.075l0.031,-0.075l0.032,-0.075l0.033,-0.073l0.034,-0.074l0.034,-0.073l0.036,-0.072l0.036,-0.072l0.037,-0.071l0.038,-0.071l0.039,-0.071l0.04,-0.069l0.04,-0.07l0.041,-0.068l0.042,-0.069l0.043,-0.067l0.044,-0.068l0.044,-0.066l0.045,-0.066l0.046,-0.066l0.047,-0.064l0.047,-0.065l0.049,-0.063l0.048,-0.063l0.05,-0.063l0.051,-0.062l0.051,-0.061l0.052,-0.061l0.052,-0.06l0.054,-0.059l0.053,-0.059l0.055,-0.058l0.056,-0.057l0.056,-0.057l0.056,-0.056l0.058,-0.055l0.058,-0.055l0.058,-0.054l0.06,-0.053l0.06,-0.053l0.06,-0.052l0.062,-0.051l0.061,-0.05l0.063,-0.05l0.063,-0.049l0.064,-0.048l0.064,-0.047l0.065,-0.047l0.065,-0.046l0.066,-0.045l0.067,-0.045l0.067,-0.043l0.068,-0.043l0.068,-0.042l0.069,-0.041l0.069,-0.041l0.07,-0.039l0.07,-0.039l0.071,-0.038l0.071,-0.037l0.072,-0.037l0.073,-0.035l0.073,-0.035l0.073,-0.033l0.074,-0.033l0.074,-0.032l0.075,-0.031l0.075,-0.03l0.076,-0.03l0.076,-0.028l0.076,-0.028l0.077,-0.026l0.078,-0.026l0.078,-0.025l0.078,-0.023l0.079,-0.023l0.079,-0.022l0.079,-0.021l0.08,-0.02l0.08,-0.019l0.081,-0.018l0.081,-0.017l0.081,-0.016l0.082,-0.015l0.082,-0.015l0.082,-0.013l0.083,-0.012l0.083,-0.011l0.083,-0.01l0.083,-0.009l0.084,-0.008l0.085,-0.007l0.084,-0.006l0.085,-0.005l0.085,-0.003l0.085,-0.003l0.086,-0.002l0.086,0l1.354,0Zm-1.351,1l-0.076,0l-0.073,0.002l-0.073,0.002l-0.072,0.003l-0.073,0.004l-0.072,0.005l-0.071,0.006l-0.071,0.007l-0.072,0.008l-0.07,0.008l-0.071,0.01l-0.07,0.01l-0.07,0.011l-0.07,0.012l-0.069,0.013l-0.069,0.013l-0.069,0.015l-0.068,0.015l-0.068,0.016l-0.068,0.017l-0.067,0.018l-0.067,0.019l-0.067,0.019l-0.066,0.02l-0.066,0.021l-0.066,0.022l-0.065,0.023l-0.065,0.023l-0.065,0.024l-0.064,0.025l-0.064,0.026l-0.063,0.026l-0.063,0.027l-0.063,0.028l-0.062,0.029l-0.062,0.029l-0.062,0.03l-0.061,0.031l-0.06,0.031l-0.061,0.033l-0.059,0.032l-0.06,0.034l-0.058,0.034l-0.059,0.036l-0.058,0.035l-0.057,0.036l-0.057,0.038l-0.057,0.037l-0.056,0.039l-0.056,0.039l-0.055,0.039l-0.055,0.041l-0.054,0.041l-0.053,0.041l-0.053,0.043l-0.053,0.043l-0.052,0.043l-0.052,0.044l-0.051,0.045l-0.05,0.045l-0.05,0.046l-0.049,0.047l-0.049,0.047l-0.048,0.047l-0.048,0.049l-0.047,0.048l-0.047,0.05l-0.045,0.05l-0.046,0.05l-0.044,0.051l-0.045,0.052l-0.043,0.052l-0.043,0.052l-0.042,0.053l-0.042,0.054l-0.041,0.054l-0.04,0.055l-0.04,0.055l-0.039,0.056l-0.038,0.056l-0.038,0.056l-0.037,0.057l-0.036,0.058l-0.036,0.058l-0.035,0.058l-0.035,0.059l-0.033,0.059l-0.033,0.06l-0.032,0.061l-0.032,0.06l-0.031,0.061l-0.03,0.061l-0.029,0.062l-0.029,0.063l-0.028,0.062l-0.027,0.063l-0.026,0.064l-0.026,0.064l-0.025,0.064l-0.024,0.064l-0.023,0.065l-0.023,0.066l-0.021,0.065l-0.021,0.066l-0.021,0.067l-0.019,0.067l-0.018,0.066l-0.018,0.068l-0.017,0.068l-0.016,0.068l-0.016,0.068l-0.014,0.069l-0.014,0.069l-0.013,0.069l-0.012,0.07l-0.011,0.07l-0.01,0.07l-0.01,0.07l-0.008,0.071l-0.008,0.071l-0.007,0.071l-0.005,0.072l-0.005,0.072l-0.005,0.073l-0.003,0.072l-0.002,0.072l-0.002,0.073l0,0.077l0,0.351l0.351,0l0.076,-0.001l0.073,-0.001l0.073,-0.002l0.072,-0.004l0.073,-0.004l0.072,-0.005l0.071,-0.006l0.071,-0.007l0.072,-0.007l0.07,-0.009l0.071,-0.009l0.07,-0.01l0.07,-0.012l0.07,-0.012l0.069,-0.012l0.069,-0.014l0.069,-0.015l0.068,-0.015l0.068,-0.016l0.068,-0.017l0.067,-0.018l0.067,-0.018l0.067,-0.02l0.066,-0.02l0.066,-0.021l0.066,-0.022l0.065,-0.022l0.065,-0.024l0.065,-0.024l0.064,-0.025l0.064,-0.025l0.063,-0.027l0.063,-0.027l0.063,-0.028l0.062,-0.028l0.062,-0.03l0.062,-0.03l0.061,-0.03l0.06,-0.032l0.061,-0.032l0.059,-0.033l0.06,-0.034l0.059,-0.034l0.058,-0.035l0.058,-0.036l0.057,-0.036l0.057,-0.037l0.057,-0.038l0.056,-0.038l0.056,-0.039l0.055,-0.04l0.055,-0.041l0.054,-0.04l0.053,-0.042l0.053,-0.042l0.053,-0.043l0.052,-0.044l0.052,-0.044l0.051,-0.045l0.05,-0.045l0.05,-0.046l0.049,-0.046l0.049,-0.047l0.048,-0.048l0.048,-0.048l0.047,-0.049l0.047,-0.049l0.045,-0.05l0.046,-0.051l0.044,-0.051l0.045,-0.051l0.043,-0.052l0.043,-0.053l0.042,-0.053l0.042,-0.054l0.041,-0.054l0.04,-0.055l0.04,-0.055l0.039,-0.055l0.038,-0.056l0.038,-0.057l0.037,-0.057l0.036,-0.057l0.036,-0.058l0.035,-0.059l0.035,-0.059l0.033,-0.059l0.033,-0.06l0.032,-0.06l0.032,-0.061l0.031,-0.061l0.03,-0.061l0.029,-0.062l0.029,-0.062l0.028,-0.063l0.027,-0.063l0.026,-0.063l0.026,-0.064l0.025,-0.064l0.024,-0.065l0.023,-0.065l0.023,-0.065l0.021,-0.066l0.021,-0.066l0.021,-0.067l0.019,-0.066l0.018,-0.067l0.018,-0.067l0.017,-0.068l0.016,-0.069l0.016,-0.068l0.014,-0.068l0.014,-0.069l0.013,-0.07l0.012,-0.069l0.011,-0.07l0.01,-0.071l0.01,-0.07l0.008,-0.071l0.008,-0.071l0.007,-0.071l0.005,-0.072l0.005,-0.072l0.005,-0.072l0.003,-0.073l0.002,-0.072l0.002,-0.073l0,-0.077l0,-0.35l-0.351,0Z"/><path d="M7.44,12.017l0.086,0.002l0.085,0.003l0.085,0.003l0.085,0.005l0.084,0.006l0.085,0.007l0.084,0.008l0.083,0.009l0.083,0.01l0.083,0.011l0.083,0.012l0.082,0.013l0.082,0.015l0.082,0.015l0.081,0.016l0.081,0.017l0.081,0.018l0.08,0.019l0.08,0.02l0.079,0.021l0.079,0.022l0.079,0.023l0.078,0.023l0.078,0.025l0.078,0.026l0.077,0.026l0.076,0.028l0.076,0.028l0.076,0.03l0.075,0.03l0.075,0.031l0.074,0.032l0.074,0.033l0.073,0.033l0.073,0.035l0.073,0.035l0.072,0.037l0.071,0.037l0.071,0.038l0.07,0.039l0.07,0.039l0.069,0.041l0.069,0.041l0.068,0.042l0.068,0.043l0.067,0.043l0.067,0.045l0.066,0.045l0.065,0.046l0.065,0.047l0.064,0.047l0.064,0.048l0.063,0.049l0.063,0.05l0.061,0.05l0.062,0.051l0.06,0.052l0.06,0.053l0.06,0.053l0.058,0.054l0.058,0.055l0.058,0.055l0.056,0.056l0.056,0.057l0.056,0.057l0.055,0.058l0.053,0.059l0.054,0.059l0.052,0.06l0.052,0.061l0.051,0.061l0.051,0.062l0.05,0.063l0.048,0.063l0.049,0.063l0.047,0.065l0.047,0.064l0.046,0.066l0.045,0.066l0.044,0.066l0.044,0.068l0.043,0.067l0.042,0.069l0.041,0.068l0.04,0.07l0.04,0.069l0.039,0.071l0.038,0.071l0.037,0.071l0.036,0.072l0.036,0.072l0.034,0.073l0.034,0.074l0.033,0.073l0.032,0.075l0.031,0.075l0.03,0.075l0.029,0.075l0.029,0.077l0.027,0.076l0.027,0.077l0.025,0.078l0.025,0.077l0.024,0.079l0.023,0.078l0.022,0.079l0.021,0.08l0.02,0.08l0.019,0.08l0.018,0.08l0.017,0.081l0.016,0.082l0.015,0.081l0.014,0.082l0.013,0.083l0.013,0.082l0.011,0.083l0.01,0.084l0.009,0.083l0.008,0.084l0.007,0.084l0.006,0.085l0.004,0.085l0.004,0.085l0.003,0.085l0.001,0.086l0.001,0.086l0,1.354l-1.354,0l-0.086,-0.001l-0.086,-0.001l-0.085,-0.003l-0.085,-0.004l-0.085,-0.005l-0.084,-0.006l-0.085,-0.007l-0.084,-0.008l-0.083,-0.009l-0.083,-0.01l-0.083,-0.011l-0.083,-0.012l-0.082,-0.013l-0.082,-0.014l-0.082,-0.015l-0.081,-0.016l-0.081,-0.017l-0.081,-0.018l-0.08,-0.02l-0.08,-0.02l-0.079,-0.021l-0.079,-0.021l-0.079,-0.023l-0.078,-0.024l-0.078,-0.025l-0.078,-0.025l-0.077,-0.027l-0.076,-0.028l-0.076,-0.028l-0.076,-0.029l-0.075,-0.03l-0.075,-0.032l-0.074,-0.032l-0.074,-0.032l-0.073,-0.034l-0.073,-0.035l-0.073,-0.035l-0.072,-0.036l-0.071,-0.037l-0.071,-0.038l-0.07,-0.039l-0.07,-0.04l-0.069,-0.04l-0.069,-0.041l-0.068,-0.042l-0.068,-0.043l-0.067,-0.044l-0.067,-0.044l-0.066,-0.046l-0.065,-0.045l-0.065,-0.047l-0.064,-0.048l-0.064,-0.048l-0.063,-0.049l-0.063,-0.049l-0.061,-0.051l-0.062,-0.051l-0.06,-0.052l-0.06,-0.053l-0.06,-0.053l-0.058,-0.054l-0.058,-0.054l-0.058,-0.056l-0.056,-0.056l-0.056,-0.057l-0.056,-0.057l-0.055,-0.058l-0.053,-0.059l-0.054,-0.059l-0.052,-0.06l-0.052,-0.061l-0.051,-0.061l-0.051,-0.062l-0.05,-0.062l-0.048,-0.063l-0.049,-0.064l-0.047,-0.064l-0.047,-0.065l-0.046,-0.065l-0.045,-0.066l-0.044,-0.067l-0.044,-0.067l-0.043,-0.068l-0.042,-0.068l-0.041,-0.069l-0.04,-0.069l-0.04,-0.07l-0.039,-0.07l-0.038,-0.071l-0.037,-0.072l-0.036,-0.072l-0.036,-0.072l-0.034,-0.073l-0.034,-0.073l-0.033,-0.074l-0.032,-0.074l-0.031,-0.075l-0.03,-0.075l-0.029,-0.076l-0.029,-0.076l-0.027,-0.077l-0.027,-0.077l-0.025,-0.077l-0.025,-0.078l-0.024,-0.078l-0.023,-0.079l-0.022,-0.079l-0.021,-0.079l-0.02,-0.08l-0.019,-0.08l-0.018,-0.081l-0.017,-0.081l-0.016,-0.081l-0.015,-0.082l-0.014,-0.082l-0.013,-0.082l-0.013,-0.083l-0.011,-0.083l-0.01,-0.083l-0.009,-0.084l-0.008,-0.084l-0.007,-0.084l-0.006,-0.084l-0.004,-0.085l-0.004,-0.085l-0.003,-0.086l-0.001,-0.085l-0.001,-0.086l0,-1.354l1.354,0l0.086,0Zm-0.44,1l0,0.35l0,0.077l0.002,0.073l0.002,0.072l0.003,0.073l0.005,0.072l0.005,0.072l0.005,0.072l0.007,0.071l0.008,0.071l0.008,0.071l0.01,0.07l0.01,0.071l0.011,0.07l0.012,0.069l0.013,0.07l0.014,0.069l0.014,0.068l0.016,0.068l0.016,0.069l0.017,0.068l0.018,0.067l0.018,0.067l0.019,0.066l0.021,0.067l0.021,0.066l0.021,0.066l0.023,0.065l0.023,0.065l0.024,0.065l0.025,0.064l0.026,0.064l0.026,0.063l0.027,0.063l0.028,0.063l0.029,0.062l0.029,0.062l0.03,0.061l0.031,0.061l0.032,0.061l0.032,0.06l0.033,0.06l0.033,0.059l0.035,0.059l0.035,0.059l0.036,0.058l0.036,0.057l0.037,0.057l0.038,0.057l0.038,0.056l0.039,0.055l0.04,0.055l0.04,0.055l0.041,0.054l0.042,0.054l0.042,0.053l0.043,0.053l0.043,0.052l0.045,0.051l0.044,0.051l0.046,0.051l0.045,0.05l0.047,0.049l0.047,0.049l0.048,0.048l0.048,0.048l0.049,0.047l0.049,0.046l0.05,0.046l0.05,0.045l0.051,0.045l0.052,0.044l0.052,0.044l0.053,0.043l0.053,0.042l0.053,0.042l0.054,0.04l0.055,0.041l0.055,0.04l0.056,0.039l0.056,0.038l0.057,0.038l0.057,0.037l0.057,0.036l0.058,0.036l0.058,0.035l0.059,0.034l0.06,0.034l0.059,0.033l0.061,0.032l0.06,0.032l0.061,0.03l0.062,0.03l0.062,0.03l0.062,0.028l0.063,0.028l0.063,0.027l0.063,0.027l0.064,0.025l0.064,0.025l0.065,0.024l0.065,0.024l0.065,0.022l0.066,0.022l0.066,0.021l0.066,0.02l0.067,0.02l0.067,0.018l0.067,0.018l0.068,0.017l0.068,0.016l0.068,0.015l0.069,0.015l0.069,0.014l0.069,0.012l0.07,0.012l0.07,0.012l0.07,0.01l0.071,0.009l0.07,0.009l0.072,0.007l0.071,0.007l0.071,0.006l0.072,0.005l0.073,0.004l0.072,0.004l0.073,0.002l0.073,0.001l0.076,0.001l0.351,0l0,-0.351l0,-0.077l-0.002,-0.073l-0.002,-0.072l-0.003,-0.072l-0.005,-0.073l-0.005,-0.072l-0.005,-0.072l-0.007,-0.071l-0.008,-0.071l-0.008,-0.071l-0.01,-0.07l-0.01,-0.07l-0.011,-0.07l-0.012,-0.07l-0.013,-0.069l-0.014,-0.069l-0.014,-0.069l-0.016,-0.068l-0.016,-0.068l-0.017,-0.068l-0.018,-0.068l-0.018,-0.066l-0.019,-0.067l-0.021,-0.067l-0.021,-0.066l-0.021,-0.065l-0.023,-0.066l-0.023,-0.065l-0.024,-0.064l-0.025,-0.064l-0.026,-0.064l-0.026,-0.064l-0.027,-0.063l-0.028,-0.062l-0.029,-0.063l-0.029,-0.062l-0.03,-0.061l-0.031,-0.061l-0.032,-0.06l-0.032,-0.061l-0.033,-0.06l-0.033,-0.059l-0.035,-0.059l-0.035,-0.058l-0.036,-0.058l-0.036,-0.058l-0.037,-0.057l-0.038,-0.056l-0.038,-0.056l-0.039,-0.056l-0.04,-0.055l-0.04,-0.055l-0.041,-0.054l-0.042,-0.054l-0.042,-0.053l-0.043,-0.052l-0.043,-0.052l-0.045,-0.052l-0.044,-0.051l-0.046,-0.05l-0.045,-0.05l-0.047,-0.05l-0.047,-0.048l-0.048,-0.049l-0.048,-0.047l-0.049,-0.047l-0.049,-0.047l-0.05,-0.046l-0.05,-0.045l-0.051,-0.045l-0.052,-0.044l-0.052,-0.043l-0.053,-0.043l-0.053,-0.043l-0.053,-0.041l-0.054,-0.041l-0.055,-0.041l-0.055,-0.039l-0.056,-0.039l-0.056,-0.039l-0.057,-0.037l-0.057,-0.038l-0.057,-0.036l-0.058,-0.035l-0.059,-0.036l-0.058,-0.034l-0.06,-0.034l-0.059,-0.032l-0.061,-0.033l-0.06,-0.031l-0.061,-0.031l-0.062,-0.03l-0.062,-0.029l-0.062,-0.029l-0.063,-0.028l-0.063,-0.027l-0.063,-0.026l-0.064,-0.026l-0.064,-0.025l-0.065,-0.024l-0.065,-0.023l-0.065,-0.023l-0.066,-0.022l-0.066,-0.021l-0.066,-0.02l-0.067,-0.019l-0.067,-0.019l-0.067,-0.018l-0.068,-0.017l-0.068,-0.016l-0.068,-0.015l-0.069,-0.015l-0.069,-0.013l-0.069,-0.013l-0.07,-0.012l-0.07,-0.011l-0.07,-0.01l-0.071,-0.01l-0.07,-0.008l-0.072,-0.008l-0.071,-0.007l-0.071,-0.006l-0.072,-0.005l-0.073,-0.004l-0.072,-0.003l-0.073,-0.002l-0.073,-0.002l-0.076,0l-0.351,0Z"/><path d="M13,25.017l3,-3l3,3" style="fill:none;stroke:#3f854b;stroke-width:2px;"/></g></g></svg>