<?xml version="1.0" encoding="UTF-8" standalone="no"?>
<!DOCTYPE svg PUBLIC "-//W3C//DTD SVG 1.1//EN" "http://www.w3.org/Graphics/SVG/1.1/DTD/svg11.dtd">
<svg width="100%" height="100%" viewBox="0 0 32 32" version="1.1" xmlns="http://www.w3.org/2000/svg" xmlns:xlink="http://www.w3.org/1999/xlink" xml:space="preserve" xmlns:serif="http://www.serif.com/" style="fill-rule:evenodd;clip-rule:evenodd;stroke-linecap:round;stroke-linejoin:round;stroke-miterlimit:1.5;">
    <rect id="alien" x="0" y="0.017" width="32" height="32" style="fill:none;"/>
    <clipPath id="_clip1">
        <rect x="0" y="0.017" width="32" height="32"/>
    </clipPath>
    <g clip-path="url(#_clip1)">
        <g id="outline">
            <path d="M3.812,11.317c-1.113,4.73 0.505,9.685 4.194,12.848c1.886,1.616 3.871,3.318 5.391,4.62c1.498,1.284 3.708,1.284 5.206,0c1.52,-1.302 3.505,-3.004 5.391,-4.62c3.689,-3.163 5.307,-8.118 4.194,-12.848c-0.004,-0.016 -0.007,-0.033 -0.011,-0.049c-1.276,-5.42 -6.113,-9.251 -11.681,-9.251l-0.992,0c-5.568,0 -10.405,3.831 -11.681,9.251c-0.004,0.016 -0.007,0.033 -0.011,0.049Z" style="fill:none;stroke:#000;stroke-width:4px;"/>
        </g>
        <g id="emoji">
            <path d="M3.812,11.317c-1.113,4.73 0.505,9.685 4.194,12.848c1.886,1.616 3.871,3.318 5.391,4.62c1.498,1.284 3.708,1.284 5.206,0c1.52,-1.302 3.505,-3.004 5.391,-4.62c3.689,-3.163 5.307,-8.118 4.194,-12.848c-0.004,-0.016 -0.007,-0.033 -0.011,-0.049c-1.276,-5.42 -6.113,-9.251 -11.681,-9.251l-0.992,0c-5.568,0 -10.405,3.831 -11.681,9.251c-0.004,0.016 -0.007,0.033 -0.011,0.049Z" style="fill:#89c794;"/>
            <path d="M18.46,19.556l0,-0.433c0,-1.763 0.701,-3.453 1.947,-4.699c1.246,-1.247 2.937,-1.947 4.699,-1.947l0.434,0l0,0.433c0,1.763 -0.701,3.453 -1.947,4.7c-1.246,1.246 -2.937,1.946 -4.699,1.946l-0.434,0Z"/>
            <clipPath id="_clip2">
                <path d="M18.46,19.556l0,-0.433c0,-1.763 0.701,-3.453 1.947,-4.699c1.246,-1.247 2.937,-1.947 4.699,-1.947l0.434,0l0,0.433c0,1.763 -0.701,3.453 -1.947,4.7c-1.246,1.246 -2.937,1.946 -4.699,1.946l-0.434,0Z"/>
            </clipPath>
            <g clip-path="url(#_clip2)">
                <path d="M17,19.017l1,0c2.761,0 5,-2.239 5,-5c0,-2.072 0,-4 0,-4l-6,0l0,9Z" style="fill:#666;"/>
            </g>
            <path d="M13.625,19.642l0,-0.604c0,-1.763 -0.7,-3.453 -1.947,-4.7c-1.246,-1.246 -2.937,-1.946 -4.699,-1.946l-0.604,0l0,0.604c0,1.762 0.7,3.453 1.947,4.699c1.246,1.246 2.937,1.947 4.699,1.947l0.604,0Z"/>
            <clipPath id="_clip3">
                <path d="M13.625,19.642l0,-0.604c0,-1.763 -0.7,-3.453 -1.947,-4.7c-1.246,-1.246 -2.937,-1.946 -4.699,-1.946l-0.604,0l0,0.604c0,1.762 0.7,3.453 1.947,4.699c1.246,1.246 2.937,1.947 4.699,1.947l0.604,0Z"/>
            </clipPath>
            <g clip-path="url(#_clip3)">
                <path d="M6,13.017l0.002,0c1.326,0 2.597,0.526 3.534,1.464c0.937,0.937 1.464,2.208 1.464,3.534c0,1.617 0,3.002 0,3.002l-5,0l0,-8Z" style="fill:#666;"/>
            </g>
            <path d="M19.354,20.017l-1.354,0l0,-1.354c0,-3.671 2.976,-6.646 6.646,-6.646l1.354,0l0,1.354c0,3.67 -2.976,6.646 -6.646,6.646Zm5.646,-7l-0.354,0c-3.118,0 -5.646,2.527 -5.646,5.646l0,0.354l0.354,0c3.118,0 5.646,-2.528 5.646,-5.646l0,-0.354Z"/>
            <path d="M7.354,12.017c3.67,0 6.646,2.975 6.646,6.646l0,1.354l-1.354,0c-3.67,0 -6.646,-2.976 -6.646,-6.646l0,-1.354l1.354,0Zm0,1l-0.354,0l0,0.354c0,3.118 2.528,5.646 5.646,5.646l0.354,0l0,-0.354c0,-3.119 -2.528,-5.646 -5.646,-5.646Z"/>
            <path d="M13,25.017l3,-3l3,3" style="fill:none;stroke:#3f854b;stroke-width:2px;"/>
        </g>
    </g>
</svg>
