<?xml version="1.0" encoding="UTF-8" standalone="no"?>
<!DOCTYPE svg PUBLIC "-//W3C//DTD SVG 1.1//EN" "http://www.w3.org/Graphics/SVG/1.1/DTD/svg11.dtd">
<svg width="100%" height="100%" viewBox="0 0 32 32" version="1.1" xmlns="http://www.w3.org/2000/svg" xmlns:xlink="http://www.w3.org/1999/xlink" xml:space="preserve" xmlns:serif="http://www.serif.com/" style="fill-rule:evenodd;clip-rule:evenodd;stroke-linejoin:round;stroke-miterlimit:2;">
    <rect id="alien_monster" x="0" y="-0" width="32" height="32" style="fill:none;"/>
    <clipPath id="_clip1">
        <rect x="0" y="-0" width="32" height="32"/>
    </clipPath>
    <g clip-path="url(#_clip1)">
        <g id="outline">
            <path d="M9.44,20.5l-2.399,0c-3.624,0 -5.649,-3.199 -5.005,-6.766c0.296,-1.645 1.215,-3.017 2.009,-4.292c0.429,-0.69 0.882,-1.304 0.787,-2.012c-0.058,-0.431 -0.35,-0.852 -0.866,-1.355l-0.358,-0.348c-0.191,-0.185 -0.299,-0.438 -0.303,-0.703c-0.004,-0.265 0.098,-0.521 0.283,-0.711l0.697,-0.717c0.185,-0.19 0.438,-0.299 0.703,-0.303c0.265,-0.004 0.521,0.098 0.711,0.283l0.358,0.349c1.198,1.164 1.663,2.245 1.764,3.239c0.102,1.008 -0.181,1.972 -0.69,2.937c-0.662,1.255 -1.845,2.513 -2.143,4.165c-0.293,1.624 0.404,3.234 2.053,3.234l0.433,-0c-0.313,-0.698 -0.474,-1.535 -0.474,-2.5c0,-4.346 4.301,-9 9,-9c4.699,0 9,4.301 9,9c0,0.896 -0.264,1.755 -0.715,2.5l0.686,0c1.649,0 2.346,-1.61 2.053,-3.234c-0.298,-1.652 -1.482,-2.91 -2.143,-4.165c-0.509,-0.965 -0.792,-1.929 -0.69,-2.937c0.1,-0.994 0.566,-2.075 1.763,-3.239l0.359,-0.349c0.19,-0.185 0.446,-0.287 0.711,-0.283c0.265,0.004 0.518,0.113 0.703,0.303l0.697,0.717c0.185,0.19 0.287,0.446 0.283,0.711c-0.004,0.265 -0.113,0.518 -0.303,0.703l-0.358,0.348c-0.517,0.503 -0.808,0.924 -0.866,1.355c-0.096,0.708 0.358,1.322 0.787,2.012c0.793,1.275 1.712,2.647 2.009,4.292c0.644,3.567 -1.381,6.766 -5.005,6.766l-2.36,-0c1.227,1.89 2.878,2.149 4.079,2.712c0.832,0.39 1.528,0.88 2.037,1.629c0.486,0.715 0.824,1.691 0.824,3.159l-0,0.5c-0,0.265 -0.106,0.52 -0.293,0.707c-0.188,0.188 -0.442,0.293 -0.707,0.293l-1,0c-0.265,-0 -0.52,-0.105 -0.707,-0.293c-0.188,-0.187 -0.293,-0.442 -0.293,-0.707l-0,-0.5c-0,-0.676 -0.081,-1.143 -0.305,-1.473c-0.367,-0.539 -1.008,-0.686 -1.674,-0.954c-1.682,-0.678 -3.631,-1.509 -5.032,-4.399c0.014,0.81 0.027,1.71 0.027,2.421c0,1.669 1.554,2.559 2.587,3.155l0.433,0.25c0.23,0.132 0.398,0.351 0.466,0.607c0.069,0.256 0.033,0.529 -0.099,0.759l-0.5,0.866c-0.133,0.23 -0.351,0.397 -0.607,0.466c-0.256,0.069 -0.529,0.033 -0.759,-0.1l-0.433,-0.249c-1.787,-1.031 -4.088,-2.867 -4.088,-5.754c0,-1.09 -0.03,-2.621 -0.05,-3.595l-0.983,0c-0.02,0.974 -0.05,2.505 -0.05,3.595c-0,2.887 -2.301,4.723 -4.088,5.754l-0.433,0.249c-0.23,0.133 -0.503,0.169 -0.759,0.1c-0.256,-0.069 -0.475,-0.236 -0.607,-0.466l-0.5,-0.866c-0.132,-0.23 -0.168,-0.503 -0.1,-0.759c0.069,-0.256 0.237,-0.475 0.467,-0.607l0.433,-0.25c1.032,-0.596 2.587,-1.486 2.587,-3.155c-0,-0.711 0.012,-1.611 0.027,-2.421c-1.401,2.89 -3.35,3.721 -5.033,4.399c-0.665,0.268 -1.306,0.415 -1.673,0.954c-0.224,0.33 -0.305,0.797 -0.305,1.473l0,0.5c0,0.265 -0.105,0.52 -0.293,0.707c-0.187,0.188 -0.442,0.293 -0.707,0.293l-1,0c-0.265,-0 -0.52,-0.105 -0.707,-0.293c-0.188,-0.187 -0.293,-0.442 -0.293,-0.707l0,-0.5c0,-1.468 0.338,-2.444 0.824,-3.159c0.509,-0.749 1.204,-1.239 2.037,-1.629c1.201,-0.563 2.852,-0.822 4.079,-2.712Z" style="fill:none;stroke:#000;stroke-width:4px;"/>
        </g>
        <path d="M8.151,20.5l-1.11,0c-3.624,0 -5.649,-3.199 -5.005,-6.766c0.296,-1.645 1.215,-3.017 2.009,-4.292c0.429,-0.69 0.882,-1.304 0.787,-2.012c-0.058,-0.431 -0.35,-0.852 -0.866,-1.355l-0.358,-0.348c-0.191,-0.185 -0.299,-0.438 -0.303,-0.703c-0.004,-0.265 0.098,-0.521 0.283,-0.711l0.697,-0.717c0.185,-0.19 0.438,-0.299 0.703,-0.303c0.265,-0.004 0.521,0.098 0.711,0.283l0.358,0.349c1.198,1.164 1.663,2.245 1.764,3.239c0.102,1.008 -0.181,1.972 -0.69,2.937c-0.662,1.255 -1.845,2.513 -2.143,4.165c-0.198,1.097 0.056,2.188 0.75,2.78c1.198,1.319 2.076,3.24 2.413,3.454Zm14.674,0.308c1.2,1.613 2.733,1.873 3.865,2.404c0.832,0.39 1.528,0.88 2.037,1.629c0.486,0.715 0.824,1.691 0.824,3.159l-0,0.5c-0,0.265 -0.106,0.52 -0.293,0.707c-0.188,0.188 -0.442,0.293 -0.707,0.293l-1,-0c-0.265,-0 -0.52,-0.105 -0.707,-0.293c-0.188,-0.187 -0.293,-0.442 -0.293,-0.707l-0,-0.5c-0,-0.676 -0.081,-1.143 -0.305,-1.473c-0.367,-0.539 -1.008,-0.686 -1.674,-0.954c-1.617,-0.652 -3.481,-1.445 -4.867,-4.073c-0,-0 2.031,-1.117 3.12,-0.692Zm3.268,-3.626c0.83,-0.548 1.145,-1.728 0.931,-2.916c-0.298,-1.652 -1.482,-2.91 -2.143,-4.165c-0.509,-0.965 -0.792,-1.929 -0.69,-2.937c0.1,-0.994 0.566,-2.075 1.763,-3.239l0.359,-0.349c0.19,-0.185 0.446,-0.287 0.711,-0.283c0.265,0.004 0.518,0.113 0.703,0.303l0.697,0.717c0.185,0.19 0.287,0.446 0.283,0.711c-0.004,0.265 -0.113,0.518 -0.303,0.703l-0.358,0.348c-0.517,0.503 -0.808,0.924 -0.866,1.355c-0.096,0.708 0.358,1.322 0.787,2.012c0.793,1.275 1.712,2.647 2.009,4.292c0.644,3.567 -1.381,6.766 -5.005,6.766l-1.607,-0c0.508,-0.837 1.501,-2.012 2.729,-3.318Zm-13.747,4.318c-1.387,2.628 -3.25,3.421 -4.868,4.073c-0.665,0.268 -1.306,0.415 -1.673,0.954c-0.224,0.33 -0.305,0.797 -0.305,1.473l0,0.5c0,0.265 -0.105,0.52 -0.293,0.707c-0.187,0.188 -0.442,0.293 -0.707,0.293l-1,-0c-0.265,-0 -0.52,-0.105 -0.707,-0.293c-0.188,-0.187 -0.293,-0.442 -0.293,-0.707l0,-0.5c0,-1.468 0.338,-2.444 0.824,-3.159c0.509,-0.749 1.204,-1.239 2.037,-1.629c1.09,-0.511 2.552,-0.771 3.73,-2.23c1.118,-0.494 2.029,-0.141 2.909,0.518l0.346,-0Zm7.199,-0c0.013,0.719 0.022,1.478 0.022,2.095c0,1.669 1.554,2.559 2.587,3.155l0.433,0.25c0.23,0.132 0.398,0.351 0.466,0.607c0.069,0.256 0.033,0.529 -0.099,0.759l-0.5,0.866c-0.133,0.23 -0.351,0.397 -0.607,0.466c-0.256,0.069 -0.529,0.033 -0.759,-0.1l-0.433,-0.249c-1.787,-1.031 -4.088,-2.867 -4.088,-5.754c0,-0.617 -0.009,-1.376 -0.022,-2.095c1.027,-0.565 2.031,-0.638 3,-0Zm-4.04,-0c-0.012,0.719 -0.021,1.478 -0.021,2.095c-0,2.887 -2.301,4.723 -4.088,5.754l-0.433,0.249c-0.23,0.133 -0.503,0.169 -0.759,0.1c-0.256,-0.069 -0.475,-0.236 -0.607,-0.466l-0.5,-0.866c-0.132,-0.23 -0.168,-0.503 -0.1,-0.759c0.069,-0.256 0.237,-0.475 0.467,-0.607l0.433,-0.25c1.032,-0.596 2.587,-1.486 2.587,-3.155c-0,-0.617 0.009,-1.376 0.021,-2.095c0.94,-1.064 1.947,-0.94 3,-0Z" style="fill:#2340fc;"/>
        <path d="M19.545,21.5l-7.04,-0c0.002,-0.11 0.004,-0.219 0.006,-0.326c-0.054,0.111 -0.109,0.22 -0.165,0.326l-0.346,-0c-1.108,-0 -2.078,-0.182 -2.909,-0.518c0.119,-0.148 0.236,-0.308 0.349,-0.482l-1.289,-0c-0.337,-0.214 -0.642,-0.46 -0.917,-0.734c-0.703,-0.703 -1.218,-1.611 -1.496,-2.72c0.333,0.284 0.768,0.454 1.303,0.454l2.182,-0c0.042,0.05 0.086,0.098 0.132,0.145c0.601,0.6 1.507,0.855 2.645,0.855l8,-0c0.909,-0 1.762,-0.387 2.399,-1l2.572,-0c0.443,0 0.817,-0.116 1.122,-0.318c-0.519,1.363 -1.499,2.539 -2.729,3.318l-0.753,-0c0.07,0.108 0.141,0.21 0.214,0.308c-0.865,0.441 -1.827,0.692 -2.825,0.692l-0.295,-0c-0.056,-0.106 -0.111,-0.215 -0.165,-0.326c0.002,0.107 0.004,0.216 0.005,0.326Z" style="fill:#152798;"/>
        <path d="M25,15c0,2.667 -2.333,5 -5,5l-8,-0c-3.214,-0 -5,-1.786 -5,-5c0,-4.346 4.301,-9 9,-9c4.699,-0 9,4.301 9,9Z" style="fill:#2340fc;"/>
        <path d="M12.5,10.5c0.828,0 1.5,0.672 1.5,1.5l0,1.5c-0,0.828 -0.672,1.5 -1.5,1.5c-0.828,-0 -1.5,-0.672 -1.5,-1.5l0,-1.5c0,-0.828 0.672,-1.5 1.5,-1.5Zm7,-0c0.828,0 1.5,0.672 1.5,1.5l0,1.5c-0,0.828 -0.672,1.5 -1.5,1.5c-0.828,-0 -1.5,-0.672 -1.5,-1.5l0,-1.5c0,-0.828 0.672,-1.5 1.5,-1.5Z" style="fill:#fff;"/>
    </g>
</svg>
