<?xml version="1.0" encoding="UTF-8" standalone="no"?>
<!DOCTYPE svg PUBLIC "-//W3C//DTD SVG 1.1//EN" "http://www.w3.org/Graphics/SVG/1.1/DTD/svg11.dtd">
<svg width="100%" height="100%" viewBox="0 0 32 32" version="1.1" xmlns="http://www.w3.org/2000/svg" xmlns:xlink="http://www.w3.org/1999/xlink" xml:space="preserve" xmlns:serif="http://www.serif.com/" style="fill-rule:evenodd;clip-rule:evenodd;stroke-linecap:round;stroke-linejoin:round;stroke-miterlimit:1.5;">
    <rect id="alien_monster" x="0" y="0.017" width="32" height="32" style="fill:none;"/>
    <clipPath id="_clip1">
        <rect x="0" y="0.017" width="32" height="32"/>
    </clipPath>
    <g clip-path="url(#_clip1)">
        <g id="outline">
            <path d="M6.816,19.74c-1.091,-1.635 -1.043,-3.778 0.12,-5.363c1.176,-1.604 2.734,-3.728 4.226,-5.762c1.13,-1.542 2.927,-2.452 4.838,-2.452c1.911,0 3.708,0.91 4.838,2.452c1.492,2.034 3.05,4.158 4.226,5.762c1.163,1.585 1.211,3.728 0.12,5.363c0,0.001 0,0.001 -0.001,0.002c-1.265,1.898 -3.704,2.623 -5.801,1.724c-0.635,-0.272 -1.265,-0.542 -1.806,-0.774c-1.007,-0.431 -2.145,-0.431 -3.152,0c-0.541,0.232 -1.171,0.502 -1.806,0.774c-2.097,0.899 -4.536,0.174 -5.801,-1.724c-0.001,-0.001 -0.001,-0.001 -0.001,-0.002Z" style="fill:none;stroke:#000;stroke-width:4px;"/>
            <path d="M9.5,20.017c0,0 -1.435,1.435 -2.586,2.585c-0.375,0.376 -0.884,0.586 -1.414,0.586c-0.53,0 -1.039,-0.21 -1.414,-0.586c-0.375,-0.375 -0.586,-0.883 -0.586,-1.414c0,-1.188 0,-3.434 0,-5.272c0,-1.856 0.737,-3.637 2.05,-4.95c0.631,-0.63 1.323,-1.323 1.95,-1.95c0.531,-0.53 0.829,-1.249 0.829,-1.999c0,-0.75 -0.298,-1.47 -0.829,-2c0,0 0,0 0,0" style="fill:none;stroke:#000;stroke-width:7px;stroke-linecap:square;"/>
            <path d="M22.5,20.017c0,0 1.435,1.435 2.586,2.585c0.375,0.376 0.884,0.586 1.414,0.586c0.53,0 1.039,-0.21 1.414,-0.586c0.375,-0.375 0.586,-0.883 0.586,-1.414c0,-1.188 0,-3.434 0,-5.272c0,-1.856 -0.737,-3.637 -2.05,-4.95c-0.631,-0.63 -1.323,-1.323 -1.95,-1.95c-0.531,-0.53 -0.829,-1.249 -0.829,-1.999c0,-0.75 0.298,-1.47 0.829,-2c0,0 0,0 0,0" style="fill:none;stroke:#000;stroke-width:7px;stroke-linecap:square;"/>
            <path d="M13,21.017l0,2.666c0,0.217 -0.07,0.427 -0.2,0.6c-0.442,0.59 -1.518,2.024 -2.2,2.934c-0.378,0.503 -0.97,0.8 -1.6,0.8c-0.873,0 -2,0 -2,0" style="fill:none;stroke:#000;stroke-width:7px;stroke-linecap:square;"/>
            <path d="M19,21.017l0,2.666c0,0.217 0.07,0.427 0.2,0.6c0.442,0.59 1.518,2.024 2.2,2.934c0.378,0.503 0.97,0.8 1.6,0.8c0.873,0 2,0 2,0" style="fill:none;stroke:#000;stroke-width:7px;stroke-linecap:square;"/>
        </g>
        <g id="emoji">
            <path d="M9.5,20.017c0,0 -1.435,1.435 -2.586,2.585c-0.375,0.376 -0.884,0.586 -1.414,0.586c-0.53,0 -1.039,-0.21 -1.414,-0.586c-0.375,-0.375 -0.586,-0.883 -0.586,-1.414c0,-1.188 0,-3.434 0,-5.272c0,-1.856 0.737,-3.637 2.05,-4.95c0.631,-0.63 1.323,-1.323 1.95,-1.95c0.531,-0.53 0.829,-1.249 0.829,-1.999c0,-0.75 -0.298,-1.47 -0.829,-2c0,0 0,0 0,0" style="fill:none;stroke:#2336af;stroke-width:3px;stroke-linecap:square;"/>
            <path d="M22.5,20.017c0,0 1.435,1.435 2.586,2.585c0.375,0.376 0.884,0.586 1.414,0.586c0.53,0 1.039,-0.21 1.414,-0.586c0.375,-0.375 0.586,-0.883 0.586,-1.414c0,-1.188 0,-3.434 0,-5.272c0,-1.856 -0.737,-3.637 -2.05,-4.95c-0.631,-0.63 -1.323,-1.323 -1.95,-1.95c-0.531,-0.53 -0.829,-1.249 -0.829,-1.999c0,-0.75 0.298,-1.47 0.829,-2c0,0 0,0 0,0" style="fill:none;stroke:#2336af;stroke-width:3px;stroke-linecap:square;"/>
            <path d="M13,21.017l0,2.666c0,0.217 -0.07,0.427 -0.2,0.6c-0.442,0.59 -1.518,2.024 -2.2,2.934c-0.378,0.503 -0.97,0.8 -1.6,0.8c-0.873,0 -2,0 -2,0" style="fill:none;stroke:#2336af;stroke-width:3px;stroke-linecap:square;"/>
            <path d="M19,21.017l0,2.666c0,0.217 0.07,0.427 0.2,0.6c0.442,0.59 1.518,2.024 2.2,2.934c0.378,0.503 0.97,0.8 1.6,0.8c0.873,0 2,0 2,0" style="fill:none;stroke:#2336af;stroke-width:3px;stroke-linecap:square;"/>
            <path d="M6.816,19.74c-1.091,-1.635 -1.043,-3.778 0.12,-5.363c1.176,-1.604 2.734,-3.728 4.226,-5.762c1.13,-1.542 2.927,-2.452 4.838,-2.452c1.911,0 3.708,0.91 4.838,2.452c1.492,2.034 3.05,4.158 4.226,5.762c1.163,1.585 1.211,3.728 0.12,5.363c0,0.001 0,0.001 -0.001,0.002c-1.265,1.898 -3.704,2.623 -5.801,1.724c-0.635,-0.272 -1.265,-0.542 -1.806,-0.774c-1.007,-0.431 -2.145,-0.431 -3.152,0c-0.541,0.232 -1.171,0.502 -1.806,0.774c-2.097,0.899 -4.536,0.174 -5.801,-1.724c-0.001,-0.001 -0.001,-0.001 -0.001,-0.002Z" style="fill:#334cec;"/>
            <circle cx="11.5" cy="13.517" r="1.5" style="fill:#3ae07c;"/>
            <circle cx="20.5" cy="13.517" r="1.5" style="fill:#3ae07c;"/>
            <path d="M18,10.017c0,-0.553 -0.448,-1 -1,-1c-0.611,0 -1.389,0 -2,0c-0.552,0 -1,0.447 -1,1c0,0.552 0.448,1 1,1c0.611,0 1.389,0 2,0c0.552,0 1,-0.448 1,-1Z" style="fill:#3ae07c;"/>
            <path d="M12,16.517l2,2l2,-3l2,3l2,-2" style="fill:none;stroke:#1cb356;stroke-width:1.5px;"/>
        </g>
    </g>
</svg>
