<?xml version="1.0" encoding="UTF-8" standalone="no"?>
<!DOCTYPE svg PUBLIC "-//W3C//DTD SVG 1.1//EN" "http://www.w3.org/Graphics/SVG/1.1/DTD/svg11.dtd">
<svg width="100%" height="100%" viewBox="0 0 32 32" version="1.1" xmlns="http://www.w3.org/2000/svg" xmlns:xlink="http://www.w3.org/1999/xlink" xml:space="preserve" xmlns:serif="http://www.serif.com/" style="fill-rule:evenodd;clip-rule:evenodd;stroke-linecap:round;stroke-linejoin:round;stroke-miterlimit:1.5;">
    <rect id="clown" x="0" y="0.017" width="32" height="32" style="fill:none;"/>
    <clipPath id="_clip1">
        <rect x="0" y="0.017" width="32" height="32"/>
    </clipPath>
    <g clip-path="url(#_clip1)">
        <g id="outline">
            <path d="M16.733,2.65c0.833,-0.416 1.752,-0.633 2.683,-0.633c0.507,0 1.098,0 1.685,0c1.856,0 3.637,0.737 4.949,2.05c0.528,0.528 0.95,0.95 0.95,0.95l-2,1l0.839,0c1.888,0 3.564,1.208 4.161,2.999c0,0 0,0.001 0,0.001l-2,1c0,0 0,0 0,0c1.281,1.28 2,3.017 2,4.828c0,1.131 0,2.172 0,2.172l-1.13,-0.848c0.086,0.603 0.13,1.22 0.13,1.848c0,0 0,0 0,0c0,3.182 -1.264,6.235 -3.515,8.485c-2.25,2.25 -5.302,3.515 -8.485,3.515c-0.665,0 -1.335,0 -2,0c-3.183,0 -6.235,-1.265 -8.485,-3.515c-2.251,-2.25 -3.515,-5.303 -3.515,-8.485l0,0c0,-0.744 0.062,-1.473 0.182,-2.183l-1.182,1.183c0,0 0,-1.041 0,-2.172c0,-1.811 0.719,-3.548 2,-4.828c0,0 0,0 0,0l-2,-1c0,0 0,-0.001 0,-0.001c0.597,-1.791 2.273,-2.999 4.161,-2.999l0.839,0l-2,-1c0,0 0.422,-0.422 0.95,-0.95c1.312,-1.313 3.093,-2.05 4.949,-2.05c0.587,0 1.178,0 1.685,0c0.931,0 1.85,0.217 2.683,0.633c0.397,0.199 0.733,0.367 0.733,0.367l0.733,-0.367Z" style="fill:none;stroke:#000;stroke-width:4px;"/>
        </g>
        <g id="emoji">
            <path d="M16,3.017c0,0 -0.336,-0.168 -0.733,-0.367c-0.833,-0.416 -1.752,-0.633 -2.683,-0.633c-0.507,0 -1.098,0 -1.685,0c-1.856,0 -3.637,0.737 -4.949,2.05c-0.528,0.528 -0.95,0.95 -0.95,0.95l2,1l-0.839,0c-1.888,0 -3.564,1.208 -4.161,2.999c0,0 0,0.001 0,0.001l2,1c0,0 0,0 0,0c-1.281,1.28 -2,3.017 -2,4.828c0,1.131 0,2.172 0,2.172l3,-3l11,0l1,-1l0,-8l-1,-2Z" style="fill:#e02a33;"/>
            <path d="M16,3.017c0,0 0.336,-0.168 0.733,-0.367c0.833,-0.416 1.752,-0.633 2.683,-0.633c0.507,0 1.098,0 1.685,0c1.856,0 3.637,0.737 4.949,2.05c0.528,0.528 0.95,0.95 0.95,0.95l-2,1l0.839,0c1.888,0 3.564,1.208 4.161,2.999c0,0 0,0.001 0,0.001l-2,1c0,0 0,0 0,0c1.281,1.28 2,3.017 2,4.828c0,1.131 0,2.172 0,2.172l-4,-3l-10,0l-1,-1l0,-8l1,-2Z" style="fill:#e02a33;"/>
            <g>
                <path d="M3.246,20.413c-0.162,-0.769 -0.246,-1.578 -0.246,-2.396l0,0c0,-7.18 5.82,-13 13,-13c0,0 0,0 0,0c7.18,0 13,5.82 13,13c0,0 0,0 0,0c0,0.818 -0.084,1.627 -0.246,2.396c-0.259,-1.011 -25.249,-1.011 -25.508,0Z" style="fill:#fbc546;"/>
                <path d="M3.246,20.413c0.259,-1.011 0.782,-1.909 1.511,-2.639c0.151,-0.15 0.308,-0.292 0.472,-0.424c-0.15,-0.424 -0.229,-0.875 -0.229,-1.333c0,-0.813 0,-1.672 0,-2.5c0,-1.194 0.474,-2.338 1.318,-3.182c0.844,-0.844 1.989,-1.318 3.182,-1.318c0,0 0,0 0,0c1.193,0 2.338,0.474 3.182,1.318c0.844,0.844 1.318,1.988 1.318,3.182l0,2.5l4,0l0,-2.5c0,-1.194 0.474,-2.338 1.318,-3.182c0.844,-0.844 1.989,-1.318 3.182,-1.318c0,0 0,0 0,0c1.193,0 2.338,0.474 3.182,1.318c0.844,0.844 1.318,1.988 1.318,3.182c0,0.828 0,1.687 0,2.5c0,0.458 -0.079,0.909 -0.229,1.333c0.164,0.132 0.321,0.274 0.472,0.424c0.729,0.73 1.252,1.628 1.511,2.639c-0.469,2.303 -1.597,4.417 -3.269,6.089c-2.25,2.25 -5.302,3.515 -8.485,3.515c-0.665,0 -1.335,0 -2,0c-3.183,0 -6.235,-1.265 -8.485,-3.515c-1.672,-1.672 -2.8,-3.786 -3.269,-6.089Z" style="fill:#fff;"/>
            </g>
            <g>
                <path d="M9.443,25.54c-1.643,-1.415 -2.799,-3.34 -3.242,-5.523l19.598,0c-0.443,2.183 -1.599,4.108 -3.242,5.523c-1.09,-1.551 -12.024,-1.551 -13.114,0Z" style="fill:#722245;"/>
                <path d="M9.443,25.54c1.09,-1.551 2.9,-2.523 4.882,-2.523c1.09,0 2.26,0 3.35,0c1.982,0 3.792,0.972 4.882,2.523c-1.731,1.542 -4.036,2.477 -6.557,2.477c-2.521,0 -4.826,-0.935 -6.557,-2.477Z" style="fill:#ca3b8f;"/>
            </g>
            <ellipse cx="16" cy="16.517" rx="4" ry="2.5" style="fill:#e02a33;"/>
            <g>
                <path d="M11,11.517c0,-0.829 -0.672,-1.5 -1.5,-1.5c-0.828,0 -1.5,0.671 -1.5,1.5c0,0.916 0,2.083 0,3c0,0.828 0.672,1.5 1.5,1.5c0.828,0 1.5,-0.672 1.5,-1.5c0,-0.917 0,-2.084 0,-3Z"/>
                <path d="M24,11.515c0,-0.398 -0.158,-0.779 -0.439,-1.06c-0.281,-0.28 -0.662,-0.438 -1.059,-0.438c-0.001,0 -0.003,0 -0.004,0c-0.397,0 -0.778,0.158 -1.059,0.438c-0.281,0.281 -0.439,0.662 -0.439,1.06c0,0.917 0,2.087 0,3.004c0,0.397 0.158,0.778 0.439,1.059c0.281,0.281 0.662,0.439 1.059,0.439c0.001,0 0.003,0 0.004,0c0.397,0 0.778,-0.158 1.059,-0.439c0.281,-0.281 0.439,-0.662 0.439,-1.059c0,-0.917 0,-2.087 0,-3.004Z"/>
            </g>
        </g>
    </g>
</svg>
