<?xml version="1.0" encoding="UTF-8" standalone="no"?><!DOCTYPE svg PUBLIC "-//W3C//DTD SVG 1.1//EN" "http://www.w3.org/Graphics/SVG/1.1/DTD/svg11.dtd"><svg width="100%" height="100%" viewBox="0 0 32 32" version="1.1" xmlns="http://www.w3.org/2000/svg" xmlns:xlink="http://www.w3.org/1999/xlink" xml:space="preserve" xmlns:serif="http://www.serif.com/" style="fill-rule:evenodd;clip-rule:evenodd;stroke-linejoin:round;stroke-miterlimit:1.41421;"><rect id="cool_face" x="0" y="0" width="32" height="32" style="fill:none;"/><clipPath id="_clip1"><rect x="0" y="0" width="32" height="32"/></clipPath><g clip-path="url(#_clip1)"><g id="outline"><path d="M16.199,0.001l0.198,0.004l0.198,0.006l0.198,0.009l0.198,0.011l0.197,0.013l0.197,0.016l0.196,0.018l0.196,0.021l0.196,0.023l0.195,0.025l0.195,0.028l0.194,0.031l0.193,0.032l0.194,0.035l0.192,0.037l0.192,0.04l0.191,0.042l0.191,0.044l0.19,0.047l0.189,0.048l0.189,0.051l0.188,0.054l0.187,0.056l0.187,0.058l0.186,0.06l0.185,0.062l0.184,0.065l0.183,0.067l0.183,0.069l0.181,0.071l0.181,0.074l0.18,0.076l0.179,0.078l0.178,0.08l0.177,0.082l0.176,0.085l0.174,0.086l0.174,0.089l0.173,0.091l0.172,0.093l0.171,0.095l0.169,0.097l0.169,0.1l0.167,0.101l0.166,0.104l0.165,0.105l0.164,0.108l0.162,0.11l0.161,0.112l0.16,0.114l0.159,0.116l0.157,0.118l0.156,0.12l0.155,0.121l0.153,0.124l0.152,0.126l0.15,0.128l0.149,0.13l0.148,0.132l0.146,0.134l0.144,0.136l0.143,0.138l0.141,0.139l0.126,0.127l0.124,0.128l0.122,0.13l0.121,0.13l0.119,0.132l0.118,0.133l0.116,0.134l0.114,0.135l0.113,0.136l0.104,0.129l3.51,0l0,7l-0.284,0l0.016,0.081l0.032,0.179l0.03,0.18l0.028,0.181l0.026,0.181l0.024,0.181l0.022,0.182l0.02,0.182l0.018,0.182l0.016,0.183l0.014,0.183l0.012,0.184l0.009,0.183l0.007,0.184l0.006,0.185l0.003,0.184l0.001,0.179l0,2.012l-0.001,0.174l-0.004,0.18l-0.005,0.18l-0.008,0.179l-0.01,0.178l-0.013,0.178l-0.014,0.177l-0.017,0.177l-0.019,0.176l-0.021,0.176l-0.024,0.174l-0.025,0.175l-0.028,0.173l-0.03,0.173l-0.031,0.172l-0.034,0.171l-0.036,0.171l-0.038,0.17l-0.041,0.169l-0.042,0.168l-0.044,0.168l-0.046,0.167l-0.049,0.165l-0.05,0.165l-0.052,0.165l-0.054,0.163l-0.056,0.162l-0.058,0.162l-0.06,0.16l-0.062,0.16l-0.063,0.158l-0.066,0.158l-0.067,0.157l-0.07,0.155l-0.071,0.155l-0.073,0.154l-0.074,0.152l-0.077,0.152l-0.078,0.15l-0.08,0.15l-0.082,0.148l-0.083,0.147l-0.085,0.146l-0.087,0.145l-0.089,0.144l-0.09,0.142l-0.092,0.142l-0.093,0.14l-0.095,0.139l-0.097,0.138l-0.098,0.136l-0.1,0.136l-0.102,0.134l-0.103,0.132l-0.105,0.132l-0.106,0.13l-0.107,0.129l-0.109,0.128l-0.111,0.126l-0.112,0.125l-0.114,0.123l-0.115,0.122l-0.117,0.121l-0.117,0.119l-0.12,0.118l-0.121,0.117l-0.122,0.115l-0.123,0.114l-0.125,0.112l-0.126,0.11l-0.128,0.11l-0.129,0.107l-0.13,0.107l-0.132,0.104l-0.132,0.103l-0.134,0.102l-0.136,0.1l-0.136,0.098l-0.138,0.097l-0.139,0.095l-0.14,0.093l-0.142,0.092l-0.142,0.09l-0.144,0.089l-0.145,0.087l-0.146,0.085l-0.147,0.083l-0.148,0.082l-0.15,0.08l-0.15,0.078l-0.152,0.077l-0.152,0.074l-0.154,0.073l-0.155,0.071l-0.155,0.07l-0.157,0.067l-0.158,0.066l-0.158,0.063l-0.16,0.062l-0.16,0.06l-0.162,0.058l-0.162,0.056l-0.163,0.054l-0.165,0.052l-0.164,0.05l-0.166,0.049l-0.167,0.046l-0.168,0.044l-0.168,0.042l-0.169,0.041l-0.17,0.038l-0.171,0.036l-0.171,0.034l-0.172,0.031l-0.173,0.03l-0.173,0.028l-0.175,0.025l-0.174,0.024l-0.176,0.021l-0.176,0.019l-0.177,0.017l-0.177,0.014l-0.178,0.013l-0.178,0.01l-0.179,0.008l-0.18,0.005l-0.18,0.004l-0.174,0.001l-4.012,0l-0.174,-0.001l-0.18,-0.004l-0.18,-0.005l-0.179,-0.008l-0.178,-0.01l-0.178,-0.013l-0.177,-0.014l-0.177,-0.017l-0.176,-0.019l-0.176,-0.021l-0.174,-0.024l-0.175,-0.025l-0.173,-0.028l-0.173,-0.03l-0.172,-0.031l-0.171,-0.034l-0.171,-0.036l-0.17,-0.038l-0.169,-0.041l-0.168,-0.042l-0.168,-0.044l-0.167,-0.046l-0.166,-0.049l-0.164,-0.05l-0.165,-0.052l-0.163,-0.054l-0.162,-0.056l-0.162,-0.058l-0.16,-0.06l-0.16,-0.062l-0.158,-0.063l-0.158,-0.066l-0.157,-0.067l-0.155,-0.07l-0.155,-0.071l-0.154,-0.073l-0.152,-0.074l-0.152,-0.077l-0.15,-0.078l-0.15,-0.08l-0.148,-0.082l-0.147,-0.083l-0.146,-0.085l-0.145,-0.087l-0.144,-0.089l-0.142,-0.09l-0.142,-0.092l-0.14,-0.093l-0.139,-0.095l-0.138,-0.097l-0.136,-0.098l-0.136,-0.1l-0.134,-0.102l-0.132,-0.103l-0.132,-0.104l-0.13,-0.107l-0.129,-0.107l-0.128,-0.11l-0.126,-0.11l-0.125,-0.112l-0.123,-0.114l-0.122,-0.115l-0.121,-0.117l-0.12,-0.118l-0.117,-0.119l-0.117,-0.121l-0.115,-0.122l-0.114,-0.123l-0.112,-0.125l-0.111,-0.126l-0.109,-0.128l-0.107,-0.129l-0.106,-0.13l-0.105,-0.132l-0.103,-0.132l-0.102,-0.134l-0.1,-0.136l-0.098,-0.136l-0.097,-0.138l-0.095,-0.139l-0.093,-0.14l-0.092,-0.142l-0.09,-0.142l-0.089,-0.144l-0.087,-0.145l-0.085,-0.146l-0.083,-0.147l-0.082,-0.148l-0.08,-0.15l-0.078,-0.15l-0.077,-0.152l-0.074,-0.152l-0.073,-0.154l-0.071,-0.155l-0.07,-0.155l-0.067,-0.157l-0.066,-0.158l-0.063,-0.158l-0.062,-0.16l-0.06,-0.16l-0.058,-0.162l-0.056,-0.162l-0.054,-0.163l-0.052,-0.165l-0.05,-0.165l-0.049,-0.165l-0.046,-0.167l-0.044,-0.168l-0.042,-0.168l-0.041,-0.169l-0.038,-0.17l-0.036,-0.171l-0.034,-0.171l-0.031,-0.172l-0.03,-0.173l-0.028,-0.173l-0.025,-0.175l-0.024,-0.174l-0.021,-0.176l-0.019,-0.176l-0.017,-0.177l-0.014,-0.177l-0.013,-0.178l-0.01,-0.178l-0.008,-0.179l-0.005,-0.18l-0.004,-0.18l-0.001,-0.174l0,-2.011l0.001,-0.143l0.002,-0.148l0.003,-0.148l0.005,-0.148l0.006,-0.147l0.007,-0.147l0.009,-0.146l0.01,-0.147l0.011,-0.146l0.013,-0.145l0.014,-0.145l0.015,-0.145l0.016,-0.145l0.012,-0.095l-0.124,0l0,-8l3.509,0l0.072,-0.088l0.075,-0.092l0.075,-0.091l0.076,-0.09l0.077,-0.089l0.078,-0.09l0.078,-0.088l0.078,-0.088l0.08,-0.087l0.08,-0.087l0.081,-0.086l0.081,-0.086l0.082,-0.085l0.082,-0.084l0.083,-0.084l0.084,-0.083l0.085,-0.083l0.085,-0.081l0.085,-0.082l0.086,-0.08l0.087,-0.08l0.087,-0.08l0.088,-0.079l0.089,-0.078l0.089,-0.077l0.09,-0.077l0.09,-0.076l0.091,-0.076l0.091,-0.074l0.092,-0.075l0.093,-0.073l0.093,-0.073l0.093,-0.072l0.095,-0.072l0.094,-0.071l0.096,-0.07l0.095,-0.069l0.097,-0.069l0.097,-0.068l0.097,-0.067l0.098,-0.067l0.098,-0.066l0.099,-0.065l0.1,-0.065l0.1,-0.063l0.1,-0.064l0.101,-0.062l0.102,-0.062l0.102,-0.061l0.102,-0.06l0.103,-0.059l0.104,-0.059l0.104,-0.058l0.104,-0.057l0.105,-0.057l0.105,-0.055l0.106,-0.055l0.106,-0.055l0.107,-0.053l0.107,-0.053l0.108,-0.051l0.108,-0.052l0.109,-0.05l0.109,-0.049l0.109,-0.049l0.11,-0.048l0.11,-0.047l0.111,-0.046l0.111,-0.046l0.112,-0.045l0.112,-0.044l0.112,-0.043l0.113,-0.042l0.113,-0.041l0.114,-0.041l0.114,-0.04l0.114,-0.039l0.115,-0.038l0.115,-0.037l0.115,-0.037l0.116,-0.035l0.117,-0.035l0.116,-0.034l0.117,-0.033l0.118,-0.032l0.117,-0.031l0.118,-0.03l0.119,-0.03l0.119,-0.028l0.119,-0.028l0.119,-0.027l0.12,-0.026l0.12,-0.025l0.12,-0.024l0.121,-0.023l0.121,-0.023l0.121,-0.021l0.122,-0.021l0.122,-0.019l0.122,-0.019l0.123,-0.018l0.123,-0.017l0.123,-0.015l0.123,-0.015l0.124,-0.014l0.124,-0.014l0.124,-0.012l0.124,-0.011l0.125,-0.01l0.125,-0.009l0.125,-0.009l0.126,-0.007l0.125,-0.006l0.126,-0.006l0.126,-0.004l0.127,-0.004l0.126,-0.002l0.127,-0.002l0.123,0l0.01,0l0.193,0.001Zm-0.295,3.999l-0.095,0.002l-0.096,0.001l-0.095,0.003l-0.095,0.003l-0.095,0.004l-0.094,0.005l-0.095,0.006l-0.094,0.006l-0.094,0.007l-0.093,0.008l-0.094,0.008l-0.093,0.009l-0.093,0.01l-0.093,0.01l-0.093,0.012l-0.092,0.012l-0.092,0.012l-0.092,0.013l-0.092,0.014l-0.091,0.015l-0.091,0.015l-0.091,0.017l-0.091,0.016l-0.09,0.018l-0.09,0.018l-0.09,0.019l-0.09,0.019l-0.089,0.02l-0.089,0.021l-0.089,0.021l-0.089,0.022l-0.088,0.023l-0.088,0.023l-0.088,0.024l-0.088,0.025l-0.087,0.025l-0.087,0.026l-0.087,0.027l-0.086,0.027l-0.086,0.028l-0.086,0.029l-0.086,0.029l-0.085,0.03l-0.085,0.03l-0.085,0.031l-0.084,0.032l-0.084,0.032l-0.084,0.033l-0.084,0.033l-0.083,0.034l-0.083,0.035l-0.082,0.035l-0.083,0.036l-0.082,0.037l-0.081,0.037l-0.081,0.037l-0.081,0.039l-0.081,0.039l-0.08,0.039l-0.08,0.04l-0.08,0.041l-0.079,0.041l-0.079,0.041l-0.079,0.043l-0.078,0.043l-0.078,0.043l-0.078,0.044l-0.077,0.045l-0.077,0.045l-0.076,0.046l-0.076,0.046l-0.076,0.047l-0.075,0.047l-0.075,0.048l-0.075,0.048l-0.074,0.049l-0.074,0.05l-0.074,0.05l-0.073,0.05l-0.072,0.051l-0.073,0.052l-0.072,0.052l-0.071,0.053l-0.071,0.053l-0.071,0.054l-0.07,0.054l-0.07,0.055l-0.07,0.055l-0.069,0.056l-0.068,0.056l-0.069,0.056l-0.067,0.058l-0.068,0.057l-0.067,0.059l-0.066,0.058l-0.066,0.059l-0.066,0.06l-0.065,0.06l-0.065,0.061l-0.064,0.061l-0.064,0.061l-0.063,0.062l-0.063,0.063l-0.063,0.063l-0.062,0.063l-0.061,0.064l-0.061,0.064l-0.061,0.065l-0.06,0.065l-0.06,0.066l-0.059,0.066l-0.059,0.066l-0.058,0.067l-0.058,0.068l-0.057,0.067l-0.057,0.069l-0.056,0.068l-0.056,0.069l-0.055,0.07l-0.055,0.07l-0.054,0.07l-0.054,0.071l-0.053,0.071l-0.052,0.071l-0.053,0.072l-0.051,0.072l-0.653,0.929l-0.718,0l0.301,0.402l-0.664,2.27l-0.029,0.103l-0.028,0.102l-0.027,0.103l-0.027,0.104l-0.025,0.103l-0.025,0.105l-0.023,0.104l-0.023,0.105l-0.022,0.105l-0.02,0.105l-0.02,0.106l-0.019,0.106l-0.018,0.107l-0.017,0.107l-0.017,0.107l-0.015,0.107l-0.014,0.108l-0.014,0.108l-0.012,0.109l-0.011,0.108l-0.011,0.109l-0.009,0.11l-0.009,0.109l-0.007,0.11l-0.007,0.111l-0.005,0.11l-0.005,0.111l-0.003,0.111l-0.003,0.111l-0.001,0.112l-0.001,0.117l0,1.989l0.001,0.136l0.002,0.129l0.004,0.129l0.006,0.128l0.007,0.128l0.009,0.128l0.011,0.126l0.012,0.127l0.013,0.126l0.015,0.125l0.017,0.125l0.018,0.124l0.02,0.124l0.021,0.124l0.023,0.122l0.024,0.122l0.026,0.122l0.027,0.121l0.029,0.121l0.03,0.12l0.031,0.119l0.033,0.119l0.035,0.118l0.035,0.117l0.037,0.117l0.039,0.117l0.04,0.115l0.041,0.115l0.043,0.115l0.044,0.113l0.045,0.114l0.047,0.112l0.048,0.111l0.049,0.112l0.051,0.11l0.052,0.109l0.053,0.109l0.055,0.108l0.056,0.108l0.057,0.106l0.058,0.106l0.06,0.105l0.061,0.104l0.062,0.104l0.063,0.103l0.064,0.101l0.066,0.101l0.067,0.101l0.068,0.099l0.069,0.099l0.07,0.097l0.072,0.097l0.072,0.096l0.074,0.095l0.075,0.094l0.076,0.093l0.077,0.092l0.078,0.092l0.079,0.09l0.08,0.089l0.082,0.089l0.082,0.087l0.084,0.087l0.084,0.085l0.085,0.084l0.087,0.084l0.087,0.082l0.089,0.082l0.089,0.08l0.09,0.079l0.092,0.078l0.092,0.077l0.093,0.076l0.094,0.075l0.095,0.074l0.096,0.072l0.097,0.072l0.097,0.07l0.099,0.069l0.099,0.068l0.1,0.067l0.102,0.066l0.101,0.064l0.103,0.063l0.104,0.062l0.104,0.061l0.105,0.06l0.106,0.058l0.106,0.057l0.108,0.056l0.108,0.055l0.109,0.053l0.109,0.052l0.111,0.051l0.11,0.049l0.112,0.048l0.113,0.047l0.113,0.045l0.113,0.044l0.115,0.043l0.115,0.041l0.115,0.04l0.117,0.039l0.117,0.037l0.117,0.035l0.118,0.035l0.119,0.033l0.119,0.031l0.12,0.03l0.121,0.029l0.121,0.027l0.122,0.026l0.122,0.024l0.123,0.023l0.123,0.021l0.124,0.02l0.124,0.018l0.125,0.017l0.125,0.015l0.126,0.013l0.126,0.012l0.127,0.011l0.128,0.009l0.128,0.007l0.128,0.006l0.129,0.004l0.129,0.002l0.136,0.001l3.988,0l0.136,-0.001l0.129,-0.002l0.129,-0.004l0.128,-0.006l0.128,-0.007l0.128,-0.009l0.127,-0.011l0.126,-0.012l0.126,-0.013l0.125,-0.015l0.125,-0.017l0.124,-0.018l0.124,-0.02l0.123,-0.021l0.123,-0.023l0.122,-0.024l0.122,-0.026l0.121,-0.027l0.121,-0.029l0.12,-0.03l0.119,-0.031l0.119,-0.033l0.118,-0.035l0.117,-0.035l0.117,-0.037l0.117,-0.039l0.115,-0.04l0.115,-0.041l0.115,-0.043l0.113,-0.044l0.113,-0.045l0.113,-0.047l0.112,-0.048l0.11,-0.049l0.111,-0.051l0.109,-0.052l0.109,-0.053l0.108,-0.055l0.108,-0.056l0.106,-0.057l0.106,-0.058l0.105,-0.06l0.104,-0.061l0.104,-0.062l0.103,-0.063l0.101,-0.064l0.102,-0.066l0.1,-0.067l0.099,-0.068l0.099,-0.069l0.097,-0.07l0.097,-0.072l0.096,-0.072l0.095,-0.074l0.094,-0.075l0.093,-0.076l0.092,-0.077l0.092,-0.078l0.09,-0.079l0.089,-0.08l0.089,-0.082l0.087,-0.082l0.087,-0.084l0.085,-0.084l0.084,-0.085l0.084,-0.087l0.082,-0.087l0.082,-0.089l0.08,-0.089l0.079,-0.09l0.078,-0.092l0.077,-0.092l0.076,-0.093l0.075,-0.094l0.074,-0.095l0.072,-0.096l0.072,-0.097l0.07,-0.097l0.069,-0.099l0.068,-0.099l0.067,-0.101l0.066,-0.101l0.064,-0.101l0.063,-0.103l0.062,-0.104l0.061,-0.104l0.06,-0.105l0.058,-0.106l0.057,-0.106l0.056,-0.108l0.055,-0.108l0.053,-0.109l0.052,-0.109l0.051,-0.11l0.049,-0.112l0.048,-0.111l0.047,-0.112l0.045,-0.114l0.044,-0.113l0.043,-0.115l0.041,-0.115l0.04,-0.115l0.039,-0.117l0.037,-0.117l0.035,-0.117l0.035,-0.118l0.033,-0.119l0.031,-0.119l0.03,-0.12l0.029,-0.121l0.027,-0.121l0.026,-0.122l0.024,-0.122l0.023,-0.122l0.021,-0.124l0.02,-0.124l0.018,-0.124l0.017,-0.125l0.015,-0.125l0.013,-0.126l0.012,-0.127l0.011,-0.126l0.009,-0.128l0.007,-0.128l0.006,-0.128l0.004,-0.129l0.002,-0.129l0.001,-0.136l0,-1.988l-0.001,-0.145l-0.002,-0.138l-0.004,-0.138l-0.006,-0.138l-0.007,-0.138l-0.009,-0.138l-0.01,-0.137l-0.012,-0.137l-0.013,-0.137l-0.015,-0.137l-0.017,-0.136l-0.018,-0.136l-0.019,-0.135l-0.022,-0.136l-0.022,-0.135l-0.024,-0.134l-0.026,-0.135l-0.027,-0.133l-0.029,-0.134l-0.03,-0.133l-0.032,-0.133l-0.033,-0.132l-0.035,-0.132l-0.036,-0.131l-0.038,-0.131l-0.039,-0.131l-0.041,-0.13l-0.042,-0.129l-0.043,-0.129l-0.045,-0.128l-0.047,-0.128l-0.692,-1.842l-0.112,0l-0.68,-0.965l-0.078,-0.107l-0.078,-0.107l-0.08,-0.105l-0.081,-0.105l-0.082,-0.104l-0.083,-0.103l-0.085,-0.103l-0.086,-0.101l-0.087,-0.101l-0.088,-0.099l-0.089,-0.099l-0.091,-0.098l-0.092,-0.097l-0.093,-0.096l-0.093,-0.095l-0.107,-0.105l-0.107,-0.103l-0.108,-0.102l-0.11,-0.101l-0.111,-0.099l-0.111,-0.097l-0.113,-0.096l-0.114,-0.094l-0.115,-0.093l-0.116,-0.092l-0.117,-0.09l-0.118,-0.088l-0.119,-0.087l-0.12,-0.086l-0.121,-0.083l-0.121,-0.083l-0.123,-0.081l-0.124,-0.079l-0.124,-0.077l-0.126,-0.077l-0.126,-0.074l-0.127,-0.073l-0.128,-0.071l-0.129,-0.07l-0.13,-0.068l-0.13,-0.067l-0.132,-0.065l-0.132,-0.063l-0.132,-0.062l-0.134,-0.06l-0.134,-0.059l-0.135,-0.057l-0.135,-0.055l-0.137,-0.053l-0.136,-0.052l-0.138,-0.05l-0.138,-0.049l-0.139,-0.047l-0.139,-0.045l-0.14,-0.043l-0.141,-0.042l-0.14,-0.04l-0.142,-0.038l-0.142,-0.037l-0.143,-0.035l-0.143,-0.033l-0.143,-0.032l-0.144,-0.029l-0.144,-0.028l-0.145,-0.026l-0.145,-0.025l-0.146,-0.022l-0.146,-0.021l-0.146,-0.019l-0.147,-0.018l-0.147,-0.015l-0.147,-0.014l-0.148,-0.012l-0.148,-0.01l-0.148,-0.008l-0.148,-0.007l-0.149,-0.004l-0.149,-0.003l-0.151,-0.001l-0.094,0Z"/></g><g id="emoji"><path d="M30,16c0,-3.713 -1.475,-7.274 -4.101,-9.899c-2.625,-2.626 -6.186,-4.101 -9.899,-4.101c0,0 0,0 0,0c-7.732,0 -14,6.268 -14,14c0,0.669 0,1.337 0,2c0,6.627 5.373,12 12,12c1.325,0 2.675,0 4,0c6.627,0 12,-5.373 12,-12c0,-0.663 0,-1.331 0,-2Z" style="fill:#fbc546;"/><path d="M10.102,20.005l0.068,0.01l0.067,0.013l0.066,0.019l0.064,0.023l0.062,0.027l0.061,0.031l0.058,0.036l0.056,0.039l0.053,0.043l0.05,0.047l0.877,0.877l0.057,0.056l0.056,0.054l0.056,0.053l0.057,0.052l0.058,0.052l0.058,0.05l0.059,0.05l0.059,0.049l0.06,0.049l0.06,0.047l0.061,0.047l0.061,0.046l0.062,0.045l0.062,0.045l0.063,0.043l0.064,0.043l0.064,0.042l0.064,0.042l0.065,0.04l0.065,0.039l0.066,0.039l0.066,0.038l0.066,0.037l0.067,0.037l0.068,0.035l0.068,0.035l0.068,0.034l0.069,0.033l0.069,0.032l0.069,0.031l0.07,0.03l0.07,0.03l0.071,0.029l0.07,0.027l0.072,0.027l0.071,0.026l0.072,0.026l0.072,0.024l0.073,0.024l0.072,0.022l0.073,0.022l0.074,0.021l0.073,0.02l0.074,0.019l0.074,0.018l0.075,0.017l0.074,0.017l0.075,0.015l0.075,0.014l0.076,0.014l0.075,0.013l0.076,0.012l0.076,0.01l0.076,0.01l0.076,0.009l0.077,0.008l0.076,0.008l0.077,0.006l0.077,0.005l0.077,0.004l0.077,0.004l0.078,0.002l0.077,0.001l0.078,0.001l0.078,-0.001l0.077,-0.001l0.078,-0.002l0.077,-0.004l0.077,-0.004l0.077,-0.005l0.077,-0.006l0.076,-0.008l0.077,-0.008l0.076,-0.009l0.076,-0.01l0.076,-0.01l0.076,-0.012l0.075,-0.013l0.076,-0.014l0.075,-0.014l0.075,-0.015l0.074,-0.017l0.075,-0.017l0.074,-0.018l0.074,-0.019l0.073,-0.02l0.074,-0.021l0.073,-0.022l0.072,-0.022l0.073,-0.024l0.072,-0.024l0.072,-0.026l0.071,-0.026l0.072,-0.027l0.07,-0.027l0.071,-0.029l0.07,-0.03l0.07,-0.03l0.069,-0.031l0.069,-0.032l0.069,-0.033l0.068,-0.034l0.068,-0.035l0.068,-0.035l0.067,-0.037l0.066,-0.037l0.066,-0.038l0.066,-0.039l0.065,-0.039l0.065,-0.04l0.064,-0.042l0.064,-0.042l0.064,-0.043l0.063,-0.043l0.062,-0.045l0.062,-0.045l0.061,-0.046l0.061,-0.047l0.06,-0.047l0.06,-0.049l0.059,-0.049l0.059,-0.05l0.058,-0.05l0.058,-0.052l0.057,-0.052l0.056,-0.053l0.056,-0.054l0.057,-0.056l0.877,-0.877l0.05,-0.047l0.053,-0.043l0.056,-0.039l0.058,-0.036l0.061,-0.031l0.062,-0.027l0.064,-0.023l0.066,-0.019l0.067,-0.013l0.068,-0.01l0.068,-0.004l0.068,0l0.068,0.004l0.068,0.01l0.067,0.013l0.066,0.019l0.064,0.023l0.062,0.027l0.061,0.031l0.058,0.036l0.056,0.039l0.053,0.043l0.05,0.047l0.047,0.05l0.043,0.053l0.039,0.056l0.036,0.058l0.031,0.061l0.027,0.062l0.023,0.064l0.019,0.066l0.013,0.067l0.01,0.068l0.004,0.068l0,0.068l-0.004,0.068l-0.01,0.068l-0.013,0.067l-0.019,0.066l-0.023,0.064l-0.027,0.062l-0.031,0.061l-0.036,0.058l-0.039,0.056l-0.043,0.053l-0.047,0.05l-0.881,0.881l-0.071,0.07l-0.073,0.071l-0.075,0.07l-0.075,0.069l-0.076,0.068l-0.077,0.067l-0.077,0.066l-0.078,0.064l-0.079,0.064l-0.08,0.063l-0.08,0.062l-0.081,0.061l-0.082,0.059l-0.082,0.059l-0.083,0.058l-0.084,0.056l-0.084,0.056l-0.085,0.054l-0.086,0.054l-0.086,0.052l-0.087,0.051l-0.087,0.05l-0.088,0.049l-0.089,0.048l-0.089,0.047l-0.089,0.046l-0.09,0.044l-0.091,0.044l-0.091,0.042l-0.092,0.041l-0.092,0.041l-0.093,0.039l-0.093,0.038l-0.093,0.036l-0.094,0.036l-0.095,0.034l-0.095,0.034l-0.095,0.032l-0.095,0.031l-0.097,0.03l-0.096,0.028l-0.097,0.028l-0.097,0.026l-0.098,0.025l-0.098,0.024l-0.098,0.023l-0.098,0.022l-0.099,0.02l-0.099,0.019l-0.1,0.018l-0.1,0.017l-0.1,0.016l-0.1,0.014l-0.1,0.013l-0.101,0.012l-0.101,0.011l-0.101,0.009l-0.102,0.008l-0.101,0.007l-0.102,0.006l-0.102,0.004l-0.102,0.003l-0.102,0.002l-0.1,0.001l-0.006,0l-0.1,-0.001l-0.102,-0.002l-0.102,-0.003l-0.102,-0.004l-0.102,-0.006l-0.101,-0.007l-0.102,-0.008l-0.101,-0.009l-0.101,-0.011l-0.101,-0.012l-0.1,-0.013l-0.1,-0.014l-0.1,-0.016l-0.1,-0.017l-0.1,-0.018l-0.099,-0.019l-0.099,-0.02l-0.098,-0.022l-0.098,-0.023l-0.098,-0.024l-0.098,-0.025l-0.097,-0.026l-0.097,-0.028l-0.096,-0.028l-0.097,-0.03l-0.095,-0.031l-0.095,-0.032l-0.095,-0.034l-0.095,-0.034l-0.094,-0.036l-0.093,-0.036l-0.093,-0.038l-0.093,-0.039l-0.092,-0.041l-0.092,-0.041l-0.091,-0.042l-0.091,-0.044l-0.09,-0.044l-0.089,-0.046l-0.089,-0.047l-0.089,-0.048l-0.088,-0.049l-0.087,-0.05l-0.087,-0.051l-0.086,-0.052l-0.086,-0.054l-0.085,-0.054l-0.084,-0.056l-0.084,-0.056l-0.083,-0.058l-0.082,-0.059l-0.082,-0.059l-0.081,-0.061l-0.08,-0.062l-0.08,-0.063l-0.079,-0.064l-0.078,-0.064l-0.077,-0.066l-0.077,-0.067l-0.076,-0.068l-0.075,-0.069l-0.075,-0.07l-0.073,-0.071l-0.071,-0.07l-0.881,-0.881l-0.047,-0.05l-0.043,-0.053l-0.039,-0.056l-0.036,-0.058l-0.031,-0.061l-0.027,-0.062l-0.023,-0.064l-0.019,-0.066l-0.013,-0.067l-0.01,-0.068l-0.004,-0.068l0,-0.068l0.004,-0.068l0.01,-0.068l0.013,-0.067l0.019,-0.066l0.023,-0.064l0.027,-0.062l0.031,-0.061l0.036,-0.058l0.039,-0.056l0.043,-0.053l0.047,-0.05l0.05,-0.047l0.053,-0.043l0.056,-0.039l0.058,-0.036l0.061,-0.031l0.062,-0.027l0.064,-0.023l0.066,-0.019l0.067,-0.013l0.068,-0.01l0.068,-0.004l0.068,0l0.068,0.004Z" style="fill:#593604;"/><path d="M2,8l28,0l0,3l-1,0c0,0 0,1.432 0,3c0,2.209 -1.791,4 -4,4c-1.359,0 -2.779,0 -3.757,0c-0.796,0 -1.559,-0.316 -2.122,-0.879c-0.391,-0.391 -0.851,-0.851 -1.242,-1.242c-0.563,-0.563 -0.879,-1.326 -0.879,-2.122c0,-0.825 0,-1.757 0,-1.757l-2,0c0,0 0,0.932 0,1.757c0,0.796 -0.316,1.559 -0.879,2.122c-0.391,0.391 -0.851,0.851 -1.242,1.242c-0.563,0.563 -1.326,0.879 -2.122,0.879c-0.978,0 -2.398,0 -3.757,0c-1.061,0 -2.078,-0.421 -2.828,-1.172c-0.751,-0.75 -1.172,-1.767 -1.172,-2.828c0,-1.102 0,-2 0,-2l-1,0l0,-4Z" style="fill:#262626;"/><path d="M3,11c0,-1.657 1.343,-3 3,-3c1.832,0 4.168,0 6,0c0.796,0 1.559,0.316 2.121,0.879c0.563,0.562 0.879,1.325 0.879,2.121c0,0.969 0,1.989 0,2.757c0,0.796 -0.316,1.559 -0.879,2.122c-0.391,0.391 -0.851,0.851 -1.242,1.242c-0.563,0.563 -1.326,0.879 -2.122,0.879c-0.978,0 -2.398,0 -3.757,0c-1.061,0 -2.078,-0.421 -2.828,-1.172c-0.751,-0.75 -1.172,-1.767 -1.172,-2.828c0,-1.001 0,-2.057 0,-3Z" style="fill:none;"/><clipPath id="_clip2"><path d="M3,11c0,-1.657 1.343,-3 3,-3c1.832,0 4.168,0 6,0c0.796,0 1.559,0.316 2.121,0.879c0.563,0.562 0.879,1.325 0.879,2.121c0,0.969 0,1.989 0,2.757c0,0.796 -0.316,1.559 -0.879,2.122c-0.391,0.391 -0.851,0.851 -1.242,1.242c-0.563,0.563 -1.326,0.879 -2.122,0.879c-0.978,0 -2.398,0 -3.757,0c-1.061,0 -2.078,-0.421 -2.828,-1.172c-0.751,-0.75 -1.172,-1.767 -1.172,-2.828c0,-1.001 0,-2.057 0,-3Z"/></clipPath><g clip-path="url(#_clip2)"><path d="M14,9l0,5l-3,3l-5,0l-2,-2l0,-5l1,-1l9,0Z" style="fill:none;"/><clipPath id="_clip3"><path d="M14,9l0,5l-3,3l-5,0l-2,-2l0,-5l1,-1l9,0Z"/></clipPath><g clip-path="url(#_clip3)"><path d="M13,7l5,0l-13,13l-5,0l13,-13Z" style="fill:#b4b4b4;"/></g></g><path d="M12.074,8.001l0.075,0.003l0.074,0.004l0.074,0.007l0.073,0.008l0.073,0.01l0.073,0.012l0.072,0.013l0.072,0.015l0.071,0.017l0.071,0.019l0.071,0.021l0.069,0.022l0.07,0.024l0.068,0.025l0.068,0.027l0.067,0.029l0.067,0.031l0.066,0.032l0.065,0.033l0.064,0.036l0.063,0.037l0.063,0.038l0.061,0.04l0.061,0.042l0.06,0.043l0.059,0.044l0.057,0.046l0.057,0.048l0.056,0.049l0.054,0.051l0.053,0.052l0.052,0.053l0.051,0.054l0.049,0.056l0.048,0.057l0.046,0.057l0.044,0.059l0.043,0.06l0.042,0.061l0.04,0.061l0.038,0.063l0.037,0.063l0.036,0.064l0.033,0.065l0.032,0.066l0.031,0.067l0.029,0.067l0.027,0.068l0.025,0.068l0.024,0.07l0.022,0.07l0.021,0.07l0.019,0.071l0.017,0.071l0.015,0.072l0.013,0.072l0.012,0.073l0.01,0.073l0.008,0.073l0.007,0.074l0.004,0.074l0.003,0.075l0.001,0.074l0,2.757l-0.001,0.075l-0.003,0.074l-0.004,0.074l-0.007,0.074l-0.008,0.073l-0.01,0.073l-0.012,0.073l-0.013,0.072l-0.015,0.072l-0.017,0.072l-0.019,0.07l-0.021,0.071l-0.022,0.07l-0.024,0.069l-0.025,0.068l-0.027,0.068l-0.029,0.068l-0.031,0.066l-0.032,0.066l-0.033,0.065l-0.036,0.064l-0.037,0.064l-0.038,0.062l-0.04,0.062l-0.042,0.06l-0.043,0.06l-0.044,0.059l-0.046,0.058l-0.048,0.056l-0.049,0.056l-0.051,0.054l-0.052,0.054l-1.242,1.242l-0.054,0.052l-0.054,0.051l-0.056,0.049l-0.056,0.048l-0.058,0.046l-0.059,0.044l-0.06,0.043l-0.06,0.042l-0.062,0.04l-0.062,0.038l-0.064,0.037l-0.064,0.036l-0.065,0.033l-0.066,0.032l-0.066,0.031l-0.068,0.029l-0.068,0.027l-0.068,0.025l-0.069,0.024l-0.07,0.022l-0.071,0.021l-0.07,0.019l-0.072,0.017l-0.072,0.015l-0.072,0.013l-0.073,0.012l-0.073,0.01l-0.073,0.008l-0.074,0.007l-0.074,0.004l-0.074,0.003l-0.075,0.001l-3.757,0l-0.099,-0.001l-0.099,-0.004l-0.099,-0.006l-0.098,-0.009l-0.098,-0.011l-0.098,-0.013l-0.097,-0.016l-0.096,-0.018l-0.096,-0.02l-0.095,-0.023l-0.095,-0.025l-0.093,-0.027l-0.093,-0.029l-0.093,-0.032l-0.091,-0.034l-0.091,-0.036l-0.089,-0.039l-0.089,-0.041l-0.088,-0.042l-0.087,-0.045l-0.085,-0.047l-0.085,-0.049l-0.083,-0.052l-0.082,-0.053l-0.081,-0.055l-0.08,-0.058l-0.078,-0.059l-0.077,-0.062l-0.076,-0.063l-0.074,-0.066l-0.072,-0.067l-0.071,-0.07l-0.07,-0.071l-0.067,-0.072l-0.066,-0.074l-0.063,-0.076l-0.062,-0.077l-0.059,-0.078l-0.058,-0.08l-0.055,-0.081l-0.053,-0.082l-0.052,-0.083l-0.049,-0.085l-0.047,-0.085l-0.045,-0.087l-0.042,-0.088l-0.041,-0.089l-0.039,-0.089l-0.036,-0.091l-0.034,-0.091l-0.032,-0.093l-0.029,-0.093l-0.027,-0.093l-0.025,-0.095l-0.023,-0.095l-0.02,-0.096l-0.018,-0.096l-0.016,-0.097l-0.013,-0.098l-0.011,-0.098l-0.009,-0.098l-0.006,-0.099l-0.004,-0.099l-0.001,-0.099l0,-3l0.001,-0.077l0.003,-0.077l0.005,-0.077l0.006,-0.076l0.009,-0.075l0.011,-0.075l0.012,-0.074l0.014,-0.074l0.016,-0.073l0.017,-0.072l0.02,-0.071l0.021,-0.071l0.023,-0.07l0.024,-0.069l0.026,-0.069l0.028,-0.068l0.029,-0.067l0.031,-0.066l0.032,-0.065l0.034,-0.064l0.035,-0.063l0.037,-0.063l0.039,-0.061l0.039,-0.06l0.041,-0.06l0.043,-0.058l0.044,-0.057l0.045,-0.056l0.047,-0.055l0.047,-0.054l0.049,-0.053l0.051,-0.051l0.051,-0.051l0.053,-0.049l0.054,-0.047l0.055,-0.047l0.056,-0.045l0.057,-0.044l0.058,-0.043l0.06,-0.041l0.06,-0.039l0.061,-0.039l0.063,-0.037l0.063,-0.035l0.064,-0.034l0.065,-0.032l0.066,-0.031l0.067,-0.029l0.068,-0.028l0.068,-0.026l0.07,-0.024l0.07,-0.023l0.071,-0.021l0.071,-0.02l0.072,-0.017l0.073,-0.016l0.074,-0.014l0.074,-0.012l0.075,-0.011l0.075,-0.009l0.076,-0.006l0.077,-0.005l0.077,-0.003l0.077,-0.001l6,0l0.074,0.001Zm-6.061,1.999l-0.04,0.001l-0.026,0.001l-0.026,0.001l-0.026,0.002l-0.025,0.003l-0.025,0.004l-0.024,0.004l-0.025,0.005l-0.024,0.005l-0.024,0.006l-0.023,0.006l-0.023,0.007l-0.023,0.007l-0.023,0.008l-0.023,0.009l-0.022,0.009l-0.021,0.009l-0.022,0.011l-0.022,0.01l-0.021,0.012l-0.021,0.011l-0.021,0.013l-0.021,0.013l-0.02,0.013l-0.019,0.013l-0.02,0.015l-0.019,0.014l-0.019,0.016l-0.019,0.015l-0.018,0.016l-0.018,0.017l-0.017,0.017l-0.017,0.017l-0.016,0.018l-0.017,0.018l-0.015,0.019l-0.016,0.019l-0.014,0.019l-0.015,0.019l-0.013,0.02l-0.014,0.02l-0.012,0.021l-0.013,0.021l-0.011,0.021l-0.012,0.021l-0.01,0.022l-0.01,0.021l-0.01,0.022l-0.009,0.023l-0.009,0.022l-0.008,0.023l-0.007,0.023l-0.007,0.023l-0.006,0.024l-0.006,0.023l-0.005,0.024l-0.005,0.025l-0.004,0.024l-0.004,0.025l-0.003,0.025l-0.002,0.026l-0.001,0.026l-0.002,0.026l0,0.04l0,2.975l0.001,0.062l0.002,0.049l0.003,0.05l0.004,0.049l0.005,0.049l0.007,0.048l0.008,0.049l0.009,0.048l0.01,0.048l0.011,0.047l0.013,0.048l0.014,0.047l0.014,0.046l0.016,0.046l0.017,0.046l0.018,0.045l0.02,0.045l0.02,0.045l0.021,0.043l0.023,0.044l0.023,0.043l0.025,0.042l0.025,0.041l0.027,0.042l0.028,0.04l0.029,0.04l0.029,0.039l0.031,0.038l0.032,0.038l0.032,0.037l0.034,0.037l0.035,0.035l0.036,0.035l0.036,0.034l0.037,0.032l0.038,0.032l0.038,0.031l0.039,0.029l0.04,0.029l0.04,0.028l0.042,0.027l0.041,0.025l0.042,0.025l0.043,0.023l0.044,0.023l0.043,0.021l0.045,0.02l0.045,0.02l0.045,0.018l0.046,0.017l0.046,0.016l0.046,0.014l0.047,0.014l0.048,0.013l0.047,0.011l0.048,0.01l0.048,0.009l0.049,0.008l0.048,0.007l0.049,0.005l0.049,0.004l0.05,0.003l0.049,0.002l0.062,0.001l3.733,0l0.037,0l0.025,-0.001l0.025,-0.002l0.024,-0.002l0.025,-0.003l0.024,-0.003l0.024,-0.004l0.024,-0.005l0.024,-0.005l0.024,-0.005l0.024,-0.007l0.023,-0.006l0.023,-0.008l0.024,-0.008l0.022,-0.008l0.023,-0.009l0.022,-0.01l0.023,-0.01l0.022,-0.011l0.021,-0.011l0.022,-0.012l0.021,-0.012l0.02,-0.013l0.021,-0.013l0.02,-0.014l0.02,-0.014l0.02,-0.015l0.019,-0.015l0.019,-0.016l0.018,-0.017l0.019,-0.017l0.026,-0.026l1.225,-1.225l0.026,-0.027l0.017,-0.018l0.017,-0.018l0.015,-0.019l0.016,-0.019l0.015,-0.02l0.014,-0.02l0.014,-0.02l0.013,-0.02l0.013,-0.021l0.012,-0.021l0.012,-0.022l0.011,-0.021l0.011,-0.022l0.01,-0.023l0.01,-0.022l0.009,-0.023l0.008,-0.023l0.008,-0.023l0.008,-0.023l0.006,-0.023l0.007,-0.024l0.005,-0.024l0.005,-0.024l0.005,-0.024l0.004,-0.024l0.003,-0.024l0.003,-0.025l0.002,-0.024l0.002,-0.025l0.001,-0.025l0,-0.037l0,-2.733l0,-0.037l-0.001,-0.025l-0.002,-0.024l-0.002,-0.025l-0.003,-0.024l-0.003,-0.025l-0.004,-0.024l-0.005,-0.024l-0.005,-0.024l-0.005,-0.024l-0.007,-0.023l-0.006,-0.024l-0.008,-0.023l-0.008,-0.023l-0.008,-0.023l-0.009,-0.023l-0.01,-0.022l-0.01,-0.022l-0.011,-0.022l-0.011,-0.022l-0.012,-0.021l-0.012,-0.021l-0.013,-0.021l-0.013,-0.021l-0.014,-0.02l-0.014,-0.02l-0.015,-0.019l-0.015,-0.02l-0.016,-0.019l-0.017,-0.018l-0.017,-0.018l-0.017,-0.018l-0.018,-0.017l-0.018,-0.017l-0.019,-0.017l-0.018,-0.015l-0.02,-0.016l-0.019,-0.015l-0.02,-0.014l-0.02,-0.014l-0.021,-0.013l-0.021,-0.013l-0.021,-0.012l-0.021,-0.012l-0.022,-0.011l-0.022,-0.011l-0.022,-0.01l-0.022,-0.01l-0.023,-0.009l-0.023,-0.008l-0.023,-0.008l-0.023,-0.008l-0.024,-0.006l-0.023,-0.007l-0.024,-0.005l-0.024,-0.005l-0.024,-0.005l-0.024,-0.004l-0.025,-0.003l-0.024,-0.003l-0.025,-0.002l-0.024,-0.002l-0.025,-0.001l-0.037,0l-5.975,0Z" style="fill:#262626;"/><path d="M29,11c0,-1.657 -1.343,-3 -3,-3c-1.832,0 -4.168,0 -6,0c-0.796,0 -1.559,0.316 -2.121,0.879c-0.563,0.562 -0.879,1.325 -0.879,2.121c0,0.969 0,1.989 0,2.757c0,0.796 0.316,1.559 0.879,2.122c0.391,0.391 0.851,0.851 1.242,1.242c0.563,0.563 1.326,0.879 2.122,0.879c0.978,0 2.398,0 3.757,0c1.061,0 2.078,-0.421 2.828,-1.172c0.751,-0.75 1.172,-1.767 1.172,-2.828c0,-1.001 0,-2.057 0,-3Z" style="fill:none;"/><clipPath id="_clip4"><path d="M29,11c0,-1.657 -1.343,-3 -3,-3c-1.832,0 -4.168,0 -6,0c-0.796,0 -1.559,0.316 -2.121,0.879c-0.563,0.562 -0.879,1.325 -0.879,2.121c0,0.969 0,1.989 0,2.757c0,0.796 0.316,1.559 0.879,2.122c0.391,0.391 0.851,0.851 1.242,1.242c0.563,0.563 1.326,0.879 2.122,0.879c0.978,0 2.398,0 3.757,0c1.061,0 2.078,-0.421 2.828,-1.172c0.751,-0.75 1.172,-1.767 1.172,-2.828c0,-1.001 0,-2.057 0,-3Z"/></clipPath><g clip-path="url(#_clip4)"><path d="M18,9l0,5l3,3l5,0l2,-2l0,-5l-1,-1l-9,0Z" style="fill:none;"/><clipPath id="_clip5"><path d="M18,9l0,5l3,3l5,0l2,-2l0,-5l-1,-1l-9,0Z"/></clipPath><g clip-path="url(#_clip5)"><path d="M26,7l5,0l-13,13l-5,0l13,-13Z" style="fill:#b4b4b4;"/></g></g><path d="M26,8l0.077,0.001l0.077,0.003l0.077,0.005l0.076,0.006l0.075,0.009l0.075,0.011l0.074,0.012l0.074,0.014l0.073,0.016l0.072,0.017l0.071,0.02l0.071,0.021l0.07,0.023l0.07,0.024l0.068,0.026l0.068,0.028l0.067,0.029l0.066,0.031l0.065,0.032l0.064,0.034l0.063,0.035l0.063,0.037l0.061,0.039l0.06,0.039l0.06,0.041l0.058,0.043l0.057,0.044l0.056,0.045l0.055,0.047l0.054,0.047l0.053,0.049l0.051,0.051l0.051,0.051l0.049,0.053l0.047,0.054l0.047,0.055l0.045,0.056l0.044,0.057l0.043,0.058l0.041,0.06l0.039,0.06l0.039,0.061l0.037,0.063l0.035,0.063l0.034,0.064l0.032,0.065l0.031,0.066l0.029,0.067l0.028,0.068l0.026,0.069l0.024,0.069l0.023,0.07l0.021,0.071l0.02,0.071l0.017,0.072l0.016,0.073l0.014,0.074l0.012,0.074l0.011,0.075l0.009,0.075l0.006,0.076l0.005,0.077l0.003,0.077l0.001,0.077l0,3l-0.001,0.099l-0.004,0.099l-0.006,0.099l-0.009,0.098l-0.011,0.098l-0.013,0.098l-0.016,0.097l-0.018,0.096l-0.02,0.096l-0.023,0.095l-0.025,0.095l-0.027,0.093l-0.029,0.093l-0.032,0.093l-0.034,0.091l-0.036,0.091l-0.039,0.089l-0.041,0.089l-0.042,0.088l-0.045,0.087l-0.047,0.085l-0.049,0.085l-0.052,0.083l-0.053,0.082l-0.055,0.081l-0.058,0.08l-0.059,0.078l-0.062,0.077l-0.063,0.076l-0.066,0.074l-0.067,0.072l-0.07,0.071l-0.071,0.07l-0.072,0.067l-0.074,0.066l-0.076,0.063l-0.077,0.062l-0.078,0.059l-0.08,0.058l-0.081,0.055l-0.082,0.053l-0.083,0.052l-0.085,0.049l-0.085,0.047l-0.087,0.045l-0.088,0.042l-0.089,0.041l-0.089,0.039l-0.091,0.036l-0.091,0.034l-0.093,0.032l-0.093,0.029l-0.093,0.027l-0.095,0.025l-0.095,0.023l-0.096,0.02l-0.096,0.018l-0.097,0.016l-0.098,0.013l-0.098,0.011l-0.098,0.009l-0.099,0.006l-0.099,0.004l-0.099,0.001l-3.757,0l-0.075,-0.001l-0.074,-0.003l-0.074,-0.004l-0.074,-0.007l-0.073,-0.008l-0.073,-0.01l-0.073,-0.012l-0.072,-0.013l-0.072,-0.015l-0.072,-0.017l-0.07,-0.019l-0.071,-0.021l-0.07,-0.022l-0.069,-0.024l-0.068,-0.025l-0.068,-0.027l-0.068,-0.029l-0.066,-0.031l-0.066,-0.032l-0.065,-0.033l-0.064,-0.036l-0.064,-0.037l-0.062,-0.038l-0.062,-0.04l-0.06,-0.042l-0.06,-0.043l-0.059,-0.044l-0.058,-0.046l-0.056,-0.048l-0.056,-0.049l-0.054,-0.051l-0.054,-0.052l-1.242,-1.242l-0.052,-0.054l-0.051,-0.054l-0.049,-0.056l-0.048,-0.056l-0.046,-0.058l-0.044,-0.059l-0.043,-0.06l-0.042,-0.06l-0.04,-0.062l-0.038,-0.062l-0.037,-0.064l-0.036,-0.064l-0.033,-0.065l-0.032,-0.066l-0.031,-0.066l-0.029,-0.068l-0.027,-0.068l-0.025,-0.068l-0.024,-0.069l-0.022,-0.07l-0.021,-0.071l-0.019,-0.07l-0.017,-0.072l-0.015,-0.072l-0.013,-0.072l-0.012,-0.073l-0.01,-0.073l-0.008,-0.073l-0.007,-0.074l-0.004,-0.074l-0.003,-0.074l-0.001,-0.075l0,-2.757l0.001,-0.074l0.003,-0.075l0.004,-0.074l0.007,-0.074l0.008,-0.073l0.01,-0.073l0.012,-0.073l0.013,-0.072l0.015,-0.072l0.017,-0.071l0.019,-0.071l0.021,-0.07l0.022,-0.07l0.024,-0.07l0.025,-0.068l0.027,-0.068l0.029,-0.067l0.031,-0.067l0.032,-0.066l0.033,-0.065l0.036,-0.064l0.037,-0.063l0.038,-0.063l0.04,-0.061l0.042,-0.061l0.043,-0.06l0.044,-0.059l0.046,-0.057l0.048,-0.057l0.049,-0.056l0.051,-0.054l0.052,-0.053l0.053,-0.052l0.054,-0.051l0.056,-0.049l0.057,-0.048l0.057,-0.046l0.059,-0.044l0.06,-0.043l0.061,-0.042l0.061,-0.04l0.063,-0.038l0.063,-0.037l0.064,-0.036l0.065,-0.033l0.066,-0.032l0.067,-0.031l0.067,-0.029l0.068,-0.027l0.068,-0.025l0.07,-0.024l0.069,-0.022l0.071,-0.021l0.071,-0.019l0.071,-0.017l0.072,-0.015l0.072,-0.013l0.073,-0.012l0.073,-0.01l0.073,-0.008l0.074,-0.007l0.074,-0.004l0.075,-0.003l0.074,-0.001l6,0Zm-5.988,2l-0.037,0l-0.025,0.001l-0.024,0.002l-0.025,0.002l-0.024,0.003l-0.025,0.003l-0.024,0.004l-0.024,0.005l-0.024,0.005l-0.024,0.005l-0.023,0.007l-0.024,0.006l-0.023,0.008l-0.023,0.008l-0.023,0.008l-0.023,0.009l-0.022,0.01l-0.022,0.01l-0.022,0.011l-0.022,0.011l-0.021,0.012l-0.021,0.012l-0.021,0.013l-0.021,0.013l-0.02,0.014l-0.02,0.014l-0.019,0.015l-0.02,0.016l-0.018,0.015l-0.019,0.017l-0.018,0.017l-0.018,0.017l-0.017,0.018l-0.017,0.018l-0.017,0.018l-0.016,0.019l-0.015,0.02l-0.015,0.019l-0.014,0.02l-0.014,0.02l-0.013,0.021l-0.013,0.021l-0.012,0.021l-0.012,0.021l-0.011,0.022l-0.011,0.022l-0.01,0.022l-0.01,0.022l-0.009,0.023l-0.008,0.023l-0.008,0.023l-0.008,0.023l-0.006,0.024l-0.007,0.023l-0.005,0.024l-0.005,0.024l-0.005,0.024l-0.004,0.024l-0.003,0.025l-0.003,0.024l-0.002,0.025l-0.002,0.024l-0.001,0.025l0,0.037l0,2.733l0,0.037l0.001,0.025l0.002,0.025l0.002,0.024l0.003,0.025l0.003,0.024l0.004,0.024l0.005,0.024l0.005,0.024l0.005,0.024l0.007,0.024l0.006,0.023l0.008,0.023l0.008,0.023l0.008,0.023l0.009,0.023l0.01,0.022l0.01,0.023l0.011,0.022l0.011,0.021l0.012,0.022l0.012,0.021l0.013,0.021l0.013,0.02l0.014,0.02l0.014,0.02l0.015,0.02l0.016,0.019l0.015,0.019l0.017,0.018l0.017,0.019l0.026,0.026l1.225,1.225l0.026,0.026l0.019,0.017l0.018,0.017l0.019,0.016l0.019,0.015l0.02,0.015l0.02,0.014l0.02,0.014l0.021,0.013l0.02,0.013l0.021,0.012l0.022,0.012l0.021,0.011l0.023,0.011l0.022,0.01l0.022,0.01l0.023,0.009l0.022,0.008l0.024,0.008l0.023,0.008l0.023,0.006l0.024,0.007l0.024,0.005l0.024,0.005l0.024,0.005l0.024,0.004l0.024,0.003l0.025,0.003l0.024,0.002l0.025,0.002l0.025,0.001l0.037,0l3.733,0l0.062,-0.001l0.049,-0.002l0.05,-0.003l0.049,-0.004l0.049,-0.005l0.048,-0.007l0.049,-0.008l0.048,-0.009l0.048,-0.01l0.047,-0.011l0.048,-0.013l0.047,-0.014l0.046,-0.014l0.046,-0.016l0.046,-0.017l0.045,-0.018l0.045,-0.02l0.045,-0.02l0.043,-0.021l0.044,-0.023l0.043,-0.023l0.042,-0.025l0.041,-0.025l0.042,-0.027l0.04,-0.028l0.04,-0.029l0.039,-0.029l0.038,-0.031l0.038,-0.032l0.037,-0.032l0.036,-0.034l0.036,-0.035l0.035,-0.035l0.034,-0.037l0.032,-0.037l0.032,-0.038l0.031,-0.038l0.029,-0.039l0.029,-0.04l0.028,-0.04l0.027,-0.042l0.025,-0.041l0.025,-0.042l0.023,-0.043l0.023,-0.044l0.021,-0.043l0.02,-0.045l0.02,-0.045l0.018,-0.045l0.017,-0.046l0.016,-0.046l0.014,-0.046l0.014,-0.047l0.013,-0.048l0.011,-0.047l0.01,-0.048l0.009,-0.048l0.008,-0.049l0.007,-0.048l0.005,-0.049l0.004,-0.049l0.003,-0.05l0.002,-0.049l0.001,-0.062l0,-2.975l-0.001,-0.04l-0.001,-0.026l-0.001,-0.026l-0.002,-0.026l-0.003,-0.025l-0.004,-0.025l-0.004,-0.024l-0.005,-0.025l-0.005,-0.024l-0.006,-0.023l-0.006,-0.024l-0.007,-0.023l-0.007,-0.023l-0.008,-0.023l-0.009,-0.022l-0.009,-0.023l-0.01,-0.022l-0.01,-0.021l-0.01,-0.022l-0.012,-0.021l-0.011,-0.021l-0.013,-0.021l-0.012,-0.021l-0.014,-0.02l-0.014,-0.02l-0.014,-0.019l-0.014,-0.019l-0.016,-0.019l-0.015,-0.019l-0.017,-0.018l-0.016,-0.018l-0.017,-0.017l-0.017,-0.017l-0.018,-0.017l-0.018,-0.016l-0.019,-0.015l-0.019,-0.015l-0.019,-0.015l-0.02,-0.015l-0.019,-0.013l-0.02,-0.013l-0.021,-0.013l-0.021,-0.013l-0.021,-0.011l-0.021,-0.012l-0.022,-0.01l-0.022,-0.011l-0.021,-0.009l-0.022,-0.009l-0.023,-0.009l-0.023,-0.008l-0.023,-0.007l-0.023,-0.007l-0.023,-0.006l-0.024,-0.006l-0.024,-0.005l-0.025,-0.005l-0.024,-0.004l-0.025,-0.004l-0.025,-0.003l-0.026,-0.002l-0.026,-0.001l-0.026,-0.001l-0.04,-0.001l-5.975,0Z" style="fill:#262626;"/></g></g></svg>