<?xml version="1.0" encoding="UTF-8" standalone="no"?>
<!DOCTYPE svg PUBLIC "-//W3C//DTD SVG 1.1//EN" "http://www.w3.org/Graphics/SVG/1.1/DTD/svg11.dtd">
<svg width="100%" height="100%" viewBox="0 0 32 32" version="1.1" xmlns="http://www.w3.org/2000/svg" xmlns:xlink="http://www.w3.org/1999/xlink" xml:space="preserve" xmlns:serif="http://www.serif.com/" style="fill-rule:evenodd;clip-rule:evenodd;stroke-linecap:round;stroke-miterlimit:1.5;">
    <rect id="cool_face" x="0" y="0" width="32" height="32" style="fill:none;"/>
    <clipPath id="_clip1">
        <rect x="0" y="0" width="32" height="32"/>
    </clipPath>
    <g clip-path="url(#_clip1)">
        <g id="outline">
            <path d="M16.099,0c4.208,0.026 8.238,1.709 11.215,4.686c0.997,0.998 1.849,2.113 2.542,3.314l0.144,0c1.105,0 2,0.895 2,2l0,3c0,0.275 -0.055,0.536 -0.156,0.774c0.103,0.733 0.156,1.477 0.156,2.226l0,2c0,7.732 -6.268,14 -14,14l-4,0c-7.732,0 -14,-6.268 -14,-14l0,-2c0,-0.756 0.052,-1.501 0.154,-2.229c-0.099,-0.237 -0.154,-0.498 -0.154,-0.771l0,-3c0,-1.105 0.895,-2 2,-2l0.141,0c2.766,-4.782 7.937,-8 13.859,-8l0.099,0Z"/>
        </g>
        <g id="emoji">
            <path d="M30,16c0,-3.713 -1.475,-7.274 -4.101,-9.899c-2.625,-2.626 -6.186,-4.101 -9.899,-4.101l0,0c-7.732,0 -14,6.268 -14,14l0,2c0,6.627 5.373,12 12,12l4,0c6.627,0 12,-5.373 12,-12l0,-2Z" style="fill:#fbc546;"/>
            <path d="M16.763,15.763c-0.422,-0.422 -1.104,-0.422 -1.526,0l-2.358,2.358c-0.563,0.563 -1.326,0.879 -2.122,0.879l-3.757,0c-1.061,0 -2.078,-0.421 -2.828,-1.172c-0.751,-0.75 -1.172,-1.767 -1.172,-2.828l0,-2l-1,0l0,-3l28,0l0,3l-1,0l0,2c0,1.061 -0.421,2.078 -1.172,2.828c-0.75,0.751 -1.767,1.172 -2.828,1.172l-3.757,0c-0.186,-0.001 -0.37,-0.017 -0.552,-0.051c-0.361,-0.068 -0.708,-0.202 -1.02,-0.394c-0.2,-0.122 -0.384,-0.269 -0.55,-0.434l-2.358,-2.358Z" style="fill:#262626;"/>
            <path d="M13,11.5c0.398,0 0.779,0.158 1.061,0.439c0.281,0.282 0.439,0.663 0.439,1.061c0,0.264 0,0.521 0,0.757c0,0.398 -0.158,0.78 -0.439,1.061c-0.666,0.666 -1.577,1.577 -2.243,2.243c-0.281,0.281 -0.663,0.439 -1.061,0.439l-3.757,0c-0.289,-0.007 -0.57,-0.049 -0.843,-0.146c-0.23,-0.083 -0.448,-0.199 -0.644,-0.345c-1.298,-0.96 -1.014,-2.579 -1.013,-4.009c0.001,-0.832 0.683,-1.48 1.5,-1.5l7,0Zm13,0c0.398,0 0.779,0.158 1.061,0.439c0.281,0.282 0.439,0.663 0.439,1.061l0,2c0,0.663 -0.263,1.299 -0.732,1.768c-0.469,0.469 -1.105,0.732 -1.768,0.732l-3.757,0c-0.398,0 -0.78,-0.158 -1.061,-0.439c-0.666,-0.666 -1.577,-1.577 -2.243,-2.243c-0.281,-0.281 -0.439,-0.663 -0.439,-1.061c0,-0.236 0,-0.493 0,-0.757c0,-0.398 0.158,-0.779 0.439,-1.061c0.282,-0.281 0.663,-0.439 1.061,-0.439l7,0Z" style="fill:#0c0c0c;"/>
            <path d="M10.5,11.5c0,0 3.864,0.831 3.935,1.065c0.043,0.14 0.065,0.286 0.065,0.435c0,0.264 0,0.521 0,0.757c0,0.398 -0.158,0.78 -0.439,1.061c-0.666,0.666 -1.577,1.577 -2.243,2.243c-0.281,0.281 -0.663,0.439 -1.061,0.439l-1.257,0c0,0 -4.184,-0.648 -4.268,-0.732c-0.974,-0.976 -0.733,-2.452 -0.732,-3.768c0.001,-0.832 0.683,-1.48 1.5,-1.5l4.5,0Zm13,0c0,0 3.864,0.831 3.935,1.065c0.043,0.14 0.065,0.286 0.065,0.435l0,2c0,0.663 -0.263,1.299 -0.732,1.768c-0.469,0.469 -1.105,0.732 -1.768,0.732l-2.5,0c0,0 -3.045,-1.166 -3.439,-1.561c-0.395,-0.394 -0.789,-0.788 -1.122,-1.121c-0.281,-0.281 -0.439,-0.663 -0.439,-1.061c0,-0.236 0,-0.493 0,-0.757c0,-0.398 0.158,-0.779 0.439,-1.061c0.282,-0.281 0.663,-0.439 1.061,-0.439l4.5,0Z" style="fill:#0c0c0c;"/>
            <path d="M13,11.5c0.398,0 0.779,0.158 1.061,0.439c0.176,0.176 0.303,0.392 0.374,0.626l-4.935,4.935l-2.5,0c-0.223,-0.006 -0.446,-0.032 -0.663,-0.09c-0.415,-0.112 -0.794,-0.337 -1.1,-0.637l-0.005,-0.005l5.268,-5.268l2.5,0Zm13,0c0.398,0 0.779,0.158 1.061,0.439c0.176,0.176 0.303,0.392 0.374,0.626l-4.935,4.935l-1.257,0c-0.283,-0.002 -0.562,-0.081 -0.802,-0.232c-0.094,-0.059 -0.18,-0.129 -0.259,-0.207l-1.121,-1.122l4.439,-4.439l2.5,0Z" style="fill:#5f5f5f;"/>
            <path d="M10,22c0,0 0.385,0.385 0.879,0.879c1.358,1.358 3.2,2.121 5.121,2.121c0,0 0,0 0,0c1.921,0 3.763,-0.763 5.121,-2.121c0.494,-0.494 0.879,-0.879 0.879,-0.879" style="fill:none;stroke:#593604;stroke-width:2px;"/>
        </g>
    </g>
</svg>
