<?xml version="1.0" encoding="UTF-8" standalone="no"?>
<!DOCTYPE svg PUBLIC "-//W3C//DTD SVG 1.1//EN" "http://www.w3.org/Graphics/SVG/1.1/DTD/svg11.dtd">
<svg width="100%" height="100%" viewBox="0 0 32 32" version="1.1" xmlns="http://www.w3.org/2000/svg" xmlns:xlink="http://www.w3.org/1999/xlink" xml:space="preserve" xmlns:serif="http://www.serif.com/" style="fill-rule:evenodd;clip-rule:evenodd;stroke-linecap:round;stroke-miterlimit:1.5;">
    <rect id="cowhand" x="0" y="0" width="32" height="32" style="fill:none;"/>
    <clipPath id="_clip1">
        <rect x="0" y="0" width="32" height="32"/>
    </clipPath>
    <g clip-path="url(#_clip1)">
        <g id="outline">
            <path d="M16,1.668l1.063,-0.638c1.228,-0.737 2.714,-0.912 4.079,-0.481c1.366,0.432 2.481,1.429 3.063,2.737l1.088,2.448l1.216,-0.81c1.084,-0.723 2.477,-0.79 3.626,-0.176c1.148,0.615 1.865,1.812 1.865,3.115c0,0 0,0.001 0,0.001c0,1.362 -0.541,2.669 -1.504,3.632c-0.563,0.562 -1.242,0.98 -1.981,1.231c0.968,1.929 1.485,4.074 1.485,6.273c0,0 0,0 0,0c0,3.448 -1.37,6.754 -3.808,9.192c-2.438,2.438 -5.744,3.808 -9.192,3.808c-0.665,0 -1.335,0 -2,0c-3.448,0 -6.754,-1.37 -9.192,-3.808c-2.438,-2.438 -3.808,-5.744 -3.808,-9.192l0.004,-0.323c0.048,-2.086 0.561,-4.116 1.481,-5.95c-0.739,-0.251 -1.418,-0.669 -1.981,-1.231c-0.963,-0.963 -1.504,-2.27 -1.504,-3.632c0,0 0,-0.001 0,-0.001c0,-1.303 0.717,-2.5 1.865,-3.115c1.149,-0.614 2.542,-0.547 3.626,0.176l1.216,0.81l1.088,-2.448c0.582,-1.308 1.697,-2.305 3.063,-2.737c1.365,-0.431 2.851,-0.256 4.079,0.481l1.063,0.638Z"/>
        </g>
        <g id="emoji">
            <g>
                <path d="M26.392,13c1.045,1.809 1.608,3.875 1.608,6c0,0 0,0 0,0c0,2.917 -1.159,5.715 -3.222,7.778c-2.063,2.063 -4.861,3.222 -7.778,3.222c-0.665,0 -1.335,0 -2,0c-2.917,0 -5.715,-1.159 -7.778,-3.222c-2.063,-2.063 -3.222,-4.861 -3.222,-7.778c0,0 0,0 0,0c0,-2.125 0.563,-4.191 1.608,-6l1.392,-1l18,0l1.392,1Z" style="fill:#fbc546;"/>
                <path d="M5.608,13c0.52,-0.901 1.159,-1.737 1.907,-2.485c2.25,-2.251 5.302,-3.515 8.485,-3.515c0,0 0,0 0,0c3.183,0 6.235,1.264 8.485,3.515c0.748,0.748 1.387,1.584 1.907,2.485l-20.784,0Z" style="fill:#e59a10;"/>
            </g>
            <g>
                <path d="M10.002,20c0.795,0 1.558,-0.316 2.12,-0.878c0.562,-0.562 0.878,-1.325 0.878,-2.12c0,-0.64 0,-1.316 0,-1.958c0,-1.681 -1.363,-3.044 -3.044,-3.044c-0.001,0 -0.001,0 -0.002,0c-1.631,0 -2.954,1.323 -2.954,2.954c0,0.667 0,1.377 0,2.046c0,1.657 1.343,3 3,3c0.001,0 0.001,0 0.002,0Z" style="fill:#fff;"/>
                <path d="M9,14.5c0,-0.398 0.158,-0.779 0.439,-1.061c0.282,-0.281 0.663,-0.439 1.061,-0.439c0.398,0 0.779,0.158 1.061,0.439c0.281,0.282 0.439,0.663 0.439,1.061c0,0.912 0,2.072 0,2.983c0,0.398 -0.158,0.78 -0.439,1.061c-0.282,0.281 -0.663,0.439 -1.061,0.439c-0.398,0 -0.779,-0.158 -1.061,-0.439c-0.281,-0.281 -0.439,-0.663 -0.439,-1.061c0,-0.911 0,-2.071 0,-2.983Z"/>
                <path d="M21.998,20c-0.795,0 -1.558,-0.316 -2.12,-0.878c-0.562,-0.562 -0.878,-1.325 -0.878,-2.12c0,-0.64 0,-1.316 0,-1.958c0,-1.681 1.363,-3.044 3.044,-3.044c0.001,0 0.001,0 0.002,0c1.631,0 2.954,1.323 2.954,2.954c0,0.667 0,1.377 0,2.046c0,1.657 -1.343,3 -3,3c-0.001,0 -0.001,0 -0.002,0Z" style="fill:#fff;"/>
                <path d="M23,14.498c0,-0.397 -0.158,-0.778 -0.439,-1.059c-0.281,-0.281 -0.662,-0.439 -1.059,-0.439l-0.004,0c-0.397,0 -0.778,0.158 -1.059,0.439c-0.281,0.281 -0.439,0.662 -0.439,1.059l0,2.987c0,0.398 0.158,0.779 0.439,1.06c0.281,0.28 0.662,0.438 1.059,0.438l0.004,0c0.397,0 0.778,-0.158 1.059,-0.438c0.281,-0.281 0.439,-0.662 0.439,-1.06l0,-2.987Z"/>
            </g>
            <path d="M10,22c0,0 0.385,0.385 0.879,0.879c1.358,1.358 3.2,2.121 5.121,2.121c0,0 0,0 0,0c1.921,0 3.763,-0.763 5.121,-2.121c0.494,-0.494 0.879,-0.879 0.879,-0.879" style="fill:none;stroke:#593604;stroke-width:2px;"/>
            <g>
                <g>
                    <path d="M7.889,8l1.111,-0.643l14,0l1.111,0.643l0.889,2l-18,0l0.889,-2Zm0.444,-1l1.29,-2.901c0.349,-0.786 1.018,-1.384 1.837,-1.642c0.82,-0.259 1.711,-0.155 2.448,0.288c1.1,0.66 2.092,1.255 2.092,1.255c0,0 0.992,-0.595 2.092,-1.255c0.737,-0.443 1.628,-0.547 2.448,-0.288c0.819,0.258 1.488,0.856 1.837,1.642l1.29,2.901l-0.667,0.643l-14,0l-0.667,-0.643Z" style="fill:#6c5935;"/>
                    <path d="M24.111,8l-16.222,0l0.444,-1l15.334,0l0.444,1Z" style="fill:#978156;"/>
                </g>
                <path d="M5.985,7.656c1.314,0.876 2.858,1.344 4.437,1.344c3.017,0 8.139,0 11.156,0c1.579,0 3.123,-0.468 4.437,-1.344c0.515,-0.342 1.072,-0.714 1.603,-1.068c0.47,-0.314 1.075,-0.343 1.573,-0.076c0.498,0.266 0.809,0.786 0.809,1.351c0,0 0,0.001 0,0.001c0,0.832 -0.33,1.629 -0.919,2.217c-0.588,0.589 -1.385,0.919 -2.217,0.919c-5.388,0 -16.34,0 -21.728,0c-0.832,0 -1.629,-0.33 -2.217,-0.919c-0.589,-0.588 -0.919,-1.385 -0.919,-2.217c0,0 0,-0.001 0,-0.001c0,-0.565 0.311,-1.085 0.809,-1.351c0.498,-0.267 1.103,-0.238 1.573,0.076c0.531,0.354 1.088,0.726 1.603,1.068Z" style="fill:#4e4024;"/>
            </g>
        </g>
    </g>
</svg>
