<?xml version="1.0" encoding="UTF-8" standalone="no"?><!DOCTYPE svg PUBLIC "-//W3C//DTD SVG 1.1//EN" "http://www.w3.org/Graphics/SVG/1.1/DTD/svg11.dtd"><svg width="100%" height="100%" viewBox="0 0 32 32" version="1.1" xmlns="http://www.w3.org/2000/svg" xmlns:xlink="http://www.w3.org/1999/xlink" xml:space="preserve" xmlns:serif="http://www.serif.com/" style="fill-rule:evenodd;clip-rule:evenodd;stroke-linejoin:round;stroke-miterlimit:1.41421;"><rect id="cowhand" x="0" y="0" width="32" height="32" style="fill:none;"/><clipPath id="_clip1"><rect x="0" y="0" width="32" height="32"/></clipPath><g clip-path="url(#_clip1)"><g id="outline"><path d="M28.651,4.335l0.117,0.008l0.118,0.012l0.117,0.016l0.116,0.02l0.117,0.024l0.116,0.028l0.115,0.031l0.114,0.036l0.113,0.04l0.112,0.044l0.111,0.047l0.11,0.052l0.108,0.055l0.106,0.059l0.104,0.063l0.101,0.066l0.098,0.069l0.096,0.072l0.093,0.075l0.091,0.078l0.087,0.081l0.084,0.084l0.081,0.086l0.079,0.088l0.075,0.092l0.072,0.093l0.069,0.096l0.065,0.098l0.062,0.099l0.059,0.102l0.055,0.104l0.052,0.106l0.049,0.108l0.045,0.109l0.041,0.111l0.037,0.112l0.034,0.114l0.03,0.115l0.027,0.116l0.022,0.118l0.018,0.118l0.015,0.12l0.01,0.12l0.006,0.121l0.002,0.104l0,0.031l-0.001,0.115l-0.005,0.128l-0.008,0.126l-0.011,0.127l-0.014,0.125l-0.017,0.125l-0.02,0.125l-0.023,0.124l-0.027,0.123l-0.029,0.122l-0.032,0.121l-0.035,0.121l-0.038,0.119l-0.041,0.119l-0.043,0.117l-0.047,0.116l-0.049,0.116l-0.052,0.114l-0.055,0.112l-0.058,0.112l-0.06,0.109l-0.063,0.109l-0.066,0.107l-0.069,0.105l-0.071,0.104l-0.074,0.103l-0.076,0.1l-0.079,0.099l-0.082,0.097l-0.084,0.095l-0.086,0.094l-0.089,0.091l-0.091,0.089l-0.094,0.086l-0.095,0.084l-0.097,0.082l-0.099,0.079l-0.1,0.076l-0.103,0.074l-0.104,0.071l-0.105,0.069l-0.107,0.066l-0.108,0.063l-0.11,0.06l-0.112,0.058l-0.113,0.055l-0.113,0.052l-0.115,0.049l-0.117,0.047l-0.117,0.043l-0.08,0.028l0.053,0.107l0.069,0.143l0.068,0.144l0.066,0.145l0.064,0.145l0.063,0.146l0.06,0.146l0.06,0.148l0.057,0.148l0.056,0.148l0.054,0.149l0.053,0.15l0.051,0.151l0.049,0.151l0.047,0.152l0.046,0.152l0.044,0.152l0.042,0.154l0.041,0.154l0.038,0.154l0.037,0.155l0.036,0.155l0.033,0.156l0.032,0.156l0.03,0.157l0.028,0.157l0.027,0.158l0.024,0.158l0.023,0.158l0.021,0.159l0.02,0.159l0.017,0.159l0.016,0.16l0.014,0.16l0.012,0.16l0.01,0.161l0.008,0.16l0.007,0.162l0.004,0.161l0.003,0.161l0.001,0.156l0,0.012l-0.001,0.156l-0.003,0.161l-0.005,0.161l-0.007,0.161l-0.009,0.16l-0.011,0.16l-0.013,0.16l-0.015,0.16l-0.016,0.159l-0.019,0.159l-0.021,0.159l-0.022,0.158l-0.025,0.157l-0.026,0.158l-0.029,0.157l-0.03,0.156l-0.032,0.156l-0.034,0.155l-0.036,0.155l-0.038,0.155l-0.04,0.154l-0.041,0.153l-0.044,0.153l-0.045,0.152l-0.047,0.151l-0.049,0.151l-0.051,0.151l-0.052,0.149l-0.055,0.149l-0.056,0.149l-0.058,0.147l-0.06,0.147l-0.061,0.146l-0.063,0.145l-0.066,0.145l-0.066,0.144l-0.069,0.143l-0.07,0.142l-0.073,0.141l-0.073,0.141l-0.076,0.139l-0.077,0.139l-0.079,0.138l-0.081,0.136l-0.083,0.136l-0.084,0.135l-0.086,0.134l-0.087,0.133l-0.089,0.132l-0.091,0.131l-0.093,0.13l-0.094,0.129l-0.096,0.128l-0.097,0.127l-0.099,0.126l-0.101,0.124l-0.102,0.123l-0.104,0.123l-0.106,0.12l-0.107,0.12l-0.109,0.119l-0.11,0.117l-0.112,0.117l-0.114,0.114l-0.114,0.114l-0.117,0.112l-0.117,0.11l-0.119,0.109l-0.119,0.107l-0.121,0.106l-0.123,0.104l-0.123,0.102l-0.125,0.101l-0.125,0.099l-0.127,0.097l-0.128,0.096l-0.129,0.094l-0.13,0.093l-0.131,0.091l-0.132,0.089l-0.133,0.087l-0.134,0.086l-0.135,0.084l-0.136,0.083l-0.136,0.081l-0.138,0.079l-0.139,0.077l-0.139,0.076l-0.141,0.073l-0.141,0.073l-0.142,0.07l-0.143,0.069l-0.144,0.067l-0.145,0.065l-0.145,0.063l-0.146,0.061l-0.147,0.06l-0.148,0.058l-0.148,0.056l-0.149,0.055l-0.149,0.052l-0.151,0.051l-0.151,0.049l-0.151,0.047l-0.152,0.045l-0.153,0.044l-0.153,0.041l-0.154,0.04l-0.155,0.038l-0.155,0.036l-0.155,0.034l-0.156,0.032l-0.156,0.03l-0.157,0.029l-0.158,0.026l-0.157,0.025l-0.158,0.022l-0.159,0.021l-0.159,0.019l-0.159,0.016l-0.16,0.015l-0.16,0.013l-0.16,0.011l-0.161,0.009l-0.16,0.007l-0.161,0.005l-0.162,0.003l-0.155,0.001l-2.012,0l-0.155,-0.001l-0.162,-0.003l-0.161,-0.005l-0.16,-0.007l-0.161,-0.009l-0.16,-0.011l-0.16,-0.013l-0.16,-0.015l-0.159,-0.016l-0.159,-0.019l-0.159,-0.021l-0.158,-0.022l-0.157,-0.025l-0.158,-0.026l-0.157,-0.029l-0.156,-0.03l-0.156,-0.032l-0.155,-0.034l-0.155,-0.036l-0.155,-0.038l-0.154,-0.04l-0.153,-0.041l-0.153,-0.044l-0.152,-0.045l-0.151,-0.047l-0.151,-0.049l-0.151,-0.051l-0.149,-0.052l-0.149,-0.055l-0.148,-0.056l-0.148,-0.058l-0.147,-0.06l-0.146,-0.061l-0.145,-0.063l-0.145,-0.065l-0.144,-0.067l-0.143,-0.069l-0.142,-0.07l-0.141,-0.073l-0.141,-0.073l-0.139,-0.076l-0.139,-0.077l-0.138,-0.079l-0.136,-0.081l-0.136,-0.083l-0.135,-0.084l-0.134,-0.086l-0.133,-0.087l-0.132,-0.089l-0.131,-0.091l-0.13,-0.093l-0.129,-0.094l-0.128,-0.096l-0.127,-0.097l-0.125,-0.099l-0.125,-0.101l-0.123,-0.102l-0.122,-0.104l-0.122,-0.106l-0.119,-0.107l-0.119,-0.109l-0.117,-0.11l-0.117,-0.112l-0.114,-0.114l-0.114,-0.114l-0.112,-0.117l-0.11,-0.117l-0.109,-0.119l-0.107,-0.119l-0.106,-0.121l-0.104,-0.123l-0.102,-0.123l-0.101,-0.125l-0.099,-0.125l-0.097,-0.127l-0.096,-0.128l-0.094,-0.129l-0.093,-0.13l-0.091,-0.131l-0.089,-0.132l-0.087,-0.133l-0.086,-0.134l-0.084,-0.135l-0.083,-0.136l-0.081,-0.136l-0.079,-0.138l-0.077,-0.139l-0.076,-0.139l-0.073,-0.141l-0.073,-0.141l-0.07,-0.142l-0.069,-0.143l-0.066,-0.144l-0.066,-0.145l-0.063,-0.145l-0.061,-0.146l-0.06,-0.147l-0.058,-0.147l-0.056,-0.149l-0.055,-0.149l-0.052,-0.149l-0.051,-0.151l-0.049,-0.151l-0.047,-0.151l-0.045,-0.152l-0.044,-0.153l-0.041,-0.153l-0.04,-0.154l-0.038,-0.155l-0.036,-0.155l-0.034,-0.155l-0.032,-0.156l-0.03,-0.156l-0.029,-0.157l-0.026,-0.158l-0.025,-0.157l-0.022,-0.158l-0.021,-0.159l-0.019,-0.159l-0.016,-0.159l-0.015,-0.16l-0.013,-0.16l-0.011,-0.16l-0.009,-0.16l-0.007,-0.161l-0.005,-0.161l-0.003,-0.162l-0.001,-0.155l0,-0.012l0.001,-0.156l0.003,-0.161l0.004,-0.161l0.007,-0.162l0.008,-0.16l0.01,-0.161l0.012,-0.16l0.014,-0.16l0.016,-0.16l0.017,-0.159l0.02,-0.159l0.021,-0.159l0.023,-0.158l0.024,-0.158l0.027,-0.158l0.028,-0.157l0.03,-0.157l0.032,-0.156l0.033,-0.156l0.036,-0.155l0.037,-0.155l0.038,-0.154l0.041,-0.154l0.042,-0.153l0.044,-0.153l0.046,-0.152l0.047,-0.152l0.049,-0.151l0.051,-0.151l0.053,-0.15l0.054,-0.149l0.056,-0.148l0.057,-0.148l0.06,-0.148l0.06,-0.146l0.063,-0.146l0.064,-0.145l0.066,-0.145l0.068,-0.144l0.069,-0.143l0.053,-0.107l-0.08,-0.028l-0.117,-0.043l-0.117,-0.047l-0.115,-0.049l-0.113,-0.052l-0.113,-0.055l-0.112,-0.058l-0.11,-0.06l-0.108,-0.063l-0.107,-0.066l-0.105,-0.069l-0.104,-0.071l-0.103,-0.074l-0.1,-0.076l-0.099,-0.079l-0.097,-0.082l-0.095,-0.084l-0.094,-0.086l-0.091,-0.089l-0.089,-0.091l-0.086,-0.094l-0.084,-0.095l-0.082,-0.097l-0.079,-0.099l-0.076,-0.1l-0.074,-0.103l-0.071,-0.104l-0.069,-0.105l-0.066,-0.107l-0.063,-0.109l-0.06,-0.11l-0.058,-0.111l-0.055,-0.112l-0.052,-0.114l-0.049,-0.116l-0.047,-0.116l-0.043,-0.117l-0.041,-0.119l-0.038,-0.119l-0.035,-0.121l-0.032,-0.121l-0.029,-0.122l-0.027,-0.123l-0.023,-0.124l-0.02,-0.125l-0.017,-0.125l-0.014,-0.125l-0.011,-0.127l-0.008,-0.126l-0.005,-0.128l-0.001,-0.115l0,-0.031l0.002,-0.104l0.006,-0.121l0.01,-0.12l0.015,-0.12l0.018,-0.118l0.022,-0.118l0.027,-0.116l0.03,-0.115l0.034,-0.114l0.037,-0.112l0.041,-0.111l0.045,-0.109l0.049,-0.108l0.052,-0.106l0.055,-0.103l0.059,-0.103l0.062,-0.099l0.065,-0.098l0.069,-0.096l0.072,-0.093l0.075,-0.092l0.079,-0.088l0.081,-0.086l0.084,-0.084l0.088,-0.081l0.09,-0.078l0.093,-0.075l0.096,-0.072l0.098,-0.069l0.101,-0.066l0.104,-0.063l0.106,-0.059l0.108,-0.055l0.11,-0.052l0.111,-0.047l0.112,-0.044l0.113,-0.04l0.114,-0.036l0.115,-0.031l0.116,-0.028l0.117,-0.024l0.116,-0.02l0.117,-0.016l0.118,-0.012l0.117,-0.008l0.118,-0.004l0.118,0l0.117,0.003l0.118,0.008l0.117,0.012l0.117,0.015l0.116,0.019l0.116,0.024l0.116,0.027l0.113,0.031l0.114,0.035l0.112,0.039l0.112,0.042l0.11,0.047l0.109,0.051l0.107,0.054l0.106,0.058l0.104,0.062l0.088,0.056l1.23,0.82l1.094,-2.46l0.05,-0.109l0.059,-0.12l0.062,-0.118l0.066,-0.116l0.068,-0.114l0.071,-0.112l0.073,-0.11l0.077,-0.108l0.079,-0.105l0.082,-0.104l0.085,-0.1l0.087,-0.099l0.089,-0.096l0.092,-0.094l0.095,-0.091l0.096,-0.089l0.099,-0.086l0.102,-0.084l0.103,-0.081l0.106,-0.078l0.107,-0.076l0.11,-0.072l0.112,-0.07l0.114,-0.067l0.115,-0.064l0.118,-0.061l0.119,-0.058l0.121,-0.055l0.122,-0.052l0.125,-0.048l0.125,-0.046l0.128,-0.042l0.128,-0.038l0.129,-0.035l0.13,-0.032l0.129,-0.028l0.131,-0.025l0.131,-0.021l0.131,-0.017l0.131,-0.014l0.132,-0.011l0.132,-0.007l0.131,-0.004l0.132,0l0.131,0.004l0.131,0.006l0.131,0.011l0.131,0.013l0.13,0.017l0.13,0.021l0.129,0.024l0.129,0.027l0.127,0.031l0.127,0.034l0.127,0.037l0.125,0.041l0.125,0.044l0.123,0.048l0.123,0.05l0.121,0.055l0.12,0.057l0.119,0.061l0.117,0.064l0.104,0.061l1.075,0.645l1.075,-0.645l0.104,-0.061l0.117,-0.064l0.119,-0.061l0.12,-0.057l0.121,-0.055l0.123,-0.05l0.123,-0.048l0.125,-0.044l0.125,-0.041l0.127,-0.037l0.127,-0.034l0.127,-0.031l0.129,-0.027l0.129,-0.024l0.13,-0.021l0.13,-0.017l0.131,-0.013l0.131,-0.011l0.131,-0.006l0.131,-0.004l0.132,0l0.131,0.004l0.132,0.007l0.132,0.011l0.131,0.014l0.131,0.017l0.131,0.021l0.131,0.025l0.13,0.028l0.129,0.032l0.129,0.035l0.128,0.038l0.128,0.042l0.125,0.046l0.125,0.048l0.122,0.052l0.121,0.055l0.119,0.058l0.118,0.061l0.115,0.064l0.114,0.067l0.112,0.07l0.11,0.072l0.107,0.076l0.106,0.078l0.103,0.081l0.102,0.084l0.099,0.086l0.096,0.089l0.095,0.091l0.092,0.094l0.089,0.096l0.087,0.099l0.085,0.1l0.082,0.104l0.079,0.105l0.077,0.108l0.073,0.11l0.071,0.112l0.068,0.114l0.066,0.116l0.062,0.118l0.059,0.12l0.05,0.109l1.094,2.46l1.23,-0.82l0.088,-0.056l0.104,-0.062l0.106,-0.058l0.107,-0.054l0.109,-0.051l0.11,-0.047l0.112,-0.042l0.112,-0.039l0.114,-0.035l0.113,-0.031l0.116,-0.027l0.116,-0.024l0.116,-0.019l0.117,-0.015l0.117,-0.012l0.118,-0.008l0.117,-0.003l0.118,0l0.118,0.004Zm-16.301,-0.018l-0.026,0.001l-0.027,0.002l-0.026,0.002l-0.026,0.002l-0.026,0.004l-0.026,0.004l-0.027,0.005l-0.026,0.006l-0.025,0.006l-0.026,0.007l-0.026,0.008l-0.026,0.008l-0.025,0.009l-0.025,0.01l-0.024,0.01l-0.024,0.011l-0.024,0.012l-0.024,0.012l-0.022,0.013l-0.023,0.013l-0.023,0.014l-0.022,0.015l-0.021,0.015l-0.021,0.015l-0.021,0.017l-0.02,0.016l-0.02,0.018l-0.019,0.017l-0.019,0.019l-0.019,0.018l-0.018,0.02l-0.017,0.019l-0.017,0.021l-0.016,0.02l-0.016,0.021l-0.015,0.022l-0.015,0.022l-0.014,0.022l-0.014,0.023l-0.013,0.023l-0.012,0.024l-0.012,0.024l-0.017,0.036l-1.905,4.287l0.597,1.325l-1.667,1.885l-0.075,0.086l-0.074,0.088l-0.073,0.089l-0.072,0.089l-0.07,0.09l-0.07,0.09l-0.069,0.092l-0.067,0.092l-0.066,0.093l-0.066,0.093l-0.064,0.094l-0.063,0.095l-0.062,0.096l-0.061,0.096l-0.059,0.096l-0.059,0.098l-0.057,0.098l-0.057,0.099l-0.055,0.099l-0.054,0.1l-0.053,0.1l-0.051,0.101l-0.051,0.102l-0.049,0.102l-0.049,0.103l-0.047,0.103l-0.045,0.104l-0.045,0.104l-0.044,0.105l-0.042,0.105l-0.041,0.106l-0.04,0.106l-0.039,0.106l-0.037,0.107l-0.037,0.108l-0.035,0.108l-0.033,0.108l-0.033,0.109l-0.032,0.109l-0.03,0.11l-0.029,0.109l-0.027,0.111l-0.027,0.11l-0.025,0.111l-0.024,0.112l-0.023,0.111l-0.021,0.112l-0.02,0.112l-0.019,0.113l-0.018,0.113l-0.016,0.113l-0.015,0.113l-0.014,0.114l-0.012,0.113l-0.012,0.114l-0.01,0.115l-0.008,0.114l-0.007,0.115l-0.006,0.115l-0.005,0.115l-0.003,0.115l-0.002,0.115l-0.001,0.116l0.001,0.112l0.002,0.112l0.003,0.111l0.005,0.111l0.006,0.112l0.008,0.11l0.009,0.111l0.01,0.111l0.012,0.11l0.013,0.11l0.014,0.11l0.016,0.109l0.017,0.109l0.018,0.109l0.02,0.109l0.021,0.108l0.022,0.108l0.023,0.108l0.025,0.107l0.026,0.107l0.028,0.106l0.029,0.106l0.03,0.106l0.031,0.105l0.033,0.105l0.034,0.105l0.035,0.104l0.036,0.104l0.038,0.103l0.039,0.102l0.04,0.102l0.041,0.102l0.043,0.101l0.044,0.101l0.045,0.1l0.046,0.1l0.047,0.099l0.049,0.098l0.05,0.098l0.051,0.097l0.053,0.097l0.053,0.096l0.055,0.095l0.056,0.095l0.057,0.094l0.058,0.093l0.06,0.093l0.06,0.092l0.062,0.092l0.063,0.09l0.064,0.09l0.065,0.089l0.066,0.089l0.068,0.088l0.068,0.087l0.07,0.086l0.071,0.085l0.072,0.085l0.073,0.084l0.074,0.082l0.076,0.083l0.076,0.081l0.077,0.08l0.079,0.08l0.08,0.079l0.08,0.077l0.081,0.076l0.082,0.076l0.084,0.074l0.083,0.073l0.085,0.072l0.085,0.071l0.086,0.07l0.087,0.068l0.088,0.068l0.089,0.066l0.089,0.065l0.09,0.064l0.09,0.063l0.092,0.062l0.092,0.06l0.093,0.06l0.093,0.058l0.094,0.057l0.095,0.056l0.095,0.055l0.096,0.053l0.097,0.053l0.097,0.051l0.098,0.05l0.099,0.049l0.098,0.047l0.1,0.046l0.1,0.045l0.101,0.044l0.101,0.043l0.102,0.041l0.102,0.04l0.102,0.039l0.104,0.038l0.103,0.036l0.104,0.035l0.105,0.034l0.105,0.033l0.105,0.031l0.106,0.03l0.106,0.029l0.106,0.028l0.107,0.026l0.107,0.025l0.108,0.023l0.108,0.022l0.108,0.021l0.109,0.02l0.109,0.018l0.109,0.017l0.109,0.016l0.11,0.014l0.11,0.013l0.11,0.012l0.111,0.01l0.111,0.009l0.11,0.008l0.112,0.006l0.111,0.005l0.111,0.003l0.112,0.002l0.118,0.001l1.988,0l0.118,-0.001l0.112,-0.002l0.111,-0.003l0.111,-0.005l0.112,-0.006l0.11,-0.008l0.111,-0.009l0.111,-0.01l0.11,-0.012l0.11,-0.013l0.11,-0.014l0.109,-0.016l0.109,-0.017l0.109,-0.018l0.109,-0.02l0.108,-0.021l0.108,-0.022l0.108,-0.023l0.107,-0.025l0.107,-0.026l0.106,-0.028l0.106,-0.029l0.106,-0.03l0.105,-0.031l0.105,-0.033l0.105,-0.034l0.104,-0.035l0.103,-0.036l0.104,-0.038l0.102,-0.039l0.102,-0.04l0.102,-0.041l0.101,-0.043l0.101,-0.044l0.1,-0.045l0.1,-0.046l0.098,-0.047l0.099,-0.049l0.098,-0.05l0.097,-0.051l0.097,-0.053l0.096,-0.053l0.095,-0.055l0.095,-0.056l0.094,-0.057l0.093,-0.058l0.093,-0.06l0.092,-0.06l0.092,-0.062l0.09,-0.063l0.09,-0.064l0.089,-0.065l0.089,-0.066l0.088,-0.068l0.087,-0.068l0.086,-0.07l0.085,-0.071l0.085,-0.072l0.084,-0.073l0.082,-0.074l0.083,-0.076l0.081,-0.076l0.08,-0.077l0.08,-0.079l0.079,-0.08l0.077,-0.08l0.076,-0.081l0.076,-0.082l0.074,-0.083l0.073,-0.084l0.072,-0.085l0.071,-0.085l0.07,-0.086l0.068,-0.087l0.068,-0.088l0.066,-0.089l0.065,-0.089l0.064,-0.09l0.063,-0.09l0.062,-0.092l0.06,-0.092l0.06,-0.093l0.058,-0.093l0.057,-0.094l0.056,-0.095l0.055,-0.095l0.053,-0.096l0.053,-0.097l0.051,-0.097l0.05,-0.098l0.049,-0.098l0.047,-0.099l0.046,-0.1l0.045,-0.1l0.044,-0.101l0.043,-0.101l0.041,-0.101l0.04,-0.103l0.039,-0.102l0.038,-0.103l0.036,-0.104l0.035,-0.104l0.034,-0.105l0.033,-0.104l0.031,-0.106l0.03,-0.106l0.029,-0.106l0.028,-0.106l0.026,-0.107l0.025,-0.107l0.023,-0.108l0.022,-0.108l0.021,-0.108l0.02,-0.109l0.018,-0.109l0.017,-0.109l0.016,-0.109l0.014,-0.11l0.013,-0.11l0.012,-0.11l0.01,-0.111l0.009,-0.111l0.008,-0.111l0.006,-0.111l0.005,-0.111l0.003,-0.111l0.002,-0.112l0.001,-0.112l-0.001,-0.116l-0.002,-0.115l-0.003,-0.115l-0.005,-0.115l-0.006,-0.115l-0.007,-0.115l-0.008,-0.114l-0.01,-0.115l-0.012,-0.114l-0.012,-0.113l-0.014,-0.114l-0.015,-0.113l-0.016,-0.113l-0.018,-0.113l-0.019,-0.113l-0.02,-0.112l-0.021,-0.112l-0.023,-0.111l-0.024,-0.112l-0.025,-0.111l-0.027,-0.11l-0.027,-0.111l-0.029,-0.109l-0.03,-0.11l-0.032,-0.109l-0.033,-0.109l-0.033,-0.108l-0.035,-0.108l-0.037,-0.108l-0.037,-0.107l-0.039,-0.106l-0.04,-0.106l-0.041,-0.106l-0.042,-0.105l-0.044,-0.105l-0.045,-0.104l-0.045,-0.104l-0.047,-0.103l-0.049,-0.103l-0.049,-0.102l-0.051,-0.102l-0.051,-0.101l-0.053,-0.1l-0.054,-0.1l-0.055,-0.099l-0.057,-0.099l-0.057,-0.098l-0.059,-0.097l-0.059,-0.097l-0.061,-0.097l-0.062,-0.095l-0.063,-0.095l-0.064,-0.094l-0.066,-0.093l-0.066,-0.093l-0.067,-0.092l-0.069,-0.092l-0.07,-0.09l-0.07,-0.09l-0.072,-0.089l-0.073,-0.089l-0.074,-0.088l-0.075,-0.086l-1.667,-1.885l0.597,-1.325l-1.905,-4.287l-0.017,-0.036l-0.012,-0.024l-0.012,-0.024l-0.013,-0.023l-0.014,-0.023l-0.014,-0.022l-0.015,-0.022l-0.015,-0.022l-0.016,-0.021l-0.016,-0.02l-0.017,-0.021l-0.017,-0.019l-0.018,-0.02l-0.019,-0.018l-0.019,-0.019l-0.019,-0.017l-0.02,-0.018l-0.02,-0.016l-0.021,-0.017l-0.021,-0.015l-0.021,-0.015l-0.022,-0.015l-0.023,-0.014l-0.022,-0.013l-0.023,-0.013l-0.024,-0.012l-0.024,-0.012l-0.024,-0.011l-0.024,-0.01l-0.025,-0.01l-0.025,-0.009l-0.026,-0.008l-0.026,-0.008l-0.026,-0.007l-0.025,-0.006l-0.026,-0.006l-0.027,-0.005l-0.026,-0.004l-0.026,-0.004l-0.026,-0.002l-0.026,-0.002l-0.027,-0.002l-0.026,-0.001l-0.026,0l-0.026,0.001l-0.027,0.001l-0.026,0.002l-0.026,0.003l-0.026,0.004l-0.026,0.004l-0.026,0.004l-0.026,0.006l-0.025,0.006l-0.026,0.007l-0.025,0.007l-0.025,0.008l-0.025,0.009l-0.024,0.01l-0.025,0.01l-0.024,0.011l-0.024,0.011l-0.024,0.012l-0.023,0.013l-0.035,0.02l-3.11,1.866l-3.11,-1.866l-0.035,-0.02l-0.023,-0.013l-0.024,-0.012l-0.024,-0.011l-0.024,-0.011l-0.025,-0.01l-0.024,-0.01l-0.025,-0.009l-0.025,-0.008l-0.025,-0.007l-0.026,-0.007l-0.025,-0.006l-0.026,-0.006l-0.026,-0.004l-0.026,-0.004l-0.026,-0.004l-0.026,-0.003l-0.026,-0.002l-0.027,-0.001l-0.026,-0.001l-0.026,0Z"/></g><g id="emoji"><g><path d="M26.392,13c1.045,1.809 1.608,3.875 1.608,6c0,0 0,0 0,0c0,2.917 -1.159,5.715 -3.222,7.778c-2.063,2.063 -4.861,3.222 -7.778,3.222c-0.665,0 -1.335,0 -2,0c-2.917,0 -5.715,-1.159 -7.778,-3.222c-2.063,-2.063 -3.222,-4.861 -3.222,-7.778c0,0 0,0 0,0c0,-2.125 0.563,-4.191 1.608,-6l1.392,-1l18,0l1.392,1Z" style="fill:#fbc546;"/><path d="M5.608,13c0.52,-0.901 1.159,-1.737 1.907,-2.485c2.25,-2.251 5.302,-3.515 8.485,-3.515c0,0 0,0 0,0c3.183,0 6.235,1.264 8.485,3.515c0.748,0.748 1.387,1.584 1.907,2.485l-20.784,0Z" style="fill:#e59a10;"/></g><path d="M10.102,21.005l0.068,0.01l0.067,0.013l0.066,0.019l0.064,0.023l0.062,0.027l0.061,0.031l0.058,0.036l0.056,0.039l0.053,0.043l0.05,0.047l0.877,0.877l0.057,0.056l0.056,0.054l0.056,0.053l0.057,0.052l0.058,0.052l0.058,0.05l0.059,0.05l0.059,0.049l0.06,0.049l0.06,0.047l0.061,0.047l0.061,0.046l0.062,0.045l0.062,0.045l0.063,0.043l0.064,0.043l0.064,0.042l0.064,0.041l0.065,0.041l0.065,0.039l0.066,0.039l0.066,0.038l0.066,0.037l0.067,0.037l0.068,0.035l0.068,0.035l0.068,0.034l0.069,0.032l0.069,0.033l0.069,0.031l0.07,0.03l0.07,0.03l0.071,0.029l0.07,0.027l0.072,0.027l0.071,0.026l0.072,0.026l0.072,0.024l0.073,0.024l0.072,0.022l0.073,0.022l0.074,0.021l0.073,0.02l0.074,0.019l0.074,0.018l0.075,0.017l0.074,0.016l0.075,0.016l0.075,0.014l0.076,0.014l0.075,0.013l0.076,0.012l0.076,0.01l0.076,0.01l0.076,0.009l0.077,0.008l0.076,0.008l0.077,0.006l0.077,0.005l0.077,0.004l0.077,0.004l0.078,0.002l0.077,0.002l0.078,0l0.078,0l0.077,-0.002l0.078,-0.002l0.077,-0.004l0.077,-0.004l0.077,-0.005l0.077,-0.006l0.076,-0.008l0.077,-0.008l0.076,-0.009l0.076,-0.01l0.076,-0.01l0.076,-0.012l0.075,-0.013l0.076,-0.014l0.075,-0.014l0.075,-0.016l0.074,-0.016l0.075,-0.017l0.074,-0.018l0.074,-0.019l0.073,-0.02l0.074,-0.021l0.073,-0.022l0.072,-0.022l0.073,-0.024l0.072,-0.024l0.072,-0.026l0.071,-0.026l0.072,-0.027l0.07,-0.027l0.071,-0.029l0.07,-0.03l0.07,-0.03l0.069,-0.031l0.069,-0.033l0.069,-0.032l0.068,-0.034l0.068,-0.035l0.068,-0.035l0.067,-0.037l0.066,-0.037l0.066,-0.038l0.066,-0.039l0.065,-0.039l0.065,-0.041l0.064,-0.041l0.064,-0.042l0.064,-0.043l0.063,-0.043l0.062,-0.045l0.062,-0.045l0.061,-0.046l0.061,-0.047l0.06,-0.047l0.06,-0.049l0.059,-0.049l0.059,-0.05l0.058,-0.05l0.058,-0.052l0.057,-0.052l0.056,-0.053l0.056,-0.054l0.057,-0.056l0.877,-0.877l0.05,-0.047l0.053,-0.043l0.056,-0.039l0.058,-0.036l0.061,-0.031l0.062,-0.027l0.064,-0.023l0.066,-0.019l0.067,-0.013l0.068,-0.01l0.068,-0.004l0.068,0l0.068,0.004l0.068,0.01l0.067,0.013l0.066,0.019l0.064,0.023l0.062,0.027l0.061,0.031l0.058,0.036l0.056,0.039l0.053,0.043l0.05,0.047l0.047,0.05l0.043,0.053l0.039,0.056l0.036,0.058l0.031,0.061l0.027,0.062l0.023,0.064l0.019,0.066l0.013,0.067l0.01,0.068l0.004,0.068l0,0.068l-0.004,0.068l-0.01,0.068l-0.013,0.067l-0.019,0.066l-0.023,0.064l-0.027,0.062l-0.031,0.061l-0.036,0.058l-0.039,0.056l-0.043,0.053l-0.047,0.05l-0.881,0.881l-0.071,0.07l-0.073,0.071l-0.075,0.07l-0.075,0.069l-0.076,0.068l-0.077,0.067l-0.077,0.066l-0.078,0.064l-0.079,0.064l-0.08,0.063l-0.08,0.062l-0.081,0.061l-0.082,0.059l-0.082,0.059l-0.083,0.058l-0.084,0.056l-0.084,0.056l-0.085,0.054l-0.086,0.054l-0.086,0.052l-0.087,0.051l-0.087,0.05l-0.088,0.049l-0.089,0.048l-0.089,0.047l-0.089,0.046l-0.09,0.044l-0.091,0.044l-0.091,0.042l-0.092,0.041l-0.092,0.041l-0.093,0.039l-0.093,0.038l-0.093,0.036l-0.094,0.036l-0.095,0.034l-0.095,0.034l-0.095,0.032l-0.096,0.031l-0.096,0.03l-0.096,0.028l-0.097,0.028l-0.097,0.026l-0.098,0.025l-0.098,0.024l-0.098,0.023l-0.098,0.022l-0.099,0.02l-0.099,0.019l-0.1,0.018l-0.1,0.017l-0.1,0.016l-0.1,0.014l-0.1,0.013l-0.101,0.012l-0.101,0.011l-0.101,0.009l-0.102,0.008l-0.101,0.007l-0.102,0.006l-0.102,0.004l-0.102,0.003l-0.102,0.002l-0.1,0.001l-0.006,0l-0.1,-0.001l-0.102,-0.002l-0.102,-0.003l-0.102,-0.004l-0.102,-0.006l-0.101,-0.007l-0.102,-0.008l-0.101,-0.009l-0.101,-0.011l-0.101,-0.012l-0.1,-0.013l-0.1,-0.014l-0.1,-0.016l-0.1,-0.017l-0.1,-0.018l-0.099,-0.019l-0.099,-0.02l-0.098,-0.022l-0.098,-0.023l-0.098,-0.024l-0.098,-0.025l-0.097,-0.026l-0.097,-0.028l-0.096,-0.028l-0.096,-0.03l-0.096,-0.031l-0.095,-0.032l-0.095,-0.034l-0.095,-0.034l-0.094,-0.036l-0.093,-0.036l-0.093,-0.038l-0.093,-0.039l-0.092,-0.041l-0.092,-0.041l-0.091,-0.042l-0.091,-0.044l-0.09,-0.044l-0.089,-0.046l-0.089,-0.047l-0.089,-0.048l-0.088,-0.049l-0.087,-0.05l-0.087,-0.051l-0.086,-0.052l-0.086,-0.054l-0.085,-0.054l-0.084,-0.056l-0.084,-0.056l-0.083,-0.058l-0.082,-0.059l-0.082,-0.059l-0.081,-0.061l-0.08,-0.062l-0.08,-0.063l-0.079,-0.064l-0.078,-0.064l-0.077,-0.066l-0.077,-0.067l-0.076,-0.068l-0.075,-0.069l-0.075,-0.07l-0.073,-0.071l-0.071,-0.07l-0.881,-0.881l-0.047,-0.05l-0.043,-0.053l-0.039,-0.056l-0.036,-0.058l-0.031,-0.061l-0.027,-0.062l-0.023,-0.064l-0.019,-0.066l-0.013,-0.067l-0.01,-0.068l-0.004,-0.068l0,-0.068l0.004,-0.068l0.01,-0.068l0.013,-0.067l0.019,-0.066l0.023,-0.064l0.027,-0.062l0.031,-0.061l0.036,-0.058l0.039,-0.056l0.043,-0.053l0.047,-0.05l0.05,-0.047l0.053,-0.043l0.056,-0.039l0.058,-0.036l0.061,-0.031l0.062,-0.027l0.064,-0.023l0.066,-0.019l0.067,-0.013l0.068,-0.01l0.068,-0.004l0.068,0l0.068,0.004Z" style="fill:#593604;"/><g><path d="M12,15.5c0,-0.398 -0.158,-0.779 -0.439,-1.061c-0.282,-0.281 -0.663,-0.439 -1.061,-0.439c-0.398,0 -0.779,0.158 -1.061,0.439c-0.281,0.282 -0.439,0.663 -0.439,1.061c0,0.633 0,1.367 0,2c0,0.398 0.158,0.779 0.439,1.061c0.282,0.281 0.663,0.439 1.061,0.439c0.398,0 0.779,-0.158 1.061,-0.439c0.281,-0.282 0.439,-0.663 0.439,-1.061c0,-0.633 0,-1.367 0,-2Z"/><path d="M23,15.498c0,-0.827 -0.671,-1.498 -1.498,-1.498c-0.001,0 -0.003,0 -0.004,0c-0.827,0 -1.498,0.671 -1.498,1.498c0,0.633 0,1.369 0,2.002c0,0.398 0.158,0.779 0.439,1.061c0.282,0.281 0.663,0.439 1.061,0.439c0.398,0 0.779,-0.158 1.061,-0.439c0.281,-0.282 0.439,-0.663 0.439,-1.061c0,-0.633 0,-1.369 0,-2.002Z"/></g><g><g><path d="M7.889,8l1.111,-0.643l14,0l1.111,0.643l0.889,2l-18,0l0.889,-2Zm0.444,-1l1.29,-2.901c0.349,-0.786 1.018,-1.384 1.837,-1.642c0.82,-0.259 1.711,-0.155 2.448,0.288c1.1,0.66 2.092,1.255 2.092,1.255c0,0 0.992,-0.595 2.092,-1.255c0.737,-0.443 1.628,-0.547 2.448,-0.288c0.819,0.258 1.488,0.856 1.837,1.642l1.29,2.901l-0.667,0.643l-14,0l-0.667,-0.643Z" style="fill:#6c5935;"/><path d="M24.111,8l-16.222,0l0.444,-1l15.334,0l0.444,1Z" style="fill:#978156;"/></g><path d="M5.985,7.656c1.314,0.876 2.858,1.344 4.437,1.344c3.017,0 8.139,0 11.156,0c1.579,0 3.123,-0.468 4.437,-1.344c0.515,-0.342 1.072,-0.714 1.603,-1.068c0.47,-0.314 1.075,-0.343 1.573,-0.076c0.498,0.266 0.809,0.786 0.809,1.351c0,0 0,0.001 0,0.001c0,0.832 -0.33,1.629 -0.919,2.217c-0.588,0.589 -1.385,0.919 -2.217,0.919c-5.388,0 -16.34,0 -21.728,0c-0.832,0 -1.629,-0.33 -2.217,-0.919c-0.589,-0.588 -0.919,-1.385 -0.919,-2.217c0,0 0,-0.001 0,-0.001c0,-0.565 0.311,-1.085 0.809,-1.351c0.498,-0.267 1.103,-0.238 1.573,0.076c0.531,0.354 1.088,0.726 1.603,1.068Z" style="fill:#4e4024;"/></g></g></g></svg>