<?xml version="1.0" encoding="UTF-8" standalone="no"?>
<!DOCTYPE svg PUBLIC "-//W3C//DTD SVG 1.1//EN" "http://www.w3.org/Graphics/SVG/1.1/DTD/svg11.dtd">
<svg width="100%" height="100%" viewBox="0 0 32 32" version="1.1" xmlns="http://www.w3.org/2000/svg" xmlns:xlink="http://www.w3.org/1999/xlink" xml:space="preserve" xmlns:serif="http://www.serif.com/" style="fill-rule:evenodd;clip-rule:evenodd;stroke-linejoin:round;stroke-miterlimit:1.5;">
    <rect id="ghost" x="0" y="-0" width="32" height="32" style="fill:none;"/>
    <g id="outline">
        <path d="M23.977,17.635c-0.723,2.064 -1.776,4.583 -2.416,6.076c-0.366,0.868 -0.555,1.8 -0.555,2.742c-0.006,1.144 -0.006,2.547 -0.006,2.547l-3,-3l-2,3l-2,-3l-3,3c0,-0 0,-1.403 -0.006,-2.547c-0,-0.942 -0.189,-1.874 -0.555,-2.742c-0.64,-1.493 -1.693,-4.012 -2.416,-6.076c-4.456,-1.129 -6.023,-3.905 -6.023,-7.134c0,-0.661 0,-1.612 0.005,-2.47c0,-0.373 0.227,-0.708 0.572,-0.848c0.346,-0.139 0.742,-0.054 1,0.214c0.525,0.507 1.067,1.083 1.423,1.603c0.638,0.931 0.412,3.209 2.032,3.837c-0.085,-2.064 0.182,-4.6 1.339,-6.493c1.64,-2.687 4.044,-3.344 7.629,-3.344c3.585,-0 5.989,0.657 7.629,3.344c1.157,1.893 1.424,4.429 1.339,6.493c1.62,-0.628 1.394,-2.906 2.032,-3.837c0.356,-0.52 0.898,-1.096 1.423,-1.603c0.258,-0.268 0.654,-0.353 1,-0.214c0.345,0.14 0.572,0.475 0.572,0.848c0.005,0.858 0.005,1.809 0.005,2.47c0,3.229 -1.567,6.005 -6.023,7.134Z" style="fill:none;stroke:#000;stroke-width:4px;"/>
    </g>
    <g id="emoji">
        <path d="M23.977,17.635c-0.723,2.064 -1.776,4.583 -2.416,6.076c-0.366,0.868 -0.555,1.8 -0.555,2.742c-0.006,1.144 -0.006,2.547 -0.006,2.547l-3,-3l-2,3l-2,-3l-3,3c0,-0 0,-1.403 -0.006,-2.547c-0,-0.942 -0.189,-1.874 -0.555,-2.742c-0.64,-1.493 -1.693,-4.012 -2.416,-6.076c-4.456,-1.129 -6.023,-3.905 -6.023,-7.134c0,-0.661 0,-1.612 0.005,-2.47c0,-0.373 0.227,-0.708 0.572,-0.848c0.346,-0.139 0.742,-0.054 1,0.214c0.525,0.507 1.067,1.083 1.423,1.603c0.638,0.931 0.412,3.209 2.032,3.837c-0.085,-2.064 0.182,-4.6 1.339,-6.493c1.64,-2.687 4.044,-3.344 7.629,-3.344c3.585,-0 5.989,0.657 7.629,3.344c1.157,1.893 1.424,4.429 1.339,6.493c1.62,-0.628 1.394,-2.906 2.032,-3.837c0.356,-0.52 0.898,-1.096 1.423,-1.603c0.258,-0.268 0.654,-0.353 1,-0.214c0.345,0.14 0.572,0.475 0.572,0.848c0.005,0.858 0.005,1.809 0.005,2.47c-0,3.229 -1.567,6.005 -6.023,7.134Z" style="fill:#fff;"/>
        <path d="M10.553,9.394c-0.494,-0.246 -0.694,-0.848 -0.447,-1.341c0.246,-0.494 0.848,-0.694 1.341,-0.447l2,1c0.494,0.246 0.694,0.848 0.447,1.341c-0.246,0.494 -0.848,0.694 -1.341,0.447l-2,-1Zm10,-1.788c0.493,-0.247 1.095,-0.047 1.341,0.447c0.247,0.493 0.047,1.095 -0.447,1.341l-2,1c-0.493,0.247 -1.095,0.047 -1.341,-0.447c-0.247,-0.493 -0.047,-1.095 0.447,-1.341l2,-1Z"/>
        <path d="M20.278,16.643c2.286,-1.77 2.722,-4.643 2.722,-4.643l-2.5,1l-1,-1l-2,1l-1.5,-1l-1.5,1l-2,-1l-1,1l-2.5,-1c0,-0 0.436,2.873 2.722,4.643c1.029,-1.045 7.527,-1.045 8.556,0Z" style="fill:#75050d;"/>
        <path d="M13,17.406c-0.48,-0.213 -0.903,-0.473 -1.278,-0.763c0.379,-0.385 0.811,-0.71 1.278,-0.966c0.369,0.605 0.405,1.184 0,1.729Zm6,-1.729c0.467,0.256 0.899,0.581 1.278,0.966c-0.375,0.29 -0.798,0.55 -1.278,0.763c-0.372,-0.507 -0.432,-1.073 -0,-1.729Z" style="fill:#b40816;"/>
        <path d="M19,17.406c-0.008,0.004 -0.017,0.007 -0.025,0.011c-0.207,1.678 -1.654,2.583 -2.975,2.583c-1.321,-0 -2.768,-0.905 -2.975,-2.583c-0.008,-0.004 -0.017,-0.007 -0.025,-0.011l-0,-1.729c0.801,-0.439 1.708,-0.677 2.644,-0.677l0.712,-0c0.936,0 1.843,0.238 2.644,0.677l-0,1.729Z" style="fill:#f4101c;"/>
    </g>
</svg>
