<?xml version="1.0" encoding="UTF-8" standalone="no"?>
<!DOCTYPE svg PUBLIC "-//W3C//DTD SVG 1.1//EN" "http://www.w3.org/Graphics/SVG/1.1/DTD/svg11.dtd">
<svg width="100%" height="100%" viewBox="0 0 32 32" version="1.1" xmlns="http://www.w3.org/2000/svg" xmlns:xlink="http://www.w3.org/1999/xlink" xml:space="preserve" xmlns:serif="http://www.serif.com/" style="fill-rule:evenodd;clip-rule:evenodd;stroke-linejoin:round;stroke-miterlimit:2;">
    <rect id="hot_shit" x="0" y="0.017" width="32" height="32" style="fill:none;"/>
    <clipPath id="_clip1">
        <rect x="0" y="0.017" width="32" height="32"/>
    </clipPath>
    <g clip-path="url(#_clip1)">
        <g id="outline">
            <path d="M25,5.015c0,-2.761 2.238,-4.998 4.998,-4.998l2.002,0l0,5.716c0,1.257 -0.464,2.406 -1.232,3.284l1.232,0c0,0 0,7.412 0,7.412c0,3.638 -2.949,6.588 -6.587,6.588l-4.413,0l0,-3.786l-2,0l0,-5.048c-0.835,0.266 -1.715,0.405 -2.608,0.405l-2.392,0l0,-5.106c0,-2.283 0.907,-4.473 2.521,-6.087c1.615,-1.614 3.804,-2.521 6.087,-2.521l2.392,0l0,4.141Z"/>
            <path d="M16.002,2.017c1.591,0 3.116,0.632 4.241,1.756c0.921,0.921 1.511,2.109 1.695,3.383c1.454,0.283 2.803,0.994 3.866,2.057c1.406,1.406 2.196,3.313 2.196,5.302l0,0.004c0,0.502 -0.05,1 -0.149,1.485c0.657,0.361 1.266,0.816 1.806,1.356c1.488,1.488 2.33,3.503 2.343,5.607l0,0.05c0,2.121 -0.843,4.156 -2.343,5.657c-1.5,1.5 -3.535,2.343 -5.657,2.343c0,0 -16,0 -16.006,0c-0.884,-0.003 -1.763,-0.148 -2.599,-0.436c-1.35,-0.465 -2.564,-1.294 -3.488,-2.381c-0.677,-0.795 -1.195,-1.723 -1.517,-2.717c-0.258,-0.794 -0.387,-1.625 -0.39,-2.46l0,-0.056c0.013,-2.104 0.855,-4.119 2.343,-5.607c0.54,-0.54 1.149,-0.995 1.806,-1.356c-0.099,-0.485 -0.149,-0.983 -0.149,-1.485l0,-0.004c0,-1.989 0.79,-3.896 2.196,-5.302c0.799,-0.799 1.759,-1.399 2.804,-1.768l0,-3.428c0.027,-1.071 0.828,-1.916 1.897,-1.998l0.103,-0.002l5.002,0Z"/>
        </g>
        <g id="emoji">
            <path d="M21,10.716c-1.233,1.199 -2.886,1.872 -4.608,1.872l-0.392,0c0,0 0,-1.384 0,-3.106c0,-1.753 0.696,-3.434 1.935,-4.673c1.24,-1.239 2.92,-1.935 4.673,-1.935l0.392,0c0,0 0,1.383 0,3.106c0,0.428 -0.041,0.851 -0.122,1.265c0.362,-0.149 0.754,-0.228 1.154,-0.228l1.968,0l0,4.282c0.495,-0.183 1.029,-0.282 1.587,-0.282l2.413,0l0,5.412c0,2.534 -2.054,4.588 -4.587,4.588l-2.413,0l0,-3.786l-0.032,0l-1.968,0l0,-6.515Zm9,-8.699l0,3.716c0,1.656 -1.342,2.998 -2.998,2.998l-0.002,0c0,0 0,-1.927 0,-3.716c0,-1.656 1.342,-2.998 2.998,-2.998l0.002,0Z" style="fill:#f08c00;"/>
            <path d="M21.032,6.017l0.968,0l0,3.18c0.322,-0.117 0.669,-0.18 1.032,-0.18l0.968,0l0,4.781c0.538,-0.486 1.25,-0.781 2.032,-0.781l1.968,0c0,0 0,2.077 0,3.968c0,1.674 -1.357,3.032 -3.032,3.032l-1.968,0l0,-3.782c-0.538,0.486 -1.25,0.782 -2.032,0.782l-0.968,0l0,-4.18c-0.322,0.116 -0.669,0.18 -1.032,0.18l-0.968,0c0,0 0,-2.077 0,-3.969c0,-1.674 1.357,-3.031 3.032,-3.031Z" style="fill:#ffbf36;"/>
            <path d="M16.002,4.017c1.06,0 2.077,0.421 2.827,1.171c0.75,0.749 1.171,1.766 1.171,2.827l0,0.004c0,0.339 -0.043,0.674 -0.127,0.998l0.629,0c1.458,0 2.857,0.579 3.888,1.61c1.031,1.031 1.61,2.43 1.61,3.888l0,0.004c0,0.933 -0.237,1.841 -0.678,2.645c1.097,0.248 2.112,0.802 2.921,1.61c1.116,1.116 1.747,2.628 1.757,4.205l0,0.038c0,1.591 -0.632,3.117 -1.757,4.242c-1.126,1.126 -2.652,1.758 -4.243,1.758l-16,0c-0.664,-0.002 -1.326,-0.111 -1.954,-0.327c-1.012,-0.349 -1.923,-0.97 -2.616,-1.786c-0.508,-0.596 -0.896,-1.292 -1.138,-2.037c-0.193,-0.598 -0.29,-1.223 -0.292,-1.85l0,-0.038c0.01,-1.577 0.641,-3.089 1.757,-4.205c0.809,-0.808 1.824,-1.362 2.921,-1.61c-0.441,-0.804 -0.678,-1.712 -0.678,-2.645l0,-0.004c0,-1.458 0.579,-2.857 1.61,-3.888c0.975,-0.974 2.277,-1.545 3.648,-1.605l-0.004,-0.01c-0.167,-0.481 -0.252,-0.986 -0.254,-1.495l0,-3.5l5.002,0Z" style="fill:#9a6f42;"/>
            <path d="M10.731,25.852c-0.071,-0.048 -0.136,-0.105 -0.195,-0.172c-0.279,-0.321 -0.324,-0.783 -0.113,-1.153c0.353,-0.618 0.733,-1.283 1.089,-1.906c0.92,-1.611 2.633,-2.604 4.487,-2.604c0.001,0 0.001,0 0.002,0c1.854,0 3.567,0.993 4.487,2.604c0.356,0.623 0.736,1.288 1.089,1.906c0.211,0.37 0.166,0.832 -0.113,1.153c-0.059,0.067 -0.124,0.124 -0.195,0.172l-5.269,-1.835l-5.269,1.835Z" style="fill:#352412;"/>
            <path d="M16.107,23.017c1.828,0 3.558,0.831 4.7,2.259l0.462,0.576c-0.271,0.183 -0.619,0.225 -0.931,0.1c-0.379,-0.152 -0.753,-0.301 -1.086,-0.435c-0.827,-0.33 -1.71,-0.5 -2.6,-0.5l-1.304,0c-0.89,0 -1.773,0.17 -2.6,0.5c-0.333,0.134 -0.707,0.283 -1.086,0.435c-0.312,0.125 -0.66,0.083 -0.931,-0.1l0.462,-0.576c1.142,-1.428 2.872,-2.259 4.7,-2.259l0.214,0Z" style="fill:#1f140a;"/>
            <g>
                <path d="M11,12.017c0.271,0 0.534,0.036 0.784,0.103c0.216,0.88 1.799,4.711 2.216,4.398l0,0.501c0,0.795 -0.316,1.557 -0.878,2.12c-0.562,0.562 -1.325,0.878 -2.12,0.878c-0.001,0 -0.001,0 -0.002,0c-1.657,0 -3,-1.343 -3,-3c0,-0.655 0,-1.348 0,-2.002c0,-0.795 0.316,-1.558 0.878,-2.12c0.562,-0.562 1.325,-0.878 2.12,-0.878l0.002,0Z" style="fill:#fff;"/>
                <path d="M11.784,12.12c1.277,0.345 2.216,1.511 2.216,2.897l0,1.501c-0.417,0.313 -0.936,0.499 -1.498,0.499l-0.004,0c-1.38,0 -2.498,-1.119 -2.498,-2.498l0,-0.004c0,-1.132 0.752,-2.088 1.784,-2.395Z"/>
            </g>
            <g>
                <path d="M21,12.017c0.271,0 0.534,0.036 0.784,0.103c0.216,0.88 1.799,4.711 2.216,4.398l0,0.501c0,0.795 -0.316,1.557 -0.878,2.12c-0.562,0.562 -1.325,0.878 -2.12,0.878c-0.001,0 -0.001,0 -0.002,0c-1.657,0 -3,-1.343 -3,-3c0,-0.655 0,-1.348 0,-2.002c0,-0.795 0.316,-1.558 0.878,-2.12c0.562,-0.562 1.325,-0.878 2.12,-0.878l0.002,0Z" style="fill:#fff;"/>
                <path d="M21.784,12.12c1.277,0.345 2.216,1.511 2.216,2.897l0,1.501c-0.417,0.313 -0.936,0.499 -1.498,0.499l-0.004,0c-1.38,0 -2.498,-1.119 -2.498,-2.498l0,-0.004c0,-1.132 0.752,-2.088 1.784,-2.395Z"/>
            </g>
        </g>
    </g>
</svg>
