<?xml version="1.0" encoding="UTF-8" standalone="no"?><!DOCTYPE svg PUBLIC "-//W3C//DTD SVG 1.1//EN" "http://www.w3.org/Graphics/SVG/1.1/DTD/svg11.dtd"><svg width="100%" height="100%" viewBox="0 0 32 32" version="1.1" xmlns="http://www.w3.org/2000/svg" xmlns:xlink="http://www.w3.org/1999/xlink" xml:space="preserve" xmlns:serif="http://www.serif.com/" style="fill-rule:evenodd;clip-rule:evenodd;stroke-linecap:round;stroke-linejoin:round;stroke-miterlimit:1.5;"><rect id="imp_angry" x="0" y="0" width="32" height="32" style="fill:none;"/><clipPath id="_clip1"><rect x="0" y="0" width="32" height="32"/></clipPath><g clip-path="url(#_clip1)"><g id="outline"><path d="M23.039,7.069l-0.039,-0.069c0,0 1.319,-0.659 2.442,-1.221c1.032,-0.516 1.974,-1.195 2.79,-2.011c0.828,-0.828 1.768,-1.768 1.768,-1.768c0,0 0,2.425 0,4.758c0,2.225 -0.724,4.375 -2.041,6.135c0.67,1.568 1.041,3.294 1.041,5.107c0,0.503 0,1.005 0,1.502c0,2.784 -1.106,5.454 -3.075,7.423c-1.969,1.969 -4.639,3.075 -7.423,3.075c-1.649,0 -3.355,0 -5.004,0c-2.784,0 -5.454,-1.106 -7.423,-3.075c-1.969,-1.969 -3.075,-4.639 -3.075,-7.423c0,-0.498 0,-1 0,-1.504c0,-1.812 0.371,-3.538 1.041,-5.105c-1.317,-1.761 -2.041,-3.911 -2.041,-6.135c0,-2.333 0,-4.758 0,-4.758c0,0 0.94,0.94 1.768,1.768c0.816,0.816 1.758,1.495 2.79,2.011c1.123,0.562 2.442,1.221 2.442,1.221l-0.039,0.068c2.028,-1.309 4.444,-2.068 7.037,-2.068c0.001,0 0.001,0 0.002,0c2.594,0 5.011,0.76 7.039,2.069Z" style="fill:none;stroke:#000;stroke-width:4px;"/></g><g id="emoji"><path d="M23,7c0,0 1.319,-0.659 2.442,-1.221c1.032,-0.516 1.974,-1.195 2.79,-2.011c0.828,-0.828 1.768,-1.768 1.768,-1.768c0,0 0,2.425 0,4.758c0,2.716 -1.079,5.321 -3,7.242c0,0 0,0 0,0l-4,-7Z" style="fill:#530f8a;"/><path d="M9,7c0,0 -1.319,-0.659 -2.442,-1.221c-1.032,-0.516 -1.974,-1.195 -2.79,-2.011c-0.828,-0.828 -1.768,-1.768 -1.768,-1.768c0,0 0,2.425 0,4.758c0,2.716 1.079,5.321 3,7.242c0,0 0,0 0,0l4,-7Z" style="fill:#530f8a;"/><path d="M29,18c0,-7.18 -5.82,-13 -13,-13c-0.001,0 -0.001,0 -0.002,0c-7.179,0 -12.998,5.819 -12.998,12.998c0,0.504 0,1.006 0,1.504c0,2.784 1.106,5.454 3.075,7.423c1.969,1.969 4.639,3.075 7.423,3.075c1.649,0 3.355,0 5.004,0c2.784,0 5.454,-1.106 7.423,-3.075c1.969,-1.969 3.075,-4.639 3.075,-7.423c0,-0.497 0,-0.999 0,-1.502Z" style="fill:#a253e2;"/><path d="M18.939,22.147l2.145,-2.145l0.045,0.003l3.671,4.895l0.045,0.065l0.039,0.068l0.034,0.07l0.028,0.074l0.023,0.075l0.016,0.077l0.011,0.077l0.004,0.079l-0.002,0.078l-0.008,0.078l-0.014,0.078l-0.02,0.076l-0.026,0.074l-0.032,0.071l-0.038,0.069l-0.042,0.066l-0.048,0.063l-0.052,0.058l-0.057,0.054l-0.061,0.05l-0.065,0.045l-0.068,0.039l-0.07,0.034l-0.074,0.028l-0.075,0.023l-0.077,0.016l-0.077,0.011l-0.079,0.004l-0.078,-0.002l-0.078,-0.008l-0.078,-0.014l-0.076,-0.02l-0.074,-0.026l-0.071,-0.032l-0.069,-0.038l-0.066,-0.042l-0.063,-0.048l-0.058,-0.052l-0.054,-0.057l-0.05,-0.061l-2.308,-3.078l-1.831,1.831l-3.059,-2.55l-3.064,2.571l-1.833,-1.848l-2.305,3.074l-0.05,0.061l-0.054,0.057l-0.058,0.052l-0.063,0.048l-0.066,0.042l-0.069,0.038l-0.071,0.032l-0.074,0.026l-0.076,0.02l-0.078,0.014l-0.078,0.008l-0.078,0.002l-0.079,-0.004l-0.077,-0.011l-0.077,-0.016l-0.075,-0.023l-0.074,-0.028l-0.07,-0.034l-0.068,-0.039l-0.065,-0.045l-0.061,-0.05l-0.057,-0.054l-0.052,-0.058l-0.048,-0.063l-0.042,-0.066l-0.038,-0.069l-0.032,-0.071l-0.026,-0.074l-0.02,-0.076l-0.014,-0.078l-0.008,-0.078l-0.002,-0.078l0.004,-0.079l0.011,-0.077l0.016,-0.077l0.023,-0.075l0.028,-0.074l0.034,-0.07l0.039,-0.068l0.045,-0.065l3.671,-4.895l0.052,-0.003l2.139,2.157l2.936,-2.462l2.941,2.45Z" style="fill:#3f0c69;"/><g><path d="M18,15l5,-5c1.105,0 2,0.895 2,2c0,1.029 0,2.313 0,3.5c0,1.933 -1.567,3.5 -3.5,3.5c-1.933,0 -3.5,-1.567 -3.5,-3.5c0,-0.165 0,-0.332 0,-0.5Z"/><path d="M14,15l-5,-5c-1.105,0 -2,0.895 -2,2c0,1.029 0,2.313 0,3.5c0,1.933 1.567,3.5 3.5,3.5c1.933,0 3.5,-1.567 3.5,-3.5c0,-0.165 0,-0.332 0,-0.5Z"/><path d="M9.065,12.065l2.935,2.935l0,0.483c0,0.398 -0.158,0.78 -0.439,1.061c-0.282,0.281 -0.663,0.439 -1.061,0.439c-0.398,0 -0.779,-0.158 -1.061,-0.439c-0.281,-0.281 -0.439,-0.663 -0.439,-1.061c0,-0.911 0,-2.071 0,-2.983c0,-0.149 0.022,-0.295 0.065,-0.435Z" style="fill:#f2c040;"/><path d="M22.935,12.065c0.043,0.14 0.065,0.286 0.065,0.435c0,0.912 0,2.072 0,2.983c0,0.398 -0.158,0.78 -0.439,1.061c-0.282,0.281 -0.663,0.439 -1.061,0.439c-0.398,0 -0.779,-0.158 -1.061,-0.439c-0.281,-0.281 -0.439,-0.663 -0.439,-1.061l0,-0.483l2.935,-2.935Z" style="fill:#f2c040;"/></g></g></g></svg>