<?xml version="1.0" encoding="UTF-8" standalone="no"?>
<!DOCTYPE svg PUBLIC "-//W3C//DTD SVG 1.1//EN" "http://www.w3.org/Graphics/SVG/1.1/DTD/svg11.dtd">
<svg width="100%" height="100%" viewBox="0 0 32 32" version="1.1" xmlns="http://www.w3.org/2000/svg" xmlns:xlink="http://www.w3.org/1999/xlink" xml:space="preserve" xmlns:serif="http://www.serif.com/" style="fill-rule:evenodd;clip-rule:evenodd;stroke-linejoin:round;stroke-miterlimit:2;">
    <rect id="imp_angry" x="0" y="0" width="32" height="32" style="fill:none;"/>
    <clipPath id="_clip1">
        <rect x="0" y="0" width="32" height="32"/>
    </clipPath>
    <g clip-path="url(#_clip1)">
        <g id="outline">
            <path d="M1.802,13.149c-1.169,-1.908 -1.802,-4.117 -1.802,-6.391l0,-4.758c0,-0.809 0.487,-1.538 1.235,-1.848c0.747,-0.309 1.607,-0.138 2.179,0.434c0,0 0.941,0.94 1.768,1.768c0.664,0.664 1.431,1.216 2.271,1.636l1.514,0.757c2.097,-1.115 4.49,-1.747 7.031,-1.747l0.002,0c2.541,0 4.935,0.632 7.032,1.748l1.515,-0.758c0.84,-0.42 1.607,-0.972 2.271,-1.636c0.827,-0.828 1.768,-1.768 1.768,-1.768c0.572,-0.572 1.432,-0.743 2.179,-0.434c0.748,0.31 1.235,1.039 1.235,1.848l0,4.758c0,2.274 -0.633,4.483 -1.802,6.392c0.52,1.521 0.802,3.153 0.802,4.85c0,0.503 0,1.005 0,1.502c0,3.315 -1.317,6.494 -3.661,8.837c-2.343,2.344 -5.522,3.661 -8.837,3.661c-1.649,0 -3.355,0 -5.004,0c-3.315,0 -6.494,-1.317 -8.837,-3.661c-2.344,-2.343 -3.661,-5.522 -3.661,-8.837l0,-1.504c0,-1.697 0.282,-3.328 0.802,-4.849Z"/>
        </g>
        <g id="emoji">
            <path d="M23,7c0,0 1.319,-0.659 2.442,-1.221c1.032,-0.516 1.974,-1.195 2.79,-2.011c0.828,-0.828 1.768,-1.768 1.768,-1.768l0,4.758c0,2.716 -1.079,5.321 -3,7.242c0,0 0,0 0,0l-4,-7Z" style="fill:#530f8a;"/>
            <path d="M9,7c0,0 -1.319,-0.659 -2.442,-1.221c-1.032,-0.516 -1.974,-1.195 -2.79,-2.011c-0.828,-0.828 -1.768,-1.768 -1.768,-1.768l0,4.758c0,2.716 1.079,5.321 3,7.242c0,0 0,0 0,0l4,-7Z" style="fill:#530f8a;"/>
            <path d="M29,18c0,-7.18 -5.82,-13 -13,-13l-0.002,0c-7.179,0 -12.998,5.819 -12.998,12.998l0,1.504c0,2.784 1.106,5.454 3.075,7.423c1.969,1.969 4.639,3.075 7.423,3.075c1.649,0 3.355,0 5.004,0c2.784,0 5.454,-1.106 7.423,-3.075c1.969,-1.969 3.075,-4.639 3.075,-7.423c0,-0.497 0,-0.999 0,-1.502Z" style="fill:#a253e2;"/>
            <g>
                <g>
                    <path d="M23.895,9.947c0.027,0.025 0.054,0.051 0.08,0.078c0.656,0.656 1.025,1.545 1.025,2.473c0,0.973 0,2.029 0,3.002c0,1.933 -1.567,3.5 -3.5,3.5l-0.023,0c-1.922,-0.012 -3.477,-1.575 -3.477,-3.5l0,-0.5l5.895,-5.053Z"/>
                    <path d="M22.941,12.082c0.039,0.134 0.059,0.274 0.059,0.416c0,0.917 0,2.087 0,3.004c0,0.397 -0.158,0.778 -0.439,1.059c-0.281,0.281 -0.662,0.439 -1.059,0.439c-0.001,0 -0.003,0 -0.004,0c-0.397,0 -0.778,-0.158 -1.059,-0.439c-0.281,-0.281 -0.439,-0.662 -0.439,-1.059l0,-0.899l2.941,-2.521Z" style="fill:#f2c040;"/>
                </g>
                <g>
                    <path d="M8.105,9.947c-0.027,0.025 -0.054,0.051 -0.08,0.078c-0.656,0.656 -1.025,1.545 -1.025,2.473c0,0.973 0,2.029 0,3.002c0,1.933 1.567,3.5 3.5,3.5l0.023,0c1.922,-0.012 3.477,-1.575 3.477,-3.5l0,-0.5l-5.895,-5.053Z"/>
                    <path d="M9.059,12.082c-0.039,0.134 -0.059,0.274 -0.059,0.416c0,0.917 0,2.087 0,3.004c0,0.397 0.158,0.778 0.439,1.059c0.281,0.281 0.662,0.439 1.059,0.439c0.001,0 0.003,0 0.004,0c0.397,0 0.778,-0.158 1.059,-0.439c0.281,-0.281 0.439,-0.662 0.439,-1.059l0,-0.899l-2.941,-2.521Z" style="fill:#f2c040;"/>
                </g>
            </g>
            <path d="M18.939,22.147l2.169,-2.169l3.692,4.922c0.331,0.442 0.242,1.069 -0.2,1.4c-0.442,0.331 -1.069,0.242 -1.4,-0.2l-2.308,-3.078l-1.831,1.831l-3.059,-2.55l-3.064,2.571l-1.833,-1.848l-2.305,3.074c-0.331,0.442 -0.958,0.531 -1.4,0.2c-0.442,-0.331 -0.531,-0.958 -0.2,-1.4l3.695,-4.926l2.167,2.185l2.936,-2.462l2.941,2.45Z" style="fill:#3f0c69;"/>
        </g>
    </g>
</svg>
