<?xml version="1.0" encoding="UTF-8" standalone="no"?>
<!DOCTYPE svg PUBLIC "-//W3C//DTD SVG 1.1//EN" "http://www.w3.org/Graphics/SVG/1.1/DTD/svg11.dtd">
<svg width="100%" height="100%" viewBox="0 0 32 32" version="1.1" xmlns="http://www.w3.org/2000/svg" xmlns:xlink="http://www.w3.org/1999/xlink" xml:space="preserve" xmlns:serif="http://www.serif.com/" style="fill-rule:evenodd;clip-rule:evenodd;stroke-linecap:square;stroke-linejoin:round;stroke-miterlimit:1.5;">
    <rect id="jack_o_lantern" x="-0" y="-0" width="32" height="32" style="fill:none;"/>
    <g id="outline">
        <path d="M18.698,6.121c5.211,0.494 11.302,2.762 11.302,11.308c-0,10.089 -7.693,12.571 -14,12.571c-6.307,0 -14,-2.482 -14,-12.571c0,-8.753 6.389,-10.92 11.68,-11.341c-0.487,-1.749 -1.972,-2.047 -4.102,-2.081c-0.321,-0.008 -0.578,-0.27 -0.578,-0.591c-0,-0.26 -0,-0.564 0,-0.824c0,-0.157 0.063,-0.308 0.174,-0.419c0.111,-0.111 0.262,-0.173 0.419,-0.173c4.106,0.003 6.333,0.077 7.808,1.754c0.681,0.775 1.072,1.629 1.297,2.367Z" style="fill:none;stroke:#000;stroke-width:4px;"/>
    </g>
    <g id="emoji">
        <path d="M19,8c-0,0 0.059,-2.359 -1.599,-4.246c-1.475,-1.677 -3.702,-1.751 -7.808,-1.754c-0.157,-0 -0.308,0.062 -0.419,0.173c-0.111,0.111 -0.174,0.262 -0.174,0.419c-0,0.26 0,0.564 -0,0.824c0,0.321 0.257,0.583 0.578,0.591c2.221,0.036 3.741,0.358 4.159,2.313c0.51,2.388 -0.189,2.124 -0.189,2.124l5.452,-0.444Z" style="fill:#587951;"/>
        <path d="M6.024,27.041c-1.355,-2.348 -2.835,-4.492 -3.388,-5.057c-0.409,-1.311 -0.636,-2.821 -0.636,-4.555c-0,-2.684 0.601,-4.748 1.586,-6.333c-0.342,0.83 2.201,-1.781 2.896,-2.894c0.579,-0.367 1.191,-0.676 1.824,-0.934c0.369,0.127 0.947,0.044 1.576,-0.536c1.088,-0.303 2.204,-0.489 3.284,-0.598c0.523,0.212 0.839,0.272 1.281,-0.096c0.536,-0.027 1.057,-0.038 1.553,-0.038c0.496,0 1.017,0.011 1.553,0.038c0.613,0.333 0.922,0.307 1.281,0.096c1.08,0.109 2.196,0.295 3.284,0.598c0.517,0.467 1.097,0.524 1.576,0.536c0.633,0.258 1.245,0.567 1.824,0.934c0.82,0.843 2.149,2.572 2.896,2.894c0.985,1.585 1.586,3.649 1.586,6.333c-0,1.734 -0.227,3.244 -0.636,4.555c-1.093,1.649 -1.707,3.014 -3.388,5.057c-0.665,0.535 -1.387,0.983 -2.148,1.355c-0.651,0.12 -1.144,0.114 -1.618,0.664c-1.092,0.371 -2.231,0.616 -3.368,0.763c-0.231,-0.233 -0.932,-0.166 -1.286,0.125c-0.525,0.036 -1.045,0.052 -1.556,0.052c-0.511,0 -1.031,-0.016 -1.556,-0.052c-0.581,-0.374 -1.014,-0.385 -1.286,-0.125c-1.137,-0.147 -2.276,-0.392 -3.368,-0.763c-0.626,-0.63 -1.402,-0.775 -1.618,-0.664c-0.761,-0.372 -1.483,-0.82 -2.148,-1.355Z" style="fill:#e2670f;"/>
        <path d="M22.21,29.06c3.198,-7.442 3.161,-14.885 -0.092,-22.328c0.534,0.149 1.062,0.326 1.576,0.536c2.81,7.043 2.86,14.086 0.134,21.128c-0.523,0.256 -1.065,0.477 -1.618,0.664Zm-9.052,0.763c-1.327,-7.896 -1.321,-15.793 0.008,-23.689c0.434,-0.044 0.862,-0.075 1.281,-0.096c-1.376,7.97 -1.38,15.94 -0.003,23.91c-0.426,-0.028 -0.856,-0.07 -1.286,-0.125Zm12.818,-2.782c1.739,-3.013 2.613,-6.025 2.611,-9.041c-0.001,-3.268 -1.031,-6.532 -3.069,-9.798c1.13,0.718 2.13,1.661 2.896,2.894c0.947,2.302 1.419,4.604 1.42,6.904c0,1.327 -0.156,2.656 -0.47,3.984c-0.689,2.209 -1.891,3.853 -3.388,5.057Zm-17.804,1.355c-2.726,-7.042 -2.676,-14.085 0.134,-21.128c0.514,-0.21 1.042,-0.387 1.576,-0.536c-3.253,7.443 -3.29,14.886 -0.092,22.328c-0.553,-0.187 -1.095,-0.408 -1.618,-0.664Zm-5.536,-6.412c-0.314,-1.328 -0.47,-2.657 -0.47,-3.984c0.001,-2.3 0.473,-4.602 1.42,-6.904c0.766,-1.233 1.766,-2.176 2.896,-2.894c-2.038,3.266 -3.068,6.53 -3.069,9.798c-0.002,3.016 0.872,6.028 2.611,9.041c-1.497,-1.204 -2.699,-2.848 -3.388,-5.057Zm14.92,7.964c1.377,-7.97 1.373,-15.94 -0.003,-23.91c0.419,0.021 0.847,0.052 1.281,0.096c1.329,7.896 1.335,15.793 0.008,23.689c-0.43,0.055 -0.86,0.097 -1.286,0.125Z" style="fill:#c3590d;"/>
        <path d="M7.429,11.166c0.145,-0.145 0.364,-0.183 0.55,-0.096c3.265,1.546 4.267,4.771 4.904,6.089c0.076,0.141 0.069,0.314 -0.019,0.449c-0.301,0.411 -1.056,1.289 -2.266,1.466c-1.792,0.261 -3.462,-0.648 -4.228,-1.731c-1.897,-2.681 0.298,-5.374 1.059,-6.177Zm17.142,0c0.761,0.803 2.956,3.496 1.059,6.177c-0.766,1.083 -2.436,1.992 -4.228,1.731c-1.21,-0.177 -1.965,-1.055 -2.266,-1.466c-0.088,-0.135 -0.095,-0.308 -0.019,-0.449c0.637,-1.318 1.639,-4.543 4.904,-6.089c0.186,-0.087 0.405,-0.049 0.55,0.096Zm-8.571,8.49c-0.409,0.001 -0.786,-0.048 -1.088,-0.107c-0.191,-0.04 -0.357,-0.159 -0.457,-0.327c-0.1,-0.168 -0.124,-0.371 -0.067,-0.558c0.33,-1.125 0.753,-1.931 1.258,-2.64c0.082,-0.114 0.214,-0.181 0.354,-0.181c0.14,-0 0.272,0.067 0.354,0.181c0.505,0.709 0.928,1.515 1.258,2.64c0.057,0.187 0.033,0.39 -0.067,0.558c-0.1,0.168 -0.266,0.287 -0.457,0.327c-0.302,0.059 -0.679,0.108 -1.088,0.107Zm10.655,-0.65c0.52,-0.321 0.975,-0.657 1.345,-1.006c-0.127,4.254 -2.827,7.217 -6.239,8.761l-0.633,-0.813c2.54,-2.762 4.193,-3.729 5.527,-6.942Zm-15.783,6.942l-0.633,0.813c-3.412,-1.544 -6.112,-4.507 -6.239,-8.761c0.37,0.349 0.825,0.685 1.345,1.006c1.689,2.902 3.698,5.025 5.527,6.942Zm8.709,0.549l-0.229,1.093c-1.108,0.272 -2.242,0.41 -3.352,0.41c-1.11,0 -2.244,-0.138 -3.352,-0.41l-0.229,-1.093c1.172,0.334 5.99,0.334 7.162,0Z" style="fill:#fd9d1c;"/>
        <path d="M8.595,12.927c0.144,-0.166 0.383,-0.214 0.579,-0.116c2.015,1.034 2.684,3.189 3.101,4.117c0.078,0.147 0.066,0.326 -0.03,0.461c-0.237,0.29 -0.72,0.785 -1.454,0.892c-1.192,0.174 -2.302,-0.431 -2.812,-1.151c-1.194,-1.688 0.051,-3.518 0.616,-4.203Zm14.81,0c0.565,0.685 1.81,2.515 0.616,4.203c-0.51,0.72 -1.62,1.325 -2.812,1.151c-0.734,-0.107 -1.217,-0.602 -1.454,-0.892c-0.096,-0.135 -0.108,-0.314 -0.03,-0.461c0.417,-0.928 1.086,-3.083 3.101,-4.117c0.196,-0.098 0.435,-0.05 0.579,0.116Zm-7.405,5.862c-0.278,0.001 -0.534,-0.032 -0.739,-0.072c-0.13,-0.028 -0.243,-0.108 -0.31,-0.223c-0.068,-0.114 -0.085,-0.251 -0.046,-0.379c0.197,-0.672 0.444,-1.177 0.734,-1.616c0.081,-0.121 0.216,-0.193 0.361,-0.193c0.145,0 0.281,0.072 0.362,0.192c0.289,0.44 0.536,0.945 0.733,1.617c0.039,0.128 0.022,0.265 -0.046,0.379c-0.067,0.115 -0.18,0.195 -0.31,0.223c-0.205,0.04 -0.461,0.073 -0.739,0.072Zm-5.128,7.159c-2.896,-1.25 -5.217,-3.595 -5.527,-6.942c0.69,0.425 1.495,0.822 2.365,1.178l2.29,3.816l1.711,-2.566c1.503,0.342 2.996,0.545 4.289,0.566c1.293,-0.021 2.786,-0.224 4.289,-0.566l1.711,2.566l2.29,-3.816c0.87,-0.356 1.675,-0.753 2.365,-1.178c-0.31,3.347 -2.631,5.692 -5.527,6.942l-1.128,-1.448l-0.419,1.997c-1.172,0.334 -2.393,0.503 -3.581,0.503c-1.188,0 -2.409,-0.169 -3.581,-0.503l-0.419,-1.997l-1.128,1.448Z" style="fill:#ffec70;"/>
    </g>
</svg>
