<?xml version="1.0" encoding="UTF-8" standalone="no"?>
<!DOCTYPE svg PUBLIC "-//W3C//DTD SVG 1.1//EN" "http://www.w3.org/Graphics/SVG/1.1/DTD/svg11.dtd">
<svg width="100%" height="100%" viewBox="0 0 32 32" version="1.1" xmlns="http://www.w3.org/2000/svg" xmlns:xlink="http://www.w3.org/1999/xlink" xml:space="preserve" xmlns:serif="http://www.serif.com/" style="fill-rule:evenodd;clip-rule:evenodd;stroke-linecap:round;stroke-linejoin:round;stroke-miterlimit:1.5;">
    <rect id="mtnt_flaming_poop" x="0" y="0" width="32" height="32" style="fill:none;"/>
    <clipPath id="_clip1">
        <rect x="0" y="0" width="32" height="32"/>
    </clipPath>
    <g clip-path="url(#_clip1)">
        <path d="M27.959,21.451c1.094,0.795 1.84,1.728 1.979,2.8c0.512,3.946 -2.865,5.749 -13.938,5.749c-11.073,0 -14.45,-1.803 -13.938,-5.749c0.178,-1.371 1.35,-2.516 2.972,-3.434c-0.982,-0.969 -1.175,-2.249 -1.034,-3.817c0.261,-2.91 1.848,-4.561 4.488,-5.439c-0.879,-1.308 -0.909,-2.836 -0.454,-4.086c1.181,-3.25 6.944,-4.475 6.944,-4.475c-0,0 -1.254,1.471 -0.644,2.744c0.351,0.732 1.239,0.947 2.35,1.059c0.469,-0.819 1.343,-1.691 2.92,-2.399c3.101,-1.392 3.829,-0.765 4.629,-1.441c0.471,-0.399 0.379,-1.063 0.379,-1.063c-0,-0 1.18,0.732 1.979,2.025c0.807,1.307 1.286,3.153 0.67,4.897c1.354,-0.106 2.401,0.318 2.401,0.318c0,0 -1.835,1.203 -0.379,4.43c1.455,3.228 0.401,5.466 -0.57,6.962c-0.228,0.351 -0.485,0.655 -0.754,0.919Z" style="fill:none;stroke:#000;stroke-width:4px;"/>
        <path d="M22.393,13.678c-1.195,0.532 -2.093,0.662 -2.093,0.662c0,0 -4.05,-4.493 -4.113,-5.506c-0.064,-1.012 0.316,-3.038 3.417,-4.43c3.101,-1.392 3.829,-0.765 4.629,-1.441c0.471,-0.399 0.379,-1.063 0.379,-1.063c-0,-0 1.18,0.732 1.979,2.025c0.807,1.307 1.286,3.153 0.67,4.897c1.354,-0.106 2.401,0.318 2.401,0.318c0,0 -1.835,1.203 -0.379,4.43c1.455,3.228 0.401,5.466 -0.57,6.962c-1.258,1.936 -3.417,2.468 -3.417,2.468l-2.912,-6.835c0,0 -0.22,-1.101 0.009,-2.487Z" style="fill:#fb8f12;"/>
        <path d="M23.686,13.561c-0.264,0.266 -0.452,0.391 -0.452,0.391l-5.643,-2.697c-0,0 1.383,-3.276 3.096,-4.095c2.297,-1.099 3.646,-0.4 3.995,-1.798c0,-0 0.949,1.698 0.65,4.545c-0.048,0.453 -0.134,0.866 -0.245,1.237c1.522,-0.996 2.356,-0.545 2.356,-0.545c-0,-0 -0.419,1.221 -0.088,2.394c0.982,3.474 -0.453,4.984 -0.453,4.984l-3.058,-3.511c-0,-0 -0.147,-0.377 -0.158,-0.905Z" style="fill:#ffd408;"/>
        <path d="M26.966,20.817c1.622,0.918 2.794,2.063 2.972,3.434c0.512,3.946 -2.865,5.749 -13.938,5.749c-11.073,0 -14.45,-1.803 -13.938,-5.749c0.178,-1.371 1.35,-2.516 2.972,-3.434c-0.982,-0.969 -1.175,-2.249 -1.034,-3.817c0.261,-2.91 1.848,-4.561 4.488,-5.439c-0.879,-1.308 -0.909,-2.836 -0.454,-4.086c1.181,-3.25 6.944,-4.475 6.944,-4.475c-0,0 -1.254,1.471 -0.644,2.744c0.927,1.933 5.606,0.264 8.227,2.595c1.083,0.964 1.43,2.192 0.987,3.233c2.618,0.882 4.192,2.531 4.452,5.428c0.141,1.568 -0.052,2.848 -1.034,3.817Z" style="fill:#a77235;"/>
        <circle cx="21.5" cy="17.5" r="4" style="fill:#fff;"/>
        <circle cx="10.5" cy="17.5" r="4" style="fill:#fff;"/>
        <path d="M22.75,14c1.242,0 2.25,1.008 2.25,2.25c0,1.242 -1.008,2.25 -2.25,2.25c-1.242,0 -2.25,-1.008 -2.25,-2.25c0,-1.242 1.008,-2.25 2.25,-2.25Zm-11,0c1.242,0 2.25,1.008 2.25,2.25c0,1.242 -1.008,2.25 -2.25,2.25c-1.242,0 -2.25,-1.008 -2.25,-2.25c0,-1.242 1.008,-2.25 2.25,-2.25Z"/>
        <path d="M12.187,27.771c-0.26,0.106 -0.499,0.217 -0.718,0.325c-0.318,0.174 -0.707,0.155 -1.007,-0.048c-0.301,-0.203 -0.463,-0.557 -0.422,-0.917c0.219,-2.076 1.359,-5.131 5.96,-5.131c4.601,0 5.741,3.055 5.986,5.128c0.042,0.37 -0.125,0.732 -0.433,0.941c-0.309,0.208 -0.707,0.227 -1.035,0.05c-0.209,-0.111 -0.44,-0.221 -0.69,-0.328c-2.589,-1.463 -5.469,-1.207 -7.641,-0.02Z"/>
        <path d="M19.828,27.791c-1.003,-0.428 -2.315,-0.791 -3.828,-0.791c-1.502,0 -2.807,0.358 -3.813,0.771c0.81,-1.099 2.102,-1.767 3.496,-1.767l0.634,0c1.402,0 2.702,0.676 3.511,1.787Z" style="fill:#c33700;"/>
    </g>
</svg>
