<?xml version="1.0" encoding="UTF-8" standalone="no"?>
<!DOCTYPE svg PUBLIC "-//W3C//DTD SVG 1.1//EN" "http://www.w3.org/Graphics/SVG/1.1/DTD/svg11.dtd">
<svg width="100%" height="100%" viewBox="0 0 32 32" version="1.1" xmlns="http://www.w3.org/2000/svg" xmlns:xlink="http://www.w3.org/1999/xlink" xml:space="preserve" xmlns:serif="http://www.serif.com/" style="fill-rule:evenodd;clip-rule:evenodd;stroke-linecap:round;stroke-miterlimit:1.5;">
    <rect id="nerd_face" x="0" y="0" width="32" height="32" style="fill:none;"/>
    <clipPath id="_clip1">
        <rect x="0" y="0" width="32" height="32"/>
    </clipPath>
    <g clip-path="url(#_clip1)">
        <g id="outline">
            <path d="M16,0c4.243,0 8.313,1.686 11.314,4.686c3,3.001 4.686,7.071 4.686,11.314l0,2c0,7.732 -6.268,14 -14,14c-1.325,0 -2.675,0 -4,0c-7.732,0 -14,-6.268 -14,-14l0,-2c0,-8.837 7.163,-16 16,-16l0,0Z"/>
        </g>
        <g id="emoji">
            <path d="M30,16c0,-3.713 -1.475,-7.274 -4.101,-9.899c-2.625,-2.626 -6.186,-4.101 -9.899,-4.101l0,0c-7.732,0 -14,6.268 -14,14l0,2c0,6.627 5.373,12 12,12l4,0c6.627,0 12,-5.373 12,-12l0,-2Z" style="fill:#fbc546;"/>
            <path d="M12,9c0.53,0 1.039,0.211 1.414,0.586c0.375,0.375 0.586,0.884 0.586,1.414c0,0.911 0,1.962 0,2.757c0,0.796 -0.316,1.559 -0.879,2.122c-0.391,0.391 -0.851,0.851 -1.242,1.242c-0.563,0.563 -1.326,0.879 -2.122,0.879l-2.757,0c-1.061,0 -2.078,-0.421 -2.828,-1.172c-0.751,-0.75 -1.172,-1.767 -1.172,-2.828c0,-1.476 0,-3.024 0,-4c0,-0.552 0.448,-1 1,-1l8,0Zm16,0c0.552,0 1,0.448 1,1c0,0.976 0,2.524 0,4c0,1.061 -0.421,2.078 -1.172,2.828c-0.75,0.751 -1.767,1.172 -2.828,1.172l-2.757,0c-0.796,0 -1.559,-0.316 -2.122,-0.879c-0.391,-0.391 -0.851,-0.851 -1.242,-1.242c-0.563,-0.563 -0.879,-1.326 -0.879,-2.122c0,-0.795 0,-1.846 0,-2.757c0,-0.53 0.211,-1.039 0.586,-1.414c0.375,-0.375 0.884,-0.586 1.414,-0.586l8,0Z" style="fill:#fff;"/>
            <path d="M11,22c0,0 0,0 0,0c1.281,1.281 3.017,2 4.828,2c0.115,0 0.229,0 0.344,0c1.811,0 3.547,-0.719 4.828,-2c0,0 0,0 0,0" style="fill:none;stroke:#593604;stroke-width:2px;"/>
            <g>
                <path d="M11,12.5c0,-0.398 -0.158,-0.779 -0.439,-1.061c-0.282,-0.281 -0.663,-0.439 -1.061,-0.439c-0.398,0 -0.779,0.158 -1.061,0.439c-0.281,0.282 -0.439,0.663 -0.439,1.061l0,2c0,0.398 0.158,0.779 0.439,1.061c0.282,0.281 0.663,0.439 1.061,0.439c0.398,0 0.779,-0.158 1.061,-0.439c0.281,-0.282 0.439,-0.663 0.439,-1.061l0,-2Z"/>
                <path d="M24,12.5c0,-0.398 -0.158,-0.779 -0.439,-1.061c-0.282,-0.281 -0.663,-0.439 -1.061,-0.439c-0.398,0 -0.779,0.158 -1.061,0.439c-0.281,0.282 -0.439,0.663 -0.439,1.061l0,2c0,0.398 0.158,0.779 0.439,1.061c0.282,0.281 0.663,0.439 1.061,0.439c0.398,0 0.779,-0.158 1.061,-0.439c0.281,-0.282 0.439,-0.663 0.439,-1.061l0,-2Z"/>
            </g>
            <path d="M14.993,14c-0.059,0.972 -0.472,1.893 -1.165,2.586c-0.391,0.391 -0.851,0.851 -1.242,1.242c-0.75,0.751 -1.768,1.172 -2.829,1.172l-2.757,0c-1.326,0 -2.598,-0.527 -3.536,-1.464c-0.937,-0.938 -1.464,-2.21 -1.464,-3.536c0,-1.476 0,-3.024 0,-4c0,-1.105 0.895,-2 2,-2l8,0c0.796,0 1.559,0.316 2.121,0.879c0.32,0.319 0.56,0.703 0.707,1.121l2.344,0c0.147,-0.418 0.387,-0.802 0.707,-1.121c0.562,-0.563 1.325,-0.879 2.121,-0.879l8,0c1.105,0 2,0.895 2,2c0,0.976 0,2.524 0,4c0,1.326 -0.527,2.598 -1.464,3.536c-0.938,0.937 -2.21,1.464 -3.536,1.464l-2.757,0c-1.061,0 -2.079,-0.421 -2.829,-1.172c-0.391,-0.391 -0.851,-0.851 -1.242,-1.242c-0.693,-0.693 -1.106,-1.614 -1.165,-2.586l-2.014,0Zm-10.993,0c0,0.796 0.316,1.559 0.879,2.121c0.562,0.563 1.325,0.879 2.121,0.879l2.757,0c0.531,0 1.039,-0.211 1.415,-0.586c0.391,-0.391 0.851,-0.851 1.242,-1.242c0.375,-0.376 0.586,-0.884 0.586,-1.415c0,-0.795 0,-1.846 0,-2.757c0,-0.265 -0.105,-0.52 -0.293,-0.707c-0.187,-0.188 -0.442,-0.293 -0.707,-0.293l-8,0l0,4Zm24,-4l-8,0c-0.265,0 -0.52,0.105 -0.707,0.293c-0.188,0.187 -0.293,0.442 -0.293,0.707c0,0.911 0,1.962 0,2.757c0,0.531 0.211,1.039 0.586,1.415c0.391,0.391 0.851,0.851 1.242,1.242c0.376,0.375 0.884,0.586 1.415,0.586l2.757,0c0.796,0 1.559,-0.316 2.121,-0.879c0.563,-0.562 0.879,-1.325 0.879,-2.121l0,-4Z"/>
        </g>
    </g>
</svg>
