<?xml version="1.0" encoding="UTF-8" standalone="no"?>
<!DOCTYPE svg PUBLIC "-//W3C//DTD SVG 1.1//EN" "http://www.w3.org/Graphics/SVG/1.1/DTD/svg11.dtd">
<svg width="100%" height="100%" viewBox="0 0 32 32" version="1.1" xmlns="http://www.w3.org/2000/svg" xmlns:xlink="http://www.w3.org/1999/xlink" xml:space="preserve" xmlns:serif="http://www.serif.com/" style="fill-rule:evenodd;clip-rule:evenodd;stroke-linecap:round;stroke-linejoin:round;stroke-miterlimit:1.5;">
    <rect id="robot" x="0" y="0.017" width="32" height="32" style="fill:none;"/>
    <clipPath id="_clip1">
        <rect x="0" y="0.017" width="32" height="32"/>
    </clipPath>
    <g clip-path="url(#_clip1)">
        <g id="outline">
            <path d="M28,30.017l-24,0l0,-3c0,-0.531 0.211,-1.039 0.586,-1.415c0.375,-0.375 0.884,-0.585 1.414,-0.585c0.258,0 0.516,0 0.757,0c0.796,0 1.559,0.316 2.122,0.878c0.181,0.182 0.368,0.368 0.535,0.536c0.375,0.375 0.884,0.586 1.414,0.586c2.196,0 8.148,0 10.344,0c0.53,0 1.039,-0.211 1.414,-0.586c0.167,-0.168 0.354,-0.354 0.535,-0.536c0.563,-0.562 1.326,-0.878 2.122,-0.878c0.241,0 0.499,0 0.757,0c0.53,0 1.039,0.21 1.414,0.585c0.375,0.376 0.586,0.884 0.586,1.415l0,3Zm-1,-22.286l0,-5.714l2,0l0,6.586c0.614,0.354 1,1.012 1,1.732c0,2.117 0,6.247 0,8.363c0,0.8 -0.477,1.523 -1.212,1.838c-0.912,0.391 -2.253,0.966 -3.728,1.598c-5.785,2.479 -12.335,2.479 -18.12,0c-1.475,-0.632 -2.816,-1.207 -3.728,-1.598c-0.735,-0.315 -1.212,-1.038 -1.212,-1.838c0,-2.116 0,-6.246 0,-8.363c0,-0.8 0.477,-1.523 1.212,-1.838c0.912,-0.39 2.253,-0.965 3.728,-1.597c5.785,-2.48 12.335,-2.48 18.12,0l1.94,0.831Z" style="fill:none;stroke:#000;stroke-width:4px;"/>
        </g>
        <g id="emoji">
            <g>
                <path d="M8.879,25.895c0.181,0.182 0.368,0.368 0.535,0.536c0.375,0.375 0.884,0.586 1.414,0.586c2.196,0 8.148,0 10.344,0c0.53,0 1.039,-0.211 1.414,-0.586l0.46,-0.46l0,3.546l-14.167,0l0,-3.622Z" style="fill:#404040;"/>
                <path d="M28,30.017l-24,0l0,-3c0,-0.531 0.211,-1.039 0.586,-1.415c0.375,-0.375 0.884,-0.585 1.414,-0.585c0.258,0 0.516,0 0.757,0c0.769,0 1.508,0.295 2.122,0.878l1.364,1.364c1.125,1.126 2.651,1.758 4.242,1.758c0.964,0 2.066,0 3.03,0c1.591,0 3.117,-0.632 4.242,-1.758l1.364,-1.364c0.563,-0.562 1.326,-0.878 2.122,-0.878c0.241,0 0.499,0 0.757,0c0.53,0 1.039,0.21 1.414,0.585c0.375,0.376 0.586,0.884 0.586,1.415l0,3Z" style="fill:#737373;"/>
            </g>
            <rect x="27" y="2.017" width="2" height="10" style="fill:#4d4d4d;"/>
            <g>
                <path d="M28,8.16l0.788,0.337c0.735,0.315 1.212,1.038 1.212,1.838c0,2.117 0,6.247 0,8.363c0,0.8 -0.477,1.523 -1.212,1.838c-0.912,0.391 -2.253,0.966 -3.728,1.598c-5.785,2.479 -12.335,2.479 -18.12,0c-1.475,-0.632 -2.816,-1.207 -3.728,-1.598c-0.735,-0.315 -1.212,-1.038 -1.212,-1.838c0,-2.116 0,-6.246 0,-8.363c0,-0.8 0.477,-1.523 1.212,-1.838l0.788,-0.337l24,0Z" style="fill:#8a8a8a;"/>
                <path d="M4,8.16l2.94,-1.26c5.785,-2.48 12.335,-2.48 18.12,0l2.94,1.26l0,8.523c0,0.808 -0.485,1.536 -1.231,1.847c-0.788,0.328 -1.884,0.784 -3.077,1.282c-4.923,2.051 -10.461,2.051 -15.384,0c-1.193,-0.498 -2.289,-0.954 -3.077,-1.282c-0.746,-0.311 -1.231,-1.039 -1.231,-1.847l0,-8.523Z" style="fill:#333;"/>
            </g>
            <path d="M11,9.517c0,-0.398 -0.158,-0.78 -0.439,-1.061c-0.282,-0.281 -0.663,-0.439 -1.061,-0.439c-0.398,0 -0.779,0.158 -1.061,0.439c-0.281,0.281 -0.439,0.663 -0.439,1.061l0,2c0,0.398 0.158,0.779 0.439,1.06c0.282,0.282 0.663,0.44 1.061,0.44c0.398,0 0.779,-0.158 1.061,-0.44c0.281,-0.281 0.439,-0.662 0.439,-1.06l0,-2Z" style="fill:#58d3d7;"/>
            <path d="M24,9.517c0,-0.398 -0.158,-0.78 -0.439,-1.061c-0.282,-0.281 -0.663,-0.439 -1.061,-0.439c-0.398,0 -0.779,0.158 -1.061,0.439c-0.281,0.281 -0.439,0.663 -0.439,1.061l0,2c0,0.398 0.158,0.779 0.439,1.06c0.282,0.282 0.663,0.44 1.061,0.44c0.398,0 0.779,-0.158 1.061,-0.44c0.281,-0.281 0.439,-0.662 0.439,-1.06l0,-2Z" style="fill:#58d3d7;"/>
            <path d="M11,16.017c0,0 0,0 0.001,0c1.296,1.281 3.045,2 4.868,2c0.101,0 0.202,0 0.303,0c1.811,0 3.547,-0.72 4.828,-2c0,0 0,0 0,0" style="fill:none;stroke:#58d3d7;stroke-width:1.5px;"/>
            <path d="M18,7.017c0,-0.553 -0.448,-1 -1,-1c-0.611,0 -1.389,0 -2,0c-0.552,0 -1,0.447 -1,1c0,0.552 0.448,1 1,1c0.611,0 1.389,0 2,0c0.552,0 1,-0.448 1,-1Z" style="fill:#121212;"/>
        </g>
    </g>
</svg>
