<?xml version="1.0" encoding="UTF-8" standalone="no"?><!DOCTYPE svg PUBLIC "-//W3C//DTD SVG 1.1//EN" "http://www.w3.org/Graphics/SVG/1.1/DTD/svg11.dtd"><svg width="100%" height="100%" viewBox="0 0 32 32" version="1.1" xmlns="http://www.w3.org/2000/svg" xmlns:xlink="http://www.w3.org/1999/xlink" xml:space="preserve" xmlns:serif="http://www.serif.com/" style="fill-rule:evenodd;clip-rule:evenodd;stroke-linejoin:round;stroke-miterlimit:1.5;"><rect id="shit" x="0" y="0" width="32" height="32" style="fill:none;"/><clipPath id="_clip1"><rect x="0" y="0" width="32" height="32"/></clipPath><g clip-path="url(#_clip1)"><g id="outline"><path d="M12.525,10c-0.341,-0.598 -0.525,-1.28 -0.525,-1.981c0,-0.002 0,-0.003 0,-0.004c0,-1.061 0.421,-2.078 1.171,-2.827c0.75,-0.75 1.767,-1.171 2.827,-1.171c2.404,0 5.002,0 5.002,0c0,0 0,1.68 0,3.5c0,0.918 -0.275,1.771 -0.747,2.483l0.747,0c2.761,0 5,2.239 5,5c0,0 0,0 0,0c0,0.75 -0.165,1.461 -0.461,2.099c1.073,0.206 2.068,0.728 2.851,1.511c1.031,1.031 1.61,2.43 1.61,3.888c0,0.001 0,0.003 0,0.004c0,1.458 -0.579,2.857 -1.61,3.888c-1.031,1.031 -2.43,1.61 -3.888,1.61c-4.917,0 -12.087,0 -17.004,0c-1.458,0 -2.857,-0.579 -3.888,-1.61c-1.031,-1.031 -1.61,-2.43 -1.61,-3.888c0,-0.001 0,-0.003 0,-0.004c0,-1.458 0.579,-2.857 1.61,-3.888c0.783,-0.783 1.778,-1.305 2.851,-1.511c-0.296,-0.638 -0.461,-1.349 -0.461,-2.099c0,0 0,0 0,0c0,-2.761 2.239,-5 5,-5l1.525,0Z" style="fill:none;stroke:#000;stroke-width:4px;"/></g><g id="emoji"><path d="M12.525,10c-0.341,-0.598 -0.525,-1.28 -0.525,-1.981c0,-0.002 0,-0.003 0,-0.004c0,-1.061 0.421,-2.078 1.171,-2.827c0.75,-0.75 1.767,-1.171 2.827,-1.171c2.404,0 5.002,0 5.002,0c0,0 0,1.68 0,3.5c0,0.918 -0.275,1.771 -0.747,2.483l0.747,0c2.761,0 5,2.239 5,5c0,0 0,0 0,0c0,0.75 -0.165,1.461 -0.461,2.099c1.073,0.206 2.068,0.728 2.851,1.511c1.031,1.031 1.61,2.43 1.61,3.888c0,0.001 0,0.003 0,0.004c0,1.458 -0.579,2.857 -1.61,3.888c-1.031,1.031 -2.43,1.61 -3.888,1.61c-4.917,0 -12.087,0 -17.004,0c-1.458,0 -2.857,-0.579 -3.888,-1.61c-1.031,-1.031 -1.61,-2.43 -1.61,-3.888c0,-0.001 0,-0.003 0,-0.004c0,-1.458 0.579,-2.857 1.61,-3.888c0.783,-0.783 1.778,-1.305 2.851,-1.511c-0.296,-0.638 -0.461,-1.349 -0.461,-2.099c0,0 0,0 0,0c0,-2.761 2.239,-5 5,-5l1.525,0Z" style="fill:#9a6f42;"/><g><path d="M19.304,12.305c-0.194,0.355 3.278,3.509 3.696,3.195l0,0c0,0.663 -0.263,1.299 -0.732,1.768c-0.469,0.469 -1.105,0.732 -1.768,0.732c-0.663,0 -1.299,-0.263 -1.768,-0.732c-0.469,-0.469 -0.732,-1.105 -0.732,-1.768c0,-0.331 0,-0.669 0,-1c0,-0.663 0.263,-1.299 0.732,-1.768c0.171,-0.171 0.364,-0.314 0.572,-0.427Z" style="fill:#fff;"/><path d="M19.304,12.305c0.364,-0.199 0.774,-0.305 1.196,-0.305c0.663,0 1.299,0.263 1.768,0.732c0.469,0.469 0.732,1.105 0.732,1.768l0,1c-0.418,0.314 -0.937,0.5 -1.5,0.5c-1.38,0 -2.5,-1.12 -2.5,-2.5c0,-0.433 0.11,-0.84 0.304,-1.195Z"/></g><g><path d="M10.304,12.305c-0.194,0.355 3.278,3.509 3.696,3.195l0,0c0,0.663 -0.263,1.299 -0.732,1.768c-0.469,0.469 -1.105,0.732 -1.768,0.732c-0.663,0 -1.299,-0.263 -1.768,-0.732c-0.469,-0.469 -0.732,-1.105 -0.732,-1.768c0,-0.331 0,-0.669 0,-1c0,-0.663 0.263,-1.299 0.732,-1.768c0.171,-0.171 0.364,-0.314 0.572,-0.427Z" style="fill:#fff;"/><path d="M10.304,12.305c0.364,-0.199 0.774,-0.305 1.196,-0.305c0.663,0 1.299,0.263 1.768,0.732c0.469,0.469 0.732,1.105 0.732,1.768l0,1c-0.418,0.314 -0.937,0.5 -1.5,0.5c-1.38,0 -2.5,-1.12 -2.5,-2.5c0,-0.433 0.11,-0.84 0.304,-1.195Z"/></g><path d="M22.928,20c-0.484,3.39 -3.404,6 -6.928,6c-3.524,0 -6.444,-2.61 -6.928,-6l13.856,0Z" style="fill:#352412;"/></g></g></svg>