<?xml version="1.0" encoding="UTF-8" standalone="no"?>
<!DOCTYPE svg PUBLIC "-//W3C//DTD SVG 1.1//EN" "http://www.w3.org/Graphics/SVG/1.1/DTD/svg11.dtd">
<svg width="100%" height="100%" viewBox="0 0 32 32" version="1.1" xmlns="http://www.w3.org/2000/svg" xmlns:xlink="http://www.w3.org/1999/xlink" xml:space="preserve" xmlns:serif="http://www.serif.com/" style="fill-rule:evenodd;clip-rule:evenodd;stroke-linecap:round;stroke-linejoin:round;stroke-miterlimit:1.5;">
    <rect id="skull" x="0" y="-0" width="32" height="32" style="fill:none;"/>
    <clipPath id="_clip1">
        <rect x="0" y="-0" width="32" height="32"/>
    </clipPath>
    <g clip-path="url(#_clip1)">
        <path d="M22.343,30l-12.686,-0c-0.553,-0 -1,-0.448 -1,-1l-0,-4c-3.422,-0 -7.542,-2.418 -6.55,-11c0.901,-7.794 7.662,-11 13.893,-11c6.231,-0 12.992,3.206 13.893,11c0.992,8.582 -3.128,11 -6.55,11l0,4c0,0.552 -0.447,1 -1,1Z" style="fill:none;stroke:#000;stroke-width:4px;"/>
        <path d="M11,30l-1.343,-0c-0.553,-0 -1,-0.448 -1,-1l-0,-4c-3.422,-0 -7.542,-2.418 -6.55,-11c0.901,-7.794 7.662,-11 13.893,-11c6.231,-0 12.992,3.206 13.893,11c0.992,8.582 -3.128,11 -6.55,11l0,4c0,0.552 -0.447,1 -1,1l-1.343,-0l-1,-1l-1,1l-2,-0l-1,-1l-1,1l-2,-0l-1,-1l-1,1Z" style="fill:#ccc;"/>
        <path d="M15,30l-0,-2.5c0,-0.552 0.448,-1 1,-1c0.552,0 1,0.448 1,1l0,2.5l-2,-0Zm-4,-0l0,-2.5c0,-0.552 0.448,-1 1,-1c0.552,0 1,0.448 1,1l-0,2.5l-2,-0Zm8,-0l0,-2.5c0,-0.552 0.448,-1 1,-1c0.552,0 1,0.448 1,1l0,2.5l-2,-0Z" style="fill:#4e4e4e;"/>
        <path d="M16,25c-1.609,0 -2.335,-1.101 -1.853,-2.801c0.394,-1.393 0.827,-2.199 1.853,-2.199c1.026,0 1.459,0.806 1.853,2.199c0.482,1.7 -0.244,2.801 -1.853,2.801Zm1.349,-8.358c-0.009,-4.438 4.86,-4.51 7.582,-2.773c3.322,2.12 2.343,6.76 -0.518,7.708c-3.73,1.235 -7.06,-2.767 -7.064,-4.935Zm-2.674,-0.31c-0.004,2.167 -3.334,6.17 -7.064,4.934c-2.861,-0.948 -3.84,-5.587 -0.518,-7.708c2.722,-1.737 7.591,-1.664 7.582,2.774Z"/>
    </g>
</svg>
