<?xml version="1.0" encoding="UTF-8" standalone="no"?>
<!DOCTYPE svg PUBLIC "-//W3C//DTD SVG 1.1//EN" "http://www.w3.org/Graphics/SVG/1.1/DTD/svg11.dtd">
<svg width="100%" height="100%" viewBox="0 0 32 32" version="1.1" xmlns="http://www.w3.org/2000/svg" xmlns:xlink="http://www.w3.org/1999/xlink" xml:space="preserve" xmlns:serif="http://www.serif.com/" style="fill-rule:evenodd;clip-rule:evenodd;stroke-linecap:round;stroke-miterlimit:1.5;">
    <rect id="ambulance" x="0" y="0" width="32" height="32" style="fill:none;"/>
    <clipPath id="_clip1">
        <rect x="0" y="0" width="32" height="32"/>
    </clipPath>
    <g clip-path="url(#_clip1)">
        <g id="outline">
            <path d="M27.484,14.226c-0.927,-1.39 -2.488,-2.226 -4.16,-2.226c-0.826,0 -1.686,0 -2.324,0c-0.265,0 -0.52,0.105 -0.707,0.293c-0.188,0.187 -0.293,0.442 -0.293,0.707c0,2.873 0,11.127 0,14c0,0.552 0.448,1 1,1c1.916,0 6.084,0 8,0c0.552,0 1,-0.448 1,-1l0,-7.486c0,-0.987 -0.292,-1.952 -0.84,-2.774c-0.485,-0.728 -1.11,-1.665 -1.676,-2.514Z" style="fill:none;stroke:#000;stroke-width:4px;"/>
            <path d="M20,10c0,-0.265 -0.105,-0.52 -0.293,-0.707c-0.187,-0.188 -0.442,-0.293 -0.707,-0.293c-3.151,0 -12.849,0 -16,0c-0.265,0 -0.52,0.105 -0.707,0.293c-0.188,0.187 -0.293,0.442 -0.293,0.707c0,3.284 0,13.716 0,17c0,0.265 0.105,0.52 0.293,0.707c0.187,0.188 0.442,0.293 0.707,0.293c3.151,0 12.849,0 16,0c0.265,0 0.52,-0.105 0.707,-0.293c0.188,-0.187 0.293,-0.442 0.293,-0.707c0,-3.284 0,-13.716 0,-17Z" style="fill:none;stroke:#000;stroke-width:4px;"/>
            <circle cx="8" cy="27" r="3" style="fill:#fff;stroke:#000;stroke-width:4px;"/>
            <circle cx="25" cy="27" r="3" style="fill:#fff;stroke:#000;stroke-width:4px;"/>
            <path d="M25,10c0,-0.552 -0.448,-1 -1,-1c-0.611,0 -1.389,0 -2,0c-0.552,0 -1,0.448 -1,1c0,0.552 0.448,1 1,1c0.611,0 1.389,0 2,0c0.552,0 1,-0.448 1,-1c0,0 0,0 0,0Z" style="fill:none;stroke:#000;stroke-width:4px;stroke-linecap:square;stroke-linejoin:round;stroke-miterlimit:3;"/>
        </g>
        <g id="emoji">
            <path d="M27.484,14.226c-0.927,-1.39 -2.488,-2.226 -4.16,-2.226c-0.826,0 -1.686,0 -2.324,0c-0.265,0 -0.52,0.105 -0.707,0.293c-0.188,0.187 -0.293,0.442 -0.293,0.707c0,2.873 0,11.127 0,14c0,0.552 0.448,1 1,1c1.916,0 6.084,0 8,0c0.552,0 1,-0.448 1,-1l0,-7.486c0,-0.987 -0.292,-1.952 -0.84,-2.774c-0.485,-0.728 -1.11,-1.665 -1.676,-2.514Z" style="fill:#f1f902;"/>
            <clipPath id="_clip2">
                <path d="M27.484,14.226c-0.927,-1.39 -2.488,-2.226 -4.16,-2.226c-0.826,0 -1.686,0 -2.324,0c-0.265,0 -0.52,0.105 -0.707,0.293c-0.188,0.187 -0.293,0.442 -0.293,0.707c0,2.873 0,11.127 0,14c0,0.552 0.448,1 1,1c1.916,0 6.084,0 8,0c0.552,0 1,-0.448 1,-1l0,-7.486c0,-0.987 -0.292,-1.952 -0.84,-2.774c-0.485,-0.728 -1.11,-1.665 -1.676,-2.514Z"/>
            </clipPath>
            <g clip-path="url(#_clip2)">
                <rect x="1" y="10" width="30" height="3" style="fill:#fef681;"/>
            </g>
            <path d="M26.693,14.828c-0.752,-1.141 -2.028,-1.828 -3.395,-1.828c-0.102,0 -0.202,0 -0.298,0c-0.265,0 -0.52,0.105 -0.707,0.293c-0.188,0.187 -0.293,0.442 -0.293,0.707c0,0.815 0,1.993 0,3c0,1.105 0.895,2 2,2c1.261,0 2.827,0 3.786,0c0.487,0 0.882,-0.394 0.882,-0.881c0,-0.01 0,-0.02 0,-0.03c0,-0.173 -0.051,-0.342 -0.146,-0.486c-0.323,-0.491 -1.129,-1.713 -1.829,-2.775Z"/>
            <path d="M20,10c0,-0.265 -0.105,-0.52 -0.293,-0.707c-0.187,-0.188 -0.442,-0.293 -0.707,-0.293c-3.151,0 -12.849,0 -16,0c-0.265,0 -0.52,0.105 -0.707,0.293c-0.188,0.187 -0.293,0.442 -0.293,0.707c0,3.284 0,13.716 0,17c0,0.265 0.105,0.52 0.293,0.707c0.187,0.188 0.442,0.293 0.707,0.293c3.151,0 12.851,0 16.001,0c0.552,0 0.999,-0.447 0.999,-0.999c0,-0.001 0,-0.001 0,-0.001l1,-1l0,-12l-1,-1l0,-3Z" style="fill:#f1f902;"/>
            <clipPath id="_clip3">
                <path d="M20,10c0,-0.265 -0.105,-0.52 -0.293,-0.707c-0.187,-0.188 -0.442,-0.293 -0.707,-0.293c-3.151,0 -12.849,0 -16,0c-0.265,0 -0.52,0.105 -0.707,0.293c-0.188,0.187 -0.293,0.442 -0.293,0.707c0,3.284 0,13.716 0,17c0,0.265 0.105,0.52 0.293,0.707c0.187,0.188 0.442,0.293 0.707,0.293c3.151,0 12.851,0 16.001,0c0.552,0 0.999,-0.447 0.999,-0.999c0,-0.001 0,-0.001 0,-0.001l1,-1l0,-12l-1,-1l0,-3Z"/>
            </clipPath>
            <g clip-path="url(#_clip3)">
                <rect x="1" y="8" width="30" height="3" style="fill:#fef681;"/>
            </g>
            <rect x="2" y="21" width="28" height="6" style="fill:#fdfeb3;"/>
            <g>
                <rect x="2" y="21" width="4" height="3" style="fill:#128747;"/>
                <rect x="6" y="24" width="4" height="3" style="fill:#128747;"/>
                <rect x="10" y="21" width="4" height="3" style="fill:#128747;"/>
                <rect x="14" y="24" width="4" height="3" style="fill:#128747;"/>
                <rect x="18" y="21" width="4" height="3" style="fill:#128747;"/>
                <rect x="18" y="21" width="4" height="3" style="fill:#128747;"/>
                <rect x="22" y="24" width="4" height="3" style="fill:#128747;"/>
                <rect x="26" y="21" width="4" height="3" style="fill:#128747;"/>
            </g>
            <path d="M25,10c0,-0.552 -0.448,-1 -1,-1c-0.611,0 -1.389,0 -2,0c-0.552,0 -1,0.448 -1,1c0,0.552 0.448,1 1,1c0.611,0 1.389,0 2,0c0.552,0 1,-0.448 1,-1c0,0 0,0 0,0Z" style="fill:#2256f2;"/>
            <path d="M30,23l-0.001,0c-0.552,0 -0.999,0.447 -0.999,0.999c0,0.322 0,0.679 0,1.001c0,0.552 0.448,1 1,1c0,0 0,0 0,0l0,-3Z" style="fill:#2c2c2c;"/>
            <path d="M12,26.812c0,-1.011 -0.402,-1.981 -1.117,-2.695c-0.715,-0.715 -1.684,-1.117 -2.695,-1.117c-0.125,0 -0.251,0 -0.376,0c-1.011,0 -1.98,0.402 -2.695,1.117c-0.715,0.714 -1.117,1.684 -1.117,2.695c0,0.686 0,1.188 0,1.188l8,0l0,-1.188Z" style="fill:#333;"/>
            <path d="M29,26.812c0,-1.011 -0.402,-1.981 -1.117,-2.695c-0.715,-0.715 -1.684,-1.117 -2.695,-1.117c-0.125,0 -0.251,0 -0.376,0c-1.011,0 -1.98,0.402 -2.695,1.117c-0.715,0.714 -1.117,1.684 -1.117,2.695c0,0.686 0,1.188 0,1.188l8,0l0,-1.188Z" style="fill:#333;"/>
            <path d="M14,13c0,-0.552 -0.448,-1 -1,-1c-1.916,0 -6.084,0 -8,0c-0.552,0 -1,0.448 -1,1c0,1.331 0,3.669 0,5c0,0.552 0.448,1 1,1c1.916,0 6.084,0 8,0c0.552,0 1,-0.448 1,-1c0,-1.331 0,-3.669 0,-5Z"/>
            <circle cx="8" cy="27" r="3" style="fill:#5a5a5a;"/>
            <circle cx="25" cy="27" r="3" style="fill:#5a5a5a;"/>
            <circle cx="25" cy="27" r="1.5" style="fill:#bfbfbf;"/>
            <circle cx="8" cy="27" r="1.5" style="fill:#bfbfbf;"/>
            <circle cx="17" cy="16" r="2" style="fill:#0e43e3;"/>
        </g>
    </g>
</svg>
