<?xml version="1.0" encoding="UTF-8" standalone="no"?>
<!DOCTYPE svg PUBLIC "-//W3C//DTD SVG 1.1//EN" "http://www.w3.org/Graphics/SVG/1.1/DTD/svg11.dtd">
<svg width="100%" height="100%" viewBox="0 0 32 32" version="1.1" xmlns="http://www.w3.org/2000/svg" xmlns:xlink="http://www.w3.org/1999/xlink" xml:space="preserve" xmlns:serif="http://www.serif.com/" style="fill-rule:evenodd;clip-rule:evenodd;stroke-linecap:round;stroke-miterlimit:1.5;">
    <rect id="articulated_truck" x="0" y="0" width="32" height="32" style="fill:none;"/>
    <clipPath id="_clip1">
        <rect x="0" y="0" width="32" height="32"/>
    </clipPath>
    <g clip-path="url(#_clip1)">
        <g id="outline">
            <path d="M27,11.5c-1.298,-0.974 -2.877,-1.5 -4.5,-1.5c-0.879,0 -1.817,0 -2.5,0c-0.265,0 -0.52,0.105 -0.707,0.293c-0.188,0.187 -0.293,0.442 -0.293,0.707c0,2.422 0,8.578 0,11c0,0.552 0.448,1 1,1c1.185,0 3,0 3,0l0,4l6,0c0.265,0 0.52,-0.105 0.707,-0.293c0.188,-0.187 0.293,-0.442 0.293,-0.707c0,-1.033 0,-2.636 0,-3.672c0,-0.653 -0.214,-1.289 -0.608,-1.811c-0.209,-0.276 -0.392,-0.517 -0.392,-0.517l0,-4.5c0,-1.574 -0.741,-3.056 -2,-4c0,0 0,0 0,0Z" style="fill:none;stroke:#000;stroke-width:4px;"/>
            <path d="M19,9c0,-0.552 -0.448,-1 -1,-1c-3.014,0 -11.986,0 -15,0c-0.552,0 -1,0.448 -1,1c0,2.873 0,11.127 0,14c0,0.552 0.448,1 1,1c3.014,0 11.986,0 15,0c0.552,0 1,-0.448 1,-1c0,-1.185 0,-3 0,-3l0,-11Z" style="fill:none;stroke:#000;stroke-width:4px;"/>
            <circle cx="5" cy="27" r="3" style="fill:#fff;stroke:#000;stroke-width:4px;"/>
            <circle cx="12" cy="27" r="3" style="fill:#fff;stroke:#000;stroke-width:4px;"/>
            <circle cx="23" cy="27" r="3" style="fill:#fff;stroke:#000;stroke-width:4px;"/>
        </g>
        <g id="emoji">
            <path d="M19,9c0,-0.552 -0.448,-1 -1,-1c-3.014,0 -11.986,0 -15,0c-0.552,0 -1,0.448 -1,1c0,0.5 0,1 0,1l1,2l0,9l-1,2l0,0.001c0,0.552 0.447,0.999 0.999,0.999c3.013,0 11.989,0 15.002,0c0.552,0 0.999,-0.447 0.999,-0.999c0,-0.001 0,-0.001 0,-0.001l-1,-2l0,-9.409l1,-1.591l0,-1Z" style="fill:#999;"/>
            <rect x="2" y="10" width="17" height="13" style="fill:#66df36;"/>
            <path d="M29.397,23l0.603,3c0,0.265 -0.105,0.52 -0.293,0.707c-0.187,0.188 -0.442,0.293 -0.707,0.293l-2,0c0,0 0,0 0,0c0,-1.195 -0.524,-2.267 -1.354,-3l1.354,-1l2.397,0Zm-10.397,-1l0,-10l1.193,-0.319l5.279,-0.119l2.099,0.438c0.909,0.927 1.429,2.181 1.429,3.5l0,4.5c0,0 0.183,0.241 0.392,0.517c0.328,0.434 0.531,0.947 0.59,1.483l-0.982,0.6l-9,-0.3l-1,-0.3Z" style="fill:#4dc7e0;"/>
            <path d="M19,12l0,-1c0,-0.265 0.105,-0.52 0.293,-0.707c0.187,-0.188 0.442,-0.293 0.707,-0.293c0.683,0 1.621,0 2.5,0c1.623,0 3.202,0.526 4.5,1.5c0,0 0,0 0,0c0.204,0.153 0.395,0.32 0.571,0.5l-8.571,0Z" style="fill:#83d8e9;"/>
            <path d="M29.982,22c0.012,0.109 0.018,0.218 0.018,0.328l0,0.672l-0.475,1l-3.879,0c-0.705,-0.622 -1.632,-1 -2.646,-1c-1.116,0 -2.232,0 -3,0c-0.552,0 -1,-0.448 -1,-1l0,0l10.982,0Z" style="fill:#fff;"/>
            <path d="M30,23l-0.001,0c-0.552,0 -0.999,0.447 -0.999,0.999c0,0.322 0,0.679 0,1.001c0,0.552 0.448,1 1,1c0,0 0,0 0,0l0,-3Z" style="fill:#2c2c2c;"/>
            <path d="M30,14l-2,0c-0.552,0 -1,0.448 -1,1c0,1.11 0,2.89 0,4c0,0.552 0.448,1 1,1c0.873,0 2,0 2,0l0,-6Z"/>
            <path d="M26,15c0,-0.265 -0.105,-0.52 -0.293,-0.707c-0.187,-0.188 -0.442,-0.293 -0.707,-0.293c-0.871,0 -2.129,0 -3,0c-0.552,0 -1,0.448 -1,1c0,0.477 0,1.03 0,1.434c0,0.351 0.184,0.677 0.486,0.857c0.687,0.413 1.975,1.185 3,1.8c0.308,0.186 0.693,0.191 1.007,0.013c0.313,-0.178 0.507,-0.51 0.507,-0.87c0,-1.054 0,-2.355 0,-3.234Z"/>
            <g>
                <circle cx="5" cy="27" r="3" style="fill:#5a5a5a;"/>
                <circle cx="12" cy="27" r="3" style="fill:#5a5a5a;"/>
                <circle cx="23" cy="27" r="3" style="fill:#5a5a5a;"/>
                <circle cx="23" cy="27" r="1.5" style="fill:#bfbfbf;"/>
                <circle cx="5" cy="27" r="1.5" style="fill:#bfbfbf;"/>
                <circle cx="12" cy="27" r="1.5" style="fill:#bfbfbf;"/>
            </g>
            <path d="M10.5,16.5l-4,-4c0,0 0,0 -0.001,0.001c-1.06,1.06 -1.656,2.499 -1.656,3.999c0,1.5 0.596,2.939 1.656,3.999c0.001,0.001 0.001,0.001 0.001,0.001l4,-4l4,4c0,0 0,0 0.001,-0.001c1.06,-1.06 1.656,-2.499 1.656,-3.999c0,-1.5 -0.596,-2.939 -1.656,-3.999c-0.001,-0.001 -0.001,-0.001 -0.001,-0.001l-4,4Z" style="fill:#fff;"/>
        </g>
    </g>
</svg>
