<?xml version="1.0" encoding="UTF-8" standalone="no"?>
<!DOCTYPE svg PUBLIC "-//W3C//DTD SVG 1.1//EN" "http://www.w3.org/Graphics/SVG/1.1/DTD/svg11.dtd">
<svg width="100%" height="100%" viewBox="0 0 32 32" version="1.1" xmlns="http://www.w3.org/2000/svg" xmlns:xlink="http://www.w3.org/1999/xlink" xml:space="preserve" xmlns:serif="http://www.serif.com/" style="fill-rule:evenodd;clip-rule:evenodd;stroke-linejoin:round;stroke-miterlimit:2;">
    <rect id="bicycle" x="0" y="0" width="32" height="32" style="fill:none;"/>
    <g id="outline">
        <path d="M3.276,25.5l-0.276,-0c-0.276,-0 -0.5,-0.224 -0.5,-0.5c0,-3.038 2.462,-5.5 5.5,-5.5c1.07,-0 2.068,0.305 2.912,0.834l1.244,-1.493l-0.613,-1.841l-1.543,0c-0.552,-0 -1,-0.448 -1,-1c0,-0.552 0.448,-1 1,-1l3,-0c0.552,-0 1,0.448 1,1c0,0.511 -0.384,0.933 -0.879,0.993l2.42,7.257l0.087,-0c0.591,-0 1.139,-0.308 1.447,-0.812l4.621,-7.561l-0.814,-3.259l-1.564,-0.39c-0.401,-0.101 -0.646,-0.508 -0.546,-0.91c0.101,-0.401 0.508,-0.646 0.91,-0.546l2,0.5c0.269,0.068 0.478,0.277 0.546,0.546l0.941,3.767l1.056,-0.528c0.166,-0.083 0.363,-0.075 0.521,0.023c0.158,0.097 0.254,0.27 0.254,0.455l-0,1.268c0,0.186 -0.096,0.358 -0.254,0.455c-0.158,0.098 -0.355,0.107 -0.521,0.024l-0.722,-0.361l0.661,2.642c0.273,-0.041 0.552,-0.063 0.836,-0.063c0.66,0 1.315,0.119 1.933,0.351c0.258,0.097 0.389,0.385 0.292,0.644l-0.097,0.258c1.554,0.781 2.622,2.39 2.622,4.247c0,2.622 -2.128,4.75 -4.75,4.75c-2.453,0 -4.474,-1.863 -4.724,-4.25l-0.276,-0c-0.276,-0 -0.5,-0.224 -0.5,-0.5c0,-2.226 1.323,-4.143 3.225,-5.009l-0.518,-2.073l-3.852,6.302c-0.58,0.951 -1.613,1.53 -2.727,1.53c0,0 -0.633,0 -0.643,-0l-2.294,-0c-0.36,2.266 -2.325,4 -4.691,4c-2.453,0 -4.474,-1.863 -4.724,-4.25Zm10.173,-1.25l0.51,-0l-1.245,-3.736l-0.65,0.78c0.733,0.804 1.231,1.825 1.385,2.956Z" style="stroke:#000;stroke-width:4px;"/>
    </g>
    <path d="M4.031,25.5l-1.031,-0c-0.276,-0 -0.5,-0.224 -0.5,-0.5c0,-3.038 2.462,-5.5 5.5,-5.5c3.038,-0 5.5,2.462 5.5,5.5c-0,0.276 -0.224,0.5 -0.5,0.5l-1.031,-0c0.02,-0.164 0.031,-0.331 0.031,-0.5c0,-0.169 -0.011,-0.336 -0.031,-0.5l0.504,0c-0.249,-2.25 -2.157,-4 -4.473,-4c-2.316,-0 -4.224,1.75 -4.473,4l0.504,-0c-0.02,0.164 -0.031,0.331 -0.031,0.5c-0,0.169 0.011,0.336 0.031,0.5Zm17,-0l-1.031,-0c-0.276,-0 -0.5,-0.224 -0.5,-0.5c0,-3.038 2.462,-5.5 5.5,-5.5c0.66,-0 1.315,0.119 1.933,0.351c0.258,0.097 0.389,0.385 0.292,0.644l-0.362,0.965c-0.293,-0.154 -0.607,-0.274 -0.936,-0.352l0.176,-0.471c-0.36,-0.091 -0.73,-0.137 -1.103,-0.137c-2.316,-0 -4.224,1.75 -4.473,4l0.504,0c-0.02,0.164 -0.031,0.331 -0.031,0.5c-0,0.169 0.011,0.336 0.031,0.5Z" style="fill:#8a8a8a;"/>
    <path d="M8,20.25c2.622,-0 4.75,2.128 4.75,4.75c0,2.622 -2.128,4.75 -4.75,4.75c-2.622,-0 -4.75,-2.128 -4.75,-4.75c-0,-2.622 2.128,-4.75 4.75,-4.75Zm-0,1.5c-1.794,-0 -3.25,1.456 -3.25,3.25c-0,1.794 1.456,3.25 3.25,3.25c1.794,0 3.25,-1.456 3.25,-3.25c-0,-1.794 -1.456,-3.25 -3.25,-3.25Z" style="fill:#d3bf96;"/>
    <path d="M25,20.25c2.622,-0 4.75,2.128 4.75,4.75c0,2.622 -2.128,4.75 -4.75,4.75c-2.622,0 -4.75,-2.128 -4.75,-4.75c0,-2.622 2.128,-4.75 4.75,-4.75Zm0,1.5c-1.794,0 -3.25,1.456 -3.25,3.25c0,1.794 1.456,3.25 3.25,3.25c1.794,0 3.25,-1.456 3.25,-3.25c0,-1.794 -1.456,-3.25 -3.25,-3.25Z" style="fill:#d3bf96;"/>
    <g id="Layer2">
        <path d="M23,15.964l-1.304,-0.087l-0.924,-3.695c-0.1,-0.402 0.145,-0.809 0.546,-0.91c0.402,-0.1 0.809,0.145 0.91,0.546l0.941,3.767l1.056,-0.528c0.166,-0.083 0.363,-0.075 0.521,0.023c0.158,0.097 0.254,0.27 0.254,0.455l-0,1.268c0,0.186 -0.096,0.358 -0.254,0.455c-0.158,0.098 -0.355,0.107 -0.521,0.024l-1.225,-0.613l-0,-0.705Zm-11.712,0.273c-0.13,-0.393 0.082,-0.818 0.475,-0.949c0.393,-0.13 0.818,0.082 0.949,0.475l1.112,3.338l-1.668,-0.26l-0.868,-2.604Z" style="fill:#cacaca;"/>
        <path d="M8,25.75c-0.176,-0 -0.345,-0.061 -0.48,-0.174c-0.171,-0.143 -0.27,-0.353 -0.27,-0.576c0,-0.176 0.061,-0.345 0.174,-0.48l5,-6c0.089,-0.108 0.206,-0.187 0.339,-0.232c0.247,-0.082 0.517,-0.031 0.717,0.136c0.108,0.089 0.187,0.206 0.232,0.339l1.829,5.487l0.087,-0c0.591,-0 1.139,-0.308 1.447,-0.812l4.785,-7.829c0.103,-0.168 0.267,-0.289 0.458,-0.337c0.196,-0.048 0.401,-0.017 0.573,0.088c0.168,0.103 0.289,0.267 0.337,0.458l1.493,5.972l0.991,2.973c0.13,0.393 -0.082,0.818 -0.475,0.949c-0.393,0.13 -0.818,-0.082 -0.949,-0.475l-1,-3c-0.006,-0.018 -0.011,-0.036 -0.016,-0.055l-1.065,-4.264l-3.852,6.302c-0.58,0.951 -1.613,1.53 -2.727,1.53c0,0 -0.633,0 -0.643,-0l-6.985,-0Zm4.714,-5.236l-3.113,3.736l4.358,-0l-1.245,-3.736Z" style="fill:#5febca;"/>
    </g>
    <g id="Layer4">
        <path d="M19.5,11.5l2,0.5" style="fill:none;stroke:#5a5a5a;stroke-width:1.5px;stroke-linecap:round;stroke-miterlimit:1.5;"/>
        <path d="M10,16l3,0" style="fill:none;stroke:#5a5a5a;stroke-width:2px;stroke-linecap:round;stroke-miterlimit:1.5;"/>
    </g>
</svg>
