<?xml version="1.0" encoding="UTF-8" standalone="no"?>
<!DOCTYPE svg PUBLIC "-//W3C//DTD SVG 1.1//EN" "http://www.w3.org/Graphics/SVG/1.1/DTD/svg11.dtd">
<svg width="100%" height="100%" viewBox="0 0 32 32" version="1.1" xmlns="http://www.w3.org/2000/svg" xmlns:xlink="http://www.w3.org/1999/xlink" xml:space="preserve" xmlns:serif="http://www.serif.com/" style="fill-rule:evenodd;clip-rule:evenodd;stroke-linecap:round;stroke-miterlimit:1.5;">
    <rect id="bus" x="0" y="0" width="32" height="32" style="fill:none;"/>
    <clipPath id="_clip1">
        <rect x="0" y="0" width="32" height="32"/>
    </clipPath>
    <g clip-path="url(#_clip1)">
        <g id="outline">
            <path d="M5.171,28l-2.171,0c-0.552,0 -1,-0.448 -1,-1c0,-3.414 0,-14.586 0,-18c0,-0.265 0.105,-0.52 0.293,-0.707c0.187,-0.188 0.442,-0.293 0.707,-0.293c4.077,0 19.464,0 24.438,0c0.918,0 1.718,0.625 1.941,1.515c0.21,0.843 0.452,1.808 0.561,2.246c0.04,0.159 0.06,0.322 0.06,0.485c0,1.686 0,11.556 0,14.754c0,0.552 -0.448,1 -1,1l-2.171,0c-0.412,1.165 -1.524,2 -2.829,2c-1.305,0 -2.417,-0.835 -2.829,-2l-10.342,0c-0.412,1.165 -1.524,2 -2.829,2c-1.305,0 -2.417,-0.835 -2.829,-2Z" style="fill:none;stroke:#000;stroke-width:4px;"/>
        </g>
        <g id="emoji">
            <g>
                <path d="M29.526,10.105l0.414,1.656c0.04,0.159 0.06,0.322 0.06,0.485c0,1.538 0,9.754 0,9.754l-0.613,1l0,2l0.613,1c0,0 0,0.5 0,1c0,0.265 -0.105,0.52 -0.293,0.707c-0.187,0.188 -0.442,0.293 -0.707,0.293l-1,0l-1,-1l-6,0l-1,1l-8,0l-1,-1l-6,0l-1,1l-1,0c-0.265,0 -0.52,-0.105 -0.707,-0.293c-0.188,-0.187 -0.293,-0.442 -0.293,-0.707l0,-1l0.522,-0.5l-0.522,-0.5l0,-1l1,-1l-1,-1l0,-11.895l1,-1.105l25,0l1.526,1.105Z" style="fill:#f11717;"/>
                <path d="M2,10.105l0,-1.105c0,-0.552 0.448,-1 1,-1c4.077,0 19.464,0 24.438,0c0.918,0 1.718,0.625 1.941,1.515l0.147,0.59l-27.526,0Z" style="fill:#f55959;"/>
                <path d="M30,22l-28,0l0,2l27,0l1,-1l0,-1Z" style="fill:#f3f3f3;"/>
                <g>
                    <rect x="13" y="25" width="2" height="1" style="fill:#a60a0a;"/>
                    <rect x="2" y="25" width="1" height="1" style="fill:#a60a0a;"/>
                    <rect x="17" y="25" width="2" height="1" style="fill:#a60a0a;"/>
                </g>
                <path d="M30,23l-0.001,0c-0.552,0 -0.999,0.447 -0.999,0.999c0,0.322 0,0.679 0,1.001c0,0.552 0.448,1 1,1c0,0 0,0 0,0l0,-3Z" style="fill:#2c2c2c;"/>
            </g>
            <g>
                <path d="M12,26.812c0,-1.011 -0.402,-1.981 -1.117,-2.695c-0.715,-0.715 -1.684,-1.117 -2.695,-1.117c-0.125,0 -0.251,0 -0.376,0c-1.011,0 -1.98,0.402 -2.695,1.117c-0.715,0.714 -1.117,1.684 -1.117,2.695c0,0.686 0,1.188 0,1.188l8,0l0,-1.188Z" style="fill:#333;"/>
                <circle cx="8" cy="27" r="3" style="fill:#5a5a5a;"/>
                <circle cx="8" cy="27" r="1.5" style="fill:#bfbfbf;"/>
            </g>
            <g>
                <path d="M28,26.812c0,-1.011 -0.402,-1.981 -1.117,-2.695c-0.715,-0.715 -1.684,-1.117 -2.695,-1.117c-0.125,0 -0.251,0 -0.376,0c-1.011,0 -1.98,0.402 -2.695,1.117c-0.715,0.714 -1.117,1.684 -1.117,2.695c0,0.686 0,1.188 0,1.188l8,0l0,-1.188Z" style="fill:#333;"/>
                <circle cx="24" cy="27" r="3" style="fill:#5a5a5a;"/>
                <circle cx="24" cy="27" r="1.5" style="fill:#bfbfbf;"/>
            </g>
            <path d="M26,13c0,-0.265 -0.105,-0.52 -0.293,-0.707c-0.187,-0.188 -0.442,-0.293 -0.707,-0.293c-1.459,0 -4,0 -4,0l-1,1l-1,-1l-9,0l-1,1l-1,-1l-4,0c-0.265,0 -0.52,0.105 -0.707,0.293c-0.188,0.187 -0.293,0.442 -0.293,0.707c0,1.732 0,5.268 0,7c0,0.265 0.105,0.52 0.293,0.707c0.187,0.188 0.442,0.293 0.707,0.293c1.459,0 4,0 4,0l1,-1l1,1l9,0l1,-1l1,1l4,0c0.265,0 0.52,-0.105 0.707,-0.293c0.188,-0.187 0.293,-0.442 0.293,-0.707c0,-1.732 0,-5.268 0,-7Z"/>
            <path d="M31,12l-3,0c-0.552,0 -1,0.448 -1,1c0,1.732 0,5.268 0,7c0,0.552 0.448,1 1,1c1.185,0 3,0 3,0l0,-9Z"/>
            <rect x="8" y="12" width="2" height="9" style="fill:#333;"/>
            <rect x="19" y="12" width="2" height="9" style="fill:#333;"/>
        </g>
    </g>
</svg>
