<?xml version="1.0" encoding="UTF-8" standalone="no"?>
<!DOCTYPE svg PUBLIC "-//W3C//DTD SVG 1.1//EN" "http://www.w3.org/Graphics/SVG/1.1/DTD/svg11.dtd">
<svg width="100%" height="100%" viewBox="0 0 32 32" version="1.1" xmlns="http://www.w3.org/2000/svg" xmlns:xlink="http://www.w3.org/1999/xlink" xml:space="preserve" xmlns:serif="http://www.serif.com/" style="fill-rule:evenodd;clip-rule:evenodd;stroke-linecap:round;stroke-miterlimit:1.5;">
    <rect id="car" x="0" y="0" width="32" height="32" style="fill:none;"/>
    <clipPath id="_clip1">
        <rect x="0" y="0" width="32" height="32"/>
    </clipPath>
    <g clip-path="url(#_clip1)">
        <g id="outline">
            <path d="M24.703,13.542c-1.024,-2.732 -3.636,-4.542 -6.554,-4.542c-2.509,0 -5.568,0 -8.104,0c-3.013,-0 -5.688,1.928 -6.64,4.786c-0.3,0.899 -0.594,1.781 -0.835,2.505c-0.378,1.132 -0.57,2.317 -0.57,3.51l0,5.199c-0,0.53 0.211,1.039 0.586,1.414c0.375,0.375 0.884,0.586 1.414,0.586c5.154,0 18.846,0 24,0c0.53,0 1.039,-0.211 1.414,-0.586c0.375,-0.375 0.586,-0.884 0.586,-1.414c0,-1.377 0,-3.212 -0,-4.658c-0,-1.376 -0.937,-2.576 -2.272,-2.91c-0.902,-0.225 -1.728,-0.432 -1.728,-0.432c0,-0 -0.62,-1.654 -1.297,-3.458Z" style="fill:none;stroke:#000;stroke-width:4px;"/>
            <circle cx="7.5" cy="26.5" r="3.5" style="fill:none;stroke:#000;stroke-width:4px;"/>
            <circle cx="23.5" cy="26.5" r="3.5" style="fill:none;stroke:#000;stroke-width:4px;"/>
        </g>
        <g id="emoji">
            <path d="M24.703,13.542c-1.024,-2.732 -3.636,-4.542 -6.554,-4.542c-2.509,-0 -5.568,-0 -8.104,-0c-3.013,-0 -5.688,1.928 -6.64,4.786c-0.3,0.899 -0.594,1.781 -0.835,2.505c-0.378,1.132 -0.57,2.317 -0.57,3.51l0,5.199c-0,0.53 0.211,1.039 0.586,1.414c0.375,0.375 0.884,0.586 1.414,0.586c5.154,0 18.846,0 24,0c0.53,0 1.039,-0.211 1.414,-0.586c0.375,-0.375 0.586,-0.884 0.586,-1.414c0,-1.377 0,-3.212 -0,-4.658c-0,-1.376 -0.937,-2.576 -2.272,-2.91c-0.902,-0.225 -1.728,-0.432 -1.728,-0.432c0,0 -0.62,-1.654 -1.297,-3.458Z" style="fill:#e82731;"/>
            <clipPath id="_clip2">
                <path d="M24.703,13.542c-1.024,-2.732 -3.636,-4.542 -6.554,-4.542c-2.509,-0 -5.568,-0 -8.104,-0c-3.013,-0 -5.688,1.928 -6.64,4.786c-0.3,0.899 -0.594,1.781 -0.835,2.505c-0.378,1.132 -0.57,2.317 -0.57,3.51l0,5.199c-0,0.53 0.211,1.039 0.586,1.414c0.375,0.375 0.884,0.586 1.414,0.586c5.154,0 18.846,0 24,0c0.53,0 1.039,-0.211 1.414,-0.586c0.375,-0.375 0.586,-0.884 0.586,-1.414c0,-1.377 0,-3.212 -0,-4.658c-0,-1.376 -0.937,-2.576 -2.272,-2.91c-0.902,-0.225 -1.728,-0.432 -1.728,-0.432c0,0 -0.62,-1.654 -1.297,-3.458Z"/>
            </clipPath>
            <g clip-path="url(#_clip2)">
                <path d="M19,19.5c0,-0.133 -0.053,-0.26 -0.146,-0.354c-0.094,-0.093 -0.221,-0.146 -0.354,-0.146c-0.556,0 -1.448,0 -2.003,0c-0.132,-0 -0.258,0.052 -0.351,0.146c-0.094,0.093 -0.146,0.219 -0.146,0.351c0,0.001 0,0.002 0,0.003c-0,0.133 0.053,0.26 0.146,0.354c0.094,0.093 0.221,0.146 0.354,0.146c0.408,-0 0.996,-0 1.5,-0c0.552,-0 1,-0.448 1,-1c0,0 0,0 0,0.5Z" style="fill:#dbdbdb;"/>
                <rect x="1" y="7" width="30" height="4" style="fill:#ef6c73;"/>
                <path d="M31,19l-1.5,0c-0.398,0 -0.779,0.158 -1.061,0.439c-0.281,0.282 -0.439,0.663 -0.439,1.061c0,0.828 0.672,1.5 1.5,1.5l1.5,0l0,-3Z" style="fill:#343434;"/>
                <path d="M1,19l1,0c0.552,0 1,0.448 1,1c-0,0.611 -0,1.389 -0,2c-0,0.552 -0.448,1 -1,1c-0.5,0 -1,0 -1,0l-0,-4Z" style="fill:#343434;"/>
                <path d="M27,24c-0,-0.265 -0.105,-0.52 -0.293,-0.707c-0.187,-0.188 -0.442,-0.293 -0.707,-0.293c-4.772,-0 -25,-0 -25,-0l0,2l25,-0c0.265,0 0.52,-0.105 0.707,-0.293c0.188,-0.187 0.293,-0.442 0.293,-0.707Z" style="fill:#242424;"/>
                <path d="M28,26.5c-0,-2.485 -2.015,-4.5 -4.5,-4.5c-0,0 -0,0 -0,0c-2.485,0 -4.5,2.015 -4.5,4.5c0,0.308 0,0.5 0,0.5l9,-0l0,-0.5Z" style="fill:#333;"/>
                <path d="M12,26.5c-0,-2.485 -2.015,-4.5 -4.5,-4.5c-0,0 -0,0 -0,0c-2.485,0 -4.5,2.015 -4.5,4.5c0,0.308 0,0.5 0,0.5l9,-0l0,-0.5Z" style="fill:#333;"/>
            </g>
            <path d="M19,19.5c0,-0.133 -0.053,-0.26 -0.146,-0.354c-0.094,-0.093 -0.221,-0.146 -0.354,-0.146c-0.556,0 -1.448,0 -2.003,0c-0.132,-0 -0.258,0.052 -0.351,0.146c-0.094,0.093 -0.146,0.219 -0.146,0.351c0,0.001 0,0.002 0,0.003c-0,0.133 0.053,0.26 0.146,0.354c0.094,0.093 0.221,0.146 0.354,0.146c0.408,-0 0.996,-0 1.5,-0c0.552,-0 1,-0.448 1,-1c0,0 0,0 0,0.5Z" style="fill:#f3f3f3;"/>
            <path d="M23.7,14.33c-0.707,-1.996 -2.595,-3.33 -4.713,-3.33l-9.56,-0c-1.532,0 -2.98,0.703 -3.928,1.907c-0.04,0.051 -0.079,0.101 -0.118,0.15c-0.488,0.62 -0.826,1.345 -0.987,2.119c-0.06,0.293 -0.125,0.604 -0.183,0.885c-0.109,0.525 0.216,1.042 0.736,1.173c0.752,0.188 1.791,0.449 2.442,0.613c0.406,0.101 0.823,0.153 1.241,0.153l15.356,-0c0.233,0 0.451,-0.113 0.585,-0.303c0.135,-0.19 0.168,-0.433 0.091,-0.652c-0.252,-0.709 -0.61,-1.721 -0.962,-2.715Z"/>
            <clipPath id="_clip3">
                <path d="M23.7,14.33c-0.707,-1.996 -2.595,-3.33 -4.713,-3.33l-9.56,-0c-1.532,0 -2.98,0.703 -3.928,1.907c-0.04,0.051 -0.079,0.101 -0.118,0.15c-0.488,0.62 -0.826,1.345 -0.987,2.119c-0.06,0.293 -0.125,0.604 -0.183,0.885c-0.109,0.525 0.216,1.042 0.736,1.173c0.752,0.188 1.791,0.449 2.442,0.613c0.406,0.101 0.823,0.153 1.241,0.153l15.356,-0c0.233,0 0.451,-0.113 0.585,-0.303c0.135,-0.19 0.168,-0.433 0.091,-0.652c-0.252,-0.709 -0.61,-1.721 -0.962,-2.715Z"/>
            </clipPath>
            <g clip-path="url(#_clip3)">
                <path d="M11,10c-0,0 -0.568,2.271 -0.848,3.391c-0.101,0.404 -0.152,0.82 -0.152,1.237c-0,1.343 -0,4.372 -0,4.372" style="fill:none;stroke:#1a1a1a;stroke-width:2px;stroke-linejoin:round;"/>
                <path d="M18,11l0,8" style="fill:none;stroke:#1a1a1a;stroke-width:2px;stroke-linejoin:round;"/>
            </g>
            <circle cx="7.5" cy="26.5" r="3.5" style="fill:#5a5a5a;"/>
            <circle cx="23.5" cy="26.5" r="3.5" style="fill:#5a5a5a;"/>
            <circle cx="23.5" cy="26.5" r="2.5" style="fill:#bfbfbf;"/>
            <circle cx="7.5" cy="26.5" r="2.5" style="fill:#bfbfbf;"/>
            <path d="M22,18.1c0,-0.608 -0.492,-1.1 -1.1,-1.1c-0.295,0 -0.611,0 -0.9,0c-0.552,0 -1,0.448 -1,1c0,0.552 0.448,1 1,1c0.458,0 0.987,0 1.386,0c0.339,-0 0.614,-0.275 0.614,-0.614c0,-0.091 0,-0.188 0,-0.286Z" style="fill:#707070;"/>
        </g>
    </g>
</svg>
