<?xml version="1.0" encoding="UTF-8" standalone="no"?>
<!DOCTYPE svg PUBLIC "-//W3C//DTD SVG 1.1//EN" "http://www.w3.org/Graphics/SVG/1.1/DTD/svg11.dtd">
<svg width="100%" height="100%" viewBox="0 0 32 32" version="1.1" xmlns="http://www.w3.org/2000/svg" xmlns:xlink="http://www.w3.org/1999/xlink" xml:space="preserve" xmlns:serif="http://www.serif.com/" style="fill-rule:evenodd;clip-rule:evenodd;stroke-linecap:round;stroke-miterlimit:1.5;">
    <rect id="car" x="0" y="0" width="32" height="32" style="fill:none;"/>
    <clipPath id="_clip1">
        <rect x="0" y="0" width="32" height="32"/>
    </clipPath>
    <g clip-path="url(#_clip1)">
        <g id="outline">
            <path d="M24.703,13.542c-1.024,-2.732 -3.636,-4.542 -6.554,-4.542c-2.519,0 -5.593,0 -8.135,0c-2.994,0 -5.653,1.916 -6.599,4.756c-0.001,0.001 -0.001,0.001 -0.001,0.001c-0.936,2.81 -1.414,5.753 -1.414,8.715l0,2.528c0,0.53 0.211,1.039 0.586,1.414c0.375,0.375 0.884,0.586 1.414,0.586c5.154,0 18.846,0 24,0c0.53,0 1.039,-0.211 1.414,-0.586c0.375,-0.375 0.586,-0.884 0.586,-1.414c0,-1.377 0,-3.212 0,-4.658c0,-1.376 -0.937,-2.576 -2.272,-2.91c-0.902,-0.225 -1.728,-0.432 -1.728,-0.432c0,0 -0.62,-1.654 -1.297,-3.458Z" style="fill:none;stroke:#000;stroke-width:4px;"/>
            <circle cx="7.5" cy="26.5" r="3.5" style="fill:none;stroke:#000;stroke-width:4px;"/>
            <circle cx="23.5" cy="26.5" r="3.5" style="fill:none;stroke:#000;stroke-width:4px;"/>
        </g>
        <g id="emoji">
            <path d="M24.703,13.542c-1.024,-2.732 -3.636,-4.542 -6.554,-4.542c-2.519,0 -5.593,0 -8.135,0c-2.994,0 -5.653,1.916 -6.599,4.756c-0.001,0.001 -0.001,0.001 -0.001,0.001c-0.936,2.81 -1.414,5.753 -1.414,8.715l0,2.528c0,0.53 0.211,1.039 0.586,1.414c0.375,0.375 0.884,0.586 1.414,0.586c5.154,0 18.846,0 24,0c0.53,0 1.039,-0.211 1.414,-0.586c0.375,-0.375 0.586,-0.884 0.586,-1.414c0,-1.377 0,-3.212 0,-4.658c0,-1.376 -0.937,-2.576 -2.272,-2.91c-0.902,-0.225 -1.728,-0.432 -1.728,-0.432c0,0 -0.62,-1.654 -1.297,-3.458Z" style="fill:#e82731;"/>
            <clipPath id="_clip2">
                <path d="M24.703,13.542c-1.024,-2.732 -3.636,-4.542 -6.554,-4.542c-2.519,0 -5.593,0 -8.135,0c-2.994,0 -5.653,1.916 -6.599,4.756c-0.001,0.001 -0.001,0.001 -0.001,0.001c-0.936,2.81 -1.414,5.753 -1.414,8.715l0,2.528c0,0.53 0.211,1.039 0.586,1.414c0.375,0.375 0.884,0.586 1.414,0.586c5.154,0 18.846,0 24,0c0.53,0 1.039,-0.211 1.414,-0.586c0.375,-0.375 0.586,-0.884 0.586,-1.414c0,-1.377 0,-3.212 0,-4.658c0,-1.376 -0.937,-2.576 -2.272,-2.91c-0.902,-0.225 -1.728,-0.432 -1.728,-0.432c0,0 -0.62,-1.654 -1.297,-3.458Z"/>
            </clipPath>
            <g clip-path="url(#_clip2)">
                <path d="M19,19.499c0,-0.276 -0.223,-0.499 -0.499,-0.499c-0.555,0 -1.447,0 -2.002,0c-0.276,0 -0.499,0.223 -0.499,0.499c0,0 0,0.001 0,0.001c0,0.133 0.053,0.26 0.146,0.354c0.094,0.093 0.221,0.146 0.354,0.146c0.555,0 1.445,0 2,0c0.133,0 0.26,-0.053 0.354,-0.146c0.093,-0.094 0.146,-0.221 0.146,-0.354c0,0 0,-0.001 0,-0.001Z" style="fill:#dbdbdb;"/>
                <rect x="1" y="7" width="30" height="4" style="fill:#ef6c73;"/>
                <path d="M31,19l-1.5,0c-0.398,0 -0.779,0.158 -1.061,0.439c-0.281,0.282 -0.439,0.663 -0.439,1.061c0,0.828 0.672,1.5 1.5,1.5l1.5,0l0,-3Z" style="fill:#343434;"/>
                <path d="M1,19l1,0c0.552,0 1,0.448 1,1c0,0.611 0,1.389 0,2c0,0.552 -0.448,1 -1,1c-0.5,0 -1,0 -1,0l0,-4Z" style="fill:#343434;"/>
                <path d="M27,24c0,-0.265 -0.105,-0.52 -0.293,-0.707c-0.187,-0.188 -0.442,-0.293 -0.707,-0.293c-4.772,0 -25,0 -25,0l0,2l25,0c0.265,0 0.52,-0.105 0.707,-0.293c0.188,-0.187 0.293,-0.442 0.293,-0.707c0,0 0,0 0,0Z" style="fill:#242424;"/>
                <path d="M28,26.5c0,-2.485 -2.015,-4.5 -4.5,-4.5c0,0 0,0 0,0c-2.485,0 -4.5,2.015 -4.5,4.5c0,0.308 0,0.5 0,0.5l9,0l0,-0.5Z" style="fill:#333;"/>
                <path d="M12,26.5c0,-2.485 -2.015,-4.5 -4.5,-4.5c0,0 0,0 0,0c-2.485,0 -4.5,2.015 -4.5,4.5c0,0.308 0,0.5 0,0.5l9,0l0,-0.5Z" style="fill:#333;"/>
            </g>
            <path d="M19,19.499c0,-0.276 -0.223,-0.499 -0.499,-0.499c-0.555,0 -1.447,0 -2.002,0c-0.276,0 -0.499,0.223 -0.499,0.499c0,0 0,0.001 0,0.001c0,0.133 0.053,0.26 0.146,0.354c0.094,0.093 0.221,0.146 0.354,0.146c0.555,0 1.445,0 2,0c0.133,0 0.26,-0.053 0.354,-0.146c0.093,-0.094 0.146,-0.221 0.146,-0.354c0,0 0,-0.001 0,-0.001Z" style="fill:#f3f3f3;"/>
            <path d="M23.7,14.33c-0.707,-1.996 -2.595,-3.33 -4.713,-3.33l-10.121,0c-1.178,0 -2.291,0.54 -3.02,1.466c0,0 -0.001,0.001 -0.001,0.001c-0.794,1.008 -1.342,2.187 -1.603,3.444c-0.026,0.124 -0.051,0.244 -0.074,0.356c-0.085,0.41 0.168,0.813 0.574,0.915c0.674,0.169 1.678,0.421 2.393,0.601c0.574,0.144 1.165,0.217 1.757,0.217c2.897,0 12.03,0 15.094,0c0.233,0 0.451,-0.113 0.585,-0.303c0.135,-0.19 0.168,-0.433 0.091,-0.652c-0.252,-0.709 -0.61,-1.721 -0.962,-2.715Z"/>
            <clipPath id="_clip3">
                <path d="M23.7,14.33c-0.707,-1.996 -2.595,-3.33 -4.713,-3.33l-10.121,0c-1.178,0 -2.291,0.54 -3.02,1.466c0,0 -0.001,0.001 -0.001,0.001c-0.794,1.008 -1.342,2.187 -1.603,3.444c-0.026,0.124 -0.051,0.244 -0.074,0.356c-0.085,0.41 0.168,0.813 0.574,0.915c0.674,0.169 1.678,0.421 2.393,0.601c0.574,0.144 1.165,0.217 1.757,0.217c2.897,0 12.03,0 15.094,0c0.233,0 0.451,-0.113 0.585,-0.303c0.135,-0.19 0.168,-0.433 0.091,-0.652c-0.252,-0.709 -0.61,-1.721 -0.962,-2.715Z"/>
            </clipPath>
            <g clip-path="url(#_clip3)">
                <path d="M11,10c0,0 -0.319,1.276 -0.597,2.387c-0.268,1.071 -0.403,2.171 -0.403,3.276c0,1.455 0,3.337 0,3.337" style="fill:none;stroke:#1a1a1a;stroke-width:2px;stroke-linejoin:round;"/>
                <path d="M18,11l0,8" style="fill:none;stroke:#1a1a1a;stroke-width:2px;stroke-linejoin:round;"/>
            </g>
            <circle cx="7.5" cy="26.5" r="3.5" style="fill:#5a5a5a;"/>
            <circle cx="23.5" cy="26.5" r="3.5" style="fill:#5a5a5a;"/>
            <circle cx="23.5" cy="26.5" r="2.5" style="fill:#bfbfbf;"/>
            <circle cx="7.5" cy="26.5" r="2.5" style="fill:#bfbfbf;"/>
            <path d="M22,18c0,-0.552 -0.448,-1 -1,-1c-0.322,0 -0.678,0 -1,0c-0.552,0 -1,0.448 -1,1c0,0.552 0.448,1 1,1c0.322,0 0.678,0 1,0c0.552,0 1,-0.448 1,-1c0,0 0,0 0,0Z" style="fill:#707070;"/>
        </g>
    </g>
</svg>
