<?xml version="1.0" encoding="UTF-8" standalone="no"?>
<!DOCTYPE svg PUBLIC "-//W3C//DTD SVG 1.1//EN" "http://www.w3.org/Graphics/SVG/1.1/DTD/svg11.dtd">
<svg width="100%" height="100%" viewBox="0 0 32 32" version="1.1" xmlns="http://www.w3.org/2000/svg" xmlns:xlink="http://www.w3.org/1999/xlink" xml:space="preserve" xmlns:serif="http://www.serif.com/" style="fill-rule:evenodd;clip-rule:evenodd;stroke-linecap:round;stroke-miterlimit:1.5;">
    <rect id="delivery_truck" x="0" y="0" width="32" height="32" style="fill:none;"/>
    <clipPath id="_clip1">
        <rect x="0" y="0" width="32" height="32"/>
    </clipPath>
    <g clip-path="url(#_clip1)">
        <g id="outline">
            <path d="M28.456,12.368c-0.272,-0.817 -1.037,-1.368 -1.898,-1.368c-1.836,0 -4.963,0 -6.558,0c-0.265,0 -0.52,0.105 -0.707,0.293c-0.188,0.187 -0.293,0.442 -0.293,0.707c0,2.26 0,7.74 0,10c0,0.552 0.448,1 1,1c1.185,0 3,0 3,0l0,4l6,0c0.552,0 1,-0.448 1,-1c0,-2.193 0,-7.334 0,-8.675c0,-0.215 -0.035,-0.429 -0.103,-0.633c-0.262,-0.786 -0.968,-2.906 -1.441,-4.324Z" style="fill:none;stroke:#000;stroke-width:4px;"/>
            <path d="M19,10c0,-0.552 -0.448,-1 -1,-1c-3.014,0 -11.986,0 -15,0c-0.552,0 -1,0.448 -1,1c0,2.727 0,10.273 0,13c0,0.552 0.448,1 1,1c3.014,0 11.986,0 15,0c0.552,0 1,-0.448 1,-1c0,-1.185 0,-3 0,-3l0,-10Z" style="fill:none;stroke:#000;stroke-width:4px;"/>
            <circle cx="6" cy="27" r="3" style="fill:#fff;stroke:#000;stroke-width:4px;"/>
            <circle cx="23" cy="27" r="3" style="fill:#fff;stroke:#000;stroke-width:4px;"/>
        </g>
        <g id="emoji">
            <path d="M19,10c0,-0.552 -0.448,-1 -1,-1c-3.014,0 -11.986,0 -15,0c-0.552,0 -1,0.448 -1,1c0,0.5 0,1 0,1l1,2l0,8.694l-1,1.306l0,0c0,0.552 0.448,1 1,1c3.014,0 11.986,0 15,0c0.552,0 1,-0.448 1,-1c0,0 0,0 0,0l-1,-3l0,-7l1,-2l0,-1Z" style="fill:#999;"/>
            <rect x="2" y="11" width="17" height="12" style="fill:#facb30;"/>
            <path d="M29.528,24l0.472,2c0,0.552 -0.448,1 -1,1l-2,0c0,0 0,0 0,0c0,-1.195 -0.524,-2.267 -1.354,-3l1.354,-0.482l2,0l0.528,0.482Zm-10.528,-2l0,0l0,-9l1.404,-1l6.596,0l1.667,1l1.23,3.692c0.068,0.204 0.103,0.418 0.103,0.633l0,4.675l-1,0.402l-8.674,0l-1.326,-0.402Z" style="fill:#736fcc;"/>
            <path d="M19,13l0,-1c0,-0.265 0.105,-0.52 0.293,-0.707c0.187,-0.188 0.442,-0.293 0.707,-0.293c1.595,0 4.722,0 6.558,0c0.861,0 1.626,0.551 1.898,1.368l0.211,0.632l-9.667,0Z" style="fill:#827fc9;"/>
            <path d="M19,22l11,0l0,1l-0.436,1l-3.918,0c-0.705,-0.622 -1.632,-1 -2.646,-1c-1.116,0 -2.232,0 -3,0c-0.265,0 -0.52,-0.105 -0.707,-0.293c-0.188,-0.187 -0.293,-0.442 -0.293,-0.707Z" style="fill:#fff;"/>
            <path d="M30,23l-0.001,0c-0.552,0 -0.999,0.447 -0.999,0.999c0,0.322 0,0.679 0,1.001c0,0.552 0.448,1 1,1c0,0 0,0 0,0l0,-3Z" style="fill:#2c2c2c;"/>
            <path d="M31,15l-1,0c-0.265,0 -0.52,0.105 -0.707,0.293c-0.188,0.187 -0.293,0.442 -0.293,0.707c0,1.11 0,2.89 0,4c0,0.265 0.105,0.52 0.293,0.707c0.187,0.188 0.442,0.293 0.707,0.293c0.5,0 1,0 1,0l0,-6Z"/>
            <path d="M28,16c0,-0.265 -0.105,-0.52 -0.293,-0.707c-0.187,-0.188 -0.442,-0.293 -0.707,-0.293c-0.871,0 -2.129,0 -3,0c-0.552,0 -1,0.448 -1,1c0,0.477 0,1.03 0,1.434c0,0.351 0.184,0.677 0.486,0.857c0.687,0.413 1.975,1.185 3,1.8c0.308,0.186 0.693,0.191 1.007,0.013c0.313,-0.178 0.507,-0.51 0.507,-0.87c0,-1.054 0,-2.355 0,-3.234Z"/>
            <circle cx="6" cy="27" r="3" style="fill:#5a5a5a;"/>
            <circle cx="23" cy="27" r="3" style="fill:#5a5a5a;"/>
            <circle cx="23" cy="27" r="1.5" style="fill:#bfbfbf;"/>
            <circle cx="6" cy="27" r="1.5" style="fill:#bfbfbf;"/>
            <path d="M10.5,17l-4,-4c0,0 0,0 -0.001,0.001c-1.06,1.06 -1.656,2.499 -1.656,3.999c0,1.5 0.596,2.939 1.656,3.999c0.001,0.001 0.001,0.001 0.001,0.001l4,-4l4,4c0,0 0,0 0.001,-0.001c1.06,-1.06 1.656,-2.499 1.656,-3.999c0,-1.5 -0.596,-2.939 -1.656,-3.999c-0.001,-0.001 -0.001,-0.001 -0.001,-0.001l-4,4Z" style="fill:#fff;"/>
        </g>
    </g>
</svg>
