<?xml version="1.0" encoding="UTF-8" standalone="no"?>
<!DOCTYPE svg PUBLIC "-//W3C//DTD SVG 1.1//EN" "http://www.w3.org/Graphics/SVG/1.1/DTD/svg11.dtd">
<svg width="100%" height="100%" viewBox="0 0 32 32" version="1.1" xmlns="http://www.w3.org/2000/svg" xmlns:xlink="http://www.w3.org/1999/xlink" xml:space="preserve" xmlns:serif="http://www.serif.com/" style="fill-rule:evenodd;clip-rule:evenodd;stroke-linecap:round;stroke-miterlimit:1.5;">
    <rect id="fire_engine" x="0" y="0" width="32" height="32" style="fill:none;"/>
    <clipPath id="_clip1">
        <rect x="0" y="0" width="32" height="32"/>
    </clipPath>
    <g clip-path="url(#_clip1)">
        <g id="outline">
            <path d="M14,12l0,-1c0,-0.552 0.448,-1 1,-1c2.637,0 9.741,0 12.172,0c0.53,0 1.039,0.211 1.414,0.586c0.261,0.261 0.567,0.567 0.828,0.828c0.375,0.375 0.586,0.884 0.586,1.414l0,14.172c0,0.552 -0.448,1 -1,1l-2.171,0c-0.412,1.165 -1.524,2 -2.829,2c-1.305,0 -2.417,-0.835 -2.829,-2l-6.171,0c0,0 -4.171,0 -4.171,0c-0.412,1.165 -1.524,2 -2.829,2c-1.305,0 -2.417,-0.835 -2.829,-2l-2.171,0c-0.552,0 -1,-0.448 -1,-1c0,-2.873 0,-11.127 0,-14c0,-0.552 0.448,-1 1,-1l11,0Z" style="fill:none;stroke:#000;stroke-width:4px;"/>
            <path d="M28,8c0,-0.552 -0.448,-1 -1,-1c-0.611,0 -1.389,0 -2,0c-0.552,0 -1,0.448 -1,1c0,0.552 0.448,1 1,1c0.611,0 1.389,0 2,0c0.552,0 1,-0.448 1,-1c0,0 0,0 0,0Z" style="fill:none;stroke:#000;stroke-width:4px;stroke-linecap:square;stroke-linejoin:round;stroke-miterlimit:3;"/>
            <path d="M23.203,6.686l-18.947,4.464l-0.459,-1.947l18.947,-4.463l0.459,1.946Z" style="fill:none;fill-rule:nonzero;stroke:#000;stroke-width:4px;stroke-linecap:butt;stroke-linejoin:round;stroke-miterlimit:1.41421;"/>
        </g>
        <g id="emoji">
            <path d="M28,8c0,-0.552 -0.448,-1 -1,-1c-0.611,0 -1.389,0 -2,0c-0.552,0 -1,0.448 -1,1c0,0.552 0.448,1 1,1c0.611,0 1.389,0 2,0c0.552,0 1,-0.448 1,-1c0,0 0,0 0,0Z" style="fill:#0e43e3;"/>
            <path d="M23.203,6.686l-18.947,4.464l-0.459,-1.947l18.947,-4.463l0.459,1.946Z" style="fill:#7f7f7f;fill-rule:nonzero;"/>
            <path d="M16,14l-2.409,-1l-10.829,0l-0.762,1l0,13c0,0.552 0.448,1 1,1c0,0 0,0 0,0l0.847,-1l8.457,0l0.696,1l3,0l0,-9l0,-5Z" style="fill:#848484;"/>
            <clipPath id="_clip2">
                <path d="M16,14l-2.409,-1l-10.829,0l-0.762,1l0,13c0,0.552 0.448,1 1,1c0,0 0,0 0,0l0.847,-1l8.457,0l0.696,1l3,0l0,-9l0,-5Z"/>
            </clipPath>
            <g clip-path="url(#_clip2)">
                <rect x="3" y="15" width="10" height="6" style="fill:#4d4d4d;"/>
            </g>
            <path d="M16,12l-13,0c-0.552,0 -1,0.448 -1,1c0,0.5 0,1 0,1l14,0l0,-2Z" style="fill:#f55959;"/>
            <path d="M13,22l-10,0l0,6l1,0l0.64,-0.692l6.604,-0.014l0.756,0.706l1,0l0,-6Z" style="fill:#ccc;"/>
            <g>
                <path d="M30,26l0,1c0,0.552 -0.448,1 -1,1l-1,0l-1.676,-0.563l-4.705,-0.058l-1.619,0.621c0,0 -3.934,0 -5,0c-0.265,0 -0.52,-0.105 -0.707,-0.293c-0.188,-0.187 -0.293,-0.442 -0.293,-0.707l0,-3l1,-1l13.568,0.218l0.554,0.303c-0.078,0.142 0.326,2.479 0.878,2.479Zm-16,-4l0,-10l1,-0.866l13,0.115l1.82,0.751c0.118,0.258 0.18,0.54 0.18,0.828l0,9.172l-1,0.733l-14,0.053l-1,-0.786Z" style="fill:#f11717;"/>
                <path d="M14,12l0,-1c0,-0.552 0.448,-1 1,-1c2.637,0 9.741,0 12.172,0c0.53,0 1.039,0.211 1.414,0.586c0.261,0.261 0.567,0.567 0.828,0.828c0.171,0.171 0.308,0.37 0.406,0.586l-15.82,0Z" style="fill:#f55959;"/>
                <path d="M30,23l-1,1l0,0l-15,0l0,-2l16,0l0,1Z" style="fill:#fff;"/>
                <path d="M30,23l-0.001,0c-0.552,0 -0.999,0.447 -0.999,0.999c0,0.322 0,0.679 0,1.001c0,0.552 0.448,1 1,1c0,0 0,0 0,0l0,-3Z" style="fill:#2c2c2c;"/>
            </g>
            <rect x="17" y="25" width="2" height="1" style="fill:#a60a0a;"/>
            <g>
                <path d="M31,13l-1,0c-0.265,0 -0.52,0.105 -0.707,0.293c-0.188,0.187 -0.293,0.442 -0.293,0.707c0,1.11 0,2.89 0,4c0,0.265 0.105,0.52 0.293,0.707c0.187,0.188 0.442,0.293 0.707,0.293c0.5,0 1,0 1,0l0,-6Z"/>
                <path d="M28,14c0,-0.265 -0.105,-0.52 -0.293,-0.707c-0.187,-0.188 -0.442,-0.293 -0.707,-0.293c-0.871,0 -2.129,0 -3,0c-0.265,0 -0.52,0.105 -0.707,0.293c-0.188,0.187 -0.293,0.442 -0.293,0.707c0,1.11 0,2.89 0,4c0,0.265 0.105,0.52 0.293,0.707c0.187,0.188 0.442,0.293 0.707,0.293c0.871,0 2.129,0 3,0c0.265,0 0.52,-0.105 0.707,-0.293c0.188,-0.187 0.293,-0.442 0.293,-0.707c0,-1.11 0,-2.89 0,-4Z"/>
                <path d="M21,14c0,-0.552 -0.448,-1 -1,-1c-0.322,0 -0.678,0 -1,0c-0.552,0 -1,0.448 -1,1c0,1.11 0,2.89 0,4c0,0.552 0.448,1 1,1c0.322,0 0.678,0 1,0c0.552,0 1,-0.448 1,-1c0,-1.11 0,-2.89 0,-4Z"/>
            </g>
            <g>
                <path d="M12,26.812c0,-1.011 -0.402,-1.981 -1.117,-2.695c-0.715,-0.715 -1.684,-1.117 -2.695,-1.117c-0.125,0 -0.251,0 -0.376,0c-1.011,0 -1.98,0.402 -2.695,1.117c-0.715,0.714 -1.117,1.684 -1.117,2.695c0,0.686 0,1.188 0,1.188l8,0l0,-1.188Z" style="fill:#333;"/>
                <circle cx="8" cy="27" r="3" style="fill:#5a5a5a;"/>
                <circle cx="8" cy="27" r="1.5" style="fill:#bfbfbf;"/>
            </g>
            <g>
                <path d="M28,26.812c0,-1.011 -0.402,-1.981 -1.117,-2.695c-0.715,-0.715 -1.684,-1.117 -2.695,-1.117c-0.125,0 -0.251,0 -0.376,0c-1.011,0 -1.98,0.402 -2.695,1.117c-0.715,0.714 -1.117,1.684 -1.117,2.695c0,0.686 0,1.188 0,1.188l8,0l0,-1.188Z" style="fill:#333;"/>
                <circle cx="24" cy="27" r="3" style="fill:#5a5a5a;"/>
                <circle cx="24" cy="27" r="1.5" style="fill:#bfbfbf;"/>
            </g>
        </g>
    </g>
</svg>
