<?xml version="1.0" encoding="UTF-8" standalone="no"?>
<!DOCTYPE svg PUBLIC "-//W3C//DTD SVG 1.1//EN" "http://www.w3.org/Graphics/SVG/1.1/DTD/svg11.dtd">
<svg width="100%" height="100%" viewBox="0 0 32 32" version="1.1" xmlns="http://www.w3.org/2000/svg" xmlns:xlink="http://www.w3.org/1999/xlink" xml:space="preserve" xmlns:serif="http://www.serif.com/" style="fill-rule:evenodd;clip-rule:evenodd;stroke-linecap:round;stroke-miterlimit:1.5;">
    <rect id="minibus" x="0" y="0" width="32" height="32" style="fill:none;"/>
    <clipPath id="_clip1">
        <rect x="0" y="0" width="32" height="32"/>
    </clipPath>
    <g clip-path="url(#_clip1)">
        <g id="outline">
            <path d="M27.32,11.969c-0.803,-1.805 -2.593,-2.969 -4.569,-2.969c-5.508,0 -16.406,0 -19.751,0c-0.265,0 -0.52,0.105 -0.707,0.293c-0.188,0.187 -0.293,0.442 -0.293,0.707c0,2.867 0,11.157 0,15c0,0.53 0.211,1.039 0.586,1.414c0.375,0.375 0.884,0.586 1.414,0.586c4.85,0 17.257,0 23,0c1.657,0 3,-1.343 3,-3c0,-1.607 0,-3.503 0,-4.727c0,-0.839 -0.176,-1.669 -0.517,-2.437c-0.545,-1.225 -1.424,-3.204 -2.163,-4.867Z" style="fill:none;stroke:#000;stroke-width:4px;"/>
            <circle cx="8" cy="27" r="3" style="fill:#fff;stroke:#000;stroke-width:4px;"/>
            <circle cx="24" cy="27" r="3" style="fill:#fff;stroke:#000;stroke-width:4px;"/>
        </g>
        <g id="emoji">
            <path d="M27.32,11.969c-0.803,-1.805 -2.593,-2.969 -4.569,-2.969c-5.508,0 -16.406,0 -19.751,0c-0.265,0 -0.52,0.105 -0.707,0.293c-0.188,0.187 -0.293,0.442 -0.293,0.707c0,2.867 0,11.157 0,15c0,0.53 0.211,1.039 0.586,1.414c0.375,0.375 0.884,0.586 1.414,0.586c4.85,0 17.257,0 23,0c1.657,0 3,-1.343 3,-3c0,-1.607 0,-3.503 0,-4.727c0,-0.839 -0.176,-1.669 -0.517,-2.437c-0.545,-1.225 -1.424,-3.204 -2.163,-4.867Z" style="fill:#e6e6e6;"/>
            <clipPath id="_clip2">
                <path d="M27.32,11.969c-0.803,-1.805 -2.593,-2.969 -4.569,-2.969c-5.508,0 -16.406,0 -19.751,0c-0.265,0 -0.52,0.105 -0.707,0.293c-0.188,0.187 -0.293,0.442 -0.293,0.707c0,2.867 0,11.157 0,15c0,0.53 0.211,1.039 0.586,1.414c0.375,0.375 0.884,0.586 1.414,0.586c4.85,0 17.257,0 23,0c1.657,0 3,-1.343 3,-3c0,-1.607 0,-3.503 0,-4.727c0,-0.839 -0.176,-1.669 -0.517,-2.437c-0.545,-1.225 -1.424,-3.204 -2.163,-4.867Z"/>
            </clipPath>
            <g clip-path="url(#_clip2)">
                <rect x="1" y="7" width="30" height="4" style="fill:#fff;"/>
                <path d="M20,23c0,-0.265 -0.105,-0.52 -0.293,-0.707c-0.187,-0.188 -0.442,-0.293 -0.707,-0.293c-3.782,0 -17,0 -17,0l0,2l17,0c0.265,0 0.52,-0.105 0.707,-0.293c0.188,-0.187 0.293,-0.442 0.293,-0.707c0,0 0,0 0,0Z" style="fill:#6e6e6e;"/>
                <path d="M30,23l-0.001,0c-0.552,0 -0.999,0.447 -0.999,0.999c0,0.322 0,0.679 0,1.001c0,0.552 0.448,1 1,1c0,0 0,0 0,0l0,-3Z" style="fill:#2c2c2c;"/>
                <path d="M30,23l-0.001,0c-0.552,0 -0.999,0.447 -0.999,0.999c0,0.322 0,0.679 0,1.001c0,0.552 0.448,1 1,1c0,0 0,0 0,0l0,-3Z" style="fill:#2c2c2c;"/>
            </g>
            <path d="M12,26.812c0,-1.011 -0.402,-1.981 -1.117,-2.695c-0.715,-0.715 -1.684,-1.117 -2.695,-1.117c-0.125,0 -0.251,0 -0.376,0c-1.011,0 -1.98,0.402 -2.695,1.117c-0.715,0.714 -1.117,1.684 -1.117,2.695c0,0.119 0,0.188 0,0.188l8,0l0,-0.188Z" style="fill:#333;"/>
            <path d="M28,26.812c0,-1.011 -0.402,-1.981 -1.117,-2.695c-0.715,-0.715 -1.684,-1.117 -2.695,-1.117c-0.125,0 -0.251,0 -0.376,0c-1.011,0 -1.98,0.402 -2.695,1.117c-0.715,0.714 -1.117,1.684 -1.117,2.695c0,0.119 0,0.188 0,0.188l8,0l0,-0.188Z" style="fill:#333;"/>
            <path d="M26.973,13.579c-0.442,-0.962 -1.403,-1.579 -2.462,-1.579c-0.175,0 -0.348,0 -0.511,0c-0.265,0 -0.52,0.105 -0.707,0.293c-0.188,0.187 -0.293,0.442 -0.293,0.707c0,1.186 0,3.139 0,4.219c0,0.459 0.312,0.859 0.757,0.97c1.194,0.299 3.49,0.873 4.604,1.151c0.154,0.039 0.317,0.004 0.441,-0.093c0.125,-0.098 0.198,-0.247 0.198,-0.405c0,-0.001 0,-0.001 0,-0.001c0,-0.554 -0.12,-1.102 -0.35,-1.605c-0.421,-0.917 -1.136,-2.477 -1.677,-3.657Z"/>
            <path d="M22,13c0,-0.552 -0.448,-1 -1,-1c-3.284,0 -13.716,0 -17,0c-0.552,0 -1,0.448 -1,1c0,1.537 0,4.463 0,6c0,0.552 0.448,1 1,1c3.284,0 13.716,0 17,0c0.552,0 1,-0.448 1,-1c0,-1.537 0,-4.463 0,-6Z"/>
            <rect x="7" y="12" width="2" height="8" style="fill:#333;"/>
            <rect x="16" y="12" width="2" height="8" style="fill:#333;"/>
            <circle cx="8" cy="27" r="3" style="fill:#5a5a5a;"/>
            <circle cx="24" cy="27" r="3" style="fill:#5a5a5a;"/>
            <circle cx="24" cy="27" r="1.5" style="fill:#bfbfbf;"/>
            <circle cx="8" cy="27" r="1.5" style="fill:#bfbfbf;"/>
        </g>
    </g>
</svg>
