<?xml version="1.0" encoding="UTF-8" standalone="no"?>
<!DOCTYPE svg PUBLIC "-//W3C//DTD SVG 1.1//EN" "http://www.w3.org/Graphics/SVG/1.1/DTD/svg11.dtd">
<svg width="100%" height="100%" viewBox="0 0 32 32" version="1.1" xmlns="http://www.w3.org/2000/svg" xmlns:xlink="http://www.w3.org/1999/xlink" xml:space="preserve" xmlns:serif="http://www.serif.com/" style="fill-rule:evenodd;clip-rule:evenodd;stroke-linecap:round;stroke-miterlimit:1.5;">
    <rect id="suv" x="0" y="0" width="32" height="32" style="fill:none;"/>
    <clipPath id="_clip1">
        <rect x="0" y="0" width="32" height="32"/>
    </clipPath>
    <g clip-path="url(#_clip1)">
        <g id="outline">
            <path d="M24.242,11.183c-0.749,-1.919 -2.598,-3.183 -4.659,-3.183c-3.353,0 -8.414,0 -11.607,0c-1.766,0 -3.324,1.159 -3.831,2.851c-0.303,1.01 -0.65,2.165 -0.975,3.247c-0.776,2.588 -1.17,5.274 -1.17,7.975l0,1.927c0,0.53 0.211,1.039 0.586,1.414c0.375,0.375 0.884,0.586 1.414,0.586c5.154,0 18.846,0 24,0c0.53,0 1.039,-0.211 1.414,-0.586c0.375,-0.375 0.586,-0.884 0.586,-1.414c0,-1.393 0,-3.222 0,-4.493c0,-0.892 -0.591,-1.676 -1.449,-1.922c-0.959,-0.275 -2.04,-0.585 -2.04,-0.585c0,0 -1.259,-3.227 -2.269,-5.817Z" style="fill:none;stroke:#000;stroke-width:4px;"/>
            <circle cx="7.5" cy="26.5" r="3.5" style="fill:#fff;stroke:#000;stroke-width:4px;"/>
            <circle cx="23.5" cy="26.5" r="3.5" style="fill:#fff;stroke:#000;stroke-width:4px;"/>
        </g>
        <g id="emoji">
            <path d="M24.242,11.183c-0.749,-1.919 -2.598,-3.183 -4.659,-3.183c-3.353,0 -8.414,0 -11.607,0c-1.766,0 -3.324,1.159 -3.831,2.851c-0.303,1.01 -0.65,2.165 -0.975,3.247c-0.776,2.588 -1.17,5.274 -1.17,7.975l0,1.927c0,0.53 0.211,1.039 0.586,1.414c0.375,0.375 0.884,0.586 1.414,0.586c5.154,0 18.846,0 24,0c0.53,0 1.039,-0.211 1.414,-0.586c0.375,-0.375 0.586,-0.884 0.586,-1.414c0,-1.393 0,-3.222 0,-4.493c0,-0.892 -0.591,-1.676 -1.449,-1.922c-0.959,-0.275 -2.04,-0.585 -2.04,-0.585c0,0 -1.259,-3.227 -2.269,-5.817Z" style="fill:#ccc;"/>
            <clipPath id="_clip2">
                <path d="M24.242,11.183c-0.749,-1.919 -2.598,-3.183 -4.659,-3.183c-3.353,0 -8.414,0 -11.607,0c-1.766,0 -3.324,1.159 -3.831,2.851c-0.303,1.01 -0.65,2.165 -0.975,3.247c-0.776,2.588 -1.17,5.274 -1.17,7.975l0,1.927c0,0.53 0.211,1.039 0.586,1.414c0.375,0.375 0.884,0.586 1.414,0.586c5.154,0 18.846,0 24,0c0.53,0 1.039,-0.211 1.414,-0.586c0.375,-0.375 0.586,-0.884 0.586,-1.414c0,-1.393 0,-3.222 0,-4.493c0,-0.892 -0.591,-1.676 -1.449,-1.922c-0.959,-0.275 -2.04,-0.585 -2.04,-0.585c0,0 -1.259,-3.227 -2.269,-5.817Z"/>
            </clipPath>
            <g clip-path="url(#_clip2)">
                <path d="M19,19.499c0,-0.276 -0.223,-0.499 -0.499,-0.499c-0.555,0 -1.447,0 -2.002,0c-0.276,0 -0.499,0.223 -0.499,0.499c0,0 0,0.001 0,0.001c0,0.133 0.053,0.26 0.146,0.354c0.094,0.093 0.221,0.146 0.354,0.146c0.555,0 1.445,0 2,0c0.133,0 0.26,-0.053 0.354,-0.146c0.093,-0.094 0.146,-0.221 0.146,-0.354c0,0 0,-0.001 0,-0.001Z" style="fill:#dbdbdb;"/>
                <rect x="1" y="7" width="30" height="3" style="fill:#f2f2f2;"/>
                <path d="M31,19l-3.382,0c-0.347,0 -0.668,0.179 -0.851,0.474c-0.182,0.295 -0.198,0.663 -0.043,0.973c0.024,0.049 0.048,0.097 0.07,0.142c0.131,0.261 0.369,0.452 0.652,0.523c1.043,0.26 3.554,0.888 3.554,0.888l0,-3Z" style="fill:#676767;"/>
                <path d="M27,24c0,-0.265 -0.105,-0.52 -0.293,-0.707c-0.187,-0.188 -0.442,-0.293 -0.707,-0.293c-4.772,0 -25,0 -25,0l0,2l25,0c0.265,0 0.52,-0.105 0.707,-0.293c0.188,-0.187 0.293,-0.442 0.293,-0.707c0,0 0,0 0,0Z" style="fill:#fff;"/>
                <path d="M28,25c0,-0.796 -0.316,-1.559 -0.879,-2.121c-0.562,-0.563 -1.325,-0.879 -2.121,-0.879c-0.965,0 -2.035,0 -3,0c-0.796,0 -1.559,0.316 -2.121,0.879c-0.563,0.562 -0.879,1.325 -0.879,2.121c0,1.063 0,2 0,2l9,0l0,-2Z" style="fill:#333;"/>
                <path d="M12,25c0,-0.796 -0.316,-1.559 -0.879,-2.121c-0.562,-0.563 -1.325,-0.879 -2.121,-0.879c-0.965,0 -2.035,0 -3,0c-0.796,0 -1.559,0.316 -2.121,0.879c-0.563,0.562 -0.879,1.325 -0.879,2.121c0,1.063 0,2 0,2l9,0l0,-2Z" style="fill:#333;"/>
            </g>
            <path d="M19,19.499c0,-0.276 -0.223,-0.499 -0.499,-0.499c-0.555,0 -1.447,0 -2.002,0c-0.276,0 -0.499,0.223 -0.499,0.499c0,0 0,0.001 0,0.001c0,0.133 0.053,0.26 0.146,0.354c0.094,0.093 0.221,0.146 0.354,0.146c0.555,0 1.445,0 2,0c0.133,0 0.26,-0.053 0.354,-0.146c0.093,-0.094 0.146,-0.221 0.146,-0.354c0,0 0,-0.001 0,-0.001Z" style="fill:#838383;"/>
            <path d="M23.143,11.918c-0.348,-1.139 -1.399,-1.918 -2.591,-1.918c-3.466,0.001 -10.493,0.002 -13.497,0.003c-0.852,0 -1.616,0.525 -1.922,1.32c-0.073,0.192 -0.148,0.388 -0.22,0.575c-0.282,0.732 -0.481,1.494 -0.595,2.27c-0.068,0.462 -0.144,0.979 -0.205,1.391c-0.066,0.452 0.182,0.892 0.604,1.068c0.54,0.226 1.296,0.542 1.947,0.814c0.882,0.369 1.828,0.559 2.784,0.559c3.384,0 11.739,0 14.584,0c0.227,0 0.441,-0.108 0.576,-0.29c0.135,-0.183 0.176,-0.418 0.109,-0.635c-0.383,-1.255 -1.076,-3.526 -1.574,-5.157Z"/>
            <clipPath id="_clip3">
                <path d="M23.143,11.918c-0.348,-1.139 -1.399,-1.918 -2.591,-1.918c-3.466,0.001 -10.493,0.002 -13.497,0.003c-0.852,0 -1.616,0.525 -1.922,1.32c-0.073,0.192 -0.148,0.388 -0.22,0.575c-0.282,0.732 -0.481,1.494 -0.595,2.27c-0.068,0.462 -0.144,0.979 -0.205,1.391c-0.066,0.452 0.182,0.892 0.604,1.068c0.54,0.226 1.296,0.542 1.947,0.814c0.882,0.369 1.828,0.559 2.784,0.559c3.384,0 11.739,0 14.584,0c0.227,0 0.441,-0.108 0.576,-0.29c0.135,-0.183 0.176,-0.418 0.109,-0.635c-0.383,-1.255 -1.076,-3.526 -1.574,-5.157Z"/>
            </clipPath>
            <g clip-path="url(#_clip3)">
                <path d="M12,9c0,0 -0.319,1.276 -0.597,2.387c-0.268,1.071 -0.403,2.172 -0.403,3.276c0,1.776 0,4.337 0,4.337" style="fill:none;stroke:#333;stroke-width:2px;stroke-linejoin:round;"/>
            </g>
            <circle cx="7.5" cy="26.5" r="3.5" style="fill:#5a5a5a;"/>
            <circle cx="23.5" cy="26.5" r="3.5" style="fill:#5a5a5a;"/>
            <circle cx="23.5" cy="26.5" r="2.5" style="fill:#bfbfbf;"/>
            <circle cx="7.5" cy="26.5" r="2.5" style="fill:#bfbfbf;"/>
            <path d="M22,18c0,-0.552 -0.448,-1 -1,-1c-0.322,0 -0.678,0 -1,0c-0.552,0 -1,0.448 -1,1c0,0.552 0.448,1 1,1c0.322,0 0.678,0 1,0c0.552,0 1,-0.448 1,-1c0,0 0,0 0,0Z" style="fill:#333;"/>
        </g>
    </g>
</svg>
