<?xml version="1.0" encoding="UTF-8" standalone="no"?><!DOCTYPE svg PUBLIC "-//W3C//DTD SVG 1.1//EN" "http://www.w3.org/Graphics/SVG/1.1/DTD/svg11.dtd"><svg width="100%" height="100%" viewBox="0 0 32 32" version="1.1" xmlns="http://www.w3.org/2000/svg" xmlns:xlink="http://www.w3.org/1999/xlink" xml:space="preserve" style="fill-rule:evenodd;clip-rule:evenodd;stroke-linejoin:round;stroke-miterlimit:1.41421;"><rect id="artist" x="0" y="0" width="32" height="32" style="fill:none;"/><clipPath id="_clip1"><rect x="0" y="0" width="32" height="32"/></clipPath><g clip-path="url(#_clip1)"><g id="outline"><rect x="14" y="9" width="16" height="23" style="fill-rule:nonzero;"/><rect x="16" y="11" width="12" height="19" style="fill:#fff;"/><clipPath id="_clip2"><rect x="16" y="11" width="12" height="19"/></clipPath><g clip-path="url(#_clip2)"><path d="M23,14c0.343,0 0.685,-0.003 1.028,0.001c0.075,0.003 0.15,0.007 0.225,0.014c0.323,0.036 0.636,0.115 0.934,0.246c0.757,0.336 1.355,0.98 1.635,1.759c0.092,0.258 0.149,0.528 0.17,0.802c0.005,0.073 0.008,0.146 0.008,0.22c0,0.065 -0.001,0.128 0.004,0.193c0.005,0.041 0.012,0.082 0.022,0.123c0.073,0.279 0.281,0.508 0.556,0.599c0.08,0.026 0.162,0.04 0.246,0.043l0.027,0l1.145,0l0,8.5l-3,0l0,-4.514c0.005,-0.198 0.031,-0.391 0.09,-0.581c0.148,-0.477 0.477,-0.889 0.91,-1.137l0,-0.398c-0.06,-0.018 -0.118,-0.039 -0.177,-0.061c-0.064,-0.026 -0.128,-0.053 -0.191,-0.082c-0.21,-0.102 -0.408,-0.224 -0.589,-0.372c-0.47,-0.386 -0.809,-0.92 -0.957,-1.51c-0.046,-0.181 -0.073,-0.366 -0.083,-0.553c-0.005,-0.107 0.001,-0.214 -0.006,-0.322c-0.004,-0.043 -0.009,-0.085 -0.017,-0.127c-0.024,-0.109 -0.061,-0.214 -0.116,-0.311c-0.127,-0.225 -0.337,-0.398 -0.583,-0.479c-0.098,-0.032 -0.2,-0.049 -0.303,-0.053l-0.032,0l-2.946,0l0,-6l2,0c0,1 0,3 0,4Z" style="fill:#a746ec;fill-rule:nonzero;"/></g><path d="M7.043,23.279c-0.167,-0.132 -0.329,-0.271 -0.486,-0.416c-0.769,-0.714 -1.395,-1.579 -1.831,-2.533c-0.326,-0.712 -0.546,-1.471 -0.652,-2.246c-0.045,-0.327 -0.067,-0.655 -0.073,-0.985c-0.005,-0.733 -0.005,-1.465 0,-2.198c0.005,-0.264 0.019,-0.527 0.048,-0.79c0.069,-0.616 0.21,-1.224 0.419,-1.808c0.431,-1.204 1.153,-2.297 2.089,-3.166c0.815,-0.757 1.787,-1.339 2.838,-1.701c0.807,-0.278 1.652,-0.42 2.506,-0.435c0.099,-0.001 0.099,-0.001 0.198,0c0.854,0.015 1.699,0.157 2.506,0.435c1.302,0.449 2.48,1.236 3.391,2.268c0.671,0.759 1.194,1.645 1.535,2.598c0.3,0.835 0.452,1.712 0.468,2.598c0.005,0.733 0.005,1.467 0,2.2c-0.005,0.296 -0.023,0.592 -0.06,0.886c-0.005,0.04 -0.01,0.079 -0.016,0.119c0.185,-0.261 0.395,-0.503 0.627,-0.724c0.495,-0.473 1.088,-0.842 1.731,-1.077c0.35,-0.128 0.715,-0.217 1.085,-0.264c0.168,-0.021 0.337,-0.032 0.506,-0.039l2.128,-0.026c0,1.679 0,3.358 0,5.038c-0.002,0.165 -0.009,0.33 -0.026,0.496c-0.037,0.372 -0.117,0.74 -0.237,1.094c-0.181,0.536 -0.455,1.04 -0.804,1.485c-0.27,0.343 -0.585,0.65 -0.933,0.911l0,7.001l-22,0c0,-0.725 -0.011,-1.45 0.002,-2.175c0.023,-0.746 0.156,-1.483 0.408,-2.186c0.523,-1.463 1.537,-2.728 2.849,-3.557c0.433,-0.273 0.897,-0.499 1.379,-0.672c0.134,-0.048 0.269,-0.092 0.405,-0.131Z"/></g><g id="emoji"><path d="M19,27c0.628,0.835 1,1.874 1,3l0,0l-1,0l-1,-1.5l1,-1.5Z" style="fill:#14300e;"/><path d="M19,30l-15,0c0,0 0,0 0,0c0,-2.47 1.791,-4.522 4.146,-4.927c0.469,1.687 7.239,1.687 7.708,0c1.282,0.22 2.396,0.929 3.146,1.927l0,3Z" style="fill:#4a905e;"/><path d="M8.146,25.073c0.277,-0.048 0.563,-0.073 0.854,-0.073c1.911,0 4.089,0 6,0c0.291,0 0.577,0.025 0.854,0.073c-0.469,1.687 -2.018,2.927 -3.854,2.927c-1.836,0 -3.385,-1.24 -3.854,-2.927Z" style="fill:#f10dc3;"/><path d="M18,15c0,-1.591 -0.632,-3.117 -1.757,-4.243c-1.126,-1.125 -2.652,-1.757 -4.243,-1.757c0,0 0,0 0,0c-1.591,0 -3.117,0.632 -4.243,1.757c-1.125,1.126 -1.757,2.652 -1.757,4.243c0,0.663 0,1.337 0,2c0,1.591 0.632,3.117 1.757,4.243c1.126,1.125 2.652,1.757 4.243,1.757c0,0 0,0 0,0c1.591,0 3.117,-0.632 4.243,-1.757c1.125,-1.126 1.757,-2.652 1.757,-4.243c0,-0.663 0,-1.337 0,-2Z" style="fill:#f10dc3;"/><clipPath id="_clip3"><path d="M18,15c0,-1.591 -0.632,-3.117 -1.757,-4.243c-1.126,-1.125 -2.652,-1.757 -4.243,-1.757c0,0 0,0 0,0c-1.591,0 -3.117,0.632 -4.243,1.757c-1.125,1.126 -1.757,2.652 -1.757,4.243c0,0.663 0,1.337 0,2c0,1.591 0.632,3.117 1.757,4.243c1.126,1.125 2.652,1.757 4.243,1.757c0,0 0,0 0,0c1.591,0 3.117,-0.632 4.243,-1.757c1.125,-1.126 1.757,-2.652 1.757,-4.243c0,-0.663 0,-1.337 0,-2Z"/></clipPath><g clip-path="url(#_clip3)"><path d="M16,15c0,-0.552 -0.448,-1 -1,-1c-0.552,0 -1,0.448 -1,1c0,0.322 0,0.678 0,1c0,0.552 0.448,1 1,1c0.552,0 1,-0.448 1,-1c0,-0.322 0,-0.678 0,-1Zm-6,0c0,-0.552 -0.448,-1 -1,-1c-0.552,0 -1,0.448 -1,1c0,0.322 0,0.678 0,1c0,0.552 0.448,1 1,1c0.552,0 1,-0.448 1,-1c0,-0.322 0,-0.678 0,-1Z"/></g><rect x="21" y="23" width="1" height="7" style="fill:#705c32;"/><path d="M24,18c0,0 0,0 0,0c-1.657,0 -3,1.343 -3,3c0,1.5 0,3 0,3c0,0 0,0 0,0c1.657,0 3,-1.343 3,-3c0,-1.5 0,-3 0,-3Z" style="fill:#bfaf91;"/><clipPath id="_clip4"><path d="M24,18c0,0 0,0 0,0c-1.657,0 -3,1.343 -3,3c0,1.5 0,3 0,3c0,0 0,0 0,0c1.657,0 3,-1.343 3,-3c0,-1.5 0,-3 0,-3Z"/></clipPath><g clip-path="url(#_clip4)"><rect x="19.5" y="17.143" width="5.25" height="3.429" style="fill:#7731a6;"/></g></g></g></svg>