<?xml version="1.0" encoding="UTF-8" standalone="no"?><!DOCTYPE svg PUBLIC "-//W3C//DTD SVG 1.1//EN" "http://www.w3.org/Graphics/SVG/1.1/DTD/svg11.dtd"><svg width="100%" height="100%" viewBox="0 0 32 32" version="1.1" xmlns="http://www.w3.org/2000/svg" xmlns:xlink="http://www.w3.org/1999/xlink" xml:space="preserve" style="fill-rule:evenodd;clip-rule:evenodd;stroke-linejoin:round;stroke-miterlimit:1.41421;"><rect id="chef" x="0" y="0" width="32" height="32" style="fill:none;"/><g id="outline"><path d="M8,12l16,0l0,3.002c0.004,0.699 0.004,1.398 -0.001,2.097c-0.006,0.363 -0.033,0.724 -0.087,1.082c-0.11,0.742 -0.326,1.467 -0.638,2.149c-0.437,0.954 -1.062,1.819 -1.831,2.533c-0.156,0.145 -0.318,0.283 -0.485,0.415c0.315,0.092 0.624,0.206 0.924,0.341c0.564,0.255 1.094,0.586 1.572,0.98c1.089,0.899 1.894,2.126 2.28,3.486c0.177,0.622 0.262,1.263 0.266,1.909l0,2.006l-20,0c0,-0.727 -0.012,-1.453 0.002,-2.18c0.026,-0.818 0.181,-1.632 0.486,-2.393c0.21,-0.523 0.477,-1.021 0.804,-1.481c0.717,-1.007 1.7,-1.817 2.826,-2.327c0.3,-0.135 0.61,-0.25 0.926,-0.341c-0.478,-0.377 -0.913,-0.808 -1.294,-1.285c-0.489,-0.611 -0.887,-1.295 -1.178,-2.022c-0.254,-0.636 -0.427,-1.305 -0.511,-1.985c-0.037,-0.294 -0.055,-0.59 -0.06,-0.887c-0.005,-0.7 -0.005,-1.399 -0.001,-2.099l0,-3Z"/></g><g id="emoji"><path d="M19.854,25.073c2.355,0.405 4.146,2.457 4.146,4.927c0,0 0,0 0,0l-16,0c0,0 0,0 0,0c0,-2.47 1.791,-4.522 4.146,-4.927c0.469,1.687 7.239,1.687 7.708,0Z" style="fill:#fff;"/><clipPath id="_clip1"><path d="M19.854,25.073c2.355,0.405 4.146,2.457 4.146,4.927c0,0 0,0 0,0l-16,0c0,0 0,0 0,0c0,-2.47 1.791,-4.522 4.146,-4.927c0.469,1.687 7.239,1.687 7.708,0Z"/></clipPath><g clip-path="url(#_clip1)"><rect x="13" y="26" width="2" height="5" style="fill:#666;"/></g><path d="M12.146,25.073c0.277,-0.048 0.563,-0.073 0.854,-0.073c1.911,0 4.089,0 6,0c0.291,0 0.577,0.025 0.854,0.073c-0.469,1.687 -2.018,2.927 -3.854,2.927c-1.836,0 -3.385,-1.24 -3.854,-2.927Z" style="fill:#740d0d;"/><path d="M22,15c0,-1.591 -0.632,-3.117 -1.757,-4.243c-1.126,-1.125 -2.652,-1.757 -4.243,-1.757c0,0 0,0 0,0c-1.591,0 -3.117,0.632 -4.243,1.757c-1.125,1.126 -1.757,2.652 -1.757,4.243c0,0.663 0,1.337 0,2c0,1.591 0.632,3.117 1.757,4.243c1.126,1.125 2.652,1.757 4.243,1.757c0,0 0,0 0,0c1.591,0 3.117,-0.632 4.243,-1.757c1.125,-1.126 1.757,-2.652 1.757,-4.243c0,-0.663 0,-1.337 0,-2Z" style="fill:#f10dc3;"/><clipPath id="_clip2"><path d="M22,15c0,-1.591 -0.632,-3.117 -1.757,-4.243c-1.126,-1.125 -2.652,-1.757 -4.243,-1.757c0,0 0,0 0,0c-1.591,0 -3.117,0.632 -4.243,1.757c-1.125,1.126 -1.757,2.652 -1.757,4.243c0,0.663 0,1.337 0,2c0,1.591 0.632,3.117 1.757,4.243c1.126,1.125 2.652,1.757 4.243,1.757c0,0 0,0 0,0c1.591,0 3.117,-0.632 4.243,-1.757c1.125,-1.126 1.757,-2.652 1.757,-4.243c0,-0.663 0,-1.337 0,-2Z"/></clipPath><g clip-path="url(#_clip2)"><path d="M20,15c0,-0.552 -0.448,-1 -1,-1c-0.552,0 -1,0.448 -1,1c0,0.322 0,0.678 0,1c0,0.552 0.448,1 1,1c0.552,0 1,-0.448 1,-1c0,-0.322 0,-0.678 0,-1Zm-6,0c0,-0.552 -0.448,-1 -1,-1c-0.552,0 -1,0.448 -1,1c0,0.322 0,0.678 0,1c0,0.552 0.448,1 1,1c0.552,0 1,-0.448 1,-1c0,-0.322 0,-0.678 0,-1Z"/></g><path d="M22.102,3.001c0.169,0.007 0.337,0.019 0.505,0.045c0.39,0.06 0.772,0.178 1.128,0.349c0.962,0.464 1.713,1.312 2.055,2.323c0.128,0.38 0.199,0.779 0.209,1.18c0.01,0.403 -0.041,0.808 -0.151,1.196c-0.133,0.468 -0.352,0.911 -0.644,1.301c-0.326,0.435 -0.737,0.793 -1.204,1.07l0,3.535l-16,0l0,-3.535c-0.08,-0.047 -0.079,-0.047 -0.157,-0.096c-0.081,-0.053 -0.081,-0.053 -0.16,-0.108c-0.129,-0.094 -0.254,-0.193 -0.373,-0.3c-0.284,-0.259 -0.531,-0.557 -0.73,-0.885c-0.238,-0.392 -0.407,-0.823 -0.499,-1.272c-0.081,-0.397 -0.102,-0.807 -0.061,-1.21c0.037,-0.364 0.124,-0.721 0.258,-1.061c0.367,-0.931 1.086,-1.704 1.987,-2.138c0.356,-0.171 0.738,-0.289 1.128,-0.349c0.168,-0.026 0.336,-0.038 0.505,-0.045c4.068,-0.052 8.136,-0.052 12.204,0Z" style="fill-rule:nonzero;"/><path d="M22,9c0,0 0,0 0,0c1.105,0 2,-0.895 2,-2c0,-1.105 -0.895,-2 -2,-2c-3.074,0 -8.926,0 -12,0c-1.105,0 -2,0.895 -2,2c0,1.105 0.895,2 2,2c0,0 0,0 0,0l0,3l12,0l0,-3Z" style="fill:#ebebeb;"/><clipPath id="_clip3"><path d="M22,9c0,0 0,0 0,0c1.105,0 2,-0.895 2,-2c0,-1.105 -0.895,-2 -2,-2c-3.074,0 -8.926,0 -12,0c-1.105,0 -2,0.895 -2,2c0,1.105 0.895,2 2,2c0,0 0,0 0,0l0,3l12,0l0,-3Z"/></clipPath><g clip-path="url(#_clip3)"><rect x="7" y="8" width="18" height="2" style="fill:#9d9d9d;"/></g></g></svg>