<?xml version="1.0" encoding="UTF-8" standalone="no"?><!DOCTYPE svg PUBLIC "-//W3C//DTD SVG 1.1//EN" "http://www.w3.org/Graphics/SVG/1.1/DTD/svg11.dtd"><svg width="100%" height="100%" viewBox="0 0 32 32" version="1.1" xmlns="http://www.w3.org/2000/svg" xmlns:xlink="http://www.w3.org/1999/xlink" xml:space="preserve" style="fill-rule:evenodd;clip-rule:evenodd;stroke-linejoin:round;stroke-miterlimit:1.41421;"><rect id="guardsperson" x="0" y="0" width="32" height="32" style="fill:none;"/><clipPath id="_clip1"><rect x="0" y="0" width="32" height="32"/></clipPath><g clip-path="url(#_clip1)"><g id="outline"><path d="M8,17l-1,0l0,-12.013c0.002,-0.166 0.009,-0.331 0.026,-0.496c0.037,-0.372 0.117,-0.74 0.237,-1.094c0.233,-0.688 0.617,-1.322 1.118,-1.847c0.499,-0.524 1.112,-0.937 1.785,-1.203c0.385,-0.151 0.789,-0.255 1.2,-0.307c0.168,-0.021 0.337,-0.032 0.506,-0.039c2.752,-0.035 5.504,-0.035 8.256,0c0.169,0.007 0.338,0.018 0.506,0.039c0.411,0.052 0.815,0.156 1.2,0.307c0.673,0.266 1.286,0.679 1.785,1.203c0.501,0.525 0.885,1.159 1.118,1.847c0.12,0.354 0.2,0.722 0.237,1.094c0.017,0.165 0.024,0.33 0.026,0.496l0,12.013l-1,0l-0.001,0.099c-0.005,0.297 -0.023,0.593 -0.06,0.887c-0.084,0.68 -0.257,1.349 -0.511,1.985c-0.279,0.697 -0.656,1.353 -1.117,1.945c-0.394,0.506 -0.849,0.965 -1.353,1.362c0.316,0.092 0.624,0.206 0.924,0.341c0.564,0.255 1.094,0.586 1.572,0.98c1.112,0.918 1.927,2.177 2.303,3.569c0.162,0.596 0.239,1.209 0.243,1.826l0,2.006l-20,0c0,-0.717 -0.012,-1.454 0.002,-2.18c0.026,-0.818 0.181,-1.632 0.486,-2.393c0.189,-0.471 0.424,-0.921 0.709,-1.342c0.723,-1.071 1.743,-1.933 2.921,-2.466c0.3,-0.135 0.609,-0.249 0.924,-0.341c-0.167,-0.131 -0.329,-0.27 -0.484,-0.415c-0.77,-0.714 -1.395,-1.579 -1.832,-2.533c-0.312,-0.682 -0.528,-1.407 -0.638,-2.149c-0.054,-0.358 -0.081,-0.719 -0.087,-1.082l-0.001,-0.099Z"/></g><g id="emoji"><path d="M15,30l-7,0c0,0 0,0 0,0c0,-2.47 1.791,-4.522 4.146,-4.927c0.191,0.686 1.425,1.094 2.854,1.221l0.5,1.675l-0.5,2.031Zm2,-3.706c1.429,-0.127 2.663,-0.535 2.854,-1.221c2.355,0.405 4.146,2.457 4.146,4.927l0,0l-7,0l-0.5,-2l0.5,-1.706Z" style="fill:#ae1e1e;"/><path d="M17,26.294l0,3.706l-2,0l0,-3.706c0.653,0.059 1.347,0.059 2,0Z" style="fill:#fff;"/><path d="M12.146,25.073c0.277,-0.048 0.563,-0.073 0.854,-0.073c1.911,0 4.089,0 6,0c0.291,0 0.577,0.025 0.854,0.073c-0.469,1.687 -2.018,2.927 -3.854,2.927c-1.836,0 -3.385,-1.24 -3.854,-2.927Z" style="fill:#323232;"/><path d="M22,15c0,-1.591 -0.632,-3.117 -1.757,-4.243c-1.126,-1.125 -2.652,-1.757 -4.243,-1.757c0,0 0,0 0,0c-1.591,0 -3.117,0.632 -4.243,1.757c-1.125,1.126 -1.757,2.652 -1.757,4.243c0,0.663 0,1.337 0,2c0,1.591 0.632,3.117 1.757,4.243c1.126,1.125 2.652,1.757 4.243,1.757c0,0 0,0 0,0c1.591,0 3.117,-0.632 4.243,-1.757c1.125,-1.126 1.757,-2.652 1.757,-4.243c0,-0.663 0,-1.337 0,-2Z" style="fill:#f10dc3;"/><clipPath id="_clip2"><path d="M22,15c0,-1.591 -0.632,-3.117 -1.757,-4.243c-1.126,-1.125 -2.652,-1.757 -4.243,-1.757c0,0 0,0 0,0c-1.591,0 -3.117,0.632 -4.243,1.757c-1.125,1.126 -1.757,2.652 -1.757,4.243c0,0.663 0,1.337 0,2c0,1.591 0.632,3.117 1.757,4.243c1.126,1.125 2.652,1.757 4.243,1.757c0,0 0,0 0,0c1.591,0 3.117,-0.632 4.243,-1.757c1.125,-1.126 1.757,-2.652 1.757,-4.243c0,-0.663 0,-1.337 0,-2Z"/></clipPath><g clip-path="url(#_clip2)"><rect x="9" y="13" width="14" height="4" style="fill:#a90eb1;"/><path d="M20,15c0,-0.552 -0.448,-1 -1,-1c-0.552,0 -1,0.448 -1,1c0,0.322 0,0.678 0,1c0,0.552 0.448,1 1,1c0.552,0 1,-0.448 1,-1c0,-0.322 0,-0.678 0,-1Zm-6,0c0,-0.552 -0.448,-1 -1,-1c-0.552,0 -1,0.448 -1,1c0,0.322 0,0.678 0,1c0,0.552 0.448,1 1,1c0.552,0 1,-0.448 1,-1c0,-0.322 0,-0.678 0,-1Z"/></g><path d="M23,5c0,-1.657 -1.343,-3 -3,-3c-2.362,0 -5.638,0 -8,0c-1.657,0 -3,1.343 -3,3c0,3.839 0,10 0,10l14,0c0,0 0,-6.161 0,-10Z" style="fill:#333;"/></g></g></svg>