<?xml version="1.0" encoding="UTF-8" standalone="no"?><!DOCTYPE svg PUBLIC "-//W3C//DTD SVG 1.1//EN" "http://www.w3.org/Graphics/SVG/1.1/DTD/svg11.dtd"><svg width="100%" height="100%" viewBox="0 0 32 32" version="1.1" xmlns="http://www.w3.org/2000/svg" xmlns:xlink="http://www.w3.org/1999/xlink" xml:space="preserve" style="fill-rule:evenodd;clip-rule:evenodd;stroke-linejoin:round;stroke-miterlimit:1.41421;"><rect id="health_worker" x="0" y="0" width="32" height="32" style="fill:none;"/><clipPath id="_clip1"><rect x="0" y="0" width="32" height="32"/></clipPath><g clip-path="url(#_clip1)"><g id="outline"><path d="M7.043,23.279c-0.141,-0.112 -0.279,-0.228 -0.412,-0.349c-0.779,-0.704 -1.415,-1.562 -1.864,-2.512c-0.32,-0.677 -0.544,-1.4 -0.664,-2.14c-0.058,-0.357 -0.089,-0.717 -0.101,-1.079c-0.014,-0.766 -0.006,-1.532 -0.001,-2.298c0.016,-0.886 0.168,-1.763 0.467,-2.598c0.409,-1.141 1.078,-2.184 1.946,-3.03c0.843,-0.822 1.867,-1.453 2.981,-1.837c0.807,-0.278 1.652,-0.42 2.506,-0.435c0.099,-0.001 0.099,-0.001 0.198,0c0.854,0.015 1.699,0.157 2.506,0.435c1.145,0.395 2.196,1.051 3.052,1.907c0.274,0.274 0.528,0.568 0.759,0.879c0.222,-0.447 0.528,-0.852 0.898,-1.188c0.388,-0.351 0.845,-0.624 1.337,-0.801c0.308,-0.11 0.629,-0.182 0.954,-0.214c0.167,-0.017 0.199,-0.015 0.358,-0.019c1.412,0 2.824,-0.031 4.235,0.004c0.175,0.013 0.219,0.013 0.393,0.039c0.322,0.048 0.639,0.136 0.94,0.261c0.484,0.2 0.928,0.496 1.298,0.867c0.417,0.417 0.739,0.925 0.938,1.48c0.11,0.308 0.182,0.629 0.214,0.954c0.017,0.167 0.015,0.199 0.019,0.358l0,5.074c-0.004,0.159 -0.002,0.191 -0.019,0.358c-0.032,0.325 -0.104,0.646 -0.214,0.954c-0.221,0.617 -0.595,1.176 -1.081,1.617c-0.388,0.351 -0.845,0.624 -1.337,0.801c-0.115,0.041 -0.231,0.076 -0.349,0.107l0,1.163l-0.004,0.161c-0.005,0.066 -0.008,0.131 -0.015,0.197c-0.019,0.195 -0.053,0.39 -0.101,0.58c-0.053,0.214 -0.125,0.423 -0.213,0.625c0.353,0.078 0.697,0.201 1.019,0.366c0.79,0.405 1.443,1.058 1.848,1.848c0.191,0.372 0.326,0.774 0.4,1.186c0.076,0.425 0.087,0.861 0.032,1.289c-0.057,0.452 -0.188,0.894 -0.386,1.305c-0.222,0.46 -0.528,0.879 -0.898,1.232c-0.371,0.354 -0.805,0.639 -1.277,0.839c-0.522,0.221 -1.088,0.335 -1.655,0.335c-0.567,0 -1.133,-0.114 -1.655,-0.335c-0.392,-0.166 -0.758,-0.391 -1.083,-0.665l-0.05,0c-0.163,-0.004 -0.196,-0.002 -0.367,-0.02c-0.201,-0.02 -0.4,-0.055 -0.595,-0.106l0,1.126l-20,0c0,-0.725 -0.011,-1.451 0.002,-2.176c0.023,-0.746 0.156,-1.482 0.408,-2.186c0.523,-1.462 1.537,-2.727 2.849,-3.556c0.434,-0.273 0.897,-0.5 1.379,-0.672c0.134,-0.048 0.269,-0.092 0.405,-0.131Zm12.357,-3.238c-0.276,0.67 -0.643,1.303 -1.089,1.875c-0.394,0.507 -0.85,0.964 -1.353,1.362c0.315,0.092 0.624,0.206 0.924,0.341c0.391,0.177 0.766,0.39 1.118,0.636l0,-0.292c0.006,-0.252 0.027,-0.5 0.077,-0.747c0.154,-0.771 0.538,-1.489 1.094,-2.045c0.14,-0.14 0.29,-0.269 0.449,-0.387c0.009,-0.007 0.018,-0.013 0.026,-0.019c-0.455,-0.164 -0.879,-0.411 -1.246,-0.724Z"/></g><g id="emoji"><path d="M8,25.1l1,2.9l-1,2l-4,0c0,0 0,0 0,0c0,-2.419 1.718,-4.437 4,-4.9Zm8,0c2.282,0.463 4,2.481 4,4.9l0,0l-4,0l-1,-2l1,-2.9Z" style="fill:#fff;"/><path d="M8,25.1c0.048,-0.01 0.097,-0.019 0.146,-0.027c0.469,1.687 7.239,1.687 7.708,0c0.049,0.008 0.098,0.017 0.146,0.027l0,4.9l-8,0l0,-4.9Z" style="fill:#40cec0;"/><path d="M8.146,25.073c0.277,-0.048 0.563,-0.073 0.854,-0.073c1.911,0 4.089,0 6,0c0.291,0 0.577,0.025 0.854,0.073c-0.469,1.687 -2.018,2.927 -3.854,2.927c-1.836,0 -3.385,-1.24 -3.854,-2.927Z" style="fill:#f10dc3;"/><path d="M18,15c0,-1.591 -0.632,-3.117 -1.757,-4.243c-1.126,-1.125 -2.652,-1.757 -4.243,-1.757c0,0 0,0 0,0c-1.591,0 -3.117,0.632 -4.243,1.757c-1.125,1.126 -1.757,2.652 -1.757,4.243c0,0.663 0,1.337 0,2c0,1.591 0.632,3.117 1.757,4.243c1.126,1.125 2.652,1.757 4.243,1.757c0,0 0,0 0,0c1.591,0 3.117,-0.632 4.243,-1.757c1.125,-1.126 1.757,-2.652 1.757,-4.243c0,-0.663 0,-1.337 0,-2Z" style="fill:#f10dc3;"/><clipPath id="_clip2"><path d="M18,15c0,-1.591 -0.632,-3.117 -1.757,-4.243c-1.126,-1.125 -2.652,-1.757 -4.243,-1.757c0,0 0,0 0,0c-1.591,0 -3.117,0.632 -4.243,1.757c-1.125,1.126 -1.757,2.652 -1.757,4.243c0,0.663 0,1.337 0,2c0,1.591 0.632,3.117 1.757,4.243c1.126,1.125 2.652,1.757 4.243,1.757c0,0 0,0 0,0c1.591,0 3.117,-0.632 4.243,-1.757c1.125,-1.126 1.757,-2.652 1.757,-4.243c0,-0.663 0,-1.337 0,-2Z"/></clipPath><g clip-path="url(#_clip2)"><path d="M16,15c0,-0.552 -0.448,-1 -1,-1c-0.552,0 -1,0.448 -1,1c0,0.322 0,0.678 0,1c0,0.552 0.448,1 1,1c0.552,0 1,-0.448 1,-1c0,-0.322 0,-0.678 0,-1Zm-6,0c0,-0.552 -0.448,-1 -1,-1c-0.552,0 -1,0.448 -1,1c0,0.322 0,0.678 0,1c0,0.552 0.448,1 1,1c0.552,0 1,-0.448 1,-1c0,-0.322 0,-0.678 0,-1Z"/></g><path d="M25,22.012c-0.006,0.26 -0.052,0.513 -0.152,0.753c-0.214,0.518 -0.646,0.929 -1.174,1.118c-0.209,0.075 -0.427,0.111 -0.649,0.117l-0.025,0c-0.024,0.996 0,1.992 0,2.987l0,0.013l0.013,0l1.987,0l0,2l-2.013,0c-0.198,-0.005 -0.392,-0.031 -0.581,-0.09c-0.558,-0.173 -1.021,-0.593 -1.249,-1.131c-0.064,-0.152 -0.109,-0.312 -0.134,-0.476c-0.014,-0.089 -0.014,-0.111 -0.021,-0.201c-0.026,-1.038 -0.002,-2.076 -0.002,-3.114c0.006,-0.26 0.052,-0.513 0.152,-0.753c0.214,-0.518 0.646,-0.929 1.174,-1.118c0.209,-0.075 0.427,-0.111 0.649,-0.117l0.025,0l0,-0.012l0,-3.988l2,0c0,1.337 0,2.675 0,4.012Z" style="fill:#4d4d4d;fill-rule:nonzero;"/><circle cx="25.75" cy="27.75" r="2.25" style="fill:#b3b3b3;"/><path d="M23.2,12l-1.188,0l-0.012,0c-0.041,1.662 0,3.325 0,4.988l0,0.012c1.329,0.033 2.658,0 3.988,0l0.012,0c0.041,-1.662 0,-3.325 0,-4.988l0,-0.012l-0.012,0l-1.188,0l0,-2l1.212,0c0.194,0.005 0.384,0.03 0.57,0.086c0.568,0.173 1.039,0.6 1.266,1.149c0.089,0.214 0.133,0.436 0.15,0.666c0.042,1.703 0.002,3.408 0.002,5.111c-0.005,0.194 -0.03,0.384 -0.086,0.57c-0.173,0.568 -0.6,1.039 -1.149,1.266c-0.213,0.089 -0.436,0.133 -0.666,0.15c-1.37,0.034 -2.741,0.002 -4.111,0.002c-0.194,-0.005 -0.384,-0.03 -0.57,-0.086c-0.568,-0.173 -1.039,-0.6 -1.266,-1.148c-0.089,-0.214 -0.133,-0.437 -0.15,-0.667c-0.042,-1.703 -0.002,-3.408 -0.002,-5.111c0.006,-0.227 0.04,-0.448 0.117,-0.662c0.2,-0.559 0.65,-1.009 1.209,-1.209c0.214,-0.077 0.435,-0.111 0.662,-0.117l1.212,0c0,0.667 0,1.333 0,2Z" style="fill:#b3b3b3;fill-rule:nonzero;"/></g></g></svg>