<?xml version="1.0" encoding="UTF-8" standalone="no"?><!DOCTYPE svg PUBLIC "-//W3C//DTD SVG 1.1//EN" "http://www.w3.org/Graphics/SVG/1.1/DTD/svg11.dtd"><svg width="100%" height="100%" viewBox="0 0 32 32" version="1.1" xmlns="http://www.w3.org/2000/svg" xmlns:xlink="http://www.w3.org/1999/xlink" xml:space="preserve" style="fill-rule:evenodd;clip-rule:evenodd;stroke-linejoin:round;stroke-miterlimit:1.41421;"><rect id="office_worker" x="0" y="0" width="32" height="32" style="fill:none;"/><clipPath id="_clip1"><rect x="0" y="0" width="32" height="32"/></clipPath><g clip-path="url(#_clip1)"><g id="outline"><rect x="14" y="9" width="16" height="23" style="fill-rule:nonzero;"/><rect x="16" y="11" width="12" height="19" style="fill:#fff;"/><path d="M27,29l-11,0l0,-1l11,0l0,1Zm0,-3l-11,0l0,-1l11,0l0,1Zm0,-3l-11,0l0,-1l11,0l0,1Zm0,-3l-11,0l0,-1l11,0l0,1Zm0,-3l-11,0l0,-1l11,0l0,1Zm0,-3l-11,0l0,-1l11,0l0,1Z" style="fill:#b4d7ec;"/><path d="M26.97,12.243l-1.97,7.88l0,1.412l-6.799,6.678l-1.402,-1.426l6.201,-6.091l0,-0.819l2.03,-8.12c0.647,0.162 1.293,0.324 1.94,0.486Z" style="fill:#00a513;fill-rule:nonzero;"/><path d="M27,22l0,2l-2.598,0l-2.524,-5.004l-2.004,2.988l-1.768,-3.537l-2,-4l1.788,-0.894l2.232,4.463l1.996,-2.976l3.512,6.96c0.455,0 0.911,0 1.366,0Z" style="fill:#e50000;fill-rule:nonzero;"/><path d="M7.043,23.279c-0.167,-0.132 -0.329,-0.271 -0.486,-0.416c-0.769,-0.714 -1.394,-1.579 -1.831,-2.533c-0.326,-0.712 -0.546,-1.471 -0.652,-2.246c-0.045,-0.327 -0.067,-0.655 -0.073,-0.985c-0.005,-0.733 -0.005,-1.465 0,-2.198c0.005,-0.264 0.019,-0.527 0.048,-0.79c0.069,-0.616 0.21,-1.224 0.419,-1.808c0.386,-1.078 1.006,-2.069 1.805,-2.889c0.869,-0.891 1.945,-1.573 3.122,-1.978c0.807,-0.278 1.652,-0.42 2.506,-0.435c0.099,-0.001 0.099,-0.001 0.198,0c0.886,0.016 1.763,0.168 2.598,0.467c1.047,0.375 2.012,0.97 2.818,1.736c0.902,0.859 1.597,1.927 2.017,3.099c0.209,0.584 0.35,1.192 0.419,1.808c0.029,0.263 0.043,0.526 0.048,0.79c0.005,0.733 0.005,1.465 0,2.198c-0.006,0.33 -0.028,0.658 -0.073,0.985c-0.088,0.646 -0.256,1.281 -0.498,1.887c-0.279,0.697 -0.656,1.353 -1.117,1.945c-0.394,0.506 -0.849,0.965 -1.353,1.362c0.316,0.092 0.624,0.206 0.924,0.341c0.564,0.255 1.094,0.586 1.572,0.98c1.134,0.937 1.959,2.228 2.325,3.653c0.147,0.569 0.217,1.154 0.221,1.742l0,2.006l-20,0c0,-0.725 -0.011,-1.45 0.002,-2.175c0.023,-0.746 0.156,-1.483 0.408,-2.186c0.523,-1.463 1.537,-2.728 2.849,-3.557c0.433,-0.273 0.897,-0.499 1.379,-0.672c0.134,-0.048 0.269,-0.092 0.405,-0.131Z"/></g><g id="emoji"><path d="M20,30c0,-2.761 -2.239,-5 -5,-5c-1.912,0 -4.091,0 -6.002,0c-1.326,0 -2.597,0.527 -3.534,1.464c-0.937,0.937 -1.464,2.208 -1.464,3.534c0,0.001 0,0.002 0,0.002l16,0c0,0 0,0 0,0Z" style="fill:#303030;"/><clipPath id="_clip2"><path d="M20,30c0,-2.761 -2.239,-5 -5,-5c-1.912,0 -4.091,0 -6.002,0c-1.326,0 -2.597,0.527 -3.534,1.464c-0.937,0.937 -1.464,2.208 -1.464,3.534c0,0.001 0,0.002 0,0.002l16,0c0,0 0,0 0,0Z"/></clipPath><g clip-path="url(#_clip2)"><rect x="9" y="26" width="6" height="4" style="fill:#fff;"/><circle cx="12" cy="24" r="4" style="fill:#f10dc3;"/></g><path d="M18,15c0,-1.591 -0.632,-3.117 -1.757,-4.243c-1.126,-1.125 -2.652,-1.757 -4.243,-1.757c0,0 0,0 0,0c-1.591,0 -3.117,0.632 -4.243,1.757c-1.125,1.126 -1.757,2.652 -1.757,4.243c0,0.663 0,1.337 0,2c0,1.591 0.632,3.117 1.757,4.243c1.126,1.125 2.652,1.757 4.243,1.757c0,0 0,0 0,0c1.591,0 3.117,-0.632 4.243,-1.757c1.125,-1.126 1.757,-2.652 1.757,-4.243c0,-0.663 0,-1.337 0,-2Z" style="fill:#f10dc3;"/><clipPath id="_clip3"><path d="M18,15c0,-1.591 -0.632,-3.117 -1.757,-4.243c-1.126,-1.125 -2.652,-1.757 -4.243,-1.757c0,0 0,0 0,0c-1.591,0 -3.117,0.632 -4.243,1.757c-1.125,1.126 -1.757,2.652 -1.757,4.243c0,0.663 0,1.337 0,2c0,1.591 0.632,3.117 1.757,4.243c1.126,1.125 2.652,1.757 4.243,1.757c0,0 0,0 0,0c1.591,0 3.117,-0.632 4.243,-1.757c1.125,-1.126 1.757,-2.652 1.757,-4.243c0,-0.663 0,-1.337 0,-2Z"/></clipPath><g clip-path="url(#_clip3)"><path d="M16,15c0,-0.552 -0.448,-1 -1,-1c-0.552,0 -1,0.448 -1,1c0,0.322 0,0.678 0,1c0,0.552 0.448,1 1,1c0.552,0 1,-0.448 1,-1c0,-0.322 0,-0.678 0,-1Zm-6,0c0,-0.552 -0.448,-1 -1,-1c-0.552,0 -1,0.448 -1,1c0,0.322 0,0.678 0,1c0,0.552 0.448,1 1,1c0.552,0 1,-0.448 1,-1c0,-0.322 0,-0.678 0,-1Z"/></g></g></g></svg>