<?xml version="1.0" encoding="UTF-8" standalone="no"?><!DOCTYPE svg PUBLIC "-//W3C//DTD SVG 1.1//EN" "http://www.w3.org/Graphics/SVG/1.1/DTD/svg11.dtd"><svg width="100%" height="100%" viewBox="0 0 32 32" version="1.1" xmlns="http://www.w3.org/2000/svg" xmlns:xlink="http://www.w3.org/1999/xlink" xml:space="preserve" style="fill-rule:evenodd;clip-rule:evenodd;stroke-linejoin:round;stroke-miterlimit:1.41421;"><rect id="singer" x="0" y="0" width="32" height="32" style="fill:none;"/><clipPath id="_clip1"><rect x="0" y="0" width="32" height="32"/></clipPath><g clip-path="url(#_clip1)"><g id="outline"><path d="M7.043,23.279c-0.142,-0.112 -0.279,-0.228 -0.413,-0.349c-0.778,-0.704 -1.414,-1.562 -1.863,-2.512c-0.32,-0.677 -0.545,-1.4 -0.664,-2.14c-0.058,-0.357 -0.089,-0.717 -0.101,-1.079c-0.014,-0.766 -0.006,-1.532 -0.001,-2.298c0.015,-0.854 0.157,-1.699 0.435,-2.506c0.384,-1.114 1.015,-2.138 1.837,-2.981c0.846,-0.867 1.889,-1.537 3.03,-1.946c0.835,-0.299 1.712,-0.451 2.598,-0.467c0.099,-0.001 0.099,-0.001 0.198,0c0.886,0.016 1.763,0.168 2.598,0.467c1.141,0.409 2.184,1.078 3.03,1.946c0.822,0.843 1.453,1.867 1.837,2.981c0.226,0.657 0.362,1.34 0.414,2.032c0.402,-0.178 0.828,-0.303 1.263,-0.37c0.209,-0.032 0.419,-0.047 0.631,-0.056c0.129,-0.001 0.128,-0.001 0.256,0c0.212,0.009 0.422,0.024 0.631,0.056c0.528,0.081 1.043,0.248 1.518,0.491c0.381,0.195 0.734,0.439 1.051,0.722l4.672,1.168l0,5.124l-1,0.25l0,10.188l-6,0l0,-8.101c-0.329,0.067 -0.664,0.101 -1,0.101c-0.667,0 -1.332,-0.134 -1.947,-0.394c-0.555,-0.235 -1.066,-0.571 -1.503,-0.987c-0.153,-0.146 -0.297,-0.302 -0.43,-0.466c-0.348,0.413 -0.738,0.79 -1.162,1.125c0.316,0.092 0.624,0.206 0.924,0.341c0.564,0.255 1.094,0.586 1.572,0.98c1.089,0.899 1.894,2.126 2.28,3.486c0.177,0.622 0.262,1.263 0.266,1.909l0,2.006l-20,0c0,-0.725 -0.012,-1.451 0.002,-2.176c0.023,-0.746 0.156,-1.482 0.408,-2.186c0.172,-0.482 0.399,-0.945 0.672,-1.379c0.829,-1.312 2.094,-2.326 3.556,-2.849c0.134,-0.048 0.269,-0.092 0.405,-0.131Z"/></g><g id="emoji"><path d="M15.854,25.073c2.355,0.405 4.146,2.457 4.146,4.927c0,0 0,0 0,0l-16,0c0,0 0,0 0,0c0,-2.47 1.791,-4.522 4.146,-4.927c0.469,1.687 7.239,1.687 7.708,0Z" style="fill:#4a905e;"/><path d="M8.146,25.073c0.277,-0.048 0.563,-0.073 0.854,-0.073c1.911,0 4.089,0 6,0c0.291,0 0.577,0.025 0.854,0.073c-0.469,1.687 -2.018,2.927 -3.854,2.927c-1.836,0 -3.385,-1.24 -3.854,-2.927Z" style="fill:#f10dc3;"/><path d="M17.126,20.118c-0.247,0.406 -0.542,0.784 -0.883,1.125c-1.126,1.125 -2.652,1.757 -4.243,1.757c0,0 0,0 0,0c-1.591,0 -3.117,-0.632 -4.243,-1.757c-1.125,-1.126 -1.757,-2.652 -1.757,-4.243c0,-0.663 0,-1.337 0,-2c0,-1.591 0.632,-3.117 1.757,-4.243c1.126,-1.125 2.652,-1.757 4.243,-1.757c0,0 0,0 0,0c1.591,0 3.117,0.632 4.243,1.757c1.125,1.126 1.757,2.652 1.757,4.243l0,1.002c-0.195,0.259 -0.901,3.997 -0.874,4.116Z" style="fill:#f10dc3;"/><path d="M18,16.002l0,0.998c0,1.109 -0.307,2.186 -0.874,3.118c-0.027,-0.119 -0.05,-0.238 -0.069,-0.359c-0.076,-0.502 -0.076,-1.016 0,-1.518c0.075,-0.488 0.223,-0.965 0.437,-1.41c0.142,-0.293 0.311,-0.57 0.506,-0.829Z" style="fill:#640082;"/><path d="M16,19c0,-1.105 -0.895,-2 -2,-2c-1.105,0 -2,0.895 -2,2c0,1.105 0.895,2 2,2c1.105,0 2,-0.895 2,-2c0,0 0,0 0,0Zm3,-4.001c0,-0.265 -0.105,-0.519 -0.293,-0.706c-0.187,-0.188 -0.441,-0.293 -0.706,-0.293c-0.611,0 -1.391,0 -2.002,0c-0.265,0 -0.519,0.105 -0.706,0.293c-0.188,0.187 -0.293,0.441 -0.293,0.706c0,0.001 0,0.001 0,0.002c0,0.265 0.105,0.519 0.293,0.706c0.187,0.188 0.441,0.293 0.706,0.293c0.611,0 1.391,0 2.002,0c0.265,0 0.519,-0.105 0.706,-0.293c0.188,-0.187 0.293,-0.441 0.293,-0.706c0,-0.001 0,-0.001 0,-0.002Zm-6,0c0,-0.265 -0.105,-0.519 -0.293,-0.706c-0.187,-0.188 -0.441,-0.293 -0.706,-0.293c-0.611,0 -1.391,0 -2.002,0c-0.265,0 -0.519,0.105 -0.706,0.293c-0.188,0.187 -0.293,0.441 -0.293,0.706c0,0.001 0,0.001 0,0.002c0,0.265 0.105,0.519 0.293,0.706c0.187,0.188 0.441,0.293 0.706,0.293c0.611,0 1.391,0 2.002,0c0.265,0 0.519,-0.105 0.706,-0.293c0.188,-0.187 0.293,-0.441 0.293,-0.706c0,-0.001 0,-0.001 0,-0.002Z"/><rect x="25" y="19" width="2" height="11" style="fill:#808080;"/><path d="M22,16.5l0,5l6,-1.5l0,-2l-6,-1.5Z" style="fill:#333;"/><circle cx="22" cy="19" r="3" style="fill:#a5a5a5;"/></g></g></svg>