<?xml version="1.0" encoding="UTF-8" standalone="no"?><!DOCTYPE svg PUBLIC "-//W3C//DTD SVG 1.1//EN" "http://www.w3.org/Graphics/SVG/1.1/DTD/svg11.dtd"><svg width="100%" height="100%" viewBox="0 0 32 32" version="1.1" xmlns="http://www.w3.org/2000/svg" xmlns:xlink="http://www.w3.org/1999/xlink" xml:space="preserve" xmlns:serif="http://www.serif.com/" style="fill-rule:evenodd;clip-rule:evenodd;stroke-linejoin:round;stroke-miterlimit:1.41421;"><rect id="crystal_ball" x="0" y="0" width="32" height="32" style="fill:none;"/><clipPath id="_clip1"><rect x="0" y="0" width="32" height="32"/></clipPath><g clip-path="url(#_clip1)"><g id="outline"><path d="M6.002,24.999l-0.005,-0.005c-1.263,-1.204 -2.307,-2.636 -3.065,-4.208c-0.648,-1.343 -1.085,-2.785 -1.291,-4.261c-0.213,-1.521 -0.185,-3.077 0.086,-4.588c0.24,-1.346 0.674,-2.657 1.282,-3.881c0.725,-1.458 1.698,-2.792 2.863,-3.93c1.167,-1.138 2.524,-2.08 4.001,-2.77c1.242,-0.58 2.567,-0.982 3.922,-1.189c0.669,-0.102 1.342,-0.153 2.018,-0.166c0.187,-0.001 0.187,-0.001 0.374,0c0.676,0.013 1.349,0.064 2.018,0.166c1.355,0.207 2.68,0.609 3.922,1.189c1.477,0.69 2.834,1.632 4.001,2.77c1.165,1.138 2.138,2.472 2.863,3.93c0.608,1.224 1.042,2.535 1.282,3.881c0.271,1.511 0.299,3.067 0.086,4.588c-0.206,1.476 -0.643,2.918 -1.291,4.261c-0.758,1.572 -1.802,3.004 -3.065,4.208l-0.005,0.005c0.835,0.628 1.466,1.514 1.777,2.515c0.149,0.478 0.219,0.973 0.225,1.473l0,3.013l-24,0l0,-3.013c0.002,-0.166 0.009,-0.331 0.026,-0.496c0.037,-0.372 0.117,-0.74 0.237,-1.094c0.323,-0.955 0.939,-1.795 1.739,-2.398Z"/></g><g id="emoji"><circle cx="16" cy="14.5" r="12.5" style="fill:#a83eff;"/><path d="M8.036,21.34c0.329,-3.003 2.873,-5.34 5.964,-5.34c1.308,0 2.692,0 4,0c3.091,0 5.635,2.337 5.964,5.34c-1.926,2.24 -4.781,3.66 -7.964,3.66c-3.183,0 -6.038,-1.42 -7.964,-3.66Zm0.18,-13.883c1.921,-2.123 4.698,-3.457 7.784,-3.457c3.086,0 5.863,1.334 7.784,3.457c-0.623,2.051 -2.529,3.543 -4.784,3.543c-1.911,0 -4.089,0 -6,0c-2.255,0 -4.161,-1.492 -4.784,-3.543Z" style="fill:#5d0d9e;"/><path d="M18.097,4.501l0.096,0.001l0.096,0.003l0.096,0.005l0.095,0.005l0.095,0.007l0.095,0.008l0.095,0.009l0.094,0.01l0.094,0.011l0.094,0.013l0.093,0.013l0.093,0.015l0.093,0.016l0.092,0.017l0.092,0.018l0.091,0.02l0.091,0.02l0.091,0.022l0.09,0.022l0.09,0.024l0.089,0.025l0.089,0.025l0.089,0.027l0.088,0.028l0.087,0.029l0.087,0.03l0.087,0.032l0.086,0.032l0.085,0.033l0.085,0.034l0.085,0.035l0.084,0.036l0.083,0.037l0.083,0.038l0.082,0.039l0.082,0.04l0.081,0.041l0.081,0.042l0.08,0.043l0.079,0.044l0.079,0.045l0.078,0.045l0.078,0.047l0.077,0.047l0.077,0.048l0.075,0.05l0.075,0.05l0.075,0.051l0.074,0.052l0.073,0.052l0.072,0.054l0.072,0.054l0.071,0.055l0.071,0.056l0.069,0.057l0.069,0.058l0.069,0.058l0.067,0.06l0.067,0.06l0.066,0.061l0.066,0.061l0.064,0.063l0.064,0.063l0.063,0.064l0.063,0.064l0.061,0.066l0.061,0.066l0.06,0.067l0.06,0.067l0.058,0.069l0.058,0.069l0.057,0.069l0.056,0.071l0.055,0.071l0.054,0.072l0.054,0.072l0.053,0.073l0.051,0.074l0.051,0.075l0.05,0.075l0.05,0.075l0.048,0.077l0.047,0.077l0.047,0.078l0.045,0.078l0.045,0.079l0.044,0.079l0.043,0.08l0.042,0.081l0.041,0.081l0.04,0.082l0.039,0.082l0.038,0.083l0.037,0.083l0.036,0.084l0.035,0.085l0.034,0.085l0.033,0.085l0.032,0.086l0.032,0.087l0.03,0.087l0.029,0.087l0.028,0.088l0.027,0.089l0.025,0.089l0.025,0.089l0.024,0.09l0.022,0.09l0.022,0.091l0.02,0.091l0.02,0.091l0.018,0.092l0.017,0.092l0.016,0.093l0.015,0.093l0.013,0.093l0.013,0.094l0.011,0.094l0.01,0.094l0.009,0.095l0.008,0.095l0.007,0.095l0.005,0.095l0.005,0.096l0.003,0.096l0.001,0.096l0.001,0.097l-0.001,0.06l-0.004,0.059l-0.006,0.06l-0.008,0.059l-0.011,0.058l-0.012,0.059l-0.016,0.057l-0.017,0.057l-0.02,0.056l-0.022,0.056l-0.024,0.054l-0.027,0.054l-0.028,0.052l-0.031,0.052l-0.032,0.05l-0.035,0.048l-0.036,0.048l-0.038,0.045l-0.04,0.045l-0.042,0.042l-0.043,0.041l-0.045,0.039l-0.047,0.038l-0.048,0.035l-0.049,0.033l-0.051,0.032l-0.052,0.029l-0.053,0.028l-0.054,0.025l-0.055,0.023l-0.056,0.021l-0.056,0.019l-0.058,0.016l-0.058,0.014l-0.058,0.012l-0.059,0.009l-0.059,0.008l-0.06,0.004l-0.059,0.003l-0.06,0l-0.059,-0.003l-0.06,-0.004l-0.059,-0.008l-0.059,-0.009l-0.058,-0.012l-0.058,-0.014l-0.058,-0.016l-0.056,-0.019l-0.056,-0.021l-0.055,-0.023l-0.054,-0.025l-0.053,-0.028l-0.052,-0.029l-0.051,-0.032l-0.049,-0.033l-0.048,-0.035l-0.047,-0.038l-0.045,-0.039l-0.043,-0.041l-0.042,-0.042l-0.04,-0.045l-0.038,-0.045l-0.036,-0.048l-0.035,-0.048l-0.032,-0.05l-0.031,-0.052l-0.028,-0.052l-0.027,-0.054l-0.024,-0.054l-0.022,-0.056l-0.02,-0.056l-0.017,-0.057l-0.016,-0.057l-0.012,-0.059l-0.011,-0.058l-0.008,-0.059l-0.006,-0.06l-0.004,-0.059l-0.001,-0.06l0,0.005l0,-0.064l-0.002,-0.058l-0.001,-0.058l-0.003,-0.058l-0.003,-0.057l-0.004,-0.058l-0.005,-0.057l-0.005,-0.057l-0.006,-0.057l-0.007,-0.056l-0.008,-0.056l-0.008,-0.056l-0.009,-0.056l-0.009,-0.055l-0.011,-0.056l-0.01,-0.055l-0.012,-0.054l-0.012,-0.055l-0.013,-0.054l-0.014,-0.054l-0.014,-0.053l-0.015,-0.054l-0.015,-0.053l-0.016,-0.053l-0.017,-0.052l-0.017,-0.053l-0.018,-0.052l-0.019,-0.051l-0.019,-0.052l-0.02,-0.051l-0.02,-0.051l-0.021,-0.05l-0.022,-0.05l-0.022,-0.05l-0.023,-0.05l-0.023,-0.049l-0.024,-0.049l-0.024,-0.049l-0.026,-0.048l-0.025,-0.048l-0.027,-0.048l-0.026,-0.047l-0.028,-0.047l-0.028,-0.046l-0.028,-0.047l-0.029,-0.045l-0.03,-0.046l-0.03,-0.045l-0.03,-0.045l-0.031,-0.044l-0.032,-0.044l-0.032,-0.044l-0.033,-0.043l-0.033,-0.043l-0.034,-0.042l-0.034,-0.042l-0.035,-0.041l-0.035,-0.041l-0.036,-0.041l-0.036,-0.04l-0.036,-0.04l-0.037,-0.04l-0.038,-0.038l-0.038,-0.039l-0.039,-0.038l-0.039,-0.038l-0.039,-0.037l-0.04,-0.036l-0.04,-0.036l-0.041,-0.036l-0.041,-0.035l-0.041,-0.035l-0.042,-0.034l-0.042,-0.034l-0.043,-0.033l-0.043,-0.033l-0.044,-0.032l-0.044,-0.032l-0.044,-0.031l-0.045,-0.03l-0.045,-0.03l-0.046,-0.03l-0.046,-0.029l-0.046,-0.028l-0.046,-0.028l-0.047,-0.028l-0.047,-0.026l-0.048,-0.027l-0.048,-0.025l-0.048,-0.025l-0.049,-0.025l-0.049,-0.024l-0.049,-0.023l-0.05,-0.023l-0.05,-0.022l-0.05,-0.022l-0.05,-0.021l-0.051,-0.02l-0.051,-0.02l-0.052,-0.019l-0.051,-0.019l-0.052,-0.018l-0.053,-0.017l-0.052,-0.017l-0.053,-0.016l-0.053,-0.015l-0.054,-0.015l-0.053,-0.014l-0.054,-0.014l-0.054,-0.013l-0.055,-0.012l-0.055,-0.012l-0.054,-0.01l-0.056,-0.011l-0.055,-0.009l-0.056,-0.009l-0.056,-0.008l-0.056,-0.008l-0.056,-0.007l-0.057,-0.006l-0.057,-0.005l-0.057,-0.005l-0.058,-0.004l-0.057,-0.003l-0.058,-0.003l-0.058,-0.001l-0.058,-0.002l-0.064,0l0.005,0l-0.06,-0.001l-0.059,-0.004l-0.06,-0.006l-0.059,-0.008l-0.058,-0.011l-0.059,-0.012l-0.057,-0.016l-0.057,-0.017l-0.056,-0.02l-0.056,-0.022l-0.054,-0.024l-0.054,-0.027l-0.052,-0.028l-0.052,-0.031l-0.05,-0.032l-0.048,-0.035l-0.048,-0.036l-0.045,-0.038l-0.045,-0.04l-0.042,-0.042l-0.041,-0.043l-0.039,-0.045l-0.038,-0.047l-0.035,-0.048l-0.033,-0.049l-0.032,-0.051l-0.029,-0.052l-0.028,-0.053l-0.025,-0.054l-0.023,-0.055l-0.021,-0.056l-0.019,-0.056l-0.016,-0.058l-0.014,-0.058l-0.012,-0.058l-0.009,-0.059l-0.008,-0.059l-0.004,-0.06l-0.003,-0.059l0,-0.06l0.003,-0.059l0.004,-0.06l0.008,-0.059l0.009,-0.059l0.012,-0.058l0.014,-0.058l0.016,-0.058l0.019,-0.056l0.021,-0.056l0.023,-0.055l0.025,-0.054l0.028,-0.053l0.029,-0.052l0.032,-0.051l0.033,-0.049l0.035,-0.048l0.038,-0.047l0.039,-0.045l0.041,-0.043l0.042,-0.042l0.045,-0.04l0.045,-0.038l0.048,-0.036l0.048,-0.035l0.05,-0.032l0.052,-0.031l0.052,-0.028l0.054,-0.027l0.054,-0.024l0.056,-0.022l0.056,-0.02l0.057,-0.017l0.057,-0.016l0.059,-0.012l0.058,-0.011l0.059,-0.008l0.06,-0.006l0.059,-0.004l0.06,-0.001l0.097,0.001Z" style="fill:#e0baff;"/><path d="M25.829,28c0.111,0.313 0.171,0.649 0.171,1l0,1l-20,0c0,0 0,-0.426 0,-1c0,-0.351 0.06,-0.687 0.171,-1l9.829,-1l9.829,1Zm-2.829,-3l0,2l-14,0l0,-2l14,0Z" style="fill:#737373;"/><path d="M23,26c0,0 0,0 0,0c1.306,0 2.417,0.835 2.829,2l-19.658,0c0.412,-1.165 1.523,-2 2.829,-2l14,0Z" style="fill:#585858;"/></g></g></svg>