<?xml version="1.0" encoding="UTF-8" standalone="no"?><!DOCTYPE svg PUBLIC "-//W3C//DTD SVG 1.1//EN" "http://www.w3.org/Graphics/SVG/1.1/DTD/svg11.dtd"><svg width="100%" height="100%" viewBox="0 0 32 32" version="1.1" xmlns="http://www.w3.org/2000/svg" xmlns:xlink="http://www.w3.org/1999/xlink" xml:space="preserve" xmlns:serif="http://www.serif.com/" style="fill-rule:evenodd;clip-rule:evenodd;stroke-linejoin:round;stroke-miterlimit:1.41421;"><rect id="norse_rune_stones" x="0" y="0" width="32" height="32" style="fill:none;"/><clipPath id="_clip1"><rect x="0" y="0" width="32" height="32"/></clipPath><g clip-path="url(#_clip1)"><g id="outline"><path d="M13.739,24.373c-0.869,0.432 -1.738,0.863 -2.605,1.296c-0.358,0.174 -0.723,0.327 -1.102,0.449c-0.953,0.307 -1.964,0.429 -2.963,0.359c-0.985,-0.07 -1.955,-0.326 -2.847,-0.751c-1.698,-0.812 -3.131,-2.249 -3.796,-4.025c-0.181,-0.484 -0.306,-0.989 -0.372,-1.503c-0.03,-0.235 -0.045,-0.47 -0.053,-0.707c-0.028,-2.575 -0.024,-5.15 0,-7.725c0.011,-0.438 0.072,-0.871 0.193,-1.291c0.269,-0.936 0.813,-1.784 1.552,-2.418c0.289,-0.247 0.605,-0.457 0.94,-0.635c1.34,-0.685 2.727,-1.282 4.037,-2.022c0.07,-0.041 0.134,-0.089 0.193,-0.145c1.34,-1.312 2.654,-2.653 3.98,-3.98c0.102,-0.097 0.206,-0.189 0.319,-0.272c0.314,-0.233 0.674,-0.404 1.054,-0.499c0.192,-0.048 0.385,-0.072 0.583,-0.087c0.149,-0.003 0.148,-0.003 0.296,0c0.198,0.015 0.391,0.039 0.583,0.087c0.38,0.095 0.74,0.266 1.054,0.499c0.113,0.083 0.217,0.175 0.319,0.272l3.441,3.441c0.17,0.175 0.33,0.357 0.474,0.552c0.387,0.522 0.67,1.12 0.829,1.749c0.09,-0.007 0.18,-0.012 0.271,-0.016c0.997,-0.012 1.995,-0.007 2.993,0c0.297,0.005 0.593,0.022 0.888,0.055c0.693,0.077 1.378,0.236 2.035,0.471c1.072,0.384 2.069,0.973 2.922,1.727c1.162,1.025 2.048,2.35 2.553,3.815c0.215,0.625 0.361,1.274 0.434,1.931c0.033,0.295 0.05,0.591 0.055,0.888c0.022,3.322 0.001,6.643 0.001,9.965c-0.003,0.195 -0.012,0.388 -0.036,0.582c-0.052,0.439 -0.164,0.871 -0.33,1.281c-0.239,0.591 -0.592,1.134 -1.035,1.593c-0.483,0.5 -1.07,0.898 -1.715,1.16c-0.453,0.185 -0.933,0.302 -1.421,0.347c-0.44,0.041 -0.885,0.024 -1.321,-0.052c-0.196,-0.034 -0.388,-0.083 -0.58,-0.137c-2.472,-0.783 -4.927,-1.621 -7.381,-2.459c-0.437,-0.156 -0.856,-0.356 -1.248,-0.606c-0.343,-0.219 -0.659,-0.473 -0.953,-0.754c-0.512,-0.504 -1.016,-1.016 -1.524,-1.524c-0.199,-0.203 -0.383,-0.418 -0.547,-0.651c-0.059,-0.085 -0.116,-0.171 -0.17,-0.26Z"/></g><g id="emoji"><path d="M9.934,24.022c-2.413,1.035 -5.243,0.342 -6.901,-1.731c-0.001,0 -0.001,-0.001 -0.001,-0.001c-0.668,-0.835 -1.032,-1.873 -1.032,-2.942c0,-2.011 0,-5.396 0,-7.494c0,-1.136 0.642,-2.175 1.658,-2.683c1.329,-0.664 3.099,-1.549 3.907,-1.953c0.288,-0.144 0.551,-0.334 0.779,-0.562c0.812,-0.812 2.86,-2.86 3.949,-3.949c0.187,-0.187 0.442,-0.293 0.707,-0.293c0.265,0 0.52,0.106 0.707,0.293c0.897,0.897 2.443,2.443 3.414,3.414c0.402,0.402 0.678,0.905 0.803,1.449c-0.193,0.101 -8.028,16.267 -7.99,16.452Z" style="fill:#666;"/><path d="M17.924,7.57c0.05,0.219 0.076,0.445 0.076,0.673c0,2.295 0,7.212 0,9.903c0,1.136 -0.642,2.175 -1.658,2.683c-1.569,0.784 -3.988,1.994 -6.093,3.047c-0.104,0.052 -0.209,0.1 -0.315,0.146c-0.038,-0.185 -0.066,-0.371 -0.084,-0.559c-0.041,-0.44 -0.023,-0.885 0.053,-1.321c0.034,-0.196 0.083,-0.388 0.137,-0.58c0.906,-2.859 1.895,-5.691 2.843,-8.537c0.143,-0.407 0.326,-0.795 0.564,-1.155c0.16,-0.243 0.342,-0.467 0.538,-0.681c0.897,-0.924 1.82,-1.823 2.731,-2.733c0.203,-0.199 0.418,-0.383 0.651,-0.547c0.178,-0.125 0.364,-0.238 0.557,-0.339Z" style="fill:#333;"/><path d="M13.583,11.674l0.417,1.326l-1.784,2.01l-1.98,0.99l1.407,0.704l0.357,1.296l-1,0.618l-2,-1l0,2.382l-2,0l0,-11.145l0.423,-0.262l6.16,3.081Zm-4.583,2.708l2.764,-1.382l-2.764,-1.382c0,0.921 0,1.843 0,2.764Z" style="fill:#fbc546;"/><path d="M11.643,16.704l3.699,1.849l-0.895,1.789l-3.447,-1.724c0.213,-0.639 0.428,-1.277 0.643,-1.914Zm1.94,-5.03l1.917,0.958l0,0.736l-3.284,1.642c0.224,-0.661 0.447,-1.323 0.667,-1.985c0.143,-0.407 0.326,-0.795 0.564,-1.155c0.044,-0.067 0.089,-0.132 0.136,-0.196Z" style="fill:#af7c03;"/><path d="M15,21.757c0,0.796 0.316,1.559 0.879,2.122c0.464,0.464 1.025,1.025 1.453,1.453c0.439,0.439 0.975,0.77 1.564,0.967c1.5,0.5 4.608,1.536 7.155,2.385c0.915,0.305 1.921,0.151 2.703,-0.413c0.782,-0.563 1.246,-1.469 1.246,-2.433c0,-2.806 0,-6.576 0,-9.838c0,-1.856 -0.737,-3.637 -2.05,-4.95c-1.313,-1.312 -3.093,-2.05 -4.95,-2.05c-1.057,0 -2.034,0 -2.757,0c-0.796,0 -1.559,0.316 -2.122,0.879c-0.666,0.666 -1.576,1.576 -2.242,2.242c-0.563,0.563 -0.879,1.326 -0.879,2.122c0,1.921 0,5.593 0,7.514Z" style="fill:#666;"/><path d="M22.5,14.086l2.5,-2.5l1.414,1.414l-2.5,2.5l2.5,2.5l-2.5,2.5l2.5,2.5l-1.414,1.414l-2.5,-2.5l-2.5,2.5l-1.414,-1.414l2.5,-2.5l-2.5,-2.5l2.5,-2.5l-2.5,-2.5l1.414,-1.414l2.5,2.5Zm-1.086,3.914l1.086,1.086l1.086,-1.086l-1.086,-1.086l-1.086,1.086Z" style="fill:#fbc546;"/></g></g></svg>