<?xml version="1.0" encoding="UTF-8" standalone="no"?><!DOCTYPE svg PUBLIC "-//W3C//DTD SVG 1.1//EN" "http://www.w3.org/Graphics/SVG/1.1/DTD/svg11.dtd"><svg width="100%" height="100%" viewBox="0 0 32 32" version="1.1" xmlns="http://www.w3.org/2000/svg" xmlns:xlink="http://www.w3.org/1999/xlink" xml:space="preserve" xmlns:serif="http://www.serif.com/" style="fill-rule:evenodd;clip-rule:evenodd;stroke-linecap:square;stroke-linejoin:round;stroke-miterlimit:1.41421;"><rect id="spellbook" x="0" y="0" width="32" height="32" style="fill:none;"/><clipPath id="_clip1"><rect x="0" y="0" width="32" height="32"/></clipPath><g clip-path="url(#_clip1)"><g id="outline"><path d="M26,2c0,0 -10.163,0 -16,0c-1.061,0 -2.078,0.421 -2.828,1.172c-0.751,0.75 -1.172,1.767 -1.172,2.828c0,5.322 0,14.678 0,20c0,1.061 0.421,2.078 1.172,2.828c0.75,0.751 1.767,1.172 2.828,1.172c5.837,0 16,0 16,0l0,-28Z"/><path d="M28,32l-18.012,0l-0.137,-0.002c-0.198,-0.007 -0.394,-0.019 -0.591,-0.044c-0.486,-0.06 -0.964,-0.18 -1.42,-0.356c-0.733,-0.283 -1.408,-0.71 -1.976,-1.251c-0.677,-0.644 -1.198,-1.445 -1.513,-2.324c-0.148,-0.415 -0.251,-0.846 -0.305,-1.283c-0.025,-0.197 -0.037,-0.393 -0.044,-0.591c-0.086,-6.72 -0.002,-13.441 -0.002,-20.162c0.002,-0.194 0.01,-0.387 0.029,-0.58c0.049,-0.487 0.157,-0.969 0.322,-1.43c0.332,-0.926 0.893,-1.765 1.622,-2.425c0.617,-0.559 1.351,-0.987 2.142,-1.248c0.419,-0.139 0.853,-0.231 1.292,-0.275c0.193,-0.019 0.387,-0.027 0.581,-0.029l18.012,0l0,32Z" style="fill-rule:nonzero;"/></g><g id="emoji"><path d="M26,2c0,0 -10.645,0 -14,0l-1,1c0,3.541 0,15.459 0,19l1,1c2.727,0 10.273,0 13,0l1,-1c0,-4.175 0,-20 0,-20Z" style="fill:#7f522f;"/><path d="M6,21.008l0.001,-0.083c0.011,-0.295 -0.125,-2.111 0.999,-2.925c0.681,-0.493 0.926,-0.997 1,-1c1.025,-0.013 1.975,1 3,1l0,8l-5,0l0,-4.992Zm0,-9.008l0,-0.994c0.004,-0.348 0.058,-0.69 0.176,-1.018c0.283,-0.791 0.531,-2.955 0.824,-2.988c0.074,-0.006 2.975,1 4,1l0,8l-2,1c-0.163,0.002 -2.568,-0.324 -3,0l0,-5l0,0Zm5,-6l-2,1c-0.163,0.002 -2.601,-0.299 -3,0.001l0,-1.001c0,-1.061 0.421,-2.078 1.172,-2.828c0.75,-0.751 1.767,-1.172 2.828,-1.172c0,0 0,0 0.001,0l0.999,0.999c0,1.185 0,3.001 0,3.001Z" style="fill:#523825;"/><path d="M11,16l0,2c-1.025,0 -1.05,-0.012 -2.075,0.001c-0.074,0.003 -0.147,0.007 -0.221,0.014c-0.318,0.035 -0.627,0.113 -0.919,0.242c-0.768,0.341 -1.369,1.003 -1.633,1.801c-0.093,0.281 -0.14,0.572 -0.151,0.867l-0.001,0.083l0,-4.008c0.432,-0.324 0.916,-0.577 1.429,-0.747c0.349,-0.115 0.711,-0.192 1.077,-0.229c0.162,-0.016 0.325,-0.022 0.488,-0.024l2.006,0Zm0,-10l0,2c-1.025,0 -1.05,-0.012 -2.075,0.001c-0.074,0.003 -0.147,0.007 -0.222,0.014c-0.293,0.033 -0.578,0.1 -0.851,0.213c-0.776,0.322 -1.393,0.969 -1.676,1.76c-0.118,0.328 -0.172,0.67 -0.176,1.018l0,0.994l0,0l0,-4.999c0.399,-0.3 0.843,-0.54 1.314,-0.708c0.385,-0.138 0.786,-0.228 1.192,-0.269c0.162,-0.016 0.325,-0.022 0.488,-0.024l2.006,0Z" style="fill:#2e1f15;"/><rect x="10" y="2" width="2" height="21" style="fill:#2e1f15;"/><path d="M26,22c0,0 -10.163,0 -16,0c-1.061,0 -2.078,0.421 -2.828,1.172c-0.751,0.75 -1.172,1.767 -1.172,2.828c0,0 0,0 0,0c0,2.209 1.791,4 4,4c5.837,0 16,0 16,0l0,-8Z" style="fill:#2e1f15;"/><path d="M26,24c0,0 -11.31,0 -16,0c-0.53,0 -1.039,0.211 -1.414,0.586c-0.375,0.375 -0.586,0.884 -0.586,1.414c0,0 0,0 0,0c0,0.53 0.211,1.039 0.586,1.414c0.375,0.375 0.884,0.586 1.414,0.586c4.69,0 16,0 16,0l0,-4Z" style="fill:#fff;"/><circle cx="19" cy="11" r="6" style="fill:#2e1f15;"/><circle cx="19" cy="11" r="4" style="fill:#7f522f;"/><circle cx="19" cy="11" r="5" style="fill:none;"/><clipPath id="_clip2"><circle cx="19" cy="11" r="5"/></clipPath><g clip-path="url(#_clip2)"><path d="M19.004,6l-2.944,9.06l7.707,-5.6l-9.526,0l7.706,5.6l-2.943,-9.06Z" style="fill:none;stroke:#2e1f15;stroke-width:1.5px;"/></g></g></g></svg>