<?xml version="1.0" encoding="UTF-8" standalone="no"?><!DOCTYPE svg PUBLIC "-//W3C//DTD SVG 1.1//EN" "http://www.w3.org/Graphics/SVG/1.1/DTD/svg11.dtd"><svg width="100%" height="100%" viewBox="0 0 32 32" version="1.1" xmlns="http://www.w3.org/2000/svg" xmlns:xlink="http://www.w3.org/1999/xlink" xml:space="preserve" xmlns:serif="http://www.serif.com/" style="fill-rule:evenodd;clip-rule:evenodd;stroke-linecap:round;stroke-linejoin:round;stroke-miterlimit:1.5;"><rect id="tarot_wand" x="0" y="0" width="32" height="32" style="fill:none;"/><clipPath id="_clip1"><rect x="0" y="0" width="32" height="32"/></clipPath><g clip-path="url(#_clip1)"><g id="outline"><path d="M25,3c0,-0.265 -0.105,-0.52 -0.293,-0.707c-0.187,-0.188 -0.442,-0.293 -0.707,-0.293c-3.151,0 -12.849,0 -16,0c-0.265,0 -0.52,0.105 -0.707,0.293c-0.188,0.187 -0.293,0.442 -0.293,0.707c0,4.355 0,21.645 0,26c0,0.265 0.105,0.52 0.293,0.707c0.187,0.188 0.442,0.293 0.707,0.293c3.151,0 12.849,0 16,0c0.265,0 0.52,-0.105 0.707,-0.293c0.188,-0.187 0.293,-0.442 0.293,-0.707c0,-4.355 0,-21.645 0,-26Z" style="stroke:#000;stroke-width:4px;"/></g><g id="emoji"><path d="M25,3c0,-0.265 -0.105,-0.52 -0.293,-0.707c-0.187,-0.188 -0.442,-0.293 -0.707,-0.293c-3.151,0 -12.849,0 -16,0c-0.265,0 -0.52,0.105 -0.707,0.293c-0.188,0.187 -0.293,0.442 -0.293,0.707c0,4.355 0,21.645 0,26c0,0.265 0.105,0.52 0.293,0.707c0.187,0.188 0.442,0.293 0.707,0.293c3.151,0 12.849,0 16,0c0.265,0 0.52,-0.105 0.707,-0.293c0.188,-0.187 0.293,-0.442 0.293,-0.707c0,-4.355 0,-21.645 0,-26Z" style="fill:#fff;"/><g><path d="M24,3l-16,0l0,9l1,1l14,0l1,-1l0,-9Z" style="fill:#e886be;"/><rect x="8" y="12" width="16" height="17" style="fill:#f9c54a;"/></g><g><path d="M15,6l0,20l1,1l1,0l1,-2l0,-9l1,-2l0,-2l-1,-2l0,-5l-2,0l-1,1Z" style="fill:#e03923;"/><rect x="14" y="5" width="2" height="22" style="fill:#f3624f;"/></g></g></g></svg>