<?xml version="1.0" encoding="UTF-8" standalone="no"?><!DOCTYPE svg PUBLIC "-//W3C//DTD SVG 1.1//EN" "http://www.w3.org/Graphics/SVG/1.1/DTD/svg11.dtd"><svg width="100%" height="100%" viewBox="0 0 32 32" version="1.1" xmlns="http://www.w3.org/2000/svg" xmlns:xlink="http://www.w3.org/1999/xlink" xml:space="preserve" xmlns:serif="http://www.serif.com/" style="fill-rule:evenodd;clip-rule:evenodd;stroke-linecap:round;stroke-linejoin:round;stroke-miterlimit:1.5;"><rect id="tarot_cup" x="0" y="0" width="32" height="32" style="fill:none;"/><clipPath id="_clip1"><rect x="0" y="0" width="32" height="32"/></clipPath><g clip-path="url(#_clip1)"><g id="outline"><path d="M25,3c0,-0.265 -0.105,-0.52 -0.293,-0.707c-0.187,-0.188 -0.442,-0.293 -0.707,-0.293c-3.151,0 -12.849,0 -16,0c-0.265,0 -0.52,0.105 -0.707,0.293c-0.188,0.187 -0.293,0.442 -0.293,0.707c0,4.355 0,21.645 0,26c0,0.265 0.105,0.52 0.293,0.707c0.187,0.188 0.442,0.293 0.707,0.293c3.151,0 12.849,0 16,0c0.265,0 0.52,-0.105 0.707,-0.293c0.188,-0.187 0.293,-0.442 0.293,-0.707c0,-4.355 0,-21.645 0,-26Z" style="stroke:#000;stroke-width:4px;"/></g><g id="emoji"><path d="M25,3c0,-0.265 -0.105,-0.52 -0.293,-0.707c-0.187,-0.188 -0.442,-0.293 -0.707,-0.293c-3.151,0 -12.849,0 -16,0c-0.265,0 -0.52,0.105 -0.707,0.293c-0.188,0.187 -0.293,0.442 -0.293,0.707c0,4.355 0,21.645 0,26c0,0.265 0.105,0.52 0.293,0.707c0.187,0.188 0.442,0.293 0.707,0.293c3.151,0 12.849,0 16,0c0.265,0 0.52,-0.105 0.707,-0.293c0.188,-0.187 0.293,-0.442 0.293,-0.707c0,-4.355 0,-21.645 0,-26Z" style="fill:#fff;"/><path d="M24,3l-16,0l0,18l1,1l14,0l1,-1l0,-18Z" style="fill:#98ffff;"/><rect x="8" y="21" width="16" height="8" style="fill:#59d3ff;"/><path d="M15,18l-3,6l8,0l-3,-6l-2,0Z" style="fill:#1db36b;"/><path d="M16,18l-1,6l5,0l-3,-6l-1,0Z" style="fill:#1ca060;"/><path d="M10,10c0,0 0,1.874 0,4c0,3.314 2.686,6 6,6c0,0 0,0 0,0c3.314,0 6,-2.686 6,-6c0,-2.126 0,-4 0,-4l-12,0Z" style="fill:#1ca060;"/><rect x="10" y="10" width="12" height="2" style="fill:#14ca72;"/></g></g></svg>