<?xml version="1.0" encoding="UTF-8" standalone="no"?><!DOCTYPE svg PUBLIC "-//W3C//DTD SVG 1.1//EN" "http://www.w3.org/Graphics/SVG/1.1/DTD/svg11.dtd"><svg width="100%" height="100%" viewBox="0 0 32 32" version="1.1" xmlns="http://www.w3.org/2000/svg" xmlns:xlink="http://www.w3.org/1999/xlink" xml:space="preserve" xmlns:serif="http://www.serif.com/" style="fill-rule:evenodd;clip-rule:evenodd;stroke-linecap:round;stroke-linejoin:round;stroke-miterlimit:1.5;"><rect id="tarot_pentacle" x="0" y="0" width="32" height="32" style="fill:none;"/><clipPath id="_clip1"><rect x="0" y="0" width="32" height="32"/></clipPath><g clip-path="url(#_clip1)"><g id="outline"><path d="M25,3c0,-0.265 -0.105,-0.52 -0.293,-0.707c-0.187,-0.188 -0.442,-0.293 -0.707,-0.293c-3.151,0 -12.849,0 -16,0c-0.265,0 -0.52,0.105 -0.707,0.293c-0.188,0.187 -0.293,0.442 -0.293,0.707c0,4.355 0,21.645 0,26c0,0.265 0.105,0.52 0.293,0.707c0.187,0.188 0.442,0.293 0.707,0.293c3.151,0 12.849,0 16,0c0.265,0 0.52,-0.105 0.707,-0.293c0.188,-0.187 0.293,-0.442 0.293,-0.707c0,-4.355 0,-21.645 0,-26Z" style="stroke:#000;stroke-width:4px;"/></g><g id="emoji"><path d="M25,3c0,-0.265 -0.105,-0.52 -0.293,-0.707c-0.187,-0.188 -0.442,-0.293 -0.707,-0.293c-3.151,0 -12.849,0 -16,0c-0.265,0 -0.52,0.105 -0.707,0.293c-0.188,0.187 -0.293,0.442 -0.293,0.707c0,4.355 0,21.645 0,26c0,0.265 0.105,0.52 0.293,0.707c0.187,0.188 0.442,0.293 0.707,0.293c3.151,0 12.849,0 16,0c0.265,0 0.52,-0.105 0.707,-0.293c0.188,-0.187 0.293,-0.442 0.293,-0.707c0,-4.355 0,-21.645 0,-26Z" style="fill:#fff;"/><g><path d="M8,9.625l0,-6.625l16,0l0,8.667l-1,2.333l-14,0l-1,-4.375Z" style="fill:#d0c30b;"/><path d="M24,11.667l0,17.333l-16,0l0,-19.375l1,-0.625l5,3l6,-3l4,2.667Z" style="fill:#459238;"/></g><circle cx="16" cy="16" r="5" style="fill:#d29700;"/><path d="M16.09,9.001l0.09,0.001l0.089,0.003l0.09,0.004l0.089,0.005l0.088,0.006l0.089,0.008l0.088,0.008l0.088,0.01l0.088,0.01l0.087,0.012l0.088,0.013l0.086,0.013l0.087,0.015l0.086,0.016l0.086,0.017l0.085,0.018l0.085,0.019l0.085,0.021l0.084,0.021l0.084,0.022l0.083,0.023l0.083,0.024l0.083,0.025l0.082,0.026l0.081,0.028l0.082,0.028l0.08,0.029l0.081,0.03l0.086,0.033l0.152,0.062l0.156,0.069l0.155,0.072l0.152,0.075l0.15,0.079l0.147,0.083l0.146,0.086l0.143,0.09l0.141,0.092l0.138,0.096l0.136,0.099l0.133,0.103l0.131,0.105l0.128,0.108l0.125,0.111l0.123,0.115l0.12,0.117l0.117,0.12l0.115,0.123l0.111,0.125l0.108,0.128l0.105,0.131l0.103,0.133l0.099,0.136l0.096,0.138l0.092,0.141l0.09,0.143l0.086,0.146l0.083,0.147l0.079,0.15l0.075,0.152l0.072,0.155l0.069,0.156l0.062,0.152l0.033,0.086l0.03,0.081l0.029,0.08l0.028,0.082l0.028,0.081l0.026,0.082l0.025,0.083l0.024,0.083l0.023,0.083l0.022,0.084l0.021,0.084l0.021,0.085l0.019,0.085l0.018,0.085l0.017,0.086l0.016,0.086l0.015,0.087l0.013,0.086l0.013,0.088l0.012,0.087l0.01,0.088l0.01,0.088l0.008,0.088l0.008,0.089l0.006,0.088l0.005,0.089l0.004,0.09l0.003,0.089l0.001,0.09l0.001,0.09l-0.001,0.09l-0.001,0.09l-0.003,0.089l-0.004,0.09l-0.005,0.089l-0.006,0.088l-0.008,0.089l-0.008,0.088l-0.01,0.088l-0.01,0.088l-0.012,0.087l-0.013,0.088l-0.013,0.086l-0.015,0.087l-0.016,0.086l-0.017,0.086l-0.018,0.085l-0.019,0.085l-0.021,0.085l-0.021,0.084l-0.022,0.084l-0.023,0.083l-0.024,0.083l-0.025,0.083l-0.026,0.082l-0.028,0.081l-0.028,0.082l-0.029,0.08l-0.03,0.081l-0.033,0.086l-0.062,0.152l-0.069,0.156l-0.072,0.155l-0.075,0.152l-0.079,0.15l-0.083,0.147l-0.086,0.146l-0.09,0.143l-0.092,0.141l-0.096,0.138l-0.099,0.136l-0.103,0.133l-0.105,0.131l-0.108,0.128l-0.111,0.125l-0.115,0.123l-0.117,0.12l-0.12,0.117l-0.123,0.115l-0.125,0.111l-0.128,0.108l-0.131,0.105l-0.133,0.103l-0.136,0.099l-0.138,0.096l-0.141,0.092l-0.143,0.09l-0.146,0.086l-0.147,0.083l-0.15,0.079l-0.152,0.075l-0.155,0.072l-0.156,0.069l-0.152,0.062l-0.086,0.033l-0.081,0.03l-0.08,0.029l-0.082,0.028l-0.081,0.028l-0.082,0.026l-0.083,0.025l-0.083,0.024l-0.083,0.023l-0.084,0.022l-0.084,0.021l-0.085,0.021l-0.085,0.019l-0.085,0.018l-0.086,0.017l-0.086,0.016l-0.087,0.015l-0.086,0.013l-0.088,0.013l-0.087,0.012l-0.088,0.01l-0.088,0.01l-0.088,0.008l-0.089,0.008l-0.088,0.006l-0.089,0.005l-0.09,0.004l-0.089,0.003l-0.09,0.001l-0.09,0.001l-0.09,-0.001l-0.09,-0.001l-0.089,-0.003l-0.09,-0.004l-0.089,-0.005l-0.088,-0.006l-0.089,-0.008l-0.088,-0.008l-0.088,-0.01l-0.088,-0.01l-0.087,-0.012l-0.088,-0.013l-0.086,-0.013l-0.087,-0.015l-0.086,-0.016l-0.086,-0.017l-0.085,-0.018l-0.085,-0.019l-0.085,-0.021l-0.084,-0.021l-0.084,-0.022l-0.083,-0.023l-0.083,-0.024l-0.083,-0.025l-0.082,-0.026l-0.081,-0.028l-0.082,-0.028l-0.08,-0.029l-0.081,-0.03l-0.086,-0.033l-0.152,-0.062l-0.156,-0.069l-0.155,-0.072l-0.152,-0.075l-0.15,-0.079l-0.147,-0.083l-0.146,-0.086l-0.143,-0.09l-0.141,-0.092l-0.138,-0.096l-0.136,-0.099l-0.133,-0.103l-0.131,-0.105l-0.128,-0.108l-0.125,-0.111l-0.123,-0.115l-0.12,-0.117l-0.117,-0.12l-0.115,-0.123l-0.111,-0.125l-0.108,-0.128l-0.105,-0.131l-0.103,-0.133l-0.099,-0.136l-0.096,-0.138l-0.092,-0.141l-0.09,-0.143l-0.086,-0.146l-0.083,-0.147l-0.079,-0.15l-0.075,-0.152l-0.072,-0.155l-0.069,-0.156l-0.062,-0.152l-0.033,-0.086l-0.03,-0.081l-0.029,-0.08l-0.028,-0.082l-0.028,-0.081l-0.026,-0.082l-0.025,-0.083l-0.024,-0.083l-0.023,-0.083l-0.022,-0.084l-0.021,-0.084l-0.021,-0.085l-0.019,-0.085l-0.018,-0.085l-0.017,-0.086l-0.016,-0.086l-0.015,-0.087l-0.013,-0.086l-0.013,-0.088l-0.012,-0.087l-0.01,-0.088l-0.01,-0.088l-0.008,-0.088l-0.008,-0.089l-0.006,-0.088l-0.005,-0.089l-0.004,-0.09l-0.003,-0.089l-0.001,-0.09l-0.001,-0.09l0.001,-0.09l0.001,-0.09l0.003,-0.089l0.004,-0.09l0.005,-0.089l0.006,-0.088l0.008,-0.089l0.008,-0.088l0.01,-0.088l0.01,-0.088l0.012,-0.087l0.013,-0.088l0.013,-0.086l0.015,-0.087l0.016,-0.086l0.017,-0.086l0.018,-0.085l0.019,-0.085l0.021,-0.085l0.021,-0.084l0.022,-0.084l0.023,-0.083l0.024,-0.083l0.025,-0.083l0.026,-0.082l0.028,-0.081l0.028,-0.082l0.029,-0.08l0.03,-0.081l0.033,-0.086l0.062,-0.152l0.069,-0.156l0.072,-0.155l0.075,-0.152l0.079,-0.15l0.083,-0.147l0.086,-0.146l0.09,-0.143l0.092,-0.141l0.096,-0.138l0.099,-0.136l0.103,-0.133l0.105,-0.131l0.108,-0.128l0.111,-0.125l0.115,-0.123l0.117,-0.12l0.12,-0.117l0.123,-0.115l0.125,-0.111l0.128,-0.108l0.131,-0.105l0.133,-0.103l0.136,-0.099l0.138,-0.096l0.141,-0.092l0.143,-0.09l0.146,-0.086l0.147,-0.083l0.15,-0.079l0.152,-0.075l0.155,-0.072l0.156,-0.069l0.152,-0.062l0.086,-0.033l0.081,-0.03l0.08,-0.029l0.082,-0.028l0.081,-0.028l0.082,-0.026l0.083,-0.025l0.083,-0.024l0.083,-0.023l0.084,-0.022l0.084,-0.021l0.085,-0.021l0.085,-0.019l0.085,-0.018l0.086,-0.017l0.086,-0.016l0.087,-0.015l0.086,-0.013l0.088,-0.013l0.087,-0.012l0.088,-0.01l0.088,-0.01l0.088,-0.008l0.089,-0.008l0.088,-0.006l0.089,-0.005l0.09,-0.004l0.089,-0.003l0.09,-0.001l0.09,-0.001l0.09,0.001Zm-0.155,1.999l-0.064,0.002l-0.064,0.002l-0.064,0.003l-0.064,0.003l-0.063,0.005l-0.064,0.005l-0.063,0.006l-0.063,0.007l-0.062,0.007l-0.063,0.009l-0.062,0.009l-0.062,0.01l-0.062,0.01l-0.061,0.012l-0.061,0.012l-0.061,0.013l-0.061,0.013l-0.06,0.014l-0.06,0.016l-0.06,0.015l-0.059,0.017l-0.059,0.017l-0.059,0.018l-0.059,0.019l-0.058,0.019l-0.058,0.02l-0.057,0.021l-0.058,0.021l-0.057,0.022l-0.112,0.046l-0.112,0.049l-0.11,0.051l-0.108,0.054l-0.107,0.057l-0.106,0.059l-0.104,0.061l-0.102,0.064l-0.101,0.066l-0.099,0.069l-0.097,0.071l-0.095,0.073l-0.094,0.075l-0.091,0.078l-0.09,0.08l-0.088,0.081l-0.086,0.084l-0.084,0.086l-0.081,0.088l-0.08,0.09l-0.078,0.091l-0.075,0.094l-0.073,0.095l-0.071,0.097l-0.069,0.099l-0.066,0.101l-0.064,0.102l-0.061,0.104l-0.059,0.106l-0.057,0.107l-0.054,0.108l-0.051,0.11l-0.049,0.112l-0.046,0.112l-0.022,0.057l-0.021,0.058l-0.021,0.057l-0.02,0.058l-0.019,0.058l-0.019,0.059l-0.018,0.059l-0.017,0.059l-0.017,0.059l-0.015,0.06l-0.016,0.06l-0.014,0.06l-0.013,0.061l-0.013,0.061l-0.012,0.061l-0.012,0.061l-0.01,0.062l-0.01,0.062l-0.009,0.062l-0.009,0.063l-0.007,0.062l-0.007,0.063l-0.006,0.063l-0.005,0.064l-0.005,0.063l-0.003,0.064l-0.003,0.064l-0.002,0.064l-0.002,0.064l0,0.065l0,0.065l0.002,0.064l0.002,0.064l0.003,0.064l0.003,0.064l0.005,0.063l0.005,0.064l0.006,0.063l0.007,0.063l0.007,0.062l0.009,0.063l0.009,0.062l0.01,0.062l0.01,0.062l0.012,0.061l0.012,0.061l0.013,0.061l0.013,0.061l0.014,0.06l0.016,0.06l0.015,0.06l0.017,0.059l0.017,0.059l0.018,0.059l0.019,0.059l0.019,0.058l0.02,0.058l0.021,0.057l0.021,0.058l0.022,0.057l0.046,0.112l0.049,0.112l0.051,0.11l0.054,0.108l0.057,0.107l0.059,0.106l0.061,0.104l0.064,0.102l0.066,0.101l0.069,0.099l0.071,0.097l0.073,0.095l0.075,0.094l0.078,0.091l0.08,0.09l0.081,0.088l0.084,0.086l0.086,0.084l0.088,0.081l0.09,0.08l0.091,0.078l0.094,0.075l0.095,0.073l0.097,0.071l0.099,0.069l0.101,0.066l0.102,0.064l0.104,0.061l0.106,0.059l0.107,0.057l0.108,0.054l0.11,0.051l0.112,0.049l0.112,0.046l0.057,0.022l0.058,0.021l0.057,0.021l0.058,0.02l0.058,0.019l0.059,0.019l0.059,0.018l0.059,0.017l0.059,0.017l0.06,0.015l0.06,0.016l0.06,0.014l0.061,0.013l0.061,0.013l0.061,0.012l0.061,0.012l0.062,0.01l0.062,0.01l0.062,0.009l0.063,0.009l0.062,0.007l0.063,0.007l0.063,0.006l0.064,0.005l0.063,0.005l0.064,0.003l0.064,0.003l0.064,0.002l0.064,0.002l0.065,0l0.065,0l0.064,-0.002l0.064,-0.002l0.064,-0.003l0.064,-0.003l0.063,-0.005l0.064,-0.005l0.063,-0.006l0.063,-0.007l0.062,-0.007l0.063,-0.009l0.062,-0.009l0.062,-0.01l0.062,-0.01l0.061,-0.012l0.061,-0.012l0.061,-0.013l0.061,-0.013l0.06,-0.014l0.06,-0.016l0.06,-0.015l0.059,-0.017l0.059,-0.017l0.059,-0.018l0.059,-0.019l0.058,-0.019l0.058,-0.02l0.057,-0.021l0.058,-0.021l0.057,-0.022l0.112,-0.046l0.112,-0.049l0.11,-0.051l0.108,-0.054l0.107,-0.057l0.106,-0.059l0.104,-0.061l0.102,-0.064l0.101,-0.066l0.099,-0.069l0.097,-0.071l0.095,-0.073l0.094,-0.075l0.091,-0.078l0.09,-0.08l0.088,-0.081l0.086,-0.084l0.084,-0.086l0.081,-0.088l0.08,-0.09l0.078,-0.091l0.075,-0.094l0.073,-0.095l0.071,-0.097l0.069,-0.099l0.066,-0.101l0.064,-0.102l0.061,-0.104l0.059,-0.106l0.057,-0.107l0.054,-0.108l0.051,-0.11l0.049,-0.112l0.046,-0.112l0.022,-0.057l0.021,-0.058l0.021,-0.057l0.02,-0.058l0.019,-0.058l0.019,-0.059l0.018,-0.059l0.017,-0.059l0.017,-0.059l0.015,-0.06l0.016,-0.06l0.014,-0.06l0.013,-0.061l0.013,-0.061l0.012,-0.061l0.012,-0.061l0.01,-0.062l0.01,-0.062l0.009,-0.062l0.009,-0.063l0.007,-0.062l0.007,-0.063l0.006,-0.063l0.005,-0.064l0.005,-0.063l0.003,-0.064l0.003,-0.064l0.002,-0.064l0.002,-0.064l0,-0.065l0,-0.065l-0.002,-0.064l-0.002,-0.064l-0.003,-0.064l-0.003,-0.064l-0.005,-0.063l-0.005,-0.064l-0.006,-0.063l-0.007,-0.063l-0.007,-0.062l-0.009,-0.063l-0.009,-0.062l-0.01,-0.062l-0.01,-0.062l-0.012,-0.061l-0.012,-0.061l-0.013,-0.061l-0.013,-0.061l-0.014,-0.06l-0.016,-0.06l-0.015,-0.06l-0.017,-0.059l-0.017,-0.059l-0.018,-0.059l-0.019,-0.059l-0.019,-0.058l-0.02,-0.058l-0.021,-0.057l-0.021,-0.058l-0.022,-0.057l-0.046,-0.112l-0.049,-0.112l-0.051,-0.11l-0.054,-0.108l-0.057,-0.107l-0.059,-0.106l-0.061,-0.104l-0.064,-0.102l-0.066,-0.101l-0.069,-0.099l-0.071,-0.097l-0.073,-0.095l-0.075,-0.094l-0.078,-0.091l-0.08,-0.09l-0.081,-0.088l-0.084,-0.086l-0.086,-0.084l-0.088,-0.081l-0.09,-0.08l-0.091,-0.078l-0.094,-0.075l-0.095,-0.073l-0.097,-0.071l-0.099,-0.069l-0.101,-0.066l-0.102,-0.064l-0.104,-0.061l-0.106,-0.059l-0.107,-0.057l-0.108,-0.054l-0.11,-0.051l-0.112,-0.049l-0.112,-0.046l-0.057,-0.022l-0.058,-0.021l-0.057,-0.021l-0.058,-0.02l-0.058,-0.019l-0.059,-0.019l-0.059,-0.018l-0.059,-0.017l-0.059,-0.017l-0.06,-0.015l-0.06,-0.016l-0.06,-0.014l-0.061,-0.013l-0.061,-0.013l-0.061,-0.012l-0.061,-0.012l-0.062,-0.01l-0.062,-0.01l-0.062,-0.009l-0.063,-0.009l-0.062,-0.007l-0.063,-0.007l-0.063,-0.006l-0.064,-0.005l-0.063,-0.005l-0.064,-0.003l-0.064,-0.003l-0.064,-0.002l-0.064,-0.002l-0.065,0l-0.065,0Z" style="fill:#ffdc30;"/><path d="M16.004,11l-2.944,9.06l7.707,-5.6l-9.526,0l7.706,5.6l-2.943,-9.06Z" style="fill:none;stroke:#ffdc30;stroke-width:2px;stroke-linecap:square;stroke-miterlimit:1.41421;"/></g><rect x="15" y="15" width="2" height="2" style="fill:#ffdc30;"/></g></svg>