<?xml version="1.0" encoding="UTF-8" standalone="no"?><!DOCTYPE svg PUBLIC "-//W3C//DTD SVG 1.1//EN" "http://www.w3.org/Graphics/SVG/1.1/DTD/svg11.dtd"><svg width="100%" height="100%" viewBox="0 0 32 32" version="1.1" xmlns="http://www.w3.org/2000/svg" xmlns:xlink="http://www.w3.org/1999/xlink" xml:space="preserve" xmlns:serif="http://www.serif.com/" style="fill-rule:evenodd;clip-rule:evenodd;stroke-linejoin:round;stroke-miterlimit:1.41421;"><rect id="acceptable" x="0" y="0" width="32" height="32" style="fill:none;"/><g id="outline"><circle cx="16" cy="16" r="16"/></g><g id="emoji"><circle cx="16" cy="16" r="14" style="fill:#ef9b00;"/><path d="M21.204,21.568l0,-11.866l-13.489,0l0,-1.797l17.315,0l0,1.797l-1.739,0l0,11.789c0,1.275 -0.148,2.058 -0.445,2.348c-0.296,0.289 -1.069,0.434 -2.319,0.434c-0.734,0 -1.797,-0.025 -3.188,-0.077l-0.097,-1.701c1.714,0.065 2.699,0.097 2.957,0.097c0.489,0 0.779,-0.048 0.869,-0.145c0.091,-0.096 0.136,-0.39 0.136,-0.879Zm-9.663,-3.479l5.121,0l0,-4.676l-5.121,0l0,4.676Zm0,1.604l0,1.546l-2.087,0l0,-9.411l9.237,0l0,7.865l-7.15,0Z" style="fill:#fff;fill-rule:nonzero;"/></g></svg>