<?xml version="1.0" encoding="UTF-8" standalone="no"?><!DOCTYPE svg PUBLIC "-//W3C//DTD SVG 1.1//EN" "http://www.w3.org/Graphics/SVG/1.1/DTD/svg11.dtd"><svg width="100%" height="100%" viewBox="0 0 32 32" version="1.1" xmlns="http://www.w3.org/2000/svg" xmlns:xlink="http://www.w3.org/1999/xlink" xml:space="preserve" xmlns:serif="http://www.serif.com/" style="fill-rule:evenodd;clip-rule:evenodd;stroke-linejoin:round;stroke-miterlimit:1.41421;"><rect id="bargain" x="0" y="0" width="32" height="32" style="fill:none;"/><clipPath id="_clip1"><rect x="0" y="0" width="32" height="32"/></clipPath><g clip-path="url(#_clip1)"><g id="outline"><circle cx="16" cy="16" r="16"/></g><g id="emoji"><circle cx="16" cy="16" r="14" style="fill:#e8272e;"/><path d="M20.707,16.537l-8.283,0l0,-1.541l12.25,0l0,1.541l-1.849,0l0,1.02l1.926,0l0,1.734l-1.926,0l0,2.254c0,0.577 -0.019,1.017 -0.057,1.319c-0.039,0.302 -0.103,0.575 -0.193,0.818c-0.09,0.244 -0.257,0.411 -0.501,0.501c-0.244,0.09 -0.526,0.154 -0.847,0.193c-0.321,0.038 -0.777,0.058 -1.368,0.058c-0.539,0 -1.252,-0.026 -2.138,-0.077l-0.077,-1.734c0.771,0.052 1.393,0.077 1.868,0.077c0.591,0 0.938,-0.048 1.041,-0.144c0.102,-0.097 0.154,-0.414 0.154,-0.954l0,-2.311l-5.49,0c0.899,0.809 1.792,1.721 2.678,2.735l-1.349,1.271c-0.924,-1.053 -1.932,-2.061 -3.024,-3.024l1.021,-0.982l-2.196,0l0,-1.734l8.36,0l0,-1.02Zm-7.397,-8.86l10.401,0l0,6.51l-8.436,0l-1.965,0l0,-6.51Zm-5.489,4.796l-0.79,-1.695c0.925,-0.565 1.718,-1.146 2.379,-1.744c0.661,-0.597 1.287,-1.306 1.878,-2.128l1.56,0.925c-0.706,0.988 -1.448,1.842 -2.225,2.561c-0.776,0.719 -1.711,1.413 -2.802,2.081Zm7.454,-2.177l6.356,0l0,-1.021l-6.356,0l0,1.021Zm0,1.425l0,1.079l6.356,0l0,-1.079l-6.356,0Zm-4.392,3.756l0,9.111l-2.022,0l0,-7.358c-0.501,0.578 -1.008,1.066 -1.522,1.464l-0.597,-2.042c0.989,-0.732 1.827,-1.476 2.514,-2.234c0.687,-0.758 1.345,-1.669 1.974,-2.735l1.58,0.963c-0.527,1.014 -1.169,1.958 -1.927,2.831Z" style="fill:#fff;fill-rule:nonzero;"/></g></g></svg>