<?xml version="1.0" encoding="UTF-8" standalone="no"?><!DOCTYPE svg PUBLIC "-//W3C//DTD SVG 1.1//EN" "http://www.w3.org/Graphics/SVG/1.1/DTD/svg11.dtd"><svg width="100%" height="100%" viewBox="0 0 32 32" version="1.1" xmlns="http://www.w3.org/2000/svg" xmlns:xlink="http://www.w3.org/1999/xlink" xml:space="preserve" xmlns:serif="http://www.serif.com/" style="fill-rule:evenodd;clip-rule:evenodd;stroke-linejoin:round;stroke-miterlimit:1.41421;"><rect id="blood_type_o" x="0" y="0" width="32" height="32" style="fill:none;"/><clipPath id="_clip1"><rect x="0" y="0" width="32" height="32"/></clipPath><g clip-path="url(#_clip1)"><g id="outline"><path d="M32,8c0,-4.418 -3.582,-8 -8,-8c-4.887,0 -11.113,0 -16,0c-4.418,0 -8,3.582 -8,8c0,4.887 0,11.113 0,16c0,4.418 3.582,8 8,8c4.887,0 11.113,0 16,0c4.418,0 8,-3.582 8,-8c0,-4.887 0,-11.113 0,-16Z"/></g><g id="emoji"><path d="M30,8c0,-1.591 -0.632,-3.117 -1.757,-4.243c-1.126,-1.125 -2.652,-1.757 -4.243,-1.757c-4.724,0 -11.276,0 -16,0c-1.591,0 -3.117,0.632 -4.243,1.757c-1.125,1.126 -1.757,2.652 -1.757,4.243c0,4.724 0,11.276 0,16c0,1.591 0.632,3.117 1.757,4.243c1.126,1.125 2.652,1.757 4.243,1.757c4.724,0 11.276,0 16,0c1.591,0 3.117,-0.632 4.243,-1.757c1.125,-1.126 1.757,-2.652 1.757,-4.243c0,-4.724 0,-11.276 0,-16Z" style="fill:#e8272e;"/><path d="M10.483,23.304c-1.305,-1.321 -1.957,-3.295 -1.957,-5.921l0,-2.818c0,-2.626 0.665,-4.6 1.996,-5.922c1.33,-1.321 3.169,-1.982 5.517,-1.982c2.313,0 4.131,0.661 5.452,1.982c1.322,1.322 1.983,3.296 1.983,5.922l0,2.818c0,2.608 -0.674,4.578 -2.022,5.908c-1.348,1.331 -3.187,1.996 -5.517,1.996c-2.331,0 -4.148,-0.661 -5.452,-1.983Zm9.574,-5.974l0,-2.582c0,-3.391 -1.34,-5.087 -4.018,-5.087c-1.374,0 -2.396,0.417 -3.065,1.252c-0.67,0.835 -1.004,2.113 -1.004,3.835l0,2.582c0,1.653 0.334,2.879 1.004,3.679c0.669,0.8 1.691,1.2 3.065,1.2c2.678,0 4.018,-1.626 4.018,-4.879Z" style="fill:#fff;fill-rule:nonzero;"/></g></g></svg>