<?xml version="1.0" encoding="UTF-8" standalone="no"?><!DOCTYPE svg PUBLIC "-//W3C//DTD SVG 1.1//EN" "http://www.w3.org/Graphics/SVG/1.1/DTD/svg11.dtd"><svg width="100%" height="100%" viewBox="0 0 32 32" version="1.1" xmlns="http://www.w3.org/2000/svg" xmlns:xlink="http://www.w3.org/1999/xlink" xml:space="preserve" xmlns:serif="http://www.serif.com/" style="fill-rule:evenodd;clip-rule:evenodd;stroke-linejoin:round;stroke-miterlimit:1.41421;"><rect id="congratulations" x="0" y="0" width="32" height="32" style="fill:none;"/><g id="outline"><circle cx="16" cy="16" r="16"/></g><g id="emoji"><circle cx="16" cy="16" r="14" style="fill:#e8272e;"/><path d="M11.406,9.869l2.215,0l0,1.83c-0.462,1.297 -0.995,2.433 -1.598,3.409c1.078,1.207 1.958,2.267 2.638,3.178l-1.367,1.214c-0.501,-0.681 -1.13,-1.47 -1.888,-2.369l0,7.184l-1.984,0l0,-6.24c-0.59,0.616 -1.271,1.174 -2.041,1.675l-0.655,-2.061c2.285,-1.553 3.903,-3.55 4.854,-5.99l-4.353,0l0,-1.83l2.195,0l0,-2.889l1.984,0l0,2.889Zm4.565,5.74l-1.772,0l0,-8.051l10.054,0l0,8.051l-2.927,0l0,5.721c0,0.385 0.038,0.61 0.115,0.674c0.077,0.064 0.36,0.096 0.848,0.096c0.398,0 0.648,-0.07 0.751,-0.212c0.18,-0.231 0.289,-1.11 0.327,-2.639c0.013,-0.295 0.026,-0.757 0.039,-1.386l1.868,0.154c-0.077,2.465 -0.186,3.98 -0.327,4.545c-0.167,0.617 -0.488,0.996 -0.963,1.137c-0.296,0.09 -0.873,0.135 -1.734,0.135c-1.297,0 -2.102,-0.119 -2.417,-0.357c-0.315,-0.237 -0.472,-0.825 -0.472,-1.762l0,-6.106l-1.425,0c-0.077,2.209 -0.491,3.971 -1.243,5.287c-0.751,1.316 -1.942,2.392 -3.573,3.227l-1.271,-1.58c1.438,-0.745 2.462,-1.624 3.072,-2.639c0.61,-1.014 0.96,-2.446 1.05,-4.295Zm0.251,-1.695l5.97,0l0,-4.622l-5.97,0l0,4.622Z" style="fill:#fff;fill-rule:nonzero;"/></g></svg>