<?xml version="1.0" encoding="UTF-8" standalone="no"?><!DOCTYPE svg PUBLIC "-//W3C//DTD SVG 1.1//EN" "http://www.w3.org/Graphics/SVG/1.1/DTD/svg11.dtd"><svg width="100%" height="100%" viewBox="0 0 32 32" version="1.1" xmlns="http://www.w3.org/2000/svg" xmlns:xlink="http://www.w3.org/1999/xlink" xml:space="preserve" xmlns:serif="http://www.serif.com/" style="fill-rule:evenodd;clip-rule:evenodd;stroke-linejoin:round;stroke-miterlimit:1.41421;"><rect id="no_vacancy" x="0" y="0" width="32" height="32" style="fill:none;"/><clipPath id="_clip1"><rect x="0" y="0" width="32" height="32"/></clipPath><g clip-path="url(#_clip1)"><g id="outline"><path d="M32,8c0,-4.418 -3.582,-8 -8,-8c-4.887,0 -11.113,0 -16,0c-4.418,0 -8,3.582 -8,8c0,4.887 0,11.113 0,16c0,4.418 3.582,8 8,8c4.887,0 11.113,0 16,0c4.418,0 8,-3.582 8,-8c0,-4.887 0,-11.113 0,-16Z"/></g><g id="emoji"><path d="M30,8c0,-1.591 -0.632,-3.117 -1.757,-4.243c-1.126,-1.125 -2.652,-1.757 -4.243,-1.757c-4.724,0 -11.276,0 -16,0c-1.591,0 -3.117,0.632 -4.243,1.757c-1.125,1.126 -1.757,2.652 -1.757,4.243c0,4.724 0,11.276 0,16c0,1.591 0.632,3.117 1.757,4.243c1.126,1.125 2.652,1.757 4.243,1.757c4.724,0 11.276,0 16,0c1.591,0 3.117,-0.632 4.243,-1.757c1.125,-1.126 1.757,-2.652 1.757,-4.243c0,-4.724 0,-11.276 0,-16Z" style="fill:#e8272e;"/><path d="M16.737,11.633l3.74,0l0,-2.046l-3.74,0l0,2.046Zm-7.15,4.532c-1.159,-1.1 -2.494,-2.222 -4.004,-3.366l1.342,-1.584c1.466,1.071 2.808,2.171 4.026,3.3l-1.364,1.65Zm-3.146,-8.206l1.364,-1.584c1.144,0.821 2.229,1.701 3.256,2.64l0,-1.298l3.366,0l0,-1.76l2.31,0l0,1.76l3.74,0l0,-1.76l2.31,0l0,1.76l3.08,0l0,1.87l-3.08,0l0,2.046l3.52,0l0,1.914l-6.666,0l0,1.166l5.94,0l0,8.184c0,1.32 -0.129,2.145 -0.385,2.475c-0.257,0.33 -0.891,0.495 -1.903,0.495c-0.616,0 -1.555,-0.037 -2.816,-0.11l-0.044,-1.98c0.894,0.073 1.584,0.11 2.068,0.11c0.41,0 0.652,-0.04 0.726,-0.121c0.073,-0.081 0.11,-0.334 0.11,-0.759l0,-6.38l-3.784,0l0,4.73l0.968,0l0,-3.916l1.98,0l0,5.786l-1.98,0l-4.18,0l0,1.32l-1.98,0l0,-7.106l1.98,0l0,3.916l1.012,0l0,-4.73l-3.806,0l0,9.46l-2.266,0l0,-7.238c-0.836,2.611 -1.936,4.921 -3.3,6.93l-1.87,-1.254c1.364,-2.039 2.471,-4.319 3.322,-6.842l1.848,0.748l0,-3.718l5.94,0l0,-1.166l-6.644,0l0,-1.914l3.85,0l0,-2.046l-3.19,0l-1.166,1.408c-1.174,-1.1 -2.384,-2.112 -3.63,-3.036Z" style="fill:#fff;fill-rule:nonzero;"/></g></g></svg>