<?xml version="1.0" encoding="UTF-8" standalone="no"?><!DOCTYPE svg PUBLIC "-//W3C//DTD SVG 1.1//EN" "http://www.w3.org/Graphics/SVG/1.1/DTD/svg11.dtd"><svg width="100%" height="100%" viewBox="0 0 32 32" version="1.1" xmlns="http://www.w3.org/2000/svg" xmlns:xlink="http://www.w3.org/1999/xlink" xml:space="preserve" xmlns:serif="http://www.serif.com/" style="fill-rule:evenodd;clip-rule:evenodd;stroke-linejoin:round;stroke-miterlimit:1.41421;"><rect id="not_free" x="0" y="0" width="32" height="32" style="fill:none;"/><clipPath id="_clip1"><rect x="0" y="0" width="32" height="32"/></clipPath><g clip-path="url(#_clip1)"><g id="outline"><path d="M32,8c0,-4.418 -3.582,-8 -8,-8c-4.887,0 -11.113,0 -16,0c-4.418,0 -8,3.582 -8,8c0,4.887 0,11.113 0,16c0,4.418 3.582,8 8,8c4.887,0 11.113,0 16,0c4.418,0 8,-3.582 8,-8c0,-4.887 0,-11.113 0,-16Z"/></g><g id="emoji"><path d="M30,8c0,-1.591 -0.632,-3.117 -1.757,-4.243c-1.126,-1.125 -2.652,-1.757 -4.243,-1.757c-4.724,0 -11.276,0 -16,0c-1.591,0 -3.117,0.632 -4.243,1.757c-1.125,1.126 -1.757,2.652 -1.757,4.243c0,4.724 0,11.276 0,16c0,1.591 0.632,3.117 1.757,4.243c1.126,1.125 2.652,1.757 4.243,1.757c4.724,0 11.276,0 16,0c1.591,0 3.117,-0.632 4.243,-1.757c1.125,-1.126 1.757,-2.652 1.757,-4.243c0,-4.724 0,-11.276 0,-16Z" style="fill:#ef9b00;"/><path d="M6.244,18.157l-0.99,-2.09c2.875,-1.936 4.972,-4.18 6.292,-6.732l-5.61,0l0,-1.936l6.468,0c0.249,-0.616 0.477,-1.305 0.682,-2.068l2.442,0.176c-0.161,0.602 -0.359,1.232 -0.594,1.892l10.582,0l0,1.936l-11.374,0c-0.411,0.822 -0.792,1.511 -1.144,2.068l11.044,0l0,10.956c0,1.247 -0.176,2.065 -0.528,2.453c-0.352,0.389 -1.188,0.583 -2.508,0.583c-0.323,0 -1.408,-0.044 -3.256,-0.132l-0.044,-1.914c1.687,0.074 2.655,0.11 2.904,0.11c0.499,0 0.792,-0.025 0.88,-0.077c0.088,-0.051 0.132,-0.231 0.132,-0.539l0,-1.694l-9.68,0l0,4.29l-2.42,0l0,-9.856c-1.027,0.939 -2.119,1.797 -3.278,2.574Zm5.698,-4.862l0,2.134l9.68,0l0,-2.134l-9.68,0Zm0,3.894l0,2.2l9.68,0l0,-2.2l-9.68,0Z" style="fill:#fff;fill-rule:nonzero;"/></g></g></svg>