<?xml version="1.0" encoding="UTF-8" standalone="no"?><!DOCTYPE svg PUBLIC "-//W3C//DTD SVG 1.1//EN" "http://www.w3.org/Graphics/SVG/1.1/DTD/svg11.dtd"><svg width="100%" height="100%" viewBox="0 0 32 32" version="1.1" xmlns="http://www.w3.org/2000/svg" xmlns:xlink="http://www.w3.org/1999/xlink" xml:space="preserve" xmlns:serif="http://www.serif.com/" style="fill-rule:evenodd;clip-rule:evenodd;stroke-linejoin:round;stroke-miterlimit:1.41421;"><rect id="open_for_business" x="0" y="0" width="32" height="32" style="fill:none;"/><clipPath id="_clip1"><rect x="0" y="0" width="32" height="32"/></clipPath><g clip-path="url(#_clip1)"><g id="outline"><path d="M32,8c0,-4.418 -3.582,-8 -8,-8c-4.887,0 -11.113,0 -16,0c-4.418,0 -8,3.582 -8,8c0,4.887 0,11.113 0,16c0,4.418 3.582,8 8,8c4.887,0 11.113,0 16,0c4.418,0 8,-3.582 8,-8c0,-4.887 0,-11.113 0,-16Z"/></g><g id="emoji"><path d="M30,8c0,-1.591 -0.632,-3.117 -1.757,-4.243c-1.126,-1.125 -2.652,-1.757 -4.243,-1.757c-4.724,0 -11.276,0 -16,0c-1.591,0 -3.117,0.632 -4.243,1.757c-1.125,1.126 -1.757,2.652 -1.757,4.243c0,4.724 0,11.276 0,16c0,1.591 0.632,3.117 1.757,4.243c1.126,1.125 2.652,1.757 4.243,1.757c4.724,0 11.276,0 16,0c1.591,0 3.117,-0.632 4.243,-1.757c1.125,-1.126 1.757,-2.652 1.757,-4.243c0,-4.724 0,-11.276 0,-16Z" style="fill:#ef9b00;"/><path d="M23.216,10.654l-14.432,0l0,4.004l-2.354,0l0,-5.896l3.256,0c-0.381,-0.733 -0.748,-1.371 -1.1,-1.914l2.068,-0.836c0.528,0.836 1.041,1.753 1.54,2.75l2.706,0c-0.455,-0.88 -0.851,-1.591 -1.188,-2.134l2.046,-0.836c0.513,0.851 1.049,1.841 1.606,2.97l2.464,0c0.543,-0.865 1.071,-1.811 1.584,-2.838l2.112,0.594c-0.337,0.704 -0.741,1.452 -1.21,2.244l3.256,0l0,5.896l-2.354,0l0,-4.004Zm-12.76,12.76l11.088,0l0,-2.64l-11.088,0l0,2.64Zm0,1.694l0,1.1l-2.376,0l0,-7.326l5.786,0c0.191,-0.499 0.359,-0.99 0.506,-1.474l-2.508,0l-2.354,0l0,-5.786l12.98,0l0,5.786l-5.61,0c-0.147,0.484 -0.315,0.975 -0.506,1.474l7.546,0l0,7.326l-2.376,0l0,-1.1l-11.088,0Zm1.408,-9.394l8.272,0l0,-2.2l-8.272,0l0,2.2Z" style="fill:#fff;fill-rule:nonzero;"/></g></g></svg>