<?xml version="1.0" encoding="UTF-8" standalone="no"?><!DOCTYPE svg PUBLIC "-//W3C//DTD SVG 1.1//EN" "http://www.w3.org/Graphics/SVG/1.1/DTD/svg11.dtd"><svg width="100%" height="100%" viewBox="0 0 32 32" version="1.1" xmlns="http://www.w3.org/2000/svg" xmlns:xlink="http://www.w3.org/1999/xlink" xml:space="preserve" xmlns:serif="http://www.serif.com/" style="fill-rule:evenodd;clip-rule:evenodd;stroke-linejoin:round;stroke-miterlimit:1.41421;"><rect id="reserved" x="0" y="0" width="32" height="32" style="fill:none;"/><clipPath id="_clip1"><rect x="0" y="0" width="32" height="32"/></clipPath><g clip-path="url(#_clip1)"><g id="outline"><path d="M32,8c0,-4.418 -3.582,-8 -8,-8c-4.887,0 -11.113,0 -16,0c-4.418,0 -8,3.582 -8,8c0,4.887 0,11.113 0,16c0,4.418 3.582,8 8,8c4.887,0 11.113,0 16,0c4.418,0 8,-3.582 8,-8c0,-4.887 0,-11.113 0,-16Z"/></g><g id="emoji"><path d="M30,8c0,-1.591 -0.632,-3.117 -1.757,-4.243c-1.126,-1.125 -2.652,-1.757 -4.243,-1.757c-4.724,0 -11.276,0 -16,0c-1.591,0 -3.117,0.632 -4.243,1.757c-1.125,1.126 -1.757,2.652 -1.757,4.243c0,4.724 0,11.276 0,16c0,1.591 0.632,3.117 1.757,4.243c1.126,1.125 2.652,1.757 4.243,1.757c4.724,0 11.276,0 16,0c1.591,0 3.117,-0.632 4.243,-1.757c1.125,-1.126 1.757,-2.652 1.757,-4.243c0,-4.724 0,-11.276 0,-16Z" style="fill:#4bbf1e;"/><path d="M22.974,19.311l0,-1.892l-6.556,0l0,1.892l6.556,0Zm2.948,-9.526c-0.044,0.865 -0.103,1.54 -0.176,2.024c-0.073,0.484 -0.172,0.902 -0.297,1.254c-0.125,0.352 -0.334,0.601 -0.627,0.748c-0.293,0.147 -0.616,0.249 -0.968,0.308c-0.352,0.059 -0.858,0.088 -1.518,0.088c-1.232,0.029 -2.141,0.044 -2.728,0.044c-0.66,0 -1.577,-0.015 -2.75,-0.044c-1.305,-0.015 -2.127,-0.139 -2.464,-0.374c-0.337,-0.235 -0.506,-0.777 -0.506,-1.628l0,-5.83l2.31,0l0,2.178c2.904,-0.499 5.793,-1.188 8.668,-2.068l0.726,1.892c-3.065,0.924 -6.197,1.643 -9.394,2.156l0,0.946c0,0.381 0.055,0.609 0.165,0.682c0.11,0.073 0.473,0.117 1.089,0.132c0.44,0.015 1.115,0.022 2.024,0.022c0.851,0 1.525,-0.007 2.024,-0.022c0.396,-0.015 0.678,-0.022 0.847,-0.022c0.169,0 0.352,-0.04 0.55,-0.121c0.198,-0.081 0.326,-0.158 0.385,-0.231c0.059,-0.073 0.125,-0.235 0.198,-0.484c0.073,-0.249 0.117,-0.488 0.132,-0.715c0.015,-0.227 0.037,-0.598 0.066,-1.111l2.244,0.176Zm-17.446,15.95c-0.337,0 -1.056,-0.037 -2.156,-0.11l-0.088,-1.914c0.821,0.059 1.474,0.088 1.958,0.088c0.191,0 0.304,-0.051 0.341,-0.154c0.037,-0.103 0.055,-0.433 0.055,-0.99l0,-3.63c-1.217,0.293 -2.002,0.477 -2.354,0.55l-0.154,-2.09c0.792,-0.147 1.628,-0.337 2.508,-0.572l0,-5.082l-2.486,0l0,-1.98l2.486,0l0,-3.696l2.31,0l0,3.696l2.244,0l0,1.98l-2.244,0l0,4.422c0.528,-0.176 1.239,-0.425 2.134,-0.748l0.33,1.958c-0.601,0.249 -1.423,0.543 -2.464,0.88l0,4.202c0,1.452 -0.128,2.347 -0.385,2.684c-0.257,0.337 -0.935,0.506 -2.035,0.506Zm7.942,-4.62l0,1.936l6.556,0l0,-1.936l-6.556,0Zm0,3.85l0,0.88l-2.376,0l0,-10.406l11.286,0l0,10.406l-2.354,0l0,-0.88l-6.556,0Z" style="fill:#fff;fill-rule:nonzero;"/></g></g></svg>