<?xml version="1.0" encoding="UTF-8" standalone="no"?><!DOCTYPE svg PUBLIC "-//W3C//DTD SVG 1.1//EN" "http://www.w3.org/Graphics/SVG/1.1/DTD/svg11.dtd"><svg width="100%" height="100%" viewBox="0 0 32 32" version="1.1" xmlns="http://www.w3.org/2000/svg" xmlns:xlink="http://www.w3.org/1999/xlink" xml:space="preserve" xmlns:serif="http://www.serif.com/" style="fill-rule:evenodd;clip-rule:evenodd;stroke-linejoin:round;stroke-miterlimit:1.41421;"><rect id="secret" x="0" y="0" width="32" height="32" style="fill:none;"/><clipPath id="_clip1"><rect x="0" y="0" width="32" height="32"/></clipPath><g clip-path="url(#_clip1)"><g id="outline"><circle cx="16" cy="16" r="16"/></g><g id="emoji"><circle cx="16" cy="16" r="14" style="fill:#e8272e;"/><path d="M14.899,8.771l0.828,-1.675c1.785,0.436 3.512,1.097 5.181,1.983l-0.924,1.715c-1.606,-0.874 -3.3,-1.548 -5.085,-2.023Zm8.186,9.65c-0.026,0.796 -0.049,1.413 -0.068,1.849c-0.019,0.437 -0.058,0.893 -0.115,1.368c-0.058,0.475 -0.11,0.818 -0.154,1.03c-0.045,0.212 -0.145,0.437 -0.299,0.674c-0.154,0.238 -0.295,0.392 -0.424,0.463c-0.128,0.07 -0.337,0.141 -0.626,0.211c-0.289,0.071 -0.562,0.11 -0.818,0.116c-0.257,0.006 -0.623,0.01 -1.098,0.01c-0.565,0 -1.002,-0.007 -1.31,-0.02c-0.308,-0.013 -0.607,-0.051 -0.896,-0.115c-0.289,-0.064 -0.491,-0.141 -0.606,-0.231c-0.116,-0.09 -0.222,-0.241 -0.318,-0.453c-0.096,-0.212 -0.154,-0.44 -0.173,-0.684c-0.02,-0.244 -0.029,-0.578 -0.029,-1.001l0,-0.02c-1.053,0.899 -2.164,1.721 -3.333,2.466l-1.194,-1.541c0.848,-0.501 1.702,-1.092 2.562,-1.772l-1.695,-0.462c0.308,-1.028 0.501,-1.689 0.578,-1.984l-0.771,0.501l-0.963,-2.1l0,7.705l-1.926,0l0,-5.971c-0.372,1.078 -0.828,2.073 -1.367,2.985l-1.04,-2.061c1.194,-2.003 1.983,-3.916 2.369,-5.74l-1.946,0l0,-1.733l1.984,0l0,-2.254c-0.385,0.052 -0.944,0.116 -1.675,0.193l-0.174,-1.637c1.99,-0.206 3.865,-0.578 5.624,-1.117l0.482,1.54c-0.719,0.257 -1.496,0.482 -2.331,0.675l0,2.6l2.196,0l0,1.733l-2.042,0l1.85,3.506c0.321,-1.413 0.545,-2.825 0.674,-4.238l1.868,0.27c-0.244,2.671 -0.732,5.143 -1.464,7.416c0.642,-0.54 1.22,-1.066 1.734,-1.58l0,-8.552l2.003,0l0,6.241c1.836,-2.401 3.319,-5.336 4.449,-8.803l1.714,0.771c-0.475,1.477 -1.078,2.973 -1.81,4.488l1.656,-0.366c0.565,2.645 1.002,5.329 1.31,8.051l-1.888,0.289c-0.321,-2.851 -0.732,-5.406 -1.232,-7.666c-1.182,2.337 -2.581,4.391 -4.199,6.163l0,1.869c0,0.449 0.061,0.722 0.183,0.818c0.122,0.097 0.497,0.145 1.127,0.145c0.642,0 1.046,-0.071 1.213,-0.212c0.257,-0.218 0.411,-0.873 0.462,-1.965c0.013,-0.372 0.032,-1.098 0.058,-2.176l1.888,0.308Z" style="fill:#fff;fill-rule:nonzero;"/></g></g></svg>