<?xml version="1.0" encoding="UTF-8" standalone="no"?>
<!DOCTYPE svg PUBLIC "-//W3C//DTD SVG 1.1//EN" "http://www.w3.org/Graphics/SVG/1.1/DTD/svg11.dtd">
<svg width="100%" height="100%" viewBox="0 0 32 32" version="1.1" xmlns="http://www.w3.org/2000/svg" xmlns:xlink="http://www.w3.org/1999/xlink" xml:space="preserve" xmlns:serif="http://www.serif.com/" style="fill-rule:evenodd;clip-rule:evenodd;stroke-linecap:round;stroke-miterlimit:3;">
    <rect id="blue_jay" x="0" y="0" width="32" height="32" style="fill:none;"/>
    <clipPath id="_clip1">
        <rect x="0" y="0" width="32" height="32"/>
    </clipPath>
    <g clip-path="url(#_clip1)">
        <g id="outline">
            <path d="M29,30c0,0 -1.485,-12.378 -2.366,-19.715c-0.362,-3.015 -2.92,-5.285 -5.957,-5.285c-0.786,0 -1.589,0 -2.351,0c-2.734,0 -5.32,1.243 -7.028,3.378c-0.718,0.897 -1.298,1.622 -1.298,1.622l-2,4l6.462,3.231c0.864,0.432 1.241,1.462 0.861,2.35c-0.065,0.15 -0.132,0.307 -0.202,0.47c-1.358,3.169 -1.402,6.747 -0.121,9.949c0,0 0,0 0,0l14,0Z" style="fill:none;stroke:#000;stroke-width:4px;"/>
            <path d="M10,10l2,3c0,0 -0.169,0.337 -0.367,0.734c-0.379,0.759 -1.196,1.196 -2.037,1.09c-2.295,-0.286 -6.596,-0.824 -6.596,-0.824c0,0 0.449,-0.449 0.921,-0.921c0.712,-0.712 1.561,-1.272 2.496,-1.646c1.478,-0.591 3.583,-1.433 3.583,-1.433Z" style="fill:none;stroke:#000;stroke-width:4px;"/>
            <path d="M30,5l-11,0l4,6c0,0 0.741,0 1.486,0c0.987,0 1.952,-0.292 2.774,-0.84c0.821,-0.547 1.74,-1.16 1.74,-1.16l-2,-1l3,-3Z" style="fill:none;stroke:#000;stroke-width:4px;stroke-linejoin:round;"/>
        </g>
        <g id="emoji">
            <path d="M14.906,7c-0.056,0.177 -0.137,0.347 -0.242,0.504c-0.321,0.481 -0.809,1.213 -1.173,1.76c-0.313,0.469 -0.413,1.048 -0.276,1.594c0.293,1.176 0.785,3.142 0.785,3.142l-2,-1l-2.1,-2.8l0.1,-0.2c0,0 0.58,-0.725 1.298,-1.622c0.103,-0.129 0.21,-0.255 0.319,-0.378l1.459,-0.762c0,0 0.65,-0.352 1.181,-0.352l0.649,0.114Z" style="fill:#333;"/>
            <path d="M24,30l-9,0c0,0 0,0 0,0c-1.243,-3.107 -1.238,-6.57 0.005,-9.668l1.755,-1.585l7.386,-4.771l-0.146,16.024Zm-9.094,-23l10.243,0c0.736,0.822 1.251,1.851 1.444,3l-0.593,1l-8.64,6.28c0,0 -0.3,0.062 -2.066,0.801c-0.169,-0.357 -0.454,-0.661 -0.832,-0.85l-6.462,-3.231l1.9,-3.8l2.1,2.8l2,1c0,0 -0.492,-1.966 -0.785,-3.142c-0.137,-0.546 -0.037,-1.125 0.276,-1.594c0.364,-0.547 0.852,-1.279 1.173,-1.76c0.105,-0.157 0.186,-0.327 0.242,-0.504Z" style="fill:#d4d5d8;"/>
            <path d="M11.617,8c1.702,-1.903 4.14,-3 6.709,-3c0.762,0 1.565,0 2.351,0c1.765,0 3.368,0.766 4.472,2l-10.321,0c-0.53,0 -1.039,0.211 -1.414,0.586l-0.414,0.414l-1.383,0Z" style="fill:#3b6ed4;"/>
            <path d="M24.146,13.976l1.511,-0.976l1.423,1l1.92,16l-5,0l-3.879,-3.879c-1.358,-1.358 -2.121,-3.2 -2.121,-5.121c0,0 0,0 0,0l6.146,-7.024Z" style="fill:#3b6ed4;"/>
            <path d="M26.593,10c0.016,0.094 0.03,0.189 0.041,0.285l0.446,3.715l-1.423,0c-1.061,0 -2.078,0.421 -2.829,1.172c-0.643,0.643 -1.451,1.451 -2.159,2.159c-1.097,1.097 -2.436,1.925 -3.909,2.416l-1.755,0.585c0.037,-0.094 0.076,-0.188 0.116,-0.281c0.07,-0.163 0.137,-0.32 0.202,-0.47c0.213,-0.499 0.188,-1.043 -0.029,-1.5c1.766,-0.739 3.209,-2.087 4.066,-3.801c0.794,-1.588 1.64,-3.28 1.64,-3.28l1,-1l4.593,0Z" style="fill:#333;"/>
            <path d="M10,10c0,0 0.042,0 0.109,0c0.532,0 1.004,0.34 1.173,0.845c0.295,0.887 0.718,2.155 0.718,2.155c0,0 -4.494,0.749 -5.703,0.951c-0.198,0.032 -0.398,0.049 -0.598,0.049c-0.76,0 -2.699,0 -2.699,0c0,0 0.449,-0.449 0.921,-0.921c0.712,-0.712 1.561,-1.272 2.496,-1.646c1.478,-0.591 3.583,-1.433 3.583,-1.433Z" style="fill:#313131;"/>
            <clipPath id="_clip2">
                <path d="M10,10c0,0 0.042,0 0.109,0c0.532,0 1.004,0.34 1.173,0.845c0.295,0.887 0.718,2.155 0.718,2.155c0,0 -4.494,0.749 -5.703,0.951c-0.198,0.032 -0.398,0.049 -0.598,0.049c-0.76,0 -2.699,0 -2.699,0c0,0 0.449,-0.449 0.921,-0.921c0.712,-0.712 1.561,-1.272 2.496,-1.646c1.478,-0.591 3.583,-1.433 3.583,-1.433Z"/>
            </clipPath>
            <g clip-path="url(#_clip2)">
                <path d="M8,10c0,0 2.532,2.532 3.567,3.567c0.277,0.277 0.433,0.653 0.433,1.046c0,0.147 0,0.262 0,0.262l4,0.125l0,-7l-7,0l-1,2Z" style="fill:#5d8be6;"/>
            </g>
            <path d="M3,14l3,-1l6,0c0,0 -0.216,0.432 -0.447,0.894c-0.339,0.678 -1.032,1.106 -1.789,1.106c-0.158,0 -0.308,0 -0.433,0c-0.22,0 -0.44,-0.018 -0.658,-0.054c-1.252,-0.209 -5.673,-0.946 -5.673,-0.946Z" style="fill:#313131;"/>
            <path d="M30,5l-11,0l-2,2c0,0 0,0 0,0c1.226,0 2.346,0.693 2.894,1.789c0.533,1.065 1.106,2.211 1.106,2.211c0,0 2.309,0 3.789,0c0.79,0 1.562,-0.234 2.219,-0.672c0.871,-0.581 1.992,-1.328 1.992,-1.328l-2,-1l3,-3Z" style="fill:#3b6ed4;"/>
            <path d="M18,11c0,0 -0.657,-0.219 -1.356,-0.452c-0.943,-0.314 -1.974,0.113 -2.419,1.002c-0.131,0.261 -0.225,0.45 -0.225,0.45c0,0 0.656,0.219 1.354,0.451c0.945,0.315 1.977,-0.112 2.422,-1.002c0.13,-0.261 0.224,-0.449 0.224,-0.449Z"/>
        </g>
    </g>
</svg>
