<?xml version="1.0" encoding="UTF-8" standalone="no"?>
<!DOCTYPE svg PUBLIC "-//W3C//DTD SVG 1.1//EN" "http://www.w3.org/Graphics/SVG/1.1/DTD/svg11.dtd">
<svg width="100%" height="100%" viewBox="0 0 32 32" version="1.1" xmlns="http://www.w3.org/2000/svg" xmlns:xlink="http://www.w3.org/1999/xlink" xml:space="preserve" xmlns:serif="http://www.serif.com/" style="fill-rule:evenodd;clip-rule:evenodd;stroke-linecap:round;stroke-miterlimit:3;">
    <rect id="crane" x="0" y="0" width="32" height="32" style="fill:none;"/>
    <clipPath id="_clip1">
        <rect x="0" y="0" width="32" height="32"/>
    </clipPath>
    <g clip-path="url(#_clip1)">
        <g id="outline">
            <path d="M23.5,30c0,0 3.297,-6.594 5.195,-10.389c0.858,-1.717 1.305,-3.61 1.305,-5.53c0,0 0,-0.001 0,-0.001c0,-3.096 -1.453,-6.013 -3.925,-7.877c-2.471,-1.864 -5.675,-2.46 -8.651,-1.61c-0.238,0.068 -0.452,0.129 -0.637,0.182c-0.516,0.148 -0.986,0.424 -1.366,0.804c-0.59,0.59 -1.421,1.421 -1.421,1.421l-2,4l0,1l3,1c0,0 2.292,1.146 4.422,2.211c1.976,0.988 2.777,3.391 1.789,5.367c-1.924,3.848 -4.711,9.422 -4.711,9.422l7,0Z" style="fill:none;stroke:#000;stroke-width:4px;"/>
            <path d="M2,18c0,0 0,-0.109 0,-0.292c0,-2.272 1.284,-4.35 3.317,-5.366c2.216,-1.109 4.933,-2.467 6.102,-3.052c0.385,-0.192 0.736,-0.445 1.04,-0.749c0.59,-0.59 1.541,-1.541 1.541,-1.541l2,0l-2,4c0,0 0.513,0.513 1.019,1.019c0.227,0.227 0.331,0.55 0.28,0.867c-0.052,0.318 -0.252,0.591 -0.54,0.734c-2.072,1.036 -6.184,3.093 -7.972,3.986c-0.567,0.284 -1.193,0.429 -1.827,0.422c-1.162,-0.011 -2.96,-0.028 -2.96,-0.028Z" style="fill:none;stroke:#000;stroke-width:4px;"/>
        </g>
        <g id="emoji">
            <path d="M20,4.215c0,0 7.313,11.063 7.313,13.715l-1.313,7.07l-2.5,5l-7,0c0,0 2.787,-5.574 4.711,-9.422c0.988,-1.976 0.187,-4.379 -1.789,-5.367c-2.13,-1.065 -4.422,-2.211 -4.422,-2.211l-3,-1l0,-1l2,-4c0,0 0.831,-0.831 1.421,-1.421c0.38,-0.38 0.85,-0.656 1.366,-0.804c0.185,-0.053 0.399,-0.114 0.637,-0.182c0.847,-0.242 1.714,-0.367 2.576,-0.378Z" style="fill:#373737;"/>
            <path d="M20.359,7c0.197,0.432 9.584,6.019 9.584,6.019c-0.03,-0.273 0.057,0.426 0.057,1.061c0,0 0,0.001 0,0.001c0,1.92 -0.447,3.813 -1.305,5.53l-2.695,5.389l0,-1.858c0,-2.652 -1.054,-5.196 -2.929,-7.071c-2.627,-2.627 -6.071,-6.071 -6.071,-6.071l3,-3l0.359,0Z" style="fill:#fff;"/>
            <path d="M20,4.215c2.166,-0.03 4.308,0.655 6.075,1.988c2.187,1.65 3.577,4.123 3.868,6.816l-2.267,0c-1.061,0 -2.079,-0.422 -2.829,-1.172c-1.06,-1.06 -2.615,-2.615 -3.675,-3.675c-0.751,-0.751 -1.172,-1.768 -1.172,-2.829l0,-1.128Z" style="fill:#dd381b;"/>
            <path d="M2,18c0,0 0,-0.109 0,-0.292c0,-2.272 1.284,-4.35 3.317,-5.366c2.216,-1.109 4.933,-2.467 6.102,-3.052c0.385,-0.192 0.736,-0.445 1.04,-0.749c0.59,-0.59 1.541,-1.541 1.541,-1.541c0,0 0,1.583 0,2.757c0,0.796 0.316,1.559 0.879,2.122c0.046,0.046 0.093,0.093 0.14,0.14c0.227,0.227 0.331,0.55 0.28,0.867c-0.052,0.318 -0.252,0.591 -0.54,0.734c-2.072,1.036 -6.184,3.093 -7.972,3.986c-0.567,0.284 -1.193,0.429 -1.827,0.422c-1.162,-0.011 -2.96,-0.028 -2.96,-0.028Z" style="fill:#b8b77f;"/>
            <path d="M20,7c0,0 -0.449,0 -1,0c-0.53,0 -1.039,0.211 -1.414,0.586c-0.375,0.375 -0.586,0.884 -0.586,1.414c0,0.551 0,1 0,1c0,0 0.449,0 1,0c0.53,0 1.039,-0.211 1.414,-0.586c0.375,-0.375 0.586,-0.884 0.586,-1.414c0,-0.551 0,-1 0,-1Z"/>
            <path d="M12,11l-2,1" style="fill:none;stroke:#68672a;stroke-width:1px;"/>
        </g>
    </g>
</svg>
