<?xml version="1.0" encoding="UTF-8" standalone="no"?>
<!DOCTYPE svg PUBLIC "-//W3C//DTD SVG 1.1//EN" "http://www.w3.org/Graphics/SVG/1.1/DTD/svg11.dtd">
<svg width="100%" height="100%" viewBox="0 0 32 32" version="1.1" xmlns="http://www.w3.org/2000/svg" xmlns:xlink="http://www.w3.org/1999/xlink" xml:space="preserve" xmlns:serif="http://www.serif.com/" style="fill-rule:evenodd;clip-rule:evenodd;stroke-linecap:round;stroke-miterlimit:3;">
    <rect id="crow" x="0" y="0" width="32" height="32" style="fill:none;"/>
    <clipPath id="_clip1">
        <rect x="0" y="0" width="32" height="32"/>
    </clipPath>
    <g clip-path="url(#_clip1)">
        <g id="outline">
            <path d="M30,13c0,0 -1.03,-2.059 -2.044,-4.088c-1.199,-2.398 -3.649,-3.912 -6.329,-3.912c-0.387,0 -0.775,0 -1.153,0c-2.224,0 -4.358,0.884 -5.931,2.457c-0.323,0.323 -0.629,0.629 -0.882,0.882c-0.432,0.432 -0.977,0.731 -1.573,0.864c-1.071,0.238 -2.913,0.647 -4.569,1.015c-2.258,0.502 -4.235,1.857 -5.519,3.782c0,0 0,0 0,0c0,0 3.592,1.539 5.63,2.413c0.904,0.387 1.877,0.587 2.861,0.587c0.469,0 1.016,0 1.589,0c2.964,0 5.622,1.826 6.686,4.592c1.439,3.742 3.234,8.408 3.234,8.408l8,0l0,-17Z" style="fill:none;stroke:#000;stroke-width:4px;"/>
        </g>
        <g id="emoji">
            <path d="M14.5,7.5l0.043,-0.043c1.573,-1.573 3.707,-2.457 5.931,-2.457c0.378,0 0.766,0 1.153,0c2.68,0 5.13,1.514 6.329,3.912c1.014,2.029 2.044,4.088 2.044,4.088l0,17l-8,0c0,0 -1.795,-4.666 -3.234,-8.408c-0.033,-0.086 -0.067,-0.171 -0.103,-0.255l-4.163,-13.837Z" style="fill:#36384a;"/>
            <path d="M13.128,9.128l0.366,-0.634c0.057,-0.049 0.113,-0.101 0.167,-0.155l0.839,-0.839l1.207,1.207c0.188,0.188 0.442,0.293 0.707,0.293l4.929,0c1.061,0 2.078,0.421 2.829,1.172c1.562,1.562 1.562,4.094 0,5.656l-5.509,5.509c-1.126,-2.623 -5.663,-4.337 -5.663,-4.337l0.128,-7.872Z" style="fill:#1e1f29;"/>
            <path d="M13.128,9.128l1.872,1.872c0,0 0,2 0,3.172c0,0.53 -0.211,1.039 -0.586,1.414c-0.59,0.59 -1.414,1.414 -1.414,1.414l-2.509,0c-0.984,0 -1.957,-0.2 -2.861,-0.587c-2.038,-0.874 -5.63,-2.413 -5.63,-2.413c0,0 0,0 0,0c1.237,-1.856 3.119,-3.182 5.276,-3.724l1.834,-0.047l3.967,-1.015l0.051,-0.086Z" style="fill:#4b4f68;"/>
            <clipPath id="_clip2">
                <path d="M13.128,9.128l1.872,1.872c0,0 0,2 0,3.172c0,0.53 -0.211,1.039 -0.586,1.414c-0.59,0.59 -1.414,1.414 -1.414,1.414l-2.509,0c-0.984,0 -1.957,-0.2 -2.861,-0.587c-2.038,-0.874 -5.63,-2.413 -5.63,-2.413c0,0 0,0 0,0c1.237,-1.856 3.119,-3.182 5.276,-3.724l1.834,-0.047l3.967,-1.015l0.051,-0.086Z"/>
            </clipPath>
            <g clip-path="url(#_clip2)">
                <path d="M0,14l12.227,0c0.508,0 1.01,0.118 1.464,0.346c0.578,0.289 1.309,0.654 1.309,0.654" style="fill:none;stroke:#32354c;stroke-width:1px;"/>
            </g>
            <path d="M13.494,8.494l2.506,2.506c0,0 0,0 0,0c0,0.552 -0.448,1 -1,1c-1.133,0 -2.998,0 -4.348,0c-1.058,0 -2.072,-0.42 -2.82,-1.168l-0.556,-0.556c0.08,-0.021 0.162,-0.04 0.243,-0.058c1.656,-0.368 3.498,-0.777 4.569,-1.015c0.522,-0.116 1.005,-0.36 1.406,-0.709Z" style="fill:#292b39;"/>
            <circle cx="19" cy="11" r="2" style="fill:#9ed8ce;"/>
            <clipPath id="_clip3">
                <circle cx="19" cy="11" r="2"/>
            </clipPath>
            <g clip-path="url(#_clip3)">
                <circle cx="19" cy="11" r="1"/>
            </g>
        </g>
    </g>
</svg>
