<?xml version="1.0" encoding="UTF-8" standalone="no"?>
<!DOCTYPE svg PUBLIC "-//W3C//DTD SVG 1.1//EN" "http://www.w3.org/Graphics/SVG/1.1/DTD/svg11.dtd">
<svg width="100%" height="100%" viewBox="0 0 32 32" version="1.1" xmlns="http://www.w3.org/2000/svg" xmlns:xlink="http://www.w3.org/1999/xlink" xml:space="preserve" xmlns:serif="http://www.serif.com/" style="fill-rule:evenodd;clip-rule:evenodd;stroke-linecap:round;stroke-miterlimit:3;">
    <rect id="eagle" x="0" y="0" width="32" height="32" style="fill:none;"/>
    <clipPath id="_clip1">
        <rect x="0" y="0" width="32" height="32"/>
    </clipPath>
    <g clip-path="url(#_clip1)">
        <g id="outline">
            <path d="M30,30l-2,-9l2,1l-2,-7l2,1c0,0 0,-0.428 0,-1.056c0,-3.03 -1.712,-5.8 -4.422,-7.155c-0.757,-0.379 -1.494,-0.747 -2.1,-1.05c-0.972,-0.486 -2.044,-0.739 -3.13,-0.739c-1.016,0 -2.36,0 -3.62,0c-2.387,0 -4.676,0.948 -6.364,2.636c-0.222,0.222 -0.364,0.364 -0.364,0.364l-2,5l6.369,3.184c0.901,0.451 1.266,1.546 0.815,2.447c-0.247,0.495 -0.526,1.052 -0.799,1.599c-0.911,1.822 -1.385,3.83 -1.385,5.867c0,1.467 0,2.903 0,2.903l17,0Z" style="fill:none;stroke:#000;stroke-width:4px;"/>
            <path d="M10,9l0,4l4,1c0,0 -3.703,0.463 -6.071,0.759c-1.205,0.151 -2.255,0.894 -2.798,1.98c-0.54,1.079 -1.131,2.261 -1.131,2.261c0,0 -0.481,-0.841 -0.971,-1.699c-0.647,-1.132 -0.716,-2.505 -0.186,-3.697c0,0 0,0 0,0c0.737,-1.659 2.138,-2.931 3.86,-3.505c1.592,-0.531 3.297,-1.099 3.297,-1.099Z" style="fill:none;stroke:#000;stroke-width:4px;"/>
            <path d="M5,15l7,-1l2,0c0,0 -0.216,0.432 -0.447,0.894c-0.339,0.678 -1.032,1.106 -1.789,1.106c-0.766,0 -1.708,0 -2.271,0c-0.327,0 -0.654,-0.04 -0.971,-0.12c-1.062,-0.265 -3.522,-0.88 -3.522,-0.88Z" style="fill:none;stroke:#000;stroke-width:4px;"/>
        </g>
        <g id="emoji">
            <path d="M30,30l-2,-9l2,1l-2,-7l2,1c0,0 0,-0.428 0,-1.056c0,-3.03 -1.712,-5.8 -4.422,-7.155c-0.757,-0.379 -1.494,-0.747 -2.1,-1.05c-0.972,-0.486 -2.044,-0.739 -3.13,-0.739c-1.016,0 -2.36,0 -3.62,0c-2.387,0 -4.676,0.948 -6.364,2.636c-0.222,0.222 -0.364,0.364 -0.364,0.364l-2,5l6.369,3.184c0.901,0.451 1.266,1.546 0.815,2.447c-0.247,0.495 -0.526,1.052 -0.799,1.599c-0.911,1.822 -1.385,3.83 -1.385,5.867c0,1.467 0,2.903 0,2.903l17,0Z" style="fill:#816148;"/>
            <clipPath id="_clip2">
                <path d="M30,30l-2,-9l2,1l-2,-7l2,1c0,0 0,-0.428 0,-1.056c0,-3.03 -1.712,-5.8 -4.422,-7.155c-0.757,-0.379 -1.494,-0.747 -2.1,-1.05c-0.972,-0.486 -2.044,-0.739 -3.13,-0.739c-1.016,0 -2.36,0 -3.62,0c-2.387,0 -4.676,0.948 -6.364,2.636c-0.222,0.222 -0.364,0.364 -0.364,0.364l-2,5l6.369,3.184c0.901,0.451 1.266,1.546 0.815,2.447c-0.247,0.495 -0.526,1.052 -0.799,1.599c-0.911,1.822 -1.385,3.83 -1.385,5.867c0,1.467 0,2.903 0,2.903l17,0Z"/>
            </clipPath>
            <g clip-path="url(#_clip2)">
                <path d="M30,22l-4,-2l3,5l1,-3Z" style="fill:#beb7a9;"/>
                <path d="M30,16l-4,-2l4,6l0,-4Z" style="fill:#beb7a9;"/>
                <path d="M13,26l3,-3l0,3l5,-5l0,3l4,-4l1,0l6,6l0,5l-19,0l0,-5Z" style="fill:#6f543e;"/>
                <path d="M25,23c0,0 0,1.243 0,2.343c0,1.061 0.421,2.078 1.172,2.829c0.841,0.841 1.828,1.828 1.828,1.828c0,0 0,-1.243 0,-2.343c0,-1.061 -0.421,-2.078 -1.172,-2.829c-0.841,-0.841 -1.828,-1.828 -1.828,-1.828Z" style="fill:#836a59;"/>
                <path d="M23,25c0,0 0,1.243 0,2.343c0,1.061 -0.421,2.078 -1.172,2.829c-0.841,0.841 -1.828,1.828 -1.828,1.828c0,0 0,-1.243 0,-2.343c0,-1.061 0.421,-2.078 1.172,-2.829c0.841,-0.841 1.828,-1.828 1.828,-1.828Z" style="fill:#836a59;"/>
                <path d="M18,27c0,0 0,1.243 0,2.343c0,1.061 -0.421,2.078 -1.172,2.829c-0.841,0.841 -1.828,1.828 -1.828,1.828c0,0 0,-1.243 0,-2.343c0,-1.061 0.421,-2.078 1.172,-2.829c0.841,-0.841 1.828,-1.828 1.828,-1.828Z" style="fill:#836a59;"/>
            </g>
            <circle cx="18" cy="11" r="2" style="fill:#34270d;"/>
            <circle cx="18" cy="11" r="1"/>
            <path d="M10,9c0,0 0,0 0,0c0.428,0 0.826,0.222 1.052,0.586c0.225,0.365 0.245,0.82 0.054,1.203c-0.533,1.065 -1.106,2.211 -1.106,2.211l4,1c0,0 -3.703,0.463 -6.071,0.759c-1.205,0.151 -2.255,0.894 -2.798,1.98c-0.54,1.079 -1.131,2.261 -1.131,2.261c0,0 -0.481,-0.841 -0.971,-1.699c-0.647,-1.132 -0.716,-2.505 -0.186,-3.697c0,0 0,0 0,0c0.737,-1.659 2.138,-2.931 3.86,-3.505c1.592,-0.531 3.297,-1.099 3.297,-1.099Z" style="fill:#2e2f34;"/>
            <clipPath id="_clip3">
                <path d="M10,9c0,0 0,0 0,0c0.428,0 0.826,0.222 1.052,0.586c0.225,0.365 0.245,0.82 0.054,1.203c-0.533,1.065 -1.106,2.211 -1.106,2.211l4,1c0,0 -3.703,0.463 -6.071,0.759c-1.205,0.151 -2.255,0.894 -2.798,1.98c-0.54,1.079 -1.131,2.261 -1.131,2.261c0,0 -0.481,-0.841 -0.971,-1.699c-0.647,-1.132 -0.716,-2.505 -0.186,-3.697c0,0 0,0 0,0c0.737,-1.659 2.138,-2.931 3.86,-3.505c1.592,-0.531 3.297,-1.099 3.297,-1.099Z"/>
            </clipPath>
            <g clip-path="url(#_clip3)">
                <path d="M5,10c0,0 2.303,2.303 3.414,3.414c0.375,0.375 0.586,0.884 0.586,1.414c0,0.503 0,1.047 0,1.047l7,-0.875l0,-7l-9,0l-2,2Z" style="fill:#f1c500;"/>
            </g>
            <path d="M8.077,14.231l0.213,0.056l0.462,1.491l-0.116,0.129c-0.038,-0.008 -0.076,-0.017 -0.114,-0.027c-1.062,-0.265 -3.522,-0.88 -3.522,-0.88l3.077,-0.769Z" style="fill:#2e2f34;"/>
            <path d="M8.077,14.231l0.923,-0.231l5,0c0,0 -0.216,0.432 -0.447,0.894c-0.339,0.678 -1.032,1.106 -1.789,1.106c-0.766,0 -1.708,0 -2.271,0c-0.288,0 -0.576,-0.031 -0.857,-0.093l-0.559,-1.676Z" style="fill:#f1c500;"/>
            <path d="M16,10c0,0 0.519,-0.173 1.125,-0.375c1.217,-0.406 2.533,-0.406 3.75,0c0.606,0.202 1.125,0.375 1.125,0.375" style="fill:none;stroke:#604836;stroke-width:1px;"/>
            <path d="M10,13.5c0,0 1.554,0 2.725,0c0.831,0 1.644,0.246 2.336,0.707c0.443,0.295 0.941,0.628 1.322,0.881c0.402,0.269 0.875,0.412 1.359,0.412c0.569,0 1.258,0 1.258,0" style="fill:none;stroke:#f1c500;stroke-width:1px;"/>
        </g>
    </g>
</svg>
