<?xml version="1.0" encoding="UTF-8" standalone="no"?>
<!DOCTYPE svg PUBLIC "-//W3C//DTD SVG 1.1//EN" "http://www.w3.org/Graphics/SVG/1.1/DTD/svg11.dtd">
<svg width="100%" height="100%" viewBox="0 0 32 32" version="1.1" xmlns="http://www.w3.org/2000/svg" xmlns:xlink="http://www.w3.org/1999/xlink" xml:space="preserve" xmlns:serif="http://www.serif.com/" style="fill-rule:evenodd;clip-rule:evenodd;stroke-linecap:round;stroke-linejoin:round;stroke-miterlimit:1.5;">
    <rect id="owl" x="0" y="0" width="32" height="32" style="fill:none;"/>
    <clipPath id="_clip1">
        <rect x="0" y="0" width="32" height="32"/>
    </clipPath>
    <g clip-path="url(#_clip1)">
        <g id="outline">
            <path d="M15,8c-5.523,0 -10,4.477 -10,10c0,0.665 0,1.335 0,2c0,5.523 4.477,10 10,10c0.665,0 1.335,0 2,0c5.523,0 10,-4.477 10,-10c0,-0.665 0,-1.335 0,-2c0,-5.523 -4.477,-10 -10,-10c-0.665,0 -1.335,0 -2,0Z" style="fill:none;stroke:#000;stroke-width:4px;"/>
            <path d="M18,9c0,0 1.413,0 2.737,0c1.34,0 2.517,-0.888 2.885,-2.176c0.587,-2.055 1.378,-4.824 1.378,-4.824c0,0 0,0 -0.001,0c-2.325,0 -4.327,1.641 -4.783,3.921c-0.019,0.096 -0.038,0.188 -0.055,0.275c-0.094,0.468 -0.504,0.804 -0.981,0.804c-0.552,0 -1.18,0 -1.18,0l0,2Z" style="fill:none;stroke:#000;stroke-width:4px;"/>
            <path d="M14,9c0,0 -1.413,0 -2.737,0c-1.34,0 -2.517,-0.888 -2.885,-2.176c-0.587,-2.055 -1.378,-4.824 -1.378,-4.824c0,0 0,0 0.001,0c2.325,0 4.327,1.641 4.783,3.921c0.019,0.096 0.038,0.188 0.055,0.275c0.094,0.468 0.504,0.804 0.981,0.804c0.552,0 1.18,0 1.18,0l0,2Z" style="fill:none;stroke:#000;stroke-width:4px;"/>
            <path d="M28,17c0,-5.523 -4.477,-10 -10,-10c-1.322,0 -2.678,0 -4,0c-5.523,0 -10,4.477 -10,10c0,6.204 0,13 0,13l24,0c0,0 0,-6.796 0,-13Z" style="fill:none;stroke:#000;stroke-width:4px;stroke-linejoin:miter;stroke-miterlimit:3;"/>
        </g>
        <g id="emoji">
            <g>
                <path d="M11.504,5c0.121,0.293 0.216,0.601 0.28,0.921c0.019,0.096 0.038,0.188 0.055,0.275c0.094,0.468 0.504,0.804 0.981,0.804c0.552,0 1.18,0 1.18,0l0,2c0,0 -1.413,0 -2.737,0c0,0 -0.885,-2.257 -1.955,-4l0.096,-0.273l1.569,-0.04l0.531,0.313Z" style="fill:#515151;"/>
                <path d="M9.308,5c-0.657,-1.07 -1.384,-1.946 -2.019,-1.99l-0.289,-1.01c0,0 0,0 0.001,0c1.998,0 3.758,1.212 4.503,3l-2.196,0Z" style="fill:#b28936;"/>
                <path d="M7.289,3.01c1.671,0.115 3.124,1.228 3.66,2.836l1.051,3.154l-0.737,0c-1.34,0 -2.517,-0.888 -2.885,-2.176l-1.089,-3.814Z" style="fill:#343434;"/>
            </g>
            <g>
                <path d="M20.496,5c-0.121,0.293 -0.216,0.601 -0.28,0.921c-0.019,0.096 -0.038,0.188 -0.055,0.275c-0.094,0.468 -0.504,0.804 -0.981,0.804c-0.552,0 -1.18,0 -1.18,0l0,2c0,0 1.413,0 2.737,0c0,0 0.885,-2.257 1.955,-4l-0.096,-0.273l-1.569,-0.04l-0.531,0.313Z" style="fill:#515151;"/>
                <path d="M22.692,5c0.657,-1.07 1.384,-1.946 2.019,-1.99l0.289,-1.01c0,0 0,0 -0.001,0c-1.998,0 -3.758,1.212 -4.503,3l2.196,0Z" style="fill:#b28936;"/>
                <path d="M24.711,3.01c-1.671,0.115 -3.124,1.228 -3.66,2.836l-1.051,3.154l0.737,0c1.34,0 2.517,-0.888 2.885,-2.176l1.089,-3.814Z" style="fill:#343434;"/>
            </g>
            <path d="M28,17c0,-5.523 -4.477,-10 -10,-10c-1.322,0 -2.678,0 -4,0c-5.523,0 -10,4.477 -10,10c0,6.204 0,13 0,13l24,0c0,0 0,-6.796 0,-13Z" style="fill:#515151;"/>
            <clipPath id="_clip2">
                <path d="M28,17c0,-5.523 -4.477,-10 -10,-10c-1.322,0 -2.678,0 -4,0c-5.523,0 -10,4.477 -10,10c0,6.204 0,13 0,13l24,0c0,0 0,-6.796 0,-13Z"/>
            </clipPath>
            <g clip-path="url(#_clip2)">
                <path d="M7,31c-1.105,0 -2,-0.895 -2,-2c0,-1.392 0,-3 0,-3c0,0 0,0 0,0c1.105,0 2,0.895 2,2c0,1.392 0,3 0,3c0,0 0,0 0,0Z" style="fill:#656565;"/>
                <path d="M25,31c1.105,0 2,-0.895 2,-2c0,-1.392 0,-3 0,-3c0,0 0,0 0,0c-1.105,0 -2,0.895 -2,2c0,1.392 0,3 0,3c0,0 0,0 0,0Z" style="fill:#656565;"/>
                <path d="M22,33c1.105,0 2,-0.895 2,-2c0,-1.392 0,-3 0,-3c0,0 0,0 0,0c-1.105,0 -2,0.895 -2,2c0,1.392 0,3 0,3c0,0 0,0 0,0Z" style="fill:#656565;"/>
                <path d="M10,33c-1.105,0 -2,-0.895 -2,-2c0,-1.392 0,-3 0,-3c0,0 0,0 0,0c1.105,0 2,0.895 2,2c0,1.392 0,3 0,3c0,0 0,0 0,0Z" style="fill:#656565;"/>
            </g>
            <path d="M23,9.516c2.412,1.614 4,4.364 4,7.484c0,0.662 0,1.332 0,2c0,3.941 -2.279,7.349 -5.591,8.978l-2.376,-9.938l3.967,-8.524Zm-14,0l3.5,8.484l-1.909,9.978c-3.312,-1.629 -5.591,-5.037 -5.591,-8.978c0,-0.668 0,-1.338 0,-2c0,-3.12 1.588,-5.87 4,-7.484Z" style="fill:#b28936;"/>
            <path d="M9,9.516c1.43,-0.958 3.15,-1.516 5,-1.516c1.32,0 2.68,0 4,0c1.85,0 3.57,0.558 5,1.516l0,0.997c0,0.323 -0.052,0.643 -0.154,0.949c-0.188,0.564 -0.504,1.512 -0.692,2.076c-0.055,0.164 -0.095,0.332 -0.121,0.502c1.679,0.258 2.967,1.71 2.967,3.46c0,1.932 -1.568,3.5 -3.5,3.5l0.496,0.992c0.639,1.277 0.701,2.767 0.17,4.093l-0.757,1.893c-1.33,0.654 -2.827,1.022 -4.409,1.022c-0.665,0 -1.335,0 -2,0c-1.582,0 -3.079,-0.368 -4.409,-1.022l-0.757,-1.893c-0.531,-1.326 -0.469,-2.816 0.17,-4.093l0.496,-0.992c-1.932,0 -3.5,-1.568 -3.5,-3.5c0,-1.75 1.288,-3.202 2.967,-3.46c-0.026,-0.17 -0.066,-0.338 -0.121,-0.502c-0.188,-0.564 -0.504,-1.512 -0.692,-2.076c-0.102,-0.306 -0.154,-0.626 -0.154,-0.949l0,-0.997Z" style="fill:#343434;"/>
            <path d="M10,9l1,1l3,8l0,5l4,0l0,-5l3,-8l1,-1l0,-1l-5,-1l-2,0l-5,1l0,1Z" style="fill:#515151;"/>
            <circle cx="21.5" cy="17.5" r="2.5" style="fill:#e5bf17;"/>
            <clipPath id="_clip3">
                <circle cx="21.5" cy="17.5" r="2.5"/>
            </clipPath>
            <g clip-path="url(#_clip3)">
                <circle cx="21.5" cy="17.5" r="1.5"/>
            </g>
            <circle cx="10.5" cy="17.5" r="2.5" style="fill:#e5bf17;"/>
            <clipPath id="_clip4">
                <circle cx="10.5" cy="17.5" r="2.5"/>
            </clipPath>
            <g clip-path="url(#_clip4)">
                <circle cx="10.5" cy="17.5" r="1.5"/>
            </g>
            <path d="M15,19l-5,3l1,1l-1,3l2,0l1,3l1,-1l1,1l2,0l1,-1l1,1l1,-3l2,0l-1,-3l1,-1l-5,-3l0,4l-2,0l0,-4Z" style="fill:#cecdc8;"/>
            <path d="M16,19l-3,6c0,0 0.814,0.407 1.404,0.702c0.387,0.193 0.701,0.507 0.894,0.894c0.295,0.59 0.702,1.404 0.702,1.404c0,0 0.407,-0.814 0.702,-1.404c0.193,-0.387 0.507,-0.701 0.894,-0.894c0.59,-0.295 1.404,-0.702 1.404,-0.702l-3,-6Z" style="fill:#21201d;"/>
        </g>
        <path d="M19.5,11l0,3l-2,4l0,3" style="fill:none;stroke:#cecdc8;stroke-width:1px;stroke-linejoin:miter;stroke-miterlimit:3;"/>
        <path d="M12.5,11l0,3l2,4l0,3" style="fill:none;stroke:#cecdc8;stroke-width:1px;stroke-linejoin:miter;stroke-miterlimit:3;"/>
        <path d="M19.5,14l1,-1c0,0 0,-1.647 0,-2.5c0,-0.133 -0.053,-0.26 -0.146,-0.354c-0.094,-0.093 -0.221,-0.146 -0.354,-0.146c-0.133,0 -0.26,0.053 -0.354,0.146c-0.093,0.094 -0.146,0.221 -0.146,0.354c0,1.073 0,3.5 0,3.5Z" style="fill:none;stroke:#cecdc8;stroke-width:1px;stroke-miterlimit:3;"/>
        <path d="M12.5,14l-1,-1c0,0 0,-1.647 0,-2.5c0,-0.133 0.053,-0.26 0.146,-0.354c0.094,-0.093 0.221,-0.146 0.354,-0.146c0.133,0 0.26,0.053 0.354,0.146c0.093,0.094 0.146,0.221 0.146,0.354c0,1.073 0,3.5 0,3.5Z" style="fill:none;stroke:#cecdc8;stroke-width:1px;stroke-miterlimit:3;"/>
    </g>
</svg>
