<?xml version="1.0" encoding="UTF-8" standalone="no"?>
<!DOCTYPE svg PUBLIC "-//W3C//DTD SVG 1.1//EN" "http://www.w3.org/Graphics/SVG/1.1/DTD/svg11.dtd">
<svg width="100%" height="100%" viewBox="0 0 32 32" version="1.1" xmlns="http://www.w3.org/2000/svg" xmlns:xlink="http://www.w3.org/1999/xlink" xml:space="preserve" xmlns:serif="http://www.serif.com/" style="fill-rule:evenodd;clip-rule:evenodd;stroke-linecap:round;stroke-miterlimit:3;">
    <rect id="penguin" x="0" y="0" width="32" height="32" style="fill:none;"/>
    <clipPath id="_clip1">
        <rect x="0" y="0" width="32" height="32"/>
    </clipPath>
    <g clip-path="url(#_clip1)">
        <g id="outline">
            <path d="M30,19l-13,0c0,0 -1.412,1.765 -2.558,3.197c-0.933,1.167 -1.442,2.617 -1.442,4.111c0,1.691 0,3.692 0,3.692l17,0l0,-11Z" style="fill:none;stroke:#000;stroke-width:4px;"/>
            <path d="M30,13c0,0 -1.548,-2.477 -2.921,-4.674c-1.293,-2.069 -3.561,-3.326 -6.001,-3.326c-0.202,0 -0.404,0 -0.604,0c-2.224,0 -4.358,0.884 -5.931,2.457c-0.694,0.694 -1.393,1.393 -1.882,1.882c-0.432,0.432 -0.977,0.731 -1.573,0.864c-1.582,0.351 -4.846,1.077 -6.708,1.49c-0.901,0.201 -1.727,0.654 -2.38,1.307c0,0 0,0 0,0c0,0 4.896,1.224 7.028,1.757c0.645,0.161 1.265,0.41 1.842,0.74c1.875,1.072 6.13,3.503 6.13,3.503l13,0l0,-6Z" style="fill:none;stroke:#000;stroke-width:4px;stroke-linejoin:round;"/>
        </g>
        <g id="emoji">
            <path d="M30,13c0,0 -1.548,-2.477 -2.921,-4.674c-1.293,-2.069 -3.561,-3.326 -6.001,-3.326c-0.202,0 -0.404,0 -0.604,0c-2.224,0 -4.358,0.884 -5.931,2.457c-0.694,0.694 -1.393,1.393 -1.882,1.882c-0.432,0.432 -0.977,0.731 -1.573,0.864c-1.582,0.351 -4.846,1.077 -6.708,1.49c-0.901,0.201 -1.727,0.654 -2.38,1.307c0,0 0,0 0,0c0,0 4.896,1.224 7.028,1.757c0.645,0.161 1.265,0.41 1.842,0.74c1.875,1.072 6.13,3.503 6.13,3.503c0,0 -1.412,1.765 -2.558,3.197c-0.933,1.167 -1.442,2.617 -1.442,4.111c0,1.691 0,3.692 0,3.692l17,0l0,-17Z" style="fill:#343434;"/>
            <clipPath id="_clip2">
                <path d="M30,13c0,0 -1.548,-2.477 -2.921,-4.674c-1.293,-2.069 -3.561,-3.326 -6.001,-3.326c-0.202,0 -0.404,0 -0.604,0c-2.224,0 -4.358,0.884 -5.931,2.457c-0.694,0.694 -1.393,1.393 -1.882,1.882c-0.432,0.432 -0.977,0.731 -1.573,0.864c-1.582,0.351 -4.846,1.077 -6.708,1.49c-0.901,0.201 -1.727,0.654 -2.38,1.307c0,0 0,0 0,0c0,0 4.896,1.224 7.028,1.757c0.645,0.161 1.265,0.41 1.842,0.74c1.875,1.072 6.13,3.503 6.13,3.503c0,0 -1.412,1.765 -2.558,3.197c-0.933,1.167 -1.442,2.617 -1.442,4.111c0,1.691 0,3.692 0,3.692l17,0l0,-17Z"/>
            </clipPath>
            <g clip-path="url(#_clip2)">
                <path d="M17,19c0,0 1.459,0.292 2.801,0.56c1.256,0.251 2.503,-0.472 2.908,-1.687c0.075,-0.225 0.124,-0.373 0.124,-0.373l0.167,3.5c0,0 -0.648,0.324 -1.342,0.671c-1.016,0.508 -1.658,1.547 -1.658,2.683c0,0.172 0,0.347 0,0.521c0,1.398 0.325,2.776 0.95,4.025c0.516,1.032 1.05,2.1 1.05,2.1l-10,0l0,-12l5,0Z" style="fill:#fff;"/>
                <path d="M22.731,17.808c-0.232,0.694 -0.733,1.267 -1.391,1.588c-0.834,0.406 -2.039,0.994 -3.094,1.508c-1.374,0.671 -2.246,2.066 -2.246,3.595c0,0.313 0,0.609 0,0.853c0,0.172 0.068,0.337 0.19,0.458c0.121,0.122 0.286,0.19 0.458,0.19c0.002,0 0.003,0 0.005,0c0.217,0 0.419,-0.108 0.539,-0.288c0.279,-0.418 0.805,-1.208 1.219,-1.828c0.386,-0.579 0.917,-1.048 1.539,-1.359c1.947,-0.974 6.362,-3.181 8.211,-4.105c0.514,-0.258 0.839,-0.783 0.839,-1.358c0,-0.001 0,-0.001 0,-0.002c0,-0.64 -0.39,-1.216 -0.984,-1.454c-0.584,-0.233 -1.345,-0.537 -2.047,-0.818c-0.511,-0.205 -1.084,-0.189 -1.584,0.042c-0.5,0.232 -0.882,0.66 -1.056,1.182c-0.205,0.615 -0.422,1.267 -0.598,1.796Z" style="fill:#dd7b1a;"/>
                <clipPath id="_clip3">
                    <path d="M22.731,17.808c-0.232,0.694 -0.733,1.267 -1.391,1.588c-0.834,0.406 -2.039,0.994 -3.094,1.508c-1.374,0.671 -2.246,2.066 -2.246,3.595c0,0.313 0,0.609 0,0.853c0,0.172 0.068,0.337 0.19,0.458c0.121,0.122 0.286,0.19 0.458,0.19c0.002,0 0.003,0 0.005,0c0.217,0 0.419,-0.108 0.539,-0.288c0.279,-0.418 0.805,-1.208 1.219,-1.828c0.386,-0.579 0.917,-1.048 1.539,-1.359c1.947,-0.974 6.362,-3.181 8.211,-4.105c0.514,-0.258 0.839,-0.783 0.839,-1.358c0,-0.001 0,-0.001 0,-0.002c0,-0.64 -0.39,-1.216 -0.984,-1.454c-0.584,-0.233 -1.345,-0.537 -2.047,-0.818c-0.511,-0.205 -1.084,-0.189 -1.584,0.042c-0.5,0.232 -0.882,0.66 -1.056,1.182c-0.205,0.615 -0.422,1.267 -0.598,1.796Z"/>
                </clipPath>
                <g clip-path="url(#_clip3)">
                    <path d="M22,18l9,-3.857l0,12.857l-16,0l0,-9l7,0Z" style="fill:#f0c33a;"/>
                </g>
                <path d="M5,14.5c0,0 0.921,0 1.879,0c1.358,0 2.66,-0.539 3.621,-1.5c0,0 0,0 0,0l-8.5,0l3,1.5Z" style="fill:#dd7b1a;"/>
                <path d="M0,13c0,0 7.041,0 9.307,0c0.461,0 0.921,0.046 1.373,0.136c1.367,0.273 4.32,0.864 4.32,0.864" style="fill:none;stroke:#0e0e0e;stroke-width:1px;"/>
            </g>
            <circle cx="19" cy="11" r="2" style="fill:#848484;"/>
            <clipPath id="_clip4">
                <circle cx="19" cy="11" r="2"/>
            </clipPath>
            <g clip-path="url(#_clip4)">
                <circle cx="19" cy="11" r="1"/>
            </g>
        </g>
    </g>
</svg>
