<?xml version="1.0" encoding="UTF-8" standalone="no"?>
<!DOCTYPE svg PUBLIC "-//W3C//DTD SVG 1.1//EN" "http://www.w3.org/Graphics/SVG/1.1/DTD/svg11.dtd">
<svg width="100%" height="100%" viewBox="0 0 32 32" version="1.1" xmlns="http://www.w3.org/2000/svg" xmlns:xlink="http://www.w3.org/1999/xlink" xml:space="preserve" xmlns:serif="http://www.serif.com/" style="fill-rule:evenodd;clip-rule:evenodd;stroke-linecap:round;stroke-miterlimit:3;">
    <rect id="rooster" x="0" y="0" width="32" height="32" style="fill:none;"/>
    <clipPath id="_clip1">
        <rect x="0" y="0" width="32" height="32"/>
    </clipPath>
    <g clip-path="url(#_clip1)">
        <g id="outline">
            <path d="M29,30c0,0 -1.107,-6.644 -2.157,-12.94c-0.483,-2.9 -2.122,-5.48 -4.541,-7.15c-2.42,-1.67 -5.414,-2.288 -8.296,-1.711c-0.183,0.036 -0.361,0.072 -0.536,0.107c-2.189,0.438 -4.054,1.862 -5.053,3.859c-0.721,1.443 -1.417,2.835 -1.417,2.835l6,3c0,0 0.861,0.574 1.66,1.107c0.766,0.51 1.031,1.51 0.62,2.333c-0.27,0.539 -0.586,1.171 -0.895,1.79c-0.911,1.822 -1.385,3.83 -1.385,5.867c0,0.524 0,0.903 0,0.903l16,0Z" style="fill:none;stroke:#000;stroke-width:4px;"/>
            <path d="M8,12l3,5c0,0 -0.991,-0.495 -1.578,-0.789c-0.277,-0.139 -0.584,-0.211 -0.894,-0.211c-1.416,0 -5.528,0 -5.528,0c0,0 0.887,-0.887 1.48,-1.48c0.346,-0.346 0.725,-0.657 1.132,-0.928c0.878,-0.585 2.388,-1.592 2.388,-1.592Z" style="fill:none;stroke:#000;stroke-width:4px;"/>
            <path d="M8,13c0,0 0,-0.931 0,-1.895c0,-1.363 0.464,-2.685 1.315,-3.748c1.166,-1.458 2.685,-3.357 2.685,-3.357l0,2c0,0 0.041,-0.081 0.106,-0.211c0.58,-1.161 1.522,-2.103 2.683,-2.683c0.13,-0.065 0.211,-0.106 0.211,-0.106l0,2c0,0 0,0 0,0c0.64,-1.281 1.763,-2.254 3.121,-2.707c0.494,-0.165 0.879,-0.293 0.879,-0.293l0,4c0,0 0.041,-0.081 0.106,-0.211c0.548,-1.096 1.668,-1.789 2.894,-1.789c0,0 0,0 0,0l0,2c0,0 0.128,-0.128 0.293,-0.293c0.453,-0.453 1.067,-0.707 1.707,-0.707c0,0 0,0 0,0c0,0 0,0.5 0,1c0,0.649 -0.211,1.281 -0.6,1.8c-0.875,1.167 -2.4,3.2 -2.4,3.2l-11,0l0,2l-2,0Z" style="fill:none;stroke:#000;stroke-width:4px;stroke-linejoin:round;"/>
            <path d="M10,17c0,0 0,0.62 0,1.169c0,0.544 -0.148,1.077 -0.428,1.544c-0.38,0.633 -0.952,1.587 -1.461,2.435c-0.286,0.478 -0.361,1.053 -0.205,1.588c0.156,0.535 0.527,0.981 1.026,1.23c0.137,0.069 0.276,0.138 0.411,0.206c0.935,0.467 2.072,0.136 2.61,-0.76c0.878,-1.464 2.047,-3.412 2.047,-3.412l3,0l0,-4l-7,0Z" style="fill:none;stroke:#000;stroke-width:4px;stroke-linejoin:round;"/>
        </g>
        <g id="emoji">
            <path d="M8,13c0,0 0,-0.931 0,-1.895c0,-1.363 0.464,-2.685 1.315,-3.748c1.166,-1.458 2.685,-3.357 2.685,-3.357l0,2c0,0 0.041,-0.081 0.106,-0.211c0.58,-1.161 1.522,-2.103 2.683,-2.683c0.13,-0.065 0.211,-0.106 0.211,-0.106l0,2c0,0 0,0 0,0c0.64,-1.281 1.763,-2.254 3.121,-2.707c0.494,-0.165 0.879,-0.293 0.879,-0.293l0,4c0,0 0.041,-0.081 0.106,-0.211c0.548,-1.096 1.668,-1.789 2.894,-1.789c0,0 0,0 0,0l0,2c0,0 0.128,-0.128 0.293,-0.293c0.453,-0.453 1.067,-0.707 1.707,-0.707c0,0 0,0 0,0c0,0 0,0.5 0,1c0,0.649 -0.211,1.281 -0.6,1.8c-0.875,1.167 -2.4,3.2 -2.4,3.2l-11,0l0,2l-2,0Z" style="fill:#d4211e;"/>
            <path d="M29,30c0,0 -1.107,-6.644 -2.157,-12.94c-0.483,-2.9 -2.122,-5.48 -4.541,-7.15c-2.42,-1.67 -5.414,-2.288 -8.296,-1.711c-0.183,0.036 -0.361,0.072 -0.536,0.107c-2.189,0.438 -4.054,1.862 -5.053,3.859c-0.721,1.443 -1.417,2.835 -1.417,2.835c0,0 4.863,2.432 5.833,2.916c0.111,0.056 0.219,0.119 0.322,0.188c0.284,0.189 0.912,0.607 1.505,1.003c0.766,0.51 1.031,1.51 0.62,2.333c-0.27,0.539 -0.586,1.171 -0.895,1.79c-0.911,1.822 -1.385,3.83 -1.385,5.867c0,0.524 0,0.903 0,0.903l16,0Z" style="fill:#8a4714;"/>
            <clipPath id="_clip2">
                <path d="M29,30c0,0 -1.107,-6.644 -2.157,-12.94c-0.483,-2.9 -2.122,-5.48 -4.541,-7.15c-2.42,-1.67 -5.414,-2.288 -8.296,-1.711c-0.183,0.036 -0.361,0.072 -0.536,0.107c-2.189,0.438 -4.054,1.862 -5.053,3.859c-0.721,1.443 -1.417,2.835 -1.417,2.835c0,0 4.863,2.432 5.833,2.916c0.111,0.056 0.219,0.119 0.322,0.188c0.284,0.189 0.912,0.607 1.505,1.003c0.766,0.51 1.031,1.51 0.62,2.333c-0.27,0.539 -0.586,1.171 -0.895,1.79c-0.911,1.822 -1.385,3.83 -1.385,5.867c0,0.524 0,0.903 0,0.903l16,0Z"/>
            </clipPath>
            <g clip-path="url(#_clip2)">
                <path d="M11,28l4,-4l0,4l6,-6l0,4l5,-5l0,4l4,-4l0,11l-25,0l0,-4l2,0l4,-4l0,4Z" style="fill:#ca6315;"/>
                <path d="M5,9l6,0c0,0 0,0.449 0,1c0,1.105 0.895,2 2,2l2.637,0c0.627,0 1.228,0.249 1.671,0.692c0.443,0.443 0.692,1.044 0.692,1.671c0,0.027 0,0.053 0,0.079c0,0.367 -0.085,0.729 -0.249,1.057c-0.352,0.702 -0.993,1.986 -1.395,2.788c-0.233,0.467 -0.584,0.865 -1.019,1.155c-0.883,0.589 -2.337,1.558 -2.337,1.558l-8,-4l0,-8Z" style="fill:#d4211e;"/>
            </g>
            <circle cx="14" cy="14" r="2" style="fill:#de742e;"/>
            <circle cx="14" cy="14" r="1"/>
            <path d="M10,16c0,0 0,1.281 0,2.169c0,0.544 -0.148,1.077 -0.428,1.544c-0.38,0.633 -0.952,1.587 -1.461,2.435c-0.286,0.478 -0.361,1.053 -0.205,1.588c0.156,0.535 0.527,0.981 1.026,1.23c0.137,0.069 0.276,0.138 0.411,0.206c0.935,0.467 2.072,0.136 2.61,-0.76c0.878,-1.464 2.047,-3.412 2.047,-3.412c0,0 1.084,-1.084 1.656,-1.656c0.228,-0.228 0.418,-0.491 0.562,-0.779c0.294,-0.589 0.782,-1.565 0.782,-1.565l-7,-1Z" style="fill:#d4211e;"/>
            <path d="M3,16c0,0 0.848,-0.848 1.44,-1.44c0.372,-0.372 0.781,-0.707 1.219,-0.999c0.883,-0.589 2.341,-1.561 2.341,-1.561l3,5c0,0 -0.991,-0.495 -1.578,-0.789c-0.277,-0.139 -0.584,-0.211 -0.894,-0.211c-1.416,0 -5.528,0 -5.528,0Z" style="fill:#c8a031;"/>
        </g>
    </g>
</svg>
