<?xml version="1.0" encoding="UTF-8" standalone="no"?><!DOCTYPE svg PUBLIC "-//W3C//DTD SVG 1.1//EN" "http://www.w3.org/Graphics/SVG/1.1/DTD/svg11.dtd"><svg width="100%" height="100%" viewBox="0 0 32 32" version="1.1" xmlns="http://www.w3.org/2000/svg" xmlns:xlink="http://www.w3.org/1999/xlink" xml:space="preserve" xmlns:serif="http://www.serif.com/" style="fill-rule:evenodd;clip-rule:evenodd;stroke-linecap:round;stroke-linejoin:round;stroke-miterlimit:1.5;"><rect id="dash" x="0" y="0" width="32" height="32" style="fill:none;"/><clipPath id="_clip1"><rect x="0" y="0" width="32" height="32"/></clipPath><g clip-path="url(#_clip1)"><g id="outline"><path d="M22.17,20.596l0.355,0.315c0.876,0.779 1.373,1.898 1.362,3.07c-0.01,1.172 -0.527,2.282 -1.417,3.045c-0.06,0.051 -0.121,0.103 -0.181,0.155c-0.852,0.73 -1.969,1.075 -3.084,0.953c-1.116,-0.123 -2.131,-0.701 -2.804,-1.599c-1.621,-2.161 -3.401,-4.535 -3.401,-4.535l-11,-3l4,-3l-4,-3l11,-3c0,0 1.78,-2.374 3.401,-4.535c0.673,-0.898 1.688,-1.476 2.804,-1.599c1.115,-0.122 2.232,0.223 3.084,0.953c0.06,0.052 0.121,0.104 0.181,0.155c0.89,0.763 1.407,1.873 1.417,3.045c0.011,1.172 -0.486,2.291 -1.362,3.07l-0.355,0.315c1.627,-0.909 3.615,-0.89 5.225,0.051c1.613,0.944 2.605,2.673 2.605,4.542c0,0.002 0,0.004 0,0.006c0,1.869 -0.992,3.598 -2.605,4.542c-1.61,0.941 -3.598,0.96 -5.225,0.051Z" style="fill:none;stroke:#000;stroke-width:4px;"/><path d="M6,8l5,-3" style="fill:none;stroke:#000;stroke-width:7px;"/><path d="M6,24l5,3" style="fill:none;stroke:#000;stroke-width:7px;"/></g><g id="emoji"><path d="M6,24l5,3" style="fill:none;stroke:#fff;stroke-width:3px;"/><path d="M22.17,20.596l0.355,0.315c0.876,0.779 1.373,1.898 1.362,3.07c-0.01,1.172 -0.527,2.282 -1.417,3.045c-0.06,0.051 -0.121,0.103 -0.181,0.155c-0.852,0.73 -1.969,1.075 -3.084,0.953c-1.116,-0.123 -2.131,-0.701 -2.804,-1.599c-1.621,-2.161 -3.401,-4.535 -3.401,-4.535l-11,-3l4,-3l-4,-3l11,-3c0,0 1.78,-2.374 3.401,-4.535c0.673,-0.898 1.688,-1.476 2.804,-1.599c1.115,-0.122 2.232,0.223 3.084,0.953c0.06,0.052 0.121,0.104 0.181,0.155c0.89,0.763 1.407,1.873 1.417,3.045c0.011,1.172 -0.486,2.291 -1.362,3.07l-0.355,0.315c1.627,-0.909 3.615,-0.89 5.225,0.051c1.613,0.944 2.605,2.673 2.605,4.542c0,0.002 0,0.004 0,0.006c0,1.869 -0.992,3.598 -2.605,4.542c-1.61,0.941 -3.598,0.96 -5.225,0.051Z" style="fill:#fff;"/><path d="M6,8l5,-3" style="fill:none;stroke:#fff;stroke-width:3px;"/></g></g></svg>