<?xml version="1.0" encoding="UTF-8" standalone="no"?><!DOCTYPE svg PUBLIC "-//W3C//DTD SVG 1.1//EN" "http://www.w3.org/Graphics/SVG/1.1/DTD/svg11.dtd"><svg width="100%" height="100%" viewBox="0 0 32 32" version="1.1" xmlns="http://www.w3.org/2000/svg" xmlns:xlink="http://www.w3.org/1999/xlink" xml:space="preserve" xmlns:serif="http://www.serif.com/" style="fill-rule:evenodd;clip-rule:evenodd;stroke-linecap:round;stroke-linejoin:round;stroke-miterlimit:1.5;"><rect id="dizzy" x="0" y="0" width="32" height="32" style="fill:none;"/><g id="outline"><path d="M18.411,12.646c6.213,3.587 10.178,8.371 8.847,10.675c-1.33,2.305 -7.455,1.263 -13.669,-2.324c-6.213,-3.588 -10.178,-8.371 -8.847,-10.676c1.33,-2.304 7.455,-1.262 13.669,2.325Z" style="fill:none;stroke:#000;stroke-width:6px;"/><ellipse cx="16" cy="16.821" rx="13" ry="4.821" style="fill:none;stroke:#000;stroke-width:6px;"/><path d="M21,7l3,-1l1,-4l1,4l3,1l-3,1l-1,4l-1,-4l-3,-1Z" style="fill:none;stroke:#000;stroke-width:4px;"/><path d="M11,25l3,-1l1,-4l1,4l3,1l-3,1l-1,4l-1,-4l-3,-1Z" style="fill:none;stroke:#000;stroke-width:4px;"/><path d="M4,11l3,-1l1,-4l1,4l3,1l-3,1l-1,4l-1,-4l-3,-1Z" style="fill:none;stroke:#000;stroke-width:4px;"/></g><g id="emoji"><path d="M18.411,12.646c6.213,3.587 10.178,8.371 8.847,10.675c-1.33,2.305 -7.455,1.263 -13.669,-2.324c-6.213,-3.588 -10.178,-8.371 -8.847,-10.676c1.33,-2.304 7.455,-1.262 13.669,2.325Z" style="fill:none;stroke:#982eee;stroke-width:2px;"/><ellipse cx="16" cy="16.821" rx="13" ry="4.821" style="fill:none;stroke:#982eee;stroke-width:2px;"/><path d="M21,7l3,-1l1,-4l1,4l3,1l-3,1l-1,4l-1,-4l-3,-1Z" style="fill:#fdef24;"/><path d="M11,25l3,-1l1,-4l1,4l3,1l-3,1l-1,4l-1,-4l-3,-1Z" style="fill:#fdef24;"/><path d="M4,11l3,-1l1,-4l1,4l3,1l-3,1l-1,4l-1,-4l-3,-1Z" style="fill:#fdef24;"/></g></svg>