<?xml version="1.0" encoding="UTF-8" standalone="no"?><!DOCTYPE svg PUBLIC "-//W3C//DTD SVG 1.1//EN" "http://www.w3.org/Graphics/SVG/1.1/DTD/svg11.dtd"><svg width="100%" height="100%" viewBox="0 0 32 32" version="1.1" xmlns="http://www.w3.org/2000/svg" xmlns:xlink="http://www.w3.org/1999/xlink" xml:space="preserve" xmlns:serif="http://www.serif.com/" style="fill-rule:evenodd;clip-rule:evenodd;stroke-linecap:round;stroke-linejoin:round;stroke-miterlimit:1.5;"><rect id="bang" x="0" y="0" width="32" height="32" style="fill:none;"/><clipPath id="_clip1"><rect x="0" y="0" width="32" height="32"/></clipPath><g clip-path="url(#_clip1)"><g id="outline"><path d="M16,2l3.182,5l7.818,-4l-3,7l6,1l-5,5l5,5l-6,1l3,7l-7.818,-4l-3.182,5l-3.182,-5l-7.818,4l3,-7l-6,-1l5,-5l-5,-5l6,-1l-3,-7l7.818,4l3.182,-5Z" style="fill:none;stroke:#000;stroke-width:4px;"/></g><g id="emoji"><path d="M16,2l3.182,5l7.818,-4l-3,7l6,1l-5,5l5,5l-6,1l3,7l-7.818,-4l-3.182,5l-3.182,-5l-7.818,4l3,-7l-6,-1l5,-5l-5,-5l6,-1l-3,-7l7.818,4l3.182,-5Z" style="fill:#f30800;"/><path d="M16,5l2,5l5,-3l-2,5l6,0l-5,4l5,4l-6,0l2,5l-5,-3l-2,5l-2,-5l-5,3l2,-5l-6,0l5,-4l-5,-4l6,0l-2,-5l5,3l2,-5Z" style="fill:#ffa32b;"/></g></g></svg>