<?xml version="1.0" encoding="UTF-8" standalone="no"?><!DOCTYPE svg PUBLIC "-//W3C//DTD SVG 1.1//EN" "http://www.w3.org/Graphics/SVG/1.1/DTD/svg11.dtd"><svg width="100%" height="100%" viewBox="0 0 32 32" version="1.1" xmlns="http://www.w3.org/2000/svg" xmlns:xlink="http://www.w3.org/1999/xlink" xml:space="preserve" xmlns:serif="http://www.serif.com/" style="fill-rule:evenodd;clip-rule:evenodd;stroke-linecap:round;"><rect id="fire" x="0" y="0" width="32" height="32" style="fill:none;"/><clipPath id="_clip1"><rect x="0" y="0" width="32" height="32"/></clipPath><g clip-path="url(#_clip1)"><g id="outline"><path d="M16,30l0,0c-6.627,0 -12,-5.373 -12,-12c0,-3.785 0,-7 0,-7c0,0 0.902,0 2.278,0c1.27,0 2.521,0.176 3.722,0.514l0,-0.516c0,-4.969 4.028,-8.998 8.998,-8.998l0.002,0l0,4.63c1.28,-0.414 2.628,-0.63 3.998,-0.63l0.002,0l0,10.091c1.554,-0.712 3.256,-1.091 4.998,-1.091l0.002,0l0,3c0,6.627 -5.373,12 -12,12Zm14,-23l0,1.413c0,1.216 -0.483,2.383 -1.344,3.243c-0.86,0.861 -2.027,1.344 -3.243,1.344c-0.257,0 -0.413,0 -0.413,0c0,0 0,-0.596 0,-1.413c0,-1.216 0.483,-2.383 1.344,-3.243c0.86,-0.861 2.027,-1.344 3.243,-1.344l0.413,0Zm-22,2l-1.413,0c-1.216,0 -2.383,-0.483 -3.243,-1.344c-0.861,-0.86 -1.344,-2.027 -1.344,-3.243c0,-1.321 0,-2.413 0,-2.413c0,0 0.596,0 1.413,0c1.216,0 2.383,0.483 3.243,1.344c0.861,0.86 1.344,2.027 1.344,3.243l0,2.413Z" style="fill:none;stroke:#000;stroke-width:4px;"/></g><g id="emoji"><path d="M30,7c0,0 -0.156,0 -0.413,0c-1.216,0 -2.383,0.483 -3.243,1.344c-0.861,0.86 -1.344,2.027 -1.344,3.243c0,0.817 0,1.413 0,1.413c0,0 0.156,0 0.413,0c1.216,0 2.383,-0.483 3.243,-1.344c0.861,-0.86 1.344,-2.027 1.344,-3.243c0,-0.817 0,-1.413 0,-1.413Z" style="fill:#f05400;"/><path d="M2,2c0,0 0.596,0 1.413,0c1.216,0 2.383,0.483 3.243,1.344c0.861,0.86 1.344,2.027 1.344,3.243c0,1.321 0,2.413 0,2.413c0,0 -0.596,0 -1.413,0c-1.216,0 -2.383,-0.483 -3.243,-1.344c-0.861,-0.86 -1.344,-2.027 -1.344,-3.243c0,-1.321 0,-2.413 0,-2.413Z" style="fill:#f05400;"/><path d="M16,30l0,0c-6.627,0 -12,-5.373 -12,-12c0,-3.785 0,-7 0,-7c0,0 0.902,0 2.278,0c1.27,0 2.521,0.176 3.722,0.514l0,-0.516c0,-4.969 4.028,-8.998 8.998,-8.998l0.002,0l0,4.63c1.28,-0.414 2.628,-0.63 3.998,-0.63l0.002,0l0,10.091c1.554,-0.712 3.256,-1.091 4.998,-1.091l0.002,0l0,3c0,6.627 -5.373,12 -12,12Z" style="fill:#f05400;"/><path d="M17.998,6l0.002,0l0,6.937c1.231,-0.611 2.598,-0.937 3.998,-0.937l0.002,0l0,6c0,0.433 -0.031,0.859 -0.09,1.276c0.666,-0.18 1.367,-0.276 2.09,-0.276l2,0l0,0c0,5.523 -4.477,10 -10,10l0,0l0,0c-5.523,0 -10,-4.477 -10,-10c0,-2.754 0,-5 0,-5c0,0 0.378,0 1,0c1.411,0 2.76,0.266 4,0.75l0,-1.752c0,-3.865 3.133,-6.998 6.998,-6.998Z" style="fill:#f08c00;"/><path d="M16.998,12l0.002,0l0,4.999c0.86,-0.645 1.911,-0.999 2.998,-0.999l0.002,0l0,4c0,0.492 -0.071,0.968 -0.204,1.417c0.682,-0.269 1.425,-0.417 2.202,-0.417l1.002,0l0,0c0,3.314 -2.686,6 -6,6l-1,0l0,0c-4.418,0 -8,-3.582 -8,-8c0,-1.175 0,-2 0,-2c0,0 0.538,0 1.334,0c1.354,0 2.614,0.404 3.666,1.098l0,-2.1c0,-2.208 1.79,-3.998 3.998,-3.998Z" style="fill:#ffbf36;"/></g></g></svg>