<?xml version="1.0" encoding="UTF-8" standalone="no"?><!DOCTYPE svg PUBLIC "-//W3C//DTD SVG 1.1//EN" "http://www.w3.org/Graphics/SVG/1.1/DTD/svg11.dtd"><svg width="100%" height="100%" viewBox="0 0 32 32" version="1.1" xmlns="http://www.w3.org/2000/svg" xmlns:xlink="http://www.w3.org/1999/xlink" xml:space="preserve" xmlns:serif="http://www.serif.com/" style="fill-rule:evenodd;clip-rule:evenodd;stroke-linecap:round;stroke-linejoin:round;stroke-miterlimit:1.5;"><rect id="shining_star" x="0" y="0" width="32" height="32" style="fill:none;"/><clipPath id="_clip1"><rect x="0" y="0" width="32" height="32"/></clipPath><g clip-path="url(#_clip1)"><g id="emoji"><g><path d="M16,15l-8.296,-11.453" style="fill:none;stroke:#000;stroke-width:6px;"/><path d="M10.193,6.983l-2.489,-3.436" style="fill:none;stroke:#fdef24;stroke-width:2px;"/></g><g><path d="M16,15l8.296,-11.453" style="fill:none;stroke:#000;stroke-width:6px;"/><path d="M21.807,6.983l2.489,-3.436" style="fill:none;stroke:#fdef24;stroke-width:2px;"/></g><g><path d="M16,15l0.047,14.142" style="fill:none;stroke:#000;stroke-width:6px;"/><path d="M16.033,24.899l0.014,4.243" style="fill:none;stroke:#fdef24;stroke-width:2px;"/></g><g><path d="M16,15l-13.436,4.412" style="fill:none;stroke:#000;stroke-width:6px;"/><path d="M6.595,18.089l-4.031,1.323" style="fill:none;stroke:#fdef24;stroke-width:2px;"/></g><g><path d="M16,15l13.436,4.412" style="fill:none;stroke:#000;stroke-width:6px;"/><path d="M25.405,18.089l4.031,1.323" style="fill:none;stroke:#fdef24;stroke-width:2px;"/></g><path d="M15.049,3.927c0.134,-0.412 0.518,-0.691 0.951,-0.691c0.433,0 0.817,0.279 0.951,0.691c0.925,2.847 2.192,6.747 2.192,6.747c0,0 4.1,0 7.094,0c0.433,0 0.817,0.279 0.951,0.691c0.134,0.412 -0.013,0.863 -0.363,1.118c-2.422,1.76 -5.739,4.169 -5.739,4.169c0,0 1.267,3.9 2.192,6.747c0.134,0.412 -0.013,0.864 -0.363,1.118c-0.351,0.255 -0.825,0.255 -1.176,0c-2.422,-1.76 -5.739,-4.169 -5.739,-4.169c0,0 -3.317,2.409 -5.739,4.169c-0.351,0.255 -0.825,0.255 -1.176,0c-0.35,-0.254 -0.497,-0.706 -0.363,-1.118c0.925,-2.847 2.192,-6.747 2.192,-6.747c0,0 -3.317,-2.409 -5.739,-4.169c-0.35,-0.255 -0.497,-0.706 -0.363,-1.118c0.134,-0.412 0.518,-0.691 0.951,-0.691c2.994,0 7.094,0 7.094,0c0,0 1.267,-3.9 2.192,-6.747Z" style="fill:#fdef24;"/><path d="M16.121,1.238l0.12,0.007l0.119,0.012l0.118,0.017l0.117,0.021l0.116,0.026l0.115,0.03l0.112,0.035l0.111,0.039l0.108,0.043l0.107,0.047l0.105,0.051l0.102,0.055l0.1,0.059l0.098,0.062l0.095,0.067l0.092,0.07l0.089,0.073l0.088,0.077l0.084,0.08l0.08,0.084l0.078,0.087l0.075,0.09l0.071,0.093l0.067,0.097l0.064,0.099l0.061,0.102l0.056,0.105l0.053,0.107l0.048,0.11l0.044,0.112l0.033,0.095l1.749,5.384l5.661,0l0.101,0.002l0.12,0.007l0.119,0.012l0.119,0.017l0.117,0.021l0.115,0.026l0.115,0.03l0.112,0.035l0.111,0.039l0.109,0.043l0.106,0.047l0.105,0.051l0.102,0.055l0.1,0.059l0.098,0.062l0.095,0.066l0.092,0.07l0.09,0.074l0.087,0.077l0.084,0.08l0.08,0.084l0.078,0.087l0.075,0.09l0.071,0.093l0.068,0.096l0.064,0.1l0.06,0.101l0.056,0.105l0.053,0.108l0.048,0.11l0.044,0.111l0.04,0.115l0.035,0.115l0.03,0.117l0.025,0.117l0.021,0.117l0.016,0.118l0.011,0.119l0.007,0.117l0.002,0.118l-0.003,0.117l-0.008,0.117l-0.011,0.116l-0.017,0.115l-0.02,0.115l-0.025,0.113l-0.03,0.112l-0.033,0.111l-0.038,0.109l-0.042,0.108l-0.047,0.107l-0.05,0.104l-0.055,0.103l-0.059,0.101l-0.062,0.099l-0.067,0.096l-0.071,0.094l-0.074,0.092l-0.079,0.089l-0.082,0.086l-0.085,0.083l-0.09,0.08l-0.093,0.076l-0.08,0.061l-4.58,3.327l1.749,5.384l0.029,0.097l0.031,0.116l0.025,0.117l0.021,0.118l0.016,0.118l0.011,0.118l0.006,0.118l0.002,0.118l-0.002,0.117l-0.008,0.116l-0.012,0.117l-0.016,0.115l-0.02,0.114l-0.026,0.114l-0.029,0.111l-0.034,0.111l-0.038,0.11l-0.042,0.108l-0.046,0.106l-0.05,0.105l-0.055,0.103l-0.059,0.1l-0.062,0.099l-0.067,0.097l-0.071,0.094l-0.074,0.091l-0.079,0.089l-0.082,0.086l-0.086,0.083l-0.089,0.08l-0.093,0.077l-0.097,0.073l-0.099,0.069l-0.101,0.064l-0.104,0.061l-0.105,0.056l-0.107,0.051l-0.109,0.048l-0.11,0.042l-0.112,0.038l-0.112,0.034l-0.113,0.029l-0.114,0.025l-0.115,0.02l-0.115,0.015l-0.116,0.012l-0.115,0.006l-0.116,0.003l-0.116,-0.003l-0.116,-0.006l-0.115,-0.012l-0.115,-0.015l-0.115,-0.02l-0.114,-0.025l-0.113,-0.029l-0.113,-0.034l-0.111,-0.038l-0.11,-0.042l-0.109,-0.048l-0.107,-0.051l-0.105,-0.056l-0.104,-0.061l-0.102,-0.064l-0.082,-0.058l-4.58,-3.327l-4.58,3.327l-0.082,0.058l-0.102,0.064l-0.104,0.061l-0.105,0.056l-0.107,0.051l-0.109,0.048l-0.11,0.042l-0.111,0.038l-0.113,0.034l-0.113,0.029l-0.114,0.025l-0.115,0.02l-0.115,0.015l-0.115,0.012l-0.116,0.006l-0.116,0.003l-0.116,-0.003l-0.115,-0.006l-0.116,-0.012l-0.115,-0.015l-0.115,-0.02l-0.114,-0.025l-0.113,-0.029l-0.113,-0.034l-0.111,-0.038l-0.11,-0.042l-0.109,-0.048l-0.107,-0.051l-0.105,-0.056l-0.104,-0.061l-0.101,-0.064l-0.099,-0.069l-0.097,-0.073l-0.093,-0.077l-0.089,-0.08l-0.086,-0.083l-0.082,-0.086l-0.079,-0.089l-0.074,-0.091l-0.071,-0.094l-0.067,-0.097l-0.062,-0.099l-0.059,-0.1l-0.055,-0.103l-0.05,-0.105l-0.046,-0.106l-0.042,-0.108l-0.038,-0.11l-0.034,-0.111l-0.029,-0.112l-0.026,-0.113l-0.02,-0.114l-0.016,-0.115l-0.012,-0.117l-0.008,-0.116l-0.002,-0.118l0.002,-0.117l0.006,-0.118l0.011,-0.118l0.016,-0.118l0.021,-0.118l0.025,-0.117l0.031,-0.116l0.029,-0.097l1.749,-5.384l-4.58,-3.327l-0.08,-0.061l-0.093,-0.076l-0.089,-0.08l-0.086,-0.083l-0.082,-0.086l-0.079,-0.089l-0.074,-0.092l-0.071,-0.094l-0.067,-0.096l-0.062,-0.099l-0.059,-0.101l-0.055,-0.103l-0.05,-0.104l-0.047,-0.107l-0.042,-0.108l-0.038,-0.109l-0.033,-0.111l-0.03,-0.112l-0.025,-0.113l-0.02,-0.115l-0.017,-0.115l-0.011,-0.116l-0.008,-0.117l-0.003,-0.117l0.002,-0.118l0.007,-0.117l0.011,-0.119l0.016,-0.118l0.021,-0.117l0.025,-0.117l0.03,-0.117l0.035,-0.115l0.04,-0.115l0.044,-0.112l0.048,-0.109l0.053,-0.108l0.056,-0.104l0.06,-0.102l0.064,-0.1l0.068,-0.096l0.071,-0.093l0.075,-0.09l0.078,-0.087l0.08,-0.084l0.084,-0.08l0.087,-0.077l0.09,-0.074l0.092,-0.07l0.095,-0.066l0.098,-0.062l0.1,-0.059l0.102,-0.055l0.105,-0.051l0.106,-0.047l0.109,-0.043l0.111,-0.039l0.112,-0.035l0.115,-0.03l0.115,-0.026l0.117,-0.021l0.119,-0.017l0.119,-0.012l0.12,-0.007l0.101,-0.002l5.661,0l1.749,-5.384l0.033,-0.095l0.044,-0.112l0.048,-0.11l0.053,-0.107l0.056,-0.105l0.061,-0.102l0.064,-0.1l0.067,-0.096l0.071,-0.093l0.075,-0.09l0.078,-0.087l0.08,-0.084l0.084,-0.08l0.087,-0.077l0.09,-0.073l0.092,-0.07l0.096,-0.067l0.097,-0.062l0.1,-0.059l0.102,-0.055l0.105,-0.051l0.107,-0.047l0.108,-0.043l0.111,-0.039l0.112,-0.035l0.115,-0.03l0.116,-0.026l0.117,-0.021l0.118,-0.017l0.119,-0.012l0.12,-0.007l0.121,-0.002l0.121,0.002Zm-0.161,1.999l-0.041,0.002l-0.039,0.004l-0.04,0.006l-0.039,0.007l-0.038,0.009l-0.038,0.01l-0.038,0.011l-0.036,0.013l-0.037,0.014l-0.035,0.016l-0.035,0.017l-0.034,0.018l-0.034,0.02l-0.032,0.021l-0.032,0.022l-0.031,0.023l-0.03,0.025l-0.029,0.026l-0.028,0.026l-0.027,0.028l-0.025,0.029l-0.025,0.03l-0.024,0.031l-0.022,0.032l-0.022,0.033l-0.02,0.034l-0.019,0.035l-0.017,0.036l-0.016,0.036l-0.015,0.038l-0.013,0.038l-2.192,6.747l-7.094,0l-0.041,0.001l-0.04,0.002l-0.039,0.004l-0.04,0.006l-0.039,0.007l-0.038,0.008l-0.038,0.01l-0.038,0.012l-0.036,0.013l-0.037,0.014l-0.035,0.016l-0.035,0.017l-0.034,0.018l-0.034,0.02l-0.032,0.021l-0.032,0.022l-0.031,0.023l-0.03,0.025l-0.029,0.025l-0.028,0.027l-0.027,0.028l-0.026,0.029l-0.024,0.03l-0.024,0.031l-0.023,0.032l-0.021,0.033l-0.02,0.034l-0.019,0.035l-0.017,0.035l-0.016,0.037l-0.015,0.038l-0.013,0.038l-0.012,0.038l-0.01,0.039l-0.008,0.039l-0.007,0.04l-0.006,0.039l-0.003,0.039l-0.003,0.039l0,0.039l0.001,0.039l0.002,0.039l0.004,0.039l0.006,0.038l0.006,0.039l0.009,0.037l0.01,0.038l0.011,0.037l0.012,0.036l0.015,0.036l0.015,0.036l0.017,0.035l0.018,0.034l0.02,0.034l0.02,0.032l0.023,0.033l0.023,0.031l0.025,0.03l0.026,0.03l0.027,0.029l0.029,0.027l0.03,0.027l0.031,0.025l0.032,0.025l5.739,4.169l-2.192,6.747l-0.012,0.039l-0.01,0.039l-0.008,0.039l-0.007,0.039l-0.005,0.039l-0.004,0.04l-0.002,0.039l-0.001,0.039l0.001,0.039l0.002,0.039l0.004,0.038l0.006,0.039l0.007,0.038l0.008,0.038l0.01,0.037l0.011,0.037l0.013,0.037l0.014,0.036l0.015,0.035l0.017,0.035l0.018,0.034l0.02,0.034l0.021,0.033l0.022,0.032l0.023,0.031l0.025,0.031l0.026,0.029l0.028,0.029l0.028,0.028l0.03,0.026l0.031,0.026l0.032,0.024l0.034,0.023l0.033,0.022l0.035,0.02l0.035,0.019l0.036,0.017l0.036,0.016l0.037,0.014l0.037,0.012l0.037,0.012l0.038,0.009l0.038,0.009l0.038,0.006l0.038,0.005l0.039,0.004l0.038,0.002l0.039,0.001l0.039,-0.001l0.038,-0.002l0.039,-0.004l0.038,-0.005l0.039,-0.006l0.038,-0.009l0.037,-0.009l0.038,-0.012l0.037,-0.012l0.036,-0.014l0.036,-0.016l0.036,-0.017l0.035,-0.019l0.035,-0.02l0.034,-0.022l0.033,-0.023l5.739,-4.169l5.739,4.169l0.033,0.023l0.034,0.022l0.035,0.02l0.035,0.019l0.036,0.017l0.036,0.016l0.036,0.014l0.037,0.012l0.038,0.012l0.037,0.009l0.038,0.009l0.039,0.006l0.038,0.005l0.039,0.004l0.038,0.002l0.039,0.001l0.039,-0.001l0.038,-0.002l0.039,-0.004l0.038,-0.005l0.038,-0.006l0.038,-0.009l0.038,-0.009l0.037,-0.012l0.037,-0.012l0.037,-0.014l0.036,-0.016l0.036,-0.017l0.035,-0.019l0.035,-0.02l0.033,-0.022l0.034,-0.023l0.032,-0.024l0.031,-0.026l0.03,-0.026l0.028,-0.028l0.028,-0.029l0.026,-0.029l0.025,-0.031l0.023,-0.031l0.022,-0.032l0.021,-0.033l0.02,-0.034l0.018,-0.034l0.017,-0.035l0.015,-0.035l0.014,-0.036l0.013,-0.037l0.011,-0.037l0.01,-0.037l0.008,-0.038l0.007,-0.038l0.006,-0.039l0.004,-0.038l0.002,-0.039l0.001,-0.039l-0.001,-0.039l-0.002,-0.039l-0.004,-0.04l-0.005,-0.039l-0.007,-0.039l-0.008,-0.039l-0.01,-0.039l-0.012,-0.039l-2.192,-6.747l5.739,-4.169l0.032,-0.025l0.031,-0.025l0.03,-0.027l0.029,-0.027l0.027,-0.029l0.026,-0.03l0.025,-0.03l0.023,-0.031l0.023,-0.033l0.02,-0.032l0.02,-0.034l0.018,-0.034l0.017,-0.035l0.015,-0.036l0.015,-0.036l0.012,-0.036l0.011,-0.037l0.01,-0.038l0.009,-0.037l0.006,-0.039l0.006,-0.038l0.004,-0.039l0.002,-0.039l0.001,-0.039l0,-0.039l-0.003,-0.039l-0.003,-0.039l-0.006,-0.039l-0.007,-0.04l-0.008,-0.039l-0.01,-0.039l-0.012,-0.038l-0.013,-0.038l-0.015,-0.038l-0.016,-0.037l-0.017,-0.035l-0.019,-0.035l-0.02,-0.034l-0.021,-0.033l-0.023,-0.032l-0.024,-0.031l-0.024,-0.03l-0.026,-0.029l-0.027,-0.028l-0.028,-0.027l-0.029,-0.025l-0.03,-0.025l-0.031,-0.023l-0.032,-0.022l-0.032,-0.021l-0.034,-0.02l-0.034,-0.018l-0.035,-0.017l-0.035,-0.016l-0.037,-0.014l-0.036,-0.013l-0.038,-0.012l-0.038,-0.01l-0.038,-0.008l-0.039,-0.007l-0.04,-0.006l-0.039,-0.004l-0.04,-0.002l-0.041,-0.001l-7.094,0l-2.192,-6.747l-0.013,-0.038l-0.015,-0.038l-0.016,-0.036l-0.017,-0.036l-0.019,-0.035l-0.02,-0.034l-0.022,-0.033l-0.022,-0.032l-0.024,-0.031l-0.025,-0.03l-0.025,-0.029l-0.027,-0.028l-0.028,-0.026l-0.029,-0.026l-0.03,-0.025l-0.031,-0.023l-0.032,-0.022l-0.032,-0.021l-0.034,-0.02l-0.034,-0.018l-0.035,-0.017l-0.035,-0.016l-0.037,-0.014l-0.036,-0.013l-0.038,-0.011l-0.038,-0.01l-0.038,-0.009l-0.039,-0.007l-0.04,-0.006l-0.039,-0.004l-0.041,-0.002l-0.04,-0.001l-0.04,0.001Z"/></g></g></svg>