<?xml version="1.0" encoding="UTF-8" standalone="no"?><!DOCTYPE svg PUBLIC "-//W3C//DTD SVG 1.1//EN" "http://www.w3.org/Graphics/SVG/1.1/DTD/svg11.dtd"><svg width="100%" height="100%" viewBox="0 0 32 32" version="1.1" xmlns="http://www.w3.org/2000/svg" xmlns:xlink="http://www.w3.org/1999/xlink" xml:space="preserve" xmlns:serif="http://www.serif.com/" style="fill-rule:evenodd;clip-rule:evenodd;stroke-linecap:round;stroke-linejoin:round;stroke-miterlimit:1.5;"><rect id="shooting_star" x="0" y="0" width="32" height="32" style="fill:none;"/><g id="outline"><path id="pre-bake" d="M5.068,16.906c-0.09,-0.007 -0.178,-0.038 -0.255,-0.094c-0.175,-0.127 -0.248,-0.353 -0.181,-0.559c0.577,-1.777 1.475,-4.539 1.475,-4.539c0,0 -2.35,-1.708 -3.862,-2.806c-0.175,-0.127 -0.249,-0.353 -0.182,-0.559c0.067,-0.206 0.259,-0.346 0.476,-0.346c1.868,0 4.773,0 4.773,0c0,0 0.898,-2.762 1.475,-4.539c0.067,-0.206 0.259,-0.346 0.476,-0.346c0.03,0 0.059,0.003 0.088,0.008l0,0c0,0 5.14,0.44 12.649,4.874c5.671,3.349 8,8 8,8l0,14c0,0 -10.79,-7.919 -15,-10c-5.528,-2.732 -9.932,-3.094 -9.932,-3.094l0,0Z" style="fill:none;stroke:#000;stroke-width:4px;"/></g><g id="emoji"><path d="M9.351,3.126c0,0 5.14,0.44 12.649,4.874c5.671,3.349 8,8 8,8l0,14c0,0 -10.79,-7.919 -15,-10c-5.528,-2.732 -9.932,-3.094 -9.932,-3.094l4.283,-13.78Z" style="fill:#282480;"/><clipPath id="_clip1"><path d="M9.351,3.126c0,0 5.14,0.44 12.649,4.874c5.671,3.349 8,8 8,8l0,14c0,0 -10.79,-7.919 -15,-10c-5.528,-2.732 -9.932,-3.094 -9.932,-3.094l4.283,-13.78Z"/></clipPath><g clip-path="url(#_clip1)"><path d="M15,13c0,0 2.752,0.928 7,4c6.976,5.045 10,10 10,10" style="fill:none;stroke:#bd6cd6;stroke-width:2px;stroke-linejoin:miter;"/><path d="M9,5c0,0 3.067,0.872 6,2c4.842,1.862 8.919,4.427 13,9" style="fill:none;stroke:#6c8fd6;stroke-width:2px;stroke-linejoin:miter;"/></g><path id="pre-bake1" serif:id="pre-bake" d="M8.787,3.464c0.067,-0.206 0.259,-0.346 0.476,-0.346c0.216,0 0.408,0.14 0.475,0.346c0.578,1.777 1.475,4.539 1.475,4.539c0,0 2.905,0 4.774,0c0.217,0 0.408,0.14 0.475,0.346c0.067,0.206 -0.006,0.432 -0.181,0.559c-1.512,1.098 -3.862,2.806 -3.862,2.806c0,0 0.898,2.762 1.475,4.539c0.067,0.206 -0.006,0.432 -0.182,0.559c-0.175,0.128 -0.412,0.128 -0.587,0c-1.512,-1.098 -3.862,-2.805 -3.862,-2.805c0,0 -2.35,1.707 -3.862,2.805c-0.175,0.128 -0.412,0.128 -0.588,0c-0.175,-0.127 -0.248,-0.353 -0.181,-0.559c0.577,-1.777 1.475,-4.539 1.475,-4.539c0,0 -2.35,-1.708 -3.862,-2.806c-0.175,-0.127 -0.249,-0.353 -0.182,-0.559c0.067,-0.206 0.259,-0.346 0.476,-0.346c1.868,0 4.773,0 4.773,0c0,0 0.898,-2.762 1.475,-4.539Z" style="fill:#fdef24;"/></g></svg>