<?xml version="1.0" encoding="UTF-8" standalone="no"?><!DOCTYPE svg PUBLIC "-//W3C//DTD SVG 1.1//EN" "http://www.w3.org/Graphics/SVG/1.1/DTD/svg11.dtd"><svg width="100%" height="100%" viewBox="0 0 32 32" version="1.1" xmlns="http://www.w3.org/2000/svg" xmlns:xlink="http://www.w3.org/1999/xlink" xml:space="preserve" xmlns:serif="http://www.serif.com/" style="fill-rule:evenodd;clip-rule:evenodd;stroke-linecap:round;stroke-linejoin:round;stroke-miterlimit:1.5;"><rect id="sparkles" x="0" y="0" width="32" height="32" style="fill:none;"/><g id="outline"><path d="M14,15l5.5,-2.5l2.5,-8.5l2.5,8.5l5.5,2.5l-5.5,2.5l-2.5,8.5l-2.5,-8.5l-5.5,-2.5Z" style="fill:none;stroke:#000;stroke-width:4px;"/><path d="M4,23l3.5,-1.5l1.5,-5.5l1.5,5.5l3.5,1.5l-3.5,1.5l-1.5,5.5l-1.5,-5.5l-3.5,-1.5Z" style="fill:none;stroke:#000;stroke-width:4px;"/><path d="M2,7l2,-1l1,-4l1,4l2,1l-2,1l-1,4l-1,-4l-2,-1Z" style="fill:none;stroke:#000;stroke-width:4px;"/></g><g id="emoji"><path d="M14,15l5.5,-2.5l2.5,-8.5l2.5,8.5l5.5,2.5l-5.5,2.5l-2.5,8.5l-2.5,-8.5l-5.5,-2.5Z" style="fill:#fdef24;"/><path d="M4,23l3.5,-1.5l1.5,-5.5l1.5,5.5l3.5,1.5l-3.5,1.5l-1.5,5.5l-1.5,-5.5l-3.5,-1.5Z" style="fill:#fdef24;"/><path d="M2,7l2,-1l1,-4l1,4l2,1l-2,1l-1,4l-1,-4l-2,-1Z" style="fill:#fdef24;"/></g></svg>