<?xml version="1.0" encoding="UTF-8" standalone="no"?>
<!DOCTYPE svg PUBLIC "-//W3C//DTD SVG 1.1//EN" "http://www.w3.org/Graphics/SVG/1.1/DTD/svg11.dtd">
<svg width="100%" height="100%" viewBox="0 0 32 32" version="1.1" xmlns="http://www.w3.org/2000/svg" xmlns:xlink="http://www.w3.org/1999/xlink" xml:space="preserve" xmlns:serif="http://www.serif.com/" style="fill-rule:evenodd;clip-rule:evenodd;stroke-linecap:round;stroke-linejoin:round;stroke-miterlimit:1.5;">
    <rect id="haircut" x="0" y="0" width="32" height="32" style="fill:none;"/>
    <g id="outline">
        <path d="M22.09,9.001l0.135,0.007l0.134,0.014l0.133,0.019l0.132,0.025l0.131,0.031l0.13,0.036l0.127,0.043l0.126,0.048l0.123,0.054l0.121,0.059l0.118,0.065l0.115,0.07l0.112,0.075l0.108,0.08l0.105,0.085l0.101,0.089l0.096,0.094l0.093,0.098l0.087,0.102l0.084,0.106l0.078,0.109l0.073,0.113l0.068,0.116l0.063,0.119l0.058,0.122l0.052,0.124l0.046,0.127l0.041,0.128l0.035,0.13l0.029,0.132l0.023,0.132l0.017,0.134l0.011,0.134l0.005,0.134l-0.001,0.135l-0.007,0.135l-0.013,0.134l-0.02,0.133l-0.025,0.132l-0.031,0.131l-0.036,0.13l-0.043,0.127l-0.048,0.126l-0.054,0.123l-0.059,0.121l-0.065,0.118l-0.07,0.115l-0.075,0.112l-0.08,0.108l-0.085,0.105l-0.089,0.101l-0.094,0.096l-0.098,0.093l-0.102,0.087l-0.106,0.084l-0.109,0.078l-0.113,0.073l-0.116,0.068l-0.119,0.063l-15.5,7.75l-0.122,0.058l-0.124,0.052l-0.127,0.046l-0.128,0.041l-0.13,0.035l-0.132,0.029l-0.132,0.023l-0.134,0.017l-0.134,0.011l-0.134,0.005l-0.135,-0.001l-0.135,-0.007l-0.134,-0.013l-0.133,-0.02l-0.132,-0.025l-0.131,-0.031l-0.13,-0.036l-0.127,-0.043l-0.126,-0.048l-0.123,-0.054l-0.121,-0.059l-0.118,-0.065l-0.115,-0.07l-0.112,-0.075l-0.108,-0.08l-0.105,-0.085l-0.101,-0.089l-0.096,-0.094l-0.093,-0.098l-0.087,-0.102l-0.084,-0.106l-0.078,-0.109l-0.073,-0.113l-0.068,-0.116l-0.063,-0.119l-0.058,-0.122l-0.052,-0.124l-0.046,-0.127l-0.041,-0.128l-0.035,-0.13l-0.029,-0.132l-0.023,-0.132l-0.017,-0.134l-0.011,-0.134l-0.005,-0.134l0.001,-0.135l0.007,-0.135l0.013,-0.134l0.02,-0.133l0.025,-0.132l0.031,-0.131l0.036,-0.13l0.043,-0.127l0.048,-0.126l0.054,-0.123l0.059,-0.121l0.065,-0.118l0.07,-0.115l0.075,-0.112l0.08,-0.108l0.085,-0.105l0.089,-0.101l0.094,-0.096l0.098,-0.093l0.102,-0.087l0.106,-0.084l0.109,-0.078l0.113,-0.073l0.116,-0.068l0.119,-0.063l15.5,-7.75l0.122,-0.058l0.124,-0.052l0.127,-0.046l0.128,-0.041l0.13,-0.035l0.132,-0.029l0.132,-0.023l0.134,-0.017l0.134,-0.011l0.134,-0.005l0.135,0.001Z"/>
        <path d="M6.162,3.004l0.136,0.011l0.135,0.016l0.135,0.023l0.133,0.029l0.132,0.035l0.131,0.041l0.128,0.047l0.126,0.052l0.124,0.059l16,8l0.12,0.064l0.118,0.069l0.115,0.074l0.11,0.08l0.108,0.085l0.103,0.089l0.099,0.094l0.095,0.099l0.09,0.102l0.085,0.107l0.08,0.11l0.076,0.114l0.07,0.118l0.064,0.12l0.059,0.123l0.053,0.126l0.048,0.128l0.042,0.13l0.036,0.132l0.029,0.133l0.024,0.135l0.017,0.135l0.012,0.136l0.005,0.137l-0.001,0.136l-0.008,0.137l-0.013,0.136l-0.02,0.135l-0.026,0.134l-0.032,0.133l-0.038,0.131l-0.044,0.129l-0.049,0.127l-0.056,0.125l-0.061,0.122l-0.067,0.12l-0.071,0.116l-0.078,0.112l-0.082,0.11l-0.087,0.105l-0.092,0.101l-0.096,0.097l-0.101,0.092l-0.104,0.088l-0.109,0.083l-0.112,0.078l-0.116,0.072l-0.119,0.067l-0.121,0.062l-0.125,0.057l-0.127,0.05l-0.129,0.045l-0.131,0.038l-0.132,0.033l-0.134,0.027l-0.135,0.02l-0.136,0.015l-0.136,0.008l-0.137,0.002l-0.137,-0.004l-0.136,-0.011l-0.135,-0.016l-0.135,-0.023l-0.133,-0.029l-0.132,-0.035l-0.131,-0.041l-0.128,-0.047l-0.126,-0.052l-0.124,-0.059l-16,-8l-0.12,-0.064l-0.118,-0.069l-0.115,-0.074l-0.11,-0.08l-0.108,-0.085l-0.103,-0.089l-0.099,-0.094l-0.095,-0.099l-0.09,-0.102l-0.085,-0.107l-0.08,-0.11l-0.076,-0.114l-0.07,-0.118l-0.064,-0.12l-0.059,-0.123l-0.053,-0.126l-0.048,-0.128l-0.042,-0.13l-0.036,-0.132l-0.029,-0.133l-0.024,-0.135l-0.017,-0.135l-0.012,-0.136l-0.005,-0.137l0.001,-0.136l0.008,-0.137l0.013,-0.136l0.02,-0.135l0.026,-0.134l0.032,-0.133l0.038,-0.131l0.044,-0.129l0.049,-0.127l0.056,-0.125l0.061,-0.122l0.067,-0.12l0.071,-0.116l0.078,-0.112l0.082,-0.11l0.087,-0.105l0.092,-0.101l0.096,-0.097l0.101,-0.092l0.104,-0.088l0.109,-0.083l0.112,-0.078l0.116,-0.072l0.119,-0.067l0.121,-0.062l0.125,-0.057l0.127,-0.05l0.129,-0.045l0.131,-0.038l0.132,-0.033l0.134,-0.027l0.135,-0.02l0.136,-0.015l0.136,-0.008l0.137,-0.002l0.137,0.004Z"/>
        <circle cx="23.5" cy="10" r="2.5"/>
        <path d="M23.64,4.502l0.141,0.005l0.139,0.009l0.139,0.012l0.138,0.016l0.137,0.019l0.136,0.023l0.136,0.026l0.134,0.029l0.133,0.032l0.131,0.036l0.131,0.039l0.129,0.042l0.127,0.045l0.127,0.048l0.124,0.051l0.123,0.053l0.121,0.057l0.12,0.06l0.118,0.062l0.116,0.065l0.114,0.067l0.113,0.071l0.11,0.073l0.109,0.075l0.106,0.077l0.105,0.081l0.103,0.082l0.1,0.085l0.099,0.088l0.096,0.089l0.094,0.092l0.092,0.094l0.089,0.097l0.088,0.098l0.085,0.1l0.082,0.103l0.081,0.105l0.077,0.106l0.076,0.109l0.072,0.11l0.071,0.113l0.067,0.114l0.065,0.116l0.062,0.118l0.06,0.12l0.057,0.121l0.053,0.123l0.051,0.124l0.048,0.127l0.045,0.127l0.042,0.129l0.039,0.131l0.036,0.131l0.032,0.133l0.029,0.134l0.026,0.136l0.023,0.136l0.019,0.137l0.016,0.138l0.012,0.139l0.009,0.139l0.005,0.14l0.002,0.141l-0.002,0.141l-0.005,0.14l-0.009,0.139l-0.012,0.139l-0.016,0.138l-0.019,0.137l-0.023,0.136l-0.026,0.136l-0.029,0.134l-0.032,0.133l-0.036,0.131l-0.039,0.131l-0.042,0.129l-0.045,0.127l-0.048,0.127l-0.051,0.124l-0.053,0.123l-0.057,0.121l-0.06,0.12l-0.062,0.118l-0.065,0.116l-0.067,0.114l-0.071,0.113l-0.072,0.11l-0.076,0.109l-0.077,0.106l-0.081,0.105l-0.082,0.103l-0.085,0.1l-0.088,0.098l-0.089,0.097l-0.092,0.094l-0.094,0.092l-0.096,0.089l-0.099,0.088l-0.1,0.085l-0.103,0.082l-0.105,0.081l-0.106,0.077l-0.109,0.075l-0.11,0.073l-0.113,0.071l-0.114,0.067l-0.116,0.065l-0.118,0.062l-0.12,0.06l-0.121,0.057l-0.123,0.053l-0.124,0.051l-0.127,0.048l-0.127,0.045l-0.129,0.042l-0.131,0.039l-0.131,0.036l-0.133,0.032l-0.134,0.029l-0.136,0.026l-0.136,0.023l-0.137,0.019l-0.138,0.016l-0.139,0.012l-0.139,0.009l-0.141,0.005l-0.14,0.002l-0.14,-0.002l-0.141,-0.005l-0.139,-0.009l-0.139,-0.012l-0.138,-0.016l-0.137,-0.019l-0.136,-0.023l-0.136,-0.026l-0.134,-0.029l-0.133,-0.032l-0.131,-0.036l-0.131,-0.039l-0.129,-0.042l-0.127,-0.045l-0.127,-0.048l-0.124,-0.051l-0.123,-0.053l-0.121,-0.057l-0.12,-0.06l-0.118,-0.062l-0.116,-0.065l-0.114,-0.067l-0.113,-0.071l-0.11,-0.073l-0.109,-0.075l-0.106,-0.077l-0.105,-0.081l-0.103,-0.082l-0.1,-0.085l-0.099,-0.088l-0.096,-0.089l-0.094,-0.092l-0.092,-0.094l-0.089,-0.097l-0.088,-0.098l-0.085,-0.1l-0.082,-0.103l-0.081,-0.105l-0.077,-0.106l-0.076,-0.109l-0.072,-0.11l-0.071,-0.113l-0.067,-0.114l-0.065,-0.116l-0.062,-0.118l-0.06,-0.12l-0.057,-0.121l-0.053,-0.123l-0.051,-0.124l-0.048,-0.127l-0.045,-0.127l-0.042,-0.129l-0.039,-0.131l-0.036,-0.131l-0.032,-0.133l-0.029,-0.134l-0.026,-0.136l-0.023,-0.136l-0.019,-0.137l-0.016,-0.138l-0.012,-0.139l-0.009,-0.139l-0.005,-0.14l-0.002,-0.141l0.002,-0.141l0.005,-0.14l0.009,-0.139l0.012,-0.139l0.016,-0.138l0.019,-0.137l0.023,-0.136l0.026,-0.136l0.029,-0.134l0.032,-0.133l0.036,-0.131l0.039,-0.131l0.042,-0.129l0.045,-0.127l0.048,-0.127l0.051,-0.124l0.053,-0.123l0.057,-0.121l0.06,-0.12l0.062,-0.118l0.065,-0.116l0.067,-0.114l0.071,-0.113l0.072,-0.11l0.076,-0.109l0.077,-0.106l0.081,-0.105l0.082,-0.103l0.085,-0.1l0.088,-0.098l0.089,-0.097l0.092,-0.094l0.094,-0.092l0.096,-0.089l0.099,-0.088l0.1,-0.085l0.103,-0.082l0.105,-0.081l0.106,-0.077l0.109,-0.075l0.11,-0.073l0.113,-0.071l0.114,-0.067l0.116,-0.065l0.118,-0.062l0.12,-0.06l0.121,-0.057l0.123,-0.053l0.124,-0.051l0.127,-0.048l0.127,-0.045l0.129,-0.042l0.131,-0.039l0.131,-0.036l0.133,-0.032l0.134,-0.029l0.136,-0.026l0.136,-0.023l0.137,-0.019l0.138,-0.016l0.139,-0.012l0.139,-0.009l0.141,-0.005l0.14,-0.002l0.14,0.002Zm-0.151,4.998l-0.013,0l-0.012,0.001l-0.012,0.001l-0.012,0.002l-0.013,0.001l-0.013,0.003l-0.012,0.002l-0.013,0.003l-0.013,0.003l-0.012,0.003l-0.013,0.004l-0.012,0.004l-0.012,0.004l-0.012,0.005l-0.012,0.004l-0.011,0.006l-0.012,0.005l-0.011,0.005l-0.01,0.006l-0.011,0.006l-0.01,0.006l-0.011,0.007l-0.01,0.006l-0.009,0.007l-0.01,0.007l-0.009,0.007l-0.009,0.007l-0.009,0.008l-0.008,0.007l-0.009,0.008l-0.008,0.008l-0.008,0.008l-0.008,0.009l-0.008,0.008l-0.007,0.009l-0.007,0.009l-0.007,0.009l-0.007,0.01l-0.007,0.009l-0.007,0.01l-0.006,0.01l-0.006,0.011l-0.006,0.011l-0.006,0.01l-0.005,0.012l-0.006,0.011l-0.004,0.011l-0.005,0.012l-0.005,0.012l-0.004,0.012l-0.004,0.012l-0.004,0.013l-0.003,0.012l-0.003,0.013l-0.003,0.013l-0.002,0.012l-0.003,0.013l-0.001,0.013l-0.002,0.012l-0.001,0.012l-0.001,0.013l0,0.011l0,0.012l0,0.012l0,0.011l0.001,0.013l0.001,0.012l0.002,0.012l0.001,0.013l0.003,0.013l0.002,0.012l0.003,0.013l0.003,0.013l0.003,0.012l0.004,0.013l0.004,0.012l0.004,0.012l0.005,0.012l0.005,0.012l0.004,0.011l0.006,0.011l0.005,0.012l0.006,0.01l0.006,0.011l0.006,0.011l0.006,0.01l0.007,0.01l0.007,0.009l0.007,0.01l0.007,0.009l0.007,0.009l0.007,0.009l0.008,0.008l0.008,0.009l0.008,0.008l0.008,0.008l0.009,0.008l0.008,0.007l0.009,0.008l0.009,0.007l0.009,0.007l0.01,0.007l0.009,0.007l0.01,0.006l0.011,0.007l0.01,0.006l0.011,0.006l0.01,0.006l0.011,0.005l0.012,0.005l0.011,0.006l0.012,0.004l0.012,0.005l0.012,0.004l0.012,0.004l0.013,0.004l0.012,0.003l0.013,0.003l0.013,0.003l0.012,0.002l0.013,0.003l0.013,0.001l0.012,0.002l0.012,0.001l0.012,0.001l0.013,0l0.011,0l0.011,0l0.013,0l0.012,-0.001l0.012,-0.001l0.012,-0.002l0.013,-0.001l0.013,-0.003l0.012,-0.002l0.013,-0.003l0.013,-0.003l0.012,-0.003l0.013,-0.004l0.012,-0.004l0.012,-0.004l0.012,-0.005l0.012,-0.004l0.011,-0.006l0.012,-0.005l0.011,-0.005l0.01,-0.006l0.011,-0.006l0.01,-0.006l0.011,-0.007l0.01,-0.006l0.009,-0.007l0.01,-0.007l0.009,-0.007l0.009,-0.007l0.009,-0.008l0.008,-0.007l0.009,-0.008l0.008,-0.008l0.008,-0.008l0.008,-0.009l0.008,-0.008l0.007,-0.009l0.007,-0.009l0.007,-0.009l0.007,-0.01l0.007,-0.009l0.007,-0.01l0.006,-0.01l0.006,-0.011l0.006,-0.011l0.006,-0.01l0.005,-0.012l0.006,-0.011l0.004,-0.011l0.005,-0.012l0.005,-0.012l0.004,-0.012l0.004,-0.012l0.004,-0.013l0.003,-0.012l0.003,-0.013l0.003,-0.013l0.002,-0.012l0.003,-0.013l0.001,-0.013l0.002,-0.012l0.001,-0.012l0.001,-0.013l0,-0.011l0,-0.012l0,-0.012l0,-0.011l-0.001,-0.013l-0.001,-0.012l-0.002,-0.012l-0.001,-0.013l-0.003,-0.013l-0.002,-0.012l-0.003,-0.013l-0.003,-0.013l-0.003,-0.012l-0.004,-0.013l-0.004,-0.012l-0.004,-0.012l-0.005,-0.012l-0.005,-0.012l-0.004,-0.011l-0.006,-0.011l-0.005,-0.012l-0.006,-0.01l-0.006,-0.011l-0.006,-0.011l-0.006,-0.01l-0.007,-0.01l-0.007,-0.009l-0.007,-0.01l-0.007,-0.009l-0.007,-0.009l-0.007,-0.009l-0.008,-0.008l-0.008,-0.009l-0.008,-0.008l-0.008,-0.008l-0.009,-0.008l-0.008,-0.007l-0.009,-0.008l-0.009,-0.007l-0.009,-0.007l-0.01,-0.007l-0.009,-0.007l-0.01,-0.006l-0.011,-0.007l-0.01,-0.006l-0.011,-0.006l-0.01,-0.006l-0.011,-0.005l-0.012,-0.005l-0.011,-0.006l-0.012,-0.004l-0.012,-0.005l-0.012,-0.004l-0.012,-0.004l-0.013,-0.004l-0.012,-0.003l-0.013,-0.003l-0.013,-0.003l-0.012,-0.002l-0.013,-0.003l-0.013,-0.001l-0.012,-0.002l-0.012,-0.001l-0.012,-0.001l-0.013,0l-0.011,0l-0.011,0Z"/>
        <circle cx="23.5" cy="16" r="2.5"/>
        <path d="M23.64,10.502l0.141,0.005l0.139,0.009l0.139,0.012l0.138,0.016l0.137,0.019l0.136,0.023l0.136,0.026l0.134,0.029l0.133,0.032l0.131,0.036l0.131,0.039l0.129,0.042l0.127,0.045l0.127,0.048l0.124,0.051l0.123,0.053l0.121,0.057l0.12,0.06l0.118,0.062l0.116,0.065l0.114,0.067l0.113,0.071l0.11,0.073l0.109,0.075l0.106,0.077l0.105,0.081l0.103,0.082l0.1,0.085l0.099,0.088l0.096,0.089l0.094,0.092l0.092,0.094l0.089,0.097l0.088,0.098l0.085,0.1l0.082,0.103l0.081,0.105l0.077,0.106l0.076,0.109l0.072,0.11l0.071,0.113l0.067,0.114l0.065,0.116l0.062,0.118l0.06,0.12l0.057,0.121l0.053,0.123l0.051,0.124l0.048,0.127l0.045,0.127l0.042,0.129l0.039,0.131l0.036,0.131l0.032,0.133l0.029,0.134l0.026,0.136l0.023,0.136l0.019,0.137l0.016,0.138l0.012,0.139l0.009,0.139l0.005,0.14l0.002,0.141l-0.002,0.141l-0.005,0.14l-0.009,0.139l-0.012,0.139l-0.016,0.138l-0.019,0.137l-0.023,0.136l-0.026,0.136l-0.029,0.134l-0.032,0.133l-0.036,0.131l-0.039,0.131l-0.042,0.129l-0.045,0.127l-0.048,0.127l-0.051,0.124l-0.053,0.123l-0.057,0.121l-0.06,0.12l-0.062,0.118l-0.065,0.116l-0.067,0.114l-0.071,0.113l-0.072,0.11l-0.076,0.109l-0.077,0.106l-0.081,0.105l-0.082,0.103l-0.085,0.1l-0.088,0.098l-0.089,0.097l-0.092,0.094l-0.094,0.092l-0.096,0.089l-0.099,0.088l-0.1,0.085l-0.103,0.082l-0.105,0.081l-0.106,0.077l-0.109,0.075l-0.11,0.073l-0.113,0.071l-0.114,0.067l-0.116,0.065l-0.118,0.062l-0.12,0.06l-0.121,0.057l-0.123,0.053l-0.124,0.051l-0.127,0.048l-0.127,0.045l-0.129,0.042l-0.131,0.039l-0.131,0.036l-0.133,0.032l-0.134,0.029l-0.136,0.026l-0.136,0.023l-0.137,0.019l-0.138,0.016l-0.139,0.012l-0.139,0.009l-0.141,0.005l-0.14,0.002l-0.14,-0.002l-0.141,-0.005l-0.139,-0.009l-0.139,-0.012l-0.138,-0.016l-0.137,-0.019l-0.136,-0.023l-0.136,-0.026l-0.134,-0.029l-0.133,-0.032l-0.131,-0.036l-0.131,-0.039l-0.129,-0.042l-0.127,-0.045l-0.127,-0.048l-0.124,-0.051l-0.123,-0.053l-0.121,-0.057l-0.12,-0.06l-0.118,-0.062l-0.116,-0.065l-0.114,-0.067l-0.113,-0.071l-0.11,-0.073l-0.109,-0.075l-0.106,-0.077l-0.105,-0.081l-0.103,-0.082l-0.1,-0.085l-0.099,-0.088l-0.096,-0.089l-0.094,-0.092l-0.092,-0.094l-0.089,-0.097l-0.088,-0.098l-0.085,-0.1l-0.082,-0.103l-0.081,-0.105l-0.077,-0.106l-0.076,-0.109l-0.072,-0.11l-0.071,-0.113l-0.067,-0.114l-0.065,-0.116l-0.062,-0.118l-0.06,-0.12l-0.057,-0.121l-0.053,-0.123l-0.051,-0.124l-0.048,-0.127l-0.045,-0.127l-0.042,-0.129l-0.039,-0.131l-0.036,-0.131l-0.032,-0.133l-0.029,-0.134l-0.026,-0.136l-0.023,-0.136l-0.019,-0.137l-0.016,-0.138l-0.012,-0.139l-0.009,-0.139l-0.005,-0.14l-0.002,-0.141l0.002,-0.141l0.005,-0.14l0.009,-0.139l0.012,-0.139l0.016,-0.138l0.019,-0.137l0.023,-0.136l0.026,-0.136l0.029,-0.134l0.032,-0.133l0.036,-0.131l0.039,-0.131l0.042,-0.129l0.045,-0.127l0.048,-0.127l0.051,-0.124l0.053,-0.123l0.057,-0.121l0.06,-0.12l0.062,-0.118l0.065,-0.116l0.067,-0.114l0.071,-0.113l0.072,-0.11l0.076,-0.109l0.077,-0.106l0.081,-0.105l0.082,-0.103l0.085,-0.1l0.088,-0.098l0.089,-0.097l0.092,-0.094l0.094,-0.092l0.096,-0.089l0.099,-0.088l0.1,-0.085l0.103,-0.082l0.105,-0.081l0.106,-0.077l0.109,-0.075l0.11,-0.073l0.113,-0.071l0.114,-0.067l0.116,-0.065l0.118,-0.062l0.12,-0.06l0.121,-0.057l0.123,-0.053l0.124,-0.051l0.127,-0.048l0.127,-0.045l0.129,-0.042l0.131,-0.039l0.131,-0.036l0.133,-0.032l0.134,-0.029l0.136,-0.026l0.136,-0.023l0.137,-0.019l0.138,-0.016l0.139,-0.012l0.139,-0.009l0.141,-0.005l0.14,-0.002l0.14,0.002Zm-0.151,4.998l-0.013,0l-0.012,0.001l-0.012,0.001l-0.012,0.002l-0.013,0.001l-0.013,0.003l-0.012,0.002l-0.013,0.003l-0.013,0.003l-0.012,0.003l-0.013,0.004l-0.012,0.004l-0.012,0.004l-0.012,0.005l-0.012,0.004l-0.011,0.006l-0.012,0.005l-0.011,0.005l-0.01,0.006l-0.011,0.006l-0.01,0.006l-0.011,0.007l-0.01,0.006l-0.009,0.007l-0.01,0.007l-0.009,0.007l-0.009,0.007l-0.009,0.008l-0.008,0.007l-0.009,0.008l-0.008,0.008l-0.008,0.008l-0.008,0.009l-0.008,0.008l-0.007,0.009l-0.007,0.009l-0.007,0.009l-0.007,0.01l-0.007,0.009l-0.007,0.01l-0.006,0.01l-0.006,0.011l-0.006,0.011l-0.006,0.01l-0.005,0.012l-0.006,0.011l-0.004,0.011l-0.005,0.012l-0.005,0.012l-0.004,0.012l-0.004,0.012l-0.004,0.013l-0.003,0.012l-0.003,0.013l-0.003,0.013l-0.002,0.012l-0.003,0.013l-0.001,0.013l-0.002,0.012l-0.001,0.012l-0.001,0.013l0,0.011l0,0.012l0,0.012l0,0.011l0.001,0.013l0.001,0.012l0.002,0.012l0.001,0.013l0.003,0.013l0.002,0.012l0.003,0.013l0.003,0.013l0.003,0.012l0.004,0.013l0.004,0.012l0.004,0.012l0.005,0.012l0.005,0.012l0.004,0.011l0.006,0.011l0.005,0.012l0.006,0.01l0.006,0.011l0.006,0.011l0.006,0.01l0.007,0.01l0.007,0.009l0.007,0.01l0.007,0.009l0.007,0.009l0.007,0.009l0.008,0.008l0.008,0.009l0.008,0.008l0.008,0.008l0.009,0.008l0.008,0.007l0.009,0.008l0.009,0.007l0.009,0.007l0.01,0.007l0.009,0.007l0.01,0.006l0.011,0.007l0.01,0.006l0.011,0.006l0.01,0.006l0.011,0.005l0.012,0.005l0.011,0.006l0.012,0.004l0.012,0.005l0.012,0.004l0.012,0.004l0.013,0.004l0.012,0.003l0.013,0.003l0.013,0.003l0.012,0.002l0.013,0.003l0.013,0.001l0.012,0.002l0.012,0.001l0.012,0.001l0.013,0l0.011,0l0.011,0l0.013,0l0.012,-0.001l0.012,-0.001l0.012,-0.002l0.013,-0.001l0.013,-0.003l0.012,-0.002l0.013,-0.003l0.013,-0.003l0.012,-0.003l0.013,-0.004l0.012,-0.004l0.012,-0.004l0.012,-0.005l0.012,-0.004l0.011,-0.006l0.012,-0.005l0.011,-0.005l0.01,-0.006l0.011,-0.006l0.01,-0.006l0.011,-0.007l0.01,-0.006l0.009,-0.007l0.01,-0.007l0.009,-0.007l0.009,-0.007l0.009,-0.008l0.008,-0.007l0.009,-0.008l0.008,-0.008l0.008,-0.008l0.008,-0.009l0.008,-0.008l0.007,-0.009l0.007,-0.009l0.007,-0.009l0.007,-0.01l0.007,-0.009l0.007,-0.01l0.006,-0.01l0.006,-0.011l0.006,-0.011l0.006,-0.01l0.005,-0.012l0.006,-0.011l0.004,-0.011l0.005,-0.012l0.005,-0.012l0.004,-0.012l0.004,-0.012l0.004,-0.013l0.003,-0.012l0.003,-0.013l0.003,-0.013l0.002,-0.012l0.003,-0.013l0.001,-0.013l0.002,-0.012l0.001,-0.012l0.001,-0.013l0,-0.011l0,-0.012l0,-0.012l0,-0.011l-0.001,-0.013l-0.001,-0.012l-0.002,-0.012l-0.001,-0.013l-0.003,-0.013l-0.002,-0.012l-0.003,-0.013l-0.003,-0.013l-0.003,-0.012l-0.004,-0.013l-0.004,-0.012l-0.004,-0.012l-0.005,-0.012l-0.005,-0.012l-0.004,-0.011l-0.006,-0.011l-0.005,-0.012l-0.006,-0.01l-0.006,-0.011l-0.006,-0.011l-0.006,-0.01l-0.007,-0.01l-0.007,-0.009l-0.007,-0.01l-0.007,-0.009l-0.007,-0.009l-0.007,-0.009l-0.008,-0.008l-0.008,-0.009l-0.008,-0.008l-0.008,-0.008l-0.009,-0.008l-0.008,-0.007l-0.009,-0.008l-0.009,-0.007l-0.009,-0.007l-0.01,-0.007l-0.009,-0.007l-0.01,-0.006l-0.011,-0.007l-0.01,-0.006l-0.011,-0.006l-0.01,-0.006l-0.011,-0.005l-0.012,-0.005l-0.011,-0.006l-0.012,-0.004l-0.012,-0.005l-0.012,-0.004l-0.012,-0.004l-0.013,-0.004l-0.012,-0.003l-0.013,-0.003l-0.013,-0.003l-0.012,-0.002l-0.013,-0.003l-0.013,-0.001l-0.012,-0.002l-0.012,-0.001l-0.012,-0.001l-0.013,0l-0.011,0l-0.011,0Z"/>
        <path d="M11.098,17.196c1.778,3.557 5.414,5.804 9.391,5.804c0.17,0 0.341,0 0.511,0c3.866,0 7,3.134 7,7c0,0 0,0 0,0l-11,0c-7.18,0 -13,-5.82 -13,-13c0,-2.312 0,-4 0,-4c0,0 0.118,0.471 0.272,1.09c0.428,1.71 1.965,2.91 3.728,2.91c0,0 0,0 0,0l0,-6c0,0 1.566,3.132 3.098,6.196Z" style="fill:none;stroke:#000;stroke-width:4px;"/>
        <rect x="27" y="30" width="3" height="2"/>
    </g>
    <g id="emoji">
        <path d="M22.086,11.004c0.069,0.008 0.087,0.009 0.155,0.025c0.127,0.032 0.248,0.089 0.353,0.166c0.345,0.255 0.49,0.715 0.355,1.121c-0.033,0.1 -0.082,0.194 -0.144,0.278c-0.063,0.084 -0.138,0.159 -0.223,0.219c-0.057,0.041 -0.074,0.048 -0.135,0.081l-16,8c-0.063,0.029 -0.079,0.038 -0.145,0.059c-0.1,0.032 -0.205,0.048 -0.31,0.047c-0.104,-0.001 -0.209,-0.018 -0.308,-0.051c-0.407,-0.136 -0.687,-0.528 -0.684,-0.957c0.001,-0.104 0.018,-0.209 0.051,-0.308c0.058,-0.174 0.165,-0.331 0.305,-0.449c0.061,-0.052 0.127,-0.091 0.197,-0.129l16,-8c0.072,-0.033 0.143,-0.062 0.221,-0.08c0.068,-0.016 0.086,-0.016 0.155,-0.023c0.079,-0.003 0.078,-0.003 0.157,0.001Z" style="fill:#cacaca;fill-rule:nonzero;"/>
        <clipPath id="_clip1">
            <path d="M22.086,11.004c0.069,0.008 0.087,0.009 0.155,0.025c0.127,0.032 0.248,0.089 0.353,0.166c0.345,0.255 0.49,0.715 0.355,1.121c-0.033,0.1 -0.082,0.194 -0.144,0.278c-0.063,0.084 -0.138,0.159 -0.223,0.219c-0.057,0.041 -0.074,0.048 -0.135,0.081l-16,8c-0.063,0.029 -0.079,0.038 -0.145,0.059c-0.1,0.032 -0.205,0.048 -0.31,0.047c-0.104,-0.001 -0.209,-0.018 -0.308,-0.051c-0.407,-0.136 -0.687,-0.528 -0.684,-0.957c0.001,-0.104 0.018,-0.209 0.051,-0.308c0.058,-0.174 0.165,-0.331 0.305,-0.449c0.061,-0.052 0.127,-0.091 0.197,-0.129l16,-8c0.072,-0.033 0.143,-0.062 0.221,-0.08c0.068,-0.016 0.086,-0.016 0.155,-0.023c0.079,-0.003 0.078,-0.003 0.157,0.001Z" clip-rule="nonzero"/>
        </clipPath>
        <g clip-path="url(#_clip1)">
            <path d="M6.071,5.003c0.069,0.007 0.087,0.007 0.155,0.023c0.078,0.018 0.149,0.047 0.221,0.08l16,8c0.07,0.038 0.136,0.077 0.197,0.129c0.14,0.118 0.247,0.275 0.305,0.449c0.033,0.099 0.05,0.204 0.051,0.308c0.003,0.429 -0.277,0.821 -0.684,0.957c-0.099,0.033 -0.204,0.05 -0.308,0.051c-0.105,0.001 -0.21,-0.015 -0.31,-0.047c-0.066,-0.021 -0.082,-0.03 -0.145,-0.059l-16,-8c-0.061,-0.033 -0.078,-0.04 -0.135,-0.081c-0.085,-0.06 -0.16,-0.135 -0.223,-0.219c-0.062,-0.084 -0.111,-0.178 -0.144,-0.278c-0.135,-0.406 0.01,-0.866 0.355,-1.121c0.105,-0.077 0.226,-0.134 0.353,-0.166c0.068,-0.016 0.086,-0.017 0.155,-0.025c0.079,-0.004 0.078,-0.004 0.157,-0.001Z" style="fill:#cacaca;fill-rule:nonzero;stroke:#999;stroke-width:4px;stroke-linecap:butt;stroke-miterlimit:1.41421;"/>
        </g>
        <path d="M11.098,17.196c1.778,3.557 5.414,5.804 9.391,5.804c0.17,0 0.341,0 0.511,0c3.866,0 7,3.134 7,7c0,0 0,0 0,0l-11,0c-7.18,0 -13,-5.82 -13,-13c0,-2.312 0,-4 0,-4c0,0 0.118,0.471 0.272,1.09c0.428,1.71 1.965,2.91 3.728,2.91c0,0 0,0 0,0l0,-6c0,0 1.566,3.132 3.098,6.196Z" style="fill:#3e3e3e;"/>
        <clipPath id="_clip2">
            <path d="M11.098,17.196c1.778,3.557 5.414,5.804 9.391,5.804c0.17,0 0.341,0 0.511,0c3.866,0 7,3.134 7,7c0,0 0,0 0,0l-11,0c-7.18,0 -13,-5.82 -13,-13c0,-2.312 0,-4 0,-4c0,0 0.118,0.471 0.272,1.09c0.428,1.71 1.965,2.91 3.728,2.91c0,0 0,0 0,0l0,-6c0,0 1.566,3.132 3.098,6.196Z"/>
        </clipPath>
        <g clip-path="url(#_clip2)">
            <path d="M7,15c0,0 1.556,3.112 3.012,6.025c1.525,3.049 4.641,4.975 8.05,4.975c0.566,0 0.938,0 0.938,0" style="fill:none;stroke:#1e1e1e;stroke-width:2px;stroke-linecap:square;stroke-linejoin:miter;"/>
        </g>
        <path d="M6.071,5.003c0.069,0.007 0.087,0.007 0.155,0.023c0.078,0.018 0.149,0.047 0.221,0.08l16,8c0.07,0.038 0.136,0.077 0.197,0.129c0.14,0.118 0.247,0.275 0.305,0.449c0.033,0.099 0.05,0.204 0.051,0.308c0.003,0.429 -0.277,0.821 -0.684,0.957c-0.099,0.033 -0.204,0.05 -0.308,0.051c-0.105,0.001 -0.21,-0.015 -0.31,-0.047c-0.066,-0.021 -0.082,-0.03 -0.145,-0.059l-16,-8c-0.061,-0.033 -0.078,-0.04 -0.135,-0.081c-0.085,-0.06 -0.16,-0.135 -0.223,-0.219c-0.062,-0.084 -0.111,-0.178 -0.144,-0.278c-0.135,-0.406 0.01,-0.866 0.355,-1.121c0.105,-0.077 0.226,-0.134 0.353,-0.166c0.068,-0.016 0.086,-0.017 0.155,-0.025c0.079,-0.004 0.078,-0.004 0.157,-0.001Z" style="fill:#cacaca;fill-rule:nonzero;"/>
        <circle cx="23.5" cy="10" r="2.5" style="fill:none;stroke:#cacaca;stroke-width:2px;stroke-linejoin:miter;"/>
        <circle cx="23.5" cy="16" r="2.5" style="fill:none;stroke:#cacaca;stroke-width:2px;stroke-linejoin:miter;"/>
    </g>
</svg>
