<?xml version="1.0" encoding="UTF-8" standalone="no"?><!DOCTYPE svg PUBLIC "-//W3C//DTD SVG 1.1//EN" "http://www.w3.org/Graphics/SVG/1.1/DTD/svg11.dtd"><svg width="100%" height="100%" viewBox="0 0 32 32" version="1.1" xmlns="http://www.w3.org/2000/svg" xmlns:xlink="http://www.w3.org/1999/xlink" xml:space="preserve" xmlns:serif="http://www.serif.com/" style="fill-rule:evenodd;clip-rule:evenodd;stroke-linecap:square;stroke-linejoin:round;stroke-miterlimit:3;"><rect id="rocket" x="0" y="0" width="32" height="32" style="fill:none;"/><clipPath id="_clip1"><rect x="0" y="0" width="32" height="32"/></clipPath><g clip-path="url(#_clip1)"><g id="outline"><path d="M9,18l-2,-2c0,0 6.017,-5.265 7.614,-6.663c0.256,-0.223 0.547,-0.401 0.862,-0.527c1.121,-0.449 3.877,-1.551 4.427,-1.771c0.065,-0.026 0.126,-0.058 0.184,-0.097c0.662,-0.442 4.927,-3.285 5.769,-3.846c0.095,-0.063 0.201,-0.11 0.312,-0.138c0.759,-0.19 3.832,-0.958 3.832,-0.958c0,0 -0.768,3.073 -0.958,3.832c-0.028,0.111 -0.075,0.217 -0.138,0.312c-0.547,0.82 -3.261,4.892 -3.808,5.712c-0.063,0.095 -0.11,0.201 -0.138,0.312c-0.131,0.526 -0.54,2.161 -0.779,3.117c-0.118,0.47 -0.347,0.904 -0.668,1.266c-1.739,1.955 -7.511,8.449 -7.511,8.449l-2,-2l0,0.969c0,3.331 -2.7,6.031 -6.031,6.031c-1.132,0 -1.969,0 -1.969,0l2,-3l-4,1l1,-4l-3,2c0,0 0,-0.837 0,-1.969c0,-3.331 2.7,-6.031 6.031,-6.031l0.969,0Z" style="fill:none;stroke:#000;stroke-width:4px;"/></g><g id="emoji"><g><path d="M14,18c0,0 -2.979,0 -5.969,0c-3.331,0 -6.031,2.7 -6.031,6.031c0,1.132 0,1.969 0,1.969l3,-2l-1,4l4,-1l-2,3c0,0 0.837,0 1.969,0c3.331,0 6.031,-2.7 6.031,-6.031c0,-2.99 0,-5.969 0,-5.969Z" style="fill:#f05400;"/><path d="M13,19c0,0 -1.416,0 -3.056,0c-2.875,0 -5.35,2.029 -5.914,4.848c-0.019,0.098 -0.03,0.152 -0.03,0.152l3,-2l-1,4l4,-1l-2,3c0,0 0.054,-0.011 0.152,-0.03c2.819,-0.564 4.848,-3.039 4.848,-5.914c0,-1.64 0,-3.056 0,-3.056Z" style="fill:#f08c00;"/><path d="M8,24c0,0 0.352,-1.408 0.638,-2.554c0.223,-0.89 0.918,-1.585 1.808,-1.808c1.146,-0.286 2.554,-0.638 2.554,-0.638c0,0 -0.352,1.408 -0.638,2.554c-0.223,0.89 -0.918,1.585 -1.808,1.808c-1.146,0.286 -2.554,0.638 -2.554,0.638Z" style="fill:#ffbf36;"/></g><g><g><path d="M10.2,13.2l1.014,-0.2l7.344,7.44l0.266,1.384l-2.824,3.176l-9,-9l3.2,-2.8Zm6.229,-4.771l0.865,0.009l6.491,6.522l0.149,0.974c-0.115,0.222 -0.257,0.429 -0.423,0.617l-2.335,2.625l-1.282,-0.228l-6.894,-6.948l-0.133,-1.133l1.747,-1.53c0.256,-0.223 0.547,-0.401 0.862,-0.527l0.953,-0.381Zm9.937,1.522l-1.132,1.698l-0.699,-0.097l-4.172,-4.115l-0.012,-0.671l1.698,-1.132l0.866,0.2l3.206,3.202l0.245,0.915Z" style="fill:#414141;"/><g><path d="M15.381,13.381l5.795,5.795l-2.352,2.648l-2.824,-2.824l-2.5,2.5l-3,-3l2.5,-2.5l-0.238,-0.238l-0.039,-0.762l1.807,-1.646l0.851,0.027Zm7.412,-4.174l2.441,2.442l-0.138,0.207c-0.063,0.095 -0.11,0.201 -0.138,0.312c-0.131,0.526 -0.54,2.161 -0.779,3.117c-0.057,0.226 -0.139,0.444 -0.245,0.649l-2.434,-2.434l-2.5,2.5l-3,-3l1.708,-1.708l1.052,-0.867l2.692,-1.139l1.341,-0.079Zm7.207,-7.207l-0.958,3.832c-0.028,0.111 -0.075,0.217 -0.138,0.312l-2.538,3.807l-2.159,-2.158l-0.016,-0.97l4.509,-4.299l1.3,-0.524Z" style="fill:#e6e6e6;"/><path d="M15.381,13.381l-2.619,2.381l-2.562,-2.562l2.667,-2.333l2.514,2.514Zm7.412,-4.174l-0.205,0.205c-0.385,0.385 -0.867,0.658 -1.394,0.79c-0.72,0.18 -1.766,0.441 -2.462,0.615c-0.369,0.092 -0.717,0.254 -1.024,0.475l0.792,-0.792l-2.071,-2.071l3.474,-1.39c0.065,-0.026 0.126,-0.058 0.184,-0.097l0.264,-0.176l2.442,2.441Zm7.207,-7.207l-5.793,5.793l-2.158,-2.159l3.807,-2.538c0.095,-0.063 0.201,-0.11 0.312,-0.138c0.759,-0.19 3.832,-0.958 3.832,-0.958Z" style="fill:#fff;"/></g></g><path d="M26.5,4.5c-0.276,-0.276 -0.724,-0.276 -1,0c0,0 0,0 0,0c-0.276,0.276 -0.276,0.724 0,1c0.305,0.305 0.695,0.695 1,1c0.276,0.276 0.724,0.276 1,0c0,0 0,0 0,0c0.276,-0.276 0.276,-0.724 0,-1c-0.305,-0.305 -0.695,-0.695 -1,-1Z" style="fill:#414141;"/></g></g></g></svg>