<?xml version="1.0" encoding="UTF-8" standalone="no"?>
<!DOCTYPE svg PUBLIC "-//W3C//DTD SVG 1.1//EN" "http://www.w3.org/Graphics/SVG/1.1/DTD/svg11.dtd">
<svg width="100%" height="100%" viewBox="0 0 32 32" version="1.1" xmlns="http://www.w3.org/2000/svg" xmlns:xlink="http://www.w3.org/1999/xlink" xml:space="preserve" xmlns:serif="http://www.serif.com/" style="fill-rule:evenodd;clip-rule:evenodd;stroke-linecap:round;stroke-linejoin:round;stroke-miterlimit:1.5;">
    <rect id="avocado" x="0" y="0" width="32" height="32" style="fill:none;"/>
    <g id="outline">
        <path d="M15.937,30c-2.65,-0.008 -5.344,-0.515 -7.451,-2.529c-2.22,-2.122 -3.068,-4.57 -2.502,-8.213c0.546,-3.513 1.856,-4.214 3.283,-7.863c1.374,-3.516 1.378,-4.64 2.594,-6.72c1.051,-1.798 2.381,-2.675 4.139,-2.675l0.041,0c1.738,0.014 3.055,0.891 4.098,2.675c1.216,2.08 1.22,3.204 2.594,6.72c1.427,3.649 2.737,4.35 3.283,7.863c0.566,3.643 -0.282,6.091 -2.502,8.213c-2.124,2.03 -4.843,2.529 -7.514,2.529l-0.063,0Z" style="fill:none;stroke:#000;stroke-width:4px;"/>
    </g>
    <g id="emoji">
        <path d="M15.937,30c-2.65,-0.008 -5.344,-0.515 -7.451,-2.529c-2.22,-2.122 -3.068,-4.57 -2.502,-8.213c0.546,-3.513 1.856,-4.214 3.283,-7.863c1.374,-3.516 1.378,-4.64 2.594,-6.72c1.051,-1.798 2.381,-2.675 4.139,-2.675l0.041,0c1.738,0.014 3.055,0.891 4.098,2.675c1.216,2.08 1.22,3.204 2.594,6.72c1.427,3.649 2.737,4.35 3.283,7.863c0.566,3.643 -0.282,6.091 -2.502,8.213c-2.124,2.03 -4.843,2.529 -7.514,2.529l-0.063,0Z" style="fill:#dde77f;"/>
        <path d="M16.041,2l0.081,0.001l0.081,0.003l0.08,0.004l0.079,0.005l0.079,0.006l0.078,0.008l0.077,0.009l0.077,0.01l0.077,0.011l0.075,0.013l0.076,0.014l0.074,0.015l0.074,0.017l0.074,0.018l0.072,0.019l0.073,0.02l0.072,0.022l0.071,0.023l0.07,0.024l0.07,0.025l0.07,0.027l0.069,0.028l0.068,0.03l0.068,0.03l0.068,0.032l0.066,0.033l0.067,0.035l0.066,0.036l0.065,0.037l0.065,0.038l0.064,0.04l0.063,0.041l0.064,0.042l0.062,0.044l0.063,0.045l0.061,0.046l0.061,0.047l0.061,0.049l0.06,0.05l0.06,0.051l0.059,0.053l0.059,0.054l0.058,0.055l0.058,0.057l0.058,0.058l0.056,0.059l0.057,0.061l0.056,0.061l0.055,0.064l0.055,0.064l0.055,0.066l0.054,0.067l0.054,0.068l0.053,0.07l0.053,0.071l0.052,0.072l0.052,0.074l0.052,0.075l0.051,0.076l0.051,0.078l0.05,0.079l0.05,0.08l0.05,0.082l0.049,0.083l0.056,0.097l0.054,0.095l0.053,0.094l0.051,0.094l0.05,0.092l0.048,0.09l0.047,0.091l0.045,0.089l0.044,0.088l0.043,0.088l0.042,0.087l0.04,0.086l0.039,0.086l0.039,0.086l0.074,0.17l0.071,0.17l0.068,0.169l0.065,0.17l0.064,0.171l0.062,0.173l0.061,0.175l0.061,0.179l0.061,0.182l0.123,0.376l0.129,0.399l0.139,0.425l0.074,0.224l0.077,0.233l0.082,0.242l0.087,0.251l0.092,0.262l0.097,0.273l0.104,0.284l0.11,0.297l0.118,0.309l0.124,0.323l0.067,0.169l0.067,0.164l0.066,0.161l0.066,0.157l0.066,0.153l0.066,0.149l0.066,0.146l0.065,0.142l0.065,0.139l0.064,0.136l0.064,0.133l0.064,0.13l0.064,0.128l0.063,0.125l0.063,0.122l0.062,0.12l0.124,0.233l0.122,0.226l0.12,0.219l0.118,0.213l0.23,0.414l0.111,0.202l0.109,0.201l0.106,0.201l0.052,0.101l0.052,0.1l0.051,0.102l0.05,0.101l0.049,0.103l0.049,0.103l0.047,0.105l0.047,0.105l0.047,0.107l0.045,0.107l0.045,0.11l0.043,0.111l0.043,0.113l0.042,0.114l0.041,0.117l0.041,0.119l0.039,0.121l0.038,0.123l0.038,0.126l0.036,0.129l0.036,0.132l0.035,0.134l0.033,0.138l0.033,0.14l0.031,0.144l0.031,0.148l0.029,0.151l0.028,0.155l0.028,0.158l0.026,0.163l0.025,0.17l0.024,0.168l0.021,0.167l0.019,0.164l0.017,0.163l0.016,0.162l0.013,0.16l0.011,0.158l0.009,0.156l0.007,0.156l0.004,0.153l0.003,0.152l0.001,0.15l-0.001,0.149l-0.004,0.148l-0.005,0.146l-0.008,0.144l-0.009,0.144l-0.012,0.141l-0.014,0.141l-0.015,0.139l-0.018,0.138l-0.02,0.136l-0.022,0.135l-0.024,0.134l-0.026,0.133l-0.028,0.131l-0.03,0.13l-0.032,0.129l-0.034,0.128l-0.036,0.126l-0.039,0.126l-0.04,0.124l-0.042,0.123l-0.045,0.123l-0.046,0.121l-0.048,0.12l-0.051,0.119l-0.052,0.118l-0.055,0.117l-0.057,0.117l-0.058,0.115l-0.061,0.114l-0.062,0.114l-0.065,0.112l-0.067,0.112l-0.069,0.111l-0.07,0.11l-0.073,0.109l-0.075,0.108l-0.077,0.108l-0.079,0.107l-0.08,0.106l-0.083,0.106l-0.085,0.105l-0.087,0.104l-0.089,0.104l-0.091,0.103l-0.093,0.102l-0.095,0.102l-0.097,0.101l-0.099,0.101l-0.101,0.1l-0.103,0.1l-0.1,0.094l-0.101,0.092l-0.102,0.09l-0.102,0.087l-0.104,0.085l-0.104,0.084l-0.105,0.081l-0.105,0.079l-0.107,0.077l-0.107,0.074l-0.108,0.073l-0.108,0.071l-0.11,0.069l-0.11,0.067l-0.11,0.065l-0.112,0.064l-0.112,0.061l-0.112,0.06l-0.113,0.057l-0.114,0.056l-0.114,0.054l-0.115,0.053l-0.116,0.05l-0.116,0.049l-0.116,0.048l-0.117,0.045l-0.118,0.044l-0.118,0.043l-0.118,0.041l-0.119,0.039l-0.119,0.038l-0.12,0.036l-0.12,0.035l-0.121,0.033l-0.121,0.032l-0.121,0.03l-0.121,0.029l-0.122,0.028l-0.122,0.026l-0.123,0.025l-0.123,0.024l-0.123,0.022l-0.123,0.021l-0.124,0.02l-0.123,0.019l-0.124,0.018l-0.125,0.016l-0.124,0.015l-0.124,0.015l-0.125,0.013l-0.125,0.012l-0.125,0.011l-0.125,0.01l-0.125,0.009l-0.125,0.008l-0.125,0.007l-0.126,0.006l-0.125,0.005l-0.125,0.004l-0.126,0.004l-0.125,0.003l-0.126,0.002l-0.125,0.001l-0.125,0l-0.063,0l-0.124,-0.001l-0.124,-0.001l-0.125,-0.003l-0.124,-0.003l-0.124,-0.004l-0.125,-0.004l-0.124,-0.006l-0.124,-0.006l-0.125,-0.008l-0.124,-0.008l-0.124,-0.009l-0.124,-0.011l-0.124,-0.011l-0.124,-0.012l-0.123,-0.014l-0.124,-0.014l-0.123,-0.016l-0.123,-0.016l-0.123,-0.018l-0.123,-0.019l-0.122,-0.021l-0.123,-0.021l-0.122,-0.023l-0.121,-0.024l-0.122,-0.025l-0.121,-0.026l-0.121,-0.028l-0.12,-0.029l-0.121,-0.031l-0.119,-0.032l-0.12,-0.033l-0.119,-0.035l-0.119,-0.036l-0.118,-0.038l-0.118,-0.039l-0.117,-0.041l-0.117,-0.043l-0.117,-0.044l-0.116,-0.045l-0.115,-0.048l-0.115,-0.049l-0.114,-0.05l-0.114,-0.052l-0.114,-0.054l-0.113,-0.056l-0.112,-0.058l-0.111,-0.059l-0.111,-0.061l-0.111,-0.063l-0.109,-0.065l-0.109,-0.067l-0.109,-0.068l-0.107,-0.071l-0.107,-0.072l-0.107,-0.075l-0.105,-0.076l-0.105,-0.079l-0.104,-0.08l-0.103,-0.083l-0.103,-0.085l-0.102,-0.087l-0.1,-0.089l-0.1,-0.091l-0.1,-0.093l-0.103,-0.1l-0.101,-0.1l-0.099,-0.101l-0.097,-0.101l-0.095,-0.102l-0.093,-0.102l-0.091,-0.103l-0.089,-0.104l-0.087,-0.104l-0.085,-0.105l-0.083,-0.106l-0.08,-0.106l-0.079,-0.107l-0.077,-0.108l-0.075,-0.108l-0.073,-0.109l-0.07,-0.11l-0.069,-0.111l-0.067,-0.112l-0.065,-0.112l-0.062,-0.114l-0.061,-0.114l-0.058,-0.115l-0.057,-0.117l-0.055,-0.117l-0.052,-0.118l-0.051,-0.119l-0.048,-0.12l-0.046,-0.121l-0.045,-0.123l-0.042,-0.123l-0.04,-0.124l-0.039,-0.126l-0.036,-0.126l-0.034,-0.128l-0.032,-0.129l-0.03,-0.13l-0.028,-0.131l-0.026,-0.133l-0.024,-0.134l-0.022,-0.135l-0.02,-0.136l-0.018,-0.138l-0.015,-0.139l-0.014,-0.141l-0.012,-0.141l-0.009,-0.144l-0.008,-0.144l-0.005,-0.146l-0.004,-0.148l-0.001,-0.149l0.001,-0.15l0.003,-0.152l0.004,-0.153l0.007,-0.156l0.009,-0.156l0.011,-0.158l0.013,-0.16l0.016,-0.162l0.017,-0.163l0.019,-0.164l0.021,-0.167l0.024,-0.168l0.025,-0.17l0.026,-0.163l0.028,-0.158l0.028,-0.155l0.029,-0.151l0.031,-0.148l0.031,-0.144l0.033,-0.14l0.033,-0.138l0.035,-0.134l0.036,-0.132l0.036,-0.129l0.038,-0.126l0.038,-0.123l0.039,-0.121l0.041,-0.119l0.041,-0.117l0.042,-0.114l0.043,-0.113l0.043,-0.111l0.045,-0.11l0.045,-0.107l0.047,-0.107l0.047,-0.105l0.047,-0.105l0.049,-0.103l0.049,-0.103l0.05,-0.101l0.051,-0.102l0.052,-0.1l0.052,-0.101l0.106,-0.201l0.109,-0.201l0.111,-0.202l0.23,-0.414l0.118,-0.213l0.12,-0.219l0.122,-0.226l0.124,-0.233l0.062,-0.12l0.063,-0.122l0.063,-0.125l0.064,-0.128l0.064,-0.13l0.064,-0.133l0.064,-0.136l0.065,-0.139l0.065,-0.142l0.066,-0.146l0.066,-0.149l0.066,-0.153l0.066,-0.157l0.066,-0.161l0.067,-0.164l0.067,-0.169l0.124,-0.323l0.118,-0.309l0.11,-0.297l0.104,-0.284l0.097,-0.273l0.092,-0.262l0.087,-0.251l0.082,-0.242l0.077,-0.233l0.074,-0.224l0.139,-0.425l0.129,-0.399l0.123,-0.376l0.061,-0.182l0.061,-0.179l0.061,-0.175l0.062,-0.173l0.064,-0.171l0.065,-0.17l0.068,-0.169l0.071,-0.17l0.074,-0.17l0.039,-0.086l0.039,-0.086l0.04,-0.086l0.042,-0.087l0.043,-0.088l0.044,-0.088l0.045,-0.089l0.047,-0.091l0.048,-0.09l0.05,-0.092l0.051,-0.094l0.053,-0.094l0.054,-0.095l0.056,-0.097l0.05,-0.084l0.05,-0.082l0.05,-0.081l0.051,-0.079l0.051,-0.079l0.051,-0.076l0.052,-0.076l0.053,-0.074l0.053,-0.073l0.053,-0.072l0.054,-0.07l0.054,-0.068l0.055,-0.068l0.055,-0.066l0.055,-0.065l0.056,-0.063l0.057,-0.063l0.057,-0.06l0.057,-0.06l0.058,-0.058l0.058,-0.057l0.059,-0.055l0.059,-0.055l0.06,-0.052l0.06,-0.052l0.061,-0.05l0.062,-0.049l0.061,-0.048l0.063,-0.046l0.062,-0.045l0.064,-0.043l0.064,-0.043l0.064,-0.041l0.065,-0.039l0.065,-0.039l0.066,-0.037l0.066,-0.035l0.067,-0.035l0.068,-0.033l0.068,-0.032l0.069,-0.03l0.069,-0.029l0.07,-0.028l0.07,-0.027l0.071,-0.025l0.071,-0.024l0.072,-0.022l0.072,-0.022l0.074,-0.02l0.073,-0.019l0.074,-0.017l0.075,-0.016l0.076,-0.015l0.076,-0.014l0.076,-0.012l0.078,-0.011l0.077,-0.009l0.079,-0.009l0.079,-0.007l0.079,-0.006l0.081,-0.004l0.08,-0.003l0.082,-0.002l0.082,-0.001l0.041,0Zm-0.107,1.001l-0.066,0.001l-0.065,0.003l-0.063,0.003l-0.063,0.005l-0.062,0.005l-0.062,0.007l-0.061,0.008l-0.059,0.008l-0.06,0.009l-0.058,0.011l-0.058,0.011l-0.057,0.013l-0.056,0.013l-0.056,0.014l-0.055,0.015l-0.055,0.016l-0.054,0.017l-0.053,0.018l-0.053,0.019l-0.053,0.02l-0.052,0.021l-0.052,0.022l-0.051,0.022l-0.051,0.024l-0.051,0.025l-0.05,0.026l-0.05,0.027l-0.05,0.028l-0.05,0.029l-0.049,0.03l-0.049,0.031l-0.049,0.032l-0.048,0.034l-0.048,0.034l-0.049,0.036l-0.048,0.037l-0.048,0.038l-0.047,0.04l-0.048,0.04l-0.047,0.042l-0.048,0.044l-0.047,0.044l-0.047,0.046l-0.047,0.047l-0.047,0.048l-0.046,0.05l-0.047,0.052l-0.046,0.052l-0.046,0.054l-0.047,0.056l-0.046,0.057l-0.045,0.058l-0.046,0.059l-0.046,0.062l-0.045,0.062l-0.045,0.064l-0.046,0.066l-0.045,0.067l-0.044,0.068l-0.045,0.07l-0.044,0.071l-0.044,0.073l-0.045,0.075l-0.052,0.09l-0.05,0.089l-0.05,0.088l-0.047,0.086l-0.046,0.085l-0.044,0.084l-0.043,0.083l-0.042,0.082l-0.04,0.08l-0.039,0.081l-0.039,0.08l-0.037,0.079l-0.036,0.079l-0.034,0.076l-0.069,0.158l-0.065,0.156l-0.063,0.157l-0.061,0.158l-0.06,0.161l-0.059,0.164l-0.058,0.167l-0.059,0.172l-0.058,0.176l-0.122,0.372l-0.129,0.398l-0.139,0.428l-0.076,0.227l-0.079,0.237l-0.083,0.246l-0.088,0.257l-0.094,0.267l-0.1,0.278l-0.106,0.291l-0.112,0.302l-0.12,0.316l-0.127,0.329l-0.07,0.176l-0.069,0.172l-0.069,0.167l-0.07,0.164l-0.069,0.16l-0.068,0.156l-0.069,0.153l-0.068,0.149l-0.068,0.145l-0.067,0.142l-0.067,0.139l-0.067,0.136l-0.066,0.133l-0.066,0.13l-0.066,0.127l-0.065,0.126l-0.127,0.24l-0.126,0.232l-0.122,0.223l-0.119,0.216l-0.229,0.412l-0.109,0.198l-0.105,0.195l-0.103,0.192l-0.048,0.094l-0.049,0.095l-0.047,0.094l-0.046,0.095l-0.046,0.094l-0.045,0.095l-0.043,0.096l-0.043,0.096l-0.042,0.096l-0.041,0.098l-0.04,0.099l-0.04,0.1l-0.038,0.102l-0.038,0.103l-0.037,0.105l-0.037,0.107l-0.035,0.109l-0.035,0.111l-0.034,0.114l-0.033,0.117l-0.032,0.12l-0.032,0.122l-0.03,0.126l-0.03,0.129l-0.029,0.132l-0.028,0.136l-0.027,0.141l-0.027,0.143l-0.025,0.148l-0.025,0.153l-0.023,0.159l-0.022,0.158l-0.02,0.155l-0.018,0.154l-0.016,0.152l-0.014,0.149l-0.013,0.148l-0.01,0.146l-0.008,0.144l-0.006,0.142l-0.005,0.141l-0.002,0.138l-0.001,0.137l0.001,0.135l0.003,0.134l0.005,0.131l0.007,0.13l0.009,0.128l0.01,0.127l0.012,0.125l0.014,0.124l0.016,0.122l0.018,0.12l0.019,0.119l0.021,0.118l0.023,0.116l0.024,0.115l0.026,0.114l0.028,0.112l0.03,0.111l0.032,0.11l0.033,0.109l0.035,0.108l0.036,0.107l0.039,0.105l0.04,0.105l0.042,0.104l0.043,0.103l0.046,0.102l0.047,0.101l0.049,0.101l0.051,0.1l0.052,0.099l0.055,0.099l0.056,0.098l0.058,0.097l0.06,0.097l0.062,0.096l0.064,0.096l0.066,0.095l0.067,0.095l0.07,0.095l0.072,0.094l0.073,0.094l0.076,0.093l0.078,0.093l0.079,0.093l0.082,0.093l0.084,0.092l0.086,0.092l0.088,0.092l0.09,0.092l0.092,0.091l0.094,0.091l0.088,0.083l0.088,0.08l0.089,0.078l0.089,0.077l0.091,0.074l0.09,0.073l0.092,0.071l0.092,0.069l0.093,0.067l0.093,0.065l0.094,0.064l0.095,0.062l0.095,0.06l0.096,0.059l0.097,0.057l0.097,0.056l0.098,0.054l0.098,0.052l0.099,0.051l0.1,0.049l0.1,0.048l0.101,0.046l0.102,0.045l0.102,0.043l0.103,0.042l0.103,0.041l0.104,0.039l0.105,0.038l0.105,0.037l0.106,0.035l0.106,0.034l0.107,0.033l0.107,0.031l0.108,0.031l0.109,0.028l0.109,0.028l0.109,0.027l0.11,0.025l0.111,0.024l0.111,0.023l0.111,0.022l0.112,0.021l0.112,0.02l0.113,0.018l0.113,0.018l0.114,0.016l0.114,0.016l0.114,0.014l0.115,0.014l0.115,0.012l0.115,0.011l0.116,0.011l0.116,0.01l0.116,0.008l0.117,0.008l0.117,0.007l0.117,0.006l0.117,0.006l0.117,0.004l0.118,0.004l0.118,0.003l0.118,0.002l0.118,0.001l0.119,0.001l0.058,0l0.12,0l0.119,-0.001l0.12,-0.002l0.118,-0.003l0.119,-0.003l0.118,-0.004l0.119,-0.005l0.118,-0.006l0.118,-0.007l0.117,-0.007l0.118,-0.009l0.117,-0.009l0.116,-0.01l0.117,-0.011l0.116,-0.013l0.116,-0.013l0.115,-0.014l0.115,-0.015l0.115,-0.016l0.114,-0.018l0.114,-0.018l0.113,-0.019l0.113,-0.021l0.112,-0.022l0.112,-0.023l0.112,-0.024l0.111,-0.025l0.11,-0.026l0.11,-0.028l0.11,-0.029l0.109,-0.03l0.108,-0.031l0.108,-0.033l0.107,-0.034l0.107,-0.035l0.106,-0.036l0.106,-0.038l0.105,-0.04l0.104,-0.04l0.104,-0.042l0.103,-0.044l0.102,-0.045l0.102,-0.046l0.101,-0.048l0.101,-0.05l0.1,-0.051l0.099,-0.052l0.099,-0.055l0.098,-0.055l0.097,-0.058l0.097,-0.059l0.096,-0.06l0.096,-0.063l0.095,-0.064l0.094,-0.065l0.093,-0.068l0.093,-0.069l0.092,-0.072l0.092,-0.073l0.091,-0.075l0.09,-0.077l0.09,-0.079l0.088,-0.081l0.089,-0.083l0.094,-0.091l0.092,-0.091l0.09,-0.092l0.088,-0.092l0.086,-0.092l0.084,-0.092l0.082,-0.093l0.079,-0.093l0.078,-0.093l0.076,-0.093l0.073,-0.094l0.072,-0.094l0.07,-0.095l0.067,-0.095l0.066,-0.095l0.064,-0.096l0.062,-0.096l0.06,-0.097l0.058,-0.098l0.056,-0.097l0.055,-0.099l0.052,-0.099l0.051,-0.1l0.049,-0.101l0.047,-0.101l0.046,-0.102l0.043,-0.103l0.042,-0.104l0.04,-0.105l0.039,-0.105l0.036,-0.107l0.035,-0.108l0.033,-0.109l0.032,-0.11l0.03,-0.111l0.028,-0.112l0.026,-0.114l0.024,-0.115l0.023,-0.116l0.021,-0.118l0.02,-0.119l0.017,-0.12l0.016,-0.122l0.014,-0.124l0.012,-0.125l0.01,-0.127l0.009,-0.128l0.007,-0.13l0.005,-0.131l0.003,-0.134l0.001,-0.135l-0.001,-0.137l-0.002,-0.138l-0.005,-0.141l-0.006,-0.142l-0.008,-0.144l-0.01,-0.146l-0.013,-0.148l-0.014,-0.149l-0.016,-0.152l-0.018,-0.154l-0.02,-0.155l-0.021,-0.158l-0.024,-0.159l-0.025,-0.153l-0.025,-0.148l-0.027,-0.143l-0.027,-0.141l-0.028,-0.136l-0.029,-0.132l-0.03,-0.129l-0.03,-0.126l-0.032,-0.122l-0.032,-0.12l-0.033,-0.117l-0.034,-0.113l-0.035,-0.112l-0.035,-0.109l-0.037,-0.107l-0.037,-0.105l-0.038,-0.103l-0.038,-0.102l-0.04,-0.1l-0.04,-0.099l-0.041,-0.098l-0.042,-0.096l-0.043,-0.096l-0.044,-0.096l-0.044,-0.095l-0.046,-0.094l-0.046,-0.095l-0.047,-0.094l-0.049,-0.095l-0.048,-0.094l-0.103,-0.192l-0.105,-0.195l-0.109,-0.198l-0.229,-0.412l-0.119,-0.216l-0.122,-0.223l-0.126,-0.232l-0.127,-0.24l-0.065,-0.126l-0.066,-0.127l-0.065,-0.13l-0.067,-0.133l-0.067,-0.136l-0.067,-0.139l-0.067,-0.142l-0.068,-0.145l-0.068,-0.149l-0.069,-0.153l-0.068,-0.156l-0.069,-0.16l-0.069,-0.164l-0.07,-0.167l-0.069,-0.172l-0.07,-0.176l-0.127,-0.329l-0.12,-0.316l-0.112,-0.302l-0.106,-0.291l-0.1,-0.278l-0.094,-0.267l-0.088,-0.257l-0.083,-0.246l-0.079,-0.237l-0.076,-0.227l-0.139,-0.428l-0.129,-0.398l-0.122,-0.372l-0.058,-0.176l-0.059,-0.172l-0.058,-0.168l-0.059,-0.163l-0.06,-0.161l-0.061,-0.158l-0.063,-0.157l-0.065,-0.156l-0.069,-0.158l-0.034,-0.076l-0.036,-0.079l-0.037,-0.079l-0.039,-0.08l-0.039,-0.081l-0.04,-0.08l-0.042,-0.082l-0.043,-0.083l-0.044,-0.084l-0.046,-0.085l-0.047,-0.086l-0.05,-0.088l-0.05,-0.089l-0.052,-0.09l-0.044,-0.074l-0.044,-0.072l-0.044,-0.071l-0.044,-0.07l-0.045,-0.068l-0.044,-0.066l-0.045,-0.065l-0.045,-0.064l-0.045,-0.062l-0.045,-0.061l-0.046,-0.059l-0.045,-0.058l-0.046,-0.057l-0.045,-0.055l-0.046,-0.053l-0.046,-0.053l-0.047,-0.051l-0.046,-0.05l-0.046,-0.048l-0.047,-0.047l-0.046,-0.046l-0.047,-0.044l-0.047,-0.043l-0.047,-0.042l-0.047,-0.04l-0.048,-0.04l-0.047,-0.038l-0.048,-0.037l-0.048,-0.036l-0.048,-0.034l-0.048,-0.034l-0.048,-0.032l-0.049,-0.031l-0.048,-0.03l-0.049,-0.029l-0.05,-0.028l-0.049,-0.027l-0.05,-0.026l-0.05,-0.025l-0.051,-0.024l-0.05,-0.023l-0.052,-0.022l-0.051,-0.021l-0.052,-0.02l-0.053,-0.019l-0.053,-0.018l-0.053,-0.018l-0.054,-0.016l-0.055,-0.015l-0.055,-0.015l-0.056,-0.013l-0.056,-0.013l-0.057,-0.012l-0.058,-0.01l-0.058,-0.01l-0.059,-0.009l-0.06,-0.008l-0.061,-0.007l-0.061,-0.006l-0.062,-0.005l-0.063,-0.004l-0.064,-0.003l-0.064,-0.002l-0.068,-0.001l-0.029,0l-0.068,0.001Z" style="fill:#b2d85a;"/>
    </g>
    <circle cx="16" cy="20.5" r="5.5" style="fill:#4d3b2f;"/>
    <clipPath id="_clip1">
        <circle cx="16" cy="20.5" r="5.5"/>
    </clipPath>
    <g clip-path="url(#_clip1)">
        <circle cx="13.65" cy="18.659" r="5.377" style="fill:#614b3b;"/>
    </g>
</svg>
