<?xml version="1.0" encoding="UTF-8" standalone="no"?>
<!DOCTYPE svg PUBLIC "-//W3C//DTD SVG 1.1//EN" "http://www.w3.org/Graphics/SVG/1.1/DTD/svg11.dtd">
<svg width="100%" height="100%" viewBox="0 0 32 32" version="1.1" xmlns="http://www.w3.org/2000/svg" xmlns:xlink="http://www.w3.org/1999/xlink" xml:space="preserve" xmlns:serif="http://www.serif.com/" style="fill-rule:evenodd;clip-rule:evenodd;stroke-linecap:round;stroke-miterlimit:3;">
    <rect id="cherry" x="0" y="0" width="32" height="32" style="fill:none;"/>
    <clipPath id="_clip1">
        <rect x="0" y="0" width="32" height="32"/>
    </clipPath>
    <g clip-path="url(#_clip1)">
        <g id="outline">
            <path d="M17,20c0,-1.326 -0.527,-2.598 -1.464,-3.536c-0.938,-0.937 -2.21,-1.464 -3.536,-1.464l-5,0c-1.326,0 -2.598,0.527 -3.536,1.464c-0.937,0.938 -1.464,2.21 -1.464,3.536l0,2.5c0,4.142 3.358,7.5 7.5,7.5l0,0c4.142,0 7.5,-3.358 7.5,-7.5l0,-2.5Z" style="fill:none;stroke:#000;stroke-width:4px;"/>
            <path d="M30,20c0,-1.326 -0.527,-2.598 -1.464,-3.536c-0.938,-0.937 -2.21,-1.464 -3.536,-1.464l-5,0c-1.326,0 -2.598,0.527 -3.536,1.464c-0.937,0.938 -1.464,2.21 -1.464,3.536l0,2.5c0,4.142 3.358,7.5 7.5,7.5l0,0c4.142,0 7.5,-3.358 7.5,-7.5l0,-2.5Z" style="fill:none;stroke:#000;stroke-width:4px;"/>
            <path d="M11.103,0.001l0.103,0.002l0.102,0.003l0.102,0.004l0.102,0.006l0.101,0.007l0.102,0.009l0.101,0.009l0.1,0.011l0.1,0.012l0.1,0.013l0.1,0.015l0.099,0.016l0.099,0.017l0.098,0.018l0.098,0.019l0.098,0.021l0.097,0.022l0.096,0.023l0.097,0.024l0.096,0.025l0.095,0.027l0.095,0.027l0.094,0.029l0.094,0.03l0.093,0.031l0.093,0.032l0.093,0.033l0.092,0.034l0.091,0.036l0.09,0.036l0.091,0.037l0.089,0.039l0.089,0.04l0.088,0.04l0.088,0.042l0.088,0.043l0.086,0.043l0.086,0.045l0.086,0.046l0.085,0.046l0.084,0.048l0.083,0.049l0.083,0.049l0.082,0.051l0.081,0.052l0.081,0.052l0.08,0.053l0.08,0.055l0.078,0.055l0.078,0.056l0.078,0.057l0.076,0.058l0.076,0.059l0.075,0.06l0.075,0.061l0.073,0.061l0.073,0.062l0.072,0.063l0.071,0.064l0.071,0.066l0.07,0.065l0.069,0.067l0.068,0.067l0.067,0.068l0.067,0.069l0.065,0.07l0.065,0.071l0.064,0.071l0.064,0.072l0.062,0.073l0.062,0.074l0.06,0.074l0.06,0.075l0.059,0.076l0.058,0.076l0.057,0.078l0.056,0.078l0.055,0.078l0.054,0.08l0.054,0.08l0.052,0.081l0.052,0.081l0.051,0.082l0.049,0.083l0.049,0.083l0.048,0.085l0.046,0.084l0.046,0.086l0.045,0.086l0.043,0.086l0.043,0.088l0.042,0.088l0.04,0.088l0.04,0.089l0.039,0.089l0.037,0.091l0.036,0.09l0.036,0.091l0.034,0.092l0.033,0.093l0.032,0.093l0.031,0.093l0.03,0.094l0.029,0.094l0.027,0.095l0.027,0.096l0.025,0.095l0.024,0.096l0.023,0.097l0.022,0.097l0.021,0.098l0.019,0.098l0.018,0.098l0.017,0.099l0.016,0.099l0.015,0.1l0.013,0.1l0.012,0.1l0.011,0.1l0.009,0.101l0.009,0.102l0.007,0.101l0.006,0.102l0.004,0.102l0.003,0.103l0.002,0.102l0.001,0.097l0,3.251l-0.308,0.24l-11.035,-2.759l-0.117,-0.031l-0.127,-0.036l-0.125,-0.038l-0.124,-0.041l-0.123,-0.044l-0.122,-0.046l-0.12,-0.048l-0.119,-0.051l-0.117,-0.053l-0.117,-0.056l-0.114,-0.057l-0.114,-0.061l-0.111,-0.062l-0.111,-0.064l-0.108,-0.067l-0.107,-0.069l-0.106,-0.07l-0.103,-0.073l-0.103,-0.075l-0.1,-0.077l-0.099,-0.079l-0.097,-0.08l-0.095,-0.083l-0.093,-0.084l-0.092,-0.087l-0.09,-0.087l-0.088,-0.09l-0.085,-0.092l-0.084,-0.093l-0.083,-0.095l-0.08,-0.096l-0.078,-0.098l-0.076,-0.1l-0.074,-0.101l-0.072,-0.103l-0.071,-0.104l-0.067,-0.105l-0.066,-0.107l-0.064,-0.109l-0.061,-0.109l-0.059,-0.112l-0.057,-0.112l-0.055,-0.114l-0.053,-0.115l-0.05,-0.116l-0.048,-0.117l-0.045,-0.118l-0.043,-0.12l-0.041,-0.121l-0.038,-0.121l-0.036,-0.122l-0.033,-0.124l-0.031,-0.124l-0.028,-0.126l-0.026,-0.126l-0.023,-0.127l-0.021,-0.128l-0.017,-0.128l-0.015,-0.129l-0.013,-0.13l-0.01,-0.13l-0.007,-0.131l-0.004,-0.132l-0.001,-0.121l0,-2.761l8.006,0l0.097,0.001Zm-3.672,4.045l0.027,0.035l0.028,0.035l0.028,0.033l0.029,0.034l0.029,0.032l0.03,0.033l0.031,0.031l0.032,0.031l0.032,0.031l0.033,0.029l0.033,0.029l0.034,0.029l0.035,0.027l0.035,0.027l0.036,0.026l0.036,0.026l0.037,0.025l0.037,0.023l0.038,0.024l0.039,0.022l0.039,0.022l0.039,0.021l0.04,0.02l0.041,0.019l0.041,0.019l0.042,0.018l0.042,0.017l0.043,0.016l0.043,0.015l0.043,0.015l0.045,0.013l0.044,0.013l0.056,0.014l5.997,1.5l-0.018,-0.04l-0.02,-0.043l-0.022,-0.043l-0.021,-0.044l-0.023,-0.043l-0.023,-0.042l-0.023,-0.043l-0.024,-0.041l-0.024,-0.042l-0.025,-0.042l-0.025,-0.041l-0.026,-0.041l-0.026,-0.04l-0.027,-0.04l-0.027,-0.04l-0.028,-0.039l-0.028,-0.039l-0.029,-0.039l-0.029,-0.038l-0.029,-0.039l-0.03,-0.037l-0.031,-0.038l-0.031,-0.036l-0.031,-0.037l-0.032,-0.036l-0.032,-0.036l-0.032,-0.035l-0.033,-0.035l-0.034,-0.035l-0.034,-0.035l-0.034,-0.033l-0.035,-0.034l-0.035,-0.033l-0.035,-0.032l-0.036,-0.032l-0.036,-0.032l-0.037,-0.032l-0.037,-0.03l-0.037,-0.031l-0.038,-0.03l-0.038,-0.029l-0.038,-0.029l-0.038,-0.029l-0.04,-0.028l-0.039,-0.028l-0.04,-0.027l-0.04,-0.027l-0.041,-0.026l-0.04,-0.026l-0.041,-0.025l-0.042,-0.025l-0.042,-0.024l-0.042,-0.024l-0.042,-0.023l-0.042,-0.023l-0.043,-0.023l-0.043,-0.021l-0.044,-0.022l-0.044,-0.02l-0.044,-0.021l-0.044,-0.019l-0.045,-0.019l-0.045,-0.019l-0.045,-0.018l-0.045,-0.018l-0.046,-0.017l-0.046,-0.016l-0.046,-0.016l-0.046,-0.016l-0.047,-0.014l-0.047,-0.015l-0.047,-0.013l-0.047,-0.014l-0.048,-0.012l-0.048,-0.012l-0.048,-0.012l-0.048,-0.01l-0.049,-0.011l-0.049,-0.009l-0.049,-0.009l-0.049,-0.009l-0.049,-0.008l-0.05,-0.007l-0.05,-0.007l-0.05,-0.006l-0.051,-0.005l-0.05,-0.005l-0.051,-0.004l-0.051,-0.004l-0.051,-0.003l-0.052,-0.002l-0.052,-0.002l-0.052,-0.001l-0.058,0l-3.596,0l0.007,0.01l0.026,0.036Z"/>
            <path d="M16,8l-6,6" style="fill:none;stroke:#000;stroke-width:6px;stroke-linecap:square;"/>
            <path d="M16,8l7,7" style="fill:none;stroke:#000;stroke-width:6px;stroke-linecap:square;"/>
            <rect x="13" y="11" width="7" height="4"/>
        </g>
        <g id="emoji">
            <path d="M16,8c0,0 -6,6 -9,9" style="fill:none;stroke:#198040;stroke-width:2px;stroke-linecap:square;"/>
            <path d="M16,8l7,7" style="fill:none;stroke:#198040;stroke-width:2px;stroke-linecap:square;"/>
            <path d="M30,20c0,-1.326 -0.527,-2.598 -1.464,-3.536c-0.938,-0.937 -2.21,-1.464 -3.536,-1.464l-5,0c-1.326,0 -2.598,0.527 -3.536,1.464c-0.937,0.938 -1.464,2.21 -1.464,3.536l0,2.5c0,4.142 3.358,7.5 7.5,7.5l0,0c4.142,0 7.5,-3.358 7.5,-7.5l0,-2.5Z" style="fill:#d72d35;"/>
            <clipPath id="_clip2">
                <path d="M30,20c0,-1.326 -0.527,-2.598 -1.464,-3.536c-0.938,-0.937 -2.21,-1.464 -3.536,-1.464l-5,0c-1.326,0 -2.598,0.527 -3.536,1.464c-0.937,0.938 -1.464,2.21 -1.464,3.536l0,2.5c0,4.142 3.358,7.5 7.5,7.5l0,0c4.142,0 7.5,-3.358 7.5,-7.5l0,-2.5Z"/>
            </clipPath>
            <g clip-path="url(#_clip2)">
                <path d="M17,21c0,-1.591 -0.632,-3.117 -1.757,-4.243c-1.126,-1.125 -2.652,-1.757 -4.243,-1.757l-3,0c-1.591,0 -3.117,0.632 -4.243,1.757c-1.125,1.126 -1.757,2.652 -1.757,4.243l0,1.502c0,1.989 0.79,3.896 2.196,5.302c1.406,1.406 3.313,2.196 5.302,2.196l0.002,0c1.989,0 3.897,-0.79 5.303,-2.197c1.407,-1.406 2.197,-3.314 2.197,-5.303l0,-1.5Z" style="fill:#d72d35;stroke:#891a20;stroke-width:4px;"/>
            </g>
            <path d="M17,20c0,-1.326 -0.527,-2.598 -1.464,-3.536c-0.938,-0.937 -2.21,-1.464 -3.536,-1.464l-5,0c-1.326,0 -2.598,0.527 -3.536,1.464c-0.937,0.938 -1.464,2.21 -1.464,3.536l0,2.5c0,4.142 3.358,7.5 7.5,7.5l0,0c4.142,0 7.5,-3.358 7.5,-7.5l0,-2.5Z" style="fill:#d72d35;"/>
            <path d="M17,9l0,-1c0,-3.314 -2.686,-6 -6,-6c-3,0 -6,0 -6,0l0,0.75c0,1.91 1.3,3.575 3.153,4.038c3.555,0.889 8.847,2.212 8.847,2.212Z" style="fill:#219555;"/>
            <path d="M9,19c0,-1.105 0.895,-2 2,-2c0.322,0 0.661,0 1,0c1.657,0 3,1.343 3,3l0,1c0,1.105 -0.895,2 -2,2c-1.061,0 -2.078,-0.421 -2.828,-1.172c-0.751,-0.75 -1.172,-1.767 -1.172,-2.828l0,0Z" style="fill:#ff535b;"/>
            <path d="M22,19c0,-1.105 0.895,-2 2,-2c0.322,0 0.661,0 1,0c1.657,0 3,1.343 3,3l0,1c0,1.105 -0.895,2 -2,2c-1.061,0 -2.078,-0.421 -2.828,-1.172c-0.751,-0.75 -1.172,-1.767 -1.172,-2.828l0,0Z" style="fill:#ff535b;"/>
        </g>
    </g>
</svg>
