<?xml version="1.0" encoding="UTF-8" standalone="no"?><!DOCTYPE svg PUBLIC "-//W3C//DTD SVG 1.1//EN" "http://www.w3.org/Graphics/SVG/1.1/DTD/svg11.dtd"><svg width="100%" height="100%" viewBox="0 0 32 32" version="1.1" xmlns="http://www.w3.org/2000/svg" xmlns:xlink="http://www.w3.org/1999/xlink" xml:space="preserve" xmlns:serif="http://www.serif.com/" style="fill-rule:evenodd;clip-rule:evenodd;stroke-linejoin:round;stroke-miterlimit:1.41421;"><rect id="eggplant" x="0" y="0" width="32" height="32" style="fill:none;"/><g id="outline"><path d="M2.449,7.008l-0.664,-1.661c-0.15,-0.391 -0.229,-0.801 -0.222,-1.22c0.005,-0.288 0.049,-0.576 0.131,-0.852c0.27,-0.907 0.946,-1.662 1.819,-2.028c0.386,-0.162 0.797,-0.24 1.214,-0.247c0.074,0 0.074,0.001 0.148,0.003c0.172,0.012 0.34,0.033 0.508,0.075c0.331,0.083 0.644,0.232 0.918,0.434c0.098,0.073 0.188,0.152 0.276,0.236l1.599,1.599l0.042,-0.001c0.141,-0.003 0.14,-0.003 0.282,-0.002c0.376,0.009 0.749,0.042 1.119,0.111c0.84,0.155 1.649,0.472 2.37,0.931c0.371,0.236 0.713,0.51 1.034,0.811c1.371,1.34 2.705,2.717 4.068,4.064c0.354,0.342 0.732,0.656 1.139,0.933c0.407,0.277 0.837,0.514 1.285,0.718c2.149,0.95 4.315,1.862 6.464,2.813c0.356,0.163 0.702,0.343 1.036,0.548c0.726,0.444 1.389,0.99 1.967,1.615c0.763,0.827 1.373,1.794 1.791,2.839c0.391,0.977 0.613,2.019 0.655,3.069c0.037,0.927 -0.066,1.858 -0.305,2.754c-0.522,1.958 -1.696,3.724 -3.273,4.992c-0.922,0.742 -1.98,1.312 -3.106,1.676c-1.25,0.404 -2.579,0.55 -3.887,0.429c-1.006,-0.093 -1.996,-0.344 -2.925,-0.741c-0.392,-0.168 -0.77,-0.363 -1.138,-0.578c-1.901,-1.144 -3.793,-2.303 -5.679,-3.471c-0.771,-0.49 -1.509,-1.028 -2.2,-1.625c-1.634,-1.41 -3.01,-3.114 -4.044,-5.008c-0.402,-0.736 -0.753,-1.5 -1.048,-2.285c-0.149,-0.396 -0.282,-0.797 -0.405,-1.201c-0.482,-1.65 -0.946,-3.305 -1.418,-4.958c-0.07,-0.255 -0.129,-0.511 -0.171,-0.772c-0.082,-0.517 -0.102,-1.043 -0.06,-1.565c0.068,-0.846 0.3,-1.677 0.68,-2.435Z"/></g><g id="emoji"><path d="M13,8l2.606,2.606c0.921,0.921 2.007,1.661 3.201,2.18c1.573,0.684 3.956,1.721 6.266,2.725c1.812,0.788 3.223,2.28 3.91,4.132c0.686,1.852 0.589,3.903 -0.271,5.681c-0.001,0.001 -0.001,0.001 -0.001,0.002c-0.95,1.963 -2.684,3.434 -4.777,4.049c-2.092,0.615 -4.347,0.317 -6.207,-0.82c-1.802,-1.101 -3.699,-2.26 -5.389,-3.293c-3.433,-2.098 -5.951,-5.409 -7.057,-9.277l-0.781,-2.735l1.995,-6.002l6.505,0.752Z" style="fill:#5c247c;"/><path d="M4.5,13.25l-0.574,-2.01c-0.552,-1.93 0.207,-3.996 1.878,-5.109c0,0 0,-0.001 0.001,-0.001c1.858,-1.238 4.331,-0.994 5.91,0.585l1.285,1.285l0,1l-3,0l-1,3l-3,-1l-1.5,2.25Z" style="fill:#219555;"/><path d="M12.047,12.501c0.121,0.006 0.24,0.022 0.358,0.055c0.35,0.098 0.658,0.325 0.856,0.631c0.124,0.193 0.184,0.412 0.265,0.625c0.038,0.094 0.077,0.187 0.117,0.28c0.125,0.274 0.266,0.54 0.428,0.794c0.363,0.568 0.82,1.076 1.347,1.496c0.316,0.252 0.656,0.469 1.013,0.656c1.741,0.884 3.493,1.747 5.24,2.62c0.194,0.103 0.365,0.235 0.503,0.408c0.12,0.151 0.211,0.326 0.265,0.512c0.048,0.162 0.068,0.332 0.059,0.501c-0.008,0.145 -0.037,0.289 -0.085,0.425c-0.049,0.137 -0.118,0.266 -0.203,0.383c-0.26,0.354 -0.671,0.58 -1.108,0.61c-0.245,0.016 -0.481,-0.031 -0.707,-0.125c-1.801,-0.846 -3.565,-1.767 -5.339,-2.668c-0.433,-0.226 -0.849,-0.481 -1.242,-0.772c-0.868,-0.641 -1.62,-1.436 -2.211,-2.339c-0.287,-0.437 -0.536,-0.899 -0.743,-1.379c-0.075,-0.173 -0.145,-0.348 -0.209,-0.525c-0.012,-0.036 -0.025,-0.071 -0.037,-0.107c-0.011,-0.031 -0.043,-0.126 -0.033,-0.094l-0.021,-0.069c-0.05,-0.189 -0.072,-0.38 -0.052,-0.575c0.053,-0.511 0.375,-0.969 0.837,-1.193c0.176,-0.086 0.363,-0.13 0.557,-0.148c0.073,-0.003 0.072,-0.003 0.145,-0.002Z" style="fill:#8836ba;fill-rule:nonzero;"/><path d="M5,8c0,0 -0.768,-1.921 -1.353,-3.382c-0.145,-0.363 -0.101,-0.775 0.119,-1.1c0.219,-0.324 0.585,-0.518 0.977,-0.518c0.001,0 0.002,0 0.003,0c0.162,0 0.319,0.065 0.434,0.18c0.647,0.647 2.82,2.82 2.82,2.82l-3,2Z" style="fill:#219555;"/></g></svg>