<?xml version="1.0" encoding="UTF-8" standalone="no"?>
<!DOCTYPE svg PUBLIC "-//W3C//DTD SVG 1.1//EN" "http://www.w3.org/Graphics/SVG/1.1/DTD/svg11.dtd">
<svg width="100%" height="100%" viewBox="0 0 32 32" version="1.1" xmlns="http://www.w3.org/2000/svg" xmlns:xlink="http://www.w3.org/1999/xlink" xml:space="preserve" xmlns:serif="http://www.serif.com/" style="fill-rule:evenodd;clip-rule:evenodd;stroke-linecap:round;stroke-miterlimit:3;">
    <rect id="lemon" x="0" y="0" width="32" height="32" style="fill:none;"/>
    <clipPath id="_clip1">
        <rect x="0" y="0" width="32" height="32"/>
    </clipPath>
    <g clip-path="url(#_clip1)">
        <g id="outline">
            <path d="M12.402,0.102l0.116,0.002l0.115,0.004l0.116,0.005l0.116,0.007l0.115,0.007l0.115,0.01l0.116,0.01l0.115,0.012l0.115,0.013l0.116,0.015l0.114,0.016l0.115,0.017l0.115,0.018l0.115,0.02l0.114,0.021l0.114,0.023l0.114,0.024l0.113,0.025l0.114,0.027l0.113,0.027l0.113,0.03l0.113,0.03l0.113,0.032l0.112,0.034l0.112,0.034l0.111,0.036l0.112,0.038l0.111,0.038l0.11,0.04l0.111,0.042l0.109,0.043l0.11,0.044l0.109,0.045l0.109,0.047l0.108,0.048l0.108,0.05l0.107,0.05l0.107,0.053l0.106,0.053l0.106,0.055l0.105,0.056l0.105,0.058l0.105,0.059l0.103,0.06l0.104,0.062l0.102,0.063l0.102,0.064l0.101,0.066l0.101,0.066l0.1,0.069l0.1,0.07l0.098,0.071l0.099,0.072l0.097,0.074l0.097,0.075l0.096,0.076l0.095,0.078l0.094,0.078l0.094,0.081l0.089,0.077l1.565,1.392l-4.761,10.099l-9.677,10.887l-0.018,0l-2.599,-2.924l-0.102,-0.116l-0.104,-0.122l-0.103,-0.122l-0.101,-0.124l-0.099,-0.125l-0.097,-0.125l-0.096,-0.127l-0.094,-0.127l-0.092,-0.128l-0.091,-0.13l-0.088,-0.13l-0.087,-0.13l-0.086,-0.132l-0.083,-0.132l-0.082,-0.134l-0.08,-0.133l-0.078,-0.135l-0.077,-0.135l-0.075,-0.136l-0.073,-0.137l-0.071,-0.138l-0.069,-0.138l-0.068,-0.138l-0.066,-0.139l-0.065,-0.14l-0.062,-0.141l-0.061,-0.141l-0.059,-0.141l-0.057,-0.143l-0.056,-0.142l-0.054,-0.143l-0.052,-0.144l-0.05,-0.144l-0.049,-0.144l-0.046,-0.145l-0.045,-0.145l-0.044,-0.146l-0.041,-0.146l-0.04,-0.146l-0.038,-0.147l-0.037,-0.147l-0.034,-0.148l-0.033,-0.147l-0.031,-0.148l-0.03,-0.148l-0.027,-0.149l-0.026,-0.148l-0.024,-0.149l-0.023,-0.15l-0.02,-0.149l-0.019,-0.149l-0.018,-0.15l-0.015,-0.149l-0.014,-0.15l-0.012,-0.15l-0.01,-0.15l-0.009,-0.15l-0.007,-0.151l-0.005,-0.15l-0.003,-0.15l-0.002,-0.15l0,-0.15l0.002,-0.151l0.004,-0.15l0.005,-0.15l0.007,-0.15l0.009,-0.15l0.01,-0.15l0.012,-0.15l0.014,-0.149l0.016,-0.15l0.017,-0.149l0.019,-0.149l0.021,-0.149l0.023,-0.149l0.024,-0.149l0.026,-0.148l0.028,-0.148l0.029,-0.147l0.031,-0.148l0.033,-0.147l0.035,-0.147l0.036,-0.147l0.038,-0.146l0.04,-0.146l0.041,-0.145l0.043,-0.145l0.045,-0.145l0.047,-0.145l0.048,-0.143l0.05,-0.144l0.052,-0.142l0.054,-0.143l0.055,-0.142l0.057,-0.141l0.059,-0.141l0.06,-0.14l0.062,-0.14l0.064,-0.139l0.066,-0.138l0.067,-0.138l0.069,-0.137l0.071,-0.137l0.072,-0.136l0.074,-0.135l0.076,-0.134l0.077,-0.134l0.079,-0.133l0.082,-0.132l0.082,-0.132l0.084,-0.13l0.087,-0.13l0.087,-0.129l0.09,-0.128l0.091,-0.127l0.093,-0.127l0.094,-0.125l0.096,-0.125l0.098,-0.123l0.1,-0.123l0.101,-0.122l0.103,-0.12l0.105,-0.12l0.106,-0.119l0.108,-0.117l0.11,-0.117l0.111,-0.115l0.109,-0.11l0.691,-0.691l0.513,-0.484l0.043,-0.043l0.083,-0.083l0.089,-0.085l0.089,-0.085l0.091,-0.083l0.091,-0.082l0.092,-0.081l0.093,-0.079l0.093,-0.079l0.094,-0.076l0.095,-0.076l0.096,-0.074l0.097,-0.073l0.097,-0.072l0.098,-0.07l0.098,-0.069l0.1,-0.068l0.1,-0.066l0.1,-0.066l0.101,-0.063l0.102,-0.063l0.102,-0.061l0.103,-0.06l0.104,-0.059l0.104,-0.057l0.105,-0.056l0.105,-0.054l0.105,-0.054l0.106,-0.052l0.107,-0.05l0.107,-0.05l0.108,-0.048l0.108,-0.046l0.108,-0.046l0.109,-0.044l0.109,-0.042l0.11,-0.042l0.11,-0.04l0.11,-0.039l0.111,-0.037l0.111,-0.036l0.111,-0.035l0.112,-0.033l0.112,-0.032l0.112,-0.031l0.113,-0.029l0.113,-0.028l0.113,-0.027l0.113,-0.026l0.114,-0.024l0.113,-0.023l0.114,-0.021l0.115,-0.02l0.114,-0.019l0.114,-0.017l0.115,-0.017l0.115,-0.014l0.115,-0.014l0.115,-0.012l0.115,-0.011l0.115,-0.009l0.116,-0.008l0.115,-0.007l0.116,-0.006l0.115,-0.004l0.116,-0.003l0.116,-0.001l0.115,0l0.116,0.001Zm-0.202,3.999l-0.07,0.001l-0.069,0.001l-0.07,0.003l-0.069,0.003l-0.07,0.004l-0.069,0.005l-0.07,0.006l-0.069,0.006l-0.069,0.008l-0.069,0.008l-0.069,0.009l-0.069,0.009l-0.069,0.011l-0.069,0.011l-0.069,0.012l-0.068,0.013l-0.068,0.014l-0.069,0.014l-0.068,0.016l-0.068,0.016l-0.067,0.017l-0.068,0.017l-0.067,0.019l-0.067,0.019l-0.067,0.02l-0.067,0.021l-0.067,0.021l-0.066,0.023l-0.066,0.023l-0.066,0.024l-0.066,0.025l-0.065,0.025l-0.065,0.027l-0.065,0.027l-0.065,0.028l-0.064,0.028l-0.064,0.03l-0.064,0.03l-0.063,0.031l-0.063,0.032l-0.063,0.033l-0.063,0.033l-0.062,0.034l-0.062,0.035l-0.061,0.036l-0.062,0.037l-0.06,0.037l-0.061,0.038l-0.06,0.039l-0.06,0.04l-0.059,0.041l-0.059,0.041l-0.059,0.042l-0.058,0.043l-0.058,0.044l-0.057,0.044l-0.057,0.046l-0.057,0.046l-0.056,0.047l-0.056,0.048l-0.056,0.048l-0.055,0.05l-0.054,0.05l-0.054,0.051l-0.054,0.052l-0.057,0.057l-0.078,0.078l-0.517,0.487l-0.64,0.641l-0.083,0.084l-0.078,0.08l-0.076,0.081l-0.075,0.082l-0.074,0.082l-0.073,0.083l-0.071,0.084l-0.07,0.084l-0.069,0.085l-0.068,0.086l-0.067,0.086l-0.065,0.087l-0.064,0.087l-0.063,0.088l-0.062,0.089l-0.061,0.089l-0.059,0.09l-0.059,0.09l-0.057,0.091l-0.055,0.091l-0.055,0.092l-0.054,0.092l-0.052,0.093l-0.051,0.094l-0.05,0.093l-0.049,0.095l-0.048,0.094l-0.046,0.096l-0.045,0.095l-0.045,0.096l-0.042,0.097l-0.042,0.097l-0.041,0.097l-0.039,0.098l-0.038,0.098l-0.037,0.098l-0.036,0.099l-0.035,0.099l-0.033,0.1l-0.032,0.099l-0.031,0.1l-0.03,0.101l-0.029,0.1l-0.028,0.101l-0.026,0.102l-0.025,0.101l-0.024,0.102l-0.023,0.102l-0.021,0.102l-0.021,0.102l-0.019,0.103l-0.018,0.103l-0.017,0.103l-0.015,0.103l-0.015,0.103l-0.013,0.104l-0.012,0.103l-0.011,0.104l-0.01,0.104l-0.008,0.104l-0.007,0.103l-0.006,0.104l-0.005,0.105l-0.004,0.104l-0.002,0.104l-0.002,0.104l0,0.104l0.002,0.105l0.002,0.104l0.003,0.104l0.005,0.104l0.006,0.104l0.007,0.104l0.009,0.104l0.009,0.104l0.011,0.104l0.012,0.103l0.013,0.104l0.014,0.104l0.016,0.103l0.016,0.103l0.018,0.103l0.02,0.103l0.02,0.102l0.021,0.103l0.023,0.102l0.024,0.102l0.025,0.102l0.027,0.101l0.027,0.101l0.029,0.101l0.03,0.101l0.031,0.1l0.032,0.101l0.034,0.099l0.035,0.1l0.036,0.099l0.037,0.099l0.038,0.098l0.04,0.099l0.041,0.097l0.042,0.098l0.043,0.097l0.044,0.096l0.046,0.096l0.047,0.096l0.048,0.095l0.049,0.095l0.05,0.095l0.052,0.094l0.053,0.093l0.054,0.093l0.055,0.093l0.057,0.092l0.057,0.091l0.059,0.091l0.061,0.091l0.061,0.09l0.063,0.089l0.064,0.089l0.065,0.089l0.066,0.087l0.052,0.067l6.301,-7.089l3.21,-6.81l-0.057,-0.037l-0.061,-0.039l-0.062,-0.038l-0.061,-0.037l-0.062,-0.036l-0.063,-0.035l-0.062,-0.034l-0.063,-0.034l-0.064,-0.033l-0.063,-0.032l-0.064,-0.031l-0.064,-0.03l-0.065,-0.03l-0.064,-0.029l-0.065,-0.028l-0.066,-0.027l-0.065,-0.026l-0.066,-0.026l-0.066,-0.025l-0.066,-0.024l-0.066,-0.023l-0.067,-0.022l-0.067,-0.022l-0.067,-0.02l-0.067,-0.02l-0.067,-0.019l-0.068,-0.019l-0.068,-0.017l-0.068,-0.017l-0.067,-0.016l-0.069,-0.015l-0.068,-0.015l-0.069,-0.013l-0.068,-0.013l-0.069,-0.012l-0.069,-0.011l-0.069,-0.01l-0.069,-0.01l-0.069,-0.008l-0.069,-0.008l-0.07,-0.007l-0.069,-0.007l-0.069,-0.005l-0.07,-0.005l-0.069,-0.004l-0.07,-0.003l-0.07,-0.002l-0.069,-0.002l-0.069,0l-0.07,0Z"/>
            <path d="M30,21c0,-8.837 -7.163,-16 -16,-16l-6,0c-1.657,0 -3,1.343 -3,3l0,6c0,8.837 7.163,16 16,16l6,0c1.657,0 3,-1.343 3,-3l0,-6Z" style="fill:none;stroke:#000;stroke-width:4px;"/>
        </g>
        <g id="emoji">
            <path d="M6,5l0.515,-0.485l1.485,0.485l-2,1l0,-1Z" style="fill:#219555;"/>
            <path d="M30,21c0,-8.837 -7.163,-16 -16,-16l-6,0c-1.657,0 -3,1.343 -3,3l0,6c0,8.837 7.163,16 16,16l6,0c1.657,0 3,-1.343 3,-3l0,-6Z" style="fill:#fdef24;"/>
            <path d="M14,8.666c0,-0.92 0.746,-1.666 1.666,-1.666c0.001,0 0.001,0 0.002,0c6.811,0 12.332,5.521 12.332,12.332c0,0.392 0,0.76 0,1.096c0,0.55 -0.218,1.077 -0.607,1.465c-0.388,0.389 -0.915,0.607 -1.465,0.607c-0.061,0 -0.122,0 -0.183,0c-1.584,0 -2.936,-1.145 -3.196,-2.707c-0.02,-0.116 -0.039,-0.234 -0.059,-0.353c-0.609,-3.654 -3.188,-6.673 -6.703,-7.844c0,0 -0.001,-0.001 -0.001,-0.001c-1.067,-0.355 -1.786,-1.353 -1.786,-2.478c0,-0.15 0,-0.302 0,-0.451Z" style="fill:#fef9b5;"/>
            <path d="M6,22c0,0 0.179,-0.202 0.484,-0.545c4.221,-4.748 4.009,-11.962 -0.483,-16.454c-0.001,-0.001 -0.001,-0.001 -0.001,-0.001c0,0 -0.252,0.252 -0.666,0.666c-4.118,4.118 -4.313,10.733 -0.443,15.086c0.671,0.755 1.109,1.248 1.109,1.248Z" style="fill:#219555;"/>
            <path d="M18,4.515c0,0 -0.166,-0.148 -0.443,-0.394c-3.17,-2.818 -7.988,-2.672 -10.982,0.333c-0.039,0.04 -0.06,0.061 -0.06,0.061c0,0 0,0 0,0c3.027,3.039 7.9,3.186 11.106,0.337c0.238,-0.212 0.379,-0.337 0.379,-0.337Z" style="fill:#219555;"/>
        </g>
    </g>
</svg>
