<?xml version="1.0" encoding="UTF-8" standalone="no"?>
<!DOCTYPE svg PUBLIC "-//W3C//DTD SVG 1.1//EN" "http://www.w3.org/Graphics/SVG/1.1/DTD/svg11.dtd">
<svg width="100%" height="100%" viewBox="0 0 32 32" version="1.1" xmlns="http://www.w3.org/2000/svg" xmlns:xlink="http://www.w3.org/1999/xlink" xml:space="preserve" xmlns:serif="http://www.serif.com/" style="fill-rule:evenodd;clip-rule:evenodd;stroke-linecap:round;stroke-miterlimit:3;">
    <rect id="orange" x="0" y="0" width="32" height="32" style="fill:none;"/>
    <clipPath id="_clip1">
        <rect x="0" y="0" width="32" height="32"/>
    </clipPath>
    <g clip-path="url(#_clip1)">
        <g id="outline">
            <path d="M29,18c0,-3.183 -1.264,-6.235 -3.515,-8.485c-2.25,-2.251 -5.302,-3.515 -8.485,-3.515c-0.333,0 -0.667,0 -1,0c-3.183,0 -6.235,1.264 -8.485,3.515c-2.251,2.25 -3.515,5.302 -3.515,8.485c0,0 0,0 0,0c0,3.183 1.264,6.235 3.515,8.485c2.25,2.251 5.302,3.515 8.485,3.515c0.333,0 0.667,0 1,0c3.183,0 6.235,-1.264 8.485,-3.515c2.251,-2.25 3.515,-5.302 3.515,-8.485c0,0 0,0 0,0Z" style="fill:none;stroke:#000;stroke-width:4px;"/>
            <path d="M16,3c0,0 -2.418,0 -4.987,0c-3.591,0 -6.779,2.298 -7.914,5.704c-0.063,0.188 -0.099,0.296 -0.099,0.296c0,0 2.715,0 4.763,0c1.432,0 2.806,-0.569 3.819,-1.582c1.465,-1.465 3.418,-3.418 3.418,-3.418l1,-1Z" style="fill:none;stroke:#000;stroke-width:4px;stroke-miterlimit:2;"/>
            <path d="M16,4l0,2" style="fill:none;stroke:#000;stroke-width:6px;stroke-linecap:square;stroke-linejoin:round;"/>
        </g>
        <g id="emoji">
            <path d="M29,18c0,-3.183 -1.264,-6.235 -3.515,-8.485c-2.25,-2.251 -5.302,-3.515 -8.485,-3.515c-0.333,0 -0.667,0 -1,0c-3.183,0 -6.235,1.264 -8.485,3.515c-2.251,2.25 -3.515,5.302 -3.515,8.485c0,0 0,0 0,0c0,3.183 1.264,6.235 3.515,8.485c2.25,2.251 5.302,3.515 8.485,3.515c0.333,0 0.667,0 1,0c3.183,0 6.235,-1.264 8.485,-3.515c2.251,-2.25 3.515,-5.302 3.515,-8.485c0,0 0,0 0,0Z" style="fill:#e48a1b;"/>
            <path d="M17,10c0,0 0.388,0 1.002,0c4.417,0 7.998,3.581 7.998,7.998c0,0.001 0,0.002 0,0.002" style="fill:none;stroke:#ffc37a;stroke-width:3px;stroke-linejoin:round;stroke-miterlimit:1.5;"/>
            <path d="M16,3c0,0 -2.418,0 -4.987,0c-3.591,0 -6.779,2.298 -7.914,5.704c-0.063,0.188 -0.099,0.296 -0.099,0.296c0,0 2.715,0 4.763,0c1.432,0 2.806,-0.569 3.819,-1.582c1.465,-1.465 3.418,-3.418 3.418,-3.418l1,-1Z" style="fill:#219555;"/>
        </g>
        <path d="M16,4l0,2" style="fill:none;stroke:#219555;stroke-width:2px;stroke-linecap:square;stroke-linejoin:round;"/>
    </g>
</svg>
