<?xml version="1.0" encoding="UTF-8" standalone="no"?>
<!DOCTYPE svg PUBLIC "-//W3C//DTD SVG 1.1//EN" "http://www.w3.org/Graphics/SVG/1.1/DTD/svg11.dtd">
<svg width="100%" height="100%" viewBox="0 0 32 32" version="1.1" xmlns="http://www.w3.org/2000/svg" xmlns:xlink="http://www.w3.org/1999/xlink" xml:space="preserve" xmlns:serif="http://www.serif.com/" style="fill-rule:evenodd;clip-rule:evenodd;stroke-linecap:round;stroke-linejoin:round;stroke-miterlimit:3;">
    <rect id="orange" x="0" y="0" width="32" height="32" style="fill:none;"/>
    <clipPath id="_clip1">
        <rect x="0" y="0" width="32" height="32"/>
    </clipPath>
    <g clip-path="url(#_clip1)">
        <g id="outline">
            <path d="M15,4.5l0,-2c0,-0.133 0.053,-0.26 0.146,-0.354c0.094,-0.093 0.221,-0.146 0.354,-0.146c0.305,0 0.695,0 1,0c0.133,0 0.26,0.053 0.354,0.146c0.093,0.094 0.146,0.221 0.146,0.354l0,3.5c3.183,0 6.235,1.264 8.485,3.515c2.251,2.25 3.515,5.302 3.515,8.485l0,0c0,3.183 -1.264,6.235 -3.515,8.485c-2.25,2.251 -5.302,3.515 -8.485,3.515l-1,0c-3.183,0 -6.235,-1.264 -8.485,-3.515c-2.251,-2.25 -3.515,-5.302 -3.515,-8.485l0,0c0,-3.183 1.264,-6.235 3.515,-8.485c0.926,-0.927 1.989,-1.686 3.141,-2.259c-1.086,0.098 -2.192,-0.134 -3.165,-0.69c-2.008,-1.147 -4.491,-2.566 -4.491,-2.566c0,0 0.447,-0.268 1.073,-0.644c2.446,-1.467 5.472,-1.584 8.023,-0.308l2.904,1.452Zm0,1.542l0,-0.542l-1.547,0.773c0.508,-0.11 1.025,-0.188 1.547,-0.231Z" style="fill:none;stroke:#000;stroke-width:4px;"/>
        </g>
        <g id="emoji">
            <path d="M17,2.5c0,-0.133 -0.053,-0.26 -0.146,-0.354c-0.094,-0.093 -0.221,-0.146 -0.354,-0.146c-0.305,0 -0.695,0 -1,0c-0.133,0 -0.26,0.053 -0.354,0.146c-0.093,0.094 -0.146,0.221 -0.146,0.354c0,1.751 0,7.5 0,7.5l2,0l0,-7.5Z" style="fill:#1c7d46;"/>
            <path d="M16,5c0,0 -1.936,-0.968 -3.904,-1.952c-2.551,-1.276 -5.577,-1.159 -8.023,0.308c-0.626,0.376 -1.073,0.644 -1.073,0.644c0,0 2.483,1.419 4.491,2.566c1.567,0.896 3.479,0.949 5.094,0.142c1.625,-0.813 3.415,-1.708 3.415,-1.708Z" style="fill:#219555;"/>
            <path d="M29,18c0,-3.183 -1.264,-6.235 -3.515,-8.485c-2.25,-2.251 -5.302,-3.515 -8.485,-3.515l-1,0c-3.183,0 -6.235,1.264 -8.485,3.515c-2.251,2.25 -3.515,5.302 -3.515,8.485l0,0c0,3.183 1.264,6.235 3.515,8.485c2.25,2.251 5.302,3.515 8.485,3.515l1,0c3.183,0 6.235,-1.264 8.485,-3.515c2.251,-2.25 3.515,-5.302 3.515,-8.485l0,0Z" style="fill:#ee9b15;"/>
            <path d="M16.685,11.15c0.077,-0.773 -0.196,-1.54 -0.746,-2.089c-0.549,-0.55 -1.316,-0.823 -2.089,-0.746c0,0 -0.001,0 -0.002,0c-3.983,0.399 -7.134,3.55 -7.533,7.533c0,0.001 0,0.002 0,0.002c-0.077,0.773 0.196,1.54 0.746,2.089c0.549,0.55 1.316,0.823 2.089,0.746c0,0 0.001,0 0.002,0c3.983,-0.399 7.134,-3.55 7.533,-7.533c0,-0.001 0,-0.002 0,-0.002Z" style="fill:#ffb96a;"/>
        </g>
    </g>
</svg>
