<?xml version="1.0" encoding="UTF-8" standalone="no"?>
<!DOCTYPE svg PUBLIC "-//W3C//DTD SVG 1.1//EN" "http://www.w3.org/Graphics/SVG/1.1/DTD/svg11.dtd">
<svg width="100%" height="100%" viewBox="0 0 32 32" version="1.1" xmlns="http://www.w3.org/2000/svg" xmlns:xlink="http://www.w3.org/1999/xlink" xml:space="preserve" xmlns:serif="http://www.serif.com/" style="fill-rule:evenodd;clip-rule:evenodd;stroke-linejoin:round;stroke-miterlimit:2;">
    <rect id="peach" x="0" y="0" width="32" height="32" style="fill:none;"/>
    <clipPath id="_clip1">
        <rect x="0" y="0" width="32" height="32"/>
    </clipPath>
    <g clip-path="url(#_clip1)">
        <g id="Layer1">
            <path d="M16,9l0,-2c0,-1.657 -1.343,-3 -3,-3c-2.946,0 -7,0 -7,0l0,0.158c0,1.376 0.937,2.576 2.272,2.91c2.951,0.738 7.728,1.932 7.728,1.932Z" style="fill:#4eb61e;"/>
            <path d="M5.017,7.177c-0.377,-0.497 -0.662,-1.063 -0.831,-1.667c-0.123,-0.438 -0.181,-0.888 -0.186,-1.342l0,-2.168c3.043,0 6.086,-0.037 9.128,0.001c0.169,0.007 0.338,0.018 0.506,0.039c0.411,0.052 0.815,0.156 1.2,0.307c0.748,0.295 1.42,0.773 1.946,1.38c0.423,0.488 0.75,1.058 0.957,1.67c0.064,0.188 0.116,0.38 0.157,0.574c0.825,-0.259 1.68,-0.418 2.543,-0.475c1.482,-0.096 2.98,0.114 4.377,0.616c1.64,0.589 3.129,1.576 4.31,2.857c0.696,0.754 1.284,1.608 1.741,2.527c0.536,1.078 0.89,2.244 1.045,3.438c0.149,1.152 0.108,2.33 -0.067,3.477c-0.196,1.278 -0.574,2.527 -1.121,3.698c-0.766,1.64 -1.86,3.122 -3.199,4.34c-1.222,1.11 -2.643,1.997 -4.179,2.602c-1.051,0.415 -2.153,0.697 -3.274,0.839c-0.518,0.066 -1.039,0.099 -1.562,0.109c-1.672,0.01 -3.344,0.01 -5.016,0c-0.523,-0.01 -1.044,-0.043 -1.562,-0.109c-1.01,-0.128 -2.005,-0.37 -2.961,-0.72c-2.325,-0.851 -4.398,-2.342 -5.951,-4.27c-1.039,-1.29 -1.841,-2.768 -2.352,-4.344c-0.352,-1.084 -0.566,-2.211 -0.638,-3.348c-0.059,-0.932 -0.023,-1.868 0.141,-2.788c0.251,-1.407 0.783,-2.761 1.556,-3.963c0.715,-1.111 1.633,-2.089 2.697,-2.872c0.194,-0.142 0.392,-0.278 0.595,-0.408Z"/>
        </g>
        <g id="Layer2">
            <path d="M17.183,8.408c2.746,-1.372 6.006,-1.226 8.617,0.388c2.611,1.614 4.2,4.464 4.2,7.533c0,0.001 0,0.002 0,0.003c0,6.444 -5.224,11.668 -11.668,11.668l-4.664,0c-6.444,0 -11.668,-5.224 -11.668,-11.668l0,-0.003c0,-3.069 1.589,-5.919 4.2,-7.533c2.611,-1.614 5.871,-1.76 8.617,-0.388c0.735,0.368 1.183,0.592 1.183,0.592c0,0 0.448,-0.224 1.183,-0.592Z" style="fill:#df8721;"/>
            <path d="M18.057,9.418c0.079,0.008 0.155,0.018 0.231,0.041c0.077,0.023 0.146,0.057 0.216,0.094c0.371,0.216 0.743,0.431 1.112,0.65c0.553,0.341 1.071,0.73 1.543,1.177c1.212,1.148 2.095,2.628 2.529,4.241c0.129,0.479 0.218,0.968 0.267,1.461c0.025,0.25 0.038,0.5 0.044,0.751c0.002,0.309 0.002,0.617 0,0.926c-0.012,0.635 -0.082,1.267 -0.222,1.888c-0.252,1.12 -0.719,2.191 -1.368,3.139c-0.296,0.432 -0.631,0.835 -0.994,1.213c-0.566,0.572 -1.139,1.139 -1.708,1.708c-0.051,0.047 -0.063,0.061 -0.119,0.102c-0.085,0.062 -0.179,0.11 -0.279,0.142c-0.407,0.132 -0.866,-0.017 -1.118,-0.363c-0.062,-0.085 -0.11,-0.179 -0.142,-0.279c-0.032,-0.1 -0.049,-0.204 -0.049,-0.309c0,-0.184 0.051,-0.366 0.147,-0.522c0.042,-0.069 0.092,-0.127 0.146,-0.185c0.584,-0.584 1.178,-1.159 1.751,-1.754c0.3,-0.319 0.573,-0.661 0.811,-1.028c0.536,-0.825 0.897,-1.76 1.054,-2.731c0.042,-0.259 0.069,-0.52 0.082,-0.782c0.019,-0.377 0.011,-0.755 0.008,-1.132c-0.003,-0.117 -0.003,-0.117 -0.008,-0.235c-0.029,-0.504 -0.103,-1.003 -0.235,-1.49c-0.318,-1.184 -0.946,-2.277 -1.807,-3.148c-0.411,-0.415 -0.872,-0.772 -1.369,-1.079c-0.36,-0.214 -0.722,-0.423 -1.084,-0.634c-0.059,-0.037 -0.075,-0.045 -0.129,-0.089c-0.081,-0.066 -0.151,-0.145 -0.208,-0.233c-0.057,-0.089 -0.099,-0.186 -0.126,-0.287c-0.102,-0.387 0.043,-0.808 0.362,-1.05c0.104,-0.08 0.224,-0.138 0.351,-0.171c0.067,-0.018 0.085,-0.019 0.154,-0.028c0.078,-0.005 0.078,-0.005 0.157,-0.004Z" style="fill:#ca5415;fill-rule:nonzero;"/>
            <path d="M16,9l0,-2c0,-1.657 -1.343,-3 -3,-3c-2.946,0 -7,0 -7,0l0,0.158c0,1.376 0.937,2.576 2.272,2.91c2.951,0.738 7.728,1.932 7.728,1.932Z" style="fill:#219555;"/>
        </g>
    </g>
</svg>
