<?xml version="1.0" encoding="UTF-8" standalone="no"?>
<!DOCTYPE svg PUBLIC "-//W3C//DTD SVG 1.1//EN" "http://www.w3.org/Graphics/SVG/1.1/DTD/svg11.dtd">
<svg width="100%" height="100%" viewBox="0 0 32 32" version="1.1" xmlns="http://www.w3.org/2000/svg" xmlns:xlink="http://www.w3.org/1999/xlink" xml:space="preserve" xmlns:serif="http://www.serif.com/" style="fill-rule:evenodd;clip-rule:evenodd;stroke-linecap:round;stroke-linejoin:round;stroke-miterlimit:1.5;">
    <rect id="pear" x="0" y="0" width="32" height="32" style="fill:none;"/>
    <g id="outline">
        <path d="M6.575,7.425c-0.959,0.959 -1.269,2.391 -0.793,3.661c0.667,1.778 1.581,4.217 1.997,5.324c0.147,0.392 0.251,0.799 0.31,1.214c0.107,0.749 0.294,2.059 0.471,3.298c0.286,1.998 1.212,3.85 2.639,5.277c0.067,0.067 0.135,0.135 0.204,0.204c1.75,1.75 4.123,2.733 6.597,2.733c2.474,0 4.847,-0.983 6.597,-2.733c0.599,-0.599 1.207,-1.207 1.806,-1.806c1.75,-1.75 2.733,-4.123 2.733,-6.597c0,-2.474 -0.983,-4.847 -2.733,-6.597c-0.069,-0.069 -0.137,-0.137 -0.204,-0.204c-1.427,-1.427 -3.279,-2.353 -5.277,-2.639c-1.239,-0.177 -2.549,-0.364 -3.298,-0.471c-0.415,-0.059 -0.822,-0.163 -1.214,-0.31c-1.107,-0.416 -3.546,-1.33 -5.324,-1.997c-1.27,-0.476 -2.702,-0.166 -3.661,0.793c-0.28,0.28 -0.57,0.57 -0.85,0.85Z" style="fill:none;stroke:#000;stroke-width:4px;"/>
        <path d="M9,7l-2,2l-5,-5l2,-2l5,5Z" style="stroke:#000;stroke-width:4px;"/>
    </g>
    <g id="emoji">
        <path d="M9,7l-2,2l-5,-5l2,-2l5,5Z" style="fill:#8b5e11;"/>
        <path d="M6.575,7.425c-0.959,0.959 -1.269,2.391 -0.793,3.661c0.667,1.778 1.581,4.217 1.997,5.324c0.147,0.392 0.251,0.799 0.31,1.214c0.107,0.749 0.294,2.059 0.471,3.298c0.286,1.998 1.212,3.85 2.639,5.277c0.067,0.067 0.135,0.135 0.204,0.204c1.75,1.75 4.123,2.733 6.597,2.733c2.474,0 4.847,-0.983 6.597,-2.733c0.599,-0.599 1.207,-1.207 1.806,-1.806c1.75,-1.75 2.733,-4.123 2.733,-6.597c0,-2.474 -0.983,-4.847 -2.733,-6.597c-0.069,-0.069 -0.137,-0.137 -0.204,-0.204c-1.427,-1.427 -3.279,-2.353 -5.277,-2.639c-1.239,-0.177 -2.549,-0.364 -3.298,-0.471c-0.415,-0.059 -0.822,-0.163 -1.214,-0.31c-1.107,-0.416 -3.546,-1.33 -5.324,-1.997c-1.27,-0.476 -2.702,-0.166 -3.661,0.793c-0.28,0.28 -0.57,0.57 -0.85,0.85Z" style="fill:#a8d752;"/>
        <path d="M12.133,8.004l0.098,0.009l0.097,0.014l0.097,0.019l0.095,0.023l0.094,0.028l0.093,0.032l0.091,0.037l0.089,0.041l0.087,0.046l2.614,1.457l0.097,0.053l0.089,0.047l0.09,0.045l0.091,0.044l0.092,0.042l0.092,0.04l0.093,0.039l0.094,0.037l0.094,0.036l0.094,0.034l0.096,0.032l0.095,0.03l0.096,0.029l0.097,0.028l0.097,0.025l0.098,0.024l0.097,0.022l0.099,0.021l0.098,0.018l0.099,0.017l0.1,0.016l0.099,0.013l0.1,0.012l0.1,0.011l0.1,0.008l0.101,0.007l0.1,0.005l0.101,0.003l0.101,0.002l0.101,-0.001l0.101,-0.002l0.113,-0.004l-0.004,0l0.093,-0.004l0.1,-0.003l0.101,-0.002l0.1,-0.001l0.1,0l0.1,0.001l0.1,0.002l0.1,0.003l0.1,0.004l0.1,0.005l0.099,0.006l0.1,0.007l0.099,0.008l0.099,0.009l0.099,0.01l0.099,0.011l0.099,0.012l0.099,0.013l0.098,0.014l0.098,0.015l0.098,0.016l0.098,0.016l0.098,0.018l0.098,0.019l0.097,0.02l0.097,0.021l0.097,0.021l0.096,0.023l0.097,0.024l0.096,0.024l0.096,0.026l0.095,0.026l0.096,0.028l0.095,0.028l0.095,0.03l0.094,0.03l0.094,0.031l0.094,0.033l0.093,0.033l0.094,0.034l0.093,0.035l0.092,0.036l0.092,0.037l0.092,0.038l0.092,0.039l0.091,0.039l0.091,0.041l0.09,0.042l0.09,0.042l0.09,0.044l0.089,0.044l0.089,0.045l0.088,0.046l0.088,0.047l0.088,0.048l0.087,0.049l0.086,0.05l0.087,0.051l0.086,0.051l0.085,0.053l0.085,0.053l0.084,0.055l0.084,0.055l0.079,0.053l0.548,0.373l0.08,0.058l0.077,0.061l0.074,0.064l0.07,0.069l0.068,0.071l0.063,0.075l0.06,0.078l0.056,0.081l0.051,0.083l0.048,0.086l0.043,0.088l0.04,0.09l0.034,0.092l0.03,0.094l0.025,0.094l0.021,0.096l0.016,0.097l0.011,0.098l0.007,0.098l0.001,0.098l-0.003,0.098l-0.008,0.098l-0.013,0.097l-0.017,0.097l-0.023,0.095l-0.027,0.095l-0.031,0.093l-0.036,0.091l-0.041,0.089l-0.045,0.088l-0.049,0.085l-0.053,0.082l-0.057,0.08l-0.061,0.077l-0.065,0.074l-0.068,0.07l-0.072,0.067l-0.075,0.064l-0.078,0.059l-0.081,0.056l-0.083,0.052l-0.086,0.048l-0.088,0.043l-0.09,0.039l-0.092,0.035l-0.093,0.03l-0.095,0.025l-0.096,0.021l-0.097,0.016l-0.097,0.011l-0.098,0.006l-0.099,0.002l-0.098,-0.003l-0.097,-0.008l-0.098,-0.013l-0.096,-0.018l-0.096,-0.022l-0.094,-0.027l-0.093,-0.032l-0.092,-0.036l-0.089,-0.04l-0.087,-0.045l-0.085,-0.049l-0.083,-0.054l-0.54,-0.367l-0.054,-0.036l-0.05,-0.033l-0.05,-0.033l-0.051,-0.032l-0.051,-0.031l-0.051,-0.031l-0.051,-0.03l-0.052,-0.03l-0.052,-0.029l-0.052,-0.029l-0.052,-0.028l-0.053,-0.027l-0.053,-0.027l-0.054,-0.027l-0.053,-0.025l-0.053,-0.026l-0.054,-0.025l-0.055,-0.024l-0.054,-0.023l-0.055,-0.024l-0.054,-0.022l-0.055,-0.022l-0.056,-0.022l-0.055,-0.021l-0.055,-0.02l-0.056,-0.02l-0.056,-0.019l-0.056,-0.019l-0.057,-0.018l-0.056,-0.017l-0.057,-0.017l-0.057,-0.017l-0.057,-0.015l-0.057,-0.016l-0.057,-0.014l-0.058,-0.014l-0.057,-0.014l-0.058,-0.013l-0.058,-0.012l-0.058,-0.012l-0.058,-0.011l-0.058,-0.011l-0.059,-0.01l-0.058,-0.01l-0.059,-0.008l-0.059,-0.009l-0.059,-0.007l-0.058,-0.008l-0.059,-0.006l-0.06,-0.006l-0.059,-0.005l-0.059,-0.005l-0.059,-0.004l-0.06,-0.004l-0.059,-0.003l-0.06,-0.002l-0.059,-0.002l-0.06,-0.001l-0.059,-0.001l-0.06,0l-0.06,0.001l-0.06,0.001l-0.06,0.002l-0.067,0.003l-0.004,0l-0.16,0.006l-0.17,0.003l-0.171,0.001l-0.171,-0.003l-0.17,-0.005l-0.17,-0.009l-0.169,-0.011l-0.169,-0.015l-0.169,-0.017l-0.169,-0.02l-0.168,-0.023l-0.168,-0.026l-0.167,-0.029l-0.166,-0.031l-0.166,-0.035l-0.165,-0.037l-0.165,-0.041l-0.164,-0.043l-0.163,-0.046l-0.162,-0.049l-0.162,-0.051l-0.16,-0.054l-0.16,-0.058l-0.159,-0.06l-0.158,-0.062l-0.157,-0.066l-0.156,-0.068l-0.155,-0.071l-0.153,-0.074l-0.153,-0.076l-0.151,-0.08l-0.142,-0.077l-2.63,-1.466l-0.084,-0.05l-0.082,-0.054l-0.08,-0.058l-0.076,-0.062l-0.073,-0.065l-0.07,-0.069l-0.066,-0.072l-0.063,-0.076l-0.059,-0.078l-0.055,-0.081l-0.051,-0.084l-0.047,-0.086l-0.043,-0.089l-0.038,-0.09l-0.034,-0.093l-0.029,-0.093l-0.024,-0.095l-0.02,-0.097l-0.015,-0.097l-0.011,-0.097l-0.005,-0.098l-0.001,-0.098l0.004,-0.098l0.009,-0.098l0.014,-0.097l0.019,-0.097l0.023,-0.095l0.028,-0.094l0.032,-0.093l0.037,-0.091l0.041,-0.089l0.046,-0.087l0.05,-0.084l0.054,-0.082l0.058,-0.08l0.062,-0.076l0.065,-0.073l0.069,-0.07l0.072,-0.066l0.076,-0.063l0.078,-0.059l0.081,-0.055l0.084,-0.051l0.086,-0.047l0.089,-0.043l0.09,-0.038l0.093,-0.034l0.093,-0.029l0.095,-0.024l0.096,-0.02l0.097,-0.015l0.098,-0.011l0.098,-0.005l0.098,-0.001l0.098,0.004Z" style="fill:#c3ea68;"/>
    </g>
</svg>
