<?xml version="1.0" encoding="UTF-8" standalone="no"?><!DOCTYPE svg PUBLIC "-//W3C//DTD SVG 1.1//EN" "http://www.w3.org/Graphics/SVG/1.1/DTD/svg11.dtd"><svg width="100%" height="100%" viewBox="0 0 32 32" version="1.1" xmlns="http://www.w3.org/2000/svg" xmlns:xlink="http://www.w3.org/1999/xlink" xml:space="preserve" xmlns:serif="http://www.serif.com/" style="fill-rule:evenodd;clip-rule:evenodd;stroke-linecap:round;stroke-linejoin:round;stroke-miterlimit:2;"><rect id="red_apple" x="0" y="0" width="32" height="32" style="fill:none;"/><clipPath id="_clip1"><rect x="0" y="0" width="32" height="32"/></clipPath><g clip-path="url(#_clip1)"><g id="outline"><path d="M15,5.5l0,-2c0,-0.133 0.053,-0.26 0.146,-0.354c0.094,-0.093 0.221,-0.146 0.354,-0.146c0.305,0 0.695,0 1,0c0.133,0 0.26,0.053 0.354,0.146c0.093,0.094 0.146,0.221 0.146,0.354l0,4.36c1.14,-0.279 2.588,-0.87 4,-0.86c1.351,0.01 2.767,0.032 4.548,0.841c1.384,0.628 3.36,2.811 3.624,6.544c0.161,2.274 -0.221,4.81 -2.704,9.726c-2.517,4.982 -4.542,5.904 -6.468,5.889c-1.639,-0.013 -4,-1 -4,-1c0,0 -2.361,0.987 -4,1c-1.926,0.015 -3.951,-0.907 -6.468,-5.889c-2.483,-4.916 -2.865,-7.452 -2.704,-9.726c0.264,-3.733 2.24,-5.916 3.624,-6.544c0.31,-0.141 0.609,-0.258 0.898,-0.355l-4.35,-2.486c0,0 0.447,-0.268 1.073,-0.644c2.446,-1.467 5.472,-1.584 8.023,-0.308l2.904,1.452Zm0,2.36l0,-1.36l-1.733,0.866c0.621,0.172 1.209,0.366 1.733,0.494Z" style="fill:none;stroke:#000;stroke-width:4px;"/></g><g id="emoji"><path d="M17,3.5c0,-0.133 -0.053,-0.26 -0.146,-0.354c-0.094,-0.093 -0.221,-0.146 -0.354,-0.146c-0.305,0 -0.695,0 -1,0c-0.133,0 -0.26,0.053 -0.354,0.146c-0.093,0.094 -0.146,0.221 -0.146,0.354c0,1.751 0,7.5 0,7.5l2,0c0,0 0,-5.749 0,-7.5Z" style="fill:#675230;"/><path d="M16,6c0,0 -1.936,-0.968 -3.904,-1.952c-2.551,-1.276 -5.577,-1.159 -8.023,0.308c-0.626,0.376 -1.073,0.644 -1.073,0.644c0,0 2.483,1.419 4.491,2.566c1.567,0.896 3.479,0.949 5.094,0.142c1.625,-0.813 3.415,-1.708 3.415,-1.708Z" style="fill:#219555;"/><path d="M16.03,8c1.2,0.011 3.116,-1.013 4.97,-1c1.351,0.01 2.767,0.032 4.548,0.841c1.384,0.628 3.36,2.811 3.624,6.544c0.161,2.274 -0.221,4.81 -2.704,9.726c-2.517,4.982 -4.542,5.904 -6.468,5.889c-1.639,-0.013 -4,-1 -4,-1c0,0 -2.361,0.987 -4,1c-1.926,0.015 -3.951,-0.907 -6.468,-5.889c-2.483,-4.916 -2.865,-7.452 -2.704,-9.726c0.264,-3.733 2.24,-5.916 3.624,-6.544c1.781,-0.809 3.197,-0.831 4.548,-0.841c1.854,-0.013 3.77,1.011 4.97,1l0.013,0l0.017,0l0.017,0l0.013,0Z" style="fill:#d72d35;"/><path d="M8.616,8.504l0.077,0.008l0.076,0.012l0.076,0.016l0.074,0.02l0.074,0.023l0.072,0.028l0.071,0.03l0.069,0.035l0.067,0.038l0.065,0.041l0.063,0.045l0.061,0.048l0.058,0.051l0.055,0.054l0.053,0.057l0.049,0.059l0.047,0.062l0.043,0.064l0.039,0.066l0.037,0.068l0.032,0.07l0.03,0.072l0.025,0.073l0.022,0.074l0.017,0.075l0.014,0.076l0.01,0.077l0.006,0.077l0.002,0.077l0,0.74l-0.684,0.524l-0.081,0.066l-0.08,0.067l-0.078,0.068l-0.077,0.07l-0.074,0.071l-0.073,0.072l-0.071,0.074l-0.07,0.075l-0.067,0.076l-0.066,0.077l-0.064,0.079l-0.063,0.08l-0.06,0.08l-0.059,0.082l-0.056,0.083l-0.055,0.085l-0.054,0.085l-0.051,0.086l-0.05,0.087l-0.047,0.088l-0.046,0.089l-0.044,0.089l-0.042,0.091l-0.04,0.091l-0.039,0.092l-0.036,0.093l-0.034,0.094l-0.033,0.094l-0.03,0.095l-0.029,0.095l-0.027,0.096l-0.025,0.097l-0.022,0.097l-0.021,0.097l-0.019,0.098l-0.017,0.098l-0.014,0.099l-0.013,0.099l-0.011,0.099l-0.009,0.099l-0.006,0.1l-0.005,0.1l-0.003,0.1l0,0.1l0.001,0.1l0.004,0.1l0.006,0.101l0.008,0.1l0.009,0.1l0.012,0.101l0.015,0.1l0.016,0.1l0.018,0.1l0.021,0.1l0.023,0.099l0.024,0.099l0.028,0.1l0.029,0.098l0.031,0.099l0.034,0.098l0.036,0.098l0.038,0.098l0.043,0.104l1.028,2.397l0.028,0.072l0.025,0.073l0.021,0.074l0.017,0.076l0.014,0.076l0.009,0.076l0.006,0.077l0.001,0.078l-0.003,0.077l-0.006,0.077l-0.011,0.076l-0.014,0.076l-0.018,0.075l-0.022,0.074l-0.026,0.073l-0.03,0.071l-0.033,0.07l-0.037,0.068l-0.04,0.066l-0.044,0.064l-0.046,0.061l-0.05,0.059l-0.053,0.057l-0.056,0.053l-0.058,0.051l-0.061,0.047l-0.064,0.044l-0.065,0.041l-0.067,0.038l-0.07,0.034l-0.071,0.03l-0.072,0.027l-0.074,0.023l-0.075,0.019l-0.076,0.016l-0.076,0.011l-0.077,0.007l-0.077,0.004l-0.077,-0.001l-0.077,-0.004l-0.077,-0.009l-0.076,-0.012l-0.076,-0.017l-0.074,-0.02l-0.074,-0.024l-0.072,-0.028l-0.071,-0.031l-0.068,-0.035l-0.067,-0.039l-0.065,-0.041l-0.063,-0.046l-0.06,-0.048l-0.058,-0.051l-0.055,-0.055l-0.052,-0.057l-0.049,-0.059l-0.046,-0.063l-0.042,-0.064l-0.04,-0.066l-0.035,-0.069l-0.033,-0.07l-1.033,-2.412l-0.062,-0.149l-0.062,-0.157l-0.058,-0.158l-0.054,-0.158l-0.051,-0.16l-0.047,-0.159l-0.044,-0.161l-0.04,-0.161l-0.037,-0.161l-0.033,-0.162l-0.03,-0.162l-0.027,-0.162l-0.022,-0.162l-0.02,-0.162l-0.016,-0.163l-0.013,-0.163l-0.009,-0.162l-0.006,-0.162l-0.002,-0.163l0.001,-0.162l0.004,-0.162l0.007,-0.161l0.011,-0.161l0.014,-0.161l0.018,-0.16l0.02,-0.16l0.024,-0.159l0.027,-0.159l0.031,-0.158l0.033,-0.157l0.037,-0.157l0.04,-0.156l0.043,-0.155l0.046,-0.154l0.05,-0.153l0.052,-0.152l0.056,-0.151l0.059,-0.15l0.061,-0.149l0.065,-0.147l0.068,-0.147l0.071,-0.145l0.074,-0.143l0.078,-0.143l0.08,-0.14l0.083,-0.14l0.086,-0.138l0.089,-0.136l0.092,-0.134l0.095,-0.133l0.098,-0.131l0.101,-0.13l0.104,-0.127l0.106,-0.125l0.11,-0.124l0.112,-0.121l0.115,-0.119l0.118,-0.118l0.121,-0.115l0.124,-0.112l0.126,-0.111l0.129,-0.108l0.132,-0.105l0.121,-0.093l0,0l0.013,-0.01l0.063,-0.045l0.065,-0.041l0.067,-0.038l0.069,-0.035l0.071,-0.03l0.072,-0.028l0.074,-0.023l0.074,-0.02l0.076,-0.016l0.076,-0.012l0.077,-0.008l0.077,-0.004l0.078,0l0.077,0.004Z" style="fill:#fd626a;"/></g></g></svg>