<?xml version="1.0" encoding="UTF-8" standalone="no"?>
<!DOCTYPE svg PUBLIC "-//W3C//DTD SVG 1.1//EN" "http://www.w3.org/Graphics/SVG/1.1/DTD/svg11.dtd">
<svg width="100%" height="100%" viewBox="0 0 32 32" version="1.1" xmlns="http://www.w3.org/2000/svg" xmlns:xlink="http://www.w3.org/1999/xlink" xml:space="preserve" xmlns:serif="http://www.serif.com/" style="fill-rule:evenodd;clip-rule:evenodd;stroke-linecap:round;stroke-miterlimit:2;">
    <rect id="red_apple" x="0" y="0" width="32" height="32" style="fill:none;"/>
    <clipPath id="_clip1">
        <rect x="0" y="0" width="32" height="32"/>
    </clipPath>
    <g clip-path="url(#_clip1)">
        <g id="outline">
            <path d="M11.013,3l5.987,0l0,5.333l0.742,-0.495c0.82,-0.546 1.784,-0.838 2.769,-0.838c0.001,0 0.001,0 0.002,0c2.617,0 5.068,1.28 6.564,3.428c1.495,2.148 1.845,4.891 0.937,7.345c-0.983,2.657 -2.005,5.42 -2.885,7.797c-0.616,1.666 -1.895,3.004 -3.533,3.694c-1.637,0.691 -3.487,0.673 -5.111,-0.049c-0.001,0 -0.001,0 -0.001,0c-0.308,-0.137 -0.66,-0.137 -0.968,0c0,0 0,0 -0.001,0c-1.624,0.722 -3.474,0.74 -5.111,0.049c-1.638,-0.69 -2.917,-2.028 -3.533,-3.694c-0.88,-2.377 -1.902,-5.14 -2.885,-7.797c-0.908,-2.454 -0.558,-5.197 0.937,-7.345c0.37,-0.531 0.798,-1.009 1.273,-1.428l-3.196,0c0,0 0.036,-0.108 0.099,-0.296c1.135,-3.406 4.323,-5.704 7.914,-5.704Zm0.963,4.024c0.813,0.08 1.597,0.358 2.282,0.814l0.742,0.495l0,-4.333l-3.024,3.024Z" style="fill:none;stroke:#000;stroke-width:4px;"/>
        </g>
        <g id="emoji">
            <rect x="15" y="3" width="2" height="8" style="fill:#8b5e11;"/>
            <path d="M16,3c0,0 -2.418,0 -4.987,0c-3.591,0 -6.779,2.298 -7.914,5.704c-0.063,0.188 -0.099,0.296 -0.099,0.296c0,0 2.715,0 4.763,0c1.432,0 2.806,-0.569 3.819,-1.582c1.465,-1.465 3.418,-3.418 3.418,-3.418l1,-1Z" style="fill:#219555;"/>
            <path d="M3.986,17.773c-0.908,-2.454 -0.558,-5.197 0.937,-7.345c1.496,-2.148 3.947,-3.428 6.564,-3.428c0.001,0 0.001,0 0.002,0c0.985,0 1.949,0.292 2.769,0.838c0.821,0.548 1.742,1.162 1.742,1.162c0,0 0.921,-0.614 1.742,-1.162c0.82,-0.546 1.784,-0.838 2.769,-0.838c0.001,0 0.001,0 0.002,0c2.617,0 5.068,1.28 6.564,3.428c1.495,2.148 1.845,4.891 0.937,7.345c-0.983,2.657 -2.005,5.42 -2.885,7.797c-0.616,1.666 -1.895,3.004 -3.533,3.694c-1.637,0.691 -3.487,0.673 -5.111,-0.049c-0.001,0 -0.001,0 -0.001,0c-0.308,-0.137 -0.66,-0.137 -0.968,0c0,0 0,0 -0.001,0c-1.624,0.722 -3.474,0.74 -5.111,0.049c-1.638,-0.69 -2.917,-2.028 -3.533,-3.694c-0.88,-2.377 -1.902,-5.14 -2.885,-7.797Z" style="fill:#d72d35;"/>
            <path d="M10.073,9.502l0.08,0.006l0.079,0.01l0.078,0.014l0.078,0.019l0.077,0.023l0.075,0.027l0.074,0.03l0.072,0.035l0.07,0.038l0.068,0.042l0.065,0.046l0.063,0.049l0.06,0.052l0.058,0.056l0.054,0.058l0.052,0.061l0.048,0.064l0.044,0.067l0.041,0.068l0.037,0.071l0.033,0.073l0.03,0.074l0.025,0.075l0.022,0.077l0.017,0.078l0.013,0.079l0.009,0.08l0.004,0.079l0.001,0.08l-0.004,0.08l-0.008,0.079l-0.013,0.079l-0.016,0.078l-0.021,0.078l-0.025,0.075l-0.028,0.075l-0.033,0.073l-0.037,0.071l-0.04,0.069l-0.044,0.067l-0.047,0.064l-0.051,0.062l-0.054,0.059l-0.057,0.056l-0.059,0.052l-0.063,0.05l0.005,-0.004l-0.091,0.07l-0.084,0.067l-0.082,0.069l-0.08,0.069l-0.079,0.072l-0.077,0.072l-0.075,0.074l-0.074,0.075l-0.071,0.077l-0.07,0.077l-0.068,0.079l-0.067,0.081l-0.065,0.081l-0.062,0.082l-0.062,0.084l-0.059,0.085l-0.058,0.085l-0.055,0.087l-0.054,0.088l-0.053,0.088l-0.05,0.09l-0.048,0.091l-0.047,0.091l-0.045,0.092l-0.043,0.094l-0.041,0.093l-0.039,0.095l-0.038,0.095l-0.035,0.097l-0.034,0.096l-0.031,0.098l-0.03,0.098l-0.028,0.098l-0.025,0.099l-0.024,0.1l-0.022,0.1l-0.02,0.1l-0.018,0.101l-0.016,0.101l-0.014,0.102l-0.012,0.102l-0.01,0.102l-0.007,0.103l-0.006,0.102l-0.004,0.103l-0.002,0.103l0.001,0.103l0.002,0.104l0.004,0.103l0.007,0.103l0.009,0.104l0.01,0.103l0.013,0.103l0.015,0.104l0.017,0.103l0.019,0.103l0.022,0.103l0.023,0.102l0.026,0.103l0.028,0.102l0.03,0.102l0.033,0.102l0.034,0.102l0.04,0.108l1.241,3.312l0.027,0.076l0.022,0.077l0.017,0.077l0.014,0.079l0.01,0.079l0.005,0.08l0.001,0.08l-0.003,0.08l-0.008,0.079l-0.012,0.079l-0.015,0.079l-0.021,0.077l-0.024,0.076l-0.028,0.075l-0.032,0.073l-0.036,0.071l-0.039,0.069l-0.044,0.068l-0.047,0.064l-0.05,0.062l-0.053,0.06l-0.057,0.056l-0.059,0.054l-0.062,0.05l-0.065,0.046l-0.067,0.044l-0.07,0.039l-0.071,0.036l-0.073,0.032l-0.075,0.028l-0.076,0.024l-0.077,0.02l-0.079,0.016l-0.079,0.011l-0.079,0.008l-0.08,0.003l-0.08,-0.001l-0.08,-0.006l-0.079,-0.009l-0.078,-0.014l-0.078,-0.018l-0.077,-0.022l-0.076,-0.026l-0.073,-0.03l-0.073,-0.034l-0.07,-0.038l-0.068,-0.042l-0.066,-0.045l-0.064,-0.048l-0.06,-0.052l-0.058,-0.055l-0.055,-0.058l-0.052,-0.061l-0.048,-0.063l-0.045,-0.066l-0.042,-0.069l-0.038,-0.07l-0.033,-0.072l-0.03,-0.074l-1.248,-3.327l-0.055,-0.152l-0.055,-0.16l-0.051,-0.16l-0.047,-0.162l-0.044,-0.161l-0.041,-0.162l-0.037,-0.163l-0.034,-0.162l-0.03,-0.163l-0.027,-0.164l-0.024,-0.163l-0.02,-0.164l-0.017,-0.163l-0.014,-0.164l-0.011,-0.163l-0.007,-0.164l-0.003,-0.163l-0.001,-0.163l0.003,-0.163l0.006,-0.163l0.009,-0.162l0.013,-0.162l0.015,-0.162l0.019,-0.161l0.022,-0.16l0.025,-0.16l0.028,-0.159l0.032,-0.159l0.034,-0.158l0.038,-0.157l0.041,-0.156l0.043,-0.156l0.047,-0.154l0.05,-0.154l0.053,-0.153l0.056,-0.151l0.059,-0.151l0.062,-0.149l0.065,-0.149l0.068,-0.147l0.07,-0.146l0.074,-0.144l0.077,-0.143l0.079,-0.142l0.083,-0.14l0.085,-0.139l0.089,-0.137l0.091,-0.136l0.094,-0.134l0.096,-0.132l0.1,-0.13l0.102,-0.129l0.106,-0.127l0.108,-0.125l0.11,-0.123l0.114,-0.121l0.116,-0.119l0.119,-0.117l0.121,-0.114l0.124,-0.113l0.127,-0.11l0.13,-0.108l0.132,-0.105l0.128,-0.099l0.007,-0.005l0.065,-0.046l0.068,-0.043l0.069,-0.039l0.072,-0.035l0.073,-0.032l0.075,-0.027l0.077,-0.023l0.077,-0.02l0.079,-0.015l0.079,-0.011l0.079,-0.006l0.08,-0.003l0.08,0.002Z" style="fill:#fd626a;"/>
        </g>
    </g>
</svg>
