<?xml version="1.0" encoding="UTF-8" standalone="no"?>
<!DOCTYPE svg PUBLIC "-//W3C//DTD SVG 1.1//EN" "http://www.w3.org/Graphics/SVG/1.1/DTD/svg11.dtd">
<svg width="100%" height="100%" viewBox="0 0 32 32" version="1.1" xmlns="http://www.w3.org/2000/svg" xmlns:xlink="http://www.w3.org/1999/xlink" xml:space="preserve" xmlns:serif="http://www.serif.com/" style="fill-rule:evenodd;clip-rule:evenodd;stroke-linecap:round;stroke-miterlimit:3;">
    <rect id="watermelon" x="0" y="0" width="32" height="32" style="fill:none;"/>
    <clipPath id="_clip1">
        <rect x="0" y="0" width="32" height="32"/>
    </clipPath>
    <g clip-path="url(#_clip1)">
        <g id="outline">
            <path d="M23.899,4.101c2.626,2.625 4.101,6.186 4.101,9.899c0,7.727 -6.273,14 -14,14c-3.713,0 -7.274,-1.475 -9.899,-4.101l9.899,-9.899l9.899,-9.899Z" style="fill:none;stroke:#000;stroke-width:4px;"/>
        </g>
        <g id="emoji">
            <path d="M22.484,5.516l1.415,-1.415c2.626,2.625 4.101,6.186 4.101,9.899c0,7.727 -6.273,14 -14,14c-3.713,0 -7.274,-1.475 -9.899,-4.101l1.415,-1.415c2.173,2.172 19.14,-14.795 16.968,-16.968Z" style="fill:#219555;"/>
            <path d="M21.777,6.223l0.708,-0.708c2.251,2.25 3.515,5.302 3.515,8.485c0,6.623 -5.377,12 -12,12c-3.183,0 -6.235,-1.264 -8.485,-3.515l0.708,-0.708c1.991,1.991 17.545,-13.563 15.554,-15.554Z" style="fill:#c6d032;"/>
            <path d="M21.778,6.222c2.063,2.063 3.222,4.861 3.222,7.778c0,6.071 -4.929,11 -11,11c-2.917,0 -5.715,-1.159 -7.778,-3.222l7.778,-7.778l7.778,-7.778Z" style="fill:#d72d35;"/>
            <g>
                <path d="M19,15.804c0,-0.744 -0.295,-1.457 -0.821,-1.983c-0.526,-0.526 -1.239,-0.821 -1.983,-0.821c-0.123,0 -0.196,0 -0.196,0c0,0 0,0.073 0,0.196c0,0.744 0.295,1.457 0.821,1.983c0.526,0.526 1.239,0.821 1.983,0.821c0.123,0 0.196,0 0.196,0c0,0 0,-0.073 0,-0.196Z" style="fill:#510f13;"/>
                <path d="M20,19.804c0,-0.744 -0.295,-1.457 -0.821,-1.983c-0.526,-0.526 -1.239,-0.821 -1.983,-0.821c-0.123,0 -0.196,0 -0.196,0c0,0 0,0.073 0,0.196c0,0.744 0.295,1.457 0.821,1.983c0.526,0.526 1.239,0.821 1.983,0.821c0.123,0 0.196,0 0.196,0c0,0 0,-0.073 0,-0.196Z" style="fill:#510f13;"/>
                <path d="M23,16.804c0,-0.744 -0.295,-1.457 -0.821,-1.983c-0.526,-0.526 -1.239,-0.821 -1.983,-0.821c-0.123,0 -0.196,0 -0.196,0c0,0 0,0.073 0,0.196c0,0.744 0.295,1.457 0.821,1.983c0.526,0.526 1.239,0.821 1.983,0.821c0.123,0 0.196,0 0.196,0c0,0 0,-0.073 0,-0.196Z" style="fill:#510f13;"/>
                <path d="M22,12.804c0,-0.744 -0.295,-1.457 -0.821,-1.983c-0.526,-0.526 -1.239,-0.821 -1.983,-0.821c-0.123,0 -0.196,0 -0.196,0c0,0 0,0.073 0,0.196c0,0.744 0.295,1.457 0.821,1.983c0.526,0.526 1.239,0.821 1.983,0.821c0.123,0 0.196,0 0.196,0c0,0 0,-0.073 0,-0.196Z" style="fill:#510f13;"/>
                <path d="M16,18.804c0,-0.744 -0.295,-1.457 -0.821,-1.983c-0.526,-0.526 -1.239,-0.821 -1.983,-0.821c-0.123,0 -0.196,0 -0.196,0c0,0 0,0.073 0,0.196c0,0.744 0.295,1.457 0.821,1.983c0.526,0.526 1.239,0.821 1.983,0.821c0.123,0 0.196,0 0.196,0c0,0 0,-0.073 0,-0.196Z" style="fill:#510f13;"/>
                <path d="M17,22.804c0,-0.744 -0.295,-1.457 -0.821,-1.983c-0.526,-0.526 -1.239,-0.821 -1.983,-0.821c-0.123,0 -0.196,0 -0.196,0c0,0 0,0.073 0,0.196c0,0.744 0.295,1.457 0.821,1.983c0.526,0.526 1.239,0.821 1.983,0.821c0.123,0 0.196,0 0.196,0c0,0 0,-0.073 0,-0.196Z" style="fill:#510f13;"/>
                <path d="M13,21.804c0,-0.744 -0.295,-1.457 -0.821,-1.983c-0.526,-0.526 -1.239,-0.821 -1.983,-0.821c-0.123,0 -0.196,0 -0.196,0c0,0 0,0.073 0,0.196c0,0.744 0.295,1.457 0.821,1.983c0.526,0.526 1.239,0.821 1.983,0.821c0.123,0 0.196,0 0.196,0c0,0 0,-0.073 0,-0.196Z" style="fill:#510f13;"/>
            </g>
        </g>
    </g>
</svg>
