<?xml version="1.0" encoding="UTF-8" standalone="no"?><!DOCTYPE svg PUBLIC "-//W3C//DTD SVG 1.1//EN" "http://www.w3.org/Graphics/SVG/1.1/DTD/svg11.dtd"><svg width="100%" height="100%" viewBox="0 0 32 32" version="1.1" xmlns="http://www.w3.org/2000/svg" xmlns:xlink="http://www.w3.org/1999/xlink" xml:space="preserve" xmlns:serif="http://www.serif.com/" style="fill-rule:evenodd;clip-rule:evenodd;stroke-linejoin:round;stroke-miterlimit:2;"><rect id="enbian_flag" x="0" y="0" width="32" height="32" style="fill:none;"/><clipPath id="_clip1"><rect x="0" y="0" width="32" height="32"/></clipPath><g clip-path="url(#_clip1)"><g id="outline"><path d="M32,7c-0,-0.796 -0.316,-1.559 -0.879,-2.121c-0.562,-0.563 -1.325,-0.879 -2.121,-0.879c-6.102,-0 -19.898,-0 -26,-0c-0.796,-0 -1.559,0.316 -2.121,0.879c-0.563,0.562 -0.879,1.325 -0.879,2.121l0,18c0,0.796 0.316,1.559 0.879,2.121c0.562,0.563 1.325,0.879 2.121,0.879l26,-0c0.796,0 1.559,-0.316 2.121,-0.879c0.563,-0.562 0.879,-1.325 0.879,-2.121c0,-4.611 0,-13.389 0,-18Z"/></g><g id="emoji"><path d="M30,7c0,-0.552 -0.448,-1 -1,-1c-4.355,0 -21.645,0 -26,0c-0.552,0 -1,0.448 -1,1c0,3.414 0,14.586 0,18c-0,0.552 0.448,1 1,1c4.355,0 21.645,0 26,0c0.552,-0 1,-0.448 1,-1c0,-3.414 0,-14.586 0,-18Z" style="fill:none;"/><clipPath id="_clip2"><path d="M30,7c0,-0.552 -0.448,-1 -1,-1c-4.355,0 -21.645,0 -26,0c-0.552,0 -1,0.448 -1,1c0,3.414 0,14.586 0,18c-0,0.552 0.448,1 1,1c4.355,0 21.645,0 26,0c0.552,-0 1,-0.448 1,-1c0,-3.414 0,-14.586 0,-18Z"/></clipPath><g clip-path="url(#_clip2)"><rect x="1" y="5" width="30" height="6" style="fill:#420e47;"/><rect x="1" y="10" width="30" height="5" style="fill:#630f6d;"/><rect x="1" y="14" width="30" height="5" style="fill:#970c9c;"/><rect x="1" y="18" width="30" height="5" style="fill:#b049b0;"/><rect x="1" y="22" width="30" height="5" style="fill:#ca72ca;"/></g><g><path d="M22.952,15.191c0.032,0.264 0.048,0.535 0.048,0.809c-0,3.863 -3.137,7 -7,7c-3.863,0 -7,-3.137 -7,-7c-0,-3.863 3.137,-7 7,-7c0.274,0 0.545,0.016 0.809,0.048c-2.709,0.334 -4.809,2.65 -4.809,5.452c0,3.036 2.464,5.5 5.5,5.5c2.802,-0 5.118,-2.1 5.452,-4.809Z" style="fill:#f4ec50;"/><circle cx="17.5" cy="14.5" r="3.5" style="fill:#fff;"/></g></g></g></svg>