<?xml version="1.0" encoding="UTF-8" standalone="no"?><!DOCTYPE svg PUBLIC "-//W3C//DTD SVG 1.1//EN" "http://www.w3.org/Graphics/SVG/1.1/DTD/svg11.dtd"><svg width="100%" height="100%" viewBox="0 0 32 32" version="1.1" xmlns="http://www.w3.org/2000/svg" xmlns:xlink="http://www.w3.org/1999/xlink" xml:space="preserve" xmlns:serif="http://www.serif.com/" style="fill-rule:evenodd;clip-rule:evenodd;stroke-linejoin:round;stroke-miterlimit:2;"><rect id="solaric_flag" x="0" y="0" width="32" height="32" style="fill:none;"/><clipPath id="_clip1"><rect x="0" y="0" width="32" height="32"/></clipPath><g clip-path="url(#_clip1)"><g id="outline"><path d="M32,7c-0,-0.796 -0.316,-1.559 -0.879,-2.121c-0.562,-0.563 -1.325,-0.879 -2.121,-0.879l-26,-0c-0.796,-0 -1.559,0.316 -2.121,0.879c-0.563,0.562 -0.879,1.325 -0.879,2.121l0,18c0,0.796 0.316,1.559 0.879,2.121c0.562,0.563 1.325,0.879 2.121,0.879c6.102,0 19.898,0 26,0c0.796,0 1.559,-0.316 2.121,-0.879c0.563,-0.562 0.879,-1.325 0.879,-2.121l-0,-18Z"/></g><g id="emoji"><path d="M30,7c0,-0.552 -0.448,-1 -1,-1c-4.355,-0 -21.645,-0 -26,-0c-0.552,0 -1,0.448 -1,1c0,3.414 0,14.586 0,18c-0,0.552 0.448,1 1,1c4.355,0 21.645,0 26,0c0.552,-0 1,-0.448 1,-1c0,-3.414 0,-14.586 0,-18Z" style="fill:none;"/><clipPath id="_clip2"><path d="M30,7c0,-0.552 -0.448,-1 -1,-1c-4.355,-0 -21.645,-0 -26,-0c-0.552,0 -1,0.448 -1,1c0,3.414 0,14.586 0,18c-0,0.552 0.448,1 1,1c4.355,0 21.645,0 26,0c0.552,-0 1,-0.448 1,-1c0,-3.414 0,-14.586 0,-18Z"/></clipPath><g clip-path="url(#_clip2)"><rect x="1" y="5" width="30" height="5.333" style="fill:#df6311;"/><rect x="1" y="9.333" width="30" height="4.667" style="fill:#ed8c2b;"/><rect x="1" y="12.667" width="30" height="4.833" style="fill:#f3b344;"/><rect x="1" y="16" width="30" height="5" style="fill:#ecca73;"/><rect x="1" y="19.333" width="30" height="4.667" style="fill:#f2f3bc;"/><rect x="1" y="22.667" width="30" height="4.833" style="fill:#fbf37a;"/></g></g></g></svg>