<?xml version="1.0" encoding="UTF-8" standalone="no"?><!DOCTYPE svg PUBLIC "-//W3C//DTD SVG 1.1//EN" "http://www.w3.org/Graphics/SVG/1.1/DTD/svg11.dtd"><svg width="100%" height="100%" viewBox="0 0 32 32" version="1.1" xmlns="http://www.w3.org/2000/svg" xmlns:xlink="http://www.w3.org/1999/xlink" xml:space="preserve" xmlns:serif="http://www.serif.com/" style="fill-rule:evenodd;clip-rule:evenodd;stroke-linejoin:round;stroke-miterlimit:1.41421;"><rect id="cool" x="0" y="0" width="32" height="32" style="fill:none;"/><clipPath id="_clip1"><rect x="0" y="0" width="32" height="32"/></clipPath><g clip-path="url(#_clip1)"><g id="outline"><path d="M32,8c0,-4.418 -3.582,-8 -8,-8c-4.887,0 -11.113,0 -16,0c-4.418,0 -8,3.582 -8,8c0,4.887 0,11.113 0,16c0,4.418 3.582,8 8,8c4.887,0 11.113,0 16,0c4.418,0 8,-3.582 8,-8c0,-4.887 0,-11.113 0,-16Z"/></g><g id="emoji"><path d="M30,8c0,-1.591 -0.632,-3.117 -1.757,-4.243c-1.126,-1.125 -2.652,-1.757 -4.243,-1.757c-4.724,0 -11.276,0 -16,0c-1.591,0 -3.117,0.632 -4.243,1.757c-1.125,1.126 -1.757,2.652 -1.757,4.243c0,4.724 0,11.276 0,16c0,1.591 0.632,3.117 1.757,4.243c1.126,1.125 2.652,1.757 4.243,1.757c4.724,0 11.276,0 16,0c1.591,0 3.117,-0.632 4.243,-1.757c1.125,-1.126 1.757,-2.652 1.757,-4.243c0,-4.724 0,-11.276 0,-16Z" style="fill:#666;"/><path d="M6.699,20.951c-0.83,0 -1.487,-0.235 -1.972,-0.706c-0.485,-0.471 -0.727,-1.159 -0.727,-2.063l0,-4.35c0,-0.914 0.256,-1.606 0.769,-2.077c0.513,-0.471 1.189,-0.706 2.028,-0.706c0.802,0 1.45,0.233 1.944,0.699c0.494,0.466 0.742,1.175 0.742,2.126l0,0.294l-1.721,0l0,-0.28c0,-0.438 -0.091,-0.762 -0.272,-0.972c-0.182,-0.21 -0.427,-0.315 -0.735,-0.315c-0.363,0 -0.627,0.126 -0.79,0.378c-0.163,0.252 -0.245,0.629 -0.245,1.133l0,3.874c0,0.942 0.345,1.413 1.035,1.413c0.308,0 0.553,-0.108 0.735,-0.322c0.181,-0.215 0.272,-0.532 0.272,-0.951l0,-0.252l1.707,0l0,0.266c0,0.932 -0.259,1.634 -0.777,2.105c-0.517,0.471 -1.182,0.706 -1.993,0.706Z" style="fill:#fff;fill-rule:nonzero;"/><path d="M13.245,20.951c-0.83,0 -1.487,-0.235 -1.972,-0.706c-0.485,-0.471 -0.728,-1.159 -0.728,-2.063l0,-4.35c0,-0.914 0.257,-1.606 0.77,-2.077c0.513,-0.471 1.188,-0.706 2.028,-0.706c0.811,0 1.461,0.235 1.951,0.706c0.489,0.471 0.734,1.163 0.734,2.077l0,4.35c0,0.895 -0.259,1.58 -0.776,2.056c-0.518,0.475 -1.187,0.713 -2.007,0.713Zm0.056,-1.552c0.326,0 0.575,-0.124 0.748,-0.371c0.172,-0.247 0.259,-0.594 0.259,-1.042l0,-3.874c0,-0.494 -0.084,-0.87 -0.252,-1.126c-0.168,-0.256 -0.42,-0.385 -0.755,-0.385c-0.364,0 -0.627,0.126 -0.791,0.378c-0.163,0.252 -0.244,0.629 -0.244,1.133l0,3.874c0,0.942 0.345,1.413 1.035,1.413Z" style="fill:#fff;fill-rule:nonzero;"/><path d="M19.79,20.951c-0.83,0 -1.487,-0.235 -1.972,-0.706c-0.485,-0.471 -0.727,-1.159 -0.727,-2.063l0,-4.35c0,-0.914 0.256,-1.606 0.769,-2.077c0.513,-0.471 1.189,-0.706 2.028,-0.706c0.811,0 1.462,0.235 1.951,0.706c0.49,0.471 0.734,1.163 0.734,2.077l0,4.35c0,0.895 -0.258,1.58 -0.776,2.056c-0.517,0.475 -1.186,0.713 -2.007,0.713Zm0.056,-1.552c0.326,0 0.576,-0.124 0.748,-0.371c0.173,-0.247 0.259,-0.594 0.259,-1.042l0,-3.874c0,-0.494 -0.084,-0.87 -0.252,-1.126c-0.167,-0.256 -0.419,-0.385 -0.755,-0.385c-0.363,0 -0.627,0.126 -0.79,0.378c-0.163,0.252 -0.245,0.629 -0.245,1.133l0,3.874c0,0.942 0.345,1.413 1.035,1.413Z" style="fill:#fff;fill-rule:nonzero;"/><path d="M23.692,11.189l1.721,0l0,8.112l2.587,0l0,1.538l-4.308,0l0,-9.65Z" style="fill:#fff;fill-rule:nonzero;"/></g></g></svg>