<?xml version="1.0" encoding="UTF-8" standalone="no"?><!DOCTYPE svg PUBLIC "-//W3C//DTD SVG 1.1//EN" "http://www.w3.org/Graphics/SVG/1.1/DTD/svg11.dtd"><svg width="100%" height="100%" viewBox="0 0 32 32" version="1.1" xmlns="http://www.w3.org/2000/svg" xmlns:xlink="http://www.w3.org/1999/xlink" xml:space="preserve" xmlns:serif="http://www.serif.com/" style="fill-rule:evenodd;clip-rule:evenodd;stroke-linejoin:round;stroke-miterlimit:1.41421;"><rect id="cool" x="0" y="0" width="32" height="32" style="fill:none;"/><clipPath id="_clip1"><rect x="0" y="0" width="32" height="32"/></clipPath><g clip-path="url(#_clip1)"><g id="outline"><path d="M32,8c0,-4.418 -3.582,-8 -8,-8c-4.887,0 -11.113,0 -16,0c-4.418,0 -8,3.582 -8,8c0,4.887 0,11.113 0,16c0,4.418 3.582,8 8,8c4.887,0 11.113,0 16,0c4.418,0 8,-3.582 8,-8c0,-4.887 0,-11.113 0,-16Z"/></g><g id="emoji"><path d="M30,8c0,-1.591 -0.632,-3.117 -1.757,-4.243c-1.126,-1.125 -2.652,-1.757 -4.243,-1.757c-4.724,0 -11.276,0 -16,0c-1.591,0 -3.117,0.632 -4.243,1.757c-1.125,1.126 -1.757,2.652 -1.757,4.243c0,4.724 0,11.276 0,16c0,1.591 0.632,3.117 1.757,4.243c1.126,1.125 2.652,1.757 4.243,1.757c4.724,0 11.276,0 16,0c1.591,0 3.117,-0.632 4.243,-1.757c1.125,-1.126 1.757,-2.652 1.757,-4.243c0,-4.724 0,-11.276 0,-16Z" style="fill:#666;"/><path d="M4.49,20.316c-0.493,-0.479 -0.739,-1.178 -0.739,-2.098l0,-4.422c0,-0.929 0.261,-1.633 0.782,-2.112c0.521,-0.479 1.209,-0.718 2.062,-0.718c0.815,0 1.474,0.237 1.977,0.711c0.502,0.474 0.753,1.194 0.753,2.161l0,0.299l-1.749,0l0,-0.284c0,-0.446 -0.092,-0.775 -0.277,-0.989c-0.185,-0.213 -0.434,-0.32 -0.747,-0.32c-0.369,0 -0.637,0.128 -0.803,0.384c-0.166,0.256 -0.249,0.64 -0.249,1.152l0,3.939c0,0.958 0.351,1.437 1.052,1.437c0.313,0 0.562,-0.109 0.747,-0.327c0.185,-0.219 0.277,-0.541 0.277,-0.967l0,-0.256l1.735,0l0,0.27c0,0.948 -0.263,1.661 -0.789,2.14c-0.526,0.479 -1.202,0.718 -2.027,0.718c-0.843,0 -1.512,-0.239 -2.005,-0.718Z" style="fill:#fff;fill-rule:nonzero;"/><path d="M11.146,20.316c-0.493,-0.479 -0.74,-1.178 -0.74,-2.098l0,-4.422c0,-0.929 0.261,-1.633 0.782,-2.112c0.522,-0.479 1.209,-0.718 2.062,-0.718c0.825,0 1.486,0.239 1.984,0.718c0.498,0.479 0.747,1.183 0.747,2.112l0,4.422c0,0.911 -0.263,1.607 -0.79,2.091c-0.526,0.483 -1.206,0.725 -2.04,0.725c-0.844,0 -1.512,-0.239 -2.005,-0.718Zm2.822,-1.237c0.176,-0.251 0.263,-0.605 0.263,-1.06l0,-3.939c0,-0.502 -0.085,-0.884 -0.255,-1.145c-0.171,-0.26 -0.427,-0.391 -0.768,-0.391c-0.37,0 -0.638,0.128 -0.804,0.384c-0.166,0.256 -0.249,0.64 -0.249,1.152l0,3.939c0,0.958 0.351,1.437 1.053,1.437c0.331,0 0.585,-0.126 0.76,-0.377Z" style="fill:#fff;fill-rule:nonzero;"/><path d="M17.801,20.316c-0.493,-0.479 -0.74,-1.178 -0.74,-2.098l0,-4.422c0,-0.929 0.261,-1.633 0.783,-2.112c0.521,-0.479 1.208,-0.718 2.062,-0.718c0.824,0 1.486,0.239 1.983,0.718c0.498,0.479 0.747,1.183 0.747,2.112l0,4.422c0,0.911 -0.263,1.607 -0.789,2.091c-0.526,0.483 -1.207,0.725 -2.041,0.725c-0.844,0 -1.512,-0.239 -2.005,-0.718Zm2.823,-1.237c0.175,-0.251 0.263,-0.605 0.263,-1.06l0,-3.939c0,-0.502 -0.086,-0.884 -0.256,-1.145c-0.171,-0.26 -0.427,-0.391 -0.768,-0.391c-0.37,0 -0.638,0.128 -0.804,0.384c-0.165,0.256 -0.248,0.64 -0.248,1.152l0,3.939c0,0.958 0.35,1.437 1.052,1.437c0.332,0 0.585,-0.126 0.761,-0.377Z" style="fill:#fff;fill-rule:nonzero;"/><path d="M23.774,11.108l1.749,0l0,8.248l2.631,0l0,1.564l-4.38,0l0,-9.812Z" style="fill:#fff;fill-rule:nonzero;"/></g></g></svg>