<?xml version="1.0" encoding="UTF-8" standalone="no"?><!DOCTYPE svg PUBLIC "-//W3C//DTD SVG 1.1//EN" "http://www.w3.org/Graphics/SVG/1.1/DTD/svg11.dtd"><svg width="100%" height="100%" viewBox="0 0 32 32" version="1.1" xmlns="http://www.w3.org/2000/svg" xmlns:xlink="http://www.w3.org/1999/xlink" xml:space="preserve" xmlns:serif="http://www.serif.com/" style="fill-rule:evenodd;clip-rule:evenodd;stroke-linejoin:round;stroke-miterlimit:1.41421;"><rect id="free" x="0" y="0" width="32" height="32" style="fill:none;"/><clipPath id="_clip1"><rect x="0" y="0" width="32" height="32"/></clipPath><g clip-path="url(#_clip1)"><g id="outline"><path d="M32,8c0,-4.418 -3.582,-8 -8,-8c-4.887,0 -11.113,0 -16,0c-4.418,0 -8,3.582 -8,8c0,4.887 0,11.113 0,16c0,4.418 3.582,8 8,8c4.887,0 11.113,0 16,0c4.418,0 8,-3.582 8,-8c0,-4.887 0,-11.113 0,-16Z"/></g><g id="emoji"><path d="M30,8c0,-1.591 -0.632,-3.117 -1.757,-4.243c-1.126,-1.125 -2.652,-1.757 -4.243,-1.757c-4.724,0 -11.276,0 -16,0c-1.591,0 -3.117,0.632 -4.243,1.757c-1.125,1.126 -1.757,2.652 -1.757,4.243c0,4.724 0,11.276 0,16c0,1.591 0.632,3.117 1.757,4.243c1.126,1.125 2.652,1.757 4.243,1.757c4.724,0 11.276,0 16,0c1.591,0 3.117,-0.632 4.243,-1.757c1.125,-1.126 1.757,-2.652 1.757,-4.243c0,-4.724 0,-11.276 0,-16Z" style="fill:#666;"/><path d="M5.95,12.291l0,2.79l2.536,0l0,1.759l-2.536,0l0,4.629l-1.95,0l0,-10.938l4.882,0l0,1.76l-2.932,0Z" style="fill:#fff;fill-rule:nonzero;"/><path d="M12.766,17.078l-0.935,0l0,4.391l-1.95,0l0,-10.938l2.98,0c1.078,0 1.842,0.259 2.291,0.777c0.449,0.518 0.674,1.347 0.674,2.489c0,0.729 -0.101,1.336 -0.302,1.823c-0.2,0.486 -0.528,0.85 -0.982,1.093l1.632,4.756l-2.029,0l-1.379,-4.391Zm-0.935,-1.744l1.014,0c0.391,0 0.661,-0.129 0.809,-0.388c0.148,-0.259 0.222,-0.642 0.222,-1.149c0,-0.508 -0.072,-0.888 -0.214,-1.142c-0.143,-0.253 -0.415,-0.38 -0.817,-0.38l-1.014,0l0,3.059Z" style="fill:#fff;fill-rule:nonzero;"/><path d="M19.107,12.291l0,2.742l2.536,0l0,1.744l-2.536,0l0,2.948l2.948,0l0,1.744l-4.882,0l0,-10.938l4.882,0l0,1.76l-2.948,0Z" style="fill:#fff;fill-rule:nonzero;"/><path d="M25.052,12.291l0,2.742l2.536,0l0,1.744l-2.536,0l0,2.948l2.948,0l0,1.744l-4.882,0l0,-10.938l4.882,0l0,1.76l-2.948,0Z" style="fill:#fff;fill-rule:nonzero;"/></g></g></svg>