<?xml version="1.0" encoding="UTF-8" standalone="no"?><!DOCTYPE svg PUBLIC "-//W3C//DTD SVG 1.1//EN" "http://www.w3.org/Graphics/SVG/1.1/DTD/svg11.dtd"><svg width="100%" height="100%" viewBox="0 0 32 32" version="1.1" xmlns="http://www.w3.org/2000/svg" xmlns:xlink="http://www.w3.org/1999/xlink" xml:space="preserve" xmlns:serif="http://www.serif.com/" style="fill-rule:evenodd;clip-rule:evenodd;stroke-linejoin:round;stroke-miterlimit:1.41421;"><rect id="free" x="0" y="0" width="32" height="32" style="fill:none;"/><clipPath id="_clip1"><rect x="0" y="0" width="32" height="32"/></clipPath><g clip-path="url(#_clip1)"><g id="outline"><path d="M32,8c0,-4.418 -3.582,-8 -8,-8c-4.887,0 -11.113,0 -16,0c-4.418,0 -8,3.582 -8,8c0,4.887 0,11.113 0,16c0,4.418 3.582,8 8,8c4.887,0 11.113,0 16,0c4.418,0 8,-3.582 8,-8c0,-4.887 0,-11.113 0,-16Z"/></g><g id="emoji"><path d="M30,8c0,-1.591 -0.632,-3.117 -1.757,-4.243c-1.126,-1.125 -2.652,-1.757 -4.243,-1.757c-4.724,0 -11.276,0 -16,0c-1.591,0 -3.117,0.632 -4.243,1.757c-1.125,1.126 -1.757,2.652 -1.757,4.243c0,4.724 0,11.276 0,16c0,1.591 0.632,3.117 1.757,4.243c1.126,1.125 2.652,1.757 4.243,1.757c4.724,0 11.276,0 16,0c1.591,0 3.117,-0.632 4.243,-1.757c1.125,-1.126 1.757,-2.652 1.757,-4.243c0,-4.724 0,-11.276 0,-16Z" style="fill:#666;"/><path d="M6.256,12.403l0,2.705l2.46,0l0,1.707l-2.46,0l0,4.489l-1.891,0l0,-10.608l4.735,0l0,1.707l-2.844,0Z" style="fill:#fff;fill-rule:nonzero;"/><path d="M12.867,17.045l-0.907,0l0,4.259l-1.891,0l0,-10.608l2.89,0c1.045,0 1.786,0.251 2.222,0.754c0.435,0.502 0.653,1.306 0.653,2.413c0,0.707 -0.098,1.297 -0.292,1.768c-0.195,0.471 -0.513,0.825 -0.953,1.061l1.583,4.612l-1.968,0l-1.337,-4.259Zm-0.907,-1.691l0.984,0c0.379,0 0.64,-0.125 0.784,-0.376c0.143,-0.251 0.215,-0.623 0.215,-1.115c0,-0.492 -0.069,-0.861 -0.208,-1.107c-0.138,-0.246 -0.402,-0.369 -0.791,-0.369l-0.984,0l0,2.967Z" style="fill:#fff;fill-rule:nonzero;"/><path d="M19.016,12.403l0,2.659l2.46,0l0,1.691l-2.46,0l0,2.86l2.86,0l0,1.691l-4.735,0l0,-10.608l4.735,0l0,1.707l-2.86,0Z" style="fill:#fff;fill-rule:nonzero;"/><path d="M24.781,12.403l0,2.659l2.46,0l0,1.691l-2.46,0l0,2.86l2.859,0l0,1.691l-4.734,0l0,-10.608l4.734,0l0,1.707l-2.859,0Z" style="fill:#fff;fill-rule:nonzero;"/></g></g></svg>