<?xml version="1.0" encoding="UTF-8" standalone="no"?><!DOCTYPE svg PUBLIC "-//W3C//DTD SVG 1.1//EN" "http://www.w3.org/Graphics/SVG/1.1/DTD/svg11.dtd"><svg width="100%" height="100%" viewBox="0 0 32 32" version="1.1" xmlns="http://www.w3.org/2000/svg" xmlns:xlink="http://www.w3.org/1999/xlink" xml:space="preserve" xmlns:serif="http://www.serif.com/" style="fill-rule:evenodd;clip-rule:evenodd;stroke-linejoin:round;stroke-miterlimit:1.41421;"><rect id="ng" x="0" y="0" width="32" height="32" style="fill:none;"/><clipPath id="_clip1"><rect x="0" y="0" width="32" height="32"/></clipPath><g clip-path="url(#_clip1)"><g id="outline"><path d="M32,8c0,-4.418 -3.582,-8 -8,-8c-4.887,0 -11.113,0 -16,0c-4.418,0 -8,3.582 -8,8c0,4.887 0,11.113 0,16c0,4.418 3.582,8 8,8c4.887,0 11.113,0 16,0c4.418,0 8,-3.582 8,-8c0,-4.887 0,-11.113 0,-16Z"/></g><g id="emoji"><path d="M30,8c0,-1.591 -0.632,-3.117 -1.757,-4.243c-1.126,-1.125 -2.652,-1.757 -4.243,-1.757c-4.724,0 -11.276,0 -16,0c-1.591,0 -3.117,0.632 -4.243,1.757c-1.125,1.126 -1.757,2.652 -1.757,4.243c0,4.724 0,11.276 0,16c0,1.591 0.632,3.117 1.757,4.243c1.126,1.125 2.652,1.757 4.243,1.757c4.724,0 11.276,0 16,0c1.591,0 3.117,-0.632 4.243,-1.757c1.125,-1.126 1.757,-2.652 1.757,-4.243c0,-4.724 0,-11.276 0,-16Z" style="fill:#d72d35;"/><path d="M14.993,9.064l0,13.913l-2.642,0l-5.122,-8.691l0,8.691l-2.641,0l0,-13.913l2.641,0l5.122,8.71l0,-8.71l2.642,0Z" style="fill:#fff;fill-rule:nonzero;"/><path d="M17.19,17.593l0,-3.186c0,-3.697 1.701,-5.545 5.102,-5.545c1.519,0 2.729,0.4 3.629,1.2c0.901,0.8 1.351,1.905 1.351,3.317l0,0.141l-2.641,0l0,-0.141c0,-0.632 -0.205,-1.156 -0.615,-1.573c-0.41,-0.417 -0.991,-0.625 -1.744,-0.625c-0.847,0 -1.462,0.262 -1.845,0.786c-0.383,0.524 -0.575,1.385 -0.575,2.581l0,3.005c0,1.142 0.205,1.966 0.615,2.47c0.41,0.504 1.045,0.756 1.906,0.756c0.806,0 1.394,-0.208 1.764,-0.625c0.37,-0.417 0.554,-1.049 0.554,-1.896l0,-0.665l-2.46,0l0,-2.178l5.041,0l0,2.38c0,3.562 -1.673,5.343 -5.02,5.343c-3.374,0 -5.062,-1.848 -5.062,-5.545Z" style="fill:#fff;fill-rule:nonzero;"/></g></g></svg>