<?xml version="1.0" encoding="UTF-8" standalone="no"?><!DOCTYPE svg PUBLIC "-//W3C//DTD SVG 1.1//EN" "http://www.w3.org/Graphics/SVG/1.1/DTD/svg11.dtd"><svg width="100%" height="100%" viewBox="0 0 32 32" version="1.1" xmlns="http://www.w3.org/2000/svg" xmlns:xlink="http://www.w3.org/1999/xlink" xml:space="preserve" xmlns:serif="http://www.serif.com/" style="fill-rule:evenodd;clip-rule:evenodd;stroke-linejoin:round;stroke-miterlimit:1.41421;"><rect id="ok" x="0" y="0" width="32" height="32" style="fill:none;"/><clipPath id="_clip1"><rect x="0" y="0" width="32" height="32"/></clipPath><g clip-path="url(#_clip1)"><g id="outline"><path d="M32,8c0,-4.418 -3.582,-8 -8,-8c-4.887,0 -11.113,0 -16,0c-4.418,0 -8,3.582 -8,8c0,4.887 0,11.113 0,16c0,4.418 3.582,8 8,8c4.887,0 11.113,0 16,0c4.418,0 8,-3.582 8,-8c0,-4.887 0,-11.113 0,-16Z"/></g><g id="emoji"><path d="M30,8c0,-1.591 -0.632,-3.117 -1.757,-4.243c-1.126,-1.125 -2.652,-1.757 -4.243,-1.757c-4.724,0 -11.276,0 -16,0c-1.591,0 -3.117,0.632 -4.243,1.757c-1.125,1.126 -1.757,2.652 -1.757,4.243c0,4.724 0,11.276 0,16c0,1.591 0.632,3.117 1.757,4.243c1.126,1.125 2.652,1.757 4.243,1.757c4.724,0 11.276,0 16,0c1.591,0 3.117,-0.632 4.243,-1.757c1.125,-1.126 1.757,-2.652 1.757,-4.243c0,-4.724 0,-11.276 0,-16Z" style="fill:#199d4e;"/><path d="M4.603,17.576l0,-3.152c0,-3.659 1.669,-5.488 5.008,-5.488c1.53,0 2.741,0.429 3.632,1.287c0.892,0.858 1.337,2.258 1.337,4.201l0,3.152c0,1.943 -0.455,3.343 -1.367,4.201c-0.911,0.858 -2.138,1.287 -3.681,1.287c-3.286,0 -4.929,-1.829 -4.929,-5.488Zm6.784,2.385c0.386,-0.512 0.579,-1.32 0.579,-2.424l0,-2.974c0,-1.171 -0.193,-2.019 -0.579,-2.544c-0.385,-0.526 -0.977,-0.788 -1.776,-0.788c-0.838,0 -1.443,0.256 -1.816,0.768c-0.372,0.512 -0.558,1.367 -0.558,2.564l0,2.974c0,1.13 0.186,1.945 0.558,2.444c0.373,0.499 0.978,0.748 1.816,0.748c0.799,0 1.391,-0.256 1.776,-0.768Z" style="fill:#fff;fill-rule:nonzero;"/><path d="M20.986,16.778l-1.816,2.275l0,3.852l-2.614,0l0,-13.77l2.614,0l0,6.426l4.77,-6.426l3.133,0l-4.411,5.528l4.77,8.242l-3.034,0l-3.412,-6.127Z" style="fill:#fff;fill-rule:nonzero;"/></g></g></svg>