<?xml version="1.0" encoding="UTF-8" standalone="no"?><!DOCTYPE svg PUBLIC "-//W3C//DTD SVG 1.1//EN" "http://www.w3.org/Graphics/SVG/1.1/DTD/svg11.dtd"><svg width="100%" height="100%" viewBox="0 0 32 32" version="1.1" xmlns="http://www.w3.org/2000/svg" xmlns:xlink="http://www.w3.org/1999/xlink" xml:space="preserve" xmlns:serif="http://www.serif.com/" style="fill-rule:evenodd;clip-rule:evenodd;stroke-linejoin:round;stroke-miterlimit:1.41421;"><rect id="up" x="0" y="0" width="32" height="32" style="fill:none;"/><clipPath id="_clip1"><rect x="0" y="0" width="32" height="32"/></clipPath><g clip-path="url(#_clip1)"><g id="outline"><path d="M32,8c0,-4.418 -3.582,-8 -8,-8c-4.887,0 -11.113,0 -16,0c-4.418,0 -8,3.582 -8,8c0,4.887 0,11.113 0,16c0,4.418 3.582,8 8,8c4.887,0 11.113,0 16,0c4.418,0 8,-3.582 8,-8c0,-4.887 0,-11.113 0,-16Z"/></g><g id="emoji"><path d="M30,8c0,-1.591 -0.632,-3.117 -1.757,-4.243c-1.126,-1.125 -2.652,-1.757 -4.243,-1.757c-4.724,0 -11.276,0 -16,0c-1.591,0 -3.117,0.632 -4.243,1.757c-1.125,1.126 -1.757,2.652 -1.757,4.243c0,4.724 0,11.276 0,16c0,1.591 0.632,3.117 1.757,4.243c1.126,1.125 2.652,1.757 4.243,1.757c4.724,0 11.276,0 16,0c1.591,0 3.117,-0.632 4.243,-1.757c1.125,-1.126 1.757,-2.652 1.757,-4.243c0,-4.724 0,-11.276 0,-16Z" style="fill:#666;"/><path d="M6.127,21.758c-0.681,-0.356 -1.214,-0.856 -1.6,-1.501c-0.386,-0.645 -0.578,-1.377 -0.578,-2.196l0,-8.352l2.368,0l0,8.279c0,0.712 0.186,1.263 0.56,1.655c0.374,0.391 0.886,0.587 1.537,0.587c0.65,0 1.166,-0.196 1.545,-0.587c0.38,-0.392 0.57,-0.943 0.57,-1.655l0,-8.279l2.386,0l0,8.352c0,0.819 -0.196,1.551 -0.588,2.196c-0.391,0.645 -0.928,1.145 -1.609,1.501c-0.681,0.355 -1.449,0.533 -2.304,0.533c-0.844,0 -1.606,-0.178 -2.287,-0.533Z" style="fill:#fff;fill-rule:nonzero;"/><path d="M22.704,10.758c0.729,0.699 1.093,1.657 1.093,2.874c0,1.157 -0.364,2.082 -1.093,2.775c-0.73,0.693 -1.727,1.039 -2.992,1.039l-2.296,0l0,4.736l-2.368,0l0,-12.473l4.664,0c1.265,0 2.262,0.35 2.992,1.049Zm-1.763,4.157c0.325,-0.301 0.488,-0.729 0.488,-1.283c0,-0.603 -0.16,-1.064 -0.479,-1.383c-0.319,-0.319 -0.768,-0.479 -1.347,-0.479l-2.187,0l0,3.597l2.187,0c0.567,0 1.013,-0.15 1.338,-0.452Z" style="fill:#fff;fill-rule:nonzero;"/><path d="M25.207,9.709l2.549,0l-0.434,8.316l-1.681,0l-0.434,-8.316Zm0.091,10.123l2.368,0l0,2.35l-2.368,0l0,-2.35Z" style="fill:#fff;fill-rule:nonzero;"/></g></g></svg>