<?xml version="1.0" encoding="UTF-8" standalone="no"?><!DOCTYPE svg PUBLIC "-//W3C//DTD SVG 1.1//EN" "http://www.w3.org/Graphics/SVG/1.1/DTD/svg11.dtd"><svg width="100%" height="100%" viewBox="0 0 32 32" version="1.1" xmlns="http://www.w3.org/2000/svg" xmlns:xlink="http://www.w3.org/1999/xlink" xml:space="preserve" xmlns:serif="http://www.serif.com/" style="fill-rule:evenodd;clip-rule:evenodd;stroke-linejoin:round;stroke-miterlimit:1.41421;"><rect id="up" x="0" y="0" width="32" height="32" style="fill:none;"/><clipPath id="_clip1"><rect x="0" y="0" width="32" height="32"/></clipPath><g clip-path="url(#_clip1)"><g id="outline"><path d="M32,8c0,-4.418 -3.582,-8 -8,-8c-4.887,0 -11.113,0 -16,0c-4.418,0 -8,3.582 -8,8c0,4.887 0,11.113 0,16c0,4.418 3.582,8 8,8c4.887,0 11.113,0 16,0c4.418,0 8,-3.582 8,-8c0,-4.887 0,-11.113 0,-16Z"/></g><g id="emoji"><path d="M30,8c0,-1.591 -0.632,-3.117 -1.757,-4.243c-1.126,-1.125 -2.652,-1.757 -4.243,-1.757c-4.724,0 -11.276,0 -16,0c-1.591,0 -3.117,0.632 -4.243,1.757c-1.125,1.126 -1.757,2.652 -1.757,4.243c0,4.724 0,11.276 0,16c0,1.591 0.632,3.117 1.757,4.243c1.126,1.125 2.652,1.757 4.243,1.757c4.724,0 11.276,0 16,0c1.591,0 3.117,-0.632 4.243,-1.757c1.125,-1.126 1.757,-2.652 1.757,-4.243c0,-4.724 0,-11.276 0,-16Z" style="fill:#666;"/><path d="M8.501,22.342c-0.85,0 -1.619,-0.18 -2.305,-0.538c-0.687,-0.358 -1.224,-0.862 -1.613,-1.512c-0.389,-0.65 -0.583,-1.388 -0.583,-2.215l0,-8.419l2.387,0l0,8.347c0,0.716 0.189,1.272 0.565,1.667c0.377,0.395 0.893,0.592 1.549,0.592c0.656,0 1.176,-0.197 1.558,-0.592c0.383,-0.395 0.574,-0.951 0.574,-1.667l0,-8.347l2.406,0l0,8.419c0,0.827 -0.198,1.565 -0.593,2.215c-0.394,0.65 -0.935,1.154 -1.621,1.512c-0.687,0.358 -1.461,0.538 -2.324,0.538Z" style="fill:#fff;fill-rule:nonzero;"/><path d="M19.891,9.658c1.275,0 2.281,0.353 3.016,1.057c0.735,0.705 1.102,1.671 1.102,2.898c0,1.166 -0.367,2.098 -1.102,2.797c-0.735,0.699 -1.741,1.048 -3.016,1.048l-2.315,0l0,4.774l-2.387,0l0,-12.574l4.702,0Zm-0.11,5.704c0.571,0 1.021,-0.152 1.349,-0.455c0.328,-0.304 0.492,-0.735 0.492,-1.294c0,-0.608 -0.161,-1.072 -0.483,-1.394c-0.322,-0.322 -0.775,-0.483 -1.358,-0.483l-2.205,0l0,3.626l2.205,0Z" style="fill:#fff;fill-rule:nonzero;"/><path d="M25.431,9.658l2.569,0l-0.437,8.383l-1.695,0l-0.437,-8.383Zm0.091,10.205l2.387,0l0,2.369l-2.387,0l0,-2.369Z" style="fill:#fff;fill-rule:nonzero;"/></g></g></svg>