<?xml version="1.0" encoding="UTF-8" standalone="no"?><!DOCTYPE svg PUBLIC "-//W3C//DTD SVG 1.1//EN" "http://www.w3.org/Graphics/SVG/1.1/DTD/svg11.dtd"><svg width="100%" height="100%" viewBox="0 0 32 32" version="1.1" xmlns="http://www.w3.org/2000/svg" xmlns:xlink="http://www.w3.org/1999/xlink" xml:space="preserve" xmlns:serif="http://www.serif.com/" style="fill-rule:evenodd;clip-rule:evenodd;stroke-linejoin:round;stroke-miterlimit:1.41421;"><rect id="vs" x="0" y="0" width="32" height="32" style="fill:none;"/><clipPath id="_clip1"><rect x="0" y="0" width="32" height="32"/></clipPath><g clip-path="url(#_clip1)"><g id="outline"><path d="M32,8c0,-4.418 -3.582,-8 -8,-8c-4.887,0 -11.113,0 -16,0c-4.418,0 -8,3.582 -8,8c0,4.887 0,11.113 0,16c0,4.418 3.582,8 8,8c4.887,0 11.113,0 16,0c4.418,0 8,-3.582 8,-8c0,-4.887 0,-11.113 0,-16Z"/></g><g id="emoji"><path d="M30,8c0,-1.591 -0.632,-3.117 -1.757,-4.243c-1.126,-1.125 -2.652,-1.757 -4.243,-1.757c-4.724,0 -11.276,0 -16,0c-1.591,0 -3.117,0.632 -4.243,1.757c-1.125,1.126 -1.757,2.652 -1.757,4.243c0,4.724 0,11.276 0,16c0,1.591 0.632,3.117 1.757,4.243c1.126,1.125 2.652,1.757 4.243,1.757c4.724,0 11.276,0 16,0c1.591,0 3.117,-0.632 4.243,-1.757c1.125,-1.126 1.757,-2.652 1.757,-4.243c0,-4.724 0,-11.276 0,-16Z" style="fill:#ef9b00;"/><path d="M5,8.901l2.835,0l2.815,9.872l2.815,-9.872l2.835,0l-4.574,14.281l-2.173,0l-4.553,-14.281Z" style="fill:#fff;fill-rule:nonzero;"/><path d="M21.909,23.306c-1.532,0 -2.725,-0.383 -3.581,-1.149c-0.855,-0.766 -1.331,-1.873 -1.428,-3.322l2.567,0c0.096,0.787 0.348,1.342 0.755,1.666c0.407,0.325 1.011,0.487 1.811,0.487c1.531,0 2.297,-0.628 2.297,-1.884c0,-0.565 -0.152,-0.996 -0.455,-1.293c-0.304,-0.297 -0.787,-0.5 -1.449,-0.611l-1.345,-0.227c-2.58,-0.428 -3.87,-1.753 -3.87,-3.974c0,-1.324 0.438,-2.373 1.314,-3.146c0.876,-0.772 2.038,-1.159 3.487,-1.159c1.408,0 2.522,0.373 3.343,1.118c0.821,0.745 1.286,1.794 1.397,3.146l-2.608,0c-0.041,-0.69 -0.242,-1.194 -0.6,-1.511c-0.359,-0.317 -0.883,-0.476 -1.573,-0.476c-0.704,0 -1.235,0.162 -1.594,0.486c-0.358,0.324 -0.538,0.769 -0.538,1.335c0,0.497 0.159,0.89 0.476,1.18c0.317,0.29 0.814,0.496 1.49,0.621l1.511,0.269c2.456,0.441 3.684,1.78 3.684,4.015c0,1.435 -0.459,2.532 -1.376,3.29c-0.918,0.759 -2.156,1.139 -3.715,1.139Z" style="fill:#fff;fill-rule:nonzero;"/></g></g></svg>