<?xml version="1.0" encoding="UTF-8" standalone="no"?><!DOCTYPE svg PUBLIC "-//W3C//DTD SVG 1.1//EN" "http://www.w3.org/Graphics/SVG/1.1/DTD/svg11.dtd"><svg width="100%" height="100%" viewBox="0 0 32 32" version="1.1" xmlns="http://www.w3.org/2000/svg" xmlns:xlink="http://www.w3.org/1999/xlink" xml:space="preserve" xmlns:serif="http://www.serif.com/" style="fill-rule:evenodd;clip-rule:evenodd;stroke-linejoin:round;stroke-miterlimit:1.41421;"><rect id="vs" x="0" y="0" width="32" height="32" style="fill:none;"/><clipPath id="_clip1"><rect x="0" y="0" width="32" height="32"/></clipPath><g clip-path="url(#_clip1)"><g id="outline"><path d="M32,8c0,-4.418 -3.582,-8 -8,-8c-4.887,0 -11.113,0 -16,0c-4.418,0 -8,3.582 -8,8c0,4.887 0,11.113 0,16c0,4.418 3.582,8 8,8c4.887,0 11.113,0 16,0c4.418,0 8,-3.582 8,-8c0,-4.887 0,-11.113 0,-16Z"/></g><g id="emoji"><path d="M30,8c0,-1.591 -0.632,-3.117 -1.757,-4.243c-1.126,-1.125 -2.652,-1.757 -4.243,-1.757c-4.724,0 -11.276,0 -16,0c-1.591,0 -3.117,0.632 -4.243,1.757c-1.125,1.126 -1.757,2.652 -1.757,4.243c0,4.724 0,11.276 0,16c0,1.591 0.632,3.117 1.757,4.243c1.126,1.125 2.652,1.757 4.243,1.757c4.724,0 11.276,0 16,0c1.591,0 3.117,-0.632 4.243,-1.757c1.125,-1.126 1.757,-2.652 1.757,-4.243c0,-4.724 0,-11.276 0,-16Z" style="fill:#ef9b00;"/><path d="M4.564,8.62l2.947,0l2.927,10.263l2.926,-10.263l2.948,0l-4.755,14.846l-2.26,0l-4.733,-14.846Z" style="fill:#fff;fill-rule:nonzero;"/><path d="M18.421,22.401c-0.89,-0.796 -1.385,-1.947 -1.485,-3.453l2.668,0c0.101,0.818 0.362,1.395 0.786,1.732c0.423,0.337 1.05,0.506 1.882,0.506c1.593,0 2.389,-0.653 2.389,-1.958c0,-0.589 -0.158,-1.037 -0.474,-1.345c-0.315,-0.309 -0.817,-0.52 -1.506,-0.635l-1.399,-0.237c-2.682,-0.444 -4.023,-1.821 -4.023,-4.131c0,-1.377 0.455,-2.467 1.366,-3.271c0.911,-0.803 2.12,-1.205 3.626,-1.205c1.463,0 2.621,0.388 3.475,1.162c0.853,0.775 1.337,1.865 1.452,3.271l-2.711,0c-0.043,-0.717 -0.251,-1.241 -0.624,-1.571c-0.373,-0.33 -0.918,-0.495 -1.635,-0.495c-0.732,0 -1.284,0.169 -1.657,0.506c-0.373,0.337 -0.56,0.8 -0.56,1.388c0,0.516 0.165,0.925 0.495,1.226c0.33,0.302 0.847,0.517 1.55,0.646l1.57,0.28c2.554,0.459 3.83,1.85 3.83,4.174c0,1.492 -0.477,2.632 -1.43,3.421c-0.954,0.789 -2.242,1.184 -3.863,1.184c-1.592,0 -2.833,-0.398 -3.722,-1.195Z" style="fill:#fff;fill-rule:nonzero;"/></g></g></svg>