<?xml version="1.0" encoding="UTF-8" standalone="no"?>
<!DOCTYPE svg PUBLIC "-//W3C//DTD SVG 1.1//EN" "http://www.w3.org/Graphics/SVG/1.1/DTD/svg11.dtd">
<svg width="100%" height="100%" viewBox="0 0 32 32" version="1.1" xmlns="http://www.w3.org/2000/svg" xmlns:xlink="http://www.w3.org/1999/xlink" xml:space="preserve" xmlns:serif="http://www.serif.com/" style="fill-rule:evenodd;clip-rule:evenodd;stroke-linejoin:round;stroke-miterlimit:2;">
    <rect id="call_me--clw-" serif:id="call_me [clw]" x="0" y="0" width="32" height="32" style="fill:none;"/>
    <clipPath id="_clip1">
        <rect x="0" y="0" width="32" height="32"/>
    </clipPath>
    <g clip-path="url(#_clip1)">
        <g id="outline">
            <path d="M10,7.528l0,-9.356l6.287,6.287c1.097,1.096 1.713,2.584 1.713,4.135c0,0 0,0 0,0c0,0.578 -0.134,1.147 -0.393,1.663l-0.371,0.743l4.764,0c2.209,0 4,1.791 4,4l0,0c0,0.729 -0.195,1.412 -0.536,2c0.341,0.588 0.536,1.271 0.536,2l0,0c0,0.729 -0.195,1.412 -0.536,2c0.341,0.588 0.536,1.271 0.536,2l0,0c0,0.726 -0.193,1.406 -0.532,1.992l4.693,1.667c-1.662,1.26 -3.323,2.52 -4.985,3.779c-1.083,0.82 -2.497,1.013 -3.773,0.575l-5.583,-2.013l-9.82,0c-2.209,0 -4,-1.791 -4,-4c0,-2.22 0,-5.78 0,-8c0,-2.209 1.791,-4 4,-4l1.264,0l2.736,-5.472Z"/>
        </g>
        <g id="emoji">
            <path d="M12,15l-6,0c-1.105,0 -2,0.895 -2,2c0,2.22 0,5.78 0,8c0,1.105 0.895,2 2,2c2.069,0 5,0 5,0l1,-1l0,-11Z" style="fill:#a90eb1;"/>
            <path d="M14.427,10.754l0,1.326c0,0.552 0.639,0.92 1.191,0.92c0,0 6.382,0 6.382,0c1.105,0 2,0.895 2,2c0,0 0,0 0,0c0,1.105 -0.895,2 -2,2l0,0c1.105,0 2,0.895 2,2c0,0 0,0 0,0c0,1.105 -0.895,2 -2,2l0,0c1.105,0 2,0.895 2,2c0,0 0,0 0,0c0,1.105 -0.895,2 -2,2l-2.484,0l6.484,2.304c0,0 -1.178,0.893 -2.032,1.54c-0.54,0.409 -1.25,0.517 -1.887,0.288l-5.912,-2.132l-5.144,0c-0.803,0 -1.572,-0.319 -2.139,-0.886c-0.567,-0.567 -0.886,-1.336 -0.886,-2.139c0,-2.012 0,-4.583 0,-6.253c0,-1.133 0.264,-2.249 0.77,-3.262l1.73,-3.46l0.5,-0.246l3.427,0Zm0.573,-0.583l-3.784,0l-0.216,-0.171l1,-2l0.283,-0.278l3.217,0l0.454,0.278c0.03,0.195 0.046,0.394 0.046,0.594c0,0 0,0 0,0c0,0.267 -0.062,0.53 -0.181,0.769l-0.319,0.637l-0.5,0.171Zm0.5,-2.864l-3.217,0l-0.283,-0.307l0,-4c0,0 1.69,1.69 2.873,2.873c0.329,0.329 0.592,0.711 0.781,1.127l-0.154,0.307Z" style="fill:#f10dc3;"/>
            <path d="M15.5,10l-0.776,1.553c-0.155,0.31 -0.139,0.678 0.043,0.973c0.183,0.295 0.504,0.474 0.851,0.474l-1.618,0c-0.552,0 -1,-0.448 -1,-1c0,-0.265 0.105,-0.52 0.293,-0.707c0.187,-0.188 0.442,-0.293 0.707,-0.293l-3.5,0l0.5,-1l4.5,0Zm0.154,-3c0.145,0.317 0.246,0.653 0.3,1l-3.954,0l0,-1l3.654,0Z" style="fill:#a90eb1;"/>
        </g>
    </g>
</svg>
