<?xml version="1.0" encoding="UTF-8" standalone="no"?>
<!DOCTYPE svg PUBLIC "-//W3C//DTD SVG 1.1//EN" "http://www.w3.org/Graphics/SVG/1.1/DTD/svg11.dtd">
<svg width="100%" height="100%" viewBox="0 0 32 32" version="1.1" xmlns="http://www.w3.org/2000/svg" xmlns:xlink="http://www.w3.org/1999/xlink" xml:space="preserve" xmlns:serif="http://www.serif.com/" style="fill-rule:evenodd;clip-rule:evenodd;stroke-linejoin:round;stroke-miterlimit:2;">
    <rect id="call_me--clw-" serif:id="call_me [clw]" x="0" y="0" width="32" height="32" style="fill:none;"/>
    <clipPath id="_clip1">
        <rect x="0" y="0" width="32" height="32"/>
    </clipPath>
    <g clip-path="url(#_clip1)">
        <g id="outline">
            <path d="M22.204,11.005l0.101,0.006l0.101,0.009l0.101,0.012l0.1,0.014l0.099,0.016l0.098,0.019l0.097,0.021l0.097,0.024l0.096,0.026l0.095,0.028l0.093,0.03l0.093,0.033l0.092,0.035l0.091,0.037l0.089,0.039l0.088,0.041l0.087,0.043l0.086,0.046l0.084,0.047l0.084,0.049l0.082,0.051l0.08,0.053l0.079,0.055l0.078,0.057l0.076,0.058l0.074,0.06l0.074,0.062l0.071,0.063l0.07,0.066l0.069,0.067l0.066,0.068l0.065,0.07l0.064,0.071l0.062,0.074l0.06,0.075l0.058,0.076l0.057,0.077l0.055,0.079l0.053,0.081l0.051,0.082l0.049,0.083l0.047,0.084l0.045,0.086l0.044,0.087l0.041,0.088l0.039,0.089l0.037,0.091l0.035,0.092l0.033,0.093l0.03,0.093l0.028,0.095l0.026,0.096l0.024,0.096l0.021,0.098l0.019,0.098l0.016,0.099l0.014,0.1l0.012,0.101l0.009,0.101l0.006,0.1l0.004,0.103l0.001,0.102l-0.001,0.102l-0.004,0.103l-0.006,0.1l-0.009,0.101l-0.012,0.101l-0.014,0.1l-0.016,0.099l-0.019,0.098l-0.021,0.098l-0.024,0.096l-0.026,0.096l-0.028,0.095l-0.03,0.093l-0.033,0.093l-0.035,0.092l-0.037,0.091l-0.039,0.089l-0.041,0.088l-0.043,0.087l-0.045,0.085l-0.048,0.085l-0.004,0.008l0.004,0.008l0.047,0.084l0.045,0.086l0.044,0.087l0.041,0.088l0.039,0.09l0.037,0.09l0.035,0.092l0.033,0.093l0.03,0.093l0.028,0.095l0.026,0.096l0.024,0.096l0.021,0.098l0.019,0.098l0.016,0.099l0.014,0.1l0.012,0.101l0.009,0.101l0.006,0.1l0.004,0.103l0.001,0.102l-0.001,0.102l-0.004,0.103l-0.006,0.1l-0.009,0.101l-0.012,0.101l-0.014,0.1l-0.016,0.099l-0.019,0.098l-0.021,0.098l-0.024,0.096l-0.026,0.096l-0.028,0.095l-0.03,0.093l-0.033,0.094l-0.035,0.091l-0.037,0.09l-0.039,0.09l-0.041,0.088l-0.043,0.087l-0.045,0.086l-0.048,0.084l-0.004,0.008l0.004,0.008l0.047,0.084l0.045,0.086l0.044,0.087l0.041,0.088l0.039,0.089l0.037,0.091l0.035,0.092l0.033,0.093l0.03,0.093l0.028,0.095l0.026,0.096l0.024,0.096l0.021,0.098l0.019,0.098l0.016,0.099l0.014,0.1l0.012,0.101l0.009,0.101l0.006,0.1l0.004,0.103l0.001,0.102l-0.001,0.102l-0.004,0.103l-0.006,0.1l-0.009,0.101l-0.012,0.101l-0.014,0.1l-0.016,0.099l-0.019,0.098l-0.021,0.098l-0.024,0.096l-0.026,0.096l-0.028,0.095l-0.03,0.093l-0.033,0.093l-0.035,0.092l-0.037,0.091l-0.039,0.089l-0.041,0.088l-0.043,0.087l-0.045,0.085l-0.048,0.085l0,0l4.467,1.587l0.034,0.224l-4.806,3.644l-0.09,0.066l-0.104,0.071l-0.106,0.068l-0.107,0.064l-0.11,0.061l-0.11,0.057l-0.113,0.054l-0.114,0.05l-0.115,0.046l-0.116,0.043l-0.117,0.039l-0.118,0.035l-0.12,0.031l-0.12,0.028l-0.12,0.024l-0.121,0.021l-0.122,0.016l-0.123,0.013l-0.123,0.01l-0.123,0.005l-0.123,0.002l-0.124,-0.003l-0.123,-0.006l-0.124,-0.01l-0.123,-0.013l-0.123,-0.018l-0.123,-0.022l-0.123,-0.025l-0.122,-0.029l-0.121,-0.034l-0.121,-0.037l-0.104,-0.035l-5.598,-2.019l-9.833,0l-0.089,-0.001l-0.102,-0.004l-0.102,-0.006l-0.101,-0.009l-0.1,-0.012l-0.1,-0.014l-0.099,-0.016l-0.098,-0.019l-0.098,-0.021l-0.096,-0.024l-0.096,-0.026l-0.095,-0.028l-0.093,-0.03l-0.094,-0.033l-0.091,-0.035l-0.09,-0.037l-0.09,-0.039l-0.088,-0.041l-0.088,-0.044l-0.085,-0.045l-0.084,-0.047l-0.083,-0.049l-0.082,-0.051l-0.081,-0.053l-0.079,-0.055l-0.078,-0.057l-0.076,-0.058l-0.074,-0.06l-0.073,-0.062l-0.072,-0.063l-0.07,-0.066l-0.068,-0.066l-0.067,-0.069l-0.066,-0.07l-0.063,-0.072l-0.062,-0.073l-0.06,-0.074l-0.058,-0.076l-0.057,-0.078l-0.055,-0.079l-0.052,-0.08l-0.052,-0.082l-0.049,-0.084l-0.047,-0.084l-0.045,-0.086l-0.044,-0.087l-0.041,-0.088l-0.039,-0.089l-0.037,-0.091l-0.035,-0.092l-0.032,-0.092l-0.031,-0.095l-0.028,-0.094l-0.026,-0.096l-0.024,-0.097l-0.021,-0.096l-0.019,-0.099l-0.016,-0.1l-0.014,-0.099l-0.012,-0.1l-0.009,-0.101l-0.006,-0.102l-0.004,-0.102l-0.001,-0.089l0,-8.026l0.001,-0.089l0.004,-0.102l0.006,-0.102l0.009,-0.101l0.012,-0.1l0.014,-0.099l0.016,-0.099l0.019,-0.099l0.021,-0.098l0.024,-0.097l0.026,-0.095l0.028,-0.094l0.031,-0.095l0.032,-0.092l0.035,-0.092l0.037,-0.09l0.039,-0.09l0.041,-0.088l0.044,-0.087l0.045,-0.086l0.047,-0.084l0.049,-0.083l0.051,-0.082l0.053,-0.081l0.055,-0.079l0.057,-0.077l0.058,-0.076l0.06,-0.075l0.062,-0.074l0.064,-0.071l0.064,-0.07l0.067,-0.068l0.069,-0.068l0.07,-0.065l0.071,-0.063l0.074,-0.062l0.074,-0.06l0.077,-0.058l0.077,-0.057l0.079,-0.055l0.08,-0.053l0.082,-0.051l0.084,-0.049l0.084,-0.047l0.085,-0.045l0.087,-0.044l0.089,-0.041l0.089,-0.039l0.091,-0.037l0.092,-0.035l0.092,-0.032l0.094,-0.031l0.095,-0.028l0.096,-0.026l0.097,-0.024l0.097,-0.021l0.098,-0.019l0.1,-0.016l0.099,-0.014l0.1,-0.012l0.102,-0.009l0.101,-0.006l0.101,-0.004l0.09,-0.001l1.277,0l2.736,-5.472l0,-8.029l0.939,-0.389l5.357,5.357l0.093,0.096l0.098,0.106l0.096,0.108l0.093,0.111l0.09,0.112l0.087,0.115l0.084,0.116l0.081,0.118l0.078,0.121l0.075,0.121l0.071,0.124l0.069,0.125l0.066,0.127l0.062,0.128l0.06,0.13l0.056,0.131l0.053,0.133l0.05,0.133l0.046,0.135l0.043,0.136l0.04,0.137l0.037,0.138l0.033,0.14l0.03,0.14l0.026,0.141l0.023,0.142l0.02,0.142l0.016,0.143l0.012,0.144l0.009,0.144l0.005,0.145l0.002,0.132l0,0.028l-0.001,0.094l-0.005,0.107l-0.008,0.108l-0.011,0.107l-0.014,0.107l-0.017,0.106l-0.02,0.106l-0.023,0.105l-0.027,0.104l-0.029,0.103l-0.032,0.103l-0.035,0.102l-0.038,0.101l-0.041,0.099l-0.044,0.099l-0.041,0.084l-0.378,0.756l4.776,0l0.09,0.001l0.102,0.004Zm-8.208,-2.525l-3.435,6.87l-0.026,0.053l-0.023,0.048l-0.023,0.049l-0.023,0.049l-0.021,0.049l-0.021,0.049l-0.021,0.049l-0.531,1.304l-3.859,0l-0.013,0l0,0.013l0,7.974l0,0.013l0.013,0l9.444,0l0.344,-2l6.186,0l0.001,0l-3.988,-0.051l0,-3.898l3.987,-0.051l-3.987,-0.051l0,-3.898l3.987,-0.051l-6.385,0l-0.081,-0.001l-0.097,-0.005l-0.096,-0.008l-0.095,-0.011l-0.095,-0.013l-0.095,-0.017l-0.093,-0.02l-0.092,-0.023l-0.093,-0.025l-0.09,-0.029l-0.089,-0.031l-0.088,-0.034l-0.088,-0.037l-0.086,-0.039l-0.084,-0.042l-0.083,-0.044l-0.081,-0.048l-0.081,-0.049l-0.078,-0.053l-0.077,-0.055l-0.076,-0.057l-0.074,-0.06l-0.07,-0.061l-0.071,-0.065l-0.068,-0.067l-0.066,-0.069l-0.064,-0.072l-0.061,-0.073l-0.06,-0.075l-0.057,-0.078l-0.055,-0.08l-0.052,-0.082l-0.049,-0.082l-0.048,-0.086l-0.044,-0.087l-0.041,-0.086l-0.038,-0.087l-0.035,-0.09l-0.032,-0.09l-0.029,-0.09l-0.027,-0.091l-0.023,-0.093l-0.021,-0.092l-0.018,-0.093l-0.014,-0.092l-0.012,-0.095l-0.008,-0.094l-0.006,-0.094l-0.003,-0.095l0,-0.093l0.003,-0.094l0.007,-0.097l0.009,-0.093l0.012,-0.094l0.015,-0.094l0.018,-0.093l0.021,-0.092l0.024,-0.092l0.027,-0.093l0.03,-0.091l0.034,-0.09l0.036,-0.09l0.039,-0.089l0.035,-0.072l1.071,-2.142l-0.001,-0.029l-0.002,-0.022Z"/>
        </g>
        <g id="emoji">
            <path d="M12,15l-6,0c-1.105,0 -2,0.895 -2,2c0,2.22 0,5.78 0,8c0,1.105 0.895,2 2,2c2.069,0 5,0 5,0l1,-1l0,-11Z" style="fill:#a90eb1;"/>
            <path d="M14.427,10.754l0,1.326c0,0.552 0.639,0.92 1.191,0.92c0,0 6.382,0 6.382,0c1.105,0 2,0.895 2,2c0,0 0,0 0,0c0,1.105 -0.895,2 -2,2l0,0l0,0c1.105,0 2,0.895 2,2c0,0 0,0 0,0c0,1.105 -0.895,2 -2,2l0,0l0,0c1.105,0 2,0.895 2,2c0,0 0,0 0,0c0,1.105 -0.895,2 -2,2l-2.484,0l6.484,2.304c0,0 -1.178,0.893 -2.032,1.54c-0.54,0.409 -1.25,0.517 -1.887,0.288l-5.912,-2.132l-5.144,0c-0.803,0 -1.572,-0.319 -2.139,-0.886c-0.567,-0.567 -0.886,-1.336 -0.886,-2.139c0,-2.012 0,-4.583 0,-6.253c0,-1.133 0.264,-2.249 0.77,-3.262l1.73,-3.46l0.5,-0.246l3.427,0Zm0.573,-0.583l-3.784,0l-0.216,-0.171l1,-2l0.283,-0.278l3.217,0l0.454,0.278c0.03,0.195 0.046,0.394 0.046,0.594c0,0 0,0 0,0c0,0.267 -0.062,0.53 -0.181,0.769l-0.319,0.637l-0.5,0.171Zm0.5,-2.864l-3.217,0l-0.283,-0.307l0,-4c0,0 1.69,1.69 2.873,2.873c0.329,0.329 0.592,0.711 0.781,1.127l-0.154,0.307Z" style="fill:#f10dc3;"/>
            <path d="M15.5,10l-0.776,1.553c-0.155,0.31 -0.139,0.678 0.043,0.973c0.183,0.295 0.504,0.474 0.851,0.474l-1.618,0c-0.552,0 -1,-0.448 -1,-1c0,-0.265 0.105,-0.52 0.293,-0.707c0.187,-0.188 0.442,-0.293 0.707,-0.293l-3.5,0l0.5,-1l4.5,0Zm0.154,-3c0.145,0.317 0.246,0.653 0.3,1l-3.954,0l0,-1l3.654,0Z" style="fill:#a90eb1;"/>
        </g>
    </g>
</svg>
