<?xml version="1.0" encoding="UTF-8" standalone="no"?>
<!DOCTYPE svg PUBLIC "-//W3C//DTD SVG 1.1//EN" "http://www.w3.org/Graphics/SVG/1.1/DTD/svg11.dtd">
<svg width="100%" height="100%" viewBox="0 0 32 32" version="1.1" xmlns="http://www.w3.org/2000/svg" xmlns:xlink="http://www.w3.org/1999/xlink" xml:space="preserve" xmlns:serif="http://www.serif.com/" style="fill-rule:evenodd;clip-rule:evenodd;stroke-miterlimit:3;">
    <rect id="clap--clw-" serif:id="clap [clw]" x="0" y="0" width="32" height="32" style="fill:none;"/>
    <clipPath id="_clip1">
        <rect x="0" y="0" width="32" height="32"/>
    </clipPath>
    <g clip-path="url(#_clip1)">
        <g id="outline">
            <path d="M22.073,0.001l0.049,0.001l0.049,0.003l0.049,0.003l0.048,0.004l0.049,0.005l0.048,0.005l0.049,0.007l0.048,0.007l0.048,0.008l0.048,0.008l0.048,0.01l0.048,0.01l0.048,0.011l0.047,0.012l0.047,0.013l0.047,0.013l0.047,0.014l0.046,0.015l0.047,0.015l0.046,0.017l0.045,0.017l0.046,0.018l0.045,0.018l0.045,0.02l0.044,0.02l0.045,0.021l0.043,0.021l0.044,0.022l0.043,0.023l0.043,0.024l0.042,0.024l0.042,0.025l0.042,0.026l0.041,0.026l0.04,0.027l0.041,0.028l0.039,0.028l0.04,0.029l0.039,0.03l0.038,0.03l0.038,0.031l0.037,0.031l0.037,0.032l0.036,0.033l0.036,0.033l0.035,0.034l0.035,0.034l0.034,0.035l0.034,0.036l0.033,0.036l0.032,0.036l0.032,0.037l0.031,0.038l0.03,0.038l0.03,0.039l0.03,0.039l0.028,0.039l0.028,0.04l0.027,0.041l0.027,0.041l0.026,0.041l0.025,0.042l0.025,0.042l0.024,0.043l0.023,0.043l0.023,0.043l0.022,0.044l0.021,0.044l0.02,0.044l0.02,0.045l0.019,0.045l0.018,0.045l0.018,0.045l0.016,0.046l0.016,0.046l0.016,0.047l0.014,0.047l0.014,0.046l0.013,0.047l0.012,0.048l0.011,0.047l0.011,0.048l0.01,0.048l0.009,0.048l0.008,0.048l0.008,0.048l0.007,0.048l0.006,0.049l0.005,0.048l0.004,0.049l0.004,0.049l0.002,0.049l0.002,0.048l0.002,0.049l0,0.049l0,2l0,0.049l-0.002,0.049l-0.002,0.048l-0.002,0.049l-0.004,0.049l-0.004,0.049l-0.005,0.048l-0.006,0.049l-0.007,0.048l-0.008,0.048l-0.008,0.048l-0.009,0.048l-0.01,0.048l-0.011,0.048l-0.011,0.047l-0.012,0.048l-0.013,0.047l-0.014,0.046l-0.014,0.047l-0.016,0.047l-0.016,0.046l-0.016,0.046l-0.018,0.045l-0.018,0.045l-0.019,0.045l-0.02,0.045l-0.02,0.044l-0.021,0.044l-0.022,0.044l-0.023,0.043l-0.023,0.043l-0.024,0.043l-0.025,0.042l-0.025,0.042l-0.026,0.041l-0.027,0.041l-0.027,0.041l-0.028,0.04l-0.028,0.039l-0.03,0.039l-0.03,0.039l-0.03,0.038l-0.031,0.038l-0.032,0.037l-0.032,0.036l-0.033,0.036l-0.034,0.036l-0.034,0.035l-0.035,0.034l-0.035,0.034l-0.036,0.033l-0.036,0.033l-0.037,0.032l-0.037,0.031l-0.038,0.031l-0.038,0.03l-0.039,0.03l-0.04,0.029l-0.039,0.028l-0.041,0.028l-0.04,0.027l-0.041,0.026l-0.042,0.026l-0.042,0.025l-0.042,0.024l-0.043,0.024l-0.043,0.023l-0.044,0.022l-0.043,0.021l-0.045,0.021l-0.044,0.02l-0.045,0.02l-0.045,0.018l-0.046,0.018l-0.045,0.017l-0.046,0.017l-0.047,0.015l-0.046,0.015l-0.047,0.014l-0.047,0.013l-0.047,0.013l-0.047,0.012l-0.048,0.011l-0.048,0.01l-0.048,0.01l-0.048,0.008l-0.048,0.008l-0.048,0.007l-0.049,0.007l-0.048,0.005l-0.049,0.005l-0.048,0.004l-0.049,0.003l-0.049,0.003l-0.049,0.001l-0.049,0.001l-0.048,0l-0.049,-0.001l-0.049,-0.001l-0.049,-0.003l-0.049,-0.003l-0.048,-0.004l-0.049,-0.005l-0.048,-0.005l-0.049,-0.007l-0.048,-0.007l-0.048,-0.008l-0.048,-0.008l-0.048,-0.01l-0.048,-0.01l-0.048,-0.011l-0.047,-0.012l-0.047,-0.013l-0.047,-0.013l-0.047,-0.014l-0.046,-0.015l-0.047,-0.015l-0.046,-0.017l-0.045,-0.017l-0.046,-0.018l-0.045,-0.018l-0.045,-0.02l-0.044,-0.02l-0.045,-0.021l-0.043,-0.021l-0.044,-0.022l-0.043,-0.023l-0.043,-0.024l-0.042,-0.024l-0.042,-0.025l-0.042,-0.026l-0.041,-0.026l-0.04,-0.027l-0.041,-0.028l-0.039,-0.028l-0.04,-0.029l-0.039,-0.03l-0.038,-0.03l-0.038,-0.031l-0.037,-0.031l-0.037,-0.032l-0.036,-0.033l-0.036,-0.033l-0.035,-0.034l-0.035,-0.034l-0.034,-0.035l-0.034,-0.036l-0.033,-0.036l-0.032,-0.036l-0.032,-0.037l-0.031,-0.038l-0.03,-0.038l-0.03,-0.039l-0.03,-0.039l-0.028,-0.039l-0.028,-0.04l-0.027,-0.041l-0.027,-0.041l-0.026,-0.041l-0.025,-0.042l-0.025,-0.042l-0.024,-0.043l-0.023,-0.043l-0.023,-0.043l-0.022,-0.044l-0.021,-0.044l-0.02,-0.044l-0.02,-0.045l-0.019,-0.045l-0.018,-0.045l-0.018,-0.045l-0.016,-0.046l-0.016,-0.046l-0.016,-0.047l-0.014,-0.047l-0.014,-0.046l-0.013,-0.047l-0.012,-0.048l-0.011,-0.047l-0.011,-0.048l-0.01,-0.048l-0.009,-0.048l-0.008,-0.048l-0.008,-0.048l-0.007,-0.048l-0.006,-0.049l-0.005,-0.048l-0.004,-0.049l-0.004,-0.049l-0.002,-0.049l-0.002,-0.048l-0.002,-0.049l0,-0.049l0,-2l0,-0.049l0.002,-0.049l0.002,-0.048l0.002,-0.049l0.004,-0.049l0.004,-0.049l0.005,-0.048l0.006,-0.049l0.007,-0.048l0.008,-0.048l0.008,-0.048l0.009,-0.048l0.01,-0.048l0.011,-0.048l0.011,-0.047l0.012,-0.048l0.013,-0.047l0.014,-0.046l0.014,-0.047l0.016,-0.047l0.016,-0.046l0.016,-0.046l0.018,-0.045l0.018,-0.045l0.019,-0.045l0.02,-0.045l0.02,-0.044l0.021,-0.044l0.022,-0.044l0.023,-0.043l0.023,-0.043l0.024,-0.043l0.025,-0.042l0.025,-0.042l0.026,-0.041l0.027,-0.041l0.027,-0.041l0.028,-0.04l0.028,-0.039l0.03,-0.039l0.03,-0.039l0.03,-0.038l0.031,-0.038l0.032,-0.037l0.032,-0.036l0.033,-0.036l0.034,-0.036l0.034,-0.035l0.035,-0.034l0.035,-0.034l0.036,-0.033l0.036,-0.033l0.037,-0.032l0.037,-0.031l0.038,-0.031l0.038,-0.03l0.039,-0.03l0.04,-0.029l0.039,-0.028l0.041,-0.028l0.04,-0.027l0.041,-0.026l0.042,-0.026l0.042,-0.025l0.042,-0.024l0.043,-0.024l0.043,-0.023l0.044,-0.022l0.043,-0.021l0.045,-0.021l0.044,-0.02l0.045,-0.02l0.045,-0.018l0.046,-0.018l0.045,-0.017l0.046,-0.017l0.047,-0.015l0.046,-0.015l0.047,-0.014l0.047,-0.013l0.047,-0.013l0.047,-0.012l0.048,-0.011l0.048,-0.01l0.048,-0.01l0.048,-0.008l0.048,-0.008l0.048,-0.007l0.049,-0.007l0.048,-0.005l0.049,-0.005l0.048,-0.004l0.049,-0.003l0.049,-0.003l0.049,-0.001l0.049,-0.001l0.048,0l0.049,0.001Z"/>
            <path d="M27.037,2l0.048,0.001l0.049,0.002l0.049,0.003l0.049,0.003l0.048,0.004l0.049,0.005l0.048,0.006l0.049,0.006l0.048,0.008l0.048,0.008l0.048,0.009l0.048,0.009l0.048,0.011l0.047,0.011l0.048,0.012l0.047,0.013l0.047,0.013l0.046,0.015l0.047,0.015l0.046,0.016l0.046,0.016l0.046,0.017l0.045,0.018l0.045,0.019l0.045,0.02l0.044,0.02l0.045,0.021l0.043,0.022l0.044,0.022l0.043,0.023l0.042,0.024l0.043,0.024l0.041,0.025l0.042,0.026l0.041,0.027l0.04,0.027l0.041,0.028l0.039,0.028l0.039,0.029l0.039,0.03l0.038,0.031l0.038,0.031l0.037,0.031l0.037,0.032l0.036,0.033l0.036,0.034l0.035,0.033l0.035,0.035l0.033,0.035l0.034,0.036l0.033,0.036l0.032,0.037l0.031,0.037l0.031,0.038l0.031,0.038l0.03,0.039l0.029,0.039l0.028,0.039l0.028,0.041l0.027,0.04l0.027,0.041l0.026,0.042l0.025,0.041l0.024,0.043l0.024,0.042l0.023,0.043l0.022,0.044l0.022,0.043l0.021,0.045l0.02,0.044l0.02,0.045l0.019,0.045l0.018,0.045l0.017,0.046l0.016,0.046l0.016,0.046l0.015,0.047l0.015,0.046l0.013,0.047l0.013,0.047l0.012,0.048l0.011,0.047l0.011,0.048l0.009,0.048l0.009,0.048l0.008,0.048l0.008,0.048l0.006,0.049l0.006,0.048l0.005,0.049l0.004,0.048l0.003,0.049l0.003,0.049l0.002,0.049l0.001,0.048l0,0.049l-0.001,0.049l-0.001,0.049l-0.002,0.049l-0.003,0.048l-0.004,0.049l-0.005,0.049l-0.005,0.048l-0.006,0.049l-0.007,0.048l-0.008,0.048l-0.008,0.048l-0.009,0.048l-0.011,0.048l-0.01,0.048l-0.012,0.047l-0.012,0.047l-0.013,0.047l-0.014,0.047l-0.015,0.047l-0.016,0.046l-0.016,0.046l-0.017,0.046l-0.017,0.045l-0.019,0.046l-0.019,0.045l-0.02,0.044l-0.02,0.044l-0.022,0.044l-0.022,0.044l-0.022,0.043l-0.024,0.043l-0.024,0.043l-0.025,0.042l-0.025,0.041l-0.026,0.041l-0.027,0.041l-0.028,0.041l-0.028,0.039l-0.029,0.04l-0.029,0.039l-0.03,0.038l-0.031,0.038l-0.031,0.038l-0.032,0.037l-0.033,0.036l-0.033,0.036l-0.033,0.036l-0.035,0.034l-2,2l-0.034,0.035l-0.036,0.033l-0.036,0.033l-0.036,0.033l-0.037,0.032l-0.038,0.031l-0.038,0.031l-0.038,0.03l-0.039,0.029l-0.04,0.029l-0.039,0.028l-0.041,0.028l-0.041,0.027l-0.041,0.026l-0.041,0.025l-0.042,0.025l-0.043,0.024l-0.043,0.024l-0.043,0.022l-0.044,0.022l-0.044,0.022l-0.044,0.02l-0.044,0.02l-0.045,0.019l-0.046,0.019l-0.045,0.017l-0.046,0.017l-0.046,0.016l-0.046,0.016l-0.047,0.015l-0.047,0.014l-0.047,0.013l-0.047,0.012l-0.047,0.012l-0.048,0.01l-0.048,0.011l-0.048,0.009l-0.048,0.008l-0.048,0.008l-0.048,0.007l-0.049,0.006l-0.048,0.005l-0.049,0.005l-0.049,0.004l-0.048,0.003l-0.049,0.002l-0.049,0.001l-0.049,0.001l-0.049,0l-0.048,-0.001l-0.049,-0.002l-0.049,-0.003l-0.049,-0.003l-0.048,-0.004l-0.049,-0.005l-0.048,-0.006l-0.049,-0.006l-0.048,-0.008l-0.048,-0.008l-0.048,-0.009l-0.048,-0.009l-0.048,-0.011l-0.047,-0.011l-0.048,-0.012l-0.047,-0.013l-0.047,-0.013l-0.046,-0.015l-0.047,-0.015l-0.046,-0.016l-0.046,-0.016l-0.046,-0.017l-0.045,-0.018l-0.045,-0.019l-0.045,-0.02l-0.044,-0.02l-0.045,-0.021l-0.043,-0.022l-0.044,-0.022l-0.043,-0.023l-0.042,-0.024l-0.043,-0.024l-0.041,-0.025l-0.042,-0.026l-0.041,-0.027l-0.04,-0.027l-0.041,-0.028l-0.039,-0.028l-0.039,-0.029l-0.039,-0.03l-0.038,-0.031l-0.038,-0.031l-0.037,-0.031l-0.037,-0.032l-0.036,-0.033l-0.036,-0.034l-0.035,-0.033l-0.035,-0.035l-0.033,-0.035l-0.034,-0.036l-0.033,-0.036l-0.032,-0.037l-0.031,-0.037l-0.031,-0.038l-0.031,-0.038l-0.03,-0.039l-0.029,-0.039l-0.028,-0.039l-0.028,-0.041l-0.027,-0.04l-0.027,-0.041l-0.026,-0.042l-0.025,-0.041l-0.024,-0.043l-0.024,-0.042l-0.023,-0.043l-0.022,-0.044l-0.022,-0.043l-0.021,-0.045l-0.02,-0.044l-0.02,-0.045l-0.019,-0.045l-0.018,-0.045l-0.017,-0.046l-0.016,-0.046l-0.016,-0.046l-0.015,-0.047l-0.015,-0.046l-0.013,-0.047l-0.013,-0.047l-0.012,-0.048l-0.011,-0.047l-0.011,-0.048l-0.009,-0.048l-0.009,-0.048l-0.008,-0.048l-0.008,-0.048l-0.006,-0.049l-0.006,-0.048l-0.005,-0.049l-0.004,-0.048l-0.003,-0.049l-0.003,-0.049l-0.002,-0.049l-0.001,-0.048l0,-0.049l0.001,-0.049l0.001,-0.049l0.002,-0.049l0.003,-0.048l0.004,-0.049l0.005,-0.049l0.005,-0.048l0.006,-0.049l0.007,-0.048l0.008,-0.048l0.008,-0.048l0.009,-0.048l0.011,-0.048l0.01,-0.048l0.012,-0.047l0.012,-0.047l0.013,-0.047l0.014,-0.047l0.015,-0.047l0.016,-0.046l0.016,-0.046l0.017,-0.046l0.017,-0.045l0.019,-0.046l0.019,-0.045l0.02,-0.044l0.02,-0.044l0.022,-0.044l0.022,-0.044l0.022,-0.043l0.024,-0.043l0.024,-0.043l0.025,-0.042l0.025,-0.041l0.026,-0.041l0.027,-0.041l0.028,-0.041l0.028,-0.039l0.029,-0.04l0.029,-0.039l0.03,-0.038l0.031,-0.038l0.031,-0.038l0.032,-0.037l0.033,-0.036l0.033,-0.036l0.033,-0.036l0.035,-0.034l2,-2l0.034,-0.035l0.036,-0.033l0.036,-0.033l0.036,-0.033l0.037,-0.032l0.038,-0.031l0.038,-0.031l0.038,-0.03l0.039,-0.029l0.04,-0.029l0.039,-0.028l0.041,-0.028l0.041,-0.027l0.041,-0.026l0.041,-0.025l0.042,-0.025l0.043,-0.024l0.043,-0.024l0.043,-0.022l0.044,-0.022l0.044,-0.022l0.044,-0.02l0.044,-0.02l0.045,-0.019l0.046,-0.019l0.045,-0.017l0.046,-0.017l0.046,-0.016l0.046,-0.016l0.047,-0.015l0.047,-0.014l0.047,-0.013l0.047,-0.012l0.047,-0.012l0.048,-0.01l0.048,-0.011l0.048,-0.009l0.048,-0.008l0.048,-0.008l0.048,-0.007l0.049,-0.006l0.048,-0.005l0.049,-0.005l0.049,-0.004l0.048,-0.003l0.049,-0.002l0.049,-0.001l0.049,-0.001l0.049,0Z"/>
            <path d="M29.049,7l0.049,0.002l0.048,0.002l0.049,0.002l0.049,0.004l0.049,0.004l0.048,0.005l0.049,0.006l0.048,0.007l0.048,0.008l0.048,0.008l0.048,0.009l0.048,0.01l0.048,0.011l0.047,0.011l0.048,0.012l0.047,0.013l0.046,0.014l0.047,0.014l0.047,0.016l0.046,0.016l0.046,0.016l0.045,0.018l0.045,0.018l0.045,0.019l0.045,0.02l0.044,0.02l0.044,0.021l0.044,0.022l0.043,0.023l0.043,0.023l0.043,0.024l0.042,0.025l0.042,0.025l0.041,0.026l0.041,0.027l0.041,0.027l0.04,0.028l0.039,0.028l0.039,0.03l0.039,0.03l0.038,0.03l0.038,0.031l0.037,0.032l0.036,0.032l0.036,0.033l0.036,0.034l0.035,0.034l0.034,0.035l0.034,0.035l0.033,0.036l0.033,0.036l0.032,0.037l0.031,0.037l0.031,0.038l0.03,0.038l0.03,0.039l0.029,0.04l0.028,0.039l0.028,0.041l0.027,0.04l0.026,0.041l0.026,0.042l0.025,0.042l0.024,0.042l0.024,0.043l0.023,0.043l0.022,0.044l0.021,0.043l0.021,0.045l0.02,0.044l0.02,0.045l0.018,0.045l0.018,0.046l0.017,0.045l0.017,0.046l0.015,0.047l0.015,0.046l0.014,0.047l0.013,0.047l0.013,0.047l0.012,0.047l0.011,0.048l0.01,0.048l0.01,0.048l0.008,0.048l0.008,0.048l0.007,0.048l0.007,0.049l0.005,0.048l0.005,0.049l0.004,0.048l0.003,0.049l0.003,0.049l0.001,0.049l0.001,0.049l0,0.048l-0.001,0.049l-0.001,0.049l-0.003,0.049l-0.003,0.049l-0.004,0.048l-0.005,0.049l-0.005,0.048l-0.007,0.049l-0.007,0.048l-0.008,0.048l-0.008,0.048l-0.01,0.048l-0.01,0.048l-0.011,0.048l-0.012,0.047l-0.013,0.047l-0.013,0.047l-0.014,0.047l-0.015,0.046l-0.015,0.047l-0.017,0.046l-0.017,0.045l-0.018,0.046l-0.018,0.045l-0.02,0.045l-0.02,0.044l-0.021,0.045l-0.021,0.043l-0.022,0.044l-0.023,0.043l-0.024,0.043l-0.024,0.042l-0.025,0.042l-0.026,0.042l-0.026,0.041l-0.027,0.04l-0.028,0.041l-0.028,0.039l-0.029,0.04l-0.03,0.039l-0.03,0.038l-0.031,0.038l-0.031,0.037l-0.032,0.037l-0.033,0.036l-0.033,0.036l-0.034,0.035l-0.034,0.035l-0.035,0.034l-0.036,0.034l-0.036,0.033l-0.036,0.032l-0.037,0.032l-0.038,0.031l-0.038,0.03l-0.039,0.03l-0.039,0.03l-0.039,0.028l-0.04,0.028l-0.041,0.027l-0.041,0.027l-0.041,0.026l-0.042,0.025l-0.042,0.025l-0.043,0.024l-0.043,0.023l-0.043,0.023l-0.044,0.022l-0.044,0.021l-0.044,0.02l-0.045,0.02l-0.045,0.019l-0.045,0.018l-0.045,0.018l-0.046,0.016l-0.046,0.016l-0.047,0.016l-0.047,0.014l-0.046,0.014l-0.047,0.013l-0.048,0.012l-0.047,0.011l-0.048,0.011l-0.048,0.01l-0.048,0.009l-0.048,0.008l-0.048,0.008l-0.048,0.007l-0.049,0.006l-0.048,0.005l-0.049,0.004l-0.049,0.004l-0.049,0.002l-0.048,0.002l-0.049,0.002l-0.049,0l-2,0l-0.049,0l-0.049,-0.002l-0.048,-0.002l-0.049,-0.002l-0.049,-0.004l-0.049,-0.004l-0.048,-0.005l-0.049,-0.006l-0.048,-0.007l-0.048,-0.008l-0.048,-0.008l-0.048,-0.009l-0.048,-0.01l-0.048,-0.011l-0.047,-0.011l-0.048,-0.012l-0.047,-0.013l-0.046,-0.014l-0.047,-0.014l-0.047,-0.016l-0.046,-0.016l-0.046,-0.016l-0.045,-0.018l-0.045,-0.018l-0.045,-0.019l-0.045,-0.02l-0.044,-0.02l-0.044,-0.021l-0.044,-0.022l-0.043,-0.023l-0.043,-0.023l-0.043,-0.024l-0.042,-0.025l-0.042,-0.025l-0.041,-0.026l-0.041,-0.027l-0.041,-0.027l-0.04,-0.028l-0.039,-0.028l-0.039,-0.03l-0.039,-0.03l-0.038,-0.03l-0.038,-0.031l-0.037,-0.032l-0.036,-0.032l-0.036,-0.033l-0.036,-0.034l-0.035,-0.034l-0.034,-0.035l-0.034,-0.035l-0.033,-0.036l-0.033,-0.036l-0.032,-0.037l-0.031,-0.037l-0.031,-0.038l-0.03,-0.038l-0.03,-0.039l-0.029,-0.04l-0.028,-0.039l-0.028,-0.041l-0.027,-0.04l-0.026,-0.041l-0.026,-0.042l-0.025,-0.042l-0.024,-0.042l-0.024,-0.043l-0.023,-0.043l-0.022,-0.044l-0.021,-0.043l-0.021,-0.045l-0.02,-0.044l-0.02,-0.045l-0.018,-0.045l-0.018,-0.046l-0.017,-0.045l-0.017,-0.046l-0.015,-0.047l-0.015,-0.046l-0.014,-0.047l-0.013,-0.047l-0.013,-0.047l-0.012,-0.047l-0.011,-0.048l-0.01,-0.048l-0.01,-0.048l-0.008,-0.048l-0.008,-0.048l-0.007,-0.048l-0.007,-0.049l-0.005,-0.048l-0.005,-0.049l-0.004,-0.048l-0.003,-0.049l-0.003,-0.049l-0.001,-0.049l-0.001,-0.049l0,-0.048l0.001,-0.049l0.001,-0.049l0.003,-0.049l0.003,-0.049l0.004,-0.048l0.005,-0.049l0.005,-0.048l0.007,-0.049l0.007,-0.048l0.008,-0.048l0.008,-0.048l0.01,-0.048l0.01,-0.048l0.011,-0.048l0.012,-0.047l0.013,-0.047l0.013,-0.047l0.014,-0.047l0.015,-0.046l0.015,-0.047l0.017,-0.046l0.017,-0.045l0.018,-0.046l0.018,-0.045l0.02,-0.045l0.02,-0.044l0.021,-0.045l0.021,-0.043l0.022,-0.044l0.023,-0.043l0.024,-0.043l0.024,-0.042l0.025,-0.042l0.026,-0.042l0.026,-0.041l0.027,-0.04l0.028,-0.041l0.028,-0.039l0.029,-0.04l0.03,-0.039l0.03,-0.038l0.031,-0.038l0.031,-0.037l0.032,-0.037l0.033,-0.036l0.033,-0.036l0.034,-0.035l0.034,-0.035l0.035,-0.034l0.036,-0.034l0.036,-0.033l0.036,-0.032l0.037,-0.032l0.038,-0.031l0.038,-0.03l0.039,-0.03l0.039,-0.03l0.039,-0.028l0.04,-0.028l0.041,-0.027l0.041,-0.027l0.041,-0.026l0.042,-0.025l0.042,-0.025l0.043,-0.024l0.043,-0.023l0.043,-0.023l0.044,-0.022l0.044,-0.021l0.044,-0.02l0.045,-0.02l0.045,-0.019l0.045,-0.018l0.045,-0.018l0.046,-0.016l0.046,-0.016l0.047,-0.016l0.047,-0.014l0.046,-0.014l0.047,-0.013l0.048,-0.012l0.047,-0.011l0.048,-0.011l0.048,-0.01l0.048,-0.009l0.048,-0.008l0.048,-0.008l0.048,-0.007l0.049,-0.006l0.048,-0.005l0.049,-0.004l0.049,-0.004l0.049,-0.002l0.048,-0.002l0.049,-0.002l0.049,0l2,0l0.049,0Z"/>
            <path d="M10.073,24.001l0.049,0.001l0.049,0.003l0.049,0.003l0.048,0.004l0.049,0.005l0.048,0.005l0.049,0.007l0.048,0.007l0.048,0.008l0.048,0.008l0.048,0.01l0.048,0.01l0.048,0.011l0.047,0.012l0.047,0.013l0.047,0.013l0.047,0.014l0.046,0.015l0.047,0.015l0.046,0.017l0.045,0.017l0.046,0.018l0.045,0.018l0.045,0.02l0.044,0.02l0.045,0.021l0.043,0.021l0.044,0.022l0.043,0.023l0.043,0.024l0.042,0.024l0.042,0.025l0.042,0.026l0.041,0.026l0.04,0.027l0.041,0.028l0.039,0.028l0.04,0.029l0.039,0.03l0.038,0.03l0.038,0.031l0.037,0.031l0.037,0.032l0.036,0.033l0.036,0.033l0.035,0.034l0.035,0.034l0.034,0.035l0.034,0.036l0.033,0.036l0.032,0.036l0.032,0.037l0.031,0.038l0.03,0.038l0.03,0.039l0.03,0.039l0.028,0.039l0.028,0.04l0.027,0.041l0.027,0.041l0.026,0.041l0.025,0.042l0.025,0.042l0.024,0.043l0.023,0.043l0.023,0.043l0.022,0.044l0.021,0.044l0.02,0.044l0.02,0.045l0.019,0.045l0.018,0.045l0.018,0.045l0.016,0.046l0.016,0.046l0.016,0.047l0.014,0.047l0.014,0.046l0.013,0.047l0.012,0.048l0.011,0.047l0.011,0.048l0.01,0.048l0.009,0.048l0.008,0.048l0.008,0.048l0.007,0.048l0.006,0.049l0.005,0.048l0.004,0.049l0.004,0.049l0.002,0.049l0.002,0.048l0.002,0.049l0,0.049l0,2l0,0.049l-0.002,0.049l-0.002,0.048l-0.002,0.049l-0.004,0.049l-0.004,0.049l-0.005,0.048l-0.006,0.049l-0.007,0.048l-0.008,0.048l-0.008,0.048l-0.009,0.048l-0.01,0.048l-0.011,0.048l-0.011,0.047l-0.012,0.048l-0.013,0.047l-0.014,0.046l-0.014,0.047l-0.016,0.047l-0.016,0.046l-0.016,0.046l-0.018,0.045l-0.018,0.045l-0.019,0.045l-0.02,0.045l-0.02,0.044l-0.021,0.044l-0.022,0.044l-0.023,0.043l-0.023,0.043l-0.024,0.043l-0.025,0.042l-0.025,0.042l-0.026,0.041l-0.027,0.041l-0.027,0.041l-0.028,0.04l-0.028,0.039l-0.03,0.039l-0.03,0.039l-0.03,0.038l-0.031,0.038l-0.032,0.037l-0.032,0.036l-0.033,0.036l-0.034,0.036l-0.034,0.035l-0.035,0.034l-0.035,0.034l-0.036,0.033l-0.036,0.033l-0.037,0.032l-0.037,0.031l-0.038,0.031l-0.038,0.03l-0.039,0.03l-0.04,0.029l-0.039,0.028l-0.041,0.028l-0.04,0.027l-0.041,0.026l-0.042,0.026l-0.042,0.025l-0.042,0.024l-0.043,0.024l-0.043,0.023l-0.044,0.022l-0.043,0.021l-0.045,0.021l-0.044,0.02l-0.045,0.02l-0.045,0.018l-0.046,0.018l-0.045,0.017l-0.046,0.017l-0.047,0.015l-0.046,0.015l-0.047,0.014l-0.047,0.013l-0.047,0.013l-0.047,0.012l-0.048,0.011l-0.048,0.01l-0.048,0.01l-0.048,0.008l-0.048,0.008l-0.048,0.007l-0.049,0.007l-0.048,0.005l-0.049,0.005l-0.048,0.004l-0.049,0.003l-0.049,0.003l-0.049,0.001l-0.049,0.001l-0.048,0l-0.049,-0.001l-0.049,-0.001l-0.049,-0.003l-0.049,-0.003l-0.048,-0.004l-0.049,-0.005l-0.048,-0.005l-0.049,-0.007l-0.048,-0.007l-0.048,-0.008l-0.048,-0.008l-0.048,-0.01l-0.048,-0.01l-0.048,-0.011l-0.047,-0.012l-0.047,-0.013l-0.047,-0.013l-0.047,-0.014l-0.046,-0.015l-0.047,-0.015l-0.046,-0.017l-0.045,-0.017l-0.046,-0.018l-0.045,-0.018l-0.045,-0.02l-0.044,-0.02l-0.045,-0.021l-0.043,-0.021l-0.044,-0.022l-0.043,-0.023l-0.043,-0.024l-0.042,-0.024l-0.042,-0.025l-0.042,-0.026l-0.041,-0.026l-0.04,-0.027l-0.041,-0.028l-0.039,-0.028l-0.04,-0.029l-0.039,-0.03l-0.038,-0.03l-0.038,-0.031l-0.037,-0.031l-0.037,-0.032l-0.036,-0.033l-0.036,-0.033l-0.035,-0.034l-0.035,-0.034l-0.034,-0.035l-0.034,-0.036l-0.033,-0.036l-0.032,-0.036l-0.032,-0.037l-0.031,-0.038l-0.03,-0.038l-0.03,-0.039l-0.03,-0.039l-0.028,-0.039l-0.028,-0.04l-0.027,-0.041l-0.027,-0.041l-0.026,-0.041l-0.025,-0.042l-0.025,-0.042l-0.024,-0.043l-0.023,-0.043l-0.023,-0.043l-0.022,-0.044l-0.021,-0.044l-0.02,-0.044l-0.02,-0.045l-0.019,-0.045l-0.018,-0.045l-0.018,-0.045l-0.016,-0.046l-0.016,-0.046l-0.016,-0.047l-0.014,-0.047l-0.014,-0.046l-0.013,-0.047l-0.012,-0.048l-0.011,-0.047l-0.011,-0.048l-0.01,-0.048l-0.009,-0.048l-0.008,-0.048l-0.008,-0.048l-0.007,-0.048l-0.006,-0.049l-0.005,-0.048l-0.004,-0.049l-0.004,-0.049l-0.002,-0.049l-0.002,-0.048l-0.002,-0.049l0,-0.049l0,-2l0,-0.049l0.002,-0.049l0.002,-0.048l0.002,-0.049l0.004,-0.049l0.004,-0.049l0.005,-0.048l0.006,-0.049l0.007,-0.048l0.008,-0.048l0.008,-0.048l0.009,-0.048l0.01,-0.048l0.011,-0.048l0.011,-0.047l0.012,-0.048l0.013,-0.047l0.014,-0.046l0.014,-0.047l0.016,-0.047l0.016,-0.046l0.016,-0.046l0.018,-0.045l0.018,-0.045l0.019,-0.045l0.02,-0.045l0.02,-0.044l0.021,-0.044l0.022,-0.044l0.023,-0.043l0.023,-0.043l0.024,-0.043l0.025,-0.042l0.025,-0.042l0.026,-0.041l0.027,-0.041l0.027,-0.041l0.028,-0.04l0.028,-0.039l0.03,-0.039l0.03,-0.039l0.03,-0.038l0.031,-0.038l0.032,-0.037l0.032,-0.036l0.033,-0.036l0.034,-0.036l0.034,-0.035l0.035,-0.034l0.035,-0.034l0.036,-0.033l0.036,-0.033l0.037,-0.032l0.037,-0.031l0.038,-0.031l0.038,-0.03l0.039,-0.03l0.04,-0.029l0.039,-0.028l0.041,-0.028l0.04,-0.027l0.041,-0.026l0.042,-0.026l0.042,-0.025l0.042,-0.024l0.043,-0.024l0.043,-0.023l0.044,-0.022l0.043,-0.021l0.045,-0.021l0.044,-0.02l0.045,-0.02l0.045,-0.018l0.046,-0.018l0.045,-0.017l0.046,-0.017l0.047,-0.015l0.046,-0.015l0.047,-0.014l0.047,-0.013l0.047,-0.013l0.047,-0.012l0.048,-0.011l0.048,-0.01l0.048,-0.01l0.048,-0.008l0.048,-0.008l0.048,-0.007l0.049,-0.007l0.048,-0.005l0.049,-0.005l0.048,-0.004l0.049,-0.003l0.049,-0.003l0.049,-0.001l0.049,-0.001l0.048,0l0.049,0.001Z"/>
            <path d="M7.037,22l0.048,0.001l0.049,0.002l0.049,0.003l0.049,0.003l0.048,0.004l0.049,0.005l0.048,0.006l0.049,0.006l0.048,0.008l0.048,0.008l0.048,0.009l0.048,0.009l0.048,0.011l0.047,0.011l0.048,0.012l0.047,0.013l0.047,0.013l0.046,0.015l0.047,0.015l0.046,0.016l0.046,0.016l0.046,0.017l0.045,0.018l0.045,0.019l0.045,0.02l0.044,0.02l0.045,0.021l0.043,0.022l0.044,0.022l0.043,0.023l0.042,0.024l0.043,0.024l0.041,0.025l0.042,0.026l0.041,0.027l0.04,0.027l0.041,0.028l0.039,0.028l0.039,0.029l0.039,0.03l0.038,0.031l0.038,0.031l0.037,0.031l0.037,0.032l0.036,0.033l0.036,0.034l0.035,0.033l0.035,0.035l0.033,0.035l0.034,0.036l0.033,0.036l0.032,0.037l0.031,0.037l0.031,0.038l0.031,0.038l0.03,0.039l0.029,0.039l0.028,0.039l0.028,0.041l0.027,0.04l0.027,0.041l0.026,0.042l0.025,0.041l0.024,0.043l0.024,0.042l0.023,0.043l0.022,0.044l0.022,0.043l0.021,0.045l0.02,0.044l0.02,0.045l0.019,0.045l0.018,0.045l0.017,0.046l0.016,0.046l0.016,0.046l0.015,0.047l0.015,0.046l0.013,0.047l0.013,0.047l0.012,0.048l0.011,0.047l0.011,0.048l0.009,0.048l0.009,0.048l0.008,0.048l0.008,0.048l0.006,0.049l0.006,0.048l0.005,0.049l0.004,0.048l0.003,0.049l0.003,0.049l0.002,0.049l0.001,0.048l0,0.049l-0.001,0.049l-0.001,0.049l-0.002,0.049l-0.003,0.048l-0.004,0.049l-0.005,0.049l-0.005,0.048l-0.006,0.049l-0.007,0.048l-0.008,0.048l-0.008,0.048l-0.009,0.048l-0.011,0.048l-0.01,0.048l-0.012,0.047l-0.012,0.047l-0.013,0.047l-0.014,0.047l-0.015,0.047l-0.016,0.046l-0.016,0.046l-0.017,0.046l-0.017,0.045l-0.019,0.046l-0.019,0.045l-0.02,0.044l-0.02,0.044l-0.022,0.044l-0.022,0.044l-0.022,0.043l-0.024,0.043l-0.024,0.043l-0.025,0.042l-0.025,0.041l-0.026,0.041l-0.027,0.041l-0.028,0.041l-0.028,0.039l-0.029,0.04l-0.029,0.039l-0.03,0.038l-0.031,0.038l-0.031,0.038l-0.032,0.037l-0.033,0.036l-0.033,0.036l-0.033,0.036l-0.035,0.034l-2,2l-0.034,0.035l-0.036,0.033l-0.036,0.033l-0.036,0.033l-0.037,0.032l-0.038,0.031l-0.038,0.031l-0.038,0.03l-0.039,0.029l-0.04,0.029l-0.039,0.028l-0.041,0.028l-0.041,0.027l-0.041,0.026l-0.041,0.025l-0.042,0.025l-0.043,0.024l-0.043,0.024l-0.043,0.022l-0.044,0.022l-0.044,0.022l-0.044,0.02l-0.044,0.02l-0.045,0.019l-0.046,0.019l-0.045,0.017l-0.046,0.017l-0.046,0.016l-0.046,0.016l-0.047,0.015l-0.047,0.014l-0.047,0.013l-0.047,0.012l-0.047,0.012l-0.048,0.01l-0.048,0.011l-0.048,0.009l-0.048,0.008l-0.048,0.008l-0.048,0.007l-0.049,0.006l-0.048,0.005l-0.049,0.005l-0.049,0.004l-0.048,0.003l-0.049,0.002l-0.049,0.001l-0.049,0.001l-0.049,0l-0.048,-0.001l-0.049,-0.002l-0.049,-0.003l-0.049,-0.003l-0.048,-0.004l-0.049,-0.005l-0.048,-0.006l-0.049,-0.006l-0.048,-0.008l-0.048,-0.008l-0.048,-0.009l-0.048,-0.009l-0.048,-0.011l-0.047,-0.011l-0.048,-0.012l-0.047,-0.013l-0.047,-0.013l-0.046,-0.015l-0.047,-0.015l-0.046,-0.016l-0.046,-0.016l-0.046,-0.017l-0.045,-0.018l-0.045,-0.019l-0.045,-0.02l-0.044,-0.02l-0.045,-0.021l-0.043,-0.022l-0.044,-0.022l-0.043,-0.023l-0.042,-0.024l-0.043,-0.024l-0.041,-0.025l-0.042,-0.026l-0.041,-0.027l-0.04,-0.027l-0.041,-0.028l-0.039,-0.028l-0.039,-0.029l-0.039,-0.03l-0.038,-0.031l-0.038,-0.031l-0.037,-0.031l-0.037,-0.032l-0.036,-0.033l-0.036,-0.034l-0.035,-0.033l-0.035,-0.035l-0.033,-0.035l-0.034,-0.036l-0.033,-0.036l-0.032,-0.037l-0.031,-0.037l-0.031,-0.038l-0.031,-0.038l-0.03,-0.039l-0.029,-0.039l-0.028,-0.039l-0.028,-0.041l-0.027,-0.04l-0.027,-0.041l-0.026,-0.042l-0.025,-0.041l-0.024,-0.043l-0.024,-0.042l-0.023,-0.043l-0.022,-0.044l-0.022,-0.043l-0.021,-0.045l-0.02,-0.044l-0.02,-0.045l-0.019,-0.045l-0.018,-0.045l-0.017,-0.046l-0.016,-0.046l-0.016,-0.046l-0.015,-0.047l-0.015,-0.046l-0.013,-0.047l-0.013,-0.047l-0.012,-0.048l-0.011,-0.047l-0.011,-0.048l-0.009,-0.048l-0.009,-0.048l-0.008,-0.048l-0.008,-0.048l-0.006,-0.049l-0.006,-0.048l-0.005,-0.049l-0.004,-0.048l-0.003,-0.049l-0.003,-0.049l-0.002,-0.049l-0.001,-0.048l0,-0.049l0.001,-0.049l0.001,-0.049l0.002,-0.049l0.003,-0.048l0.004,-0.049l0.005,-0.049l0.005,-0.048l0.006,-0.049l0.007,-0.048l0.008,-0.048l0.008,-0.048l0.009,-0.048l0.011,-0.048l0.01,-0.048l0.012,-0.047l0.012,-0.047l0.013,-0.047l0.014,-0.047l0.015,-0.047l0.016,-0.046l0.016,-0.046l0.017,-0.046l0.017,-0.045l0.019,-0.046l0.019,-0.045l0.02,-0.044l0.02,-0.044l0.022,-0.044l0.022,-0.044l0.022,-0.043l0.024,-0.043l0.024,-0.043l0.025,-0.042l0.025,-0.041l0.026,-0.041l0.027,-0.041l0.028,-0.041l0.028,-0.039l0.029,-0.04l0.029,-0.039l0.03,-0.038l0.031,-0.038l0.031,-0.038l0.032,-0.037l0.033,-0.036l0.033,-0.036l0.033,-0.036l0.035,-0.034l2,-2l0.034,-0.035l0.036,-0.033l0.036,-0.033l0.036,-0.033l0.037,-0.032l0.038,-0.031l0.038,-0.031l0.038,-0.03l0.039,-0.029l0.04,-0.029l0.039,-0.028l0.041,-0.028l0.041,-0.027l0.041,-0.026l0.041,-0.025l0.042,-0.025l0.043,-0.024l0.043,-0.024l0.043,-0.022l0.044,-0.022l0.044,-0.022l0.044,-0.02l0.044,-0.02l0.045,-0.019l0.046,-0.019l0.045,-0.017l0.046,-0.017l0.046,-0.016l0.046,-0.016l0.047,-0.015l0.047,-0.014l0.047,-0.013l0.047,-0.012l0.047,-0.012l0.048,-0.01l0.048,-0.011l0.048,-0.009l0.048,-0.008l0.048,-0.008l0.048,-0.007l0.049,-0.006l0.048,-0.005l0.049,-0.005l0.049,-0.004l0.048,-0.003l0.049,-0.002l0.049,-0.001l0.049,-0.001l0.049,0Z"/>
            <path d="M5.049,19l0.049,0.002l0.048,0.002l0.049,0.002l0.049,0.004l0.049,0.004l0.048,0.005l0.049,0.006l0.048,0.007l0.048,0.008l0.048,0.008l0.048,0.009l0.048,0.01l0.048,0.011l0.047,0.011l0.048,0.012l0.047,0.013l0.046,0.014l0.047,0.014l0.047,0.016l0.046,0.016l0.046,0.016l0.045,0.018l0.045,0.018l0.045,0.019l0.045,0.02l0.044,0.02l0.044,0.021l0.044,0.022l0.043,0.023l0.043,0.023l0.043,0.024l0.042,0.025l0.042,0.025l0.041,0.026l0.041,0.027l0.041,0.027l0.04,0.028l0.039,0.028l0.039,0.03l0.039,0.03l0.038,0.03l0.038,0.031l0.037,0.032l0.036,0.032l0.036,0.033l0.036,0.034l0.035,0.034l0.034,0.035l0.034,0.035l0.033,0.036l0.033,0.036l0.032,0.037l0.031,0.037l0.031,0.038l0.03,0.038l0.03,0.039l0.029,0.04l0.028,0.039l0.028,0.041l0.027,0.04l0.026,0.041l0.026,0.042l0.025,0.042l0.024,0.042l0.024,0.043l0.023,0.043l0.022,0.044l0.021,0.043l0.021,0.045l0.02,0.044l0.02,0.045l0.018,0.045l0.018,0.046l0.017,0.045l0.017,0.046l0.015,0.047l0.015,0.046l0.014,0.047l0.013,0.047l0.013,0.047l0.012,0.047l0.011,0.048l0.01,0.048l0.01,0.048l0.008,0.048l0.008,0.048l0.007,0.048l0.007,0.049l0.005,0.048l0.005,0.049l0.004,0.048l0.003,0.049l0.003,0.049l0.001,0.049l0.001,0.049l0,0.048l-0.001,0.049l-0.001,0.049l-0.003,0.049l-0.003,0.049l-0.004,0.048l-0.005,0.049l-0.005,0.048l-0.007,0.049l-0.007,0.048l-0.008,0.048l-0.008,0.048l-0.01,0.048l-0.01,0.048l-0.011,0.048l-0.012,0.047l-0.013,0.047l-0.013,0.047l-0.014,0.047l-0.015,0.046l-0.015,0.047l-0.017,0.046l-0.017,0.045l-0.018,0.046l-0.018,0.045l-0.02,0.045l-0.02,0.044l-0.021,0.045l-0.021,0.043l-0.022,0.044l-0.023,0.043l-0.024,0.043l-0.024,0.042l-0.025,0.042l-0.026,0.042l-0.026,0.041l-0.027,0.04l-0.028,0.041l-0.028,0.039l-0.029,0.04l-0.03,0.039l-0.03,0.038l-0.031,0.038l-0.031,0.037l-0.032,0.037l-0.033,0.036l-0.033,0.036l-0.034,0.035l-0.034,0.035l-0.035,0.034l-0.036,0.034l-0.036,0.033l-0.036,0.032l-0.037,0.032l-0.038,0.031l-0.038,0.03l-0.039,0.03l-0.039,0.03l-0.039,0.028l-0.04,0.028l-0.041,0.027l-0.041,0.027l-0.041,0.026l-0.042,0.025l-0.042,0.025l-0.043,0.024l-0.043,0.023l-0.043,0.023l-0.044,0.022l-0.044,0.021l-0.044,0.02l-0.045,0.02l-0.045,0.019l-0.045,0.018l-0.045,0.018l-0.046,0.016l-0.046,0.016l-0.047,0.016l-0.047,0.014l-0.046,0.014l-0.047,0.013l-0.048,0.012l-0.047,0.011l-0.048,0.011l-0.048,0.01l-0.048,0.009l-0.048,0.008l-0.048,0.008l-0.048,0.007l-0.049,0.006l-0.048,0.005l-0.049,0.004l-0.049,0.004l-0.049,0.002l-0.048,0.002l-0.049,0.002l-0.049,0l-2,0l-0.049,0l-0.049,-0.002l-0.048,-0.002l-0.049,-0.002l-0.049,-0.004l-0.049,-0.004l-0.048,-0.005l-0.049,-0.006l-0.048,-0.007l-0.048,-0.008l-0.048,-0.008l-0.048,-0.009l-0.048,-0.01l-0.048,-0.011l-0.047,-0.011l-0.048,-0.012l-0.047,-0.013l-0.046,-0.014l-0.047,-0.014l-0.047,-0.016l-0.046,-0.016l-0.046,-0.016l-0.045,-0.018l-0.045,-0.018l-0.045,-0.019l-0.045,-0.02l-0.044,-0.02l-0.044,-0.021l-0.044,-0.022l-0.043,-0.023l-0.043,-0.023l-0.043,-0.024l-0.042,-0.025l-0.042,-0.025l-0.041,-0.026l-0.041,-0.027l-0.041,-0.027l-0.04,-0.028l-0.039,-0.028l-0.039,-0.03l-0.039,-0.03l-0.038,-0.03l-0.038,-0.031l-0.037,-0.032l-0.036,-0.032l-0.036,-0.033l-0.036,-0.034l-0.035,-0.034l-0.034,-0.035l-0.034,-0.035l-0.033,-0.036l-0.033,-0.036l-0.032,-0.037l-0.031,-0.037l-0.031,-0.038l-0.03,-0.038l-0.03,-0.039l-0.029,-0.04l-0.028,-0.039l-0.028,-0.041l-0.027,-0.04l-0.026,-0.041l-0.026,-0.042l-0.025,-0.042l-0.024,-0.042l-0.024,-0.043l-0.023,-0.043l-0.022,-0.044l-0.021,-0.043l-0.021,-0.045l-0.02,-0.044l-0.02,-0.045l-0.018,-0.045l-0.018,-0.046l-0.017,-0.045l-0.017,-0.046l-0.015,-0.047l-0.015,-0.046l-0.014,-0.047l-0.013,-0.047l-0.013,-0.047l-0.012,-0.047l-0.011,-0.048l-0.01,-0.048l-0.01,-0.048l-0.008,-0.048l-0.008,-0.048l-0.007,-0.048l-0.007,-0.049l-0.005,-0.048l-0.005,-0.049l-0.004,-0.048l-0.003,-0.049l-0.003,-0.049l-0.001,-0.049l-0.001,-0.049l0,-0.048l0.001,-0.049l0.001,-0.049l0.003,-0.049l0.003,-0.049l0.004,-0.048l0.005,-0.049l0.005,-0.048l0.007,-0.049l0.007,-0.048l0.008,-0.048l0.008,-0.048l0.01,-0.048l0.01,-0.048l0.011,-0.048l0.012,-0.047l0.013,-0.047l0.013,-0.047l0.014,-0.047l0.015,-0.046l0.015,-0.047l0.017,-0.046l0.017,-0.045l0.018,-0.046l0.018,-0.045l0.02,-0.045l0.02,-0.044l0.021,-0.045l0.021,-0.043l0.022,-0.044l0.023,-0.043l0.024,-0.043l0.024,-0.042l0.025,-0.042l0.026,-0.042l0.026,-0.041l0.027,-0.04l0.028,-0.041l0.028,-0.039l0.029,-0.04l0.03,-0.039l0.03,-0.038l0.031,-0.038l0.031,-0.037l0.032,-0.037l0.033,-0.036l0.033,-0.036l0.034,-0.035l0.034,-0.035l0.035,-0.034l0.036,-0.034l0.036,-0.033l0.036,-0.032l0.037,-0.032l0.038,-0.031l0.038,-0.03l0.039,-0.03l0.039,-0.03l0.039,-0.028l0.04,-0.028l0.041,-0.027l0.041,-0.027l0.041,-0.026l0.042,-0.025l0.042,-0.025l0.043,-0.024l0.043,-0.023l0.043,-0.023l0.044,-0.022l0.044,-0.021l0.044,-0.02l0.045,-0.02l0.045,-0.019l0.045,-0.018l0.045,-0.018l0.046,-0.016l0.046,-0.016l0.047,-0.016l0.047,-0.014l0.046,-0.014l0.047,-0.013l0.048,-0.012l0.047,-0.011l0.048,-0.011l0.048,-0.01l0.048,-0.009l0.048,-0.008l0.048,-0.008l0.048,-0.007l0.049,-0.006l0.048,-0.005l0.049,-0.004l0.049,-0.004l0.049,-0.002l0.048,-0.002l0.049,-0.002l0.049,0l2,0l0.049,0Z"/>
        </g>
        <g id="emoji">
            <g>
                <path d="M11.03,6.333c0.422,0 0.828,0.168 1.126,0.466l6.85,6.85c0,0 -0.253,-0.758 -0.563,-1.688c-0.621,-1.865 0.386,-3.881 2.252,-4.503c0,0 1.836,5.51 3.087,9.26c0.694,2.086 0.151,4.385 -1.403,5.94c-0.178,0.178 -0.36,0.36 -0.545,0.545c-2.805,2.805 -7.353,2.805 -10.158,0l-2.373,-2.373l-6.055,-6.055l2.717,0c0.422,0 0.827,0.168 1.126,0.466l3.473,3.473l0.563,-0.562l-7.316,-7.317l2.717,0c0.422,0 0.827,0.168 1.125,0.466l4.6,4.599l0.562,-0.562l-7.316,-7.317l2.717,0c0.422,0 0.828,0.168 1.126,0.466l4.599,4.599l0.563,-0.562l-6.191,-6.191l2.717,0Z" style="fill:none;stroke:#000;stroke-width:4px;"/>
                <g>
                    <path d="M11.03,6.333c0.422,0 0.828,0.168 1.126,0.466l6.85,6.85c0,0 -0.253,-0.758 -0.563,-1.688c-0.621,-1.865 0.386,-3.881 2.252,-4.503c0,0 1.836,5.51 3.087,9.26c0.694,2.086 0.151,4.385 -1.403,5.94c-0.178,0.178 -0.36,0.36 -0.545,0.545c-2.805,2.805 -7.353,2.805 -10.158,0l-2.744,-2.744l-5.684,-5.684l2.717,0c0.422,0 0.827,0.168 1.126,0.466l3.473,3.473l0.563,-0.562l-7.316,-7.317l2.717,0c0.422,0 0.827,0.168 1.125,0.466l4.6,4.599l0.562,-0.562l-7.316,-7.317l2.717,0c0.422,0 0.828,0.168 1.126,0.466l4.599,4.599l0.563,-0.562l-6.191,-6.191l2.717,0Z" style="fill:#a90eb1;"/>
                </g>
            </g>
            <g>
                <path d="M14.678,9.98c0.422,0 0.827,0.168 1.125,0.466l6.851,6.851c0,0 -0.254,-0.759 -0.563,-1.689c-0.622,-1.865 0.386,-3.881 2.251,-4.502c0,0 1.836,5.509 3.087,9.26c0.694,2.085 0.152,4.385 -1.403,5.939c-0.177,0.178 -0.359,0.36 -0.544,0.545c-2.805,2.805 -7.354,2.805 -10.159,0l-2.373,-2.373l-6.055,-6.055l2.717,0c0.423,0 0.828,0.168 1.126,0.466l3.474,3.474l0.562,-0.563l-7.316,-7.316l2.717,0c0.422,0 0.828,0.167 1.126,0.466l4.599,4.599l0.563,-0.563l-7.317,-7.316l2.718,0c0.422,0 0.827,0.167 1.125,0.466l4.599,4.599l0.563,-0.563l-6.191,-6.191l2.718,0Z" style="fill:none;stroke:#000;stroke-width:4px;"/>
                <g>
                    <path d="M14.678,9.98c0.422,0 0.827,0.168 1.125,0.466l6.851,6.851l0,-0.294l-0.396,-2.182l-0.346,-0.517c0.072,-1.422 0.998,-2.721 2.43,-3.198c0,0 1.836,5.509 3.087,9.26c0.694,2.085 0.152,4.385 -1.403,5.939c-0.177,0.178 -0.359,0.36 -0.544,0.545c-2.805,2.805 -7.354,2.805 -10.159,0c-1.524,-1.525 -2.8,-2.8 -2.8,-2.8l-5.628,-5.628l2.717,0c0.423,0 0.828,0.168 1.126,0.466l3.474,3.474l0.562,-0.563l-7.316,-7.316l2.717,0c0.422,0 0.828,0.167 1.126,0.466l4.599,4.599l0.563,-0.563l-7.317,-7.316l2.718,0c0.422,0 0.827,0.167 1.125,0.466l4.599,4.599l0.563,-0.563l-6.191,-6.191l2.718,0Z" style="fill:#f10dc3;"/>
                    <clipPath id="_clip2">
                        <path d="M24.342,11.106c0,0 1.836,5.509 3.087,9.26c0.694,2.085 0.152,4.385 -1.403,5.939c-0.177,0.178 -0.359,0.36 -0.544,0.545c-2.805,2.805 -7.354,2.805 -10.159,0c-1.524,-1.525 -2.8,-2.8 -2.8,-2.8l2.814,-2.814l-0.563,-0.563l1.689,-1.688l-0.563,-0.563l3.94,-3.939l2.814,2.814c0,0 -0.254,-0.759 -0.563,-1.689c-0.622,-1.865 0.386,-3.881 2.251,-4.502l0,0Z"/>
                    </clipPath>
                    <g clip-path="url(#_clip2)">
                        <path d="M22.654,17.297l-2.252,-4.503c0,0 2.732,2.732 3.94,3.94c0.311,0.31 0.311,0.815 0,1.125c-0.311,0.311 -0.815,0.311 -1.126,0c-0.281,-0.281 -0.562,-0.562 -0.562,-0.562Z" style="fill:#a90eb1;"/>
                    </g>
                </g>
            </g>
            <path d="M22,5l0,-2" style="fill:none;stroke:#fff;stroke-width:2px;stroke-linecap:round;stroke-linejoin:miter;stroke-miterlimit:2;"/>
            <path d="M25,7l2,-2" style="fill:none;stroke:#fff;stroke-width:2px;stroke-linecap:round;stroke-linejoin:miter;stroke-miterlimit:2;"/>
            <path d="M27,10l2,0" style="fill:none;stroke:#fff;stroke-width:2px;stroke-linecap:round;stroke-linejoin:miter;stroke-miterlimit:2;"/>
            <path d="M10,27l0,2" style="fill:none;stroke:#fff;stroke-width:2px;stroke-linecap:round;stroke-linejoin:miter;stroke-miterlimit:2;"/>
            <path d="M7,25l-2,2" style="fill:none;stroke:#fff;stroke-width:2px;stroke-linecap:round;stroke-linejoin:miter;stroke-miterlimit:2;"/>
            <path d="M5,22l-2,0" style="fill:none;stroke:#fff;stroke-width:2px;stroke-linecap:round;stroke-linejoin:miter;stroke-miterlimit:2;"/>
        </g>
    </g>
</svg>
