<?xml version="1.0" encoding="UTF-8" standalone="no"?>
<!DOCTYPE svg PUBLIC "-//W3C//DTD SVG 1.1//EN" "http://www.w3.org/Graphics/SVG/1.1/DTD/svg11.dtd">
<svg width="100%" height="100%" viewBox="0 0 32 32" version="1.1" xmlns="http://www.w3.org/2000/svg" xmlns:xlink="http://www.w3.org/1999/xlink" xml:space="preserve" xmlns:serif="http://www.serif.com/" style="fill-rule:evenodd;clip-rule:evenodd;stroke-linecap:round;stroke-miterlimit:2;">
    <rect id="clap--clw-" serif:id="clap [clw]" x="0" y="0" width="32" height="32" style="fill:none;"/>
    <clipPath id="_clip1">
        <rect x="0" y="0" width="32" height="32"/>
    </clipPath>
    <g clip-path="url(#_clip1)">
        <g id="outline">
            <path d="M22,5l0,-2" style="fill:none;stroke:#000;stroke-width:6px;"/>
            <path d="M25,7l2,-2" style="fill:none;stroke:#000;stroke-width:6px;"/>
            <path d="M27,10l2,0" style="fill:none;stroke:#000;stroke-width:6px;"/>
            <path d="M10,27l0,2" style="fill:none;stroke:#000;stroke-width:6px;"/>
            <path d="M7,25l-2,2" style="fill:none;stroke:#000;stroke-width:6px;"/>
            <path d="M5,22l-2,0" style="fill:none;stroke:#000;stroke-width:6px;"/>
        </g>
        <g id="emoji">
            <g>
                <path d="M11.03,6.333c0.422,0 0.828,0.168 1.126,0.466l6.85,6.85c0,0 -0.253,-0.758 -0.563,-1.688c-0.621,-1.865 0.386,-3.881 2.252,-4.503c0,0 1.836,5.51 3.087,9.26c0.694,2.086 0.151,4.385 -1.403,5.94c-0.178,0.178 -0.36,0.36 -0.545,0.545c-2.805,2.805 -7.353,2.805 -10.158,0l-8.428,-8.428l2.717,0c0.422,0 0.827,0.168 1.126,0.466l3.473,3.473l0.563,-0.562l-7.316,-7.317l2.717,0c0.422,0 0.827,0.168 1.125,0.466l4.6,4.599l0.562,-0.562l-7.316,-7.317l2.717,0c0.422,0 0.828,0.168 1.126,0.466l4.599,4.599l0.563,-0.562l-6.191,-6.191l2.717,0Z" style="fill:none;stroke:#000;stroke-width:4px;stroke-linecap:butt;stroke-miterlimit:3;"/>
                <g>
                    <path d="M11.03,6.333c0.422,0 0.828,0.168 1.126,0.466l6.85,6.85c0,0 -0.253,-0.758 -0.563,-1.688c-0.621,-1.865 0.386,-3.881 2.252,-4.503c0,0 1.836,5.51 3.087,9.26c0.694,2.086 0.151,4.385 -1.403,5.94c-0.178,0.178 -0.36,0.36 -0.545,0.545c-2.805,2.805 -7.353,2.805 -10.158,0l-8.428,-8.428l2.717,0c0.422,0 0.827,0.168 1.126,0.466l3.473,3.473l0.563,-0.562l-7.316,-7.317l2.717,0c0.422,0 0.827,0.168 1.125,0.466l4.6,4.599l0.562,-0.562l-7.316,-7.317l2.717,0c0.422,0 0.828,0.168 1.126,0.466l4.599,4.599l0.563,-0.562l-6.191,-6.191l2.717,0Z" style="fill:#a90eb1;"/>
                </g>
            </g>
            <g>
                <path d="M14.678,9.98c0.422,0 0.827,0.168 1.125,0.466l6.851,6.851c0,0 -0.254,-0.759 -0.563,-1.689c-0.622,-1.865 0.386,-3.881 2.251,-4.502c0,0 1.836,5.509 3.087,9.26c0.694,2.085 0.152,4.385 -1.403,5.939c-0.177,0.178 -0.359,0.36 -0.544,0.545c-2.805,2.805 -7.354,2.805 -10.159,0l-8.428,-8.428l2.717,0c0.423,0 0.828,0.168 1.126,0.466l3.474,3.474l0.562,-0.563l-7.316,-7.316l2.717,0c0.422,0 0.828,0.167 1.126,0.466l4.599,4.599l0.563,-0.563l-7.317,-7.316l2.718,0c0.422,0 0.827,0.167 1.125,0.466l4.599,4.599l0.563,-0.563l-6.191,-6.191l2.718,0Z" style="fill:none;stroke:#000;stroke-width:4px;stroke-linecap:butt;stroke-miterlimit:3;"/>
                <g>
                    <path d="M14.678,9.98c0.422,0 0.827,0.168 1.125,0.466l6.851,6.851l0,-0.294l-0.396,-2.182l-0.346,-0.517c0.072,-1.422 0.998,-2.721 2.43,-3.198c0,0 1.836,5.509 3.087,9.26c0.694,2.085 0.152,4.385 -1.403,5.939c-0.177,0.178 -0.359,0.36 -0.544,0.545c-2.805,2.805 -7.354,2.805 -10.159,0l-8.428,-8.428l2.717,0c0.423,0 0.828,0.168 1.126,0.466l3.474,3.474l0.562,-0.563l-7.316,-7.316l2.717,0c0.422,0 0.828,0.167 1.126,0.466l4.599,4.599l0.563,-0.563l-7.317,-7.316l2.718,0c0.422,0 0.827,0.167 1.125,0.466l4.599,4.599l0.563,-0.563l-6.191,-6.191l2.718,0Z" style="fill:#f10dc3;"/>
                    <clipPath id="_clip2">
                        <path d="M24.342,11.106c0,0 1.836,5.509 3.087,9.26c0.694,2.085 0.152,4.385 -1.403,5.939c-0.177,0.178 -0.359,0.36 -0.544,0.545c-2.805,2.805 -7.354,2.805 -10.159,0c-1.524,-1.525 -2.8,-2.8 -2.8,-2.8l2.814,-2.814l-0.563,-0.563l1.689,-1.688l-0.563,-0.563l3.94,-3.939l2.814,2.814c0,0 -0.254,-0.759 -0.563,-1.689c-0.622,-1.865 0.386,-3.881 2.251,-4.502Z"/>
                    </clipPath>
                    <g clip-path="url(#_clip2)">
                        <path d="M22.654,17.297l-2.252,-4.503c0,0 2.732,2.732 3.94,3.94c0.311,0.31 0.311,0.815 0,1.125c-0.311,0.311 -0.815,0.311 -1.126,0c-0.281,-0.281 -0.562,-0.562 -0.562,-0.562Z" style="fill:#a90eb1;"/>
                    </g>
                </g>
            </g>
            <path d="M22,5l0,-2" style="fill:none;stroke:#fff;stroke-width:2px;"/>
            <path d="M25,7l2,-2" style="fill:none;stroke:#fff;stroke-width:2px;"/>
            <path d="M27,10l2,0" style="fill:none;stroke:#fff;stroke-width:2px;"/>
            <path d="M10,27l0,2" style="fill:none;stroke:#fff;stroke-width:2px;"/>
            <path d="M7,25l-2,2" style="fill:none;stroke:#fff;stroke-width:2px;"/>
            <path d="M5,22l-2,0" style="fill:none;stroke:#fff;stroke-width:2px;"/>
        </g>
    </g>
</svg>
