<?xml version="1.0" encoding="UTF-8" standalone="no"?>
<!DOCTYPE svg PUBLIC "-//W3C//DTD SVG 1.1//EN" "http://www.w3.org/Graphics/SVG/1.1/DTD/svg11.dtd">
<svg width="100%" height="100%" viewBox="0 0 32 32" version="1.1" xmlns="http://www.w3.org/2000/svg" xmlns:xlink="http://www.w3.org/1999/xlink" xml:space="preserve" xmlns:serif="http://www.serif.com/" style="fill-rule:evenodd;clip-rule:evenodd;stroke-linejoin:round;stroke-miterlimit:2;">
    <rect id="crossed_fingers--clw-" serif:id="crossed_fingers [clw]" x="0" y="0" width="32" height="32" style="fill:none;"/>
    <g id="outline">
        <path d="M23.526,0l1.795,1.152l-1.962,7.851l1.544,6.177l0.034,0.158c0.021,0.117 0.039,0.233 0.05,0.351c0.01,0.114 0.009,0.157 0.013,0.28l0,0.803c0.077,0.044 0.076,0.045 0.156,0.095l0.117,0.077c0.188,0.135 0.368,0.278 0.533,0.441c0.489,0.482 0.85,1.088 1.039,1.748c0.091,0.315 0.136,0.635 0.153,0.962c0.016,0.909 0.007,1.818 0.001,2.728c-0.005,0.306 -0.022,0.612 -0.056,0.917c-0.076,0.678 -0.227,1.348 -0.45,1.994c-0.271,0.787 -0.648,1.536 -1.118,2.223c-0.411,0.6 -0.892,1.151 -1.431,1.639c-1.324,1.199 -2.989,1.999 -4.752,2.285c-0.377,0.061 -0.757,0.098 -1.139,0.113c-0.085,0.003 -0.17,0.005 -0.256,0.006l-0.777,0l-0.001,0c-1.108,-0.001 -2.214,-0.167 -3.272,-0.496c-1.066,-0.332 -2.08,-0.827 -2.997,-1.463c-1.86,-1.29 -3.302,-3.149 -4.08,-5.275c-0.299,-0.815 -0.5,-1.665 -0.598,-2.527c-0.043,-0.373 -0.064,-0.747 -0.071,-1.122c-0.006,-0.865 -0.005,-1.73 -0.004,-2.595c-0.006,-2.037 -0.021,-4.073 0.004,-6.109c0.015,-0.402 0.088,-0.797 0.234,-1.173c0.363,-0.942 1.134,-1.695 2.085,-2.035c0.353,-0.127 0.72,-0.19 1.093,-0.204c0.087,-0.001 0.087,-0.001 0.174,0c0.402,0.015 0.797,0.088 1.173,0.234c0.019,0.007 0.038,0.014 0.056,0.022c0.397,-0.473 0.916,-0.842 1.504,-1.052c0.352,-0.126 0.72,-0.19 1.093,-0.204c0.087,-0.001 0.087,-0.001 0.174,0c0.402,0.015 0.797,0.088 1.173,0.234c0.482,0.185 0.92,0.478 1.276,0.852c0.018,0.019 0.036,0.039 0.053,0.058l0.038,-0.15c-0.15,-0.611 -0.298,-1.221 -0.443,-1.833c-0.02,-0.093 -0.02,-0.093 -0.037,-0.187c-0.041,-0.249 -0.064,-0.499 -0.06,-0.751c0.007,-0.471 0.098,-0.939 0.267,-1.378c0.067,-0.173 0.147,-0.341 0.236,-0.504l2.43,-4.342l2.588,0l0.358,1.431l1.788,-1.431l0.272,0Z"/>
    </g>
    <g id="emoji">
        <path d="M18.792,6.655c0.033,-0.132 0.079,-0.26 0.138,-0.383c0.13,-0.269 0.32,-0.507 0.553,-0.694c0.552,-0.442 1.657,-1.326 1.657,-1.326l0.616,0.938l0.056,1.751l-1.014,4.059l2.202,4.999l0,2.001l0,8l-6,-2l-7,-2.226l-2,-3.371l0,-5.903c1.293,0 1.5,-0.207 1.5,-1.5l8.206,0l1.086,-4.345Z" style="fill:#640082;"/>
        <path d="M14.108,17.27l3.096,-0.27l5.034,0.238l0.762,0.762c0,0 0.432,0.216 0.894,0.447c0.678,0.339 1.106,1.032 1.106,1.789c0,0.657 0,1.524 0,2.471c0,1.934 -0.768,3.789 -2.136,5.157c-1.368,1.368 -3.223,2.136 -5.157,2.136l-0.682,0c-4.984,0 -9.025,-4.041 -9.025,-9.025l0,-2.572c0.055,0.063 0.112,0.124 0.172,0.183l3.828,3.828l0,-3l2.783,2.783l1.019,1.624l0.347,-0.23l0.351,-0.789l-0.5,-2.254c-0.593,-0.545 -1.071,-1.225 -1.383,-2.005l-0.509,-1.273Z" style="fill:#f10dc3;"/>
        <path d="M12.523,16l1.166,2.914c0.31,0.776 0.759,1.467 1.311,2.051l0,0.035c0,0 -1.541,-1.541 -2.414,-2.414c-0.375,-0.375 -0.586,-0.884 -0.586,-1.414c0,-1.339 0,-3.995 0,-5.672c0,-0.398 0.158,-0.779 0.439,-1.061c0.282,-0.281 0.663,-0.439 1.061,-0.439c0.398,0 0.779,0.158 1.061,0.439c0.281,0.282 0.439,0.663 0.439,1.061l0,4.5l-2.477,0Zm-3.053,-5c0.845,0 1.53,0.685 1.53,1.53c0,2.569 0,7.47 0,7.47c0,0 -1.236,-1.236 -2.121,-2.121c-0.563,-0.563 -0.879,-1.326 -0.879,-2.122c0,-0.956 0,-2.28 0,-3.289c0,-0.389 0.155,-0.763 0.43,-1.038c0.275,-0.275 0.649,-0.43 1.038,-0.43l0.002,0Zm9.452,5l-2.466,0c0.408,-1.635 0.817,-3.269 1.225,-4.904l1.241,4.904Zm4.078,0l-3.046,0l-0.67,-2.681l1.411,-0.751l1.499,0.024l0.761,3.044c0.018,0.079 0.024,0.099 0.034,0.18c0.01,0.081 0.008,0.102 0.011,0.183l0,0.001Zm-3.841,-7.424l-1.118,-0.227l-0.395,-1.579c-0.123,-0.495 -0.053,-1.018 0.195,-1.462c0.616,-1.101 1.75,-3.128 1.75,-3.128l1.361,5.442l-0.769,0.69l1.011,0.28l0.758,3.03l-1.452,0.698l-1.459,0.029l-0.757,-3.03l0.875,-0.743Zm2.653,-1.635l-0.672,-2.689l1.681,-1.344l-1.009,4.033Z" style="fill:#f10dc3;"/>
        <path d="M16,20.134c0.281,-0.162 0.636,-0.184 0.947,-0.028c0.494,0.246 0.694,0.848 0.447,1.341l-2,4c-0.246,0.494 -0.848,0.694 -1.341,0.447c-0.494,-0.246 -0.694,-0.848 -0.447,-1.341l1.177,-2.356l1.217,1.217l0,-3.28Z" style="fill:#a90eb1;"/>
        <path d="M23,18l-7.523,0l0.069,0.171c0.683,1.709 2.338,2.829 4.178,2.829l0.69,0l2.293,2.293l-1.414,1.414l-1.709,-1.709c-2.601,-0.055 -4.926,-1.659 -5.895,-4.084l-1.166,-2.914l10.477,0l0,2Z" style="fill:#640082;"/>
        <path d="M22.194,12.592l-2.91,0.727l-0.243,-0.97l2.911,-0.727l0.242,0.97Zm-1,-4l-2.91,0.727l-0.243,-0.97l2.911,-0.727l0.242,0.97Z" style="fill:#a90eb1;"/>
    </g>
</svg>
