<?xml version="1.0" encoding="UTF-8" standalone="no"?>
<!DOCTYPE svg PUBLIC "-//W3C//DTD SVG 1.1//EN" "http://www.w3.org/Graphics/SVG/1.1/DTD/svg11.dtd">
<svg width="100%" height="100%" viewBox="0 0 32 32" version="1.1" xmlns="http://www.w3.org/2000/svg" xmlns:xlink="http://www.w3.org/1999/xlink" xml:space="preserve" xmlns:serif="http://www.serif.com/" style="fill-rule:evenodd;clip-rule:evenodd;stroke-linejoin:round;stroke-miterlimit:2;">
    <rect id="fist--clw-" serif:id="fist [clw]" x="0" y="0" width="32" height="32" style="fill:none;"/>
    <g id="outline">
        <path d="M8.401,3.253c0.222,-0.458 0.532,-0.872 0.908,-1.214c0.406,-0.369 0.888,-0.653 1.407,-0.829c0.41,-0.138 0.837,-0.204 1.269,-0.21c0.04,0 0.08,0.001 0.119,0.001c0.136,0.005 0.27,0.014 0.405,0.031c0.328,0.042 0.651,0.124 0.959,0.246c0.373,0.147 0.722,0.35 1.034,0.6c0.336,-0.269 0.715,-0.486 1.123,-0.635c0.41,-0.15 0.837,-0.225 1.273,-0.242c0.102,-0.001 0.102,-0.001 0.204,0c0.136,0.005 0.27,0.014 0.405,0.031c0.329,0.042 0.652,0.124 0.96,0.246c0.373,0.147 0.722,0.35 1.034,0.601c0.311,-0.25 0.658,-0.454 1.032,-0.601c0.308,-0.122 0.631,-0.204 0.96,-0.246c0.135,-0.017 0.269,-0.026 0.405,-0.031c0.102,-0.001 0.102,-0.001 0.204,0c0.136,0.005 0.27,0.014 0.405,0.031c0.329,0.042 0.652,0.124 0.96,0.246c0.569,0.224 1.083,0.58 1.494,1.032c0.369,0.406 0.653,0.888 0.829,1.408c0.138,0.41 0.205,0.837 0.21,1.27l0,6.012l0,0l0,1.558c0.114,0.038 0.228,0.076 0.341,0.115c0.075,0.027 0.149,0.056 0.223,0.087c0.432,0.189 0.83,0.442 1.174,0.765c0.583,0.548 0.994,1.269 1.167,2.05c0.058,0.259 0.086,0.521 0.094,0.786c0.013,1.264 0.008,2.529 0,3.794c-0.009,0.458 -0.037,0.916 -0.095,1.371c-0.113,0.887 -0.325,1.761 -0.633,2.6c-0.499,1.363 -1.248,2.631 -2.198,3.728c-1.039,1.2 -2.317,2.191 -3.739,2.898c-1.013,0.503 -2.098,0.862 -3.212,1.061c-0.996,0.178 -2.01,0.223 -3.019,0.159c-1.05,-0.067 -2.092,-0.252 -3.1,-0.551c-1.306,-0.389 -2.554,-0.971 -3.692,-1.72c-1.31,-0.862 -2.473,-1.945 -3.427,-3.189c-0.86,-1.121 -1.548,-2.372 -2.034,-3.698c-0.379,-1.035 -0.634,-2.114 -0.759,-3.209c-0.054,-0.473 -0.081,-0.948 -0.09,-1.425c-0.009,-1.522 -0.006,-3.044 -0.003,-4.567c-0.007,-2.238 -0.025,-4.477 0.003,-6.715c0.017,-0.436 0.092,-0.863 0.242,-1.274c0.39,-1.064 1.235,-1.93 2.29,-2.346c0.308,-0.121 0.631,-0.204 0.96,-0.246c0.135,-0.017 0.269,-0.026 0.405,-0.031c0.102,-0.001 0.102,-0.001 0.204,0c0.136,0.005 0.27,0.014 0.405,0.031c0.305,0.039 0.606,0.113 0.894,0.221Z"/>
    </g>
    <g id="emoji">
        <path d="M17,30l0,0c-3.183,0 -6.235,-1.264 -8.485,-3.515c-2.251,-2.25 -3.515,-5.302 -3.515,-8.485l0,-2.623l10,-2.377l8,0l1,1c0,0 0.841,0.28 1.632,0.544c0.817,0.272 1.368,1.037 1.368,1.898c0,0.907 0,2.168 0,3.558c0,5.523 -4.477,10 -10,10Z" style="fill:#f10dc3;"/>
        <path d="M14.356,18.053l-2.25,4.5c-0.247,0.493 -0.047,1.095 0.447,1.341c0.493,0.247 1.095,0.047 1.341,-0.447l2.25,-4.5c0.247,-0.493 0.047,-1.095 -0.447,-1.341c-0.493,-0.247 -1.095,-0.047 -1.341,0.447Z" style="fill:#a90eb1;"/>
        <path d="M24,12l-1,1l-11,0l1.065,2.13c0.471,0.942 1.137,1.746 1.935,2.373l0,3.911l-5,-5l0,4.001l-4.829,-4.829l-0.171,-0.209l0,-7.377c2.457,0 2,-0.616 2,-3l17,0l0,7Z" style="fill:#640082;"/>
        <path d="M10,5c0,-1.105 0.895,-2 2,-2c1.105,0 2,0.895 2,2c0,4.292 0,14 0,14c0,0 -2.303,-2.303 -3.414,-3.414c-0.375,-0.375 -0.586,-0.884 -0.586,-1.414c0,-1.877 0,-6.498 0,-9.172Zm-5,2c0,-0.53 0.211,-1.039 0.586,-1.414c0.375,-0.375 0.884,-0.586 1.414,-0.586c1.105,0 2,0.895 2,2c0,3.646 0,11.001 0,11.001c0,0 -1.944,-1.945 -3.122,-3.122c-0.562,-0.563 -0.878,-1.326 -0.878,-2.121c0,-1.487 0,-3.997 0,-5.758Zm17.002,-4c1.103,0 1.998,0.895 1.998,1.998c0,2.652 0,7.002 0,7.002l-1,1l-3,0l0,-8.002c0,-1.103 0.895,-1.998 1.998,-1.998l0.004,0Zm-4.987,0c0.222,0.002 0.442,0.039 0.651,0.113c0.281,0.099 0.538,0.262 0.749,0.472c0.21,0.211 0.373,0.468 0.472,0.749c0.075,0.213 0.112,0.438 0.113,0.664l0,8.002l-4,0l0,-8.002c0,-1.103 0.895,-1.998 1.998,-1.998l0.017,0Z" style="fill:#f10dc3;"/>
        <path d="M24,14l-10.382,0l0.342,0.683c1.016,2.033 3.094,3.317 5.366,3.317l1.079,0l3.2,3.1l-1.392,1.436l-2.618,-2.536l-0.269,0c-3.03,0 -5.8,-1.712 -7.155,-4.422l-1.789,-3.578l13.618,0l0,2Z" style="fill:#640082;"/>
    </g>
</svg>
