<?xml version="1.0" encoding="UTF-8" standalone="no"?>
<!DOCTYPE svg PUBLIC "-//W3C//DTD SVG 1.1//EN" "http://www.w3.org/Graphics/SVG/1.1/DTD/svg11.dtd">
<svg width="100%" height="100%" viewBox="0 0 32 32" version="1.1" xmlns="http://www.w3.org/2000/svg" xmlns:xlink="http://www.w3.org/1999/xlink" xml:space="preserve" xmlns:serif="http://www.serif.com/" style="fill-rule:evenodd;clip-rule:evenodd;stroke-linejoin:round;stroke-miterlimit:2;">
    <rect id="fist_facing_left--clw-" serif:id="fist_facing_left [clw]" x="0" y="0" width="32" height="32" style="fill:none;"/>
    <clipPath id="_clip1">
        <rect x="0" y="0" width="32" height="32"/>
    </clipPath>
    <g clip-path="url(#_clip1)">
        <g id="outline">
            <path d="M30,8c1.105,0 2,0.895 2,2l0,6c0,1.105 -0.895,2 -2,2l-5.24,0l-6.726,5.979c-1.465,1.302 -3.356,2.021 -5.315,2.021c-1.724,0 -4.068,0 -5.719,0c-1.061,0 -2.078,-0.421 -2.828,-1.172c-0.751,-0.75 -1.172,-1.767 -1.172,-2.828l0,-0.128c-0.686,-0.176 -1.319,-0.534 -1.828,-1.044c-0.751,-0.75 -1.172,-1.767 -1.172,-2.828c0,-1.743 0,-4.257 0,-6c0,-1.061 0.421,-2.078 1.172,-2.828c0.75,-0.751 1.767,-1.172 2.828,-1.172l26,0Z"/>
        </g>
        <g id="emoji">
            <path d="M4,20c-0.246,-0.002 -0.49,-0.045 -0.72,-0.134c-0.175,-0.068 -0.34,-0.16 -0.49,-0.273c-0.493,-0.375 -0.79,-0.973 -0.79,-1.593c0,-2 0,-4 0,-6c0,-0.62 0.297,-1.218 0.79,-1.593c0.15,-0.113 0.315,-0.205 0.49,-0.273c0.23,-0.089 0.474,-0.132 0.72,-0.134l21,0l1,1l0,4l-1,1l-1,0l-7.579,6.737c-0.285,0.252 -0.596,0.472 -0.93,0.653c-0.724,0.395 -1.539,0.603 -2.363,0.61l-6.13,0c-0.246,-0.002 -0.49,-0.045 -0.719,-0.134c-0.569,-0.22 -1.015,-0.699 -1.193,-1.283c-0.057,-0.189 -0.086,-0.386 -0.086,-0.583l1,-1l-1,-1l-1,0Z" style="fill:#f10dc3;"/>
            <path d="M11.791,15c-0.365,0 -0.725,0.085 -1.051,0.248c-1.149,0.574 -3.293,1.646 -3.293,1.646l-0.894,-1.788c0,0 2.144,-1.072 3.292,-1.647c0.604,-0.302 1.271,-0.459 1.946,-0.459l4.209,0l0.707,1.707c0,0 -4.731,4.731 -6.414,6.414c-0.563,0.563 -1.326,0.879 -2.121,0.879l-3.172,0l0,-2l3.172,0c0.177,-0.004 0.351,-0.05 0.504,-0.14c0.074,-0.043 0.141,-0.095 0.203,-0.153l4.707,-4.707l-1.795,0Z" style="fill:#640082;"/>
            <rect x="25" y="10" width="5" height="6" style="fill:#a90eb1;"/>
        </g>
    </g>
</svg>
