<?xml version="1.0" encoding="UTF-8" standalone="no"?>
<!DOCTYPE svg PUBLIC "-//W3C//DTD SVG 1.1//EN" "http://www.w3.org/Graphics/SVG/1.1/DTD/svg11.dtd">
<svg width="100%" height="100%" viewBox="0 0 32 32" version="1.1" xmlns="http://www.w3.org/2000/svg" xmlns:xlink="http://www.w3.org/1999/xlink" xml:space="preserve" xmlns:serif="http://www.serif.com/" style="fill-rule:evenodd;clip-rule:evenodd;stroke-miterlimit:2;">
    <rect id="handshake--clw-" serif:id="handshake [clw]" x="0" y="0" width="32" height="32" style="fill:none;"/>
    <clipPath id="_clip1">
        <rect x="0" y="0" width="32" height="32"/>
    </clipPath>
    <g clip-path="url(#_clip1)">
        <g id="outline">
            <path d="M4.344,19.344c-0.228,-0.228 -0.491,-0.418 -0.779,-0.562c-0.589,-0.294 -1.565,-0.782 -1.565,-0.782l0,-9.489l5,2.489l10.886,0c0.378,0 0.724,0.213 0.894,0.551c0.917,1.825 3.864,7.685 4.997,9.94c0.12,0.237 0.14,0.512 0.056,0.764c-0.084,0.252 -0.264,0.461 -0.502,0.579c-1.811,0.906 -5.943,2.972 -8.397,4.199c-1.155,0.577 -2.55,0.351 -3.463,-0.562c-2.159,-2.159 -5.968,-5.968 -7.127,-7.127Z" style="fill:none;stroke:#000;stroke-width:4px;"/>
            <path d="M30,18l0,-10l-10,5l-6.537,0l-2.963,3c0,0 0.213,0.213 0.501,0.501c0.398,0.398 0.937,0.621 1.499,0.621c0.562,0 1.101,-0.223 1.499,-0.621c0.288,-0.288 0.501,-0.501 0.501,-0.501l2.5,0c0,0 3.535,3.535 5.581,5.581c0.376,0.376 0.886,0.586 1.417,0.585c0.532,-0.001 1.042,-0.213 1.416,-0.591c0.109,-0.109 0.21,-0.211 0.296,-0.297c0.186,-0.188 0.29,-0.441 0.29,-0.705c0,-0.27 0,-0.573 0,-0.573l4,-2Z" style="fill:none;stroke:#000;stroke-width:4px;"/>
        </g>
        <g id="emoji">
            <path d="M4.233,19.233c-0.154,-0.154 -0.333,-0.282 -0.528,-0.379c-0.556,-0.275 -1.705,-0.843 -1.705,-0.843l0,-9.5l5,2.489l10.886,0c0.378,0 0.724,0.213 0.894,0.551c0.917,1.825 3.864,7.685 4.997,9.94c0.12,0.237 0.14,0.512 0.056,0.764c-0.084,0.252 -0.264,0.461 -0.502,0.579c-1.811,0.906 -5.943,2.972 -8.397,4.199c-1.155,0.577 -2.55,0.351 -3.463,-0.562c-2.234,-2.234 -6.236,-6.236 -7.238,-7.238Z" style="fill:#f10dc3;"/>
            <clipPath id="_clip2">
                <path d="M4.233,19.233c-0.154,-0.154 -0.333,-0.282 -0.528,-0.379c-0.556,-0.275 -1.705,-0.843 -1.705,-0.843l0,-9.5l5,2.489l10.886,0c0.378,0 0.724,0.213 0.894,0.551c0.917,1.825 3.864,7.685 4.997,9.94c0.12,0.237 0.14,0.512 0.056,0.764c-0.084,0.252 -0.264,0.461 -0.502,0.579c-1.811,0.906 -5.943,2.972 -8.397,4.199c-1.155,0.577 -2.55,0.351 -3.463,-0.562c-2.234,-2.234 -6.236,-6.236 -7.238,-7.238Z"/>
            </clipPath>
            <g clip-path="url(#_clip2)">
                <path d="M8,25l10,-5l5,5l-10,5l-5,-5Z" style="fill:none;"/>
                <clipPath id="_clip3">
                    <path d="M8,25l10,-5l5,5l-10,5l-5,-5Z"/>
                </clipPath>
                <g clip-path="url(#_clip3)">
                    <path d="M20,27l-7,-7" style="fill:none;stroke:#640082;stroke-width:2px;"/>
                    <path d="M17,29l-7,-7" style="fill:none;stroke:#640082;stroke-width:2px;"/>
                </g>
                <path d="M12.622,19l-3.122,0l-1.42,-3.408l4.09,-4.127l7.362,0.033l12.468,-6.234c0,4.657 0,9.315 0,13.972l-4.085,2.042c-0.127,0.529 -0.397,1.017 -0.786,1.409c-0.086,0.086 -0.187,0.188 -0.295,0.297c-0.75,0.755 -1.768,1.18 -2.832,1.182c-1.063,0.002 -2.084,-0.419 -2.836,-1.171l-4.994,-4.995l-0.861,0c-0.745,0.643 -1.699,1 -2.689,1Zm17.378,-1l0,-9.5l-10,5l-7,-0.031l-3.5,3.531l3.122,0c0.562,0 1.101,-0.223 1.499,-0.621c0.204,-0.204 0.379,-0.379 0.379,-0.379l2.5,0c0,0 3.535,3.535 5.581,5.581c0.376,0.376 0.886,0.586 1.417,0.585c0.532,-0.001 1.042,-0.213 1.416,-0.591c0.109,-0.109 0.21,-0.211 0.296,-0.297c0.186,-0.188 0.29,-0.441 0.29,-0.705c0,-0.27 0,-0.573 0,-0.573l4,-2Z"/>
            </g>
            <path d="M30,18l0,-10l-10,5l-6.537,0l-3.938,4l3.097,0c0.562,0 1.101,-0.223 1.499,-0.621c0.204,-0.204 0.379,-0.379 0.379,-0.379l2.5,0c0,0 3.535,3.535 5.581,5.581c0.376,0.376 0.886,0.586 1.417,0.585c0.532,-0.001 1.042,-0.213 1.416,-0.591c0.109,-0.109 0.21,-0.211 0.296,-0.297c0.186,-0.188 0.29,-0.441 0.29,-0.705c0,-0.27 0,-0.573 0,-0.573l4,-2Z" style="fill:#f10dc3;"/>
            <clipPath id="_clip4">
                <path d="M30,18l0,-10l-10,5l-6.537,0l-3.938,4l3.097,0c0.562,0 1.101,-0.223 1.499,-0.621c0.204,-0.204 0.379,-0.379 0.379,-0.379l2.5,0c0,0 3.535,3.535 5.581,5.581c0.376,0.376 0.886,0.586 1.417,0.585c0.532,-0.001 1.042,-0.213 1.416,-0.591c0.109,-0.109 0.21,-0.211 0.296,-0.297c0.186,-0.188 0.29,-0.441 0.29,-0.705c0,-0.27 0,-0.573 0,-0.573l4,-2Z"/>
            </clipPath>
            <g clip-path="url(#_clip4)">
                <path d="M18,18.5l2.257,0c0.796,0 1.559,-0.316 2.122,-0.879c0.72,-0.72 1.621,-1.621 1.621,-1.621" style="fill:none;stroke:#a90eb1;stroke-width:2px;"/>
                <path d="M14.5,17.5l0,-2c0,-0.53 -0.211,-1.039 -0.586,-1.414c-0.375,-0.375 -0.884,-0.586 -1.414,-0.586l-2,0" style="fill:none;stroke:#a90eb1;stroke-width:1px;stroke-linecap:round;stroke-linejoin:round;stroke-miterlimit:1.5;"/>
            </g>
        </g>
    </g>
</svg>
