<?xml version="1.0" encoding="UTF-8" standalone="no"?>
<!DOCTYPE svg PUBLIC "-//W3C//DTD SVG 1.1//EN" "http://www.w3.org/Graphics/SVG/1.1/DTD/svg11.dtd">
<svg width="100%" height="100%" viewBox="0 0 32 32" version="1.1" xmlns="http://www.w3.org/2000/svg" xmlns:xlink="http://www.w3.org/1999/xlink" xml:space="preserve" xmlns:serif="http://www.serif.com/" style="fill-rule:evenodd;clip-rule:evenodd;stroke-linejoin:round;stroke-miterlimit:2;">
    <rect id="hand_splayed--clw-" serif:id="hand_splayed [clw]" x="0" y="0" width="32" height="32" style="fill:none;"/>
    <clipPath id="_clip1">
        <rect x="0" y="0" width="32" height="32"/>
    </clipPath>
    <g clip-path="url(#_clip1)">
        <g id="outline">
            <path d="M4.825,5c0.16,-0.453 0.402,-0.88 0.721,-1.256l3.17,-3.744l1.392,0l1.018,4.073c0.179,-0.677 0.526,-1.3 1.016,-1.801c0.194,-0.199 0.409,-0.374 0.639,-0.53l2.613,-1.742l2.606,0l0,4.315c0.354,-0.57 0.834,-1.039 1.412,-1.379l3.922,-2.269l2.317,1.158l-3.651,14.602l0,0.462l0.053,-0.057c1.444,-1.562 3.599,-2.257 5.684,-1.833c1.293,0.263 3.263,0.663 3.263,0.663l0.828,2.838c0,0 -7.207,7.208 -10.778,10.778c-1.743,1.743 -4.106,2.722 -6.571,2.722l-0.454,0c-2.924,0 -5.728,-1.162 -7.796,-3.229c-2.067,-2.068 -3.229,-4.872 -3.229,-7.796l0,-1.975l-0.022,0l-2.166,-6.497c-0.099,-0.3 -0.164,-0.61 -0.191,-0.924c-0.048,-0.56 0.024,-1.128 0.209,-1.658c0.089,-0.256 0.205,-0.501 0.343,-0.734l2.5,-4.187l1.152,0Z"/>
        </g>
        <g id="emoji">
            <path d="M16,14l1.453,0l0.323,-1.291l1.641,0.029l1.269,0.699l-0.686,2.744l0,2.405l-0.18,1.891l1.15,-0.033c0.284,0.009 0.564,-0.104 0.764,-0.321c0.58,-0.627 1.222,-1.321 1.787,-1.933c0.97,-1.049 2.417,-1.516 3.817,-1.231c1.293,0.263 2.662,0.541 2.662,0.541c0,0 -6.793,6.793 -10.364,10.364c-1.368,1.368 -3.223,2.136 -5.157,2.136l-0.454,0c-4.984,0 -9.025,-4.041 -9.025,-9.025l0,-2.232l-0.624,-1.872l1.019,-0.911l1.692,-0.444l0.161,0.484l1.706,0l-0.699,-2.798l1.485,-0.714l1.425,-0.014l0.631,2.526l1.204,0l0,-3l1.44,-0.378l1.56,0.378l0,2Zm-9.233,0.557l-1.408,1.03l-1.302,0.326l-0.967,-2.899l1.231,-0.976l1.48,-0.379l0.966,2.898Zm14.919,-5.12l-0.757,3.03l-1.528,0.035l-1.383,-0.763l0.758,-3.03l1.505,0.028l1.405,0.7Zm-10.764,2.067l-1.343,0.69l-1.567,0.038l-0.757,-3.03l1.381,-0.795l1.529,0.067l0.757,3.03Zm-5.441,-0.804l-1.256,1.048l-1.454,0.308l-0.062,-0.186c-0.184,-0.552 -0.118,-1.158 0.181,-1.658c0.599,-1.003 1.559,-2.61 1.559,-2.61l1.032,3.098Zm10.519,0.3l-1.473,0.284l-1.527,-0.284l0,-3l1.676,-0.449l1.324,0.449l0,3Zm5.929,-2.533l-1.653,0.003l-1.258,-0.731l0.457,-1.826c0.039,-0.154 0.095,-0.304 0.17,-0.445c0.174,-0.333 0.443,-0.613 0.769,-0.801c0.96,-0.556 1.921,-1.111 2.881,-1.667l-1.366,5.467Zm-12.007,-0.963l-1.436,0.729l-1.474,-0.001l-0.354,-1.418c-0.043,-0.174 -0.064,-0.352 -0.06,-0.531c0.011,-0.455 0.18,-0.9 0.474,-1.247c0.575,-0.679 1.15,-1.357 1.724,-2.036l1.126,4.504Zm6.078,-0.504l-1.442,0.449l-1.558,-0.449c0,-0.643 0,-1.286 0,-1.93c0,-0.498 0.19,-0.984 0.526,-1.351c0.109,-0.118 0.231,-0.224 0.365,-0.313c0.703,-0.469 1.406,-0.937 2.109,-1.406l0,5Z" style="fill:#f10dc3;"/>
            <path d="M7.087,15.516l-2.711,1.355l-0.319,-0.958l2.71,-1.356l0.32,0.959Zm13.842,-3.049l-0.243,0.97l-2.91,-0.728l0.242,-0.97l2.911,0.728Zm-9.764,0.007l-2.91,0.728l-0.243,-0.97l2.91,-0.728l0.243,0.97Zm-5.364,-0.815l-2.711,1.355l-0.319,-0.958l2.71,-1.356l0.32,0.959Zm10.199,0.341l-3,0l0,-1l3,0l0,1Zm5.929,-3.533l-0.243,0.97l-2.91,-0.728l0.242,-0.97l2.911,0.728Zm-11.764,0.007l-2.91,0.728l-0.243,-0.97l2.91,-0.728l0.243,0.97Zm2.835,-0.474l0,-1l3,0l0,1l-3,0Z" style="fill:#a90eb1;fill-rule:nonzero;"/>
            <path d="M20,18.586l0,0.859c0,0.411 0.252,0.781 0.636,0.931c0.108,0.043 0.221,0.065 0.334,0.068l-2.47,2.47l-0.708,-0.708c-0.475,-0.475 -1.12,-0.742 -1.792,-0.742c-0.672,0 -1.317,0.267 -1.792,0.742c-1.036,1.036 -2.001,2.001 -2.001,2.001c-0.39,0.39 -1.024,0.39 -1.414,0c-0.39,-0.39 -0.39,-1.024 0,-1.414c0,0 0.965,-0.965 2.001,-2.001c0.85,-0.85 2.004,-1.328 3.206,-1.328c0.864,0 1.702,0.246 2.421,0.7l1.579,-1.578Z" style="fill:#a90eb1;"/>
        </g>
    </g>
</svg>
