<?xml version="1.0" encoding="UTF-8" standalone="no"?>
<!DOCTYPE svg PUBLIC "-//W3C//DTD SVG 1.1//EN" "http://www.w3.org/Graphics/SVG/1.1/DTD/svg11.dtd">
<svg width="100%" height="100%" viewBox="0 0 32 32" version="1.1" xmlns="http://www.w3.org/2000/svg" xmlns:xlink="http://www.w3.org/1999/xlink" xml:space="preserve" xmlns:serif="http://www.serif.com/" style="fill-rule:evenodd;clip-rule:evenodd;stroke-linecap:round;stroke-miterlimit:2;">
    <rect id="metal--clw-" serif:id="metal [clw]" x="0" y="0" width="32" height="32" style="fill:none;"/>
    <clipPath id="_clip1">
        <rect x="0" y="0" width="32" height="32"/>
    </clipPath>
    <g clip-path="url(#_clip1)">
        <g id="outline">
            <path d="M25,0l0,16.772c0.077,0.044 0.076,0.045 0.156,0.095l0.117,0.077c0.188,0.135 0.368,0.278 0.533,0.441c0.489,0.482 0.85,1.088 1.039,1.748c0.091,0.315 0.136,0.635 0.153,0.962c0.016,0.909 0.007,1.818 0.001,2.728c-0.005,0.306 -0.022,0.612 -0.056,0.916c-0.076,0.679 -0.227,1.349 -0.45,1.995c-0.271,0.787 -0.648,1.536 -1.118,2.223c-0.411,0.6 -0.892,1.151 -1.431,1.639c-1.324,1.199 -2.989,1.999 -4.752,2.285c-0.377,0.061 -0.757,0.098 -1.139,0.113c-0.085,0.003 -0.17,0.005 -0.255,0.006l-0.78,0c-1.108,-0.001 -2.213,-0.167 -3.271,-0.496c-1.15,-0.358 -2.24,-0.907 -3.213,-1.617c-1.757,-1.281 -3.117,-3.079 -3.864,-5.121c-0.299,-0.815 -0.5,-1.665 -0.598,-2.527c-0.043,-0.373 -0.064,-0.747 -0.071,-1.122c-0.007,-1.018 -0.005,-2.036 -0.003,-3.054l-1.901,-5.702l-0.045,-0.143c-0.045,-0.157 -0.088,-0.313 -0.123,-0.473c-0.057,-0.263 -0.096,-0.529 -0.117,-0.798c-0.067,-0.853 0.051,-1.719 0.343,-2.523c0.129,-0.353 0.293,-0.689 0.481,-1.014l2.221,-3.717c0.598,0.065 1.197,0.13 1.795,0.195l1.906,5.719c0.399,-0.618 0.99,-1.105 1.682,-1.372c0.376,-0.146 0.771,-0.219 1.173,-0.234c0.087,-0.001 0.087,-0.001 0.174,0c0.402,0.015 0.797,0.088 1.173,0.234c0.262,0.101 0.511,0.233 0.741,0.394c0.252,-0.176 0.527,-0.32 0.819,-0.424c0.352,-0.126 0.719,-0.19 1.093,-0.204c0.087,-0.001 0.087,-0.001 0.174,0c0.139,0.005 0.276,0.017 0.413,0.037l0,-1.394l0.002,-0.136c0.014,-0.395 0.058,-0.785 0.145,-1.171c0.172,-0.762 0.494,-1.49 0.944,-2.129c0.197,-0.281 0.418,-0.539 0.657,-0.784l2.424,-2.424l2.828,0Z"/>
        </g>
        <g id="emoji">
            <path d="M23.894,18.447c0.678,0.339 1.106,1.032 1.106,1.789c0,0.657 0,1.524 0,2.471c0,1.934 -0.768,3.789 -2.136,5.157c-1.368,1.368 -3.223,2.136 -5.157,2.136c-0.226,0 -0.454,0 -0.682,0c-4.984,0 -9.025,-4.041 -9.025,-9.025c0,-4.903 0,-9.975 0,-9.975l15,0l0,5l-1,1l1,1c0,0 0.432,0.216 0.894,0.447Z" style="fill:#f10dc3;"/>
            <clipPath id="_clip2">
                <path d="M23.894,18.447c0.678,0.339 1.106,1.032 1.106,1.789c0,0.657 0,1.524 0,2.471c0,1.934 -0.768,3.789 -2.136,5.157c-1.368,1.368 -3.223,2.136 -5.157,2.136c-0.226,0 -0.454,0 -0.682,0c-4.984,0 -9.025,-4.041 -9.025,-9.025c0,-4.903 0,-9.975 0,-9.975l15,0l0,5l-1,1l1,1c0,0 0.432,0.216 0.894,0.447Z"/>
            </clipPath>
            <g clip-path="url(#_clip2)">
                <path d="M16.5,21l-2,4" style="fill:none;stroke:#a90eb1;stroke-width:2px;"/>
                <path d="M24,8.999l-17,0.001l4.5,9l12.5,-0.001l0,-9Z" style="fill:#640082;"/>
                <path d="M13.562,9.001c0.287,0.01 0.569,0.063 0.838,0.167c0.692,0.267 1.24,0.842 1.474,1.547c0.083,0.252 0.123,0.514 0.126,0.779l0,11.257l-0.469,0.194c-1.235,-1.235 -2.485,-2.455 -3.704,-3.705c-0.101,-0.109 -0.196,-0.222 -0.281,-0.343c-0.225,-0.32 -0.387,-0.684 -0.473,-1.066c-0.043,-0.192 -0.065,-0.388 -0.072,-0.585c-0.024,-1.936 -0.024,-3.872 0,-5.808c0.01,-0.287 0.063,-0.569 0.167,-0.838c0.244,-0.634 0.748,-1.15 1.375,-1.41c0.247,-0.102 0.506,-0.16 0.771,-0.183c0.083,-0.005 0.165,-0.007 0.248,-0.006Z" style="fill:#640082;fill-rule:nonzero;"/>
            </g>
            <path d="M23,2.001c0,0 -0.987,0.987 -1.829,1.829c-0.75,0.749 -1.171,1.766 -1.171,2.827c0,0.694 0,1.343 0,1.343l0.5,0.5l-0.5,0.5l0,4l0.5,0.5l-0.5,0.5l0,2.001l3,0l0,-2.001l-0.5,-0.5l0.5,-0.5l0,-4l-0.5,-0.5l0.5,-0.5l0,-5.999Z" style="fill:#f10dc3;"/>
            <g>
                <rect x="20" y="8" width="3" height="1" style="fill:#a90eb1;"/>
                <rect x="20" y="13" width="3" height="1" style="fill:#a90eb1;"/>
            </g>
            <path d="M16,11.499c0,-0.397 0.158,-0.779 0.439,-1.06c0.282,-0.282 0.663,-0.44 1.061,-0.44c0.398,0 0.779,0.158 1.061,0.44c0.281,0.281 0.439,0.663 0.439,1.06c0,1.778 0,4.501 0,4.501l-3,0l0,-4.501Z" style="fill:#f10dc3;"/>
            <path d="M12,11.5c0,-0.398 0.158,-0.779 0.439,-1.061c0.282,-0.281 0.663,-0.439 1.061,-0.439c0.398,0 0.779,0.158 1.061,0.439c0.281,0.282 0.439,0.663 0.439,1.061c0,3.01 0,9.5 0,9.5c0,0 -1.541,-1.541 -2.414,-2.414c-0.375,-0.375 -0.586,-0.884 -0.586,-1.414c0,-1.339 0,-3.995 0,-5.672Z" style="fill:#f10dc3;"/>
            <path d="M10.381,15.4l0.533,1.6l-1.363,5.397l-2.016,-6.048l1.465,-0.849l1.381,-0.1Zm-0.316,-0.949l-1.065,1.049l-1.781,-0.1l-0.784,-2.351l1.065,-1.049l1.781,0.1l0.784,2.351Zm-1.1,-3.3l-1.465,0.849l-1.381,0.1l-0.12,-0.359c-0.369,-1.105 -0.237,-2.316 0.361,-3.316c0.531,-0.889 1.088,-1.822 1.088,-1.822l1.517,4.548Z" style="fill:#f10dc3;"/>
            <path d="M10.381,15.4l-2.846,0.949l-0.316,-0.949l2.846,-0.949l0.316,0.949Zm-1.1,-3.3l-2.846,0.949l-0.316,-0.949l2.846,-0.949l0.316,0.949Z" style="fill:#a90eb1;"/>
            <path d="M23,17l-9,0c0,0 0.273,0.682 0.617,1.543c0.835,2.088 2.858,3.457 5.107,3.457c0.173,0 0.276,0 0.276,0l2,2" style="fill:#f10dc3;stroke:#640082;stroke-width:2px;stroke-linecap:butt;"/>
        </g>
    </g>
</svg>
