<?xml version="1.0" encoding="UTF-8" standalone="no"?>
<!DOCTYPE svg PUBLIC "-//W3C//DTD SVG 1.1//EN" "http://www.w3.org/Graphics/SVG/1.1/DTD/svg11.dtd">
<svg width="100%" height="100%" viewBox="0 0 32 32" version="1.1" xmlns="http://www.w3.org/2000/svg" xmlns:xlink="http://www.w3.org/1999/xlink" xml:space="preserve" xmlns:serif="http://www.serif.com/" style="fill-rule:evenodd;clip-rule:evenodd;stroke-linejoin:round;stroke-miterlimit:2;">
    <rect id="middle_finger--clw-" serif:id="middle_finger [clw]" x="0" y="0" width="32" height="32" style="fill:none;"/>
    <clipPath id="_clip1">
        <rect x="0" y="0" width="32" height="32"/>
    </clipPath>
    <g clip-path="url(#_clip1)">
        <g id="outline">
            <path d="M19,0l0,11.038c0.137,-0.02 0.274,-0.032 0.413,-0.037c0.087,-0.001 0.087,-0.001 0.174,0c0.402,0.015 0.797,0.088 1.173,0.234c0.428,0.165 0.821,0.414 1.153,0.729c0.096,0.092 0.188,0.19 0.273,0.292c0.044,-0.018 0.089,-0.035 0.134,-0.051c0.352,-0.126 0.72,-0.19 1.093,-0.204c0.087,-0.001 0.087,-0.001 0.174,0c0.402,0.015 0.797,0.088 1.173,0.234c0.401,0.154 0.771,0.383 1.089,0.67c0.447,0.405 0.785,0.924 0.974,1.496c0.116,0.351 0.173,0.717 0.177,1.087l0,1.012l0,0c0,1.538 0.009,3.075 -0.001,4.612c-0.002,0.137 -0.007,0.273 -0.013,0.41c-0.02,0.362 -0.053,0.722 -0.107,1.081c-0.119,0.8 -0.327,1.587 -0.618,2.341c-0.536,1.389 -1.355,2.664 -2.394,3.73c-1.134,1.163 -2.525,2.068 -4.048,2.634c-0.928,0.346 -1.903,0.565 -2.89,0.651c-0.322,0.028 -0.644,0.038 -0.967,0.041l-0.918,0l-0.171,-0.002c-0.3,-0.008 -0.598,-0.026 -0.896,-0.06c-0.585,-0.068 -1.164,-0.192 -1.726,-0.37c-1.887,-0.597 -3.559,-1.803 -4.721,-3.406c-0.312,-0.43 -0.587,-0.888 -0.821,-1.365c-0.106,-0.216 -0.2,-0.436 -0.291,-0.658c-0.389,-1.008 -0.77,-2.018 -1.138,-3.033c-0.06,-0.177 -0.113,-0.356 -0.155,-0.539c-0.082,-0.36 -0.124,-0.73 -0.125,-1.1c0,-0.237 -0.006,-0.479 0.006,-0.717c0.016,-0.327 0.065,-0.652 0.145,-0.97c0.168,-0.672 0.478,-1.307 0.904,-1.854c0.429,-0.55 0.974,-1.009 1.589,-1.337c0.113,-0.06 0.228,-0.116 0.345,-0.167c0,-0.671 0.004,-1.341 0.012,-2.011c0.014,-0.381 0.08,-0.756 0.212,-1.114c0.351,-0.96 1.124,-1.733 2.084,-2.084c0.358,-0.132 0.733,-0.198 1.114,-0.212c0.089,-0.001 0.089,-0.001 0.178,0c0.129,0.005 0.258,0.016 0.385,0.033c0.002,-1.435 0.009,-2.87 0.027,-4.305c0.004,-0.099 0.004,-0.099 0.01,-0.198c0.023,-0.261 0.064,-0.519 0.135,-0.772c0.13,-0.471 0.348,-0.917 0.639,-1.31c0.115,-0.156 0.243,-0.302 0.378,-0.44l4.009,-4.009l1.828,0Z"/>
        </g>
        <g id="emoji">
            <path d="M14,6.828c0,-0.53 0.211,-1.039 0.586,-1.414c0.873,-0.873 2.414,-2.414 2.414,-2.414l0,17l-3,0l0,-13.172Z" style="fill:#f10dc3;"/>
            <path d="M10,14.498c0,-0.397 0.158,-0.778 0.439,-1.059c0.281,-0.281 0.662,-0.439 1.059,-0.439c0.001,0 0.003,0 0.004,0c0.397,0 0.778,0.158 1.059,0.439c0.281,0.281 0.439,0.662 0.439,1.059c0,1.777 0,4.502 0,4.502l-3,0l0,-4.502Z" style="fill:#f10dc3;"/>
            <path d="M18,14.498c0,-0.827 0.671,-1.498 1.498,-1.498c0.001,0 0.003,0 0.004,0c0.827,0 1.498,0.671 1.498,1.498c0,1.473 0,3.502 0,3.502l-3,0l0,-3.502Z" style="fill:#f10dc3;"/>
            <path d="M22,15.5c0,-0.398 0.158,-0.779 0.439,-1.061c0.282,-0.281 0.663,-0.439 1.061,-0.439c0.398,0 0.779,0.158 1.061,0.439c0.281,0.282 0.439,0.663 0.439,1.061c0,1.135 0,2.5 0,2.5l-3,0l0,-2.5Z" style="fill:#f10dc3;"/>
            <path d="M10,18c-1.657,0 -3,1.343 -3,3c0,0.167 0,0.321 0,0.456c0,0.36 0.065,0.717 0.191,1.053c0.222,0.594 0.614,1.636 1.034,2.759c1.068,2.846 3.789,4.732 6.829,4.732c0.302,0 0.61,0 0.921,0c2.394,0 4.689,-0.951 6.382,-2.643c1.692,-1.693 2.643,-3.988 2.643,-6.382c0,-2.709 0,-4.975 0,-4.975l-5,0l0,-1l-10,0l0,3l0,0Z" style="fill:#f10dc3;"/>
            <clipPath id="_clip2">
                <path d="M10,18c-1.657,0 -3,1.343 -3,3c0,0.167 0,0.321 0,0.456c0,0.36 0.065,0.717 0.191,1.053c0.222,0.594 0.614,1.636 1.034,2.759c1.068,2.846 3.789,4.732 6.829,4.732c0.302,0 0.61,0 0.921,0c2.394,0 4.689,-0.951 6.382,-2.643c1.692,-1.693 2.643,-3.988 2.643,-6.382c0,-2.709 0,-4.975 0,-4.975l-5,0l0,-1l-10,0l0,3l0,0Z"/>
            </clipPath>
            <g clip-path="url(#_clip2)">
                <path d="M10,18l-2,-2l0,4c0,0.265 0.105,0.52 0.293,0.707c0.187,0.188 0.442,0.293 0.707,0.293c0.552,0 1,-0.448 1,-1c0,-0.873 0,-2 0,-2Z" style="fill:#a90eb1;"/>
            </g>
        </g>
    </g>
</svg>
