<?xml version="1.0" encoding="UTF-8" standalone="no"?>
<!DOCTYPE svg PUBLIC "-//W3C//DTD SVG 1.1//EN" "http://www.w3.org/Graphics/SVG/1.1/DTD/svg11.dtd">
<svg width="100%" height="100%" viewBox="0 0 32 32" version="1.1" xmlns="http://www.w3.org/2000/svg" xmlns:xlink="http://www.w3.org/1999/xlink" xml:space="preserve" xmlns:serif="http://www.serif.com/" style="fill-rule:evenodd;clip-rule:evenodd;stroke-linejoin:round;stroke-miterlimit:2;">
    <rect id="nail_polish--clw-" serif:id="nail_polish [clw]" x="0" y="0" width="32" height="32" style="fill:none;"/>
    <clipPath id="_clip1">
        <rect x="0" y="0" width="32" height="32"/>
    </clipPath>
    <g clip-path="url(#_clip1)">
        <g id="outline">
            <path d="M27.434,6.605c0.577,0.593 0.746,1.508 0.355,2.289c0,0 -0.814,1.629 -1.404,2.808c-0.58,1.161 -1.522,2.103 -2.683,2.683c-0.428,0.214 -0.808,0.404 -0.808,0.404c-0.563,0.281 -1.225,0.281 -1.788,0l-1.345,-0.672l-1.336,4.677c0.047,0.324 0.075,0.649 0.084,0.977l0.001,0.053c0.738,-0.534 1.556,-0.954 2.425,-1.244l5.03,-1.676l-2.545,8.906c0.234,1.636 -0.066,3.308 -0.804,4.87l-0.042,0.088l-0.737,1.232l-21.837,0l0,-17.828l4.417,-4.418c0.988,-0.988 2.193,-1.732 3.518,-2.174l5.03,-1.676l-2.54,8.89c0.044,0.291 0.07,0.582 0.081,0.872l1.911,-1.912c0.988,-0.988 2.193,-1.732 3.518,-2.174l0.138,-0.046c-0.048,-0.171 -0.073,-0.351 -0.073,-0.534c0,-0.758 0.428,-1.45 1.106,-1.789c0,0 0.379,-0.189 0.807,-0.404c0.387,-0.193 0.701,-0.507 0.894,-0.894c0.59,-1.179 1.404,-2.807 1.404,-2.807c0.391,-0.782 1.225,-1.196 2.045,-1.09l2.008,-4.016l6.472,0l-3.302,6.605Z"/>
        </g>
        <g id="emoji">
            <path d="M16.372,18.697c0.429,1.935 -0.11,4.041 -1.615,5.546l-5.757,5.757l-7,0l0,-3l7.207,-7.207c0.142,0.662 7.165,-1.096 7.165,-1.096Zm5,7c0.321,1.446 0.101,2.988 -0.66,4.303l-9.712,0l3.207,-3.207c1.069,-0.153 7.165,-1.096 7.165,-1.096Zm-13,-11c0.429,1.935 -0.11,4.041 -1.615,5.546l-4.757,4.757l0,-7.007c0.742,0.024 6.372,-3.296 6.372,-3.296Z" style="fill:#f10dc3;"/>
            <path d="M14.207,28.207c-0.39,-0.39 -0.39,-1.024 0,-1.414c1.112,-1.112 3.279,-3.279 4.625,-4.625c0.768,-0.768 1.705,-1.347 2.736,-1.691c0.726,-0.242 1.432,-0.477 1.432,-0.477c0,0 -1.069,3.742 -1.644,5.754c-0.234,0.817 -0.671,1.561 -1.272,2.162c-0.29,0.29 -0.624,0.624 -0.963,0.963c-0.562,0.562 -1.325,0.878 -2.121,0.878c-0.796,0 -1.559,-0.316 -2.121,-0.878c-0.24,-0.24 -0.471,-0.471 -0.672,-0.672Zm-5,-7c-0.39,-0.39 -0.39,-1.024 0,-1.414c1.112,-1.112 3.279,-3.279 4.625,-4.625c0.768,-0.768 1.705,-1.347 2.736,-1.691c0.726,-0.242 1.432,-0.477 1.432,-0.477c0,0 -1.069,3.742 -1.644,5.754c-0.234,0.817 -0.671,1.561 -1.272,2.162c-0.29,0.29 -0.624,0.624 -0.963,0.963c-0.562,0.562 -1.325,0.878 -2.121,0.878c-0.796,0 -1.559,-0.316 -2.121,-0.878c-0.24,-0.24 -0.471,-0.471 -0.672,-0.672Zm-7.207,-6.207l3.832,-3.832c0.768,-0.768 1.705,-1.347 2.736,-1.691c0.726,-0.242 1.432,-0.477 1.432,-0.477c0,0 -1.069,3.742 -1.644,5.754c-0.234,0.817 -0.671,1.561 -1.272,2.162c-0.29,0.29 -0.624,0.624 -0.963,0.963c-0.562,0.562 -1.325,0.878 -2.121,0.878c-0.74,0 -1.451,-0.273 -2,-0.764l0,-2.993Z" style="fill:#5353f9;"/>
            <path d="M27.5,2l-2,0l-4.5,9l2,0l4.5,-9Z" style="fill:#575757;"/>
            <path d="M18,11c0,0 0.379,-0.19 0.807,-0.404c0.775,-0.387 1.402,-1.014 1.789,-1.789c0.59,-1.178 1.404,-2.807 1.404,-2.807l4,2c0,0 -0.814,1.629 -1.404,2.807c-0.387,0.775 -1.014,1.402 -1.789,1.789c-0.428,0.214 -0.807,0.404 -0.807,0.404l-4,-2Z" style="fill:#5353f9;"/>
        </g>
    </g>
</svg>
