<?xml version="1.0" encoding="UTF-8" standalone="no"?>
<!DOCTYPE svg PUBLIC "-//W3C//DTD SVG 1.1//EN" "http://www.w3.org/Graphics/SVG/1.1/DTD/svg11.dtd">
<svg width="100%" height="100%" viewBox="0 0 32 32" version="1.1" xmlns="http://www.w3.org/2000/svg" xmlns:xlink="http://www.w3.org/1999/xlink" xml:space="preserve" xmlns:serif="http://www.serif.com/" style="fill-rule:evenodd;clip-rule:evenodd;stroke-linecap:round;stroke-miterlimit:2;">
    <rect id="ok_hand--clw-" serif:id="ok_hand [clw]" x="0" y="0" width="32" height="32" style="fill:none;"/>
    <clipPath id="_clip1">
        <rect x="0" y="0" width="32" height="32"/>
    </clipPath>
    <g clip-path="url(#_clip1)">
        <g id="outline">
            <path d="M19.745,30c1.084,0 2.084,-0.585 2.615,-1.529c1.042,-1.852 2.737,-4.865 3.381,-6.01c0.17,-0.302 0.259,-0.643 0.259,-0.99c0,-0.861 0,-2.471 0,-2.471l-6,0c0,0 -0.575,1.726 -0.853,2.56c-0.093,0.279 -0.305,0.503 -0.578,0.612c-0.735,0.294 -2.259,0.904 -3.345,1.338c-0.742,0.297 -1.591,0.123 -2.157,-0.443c-0.521,-0.521 -1.067,-1.067 -1.067,-1.067l0,-0.343c0,-1.061 -0.421,-2.078 -1.172,-2.829c-1.18,-1.18 -2.828,-2.828 -2.828,-2.828l0,5.675c0,0.215 0.035,0.429 0.103,0.633c0.177,0.532 0.542,1.627 0.748,2.244c0.098,0.295 0.263,0.562 0.483,0.782c0.835,0.835 3.025,3.025 4.08,4.08c0.375,0.375 0.884,0.586 1.414,0.586c1.179,0 3.369,0 4.917,0Z" style="fill:none;stroke:#000;stroke-width:4px;"/>
            <path d="M24.894,17.211l-1.788,3.578l-7.578,-3.789l-1.528,0l0,-4l2,0c0.31,0 0.617,0.072 0.894,0.211c1.707,0.853 8,4 8,4Z" style="fill:none;fill-rule:nonzero;stroke:#000;stroke-width:4px;stroke-linecap:butt;stroke-miterlimit:3;"/>
            <path d="M9,13c0,0 0.965,1.286 1.8,2.4c0.755,1.007 1.941,1.6 3.2,1.6c0,0 0,0 0,0l0,-4l-5,0Z" style="fill:none;stroke:#000;stroke-width:4px;stroke-miterlimit:3;"/>
            <path d="M25.789,9.106c0.139,0.277 0.211,0.584 0.211,0.894c0,1.782 0,8 0,8l-4,0l0,-7.528c0,0 -0.503,-1.006 -1.048,-2.096c-0.828,-1.657 -0.673,-3.635 0.403,-5.142c0.485,-0.679 0.881,-1.234 0.881,-1.234c1.132,2.264 2.405,4.809 3.553,7.106Z" style="fill:none;fill-rule:nonzero;stroke:#000;stroke-width:4px;stroke-linecap:butt;stroke-miterlimit:3;"/>
            <path d="M24.828,10l-2.828,2.828c0,0 -1.944,-1.944 -3.365,-3.365c-0.918,-0.917 -1.333,-2.224 -1.113,-3.503c0.226,-1.318 0.478,-2.788 0.478,-2.788c2.276,2.276 4.552,4.552 6.828,6.828Z" style="fill:#565656;fill-rule:nonzero;stroke:#000;stroke-width:4px;stroke-linecap:butt;stroke-miterlimit:3;"/>
        </g>
        <g id="emoji">
            <path d="M19.737,30c1.089,0 2.093,-0.587 2.627,-1.536c1.042,-1.853 2.734,-4.86 3.377,-6.003c0.17,-0.302 0.259,-0.643 0.259,-0.99c0,-0.861 0,-2.471 0,-2.471l-6,0c0,0 -0.575,1.726 -0.853,2.56c-0.093,0.279 -0.305,0.503 -0.578,0.612c-0.735,0.294 -2.259,0.904 -3.345,1.338c-0.742,0.297 -1.591,0.123 -2.157,-0.443c-0.521,-0.521 -1.067,-1.067 -1.067,-1.067l0,-0.343c0,-1.061 -0.421,-2.078 -1.172,-2.829c-1.18,-1.18 -2.828,-2.828 -2.828,-2.828l0,5.675c0,0.215 0.035,0.429 0.103,0.633c0.177,0.532 0.542,1.627 0.748,2.244c0.098,0.295 0.263,0.562 0.483,0.782c0.835,0.835 3.025,3.025 4.08,4.08c0.375,0.375 0.884,0.586 1.414,0.586c1.177,0 3.361,0 4.909,0Z" style="fill:#f10dc3;"/>
            <path d="M24.828,10l-2.828,2.828c0,0 -1.944,-1.944 -3.365,-3.365c-0.918,-0.917 -1.333,-2.224 -1.113,-3.503c0.226,-1.318 0.478,-2.788 0.478,-2.788c2.276,2.276 4.552,4.552 6.828,6.828Z" style="fill:#a90eb1;fill-rule:nonzero;"/>
            <path d="M23.528,19l-1.528,-0.764l0,-4.472l0.156,-0.764l3.685,2l0.159,0.764l0,3.236l-2.472,0Z" style="fill:#a90eb1;"/>
            <path d="M22,13.764l0,-3.292c0,0 -0.503,-1.006 -1.048,-2.096c-0.828,-1.657 -0.673,-3.635 0.403,-5.142c0.485,-0.679 0.881,-1.234 0.881,-1.234c1.132,2.264 2.405,4.809 3.553,7.106c0.139,0.277 0.211,0.584 0.211,0.894l0,5.764l-4,-2Z" style="fill:#f10dc3;"/>
            <path d="M24.894,17.211l-1.788,3.578l-7.578,-3.789l-1.528,0l0,-4l2,0c0.31,0 0.617,0.072 0.894,0.211c1.707,0.853 8,4 8,4Z" style="fill:#f10dc3;fill-rule:nonzero;"/>
            <path d="M9,13c0,0 0.965,1.286 1.8,2.4c0.755,1.007 1.941,1.6 3.2,1.6c0.551,0 1,0 1,0l0,-4l-6,0Z" style="fill:#f10dc3;"/>
            <circle cx="24" cy="19" r="2" style="fill:#f10dc3;"/>
        </g>
    </g>
</svg>
