<?xml version="1.0" encoding="UTF-8" standalone="no"?>
<!DOCTYPE svg PUBLIC "-//W3C//DTD SVG 1.1//EN" "http://www.w3.org/Graphics/SVG/1.1/DTD/svg11.dtd">
<svg width="100%" height="100%" viewBox="0 0 32 32" version="1.1" xmlns="http://www.w3.org/2000/svg" xmlns:xlink="http://www.w3.org/1999/xlink" xml:space="preserve" xmlns:serif="http://www.serif.com/" style="fill-rule:evenodd;clip-rule:evenodd;stroke-miterlimit:3;">
    <rect id="open_hands--clw-" serif:id="open_hands [clw]" x="0" y="0" width="32" height="32" style="fill:none;"/>
    <clipPath id="_clip1">
        <rect x="0" y="0" width="32" height="32"/>
    </clipPath>
    <g clip-path="url(#_clip1)">
        <g id="outline">
            <path d="M9.007,15.806l0.521,-0.26l-1.861,-3.738c-0.138,-0.276 -0.16,-0.596 -0.062,-0.889c0.229,-0.682 0.632,-1.885 0.632,-1.885l4.153,8.34c0,0 0.15,-0.819 0.29,-1.582c0.148,-0.806 0.668,-1.497 1.402,-1.863c0.477,-0.237 0.09,-0.045 0.09,-0.045c0,0 0.821,3.836 0.817,6.728c-0.004,1.609 -0.914,3.078 -2.354,3.794c-0.165,0.082 -0.333,0.166 -0.505,0.252c-2.597,1.293 -5.752,0.236 -7.046,-2.362l-2.893,-5.81c-0.137,-0.276 -0.16,-0.596 -0.061,-0.889c0.228,-0.681 0.631,-1.885 0.631,-1.885l2.596,5.213l0.521,-0.26l-2.381,-4.781c-0.137,-0.276 -0.159,-0.596 -0.061,-0.889c0.228,-0.681 0.631,-1.884 0.631,-1.884l3.115,6.254l0.521,-0.259l-2.38,-4.781c-0.138,-0.276 -0.16,-0.596 -0.062,-0.889c0.228,-0.682 0.632,-1.885 0.632,-1.885l3.114,6.255Z" style="fill:none;stroke:#000;stroke-width:4px;"/>
            <path d="M22.993,15.806l-0.521,-0.26l1.861,-3.738c0.138,-0.276 0.16,-0.596 0.062,-0.889c-0.229,-0.682 -0.632,-1.885 -0.632,-1.885l-4.153,8.34c0,0 -0.15,-0.819 -0.29,-1.582c-0.148,-0.806 -0.668,-1.497 -1.402,-1.863c-0.477,-0.237 -0.09,-0.045 -0.09,-0.045c0,0 -0.821,3.836 -0.817,6.728c0.004,1.609 0.914,3.078 2.354,3.794c0.165,0.082 0.333,0.166 0.505,0.252c2.597,1.293 5.752,0.236 7.046,-2.362l2.893,-5.81c0.137,-0.276 0.16,-0.596 0.061,-0.889c-0.228,-0.681 -0.631,-1.885 -0.631,-1.885l-2.596,5.213l-0.521,-0.26l2.381,-4.781c0.137,-0.276 0.159,-0.596 0.061,-0.889c-0.228,-0.681 -0.631,-1.884 -0.631,-1.884l-3.115,6.254l-0.521,-0.259l2.38,-4.781c0.138,-0.276 0.16,-0.596 0.062,-0.889c-0.228,-0.682 -0.632,-1.885 -0.632,-1.885l-3.114,6.255Z" style="fill:none;stroke:#000;stroke-width:4px;"/>
            <path d="M17.486,13.715c1.188,0.592 0.03,1.71 0.269,3.016c0.227,1.234 0.47,2.56 0.47,2.56l-4.45,0c0,0 0.243,-1.326 0.47,-2.56c0.239,-1.306 -0.919,-2.424 0.269,-3.016c0.771,-0.384 1.486,-0.74 1.486,-0.74l1.486,0.74Z" style="fill:none;stroke:#000;stroke-width:4px;"/>
        </g>
        <g id="emoji">
            <g>
                <path d="M12.452,17.036c0.056,-0.309 0.144,-0.786 0.228,-1.244c0.148,-0.806 0.668,-1.497 1.402,-1.863c0.477,-0.237 0.918,-0.457 0.918,-0.457c0,0 -0.007,4.248 -0.011,7.14c-0.004,1.609 -0.914,3.078 -2.354,3.794c-0.165,0.082 -0.333,0.166 -0.505,0.252c-2.597,1.293 -5.752,0.236 -7.046,-2.362l-1.291,-2.593l0.131,-0.39l-0.391,-0.131l-1.038,-2.085l0.131,-0.39l-0.39,-0.131l-0.045,-0.09c-0.137,-0.276 -0.16,-0.596 -0.061,-0.889c0.228,-0.681 0.631,-1.885 0.631,-1.885l1.038,2.085l-0.13,0.391l0.39,0.13l1.038,2.085l-0.131,0.391l0.391,0.131l0.521,-0.26l-0.26,-0.521l0.131,-0.391l-0.39,-0.13l-1.038,-2.085l0.13,-0.391l-0.39,-0.13l-0.564,-1.133c-0.137,-0.276 -0.159,-0.596 -0.061,-0.889c0.228,-0.681 0.631,-1.884 0.631,-1.884l1.558,3.127l-0.131,0.39l0.39,0.131l1.038,2.085l-0.13,0.39l0.39,0.131l0.521,-0.259l-0.259,-0.522l0.13,-0.39l-0.39,-0.131l-1.298,-2.606l0.131,-0.39l-0.39,-0.131l-0.304,-0.611c-0.138,-0.276 -0.16,-0.596 -0.062,-0.889c0.228,-0.682 0.632,-1.885 0.632,-1.885l1.297,2.606l-0.13,0.391l0.39,0.131l1.298,2.606l-0.131,0.39l0.39,0.131l0.521,-0.26l0.131,-0.39l-0.39,-0.131l-1.298,-2.606l0.131,-0.39l-0.39,-0.131l-0.045,-0.09c-0.138,-0.276 -0.16,-0.596 -0.062,-0.889c0.229,-0.682 0.632,-1.885 0.632,-1.885l1.038,2.085l-0.131,0.391l0.391,0.13l1.297,2.606l-0.13,0.391l0.39,0.131l0.198,0.398l-0.004,2.569c-0.62,0.1 -1.197,0.416 -1.619,0.88c-0.223,0.246 -0.402,0.531 -0.526,0.838c-0.088,0.219 -0.149,0.45 -0.18,0.685c-0.015,0.117 -0.021,0.235 -0.023,0.354c-0.001,0.533 -0.017,1.066 -0.001,1.6c0.003,0.036 0.008,0.072 0.016,0.108c0.022,0.083 0.061,0.161 0.116,0.227c0.038,0.047 0.085,0.087 0.136,0.12c0.167,0.106 0.381,0.12 0.56,0.036c0.055,-0.026 0.106,-0.06 0.151,-0.102c0.053,-0.05 0.097,-0.11 0.128,-0.177c0.037,-0.078 0.053,-0.161 0.056,-0.247c0.001,-0.534 -0.004,-1.068 0.003,-1.602c0.007,-0.18 0.04,-0.358 0.104,-0.528c0.16,-0.432 0.505,-0.782 0.934,-0.951c0.168,-0.066 0.344,-0.101 0.525,-0.111c0.042,-0.002 0.083,-0.002 0.125,-0.002c0.22,0.01 0.438,0.024 0.658,0.036l0.003,-1.863Z" style="fill:#f10dc3;"/>
                <path d="M12.39,17.374l0.062,-0.338l-0.003,1.863c-0.22,-0.012 -0.438,-0.026 -0.658,-0.036c-0.042,0 -0.083,0 -0.125,0.002c-0.181,0.01 -0.357,0.045 -0.525,0.111c-0.429,0.169 -0.774,0.519 -0.934,0.951c-0.064,0.17 -0.097,0.348 -0.104,0.528c-0.007,0.534 -0.002,1.068 -0.003,1.602c-0.003,0.086 -0.019,0.169 -0.056,0.247c-0.031,0.067 -0.075,0.127 -0.128,0.177c-0.045,0.042 -0.096,0.076 -0.151,0.102c-0.179,0.084 -0.393,0.07 -0.56,-0.036c-0.051,-0.033 -0.098,-0.073 -0.136,-0.12c-0.055,-0.066 -0.094,-0.144 -0.116,-0.227c-0.008,-0.036 -0.013,-0.072 -0.016,-0.108c-0.016,-0.534 0,-1.067 0.001,-1.6c0.002,-0.119 0.008,-0.237 0.023,-0.354c0.031,-0.235 0.092,-0.466 0.18,-0.685c0.124,-0.307 0.303,-0.592 0.526,-0.838c0.422,-0.464 0.999,-0.78 1.619,-0.88l0.004,-2.569l1.1,2.208Z" style="fill:#a90eb1;"/>
                <g>
                    <path d="M9.275,11.119l-1.563,0.779l0.259,0.521l1.564,-0.779l-0.26,-0.521Z" style="fill:#a90eb1;"/>
                    <path d="M10.832,14.246l-1.563,0.779l0.259,0.521l1.564,-0.778l-0.26,-0.522Z" style="fill:#a90eb1;"/>
                    <path d="M7.19,12.157l-1.563,0.779l0.259,0.521l1.564,-0.778l-0.26,-0.522Z" style="fill:#a90eb1;"/>
                    <path d="M8.748,15.285l-1.564,0.778l0.26,0.521l1.563,-0.778l-0.259,-0.521Z" style="fill:#a90eb1;"/>
                    <path d="M5.625,14.238l-1.564,0.779l0.26,0.521l1.563,-0.779l-0.259,-0.521Z" style="fill:#a90eb1;"/>
                    <path d="M6.922,16.844l-1.563,0.779l0.259,0.521l1.564,-0.779l-0.26,-0.521Z" style="fill:#a90eb1;"/>
                    <path d="M3.799,15.797l-1.563,0.779l0.259,0.521l1.564,-0.779l-0.26,-0.521Z" style="fill:#a90eb1;"/>
                    <path d="M5.097,18.403l-1.564,0.779l0.26,0.521l1.564,-0.778l-0.26,-0.522Z" style="fill:#a90eb1;"/>
                </g>
            </g>
            <g>
                <path d="M20.71,15.166l0.198,-0.398l0.39,-0.131l-0.13,-0.391l1.297,-2.606l0.391,-0.13l-0.131,-0.391l1.038,-2.085c0,0 0.403,1.203 0.632,1.885c0.098,0.293 0.076,0.613 -0.062,0.889l-0.045,0.09l-0.39,0.131l0.131,0.39l-1.298,2.606l-0.39,0.131l0.131,0.39l0.521,0.26l0.39,-0.131l-0.131,-0.39l1.298,-2.606l0.39,-0.131l-0.13,-0.391l1.297,-2.606c0,0 0.404,1.203 0.632,1.885c0.098,0.293 0.076,0.613 -0.062,0.889l-0.304,0.611l-0.39,0.131l0.131,0.39l-1.298,2.606l-0.39,0.131l0.13,0.39l-0.259,0.522l0.521,0.259l0.39,-0.131l-0.13,-0.39l1.038,-2.085l0.39,-0.131l-0.131,-0.39l1.558,-3.127c0,0 0.403,1.203 0.631,1.884c0.098,0.293 0.076,0.613 -0.061,0.889l-0.564,1.133l-0.39,0.13l0.13,0.391l-1.038,2.085l-0.39,0.13l0.131,0.391l-0.26,0.521l0.521,0.26l0.391,-0.131l-0.131,-0.391l1.038,-2.085l0.39,-0.13l-0.13,-0.391l1.038,-2.085c0,0 0.403,1.204 0.631,1.885c0.099,0.293 0.076,0.613 -0.061,0.889l-0.045,0.09l-0.39,0.131l0.131,0.39l-1.038,2.085l-0.391,0.131l0.131,0.39l-1.291,2.593c-1.294,2.598 -4.449,3.655 -7.046,2.362c-0.172,-0.086 -0.34,-0.17 -0.505,-0.252c-1.44,-0.716 -2.35,-2.185 -2.354,-3.794c-0.004,-2.892 -0.011,-7.14 -0.011,-7.14c0,0 0.441,0.22 0.918,0.457c0.734,0.366 1.254,1.057 1.402,1.863c0.084,0.458 0.172,0.935 0.228,1.244l0.074,0.816c0.219,-0.011 1.088,-2.686 1.088,-2.686Z" style="fill:#f10dc3;"/>
                <path d="M20.71,15.166l0.004,2.569c0.62,0.1 1.197,0.416 1.619,0.88c0.223,0.246 0.402,0.531 0.526,0.838c0.088,0.219 0.149,0.45 0.18,0.685c0.015,0.117 0.021,0.235 0.023,0.354c0.001,0.533 0.017,1.066 0.001,1.6c-0.003,0.036 -0.008,0.072 -0.016,0.108c-0.022,0.083 -0.061,0.161 -0.116,0.227c-0.038,0.047 -0.085,0.087 -0.136,0.12c-0.167,0.106 -0.381,0.12 -0.56,0.036c-0.055,-0.026 -0.106,-0.06 -0.151,-0.102c-0.053,-0.05 -0.097,-0.11 -0.128,-0.177c-0.037,-0.078 -0.053,-0.161 -0.056,-0.247c-0.001,-0.534 0.004,-1.068 -0.003,-1.602c-0.007,-0.18 -0.04,-0.358 -0.104,-0.528c-0.16,-0.432 -0.505,-0.782 -0.934,-0.951c-0.168,-0.066 -0.344,-0.101 -0.525,-0.111c-0.042,-0.002 -0.083,-0.002 -0.125,-0.002c-0.22,0.01 -0.438,0.024 -0.658,0.036l-0.003,-1.863l0.062,0.338l1.1,-2.208Z" style="fill:#a90eb1;"/>
                <g>
                    <path d="M22.725,11.119l1.563,0.779l-0.259,0.521l-1.564,-0.779l0.26,-0.521Z" style="fill:#a90eb1;"/>
                    <path d="M21.168,14.246l1.563,0.779l-0.259,0.521l-1.564,-0.778l0.26,-0.522Z" style="fill:#a90eb1;"/>
                    <path d="M24.81,12.157l1.563,0.779l-0.259,0.521l-1.564,-0.778l0.26,-0.522Z" style="fill:#a90eb1;"/>
                    <path d="M23.252,15.285l1.564,0.778l-0.26,0.521l-1.563,-0.778l0.259,-0.521Z" style="fill:#a90eb1;"/>
                    <path d="M26.375,14.238l1.564,0.779l-0.26,0.521l-1.563,-0.779l0.259,-0.521Z" style="fill:#a90eb1;"/>
                    <path d="M25.078,16.844l1.563,0.779l-0.259,0.521l-1.564,-0.779l0.26,-0.521Z" style="fill:#a90eb1;"/>
                    <path d="M28.201,15.797l1.563,0.779l-0.259,0.521l-1.564,-0.779l0.26,-0.521Z" style="fill:#a90eb1;"/>
                    <path d="M26.903,18.403l1.564,0.779l-0.26,0.521l-1.564,-0.778l0.26,-0.522Z" style="fill:#a90eb1;"/>
                </g>
            </g>
        </g>
    </g>
</svg>
