<?xml version="1.0" encoding="UTF-8" standalone="no"?>
<!DOCTYPE svg PUBLIC "-//W3C//DTD SVG 1.1//EN" "http://www.w3.org/Graphics/SVG/1.1/DTD/svg11.dtd">
<svg width="100%" height="100%" viewBox="0 0 32 32" version="1.1" xmlns="http://www.w3.org/2000/svg" xmlns:xlink="http://www.w3.org/1999/xlink" xml:space="preserve" xmlns:serif="http://www.serif.com/" style="fill-rule:evenodd;clip-rule:evenodd;stroke-linecap:round;stroke-miterlimit:2;">
    <rect id="palms_up--clw-" serif:id="palms_up [clw]" x="0" y="0" width="32" height="32" style="fill:none;"/>
    <clipPath id="_clip1">
        <rect x="0" y="0" width="32" height="32"/>
    </clipPath>
    <g clip-path="url(#_clip1)">
        <g id="outline">
            <path d="M8.459,4.606l0,-2.029l2.595,2.666l0,-0.735l4.946,5.083l4.946,-5.083l0,0.735l2.595,-2.666l0,2.029l2.596,-2.668l0,3.304l2.593,-2.665l0,7.966l3.27,-2.568l0,10.495c0,4.629 -3.713,8.402 -8.342,8.476l-0.157,0.002l-0.061,-0.008l-0.586,0c-2.943,-0.001 -5.509,-1.62 -6.854,-4.017c-1.345,2.397 -3.911,4.016 -6.854,4.017l-0.586,0l-0.061,0.008l-0.157,-0.002c-4.629,-0.074 -8.342,-3.847 -8.342,-8.476l0,-10.495l3.27,2.568l0,-7.966l2.593,2.665l0,-3.304l2.596,2.668Z"/>
        </g>
        <g id="emoji">
            <path d="M18.946,15.858l0.649,0l0,-0.649l0.188,-0.321l-0.188,-0.32l0.001,-2.523l0.139,-0.332l-0.139,-0.309c0,0 -0.001,-0.956 -0.001,-1.376c0,-0.339 0.132,-0.664 0.368,-0.906c0.564,-0.58 1.578,-1.622 1.578,-1.622l0,3.904l-0.184,0.314l0.185,0.327l-0.001,2.523l-0.102,0.328l0.102,0.313l0.648,0l0,-0.648l0.203,-0.315l-0.203,-0.326l0,-3.17l0.228,-0.32l-0.226,-0.321l0,-0.719c0,-0.339 0.132,-0.664 0.368,-0.907c0.564,-0.58 1.578,-1.621 1.578,-1.621l0,3.247l-0.175,0.321l0.173,0.32l0,3.17l-0.135,0.326l0.135,0.315l0.649,0l0.216,-0.315l-0.216,-0.326l0,-3.17l0.216,-0.314l-0.216,-0.327c0,0 0,0.026 0,-0.081c0,-0.339 0.132,-0.664 0.368,-0.906c0.564,-0.58 1.578,-1.622 1.578,-1.622l0,2.609l-0.221,0.321l0.221,0.32l0,3.17l-0.199,0.326l0.199,0.315l0,3.939l0.001,0c0.191,0 0.375,-0.076 0.51,-0.211c0.136,-0.136 0.212,-0.32 0.212,-0.511c0,-0.74 0,-1.897 0,-2.717c0,-0.614 0.282,-1.194 0.765,-1.573c0.75,-0.589 1.782,-1.4 1.782,-1.4l0,6.382c0,3.537 -2.837,6.42 -6.374,6.476c-0.048,-0.007 -0.096,-0.006 -0.144,-0.006c-0.205,0 -0.415,0 -0.628,0c-3.233,-0.001 -5.854,-2.621 -5.854,-5.855c0,-1.757 0,-3.227 0,-3.227l0.187,-0.32l-0.187,-0.321l0.001,-2.523l0.206,-0.301l-0.206,-0.34l-0.001,-0.093c0,-0.339 0.132,-0.664 0.368,-0.907c0.564,-0.58 1.578,-1.621 1.578,-1.621l0,2.621l-0.18,0.337l0.18,0.304l0,2.523l-0.195,0.321l0.195,0.32Z" style="fill:#f10dc3;"/>
            <clipPath id="_clip2">
                <path d="M18.946,15.858l0.649,0l0,-0.649l0.188,-0.321l-0.188,-0.32l0.001,-2.523l0.139,-0.332l-0.139,-0.309c0,0 -0.001,-0.956 -0.001,-1.376c0,-0.339 0.132,-0.664 0.368,-0.906c0.564,-0.58 1.578,-1.622 1.578,-1.622l0,3.904l-0.184,0.314l0.185,0.327l-0.001,2.523l-0.102,0.328l0.102,0.313l0.648,0l0,-0.648l0.203,-0.315l-0.203,-0.326l0,-3.17l0.228,-0.32l-0.226,-0.321l0,-0.719c0,-0.339 0.132,-0.664 0.368,-0.907c0.564,-0.58 1.578,-1.621 1.578,-1.621l0,3.247l-0.175,0.321l0.173,0.32l0,3.17l-0.135,0.326l0.135,0.315l0.649,0l0.216,-0.315l-0.216,-0.326l0,-3.17l0.216,-0.314l-0.216,-0.327c0,0 0,0.026 0,-0.081c0,-0.339 0.132,-0.664 0.368,-0.906c0.564,-0.58 1.578,-1.622 1.578,-1.622l0,2.609l-0.221,0.321l0.221,0.32l0,3.17l-0.199,0.326l0.199,0.315l0,3.939l0.001,0c0.191,0 0.375,-0.076 0.51,-0.211c0.136,-0.136 0.212,-0.32 0.212,-0.511c0,-0.74 0,-1.897 0,-2.717c0,-0.614 0.282,-1.194 0.765,-1.573c0.75,-0.589 1.782,-1.4 1.782,-1.4l0,6.382c0,3.537 -2.837,6.42 -6.374,6.476c-0.048,-0.007 -0.096,-0.006 -0.144,-0.006c-0.205,0 -0.415,0 -0.628,0c-3.233,-0.001 -5.854,-2.621 -5.854,-5.855c0,-1.757 0,-3.227 0,-3.227l0.187,-0.32l-0.187,-0.321l0.001,-2.523l0.206,-0.301l-0.206,-0.34l-0.001,-0.093c0,-0.339 0.132,-0.664 0.368,-0.907c0.564,-0.58 1.578,-1.621 1.578,-1.621l0,2.621l-0.18,0.337l0.18,0.304l0,2.523l-0.195,0.321l0.195,0.32Z"/>
            </clipPath>
            <g clip-path="url(#_clip2)">
                <path d="M26.75,18.485l0.403,-1.321l0.05,-4.076l-4.786,3.25l0,6.5l4.333,0l0,-4.353Z" style="fill:none;"/>
                <clipPath id="_clip3">
                    <path d="M26.75,18.485l0.403,-1.321l0.05,-4.076l-4.786,3.25l0,6.5l4.333,0l0,-4.353Z"/>
                </clipPath>
                <g clip-path="url(#_clip3)">
                    <path d="M27.453,15.255l0,1.917c0,0.457 -0.371,0.828 -0.828,0.828c-0.225,0 -0.481,0 -0.747,0c-0.631,0 -1.236,0.251 -1.681,0.696c-0.446,0.446 -0.697,1.051 -0.697,1.682c0,0.622 0,1.122 0,1.122" style="fill:none;stroke:#a90eb1;stroke-width:1px;"/>
                </g>
            </g>
            <rect x="24.784" y="13.92" width="1.946" height="0.641" style="fill:#a90eb1;"/>
            <rect x="22.189" y="13.92" width="1.946" height="0.641" style="fill:#a90eb1;"/>
            <rect x="19.595" y="14.568" width="1.946" height="0.641" style="fill:#a90eb1;"/>
            <rect x="17" y="15.217" width="1.946" height="0.641" style="fill:#a90eb1;"/>
            <rect x="24.784" y="10.109" width="1.946" height="0.641" style="fill:#a90eb1;"/>
            <rect x="22.191" y="10.109" width="1.946" height="0.641" style="fill:#a90eb1;"/>
            <rect x="19.596" y="11.404" width="1.946" height="0.641" style="fill:#a90eb1;"/>
            <rect x="17.001" y="12.053" width="1.946" height="0.641" style="fill:#a90eb1;"/>
            <path d="M13.054,15.858l-0.649,0l0,-0.649l-0.188,-0.321l0.188,-0.32l-0.001,-2.523l-0.139,-0.332l0.139,-0.309c0,0 0.001,-0.956 0.001,-1.376c0,-0.339 -0.132,-0.664 -0.368,-0.906c-0.564,-0.58 -1.578,-1.622 -1.578,-1.622l0,3.904l0.184,0.314l-0.185,0.327l0.001,2.523l0.102,0.328l-0.102,0.313l-0.648,0l0,-0.648l-0.203,-0.315l0.203,-0.326l0,-3.17l-0.228,-0.32l0.226,-0.321l0,-0.719c0,-0.339 -0.132,-0.664 -0.368,-0.907c-0.564,-0.58 -1.578,-1.621 -1.578,-1.621l0,3.247l0.175,0.321l-0.173,0.32l0,3.17l0.135,0.326l-0.135,0.315l-0.649,0l-0.216,-0.315l0.216,-0.326l0,-3.17l-0.216,-0.314l0.216,-0.327c0,0 0,0.026 0,-0.081c0,-0.339 -0.132,-0.664 -0.368,-0.906c-0.564,-0.58 -1.578,-1.622 -1.578,-1.622l0,2.609l0.221,0.321l-0.221,0.32l0,3.17l0.199,0.326l-0.199,0.315l0,3.939l-0.001,0c-0.191,0 -0.375,-0.076 -0.51,-0.211c-0.136,-0.136 -0.212,-0.32 -0.212,-0.511c0,-0.74 0,-1.897 0,-2.717c0,-0.614 -0.282,-1.194 -0.765,-1.573c-0.75,-0.589 -1.782,-1.4 -1.782,-1.4l0,6.382c0,3.537 2.837,6.42 6.374,6.476c0.048,-0.007 0.096,-0.006 0.144,-0.006c0.205,0 0.415,0 0.628,0c3.233,-0.001 5.854,-2.621 5.854,-5.855c0,-1.757 0,-3.227 0,-3.227l-0.187,-0.32l0.187,-0.321l-0.001,-2.523l-0.206,-0.301l0.206,-0.34l0.001,-0.093c0,-0.339 -0.132,-0.664 -0.368,-0.907c-0.564,-0.58 -1.578,-1.621 -1.578,-1.621l0,2.621l0.18,0.337l-0.18,0.304l0,2.523l0.195,0.321l-0.195,0.32Z" style="fill:#f10dc3;"/>
            <clipPath id="_clip4">
                <path d="M13.054,15.858l-0.649,0l0,-0.649l-0.188,-0.321l0.188,-0.32l-0.001,-2.523l-0.139,-0.332l0.139,-0.309c0,0 0.001,-0.956 0.001,-1.376c0,-0.339 -0.132,-0.664 -0.368,-0.906c-0.564,-0.58 -1.578,-1.622 -1.578,-1.622l0,3.904l0.184,0.314l-0.185,0.327l0.001,2.523l0.102,0.328l-0.102,0.313l-0.648,0l0,-0.648l-0.203,-0.315l0.203,-0.326l0,-3.17l-0.228,-0.32l0.226,-0.321l0,-0.719c0,-0.339 -0.132,-0.664 -0.368,-0.907c-0.564,-0.58 -1.578,-1.621 -1.578,-1.621l0,3.247l0.175,0.321l-0.173,0.32l0,3.17l0.135,0.326l-0.135,0.315l-0.649,0l-0.216,-0.315l0.216,-0.326l0,-3.17l-0.216,-0.314l0.216,-0.327c0,0 0,0.026 0,-0.081c0,-0.339 -0.132,-0.664 -0.368,-0.906c-0.564,-0.58 -1.578,-1.622 -1.578,-1.622l0,2.609l0.221,0.321l-0.221,0.32l0,3.17l0.199,0.326l-0.199,0.315l0,3.939l-0.001,0c-0.191,0 -0.375,-0.076 -0.51,-0.211c-0.136,-0.136 -0.212,-0.32 -0.212,-0.511c0,-0.74 0,-1.897 0,-2.717c0,-0.614 -0.282,-1.194 -0.765,-1.573c-0.75,-0.589 -1.782,-1.4 -1.782,-1.4l0,6.382c0,3.537 2.837,6.42 6.374,6.476c0.048,-0.007 0.096,-0.006 0.144,-0.006c0.205,0 0.415,0 0.628,0c3.233,-0.001 5.854,-2.621 5.854,-5.855c0,-1.757 0,-3.227 0,-3.227l-0.187,-0.32l0.187,-0.321l-0.001,-2.523l-0.206,-0.301l0.206,-0.34l0.001,-0.093c0,-0.339 -0.132,-0.664 -0.368,-0.907c-0.564,-0.58 -1.578,-1.621 -1.578,-1.621l0,2.621l0.18,0.337l-0.18,0.304l0,2.523l0.195,0.321l-0.195,0.32Z"/>
            </clipPath>
            <g clip-path="url(#_clip4)">
                <path d="M5.25,18.485l-0.403,-1.321l-0.05,-4.076l4.786,3.25l0,6.5l-4.333,0l0,-4.353Z" style="fill:none;"/>
                <clipPath id="_clip5">
                    <path d="M5.25,18.485l-0.403,-1.321l-0.05,-4.076l4.786,3.25l0,6.5l-4.333,0l0,-4.353Z"/>
                </clipPath>
                <g clip-path="url(#_clip5)">
                    <path d="M4.547,15.255l0,1.917c0,0.457 0.371,0.828 0.828,0.828c0.225,0 0.481,0 0.747,0c0.631,0 1.236,0.251 1.681,0.696c0.446,0.446 0.697,1.051 0.697,1.682c0,0.622 0,1.122 0,1.122" style="fill:none;stroke:#a90eb1;stroke-width:1px;"/>
                </g>
            </g>
            <rect x="5.27" y="13.92" width="1.946" height="0.641" style="fill:#a90eb1;"/>
            <rect x="7.865" y="13.92" width="1.946" height="0.641" style="fill:#a90eb1;"/>
            <rect x="10.459" y="14.568" width="1.946" height="0.641" style="fill:#a90eb1;"/>
            <rect x="13.054" y="15.217" width="1.946" height="0.641" style="fill:#a90eb1;"/>
            <rect x="5.27" y="10.109" width="1.946" height="0.641" style="fill:#a90eb1;"/>
            <rect x="7.863" y="10.109" width="1.946" height="0.641" style="fill:#a90eb1;"/>
            <rect x="10.458" y="11.404" width="1.946" height="0.641" style="fill:#a90eb1;"/>
            <rect x="13.053" y="12.053" width="1.946" height="0.641" style="fill:#a90eb1;"/>
        </g>
    </g>
</svg>
