<?xml version="1.0" encoding="UTF-8" standalone="no"?>
<!DOCTYPE svg PUBLIC "-//W3C//DTD SVG 1.1//EN" "http://www.w3.org/Graphics/SVG/1.1/DTD/svg11.dtd">
<svg width="100%" height="100%" viewBox="0 0 32 32" version="1.1" xmlns="http://www.w3.org/2000/svg" xmlns:xlink="http://www.w3.org/1999/xlink" xml:space="preserve" xmlns:serif="http://www.serif.com/" style="fill-rule:evenodd;clip-rule:evenodd;stroke-linejoin:round;stroke-miterlimit:2;">
    <path id="pinched_fingers--clw-" serif:id="pinched_fingers [clw]" d="M32,32l0,-32l-32,0l0,32l32,0Z" style="fill:none;"/>
    <clipPath id="_clip1">
        <path d="M32,32l0,-32l-32,0l0,32l32,0Z"/>
    </clipPath>
    <g clip-path="url(#_clip1)">
        <g id="outline">
            <path d="M18.983,2.514l1.219,-2.514l2.44,0l0.728,1.334l1.089,-1.334l1.956,0l3.335,12.785c0.087,0.332 0.151,0.669 0.193,1.009c0.038,0.216 0.057,0.435 0.057,0.655c0,1.497 0,6.341 0,8.498c0,1.537 -1.046,2.876 -2.536,3.249c-3.768,0.941 -16.951,4.237 -22.494,5.623c-1.195,0.299 -2.461,0.03 -3.432,-0.728c-0.971,-0.758 -1.538,-1.921 -1.538,-3.153l0,-3.584c0,-1.636 0.996,-3.106 2.514,-3.714c0.925,-0.37 2.155,-0.861 2.947,-1.179l0.433,-1.082c1.001,-2.502 2.983,-4.484 5.485,-5.485c0.34,-0.136 0.664,-0.265 0.944,-0.377c0.086,-0.035 0.168,-0.077 0.245,-0.126l4.393,-8.785c0.078,-0.153 0.173,-0.296 0.286,-0.425c0.293,-0.335 0.697,-0.565 1.134,-0.647c0.193,-0.036 0.39,-0.042 0.586,-0.022l0.016,0.002Z"/>
        </g>
        <g id="emoji">
            <path d="M18.922,4.975c-0.092,0.25 1.749,6.585 1.749,6.585c-0.085,0.427 -0.231,0.843 -0.438,1.236c-1.495,2.833 -4.233,8.022 -4.233,8.022l-4,0.182l0,-4c0,0 1.652,-2.478 1.953,-2.93c0.031,-0.047 0.06,-0.095 0.085,-0.145c0.446,-0.894 4.712,-9.425 4.712,-9.425l0.175,0.467l-0.003,0.008Z" style="fill:#f10dc3;"/>
            <path d="M20.469,9.098c0.108,0.291 0.188,0.591 0.235,0.898c0.08,0.519 0.067,1.048 -0.033,1.564l-1.572,-3.162c-0.15,-0.305 -0.266,-0.626 -0.341,-0.957c-0.127,-0.556 -0.142,-1.135 -0.045,-1.696c0.046,-0.263 0.117,-0.52 0.209,-0.77l1.547,4.123Z" style="fill:#640082;"/>
            <path d="M25,2.5c0,0 -1.282,1.569 -2.294,2.809c-0.763,0.934 -1.063,2.163 -0.818,3.344c0.445,2.138 1.112,5.347 1.112,5.347l0,1l5,0l0,-0.266c0,-0.487 -0.062,-0.973 -0.185,-1.444c-0.654,-2.507 -2.815,-10.79 -2.815,-10.79Z" style="fill:#a90eb1;"/>
            <path d="M2,27.938c0,0.616 0.284,1.198 0.769,1.577c0.486,0.379 1.119,0.513 1.716,0.364c5.543,-1.386 18.726,-4.682 22.494,-5.624c0.6,-0.15 1.021,-0.689 1.021,-1.308c0,-2.157 0,-7.001 0,-8.498c0,-0.295 -0.074,-0.585 -0.215,-0.843c-1.13,-2.072 -6.33,-11.606 -6.33,-11.606c0,0 -0.837,1.726 -1.474,3.04c-0.447,0.921 -0.442,1.997 0.014,2.913c0.894,1.799 2.358,4.744 2.843,5.721c0.107,0.214 0.162,0.451 0.162,0.69c0,0.519 0,1.475 0,2.082c0,0.364 -0.085,0.724 -0.248,1.049c-0.119,0.238 -0.263,0.528 -0.394,0.789c-0.232,0.464 -0.613,0.836 -1.082,1.056c-0.158,0.074 -0.336,0.158 -0.528,0.248c-0.739,0.347 -1.616,0.199 -2.2,-0.373c-0.583,-0.571 -0.75,-1.444 -0.419,-2.191c0.39,-0.878 0.677,-1.524 0.677,-1.524l-0.056,-8c0,0 -2.882,3.944 -4.156,5.688c-0.388,0.53 -0.918,0.941 -1.528,1.186c-0.28,0.112 -0.604,0.241 -0.944,0.377c-1.994,0.798 -3.573,2.377 -4.371,4.371c-0.159,0.398 -0.309,0.773 -0.433,1.082c-0.203,0.508 -0.606,0.911 -1.114,1.114c-0.793,0.317 -2.022,0.809 -2.947,1.179c-0.759,0.304 -1.257,1.039 -1.257,1.857c0,0.997 0,2.382 0,3.584Z" style="fill:#f10dc3;"/>
        </g>
    </g>
</svg>
