<?xml version="1.0" encoding="UTF-8" standalone="no"?>
<!DOCTYPE svg PUBLIC "-//W3C//DTD SVG 1.1//EN" "http://www.w3.org/Graphics/SVG/1.1/DTD/svg11.dtd">
<svg width="100%" height="100%" viewBox="0 0 32 32" version="1.1" xmlns="http://www.w3.org/2000/svg" xmlns:xlink="http://www.w3.org/1999/xlink" xml:space="preserve" xmlns:serif="http://www.serif.com/" style="fill-rule:evenodd;clip-rule:evenodd;stroke-linejoin:round;stroke-miterlimit:2;">
    <rect id="point_down--clw-" serif:id="point_down [clw]" x="0" y="0" width="32" height="32" style="fill:none;"/>
    <clipPath id="_clip1">
        <rect x="0" y="0" width="32" height="32"/>
    </clipPath>
    <g clip-path="url(#_clip1)">
        <g id="outline">
            <path d="M16,32l0,-9.038c-0.137,0.02 -0.274,0.032 -0.413,0.037c-0.087,0.001 -0.087,0.001 -0.174,0c-0.402,-0.015 -0.797,-0.088 -1.173,-0.234c-0.262,-0.101 -0.511,-0.233 -0.741,-0.394c-0.229,0.16 -0.476,0.293 -0.739,0.394c-0.376,0.146 -0.771,0.219 -1.173,0.234c-0.087,0.001 -0.087,0.001 -0.174,0c-0.431,-0.016 -0.853,-0.1 -1.252,-0.265c-0.524,-0.217 -0.985,-0.561 -1.345,-0.991c-0.045,0.018 -0.09,0.036 -0.136,0.052c-0.352,0.126 -0.719,0.19 -1.093,0.204c-0.087,0.001 -0.087,0.001 -0.174,0c-0.402,-0.015 -0.797,-0.088 -1.173,-0.234c-0.482,-0.186 -0.92,-0.479 -1.276,-0.852c-0.355,-0.373 -0.625,-0.824 -0.787,-1.313c-0.116,-0.352 -0.172,-0.717 -0.177,-1.087l0,-1.034c0,-2.15 -0.012,-4.301 0,-6.451l0,-0.028l0,0l0.001,-0.117c0.003,-0.142 0.007,-0.283 0.013,-0.424c0.021,-0.372 0.057,-0.742 0.113,-1.111c0.124,-0.809 0.338,-1.604 0.638,-2.366c0.586,-1.485 1.498,-2.836 2.653,-3.938c1.093,-1.041 2.398,-1.855 3.816,-2.374c0.946,-0.347 1.94,-0.562 2.945,-0.638c0.262,-0.02 0.524,-0.029 0.787,-0.032l1.033,0l0.003,0c0.16,0.001 0.159,0.001 0.319,0.006c0.272,0.012 0.543,0.031 0.814,0.064c0.533,0.066 1.06,0.178 1.574,0.335c1.731,0.53 3.29,1.569 4.444,2.964c0.31,0.374 0.59,0.773 0.838,1.192c0.11,0.186 0.211,0.376 0.31,0.568l7.435,14.871c-1.861,0 -3.722,0.016 -5.583,-0.001c-0.114,-0.003 -0.114,-0.003 -0.229,-0.008c-0.414,-0.026 -0.824,-0.083 -1.227,-0.184c-0.577,-0.144 -1.126,-0.371 -1.645,-0.661l-0.041,-0.024c0.01,2.383 0.017,4.766 -0.012,7.149c-0.01,0.263 -0.039,0.523 -0.097,0.78c-0.114,0.509 -0.329,0.994 -0.629,1.421c-0.131,0.185 -0.278,0.357 -0.436,0.519l-3.009,3.009l-2.828,0Z"/>
        </g>
        <g id="emoji">
            <path d="M28.5,18c0,0 -3.614,-7.229 -5.984,-11.969c-1.236,-2.47 -3.761,-4.031 -6.523,-4.031c-0.316,0 -0.639,0 -0.968,0c-4.984,0 -9.025,4.041 -9.025,9.025c0,2.709 0,4.975 0,4.975l5,0l0,1l3,0l0,1l7,0l0,-5c0,0 0.633,1.266 1.262,2.525c0.759,1.517 2.309,2.475 4.006,2.475c1.154,0 2.232,0 2.232,0Z" style="fill:#f10dc3;"/>
            <clipPath id="_clip2">
                <path d="M28.5,18c0,0 -3.614,-7.229 -5.984,-11.969c-1.236,-2.47 -3.761,-4.031 -6.523,-4.031c-0.316,0 -0.639,0 -0.968,0c-4.984,0 -9.025,4.041 -9.025,9.025c0,2.709 0,4.975 0,4.975l5,0l0,1l3,0l0,1l7,0l0,-5c0,0 0.633,1.266 1.262,2.525c0.759,1.517 2.309,2.475 4.006,2.475c1.154,0 2.232,0 2.232,0Z"/>
            </clipPath>
            <g clip-path="url(#_clip2)">
                <path d="M21,20.5l2,0l0,-8.5c0,-0.552 -0.448,-1 -1,-1c-0.552,0 -1,0.448 -1,1c0,2.44 0,8.5 0,8.5Z" style="fill:#a90eb1;"/>
            </g>
            <path d="M14,19.5c0,0.828 0.672,1.5 1.5,1.5c0.828,0 1.5,-0.672 1.5,-1.5c0,-1.777 0,-4.5 0,-4.5l-3,0l0,4.5Z" style="fill:#f10dc3;"/>
            <path d="M10,19.5c0,0.828 0.672,1.5 1.5,1.5c0.828,0 1.5,-0.672 1.5,-1.5c0,-1.777 0,-4.5 0,-4.5l-3,0l0,4.5Z" style="fill:#f10dc3;"/>
            <path d="M6,18.5c0,0.398 0.158,0.779 0.439,1.061c0.282,0.281 0.663,0.439 1.061,0.439c0.398,0 0.779,-0.158 1.061,-0.439c0.281,-0.282 0.439,-0.663 0.439,-1.061l0,-3.5l-3,0l0,3.5Z" style="fill:#f10dc3;"/>
            <path d="M18,15l0,15c0,0 1.541,-1.541 2.414,-2.414c0.375,-0.375 0.586,-0.884 0.586,-1.414c0,-2.715 0,-11.172 0,-11.172" style="fill:#f10dc3;"/>
        </g>
    </g>
</svg>
