<?xml version="1.0" encoding="UTF-8" standalone="no"?>
<!DOCTYPE svg PUBLIC "-//W3C//DTD SVG 1.1//EN" "http://www.w3.org/Graphics/SVG/1.1/DTD/svg11.dtd">
<svg width="100%" height="100%" viewBox="0 0 32 32" version="1.1" xmlns="http://www.w3.org/2000/svg" xmlns:xlink="http://www.w3.org/1999/xlink" xml:space="preserve" xmlns:serif="http://www.serif.com/" style="fill-rule:evenodd;clip-rule:evenodd;stroke-linejoin:round;stroke-miterlimit:2;">
    <path id="point_left--clw-" serif:id="point_left [clw]" d="M0,0l0,32l32,0l0,-32l-32,0Z" style="fill:none;"/>
    <clipPath id="_clip1">
        <path d="M0,0l0,32l32,0l0,-32l-32,0Z"/>
    </clipPath>
    <g clip-path="url(#_clip1)">
        <g id="outline">
            <path d="M0,16l9.038,0c-0.02,0.137 -0.032,0.274 -0.037,0.413c-0.001,0.087 -0.001,0.087 0,0.174c0.015,0.402 0.088,0.797 0.234,1.173c0.101,0.262 0.233,0.511 0.394,0.741c-0.16,0.229 -0.293,0.476 -0.394,0.739c-0.146,0.376 -0.219,0.771 -0.234,1.173c-0.001,0.087 -0.001,0.087 0,0.174c0.016,0.431 0.1,0.853 0.265,1.252c0.217,0.524 0.561,0.985 0.991,1.345c-0.018,0.045 -0.036,0.09 -0.052,0.136c-0.126,0.352 -0.19,0.719 -0.204,1.093c-0.001,0.087 -0.001,0.087 0,0.174c0.015,0.402 0.088,0.797 0.234,1.173c0.186,0.482 0.479,0.92 0.852,1.276c0.373,0.355 0.824,0.625 1.313,0.787c0.352,0.116 0.717,0.172 1.087,0.177l1.034,0c2.15,0 4.301,0.012 6.451,0l0.028,0l0,0l0.117,-0.001c0.142,-0.003 0.283,-0.007 0.424,-0.013c0.372,-0.021 0.742,-0.057 1.111,-0.113c0.809,-0.124 1.604,-0.338 2.366,-0.638c1.485,-0.586 2.836,-1.498 3.938,-2.653c1.041,-1.093 1.855,-2.398 2.374,-3.816c0.347,-0.946 0.562,-1.94 0.638,-2.945c0.02,-0.262 0.029,-0.524 0.032,-0.787l0,-1.033l0,-0.003c-0.001,-0.16 -0.001,-0.159 -0.006,-0.319c-0.012,-0.272 -0.031,-0.543 -0.064,-0.814c-0.066,-0.533 -0.178,-1.06 -0.335,-1.574c-0.53,-1.731 -1.569,-3.29 -2.964,-4.444c-0.374,-0.31 -0.773,-0.59 -1.192,-0.838c-0.186,-0.11 -0.376,-0.211 -0.568,-0.31l-14.871,-7.435c0,1.861 -0.016,3.722 0.001,5.583c0.003,0.114 0.003,0.114 0.008,0.229c0.026,0.414 0.083,0.824 0.184,1.227c0.144,0.577 0.371,1.126 0.661,1.645l0.024,0.041c-2.383,-0.01 -4.766,-0.017 -7.149,0.012c-0.263,0.01 -0.523,0.039 -0.78,0.097c-0.509,0.114 -0.994,0.329 -1.421,0.629c-0.185,0.131 -0.357,0.278 -0.519,0.436l-3.009,3.009l0,2.828Z"/>
        </g>
        <g id="emoji">
            <path d="M14,3.5c0,0 7.229,3.614 11.969,5.984c2.47,1.236 4.031,3.761 4.031,6.523c0,0.316 0,0.639 0,0.968c0,4.984 -4.041,9.025 -9.025,9.025c-2.709,0 -4.975,0 -4.975,0l0,-5l-1,0l0,-3l-1,0l0,-7l5,0c0,0 -1.266,-0.633 -2.525,-1.262c-1.517,-0.759 -2.475,-2.309 -2.475,-4.006c0,-1.154 0,-2.232 0,-2.232Z" style="fill:#f10dc3;"/>
            <clipPath id="_clip2">
                <path d="M14,3.5c0,0 7.229,3.614 11.969,5.984c2.47,1.236 4.031,3.761 4.031,6.523c0,0.316 0,0.639 0,0.968c0,4.984 -4.041,9.025 -9.025,9.025c-2.709,0 -4.975,0 -4.975,0l0,-5l-1,0l0,-3l-1,0l0,-7l5,0c0,0 -1.266,-0.633 -2.525,-1.262c-1.517,-0.759 -2.475,-2.309 -2.475,-4.006c0,-1.154 0,-2.232 0,-2.232Z"/>
            </clipPath>
            <g clip-path="url(#_clip2)">
                <path d="M11.5,11l0,-2l8.5,0c0.552,0 1,0.448 1,1c0,0.552 -0.448,1 -1,1c-2.44,0 -8.5,0 -8.5,0Z" style="fill:#a90eb1;"/>
            </g>
            <path d="M12.5,18c-0.828,0 -1.5,-0.672 -1.5,-1.5c0,-0.828 0.672,-1.5 1.5,-1.5c1.777,0 4.5,0 4.5,0l0,3l-4.5,0Z" style="fill:#f10dc3;"/>
            <path d="M12.5,22c-0.828,0 -1.5,-0.672 -1.5,-1.5c0,-0.828 0.672,-1.5 1.5,-1.5c1.777,0 4.5,0 4.5,0l0,3l-4.5,0Z" style="fill:#f10dc3;"/>
            <path d="M13.5,26c-0.398,0 -0.779,-0.158 -1.061,-0.439c-0.281,-0.282 -0.439,-0.663 -0.439,-1.061c0,-0.398 0.158,-0.779 0.439,-1.061c0.282,-0.281 0.663,-0.439 1.061,-0.439l3.5,0l0,3l-3.5,0Z" style="fill:#f10dc3;"/>
            <path d="M17,14l-15,0c0,0 1.541,-1.541 2.414,-2.414c0.375,-0.375 0.884,-0.586 1.414,-0.586c2.715,0 11.172,0 11.172,0" style="fill:#f10dc3;"/>
        </g>
    </g>
</svg>
