<?xml version="1.0" encoding="UTF-8" standalone="no"?>
<!DOCTYPE svg PUBLIC "-//W3C//DTD SVG 1.1//EN" "http://www.w3.org/Graphics/SVG/1.1/DTD/svg11.dtd">
<svg width="100%" height="100%" viewBox="0 0 32 32" version="1.1" xmlns="http://www.w3.org/2000/svg" xmlns:xlink="http://www.w3.org/1999/xlink" xml:space="preserve" xmlns:serif="http://www.serif.com/" style="fill-rule:evenodd;clip-rule:evenodd;stroke-linejoin:round;stroke-miterlimit:2;">
    <rect id="pray--clw-" serif:id="pray [clw]" x="0" y="0" width="32" height="32" style="fill:none;"/>
    <path d="M24,23l6,6l0,1l-8,0c0,0 -3.637,-3.637 -4.707,-4.707c-0.188,-0.188 -0.293,-0.442 -0.293,-0.707c0,-2.425 0,-14.775 0,-17.878c0,-0.466 0.108,-0.925 0.317,-1.341c0.564,-1.128 1.683,-3.367 1.683,-3.367c0,0 3.584,7.168 4.683,9.367c0.209,0.416 0.317,0.875 0.317,1.341c0,2.432 0,10.292 0,10.292Z" style="fill:none;stroke:#000;stroke-width:4px;"/>
    <path d="M8,23l-6,6l0,1l8,0c0,0 3.637,-3.637 4.707,-4.707c0.188,-0.188 0.293,-0.442 0.293,-0.707c0,-2.425 0,-14.775 0,-17.878c0,-0.466 -0.108,-0.925 -0.317,-1.341c-0.564,-1.128 -1.683,-3.367 -1.683,-3.367c0,0 -3.584,7.168 -4.683,9.367c-0.209,0.416 -0.317,0.875 -0.317,1.341c0,2.432 0,10.292 0,10.292Z" style="fill:none;stroke:#000;stroke-width:4px;"/>
    <path d="M8,23l1,0l3.5,3.5l0,1l-2.5,2.5l-8,0l0,-1l6,-6Z" style="fill:#a90eb1;"/>
    <path d="M24,23l-1,0l-3.5,3.5l0,1l2.5,2.5l8,0l0,-1l-6,-6Z" style="fill:#a90eb1;"/>
    <path d="M8,23l4.5,4.5c0,0 1.547,-1.547 2.207,-2.207c0.188,-0.188 0.293,-0.442 0.293,-0.707c0,-2.425 0,-14.775 0,-17.878c0,-0.466 -0.108,-0.925 -0.317,-1.341c-0.564,-1.128 -1.683,-3.367 -1.683,-3.367c0,0 -3.584,7.168 -4.683,9.367c-0.209,0.416 -0.317,0.875 -0.317,1.341c0,2.432 0,10.292 0,10.292Z" style="fill:#f10dc3;"/>
    <clipPath id="_clip1">
        <path d="M8,23l4.5,4.5c0,0 1.547,-1.547 2.207,-2.207c0.188,-0.188 0.293,-0.442 0.293,-0.707c0,-2.425 0,-14.775 0,-17.878c0,-0.466 -0.108,-0.925 -0.317,-1.341c-0.564,-1.128 -1.683,-3.367 -1.683,-3.367c0,0 -3.584,7.168 -4.683,9.367c-0.209,0.416 -0.317,0.875 -0.317,1.341c0,2.432 0,10.292 0,10.292Z"/>
    </clipPath>
    <g clip-path="url(#_clip1)">
        <path d="M11,22c0,1.105 0.895,2 2,2l2,0c1.105,0 2,-0.895 2,-2l0,-9.586c0,-0.795 -0.316,-1.558 -0.879,-2.121c-0.555,-0.556 -1.707,-1.707 -1.707,-1.707c-0.572,-0.572 -1.432,-0.743 -2.179,-0.434c-0.748,0.31 -1.235,1.039 -1.235,1.848l0,12Zm2,0l2,0l0,-9.586c0,-0.265 -0.105,-0.519 -0.293,-0.707c-0.555,-0.555 -1.707,-1.707 -1.707,-1.707l0,12Z" style="fill:#640082;"/>
        <path d="M9,23l0,-2l7,0l0,4l-6,-1l-1,-1Z" style="fill:#f10dc3;"/>
    </g>
    <path d="M24,23l-4.5,4.5c0,0 -1.547,-1.547 -2.207,-2.207c-0.188,-0.188 -0.293,-0.442 -0.293,-0.707c0,-2.425 0,-14.775 0,-17.878c0,-0.466 0.108,-0.925 0.317,-1.341c0.564,-1.128 1.683,-3.367 1.683,-3.367c0,0 3.584,7.168 4.683,9.367c0.209,0.416 0.317,0.875 0.317,1.341c0,2.432 0,10.292 0,10.292Z" style="fill:#f10dc3;"/>
    <clipPath id="_clip2">
        <path d="M24,23l-4.5,4.5c0,0 -1.547,-1.547 -2.207,-2.207c-0.188,-0.188 -0.293,-0.442 -0.293,-0.707c0,-2.425 0,-14.775 0,-17.878c0,-0.466 0.108,-0.925 0.317,-1.341c0.564,-1.128 1.683,-3.367 1.683,-3.367c0,0 3.584,7.168 4.683,9.367c0.209,0.416 0.317,0.875 0.317,1.341c0,2.432 0,10.292 0,10.292Z"/>
    </clipPath>
    <g clip-path="url(#_clip2)">
        <path d="M19,24c1.105,0 2,-0.895 2,-2l0,-12c0,-0.809 -0.487,-1.538 -1.235,-1.848c-0.747,-0.309 -1.607,-0.138 -2.179,0.434c0,0 -1.152,1.151 -1.707,1.707c-0.563,0.563 -0.879,1.326 -0.879,2.121c0,1.888 0,9.586 0,9.586c0,1.105 0.895,2 2,2l2,0Zm0,-14c-0.177,0.177 -2,1.458 -2,2.414c-0.002,3.195 0,6.391 0,9.586l2,0l0,-12Z" style="fill:#640082;"/>
        <path d="M23,23l0,-2l-7,0l0,4l6,-1l1,-1Z" style="fill:#f10dc3;"/>
    </g>
</svg>
