<?xml version="1.0" encoding="UTF-8" standalone="no"?>
<!DOCTYPE svg PUBLIC "-//W3C//DTD SVG 1.1//EN" "http://www.w3.org/Graphics/SVG/1.1/DTD/svg11.dtd">
<svg width="100%" height="100%" viewBox="0 0 32 32" version="1.1" xmlns="http://www.w3.org/2000/svg" xmlns:xlink="http://www.w3.org/1999/xlink" xml:space="preserve" xmlns:serif="http://www.serif.com/" style="fill-rule:evenodd;clip-rule:evenodd;stroke-linejoin:round;stroke-miterlimit:2;">
    <rect id="pray--clw-" serif:id="pray [clw]" x="0" y="0" width="32" height="32" style="fill:none;"/>
    <path d="M24,23l6,6l0,1l-8,0c0,0 -3.637,-3.637 -4.707,-4.707c-0.188,-0.188 -0.293,-0.442 -0.293,-0.707c0,-2.425 0,-14.775 0,-17.878c0,-0.466 0.108,-0.925 0.317,-1.341c0.564,-1.128 1.683,-3.367 1.683,-3.367c0,0 3.584,7.168 4.683,9.367c0.209,0.416 0.317,0.875 0.317,1.341c0,2.432 0,10.292 0,10.292Z" style="fill:none;stroke:#000;stroke-width:4px;"/>
    <path d="M8,23l-6,6l0,1l8,0c0,0 3.637,-3.637 4.707,-4.707c0.188,-0.188 0.293,-0.442 0.293,-0.707c0,-2.425 0,-14.775 0,-17.878c0,-0.466 -0.108,-0.925 -0.317,-1.341c-0.564,-1.128 -1.683,-3.367 -1.683,-3.367c0,0 -3.584,7.168 -4.683,9.367c-0.209,0.416 -0.317,0.875 -0.317,1.341c0,2.432 0,10.292 0,10.292Z" style="fill:none;stroke:#000;stroke-width:4px;"/>
    <path d="M8,23l1,0l3.5,3.5l0,1l-2.5,2.5l-8,0l0,-1l6,-6Z" style="fill:#a90eb1;"/>
    <path d="M24,23l-1,0l-3.5,3.5l0,1l2.5,2.5l8,0l0,-1l-6,-6Z" style="fill:#a90eb1;"/>
    <path d="M8,23l4.5,4.5c0,0 1.547,-1.547 2.207,-2.207c0.188,-0.188 0.293,-0.442 0.293,-0.707c0,-2.425 0,-14.775 0,-17.878c0,-0.466 -0.108,-0.925 -0.317,-1.341c-0.564,-1.128 -1.683,-3.367 -1.683,-3.367c0,0 -3.584,7.168 -4.683,9.367c-0.209,0.416 -0.317,0.875 -0.317,1.341c0,2.432 0,10.292 0,10.292Z" style="fill:#f10dc3;"/>
    <clipPath id="_clip1">
        <path d="M8,23l4.5,4.5c0,0 1.547,-1.547 2.207,-2.207c0.188,-0.188 0.293,-0.442 0.293,-0.707c0,-2.425 0,-14.775 0,-17.878c0,-0.466 -0.108,-0.925 -0.317,-1.341c-0.564,-1.128 -1.683,-3.367 -1.683,-3.367c0,0 -3.584,7.168 -4.683,9.367c-0.209,0.416 -0.317,0.875 -0.317,1.341c0,2.432 0,10.292 0,10.292Z"/>
    </clipPath>
    <g clip-path="url(#_clip1)">
        <path d="M13.128,8.004l0.096,0.009l0.095,0.013l0.095,0.017l0.093,0.022l0.093,0.027l0.091,0.031l0.089,0.035l0.088,0.04l0.085,0.044l0.084,0.048l0.081,0.052l0.078,0.055l0.076,0.06l0.073,0.062l0.069,0.067l1.726,1.725l0.085,0.09l0.096,0.111l0.09,0.116l0.085,0.121l0.079,0.125l0.072,0.127l0.066,0.131l0.059,0.134l0.053,0.137l0.046,0.138l0.039,0.141l0.032,0.144l0.026,0.146l0.018,0.147l0.011,0.145l0.003,0.125l0,9.611l-0.002,0.095l-0.007,0.095l-0.011,0.095l-0.016,0.093l-0.02,0.094l-0.025,0.091l-0.029,0.091l-0.033,0.089l-0.038,0.088l-0.041,0.085l-0.046,0.084l-0.049,0.081l-0.054,0.079l-0.057,0.076l-0.06,0.074l-0.065,0.07l-0.067,0.067l-0.07,0.064l-0.074,0.061l-0.076,0.057l-0.079,0.054l-0.081,0.049l-0.084,0.046l-0.085,0.041l-0.088,0.038l-0.089,0.033l-0.091,0.029l-0.091,0.025l-0.093,0.02l-0.094,0.016l-0.095,0.011l-0.095,0.007l-0.095,0.002l-2,0l-0.095,-0.002l-0.095,-0.007l-0.095,-0.011l-0.094,-0.016l-0.093,-0.02l-0.091,-0.025l-0.091,-0.029l-0.089,-0.033l-0.088,-0.038l-0.085,-0.041l-0.084,-0.046l-0.081,-0.049l-0.079,-0.054l-0.076,-0.057l-0.074,-0.061l-0.07,-0.064l-0.067,-0.067l-0.064,-0.07l-0.061,-0.074l-0.057,-0.076l-0.054,-0.079l-0.049,-0.081l-0.046,-0.084l-0.041,-0.085l-0.038,-0.088l-0.033,-0.089l-0.029,-0.091l-0.025,-0.091l-0.02,-0.094l-0.016,-0.093l-0.011,-0.095l-0.007,-0.095l-0.002,-0.095l0,-12l0.002,-0.096l0.007,-0.096l0.012,-0.096l0.016,-0.094l0.021,-0.094l0.025,-0.093l0.029,-0.092l0.034,-0.09l0.038,-0.088l0.043,-0.086l0.046,-0.084l0.051,-0.082l0.054,-0.079l0.058,-0.077l0.062,-0.074l0.065,-0.07l0.069,-0.068l0.072,-0.064l0.074,-0.06l0.078,-0.057l0.08,-0.053l0.083,-0.05l0.084,-0.045l0.087,-0.041l0.089,-0.037l0.091,-0.032l0.092,-0.028l0.093,-0.024l0.094,-0.019l0.095,-0.015l0.096,-0.01l0.096,-0.005l0.096,-0.001l0.096,0.004Zm-0.128,13.996l2,0l0,-9.586l-0.001,-0.049l-0.004,-0.05l-0.006,-0.048l-0.008,-0.049l-0.011,-0.048l-0.013,-0.047l-0.016,-0.046l-0.017,-0.045l-0.02,-0.045l-0.022,-0.044l-0.024,-0.042l-0.026,-0.042l-0.028,-0.04l-0.03,-0.039l-0.033,-0.037l-0.034,-0.036l-1.707,-1.707l0,12Z" style="fill:#640082;"/>
        <path d="M9,23l0,-2l7,0l0,4l-6,-1l-1,-1Z" style="fill:#f10dc3;"/>
    </g>
    <path d="M24,23l-4.5,4.5c0,0 -1.547,-1.547 -2.207,-2.207c-0.188,-0.188 -0.293,-0.442 -0.293,-0.707c0,-2.425 0,-14.775 0,-17.878c0,-0.466 0.108,-0.925 0.317,-1.341c0.564,-1.128 1.683,-3.367 1.683,-3.367c0,0 3.584,7.168 4.683,9.367c0.209,0.416 0.317,0.875 0.317,1.341c0,2.432 0,10.292 0,10.292Z" style="fill:#f10dc3;"/>
    <clipPath id="_clip2">
        <path d="M24,23l-4.5,4.5c0,0 -1.547,-1.547 -2.207,-2.207c-0.188,-0.188 -0.293,-0.442 -0.293,-0.707c0,-2.425 0,-14.775 0,-17.878c0,-0.466 0.108,-0.925 0.317,-1.341c0.564,-1.128 1.683,-3.367 1.683,-3.367c0,0 3.584,7.168 4.683,9.367c0.209,0.416 0.317,0.875 0.317,1.341c0,2.432 0,10.292 0,10.292Z"/>
    </clipPath>
    <g clip-path="url(#_clip2)">
        <path d="M19.064,8.001l0.096,0.005l0.096,0.01l0.095,0.015l0.094,0.019l0.093,0.024l0.092,0.028l0.091,0.032l0.089,0.037l0.087,0.041l0.084,0.045l0.083,0.05l0.08,0.053l0.078,0.057l0.074,0.06l0.072,0.064l0.069,0.068l0.065,0.07l0.062,0.074l0.058,0.077l0.054,0.079l0.051,0.082l0.046,0.084l0.043,0.086l0.038,0.088l0.034,0.09l0.029,0.092l0.025,0.093l0.021,0.094l0.016,0.094l0.012,0.096l0.007,0.096l0.002,0.096l0,12l-0.002,0.095l-0.007,0.095l-0.011,0.095l-0.016,0.093l-0.02,0.094l-0.025,0.091l-0.029,0.091l-0.033,0.089l-0.038,0.088l-0.041,0.085l-0.046,0.084l-0.049,0.081l-0.054,0.079l-0.057,0.076l-0.061,0.074l-0.064,0.07l-0.067,0.067l-0.07,0.064l-0.074,0.061l-0.076,0.057l-0.079,0.054l-0.081,0.049l-0.084,0.046l-0.085,0.041l-0.088,0.038l-0.089,0.033l-0.091,0.029l-0.091,0.025l-0.093,0.02l-0.094,0.016l-0.095,0.011l-0.095,0.007l-0.095,0.002l-2,0l-0.095,-0.002l-0.095,-0.007l-0.095,-0.011l-0.094,-0.016l-0.093,-0.02l-0.091,-0.025l-0.091,-0.029l-0.089,-0.033l-0.088,-0.038l-0.085,-0.041l-0.084,-0.046l-0.081,-0.049l-0.079,-0.054l-0.076,-0.057l-0.074,-0.061l-0.07,-0.064l-0.067,-0.067l-0.065,-0.07l-0.06,-0.074l-0.057,-0.076l-0.054,-0.079l-0.049,-0.081l-0.046,-0.084l-0.041,-0.085l-0.038,-0.088l-0.033,-0.089l-0.029,-0.091l-0.025,-0.091l-0.02,-0.094l-0.016,-0.093l-0.011,-0.095l-0.007,-0.095l-0.002,-0.095l0,-9.611l0.003,-0.125l0.011,-0.145l0.018,-0.147l0.026,-0.146l0.032,-0.144l0.039,-0.141l0.046,-0.138l0.053,-0.137l0.059,-0.134l0.066,-0.131l0.072,-0.127l0.079,-0.125l0.085,-0.121l0.09,-0.116l0.096,-0.111l0.085,-0.09l1.726,-1.725l0.069,-0.067l0.073,-0.062l0.076,-0.06l0.078,-0.055l0.081,-0.052l0.084,-0.048l0.085,-0.044l0.088,-0.04l0.089,-0.035l0.091,-0.031l0.093,-0.027l0.093,-0.022l0.095,-0.017l0.095,-0.013l0.096,-0.009l0.096,-0.004l0.096,0.001Zm-1.771,3.706l-0.034,0.036l-0.033,0.037l-0.03,0.039l-0.028,0.04l-0.026,0.042l-0.024,0.042l-0.022,0.044l-0.02,0.045l-0.017,0.045l-0.016,0.046l-0.013,0.047l-0.011,0.048l-0.008,0.049l-0.006,0.048l-0.004,0.05l-0.001,0.049l0,9.586l2,0l0,-12l-1.707,1.707Z" style="fill:#640082;"/>
        <path d="M23,23l0,-2l-7,0l0,4l6,-1l1,-1Z" style="fill:#f10dc3;"/>
    </g>
</svg>
