<?xml version="1.0" encoding="UTF-8" standalone="no"?><!DOCTYPE svg PUBLIC "-//W3C//DTD SVG 1.1//EN" "http://www.w3.org/Graphics/SVG/1.1/DTD/svg11.dtd"><svg width="100%" height="100%" viewBox="0 0 32 32" version="1.1" xmlns="http://www.w3.org/2000/svg" xmlns:xlink="http://www.w3.org/1999/xlink" xml:space="preserve" xmlns:serif="http://www.serif.com/" style="fill-rule:evenodd;clip-rule:evenodd;stroke-linejoin:round;stroke-miterlimit:1.41421;"><rect id="punch--clw-" serif:id="punch [clw]" x="0" y="0" width="32" height="32" style="fill:none;"/><g id="outline"><path d="M22.102,7.001l0.102,0.004l0.102,0.006l0.101,0.009l0.1,0.012l0.1,0.014l0.099,0.016l0.098,0.019l0.097,0.021l0.097,0.024l0.096,0.026l0.095,0.028l0.094,0.031l0.092,0.032l0.092,0.035l0.091,0.037l0.089,0.039l0.088,0.041l0.087,0.044l0.086,0.045l0.084,0.047l0.084,0.049l0.081,0.051l0.081,0.053l0.079,0.055l0.077,0.056l0.077,0.059l0.074,0.06l0.074,0.062l0.071,0.064l0.07,0.065l0.069,0.066l0.066,0.069l0.065,0.07l0.064,0.071l0.062,0.074l0.06,0.074l0.059,0.077l0.056,0.078l0.054,0.077l0.054,0.081l0.051,0.083l0.049,0.082l0.047,0.085l0.045,0.085l0.044,0.088l0.041,0.088l0.039,0.089l0.037,0.091l0.035,0.092l0.033,0.093l0.03,0.094l0.028,0.094l0.026,0.095l0.024,0.097l0.021,0.098l0.019,0.098l0.016,0.1l0.014,0.099l0.012,0.1l0.009,0.102l0.006,0.1l0.004,0.102l0.001,0.09l0,10.026l-0.001,0.09l-0.004,0.102l-0.006,0.1l-0.009,0.102l-0.012,0.1l-0.014,0.099l-0.016,0.1l-0.019,0.098l-0.021,0.098l-0.024,0.097l-0.026,0.095l-0.028,0.094l-0.03,0.094l-0.033,0.093l-0.035,0.092l-0.037,0.091l-0.039,0.089l-0.041,0.088l-0.044,0.088l-0.045,0.085l-0.047,0.085l-0.049,0.082l-0.051,0.083l-0.054,0.081l-0.054,0.077l-0.056,0.078l-0.059,0.077l-0.06,0.074l-0.062,0.074l-0.064,0.071l-0.065,0.07l-0.066,0.069l-0.069,0.066l-0.07,0.065l-0.071,0.064l-0.074,0.062l-0.074,0.06l-0.077,0.059l-0.077,0.056l-0.079,0.055l-0.081,0.053l-0.081,0.051l-0.084,0.049l-0.084,0.047l-0.086,0.045l-0.087,0.044l-0.088,0.041l-0.089,0.039l-0.091,0.037l-0.092,0.035l-0.092,0.032l-0.094,0.031l-0.095,0.028l-0.096,0.026l-0.097,0.024l-0.097,0.021l-0.098,0.019l-0.099,0.016l-0.1,0.014l-0.1,0.012l-0.101,0.009l-0.102,0.006l-0.102,0.004l-0.102,0.001l-0.102,-0.001l-0.102,-0.004l-0.102,-0.006l-0.101,-0.009l-0.1,-0.012l-0.099,-0.014l-0.1,-0.016l-0.098,-0.019l-0.098,-0.021l-0.096,-0.024l-0.096,-0.026l-0.095,-0.028l-0.094,-0.031l-0.092,-0.032l-0.092,-0.035l-0.09,-0.037l-0.09,-0.039l-0.089,-0.041l-0.086,-0.044l-0.086,-0.045l-0.084,-0.047l-0.084,-0.049l-0.081,-0.051l-0.081,-0.053l-0.079,-0.055l-0.077,-0.056l-0.077,-0.059l-0.074,-0.06l-0.073,-0.062l-0.072,-0.063l-0.07,-0.066l-0.069,-0.066l-0.067,-0.069l-0.065,-0.07l-0.063,-0.071l-0.062,-0.073l-0.06,-0.075l-0.059,-0.077l-0.056,-0.077l-0.055,-0.079l-0.053,-0.08l-0.051,-0.083l-0.049,-0.083l-0.047,-0.084l-0.045,-0.085l-0.044,-0.088l-0.041,-0.088l-0.039,-0.09l-0.037,-0.09l-0.035,-0.092l-0.032,-0.092l-0.031,-0.094l-0.028,-0.095l-0.026,-0.096l-0.024,-0.097l-0.021,-0.097l-0.019,-0.098l-0.016,-0.099l-0.014,-0.1l-0.012,-0.1l-0.009,-0.101l-0.006,-0.102l-0.004,-0.102l-0.001,-0.089l0,-10.026l0.001,-0.089l0.004,-0.102l0.006,-0.102l0.009,-0.101l0.012,-0.1l0.014,-0.1l0.016,-0.099l0.019,-0.098l0.021,-0.097l0.024,-0.097l0.026,-0.096l0.028,-0.095l0.031,-0.094l0.032,-0.092l0.035,-0.092l0.037,-0.09l0.039,-0.09l0.041,-0.088l0.044,-0.088l0.045,-0.085l0.047,-0.084l0.049,-0.083l0.051,-0.083l0.053,-0.08l0.055,-0.079l0.056,-0.077l0.059,-0.077l0.06,-0.075l0.062,-0.073l0.063,-0.071l0.065,-0.07l0.067,-0.069l0.069,-0.066l0.07,-0.066l0.072,-0.063l0.073,-0.062l0.074,-0.06l0.077,-0.059l0.077,-0.056l0.079,-0.055l0.081,-0.053l0.081,-0.051l0.084,-0.049l0.084,-0.047l0.086,-0.045l0.086,-0.044l0.089,-0.041l0.09,-0.039l0.09,-0.037l0.092,-0.035l0.092,-0.032l0.094,-0.031l0.095,-0.028l0.096,-0.026l0.096,-0.024l0.098,-0.021l0.098,-0.019l0.1,-0.016l0.099,-0.014l0.1,-0.012l0.101,-0.009l0.102,-0.006l0.102,-0.004l0.102,-0.001l0.102,0.001Zm-0.102,4.012l0,9.974l0,0.001l0,-0.001l0,-9.974l0,-0.001l0,0.001Z"/><path d="M17.102,7.001l0.102,0.004l0.102,0.006l0.101,0.009l0.1,0.012l0.099,0.014l0.1,0.016l0.098,0.019l0.098,0.021l0.096,0.024l0.096,0.026l0.095,0.028l0.094,0.031l0.092,0.032l0.092,0.035l0.09,0.037l0.09,0.039l0.089,0.041l0.086,0.044l0.086,0.045l0.084,0.047l0.084,0.049l0.081,0.051l0.081,0.053l0.079,0.055l0.077,0.056l0.077,0.059l0.074,0.06l0.073,0.062l0.072,0.063l0.071,0.066l0.067,0.066l0.067,0.069l0.066,0.07l0.063,0.071l0.062,0.073l0.06,0.075l0.059,0.077l0.056,0.077l0.055,0.079l0.053,0.08l0.051,0.083l0.049,0.083l0.047,0.084l0.045,0.085l0.044,0.088l0.041,0.088l0.039,0.09l0.037,0.09l0.035,0.092l0.032,0.092l0.031,0.094l0.028,0.095l0.026,0.096l0.024,0.097l0.021,0.097l0.019,0.098l0.016,0.099l0.014,0.1l0.012,0.1l0.009,0.102l0.006,0.101l0.004,0.101l0.001,0.09l0,10.026l-0.001,0.09l-0.004,0.101l-0.006,0.101l-0.009,0.102l-0.012,0.1l-0.014,0.1l-0.016,0.099l-0.019,0.098l-0.021,0.097l-0.024,0.097l-0.026,0.096l-0.028,0.095l-0.031,0.094l-0.032,0.092l-0.035,0.092l-0.037,0.09l-0.039,0.09l-0.041,0.088l-0.044,0.088l-0.045,0.085l-0.047,0.084l-0.049,0.083l-0.051,0.083l-0.053,0.08l-0.055,0.079l-0.056,0.077l-0.059,0.077l-0.06,0.075l-0.062,0.073l-0.063,0.071l-0.066,0.07l-0.067,0.069l-0.067,0.066l-0.071,0.066l-0.072,0.063l-0.073,0.062l-0.074,0.06l-0.077,0.059l-0.077,0.056l-0.079,0.055l-0.081,0.053l-0.081,0.051l-0.084,0.049l-0.084,0.047l-0.086,0.045l-0.086,0.044l-0.089,0.041l-0.09,0.039l-0.09,0.037l-0.092,0.035l-0.092,0.032l-0.094,0.031l-0.095,0.028l-0.096,0.026l-0.096,0.024l-0.098,0.021l-0.098,0.019l-0.1,0.016l-0.099,0.014l-0.1,0.012l-0.101,0.009l-0.102,0.006l-0.102,0.004l-0.102,0.001l-0.102,-0.001l-0.102,-0.004l-0.102,-0.006l-0.101,-0.009l-0.1,-0.012l-0.099,-0.014l-0.1,-0.016l-0.098,-0.019l-0.097,-0.021l-0.097,-0.024l-0.096,-0.026l-0.095,-0.028l-0.094,-0.03l-0.092,-0.033l-0.092,-0.035l-0.091,-0.037l-0.089,-0.039l-0.088,-0.041l-0.087,-0.043l-0.086,-0.046l-0.085,-0.047l-0.083,-0.049l-0.081,-0.051l-0.081,-0.053l-0.079,-0.055l-0.077,-0.056l-0.077,-0.059l-0.074,-0.06l-0.073,-0.062l-0.072,-0.063l-0.071,-0.066l-0.067,-0.066l-0.067,-0.069l-0.066,-0.07l-0.063,-0.071l-0.062,-0.074l-0.06,-0.074l-0.058,-0.076l-0.057,-0.079l-0.055,-0.078l-0.053,-0.08l-0.051,-0.083l-0.049,-0.082l-0.047,-0.085l-0.045,-0.085l-0.044,-0.088l-0.041,-0.088l-0.039,-0.089l-0.037,-0.091l-0.035,-0.092l-0.033,-0.093l-0.03,-0.094l-0.028,-0.094l-0.026,-0.095l-0.024,-0.097l-0.021,-0.098l-0.019,-0.098l-0.016,-0.1l-0.014,-0.099l-0.012,-0.1l-0.009,-0.102l-0.006,-0.1l-0.004,-0.102l-0.001,-0.09l0,-10.026l0.001,-0.09l0.004,-0.102l0.006,-0.1l0.009,-0.102l0.012,-0.1l0.014,-0.099l0.016,-0.1l0.019,-0.098l0.021,-0.098l0.024,-0.097l0.026,-0.095l0.028,-0.094l0.03,-0.094l0.033,-0.093l0.035,-0.092l0.037,-0.091l0.039,-0.089l0.041,-0.088l0.044,-0.088l0.045,-0.085l0.047,-0.085l0.049,-0.082l0.051,-0.083l0.053,-0.08l0.055,-0.078l0.057,-0.079l0.058,-0.076l0.06,-0.074l0.062,-0.074l0.063,-0.071l0.066,-0.07l0.067,-0.069l0.068,-0.066l0.07,-0.065l0.072,-0.064l0.073,-0.062l0.074,-0.06l0.077,-0.059l0.077,-0.056l0.079,-0.055l0.081,-0.053l0.081,-0.051l0.083,-0.049l0.085,-0.047l0.086,-0.046l0.087,-0.043l0.088,-0.041l0.089,-0.039l0.091,-0.037l0.092,-0.035l0.092,-0.032l0.094,-0.031l0.095,-0.028l0.096,-0.026l0.097,-0.024l0.097,-0.021l0.098,-0.019l0.1,-0.016l0.099,-0.014l0.1,-0.012l0.101,-0.009l0.102,-0.006l0.102,-0.004l0.102,-0.001l0.102,0.001Zm-0.102,4.012l0,9.974l0,0.001l0,-0.001l0,-9.974l0,-0.001l0,0.001Z"/><path d="M12.102,7.001l0.102,0.004l0.102,0.006l0.101,0.009l0.1,0.012l0.099,0.014l0.1,0.016l0.098,0.019l0.098,0.021l0.096,0.024l0.096,0.026l0.095,0.028l0.094,0.031l0.092,0.032l0.092,0.035l0.09,0.037l0.09,0.039l0.089,0.041l0.086,0.044l0.086,0.045l0.084,0.047l0.084,0.049l0.081,0.051l0.081,0.053l0.079,0.055l0.077,0.056l0.077,0.059l0.074,0.06l0.073,0.062l0.072,0.063l0.07,0.066l0.069,0.066l0.067,0.069l0.064,0.07l0.064,0.071l0.062,0.074l0.06,0.074l0.059,0.077l0.056,0.077l0.055,0.079l0.053,0.08l0.051,0.083l0.049,0.082l0.047,0.085l0.046,0.086l0.043,0.087l0.041,0.088l0.039,0.09l0.037,0.09l0.035,0.092l0.032,0.092l0.031,0.094l0.028,0.095l0.026,0.095l0.024,0.098l0.021,0.098l0.019,0.097l0.016,0.099l0.014,0.1l0.012,0.1l0.009,0.101l0.006,0.102l0.004,0.102l0.001,0.089l0,10.026l-0.001,0.089l-0.004,0.102l-0.006,0.102l-0.009,0.101l-0.012,0.1l-0.014,0.1l-0.016,0.099l-0.019,0.097l-0.021,0.098l-0.024,0.098l-0.026,0.095l-0.028,0.095l-0.031,0.094l-0.032,0.092l-0.035,0.092l-0.037,0.09l-0.039,0.09l-0.041,0.088l-0.043,0.087l-0.046,0.086l-0.047,0.085l-0.049,0.082l-0.051,0.083l-0.053,0.08l-0.055,0.079l-0.056,0.077l-0.059,0.077l-0.06,0.074l-0.062,0.074l-0.064,0.071l-0.064,0.07l-0.067,0.069l-0.069,0.066l-0.07,0.066l-0.072,0.063l-0.073,0.062l-0.074,0.06l-0.077,0.059l-0.077,0.056l-0.079,0.055l-0.081,0.053l-0.081,0.051l-0.084,0.049l-0.084,0.047l-0.086,0.045l-0.086,0.044l-0.089,0.041l-0.09,0.039l-0.09,0.037l-0.092,0.035l-0.092,0.032l-0.094,0.031l-0.095,0.028l-0.096,0.026l-0.096,0.024l-0.098,0.021l-0.098,0.019l-0.1,0.016l-0.099,0.014l-0.1,0.012l-0.101,0.009l-0.102,0.006l-0.102,0.004l-0.102,0.001l-0.102,-0.001l-0.102,-0.004l-0.102,-0.006l-0.101,-0.009l-0.1,-0.012l-0.099,-0.014l-0.1,-0.016l-0.098,-0.019l-0.097,-0.021l-0.097,-0.024l-0.096,-0.026l-0.095,-0.028l-0.094,-0.031l-0.092,-0.032l-0.092,-0.035l-0.09,-0.037l-0.09,-0.039l-0.088,-0.041l-0.087,-0.044l-0.086,-0.045l-0.084,-0.047l-0.084,-0.049l-0.082,-0.051l-0.08,-0.053l-0.079,-0.055l-0.078,-0.057l-0.076,-0.058l-0.074,-0.06l-0.074,-0.062l-0.071,-0.064l-0.07,-0.065l-0.069,-0.066l-0.066,-0.069l-0.065,-0.07l-0.064,-0.072l-0.062,-0.073l-0.06,-0.074l-0.059,-0.077l-0.056,-0.078l-0.055,-0.078l-0.053,-0.08l-0.051,-0.082l-0.049,-0.083l-0.047,-0.085l-0.046,-0.086l-0.043,-0.087l-0.041,-0.088l-0.039,-0.09l-0.037,-0.09l-0.035,-0.092l-0.032,-0.092l-0.031,-0.094l-0.028,-0.095l-0.026,-0.095l-0.024,-0.097l-0.021,-0.099l-0.019,-0.097l-0.016,-0.099l-0.014,-0.101l-0.012,-0.099l-0.009,-0.101l-0.006,-0.102l-0.004,-0.102l-0.001,-0.089l0,-10.026l0.001,-0.089l0.004,-0.102l0.006,-0.102l0.009,-0.101l0.012,-0.099l0.014,-0.101l0.016,-0.099l0.019,-0.097l0.021,-0.099l0.024,-0.097l0.026,-0.095l0.028,-0.095l0.031,-0.094l0.032,-0.092l0.035,-0.092l0.037,-0.09l0.039,-0.09l0.041,-0.088l0.043,-0.087l0.046,-0.086l0.047,-0.085l0.049,-0.083l0.051,-0.082l0.053,-0.08l0.055,-0.078l0.056,-0.078l0.059,-0.077l0.06,-0.074l0.062,-0.073l0.064,-0.072l0.065,-0.07l0.066,-0.069l0.069,-0.066l0.07,-0.065l0.071,-0.064l0.074,-0.062l0.074,-0.06l0.076,-0.058l0.078,-0.057l0.079,-0.055l0.08,-0.053l0.082,-0.051l0.084,-0.049l0.084,-0.047l0.086,-0.045l0.087,-0.044l0.088,-0.041l0.09,-0.039l0.09,-0.037l0.092,-0.035l0.092,-0.032l0.094,-0.031l0.095,-0.028l0.096,-0.026l0.097,-0.024l0.097,-0.021l0.098,-0.019l0.1,-0.016l0.099,-0.014l0.1,-0.012l0.101,-0.009l0.102,-0.006l0.102,-0.004l0.102,-0.001l0.102,0.001Z"/><path d="M7.102,7.001l0.102,0.004l0.102,0.006l0.101,0.009l0.1,0.012l0.1,0.014l0.099,0.016l0.098,0.019l0.098,0.021l0.096,0.024l0.096,0.026l0.095,0.028l0.094,0.03l0.093,0.033l0.091,0.035l0.091,0.037l0.089,0.039l0.088,0.041l0.087,0.044l0.086,0.045l0.084,0.047l0.083,0.049l0.083,0.051l0.08,0.053l0.079,0.055l0.077,0.056l0.077,0.059l0.075,0.061l0.072,0.061l0.072,0.063l0.07,0.066l0.068,0.066l0.067,0.069l0.065,0.07l0.064,0.072l0.062,0.073l0.06,0.074l0.058,0.076l0.057,0.079l0.055,0.078l0.053,0.08l0.051,0.082l0.049,0.084l0.048,0.085l0.044,0.085l0.043,0.086l0.042,0.089l0.039,0.089l0.037,0.09l0.035,0.092l0.033,0.094l0.03,0.094l0.028,0.095l0.026,0.094l0.024,0.097l0.021,0.098l0.019,0.099l0.016,0.099l0.014,0.098l0.012,0.101l0.009,0.101l0.006,0.102l0.004,0.101l0.001,0.09l0,8.026l-0.001,0.09l-0.004,0.101l-0.006,0.102l-0.009,0.101l-0.012,0.101l-0.014,0.098l-0.016,0.099l-0.019,0.099l-0.021,0.098l-0.024,0.097l-0.026,0.094l-0.028,0.095l-0.03,0.094l-0.033,0.094l-0.035,0.092l-0.037,0.09l-0.039,0.089l-0.042,0.089l-0.043,0.086l-0.044,0.085l-0.048,0.085l-0.049,0.084l-0.051,0.082l-0.053,0.08l-0.055,0.078l-0.057,0.079l-0.058,0.076l-0.06,0.074l-0.062,0.073l-0.064,0.072l-0.065,0.07l-0.067,0.069l-0.068,0.066l-0.07,0.066l-0.072,0.063l-0.072,0.061l-0.075,0.061l-0.077,0.059l-0.077,0.056l-0.079,0.055l-0.08,0.053l-0.083,0.051l-0.083,0.049l-0.084,0.047l-0.086,0.045l-0.087,0.044l-0.088,0.041l-0.089,0.039l-0.091,0.037l-0.091,0.035l-0.093,0.033l-0.094,0.03l-0.095,0.028l-0.096,0.026l-0.096,0.024l-0.098,0.021l-0.098,0.019l-0.099,0.016l-0.1,0.014l-0.1,0.012l-0.101,0.009l-0.102,0.006l-0.102,0.004l-0.102,0.001l-0.102,-0.001l-0.102,-0.004l-0.102,-0.006l-0.101,-0.009l-0.1,-0.012l-0.1,-0.014l-0.099,-0.016l-0.098,-0.019l-0.098,-0.021l-0.096,-0.024l-0.096,-0.026l-0.095,-0.028l-0.094,-0.03l-0.093,-0.033l-0.091,-0.035l-0.091,-0.037l-0.089,-0.039l-0.088,-0.041l-0.087,-0.044l-0.086,-0.045l-0.084,-0.047l-0.083,-0.049l-0.083,-0.051l-0.08,-0.053l-0.079,-0.055l-0.077,-0.056l-0.077,-0.059l-0.075,-0.061l-0.072,-0.061l-0.072,-0.063l-0.07,-0.066l-0.068,-0.066l-0.067,-0.069l-0.065,-0.07l-0.064,-0.072l-0.062,-0.073l-0.06,-0.074l-0.058,-0.076l-0.057,-0.079l-0.055,-0.078l-0.053,-0.08l-0.051,-0.082l-0.049,-0.084l-0.048,-0.085l-0.044,-0.085l-0.043,-0.086l-0.042,-0.089l-0.039,-0.089l-0.037,-0.09l-0.035,-0.092l-0.033,-0.094l-0.03,-0.094l-0.028,-0.095l-0.026,-0.094l-0.024,-0.097l-0.021,-0.098l-0.019,-0.099l-0.016,-0.099l-0.014,-0.098l-0.012,-0.101l-0.009,-0.101l-0.006,-0.102l-0.004,-0.101l-0.001,-0.09l0,-8.026l0.001,-0.09l0.004,-0.101l0.006,-0.102l0.009,-0.101l0.012,-0.101l0.014,-0.098l0.016,-0.099l0.019,-0.099l0.021,-0.098l0.024,-0.097l0.026,-0.094l0.028,-0.095l0.03,-0.094l0.033,-0.094l0.035,-0.092l0.037,-0.09l0.039,-0.089l0.042,-0.089l0.043,-0.086l0.044,-0.085l0.048,-0.085l0.049,-0.084l0.051,-0.082l0.053,-0.08l0.055,-0.078l0.057,-0.079l0.058,-0.076l0.06,-0.074l0.062,-0.073l0.064,-0.072l0.065,-0.07l0.067,-0.069l0.068,-0.066l0.07,-0.066l0.072,-0.063l0.072,-0.061l0.075,-0.061l0.077,-0.059l0.077,-0.056l0.079,-0.055l0.08,-0.053l0.083,-0.051l0.083,-0.049l0.084,-0.047l0.086,-0.045l0.087,-0.044l0.088,-0.041l0.089,-0.039l0.091,-0.037l0.091,-0.035l0.093,-0.033l0.094,-0.03l0.095,-0.028l0.096,-0.026l0.096,-0.024l0.098,-0.021l0.098,-0.019l0.099,-0.016l0.1,-0.014l0.1,-0.012l0.101,-0.009l0.102,-0.006l0.102,-0.004l0.102,-0.001l0.102,0.001Zm-0.102,4.012l0,7.974l0,0.002l0,-0.002l0,-7.974l0,-0.002l0,0.002Z"/><path d="M28.139,14.31l0.085,0.09l0.097,0.112l0.09,0.117l0.086,0.121l0.078,0.124l0.072,0.127l0.066,0.131l0.059,0.134l0.053,0.136l0.046,0.139l0.039,0.142l0.033,0.144l0.025,0.145l0.018,0.145l0.011,0.148l0.003,0.125l0,8.22l-0.003,0.125l-0.011,0.147l-0.018,0.146l-0.026,0.146l-0.032,0.143l-0.039,0.141l-0.046,0.14l-0.053,0.137l-0.059,0.133l-0.066,0.13l-0.072,0.128l-0.079,0.125l-0.084,0.12l-0.091,0.117l-0.097,0.112l-0.085,0.09l-1.449,1.449l-0.09,0.085l-0.113,0.097l-0.116,0.091l-0.12,0.084l-0.125,0.079l-0.127,0.072l-0.131,0.066l-0.134,0.059l-0.136,0.053l-0.139,0.046l-0.142,0.039l-0.143,0.032l-0.146,0.026l-0.146,0.018l-0.147,0.011l-0.125,0.003l-14.111,0l-0.389,-0.939l4.606,-4.606l0.08,-0.078l0.091,-0.084l0.093,-0.082l0.094,-0.079l0.096,-0.077l0.098,-0.074l0.1,-0.072l0.101,-0.069l0.103,-0.067l0.104,-0.064l0.105,-0.062l0.107,-0.058l0.109,-0.056l0.109,-0.054l0.111,-0.051l0.112,-0.048l0.113,-0.045l0.115,-0.042l0.115,-0.04l0.059,-0.019l-4.781,-8.605l12.688,-2.82l3.501,3.501Zm-10.089,2.061l4.793,8.629l1.329,0l0.828,-0.828l0,-7.344l-1.638,-1.637l-5.312,1.18Z"/><path d="M22.099,3.001l0.099,0.004l0.099,0.006l0.098,0.008l0.098,0.011l0.098,0.014l0.097,0.015l0.096,0.018l0.096,0.021l0.095,0.023l0.095,0.025l0.093,0.027l0.094,0.029l0.092,0.032l0.091,0.034l0.091,0.036l0.089,0.039l0.089,0.04l0.088,0.043l0.086,0.045l0.086,0.047l0.085,0.05l0.083,0.05l0.082,0.054l0.081,0.055l0.08,0.058l0.078,0.059l0.077,0.061l0.076,0.064l0.074,0.066l0.073,0.067l0.071,0.069l0.069,0.071l0.067,0.073l0.066,0.074l0.063,0.075l0.062,0.078l0.059,0.079l0.057,0.078l0.056,0.082l0.053,0.082l0.052,0.083l0.049,0.085l0.047,0.086l0.045,0.087l0.043,0.087l0.04,0.088l0.039,0.09l0.036,0.09l0.034,0.092l0.032,0.093l0.029,0.092l0.028,0.095l0.025,0.095l0.022,0.094l0.02,0.095l0.019,0.097l0.015,0.098l0.014,0.097l0.011,0.098l0.008,0.097l0.006,0.099l0.004,0.1l0.001,0.087l0,5.025l-0.001,0.089l-0.004,0.102l-0.006,0.101l-0.009,0.102l-0.012,0.1l-0.014,0.099l-0.016,0.099l-0.019,0.099l-0.021,0.097l-0.024,0.098l-0.026,0.095l-0.028,0.095l-0.031,0.094l-0.032,0.092l-0.035,0.092l-0.037,0.09l-0.039,0.089l-0.042,0.09l-0.043,0.086l-0.045,0.086l-0.047,0.084l-0.049,0.084l-0.052,0.082l-0.052,0.079l-0.055,0.08l-0.057,0.078l-0.058,0.076l-0.06,0.074l-0.061,0.073l-0.064,0.072l-0.066,0.071l-0.067,0.068l-0.068,0.067l-0.07,0.064l-0.071,0.064l-0.074,0.062l-0.074,0.06l-0.077,0.059l-0.077,0.056l-0.079,0.055l-0.081,0.053l-0.081,0.051l-0.083,0.049l-0.085,0.047l-0.086,0.046l-0.087,0.043l-0.088,0.041l-0.089,0.039l-0.091,0.037l-0.092,0.035l-0.093,0.033l-0.093,0.03l-0.095,0.028l-0.096,0.026l-0.096,0.024l-0.098,0.021l-0.098,0.019l-0.099,0.016l-0.1,0.014l-0.1,0.012l-0.101,0.009l-0.102,0.006l-0.102,0.004l-0.089,0.001l-15.026,0l-0.089,-0.001l-0.102,-0.004l-0.101,-0.006l-0.102,-0.009l-0.1,-0.012l-0.1,-0.014l-0.099,-0.016l-0.098,-0.019l-0.097,-0.021l-0.097,-0.024l-0.096,-0.026l-0.095,-0.028l-0.093,-0.03l-0.093,-0.033l-0.092,-0.035l-0.091,-0.037l-0.089,-0.039l-0.088,-0.041l-0.087,-0.043l-0.086,-0.046l-0.085,-0.047l-0.082,-0.049l-0.082,-0.051l-0.081,-0.053l-0.079,-0.055l-0.077,-0.056l-0.077,-0.059l-0.074,-0.06l-0.074,-0.062l-0.071,-0.064l-0.07,-0.064l-0.069,-0.067l-0.067,-0.069l-0.065,-0.07l-0.063,-0.071l-0.062,-0.073l-0.06,-0.075l-0.059,-0.077l-0.056,-0.077l-0.055,-0.079l-0.053,-0.081l-0.051,-0.081l-0.049,-0.084l-0.047,-0.084l-0.045,-0.085l-0.044,-0.088l-0.041,-0.087l-0.039,-0.09l-0.037,-0.091l-0.035,-0.091l-0.032,-0.093l-0.031,-0.094l-0.028,-0.096l-0.026,-0.095l-0.023,-0.095l-0.022,-0.098l-0.019,-0.1l-0.016,-0.099l-0.014,-0.099l-0.012,-0.1l-0.009,-0.101l-0.006,-0.102l-0.004,-0.102l-0.001,-0.089l0,-3.582l0.001,-0.07l0.002,-0.08l0.004,-0.08l0.006,-0.079l0.007,-0.079l0.008,-0.079l0.011,-0.079l0.011,-0.077l0.013,-0.078l0.015,-0.078l0.017,-0.077l0.017,-0.076l0.02,-0.076l0.02,-0.075l0.022,-0.075l0.024,-0.075l0.025,-0.073l0.026,-0.074l0.028,-0.072l0.032,-0.08l0.058,-0.133l0.068,-0.139l0.072,-0.135l0.078,-0.133l0.082,-0.13l0.088,-0.126l0.092,-0.123l0.097,-0.12l0.101,-0.115l0.106,-0.112l0.111,-0.108l0.107,-0.097l0.067,-0.057l0.06,-0.049l0.061,-0.048l0.062,-0.047l0.062,-0.045l0.064,-0.045l0.065,-0.043l0.066,-0.042l0.067,-0.041l0.068,-0.04l0.069,-0.039l0.07,-0.037l0.069,-0.036l0.072,-0.034l0.072,-0.033l0.073,-0.032l0.074,-0.031l0.074,-0.029l0.075,-0.027l0.066,-0.023l4.507,-1.502l0.097,-0.03l0.117,-0.032l0.117,-0.026l0.119,-0.022l0.119,-0.017l0.12,-0.012l0.121,-0.007l0.1,-0.002l10.87,0l0.087,0.001Zm-15.098,5.44l-0.001,0.011l0,3.535l0,0.013l0.013,0l14.974,0l0.013,0l0,-0.013l0,-4.975l0,-0.012l0,0l-0.012,0l-10.663,0l-4.315,1.438l-0.009,0.003Z"/></g><g id="emoji"><path d="M14.689,24.243c0.075,-0.299 0.008,-0.616 -0.182,-0.858c-0.189,-0.243 -0.48,-0.385 -0.788,-0.385c-0.815,0 -1.719,0 -1.719,0l0,-4l9,0l0,8l-7,0c0,0 0.396,-1.583 0.689,-2.757Z" style="fill:#640082;"/><rect x="7" y="12" width="13" height="9" style="fill:#640082;"/><path d="M22,15l0,9c0,0 -2.277,0 -3.758,0c-0.795,0 -1.558,0.316 -2.12,0.878c-0.885,0.885 -2.122,2.122 -2.122,2.122c0,0 8.583,0 10.586,0c0.265,0 0.519,-0.105 0.707,-0.293c0.379,-0.379 1.035,-1.035 1.414,-1.414c0.188,-0.188 0.293,-0.442 0.293,-0.707c0,-1.504 0,-6.668 0,-8.172c0,-0.265 -0.105,-0.519 -0.293,-0.707c-0.755,-0.755 -2.707,-2.707 -2.707,-2.707l-2,2Z" style="fill:#a90eb1;"/><path d="M26,15l-3,-3l-8,0l0,13l11,0l0,-10Z" style="fill:none;"/><clipPath id="_clip1"><path d="M26,15l-3,-3l-8,0l0,13l11,0l0,-10Z"/></clipPath><g clip-path="url(#_clip1)"><path d="M17.102,7.001l0.102,0.004l0.102,0.006l0.101,0.009l0.1,0.012l0.099,0.014l0.1,0.016l0.098,0.019l0.098,0.021l0.096,0.024l0.096,0.026l0.095,0.028l0.094,0.031l0.092,0.032l0.092,0.035l0.09,0.037l0.09,0.039l0.089,0.041l0.086,0.044l0.086,0.045l0.084,0.047l0.084,0.049l0.081,0.051l0.081,0.053l0.079,0.055l0.077,0.056l0.077,0.059l0.074,0.06l0.073,0.062l0.072,0.063l0.071,0.066l0.067,0.066l0.067,0.069l0.066,0.07l0.063,0.071l0.062,0.073l0.06,0.075l0.059,0.077l0.056,0.077l0.055,0.079l0.053,0.08l0.051,0.083l0.049,0.083l0.047,0.084l0.045,0.085l0.044,0.088l0.041,0.088l0.039,0.09l0.037,0.09l0.035,0.092l0.032,0.092l0.031,0.094l0.028,0.095l0.026,0.096l0.024,0.097l0.021,0.097l0.019,0.098l0.016,0.099l0.014,0.1l0.012,0.1l0.009,0.102l0.006,0.101l0.004,0.101l0.001,0.09l0,10.026l-0.001,0.09l-0.004,0.101l-0.006,0.101l-0.009,0.102l-0.012,0.1l-0.014,0.1l-0.016,0.099l-0.019,0.098l-0.021,0.097l-0.024,0.097l-0.026,0.096l-0.028,0.095l-0.031,0.094l-0.032,0.092l-0.035,0.092l-0.037,0.09l-0.039,0.09l-0.041,0.088l-0.044,0.088l-0.045,0.085l-0.047,0.084l-0.049,0.083l-0.051,0.083l-0.053,0.08l-0.055,0.079l-0.056,0.077l-0.059,0.077l-0.06,0.075l-0.062,0.073l-0.063,0.071l-0.066,0.07l-0.067,0.069l-0.067,0.066l-0.071,0.066l-0.072,0.063l-0.073,0.062l-0.074,0.06l-0.077,0.059l-0.077,0.056l-0.079,0.055l-0.081,0.053l-0.081,0.051l-0.084,0.049l-0.084,0.047l-0.086,0.045l-0.086,0.044l-0.089,0.041l-0.09,0.039l-0.09,0.037l-0.092,0.035l-0.092,0.032l-0.094,0.031l-0.095,0.028l-0.096,0.026l-0.096,0.024l-0.098,0.021l-0.098,0.019l-0.1,0.016l-0.099,0.014l-0.1,0.012l-0.101,0.009l-0.102,0.006l-0.102,0.004l-0.102,0.001l-0.102,-0.001l-0.102,-0.004l-0.102,-0.006l-0.101,-0.009l-0.1,-0.012l-0.099,-0.014l-0.1,-0.016l-0.098,-0.019l-0.097,-0.021l-0.097,-0.024l-0.096,-0.026l-0.095,-0.028l-0.094,-0.03l-0.092,-0.033l-0.092,-0.035l-0.091,-0.037l-0.089,-0.039l-0.088,-0.041l-0.087,-0.043l-0.086,-0.046l-0.085,-0.047l-0.083,-0.049l-0.081,-0.051l-0.081,-0.053l-0.079,-0.055l-0.077,-0.056l-0.077,-0.059l-0.074,-0.06l-0.073,-0.062l-0.072,-0.063l-0.071,-0.066l-0.067,-0.066l-0.067,-0.069l-0.066,-0.07l-0.063,-0.071l-0.062,-0.074l-0.06,-0.074l-0.058,-0.076l-0.057,-0.079l-0.055,-0.078l-0.053,-0.08l-0.051,-0.083l-0.049,-0.082l-0.047,-0.085l-0.045,-0.085l-0.044,-0.088l-0.041,-0.088l-0.039,-0.089l-0.037,-0.091l-0.035,-0.092l-0.033,-0.093l-0.03,-0.094l-0.028,-0.094l-0.026,-0.095l-0.024,-0.097l-0.021,-0.098l-0.019,-0.098l-0.016,-0.1l-0.014,-0.099l-0.012,-0.1l-0.009,-0.102l-0.006,-0.1l-0.004,-0.102l-0.001,-0.09l0,-10.026l0.001,-0.09l0.004,-0.102l0.006,-0.1l0.009,-0.102l0.012,-0.1l0.014,-0.099l0.016,-0.1l0.019,-0.098l0.021,-0.098l0.024,-0.097l0.026,-0.095l0.028,-0.094l0.03,-0.094l0.033,-0.093l0.035,-0.092l0.037,-0.091l0.039,-0.089l0.041,-0.088l0.044,-0.088l0.045,-0.085l0.047,-0.085l0.049,-0.082l0.051,-0.083l0.053,-0.08l0.055,-0.078l0.057,-0.079l0.058,-0.076l0.06,-0.074l0.062,-0.074l0.063,-0.071l0.066,-0.07l0.067,-0.069l0.068,-0.066l0.07,-0.065l0.072,-0.064l0.073,-0.062l0.074,-0.06l0.077,-0.059l0.077,-0.056l0.079,-0.055l0.081,-0.053l0.081,-0.051l0.083,-0.049l0.085,-0.047l0.086,-0.046l0.087,-0.043l0.088,-0.041l0.089,-0.039l0.091,-0.037l0.092,-0.035l0.092,-0.032l0.094,-0.031l0.095,-0.028l0.096,-0.026l0.097,-0.024l0.097,-0.021l0.098,-0.019l0.1,-0.016l0.099,-0.014l0.1,-0.012l0.101,-0.009l0.102,-0.006l0.102,-0.004l0.102,-0.001l0.102,0.001Zm-0.102,4.012l0,9.974l0,0.001l0,-0.001l0,-9.974l0,-0.001l0,0.001Z" style="fill:#640082;"/><path d="M22.102,7.001l0.102,0.004l0.102,0.006l0.101,0.009l0.1,0.012l0.1,0.014l0.099,0.016l0.098,0.019l0.097,0.021l0.097,0.024l0.096,0.026l0.095,0.028l0.094,0.031l0.092,0.032l0.092,0.035l0.091,0.037l0.089,0.039l0.088,0.041l0.087,0.044l0.086,0.045l0.084,0.047l0.084,0.049l0.081,0.051l0.081,0.053l0.079,0.055l0.077,0.056l0.077,0.059l0.074,0.06l0.074,0.062l0.071,0.064l0.07,0.065l0.069,0.066l0.066,0.069l0.065,0.07l0.064,0.071l0.062,0.074l0.06,0.074l0.059,0.077l0.056,0.078l0.054,0.077l0.054,0.081l0.051,0.083l0.049,0.082l0.047,0.085l0.045,0.085l0.044,0.088l0.041,0.088l0.039,0.089l0.037,0.091l0.035,0.092l0.033,0.093l0.03,0.094l0.028,0.094l0.026,0.095l0.024,0.097l0.021,0.098l0.019,0.098l0.016,0.1l0.014,0.099l0.012,0.1l0.009,0.102l0.006,0.1l0.004,0.102l0.001,0.09l0,10.026l-0.001,0.09l-0.004,0.102l-0.006,0.1l-0.009,0.102l-0.012,0.1l-0.014,0.099l-0.016,0.1l-0.019,0.098l-0.021,0.098l-0.024,0.097l-0.026,0.095l-0.028,0.094l-0.03,0.094l-0.033,0.093l-0.035,0.092l-0.037,0.091l-0.039,0.089l-0.041,0.088l-0.044,0.088l-0.045,0.085l-0.047,0.085l-0.049,0.082l-0.051,0.083l-0.054,0.081l-0.054,0.077l-0.056,0.078l-0.059,0.077l-0.06,0.074l-0.062,0.074l-0.064,0.071l-0.065,0.07l-0.066,0.069l-0.069,0.066l-0.07,0.065l-0.071,0.064l-0.074,0.062l-0.074,0.06l-0.077,0.059l-0.077,0.056l-0.079,0.055l-0.081,0.053l-0.081,0.051l-0.084,0.049l-0.084,0.047l-0.086,0.045l-0.087,0.044l-0.088,0.041l-0.089,0.039l-0.091,0.037l-0.092,0.035l-0.092,0.032l-0.094,0.031l-0.095,0.028l-0.096,0.026l-0.097,0.024l-0.097,0.021l-0.098,0.019l-0.099,0.016l-0.1,0.014l-0.1,0.012l-0.101,0.009l-0.102,0.006l-0.102,0.004l-0.102,0.001l-0.102,-0.001l-0.102,-0.004l-0.102,-0.006l-0.101,-0.009l-0.1,-0.012l-0.099,-0.014l-0.1,-0.016l-0.098,-0.019l-0.098,-0.021l-0.096,-0.024l-0.096,-0.026l-0.095,-0.028l-0.094,-0.031l-0.092,-0.032l-0.092,-0.035l-0.09,-0.037l-0.09,-0.039l-0.089,-0.041l-0.086,-0.044l-0.086,-0.045l-0.084,-0.047l-0.084,-0.049l-0.081,-0.051l-0.081,-0.053l-0.079,-0.055l-0.077,-0.056l-0.077,-0.059l-0.074,-0.06l-0.073,-0.062l-0.072,-0.063l-0.07,-0.066l-0.069,-0.066l-0.067,-0.069l-0.065,-0.07l-0.063,-0.071l-0.062,-0.073l-0.06,-0.075l-0.059,-0.077l-0.056,-0.077l-0.055,-0.079l-0.053,-0.08l-0.051,-0.083l-0.049,-0.083l-0.047,-0.084l-0.045,-0.085l-0.044,-0.088l-0.041,-0.088l-0.039,-0.09l-0.037,-0.09l-0.035,-0.092l-0.032,-0.092l-0.031,-0.094l-0.028,-0.095l-0.026,-0.096l-0.024,-0.097l-0.021,-0.097l-0.019,-0.098l-0.016,-0.099l-0.014,-0.1l-0.012,-0.1l-0.009,-0.101l-0.006,-0.102l-0.004,-0.102l-0.001,-0.089l0,-10.026l0.001,-0.089l0.004,-0.102l0.006,-0.102l0.009,-0.101l0.012,-0.1l0.014,-0.1l0.016,-0.099l0.019,-0.098l0.021,-0.097l0.024,-0.097l0.026,-0.096l0.028,-0.095l0.031,-0.094l0.032,-0.092l0.035,-0.092l0.037,-0.09l0.039,-0.09l0.041,-0.088l0.044,-0.088l0.045,-0.085l0.047,-0.084l0.049,-0.083l0.051,-0.083l0.053,-0.08l0.055,-0.079l0.056,-0.077l0.059,-0.077l0.06,-0.075l0.062,-0.073l0.063,-0.071l0.065,-0.07l0.067,-0.069l0.069,-0.066l0.07,-0.066l0.072,-0.063l0.073,-0.062l0.074,-0.06l0.077,-0.059l0.077,-0.056l0.079,-0.055l0.081,-0.053l0.081,-0.051l0.084,-0.049l0.084,-0.047l0.086,-0.045l0.086,-0.044l0.089,-0.041l0.09,-0.039l0.09,-0.037l0.092,-0.035l0.092,-0.032l0.094,-0.031l0.095,-0.028l0.096,-0.026l0.096,-0.024l0.098,-0.021l0.098,-0.019l0.1,-0.016l0.099,-0.014l0.1,-0.012l0.101,-0.009l0.102,-0.006l0.102,-0.004l0.102,-0.001l0.102,0.001Zm-0.102,4.012l0,9.974l0,0.001l0,-0.001l0,-9.974l0,-0.001l0,0.001Z" style="fill:#640082;"/></g><path d="M20,9l4,0c0,0 0,8.131 0,12c0,1.105 -0.895,2 -2,2c-1.105,0 -2,-0.895 -2,-2c0,-3.869 0,-12 0,-12Z" style="fill:#f10dc3;"/><path d="M15,9l4,0c0,0 0,8.131 0,12c0,1.105 -0.895,2 -2,2c-1.105,0 -2,-0.895 -2,-2c0,-3.869 0,-12 0,-12Z" style="fill:#f10dc3;"/><path d="M10,9l4,0c0,0 0,8.131 0,12c0,1.105 -0.895,2 -2,2c-1.105,0 -2,-0.895 -2,-2c0,-3.869 0,-12 0,-12Z" style="fill:#f10dc3;"/><path d="M5,9l4,0c0,0 0,6.586 0,10c0,1.105 -0.895,2 -2,2c-1.105,0 -2,-0.895 -2,-2c0,-3.414 0,-10 0,-10Z" style="fill:#f10dc3;"/><path d="M5,8.442c0,-0.861 0.551,-1.626 1.368,-1.898c1.418,-0.473 3.538,-1.179 4.324,-1.441c0.204,-0.068 0.418,-0.103 0.633,-0.103c1.46,0 7.486,0 10.675,0c1.105,0 2,0.895 2,2c0,2.37 0,6 0,6l-19,0c0,0 0,-2.783 0,-4.558Z" style="fill:#f10dc3;"/></g></svg>