<?xml version="1.0" encoding="UTF-8" standalone="no"?>
<!DOCTYPE svg PUBLIC "-//W3C//DTD SVG 1.1//EN" "http://www.w3.org/Graphics/SVG/1.1/DTD/svg11.dtd">
<svg width="100%" height="100%" viewBox="0 0 32 32" version="1.1" xmlns="http://www.w3.org/2000/svg" xmlns:xlink="http://www.w3.org/1999/xlink" xml:space="preserve" xmlns:serif="http://www.serif.com/" style="fill-rule:evenodd;clip-rule:evenodd;stroke-linecap:round;stroke-linejoin:round;stroke-miterlimit:2;">
    <rect id="punch--clw-" serif:id="punch [clw]" x="0" y="0" width="32" height="32" style="fill:none;"/>
    <clipPath id="_clip1">
        <rect x="0" y="0" width="32" height="32"/>
    </clipPath>
    <g clip-path="url(#_clip1)">
        <g id="outline">
            <path d="M3,19.502l0,-12.673c0,-1.291 0.826,-2.438 2.051,-2.846c1.768,-0.589 4.207,-1.402 5.333,-1.778c0.408,-0.136 0.835,-0.205 1.265,-0.205c1.934,0 7.744,0 11.351,0c0.796,0 1.559,0.316 2.121,0.879c0.563,0.562 0.879,1.325 0.879,2.121l0,7l3.414,3.414c0.375,0.375 0.586,0.884 0.586,1.414c0,2.043 0,7.301 0,9.344c0,0.53 -0.211,1.039 -0.586,1.414c-0.528,0.528 -1.3,1.3 -1.828,1.828c-0.375,0.375 -0.884,0.586 -1.414,0.586l-15.172,0c0,0 0.987,-1.234 1.98,-2.476c1.277,-1.595 3.21,-2.524 5.253,-2.524l2.767,0l0,-12l-7,0l0,9.502c0,1.38 -1.118,2.498 -2.498,2.498l-0.004,0c-1.38,0 -2.498,-1.118 -2.498,-2.498l0,-9.502l-1,0l0,6.502c0,1.38 -1.118,2.498 -2.498,2.498c-0.001,0 -0.003,0 -0.004,0c-1.38,0 -2.498,-1.118 -2.498,-2.498Z" style="fill:none;stroke:#000;stroke-width:4px;"/>
        </g>
        <g id="emoji">
            <path d="M5.5,11l16.5,0l0,9l1,0l0,2.118c0.613,-0.632 1,-1.118 1,-1.118l0,-7l2,-2l2,2l1,9l-2,5l-13,0l0,-1.5c0,-0.828 -0.672,-1.5 -1.5,-1.5c-0.531,0 -1,0 -1,0l0,-3l-6,0l0,-11Z" style="fill:#640082;"/>
            <path d="M28,14l1.707,1.707c0.188,0.188 0.293,0.442 0.293,0.707c0,1.622 0,7.557 0,9.758c0,0.53 -0.211,1.039 -0.586,1.414c-0.528,0.528 -1.3,1.3 -1.828,1.828c-0.375,0.375 -0.884,0.586 -1.414,0.586l-15.172,0c0,0 0.987,-1.234 1.98,-2.476c0.484,-0.604 1.063,-1.114 1.706,-1.513c0.77,0.619 1.749,0.989 2.814,0.989c0.001,0 0.001,0 0.002,0c1.109,0 2.176,-0.41 2.999,-1.145c0.796,0.712 1.847,1.145 2.999,1.145c0.001,0 0.001,0 0.002,0c1.193,0 2.337,-0.474 3.181,-1.317c0.843,-0.844 1.317,-1.988 1.317,-3.181l0,-8.502Z" style="fill:#a90eb1;"/>
            <path d="M3,19.502l0,-12.673c0,-1.291 0.826,-2.438 2.051,-2.846c1.768,-0.589 4.207,-1.402 5.333,-1.778c0.408,-0.136 0.835,-0.205 1.265,-0.205c1.934,0 7.744,0 11.351,0c0.796,0 1.559,0.316 2.121,0.879c0.563,0.562 0.879,1.325 0.879,2.121l0,17.502c0,1.38 -1.118,2.498 -2.498,2.498l-0.004,0c-1.38,0 -2.498,-1.118 -2.498,-2.498l0,-9.502l-1,0l0,9.502c0,1.38 -1.118,2.498 -2.498,2.498l-0.004,0c-1.38,0 -2.498,-1.118 -2.498,-2.498l0,-9.502l-1,0l0,9.502c0,1.38 -1.118,2.498 -2.498,2.498l-0.004,0c-1.38,0 -2.498,-1.118 -2.498,-2.498l0,-9.502l-1,0l0,6.502c0,1.38 -1.118,2.498 -2.498,2.498c-0.001,0 -0.003,0 -0.004,0c-1.38,0 -2.498,-1.118 -2.498,-2.498Z" style="fill:#f10dc3;"/>
        </g>
    </g>
</svg>
