<?xml version="1.0" encoding="UTF-8" standalone="no"?>
<!DOCTYPE svg PUBLIC "-//W3C//DTD SVG 1.1//EN" "http://www.w3.org/Graphics/SVG/1.1/DTD/svg11.dtd">
<svg width="100%" height="100%" viewBox="0 0 32 32" version="1.1" xmlns="http://www.w3.org/2000/svg" xmlns:xlink="http://www.w3.org/1999/xlink" xml:space="preserve" xmlns:serif="http://www.serif.com/" style="fill-rule:evenodd;clip-rule:evenodd;stroke-linecap:round;stroke-linejoin:round;stroke-miterlimit:2;">
    <rect id="raised_hands--clw-" serif:id="raised_hands [clw]" x="0" y="0" width="32" height="32" style="fill:none;"/>
    <clipPath id="_clip1">
        <rect x="0" y="0" width="32" height="32"/>
    </clipPath>
    <g clip-path="url(#_clip1)">
        <g id="outline">
            <path d="M16,4l0,4" style="fill:none;stroke:#000;stroke-width:6px;"/>
            <path d="M9.5,10.5l-3,-3" style="fill:none;stroke:#000;stroke-width:6px;"/>
            <path d="M22.5,10.5l3,-3" style="fill:none;stroke:#000;stroke-width:6px;"/>
            <path d="M9.319,20.697l0.517,0l0,-3.704c0,-0.273 0.109,-0.536 0.302,-0.73c0.451,-0.451 1.247,-1.247 1.247,-1.247l0,8.263c0,0 0.443,-0.59 0.856,-1.14c0.436,-0.582 1.122,-0.925 1.85,-0.925l0.909,0c0,0 -1.685,3.37 -2.832,5.664c-0.638,1.276 -1.942,2.082 -3.369,2.082l-0.5,0c-2.574,0 -4.661,-2.087 -4.661,-4.661l0,-5.756c0,-0.274 0.109,-0.537 0.303,-0.731c0.451,-0.45 1.247,-1.246 1.247,-1.246l0,5.164l0.516,0l0,-4.737c0,-0.273 0.109,-0.536 0.303,-0.73c0.451,-0.451 1.247,-1.247 1.247,-1.247l0,6.198l0.516,0l0,-4.737c0,-0.274 0.109,-0.537 0.303,-0.73c0.45,-0.451 1.246,-1.247 1.246,-1.247l0,6.197Z" style="fill:none;stroke:#000;stroke-width:4px;stroke-linecap:butt;stroke-linejoin:miter;stroke-miterlimit:3;"/>
            <path d="M22.681,20.697l-0.517,0l0,-3.704c0,-0.273 -0.109,-0.536 -0.302,-0.73c-0.451,-0.451 -1.247,-1.247 -1.247,-1.247l0,8.263c0,0 -0.443,-0.59 -0.856,-1.14c-0.436,-0.582 -1.122,-0.925 -1.85,-0.925l-0.909,0c0,0 1.685,3.37 2.832,5.664c0.638,1.276 1.942,2.082 3.369,2.082l0.5,0c2.574,0 4.661,-2.087 4.661,-4.661l0,-5.756c0,-0.274 -0.109,-0.537 -0.303,-0.731c-0.451,-0.45 -1.247,-1.246 -1.247,-1.246l0,5.164l-0.516,0l0,-4.737c0,-0.273 -0.109,-0.536 -0.303,-0.73c-0.451,-0.451 -1.247,-1.247 -1.247,-1.247l0,6.198l-0.516,0l0,-4.737c0,-0.274 -0.109,-0.537 -0.303,-0.73c-0.45,-0.451 -1.246,-1.247 -1.246,-1.247l0,6.197Z" style="fill:none;stroke:#000;stroke-width:4px;stroke-linecap:butt;stroke-linejoin:miter;stroke-miterlimit:3;"/>
        </g>
        <g id="emoji">
            <path d="M16,4l0,4" style="fill:none;stroke:#fff;stroke-width:2px;"/>
            <path d="M9.5,10.5l-3,-3" style="fill:none;stroke:#fff;stroke-width:2px;"/>
            <path d="M22.5,10.5l3,-3" style="fill:none;stroke:#fff;stroke-width:2px;"/>
            <g>
                <path d="M3.638,21.73l0.259,-0.258l-0.259,-0.258l0,-2.066l0.259,-0.258l-0.259,-0.259l0,-0.088c0,-0.274 0.109,-0.537 0.303,-0.731c0.451,-0.45 1.247,-1.246 1.247,-1.246l0,2.065l-0.258,0.259l0.258,0.258l0,2.066l-0.258,0.258l0.258,0.258l0.516,0l0,-0.516l0.258,-0.259l-0.258,-0.258l0,-2.066l0.258,-0.258l-0.258,-0.258l0,-1.122c0,-0.273 0.109,-0.536 0.303,-0.73c0.451,-0.451 1.247,-1.247 1.247,-1.247l0,3.099l-0.259,0.258l0.259,0.258l0,2.066l-0.259,0.258l0.259,0.259l0.516,0l0,-0.517l0.258,-0.258l-0.258,-0.258l0,-2.582l0.258,-0.259l-0.258,-0.258l0,-0.605c0,-0.274 0.109,-0.537 0.303,-0.73c0.45,-0.451 1.246,-1.247 1.246,-1.247l0,2.582l-0.258,0.258l0.258,0.259l0,2.582l-0.258,0.258l0.258,0.258l0.517,0l0.258,-0.258l-0.258,-0.258l0,-2.582l0.258,-0.259l-0.258,-0.258l0,-0.089c0,-0.273 0.109,-0.536 0.302,-0.73c0.451,-0.451 1.247,-1.247 1.247,-1.247l0,2.066l-0.258,0.258l0.258,0.259l0,2.582l-0.258,0.258l0.258,0.258l0,0.395c0,0 -0.263,2.288 -0.093,2.384l0.275,-0.44l0.674,-0.897c0.436,-0.582 1.122,-0.925 1.85,-0.925l0.909,0c0,0 -1.685,3.37 -2.832,5.664c-0.638,1.276 -1.942,2.082 -3.369,2.082l-0.5,0c-2.574,0 -4.661,-2.087 -4.661,-4.661l0,-2.569Z" style="fill:#f10dc3;"/>
                <path d="M11.385,23.279l0.182,-0.243l-0.738,1.478c-0.17,-0.096 -0.338,-0.194 -0.508,-0.289c-0.033,-0.017 -0.066,-0.033 -0.101,-0.048c-0.147,-0.063 -0.301,-0.105 -0.46,-0.119c-0.408,-0.036 -0.819,0.106 -1.118,0.385c-0.118,0.11 -0.214,0.238 -0.291,0.379c-0.217,0.421 -0.424,0.847 -0.636,1.27c-0.036,0.068 -0.081,0.127 -0.142,0.175c-0.051,0.04 -0.109,0.071 -0.172,0.089c-0.051,0.016 -0.106,0.023 -0.16,0.022c-0.175,-0.004 -0.34,-0.1 -0.43,-0.25c-0.028,-0.046 -0.049,-0.097 -0.06,-0.15c-0.018,-0.074 -0.018,-0.151 -0.003,-0.225c0.008,-0.032 0.018,-0.062 0.03,-0.093c0.198,-0.43 0.422,-0.847 0.634,-1.27c0.048,-0.093 0.1,-0.184 0.158,-0.271c0.117,-0.174 0.257,-0.334 0.413,-0.473c0.22,-0.195 0.475,-0.351 0.749,-0.458c0.519,-0.201 1.102,-0.224 1.634,-0.058l1.019,-2.038l0,2.187Z" style="fill:#a90eb1;"/>
                <g>
                    <rect x="9.836" y="17.082" width="1.549" height="0.516" style="fill:#a90eb1;"/>
                    <rect x="9.836" y="20.181" width="1.549" height="0.516" style="fill:#a90eb1;"/>
                    <rect x="7.77" y="17.082" width="1.549" height="0.516" style="fill:#a90eb1;"/>
                    <rect x="7.77" y="20.181" width="1.549" height="0.516" style="fill:#a90eb1;"/>
                    <rect x="5.704" y="18.115" width="1.549" height="0.516" style="fill:#a90eb1;"/>
                    <rect x="5.704" y="20.697" width="1.549" height="0.516" style="fill:#a90eb1;"/>
                    <rect x="3.638" y="18.631" width="1.549" height="0.516" style="fill:#a90eb1;"/>
                    <rect x="3.638" y="21.214" width="1.549" height="0.516" style="fill:#a90eb1;"/>
                </g>
            </g>
            <g>
                <path d="M22.681,20.697l0.258,-0.258l-0.258,-0.258l0,-2.582l0.258,-0.259l-0.258,-0.258l0,-2.582c0,0 0.796,0.796 1.246,1.247c0.194,0.193 0.303,0.456 0.303,0.73l0,0.605l-0.258,0.258l0.258,0.259l0,2.582l-0.258,0.258l0.258,0.258l0,0.517l0.516,0l0.259,-0.259l-0.259,-0.258l0,-2.066l0.259,-0.258l-0.259,-0.258l0,-3.099c0,0 0.796,0.796 1.247,1.247c0.194,0.194 0.303,0.457 0.303,0.73l0,1.122l-0.258,0.258l0.258,0.258l0,2.066l-0.258,0.258l0.258,0.259l0,0.516l0.516,0l0.258,-0.258l-0.258,-0.258l0,-2.066l0.258,-0.258l-0.258,-0.259l0,-2.065c0,0 0.796,0.796 1.247,1.246c0.194,0.194 0.303,0.457 0.303,0.731l0,0.088l-0.259,0.259l0.259,0.258l0,2.066l-0.259,0.258l0.259,0.258l0,2.569c0,2.574 -2.087,4.661 -4.661,4.661l-0.5,0c-1.427,0 -2.731,-0.806 -3.369,-2.082c-1.146,-2.292 -2.828,-5.657 -2.832,-5.664l0.909,0c0.728,0 1.414,0.343 1.85,0.925l0.674,0.897l0.6,0.933c0.17,-0.096 -0.418,-2.877 -0.418,-2.877l0,-0.395l0.258,-0.258l-0.258,-0.258l0,-2.582l0.258,-0.259l-0.258,-0.258l0,-2.066c0,0 0.796,0.796 1.247,1.247c0.193,0.194 0.302,0.457 0.302,0.73l0,0.089l-0.258,0.258l0.258,0.259l0,2.582l-0.258,0.258l0.258,0.258l0.517,0Z" style="fill:#f10dc3;"/>
                <path d="M20.615,21.092l1.019,2.038c0.532,-0.166 1.115,-0.143 1.634,0.058c0.274,0.107 0.529,0.263 0.749,0.458c0.156,0.139 0.296,0.299 0.413,0.473c0.058,0.087 0.11,0.178 0.158,0.271c0.212,0.423 0.436,0.84 0.634,1.27c0.012,0.031 0.022,0.061 0.03,0.093c0.015,0.074 0.015,0.151 -0.003,0.225c-0.011,0.053 -0.032,0.104 -0.06,0.15c-0.09,0.15 -0.255,0.246 -0.43,0.25c-0.054,0.001 -0.109,-0.006 -0.16,-0.022c-0.063,-0.018 -0.121,-0.049 -0.172,-0.089c-0.061,-0.048 -0.106,-0.107 -0.142,-0.175c-0.212,-0.423 -0.419,-0.849 -0.636,-1.27c-0.077,-0.141 -0.173,-0.269 -0.291,-0.379c-0.299,-0.279 -0.71,-0.421 -1.118,-0.385c-0.159,0.014 -0.313,0.056 -0.46,0.119c-0.035,0.015 -0.068,0.031 -0.101,0.048c-0.17,0.095 -0.338,0.193 -0.508,0.289l-0.738,-1.478l0.182,0.243l0,-2.187Z" style="fill:#a90eb1;"/>
                <g>
                    <rect x="20.615" y="17.082" width="1.549" height="0.516" style="fill:#a90eb1;"/>
                    <rect x="20.615" y="20.181" width="1.549" height="0.516" style="fill:#a90eb1;"/>
                    <rect x="22.681" y="17.082" width="1.549" height="0.516" style="fill:#a90eb1;"/>
                    <rect x="22.681" y="20.181" width="1.549" height="0.516" style="fill:#a90eb1;"/>
                    <rect x="24.746" y="18.115" width="1.549" height="0.516" style="fill:#a90eb1;"/>
                    <rect x="24.746" y="20.697" width="1.549" height="0.516" style="fill:#a90eb1;"/>
                    <rect x="26.812" y="18.631" width="1.549" height="0.516" style="fill:#a90eb1;"/>
                    <rect x="26.812" y="21.214" width="1.549" height="0.516" style="fill:#a90eb1;"/>
                </g>
            </g>
        </g>
    </g>
</svg>
