<?xml version="1.0" encoding="UTF-8" standalone="no"?>
<!DOCTYPE svg PUBLIC "-//W3C//DTD SVG 1.1//EN" "http://www.w3.org/Graphics/SVG/1.1/DTD/svg11.dtd">
<svg width="100%" height="100%" viewBox="0 0 32 32" version="1.1" xmlns="http://www.w3.org/2000/svg" xmlns:xlink="http://www.w3.org/1999/xlink" xml:space="preserve" xmlns:serif="http://www.serif.com/" style="fill-rule:evenodd;clip-rule:evenodd;stroke-linecap:round;stroke-linejoin:round;stroke-miterlimit:2;">
    <rect id="selfie--clw-" serif:id="selfie [clw]" x="0" y="0" width="32" height="32" style="fill:none;"/>
    <clipPath id="_clip1">
        <rect x="0" y="0" width="32" height="32"/>
    </clipPath>
    <g clip-path="url(#_clip1)">
        <g id="outline">
            <path d="M13.968,8c0.006,-1.366 0.017,-2.733 0.033,-4.099c0.016,-0.427 0.089,-0.847 0.233,-1.251c0.166,-0.46 0.416,-0.89 0.735,-1.261c0.428,-0.497 0.979,-0.885 1.591,-1.121c0.43,-0.166 0.881,-0.25 1.341,-0.267c2.066,-0.025 4.132,-0.025 6.198,0c0.46,0.017 0.911,0.101 1.341,0.267c0.612,0.236 1.163,0.624 1.591,1.121c0.278,0.323 0.504,0.691 0.667,1.085l1.363,-1.364c0.313,0.13 0.626,0.259 0.939,0.389l0,15.857l-0.002,0.136c-0.014,0.395 -0.058,0.785 -0.145,1.171c-0.183,0.811 -0.536,1.582 -1.03,2.25c-0.175,0.235 -0.367,0.454 -0.571,0.664l-1.531,1.531l-3.335,8.892l-14.851,0l-0.067,-0.122l5.862,-9.38l-1.742,-1.307c-0.087,-0.067 -0.087,-0.067 -0.172,-0.137c-0.234,-0.205 -0.449,-0.427 -0.634,-0.677c-0.365,-0.495 -0.614,-1.074 -0.721,-1.679c-0.04,-0.226 -0.058,-0.454 -0.061,-0.683l0,-8.015l0,0l0,-2l2.968,0Z"/>
            <path d="M9,6l-2,-2" style="fill:none;stroke:#000;stroke-width:6px;"/>
            <path d="M9,10l-4,0" style="fill:none;stroke:#000;stroke-width:6px;"/>
            <path d="M9,14l-2,2" style="fill:none;stroke:#000;stroke-width:6px;"/>
        </g>
        <g id="emoji">
            <path d="M13,12l0,6c0,0.63 0.296,1.222 0.8,1.6c1.167,0.875 3.2,2.4 3.2,2.4l0,1l7,0l1,-1c0,0 0.987,-0.987 1.828,-1.828c0.751,-0.751 1.172,-1.768 1.172,-2.829c0,-3.706 0,-12.343 0,-12.343l-3,3l-6,4l-6,0Z" style="fill:#f10dc3;"/>
            <path d="M17,22l8,0l-3,8l-10,0l5,-8Z" style="fill:#a90eb1;"/>
            <path d="M26,4c0,-0.53 -0.211,-1.039 -0.586,-1.414c-0.375,-0.375 -0.884,-0.586 -1.414,-0.586l-6,0c-0.53,0 -1.039,0.211 -1.414,0.586c-0.375,0.375 -0.586,0.884 -0.586,1.414l0,12c0,0.53 0.211,1.039 0.586,1.414c0.375,0.375 0.884,0.586 1.414,0.586l6,0c0.53,0 1.039,-0.211 1.414,-0.586c0.375,-0.375 0.586,-0.884 0.586,-1.414l0,-12Z" style="fill:#fff;"/>
            <clipPath id="_clip2">
                <path d="M26,4c0,-0.53 -0.211,-1.039 -0.586,-1.414c-0.375,-0.375 -0.884,-0.586 -1.414,-0.586l-6,0c-0.53,0 -1.039,0.211 -1.414,0.586c-0.375,0.375 -0.586,0.884 -0.586,1.414l0,12c0,0.53 0.211,1.039 0.586,1.414c0.375,0.375 0.884,0.586 1.414,0.586l6,0c0.53,0 1.039,-0.211 1.414,-0.586c0.375,-0.375 0.586,-0.884 0.586,-1.414l0,-12Z"/>
            </clipPath>
            <g clip-path="url(#_clip2)">
                <path d="M25,4c0,-0.552 -0.448,-1 -1,-1c-1.537,0 -4.463,0 -6,0c-0.552,0 -1,0.448 -1,1c0,2.577 0,9.423 0,12c0,0.552 0.448,1 1,1c1.537,0 4.463,0 6,0c0.552,0 1,-0.448 1,-1c0,-2.577 0,-9.423 0,-12Z"/>
                <clipPath id="_clip3">
                    <path d="M25,4c0,-0.552 -0.448,-1 -1,-1c-1.537,0 -4.463,0 -6,0c-0.552,0 -1,0.448 -1,1c0,2.577 0,9.423 0,12c0,0.552 0.448,1 1,1c1.537,0 4.463,0 6,0c0.552,0 1,-0.448 1,-1c0,-2.577 0,-9.423 0,-12Z"/>
                </clipPath>
                <g clip-path="url(#_clip3)">
                    <circle cx="21" cy="8" r="2" style="fill:#333;"/>
                    <path d="M24,13c0,-1.105 -0.895,-2 -2,-2l-2,0c-1.105,0 -2,0.895 -2,2l0,4l6,0l0,-4Z" style="fill:#333;"/>
                </g>
                <rect x="19" y="2" width="4" height="2" style="fill:#fff;"/>
            </g>
            <path d="M13,10l9,0c0,0 -0.382,0.573 -0.813,1.219c-0.741,1.113 -1.99,1.781 -3.328,1.781c-2.058,0 -4.859,0 -4.859,0l0,-3Z" style="fill:#f10dc3;"/>
            <path d="M9,6l-2,-2" style="fill:none;stroke:#fff;stroke-width:2px;"/>
            <path d="M9,10l-4,0" style="fill:none;stroke:#fff;stroke-width:2px;"/>
            <path d="M9,14l-2,2" style="fill:none;stroke:#fff;stroke-width:2px;"/>
        </g>
    </g>
</svg>
