<?xml version="1.0" encoding="UTF-8" standalone="no"?>
<!DOCTYPE svg PUBLIC "-//W3C//DTD SVG 1.1//EN" "http://www.w3.org/Graphics/SVG/1.1/DTD/svg11.dtd">
<svg width="100%" height="100%" viewBox="0 0 32 32" version="1.1" xmlns="http://www.w3.org/2000/svg" xmlns:xlink="http://www.w3.org/1999/xlink" xml:space="preserve" xmlns:serif="http://www.serif.com/" style="fill-rule:evenodd;clip-rule:evenodd;stroke-linejoin:round;stroke-miterlimit:2;">
    <rect id="thumbs_down--clw-" serif:id="thumbs_down [clw]" x="0" y="0" width="32" height="32" style="fill:none;"/>
    <clipPath id="_clip1">
        <rect x="0" y="0" width="32" height="32"/>
    </clipPath>
    <g clip-path="url(#_clip1)">
        <g id="outline">
            <path d="M12.828,32l4.423,-4.423c0.239,-0.245 0.461,-0.504 0.658,-0.784c0.45,-0.64 0.772,-1.367 0.944,-2.13c0.087,-0.386 0.131,-0.776 0.145,-1.171c0.009,-0.678 0.002,-1.356 0.002,-2.035c-0.003,-0.227 -0.021,-0.453 -0.06,-0.677c-0.067,-0.378 -0.19,-0.739 -0.356,-1.084l-0.338,-0.677c2.781,0.011 5.562,0.015 8.344,-0.02c0.147,-0.006 0.294,-0.017 0.44,-0.039c0.343,-0.052 0.677,-0.156 0.989,-0.306c0.404,-0.195 0.77,-0.468 1.071,-0.8c0.285,-0.313 0.512,-0.677 0.667,-1.07c0.15,-0.38 0.232,-0.786 0.242,-1.194c0.009,-0.353 -0.035,-0.707 -0.132,-1.047c-0.101,-0.356 -0.259,-0.695 -0.466,-1.001c-0.009,-0.014 -0.019,-0.028 -0.029,-0.042c0.177,-0.253 0.319,-0.529 0.423,-0.82c0.136,-0.378 0.205,-0.779 0.205,-1.18c0,-0.573 -0.142,-1.143 -0.412,-1.648c-0.065,-0.121 -0.137,-0.239 -0.216,-0.352c0.156,-0.223 0.285,-0.463 0.385,-0.716c0.15,-0.38 0.232,-0.786 0.242,-1.195c0.009,-0.353 -0.035,-0.706 -0.132,-1.046c-0.124,-0.437 -0.334,-0.848 -0.614,-1.205c-0.149,-0.189 -0.317,-0.363 -0.501,-0.517c0.005,-0.014 0.01,-0.027 0.016,-0.04c0.132,-0.344 0.21,-0.709 0.228,-1.077c0.034,-0.693 -0.14,-1.391 -0.496,-1.986c-0.209,-0.349 -0.478,-0.661 -0.793,-0.919c-0.267,-0.219 -0.567,-0.398 -0.886,-0.53c-0.425,-0.177 -0.879,-0.263 -1.339,-0.269l-20.489,0l-0.095,0.001c-0.102,0.004 -0.102,0.004 -0.204,0.01c-0.398,0.036 -0.788,0.12 -1.161,0.267c-1.055,0.416 -1.9,1.282 -2.29,2.347c-0.15,0.41 -0.225,0.837 -0.242,1.273c-0.039,3.068 -0.039,6.136 0,9.204c0.005,0.136 0.014,0.27 0.031,0.405c0.042,0.329 0.124,0.652 0.246,0.96c0.236,0.598 0.618,1.136 1.104,1.557c0.39,0.338 0.846,0.6 1.335,0.766c0.411,0.138 0.838,0.205 1.27,0.21l2.777,0l3.236,6.472l0,8.528l1.828,0Z"/>
        </g>
        <g id="emoji">
            <path d="M17.5,15l-12.5,0c-0.53,0 -1.039,-0.211 -1.414,-0.586c-0.375,-0.375 -0.586,-0.884 -0.586,-1.414c0,-2.444 0,-6.556 0,-9c0,-0.53 0.211,-1.039 0.586,-1.414c0.375,-0.375 0.884,-0.586 1.414,-0.586c3.977,0 12.5,0 12.5,0l0,13Z" style="fill:#a90eb1;"/>
            <path d="M15.618,18c0,-0.183 0.05,-0.365 0.149,-0.526c0.183,-0.295 0.504,-0.474 0.851,-0.474c3.168,0 9.882,0 9.882,0l0,-1.496l0.5,0l0,-12.004l-1.5,0l0,-1.5c0,0 -9.468,0 -14.475,0c-0.803,0 -1.572,0.319 -2.139,0.886c-0.567,0.567 -0.886,1.336 -0.886,2.139c0,2.012 0,4.583 0,6.253c0,1.133 0.264,2.249 0.77,3.262l1.73,3.46l2.5,0.5l2.618,-0.5Zm1.382,4l0,-0.528c0,-0.31 -0.072,-0.617 -0.211,-0.894l-0.789,-1.578l-3,-0.5l-2,0.5l1.5,3l2.5,0.5l2,-0.5Zm-4,1l0,6c0,0 1.648,-1.648 2.828,-2.828c0.751,-0.751 1.172,-1.768 1.172,-2.829l0,-0.343l-2,-0.5l-2,0.5Z" style="fill:#f10dc3;"/>
            <clipPath id="_clip2">
                <path d="M15.618,18c0,-0.183 0.05,-0.365 0.149,-0.526c0.183,-0.295 0.504,-0.474 0.851,-0.474c3.168,0 9.882,0 9.882,0l0,-1.496l0.5,0l0,-12.004l-1.5,0l0,-1.5c0,0 -9.468,0 -14.475,0c-0.803,0 -1.572,0.319 -2.139,0.886c-0.567,0.567 -0.886,1.336 -0.886,2.139c0,2.012 0,4.583 0,6.253c0,1.133 0.264,2.249 0.77,3.262l1.73,3.46l2.5,0.5l2.618,-0.5Zm1.382,4l0,-0.528c0,-0.31 -0.072,-0.617 -0.211,-0.894l-0.789,-1.578l-3,-0.5l-2,0.5l1.5,3l2.5,0.5l2,-0.5Zm-4,1l0,6c0,0 1.648,-1.648 2.828,-2.828c0.751,-0.751 1.172,-1.768 1.172,-2.829l0,-0.343l-2,-0.5l-2,0.5Z"/>
            </clipPath>
            <g clip-path="url(#_clip2)">
                <path d="M19.584,14.013c-0.056,0.05 -0.111,0.101 -0.165,0.154l-3.364,3.364l0.194,0.469c3.439,0 6.877,0.043 10.315,-0.001c0.369,-0.013 0.729,-0.099 1.06,-0.265c0.293,-0.148 0.557,-0.353 0.771,-0.602c0.199,-0.231 0.356,-0.5 0.459,-0.788c0.243,-0.679 0.177,-1.447 -0.178,-2.075c-0.111,-0.196 -0.249,-0.377 -0.408,-0.537c-0.084,-0.083 -0.173,-0.161 -0.267,-0.231c0.094,-0.071 0.184,-0.149 0.267,-0.233c0.199,-0.198 0.363,-0.43 0.485,-0.682c0.289,-0.599 0.325,-1.303 0.101,-1.929c-0.104,-0.288 -0.26,-0.557 -0.46,-0.789c-0.118,-0.136 -0.25,-0.26 -0.394,-0.368c0.078,-0.058 0.153,-0.122 0.223,-0.189c0.524,-0.498 0.81,-1.214 0.774,-1.935c-0.012,-0.245 -0.061,-0.488 -0.143,-0.719c-0.104,-0.288 -0.26,-0.557 -0.46,-0.789c-0.214,-0.249 -0.478,-0.454 -0.771,-0.602c-0.082,-0.041 -0.166,-0.077 -0.252,-0.109c0.428,-0.485 0.658,-1.13 0.626,-1.781c-0.013,-0.265 -0.069,-0.528 -0.165,-0.776c-0.11,-0.286 -0.273,-0.551 -0.479,-0.778c-0.22,-0.243 -0.488,-0.442 -0.785,-0.582c-0.316,-0.15 -0.657,-0.226 -1.006,-0.239c-0.806,-0.01 -1.613,-0.01 -2.419,0c-0.263,0.01 -0.523,0.039 -0.78,0.097c-0.509,0.115 -0.994,0.33 -1.421,0.629c-0.187,0.132 -0.36,0.28 -0.523,0.44l-3.364,3.364l0.194,0.469c0.449,0 0.898,0.001 1.347,0.002c-0.06,0.054 -0.12,0.109 -0.177,0.165l-3.364,3.364l0.194,0.469c1.114,0 2.227,0.004 3.34,0.009c-0.058,0.051 -0.115,0.104 -0.17,0.158l-3.364,3.364l0.194,0.469c1.445,0 2.89,0.007 4.335,0.013Z" style="fill:#640082;"/>
            </g>
            <path d="M16,19l-0.276,-0.553c-0.071,-0.141 -0.106,-0.294 -0.106,-0.447l-5.118,0l0.5,1l5,0Zm1,3l-4.5,0l0.5,1l4,0l0,-1Z" style="fill:#a90eb1;"/>
            <path d="M25.5,5c0.398,0 0.779,-0.158 1.061,-0.439c0.281,-0.282 0.439,-0.663 0.439,-1.061c0,-0.398 -0.158,-0.779 -0.439,-1.061c-0.282,-0.281 -0.663,-0.439 -1.061,-0.439l-2.257,0c-0.796,0 -1.559,0.316 -2.122,0.879c-0.885,0.885 -2.121,2.121 -2.121,2.121l6.5,0Z" style="fill:#f10dc3;"/>
            <path d="M26.5,9c0.398,0 0.779,-0.158 1.061,-0.439c0.281,-0.282 0.439,-0.663 0.439,-1.061c0,-0.398 -0.158,-0.779 -0.439,-1.061c-0.282,-0.281 -0.663,-0.439 -1.061,-0.439c-1.518,0 -3.839,0 -5.257,0c-0.796,0 -1.559,0.316 -2.122,0.879c-0.885,0.885 -2.121,2.121 -2.121,2.121l9.5,0Z" style="fill:#f10dc3;"/>
            <path d="M26.502,13c0.827,0 1.498,-0.671 1.498,-1.498c0,-0.001 0,-0.001 0,-0.002c0,-0.398 -0.158,-0.779 -0.439,-1.061c-0.282,-0.281 -0.663,-0.439 -1.061,-0.439c-1.518,0 -3.839,0 -5.257,0c-0.796,0 -1.559,0.316 -2.122,0.879c-0.885,0.885 -2.121,2.121 -2.121,2.121l9.502,0Z" style="fill:#f10dc3;"/>
            <path d="M26.502,17c0.397,0 0.778,-0.158 1.059,-0.439c0.281,-0.281 0.439,-0.662 0.439,-1.059c0,-0.001 0,-0.001 0,-0.002c0,-0.398 -0.158,-0.779 -0.439,-1.061c-0.282,-0.281 -0.663,-0.439 -1.061,-0.439c-1.269,0 -3.067,0 -4.257,0c-0.796,0 -1.559,0.316 -2.122,0.879c-0.885,0.885 -2.121,2.121 -2.121,2.121l8.502,0Z" style="fill:#f10dc3;"/>
        </g>
    </g>
</svg>
