<?xml version="1.0" encoding="UTF-8" standalone="no"?>
<!DOCTYPE svg PUBLIC "-//W3C//DTD SVG 1.1//EN" "http://www.w3.org/Graphics/SVG/1.1/DTD/svg11.dtd">
<svg width="100%" height="100%" viewBox="0 0 32 32" version="1.1" xmlns="http://www.w3.org/2000/svg" xmlns:xlink="http://www.w3.org/1999/xlink" xml:space="preserve" xmlns:serif="http://www.serif.com/" style="fill-rule:evenodd;clip-rule:evenodd;stroke-linecap:round;stroke-miterlimit:2;">
    <rect id="v--clw-" serif:id="v [clw]" x="0" y="0" width="32" height="32" style="fill:none;"/>
    <clipPath id="_clip1">
        <rect x="0" y="0" width="32" height="32"/>
    </clipPath>
    <g clip-path="url(#_clip1)">
        <g id="outline">
            <path d="M19,12.5c0,-0.398 -0.158,-0.779 -0.439,-1.061c-0.282,-0.281 -0.663,-0.439 -1.061,-0.439c-0.398,0 -0.779,0.158 -1.061,0.439c-0.281,0.282 -0.439,0.663 -0.439,1.061c0,2.791 0,8.5 0,8.5l3,0l0,-8.5Z" style="fill:#b0b0b0;"/>
            <path d="M23,12.5c0,-0.398 -0.158,-0.779 -0.439,-1.061c-0.282,-0.281 -0.663,-0.439 -1.061,-0.439c-0.398,0 -0.779,0.158 -1.061,0.439c-0.281,0.282 -0.439,0.663 -0.439,1.061c0,2.316 0,6.5 0,6.5l3,0l0,-6.5Z" style="fill:#b0b0b0;"/>
            <path d="M15,11.5c0,-0.398 -0.158,-0.779 -0.439,-1.061c-0.282,-0.281 -0.663,-0.439 -1.061,-0.439c-0.398,0 -0.779,0.158 -1.061,0.439c-0.281,0.282 -0.439,0.663 -0.439,1.061c0,2.56 0,7.5 0,7.5l3,0l0,-7.5Z" style="fill:#b0b0b0;"/>
            <path d="M11,12.5c0,-0.398 -0.158,-0.779 -0.439,-1.061c-0.282,-0.281 -0.663,-0.439 -1.061,-0.439c-0.398,0 -0.779,0.158 -1.061,0.439c-0.281,0.282 -0.439,0.663 -0.439,1.061c0,2.057 0,5.5 0,5.5l3,0l0,-5.5Z" style="fill:#b0b0b0;"/>
            <path d="M19.717,6.39c0.143,-0.387 0.268,-0.771 0.368,-1.151c0.029,-0.098 0.029,-0.097 0.059,-0.194c0.088,-0.253 0.194,-0.497 0.327,-0.73c0.249,-0.432 0.578,-0.817 0.967,-1.129c0.155,-0.124 0.318,-0.234 0.488,-0.335l4.819,-2.788c0.518,0.39 1.037,0.781 1.556,1.172l-3.301,13.203l0,2.334c0.077,0.044 0.076,0.045 0.156,0.095l0.117,0.077c0.226,0.162 0.438,0.337 0.63,0.539c0.44,0.465 0.766,1.035 0.942,1.65c0.091,0.315 0.136,0.635 0.153,0.962c0.016,0.909 0.007,1.818 0.001,2.728c-0.005,0.306 -0.022,0.612 -0.056,0.916c-0.076,0.679 -0.227,1.349 -0.45,1.995c-0.271,0.787 -0.648,1.536 -1.118,2.223c-0.411,0.6 -0.892,1.151 -1.431,1.639c-1.323,1.199 -2.989,1.999 -4.752,2.285c-0.377,0.061 -0.757,0.098 -1.139,0.113c-0.344,0.012 -0.691,0.006 -1.034,0.006c-1.108,-0.001 -2.214,-0.167 -3.272,-0.496c-1.066,-0.332 -2.08,-0.827 -2.997,-1.463c-1.86,-1.29 -3.302,-3.149 -4.08,-5.275c-0.299,-0.815 -0.5,-1.665 -0.598,-2.527c-0.043,-0.373 -0.064,-0.747 -0.071,-1.122c-0.006,-0.863 -0.005,-1.727 -0.004,-2.591c-0.006,-2.037 -0.021,-4.075 0.004,-6.113c0.015,-0.402 0.088,-0.797 0.234,-1.173c0.363,-0.942 1.134,-1.695 2.085,-2.035c0.353,-0.126 0.72,-0.19 1.093,-0.204c0.087,-0.001 0.087,-0.001 0.174,0c0.402,0.015 0.797,0.088 1.173,0.234c0.019,0.007 0.038,0.014 0.056,0.022c0.397,-0.473 0.916,-0.842 1.504,-1.052c0.191,-0.069 0.387,-0.119 0.586,-0.153l-1.705,-6.817l1.556,-1.172c1.606,0.929 3.213,1.859 4.819,2.788c0.199,0.118 0.388,0.249 0.565,0.399c0.407,0.343 0.743,0.767 0.985,1.241c0.122,0.239 0.215,0.49 0.29,0.748c0.101,0.383 0.202,0.767 0.301,1.151Z"/>
        </g>
        <g id="emoji">
            <path d="M23.894,18.447c0.678,0.339 1.106,1.032 1.106,1.789c0,0.657 0,1.524 0,2.471c0,1.934 -0.768,3.789 -2.136,5.157c-1.368,1.368 -3.223,2.136 -5.157,2.136c-0.226,0 -0.454,0 -0.682,0c-4.984,0 -9.025,-4.041 -9.025,-9.025l0,-7.475l1.5,0l0,-1.5l3.5,0l1,-1l2,-1.5l2,4.5l5,0l0,2l-1,1l1,1c0,0 0.432,0.216 0.894,0.447Z" style="fill:#f10dc3;"/>
            <clipPath id="_clip2">
                <path d="M23.894,18.447c0.678,0.339 1.106,1.032 1.106,1.789c0,0.657 0,1.524 0,2.471c0,1.934 -0.768,3.789 -2.136,5.157c-1.368,1.368 -3.223,2.136 -5.157,2.136c-0.226,0 -0.454,0 -0.682,0c-4.984,0 -9.025,-4.041 -9.025,-9.025l0,-7.475l1.5,0l0,-1.5l3.5,0l1,-1l2,-1.5l2,4.5l5,0l0,2l-1,1l1,1c0,0 0.432,0.216 0.894,0.447Z"/>
            </clipPath>
            <g clip-path="url(#_clip2)">
                <path d="M16.5,21l-2,4" style="fill:none;stroke:#a90eb1;stroke-width:2px;"/>
                <rect x="11" y="9" width="8" height="9" style="fill:#640082;"/>
                <path d="M12,11.5c0,-0.398 0.158,-0.779 0.439,-1.061c0.282,-0.281 0.663,-0.439 1.061,-0.439c0.398,0 0.779,0.158 1.061,0.439c0.281,0.282 0.439,0.663 0.439,1.061c0,3.01 0,9.5 0,9.5c0,0 -1.541,-1.541 -2.414,-2.414c-0.375,-0.375 -0.586,-0.884 -0.586,-1.414c0,-1.339 0,-3.995 0,-5.672Z" style="fill:#640082;"/>
                <path d="M13.562,9.001l0.062,0.002l0.062,0.004l0.061,0.005l0.061,0.007l0.061,0.008l0.061,0.01l0.06,0.011l0.06,0.013l0.06,0.014l0.058,0.016l0.059,0.017l0.058,0.018l0.058,0.02l0.057,0.022l0.057,0.022l0.056,0.024l0.055,0.026l0.055,0.026l0.054,0.028l0.054,0.03l0.053,0.031l0.052,0.032l0.051,0.033l0.051,0.035l0.049,0.036l0.049,0.037l0.049,0.038l0.047,0.04l0.046,0.041l0.045,0.042l0.045,0.043l0.043,0.045l0.042,0.045l0.041,0.046l0.04,0.048l0.038,0.048l0.037,0.049l0.036,0.049l0.035,0.051l0.033,0.051l0.032,0.052l0.031,0.053l0.03,0.054l0.028,0.054l0.026,0.055l0.026,0.055l0.024,0.056l0.022,0.057l0.022,0.057l0.02,0.058l0.018,0.058l0.017,0.058l0.016,0.06l0.014,0.059l0.013,0.06l0.011,0.06l0.01,0.061l0.008,0.061l0.007,0.061l0.005,0.061l0.004,0.062l0.002,0.062l0.001,0.056l0,11.257l-0.469,0.194l-3.657,-3.657l-0.047,-0.048l-0.051,-0.055l-0.049,-0.055l-0.048,-0.057l-0.046,-0.058l-0.044,-0.059l-0.043,-0.059l-0.042,-0.061l-0.04,-0.062l-0.039,-0.062l-0.036,-0.064l-0.036,-0.064l-0.033,-0.065l-0.032,-0.066l-0.031,-0.066l-0.029,-0.067l-0.027,-0.068l-0.025,-0.069l-0.024,-0.069l-0.022,-0.07l-0.021,-0.07l-0.019,-0.071l-0.017,-0.072l-0.015,-0.071l-0.013,-0.073l-0.012,-0.072l-0.01,-0.074l-0.008,-0.073l-0.007,-0.074l-0.004,-0.074l-0.003,-0.074l-0.001,-0.068l0,-5.684l0.001,-0.056l0.002,-0.062l0.004,-0.062l0.005,-0.061l0.007,-0.061l0.008,-0.061l0.01,-0.061l0.011,-0.06l0.013,-0.06l0.014,-0.059l0.016,-0.059l0.017,-0.059l0.018,-0.058l0.02,-0.058l0.022,-0.057l0.022,-0.057l0.024,-0.056l0.026,-0.055l0.026,-0.055l0.028,-0.054l0.03,-0.054l0.031,-0.053l0.032,-0.052l0.033,-0.051l0.035,-0.051l0.036,-0.049l0.037,-0.049l0.038,-0.048l0.04,-0.048l0.041,-0.046l0.042,-0.045l0.043,-0.045l0.045,-0.043l0.045,-0.042l0.046,-0.041l0.048,-0.04l0.048,-0.038l0.049,-0.037l0.049,-0.036l0.051,-0.035l0.051,-0.033l0.052,-0.032l0.053,-0.031l0.054,-0.03l0.054,-0.028l0.055,-0.026l0.055,-0.026l0.056,-0.024l0.057,-0.022l0.057,-0.022l0.058,-0.02l0.058,-0.018l0.059,-0.017l0.058,-0.016l0.06,-0.014l0.06,-0.013l0.06,-0.011l0.061,-0.01l0.061,-0.008l0.061,-0.007l0.061,-0.005l0.062,-0.004l0.062,-0.002l0.056,-0.001l0.012,0l0.056,0.001Zm-0.099,0.999l-0.037,0.002l-0.037,0.002l-0.037,0.003l-0.037,0.004l-0.037,0.005l-0.036,0.006l-0.036,0.007l-0.036,0.008l-0.036,0.008l-0.035,0.01l-0.035,0.01l-0.035,0.011l-0.035,0.012l-0.034,0.013l-0.034,0.013l-0.034,0.015l-0.033,0.015l-0.033,0.016l-0.032,0.017l-0.032,0.017l-0.032,0.019l-0.031,0.019l-0.031,0.02l-0.031,0.021l-0.029,0.021l-0.03,0.023l-0.029,0.023l-0.028,0.024l-0.028,0.024l-0.027,0.025l-0.027,0.026l-0.026,0.027l-0.025,0.027l-0.025,0.028l-0.023,0.028l-0.023,0.029l-0.023,0.03l-0.021,0.029l-0.021,0.031l-0.02,0.031l-0.019,0.031l-0.019,0.032l-0.017,0.032l-0.017,0.032l-0.016,0.033l-0.015,0.033l-0.015,0.034l-0.013,0.034l-0.013,0.034l-0.012,0.035l-0.011,0.035l-0.01,0.035l-0.01,0.035l-0.008,0.036l-0.008,0.036l-0.007,0.036l-0.006,0.037l-0.005,0.036l-0.004,0.037l-0.003,0.037l-0.002,0.037l-0.002,0.037l0,0.037l0,5.672l0.001,0.049l0.001,0.05l0.004,0.049l0.004,0.049l0.005,0.049l0.007,0.049l0.008,0.048l0.009,0.049l0.01,0.047l0.011,0.048l0.013,0.047l0.013,0.047l0.015,0.047l0.016,0.046l0.017,0.046l0.018,0.045l0.019,0.045l0.021,0.044l0.021,0.044l0.023,0.043l0.023,0.043l0.025,0.042l0.025,0.042l0.027,0.041l0.028,0.041l0.028,0.039l0.03,0.04l0.031,0.038l0.032,0.038l0.032,0.037l0.034,0.036l0.035,0.036l2.414,2.414l0,-9.5l0,-0.037l-0.002,-0.037l-0.002,-0.037l-0.003,-0.037l-0.004,-0.037l-0.005,-0.036l-0.006,-0.037l-0.007,-0.036l-0.008,-0.036l-0.008,-0.036l-0.01,-0.035l-0.01,-0.035l-0.011,-0.035l-0.012,-0.035l-0.013,-0.034l-0.013,-0.034l-0.015,-0.034l-0.015,-0.033l-0.016,-0.033l-0.017,-0.032l-0.017,-0.032l-0.019,-0.032l-0.019,-0.031l-0.02,-0.031l-0.021,-0.031l-0.021,-0.029l-0.023,-0.03l-0.023,-0.029l-0.023,-0.028l-0.025,-0.028l-0.025,-0.027l-0.026,-0.027l-0.027,-0.026l-0.027,-0.025l-0.028,-0.024l-0.028,-0.024l-0.029,-0.023l-0.03,-0.023l-0.029,-0.021l-0.031,-0.021l-0.031,-0.02l-0.031,-0.019l-0.032,-0.019l-0.032,-0.017l-0.032,-0.017l-0.033,-0.016l-0.033,-0.015l-0.034,-0.015l-0.034,-0.013l-0.034,-0.013l-0.035,-0.012l-0.035,-0.011l-0.035,-0.01l-0.035,-0.01l-0.036,-0.008l-0.036,-0.008l-0.036,-0.007l-0.036,-0.006l-0.037,-0.005l-0.037,-0.004l-0.037,-0.003l-0.037,-0.002l-0.037,-0.002l-0.037,0c0,0 -0.037,0 -0.037,0Z" style="fill:#640082;"/>
                <path d="M8,12.468c0,-0.389 0.155,-0.763 0.43,-1.038c0.275,-0.275 0.649,-0.43 1.038,-0.43c0.001,0 0.001,0 0.002,0c0.845,0 1.53,0.685 1.53,1.53c0,2.569 0,7.47 0,7.47c0,0 -1.236,-1.236 -2.121,-2.121c-0.563,-0.563 -0.879,-1.326 -0.879,-2.122c0,-0.956 0,-2.28 0,-3.289Z" style="fill:#640082;"/>
                <path d="M9.535,10.001l0.064,0.002l0.065,0.004l0.063,0.006l0.064,0.007l0.063,0.009l0.063,0.01l0.062,0.012l0.061,0.014l0.062,0.015l0.06,0.016l0.06,0.018l0.059,0.019l0.059,0.021l0.058,0.022l0.057,0.023l0.057,0.025l0.055,0.026l0.055,0.027l0.055,0.029l0.053,0.03l0.053,0.031l0.051,0.032l0.051,0.034l0.05,0.034l0.049,0.036l0.049,0.037l0.047,0.038l0.046,0.039l0.045,0.04l0.045,0.042l0.043,0.042l0.042,0.043l0.042,0.045l0.04,0.045l0.039,0.046l0.038,0.048l0.037,0.048l0.036,0.049l0.034,0.05l0.034,0.051l0.032,0.051l0.031,0.053l0.03,0.053l0.029,0.055l0.027,0.055l0.026,0.055l0.025,0.057l0.023,0.057l0.022,0.058l0.021,0.059l0.019,0.059l0.018,0.06l0.016,0.06l0.015,0.062l0.014,0.061l0.012,0.062l0.01,0.063l0.009,0.063l0.007,0.064l0.006,0.063l0.004,0.065l0.002,0.064l0.001,0.059l0,9.227l-0.469,0.194l-3.364,-3.364l-0.065,-0.066l-0.067,-0.073l-0.066,-0.074l-0.063,-0.076l-0.062,-0.077l-0.059,-0.078l-0.058,-0.079l-0.055,-0.081l-0.053,-0.083l-0.052,-0.083l-0.049,-0.085l-0.047,-0.085l-0.045,-0.087l-0.043,-0.088l-0.04,-0.088l-0.039,-0.09l-0.036,-0.09l-0.034,-0.092l-0.032,-0.092l-0.029,-0.093l-0.027,-0.094l-0.025,-0.095l-0.023,-0.095l-0.021,-0.096l-0.018,-0.096l-0.015,-0.097l-0.014,-0.097l-0.011,-0.098l-0.008,-0.099l-0.006,-0.098l-0.004,-0.099l-0.001,-0.093l0,-3.302l0.001,-0.055l0.002,-0.061l0.004,-0.061l0.005,-0.061l0.007,-0.06l0.008,-0.06l0.01,-0.06l0.011,-0.06l0.012,-0.059l0.014,-0.059l0.016,-0.058l0.017,-0.058l0.018,-0.057l0.019,-0.057l0.021,-0.057l0.023,-0.056l0.023,-0.055l0.026,-0.055l0.026,-0.054l0.028,-0.053l0.029,-0.053l0.03,-0.052l0.032,-0.052l0.033,-0.05l0.034,-0.05l0.035,-0.049l0.037,-0.049l0.038,-0.047l0.039,-0.047l0.04,-0.046l0.042,-0.044l0.043,-0.044l0.044,-0.043l0.045,-0.042l0.045,-0.04l0.047,-0.039l0.047,-0.038l0.049,-0.037l0.049,-0.035l0.05,-0.034l0.05,-0.033l0.052,-0.032l0.052,-0.03l0.053,-0.029l0.053,-0.028l0.054,-0.026l0.055,-0.025l0.056,-0.024l0.055,-0.023l0.057,-0.021l0.057,-0.019l0.057,-0.018l0.058,-0.017l0.058,-0.016l0.059,-0.014l0.059,-0.012l0.06,-0.011l0.059,-0.01l0.061,-0.008l0.06,-0.007l0.061,-0.005l0.061,-0.004l0.061,-0.002l0.055,-0.001l0.014,0l0.059,0.001Zm-0.067,0.999l-0.036,0l-0.037,0.002l-0.036,0.002l-0.036,0.003l-0.036,0.004l-0.036,0.005l-0.035,0.006l-0.036,0.006l-0.035,0.008l-0.035,0.008l-0.035,0.009l-0.034,0.01l-0.034,0.011l-0.034,0.012l-0.034,0.012l-0.033,0.014l-0.033,0.014l-0.032,0.015l-0.032,0.015l-0.032,0.017l-0.032,0.017l-0.031,0.018l-0.03,0.019l-0.03,0.02l-0.03,0.02l-0.029,0.021l-0.029,0.022l-0.028,0.022l-0.028,0.024l-0.027,0.024l-0.027,0.025l-0.026,0.025l-0.025,0.026l-0.025,0.027l-0.024,0.027l-0.024,0.028l-0.022,0.028l-0.022,0.029l-0.021,0.029l-0.02,0.03l-0.02,0.03l-0.019,0.03l-0.018,0.031l-0.017,0.032l-0.017,0.032l-0.015,0.032l-0.015,0.032l-0.014,0.033l-0.014,0.033l-0.012,0.034l-0.012,0.034l-0.011,0.034l-0.01,0.034l-0.009,0.035l-0.008,0.035l-0.008,0.035l-0.006,0.036l-0.006,0.035l-0.005,0.036l-0.004,0.036l-0.003,0.036l-0.002,0.036l-0.002,0.037l0,0.036l0,3.289l0.001,0.075l0.003,0.074l0.004,0.074l0.007,0.074l0.008,0.073l0.01,0.073l0.012,0.073l0.013,0.072l0.015,0.072l0.017,0.072l0.019,0.07l0.021,0.071l0.022,0.07l0.024,0.069l0.025,0.068l0.027,0.068l0.029,0.068l0.031,0.066l0.032,0.066l0.033,0.065l0.036,0.064l0.037,0.064l0.038,0.062l0.04,0.062l0.042,0.06l0.043,0.06l0.044,0.059l0.046,0.058l0.048,0.056l0.049,0.056l0.051,0.054l0.052,0.054l2.121,2.121l0,-7.47l0,-0.039l-0.002,-0.04l-0.002,-0.039l-0.004,-0.038l-0.004,-0.039l-0.006,-0.038l-0.006,-0.038l-0.007,-0.037l-0.008,-0.038l-0.009,-0.036l-0.01,-0.037l-0.011,-0.036l-0.011,-0.036l-0.013,-0.035l-0.013,-0.035l-0.014,-0.035l-0.015,-0.034l-0.016,-0.033l-0.016,-0.034l-0.018,-0.032l-0.018,-0.033l-0.019,-0.031l-0.019,-0.032l-0.02,-0.03l-0.021,-0.031l-0.022,-0.029l-0.022,-0.03l-0.023,-0.028l-0.024,-0.028l-0.024,-0.028l-0.025,-0.027l-0.026,-0.026l-0.026,-0.026l-0.027,-0.025l-0.028,-0.024l-0.028,-0.024l-0.028,-0.023l-0.03,-0.022l-0.029,-0.022l-0.031,-0.021l-0.03,-0.02l-0.032,-0.019l-0.031,-0.019l-0.033,-0.018l-0.032,-0.018l-0.034,-0.016l-0.033,-0.016l-0.034,-0.015l-0.035,-0.014l-0.035,-0.013l-0.035,-0.013l-0.036,-0.011l-0.036,-0.011l-0.037,-0.01l-0.036,-0.009l-0.038,-0.008l-0.037,-0.007l-0.038,-0.006l-0.038,-0.006l-0.039,-0.004l-0.038,-0.004l-0.039,-0.002l-0.039,-0.001l-0.04,-0.001l-0.002,0Z" style="fill:#640082;"/>
            </g>
            <path d="M20.543,11.651l1.457,-0.151l1.453,0.879l-1.36,5.439l-2.91,-0.727l1.36,-5.44Zm3.91,-3.272l-0.757,3.03l-0.696,0.591l-2.215,-1.319l0.758,-3.03l1.457,-0.151l1.453,0.879Zm0.243,-0.97l-0.696,0.591l-2.215,-1.319l0.215,-0.859c0.131,-0.525 0.47,-0.975 0.939,-1.246c1.056,-0.612 2.882,-1.668 2.882,-1.668l-1.125,4.501Z" style="fill:#f10dc3;"/>
            <path d="M23.696,11.409l-0.243,0.97l-2.91,-0.728l0.242,-0.97l2.911,0.728Zm1,-4l-0.243,0.97l-2.91,-0.728l0.242,-0.97l2.911,0.728Z" style="fill:#a90eb1;"/>
            <path d="M18.959,11.651l1.36,5.44l-2.91,0.727l-1.36,-5.44l1.451,-1.378l1.459,0.651Zm-3.91,-3.273l1.951,-0.878l0.959,0.151l0.757,3.03l-1.216,1.319l-1.505,-0.639c-0.013,-0.22 -0.052,-0.436 -0.121,-0.646c-0.097,-0.292 -0.248,-0.562 -0.441,-0.797l-0.384,-1.54Zm-0.243,-0.97l-1.125,-4.5c0,0 1.826,1.056 2.882,1.668c0.469,0.271 0.807,0.721 0.939,1.246l0.214,0.859l-1.716,0.819l-1.194,-0.092Z" style="fill:#f10dc3;"/>
            <path d="M15.995,11.361l2.721,-0.68l0.243,0.97l-2.91,0.727l-0.049,-0.194l0,-0.69c-0.001,-0.045 -0.002,-0.089 -0.005,-0.133Zm1.964,-3.71l-2.91,0.727l-0.243,-0.97l2.91,-0.727l0.243,0.97Z" style="fill:#a90eb1;"/>
            <path d="M8,12.468c0,-0.389 0.155,-0.763 0.43,-1.038c0.275,-0.275 0.649,-0.43 1.038,-0.43c0.001,0 0.001,0 0.002,0c0.845,0 1.53,0.685 1.53,1.53c0,2.569 0,7.47 0,7.47c0,0 -1.236,-1.236 -2.121,-2.121c-0.563,-0.563 -0.879,-1.326 -0.879,-2.122c0,-0.956 0,-2.28 0,-3.289Z" style="fill:#f10dc3;"/>
            <path d="M12,11.5c0,-0.398 0.158,-0.779 0.439,-1.061c0.282,-0.281 0.663,-0.439 1.061,-0.439c0.398,0 0.779,0.158 1.061,0.439c0.281,0.282 0.439,0.663 0.439,1.061c0,3.01 0,9.5 0,9.5c0,0 -1.541,-1.541 -2.414,-2.414c-0.375,-0.375 -0.586,-0.884 -0.586,-1.414c0,-1.339 0,-3.995 0,-5.672Z" style="fill:#f10dc3;"/>
            <path d="M23,17l-9,0c0,0 0.273,0.682 0.617,1.543c0.835,2.088 2.858,3.457 5.107,3.457c0.173,0 0.276,0 0.276,0l2,2" style="fill:#f10dc3;stroke:#640082;stroke-width:2px;stroke-linecap:butt;"/>
        </g>
    </g>
</svg>
