<?xml version="1.0" encoding="UTF-8" standalone="no"?>
<!DOCTYPE svg PUBLIC "-//W3C//DTD SVG 1.1//EN" "http://www.w3.org/Graphics/SVG/1.1/DTD/svg11.dtd">
<svg width="100%" height="100%" viewBox="0 0 32 32" version="1.1" xmlns="http://www.w3.org/2000/svg" xmlns:xlink="http://www.w3.org/1999/xlink" xml:space="preserve" xmlns:serif="http://www.serif.com/" style="fill-rule:evenodd;clip-rule:evenodd;stroke-linejoin:round;stroke-miterlimit:2;">
    <rect id="v--clw-" serif:id="v [clw]" x="0" y="0" width="32" height="32" style="fill:none;"/>
    <clipPath id="_clip1">
        <rect x="0" y="0" width="32" height="32"/>
    </clipPath>
    <g clip-path="url(#_clip1)">
        <g id="outline">
            <path d="M12.905,8.051l-1.591,-6.365l1.557,-1.557l4.694,2.716c0.246,0.144 0.478,0.311 0.689,0.504c0.505,0.459 0.888,1.048 1.103,1.696c0.032,0.096 0.06,0.194 0.085,0.292c0.103,0.411 0.309,1.235 0.309,1.235c0,0 0.206,-0.824 0.309,-1.235c0.024,-0.098 0.053,-0.196 0.084,-0.292c0.216,-0.648 0.599,-1.237 1.104,-1.696c0.211,-0.193 0.443,-0.36 0.689,-0.504l4.376,-2.532l1.775,1.775l-3.088,12.35l0,2.335c1.232,0.71 2,2.028 2,3.463c0,0.657 0,1.524 0,2.471c0,2.465 -0.979,4.828 -2.722,6.571c-1.743,1.743 -4.106,2.722 -6.571,2.722l-0.682,0c-6.089,0 -11.025,-4.936 -11.025,-11.025l0,-8.475c0,-0.928 0.369,-1.818 1.025,-2.475c0.656,-0.656 1.547,-1.025 2.475,-1.025l0.174,0.004c0.394,0.02 0.779,0.106 1.14,0.252c0.067,-0.08 0.137,-0.157 0.211,-0.231c0.515,-0.514 1.173,-0.852 1.88,-0.974Z"/>
        </g>
        <g id="emoji">
            <path d="M14.346,11l1.086,-1.086l1.568,0.086l0,7l-3,0l0.617,1.543c0.312,0.78 0.79,1.46 1.383,2.005l0,2.866l-4,-4l0,3l-3.828,-3.828c-0.06,-0.059 -0.117,-0.12 -0.172,-0.183l0,-2.403l1.5,-5l4.846,0Z" style="fill:#640082;"/>
            <path d="M14.108,17.27l3.096,-0.27l-1.155,-4.622l1.215,-0.769l1.695,0.042l0.587,2.349l0.41,0l0.587,-2.349c1.525,0.006 1.54,0.059 2.91,0.728l-0.453,1.812l0,1.809l-0.603,0.603l-0.159,0.635l0.762,0.762c0,0 0.432,0.216 0.894,0.447c0.678,0.339 1.106,1.032 1.106,1.789c0,0.657 0,1.524 0,2.471c0,1.934 -0.768,3.789 -2.136,5.157c-1.368,1.368 -3.223,2.136 -5.157,2.136l-0.682,0c-4.984,0 -9.025,-4.041 -9.025,-9.025l0,-2.572c0.055,0.063 0.112,0.124 0.172,0.183l3.828,3.828l0,-3l2.783,2.783l1.019,1.624l0.347,-0.23l0.351,-0.789l-0.5,-2.254c-0.593,-0.545 -1.071,-1.225 -1.383,-2.005l-0.509,-1.273Zm10.345,-8.891l-0.757,3.03l-1.578,0.273l-1.333,-1.001l0.758,-3.03l1.434,-0.154l1.476,0.882Zm-9.021,1.535l-0.383,-1.536l1.451,-0.878l1.459,0.151l0.757,3.03l-1.368,0.765l-1.35,-0.033c-0.019,-0.55 -0.218,-1.076 -0.566,-1.499Zm-1.751,-7.006c0.961,0.556 1.921,1.112 2.882,1.668c0.325,0.188 0.594,0.468 0.769,0.801c0.074,0.141 0.13,0.29 0.17,0.445l0.214,0.859l-1.509,0.788l-1.401,-0.061l-1.125,-4.5Zm11.015,4.501l-1.724,0.022l-1.187,-0.75l0.215,-0.859c0.04,-0.155 0.096,-0.304 0.17,-0.445c0.175,-0.333 0.443,-0.613 0.769,-0.801c0.96,-0.556 1.921,-1.112 2.882,-1.668l-1.125,4.501Z" style="fill:#f10dc3;"/>
            <path d="M16,20.134c0.281,-0.162 0.636,-0.184 0.947,-0.028c0.494,0.246 0.694,0.848 0.447,1.341l-2,4c-0.246,0.494 -0.848,0.694 -1.341,0.447c-0.494,-0.246 -0.694,-0.848 -0.447,-1.341l1.177,-2.356l1.217,1.217l0,-3.28Z" style="fill:#a90eb1;"/>
            <path d="M23.696,11.409l-0.243,0.97l-2.91,-0.728l0.242,-0.97l2.911,0.728Zm1,-4l-0.243,0.97l-2.91,-0.728l0.242,-0.97l2.911,0.728Z" style="fill:#a90eb1;fill-rule:nonzero;"/>
            <g>
                <path d="M12,11.5c0,-0.398 0.158,-0.779 0.439,-1.061c0.282,-0.281 0.663,-0.439 1.061,-0.439c0.398,0 0.779,0.158 1.061,0.439c0.281,0.282 0.439,0.663 0.439,1.061c0,3.01 0,9.5 0,9.5c0,0 -1.541,-1.541 -2.414,-2.414c-0.375,-0.375 -0.586,-0.884 -0.586,-1.414c0,-1.339 0,-3.995 0,-5.672Z" style="fill:#f10dc3;"/>
                <path d="M8,12.468c0,-0.389 0.155,-0.763 0.43,-1.038c0.275,-0.275 0.649,-0.43 1.038,-0.43c0.001,0 0.001,0 0.002,0c0.845,0 1.53,0.685 1.53,1.53c0,2.569 0,7.47 0,7.47c0,0 -1.236,-1.236 -2.121,-2.121c-0.563,-0.563 -0.879,-1.326 -0.879,-2.122c0,-0.956 0,-2.28 0,-3.289Z" style="fill:#f10dc3;"/>
            </g>
            <path d="M15.996,11.361l2.72,-0.68l0.243,0.97l-2.91,0.727l-0.049,-0.194l0,-0.684c0,-0.041 -0.001,-0.083 -0.003,-0.124l-0.001,-0.015Zm1.963,-3.71l-2.91,0.727l-0.243,-0.97l2.91,-0.727l0.243,0.97Z" style="fill:#a90eb1;fill-rule:nonzero;"/>
            <path d="M23,18l-7.523,0l0.069,0.171c0.683,1.709 2.338,2.829 4.178,2.829l0.69,0l2.293,2.293l-1.414,1.414l-1.709,-1.709c-2.601,-0.055 -4.926,-1.659 -5.895,-4.084l-1.166,-2.914l10.477,0l0,2Z" style="fill:#640082;"/>
        </g>
    </g>
</svg>
