<?xml version="1.0" encoding="UTF-8" standalone="no"?>
<!DOCTYPE svg PUBLIC "-//W3C//DTD SVG 1.1//EN" "http://www.w3.org/Graphics/SVG/1.1/DTD/svg11.dtd">
<svg width="100%" height="100%" viewBox="0 0 32 32" version="1.1" xmlns="http://www.w3.org/2000/svg" xmlns:xlink="http://www.w3.org/1999/xlink" xml:space="preserve" xmlns:serif="http://www.serif.com/" style="fill-rule:evenodd;clip-rule:evenodd;stroke-linecap:round;stroke-linejoin:round;stroke-miterlimit:2;">
    <rect id="writing_hand--clw-" serif:id="writing_hand [clw]" x="0" y="0" width="32" height="32" style="fill:none;"/>
    <clipPath id="_clip1">
        <rect x="0" y="0" width="32" height="32"/>
    </clipPath>
    <g clip-path="url(#_clip1)">
        <g id="outline">
            <rect x="9" y="23" width="13" height="2" style="fill:none;stroke:#000;stroke-width:4px;"/>
            <path d="M12,12.273c0,0 -3.575,1.625 -5.206,2.366c-0.506,0.23 -0.894,0.661 -1.07,1.188c-0.742,2.226 -2.724,8.173 -2.724,8.173c0,0 0,0 0,0c1.657,0.552 3.448,-0.343 4,-2c0.5,-1.5 1,-3 1,-3l7,-3.5" style="fill:none;stroke:#000;stroke-width:4px;stroke-linejoin:miter;"/>
            <path d="M21,23l-8,0c0,0 -0.793,0.793 -1.564,1.564c-0.919,0.919 -2.167,1.436 -3.467,1.436c-0.268,0 -0.535,0 -0.782,0c-0.774,0 -1.531,-0.229 -2.175,-0.658c-0.874,-0.583 -2.012,-1.342 -2.012,-1.342l5,-2c0,0 1.175,-2.35 1.724,-3.447c0.169,-0.339 0.515,-0.553 0.894,-0.553c2.321,0 10.382,0 10.382,0" style="fill:none;stroke:#000;stroke-width:4px;"/>
            <rect x="0" y="16" width="25" height="11" style="fill:none;"/>
            <clipPath id="_clip2">
                <rect x="0" y="16" width="25" height="11"/>
            </clipPath>
            <g clip-path="url(#_clip2)">
                <path d="M21,23l-8,0c0,0 -0.793,0.793 -1.564,1.564c-0.919,0.919 -2.167,1.436 -3.467,1.436c-0.268,0 -0.535,0 -0.782,0c-0.774,0 -1.531,-0.229 -2.175,-0.658c-0.874,-0.583 -2.012,-1.342 -2.012,-1.342l5,-2c0,0 1.175,-2.35 1.724,-3.447c0.169,-0.339 0.515,-0.553 0.894,-0.553c2.321,0 10.382,0 10.382,0" style="fill:none;stroke:#000;stroke-width:8px;"/>
            </g>
            <path d="M16,23c0,0 0.927,0.464 1.889,0.944c1.388,0.695 2.919,1.056 4.472,1.056c2.956,0 7.639,0 7.639,0l0,-7.012l-2.989,0c0,0 -5.804,-4.631 -8.573,-6.841c-0.882,-0.704 -2.085,-0.853 -3.113,-0.386c-1.775,0.807 -4.325,1.966 -4.325,1.966l1,4.273c0,0 1.516,-0.758 2.682,-1.341c0.787,-0.394 1.738,-0.239 2.36,0.383c0.082,0.082 0.166,0.166 0.251,0.251c0.286,0.286 0.371,0.716 0.217,1.09c-0.155,0.373 -0.52,0.617 -0.924,0.617c-0.345,0 -0.586,0 -0.586,0" style="fill:none;stroke:#000;stroke-width:4px;"/>
            <path d="M2,25.5l0,1.5l1.5,0l11.5,-11.5l-1.5,-1.5l-11.5,11.5Z" style="fill:none;stroke:#000;stroke-width:4px;stroke-linejoin:miter;"/>
            <path d="M11,16.5l1.5,1.5l12,-12l-1.5,-1.5l-12,12Z" style="fill:none;stroke:#000;stroke-width:4px;"/>
        </g>
        <g id="emoji">
            <rect x="9" y="23" width="13" height="2" style="fill:#640082;"/>
            <path d="M12,12.273c0,0 -3.575,1.625 -5.206,2.366c-0.506,0.23 -0.894,0.661 -1.07,1.188c-0.742,2.226 -2.724,8.173 -2.724,8.173c0,0 0,0 0,0c1.657,0.552 3.448,-0.343 4,-2c0.5,-1.5 1,-3 1,-3l7,-3.5" style="fill:#f10dc3;"/>
            <clipPath id="_clip3">
                <path d="M12,12.273c0,0 -3.575,1.625 -5.206,2.366c-0.506,0.23 -0.894,0.661 -1.07,1.188c-0.742,2.226 -2.724,8.173 -2.724,8.173c0,0 0,0 0,0c1.657,0.552 3.448,-0.343 4,-2c0.5,-1.5 1,-3 1,-3l7,-3.5"/>
            </clipPath>
            <g clip-path="url(#_clip3)">
                <path d="M3,24c0,0 8.649,-5.988 11.838,-8.195c0.673,-0.466 1.583,-0.384 2.162,0.195c0,0 0,0 0,0" style="fill:none;stroke:#a90eb1;stroke-width:4px;"/>
                <path d="M5,14l6,6" style="fill:none;stroke:#a90eb1;stroke-width:1px;stroke-linecap:square;stroke-linejoin:miter;stroke-miterlimit:1.414;"/>
            </g>
            <path d="M3.5,27l4,-4l3.5,0l0,-4l4,0l0,-5l-15,0l0,13l3.5,0Z" style="fill:none;"/>
            <clipPath id="_clip4">
                <path d="M3.5,27l4,-4l3.5,0l0,-4l4,0l0,-5l-15,0l0,13l3.5,0Z"/>
            </clipPath>
            <g clip-path="url(#_clip4)">
                <path d="M2,25.5l0,1.5l1.5,0l11.5,-11.5l-1.5,-1.5l-11.5,11.5Z" style="fill:#fff;"/>
                <path d="M21,23l-8,0c0,0 -0.793,0.793 -1.564,1.564c-0.919,0.919 -2.167,1.436 -3.467,1.436c-0.268,0 -0.535,0 -0.782,0c-0.774,0 -1.531,-0.229 -2.175,-0.658c-0.874,-0.583 -2.012,-1.342 -2.012,-1.342l5,-2c0,0 1.175,-2.35 1.724,-3.447c0.169,-0.339 0.515,-0.553 0.894,-0.553c2.321,0 10.382,0 10.382,0" style="fill:none;stroke:#640082;stroke-width:4px;"/>
                <path d="M14.5,16l-2,2l3.5,0l0,-2l-1.5,0Z"/>
            </g>
            <path d="M21,23l-8,0c0,0 -0.793,0.793 -1.564,1.564c-0.919,0.919 -2.167,1.436 -3.467,1.436c-0.268,0 -0.535,0 -0.782,0c-0.774,0 -1.531,-0.229 -2.175,-0.658c-0.874,-0.583 -2.012,-1.342 -2.012,-1.342l5,-2c0,0 1.175,-2.35 1.724,-3.447c0.169,-0.339 0.515,-0.553 0.894,-0.553c2.321,0 10.382,0 10.382,0" style="fill:#f10dc3;"/>
            <clipPath id="_clip5">
                <path d="M21,23l-8,0c0,0 -0.793,0.793 -1.564,1.564c-0.919,0.919 -2.167,1.436 -3.467,1.436c-0.268,0 -0.535,0 -0.782,0c-0.774,0 -1.531,-0.229 -2.175,-0.658c-0.874,-0.583 -2.012,-1.342 -2.012,-1.342l5,-2c0,0 1.175,-2.35 1.724,-3.447c0.169,-0.339 0.515,-0.553 0.894,-0.553c2.321,0 10.382,0 10.382,0"/>
            </clipPath>
            <g clip-path="url(#_clip5)">
                <path d="M7,21l5,5" style="fill:none;stroke:#a90eb1;stroke-width:1px;stroke-linecap:square;stroke-linejoin:miter;stroke-miterlimit:1.414;"/>
                <path d="M10,17l4,8" style="fill:none;stroke:#a90eb1;stroke-width:1px;stroke-linecap:square;stroke-linejoin:miter;stroke-miterlimit:1.414;"/>
            </g>
            <path d="M16,23c0,0 0.927,0.464 1.889,0.944c1.388,0.695 2.919,1.056 4.472,1.056c2.956,0 7.639,0 7.639,0l0,-7.012l-2.989,0c0,0 -5.804,-4.631 -8.573,-6.841c-0.882,-0.704 -2.085,-0.853 -3.113,-0.386c-1.775,0.807 -4.325,1.966 -4.325,1.966l3,3.273c0,0 0.308,-0.154 0.682,-0.341c0.787,-0.394 1.738,-0.239 2.36,0.383c0.082,0.082 0.166,0.166 0.251,0.251c0.286,0.286 0.371,0.716 0.217,1.09c-0.155,0.373 -0.52,0.617 -0.924,0.617c-0.345,0 -0.586,0 -0.586,0" style="fill:#f10dc3;"/>
            <clipPath id="_clip6">
                <path d="M16,23c0,0 0.927,0.464 1.889,0.944c1.388,0.695 2.919,1.056 4.472,1.056c2.956,0 7.639,0 7.639,0l0,-7.012l-2.989,0c0,0 -5.804,-4.631 -8.573,-6.841c-0.882,-0.704 -2.085,-0.853 -3.113,-0.386c-1.775,0.807 -4.325,1.966 -4.325,1.966l3,3.273c0,0 0.308,-0.154 0.682,-0.341c0.787,-0.394 1.738,-0.239 2.36,0.383c0.082,0.082 0.166,0.166 0.251,0.251c0.286,0.286 0.371,0.716 0.217,1.09c-0.155,0.373 -0.52,0.617 -0.924,0.617c-0.345,0 -0.586,0 -0.586,0"/>
            </clipPath>
            <g clip-path="url(#_clip6)">
                <rect x="26" y="17" width="5" height="10" style="fill:#a90eb1;"/>
                <path d="M3,24c0,0 8.649,-5.988 11.838,-8.195c0.673,-0.466 1.583,-0.384 2.162,0.195c0,0 0,0 0,0" style="fill:none;stroke:#a90eb1;stroke-width:4px;"/>
                <path d="M15.5,15l7,-7" style="fill:none;stroke:#a90eb1;stroke-width:4px;stroke-miterlimit:1.5;"/>
                <path d="M12,11l3,6" style="fill:none;stroke:#a90eb1;stroke-width:1px;stroke-linecap:square;stroke-linejoin:miter;stroke-miterlimit:1.414;"/>
            </g>
            <path d="M11.5,16l3,0l10,-10l-1.5,-1.5l-11.5,11.5Z" style="fill:#fff;"/>
        </g>
    </g>
</svg>
