<?xml version="1.0" encoding="UTF-8" standalone="no"?><!DOCTYPE svg PUBLIC "-//W3C//DTD SVG 1.1//EN" "http://www.w3.org/Graphics/SVG/1.1/DTD/svg11.dtd"><svg width="100%" height="100%" viewBox="0 0 32 32" version="1.1" xmlns="http://www.w3.org/2000/svg" xmlns:xlink="http://www.w3.org/1999/xlink" xml:space="preserve" xmlns:serif="http://www.serif.com/" style="fill-rule:evenodd;clip-rule:evenodd;stroke-linejoin:round;stroke-miterlimit:1.41421;"><rect id="_10" serif:id="10" x="0" y="0" width="32" height="32" style="fill:none;"/><clipPath id="_clip1"><rect x="0" y="0" width="32" height="32"/></clipPath><g clip-path="url(#_clip1)"><g id="outline"><path d="M32,8c0,-4.418 -3.582,-8 -8,-8c-4.887,0 -11.113,0 -16,0c-4.418,0 -8,3.582 -8,8c0,4.887 0,11.113 0,16c0,4.418 3.582,8 8,8c4.887,0 11.113,0 16,0c4.418,0 8,-3.582 8,-8c0,-4.887 0,-11.113 0,-16Z"/></g><g id="emoji"><path d="M30,20l-28,0c0,0 0,1.874 0,4c0,3.314 2.686,6 6,6c4.724,0 11.276,0 16,0c3.314,0 6,-2.686 6,-6c0,-2.126 0,-4 0,-4Z" style="fill:#b2b2b2;"/><path d="M30,8c0,-3.314 -2.686,-6 -6,-6c-4.724,0 -11.276,0 -16,0c-1.591,0 -3.117,0.632 -4.243,1.757c-1.125,1.126 -1.757,2.652 -1.757,4.243c0,3.665 0,8.335 0,12c0,3.314 2.686,6 6,6c4.724,0 11.276,0 16,0c1.591,0 3.117,-0.632 4.243,-1.757c1.125,-1.126 1.757,-2.652 1.757,-4.243c0,-3.665 0,-8.335 0,-12Z" style="fill:#fff;"/><path d="M9.003,8.875l-3.622,2.095l0,-3.327l3.622,-2.143l3.227,0l0,17l-3.227,0l0,-13.625Z" style="fill:#333;fill-rule:nonzero;"/><path d="M20.903,22.771c-3.811,0 -5.716,-2.078 -5.716,-6.233l0,-5.273c0,-1.987 0.484,-3.49 1.454,-4.508c0.969,-1.019 2.389,-1.528 4.262,-1.528c1.905,0 3.334,0.509 4.287,1.528c0.953,1.018 1.429,2.521 1.429,4.508l0,5.273c0,2.053 -0.476,3.605 -1.429,4.656c-0.953,1.051 -2.382,1.577 -4.287,1.577Zm0,-2.809c0.903,0 1.544,-0.291 1.922,-0.874c0.377,-0.583 0.566,-1.524 0.566,-2.821l0,-4.534c0,-1.297 -0.193,-2.233 -0.579,-2.808c-0.386,-0.575 -1.022,-0.863 -1.909,-0.863c-0.887,0 -1.519,0.288 -1.897,0.863c-0.378,0.575 -0.567,1.511 -0.567,2.808l0,4.534c0,1.297 0.189,2.238 0.567,2.821c0.378,0.583 1.01,0.874 1.897,0.874Z" style="fill:#333;fill-rule:nonzero;"/></g></g></svg>