<?xml version="1.0" encoding="UTF-8" standalone="no"?><!DOCTYPE svg PUBLIC "-//W3C//DTD SVG 1.1//EN" "http://www.w3.org/Graphics/SVG/1.1/DTD/svg11.dtd"><svg width="100%" height="100%" viewBox="0 0 32 32" version="1.1" xmlns="http://www.w3.org/2000/svg" xmlns:xlink="http://www.w3.org/1999/xlink" xml:space="preserve" xmlns:serif="http://www.serif.com/" style="fill-rule:evenodd;clip-rule:evenodd;stroke-linejoin:round;stroke-miterlimit:1.41421;"><rect id="_3" serif:id="3" x="0" y="0" width="32" height="32" style="fill:none;"/><clipPath id="_clip1"><rect x="0" y="0" width="32" height="32"/></clipPath><g clip-path="url(#_clip1)"><g id="outline"><path d="M32,8c0,-4.418 -3.582,-8 -8,-8c-4.887,0 -11.113,0 -16,0c-4.418,0 -8,3.582 -8,8c0,4.887 0,11.113 0,16c0,4.418 3.582,8 8,8c4.887,0 11.113,0 16,0c4.418,0 8,-3.582 8,-8c0,-4.887 0,-11.113 0,-16Z"/></g><g id="emoji"><path d="M30,20l-28,0c0,0 0,1.874 0,4c0,3.314 2.686,6 6,6c4.724,0 11.276,0 16,0c3.314,0 6,-2.686 6,-6c0,-2.126 0,-4 0,-4Z" style="fill:#b2b2b2;"/><path d="M30,8c0,-3.314 -2.686,-6 -6,-6c-4.724,0 -11.276,0 -16,0c-1.591,0 -3.117,0.632 -4.243,1.757c-1.125,1.126 -1.757,2.652 -1.757,4.243c0,3.665 0,8.335 0,12c0,3.314 2.686,6 6,6c4.724,0 11.276,0 16,0c1.591,0 3.117,-0.632 4.243,-1.757c1.125,-1.126 1.757,-2.652 1.757,-4.243c0,-3.665 0,-8.335 0,-12Z" style="fill:#fff;"/><path d="M15.975,22.771c-1.823,0 -3.219,-0.398 -4.188,-1.195c-0.969,-0.797 -1.454,-1.942 -1.454,-3.437l0,-0.271l3.006,0l0,0.197c0,0.641 0.222,1.129 0.665,1.466c0.444,0.337 1.084,0.505 1.922,0.505c0.821,0 1.454,-0.201 1.897,-0.603c0.444,-0.403 0.665,-0.965 0.665,-1.688l0,-0.37c0,-0.772 -0.234,-1.342 -0.702,-1.712c-0.468,-0.37 -1.178,-0.554 -2.131,-0.554l-0.961,0l0,-2.735l0.936,0c0.838,0 1.475,-0.181 1.91,-0.542c0.435,-0.361 0.653,-0.879 0.653,-1.552l0,-0.296c0,-0.641 -0.206,-1.137 -0.616,-1.491c-0.411,-0.353 -0.994,-0.529 -1.749,-0.529c-0.772,0 -1.364,0.172 -1.774,0.517c-0.411,0.345 -0.616,0.838 -0.616,1.478l0,0.222l-2.957,0l0,-0.222c0,-1.527 0.468,-2.697 1.405,-3.51c0.936,-0.813 2.274,-1.22 4.015,-1.22c1.709,0 3.047,0.394 4.016,1.183c0.969,0.788 1.454,1.872 1.454,3.252l0,0.32c0,0.788 -0.201,1.478 -0.604,2.07c-0.402,0.591 -0.989,1.059 -1.761,1.404c0.87,0.296 1.531,0.78 1.983,1.454c0.452,0.673 0.678,1.494 0.678,2.463l0,0.395c0,1.544 -0.514,2.763 -1.54,3.658c-1.027,0.895 -2.411,1.343 -4.152,1.343Z" style="fill:#333;fill-rule:nonzero;"/></g></g></svg>