<?xml version="1.0" encoding="UTF-8" standalone="no"?><!DOCTYPE svg PUBLIC "-//W3C//DTD SVG 1.1//EN" "http://www.w3.org/Graphics/SVG/1.1/DTD/svg11.dtd"><svg width="100%" height="100%" viewBox="0 0 32 32" version="1.1" xmlns="http://www.w3.org/2000/svg" xmlns:xlink="http://www.w3.org/1999/xlink" xml:space="preserve" xmlns:serif="http://www.serif.com/" style="fill-rule:evenodd;clip-rule:evenodd;stroke-linejoin:round;stroke-miterlimit:1.41421;"><rect id="_5" serif:id="5" x="0" y="0" width="32" height="32" style="fill:none;"/><clipPath id="_clip1"><rect x="0" y="0" width="32" height="32"/></clipPath><g clip-path="url(#_clip1)"><g id="outline"><path d="M32,8c0,-4.418 -3.582,-8 -8,-8c-4.887,0 -11.113,0 -16,0c-4.418,0 -8,3.582 -8,8c0,4.887 0,11.113 0,16c0,4.418 3.582,8 8,8c4.887,0 11.113,0 16,0c4.418,0 8,-3.582 8,-8c0,-4.887 0,-11.113 0,-16Z"/></g><g id="emoji"><path d="M30,20l-28,0c0,0 0,1.874 0,4c0,3.314 2.686,6 6,6c4.724,0 11.276,0 16,0c3.314,0 6,-2.686 6,-6c0,-2.126 0,-4 0,-4Z" style="fill:#b2b2b2;"/><path d="M30,8c0,-3.314 -2.686,-6 -6,-6c-4.724,0 -11.276,0 -16,0c-1.591,0 -3.117,0.632 -4.243,1.757c-1.125,1.126 -1.757,2.652 -1.757,4.243c0,3.665 0,8.335 0,12c0,3.314 2.686,6 6,6c4.724,0 11.276,0 16,0c1.591,0 3.117,-0.632 4.243,-1.757c1.125,-1.126 1.757,-2.652 1.757,-4.243c0,-3.665 0,-8.335 0,-12Z" style="fill:#fff;"/><path d="M15.864,22.771c-1.642,0 -2.948,-0.386 -3.917,-1.158c-0.969,-0.772 -1.454,-1.84 -1.454,-3.203l0,-0.197l3.08,0l0,0.099c0,0.509 0.21,0.924 0.628,1.244c0.419,0.32 0.982,0.48 1.688,0.48c0.805,0 1.413,-0.23 1.823,-0.69c0.411,-0.46 0.616,-1.108 0.616,-1.946l0,-0.764c0,-0.87 -0.209,-1.536 -0.628,-1.995c-0.419,-0.46 -1.022,-0.69 -1.811,-0.69c-0.525,0 -0.985,0.111 -1.38,0.332c-0.394,0.222 -0.689,0.522 -0.887,0.9l-2.833,0l0,-9.683l10.2,0l0,2.759l-7.416,0l0,3.967c0.821,-0.608 1.823,-0.912 3.006,-0.912c1.56,0 2.772,0.456 3.634,1.368c0.862,0.911 1.294,2.189 1.294,3.831l0,0.936c0,1.676 -0.493,2.981 -1.479,3.918c-0.985,0.936 -2.373,1.404 -4.164,1.404Z" style="fill:#333;fill-rule:nonzero;"/></g></g></svg>