<?xml version="1.0" encoding="UTF-8" standalone="no"?><!DOCTYPE svg PUBLIC "-//W3C//DTD SVG 1.1//EN" "http://www.w3.org/Graphics/SVG/1.1/DTD/svg11.dtd"><svg width="100%" height="100%" viewBox="0 0 32 32" version="1.1" xmlns="http://www.w3.org/2000/svg" xmlns:xlink="http://www.w3.org/1999/xlink" xml:space="preserve" xmlns:serif="http://www.serif.com/" style="fill-rule:evenodd;clip-rule:evenodd;stroke-linejoin:round;stroke-miterlimit:1.41421;"><rect id="_8" serif:id="8" x="0" y="0" width="32" height="32" style="fill:none;"/><clipPath id="_clip1"><rect x="0" y="0" width="32" height="32"/></clipPath><g clip-path="url(#_clip1)"><g id="outline"><path d="M32,8c0,-4.418 -3.582,-8 -8,-8c-4.887,0 -11.113,0 -16,0c-4.418,0 -8,3.582 -8,8c0,4.887 0,11.113 0,16c0,4.418 3.582,8 8,8c4.887,0 11.113,0 16,0c4.418,0 8,-3.582 8,-8c0,-4.887 0,-11.113 0,-16Z"/></g><g id="emoji"><path d="M30,20l-28,0c0,0 0,1.874 0,4c0,3.314 2.686,6 6,6c4.724,0 11.276,0 16,0c3.314,0 6,-2.686 6,-6c0,-2.126 0,-4 0,-4Z" style="fill:#b2b2b2;"/><path d="M30,8c0,-3.314 -2.686,-6 -6,-6c-4.724,0 -11.276,0 -16,0c-1.591,0 -3.117,0.632 -4.243,1.757c-1.125,1.126 -1.757,2.652 -1.757,4.243c0,3.665 0,8.335 0,12c0,3.314 2.686,6 6,6c4.724,0 11.276,0 16,0c1.591,0 3.117,-0.632 4.243,-1.757c1.125,-1.126 1.757,-2.652 1.757,-4.243c0,-3.665 0,-8.335 0,-12Z" style="fill:#fff;"/><path d="M16,22.771c-1.79,0 -3.219,-0.456 -4.287,-1.367c-1.068,-0.912 -1.601,-2.148 -1.601,-3.708l0,-0.345c0,-0.822 0.209,-1.565 0.628,-2.23c0.419,-0.665 1.006,-1.178 1.761,-1.54c-0.624,-0.312 -1.116,-0.764 -1.478,-1.355c-0.361,-0.591 -0.542,-1.265 -0.542,-2.02l0,-0.271c0,-0.92 0.222,-1.737 0.665,-2.452c0.444,-0.714 1.084,-1.269 1.922,-1.663c0.838,-0.394 1.823,-0.591 2.957,-0.591c1.133,0 2.118,0.197 2.956,0.591c0.838,0.394 1.478,0.949 1.922,1.663c0.443,0.715 0.665,1.532 0.665,2.452l0,0.271c0,0.739 -0.185,1.408 -0.554,2.008c-0.37,0.599 -0.867,1.055 -1.491,1.367c0.756,0.378 1.339,0.899 1.749,1.565c0.411,0.665 0.616,1.392 0.616,2.18l0,0.345c0,1.577 -0.533,2.821 -1.601,3.733c-1.068,0.911 -2.497,1.367 -4.287,1.367Zm0.025,-10.471c0.755,0 1.338,-0.185 1.749,-0.554c0.411,-0.37 0.616,-0.875 0.616,-1.516l0,-0.271c0,-0.624 -0.21,-1.112 -0.628,-1.466c-0.419,-0.353 -0.998,-0.529 -1.737,-0.529c-0.756,0 -1.343,0.176 -1.762,0.529c-0.419,0.354 -0.628,0.842 -0.628,1.466l0,0.271c0,0.641 0.205,1.146 0.616,1.516c0.41,0.369 1.002,0.554 1.774,0.554Zm0,7.736c0.854,0 1.519,-0.209 1.995,-0.628c0.477,-0.419 0.715,-1.006 0.715,-1.762l0,-0.369c0,-0.723 -0.238,-1.29 -0.715,-1.7c-0.476,-0.411 -1.141,-0.616 -1.995,-0.616c-0.854,0 -1.524,0.205 -2.008,0.616c-0.485,0.41 -0.727,0.977 -0.727,1.7l0,0.369c0,0.756 0.238,1.343 0.714,1.762c0.477,0.419 1.15,0.628 2.021,0.628Z" style="fill:#333;fill-rule:nonzero;"/></g></g></svg>