<?xml version="1.0" encoding="UTF-8" standalone="no"?><!DOCTYPE svg PUBLIC "-//W3C//DTD SVG 1.1//EN" "http://www.w3.org/Graphics/SVG/1.1/DTD/svg11.dtd"><svg width="100%" height="100%" viewBox="0 0 32 32" version="1.1" xmlns="http://www.w3.org/2000/svg" xmlns:xlink="http://www.w3.org/1999/xlink" xml:space="preserve" xmlns:serif="http://www.serif.com/" style="fill-rule:evenodd;clip-rule:evenodd;stroke-linejoin:round;stroke-miterlimit:1.41421;"><rect id="_9" serif:id="9" x="0" y="0" width="32" height="32" style="fill:none;"/><clipPath id="_clip1"><rect x="0" y="0" width="32" height="32"/></clipPath><g clip-path="url(#_clip1)"><g id="outline"><path d="M32,8c0,-4.418 -3.582,-8 -8,-8c-4.887,0 -11.113,0 -16,0c-4.418,0 -8,3.582 -8,8c0,4.887 0,11.113 0,16c0,4.418 3.582,8 8,8c4.887,0 11.113,0 16,0c4.418,0 8,-3.582 8,-8c0,-4.887 0,-11.113 0,-16Z"/></g><g id="emoji"><path d="M30,20l-28,0c0,0 0,1.874 0,4c0,3.314 2.686,6 6,6c4.724,0 11.276,0 16,0c3.314,0 6,-2.686 6,-6c0,-2.126 0,-4 0,-4Z" style="fill:#b2b2b2;"/><path d="M30,8c0,-3.314 -2.686,-6 -6,-6c-4.724,0 -11.276,0 -16,0c-1.591,0 -3.117,0.632 -4.243,1.757c-1.125,1.126 -1.757,2.652 -1.757,4.243c0,3.665 0,8.335 0,12c0,3.314 2.686,6 6,6c4.724,0 11.276,0 16,0c1.591,0 3.117,-0.632 4.243,-1.757c1.125,-1.126 1.757,-2.652 1.757,-4.243c0,-3.665 0,-8.335 0,-12Z" style="fill:#fff;"/><path d="M16.801,15.528c-0.509,0.229 -1.101,0.344 -1.774,0.344c-1.478,0 -2.669,-0.443 -3.573,-1.33c-0.903,-0.887 -1.355,-2.07 -1.355,-3.548l0,-0.517c0,-1.643 0.526,-2.928 1.577,-3.856c1.051,-0.928 2.488,-1.392 4.312,-1.392c1.856,0 3.305,0.456 4.348,1.367c1.043,0.912 1.565,2.173 1.565,3.782l0,0.518c0,1.264 -0.419,2.611 -1.257,4.04l-4.385,7.564l-3.474,0l4.016,-6.972Zm-0.813,-2.341c0.837,0 1.49,-0.209 1.958,-0.628c0.468,-0.419 0.703,-0.998 0.703,-1.737l0,-0.468c0,-0.756 -0.235,-1.343 -0.703,-1.762c-0.468,-0.419 -1.121,-0.628 -1.958,-0.628c-0.838,0 -1.491,0.213 -1.959,0.64c-0.468,0.427 -0.702,1.019 -0.702,1.774l0,0.419c0,0.756 0.234,1.343 0.702,1.762c0.468,0.419 1.121,0.628 1.959,0.628Z" style="fill:#333;fill-rule:nonzero;"/></g></g></svg>