<?xml version="1.0" encoding="UTF-8" standalone="no"?><!DOCTYPE svg PUBLIC "-//W3C//DTD SVG 1.1//EN" "http://www.w3.org/Graphics/SVG/1.1/DTD/svg11.dtd"><svg width="100%" height="100%" viewBox="0 0 32 32" version="1.1" xmlns="http://www.w3.org/2000/svg" xmlns:xlink="http://www.w3.org/1999/xlink" xml:space="preserve" xmlns:serif="http://www.serif.com/" style="fill-rule:evenodd;clip-rule:evenodd;stroke-linejoin:round;stroke-miterlimit:1.41421;"><rect id="abc" x="0" y="0" width="32" height="32" style="fill:none;"/><clipPath id="_clip1"><rect x="0" y="0" width="32" height="32"/></clipPath><g clip-path="url(#_clip1)"><g id="outline"><path d="M32,8c0,-4.418 -3.582,-8 -8,-8c-4.887,0 -11.113,0 -16,0c-4.418,0 -8,3.582 -8,8c0,4.887 0,11.113 0,16c0,4.418 3.582,8 8,8c4.887,0 11.113,0 16,0c4.418,0 8,-3.582 8,-8c0,-4.887 0,-11.113 0,-16Z"/></g><g id="emoji"><path d="M30,8c0,-1.591 -0.632,-3.117 -1.757,-4.243c-1.126,-1.125 -2.652,-1.757 -4.243,-1.757c-4.724,0 -11.276,0 -16,0c-1.591,0 -3.117,0.632 -4.243,1.757c-1.125,1.126 -1.757,2.652 -1.757,4.243c0,4.724 0,11.276 0,16c0,1.591 0.632,3.117 1.757,4.243c1.126,1.125 2.652,1.757 4.243,1.757c4.724,0 11.276,0 16,0c1.591,0 3.117,-0.632 4.243,-1.757c1.125,-1.126 1.757,-2.652 1.757,-4.243c0,-4.724 0,-11.276 0,-16Z" style="fill:#fff;"/><g><path d="M10.251,12.181c0.571,0.611 0.856,1.433 0.856,2.467l0,7.41l-2.174,0l0,-0.886c-0.282,0.362 -0.558,0.627 -0.826,0.795c-0.269,0.168 -0.618,0.252 -1.047,0.252c-0.886,0 -1.554,-0.289 -2.004,-0.866c-0.449,-0.577 -0.674,-1.383 -0.674,-2.416c0,-0.994 0.302,-1.762 0.906,-2.306c0.604,-0.544 1.47,-0.815 2.597,-0.815l0.886,0l0,-1.349c0,-0.376 -0.083,-0.662 -0.251,-0.856c-0.168,-0.195 -0.413,-0.292 -0.735,-0.292c-0.296,0 -0.53,0.094 -0.705,0.282c-0.174,0.188 -0.262,0.443 -0.262,0.765l0,0.161l-2.154,0l0,-0.081c0,-1.047 0.295,-1.839 0.886,-2.376c0.59,-0.536 1.356,-0.805 2.295,-0.805c1.034,0 1.836,0.305 2.406,0.916Zm-1.772,7.652c0.195,-0.235 0.292,-0.554 0.292,-0.957l0,-1.429l-0.604,0c-0.469,0 -0.829,0.107 -1.077,0.322c-0.248,0.215 -0.372,0.57 -0.372,1.067c0,0.443 0.087,0.779 0.261,1.007c0.175,0.228 0.43,0.342 0.766,0.342c0.295,0 0.54,-0.117 0.734,-0.352Z" style="fill:#333;fill-rule:nonzero;"/><path d="M15.849,21.997c-0.289,-0.147 -0.567,-0.376 -0.836,-0.684l0,0.745l-2.255,0l0,-13.894l2.336,0l0,4.108c0.188,-0.322 0.433,-0.571 0.735,-0.745c0.302,-0.175 0.654,-0.262 1.057,-0.262c0.779,0 1.396,0.275 1.852,0.826c0.457,0.55 0.685,1.423 0.685,2.617l0,4.068c0,1.194 -0.238,2.067 -0.715,2.617c-0.476,0.55 -1.097,0.826 -1.862,0.826c-0.376,0 -0.708,-0.074 -0.997,-0.222Zm0.987,-2.275c0.167,-0.269 0.251,-0.712 0.251,-1.329l0,-3.302c0,-0.604 -0.084,-1.044 -0.251,-1.319c-0.168,-0.275 -0.42,-0.413 -0.755,-0.413c-0.336,0 -0.591,0.138 -0.766,0.413c-0.174,0.275 -0.261,0.715 -0.261,1.319l0,3.302c0,1.154 0.342,1.732 1.027,1.732c0.335,0 0.587,-0.135 0.755,-0.403Z" style="fill:#333;fill-rule:nonzero;"/><path d="M21.819,21.313c-0.577,-0.604 -0.866,-1.584 -0.866,-2.94l0,-3.262c0,-1.356 0.289,-2.336 0.866,-2.94c0.577,-0.604 1.416,-0.906 2.517,-0.906c1.06,0 1.873,0.289 2.436,0.866c0.564,0.577 0.846,1.443 0.846,2.597l0,0.403l-2.255,0l0,-0.362c0,-0.47 -0.091,-0.823 -0.272,-1.057c-0.181,-0.235 -0.433,-0.353 -0.755,-0.353c-0.349,0 -0.611,0.138 -0.785,0.413c-0.175,0.275 -0.262,0.715 -0.262,1.319l0,3.302c0,0.604 0.087,1.044 0.262,1.319c0.174,0.275 0.429,0.413 0.765,0.413c0.335,0 0.594,-0.118 0.775,-0.353c0.181,-0.235 0.272,-0.594 0.272,-1.077l0,-0.342l2.255,0l0,0.342c0,1.181 -0.282,2.064 -0.846,2.648c-0.563,0.584 -1.376,0.876 -2.436,0.876c-1.101,0 -1.94,-0.302 -2.517,-0.906Z" style="fill:#333;fill-rule:nonzero;"/></g></g></g></svg>