<?xml version="1.0" encoding="UTF-8" standalone="no"?><!DOCTYPE svg PUBLIC "-//W3C//DTD SVG 1.1//EN" "http://www.w3.org/Graphics/SVG/1.1/DTD/svg11.dtd"><svg width="100%" height="100%" viewBox="0 0 32 32" version="1.1" xmlns="http://www.w3.org/2000/svg" xmlns:xlink="http://www.w3.org/1999/xlink" xml:space="preserve" xmlns:serif="http://www.serif.com/" style="fill-rule:evenodd;clip-rule:evenodd;stroke-linecap:round;stroke-linejoin:round;stroke-miterlimit:1.5;"><rect id="high_brightness" x="0" y="0" width="32" height="32" style="fill:none;"/><clipPath id="_clip1"><rect x="0" y="0" width="32" height="32"/></clipPath><g clip-path="url(#_clip1)"><g id="outline"><circle cx="16" cy="16" r="7"/><path d="M18,4c0,-1.105 -0.895,-2 -2,-2c-1.105,0 -2,0.895 -2,2c0,0.941 0,2.059 0,3c0,1.105 0.895,2 2,2c1.105,0 2,-0.895 2,-2c0,-0.941 0,-2.059 0,-3Z" style="fill:none;stroke:#000;stroke-width:4px;"/><path d="M25.899,8.929c0.782,-0.781 0.782,-2.047 0,-2.828c-0.781,-0.782 -2.047,-0.782 -2.828,0c-0.665,0.665 -1.456,1.456 -2.121,2.121c-0.781,0.781 -0.781,2.047 0,2.828c0.781,0.781 2.047,0.781 2.828,0c0.665,-0.665 1.456,-1.456 2.121,-2.121Z" style="fill:none;stroke:#000;stroke-width:4px;"/><path d="M28,18c1.105,0 2,-0.895 2,-2c0,-1.105 -0.895,-2 -2,-2c-0.941,0 -2.059,0 -3,0c-1.105,0 -2,0.895 -2,2c0,1.105 0.895,2 2,2c0.941,0 2.059,0 3,0Z" style="fill:none;stroke:#000;stroke-width:4px;"/><path d="M23.071,25.899c0.781,0.782 2.047,0.782 2.828,0c0.782,-0.781 0.782,-2.047 0,-2.828c-0.665,-0.665 -1.456,-1.456 -2.121,-2.121c-0.781,-0.781 -2.047,-0.781 -2.828,0c-0.781,0.781 -0.781,2.047 0,2.828c0.665,0.665 1.456,1.456 2.121,2.121Z" style="fill:none;stroke:#000;stroke-width:4px;"/><path d="M18,25c0,-1.105 -0.895,-2 -2,-2c-1.105,0 -2,0.895 -2,2c0,0.941 0,2.059 0,3c0,1.105 0.895,2 2,2c1.105,0 2,-0.895 2,-2c0,-0.941 0,-2.059 0,-3Z" style="fill:none;stroke:#000;stroke-width:4px;"/><path d="M11.05,23.778c0.781,-0.781 0.781,-2.047 0,-2.828c-0.781,-0.781 -2.047,-0.781 -2.828,0c-0.665,0.665 -1.456,1.456 -2.121,2.121c-0.782,0.781 -0.782,2.047 0,2.828c0.781,0.782 2.047,0.782 2.828,0c0.665,-0.665 1.456,-1.456 2.121,-2.121Z" style="fill:none;stroke:#000;stroke-width:4px;"/><path d="M7,18c1.105,0 2,-0.895 2,-2c0,-1.105 -0.895,-2 -2,-2c-0.941,0 -2.059,0 -3,0c-1.105,0 -2,0.895 -2,2c0,1.105 0.895,2 2,2c0.941,0 2.059,0 3,0Z" style="fill:none;stroke:#000;stroke-width:4px;"/><path d="M8.222,11.05c0.781,0.781 2.047,0.781 2.828,0c0.781,-0.781 0.781,-2.047 0,-2.828c-0.665,-0.665 -1.456,-1.456 -2.121,-2.121c-0.781,-0.782 -2.047,-0.782 -2.828,0c-0.782,0.781 -0.782,2.047 0,2.828c0.665,0.665 1.456,1.456 2.121,2.121Z" style="fill:none;stroke:#000;stroke-width:4px;"/></g><g id="emoji"><circle cx="16" cy="16" r="6" style="fill:#ef9b00;"/><circle cx="16" cy="16" r="3"/><path d="M18,4c0,-1.105 -0.895,-2 -2,-2c-1.105,0 -2,0.895 -2,2c0,0.941 0,2.059 0,3c0,1.105 0.895,2 2,2c1.105,0 2,-0.895 2,-2c0,-0.941 0,-2.059 0,-3Z" style="fill:#ef9b00;"/><path d="M25.899,8.929c0.782,-0.781 0.782,-2.047 0,-2.828c-0.781,-0.782 -2.047,-0.782 -2.828,0c-0.665,0.665 -1.456,1.456 -2.121,2.121c-0.781,0.781 -0.781,2.047 0,2.828c0.781,0.781 2.047,0.781 2.828,0c0.665,-0.665 1.456,-1.456 2.121,-2.121Z" style="fill:#ef9b00;"/><path d="M28,18c1.105,0 2,-0.895 2,-2c0,-1.105 -0.895,-2 -2,-2c-0.941,0 -2.059,0 -3,0c-1.105,0 -2,0.895 -2,2c0,1.105 0.895,2 2,2c0.941,0 2.059,0 3,0Z" style="fill:#ef9b00;"/><path d="M23.071,25.899c0.781,0.782 2.047,0.782 2.828,0c0.782,-0.781 0.782,-2.047 0,-2.828c-0.665,-0.665 -1.456,-1.456 -2.121,-2.121c-0.781,-0.781 -2.047,-0.781 -2.828,0c-0.781,0.781 -0.781,2.047 0,2.828c0.665,0.665 1.456,1.456 2.121,2.121Z" style="fill:#ef9b00;"/><path d="M18,25c0,-1.105 -0.895,-2 -2,-2c-1.105,0 -2,0.895 -2,2c0,0.941 0,2.059 0,3c0,1.105 0.895,2 2,2c1.105,0 2,-0.895 2,-2c0,-0.941 0,-2.059 0,-3Z" style="fill:#ef9b00;"/><path d="M11.05,23.778c0.781,-0.781 0.781,-2.047 0,-2.828c-0.781,-0.781 -2.047,-0.781 -2.828,0c-0.665,0.665 -1.456,1.456 -2.121,2.121c-0.782,0.781 -0.782,2.047 0,2.828c0.781,0.782 2.047,0.782 2.828,0c0.665,-0.665 1.456,-1.456 2.121,-2.121Z" style="fill:#ef9b00;"/><path d="M7,18c1.105,0 2,-0.895 2,-2c0,-1.105 -0.895,-2 -2,-2c-0.941,0 -2.059,0 -3,0c-1.105,0 -2,0.895 -2,2c0,1.105 0.895,2 2,2c0.941,0 2.059,0 3,0Z" style="fill:#ef9b00;"/><path d="M8.222,11.05c0.781,0.781 2.047,0.781 2.828,0c0.781,-0.781 0.781,-2.047 0,-2.828c-0.665,-0.665 -1.456,-1.456 -2.121,-2.121c-0.781,-0.782 -2.047,-0.782 -2.828,0c-0.782,0.781 -0.782,2.047 0,2.828c0.665,0.665 1.456,1.456 2.121,2.121Z" style="fill:#ef9b00;"/></g></g></svg>