<?xml version="1.0" encoding="UTF-8" standalone="no"?><!DOCTYPE svg PUBLIC "-//W3C//DTD SVG 1.1//EN" "http://www.w3.org/Graphics/SVG/1.1/DTD/svg11.dtd"><svg width="100%" height="100%" viewBox="0 0 32 32" version="1.1" xmlns="http://www.w3.org/2000/svg" xmlns:xlink="http://www.w3.org/1999/xlink" xml:space="preserve" xmlns:serif="http://www.serif.com/" style="fill-rule:evenodd;clip-rule:evenodd;stroke-linejoin:round;stroke-miterlimit:1.41421;"><rect id="latin_uppercase" x="0" y="0" width="32" height="32" style="fill:none;"/><clipPath id="_clip1"><rect x="0" y="0" width="32" height="32"/></clipPath><g clip-path="url(#_clip1)"><g id="outline"><path d="M32,8c0,-4.418 -3.582,-8 -8,-8c-4.887,0 -11.113,0 -16,0c-4.418,0 -8,3.582 -8,8c0,4.887 0,11.113 0,16c0,4.418 3.582,8 8,8c4.887,0 11.113,0 16,0c4.418,0 8,-3.582 8,-8c0,-4.887 0,-11.113 0,-16Z"/></g><g id="emoji"><path d="M30,8c0,-1.591 -0.632,-3.117 -1.757,-4.243c-1.126,-1.125 -2.652,-1.757 -4.243,-1.757c-4.724,0 -11.276,0 -16,0c-1.591,0 -3.117,0.632 -4.243,1.757c-1.125,1.126 -1.757,2.652 -1.757,4.243c0,4.724 0,11.276 0,16c0,1.591 0.632,3.117 1.757,4.243c1.126,1.125 2.652,1.757 4.243,1.757c4.724,0 11.276,0 16,0c1.591,0 3.117,-0.632 4.243,-1.757c1.125,-1.126 1.757,-2.652 1.757,-4.243c0,-4.724 0,-11.276 0,-16Z" style="fill:#fff;"/><path d="M12.649,13.342l-4.395,0l-0.75,2.01l-2.1,0l4.245,-10.35l1.605,0l4.245,10.35l-2.1,0l-0.75,-2.01Zm-0.615,-1.635l-1.59,-4.215l-1.575,4.215l3.165,0Z" style="fill:#333;fill-rule:nonzero;"/><path d="M25.099,10.942c0.275,0.4 0.413,0.88 0.413,1.44c0,0.95 -0.308,1.683 -0.923,2.198c-0.615,0.515 -1.497,0.772 -2.647,0.772l-4.68,0l0,-10.35l4.485,0c1.17,0 2.065,0.248 2.685,0.743c0.62,0.495 0.93,1.207 0.93,2.137c0,0.47 -0.128,0.893 -0.383,1.268c-0.255,0.375 -0.617,0.667 -1.087,0.877c0.53,0.21 0.932,0.515 1.207,0.915Zm-5.872,-4.23l0,2.52l2.535,0c1.09,0 1.635,-0.41 1.635,-1.23c0,-0.86 -0.52,-1.29 -1.56,-1.29l-2.61,0Zm4.335,5.535c0,-0.87 -0.555,-1.305 -1.665,-1.305l-2.67,0l0,2.7l2.745,0c1.06,0 1.59,-0.465 1.59,-1.395Z" style="fill:#333;fill-rule:nonzero;"/><path d="M7.294,26.55c-0.775,-0.76 -1.163,-1.895 -1.163,-3.405l0,-1.62c0,-1.51 0.39,-2.645 1.17,-3.405c0.78,-0.76 1.865,-1.14 3.255,-1.14c1.27,0 2.283,0.312 3.038,0.937c0.755,0.625 1.132,1.493 1.132,2.603l0,0.12l-1.965,0l0,-0.06c0,-0.58 -0.195,-1.038 -0.585,-1.373c-0.39,-0.335 -0.93,-0.502 -1.62,-0.502c-0.82,0 -1.432,0.24 -1.837,0.72c-0.405,0.48 -0.608,1.215 -0.608,2.205l0,1.485c0,0.95 0.205,1.655 0.615,2.115c0.41,0.46 1.025,0.69 1.845,0.69c0.69,0 1.228,-0.163 1.613,-0.488c0.385,-0.325 0.577,-0.772 0.577,-1.342l0,-0.075l1.95,0l0,0.075c0,1.14 -0.375,2.025 -1.125,2.655c-0.75,0.63 -1.765,0.945 -3.045,0.945c-1.39,0 -2.472,-0.38 -3.247,-1.14Z" style="fill:#333;fill-rule:nonzero;"/><path d="M17.262,17.175l4.035,0c1.38,0 2.447,0.37 3.202,1.11c0.755,0.74 1.133,1.88 1.133,3.42l0,1.275c0,1.54 -0.385,2.682 -1.155,3.427c-0.77,0.745 -1.855,1.118 -3.255,1.118l-3.96,0l0,-10.35Zm4.02,8.64c0.81,0 1.41,-0.228 1.8,-0.683c0.39,-0.455 0.585,-1.172 0.585,-2.152l0,-1.17c0,-1.02 -0.195,-1.763 -0.585,-2.228c-0.39,-0.465 -0.99,-0.697 -1.8,-0.697l-2.055,0l0,6.93l2.055,0Z" style="fill:#333;fill-rule:nonzero;"/></g></g></svg>