<?xml version="1.0" encoding="UTF-8" standalone="no"?><!DOCTYPE svg PUBLIC "-//W3C//DTD SVG 1.1//EN" "http://www.w3.org/Graphics/SVG/1.1/DTD/svg11.dtd"><svg width="100%" height="100%" viewBox="0 0 32 32" version="1.1" xmlns="http://www.w3.org/2000/svg" xmlns:xlink="http://www.w3.org/1999/xlink" xml:space="preserve" xmlns:serif="http://www.serif.com/" style="fill-rule:evenodd;clip-rule:evenodd;stroke-linejoin:round;stroke-miterlimit:1.41421;"><rect id="numbers" x="0" y="0" width="32" height="32" style="fill:none;"/><clipPath id="_clip1"><rect x="0" y="0" width="32" height="32"/></clipPath><g clip-path="url(#_clip1)"><g id="outline"><path d="M32,8c0,-4.418 -3.582,-8 -8,-8c-4.887,0 -11.113,0 -16,0c-4.418,0 -8,3.582 -8,8c0,4.887 0,11.113 0,16c0,4.418 3.582,8 8,8c4.887,0 11.113,0 16,0c4.418,0 8,-3.582 8,-8c0,-4.887 0,-11.113 0,-16Z"/></g><g id="emoji"><path d="M30,8c0,-1.591 -0.632,-3.117 -1.757,-4.243c-1.126,-1.125 -2.652,-1.757 -4.243,-1.757c-4.724,0 -11.276,0 -16,0c-1.591,0 -3.117,0.632 -4.243,1.757c-1.125,1.126 -1.757,2.652 -1.757,4.243c0,4.724 0,11.276 0,16c0,1.591 0.632,3.117 1.757,4.243c1.126,1.125 2.652,1.757 4.243,1.757c4.724,0 11.276,0 16,0c1.591,0 3.117,-0.632 4.243,-1.757c1.125,-1.126 1.757,-2.652 1.757,-4.243c0,-4.724 0,-11.276 0,-16Z" style="fill:#fff;"/><path d="M10.403,6.702l-2.129,1.23l0,-1.954l2.129,-1.26l1.897,0l0,9.991l-1.897,0l0,-8.007Z" style="fill:#333;fill-rule:nonzero;"/><path d="M17.696,13.203l3.736,-3.996c0.319,-0.309 0.541,-0.587 0.666,-0.833c0.126,-0.246 0.188,-0.514 0.188,-0.804l0,-0.159c0,-0.386 -0.128,-0.69 -0.383,-0.912c-0.256,-0.222 -0.606,-0.333 -1.05,-0.333c-0.435,0 -0.777,0.106 -1.028,0.318c-0.251,0.213 -0.377,0.507 -0.377,0.884l0,0.231l-1.81,0l0,-0.347c0,-0.821 0.29,-1.475 0.869,-1.962c0.579,-0.488 1.371,-0.731 2.375,-0.731c0.676,0 1.264,0.118 1.766,0.354c0.502,0.237 0.886,0.567 1.152,0.992c0.265,0.425 0.398,0.912 0.398,1.463l0,0.188c0,0.512 -0.102,0.975 -0.304,1.39c-0.203,0.415 -0.517,0.835 -0.942,1.26l-2.693,2.838l3.953,0l0,1.665l-6.516,0l0,-1.506Z" style="fill:#333;fill-rule:nonzero;"/><path d="M8.258,26.365c-0.569,-0.468 -0.854,-1.142 -0.854,-2.02l0,-0.159l1.767,0l0,0.115c0,0.377 0.13,0.664 0.391,0.862c0.26,0.198 0.637,0.297 1.129,0.297c0.483,0 0.854,-0.118 1.115,-0.355c0.261,-0.236 0.391,-0.567 0.391,-0.992l0,-0.217c0,-0.454 -0.138,-0.789 -0.413,-1.006c-0.275,-0.218 -0.692,-0.326 -1.252,-0.326l-0.565,0l0,-1.608l0.55,0c0.493,0 0.867,-0.106 1.122,-0.318c0.256,-0.212 0.384,-0.517 0.384,-0.912l0,-0.174c0,-0.377 -0.12,-0.669 -0.362,-0.876c-0.241,-0.208 -0.584,-0.312 -1.028,-0.312c-0.454,0 -0.801,0.102 -1.042,0.305c-0.242,0.202 -0.362,0.492 -0.362,0.868l0,0.131l-1.738,0l0,-0.131c0,-0.897 0.275,-1.585 0.825,-2.063c0.551,-0.478 1.337,-0.717 2.361,-0.717c1.004,0 1.79,0.232 2.36,0.695c0.569,0.464 0.854,1.101 0.854,1.912l0,0.188c0,0.463 -0.118,0.869 -0.355,1.216c-0.236,0.348 -0.581,0.623 -1.035,0.826c0.512,0.173 0.9,0.458 1.166,0.854c0.265,0.396 0.398,0.878 0.398,1.448l0,0.232c0,0.907 -0.302,1.624 -0.905,2.15c-0.603,0.526 -1.417,0.789 -2.44,0.789c-1.072,0 -1.892,-0.234 -2.462,-0.702Z" style="fill:#333;fill-rule:nonzero;"/><path d="M24.596,25.315l-0.912,0l0,1.593l-1.897,0l0,-1.593l-4.532,0l0,-1.665l3.2,-6.734l1.94,0l-3.215,6.734l2.607,0l0,-2.346l1.897,0l0,2.346l0.912,0l0,1.665Z" style="fill:#333;fill-rule:nonzero;"/></g></g></svg>