<?xml version="1.0" encoding="UTF-8" standalone="no"?><!DOCTYPE svg PUBLIC "-//W3C//DTD SVG 1.1//EN" "http://www.w3.org/Graphics/SVG/1.1/DTD/svg11.dtd"><svg width="100%" height="100%" viewBox="0 0 32 32" version="1.1" xmlns="http://www.w3.org/2000/svg" xmlns:xlink="http://www.w3.org/1999/xlink" xml:space="preserve" xmlns:serif="http://www.serif.com/" style="fill-rule:evenodd;clip-rule:evenodd;stroke-linejoin:round;stroke-miterlimit:1.41421;"><rect id="special_characters" x="0" y="0" width="32" height="32" style="fill:none;"/><clipPath id="_clip1"><rect x="0" y="0" width="32" height="32"/></clipPath><g clip-path="url(#_clip1)"><g id="outline"><path d="M32,8c0,-4.418 -3.582,-8 -8,-8c-4.887,0 -11.113,0 -16,0c-4.418,0 -8,3.582 -8,8c0,4.887 0,11.113 0,16c0,4.418 3.582,8 8,8c4.887,0 11.113,0 16,0c4.418,0 8,-3.582 8,-8c0,-4.887 0,-11.113 0,-16Z"/></g><g id="emoji"><path d="M30,8c0,-1.591 -0.632,-3.117 -1.757,-4.243c-1.126,-1.125 -2.652,-1.757 -4.243,-1.757c-4.724,0 -11.276,0 -16,0c-1.591,0 -3.117,0.632 -4.243,1.757c-1.125,1.126 -1.757,2.652 -1.757,4.243c0,4.724 0,11.276 0,16c0,1.591 0.632,3.117 1.757,4.243c1.126,1.125 2.652,1.757 4.243,1.757c4.724,0 11.276,0 16,0c1.591,0 3.117,-0.632 4.243,-1.757c1.125,-1.126 1.757,-2.652 1.757,-4.243c0,-4.724 0,-11.276 0,-16Z" style="fill:#fff;"/><g><path d="M11.282,21.451c0,-0.203 -0.038,-0.366 -0.113,-0.49c-0.075,-0.124 -0.198,-0.186 -0.368,-0.186c-0.17,0 -0.33,0.034 -0.48,0.103c-0.15,0.068 -0.287,0.168 -0.412,0.299c-0.287,0.313 -0.431,0.686 -0.431,1.117c0,0.294 0.077,0.518 0.231,0.671c0.153,0.154 0.344,0.23 0.573,0.23c0.229,0 0.42,-0.063 0.573,-0.191c0.154,-0.127 0.296,-0.318 0.427,-0.573l0,-0.98Zm0.931,1.274c0,0.333 0.114,0.5 0.343,0.5c0.104,0 0.223,-0.034 0.357,-0.103c0.134,-0.069 0.26,-0.181 0.378,-0.338c0.281,-0.366 0.421,-0.853 0.421,-1.46c0,-0.758 -0.251,-1.369 -0.755,-1.833c-0.542,-0.497 -1.261,-0.745 -2.156,-0.745c-1.078,0 -1.96,0.333 -2.646,1c-0.679,0.653 -1.019,1.476 -1.019,2.469c0,0.961 0.323,1.719 0.97,2.274c0.68,0.595 1.607,0.892 2.784,0.892l0,0.951c-0.745,0 -1.42,-0.11 -2.024,-0.329c-0.605,-0.219 -1.122,-0.516 -1.554,-0.892c-0.431,-0.375 -0.762,-0.818 -0.994,-1.328c-0.232,-0.509 -0.348,-1.076 -0.348,-1.7c0,-0.624 0.121,-1.209 0.362,-1.754c0.242,-0.546 0.579,-1.013 1.01,-1.402c0.431,-0.388 0.942,-0.689 1.534,-0.901c0.591,-0.213 1.212,-0.319 1.862,-0.319c0.65,0 1.226,0.093 1.729,0.279c0.504,0.187 0.933,0.443 1.289,0.77c0.356,0.327 0.632,0.71 0.828,1.151c0.196,0.441 0.294,0.9 0.294,1.377c0,0.477 -0.068,0.891 -0.205,1.24c-0.138,0.35 -0.316,0.644 -0.535,0.882c-0.218,0.239 -0.47,0.42 -0.754,0.544c-0.284,0.124 -0.578,0.186 -0.882,0.186c-0.304,0 -0.554,-0.057 -0.75,-0.171c-0.196,-0.115 -0.323,-0.276 -0.382,-0.485l-0.059,-0.157c-0.131,0.248 -0.289,0.446 -0.475,0.593c-0.187,0.147 -0.417,0.22 -0.691,0.22c-0.275,0 -0.508,-0.045 -0.701,-0.137c-0.193,-0.091 -0.364,-0.216 -0.515,-0.372c-0.333,-0.36 -0.499,-0.797 -0.499,-1.314c0,-0.673 0.235,-1.248 0.705,-1.724c0.458,-0.471 1.01,-0.706 1.657,-0.706c0.431,0 0.775,0.129 1.033,0.387c0.259,0.258 0.388,0.648 0.388,1.171l0,1.284Z" style="fill:#333;fill-rule:nonzero;"/><path d="M19.045,17.199c0.233,0 0.457,0.041 0.673,0.123c0.216,0.082 0.406,0.205 0.57,0.369c0.354,0.336 0.53,0.824 0.53,1.462c0,0.63 -0.176,1.122 -0.53,1.476c-0.328,0.328 -0.747,0.492 -1.256,0.492c-0.492,0 -0.902,-0.164 -1.229,-0.492c-0.354,-0.354 -0.531,-0.846 -0.531,-1.476c0,-0.638 0.177,-1.126 0.531,-1.462c0.336,-0.328 0.75,-0.492 1.242,-0.492Zm0.621,1.954c0,-0.656 -0.211,-0.983 -0.634,-0.983c-0.414,0 -0.621,0.327 -0.621,0.983c0,0.665 0.207,0.997 0.621,0.997c0.423,0 0.634,-0.332 0.634,-0.997Zm3.884,-1.786l1.54,0l-5.682,8.401l-1.554,0l5.696,-8.401Zm0.349,4.647c0.492,0 0.906,0.164 1.243,0.492c0.353,0.336 0.53,0.824 0.53,1.462c0,0.639 -0.177,1.135 -0.53,1.489c-0.328,0.328 -0.743,0.492 -1.243,0.492c-0.5,0 -0.915,-0.164 -1.243,-0.492c-0.353,-0.354 -0.53,-0.85 -0.53,-1.489c0,-0.638 0.177,-1.126 0.53,-1.462c0.337,-0.328 0.751,-0.492 1.243,-0.492Zm0,0.971c-0.414,0 -0.621,0.33 -0.621,0.99c0,0.66 0.207,0.99 0.621,0.99c0.181,0 0.332,-0.075 0.453,-0.226c0.121,-0.151 0.181,-0.406 0.181,-0.764c0,-0.358 -0.06,-0.613 -0.181,-0.764c-0.121,-0.151 -0.272,-0.226 -0.453,-0.226Z" style="fill:#333;fill-rule:nonzero;"/><path d="M15.507,10.499l-3.61,0l0,4.302l-1.434,0l0,-4.302l-3.561,0l0,-1.435l8.605,0l0,1.435Zm0,-2.869l-8.605,0l0,-1.434l8.605,0l0,1.434Z" style="fill:#333;"/><path d="M21.832,11.094l0,-5.238l0.303,-0.188c1.201,0.601 2.402,1.201 3.603,1.802l-0.641,1.283l-1.831,-0.916l0,4.851c0,0.965 -1.094,1.749 -2.442,1.749c-1.348,0 -2.442,-0.784 -2.442,-1.749c0,-0.966 1.094,-1.75 2.442,-1.75c0.359,0 0.701,0.056 1.008,0.156Z" style="fill:#333;"/></g></g></g></svg>