<?xml version="1.0" encoding="UTF-8" standalone="no"?><!DOCTYPE svg PUBLIC "-//W3C//DTD SVG 1.1//EN" "http://www.w3.org/Graphics/SVG/1.1/DTD/svg11.dtd"><svg width="100%" height="100%" viewBox="0 0 32 32" version="1.1" xmlns="http://www.w3.org/2000/svg" xmlns:xlink="http://www.w3.org/1999/xlink" xml:space="preserve" xmlns:serif="http://www.serif.com/" style="fill-rule:evenodd;clip-rule:evenodd;stroke-linecap:round;stroke-linejoin:round;stroke-miterlimit:1.5;"><rect id="artist_palette" x="0" y="0" width="32" height="32" style="fill:none;"/><clipPath id="_clip1"><rect x="0" y="0" width="32" height="32"/></clipPath><g clip-path="url(#_clip1)"><g id="outline"><path d="M30,21.368l0,2c0,0.405 -0.161,0.793 -0.447,1.079c-0.338,0.338 -0.84,0.84 -1.407,1.407c-2.655,2.655 -6.255,4.146 -10.01,4.146c-0.733,0 -1.456,0 -2.12,0c-1.987,0 -3.952,-0.426 -5.762,-1.248c-0.165,-0.075 -0.335,-0.152 -0.508,-0.231c-4.717,-2.144 -7.746,-6.848 -7.746,-12.03l0,-2l0,-0.031c0,-1.61 0.437,-3.189 1.265,-4.569c0.047,-0.077 0.094,-0.156 0.142,-0.236c2.849,-4.749 7.982,-7.655 13.521,-7.655c0.119,0 0.239,0 0.358,0c4.261,0 8.31,1.862 11.083,5.098c0.001,0 0.001,0 0.001,0.001c1.052,1.227 1.63,2.789 1.63,4.405l0,2.082c0,0.844 -0.54,1.594 -1.342,1.861c-0.86,0.287 -1.985,0.662 -2.914,0.972c-0.709,0.236 -1.26,0.762 -1.54,1.42c0.333,0.781 1.045,1.369 1.927,1.516c0.839,0.14 1.778,0.296 2.52,0.42c0.779,0.13 1.349,0.803 1.349,1.592l0,0.001Z" style="fill:none;stroke:#000;stroke-width:4px;"/></g><g id="emoji"><path d="M30,21.368l0,2c0,0.405 -0.161,0.793 -0.447,1.079c-0.338,0.338 -0.84,0.84 -1.407,1.407c-2.655,2.655 -6.255,4.146 -10.01,4.146c-0.733,0 -1.456,0 -2.12,0c-1.987,0 -3.952,-0.426 -5.762,-1.248c-0.165,-0.075 -0.335,-0.152 -0.508,-0.231c-4.717,-2.144 -7.746,-6.848 -7.746,-12.03l0,-2l0.221,0c0.207,-0.912 0.559,-1.79 1.044,-2.6c0.047,-0.077 0.094,-0.156 0.142,-0.236c2.849,-4.749 7.982,-7.655 13.521,-7.655c0.119,0 0.239,0 0.358,0c4.261,0 8.31,1.862 11.083,5.098c0.001,0 0.001,0 0.001,0.001c0.626,0.73 1.084,1.579 1.352,2.487l0.278,0l0,2c0,0.844 -0.54,1.594 -1.342,1.861c-0.86,0.287 -1.985,0.662 -2.914,0.972c-1.042,0.347 -1.744,1.321 -1.744,2.419c0,0.001 0,0.001 0,0.002c0,1.246 0.901,2.31 2.131,2.515l0.869,0.145l0,-0.132l3,0Z" style="fill:#6f4f30;"/><path d="M28.658,13.447c0.802,-0.267 1.342,-1.017 1.342,-1.861c0,-0.027 0,-0.054 0,-0.082c0,-1.616 -0.578,-3.178 -1.63,-4.405c0,-0.001 0,-0.001 -0.001,-0.001c-2.773,-3.236 -6.822,-5.098 -11.083,-5.098c-0.119,0 -0.239,0 -0.358,0c-5.539,0 -10.672,2.906 -13.521,7.655c-0.048,0.08 -0.095,0.159 -0.142,0.236c-0.828,1.38 -1.265,2.959 -1.265,4.569c0,0.01 0,0.021 0,0.031c0,5.182 3.029,9.886 7.746,12.03c0.173,0.079 0.343,0.156 0.508,0.231c1.81,0.822 3.775,1.248 5.762,1.248c0.664,0 1.387,0 2.12,0c3.755,0 7.355,-1.491 10.01,-4.146c0.567,-0.567 1.069,-1.069 1.407,-1.407c0.286,-0.286 0.447,-0.674 0.447,-1.079c0,0 0,-0.001 0,-0.001c0,-0.789 -0.57,-1.462 -1.349,-1.592c-0.742,-0.124 -1.681,-0.28 -2.52,-0.42c-1.23,-0.205 -2.131,-1.269 -2.131,-2.515c0,-0.001 0,-0.001 0,-0.002c0,-1.098 0.702,-2.072 1.744,-2.419c0.929,-0.31 2.054,-0.685 2.914,-0.972Z" style="fill:#b38050;"/><g><path d="M19.292,11.5c-0.188,-0.306 -0.292,-0.645 -0.292,-1c0,-1.38 1.568,-2.5 3.5,-2.5c1.932,0 3.5,1.12 3.5,2.5c0,0.355 -0.104,0.694 -0.292,1c-0.54,-0.883 -5.876,-0.883 -6.416,0Z" style="fill:#6f4f30;"/><path d="M19.292,11.5c0.54,-0.883 1.774,-1.5 3.208,-1.5c1.434,0 2.668,0.617 3.208,1.5c-0.54,0.883 -1.774,1.5 -3.208,1.5c-1.434,0 -2.668,-0.617 -3.208,-1.5Z"/></g><g><path d="M17.422,3c0.382,0 0.76,0.073 1.114,0.215c0.417,0.166 1.029,0.411 1.668,0.667c0.58,0.232 0.993,0.754 1.084,1.372c0.092,0.617 -0.152,1.237 -0.639,1.627c-0.845,0.676 -1.712,1.37 -2.215,1.772c-0.281,0.225 -0.63,0.347 -0.99,0.347c-0.311,0 -0.714,0 -1.102,0c-0.774,0 -1.435,-0.56 -1.563,-1.324c-0.128,-0.772 -0.293,-1.762 -0.438,-2.633c-0.085,-0.509 0.058,-1.029 0.391,-1.422c0.334,-0.394 0.824,-0.621 1.339,-0.621c0.498,0 0.989,0 1.351,0Z" style="fill:#a83b6c;"/><path d="M11.561,5c0.837,0 1.557,0.59 1.721,1.411c0.143,0.714 0.315,1.575 0.455,2.275c0.155,0.776 -0.228,1.56 -0.936,1.913c-0.056,0.028 -0.111,0.056 -0.165,0.083c-0.404,0.202 -0.876,0.222 -1.297,0.054c-0.775,-0.31 -2.078,-0.832 -3.055,-1.222c-0.736,-0.295 -1.141,-1.087 -0.949,-1.856c0.015,-0.057 0.029,-0.116 0.044,-0.175c0.365,-1.459 1.676,-2.483 3.181,-2.483c0.344,0 0.686,0 1.001,0Z" style="fill:#e41d45;"/><path d="M8.745,10.873c0.169,0.084 0.323,0.195 0.456,0.328c0.269,0.269 0.771,0.771 1.276,1.276c0.353,0.353 0.515,0.854 0.435,1.346c-0.08,0.493 -0.392,0.917 -0.838,1.14c0,0 -0.001,0 -0.001,0c-0.048,0.025 -0.1,0.041 -0.154,0.049c-0.45,0.064 -2.689,0.384 -4.5,0.642c-0.532,0.076 -1.066,-0.122 -1.418,-0.527c-0.353,-0.404 -0.477,-0.96 -0.33,-1.476c0.243,-0.849 0.514,-1.799 0.748,-2.618c0.144,-0.502 0.503,-0.914 0.981,-1.124c0.478,-0.21 1.024,-0.197 1.491,0.037c0.728,0.363 1.475,0.737 1.854,0.927Z" style="fill:#e4981d;"/><path d="M9.316,16.114c0.439,-0.073 0.89,0.024 1.261,0.271c0.254,0.169 0.566,0.377 0.88,0.586c0.401,0.268 0.674,0.688 0.756,1.164c0.081,0.475 -0.037,0.963 -0.326,1.349c-0.487,0.65 -1.033,1.377 -1.412,1.882c-0.299,0.399 -0.768,0.634 -1.267,0.634c-0.611,0 -1.463,0 -2.135,0c-0.648,0 -1.231,-0.394 -1.471,-0.996c-0.227,-0.567 -0.52,-1.298 -0.792,-1.98c-0.198,-0.493 -0.161,-1.049 0.1,-1.512c0.26,-0.463 0.716,-0.783 1.24,-0.87c1.114,-0.186 2.398,-0.4 3.166,-0.528Z" style="fill:#8cd2e6;"/><path d="M15.03,10.485c0.594,-0.297 1.306,-0.233 1.838,0.166c0.371,0.278 0.82,0.615 1.26,0.945c0.442,0.332 0.702,0.852 0.702,1.404c0,0.552 -0.26,1.072 -0.702,1.404c-0.638,0.478 -1.294,0.97 -1.706,1.279c-0.274,0.206 -0.607,0.317 -0.95,0.317c-0.481,0 -1.217,0 -1.888,0c-0.875,0 -1.584,-0.709 -1.584,-1.584c0,-0.447 0,-0.922 0,-1.332c0,-0.664 0.376,-1.272 0.97,-1.569c0.625,-0.313 1.435,-0.717 2.06,-1.03Z" style="fill:#7dc45b;"/><path d="M18.614,15.693c0.792,-0.396 1.754,-0.14 2.245,0.596c0.073,0.109 0.147,0.22 0.22,0.33c0.517,0.775 0.338,1.818 -0.407,2.377c-0.674,0.505 -1.463,1.097 -2.008,1.506c-0.416,0.312 -0.958,0.4 -1.452,0.235c-0.717,-0.239 -1.815,-0.605 -2.819,-0.939c-0.401,-0.134 -0.682,-0.496 -0.711,-0.918c-0.03,-0.421 0.197,-0.819 0.575,-1.008c1.401,-0.701 3.158,-1.58 4.357,-2.179Z" style="fill:#5bc1c4;"/><path d="M15.959,21.566c0.623,0.089 1.151,0.505 1.383,1.091c0.232,0.585 0.132,1.25 -0.261,1.742c-0.418,0.522 -0.84,1.049 -1.194,1.492c-0.533,0.666 -1.425,0.93 -2.234,0.66c-0.741,-0.247 -1.677,-0.559 -2.515,-0.838c-0.496,-0.166 -0.881,-0.559 -1.037,-1.057c-0.156,-0.498 -0.062,-1.041 0.251,-1.459c0.358,-0.476 0.727,-0.969 1.025,-1.366c0.384,-0.512 1.017,-0.775 1.652,-0.684c0.775,0.111 1.88,0.269 2.93,0.419Z" style="fill:#838cef;"/><path d="M22.526,21.504c0.658,0.094 1.206,0.551 1.416,1.182c0.21,0.63 0.046,1.326 -0.424,1.796c-0.402,0.402 -0.777,0.777 -1.054,1.054c-0.297,0.297 -0.7,0.464 -1.12,0.464c-0.389,0 -0.903,0 -1.411,0c-0.475,0 -0.925,-0.213 -1.226,-0.58c-0.301,-0.367 -0.421,-0.85 -0.328,-1.315c0.097,-0.487 0.201,-1.006 0.295,-1.477c0.183,-0.913 1.047,-1.525 1.969,-1.393c0.567,0.081 1.226,0.175 1.883,0.269Z" style="fill:#4853cf;"/></g></g></g></svg>