<?xml version="1.0" encoding="UTF-8" standalone="no"?>
<!DOCTYPE svg PUBLIC "-//W3C//DTD SVG 1.1//EN" "http://www.w3.org/Graphics/SVG/1.1/DTD/svg11.dtd">
<svg width="100%" height="100%" viewBox="0 0 32 32" version="1.1" xmlns="http://www.w3.org/2000/svg" xmlns:xlink="http://www.w3.org/1999/xlink" xml:space="preserve" xmlns:serif="http://www.serif.com/" style="fill-rule:evenodd;clip-rule:evenodd;stroke-linejoin:round;stroke-miterlimit:1.5;">
    <rect id="camera" x="0" y="0" width="32" height="32" style="fill:none;"/>
    <clipPath id="_clip1">
        <rect x="0" y="0" width="32" height="32"/>
    </clipPath>
    <g clip-path="url(#_clip1)">
        <g id="outline">
            <path d="M10,8l0.146,0c1.136,0 2.175,-0.642 2.683,-1.658c0.209,-0.417 0.427,-0.854 0.618,-1.236c0.339,-0.678 1.032,-1.106 1.789,-1.106c1.503,0 4.025,0 5.528,0c0.757,0 1.45,0.428 1.789,1.106c0.191,0.382 0.409,0.819 0.618,1.236c0.508,1.016 1.547,1.658 2.683,1.658c0.048,0 0.097,0 0.146,0c1.061,0 2.078,0.421 2.828,1.172c0.751,0.75 1.172,1.767 1.172,2.828c0,4.323 0,11.113 0,15c0,1.657 -1.343,3 -3,3l-22,0c0,0 0,0 0,0c-0.329,0 -0.671,0 -1,0c-0.53,0 -1.039,-0.211 -1.414,-0.586c-0.375,-0.375 -0.586,-0.884 -0.586,-1.414c0,-3.61 0,-11.277 0,-16c0,-2.209 1.791,-4 4,-4l0,0l0,-2l4,0l0,2Z" style="fill:none;stroke:#000;stroke-width:4px;"/>
        </g>
        <g id="emoji">
            <rect x="6" y="6" width="4" height="3" style="fill:#2f2f2f;"/>
            <path d="M5,30l22,0c1.657,0 3,-1.343 3,-3c0,-3.887 0,-10.677 0,-15c0,-1.061 -0.421,-2.078 -1.172,-2.828c-0.75,-0.751 -1.767,-1.172 -2.828,-1.172c-0.049,0 -0.098,0 -0.146,0c-1.136,0 -2.175,-0.642 -2.683,-1.658c-0.209,-0.417 -0.427,-0.854 -0.618,-1.236c-0.339,-0.678 -1.032,-1.106 -1.789,-1.106c-1.503,0 -4.025,0 -5.528,0c-0.757,0 -1.45,0.428 -1.789,1.106c-0.191,0.382 -0.409,0.819 -0.618,1.236c-0.508,1.016 -1.547,1.658 -2.683,1.658c-1.763,0 -4.146,0 -4.146,0l-1,16l0,6Z" style="fill:#323232;"/>
            <circle cx="18" cy="20" r="10" style="fill:#1a1a1a;"/>
            <circle cx="18" cy="20" r="8" style="fill:#585858;"/>
            <clipPath id="_clip2">
                <circle cx="18" cy="20" r="8"/>
            </clipPath>
            <g clip-path="url(#_clip2)">
                <circle cx="18" cy="20" r="6" style="fill:#618f77;"/>
                <circle cx="18" cy="20" r="4" style="fill:#25362d;"/>
            </g>
            <ellipse cx="18" cy="17" rx="3.316" ry="2" style="fill:#eff4f1;fill-opacity:0.34;"/>
            <path d="M2,12c0,-2.209 1.791,-4 4,-4c1.568,0 3,0 3,0l0,2.757c0,0.796 -0.316,1.559 -0.879,2.122c-0.08,0.08 -0.162,0.162 -0.242,0.242c-0.563,0.563 -0.879,1.326 -0.879,2.122c0,2.757 0,9.407 0,12.757c0,1.105 -0.895,2 -2,2c-0.329,0 -0.671,0 -1,0c-0.53,0 -1.039,-0.211 -1.414,-0.586c-0.375,-0.375 -0.586,-0.884 -0.586,-1.414c0,-3.61 0,-11.277 0,-16Z" style="fill:#595959;"/>
            <rect x="15" y="5" width="6" height="1" style="fill:#8b8b8b;"/>
            <path d="M8,10.5c0,-0.398 -0.158,-0.779 -0.439,-1.061c-0.282,-0.281 -0.663,-0.439 -1.061,-0.439c-0.327,0 -0.673,0 -1,0c-0.398,0 -0.779,0.158 -1.061,0.439c-0.281,0.282 -0.439,0.663 -0.439,1.061c0,0.398 0.158,0.779 0.439,1.061c0.282,0.281 0.663,0.439 1.061,0.439c0.327,0 0.673,0 1,0c0.398,0 0.779,-0.158 1.061,-0.439c0.281,-0.282 0.439,-0.663 0.439,-1.061c0,0 0,0 0,0Z" style="fill:#1d1d1d;"/>
        </g>
    </g>
</svg>
