<?xml version="1.0" encoding="UTF-8" standalone="no"?><!DOCTYPE svg PUBLIC "-//W3C//DTD SVG 1.1//EN" "http://www.w3.org/Graphics/SVG/1.1/DTD/svg11.dtd"><svg width="100%" height="100%" viewBox="0 0 32 32" version="1.1" xmlns="http://www.w3.org/2000/svg" xmlns:xlink="http://www.w3.org/1999/xlink" xml:space="preserve" xmlns:serif="http://www.serif.com/" style="fill-rule:evenodd;clip-rule:evenodd;stroke-linejoin:round;stroke-miterlimit:1.41421;"><rect id="cassette" x="0" y="0" width="32" height="32" style="fill:none;"/><clipPath id="_clip1"><rect x="0" y="0" width="32" height="32"/></clipPath><g clip-path="url(#_clip1)"><g id="outline"><path d="M32,7c0,-0.53 -0.211,-1.039 -0.586,-1.414c-0.375,-0.375 -0.884,-0.586 -1.414,-0.586c-5.746,0 -22.254,0 -28,0c-0.53,0 -1.039,0.211 -1.414,0.586c-0.375,0.375 -0.586,0.884 -0.586,1.414c0,4.354 0,14.646 0,19c0,0.53 0.211,1.039 0.586,1.414c0.375,0.375 0.884,0.586 1.414,0.586c5.746,0 22.254,0 28,0c0.53,0 1.039,-0.211 1.414,-0.586c0.375,-0.375 0.586,-0.884 0.586,-1.414c0,-4.354 0,-14.646 0,-19Z"/></g><g id="emoji"><path d="M30,26l-2.764,0l-1.209,-0.197l-1.027,0.197l-18,0l-1,-0.229l-1.236,0.229l-2.764,0l0,-19l28,0l0,19Z" style="fill:#666;"/><path d="M4.764,26l2.447,-4.894c0.079,-0.146 0.164,-0.283 0.272,-0.409c0.268,-0.312 0.631,-0.537 1.03,-0.637c0.161,-0.04 0.322,-0.055 0.487,-0.06c4.708,0 9.418,-0.141 14.123,0.004c0.165,0.015 0.324,0.04 0.482,0.09c0.392,0.124 0.741,0.371 0.989,0.699c0.075,0.099 0.136,0.203 0.195,0.313l2.447,4.894l-2.236,0l-2,-4l-14,0l-2,4l-2.236,0Z" style="fill:#333;"/><rect x="3" y="8" width="26" height="12" style="fill:#fff;"/><rect x="9.5" y="12" width="13" height="5" style="fill:#4d4d4d;"/><circle cx="22.5" cy="14.5" r="2.5"/><circle cx="9.5" cy="14.5" r="2.5"/><circle cx="11" cy="24" r="1" style="fill:#333;"/><circle cx="21" cy="24" r="1" style="fill:#333;"/><rect x="13" y="13" width="6" height="2"/></g></g></svg>