<?xml version="1.0" encoding="UTF-8" standalone="no"?><!DOCTYPE svg PUBLIC "-//W3C//DTD SVG 1.1//EN" "http://www.w3.org/Graphics/SVG/1.1/DTD/svg11.dtd"><svg width="100%" height="100%" viewBox="0 0 32 32" version="1.1" xmlns="http://www.w3.org/2000/svg" xmlns:xlink="http://www.w3.org/1999/xlink" xml:space="preserve" xmlns:serif="http://www.serif.com/" style="fill-rule:evenodd;clip-rule:evenodd;stroke-linejoin:round;stroke-miterlimit:1.41421;"><rect id="cd" x="0" y="0" width="32" height="32" style="fill:none;"/><clipPath id="_clip1"><rect x="0" y="0" width="32" height="32"/></clipPath><g clip-path="url(#_clip1)"><g id="outline"><circle cx="16" cy="16" r="16"/></g><g id="emoji"><circle cx="16" cy="16" r="14" style="fill:#e8e8e8;"/><path d="M8.222,6.808c-0.188,-0.188 -0.442,-0.293 -0.707,-0.293c-0.265,0 -0.52,0.105 -0.707,0.293c-0.188,0.187 -0.293,0.442 -0.293,0.707c0,0.265 0.105,0.519 0.293,0.707c2.923,2.923 14.047,14.047 16.97,16.97c0.188,0.188 0.442,0.293 0.707,0.293c0.265,0 0.52,-0.105 0.707,-0.293c0.188,-0.187 0.293,-0.442 0.293,-0.707c0,-0.265 -0.105,-0.519 -0.293,-0.707c-2.923,-2.923 -14.047,-14.047 -16.97,-16.97Z" style="fill:#fff;"/><path d="M4.668,11.928c-0.256,-0.068 -0.529,-0.032 -0.759,0.1c-0.23,0.133 -0.397,0.351 -0.466,0.607c-0.069,0.257 -0.033,0.529 0.1,0.759c0.132,0.23 0.351,0.397 0.607,0.466c3.993,1.07 19.189,5.142 23.182,6.212c0.256,0.068 0.529,0.032 0.759,-0.1c0.23,-0.133 0.397,-0.351 0.466,-0.607c0.069,-0.257 0.033,-0.529 -0.1,-0.759c-0.132,-0.23 -0.351,-0.397 -0.607,-0.466c-3.993,-1.07 -19.189,-5.142 -23.182,-6.212Z" style="fill:#fff;"/><circle cx="16" cy="16" r="6" style="fill:#bababa;"/><circle cx="16" cy="16" r="3" style="fill:#e8e8e8;"/><circle cx="16" cy="16" r="2"/></g></g></svg>