<?xml version="1.0" encoding="UTF-8" standalone="no"?>
<!DOCTYPE svg PUBLIC "-//W3C//DTD SVG 1.1//EN" "http://www.w3.org/Graphics/SVG/1.1/DTD/svg11.dtd">
<svg width="100%" height="100%" viewBox="0 0 32 32" version="1.1" xmlns="http://www.w3.org/2000/svg" xmlns:xlink="http://www.w3.org/1999/xlink" xml:space="preserve" xmlns:serif="http://www.serif.com/" style="fill-rule:evenodd;clip-rule:evenodd;stroke-linejoin:round;stroke-miterlimit:2;">
    <rect id="control_knobs" x="0" y="0" width="32" height="32" style="fill:none;"/>
    <clipPath id="_clip1">
        <rect x="0" y="0" width="32" height="32"/>
    </clipPath>
    <g clip-path="url(#_clip1)">
        <g id="outline">
            <path d="M32,2c0,-0.53 -0.211,-1.039 -0.586,-1.414c-0.375,-0.375 -0.884,-0.586 -1.414,-0.586l-28,0c-0.53,0 -1.039,0.211 -1.414,0.586c-0.375,0.375 -0.586,0.884 -0.586,1.414l0,28c0,0.53 0.211,1.039 0.586,1.414c0.375,0.375 0.884,0.586 1.414,0.586l28,0c0.53,0 1.039,-0.211 1.414,-0.586c0.375,-0.375 0.586,-0.884 0.586,-1.414l0,-28Z"/>
        </g>
        <g id="emoji">
            <rect x="2" y="2" width="28" height="28" style="fill:#636363;"/>
            <path d="M15,9.5l-11,0l0,2c0,3.038 2.462,5.5 5.5,5.5l0,0c3.038,0 5.5,-2.462 5.5,-5.5l0,-2Z" style="fill:#454545;"/>
            <path d="M15,22.5l-11,0l0,2c0,3.038 2.462,5.5 5.5,5.5l0,0c3.038,0 5.5,-2.462 5.5,-5.5l0,-2Z" style="fill:#454545;"/>
            <path d="M28,9.5l-11,0l0,2c0,3.038 2.462,5.5 5.5,5.5l0,0c3.038,0 5.5,-2.462 5.5,-5.5l0,-2Z" style="fill:#454545;"/>
            <path d="M28,22.5l-11,0l0,2c0,3.038 2.462,5.5 5.5,5.5l0,0c3.038,0 5.5,-2.462 5.5,-5.5l0,-2Z" style="fill:#454545;"/>
            <circle cx="9.5" cy="9.5" r="5.5" style="fill:#191919;"/>
            <clipPath id="_clip2">
                <circle cx="9.5" cy="9.5" r="5.5"/>
            </clipPath>
            <g clip-path="url(#_clip2)">
                <path d="M10,3l-1,0l0,6.5c0,0.276 0.224,0.5 0.5,0.5c0,0 0,0 0,0c0.276,0 0.5,-0.224 0.5,-0.5c0,-1.601 0,-6.5 0,-6.5Z" style="fill:#e3e3e3;"/>
            </g>
            <path d="M4,22c0,-3.036 2.464,-5.5 5.5,-5.5c3.036,0 5.5,2.464 5.5,5.5c0,3.036 -2.464,5.5 -5.5,5.5c-3.036,0 -5.5,-2.464 -5.5,-5.5Z" style="fill:#191919;"/>
            <clipPath id="_clip3">
                <path d="M4,22c0,-3.036 2.464,-5.5 5.5,-5.5c3.036,0 5.5,2.464 5.5,5.5c0,3.036 -2.464,5.5 -5.5,5.5c-3.036,0 -5.5,-2.464 -5.5,-5.5Z"/>
            </clipPath>
            <g clip-path="url(#_clip3)">
                <path d="M3,21.5l0,1l6.5,0c0.276,0 0.5,-0.224 0.5,-0.5c0,0 0,0 0,0c0,-0.276 -0.224,-0.5 -0.5,-0.5c-1.601,0 -6.5,0 -6.5,0Z" style="fill:#e3e3e3;"/>
            </g>
            <circle cx="22.5" cy="9.5" r="5.5" style="fill:#191919;"/>
            <clipPath id="_clip4">
                <circle cx="22.5" cy="9.5" r="5.5"/>
            </clipPath>
            <g clip-path="url(#_clip4)">
                <path d="M23,3l-1,0l0,6.5c0,0.276 0.224,0.5 0.5,0.5c0,0 0,0 0,0c0.276,0 0.5,-0.224 0.5,-0.5c0,-1.601 0,-6.5 0,-6.5Z" style="fill:#fff;"/>
            </g>
            <path d="M18.611,18.111c2.146,-2.147 5.632,-2.147 7.778,0c2.147,2.146 2.147,5.632 0,7.778c-2.146,2.147 -5.632,2.147 -7.778,0c-2.147,-2.146 -2.147,-5.632 0,-7.778Z" style="fill:#191919;"/>
            <clipPath id="_clip5">
                <path d="M18.611,18.111c2.146,-2.147 5.632,-2.147 7.778,0c2.147,2.146 2.147,5.632 0,7.778c-2.146,2.147 -5.632,2.147 -7.778,0c-2.147,-2.146 -2.147,-5.632 0,-7.778Z"/>
            </clipPath>
            <g clip-path="url(#_clip5)">
                <path d="M18.257,17.05l-0.707,0.707c0,0 3.465,3.466 4.597,4.597c0.195,0.195 0.511,0.195 0.706,0c0,0 0.001,-0.001 0.001,-0.001c0.195,-0.195 0.195,-0.511 0,-0.706c-1.131,-1.132 -4.597,-4.597 -4.597,-4.597Z" style="fill:#e3e3e3;"/>
            </g>
        </g>
    </g>
</svg>
