<?xml version="1.0" encoding="UTF-8" standalone="no"?><!DOCTYPE svg PUBLIC "-//W3C//DTD SVG 1.1//EN" "http://www.w3.org/Graphics/SVG/1.1/DTD/svg11.dtd"><svg width="100%" height="100%" viewBox="0 0 32 32" version="1.1" xmlns="http://www.w3.org/2000/svg" xmlns:xlink="http://www.w3.org/1999/xlink" xml:space="preserve" xmlns:serif="http://www.serif.com/" style="fill-rule:evenodd;clip-rule:evenodd;stroke-linejoin:round;stroke-miterlimit:1.41421;"><rect id="crt" x="0" y="0" width="32" height="32" style="fill:none;"/><clipPath id="_clip1"><rect x="0" y="0" width="32" height="32"/></clipPath><g clip-path="url(#_clip1)"><g id="outline"><rect x="0" y="0" width="32" height="32"/></g><g id="emoji"><path d="M30,2l-28,0l0,22l1,0.5l-1,0.5l0,5l28,0l0,-5l-1,-0.5l1,-0.5l0,-22Z" style="fill:#4d4d4d;"/><rect x="4" y="26" width="2" height="1" style="fill:#808080;"/><rect x="4" y="28" width="2" height="1" style="fill:#808080;"/><rect x="2" y="24" width="28" height="1" style="fill:#333;"/><rect x="7" y="26" width="2" height="1" style="fill:#808080;"/><rect x="7" y="28" width="2" height="1" style="fill:#808080;"/><rect x="10" y="26" width="2" height="1" style="fill:#808080;"/><rect x="25" y="26" width="3" height="3" style="fill:#219555;"/><circle cx="14.5" cy="27.5" r="1.5" style="fill:#333;"/><circle cx="18.5" cy="27.5" r="1.5" style="fill:#333;"/><circle cx="22.5" cy="27.5" r="1.5" style="fill:#333;"/><rect x="10" y="28" width="2" height="1" style="fill:#808080;"/><path d="M28,6c0,-0.53 -0.211,-1.039 -0.586,-1.414c-0.375,-0.375 -0.884,-0.586 -1.414,-0.586c-4.52,0 -15.48,0 -20,0c-0.53,0 -1.039,0.211 -1.414,0.586c-0.375,0.375 -0.586,0.884 -0.586,1.414c0,3.463 0,10.537 0,14c0,0.53 0.211,1.039 0.586,1.414c0.375,0.375 0.884,0.586 1.414,0.586c4.52,0 15.48,0 20,0c0.53,0 1.039,-0.211 1.414,-0.586c0.375,-0.375 0.586,-0.884 0.586,-1.414c0,-3.463 0,-10.537 0,-14Z"/><path d="M22.612,5.001c0.148,0.006 0.296,0.015 0.443,0.033c0.364,0.045 0.723,0.136 1.065,0.268c0.55,0.212 1.056,0.532 1.482,0.938c0.507,0.483 0.899,1.084 1.135,1.743c0.111,0.311 0.188,0.634 0.229,0.962c0.018,0.148 0.027,0.295 0.033,0.443c0.013,1.037 0.001,2.075 0.001,3.112c-0.006,0.234 -0.053,0.46 -0.158,0.671c-0.081,0.161 -0.191,0.307 -0.323,0.43c-0.132,0.122 -0.287,0.221 -0.454,0.288c-0.143,0.059 -0.295,0.095 -0.449,0.107c-0.548,0.042 -1.087,-0.228 -1.382,-0.691c-0.096,-0.152 -0.165,-0.322 -0.202,-0.498c-0.016,-0.076 -0.024,-0.152 -0.03,-0.23c-0.027,-1.05 0.035,-2.102 -0.004,-3.152c-0.009,-0.147 -0.036,-0.292 -0.086,-0.431c-0.142,-0.395 -0.45,-0.719 -0.838,-0.88c-0.159,-0.066 -0.328,-0.101 -0.5,-0.112c-2.356,-0.088 -4.716,-0.002 -7.074,-0.002c-0.078,-0.002 -0.154,-0.006 -0.231,-0.018c-0.178,-0.028 -0.351,-0.088 -0.508,-0.177c-0.478,-0.27 -0.775,-0.795 -0.761,-1.344c0.004,-0.154 0.032,-0.308 0.083,-0.454c0.06,-0.17 0.15,-0.329 0.265,-0.468c0.116,-0.138 0.256,-0.256 0.413,-0.344c0.205,-0.116 0.428,-0.175 0.662,-0.193c2.395,-0.062 4.793,-0.03 7.189,-0.001Z" style="fill:#333;fill-rule:nonzero;"/></g></g></svg>