<?xml version="1.0" encoding="UTF-8" standalone="no"?>
<!DOCTYPE svg PUBLIC "-//W3C//DTD SVG 1.1//EN" "http://www.w3.org/Graphics/SVG/1.1/DTD/svg11.dtd">
<svg width="100%" height="100%" viewBox="0 0 32 32" version="1.1" xmlns="http://www.w3.org/2000/svg" xmlns:xlink="http://www.w3.org/1999/xlink" xml:space="preserve" xmlns:serif="http://www.serif.com/" style="fill-rule:evenodd;clip-rule:evenodd;stroke-miterlimit:1.5;">
    <rect id="fax_machine" x="0" y="0" width="32" height="32" style="fill:none;"/>
    <clipPath id="_clip1">
        <rect x="0" y="0" width="32" height="32"/>
    </clipPath>
    <g clip-path="url(#_clip1)">
        <g id="outline">
            <path d="M3,25l0,-1.292c0,-0.466 0.108,-0.925 0.317,-1.341c0.945,-1.892 3.683,-7.367 3.683,-7.367" style="fill:none;stroke:#000;stroke-width:6px;"/>
            <path d="M8.5,22l0,4c0,1.105 -0.895,2 -2,2c-0.489,0 -1.011,0 -1.5,0c-1.105,0 -2,-0.895 -2,-2c0,-1 0,-2 0,-2" style="fill:none;stroke:#000;stroke-width:6px;"/>
            <path d="M12,9l0,-6.5c0,-0.133 0.053,-0.26 0.146,-0.354c0.094,-0.093 0.221,-0.146 0.354,-0.146c2.388,0 12.612,0 15,0c0.133,0 0.26,0.053 0.354,0.146c0.093,0.094 0.146,0.221 0.146,0.354l0,6.5l1,0c0.265,0 0.52,0.105 0.707,0.293c0.188,0.187 0.293,0.442 0.293,0.707c0,3.541 0,15.459 0,19c0,0.265 -0.105,0.52 -0.293,0.707c-0.187,0.188 -0.442,0.293 -0.707,0.293c-4.02,0 -18.98,0 -23,0c-0.265,0 -0.52,-0.105 -0.707,-0.293c-0.188,-0.187 -0.293,-0.442 -0.293,-0.707c0,-3.541 0,-15.459 0,-19c0,-0.265 0.105,-0.52 0.293,-0.707c0.187,-0.188 0.442,-0.293 0.707,-0.293l6,0Z" style="fill:none;stroke:#000;stroke-width:4px;stroke-linecap:square;stroke-linejoin:round;"/>
        </g>
        <g id="emoji">
            <path d="M28,2.5c0,-0.133 -0.053,-0.26 -0.146,-0.354c-0.094,-0.093 -0.221,-0.146 -0.354,-0.146c-2.388,0 -12.612,0 -15,0c-0.133,0 -0.26,0.053 -0.354,0.146c-0.093,0.094 -0.146,0.221 -0.146,0.354c0,2.497 0,13.5 0,13.5l16,0l0,-13.5Z" style="fill:#313131;"/>
            <rect x="13" y="3" width="14" height="12" style="fill:#fff;"/>
            <path d="M26,8l0,1l-12,0l0,-1l12,0Zm0,-2l0,1l-12,0l0,-1l12,0Zm0,-2l0,1l-12,0l0,-1l12,0Z" style="fill:#cbcbcb;"/>
            <path d="M5,24l25,0l0,5c0,0.265 -0.105,0.52 -0.293,0.707c-0.187,0.188 -0.442,0.293 -0.707,0.293c-4.02,0 -18.98,0 -23,0c-0.265,0 -0.52,-0.105 -0.707,-0.293c-0.188,-0.187 -0.293,-0.442 -0.293,-0.707c0,-1.707 0,-5 0,-5Z" style="fill:#404040;"/>
            <path d="M3,25l0,-1.292c0,-0.466 0.108,-0.925 0.317,-1.341c0.945,-1.892 3.683,-7.367 3.683,-7.367" style="fill:none;stroke:#252525;stroke-width:2px;stroke-linecap:square;"/>
            <path d="M5,10c0,-0.552 0.448,-1 1,-1c4.02,0 18.98,0 23,0c0.552,0 1,0.448 1,1c0,2.873 0,11.127 0,14c0,0.552 -0.448,1 -1,1c-4.02,0 -18.98,0 -23,0c-0.552,0 -1,-0.448 -1,-1c0,-2.873 0,-11.127 0,-14Z" style="fill:#595959;"/>
            <path d="M28,27c0,-0.552 -0.448,-1 -1,-1c-2.873,0 -11.127,0 -14,0c-0.552,0 -1,0.448 -1,1c0,0.552 0.448,1 1,1c2.873,0 11.127,0 14,0c0.552,0 1,-0.448 1,-1c0,0 0,0 0,0Z"/>
            <path d="M11,11c0,-0.552 -0.448,-1 -1,-1c-0.871,0 -2.129,0 -3,0c-0.552,0 -1,0.448 -1,1c0,2.577 0,9.423 0,12c0,0.552 0.448,1 1,1c0.871,0 2.129,0 3,0c0.552,0 1,-0.448 1,-1c0,-2.577 0,-9.423 0,-12Z" style="fill:#252525;"/>
            <path d="M8.5,22l0,4c0,1.105 -0.895,2 -2,2c-0.489,0 -1.011,0 -1.5,0c-1.105,0 -2,-0.895 -2,-2c0,-0.551 0,-1 0,-1" style="fill:none;stroke:#252525;stroke-width:2px;stroke-linecap:square;"/>
            <g>
                <path d="M17,15c0,-0.552 -0.448,-1 -1,-1c-0.611,0 -1.389,0 -2,0c-0.552,0 -1,0.448 -1,1c0,0.552 0.448,1 1,1c0.611,0 1.389,0 2,0c0.552,0 1,-0.448 1,-1c0,0 0,0 0,0Z" style="fill:#252525;"/>
                <path d="M17,18c0,-0.552 -0.448,-1 -1,-1c-0.611,0 -1.389,0 -2,0c-0.552,0 -1,0.448 -1,1c0,0.552 0.448,1 1,1c0.611,0 1.389,0 2,0c0.552,0 1,-0.448 1,-1c0,0 0,0 0,0Z" style="fill:#252525;"/>
                <path d="M17,21c0,-0.552 -0.448,-1 -1,-1c-0.611,0 -1.389,0 -2,0c-0.552,0 -1,0.448 -1,1c0,0.552 0.448,1 1,1c0.611,0 1.389,0 2,0c0.552,0 1,-0.448 1,-1c0,0 0,0 0,0Z" style="fill:#252525;"/>
                <path d="M22,15c0,-0.552 -0.448,-1 -1,-1c-0.611,0 -1.389,0 -2,0c-0.552,0 -1,0.448 -1,1c0,0.552 0.448,1 1,1c0.611,0 1.389,0 2,0c0.552,0 1,-0.448 1,-1c0,0 0,0 0,0Z" style="fill:#252525;"/>
                <path d="M22,18c0,-0.552 -0.448,-1 -1,-1c-0.611,0 -1.389,0 -2,0c-0.552,0 -1,0.448 -1,1c0,0.552 0.448,1 1,1c0.611,0 1.389,0 2,0c0.552,0 1,-0.448 1,-1c0,0 0,0 0,0Z" style="fill:#252525;"/>
                <path d="M22,21c0,-0.552 -0.448,-1 -1,-1c-0.611,0 -1.389,0 -2,0c-0.552,0 -1,0.448 -1,1c0,0.552 0.448,1 1,1c0.611,0 1.389,0 2,0c0.552,0 1,-0.448 1,-1c0,0 0,0 0,0Z" style="fill:#252525;"/>
                <path d="M27,15c0,-0.552 -0.448,-1 -1,-1c-0.611,0 -1.389,0 -2,0c-0.552,0 -1,0.448 -1,1c0,0.552 0.448,1 1,1c0.611,0 1.389,0 2,0c0.552,0 1,-0.448 1,-1c0,0 0,0 0,0Z" style="fill:#252525;"/>
                <path d="M27,18c0,-0.552 -0.448,-1 -1,-1c-0.611,0 -1.389,0 -2,0c-0.552,0 -1,0.448 -1,1c0,0.552 0.448,1 1,1c0.611,0 1.389,0 2,0c0.552,0 1,-0.448 1,-1c0,0 0,0 0,0Z" style="fill:#252525;"/>
                <path d="M27,21c0,-0.552 -0.448,-1 -1,-1c-0.611,0 -1.389,0 -2,0c-0.552,0 -1,0.448 -1,1c0,0.552 0.448,1 1,1c0.611,0 1.389,0 2,0c0.552,0 1,-0.448 1,-1c0,0 0,0 0,0Z" style="fill:#252525;"/>
            </g>
            <rect x="13" y="10" width="14" height="2" style="fill:#313131;"/>
        </g>
    </g>
</svg>
