<?xml version="1.0" encoding="UTF-8" standalone="no"?>
<!DOCTYPE svg PUBLIC "-//W3C//DTD SVG 1.1//EN" "http://www.w3.org/Graphics/SVG/1.1/DTD/svg11.dtd">
<svg width="100%" height="100%" viewBox="0 0 32 32" version="1.1" xmlns="http://www.w3.org/2000/svg" xmlns:xlink="http://www.w3.org/1999/xlink" xml:space="preserve" xmlns:serif="http://www.serif.com/" style="fill-rule:evenodd;clip-rule:evenodd;stroke-linejoin:round;stroke-miterlimit:2;">
    <rect id="film_celluloid" x="0" y="0" width="32" height="32" style="fill:none;"/>
    <clipPath id="_clip1">
        <rect x="0" y="0" width="32" height="32"/>
    </clipPath>
    <g clip-path="url(#_clip1)">
        <g id="outline">
        </g>
        <g id="emoji">
        </g>
        <rect x="0" y="0" width="32" height="32"/>
        <path d="M30,2l-7,0l-1,1l-12,0l-1,-1l-7,0l0,28l7,0l1,-1l12,0l1,1l7,0l0,-28Z" style="fill:#4d4d4d;"/>
        <g>
            <path d="M23,2l-14,0l0,5c0,0.552 0.448,1 1,1c2.577,0 9.423,0 12,0c0.552,0 1,-0.448 1,-1c0,-1.707 0,-5 0,-5Z" style="fill:#bfbfbf;"/>
            <path d="M23,30l-14,0l0,-5c0,-0.552 0.448,-1 1,-1c2.577,0 9.423,0 12,0c0.552,0 1,0.448 1,1c0,1.707 0,5 0,5Z" style="fill:#bfbfbf;"/>
            <path d="M23,21c0,0.552 -0.448,1 -1,1c-2.577,0 -9.423,0 -12,0c-0.552,0 -1,-0.448 -1,-1c0,-2.26 0,-7.74 0,-10c0,-0.552 0.448,-1 1,-1c2.577,0 9.423,0 12,0c0.552,0 1,0.448 1,1c0,2.26 0,7.74 0,10Z" style="fill:#bfbfbf;"/>
        </g>
        <g>
            <path d="M29,9c0,0.552 -0.448,1 -1,1c-0.611,0 -1.389,0 -2,0c-0.552,0 -1,-0.448 -1,-1c0,-0.322 0,-0.678 0,-1c0,-0.552 0.448,-1 1,-1c0.611,0 1.389,0 2,0c0.552,0 1,0.448 1,1c0,0.322 0,0.678 0,1Z" style="fill:#bfbfbf;"/>
            <path d="M29,4c0,0.552 -0.448,1 -1,1c-0.611,0 -1.389,0 -2,0c-0.552,0 -1,-0.448 -1,-1c0,-0.322 0,-0.678 0,-1c0,-0.552 0.448,-1 1,-1c0.611,0 1.389,0 2,0c0.552,0 1,0.448 1,1c0,0.322 0,0.678 0,1Z" style="fill:#bfbfbf;"/>
            <path d="M29,29c0,0.552 -0.448,1 -1,1c-0.611,0 -1.389,0 -2,0c-0.552,0 -1,-0.448 -1,-1c0,-0.322 0,-0.678 0,-1c0,-0.552 0.448,-1 1,-1c0.611,0 1.389,0 2,0c0.552,0 1,0.448 1,1c0,0.322 0,0.678 0,1Z" style="fill:#bfbfbf;"/>
            <path d="M29,14c0,0.552 -0.448,1 -1,1c-0.611,0 -1.389,0 -2,0c-0.552,0 -1,-0.448 -1,-1c0,-0.322 0,-0.678 0,-1c0,-0.552 0.448,-1 1,-1c0.611,0 1.389,0 2,0c0.552,0 1,0.448 1,1c0,0.322 0,0.678 0,1Z" style="fill:#bfbfbf;"/>
            <path d="M29,19c0,0.552 -0.448,1 -1,1c-0.611,0 -1.389,0 -2,0c-0.552,0 -1,-0.448 -1,-1c0,-0.322 0,-0.678 0,-1c0,-0.552 0.448,-1 1,-1c0.611,0 1.389,0 2,0c0.552,0 1,0.448 1,1c0,0.322 0,0.678 0,1Z" style="fill:#bfbfbf;"/>
            <path d="M29,24c0,0.552 -0.448,1 -1,1c-0.611,0 -1.389,0 -2,0c-0.552,0 -1,-0.448 -1,-1c0,-0.322 0,-0.678 0,-1c0,-0.552 0.448,-1 1,-1c0.611,0 1.389,0 2,0c0.552,0 1,0.448 1,1c0,0.322 0,0.678 0,1Z" style="fill:#bfbfbf;"/>
        </g>
        <g>
            <path d="M7,9c0,0.552 -0.448,1 -1,1c-0.611,0 -1.389,0 -2,0c-0.552,0 -1,-0.448 -1,-1c0,-0.322 0,-0.678 0,-1c0,-0.552 0.448,-1 1,-1c0.611,0 1.389,0 2,0c0.552,0 1,0.448 1,1c0,0.322 0,0.678 0,1Z" style="fill:#bfbfbf;"/>
            <path d="M7,4c0,0.552 -0.448,1 -1,1c-0.611,0 -1.389,0 -2,0c-0.552,0 -1,-0.448 -1,-1c0,-0.322 0,-0.678 0,-1c0,-0.552 0.448,-1 1,-1c0.611,0 1.389,0 2,0c0.552,0 1,0.448 1,1c0,0.322 0,0.678 0,1Z" style="fill:#bfbfbf;"/>
            <path d="M7,29c0,0.552 -0.448,1 -1,1c-0.611,0 -1.389,0 -2,0c-0.552,0 -1,-0.448 -1,-1c0,-0.322 0,-0.678 0,-1c0,-0.552 0.448,-1 1,-1c0.611,0 1.389,0 2,0c0.552,0 1,0.448 1,1c0,0.322 0,0.678 0,1Z" style="fill:#bfbfbf;"/>
            <path d="M7,14c0,0.552 -0.448,1 -1,1c-0.611,0 -1.389,0 -2,0c-0.552,0 -1,-0.448 -1,-1c0,-0.322 0,-0.678 0,-1c0,-0.552 0.448,-1 1,-1c0.611,0 1.389,0 2,0c0.552,0 1,0.448 1,1c0,0.322 0,0.678 0,1Z" style="fill:#bfbfbf;"/>
            <path d="M7,19c0,0.552 -0.448,1 -1,1c-0.611,0 -1.389,0 -2,0c-0.552,0 -1,-0.448 -1,-1c0,-0.322 0,-0.678 0,-1c0,-0.552 0.448,-1 1,-1c0.611,0 1.389,0 2,0c0.552,0 1,0.448 1,1c0,0.322 0,0.678 0,1Z" style="fill:#bfbfbf;"/>
            <path d="M7,24c0,0.552 -0.448,1 -1,1c-0.611,0 -1.389,0 -2,0c-0.552,0 -1,-0.448 -1,-1c0,-0.322 0,-0.678 0,-1c0,-0.552 0.448,-1 1,-1c0.611,0 1.389,0 2,0c0.552,0 1,0.448 1,1c0,0.322 0,0.678 0,1Z" style="fill:#bfbfbf;"/>
        </g>
    </g>
</svg>
