<?xml version="1.0" encoding="UTF-8" standalone="no"?><!DOCTYPE svg PUBLIC "-//W3C//DTD SVG 1.1//EN" "http://www.w3.org/Graphics/SVG/1.1/DTD/svg11.dtd"><svg width="100%" height="100%" viewBox="0 0 32 32" version="1.1" xmlns="http://www.w3.org/2000/svg" xmlns:xlink="http://www.w3.org/1999/xlink" xml:space="preserve" xmlns:serif="http://www.serif.com/" style="fill-rule:evenodd;clip-rule:evenodd;stroke-linejoin:round;stroke-miterlimit:1.41421;"><rect id="floppy_disk" x="0" y="0" width="32" height="32" style="fill:none;"/><clipPath id="_clip1"><rect x="0" y="0" width="32" height="32"/></clipPath><g clip-path="url(#_clip1)"><g id="outline"><g><path d="M30,5l-3,-3c-7.225,0 -25,0 -25,0l0,28l28,0c0,0 0,-17.775 0,-25Z"/><path d="M32,4.172l0,27.828l-32,0l0,-32l27.828,0l4.172,4.172Zm-28,-0.172l0,24l24,0l0,-22.172l-1.828,-1.828l-22.172,0Z"/></g></g><g id="emoji"><path d="M30,5l-3,-3c-1.5,0 -3,0 -3,0l-1,1l-17,0l-1,-1l-3,0l0,28l3,0l1,-1l20,0l1,1l3,0c0,0 0,-17.775 0,-25Z" style="fill:#4d4d4d;"/><path d="M27,17c0,-0.552 -0.448,-1 -1,-1c-3.665,0 -16.335,0 -20,0c-0.552,0 -1,0.448 -1,1c0,3.203 0,13 0,13l22,0c0,0 0,-9.797 0,-13Z" style="fill:#e6e6e6;"/><path d="M10,2l-5,0l0,10l5,0l1,-1l0,-8l-1,-1Z" style="fill:#333;"/><rect x="10" y="2" width="14" height="10" style="fill:#ccc;"/><rect x="18" y="3" width="4" height="8" style="fill:#333;"/></g></g></svg>