<?xml version="1.0" encoding="UTF-8" standalone="no"?><!DOCTYPE svg PUBLIC "-//W3C//DTD SVG 1.1//EN" "http://www.w3.org/Graphics/SVG/1.1/DTD/svg11.dtd"><svg width="100%" height="100%" viewBox="0 0 32 32" version="1.1" xmlns="http://www.w3.org/2000/svg" xmlns:xlink="http://www.w3.org/1999/xlink" xml:space="preserve" xmlns:serif="http://www.serif.com/" style="fill-rule:evenodd;clip-rule:evenodd;stroke-linejoin:round;stroke-miterlimit:1.41421;"><rect id="floppy_disk" x="0" y="0" width="32" height="32" style="fill:none;"/><clipPath id="_clip1"><rect x="0" y="0" width="32" height="32"/></clipPath><g clip-path="url(#_clip1)"><g id="outline"><g><path d="M30,5.414c0,-0.265 -0.105,-0.519 -0.293,-0.707c-0.574,-0.574 -1.84,-1.84 -2.414,-2.414c-0.188,-0.188 -0.442,-0.293 -0.707,-0.293c-6.383,0 -19.82,0 -23.586,0c-0.552,0 -1,0.448 -1,1c0,4.355 0,21.645 0,26c0,0.552 0.448,1 1,1c4.355,0 21.645,0 26,0c0.552,0 1,-0.448 1,-1c0,-3.766 0,-17.203 0,-23.586Z"/><path d="M26.734,0.003l0.148,0.011l0.147,0.018l0.145,0.026l0.143,0.032l0.142,0.039l0.138,0.046l0.137,0.053l0.134,0.059l0.131,0.066l0.127,0.072l0.125,0.079l0.12,0.084l0.117,0.091l0.112,0.097l0.09,0.085l2.449,2.449l0.085,0.09l0.097,0.112l0.091,0.117l0.084,0.12l0.079,0.124l0.072,0.128l0.066,0.131l0.059,0.134l0.053,0.136l0.046,0.14l0.039,0.141l0.032,0.143l0.026,0.146l0.018,0.146l0.011,0.147l0.003,0.125l0,23.635l-0.003,0.128l-0.012,0.152l-0.019,0.149l-0.026,0.148l-0.034,0.146l-0.041,0.144l-0.047,0.139l-0.054,0.137l-0.06,0.134l-0.067,0.129l-0.072,0.126l-0.078,0.122l-0.084,0.117l-0.088,0.113l-0.094,0.109l-0.099,0.104l-0.104,0.099l-0.108,0.094l-0.114,0.089l-0.117,0.083l-0.122,0.078l-0.125,0.072l-0.13,0.067l-0.134,0.06l-0.137,0.054l-0.14,0.047l-0.143,0.041l-0.146,0.034l-0.148,0.026l-0.15,0.019l-0.151,0.012l-0.128,0.003l-26.05,0l-0.128,-0.003l-0.151,-0.012l-0.15,-0.019l-0.148,-0.026l-0.146,-0.034l-0.143,-0.041l-0.14,-0.047l-0.137,-0.054l-0.134,-0.06l-0.13,-0.067l-0.125,-0.072l-0.122,-0.078l-0.117,-0.084l-0.113,-0.088l-0.109,-0.094l-0.104,-0.099l-0.099,-0.104l-0.094,-0.109l-0.088,-0.112l-0.084,-0.118l-0.078,-0.122l-0.072,-0.126l-0.067,-0.129l-0.06,-0.134l-0.054,-0.136l-0.047,-0.14l-0.041,-0.144l-0.034,-0.146l-0.026,-0.148l-0.019,-0.15l-0.012,-0.151l-0.003,-0.127l0,-26.052l0.003,-0.127l0.012,-0.151l0.019,-0.15l0.026,-0.148l0.034,-0.146l0.041,-0.144l0.047,-0.14l0.054,-0.136l0.06,-0.134l0.067,-0.13l0.072,-0.125l0.078,-0.122l0.083,-0.117l0.089,-0.114l0.094,-0.108l0.099,-0.104l0.104,-0.099l0.109,-0.094l0.113,-0.088l0.117,-0.084l0.122,-0.078l0.126,-0.072l0.129,-0.067l0.134,-0.06l0.136,-0.054l0.141,-0.047l0.143,-0.041l0.146,-0.034l0.148,-0.026l0.15,-0.019l0.151,-0.012l0.128,-0.003l23.635,0l0.124,0.003Zm-22.734,3.997l0,24l24,0l0,-22.172l-1.828,-1.828l-22.172,0Z"/></g></g><g id="emoji"><path d="M30,5.414c0,-0.265 -0.105,-0.519 -0.293,-0.707c-0.574,-0.574 -1.84,-1.84 -2.414,-2.414c-0.188,-0.188 -0.442,-0.293 -0.707,-0.293c-1.35,0 -2.586,0 -2.586,0l-1,1l-17,0l-1,-1c0,0 -1.127,0 -2,0c-0.552,0 -1,0.448 -1,1c0,4.355 0,21.645 0,26c0,0.552 0.448,1 1,1c0.873,0 2,0 2,0l1,-1l20,0l1,1c0,0 1.127,0 2,0c0.552,0 1,-0.448 1,-1c0,-3.766 0,-17.203 0,-23.586Z" style="fill:#4d4d4d;"/><path d="M27,17c0,-0.552 -0.448,-1 -1,-1c-3.665,0 -16.335,0 -20,0c-0.552,0 -1,0.448 -1,1c0,3.203 0,13 0,13l22,0c0,0 0,-9.797 0,-13Z" style="fill:#fff;"/><rect x="6" y="19" width="20" height="1" style="fill:#b2d6ff;"/><rect x="6" y="23" width="20" height="1" style="fill:#b2d6ff;"/><rect x="6" y="27" width="20" height="1" style="fill:#b2d6ff;"/><path d="M10,2l-5,0c0,0 0,6.467 0,9c0,0.552 0.448,1 1,1c1.459,0 4,0 4,0l1,-1l0,-8l-1,-1Z" style="fill:#333;"/><path d="M24,2l-14,0l0,10c0,0 9.797,0 13,0c0.552,0 1,-0.448 1,-1c0,-2.533 0,-9 0,-9Z" style="fill:#ccc;"/><rect x="18" y="3" width="4" height="8" style="fill:#333;"/></g></g></svg>