<?xml version="1.0" encoding="UTF-8" standalone="no"?><!DOCTYPE svg PUBLIC "-//W3C//DTD SVG 1.1//EN" "http://www.w3.org/Graphics/SVG/1.1/DTD/svg11.dtd"><svg width="100%" height="100%" viewBox="0 0 32 32" version="1.1" xmlns="http://www.w3.org/2000/svg" xmlns:xlink="http://www.w3.org/1999/xlink" xml:space="preserve" xmlns:serif="http://www.serif.com/" style="fill-rule:evenodd;clip-rule:evenodd;stroke-linejoin:round;stroke-miterlimit:1.41421;"><rect id="gamepad" x="0" y="0" width="32" height="32" style="fill:none;"/><g id="outline"><path d="M20.131,6c0.915,0.015 1.829,0.156 2.699,0.444c0.583,0.194 1.146,0.441 1.679,0.747c1.062,0.609 1.997,1.435 2.731,2.416c0.467,0.623 0.853,1.307 1.143,2.03c0.131,0.324 0.24,0.656 0.334,0.993c0.851,3.185 1.601,6.397 2.401,9.596c0.111,0.47 0.158,0.951 0.125,1.434c-0.048,0.7 -0.256,1.386 -0.604,1.995c-0.309,0.54 -0.726,1.016 -1.22,1.392c-0.664,0.506 -1.461,0.827 -2.29,0.923c-0.28,0.032 -0.566,0.044 -0.847,0.014c-0.44,-0.047 -0.867,-0.193 -1.244,-0.426c-0.173,-0.106 -0.334,-0.231 -0.482,-0.37c-0.226,-0.215 -0.41,-0.463 -0.563,-0.734c-0.498,-0.955 -0.942,-1.939 -1.449,-2.89c-0.128,-0.229 -0.28,-0.441 -0.46,-0.631c-0.379,-0.399 -0.866,-0.688 -1.397,-0.831c-0.219,-0.059 -0.444,-0.09 -0.671,-0.1c-2.676,-0.071 -5.356,-0.071 -8.032,0c-0.227,0.01 -0.452,0.041 -0.671,0.1c-0.531,0.143 -1.018,0.432 -1.397,0.831c-0.18,0.19 -0.332,0.402 -0.46,0.631c-0.493,0.926 -0.94,1.877 -1.41,2.816c-0.141,0.269 -0.315,0.518 -0.529,0.735c-0.166,0.169 -0.352,0.318 -0.554,0.443c-0.377,0.233 -0.805,0.379 -1.245,0.426c-0.281,0.03 -0.567,0.018 -0.847,-0.014c-0.785,-0.091 -1.542,-0.384 -2.184,-0.845c-0.541,-0.388 -0.996,-0.892 -1.326,-1.47c-0.327,-0.571 -0.53,-1.21 -0.593,-1.865c-0.034,-0.35 -0.028,-0.704 0.018,-1.053c0.017,-0.133 0.042,-0.263 0.068,-0.394c0.765,-3.249 1.567,-6.489 2.429,-9.713c0.103,-0.368 0.224,-0.729 0.37,-1.081c0.286,-0.69 0.659,-1.344 1.107,-1.942c0.734,-0.981 1.669,-1.807 2.731,-2.416c0.533,-0.306 1.096,-0.553 1.679,-0.747c0.84,-0.278 1.72,-0.419 2.603,-0.442c2.785,-0.045 5.572,-0.016 8.358,-0.002Z"/></g><g id="emoji"><path d="M5.404,26c-0.818,0 -1.591,-0.377 -2.095,-1.022c-0.503,-0.645 -0.682,-1.487 -0.483,-2.281c0.656,-2.626 1.588,-6.352 2.348,-9.395c0.779,-3.116 3.579,-5.302 6.791,-5.302c2.533,0 5.537,0 8.07,0c3.212,0 6.012,2.186 6.791,5.302c0.76,3.043 1.692,6.769 2.348,9.395c0.199,0.794 0.02,1.636 -0.483,2.281c-0.504,0.645 -1.277,1.022 -2.095,1.022c-0.001,0 -0.001,0 -0.001,0c-0.365,0 -0.698,-0.206 -0.861,-0.532c-0.308,-0.616 -0.839,-1.679 -1.352,-2.704c-0.847,-1.694 -2.578,-2.764 -4.472,-2.764c-2.324,0 -5.496,0 -7.82,0c-1.894,0 -3.625,1.07 -4.472,2.764c-0.513,1.025 -1.044,2.088 -1.352,2.704c-0.163,0.326 -0.496,0.532 -0.861,0.532c0,0 0,0 -0.001,0Z" style="fill:#333;"/><circle cx="21.5" cy="16.5" r="1.5" style="fill:#199d4e;"/><circle cx="24.5" cy="13.5" r="1.5" style="fill:#e02a33;"/><circle cx="18.5" cy="13.5" r="1.5" style="fill:#334cec;"/><circle cx="21.5" cy="10.5" r="1.5" style="fill:#ef9b00;"/><circle cx="10.5" cy="13.5" r="3.5" style="fill:#ccc;"/><circle cx="10.5" cy="13.5" r="2.5" style="fill:#666;"/></g></svg>