<?xml version="1.0" encoding="UTF-8" standalone="no"?>
<!DOCTYPE svg PUBLIC "-//W3C//DTD SVG 1.1//EN" "http://www.w3.org/Graphics/SVG/1.1/DTD/svg11.dtd">
<svg width="100%" height="100%" viewBox="0 0 32 32" version="1.1" xmlns="http://www.w3.org/2000/svg" xmlns:xlink="http://www.w3.org/1999/xlink" xml:space="preserve" xmlns:serif="http://www.serif.com/" style="fill-rule:evenodd;clip-rule:evenodd;stroke-linecap:square;stroke-linejoin:round;stroke-miterlimit:1.5;">
    <rect id="landline_phone" x="0" y="0" width="32" height="32" style="fill:none;"/>
    <clipPath id="_clip1">
        <rect x="0" y="0" width="32" height="32"/>
    </clipPath>
    <g clip-path="url(#_clip1)">
        <g id="outline">
            <path d="M6,6c0,-0.552 0.448,-1 1,-1c3.904,0 18.096,0 22,0c0.552,0 1,0.448 1,1c0,3.541 0,15.459 0,19c0,0.552 -0.448,1 -1,1c-3.904,0 -18.096,0 -22,0c-0.552,0 -1,-0.448 -1,-1c0,-3.541 0,-15.459 0,-19Z" style="fill:none;stroke:#000;stroke-width:4px;"/>
            <path d="M4,21l0,-1.292c0,-0.466 0.108,-0.925 0.317,-1.341c0.945,-1.892 3.683,-7.367 3.683,-7.367" style="fill:none;stroke:#000;stroke-width:6px;stroke-linecap:butt;stroke-linejoin:miter;"/>
            <path d="M9.5,18l0,4c0,1.105 -0.895,2 -2,2c-0.489,0 -1.011,0 -1.5,0c-1.105,0 -2,-0.895 -2,-2c0,-1 0,-2 0,-2" style="fill:none;stroke:#000;stroke-width:6px;stroke-linecap:butt;stroke-linejoin:miter;"/>
        </g>
        <g id="emoji">
            <path d="M4,21l0,-1.292c0,-0.466 0.108,-0.925 0.317,-1.341c0.945,-1.892 3.683,-7.367 3.683,-7.367" style="fill:none;stroke:#252525;stroke-width:2px;stroke-linejoin:miter;"/>
            <path d="M30,20l0,5c0,0.552 -0.448,1 -1,1c-3.904,0 -18.096,0 -22,0c-0.552,0 -1,-0.448 -1,-1l0,-5l24,0Z" style="fill:#404040;"/>
            <path d="M6,6c0,-0.552 0.448,-1 1,-1c3.904,0 18.096,0 22,0c0.552,0 1,0.448 1,1c0,2.873 0,11.127 0,14c0,0.552 -0.448,1 -1,1c-3.904,0 -18.096,0 -22,0c-0.552,0 -1,-0.448 -1,-1c0,-2.873 0,-11.127 0,-14Z" style="fill:#595959;"/>
            <path d="M12,7c0,-0.552 -0.448,-1 -1,-1c-0.871,0 -2.129,0 -3,0c-0.552,0 -1,0.448 -1,1c0,2.577 0,9.423 0,12c0,0.552 0.448,1 1,1c0.871,0 2.129,0 3,0c0.552,0 1,-0.448 1,-1c0,-2.577 0,-9.423 0,-12Z" style="fill:#252525;"/>
            <path d="M9.5,18l0,4c0,1.105 -0.895,2 -2,2c-0.489,0 -1.011,0 -1.5,0c-1.105,0 -2,-0.895 -2,-2c0,-0.551 0,-1 0,-1" style="fill:none;stroke:#252525;stroke-width:2px;stroke-linejoin:miter;"/>
            <g>
                <path d="M18,11c0,-0.552 -0.448,-1 -1,-1c-0.611,0 -1.389,0 -2,0c-0.552,0 -1,0.448 -1,1c0,0.552 0.448,1 1,1c0.611,0 1.389,0 2,0c0.552,0 1,-0.448 1,-1c0,0 0,0 0,0Z" style="fill:#252525;"/>
                <path d="M18,14c0,-0.552 -0.448,-1 -1,-1c-0.611,0 -1.389,0 -2,0c-0.552,0 -1,0.448 -1,1c0,0.552 0.448,1 1,1c0.611,0 1.389,0 2,0c0.552,0 1,-0.448 1,-1c0,0 0,0 0,0Z" style="fill:#252525;"/>
                <path d="M18,17c0,-0.552 -0.448,-1 -1,-1c-0.611,0 -1.389,0 -2,0c-0.552,0 -1,0.448 -1,1c0,0.552 0.448,1 1,1c0.611,0 1.389,0 2,0c0.552,0 1,-0.448 1,-1c0,0 0,0 0,0Z" style="fill:#252525;"/>
                <path d="M23,11c0,-0.552 -0.448,-1 -1,-1c-0.611,0 -1.389,0 -2,0c-0.552,0 -1,0.448 -1,1c0,0.552 0.448,1 1,1c0.611,0 1.389,0 2,0c0.552,0 1,-0.448 1,-1c0,0 0,0 0,0Z" style="fill:#252525;"/>
                <path d="M23,14c0,-0.552 -0.448,-1 -1,-1c-0.611,0 -1.389,0 -2,0c-0.552,0 -1,0.448 -1,1c0,0.552 0.448,1 1,1c0.611,0 1.389,0 2,0c0.552,0 1,-0.448 1,-1c0,0 0,0 0,0Z" style="fill:#252525;"/>
                <path d="M23,17c0,-0.552 -0.448,-1 -1,-1c-0.611,0 -1.389,0 -2,0c-0.552,0 -1,0.448 -1,1c0,0.552 0.448,1 1,1c0.611,0 1.389,0 2,0c0.552,0 1,-0.448 1,-1c0,0 0,0 0,0Z" style="fill:#252525;"/>
                <path d="M28,11c0,-0.552 -0.448,-1 -1,-1c-0.611,0 -1.389,0 -2,0c-0.552,0 -1,0.448 -1,1c0,0.552 0.448,1 1,1c0.611,0 1.389,0 2,0c0.552,0 1,-0.448 1,-1c0,0 0,0 0,0Z" style="fill:#252525;"/>
                <path d="M28,14c0,-0.552 -0.448,-1 -1,-1c-0.611,0 -1.389,0 -2,0c-0.552,0 -1,0.448 -1,1c0,0.552 0.448,1 1,1c0.611,0 1.389,0 2,0c0.552,0 1,-0.448 1,-1c0,0 0,0 0,0Z" style="fill:#252525;"/>
                <path d="M28,17c0,-0.552 -0.448,-1 -1,-1c-0.611,0 -1.389,0 -2,0c-0.552,0 -1,0.448 -1,1c0,0.552 0.448,1 1,1c0.611,0 1.389,0 2,0c0.552,0 1,-0.448 1,-1c0,0 0,0 0,0Z" style="fill:#252525;"/>
            </g>
            <rect x="14" y="6" width="14" height="2" style="fill:#313131;"/>
        </g>
    </g>
</svg>
