<?xml version="1.0" encoding="UTF-8" standalone="no"?>
<!DOCTYPE svg PUBLIC "-//W3C//DTD SVG 1.1//EN" "http://www.w3.org/Graphics/SVG/1.1/DTD/svg11.dtd">
<svg width="100%" height="100%" viewBox="0 0 32 32" version="1.1" xmlns="http://www.w3.org/2000/svg" xmlns:xlink="http://www.w3.org/1999/xlink" xml:space="preserve" xmlns:serif="http://www.serif.com/" style="fill-rule:evenodd;clip-rule:evenodd;stroke-linecap:round;stroke-linejoin:round;stroke-miterlimit:1.5;">
    <rect id="laptop" x="0" y="0" width="32" height="32" style="fill:none;"/>
    <clipPath id="_clip1">
        <rect x="0" y="0" width="32" height="32"/>
    </clipPath>
    <g clip-path="url(#_clip1)">
        <g id="outline">
            <path d="M4.051,22.316c-0.033,-0.101 -0.051,-0.208 -0.051,-0.316c0,-3.151 0,-12.849 0,-16c0,-0.265 0.105,-0.52 0.293,-0.707c0.187,-0.188 0.442,-0.293 0.707,-0.293c3.904,0 18.096,0 22,0c0.265,0 0.52,0.105 0.707,0.293c0.188,0.187 0.293,0.442 0.293,0.707c0,3.151 0,12.849 0,16c0,0.108 -0.018,0.215 -0.051,0.316c0.113,0.121 0.198,0.272 0.24,0.441c0.346,1.382 1.081,4.322 1.5,6c0.075,0.299 0.008,0.616 -0.182,0.858c-0.189,0.243 -0.48,0.385 -0.788,0.385c-4.672,0 -20.766,0 -25.438,0c-0.308,0 -0.599,-0.142 -0.788,-0.385c-0.19,-0.242 -0.257,-0.559 -0.182,-0.858c0.419,-1.678 1.154,-4.618 1.5,-6c0.042,-0.169 0.127,-0.32 0.24,-0.441Z" style="fill:none;stroke:#000;stroke-width:4px;"/>
        </g>
        <g id="emoji">
            <path d="M28,6c0,-0.265 -0.105,-0.52 -0.293,-0.707c-0.187,-0.188 -0.442,-0.293 -0.707,-0.293c-3.904,0 -18.096,0 -22,0c-0.265,0 -0.52,0.105 -0.707,0.293c-0.188,0.187 -0.293,0.442 -0.293,0.707c0,3.151 0,12.849 0,16c0,0.265 0.105,0.52 0.293,0.707c0.187,0.188 0.442,0.293 0.707,0.293c3.904,0 18.096,0 22,0c0.265,0 0.52,-0.105 0.707,-0.293c0.188,-0.187 0.293,-0.442 0.293,-0.707c0,-3.151 0,-12.849 0,-16Z" style="fill:#313131;"/>
            <rect x="5" y="6" width="22" height="14" style="fill:#334cec;"/>
            <path d="M2.311,28.757c-0.075,0.299 -0.008,0.616 0.182,0.858c0.189,0.243 0.48,0.385 0.788,0.385c4.672,0 20.766,0 25.438,0c0.308,0 0.599,-0.142 0.788,-0.385c0.19,-0.242 0.257,-0.559 0.182,-0.858c-0.419,-1.678 -1.154,-4.618 -1.5,-6c-0.111,-0.445 -0.511,-0.757 -0.97,-0.757c-3.627,0 -18.811,0 -22.438,0c-0.459,0 -0.859,0.312 -0.97,0.757c-0.346,1.382 -1.081,4.322 -1.5,6Z" style="fill:#e6e6e6;"/>
            <path d="M11.89,27c-0.229,0 -0.429,0.156 -0.485,0.379c-0.07,0.282 -0.168,0.672 -0.25,1c-0.037,0.149 -0.003,0.307 0.091,0.429c0.095,0.121 0.24,0.192 0.394,0.192c1.805,0 6.915,0 8.72,0c0.154,0 0.299,-0.071 0.394,-0.192c0.094,-0.122 0.128,-0.28 0.091,-0.429c-0.082,-0.328 -0.18,-0.718 -0.25,-1c-0.056,-0.223 -0.256,-0.379 -0.485,-0.379c-1.481,0 -6.739,0 -8.22,0Z" style="fill:#a6a6a6;"/>
            <path d="M4.655,23.379c0.056,-0.223 0.256,-0.379 0.485,-0.379c2.735,0 18.985,0 21.72,0c0.229,0 0.429,0.156 0.485,0.379c0.125,0.503 0.349,1.397 0.5,2c0.037,0.149 0.003,0.307 -0.091,0.429c-0.095,0.121 -0.24,0.192 -0.394,0.192c-3.401,0 -19.319,0 -22.72,0c-0.154,0 -0.299,-0.071 -0.394,-0.192c-0.094,-0.122 -0.128,-0.28 -0.091,-0.429c0.151,-0.603 0.375,-1.497 0.5,-2Z" style="fill:#a6a6a6;"/>
            <g>
                <path d="M22,8c0,-0.552 -0.448,-1 -1,-1c-0.552,0 -1,0.448 -1,1c0,0.552 0.448,1 1,1c0.552,0 1,-0.448 1,-1l0,0Z" style="fill:#8899f4;"/>
                <path d="M22,11c0,-0.552 -0.448,-1 -1,-1c-0.552,0 -1,0.448 -1,1c0,0.552 0.448,1 1,1c0.552,0 1,-0.448 1,-1l0,0Z" style="fill:#8899f4;"/>
                <path d="M22,14c0,-0.552 -0.448,-1 -1,-1c-0.552,0 -1,0.448 -1,1c0,0.552 0.448,1 1,1c0.552,0 1,-0.448 1,-1l0,0Z" style="fill:#8899f4;"/>
                <path d="M26,8.5c0,-0.133 -0.053,-0.26 -0.146,-0.354c-0.094,-0.093 -0.221,-0.146 -0.354,-0.146c-0.555,0 -1.445,0 -2,0c-0.133,0 -0.26,0.053 -0.354,0.146c-0.093,0.094 -0.146,0.221 -0.146,0.354c0,0.133 0.053,0.26 0.146,0.354c0.094,0.093 0.221,0.146 0.354,0.146c0.555,0 1.445,0 2,0c0.133,0 0.26,-0.053 0.354,-0.146c0.093,-0.094 0.146,-0.221 0.146,-0.354c0,0 0,0 0,0Z" style="fill:#8899f4;"/>
                <path d="M26,11.5c0,-0.133 -0.053,-0.26 -0.146,-0.354c-0.094,-0.093 -0.221,-0.146 -0.354,-0.146c-0.555,0 -1.445,0 -2,0c-0.133,0 -0.26,0.053 -0.354,0.146c-0.093,0.094 -0.146,0.221 -0.146,0.354c0,0.133 0.053,0.26 0.146,0.354c0.094,0.093 0.221,0.146 0.354,0.146c0.555,0 1.445,0 2,0c0.133,0 0.26,-0.053 0.354,-0.146c0.093,-0.094 0.146,-0.221 0.146,-0.354c0,0 0,0 0,0Z" style="fill:#8899f4;"/>
                <path d="M26,14.5c0,-0.133 -0.053,-0.26 -0.146,-0.354c-0.094,-0.093 -0.221,-0.146 -0.354,-0.146c-0.555,0 -1.445,0 -2,0c-0.133,0 -0.26,0.053 -0.354,0.146c-0.093,0.094 -0.146,0.221 -0.146,0.354c0,0.133 0.053,0.26 0.146,0.354c0.094,0.093 0.221,0.146 0.354,0.146c0.555,0 1.445,0 2,0c0.133,0 0.26,-0.053 0.354,-0.146c0.093,-0.094 0.146,-0.221 0.146,-0.354c0,0 0,0 0,0Z" style="fill:#8899f4;"/>
            </g>
        </g>
    </g>
</svg>
