<?xml version="1.0" encoding="UTF-8" standalone="no"?>
<!DOCTYPE svg PUBLIC "-//W3C//DTD SVG 1.1//EN" "http://www.w3.org/Graphics/SVG/1.1/DTD/svg11.dtd">
<svg width="100%" height="100%" viewBox="0 0 32 32" version="1.1" xmlns="http://www.w3.org/2000/svg" xmlns:xlink="http://www.w3.org/1999/xlink" xml:space="preserve" xmlns:serif="http://www.serif.com/" style="fill-rule:evenodd;clip-rule:evenodd;stroke-linejoin:round;stroke-miterlimit:2;">
    <rect id="level_slider" x="0" y="0" width="32" height="32" style="fill:none;"/>
    <clipPath id="_clip1">
        <rect x="0" y="0" width="32" height="32"/>
    </clipPath>
    <g clip-path="url(#_clip1)">
        <g id="outline">
            <path d="M26,2c0,-0.53 -0.211,-1.039 -0.586,-1.414c-0.375,-0.375 -0.884,-0.586 -1.414,-0.586c-3.832,0 -12.168,0 -16,0c-0.53,0 -1.039,0.211 -1.414,0.586c-0.375,0.375 -0.586,0.884 -0.586,1.414c0,5.746 0,22.254 0,28c0,0.53 0.211,1.039 0.586,1.414c0.375,0.375 0.884,0.586 1.414,0.586c3.832,0 12.168,0 16,0c0.53,0 1.039,-0.211 1.414,-0.586c0.375,-0.375 0.586,-0.884 0.586,-1.414c0,-5.746 0,-22.254 0,-28Z"/>
        </g>
        <g id="emoji">
            <rect x="8" y="2" width="16" height="28" style="fill:#636363;"/>
            <path d="M22,13l-12,0l0,3c0,0.552 0.448,1 1,1l10,0c0.552,0 1,-0.448 1,-1c0,-1.185 0,-3 0,-3Z" style="fill:#454545;"/>
            <rect x="15" y="4" width="2" height="24" style="fill:#333;"/>
            <path d="M22,12c0,-0.552 -0.448,-1 -1,-1c-2.26,0 -7.74,0 -10,0c-0.552,0 -1,0.448 -1,1c0,0.611 0,1.389 0,2c0,0.552 0.448,1 1,1c2.26,0 7.74,0 10,0c0.552,0 1,-0.448 1,-1c0,-0.611 0,-1.389 0,-2Z" style="fill:#191919;"/>
        </g>
    </g>
</svg>
