<?xml version="1.0" encoding="UTF-8" standalone="no"?><!DOCTYPE svg PUBLIC "-//W3C//DTD SVG 1.1//EN" "http://www.w3.org/Graphics/SVG/1.1/DTD/svg11.dtd"><svg width="100%" height="100%" viewBox="0 0 32 32" version="1.1" xmlns="http://www.w3.org/2000/svg" xmlns:xlink="http://www.w3.org/1999/xlink" xml:space="preserve" xmlns:serif="http://www.serif.com/" style="fill-rule:evenodd;clip-rule:evenodd;stroke-linejoin:round;stroke-miterlimit:1.41421;"><rect id="lp" x="0" y="0" width="32" height="32" style="fill:none;"/><clipPath id="_clip1"><rect x="0" y="0" width="32" height="32"/></clipPath><g clip-path="url(#_clip1)"><g id="outline"><circle cx="16" cy="16" r="16"/></g><g id="emoji"><circle cx="16" cy="16" r="14" style="fill:#4d4d4d;"/><circle cx="16" cy="16" r="6" style="fill:#e5e5e5;"/><circle cx="16" cy="16" r="1"/><path d="M16.068,3.002c0.161,0.017 0.312,0.059 0.452,0.144c0.116,0.071 0.218,0.166 0.297,0.277c0.241,0.342 0.241,0.812 0,1.154c-0.066,0.093 -0.147,0.174 -0.24,0.24c-0.131,0.092 -0.283,0.152 -0.441,0.174c-0.06,0.008 -0.075,0.007 -0.136,0.009l0.001,0c-0.137,0.001 -0.275,0.003 -0.412,0.008c-0.136,0.006 -0.272,0.013 -0.408,0.022c-0.315,0.026 -0.628,0.061 -0.94,0.111c-0.708,0.115 -1.405,0.299 -2.077,0.549c-1.178,0.438 -2.278,1.079 -3.24,1.887c-1.038,0.872 -1.911,1.936 -2.564,3.124c-0.583,1.06 -0.988,2.215 -1.196,3.407c-0.07,0.4 -0.118,0.804 -0.143,1.209c-0.008,0.136 -0.014,0.272 -0.018,0.408c-0.001,0.045 -0.002,0.091 -0.002,0.137c-0.001,0.046 -0.001,0.184 -0.001,0.138l-0.002,0.068c-0.007,0.069 -0.016,0.135 -0.035,0.202c-0.043,0.153 -0.123,0.296 -0.232,0.413c-0.078,0.083 -0.17,0.152 -0.271,0.205c-0.35,0.181 -0.785,0.136 -1.091,-0.112c-0.071,-0.058 -0.133,-0.125 -0.186,-0.199c-0.079,-0.112 -0.134,-0.24 -0.162,-0.374c-0.036,-0.172 -0.021,-0.354 -0.017,-0.528c0.009,-0.374 0.035,-0.749 0.076,-1.121c0.171,-1.527 0.615,-3.022 1.305,-4.395c0.743,-1.477 1.769,-2.809 3.009,-3.904c1.273,-1.124 2.765,-1.993 4.371,-2.546c0.853,-0.294 1.735,-0.499 2.63,-0.61c0.425,-0.053 0.852,-0.082 1.28,-0.095c0.131,-0.002 0.262,-0.006 0.393,-0.002Z" style="fill:#808080;fill-rule:nonzero;"/><path d="M16.059,6.002c0.2,0.018 0.387,0.081 0.548,0.203c0.078,0.06 0.148,0.132 0.205,0.212c0.058,0.08 0.104,0.169 0.135,0.263c0.109,0.322 0.044,0.686 -0.171,0.95c-0.087,0.108 -0.196,0.196 -0.319,0.26c-0.144,0.073 -0.297,0.105 -0.457,0.11l0.001,0c-0.1,0.001 -0.2,0.002 -0.301,0.006c-0.099,0.004 -0.197,0.009 -0.296,0.016c-0.815,0.066 -1.616,0.246 -2.376,0.55c-1.034,0.414 -1.978,1.044 -2.755,1.841c-0.731,0.75 -1.312,1.643 -1.701,2.615c-0.267,0.666 -0.443,1.368 -0.523,2.082c-0.021,0.196 -0.036,0.393 -0.043,0.59c-0.005,0.121 -0.004,0.242 -0.008,0.359l-0.005,0.059c-0.03,0.199 -0.104,0.382 -0.236,0.535c-0.222,0.257 -0.568,0.386 -0.905,0.336c-0.097,-0.015 -0.193,-0.044 -0.282,-0.086c-0.089,-0.043 -0.172,-0.098 -0.245,-0.165c-0.088,-0.08 -0.161,-0.176 -0.215,-0.281c-0.073,-0.144 -0.105,-0.297 -0.11,-0.457c0,-0.125 0.003,-0.249 0.007,-0.374c0.014,-0.329 0.041,-0.657 0.085,-0.983c0.105,-0.767 0.3,-1.522 0.578,-2.244c0.576,-1.492 1.512,-2.837 2.71,-3.895c0.948,-0.838 2.056,-1.492 3.247,-1.919c0.691,-0.247 1.41,-0.418 2.138,-0.509c0.327,-0.04 0.655,-0.063 0.985,-0.073c0.103,-0.002 0.206,-0.004 0.309,-0.001Z" style="fill:#808080;fill-rule:nonzero;"/><path d="M28.068,15.002c0.115,0.012 0.224,0.035 0.33,0.081c0.084,0.036 0.162,0.084 0.233,0.141c0.195,0.159 0.325,0.39 0.36,0.64c0.021,0.155 0.009,0.316 0.005,0.471c-0.006,0.222 -0.017,0.443 -0.034,0.664c-0.134,1.764 -0.632,3.495 -1.457,5.06c-0.876,1.659 -2.113,3.122 -3.602,4.264c-1.209,0.927 -2.582,1.64 -4.038,2.092c-0.825,0.257 -1.677,0.431 -2.537,0.518c-0.44,0.045 -0.88,0.064 -1.322,0.067l-0.068,-0.002c-0.161,-0.015 -0.313,-0.057 -0.452,-0.14c-0.098,-0.059 -0.185,-0.134 -0.258,-0.222c-0.25,-0.304 -0.298,-0.739 -0.119,-1.09c0.052,-0.102 0.121,-0.194 0.204,-0.272c0.116,-0.11 0.258,-0.191 0.411,-0.235c0.067,-0.019 0.133,-0.029 0.201,-0.036c0.167,-0.007 0.334,-0.006 0.501,-0.011c0.326,-0.015 0.652,-0.039 0.976,-0.08c0.723,-0.092 1.436,-0.256 2.126,-0.49c1.22,-0.412 2.364,-1.043 3.366,-1.85c1.065,-0.857 1.968,-1.913 2.649,-3.098c0.627,-1.09 1.064,-2.287 1.285,-3.526c0.073,-0.41 0.123,-0.825 0.15,-1.24c0.009,-0.141 0.015,-0.282 0.018,-0.424c0.002,-0.047 0.002,-0.094 0.003,-0.141c0.001,-0.048 0.001,-0.191 0.001,-0.143l0.002,-0.068c0.012,-0.115 0.035,-0.224 0.081,-0.33c0.109,-0.253 0.323,-0.452 0.582,-0.544c0.087,-0.031 0.175,-0.046 0.267,-0.056c0.068,-0.002 0.068,-0.002 0.136,0Z" style="fill:#808080;fill-rule:nonzero;"/><path d="M25.089,15.004c0.099,0.012 0.194,0.032 0.287,0.069c0.258,0.105 0.464,0.318 0.561,0.579c0.042,0.113 0.059,0.228 0.063,0.348c0,0.129 -0.003,0.257 -0.007,0.386c-0.017,0.38 -0.051,0.759 -0.108,1.136c-0.125,0.814 -0.35,1.612 -0.671,2.371c-0.595,1.406 -1.515,2.669 -2.669,3.668c-1.038,0.899 -2.26,1.581 -3.572,1.989c-0.961,0.299 -1.967,0.45 -2.973,0.45l-0.059,-0.002c-0.2,-0.018 -0.387,-0.081 -0.548,-0.203c-0.27,-0.206 -0.419,-0.545 -0.389,-0.884c0.009,-0.098 0.032,-0.195 0.069,-0.287c0.037,-0.091 0.088,-0.177 0.15,-0.254c0.088,-0.108 0.197,-0.196 0.32,-0.26c0.144,-0.073 0.297,-0.105 0.457,-0.11l-0.003,0c0.104,-0.001 0.209,-0.003 0.313,-0.006c0.102,-0.004 0.204,-0.01 0.307,-0.017c0.827,-0.069 1.638,-0.254 2.407,-0.568c1.072,-0.438 2.044,-1.112 2.833,-1.96c0.68,-0.73 1.222,-1.587 1.588,-2.516c0.255,-0.645 0.424,-1.324 0.503,-2.013c0.023,-0.203 0.038,-0.406 0.046,-0.61c0.004,-0.104 0.005,-0.209 0.006,-0.313c0,-0.001 0,0.004 0,0.003c0.001,-0.02 0.001,-0.039 0.002,-0.059l0.005,-0.059c0.018,-0.119 0.048,-0.232 0.103,-0.339c0.118,-0.229 0.325,-0.408 0.57,-0.49c0.094,-0.032 0.191,-0.047 0.29,-0.053c0.06,0 0.059,0 0.119,0.004Z" style="fill:#808080;fill-rule:nonzero;"/></g></g></svg>