<?xml version="1.0" encoding="UTF-8" standalone="no"?><!DOCTYPE svg PUBLIC "-//W3C//DTD SVG 1.1//EN" "http://www.w3.org/Graphics/SVG/1.1/DTD/svg11.dtd"><svg width="100%" height="100%" viewBox="0 0 32 32" version="1.1" xmlns="http://www.w3.org/2000/svg" xmlns:xlink="http://www.w3.org/1999/xlink" xml:space="preserve" xmlns:serif="http://www.serif.com/" style="fill-rule:evenodd;clip-rule:evenodd;stroke-linejoin:round;stroke-miterlimit:1.5;"><rect id="minidisc" x="0" y="0" width="32" height="32" style="fill:none;"/><clipPath id="_clip1"><rect x="0" y="0" width="32" height="32"/></clipPath><g clip-path="url(#_clip1)"><g id="outline"><path d="M32,5c0,-2.761 -2.239,-5 -5,-5c-6,0 -16,0 -22,0c-1.326,0 -2.598,0.527 -3.536,1.464c-0.937,0.938 -1.464,2.21 -1.464,3.536c0,6.731 0,18.495 0,24c0,0.796 0.316,1.559 0.879,2.121c0.562,0.563 1.325,0.879 2.121,0.879c6.102,0 19.898,0 26,0c0.796,0 1.559,-0.316 2.121,-0.879c0.563,-0.562 0.879,-1.325 0.879,-2.121c0,-5.505 0,-17.269 0,-24Z"/></g><g id="emoji"><path d="M30,5c0,-1.657 -1.343,-3 -3,-3c-5.382,0 -16.618,0 -22,0c-1.657,0 -3,1.343 -3,3c0,6.196 0,20.151 0,24c0,0.552 0.448,1 1,1c4.355,0 21.645,0 26,0c0.552,0 1,-0.448 1,-1c0,-2.345 0,-8 0,-8l-1,-1l0,-8l1,-1c0,0 0,-3.382 0,-6Z" style="fill:#e6e6e6;"/><circle cx="16" cy="16" r="13" style="fill:#8c8c8c;"/><path d="M14,4.5l2,-1l2,1l-4,0Z" style="fill:#5d5d5d;stroke:#5d5d5d;stroke-width:1px;"/><path d="M14.378,6.082c-0.143,-0.534 -0.692,-0.85 -1.225,-0.707c-0.533,0.143 -0.85,0.691 -0.707,1.225c0.948,3.539 4.228,15.778 5.176,19.318c0.143,0.534 0.692,0.85 1.225,0.707c0.533,-0.143 0.85,-0.691 0.707,-1.225c-0.948,-3.539 -4.228,-15.778 -5.176,-19.318Z" style="fill:#a6a6a6;"/><path d="M9.636,8.222c-0.39,-0.391 -1.024,-0.391 -1.414,0c-0.391,0.39 -0.391,1.024 0,1.414c2.591,2.591 11.551,11.551 14.142,14.142c0.39,0.391 1.024,0.391 1.414,0c0.391,-0.39 0.391,-1.024 0,-1.414c-2.591,-2.591 -11.551,-11.551 -14.142,-14.142Z" style="fill:#a6a6a6;"/><circle cx="16" cy="16" r="5" style="fill:#e6e6e6;"/><circle cx="16" cy="16" r="3" style="fill:#515151;"/><path d="M30,11c0,0 -6.586,0 -10,0c-1.105,0 -2,0.895 -2,2c0,1.743 0,4.257 0,6c0,1.105 0.895,2 2,2c3.414,0 10,0 10,0l0,-10Z" style="fill:#414141;"/><path d="M17,6c0,-0.552 -0.448,-1 -1,-1c-2.577,0 -9.423,0 -12,0c-0.552,0 -1,0.448 -1,1c0,3.904 0,18.096 0,22c0,0.552 0.448,1 1,1c2.577,0 9.423,0 12,0c0.552,0 1,-0.448 1,-1c0,-3.904 0,-18.096 0,-22Z" style="fill:#fff;fill-opacity:0.266667;"/></g></g></svg>