<?xml version="1.0" encoding="UTF-8" standalone="no"?>
<!DOCTYPE svg PUBLIC "-//W3C//DTD SVG 1.1//EN" "http://www.w3.org/Graphics/SVG/1.1/DTD/svg11.dtd">
<svg width="100%" height="100%" viewBox="0 0 32 32" version="1.1" xmlns="http://www.w3.org/2000/svg" xmlns:xlink="http://www.w3.org/1999/xlink" xml:space="preserve" xmlns:serif="http://www.serif.com/" style="fill-rule:evenodd;clip-rule:evenodd;stroke-linecap:square;stroke-miterlimit:3;">
    <rect id="phone_off" x="0" y="0" width="32" height="32" style="fill:none;"/>
    <clipPath id="_clip1">
        <rect x="0" y="0" width="32" height="32"/>
    </clipPath>
    <g clip-path="url(#_clip1)">
        <path d="M20,26.828l0,0.172c-0,2.761 -2.239,5 -5,5l-10,-0c-2.761,-0 -5,-2.239 -5,-5l0,-22c0,-2.761 2.239,-5 5,-5l10,0c2.761,0 5,2.239 5,5l-0,4.172c1.045,1.044 2.879,2.878 2.879,2.878l3.585,-3.586c0.782,-0.781 2.048,-0.781 2.829,0l2.121,2.122c0.383,0.382 0.586,0.894 0.586,1.414l-0,2c0,0.53 -0.211,1.039 -0.586,1.414c0,0 -2.586,2.586 -2.586,2.586l2.586,2.586c0.383,0.382 0.586,0.894 0.586,1.414l-0,2c0,0.53 -0.211,1.039 -0.586,1.414l-2.121,2.122c-0.781,0.781 -2.047,0.781 -2.829,-0c0,-0 -3.585,-3.586 -3.585,-3.586l-2.879,2.878Z"/>
        <g>
            <path d="M18,5c-0,-1.657 -1.343,-3 -3,-3c-2.859,0 -7.141,0 -10,0c-1.657,0 -3,1.343 -3,3c0,5.382 0,16.618 0,22c0,1.657 1.343,3 3,3c2.859,0 7.141,0 10,0c1.657,-0 3,-1.343 3,-3c0,-5.382 0,-16.618 0,-22Z" style="fill:#e6e6e6;"/>
            <path d="M17,27c-0,1.105 -0.895,2 -2,2c-2.661,0 -7.339,0 -10,0c-1.105,-0 -2,-0.895 -2,-2l0,-22c0,-1.105 0.895,-2 2,-2l10,-0c1.105,0 2,0.895 2,2c-0,4.843 -0,17.157 -0,22Z" style="fill:#3c3c3c;"/>
            <path d="M12,5c-0,-0.552 -0.448,-1 -1,-1c-0.611,0 -1.389,0 -2,0c-0.552,0 -1,0.448 -1,1c0,0.552 0.448,1 1,1c0.611,0 1.389,0 2,0c0.552,-0 1,-0.448 1,-1Z"/>
            <path d="M14,26.75c-0,-0.414 -0.336,-0.75 -0.75,-0.75c-1.526,0 -4.974,0 -6.5,0c-0.414,0 -0.75,0.336 -0.75,0.75c0,0.414 0.336,0.75 0.75,0.75c1.526,0 4.974,0 6.5,0c0.414,-0 0.75,-0.336 0.75,-0.75Z" style="fill:#fff;"/>
        </g>
        <path d="M15.757,22l5.5,-2.5l-5.5,-5.5l0,-2l2.122,-0.121l7.121,5.121l-0,2l-7.121,7.121l-2.122,-2.121l0,-2Z" style="fill:#9a1e24;fill-rule:nonzero;"/>
        <path d="M30,22l-5.5,-2.5l5.5,-5.5l-0,-2l-2.121,-0.121l-7.122,5.121l0,2l7.122,7.121l2.121,-2.121l-0,-2Z" style="fill:#9a1e24;fill-rule:nonzero;"/>
        <path d="M17.879,12l5,5l-5,5" style="fill:none;stroke:#e02a33;stroke-width:3px;"/>
        <path d="M27.879,12l-5,5l5,5" style="fill:none;stroke:#e02a33;stroke-width:3px;"/>
    </g>
</svg>
