<?xml version="1.0" encoding="UTF-8" standalone="no"?>
<!DOCTYPE svg PUBLIC "-//W3C//DTD SVG 1.1//EN" "http://www.w3.org/Graphics/SVG/1.1/DTD/svg11.dtd">
<svg width="100%" height="100%" viewBox="0 0 32 32" version="1.1" xmlns="http://www.w3.org/2000/svg" xmlns:xlink="http://www.w3.org/1999/xlink" xml:space="preserve" xmlns:serif="http://www.serif.com/" style="fill-rule:evenodd;clip-rule:evenodd;stroke-linejoin:round;stroke-miterlimit:1.41421;">
    <rect id="phone_with_arrow" x="0" y="0" width="32" height="32" style="fill:none;"/>
    <clipPath id="_clip1">
        <rect x="0" y="0" width="32" height="32"/>
    </clipPath>
    <g clip-path="url(#_clip1)">
        <path d="M11.379,20l-9.379,0l0,-5l9.379,0l-1.5,-1.5l-0,-2l2.121,-2.121l7.121,7.121l0,2l-7.121,7.121l-2.121,-2.121l-0,-2l1.5,-1.5Z" style="fill:#747474;fill-rule:nonzero;stroke:#000;stroke-width:4px;"/>
        <g>
            <path d="M30,5c-0,-1.657 -1.343,-3 -3,-3c-2.859,0 -7.141,0 -10,0c-1.657,0 -3,1.343 -3,3c0,5.382 0,16.618 0,22c0,1.657 1.343,3 3,3c2.859,0 7.141,0 10,0c1.657,-0 3,-1.343 3,-3c0,-5.382 0,-16.618 0,-22Z" style="fill:none;stroke:#000;stroke-width:4px;stroke-linecap:round;stroke-miterlimit:2;"/>
            <path d="M30,5c-0,-1.657 -1.343,-3 -3,-3c-2.859,0 -7.141,0 -10,0c-1.657,0 -3,1.343 -3,3c0,5.382 0,16.618 0,22c0,1.657 1.343,3 3,3c2.859,0 7.141,0 10,0c1.657,-0 3,-1.343 3,-3c0,-5.382 0,-16.618 0,-22Z" style="fill:#e6e6e6;"/>
            <g>
                <path d="M15,21.802c1.958,-1.594 2.162,-3.102 6.663,-3.585c4.788,-0.513 5.877,1.545 7.337,1.549l-0,7.234c-0,1.105 -0.895,2 -2,2l-10,0c-1.105,-0 -2,-0.895 -2,-2l0,-5.198Z" style="fill:#89f;"/>
                <path d="M29,12.188l-0,7.578c-1.226,0.534 -2.692,1.044 -4.444,1.487c-3.642,0.921 -7.062,0.848 -9.556,0.549l0,-6.663c2.017,-1.38 4.094,-3.282 7.503,-4.213c2.293,-0.627 4.835,2.341 6.497,1.262Z" style="fill:#5a72f9;"/>
                <path d="M15,15.139l0,-10.139c0,-1.105 0.895,-2 2,-2l10,-0c1.105,0 2,0.895 2,2l-0,7.188c-1.662,1.079 -3.632,2.039 -5.926,2.666c-3.408,0.932 -6.164,0.727 -8.074,0.285Z" style="fill:#4c48ff;"/>
            </g>
            <path d="M24,5c-0,-0.552 -0.448,-1 -1,-1c-0.611,0 -1.389,0 -2,0c-0.552,0 -1,0.448 -1,1c0,0.552 0.448,1 1,1c0.611,0 1.389,0 2,0c0.552,-0 1,-0.448 1,-1Z"/>
            <path d="M26,26.75c-0,-0.414 -0.336,-0.75 -0.75,-0.75c-1.526,0 -4.974,0 -6.5,0c-0.414,0 -0.75,0.336 -0.75,0.75c0,0.414 0.336,0.75 0.75,0.75c1.526,0 4.974,0 6.5,0c0.414,-0 0.75,-0.336 0.75,-0.75Z" style="fill:#fff;"/>
        </g>
        <path d="M13.379,20l-11.379,-0l0,-2l11.379,-1l-3.5,-3.5l-0,-2l2.121,-0.121l7.121,5.121l0,2l-7.121,7.121l-2.121,-2.121l-0,-2l3.5,-1.5Z" style="fill:#8c1c61;fill-rule:nonzero;"/>
        <path d="M13.379,18l-11.379,-0l0,-3l11.379,-0l-3.5,-3.5l2.121,-2.121l7.121,7.121l-7.121,7.121l-2.121,-2.121l1.06,-1.061l2.44,-2.439Z" style="fill:#f229a2;"/>
    </g>
</svg>
