<?xml version="1.0" encoding="UTF-8" standalone="no"?><!DOCTYPE svg PUBLIC "-//W3C//DTD SVG 1.1//EN" "http://www.w3.org/Graphics/SVG/1.1/DTD/svg11.dtd"><svg width="100%" height="100%" viewBox="0 0 32 32" version="1.1" xmlns="http://www.w3.org/2000/svg" xmlns:xlink="http://www.w3.org/1999/xlink" xml:space="preserve" xmlns:serif="http://www.serif.com/" style="fill-rule:evenodd;clip-rule:evenodd;stroke-linejoin:round;stroke-miterlimit:1.41421;"><rect id="phone_with_arrow" x="0" y="0" width="32" height="32" style="fill:none;"/><clipPath id="_clip1"><rect x="0" y="0" width="32" height="32"/></clipPath><g clip-path="url(#_clip1)"><g id="outline"><path d="M32,4c0,-1.061 -0.421,-2.078 -1.172,-2.828c-0.75,-0.751 -1.767,-1.172 -2.828,-1.172c-3.486,0 -8.514,0 -12,0c-1.061,0 -2.078,0.421 -2.828,1.172c-0.751,0.75 -1.172,1.767 -1.172,2.828c0,6.148 0,17.852 0,24c0,1.061 0.421,2.078 1.172,2.828c0.75,0.751 1.767,1.172 2.828,1.172c3.486,0 8.514,0 12,0c1.061,0 2.078,-0.421 2.828,-1.172c0.751,-0.75 1.172,-1.767 1.172,-2.828c0,-6.148 0,-17.852 0,-24Z"/><path d="M11.379,20l-9.379,0l0,-5l9.379,0l-1.5,-1.5l0,-2l2.121,-2.121l7.121,7.121l0,2l-7.121,7.121l-2.121,-2.121l0,-2l1.5,-1.5Z" style="fill:#747474;fill-rule:nonzero;stroke:#000;stroke-width:4px;"/></g><g id="emoji"><path d="M30,4c0,-1.105 -0.895,-2 -2,-2c-3.074,0 -8.926,0 -12,0c-1.105,0 -2,0.895 -2,2c0,5.154 0,18.846 0,24c0,1.105 0.895,2 2,2c3.074,0 8.926,0 12,0c1.105,0 2,-0.895 2,-2c0,-5.154 0,-18.846 0,-24Z" style="fill:#fff;"/><clipPath id="_clip2"><path d="M30,4c0,-1.105 -0.895,-2 -2,-2c-3.074,0 -8.926,0 -12,0c-1.105,0 -2,0.895 -2,2c0,5.154 0,18.846 0,24c0,1.105 0.895,2 2,2c3.074,0 8.926,0 12,0c1.105,0 2,-0.895 2,-2c0,-5.154 0,-18.846 0,-24Z"/></clipPath><g clip-path="url(#_clip2)"><path d="M29,4c0,-0.552 -0.448,-1 -1,-1c-2.577,0 -9.423,0 -12,0c-0.552,0 -1,0.448 -1,1c0,4.134 0,19.866 0,24c0,0.552 0.448,1 1,1c2.577,0 9.423,0 12,0c0.552,0 1,-0.448 1,-1c0,-4.134 0,-19.866 0,-24Z" style="fill:#4961ea;"/><clipPath id="_clip3"><path d="M29,4c0,-0.552 -0.448,-1 -1,-1c-2.577,0 -9.423,0 -12,0c-0.552,0 -1,0.448 -1,1c0,4.134 0,19.866 0,24c0,0.552 0.448,1 1,1c2.577,0 9.423,0 12,0c0.552,0 1,-0.448 1,-1c0,-4.134 0,-19.866 0,-24Z"/></clipPath><g clip-path="url(#_clip3)"><g><path d="M21,9c0,-0.265 -0.105,-0.52 -0.293,-0.707c-0.187,-0.188 -0.442,-0.293 -0.707,-0.293c-0.871,0 -2.129,0 -3,0c-0.265,0 -0.52,0.105 -0.707,0.293c-0.188,0.187 -0.293,0.442 -0.293,0.707c0,0.871 0,2.129 0,3c0,0.265 0.105,0.52 0.293,0.707c0.187,0.188 0.442,0.293 0.707,0.293c0.871,0 2.129,0 3,0c0.265,0 0.52,-0.105 0.707,-0.293c0.188,-0.187 0.293,-0.442 0.293,-0.707c0,-0.871 0,-2.129 0,-3Z" style="fill:#263cbd;"/><path d="M21,16c0,-0.265 -0.105,-0.52 -0.293,-0.707c-0.187,-0.188 -0.442,-0.293 -0.707,-0.293c-0.871,0 -2.129,0 -3,0c-0.265,0 -0.52,0.105 -0.707,0.293c-0.188,0.187 -0.293,0.442 -0.293,0.707c0,0.871 0,2.129 0,3c0,0.265 0.105,0.52 0.293,0.707c0.187,0.188 0.442,0.293 0.707,0.293c0.871,0 2.129,0 3,0c0.265,0 0.52,-0.105 0.707,-0.293c0.188,-0.187 0.293,-0.442 0.293,-0.707c0,-0.871 0,-2.129 0,-3Z" style="fill:#263cbd;"/><path d="M21,23c0,-0.265 -0.105,-0.52 -0.293,-0.707c-0.187,-0.188 -0.442,-0.293 -0.707,-0.293c-0.871,0 -2.129,0 -3,0c-0.265,0 -0.52,0.105 -0.707,0.293c-0.188,0.187 -0.293,0.442 -0.293,0.707c0,0.871 0,2.129 0,3c0,0.265 0.105,0.52 0.293,0.707c0.187,0.188 0.442,0.293 0.707,0.293c0.871,0 2.129,0 3,0c0.265,0 0.52,-0.105 0.707,-0.293c0.188,-0.187 0.293,-0.442 0.293,-0.707c0,-0.871 0,-2.129 0,-3Z" style="fill:#263cbd;"/><path d="M28,9c0,-0.265 -0.105,-0.52 -0.293,-0.707c-0.187,-0.188 -0.442,-0.293 -0.707,-0.293c-0.871,0 -2.129,0 -3,0c-0.265,0 -0.52,0.105 -0.707,0.293c-0.188,0.187 -0.293,0.442 -0.293,0.707c0,0.871 0,2.129 0,3c0,0.265 0.105,0.52 0.293,0.707c0.187,0.188 0.442,0.293 0.707,0.293c0.871,0 2.129,0 3,0c0.265,0 0.52,-0.105 0.707,-0.293c0.188,-0.187 0.293,-0.442 0.293,-0.707c0,-0.871 0,-2.129 0,-3Z" style="fill:#263cbd;"/><path d="M28,16c0,-0.265 -0.105,-0.52 -0.293,-0.707c-0.187,-0.188 -0.442,-0.293 -0.707,-0.293c-0.871,0 -2.129,0 -3,0c-0.265,0 -0.52,0.105 -0.707,0.293c-0.188,0.187 -0.293,0.442 -0.293,0.707c0,0.871 0,2.129 0,3c0,0.265 0.105,0.52 0.293,0.707c0.187,0.188 0.442,0.293 0.707,0.293c0.871,0 2.129,0 3,0c0.265,0 0.52,-0.105 0.707,-0.293c0.188,-0.187 0.293,-0.442 0.293,-0.707c0,-0.871 0,-2.129 0,-3Z" style="fill:#263cbd;"/><path d="M28,23c0,-0.265 -0.105,-0.52 -0.293,-0.707c-0.187,-0.188 -0.442,-0.293 -0.707,-0.293c-0.871,0 -2.129,0 -3,0c-0.265,0 -0.52,0.105 -0.707,0.293c-0.188,0.187 -0.293,0.442 -0.293,0.707c0,0.871 0,2.129 0,3c0,0.265 0.105,0.52 0.293,0.707c0.187,0.188 0.442,0.293 0.707,0.293c0.871,0 2.129,0 3,0c0.265,0 0.52,-0.105 0.707,-0.293c0.188,-0.187 0.293,-0.442 0.293,-0.707c0,-0.871 0,-2.129 0,-3Z" style="fill:#263cbd;"/></g></g></g><path d="M13.379,20l-11.379,0l0,-2l11.379,-1l-3.5,-3.5l0,-2l2.121,-0.121l7.121,5.121l0,2l-7.121,7.121l-2.121,-2.121l0,-2l3.5,-1.5Z" style="fill:#8c1c61;fill-rule:nonzero;"/><path d="M17,3c0,0 0.25,0 0.5,0c0.133,0 0.26,0.053 0.354,0.146c0.093,0.094 0.146,0.221 0.146,0.354c0,0.153 0,0.326 0,0.5c0,0.552 0.448,1 1,1c1.537,0 4.463,0 6,0c0.552,0 1,-0.448 1,-1c0,-0.174 0,-0.347 0,-0.5c0,-0.133 0.053,-0.26 0.146,-0.354c0.094,-0.093 0.221,-0.146 0.354,-0.146c0.25,0 0.5,0 0.5,0l0,-1l-10,0l0,1Z" style="fill:#fff;"/><path d="M13.379,15l-3.5,-3.5l2.121,-2.121l7.121,7.121l-7.121,7.121l-2.121,-2.121l3.5,-3.5l-11.379,0l0,-3l11.379,0Z" style="fill:#f229a2;fill-rule:nonzero;"/></g></g></svg>