<?xml version="1.0" encoding="UTF-8" standalone="no"?>
<!DOCTYPE svg PUBLIC "-//W3C//DTD SVG 1.1//EN" "http://www.w3.org/Graphics/SVG/1.1/DTD/svg11.dtd">
<svg width="100%" height="100%" viewBox="0 0 32 32" version="1.1" xmlns="http://www.w3.org/2000/svg" xmlns:xlink="http://www.w3.org/1999/xlink" xml:space="preserve" xmlns:serif="http://www.serif.com/" style="fill-rule:evenodd;clip-rule:evenodd;stroke-linejoin:round;stroke-miterlimit:1.5;">
    <rect id="phone_receiver" x="0" y="0" width="32" height="32" style="fill:none;"/>
    <g id="outline">
        <path d="M28.612,4.612c0.92,0.92 1.336,2.229 1.114,3.51c-0.574,3.203 -2.274,9.426 -7.226,14.378c-4.952,4.952 -11.175,6.652 -14.379,7.222c-1.28,0.221 -2.588,-0.193 -3.506,-1.112c-0.39,-0.385 -0.812,-0.807 -1.201,-1.196c-0.375,-0.375 -0.586,-0.884 -0.586,-1.414c0,-0.53 0.211,-1.039 0.586,-1.414c1.215,-1.215 2.957,-2.957 4.172,-4.172c0.781,-0.781 2.047,-0.781 2.828,0c0.778,0.778 1.586,1.586 1.586,1.586c0,0 3.096,0.904 7,-3c3.904,-3.904 3,-7 3,-7c0,0 -0.808,-0.808 -1.586,-1.586c-0.781,-0.781 -0.781,-2.047 0,-2.828c1.215,-1.215 2.957,-2.957 4.172,-4.172c0.375,-0.375 0.884,-0.586 1.414,-0.586c0.53,0 1.039,0.211 1.414,0.586c0.389,0.389 0.811,0.811 1.198,1.198Z" style="fill:#4c4c4c;stroke:#000;stroke-width:4px;"/>
    </g>
    <g id="emoji">
        <path d="M28.612,4.612c0.92,0.92 1.336,2.229 1.114,3.51c-0.574,3.203 -2.274,9.426 -7.226,14.378c-4.952,4.952 -11.175,6.652 -14.379,7.222c-1.28,0.221 -2.588,-0.193 -3.506,-1.112c-0.345,-0.34 -0.615,-0.61 -0.615,-0.61l7,-7c0,0 0.509,0.509 0.8,0.8c0.13,0.13 0.293,0.222 0.471,0.266c0.841,0.103 3.51,0.153 6.729,-3.066c3.219,-3.219 3.169,-5.888 3.053,-6.726c-0.043,-0.176 -0.133,-0.337 -0.261,-0.465c-0.283,-0.3 -0.792,-0.809 -0.792,-0.809l7,-7c0,0 0.27,0.27 0.612,0.612Z" style="fill:#404040;"/>
        <path d="M28.586,4.586c0.375,0.375 0.586,0.884 0.586,1.414c0,0.53 -0.211,1.039 -0.586,1.414c-1.215,1.215 -2.957,2.957 -4.172,4.172c-0.375,0.375 -0.884,0.586 -1.414,0.586c-0.53,0 -1.039,-0.211 -1.414,-0.586c-0.38,-0.38 -0.792,-0.792 -1.172,-1.172c-0.375,-0.375 -0.586,-0.884 -0.586,-1.414c0,-0.53 0.211,-1.039 0.586,-1.414c1.215,-1.215 2.957,-2.957 4.172,-4.172c0.375,-0.375 0.884,-0.586 1.414,-0.586c0.53,0 1.039,0.211 1.414,0.586c0.38,0.38 0.792,0.792 1.172,1.172Z" style="fill:#666;"/>
        <path d="M11.586,21.586c0.375,0.375 0.586,0.884 0.586,1.414c0,0.53 -0.211,1.039 -0.586,1.414c-1.215,1.215 -2.957,2.957 -4.172,4.172c-0.375,0.375 -0.884,0.586 -1.414,0.586c-0.53,0 -1.039,-0.211 -1.414,-0.586c-0.38,-0.38 -0.792,-0.792 -1.172,-1.172c-0.375,-0.375 -0.586,-0.884 -0.586,-1.414c0,-0.53 0.211,-1.039 0.586,-1.414c1.215,-1.215 2.957,-2.957 4.172,-4.172c0.375,-0.375 0.884,-0.586 1.414,-0.586c0.53,0 1.039,0.211 1.414,0.586c0.38,0.38 0.792,0.792 1.172,1.172Z" style="fill:#666;"/>
    </g>
</svg>
