<?xml version="1.0" encoding="UTF-8" standalone="no"?>
<!DOCTYPE svg PUBLIC "-//W3C//DTD SVG 1.1//EN" "http://www.w3.org/Graphics/SVG/1.1/DTD/svg11.dtd">
<svg width="100%" height="100%" viewBox="0 0 32 32" version="1.1" xmlns="http://www.w3.org/2000/svg" xmlns:xlink="http://www.w3.org/1999/xlink" xml:space="preserve" xmlns:serif="http://www.serif.com/" style="fill-rule:evenodd;clip-rule:evenodd;stroke-linecap:round;stroke-linejoin:round;stroke-miterlimit:1.5;">
    <rect id="projector" x="0" y="0" width="32" height="32" style="fill:none;"/>
    <clipPath id="_clip1">
        <rect x="0" y="0" width="32" height="32"/>
    </clipPath>
    <g clip-path="url(#_clip1)">
        <g id="outline">
            <path d="M30,10.5c0,0 -3.01,-0.753 -6.239,-1.56c-5.096,-1.274 -10.426,-1.274 -15.522,0c-3.229,0.807 -6.239,1.56 -6.239,1.56l0,11c0,0 3.01,0.753 6.239,1.56c5.096,1.274 10.426,1.274 15.522,0c3.229,-0.807 6.239,-1.56 6.239,-1.56l0,-11Z" style="fill:none;stroke:#000;stroke-width:4px;"/>
            <rect x="5" y="19" width="22" height="6" style="fill:none;stroke:#000;stroke-width:4px;stroke-linejoin:miter;"/>
        </g>
        <g id="emoji">
            <rect x="5" y="19" width="22" height="6" style="fill:#333;"/>
            <path d="M30,10.5c0,0 -3.01,-0.753 -6.239,-1.56c-5.096,-1.274 -10.426,-1.274 -15.522,0c-3.229,0.807 -6.239,1.56 -6.239,1.56l0,2.5l1,1l-1,1l0,2l1,1l-1,1l0,2.5c0,0 3.01,0.753 6.239,1.56c5.096,1.274 10.426,1.274 15.522,0c3.229,-0.807 6.239,-1.56 6.239,-1.56l0,-2.5l-1,-1l1,-1l0,-2l-1,-1l1,-1l0,-2.5Z" style="fill:#4c4c4c;"/>
            <circle cx="16" cy="16" r="7" style="fill:#262626;"/>
            <circle cx="16" cy="16" r="5" style="fill:#3232be;"/>
            <circle cx="16" cy="16" r="3" style="fill:#4144ff;"/>
            <ellipse cx="16" cy="14" rx="2.235" ry="2" style="fill:#b8b9ff;fill-opacity:0.34;"/>
            <rect x="26" y="13" width="4" height="2" style="fill:#333;"/>
            <rect x="26" y="17" width="4" height="2" style="fill:#333;"/>
            <rect x="2" y="13" width="4" height="2" style="fill:#333;"/>
            <rect x="2" y="17" width="4" height="2" style="fill:#333;"/>
        </g>
    </g>
</svg>
