<?xml version="1.0" encoding="UTF-8" standalone="no"?><!DOCTYPE svg PUBLIC "-//W3C//DTD SVG 1.1//EN" "http://www.w3.org/Graphics/SVG/1.1/DTD/svg11.dtd"><svg width="100%" height="100%" viewBox="0 0 32 32" version="1.1" xmlns="http://www.w3.org/2000/svg" xmlns:xlink="http://www.w3.org/1999/xlink" xml:space="preserve" xmlns:serif="http://www.serif.com/" style="fill-rule:evenodd;clip-rule:evenodd;stroke-linejoin:round;stroke-miterlimit:1.41421;"><rect id="speaker" x="0" y="0" width="32" height="32" style="fill:none;"/><clipPath id="_clip1"><rect x="0" y="0" width="32" height="32"/></clipPath><g clip-path="url(#_clip1)"><g id="outline"><path d="M26,3c0,-1.657 -1.343,-3 -3,-3c-3.776,0 -10.224,0 -14,0c-1.657,0 -3,1.343 -3,3c0,6.102 0,19.898 0,26c0,1.657 1.343,3 3,3c3.776,0 10.224,0 14,0c1.657,0 3,-1.343 3,-3c0,-6.102 0,-19.898 0,-26Z"/></g><g id="emoji"><path d="M24,3c0,-0.552 -0.448,-1 -1,-1c-2.873,0 -11.127,0 -14,0c-0.552,0 -1,0.448 -1,1c0,4.355 0,21.645 0,26c0,0.552 0.448,1 1,1c2.873,0 11.127,0 14,0c0.552,0 1,-0.448 1,-1c0,-4.355 0,-21.645 0,-26Z" style="fill:#4d4d4d;"/><circle cx="16" cy="10" r="7" style="fill:#b3b3b3;"/><circle cx="16" cy="10" r="6" style="fill:#666;"/><circle cx="16" cy="10" r="2" style="fill:#1a1a1a;"/><circle cx="16" cy="23.5" r="4.5" style="fill:#b3b3b3;"/><circle cx="16" cy="23.5" r="3.5" style="fill:#666;"/><circle cx="16" cy="23.5" r="1.5" style="fill:#1a1a1a;"/></g></g></svg>