<?xml version="1.0" encoding="UTF-8" standalone="no"?><!DOCTYPE svg PUBLIC "-//W3C//DTD SVG 1.1//EN" "http://www.w3.org/Graphics/SVG/1.1/DTD/svg11.dtd"><svg width="100%" height="100%" viewBox="0 0 32 32" version="1.1" xmlns="http://www.w3.org/2000/svg" xmlns:xlink="http://www.w3.org/1999/xlink" xml:space="preserve" xmlns:serif="http://www.serif.com/" style="fill-rule:evenodd;clip-rule:evenodd;stroke-linecap:round;stroke-linejoin:round;stroke-miterlimit:1.5;"><rect id="stylus" x="0" y="0" width="32" height="32" style="fill:none;"/><g id="outline"><path d="M8,4c-0.531,-0.531 -1.25,-0.829 -2,-0.829c-0.75,0 -1.469,0.298 -2,0.829c0,0 0,0 0,0c-0.531,0.531 -0.829,1.25 -0.829,2c0,0.75 0.298,1.469 0.829,2c5.065,5.065 18,18 18,18l4,-4c0,0 -12.935,-12.935 -18,-18Z" style="fill:none;stroke:#000;stroke-width:4px;"/><path d="M22,26c0,0 3.331,1.851 5.94,3.3c0.391,0.217 0.877,0.149 1.193,-0.167c0.316,-0.316 0.384,-0.802 0.167,-1.193c-1.449,-2.609 -3.3,-5.94 -3.3,-5.94l-4,4Z" style="fill:none;stroke:#000;stroke-width:4px;"/></g><g id="emoji"><path d="M9,5l-1,0l-3,3l0,1l17,17l1,0l3,-3l0,-1l-17,-17Z" style="fill:#fff;"/><path d="M22,26c0,0 3.331,1.851 5.94,3.3c0.391,0.217 0.877,0.149 1.193,-0.167c0.316,-0.316 0.384,-0.802 0.167,-1.193c-1.449,-2.609 -3.3,-5.94 -3.3,-5.94l-4,4Z" style="fill:#989898;"/><path d="M9,5l-4,4c0,0 -0.449,-0.449 -1,-1c-0.531,-0.531 -0.829,-1.25 -0.829,-2c0,-0.75 0.298,-1.469 0.829,-2c0,0 0,0 0,0c0.531,-0.531 1.25,-0.829 2,-0.829c0.75,0 1.469,0.298 2,0.829c0.551,0.551 1,1 1,1Z" style="fill:#ccc;"/><path d="M19,19c0.552,-0.552 1.448,-0.552 2,0c0.611,0.611 1.389,1.389 2,2c0.552,0.552 0.552,1.448 0,2c0,0 0,0 0,0c-0.552,0.552 -1.448,0.552 -2,0c-0.611,-0.611 -1.389,-1.389 -2,-2c-0.552,-0.552 -0.552,-1.448 0,-2c0,0 0,0 0,0Z" style="fill:#989898;"/></g></svg>