<?xml version="1.0" encoding="UTF-8" standalone="no"?>
<!DOCTYPE svg PUBLIC "-//W3C//DTD SVG 1.1//EN" "http://www.w3.org/Graphics/SVG/1.1/DTD/svg11.dtd">
<svg width="100%" height="100%" viewBox="0 0 32 32" version="1.1" xmlns="http://www.w3.org/2000/svg" xmlns:xlink="http://www.w3.org/1999/xlink" xml:space="preserve" xmlns:serif="http://www.serif.com/" style="fill-rule:evenodd;clip-rule:evenodd;stroke-linecap:square;stroke-linejoin:round;stroke-miterlimit:1.5;">
    <rect id="trackball" x="0" y="0" width="32" height="32" style="fill:none;"/>
    <clipPath id="_clip1">
        <rect x="0" y="0" width="32" height="32"/>
    </clipPath>
    <g clip-path="url(#_clip1)">
        <g id="outline">
            <path d="M5,6c0,-1.061 0.421,-2.078 1.172,-2.828c0.75,-0.751 1.767,-1.172 2.828,-1.172c3.972,0 10.028,0 14,0c1.061,0 2.078,0.421 2.828,1.172c0.751,0.75 1.172,1.767 1.172,2.828c0,4.424 0,11.635 0,17c0,3.866 -3.134,7 -7,7l-8,0c-3.866,0 -7,-3.134 -7,-7l0,-17Z" style="fill:none;stroke:#000;stroke-width:4px;"/>
        </g>
        <g id="emoji">
            <path d="M5,6c0,-1.061 0.421,-2.078 1.172,-2.828c0.75,-0.751 1.767,-1.172 2.828,-1.172c3.972,0 10.028,0 14,0c1.061,0 2.078,0.421 2.828,1.172c0.751,0.75 1.172,1.767 1.172,2.828c0,4.424 0,11.635 0,17c0,3.866 -3.134,7 -7,7l-8,0c-3.866,0 -7,-3.134 -7,-7l0,-17Z" style="fill:#ccc;"/>
            <g>
                <path d="M15,12c0,-0.265 -0.105,-0.52 -0.293,-0.707c-0.187,-0.188 -0.442,-0.293 -0.707,-0.293c-1.732,0 -5.268,0 -7,0c-0.265,0 -0.52,0.105 -0.707,0.293c-0.188,0.187 -0.293,0.442 -0.293,0.707c0,0.768 0,1.884 0,3c0,1.061 0.421,2.078 1.172,2.828c0.75,0.751 1.767,1.172 2.828,1.172l4,0c0.265,0 0.52,-0.105 0.707,-0.293c0.188,-0.187 0.293,-0.442 0.293,-0.707c0,-1.537 0,-4.463 0,-6Z" style="fill:#f2f2f2;"/>
                <path d="M17,12c0,-0.265 0.105,-0.52 0.293,-0.707c0.187,-0.188 0.442,-0.293 0.707,-0.293c1.732,0 5.268,0 7,0c0.265,0 0.52,0.105 0.707,0.293c0.188,0.187 0.293,0.442 0.293,0.707c0,0.768 0,1.884 0,3c0,1.061 -0.421,2.078 -1.172,2.828c-0.75,0.751 -1.767,1.172 -2.828,1.172l-4,0c-0.265,0 -0.52,-0.105 -0.707,-0.293c-0.188,-0.187 -0.293,-0.442 -0.293,-0.707c0,-1.537 0,-4.463 0,-6Z" style="fill:#f2f2f2;"/>
                <path d="M14,9c0.265,0 0.52,-0.105 0.707,-0.293c0.188,-0.187 0.293,-0.442 0.293,-0.707c0,-1.11 0,-2.89 0,-4c0,-0.265 -0.105,-0.52 -0.293,-0.707c-0.187,-0.188 -0.442,-0.293 -0.707,-0.293c-0.976,0 -2.524,0 -4,0c-1.061,0 -2.078,0.421 -2.828,1.172c-0.751,0.75 -1.172,1.767 -1.172,2.828c0,0.364 0,0.706 0,1c0,0.265 0.105,0.52 0.293,0.707c0.187,0.188 0.442,0.293 0.707,0.293c1.732,0 5.268,0 7,0Z" style="fill:#f2f2f2;"/>
                <path d="M18,9c-0.265,0 -0.52,-0.105 -0.707,-0.293c-0.188,-0.187 -0.293,-0.442 -0.293,-0.707c0,-1.11 0,-2.89 0,-4c0,-0.265 0.105,-0.52 0.293,-0.707c0.187,-0.188 0.442,-0.293 0.707,-0.293c0.976,0 2.524,0 4,0c1.061,0 2.078,0.421 2.828,1.172c0.751,0.75 1.172,1.767 1.172,2.828c0,0.364 0,0.706 0,1c0,0.265 -0.105,0.52 -0.293,0.707c-0.187,0.188 -0.442,0.293 -0.707,0.293c-1.732,0 -5.268,0 -7,0Z" style="fill:#f2f2f2;"/>
            </g>
            <circle cx="16" cy="10" r="7" style="fill:#999;"/>
            <circle cx="16" cy="10" r="6" style="fill:#e02a33;"/>
            <ellipse cx="16" cy="7" rx="2.5" ry="2" style="fill:#f6676e;"/>
        </g>
    </g>
</svg>
