<?xml version="1.0" encoding="UTF-8" standalone="no"?>
<!DOCTYPE svg PUBLIC "-//W3C//DTD SVG 1.1//EN" "http://www.w3.org/Graphics/SVG/1.1/DTD/svg11.dtd">
<svg width="100%" height="100%" viewBox="0 0 32 32" version="1.1" xmlns="http://www.w3.org/2000/svg" xmlns:xlink="http://www.w3.org/1999/xlink" xml:space="preserve" xmlns:serif="http://www.serif.com/" style="fill-rule:evenodd;clip-rule:evenodd;stroke-linejoin:round;stroke-miterlimit:2;">
    <rect id="tv" x="-0" y="0" width="32" height="32" style="fill:none;"/>
    <clipPath id="_clip1">
        <rect x="-0" y="0" width="32" height="32"/>
    </clipPath>
    <g clip-path="url(#_clip1)">
        <g id="outline">
            <path d="M32,28c0,0.53 -0.211,1.039 -0.586,1.414c-0.375,0.375 -0.884,0.586 -1.414,0.586l-3,0c-0.53,-0 -1.039,-0.211 -1.414,-0.586c-0.375,-0.375 -0.586,-0.884 -0.586,-1.414l0,-1l-18,-0l-0,1c0,0.53 -0.211,1.039 -0.586,1.414c-0.375,0.375 -0.884,0.586 -1.414,0.586l-3,0c-0.53,-0 -1.039,-0.211 -1.414,-0.586c-0.375,-0.375 -0.586,-0.884 -0.586,-1.414l-0,-22c0,-0.796 0.316,-1.559 0.879,-2.121c0.562,-0.563 1.325,-0.879 2.121,-0.879l26,0c0.796,-0 1.559,0.316 2.121,0.879c0.563,0.562 0.879,1.325 0.879,2.121l-0,22Z"/>
        </g>
        <g id="emoji">
            <path d="M5,28l-3,-0l-0,-3l3,-1l-0,4Z" style="fill:#666;"/>
            <path d="M30,28l-3,-0l-0,-4l3,1l-0,3Z" style="fill:#666;"/>
            <path d="M30,6c0,-0.552 -0.448,-1 -1,-1c-4.355,-0 -21.645,-0 -26,-0c-0.552,0 -1,0.448 -1,1c0,4.048 -0,19 -0,19l28,-0l0,-19Z" style="fill:#333;"/>
            <g>
                <path d="M29,13.818l-0,9.182l-26,0l-0,-3.157c3.37,-1.765 23.184,-7.431 26,-6.025Z" style="fill:#89f;"/>
                <path d="M3,19.843l-0,-8.047c3.488,-0.899 20.541,-4.296 23.562,-5.796l2.438,0l-0,7.818c-1.414,1.662 -4.451,4.155 -10.675,5.846c-5.706,1.551 -12.037,0.781 -15.325,0.179Z" style="fill:#5a72f9;"/>
                <path d="M3,11.796l-0,-5.796l23.562,-0c-2.361,2.289 -5.642,4.64 -9.913,5.895c-4.825,1.417 -10.244,0.668 -13.649,-0.099Z" style="fill:#4c48ff;"/>
            </g>
        </g>
    </g>
</svg>
