<?xml version="1.0" encoding="UTF-8" standalone="no"?><!DOCTYPE svg PUBLIC "-//W3C//DTD SVG 1.1//EN" "http://www.w3.org/Graphics/SVG/1.1/DTD/svg11.dtd"><svg width="100%" height="100%" viewBox="0 0 32 32" version="1.1" xmlns="http://www.w3.org/2000/svg" xmlns:xlink="http://www.w3.org/1999/xlink" xml:space="preserve" xmlns:serif="http://www.serif.com/" style="fill-rule:evenodd;clip-rule:evenodd;stroke-linejoin:round;stroke-miterlimit:1.41421;"><rect id="tv" x="0" y="0" width="32" height="32" style="fill:none;"/><clipPath id="_clip1"><rect x="0" y="0" width="32" height="32"/></clipPath><g clip-path="url(#_clip1)"><g id="outline"><path d="M32,5c0,-0.53 -0.211,-1.039 -0.586,-1.414c-0.375,-0.375 -0.884,-0.586 -1.414,-0.586c-5.746,0 -22.254,0 -28,0c-0.53,0 -1.039,0.211 -1.414,0.586c-0.375,0.375 -0.586,0.884 -0.586,1.414c0,5.595 0,21 0,21l32,0c0,0 0,-15.405 0,-21Z"/><path d="M8,27c0,0.53 -0.211,1.039 -0.586,1.414c-0.375,0.375 -0.884,0.586 -1.414,0.586c-1.222,0 -2.778,0 -4,0c-0.53,0 -1.039,-0.211 -1.414,-0.586c-0.375,-0.375 -0.586,-0.884 -0.586,-1.414c0,-1.392 0,-3 0,-3l8,0c0,0 0,1.608 0,3Z"/><path d="M32,27c0,0.53 -0.211,1.039 -0.586,1.414c-0.375,0.375 -0.884,0.586 -1.414,0.586c-1.222,0 -2.778,0 -4,0c-0.53,0 -1.039,-0.211 -1.414,-0.586c-0.375,-0.375 -0.586,-0.884 -0.586,-1.414c0,-1.392 0,-3 0,-3l8,0c0,0 0,1.608 0,3Z"/></g><g id="emoji"><rect x="2" y="23" width="4" height="4" style="fill:#555;"/><rect x="26" y="23" width="4" height="4" style="fill:#555;"/><rect x="2" y="5" width="28" height="19" style="fill:#333;"/><rect x="3.975" y="7" width="24.025" height="15" style="fill:#4961ea;"/></g></g></svg>