<?xml version="1.0" encoding="UTF-8" standalone="no"?><!DOCTYPE svg PUBLIC "-//W3C//DTD SVG 1.1//EN" "http://www.w3.org/Graphics/SVG/1.1/DTD/svg11.dtd"><svg width="100%" height="100%" viewBox="0 0 32 32" version="1.1" xmlns="http://www.w3.org/2000/svg" xmlns:xlink="http://www.w3.org/1999/xlink" xml:space="preserve" xmlns:serif="http://www.serif.com/" style="fill-rule:evenodd;clip-rule:evenodd;stroke-linejoin:round;stroke-miterlimit:1.41421;"><rect id="vr_headset" x="0" y="0" width="32" height="32" style="fill:none;"/><clipPath id="_clip1"><rect x="0" y="0" width="32" height="32"/></clipPath><g clip-path="url(#_clip1)"><g id="outline"><path d="M1.999,7l0.003,-0.174c0.023,-0.746 0.156,-1.483 0.408,-2.186c0.153,-0.429 0.349,-0.843 0.583,-1.234c0.827,-1.383 2.129,-2.453 3.647,-2.996c0.703,-0.252 1.44,-0.385 2.186,-0.408c4.753,-0.088 9.507,-0.031 14.261,-0.001c0.775,0.014 1.542,0.147 2.273,0.409c1.518,0.543 2.82,1.613 3.647,2.996c0.234,0.391 0.43,0.805 0.583,1.234c0.252,0.703 0.385,1.44 0.408,2.186l0.003,0.174c0,0 0,0 0,0c1.104,0 1.999,0.894 2,1.998c0.006,4.367 0.024,8.734 -0.002,13.101c-0.005,0.264 -0.019,0.528 -0.048,0.79c-0.069,0.616 -0.21,1.225 -0.419,1.809c-0.176,0.49 -0.399,0.963 -0.667,1.409c-0.674,1.128 -1.629,2.084 -2.758,2.758c-0.446,0.268 -0.919,0.491 -1.409,0.667c-0.805,0.288 -1.647,0.439 -2.499,0.466c-0.664,0.012 -1.327,0.022 -1.99,0.03c-0.322,0.35 -0.726,0.625 -1.177,0.79c-0.235,0.086 -0.48,0.142 -0.728,0.167c-0.129,0.013 -0.155,0.012 -0.279,0.015l-8.05,0c-0.124,-0.003 -0.15,-0.002 -0.279,-0.015c-0.248,-0.025 -0.493,-0.081 -0.728,-0.167c-0.458,-0.168 -0.867,-0.448 -1.191,-0.806c-0.626,-0.004 -1.251,-0.009 -1.876,-0.013c-0.887,-0.016 -1.763,-0.168 -2.598,-0.467c-0.491,-0.176 -0.964,-0.399 -1.411,-0.667c-1.128,-0.674 -2.083,-1.629 -2.757,-2.757c-0.301,-0.503 -0.546,-1.039 -0.73,-1.595c-0.268,-0.809 -0.4,-1.653 -0.405,-2.504c0,0 0,-8.926 0,-13.011c0,-1.103 0.895,-1.998 1.998,-1.998c0.001,0 0.001,0 0.001,0Zm3.923,12.286c0.014,0.938 0.04,1.876 0.081,2.813c0.01,0.197 0.048,0.39 0.114,0.575c0.207,0.576 0.674,1.032 1.255,1.225c0.195,0.064 0.398,0.097 0.603,0.101c0.592,0.003 1.184,0.009 1.777,0.016c0.328,-0.371 0.746,-0.662 1.216,-0.834c0.235,-0.086 0.48,-0.142 0.728,-0.167c0.129,-0.013 0.155,-0.012 0.279,-0.015c2.726,0 5.453,-0.066 8.178,0.003c0.134,0.01 0.168,0.01 0.301,0.031c0.246,0.037 0.486,0.105 0.714,0.202c0.434,0.183 0.817,0.469 1.119,0.825c0.604,-0.017 1.208,-0.037 1.812,-0.064c0.197,-0.01 0.39,-0.048 0.575,-0.114c0.576,-0.207 1.032,-0.674 1.225,-1.255c0.064,-0.195 0.097,-0.398 0.101,-0.603l0,-0.034l0,-2.667c-0.208,0.099 -0.422,0.188 -0.64,0.266c-0.703,0.252 -1.44,0.385 -2.186,0.408c-4.782,0.089 -9.566,0.089 -14.348,0c-0.746,-0.023 -1.483,-0.156 -2.186,-0.408c-0.246,-0.088 -0.485,-0.189 -0.718,-0.304Z"/></g><g id="emoji"><path d="M28,7c0,-2.761 -2.239,-5 -5,-5c-2.072,0 -4,0 -4,0l-1,1l-4,0l-1,-1c0,0 -1.928,0 -4,0c-2.761,0 -5,2.239 -5,5c0,1.911 0,4.089 0,6c0,1.326 0.527,2.598 1.464,3.536c0.938,0.937 2.21,1.464 3.536,1.464c4.106,0 9.894,0 14,0c1.326,0 2.598,-0.527 3.536,-1.464c0.937,-0.938 1.464,-2.21 1.464,-3.536c0,-1.911 0,-4.089 0,-6Z" style="fill:#999;"/><rect x="13" y="2" width="6" height="2" style="fill:#ef9b00;"/><path d="M26,8c0,-1.061 -0.421,-2.078 -1.172,-2.828c-0.75,-0.751 -1.767,-1.172 -2.828,-1.172c-3.486,0 -8.514,0 -12,0c-1.061,0 -2.078,0.421 -2.828,1.172c-0.751,0.75 -1.172,1.767 -1.172,2.828c0,1.287 0,2.713 0,4c0,1.061 0.421,2.078 1.172,2.828c0.75,0.751 1.767,1.172 2.828,1.172c0.746,0 1.421,0 1.838,0c0.277,0 0.542,-0.115 0.731,-0.318c0.426,-0.457 1.24,-1.33 1.968,-2.112c0.378,-0.406 0.908,-0.636 1.463,-0.636c0.555,0 1.085,0.23 1.463,0.636c0.728,0.782 1.542,1.655 1.968,2.112c0.189,0.203 0.454,0.318 0.731,0.318c0.417,0 1.092,0 1.838,0c1.061,0 2.078,-0.421 2.828,-1.172c0.751,-0.75 1.172,-1.767 1.172,-2.828c0,-1.287 0,-2.713 0,-4Z" style="fill:#4d4d4d;"/><circle cx="10.5" cy="9.5" r="3.5"/><circle cx="21.5" cy="9.5" r="3.5"/><path d="M30,22.075c-0.013,0.664 -0.127,1.321 -0.351,1.948c-0.148,0.414 -0.343,0.808 -0.575,1.18c-0.704,1.128 -1.802,1.998 -3.051,2.446c-0.603,0.216 -1.234,0.329 -1.874,0.349c-5.432,0.102 -10.866,0.102 -16.298,0c-0.64,-0.02 -1.271,-0.133 -1.874,-0.349c-1.301,-0.466 -2.417,-1.383 -3.126,-2.568c-0.225,-0.377 -0.409,-0.779 -0.547,-1.196c-0.202,-0.608 -0.3,-1.242 -0.304,-1.882l0,-13.003l2,0c0,4.383 -0.134,8.768 0.003,13.149c0.018,0.409 0.093,0.813 0.231,1.2c0.311,0.867 0.922,1.61 1.712,2.083c0.252,0.151 0.52,0.273 0.798,0.366c0.39,0.129 0.796,0.194 1.206,0.202c5.4,0.033 10.802,0.164 16.199,-0.003c0.41,-0.018 0.813,-0.093 1.2,-0.231c0.83,-0.298 1.563,-0.876 2.031,-1.626c0.155,-0.25 0.286,-0.514 0.386,-0.791c0.149,-0.418 0.225,-0.856 0.234,-1.299l0,-0.053l0,-12.997l2,0c0,0 0.025,8.716 0,13.075Z" style="fill:#333;fill-rule:nonzero;"/><path d="M21,28c0,0.552 -0.448,1 -1,1c-1.916,0 -6.084,0 -8,0c-0.552,0 -1,-0.448 -1,-1c0,-0.611 0,-1.389 0,-2c0,-0.552 0.448,-1 1,-1c1.916,0 6.084,0 8,0c0.552,0 1,0.448 1,1c0,0.611 0,1.389 0,2Z" style="fill:#4d4d4d;"/></g></g></svg>