<?xml version="1.0" encoding="UTF-8" standalone="no"?>
<!DOCTYPE svg PUBLIC "-//W3C//DTD SVG 1.1//EN" "http://www.w3.org/Graphics/SVG/1.1/DTD/svg11.dtd">
<svg width="100%" height="100%" viewBox="0 0 32 32" version="1.1" xmlns="http://www.w3.org/2000/svg" xmlns:xlink="http://www.w3.org/1999/xlink" xml:space="preserve" xmlns:serif="http://www.serif.com/" style="fill-rule:evenodd;clip-rule:evenodd;stroke-linejoin:round;stroke-miterlimit:2;">
    <rect id="watch" x="0" y="0" width="32" height="32" style="fill:none;"/>
    <clipPath id="_clip1">
        <rect x="0" y="0" width="32" height="32"/>
    </clipPath>
    <g clip-path="url(#_clip1)">
        <g id="outline">
            <path d="M9,4.341l-0,-1.341c-0,-1.657 1.343,-3 3,-3l8,0c1.657,0 3,1.343 3,3l0,1.341c1.819,0.643 3.235,2.138 3.769,4.005c0.18,0.106 0.348,0.236 0.499,0.386c0.469,0.469 0.732,1.105 0.732,1.768l-0,3c0,0.663 -0.263,1.299 -0.732,1.768c-0.084,0.084 -0.174,0.161 -0.268,0.232l-0,6.5c-0,2.612 -1.67,4.835 -4,5.659l0,1.341c0,1.657 -1.343,3 -3,3l-8,-0c-1.657,-0 -3,-1.343 -3,-3l0,-1.341c-2.33,-0.824 -4,-3.047 -4,-5.659l-0,-12c0,-2.612 1.67,-4.835 4,-5.659Z"/>
        </g>
        <g id="emoji">
            <path d="M21,3c-0,-0.552 -0.448,-1 -1,-1c-1.916,0 -6.084,0 -8,0c-0.552,0 -1,0.448 -1,1c0,4.355 0,21.645 0,26c0,0.552 0.448,1 1,1c1.916,0 6.084,0 8,0c0.552,-0 1,-0.448 1,-1c0,-4.355 0,-21.645 0,-26Z" style="fill:#737373;"/>
            <path d="M26,10.5c0,-0.133 -0.053,-0.26 -0.146,-0.354c-0.094,-0.093 -0.221,-0.146 -0.354,-0.146c-1.073,-0 -3.5,-0 -3.5,-0l-0,4l3.5,-0c0.133,0 0.26,-0.053 0.354,-0.146c0.093,-0.094 0.146,-0.221 0.146,-0.354c0,-0.769 0,-2.231 0,-3Z" style="fill:#ccc;"/>
            <path d="M25,10c0,-1.061 -0.421,-2.078 -1.172,-2.828c-0.75,-0.751 -1.767,-1.172 -2.828,-1.172c-2.977,0 -7.023,0 -10,0c-1.061,-0 -2.078,0.421 -2.828,1.172c-0.751,0.75 -1.172,1.767 -1.172,2.828c0,3.486 0,8.514 0,12c-0,1.061 0.421,2.078 1.172,2.828c0.75,0.751 1.767,1.172 2.828,1.172c2.977,0 7.023,0 10,0c1.061,0 2.078,-0.421 2.828,-1.172c0.751,-0.75 1.172,-1.767 1.172,-2.828c0,-3.486 0,-8.514 0,-12Z" style="fill:#e6e6e6;"/>
            <path d="M24,10c0,-0.796 -0.316,-1.559 -0.879,-2.121c-0.562,-0.563 -1.325,-0.879 -2.121,-0.879l-10,-0c-0.796,-0 -1.559,0.316 -2.121,0.879c-0.563,0.562 -0.879,1.325 -0.879,2.121l0,12c-0,0.796 0.316,1.559 0.879,2.121c0.562,0.563 1.325,0.879 2.121,0.879l10,0c0.796,0 1.559,-0.316 2.121,-0.879c0.563,-0.562 0.879,-1.325 0.879,-2.121l0,-12Z"/>
            <path d="M15.25,10l1.5,0l-0,5.25l3.25,0l0,1.5l-4.75,0l0,-6.75Z" style="fill:#fff;"/>
        </g>
    </g>
</svg>
