<?xml version="1.0" encoding="UTF-8" standalone="no"?><!DOCTYPE svg PUBLIC "-//W3C//DTD SVG 1.1//EN" "http://www.w3.org/Graphics/SVG/1.1/DTD/svg11.dtd"><svg width="100%" height="100%" viewBox="0 0 32 32" version="1.1" xmlns="http://www.w3.org/2000/svg" xmlns:xlink="http://www.w3.org/1999/xlink" xml:space="preserve" xmlns:serif="http://www.serif.com/" style="fill-rule:evenodd;clip-rule:evenodd;stroke-linecap:round;stroke-linejoin:round;stroke-miterlimit:2;"><rect id="watch" x="0" y="0" width="32" height="32" style="fill:none;"/><clipPath id="_clip1"><rect x="0" y="0" width="32" height="32"/></clipPath><g clip-path="url(#_clip1)"><g id="outline"><path d="M27,8c0,-1.061 -0.421,-2.078 -1.172,-2.828c-0.75,-0.751 -1.767,-1.172 -2.828,-1.172c-3.972,0 -10.028,0 -14,0c-1.061,0 -2.078,0.421 -2.828,1.172c-0.751,0.75 -1.172,1.767 -1.172,2.828c0,4.439 0,11.561 0,16c0,1.061 0.421,2.078 1.172,2.828c0.75,0.751 1.767,1.172 2.828,1.172c3.972,0 10.028,0 14,0c1.061,0 2.078,-0.421 2.828,-1.172c0.751,-0.75 1.172,-1.767 1.172,-2.828c0,-4.439 0,-11.561 0,-16Z"/><path d="M23,2c0,-1.105 -0.895,-2 -2,-2c-2.661,0 -7.339,0 -10,0c-1.105,0 -2,0.895 -2,2c0,5.746 0,22.254 0,28c0,1.105 0.895,2 2,2c2.661,0 7.339,0 10,0c1.105,0 2,-0.895 2,-2c0,-5.746 0,-22.254 0,-28Z"/><path d="M27,15c0,-0.552 -0.448,-1 -1,-1c-1.185,0 -3,0 -3,0l0,4c0,0 1.815,0 3,0c0.552,0 1,-0.448 1,-1c0,-0.611 0,-1.389 0,-2Z" style="fill:none;stroke:#000;stroke-width:4px;"/></g><g id="emoji"><rect x="11" y="2" width="10" height="28" style="fill:#4c4c4c;"/><path d="M27,15c0,-0.552 -0.448,-1 -1,-1c-1.185,0 -3,0 -3,0l0,4c0,0 1.815,0 3,0c0.552,0 1,-0.448 1,-1c0,-0.611 0,-1.389 0,-2Z" style="fill:#5a5a5a;"/><path d="M25,8c0,-0.53 -0.211,-1.039 -0.586,-1.414c-0.375,-0.375 -0.884,-0.586 -1.414,-0.586c-3.463,0 -10.537,0 -14,0c-0.53,0 -1.039,0.211 -1.414,0.586c-0.375,0.375 -0.586,0.884 -0.586,1.414c0,3.832 0,12.168 0,16c0,0.53 0.211,1.039 0.586,1.414c0.375,0.375 0.884,0.586 1.414,0.586c3.463,0 10.537,0 14,0c0.53,0 1.039,-0.211 1.414,-0.586c0.375,-0.375 0.586,-0.884 0.586,-1.414c0,-3.832 0,-12.168 0,-16Z" style="fill:#2f2f2f;"/><rect x="9" y="8" width="14" height="16"/><path d="M16,10l0,6l4,0" style="fill:none;stroke:#fff;stroke-width:2px;stroke-linecap:butt;stroke-miterlimit:1.5;"/></g></g></svg>