<?xml version="1.0" encoding="UTF-8" standalone="no"?><!DOCTYPE svg PUBLIC "-//W3C//DTD SVG 1.1//EN" "http://www.w3.org/Graphics/SVG/1.1/DTD/svg11.dtd"><svg width="100%" height="100%" viewBox="0 0 32 32" version="1.1" xmlns="http://www.w3.org/2000/svg" xmlns:xlink="http://www.w3.org/1999/xlink" xml:space="preserve" xmlns:serif="http://www.serif.com/" style="fill-rule:evenodd;clip-rule:evenodd;stroke-linejoin:round;stroke-miterlimit:1.41421;"><rect id="_0_char" serif:id="0_char" x="0" y="0" width="32" height="32" style="fill:none;"/><clipPath id="_clip1"><rect x="0" y="0" width="32" height="32"/></clipPath><g clip-path="url(#_clip1)"><g id="outline"><path d="M7.528,18.761c0,0 0,-7.814 0,-7.814c0,-2.946 0.718,-5.174 2.155,-6.683c1.436,-1.509 3.542,-2.264 6.317,-2.264c2.824,0 4.942,0.755 6.354,2.264c1.412,1.509 2.118,3.737 2.118,6.683l0,9.814c0,3.043 -0.706,5.344 -2.118,6.902c-1.412,1.558 -3.53,2.337 -6.354,2.337c-5.648,0 -8.472,-3.08 -8.472,-9.239l0,-2Zm12.16,-5.121c0,-1.923 -0.286,-3.31 -0.858,-4.162c-0.572,-0.853 -1.515,-1.279 -2.83,-1.279c-1.315,0 -2.252,0.426 -2.812,1.279c-0.56,0.852 -0.84,2.239 -0.84,4.162l0,4.72c0,1.923 0.28,3.317 0.84,4.181c0.56,0.864 1.497,1.296 2.812,1.296c1.339,0 2.288,-0.432 2.848,-1.296c0.56,-0.865 0.84,-2.258 0.84,-4.181l0,-4.72Z" style="fill:none;stroke:#000;stroke-width:4px;"/><rect x="11" y="8" width="10" height="16"/></g><g id="emoji"><path d="M16,30c-5.648,0 -8.472,-3.08 -8.472,-9.239l0,-7.814c0,-2.946 0.718,-5.174 2.155,-6.683c1.436,-1.509 3.542,-2.264 6.317,-2.264c2.824,0 4.942,0.755 6.354,2.264c1.412,1.509 2.118,3.737 2.118,6.683l0,7.814c0,3.043 -0.706,5.344 -2.118,6.902c-1.412,1.558 -3.53,2.337 -6.354,2.337Zm0,-4.163c1.339,0 2.288,-0.432 2.848,-1.296c0.56,-0.865 0.84,-2.258 0.84,-4.181l0,-6.72c0,-1.923 -0.286,-3.31 -0.858,-4.162c-0.572,-0.853 -1.515,-1.279 -2.83,-1.279c-1.315,0 -2.252,0.426 -2.812,1.279c-0.56,0.852 -0.84,2.239 -0.84,4.162l0,6.72c0,1.923 0.28,3.316 0.84,4.181c0.56,0.864 1.497,1.296 2.812,1.296Z" style="fill:#747474;fill-rule:nonzero;"/><path d="M16,28c-5.648,0 -8.472,-3.08 -8.472,-9.239l0,-7.814c0,-2.946 0.718,-5.174 2.155,-6.683c1.436,-1.509 3.542,-2.264 6.317,-2.264c2.824,0 4.942,0.755 6.354,2.264c1.412,1.509 2.118,3.737 2.118,6.683l0,7.814c0,3.043 -0.706,5.344 -2.118,6.902c-1.412,1.558 -3.53,2.337 -6.354,2.337Zm0,-4.163c1.339,0 2.288,-0.432 2.848,-1.296c0.56,-0.865 0.84,-2.258 0.84,-4.181l0,-6.72c0,-1.923 -0.286,-3.31 -0.858,-4.162c-0.572,-0.853 -1.515,-1.279 -2.83,-1.279c-1.315,0 -2.252,0.426 -2.812,1.279c-0.56,0.852 -0.84,2.239 -0.84,4.162l0,6.72c0,1.923 0.28,3.316 0.84,4.181c0.56,0.864 1.497,1.296 2.812,1.296Z" style="fill:#fff;fill-rule:nonzero;"/></g></g></svg>