<?xml version="1.0" encoding="UTF-8" standalone="no"?><!DOCTYPE svg PUBLIC "-//W3C//DTD SVG 1.1//EN" "http://www.w3.org/Graphics/SVG/1.1/DTD/svg11.dtd"><svg width="100%" height="100%" viewBox="0 0 32 32" version="1.1" xmlns="http://www.w3.org/2000/svg" xmlns:xlink="http://www.w3.org/1999/xlink" xml:space="preserve" xmlns:serif="http://www.serif.com/" style="fill-rule:evenodd;clip-rule:evenodd;stroke-linejoin:round;stroke-miterlimit:1.41421;"><rect id="_1_char" serif:id="1_char" x="0" y="0" width="32" height="32" style="fill:none;"/><clipPath id="_clip1"><rect x="0" y="0" width="32" height="32"/></clipPath><g clip-path="url(#_clip1)"><g id="outline"><path d="M16.301,30l0,-20.838l-5.539,3.203l0,-7.087l5.539,-3.278l4.937,0l0,28l-4.937,0Z" style="fill:none;stroke:#000;stroke-width:4px;"/></g><g id="emoji"><path d="M16.301,9.162l-5.539,3.203l0,-2l2,-3.087l3.539,-3.278l4.937,0l0,26l-4.937,0l0,-2l2.699,-17l-2.699,-1.838Z" style="fill:#737373;fill-rule:nonzero;"/><path d="M16.301,7.162l-5.539,3.203l0,-5.087l5.539,-3.278l4.937,0l0,26l-4.937,0l0,-20.838Z" style="fill:#fff;fill-rule:nonzero;"/></g></g></svg>