<?xml version="1.0" encoding="UTF-8" standalone="no"?><!DOCTYPE svg PUBLIC "-//W3C//DTD SVG 1.1//EN" "http://www.w3.org/Graphics/SVG/1.1/DTD/svg11.dtd"><svg width="100%" height="100%" viewBox="0 0 32 32" version="1.1" xmlns="http://www.w3.org/2000/svg" xmlns:xlink="http://www.w3.org/1999/xlink" xml:space="preserve" xmlns:serif="http://www.serif.com/" style="fill-rule:evenodd;clip-rule:evenodd;stroke-linejoin:round;stroke-miterlimit:1.41421;"><rect id="_2_char" serif:id="2_char" x="0" y="0" width="32" height="32" style="fill:none;"/><clipPath id="_clip1"><rect x="0" y="0" width="32" height="32"/></clipPath><g clip-path="url(#_clip1)"><g id="outline"><path d="M24.382,11.678c0,1.31 -0.259,2.497 -0.779,3.56c-0.519,1.063 -1.322,2.139 -2.41,3.227l-5.001,5.27l8.227,0l0,6.265l-16.69,0l0,-5.857l9.569,-10.237c0.816,-0.791 1.385,-1.502 1.706,-2.133c0.198,-0.387 0.334,-0.795 0.41,-1.223c-0.129,-0.639 -0.433,-1.165 -0.91,-1.58c-0.656,-0.569 -1.552,-0.853 -2.689,-0.853c-1.113,0 -1.991,0.272 -2.634,0.816c-0.643,0.544 -0.964,1.298 -0.964,2.262l0,0.594l-4.636,0l0,-2l0,-0.89c0,-2.102 0.741,-3.777 2.225,-5.026c1.484,-1.249 3.511,-1.873 6.083,-1.873c1.731,0 3.239,0.303 4.525,0.909c1.285,0.606 2.268,1.452 2.948,2.54c0.68,1.088 1.02,2.337 1.02,3.746l0,2.483Z" style="fill:none;stroke:#000;stroke-width:4px;"/><rect x="11" y="8" width="10" height="5.789"/></g><g id="emoji"><path d="M24.382,9.678l0,2c0,1.31 -0.259,2.497 -0.779,3.56c-0.519,1.063 -1.322,2.139 -2.41,3.227l-6.899,7.27l8.125,0l2,2.265l0,2l-16.69,0l0,-2l1.576,-3.543l7.993,-8.551c0.816,-0.791 1.385,-1.502 1.706,-2.133c0.322,-0.63 0.482,-1.317 0.482,-2.058l0,-0.408c0,-0.989 -0.327,-1.768 -0.982,-2.337c-0.656,-0.569 -1.552,-0.853 -2.689,-0.853c-1.113,0 -1.991,0.272 -2.634,0.816c-0.643,0.544 -0.964,1.298 -0.964,2.262l0,0.594l-4.636,0l0,-2l0.09,-0.112c0.24,-1.54 0.951,-2.808 2.135,-3.804c1.484,-1.249 3.511,-1.873 6.083,-1.873c1.731,0 3.239,0.303 4.525,0.909c1.285,0.606 2.268,1.452 2.948,2.54c0.425,0.68 0.717,1.423 0.877,2.229l0.143,0Z" style="fill:#737373;"/><path d="M7.729,24.143l9.569,-10.237c0.816,-0.791 1.385,-1.502 1.706,-2.133c0.322,-0.63 0.482,-1.317 0.482,-2.058l0,-0.408c0,-0.989 -0.327,-1.768 -0.982,-2.337c-0.656,-0.569 -1.552,-0.853 -2.689,-0.853c-1.113,0 -1.991,0.272 -2.634,0.816c-0.643,0.544 -0.964,1.298 -0.964,2.262l0,0.594l-4.636,0l0,-0.89c0,-2.102 0.741,-3.777 2.225,-5.026c1.484,-1.249 3.511,-1.873 6.083,-1.873c1.731,0 3.239,0.303 4.525,0.909c1.285,0.606 2.268,1.452 2.948,2.54c0.68,1.088 1.02,2.337 1.02,3.746l0,0.483c0,1.31 -0.259,2.497 -0.779,3.56c-0.519,1.063 -1.322,2.139 -2.41,3.227l-6.899,7.27l10.125,0l0,4.265l-16.69,0l0,-3.857Z" style="fill:#fff;fill-rule:nonzero;"/></g></g></svg>