<?xml version="1.0" encoding="UTF-8" standalone="no"?><!DOCTYPE svg PUBLIC "-//W3C//DTD SVG 1.1//EN" "http://www.w3.org/Graphics/SVG/1.1/DTD/svg11.dtd"><svg width="100%" height="100%" viewBox="0 0 32 32" version="1.1" xmlns="http://www.w3.org/2000/svg" xmlns:xlink="http://www.w3.org/1999/xlink" xml:space="preserve" xmlns:serif="http://www.serif.com/" style="fill-rule:evenodd;clip-rule:evenodd;stroke-linejoin:round;stroke-miterlimit:1.41421;"><rect id="_4_char" serif:id="4_char" x="0" y="0" width="32" height="32" style="fill:none;"/><clipPath id="_clip1"><rect x="0" y="0" width="32" height="32"/></clipPath><g clip-path="url(#_clip1)"><g id="outline"><path d="M23.178,30l-4.936,0l0,-2l0,-2.145l-11.794,0l0,-2l0,-4.333l8.327,-17.522l5.05,0l0,2l-7.411,15.522l5.828,0l0,-6.105l4.936,0l0,6.105l2.374,0l0,6.333l-2.374,0l0,4.145Z" style="fill:none;stroke:#000;stroke-width:4px;"/><rect x="13" y="14" width="7" height="7"/></g><g id="emoji"><path d="M25.552,25.855l-3.374,0l1,2.145l0,2l-4.936,0l0,-2l1,-2.145l-12.794,0l0,-2l1,-2.333l7.327,-17.522l5.05,-2l0,2l-8.366,17.522l11.719,0l2.374,2.333l0,2Z" style="fill:#737373;fill-rule:nonzero;"/><path d="M25.552,23.855l-2.374,0l0,4.145l-4.936,0l0,-4.145l-11.794,0l0,-4.333l8.327,-17.522l5.05,0l-8.366,17.522l6.783,0l0,-6.105l4.936,0l0,6.105l2.374,0l0,4.333Z" style="fill:#fff;fill-rule:nonzero;"/></g></g></svg>