<?xml version="1.0" encoding="UTF-8" standalone="no"?><!DOCTYPE svg PUBLIC "-//W3C//DTD SVG 1.1//EN" "http://www.w3.org/Graphics/SVG/1.1/DTD/svg11.dtd"><svg width="100%" height="100%" viewBox="0 0 32 32" version="1.1" xmlns="http://www.w3.org/2000/svg" xmlns:xlink="http://www.w3.org/1999/xlink" xml:space="preserve" xmlns:serif="http://www.serif.com/" style="fill-rule:evenodd;clip-rule:evenodd;stroke-linejoin:round;stroke-miterlimit:1.41421;"><rect id="_9_char" serif:id="9_char" x="0" y="0" width="32" height="32" style="fill:none;"/><clipPath id="_clip1"><rect x="0" y="0" width="32" height="32"/></clipPath><g clip-path="url(#_clip1)"><g id="outline"><path d="M24.883,9.752l0,2.779c0,1.904 -0.631,3.931 -1.892,6.082l-6.602,11.387l-5.229,0l0,-2l4.654,-8.08c-0.402,0.069 -0.828,0.103 -1.279,0.103c-2.225,0 -4.018,-0.668 -5.378,-2.003c-1.36,-1.335 -2.04,-3.116 -2.04,-5.341l0,-2.779c0,-2.473 0.791,-4.407 2.374,-5.804c1.582,-1.397 3.746,-2.096 6.49,-2.096c2.795,0 4.977,0.686 6.547,2.058c1.57,1.373 2.355,3.271 2.355,5.694Zm-4.938,1.308c-0.114,-0.827 -0.452,-1.493 -1.015,-1.997c-0.705,-0.631 -1.687,-0.946 -2.949,-0.946c-1.261,0 -2.243,0.321 -2.948,0.964c-0.557,0.508 -0.893,1.17 -1.01,1.986c0.117,0.814 0.453,1.469 1.01,1.967c0.705,0.631 1.687,0.946 2.948,0.946c1.262,0 2.244,-0.315 2.949,-0.946c0.563,-0.504 0.901,-1.162 1.015,-1.974Z" style="fill:none;stroke:#000;stroke-width:4px;"/><rect x="11" y="6" width="10" height="11"/></g><g id="emoji"><path d="M17.205,19.504c-0.766,0.346 -1.656,0.519 -2.67,0.519c-2.225,0 -4.018,-0.668 -5.378,-2.003c-1.36,-1.335 -2.04,-3.116 -2.04,-5.341l0,-2.779c1.597,-2.059 0.791,-2.407 2.374,-3.804c1.582,-1.397 3.746,-2.096 6.49,-2.096c2.795,0 4.977,0.686 6.547,2.058c1.57,1.373 1.601,2.318 2.355,3.694l0,2.779c0,1.904 -0.631,3.931 -1.892,6.082l-6.602,11.387l-5.229,0l0,-2l6.045,-8.496Zm-1.224,-3.524c1.262,0 2.244,-0.315 2.949,-0.946c0.705,-0.63 1.057,-1.502 1.057,-2.615l0,-0.704c0,-1.138 -0.352,-2.022 -1.057,-2.652c-0.705,-0.631 -1.687,-0.946 -2.949,-0.946c-1.261,0 -2.243,0.321 -2.948,0.964c-0.705,0.643 -1.057,1.533 -1.057,2.671l0,0.63c0,1.138 0.352,2.022 1.057,2.652c0.705,0.631 1.687,0.946 2.948,0.946Z" style="fill:#737373;fill-rule:nonzero;"/><path d="M17.205,17.504c-0.766,0.346 -1.656,0.519 -2.67,0.519c-2.225,0 -4.018,-0.668 -5.378,-2.003c-1.36,-1.335 -2.04,-3.116 -2.04,-5.341l0,-0.779c0,-2.473 0.791,-4.407 2.374,-5.804c1.582,-1.397 3.746,-2.096 6.49,-2.096c2.795,0 4.977,0.686 6.547,2.058c1.57,1.373 2.355,3.271 2.355,5.694l0,0.779c0,1.904 -0.631,3.931 -1.892,6.082l-6.602,11.387l-5.229,0l6.045,-10.496Zm-1.224,-3.524c1.262,0 2.244,-0.315 2.949,-0.946c0.705,-0.63 1.057,-1.502 1.057,-2.615l0,-0.704c0,-1.138 -0.352,-2.022 -1.057,-2.652c-0.705,-0.631 -1.687,-0.946 -2.949,-0.946c-1.261,0 -2.243,0.321 -2.948,0.964c-0.705,0.643 -1.057,1.533 -1.057,2.671l0,0.63c0,1.138 0.352,2.022 1.057,2.652c0.705,0.631 1.687,0.946 2.948,0.946Z" style="fill:#fff;fill-rule:nonzero;"/></g></g></svg>