<?xml version="1.0" encoding="UTF-8" standalone="no"?><!DOCTYPE svg PUBLIC "-//W3C//DTD SVG 1.1//EN" "http://www.w3.org/Graphics/SVG/1.1/DTD/svg11.dtd"><svg width="100%" height="100%" viewBox="0 0 32 32" version="1.1" xmlns="http://www.w3.org/2000/svg" xmlns:xlink="http://www.w3.org/1999/xlink" xml:space="preserve" xmlns:serif="http://www.serif.com/" style="fill-rule:evenodd;clip-rule:evenodd;stroke-linejoin:round;stroke-miterlimit:1.41421;"><rect id="asterisk_char" x="0" y="0" width="32" height="32" style="fill:none;"/><g id="outline"><path d="M13.65,27.251l0,-6.948l-6.675,3.406l-1.975,-3.678l0,-2l4.174,-2.133l-4.174,-2.133l0,-2l1.975,-3.678l6.675,3.337l0,-6.675l4.7,0l0,6.743l6.675,-3.405l1.907,3.678l0,2l-4.163,2.127l4.231,2.139l0,2l-2.043,3.678l-6.607,-3.337l0,6.879l-4.7,0Z" style="fill:none;stroke:#000;stroke-width:4px;"/></g><g id="emoji"><path d="M13.65,20.303l-6.675,3.406l-1.975,-3.678l0,-2l6.13,-1.133l-6.13,-3.133l0,-2l1.975,-1.678l6.675,3.337l4.7,0.068l6.675,-3.405l1.907,1.678l0,2l-6.13,3.133l6.198,1.133l0,2l-2.043,3.678l-6.607,-3.337l-1.35,1.628l1.35,3.251l0,2l-4.7,0l0,-2l1.35,-3.251l-1.35,-1.697Z" style="fill:#737373;fill-rule:nonzero;"/><path d="M13.65,18.303l-6.675,3.406l-1.975,-3.678l6.13,-3.133l-6.13,-3.133l1.975,-3.678l6.675,3.337l0,-6.675l4.7,0l0,6.743l6.675,-3.405l1.907,3.678l-6.13,3.133l6.198,3.133l-2.043,3.678l-6.607,-3.337l0,6.879l-4.7,0l0,-6.948Z" style="fill:#fff;fill-rule:nonzero;"/></g></svg>