<?xml version="1.0" encoding="UTF-8" standalone="no"?><!DOCTYPE svg PUBLIC "-//W3C//DTD SVG 1.1//EN" "http://www.w3.org/Graphics/SVG/1.1/DTD/svg11.dtd"><svg width="100%" height="100%" viewBox="0 0 32 32" version="1.1" xmlns="http://www.w3.org/2000/svg" xmlns:xlink="http://www.w3.org/1999/xlink" xml:space="preserve" xmlns:serif="http://www.serif.com/" style="fill-rule:evenodd;clip-rule:evenodd;stroke-linejoin:round;stroke-miterlimit:1.41421;"><rect id="enclosing_keycap" x="0" y="0" width="32" height="32" style="fill:none;"/><clipPath id="_clip1"><rect x="0" y="0" width="32" height="32"/></clipPath><g clip-path="url(#_clip1)"><g id="outline"><path d="M32,8c0,-4.418 -3.582,-8 -8,-8c-4.887,0 -11.113,0 -16,0c-4.418,0 -8,3.582 -8,8c0,4.887 0,11.113 0,16c0,4.418 3.582,8 8,8c4.887,0 11.113,0 16,0c4.418,0 8,-3.582 8,-8c0,-4.887 0,-11.113 0,-16Z"/></g><g id="emoji"><path d="M30,20l-28,0c0,0 0,1.874 0,4c0,3.314 2.686,6 6,6c4.724,0 11.276,0 16,0c3.314,0 6,-2.686 6,-6c0,-2.126 0,-4 0,-4Z" style="fill:#b2b2b2;"/><path d="M30,8c0,-3.314 -2.686,-6 -6,-6c-4.724,0 -11.276,0 -16,0c-1.591,0 -3.117,0.632 -4.243,1.757c-1.125,1.126 -1.757,2.652 -1.757,4.243c0,3.665 0,8.335 0,12c0,3.314 2.686,6 6,6c4.724,0 11.276,0 16,0c1.591,0 3.117,-0.632 4.243,-1.757c1.125,-1.126 1.757,-2.652 1.757,-4.243c0,-3.665 0,-8.335 0,-12Z" style="fill:#fff;"/><path d="M27,8c0,-1.657 -1.343,-3 -3,-3c-4.202,0 -11.798,0 -16,0c-1.657,0 -3,1.343 -3,3c0,3.329 0,8.671 0,12c0,1.657 1.343,3 3,3c4.202,0 11.798,0 16,0c1.657,0 3,-1.343 3,-3c0,-3.329 0,-8.671 0,-12Z" style="fill:#c3c3c3;"/></g></g></svg>