<?xml version="1.0" encoding="UTF-8" standalone="no"?><!DOCTYPE svg PUBLIC "-//W3C//DTD SVG 1.1//EN" "http://www.w3.org/Graphics/SVG/1.1/DTD/svg11.dtd"><svg width="100%" height="100%" viewBox="0 0 32 32" version="1.1" xmlns="http://www.w3.org/2000/svg" xmlns:xlink="http://www.w3.org/1999/xlink" xml:space="preserve" xmlns:serif="http://www.serif.com/" style="fill-rule:evenodd;clip-rule:evenodd;stroke-linecap:square;stroke-linejoin:round;stroke-miterlimit:3;"><path id="graduation_cap" d="M0,0l0,32l32,0l0,-32l-32,0Z" style="fill:none;"/><g id="outline"><path d="M8,16l-6,-3l14,-7l14,7l-6,3l0,5c0,1.656 -3.585,3 -8,3c-1.891,0 -3.63,-0.247 -5,-0.659l0,2.659l-4,0l0,-3l1,-1l0,-6Z" style="fill:none;stroke:#000;stroke-width:4px;"/></g><g id="emoji"><path d="M8,18.236l16,0l0,2.764c0,1.656 -3.585,3 -8,3c-4.415,0 -8,-1.344 -8,-3l0,-2.764Z" style="fill:#343434;"/><rect x="8" y="12" width="16" height="13" style="fill:none;"/><clipPath id="_clip1"><rect x="8" y="12" width="16" height="13"/></clipPath><g clip-path="url(#_clip1)"><path d="M2,13l14,-7l14,7l-14,7l-14,-7Z" style="fill:none;stroke:#2c2c2c;stroke-width:4px;"/></g><path d="M2,13l14,-7l14,7l-14,7l-14,-7Z" style="fill:#4b4b4b;"/><path d="M16,13l-7,4l0,7" style="fill:none;stroke:#b38d00;stroke-width:2px;stroke-linecap:round;"/><path d="M9,21l-2,2l0,3l4,0l0,-3l-2,-2Z" style="fill:#b38d00;"/></g></svg>