<?xml version="1.0" encoding="UTF-8" standalone="no"?><!DOCTYPE svg PUBLIC "-//W3C//DTD SVG 1.1//EN" "http://www.w3.org/Graphics/SVG/1.1/DTD/svg11.dtd"><svg width="100%" height="100%" viewBox="0 0 32 32" version="1.1" xmlns="http://www.w3.org/2000/svg" xmlns:xlink="http://www.w3.org/1999/xlink" xml:space="preserve" xmlns:serif="http://www.serif.com/" style="fill-rule:evenodd;clip-rule:evenodd;stroke-linejoin:round;stroke-miterlimit:1.41421;"><rect id="hash_char" x="0" y="0" width="32" height="32" style="fill:none;"/><clipPath id="_clip1"><rect x="0" y="0" width="32" height="32"/></clipPath><g clip-path="url(#_clip1)"><g id="outline"><path d="M23.005,9.235l3.659,0l0,5.466l-4.371,0l-0.273,2.145l3.589,0l0,5.467l-4.296,0l-1.017,7.687l-3.919,0l0,-2l0.752,-5.687l-3.955,0l-1.017,7.687l-3.882,0l0,-2l0.753,-5.687l-3.692,0l0,-5.467l4.409,0l0.292,-2.145l-3.646,0l0,-5.466l4.371,0l0.942,-7.235l3.882,0l0,2l-0.682,5.235l3.96,0l0.942,-7.235l3.881,0l0,2l-0.682,5.235Zm-4.866,5.466l-3.948,0l-0.292,2.145l3.947,0l0.293,-2.145Z" style="fill:none;stroke:#000;stroke-width:4px;"/><rect x="13" y="0" width="9" height="5"/><rect x="10" y="27" width="9" height="5"/></g><g id="emoji"><path d="M22.293,14.701l-0.528,4.145l3.844,1.467l0,2l-4.296,0l-1.017,7.687l-3.919,0l0,-2l1.017,-5.687l-4.22,0l-1.017,7.687l-3.882,0l0,-2l1.018,-5.687l-3.957,0l0,-2l4.409,-1.467l0.565,-4.145l-3.919,0l0,-2l4.371,-1.466l0.942,-7.235l3.882,-2l0,2l-0.943,7.235l4.221,0l0.942,-7.235l3.881,-2l0,2l-0.942,7.235l3.919,1.466l0,2l-4.371,0Zm-3.881,0l-4.221,0l-0.565,4.145l4.22,0l0.566,-4.145Z" style="fill:#727272;fill-rule:nonzero;"/><path d="M22.293,12.701l-0.528,4.145l3.844,0l0,3.467l-4.296,0l-1.017,7.687l-3.919,0l1.017,-7.687l-4.22,0l-1.017,7.687l-3.882,0l1.018,-7.687l-3.957,0l0,-3.467l4.409,0l0.565,-4.145l-3.919,0l0,-3.466l4.371,0l0.942,-7.235l3.882,0l-0.943,7.235l4.221,0l0.942,-7.235l3.881,0l-0.942,7.235l3.919,0l0,3.466l-4.371,0Zm-3.881,0l-4.221,0l-0.565,4.145l4.22,0l0.566,-4.145Z" style="fill:#fff;fill-rule:nonzero;"/></g></g></svg>