<?xml version="1.0" encoding="UTF-8" standalone="no"?>
<!DOCTYPE svg PUBLIC "-//W3C//DTD SVG 1.1//EN" "http://www.w3.org/Graphics/SVG/1.1/DTD/svg11.dtd">
<svg width="100%" height="100%" viewBox="0 0 32 32" version="1.1" xmlns="http://www.w3.org/2000/svg" xmlns:xlink="http://www.w3.org/1999/xlink" xml:space="preserve" xmlns:serif="http://www.serif.com/" style="fill-rule:evenodd;clip-rule:evenodd;stroke-linecap:round;stroke-linejoin:round;stroke-miterlimit:1.5;">
    <rect id="turtle" x="0" y="0" width="32" height="32" style="fill:none;"/>
    <clipPath id="_clip1">
        <rect x="0" y="0" width="32" height="32"/>
    </clipPath>
    <g clip-path="url(#_clip1)">
        <g id="outline">
            <path d="M30,18c0,0 -0.025,0.025 -0.071,0.071c-1.875,1.875 -4.419,2.929 -7.071,2.929c-1.815,0 -3.94,0 -5.751,0c-2.63,0 -5.152,-1.045 -7.011,-2.904c0,0 0,0 0,0c-1.342,-1.342 -2.096,-3.162 -2.096,-5.06c0,-0.023 0,-0.036 0,-0.036l15,0l4,4l3,1Z" style="fill:#3e4f22;stroke:#000;stroke-width:4px;"/>
            <path d="M9,11c0,0 0.609,-0.305 1.155,-0.578c0.556,-0.277 1.168,-0.422 1.789,-0.422c1.492,0 4.464,0 6.791,0c2.091,0 4.095,0.83 5.573,2.308c2.364,2.364 5.692,5.692 5.692,5.692c0,0 -10.033,0 -14.683,0c-1.484,0 -2.906,-0.589 -3.955,-1.638c-0.508,-0.508 -1.048,-1.048 -1.483,-1.483c-0.563,-0.563 -0.879,-1.326 -0.879,-2.122c0,-0.825 0,-1.757 0,-1.757Z" style="fill:#729240;stroke:#000;stroke-width:4px;"/>
            <path d="M23,17c0,0 0,2.751 0,4.172c0,0.53 0.211,1.039 0.586,1.414c0.873,0.873 2.414,2.414 2.414,2.414c0,0 0,-3.525 0,-5.172c0,-0.53 -0.211,-1.039 -0.586,-1.414c-0.59,-0.59 -1.414,-1.414 -1.414,-1.414l-1,0Z" style="fill:#729240;stroke:#000;stroke-width:4px;"/>
            <path d="M12,15l-6,6c0,0 0.584,0.584 1.121,1.121c0.563,0.563 1.326,0.879 2.122,0.879c0.172,0 0.349,0 0.521,0c0.757,0 1.45,-0.428 1.789,-1.106c0.866,-1.733 2.447,-4.894 2.447,-4.894l-2,-2Z" style="fill:#729240;stroke:#000;stroke-width:4px;"/>
            <path d="M9,12c0,0 -2.065,-2.065 -3.227,-3.227c-0.495,-0.495 -1.166,-0.773 -1.866,-0.773c-0.857,0 -1.907,0 -1.907,0c0,0 0,1.514 0,2.679c0,0.846 0.336,1.657 0.934,2.255c0.109,0.109 0.224,0.224 0.34,0.34c1.105,1.105 2.604,1.726 4.167,1.726c1.661,0 3.559,0 3.559,0l0,-3l-2,0Z" style="fill:#729240;stroke:#000;stroke-width:4px;"/>
        </g>
        <g id="emoji">
            <path d="M30,18c0,0 -0.025,0.025 -0.071,0.071c-1.875,1.875 -4.419,2.929 -7.071,2.929c-1.815,0 -3.94,0 -5.751,0c-2.63,0 -5.152,-1.045 -7.011,-2.904c0,0 0,0 0,0c-1.342,-1.342 -2.096,-3.162 -2.096,-5.06c0,-0.023 0,-0.036 0,-0.036l1,-2l14,2l4,4l3,1Z" style="fill:#3e4f22;"/>
            <path d="M23,17c0,0 0,2.751 0,4.172c0,0.53 0.211,1.039 0.586,1.414c0.873,0.873 2.414,2.414 2.414,2.414c0,0 0,-3.525 0,-5.172c0,-0.53 -0.211,-1.039 -0.586,-1.414c-0.59,-0.59 -1.414,-1.414 -1.414,-1.414l-1,0Z" style="fill:#577031;"/>
            <path d="M12,15l-6,6c0,0 0.584,0.584 1.121,1.121c0.563,0.563 1.326,0.879 2.122,0.879c0.172,0 0.349,0 0.521,0c0.757,0 1.45,-0.428 1.789,-1.106c0.866,-1.733 2.447,-4.894 2.447,-4.894l-2,-2Z" style="fill:#577031;"/>
            <path d="M9,12c0,0 -2.065,-2.065 -3.227,-3.227c-0.495,-0.495 -1.166,-0.773 -1.866,-0.773c-0.857,0 -1.907,0 -1.907,0c0,0 0,1.514 0,2.679c0,0.846 0.336,1.657 0.934,2.255c0.109,0.109 0.224,0.224 0.34,0.34c1.105,1.105 2.604,1.726 4.167,1.726c1.661,0 3.559,0 3.559,0l0,-3l-2,0Z" style="fill:#577031;"/>
            <path d="M16,18l0,-3.793l1.5,-1.5l1.5,1.5l0,3.793l-3,0Zm4,0l0,-3.793l1.5,-1.5l1.5,1.5l0,3.793l-3,0Zm5.104,-4.896l1.896,1.896l0,3l-3,0l-1,-3.793l2.104,-1.103Zm4.896,4.896l-2,0l0,-2l2,2Zm-18,-1.09l0,-2.703l1.5,-1.5l1.5,1.5l0,3.784c-1.087,-0.062 -2.129,-0.439 -3,-1.081Zm-2.97,-3.732l0.47,-0.471l1.5,1.5l0,1.793l-1.121,-1.121c-0.463,-0.463 -0.759,-1.061 -0.849,-1.701Zm12.97,-2.47c0.851,0.387 1.635,0.927 2.308,1.6l0.088,0.088l-0.896,1.897l-2.5,-2.5l1,-1.085Zm-9,-0.708l0,1.793l-1.5,1.5l-1.5,-1.5l0,-1.293l0.155,-0.078c0.556,-0.277 1.168,-0.422 1.789,-0.422l1.056,0Zm1,0l3,0l0,1.793l-1.5,1.5l-1.5,-1.5l0,-1.793Zm4,0l0.735,0c0.774,0 1.537,0.114 2.265,0.332l0,1.461l-1.5,1.5l-1.5,-1.5l0,-1.793Z" style="fill:#729240;"/>
            <path d="M4,9.5c0,-0.133 -0.053,-0.26 -0.146,-0.354c-0.094,-0.093 -0.221,-0.146 -0.354,-0.146c-0.133,0 -0.26,0.053 -0.354,0.146c-0.093,0.094 -0.146,0.221 -0.146,0.354c0,0.305 0,0.695 0,1c0,0.133 0.053,0.26 0.146,0.354c0.094,0.093 0.221,0.146 0.354,0.146c0.133,0 0.26,-0.053 0.354,-0.146c0.093,-0.094 0.146,-0.221 0.146,-0.354c0,-0.305 0,-0.695 0,-1Z"/>
            <path d="M13,10l0.448,0.612l0.552,-0.612l3,0l0.506,0.612l0.494,-0.612l0.735,0c0.774,0 1.537,0.114 2.265,0.332l0.541,0.668l0.459,-0.292c0.851,0.387 1.635,0.927 2.308,1.6l0.088,0.088l0,0.604l0.708,0.104l1.896,1.896l0.635,1.91l-0.635,1.09l-3,0l-0.6,-0.777l-0.4,0.777l-3,0l-0.471,-0.777l-0.529,0.777l-3,0l-0.389,-0.777l-0.611,0.768c-1.087,-0.062 -2.129,-0.439 -3,-1.081l-0.495,-1.193l-0.505,0.283l-1.121,-1.121c-0.463,-0.463 -0.759,-1.061 -0.849,-1.702l0.347,-1.353l0.623,-1.324l0.155,-0.078c0.556,-0.277 1.168,-0.422 1.789,-0.422l1.056,0Zm17,8l-2,0l-0.541,-1.09l0.541,-0.91l2,2Z" style="fill:#729240;"/>
            <path d="M13,10l1,0l0,1.793l1.5,1.5l1.5,-1.5l0,-1.793l1,0l0,1.793l1.5,1.5l1.5,-1.5l0,-1.461c0.342,0.103 0.676,0.228 1,0.376l0,1.085l1.5,1.5l0.896,-0.897l0.708,0.708l-1.104,1.103l0,3.793l-1,0l0,-3.793l-1.5,-1.5l-1.5,1.5l0,3.793l-1,0l0,-3.793l-1.5,-1.5l-1.5,1.5l0,3.793l-0.683,0c-0.106,0 -0.212,-0.003 -0.317,-0.009l0,-3.784l-1.5,-1.5l-1.5,1.5l0,2.703c-0.225,-0.165 -0.438,-0.348 -0.638,-0.548l-0.362,-0.362l0,-1.793l-1.5,-1.5l-0.47,0.471c-0.02,-0.139 -0.03,-0.279 -0.03,-0.421c0,-0.825 0,-1.757 0,-1.757l1,-0.5l0,1.293l1.5,1.5l1.5,-1.5l0,-1.793Zm15,6l0,2l-1,0l0,-3l1,1Z" style="fill:#607934;"/>
        </g>
    </g>
</svg>
