<?xml version="1.0" encoding="UTF-8" standalone="no"?><!DOCTYPE svg PUBLIC "-//W3C//DTD SVG 1.1//EN" "http://www.w3.org/Graphics/SVG/1.1/DTD/svg11.dtd"><svg width="100%" height="100%" viewBox="0 0 32 32" version="1.1" xmlns="http://www.w3.org/2000/svg" xmlns:xlink="http://www.w3.org/1999/xlink" xml:space="preserve" xmlns:serif="http://www.serif.com/" style="fill-rule:evenodd;clip-rule:evenodd;stroke-linejoin:round;stroke-miterlimit:1.5;"><rect id="cheetah" x="0" y="0" width="32" height="32" style="fill:none;"/><clipPath id="_clip1"><rect x="0" y="0" width="32" height="32"/></clipPath><g clip-path="url(#_clip1)"><g id="outline"><path d="M18,9l8,5c0,0 1.648,-1.648 2.828,-2.828c0.751,-0.751 1.172,-1.768 1.172,-2.829c0,-0.157 0,-0.32 0,-0.489c0,-1.04 -0.538,-2.005 -1.423,-2.552c-0.884,-0.546 -1.989,-0.596 -2.919,-0.131c-3.435,1.718 -7.658,3.829 -7.658,3.829Z" style="fill:none;stroke:#000;stroke-width:4px;"/><path d="M14,9l-8,5c0,0 -1.648,-1.648 -2.828,-2.828c-0.751,-0.751 -1.172,-1.768 -1.172,-2.829c0,-0.157 0,-0.32 0,-0.489c0,-1.04 0.538,-2.005 1.423,-2.552c0.884,-0.546 1.989,-0.596 2.919,-0.131c3.435,1.718 7.658,3.829 7.658,3.829Z" style="fill:none;stroke:#000;stroke-width:4px;"/><path d="M7.444,7.905c-1.551,1.33 -2.444,3.271 -2.444,5.315c0,0.674 0,1.39 0,2.081c0,2.387 0.854,4.695 2.407,6.508c1.669,1.947 3.593,4.191 3.593,4.191c0,0 0,0 0,0c0,1.657 1.343,3 3,3c1.265,0 2.735,0 4,0c1.657,0 3,-1.343 3,-3c0,0 0,0 0,0c0,0 1.924,-2.244 3.593,-4.191c1.553,-1.813 2.407,-4.121 2.407,-6.508c0,-0.691 0,-1.407 0,-2.081c0,-2.044 -0.893,-3.985 -2.444,-5.315c-0.708,-0.606 -1.478,-1.267 -2.181,-1.87c-1.533,-1.313 -3.484,-2.035 -5.503,-2.035c-0.573,0 -1.171,0 -1.744,0c-2.019,0 -3.97,0.722 -5.503,2.035c-0.703,0.603 -1.473,1.264 -2.181,1.87Z" style="fill:none;stroke:#000;stroke-width:4px;stroke-linecap:round;"/></g><g id="emoji"><path d="M18,9l8,5c0,0 1.648,-1.648 2.828,-2.828c0.751,-0.751 1.172,-1.768 1.172,-2.829c0,-0.157 0,-0.32 0,-0.489c0,-1.04 -0.538,-2.005 -1.423,-2.552c-0.884,-0.546 -1.989,-0.596 -2.919,-0.131c-3.435,1.718 -7.658,3.829 -7.658,3.829Z" style="fill:#ab7314;"/><clipPath id="_clip2"><path d="M18,9l8,5c0,0 1.648,-1.648 2.828,-2.828c0.751,-0.751 1.172,-1.768 1.172,-2.829c0,-0.157 0,-0.32 0,-0.489c0,-1.04 -0.538,-2.005 -1.423,-2.552c-0.884,-0.546 -1.989,-0.596 -2.919,-0.131c-3.435,1.718 -7.658,3.829 -7.658,3.829Z"/></clipPath><g clip-path="url(#_clip2)"><path d="M22,9c0,0 4.248,-2.124 6.553,-3.276c0.31,-0.155 0.678,-0.139 0.973,0.043c0.295,0.183 0.474,0.504 0.474,0.851c0,2.83 0,8.382 0,8.382l-8,0l0,-6Z" style="fill:#d3d3d3;"/></g><path d="M14,9l-8,5c0,0 -1.648,-1.648 -2.828,-2.828c-0.751,-0.751 -1.172,-1.768 -1.172,-2.829c0,-0.157 0,-0.32 0,-0.489c0,-1.04 0.538,-2.005 1.423,-2.552c0.884,-0.546 1.989,-0.596 2.919,-0.131c3.435,1.718 7.658,3.829 7.658,3.829Z" style="fill:#ab7314;"/><clipPath id="_clip3"><path d="M14,9l-8,5c0,0 -1.648,-1.648 -2.828,-2.828c-0.751,-0.751 -1.172,-1.768 -1.172,-2.829c0,-0.157 0,-0.32 0,-0.489c0,-1.04 0.538,-2.005 1.423,-2.552c0.884,-0.546 1.989,-0.596 2.919,-0.131c3.435,1.718 7.658,3.829 7.658,3.829Z"/></clipPath><g clip-path="url(#_clip3)"><path d="M10,9c0,0 -4.248,-2.124 -6.553,-3.276c-0.31,-0.155 -0.678,-0.139 -0.973,0.043c-0.295,0.183 -0.474,0.504 -0.474,0.851c0,2.83 0,8.382 0,8.382l8,0l0,-6Z" style="fill:#d3d3d3;"/></g><path d="M7.444,7.905c-1.551,1.33 -2.444,3.271 -2.444,5.315c0,0.674 0,1.39 0,2.081c0,2.387 0.854,4.695 2.407,6.508c1.669,1.947 3.593,4.191 3.593,4.191c0,0 0,0 0,0c0,1.657 1.343,3 3,3c1.265,0 2.735,0 4,0c1.657,0 3,-1.343 3,-3c0,0 0,0 0,0c0,0 1.924,-2.244 3.593,-4.191c1.553,-1.813 2.407,-4.121 2.407,-6.508c0,-0.691 0,-1.407 0,-2.081c0,-2.044 -0.893,-3.985 -2.444,-5.315c-0.708,-0.606 -1.478,-1.267 -2.181,-1.87c-1.533,-1.313 -3.484,-2.035 -5.503,-2.035c-0.573,0 -1.171,0 -1.744,0c-2.019,0 -3.97,0.722 -5.503,2.035c-0.703,0.603 -1.473,1.264 -2.181,1.87Z" style="fill:#e9ae41;"/><clipPath id="_clip4"><path d="M7.444,7.905c-1.551,1.33 -2.444,3.271 -2.444,5.315c0,0.674 0,1.39 0,2.081c0,2.387 0.854,4.695 2.407,6.508c1.669,1.947 3.593,4.191 3.593,4.191c0,0 0,0 0,0c0,1.657 1.343,3 3,3c1.265,0 2.735,0 4,0c1.657,0 3,-1.343 3,-3c0,0 0,0 0,0c0,0 1.924,-2.244 3.593,-4.191c1.553,-1.813 2.407,-4.121 2.407,-6.508c0,-0.691 0,-1.407 0,-2.081c0,-2.044 -0.893,-3.985 -2.444,-5.315c-0.708,-0.606 -1.478,-1.267 -2.181,-1.87c-1.533,-1.313 -3.484,-2.035 -5.503,-2.035c-0.573,0 -1.171,0 -1.744,0c-2.019,0 -3.97,0.722 -5.503,2.035c-0.703,0.603 -1.473,1.264 -2.181,1.87Z"/></clipPath><g clip-path="url(#_clip4)"><path d="M19,21l0,2c0,0 1,0 2,0c1.105,0 2,-0.895 2,-2c0,0 0,0 0,0l2,-2l4,0l0,12l-26,0l0,-12l4,0l2,2c0,0 0,0 0,0c0,1.105 0.895,2 2,2c1,0 2,0 2,0l0,-2l6,0Z" style="fill:#f1f1f1;"/></g><path d="M21.5,6c0.133,0 0.26,0.053 0.354,0.146c0.093,0.094 0.146,0.221 0.146,0.354c0,0 0,0.001 0,0.001c0,0.276 -0.223,0.499 -0.499,0.499c-0.306,0 -0.696,0 -1.002,0c-0.276,0 -0.499,-0.223 -0.499,-0.499c0,0 0,-0.001 0,-0.001c0,-0.133 0.053,-0.26 0.146,-0.354c0.094,-0.093 0.221,-0.146 0.354,-0.146c0.305,0 0.695,0 1,0Z"/><path d="M19.5,7c0.133,0 0.26,0.053 0.354,0.146c0.093,0.094 0.146,0.221 0.146,0.354c0,0 0,0.001 0,0.001c0,0.276 -0.223,0.499 -0.499,0.499c-0.306,0 -0.696,0 -1.002,0c-0.276,0 -0.499,-0.223 -0.499,-0.499c0,0 0,-0.001 0,-0.001c0,-0.133 0.053,-0.26 0.146,-0.354c0.094,-0.093 0.221,-0.146 0.354,-0.146c0.305,0 0.695,0 1,0Z"/><path d="M16.5,7c0.133,0 0.26,0.053 0.354,0.146c0.093,0.094 0.146,0.221 0.146,0.354c0,0 0,0.001 0,0.001c0,0.276 -0.223,0.499 -0.499,0.499c-0.306,0 -0.696,0 -1.002,0c-0.276,0 -0.499,-0.223 -0.499,-0.499c0,0 0,-0.001 0,-0.001c0,-0.133 0.053,-0.26 0.146,-0.354c0.094,-0.093 0.221,-0.146 0.354,-0.146c0.305,0 0.695,0 1,0Z"/><path d="M13.5,7c0.133,0 0.26,0.053 0.354,0.146c0.093,0.094 0.146,0.221 0.146,0.354c0,0 0,0.001 0,0.001c0,0.276 -0.223,0.499 -0.499,0.499c-0.306,0 -0.696,0 -1.002,0c-0.276,0 -0.499,-0.223 -0.499,-0.499c0,0 0,-0.001 0,-0.001c0,-0.133 0.053,-0.26 0.146,-0.354c0.094,-0.093 0.221,-0.146 0.354,-0.146c0.305,0 0.695,0 1,0Z"/><path d="M12.5,9c0.133,0 0.26,0.053 0.354,0.146c0.093,0.094 0.146,0.221 0.146,0.354c0,0.555 0,1.445 0,2c0,0.133 -0.053,0.26 -0.146,0.354c-0.094,0.093 -0.221,0.146 -0.354,0.146c-0.133,0 -0.26,-0.053 -0.354,-0.146c-0.093,-0.094 -0.146,-0.221 -0.146,-0.354c0,-0.555 0,-1.445 0,-2c0,-0.133 0.053,-0.26 0.146,-0.354c0.094,-0.093 0.221,-0.146 0.354,-0.146c0,0 0,0 0,0Z"/><path d="M19.501,9c0.276,0 0.499,0.223 0.499,0.499c0,0.555 0,1.447 0,2.002c0,0.276 -0.223,0.499 -0.499,0.499c-0.001,0 -0.001,0 -0.002,0c-0.276,0 -0.499,-0.223 -0.499,-0.499c0,-0.555 0,-1.447 0,-2.002c0,-0.276 0.223,-0.499 0.499,-0.499c0.001,0 0.001,0 0.002,0Z"/><path d="M16.501,9c0.276,0 0.499,0.223 0.499,0.499c0,0 0,0.001 0,0.001c0,0.133 -0.053,0.26 -0.146,0.354c-0.094,0.093 -0.221,0.146 -0.354,0.146c-0.305,0 -0.695,0 -1,0c-0.133,0 -0.26,-0.053 -0.354,-0.146c-0.093,-0.094 -0.146,-0.221 -0.146,-0.354c0,0 0,-0.001 0,-0.001c0,-0.276 0.223,-0.499 0.499,-0.499c0.306,0 0.696,0 1.002,0Z"/><path d="M18.5,5c0.133,0 0.26,0.053 0.354,0.146c0.093,0.094 0.146,0.221 0.146,0.354c0,0 0,0.001 0,0.001c0,0.276 -0.223,0.499 -0.499,0.499c-0.306,0 -0.696,0 -1.002,0c-0.276,0 -0.499,-0.223 -0.499,-0.499c0,0 0,-0.001 0,-0.001c0,-0.133 0.053,-0.26 0.146,-0.354c0.094,-0.093 0.221,-0.146 0.354,-0.146c0.305,0 0.695,0 1,0Z"/><path d="M14.501,5c0.276,0 0.499,0.223 0.499,0.499c0,0 0,0.001 0,0.001c0,0.133 -0.053,0.26 -0.146,0.354c-0.094,0.093 -0.221,0.146 -0.354,0.146c-0.305,0 -0.695,0 -1,0c-0.133,0 -0.26,-0.053 -0.354,-0.146c-0.093,-0.094 -0.146,-0.221 -0.146,-0.354c0,0 0,-0.001 0,-0.001c0,-0.276 0.223,-0.499 0.499,-0.499c0.306,0 0.696,0 1.002,0Z"/><path d="M11.501,6c0.276,0 0.499,0.223 0.499,0.499c0,0 0,0.001 0,0.001c0,0.133 -0.053,0.26 -0.146,0.354c-0.094,0.093 -0.221,0.146 -0.354,0.146c-0.305,0 -0.695,0 -1,0c-0.133,0 -0.26,-0.053 -0.354,-0.146c-0.093,-0.094 -0.146,-0.221 -0.146,-0.354c0,0 0,-0.001 0,-0.001c0,-0.276 0.223,-0.499 0.499,-0.499c0.306,0 0.696,0 1.002,0Z"/><path d="M11,26.5c0,0 0.716,0 1.292,0c0.466,0 0.925,-0.108 1.341,-0.317c0.881,-0.44 2.367,-1.183 2.367,-1.183c0,0 1.486,0.743 2.367,1.183c0.416,0.209 0.875,0.317 1.341,0.317c0.576,0 1.292,0 1.292,0" style="fill:none;stroke:#000;stroke-width:1px;stroke-linejoin:miter;"/><path d="M13,20l6,0c0,0 0,0.794 0,1.382c0,0.379 -0.214,0.725 -0.553,0.894c-0.592,0.296 -1.447,0.724 -1.447,0.724l0,2l-2,0l0,-2c0,0 -0.855,-0.428 -1.447,-0.724c-0.339,-0.169 -0.553,-0.515 -0.553,-0.894c0,-0.588 0,-1.382 0,-1.382Z"/><path d="M19.5,15c0,0 0,0.35 0,0.757c0,0.796 0.316,1.559 0.879,2.122c0.391,0.391 0.851,0.851 1.242,1.242c0.563,0.563 0.879,1.326 0.879,2.122c0,1.757 0,4.757 0,4.757" style="fill:none;stroke:#000;stroke-width:1px;"/><path d="M12.5,15c0,0 0,0.35 0,0.757c0,0.796 -0.316,1.559 -0.879,2.122c-0.391,0.391 -0.851,0.851 -1.242,1.242c-0.563,0.563 -0.879,1.326 -0.879,2.122c0,1.757 0,4.757 0,4.757" style="fill:none;stroke:#000;stroke-width:1px;"/><path d="M11,13c0.53,0 1.039,0.211 1.414,0.586c0.375,0.375 0.586,0.884 0.586,1.414c0,0.551 0,1 0,1c0,0 -0.895,0 -1.838,0c-1.291,0 -2.437,-0.826 -2.846,-2.051c-0.175,-0.527 -0.316,-0.949 -0.316,-0.949c0,0 1.608,0 3,0Z"/><path d="M21,13c-0.53,0 -1.039,0.211 -1.414,0.586c-0.375,0.375 -0.586,0.884 -0.586,1.414c0,0.551 0,1 0,1c0,0 0.895,0 1.838,0c1.291,0 2.437,-0.826 2.846,-2.051c0.175,-0.527 0.316,-0.949 0.316,-0.949c0,0 -1.608,0 -3,0Z"/><path d="M8,16l-1,2" style="fill:none;stroke:#000;stroke-width:1px;stroke-linecap:round;"/><path d="M8.5,19l-0.5,1" style="fill:none;stroke:#000;stroke-width:1px;stroke-linecap:round;"/><path d="M23.5,19l0.5,1" style="fill:none;stroke:#000;stroke-width:1px;stroke-linecap:round;"/><path d="M24,16l1,2" style="fill:none;stroke:#000;stroke-width:1px;stroke-linecap:round;"/></g></g></svg>