<?xml version="1.0" encoding="UTF-8" standalone="no"?><!DOCTYPE svg PUBLIC "-//W3C//DTD SVG 1.1//EN" "http://www.w3.org/Graphics/SVG/1.1/DTD/svg11.dtd"><svg width="100%" height="100%" viewBox="0 0 32 32" version="1.1" xmlns="http://www.w3.org/2000/svg" xmlns:xlink="http://www.w3.org/1999/xlink" xml:space="preserve" xmlns:serif="http://www.serif.com/" style="fill-rule:evenodd;clip-rule:evenodd;stroke-linejoin:round;stroke-miterlimit:1.5;"><rect id="jaguar" x="0" y="0" width="32" height="32" style="fill:none;"/><clipPath id="_clip1"><rect x="0" y="0" width="32" height="32"/></clipPath><g clip-path="url(#_clip1)"><g id="outline"><path d="M21,8l5,5c0,0 0.864,-0.432 1.789,-0.894c1.355,-0.678 2.211,-2.063 2.211,-3.578c0,-0.249 0,-0.502 0,-0.753c0,-0.643 -0.309,-1.247 -0.831,-1.623c-0.521,-0.376 -1.192,-0.478 -1.801,-0.275c-2.657,0.886 -6.368,2.123 -6.368,2.123Z" style="fill:none;stroke:#000;stroke-width:4px;"/><path d="M11,8l-5,5c0,0 -0.864,-0.432 -1.789,-0.894c-1.355,-0.678 -2.211,-2.063 -2.211,-3.578c0,-0.249 0,-0.502 0,-0.753c0,-0.643 0.309,-1.247 0.831,-1.623c0.521,-0.376 1.192,-0.478 1.801,-0.275c2.657,0.886 6.368,2.123 6.368,2.123Z" style="fill:none;stroke:#000;stroke-width:4px;"/><path d="M6.049,9.207c-1.302,1.139 -2.049,2.785 -2.049,4.516c0,0.643 0,1.303 0,1.861c0,0.931 0.217,1.85 0.633,2.683c0.361,0.722 0.796,1.591 1.077,2.152c0.192,0.385 0.445,0.736 0.749,1.04c1.051,1.051 3.541,3.541 3.541,3.541c0,0 0,0 0,0c0,1.657 1.343,3 3,3c1.832,0 4.168,0 6,0c1.657,0 3,-1.343 3,-3c0,0 0,0 0,0c0,0 2.49,-2.49 3.541,-3.541c0.304,-0.304 0.557,-0.655 0.749,-1.04c0.281,-0.561 0.716,-1.43 1.077,-2.152c0.416,-0.833 0.633,-1.752 0.633,-2.683c0,-0.558 0,-1.218 0,-1.861c0,-1.731 -0.747,-3.377 -2.049,-4.516c-1.086,-0.95 -2.427,-2.123 -3.56,-3.115c-1.541,-1.349 -3.52,-2.092 -5.568,-2.092c-0.542,0 -1.104,0 -1.646,0c-2.048,0 -4.027,0.743 -5.568,2.092c-1.133,0.992 -2.474,2.165 -3.56,3.115Z" style="fill:none;stroke:#000;stroke-width:4px;stroke-linecap:round;"/></g><g id="emoji"><path d="M21,8l5,5c0,0 0.864,-0.432 1.789,-0.894c1.355,-0.678 2.211,-2.063 2.211,-3.578c0,-0.249 0,-0.502 0,-0.753c0,-0.643 -0.309,-1.247 -0.831,-1.623c-0.521,-0.376 -1.192,-0.478 -1.801,-0.275c-2.657,0.886 -6.368,2.123 -6.368,2.123Z" style="fill:#a5650a;"/><clipPath id="_clip2"><path d="M21,8l5,5c0,0 0.864,-0.432 1.789,-0.894c1.355,-0.678 2.211,-2.063 2.211,-3.578c0,-0.249 0,-0.502 0,-0.753c0,-0.643 -0.309,-1.247 -0.831,-1.623c-0.521,-0.376 -1.192,-0.478 -1.801,-0.275c-2.657,0.886 -6.368,2.123 -6.368,2.123Z"/></clipPath><g clip-path="url(#_clip2)"><path d="M31,7.387c0,-0.321 -0.155,-0.623 -0.415,-0.811c-0.261,-0.188 -0.596,-0.239 -0.901,-0.137c-2.499,0.833 -7.684,2.561 -7.684,2.561l5,5l4,0c0,0 0,-4.322 0,-6.613Z" style="fill:#f1f1f1;"/></g><path d="M11,8l-5,5c0,0 -0.864,-0.432 -1.789,-0.894c-1.355,-0.678 -2.211,-2.063 -2.211,-3.578c0,-0.249 0,-0.502 0,-0.753c0,-0.643 0.309,-1.247 0.831,-1.623c0.521,-0.376 1.192,-0.478 1.801,-0.275c2.657,0.886 6.368,2.123 6.368,2.123Z" style="fill:#a5650a;"/><clipPath id="_clip3"><path d="M11,8l-5,5c0,0 -0.864,-0.432 -1.789,-0.894c-1.355,-0.678 -2.211,-2.063 -2.211,-3.578c0,-0.249 0,-0.502 0,-0.753c0,-0.643 0.309,-1.247 0.831,-1.623c0.521,-0.376 1.192,-0.478 1.801,-0.275c2.657,0.886 6.368,2.123 6.368,2.123Z"/></clipPath><g clip-path="url(#_clip3)"><path d="M1,7.387c0,-0.321 0.155,-0.623 0.415,-0.811c0.261,-0.188 0.596,-0.239 0.901,-0.137c2.499,0.833 7.684,2.561 7.684,2.561l-5,5l-4,0c0,0 0,-4.322 0,-6.613Z" style="fill:#f1f1f1;"/></g><path d="M6.049,9.207c-1.302,1.139 -2.049,2.785 -2.049,4.516c0,0.643 0,1.303 0,1.861c0,0.931 0.217,1.85 0.633,2.683c0.361,0.722 0.796,1.591 1.077,2.152c0.192,0.385 0.445,0.736 0.749,1.04c1.051,1.051 3.541,3.541 3.541,3.541c0,0 0,0 0,0c0,1.657 1.343,3 3,3c1.832,0 4.168,0 6,0c1.657,0 3,-1.343 3,-3c0,0 0,0 0,0c0,0 2.49,-2.49 3.541,-3.541c0.304,-0.304 0.557,-0.655 0.749,-1.04c0.281,-0.561 0.716,-1.43 1.077,-2.152c0.416,-0.833 0.633,-1.752 0.633,-2.683c0,-0.558 0,-1.218 0,-1.861c0,-1.731 -0.747,-3.377 -2.049,-4.516c-1.086,-0.95 -2.427,-2.123 -3.56,-3.115c-1.541,-1.349 -3.52,-2.092 -5.568,-2.092c-0.542,0 -1.104,0 -1.646,0c-2.048,0 -4.027,0.743 -5.568,2.092c-1.133,0.992 -2.474,2.165 -3.56,3.115Z" style="fill:#c87c12;"/><clipPath id="_clip4"><path d="M6.049,9.207c-1.302,1.139 -2.049,2.785 -2.049,4.516c0,0.643 0,1.303 0,1.861c0,0.931 0.217,1.85 0.633,2.683c0.361,0.722 0.796,1.591 1.077,2.152c0.192,0.385 0.445,0.736 0.749,1.04c1.051,1.051 3.541,3.541 3.541,3.541c0,0 0,0 0,0c0,1.657 1.343,3 3,3c1.832,0 4.168,0 6,0c1.657,0 3,-1.343 3,-3c0,0 0,0 0,0c0,0 2.49,-2.49 3.541,-3.541c0.304,-0.304 0.557,-0.655 0.749,-1.04c0.281,-0.561 0.716,-1.43 1.077,-2.152c0.416,-0.833 0.633,-1.752 0.633,-2.683c0,-0.558 0,-1.218 0,-1.861c0,-1.731 -0.747,-3.377 -2.049,-4.516c-1.086,-0.95 -2.427,-2.123 -3.56,-3.115c-1.541,-1.349 -3.52,-2.092 -5.568,-2.092c-0.542,0 -1.104,0 -1.646,0c-2.048,0 -4.027,0.743 -5.568,2.092c-1.133,0.992 -2.474,2.165 -3.56,3.115Z"/></clipPath><g clip-path="url(#_clip4)"><path d="M19,20l0,2c0,0 0.449,0 1,0c0.53,0 1.039,-0.211 1.414,-0.586c0.375,-0.375 0.586,-0.884 0.586,-1.414c0,-0.796 0.316,-1.559 0.879,-2.121c0.562,-0.563 1.325,-0.879 2.121,-0.879c1.9,0 4,0 4,0l0,13l-26,0l0,-13c0,0 2.1,0 4,0c0.796,0 1.559,0.316 2.121,0.879c0.563,0.562 0.879,1.325 0.879,2.121c0,0.53 0.211,1.039 0.586,1.414c0.375,0.375 0.884,0.586 1.414,0.586c0.551,0 1,0 1,0l0,-2l6,0Z" style="fill:#f1f1f1;"/></g><path d="M19.5,9c0.552,0 1,0.448 1,1c0,0.552 -0.448,1 -1,1c-0.322,0 -0.678,0 -1,0c-0.552,0 -1,-0.448 -1,-1c0,-0.552 0.448,-1 1,-1c0.322,0 0.678,0 1,0Z"/><path d="M18,12c0.552,0 1,0.448 1,1c0,0.552 -0.448,1 -1,1c-0.552,0 -1,-0.448 -1,-1c0,-0.552 0.448,-1 1,-1c0,0 0,0 0,0Z"/><path d="M14,12c0.552,0 1,0.448 1,1c0,0.552 -0.448,1 -1,1c-0.552,0 -1,-0.448 -1,-1c0,-0.552 0.448,-1 1,-1c0,0 0,0 0,0Z"/><path d="M13.5,9c0.552,0 1,0.448 1,1c0,0.552 -0.448,1 -1,1c-0.322,0 -0.678,0 -1,0c-0.552,0 -1,-0.448 -1,-1c0,-0.552 0.448,-1 1,-1c0.322,0 0.678,0 1,0Z"/><path d="M20,6c0.552,0 1,0.448 1,1c0,0.552 -0.448,1 -1,1c-0.322,0 -0.678,0 -1,0c-0.552,0 -1,-0.448 -1,-1c0,-0.552 0.448,-1 1,-1c0.322,0 0.678,0 1,0Z"/><path d="M13,6c0.552,0 1,0.448 1,1c0,0.552 -0.448,1 -1,1c-0.322,0 -0.678,0 -1,0c-0.552,0 -1,-0.448 -1,-1c0,-0.552 0.448,-1 1,-1c0.322,0 0.678,0 1,0Z"/><path d="M16,5c0.552,0 1,0.448 1,1c0,0.552 -0.448,1 -1,1c-0.552,0 -1,-0.448 -1,-1c0,-0.552 0.448,-1 1,-1c0,0 0,0 0,0Z"/><path d="M16,8c0.552,0 1,0.448 1,1c0,0.552 -0.448,1 -1,1c-0.552,0 -1,-0.448 -1,-1c0,-0.552 0.448,-1 1,-1c0,0 0,0 0,0Z"/><path d="M5,15c0,-0.552 0.448,-1 1,-1c0.552,0 1,0.448 1,1c0,0.552 -0.448,1 -1,1c-0.552,0 -1,-0.448 -1,-1c0,0 0,0 0,0Z"/><path d="M25,15c0,-0.552 0.448,-1 1,-1c0.552,0 1,0.448 1,1c0,0.552 -0.448,1 -1,1c-0.552,0 -1,-0.448 -1,-1c0,0 0,0 0,0Z"/><path d="M5,12c0,-0.552 0.448,-1 1,-1c0.552,0 1,0.448 1,1c0,0.552 -0.448,1 -1,1c-0.552,0 -1,-0.448 -1,-1c0,0 0,0 0,0Z"/><path d="M25,12c0,-0.552 0.448,-1 1,-1c0.552,0 1,0.448 1,1c0,0.552 -0.448,1 -1,1c-0.552,0 -1,-0.448 -1,-1c0,0 0,0 0,0Z"/><path d="M10,25.5c0,0 1.405,0 2.292,0c0.466,0 0.925,-0.108 1.341,-0.317c0.881,-0.44 2.367,-1.183 2.367,-1.183c0,0 1.486,0.743 2.367,1.183c0.416,0.209 0.875,0.317 1.341,0.317c0.887,0 2.292,0 2.292,0" style="fill:none;stroke:#000;stroke-width:1px;stroke-linejoin:miter;"/><path d="M13,19l6,0c0,0 0.171,0.257 0.372,0.557c0.159,0.239 0.208,0.535 0.134,0.812c-0.074,0.277 -0.263,0.509 -0.519,0.638c-0.871,0.435 -1.987,0.993 -1.987,0.993l0,2l-2,0l0,-2c0,0 -1.116,-0.558 -1.987,-0.993c-0.256,-0.129 -0.445,-0.361 -0.519,-0.638c-0.074,-0.277 -0.025,-0.573 0.134,-0.812c0.201,-0.3 0.372,-0.557 0.372,-0.557Z"/><path d="M11.5,14c0,0 0,0.932 0,1.757c0,0.796 -0.316,1.559 -0.879,2.122c-0.537,0.537 -1.121,1.121 -1.121,1.121" style="fill:none;stroke:#614216;stroke-width:1px;"/><path d="M20.5,14c0,0 0,0.932 0,1.757c0,0.796 0.316,1.559 0.879,2.122c0.537,0.537 1.121,1.121 1.121,1.121" style="fill:none;stroke:#614216;stroke-width:1px;"/><path d="M11,12c0.552,0 1,0.448 1,1c0,0.873 0,2 0,2c0,0 -0.364,0 -0.838,0c-1.291,0 -2.437,-0.826 -2.846,-2.051c-0.175,-0.527 -0.316,-0.949 -0.316,-0.949c0,0 1.815,0 3,0Z"/><path d="M21,12c-0.552,0 -1,0.448 -1,1c0,0.873 0,2 0,2c0,0 0.364,0 0.838,0c1.291,0 2.437,-0.826 2.846,-2.051c0.175,-0.527 0.316,-0.949 0.316,-0.949c0,0 -1.815,0 -3,0Z"/><path d="M7.5,20l1,1" style="fill:none;stroke:#000;stroke-width:2px;stroke-linecap:round;"/><path d="M6.5,16.5l1,1" style="fill:none;stroke:#000;stroke-width:2px;stroke-linecap:round;"/><path d="M24.5,20l-1,1" style="fill:none;stroke:#000;stroke-width:2px;stroke-linecap:round;"/><path d="M25,16.5l-1,1" style="fill:none;stroke:#000;stroke-width:2px;stroke-linecap:round;"/><path d="M22.5,9l1,1" style="fill:none;stroke:#000;stroke-width:2px;stroke-linecap:round;"/><path d="M9.5,9l-1,1" style="fill:none;stroke:#000;stroke-width:2px;stroke-linecap:round;"/></g></g></svg>