<?xml version="1.0" encoding="UTF-8" standalone="no"?><!DOCTYPE svg PUBLIC "-//W3C//DTD SVG 1.1//EN" "http://www.w3.org/Graphics/SVG/1.1/DTD/svg11.dtd"><svg width="100%" height="100%" viewBox="0 0 32 32" version="1.1" xmlns="http://www.w3.org/2000/svg" xmlns:xlink="http://www.w3.org/1999/xlink" xml:space="preserve" xmlns:serif="http://www.serif.com/" style="fill-rule:evenodd;clip-rule:evenodd;stroke-linejoin:round;stroke-miterlimit:1.5;"><rect id="leopard" x="0" y="0" width="32" height="32" style="fill:none;"/><clipPath id="_clip1"><rect x="0" y="0" width="32" height="32"/></clipPath><g clip-path="url(#_clip1)"><g id="outline"><path d="M18,9l8,5c0,0 0.864,-0.432 1.789,-0.894c1.355,-0.678 2.211,-2.063 2.211,-3.578c0,-1.017 0,-2.208 0,-3.292c0,-0.693 -0.359,-1.337 -0.949,-1.701c-0.589,-0.365 -1.325,-0.398 -1.945,-0.088c-3.551,1.776 -9.106,4.553 -9.106,4.553Z" style="fill:none;stroke:#000;stroke-width:4px;"/><path d="M14,9l-8,5c0,0 -0.864,-0.432 -1.789,-0.894c-1.355,-0.678 -2.211,-2.063 -2.211,-3.578c0,-1.017 0,-2.208 0,-3.292c0,-0.693 0.359,-1.337 0.949,-1.701c0.589,-0.365 1.325,-0.398 1.945,-0.088c3.551,1.776 9.106,4.553 9.106,4.553Z" style="fill:none;stroke:#000;stroke-width:4px;"/><path d="M7.444,7.905c-1.551,1.33 -2.444,3.271 -2.444,5.315c0,1.108 0,2.351 0,3.466c0,2.122 0.843,4.157 2.343,5.657c1.683,1.683 3.657,3.657 3.657,3.657c0,0 0,0.001 0,0.002c0,0.795 0.316,1.558 0.878,2.12c0.562,0.562 1.325,0.878 2.12,0.878c1.266,0 2.736,0 4.002,0c1.657,0 3,-1.343 3,-3c0,0 0,0 0,0c0,0 1.974,-1.974 3.657,-3.657c1.5,-1.5 2.343,-3.535 2.343,-5.657c0,-1.115 0,-2.358 0,-3.466c0,-2.044 -0.893,-3.985 -2.444,-5.315c-0.708,-0.606 -1.478,-1.267 -2.181,-1.87c-1.533,-1.313 -3.484,-2.035 -5.503,-2.035c-0.573,0 -1.171,0 -1.744,0c-2.019,0 -3.97,0.722 -5.503,2.035c-0.703,0.603 -1.473,1.264 -2.181,1.87Z" style="fill:none;stroke:#000;stroke-width:4px;stroke-linecap:round;"/></g><g id="emoji"><path d="M18,9l8,5c0,0 0.864,-0.432 1.789,-0.894c1.355,-0.678 2.211,-2.063 2.211,-3.578c0,-1.017 0,-2.208 0,-3.292c0,-0.693 -0.359,-1.337 -0.949,-1.701c-0.589,-0.365 -1.325,-0.398 -1.945,-0.088c-3.551,1.776 -9.106,4.553 -9.106,4.553Z" style="fill:#ab7314;"/><clipPath id="_clip2"><path d="M18,9l8,5c0,0 0.864,-0.432 1.789,-0.894c1.355,-0.678 2.211,-2.063 2.211,-3.578c0,-1.017 0,-2.208 0,-3.292c0,-0.693 -0.359,-1.337 -0.949,-1.701c-0.589,-0.365 -1.325,-0.398 -1.945,-0.088c-3.551,1.776 -9.106,4.553 -9.106,4.553Z"/></clipPath><g clip-path="url(#_clip2)"><path d="M22,9c0,0 4.248,-2.124 6.553,-3.276c0.31,-0.155 0.678,-0.139 0.973,0.043c0.295,0.183 0.474,0.504 0.474,0.851c0,2.83 0,8.382 0,8.382l-8,0l0,-6Z" style="fill:#d3d3d3;"/></g><path d="M14,9l-8,5c0,0 -0.864,-0.432 -1.789,-0.894c-1.355,-0.678 -2.211,-2.063 -2.211,-3.578c0,-1.017 0,-2.208 0,-3.292c0,-0.693 0.359,-1.337 0.949,-1.701c0.589,-0.365 1.325,-0.398 1.945,-0.088c3.551,1.776 9.106,4.553 9.106,4.553Z" style="fill:#ab7314;"/><clipPath id="_clip3"><path d="M14,9l-8,5c0,0 -0.864,-0.432 -1.789,-0.894c-1.355,-0.678 -2.211,-2.063 -2.211,-3.578c0,-1.017 0,-2.208 0,-3.292c0,-0.693 0.359,-1.337 0.949,-1.701c0.589,-0.365 1.325,-0.398 1.945,-0.088c3.551,1.776 9.106,4.553 9.106,4.553Z"/></clipPath><g clip-path="url(#_clip3)"><path d="M10,9c0,0 -4.248,-2.124 -6.553,-3.276c-0.31,-0.155 -0.678,-0.139 -0.973,0.043c-0.295,0.183 -0.474,0.504 -0.474,0.851c0,2.83 0,8.382 0,8.382l8,0l0,-6Z" style="fill:#d3d3d3;"/></g><path d="M7.444,7.905c-1.551,1.33 -2.444,3.271 -2.444,5.315c0,1.108 0,2.351 0,3.466c0,2.122 0.843,4.157 2.343,5.657c1.683,1.683 3.657,3.657 3.657,3.657c0,0 0,0.001 0,0.002c0,0.795 0.316,1.558 0.878,2.12c0.562,0.562 1.325,0.878 2.12,0.878c1.266,0 2.736,0 4.002,0c1.657,0 3,-1.343 3,-3c0,0 0,0 0,0c0,0 1.974,-1.974 3.657,-3.657c1.5,-1.5 2.343,-3.535 2.343,-5.657c0,-1.115 0,-2.358 0,-3.466c0,-2.044 -0.893,-3.985 -2.444,-5.315c-0.708,-0.606 -1.478,-1.267 -2.181,-1.87c-1.533,-1.313 -3.484,-2.035 -5.503,-2.035c-0.573,0 -1.171,0 -1.744,0c-2.019,0 -3.97,0.722 -5.503,2.035c-0.703,0.603 -1.473,1.264 -2.181,1.87Z" style="fill:#e9ae41;"/><clipPath id="_clip4"><path d="M7.444,7.905c-1.551,1.33 -2.444,3.271 -2.444,5.315c0,1.108 0,2.351 0,3.466c0,2.122 0.843,4.157 2.343,5.657c1.683,1.683 3.657,3.657 3.657,3.657c0,0 0,0.001 0,0.002c0,0.795 0.316,1.558 0.878,2.12c0.562,0.562 1.325,0.878 2.12,0.878c1.266,0 2.736,0 4.002,0c1.657,0 3,-1.343 3,-3c0,0 0,0 0,0c0,0 1.974,-1.974 3.657,-3.657c1.5,-1.5 2.343,-3.535 2.343,-5.657c0,-1.115 0,-2.358 0,-3.466c0,-2.044 -0.893,-3.985 -2.444,-5.315c-0.708,-0.606 -1.478,-1.267 -2.181,-1.87c-1.533,-1.313 -3.484,-2.035 -5.503,-2.035c-0.573,0 -1.171,0 -1.744,0c-2.019,0 -3.97,0.722 -5.503,2.035c-0.703,0.603 -1.473,1.264 -2.181,1.87Z"/></clipPath><g clip-path="url(#_clip4)"><path d="M19,21l0,2c0,0 1,0 2,0c1.105,0 2,-0.895 2,-2c0,0 0,0 0,0l2,-2l4,0l0,12l-26,0l0,-12l4,0l2,2c0,0 0,0.001 0,0.002c0,1.103 0.895,1.998 1.998,1.998c1.001,0 2.002,0 2.002,0l0,-2l6,0Z" style="fill:#f1f1f1;"/></g><path d="M19,5c0.552,0 1,0.448 1,1c0,0.552 -0.448,1 -1,1c-0.552,0 -1,-0.448 -1,-1c0,-0.552 0.448,-1 1,-1c0,0 0,0 0,0Z"/><path d="M13,5c0.552,0 1,0.448 1,1c0,0.552 -0.448,1 -1,1c-0.552,0 -1,-0.448 -1,-1c0,-0.552 0.448,-1 1,-1c0,0 0,0 0,0Z"/><path d="M22,8l1,1" style="fill:none;stroke:#000;stroke-width:2px;stroke-linecap:round;"/><path d="M10,8l-1,1" style="fill:none;stroke:#000;stroke-width:2px;stroke-linecap:round;"/><path d="M13,9l-1,0.5" style="fill:none;stroke:#000;stroke-width:2px;stroke-linecap:round;"/><path d="M19,9l1,0.5" style="fill:none;stroke:#000;stroke-width:2px;stroke-linecap:round;"/><path d="M25,11c0.552,0 1,0.448 1,1c0,0.552 -0.448,1 -1,1c-0.552,0 -1,-0.448 -1,-1c0,-0.552 0.448,-1 1,-1c0,0 0,0 0,0Z"/><path d="M7,11c0.552,0 1,0.448 1,1c0,0.552 -0.448,1 -1,1c-0.552,0 -1,-0.448 -1,-1c0,-0.552 0.448,-1 1,-1c0,0 0,0 0,0Z"/><path d="M16,7c0.552,0 1,0.448 1,1c0,0.552 -0.448,1 -1,1c-0.552,0 -1,-0.448 -1,-1c0,-0.552 0.448,-1 1,-1c0,0 0,0 0,0Z"/><path d="M16,4c0.552,0 1,0.448 1,1c0,0.552 -0.448,1 -1,1c-0.552,0 -1,-0.448 -1,-1c0,-0.552 0.448,-1 1,-1c0,0 0,0 0,0Z"/><path d="M16,10c0.552,0 1,0.448 1,1c0,0.552 -0.448,1 -1,1c-0.552,0 -1,-0.448 -1,-1c0,-0.552 0.448,-1 1,-1c0,0 0,0 0,0Z"/><path d="M11,26.5c0,0 0.716,0 1.292,0c0.466,0 0.925,-0.108 1.341,-0.317c0.881,-0.44 2.367,-1.183 2.367,-1.183c0,0 1.486,0.743 2.367,1.183c0.416,0.209 0.875,0.317 1.341,0.317c0.576,0 1.292,0 1.292,0" style="fill:none;stroke:#000;stroke-width:1px;stroke-linejoin:miter;"/><path d="M13,21l6,0c0,0 0,0.177 0,0.382c0,0.379 -0.214,0.725 -0.553,0.894c-0.592,0.296 -1.447,0.724 -1.447,0.724l0,2l-2,0l0,-2c0,0 -0.855,-0.428 -1.447,-0.724c-0.339,-0.169 -0.553,-0.515 -0.553,-0.894c0,-0.205 0,-0.382 0,-0.382Z"/><path d="M20.5,15c0,0 0,0.716 0,1.292c0,0.466 0.108,0.925 0.317,1.341c0.293,0.586 0.683,1.367 0.683,1.367" style="fill:none;stroke:#6f4b0d;stroke-width:1px;"/><path d="M11.5,15c0,0 0,0.716 0,1.292c0,0.466 -0.108,0.925 -0.317,1.341c-0.293,0.586 -0.683,1.367 -0.683,1.367" style="fill:none;stroke:#6f4b0d;stroke-width:1px;"/><path d="M11,13c0.552,0 1,0.448 1,1c0,0.873 0,2 0,2c0,0 -0.364,0 -0.838,0c-1.291,0 -2.437,-0.826 -2.846,-2.051c-0.175,-0.527 -0.316,-0.949 -0.316,-0.949c0,0 1.815,0 3,0Z"/><path d="M21,13c-0.552,0 -1,0.448 -1,1c0,0.873 0,2 0,2c0,0 0.364,0 0.838,0c1.291,0 2.437,-0.826 2.846,-2.051c0.175,-0.527 0.316,-0.949 0.316,-0.949c0,0 -1.815,0 -3,0Z"/><path d="M25,16l0.5,1" style="fill:none;stroke:#000;stroke-width:2px;stroke-linecap:round;"/><path d="M7,16l-0.5,1" style="fill:none;stroke:#000;stroke-width:2px;stroke-linecap:round;"/><path d="M24,19c0.552,0 1,0.448 1,1c0,0.552 -0.448,1 -1,1c-0.552,0 -1,-0.448 -1,-1c0,-0.552 0.448,-1 1,-1c0,0 0,0 0,0Z"/><path d="M8,19c0.552,0 1,0.448 1,1c0,0.552 -0.448,1 -1,1c-0.552,0 -1,-0.448 -1,-1c0,-0.552 0.448,-1 1,-1c0,0 0,0 0,0Z"/><path d="M22,22c0.552,0 1,0.448 1,1c0,0.552 -0.448,1 -1,1c-0.552,0 -1,-0.448 -1,-1c0,-0.552 0.448,-1 1,-1c0,0 0,0 0,0Z"/><path d="M10,22c0.552,0 1,0.448 1,1c0,0.552 -0.448,1 -1,1c-0.552,0 -1,-0.448 -1,-1c0,-0.552 0.448,-1 1,-1c0,0 0,0 0,0Z"/></g></g></svg>