<?xml version="1.0" encoding="UTF-8" standalone="no"?><!DOCTYPE svg PUBLIC "-//W3C//DTD SVG 1.1//EN" "http://www.w3.org/Graphics/SVG/1.1/DTD/svg11.dtd"><svg width="100%" height="100%" viewBox="0 0 32 32" version="1.1" xmlns="http://www.w3.org/2000/svg" xmlns:xlink="http://www.w3.org/1999/xlink" xml:space="preserve" xmlns:serif="http://www.serif.com/" style="fill-rule:evenodd;clip-rule:evenodd;stroke-linejoin:round;stroke-miterlimit:1.5;"><rect id="lion_with_mane" x="0" y="0" width="32" height="32" style="fill:none;"/><clipPath id="_clip1"><rect x="0" y="0" width="32" height="32"/></clipPath><g clip-path="url(#_clip1)"><g id="outline"><path d="M16,30l-2,-2l-2,2l-3,-3l0,3l-4,-4l-2,2l0,-9l-1,1c0,0 0,-4.594 0,-6.82c0,-0.776 0.181,-1.541 0.528,-2.236c0.861,-1.721 2.472,-4.944 2.472,-4.944l-2,0l6,-3l-1,-1c0,0 2.773,0 4.189,0c0.537,0 1.071,0.087 1.581,0.257c0.889,0.296 2.23,0.743 2.23,0.743c0,0 1.341,-0.447 2.23,-0.743c0.51,-0.17 1.044,-0.257 1.581,-0.257c1.416,0 4.189,0 4.189,0l-1,1l6,3l-2,0c0,0 1.611,3.223 2.472,4.944c0.347,0.695 0.528,1.46 0.528,2.236c0,2.226 0,6.82 0,6.82l-1,-1l0,9l-2,-2l-4,4l0,-3l-3,3l-2,-2l-2,2Z" style="fill:none;stroke:#000;stroke-width:4px;"/><path d="M22,5l5,5c0,0 0.339,-0.169 0.789,-0.394c1.355,-0.678 2.211,-2.063 2.211,-3.578c0,-0.344 0,-0.694 0,-1.028c0,-1.105 -0.895,-2 -2,-2c-0.464,0 -0.928,0 -1.292,0c-0.466,0 -0.925,0.108 -1.341,0.317c-1.128,0.564 -3.367,1.683 -3.367,1.683Z" style="fill:none;stroke:#000;stroke-width:4px;"/><path d="M10,5l-5,5c0,0 -0.339,-0.169 -0.789,-0.394c-1.355,-0.678 -2.211,-2.063 -2.211,-3.578c0,-0.344 0,-0.694 0,-1.028c0,-1.105 0.895,-2 2,-2c0.464,0 0.928,0 1.292,0c0.466,0 0.925,0.108 1.341,0.317c1.128,0.564 3.367,1.683 3.367,1.683Z" style="fill:none;stroke:#000;stroke-width:4px;"/></g><g id="emoji"><path d="M16,30l-2,-2l-2,2l-3,-3l0,3l-4,-4l-2,2l0,-9l-1,1c0,0 0,-4.594 0,-6.82c0,-0.776 0.181,-1.541 0.528,-2.236c0.861,-1.721 2.472,-4.944 2.472,-4.944l-2,0l6,-3l-1,-1c0,0 2.773,0 4.189,0c0.537,0 1.071,0.087 1.581,0.257c0.889,0.296 2.23,0.743 2.23,0.743c0,0 1.341,-0.447 2.23,-0.743c0.51,-0.17 1.044,-0.257 1.581,-0.257c1.416,0 4.189,0 4.189,0l-1,1l6,3l-2,0c0,0 1.611,3.223 2.472,4.944c0.347,0.695 0.528,1.46 0.528,2.236c0,2.226 0,6.82 0,6.82l-1,-1l0,9l-2,-2l-4,4l0,-3l-3,3l-2,-2l-2,2Z" style="fill:#865227;"/><path d="M7.879,9.121c-0.563,0.563 -0.879,1.326 -0.879,2.122c0,1.606 0,4.367 0,5.813c0,0.621 0.145,1.233 0.422,1.789c0.583,1.165 1.654,3.306 2.472,4.944c0.678,1.355 2.063,2.211 3.578,2.211c1.541,0 3.515,0 5.056,0c1.515,0 2.9,-0.856 3.578,-2.211c0.818,-1.638 1.889,-3.779 2.472,-4.944c0.277,-0.556 0.422,-1.168 0.422,-1.789c0,-1.446 0,-4.207 0,-5.813c0,-0.796 -0.316,-1.559 -0.879,-2.122c-0.666,-0.666 -1.576,-1.576 -2.242,-2.242c-0.563,-0.563 -1.326,-0.879 -2.122,-0.879c-0.479,0 -0.995,0 -1.343,0c-0.265,0 -0.519,0.105 -0.707,0.293c-0.555,0.555 -1.707,1.707 -1.707,1.707c0,0 -1.152,-1.152 -1.707,-1.707c-0.188,-0.188 -0.442,-0.293 -0.707,-0.293c-0.348,0 -0.864,0 -1.343,0c-0.796,0 -1.559,0.316 -2.122,0.879c-0.666,0.666 -1.576,1.576 -2.242,2.242Z" style="fill:#cf9f5a;"/><path d="M12,23l3,-1l1,-1l1,1l3,1" style="fill:none;stroke:#000;stroke-width:1px;stroke-linejoin:miter;"/><path d="M13,14l-1,-1l-1,0l1,1l0,3l1,1l1,0l-1,-1l0,-3Z" style="fill:#a3722f;"/><path d="M19,14l1,-1l1,0l-1,1l0,3l-1,1l-1,0l1,-1l0,-3Z" style="fill:#a3722f;"/><path d="M13,17l6,0c0,0 0,0.177 0,0.382c0,0.379 -0.214,0.725 -0.553,0.894c-0.278,0.14 -0.616,0.308 -0.894,0.448c-0.339,0.169 -0.553,0.515 -0.553,0.894c0,0.205 0,0.382 0,0.382l-2,0c0,0 0,-0.177 0,-0.382c0,-0.379 -0.214,-0.725 -0.553,-0.894c-0.278,-0.14 -0.616,-0.308 -0.894,-0.448c-0.339,-0.169 -0.553,-0.515 -0.553,-0.894c0,-0.205 0,-0.382 0,-0.382Z"/><path d="M20,12c-0.552,0 -1,0.448 -1,1c0,0.5 0,1 0,1c0,0 1.235,0 1.764,0c0.155,0 0.308,-0.036 0.447,-0.106c0.514,-0.257 1.789,-0.894 1.789,-0.894c0,0 0,0 0,0c0,-0.552 -0.448,-1 -1,-1c-0.611,0 -1.389,0 -2,0Z"/><path d="M12,12c0.552,0 1,0.448 1,1c0,0.5 0,1 0,1c0,0 -1.235,0 -1.764,0c-0.155,0 -0.308,-0.036 -0.447,-0.106c-0.514,-0.257 -1.789,-0.894 -1.789,-0.894c0,0 0,0 0,0c0,-0.552 0.448,-1 1,-1c0.611,0 1.389,0 2,0Z"/><path d="M22,5l5,5c0,0 0.339,-0.169 0.789,-0.394c1.355,-0.678 2.211,-2.063 2.211,-3.578c0,-0.344 0,-0.694 0,-1.028c0,-1.105 -0.895,-2 -2,-2c-0.464,0 -0.928,0 -1.292,0c-0.466,0 -0.925,0.108 -1.341,0.317c-1.128,0.564 -3.367,1.683 -3.367,1.683Z" style="fill:#cf9f5a;"/><clipPath id="_clip2"><path d="M22,5l5,5c0,0 0.339,-0.169 0.789,-0.394c1.355,-0.678 2.211,-2.063 2.211,-3.578c0,-0.344 0,-0.694 0,-1.028c0,-1.105 -0.895,-2 -2,-2c-0.464,0 -0.928,0 -1.292,0c-0.466,0 -0.925,0.108 -1.341,0.317c-1.128,0.564 -3.367,1.683 -3.367,1.683Z"/></clipPath><g clip-path="url(#_clip2)"><path d="M22,9.5l5,-5l2,0" style="fill:none;stroke:#a3722f;stroke-width:1px;"/></g><path d="M10,5l-5,5c0,0 -0.339,-0.169 -0.789,-0.394c-1.355,-0.678 -2.211,-2.063 -2.211,-3.578c0,-0.344 0,-0.694 0,-1.028c0,-1.105 0.895,-2 2,-2c0.464,0 0.928,0 1.292,0c0.466,0 0.925,0.108 1.341,0.317c1.128,0.564 3.367,1.683 3.367,1.683Z" style="fill:#cf9f5a;"/><clipPath id="_clip3"><path d="M10,5l-5,5c0,0 -0.339,-0.169 -0.789,-0.394c-1.355,-0.678 -2.211,-2.063 -2.211,-3.578c0,-0.344 0,-0.694 0,-1.028c0,-1.105 0.895,-2 2,-2c0.464,0 0.928,0 1.292,0c0.466,0 0.925,0.108 1.341,0.317c1.128,0.564 3.367,1.683 3.367,1.683Z"/></clipPath><g clip-path="url(#_clip3)"><path d="M10,9.5l-5,-5l-2,0" style="fill:none;stroke:#a3722f;stroke-width:1px;"/></g></g></g></svg>