<?xml version="1.0" encoding="UTF-8" standalone="no"?><!DOCTYPE svg PUBLIC "-//W3C//DTD SVG 1.1//EN" "http://www.w3.org/Graphics/SVG/1.1/DTD/svg11.dtd"><svg width="100%" height="100%" viewBox="0 0 32 32" version="1.1" xmlns="http://www.w3.org/2000/svg" xmlns:xlink="http://www.w3.org/1999/xlink" xml:space="preserve" xmlns:serif="http://www.serif.com/" style="fill-rule:evenodd;clip-rule:evenodd;stroke-linejoin:round;stroke-miterlimit:1.5;"><rect id="lion_without_mane" x="0" y="0" width="32" height="32" style="fill:none;"/><g id="outline"><path d="M21,7l5,5c0,0 0.573,-0.382 1.219,-0.813c1.113,-0.741 1.781,-1.99 1.781,-3.328c0,-0.605 0,-1.262 0,-1.859c0,-1.105 -0.895,-2 -2,-2c-0.594,0 -1.227,0 -1.757,0c-0.796,0 -1.559,0.316 -2.122,0.879c-0.885,0.885 -2.121,2.121 -2.121,2.121Z" style="fill:none;stroke:#000;stroke-width:4px;"/><path d="M11,7l-5,5c0,0 -0.573,-0.382 -1.219,-0.813c-1.113,-0.741 -1.781,-1.99 -1.781,-3.328c0,-0.605 0,-1.262 0,-1.859c0,-1.105 0.895,-2 2,-2c0.594,0 1.227,0 1.757,0c0.796,0 1.559,0.316 2.122,0.879c0.885,0.885 2.121,2.121 2.121,2.121Z" style="fill:none;stroke:#000;stroke-width:4px;"/><path d="M6.879,10.121c-0.563,0.563 -0.879,1.326 -0.879,2.122c0,1.073 0,2.64 0,3.868c0,1.242 0.289,2.467 0.845,3.578c0.839,1.678 2.129,4.26 3.049,6.1c0.678,1.355 2.063,2.211 3.578,2.211c1.541,0 3.515,0 5.056,0c1.515,0 2.9,-0.856 3.578,-2.211c0.92,-1.84 2.21,-4.422 3.049,-6.1c0.556,-1.111 0.845,-2.336 0.845,-3.578c0,-1.228 0,-2.795 0,-3.868c0,-0.796 -0.316,-1.559 -0.879,-2.122c-1.177,-1.177 -3.121,-3.121 -3.121,-3.121l-12,0c0,0 -1.944,1.944 -3.121,3.121Z" style="fill:none;stroke:#000;stroke-width:4px;stroke-linecap:round;"/></g><g id="emoji"><path d="M6.879,10.121c-0.563,0.563 -0.879,1.326 -0.879,2.122c0,1.073 0,2.64 0,3.868c0,1.242 0.289,2.467 0.845,3.578c0.839,1.678 2.129,4.26 3.049,6.1c0.678,1.355 2.063,2.211 3.578,2.211c1.541,0 3.515,0 5.056,0c1.515,0 2.9,-0.856 3.578,-2.211c0.92,-1.84 2.21,-4.422 3.049,-6.1c0.556,-1.111 0.845,-2.336 0.845,-3.578c0,-1.228 0,-2.795 0,-3.868c0,-0.796 -0.316,-1.559 -0.879,-2.122c-1.177,-1.177 -3.121,-3.121 -3.121,-3.121l-12,0c0,0 -1.944,1.944 -3.121,3.121Z" style="fill:#cf9f5a;"/><path d="M12,25l3,-1l1,-1l1,1l3,1" style="fill:none;stroke:#000;stroke-width:1px;stroke-linejoin:miter;"/><path d="M13,16l-1,-1l-1,0l1,1l0,3l1,1l1,0l-1,-1l0,-3Z" style="fill:#a3722f;"/><path d="M19,16l1,-1l1,0l-1,1l0,3l-1,1l-1,0l1,-1l0,-3Z" style="fill:#a3722f;"/><path d="M13,19l6,0c0,0 0,0.177 0,0.382c0,0.379 -0.214,0.725 -0.553,0.894c-0.278,0.14 -0.616,0.308 -0.894,0.448c-0.339,0.169 -0.553,0.515 -0.553,0.894c0,0.205 0,0.382 0,0.382l-2,0c0,0 0,-0.177 0,-0.382c0,-0.379 -0.214,-0.725 -0.553,-0.894c-0.278,-0.14 -0.616,-0.308 -0.894,-0.448c-0.339,-0.169 -0.553,-0.515 -0.553,-0.894c0,-0.205 0,-0.382 0,-0.382Z"/><path d="M20,14c-0.552,0 -1,0.448 -1,1c0,0.5 0,1 0,1c0,0 1.235,0 1.764,0c0.155,0 0.308,-0.036 0.447,-0.106c0.514,-0.257 1.789,-0.894 1.789,-0.894c0,0 0,0 0,0c0,-0.552 -0.448,-1 -1,-1c-0.611,0 -1.389,0 -2,0Z"/><path d="M12,14c0.552,0 1,0.448 1,1c0,0.5 0,1 0,1c0,0 -1.235,0 -1.764,0c-0.155,0 -0.308,-0.036 -0.447,-0.106c-0.514,-0.257 -1.789,-0.894 -1.789,-0.894c0,0 0,0 0,0c0,-0.552 0.448,-1 1,-1c0.611,0 1.389,0 2,0Z"/><path d="M21,7l5,5c0,0 0.573,-0.382 1.219,-0.813c1.113,-0.741 1.781,-1.99 1.781,-3.328c0,-0.605 0,-1.262 0,-1.859c0,-1.105 -0.895,-2 -2,-2c-0.594,0 -1.227,0 -1.757,0c-0.796,0 -1.559,0.316 -2.122,0.879c-0.885,0.885 -2.121,2.121 -2.121,2.121Z" style="fill:#cf9f5a;"/><clipPath id="_clip1"><path d="M21,7l5,5c0,0 0.573,-0.382 1.219,-0.813c1.113,-0.741 1.781,-1.99 1.781,-3.328c0,-0.605 0,-1.262 0,-1.859c0,-1.105 -0.895,-2 -2,-2c-0.594,0 -1.227,0 -1.757,0c-0.796,0 -1.559,0.316 -2.122,0.879c-0.885,0.885 -2.121,2.121 -2.121,2.121Z"/></clipPath><g clip-path="url(#_clip1)"><path d="M21,11.5l5,-5l2,0" style="fill:none;stroke:#a3722f;stroke-width:1px;"/></g><path d="M11,7l-5,5c0,0 -0.573,-0.382 -1.219,-0.813c-1.113,-0.741 -1.781,-1.99 -1.781,-3.328c0,-0.605 0,-1.262 0,-1.859c0,-1.105 0.895,-2 2,-2c0.594,0 1.227,0 1.757,0c0.796,0 1.559,0.316 2.122,0.879c0.885,0.885 2.121,2.121 2.121,2.121Z" style="fill:#cf9f5a;"/><clipPath id="_clip2"><path d="M11,7l-5,5c0,0 -0.573,-0.382 -1.219,-0.813c-1.113,-0.741 -1.781,-1.99 -1.781,-3.328c0,-0.605 0,-1.262 0,-1.859c0,-1.105 0.895,-2 2,-2c0.594,0 1.227,0 1.757,0c0.796,0 1.559,0.316 2.122,0.879c0.885,0.885 2.121,2.121 2.121,2.121Z"/></clipPath><g clip-path="url(#_clip2)"><path d="M11,11.5l-5,-5l-2,0" style="fill:none;stroke:#a3722f;stroke-width:1px;"/></g></g></svg>