<?xml version="1.0" encoding="UTF-8" standalone="no"?><!DOCTYPE svg PUBLIC "-//W3C//DTD SVG 1.1//EN" "http://www.w3.org/Graphics/SVG/1.1/DTD/svg11.dtd"><svg width="100%" height="100%" viewBox="0 0 32 32" version="1.1" xmlns="http://www.w3.org/2000/svg" xmlns:xlink="http://www.w3.org/1999/xlink" xml:space="preserve" xmlns:serif="http://www.serif.com/" style="fill-rule:evenodd;clip-rule:evenodd;stroke-linejoin:round;stroke-miterlimit:1.5;"><rect id="lynx" x="0" y="0" width="32" height="32" style="fill:none;"/><clipPath id="_clip1"><rect x="0" y="0" width="32" height="32"/></clipPath><g clip-path="url(#_clip1)"><g id="outline"><path d="M4.6,3.6l-1.6,-1.6l2,0l0.85,0.85c0.137,0.039 0.267,0.107 0.379,0.203l4.4,3.772c1.38,-0.54 2.861,-0.825 4.371,-0.825c0.665,0 1.335,0 2,0c1.51,0 2.991,0.285 4.371,0.825l4.4,-3.772c0.112,-0.096 0.242,-0.164 0.379,-0.203l0.85,-0.85l2,0l-1.6,1.6l0.045,0.18c0.366,1.464 0.427,2.988 0.179,4.477l-0.54,3.238c1.241,1.924 1.916,4.18 1.916,6.505c0,1.099 0,2.063 0,2.769c0,0.818 -0.1,1.632 -0.299,2.425c-0.294,1.179 -0.701,2.806 -0.701,2.806l-2,-1l0,4l-4,-2l-12,0l-4,2l0,-4l-2,1c0,0 -0.407,-1.627 -0.701,-2.806c-0.199,-0.793 -0.299,-1.607 -0.299,-2.425c0,-0.706 0,-1.67 0,-2.769c0,-2.325 0.675,-4.581 1.916,-6.505l-0.54,-3.238c-0.248,-1.489 -0.187,-3.013 0.179,-4.477l0.045,-0.18Z" style="fill:none;stroke:#000;stroke-width:4px;"/></g><g id="emoji"><g><path d="M3,18l2,-1.5l22,0l2,1.5l0,2.769c0,0.818 -0.1,1.632 -0.299,2.425c-0.294,1.179 -0.701,2.806 -0.701,2.806l-2,-1l0,4l-4,-2l-12,0l-4,2l0,-4l-2,1c0,0 -0.407,-1.627 -0.701,-2.806c-0.199,-0.793 -0.299,-1.607 -0.299,-2.425c0,-0.706 0,-1.67 0,-2.769l0,0Zm13.952,-12l-1.952,0c0,0 1.952,0 1.952,0Z" style="fill:#e3d9cb;"/><path d="M20,22l-4,-8.146l1,-2.854l1.93,-1l8.07,1.367c1.295,1.952 2,4.256 2,6.633l-1.5,0c-0.944,0 -1.833,0.445 -2.4,1.2c-0.19,0.253 -0.395,0.527 -0.6,0.8c-0.944,1.259 -2.426,2 -4,2l-0.5,0Zm-15,-10.633l8.07,-1.367l1.93,1l1,2.854l-4,8.146l-0.5,0c-1.574,0 -3.056,-0.741 -4,-2c-0.205,-0.273 -0.41,-0.547 -0.6,-0.8c-0.567,-0.755 -1.456,-1.2 -2.4,-1.2l-1.5,0c0,-2.377 0.705,-4.681 2,-6.633Z" style="fill:#c5b296;"/><path d="M15,6l2,0l1,1l1,-0.832c0.398,0.067 0.792,0.154 1.179,0.261c0.314,0.645 0.834,0.915 1.817,0.66c1.286,0.589 2.47,1.406 3.489,2.426c0.57,0.569 1.076,1.19 1.515,1.852l0,0.633c0,1.105 -0.895,2 -2,2c-0.156,0 -0.313,0 -0.465,0c-0.959,0 -1.854,-0.479 -2.386,-1.277c-0.001,0 -0.001,0 -0.001,-0.001c-0.717,-1.076 -1.925,-1.722 -3.218,-1.722c-0.518,0 -0.93,0 -0.93,0c0,0 0.138,0.069 0.342,0.171c1.016,0.508 1.658,1.547 1.658,2.683c0,2.891 0,8.146 0,8.146l-4,1l-4,-1c0,0 0,-5.255 0,-8.146c0,-1.136 0.642,-2.175 1.658,-2.683c0.204,-0.102 0.342,-0.171 0.342,-0.171c0,0 -0.412,0 -0.93,0c-1.293,0 -2.501,0.646 -3.218,1.722c0,0.001 0,0.001 -0.001,0.001c-0.532,0.798 -1.427,1.277 -2.386,1.277c-0.152,0 -0.309,0 -0.465,0c-1.105,0 -2,-0.895 -2,-2l0,-0.633c0.439,-0.662 0.945,-1.283 1.515,-1.852c1.019,-1.02 2.203,-1.837 3.489,-2.426c0.728,0.099 1.446,-0.214 1.817,-0.66c0.387,-0.107 0.781,-0.194 1.179,-0.261l1,0.832l1,-1Z" style="fill:#a88a5f;"/></g><g><path d="M21,14c-1.657,0 -3,1.343 -3,3c0,1.063 0,2 0,2l1,0l5,-4l-2,-1c0,0 0,0 0,-0.001c0,-0.552 -0.447,-0.999 -0.999,-0.999c-0.001,0 -0.001,0 -0.001,0l0,1c0,0 0,0 0,0Z" style="fill:#ebe4da;"/><path d="M11,14c1.657,0 3,1.343 3,3c0,1.063 0,2 0,2l-1,0l-5,-4l2,-1c0,0 0,0 0,-0.001c0,-0.552 0.447,-0.999 0.999,-0.999c0.001,0 0.001,0 0.001,0l0,1c0,0 0,0 0,0Z" style="fill:#ebe4da;"/><path d="M23,16l-3,3l0,2l1,-1c0,0 0,0 0,0c1.763,0 3.3,-1.2 3.728,-2.91c0.154,-0.619 0.272,-1.09 0.272,-1.09l-2,0Z" style="fill:#ebe4da;"/><path d="M9,16l3,3l0,2l-1,-1c0,0 0,0 0,0c-1.763,0 -3.3,-1.2 -3.728,-2.91c-0.154,-0.619 -0.272,-1.09 -0.272,-1.09l2,0Z" style="fill:#ebe4da;"/></g><g><path d="M23,15c0,0 2.541,0 4,0c0.265,0 0.52,0.105 0.707,0.293c0.188,0.187 0.293,0.442 0.293,0.707c0,0.174 0,0.347 0,0.5c0,0.133 -0.053,0.26 -0.146,0.354c-0.094,0.093 -0.221,0.146 -0.354,0.146c-0.276,0 -0.5,-0.224 -0.5,-0.5c0,-0.25 0,-0.5 0,-0.5l-4,0l0,-1Z" style="fill:#3e2d15;"/><path d="M9,15c0,0 -2.541,0 -4,0c-0.265,0 -0.52,0.105 -0.707,0.293c-0.188,0.187 -0.293,0.442 -0.293,0.707c0,0.174 0,0.347 0,0.5c0,0.133 0.053,0.26 0.146,0.354c0.094,0.093 0.221,0.146 0.354,0.146c0.276,0 0.5,-0.224 0.5,-0.5c0,-0.25 0,-0.5 0,-0.5l4,0l0,-1Z" style="fill:#3e2d15;"/><path d="M28,20c0,-0.552 -0.448,-1 -1,-1c-0.552,0 -1,0.448 -1,1c0,0.54 0,1.178 0,1.586c0,0.265 -0.105,0.519 -0.293,0.707c-0.207,0.207 -0.472,0.472 -0.612,0.612c-0.061,0.061 -0.095,0.144 -0.095,0.23c0,0 0,0 0,0.001c0,0.2 0.096,0.388 0.259,0.505c0.162,0.117 0.371,0.149 0.561,0.086c0.251,-0.084 0.535,-0.179 0.812,-0.271c0.817,-0.272 1.368,-1.037 1.368,-1.897c0,-0.517 0,-1.088 0,-1.559Z" style="fill:#3e2d15;"/><path d="M4,20c0,-0.552 0.448,-1 1,-1c0.552,0 1,0.448 1,1c0,0.54 0,1.178 0,1.586c0,0.265 0.105,0.519 0.293,0.707c0.207,0.207 0.472,0.472 0.612,0.612c0.061,0.061 0.095,0.144 0.095,0.23c0,0 0,0 0,0.001c0,0.2 -0.096,0.388 -0.259,0.505c-0.162,0.117 -0.371,0.149 -0.561,0.086c-0.251,-0.084 -0.535,-0.179 -0.812,-0.271c-0.817,-0.272 -1.368,-1.037 -1.368,-1.897c0,-0.517 0,-1.088 0,-1.559Z" style="fill:#3e2d15;"/></g><g><path d="M22,15c-0.796,0 -1.559,0.316 -2.121,0.879c-0.563,0.562 -0.879,1.325 -0.879,2.121c0,0.574 0,1 0,1c0,0 0.784,0 1.658,0c1.376,0 2.576,-0.937 2.91,-2.272c0.225,-0.902 0.432,-1.728 0.432,-1.728c0,0 -0.937,0 -2,0Z"/><path d="M10,15c0.796,0 1.559,0.316 2.121,0.879c0.563,0.562 0.879,1.325 0.879,2.121c0,0.574 0,1 0,1c0,0 -0.784,0 -1.658,0c-1.376,0 -2.576,-0.937 -2.91,-2.272c-0.225,-0.902 -0.432,-1.728 -0.432,-1.728c0,0 0.937,0 2,0Z"/></g><g><path d="M15,9.5c0,-0.133 -0.053,-0.26 -0.146,-0.354c-0.094,-0.093 -0.221,-0.146 -0.354,-0.146c-0.133,0 -0.26,0.053 -0.354,0.146c-0.093,0.094 -0.146,0.221 -0.146,0.354c0,0.305 0,0.695 0,1c0,0.133 0.053,0.26 0.146,0.354c0.094,0.093 0.221,0.146 0.354,0.146c0.133,0 0.26,-0.053 0.354,-0.146c0.093,-0.094 0.146,-0.221 0.146,-0.354c0,-0.305 0,-0.695 0,-1Zm3,0c0,-0.133 -0.053,-0.26 -0.146,-0.354c-0.094,-0.093 -0.221,-0.146 -0.354,-0.146c-0.133,0 -0.26,0.053 -0.354,0.146c-0.093,0.094 -0.146,0.221 -0.146,0.354c0,0.305 0,0.695 0,1c0,0.133 0.053,0.26 0.146,0.354c0.094,0.093 0.221,0.146 0.354,0.146c0.133,0 0.26,-0.053 0.354,-0.146c0.093,-0.094 0.146,-0.221 0.146,-0.354c0,-0.305 0,-0.695 0,-1Z" style="fill:#543f20;"/><path d="M17,6c0.675,0 1.343,0.057 2,0.168l0,0.832c0,0.552 -0.448,1 -1,1c-0.552,0 -1,-0.448 -1,-1l0,-1Zm-2,0l0,1c0,0.552 -0.448,1 -1,1c-0.552,0 -1,-0.448 -1,-1l0,-0.832c0.657,-0.111 1.325,-0.168 2,-0.168Zm5.179,0.429c0.623,0.171 1.231,0.392 1.817,0.66c-0.045,0.511 -0.474,0.911 -0.996,0.911c-0.552,0 -1,-0.448 -1,-1c0,-0.212 0.066,-0.409 0.179,-0.571Zm-8.358,0c0.113,0.162 0.179,0.359 0.179,0.571c0,0.552 -0.448,1 -1,1c-0.522,0 -0.951,-0.4 -0.996,-0.911c0.586,-0.268 1.194,-0.489 1.817,-0.66Z" style="fill:#543f20;"/></g><path d="M10,24c0,0 0,0 0,0c0,3.314 2.686,6 6,6c0,0 0,0 0,0c3.314,0 6,-2.686 6,-6c0,0 0,0 0,0" style="fill:none;stroke:#000;stroke-width:4px;stroke-linejoin:miter;"/><path d="M10,23l12,0c0,0 0,0.396 0,1c0,3.314 -2.686,6 -6,6c0,0 0,0 0,0c-3.314,0 -6,-2.686 -6,-6c0,-0.604 0,-1 0,-1Z" style="fill:#e3d9cb;"/><path d="M9,25c0,0 0.769,0.512 1.528,1.018c0.937,0.626 2.095,0.826 3.189,0.553c1.085,-0.271 2.283,-0.571 2.283,-0.571c0,0 1.198,0.3 2.283,0.571c1.094,0.273 2.252,0.073 3.189,-0.553c0.759,-0.506 1.528,-1.018 1.528,-1.018" style="fill:none;stroke:#000;stroke-width:1px;stroke-linejoin:miter;"/><g><path d="M24,5l3,-3l2,0l-4,4l-1,-1Z" style="fill:#333;"/><path d="M8,5l-3,-3l-2,0l4,4l1,-1Z" style="fill:#333;"/></g><path d="M20,8c0,0 0.641,0.128 1.465,0.293c2.263,0.453 4.254,1.786 5.535,3.707c0,0 0,0 0,0c0,0 0.34,-2.042 0.624,-3.743c0.248,-1.489 0.187,-3.013 -0.179,-4.477c-0.018,-0.07 -0.035,-0.141 -0.053,-0.21c-0.084,-0.337 -0.336,-0.605 -0.666,-0.711c-0.33,-0.105 -0.691,-0.032 -0.955,0.194c-2.007,1.721 -5.771,4.947 -5.771,4.947Z" style="fill:#a88a5f;"/><clipPath id="_clip2"><path d="M20,8c0,0 0.641,0.128 1.465,0.293c2.263,0.453 4.254,1.786 5.535,3.707c0,0 0,0 0,0c0,0 0.34,-2.042 0.624,-3.743c0.248,-1.489 0.187,-3.013 -0.179,-4.477c-0.018,-0.07 -0.035,-0.141 -0.053,-0.21c-0.084,-0.337 -0.336,-0.605 -0.666,-0.711c-0.33,-0.105 -0.691,-0.032 -0.955,0.194c-2.007,1.721 -5.771,4.947 -5.771,4.947Z"/></clipPath><g clip-path="url(#_clip2)"><path d="M18.541,9.529l7.729,3.821c0,0 0.481,-2.889 0.831,-4.99c0.236,-1.414 0.178,-2.861 -0.169,-4.252c-0.001,-0.001 -0.001,-0.001 -0.001,-0.002c-0.078,-0.312 -0.312,-0.561 -0.618,-0.659c-0.307,-0.097 -0.642,-0.03 -0.886,0.18c-2.215,1.899 -6.886,5.902 -6.886,5.902Z" style="fill:#dfd4c4;"/><path d="M26.443,2.812l0.032,0.002l0.031,0.002l0.032,0.003l0.031,0.004l0.032,0.005l0.031,0.007l0.032,0.007l0.031,0.008l0.031,0.009l0.031,0.011l0.03,0.011l0.03,0.012l0.029,0.013l0.029,0.014l0.028,0.015l0.028,0.016l0.027,0.017l0.026,0.017l0.026,0.018l0.025,0.019l0.025,0.02l0.024,0.02l0.023,0.021l0.023,0.022l0.022,0.023l0.021,0.023l0.02,0.024l0.02,0.025l0.019,0.025l0.018,0.026l0.017,0.026l0.017,0.027l0.015,0.028l0.015,0.028l0.014,0.028l0.013,0.029l0.012,0.03l0.011,0.03l0.011,0.03l0.009,0.031l0.008,0.032l0.053,0.21l0.034,0.138l0.031,0.138l0.03,0.138l0.028,0.138l0.026,0.139l0.025,0.139l0.022,0.139l0.021,0.139l0.019,0.14l0.018,0.14l0.015,0.14l0.014,0.14l0.012,0.14l0.01,0.14l0.008,0.141l0.007,0.14l0.004,0.141l0.003,0.141l0.002,0.141l-0.001,0.14l-0.003,0.141l-0.004,0.141l-0.006,0.141l-0.008,0.14l-0.01,0.141l-0.011,0.14l-0.013,0.141l-0.016,0.14l-0.016,0.14l-0.019,0.14l-0.021,0.14l-0.022,0.14l-1.457,8.743l-9.167,-6.429l8.771,-7.518l0.025,-0.021l0.026,-0.019l0.026,-0.019l0.027,-0.018l0.027,-0.017l0.027,-0.017l0.028,-0.015l0.028,-0.014l0.029,-0.014l0.029,-0.012l0.029,-0.012l0.03,-0.01l0.03,-0.01l0.03,-0.008l0.031,-0.008l0.031,-0.007l0.031,-0.006l0.031,-0.004l0.031,-0.004l0.031,-0.003l0.032,-0.002l0.031,-0.001l0.032,0Zm-0.027,1.006l-7.787,6.674l6.812,4.778l1.196,-7.175l0.021,-0.13l0.018,-0.127l0.018,-0.127l0.015,-0.127l0.014,-0.128l0.012,-0.128l0.01,-0.127l0.009,-0.128l0.007,-0.128l0.006,-0.128l0.004,-0.128l0.002,-0.128l0.001,-0.128l-0.001,-0.128l-0.003,-0.128l-0.004,-0.128l-0.006,-0.128l-0.008,-0.127l-0.009,-0.128l-0.011,-0.127l-0.012,-0.128l-0.014,-0.127l-0.016,-0.127l-0.018,-0.127l-0.019,-0.127l-0.02,-0.126l-0.022,-0.127l-0.024,-0.126l-0.026,-0.125l-0.027,-0.126l-0.029,-0.125l-0.031,-0.128l-0.05,-0.2l-0.002,-0.008l-0.006,0.006Z" style="fill:#a88a5f;"/></g><path d="M12,8c0,0 -0.641,0.128 -1.465,0.293c-2.263,0.453 -4.254,1.786 -5.535,3.707c0,0 0,0 0,0c0,0 -0.34,-2.042 -0.624,-3.743c-0.248,-1.489 -0.187,-3.013 0.179,-4.477c0.018,-0.07 0.035,-0.141 0.053,-0.21c0.084,-0.337 0.336,-0.605 0.666,-0.711c0.33,-0.105 0.691,-0.032 0.955,0.194c2.007,1.721 5.771,4.947 5.771,4.947Z" style="fill:#a88a5f;"/><clipPath id="_clip3"><path d="M12,8c0,0 -0.641,0.128 -1.465,0.293c-2.263,0.453 -4.254,1.786 -5.535,3.707c0,0 0,0 0,0c0,0 -0.34,-2.042 -0.624,-3.743c-0.248,-1.489 -0.187,-3.013 0.179,-4.477c0.018,-0.07 0.035,-0.141 0.053,-0.21c0.084,-0.337 0.336,-0.605 0.666,-0.711c0.33,-0.105 0.691,-0.032 0.955,0.194c2.007,1.721 5.771,4.947 5.771,4.947Z"/></clipPath><g clip-path="url(#_clip3)"><path d="M13.459,9.529l-7.729,3.821c0,0 -0.481,-2.889 -0.831,-4.99c-0.236,-1.414 -0.178,-2.861 0.169,-4.252c0.001,-0.001 0.001,-0.001 0.001,-0.002c0.078,-0.312 0.312,-0.561 0.618,-0.659c0.307,-0.097 0.642,-0.03 0.886,0.18c2.215,1.899 6.886,5.902 6.886,5.902Z" style="fill:#dfd4c4;"/><path d="M5.62,2.813l0.032,0.002l0.031,0.003l0.031,0.004l0.031,0.004l0.031,0.006l0.031,0.007l0.031,0.008l0.03,0.008l0.03,0.01l0.03,0.01l0.029,0.012l0.029,0.012l0.029,0.014l0.028,0.014l0.028,0.015l0.027,0.017l0.027,0.017l0.027,0.018l0.026,0.019l0.026,0.019l0.025,0.021l8.771,7.518l-9.167,6.429l-1.457,-8.743l-0.022,-0.14l-0.021,-0.14l-0.019,-0.14l-0.016,-0.14l-0.016,-0.14l-0.013,-0.141l-0.011,-0.14l-0.01,-0.141l-0.008,-0.14l-0.006,-0.141l-0.004,-0.141l-0.003,-0.141l-0.001,-0.14l0.002,-0.141l0.003,-0.141l0.004,-0.141l0.007,-0.14l0.008,-0.141l0.01,-0.14l0.012,-0.14l0.014,-0.14l0.015,-0.14l0.018,-0.14l0.019,-0.14l0.021,-0.139l0.022,-0.139l0.025,-0.139l0.026,-0.139l0.028,-0.138l0.03,-0.138l0.031,-0.138l0.034,-0.138l0.053,-0.21l0.008,-0.032l0.009,-0.031l0.011,-0.03l0.011,-0.03l0.012,-0.03l0.013,-0.029l0.014,-0.028l0.015,-0.028l0.015,-0.028l0.017,-0.027l0.017,-0.026l0.018,-0.026l0.019,-0.025l0.02,-0.025l0.02,-0.024l0.021,-0.023l0.022,-0.023l0.023,-0.022l0.023,-0.021l0.024,-0.02l0.025,-0.02l0.025,-0.019l0.026,-0.018l0.026,-0.017l0.027,-0.017l0.028,-0.016l0.028,-0.015l0.029,-0.014l0.029,-0.013l0.03,-0.012l0.03,-0.011l0.031,-0.011l0.031,-0.009l0.031,-0.008l0.032,-0.007l0.031,-0.007l0.032,-0.005l0.031,-0.004l0.032,-0.003l0.031,-0.002l0.032,-0.002l0.032,0l0.031,0.001Zm-0.044,1.007l-0.05,0.2l-0.031,0.128l-0.029,0.125l-0.027,0.126l-0.026,0.125l-0.024,0.127l-0.022,0.126l-0.02,0.126l-0.019,0.127l-0.018,0.127l-0.016,0.127l-0.014,0.127l-0.012,0.128l-0.011,0.127l-0.009,0.128l-0.008,0.127l-0.006,0.128l-0.004,0.128l-0.002,0.128l-0.002,0.128l0.001,0.128l0.002,0.128l0.004,0.128l0.006,0.128l0.007,0.128l0.009,0.128l0.01,0.127l0.012,0.128l0.014,0.128l0.016,0.127l0.017,0.127l0.018,0.127l0.021,0.131l1.196,7.174l6.812,-4.778l-7.787,-6.674l-0.006,-0.006l-0.002,0.008Z" style="fill:#a88a5f;"/></g><rect x="15" y="24" width="2" height="2.5"/><path d="M15.789,24.894c-1.161,-0.58 -2.103,-1.522 -2.683,-2.683c-0.065,-0.13 -0.106,-0.211 -0.106,-0.211c0,0 0.649,-0.325 1.208,-0.604c0.521,-0.26 1.095,-0.396 1.678,-0.396c0.076,0 0.152,0 0.228,0c0.583,0 1.157,0.136 1.678,0.396c0.559,0.279 1.208,0.604 1.208,0.604c0,0 -0.041,0.081 -0.106,0.211c-0.58,1.161 -1.522,2.103 -2.683,2.683c-0.13,0.065 -0.211,0.106 -0.211,0.106c0,0 -0.081,-0.041 -0.211,-0.106Z" style="fill:#7d4836;"/><path d="M14,27c0,0 0.081,0.041 0.211,0.106c1.126,0.563 2.452,0.563 3.578,0c0.13,-0.065 0.211,-0.106 0.211,-0.106l-2,-1l-2,1Z"/></g></g></svg>