<?xml version="1.0" encoding="UTF-8" standalone="no"?><!DOCTYPE svg PUBLIC "-//W3C//DTD SVG 1.1//EN" "http://www.w3.org/Graphics/SVG/1.1/DTD/svg11.dtd"><svg width="100%" height="100%" viewBox="0 0 32 32" version="1.1" xmlns="http://www.w3.org/2000/svg" xmlns:xlink="http://www.w3.org/1999/xlink" xml:space="preserve" xmlns:serif="http://www.serif.com/" style="fill-rule:evenodd;clip-rule:evenodd;stroke-linejoin:round;stroke-miterlimit:1.5;"><rect id="snow_leopard" x="0" y="0" width="32" height="32" style="fill:none;"/><clipPath id="_clip1"><rect x="0" y="0" width="32" height="32"/></clipPath><g clip-path="url(#_clip1)"><g id="outline"><path d="M20,6l7,6c0,0 0.991,-1.982 1.578,-3.155c0.277,-0.556 0.422,-1.168 0.422,-1.789c0,-0.817 0,-2.025 0,-3.056c0,-1.105 -0.895,-2 -2,-2c-0.594,0 -1.227,0 -1.757,0c-0.796,0 -1.559,0.316 -2.122,0.879c-1.177,1.177 -3.121,3.121 -3.121,3.121Z" style="fill:none;stroke:#000;stroke-width:4px;"/><path d="M12,6l-7,6c0,0 -0.991,-1.982 -1.578,-3.155c-0.277,-0.556 -0.422,-1.168 -0.422,-1.789c0,-0.817 0,-2.025 0,-3.056c0,-1.105 0.895,-2 2,-2c0.594,0 1.227,0 1.757,0c0.796,0 1.559,0.316 2.122,0.879c1.177,1.177 3.121,3.121 3.121,3.121Z" style="fill:none;stroke:#000;stroke-width:4px;"/><path d="M12,25l-4,4l-1,-3l-2,1l0,-4l-2,1c0,0 -0.354,-1.062 -0.641,-1.922c-0.238,-0.714 -0.359,-1.462 -0.359,-2.214c0,-0.905 0,-2.281 0,-3.864c0,-7.18 5.82,-13 13,-13c0.666,0 1.334,0 2,0c7.18,0 13,5.82 13,13c0,1.583 0,2.959 0,3.864c0,0.752 -0.121,1.5 -0.359,2.214c-0.287,0.86 -0.641,1.922 -0.641,1.922l-2,-1l0,4l-2,-1l-1,3l-4,-4l-8,0Z" style="fill:none;stroke:#000;stroke-width:4px;"/></g><g id="emoji"><path d="M12,25l-4,4l-1,-3l-2,1l0,-4l-2,1c0,0 -0.354,-1.062 -0.641,-1.922c-0.238,-0.714 -0.359,-1.462 -0.359,-2.214c0,-0.905 0,-2.281 0,-3.864c0,-7.18 5.82,-13 13,-13c0.666,0 1.334,0 2,0c7.18,0 13,5.82 13,13c0,1.583 0,2.959 0,3.864c0,0.752 -0.121,1.5 -0.359,2.214c-0.287,0.86 -0.641,1.922 -0.641,1.922l-2,-1l0,4l-2,-1l-1,3l-4,-4l-8,0Z" style="fill:#e5e5e5;"/><clipPath id="_clip2"><path d="M12,25l-4,4l-1,-3l-2,1l0,-4l-2,1c0,0 -0.354,-1.062 -0.641,-1.922c-0.238,-0.714 -0.359,-1.462 -0.359,-2.214c0,-0.905 0,-2.281 0,-3.864c0,-7.18 5.82,-13 13,-13c0.666,0 1.334,0 2,0c7.18,0 13,5.82 13,13c0,1.583 0,2.959 0,3.864c0,0.752 -0.121,1.5 -0.359,2.214c-0.287,0.86 -0.641,1.922 -0.641,1.922l-2,-1l0,4l-2,-1l-1,3l-4,-4l-8,0Z"/></clipPath><g clip-path="url(#_clip2)"><path d="M27.934,18.967c-1.155,-0.577 -2.55,-0.351 -3.463,0.562c-0.539,0.539 -1.126,1.126 -1.592,1.592c-0.563,0.563 -1.326,0.879 -2.122,0.879c-0.407,0 -0.757,0 -0.757,0l-8,0c0,0 -0.35,0 -0.757,0c-0.796,0 -1.559,-0.316 -2.122,-0.879c-0.466,-0.466 -1.053,-1.053 -1.592,-1.592c-0.913,-0.913 -2.308,-1.139 -3.463,-0.562c-1.407,0.703 -3.066,1.533 -3.066,1.533l0,-19.5l30,0l0,19.5c0,0 -1.659,-0.83 -3.066,-1.533Z" style="fill:#999;"/></g><path d="M10,24c0,0 0,0.898 0,2c0,1.061 0.421,2.078 1.172,2.828c0.75,0.751 1.767,1.172 2.828,1.172c0,0 0,0 0,0l2,-1l2,1c0,0 0,0 0,0c1.061,0 2.078,-0.421 2.828,-1.172c0.751,-0.75 1.172,-1.767 1.172,-2.828c0,-1.102 0,-2 0,-2" style="fill:none;stroke:#000;stroke-width:4px;stroke-linejoin:miter;"/><path d="M10,23l12,0c0,0 0,1.432 0,3c0,2.209 -1.791,4 -4,4c0,0 0,0 0,0l-2,-1l-2,1c0,0 0,0 0,0c-2.209,0 -4,-1.791 -4,-4c0,-1.568 0,-3 0,-3Z" style="fill:#e5e5e5;"/><path d="M9,26c0,0 0.703,0.234 1.428,0.476c1.007,0.336 2.105,0.257 3.054,-0.217c1.139,-0.569 2.518,-1.259 2.518,-1.259c0,0 1.379,0.69 2.518,1.259c0.949,0.474 2.047,0.553 3.054,0.217c0.725,-0.242 1.428,-0.476 1.428,-0.476" style="fill:none;stroke:#000;stroke-width:1px;stroke-linejoin:miter;"/><path d="M19,17c0,0 -0.429,-1.717 -0.725,-2.901c-0.171,-0.682 0.029,-1.403 0.526,-1.9c0.059,-0.059 0.119,-0.119 0.18,-0.18c0.608,-0.608 1.538,-0.759 2.308,-0.374c0.518,0.258 1.108,0.554 1.605,0.802c0.678,0.339 1.106,1.032 1.106,1.789c0,0.41 0,0.764 0,0.764l-3,0l-2,2Z" style="fill:#e5e5e5;"/><path d="M13,17c0,0 0.429,-1.717 0.725,-2.901c0.171,-0.682 -0.029,-1.403 -0.526,-1.9c-0.059,-0.059 -0.119,-0.119 -0.18,-0.18c-0.608,-0.608 -1.538,-0.759 -2.308,-0.374c-0.518,0.258 -1.108,0.554 -1.605,0.802c-0.678,0.339 -1.106,1.032 -1.106,1.789c0,0.41 0,0.764 0,0.764l3,0l2,2Z" style="fill:#e5e5e5;"/><path d="M22,14c-1.657,0 -3,1.343 -3,3c0,0 0,0 0,0c0,0 1.1,0 2.146,0c1.136,0 2.175,-0.642 2.683,-1.658c0.102,-0.204 0.171,-0.342 0.171,-0.342c0,0 0,0 0,0c0,-0.552 -0.448,-1 -1,-1c-0.298,0 -0.642,0 -1,0Z"/><path d="M10,14c1.657,0 3,1.343 3,3c0,0 0,0 0,0c0,0 -1.1,0 -2.146,0c-1.136,0 -2.175,-0.642 -2.683,-1.658c-0.102,-0.204 -0.171,-0.342 -0.171,-0.342c0,0 0,0 0,0c0,-0.552 0.448,-1 1,-1c0.298,0 0.642,0 1,0Z"/><path d="M22,4l6,6c0,0 0.305,-0.609 0.578,-1.155c0.277,-0.556 0.422,-1.168 0.422,-1.789c0,-0.817 0,-2.025 0,-3.056c0,-1.105 -0.895,-2 -2,-2c-0.594,0 -1.227,0 -1.757,0c-0.796,0 -1.559,0.316 -2.122,0.879c-0.537,0.537 -1.121,1.121 -1.121,1.121Z" style="fill:#999;"/><clipPath id="_clip3"><path d="M22,4l6,6c0,0 0.305,-0.609 0.578,-1.155c0.277,-0.556 0.422,-1.168 0.422,-1.789c0,-0.817 0,-2.025 0,-3.056c0,-1.105 -0.895,-2 -2,-2c-0.594,0 -1.227,0 -1.757,0c-0.796,0 -1.559,0.316 -2.122,0.879c-0.537,0.537 -1.121,1.121 -1.121,1.121Z"/></clipPath><g clip-path="url(#_clip3)"><path d="M31,3c0,0 -3,0 -4.757,0c-0.796,0 -1.559,0.316 -2.122,0.879c-0.885,0.885 -2.121,2.121 -2.121,2.121l0,7l9,0l0,-10Z" style="fill:#e5e5e5;"/></g><path d="M10,4l-6,6c0,0 -0.305,-0.609 -0.578,-1.155c-0.277,-0.556 -0.422,-1.168 -0.422,-1.789c0,-0.817 0,-2.025 0,-3.056c0,-1.105 0.895,-2 2,-2c0.594,0 1.227,0 1.757,0c0.796,0 1.559,0.316 2.122,0.879c0.537,0.537 1.121,1.121 1.121,1.121Z" style="fill:#999;"/><clipPath id="_clip4"><path d="M10,4l-6,6c0,0 -0.305,-0.609 -0.578,-1.155c-0.277,-0.556 -0.422,-1.168 -0.422,-1.789c0,-0.817 0,-2.025 0,-3.056c0,-1.105 0.895,-2 2,-2c0.594,0 1.227,0 1.757,0c0.796,0 1.559,0.316 2.122,0.879c0.537,0.537 1.121,1.121 1.121,1.121Z"/></clipPath><g clip-path="url(#_clip4)"><path d="M1,3c0,0 3,0 4.757,0c0.796,0 1.559,0.316 2.122,0.879c0.885,0.885 2.121,2.121 2.121,2.121l0,7l-9,0l0,-10Z" style="fill:#e5e5e5;"/></g><path d="M13.85,23c-0.491,0 -0.961,-0.195 -1.308,-0.542c-0.347,-0.347 -0.542,-0.817 -0.542,-1.308c0,-0.094 0,-0.15 0,-0.15l8,0c0,0 0,0.051 0,0.136c0,0.494 -0.196,0.968 -0.546,1.318c-0.35,0.35 -0.824,0.546 -1.318,0.546c0,0 -0.001,0 -0.001,0c-0.089,0 -0.176,0.021 -0.256,0.06c-0.432,0.216 -1.879,0.94 -1.879,0.94c0,0 -1.42,-0.71 -1.867,-0.933c-0.087,-0.044 -0.184,-0.067 -0.282,-0.067c0,0 -0.001,0 -0.001,0Z"/><g id="v"><path d="M15,5c0,-0.552 -0.448,-1 -1,-1c-0.611,0 -1.389,0 -2,0c-0.552,0 -1,0.448 -1,1c0,0.552 0.448,1 1,1c0.611,0 1.389,0 2,0c0.552,0 1,-0.448 1,-1c0,0 0,0 0,0Z"/><path d="M21,8c0,-0.552 0.448,-1 1,-1c0.322,0 0.678,0 1,0c0.552,0 1,0.448 1,1c0,0.552 -0.448,1 -1,1c-0.322,0 -0.678,0 -1,0c-0.552,0 -1,-0.448 -1,-1c0,0 0,0 0,0Z"/><path d="M17,9c0,-0.552 0.448,-1 1,-1c0.322,0 0.678,0 1,0c0.552,0 1,0.448 1,1c0,0.552 -0.448,1 -1,1c-0.322,0 -0.678,0 -1,0c-0.552,0 -1,-0.448 -1,-1c0,0 0,0 0,0Z"/><path d="M12,9c0,-0.552 0.448,-1 1,-1c0.322,0 0.678,0 1,0c0.552,0 1,0.448 1,1c0,0.552 -0.448,1 -1,1c-0.322,0 -0.678,0 -1,0c-0.552,0 -1,-0.448 -1,-1c0,0 0,0 0,0Z"/><path d="M8,8c0,-0.552 0.448,-1 1,-1c0.322,0 0.678,0 1,0c0.552,0 1,0.448 1,1c0,0.552 -0.448,1 -1,1c-0.322,0 -0.678,0 -1,0c-0.552,0 -1,-0.448 -1,-1c0,0 0,0 0,0Z"/><path d="M27,16c0,-0.552 0.448,-1 1,-1c0.552,0 1,0.448 1,1c0,0.611 0,1.389 0,2c0,0.552 -0.448,1 -1,1c-0.552,0 -1,-0.448 -1,-1c0,-0.611 0,-1.389 0,-2Z"/><path d="M3,16c0,-0.552 0.448,-1 1,-1c0.552,0 1,0.448 1,1c0,0.611 0,1.389 0,2c0,0.552 -0.448,1 -1,1c-0.552,0 -1,-0.448 -1,-1c0,-0.611 0,-1.389 0,-2Z"/><path d="M6,22c0,-0.552 0.448,-1 1,-1c0.552,0 1,0.448 1,1c0,0.322 0,0.678 0,1c0,0.552 -0.448,1 -1,1c-0.552,0 -1,-0.448 -1,-1c0,-0.322 0,-0.678 0,-1Z"/><path d="M24,22c0,-0.552 0.448,-1 1,-1c0.552,0 1,0.448 1,1c0,0.322 0,0.678 0,1c0,0.552 -0.448,1 -1,1c-0.552,0 -1,-0.448 -1,-1c0,-0.322 0,-0.678 0,-1Z"/><path d="M4,12c0,-0.552 0.448,-1 1,-1c0.552,0 1,0.448 1,1c0,0.322 0,0.678 0,1c0,0.552 -0.448,1 -1,1c-0.552,0 -1,-0.448 -1,-1c0,-0.322 0,-0.678 0,-1Z"/><path d="M26,12c0,-0.552 0.448,-1 1,-1c0.552,0 1,0.448 1,1c0,0.322 0,0.678 0,1c0,0.552 -0.448,1 -1,1c-0.552,0 -1,-0.448 -1,-1c0,-0.322 0,-0.678 0,-1Z"/><path d="M17,5c0,-0.552 0.448,-1 1,-1c0.611,0 1.389,0 2,0c0.552,0 1,0.448 1,1c0,0.552 -0.448,1 -1,1c-0.611,0 -1.389,0 -2,0c-0.552,0 -1,-0.448 -1,-1c0,0 0,0 0,0Z"/><path d="M7,18l1,1" style="fill:none;stroke:#000;stroke-width:2px;stroke-linecap:round;"/><path d="M9,11l-1,0" style="fill:none;stroke:#000;stroke-width:2px;stroke-linecap:round;"/><path d="M23,11l1,0" style="fill:none;stroke:#000;stroke-width:2px;stroke-linecap:round;"/><path d="M25,18l-1,1" style="fill:none;stroke:#000;stroke-width:2px;stroke-linecap:round;"/></g><rect x="15" y="23" width="2" height="2.5"/></g></g></svg>