<?xml version="1.0" encoding="UTF-8" standalone="no"?><!DOCTYPE svg PUBLIC "-//W3C//DTD SVG 1.1//EN" "http://www.w3.org/Graphics/SVG/1.1/DTD/svg11.dtd"><svg width="100%" height="100%" viewBox="0 0 32 32" version="1.1" xmlns="http://www.w3.org/2000/svg" xmlns:xlink="http://www.w3.org/1999/xlink" xml:space="preserve" xmlns:serif="http://www.serif.com/" style="fill-rule:evenodd;clip-rule:evenodd;stroke-linecap:round;stroke-linejoin:round;stroke-miterlimit:1.5;"><rect id="bat" x="0" y="0" width="32" height="32" style="fill:none;"/><clipPath id="_clip1"><rect x="0" y="0" width="32" height="32"/></clipPath><g clip-path="url(#_clip1)"><g id="outline"><path d="M19.213,11.57c0.123,-0.317 0.328,-0.603 0.603,-0.823c1.965,-1.572 4.49,-3.592 5.964,-4.771c0.79,-0.632 1.771,-0.976 2.783,-0.976c0.148,0 0.296,0 0.437,0c0.552,0 1,0.448 1,1c0,0.349 0,0.698 0,0.877c0,0.082 -0.01,0.163 -0.03,0.242c-0.139,0.555 -0.721,2.885 -0.91,3.642c-0.04,0.159 -0.06,0.322 -0.06,0.485c0,0.466 0,1.489 0,2.148c0,0.395 -0.117,0.781 -0.336,1.11c-0.963,1.444 -3.664,5.496 -3.664,5.496l-0.001,-0.001c-0.018,1.301 -0.542,2.544 -1.463,3.465c-0.748,0.748 -1.669,1.669 -2.486,2.486c-1.312,1.312 -3.093,2.05 -4.949,2.05c-0.067,0 -0.135,0 -0.202,0c-1.856,0 -3.637,-0.738 -4.949,-2.05c-0.817,-0.817 -1.738,-1.738 -2.486,-2.486c-0.921,-0.921 -1.445,-2.164 -1.463,-3.465l-0.001,0.001c0,0 -2.701,-4.052 -3.664,-5.496c-0.219,-0.329 -0.336,-0.715 -0.336,-1.11c0,-0.659 0,-1.682 0,-2.148c0,-0.163 -0.02,-0.326 -0.06,-0.485c-0.189,-0.757 -0.771,-3.087 -0.91,-3.642c-0.02,-0.079 -0.03,-0.16 -0.03,-0.242c0,-0.179 0,-0.528 0,-0.877c0,-0.552 0.448,-1 1,-1c0.141,0 0.289,0 0.437,0c1.012,0 1.993,0.344 2.783,0.976c1.474,1.179 3.999,3.199 5.964,4.771c0.275,0.22 0.48,0.506 0.603,0.823c1.016,-0.372 2.101,-0.57 3.213,-0.57c0,0 0,0 0,0c1.112,0 2.197,0.198 3.213,0.57Z" style="fill:none;stroke:#000;stroke-width:4px;"/></g><g id="emoji"><path d="M8.227,15.16c1.732,-2.599 4.649,-4.16 7.773,-4.16c0,0 0,0 0,0c3.124,0 6.041,1.561 7.773,4.16c0.685,1.027 1.227,1.84 1.227,1.84c0,0 0,1.554 0,2.929c0,1.326 -0.527,2.598 -1.464,3.535c-0.748,0.748 -1.669,1.669 -2.486,2.486c-1.312,1.312 -3.093,2.05 -4.949,2.05c-0.067,0 -0.135,0 -0.202,0c-1.856,0 -3.637,-0.738 -4.949,-2.05c-0.817,-0.817 -1.738,-1.738 -2.486,-2.486c-0.937,-0.937 -1.464,-2.209 -1.464,-3.535c0,-1.375 0,-2.929 0,-2.929c0,0 0.542,-0.813 1.227,-1.84Z" style="fill:#c3914b;"/><g><path d="M7.805,17.986l-0.805,2.014c0,0 -2.701,-4.052 -3.664,-5.496c-0.219,-0.329 -0.336,-0.715 -0.336,-1.11c0,-0.659 0,-1.682 0,-2.148c0,-0.163 -0.02,-0.326 -0.06,-0.485c-0.189,-0.757 -0.771,-3.087 -0.91,-3.642c-0.02,-0.079 -0.03,-0.16 -0.03,-0.242l0,-0.861c0.301,0.031 3,0 3,0l4.937,3.984c0,0 -0.044,4.692 0,4.995c-0.21,0.156 -0.41,0.327 -0.598,0.509c-0.424,0.045 -1.749,1.808 -1.534,2.482Z" style="fill:#422c29;"/><path d="M2.887,5.006c0.227,0.015 2.113,0.451 2.113,0.451l7,6.543c0,0 -1.044,2.073 -1.019,2.377c-0.371,0.17 -0.72,0.378 -1.044,0.618c-0.172,-1.174 -0.696,-2.275 -1.513,-3.154c-1.399,-1.507 -3.394,-3.655 -4.534,-4.882c-0.497,-0.536 -1.17,-0.869 -1.89,-0.943l0,-0.016c0,-0.514 0.388,-0.937 0.887,-0.994Z" style="fill:#382523;"/><g><path d="M11,13.5c0,0 -0.849,0 -1.764,0c-1.37,0 -2.623,0.774 -3.236,2c0,0 0,0 0,0" style="fill:none;stroke:#76615e;stroke-opacity:0.611765;stroke-width:1px;"/><path d="M9,10.5c0,0 -0.561,0 -1.198,0c-1.126,0 -2.177,0.563 -2.802,1.5c0,0 0,0 0,0" style="fill:none;stroke:#76615e;stroke-opacity:0.611765;stroke-width:1px;"/><path d="M6.5,7.5c0,0 -0.488,0 -1.01,0c-0.784,0 -1.522,0.371 -1.99,1c0,0 0,0 0,0" style="fill:none;stroke:#76615e;stroke-opacity:0.611765;stroke-width:1px;"/></g><path d="M2.887,5.006c0.037,-0.004 0.075,-0.006 0.113,-0.006c0.141,0 0.289,0 0.437,0c1.012,0 1.993,0.344 2.783,0.976c1.474,1.179 3.999,3.199 5.964,4.771c0.561,0.449 0.832,1.169 0.706,1.877c-0.126,0.707 -0.63,1.289 -1.311,1.516c-0.001,0.001 -0.002,0.001 -0.003,0.001c-0.204,0.068 -0.402,0.147 -0.595,0.236c-0.107,-1.316 -0.652,-2.562 -1.557,-3.536c-1.399,-1.507 -3.394,-3.655 -4.534,-4.882c-0.523,-0.564 -1.241,-0.903 -2.003,-0.953Z" style="fill:#563a36;"/><path d="M7.805,17.986c-0.515,-0.072 -0.953,-0.43 -1.121,-0.934c-0.219,-0.656 -0.492,-1.476 -0.617,-1.85c-0.044,-0.134 -0.099,-0.266 -0.162,-0.393c-0.122,-0.242 -0.338,-0.675 -0.529,-1.056c-0.08,-0.162 -0.072,-0.353 0.023,-0.506c0.095,-0.154 0.262,-0.247 0.442,-0.247c0,0 0.001,0 0.001,0c0.102,0 0.202,0.033 0.285,0.095l3.212,2.409c-0.578,0.565 -1.04,1.249 -1.347,2.017l-0.187,0.465Z" style="fill:#a16636;"/></g><g><path d="M24.195,17.986l0.805,2.014c0,0 2.701,-4.052 3.664,-5.496c0.219,-0.329 0.336,-0.715 0.336,-1.11c0,-0.659 0,-1.682 0,-2.148c0,-0.163 0.02,-0.326 0.06,-0.485c0.189,-0.757 0.771,-3.087 0.91,-3.642c0.02,-0.079 0.03,-0.16 0.03,-0.242l0,-0.861c-0.301,0.031 -3,0 -3,0l-4.937,3.984c0,0 0.044,4.692 0,4.995c0.21,0.156 0.41,0.327 0.598,0.509c0.424,0.045 1.749,1.808 1.534,2.482Z" style="fill:#422c29;"/><path d="M29.113,5.006c-0.227,0.015 -2.113,0.451 -2.113,0.451l-7,6.543c0,0 1.044,2.073 1.019,2.377c0.371,0.17 0.72,0.378 1.044,0.618c0.172,-1.174 0.696,-2.275 1.513,-3.154c1.399,-1.507 3.394,-3.655 4.534,-4.882c0.497,-0.536 1.17,-0.869 1.89,-0.943l0,-0.016c0,-0.514 -0.388,-0.937 -0.887,-0.994Z" style="fill:#382523;"/><g><path d="M21,13.5c0,0 0.849,0 1.764,0c1.37,0 2.623,0.774 3.236,2c0,0 0,0 0,0" style="fill:none;stroke:#76615e;stroke-opacity:0.611765;stroke-width:1px;"/><path d="M23,10.5c0,0 0.561,0 1.198,0c1.126,0 2.177,0.563 2.802,1.5c0,0 0,0 0,0" style="fill:none;stroke:#76615e;stroke-opacity:0.611765;stroke-width:1px;"/><path d="M25.5,7.5c0,0 0.488,0 1.01,0c0.784,0 1.522,0.371 1.99,1c0,0 0,0 0,0" style="fill:none;stroke:#76615e;stroke-opacity:0.611765;stroke-width:1px;"/></g><path d="M29.113,5.006c-0.037,-0.004 -0.075,-0.006 -0.113,-0.006c-0.141,0 -0.289,0 -0.437,0c-1.012,0 -1.993,0.344 -2.783,0.976c-1.474,1.179 -3.999,3.199 -5.964,4.771c-0.561,0.449 -0.832,1.169 -0.706,1.877c0.126,0.707 0.63,1.289 1.311,1.516c0.001,0.001 0.002,0.001 0.003,0.001c0.204,0.068 0.402,0.147 0.595,0.236c0.107,-1.316 0.652,-2.562 1.557,-3.536c1.399,-1.507 3.394,-3.655 4.534,-4.882c0.523,-0.564 1.241,-0.903 2.003,-0.953Z" style="fill:#563a36;"/><path d="M24.195,17.986c0.515,-0.072 0.953,-0.43 1.121,-0.934c0.219,-0.656 0.492,-1.476 0.617,-1.85c0.044,-0.134 0.099,-0.266 0.162,-0.393c0.122,-0.242 0.338,-0.675 0.529,-1.056c0.08,-0.162 0.072,-0.353 -0.023,-0.506c-0.095,-0.154 -0.262,-0.247 -0.442,-0.247c0,0 -0.001,0 -0.001,0c-0.102,0 -0.202,0.033 -0.285,0.095l-3.212,2.409c0.578,0.565 1.04,1.249 1.347,2.017l0.187,0.465Z" style="fill:#a16636;"/></g><path d="M22,18c0,-0.552 -0.448,-1 -1,-1c-0.552,0 -1,0.448 -1,1c0,0.322 0,0.678 0,1c0,0.552 0.448,1 1,1c0.552,0 1,-0.448 1,-1c0,-0.322 0,-0.678 0,-1Z"/><path d="M12,18c0,-0.552 -0.448,-1 -1,-1c-0.552,0 -1,0.448 -1,1c0,0.322 0,0.679 0,1.001c0,0.552 0.447,0.999 0.999,0.999c0,0 0.001,0 0.001,0c0.552,0 1,-0.448 1,-1c0,-0.322 0,-0.678 0,-1Z"/><path d="M12,21.181c0,-0.433 0.187,-0.844 0.512,-1.129c0.39,-0.341 0.952,-0.833 1.512,-1.323c1.132,-0.99 2.82,-0.99 3.952,0c0.56,0.49 1.122,0.982 1.512,1.323c0.325,0.285 0.512,0.696 0.512,1.129c0,0.101 0,0.209 0,0.319c0,0.398 -0.158,0.779 -0.439,1.061c-0.282,0.281 -0.663,0.439 -1.061,0.439c-1.43,0 -3.57,0 -5,0c-0.398,0 -0.779,-0.158 -1.061,-0.439c-0.281,-0.282 -0.439,-0.663 -0.439,-1.061c0,-0.11 0,-0.218 0,-0.319Z" style="fill:#7e482a;"/><path d="M18.5,20.75c0,-0.199 -0.079,-0.39 -0.22,-0.53c-0.14,-0.141 -0.331,-0.22 -0.53,-0.22c-0.199,0 -0.39,0.079 -0.53,0.22c-0.141,0.14 -0.22,0.331 -0.22,0.53c0,0.163 0,0.337 0,0.5c0,0.199 0.079,0.39 0.22,0.53c0.14,0.141 0.331,0.22 0.53,0.22c0.199,0 0.39,-0.079 0.53,-0.22c0.141,-0.14 0.22,-0.331 0.22,-0.53c0,-0.163 0,-0.337 0,-0.5Z" style="fill:#361a12;"/><path d="M15,20.75c0,-0.199 -0.079,-0.39 -0.22,-0.53c-0.14,-0.141 -0.331,-0.22 -0.53,-0.22c-0.199,0 -0.39,0.079 -0.53,0.22c-0.141,0.14 -0.22,0.331 -0.22,0.53c0,0.163 0,0.337 0,0.5c0,0.199 0.079,0.39 0.22,0.53c0.14,0.141 0.331,0.22 0.53,0.22c0.199,0 0.39,-0.079 0.53,-0.22c0.141,-0.14 0.22,-0.331 0.22,-0.53c0,-0.163 0,-0.337 0,-0.5Z" style="fill:#361a12;"/><path d="M11,24c0,0 1.393,0.696 2.28,1.14c0.453,0.227 0.987,0.227 1.44,0c0.182,-0.091 0.378,-0.189 0.56,-0.28c0.453,-0.227 0.987,-0.227 1.44,0c0.182,0.091 0.378,0.189 0.56,0.28c0.453,0.227 0.987,0.227 1.44,0c0.887,-0.444 2.28,-1.14 2.28,-1.14" style="fill:none;stroke:#835c30;stroke-width:1.5px;"/></g></g></svg>