<?xml version="1.0" encoding="UTF-8" standalone="no"?><!DOCTYPE svg PUBLIC "-//W3C//DTD SVG 1.1//EN" "http://www.w3.org/Graphics/SVG/1.1/DTD/svg11.dtd"><svg width="100%" height="100%" viewBox="0 0 32 32" version="1.1" xmlns="http://www.w3.org/2000/svg" xmlns:xlink="http://www.w3.org/1999/xlink" xml:space="preserve" xmlns:serif="http://www.serif.com/" style="fill-rule:evenodd;clip-rule:evenodd;stroke-linecap:round;stroke-linejoin:round;stroke-miterlimit:1.5;"><rect id="boar" x="0" y="0" width="32" height="32" style="fill:none;"/><clipPath id="_clip1"><rect x="0" y="0" width="32" height="32"/></clipPath><g clip-path="url(#_clip1)"><g id="outline"><path d="M21.386,6.614l3.907,-3.907c0.39,-0.39 1.024,-0.39 1.414,0c0.344,0.344 0.738,0.738 1,1c0.188,0.188 0.293,0.442 0.293,0.707c0,0.554 0,1.532 0,2.114c0,0.31 0.072,0.617 0.211,0.894c0.17,0.34 0.408,0.816 0.578,1.156c0.139,0.277 0.211,0.584 0.211,0.894c0,0.149 0,0.328 0,0.528c0,2.761 -2.239,5 -5,5c0,0 0,0.056 0,0.056c0,0.621 0.145,1.233 0.422,1.789c0.36,0.718 0.894,1.786 1.383,2.764c0.762,1.525 0.855,3.298 0.256,4.894c0,0 0,0.001 0,0.001c-1.24,3.306 -4.4,5.496 -7.931,5.496c-1.389,0 -2.871,0 -4.26,0c-3.531,0 -6.691,-2.19 -7.931,-5.496c0,0 0,-0.001 0,-0.001c-0.599,-1.596 -0.506,-3.369 0.256,-4.894c0.489,-0.978 1.023,-2.046 1.383,-2.764c0.277,-0.556 0.422,-1.168 0.422,-1.789l0,-0.056c-2.761,0 -5,-2.239 -5,-5c0,-0.2 0,-0.379 0,-0.528c0,-0.31 0.072,-0.617 0.211,-0.894c0.17,-0.34 0.408,-0.816 0.578,-1.156c0.139,-0.277 0.211,-0.584 0.211,-0.894c0,-0.582 0,-1.56 0,-2.114c0,-0.265 0.105,-0.519 0.293,-0.707c0.262,-0.262 0.656,-0.656 1,-1c0.39,-0.39 1.024,-0.39 1.414,0l3.907,3.907c1.093,-1.02 2.548,-1.614 4.094,-1.614c0.844,0 1.74,0 2.584,0c1.546,0 3.001,0.594 4.094,1.614Z" style="fill:none;stroke:#000;stroke-width:4px;"/></g><g id="emoji"><path d="M20,8c0,0 3.706,-3.706 5.293,-5.293c0.39,-0.39 1.024,-0.39 1.414,0c0.344,0.344 0.738,0.738 1,1c0.188,0.188 0.293,0.442 0.293,0.707c0,0.554 0,1.532 0,2.114c0,0.31 0.072,0.617 0.211,0.894c0.17,0.34 0.408,0.816 0.578,1.156c0.139,0.277 0.211,0.584 0.211,0.894c0,0.149 0,0.328 0,0.528c0,2.761 -2.239,5 -5,5c-2.072,0 -4,0 -4,0l0,-7" style="fill:#3d3531;"/><path d="M12,8c0,0 -3.706,-3.706 -5.293,-5.293c-0.39,-0.39 -1.024,-0.39 -1.414,0c-0.344,0.344 -0.738,0.738 -1,1c-0.188,0.188 -0.293,0.442 -0.293,0.707c0,0.554 0,1.532 0,2.114c0,0.31 -0.072,0.617 -0.211,0.894c-0.17,0.34 -0.408,0.816 -0.578,1.156c-0.139,0.277 -0.211,0.584 -0.211,0.894c0,0.149 0,0.328 0,0.528c0,2.761 2.239,5 5,5c2.072,0 4,0 4,0l0,-7" style="fill:#3d3531;"/><path d="M21,9.539c0,-0.969 0.456,-1.881 1.231,-2.462c0.6,-0.45 1.31,-0.982 1.86,-1.395c0.522,-0.391 1.251,-0.34 1.712,0.121c0.001,0.001 0.001,0.001 0.001,0.001c0.125,0.125 0.196,0.296 0.196,0.474c0,0.549 0,1.722 0,1.722c0,0 0.102,0.102 0.24,0.24c0.487,0.487 0.76,1.146 0.76,1.834c0,0.395 0,0.862 0,1.333c0,0.687 -0.273,1.347 -0.76,1.833c-0.486,0.487 -1.146,0.76 -1.833,0.76c-1.623,0 -3.407,0 -3.407,0c0,0 0,-2.684 0,-4.461Z" style="fill:#2b2522;"/><path d="M11,9.539c0,-0.969 -0.456,-1.881 -1.231,-2.462c-0.6,-0.45 -1.31,-0.982 -1.86,-1.395c-0.522,-0.391 -1.251,-0.34 -1.712,0.121c-0.001,0.001 -0.001,0.001 -0.001,0.001c-0.125,0.125 -0.196,0.296 -0.196,0.474c0,0.549 0,1.722 0,1.722c0,0 -0.102,0.102 -0.24,0.24c-0.487,0.487 -0.76,1.146 -0.76,1.834c0,0.395 0,0.862 0,1.333c0,0.687 0.273,1.347 0.76,1.833c0.486,0.487 1.146,0.76 1.833,0.76c1.623,0 3.407,0 3.407,0c0,0 0,-2.684 0,-4.461Z" style="fill:#2b2522;"/><path d="M9.342,8.317c1.016,-2.033 3.094,-3.317 5.366,-3.317c0.844,0 1.74,0 2.584,0c2.272,0 4.35,1.284 5.366,3.317c0.211,0.421 0.418,0.834 0.603,1.205c0.486,0.972 0.739,2.044 0.739,3.13c0,0.799 0,1.727 0,2.404c0,0.621 0.145,1.233 0.422,1.789c0.36,0.718 0.894,1.786 1.383,2.764c0.762,1.525 0.855,3.298 0.256,4.894c0,0 0,0.001 0,0.001c-1.24,3.306 -4.4,5.496 -7.931,5.496c-1.389,0 -2.871,0 -4.26,0c-3.531,0 -6.691,-2.19 -7.931,-5.496c0,0 0,-0.001 0,-0.001c-0.599,-1.596 -0.506,-3.369 0.256,-4.894c0.489,-0.978 1.023,-2.046 1.383,-2.764c0.277,-0.556 0.422,-1.168 0.422,-1.789c0,-0.677 0,-1.605 0,-2.404c0,-1.086 0.253,-2.158 0.739,-3.13c0.185,-0.371 0.392,-0.784 0.603,-1.205Z" style="fill:#72635c;"/><path d="M13,27c0,0 0.609,0.305 1.155,0.578c0.556,0.277 1.168,0.422 1.789,0.422c0.037,0 0.075,0 0.112,0c0.621,0 1.233,-0.145 1.789,-0.422c0.546,-0.273 1.155,-0.578 1.155,-0.578l0,-1l-6,0l0,1Z" style="fill:#554a45;"/><path d="M11,24l-3,-4c0,0 0,0.882 0,1.817c0,1.398 0.555,2.738 1.543,3.726c0.736,0.736 1.457,1.457 1.457,1.457l0,-3Z" style="fill:#fff;"/><path d="M21,24l3,-4c0,0 0,0.882 0,1.817c0,1.398 -0.555,2.738 -1.543,3.726c-0.736,0.736 -1.457,1.457 -1.457,1.457l0,-3Z" style="fill:#fff;"/><path d="M12.519,21.321c0.315,-0.211 0.57,-0.499 0.739,-0.838c0.001,0 0.001,0 0.001,0c0.454,-0.909 1.383,-1.483 2.399,-1.483c0.226,0 0.458,0 0.684,0c1.016,0 1.945,0.574 2.399,1.483c0,0 0,0 0.001,0c0.169,0.339 0.424,0.627 0.739,0.838c0.378,0.252 0.921,0.614 1.406,0.937c0.695,0.464 1.113,1.244 1.113,2.08c0,0.224 0,0.465 0,0.711c0,0.735 -0.323,1.432 -0.884,1.907c-0.561,0.475 -1.302,0.68 -2.027,0.559c-0.758,-0.126 -1.523,-0.254 -2.103,-0.351c-0.653,-0.108 -1.319,-0.108 -1.972,0c-0.58,0.097 -1.345,0.225 -2.103,0.351c-0.725,0.121 -1.466,-0.084 -2.027,-0.559c-0.561,-0.475 -0.884,-1.172 -0.884,-1.907c0,-0.246 0,-0.487 0,-0.711c0,-0.836 0.418,-1.616 1.113,-2.08c0.485,-0.323 1.028,-0.685 1.406,-0.937Z" style="fill:#3e3632;"/><path d="M20,24.5c0,-0.398 -0.158,-0.779 -0.439,-1.061c-0.282,-0.281 -0.663,-0.439 -1.061,-0.439c-0.174,0 -0.348,0 -0.513,0c-0.262,0 -0.513,0.104 -0.698,0.289c-0.185,0.185 -0.289,0.436 -0.289,0.698c0,0 0,0.001 0,0.001c0,0.604 0.387,1.141 0.96,1.332c0.29,0.097 0.611,0.204 0.911,0.304c0.261,0.087 0.549,0.043 0.773,-0.118c0.223,-0.162 0.356,-0.421 0.356,-0.696c0,-0.102 0,-0.206 0,-0.31Z"/><path d="M12,24.5c0,-0.398 0.158,-0.779 0.439,-1.061c0.282,-0.281 0.663,-0.439 1.061,-0.439c0.165,0 0.33,0 0.487,0c0.269,0 0.526,0.107 0.716,0.297c0.19,0.19 0.297,0.447 0.297,0.716c0,0 0,0.001 0,0.001c0,0.589 -0.377,1.112 -0.935,1.298c-0.297,0.099 -0.627,0.209 -0.936,0.312c-0.261,0.087 -0.549,0.043 -0.773,-0.118c-0.223,-0.162 -0.356,-0.421 -0.356,-0.696c0,-0.102 0,-0.206 0,-0.31Z"/><path d="M22.5,15.25c0,-0.332 -0.132,-0.649 -0.366,-0.884c-0.235,-0.234 -0.552,-0.366 -0.884,-0.366c-0.332,0 -0.649,0.132 -0.884,0.366c-0.234,0.235 -0.366,0.552 -0.366,0.884c0,1.005 0,2.25 0,2.25c0,0 0.33,0 0.75,0c0.464,0 0.909,-0.184 1.237,-0.513c0.329,-0.328 0.513,-0.773 0.513,-1.237c0,-0.169 0,-0.338 0,-0.5Z"/><path d="M12,15.25c0,-0.332 -0.132,-0.649 -0.366,-0.884c-0.235,-0.234 -0.552,-0.366 -0.884,-0.366c-0.332,0 -0.649,0.132 -0.884,0.366c-0.234,0.235 -0.366,0.552 -0.366,0.884c0,0.162 0,0.331 0,0.5c0,0.464 0.184,0.909 0.513,1.237c0.328,0.329 0.773,0.513 1.237,0.513c0.42,0 0.75,0 0.75,0c0,0 0,-1.245 0,-2.25Z"/></g></g></svg>