<?xml version="1.0" encoding="UTF-8" standalone="no"?><!DOCTYPE svg PUBLIC "-//W3C//DTD SVG 1.1//EN" "http://www.w3.org/Graphics/SVG/1.1/DTD/svg11.dtd"><svg width="100%" height="100%" viewBox="0 0 32 32" version="1.1" xmlns="http://www.w3.org/2000/svg" xmlns:xlink="http://www.w3.org/1999/xlink" xml:space="preserve" xmlns:serif="http://www.serif.com/" style="fill-rule:evenodd;clip-rule:evenodd;stroke-linejoin:round;stroke-miterlimit:1.41421;"><rect id="deer_without_antlers" x="0" y="0" width="32" height="32" style="fill:none;"/><clipPath id="_clip1"><rect x="0" y="0" width="32" height="32"/></clipPath><g clip-path="url(#_clip1)"><g id="outline"><g><path d="M12.382,10c-2.02,0 -3.813,1.292 -4.451,3.208c-0.001,0.001 -0.001,0.001 -0.001,0.002c-0.604,1.811 -0.604,3.769 0,5.58c0.763,2.288 1.756,5.269 2.009,6.028c0.041,0.121 0.077,0.244 0.108,0.368c0.043,0.173 0.113,0.453 0.196,0.784c0.445,1.781 2.045,3.03 3.88,3.03c1.196,0 2.558,0 3.754,0c1.835,0 3.435,-1.249 3.88,-3.03c0.083,-0.331 0.153,-0.611 0.196,-0.784c0.031,-0.124 0.067,-0.247 0.108,-0.368c0.253,-0.759 1.246,-3.74 2.009,-6.028c0.604,-1.811 0.604,-3.769 0,-5.58c0,-0.001 0,-0.001 -0.001,-0.002c-0.638,-1.916 -2.431,-3.208 -4.451,-3.208c-2.194,0 -5.042,0 -7.236,0Z"/><path d="M19.753,8.001l0.134,0.004l0.133,0.007l0.133,0.009l0.133,0.012l0.132,0.015l0.131,0.017l0.131,0.019l0.13,0.023l0.129,0.024l0.129,0.027l0.127,0.03l0.127,0.032l0.126,0.035l0.125,0.037l0.125,0.039l0.123,0.041l0.122,0.044l0.121,0.047l0.12,0.048l0.119,0.051l0.118,0.053l0.117,0.055l0.115,0.058l0.114,0.059l0.113,0.062l0.112,0.064l0.111,0.066l0.109,0.068l0.108,0.07l0.106,0.072l0.105,0.074l0.104,0.076l0.102,0.078l0.1,0.081l0.1,0.082l0.097,0.083l0.096,0.086l0.094,0.088l0.093,0.09l0.091,0.091l0.089,0.093l0.088,0.095l0.085,0.097l0.084,0.099l0.083,0.1l0.08,0.102l0.078,0.104l0.077,0.105l0.074,0.107l0.073,0.109l0.071,0.11l0.068,0.112l0.066,0.113l0.065,0.115l0.062,0.116l0.06,0.118l0.058,0.119l0.055,0.121l0.053,0.122l0.051,0.123l0.049,0.125l0.046,0.126l0.042,0.122l0.036,0.11l0.033,0.105l0.033,0.105l0.03,0.105l0.03,0.105l0.029,0.105l0.028,0.106l0.026,0.106l0.026,0.106l0.024,0.106l0.023,0.107l0.023,0.106l0.021,0.107l0.02,0.107l0.019,0.107l0.018,0.108l0.017,0.107l0.015,0.108l0.015,0.107l0.014,0.108l0.012,0.108l0.011,0.108l0.011,0.108l0.009,0.108l0.008,0.108l0.007,0.108l0.006,0.109l0.005,0.107l0.004,0.109l0.003,0.108l0.001,0.108l0.001,0.109l-0.001,0.109l-0.001,0.108l-0.003,0.108l-0.004,0.109l-0.005,0.108l-0.006,0.108l-0.007,0.108l-0.008,0.108l-0.009,0.108l-0.011,0.108l-0.011,0.108l-0.012,0.108l-0.014,0.108l-0.015,0.107l-0.015,0.108l-0.017,0.107l-0.018,0.107l-0.019,0.108l-0.02,0.107l-0.021,0.106l-0.023,0.107l-0.023,0.107l-0.024,0.106l-0.026,0.106l-0.026,0.106l-0.028,0.106l-0.029,0.105l-0.03,0.105l-0.03,0.105l-0.033,0.105l-0.033,0.105l-0.032,0.099l-2.008,6.023l-0.02,0.064l-0.017,0.055l-0.016,0.056l-0.017,0.065l-0.196,0.784l-0.03,0.114l-0.035,0.123l-0.037,0.123l-0.04,0.12l-0.042,0.12l-0.045,0.119l-0.047,0.117l-0.05,0.116l-0.052,0.114l-0.054,0.113l-0.056,0.112l-0.058,0.11l-0.061,0.109l-0.063,0.107l-0.065,0.106l-0.067,0.105l-0.068,0.102l-0.071,0.101l-0.073,0.1l-0.075,0.097l-0.077,0.097l-0.078,0.094l-0.081,0.093l-0.082,0.091l-0.084,0.089l-0.086,0.087l-0.087,0.086l-0.089,0.083l-0.091,0.082l-0.092,0.08l-0.094,0.078l-0.095,0.076l-0.097,0.074l-0.099,0.073l-0.1,0.07l-0.101,0.068l-0.103,0.066l-0.104,0.064l-0.106,0.062l-0.107,0.06l-0.108,0.058l-0.109,0.055l-0.111,0.053l-0.112,0.052l-0.113,0.048l-0.114,0.047l-0.115,0.044l-0.117,0.042l-0.117,0.04l-0.118,0.037l-0.12,0.035l-0.12,0.032l-0.121,0.03l-0.122,0.028l-0.123,0.025l-0.124,0.022l-0.124,0.02l-0.125,0.018l-0.126,0.014l-0.126,0.012l-0.127,0.01l-0.128,0.007l-0.128,0.004l-0.117,0.001l-3.776,0l-0.117,-0.001l-0.128,-0.004l-0.128,-0.007l-0.127,-0.01l-0.126,-0.012l-0.126,-0.014l-0.125,-0.018l-0.124,-0.02l-0.124,-0.022l-0.123,-0.025l-0.122,-0.028l-0.121,-0.03l-0.12,-0.032l-0.12,-0.035l-0.118,-0.037l-0.117,-0.04l-0.117,-0.042l-0.115,-0.044l-0.114,-0.047l-0.113,-0.048l-0.112,-0.052l-0.111,-0.053l-0.109,-0.055l-0.108,-0.058l-0.107,-0.06l-0.106,-0.062l-0.104,-0.064l-0.103,-0.066l-0.101,-0.068l-0.1,-0.07l-0.099,-0.073l-0.097,-0.074l-0.095,-0.076l-0.094,-0.078l-0.092,-0.08l-0.091,-0.082l-0.089,-0.083l-0.087,-0.086l-0.086,-0.087l-0.084,-0.089l-0.082,-0.092l-0.081,-0.092l-0.078,-0.094l-0.077,-0.096l-0.075,-0.098l-0.073,-0.1l-0.071,-0.101l-0.068,-0.103l-0.067,-0.104l-0.065,-0.106l-0.063,-0.107l-0.061,-0.109l-0.058,-0.11l-0.056,-0.112l-0.054,-0.113l-0.052,-0.114l-0.05,-0.116l-0.047,-0.117l-0.045,-0.119l-0.042,-0.12l-0.04,-0.12l-0.037,-0.122l-0.035,-0.124l-0.03,-0.114l-0.196,-0.784l-0.017,-0.065l-0.016,-0.056l-0.017,-0.055l-0.02,-0.064l-2.008,-6.023l-0.032,-0.099l-0.034,-0.105l-0.031,-0.105l-0.031,-0.105l-0.03,-0.105l-0.029,-0.105l-0.028,-0.106l-0.026,-0.106l-0.026,-0.106l-0.024,-0.107l-0.023,-0.106l-0.023,-0.106l-0.021,-0.107l-0.02,-0.107l-0.019,-0.107l-0.018,-0.107l-0.017,-0.108l-0.015,-0.108l-0.015,-0.107l-0.014,-0.108l-0.012,-0.108l-0.011,-0.108l-0.011,-0.108l-0.009,-0.108l-0.008,-0.108l-0.007,-0.108l-0.006,-0.108l-0.005,-0.109l-0.004,-0.108l-0.003,-0.108l-0.001,-0.109l-0.001,-0.108l0.001,-0.108l0.001,-0.109l0.003,-0.108l0.004,-0.108l0.005,-0.109l0.006,-0.108l0.007,-0.108l0.008,-0.108l0.009,-0.108l0.011,-0.108l0.011,-0.108l0.012,-0.108l0.014,-0.108l0.015,-0.107l0.015,-0.108l0.017,-0.107l0.018,-0.108l0.019,-0.107l0.02,-0.107l0.021,-0.107l0.023,-0.106l0.023,-0.106l0.024,-0.107l0.026,-0.106l0.026,-0.106l0.028,-0.106l0.029,-0.105l0.03,-0.105l0.03,-0.105l0.032,-0.105l0.034,-0.105l0.037,-0.113l0.005,-0.015l0.036,-0.104l0.046,-0.126l0.049,-0.125l0.051,-0.123l0.053,-0.122l0.055,-0.121l0.058,-0.119l0.06,-0.118l0.062,-0.116l0.064,-0.115l0.067,-0.113l0.068,-0.112l0.071,-0.11l0.073,-0.109l0.074,-0.107l0.077,-0.105l0.078,-0.104l0.08,-0.102l0.082,-0.1l0.085,-0.099l0.085,-0.097l0.088,-0.095l0.089,-0.093l0.091,-0.091l0.093,-0.09l0.094,-0.088l0.096,-0.086l0.097,-0.083l0.1,-0.083l0.1,-0.08l0.102,-0.078l0.104,-0.076l0.105,-0.074l0.106,-0.072l0.108,-0.07l0.109,-0.068l0.111,-0.066l0.112,-0.064l0.113,-0.062l0.114,-0.059l0.115,-0.058l0.117,-0.055l0.118,-0.053l0.119,-0.051l0.12,-0.048l0.121,-0.047l0.122,-0.044l0.124,-0.041l0.124,-0.039l0.125,-0.037l0.126,-0.035l0.127,-0.032l0.127,-0.03l0.129,-0.027l0.129,-0.024l0.13,-0.023l0.131,-0.019l0.131,-0.017l0.132,-0.015l0.133,-0.012l0.133,-0.009l0.133,-0.007l0.134,-0.004l0.125,-0.001l7.256,0l0.125,0.001Zm-7.361,3.999l-0.065,0.001l-0.054,0.001l-0.054,0.003l-0.054,0.004l-0.053,0.005l-0.053,0.005l-0.053,0.007l-0.052,0.008l-0.052,0.009l-0.052,0.01l-0.052,0.011l-0.051,0.012l-0.051,0.013l-0.05,0.013l-0.051,0.015l-0.049,0.016l-0.05,0.017l-0.049,0.017l-0.049,0.019l-0.048,0.019l-0.047,0.021l-0.048,0.021l-0.047,0.022l-0.046,0.023l-0.046,0.024l-0.046,0.025l-0.045,0.026l-0.044,0.026l-0.045,0.028l-0.043,0.028l-0.043,0.029l-0.042,0.03l-0.042,0.031l-0.041,0.032l-0.041,0.032l-0.04,0.033l-0.039,0.034l-0.039,0.034l-0.037,0.036l-0.038,0.036l-0.036,0.036l-0.036,0.038l-0.036,0.038l-0.034,0.039l-0.034,0.04l-0.033,0.04l-0.032,0.041l-0.032,0.042l-0.03,0.042l-0.03,0.043l-0.029,0.043l-0.029,0.045l-0.027,0.044l-0.027,0.046l-0.025,0.046l-0.025,0.046l-0.024,0.047l-0.024,0.049l-0.022,0.048l-0.021,0.049l-0.021,0.05l-0.02,0.05l-0.018,0.051l-0.026,0.075l0.005,-0.013l-0.019,0.057l-0.021,0.066l-0.02,0.066l-0.02,0.066l-0.018,0.066l-0.018,0.067l-0.018,0.067l-0.017,0.066l-0.016,0.067l-0.015,0.067l-0.015,0.067l-0.014,0.068l-0.013,0.067l-0.013,0.067l-0.012,0.068l-0.011,0.067l-0.011,0.068l-0.01,0.068l-0.009,0.068l-0.008,0.068l-0.008,0.068l-0.007,0.068l-0.007,0.068l-0.006,0.068l-0.005,0.068l-0.004,0.068l-0.004,0.069l-0.003,0.068l-0.003,0.068l-0.001,0.068l-0.001,0.068l-0.001,0.069l0.001,0.069l0.001,0.068l0.001,0.068l0.003,0.068l0.003,0.069l0.004,0.068l0.004,0.068l0.005,0.068l0.006,0.068l0.007,0.068l0.007,0.068l0.008,0.068l0.008,0.069l0.009,0.067l0.01,0.068l0.011,0.067l0.011,0.068l0.012,0.068l0.013,0.067l0.013,0.067l0.014,0.068l0.015,0.067l0.015,0.067l0.016,0.067l0.017,0.067l0.017,0.066l0.019,0.067l0.018,0.066l0.02,0.066l0.02,0.066l0.021,0.066l0.023,0.071l2.011,6.031l0.038,0.119l0.039,0.129l0.036,0.129l0.032,0.121l0.195,0.783l0.014,0.052l0.012,0.041l0.012,0.041l0.014,0.041l0.014,0.04l0.015,0.039l0.015,0.039l0.017,0.039l0.017,0.038l0.018,0.037l0.019,0.037l0.019,0.037l0.02,0.036l0.021,0.035l0.021,0.035l0.023,0.035l0.022,0.034l0.024,0.034l0.024,0.033l0.025,0.032l0.026,0.032l0.026,0.032l0.027,0.031l0.027,0.03l0.028,0.03l0.029,0.029l0.029,0.029l0.03,0.028l0.03,0.027l0.031,0.027l0.031,0.026l0.032,0.025l0.033,0.025l0.033,0.024l0.033,0.024l0.034,0.023l0.034,0.022l0.035,0.021l0.036,0.021l0.035,0.02l0.036,0.019l0.037,0.019l0.037,0.017l0.037,0.017l0.038,0.017l0.037,0.015l0.039,0.015l0.038,0.014l0.039,0.013l0.04,0.012l0.039,0.012l0.04,0.011l0.04,0.009l0.041,0.01l0.04,0.008l0.041,0.007l0.042,0.007l0.041,0.006l0.042,0.005l0.043,0.004l0.042,0.003l0.043,0.002l0.043,0.001l0.054,0.001l3.732,0l0.054,-0.001l0.043,-0.001l0.043,-0.002l0.042,-0.003l0.043,-0.004l0.042,-0.005l0.041,-0.006l0.042,-0.007l0.041,-0.007l0.04,-0.008l0.041,-0.01l0.04,-0.009l0.04,-0.011l0.039,-0.012l0.04,-0.012l0.039,-0.013l0.038,-0.014l0.039,-0.015l0.038,-0.015l0.037,-0.017l0.037,-0.017l0.037,-0.017l0.037,-0.019l0.036,-0.019l0.035,-0.02l0.036,-0.021l0.035,-0.021l0.034,-0.022l0.034,-0.023l0.033,-0.024l0.033,-0.024l0.033,-0.025l0.032,-0.025l0.031,-0.026l0.031,-0.027l0.03,-0.027l0.03,-0.028l0.029,-0.029l0.029,-0.029l0.028,-0.03l0.027,-0.03l0.027,-0.031l0.026,-0.032l0.026,-0.032l0.025,-0.032l0.024,-0.033l0.024,-0.034l0.023,-0.034l0.022,-0.034l0.021,-0.036l0.021,-0.035l0.02,-0.036l0.02,-0.037l0.018,-0.037l0.018,-0.037l0.017,-0.038l0.017,-0.039l0.015,-0.039l0.015,-0.039l0.014,-0.04l0.014,-0.041l0.012,-0.04l0.012,-0.042l0.014,-0.052l0.195,-0.783l0.032,-0.121l0.036,-0.129l0.039,-0.129l0.038,-0.118l2.011,-6.032l0.023,-0.071l0.021,-0.066l0.02,-0.066l0.02,-0.066l0.018,-0.066l0.018,-0.067l0.018,-0.067l0.017,-0.066l0.016,-0.067l0.015,-0.067l0.015,-0.068l0.014,-0.066l0.013,-0.068l0.013,-0.067l0.012,-0.067l0.011,-0.068l0.011,-0.068l0.01,-0.068l0.009,-0.068l0.008,-0.068l0.008,-0.067l0.007,-0.069l0.007,-0.068l0.006,-0.068l0.005,-0.068l0.004,-0.068l0.004,-0.068l0.003,-0.069l0.003,-0.068l0.001,-0.068l0.001,-0.069l0.001,-0.068l-0.001,-0.068l-0.001,-0.069l-0.001,-0.068l-0.003,-0.068l-0.003,-0.069l-0.004,-0.068l-0.004,-0.068l-0.005,-0.068l-0.006,-0.068l-0.007,-0.068l-0.007,-0.069l-0.008,-0.067l-0.008,-0.068l-0.009,-0.068l-0.01,-0.068l-0.011,-0.068l-0.011,-0.067l-0.012,-0.068l-0.013,-0.067l-0.013,-0.067l-0.014,-0.067l-0.015,-0.068l-0.015,-0.067l-0.016,-0.067l-0.017,-0.067l-0.017,-0.066l-0.019,-0.067l-0.018,-0.066l-0.02,-0.066l-0.02,-0.066l-0.021,-0.066l-0.02,-0.063l-0.02,-0.056l-0.019,-0.051l-0.019,-0.05l-0.021,-0.05l-0.021,-0.049l-0.022,-0.048l-0.024,-0.048l-0.024,-0.048l-0.025,-0.046l-0.025,-0.046l-0.027,-0.046l-0.028,-0.045l-0.028,-0.044l-0.029,-0.043l-0.03,-0.043l-0.03,-0.042l-0.032,-0.042l-0.032,-0.041l-0.033,-0.04l-0.034,-0.04l-0.034,-0.039l-0.036,-0.038l-0.035,-0.037l-0.037,-0.037l-0.038,-0.036l-0.037,-0.036l-0.039,-0.034l-0.039,-0.034l-0.04,-0.033l-0.041,-0.033l-0.041,-0.031l-0.042,-0.031l-0.042,-0.03l-0.043,-0.029l-0.044,-0.028l-0.043,-0.027l-0.045,-0.027l-0.045,-0.026l-0.046,-0.025l-0.046,-0.024l-0.046,-0.023l-0.047,-0.022l-0.047,-0.021l-0.048,-0.021l-0.049,-0.019l-0.048,-0.019l-0.049,-0.017l-0.05,-0.017l-0.049,-0.016l-0.051,-0.015l-0.05,-0.013l-0.051,-0.013l-0.051,-0.012l-0.052,-0.011l-0.052,-0.01l-0.052,-0.009l-0.052,-0.008l-0.053,-0.007l-0.053,-0.005l-0.053,-0.005l-0.054,-0.004l-0.054,-0.003l-0.054,-0.001l-0.065,-0.001l-7.216,0Z"/></g></g><g id="emoji"><path d="M12,11c0,0 -0.905,-1.509 -1.721,-2.869c-0.819,-1.364 -2.146,-2.348 -3.69,-2.734c-2.356,-0.589 -5.589,-1.397 -5.589,-1.397c0,0 0.655,3.277 1.216,6.079c0.456,2.28 2.458,3.921 4.783,3.921c0.001,0 0.001,0 0.001,0l3,2" style="fill:#dcc9a6;"/><clipPath id="_clip2"><path d="M12,11c0,0 -0.905,-1.509 -1.721,-2.869c-0.819,-1.364 -2.146,-2.348 -3.69,-2.734c-2.356,-0.589 -5.589,-1.397 -5.589,-1.397c0,0 0.655,3.277 1.216,6.079c0.456,2.28 2.458,3.921 4.783,3.921c0.001,0 0.001,0 0.001,0l3,2"/></clipPath><g clip-path="url(#_clip2)"><path d="M7.08,3.458l0.09,0.024l0.096,0.025l0.096,0.027l0.094,0.029l0.095,0.029l0.094,0.03l0.094,0.032l0.092,0.033l0.093,0.033l0.092,0.035l0.092,0.036l0.091,0.037l0.09,0.039l0.09,0.039l0.09,0.04l0.089,0.042l0.088,0.042l0.087,0.044l0.088,0.044l0.087,0.046l0.085,0.047l0.086,0.047l0.084,0.049l0.084,0.05l0.084,0.05l0.083,0.052l0.082,0.053l0.081,0.054l0.081,0.054l0.08,0.056l0.08,0.057l0.079,0.057l0.077,0.059l0.078,0.059l0.076,0.061l0.076,0.061l0.075,0.062l0.075,0.064l0.073,0.064l0.073,0.065l0.072,0.066l0.071,0.067l0.071,0.068l0.069,0.068l0.069,0.07l0.068,0.07l0.067,0.071l0.067,0.072l0.066,0.073l0.064,0.074l0.064,0.075l0.063,0.075l0.062,0.076l0.061,0.078l0.06,0.078l0.059,0.078l0.059,0.08l0.057,0.08l0.057,0.081l0.055,0.082l0.055,0.083l0.053,0.083l0.053,0.084l0.049,0.08l2.753,4.589l-3.43,2.058l-2.747,-4.579l-0.029,-0.047l-0.026,-0.042l-0.027,-0.042l-0.028,-0.042l-0.027,-0.04l-0.029,-0.041l-0.028,-0.04l-0.03,-0.04l-0.029,-0.039l-0.03,-0.039l-0.031,-0.038l-0.031,-0.039l-0.031,-0.038l-0.032,-0.037l-0.033,-0.037l-0.032,-0.036l-0.033,-0.036l-0.034,-0.036l-0.034,-0.035l-0.034,-0.035l-0.035,-0.034l-0.035,-0.034l-0.036,-0.033l-0.036,-0.034l-0.037,-0.032l-0.036,-0.032l-0.037,-0.032l-0.038,-0.031l-0.038,-0.031l-0.038,-0.03l-0.039,-0.03l-0.039,-0.029l-0.04,-0.029l-0.039,-0.028l-0.04,-0.028l-0.041,-0.027l-0.04,-0.027l-0.041,-0.026l-0.042,-0.026l-0.041,-0.026l-0.043,-0.024l-0.042,-0.025l-0.042,-0.024l-0.044,-0.023l-0.043,-0.023l-0.043,-0.022l-0.044,-0.022l-0.044,-0.021l-0.045,-0.021l-0.045,-0.02l-0.045,-0.02l-0.045,-0.019l-0.045,-0.018l-0.046,-0.018l-0.046,-0.018l-0.046,-0.017l-0.047,-0.016l-0.047,-0.016l-0.047,-0.015l-0.047,-0.015l-0.047,-0.014l-0.048,-0.013l-0.048,-0.013l-0.054,-0.014l-2.517,-0.629l0.594,2.969l0.015,0.074l0.015,0.062l0.016,0.062l0.017,0.061l0.019,0.061l0.019,0.059l0.021,0.06l0.023,0.058l0.023,0.058l0.024,0.057l0.026,0.056l0.027,0.056l0.028,0.055l0.029,0.054l0.03,0.054l0.031,0.052l0.032,0.052l0.034,0.051l0.034,0.051l0.036,0.049l0.036,0.049l0.038,0.048l0.038,0.048l0.04,0.046l0.04,0.045l0.041,0.045l0.043,0.044l0.043,0.043l0.044,0.042l0.045,0.041l0.046,0.039l0.046,0.04l0.048,0.038l0.048,0.037l0.049,0.036l0.05,0.035l0.05,0.034l0.051,0.033l0.052,0.031l0.053,0.031l0.053,0.03l0.054,0.028l0.055,0.028l0.055,0.026l0.055,0.025l0.056,0.024l0.057,0.022l0.057,0.022l0.058,0.02l0.059,0.019l0.059,0.018l0.059,0.017l0.06,0.015l0.06,0.014l0.061,0.013l0.061,0.012l0.061,0.01l0.062,0.009l0.063,0.007l0.063,0.007l0.063,0.005l0.064,0.003l0.064,0.002l0.076,0.001l0.596,0l5.168,3.445l-2.219,3.328l-4.207,-2.804l-0.107,-0.011l-0.149,-0.018l-0.149,-0.021l-0.148,-0.025l-0.146,-0.027l-0.146,-0.031l-0.145,-0.034l-0.143,-0.037l-0.143,-0.04l-0.141,-0.043l-0.14,-0.045l-0.139,-0.049l-0.137,-0.052l-0.136,-0.054l-0.135,-0.057l-0.133,-0.06l-0.132,-0.063l-0.13,-0.065l-0.129,-0.068l-0.127,-0.071l-0.125,-0.074l-0.124,-0.075l-0.122,-0.079l-0.121,-0.081l-0.118,-0.083l-0.117,-0.086l-0.115,-0.088l-0.113,-0.091l-0.111,-0.093l-0.109,-0.095l-0.107,-0.098l-0.105,-0.1l-0.103,-0.102l-0.101,-0.104l-0.098,-0.106l-0.097,-0.109l-0.094,-0.111l-0.092,-0.113l-0.09,-0.115l-0.087,-0.116l-0.085,-0.119l-0.083,-0.121l-0.079,-0.123l-0.078,-0.125l-0.075,-0.126l-0.072,-0.128l-0.07,-0.13l-0.067,-0.133l-0.065,-0.133l-0.061,-0.135l-0.059,-0.137l-0.056,-0.139l-0.053,-0.14l-0.05,-0.141l-0.047,-0.143l-0.044,-0.144l-0.041,-0.146l-0.038,-0.147l-0.035,-0.149l-0.029,-0.138l-1.666,-8.33l0.678,-0.646l7.811,1.952Z" style="fill:#bb9753;"/></g><path d="M6.834,4.428l0.082,0.021l0.084,0.022l0.083,0.024l0.083,0.025l0.083,0.025l0.082,0.027l0.082,0.028l0.081,0.028l0.081,0.03l0.081,0.03l0.08,0.032l0.08,0.032l0.079,0.034l0.079,0.034l0.078,0.035l0.078,0.037l0.077,0.037l0.077,0.038l0.076,0.039l0.076,0.04l0.075,0.041l0.074,0.041l0.075,0.043l0.073,0.043l0.073,0.045l0.073,0.045l0.071,0.046l0.072,0.047l0.071,0.048l0.07,0.049l0.069,0.049l0.069,0.051l0.068,0.051l0.068,0.052l0.067,0.053l0.066,0.054l0.066,0.054l0.065,0.055l0.065,0.057l0.063,0.057l0.063,0.057l0.063,0.059l0.061,0.059l0.061,0.06l0.061,0.061l0.059,0.062l0.059,0.062l0.058,0.063l0.057,0.064l0.057,0.064l0.056,0.066l0.055,0.066l0.054,0.066l0.053,0.068l0.053,0.068l0.052,0.069l0.051,0.07l0.05,0.07l0.05,0.071l0.048,0.072l0.048,0.072l0.047,0.073l0.046,0.073l0.044,0.072l2.237,3.729l-1.715,1.029l-2.234,-3.724l-0.034,-0.056l-0.033,-0.052l-0.034,-0.052l-0.034,-0.052l-0.034,-0.051l-0.036,-0.051l-0.036,-0.05l-0.036,-0.05l-0.037,-0.049l-0.038,-0.049l-0.038,-0.048l-0.039,-0.047l-0.039,-0.047l-0.04,-0.047l-0.04,-0.046l-0.041,-0.046l-0.042,-0.045l-0.042,-0.044l-0.042,-0.044l-0.043,-0.044l-0.044,-0.043l-0.044,-0.042l-0.044,-0.042l-0.045,-0.041l-0.046,-0.041l-0.046,-0.04l-0.046,-0.039l-0.047,-0.039l-0.048,-0.039l-0.048,-0.038l-0.048,-0.037l-0.049,-0.036l-0.049,-0.036l-0.049,-0.036l-0.051,-0.034l-0.05,-0.035l-0.051,-0.033l-0.051,-0.033l-0.052,-0.033l-0.052,-0.031l-0.053,-0.031l-0.053,-0.031l-0.053,-0.03l-0.054,-0.029l-0.054,-0.028l-0.054,-0.028l-0.055,-0.027l-0.055,-0.027l-0.056,-0.026l-0.056,-0.025l-0.056,-0.025l-0.057,-0.023l-0.056,-0.024l-0.058,-0.022l-0.057,-0.022l-0.058,-0.021l-0.058,-0.02l-0.059,-0.02l-0.058,-0.019l-0.06,-0.019l-0.059,-0.017l-0.059,-0.017l-0.06,-0.016l-0.064,-0.016l-4.053,-1.014l0.905,4.524l0.019,0.091l0.02,0.083l0.021,0.083l0.024,0.083l0.025,0.081l0.026,0.081l0.028,0.08l0.03,0.078l0.032,0.078l0.033,0.077l0.034,0.076l0.037,0.076l0.037,0.074l0.039,0.073l0.041,0.072l0.042,0.071l0.044,0.07l0.045,0.069l0.046,0.069l0.048,0.066l0.05,0.066l0.05,0.065l0.052,0.064l0.053,0.062l0.055,0.061l0.055,0.06l0.057,0.059l0.058,0.058l0.06,0.057l0.06,0.055l0.062,0.053l0.062,0.053l0.064,0.051l0.065,0.05l0.066,0.049l0.067,0.047l0.068,0.045l0.069,0.045l0.07,0.042l0.07,0.042l0.072,0.04l0.073,0.038l0.073,0.037l0.074,0.035l0.075,0.034l0.076,0.032l0.077,0.031l0.077,0.029l0.078,0.027l0.079,0.026l0.079,0.024l0.081,0.023l0.08,0.02l0.082,0.019l0.082,0.018l0.082,0.015l0.083,0.014l0.084,0.012l0.084,0.01l0.085,0.009l0.085,0.006l0.086,0.005l0.086,0.003l0.093,0.001l0.298,0l4.084,2.723l-1.11,1.664l-3.593,-2.396l-0.076,-0.004l-0.129,-0.01l-0.128,-0.013l-0.128,-0.015l-0.127,-0.018l-0.126,-0.021l-0.125,-0.024l-0.125,-0.026l-0.123,-0.029l-0.123,-0.032l-0.122,-0.034l-0.12,-0.036l-0.12,-0.039l-0.119,-0.042l-0.117,-0.044l-0.116,-0.047l-0.115,-0.048l-0.114,-0.052l-0.113,-0.053l-0.111,-0.056l-0.11,-0.058l-0.109,-0.061l-0.107,-0.063l-0.106,-0.064l-0.104,-0.067l-0.103,-0.07l-0.101,-0.071l-0.1,-0.073l-0.098,-0.076l-0.097,-0.077l-0.095,-0.08l-0.093,-0.081l-0.091,-0.084l-0.09,-0.085l-0.088,-0.087l-0.086,-0.089l-0.085,-0.092l-0.082,-0.092l-0.081,-0.095l-0.078,-0.096l-0.077,-0.099l-0.075,-0.099l-0.072,-0.102l-0.071,-0.103l-0.068,-0.105l-0.066,-0.107l-0.064,-0.108l-0.062,-0.109l-0.06,-0.111l-0.057,-0.113l-0.055,-0.114l-0.053,-0.116l-0.05,-0.116l-0.048,-0.119l-0.045,-0.12l-0.043,-0.12l-0.04,-0.123l-0.038,-0.123l-0.035,-0.124l-0.032,-0.126l-0.03,-0.127l-0.026,-0.123l-1.441,-7.204l0.339,-0.323l6.7,1.675Z"/><path d="M20,11c0,0 0.905,-1.509 1.721,-2.869c0.819,-1.364 2.146,-2.348 3.69,-2.734c2.356,-0.589 5.589,-1.397 5.589,-1.397c0,0 -0.655,3.277 -1.216,6.079c-0.456,2.28 -2.458,3.921 -4.783,3.921c-0.001,0 -0.001,0 -0.001,0l-3,2" style="fill:#dcc9a6;"/><clipPath id="_clip3"><path d="M20,11c0,0 0.905,-1.509 1.721,-2.869c0.819,-1.364 2.146,-2.348 3.69,-2.734c2.356,-0.589 5.589,-1.397 5.589,-1.397c0,0 -0.655,3.277 -1.216,6.079c-0.456,2.28 -2.458,3.921 -4.783,3.921c-0.001,0 -0.001,0 -0.001,0l-3,2"/></clipPath><g clip-path="url(#_clip3)"><path d="M33.409,2.152l-1.666,8.33l-0.029,0.138l-0.035,0.149l-0.038,0.147l-0.041,0.146l-0.044,0.144l-0.047,0.143l-0.05,0.141l-0.053,0.14l-0.056,0.139l-0.059,0.137l-0.061,0.135l-0.065,0.133l-0.067,0.133l-0.07,0.13l-0.072,0.128l-0.075,0.126l-0.078,0.125l-0.079,0.123l-0.083,0.121l-0.085,0.119l-0.087,0.116l-0.09,0.115l-0.092,0.113l-0.094,0.111l-0.097,0.109l-0.098,0.106l-0.101,0.104l-0.103,0.102l-0.105,0.1l-0.107,0.098l-0.109,0.095l-0.111,0.093l-0.113,0.091l-0.115,0.088l-0.117,0.086l-0.118,0.083l-0.121,0.081l-0.122,0.079l-0.124,0.075l-0.125,0.074l-0.127,0.071l-0.129,0.068l-0.13,0.065l-0.132,0.063l-0.133,0.06l-0.135,0.057l-0.136,0.054l-0.137,0.052l-0.139,0.049l-0.14,0.045l-0.141,0.043l-0.143,0.04l-0.143,0.037l-0.145,0.034l-0.146,0.031l-0.146,0.027l-0.148,0.025l-0.149,0.021l-0.149,0.018l-0.107,0.011l-4.207,2.804l-2.219,-3.328l5.168,-3.445l0.596,0l0.076,-0.001l0.064,-0.002l0.064,-0.003l0.063,-0.005l0.063,-0.007l0.063,-0.007l0.062,-0.009l0.061,-0.01l0.061,-0.012l0.061,-0.013l0.06,-0.014l0.06,-0.015l0.059,-0.017l0.059,-0.018l0.059,-0.019l0.058,-0.02l0.057,-0.022l0.057,-0.022l0.056,-0.024l0.055,-0.025l0.055,-0.026l0.055,-0.028l0.054,-0.028l0.053,-0.03l0.053,-0.031l0.052,-0.031l0.051,-0.033l0.05,-0.034l0.05,-0.035l0.049,-0.036l0.048,-0.037l0.048,-0.038l0.046,-0.04l0.046,-0.039l0.045,-0.041l0.044,-0.042l0.043,-0.043l0.043,-0.044l0.041,-0.045l0.04,-0.045l0.04,-0.046l0.038,-0.048l0.038,-0.048l0.036,-0.049l0.036,-0.049l0.034,-0.051l0.034,-0.051l0.032,-0.052l0.031,-0.052l0.03,-0.054l0.029,-0.054l0.028,-0.055l0.027,-0.056l0.026,-0.056l0.024,-0.057l0.023,-0.058l0.023,-0.058l0.021,-0.06l0.019,-0.059l0.019,-0.061l0.017,-0.061l0.016,-0.062l0.015,-0.062l0.015,-0.074l0.594,-2.969l-2.517,0.629l-0.054,0.014l-0.048,0.013l-0.048,0.013l-0.047,0.014l-0.047,0.015l-0.047,0.015l-0.047,0.016l-0.047,0.016l-0.046,0.017l-0.046,0.018l-0.046,0.018l-0.045,0.018l-0.045,0.019l-0.045,0.02l-0.045,0.02l-0.045,0.021l-0.044,0.021l-0.044,0.022l-0.043,0.022l-0.043,0.023l-0.044,0.023l-0.042,0.024l-0.042,0.025l-0.043,0.024l-0.041,0.026l-0.042,0.026l-0.041,0.026l-0.04,0.027l-0.041,0.027l-0.04,0.028l-0.039,0.028l-0.04,0.029l-0.039,0.029l-0.039,0.03l-0.038,0.03l-0.038,0.031l-0.038,0.031l-0.037,0.032l-0.036,0.032l-0.037,0.032l-0.036,0.034l-0.036,0.033l-0.035,0.034l-0.035,0.034l-0.034,0.035l-0.034,0.035l-0.034,0.036l-0.033,0.036l-0.032,0.036l-0.033,0.037l-0.032,0.037l-0.031,0.038l-0.031,0.039l-0.031,0.038l-0.03,0.039l-0.029,0.039l-0.03,0.04l-0.028,0.04l-0.029,0.041l-0.027,0.04l-0.028,0.042l-0.027,0.042l-0.026,0.042l-0.029,0.047l-2.747,4.579l-3.43,-2.058l2.753,-4.589l0.049,-0.08l0.053,-0.084l0.053,-0.083l0.055,-0.083l0.055,-0.082l0.057,-0.081l0.057,-0.08l0.059,-0.08l0.059,-0.078l0.06,-0.078l0.061,-0.078l0.062,-0.076l0.063,-0.075l0.064,-0.075l0.064,-0.074l0.066,-0.073l0.067,-0.072l0.067,-0.071l0.068,-0.07l0.069,-0.07l0.069,-0.068l0.071,-0.068l0.071,-0.067l0.072,-0.066l0.073,-0.065l0.073,-0.064l0.075,-0.064l0.075,-0.062l0.076,-0.061l0.076,-0.061l0.078,-0.059l0.077,-0.059l0.079,-0.057l0.08,-0.057l0.08,-0.056l0.081,-0.054l0.081,-0.054l0.082,-0.053l0.083,-0.052l0.084,-0.05l0.084,-0.05l0.084,-0.049l0.086,-0.047l0.085,-0.047l0.087,-0.046l0.088,-0.044l0.087,-0.044l0.088,-0.042l0.089,-0.042l0.09,-0.04l0.09,-0.039l0.09,-0.039l0.091,-0.037l0.092,-0.036l0.092,-0.035l0.093,-0.033l0.092,-0.033l0.094,-0.032l0.094,-0.03l0.095,-0.029l0.094,-0.029l0.096,-0.027l0.096,-0.025l0.09,-0.024l7.811,-1.952l0.678,0.646Z" style="fill:#bb9753;"/></g><path d="M32.205,3.076l-1.441,7.204l-0.026,0.123l-0.03,0.127l-0.032,0.126l-0.035,0.124l-0.038,0.123l-0.04,0.123l-0.043,0.12l-0.045,0.12l-0.048,0.119l-0.05,0.116l-0.053,0.116l-0.055,0.114l-0.057,0.113l-0.06,0.111l-0.062,0.109l-0.064,0.108l-0.066,0.107l-0.068,0.105l-0.071,0.103l-0.072,0.102l-0.075,0.099l-0.077,0.099l-0.078,0.096l-0.081,0.095l-0.082,0.092l-0.085,0.092l-0.086,0.089l-0.088,0.087l-0.09,0.085l-0.091,0.084l-0.093,0.081l-0.095,0.08l-0.097,0.077l-0.098,0.076l-0.1,0.073l-0.101,0.071l-0.103,0.07l-0.104,0.067l-0.106,0.064l-0.107,0.063l-0.109,0.061l-0.11,0.058l-0.111,0.056l-0.113,0.053l-0.114,0.052l-0.115,0.048l-0.116,0.047l-0.117,0.044l-0.119,0.042l-0.12,0.039l-0.12,0.036l-0.122,0.034l-0.123,0.032l-0.123,0.029l-0.125,0.026l-0.125,0.024l-0.126,0.021l-0.127,0.018l-0.128,0.015l-0.128,0.013l-0.129,0.01l-0.076,0.004l-3.593,2.396l-1.11,-1.664l4.084,-2.723l0.298,0l0.093,-0.001l0.086,-0.003l0.086,-0.005l0.085,-0.006l0.085,-0.009l0.084,-0.01l0.084,-0.012l0.083,-0.014l0.082,-0.015l0.082,-0.018l0.082,-0.019l0.08,-0.02l0.081,-0.023l0.079,-0.024l0.079,-0.026l0.078,-0.027l0.077,-0.029l0.077,-0.031l0.076,-0.032l0.075,-0.034l0.074,-0.035l0.073,-0.037l0.073,-0.038l0.072,-0.04l0.07,-0.042l0.07,-0.042l0.069,-0.045l0.068,-0.045l0.067,-0.047l0.066,-0.049l0.065,-0.05l0.064,-0.051l0.062,-0.053l0.062,-0.053l0.06,-0.055l0.06,-0.057l0.058,-0.058l0.057,-0.059l0.055,-0.06l0.055,-0.061l0.053,-0.062l0.052,-0.064l0.05,-0.065l0.05,-0.066l0.048,-0.066l0.046,-0.069l0.045,-0.069l0.044,-0.07l0.042,-0.071l0.041,-0.072l0.039,-0.073l0.037,-0.074l0.037,-0.076l0.034,-0.076l0.033,-0.077l0.032,-0.078l0.03,-0.078l0.028,-0.08l0.026,-0.081l0.025,-0.081l0.024,-0.083l0.021,-0.083l0.02,-0.083l0.019,-0.091l0.905,-4.524l-4.053,1.014l-0.064,0.016l-0.06,0.016l-0.059,0.017l-0.059,0.017l-0.06,0.019l-0.058,0.019l-0.059,0.02l-0.058,0.02l-0.058,0.021l-0.057,0.022l-0.058,0.022l-0.056,0.024l-0.057,0.023l-0.056,0.025l-0.056,0.025l-0.056,0.026l-0.055,0.027l-0.055,0.027l-0.054,0.028l-0.054,0.028l-0.054,0.029l-0.053,0.03l-0.053,0.031l-0.053,0.031l-0.052,0.031l-0.052,0.033l-0.051,0.033l-0.051,0.033l-0.05,0.035l-0.051,0.034l-0.049,0.036l-0.049,0.036l-0.049,0.036l-0.048,0.037l-0.048,0.038l-0.048,0.039l-0.047,0.039l-0.046,0.039l-0.046,0.04l-0.046,0.041l-0.045,0.041l-0.044,0.042l-0.044,0.042l-0.044,0.043l-0.043,0.044l-0.042,0.044l-0.042,0.044l-0.042,0.045l-0.041,0.046l-0.04,0.046l-0.04,0.047l-0.039,0.047l-0.039,0.047l-0.038,0.048l-0.038,0.049l-0.037,0.049l-0.036,0.05l-0.036,0.05l-0.036,0.051l-0.034,0.051l-0.034,0.052l-0.034,0.052l-0.033,0.052l-0.034,0.056l-2.234,3.724l-1.715,-1.029l2.237,-3.729l0.044,-0.072l0.046,-0.073l0.047,-0.073l0.048,-0.072l0.048,-0.072l0.05,-0.071l0.05,-0.07l0.051,-0.07l0.052,-0.069l0.053,-0.068l0.053,-0.068l0.054,-0.066l0.055,-0.066l0.056,-0.066l0.057,-0.064l0.057,-0.064l0.058,-0.063l0.059,-0.062l0.059,-0.062l0.061,-0.061l0.061,-0.06l0.061,-0.059l0.063,-0.059l0.063,-0.057l0.063,-0.057l0.065,-0.057l0.065,-0.055l0.066,-0.054l0.066,-0.054l0.067,-0.053l0.068,-0.052l0.068,-0.051l0.069,-0.051l0.069,-0.049l0.07,-0.049l0.071,-0.048l0.072,-0.047l0.071,-0.046l0.073,-0.045l0.073,-0.045l0.073,-0.043l0.075,-0.043l0.074,-0.041l0.075,-0.041l0.076,-0.04l0.076,-0.039l0.077,-0.038l0.077,-0.037l0.078,-0.037l0.078,-0.035l0.079,-0.034l0.079,-0.034l0.08,-0.032l0.08,-0.032l0.081,-0.03l0.081,-0.03l0.081,-0.028l0.082,-0.028l0.082,-0.027l0.083,-0.025l0.083,-0.025l0.083,-0.024l0.084,-0.022l0.082,-0.021l6.7,-1.675l0.339,0.323Z"/><path d="M12.382,10c-2.02,0 -3.813,1.292 -4.451,3.208c-0.001,0.001 -0.001,0.001 -0.001,0.002c-0.604,1.811 -0.604,3.769 0,5.58c0.763,2.288 1.756,5.269 2.009,6.028c0.041,0.121 0.077,0.244 0.108,0.368c0.043,0.173 0.113,0.453 0.196,0.784c0.445,1.781 2.045,3.03 3.88,3.03c1.196,0 2.558,0 3.754,0c1.835,0 3.435,-1.249 3.88,-3.03c0.083,-0.331 0.153,-0.611 0.196,-0.784c0.031,-0.124 0.067,-0.247 0.108,-0.368c0.253,-0.759 1.246,-3.74 2.009,-6.028c0.604,-1.811 0.604,-3.769 0,-5.58c0,-0.001 0,-0.001 -0.001,-0.002c-0.638,-1.916 -2.431,-3.208 -4.451,-3.208c-2.194,0 -5.042,0 -7.236,0Z" style="fill:#bb9753;"/><path d="M18.531,26.001l0.032,0.003l0.031,0.005l0.03,0.007l0.031,0.008l0.029,0.011l0.029,0.013l0.028,0.014l0.027,0.016l0.026,0.017l0.025,0.02l0.023,0.021l0.022,0.022l0.021,0.023l0.02,0.025l0.017,0.026l0.016,0.027l0.014,0.028l0.013,0.029l0.011,0.029l0.008,0.031l0.007,0.03l0.005,0.031l0.003,0.032l0.001,0.031l-0.001,0.031l-0.003,0.032l-0.005,0.031l-0.007,0.03l-0.008,0.031l-0.011,0.029l-0.013,0.029l-0.014,0.028l-0.016,0.027l-0.017,0.026l-0.02,0.025l-0.021,0.023l-0.022,0.022l-0.023,0.021l-0.025,0.02l-0.026,0.017l-0.027,0.016l-0.028,0.014l-0.029,0.013l-0.029,0.011l-0.031,0.008l-0.03,0.007l-0.031,0.005l-0.032,0.003l-0.031,0.001l-5,0l-0.031,-0.001l-0.032,-0.003l-0.031,-0.005l-0.03,-0.007l-0.031,-0.008l-0.029,-0.011l-0.029,-0.013l-0.028,-0.014l-0.027,-0.016l-0.026,-0.017l-0.025,-0.02l-0.023,-0.021l-0.022,-0.022l-0.021,-0.023l-0.02,-0.025l-0.017,-0.026l-0.016,-0.027l-0.014,-0.028l-0.013,-0.029l-0.011,-0.029l-0.008,-0.031l-0.007,-0.03l-0.005,-0.031l-0.003,-0.032l-0.001,-0.031l0.001,-0.031l0.003,-0.032l0.005,-0.031l0.007,-0.03l0.008,-0.031l0.011,-0.029l0.013,-0.029l0.014,-0.028l0.016,-0.027l0.017,-0.026l0.02,-0.025l0.021,-0.023l0.022,-0.022l0.023,-0.021l0.025,-0.02l0.026,-0.017l0.027,-0.016l0.028,-0.014l0.029,-0.013l0.029,-0.011l0.031,-0.008l0.03,-0.007l0.031,-0.005l0.032,-0.003l0.031,-0.001l5,0l0.031,0.001Z" style="fill:#57422d;"/><path d="M24,15c0,0 -0.28,0.841 -0.544,1.632c-0.272,0.817 -1.037,1.368 -1.898,1.368c-0.768,0 -1.558,0 -1.558,0c0,0 0,0 0,0c0,-1.657 1.343,-3 3,-3c0.574,0 1,0 1,0Z"/><path d="M8,15c0,0 0.28,0.841 0.544,1.632c0.272,0.817 1.037,1.368 1.898,1.368c0.768,0 1.558,0 1.558,0c0,0 0,0 0,0c0,-1.657 -1.343,-3 -3,-3c-0.574,0 -1,0 -1,0Z"/><path d="M14.882,21c-1.039,0 -1.882,0.843 -1.882,1.882c0,0 0,0.001 0,0.001c0,0.075 0.03,0.147 0.083,0.2c0.239,0.239 0.917,0.917 0.917,0.917c0,0 0,0 0,0.001c0,0.552 0.447,0.999 0.999,0.999c0.611,0 1.39,0 2.001,0c0.552,0 1,-0.448 1,-1c0,0 0,0 0,0c0,0 0.678,-0.678 0.917,-0.917c0.053,-0.053 0.083,-0.125 0.083,-0.2c0,0 0,-0.001 0,-0.001c0,-1.039 -0.843,-1.882 -1.882,-1.882c-0.713,0 -1.523,0 -2.236,0Z"/></g></g></svg>