<?xml version="1.0" encoding="UTF-8" standalone="no"?><!DOCTYPE svg PUBLIC "-//W3C//DTD SVG 1.1//EN" "http://www.w3.org/Graphics/SVG/1.1/DTD/svg11.dtd"><svg width="100%" height="100%" viewBox="0 0 32 32" version="1.1" xmlns="http://www.w3.org/2000/svg" xmlns:xlink="http://www.w3.org/1999/xlink" xml:space="preserve" xmlns:serif="http://www.serif.com/" style="fill-rule:evenodd;clip-rule:evenodd;stroke-linecap:round;"><rect id="opossum" x="0" y="0" width="32" height="32" style="fill:none;"/><clipPath id="_clip1"><rect x="0" y="0" width="32" height="32"/></clipPath><g clip-path="url(#_clip1)"><g id="outline"><path d="M23,11.141c0,-1.338 0.668,-2.587 1.781,-3.328c0.162,-0.108 0.319,-0.213 0.463,-0.309c0.493,-0.329 1.072,-0.504 1.664,-0.504c0.03,0 0.061,0 0.092,0c0.796,0 1.559,0.316 2.121,0.879c0.563,0.562 0.879,1.325 0.879,2.121c0,0.391 0,0.782 0,1.146c0,1.136 -0.642,2.175 -1.658,2.683c-0.135,0.067 -0.272,0.136 -0.408,0.204c-1.155,0.577 -2.55,0.351 -3.463,-0.562c-0.74,-0.74 -1.471,-1.471 -1.471,-1.471c0,0 0,-0.375 0,-0.859Z" style="fill:none;stroke:#000;stroke-width:4px;"/><path d="M9,11.141c0,-1.338 -0.668,-2.587 -1.781,-3.328c-0.162,-0.108 -0.319,-0.213 -0.463,-0.309c-0.493,-0.329 -1.072,-0.504 -1.664,-0.504c-0.03,0 -0.061,0 -0.092,0c-0.796,0 -1.559,0.316 -2.121,0.879c-0.563,0.562 -0.879,1.325 -0.879,2.121c0,0.391 0,0.782 0,1.146c0,1.136 0.642,2.175 1.658,2.683c0.135,0.067 0.272,0.136 0.408,0.204c1.155,0.577 2.55,0.351 3.463,-0.562c0.74,-0.74 1.471,-1.471 1.471,-1.471c0,0 0,-0.375 0,-0.859Z" style="fill:none;stroke:#000;stroke-width:4px;"/><path d="M14,6c-4.971,0 -9,4.029 -9,9c0,0.314 0,0.62 0,0.912c0,2.001 0.667,3.946 1.896,5.525c1.027,1.321 2.29,2.945 3.302,4.247c1.137,1.461 2.885,2.316 4.737,2.316c0.694,0 1.436,0 2.13,0c1.852,0 3.6,-0.855 4.737,-2.316c1.012,-1.302 2.275,-2.926 3.302,-4.247c1.229,-1.579 1.896,-3.524 1.896,-5.525c0,-0.292 0,-0.598 0,-0.912c0,-4.971 -4.029,-9 -9,-9c-1.32,0 -2.68,0 -4,0Z"/><path d="M18.142,4.001l0.141,0.003l0.141,0.004l0.14,0.006l0.141,0.008l0.139,0.01l0.14,0.011l0.138,0.014l0.139,0.015l0.137,0.016l0.138,0.019l0.137,0.02l0.136,0.021l0.136,0.024l0.135,0.025l0.135,0.026l0.134,0.029l0.133,0.03l0.133,0.031l0.133,0.033l0.131,0.035l0.131,0.036l0.131,0.038l0.129,0.04l0.129,0.041l0.129,0.042l0.127,0.044l0.127,0.046l0.126,0.047l0.126,0.049l0.124,0.05l0.124,0.051l0.124,0.053l0.122,0.055l0.121,0.055l0.121,0.058l0.12,0.058l0.119,0.061l0.118,0.061l0.118,0.063l0.116,0.064l0.116,0.066l0.115,0.066l0.113,0.069l0.113,0.069l0.112,0.071l0.111,0.072l0.111,0.074l0.109,0.075l0.108,0.076l0.107,0.077l0.107,0.078l0.105,0.08l0.104,0.081l0.104,0.082l0.102,0.084l0.101,0.084l0.1,0.086l0.1,0.087l0.098,0.088l0.097,0.089l0.096,0.091l0.094,0.091l0.094,0.093l0.093,0.094l0.091,0.094l0.091,0.096l0.089,0.097l0.088,0.099l0.087,0.099l0.086,0.1l0.084,0.101l0.084,0.102l0.082,0.104l0.081,0.104l0.08,0.105l0.078,0.107l0.077,0.107l0.077,0.108l0.074,0.109l0.074,0.111l0.072,0.111l0.071,0.112l0.069,0.113l0.069,0.113l0.066,0.115l0.066,0.116l0.064,0.116l0.063,0.118l0.062,0.118l0.06,0.119l0.058,0.12l0.058,0.121l0.055,0.121l0.055,0.122l0.053,0.124l0.051,0.124l0.05,0.124l0.049,0.126l0.047,0.126l0.046,0.127l0.044,0.127l0.042,0.129l0.041,0.129l0.04,0.129l0.038,0.131l0.036,0.131l0.035,0.131l0.033,0.133l0.031,0.133l0.03,0.133l0.029,0.134l0.026,0.135l0.025,0.135l0.024,0.136l0.021,0.136l0.02,0.137l0.019,0.137l0.016,0.138l0.015,0.139l0.014,0.138l0.011,0.14l0.01,0.14l0.008,0.14l0.006,0.14l0.004,0.141l0.003,0.141l0.001,0.136l0,0.923l-0.001,0.11l-0.001,0.114l-0.003,0.115l-0.004,0.114l-0.006,0.114l-0.006,0.114l-0.008,0.114l-0.009,0.113l-0.01,0.114l-0.011,0.113l-0.013,0.113l-0.013,0.113l-0.015,0.113l-0.016,0.112l-0.017,0.113l-0.018,0.112l-0.019,0.112l-0.021,0.111l-0.021,0.111l-0.023,0.111l-0.024,0.111l-0.025,0.111l-0.026,0.11l-0.027,0.11l-0.029,0.109l-0.029,0.11l-0.031,0.109l-0.031,0.108l-0.033,0.108l-0.034,0.108l-0.035,0.108l-0.036,0.107l-0.038,0.107l-0.038,0.106l-0.039,0.106l-0.041,0.106l-0.042,0.105l-0.042,0.105l-0.044,0.104l-0.045,0.104l-0.046,0.103l-0.047,0.103l-0.048,0.103l-0.049,0.102l-0.05,0.102l-0.052,0.101l-0.052,0.1l-0.053,0.1l-0.055,0.1l-0.055,0.099l-0.057,0.099l-0.058,0.098l-0.058,0.097l-0.06,0.097l-0.061,0.096l-0.061,0.096l-0.063,0.095l-0.064,0.095l-0.065,0.094l-0.066,0.093l-0.067,0.093l-0.067,0.092l-0.069,0.092l-0.067,0.086l-3.31,4.256l-0.067,0.085l-0.073,0.09l-0.074,0.088l-0.075,0.087l-0.076,0.086l-0.078,0.085l-0.078,0.083l-0.08,0.083l-0.08,0.081l-0.082,0.079l-0.083,0.079l-0.084,0.077l-0.085,0.076l-0.085,0.075l-0.087,0.073l-0.088,0.072l-0.088,0.071l-0.09,0.07l-0.09,0.068l-0.092,0.066l-0.092,0.066l-0.093,0.064l-0.094,0.063l-0.095,0.061l-0.096,0.06l-0.096,0.059l-0.097,0.057l-0.098,0.056l-0.099,0.055l-0.099,0.053l-0.101,0.051l-0.101,0.051l-0.101,0.048l-0.103,0.048l-0.103,0.046l-0.103,0.044l-0.105,0.043l-0.104,0.042l-0.106,0.04l-0.106,0.039l-0.107,0.037l-0.107,0.035l-0.108,0.035l-0.108,0.032l-0.109,0.031l-0.109,0.03l-0.11,0.028l-0.11,0.026l-0.111,0.025l-0.111,0.024l-0.112,0.022l-0.112,0.02l-0.112,0.019l-0.113,0.017l-0.113,0.015l-0.114,0.014l-0.113,0.013l-0.114,0.01l-0.115,0.009l-0.115,0.008l-0.114,0.006l-0.116,0.004l-0.115,0.002l-0.108,0.001l-2.146,0l-0.108,-0.001l-0.115,-0.002l-0.116,-0.004l-0.114,-0.006l-0.115,-0.008l-0.115,-0.009l-0.114,-0.01l-0.113,-0.013l-0.114,-0.014l-0.113,-0.015l-0.113,-0.017l-0.112,-0.019l-0.112,-0.02l-0.112,-0.022l-0.111,-0.024l-0.111,-0.025l-0.11,-0.026l-0.11,-0.028l-0.109,-0.03l-0.109,-0.031l-0.108,-0.032l-0.108,-0.035l-0.107,-0.035l-0.107,-0.037l-0.106,-0.039l-0.106,-0.04l-0.104,-0.042l-0.105,-0.043l-0.103,-0.044l-0.103,-0.046l-0.103,-0.048l-0.101,-0.048l-0.101,-0.051l-0.101,-0.051l-0.099,-0.053l-0.099,-0.055l-0.098,-0.056l-0.097,-0.057l-0.096,-0.059l-0.096,-0.06l-0.095,-0.061l-0.094,-0.063l-0.093,-0.064l-0.092,-0.066l-0.092,-0.066l-0.09,-0.068l-0.09,-0.07l-0.088,-0.071l-0.088,-0.072l-0.087,-0.073l-0.085,-0.075l-0.085,-0.076l-0.084,-0.077l-0.083,-0.079l-0.082,-0.079l-0.08,-0.081l-0.08,-0.083l-0.078,-0.083l-0.078,-0.085l-0.076,-0.086l-0.075,-0.087l-0.074,-0.088l-0.073,-0.09l-0.067,-0.085l-3.31,-4.256l-0.067,-0.086l-0.069,-0.092l-0.067,-0.092l-0.067,-0.093l-0.066,-0.093l-0.065,-0.094l-0.064,-0.095l-0.063,-0.095l-0.061,-0.096l-0.061,-0.096l-0.06,-0.097l-0.058,-0.097l-0.058,-0.098l-0.057,-0.099l-0.055,-0.099l-0.055,-0.1l-0.053,-0.1l-0.052,-0.1l-0.052,-0.101l-0.05,-0.102l-0.049,-0.102l-0.048,-0.103l-0.047,-0.103l-0.046,-0.103l-0.045,-0.104l-0.044,-0.104l-0.042,-0.105l-0.042,-0.105l-0.041,-0.106l-0.039,-0.106l-0.038,-0.106l-0.038,-0.107l-0.036,-0.107l-0.035,-0.108l-0.034,-0.108l-0.033,-0.108l-0.031,-0.108l-0.031,-0.11l-0.029,-0.109l-0.029,-0.109l-0.027,-0.11l-0.026,-0.11l-0.025,-0.111l-0.024,-0.111l-0.023,-0.111l-0.021,-0.111l-0.021,-0.111l-0.019,-0.112l-0.018,-0.112l-0.017,-0.113l-0.016,-0.112l-0.015,-0.113l-0.013,-0.113l-0.013,-0.113l-0.011,-0.113l-0.01,-0.114l-0.009,-0.113l-0.008,-0.114l-0.006,-0.114l-0.006,-0.114l-0.004,-0.114l-0.003,-0.115l-0.001,-0.114l-0.001,-0.11l0,-0.923l0.001,-0.136l0.003,-0.141l0.004,-0.141l0.006,-0.14l0.008,-0.14l0.01,-0.14l0.011,-0.14l0.014,-0.138l0.015,-0.139l0.016,-0.138l0.019,-0.137l0.02,-0.137l0.021,-0.136l0.024,-0.136l0.025,-0.135l0.026,-0.135l0.029,-0.134l0.03,-0.133l0.031,-0.133l0.033,-0.133l0.035,-0.131l0.036,-0.131l0.038,-0.131l0.04,-0.129l0.041,-0.129l0.042,-0.129l0.044,-0.127l0.046,-0.127l0.047,-0.126l0.049,-0.126l0.05,-0.124l0.051,-0.124l0.053,-0.124l0.055,-0.122l0.055,-0.121l0.058,-0.121l0.058,-0.12l0.06,-0.119l0.062,-0.118l0.063,-0.118l0.064,-0.116l0.066,-0.116l0.066,-0.115l0.069,-0.113l0.069,-0.113l0.071,-0.112l0.072,-0.111l0.074,-0.111l0.074,-0.109l0.077,-0.108l0.077,-0.107l0.078,-0.107l0.08,-0.105l0.081,-0.104l0.082,-0.104l0.084,-0.102l0.084,-0.101l0.086,-0.1l0.087,-0.099l0.088,-0.099l0.089,-0.097l0.091,-0.096l0.091,-0.094l0.093,-0.094l0.093,-0.093l0.095,-0.091l0.096,-0.091l0.097,-0.089l0.098,-0.088l0.1,-0.087l0.1,-0.086l0.101,-0.084l0.102,-0.084l0.104,-0.082l0.104,-0.081l0.105,-0.08l0.107,-0.078l0.107,-0.077l0.108,-0.076l0.109,-0.075l0.111,-0.074l0.111,-0.072l0.112,-0.071l0.113,-0.069l0.113,-0.069l0.115,-0.066l0.116,-0.066l0.116,-0.064l0.118,-0.063l0.118,-0.061l0.119,-0.061l0.12,-0.058l0.121,-0.058l0.121,-0.055l0.122,-0.055l0.124,-0.053l0.124,-0.051l0.124,-0.05l0.126,-0.049l0.126,-0.047l0.127,-0.046l0.127,-0.044l0.129,-0.042l0.129,-0.041l0.129,-0.04l0.131,-0.038l0.131,-0.036l0.131,-0.035l0.133,-0.033l0.133,-0.031l0.133,-0.03l0.134,-0.029l0.135,-0.026l0.135,-0.025l0.136,-0.024l0.136,-0.021l0.137,-0.02l0.138,-0.019l0.137,-0.016l0.139,-0.015l0.138,-0.014l0.14,-0.011l0.139,-0.01l0.141,-0.008l0.14,-0.006l0.141,-0.004l0.141,-0.003l0.136,-0.001l4.012,0l0.136,0.001Zm-4.136,3.999l-0.097,0.001l-0.091,0.001l-0.09,0.003l-0.09,0.004l-0.09,0.005l-0.089,0.007l-0.089,0.007l-0.088,0.008l-0.088,0.01l-0.088,0.01l-0.087,0.012l-0.088,0.013l-0.086,0.014l-0.086,0.014l-0.086,0.016l-0.086,0.017l-0.085,0.018l-0.085,0.019l-0.084,0.02l-0.084,0.021l-0.083,0.022l-0.083,0.023l-0.083,0.024l-0.082,0.025l-0.082,0.026l-0.082,0.027l-0.08,0.028l-0.081,0.029l-0.08,0.03l-0.079,0.031l-0.079,0.032l-0.079,0.032l-0.078,0.034l-0.078,0.034l-0.077,0.036l-0.077,0.036l-0.076,0.038l-0.075,0.038l-0.076,0.039l-0.074,0.04l-0.074,0.041l-0.074,0.041l-0.073,0.043l-0.072,0.043l-0.072,0.045l-0.071,0.045l-0.071,0.046l-0.07,0.046l-0.07,0.048l-0.069,0.048l-0.068,0.05l-0.068,0.05l-0.067,0.05l-0.067,0.052l-0.066,0.053l-0.065,0.053l-0.064,0.054l-0.064,0.054l-0.064,0.056l-0.062,0.056l-0.062,0.057l-0.061,0.058l-0.061,0.058l-0.06,0.059l-0.059,0.06l-0.058,0.061l-0.058,0.061l-0.057,0.062l-0.056,0.062l-0.056,0.064l-0.054,0.064l-0.054,0.064l-0.053,0.065l-0.053,0.066l-0.052,0.067l-0.05,0.067l-0.05,0.068l-0.05,0.068l-0.048,0.069l-0.048,0.07l-0.046,0.07l-0.046,0.071l-0.046,0.071l-0.044,0.072l-0.043,0.072l-0.043,0.073l-0.041,0.074l-0.041,0.074l-0.04,0.074l-0.039,0.075l-0.038,0.076l-0.038,0.076l-0.036,0.077l-0.036,0.077l-0.034,0.078l-0.034,0.078l-0.032,0.078l-0.032,0.08l-0.031,0.079l-0.03,0.08l-0.029,0.081l-0.028,0.081l-0.027,0.081l-0.026,0.082l-0.025,0.082l-0.024,0.082l-0.023,0.084l-0.022,0.083l-0.021,0.084l-0.02,0.084l-0.019,0.085l-0.018,0.085l-0.017,0.086l-0.016,0.086l-0.014,0.086l-0.014,0.086l-0.013,0.088l-0.012,0.087l-0.01,0.088l-0.01,0.088l-0.008,0.088l-0.007,0.089l-0.007,0.089l-0.005,0.09l-0.004,0.09l-0.003,0.09l-0.001,0.091l-0.001,0.097l0,0.901l0,0.078l0.002,0.073l0.001,0.073l0.003,0.072l0.003,0.073l0.005,0.073l0.005,0.072l0.005,0.072l0.007,0.072l0.007,0.073l0.008,0.071l0.008,0.072l0.01,0.072l0.01,0.072l0.01,0.071l0.012,0.072l0.012,0.07l0.013,0.072l0.014,0.071l0.015,0.07l0.015,0.071l0.016,0.07l0.016,0.07l0.018,0.07l0.018,0.07l0.018,0.069l0.02,0.069l0.02,0.07l0.021,0.069l0.022,0.068l0.022,0.069l0.023,0.068l0.024,0.068l0.024,0.067l0.025,0.068l0.026,0.067l0.026,0.067l0.028,0.067l0.027,0.066l0.029,0.066l0.029,0.066l0.03,0.066l0.031,0.065l0.031,0.065l0.032,0.065l0.033,0.064l0.033,0.064l0.034,0.064l0.035,0.063l0.035,0.063l0.036,0.063l0.037,0.062l0.037,0.062l0.038,0.062l0.039,0.061l0.039,0.061l0.04,0.061l0.04,0.06l0.042,0.06l0.041,0.059l0.043,0.059l0.043,0.059l0.044,0.058l0.048,0.062l3.295,4.236l0.04,0.051l0.036,0.045l0.037,0.044l0.038,0.044l0.038,0.043l0.039,0.042l0.039,0.042l0.04,0.041l0.04,0.04l0.041,0.04l0.041,0.04l0.042,0.038l0.042,0.038l0.043,0.037l0.044,0.037l0.044,0.036l0.044,0.035l0.045,0.035l0.045,0.034l0.046,0.034l0.046,0.032l0.046,0.032l0.047,0.032l0.048,0.03l0.047,0.03l0.049,0.03l0.048,0.028l0.049,0.028l0.05,0.028l0.049,0.026l0.051,0.026l0.05,0.025l0.051,0.025l0.051,0.023l0.052,0.023l0.052,0.023l0.052,0.021l0.052,0.021l0.053,0.02l0.053,0.019l0.053,0.019l0.054,0.018l0.054,0.017l0.054,0.016l0.054,0.016l0.055,0.014l0.055,0.014l0.055,0.014l0.055,0.012l0.056,0.012l0.056,0.011l0.056,0.01l0.056,0.009l0.056,0.009l0.057,0.008l0.056,0.007l0.057,0.006l0.057,0.005l0.058,0.005l0.057,0.003l0.057,0.003l0.058,0.002l0.058,0.002l0.065,0l2.116,0l0.065,0l0.058,-0.002l0.058,-0.002l0.057,-0.003l0.057,-0.003l0.058,-0.005l0.057,-0.005l0.057,-0.006l0.056,-0.007l0.057,-0.008l0.056,-0.009l0.056,-0.009l0.056,-0.01l0.056,-0.011l0.056,-0.012l0.055,-0.012l0.055,-0.014l0.055,-0.014l0.055,-0.014l0.054,-0.016l0.054,-0.016l0.054,-0.017l0.054,-0.018l0.053,-0.019l0.053,-0.019l0.053,-0.02l0.052,-0.021l0.052,-0.021l0.052,-0.023l0.052,-0.023l0.051,-0.023l0.051,-0.025l0.05,-0.025l0.051,-0.026l0.049,-0.026l0.05,-0.028l0.049,-0.028l0.048,-0.028l0.049,-0.03l0.047,-0.03l0.048,-0.03l0.047,-0.032l0.046,-0.032l0.046,-0.032l0.046,-0.034l0.045,-0.034l0.045,-0.035l0.044,-0.035l0.044,-0.036l0.044,-0.037l0.043,-0.037l0.042,-0.038l0.042,-0.038l0.041,-0.04l0.041,-0.04l0.04,-0.04l0.04,-0.041l0.039,-0.042l0.039,-0.042l0.038,-0.043l0.038,-0.044l0.037,-0.044l0.036,-0.045l0.04,-0.051l3.295,-4.236l0.048,-0.062l0.044,-0.058l0.043,-0.059l0.043,-0.059l0.041,-0.059l0.042,-0.06l0.04,-0.061l0.04,-0.06l0.039,-0.061l0.039,-0.061l0.038,-0.062l0.037,-0.062l0.037,-0.062l0.036,-0.063l0.035,-0.063l0.035,-0.063l0.034,-0.064l0.033,-0.064l0.033,-0.064l0.032,-0.065l0.031,-0.065l0.031,-0.065l0.03,-0.066l0.029,-0.066l0.029,-0.066l0.027,-0.066l0.028,-0.067l0.026,-0.067l0.026,-0.067l0.025,-0.068l0.024,-0.067l0.024,-0.068l0.023,-0.068l0.022,-0.069l0.022,-0.068l0.021,-0.069l0.02,-0.07l0.02,-0.069l0.018,-0.069l0.018,-0.07l0.018,-0.07l0.016,-0.07l0.016,-0.07l0.015,-0.071l0.015,-0.07l0.014,-0.071l0.013,-0.072l0.012,-0.07l0.012,-0.072l0.01,-0.071l0.01,-0.072l0.01,-0.072l0.008,-0.072l0.008,-0.071l0.007,-0.073l0.007,-0.072l0.005,-0.072l0.005,-0.073l0.005,-0.072l0.003,-0.073l0.003,-0.072l0.001,-0.073l0.002,-0.073l0,-0.078l0,-0.901l-0.001,-0.097l-0.001,-0.091l-0.003,-0.09l-0.004,-0.09l-0.005,-0.09l-0.007,-0.089l-0.007,-0.089l-0.008,-0.088l-0.01,-0.088l-0.01,-0.088l-0.012,-0.088l-0.013,-0.087l-0.014,-0.086l-0.014,-0.086l-0.016,-0.086l-0.017,-0.086l-0.018,-0.085l-0.019,-0.085l-0.02,-0.084l-0.021,-0.084l-0.022,-0.083l-0.023,-0.083l-0.024,-0.083l-0.025,-0.082l-0.026,-0.082l-0.027,-0.081l-0.028,-0.081l-0.029,-0.081l-0.03,-0.08l-0.031,-0.079l-0.032,-0.08l-0.032,-0.078l-0.034,-0.078l-0.034,-0.078l-0.036,-0.077l-0.036,-0.077l-0.038,-0.076l-0.038,-0.076l-0.039,-0.075l-0.04,-0.074l-0.041,-0.074l-0.041,-0.074l-0.043,-0.073l-0.043,-0.072l-0.044,-0.072l-0.046,-0.071l-0.046,-0.071l-0.046,-0.07l-0.048,-0.07l-0.048,-0.069l-0.05,-0.068l-0.05,-0.068l-0.05,-0.067l-0.052,-0.067l-0.053,-0.066l-0.053,-0.065l-0.054,-0.064l-0.054,-0.064l-0.056,-0.064l-0.056,-0.062l-0.057,-0.062l-0.058,-0.061l-0.058,-0.061l-0.059,-0.06l-0.06,-0.059l-0.061,-0.058l-0.061,-0.058l-0.062,-0.057l-0.062,-0.056l-0.064,-0.056l-0.064,-0.054l-0.064,-0.054l-0.065,-0.053l-0.066,-0.053l-0.067,-0.052l-0.067,-0.05l-0.068,-0.05l-0.068,-0.05l-0.069,-0.048l-0.07,-0.048l-0.07,-0.046l-0.071,-0.046l-0.071,-0.046l-0.072,-0.044l-0.072,-0.043l-0.073,-0.043l-0.074,-0.041l-0.074,-0.041l-0.074,-0.04l-0.076,-0.039l-0.075,-0.038l-0.076,-0.038l-0.077,-0.036l-0.077,-0.036l-0.078,-0.034l-0.078,-0.034l-0.079,-0.032l-0.079,-0.032l-0.079,-0.031l-0.08,-0.03l-0.081,-0.029l-0.08,-0.028l-0.082,-0.027l-0.082,-0.026l-0.082,-0.025l-0.083,-0.024l-0.083,-0.023l-0.083,-0.022l-0.084,-0.021l-0.084,-0.02l-0.085,-0.019l-0.085,-0.018l-0.086,-0.017l-0.086,-0.016l-0.086,-0.014l-0.086,-0.014l-0.088,-0.013l-0.087,-0.012l-0.088,-0.01l-0.088,-0.01l-0.088,-0.008l-0.089,-0.007l-0.089,-0.007l-0.09,-0.005l-0.09,-0.004l-0.09,-0.003l-0.091,-0.001l-0.097,-0.001l-3.988,0Z"/><path d="M20,21.667l8,-2.667" style="fill:none;stroke:#000;stroke-width:5px;stroke-linejoin:round;"/><path d="M12,21.667l-8,-2.667" style="fill:none;stroke:#000;stroke-width:5px;stroke-linejoin:round;"/><path d="M12,23.833l-5,1.667" style="fill:none;stroke:#000;stroke-width:5px;stroke-linejoin:round;"/><path d="M20,23.833l5,1.667" style="fill:none;stroke:#000;stroke-width:5px;stroke-linejoin:round;"/></g><g id="emoji"><path d="M14,6c-4.971,0 -9,4.029 -9,9c0,0.314 0,0.62 0,0.912c0,2.001 0.667,3.946 1.896,5.525c1.027,1.321 2.29,2.945 3.302,4.247c1.137,1.461 2.885,2.316 4.737,2.316c0.694,0 1.436,0 2.13,0c1.852,0 3.6,-0.855 4.737,-2.316c1.012,-1.302 2.275,-2.926 3.302,-4.247c1.229,-1.579 1.896,-3.524 1.896,-5.525c0,-0.292 0,-0.598 0,-0.912c0,-4.971 -4.029,-9 -9,-9c-1.32,0 -2.68,0 -4,0Z" style="fill:#dadada;"/><clipPath id="_clip2"><path d="M14,6c-4.971,0 -9,4.029 -9,9c0,0.314 0,0.62 0,0.912c0,2.001 0.667,3.946 1.896,5.525c1.027,1.321 2.29,2.945 3.302,4.247c1.137,1.461 2.885,2.316 4.737,2.316c0.694,0 1.436,0 2.13,0c1.852,0 3.6,-0.855 4.737,-2.316c1.012,-1.302 2.275,-2.926 3.302,-4.247c1.229,-1.579 1.896,-3.524 1.896,-5.525c0,-0.292 0,-0.598 0,-0.912c0,-4.971 -4.029,-9 -9,-9c-1.32,0 -2.68,0 -4,0Z"/></clipPath><g clip-path="url(#_clip2)"><path d="M14.859,16.011c0.081,0.567 0.567,0.989 1.14,0.989c0.001,0 0.001,0 0.002,0c0.573,0 1.059,-0.422 1.14,-0.989c0.211,-1.475 0.601,-4.205 0.773,-5.411c0.057,-0.396 0.192,-0.777 0.398,-1.119c0.767,-1.28 2.688,-4.481 2.688,-4.481l-10,0c0,0 1.921,3.201 2.688,4.481c0.206,0.342 0.341,0.723 0.398,1.119c0.172,1.206 0.562,3.936 0.773,5.411Z" style="fill:#bdbdbd;"/></g><path d="M20.02,24l0.039,0.004l0.039,0.006l0.038,0.009l0.038,0.012l0.036,0.015l0.035,0.018l0.033,0.021l0.032,0.023l0.03,0.025l0.028,0.028l0.025,0.03l0.023,0.032l0.021,0.033l0.017,0.035l0.015,0.036l0.012,0.038l0.009,0.038l0.007,0.039l0.003,0.039l0,0.039l-0.004,0.039l-0.006,0.039l-0.009,0.038l-0.012,0.038l-0.015,0.036l-0.018,0.035l-0.021,0.033l-0.023,0.032l-0.025,0.03l-0.028,0.028l-0.03,0.025l-0.032,0.023l-2.5,1.667l-0.074,0.047l-0.079,0.047l-0.081,0.044l-0.082,0.04l-0.084,0.038l-0.085,0.034l-0.086,0.032l-0.087,0.028l-0.088,0.025l-0.089,0.021l-0.09,0.019l-0.09,0.015l-0.092,0.012l-0.091,0.008l-0.092,0.005l-0.088,0.002l-0.798,0l-0.088,-0.002l-0.092,-0.005l-0.091,-0.008l-0.092,-0.012l-0.09,-0.015l-0.09,-0.019l-0.089,-0.021l-0.088,-0.025l-0.087,-0.028l-0.086,-0.032l-0.085,-0.034l-0.084,-0.038l-0.082,-0.04l-0.081,-0.044l-0.079,-0.047l-0.074,-0.047l-2.5,-1.667l-0.032,-0.023l-0.03,-0.025l-0.028,-0.028l-0.025,-0.03l-0.023,-0.032l-0.021,-0.033l-0.018,-0.035l-0.015,-0.036l-0.012,-0.038l-0.009,-0.038l-0.006,-0.039l-0.004,-0.039l0,-0.039l0.003,-0.039l0.007,-0.039l0.009,-0.038l0.012,-0.038l0.015,-0.036l0.017,-0.035l0.021,-0.033l0.023,-0.032l0.025,-0.03l0.028,-0.028l0.03,-0.025l0.032,-0.023l0.033,-0.021l0.035,-0.018l0.036,-0.015l0.038,-0.012l0.038,-0.009l0.039,-0.006l0.039,-0.004l0.039,0l0.039,0.003l0.039,0.007l0.038,0.009l0.038,0.012l0.036,0.015l0.035,0.017l0.033,0.021l2.493,1.661l0.05,0.033l0.048,0.028l0.048,0.026l0.05,0.025l0.05,0.022l0.051,0.021l0.052,0.019l0.052,0.017l0.053,0.015l0.053,0.013l0.054,0.011l0.054,0.009l0.055,0.007l0.055,0.005l0.055,0.003l0.06,0.001l0.78,0l0.06,-0.001l0.055,-0.003l0.055,-0.005l0.055,-0.007l0.054,-0.009l0.054,-0.011l0.053,-0.013l0.053,-0.015l0.052,-0.017l0.052,-0.019l0.051,-0.021l0.05,-0.022l0.05,-0.025l0.048,-0.026l0.048,-0.028l0.05,-0.033l2.493,-1.661l0.033,-0.021l0.035,-0.017l0.036,-0.015l0.038,-0.012l0.038,-0.009l0.039,-0.007l0.039,-0.003l0.039,0Z" style="fill:#cc8484;"/><path d="M9,15.484c0,-0.394 0.156,-0.771 0.435,-1.049c0.278,-0.279 0.655,-0.435 1.049,-0.435c0.001,0 0.001,0 0.002,0c1.388,0 2.514,1.126 2.514,2.514c0,0.001 0,0.001 0,0.002c0,0.394 -0.156,0.771 -0.435,1.049c-0.278,0.279 -0.655,0.435 -1.049,0.435c-0.169,0 -0.342,0 -0.516,0c-1.105,0 -2,-0.895 -2,-2c0,-0.174 0,-0.347 0,-0.516Z"/><path d="M23,15.484c0,-0.394 -0.156,-0.771 -0.435,-1.049c-0.278,-0.279 -0.655,-0.435 -1.049,-0.435c-0.001,0 -0.001,0 -0.002,0c-1.388,0 -2.514,1.126 -2.514,2.514c0,0.001 0,0.001 0,0.002c0,0.394 0.156,0.771 0.435,1.049c0.278,0.279 0.655,0.435 1.049,0.435c0.169,0 0.342,0 0.516,0c1.105,0 2,-0.895 2,-2c0,-0.174 0,-0.347 0,-0.516Z"/><path d="M23,11.141c0,-1.338 0.668,-2.587 1.781,-3.328c0.162,-0.108 0.319,-0.213 0.463,-0.309c0.493,-0.329 1.072,-0.504 1.664,-0.504c0.03,0 0.061,0 0.092,0c0.796,0 1.559,0.316 2.121,0.879c0.563,0.562 0.879,1.325 0.879,2.121c0,0.391 0,0.782 0,1.146c0,1.136 -0.642,2.175 -1.658,2.683c-0.135,0.067 -0.272,0.136 -0.408,0.204c-1.155,0.577 -2.55,0.351 -3.463,-0.562c-0.74,-0.74 -1.471,-1.471 -1.471,-1.471c0,0 0,-0.375 0,-0.859Z" style="fill:#3e3e3e;"/><path d="M9,11.141c0,-1.338 -0.668,-2.587 -1.781,-3.328c-0.162,-0.108 -0.319,-0.213 -0.463,-0.309c-0.493,-0.329 -1.072,-0.504 -1.664,-0.504c-0.03,0 -0.061,0 -0.092,0c-0.796,0 -1.559,0.316 -2.121,0.879c-0.563,0.562 -0.879,1.325 -0.879,2.121c0,0.391 0,0.782 0,1.146c0,1.136 0.642,2.175 1.658,2.683c0.135,0.067 0.272,0.136 0.408,0.204c1.155,0.577 2.55,0.351 3.463,-0.562c0.74,-0.74 1.471,-1.471 1.471,-1.471c0,0 0,-0.375 0,-0.859Z" style="fill:#3e3e3e;"/><path d="M20,21.667l8,-2.667" style="fill:none;stroke:#828282;stroke-width:1px;stroke-linejoin:round;"/><path d="M12,21.667l-8,-2.667" style="fill:none;stroke:#828282;stroke-width:1px;stroke-linejoin:round;"/><path d="M12,23.833l-5,1.667" style="fill:none;stroke:#828282;stroke-width:1px;stroke-linejoin:round;"/><path d="M20,23.833l5,1.667" style="fill:none;stroke:#828282;stroke-width:1px;stroke-linejoin:round;"/><path d="M14.51,22.49c-0.305,0.305 -0.38,0.77 -0.188,1.155c0.13,0.258 0.277,0.554 0.402,0.802c0.169,0.339 0.515,0.553 0.894,0.553c0.243,0 0.521,0 0.764,0c0.379,0 0.725,-0.214 0.894,-0.553c0.125,-0.248 0.272,-0.544 0.402,-0.802c0.192,-0.385 0.117,-0.85 -0.188,-1.155c-0.025,-0.025 -0.05,-0.05 -0.076,-0.076c-0.375,-0.375 -0.884,-0.586 -1.414,-0.586c-0.53,0 -1.039,0.211 -1.414,0.586c-0.026,0.026 -0.051,0.051 -0.076,0.076Z" style="fill:#f69191;"/></g></g></svg>