<?xml version="1.0" encoding="UTF-8" standalone="no"?><!DOCTYPE svg PUBLIC "-//W3C//DTD SVG 1.1//EN" "http://www.w3.org/Graphics/SVG/1.1/DTD/svg11.dtd"><svg width="100%" height="100%" viewBox="0 0 32 32" version="1.1" xmlns="http://www.w3.org/2000/svg" xmlns:xlink="http://www.w3.org/1999/xlink" xml:space="preserve" xmlns:serif="http://www.serif.com/" style="fill-rule:evenodd;clip-rule:evenodd;stroke-linecap:round;"><rect id="otter" x="0" y="0" width="32" height="32" style="fill:none;"/><clipPath id="_clip1"><rect x="0" y="0" width="32" height="32"/></clipPath><g clip-path="url(#_clip1)"><g id="outline"><path d="M7,9c0,0 -0.824,-0.824 -1.414,-1.414c-0.375,-0.375 -0.884,-0.586 -1.414,-0.586c-0.056,0 -0.114,0 -0.172,0c-0.53,0 -1.039,0.211 -1.414,0.586c-0.375,0.375 -0.586,0.884 -0.586,1.414c0,0.758 0,1.58 0,2.172c0,0.53 0.211,1.039 0.586,1.414c0.873,0.873 2.414,2.414 2.414,2.414l2,-6Z" style="fill:none;stroke:#000;stroke-width:4px;"/><path d="M25,9c0,0 0.824,-0.824 1.414,-1.414c0.375,-0.375 0.884,-0.586 1.414,-0.586c0.056,0 0.114,0 0.172,0c0.53,0 1.039,0.211 1.414,0.586c0.375,0.375 0.586,0.884 0.586,1.414c0,0.758 0,1.58 0,2.172c0,0.53 -0.211,1.039 -0.586,1.414c-0.873,0.873 -2.414,2.414 -2.414,2.414l-2,-6Z" style="fill:none;stroke:#000;stroke-width:4px;"/><path d="M22,19c0,0 1.975,1.975 2.72,2.72c0.186,0.186 0.354,0.39 0.5,0.61c0.519,0.779 1.78,2.67 1.78,2.67" style="fill:none;stroke:#000;stroke-width:4px;"/><path d="M10,19c0,0 -1.975,1.975 -2.72,2.72c-0.186,0.186 -0.354,0.39 -0.5,0.61c-0.519,0.779 -1.78,2.67 -1.78,2.67" style="fill:none;stroke:#000;stroke-width:4px;"/><path d="M24,18c0,0 1.891,1.261 2.67,1.78c0.22,0.146 0.424,0.314 0.61,0.5c0.745,0.745 2.72,2.72 2.72,2.72" style="fill:none;stroke:#000;stroke-width:4px;"/><path d="M8,18c0,0 -1.891,1.261 -2.67,1.78c-0.22,0.146 -0.424,0.314 -0.61,0.5c-0.745,0.745 -2.72,2.72 -2.72,2.72" style="fill:none;stroke:#000;stroke-width:4px;"/><path d="M13.311,6c-5.246,0 -9.601,4.054 -9.974,9.288c-0.03,0.412 -0.058,0.812 -0.086,1.194c-0.158,2.213 0.743,4.37 2.427,5.813c0.886,0.76 1.847,1.583 2.637,2.261c1.087,0.932 2.472,1.444 3.905,1.444c2.229,0 5.632,0 7.78,0c1.298,0 2.561,-0.421 3.6,-1.2c0.885,-0.664 2.018,-1.513 3.084,-2.313c2.045,-1.534 3.091,-4.06 2.73,-6.59c-0.061,-0.423 -0.123,-0.862 -0.187,-1.311c-0.704,-4.927 -4.923,-8.586 -9.9,-8.586c-1.954,0 -4.036,0 -6.016,0Z"/><path d="M19.467,4.001l0.139,0.002l0.139,0.004l0.138,0.006l0.138,0.007l0.138,0.009l0.138,0.01l0.137,0.012l0.137,0.013l0.136,0.015l0.136,0.016l0.135,0.018l0.135,0.02l0.135,0.021l0.134,0.022l0.134,0.024l0.133,0.026l0.133,0.027l0.132,0.028l0.132,0.03l0.131,0.031l0.131,0.033l0.13,0.034l0.13,0.035l0.129,0.037l0.129,0.039l0.128,0.039l0.127,0.042l0.127,0.042l0.126,0.044l0.125,0.045l0.125,0.047l0.124,0.048l0.124,0.049l0.123,0.051l0.122,0.052l0.122,0.053l0.121,0.055l0.12,0.055l0.119,0.058l0.119,0.058l0.118,0.06l0.117,0.061l0.117,0.062l0.116,0.063l0.115,0.065l0.114,0.066l0.113,0.067l0.113,0.068l0.112,0.07l0.111,0.07l0.11,0.072l0.11,0.073l0.108,0.075l0.108,0.075l0.107,0.077l0.106,0.077l0.105,0.079l0.104,0.08l0.103,0.081l0.103,0.082l0.101,0.084l0.101,0.084l0.1,0.086l0.098,0.086l0.098,0.088l0.097,0.088l0.096,0.09l0.095,0.091l0.093,0.092l0.093,0.093l0.092,0.094l0.091,0.095l0.09,0.096l0.089,0.097l0.088,0.098l0.087,0.099l0.085,0.1l0.085,0.1l0.083,0.102l0.083,0.103l0.081,0.104l0.081,0.105l0.079,0.105l0.078,0.107l0.077,0.107l0.075,0.109l0.075,0.109l0.073,0.11l0.073,0.111l0.071,0.112l0.07,0.113l0.068,0.114l0.068,0.114l0.066,0.115l0.065,0.117l0.064,0.117l0.063,0.118l0.061,0.118l0.06,0.12l0.059,0.12l0.057,0.121l0.056,0.122l0.055,0.122l0.054,0.124l0.052,0.124l0.051,0.125l0.049,0.125l0.048,0.126l0.047,0.127l0.046,0.128l0.044,0.128l0.042,0.129l0.042,0.13l0.039,0.13l0.039,0.131l0.037,0.132l0.035,0.132l0.034,0.133l0.033,0.134l0.031,0.134l0.029,0.134l0.029,0.135l0.026,0.136l0.025,0.137l0.024,0.137l0.022,0.137l0.02,0.132l0.189,1.325l0.019,0.144l0.018,0.153l0.015,0.152l0.013,0.152l0.01,0.153l0.007,0.151l0.005,0.152l0.002,0.152l0,0.151l-0.003,0.152l-0.005,0.15l-0.008,0.151l-0.011,0.15l-0.013,0.15l-0.015,0.149l-0.018,0.149l-0.02,0.149l-0.023,0.148l-0.025,0.147l-0.028,0.147l-0.03,0.146l-0.032,0.146l-0.035,0.145l-0.037,0.144l-0.04,0.144l-0.042,0.142l-0.044,0.142l-0.047,0.142l-0.048,0.14l-0.052,0.14l-0.053,0.138l-0.056,0.138l-0.058,0.137l-0.06,0.136l-0.063,0.135l-0.064,0.133l-0.067,0.133l-0.069,0.132l-0.072,0.131l-0.073,0.129l-0.076,0.128l-0.078,0.128l-0.08,0.125l-0.082,0.125l-0.084,0.123l-0.087,0.122l-0.088,0.121l-0.091,0.12l-0.093,0.117l-0.094,0.117l-0.097,0.115l-0.099,0.114l-0.101,0.112l-0.103,0.11l-0.105,0.109l-0.106,0.107l-0.109,0.106l-0.111,0.104l-0.113,0.102l-0.114,0.101l-0.117,0.099l-0.118,0.097l-0.121,0.095l-0.115,0.088l-3.099,2.324l-0.123,0.09l-0.132,0.093l-0.134,0.091l-0.136,0.087l-0.137,0.085l-0.139,0.081l-0.14,0.079l-0.142,0.076l-0.143,0.073l-0.144,0.07l-0.146,0.068l-0.147,0.064l-0.148,0.061l-0.149,0.058l-0.151,0.055l-0.151,0.053l-0.153,0.049l-0.153,0.046l-0.154,0.043l-0.156,0.04l-0.156,0.037l-0.157,0.033l-0.157,0.031l-0.158,0.027l-0.159,0.024l-0.16,0.021l-0.16,0.018l-0.161,0.015l-0.161,0.011l-0.161,0.009l-0.162,0.004l-0.152,0.002l-7.802,0l-0.167,-0.002l-0.179,-0.006l-0.178,-0.01l-0.177,-0.014l-0.177,-0.017l-0.176,-0.022l-0.175,-0.026l-0.175,-0.029l-0.173,-0.033l-0.173,-0.037l-0.172,-0.041l-0.171,-0.045l-0.169,-0.048l-0.169,-0.052l-0.167,-0.055l-0.166,-0.06l-0.165,-0.063l-0.163,-0.066l-0.162,-0.071l-0.16,-0.073l-0.158,-0.078l-0.157,-0.08l-0.156,-0.085l-0.153,-0.088l-0.152,-0.091l-0.15,-0.095l-0.147,-0.098l-0.146,-0.101l-0.144,-0.105l-0.141,-0.108l-0.14,-0.112l-0.128,-0.108l-2.651,-2.272l-0.095,-0.083l-0.1,-0.089l-0.097,-0.09l-0.097,-0.092l-0.094,-0.092l-0.094,-0.094l-0.092,-0.096l-0.09,-0.096l-0.088,-0.098l-0.088,-0.099l-0.085,-0.1l-0.084,-0.101l-0.083,-0.103l-0.081,-0.103l-0.079,-0.104l-0.077,-0.106l-0.076,-0.107l-0.075,-0.107l-0.073,-0.109l-0.071,-0.109l-0.069,-0.111l-0.068,-0.111l-0.067,-0.113l-0.064,-0.113l-0.063,-0.114l-0.061,-0.115l-0.06,-0.116l-0.058,-0.116l-0.056,-0.118l-0.054,-0.118l-0.053,-0.119l-0.051,-0.12l-0.049,-0.12l-0.048,-0.121l-0.046,-0.122l-0.044,-0.122l-0.042,-0.124l-0.04,-0.123l-0.039,-0.125l-0.037,-0.125l-0.035,-0.125l-0.033,-0.126l-0.032,-0.127l-0.029,-0.127l-0.028,-0.128l-0.026,-0.128l-0.024,-0.128l-0.022,-0.129l-0.021,-0.13l-0.018,-0.13l-0.017,-0.13l-0.015,-0.13l-0.013,-0.131l-0.011,-0.132l-0.009,-0.131l-0.007,-0.132l-0.005,-0.132l-0.003,-0.132l-0.002,-0.133l0.001,-0.132l0.003,-0.133l0.004,-0.133l0.007,-0.133l0.008,-0.126l0.086,-1.208l0.011,-0.14l0.013,-0.147l0.015,-0.145l0.016,-0.145l0.019,-0.145l0.02,-0.144l0.021,-0.143l0.024,-0.143l0.025,-0.142l0.026,-0.142l0.029,-0.141l0.03,-0.141l0.031,-0.14l0.033,-0.139l0.035,-0.139l0.036,-0.138l0.038,-0.138l0.04,-0.136l0.041,-0.136l0.043,-0.136l0.044,-0.134l0.046,-0.134l0.047,-0.133l0.049,-0.133l0.05,-0.131l0.052,-0.131l0.053,-0.13l0.054,-0.13l0.057,-0.128l0.057,-0.128l0.059,-0.127l0.06,-0.126l0.062,-0.125l0.063,-0.125l0.065,-0.123l0.066,-0.123l0.067,-0.122l0.069,-0.121l0.07,-0.119l0.071,-0.12l0.073,-0.118l0.074,-0.117l0.075,-0.116l0.077,-0.115l0.078,-0.115l0.079,-0.113l0.08,-0.113l0.082,-0.111l0.083,-0.11l0.084,-0.11l0.085,-0.108l0.087,-0.108l0.087,-0.106l0.089,-0.105l0.09,-0.104l0.092,-0.104l0.092,-0.102l0.093,-0.101l0.095,-0.1l0.096,-0.098l0.097,-0.098l0.098,-0.097l0.099,-0.095l0.1,-0.094l0.101,-0.094l0.102,-0.092l0.103,-0.09l0.105,-0.09l0.105,-0.089l0.107,-0.087l0.107,-0.086l0.108,-0.085l0.11,-0.083l0.11,-0.083l0.112,-0.081l0.112,-0.08l0.113,-0.078l0.114,-0.078l0.115,-0.076l0.116,-0.075l0.117,-0.073l0.118,-0.072l0.119,-0.071l0.12,-0.07l0.12,-0.068l0.121,-0.067l0.123,-0.065l0.123,-0.064l0.123,-0.063l0.125,-0.061l0.126,-0.06l0.126,-0.058l0.127,-0.058l0.128,-0.055l0.128,-0.054l0.13,-0.053l0.13,-0.051l0.13,-0.05l0.132,-0.048l0.132,-0.047l0.133,-0.046l0.134,-0.043l0.134,-0.043l0.135,-0.04l0.135,-0.04l0.137,-0.037l0.136,-0.036l0.138,-0.035l0.138,-0.033l0.138,-0.031l0.14,-0.03l0.139,-0.028l0.141,-0.026l0.141,-0.025l0.141,-0.023l0.142,-0.022l0.142,-0.02l0.143,-0.018l0.143,-0.016l0.144,-0.015l0.144,-0.013l0.145,-0.011l0.145,-0.01l0.146,-0.008l0.145,-0.006l0.147,-0.004l0.146,-0.003l0.141,-0.001l6.028,0l0.134,0.001Zm-6.15,3.999l-0.104,0.001l-0.099,0.001l-0.098,0.003l-0.097,0.004l-0.098,0.006l-0.097,0.006l-0.096,0.008l-0.097,0.009l-0.096,0.009l-0.095,0.011l-0.095,0.013l-0.095,0.013l-0.095,0.014l-0.094,0.015l-0.094,0.017l-0.093,0.018l-0.093,0.018l-0.093,0.02l-0.092,0.021l-0.092,0.022l-0.091,0.023l-0.091,0.024l-0.091,0.025l-0.09,0.026l-0.089,0.027l-0.09,0.028l-0.088,0.029l-0.089,0.03l-0.088,0.031l-0.087,0.032l-0.087,0.034l-0.087,0.034l-0.086,0.035l-0.085,0.036l-0.085,0.037l-0.085,0.038l-0.084,0.039l-0.083,0.04l-0.083,0.04l-0.083,0.042l-0.082,0.043l-0.081,0.043l-0.081,0.045l-0.081,0.045l-0.079,0.047l-0.079,0.047l-0.079,0.048l-0.078,0.049l-0.078,0.05l-0.076,0.051l-0.077,0.051l-0.075,0.053l-0.075,0.053l-0.074,0.054l-0.074,0.055l-0.073,0.056l-0.073,0.057l-0.071,0.057l-0.071,0.059l-0.071,0.059l-0.069,0.06l-0.069,0.06l-0.069,0.062l-0.067,0.062l-0.067,0.063l-0.066,0.064l-0.066,0.064l-0.065,0.066l-0.064,0.066l-0.063,0.066l-0.062,0.068l-0.062,0.068l-0.061,0.069l-0.06,0.07l-0.059,0.07l-0.059,0.071l-0.058,0.071l-0.056,0.073l-0.057,0.073l-0.055,0.073l-0.054,0.075l-0.054,0.075l-0.053,0.075l-0.052,0.077l-0.051,0.076l-0.05,0.078l-0.049,0.078l-0.049,0.079l-0.047,0.079l-0.047,0.08l-0.045,0.08l-0.045,0.081l-0.044,0.082l-0.043,0.082l-0.042,0.083l-0.041,0.083l-0.041,0.084l-0.039,0.085l-0.038,0.085l-0.037,0.085l-0.037,0.086l-0.035,0.087l-0.034,0.087l-0.034,0.087l-0.032,0.088l-0.032,0.089l-0.03,0.089l-0.029,0.089l-0.029,0.09l-0.027,0.091l-0.026,0.091l-0.026,0.091l-0.024,0.092l-0.023,0.092l-0.022,0.093l-0.021,0.093l-0.02,0.094l-0.019,0.094l-0.018,0.095l-0.016,0.095l-0.016,0.095l-0.014,0.096l-0.014,0.096l-0.012,0.097l-0.011,0.097l-0.01,0.098l-0.009,0.098l-0.008,0.104l-0.084,1.181l-0.005,0.081l-0.004,0.075l-0.003,0.074l-0.001,0.073l0,0.074l0,0.074l0.002,0.073l0.003,0.074l0.004,0.073l0.005,0.073l0.006,0.073l0.007,0.072l0.008,0.073l0.01,0.072l0.01,0.072l0.011,0.072l0.013,0.072l0.013,0.071l0.014,0.071l0.016,0.071l0.016,0.071l0.018,0.07l0.018,0.07l0.02,0.07l0.02,0.069l0.022,0.069l0.022,0.069l0.024,0.069l0.024,0.068l0.026,0.067l0.026,0.068l0.027,0.067l0.029,0.066l0.029,0.066l0.03,0.066l0.031,0.065l0.033,0.065l0.033,0.064l0.034,0.064l0.035,0.064l0.036,0.063l0.036,0.062l0.038,0.062l0.039,0.061l0.039,0.061l0.041,0.06l0.041,0.06l0.042,0.059l0.043,0.059l0.045,0.058l0.044,0.057l0.046,0.057l0.047,0.056l0.047,0.056l0.049,0.055l0.049,0.054l0.05,0.054l0.051,0.053l0.052,0.052l0.052,0.052l0.054,0.05l0.054,0.051l0.056,0.049l0.061,0.054l2.623,2.248l0.077,0.064l0.07,0.056l0.071,0.054l0.071,0.053l0.073,0.05l0.074,0.05l0.075,0.047l0.076,0.046l0.076,0.043l0.078,0.043l0.079,0.04l0.079,0.039l0.08,0.037l0.081,0.035l0.081,0.033l0.083,0.031l0.083,0.03l0.083,0.028l0.085,0.026l0.085,0.024l0.085,0.022l0.086,0.021l0.086,0.018l0.087,0.017l0.087,0.014l0.088,0.013l0.088,0.011l0.088,0.009l0.089,0.007l0.089,0.005l0.089,0.003l0.101,0.001l7.759,0l0.091,-0.001l0.081,-0.002l0.081,-0.004l0.08,-0.006l0.08,-0.008l0.081,-0.008l0.079,-0.011l0.08,-0.012l0.079,-0.014l0.079,-0.015l0.078,-0.017l0.078,-0.018l0.078,-0.02l0.077,-0.022l0.077,-0.023l0.076,-0.024l0.076,-0.026l0.075,-0.028l0.074,-0.029l0.074,-0.031l0.074,-0.032l0.073,-0.033l0.072,-0.036l0.072,-0.036l0.07,-0.038l0.071,-0.039l0.069,-0.041l0.068,-0.043l0.068,-0.043l0.067,-0.046l0.067,-0.046l0.073,-0.054l3.069,-2.302l0.075,-0.057l0.067,-0.053l0.066,-0.054l0.065,-0.055l0.064,-0.056l0.062,-0.057l0.062,-0.057l0.06,-0.059l0.059,-0.06l0.059,-0.06l0.057,-0.061l0.056,-0.063l0.055,-0.063l0.053,-0.063l0.053,-0.065l0.051,-0.066l0.051,-0.066l0.049,-0.067l0.048,-0.068l0.046,-0.068l0.046,-0.069l0.045,-0.07l0.043,-0.071l0.042,-0.071l0.041,-0.072l0.039,-0.073l0.039,-0.073l0.037,-0.074l0.036,-0.074l0.035,-0.075l0.033,-0.076l0.033,-0.076l0.03,-0.076l0.03,-0.078l0.029,-0.077l0.027,-0.078l0.026,-0.079l0.024,-0.079l0.024,-0.079l0.022,-0.08l0.02,-0.08l0.02,-0.08l0.018,-0.081l0.016,-0.082l0.016,-0.081l0.014,-0.082l0.012,-0.082l0.012,-0.082l0.01,-0.083l0.008,-0.083l0.007,-0.083l0.006,-0.083l0.004,-0.084l0.003,-0.084l0.002,-0.084l0,-0.084l-0.001,-0.084l-0.003,-0.084l-0.004,-0.085l-0.005,-0.084l-0.007,-0.085l-0.009,-0.085l-0.01,-0.084l-0.012,-0.094l-0.186,-1.297l-0.014,-0.098l-0.015,-0.092l-0.016,-0.092l-0.017,-0.091l-0.017,-0.091l-0.019,-0.09l-0.02,-0.09l-0.021,-0.09l-0.021,-0.088l-0.023,-0.089l-0.024,-0.088l-0.024,-0.088l-0.026,-0.087l-0.026,-0.087l-0.028,-0.086l-0.028,-0.086l-0.03,-0.086l-0.03,-0.085l-0.031,-0.084l-0.032,-0.084l-0.033,-0.084l-0.034,-0.083l-0.034,-0.082l-0.036,-0.082l-0.037,-0.082l-0.037,-0.081l-0.038,-0.08l-0.039,-0.08l-0.04,-0.08l-0.041,-0.079l-0.042,-0.078l-0.042,-0.078l-0.043,-0.077l-0.044,-0.077l-0.045,-0.076l-0.046,-0.076l-0.047,-0.075l-0.047,-0.075l-0.048,-0.074l-0.049,-0.073l-0.05,-0.073l-0.05,-0.072l-0.052,-0.072l-0.051,-0.071l-0.053,-0.07l-0.054,-0.07l-0.054,-0.069l-0.055,-0.069l-0.056,-0.068l-0.056,-0.067l-0.058,-0.067l-0.057,-0.066l-0.059,-0.065l-0.059,-0.065l-0.06,-0.064l-0.061,-0.063l-0.061,-0.063l-0.062,-0.062l-0.063,-0.061l-0.063,-0.061l-0.064,-0.06l-0.065,-0.059l-0.065,-0.059l-0.066,-0.058l-0.067,-0.057l-0.067,-0.056l-0.068,-0.056l-0.068,-0.055l-0.069,-0.054l-0.07,-0.053l-0.07,-0.053l-0.071,-0.052l-0.071,-0.051l-0.072,-0.05l-0.073,-0.05l-0.072,-0.048l-0.074,-0.048l-0.074,-0.048l-0.075,-0.046l-0.075,-0.046l-0.076,-0.044l-0.076,-0.044l-0.077,-0.043l-0.077,-0.043l-0.077,-0.041l-0.079,-0.041l-0.078,-0.039l-0.079,-0.039l-0.08,-0.038l-0.08,-0.038l-0.08,-0.036l-0.081,-0.035l-0.082,-0.035l-0.082,-0.034l-0.082,-0.033l-0.083,-0.031l-0.083,-0.031l-0.083,-0.031l-0.084,-0.029l-0.084,-0.028l-0.085,-0.027l-0.085,-0.027l-0.086,-0.025l-0.086,-0.025l-0.086,-0.024l-0.086,-0.022l-0.087,-0.022l-0.088,-0.021l-0.087,-0.02l-0.088,-0.019l-0.089,-0.018l-0.088,-0.016l-0.089,-0.016l-0.09,-0.015l-0.089,-0.014l-0.091,-0.013l-0.09,-0.012l-0.09,-0.011l-0.091,-0.01l-0.092,-0.009l-0.091,-0.008l-0.092,-0.007l-0.092,-0.006l-0.093,-0.004l-0.092,-0.004l-0.093,-0.003l-0.093,-0.001l-0.1,-0.001l-6.004,0Z"/></g><g id="emoji"><path d="M25,9c0,0 0.824,-0.824 1.414,-1.414c0.375,-0.375 0.884,-0.586 1.414,-0.586c0.056,0 0.114,0 0.172,0c0.53,0 1.039,0.211 1.414,0.586c0.375,0.375 0.586,0.884 0.586,1.414c0,0.758 0,1.58 0,2.172c0,0.53 -0.211,1.039 -0.586,1.414c-0.873,0.873 -2.414,2.414 -2.414,2.414l-2,-6Z" style="fill:#836f4d;"/><clipPath id="_clip2"><path d="M25,9c0,0 0.824,-0.824 1.414,-1.414c0.375,-0.375 0.884,-0.586 1.414,-0.586c0.056,0 0.114,0 0.172,0c0.53,0 1.039,0.211 1.414,0.586c0.375,0.375 0.586,0.884 0.586,1.414c0,0.758 0,1.58 0,2.172c0,0.53 -0.211,1.039 -0.586,1.414c-0.873,0.873 -2.414,2.414 -2.414,2.414l-2,-6Z"/></clipPath><g clip-path="url(#_clip2)"><path d="M24,12c0,0 2.303,-2.303 3.414,-3.414c0.375,-0.375 0.884,-0.586 1.414,-0.586c1.172,0 3.172,0 3.172,0l0,-3l-9,0l0,6l1,1Z" style="fill:#a69068;"/></g><path d="M7,9c0,0 -0.824,-0.824 -1.414,-1.414c-0.375,-0.375 -0.884,-0.586 -1.414,-0.586c-0.056,0 -0.114,0 -0.172,0c-0.53,0 -1.039,0.211 -1.414,0.586c-0.375,0.375 -0.586,0.884 -0.586,1.414c0,0.758 0,1.58 0,2.172c0,0.53 0.211,1.039 0.586,1.414c0.873,0.873 2.414,2.414 2.414,2.414l2,-6Z" style="fill:#836f4d;"/><clipPath id="_clip3"><path d="M7,9c0,0 -0.824,-0.824 -1.414,-1.414c-0.375,-0.375 -0.884,-0.586 -1.414,-0.586c-0.056,0 -0.114,0 -0.172,0c-0.53,0 -1.039,0.211 -1.414,0.586c-0.375,0.375 -0.586,0.884 -0.586,1.414c0,0.758 0,1.58 0,2.172c0,0.53 0.211,1.039 0.586,1.414c0.873,0.873 2.414,2.414 2.414,2.414l2,-6Z"/></clipPath><g clip-path="url(#_clip3)"><path d="M8,12c0,0 -2.303,-2.303 -3.414,-3.414c-0.375,-0.375 -0.884,-0.586 -1.414,-0.586c-1.172,0 -3.172,0 -3.172,0l0,-3l9,0l0,6l-1,1Z" style="fill:#a69068;"/></g><path d="M13.311,6c-5.246,0 -9.601,4.054 -9.974,9.288c-0.03,0.412 -0.058,0.812 -0.086,1.194c-0.158,2.213 0.743,4.37 2.427,5.813c0.886,0.76 1.847,1.583 2.637,2.261c1.087,0.932 2.472,1.444 3.905,1.444c2.229,0 5.632,0 7.78,0c1.298,0 2.561,-0.421 3.6,-1.2c0.885,-0.664 2.018,-1.513 3.084,-2.313c2.045,-1.534 3.091,-4.06 2.73,-6.59c-0.061,-0.423 -0.123,-0.862 -0.187,-1.311c-0.704,-4.927 -4.923,-8.586 -9.9,-8.586c-1.954,0 -4.036,0 -6.016,0Z" style="fill:#a69068;"/><path d="M16.674,20.501l0.06,0.002l0.059,0.003l0.06,0.005l0.059,0.007l0.059,0.007l0.058,0.01l0.059,0.01l0.058,0.012l0.058,0.013l0.057,0.015l0.057,0.016l0.057,0.017l0.057,0.019l0.056,0.02l0.053,0.021l4.645,1.858l0.043,0.02l0.041,0.023l0.039,0.028l0.036,0.031l0.033,0.034l0.029,0.038l0.026,0.04l0.022,0.042l0.017,0.044l0.014,0.046l0.009,0.047l0.004,0.047l0,0.048l-0.004,0.047l-0.009,0.047l-0.013,0.045l-0.018,0.045l-0.022,0.042l-0.026,0.04l-0.029,0.037l-0.033,0.035l-0.036,0.031l-0.039,0.028l-0.041,0.023l-0.043,0.02l-0.045,0.016l-0.046,0.011l-0.047,0.007l-0.048,0.002l-0.047,-0.002l-0.047,-0.007l-0.047,-0.011l-0.045,-0.016l-4.639,-1.856l-0.036,-0.014l-0.034,-0.012l-0.034,-0.011l-0.034,-0.01l-0.034,-0.01l-0.035,-0.009l-0.035,-0.008l-0.035,-0.007l-0.035,-0.006l-0.035,-0.006l-0.035,-0.004l-0.036,-0.004l-0.035,-0.003l-0.036,-0.002l-0.035,-0.002l-0.039,0l-1.224,0l-0.039,0l-0.035,0.002l-0.036,0.002l-0.035,0.003l-0.036,0.004l-0.035,0.004l-0.035,0.006l-0.035,0.006l-0.035,0.007l-0.035,0.008l-0.035,0.009l-0.034,0.01l-0.034,0.01l-0.034,0.011l-0.034,0.012l-0.036,0.014l-4.639,1.856l-0.045,0.016l-0.047,0.011l-0.047,0.007l-0.047,0.002l-0.048,-0.002l-0.047,-0.007l-0.046,-0.011l-0.045,-0.016l-0.043,-0.02l-0.041,-0.023l-0.039,-0.028l-0.036,-0.031l-0.033,-0.035l-0.029,-0.037l-0.026,-0.04l-0.022,-0.042l-0.018,-0.045l-0.013,-0.045l-0.009,-0.047l-0.004,-0.047l0,-0.048l0.004,-0.047l0.009,-0.047l0.014,-0.046l0.017,-0.044l0.022,-0.042l0.026,-0.04l0.029,-0.038l0.033,-0.034l0.036,-0.031l0.039,-0.028l0.041,-0.023l0.043,-0.02l4.645,-1.858l0.053,-0.021l0.056,-0.02l0.057,-0.019l0.057,-0.017l0.057,-0.016l0.057,-0.015l0.058,-0.013l0.058,-0.012l0.059,-0.01l0.058,-0.01l0.059,-0.007l0.059,-0.007l0.06,-0.005l0.059,-0.003l0.06,-0.002l0.056,-0.001l1.236,0l0.056,0.001Z" style="fill:#57422d;"/><path d="M7,13.084c0,-0.483 0.232,-0.936 0.624,-1.219c0.391,-0.282 0.895,-0.359 1.353,-0.206c0.123,0.041 0.242,0.081 0.351,0.117c0.43,0.143 0.786,0.452 0.989,0.857c0.293,0.586 0.683,1.367 0.683,1.367c0,0 -1.098,0.275 -2.144,0.536c-0.446,0.111 -0.919,0.011 -1.281,-0.272c-0.363,-0.283 -0.575,-0.717 -0.575,-1.177c0,-0.001 0,-0.002 0,-0.003Z"/><path d="M25,13.084c0,-0.483 -0.232,-0.936 -0.624,-1.219c-0.391,-0.282 -0.895,-0.359 -1.353,-0.206c-0.123,0.041 -0.242,0.081 -0.351,0.117c-0.43,0.143 -0.786,0.452 -0.989,0.857c-0.293,0.586 -0.683,1.367 -0.683,1.367c0,0 1.098,0.275 2.144,0.536c0.446,0.111 0.919,0.011 1.281,-0.272c0.363,-0.283 0.575,-0.717 0.575,-1.177c0,-0.001 0,-0.002 0,-0.003Z"/><path d="M13.868,15c-0.495,0 -0.971,0.197 -1.321,0.547c-0.35,0.35 -0.547,0.826 -0.547,1.321c0,0.001 0,0.001 0,0.002c0,0.083 0.033,0.163 0.092,0.222c0.247,0.247 0.908,0.908 0.908,0.908c0,0 0,0 0,0.001c0,0.552 0.447,0.999 0.999,0.999c1.11,0 2.891,0 4.001,0c0.265,0 0.52,-0.105 0.707,-0.293c0.188,-0.187 0.293,-0.442 0.293,-0.707c0,0 0,0 0,0c0,0 0.678,-0.678 0.917,-0.917c0.053,-0.053 0.083,-0.125 0.083,-0.2c0,0 0,-0.001 0,-0.001c0,-0.499 -0.198,-0.978 -0.551,-1.331c-0.353,-0.353 -0.832,-0.551 -1.331,-0.551c-1.282,0 -2.971,0 -4.25,0Z"/><path d="M22,19c0,0 1.975,1.975 2.72,2.72c0.186,0.186 0.354,0.39 0.5,0.61c0.519,0.779 1.78,2.67 1.78,2.67" style="fill:none;stroke:#c6c6c6;stroke-width:1px;"/><path d="M10,19c0,0 -1.975,1.975 -2.72,2.72c-0.186,0.186 -0.354,0.39 -0.5,0.61c-0.519,0.779 -1.78,2.67 -1.78,2.67" style="fill:none;stroke:#c6c6c6;stroke-width:1px;"/><path d="M24,18c0,0 1.891,1.261 2.67,1.78c0.22,0.146 0.424,0.314 0.61,0.5c0.745,0.745 2.72,2.72 2.72,2.72" style="fill:none;stroke:#c6c6c6;stroke-width:1px;"/><path d="M8,18c0,0 -1.891,1.261 -2.67,1.78c-0.22,0.146 -0.424,0.314 -0.61,0.5c-0.745,0.745 -2.72,2.72 -2.72,2.72" style="fill:none;stroke:#c6c6c6;stroke-width:1px;"/></g></g></svg>