<?xml version="1.0" encoding="UTF-8" standalone="no"?><!DOCTYPE svg PUBLIC "-//W3C//DTD SVG 1.1//EN" "http://www.w3.org/Graphics/SVG/1.1/DTD/svg11.dtd"><svg width="100%" height="100%" viewBox="0 0 32 32" version="1.1" xmlns="http://www.w3.org/2000/svg" xmlns:xlink="http://www.w3.org/1999/xlink" xml:space="preserve" xmlns:serif="http://www.serif.com/" style="fill-rule:evenodd;clip-rule:evenodd;stroke-linejoin:round;stroke-miterlimit:1.41421;"><rect id="rabbit" x="0" y="0" width="32" height="32" style="fill:none;"/><clipPath id="_clip1"><rect x="0" y="0" width="32" height="32"/></clipPath><g clip-path="url(#_clip1)"><g id="outline"><g><path d="M15.999,12c-3.451,0 -6.386,2.518 -6.911,5.929c-0.215,1.396 -0.435,2.827 -0.621,4.034c-0.298,1.935 0.229,3.907 1.453,5.437c0.299,0.374 0.602,0.752 0.879,1.099c0.759,0.949 1.908,1.501 3.123,1.501c1.259,0 2.897,0 4.156,0c1.215,0 2.364,-0.552 3.123,-1.501c0.277,-0.347 0.58,-0.725 0.879,-1.099c1.224,-1.53 1.751,-3.502 1.453,-5.437c-0.186,-1.207 -0.406,-2.638 -0.621,-4.034c-0.525,-3.411 -3.46,-5.929 -6.911,-5.929c-0.001,0 -0.001,0 -0.002,0Z"/><path d="M16.105,10.001l0.103,0.001l0.103,0.003l0.104,0.004l0.102,0.006l0.103,0.006l0.102,0.008l0.102,0.008l0.101,0.01l0.102,0.011l0.101,0.012l0.101,0.014l0.1,0.014l0.1,0.015l0.1,0.017l0.1,0.018l0.099,0.018l0.099,0.02l0.098,0.021l0.098,0.022l0.098,0.023l0.097,0.024l0.097,0.026l0.096,0.026l0.096,0.027l0.096,0.029l0.095,0.029l0.095,0.03l0.095,0.032l0.093,0.032l0.094,0.033l0.093,0.035l0.092,0.035l0.093,0.037l0.091,0.037l0.091,0.038l0.091,0.04l0.09,0.04l0.089,0.041l0.089,0.043l0.089,0.043l0.088,0.044l0.087,0.045l0.087,0.046l0.086,0.047l0.086,0.047l0.085,0.049l0.085,0.05l0.084,0.05l0.083,0.051l0.083,0.053l0.082,0.053l0.082,0.054l0.081,0.055l0.08,0.055l0.08,0.057l0.079,0.057l0.079,0.058l0.077,0.06l0.078,0.06l0.076,0.06l0.076,0.062l0.075,0.062l0.074,0.063l0.074,0.064l0.073,0.065l0.073,0.066l0.071,0.066l0.071,0.067l0.071,0.068l0.069,0.069l0.069,0.069l0.068,0.071l0.067,0.07l0.067,0.072l0.065,0.073l0.065,0.073l0.065,0.074l0.063,0.074l0.063,0.076l0.062,0.076l0.061,0.077l0.06,0.077l0.059,0.078l0.059,0.079l0.058,0.08l0.057,0.08l0.056,0.081l0.055,0.081l0.054,0.083l0.054,0.082l0.053,0.084l0.051,0.084l0.051,0.085l0.05,0.085l0.049,0.086l0.048,0.087l0.048,0.087l0.046,0.088l0.045,0.089l0.045,0.089l0.043,0.09l0.043,0.09l0.041,0.091l0.041,0.091l0.04,0.092l0.038,0.092l0.038,0.093l0.037,0.094l0.035,0.094l0.035,0.095l0.034,0.095l0.032,0.096l0.032,0.096l0.03,0.096l0.03,0.097l0.028,0.098l0.027,0.098l0.027,0.099l0.025,0.099l0.024,0.099l0.023,0.1l0.022,0.1l0.021,0.101l0.02,0.101l0.018,0.102l0.018,0.101l0.015,0.097l0.622,4.046l0.017,0.11l0.015,0.117l0.014,0.117l0.013,0.116l0.011,0.117l0.009,0.117l0.008,0.117l0.007,0.117l0.005,0.116l0.003,0.117l0.002,0.117l0,0.116l-0.001,0.117l-0.003,0.116l-0.004,0.116l-0.006,0.116l-0.007,0.116l-0.008,0.116l-0.011,0.115l-0.011,0.116l-0.013,0.115l-0.015,0.115l-0.016,0.114l-0.017,0.115l-0.019,0.114l-0.021,0.114l-0.022,0.113l-0.023,0.113l-0.025,0.113l-0.026,0.113l-0.028,0.112l-0.029,0.112l-0.03,0.111l-0.032,0.111l-0.034,0.111l-0.034,0.11l-0.037,0.11l-0.037,0.109l-0.039,0.109l-0.041,0.108l-0.042,0.108l-0.043,0.108l-0.045,0.106l-0.046,0.107l-0.047,0.105l-0.049,0.106l-0.05,0.104l-0.052,0.104l-0.053,0.104l-0.054,0.103l-0.056,0.102l-0.057,0.101l-0.058,0.101l-0.06,0.1l-0.061,0.1l-0.063,0.098l-0.063,0.098l-0.065,0.098l-0.067,0.096l-0.068,0.096l-0.069,0.095l-0.07,0.094l-0.072,0.094l-0.069,0.087l-0.888,1.11l-0.049,0.06l-0.055,0.066l-0.055,0.064l-0.056,0.064l-0.057,0.063l-0.058,0.062l-0.059,0.06l-0.06,0.06l-0.06,0.06l-0.061,0.058l-0.062,0.057l-0.062,0.056l-0.063,0.056l-0.064,0.054l-0.065,0.054l-0.065,0.052l-0.066,0.052l-0.067,0.051l-0.067,0.049l-0.068,0.049l-0.069,0.048l-0.069,0.047l-0.07,0.045l-0.071,0.045l-0.071,0.044l-0.071,0.043l-0.072,0.041l-0.073,0.041l-0.073,0.04l-0.074,0.039l-0.075,0.037l-0.074,0.037l-0.076,0.035l-0.075,0.035l-0.077,0.033l-0.077,0.033l-0.077,0.031l-0.077,0.03l-0.079,0.03l-0.078,0.028l-0.079,0.027l-0.079,0.026l-0.08,0.025l-0.08,0.023l-0.081,0.023l-0.081,0.022l-0.081,0.02l-0.082,0.019l-0.081,0.018l-0.083,0.018l-0.082,0.015l-0.083,0.015l-0.083,0.014l-0.083,0.012l-0.084,0.012l-0.084,0.01l-0.084,0.009l-0.084,0.007l-0.084,0.007l-0.085,0.005l-0.085,0.005l-0.085,0.003l-0.085,0.001l-0.078,0.001l-4.17,0l-0.078,-0.001l-0.085,-0.001l-0.085,-0.003l-0.085,-0.005l-0.085,-0.005l-0.084,-0.007l-0.084,-0.007l-0.084,-0.009l-0.084,-0.01l-0.084,-0.012l-0.083,-0.012l-0.083,-0.014l-0.083,-0.015l-0.082,-0.015l-0.083,-0.018l-0.081,-0.018l-0.082,-0.019l-0.081,-0.02l-0.081,-0.022l-0.081,-0.023l-0.08,-0.023l-0.08,-0.025l-0.079,-0.026l-0.079,-0.027l-0.078,-0.028l-0.079,-0.03l-0.077,-0.03l-0.077,-0.031l-0.077,-0.033l-0.077,-0.033l-0.075,-0.035l-0.076,-0.035l-0.074,-0.037l-0.075,-0.037l-0.074,-0.039l-0.073,-0.04l-0.073,-0.041l-0.072,-0.041l-0.071,-0.043l-0.071,-0.044l-0.071,-0.045l-0.07,-0.045l-0.069,-0.047l-0.069,-0.048l-0.068,-0.048l-0.067,-0.05l-0.067,-0.051l-0.066,-0.051l-0.065,-0.053l-0.065,-0.054l-0.063,-0.054l-0.064,-0.056l-0.062,-0.056l-0.062,-0.057l-0.061,-0.058l-0.06,-0.059l-0.06,-0.061l-0.059,-0.061l-0.057,-0.061l-0.058,-0.063l-0.056,-0.064l-0.055,-0.064l-0.055,-0.066l-0.049,-0.06l-0.888,-1.11l-0.069,-0.087l-0.072,-0.094l-0.07,-0.094l-0.069,-0.095l-0.068,-0.096l-0.067,-0.096l-0.065,-0.098l-0.063,-0.098l-0.063,-0.098l-0.061,-0.1l-0.06,-0.1l-0.058,-0.101l-0.057,-0.101l-0.056,-0.102l-0.054,-0.103l-0.053,-0.104l-0.052,-0.104l-0.05,-0.104l-0.049,-0.106l-0.047,-0.105l-0.046,-0.107l-0.045,-0.106l-0.043,-0.108l-0.042,-0.108l-0.041,-0.108l-0.039,-0.109l-0.037,-0.109l-0.037,-0.11l-0.034,-0.11l-0.034,-0.111l-0.032,-0.111l-0.03,-0.111l-0.029,-0.112l-0.028,-0.112l-0.026,-0.113l-0.025,-0.113l-0.023,-0.113l-0.022,-0.113l-0.021,-0.114l-0.019,-0.114l-0.017,-0.115l-0.016,-0.114l-0.015,-0.115l-0.013,-0.115l-0.011,-0.116l-0.011,-0.115l-0.008,-0.116l-0.007,-0.116l-0.006,-0.116l-0.004,-0.116l-0.003,-0.116l-0.001,-0.117l0,-0.116l0.002,-0.117l0.003,-0.117l0.005,-0.116l0.007,-0.117l0.008,-0.117l0.009,-0.117l0.011,-0.117l0.013,-0.116l0.014,-0.117l0.015,-0.117l0.017,-0.11l0.622,-4.046l0.015,-0.097l0.018,-0.101l0.018,-0.102l0.02,-0.101l0.021,-0.101l0.022,-0.1l0.023,-0.1l0.024,-0.099l0.025,-0.099l0.027,-0.099l0.027,-0.098l0.028,-0.098l0.03,-0.097l0.03,-0.096l0.032,-0.096l0.033,-0.096l0.033,-0.095l0.035,-0.095l0.035,-0.094l0.037,-0.094l0.038,-0.093l0.038,-0.092l0.04,-0.092l0.041,-0.091l0.041,-0.091l0.043,-0.09l0.043,-0.09l0.045,-0.089l0.045,-0.089l0.046,-0.088l0.048,-0.087l0.048,-0.087l0.049,-0.086l0.05,-0.085l0.051,-0.085l0.052,-0.084l0.052,-0.084l0.054,-0.082l0.054,-0.083l0.055,-0.081l0.056,-0.081l0.057,-0.08l0.058,-0.08l0.059,-0.079l0.059,-0.078l0.06,-0.077l0.061,-0.077l0.062,-0.076l0.063,-0.076l0.063,-0.074l0.065,-0.074l0.065,-0.073l0.065,-0.073l0.067,-0.072l0.067,-0.07l0.068,-0.071l0.069,-0.069l0.069,-0.069l0.071,-0.068l0.071,-0.067l0.071,-0.066l0.073,-0.066l0.073,-0.065l0.074,-0.064l0.074,-0.063l0.075,-0.062l0.076,-0.062l0.077,-0.061l0.077,-0.059l0.077,-0.06l0.079,-0.058l0.079,-0.057l0.08,-0.057l0.08,-0.055l0.081,-0.055l0.082,-0.054l0.082,-0.053l0.083,-0.053l0.083,-0.051l0.084,-0.051l0.085,-0.049l0.085,-0.049l0.086,-0.047l0.086,-0.047l0.087,-0.046l0.087,-0.045l0.088,-0.044l0.089,-0.043l0.089,-0.043l0.089,-0.041l0.09,-0.04l0.091,-0.04l0.091,-0.038l0.091,-0.037l0.093,-0.037l0.092,-0.035l0.093,-0.035l0.093,-0.033l0.094,-0.032l0.095,-0.032l0.095,-0.03l0.095,-0.029l0.096,-0.029l0.096,-0.027l0.096,-0.026l0.097,-0.026l0.097,-0.024l0.098,-0.023l0.098,-0.022l0.098,-0.021l0.099,-0.02l0.099,-0.018l0.1,-0.018l0.1,-0.017l0.1,-0.015l0.1,-0.014l0.101,-0.014l0.101,-0.012l0.102,-0.011l0.101,-0.01l0.102,-0.008l0.102,-0.008l0.103,-0.006l0.102,-0.006l0.104,-0.004l0.103,-0.003l0.103,-0.001l0.098,-0.001l0.014,0l0.098,0.001Zm-0.164,3.999l-0.058,0.001l-0.058,0.002l-0.057,0.002l-0.058,0.003l-0.057,0.004l-0.057,0.004l-0.056,0.005l-0.057,0.005l-0.056,0.006l-0.056,0.007l-0.056,0.008l-0.056,0.007l-0.055,0.009l-0.056,0.009l-0.055,0.01l-0.055,0.01l-0.054,0.011l-0.055,0.012l-0.054,0.012l-0.054,0.013l-0.054,0.013l-0.054,0.014l-0.053,0.015l-0.053,0.015l-0.053,0.016l-0.053,0.016l-0.052,0.017l-0.053,0.017l-0.052,0.018l-0.051,0.018l-0.052,0.02l-0.051,0.019l-0.051,0.02l-0.051,0.021l-0.05,0.021l-0.05,0.022l-0.05,0.022l-0.05,0.023l-0.049,0.024l-0.049,0.024l-0.049,0.024l-0.049,0.025l-0.048,0.026l-0.048,0.025l-0.047,0.027l-0.048,0.027l-0.047,0.028l-0.046,0.028l-0.047,0.028l-0.046,0.029l-0.045,0.03l-0.046,0.03l-0.045,0.03l-0.045,0.031l-0.044,0.032l-0.044,0.032l-0.044,0.032l-0.043,0.033l-0.043,0.033l-0.042,0.034l-0.043,0.034l-0.041,0.035l-0.042,0.035l-0.041,0.036l-0.041,0.036l-0.04,0.036l-0.04,0.037l-0.039,0.038l-0.039,0.037l-0.039,0.039l-0.038,0.038l-0.038,0.039l-0.038,0.04l-0.037,0.04l-0.036,0.04l-0.036,0.041l-0.036,0.041l-0.035,0.041l-0.035,0.042l-0.034,0.042l-0.034,0.043l-0.034,0.043l-0.033,0.044l-0.032,0.043l-0.032,0.044l-0.032,0.045l-0.031,0.045l-0.031,0.045l-0.03,0.046l-0.029,0.046l-0.03,0.046l-0.028,0.047l-0.029,0.047l-0.027,0.047l-0.027,0.047l-0.027,0.049l-0.026,0.048l-0.026,0.048l-0.025,0.049l-0.025,0.05l-0.024,0.049l-0.023,0.05l-0.023,0.051l-0.023,0.05l-0.022,0.051l-0.021,0.051l-0.021,0.052l-0.02,0.051l-0.02,0.053l-0.019,0.052l-0.019,0.053l-0.018,0.053l-0.017,0.053l-0.017,0.053l-0.016,0.054l-0.016,0.055l-0.015,0.054l-0.015,0.055l-0.014,0.055l-0.013,0.055l-0.013,0.056l-0.012,0.055l-0.012,0.057l-0.011,0.056l-0.01,0.057l-0.01,0.057l-0.01,0.063l-0.619,4.021l-0.01,0.072l-0.009,0.064l-0.008,0.065l-0.007,0.065l-0.006,0.065l-0.005,0.065l-0.005,0.065l-0.003,0.065l-0.003,0.065l-0.002,0.064l-0.001,0.065l0,0.065l0.001,0.065l0.001,0.064l0.002,0.065l0.004,0.064l0.004,0.065l0.004,0.064l0.006,0.064l0.006,0.064l0.008,0.064l0.008,0.064l0.009,0.063l0.009,0.064l0.011,0.063l0.011,0.064l0.012,0.063l0.013,0.063l0.014,0.062l0.015,0.063l0.015,0.062l0.016,0.062l0.017,0.062l0.018,0.062l0.019,0.061l0.019,0.062l0.02,0.061l0.021,0.06l0.022,0.061l0.022,0.06l0.023,0.06l0.025,0.06l0.024,0.059l0.026,0.059l0.026,0.059l0.027,0.058l0.028,0.058l0.029,0.058l0.029,0.058l0.03,0.057l0.031,0.056l0.032,0.057l0.033,0.056l0.033,0.055l0.034,0.056l0.034,0.055l0.036,0.054l0.036,0.054l0.037,0.054l0.038,0.053l0.038,0.053l0.039,0.052l0.04,0.052l0.045,0.056l0.87,1.089l0.023,0.028l0.018,0.021l0.019,0.022l0.018,0.021l0.019,0.021l0.02,0.021l0.019,0.02l0.02,0.02l0.02,0.02l0.02,0.019l0.021,0.019l0.021,0.019l0.021,0.018l0.021,0.018l0.022,0.018l0.021,0.018l0.022,0.017l0.023,0.017l0.022,0.016l0.023,0.017l0.023,0.016l0.023,0.015l0.023,0.015l0.023,0.015l0.024,0.015l0.024,0.014l0.024,0.014l0.024,0.014l0.025,0.013l0.024,0.013l0.025,0.012l0.025,0.013l0.025,0.011l0.026,0.012l0.025,0.011l0.026,0.011l0.025,0.01l0.026,0.01l0.026,0.01l0.027,0.01l0.026,0.009l0.026,0.008l0.027,0.009l0.027,0.007l0.027,0.008l0.026,0.007l0.027,0.007l0.028,0.006l0.027,0.006l0.027,0.006l0.028,0.005l0.027,0.005l0.028,0.005l0.028,0.004l0.027,0.004l0.028,0.003l0.028,0.003l0.028,0.003l0.029,0.002l0.028,0.002l0.028,0.001l0.029,0.001l0.028,0.001l0.036,0l4.14,0l0.036,0l0.028,-0.001l0.029,-0.001l0.028,-0.001l0.028,-0.002l0.029,-0.002l0.028,-0.003l0.028,-0.003l0.028,-0.003l0.027,-0.004l0.028,-0.004l0.028,-0.005l0.027,-0.005l0.028,-0.005l0.027,-0.006l0.027,-0.006l0.028,-0.006l0.027,-0.007l0.027,-0.007l0.026,-0.008l0.027,-0.007l0.027,-0.009l0.026,-0.008l0.027,-0.009l0.026,-0.01l0.026,-0.01l0.026,-0.01l0.025,-0.01l0.026,-0.011l0.025,-0.011l0.026,-0.012l0.025,-0.011l0.025,-0.013l0.025,-0.012l0.024,-0.013l0.025,-0.013l0.024,-0.014l0.024,-0.014l0.024,-0.014l0.024,-0.015l0.023,-0.015l0.023,-0.015l0.023,-0.015l0.023,-0.016l0.023,-0.017l0.022,-0.016l0.023,-0.017l0.022,-0.017l0.021,-0.018l0.022,-0.018l0.021,-0.018l0.021,-0.018l0.021,-0.019l0.021,-0.019l0.02,-0.019l0.02,-0.02l0.02,-0.02l0.019,-0.02l0.02,-0.021l0.019,-0.021l0.018,-0.021l0.019,-0.022l0.018,-0.022l0.023,-0.027l0.87,-1.089l0.045,-0.056l0.04,-0.052l0.039,-0.052l0.038,-0.053l0.038,-0.053l0.037,-0.054l0.036,-0.054l0.036,-0.055l0.034,-0.054l0.034,-0.056l0.033,-0.055l0.033,-0.056l0.032,-0.057l0.031,-0.056l0.03,-0.057l0.029,-0.058l0.029,-0.058l0.028,-0.058l0.027,-0.058l0.026,-0.059l0.026,-0.059l0.025,-0.059l0.024,-0.06l0.023,-0.06l0.022,-0.06l0.022,-0.061l0.021,-0.06l0.02,-0.061l0.019,-0.062l0.019,-0.061l0.018,-0.062l0.017,-0.062l0.016,-0.062l0.015,-0.062l0.015,-0.063l0.014,-0.062l0.013,-0.063l0.012,-0.063l0.011,-0.064l0.011,-0.063l0.009,-0.064l0.009,-0.063l0.008,-0.064l0.008,-0.064l0.006,-0.064l0.006,-0.064l0.004,-0.064l0.004,-0.065l0.004,-0.064l0.002,-0.065l0.001,-0.064l0.001,-0.065l0,-0.065l-0.001,-0.065l-0.002,-0.064l-0.003,-0.065l-0.003,-0.065l-0.005,-0.065l-0.005,-0.065l-0.006,-0.065l-0.007,-0.065l-0.008,-0.065l-0.009,-0.064l-0.01,-0.072l-0.619,-4.021l-0.01,-0.063l-0.01,-0.057l-0.01,-0.057l-0.011,-0.056l-0.012,-0.057l-0.012,-0.056l-0.013,-0.055l-0.013,-0.055l-0.014,-0.055l-0.015,-0.055l-0.015,-0.054l-0.016,-0.055l-0.016,-0.054l-0.017,-0.053l-0.017,-0.053l-0.018,-0.053l-0.019,-0.053l-0.019,-0.052l-0.02,-0.053l-0.02,-0.051l-0.021,-0.052l-0.021,-0.051l-0.022,-0.051l-0.023,-0.05l-0.023,-0.051l-0.023,-0.05l-0.024,-0.049l-0.025,-0.05l-0.025,-0.048l-0.026,-0.049l-0.026,-0.049l-0.027,-0.047l-0.027,-0.048l-0.027,-0.047l-0.029,-0.047l-0.028,-0.047l-0.03,-0.046l-0.029,-0.046l-0.03,-0.046l-0.031,-0.045l-0.031,-0.045l-0.032,-0.045l-0.032,-0.044l-0.032,-0.043l-0.033,-0.044l-0.034,-0.043l-0.034,-0.043l-0.034,-0.042l-0.035,-0.042l-0.035,-0.041l-0.036,-0.041l-0.036,-0.041l-0.036,-0.04l-0.037,-0.04l-0.038,-0.04l-0.038,-0.039l-0.038,-0.038l-0.039,-0.038l-0.039,-0.038l-0.039,-0.038l-0.04,-0.037l-0.04,-0.036l-0.041,-0.036l-0.041,-0.036l-0.042,-0.035l-0.041,-0.035l-0.043,-0.034l-0.042,-0.034l-0.043,-0.033l-0.043,-0.033l-0.044,-0.032l-0.044,-0.032l-0.044,-0.032l-0.045,-0.031l-0.045,-0.03l-0.046,-0.03l-0.045,-0.03l-0.046,-0.029l-0.047,-0.028l-0.046,-0.028l-0.047,-0.028l-0.048,-0.027l-0.047,-0.027l-0.048,-0.025l-0.048,-0.026l-0.049,-0.025l-0.049,-0.024l-0.049,-0.024l-0.049,-0.024l-0.05,-0.023l-0.05,-0.022l-0.05,-0.022l-0.05,-0.021l-0.051,-0.021l-0.051,-0.02l-0.051,-0.019l-0.052,-0.02l-0.051,-0.018l-0.052,-0.018l-0.053,-0.017l-0.052,-0.017l-0.053,-0.016l-0.053,-0.016l-0.053,-0.015l-0.053,-0.015l-0.054,-0.014l-0.054,-0.013l-0.054,-0.013l-0.054,-0.012l-0.055,-0.012l-0.054,-0.011l-0.055,-0.01l-0.055,-0.01l-0.056,-0.009l-0.055,-0.009l-0.056,-0.007l-0.056,-0.008l-0.056,-0.007l-0.056,-0.006l-0.057,-0.005l-0.056,-0.005l-0.057,-0.004l-0.057,-0.004l-0.058,-0.003l-0.057,-0.002l-0.058,-0.002l-0.058,-0.001l-0.059,0l-0.059,0Z"/></g></g><g id="emoji"><path d="M16,14c0,0 0,0 0,-0.001c0,-2.545 1.08,-4.971 2.973,-6.674c2.947,-2.653 7.027,-6.325 7.027,-6.325c0,0 0,4.538 0,7.5c0,1.574 -0.741,3.056 -2,4c-0.62,0.465 -1.241,0.931 -1.622,1.217c-0.249,0.186 -0.45,0.428 -0.589,0.705c-0.294,0.587 -0.789,1.578 -0.789,1.578" style="fill:#d0c1a4;"/><clipPath id="_clip2"><path d="M16,14c0,0 0,0 0,-0.001c0,-2.545 1.08,-4.971 2.973,-6.674c2.947,-2.653 7.027,-6.325 7.027,-6.325c0,0 0,4.538 0,7.5c0,1.574 -0.741,3.056 -2,4c-0.62,0.465 -1.241,0.931 -1.622,1.217c-0.249,0.186 -0.45,0.428 -0.589,0.705c-0.294,0.587 -0.789,1.578 -0.789,1.578"/></clipPath><g clip-path="url(#_clip2)"><path d="M21,16c0,0 0,0 0,0c-1.785,-2.975 -1.431,-6.765 0.874,-9.358c2.041,-2.296 4.126,-4.642 4.126,-4.642l-1,-3l-7,10l-3,7l6,0Z" style="fill:#a69068;"/></g><path d="M27,-0.197l0,8.701l-0.001,0.084l-0.002,0.089l-0.003,0.088l-0.004,0.088l-0.006,0.087l-0.007,0.088l-0.009,0.087l-0.009,0.087l-0.011,0.087l-0.012,0.086l-0.013,0.086l-0.015,0.086l-0.016,0.086l-0.017,0.085l-0.018,0.085l-0.02,0.084l-0.02,0.085l-0.022,0.083l-0.023,0.084l-0.024,0.083l-0.026,0.083l-0.026,0.082l-0.028,0.082l-0.029,0.081l-0.03,0.081l-0.031,0.08l-0.033,0.08l-0.033,0.08l-0.035,0.079l-0.036,0.078l-0.036,0.078l-0.038,0.077l-0.04,0.077l-0.04,0.076l-0.041,0.076l-0.042,0.075l-0.044,0.075l-0.044,0.073l-0.046,0.074l-0.047,0.072l-0.047,0.072l-0.049,0.071l-0.05,0.071l-0.051,0.07l-0.052,0.069l-0.053,0.069l-0.054,0.067l-0.055,0.068l-0.056,0.066l-0.057,0.065l-0.058,0.065l-0.059,0.064l-0.059,0.063l-0.061,0.063l-0.062,0.061l-0.063,0.061l-0.064,0.06l-0.065,0.059l-0.065,0.058l-0.067,0.057l-0.068,0.057l-0.068,0.055l-0.07,0.054l-0.067,0.052l-1.619,1.214l-0.029,0.023l-0.023,0.018l-0.022,0.019l-0.021,0.02l-0.021,0.02l-0.02,0.021l-0.019,0.021l-0.019,0.022l-0.018,0.022l-0.018,0.023l-0.017,0.024l-0.016,0.024l-0.015,0.024l-0.015,0.025l-0.014,0.026l-0.017,0.032l-1.233,2.466l-1.789,-0.895l1.24,-2.478l0.036,-0.071l0.043,-0.077l0.044,-0.074l0.047,-0.074l0.048,-0.072l0.051,-0.07l0.053,-0.069l0.054,-0.068l0.057,-0.065l0.058,-0.065l0.061,-0.062l0.062,-0.061l0.064,-0.059l0.065,-0.057l0.068,-0.055l0.063,-0.049l1.625,-1.219l0.05,-0.038l0.046,-0.036l0.046,-0.037l0.045,-0.038l0.044,-0.038l0.044,-0.039l0.043,-0.039l0.043,-0.04l0.042,-0.04l0.041,-0.041l0.041,-0.042l0.04,-0.042l0.039,-0.043l0.039,-0.043l0.038,-0.043l0.037,-0.045l0.037,-0.044l0.035,-0.045l0.036,-0.046l0.034,-0.046l0.034,-0.047l0.033,-0.047l0.033,-0.047l0.032,-0.048l0.031,-0.049l0.03,-0.049l0.03,-0.049l0.029,-0.05l0.028,-0.05l0.028,-0.05l0.027,-0.051l0.026,-0.051l0.025,-0.052l0.025,-0.052l0.023,-0.052l0.024,-0.053l0.022,-0.053l0.021,-0.053l0.021,-0.053l0.02,-0.054l0.02,-0.055l0.018,-0.054l0.018,-0.055l0.017,-0.055l0.016,-0.056l0.015,-0.055l0.015,-0.056l0.014,-0.056l0.013,-0.056l0.012,-0.057l0.011,-0.057l0.011,-0.057l0.009,-0.057l0.009,-0.058l0.008,-0.057l0.008,-0.058l0.006,-0.058l0.005,-0.058l0.005,-0.058l0.004,-0.059l0.003,-0.058l0.002,-0.059l0.002,-0.059l0,-0.063l0,-5.251l-5.356,4.821l-0.081,0.073l-0.077,0.073l-0.076,0.073l-0.075,0.074l-0.074,0.075l-0.073,0.076l-0.072,0.077l-0.071,0.078l-0.069,0.078l-0.069,0.079l-0.067,0.08l-0.067,0.081l-0.065,0.082l-0.064,0.083l-0.063,0.083l-0.061,0.084l-0.061,0.085l-0.06,0.085l-0.058,0.087l-0.057,0.086l-0.056,0.088l-0.055,0.088l-0.054,0.089l-0.052,0.09l-0.051,0.09l-0.05,0.091l-0.049,0.092l-0.048,0.092l-0.047,0.093l-0.045,0.093l-0.044,0.094l-0.043,0.095l-0.041,0.095l-0.041,0.095l-0.039,0.097l-0.038,0.096l-0.036,0.097l-0.036,0.098l-0.034,0.098l-0.033,0.099l-0.031,0.098l-0.03,0.1l-0.029,0.1l-0.028,0.1l-0.026,0.101l-0.025,0.101l-0.024,0.101l-0.023,0.102l-0.021,0.102l-0.02,0.103l-0.018,0.102l-0.017,0.104l-0.016,0.103l-0.015,0.104l-0.013,0.104l-0.011,0.104l-0.011,0.105l-0.009,0.104l-0.008,0.105l-0.006,0.106l-0.005,0.105l-0.003,0.106l-0.002,0.105l-0.001,0.11l0,0.997l-2,0l0,-1.004l0.001,-0.129l0.002,-0.132l0.005,-0.133l0.006,-0.131l0.008,-0.132l0.009,-0.131l0.012,-0.131l0.013,-0.131l0.014,-0.13l0.017,-0.131l0.018,-0.129l0.02,-0.13l0.021,-0.129l0.023,-0.128l0.025,-0.128l0.026,-0.128l0.029,-0.127l0.029,-0.127l0.032,-0.127l0.033,-0.126l0.034,-0.125l0.037,-0.125l0.037,-0.124l0.04,-0.124l0.041,-0.123l0.043,-0.123l0.044,-0.122l0.046,-0.121l0.047,-0.121l0.049,-0.121l0.05,-0.119l0.052,-0.119l0.054,-0.118l0.055,-0.118l0.057,-0.116l0.058,-0.116l0.059,-0.116l0.061,-0.114l0.063,-0.114l0.064,-0.113l0.066,-0.112l0.067,-0.111l0.069,-0.111l0.07,-0.109l0.071,-0.109l0.073,-0.108l0.074,-0.107l0.076,-0.106l0.078,-0.105l0.078,-0.104l0.08,-0.104l0.082,-0.102l0.083,-0.101l0.084,-0.1l0.086,-0.1l0.087,-0.098l0.089,-0.097l0.089,-0.096l0.092,-0.095l0.092,-0.094l0.094,-0.092l0.095,-0.092l0.097,-0.09l0.095,-0.088l7.92,-7.127l0.779,0.347Z"/><path d="M16,14c0,0 0,0 0,-0.001c0,-2.545 -1.08,-4.971 -2.973,-6.674c-2.947,-2.653 -7.027,-6.325 -7.027,-6.325c0,0 0,4.538 0,7.5c0,1.574 0.741,3.056 2,4c0.62,0.465 1.241,0.931 1.622,1.217c0.249,0.186 0.45,0.428 0.589,0.705c0.294,0.587 0.789,1.578 0.789,1.578" style="fill:#d0c1a4;"/><clipPath id="_clip3"><path d="M16,14c0,0 0,0 0,-0.001c0,-2.545 -1.08,-4.971 -2.973,-6.674c-2.947,-2.653 -7.027,-6.325 -7.027,-6.325c0,0 0,4.538 0,7.5c0,1.574 0.741,3.056 2,4c0.62,0.465 1.241,0.931 1.622,1.217c0.249,0.186 0.45,0.428 0.589,0.705c0.294,0.587 0.789,1.578 0.789,1.578"/></clipPath><g clip-path="url(#_clip3)"><path d="M11,16c0,0 0,0 0,0c1.785,-2.975 1.431,-6.765 -0.874,-9.358c-2.041,-2.296 -4.126,-4.642 -4.126,-4.642l1,-3l7,10l3,7l-6,0Z" style="fill:#a69068;"/></g><path d="M13.699,6.583l0.095,0.088l0.097,0.09l0.095,0.092l0.094,0.092l0.092,0.094l0.092,0.095l0.089,0.096l0.089,0.097l0.087,0.098l0.086,0.1l0.084,0.1l0.083,0.101l0.082,0.102l0.08,0.104l0.078,0.104l0.078,0.105l0.076,0.106l0.074,0.107l0.073,0.108l0.071,0.109l0.07,0.109l0.069,0.111l0.067,0.111l0.066,0.112l0.064,0.113l0.063,0.114l0.061,0.114l0.059,0.116l0.058,0.116l0.057,0.116l0.055,0.118l0.054,0.118l0.052,0.119l0.05,0.119l0.049,0.121l0.047,0.121l0.046,0.121l0.044,0.122l0.043,0.123l0.041,0.123l0.04,0.124l0.037,0.124l0.037,0.125l0.034,0.125l0.033,0.126l0.032,0.127l0.029,0.127l0.029,0.127l0.026,0.128l0.025,0.128l0.023,0.128l0.021,0.129l0.02,0.13l0.018,0.129l0.017,0.131l0.014,0.13l0.013,0.131l0.012,0.131l0.009,0.131l0.008,0.132l0.006,0.131l0.005,0.133l0.002,0.132l0.001,0.129l0,1.004l-2,0l0,-0.997l-0.001,-0.11l-0.002,-0.105l-0.003,-0.106l-0.005,-0.105l-0.006,-0.106l-0.008,-0.105l-0.009,-0.104l-0.011,-0.105l-0.011,-0.104l-0.013,-0.104l-0.015,-0.104l-0.016,-0.103l-0.017,-0.104l-0.018,-0.102l-0.02,-0.103l-0.021,-0.102l-0.023,-0.102l-0.024,-0.101l-0.025,-0.101l-0.026,-0.101l-0.028,-0.1l-0.029,-0.1l-0.03,-0.1l-0.031,-0.098l-0.033,-0.099l-0.034,-0.098l-0.036,-0.098l-0.036,-0.097l-0.038,-0.096l-0.039,-0.097l-0.041,-0.095l-0.041,-0.095l-0.043,-0.095l-0.044,-0.094l-0.045,-0.093l-0.047,-0.093l-0.048,-0.092l-0.049,-0.092l-0.05,-0.091l-0.051,-0.09l-0.052,-0.09l-0.054,-0.089l-0.055,-0.088l-0.056,-0.088l-0.057,-0.086l-0.058,-0.087l-0.06,-0.085l-0.061,-0.085l-0.061,-0.084l-0.063,-0.083l-0.064,-0.083l-0.065,-0.082l-0.067,-0.081l-0.067,-0.08l-0.069,-0.079l-0.069,-0.079l-0.071,-0.077l-0.072,-0.077l-0.073,-0.076l-0.074,-0.075l-0.075,-0.074l-0.076,-0.073l-0.077,-0.073l-0.081,-0.073l-5.356,-4.821l0,5.251l0,0.063l0.002,0.059l0.002,0.059l0.003,0.058l0.004,0.059l0.005,0.058l0.005,0.058l0.006,0.058l0.008,0.058l0.008,0.058l0.009,0.057l0.009,0.057l0.011,0.057l0.011,0.057l0.012,0.057l0.013,0.056l0.014,0.056l0.015,0.056l0.015,0.055l0.016,0.056l0.017,0.055l0.018,0.055l0.018,0.054l0.02,0.055l0.02,0.053l0.021,0.054l0.021,0.053l0.022,0.053l0.024,0.053l0.023,0.052l0.025,0.052l0.025,0.052l0.026,0.051l0.027,0.051l0.028,0.05l0.028,0.05l0.029,0.05l0.03,0.049l0.03,0.049l0.031,0.049l0.032,0.048l0.033,0.047l0.033,0.047l0.034,0.047l0.034,0.046l0.036,0.046l0.035,0.045l0.037,0.044l0.037,0.045l0.038,0.043l0.039,0.043l0.039,0.043l0.04,0.042l0.041,0.042l0.041,0.041l0.042,0.04l0.043,0.04l0.043,0.039l0.044,0.039l0.044,0.038l0.045,0.038l0.046,0.037l0.046,0.036l0.05,0.038l1.625,1.219l0.063,0.049l0.068,0.055l0.065,0.057l0.064,0.059l0.062,0.061l0.061,0.062l0.058,0.065l0.057,0.065l0.054,0.068l0.053,0.069l0.051,0.07l0.048,0.072l0.047,0.074l0.044,0.074l0.043,0.077l0.036,0.071l1.24,2.478l-1.789,0.895l-1.233,-2.466l-0.017,-0.032l-0.014,-0.026l-0.015,-0.025l-0.015,-0.024l-0.016,-0.024l-0.017,-0.024l-0.018,-0.022l-0.018,-0.023l-0.019,-0.022l-0.019,-0.021l-0.02,-0.021l-0.021,-0.02l-0.021,-0.02l-0.022,-0.019l-0.023,-0.018l-0.029,-0.023l-1.619,-1.214l-0.067,-0.052l-0.07,-0.054l-0.068,-0.055l-0.068,-0.057l-0.067,-0.057l-0.065,-0.058l-0.065,-0.059l-0.064,-0.06l-0.063,-0.061l-0.062,-0.061l-0.061,-0.063l-0.06,-0.063l-0.058,-0.064l-0.058,-0.065l-0.057,-0.065l-0.056,-0.066l-0.055,-0.068l-0.054,-0.067l-0.053,-0.069l-0.052,-0.069l-0.051,-0.07l-0.05,-0.071l-0.049,-0.071l-0.047,-0.072l-0.047,-0.072l-0.046,-0.074l-0.044,-0.073l-0.044,-0.075l-0.042,-0.075l-0.041,-0.076l-0.04,-0.076l-0.04,-0.077l-0.038,-0.077l-0.036,-0.078l-0.036,-0.078l-0.035,-0.079l-0.033,-0.08l-0.033,-0.08l-0.031,-0.08l-0.03,-0.081l-0.029,-0.081l-0.028,-0.082l-0.026,-0.082l-0.026,-0.083l-0.024,-0.083l-0.023,-0.084l-0.022,-0.083l-0.02,-0.085l-0.02,-0.084l-0.018,-0.085l-0.017,-0.085l-0.016,-0.086l-0.015,-0.086l-0.013,-0.086l-0.012,-0.086l-0.011,-0.087l-0.009,-0.087l-0.009,-0.087l-0.007,-0.088l-0.006,-0.087l-0.004,-0.088l-0.003,-0.088l-0.002,-0.089l-0.001,-0.084l0,-8.701l0.779,-0.347l7.92,7.127Z"/><path d="M15.999,12c-3.451,0 -6.386,2.518 -6.911,5.929c-0.215,1.396 -0.435,2.827 -0.621,4.034c-0.298,1.935 0.229,3.907 1.453,5.437c0.299,0.374 0.602,0.752 0.879,1.099c0.759,0.949 1.908,1.501 3.123,1.501c1.259,0 2.897,0 4.156,0c1.215,0 2.364,-0.552 3.123,-1.501c0.277,-0.347 0.58,-0.725 0.879,-1.099c1.224,-1.53 1.751,-3.502 1.453,-5.437c-0.186,-1.207 -0.406,-2.638 -0.621,-4.034c-0.525,-3.411 -3.46,-5.929 -6.911,-5.929c-0.001,0 -0.001,0 -0.002,0Z" style="fill:#a69068;"/><path d="M18.598,27.01l0.031,0.007l0.03,0.009l0.029,0.011l0.029,0.012l0.028,0.015l0.027,0.016l0.025,0.018l0.025,0.02l0.024,0.021l0.022,0.022l0.02,0.024l0.019,0.025l0.018,0.026l0.015,0.027l0.014,0.028l0.013,0.029l0.01,0.03l0.008,0.03l0.007,0.031l0.005,0.031l0.002,0.031l0.001,0.031l-0.001,0.032l-0.004,0.031l-0.005,0.031l-0.007,0.031l-0.009,0.03l-0.011,0.029l-0.012,0.029l-0.015,0.028l-0.016,0.027l-0.018,0.025l-0.02,0.025l-0.021,0.024l-0.022,0.022l-0.024,0.02l-0.025,0.019l-0.026,0.018l-0.027,0.015l-0.028,0.014l-0.029,0.013l-0.03,0.01l-0.03,0.008l-0.031,0.007l-0.031,0.005l-0.031,0.002l-0.031,0.001l-0.032,-0.001l-0.031,-0.004l-0.031,-0.005l-2.402,-0.48l-2.402,0.48l-0.031,0.005l-0.031,0.004l-0.032,0.001l-0.031,-0.001l-0.031,-0.002l-0.031,-0.005l-0.031,-0.007l-0.03,-0.008l-0.03,-0.01l-0.029,-0.013l-0.028,-0.014l-0.027,-0.015l-0.026,-0.018l-0.025,-0.019l-0.024,-0.02l-0.022,-0.022l-0.021,-0.024l-0.02,-0.025l-0.018,-0.025l-0.016,-0.027l-0.015,-0.028l-0.012,-0.029l-0.011,-0.029l-0.009,-0.03l-0.007,-0.031l-0.005,-0.031l-0.004,-0.031l-0.001,-0.032l0.001,-0.031l0.002,-0.031l0.005,-0.031l0.007,-0.031l0.008,-0.03l0.01,-0.03l0.013,-0.029l0.014,-0.028l0.015,-0.027l0.018,-0.026l0.019,-0.025l0.02,-0.024l0.022,-0.022l0.024,-0.021l0.025,-0.02l0.025,-0.018l0.027,-0.016l0.028,-0.015l0.029,-0.012l0.029,-0.011l0.03,-0.009l0.031,-0.007l2.598,-0.52l2.598,0.52Z" style="fill:#57422d;"/><path d="M18.544,23.502l0.031,0.004l0.031,0.005l0.03,0.008l0.03,0.009l0.03,0.012l0.028,0.013l0.028,0.015l0.026,0.017l0.026,0.018l0.024,0.02l0.023,0.021l0.022,0.023l0.02,0.024l0.019,0.025l0.017,0.027l0.015,0.027l0.014,0.029l0.011,0.029l0.01,0.029l0.008,0.031l0.006,0.031l0.004,0.031l0.003,0.031l0,0.032l-0.002,0.031l-0.004,0.031l-0.005,0.031l-0.008,0.03l-0.009,0.03l-0.012,0.03l-0.013,0.028l-0.015,0.028l-0.017,0.026l-0.018,0.026l-0.02,0.024l-0.021,0.023l-0.023,0.022l-0.024,0.02l-0.025,0.019l-0.027,0.017l-2.757,1.654l-2.757,-1.654l-0.027,-0.017l-0.025,-0.019l-0.024,-0.02l-0.023,-0.022l-0.021,-0.023l-0.02,-0.024l-0.018,-0.026l-0.017,-0.026l-0.015,-0.028l-0.013,-0.028l-0.012,-0.03l-0.009,-0.03l-0.008,-0.03l-0.005,-0.031l-0.004,-0.031l-0.002,-0.031l0,-0.032l0.003,-0.031l0.004,-0.031l0.006,-0.031l0.008,-0.031l0.01,-0.029l0.011,-0.029l0.014,-0.029l0.015,-0.027l0.017,-0.027l0.019,-0.025l0.02,-0.024l0.022,-0.023l0.023,-0.021l0.024,-0.02l0.026,-0.018l0.026,-0.017l0.028,-0.015l0.028,-0.013l0.03,-0.012l0.03,-0.009l0.03,-0.008l0.031,-0.005l0.031,-0.004l0.031,-0.002l0.032,0l0.031,0.003l0.031,0.004l0.031,0.006l0.031,0.008l0.029,0.01l0.029,0.011l0.029,0.014l0.027,0.015l2.243,1.346l2.243,-1.346l0.027,-0.015l0.029,-0.014l0.029,-0.011l0.029,-0.01l0.031,-0.008l0.031,-0.006l0.031,-0.004l0.031,-0.003l0.032,0l0.031,0.002Z" style="fill:#57422d;"/><path d="M11,18c0.53,0 1.039,0.211 1.414,0.586c0.375,0.375 0.586,0.884 0.586,1.414c0,1 0,2 0,2c0,0 -0.709,-0.236 -1.438,-0.479c-0.933,-0.311 -1.562,-1.184 -1.562,-2.168c0,-0.12 0,-0.239 0,-0.353c0,-0.552 0.448,-1 1,-1c0,0 0,0 0,0Z"/><path d="M21,18c-0.53,0 -1.039,0.211 -1.414,0.586c-0.375,0.375 -0.586,0.884 -0.586,1.414c0,1 0,2 0,2c0,0 0.709,-0.236 1.438,-0.479c0.933,-0.311 1.562,-1.184 1.562,-2.168c0,-0.12 0,-0.239 0,-0.353c0,-0.552 -0.448,-1 -1,-1c0,0 0,0 0,0Z"/></g></g></svg>