<?xml version="1.0" encoding="UTF-8" standalone="no"?><!DOCTYPE svg PUBLIC "-//W3C//DTD SVG 1.1//EN" "http://www.w3.org/Graphics/SVG/1.1/DTD/svg11.dtd"><svg width="100%" height="100%" viewBox="0 0 32 32" version="1.1" xmlns="http://www.w3.org/2000/svg" xmlns:xlink="http://www.w3.org/1999/xlink" xml:space="preserve" xmlns:serif="http://www.serif.com/" style="fill-rule:evenodd;clip-rule:evenodd;stroke-linecap:round;"><rect id="red_panda" x="0" y="0" width="32" height="32" style="fill:none;"/><clipPath id="_clip1"><rect x="0" y="0" width="32" height="32"/></clipPath><g clip-path="url(#_clip1)"><g id="outline"><path d="M23.949,10.897c-0.247,-0.492 -0.279,-1.065 -0.09,-1.582c0.19,-0.517 0.584,-0.934 1.091,-1.151c1.144,-0.49 2.566,-1.099 3.609,-1.547c0.272,-0.116 0.586,-0.068 0.811,0.123c0.225,0.192 0.321,0.494 0.25,0.781c-0.395,1.579 -1.003,4.011 -1.351,5.402c-0.174,0.695 -0.093,1.429 0.227,2.07c0.067,0.133 0.138,0.274 0.211,0.42c0.216,0.433 0.151,0.955 -0.167,1.321c-0.317,0.366 -0.824,0.505 -1.284,0.351c-0.001,0 -0.002,0 -0.003,-0.001c-0.162,-0.054 -0.296,-0.17 -0.372,-0.322c-0.43,-0.86 -1.928,-3.856 -2.932,-5.865Z" style="fill:#c3c3c3;stroke:#000;stroke-width:4px;"/><path d="M8.051,10.897c0.247,-0.492 0.279,-1.065 0.09,-1.582c-0.19,-0.517 -0.584,-0.934 -1.091,-1.151c-1.144,-0.49 -2.566,-1.099 -3.609,-1.547c-0.272,-0.116 -0.586,-0.068 -0.811,0.123c-0.225,0.192 -0.321,0.494 -0.25,0.781c0.395,1.579 1.003,4.011 1.351,5.402c0.174,0.695 0.093,1.429 -0.227,2.07c-0.067,0.133 -0.138,0.274 -0.211,0.42c-0.216,0.433 -0.151,0.955 0.167,1.321c0.317,0.366 0.824,0.505 1.284,0.351c0.001,0 0.002,0 0.003,-0.001c0.162,-0.054 0.296,-0.17 0.372,-0.322c0.43,-0.86 1.928,-3.856 2.932,-5.865Z" style="fill:#c3c3c3;stroke:#000;stroke-width:4px;"/><path d="M14.755,6c-5.012,0 -9.25,3.71 -9.912,8.678c-0.093,0.695 -0.183,1.375 -0.269,2.017c-0.358,2.685 0.667,5.369 2.723,7.131c0.699,0.6 1.409,1.208 2.018,1.73c1.087,0.932 2.472,1.444 3.905,1.444c1.655,0 3.905,0 5.56,0c1.433,0 2.818,-0.512 3.905,-1.444c0.609,-0.522 1.319,-1.13 2.018,-1.73c2.056,-1.762 3.081,-4.446 2.723,-7.131c-0.086,-0.642 -0.176,-1.322 -0.269,-2.017c-0.662,-4.968 -4.9,-8.678 -9.912,-8.678c-0.826,0 -1.664,0 -2.49,0Z"/><path d="M17.385,4.001l0.14,0.002l0.14,0.004l0.14,0.006l0.139,0.007l0.139,0.009l0.138,0.01l0.138,0.012l0.138,0.014l0.137,0.015l0.137,0.017l0.137,0.018l0.135,0.02l0.136,0.021l0.135,0.023l0.135,0.024l0.134,0.026l0.134,0.027l0.133,0.029l0.132,0.03l0.132,0.032l0.132,0.033l0.131,0.034l0.13,0.036l0.13,0.038l0.13,0.039l0.128,0.04l0.128,0.042l0.128,0.043l0.127,0.044l0.126,0.046l0.125,0.047l0.125,0.049l0.125,0.05l0.123,0.051l0.123,0.053l0.122,0.054l0.122,0.055l0.12,0.056l0.12,0.058l0.12,0.059l0.118,0.061l0.118,0.062l0.117,0.062l0.117,0.065l0.115,0.065l0.115,0.067l0.114,0.068l0.113,0.069l0.112,0.07l0.112,0.072l0.11,0.073l0.11,0.074l0.109,0.075l0.108,0.076l0.107,0.078l0.107,0.078l0.105,0.08l0.105,0.081l0.103,0.082l0.103,0.083l0.102,0.084l0.101,0.086l0.1,0.086l0.098,0.088l0.098,0.089l0.097,0.089l0.097,0.091l0.095,0.092l0.094,0.093l0.093,0.094l0.091,0.095l0.092,0.096l0.09,0.097l0.088,0.098l0.088,0.099l0.087,0.1l0.086,0.101l0.084,0.102l0.084,0.103l0.082,0.104l0.081,0.105l0.081,0.106l0.079,0.107l0.077,0.107l0.077,0.109l0.076,0.11l0.074,0.11l0.073,0.111l0.072,0.113l0.071,0.113l0.07,0.114l0.068,0.115l0.067,0.115l0.066,0.117l0.065,0.117l0.063,0.119l0.062,0.119l0.061,0.119l0.06,0.121l0.058,0.122l0.057,0.122l0.056,0.123l0.054,0.124l0.053,0.124l0.052,0.126l0.05,0.125l0.049,0.127l0.047,0.128l0.046,0.128l0.045,0.129l0.043,0.129l0.042,0.13l0.04,0.131l0.039,0.132l0.038,0.132l0.036,0.133l0.035,0.133l0.033,0.134l0.031,0.135l0.03,0.135l0.029,0.136l0.027,0.137l0.026,0.137l0.024,0.137l0.022,0.138l0.021,0.139l0.019,0.133l0.271,2.031l0.018,0.149l0.017,0.157l0.015,0.157l0.012,0.157l0.01,0.157l0.007,0.157l0.005,0.157l0.002,0.157l0,0.156l-0.003,0.156l-0.005,0.156l-0.007,0.156l-0.01,0.155l-0.012,0.155l-0.015,0.154l-0.017,0.155l-0.02,0.153l-0.021,0.154l-0.025,0.152l-0.026,0.153l-0.029,0.152l-0.031,0.151l-0.033,0.15l-0.036,0.15l-0.038,0.15l-0.041,0.148l-0.042,0.148l-0.045,0.147l-0.047,0.147l-0.05,0.146l-0.051,0.145l-0.054,0.144l-0.056,0.143l-0.058,0.143l-0.06,0.141l-0.063,0.141l-0.065,0.14l-0.067,0.138l-0.069,0.138l-0.071,0.137l-0.073,0.136l-0.076,0.134l-0.077,0.133l-0.08,0.133l-0.082,0.131l-0.084,0.13l-0.085,0.129l-0.088,0.127l-0.091,0.127l-0.092,0.125l-0.094,0.123l-0.096,0.123l-0.098,0.121l-0.1,0.119l-0.102,0.118l-0.104,0.117l-0.106,0.115l-0.108,0.114l-0.11,0.112l-0.112,0.111l-0.114,0.109l-0.116,0.107l-0.117,0.106l-0.114,0.099l-2.032,1.741l-0.128,0.108l-0.14,0.112l-0.141,0.108l-0.144,0.105l-0.146,0.101l-0.147,0.098l-0.15,0.095l-0.152,0.091l-0.153,0.088l-0.156,0.085l-0.157,0.08l-0.158,0.078l-0.16,0.073l-0.162,0.071l-0.163,0.066l-0.165,0.063l-0.166,0.06l-0.167,0.055l-0.169,0.052l-0.169,0.048l-0.171,0.045l-0.172,0.041l-0.173,0.037l-0.173,0.033l-0.175,0.029l-0.175,0.026l-0.176,0.022l-0.177,0.017l-0.177,0.014l-0.178,0.01l-0.179,0.006l-0.167,0.002l-5.584,0l-0.167,-0.002l-0.179,-0.006l-0.178,-0.01l-0.177,-0.014l-0.177,-0.017l-0.176,-0.022l-0.175,-0.026l-0.175,-0.029l-0.173,-0.033l-0.173,-0.037l-0.172,-0.041l-0.171,-0.045l-0.169,-0.048l-0.169,-0.052l-0.167,-0.055l-0.166,-0.06l-0.165,-0.063l-0.163,-0.066l-0.162,-0.071l-0.16,-0.073l-0.158,-0.078l-0.157,-0.08l-0.156,-0.085l-0.153,-0.088l-0.152,-0.091l-0.15,-0.095l-0.147,-0.098l-0.146,-0.101l-0.144,-0.105l-0.141,-0.108l-0.14,-0.112l-0.128,-0.108l-2.032,-1.741l-0.114,-0.099l-0.117,-0.106l-0.116,-0.107l-0.114,-0.109l-0.112,-0.111l-0.11,-0.112l-0.108,-0.114l-0.106,-0.115l-0.104,-0.117l-0.102,-0.118l-0.1,-0.119l-0.098,-0.121l-0.096,-0.123l-0.094,-0.123l-0.092,-0.125l-0.091,-0.127l-0.088,-0.127l-0.085,-0.129l-0.084,-0.13l-0.082,-0.131l-0.08,-0.133l-0.077,-0.133l-0.076,-0.134l-0.073,-0.136l-0.071,-0.137l-0.069,-0.138l-0.067,-0.138l-0.065,-0.14l-0.063,-0.141l-0.06,-0.141l-0.058,-0.143l-0.056,-0.143l-0.054,-0.144l-0.052,-0.145l-0.049,-0.146l-0.047,-0.146l-0.045,-0.148l-0.042,-0.148l-0.041,-0.148l-0.038,-0.15l-0.036,-0.15l-0.033,-0.15l-0.031,-0.151l-0.029,-0.152l-0.026,-0.153l-0.025,-0.152l-0.021,-0.154l-0.02,-0.153l-0.017,-0.155l-0.015,-0.154l-0.012,-0.155l-0.01,-0.155l-0.007,-0.156l-0.005,-0.156l-0.003,-0.156l0,-0.156l0.002,-0.157l0.005,-0.157l0.007,-0.157l0.01,-0.157l0.012,-0.157l0.015,-0.157l0.017,-0.157l0.018,-0.149l0.271,-2.031l0.019,-0.133l0.021,-0.139l0.022,-0.138l0.024,-0.137l0.026,-0.137l0.027,-0.137l0.029,-0.136l0.03,-0.135l0.031,-0.135l0.033,-0.134l0.035,-0.133l0.036,-0.133l0.038,-0.132l0.039,-0.132l0.04,-0.131l0.042,-0.13l0.043,-0.129l0.045,-0.129l0.046,-0.128l0.047,-0.128l0.049,-0.127l0.05,-0.126l0.052,-0.125l0.053,-0.124l0.054,-0.124l0.056,-0.123l0.057,-0.122l0.058,-0.122l0.06,-0.121l0.061,-0.119l0.062,-0.119l0.063,-0.119l0.065,-0.117l0.066,-0.117l0.067,-0.115l0.068,-0.115l0.07,-0.114l0.071,-0.113l0.072,-0.112l0.073,-0.112l0.074,-0.11l0.076,-0.11l0.077,-0.109l0.077,-0.107l0.079,-0.107l0.081,-0.106l0.081,-0.105l0.082,-0.104l0.084,-0.103l0.084,-0.102l0.086,-0.101l0.087,-0.1l0.088,-0.099l0.088,-0.098l0.09,-0.097l0.091,-0.096l0.092,-0.095l0.093,-0.094l0.094,-0.093l0.095,-0.092l0.097,-0.091l0.097,-0.089l0.098,-0.089l0.098,-0.088l0.1,-0.086l0.101,-0.086l0.102,-0.084l0.103,-0.083l0.103,-0.082l0.105,-0.081l0.105,-0.08l0.107,-0.078l0.107,-0.078l0.108,-0.076l0.109,-0.075l0.11,-0.074l0.11,-0.073l0.112,-0.072l0.112,-0.07l0.113,-0.069l0.114,-0.068l0.115,-0.067l0.115,-0.065l0.117,-0.065l0.117,-0.062l0.118,-0.062l0.118,-0.061l0.12,-0.059l0.12,-0.058l0.12,-0.056l0.122,-0.055l0.122,-0.054l0.123,-0.053l0.123,-0.051l0.125,-0.05l0.125,-0.049l0.125,-0.047l0.126,-0.046l0.127,-0.044l0.128,-0.043l0.128,-0.042l0.128,-0.04l0.13,-0.039l0.13,-0.038l0.13,-0.036l0.131,-0.034l0.132,-0.033l0.132,-0.032l0.132,-0.03l0.133,-0.029l0.134,-0.027l0.134,-0.026l0.135,-0.024l0.135,-0.023l0.135,-0.021l0.136,-0.02l0.137,-0.018l0.137,-0.017l0.137,-0.015l0.138,-0.014l0.138,-0.012l0.138,-0.01l0.139,-0.009l0.139,-0.007l0.14,-0.006l0.14,-0.004l0.14,-0.002l0.134,-0.001l2.502,0l0.134,0.001Zm-2.624,3.999l-0.1,0.001l-0.094,0.001l-0.094,0.003l-0.093,0.004l-0.093,0.005l-0.093,0.005l-0.092,0.007l-0.092,0.008l-0.092,0.009l-0.092,0.011l-0.091,0.011l-0.091,0.012l-0.091,0.013l-0.09,0.014l-0.09,0.015l-0.089,0.016l-0.09,0.018l-0.089,0.018l-0.088,0.019l-0.088,0.02l-0.088,0.021l-0.088,0.022l-0.087,0.023l-0.087,0.024l-0.086,0.025l-0.086,0.026l-0.086,0.027l-0.085,0.027l-0.085,0.029l-0.084,0.03l-0.084,0.03l-0.083,0.031l-0.084,0.033l-0.082,0.033l-0.083,0.034l-0.081,0.035l-0.082,0.036l-0.081,0.037l-0.08,0.038l-0.08,0.038l-0.08,0.039l-0.079,0.041l-0.078,0.041l-0.078,0.042l-0.078,0.043l-0.077,0.043l-0.076,0.045l-0.076,0.045l-0.076,0.046l-0.075,0.047l-0.074,0.048l-0.074,0.048l-0.073,0.05l-0.073,0.05l-0.072,0.051l-0.072,0.052l-0.071,0.052l-0.07,0.053l-0.07,0.055l-0.069,0.054l-0.069,0.056l-0.068,0.056l-0.067,0.057l-0.067,0.058l-0.066,0.059l-0.065,0.059l-0.065,0.06l-0.064,0.06l-0.063,0.062l-0.063,0.062l-0.062,0.062l-0.062,0.064l-0.061,0.064l-0.06,0.065l-0.059,0.065l-0.059,0.066l-0.057,0.067l-0.058,0.067l-0.056,0.068l-0.056,0.069l-0.055,0.07l-0.054,0.07l-0.053,0.07l-0.053,0.071l-0.052,0.072l-0.051,0.073l-0.051,0.073l-0.049,0.073l-0.049,0.074l-0.048,0.075l-0.047,0.075l-0.046,0.076l-0.046,0.077l-0.044,0.077l-0.044,0.077l-0.043,0.079l-0.043,0.078l-0.041,0.079l-0.04,0.08l-0.04,0.08l-0.039,0.081l-0.038,0.081l-0.037,0.082l-0.036,0.083l-0.035,0.083l-0.034,0.083l-0.034,0.084l-0.032,0.084l-0.032,0.085l-0.03,0.085l-0.03,0.086l-0.029,0.086l-0.028,0.087l-0.027,0.087l-0.026,0.087l-0.025,0.088l-0.024,0.089l-0.023,0.089l-0.022,0.089l-0.021,0.09l-0.02,0.091l-0.019,0.09l-0.018,0.091l-0.017,0.092l-0.017,0.092l-0.015,0.092l-0.014,0.093l-0.013,0.099l-0.267,2.003l-0.013,0.103l-0.011,0.094l-0.008,0.095l-0.008,0.094l-0.006,0.094l-0.004,0.094l-0.003,0.094l-0.001,0.094l0,0.094l0.002,0.094l0.003,0.093l0.004,0.094l0.006,0.093l0.007,0.092l0.009,0.093l0.01,0.093l0.012,0.092l0.013,0.092l0.015,0.091l0.016,0.092l0.017,0.091l0.019,0.09l0.02,0.091l0.021,0.09l0.023,0.089l0.024,0.09l0.026,0.089l0.027,0.088l0.028,0.088l0.029,0.087l0.031,0.087l0.033,0.087l0.033,0.086l0.035,0.085l0.037,0.086l0.037,0.084l0.039,0.084l0.04,0.083l0.042,0.083l0.042,0.082l0.044,0.081l0.046,0.081l0.046,0.08l0.048,0.079l0.049,0.079l0.05,0.078l0.052,0.077l0.053,0.077l0.053,0.075l0.056,0.075l0.056,0.075l0.058,0.073l0.059,0.072l0.06,0.072l0.061,0.071l0.062,0.07l0.064,0.069l0.065,0.068l0.066,0.068l0.067,0.066l0.068,0.065l0.07,0.065l0.07,0.063l0.078,0.068l2.003,1.717l0.077,0.064l0.07,0.056l0.07,0.054l0.072,0.053l0.073,0.05l0.074,0.05l0.075,0.047l0.076,0.046l0.077,0.043l0.077,0.043l0.079,0.04l0.079,0.039l0.08,0.037l0.081,0.035l0.081,0.033l0.083,0.031l0.083,0.03l0.083,0.028l0.085,0.026l0.085,0.024l0.085,0.022l0.086,0.021l0.086,0.018l0.087,0.017l0.087,0.014l0.088,0.013l0.088,0.011l0.088,0.009l0.089,0.007l0.089,0.005l0.089,0.003l0.101,0.001l5.538,0l0.101,-0.001l0.089,-0.003l0.089,-0.005l0.089,-0.007l0.088,-0.009l0.088,-0.011l0.088,-0.013l0.087,-0.014l0.087,-0.017l0.086,-0.018l0.086,-0.021l0.085,-0.022l0.085,-0.024l0.085,-0.026l0.083,-0.028l0.083,-0.03l0.082,-0.031l0.082,-0.033l0.081,-0.035l0.08,-0.037l0.079,-0.039l0.079,-0.04l0.078,-0.043l0.076,-0.043l0.076,-0.046l0.075,-0.047l0.074,-0.05l0.073,-0.05l0.072,-0.053l0.07,-0.054l0.07,-0.056l0.077,-0.064l2.003,-1.717l0.078,-0.068l0.07,-0.063l0.07,-0.065l0.068,-0.065l0.067,-0.067l0.066,-0.067l0.065,-0.068l0.064,-0.069l0.062,-0.07l0.061,-0.071l0.06,-0.072l0.059,-0.072l0.058,-0.073l0.056,-0.075l0.056,-0.075l0.053,-0.075l0.053,-0.077l0.052,-0.077l0.05,-0.078l0.049,-0.079l0.048,-0.079l0.046,-0.08l0.046,-0.081l0.044,-0.081l0.042,-0.082l0.042,-0.083l0.04,-0.083l0.039,-0.084l0.037,-0.084l0.037,-0.086l0.035,-0.085l0.033,-0.086l0.033,-0.087l0.031,-0.087l0.029,-0.087l0.028,-0.088l0.027,-0.089l0.026,-0.088l0.024,-0.09l0.023,-0.089l0.021,-0.09l0.02,-0.091l0.019,-0.09l0.017,-0.091l0.016,-0.092l0.015,-0.091l0.013,-0.092l0.012,-0.092l0.01,-0.093l0.009,-0.093l0.007,-0.092l0.006,-0.093l0.004,-0.094l0.003,-0.093l0.002,-0.094l0,-0.094l-0.001,-0.094l-0.003,-0.094l-0.004,-0.094l-0.006,-0.094l-0.008,-0.094l-0.008,-0.095l-0.011,-0.094l-0.012,-0.102l-0.268,-2.004l-0.013,-0.099l-0.014,-0.093l-0.015,-0.092l-0.017,-0.092l-0.017,-0.092l-0.018,-0.091l-0.019,-0.09l-0.02,-0.091l-0.021,-0.09l-0.022,-0.089l-0.023,-0.089l-0.024,-0.089l-0.025,-0.088l-0.026,-0.087l-0.027,-0.087l-0.028,-0.087l-0.029,-0.086l-0.03,-0.086l-0.03,-0.085l-0.032,-0.085l-0.032,-0.084l-0.034,-0.084l-0.034,-0.084l-0.035,-0.082l-0.036,-0.083l-0.037,-0.082l-0.038,-0.081l-0.039,-0.081l-0.04,-0.08l-0.04,-0.08l-0.041,-0.079l-0.043,-0.078l-0.043,-0.079l-0.043,-0.077l-0.045,-0.077l-0.046,-0.077l-0.046,-0.076l-0.047,-0.075l-0.048,-0.075l-0.049,-0.074l-0.049,-0.073l-0.051,-0.073l-0.051,-0.073l-0.052,-0.072l-0.053,-0.071l-0.053,-0.07l-0.054,-0.07l-0.055,-0.07l-0.056,-0.069l-0.056,-0.068l-0.058,-0.067l-0.057,-0.067l-0.059,-0.066l-0.059,-0.065l-0.06,-0.065l-0.061,-0.064l-0.062,-0.064l-0.062,-0.062l-0.063,-0.062l-0.063,-0.062l-0.064,-0.06l-0.065,-0.06l-0.065,-0.06l-0.066,-0.058l-0.067,-0.058l-0.067,-0.057l-0.068,-0.056l-0.069,-0.056l-0.069,-0.054l-0.07,-0.055l-0.07,-0.053l-0.071,-0.052l-0.072,-0.052l-0.072,-0.051l-0.073,-0.05l-0.073,-0.05l-0.074,-0.048l-0.074,-0.048l-0.075,-0.047l-0.076,-0.046l-0.076,-0.045l-0.076,-0.045l-0.077,-0.043l-0.078,-0.043l-0.078,-0.042l-0.078,-0.041l-0.079,-0.041l-0.08,-0.039l-0.08,-0.038l-0.08,-0.038l-0.081,-0.037l-0.082,-0.036l-0.081,-0.035l-0.083,-0.034l-0.082,-0.033l-0.084,-0.033l-0.083,-0.031l-0.084,-0.03l-0.084,-0.03l-0.085,-0.029l-0.085,-0.027l-0.086,-0.027l-0.086,-0.026l-0.086,-0.025l-0.087,-0.024l-0.087,-0.023l-0.088,-0.022l-0.088,-0.021l-0.088,-0.02l-0.088,-0.019l-0.089,-0.019l-0.09,-0.017l-0.089,-0.016l-0.09,-0.015l-0.09,-0.014l-0.091,-0.013l-0.091,-0.012l-0.091,-0.011l-0.092,-0.011l-0.092,-0.009l-0.092,-0.008l-0.092,-0.007l-0.093,-0.005l-0.093,-0.005l-0.093,-0.004l-0.094,-0.003l-0.094,-0.001l-0.1,-0.001l-2.478,0Z"/></g><g id="emoji"><path d="M14.755,6c-5.012,0 -9.25,3.71 -9.912,8.678c-0.093,0.695 -0.183,1.375 -0.269,2.017c-0.358,2.685 0.667,5.369 2.723,7.131c0.699,0.6 1.409,1.208 2.018,1.73c1.087,0.932 2.472,1.444 3.905,1.444c1.655,0 3.905,0 5.56,0c1.433,0 2.818,-0.512 3.905,-1.444c0.609,-0.522 1.319,-1.13 2.018,-1.73c2.056,-1.762 3.081,-4.446 2.723,-7.131c-0.086,-0.642 -0.176,-1.322 -0.269,-2.017c-0.662,-4.968 -4.9,-8.678 -9.912,-8.678c-0.826,0 -1.664,0 -2.49,0Z" style="fill:#c0744b;"/><clipPath id="_clip2"><path d="M14.755,6c-5.012,0 -9.25,3.71 -9.912,8.678c-0.093,0.695 -0.183,1.375 -0.269,2.017c-0.358,2.685 0.667,5.369 2.723,7.131c0.699,0.6 1.409,1.208 2.018,1.73c1.087,0.932 2.472,1.444 3.905,1.444c1.655,0 3.905,0 5.56,0c1.433,0 2.818,-0.512 3.905,-1.444c0.609,-0.522 1.319,-1.13 2.018,-1.73c2.056,-1.762 3.081,-4.446 2.723,-7.131c-0.086,-0.642 -0.176,-1.322 -0.269,-2.017c-0.662,-4.968 -4.9,-8.678 -9.912,-8.678c-0.826,0 -1.664,0 -2.49,0Z"/></clipPath><g clip-path="url(#_clip2)"><path d="M6.588,17.412c0.264,-0.264 0.621,-0.412 0.994,-0.412c0.001,0 0.001,0 0.002,0c0.782,0 1.416,0.634 1.416,1.416c0,0.001 0,0.001 0,0.002c0,0.373 -0.148,0.73 -0.412,0.994c-0.207,0.207 -0.466,0.466 -0.714,0.714c-0.536,0.536 -0.723,1.328 -0.483,2.047c0.582,1.746 1.609,4.827 1.609,4.827l-4,-2c0,0 0,-2.194 0,-3.929c0,-1.326 0.527,-2.598 1.464,-3.535c0.043,-0.043 0.085,-0.085 0.124,-0.124Z" style="fill:#e3e3e3;"/><path d="M25.412,17.412c-0.264,-0.264 -0.621,-0.412 -0.994,-0.412c-0.001,0 -0.001,0 -0.002,0c-0.782,0 -1.416,0.634 -1.416,1.416c0,0.001 0,0.001 0,0.002c0,0.373 0.148,0.73 0.412,0.994c0.207,0.207 0.466,0.466 0.714,0.714c0.536,0.536 0.723,1.328 0.483,2.047c-0.582,1.746 -1.609,4.827 -1.609,4.827l4,-2c0,0 0,-2.194 0,-3.929c0,-1.326 -0.527,-2.598 -1.464,-3.535c-0.043,-0.043 -0.085,-0.085 -0.124,-0.124Z" style="fill:#e3e3e3;"/></g><path d="M14,16l4,0c0,0 2.621,2.621 4.067,4.067c0.566,0.566 0.74,1.415 0.443,2.157c-0.227,0.569 -0.503,1.258 -0.756,1.89c-0.455,1.139 -1.558,1.886 -2.785,1.886c-1.731,0 -4.207,0 -5.938,0c-1.227,0 -2.33,-0.747 -2.785,-1.886c-0.253,-0.632 -0.529,-1.321 -0.756,-1.89c-0.297,-0.742 -0.123,-1.591 0.443,-2.157c1.446,-1.446 4.067,-4.067 4.067,-4.067Z" style="fill:#e3e3e3;"/><path d="M11,23c0,0 0.573,0.286 1.106,0.553c0.563,0.281 1.225,0.281 1.788,0c0.332,-0.166 0.68,-0.34 0.895,-0.447c0.139,-0.07 0.292,-0.106 0.447,-0.106c0.385,0 1.143,0 1.528,0c0.155,0 0.308,0.036 0.447,0.106c0.215,0.107 0.563,0.281 0.895,0.447c0.563,0.281 1.225,0.281 1.788,0c0.533,-0.267 1.106,-0.553 1.106,-0.553" style="fill:none;stroke:#573b2d;stroke-width:1px;stroke-linejoin:round;stroke-miterlimit:1.5;"/><path d="M20,16.206c0,0.474 0.304,0.895 0.754,1.045c0.013,0.005 0.026,0.009 0.04,0.014c0.511,0.17 1.073,0.084 1.51,-0.231c0.437,-0.315 0.696,-0.821 0.696,-1.359c0,-0.001 0,-0.001 0,-0.001c0,-0.403 -0.258,-0.76 -0.639,-0.887c-0.103,-0.034 -0.213,-0.071 -0.329,-0.11c-0.471,-0.157 -0.988,-0.078 -1.391,0.213c-0.402,0.29 -0.641,0.756 -0.641,1.252c0,0.021 0,0.043 0,0.064Z"/><path d="M12,16.206c0,0.474 -0.304,0.895 -0.754,1.045c-0.013,0.005 -0.026,0.009 -0.04,0.014c-0.511,0.17 -1.073,0.084 -1.51,-0.231c-0.437,-0.315 -0.696,-0.821 -0.696,-1.359c0,-0.001 0,-0.001 0,-0.001c0,-0.403 0.258,-0.76 0.639,-0.887c0.103,-0.034 0.213,-0.071 0.329,-0.11c0.471,-0.157 0.988,-0.078 1.391,0.213c0.402,0.29 0.641,0.756 0.641,1.252c0,0.021 0,0.043 0,0.064Z"/><path d="M15.562,22c-0.616,0 -1.198,-0.284 -1.577,-0.769c-0.379,-0.486 -0.513,-1.119 -0.364,-1.716c0.068,-0.273 0.133,-0.532 0.19,-0.758c0.111,-0.445 0.511,-0.757 0.97,-0.757c0.704,0 1.734,0 2.438,0c0.459,0 0.859,0.312 0.97,0.757c0.057,0.226 0.122,0.485 0.19,0.758c0.149,0.597 0.015,1.23 -0.364,1.716c-0.379,0.485 -0.961,0.769 -1.577,0.769c-0.29,0 -0.586,0 -0.876,0Z"/><path d="M19.316,12.439c-0.305,-0.102 -0.64,-0.051 -0.901,0.137c-0.26,0.188 -0.415,0.49 -0.415,0.811c0,0.309 0,0.624 0,0.893c0,0.398 0.322,0.72 0.72,0.72c0,0 0.001,0 0.001,0c0.179,0 0.35,-0.071 0.476,-0.197c0.505,-0.505 1.803,-1.803 1.803,-1.803c0,0 -0.878,-0.293 -1.684,-0.561Z" style="fill:#e3e3e3;"/><path d="M12.684,12.439c0.305,-0.102 0.64,-0.051 0.901,0.137c0.26,0.188 0.415,0.49 0.415,0.811c0,0.309 0,0.624 0,0.893c0,0.398 -0.322,0.72 -0.72,0.72c0,0 -0.001,0 -0.001,0c-0.179,0 -0.35,-0.071 -0.476,-0.197c-0.505,-0.505 -1.803,-1.803 -1.803,-1.803c0,0 0.878,-0.293 1.684,-0.561Z" style="fill:#e3e3e3;"/><path d="M23.949,10.897c-0.247,-0.492 -0.279,-1.065 -0.09,-1.582c0.19,-0.517 0.584,-0.934 1.091,-1.151c1.144,-0.49 2.566,-1.099 3.609,-1.547c0.272,-0.116 0.586,-0.068 0.811,0.123c0.225,0.192 0.321,0.494 0.25,0.781c-0.395,1.579 -1.003,4.011 -1.351,5.402c-0.174,0.695 -0.093,1.429 0.227,2.07c0.067,0.133 0.138,0.274 0.211,0.42c0.216,0.433 0.151,0.955 -0.167,1.321c-0.317,0.366 -0.824,0.505 -1.284,0.351c-0.001,0 -0.002,0 -0.003,-0.001c-0.162,-0.054 -0.296,-0.17 -0.372,-0.322c-0.43,-0.86 -1.928,-3.856 -2.932,-5.865Z" style="fill:#e6e6e6;"/><clipPath id="_clip3"><path d="M23.949,10.897c-0.247,-0.492 -0.279,-1.065 -0.09,-1.582c0.19,-0.517 0.584,-0.934 1.091,-1.151c1.144,-0.49 2.566,-1.099 3.609,-1.547c0.272,-0.116 0.586,-0.068 0.811,0.123c0.225,0.192 0.321,0.494 0.25,0.781c-0.395,1.579 -1.003,4.011 -1.351,5.402c-0.174,0.695 -0.093,1.429 0.227,2.07c0.067,0.133 0.138,0.274 0.211,0.42c0.216,0.433 0.151,0.955 -0.167,1.321c-0.317,0.366 -0.824,0.505 -1.284,0.351c-0.001,0 -0.002,0 -0.003,-0.001c-0.162,-0.054 -0.296,-0.17 -0.372,-0.322c-0.43,-0.86 -1.928,-3.856 -2.932,-5.865Z"/></clipPath><g clip-path="url(#_clip3)"><path d="M21,11c0,0 3.073,-1.317 5.147,-2.206c0.349,-0.15 0.753,-0.088 1.042,0.158c0.29,0.246 0.414,0.635 0.322,1.004c-0.85,3.401 -2.511,10.044 -2.511,10.044l-4,-9Z" style="fill:#a7a7a7;"/></g><path d="M8.051,10.897c0.247,-0.492 0.279,-1.065 0.09,-1.582c-0.19,-0.517 -0.584,-0.934 -1.091,-1.151c-1.144,-0.49 -2.566,-1.099 -3.609,-1.547c-0.272,-0.116 -0.586,-0.068 -0.811,0.123c-0.225,0.192 -0.321,0.494 -0.25,0.781c0.395,1.579 1.003,4.011 1.351,5.402c0.174,0.695 0.093,1.429 -0.227,2.07c-0.067,0.133 -0.138,0.274 -0.211,0.42c-0.216,0.433 -0.151,0.955 0.167,1.321c0.317,0.366 0.824,0.505 1.284,0.351c0.001,0 0.002,0 0.003,-0.001c0.162,-0.054 0.296,-0.17 0.372,-0.322c0.43,-0.86 1.928,-3.856 2.932,-5.865Z" style="fill:#e6e6e6;"/><clipPath id="_clip4"><path d="M8.051,10.897c0.247,-0.492 0.279,-1.065 0.09,-1.582c-0.19,-0.517 -0.584,-0.934 -1.091,-1.151c-1.144,-0.49 -2.566,-1.099 -3.609,-1.547c-0.272,-0.116 -0.586,-0.068 -0.811,0.123c-0.225,0.192 -0.321,0.494 -0.25,0.781c0.395,1.579 1.003,4.011 1.351,5.402c0.174,0.695 0.093,1.429 -0.227,2.07c-0.067,0.133 -0.138,0.274 -0.211,0.42c-0.216,0.433 -0.151,0.955 0.167,1.321c0.317,0.366 0.824,0.505 1.284,0.351c0.001,0 0.002,0 0.003,-0.001c0.162,-0.054 0.296,-0.17 0.372,-0.322c0.43,-0.86 1.928,-3.856 2.932,-5.865Z"/></clipPath><g clip-path="url(#_clip4)"><path d="M11,11c0,0 -3.073,-1.317 -5.147,-2.206c-0.349,-0.15 -0.753,-0.088 -1.042,0.158c-0.29,0.246 -0.414,0.635 -0.322,1.004c0.85,3.401 2.511,10.044 2.511,10.044l4,-9Z" style="fill:#a7a7a7;"/></g></g></g></svg>