<?xml version="1.0" encoding="UTF-8" standalone="no"?><!DOCTYPE svg PUBLIC "-//W3C//DTD SVG 1.1//EN" "http://www.w3.org/Graphics/SVG/1.1/DTD/svg11.dtd"><svg width="100%" height="100%" viewBox="0 0 32 32" version="1.1" xmlns="http://www.w3.org/2000/svg" xmlns:xlink="http://www.w3.org/1999/xlink" xml:space="preserve" xmlns:serif="http://www.serif.com/" style="fill-rule:evenodd;clip-rule:evenodd;stroke-linecap:round;stroke-linejoin:round;stroke-miterlimit:1.5;"><rect id="squirrel" x="0" y="0" width="32" height="32" style="fill:none;"/><g id="outline"><path d="M10,2c0,0 -0.685,0.913 -1.4,1.867c-1.039,1.384 -1.6,3.069 -1.6,4.8c0,0.282 0,0.568 0,0.848c0,1.591 0.632,3.117 1.757,4.242c0.148,0.148 0.243,0.243 0.243,0.243l3,0c0,0 0,-4.554 0,-7.183c0,-1.185 -0.351,-2.343 -1.008,-3.329c-0.497,-0.746 -0.992,-1.488 -0.992,-1.488Z" style="fill:none;"/><clipPath id="_clip1"><path d="M10,2c0,0 -0.685,0.913 -1.4,1.867c-1.039,1.384 -1.6,3.069 -1.6,4.8c0,0.282 0,0.568 0,0.848c0,1.591 0.632,3.117 1.757,4.242c0.148,0.148 0.243,0.243 0.243,0.243l3,0c0,0 0,-4.554 0,-7.183c0,-1.185 -0.351,-2.343 -1.008,-3.329c-0.497,-0.746 -0.992,-1.488 -0.992,-1.488Z"/></clipPath><g clip-path="url(#_clip1)"><path d="M11,2l0,3l-1,2l0,4l2,2l3,0l0,-10l-4,-1Z" style="fill:#b8623e;"/></g><path d="M10,2c0,0 -0.685,0.913 -1.4,1.867c-1.039,1.384 -1.6,3.069 -1.6,4.8c0,0.282 0,0.568 0,0.848c0,1.591 0.632,3.117 1.757,4.242c0.148,0.148 0.243,0.243 0.243,0.243l3,0c0,0 0,-4.554 0,-7.183c0,-1.185 -0.351,-2.343 -1.008,-3.329c-0.497,-0.746 -0.992,-1.488 -0.992,-1.488Z" style="fill:none;stroke:#000;stroke-width:4px;"/><path d="M22,2c0,0 0.685,0.913 1.4,1.867c1.039,1.384 1.6,3.069 1.6,4.8c0,0.282 0,0.568 0,0.848c0,1.591 -0.632,3.117 -1.757,4.242c-0.148,0.148 -0.243,0.243 -0.243,0.243l-3,0c0,0 0,-4.554 0,-7.183c0,-1.185 0.351,-2.343 1.008,-3.329c0.497,-0.746 0.992,-1.488 0.992,-1.488Z" style="fill:none;"/><clipPath id="_clip2"><path d="M22,2c0,0 0.685,0.913 1.4,1.867c1.039,1.384 1.6,3.069 1.6,4.8c0,0.282 0,0.568 0,0.848c0,1.591 -0.632,3.117 -1.757,4.242c-0.148,0.148 -0.243,0.243 -0.243,0.243l-3,0c0,0 0,-4.554 0,-7.183c0,-1.185 0.351,-2.343 1.008,-3.329c0.497,-0.746 0.992,-1.488 0.992,-1.488Z"/></clipPath><g clip-path="url(#_clip2)"><path d="M21,2l0,3l1,2l0,4l-2,2l-3,0l0,-10l4,-1Z" style="fill:#b8623e;"/></g><path d="M22,2c0,0 0.685,0.913 1.4,1.867c1.039,1.384 1.6,3.069 1.6,4.8c0,0.282 0,0.568 0,0.848c0,1.591 -0.632,3.117 -1.757,4.242c-0.148,0.148 -0.243,0.243 -0.243,0.243l-3,0c0,0 0,-4.554 0,-7.183c0,-1.185 0.351,-2.343 1.008,-3.329c0.497,-0.746 0.992,-1.488 0.992,-1.488Z" style="fill:none;stroke:#000;stroke-width:4px;"/><path d="M15.999,8c-4.082,0 -7.61,2.852 -8.466,6.844c-0.503,2.348 -1.011,4.72 -1.298,6.057c-0.155,0.726 -0.172,1.475 -0.05,2.207c0,0.001 0,0.001 0,0.001c0.492,2.956 2.73,5.317 5.655,5.967c0.896,0.199 1.774,0.394 2.491,0.553c1.099,0.244 2.239,0.244 3.338,0c0.717,-0.159 1.595,-0.354 2.491,-0.553c2.925,-0.65 5.163,-3.011 5.655,-5.967c0,0 0,0 0,-0.001c0.122,-0.732 0.105,-1.481 -0.05,-2.207c-0.287,-1.337 -0.795,-3.709 -1.298,-6.057c-0.856,-3.992 -4.384,-6.844 -8.466,-6.844c-0.001,0 -0.001,0 -0.002,0Z" style="fill:none;stroke:#000;stroke-width:4px;"/></g><g id="emoji"><g><path d="M22,2c0,0 0.685,0.913 1.4,1.867c1.039,1.384 1.6,3.069 1.6,4.8c0,0.282 0,0.568 0,0.848c0,1.591 -0.632,3.117 -1.757,4.242l-0.243,0.243l-3,0l0,-1l2,-11Z" style="fill:#8c4338;"/><path d="M22,2c0,0 0,1.664 0,2.513c0,0.323 0.052,0.643 0.154,0.949c0.157,0.471 0.403,1.209 0.589,1.768c0.17,0.51 0.257,1.044 0.257,1.581c0,0.167 0,0.348 0,0.532c0,1.061 -0.421,2.078 -1.172,2.829l-0.828,0.828l-1,0l0,-6.183c0,-1.185 0.351,-2.343 1.008,-3.329l0.992,-1.488Z" style="fill:#b8623e;"/></g><g><path d="M10,2c0,0 -0.685,0.913 -1.4,1.867c-1.039,1.384 -1.6,3.069 -1.6,4.8c0,0.282 0,0.568 0,0.848c0,1.591 0.632,3.117 1.757,4.242l0.243,0.243l3,0l0,-1l-2,-11Z" style="fill:#8c4338;"/><path d="M10,2c0,0 0,1.664 0,2.513c0,0.323 -0.052,0.643 -0.154,0.949c-0.157,0.471 -0.403,1.209 -0.589,1.768c-0.17,0.51 -0.257,1.044 -0.257,1.581c0,0.167 0,0.348 0,0.532c0,1.061 0.421,2.078 1.172,2.829l0.828,0.828l1,0l0,-6.183c0,-1.185 -0.351,-2.343 -1.008,-3.329l-0.992,-1.488Z" style="fill:#b8623e;"/></g><path d="M12.612,29.247l-0.772,-0.171c-2.925,-0.65 -5.163,-3.011 -5.655,-5.967c0,0 0,0 0,-0.001c-0.122,-0.732 -0.105,-1.481 0.05,-2.207c0.287,-1.337 0.795,-3.709 1.298,-6.057c0.856,-3.992 4.384,-6.844 8.466,-6.844c0.001,0 0.001,0 0.002,0c4.082,0 7.61,2.852 8.466,6.844c0.503,2.348 1.011,4.72 1.298,6.057c0.155,0.726 0.172,1.475 0.05,2.207c0,0.001 0,0.001 0,0.001c-0.492,2.956 -2.73,5.317 -5.655,5.967l-0.772,0.171c0.502,-0.364 -7.278,-0.364 -6.776,0Z" style="fill:#b8623e;"/><path d="M15.176,18.824l1.648,0l2.392,2.392c0.502,0.502 0.784,1.183 0.784,1.893c0,0 0,0 0,0c0,0.571 -0.227,1.118 -0.63,1.521c-0.2,0.2 -0.37,0.37 -0.37,0.37c0,0 0.753,0.753 1.334,1.334c0.398,0.398 0.496,1.005 0.245,1.508c0,0 0,0 0,0.001c-0.28,0.559 -0.689,1.04 -1.191,1.404l-1.719,0.382c-1.099,0.244 -2.239,0.244 -3.338,0l-1.719,-0.382c-0.502,-0.364 -0.911,-0.845 -1.191,-1.404c0,-0.001 0,-0.001 0,-0.001c-0.251,-0.503 -0.153,-1.11 0.245,-1.508c0.581,-0.581 1.334,-1.334 1.334,-1.334c0,0 -0.17,-0.17 -0.37,-0.37c-0.403,-0.403 -0.63,-0.95 -0.63,-1.521c0,0 0,0 0,0c0,-0.71 0.282,-1.391 0.784,-1.893l2.392,-2.392Z" style="fill:#dfa87b;"/><path d="M15.176,18.824l0.117,-0.117c0.187,-0.187 0.442,-0.293 0.707,-0.293c0.265,0 0.52,0.106 0.707,0.293l0.117,0.117c0.753,0.753 1.176,1.774 1.176,2.839c0,0.201 0,0.337 0,0.337l-4,0c0,0 0,-0.136 0,-0.337c0,-1.065 0.423,-2.086 1.176,-2.839Z" style="fill:#ce9c69;"/><path d="M21.78,20.13c-0.47,-0.078 -0.842,-0.439 -0.935,-0.905c-0.139,-0.697 -0.348,-1.742 -0.524,-2.618c-0.183,-0.918 0.345,-1.829 1.233,-2.125c0.001,0 0.002,-0.001 0.003,-0.001c0.839,-0.28 1.759,0.072 2.198,0.84c0.19,0.333 0.405,0.71 0.632,1.107c0.479,0.838 0.433,1.877 -0.119,2.669c-0.552,0.792 -1.51,1.196 -2.462,1.037c-0.009,-0.001 -0.018,-0.003 -0.026,-0.004Z" style="fill:#d08e73;"/><path d="M10.22,20.13c0.47,-0.078 0.842,-0.439 0.935,-0.905c0.139,-0.697 0.348,-1.742 0.524,-2.618c0.183,-0.918 -0.345,-1.829 -1.233,-2.125c-0.001,0 -0.002,-0.001 -0.003,-0.001c-0.839,-0.28 -1.759,0.072 -2.198,0.84c-0.19,0.333 -0.405,0.71 -0.632,1.107c-0.479,0.838 -0.433,1.877 0.119,2.669c0.552,0.792 1.51,1.196 2.462,1.037c0.009,-0.001 0.018,-0.003 0.026,-0.004Z" style="fill:#d08e73;"/><path d="M21.863,19.784c-0.2,0.05 -0.413,0.001 -0.571,-0.132c-0.158,-0.133 -0.243,-0.333 -0.229,-0.539c0.053,-0.735 0.131,-1.827 0.206,-2.885c0.032,-0.437 0.344,-0.803 0.771,-0.903c0.428,-0.099 0.87,0.092 1.091,0.47c0.176,0.303 0.354,0.608 0.526,0.903c0.317,0.544 0.36,1.205 0.116,1.785c-0.245,0.58 -0.748,1.011 -1.358,1.163c-0.195,0.049 -0.382,0.096 -0.552,0.138Z"/><path d="M10.137,19.784c0.2,0.05 0.413,0.001 0.571,-0.132c0.158,-0.133 0.243,-0.333 0.229,-0.539c-0.053,-0.735 -0.131,-1.827 -0.206,-2.885c-0.032,-0.437 -0.344,-0.803 -0.771,-0.903c-0.428,-0.099 -0.87,0.092 -1.091,0.47c-0.176,0.303 -0.354,0.608 -0.526,0.903c-0.317,0.544 -0.36,1.205 -0.116,1.785c0.245,0.58 0.748,1.011 1.358,1.163c0.195,0.049 0.382,0.096 0.552,0.138Z"/><path d="M15.151,21c-0.305,0 -0.598,0.121 -0.814,0.337c-0.216,0.216 -0.337,0.509 -0.337,0.814c0,0.126 0,0.249 0,0.36c0,0.319 0.094,0.631 0.271,0.896c0.001,0.001 0.001,0.001 0.002,0.002c0.385,0.578 1.033,0.924 1.727,0.924c0.694,0 1.342,-0.346 1.727,-0.924c0.001,-0.001 0.001,-0.001 0.002,-0.002c0.177,-0.265 0.271,-0.577 0.271,-0.896c0,-0.111 0,-0.234 0,-0.36c0,-0.305 -0.121,-0.598 -0.337,-0.814c-0.216,-0.216 -0.509,-0.337 -0.814,-0.337c-0.533,0 -1.165,0 -1.698,0Z" style="fill:#79463a;"/><path d="M12.28,27c0,0 0.18,0.209 0.424,0.493c0.823,0.957 2.022,1.507 3.284,1.507c0,0 0.001,0 0.001,0c1.275,0 2.486,-0.561 3.31,-1.535c0.228,-0.269 0.393,-0.465 0.393,-0.465l-3.692,-1l-3.72,1Z" style="fill:#bb8a65;"/><path d="M13,27c0,0 0.08,0 0.194,0c0.53,0 1.053,-0.123 1.527,-0.36c0.573,-0.287 1.279,-0.64 1.279,-0.64c0,0 0.706,0.353 1.279,0.64c0.474,0.237 0.997,0.36 1.527,0.36c0.114,0 0.194,0 0.194,0" style="fill:none;stroke:#784337;stroke-width:1.5px;"/></g></svg>