<?xml version="1.0" encoding="UTF-8" standalone="no"?>
<!DOCTYPE svg PUBLIC "-//W3C//DTD SVG 1.1//EN" "http://www.w3.org/Graphics/SVG/1.1/DTD/svg11.dtd">
<svg width="100%" height="100%" viewBox="0 0 32 32" version="1.1" xmlns="http://www.w3.org/2000/svg" xmlns:xlink="http://www.w3.org/1999/xlink" xml:space="preserve" xmlns:serif="http://www.serif.com/" style="fill-rule:evenodd;clip-rule:evenodd;stroke-linejoin:round;stroke-miterlimit:2;">
    <rect id="bisexual_triangles" x="0" y="0" width="32" height="32" style="fill:none;"/>
    <clipPath id="_clip1">
        <rect x="0" y="0" width="32" height="32"/>
    </clipPath>
    <g clip-path="url(#_clip1)">
        <g id="outline">
            <path d="M20.5,29l9.5,-16l0,-2l-19,0l0,2l9.5,16Z" style="fill:none;stroke:#000;stroke-width:4px;"/>
            <path d="M11.5,24l9.5,-16l0,-2l-19,0l0,2l9.5,16Z" style="fill:none;stroke:#000;stroke-width:4px;"/>
        </g>
        <g id="emoji">
            <path d="M20.5,29l9.5,-16l0,-2l-2,1l-15,0l-2,-1l0,2l9.5,16Z" style="fill:#221ab1;"/>
            <path d="M19,7l2,-1l0,2l-5.297,8.921l-1.187,0l0,2l-3.016,5.079l-9.5,-16l0,-2l2,1l15,0Z" style="fill:#c52eae;"/>
            <path d="M20.5,27l9.5,-16l-19,0l9.5,16Z" style="fill:#342ae7;"/>
            <path d="M11.5,22l9.5,-16l-19,0l9.5,16Z" style="fill:#e764d3;"/>
            <path d="M14.516,16.921l-3.516,-5.921l7.031,0l-3.515,5.921Z" style="fill:#9a2dd8;"/>
        </g>
    </g>
</svg>
