<?xml version="1.0" encoding="UTF-8" standalone="no"?>
<!DOCTYPE svg PUBLIC "-//W3C//DTD SVG 1.1//EN" "http://www.w3.org/Graphics/SVG/1.1/DTD/svg11.dtd">
<svg width="100%" height="100%" viewBox="0 0 32 32" version="1.1" xmlns="http://www.w3.org/2000/svg" xmlns:xlink="http://www.w3.org/1999/xlink" xml:space="preserve" xmlns:serif="http://www.serif.com/" style="fill-rule:evenodd;clip-rule:evenodd;stroke-linejoin:round;stroke-miterlimit:2;">
    <rect id="furry_pride" x="0" y="0" width="32" height="32" style="fill:none;"/>
    <clipPath id="_clip1">
        <rect x="0" y="0" width="32" height="32"/>
    </clipPath>
    <g clip-path="url(#_clip1)">
        <g id="outline">
            <path d="M20.655,1.002l0.155,0.008l0.154,0.012l0.153,0.018l0.151,0.022l0.151,0.027l0.148,0.032l0.147,0.036l0.146,0.041l0.143,0.045l0.141,0.049l0.14,0.053l0.137,0.058l0.134,0.061l0.133,0.064l0.13,0.069l0.128,0.072l0.125,0.075l0.122,0.078l0.12,0.082l0.118,0.084l0.115,0.088l0.112,0.09l0.11,0.093l0.107,0.096l0.105,0.098l0.102,0.1l0.1,0.104l0.096,0.105l0.094,0.107l0.092,0.11l0.089,0.112l0.087,0.113l0.084,0.116l0.081,0.118l0.079,0.12l0.075,0.121l0.074,0.123l0.071,0.126l0.068,0.126l0.066,0.128l0.063,0.13l0.061,0.132l0.058,0.133l0.055,0.134l0.052,0.136l0.05,0.138l0.048,0.139l0.044,0.139l0.042,0.142l0.039,0.143l0.036,0.144l0.034,0.145l0.031,0.146l0.028,0.147l0.025,0.149l0.022,0.149l0.02,0.151l0.016,0.151l0.014,0.152l0.01,0.154l0.008,0.154l0.005,0.155l0.001,0.155l-0.001,0.155l-0.005,0.155l-0.008,0.154l-0.01,0.154l-0.014,0.152l-0.016,0.151l-0.02,0.151l-0.022,0.149l-0.025,0.149l-0.028,0.147l-0.006,0.028l0.038,-0.005l0.153,-0.018l0.154,-0.012l0.155,-0.008l0.155,-0.002l0.155,0.002l0.155,0.008l0.154,0.012l0.153,0.018l0.151,0.022l0.151,0.027l0.148,0.032l0.147,0.036l0.146,0.041l0.143,0.045l0.141,0.049l0.14,0.053l0.137,0.058l0.134,0.061l0.133,0.065l0.13,0.068l0.127,0.072l0.126,0.075l0.122,0.078l0.12,0.082l0.118,0.084l0.115,0.088l0.112,0.09l0.11,0.093l0.107,0.096l0.105,0.098l0.102,0.101l0.1,0.103l0.096,0.104l0.094,0.108l0.092,0.11l0.089,0.112l0.087,0.114l0.083,0.115l0.082,0.118l0.078,0.12l0.077,0.121l0.073,0.123l0.071,0.125l0.068,0.127l0.066,0.128l0.063,0.13l0.061,0.132l0.058,0.133l0.055,0.135l0.052,0.135l0.05,0.138l0.048,0.139l0.044,0.14l0.042,0.141l0.039,0.143l0.036,0.144l0.034,0.145l0.031,0.146l0.028,0.147l0.025,0.149l0.022,0.149l0.02,0.151l0.016,0.151l0.014,0.152l0.01,0.154l0.008,0.154l0.005,0.155l0.001,0.155l-0.001,0.155l-0.005,0.155l-0.008,0.154l-0.01,0.154l-0.014,0.152l-0.016,0.151l-0.02,0.151l-0.022,0.149l-0.025,0.149l-0.028,0.147l-0.031,0.146l-0.034,0.145l-0.036,0.144l-0.039,0.143l-0.042,0.141l-0.044,0.14l-0.048,0.139l-0.05,0.138l-0.052,0.135l-0.055,0.135l-0.058,0.133l-0.061,0.132l-0.063,0.13l-0.066,0.128l-0.068,0.127l-0.071,0.125l-0.073,0.123l-0.076,0.121l-0.079,0.12l-0.082,0.118l-0.083,0.115l-0.087,0.114l-0.089,0.112l-0.092,0.11l-0.094,0.108l-0.096,0.104l-0.1,0.103l-0.102,0.101l-0.105,0.098l-0.107,0.096l-0.11,0.093l-0.112,0.09l-0.115,0.088l-0.118,0.084l-0.12,0.082l-0.122,0.078l-0.126,0.075l-0.127,0.072l-0.13,0.068l-0.133,0.065l-0.134,0.061l-0.137,0.058l-0.14,0.053l-0.141,0.049l-0.143,0.045l-0.146,0.041l-0.147,0.036l-0.085,0.018l0.103,0.112l0.102,0.119l0.099,0.121l0.096,0.124l0.092,0.126l0.088,0.129l0.085,0.131l0.081,0.134l0.076,0.135l0.074,0.137l0.069,0.14l0.066,0.141l0.061,0.143l0.058,0.145l0.053,0.146l0.05,0.148l0.045,0.149l0.041,0.151l0.038,0.152l0.032,0.153l0.029,0.154l0.024,0.156l0.02,0.156l0.016,0.158l0.011,0.157l0.007,0.159l0.002,0.145l0,0.023l-0.001,0.08l-0.002,0.087l-0.003,0.087l-0.004,0.087l-0.006,0.087l-0.007,0.087l-0.009,0.085l-0.009,0.086l-0.011,0.087l-0.012,0.085l-0.013,0.085l-0.015,0.085l-0.016,0.084l-0.017,0.084l-0.018,0.085l-0.02,0.083l-0.02,0.083l-0.022,0.082l-0.023,0.083l-0.024,0.083l-0.026,0.081l-0.026,0.081l-0.028,0.081l-0.029,0.08l-0.03,0.08l-0.031,0.079l-0.032,0.079l-0.034,0.078l-0.034,0.078l-0.036,0.077l-0.037,0.077l-0.038,0.077l-0.039,0.075l-0.04,0.075l-0.042,0.075l-0.042,0.074l-0.043,0.073l-0.044,0.073l-0.046,0.072l-0.047,0.072l-0.047,0.07l-0.049,0.07l-0.049,0.07l-0.051,0.068l-0.052,0.069l-0.053,0.067l-0.054,0.066l-0.055,0.066l-0.056,0.066l-0.056,0.064l-0.058,0.063l-0.059,0.063l-0.06,0.062l-0.06,0.061l-0.062,0.061l-0.063,0.059l-0.064,0.059l-0.064,0.057l-0.065,0.057l-0.067,0.056l-0.068,0.055l-0.068,0.054l-0.069,0.053l-0.07,0.053l-0.071,0.051l-0.072,0.05l-0.072,0.049l-0.072,0.047l-0.073,0.047l-0.074,0.045l-0.075,0.045l-0.075,0.043l-0.076,0.042l-0.075,0.041l-0.077,0.039l-0.077,0.039l-0.077,0.037l-0.078,0.036l-0.079,0.035l-0.079,0.034l-0.079,0.032l-0.08,0.032l-0.08,0.03l-0.08,0.029l-0.081,0.028l-0.081,0.026l-0.082,0.026l-0.081,0.024l-0.083,0.023l-0.082,0.022l-0.083,0.02l-0.083,0.02l-0.083,0.018l-0.083,0.017l-0.084,0.015l-0.084,0.015l-0.084,0.013l-0.084,0.012l-0.085,0.011l-0.084,0.01l-0.085,0.008l-0.085,0.007l-0.085,0.006l-0.086,0.005l-0.085,0.003l-0.085,0.003l-0.086,0.001l-0.085,-0.001l-0.085,-0.001l-0.086,-0.003l-0.086,-0.004l-0.085,-0.005l-0.086,-0.007l-0.085,-0.007l-0.086,-0.009l-0.085,-0.011l-0.085,-0.011l-0.086,-0.013l-0.085,-0.014l-0.085,-0.016l-0.085,-0.016l-0.084,-0.018l-0.085,-0.019l-0.084,-0.021l-0.085,-0.022l-0.084,-0.023l-0.083,-0.024l-0.077,-0.023l-4.581,-1.442l-0.065,-0.02l-0.056,-0.015l-0.056,-0.015l-0.057,-0.014l-0.056,-0.012l-0.057,-0.012l-0.057,-0.01l-0.057,-0.009l-0.057,-0.008l-0.057,-0.007l-0.057,-0.006l-0.058,-0.005l-0.057,-0.003l-0.058,-0.003l-0.057,-0.002l-0.058,0l-0.057,0.001l-0.058,0.002l-0.057,0.003l-0.058,0.004l-0.057,0.005l-0.057,0.006l-0.057,0.007l-0.057,0.009l-0.057,0.01l-0.057,0.01l-0.057,0.012l-0.056,0.013l-0.056,0.014l-0.056,0.015l-0.056,0.016l-0.065,0.02l-4.326,1.393l-0.077,0.024l-0.083,0.024l-0.085,0.024l-0.084,0.022l-0.084,0.021l-0.085,0.02l-0.084,0.019l-0.085,0.017l-0.085,0.016l-0.086,0.014l-0.085,0.014l-0.085,0.012l-0.086,0.011l-0.085,0.009l-0.086,0.009l-0.085,0.007l-0.086,0.005l-0.086,0.005l-0.085,0.003l-0.086,0.002l-0.086,0.001l-0.085,-0.001l-0.085,-0.002l-0.086,-0.003l-0.085,-0.004l-0.085,-0.005l-0.085,-0.007l-0.085,-0.008l-0.085,-0.009l-0.085,-0.011l-0.084,-0.011l-0.085,-0.013l-0.084,-0.014l-0.084,-0.016l-0.083,-0.016l-0.084,-0.018l-0.083,-0.019l-0.083,-0.02l-0.082,-0.022l-0.083,-0.022l-0.082,-0.024l-0.081,-0.025l-0.082,-0.027l-0.081,-0.027l-0.081,-0.029l-0.08,-0.03l-0.08,-0.031l-0.079,-0.032l-0.08,-0.034l-0.078,-0.034l-0.078,-0.036l-0.078,-0.037l-0.078,-0.038l-0.076,-0.04l-0.077,-0.04l-0.076,-0.042l-0.075,-0.043l-0.074,-0.044l-0.075,-0.045l-0.073,-0.046l-0.073,-0.048l-0.073,-0.049l-0.071,-0.05l-0.071,-0.051l-0.071,-0.052l-0.069,-0.053l-0.069,-0.054l-0.068,-0.055l-0.066,-0.055l-0.066,-0.057l-0.065,-0.058l-0.064,-0.058l-0.063,-0.06l-0.062,-0.06l-0.06,-0.061l-0.061,-0.062l-0.059,-0.063l-0.058,-0.063l-0.057,-0.065l-0.056,-0.065l-0.055,-0.065l-0.054,-0.067l-0.053,-0.067l-0.052,-0.068l-0.051,-0.069l-0.05,-0.069l-0.049,-0.07l-0.048,-0.071l-0.047,-0.072l-0.045,-0.072l-0.045,-0.072l-0.044,-0.074l-0.042,-0.074l-0.041,-0.074l-0.041,-0.075l-0.039,-0.077l-0.038,-0.076l-0.037,-0.076l-0.036,-0.078l-0.035,-0.077l-0.034,-0.079l-0.032,-0.079l-0.031,-0.079l-0.03,-0.08l-0.029,-0.081l-0.028,-0.08l-0.027,-0.081l-0.026,-0.082l-0.024,-0.083l-0.023,-0.082l-0.022,-0.083l-0.021,-0.083l-0.019,-0.083l-0.019,-0.085l-0.017,-0.084l-0.016,-0.085l-0.014,-0.085l-0.014,-0.085l-0.012,-0.086l-0.011,-0.086l-0.009,-0.086l-0.009,-0.086l-0.007,-0.086l-0.006,-0.087l-0.004,-0.088l-0.003,-0.087l-0.002,-0.087l-0.001,-0.08l0,-0.023l0.002,-0.144l0.007,-0.157l0.011,-0.157l0.015,-0.156l0.02,-0.155l0.024,-0.155l0.029,-0.153l0.032,-0.152l0.037,-0.151l0.041,-0.149l0.045,-0.149l0.05,-0.147l0.053,-0.145l0.057,-0.143l0.061,-0.142l0.065,-0.14l0.069,-0.139l0.072,-0.136l0.077,-0.134l0.08,-0.133l0.084,-0.13l0.087,-0.127l0.092,-0.126l0.094,-0.123l0.099,-0.12l0.102,-0.118l0.105,-0.116l0.005,-0.004l-0.082,-0.018l-0.147,-0.036l-0.146,-0.041l-0.143,-0.045l-0.141,-0.049l-0.139,-0.053l-0.137,-0.058l-0.135,-0.061l-0.133,-0.065l-0.13,-0.068l-0.128,-0.072l-0.125,-0.075l-0.122,-0.078l-0.12,-0.082l-0.118,-0.084l-0.115,-0.088l-0.112,-0.09l-0.11,-0.093l-0.107,-0.096l-0.105,-0.098l-0.102,-0.1l-0.099,-0.103l-0.097,-0.106l-0.094,-0.107l-0.092,-0.11l-0.089,-0.112l-0.086,-0.113l-0.084,-0.116l-0.082,-0.118l-0.078,-0.12l-0.077,-0.121l-0.073,-0.123l-0.071,-0.126l-0.068,-0.126l-0.066,-0.128l-0.063,-0.13l-0.061,-0.132l-0.058,-0.133l-0.055,-0.134l-0.052,-0.136l-0.05,-0.138l-0.048,-0.139l-0.044,-0.14l-0.042,-0.141l-0.039,-0.143l-0.036,-0.143l-0.034,-0.146l-0.031,-0.146l-0.028,-0.147l-0.025,-0.149l-0.022,-0.149l-0.02,-0.151l-0.016,-0.151l-0.014,-0.152l-0.01,-0.153l-0.008,-0.154l-0.005,-0.156l-0.001,-0.155l0.001,-0.155l0.005,-0.156l0.008,-0.154l0.01,-0.153l0.014,-0.152l0.016,-0.151l0.02,-0.151l0.022,-0.149l0.025,-0.149l0.028,-0.147l0.031,-0.146l0.034,-0.146l0.036,-0.143l0.039,-0.143l0.042,-0.141l0.044,-0.14l0.048,-0.139l0.05,-0.138l0.052,-0.136l0.055,-0.134l0.058,-0.133l0.061,-0.132l0.063,-0.13l0.066,-0.128l0.068,-0.126l0.071,-0.126l0.073,-0.123l0.077,-0.121l0.078,-0.12l0.082,-0.118l0.083,-0.116l0.087,-0.113l0.089,-0.112l0.092,-0.11l0.094,-0.107l0.097,-0.106l0.099,-0.103l0.102,-0.1l0.105,-0.098l0.107,-0.096l0.11,-0.093l0.112,-0.09l0.115,-0.088l0.118,-0.084l0.12,-0.082l0.122,-0.078l0.126,-0.075l0.127,-0.072l0.13,-0.068l0.133,-0.065l0.135,-0.061l0.137,-0.058l0.139,-0.053l0.141,-0.049l0.143,-0.045l0.146,-0.041l0.147,-0.036l0.148,-0.032l0.151,-0.027l0.151,-0.022l0.153,-0.018l0.154,-0.012l0.155,-0.008l0.155,-0.002l0.155,0.002l0.155,0.008l0.154,0.012l0.153,0.018l0.038,0.005l-0.006,-0.028l-0.028,-0.147l-0.025,-0.149l-0.022,-0.149l-0.02,-0.15l-0.016,-0.152l-0.014,-0.153l-0.01,-0.153l-0.008,-0.153l-0.005,-0.156l-0.001,-0.155l0.001,-0.155l0.005,-0.156l0.008,-0.153l0.01,-0.153l0.014,-0.153l0.016,-0.152l0.02,-0.15l0.022,-0.149l0.025,-0.149l0.028,-0.147l0.031,-0.146l0.033,-0.145l0.037,-0.144l0.039,-0.143l0.042,-0.141l0.044,-0.14l0.048,-0.139l0.05,-0.138l0.052,-0.136l0.055,-0.134l0.058,-0.133l0.061,-0.132l0.063,-0.13l0.066,-0.128l0.068,-0.126l0.071,-0.126l0.073,-0.123l0.077,-0.121l0.078,-0.12l0.082,-0.118l0.083,-0.116l0.087,-0.113l0.089,-0.112l0.092,-0.11l0.094,-0.107l0.097,-0.106l0.099,-0.103l0.102,-0.1l0.104,-0.098l0.108,-0.096l0.11,-0.093l0.112,-0.09l0.115,-0.088l0.118,-0.084l0.12,-0.082l0.122,-0.078l0.125,-0.075l0.128,-0.072l0.13,-0.068l0.133,-0.065l0.135,-0.061l0.137,-0.058l0.139,-0.053l0.141,-0.049l0.143,-0.045l0.146,-0.041l0.147,-0.036l0.148,-0.032l0.15,-0.027l0.152,-0.022l0.153,-0.018l0.154,-0.012l0.155,-0.008l0.155,-0.002l0.156,0.002l0.154,0.008l0.154,0.012l0.153,0.018l0.151,0.022l0.151,0.027l0.148,0.032l0.147,0.036l0.146,0.041l0.143,0.045l0.141,0.049l0.14,0.053l0.137,0.058l0.134,0.061l0.133,0.065l0.13,0.068l0.127,0.072l0.126,0.075l0.122,0.078l0.12,0.082l0.118,0.084l0.115,0.088l0.112,0.09l0.11,0.093l0.107,0.096l0.105,0.098l0.102,0.101l0.1,0.103l0.096,0.104l0.094,0.108l0.092,0.11l0.089,0.112l0.087,0.114l0.083,0.115l0.082,0.118l0.078,0.12l0.077,0.121l0.04,0.068l0.04,-0.068l0.077,-0.122l0.078,-0.119l0.082,-0.118l0.083,-0.116l0.087,-0.113l0.089,-0.112l0.091,-0.11l0.095,-0.107l0.097,-0.106l0.099,-0.103l0.102,-0.1l0.105,-0.098l0.107,-0.096l0.11,-0.093l0.112,-0.09l0.115,-0.088l0.118,-0.084l0.12,-0.082l0.122,-0.078l0.125,-0.075l0.128,-0.072l0.13,-0.069l0.133,-0.064l0.134,-0.061l0.137,-0.058l0.14,-0.053l0.141,-0.049l0.143,-0.045l0.146,-0.041l0.147,-0.036l0.148,-0.032l0.151,-0.027l0.151,-0.022l0.153,-0.018l0.154,-0.012l0.155,-0.008l0.155,-0.002l0.155,0.002Zm-4.725,13.999l-0.069,0.002l-0.069,0.004l-0.068,0.004l-0.068,0.007l-0.067,0.007l-0.067,0.01l-0.067,0.01l-0.066,0.012l-0.065,0.013l-0.066,0.014l-0.065,0.016l-0.064,0.016l-0.064,0.019l-0.063,0.019l-0.063,0.021l-0.063,0.022l-0.062,0.023l-0.061,0.024l-0.061,0.026l-0.06,0.026l-0.06,0.028l-0.059,0.03l-0.059,0.03l-0.057,0.031l-0.058,0.033l-0.056,0.033l-0.056,0.035l-0.055,0.036l-0.055,0.037l-0.053,0.038l-0.053,0.039l-0.052,0.04l-0.051,0.041l-0.051,0.042l-0.05,0.043l-0.048,0.045l-0.048,0.045l-0.047,0.046l-0.046,0.047l-0.045,0.048l-0.045,0.049l-0.043,0.049l-0.042,0.051l-0.041,0.051l-0.041,0.053l-0.039,0.053l-0.038,0.054l-0.037,0.055l-0.037,0.055l-0.035,0.057l-0.033,0.057l-0.033,0.058l-0.032,0.059l-0.031,0.06l-0.029,0.06l-0.028,0.061l-0.027,0.062l-0.026,0.063l-0.025,0.064l-0.024,0.064l-0.022,0.065l-0.021,0.065l-0.022,0.077l-0.639,2.233l-0.024,0.084l-0.03,0.093l-0.031,0.092l-0.033,0.091l-0.034,0.09l-0.037,0.089l-0.038,0.089l-0.039,0.088l-0.042,0.087l-0.043,0.087l-0.044,0.085l-0.046,0.084l-0.048,0.084l-0.049,0.082l-0.051,0.082l-0.053,0.081l-0.054,0.079l-0.056,0.079l-0.057,0.077l-0.058,0.076l-0.06,0.075l-0.062,0.075l-0.063,0.072l-0.064,0.072l-0.066,0.071l-0.067,0.069l-0.069,0.068l-0.07,0.067l-0.071,0.065l-0.073,0.065l-0.074,0.062l-0.068,0.056l-2.912,2.329l-0.045,0.038l-0.033,0.029l-0.033,0.03l-0.031,0.031l-0.031,0.031l-0.029,0.032l-0.029,0.033l-0.027,0.034l-0.027,0.035l-0.026,0.035l-0.024,0.036l-0.024,0.037l-0.022,0.036l-0.022,0.038l-0.02,0.039l-0.02,0.038l-0.018,0.04l-0.017,0.04l-0.016,0.04l-0.015,0.041l-0.014,0.041l-0.012,0.042l-0.012,0.042l-0.01,0.042l-0.009,0.042l-0.008,0.043l-0.007,0.044l-0.006,0.043l-0.004,0.044l-0.003,0.044l-0.002,0.044l-0.001,0.052l0,0.023l0.001,0.028l0.001,0.027l0.001,0.027l0.002,0.028l0.002,0.027l0.003,0.028l0.003,0.027l0.004,0.027l0.003,0.027l0.005,0.027l0.004,0.027l0.005,0.027l0.006,0.026l0.005,0.027l0.007,0.026l0.006,0.027l0.007,0.026l0.008,0.026l0.007,0.026l0.008,0.025l0.009,0.026l0.009,0.026l0.009,0.025l0.009,0.025l0.01,0.026l0.011,0.025l0.01,0.024l0.011,0.025l0.011,0.025l0.012,0.024l0.012,0.025l0.013,0.023l0.012,0.024l0.014,0.024l0.013,0.023l0.014,0.023l0.014,0.023l0.015,0.023l0.014,0.023l0.015,0.022l0.016,0.022l0.016,0.023l0.016,0.021l0.016,0.021l0.017,0.022l0.017,0.021l0.018,0.021l0.017,0.02l0.018,0.02l0.019,0.021l0.018,0.019l0.019,0.02l0.02,0.02l0.019,0.019l0.02,0.018l0.02,0.019l0.021,0.018l0.021,0.018l0.021,0.018l0.021,0.017l0.022,0.017l0.022,0.017l0.022,0.016l0.023,0.017l0.023,0.016l0.023,0.015l0.023,0.015l0.023,0.015l0.023,0.014l0.024,0.014l0.024,0.014l0.024,0.013l0.024,0.013l0.024,0.012l0.025,0.012l0.024,0.012l0.025,0.011l0.025,0.011l0.025,0.011l0.025,0.01l0.025,0.01l0.026,0.009l0.025,0.009l0.026,0.009l0.026,0.008l0.026,0.008l0.025,0.008l0.026,0.007l0.027,0.007l0.026,0.006l0.026,0.006l0.027,0.006l0.026,0.005l0.027,0.005l0.026,0.004l0.027,0.004l0.027,0.004l0.027,0.003l0.027,0.003l0.026,0.003l0.027,0.002l0.028,0.002l0.026,0.001l0.027,0.001l0.028,0.001l0.027,0l0.027,-0.001l0.027,0l0.027,-0.001l0.027,-0.002l0.027,-0.001l0.027,-0.003l0.027,-0.002l0.027,-0.003l0.027,-0.004l0.027,-0.004l0.027,-0.004l0.027,-0.004l0.027,-0.005l0.027,-0.006l0.026,-0.006l0.027,-0.006l0.027,-0.007l0.027,-0.007l0.026,-0.007l0.027,-0.008l0.033,-0.011l4.331,-1.393l0.12,-0.038l0.13,-0.038l0.131,-0.035l0.131,-0.032l0.132,-0.03l0.132,-0.028l0.133,-0.025l0.133,-0.022l0.133,-0.02l0.133,-0.017l0.134,-0.015l0.134,-0.012l0.134,-0.009l0.134,-0.007l0.134,-0.004l0.134,-0.002l0.135,0.001l0.134,0.003l0.134,0.006l0.134,0.009l0.134,0.011l0.134,0.014l0.133,0.016l0.134,0.019l0.133,0.021l0.132,0.024l0.132,0.027l0.132,0.029l0.132,0.032l0.131,0.034l0.13,0.037l0.121,0.037l4.585,1.442l0.034,0.011l0.027,0.008l0.027,0.007l0.026,0.007l0.027,0.006l0.027,0.007l0.027,0.005l0.027,0.005l0.027,0.005l0.027,0.005l0.027,0.004l0.027,0.004l0.027,0.003l0.028,0.003l0.027,0.002l0.027,0.002l0.027,0.002l0.027,0.001l0.027,0.001l0.027,0.001l0.028,0l0.027,-0.001l0.027,0l0.027,-0.002l0.027,-0.001l0.027,-0.002l0.027,-0.002l0.027,-0.003l0.027,-0.003l0.027,-0.003l0.027,-0.004l0.027,-0.004l0.026,-0.005l0.027,-0.005l0.026,-0.005l0.027,-0.006l0.026,-0.006l0.027,-0.007l0.026,-0.007l0.026,-0.007l0.026,-0.008l0.026,-0.008l0.026,-0.008l0.025,-0.009l0.026,-0.009l0.025,-0.01l0.026,-0.01l0.025,-0.01l0.025,-0.011l0.025,-0.011l0.024,-0.012l0.025,-0.011l0.025,-0.013l0.024,-0.012l0.024,-0.013l0.024,-0.014l0.024,-0.013l0.023,-0.014l0.024,-0.015l0.023,-0.014l0.023,-0.016l0.023,-0.015l0.023,-0.016l0.023,-0.016l0.022,-0.017l0.022,-0.017l0.022,-0.018l0.021,-0.017l0.021,-0.017l0.021,-0.019l0.021,-0.018l0.02,-0.019l0.02,-0.019l0.019,-0.018l0.02,-0.02l0.019,-0.02l0.018,-0.019l0.019,-0.021l0.018,-0.02l0.018,-0.021l0.017,-0.021l0.017,-0.021l0.017,-0.022l0.016,-0.021l0.016,-0.022l0.016,-0.022l0.016,-0.022l0.015,-0.023l0.014,-0.022l0.015,-0.023l0.014,-0.023l0.014,-0.024l0.014,-0.024l0.012,-0.023l0.013,-0.024l0.013,-0.024l0.012,-0.024l0.011,-0.024l0.012,-0.025l0.011,-0.025l0.011,-0.025l0.01,-0.025l0.01,-0.025l0.009,-0.026l0.01,-0.025l0.008,-0.025l0.009,-0.027l0.008,-0.026l0.007,-0.025l0.008,-0.026l0.007,-0.027l0.006,-0.027l0.007,-0.026l0.005,-0.027l0.006,-0.026l0.005,-0.028l0.004,-0.026l0.005,-0.027l0.003,-0.028l0.004,-0.026l0.003,-0.028l0.003,-0.028l0.002,-0.027l0.002,-0.027l0.001,-0.028l0.001,-0.028l0.001,-0.027l0,-0.023l-0.001,-0.052l-0.002,-0.046l-0.003,-0.045l-0.004,-0.045l-0.006,-0.045l-0.007,-0.044l-0.008,-0.044l-0.01,-0.045l-0.01,-0.043l-0.012,-0.043l-0.013,-0.043l-0.014,-0.042l-0.016,-0.042l-0.016,-0.041l-0.018,-0.041l-0.019,-0.041l-0.019,-0.039l-0.021,-0.04l-0.022,-0.039l-0.023,-0.038l-0.025,-0.037l-0.025,-0.037l-0.026,-0.036l-0.027,-0.036l-0.029,-0.034l-0.029,-0.034l-0.03,-0.033l-0.032,-0.033l-0.032,-0.032l-0.034,-0.03l-0.034,-0.03l-0.046,-0.038l-2.896,-2.317l-0.068,-0.056l-0.074,-0.062l-0.073,-0.065l-0.071,-0.065l-0.07,-0.067l-0.069,-0.068l-0.067,-0.069l-0.066,-0.071l-0.064,-0.072l-0.063,-0.072l-0.062,-0.075l-0.06,-0.075l-0.058,-0.076l-0.058,-0.078l-0.055,-0.078l-0.054,-0.079l-0.052,-0.081l-0.051,-0.081l-0.05,-0.083l-0.048,-0.084l-0.046,-0.084l-0.044,-0.086l-0.043,-0.086l-0.042,-0.087l-0.039,-0.087l-0.038,-0.09l-0.036,-0.089l-0.035,-0.09l-0.033,-0.092l-0.031,-0.091l-0.029,-0.093l-0.025,-0.083l-0.638,-2.234l-0.023,-0.076l-0.021,-0.066l-0.022,-0.065l-0.024,-0.064l-0.025,-0.064l-0.025,-0.062l-0.028,-0.062l-0.028,-0.062l-0.029,-0.06l-0.031,-0.06l-0.032,-0.059l-0.033,-0.058l-0.033,-0.057l-0.035,-0.057l-0.037,-0.055l-0.037,-0.055l-0.038,-0.054l-0.039,-0.053l-0.041,-0.053l-0.041,-0.051l-0.042,-0.051l-0.044,-0.05l-0.044,-0.049l-0.045,-0.047l-0.046,-0.047l-0.047,-0.046l-0.048,-0.045l-0.048,-0.045l-0.05,-0.043l-0.051,-0.042l-0.051,-0.041l-0.052,-0.04l-0.053,-0.039l-0.053,-0.038l-0.055,-0.037l-0.055,-0.036l-0.056,-0.035l-0.056,-0.033l-0.057,-0.033l-0.058,-0.031l-0.059,-0.031l-0.059,-0.029l-0.06,-0.028l-0.06,-0.026l-0.061,-0.026l-0.061,-0.024l-0.062,-0.023l-0.063,-0.022l-0.062,-0.021l-0.064,-0.019l-0.064,-0.019l-0.064,-0.016l-0.065,-0.016l-0.065,-0.014l-0.066,-0.013l-0.066,-0.012l-0.067,-0.011l-0.067,-0.009l-0.067,-0.007l-0.068,-0.007l-0.068,-0.004l-0.069,-0.004l-0.069,-0.002l-0.07,-0.001l-0.07,0.001Zm10.545,-2l-0.025,0.001l-0.024,0.002l-0.024,0.003l-0.025,0.003l-0.024,0.005l-0.024,0.005l-0.025,0.006l-0.024,0.007l-0.026,0.008l-0.025,0.009l-0.026,0.01l-0.027,0.011l-0.027,0.012l-0.027,0.013l-0.028,0.015l-0.028,0.016l-0.029,0.017l-0.029,0.019l-0.03,0.02l-0.03,0.022l-0.031,0.023l-0.03,0.025l-0.031,0.026l-0.032,0.028l-0.031,0.029l-0.032,0.031l-0.031,0.033l-0.032,0.034l-0.031,0.036l-0.031,0.038l-0.031,0.038l-0.032,0.041l-0.03,0.043l-0.03,0.043l-0.03,0.046l-0.03,0.047l-0.028,0.048l-0.029,0.05l-0.027,0.051l-0.028,0.053l-0.026,0.054l-0.025,0.056l-0.025,0.057l-0.024,0.058l-0.023,0.059l-0.022,0.061l-0.021,0.062l-0.02,0.062l-0.019,0.064l-0.018,0.066l-0.017,0.066l-0.015,0.067l-0.015,0.069l-0.013,0.069l-0.012,0.07l-0.01,0.071l-0.01,0.072l-0.007,0.073l-0.007,0.074l-0.005,0.075l-0.004,0.075l-0.002,0.075l-0.001,0.077l0.001,0.077l0.002,0.075l0.004,0.075l0.005,0.075l0.007,0.074l0.007,0.073l0.01,0.072l0.01,0.071l0.012,0.07l0.013,0.069l0.015,0.069l0.015,0.067l0.017,0.066l0.018,0.066l0.019,0.064l0.02,0.062l0.021,0.062l0.022,0.061l0.023,0.059l0.024,0.058l0.025,0.057l0.025,0.056l0.026,0.054l0.028,0.053l0.027,0.051l0.029,0.05l0.028,0.048l0.03,0.047l0.03,0.046l0.03,0.043l0.03,0.043l0.032,0.041l0.031,0.038l0.031,0.038l0.031,0.036l0.032,0.034l0.031,0.033l0.032,0.031l0.031,0.029l0.032,0.028l0.031,0.026l0.03,0.025l0.031,0.023l0.03,0.022l0.03,0.02l0.029,0.019l0.029,0.017l0.028,0.016l0.028,0.015l0.027,0.013l0.027,0.012l0.027,0.011l0.026,0.01l0.025,0.009l0.026,0.008l0.024,0.007l0.025,0.006l0.024,0.005l0.024,0.005l0.025,0.003l0.024,0.003l0.024,0.002l0.025,0.001l0.025,0.001l0.025,-0.001l0.025,-0.001l0.024,-0.002l0.024,-0.003l0.025,-0.003l0.024,-0.005l0.024,-0.005l0.025,-0.006l0.024,-0.007l0.026,-0.008l0.025,-0.009l0.026,-0.009l0.027,-0.012l0.026,-0.012l0.028,-0.013l0.028,-0.015l0.028,-0.016l0.029,-0.017l0.029,-0.019l0.03,-0.02l0.03,-0.022l0.03,-0.023l0.031,-0.025l0.031,-0.026l0.032,-0.028l0.031,-0.029l0.031,-0.031l0.032,-0.033l0.032,-0.034l0.031,-0.036l0.031,-0.038l0.032,-0.039l0.03,-0.04l0.031,-0.043l0.031,-0.044l0.029,-0.045l0.029,-0.047l0.029,-0.048l0.029,-0.05l0.028,-0.052l0.027,-0.052l0.026,-0.054l0.025,-0.056l0.025,-0.057l0.024,-0.058l0.023,-0.059l0.022,-0.061l0.021,-0.061l0.02,-0.064l0.019,-0.064l0.018,-0.065l0.017,-0.066l0.015,-0.068l0.015,-0.068l0.013,-0.069l0.012,-0.07l0.01,-0.071l0.01,-0.072l0.007,-0.073l0.007,-0.074l0.005,-0.074l0.004,-0.075l0.002,-0.076l0.001,-0.077l-0.001,-0.077l-0.002,-0.076l-0.004,-0.075l-0.005,-0.074l-0.007,-0.074l-0.007,-0.073l-0.01,-0.072l-0.01,-0.071l-0.012,-0.07l-0.013,-0.069l-0.015,-0.068l-0.015,-0.068l-0.017,-0.066l-0.018,-0.065l-0.019,-0.064l-0.02,-0.064l-0.021,-0.061l-0.022,-0.061l-0.023,-0.06l-0.024,-0.057l-0.025,-0.057l-0.025,-0.056l-0.026,-0.054l-0.027,-0.052l-0.028,-0.052l-0.029,-0.05l-0.029,-0.048l-0.029,-0.047l-0.029,-0.045l-0.031,-0.044l-0.031,-0.043l-0.03,-0.04l-0.032,-0.039l-0.031,-0.038l-0.031,-0.036l-0.032,-0.034l-0.032,-0.033l-0.031,-0.031l-0.031,-0.029l-0.032,-0.028l-0.031,-0.026l-0.03,-0.025l-0.031,-0.023l-0.03,-0.022l-0.03,-0.02l-0.029,-0.019l-0.029,-0.017l-0.028,-0.016l-0.028,-0.015l-0.028,-0.013l-0.026,-0.012l-0.027,-0.012l-0.026,-0.009l-0.025,-0.009l-0.026,-0.008l-0.024,-0.007l-0.025,-0.006l-0.024,-0.005l-0.024,-0.005l-0.025,-0.003l-0.024,-0.003l-0.024,-0.002l-0.025,-0.001l-0.025,-0.001l-0.025,0.001Zm-21,0l-0.025,0.001l-0.024,0.002l-0.024,0.003l-0.025,0.003l-0.024,0.005l-0.024,0.005l-0.025,0.006l-0.024,0.007l-0.026,0.008l-0.025,0.009l-0.026,0.01l-0.027,0.011l-0.027,0.012l-0.027,0.013l-0.028,0.015l-0.028,0.016l-0.029,0.017l-0.029,0.019l-0.03,0.02l-0.03,0.022l-0.031,0.023l-0.03,0.025l-0.031,0.026l-0.032,0.028l-0.031,0.029l-0.032,0.031l-0.031,0.033l-0.032,0.034l-0.031,0.036l-0.031,0.038l-0.031,0.038l-0.032,0.041l-0.03,0.043l-0.03,0.043l-0.03,0.046l-0.03,0.047l-0.028,0.048l-0.029,0.05l-0.027,0.051l-0.028,0.053l-0.026,0.054l-0.025,0.056l-0.025,0.057l-0.024,0.058l-0.023,0.059l-0.022,0.061l-0.021,0.062l-0.02,0.062l-0.019,0.064l-0.018,0.066l-0.017,0.066l-0.015,0.067l-0.015,0.069l-0.013,0.069l-0.012,0.07l-0.01,0.071l-0.01,0.072l-0.007,0.073l-0.007,0.074l-0.005,0.075l-0.004,0.075l-0.002,0.075l-0.001,0.077l0.001,0.077l0.002,0.075l0.004,0.075l0.005,0.075l0.007,0.074l0.007,0.073l0.01,0.072l0.01,0.071l0.012,0.07l0.013,0.069l0.015,0.069l0.015,0.067l0.017,0.066l0.018,0.066l0.019,0.064l0.02,0.062l0.021,0.062l0.022,0.061l0.023,0.059l0.024,0.058l0.025,0.057l0.025,0.056l0.026,0.054l0.028,0.053l0.027,0.051l0.029,0.05l0.028,0.048l0.03,0.047l0.03,0.046l0.03,0.043l0.03,0.043l0.032,0.041l0.031,0.038l0.031,0.038l0.031,0.036l0.032,0.034l0.031,0.033l0.032,0.031l0.031,0.029l0.032,0.028l0.031,0.026l0.03,0.025l0.031,0.023l0.03,0.022l0.03,0.02l0.029,0.019l0.029,0.017l0.028,0.016l0.028,0.015l0.027,0.013l0.027,0.012l0.027,0.011l0.026,0.01l0.025,0.009l0.026,0.008l0.024,0.007l0.025,0.006l0.024,0.005l0.024,0.005l0.025,0.003l0.024,0.003l0.024,0.002l0.025,0.001l0.025,0.001l0.025,-0.001l0.025,-0.001l0.024,-0.002l0.024,-0.003l0.025,-0.003l0.024,-0.005l0.024,-0.005l0.025,-0.006l0.024,-0.007l0.026,-0.008l0.025,-0.009l0.026,-0.009l0.027,-0.012l0.026,-0.012l0.028,-0.013l0.028,-0.015l0.028,-0.016l0.029,-0.017l0.029,-0.019l0.03,-0.02l0.03,-0.022l0.03,-0.023l0.031,-0.025l0.031,-0.026l0.032,-0.028l0.031,-0.029l0.031,-0.031l0.032,-0.033l0.032,-0.034l0.031,-0.036l0.031,-0.038l0.032,-0.039l0.03,-0.04l0.031,-0.043l0.031,-0.044l0.029,-0.045l0.029,-0.047l0.029,-0.048l0.029,-0.05l0.028,-0.052l0.027,-0.052l0.026,-0.054l0.025,-0.056l0.025,-0.057l0.024,-0.058l0.023,-0.059l0.022,-0.061l0.021,-0.061l0.02,-0.064l0.019,-0.064l0.018,-0.065l0.017,-0.066l0.015,-0.068l0.015,-0.068l0.013,-0.069l0.012,-0.07l0.01,-0.071l0.01,-0.072l0.007,-0.073l0.007,-0.074l0.005,-0.074l0.004,-0.075l0.002,-0.076l0.001,-0.077l-0.001,-0.077l-0.002,-0.076l-0.004,-0.075l-0.005,-0.074l-0.007,-0.074l-0.007,-0.073l-0.01,-0.072l-0.01,-0.071l-0.012,-0.07l-0.013,-0.069l-0.015,-0.068l-0.015,-0.068l-0.017,-0.066l-0.018,-0.065l-0.019,-0.064l-0.02,-0.064l-0.021,-0.061l-0.022,-0.061l-0.023,-0.06l-0.024,-0.057l-0.025,-0.057l-0.025,-0.056l-0.026,-0.054l-0.027,-0.052l-0.028,-0.052l-0.029,-0.05l-0.029,-0.048l-0.029,-0.047l-0.029,-0.045l-0.031,-0.044l-0.031,-0.043l-0.03,-0.04l-0.032,-0.039l-0.031,-0.038l-0.031,-0.036l-0.032,-0.034l-0.032,-0.033l-0.031,-0.031l-0.031,-0.029l-0.032,-0.028l-0.031,-0.026l-0.03,-0.025l-0.031,-0.023l-0.03,-0.022l-0.03,-0.02l-0.029,-0.019l-0.029,-0.017l-0.028,-0.016l-0.028,-0.015l-0.028,-0.013l-0.026,-0.012l-0.027,-0.012l-0.026,-0.009l-0.025,-0.009l-0.026,-0.008l-0.024,-0.007l-0.025,-0.006l-0.024,-0.005l-0.024,-0.005l-0.025,-0.003l-0.024,-0.003l-0.024,-0.002l-0.025,-0.001l-0.025,-0.001l-0.025,0.001Zm15,-8l-0.025,0.001l-0.024,0.002l-0.024,0.003l-0.025,0.003l-0.024,0.005l-0.024,0.005l-0.025,0.006l-0.024,0.007l-0.026,0.008l-0.025,0.009l-0.026,0.009l-0.027,0.012l-0.026,0.012l-0.028,0.013l-0.028,0.015l-0.028,0.016l-0.029,0.017l-0.029,0.019l-0.03,0.02l-0.03,0.022l-0.031,0.023l-0.03,0.025l-0.031,0.026l-0.032,0.028l-0.031,0.029l-0.032,0.031l-0.031,0.033l-0.032,0.034l-0.031,0.036l-0.031,0.038l-0.032,0.039l-0.031,0.04l-0.03,0.043l-0.03,0.043l-0.03,0.046l-0.03,0.047l-0.028,0.048l-0.029,0.05l-0.027,0.051l-0.028,0.053l-0.026,0.054l-0.025,0.056l-0.025,0.057l-0.024,0.058l-0.023,0.059l-0.022,0.061l-0.021,0.062l-0.02,0.062l-0.019,0.064l-0.018,0.066l-0.017,0.066l-0.015,0.068l-0.015,0.068l-0.013,0.069l-0.012,0.07l-0.01,0.071l-0.01,0.072l-0.007,0.073l-0.007,0.074l-0.005,0.074l-0.004,0.075l-0.002,0.077l-0.001,0.076l0.001,0.076l0.002,0.077l0.004,0.075l0.005,0.074l0.007,0.074l0.007,0.073l0.01,0.072l0.01,0.071l0.012,0.07l0.013,0.069l0.015,0.068l0.015,0.068l0.017,0.066l0.018,0.066l0.019,0.064l0.02,0.062l0.021,0.062l0.022,0.061l0.023,0.059l0.024,0.058l0.025,0.057l0.025,0.056l0.026,0.054l0.028,0.053l0.027,0.051l0.029,0.05l0.028,0.048l0.03,0.047l0.03,0.046l0.03,0.043l0.03,0.043l0.031,0.04l0.032,0.039l0.031,0.038l0.031,0.036l0.032,0.034l0.031,0.033l0.032,0.031l0.031,0.029l0.032,0.028l0.031,0.026l0.03,0.025l0.031,0.023l0.03,0.022l0.03,0.02l0.029,0.019l0.029,0.017l0.028,0.016l0.028,0.015l0.028,0.013l0.027,0.012l0.026,0.012l0.026,0.009l0.025,0.009l0.026,0.008l0.024,0.007l0.025,0.006l0.024,0.005l0.024,0.005l0.025,0.003l0.024,0.003l0.024,0.002l0.025,0.001l0.025,0.001l0.025,-0.001l0.025,-0.001l0.024,-0.002l0.024,-0.003l0.025,-0.003l0.024,-0.005l0.024,-0.005l0.025,-0.006l0.024,-0.007l0.026,-0.008l0.025,-0.009l0.026,-0.009l0.027,-0.012l0.026,-0.012l0.028,-0.013l0.028,-0.015l0.028,-0.016l0.029,-0.017l0.029,-0.019l0.03,-0.02l0.03,-0.022l0.031,-0.023l0.03,-0.025l0.031,-0.026l0.032,-0.028l0.031,-0.029l0.032,-0.031l0.031,-0.033l0.032,-0.034l0.031,-0.036l0.031,-0.038l0.032,-0.039l0.031,-0.04l0.03,-0.043l0.03,-0.043l0.03,-0.046l0.03,-0.047l0.029,-0.048l0.028,-0.05l0.027,-0.051l0.028,-0.053l0.026,-0.054l0.025,-0.056l0.025,-0.057l0.024,-0.058l0.023,-0.059l0.022,-0.06l0.021,-0.063l0.02,-0.063l0.019,-0.063l0.018,-0.066l0.017,-0.066l0.015,-0.068l0.015,-0.068l0.013,-0.069l0.012,-0.07l0.01,-0.071l0.01,-0.072l0.007,-0.073l0.007,-0.074l0.005,-0.074l0.004,-0.075l0.002,-0.076l0.001,-0.077l-0.001,-0.077l-0.002,-0.076l-0.004,-0.075l-0.005,-0.074l-0.007,-0.074l-0.007,-0.073l-0.01,-0.072l-0.01,-0.071l-0.012,-0.07l-0.013,-0.069l-0.015,-0.068l-0.015,-0.068l-0.017,-0.066l-0.018,-0.066l-0.019,-0.063l-0.02,-0.063l-0.021,-0.063l-0.022,-0.06l-0.023,-0.059l-0.024,-0.058l-0.025,-0.057l-0.025,-0.056l-0.026,-0.054l-0.028,-0.053l-0.027,-0.051l-0.028,-0.05l-0.029,-0.048l-0.03,-0.047l-0.03,-0.046l-0.03,-0.043l-0.03,-0.043l-0.031,-0.04l-0.032,-0.039l-0.031,-0.038l-0.031,-0.036l-0.032,-0.034l-0.031,-0.033l-0.032,-0.031l-0.031,-0.029l-0.032,-0.028l-0.031,-0.026l-0.03,-0.025l-0.031,-0.023l-0.03,-0.022l-0.03,-0.02l-0.029,-0.019l-0.029,-0.017l-0.028,-0.016l-0.028,-0.015l-0.028,-0.013l-0.026,-0.012l-0.027,-0.012l-0.026,-0.009l-0.025,-0.009l-0.026,-0.008l-0.024,-0.007l-0.025,-0.006l-0.024,-0.005l-0.024,-0.005l-0.025,-0.003l-0.024,-0.003l-0.024,-0.002l-0.025,-0.001l-0.025,-0.001l-0.025,0.001Zm-9,0l-0.025,0.001l-0.024,0.002l-0.024,0.003l-0.024,0.003l-0.025,0.005l-0.024,0.005l-0.025,0.006l-0.024,0.007l-0.026,0.008l-0.025,0.009l-0.026,0.01l-0.027,0.011l-0.027,0.012l-0.027,0.013l-0.028,0.015l-0.028,0.016l-0.029,0.017l-0.03,0.019l-0.029,0.02l-0.03,0.022l-0.031,0.023l-0.03,0.025l-0.031,0.026l-0.032,0.028l-0.031,0.029l-0.032,0.031l-0.031,0.033l-0.032,0.034l-0.031,0.036l-0.031,0.038l-0.032,0.039l-0.031,0.04l-0.03,0.043l-0.03,0.043l-0.03,0.046l-0.03,0.047l-0.028,0.048l-0.029,0.05l-0.027,0.051l-0.028,0.053l-0.026,0.054l-0.025,0.056l-0.025,0.057l-0.024,0.058l-0.023,0.059l-0.022,0.061l-0.021,0.062l-0.02,0.062l-0.019,0.065l-0.018,0.065l-0.017,0.066l-0.015,0.067l-0.015,0.069l-0.013,0.069l-0.012,0.07l-0.01,0.071l-0.01,0.073l-0.008,0.073l-0.006,0.073l-0.005,0.074l-0.004,0.076l-0.002,0.075l-0.001,0.077l0.001,0.077l0.002,0.075l0.004,0.076l0.005,0.074l0.006,0.073l0.008,0.073l0.01,0.073l0.01,0.071l0.012,0.07l0.013,0.069l0.015,0.069l0.015,0.067l0.017,0.066l0.018,0.065l0.019,0.065l0.02,0.062l0.021,0.062l0.022,0.061l0.023,0.059l0.024,0.058l0.025,0.057l0.025,0.056l0.026,0.054l0.028,0.053l0.027,0.051l0.029,0.05l0.028,0.048l0.03,0.047l0.03,0.046l0.03,0.043l0.03,0.043l0.031,0.04l0.032,0.039l0.031,0.038l0.031,0.036l0.032,0.034l0.031,0.033l0.032,0.031l0.031,0.029l0.032,0.028l0.031,0.026l0.03,0.025l0.031,0.023l0.03,0.022l0.029,0.02l0.03,0.019l0.029,0.017l0.028,0.016l0.028,0.015l0.027,0.013l0.027,0.012l0.027,0.011l0.026,0.01l0.025,0.009l0.026,0.008l0.024,0.007l0.025,0.006l0.024,0.005l0.025,0.005l0.024,0.003l0.024,0.003l0.024,0.002l0.025,0.001l0.025,0.001l0.025,-0.001l0.025,-0.001l0.024,-0.002l0.024,-0.003l0.025,-0.003l0.024,-0.005l0.024,-0.005l0.025,-0.006l0.025,-0.007l0.025,-0.008l0.025,-0.009l0.026,-0.009l0.027,-0.012l0.027,-0.012l0.027,-0.013l0.028,-0.015l0.028,-0.016l0.029,-0.017l0.029,-0.019l0.03,-0.02l0.03,-0.022l0.03,-0.023l0.031,-0.025l0.031,-0.026l0.032,-0.028l0.031,-0.029l0.031,-0.031l0.032,-0.033l0.032,-0.034l0.031,-0.036l0.031,-0.038l0.032,-0.039l0.03,-0.04l0.031,-0.043l0.03,-0.043l0.03,-0.046l0.03,-0.047l0.028,-0.048l0.029,-0.05l0.028,-0.052l0.026,-0.052l0.027,-0.054l0.025,-0.056l0.025,-0.057l0.024,-0.058l0.023,-0.059l0.022,-0.061l0.021,-0.061l0.02,-0.063l0.019,-0.065l0.018,-0.065l0.017,-0.066l0.015,-0.068l0.015,-0.068l0.013,-0.069l0.012,-0.07l0.01,-0.071l0.01,-0.072l0.007,-0.073l0.007,-0.074l0.005,-0.074l0.004,-0.075l0.002,-0.076l0.001,-0.077l-0.001,-0.077l-0.002,-0.076l-0.004,-0.075l-0.005,-0.074l-0.007,-0.074l-0.007,-0.073l-0.01,-0.072l-0.01,-0.071l-0.012,-0.07l-0.013,-0.069l-0.015,-0.068l-0.015,-0.068l-0.017,-0.066l-0.018,-0.065l-0.019,-0.065l-0.02,-0.063l-0.021,-0.061l-0.022,-0.061l-0.023,-0.06l-0.024,-0.057l-0.025,-0.057l-0.025,-0.056l-0.027,-0.054l-0.026,-0.052l-0.028,-0.052l-0.029,-0.05l-0.028,-0.048l-0.03,-0.047l-0.03,-0.046l-0.03,-0.043l-0.031,-0.043l-0.03,-0.04l-0.032,-0.039l-0.031,-0.038l-0.031,-0.036l-0.032,-0.034l-0.032,-0.033l-0.031,-0.031l-0.031,-0.029l-0.032,-0.028l-0.031,-0.026l-0.03,-0.025l-0.031,-0.023l-0.03,-0.022l-0.03,-0.02l-0.029,-0.019l-0.029,-0.017l-0.028,-0.016l-0.028,-0.015l-0.027,-0.013l-0.027,-0.012l-0.027,-0.012l-0.026,-0.009l-0.025,-0.009l-0.025,-0.008l-0.025,-0.007l-0.025,-0.006l-0.024,-0.005l-0.024,-0.005l-0.025,-0.003l-0.024,-0.003l-0.024,-0.002l-0.025,-0.001l-0.025,-0.001l-0.025,0.001Z"/>
            <rect x="6" y="10" width="19" height="15"/>
        </g>
        <g id="emoji">
            <g>
                <path d="M8.163,6.141c0.448,-1.82 1.774,-3.141 3.337,-3.141c1.563,0 2.889,1.321 3.337,3.141l-0.981,0.719l-5.162,0l-0.531,-0.719Zm9,0c0.448,-1.82 1.774,-3.141 3.337,-3.141c1.563,0 2.889,1.321 3.337,3.141l-0.957,0.719l-4.82,0l-0.897,-0.719Z" style="fill:#333;"/>
                <path d="M14.837,6.141c0.106,0.429 0.163,0.886 0.163,1.359c0,0.662 -0.111,1.291 -0.311,1.857l-1.414,0.643l-3.793,0l-1.171,-0.643c-0.2,-0.566 -0.311,-1.195 -0.311,-1.857c0,-0.473 0.057,-0.93 0.163,-1.359l6.674,0Zm9,0c0.106,0.429 0.163,0.886 0.163,1.359c0,0.662 -0.111,1.291 -0.311,1.857l-1.131,0.643l-3.833,0l-1.414,-0.643c-0.2,-0.566 -0.311,-1.195 -0.311,-1.857c0,-0.473 0.057,-0.93 0.163,-1.359l6.674,0Z" style="fill:#88502b;"/>
                <path d="M2.59,13c0.628,-1.206 1.698,-2 2.91,-2c1.212,0 2.282,0.794 2.91,2l-0.87,0.731l-3.789,0l-1.161,-0.731Zm21,0c0.628,-1.206 1.698,-2 2.91,-2c1.212,0 2.282,0.794 2.91,2l-0.602,0.731l-4.203,0l-1.015,-0.731Zm0.099,-3.643c-0.551,1.558 -1.772,2.643 -3.189,2.643c-1.417,0 -2.638,-1.085 -3.189,-2.643l6.378,0Zm-9,0c-0.551,1.558 -1.772,2.643 -3.189,2.643c-1.417,0 -2.638,-1.085 -3.189,-2.643l6.378,0Z" style="fill:#df0000;"/>
                <path d="M8.41,13c0.373,0.715 0.59,1.575 0.59,2.5c0,0.344 -0.03,0.678 -0.087,1l-0.503,0.645l-5.82,0l-0.503,-0.645c-0.057,-0.322 -0.087,-0.656 -0.087,-1c0,-0.925 0.217,-1.785 0.59,-2.5l5.82,0Zm7.59,0l0.001,0c2.245,0 4.233,1.412 4.986,3.5l-0.402,0.645l-8.996,0l-0.576,-0.645c0.753,-2.088 2.741,-3.5 4.986,-3.5l0.001,0Zm13.41,0c0.373,0.715 0.59,1.575 0.59,2.5c0,0.344 -0.03,0.678 -0.087,1l-0.503,0.645l-5.82,0l-0.503,-0.645c-0.057,-0.322 -0.087,-0.656 -0.087,-1c0,-0.925 0.217,-1.785 0.59,-2.5l5.82,0Z" style="fill:#fb8721;"/>
                <path d="M26.896,26.625c-0.21,0.884 -0.727,1.676 -1.474,2.224c-0.992,0.728 -2.272,0.94 -3.446,0.571c-1.664,-0.524 -3.393,-1.068 -4.583,-1.443c-0.988,-0.31 -2.047,-0.307 -3.033,0.01c-1.133,0.365 -2.753,0.887 -4.328,1.393c-1.172,0.378 -2.453,0.172 -3.449,-0.553c-0.744,-0.542 -1.26,-1.326 -1.474,-2.202l0.588,-0.68l20.452,0l0.747,0.68Z" style="fill:#7706af;"/>
                <path d="M26.009,23.25c0.632,0.665 0.991,1.552 0.991,2.482c0,0.001 0,0.001 0,0.002c0,0.303 -0.036,0.602 -0.104,0.891l-21.787,0c-0.072,-0.295 -0.109,-0.601 -0.109,-0.911c0,-0.001 0,-0.001 0,-0.002c0,-0.923 0.358,-1.804 0.988,-2.462l1.03,-0.647l17.982,0l1.009,0.647Z" style="fill:#2c3ee5;"/>
                <path d="M22.222,20.056c0.151,0.201 0.327,0.383 0.525,0.542c0.765,0.611 1.968,1.574 2.9,2.32c0.129,0.103 0.25,0.214 0.362,0.332l-20.021,0c0.108,-0.113 0.225,-0.22 0.349,-0.319c0.934,-0.748 2.147,-1.718 2.916,-2.333c0.198,-0.159 0.374,-0.341 0.525,-0.542l0.97,-0.558l10.514,0l0.96,0.558Z" style="fill:#158f25;"/>
                <path d="M20.987,16.5c0.041,0.113 0.078,0.228 0.112,0.345c0.238,0.836 0.47,1.645 0.638,2.235c0.101,0.354 0.266,0.685 0.485,0.976l-12.444,0c0.219,-0.291 0.384,-0.622 0.485,-0.976c0.168,-0.59 0.4,-1.399 0.638,-2.235c0.034,-0.117 0.071,-0.232 0.112,-0.345l9.974,0Zm8.926,0c-0.354,2.003 -1.749,3.5 -3.413,3.5c-1.664,0 -3.059,-1.497 -3.413,-3.5l6.826,0Zm-21,0c-0.354,2.003 -1.749,3.5 -3.413,3.5c-1.664,0 -3.059,-1.497 -3.413,-3.5l6.826,0Z" style="fill:#f1e100;"/>
            </g>
        </g>
    </g>
</svg>
