<?xml version="1.0" encoding="UTF-8" standalone="no"?>
<!DOCTYPE svg PUBLIC "-//W3C//DTD SVG 1.1//EN" "http://www.w3.org/Graphics/SVG/1.1/DTD/svg11.dtd">
<svg width="100%" height="100%" viewBox="0 0 32 32" version="1.1" xmlns="http://www.w3.org/2000/svg" xmlns:xlink="http://www.w3.org/1999/xlink" xml:space="preserve" xmlns:serif="http://www.serif.com/" style="fill-rule:evenodd;clip-rule:evenodd;stroke-linecap:round;stroke-linejoin:round;stroke-miterlimit:2;">
    <rect id="transgender_mercury_symbol" x="0" y="0" width="32" height="32" style="fill:none;"/>
    <clipPath id="_clip1">
        <rect x="0" y="0" width="32" height="32"/>
    </clipPath>
    <g clip-path="url(#_clip1)">
        <g id="outline">
            <path d="M20,27.5l-2.5,0l0,2.5l-3,0l0,-2.5l-2.5,0l0,-5l1.399,0c-2.577,-1.033 -4.399,-3.556 -4.399,-6.5l0,-2c0,-1.713 0.617,-3.283 1.64,-4.5c-1.023,-1.217 -1.64,-2.787 -1.64,-4.5l0,-2l3,0c0,2.208 1.792,4 4,4c2.208,0 4,-1.792 4,-4l3,0l0,2l0,0.026c-0.006,1.703 -0.622,3.263 -1.64,4.474c1.023,1.217 1.64,2.787 1.64,4.5l0,2c0,2.944 -1.822,5.467 -4.399,6.5l1.399,0l0,5Zm-0.126,-12.5c-0.445,-1.724 -2.012,-3 -3.874,-3c-1.862,0 -3.429,1.276 -3.874,3c0.445,1.724 2.012,3 3.874,3c1.862,0 3.429,-1.276 3.874,-3Z" style="fill:none;stroke:#000;stroke-width:4px;"/>
            <rect x="11" y="11" width="10" height="8"/>
        </g>
        <g id="emoji">
            <path d="M11.672,10.5c-1.627,-1.282 -2.672,-3.27 -2.672,-5.5l3,0c0,2.208 1.792,4 4,4c2.208,0 4,-1.792 4,-4l3,0c0,2.23 -1.045,4.218 -2.672,5.5c1.627,1.282 2.672,3.27 2.672,5.5c0,3.349 -2.356,6.151 -5.5,6.839l0,1.661l2.5,1l0,2l-3.5,0l1,0.5l0,2l-3,0l0,-2l1,-0.5l-3.5,0l0,-2l2.5,-1l0,-1.661c-3.144,-0.688 -5.5,-3.49 -5.5,-6.839c0,-2.23 1.045,-4.218 2.672,-5.5Zm4.328,1.5c2.208,0 4,1.792 4,4c0,2.208 -1.792,4 -4,4c-2.208,0 -4,-1.792 -4,-4c0,-2.208 1.792,-4 4,-4Z" style="fill:#747474;"/>
            <path d="M9,5l0,-2l3,2l-3,0Z" style="fill:#747474;"/>
            <path d="M23,5l0,-2l-3,2l3,0Z" style="fill:#747474;"/>
            <rect x="9" y="14" width="2" height="2" style="fill:#747474;"/>
            <rect x="21" y="14" width="2" height="2" style="fill:#747474;"/>
            <circle cx="16" cy="14" r="5.5" style="fill:none;stroke:#fff;stroke-width:3px;"/>
            <rect x="8" y="3" width="17" height="7" style="fill:none;"/>
            <clipPath id="_clip2">
                <rect x="8" y="3" width="17" height="7"/>
            </clipPath>
            <g clip-path="url(#_clip2)">
                <circle cx="16" cy="3" r="5.5" style="fill:none;stroke:#fff;stroke-width:3px;"/>
            </g>
            <path d="M16,18.911l0,9.089" style="fill:none;stroke:#fff;stroke-width:3px;stroke-linecap:butt;"/>
            <path d="M20,24l-8,0" style="fill:none;stroke:#fff;stroke-width:3px;stroke-linecap:butt;"/>
        </g>
    </g>
</svg>
